<svg width="16" height="16" version="1.2" xmlns="http://www.w3.org/2000/svg">
 <rect transform="matrix(0,-1,-1,0,0,0)" x="-15.5" y="-15.5" width="15" height="15" rx="7.5" ry="7.5" style="fill:#f1f0e9"/>
 <path d="m8.4027533 3.9660402c-1.356565 1e-3 -2.508922 0.8363-3.059968 2.03076l-0.0377 0.0817-0.08734 6e-3c-1.252891 0.0899-2.244396 1.17497-2.244396 2.49258 0 1.37793 1.078214 2.5089198 2.411532 2.5089198h5.8340477c0.999674 0 1.807707-0.84824 1.807707-1.8774498a1.8586012 1.8586012 0 0 0-1.134136-1.71848l-0.08545-0.0364-0.0063-0.0936c-0.08545-1.8806-1.562658-3.39299-3.3961267-3.39425zm0 0.62833c1.487887 1e-3 2.6961667 1.2265 2.7671677 2.79418v6e-3l0.03205 0.48696 0.441715 0.18662a1.2214742 1.2214742 0 0 1 0.751483 1.14041c0.0063 0.69996-0.531568 1.2491198-1.175606 1.2491198h-5.8346757c-0.977683 0-1.782574-0.8300198-1.782574-1.8799598-6.29e-4 -1.00407 0.743943-1.80079 1.661306-1.86803l0.454282-0.0314 0.194783-0.41659v-3e-3c0.457425-0.99276 1.390495-1.66382 2.488817-1.66508z" font-weight="400" overflow="visible" style="fill:#808080;stroke-width:.13392857;stroke:#808080"/>
</svg>
