<svg width="16" height="16" version="1.2" xmlns="http://www.w3.org/2000/svg">
 <rect transform="matrix(0,-1,-1,0,0,0)" x="-15.5" y="-15.5" width="15" height="15" rx="7.5" ry="7.5" style="fill:#1988ee"/>
 <g transform="matrix(.66666189 0 0 .66666189 -659.32889 20.333281)" style="fill:#ffffff">
  <path d="m1001-26c-0.529 0-1.031 0.098-1.494 0.295-0.46 0.188-0.868 0.463-1.207 0.82l-2e-3 4e-3 -2e-3 2e-3c-0.33 0.359-0.586 0.79-0.766 1.28a4.551 4.551 0 0 0-0.27 1.6c0 0.58 0.087 1.122 0.27 1.612 0.18 0.482 0.436 0.908 0.766 1.266l4e-3 4e-3c0.338 0.356 0.743 0.636 1.201 0.832l8e-3 4e-3c0.462 0.188 0.964 0.281 1.492 0.281s1.028-0.093 1.49-0.281v-2e-3a3.47 3.47 0 0 0 1.19-0.834c0.34-0.358 0.6-0.786 0.781-1.27 0.184-0.49 0.272-1.031 0.272-1.613h0.01c0-0.573-0.087-1.109-0.27-1.598a3.692 3.692 0 0 0-0.781-1.283 3.332 3.332 0 0 0-1.196-0.824 3.796 3.796 0 0 0-1.496-0.295zm0 1c0.406 0 0.771 0.073 1.102 0.215l0.01 4e-3 0.01 2e-3c0.33 0.135 0.607 0.326 0.838 0.576v0.01c0.24 0.253 0.43 0.564 0.568 0.94v5e-3c0.13 0.351 0.194 0.753 0.2 1.202v0.046c0 0.482-0.073 0.9-0.208 1.262v2e-3a2.708 2.708 0 0 1-0.57 0.931l-0.01 4e-3v4e-3c-0.233 0.253-0.514 0.45-0.848 0.594a2.888 2.888 0 0 1-1.092 0.203c-0.41 0-0.776-0.072-1.11-0.207h-3e-3c-0.325-0.14-0.6-0.337-0.838-0.582l-0.05-0.07-9e-3 -6e-3a2.798 2.798 0 0 1-0.523-0.871 3.595 3.595 0 0 1-0.207-1.264c0-0.471 0.07-0.886 0.207-1.25l2e-3 -2e-3v-4e-3c0.138-0.376 0.324-0.684 0.554-0.936l0.012-0.01c0.24-0.25 0.52-0.443 0.85-0.578l6e-3 -4e-3 8e-3 -2e-3c0.331-0.14 0.695-0.214 1.101-0.214zm7 14h-1c0-0.865-0.069-1.3-0.235-1.833-0.165-0.533-0.41-0.904-0.814-1.21-0.809-0.61-2.11-0.933-4.922-0.933s-4.165 0.322-4.975 0.933c-0.405 0.305-0.65 0.676-0.816 1.21s-0.235 0.968-0.237 1.833l-1-2e-3c1e-3 -0.914 0.068-1.44 0.282-2.128 0.215-0.688 0.594-1.277 1.169-1.711 1.15-0.867 2.696-1.134 5.577-1.134s4.376 0.267 5.525 1.135c0.574 0.433 0.953 1.024 1.166 1.712 0.214 0.688 0.28 1.213 0.28 2.128z" font-weight="400" letter-spacing="0" overflow="visible" word-spacing="0" style="fill:#ffffff"/>
 </g>
</svg>
