<svg height="16" width="16" xmlns="http://www.w3.org/2000/svg">
  <rect fill="#f1f0e9" height="15" rx="7.5" transform="matrix(0 -1 -1 0 0 0)" width="15" x="-15.5" y="-15.5"/>
  <path d="m8.4027533 3.9660402c-1.356565.001-2.508922.8363-3.059968 2.03076l-.0377.0817-.08734.006c-1.252891.0899-2.244396 1.17497-2.244396 2.49258 0 1.37793 1.078214 2.5089198 2.411532 2.5089198h5.8340477c.999674 0 1.807707-.84824 1.807707-1.8774498a1.8586012 1.8586012 0 0 0 -1.134136-1.71848l-.08545-.0364-.0063-.0936c-.08545-1.8806-1.562658-3.39299-3.3961267-3.39425zm0 .62833c1.487887.001 2.6961667 1.2265 2.7671677 2.79418v.006l.03205.48696.441715.18662a1.2214742 1.2214742 0 0 1 .751483 1.14041c.0063.69996-.531568 1.2491198-1.175606 1.2491198h-5.8346757c-.977683 0-1.782574-.8300198-1.782574-1.8799598-.000629-1.00407.743943-1.80079 1.661306-1.86803l.454282-.0314.194783-.41659v-.003c.457425-.99276 1.390495-1.66382 2.488817-1.66508z" fill="#808080" stroke="#808080" stroke-width=".133929"/>
</svg>
