<svg xmlns="http://www.w3.org/2000/svg" fill="none" width="22" height="22" viewBox="0 0 22 22">
 <rect fill="#e6ddff" width="1" height="1" x="18" y="9"/>
 <rect fill="#e6ddff" width="1" height="1" x="16" y="9"/>
 <rect fill="#e6ddff" width="1" height="1" x="18" y="3"/>
 <rect fill="#e6ddff" width="1" height="1" x="16" y="3"/>
 <rect fill="#e6ddff" width="1" height="1" x="5" y="9"/>
 <rect fill="#e6ddff" width="1" height="1" x="3" y="9"/>
 <rect fill="#e6ddff" width="1" height="1" x="5" y="3"/>
 <rect fill="#e6ddff" width="1" height="1" x="3" y="3"/>
 <rect fill="#e6ddff" width="8" height="7" x="7" y="3"/>
 <rect fill="#e6ddff" width="2" height="7" x="3" y="12"/>
 <rect fill="#e6ddff" width="2" height="7" x="17" y="12"/>
 <path fill="#e6ddff" d="M8.5 19L8.50448 12H8.15082H8.11424C8.04598 11.9993 7.9785 12.0272 7.91906 12.0875L5.18556 14.8875C5.06423 15.0078 5.0024 15.2539 5.00224 15.5C5.00208 15.7461 5.0636 15.9922 5.18477 16.1125L7.91469 18.9125C7.97405 18.9729 8.0415 19.0009 8.10976 19H8.14634H8.5Z"/>
 <path fill="#e6ddff" d="M13.5 19L13.4955 12H13.8492H13.8858C13.954 11.9993 14.0215 12.0272 14.0809 12.0875L16.8144 14.8875C16.9358 15.0078 16.9976 15.2539 16.9978 15.5C16.9979 15.7461 16.9364 15.9922 16.8152 16.1125L14.0853 18.9125C14.0259 18.9729 13.9585 19.0009 13.8902 19H13.8537H13.5Z"/>
</svg>
