<svg xmlns="http://www.w3.org/2000/svg" fill="none" width="22" height="22" viewBox="0 0 22 22">
 <path fill="#E6DDFF" d="M4 3C4 3 3 3 3 4V15C3 15 3 16 4 16H5H6V14.5H5H4.5V4.5H8.5L10.5 6.5H15.5V7V8H17V7V6C17 5 16 5 16 5H11L9 3H4Z"/>
 <path fill="#E6DDFF" fill-rule="evenodd" d="M9.5 10.5V17.5H16.5V10.5H9.5ZM8 9C7.44772 9 7 9.44772 7 10V18C7 18.5523 7.44772 19 8 19H18C18.5523 19 19 18.5523 19 18V10C19 9.44772 18.5523 9 18 9H8Z" clip-rule="evenodd"/>
 <path fill="#E6DDFF" d="M11 12V16H11.4042H11.446C11.524 16.0004 11.6011 15.9845 11.669 15.95L14.7909 14.35C14.9295 14.2812 15 14.1406 15 14C15 13.8594 14.9295 13.7188 14.7909 13.65L11.669 12.05C11.6011 12.0155 11.524 11.9995 11.446 12H11.4042H11Z"/>
</svg>
