<svg xmlns="http://www.w3.org/2000/svg" fill="none" width="22" height="22" viewBox="0 0 22 22">
 <g clip-path="url(#clip0)">
  <path fill="#e6ddff" fill-rule="evenodd" d="M6.19999 12H3V14H6.19999V12ZM10.4667 12H7.26671V14H10.4667V12ZM11.5333 12H14.7333V14H11.5333V12ZM19 12H15.8V14H19V12Z" clip-rule="evenodd"/>
  <path fill="#e6ddff" fill-rule="evenodd" d="M6.19999 8H3V10H6.19999V8ZM10.4667 8H7.26671V10H10.4667V8ZM11.5333 8H14.7333V10H11.5333V8ZM19 8H15.8V10H19V8Z" clip-rule="evenodd"/>
  <path fill="#e6ddff" d="M8.50002 7.02751L13.434 6.99633L13.4314 6.59252L13.4311 6.55074C13.4311 6.4728 13.411 6.3959 13.3681 6.32834L11.3748 3.22173C11.2891 3.08382 11.1152 3.01449 10.9417 3.01559C10.7683 3.01669 10.5953 3.08821 10.5113 3.22719L8.55747 6.35875C8.51534 6.42684 8.49606 6.50399 8.4972 6.58193L8.49746 6.6237L8.50002 7.02751Z"/>
  <path fill="#e6ddff" d="M8.50002 15L13.434 15.0312L13.4314 15.435L13.4311 15.4768C13.4311 15.5547 13.411 15.6316 13.3681 15.6992L11.3748 18.8058C11.2891 18.9437 11.1152 19.013 10.9417 19.0119C10.7683 19.0108 10.5953 18.9393 10.5113 18.8003L8.55747 15.6688C8.51534 15.6007 8.49606 15.5235 8.4972 15.4456L8.49746 15.4038L8.50002 15Z"/>
 </g>
 <defs>
  <clipPath id="clip0">
   <rect fill="#fff" width="16" height="16" transform="translate(3 3)"/>
  </clipPath>
 </defs>
</svg>
