<svg xmlns="http://www.w3.org/2000/svg" width="16" height="16" version="1.1">
 <title id="title9167">
  Gnome Symbolic Icon Theme
 </title>
 <g id="layer13" transform="translate(-521,-195)">
  <path d="m527 197c-0.54996 0-1 0.45004-1 1v1h-3c-0.55201 0-1 0.45004-1 1v8c0 0.54996 0.44799 1 1 1h12c0.55201 0 1-0.45004 1-1v-8c0-0.54996-0.44799-1-1-1h-3v-1c0-0.54996-0.45004-1-1-1h-4zm2 3c2.2091 0 4 1.7909 4 4s-1.7909 4-4 4-4-1.7909-4-4 1.7909-4 4-4zm0 2c-1.1046 0-2 0.89543-2 2s0.89543 2 2 2 2-0.89543 2-2-0.89543-2-2-2z" style="fill:#241f31"/>
 </g>
</svg>
