<svg xmlns="http://www.w3.org/2000/svg" width="16" height="16" version="1.1">
 <title id="title9167">
  Gnome Symbolic Icon Theme
 </title>
 <defs>
  <clipPath id="clipPath6254" clipPathUnits="userSpaceOnUse">
   <rect width="1.876" height="4.878" x="27" y="221.5" style="fill:#E6DDFF"/>
  </clipPath>
  <clipPath id="clipPath6258" clipPathUnits="userSpaceOnUse">
   <rect width="2.898" height="5.313" x="26.97" y="221.28" style="fill:#E6DDFF"/>
  </clipPath>
  <clipPath id="clipPath6262" clipPathUnits="userSpaceOnUse">
   <rect width="3.825" height="6.375" x="26.85" y="220.75" style="fill:#E6DDFF"/>
  </clipPath>
 </defs>
 <g id="layer10" transform="translate(-41.0002,-488)">
  <path d="m 27.0625,220.5 a 1.1640267,1.1640267 0 0 0 -0.6875,2 c 0.800009,0.80001 0.800009,2.07499 0,2.875 A 1.1640267,1.1640267 0 1 0 28,227 c 1.689583,-1.68958 1.689583,-4.43542 0,-6.125 A 1.1640267,1.1640267 0 0 0 27.0625,220.5 z" clip-path="url(#clipPath6262)" transform="matrix(0,-0.784314,0.94117704,0,-161.76464,519.059)" style="fill:#E6DDFF"/>
  <path d="m 27.0625,221.125 a 0.55495196,0.55495196 0 0 0 -0.25,0.9375 c 1.032743,1.03274 1.032743,2.71726 0,3.75 a 0.55495196,0.55495196 0 1 0 0.78125,0.78125 c 1.456849,-1.45685 1.456849,-3.85565 0,-5.3125 A 0.55495196,0.55495196 0 0 0 27.0625,221.125 z" clip-path="url(#clipPath6258)" transform="matrix(0,-1.72549,1.8821873,0,-372.49324,542.529)" style="fill:#E6DDFF"/>
  <path d="m 27.125,221.3125 a 0.36160181,0.36160181 0 0 0 -0.21875,0.59375 0.36160181,0.36160181 0 0 0 0.03125,0.0312 c 1.106624,1.10662 1.106624,2.89338 0,4 a 0.36160181,0.36160181 0 1 0 0.5,0.5 c 1.382968,-1.38297 1.382968,-3.61703 0,-5 a 0.36160181,0.36160181 0 0 0 -0.3125,-0.125 z" clip-path="url(#clipPath6254)" transform="matrix(0,-2.66667,2.8685171,0,-593.37427,566)" style="fill:#E6DDFF"/>
  <path d="m 29,209 a 1,1 0 1 1 -2,0 1,1 0 1 1 2,0 z" transform="matrix(1.9999995,0,0,1.9999995,-6.999785,83.0001)" style="fill:#E6DDFF"/>
 </g>
</svg>
