<svg height="16.011" width="16" xmlns="http://www.w3.org/2000/svg">
  <g fill="#474747">
    <path d="m7.492 5.992a.5.5 0 0 0 -.492.508v2.5h-1.5a.5.5 0 1 0 0 1h2a.5.5 0 0 0 .5-.5v-3a.5.5 0 0 0 -.508-.508z"/>
    <path d="m7.488 3.064c-3.56 0-6.467 2.91-6.467 6.47s2.907 6.466 6.467 6.466 6.467-2.907 6.467-6.467-2.907-6.469-6.467-6.469zm0 1.983a4.47 4.47 0 0 1 4.485 4.486 4.47 4.47 0 0 1 -4.485 4.485 4.47 4.47 0 0 1 -4.484-4.485 4.47 4.47 0 0 1 4.484-4.486z"/>
    <path d="m4.281 1a3.289 3.289 0 0 0 -3.281 3.281c0 .405.084.767.219 1.125 1.206-1.822 3.184-3.102 5.468-3.343a3.263 3.263 0 0 0 -2.406-1.063zm6.438 0c-.953 0-1.809.413-2.406 1.063a7.533 7.533 0 0 1 5.468 3.374 3.14 3.14 0 0 0 .219-1.155 3.289 3.289 0 0 0 -3.281-3.282z"/>
    <path d="m4.12 12.896a1 1 0 0 0 -.692.293l-1.125 1.094a1 1 0 1 0 1.394 1.434l1.125-1.094a1 1 0 0 0 -.703-1.727zm6.913.094a1 1 0 0 0 -.68 1.682l.907 1a1 1 0 1 0 1.48-1.344l-.906-1a1 1 0 0 0 -.8-.338z"/>
  </g>
</svg>
