<svg height="16" width="16" xmlns="http://www.w3.org/2000/svg">
  <path d="m6.5 0c-3.578 0-6.5 2.922-6.5 6.5s2.922 6.5 6.5 6.5c.17 0 .333-.018.5-.031v-2.031c-.167.018-.327.062-.5.062a4.485 4.485 0 0 1 -4.5-4.5c0-2.497 2.003-4.5 4.5-4.5s4.5 2.003 4.5 4.5c0 .173-.044.333-.063.5h2.032c.013-.167.031-.33.031-.5 0-3.578-2.922-6.5-6.5-6.5z" fill="#474747"/>
  <path d="m6.492 2.992a.5.5 0 0 0 -.492.508v2.5h-1.5a.5.5 0 1 0 0 1h2a.5.5 0 0 0 .5-.5v-3a.5.5 0 0 0 -.508-.508z" fill="#474747"/>
  <path d="m8.875 8.068a.861.861 0 0 0 -.875.87v6.195a.86.86 0 0 0 .875.867h6.25a.86.86 0 0 0 .875-.867v-6.195a.861.861 0 0 0 -.875-.87zm2.125.932h2v2.5s0 .5-.5.5h-1c-.5 0-.5-.5-.5-.5zm.5 4h1c.277 0 .5.223.5.5v1c0 .277-.223.5-.5.5h-1a.499.499 0 0 1 -.5-.5v-1c0-.277.223-.5.5-.5z" fill="#f57900"/>
</svg>
