<svg height="16" width="16" xmlns="http://www.w3.org/2000/svg">
  <path d="m300.5002-251c-1.385 0-2.5 1.115-2.5 2.5v4.5.5c0 1.385 1.115 2.5 2.5 2.5s2.5-1.115 2.5-2.5v-.5-4.5c0-1.385-1.115-2.5-2.5-2.5zm-4 6c-.27614 0-.5.22386-.5.5v.96875c0 1.96838 1.25801 3.62455 3 4.25v1.28125h-.5c-.277 0-.5.223-.5.5s.223.5.5.5h.5 3 .5c.277 0 .5-.223.5-.5s-.223-.5-.5-.5h-.5v-1.28125c1.74199-.62545 3-2.28162 3-4.25v-.96875c0-.27614-.22386-.5-.5-.5s-.5.22386-.5.5c0 .069.006.12768.0312.1875v.78125c0 1.96415-1.57895 3.53125-3.53125 3.53125s-3.5-1.5671-3.5-3.53125v-.96875c0-.27614-.22386-.5-.5-.5z" fill="#474747" opacity=".35" transform="translate(-293.00021 252)"/>
</svg>
