<svg height="16" width="16" xmlns="http://www.w3.org/2000/svg">
  <g fill="#474747">
    <path d="m15 8c0-2.814-1-5.172-2.586-7h-1.414v1.48c1.265 1.52 2 3.22 2 5.52s-.78 4-2 5.52v1.48h1.381c1.466-1.64 2.619-4.186 2.619-7z" opacity=".35"/>
    <path d="m12 8c0-2.166-.739-4.02-2-5h-1v2c.607.789 1 1.76 1 3 0 1.241-.393 2.22-1 3v2h1c1.223-.995 2-2.873 2-5z"/>
    <path d="m9 8c0-1.257-.312-2.216-1-3h-1v6h1c.672-.837 1-1.742 1-3z"/>
    <path d="m0 5h2.484l2.97-3h.546v12h-.475l-3.04-3h-2.485z"/>
  </g>
</svg>
