<svg width="48" height="48" viewBox="0 0 48 48" fill="none" xmlns="http://www.w3.org/2000/svg">
<path fill-rule="evenodd" clip-rule="evenodd" d="M14.7122 12.9886H6.47754V21.9977C6.78599 21.1333 7.28337 20.336 7.94464 19.6864L7.94825 19.6829L14.7122 12.9886ZM6.47754 30.2172V35.0114H10.5494C10.819 33.9819 11.3476 33.0211 12.0945 32.2512L13.991 30.2172H6.47754ZM24.1334 35.0114H12.5969C12.8034 34.4858 13.1111 34.0003 13.5062 33.5966L18.4753 28.2672H8.13667V24.8673C7.87167 23.5141 8.32895 22.0407 9.31356 21.0752L17.4843 12.9886H28.9722C28.767 13.5654 28.4413 14.0992 28.013 14.5369L22.5208 19.8983H33.2517V23.5597C33.2643 23.7338 33.2643 23.9087 33.2517 24.0828C33.2773 25.1876 32.8435 26.2962 32.0749 27.0902L24.1334 35.0114ZM26.8949 35.0114H34.9775V25.8131C34.7041 26.7955 34.1895 27.7093 33.4759 28.4465L33.4522 28.4711L26.8949 35.0114ZM34.9775 17.9483V12.9886H31.0031C30.7434 14.0767 30.1954 15.0947 29.4066 15.9008L29.3911 15.9167L27.3099 17.9483H34.9775Z" fill="url(#paint0_linear)"/>
<path fill-rule="evenodd" clip-rule="evenodd" d="M21.1903 7.21289H2.96191C2.17652 7.21418 1.42376 7.52715 0.86895 8.08305C0.314144 8.63896 0.00266479 9.39234 0.00292986 10.1777V37.8223C0.00266499 38.6077 0.314144 39.361 0.86895 39.917C1.42376 40.4729 2.17652 40.7858 2.96191 40.7871H10.8293V37.542C10.826 37.4277 10.8253 37.3131 10.8272 37.1986C10.811 37.0494 10.8008 36.8997 10.7967 36.75H4.22754V11.25H17.1087L20.9266 7.47139C21.0117 7.38234 21.0997 7.29613 21.1903 7.21289ZM12.2975 36.75C12.3023 36.8761 12.3128 37.002 12.3293 37.1272C12.3251 37.2578 12.3251 37.3888 12.3293 37.5193V40.7871H16.6978C17.7397 40.7563 18.7672 40.3318 19.5214 39.6116L22.3903 36.75H12.2975ZM29.2145 11.25H19.2411L21.9978 8.52171C22.5286 7.96115 23.2149 7.54944 23.9592 7.34482C24.3062 7.30172 24.6587 7.30172 25.0056 7.34482C25.0926 7.34215 25.1801 7.34215 25.2671 7.34482H29.1898V10.6142C29.194 10.7448 29.194 10.8757 29.1898 11.0062C29.2005 11.0873 29.2087 11.1686 29.2145 11.25ZM24.5144 36.75H37.2275V11.25H30.7172C30.7118 11.1448 30.7034 11.0397 30.692 10.9348C30.6938 10.8204 30.6931 10.7058 30.6898 10.5915V7.21289H38.4873C38.8767 7.21276 39.2623 7.28936 39.6221 7.43831C39.9818 7.58726 40.3087 7.80565 40.5841 8.08098C40.8594 8.35632 41.0778 8.68321 41.2267 9.04298C41.3757 9.40275 41.4523 9.78835 41.4521 10.1777V13.793V34.2012V37.8223C41.4523 38.2117 41.3757 38.5972 41.2267 38.957C41.0778 39.3168 40.8594 39.6437 40.5841 39.919C40.3087 40.1944 39.9818 40.4127 39.6221 40.5617C39.2623 40.7106 38.8767 40.7872 38.4873 40.7871H20.4606C20.4932 40.7573 20.5256 40.7272 20.5576 40.6966L24.5144 36.75Z" fill="url(#paint1_linear)"/>
<path d="M12.9844 6.03125H15.2C15.6418 6.03125 16 6.38942 16 6.83125V9.2C16 9.64183 15.6418 10 15.2 10H12.9844V6.03125Z" fill="#F66151"/>
<path d="M23.9593 7.34482C23.2149 7.54944 22.5286 7.96115 21.9978 8.52171L9.31356 21.0752C8.32895 22.0407 7.87167 23.5141 8.13667 24.8673V28.2672H11.5366H12.3212H18.4753L13.5062 33.5966C12.6082 34.5142 12.1615 35.8542 12.3293 37.1272C12.3251 37.2578 12.3251 37.3888 12.3293 37.5193V40.7884H15.86H16.5138C17.6179 40.8052 18.7228 40.3742 19.5214 39.6116L32.0749 27.0902C32.8435 26.2962 33.2773 25.1876 33.2517 24.0828C33.2643 23.9087 33.2643 23.7338 33.2517 23.5597V19.8983H29.7211H29.0673H22.5208L28.013 14.5369C28.911 13.6192 29.3577 12.2793 29.1899 11.0062C29.194 10.8757 29.194 10.7448 29.1899 10.6142V7.34482H25.6592H25.2671C25.1801 7.34214 25.0926 7.34214 25.0056 7.34482C24.6587 7.30172 24.3064 7.30172 23.9594 7.34482H23.9593Z" fill="url(#paint2_linear)"/>
<defs>
<linearGradient id="paint0_linear" x1="6.47754" y1="24" x2="34.9775" y2="24" gradientUnits="userSpaceOnUse">
<stop stop-color="#F66151"/>
</linearGradient>
<linearGradient id="paint1_linear" x1="0.00292969" y1="24" x2="41.4521" y2="24" gradientUnits="userSpaceOnUse">
<stop stop-color="#F66151"/>
</linearGradient>
<linearGradient id="paint2_linear" x1="20.6618" y1="40.7889" x2="20.6618" y2="7.3125" gradientUnits="userSpaceOnUse">
<stop stop-color="#F66151"/>
</linearGradient>
</defs>
</svg>
