<svg xmlns="http://www.w3.org/2000/svg" width="16" height="16" version="1.1">
 <title id="title9167">
  Gnome Symbolic Icon Theme
 </title>
 <g id="layer9" transform="translate(-401.00015,-357)">
  <path d="M 404.46875,358 C 403.10458,358 402,359.10458 402,360.46875 l 0,9.0625 c 0,1.36417 1.10458,2.46875 2.46875,2.46875 l 9.0625,0 C 414.89542,372 416,370.89542 416,369.53125 l 0,-9.0625 C 416,359.10458 414.89542,358 413.53125,358 l -9.0625,0 z m 0,1 9.0625,0 c 0.83222,0 1.46875,0.63653 1.46875,1.46875 l 0,9.0625 C 415,370.36347 414.36347,371 413.53125,371 l -9.0625,0 C 403.63653,371 403,370.36347 403,369.53125 l 0,-9.0625 C 403,359.63653 403.63653,359 404.46875,359 z" style="fill:#474747"/>
  <path d="m 405.6875,363.0625 a 2.0029885,2.0029885 0 1 0 0.21875,4 l 6.125,0 a 2.0002,2.0002 0 1 0 0,-4 l -6.125,0 a 2.0002,2.0002 0 0 0 -0.21875,0 z" style="fill:#474747"/>
 </g>
</svg>
