<?xml version="1.0" encoding="UTF-8" standalone="no"?>
<svg
   xmlns:dc="http://purl.org/dc/elements/1.1/"
   xmlns:cc="http://creativecommons.org/ns#"
   xmlns:rdf="http://www.w3.org/1999/02/22-rdf-syntax-ns#"
   xmlns:svg="http://www.w3.org/2000/svg"
   xmlns="http://www.w3.org/2000/svg"
   xmlns:sodipodi="http://sodipodi.sourceforge.net/DTD/sodipodi-0.dtd"
   xmlns:inkscape="http://www.inkscape.org/namespaces/inkscape"
   width="16"
   height="16"
   version="1.1"
   id="svg8"
   sodipodi:docname="kazam-area-symbolic.svg"
   inkscape:version="0.92.4 (5da689c313, 2019-01-14)">
  <metadata
     id="metadata14">
    <rdf:RDF>
      <cc:Work
         rdf:about="">
        <dc:format>image/svg+xml</dc:format>
        <dc:type
           rdf:resource="http://purl.org/dc/dcmitype/StillImage" />
        <dc:title>
  Gnome Symbolic Icon Theme
 </dc:title>
      </cc:Work>
    </rdf:RDF>
  </metadata>
  <defs
     id="defs12" />
  <sodipodi:namedview
     pagecolor="#ffffff"
     bordercolor="#666666"
     borderopacity="1"
     objecttolerance="10"
     gridtolerance="10"
     guidetolerance="10"
     inkscape:pageopacity="0"
     inkscape:pageshadow="2"
     inkscape:window-width="1920"
     inkscape:window-height="1016"
     id="namedview10"
     showgrid="false"
     inkscape:zoom="52.4375"
     inkscape:cx="8"
     inkscape:cy="8"
     inkscape:window-x="0"
     inkscape:window-y="27"
     inkscape:window-maximized="1"
     inkscape:current-layer="layer10" />
  <title
     id="title9167">
  Gnome Symbolic Icon Theme
 </title>
  <g
     id="layer10"
     transform="translate(-181 -447)">
    <path
       d="m193 448c1.662 0 3 1.338 3 3v6c0 1.662-1.338 3-3 3h-8c-1.662 0-3-1.338-3-3v-6c0-1.662 1.338-3 3-3h8zm0 2h-8c-0.554 0-1 0.446-1 1v6c0 0.554 0.446 1 1 1h8c0.554 0 1-0.446 1-1v-6c0-0.554-0.446-1-1-1z"
       style="fill:#474747"
       id="path3" />
    <path
       d="m189 461c-5 0-5 1-5 1 0 1 1 1 1 1h8c1 0 1-1 1-1s0-1-5-1z"
       style="fill:#474747"
       id="path5" />
    <path
       id="path821"
       style="fill:#474747;stroke-width:0.5177933"
       d="m 192.15818,450.89324 c 0.86057,0 1.55338,0.69281 1.55338,1.55338 v 3.10676 c 0,0.86057 -0.69281,1.55338 -1.55338,1.55338 h -4.14235 c -0.86057,0 -1.55338,-0.69281 -1.55338,-1.55338 v -3.10676 c 0,-0.86057 0.69281,-1.55338 1.55338,-1.55338 z m 0,1.03559 h -4.14235 c -0.28685,0 -0.51779,0.23093 -0.51779,0.51779 v 3.10676 c 0,0.28686 0.23094,0.51779 0.51779,0.51779 h 4.14235 c 0.28686,0 0.51779,-0.23093 0.51779,-0.51779 v -3.10676 c 0,-0.28686 -0.23093,-0.51779 -0.51779,-0.51779 z"
       inkscape:connector-curvature="0" />
  </g>
</svg>
