<svg id="svg10" height="16" width="16" xmlns="http://www.w3.org/2000/svg">
  <g fill="#474747">
    <g id="g8" transform="translate(0 -4)">
      <path id="path2" d="m1.018 7v2h12.982v-2z"/>
      <path id="path4" d="m11.99 4.99a1 1 0 0 0 -.697 1.717l1.293 1.293-1.293 1.293a1 1 0 1 0 1.414 1.414l2.707-2.707-2.707-2.707a1 1 0 0 0 -.717-.303z"/>
      <path id="path6" d="m11 5h1v1h-1zm0 5h1v1h-1z"/>
    </g>
    <g id="g829" transform="translate(0 4)">
      <path id="path823" d="m1.018 7v2h12.982v-2z"/>
      <path id="path825" d="m11.99 4.99a1 1 0 0 0 -.697 1.717l1.293 1.293-1.293 1.293a1 1 0 1 0 1.414 1.414l2.707-2.707-2.707-2.707a1 1 0 0 0 -.717-.303z"/>
      <path id="path827" d="m11 5h1v1h-1zm0 5h1v1h-1z"/>
    </g>
  </g>
</svg>
