<svg xmlns="http://www.w3.org/2000/svg" width="16" height="16.001" version="1.1">
 <title id="title9167">
  Gnome Symbolic Icon Theme
 </title>
 <defs>
  <clipPath id="clipPath6810-7-87" clipPathUnits="userSpaceOnUse">
   <rect width="14" height="11" x="21" y="281" style="fill:none;stroke:#ffffff;stroke-width:2;stroke-linecap:round;stroke-linejoin:round"/>
  </clipPath>
 </defs>
 <g id="layer9" transform="translate(-161,-197)">
  <path d="m 174.0002,198 c -1.10457,0 -2,0.89543 -2,2 0,1.10457 0.89543,2 2,2 1.10457,0 2,-0.89543 2,-2 0,-1.10457 -0.89543,-2 -2,-2 z m 0,1 c 0.55228,0 1,0.44771 1,1 0,0.55228 -0.44772,1 -1,1 -0.55228,0 -1,-0.44772 -1,-1 0,-0.55229 0.44772,-1 1,-1 z" style="opacity:0.5;fill:#444444"/>
  <rect width="5" height="10.013" x="164" y="197.99" rx="2.5" ry="2.5" style="fill:#444444"/>
  <path d="m 27.96875,273.625 c -2.502477,0 -4.53125,2.02877 -4.53125,4.53125 l 0,5.8125 c 0,2.50248 2.028773,4.53125 4.53125,4.53125 2.502477,0 4.53125,-2.02877 4.53125,-4.53125 l 0,-5.8125 c 0,-2.50248 -2.028773,-4.53125 -4.53125,-4.53125 z m 0,1 c 1.964148,0 3.53125,1.5671 3.53125,3.53125 l 0,5.8125 c 0,1.96415 -1.567102,3.53125 -3.53125,3.53125 -1.964148,0 -3.53125,-1.5671 -3.53125,-3.53125 l 0,-5.8125 c 0,-1.96415 1.567102,-3.53125 3.53125,-3.53125 z" clip-path="url(#clipPath6810-7-87)" transform="matrix(0.993968,0,0,1,138.7069,-78.486135)" style="fill:#444444"/>
  <path d="m 24,361 a 1,1 0 1 1 -2,0 1,1 0 1 1 2,0 z" transform="matrix(0.5,0,0,0.5,151,22)" style="fill:#444444"/>
  <path d="m 24,361 a 1,1 0 1 1 -2,0 1,1 0 1 1 2,0 z" transform="matrix(0.5,0,0,0.5,159,22)" style="fill:#444444"/>
  <path d="M 162.90625,211 A 1.001098,1.001098 0 1 0 163,213 l 7,0 a 1.0001,1.0001 0 1 0 0,-2 l -7,0 a 1.0001,1.0001 0 0 0 -0.0937,0 z" style="fill:#444444"/>
  <rect width="9" height="1" x="162" y="212" style="fill:#444444"/>
  <rect width="3" height="4" x="165" y="209" style="fill:#444444"/>
  <path d="m -186.0625,184.0625 a 1.9375,1.9375 0 1 1 -3.875,0 1.9375,1.9375 0 1 1 3.875,0 z" transform="matrix(1.0322581,0,0,1.0322551,368.06472,20.00054)" style="fill:#444444"/>
  <path d="m -186.0625,184.0625 a 1.9375,1.9375 0 1 1 -3.875,0 1.9375,1.9375 0 1 1 3.875,0 z" transform="matrix(1.0322581,0,0,1.0322551,368.06472,15.00054)" style="fill:#444444"/>
 </g>
</svg>
