<svg height="16" width="16" xmlns="http://www.w3.org/2000/svg">
  <g fill="#474747">
    <path d="m8 1c-1.645 0-3 1.355-3 3v1h-1v1.01h8v-1.01h-1v-1c0-1.645-1.355-3-3-3zm0 2c.564 0 1 .436 1 1v1h-2v-1c0-.564.436-1 1-1zm-4 8v1.01h3v.99h-5v2h12v-2h-5v-.99h3v-1.01z" opacity=".5"/>
    <path d="m5 8.5a1.5 1.5 0 0 1 -1.5 1.5 1.5 1.5 0 0 1 -1.5-1.5 1.5 1.5 0 0 1 1.5-1.5 1.5 1.5 0 0 1 1.5 1.5zm4 0a1.5 1.5 0 0 1 -1.5 1.5 1.5 1.5 0 0 1 -1.5-1.5 1.5 1.5 0 0 1 1.5-1.5 1.5 1.5 0 0 1 1.5 1.5zm4 0a1.5 1.5 0 0 1 -1.5 1.5 1.5 1.5 0 0 1 -1.5-1.5 1.5 1.5 0 0 1 1.5-1.5 1.5 1.5 0 0 1 1.5 1.5z"/>
  </g>
</svg>
