<svg height="16" width="16" xmlns="http://www.w3.org/2000/svg">
  <path d="m10 1v1c0 .257.13.529.313.719l1.28 1.281h-4.593c-.528-.007-1 .472-1 1s.472 1.007 1 1h4.625l-1.219 1.281c-.182.19-.406.462-.406.719v.426c.62-.377 1.909-.507 2.48-.395l2.926-3.031-3.656-3.719c-.198-.19-.44-.281-.75-.281zm-5 6c-.31 0-.615.09-.812.281l-3.594 3.719 3.656 3.719c.198.19.44.281.75.281h1v-1c0-.257-.13-.529-.312-.719l-1.282-1.281h3.625c.022-.277.113-1 .723-2h-4.379l1.219-1.281c.182-.19.406-.462.406-.719v-1z" fill="#474747" opacity=".35"/>
  <path d="m12.5 9a3.5 3.5 0 1 0 0 7 3.5 3.5 0 0 0 0-7zm-2.5 2.969h5v1.031h-5z" fill="#ef2929"/>
</svg>
