<svg xmlns="http://www.w3.org/2000/svg" width="16" height="16" version="1.1">
 <path fill="#444" d="m 7.565,1.701 a 4.229,4.229 0 0 0 -2.598,2.373 c 0,0 -1.915,4.62 -3.686,4.559 -0.019,0.004 -0.033,0.02 -0.052,0.025 a 0.721,0.721 0 0 0 -0.217,0.1 c -0.027,0.017 -0.054,0.03 -0.078,0.05 a 0.736,0.736 0 0 0 -0.207,0.276 0.75,0.75 0 0 0 0.406,0.98 l 9.701,4.018 a 0.747,0.747 0 0 0 0.979,-0.406 0.738,0.738 0 0 0 0.049,-0.342 c -0.002,-0.032 -0.014,-0.059 -0.02,-0.09 a 0.725,0.725 0 0 0 -0.082,-0.224 c -0.01,-0.017 -0.009,-0.039 -0.02,-0.055 -0.753,-0.703 -0.419,-2.546 -0.01,-3.977 a 5,5 0 0 1 -4.73,-4.988 5,5 0 0 1 0.565,-2.299 z m -1.903,11.32 a 2,2 0 0 0 1.213,2.127 2,2 0 0 0 2.362,-0.646 z" color="#444" overflow="visible"/>
 <path class="error" d="m 16,4 a 4,4 0 0 1 -8,0 4,4 0 1 1 8,0 z" color="#444" overflow="visible" style="fill:#e01b24"/>
</svg>
