<svg xmlns="http://www.w3.org/2000/svg" style="enable-background:new" width="16" height="16" version="1.1">
 <title id="title2">
  Paper Symbolic Icon Theme
 </title>
 <g transform="translate(-665.00043,475)" style="fill:#444444">
  <path style="fill:#444444" d="m 673.00034,-473.99999 c 0.55228,0 1,0.44772 1,1 -2.9e-4,0.0333 -0.002,0.0665 -0.006,0.0996 2.29032,0.45883 4.00603,2.47123 4.00586,4.90039 l -1.4e-4,1.99999 0,2.5 2,2 0,0.5 -2,0 -10,0 -2,0 0,-0.5 2,-2 1.4e-4,-4.49999 c 8e-5,-2.42916 1.71568,-4.44157 4.00586,-4.90039 -0.004,-0.0331 -0.006,-0.0663 -0.006,-0.0996 0,-0.55228 0.44772,-1 1,-1 z M 674.72872,-460 c -0.35663,0.61771 -1.01525,0.99874 -1.72852,1 -0.71397,-5.6e-4 -1.37349,-0.38169 -1.73047,-1 z"/>
 </g>
</svg>
