<svg height="16.063" width="16.034" xmlns="http://www.w3.org/2000/svg">
  <g fill="#474747">
    <path d="m8.116 1a7.013 7.013 0 0 0 -7.086 7.61 7.013 7.013 0 0 0 6.973 6.39 1 1 0 1 0 0-2 4.987 4.987 0 0 1 -4.98-4.564 4.986 4.986 0 0 1 4.11-5.36 4.976 4.976 0 0 1 5.439 2.924h-1.568c-.554 0-1 .446-1 1v1h6v-6h-1c-.554 0-1 .446-1 1v1.396a7.027 7.027 0 0 0 -5.888-3.396z" fill-rule="evenodd" opacity=".35"/>
    <path d="m13.034 8.938c-1.089 0-2 .878-2 1.968v1.094h-.969v4.063h5.97v-4.063h-1.032v-1.094c0-1.09-.88-1.969-1.969-1.969zm0 1c.546 0 .969.417.969.968v1.094h-1.969v-1.094c0-.551.454-.969 1-.969z"/>
  </g>
</svg>
