<svg height="16.015" width="16" xmlns="http://www.w3.org/2000/svg">
  <g fill="#474747">
    <path d="m8.072 0a6.996 6.996 0 0 0 -3.488.891 1 1 0 1 0 .975 1.746 4.997 4.997 0 0 1 4.97.05 4.996 4.996 0 0 1 2.471 4.313v1a1 1 0 1 0 2 0v-1a1 1 0 0 0 -.01-.136 7 7 0 0 0 -3.45-5.904 6.993 6.993 0 0 0 -3.468-.96zm-5.217 2.82a1 1 0 0 0 -.722.375l1.465 1.463c.053-.1.098-.203.158-.3a1 1 0 0 0 -.8-1.538 1 1 0 0 0 -.1 0zm5.145.18c-1.633 0-3.03 1.002-3.645 2.416l1.645 1.645v-.061c0-1.117.884-2 2-2s2 .883 2 2v4.058l3.012 3.012a1 1 0 0 0 -.305-.778c-.382-.382-.55-.736-.633-.984s-.074-.308-.074-.308v-5a1 1 0 0 0 -.022-.218c-.116-2.095-1.856-3.782-3.978-3.782zm-6.563 1.62a7.069 7.069 0 0 0 -.425 2.212 1 1 0 0 0 -.012.168v5.063a1 1 0 1 0 2 0v-5.063c0-.254.024-.506.062-.755zm6.547 1.367a1 1 0 0 0 -.984 1.013v1.06l2 1.999v-3.059a1 1 0 0 0 -1.016-1.013zm-3.984 1.195v.818a1 1 0 0 0 1.617.8zm.984 2.805a1 1 0 0 0 -.984 1.013v3a1 1 0 1 0 2 0v-3a1 1 0 0 0 -1.016-1.013zm9.016.013a1 1 0 0 0 -1 1 1 1 0 0 0 1 1 1 1 0 0 0 1-1 1 1 0 0 0 -1-1zm-7 .182v1.818s0 .595.145 1.32c.145.726.412 1.652 1.148 2.387a1 1 0 1 0 1.414-1.414c-.264-.264-.497-.839-.602-1.363a5.008 5.008 0 0 1 -.095-.738zm3.525 3.525c.187.325.433.665.768 1a1 1 0 0 0 .518.288z" opacity=".35"/>
    <path d="m1.531.47-1.061 1.06 14 14 1.062-1.062z"/>
    <path d="m1.53.47-1.06 1.06 14 14 1.063-1.06z"/>
  </g>
</svg>
