<svg xmlns="http://www.w3.org/2000/svg" width="16.001" height="16" version="1.1">
 <title id="title9167">
  Gnome Symbolic Icon Theme
 </title>
 <g id="layer9" transform="translate(-340.99896,-217)">
  <path d="m 345.0002,219 0,-0.96875 7,0 0,0.96875 z m -0.53125,-1.96875 c -0.49033,0 -0.79607,0.22845 -1.03125,0.46875 -0.23518,0.2403 -0.4375,0.55851 -0.4375,1.03125 l 0,0.46875 -2,0 0,2 15,0 0,-2 -2,0 0,-0.34375 0,-0.0313 c -0.0239,-0.4306 -0.17024,-0.75229 -0.40625,-1.03125 -0.22373,-0.26444 -0.62669,-0.52931 -1.15625,-0.53125 l 0,-0.0313 -0.0625,0 -7.90625,0 z M 353.0002,222 l 2,0 c 1.67365,2.92708 1.13767,5.85417 0,8.78125 C 354.56519,231.90048 354.01782,233 352.8127,233 l -8.625,0 c -1.20512,0 -1.77657,-1.09045 -2.1875,-2.21875 -1.04232,-2.86194 -1.59896,-5.75423 0,-8.78125 l 2,0 c -1.72127,2.94784 -0.98485,5.97016 0,9 l 9,0 c 1.09591,-3.03321 1.63141,-6.04944 0,-9 z m -4.96875,-0.0165 0,8.01647 0.96875,0 0,-8.01647 z m 1.96875,0 c 1.7622,2.2232 0.83031,5.63124 0,8.01647 l 1,0 c 0.82494,-2.30834 1.83942,-5.62739 0,-8.01647 z m -3.96875,0 c -1.81727,2.60868 -0.85626,5.81287 0,8.01647 l 0.96875,0 c -0.86519,-2.2217 -1.66269,-5.46859 0,-8.01647 z" style="fill:#444444"/>
 </g>
</svg>
