<?xml version="1.0" encoding="UTF-8" standalone="no"?>
<svg
   xmlns:dc="http://purl.org/dc/elements/1.1/"
   xmlns:cc="http://creativecommons.org/ns#"
   xmlns:rdf="http://www.w3.org/1999/02/22-rdf-syntax-ns#"
   xmlns:svg="http://www.w3.org/2000/svg"
   xmlns="http://www.w3.org/2000/svg"
   xmlns:sodipodi="http://sodipodi.sourceforge.net/DTD/sodipodi-0.dtd"
   xmlns:inkscape="http://www.inkscape.org/namespaces/inkscape"
   width="16"
   height="16"
   version="1.1"
   id="svg4"
   sodipodi:docname="5.svg"
   inkscape:version="0.92.3 (2405546, 2018-03-11)">
  <metadata
     id="metadata10">
    <rdf:RDF>
      <cc:Work
         rdf:about="">
        <dc:format>image/svg+xml</dc:format>
        <dc:type
           rdf:resource="http://purl.org/dc/dcmitype/StillImage" />
        <dc:title></dc:title>
      </cc:Work>
    </rdf:RDF>
  </metadata>
  <defs
     id="defs8" />
  <sodipodi:namedview
     pagecolor="#ffffff"
     bordercolor="#666666"
     borderopacity="1"
     objecttolerance="10"
     gridtolerance="10"
     guidetolerance="10"
     inkscape:pageopacity="0"
     inkscape:pageshadow="2"
     inkscape:window-width="1920"
     inkscape:window-height="1009"
     id="namedview6"
     showgrid="false"
     inkscape:zoom="14.75"
     inkscape:cx="-4.1016949"
     inkscape:cy="8"
     inkscape:window-x="0"
     inkscape:window-y="34"
     inkscape:window-maximized="1"
     inkscape:current-layer="svg4" />
  <path
     d="m 3.9208085,15.116302 c 0,0.13315 -0.022193,0.177528 -0.1775261,0.177528 H 1.6775261 C 1.544382,15.29383 1.5,15.22726 1.5,15.116302 V 0.67752831 c 0,-0.1331414 0.066571,-0.1775279 0.1775261,-0.1775279 H 3.765473 c 0.1109536,0 0.1553355,0.04435 0.1553355,0.1553347 z M 6.299925,9.9079334 c 0,-3.2177864 2.1229141,-5.7252083 5.518098,-5.7252083 0.28848,0 0.443813,0 0.710102,0.02204 V 0.63314211 c 0,-0.088791 0.06644,-0.1331414 0.133146,-0.1331414 h 2.18814 c 0.11082,0 0.133146,0.04435 0.133146,0.1109482 V 13.192028 c 0,0.377241 0,0.843245 0.06644,1.353635 0,0.08879 -0.02823,0.111084 -0.117003,0.15547 C 13.778076,15.255901 12.557584,15.5 11.4038,15.5 8.4302409,15.5 6.29993,13.658033 6.29993,9.9079334 Z M 12.528126,6.379604 C 12.328545,6.290813 12.06212,6.2464626 11.72926,6.2464626 c -1.7308784,0 -2.9439718,1.3314505 -2.9439718,3.5505228 0,2.5297416 1.2352838,3.5505136 2.7885018,3.5505136 0.332862,0 0.688046,-0.04435 0.954336,-0.155335 z"
     id="path9"
     inkscape:connector-curvature="0"
     style="clip-rule:evenodd;fill:#4d4d4d;fill-opacity:1;fill-rule:evenodd;stroke-width:1"
     sodipodi:nodetypes="ssssssssssscsssssccsscssscc" />
</svg>
