<svg xmlns="http://www.w3.org/2000/svg" width="16" height="16" version="1.1">
 <path style="fill:#4d4d4d" d="m 0.54685061,3.0831966 c -0.08708,8.315e-4 -0.1694362,0.052913 -0.2046992,0.1383307 l -0.204057,0.4954583 -0.121398,0.2940472 c -0.0291,0.071433 -0.0189,0.1492913 0.02079,0.2090079 0.02381,0.034016 0.05813,0.065386 0.100951,0.082772 l 1.50296729,0.619389 c 0.057071,0.022677 0.1184504,0.022677 0.1712504,-6.425e-4 0.013228,-0.00378 0.025701,-0.011339 0.037795,-0.018898 l 1.549e-4,-1.511e-4 c 0.00221,-0.00147 0.00416,-0.00344 0.00643,-0.00378 0.00945,-0.00756 0.018898,-0.015118 0.027213,-0.022677 h 1.55e-4 c 0.010205,-0.011339 0.019653,-0.022677 0.027968,-0.034016 l 1.55e-4,-1.512e-4 c 3.212e-4,-4.535e-4 4.649e-4,-0.00106 7.823e-4,-0.00155 l 4.9340522,2.0337638 c -0.044787,0.1644094 -0.068296,0.335622 -0.068296,0.5090267 V 7.6919146 H 6.1085908 L 5.0037518,8.5667619 H 3.4318803 c -0.056693,0 -0.1120252,0.015118 -0.1588914,0.048756 L 2.5806475,9.0845949 2.898468,9.5539745 3.5187792,9.1336532 H 14.338128 c 0.367748,0 0.725654,0.073323 1.063748,0.2180787 L 15.776881,9.5127398 16.000477,8.9918075 15.62517,8.8307997 C 15.323337,8.7015398 15.008563,8.619902 14.68564,8.5855083 L 14.325489,7.9011493 C 14.25776,7.7722674 14.12438,7.6917635 13.978944,7.6917635 H 12.691603 V 7.3829761 c 0,-0.064252 -0.0032,-0.128504 -0.0094,-0.192 -0.01247,-0.1269922 -0.03742,-0.2517166 -0.07438,-0.3726614 -0.01852,-0.060473 -0.03972,-0.120189 -0.06391,-0.1783937 -0.06576,-0.1583622 -0.152844,-0.3080315 -0.258746,-0.4448504 -0.03024,-0.039307 -0.0621,-0.077858 -0.09562,-0.1148977 -0.02154,-0.022677 -0.04354,-0.046866 -0.06625,-0.069543 C 11.986797,5.8741887 11.832025,5.760047 11.6648,5.6708501 h -1.55e-4 c -0.02797,-0.015118 -0.05598,-0.030236 -0.08455,-0.042709 -0.05711,-0.026457 -0.11554,-0.051402 -0.174992,-0.072567 -0.02986,-0.011339 -0.05964,-0.018898 -0.08984,-0.030236 h -1.55e-4 c -0.03024,-0.00756 -0.06062,-0.018898 -0.09124,-0.026457 h -1.55e-4 c -0.122716,-0.030236 -0.248839,-0.049889 -0.376701,-0.056315 h -1.55e-4 c -0.03175,-0.00159 -0.06399,-0.00234 -0.09608,-0.00234 V 5.1851052 c 0,-0.2211023 -0.179225,-0.4001763 -0.400309,-0.4001763 H 8.9468807 c -0.2211024,0 -0.4001575,0.1791496 -0.4001575,0.4001763 V 5.4485383 C 8.3498854,5.4674363 8.1579723,5.5135463 7.9771938,5.5880029 7.7439969,5.6843809 7.5298224,5.826491 7.3476643,6.0086265 c -0.034016,0.034016 -0.066671,0.069543 -0.097814,0.1062047 l -5.0068648,-2.0634331 0.016252,-0.040063 1.55e-4,-3.024e-4 C 2.3062962,3.8968911 2.2518332,3.7664974 2.1378427,3.7196312 L 0.63441091,3.0999399 c -0.028346,-0.011339 -0.058016,-0.018898 -0.087042,-0.015118 z M 3.654654,9.5939996 c -0.2340284,0 -0.4461506,0.095244 -0.5998413,0.2490709 -0.019276,0.018898 -0.037417,0.039307 -0.054841,0.060094 -2.27e-5,3.78e-5 2.64e-5,1.134e-4 0,1.512e-4 -0.017386,0.022677 -0.033638,0.042709 -0.048907,0.065008 -2.27e-5,3.77e-5 2.27e-5,1.133e-4 0,1.511e-4 -0.015118,0.022677 -0.02948,0.045732 -0.042482,0.069921 -2.27e-5,3.8e-5 1.89e-5,1.13e-4 0,1.51e-4 -0.013228,0.02268 -0.024945,0.04876 -0.035906,0.07408 -1.51e-5,3.7e-5 1.89e-5,1.13e-4 0,1.51e-4 -0.010583,0.02646 -0.020409,0.05102 -0.028724,0.07786 -1.51e-5,3.8e-5 1.51e-5,7.5e-5 0,1.51e-4 -0.00832,0.02646 -0.015118,0.05367 -0.020787,0.08126 -7.6e-6,7.6e-5 1.13e-5,1.13e-4 0,1.89e-4 -0.00567,0.02646 -0.010205,0.05556 -0.01285,0.08391 -3.8e-6,3.8e-5 3.8e-6,7.5e-5 0,1.51e-4 -0.00289,0.03024 -0.00454,0.05745 -0.00454,0.08655 0,3.8e-5 0,1.13e-4 0,1.51e-4 0,0.0021 4.535e-4,0.0038 4.686e-4,0.0076 2.532e-4,0.03402 0.00193,0.06463 0.00567,0.09638 0.00188,0.01512 0.00567,0.03024 0.00832,0.04573 0.00322,0.0189 0.00567,0.0378 0.010205,0.05405 0.00358,0.01512 0.00869,0.03024 0.01285,0.04271 0.00567,0.0189 0.010583,0.03779 0.017386,0.05518 0.00416,0.01134 0.00983,0.02268 0.014362,0.03402 0.00869,0.0189 0.017008,0.04044 0.027213,0.05972 0.00567,0.01134 0.01285,0.02268 0.018898,0.03402 0.010583,0.0189 0.021165,0.0378 0.03326,0.05405 0.00718,0.01134 0.015874,0.0189 0.023433,0.03024 0.012472,0.01512 0.024945,0.03402 0.038589,0.04913 0.00869,0.01134 0.018142,0.0189 0.027213,0.02646 0.01474,0.01512 0.029102,0.03024 0.044863,0.0446 0.010205,0.0076 0.021543,0.0189 0.032126,0.02646 0.012472,0.01134 0.024567,0.02268 0.037795,0.03024 l 0.9496793,0.91094 C 4.4137948,12.338198 4.8157324,12.5 5.2396669,12.5 h 0.8903092 3.138274 2.9367129 0.592187 c 0.243175,0 0.481501,-0.04649 0.70828,-0.138709 0.0049,-0.002 0.0098,-0.0038 0.01436,-0.0076 l 1.732966,-0.83452 c 0.0079,-0.003 0.01512,-0.0076 0.02268,-0.01134 0.01512,-0.0076 0.03024,-0.01134 0.04517,-0.0189 0.0072,-0.0034 0.01436,-0.0076 0.02154,-0.01134 0.01512,-0.0076 0.02986,-0.01512 0.04452,-0.02268 0.0076,-0.0038 0.01474,-0.0076 0.0223,-0.01512 0.01436,-0.0076 0.02872,-0.0189 0.04282,-0.02646 2.2e-4,-1.51e-4 4.12e-4,-3.4e-4 6.28e-4,-4.53e-4 0.0031,-0.0021 0.006,-0.0038 0.0091,-0.0076 0.01701,-0.01134 0.03364,-0.02268 0.04985,-0.0378 3.51e-4,-3.02e-4 7.44e-4,-5.29e-4 0.0011,-7.94e-4 0.0068,-0.0038 0.01323,-0.01134 0.01965,-0.01512 0.01172,-0.01134 0.02343,-0.0189 0.03439,-0.03024 0.0079,-0.0076 0.01512,-0.01512 0.02305,-0.02268 0.01021,-0.01134 0.02041,-0.0189 0.03024,-0.03024 2.54e-4,-2.64e-4 5.3e-4,-4.91e-4 7.83e-4,-7.56e-4 0.0049,-0.0038 0.0091,-0.01134 0.01361,-0.01512 0.01134,-0.01134 0.02268,-0.02646 0.03326,-0.03855 0.01021,-0.01134 0.02003,-0.02646 0.02986,-0.03931 0.0045,-0.0076 0.0091,-0.01134 0.01323,-0.0189 1.47e-4,-2.26e-4 3.21e-4,-4.15e-4 4.68e-4,-6.04e-4 0.0091,-0.01134 0.01739,-0.02646 0.0257,-0.04006 0.0045,-0.0076 0.0094,-0.01512 0.01361,-0.02268 5.22e-4,-9.07e-4 10e-4,-0.0018 0.0016,-0.0027 0.0049,-0.0076 0.0091,-0.0189 0.01398,-0.02646 0.0068,-0.01134 0.01436,-0.02646 0.02079,-0.03855 8.3e-5,-1.52e-4 2.3e-4,-3.03e-4 3.13e-4,-4.54e-4 0.0026,-0.0038 0.0045,-0.01134 0.0072,-0.01512 0.0079,-0.01512 0.0155,-0.03402 0.02268,-0.05065 8.3e-5,-2.27e-4 2.23e-4,-4.16e-4 3.1e-4,-6.43e-4 0.0023,-0.0038 0.0038,-0.01134 0.006,-0.0189 0.0064,-0.0189 0.01323,-0.03402 0.0189,-0.05216 0.0072,-0.02268 0.01398,-0.04649 0.01965,-0.0703 9.8e-5,-4.15e-4 2.15e-4,-8.31e-4 3.14e-4,-0.0013 0.0057,-0.02268 0.0102,-0.048 0.01398,-0.07219 4.9e-5,-3.02e-4 1.1e-4,-6.04e-4 1.59e-4,-9.44e-4 0.0038,-0.02268 0.0068,-0.04913 0.0087,-0.07408 1.1e-5,-1.52e-4 -1.6e-5,-3.41e-4 0,-4.92e-4 0.002,-0.02646 0.003,-0.05027 0.003,-0.07597 0,-0.541985 -0.440935,-0.982942 -0.982965,-0.982942 L 3.6547182,9.5860626 Z m -3.137e-4,0.4913764 h 3.137e-4 c 0.1973291,0 0.357959,0.160252 0.357959,0.357543 0,0.197291 -0.1606677,0.357543 -0.357959,0.357543 -0.072038,0 -0.1412032,-0.02268 -0.2001638,-0.06161 -9.45e-5,-7.5e-5 -2.154e-4,-7.5e-5 -3.137e-4,-1.51e-4 -1.247e-4,-7.6e-5 -1.852e-4,-2.65e-4 -3.099e-4,-3.02e-4 -0.098079,-0.0669 -0.156737,-0.17726 -0.156737,-0.295559 0,-0.02646 0.00256,-0.04876 0.00718,-0.07219 0.00491,-0.02268 0.011716,-0.04535 0.020787,-0.0669 1.89e-5,-3.8e-5 -1.89e-5,-1.13e-4 0,-1.51e-4 0.00907,-0.02268 0.020031,-0.04157 0.032882,-0.06047 0.01285,-0.0189 0.02759,-0.03779 0.043578,-0.05291 0.016252,-0.01512 0.034016,-0.03024 0.052989,-0.04384 5.67e-5,-3.8e-5 9.83e-5,-1.14e-4 1.55e-4,-1.51e-4 0.018898,-0.01134 0.039156,-0.02268 0.060472,-0.03402 0.01474,-0.0076 0.030614,-0.01134 0.046261,-0.01512 0.029858,-0.0076 0.060397,-0.01512 0.092674,-0.01512 z m 11.2504447,0.02268 c 0.01701,0 0.03364,8.31e-4 0.0503,0.0025 1.06e-4,3.7e-5 2.12e-4,0 3.14e-4,0 0.01625,0.0017 0.0325,0.0038 0.04845,0.0076 9.8e-5,0 2.11e-4,-3.8e-5 3.13e-4,0 0.01587,0.0033 0.03175,0.0076 0.04687,0.01134 0.03099,0.01134 0.0604,0.02268 0.08829,0.03779 3.8e-5,3.7e-5 1.14e-4,0 1.55e-4,0 0.01398,0.0076 0.02721,0.01512 0.04033,0.02646 3.8e-5,3.7e-5 1.21e-4,0 1.55e-4,0 0.01323,0.0076 0.0257,0.0189 0.0378,0.03024 3e-5,3.7e-5 1.25e-4,-3.8e-5 1.55e-4,0 0.01209,0.01134 0.02343,0.0189 0.03477,0.03024 0.01096,0.01134 0.02192,0.02268 0.03175,0.03402 0.07022,0.08504 0.112327,0.193889 0.112327,0.312566 0,0.0926 -0.02721,0.180284 -0.07374,0.256252 -0.01776,0.03024 -0.03742,0.05707 -0.06077,0.08164 -4.9e-5,7.6e-5 -1.06e-4,1.14e-4 -1.55e-4,1.52e-4 -0.01701,0.0189 -0.03515,0.03402 -0.05454,0.04989 -6e-5,3.7e-5 -9.8e-5,1.13e-4 -1.58e-4,1.51e-4 -0.0064,0.0038 -0.01398,0.0076 -0.02079,0.01512 -0.01361,0.01134 -0.02684,0.0189 -0.04157,0.02646 -0.02192,0.01134 -0.04494,0.02268 -0.0689,0.03024 -0.0025,8.69e-4 -0.0049,0.0019 -0.0072,0.0028 -0.05253,0.0189 -0.107565,0.02646 -0.163766,0.02646 -0.271106,0 -0.491721,-0.220725 -0.491721,-0.491717 0,-0.270992 0.220384,-0.491452 0.491252,-0.491717 z m -8.7740454,0.688289 c 0.3338079,0 0.605469,0.271749 0.605469,0.605783 0,0.333732 -0.2716347,0.605291 -0.605469,0.605291 -0.3340346,0 -0.6057789,-0.27137 -0.6057789,-0.605291 0,-0.33411 0.271748,-0.605783 0.6057789,-0.605783 z m 6.0749864,0.102426 c 0.305953,0 0.554842,0.248693 0.554842,0.554381 0,0.305764 -0.248919,0.554532 -0.554842,0.554532 -0.305688,0 -0.55437,-0.248693 -0.55437,-0.554532 0,-0.305764 0.248693,-0.554381 0.55437,-0.554381 z m -2.9367119,0.278173 c 0.228774,0 0.414844,0.186331 0.414844,0.415294 0,0.22904 -0.186066,0.415295 -0.414844,0.415295 -0.22904,0 -0.4153101,-0.186331 -0.4153101,-0.415295 0,-0.229039 0.1863311,-0.415294 0.4153101,-0.415294 z"/>
</svg>
