<?xml version="1.0" encoding="UTF-8" standalone="no"?>
<svg
   xmlns:dc="http://purl.org/dc/elements/1.1/"
   xmlns:cc="http://creativecommons.org/ns#"
   xmlns:rdf="http://www.w3.org/1999/02/22-rdf-syntax-ns#"
   xmlns:svg="http://www.w3.org/2000/svg"
   xmlns="http://www.w3.org/2000/svg"
   xmlns:sodipodi="http://sodipodi.sourceforge.net/DTD/sodipodi-0.dtd"
   xmlns:inkscape="http://www.inkscape.org/namespaces/inkscape"
   width="16"
   height="16"
   version="1.1"
   id="svg7"
   sodipodi:docname="balena-etcher-electron-symbolic.svg"
   inkscape:version="0.92.3 (2405546, 2018-03-11)">
  <metadata
     id="metadata11">
    <rdf:RDF>
      <cc:Work
         rdf:about="">
        <dc:format>image/svg+xml</dc:format>
        <dc:type
           rdf:resource="http://purl.org/dc/dcmitype/StillImage" />
        <dc:title></dc:title>
      </cc:Work>
    </rdf:RDF>
  </metadata>
  <sodipodi:namedview
     pagecolor="#ffffff"
     bordercolor="#666666"
     borderopacity="1"
     objecttolerance="10"
     gridtolerance="10"
     guidetolerance="10"
     inkscape:pageopacity="0"
     inkscape:pageshadow="2"
     inkscape:window-width="1920"
     inkscape:window-height="1009"
     id="namedview9"
     showgrid="false"
     inkscape:zoom="14.75"
     inkscape:cx="8"
     inkscape:cy="8"
     inkscape:window-x="0"
     inkscape:window-y="34"
     inkscape:window-maximized="1"
     inkscape:current-layer="svg7" />
  <defs
     id="defs3">
    <style
       id="current-color-scheme"
       type="text/css">
   .ColorScheme-Text { color: #444444; } .ColorScheme-Highlight { color: #5294e2; }
  </style>
  </defs>
  <path
     id="path1310"
     d="m 8.040611,0.49995939 v 0.0025 c -0.219839,0.01035 -0.434379,0.05464 -0.59476,0.138007 L 2.407555,3.6951784 c -0.03111,0.01801 -0.06373,0.04071 -0.09597,0.06235 1.660216,0.950202 3.291264,1.969204 4.566832,2.949281 0.617403,0.474379 1.033432,0.907175 1.317368,1.285845 0.283936,-0.378644 0.700027,-0.811512 1.317369,-1.285845 1.237247,-0.950633 2.809323,-1.937448 4.417616,-2.863114 -0.07243,-0.05732 -0.144658,-0.108756 -0.213315,-0.148515 L 8.678809,0.64046839 c -0.160376,-0.08337 -0.374925,-0.128009 -0.59476,-0.138357 v -0.0021 c -0.0073,1.79e-4 -0.01443,8.71e-4 -0.02172,0.0011 -0.0073,-1.8e-4 -0.01443,-8.72e-4 -0.02172,-0.0011 z M 1.58687,4.6881484 C 1.54336,4.8156564 1.51234,4.9528384 1.5,5.1011174 v 2.890786 0.08091 2.8907866 c 0.05946,0.71482 0.535327,1.19043 0.907552,1.40599 l 5.038296,3.05471 c 0.05989,0.0311 0.12898,0.0551 0.201406,0.0757 L 7.614334,9.3755114 h 0.0018 c 0,-0.0045 5.41e-4,-0.01406 7e-4,-0.02172 -8.78e-4,0.0012 -0.0019,0.0031 -0.0063,-0.01716 C 7.599324,9.2849814 7.570364,9.1837964 7.492142,9.0350484 7.335692,8.7375514 6.97928,8.2475204 6.171621,7.6269594 4.925059,6.6691694 3.274057,5.6458634 1.586925,4.6881864 Z m 12.990146,0.131351 c -1.606907,0.919768 -3.166874,1.892979 -4.357019,2.807422 -0.807659,0.620561 -1.16407,1.110592 -1.320521,1.408089 -0.07823,0.148748 -0.107184,0.249936 -0.118392,0.301583 -0.0044,0.02028 -0.0054,0.01835 -0.0063,0.01716 3.6e-4,0.01729 0.0018,0.04939 0.0018,0.04939 h -0.0014 l 0.03187,5.9433966 4.910447,-2.97695 c 0.372226,-0.21556 0.847743,-0.69117 0.907203,-1.40599 v -2.8907856 -0.08091 -2.890786 c -0.0082,-0.09861 -0.02496,-0.192166 -0.04764,-0.281618 z"
     style="fill:#444444;fill-opacity:1;stroke:none;stroke-width:0.05945878px;stroke-linecap:butt;stroke-linejoin:round;stroke-opacity:1"
     inkscape:connector-curvature="0" />
</svg>
