<?xml version="1.0" encoding="UTF-8" standalone="no"?>
<svg
   xmlns:dc="http://purl.org/dc/elements/1.1/"
   xmlns:cc="http://creativecommons.org/ns#"
   xmlns:rdf="http://www.w3.org/1999/02/22-rdf-syntax-ns#"
   xmlns:svg="http://www.w3.org/2000/svg"
   xmlns="http://www.w3.org/2000/svg"
   xmlns:sodipodi="http://sodipodi.sourceforge.net/DTD/sodipodi-0.dtd"
   xmlns:inkscape="http://www.inkscape.org/namespaces/inkscape"
   width="16"
   height="16"
   version="1.1"
   id="svg4"
   sodipodi:docname="bleachbit.svg"
   inkscape:version="0.92.3 (2405546, 2018-03-11)">
  <metadata
     id="metadata10">
    <rdf:RDF>
      <cc:Work
         rdf:about="">
        <dc:format>image/svg+xml</dc:format>
        <dc:type
           rdf:resource="http://purl.org/dc/dcmitype/StillImage" />
        <dc:title></dc:title>
      </cc:Work>
    </rdf:RDF>
  </metadata>
  <defs
     id="defs8" />
  <sodipodi:namedview
     pagecolor="#ffffff"
     bordercolor="#666666"
     borderopacity="1"
     objecttolerance="10"
     gridtolerance="10"
     guidetolerance="10"
     inkscape:pageopacity="0"
     inkscape:pageshadow="2"
     inkscape:window-width="806"
     inkscape:window-height="480"
     id="namedview6"
     showgrid="false"
     inkscape:zoom="14.75"
     inkscape:cx="8"
     inkscape:cy="8"
     inkscape:window-x="0"
     inkscape:window-y="34"
     inkscape:window-maximized="0"
     inkscape:current-layer="svg4" />
  <path
     style="fill:#4d4d4d;fill-rule:evenodd"
     d="M 14.88463,7.0033949e-4 C 14.28143,-0.01881266 13.649601,0.28802354 13.37229,0.74208194 L 11.631787,4.4379166 c -0.0557,0.091221 -0.09928,0.1848819 -0.13366,0.2790303 L 10.015518,3.9248325 C 9.834727,4.5965541 9.9878253,4.9592447 9.7499745,5.683943 L 9.4734579,5.5351594 C 9.2732289,5.4273522 9.0189193,5.4912564 8.9033227,5.6776014 L 8.5987468,6.170246 C 8.4831135,6.3570795 8.5511978,6.5946455 8.7514266,6.7025985 l 0.036054,0.01951 C 6.8532644,6.8840625 4.404598,10.470774 1,12.025148 c 2.7301,2.641666 6.7551047,4.028525 8.5693661,3.97345 2.2384939,-2.133021 2.8842269,-5.65451 2.6518839,-7.4258165 l 0.511963,0.276104 c 0.200229,0.107807 0.454539,0.0439 0.570136,-0.142442 l 0.304576,-0.492645 c 0.115633,-0.186833 0.04755,-0.424399 -0.15268,-0.532206 l -0.251488,-0.135613 c 0.507522,-0.477571 1.084214,-0.607964 1.595869,-1.064949 L 13.263397,5.6603327 c 0.06406,-0.071709 0.123523,-0.1497592 0.175827,-0.2351269 L 15.909633,2.1694294 C 16.279367,1.5639531 16.171937,0.47139324 15.464238,0.13602034 15.28376,0.05065264 15.085883,0.00772484 14.884802,0.00138324 Z M 14.789061,0.69886154 a 0.54127762,0.50532877 0 0 1 0.517972,0.37464216 0.54127762,0.50532877 0 0 1 -0.382849,0.6187936 0.54127762,0.50532877 0 0 1 -0.662788,-0.3570807 0.54127762,0.50532877 0 0 1 0.38264,-0.61884256 0.54127762,0.50532877 0 0 1 0.144999,-0.019513 z"
     id="path2" />
</svg>
