<?xml version="1.0" encoding="UTF-8" standalone="no"?>
<!-- Created with Inkscape (http://www.inkscape.org/) -->

<svg
   xmlns:dc="http://purl.org/dc/elements/1.1/"
   xmlns:cc="http://creativecommons.org/ns#"
   xmlns:rdf="http://www.w3.org/1999/02/22-rdf-syntax-ns#"
   xmlns:svg="http://www.w3.org/2000/svg"
   xmlns="http://www.w3.org/2000/svg"
   xmlns:sodipodi="http://sodipodi.sourceforge.net/DTD/sodipodi-0.dtd"
   xmlns:inkscape="http://www.inkscape.org/namespaces/inkscape"
   sodipodi:docname="org.gnome.Cheese.svg"
   height="16"
   id="svg7384"
   inkscape:version="0.92.3 (2405546, 2018-03-11)"
   version="1.1"
   width="16">
  <metadata
     id="metadata90">
    <rdf:RDF>
      <cc:Work
         rdf:about="">
        <dc:format>image/svg+xml</dc:format>
        <dc:type
           rdf:resource="http://purl.org/dc/dcmitype/StillImage" />
        <dc:title>Gnome Symbolic Icon Theme</dc:title>
      </cc:Work>
    </rdf:RDF>
  </metadata>
  <sodipodi:namedview
     inkscape:bbox-paths="true"
     bordercolor="#666666"
     borderopacity="1"
     inkscape:current-layer="layer9"
     inkscape:cx="8"
     inkscape:cy="8.7491518"
     gridtolerance="10"
     inkscape:guide-bbox="true"
     guidetolerance="10"
     id="namedview88"
     inkscape:object-nodes="false"
     inkscape:object-paths="false"
     objecttolerance="10"
     pagecolor="#ffffff"
     inkscape:pageopacity="1"
     inkscape:pageshadow="2"
     showborder="true"
     showgrid="true"
     showguides="true"
     inkscape:snap-bbox="false"
     inkscape:snap-bbox-midpoints="false"
     inkscape:snap-global="true"
     inkscape:snap-grids="true"
     inkscape:snap-nodes="true"
     inkscape:snap-others="false"
     inkscape:snap-to-guides="true"
     inkscape:window-height="1009"
     inkscape:window-maximized="1"
     inkscape:window-width="1920"
     inkscape:window-x="0"
     inkscape:window-y="34"
     inkscape:zoom="52.062874">
    <inkscape:grid
       empspacing="2"
       enabled="true"
       id="grid4866"
       snapvisiblegridlinesonly="true"
       spacingx="1"
       spacingy="1"
       type="xygrid"
       visible="true"
       originx="0"
       originy="0" />
  </sodipodi:namedview>
  <title
     id="title9167">Gnome Symbolic Icon Theme</title>
  <defs
     id="defs7386" />
  <g
     inkscape:groupmode="layer"
     id="layer9"
     inkscape:label="apps"
     style="display:inline"
     transform="translate(-143.0002,-175)">
    <path
       sodipodi:cx="14.75"
       sodipodi:cy="22.6875"
       d="M 16.5,22.6875 A 1.75,1.8125 0 0 1 14.75,24.5 1.75,1.8125 0 0 1 13,22.6875 1.75,1.8125 0 0 1 14.75,20.875 1.75,1.8125 0 0 1 16.5,22.6875 Z"
       id="path10037"
       sodipodi:rx="1.75"
       sodipodi:ry="1.8125"
       style="color:#000000;fill:#4d4d4d;fill-opacity:1;fill-rule:nonzero;stroke:none;stroke-width:1;marker:none;visibility:visible;display:inline;overflow:visible;font-family:Bitstream Vera Sans"
       transform="matrix(0.29306971,0,0,0.27586073,151.16455,179.24141)"
       sodipodi:type="arc" />
    <path
       inkscape:connector-curvature="0"
       d="m 153.0002,191 5,0 c 0,0 0.33504,-1 0,-2 -0.18036,0.15698 -1.56557,1 -2.5,1 -0.93443,0 -2.13928,-0.68603 -2.5,-1 -0.31243,1.22576 0,2 0,2 z"
       id="path10041"
       sodipodi:nodetypes="cccscc"
       style="fill:#4d4d4d;fill-opacity:1;stroke:none" />
    <path
       inkscape:connector-curvature="0"
       d="m 143.0002,175 v 16 l 8.05928,0.0383 -0.0192,-1.02275 -7.01737,-0.0192 -0.0383,-14.01198 14.08862,0.0575 -0.0958,4.97724 L 159.0002,181 v -6 z"
       id="rect22385"
       sodipodi:nodetypes="ccccccccccc"
       style="fill:#4d4d4d;fill-opacity:1;stroke:none" />
    <path
       inkscape:connector-curvature="0"
       d="m 145.0002,181 0,2.21875 c 0,2.31865 2.78142,4.58596 6.5625,4.75 -0.62469,-0.74109 -1.03125,-1.67164 -1.03125,-2.71875 0,-1.24613 0.61867,-2.47207 1.46875,-3.25 -6,0.76452 -7,-1 -7,-1 z"
       id="path22396"
       sodipodi:nodetypes="cscscc"
       style="fill:#4d4d4d;fill-opacity:1;stroke:none" />
    <path
       inkscape:connector-curvature="0"
       d="m 150.0002,180 c -1.66667,-1.43664 -3.33333,-1.39359 -5,0 0,-1.10458 1.11929,-2 2.5,-2 1.38071,0 2.5,0.89542 2.5,2 z"
       id="path22402"
       sodipodi:nodetypes="ccsc"
       style="fill:#4d4d4d;fill-opacity:1;stroke:none" />
    <path
       inkscape:connector-curvature="0"
       d="m 152.0002,180 c 1.66667,-1.43664 3.33333,-1.39359 5,0 0,-1.10458 -1.11929,-2 -2.5,-2 -1.38071,0 -2.5,0.89542 -2.5,2 z"
       id="path22405"
       sodipodi:nodetypes="ccsc"
       style="fill:#4d4d4d;fill-opacity:1;stroke:none" />
    <path
       inkscape:connector-curvature="0"
       d="m 155.5002,182 c -1.933,0 -3.5,1.567 -3.5,3.5 0,1.933 1.567,3.5 3.5,3.5 1.933,0 3.5,-1.567 3.5,-3.5 0,-1.933 -1.567,-3.5 -3.5,-3.5 z m 0.0192,1.00359 c 1.4808,0.004 2.4808,0.99641 2.47724,2.61138 -0.003,1.38503 -0.99644,2.38503 -2.45808,2.36228 -1.53834,-0.0239 -2.53836,-0.97725 -2.51557,-2.41976 0.0246,-1.55746 0.97721,-2.55749 2.49641,-2.5539 z"
       id="path22411"
       style="fill:#4d4d4d;fill-opacity:1;stroke:none"
       sodipodi:nodetypes="ssssssssss" />
  </g>
</svg>
