<?xml version="1.0" encoding="UTF-8" standalone="no"?>
<svg
   xmlns:dc="http://purl.org/dc/elements/1.1/"
   xmlns:cc="http://creativecommons.org/ns#"
   xmlns:rdf="http://www.w3.org/1999/02/22-rdf-syntax-ns#"
   xmlns:svg="http://www.w3.org/2000/svg"
   xmlns="http://www.w3.org/2000/svg"
   width="16"
   version="1.1"
   id="svg7384"
   height="16">
  <metadata
     id="metadata90">
    <rdf:RDF>
      <cc:Work
         rdf:about="">
        <dc:format>image/svg+xml</dc:format>
        <dc:type
           rdf:resource="http://purl.org/dc/dcmitype/StillImage" />
        <dc:title>Gnome Symbolic Icon Theme</dc:title>
      </cc:Work>
    </rdf:RDF>
  </metadata>
  <title
     id="title9167">Gnome Symbolic Icon Theme</title>
  <defs
     id="defs7386" />
  <g
     style="display:inline;enable-background:new"
     id="g4822"
     transform="translate(-160,-171.75)">
    <path
       id="path4811"
       transform="translate(160,171.75)"
       d="M 8 0.25 L 7 1.25 L 7 6.4453125 L 9 5.2910156 L 9 1.25 L 8 0.25 z M 13.328125 3.9472656 L 4.6992188 8.9296875 C 3.9227179 8.3626319 2.8512293 8.2631162 1.9707031 8.7714844 C 0.78266312 9.4574044 0.3687675 10.99946 1.0546875 12.1875 C 1.7405975 13.37554 3.2826631 13.789426 4.4707031 13.103516 C 5.3509608 12.595295 5.8016798 11.615871 5.6992188 10.660156 L 7 9.9082031 L 7 11.214844 C 6.1214162 11.604104 5.5 12.483801 5.5 13.5 C 5.5 14.87183 6.62817 16 8 16 C 9.37183 16 10.5 14.87183 10.5 13.5 C 10.5 12.483801 9.8785838 11.604104 9 11.214844 L 9 8.7539062 L 14.328125 5.6777344 L 14.695312 4.3125 L 13.328125 3.9472656 z M 3.0996094 9.9414062 C 3.4863844 9.8909917 3.875495 10.073008 4.0859375 10.4375 C 4.3665175 10.92348 4.2066931 11.522154 3.7207031 11.802734 C 3.2347231 12.083324 2.6340956 11.92348 2.3535156 11.4375 C 2.0729256 10.95151 2.2347231 10.352856 2.7207031 10.072266 C 2.8422006 10.002121 2.9706844 9.9582111 3.0996094 9.9414062 z M 8 12.5 C 8.56117 12.5 9 12.93883 9 13.5 C 9 14.06117 8.56117 14.5 8 14.5 C 7.43883 14.5 7 14.06117 7 13.5 C 7 12.93883 7.43883 12.5 8 12.5 z "
       style="display:inline;fill:#241f31;stroke:none;stroke-width:1px;stroke-linecap:butt;stroke-linejoin:miter;stroke-opacity:1;enable-background:new" />
    <g
       transform="translate(1)"
       id="g4809" />
  </g>
</svg>
