<svg xmlns="http://www.w3.org/2000/svg" width="16" height="16" version="1.1">
 <g id="keyboard" fill="#4d4d4d" transform="translate(-201.0004,-867)">
  <path d="M 2 2 C 0.892 2 0 2.892 0 4 L 0 12 C 0 13.108 0.892 14 2 14 L 14 14 C 15.108 14 16 13.108 16 12 L 16 4 C 16 2.892 15.108 2 14 2 L 2 2 z M 2.5 4 L 3.5 4 C 3.777 4 4 4.223 4 4.5 L 4 5.5 C 4 5.777 3.777 6 3.5 6 L 2.5 6 C 2.223 6 2 5.777 2 5.5 L 2 4.5 C 2 4.223 2.223 4 2.5 4 z M 5.5 4 L 6.5 4 C 6.777 4 7 4.223 7 4.5 L 7 5.5 C 7 5.777 6.777 6 6.5 6 L 5.5 6 C 5.223 6 5 5.777 5 5.5 L 5 4.5 C 5 4.223 5.223 4 5.5 4 z M 8.5 4 L 9.5 4 C 9.777 4 10 4.223 10 4.5 L 10 5.5 C 10 5.777 9.777 6 9.5 6 L 8.5 6 C 8.223 6 8 5.777 8 5.5 L 8 4.5 C 8 4.223 8.223 4 8.5 4 z M 11.5 4 L 12.5 4 C 12.777 4 13 4.223 13 4.5 L 13 5.5 C 13 5.777 12.777 6 12.5 6 L 11.5 6 C 11.223 6 11 5.777 11 5.5 L 11 4.5 C 11 4.223 11.223 4 11.5 4 z M 4.5 7 L 5.5 7 C 5.777 7 6 7.223 6 7.5 L 6 8.5 C 6 8.777 5.777 9 5.5 9 L 4.5 9 C 4.223 9 4 8.777 4 8.5 L 4 7.5 C 4 7.223 4.223 7 4.5 7 z M 7.5 7 L 8.5 7 C 8.777 7 9 7.223 9 7.5 L 9 8.5 C 9 8.777 8.777 9 8.5 9 L 7.5 9 C 7.223 9 7 8.777 7 8.5 L 7 7.5 C 7 7.223 7.223 7 7.5 7 z M 10.5 7 L 13.5 7 C 13.777 7 14 7.223 14 7.5 L 14 8.5 C 14 8.777 13.777 9 13.5 9 L 10.5 9 C 10.223 9 10 8.777 10 8.5 L 10 7.5 C 10 7.223 10.223 7 10.5 7 z M 2.5 10 L 3.5 10 C 3.777 10 4 10.223 4 10.5 L 4 11.5 C 4 11.777 3.777 12 3.5 12 L 2.5 12 C 2.223 12 2 11.777 2 11.5 L 2 10.5 C 2 10.223 2.223 10 2.5 10 z M 5.5 10 L 10.5 10 C 10.777 10 11 10.223 11 10.5 L 11 11.5 C 11 11.777 10.777 12 10.5 12 L 5.5 12 C 5.223 12 5 11.777 5 11.5 L 5 10.5 C 5 10.223 5.223 10 5.5 10 z M 12.5 10 L 13.5 10 C 13.777 10 14 10.223 14 10.5 L 14 11.5 C 14 11.777 13.777 12 13.5 12 L 12.5 12 C 12.223 12 12 11.777 12 11.5 L 12 10.5 C 12 10.223 12.223 10 12.5 10 z" transform="translate(201.0004,867)" style="fill:#241f31"/>
 </g>
</svg>
