<?xml version="1.0" encoding="UTF-8" standalone="no"?>
<svg
   xmlns:dc="http://purl.org/dc/elements/1.1/"
   xmlns:cc="http://creativecommons.org/ns#"
   xmlns:rdf="http://www.w3.org/1999/02/22-rdf-syntax-ns#"
   xmlns:svg="http://www.w3.org/2000/svg"
   xmlns="http://www.w3.org/2000/svg"
   xmlns:sodipodi="http://sodipodi.sourceforge.net/DTD/sodipodi-0.dtd"
   xmlns:inkscape="http://www.inkscape.org/namespaces/inkscape"
   width="16"
   height="16"
   version="1.1"
   id="svg12"
   sodipodi:docname="special-effects-symbolic.svg"
   inkscape:version="0.92.3 (2405546, 2018-03-11)">
  <metadata
     id="metadata18">
    <rdf:RDF>
      <cc:Work
         rdf:about="">
        <dc:format>image/svg+xml</dc:format>
        <dc:type
           rdf:resource="http://purl.org/dc/dcmitype/StillImage" />
      </cc:Work>
    </rdf:RDF>
  </metadata>
  <defs
     id="defs16" />
  <sodipodi:namedview
     pagecolor="#ffffff"
     bordercolor="#666666"
     borderopacity="1"
     objecttolerance="10"
     gridtolerance="10"
     guidetolerance="10"
     inkscape:pageopacity="0"
     inkscape:pageshadow="2"
     inkscape:window-width="1375"
     inkscape:window-height="859"
     id="namedview14"
     showgrid="false"
     inkscape:zoom="14.75"
     inkscape:cx="-4.0338983"
     inkscape:cy="8"
     inkscape:window-x="0"
     inkscape:window-y="34"
     inkscape:window-maximized="0"
     inkscape:current-layer="svg12" />
  <g
     transform="translate(-31.97559,-220.36218)"
     id="g10"
     style="fill:#241f31;fill-opacity:1">
    <path
       fill="#808080"
       d="m37.988739 228.53897-2.297797-2.35131-2.888395 1.48949 1.526172-2.91193-2.309155-2.28675 3.241023 0.55164 1.461259-2.90278 0.476891 3.25286 3.212262 0.49274-2.946288 1.45874z"
       transform="matrix(.64913853 -.86150281 .86150281 .64913853 -179.99636 110.92512)"
       id="path2"
       style="fill:#241f31;fill-opacity:1" />
    <path
       fill="#808080"
       fill-opacity="0.75"
       d="m37.988739 228.53897-2.297797-2.35131-2.888395 1.48949 1.526172-2.91193-2.309155-2.28675 3.241023 0.55164 1.461259-2.90278 0.476891 3.25286 3.212262 0.49274-2.946288 1.45874z"
       transform="matrix(.17246664 -.59507374 .59507374 .17246664 -97.308777 206.28836)"
       id="path4"
       style="fill:#241f31;fill-opacity:1" />
    <path
       fill="#808080"
       fill-opacity="0.60"
       d="m37.988739 228.53897-2.297797-2.35131-2.888395 1.48949 1.526172-2.91193-2.309155-2.28675 3.241023 0.55164 1.461259-2.90278 0.476891 3.25286 3.212262 0.49274-2.946288 1.45874z"
       transform="matrix(.31512729 -.24426588 .24426588 .31512729 -20.343182 164.16536)"
       id="path6"
       style="fill:#241f31;fill-opacity:1" />
    <path
       fill="#808080"
       fill-rule="evenodd"
       d="m39.751212 228.25156c-0.449408 9e-5 -0.670595 0.54685-0.347656 0.85938l6.011567 6.18638c0.471254 0.49084 1.197872-0.23577 0.707032-0.70703l-6.011568-6.18639c-0.09421-0.0974-0.223892-0.15234-0.359375-0.15234z"
       id="path8"
       style="fill:#241f31;fill-opacity:1" />
  </g>
</svg>
