<svg xmlns="http://www.w3.org/2000/svg" style="enable-background:new" width="16" height="16" version="1.1">
 <g fill="#241f31" id="font" inkscape:label="font" transform="translate(-172,-668)">
  <path d="m 178.99609,670.99414 v 2 h 2.92188 c -0.0552,0 0.082,0.16127 0.082,0.084 V 674 h -1.94141 c -1.71588,0 -3.03005,1.12549 -3.05468,2.48438 -0.0123,0.67944 0.30583,1.36299 0.86132,1.82226 0.5555,0.45927 1.31546,0.69922 2.19336,0.69922 H 184 v -5.92774 c 0,-1.17118 -0.88519,-2.08398 -2.08203,-2.08398 z M 180.05859,676 H 182 v 1.00586 h -1.94141 c -0.5194,0 -0.79183,-0.13595 -0.91797,-0.24024 -0.12613,-0.10428 -0.13802,-0.17217 -0.13671,-0.24414 0.003,-0.14392 0.0849,-0.52148 1.05468,-0.52148 z" />
  <path d="m 175,670.9707 v 11.00391 h 1 V 670.9707 Z" />
  <path d="m 174.00781,680 v 1 H 185 v -1 z" />
  <path d="m 185.02358,682.97439 -0.0308,-4.9488 2.5144,2.48512 z" />
  <path d="m 177.9744,670.9764 -4.9488,0.0308 2.48511,-2.5144 z" />
 </g>
</svg>
