<?xml version="1.0" encoding="UTF-8" standalone="no"?>
<!-- Created with Inkscape (http://www.inkscape.org/) -->

<svg
   xmlns:dc="http://purl.org/dc/elements/1.1/"
   xmlns:cc="http://creativecommons.org/ns#"
   xmlns:rdf="http://www.w3.org/1999/02/22-rdf-syntax-ns#"
   xmlns:svg="http://www.w3.org/2000/svg"
   xmlns="http://www.w3.org/2000/svg"
   xmlns:sodipodi="http://sodipodi.sourceforge.net/DTD/sodipodi-0.dtd"
   xmlns:inkscape="http://www.inkscape.org/namespaces/inkscape"
   width="16px"
   height="16px"
   id="svg6558"
   version="1.1"
   inkscape:version="0.48.4 r9939"
   sodipodi:docname="New document 3">
  <defs
     id="defs6560" />
  <sodipodi:namedview
     id="base"
     pagecolor="#ffffff"
     bordercolor="#666666"
     borderopacity="1.0"
     inkscape:pageopacity="0.0"
     inkscape:pageshadow="2"
     inkscape:zoom="11.313709"
     inkscape:cx="19.20757"
     inkscape:cy="8.0641911"
     inkscape:current-layer="layer1"
     showgrid="false"
     inkscape:grid-bbox="true"
     inkscape:document-units="px"
     inkscape:snap-nodes="false"
     inkscape:snap-bbox="true"
     inkscape:window-width="1600"
     inkscape:window-height="841"
     inkscape:window-x="0"
     inkscape:window-y="27"
     inkscape:window-maximized="1">
    <inkscape:grid
       type="xygrid"
       id="grid6582" />
  </sodipodi:namedview>
  <metadata
     id="metadata6563">
    <rdf:RDF>
      <cc:Work
         rdf:about="">
        <dc:format>image/svg+xml</dc:format>
        <dc:type
           rdf:resource="http://purl.org/dc/dcmitype/StillImage" />
        <dc:title></dc:title>
      </cc:Work>
    </rdf:RDF>
  </metadata>
  <g
     id="layer1"
     inkscape:label="Layer 1"
     inkscape:groupmode="layer">
    <g
       transform="translate(-302.99597,-213.992)"
       style="display:inline"
       id="g8452"
       inkscape:label=" gnome-sudoku">
      <path
         sodipodi:nodetypes="sssscccccccccccccccccccccccccssscccccccccccczcccccccccccccczccccccssc"
         inkscape:connector-curvature="0"
         id="rect7481-0-7"
         d="m 304.99657,213.992 c -1.0907,0 -2,0.9093 -2,2 l 0,11 c 0,1.0907 0.9093,2 2,2 l 2,0 0,-1.5625 0.4375,-0.4375 -2.4375,0 0,-3 3,0 0,2.4375 1,-1 0,-1.4375 1.4375,0 1,-1 -2.4375,0 0,-3 3,0 0,2.4375 1,-0.96875 0,-1.46875 1.46875,0 1,-1 -2.46875,0 0,-3 3,0 0,2.46875 1.875,-1.875 0.125,0.125 0,-0.71875 c 0,-1.0907 -0.9093,-2 -2,-2 z m 0,2 3,0 0,3 -3,0 z m 4,0 3,0 0,3 -3,0 z m 8.875,2 -1.59375,1.59375 c 0,0 0.883,0.20582 1.30269,0.69332 0.41969,0.48749 0.82231,1.43168 0.82231,1.43168 l 0.625,-0.625 0,-1.9375 z m -12.875,2 3,0 0,3 -3,0 z m 10.59375,0.28125 -7.59375,7.65625 0,2.0625 2.08594,0.008 7.63281,-7.60156 c 0,0 -0.17181,-0.82267 -0.71512,-1.39844 -0.54331,-0.57577 -1.40988,-0.72675 -1.40988,-0.72675 z m 2.40625,3.25 -2,1.96875 0,1.5 -1.5,0 -2,2 3.5,0 c 1.0907,0 2,-0.9093 2,-2 z"
         style="font-size:medium;font-style:normal;font-variant:normal;font-weight:normal;font-stretch:normal;text-indent:0;text-align:start;text-decoration:none;line-height:normal;letter-spacing:normal;word-spacing:normal;text-transform:none;direction:ltr;block-progression:tb;writing-mode:lr-tb;text-anchor:start;baseline-shift:baseline;color:#000000;fill:#444444;fill-opacity:1;stroke:none;stroke-width:2;marker:none;visibility:visible;display:inline;overflow:visible;enable-background:accumulate;font-family:Sans;-inkscape-font-specification:Sans" />
    </g>
  </g>
</svg>
