<svg xmlns="http://www.w3.org/2000/svg" width="16" height="16" version="1.1">
 <g transform="translate(-652,-240)">
  <path style="fill:#4d4d4d" d="M 8.0214844 0.45898438 C 4.7506851 0.45898438 1.9688667 2.5598783 0.93554688 5.4804688 L 1.9960938 5.4804688 C 2.9747419 3.1171992 5.2998895 1.4589844 8.0214844 1.4589844 C 10.743079 1.4589844 13.06682 3.1171992 14.044922 5.4804688 L 15.105469 5.4804688 C 14.072662 2.5598783 11.292283 0.45898437 8.0214844 0.45898438 z M 3.5195312 5.9804688 C 3.2425314 5.9804688 3.0195314 6.2034687 3.0195312 6.4804688 L 3.0195312 9.4804688 C 3.0195312 9.7574684 3.2425314 9.9804688 3.5195312 9.9804688 L 12.519531 9.9804688 C 12.796531 9.9804688 13.019531 9.7574685 13.019531 9.4804688 L 13.019531 6.4804688 C 13.019531 6.2034687 12.796531 5.9804686 12.519531 5.9804688 L 3.5195312 5.9804688 z M 5.4199219 6.9804688 C 5.9739219 6.9804688 6.4199219 7.4264687 6.4199219 7.9804688 C 6.4199219 8.5344688 5.9739219 8.9804688 5.4199219 8.9804688 C 4.8659219 8.9804688 4.4199219 8.5344688 4.4199219 7.9804688 C 4.4199219 7.4264687 4.8659219 6.9804688 5.4199219 6.9804688 z M 8.0195312 6.9804688 C 8.5735314 6.9804688 9.0195312 7.4264687 9.0195312 7.9804688 C 9.0195312 8.5344688 8.5735312 8.9804688 8.0195312 8.9804688 C 7.4655315 8.9804688 7.0195312 8.5344688 7.0195312 7.9804688 C 7.0195312 7.4264687 7.4655315 6.9804688 8.0195312 6.9804688 z M 10.621094 6.9804688 C 11.175094 6.9804688 11.621094 7.4264687 11.621094 7.9804688 C 11.621094 8.5344688 11.175094 8.9804688 10.621094 8.9804688 C 10.067094 8.9804688 9.6210938 8.5344688 9.6210938 7.9804688 C 9.6210938 7.4264687 10.067094 6.9804688 10.621094 6.9804688 z M 0.93554688 10.480469 C 1.9696571 13.400116 4.7517285 15.5 8.0214844 15.5 C 11.29124 15.5 14.071872 13.400116 15.105469 10.480469 L 14.042969 10.480469 C 13.0639 12.842159 10.741547 14.5 8.0214844 14.5 C 5.3014221 14.5 2.9776615 12.842159 1.9980469 10.480469 L 0.93554688 10.480469 z" transform="translate(652,240)"/>
 </g>
</svg>
