<?xml version="1.0" encoding="UTF-8" standalone="no"?>
<!-- Created with Inkscape (http://www.inkscape.org/) -->

<svg
   xmlns:dc="http://purl.org/dc/elements/1.1/"
   xmlns:cc="http://creativecommons.org/ns#"
   xmlns:rdf="http://www.w3.org/1999/02/22-rdf-syntax-ns#"
   xmlns:svg="http://www.w3.org/2000/svg"
   xmlns="http://www.w3.org/2000/svg"
   xmlns:sodipodi="http://sodipodi.sourceforge.net/DTD/sodipodi-0.dtd"
   xmlns:inkscape="http://www.inkscape.org/namespaces/inkscape"
   sodipodi:docname="6.svg"
   height="16"
   id="svg7384"
   inkscape:version="0.92.3 (2405546, 2018-03-11)"
   version="1.1"
   width="16">
  <metadata
     id="metadata90">
    <rdf:RDF>
      <cc:Work
         rdf:about="">
        <dc:format>image/svg+xml</dc:format>
        <dc:type
           rdf:resource="http://purl.org/dc/dcmitype/StillImage" />
        <dc:title>Gnome Symbolic Icon Theme</dc:title>
      </cc:Work>
    </rdf:RDF>
  </metadata>
  <sodipodi:namedview
     inkscape:bbox-paths="true"
     bordercolor="#666666"
     borderopacity="1"
     inkscape:current-layer="layer9"
     inkscape:cx="4.5796407"
     inkscape:cy="7.5351484"
     gridtolerance="10"
     inkscape:guide-bbox="true"
     guidetolerance="10"
     id="namedview88"
     inkscape:object-nodes="false"
     inkscape:object-paths="false"
     objecttolerance="10"
     pagecolor="#ffffff"
     inkscape:pageopacity="1"
     inkscape:pageshadow="2"
     showborder="true"
     showgrid="true"
     showguides="true"
     inkscape:snap-bbox="true"
     inkscape:snap-bbox-midpoints="false"
     inkscape:snap-global="true"
     inkscape:snap-grids="true"
     inkscape:snap-nodes="true"
     inkscape:snap-others="false"
     inkscape:snap-to-guides="true"
     inkscape:window-height="1009"
     inkscape:window-maximized="1"
     inkscape:window-width="1920"
     inkscape:window-x="0"
     inkscape:window-y="34"
     inkscape:zoom="52.1875"
     borderlayer="true"
     inkscape:showpageshadow="false">
    <inkscape:grid
       empspacing="2"
       enabled="true"
       id="grid4866"
       snapvisiblegridlinesonly="true"
       spacingx="1"
       spacingy="1"
       type="xygrid"
       visible="true"
       originx="0"
       originy="0" />
  </sodipodi:namedview>
  <title
     id="title9167">Gnome Symbolic Icon Theme</title>
  <defs
     id="defs7386" />
  <g
     inkscape:groupmode="layer"
     id="layer9"
     inkscape:label="apps"
     style="display:inline"
     transform="translate(-223.0002,-215)">
    <path
       style="display:inline;fill:#4d4d4d;fill-opacity:1;fill-rule:evenodd;stroke:none;stroke-width:0.85000008;stroke-linecap:butt;stroke-linejoin:miter;stroke-miterlimit:4;stroke-dasharray:none;stroke-opacity:1;enable-background:new"
       d="m 228.068,216.72138 c -2.02631,2.3e-4 -4.58994,1.93529 -4.56766,4.92406 0.0216,2.89284 0.99155,4.45386 1.72328,6.22515 l 2.1581,-0.90225 c -0.49731,-1.01875 -1.1395,-2.03602 -1.36941,-2.54031 -0.64363,-1.41188 -0.87846,-2.04343 -0.82473,-3.11955 0.052,-1.04044 0.40756,-1.6746 1.04014,-2.28797 0.63259,-0.6133 1.49877,-0.92611 2.54372,-0.78154 1.79712,0.24909 2.60377,1.40224 2.87184,2.26394 -1.6362,0.30956 -2.25655,1.55134 -2.40755,2.73738 -0.93932,-0.16933 -1.46498,-0.79801 -1.53561,-1.78051 -0.0587,-0.81679 0.73161,-1.63779 2.01106,-1.22122 0.20592,0.0669 0.21302,-0.30427 -0.0197,-0.49174 -0.18724,-0.15082 -0.54812,-0.23661 -0.95547,-0.22528 -0.89617,0.0265 -2.01749,0.51987 -2.01192,1.82398 0.007,1.63348 1.22621,2.76796 2.48851,2.92675 0,0 -0.0121,-0.0707 -0.0128,-0.24077 0.002,0.0608 0.003,0.12246 0.007,0.18142 0.001,0.0189 0.004,0.0397 0.006,0.0593 0.15868,1.70393 2.29443,3.72819 4.71956,3.72778 2.0263,-1.2e-4 4.59025,-1.93507 4.56794,-4.92384 -0.0215,-2.89288 -0.99183,-4.45371 -1.72356,-6.22511 l -2.1581,0.90226 c 0.4973,1.01882 1.13951,2.03586 1.36941,2.54027 0.64363,1.41191 0.87849,2.04339 0.82473,3.11958 -0.052,1.04026 -0.40756,1.67453 -1.04014,2.28798 -0.63258,0.61329 -1.49849,0.92625 -2.54344,0.78153 -1.79712,-0.24871 -2.60401,-1.40246 -2.87213,-2.26424 1.63645,-0.30956 2.2554,-1.55172 2.4067,-2.73738 0.94,0.16895 1.4661,0.79793 1.53676,1.78077 0.0587,0.81676 -0.7319,1.63787 -2.01135,1.22123 -0.20591,-0.0669 -0.21302,0.30427 0.0197,0.49174 0.59923,0.48297 2.97553,0.29784 2.96739,-1.59912 -0.007,-1.63356 -1.22611,-2.76781 -2.48851,-2.92648 -0.15891,-1.70404 -2.29464,-3.72826 -4.71976,-3.72796 z m 3.64337,4.78618 c -0.11835,0.62777 -0.52342,1.4615 -1.42405,1.70726 0.11819,-0.62755 0.52452,-1.46098 1.42405,-1.70726 z m -1.46009,2.15209 c 0.001,0.0227 0.003,0.0423 0.005,0.0643 -0.001,-0.0151 -0.004,-0.0302 -0.005,-0.0416 -4.4e-4,-0.008 5e-5,-0.0151 -3e-4,-0.0227 z"
       id="path3611"
       inkscape:connector-curvature="0" />
  </g>
</svg>
