<svg xmlns="http://www.w3.org/2000/svg" width="16" height="16" version="1.2">
 <g transform="matrix(1.6696875,0,0,1.6696875,-5.2569117,-5.3574986)">
  <path fill="#4d4d4d" d="m 3.1484404,8.1041346 c 0.4364994,-0.2085308 0.8776899,-0.4322183 1.3225331,-0.6730132 0.4468494,-0.2447732 0.8719595,-0.4939266 1.2754307,-0.7478244 v 0 c 0,0 -0.2922777,-0.1891848 -2.3874579,-1.5301969 -0.06702,0.4695275 -0.1188768,0.9586299 -0.1551036,1.4665112 -0.033488,0.5047728 -0.05215,0.9994588 -0.055309,1.485941 z"/>
  <path fill="#4d4d4d" d="m 11.400391,8.8554688 c -0.401539,1.4985632 -1.7199731,2.5625552 -3.2695316,2.6386722 -1.5495583,0.07612 -2.9671973,-0.854646 -3.5136719,-2.306641 l -0.8398437,0.3164062 c 0.6826819,1.8139008 2.462656,2.9837608 4.3984374,2.8886718 1.9357818,-0.09509 3.5921288,-1.432611 4.0937498,-3.3046874 z"/>
  <path fill="#4d4d4d" d="m 7.7050781,3.6074219 c -1.9357814,0.095088 -3.5921286,1.4326118 -4.09375,3.3046875 l 0.8671875,0.2324218 c 0.4015389,-1.498563 1.719973,-2.5625552 3.2695313,-2.6386718 1.5495583,-0.076117 2.9671971,0.8546454 3.5136721,2.3066406 l 0.841797,-0.3164062 c -0.682682,-1.8139011 -2.4626564,-2.9837604 -4.3984379,-2.8886719 z"/>
  <path fill="#4d4d4d" d="m 12.731072,7.8958636 c -0.4365,0.2085309 -0.877691,0.4322184 -1.322534,0.6730133 -0.446849,0.2447732 -0.871959,0.4939265 -1.27543,0.7478243 v 0 c 0,0 0.292277,0.1891849 2.387457,1.5301968 0.06702,-0.469527 0.118877,-0.9586298 0.155104,-1.466511 0.03349,-0.5047728 0.05215,-0.9994588 0.05531,-1.485941 z"/>
 </g>
</svg>
