<svg xmlns="http://www.w3.org/2000/svg" xmlns:osb="http://www.openswatchbook.org/uri/2009/osb" width="16" height="16" version="1.1">
 <title id="title9167">
  Gnome Symbolic Icon Theme
 </title>
 <defs>
  <linearGradient id="linearGradient7212" osb:paint="solid">
   <stop id="stop7214" offset="0" style="stop-color:#000000"/>
  </linearGradient>
 </defs>
 <g id="layer9" transform="translate(-523.0002,105)">
  <path d="m 531.0002,-100 c -2.76142,0 -5,2.23858 -5,5 0,2.76142 2.23858,5 5,5 2.76142,0 5,-2.23858 5,-5 0,-2.76142 -2.23858,-5 -5,-5 z m 0,1 0.28516,3.04297 A 1,1 0 0 1 532.0002,-95 a 1,1 0 0 1 -0.54297,0.88867 l 0.0527,0.55274 c 0.0442,0.35355 -0.21646,0.62421 -0.50977,0.60351 -0.25733,-0.0182 -0.55067,-0.29415 -0.48438,-0.60351 l 0.0488,-0.54297 A 1,1 0 0 1 530.0002,-95 a 1,1 0 0 1 0.73047,-0.96289 L 531.0002,-99 Z" style="fill:#444444"/>
  <rect width="2" height="1" x="530" y="-102" style="fill:#444444"/>
  <path d="m 531.02734,-104.49805 c -0.686,0 -1.37137,0.23238 -1.92773,0.69922 -1.11273,0.93369 -1.3962,2.54088 -0.66992,3.79883 l 0.86523,-0.5 c -0.48695,-0.84343 -0.29879,-1.90523 0.44727,-2.53125 0.74605,-0.62602 1.82425,-0.62602 2.57031,0 0.74606,0.62602 0.93422,1.68782 0.44727,2.53125 l 0.86523,0.5 c 0.72628,-1.25795 0.4428,-2.86514 -0.66992,-3.79883 -0.55636,-0.46684 -1.24174,-0.69922 -1.92774,-0.69922 z" style="fill:#444444"/>
  <rect width="2" height="1" x="296.78" y="-456.22" transform="matrix(0.69053214,0.72330171,-0.72330171,0.69053214,0,0)" style="fill:#444444"/>
 </g>
</svg>
