<svg xmlns="http://www.w3.org/2000/svg" width="16" height="16" version="1.1">
 <g transform="translate(-472,-280)">
  <path d="m 475.99414,281 c -1.2582,0.0145 -2.17889,-0.0306 -2.93164,0.38477 -0.1894,0.10449 -0.35759,0.24583 -0.5,0.41601 H 472.5 v 0.0879 c -0.11056,0.14835 -0.20685,0.31154 -0.27539,0.49414 C 472.05994,282.82148 472,283.34239 472,284 v 8 c 0,0.65761 0.0599,1.17858 0.22461,1.61719 0.16468,0.43861 0.46153,0.78852 0.83789,0.99609 0.75272,0.41513 1.67354,0.37165 2.93164,0.38672 h 0.002 8.00586 0.004 c 1.25819,-0.0145 2.17889,0.0306 2.93164,-0.38477 0.37637,-0.20766 0.67322,-0.55938 0.83789,-0.99804 C 487.93992,293.17852 488,292.65761 488,292 v -8 c 0,-0.65761 -0.0599,-1.17858 -0.22461,-1.61719 -0.0685,-0.18245 -0.16493,-0.34429 -0.27539,-0.49219 v -0.0898 h -0.0625 c -0.1422,-0.16917 -0.31105,-0.30985 -0.5,-0.41406 -0.75272,-0.41513 -1.67355,-0.37165 -2.93164,-0.38672 h -0.002 -8.00586 z M 473,284 h 14 v 8 c 0,0.59239 -0.0626,1.00573 -0.16016,1.26562 -0.0976,0.25991 -0.20135,0.37147 -0.38476,0.47266 C 486.08912,293.9402 485.25852,293.98529 484,294 H 476.00586 476 c -1.25863,-0.0152 -2.0891,-0.0599 -2.45508,-0.26172 -0.18342,-0.10116 -0.28722,-0.21286 -0.38476,-0.47266 C 473.06261,293.00583 473,292.59239 473,292 Z" style="fill:#4d4d4d"/>
  <rect style="opacity:0.5;fill:#4d4d4d" width="9" height="1" x="477" y="285"/>
  <rect style="opacity:0.5;fill:#4d4d4d" width="9" height="1" x="477" y="287"/>
  <rect style="opacity:0.5;fill:#4d4d4d" width="9" height="1" x="477" y="289"/>
  <rect style="opacity:0.5;fill:#4d4d4d" width="5" height="1" x="477" y="291"/>
  <rect style="opacity:0.5;fill:#4d4d4d" width="1" height="10" x="475" y="284"/>
 </g>
</svg>
