<svg xmlns="http://www.w3.org/2000/svg" width="16" height="16" version="1.1">
 <g transform="translate(-363.0002,125)">
  <path d="m 368.5002,-122.98609 c -0.8225,0 -1.5,0.6775 -1.5,1.5 0,0.65115 0.41388,1.19996 1,1.40625 -0.003,0.0425 0,0.0818 0,0.125 l 0,0.96875 -2,0 0,-3 -1,0 0,1 -1,0 0,1 1,0 0,2 3,0 0,1 -3,0 0,2 -1,0 0,1 1,0 0,1 1,0 0,-3 2,0 0,1.96875 c 0,1.12944 0.90181,2.03125 2.03125,2.03125 l 0.9375,0 c 1.12944,0 2.03125,-0.90181 2.03125,-2.03125 l 0,-1.96875 2,0 0,3 1,0 0,-1 1,0 0,-1 -1,0 0,-2 -3,0 0.0312,-1 2.96875,0 0,-0.53125 0,-0.46875 0,-1 1,0 0,-1 -1,0 0,-1 -1,0 0,3 -1,0 -1,0 0,-0.96875 c 0,-0.0432 0.003,-0.0825 0,-0.125 0.58328,-0.20629 1,-0.7551 1,-1.40625 0,-0.8225 -0.6775,-1.5 -1.5,-1.5 -0.65115,0 -1.19997,0.41672 -1.40625,1 l -1.1875,0 c -0.20344,-0.58328 -0.7551,-1 -1.40625,-1 z m 0,1 c 0.28206,0 0.5,0.21794 0.5,0.5 0,0.28206 -0.21794,0.5 -0.5,0.5 -0.28206,0 -0.5,-0.21794 -0.5,-0.5 0,-0.28206 0.21794,-0.5 0.5,-0.5 z m 4,0 c 0.28206,0 0.5,0.21794 0.5,0.5 0,0.28206 -0.21794,0.5 -0.5,0.5 -0.28206,0 -0.5,-0.21794 -0.5,-0.5 0,-0.28206 0.21794,-0.5 0.5,-0.5 z m -2,3 c 0.27614,0 0.5,0.22386 0.5,0.5 0,0.27614 -0.22386,0.5 -0.5,0.5 -0.27614,0 -0.5,-0.22386 -0.5,-0.5 0,-0.27614 0.22386,-0.5 0.5,-0.5 z m 0,2 c 0.27614,0 0.5,0.22386 0.5,0.5 0,0.27614 -0.22386,0.5 -0.5,0.5 -0.27614,0 -0.5,-0.22386 -0.5,-0.5 0,-0.27614 0.22386,-0.5 0.5,-0.5 z m 0,2 c 0.27614,0 0.5,0.22386 0.5,0.5 0,0.27614 -0.22386,0.5 -0.5,0.5 -0.27614,0 -0.5,-0.22386 -0.5,-0.5 0,-0.27614 0.22386,-0.5 0.5,-0.5 z" style="fill:#4d4d4d"/>
 </g>
</svg>
