<svg xmlns="http://www.w3.org/2000/svg" width="16" height="16" version="1.1">
 <g transform="translate(-403.00022,104.99999)">
  <path d="m 410.0627,-102 c -3.31371,0 -6,1.567 -6,3.5 10e-4,0.0417 0.004,0.0834 0.008,0.125 l -0.008,0 c 0,3.49999 1.00001,7.25 6,7.25 2.89792,0 4.44558,-1.2633 5.24023,-3.00391 0.2509,0.11942 0.52764,0.19141 0.82227,0.19141 1.06413,0 1.9375,-0.87337 1.9375,-1.9375 0,-1.06412 -0.87337,-1.9375 -1.9375,-1.9375 -0.0294,0 -0.0569,0.007 -0.0859,0.008 0.006,-0.19038 0.0234,-0.38076 0.0234,-0.57031 l -0.01,0 c 0.005,-0.0416 0.008,-0.0833 0.01,-0.125 0,-1.933 -2.68629,-3.5 -6,-3.5 z m -0.0625,1.14062 c 2.50304,0 4.53196,1.0628 4.53125,2.375 -0.001,1.31152 -2.02949,2.37501 -4.53125,2.375 -2.50176,0 -4.53014,-1.06348 -4.53125,-2.375 -7.1e-4,-1.3122 2.02821,-2.37499 4.53125,-2.375 z m 6.125,4.04688 c 0.52369,0 0.9375,0.41382 0.9375,0.9375 0,0.52369 -0.41381,0.9375 -0.9375,0.9375 -0.17575,0 -0.32924,-0.0589 -0.46875,-0.14062 0.15808,-0.54445 0.25204,-1.11989 0.31445,-1.70313 0.0523,-0.009 0.0992,-0.0312 0.1543,-0.0312 z" style="fill:#4d4d4d"/>
 </g>
</svg>
