<?xml version="1.0" encoding="UTF-8" standalone="no"?>
<svg
   xmlns:dc="http://purl.org/dc/elements/1.1/"
   xmlns:cc="http://creativecommons.org/ns#"
   xmlns:rdf="http://www.w3.org/1999/02/22-rdf-syntax-ns#"
   xmlns:svg="http://www.w3.org/2000/svg"
   xmlns="http://www.w3.org/2000/svg"
   xmlns:sodipodi="http://sodipodi.sourceforge.net/DTD/sodipodi-0.dtd"
   xmlns:inkscape="http://www.inkscape.org/namespaces/inkscape"
   width="16"
   height="16"
   version="1.1"
   viewBox="0 0 16 16"
   id="svg9"
   sodipodi:docname="plugin-symbolic.svg"
   inkscape:version="0.92.3 (2405546, 2018-03-11)">
  <metadata
     id="metadata15">
    <rdf:RDF>
      <cc:Work
         rdf:about="">
        <dc:format>image/svg+xml</dc:format>
        <dc:type
           rdf:resource="http://purl.org/dc/dcmitype/StillImage" />
        <dc:title></dc:title>
      </cc:Work>
    </rdf:RDF>
  </metadata>
  <defs
     id="defs13" />
  <sodipodi:namedview
     pagecolor="#ffffff"
     bordercolor="#666666"
     borderopacity="1"
     objecttolerance="10"
     gridtolerance="10"
     guidetolerance="10"
     inkscape:pageopacity="0"
     inkscape:pageshadow="2"
     inkscape:window-width="1920"
     inkscape:window-height="1009"
     id="namedview11"
     showgrid="false"
     inkscape:zoom="14.75"
     inkscape:cx="8"
     inkscape:cy="8"
     inkscape:window-x="0"
     inkscape:window-y="34"
     inkscape:window-maximized="1"
     inkscape:current-layer="svg9" />
  <path
     inkscape:connector-curvature="0"
     d="m 11.694798,1.3394395 c -0.259461,-0.12494 -0.506198,-0.20024 -0.740059,-0.22576 -0.238151,-0.0242 -0.455233,-0.008 -0.651346,0.0481 -0.196115,0.0563 -0.3693194,0.14886 -0.5194664,0.27756 -0.150145,0.1287 -0.2696486,0.28562 -0.3586956,0.47053 -0.05631,0.11694 -0.09775,0.22597 -0.124367,0.32705 -0.02793,0.1038 -0.04633,0.19543 -0.05522,0.27491 -0.0102,0.0822 -0.01395,0.15084 -0.01104,0.20584 0.0029,0.055 0.0016,0.10374 0.0057,0.12581 l 0.02505,0.24656 c 0.01161,0.11384 -5.44e-4,0.20211 -0.03657,0.26431 -0.03384,0.064 -0.09861,0.10095 -0.194472,0.11073 -0.02197,0.002 -0.04611,0.002 -0.07249,0.001 -0.02638,-0.001 -0.05007,-0.004 -0.07065,-0.008 l -3.871248,-1.86417 -1.261523,2.61973 c -0.004,0.0206 -0.0067,0.0443 -0.008,0.0707 -0.0013,0.0264 -9.94e-4,0.0505 0.0012,0.0725 0.0098,0.0959 0.04675,0.16063 0.110735,0.19447 0.06219,0.036 0.150479,0.0482 0.264313,0.0366 l 0.246559,-0.025 c 0.02205,-0.004 0.07081,-0.003 0.125809,-0.006 0.05499,-0.003 0.123655,7.5e-4 0.20584,0.011 0.07947,0.009 0.171107,0.0273 0.274904,0.0552 0.101083,0.0266 0.210112,0.0681 0.327046,0.12437 0.184918,0.089 0.341835,0.20854 0.470532,0.35869 0.128698,0.15015 0.221251,0.32335 0.277561,0.51947 0.05631,0.19611 0.07199,0.41304 0.04776,0.6512 -0.02552,0.23386 -0.100514,0.48074 -0.225457,0.7402 -0.124941,0.25947 -0.267447,0.47544 -0.427648,0.64811 -0.161486,0.16839 -0.333665,0.29326 -0.516662,0.37414 -0.182994,0.0809 -0.373304,0.11787 -0.570936,0.11088 -0.197631,-0.007 -0.395775,-0.0585 -0.594291,-0.15406 -0.114216,-0.055 -0.216914,-0.11358 -0.307644,-0.17561 -0.09072,-0.062 -0.16739,-0.12114 -0.230761,-0.17736 -0.06337,-0.0562 -0.114876,-0.10677 -0.153777,-0.15121 -0.03746,-0.0474 -0.05185,-0.0781 -0.06371,-0.1022 l -0.134,-0.20869 c -0.06191,-0.0962 -0.126439,-0.15769 -0.193395,-0.18384 -0.0664,-0.0288 -0.140185,-0.0172 -0.221231,0.035 -0.01856,0.0119 -0.03766,0.0267 -0.05743,0.0442 -0.01978,0.0175 -0.03645,0.0341 -0.05007,0.05 L 0.5,10.97993 4.371248,12.84411 c 0.02059,0.004 0.04427,0.007 0.07065,0.008 0.02637,10e-4 0.05052,10e-4 0.07249,-10e-4 0.09586,-0.01 0.160632,-0.0467 0.194471,-0.11073 0.03603,-0.0622 0.04818,-0.15047 0.03657,-0.26431 l -0.02505,-0.24656 c -0.0041,-0.0221 -0.0028,-0.0708 -0.0057,-0.12581 -0.0029,-0.055 8.44e-4,-0.12365 0.01104,-0.20584 0.0089,-0.0795 0.02729,-0.1711 0.05522,-0.2749 0.02661,-0.10108 0.06806,-0.21011 0.124365,-0.32705 0.08905,-0.18492 0.20855,-0.34183 0.358697,-0.47053 0.150147,-0.1287 0.323352,-0.22125 0.519465,-0.27756 0.196116,-0.0563 0.413197,-0.0723 0.651349,-0.0481 0.233861,0.0255 0.480596,0.10082 0.740057,0.22576 0.259459,0.12494 0.475435,0.26744 0.648111,0.42765 0.168387,0.16148 0.293262,0.33366 0.374139,0.51666 0.08087,0.183 0.117869,0.3733 0.110876,0.57094 -0.007,0.19763 -0.05847,0.39577 -0.154066,0.59429 -0.055,0.11422 -0.113568,0.21691 -0.175619,0.30763 -0.06205,0.0907 -0.121139,0.16739 -0.177366,0.23076 -0.05624,0.0634 -0.106766,0.11488 -0.151211,0.15378 -0.04744,0.0374 -0.07812,0.0519 -0.102193,0.0637 l -0.208689,0.134 c -0.09624,0.0619 -0.157686,0.12644 -0.183838,0.19339 -0.02892,0.0664 -0.01714,0.14019 0.03499,0.22123 0.01195,0.0186 0.02673,0.0377 0.04423,0.0574 0.01749,0.0198 0.03412,0.0364 0.05004,0.0501 L 9.8862916,15.5 11.741939,11.64647 c 0.01362,-0.0159 0.03029,-0.0325 0.05007,-0.05 0.01977,-0.0175 0.03886,-0.0323 0.05744,-0.0442 0.08105,-0.0521 0.154879,-0.0639 0.22123,-0.035 0.06697,0.0261 0.131479,0.0876 0.193395,0.18384 l 0.134002,0.20869 c 0.01185,0.0241 0.02625,0.0548 0.06371,0.10219 0.03889,0.0445 0.0904,0.095 0.153775,0.15121 0.06337,0.0562 0.140044,0.11532 0.230763,0.17737 0.09072,0.062 0.193427,0.1206 0.307643,0.1756 0.198517,0.0956 0.396661,0.14707 0.594291,0.15407 0.197632,0.007 0.387943,-0.03 0.570936,-0.11088 0.182997,-0.0809 0.355178,-0.20575 0.516664,-0.37414 0.160198,-0.17267 0.302706,-0.38865 0.427647,-0.64811 0.124942,-0.25946 0.199938,-0.50634 0.225455,-0.74021 0.02423,-0.23815 0.0085,-0.45508 -0.04776,-0.6512 C 15.38489,9.9495897 15.292336,9.7763897 15.163638,9.6262397 15.034942,9.4760895 14.878023,9.3565895 14.693107,9.2675495 c -0.116934,-0.0563 -0.225971,-0.0977 -0.327047,-0.12437 -0.103801,-0.0279 -0.195434,-0.0463 -0.274905,-0.0552 -0.08219,-0.0102 -0.150842,-0.014 -0.20584,-0.011 -0.055,0.003 -0.103746,0.002 -0.125808,0.006 l -0.246558,0.025 c -0.113842,0.0116 -0.202118,-7.5e-4 -0.264314,-0.0366 -0.06394,-0.0339 -0.100954,-0.0986 -0.110734,-0.19447 -0.0022,-0.022 -0.0026,-0.0461 -0.0012,-0.0725 0.0014,-0.0264 0.0041,-0.0501 0.0081,-0.0707 l 1.261522,-2.61975 -2.602016,-1.25299 c -0.01593,-0.0136 -0.03254,-0.0303 -0.05004,-0.0501 -0.01749,-0.0198 -0.03228,-0.0389 -0.04424,-0.0574 -0.05213,-0.0811 -0.06392,-0.15488 -0.03499,-0.22123 0.02616,-0.0669 0.0876,-0.13149 0.183837,-0.19339 l 0.208689,-0.13401 c 0.02408,-0.0119 0.05476,-0.0262 0.102194,-0.0637 0.04444,-0.0389 0.09498,-0.0904 0.151211,-0.15377 0.05623,-0.0634 0.115311,-0.14004 0.177368,-0.23076 0.06205,-0.0907 0.120619,-0.19343 0.17562,-0.30764 0.09559,-0.19852 0.147068,-0.39666 0.154062,-0.59429 0.007,-0.19763 -0.03,-0.38794 -0.110875,-0.57093 -0.08088,-0.18301 -0.205754,-0.35518 -0.374139,-0.51667 -0.172676,-0.1602 -0.388651,-0.30271 -0.648109,-0.42765 z"
     style="display:inline;fill:#241f31;fill-opacity:1;stroke-width:0.35433084;enable-background:new"
     id="path35" />
</svg>
