<?xml version="1.0" encoding="UTF-8" standalone="no"?>
<svg
   xmlns:dc="http://purl.org/dc/elements/1.1/"
   xmlns:cc="http://creativecommons.org/ns#"
   xmlns:rdf="http://www.w3.org/1999/02/22-rdf-syntax-ns#"
   xmlns:svg="http://www.w3.org/2000/svg"
   xmlns="http://www.w3.org/2000/svg"
   xmlns:sodipodi="http://sodipodi.sourceforge.net/DTD/sodipodi-0.dtd"
   xmlns:inkscape="http://www.inkscape.org/namespaces/inkscape"
   width="16"
   height="16.004"
   version="1.1"
   id="svg10"
   sodipodi:docname="pomodoro-symbolic.svg"
   inkscape:version="0.92.3 (2405546, 2018-03-11)">
  <metadata
     id="metadata16">
    <rdf:RDF>
      <cc:Work
         rdf:about="">
        <dc:format>image/svg+xml</dc:format>
        <dc:type
           rdf:resource="http://purl.org/dc/dcmitype/StillImage" />
        <dc:title>
  Gnome Symbolic Icon Theme
 </dc:title>
      </cc:Work>
    </rdf:RDF>
  </metadata>
  <defs
     id="defs14" />
  <sodipodi:namedview
     pagecolor="#ffffff"
     bordercolor="#666666"
     borderopacity="1"
     objecttolerance="10"
     gridtolerance="10"
     guidetolerance="10"
     inkscape:pageopacity="0"
     inkscape:pageshadow="2"
     inkscape:window-width="1920"
     inkscape:window-height="1009"
     id="namedview12"
     showgrid="true"
     inkscape:zoom="52.174457"
     inkscape:cx="8"
     inkscape:cy="8.0019999"
     inkscape:window-x="0"
     inkscape:window-y="34"
     inkscape:window-maximized="1"
     inkscape:current-layer="layer11">
    <inkscape:grid
       type="xygrid"
       id="grid1452" />
  </sodipodi:namedview>
  <title
     id="title9167">
  Gnome Symbolic Icon Theme
 </title>
  <g
     id="layer11"
     transform="translate(-183,-529)">
    <path
       style="fill:#444444"
       d="m 190.54883,529.68955 a 1.5,1.5 0 0 0 -1.5,1.5 1.5,1.5 0 0 0 1.5,1.5 1.5,1.5 0 0 0 1.5,-1.5 1.5,1.5 0 0 0 -1.5,-1.5 z m 2.1875,0.84765 0.4707,2.29102 c 2.4965,1.20765 3.52796,4.18904 2.32031,6.68554 -1.20766,2.49652 -4.18903,3.52798 -6.68554,2.32032 -2.3646,-1.14384 -3.47879,-3.88316 -2.51368,-6.32617 l -1.70117,-1.05469 c 0,0 -0.19224,0.49574 -0.22656,0.5957 -1.14184,3.32535 0.39364,7.03099 3.58789,8.57617 3.46954,1.67834 7.65174,0.20976 9.33008,-3.25976 1.67834,-3.46953 0.22066,-7.67447 -3.25977,-9.33008 -0.94188,-0.44805 -1.32226,-0.49805 -1.32226,-0.49805 z M 186,532.004 c -0.34166,0.0243 -0.29819,0.44817 0.0488,1.36719 0.55523,1.47043 3,4.20287 4,5 1,0.79713 2.7457,-1.19276 2,-2 -0.7457,-0.80724 -3.6652,-3.3261 -5,-4 C 186.54828,532.11847 186.205,531.98941 186,532.004 Z"
       id="path5"
       inkscape:connector-curvature="0" />
  </g>
</svg>
