<svg xmlns="http://www.w3.org/2000/svg" width="16" height="16" version="1.1">
 <g transform="translate(-552,-280)">
  <path d="m 557.45703,284.93772 c -0.45368,-0.0195 -0.49707,0.49959 -0.61449,0.8174 -0.44219,1.36925 -0.84044,2.75215 -1.25758,4.12914 -0.87838,0.0362 -1.78031,-0.0269 -2.64429,0.0701 -0.0284,0.34778 -0.0547,0.73432 0.0144,1.07483 1.05064,0.0352 2.12063,0.0448 3.17627,-0.0103 0.43168,-0.0344 0.4162,-0.60063 0.57302,-0.89538 0.27628,-0.84787 0.50642,-1.71453 0.78697,-2.55787 0.55155,1.74072 0.96825,3.52586 1.57947,5.24622 0.19371,0.38087 0.90205,0.29911 0.97363,-0.1449 0.38644,-0.88667 0.68009,-1.80991 1.04931,-2.70349 0.2202,0.36415 0.33811,0.82716 0.68396,1.0885 1.72616,0 3.45232,0 5.17847,0 0.23311,-0.22612 0.0331,-0.69114 0.1,-1.00622 -0.15635,-0.29451 -0.67777,-0.0529 -0.97498,-0.13127 -1.23999,-7e-5 -2.47998,-1.4e-4 -3.71997,-2e-4 -0.37174,-0.62916 -0.58818,-1.37663 -1.09973,-1.91163 -0.36169,-0.24063 -0.78841,0.13871 -0.86426,0.50049 -0.28052,0.70059 -0.51842,1.41501 -0.80102,2.11438 -0.5787,-1.79007 -0.9964,-3.63262 -1.64234,-5.40051 -0.078,-0.19901 -0.29353,-0.29049 -0.49682,-0.2793 z" style="fill:#4d4d4d"/>
  <path d="m 555.99414,281 c -1.2582,0.0145 -2.17889,-0.0306 -2.93164,0.38477 -0.37637,0.20766 -0.67323,0.55938 -0.83789,0.99804 C 552.05994,282.82148 552,283.34239 552,284 v 8 c 0,0.65761 0.0599,1.17858 0.22461,1.61719 0.16468,0.43861 0.46153,0.78852 0.83789,0.99609 0.75272,0.41513 1.67354,0.37165 2.93164,0.38672 h 0.002 8.00586 0.004 c 1.25819,-0.0145 2.17889,0.0306 2.93164,-0.38477 0.37637,-0.20766 0.67322,-0.55938 0.83789,-0.99804 C 567.94006,293.17852 568,292.65761 568,292 v -8 c 0,-0.65761 -0.0599,-1.17858 -0.22461,-1.61719 -0.16468,-0.43861 -0.46153,-0.78852 -0.83789,-0.99609 -0.75272,-0.41513 -1.67355,-0.37165 -2.93164,-0.38672 h -0.002 -8.00586 z m 0.006,1 h 8 c 1.25862,0.0152 2.0891,0.0599 2.45508,0.26172 0.18342,0.10116 0.28722,0.21286 0.38476,0.47266 C 566.93739,282.99417 567,283.40761 567,284 v 8 c 0,0.59239 -0.0626,1.00572 -0.16016,1.26562 -0.0976,0.25991 -0.20135,0.37147 -0.38476,0.47266 C 566.08912,293.9402 565.25852,293.98529 564,294 H 556.00586 556 c -1.25863,-0.0152 -2.0891,-0.0599 -2.45508,-0.26172 -0.18342,-0.10116 -0.28722,-0.21286 -0.38476,-0.47266 C 553.06261,293.00583 553,292.59239 553,292 v -8 c 0,-0.59239 0.0626,-1.00572 0.16016,-1.26562 0.0976,-0.25991 0.20135,-0.37147 0.38476,-0.47266 C 553.91088,282.0598 554.74147,282.0147 556,282 Z" style="fill:#4d4d4d"/>
 </g>
</svg>
