<svg xmlns="http://www.w3.org/2000/svg" width="16" height="16" version="1.1" viewBox="0 0 4.23 4.23">
 <g transform="translate(0,-292.76665)">
  <path d="m 2.9288462,296.78236 c -0.2801739,-0.0359 -0.5503069,-0.13397 -0.8131498,-0.29524 -0.2016993,-0.12376 -0.2446635,-0.19296 -0.1197843,-0.19296 0.1632843,0 0.5934547,-0.18106 0.8125371,-0.342 l 0.2328367,-0.17105 0.3924995,0.0226 c 0.4344963,0.025 0.5267077,0.0716 0.6314132,0.31904 0.04281,0.10117 0.046507,0.17113 0.015181,0.28745 -0.097234,0.3611 -0.4210198,0.46574 -1.1515378,0.37218 z M 0.13229167,295.5661 c 0,-1.09641 0.007922,-1.24191 0.0803972,-1.47656 0.17698267,-0.573 0.58209136,-0.96295 1.16050193,-1.11709 0.2854523,-0.076 0.7935293,-0.0625 0.7932887,0.0211 -2.98e-5,0.014 -0.081996,0.0772 -0.1821284,0.14044 -0.5542212,0.35014 -1.00521006,1.2437 -0.8350449,1.65451 0.027954,0.0675 0.112261,0.17665 0.1873449,0.24257 0.3620169,0.31786 0.8962182,0.15039 1.0561414,-0.33109 0.1206748,-0.36332 0.3421658,-0.54909 0.736486,-0.61769 0.1992908,-0.0347 0.2267695,0.0322 0.2100064,0.51175 -0.0128,0.366 -0.029857,0.44915 -0.1359744,0.66262 -0.3649315,0.73417 -1.1581606,1.05509 -2.0030307,0.81039 -0.090177,-0.0262 -0.091542,-0.021 -0.091542,0.3444 v 0.37091 H 0.62051489 0.13229214 Z m 1.30578273,-0.6379 c -0.1970633,-0.16581 -0.2323951,-0.35221 -0.1264046,-0.66684 0.2911747,-0.86434 1.0071844,-1.34408 2.0060346,-1.34408 0.3976762,0 0.5270326,0.0326 0.6309891,0.15922 0.091797,0.11177 0.1709167,0.32192 0.1458193,0.38732 -0.033818,0.0881 -0.3182664,0.15589 -0.5187306,0.12358 -0.1630238,-0.0263 -0.1660401,-0.0248 -0.095679,0.0481 0.053429,0.0553 0.132147,0.0752 0.2974926,0.0752 H 4.002433 l -0.1252191,0.11189 c -0.1183457,0.10574 -0.1469653,0.1119 -0.5212606,0.11227 -0.331671,3.3e-4 -0.4299794,0.0162 -0.6048772,0.0976 -0.2283545,0.10632 -0.4438726,0.3684 -0.4891634,0.59486 -0.013989,0.0699 -0.084517,0.18979 -0.1567384,0.26637 -0.1158527,0.12284 -0.1555254,0.13923 -0.3369841,0.13923 -0.1615975,0 -0.2323405,-0.0224 -0.3301157,-0.10471 z m 2.1858042,-1.69561 c -0.00853,-0.0601 -0.040962,-0.0915 -0.094372,-0.0915 -0.053408,0 -0.085837,0.0314 -0.09437,0.0915 -0.010666,0.0751 0.0063,0.0915 0.09437,0.0915 0.088079,0 0.1050378,-0.0164 0.094372,-0.0915 z" style="fill:#4d4d4d"/>
 </g>
</svg>
