<?xml version="1.0" encoding="UTF-8" standalone="no"?>
<!-- Created with Inkscape (http://www.inkscape.org/) -->

<svg
   xmlns:dc="http://purl.org/dc/elements/1.1/"
   xmlns:cc="http://creativecommons.org/ns#"
   xmlns:rdf="http://www.w3.org/1999/02/22-rdf-syntax-ns#"
   xmlns:svg="http://www.w3.org/2000/svg"
   xmlns="http://www.w3.org/2000/svg"
   xmlns:sodipodi="http://sodipodi.sourceforge.net/DTD/sodipodi-0.dtd"
   xmlns:inkscape="http://www.inkscape.org/namespaces/inkscape"
   id="svg7384"
   width="16"
   height="16"
   version="1.1"
   sodipodi:docname="rhythmbox-symbolic.svg"
   inkscape:version="0.92.3 (2405546, 2018-03-11)">
  <defs
     id="defs14" />
  <sodipodi:namedview
     pagecolor="#ffffff"
     bordercolor="#666666"
     borderopacity="1"
     objecttolerance="10"
     gridtolerance="10"
     guidetolerance="10"
     inkscape:pageopacity="0"
     inkscape:pageshadow="2"
     inkscape:window-width="1039"
     inkscape:window-height="884"
     id="namedview12"
     showgrid="false"
     inkscape:zoom="14.75"
     inkscape:cx="8"
     inkscape:cy="8"
     inkscape:window-x="0"
     inkscape:window-y="34"
     inkscape:window-maximized="0"
     inkscape:current-layer="svg7384" />
  <metadata
     id="metadata14">
    <rdf:RDF>
      <cc:Work
         rdf:about="">
        <dc:format>image/svg+xml</dc:format>
        <dc:type
           rdf:resource="http://purl.org/dc/dcmitype/StillImage" />
      </cc:Work>
    </rdf:RDF>
  </metadata>
  <title
     id="title9167">Moblin Icon Theme</title>
  <g
     id="g3919"
     style="fill:#241f31;fill-opacity:1">
    <g
       id="g3890"
       style="fill:#241f31;fill-opacity:1">
      <path
         id="rect2824"
         d="m4 0c-1.6447 0-3 1.3553-3 3v10c0 1.6447 1.3553 3 3 3h7c1.6447 0 3-1.3553 3-3v-10c0-1.6447-1.3553-3-3-3h-7zm0 2h7c0.5713 0 1 0.4287 1 1v10c0 0.5713-0.4287 1-1 1h-7c-0.5713 0-1-0.4287-1-1v-10c0-0.5713 0.4287-1 1-1z"
         style="block-progression:tb;color:#000000;fill:#241f31;text-indent:0;text-transform:none;fill-opacity:1" />
      <path
         id="path3809"
         d="m7.5 2.9905c-1.9271 0-3.5 1.5729-3.5 3.5s1.5729 3.5 3.5 3.5 3.5-1.5729 3.5-3.5-1.5729-3.5-3.5-3.5zm0 1c1.3866 0 2.5 1.1134 2.5 2.5s-1.1134 2.5-2.5 2.5-2.5-1.1134-2.5-2.5 1.1134-2.5 2.5-2.5z"
         style="block-progression:tb;color:#000000;fill:#241f31;text-indent:0;text-transform:none;fill-opacity:1" />
      <path
         id="path2826-1-5-0-1-0-6"
         transform="matrix(.5 0 0 .5 3.5 3.0002)"
         d="m11 7.0005c0 1.6569-1.3431 3-3 3s-3-1.3431-3-3c0-1.6569 1.3431-3 3-3s3 1.3431 3 3z"
         style="color:#000000;fill:#241f31;fill-opacity:1" />
      <path
         id="path2826-1-5-0-1-0-6-5"
         transform="matrix(.5 0 0 .5 5.5 8.0002)"
         d="m11 7.0005c0 1.6569-1.3431 3-3 3s-3-1.3431-3-3c0-1.6569 1.3431-3 3-3s3 1.3431 3 3z"
         style="color:#000000;fill:#241f31;fill-opacity:1" />
      <path
         id="rect3877"
         d="m4 11h2v2h-2v-2z"
         style="color:#000000;fill:#241f31;opacity:0.25;fill-opacity:1" />
    </g>
  </g>
</svg>
