<?xml version="1.0" encoding="UTF-8" standalone="no"?>
<svg
   xmlns:dc="http://purl.org/dc/elements/1.1/"
   xmlns:cc="http://creativecommons.org/ns#"
   xmlns:rdf="http://www.w3.org/1999/02/22-rdf-syntax-ns#"
   xmlns:svg="http://www.w3.org/2000/svg"
   xmlns="http://www.w3.org/2000/svg"
   xmlns:sodipodi="http://sodipodi.sourceforge.net/DTD/sodipodi-0.dtd"
   xmlns:inkscape="http://www.inkscape.org/namespaces/inkscape"
   width="16"
   height="16"
   version="1.1"
   id="svg8"
   sodipodi:docname="telecamera-symbolic.svg"
   inkscape:version="0.92.3 (2405546, 2018-03-11)">
  <metadata
     id="metadata14">
    <rdf:RDF>
      <cc:Work
         rdf:about="">
        <dc:format>image/svg+xml</dc:format>
        <dc:type
           rdf:resource="http://purl.org/dc/dcmitype/StillImage" />
        <dc:title></dc:title>
      </cc:Work>
    </rdf:RDF>
  </metadata>
  <defs
     id="defs12" />
  <sodipodi:namedview
     pagecolor="#ffffff"
     bordercolor="#666666"
     borderopacity="1"
     objecttolerance="10"
     gridtolerance="10"
     guidetolerance="10"
     inkscape:pageopacity="0"
     inkscape:pageshadow="2"
     inkscape:window-width="1920"
     inkscape:window-height="1009"
     id="namedview10"
     showgrid="false"
     inkscape:zoom="14.75"
     inkscape:cx="8"
     inkscape:cy="8"
     inkscape:window-x="0"
     inkscape:window-y="34"
     inkscape:window-maximized="1"
     inkscape:current-layer="svg8" />
  <g
     id="layer10"
     transform="translate(-180.49865,-467)"
     style="fill:#444444;fill-opacity:1">
    <path
       inkscape:connector-curvature="0"
       id="rect3057"
       d="m 192.5,468 c 1.933,0 3.5,1.567 3.5,3.5 0,1.1194 -0.526,2.1093 -1.3438,2.75 0.20995,0.18305 0.34375,0.4483 0.34375,0.75 -0.002,2 0,3.0521 0,6 0,0.554 -0.446,1 -1,1 h -9 c -0.554,0 -1,-0.446 -1,-1 v -2.1562 l -2.5625,1.9062 c -0.0194,0.013 -0.0404,0.0236 -0.0625,0.0312 -0.0309,0.005 -0.0628,0.005 -0.0937,0 -0.0207,0.002 -0.0418,0.002 -0.0625,0 -0.0221,-0.008 -0.0431,-0.0182 -0.0625,-0.0312 -0.0221,-0.008 -0.0431,-0.0181 -0.0625,-0.0312 -0.0112,-0.01 -0.0217,-0.02 -0.0312,-0.0312 -0.0112,-0.01 -0.0217,-0.02 -0.0312,-0.0312 -0.0131,-0.0194 -0.0236,-0.0404 -0.0312,-0.0625 -0.002,-0.0207 -0.002,-0.0418 0,-0.0625 v -6.0625 c -0.002,-0.0207 -0.002,-0.0418 0,-0.0625 0.008,-0.0221 0.0181,-0.0431 0.0312,-0.0625 0.01,-0.0112 0.02,-0.0217 0.0312,-0.0312 0.01,-0.0112 0.02,-0.0217 0.0312,-0.0312 0.01,-0.0112 0.02,-0.0217 0.0312,-0.0312 0.01,-0.0112 0.02,-0.0217 0.0312,-0.0312 0.0194,-0.013 0.0404,-0.0236 0.0625,-0.0312 0.0309,-0.005 0.0628,-0.005 0.0937,0 0.0104,-6e-4 0.0208,-6e-4 0.0312,0 0.0112,0.01 0.0217,0.02 0.0312,0.0312 0.0221,0.008 0.0431,0.0181 0.0625,0.0312 l 2.5625,1.9062 v -1.1562 c 0,-0.3017 0.1338,-0.56695 0.34375,-0.75 -0.81775,-0.64068 -1.3438,-1.6306 -1.3438,-2.75 0,-1.933 1.567,-3.5 3.5,-3.5 1.2836,0 2.3908,0.68846 3,1.7188 0.60915,-1.0303 1.7164,-1.7188 3,-1.7188 z m 0,2 c -0.82843,0 -1.5,0.67157 -1.5,1.5 0,0.82843 0.67157,1.5 1.5,1.5 0.82843,0 1.5,-0.67157 1.5,-1.5 0,-0.82843 -0.67157,-1.5 -1.5,-1.5 z m -6,0 c -0.82843,0 -1.5,0.67157 -1.5,1.5 0,0.82843 0.67157,1.5 1.5,1.5 0.82843,0 1.5,-0.67157 1.5,-1.5 0,-0.82843 -0.67157,-1.5 -1.5,-1.5 z m 3,3.2812 c -0.15809,0.26739 -0.34144,0.50321 -0.5625,0.71875 h 1.125 c -0.22106,-0.21554 -0.40441,-0.45136 -0.5625,-0.71875 z"
       style="color:#000000;fill:#444444;fill-opacity:1" />
  </g>
</svg>
