<svg xmlns="http://www.w3.org/2000/svg" width="16" height="16" version="1.1">
 <g fill="#4d4d4d" transform="translate(-612,-300)">
  <path opacity="1.0" d="m 623.37684,305.745 c -1.35128,10e-4 -2.48258,0.83016 -3.05952,1.98881 l 0.0574,-0.005 c -0.0254,10e-4 -0.046,0.017 -0.0713,0.0195 -0.0131,0.0267 -0.0437,0.0395 -0.0562,0.0666 l 0.0276,-0.0586 C 618.99587,307.90495 618,309.01268 618,310.35747 618,311.8009 619.13731,313 620.5517,313 h 2.82629 2.63557 c 1.1023,0 1.98644,-0.93454 1.98644,-2.05197 0,-0.807 -0.48139,-1.47572 -1.15234,-1.80727 l 0.005,0.0562 v 0.008 c -10e-4,-0.026 -0.0155,-0.0476 -0.0172,-0.0735 -0.0297,-0.0144 -0.0441,-0.0491 -0.0747,-0.062 l 0.0666,0.0288 c -0.1397,-1.85485 -1.6074,-3.35006 -3.44784,-3.35142 h 0.0208 l -0.0126,-0.001 z m 0.43658,0.67902 c 1.33964,0.22126 2.38587,1.35251 2.45174,2.80682 v 0.004 l 0.0184,0.27 0.24586,0.10575 c 0.51734,0.21976 0.88235,0.72578 0.88235,1.33851 0,0.3791 -0.15809,0.70995 -0.38373,0.96968 0.22613,-0.26041 0.38328,-0.59361 0.38028,-0.97198 -10e-4,-0.60902 -0.36814,-1.11829 -0.8812,-1.33621 l -0.24702,-0.1045 -0.0172,-0.2654 v -0.002 l -10e-4,-0.007 c -0.0657,-1.45143 -1.1096,-2.5846 -2.4483,-2.80683 z m -0.43658,0.49863 h 0.006 c 1.22857,0.004 2.23221,1.01288 2.29206,2.33464 v 0.002 l 0.0425,0.64683 0.58019,0.24474 c 0.31089,0.13203 0.5239,0.41749 0.5239,0.79735 v 10e-4 0.001 c 0.005,0.50338 -0.37074,0.87319 -0.80652,0.87319 h -2.63443 -2.82742 c -0.74896,0 -1.37524,-0.63339 -1.37524,-1.46603 0,-0.79397 0.58098,-1.40462 1.28216,-1.45569 l 0.59744,-0.0425 0.25965,-0.55379 c 0.38669,-0.83436 1.15315,-1.38248 2.05997,-1.3833 z m -2.62408,1.20179 -0.0816,0.17348 h -10e-4 z m -1.63029,0.83297 c -0.33002,0.36564 -0.53308,0.85811 -0.53308,1.40053 0,0.28336 0.0544,0.5528 0.15395,0.79851 -0.0993,-0.24559 -0.15511,-0.51477 -0.15511,-0.79851 0,-0.54346 0.20409,-1.03533 0.53424,-1.40053 z m 0.0425,2.85279 c 0.17782,0.18594 0.38907,0.33599 0.62385,0.44003 -0.23507,-0.10387 -0.4459,-0.25396 -0.62385,-0.44003 z m 7.83778,0.17119 c -0.19853,0.20815 -0.48666,0.28428 -0.77436,0.33778 0.28779,-0.0535 0.57582,-0.12956 0.77436,-0.33778 z"/>
  <path opacity="0.5" d="M 618.16992,301.16992 617.11328,303 H 615 v 2.11328 l -1.83008,1.05664 1.05664,1.83008 -1.05664,1.83008 L 615,310.88672 V 313 h 2.11328 l 1.05664,1.83008 1.83008,-1.05664 1.83008,1.05664 L 622.88672,313 H 625 v -1.10547 c -1.08983,0.0533 -2.20382,0.009 -3.30273,0.0137 -0.66748,-0.0692 -1.44659,0.15399 -2.00782,-0.32031 -0.93521,-0.66735 -0.70557,-2.38695 0.44532,-2.67578 0.29232,-0.13809 0.72876,-0.0141 0.92187,-0.25781 0.36394,-0.88479 1.1187,-1.78699 2.15625,-1.77539 0.24345,0 0.49135,-0.0101 0.73047,0.0449 1.19011,0.29385 1.87744,1.55009 1.83594,2.71875 -0.1212,0.36553 0.43525,0.22304 0.46875,0.50976 -0.009,0.0129 -0.0233,0.0209 -0.0332,0.0332 l 0.61524,-0.35547 L 625.77344,308 626.83008,306.16992 625,305.11328 V 303 h -2.11328 L 621.83008,301.16992 620,302.22656 Z"/>
 </g>
</svg>
