<svg xmlns="http://www.w3.org/2000/svg" width="16" height="16" version="1.1" viewBox="0 0 4.23 4.23">
 <g transform="translate(0,-292.76666)">
  <path style="fill:#4d4d4d" d="m 0.43392568,292.76665 -0.168726,0.19452 c -0.0086,0.29548 0.07399,0.558 0.173188,0.81471 0.172479,0.42775 0.63856302,0.58661 0.91978502,0.84967 0.17842,0.17095 0.226483,0.32169 0.252012,0.47228 0.02957,0.17445 0.04739,0.36356 0.06595,0.65465 0.06206,0.3788 0.09587,0.996 0.142366,1.2018 0.0426,0.0477 0.3087829,0.0457 0.3087829,0.0457 0,0 0.266185,0.002 0.308784,-0.0457 0.0465,-0.2058 0.0803,-0.823 0.142365,-1.2018 0.01856,-0.29109 0.03638,-0.4802 0.06595,-0.65465 0.02553,-0.15059 0.07359,-0.30133 0.252011,-0.47228 0.281222,-0.26306 0.747307,-0.42192 0.9197849,-0.84967 0.0992,-0.25671 0.1818021,-0.51923 0.1731881,-0.81471 l -0.1687259,-0.19452 v 0.19406 l -0.7612142,0.48997 -0.9321449,-0.0134 -0.9321449,0.0134 -0.76121402,-0.48997 z m 0.70757102,0.99969 0.647106,0.3736 a 0.3765868,0.3765868 0 0 1 -0.300731,0.15073 0.3765868,0.3765868 0 0 1 -0.376582,-0.37658 0.3765868,0.3765868 0 0 1 0.03021,-0.14775 z m 1.971577,0 a 0.3765868,0.3765868 0 0 1 0.03021,0.14775 0.3765868,0.3765868 0 0 1 -0.376581,0.37658 0.3765868,0.3765868 0 0 1 -0.300732,-0.15073 z m -1.341395,1.54289 c 1.59e-4,6e-5 3.043e-4,1.4e-4 4.63e-4,2e-4 0.04612,0.0177 0.08974,0.0391 0.1328781,0.0586 0.0121,0.005 0.02413,0.0107 0.03621,0.0157 -0.012061,-0.005 -0.024121,-0.0102 -0.036211,-0.0157 -0.04315,-0.0195 -0.08676,-0.041 -0.132878,-0.0586 0.01375,0.15833 0.053,0.34646 0.185803,0.45048 v -0.28375 h 0.1693409 0.169341 v 0.28375 c 0.132509,-0.10379 0.17261,-0.29124 0.185906,-0.44935 l -0.11939,1.20734 0.01554,-0.1578 c -0.03668,-0.0588 -0.03067,-0.11182 -0.08206,-0.15206 v 0.28401 H 2.1272806 1.9579397 v -0.28406 c -0.05146,0.0403 -0.0456,0.0933 -0.08231,0.15226 z m 0.26391,0.10564 c 0.0047,10e-4 0.0094,0.002 0.01415,0.003 -0.0047,-8.5e-4 -0.0095,-0.002 -0.01415,-0.003 z m 0.3253479,1.12472 c -0.0019,0.0191 -0.0037,0.0346 -0.0059,0.0472 0.0022,-0.0127 0.004,-0.0281 0.0059,-0.0472 z m -0.4557639,0.0725 c 0.01,0.0267 0.02981,0.0334 0.08021,0.0387 0.01712,0.003 0.03175,0.004 0.04698,0.006 h 0.09493 0.07477 c 0.0205,-0.002 0.04143,-0.004 0.06488,-0.008 -0.05165,0.008 -0.09179,0.0114 -0.139648,0.01 v 0.003 c -0.04858,10e-4 -0.0891,-0.002 -0.141904,-0.0104 -0.0505,-0.005 -0.07023,-0.012 -0.08021,-0.0388 z"/>
 </g>
</svg>
