<svg xmlns="http://www.w3.org/2000/svg" width="16" height="16" version="1.1" viewBox="0 0 4.23 4.23">
 <g transform="translate(0,-292.76666)">
  <path style="fill:#4d4d4d;fill-rule:evenodd" d="m 3.7901923,293.77822 a 0.19362849,0.2967641 0 0 0 -0.1453999,0.10132 c -0.0059,-8.2e-4 -0.01171,-0.002 -0.017769,-0.002 -0.006,-1.5e-4 -0.011999,-4e-5 -0.018161,4.5e-4 -0.149906,0.0836 -0.198905,0.19774 -0.2413071,0.37856 -0.07904,0.33709 -0.3911489,0.29108 -0.3911489,0.29108 -0.0071,0.003 -0.013851,0.006 -0.020619,0.009 0.03867,-0.063 0.09309,-0.0399 0.118042,-0.0512 -0.011811,-0.0213 -0.03681,-0.11092 -0.1091959,-0.12096 -0.05174,-0.007 -0.09099,0.0127 -0.1274731,0.0492 -6.879e-4,-0.002 -0.00119,-0.005 -0.00201,-0.007 -0.6423247,-0.86426 -1.8855738,-0.44438 -2.1601758,0.40697 -0.02752,-0.0218 -0.08299,-0.0296 -0.119641,-0.0465 C 0.3593404,294.69674 0.1770076,294.68242 0,294.59229 c 0.00666,0.11663 0.078177,0.18308 0.1753682,0.24356 0.091384,0.0569 0.1582862,0.106 0.2533102,0.18024 0.01214,0.009 0.02541,0.0215 0.03878,0.0341 0.005,0.0176 0.0166,0.0308 0.0343,0.0341 2.11e-4,4e-5 5.662e-4,1.5e-4 7.779e-4,1.5e-4 0.01605,0.0162 0.03218,0.0328 0.04306,0.0437 0.0075,-0.006 0.02276,-0.0173 0.03519,-0.0265 0.0057,0.001 0.01062,0.002 0.01656,0.004 -0.100143,0.0738 -0.199494,0.18513 -0.233123,0.27662 -0.04019,0.10934 -0.065052,0.33317 0.01574,0.40599 0.115472,0.10407 0.219513,0.13298 0.308259,0.13628 0.03037,0.005 0.05814,0.007 0.06983,-0.002 0.02485,-0.002 0.04754,-0.005 0.06906,-0.009 0.0221,0.003 0.04351,0.003 0.06044,-0.007 8.175e-4,-5e-5 0.0017,-1.5e-4 0.0025,-2.2e-4 0.01481,-7.7e-4 0.02713,-0.009 0.03753,-0.0228 0.04262,-7e-5 0.09258,-0.0108 0.1067799,-0.0276 0.019,-0.0224 0.0031,-0.0795 -0.01025,-0.15121 -0.0045,-0.0242 -0.02191,-0.0667 -0.04217,-0.0934 l 0.01329,-0.30799 c 0.0057,0.006 0.01149,0.0112 0.0168,0.0171 0.03006,0.0335 0.149624,0.0944 0.275172,0.14244 -0.0019,0.005 -0.01374,0.0391 -0.02358,0.0765 -0.01864,0.0585 -0.02508,0.10801 0.0029,0.12934 0.05261,0.0401 0.139095,0.0583 0.235345,0.0755 0.0088,0.10875 0.09802,0.18384 0.135267,0.20237 0.03801,0.0189 0.14006,0.046 0.282771,0.0648 0.02373,0.044 0.2999121,0.0507 0.3000751,0.004 2e-6,-6.1e-4 -7.5e-5,-10e-4 -7.5e-5,-0.002 0.0711,0.007 0.126487,-0.0118 0.123381,-0.0314 -5.874e-4,-0.004 -0.0015,-0.008 -0.0021,-0.0114 0.04489,-10e-4 0.101528,-0.0241 0.102025,-0.0541 0.0026,-0.15644 -0.03482,-0.24055 -0.07011,-0.27264 4.683e-4,-0.0182 7.594e-4,-0.0369 6.641e-4,-0.0567 -1.35e-4,-0.0283 -0.0014,-0.0522 -0.0034,-0.0732 0.0585,0.006 0.120607,-0.002 0.183864,-0.0288 -0.0043,0.0157 -0.0049,0.0367 -0.0086,0.0628 -0.02762,0.0907 -0.03136,0.19867 0.06481,0.25257 0.03928,0.022 0.112673,0.0291 0.199881,0.027 0.0064,0.007 0.014269,0.0107 0.02408,0.0111 0.04492,0.002 0.1270989,0.008 0.146141,-0.014 0.00241,-0.003 0.0044,-0.007 0.006,-0.0112 0.021299,-0.003 0.04053,-0.007 0.05698,-0.0114 0.03325,-1.5e-4 0.06464,-0.003 0.07549,-0.016 0.0054,-0.006 0.0086,-0.0184 0.0099,-0.0332 0.0044,-0.005 0.008,-0.0111 0.01111,-0.017 0.022601,-0.002 0.04171,-0.006 0.04965,-0.0153 0.019,-0.0224 0.012891,-0.10755 -0.01995,-0.17798 -0.014901,-0.0319 -0.031801,-0.0857 -0.059621,-0.0924 -0.02281,-0.0491 -0.05328,-0.098 -0.08262,-0.1431 -0.0052,-0.0153 -0.01662,-0.0306 -0.02884,-0.0444 -0.0158,-0.024 -0.03013,-0.0464 -0.03893,-0.0623 0.02093,-0.0346 0.04032,-0.0681 0.05803,-0.0989 0.1620772,-0.041 0.3374451,-0.10009 0.4541639,-0.22474 0.02136,-0.0213 0.04091,-0.0446 0.05834,-0.0701 0.1954731,0.0417 0.307752,0.0198 0.3609459,-0.0361 0.02735,-0.0221 0.04308,-0.0511 0.04887,-0.0847 -0.03117,-0.003 -0.110044,0.002 -0.184838,-0.0207 0.136197,0.0253 0.346506,-0.0283 0.3808989,-0.0414 0.0156,-0.013 0.0366,-0.0278 0.0539,-0.0455 0.02222,-0.0199 0.04198,-0.0437 0.0433,-0.0731 0.00201,-0.0452 -0.05038,-0.11833 -0.1142619,-0.16707 -0.011591,-0.009 -0.022709,-0.0183 -0.03355,-0.0281 a 0.18095593,0.26864149 0 0 0 0.1245122,-0.25503 0.18095593,0.26864149 0 0 0 -0.1809801,-0.26862 0.18095593,0.26864149 0 0 0 -0.1148079,0.0612 0.19362849,0.2967641 0 0 0 -0.123966,-0.0692 z m 0.2832391,0.18008 a 0.02922851,0.1022998 0 0 1 0.02923,0.1023 0.02922851,0.1022998 0 0 1 -0.02923,0.1023 0.02922851,0.1022998 0 0 1 -0.02923,-0.1023 0.02922851,0.1022998 0 0 1 0.02923,-0.1023 z m -0.2388129,0.002 a 0.03099259,0.10047096 0 0 1 0.019881,0.0235 0.18095593,0.26864149 0 0 0 -0.0062,0.059 c -8.466e-4,-10e-4 -0.0018,-0.002 -0.00259,-0.004 a 0.03099259,0.10047096 0 0 1 0.00159,0.0317 0.03099259,0.10047096 0 0 1 -0.02377,0.0976 0.03672169,0.09970393 0 0 1 -0.03258,-0.099 0.03672169,0.09970393 0 0 1 0.02907,-0.0974 0.03099259,0.10047096 0 0 1 0.014539,-0.0118 z m -0.1609489,0.58 c -0.0054,0.0159 -0.012189,0.0402 -0.017579,0.0676 -0.005,-0.005 -0.0099,-0.0102 -0.014499,-0.0159 -0.0082,0.002 -0.01366,0.003 -0.01882,0.004 0.0083,-0.006 0.015571,-0.0134 0.022209,-0.0212 0.01084,-0.0101 0.019899,-0.0217 0.02868,-0.0346 z"/>
 </g>
</svg>
