<svg xmlns="http://www.w3.org/2000/svg" width="16" height="16" version="1.1">
 <title id="title9167">
  Gnome Symbolic Icon Theme
 </title>
 <g id="layer11" transform="translate(-142,-490)">
  <path d="M 144.1875,490 C 142.98238,490 142,491.01794 142,492.21875 l 0,10.5625 c 0,1.20081 0.98238,2.21875 2.1875,2.21875 l 11.625,0 c 1.20512,0 2.1875,-1.01794 2.1875,-2.21875 l 0,-10.5625 C 158,491.01794 157.01762,490 155.8125,490 l -11.625,0 z m 0,2 11.625,0 c 0.12026,0 0.1875,0.08 0.1875,0.21875 l 0,10.5625 C 156,502.91996 155.93276,503 155.8125,503 l -11.625,0 c -0.12026,0 -0.1875,-0.08 -0.1875,-0.21875 l 0,-10.5625 C 144,492.08004 144.06724,492 144.1875,492 z" style="fill:#241f31"/>
  <path d="m 151.3125,493.96875 a 0.50005,0.50005 0 0 0 -0.34375,0.34375 l -1.6875,6.09375 -0.875,-1.1875 A 0.50005,0.50005 0 0 0 148,499 l -2.5,0 -0.5,0 0,1 0.5,0 2.25,0 1.3125,1.78125 a 0.50005,0.50005 0 0 0 0.875,-0.15625 l 1.53125,-5.4375 1.0625,3.46875 A 0.50005,0.50005 0 0 0 153,500 l 1.5,0 0.5,0 0,-1 -0.5,0 -1.125,0 -1.4375,-4.6875 a 0.50005,0.50005 0 0 0 -0.625,-0.34375 z" style="fill:#241f31"/>
 </g>
</svg>
