<svg width="16" height="16" version="1.1" xmlns="http://www.w3.org/2000/svg">
 <g transform="translate(-652,-320)">
  <path d="m655.99414 321c-1.2582 0.0145-2.17889-0.0306-2.93164 0.38477-0.37637 0.20766-0.67323 0.55938-0.83789 0.99804-0.16467 0.43867-0.22461 0.95958-0.22461 1.61719v8c0 0.65761 0.0599 1.17853 0.22461 1.61719 0.16467 0.43866 0.46152 0.79039 0.83789 0.99804 0.75275 0.41532 1.67345 0.3702 2.93164 0.38477h1.50204c-1.01789-0.73838-1.79833-1.78288-2.19726-3h-2.29892v-8c0-0.59239 0.0626-1.00573 0.16016-1.26562 0.0976-0.25991 0.20135-0.37147 0.38476-0.47266 0.36596-0.20191 1.19655-0.24701 2.45508-0.26172h8c1.25852 0.0147 2.08717 0.0598 2.45312 0.26172 0.18341 0.1012 0.28916 0.21274 0.38672 0.47266 0.0974 0.25991 0.16016 0.67323 0.16016 1.26562v8h-0.36914c-0.14913 0.38855-0.32639 0.76487-0.53711 1.11914l1.21289 1.21289c0.19979-0.19452 0.36339-0.43417 0.46875-0.71484 0.16449-0.43867 0.22461-0.95958 0.22461-1.61719v-8c0-0.65761-0.0599-1.17852-0.22461-1.61719-0.16466-0.43866-0.46152-0.79038-0.83789-0.99804-0.75275-0.41534-1.67344-0.37025-2.93164-0.38477h-8.0079zm2.70117 11c0.53904 0.67207 1.35951 1.10547 2.30469 1.10547 0.94566 0 1.76622-0.43284 2.30469-1.10547h-4.34571z" style="fill:#4d4d4d"/>
  <path d="m658 322-5 10h2.29883c-0.19158-0.58458-0.29883-1.20729-0.29883-1.85352 0-2.39867 1.43244-4.47566 3.48047-5.43359 0.36686-0.4328 0.90772-0.71289 1.51953-0.71289 0.27709 0 0.54132 0.0563 0.78125 0.1582 0.0732-3e-3 0.14498-0.0117 0.21875-0.0117 1.25777 0 2.42701 0.39544 3.39453 1.06446l1.60547-3.21096zm3.55859 5.24023c-0.36643 0.45999-0.92478 0.75977-1.55859 0.75977-0.29515 0-0.57398-0.0669-0.82617-0.18164-0.68926 0.53834-1.13477 1.36981-1.13477 2.32812 0 0.71075 0.25091 1.34792 0.65625 1.85352h2.30469l2.01367-4.02734c-0.39717-0.3679-0.89454-0.6283-1.45508-0.73243z" style="fill:#4d4d4d;opacity:.5"/>
  <path d="m661 325c-2.75526 0-5 2.24474-5 5s2.24474 5 5 5 5-2.24474 5-5-2.24474-5-5-5zm0 1.03906c2.19321 0 3.96094 1.76773 3.96094 3.96094s-1.76773 3.96094-3.96094 3.96094-3.96094-1.76773-3.96094-3.96094 1.76773-3.96094 3.96094-3.96094z" style="fill:#4d4d4d"/>
  <path d="m664.35352 332.64648-0.70704 0.70704 2.5 2.5 0.70704-0.70704z" style="fill-rule:evenodd;fill:#4d4d4d"/>
 </g>
</svg>
