<svg xmlns="http://www.w3.org/2000/svg" width="16" height="16" version="1.1">
 <path d="M 7.1541538,5.3875676e-4 C 6.9970388,-7.8424324e-4 6.8539837,0.00431876 6.728836,0.01565686 5.5511617,0.12034978 4.0155207,1.1693199 2.7135113,2.7603498 1.4549362,4.2983151 1.0916292,5.5271907 1.6285224,6.4320474 2.2331485,7.4510836 2.9333286,8.0305607 3.9095995,8.322567 c 0.8352,0.2498268 1.0847962,0.4013859 1.8002154,1.0937197 1.154793,1.1174923 1.552645,1.2432373 3.9806059,1.2499653 1.0255712,0.0033 2.2604412,-0.03893 2.7445872,-0.09222 0.715823,-0.07861 1.018016,-0.169701 1.609255,-0.493039 C 15.61263,9.223682 15.865466,8.6409544 15.403536,6.9613324 15.25946,6.4375277 15.02412,5.3306553 14.881005,4.5013891 14.737874,3.672123 14.558006,2.8649671 14.479993,2.7080789 14.132843,2.0097356 13.015872,1.3376223 11.091356,0.66823009 10.036652,0.30123797 8.2539887,0.00768207 7.1541538,-1.4155324e-4 Z M 6.4719113,3.5559025 c 0.9329574,0.039307 1.143685,0.8573103 1.1388018,1.557241 0,0.9883842 -0.1422992,1.3703432 -0.6527281,1.7481826 C 6.576744,7.1436568 5.6448713,7.2014836 5.3660895,6.9603501 5.0748014,6.7082556 4.9442451,6.2358147 4.9442451,5.4343659 c 0,-1.2069543 0.545212,-1.8780472 1.5276662,-1.8783874 z m 4.7340207,0 h 0.0018 c 0.230211,-0.00329 0.476251,0.069165 0.770775,0.2169449 0.304743,0.1526929 0.64662,0.400252 0.760357,0.5485984 0.271257,0.3537638 0.272655,1.1498079 0.0053,2.0363717 -0.40434,1.3379527 -1.20905,1.8774424 -2.315764,1.548548 C 10.002527,7.7797513 9.4998911,7.1796757 9.4093789,6.6876568 9.2631112,5.8926332 9.9144597,4.2091183 10.527348,3.7971498 10.760847,3.6402994 10.975989,3.5601734 11.206042,3.555638 Z M 3.4113746,8.8890048 C 3.0376549,8.8870348 2.640283,9.0110836 2.258683,9.2639339 1.7909853,9.5738552 0.87797251,10.651852 0.63553847,11.182233 c -0.4587629,1.003691 0.30281574,2.554885 1.44607363,2.942589 0.4021493,0.136441 0.4084687,0.135685 0.7725128,-0.04006 0.4327974,-0.20863 0.6452182,-0.489222 1.3957303,-1.847169 0.5069896,-0.917332 0.6421531,-1.260475 0.6787654,-1.72736 C 4.970082,9.9820822 4.9426048,9.8887654 4.6491245,9.5103213 4.3319088,9.1015654 3.8918924,8.8914615 3.4113708,8.888778 Z m 3.6976403,2.6665322 c -0.8626999,0 -1.4756523,0.542097 -1.8748611,1.654488 -0.3459779,0.964119 -0.3851943,1.782652 -0.098948,2.069329 0.4985877,0.499275 2.3460736,0.902967 2.9095067,0.635376 0.2352,-0.111874 0.3083716,-0.277795 0.4201058,-0.954822 0.1069606,-0.648113 -0.041839,-2.09571 -0.2725417,-2.654362 -0.2057575,-0.49818 -0.5698998,-0.750009 -1.0832542,-0.750009 z m 4.0483081,0 c -0.0774,-5.67e-4 -0.16713,0.0033 -0.27428,0.01134 -0.639242,0.04876 -0.9848203,0.266079 -1.293305,0.814186 -0.2056441,0.36548 -0.2246551,0.499238 -0.1822866,1.239534 0.052913,0.92349 0.1950614,1.396573 0.4444123,1.465209 0.2678553,0.0737 1.4714753,-0.03402 1.9998493,-0.180661 0.649769,-0.179528 1.091932,-0.532725 1.091932,-0.869745 0,-0.359811 -0.935372,-2.06812 -1.265529,-2.310652 -0.165543,-0.121701 -0.288718,-0.168189 -0.520796,-0.170079 z" style="fill:#4d4d4d"/>
</svg>
