<svg xmlns="http://www.w3.org/2000/svg" fill="none" width="16" height="16" viewBox="0 0 16 16">
 <path fill="url(#paint0_linear)" d="M13.6 1H2.4C1.6268 1 1 1.6268 1 2.4V13.6C1 14.3732 1.6268 15 2.4 15H13.6C14.3732 15 15 14.3732 15 13.6V2.4C15 1.6268 14.3732 1 13.6 1Z"/>
 <path fill="url(#paint1_linear)" d="M6.57143 3.7C6.1786 3.7 5.85714 4.02253 5.85714 4.41666V5.13333H3.71429C3.31999 5.13333 3 5.45586 3 5.85V11.5833C3 11.9775 3.31999 12.3 3.71429 12.3H12.2857C12.68 12.3 13 11.9775 13 11.5833V5.85C13 5.45586 12.68 5.13333 12.2857 5.13333H10.1429V4.41666C10.1429 4.02253 9.8214 3.7 9.42857 3.7H6.57143ZM8 5.85C9.57793 5.85 10.8571 7.13348 10.8571 8.71666C10.8571 10.2999 9.57793 11.5833 8 11.5833C6.42207 11.5833 5.14286 10.2999 5.14286 8.71666C5.14286 7.13348 6.42207 5.85 8 5.85ZM8 7.28333C7.211 7.28333 6.57143 7.92506 6.57143 8.71666C6.57143 9.50827 7.21102 10.15 8 10.15C8.78898 10.15 9.42857 9.50827 9.42857 8.71666C9.42857 7.92506 8.78898 7.28333 8 7.28333Z"/>
 <defs>
  <linearGradient id="paint0_linear" x1="1" x2="15" y1="8" y2="8" gradientUnits="userSpaceOnUse">
   <stop stop-color="#9A9996"/>
  </linearGradient>
  <linearGradient id="paint1_linear" x1="3" x2="13" y1="8" y2="8" gradientUnits="userSpaceOnUse">
   <stop stop-color="#F6F5F4"/>
  </linearGradient>
 </defs>
</svg>
