<?xml version="1.0" encoding="UTF-8" standalone="no"?>
<svg
   xmlns:dc="http://purl.org/dc/elements/1.1/"
   xmlns:cc="http://creativecommons.org/ns#"
   xmlns:rdf="http://www.w3.org/1999/02/22-rdf-syntax-ns#"
   xmlns:svg="http://www.w3.org/2000/svg"
   xmlns="http://www.w3.org/2000/svg"
   xmlns:sodipodi="http://sodipodi.sourceforge.net/DTD/sodipodi-0.dtd"
   xmlns:inkscape="http://www.inkscape.org/namespaces/inkscape"
   width="16"
   height="16"
   version="1.1"
   viewBox="0 0 16 16"
   id="svg8"
   sodipodi:docname="emblem-nowrite.svg"
   inkscape:version="0.92.3 (2405546, 2018-03-11)">
  <metadata
     id="metadata14">
    <rdf:RDF>
      <cc:Work
         rdf:about="">
        <dc:format>image/svg+xml</dc:format>
        <dc:type
           rdf:resource="http://purl.org/dc/dcmitype/StillImage" />
        <dc:title></dc:title>
      </cc:Work>
    </rdf:RDF>
  </metadata>
  <defs
     id="defs12" />
  <sodipodi:namedview
     pagecolor="#ffffff"
     bordercolor="#666666"
     borderopacity="1"
     objecttolerance="10"
     gridtolerance="10"
     guidetolerance="10"
     inkscape:pageopacity="0"
     inkscape:pageshadow="2"
     inkscape:window-width="1920"
     inkscape:window-height="1009"
     id="namedview10"
     showgrid="false"
     inkscape:zoom="14.75"
     inkscape:cx="7.9322034"
     inkscape:cy="5.0847458"
     inkscape:window-x="0"
     inkscape:window-y="34"
     inkscape:window-maximized="1"
     inkscape:current-layer="svg8" />
  <rect
     style="opacity:1;fill:#9a9996;fill-opacity:1;stroke:none;stroke-width:1.12016714"
     id="rect833"
     width="14"
     height="14"
     x="2"
     y="2"
     rx="1.4"
     ry="1.4" />
  <g
     transform="matrix(0.09259269,0,0,0.0925927,-78.592681,-4.3333548)"
     style="display:inline;enable-background:new;fill:#fffefe;fill-opacity:1"
     id="g5265">
    <path
       inkscape:connector-curvature="0"
       style="color:#000000;clip-rule:nonzero;display:inline;overflow:visible;visibility:visible;opacity:1;isolation:auto;mix-blend-mode:normal;color-interpolation:sRGB;color-interpolation-filters:linearRGB;solid-color:#000000;solid-opacity:1;fill:#fffefe;fill-opacity:1;fill-rule:nonzero;stroke:none;stroke-width:0.02479353;stroke-linecap:butt;stroke-linejoin:miter;stroke-miterlimit:4;stroke-dasharray:none;stroke-dashoffset:0;stroke-opacity:1;marker:none;marker-start:none;marker-mid:none;marker-end:none;paint-order:normal;color-rendering:auto;image-rendering:auto;shape-rendering:auto;text-rendering:auto;enable-background:accumulate"
       inkscape:r_cy="true"
       inkscape:r_cx="true"
       id="path9441-6"
       d="m 942.99971,90.016304 c -20.56622,0.594661 -34.19973,9.720966 -34.19973,28.544686 v 19.21282 h -4.6287 c -3.39588,0 -6.17128,2.15862 -6.17128,4.862 V 193.138 c 0,2.70338 2.7754,4.862 6.17128,4.862 h 83.74276 c 3.39638,0 6.08588,-2.15867 6.08588,-4.862 v -50.50219 c 0,-2.70338 -2.6895,-4.862 -6.08588,-4.862 h -4.7141 l 0.0858,-18.89912 c 0,-19.98184 -14.80016,-28.611751 -37.19998,-28.858386 -1.04437,-0.014 -2.0746,-0.02802 -3.08614,0 z m 2.05743,12.625576 c 0.37894,-0.01 0.80892,0 1.19999,0 24.85288,0 22.94703,16.31244 23.31435,21.17324 v 13.95869 h -46.79997 v -13.88027 c -0.0909,-4.82222 -1.53953,-20.75568 22.28563,-21.25166 z" />
  </g>
</svg>
