<svg width="16" height="16" version="1.2" xmlns="http://www.w3.org/2000/svg">
 <g transform="matrix(.93664239 0 0 .93664239 -306.71153 -130.65344)" style="enable-background:new;opacity:.75">
  <rect transform="rotate(90)" x="140.04" y="-343.99" width="16" height="16" style="fill:none"/>
  <path d="m337.31472 139.96026-2.63222 0.39327v1.35335a6.4893367 6.4774947 43.145679 0 1 2.63222 5e-3v-1.75146zm-5.38585 1.19061-2.00544 1.70491 0.98801 1.17757a6.4893367 6.4774947 43.145679 0 1 2.01736-1.69076zm8.12867 0.0127-0.99285 1.18353a6.4893367 6.4774947 43.145679 0 1 0.17056 0.0905 6.4893367 6.4774947 43.145679 0 1 1.84457 1.60287l1.00514-1.19769zm-11.60999 4.21684-0.44056 2.59535 1.51535 0.26739a6.4893367 6.4774947 43.145679 0 1 0.45509-2.59274zm15.08573 3e-3 -1.5228 0.26851a6.4893367 6.4774947 43.145679 0 1 0.46365 2.59088l1.53286-0.27zm-13.68247 4.69464-1.35149 0.78058h-3.4e-4l1.33101 2.27098 1.33808-0.77238a6.4893367 6.4774947 43.145679 0 1-1.31723-2.27918zm12.30081 3e-3a6.4893367 6.4774947 43.145679 0 1-0.53478 1.21481 6.4893367 6.4774947 43.145679 0 1-0.77388 1.0692l1.33883 0.77313 1.30158-2.28811zm-9.55687 3.47164-0.53479 1.4688 2.47953 0.88448 0.52585-1.44534a6.4893367 6.4774947 43.145679 0 1-2.30338-0.79995 6.4893367 6.4774947 43.145679 0 1-0.16721-0.10799zm6.8133 0.0153a6.4893367 6.4774947 43.145679 0 1-2.47468 0.89752l0.53031 1.45651 2.46761-0.91651z" style="fill:#999999"/>
  <circle cx="336.01" cy="147.979" r="6.005" style="fill:none;stroke-linecap:square;stroke-linejoin:round;stroke-width:2.001831;stroke:#999999"/>
  <circle cx="336.01" cy="147.979" r="3.336" style="fill:none;stroke-linecap:square;stroke-linejoin:round;stroke-width:2.0018315;stroke:#999999"/>
 </g>
</svg>
