<?xml version="1.0" encoding="UTF-8" standalone="no"?>
<svg
   xmlns:dc="http://purl.org/dc/elements/1.1/"
   xmlns:cc="http://creativecommons.org/ns#"
   xmlns:rdf="http://www.w3.org/1999/02/22-rdf-syntax-ns#"
   xmlns:svg="http://www.w3.org/2000/svg"
   xmlns="http://www.w3.org/2000/svg"
   xmlns:sodipodi="http://sodipodi.sourceforge.net/DTD/sodipodi-0.dtd"
   xmlns:inkscape="http://www.inkscape.org/namespaces/inkscape"
   width="16"
   height="16"
   version="1.1"
   viewBox="0 0 16 16"
   id="svg8"
   sodipodi:docname="emblem-shared.svg"
   inkscape:version="0.92.3 (2405546, 2018-03-11)">
  <metadata
     id="metadata14">
    <rdf:RDF>
      <cc:Work
         rdf:about="">
        <dc:format>image/svg+xml</dc:format>
        <dc:type
           rdf:resource="http://purl.org/dc/dcmitype/StillImage" />
        <dc:title></dc:title>
      </cc:Work>
    </rdf:RDF>
  </metadata>
  <defs
     id="defs12" />
  <sodipodi:namedview
     pagecolor="#ffffff"
     bordercolor="#666666"
     borderopacity="1"
     objecttolerance="10"
     gridtolerance="10"
     guidetolerance="10"
     inkscape:pageopacity="0"
     inkscape:pageshadow="2"
     inkscape:window-width="1920"
     inkscape:window-height="1009"
     id="namedview10"
     showgrid="false"
     inkscape:zoom="14.75"
     inkscape:cx="7.9322034"
     inkscape:cy="5.0847458"
     inkscape:window-x="0"
     inkscape:window-y="34"
     inkscape:window-maximized="1"
     inkscape:current-layer="svg8" />
  <rect
     style="opacity:1;fill:#9a9996;fill-opacity:1;stroke:none;stroke-width:1.12016714"
     id="rect833"
     width="14"
     height="14"
     x="2"
     y="2"
     rx="1.4"
     ry="1.4" />
  <path
     inkscape:connector-curvature="0"
     id="path24876-5-1"
     d="m 12.12746,3.9999999 c -1.02877,0 -1.86275,0.83398 -1.86275,1.86275 0,0.0877 0.008,0.1704 0.0196,0.2549 L 7.1470502,7.6470598 c -0.33354,-0.31463 -0.77979,-0.5098 -1.27451,-0.5098 -1.02876,0 -1.86274,0.83397 -1.86274,1.86274 0,1.0287702 0.83398,1.8627502 1.86274,1.8627502 0.50455,0 0.9586801,-0.20362 1.29412,-0.52942 l 3.1176498,1.56863 c -0.01,0.0783 -0.0196,0.15426 -0.0196,0.2353 0,1.02876 0.83398,1.86274 1.86275,1.86274 1.02876,0 1.86274,-0.83398 1.86274,-1.86274 0,-1.02877 -0.83398,-1.86275 -1.86274,-1.86275 -0.48942,0 -0.92248,0.20113 -1.2549,0.5098 L 7.7156902,9.1960798 c 0.007,-0.0658 0.0196,-0.12843 0.0196,-0.19608 0,-0.0743 -0.0111,-0.14362 -0.0196,-0.21569 l 3.1764698,-1.54902 c 0.33017,0.29773 0.75571,0.4902 1.2353,0.4902 1.02876,0 1.86274,-0.83398 1.86274,-1.8627399 0,-1.02877 -0.83398,-1.86275 -1.86274,-1.86275 z"
     style="color:#000000;clip-rule:nonzero;display:block;overflow:visible;visibility:visible;color-interpolation:sRGB;color-interpolation-filters:linearRGB;fill:#ffffff;fill-opacity:1;fill-rule:nonzero;stroke:none;stroke-width:0.04609621;marker:none;enable-background:new" />
</svg>
