<?xml version="1.0" encoding="UTF-8" standalone="no"?>
<svg
   xmlns:dc="http://purl.org/dc/elements/1.1/"
   xmlns:cc="http://creativecommons.org/ns#"
   xmlns:rdf="http://www.w3.org/1999/02/22-rdf-syntax-ns#"
   xmlns:svg="http://www.w3.org/2000/svg"
   xmlns="http://www.w3.org/2000/svg"
   xmlns:sodipodi="http://sodipodi.sourceforge.net/DTD/sodipodi-0.dtd"
   xmlns:inkscape="http://www.inkscape.org/namespaces/inkscape"
   width="16"
   height="16"
   version="1.1"
   id="svg6"
   sodipodi:docname="emblem-videos.svg"
   inkscape:version="0.92.3 (2405546, 2018-03-11)">
  <metadata
     id="metadata12">
    <rdf:RDF>
      <cc:Work
         rdf:about="">
        <dc:format>image/svg+xml</dc:format>
        <dc:type
           rdf:resource="http://purl.org/dc/dcmitype/StillImage" />
      </cc:Work>
    </rdf:RDF>
  </metadata>
  <defs
     id="defs10" />
  <sodipodi:namedview
     pagecolor="#ffffff"
     bordercolor="#666666"
     borderopacity="1"
     objecttolerance="10"
     gridtolerance="10"
     guidetolerance="10"
     inkscape:pageopacity="0"
     inkscape:pageshadow="2"
     inkscape:window-width="768"
     inkscape:window-height="480"
     id="namedview8"
     showgrid="false"
     inkscape:zoom="14.75"
     inkscape:cx="0.30508475"
     inkscape:cy="8"
     inkscape:window-x="0"
     inkscape:window-y="34"
     inkscape:window-maximized="0"
     inkscape:current-layer="svg6" />
  <g
     transform="translate(-312,-180)"
     id="g4"
     style="fill:#9a9996;fill-opacity:1">
    <path
       d="m313 182.00001v13l1-1e-5v-1l1 1e-5v1h11v-1.00001h1v1h1v-13h-1v1h-1v-1h-11v1.00001l-1-1e-5v-1zm3 0.99999h9v5h-9zm-2 1 1 1e-5v1l-1-1e-5zm12 1e-5h1v1h-1zm-12 1.99999 1 1e-5v1l-1-1e-5zm12 1e-5h1v1h-1zm-12 1.99999 1 1e-5v1l-1-1e-5zm12 1e-5h1v1h-1zm-10 0.99999h9v5h-9zm-2 1 1 1e-5v1l-1-1e-5zm12 1e-5h1v1h-1zm-12 1.99999 1 1e-5v1l-1-1e-5zm12 1e-5h1v1h-1z"
       style="fill:#9a9996;fill-opacity:1"
       id="path2" />
  </g>
</svg>
