<svg width="16" height="16" version="1.1" xmlns="http://www.w3.org/2000/svg">
 <g transform="translate(-312,-180)">
  <path d="m313 182.00001v13l1-1e-5v-1l1 1e-5v1h11v-1.00001h1v1h1v-13h-1v1h-1v-1h-11v1.00001l-1-1e-5v-1zm3 0.99999h9v5h-9zm-2 1 1 1e-5v1l-1-1e-5zm12 1e-5h1v1h-1zm-12 1.99999 1 1e-5v1l-1-1e-5zm12 1e-5h1v1h-1zm-12 1.99999 1 1e-5v1l-1-1e-5zm12 1e-5h1v1h-1zm-10 0.99999h9v5h-9zm-2 1 1 1e-5v1l-1-1e-5zm12 1e-5h1v1h-1zm-12 1.99999 1 1e-5v1l-1-1e-5zm12 1e-5h1v1h-1z" style="fill:#808080"/>
 </g>
</svg>
