<svg xmlns="http://www.w3.org/2000/svg" fill="none" width="16" height="16" viewBox="0 0 16 16">
 <path fill="url(#paint0_linear)" d="M13.6 1H2.4C1.6268 1 1 1.6268 1 2.4V13.6C1 14.3732 1.6268 15 2.4 15H13.6C14.3732 15 15 14.3732 15 13.6V2.4C15 1.6268 14.3732 1 13.6 1Z"/>
 <path fill="#fff" fill-rule="evenodd" d="M7.42857 3C8.21755 3 8.85714 3.63959 8.85714 4.42857V8.83684L10.5816 10.5613C11.1395 11.1192 11.1395 12.0237 10.5816 12.5816C10.0237 13.1395 9.11917 13.1395 8.56128 12.5816L6.41842 10.4387C6.15051 10.1708 6 9.80745 6 9.42857V4.42857C6 3.63959 6.63959 3 7.42857 3Z" clip-rule="evenodd"/>
 <defs>
  <linearGradient id="paint0_linear" x1="1" x2="15" y1="8" y2="8" gradientUnits="userSpaceOnUse">
   <stop stop-color="#9A9996"/>
  </linearGradient>
 </defs>
</svg>
