<?xml version="1.0" encoding="UTF-8" standalone="no"?>
<svg
   xmlns:dc="http://purl.org/dc/elements/1.1/"
   xmlns:cc="http://creativecommons.org/ns#"
   xmlns:rdf="http://www.w3.org/1999/02/22-rdf-syntax-ns#"
   xmlns:svg="http://www.w3.org/2000/svg"
   xmlns="http://www.w3.org/2000/svg"
   xmlns:sodipodi="http://sodipodi.sourceforge.net/DTD/sodipodi-0.dtd"
   xmlns:inkscape="http://www.inkscape.org/namespaces/inkscape"
   width="16"
   height="16"
   version="1.1"
   viewBox="0 0 16 16"
   id="svg8"
   sodipodi:docname="emblem-generic.svg"
   inkscape:version="0.92.3 (2405546, 2018-03-11)">
  <metadata
     id="metadata14">
    <rdf:RDF>
      <cc:Work
         rdf:about="">
        <dc:format>image/svg+xml</dc:format>
        <dc:type
           rdf:resource="http://purl.org/dc/dcmitype/StillImage" />
        <dc:title></dc:title>
      </cc:Work>
    </rdf:RDF>
  </metadata>
  <defs
     id="defs12">
    <linearGradient
       id="linearGradient5237">
      <stop
         id="stop5239"
         offset="0"
         style="stop-color:#ffffff;stop-opacity:1;" />
      <stop
         id="stop5247"
         offset="0.5"
         style="stop-color:#ffffff;stop-opacity:1;" />
      <stop
         id="stop5241"
         offset="1"
         style="stop-color:#9c9c9c;stop-opacity:1" />
    </linearGradient>
  </defs>
  <sodipodi:namedview
     pagecolor="#ffffff"
     bordercolor="#666666"
     borderopacity="1"
     objecttolerance="10"
     gridtolerance="10"
     guidetolerance="10"
     inkscape:pageopacity="0"
     inkscape:pageshadow="2"
     inkscape:window-width="1920"
     inkscape:window-height="1009"
     id="namedview10"
     showgrid="true"
     inkscape:zoom="52.5625"
     inkscape:cx="8"
     inkscape:cy="4.9560048"
     inkscape:window-x="0"
     inkscape:window-y="34"
     inkscape:window-maximized="1"
     inkscape:current-layer="svg8">
    <inkscape:grid
       type="xygrid"
       id="grid1590" />
  </sodipodi:namedview>
  <rect
     style="opacity:1;fill:#9a9996;fill-opacity:1;stroke:none;stroke-width:1.12016714"
     id="rect833"
     width="14"
     height="14"
     x="2"
     y="2"
     rx="1.4"
     ry="1.4" />
  <path
     style="color:#000000;font-style:normal;font-variant:normal;font-weight:bold;font-stretch:normal;font-size:12px;line-height:100%;font-family:'Bitstream Vera Sans Mono';font-variant-ligatures:normal;font-variant-position:normal;font-variant-caps:normal;font-variant-numeric:normal;font-variant-alternates:normal;font-feature-settings:normal;text-indent:0;text-align:start;text-decoration:none;text-decoration-line:none;text-decoration-style:solid;text-decoration-color:#000000;letter-spacing:normal;word-spacing:normal;text-transform:none;writing-mode:lr-tb;direction:ltr;text-orientation:mixed;dominant-baseline:auto;baseline-shift:baseline;text-anchor:start;white-space:normal;shape-padding:0;clip-rule:nonzero;display:inline;overflow:visible;visibility:visible;opacity:1;isolation:auto;mix-blend-mode:normal;color-interpolation:sRGB;color-interpolation-filters:linearRGB;solid-color:#000000;solid-opacity:1;vector-effect:none;fill:#ffffff;fill-opacity:1;fill-rule:nonzero;stroke:none;stroke-width:0.57338548px;stroke-linecap:round;stroke-linejoin:round;stroke-miterlimit:4;stroke-dasharray:none;stroke-dashoffset:0;stroke-opacity:1;color-rendering:auto;image-rendering:auto;shape-rendering:auto;text-rendering:auto;enable-background:new"
     d="M 8.1449301,4.1778972 C 7.9977885,4.191792 7.8853167,4.3152573 7.8851645,4.4630534 v 2.796875 L 5.1507895,5.7579753 C 5.0111813,5.6811732 4.8357336,5.7329303 4.7601645,5.8732097 L 4.0355551,7.2189128 c -0.076206,0.1406456 -0.022586,0.316449 0.1191407,0.390625 L 6.8363364,9.0060222 4.1546958,10.410319 c -0.1417268,0.07418 -0.1953469,0.249979 -0.1191407,0.390625 l 0.7246094,1.345703 c 0.076292,0.14073 0.25304,0.191732 0.3925782,0.113282 l 2.7324218,-1.515625 v 2.792968 c 8.614e-4,0.157892 0.1292151,0.285373 0.2871094,0.285157 H 9.814852 c 0.1578941,2.16e-4 0.286248,-0.127265 0.287109,-0.285157 v -2.794921 l 2.744141,1.517578 c 0.139092,0.07711 0.314367,0.02628 0.390625,-0.113282 l 0.726563,-1.345703 c 0.07621,-0.140646 0.02259,-0.316449 -0.119141,-0.390625 l -2.669922,-1.4042968 2.621094,-1.3730469 0.0039,-0.00195 c 0.06174,-0.02026 0.114767,-0.060891 0.150391,-0.1152344 0.0108,-0.015965 0.01996,-0.032978 0.02734,-0.050781 0.0037,-0.00894 0.007,-0.01807 0.0098,-0.027344 6.88e-4,-0.00195 0.0014,-0.0039 0.002,-0.00586 9e-6,-0.0013 9e-6,-0.00261 0,-0.00391 0.0023,-0.00773 0.0043,-0.015545 0.0059,-0.023437 0.0016,-0.00776 0.0029,-0.015574 0.0039,-0.023437 2e-5,-0.00195 2e-5,-0.00391 0,-0.00586 0.0012,-0.0189 5.36e-4,-0.037873 -0.002,-0.056641 -0.0059,-0.051108 -0.02548,-0.099681 -0.05664,-0.140625 L 13.236727,5.8732097 C 13.161158,5.7329303 12.98571,5.6811732 12.846102,5.7579753 L 10.101961,7.2618816 V 4.4630534 C 10.101099,4.3051619 9.9727457,4.1776815 9.814852,4.1778972 H 8.1722739 c -0.00911,-4.349e-4 -0.018234,-4.349e-4 -0.027344,0 z"
     id="text2450"
     inkscape:connector-curvature="0"
     sodipodi:nodetypes="cccccccccccccccccccccccccccccccccccccccccc" />
</svg>
