<svg height="16" viewBox="0 0 16 16" width="16" xmlns="http://www.w3.org/2000/svg">
  <path d="m6.350877 2.13005c.014563.087312-.029125.160124-.174625.232874-.189187-.101875-.59675-.160125-.931437-.131-.363875.029125-.6695.145563-.625813.392938.058188.247437.407501.393 1.033312.33475 1.528125-.131 1.513563-1.164312 3.754875-1.368062 1.746437-.160063 2.7215.378437 2.852499 1.033312.101875.509375-.320187 1.00425-1.586375 1.106125-1.120624.101875-1.775562-.20375-1.833749-.509375-.029125-.160125.058187-.393.596687-.451188.058251.247438.363875.509375 1.091563.436625.523937-.043687.9605-.232875.902312-.523937-.058187-.305625-.61125-.480313-1.484499-.4075-1.775563.160062-2.212125 1.135187-3.72575 1.266187-1.076937.101875-1.950187-.291187-2.066624-.87325-.043626-.218312-.043626-.727687 1.091562-.829562.582125-.043687 1.047874.058188 1.106062.291063zm-5.675936 6.083498c-.494813.625812-.713125 1.353437-.6695 2.066625.043687.713124.392937 1.29525.946 1.746437.582125.451125 1.207937.582125 1.921124.451125.2765-.043625.582125-.189188.858625-.2765-.582125 0-1.076937-.189188-1.571812-.582125-.538438-.393-.902312-.946-.989625-1.615499-.131-.625813 0-1.207938.349313-1.717313.392937-.494812.902312-.771375 1.571749-.858687.6695-.043625 1.251625.131 1.83375.5385-.130938-.189188-.320125-.320188-.49475-.494813-.582187-.393-1.208-.582187-1.979375-.393-.698562.145625-1.280687.509375-1.775499 1.13525zm7.800811-3.361936c-1.8775 0-3.551125-.189188-4.759124-.451188-1.29525-.320188-1.979312-.669437-1.979312-1.120625 0-.189187.087374-.349312.349374-.5385-.815062.320188-1.251687.582188-1.251687.989688.043688.451125.771375.902312 2.255812 1.251625 1.397187.349249 3.187312.538437 5.341249.538437 2.197624 0 3.944062-.189188 5.341249-.538437 1.484437-.349313 2.197562-.815 2.197562-1.251625 0-.320188-.320188-.625813-.902312-.858688.130999.087313.232875.232875.232875.392938 0 .451187-.669501.814999-2.023 1.120625-1.251625.276562-2.852499.46575-4.802686.46575zm5.355749 1.251624c-1.397187.320188-3.18725.5385-5.34125.5385-2.197562 0-3.987686-.232875-5.384873-.5385-1.251625-.320187-1.921-.6695-2.153937-1.033312.232875 1.571812.771375 3.056249 1.484499 4.366124.5385.815 1.076938 1.528125 1.615437 2.2995.232875.451125.392938.902312.494813 1.353499.349313.494813.858749.815 1.484499.989625.771375.2765 1.571813.392937 2.386875.349312h.08725c.815.043625 1.673749-.087374 2.459625-.349312.582124-.189187 1.076937-.494812 1.440811-.989625h.043626c.087312-.451249.232875-.902374.451187-1.353499.5385-.771375 1.077-1.4845 1.615437-2.2995.713125-1.295312 1.208-2.77975 1.4845-4.366124-.291062.4075-.960563.756812-2.168499 1.033312z" fill="#e6ddff"/>
</svg>
