<svg height="16" width="16" xmlns="http://www.w3.org/2000/svg">
  <path d="m7.853658-.00000047c-2.882602 0-5.203251 2.32064907-5.203251 5.20325177v2.6016258h-.650407v3.6991859l.264227-.345527c.378101-.507774 1.385894-1.233041 2.174798-1.5447155.41563-.1642279 1.413591-.3444234 2.54065-.4674814 1.698112-.1908281 4.906424-.0406478 6.077236-1.341462v-2.6016258c0-2.8826027-2.32065-5.20325177-5.203253-5.20325177zm.42683.6300808c.246613.014377.488324.043106.731707.1016312.8743873.21014517.9731083.41255297.121956.24390327-1.339181-.26543067-3.117895.3307317-4.207316 1.4227645-.325756.3265686-.736732.8672828-.914634 1.1991853-.366547.6839028-.30888.243415.0813-.5894295.713368-1.5226994 2.460702-2.47878097 4.186991-2.37805477zm-.42683 1.97154387c1.441302 0 2.601627 1.1603251 2.601627 2.6016271v2.6016258h-5.203252v-2.6016258c0-1.441302 1.160325-2.6016271 2.601625-2.6016271zm5.85366 6.3455301-.691056.5691056c-.375611.3196081-.963417.7570081-1.32114.9756091-.732118.447414-2.467867 1.077235-2.987805 1.077235-.195568 0-.310216.04736-.264226.121958.08667.140487 1.125876.07729 2.215447-.142276.357724-.07201 1.187802-.396618 1.849592-.731708l1.199188-.609756v-.630081zm0 1.4024397-.365855.508129c-1.213473 1.67265-3.189442 2.59948-5.934958 2.764228-1.833813.109978-1.162406.318699 1.036586.325202 1.4896093.0021 1.825372-.04321 2.723575-.345527.561933-.189074 1.028554-.333497 1.056911-.304878.102322.10251-.997046 1.012194-1.605692 1.321137-1.166178.591935-1.960285.758049-4.065039.853658-1.495157.0679-2.108989.145203-2.398373.30488-.368484.202925-.125001.217072 4.57317.223577h4.979675z" fill="#e6ddff"/>
</svg>
