<svg height="16" width="16" xmlns="http://www.w3.org/2000/svg">
  <path d="m3.7197179 2.3073421c-.8927455.0072187-2.0167648.0704175-3.2197179.2753718v11.4172861h2.7113416v-4.1305583s5.3423942.4956913 5.4438636-3.4103586c0 0 .7047057-4.1974048-4.9354873-4.151741zm.27537 2.0335067c1.6451061.00619 2.0756736.5895432 2.118236 1.6734057 0 2.2726329-2.9019823 1.7157692-2.9019823 1.7157692v-3.3468111c.2871732-.0220313.5487319-.0432375.7837463-.0423563zm8.3034801.9955707c-.658425.0298125-1.307616.1828125-1.885228.5083762-1.0701729.6309956-1.203821 2.1708674-.6142876 3.1773523.7367006 1.087466 2.1537736 1.243745 3.1561686 1.991142.508858.337854.246848 1.195072-.338917 1.249758-1.07934.176606-2.164682-.213668-3.1349869-.656652v1.54631c-.1345687.458145.4281728.469534.7413819.593106 1.165448.282724 2.427754.325267 3.579818-.04236 1.017641-.299586 1.749478-1.313878 1.694589-2.372421-.000354-.283489-.05423-.557317-.148275-.826113-.400974-1.111565-1.645706-1.4740044-2.605432-1.9487731-.609844-.1562062-1.507609-.9190143-.699017-1.4403993.908747-.2851668 1.848304.1398 2.668978.5083762l.593106-1.4192173c.198399-.4461094-.763442-.4394175-1.059119-.6354713-.623356-.1756687-1.29035-.2628093-1.948777-.2330043z" fill="#e6ddff"/>
</svg>
