<svg height="16.031" width="16.031" xmlns="http://www.w3.org/2000/svg">
  <g fill="#e6ddff" transform="translate(-581.0002 -301)">
    <path d="m-174-39.984375a2.015625 2.015625 0 1 1 -4.03125 0 2.015625 2.015625 0 1 1 4.03125 0z" transform="translate(759.03145 343.03125)"/>
    <path d="m-174-39.984375a2.015625 2.015625 0 1 1 -4.03125 0 2.015625 2.015625 0 1 1 4.03125 0z" transform="translate(759.03145 354.96875)"/>
    <path d="m-174-39.984375a2.015625 2.015625 0 1 1 -4.03125 0 2.015625 2.015625 0 1 1 4.03125 0z" transform="translate(771.03145 354.96875)"/>
    <path d="m-174-39.984375a2.015625 2.015625 0 1 1 -4.03125 0 2.015625 2.015625 0 1 1 4.03125 0z" transform="translate(771.03145 343)"/>
    <path d="m582.0625 302.0625v1 11.96875 1h1 11.96875 1v-1-11.96875-1h-1-11.96875zm2 2h9.96875v9.96875h-9.96875z"/>
    <path d="m585.96875 306.03125v.5 5 .5h.5 5.0625.5v-.5-5-.5h-.5-5.0625zm1 1h4.0625v4h-4.0625z"/>
    <path d="m-166.5-31.765625a1.265625 1.265625 0 1 1 -2.53125 0 1.265625 1.265625 0 1 1 2.53125 0z" transform="matrix(1.1975309 0 0 1.1975309 792.42034 349.55594)"/>
    <path d="m-166.5-31.765625a1.265625 1.265625 0 1 1 -2.53125 0 1.265625 1.265625 0 1 1 2.53125 0z" transform="matrix(1.1975309 0 0 1.1975309 787.42034 349.55594)"/>
    <path d="m-166.5-31.765625a1.265625 1.265625 0 1 1 -2.53125 0 1.265625 1.265625 0 1 1 2.53125 0z" transform="matrix(1.1975309 0 0 1.1975309 787.42034 344.58719)"/>
    <path d="m-166.5-31.765625a1.265625 1.265625 0 1 1 -2.53125 0 1.265625 1.265625 0 1 1 2.53125 0z" transform="matrix(1.1975309 0 0 1.1975309 792.48284 344.58719)"/>
    <path d="m591.875 311.21875-.6875.6875 3.40625 3.4375.71875-.71875z"/>
    <path d="m586.59375 311.21875-3.40625 3.40625.6875.71875 3.4375-3.4375z"/>
    <path d="m594.59375 303.21875-3.40625 3.40625.6875.71875 3.4375-3.4375z"/>
    <path d="m583.875 303.21875-.6875.6875 3.40625 3.4375.71875-.71875z"/>
  </g>
</svg>
