<svg height="16" width="16" xmlns="http://www.w3.org/2000/svg">
  <path d="m-9.6894531-9.9453125c-2.1719469 0-4.1816039 1.1600546-5.2675779 3.0410156-1.085973 1.8809611-1.085973 4.1991171 0 6.08007815 1.085974 1.88096105 3.095631 3.04101565 5.2675779 3.04101565h8.91796872v-.8105469h-8.91796872c-1.8835669 0-3.6226699-1.00354857-4.5644529-2.6347656-.941784-1.6312171-.941784-3.6402673 0-5.2714844.941783-1.6312171 2.680886-2.6347656 4.5644529-2.6347656zm-.2363281 1.6269531c-1.0804168.057345-2.1267788.5074872-2.9218748 1.3046875-1.272153 1.2755217-1.651434 3.1954828-.960938 4.859375.690496 1.6638933 2.317662 2.75000002 4.1191409 2.75000002h8.91796872v-.81054687h-8.91796872c-1.4760489 0-2.8053329-.88863645-3.3710939-2.25195315s-.255234-2.9295067.787109-3.9746093c1.042343-1.0451017 2.6078481-1.3590296 3.9726568-.796875l.3085937-.75c-.6246427-.2572857-1.2853439-.3644845-1.9335937-.3300782zm.1503906 1.6171875c-.4580364.013524-.9174854.1384412-1.3339844.3789063-1.110663.6412423-1.654196 1.952622-1.322266 3.1914062.331932 1.2387843 1.459704 2.1035156 2.7421879 2.1035156h8.91796872v-.8105468h-8.91796872c-.9194189 0-1.7210219-.6138635-1.9589849-1.5019532-.237962-.8880896.149074-1.8195879.945313-2.2792968.7962395-.4597089 1.7951856-.3278603 2.4453125.3222656l.5742187-.5742188c-.5667833-.5667823-1.3284018-.8526159-2.0917968-.8300781z" fill="#E6DDFF" stroke="#E6DDFF" stroke-width=".5" transform="matrix(.99999822 0 0 1 16.271485 12.2832)"/>
</svg>
