<svg height="16" width="16" xmlns="http://www.w3.org/2000/svg">
  <path d="m8.3392389.5000003c-2.6123563.465222-5.2261263 1.0824567-7.83848334 1.539137 0 3.9739086-.0017 7.9495177 0 11.9251267 2.59872404.45498 5.19883504 1.06201 7.79244494 1.535736h.7784617v-14.9999997zm3.0806171 2.0756409c-.60725.00756-1.214487.056315-1.8124798.1387087v2.2179401c1.6803548.2536063 3.4322338.2018268 5.0518788-.344315.342841-.1500472.776609-.3375118.848039-.7536377-.096416-.5089134-.667661-.7000819-1.094449-.8590111-.96875-.295559-1.980904-.4093606-2.992989-.3994204zm4.085869 2.1208819c-.635716.5107275-1.455496.6804283-2.241211.7964976-1.212502.1587401-2.444639.1606299-3.6571378.00756v2.3142047c1.5142858.1946457 3.0695618.1859528 4.5606308-.1659212.457145-.1303937.964452-.2660788 1.28409-.6466394.114293-.7607055.01436-1.5374362.05363-2.305285zm-10.2876504.5213102c.598216 2.0000126 1.1662189 4.0108724 1.7572916 6.0126607-.4125014-.02646-.8252036-.05707-1.2341326-.09487-.108926-.446438-.224807-.892799-.342652-1.3374609-.548213-.002-1.096551-.018898-1.64298-.046488-.105373.4232319-.21256.8446119-.321486 1.2660289-.350022-.02646-.698106-.05178-1.046317-.07484.521427-1.8803529 1.064171-3.7535246 1.582031-5.6338773.416069-.030236.830396-.058961 1.248253-.091465zm-.671471 1.0698708c-.119659.8482016-.387533 1.6642016-.567889 2.4999307.392856.00352.785862.00378 1.180505.00756-.203565-.83573-.451903-1.6605741-.612616-2.5069993zm10.9591214 1.2660284c-.632145.5089511-1.446557.6786141-2.230488.7946834-1.216071.1606299-2.451791.1644095-3.6678608.00756v2.3160191c1.5178538.192755 3.0785458.184063 4.5731858-.171213.455358-.130394.962438-.266079 1.274941-.6481888.105373-.7607055.01436-1.5339968.05023-2.3000693zm0 2.8569825c-.635716.508913-1.451837.68039-2.237552.794683-1.214283.16063-2.446515.16441-3.6607968.0076 0 .769625.0053 1.537474-.00718 2.307099 1.2749968.184063 2.5767078.180662 3.8499208-.01512.694643-.140976 1.496507-.243023 2.001864-.792869.112517-.760705.01625-1.537625.05363-2.303697z" fill="#e6ddff"/>
</svg>
