<svg height="16" viewBox="0 0 16 16" width="16" xmlns="http://www.w3.org/2000/svg">
  <g fill="#e6ddff" transform="translate(-621.0002 -321)">
    <path d="m630.0002 321v.5.5h-1v1h-.45312-.5v1h.5.45312v1h-.45312-.5v1h.5.45312v1h-.45312-.5v1h.5.45312v1h1v.5.5h1v-.5-.5h1v.5.5h1v-.5-.5h1v.5.5h1v-.5-.5h1v-1h.5.5v-1h-.5-.5v-1h.5.5v-1h-.5-.5v-1h.5.5v-1h-.5-.5v-1h-1v-.5-.5h-1v.5.5h-1v-.5-.5h-1v.5.5h-1v-.5-.5z"/>
    <path d="m627.5 332.98242c-.83253 0-1.51758.68505-1.51758 1.51758s.68505 1.51758 1.51758 1.51758 1.51758-.68505 1.51758-1.51758-.68505-1.51758-1.51758-1.51758zm0 1c.29209 0 .51758.22549.51758.51758s-.22549.51758-.51758.51758-.51758-.22549-.51758-.51758.22549-.51758.51758-.51758z"/>
    <path d="m621.5 331.13086v1h1.21094l1.65625 2.86914h2.07031v-1h-1.49219l-1.65625-2.86914z"/>
    <path d="m635.48242 329.94531c-.83253 0-1.51758.68505-1.51758 1.51758s.68505 1.51953 1.51758 1.51953 1.51758-.687 1.51758-1.51953-.68505-1.51758-1.51758-1.51758zm0 1c.29209 0 .51758.22549.51758.51758s-.22549.51953-.51758.51953-.51758-.22744-.51758-.51953.22549-.51758.51758-.51758z"/>
    <path d="m621.5 328.0957v1h1.21094l1.65625 2.86719h9.78906v-1h-9.21094l-1.65625-2.86719z"/>
    <path d="m626.5293 326.96289c-.83253 0-1.51758.687-1.51758 1.51953s.68505 1.51758 1.51758 1.51758 1.51758-.68505 1.51758-1.51758-.68505-1.51953-1.51758-1.51953zm0 1c.29209 0 .51757.22744.51758.51953 0 .29209-.22549.51758-.51758.51758s-.51758-.22549-.51758-.51758.22549-.51953.51758-.51953z"/>
    <path d="m621.50195 324.97656-.002 1 3.5332.006 1.0586 1.70899.85156-.52735-1.35156-2.18164z"/>
    <path d="m622.52539 324.03711c.83253 0 1.51953-.687 1.51953-1.51953s-.687-1.51758-1.51953-1.51758-1.51758.68505-1.51758 1.51758.68505 1.51953 1.51758 1.51953zm0-1c-.29209 0-.51758-.22744-.51758-.51953s.22549-.51758.51758-.51758.51953.22549.51953.51758-.22744.51953-.51953.51953z"/>
    <path d="m623.00195 322.01367-.002 1 3.31055.006.85351.82813.69532-.71875-1.14258-1.10938z"/>
    <path d="m630.53711 332.98242c-.83253 0-1.51953.68505-1.51953 1.51758s.687 1.51758 1.51953 1.51758 1.51758-.68505 1.51758-1.51758-.68505-1.51758-1.51758-1.51758zm0 1c.29209 0 .51758.22549.51758.51758s-.22549.51758-.51758.51758-.51953-.22549-.51953-.51758.22744-.51758.51953-.51758z"/>
    <path d="m633.57227 332.98242c-.83253 0-1.51758.68505-1.51758 1.51758s.68505 1.51758 1.51758 1.51758 1.51953-.68505 1.51953-1.51758-.687-1.51758-1.51953-1.51758zm0 1c.29209 0 .51953.22549.51953.51758s-.22744.51758-.51953.51758-.51758-.22549-.51758-.51758.22549-.51758.51758-.51758z"/>
    <path d="m632.77539 331.31055-.86328.5039 1.125 1.9375.86328-.5039z"/>
    <path d="m629.74609 331.28125-.86718.5 1.15625 2 .86718-.5z"/>
    <path d="m626.91797 331.34375-.89844.4375.96875 2 .89844-.4375z"/>
  </g>
</svg>
