<svg height="16" width="16" xmlns="http://www.w3.org/2000/svg">
  <g fill="#e6ddff" transform="translate(-993 27)">
    <path d="m6.0664062 0c-.4584999 0-.8936618.08512437-1.2949218.25585938-.39866.16293199-.753075.4015405-1.046875.7109375l-.0019532.00390624h-.0019531c-.28599.31113198-.5080625.68471098-.6640625 1.10937498-.16043.444469-.240065.9142138-.234375 1.3867188 0 .502663.075775.9737745.234375 1.3984375.156.417731.3780725.7854391.6640625 1.0957031l.0019531.0019531.0019532.0019532c.29293.3085309.6440856.5508381 1.0410156.7207031l.0039062.0019531.0019532.0019531c.4004.162932.8352987.2441406 1.2929687.2441407.4576 0 .8905156-.0812087 1.2910157-.2441407v-.0019531c.8800999-.37605 1.3164843-1.0822356 1.7089843-1.8222656.1594-.424663.2363281-.8940415.2363281-1.3984375h.0097657c0-.496597-.075275-.9609686-.234375-1.3847657-.1471-.4131049-.3783344-.7909811-.6777344-1.11132808-.2888-.311364-.6413562-.55591475-1.0351563-.71484374-.4104999-.17203701-.8518748-.25920838-1.296875-.25585938zm.0253907 8.6875c-2.49686 0-3.8373244.23298-4.8339844.984375-.49833.376131-.82734188.88616-1.01367188 1.482422-.18549999.596263-.24327062 1.051622-.24414062 1.84375l.8671875.001953h5.7597656c.025684-.242233.0664872-.466715.1425781-.710938.1336001-.427519.3692626-.792813.7265626-1.0625.7146-.538748 1.6764964-.705078 3.4667972-.705078.247268 0 .442092.012655.658203.019532-.03981-.071598-.093616-.133211-.138672-.201172-.227624.068009-.46419.111328-.714844.111328-.3281 0-.640634-.057006-.9277342-.173828v-.001953-.001953c-.2846001-.121794-.5360938-.2944095-.7460938-.5156255v-.0019531-.0019532c-.2051-.222459-.3646625-.4856432-.4765625-.7851562-.0152274-.0407783-.0201036-.0869897-.0332031-.1289062-.6819901-.0980181-1.4678421-.1523438-2.4921875-.1523438z" transform="translate(993 -27)"/>
    <path d="m1004.0976-21.92215c-.3288 0-.6407.0609-.9285.183312-.2858.116822-.5393.287706-.7499.509543v.0025.0012c-.2051.223081-.3642.490902-.4761.795386-.115.318684-.1718.655447-.1677.994233 0 .360409.054.697205.1677 1.001689.1119.299513.271.564227.4761.786686v.0012.0012c.21.221216.4616.395207.7462.517v.0012.0012c.2871.116822.5991.174612.9272.174612s.6388-.05779.926-.174612v-.0012c.631-.269628.9433-.776815 1.2247-1.307416.1143-.304483.169-.640658.169-1.00231h.01c0-.35606-.054-.689128-.1678-.99299-.1055-.296197-.2707-.567562-.4854-.79725-.207-.223248-.4608-.398078-.7431-.51203-.2944-.12335-.6106-.185713-.9296-.183312zm4.3498 9.320929h-.6214-7.4562l-.62129-.0012c.0006-.567955.042-.894809.17517-1.322329.13362-.42752.36912-.793522.72632-1.063207.7146-.53875 1.6753-.704663 3.4656-.704663s2.7193.165913 3.4333.705284c.3567.269064.5921.636309.7245 1.063828.133.427521.174.753753.174 1.32233z"/>
  </g>
</svg>
