<svg height="16" width="16" xmlns="http://www.w3.org/2000/svg">
  <path d="m460 140c-1.43719-.00082-2.59548.26776-3.53711.69922-.19253.0849-.3801.17695-.56055.2793-.0489.0286-.0932.0602-.14062.0898-.11916.0722-.23898.14417-.35156.22461-.0931.0665-.17671.14019-.26368.21094-.61254.49828-1.06089 1.10259-1.39453 1.75976-.0166.033-.0388.0645-.0547.0977-.0164.0341-.0273.0692-.043.10351-.20436.44371-.37317.902-.47266 1.37891-.0186.0893-.0217.18147-.0371.27148-.0451.24538-.0797.48765-.10156.72657-.002.0216-.004.0428-.006.0645-.0241.28728-.017.54917-.0137.81836.002.0999-.00079.19901.004.29883.0132.28766.0348.54468.0703.79492.0213.17484.0492.34669.0781.51953.005.023.007.0557.0117.0781v.002l.0215.0976c.031.16986.0542.3429.0918.50977l.10938.48828.008-.002 1.05469 5.00781 1.17382-.20703c.66034-.11709 1.13106-.21985 1.34961-.39453.10972-.0877.17262-.18253.20508-.35156.0325-.16904.0242-.41548-.0469-.75196l-.79102-3.74023c-.0711-.33649-.16295-.56845-.26367-.7168s-.20256-.21859-.34375-.26367c-.28239-.0902-.75932-.024-1.42383.0937l-.16211.0293c-.18209-1.06859-.21795-2.17204-.01-3.16992.24666-1.18237.80309-2.20573 1.83007-2.93946 1.01145-.72263 2.51511-1.08713 4.00977-1.08398 1.49466-.003 2.99832.36135 4.00977 1.08398 1.02698.73373 1.58341 1.75709 1.83007 2.93946.20795.99788.17233 2.10133-.01 3.16992l-.16211-.0293c-.66451-.1177-1.14144-.18395-1.42383-.0937-.14119.0451-.24303.11532-.34375.26367s-.19257.38031-.26367.7168l-.79102 3.74023c-.0711.33648-.0794.58292-.0469.75196.0325.16903.0954.26386.20508.35156.21855.17468.68927.27744 1.34961.39453l1.17382.20703 1.05469-5.00781.008.002.10938-.48828c.0376-.16687.0608-.3399.0918-.50977l.0215-.0976v-.002c.005-.0224.007-.0551.0117-.0781.0289-.17284.0568-.34469.0781-.51953.0355-.25024.0571-.50726.0703-.79492.005-.0998.002-.19893.004-.29883.003-.26919.0104-.53108-.0137-.81836-.002-.0217-.004-.0428-.006-.0645-.0219-.23892-.0565-.48119-.10156-.72657-.0154-.09-.0185-.18218-.0371-.27148-.0995-.47691-.2683-.9352-.47266-1.37891-.0157-.0343-.0266-.0694-.043-.10351-.0159-.0332-.0381-.0647-.0547-.0977-.33364-.65717-.78199-1.26148-1.39453-1.75976-.087-.0708-.17058-.14444-.26368-.21094-.11258-.0804-.2324-.15241-.35156-.22461-.0474-.0296-.0917-.0612-.14062-.0898-.18045-.10235-.36802-.1944-.56055-.2793-.94117-.43146-2.09946-.70004-3.53665-.69922z" fill="#e6ddff" transform="translate(-452 -140)"/>
</svg>
