<svg height="16" width="16" xmlns="http://www.w3.org/2000/svg">
  <path clip-rule="evenodd" d="m9.1575143.6647344-5.7108207 6.763351c1.4873726.2384882 3.9991256 2.1190296 3.6202658 4.6165036.7717492-1.852195-.6455282-4.1114076-2.0066154-5.0234831l4.981319-5.949392c-.2667965-.1965354-.4772255-.2948031-.8841487-.4069795zm-1.9211112.4715339c-.2221228.0009449-.3887735.034016-.380005.034016l-1.8240793 2.090683c-1.0243238.055937-2.0206488.1262362-2.9888428.224504-.6875604.0702992-1.2348095.6173858-1.3330319 1.3470614-.140296 1.2768755-.2104441 2.6239369-.2104441 4.0131023 0 1.389128.07011 2.736189.2104441 4.027086.09823.814035.6454715 1.220977 1.3330319 1.347062 1.9083288.308787 4.672679.01512 4.672679-2.609878 0-2.455596-4.0271924-3.5080055-5.4023093-2.8344559l6.3563829-7.5912186c-.1473259-.037795-.300548-.048-.4338255-.047622zm4.1942029 2.1523652s-3.5778488 7.9421095-3.9286457 8.7559555c-.5332082 1.206765-1.2628686 2.090759-2.3152554 2.399471.9261014.04195 1.8521423.05594 2.806303.05594 2.0905511 0 4.0833041-.09827 5.9495361-.280819.687364-.0703 1.248839-.631408 1.333032-1.347024.154545-1.290935.224429-2.637958.224429-4.0271238 0-1.3891653-.06988-2.7361889-.224429-4.0131023-.084208-.7296785-.645471-1.2768785-1.333032-1.3470644-.813845-.0842834-1.655799-.1545826-2.511938-.1965354z" fill="#e6ddff" fill-rule="evenodd"/>
</svg>
