<svg height="16" width="16" xmlns="http://www.w3.org/2000/svg">
  <g enable-background="new" fill="#E6DDFF" transform="matrix(2.1428449 0 0 2.1428449 -247.96316 -396.99767)">
    <path d="m116.5 186.5v5a3 .97898524 0 0 0 0 .0215 3 .97898524 0 0 0 3 .97852 3 .97898524 0 0 0 3-.97852 3 .97898524 0 0 0 -.004-.0215h.004v-5h-1v4.7207a3 .97898524 0 0 1 -2.0625.27149 3 .97898524 0 0 1 -1.9375-.23438v-4.75781z"/>
    <path d="m116.5 191.5v-5a3 .97898524 0 0 1 0-.0215 3 .97898524 0 0 1 3-.97852 3 .97898524 0 0 1 3 .97852 3 .97898524 0 0 1 -.004.0215h.004v5h-1v-4.7207a3 .97898524 0 0 0 -2.0625-.27149 3 .97898524 0 0 0 -1.9375.23438v4.75781z"/>
    <path d="m116.5 189.5v-1.0999c-.00024-.007-.00024-.0643 0-.0715.00079-.5405 1.3437-.82862 3-.82862s2.99921.33812 3 .87862c-.001.007-.002.0143-.004.0215l.004-.05v1.1499h-1v-.82045c-.5-.1294-1.2313-.17862-2-.17955-.71051.00079-1.5.0502-2 .14245v.85755z"/>
    <path d="m116.5 188.49998v1.0999c-.00024.007-.00024.0643 0 .0715.00079.5405 1.3437.82862 3 .82862s2.99921-.33812 3-.87862c-.001-.007-.002-.0143-.004-.0215l.004.05v-1.1499h-1v.82045c-.5.1294-1.2313.17862-2 .17955-.71051-.00079-1.5-.0502-2-.14245v-.85755z"/>
  </g>
</svg>
