<svg height="16" width="16" xmlns="http://www.w3.org/2000/svg">
  <g fill="#E6DDFF">
    <path d="m3 1a1 1 0 0 0 -1 1v13a1 1 0 0 0 1 1h10a1 1 0 0 0 1-1v-9.5a1 1 0 0 0 -.293-.707l-3.5-3.5a1 1 0 0 0 -.707-.293zm1 2h5.086l2.914 2.914v8.086h-8z" fill-rule="evenodd"/>
    <path d="m9 2v4h4z" fill-rule="evenodd"/>
    <path d="m4.986 3.986h1v1h-1zm2 0h1v1h-1zm-2 2h1v1h-1zm2 0h1v1h-1zm-2 6h1v1h-1zm2 0h1v1h-1zm2 0h1v1h-1zm-4-.989h6v-1.011l-1.469-2.552-1.531 2.047-1.469-1.061-1.531 1.566z"/>
  </g>
</svg>
