<svg height="16" width="16" xmlns="http://www.w3.org/2000/svg">
  <path d="m11.102017 4.1215356c-1.959198 0-1.959193 1.959197-1.959193 1.959197v4.8979824h.979597v-4.8979824s0-.979599.979596-.979599h.979597v4.408186h.979596v-4.408186h.979596c.979597 0 .979597.979599.979597.979599v4.8979824h.979596v-4.8979824s0-1.959197-1.959193-1.959197zm-9.142825.02129s-1.959192 0-1.959192 1.959192v2.93879c0 1.9591924 1.959192 1.9591924 1.959192 1.9591924h1.959193v-.979593h-1.959193s-.97959597-.000005-.97959597-.9795994v-1.010208h1.79584597v-.918373h-1.79584597v-1.010208c0-.979598.97959597-.979598.97959597-.979598h1.959193v-.979594zm4.408189 0s-1.959198 0-1.959198 1.959192v2.93879c0 1.9591924 1.959198 1.9591924 1.959198 1.9591924h1.959193v-.979593h-1.959193s-.979596-.000005-.979596-.9795994v-2.93879c0-.979598.979596-.979598.979596-.979598h1.959193v-.979593z" fill="#e6ddff"/>
</svg>
