<svg height="16" width="16" xmlns="http://www.w3.org/2000/svg">
  <path d="m13.048466 3.2086713c.543076.135685.957173.3768189 1.337325.7704945.196876.2105196.488769.5939905.512527.685644.0068.026457-.923225.651704-1.48667 1.0013103-.02041.015118-.10182-.074835-.193474-.2105197-.274923-.4005166-.56344-.5736189-1.004693-.6041953-.648295-.044221-1.065785.2951811-1.062391.862148 0 .1662992.02381.2645669.09165.4005165.142563.295181.407304.471799 1.238891.831572 1.530796.658507 2.185882 1.092964 2.593187 1.710689.454828.689046.556656 1.7887744.247786 2.6067784-.33944.889285-1.181194 1.493443-2.365777 1.69372-.366576.06463-1.235501.05443-1.629229-.01512-.858735-.152691-1.673348-.577019-2.1756963-1.133667-.1968756-.217323-.5804107-.784063-.5566526-.824769.010205-.01512.098419-.06803.1968756-.12548.095055-.05443.4548283-.261165.7942526-.458231l.6143547-.356408.128995.19011c.179905.274771.573623.651666.811219.77726.682239.359811 1.619047.308787 2.08066-.105071.196876-.179906.278324-.366614.278324-.6415 0-.247937-.03061-.3564094-.159533-.5430804-.1663-.237732-.505739-.437858-1.4697-.855345-1.103123-.4752-1.578315-.770494-2.0127758-1.238891-.2511874-.27137-.4887685-.706016-.5871987-1.069191-.0814489-.301984-.1018205-1.0589854-.0374174-1.3644846.2274142-1.065789 1.0318449-1.8091086 2.1926699-2.0297196.376743-.071433 1.252468-.04422 1.622438.047622zm-5.0200591.8926866.0068.8757165h-1.3916416-1.3916333v3.9542932 3.9542554h-.984325-.9843251v-3.9542554-3.9542932h-1.3916333-1.3916334v-.8587464c0-.4751622.010205-.872315.023811-.8824819.010205-.015118 1.7039017-.018898 3.7574059-.015118l3.7370419.011339z" fill="#e6ddff"/>
</svg>
