<svg height="16" width="16" xmlns="http://www.w3.org/2000/svg">
  <path d="m10.40084 9.0930813s.719484.2172042 1.13747.4286324c.145027.07335.395977.219685.576994.412122.177307.1885023.263763.3791673.263763.3791673l2.868914 5.185229-5.227295.0018-2.1415774-3.936464s-.4388412-.753979-.7088619-.972599c-.2252474-.182509-.3213063-.247351-.5440098-.247351h-1.0888842l-.0007687 5.153445h-4.686584v-14.99704931h7.2639938c2.5796182 0 5.9816702.77176601 5.9816702 4.30067931 0 3.5289135-3.694938 4.2922468-3.694938 4.2922468zm-4.8643376-5.7809991v3.7492714h2.2243273s1.7244209 0 1.8391388-1.834508c.1197281-1.9144445-1.8402231-1.9127792-1.8402231-1.9127792z" fill="#e6ddff" fill-rule="evenodd"/>
</svg>
