<svg xmlns="http://www.w3.org/2000/svg" width="16" height="16" version="1.1">
 <g fill="#e6ddff"  transform="translate(-31.97559,-220.36218)">
  <path opacity="0.75" d="m1.02441 8.00002 2-5h1l-2 5z" transform="translate(31.97559,220.36218)"/>
  <path opacity="0.75" d="m15.02441 8.00002-2-5h-1l2 5z" transform="translate(31.97559,220.36218)"/>
  <path opacity="0.75" d="m3.61816 4.0078325 0.40625-1.0078125h8l0.398438 0.9921875z" transform="translate(31.97559,220.36218)"/>
  <path opacity="0.15" d="m3.6239223 4.0012818v4.0216698h-1.6130874z" transform="translate(31.97559,220.36218)"/>
  <path opacity="0.15" d="m44.394153 224.36346v4.02167h1.613087z"/>
  <path opacity="0.25" d="m4.0216698 4.0454759 8.0027402-0.0454559v4h-8z" transform="translate(31.97559,220.36218)"/>
  <path d="m1.03125 8v7h14v-7h-14zm4 3h1v1h4v-1h1v2h-6v-2z" transform="translate(31.97559,220.36218)"/>
 </g>
</svg>
