<svg xmlns="http://www.w3.org/2000/svg" fill="none" width="16" height="16" viewBox="0 0 16 16">
 <g clip-path="url(#clip0)">
  <rect fill="#e6ddff" opacity=".4" width="16" height="16" rx="1"/>
  <path fill="#e6ddff" fill-rule="evenodd" d="M16 7.826V5.8238C16.1281 5.82971 16.2568 5.83606 16.3859 5.84286L16.2807 7.84009C16.1867 7.83515 16.0932 7.83045 16 7.826Z" clip-rule="evenodd"/>
  <path fill="#e6ddff" d="M16 5.8238C11.3776 5.61061 7.37545 5.98044 4.43799 7.49862C2.90547 8.29068 1.65869 9.39718 0.77896 10.8833C0.470105 11.405 0.21055 11.9666 5.24521e-06 12.5688V15C5.24521e-06 15.5523 0.447721 16 1.00001 16H1.35349C1.47003 14.2975 1.87491 12.958 2.50001 11.9021C3.16749 10.7745 4.1184 9.91513 5.35627 9.27535C7.82787 7.99794 11.4196 7.60748 16 7.826V5.8238Z"/>
 </g>
 <defs>
  <clipPath id="clip0">
   <rect fill="#fff" width="16" height="16"/>
  </clipPath>
 </defs>
</svg>
