<svg xmlns="http://www.w3.org/2000/svg" width="16" height="16" version="1.1">
 <g id="layer1" transform="translate(-31.97559,-220.36218)">
  <path fill="#E6DDFF" d="m 34.541788,222.36336 -0.5,0.5 0,7.52344 c 0.01241,0.99754 1.010169,2.02365 1.994369,2.00781 l 7.990085,0 c 1.22279,-0.007 2.061362,-0.72154 2.046796,-2.0026 l 0,-7.52865 -0.5,-0.5 z m 0.5,1 10.03125,0 0,7.02889 c 0.02801,0.53221 -0.244067,1.00993 -1.038563,1.00236 l -7.98727,0 c -0.547572,0 -1.025146,-0.51078 -1.005417,-0.99981 z"/>
  <path fill="#E6DDFF" d="m 33.034131,222.38623 c 0.0036,0.44903 0.490704,1.02938 1.001458,1.00553 l 12.14143,0 c 0.470758,0.006 0.86089,-0.50027 0.86089,-0.97242 0,-0.47215 -0.395656,-1.04197 -0.866414,-1.03586 l -12.135906,0.0166 c -0.543543,-0.003 -0.999578,0.47629 -1.001458,0.98615 z"/>
  <path fill="#E6DDFF" d="m 40.140409,233.04487 c -0.237096,0.79317 -1.505881,2.0046 -3.056843,2.76451 -0.803949,-0.0413 -0.832493,-0.57613 -0.676565,-0.83327 1.369137,-0.6708 2.409257,-1.34805 2.599709,-1.9818 l 1.133699,0.0515 z"/>
  <path fill="#E6DDFF" d="m 39.029302,232.07845 2.033338,0 0,1.30935 -2.033338,0 z"/>
  <path fill="#E6DDFF" d="m 39.926047,233.04487 c 0.237096,0.79317 1.505881,2.0046 3.056843,2.76451 0.803949,-0.0413 0.832493,-0.57613 0.676565,-0.83327 -1.369137,-0.6708 -2.409257,-1.34805 -2.599709,-1.9818 l -1.133699,0.0515 z"/>
  <path style="opacity:0.98999999;fill:#E6DDFF" d="m 36.035402,214.22559 0.01755,-5.5052 0.01755,-5.50521 4.758872,2.7678 4.758873,2.76781 -4.776425,2.73741 z"/>
  <path fill="#E6DDFF" d="m 13.59375,203.95269 -0.5,0.5 0,7.52344 c 0.01241,0.99754 1.010169,2.02365 1.994369,2.00781 l 7.990085,0 c 1.22279,-0.007 2.061362,-0.72154 2.046796,-2.0026 l 0,-7.52865 -0.5,-0.5 z m 0.5,1 10.03125,0 0,7.02889 c 0.02801,0.53221 -0.244067,1.00993 -1.038563,1.00236 l -7.98727,0 c -0.547572,0 -1.025146,-0.51078 -1.005417,-0.99981 z"/>
  <path fill="#E6DDFF" d="m 12.086093,203.97556 c 0.0036,0.44903 0.490704,1.02938 1.001458,1.00553 l 12.14143,0 c 0.470758,0.006 0.86089,-0.50027 0.86089,-0.97242 0,-0.47215 -0.395656,-1.04197 -0.866414,-1.03586 l -12.135906,0.0166 c -0.543543,-0.003 -0.999578,0.47629 -1.001458,0.98615 z"/>
  <path fill="#E6DDFF" d="m 19.192371,214.6342 c -0.237096,0.79317 -1.505881,2.0046 -3.056843,2.76451 -0.803949,-0.0413 -0.832493,-0.57613 -0.676565,-0.83327 1.369137,-0.6708 2.409257,-1.34805 2.599709,-1.9818 l 1.133699,0.0515 z"/>
  <path fill="#E6DDFF" d="m 18.081264,213.66778 2.033338,0 0,1.30935 -2.033338,0 z"/>
  <path fill="#E6DDFF" d="m 18.978009,214.6342 c 0.237096,0.79317 1.505881,2.0046 3.056843,2.76451 0.803949,-0.0413 0.832493,-0.57613 0.676565,-0.83327 -1.369137,-0.6708 -2.409257,-1.34805 -2.599709,-1.9818 l -1.133699,0.0515 z"/>
  <path style="opacity:0.75;fill:#E6DDFF" d="m 17.6875,206.39019 a 0.50024408,0.50024408 0 1 0 -0.25,0.96875 l 2.78125,1.53125 -2.84375,1.53125 a 0.50005,0.50005 0 1 0 0.46875,0.875 L 21.5,209.32769 a 0.50005,0.50005 0 0 0 0,-0.875 l -3.5625,-1.96875 a 0.50005,0.50005 0 0 0 -0.25,-0.0937 z"/>
  <rect style="opacity:0.3;fill:#E6DDFF" width="8.031" height="5.969" x="4.03" y="4.06" transform="translate(31.97559,220.36218)"/>
 </g>
</svg>
