<svg width="16" height="16" style="enable-background:new" version="1.1" xmlns="http://www.w3.org/2000/svg">
 <title>Paper Symbolic Icon Theme</title>
 <g transform="translate(-265.00041,395.00336)">
  <path d="m271.49699-394.00336c-0.79399 9.7e-4 -0.78072 0.0333-0.53125 1.03125l1.625 4.96875h-4.5l-1.21875-1.78125c-0.13926-0.20883-0.1227-0.21873-0.34375-0.21875h-0.21875c-0.42773 0-0.28125 0.4375-0.28125 0.4375l0.28125 2.5625-0.28125 2.5625s-0.13986 0.43749 0.25 0.4375h0.25c0.21159 0 0.20422-9e-3 0.34375-0.21875l1.21875-1.78125h4.5l-1.625 4.9375c-0.26171 1.04691-0.2647 1.06251 0.53125 1.0625 0.43199 0 0.43388-0.0117 0.71875-0.5l3.6875-5.5h3.09375c0.554 0 1-0.446 1-1s-0.446-1-1-1h-3.09375l-3.6875-5.5c-0.2665-0.45685-0.28331-0.49822-0.65625-0.5h-0.0625z" style="fill:#808080"/>
 </g>
</svg>
