<svg xmlns="http://www.w3.org/2000/svg" width="16" height="16" version="1.1">
 <title id="title9167">
  Gnome Symbolic Icon Theme
 </title>
 <g id="layer9" transform="translate(-161.0002,-397)">
  <path d="m 167.5002,397 c -3.578,0 -6.5,2.92199 -6.5,6.5 0,3.57801 2.922,6.5 6.5,6.5 0.1705,0 0.33269,-0.0182 0.5,-0.0312 l 0,-2.03125 c -0.16732,0.0186 -0.32741,0.0625 -0.5,0.0625 -2.49712,0 -4.5,-2.00288 -4.5,-4.5 0,-2.49712 2.00288,-4.5 4.5,-4.5 2.49712,0 4.5,2.00288 4.5,4.5 0,0.1726 -0.0439,0.33268 -0.0625,0.5 l 2.03125,0 c 0.013,-0.16731 0.0312,-0.3295 0.0312,-0.5 0,-3.57801 -2.922,-6.5 -6.5,-6.5 z" style="fill:#bebebe"/>
  <path d="M 167.40625,400 A 0.50005,0.50005 0 0 0 167,400.5 l 0,2.5 -1.5,0 a 0.50005,0.50005 0 1 0 0,1 l 2,0 a 0.50005,0.50005 0 0 0 0.5,-0.5 l 0,-3 a 0.50005,0.50005 0 0 0 -0.59375,-0.5 z" style="fill:#bebebe"/>
  <path class="warning" d="m 169.8752,405.06918 c -0.49245,0 -0.875,0.37924 -0.875,0.8674 l 0,6.19571 c 0,0.48816 0.38255,0.8674 0.875,0.8674 l 6.25,0 c 0.49245,0 0.875,-0.37924 0.875,-0.8674 l 0,-6.19571 c 0,-0.48816 -0.38255,-0.8674 -0.875,-0.8674 l -6.25,0 z m 2.125,0.99131 2,0 0,3.96526 -2,0 0,-3.96526 z m 0,4.95657 2,0 0,0.99132 -2,0 0,-0.99132 z" style="fill:#f57900"/>
 </g>
</svg>
