<svg width="16" height="16" version="1.1" xmlns="http://www.w3.org/2000/svg" xmlns:osb="http://www.openswatchbook.org/uri/2009/osb">
 <g transform="translate(-552,-220)">
  <path d="m555.99414 221c-1.2582 0.0145-2.17889-0.0306-2.93164 0.38477-0.37637 0.20766-0.67323 0.55938-0.83789 0.99804-0.16467 0.43867-0.22461 0.95958-0.22461 1.61719v8c0 0.65761 0.0599 1.17858 0.22461 1.61719 0.16468 0.43861 0.46153 0.78852 0.83789 0.99609 0.75272 0.41513 1.67354 0.37165 2.93164 0.38672h2e-3 8.00586 4e-3c1.25819-0.0145 2.17889 0.0306 2.93164-0.38477 0.37637-0.20766 0.67322-0.55938 0.83789-0.99804 0.16453-0.43867 0.22447-0.95958 0.22447-1.61719v-8c0-0.65761-0.0599-1.17858-0.22461-1.61719-0.16468-0.43861-0.46153-0.78852-0.83789-0.99609-0.75272-0.41513-1.67355-0.37165-2.93164-0.38672h-2e-3 -8.00586zm6e-3 1h8c1.25862 0.0152 2.0891 0.0599 2.45508 0.26172 0.18342 0.10116 0.28722 0.21286 0.38476 0.47266 0.09741 0.25979 0.16002 0.67323 0.16002 1.26562v8c0 0.59239-0.0626 1.00572-0.16016 1.26562-0.0976 0.25991-0.20135 0.37147-0.38476 0.47266-0.36596 0.20192-1.19656 0.24701-2.45508 0.26172h-7.99414-0.00586c-1.25863-0.0152-2.0891-0.0599-2.45508-0.26172-0.18342-0.10116-0.28722-0.21286-0.38476-0.47266-0.09755-0.25979-0.16016-0.67323-0.16016-1.26562v-8c0-0.59239 0.0626-1.00572 0.16016-1.26562 0.0976-0.25991 0.20135-0.37147 0.38476-0.47266 0.36596-0.20192 1.19655-0.24702 2.45508-0.26172z" style="fill:#808080"/>
  <path d="m554.25 230c-0.1385 0-0.25 0.1115-0.25 0.25v2.5c0 0.1385 0.1115 0.25 0.25 0.25h2.5c0.1385 0 0.25-0.1115 0.25-0.25v-2.5c0-0.1385-0.1115-0.25-0.25-0.25z" style="fill:#808080;opacity:.5"/>
  <rect x="563" y="232" width="3" height="1" rx=".25" ry=".25" style="fill:#808080"/>
  <rect x="563" y="230" width="3" height="1" rx=".25" ry=".25" style="fill:#808080"/>
  <path d="m557 220.99805v3.99998h-2.47656s2.33386 3.96467 5.47656 8.33c3.14222-4.36501 5.47461-8.32805 5.47461-8.32805h-2.47461v-4.00193zm1 1h4v4.00193h1.536c-0.67638 1.34999-1.59551 2.6278-3.536 5.51751-1.94089-2.89017-2.85957-4.16929-3.536-5.51946h1.536z" style="fill:#808080"/>
 </g>
</svg>
