<svg width="16" height="16" xmlns="http://www.w3.org/2000/svg">
 <g fill="gray">
  <path d="M8 1.333L4.5 5H1.87S1 5.893 1 8.001C1 10.11 1.87 11 1.87 11H4.5L8 14.667z"/>
  <path d="M10.524 4.926l-.707.707.354.354a2.999 2.999 0 0 1 0 4.242l-.354.353.707.707.354-.353a4 4 0 0 0 0-5.656z" font-family="sans-serif" font-weight="400" overflow="visible"/>
  <path d="M12.645 2.805l-.707.707.354.353a5.999 5.999 0 0 1 0 8.485l-.354.353.707.707.354-.353a7 7 0 0 0 0-9.899z" font-family="sans-serif" font-weight="400" overflow="visible"/>
 </g>
</svg>
