<svg xmlns="http://www.w3.org/2000/svg" width="16" height="16" version="1.1">
 <title id="title9167">
  Gnome Symbolic Icon Theme
 </title>
 <g id="layer9" transform="translate(-81 -217)">
  <rect width="2" height="6" x="228" y="86" transform="matrix(0,1,1,0,0,0)" style="fill:#bebebe"/>
  <path d="m86.469 217c-0.49033 0-0.79607 0.22846-1.0312 0.46875s-0.4375 0.52725-0.4375 1v0.53125h-1-1v1 12 1h1 10 1v-1-12-1h-1-1v-0.375-0.0312-0.0312c-0.02393-0.4306-0.17023-0.72105-0.40625-1-0.22374-0.26444-0.6267-0.52931-1.1562-0.53125v-0.0312h-0.0625-4.9062zm0.53125 2h4v1 1h1 1v10h-8v-10h1 1v-1-1z" style="fill:#bebebe"/>
 </g>
</svg>
