<?xml version="1.0" encoding="UTF-8"?>
<!-- Created with Inkscape (http://www.inkscape.org/) -->
<svg id="svg7384" width="16" height="16" version="1.1" xmlns="http://www.w3.org/2000/svg" xmlns:cc="http://creativecommons.org/ns#" xmlns:dc="http://purl.org/dc/elements/1.1/" xmlns:rdf="http://www.w3.org/1999/02/22-rdf-syntax-ns#">
 <metadata id="metadata90">
  <rdf:RDF>
   <cc:Work rdf:about="">
    <dc:format>image/svg+xml</dc:format>
    <dc:type rdf:resource="http://purl.org/dc/dcmitype/StillImage"/>
    <dc:title>Gnome Symbolic Icon Theme</dc:title>
   </cc:Work>
  </rdf:RDF>
 </metadata>
 <title id="title9167">Gnome Symbolic Icon Theme</title>
 <g id="layer9" transform="translate(-221 -217)">
  <path id="path6282" d="m226 228.06v1.9375h3.0002v-2z" style="fill:#bebebe"/>
  <path id="path6284" d="m226.47 217c-0.49033 0-0.79607 0.22846-1.0312 0.46875s-0.4375 0.5585-0.4375 1.0312v0.5h-1-1v1 12 1h1 7v-2h-6v-10h1 1v-1-1h4v1 1h1 1v3h2v-4-1h-1-1v-0.375-0.0312-0.0312c-0.0239-0.4306-0.17023-0.72105-0.40625-1-0.22374-0.26444-0.6267-0.52931-1.1562-0.53125v-0.0312h-0.0625-4.9062z" style="block-progression:tb;color:#bebebe;fill:#bebebe;text-indent:0;text-transform:none"/>
  <path id="path6288" d="m233.84 224.97a1.0001 1.0001 0 0 0-0.59375 0.28125l-3 3a1.0001 1.0001 0 0 0 0.71875 1.7188h2.5625l-1.2812 1.2812a1.0165 1.0165 0 1 0 1.4375 1.4375l3-3a1.0001 1.0001 0 0 0-0.71875-1.7188h-2.5625l1.2812-1.2812a1.0001 1.0001 0 0 0-0.84375-1.7188z" style="block-progression:tb;color:#bebebe;fill:#bebebe;text-indent:0;text-transform:none"/>
  <rect id="rect6290" x="235.97" y="227.97" width="1" height="1" style="color:#bebebe;fill:#bebebe"/>
  <rect id="rect6292" x="229.97" y="228.97" width="1" height="1" style="color:#bebebe;fill:#bebebe"/>
  <rect id="rect6294" x="233.97" y="224.97" width="1" height="1" style="color:#bebebe;fill:#bebebe"/>
  <rect id="rect6296" x="231.97" y="231.97" width="1" height="1" style="color:#bebebe;fill:#bebebe"/>
  <path id="path6298" d="m233.12 225.41-2 3 1.6875 1.125 2-3-1.6875-1.125z" style="block-progression:tb;color:#bebebe;fill:#bebebe;text-indent:0;text-transform:none"/>
  <path id="path6300" d="m234.12 228.41-2 3 1.6875 1.125 2-3-1.6875-1.125z" style="block-progression:tb;color:#bebebe;fill:#bebebe;text-indent:0;text-transform:none"/>
 </g>
</svg>
