<svg width="16" height="16" version="1.1" xmlns="http://www.w3.org/2000/svg">
 <title>elementary Symbolic Icon Theme</title>
 <g transform="translate(-293.0004,462)">
  <path d="m300.50024-461c-0.277 0-0.5 0.223-0.5 0.5v4.875l-1.71875-1.5c-0.31288-0.27345-0.75785-0.21912-1.03125 0.0937-0.2734 0.31288-0.25038 0.78909 0.0625 1.0625l2.25 1.96875-2.25 1.96875c-0.31288 0.2734-0.3359 0.74962-0.0625 1.0625s0.71837 0.36715 1.03125 0.0937l1.71875-1.5v4.875c0 0.277 0.223 0.5 0.5 0.5 0.28242 0 0.4375-0.0195 0.65625-0.1875l3.53125-3.15625c0.11231-0.0999 0.18145-0.24072 0.21875-0.375 0.0142-0.0513 0.0283-0.10335 0.0312-0.15625 4e-3 -0.042 3e-3 -0.083 0-0.125-6e-3 -0.0536-0.0136-0.10455-0.0312-0.15625-0.0385-0.13396-0.10556-0.2761-0.21875-0.375l-2.8125-2.46875 2.8125-2.46875c0.11319-0.0989 0.18028-0.24105 0.21875-0.375 0.0176-0.0518 0.0254-0.10264 0.0312-0.15625 3e-3 -0.042 4e-3 -0.083 0-0.125-3e-3 -0.0529-0.017-0.10494-0.0312-0.15625-0.0373-0.13429-0.10644-0.2751-0.21875-0.375l-3.53125-3.15625c-0.19929-0.16088-0.42745-0.1874-0.65625-0.1874zm0.5 2.0625 2.09375 1.875-2.09375 1.8125zm0 6.1875 2.09375 1.8125-2.09375 1.875z" style="fill:#bebebe"/>
  <path d="m309.0004-448.00067a2.0000001 2.0000001 0 1 1-4 0 2.0000001 2.0000001 0 1 1 4 0z" style="fill:#bebebe;filter-blend-mode:normal;filter-gaussianBlur-deviation:0"/>
 </g>
</svg>
