<svg xmlns="http://www.w3.org/2000/svg" width="16" height="16" version="1.1" viewBox="0 0 16 16">
 <title id="title9167">
  Gnome Symbolic Icon Theme
 </title>
 <g id="layer9" transform="translate(-81 -396.99)">
  <path fill="#444" d="m81 398.99v11.01c2e-5 0.83333 0.57399 1.5057 1.0625 1.75 0.48851 0.24436 0.9375 0.25 0.9375 0.25h12s0.44899-6e-3 0.9375-0.25c0.48851-0.24426 1.0776-0.91681 1.0625-1.75v-3h-13.031l-0.46875 3.0312c-0.0164 0.2618-0.26945 0.48511-0.53125 0.46875-0.2618-0.0164-0.48511-0.26945-0.46875-0.53125l0.5-3.5c0.01-0.22281 0.18713-0.42714 0.40625-0.46875 0.0312-3e-3 0.0626-3e-3 0.0937 0h11.5l5e-5 -5.0101c0-1-1-1-1-1l-5 7e-5 -2-2c-1.4316 2e-3 -5 0-5 0s-1 0-1 1z"/>
 </g>
</svg>
