<svg xmlns="http://www.w3.org/2000/svg" width="16" height="16" version="1.1" viewBox="0 0 16 16">
 <g id="layer9" transform="translate(-61 -397)">
  <path fill="#444" fill-rule="evenodd" d="m63 398c-0.83333 0-1.5253 0.56422-1.7695 1.0527-0.24426 0.48852-0.23047 0.94727-0.23047 0.94727v10c0 0.83333 0.56422 1.5253 1.0527 1.7695s0.94727 0.23047 0.94727 0.23047h12c0.83333 0 1.5253-0.56422 1.7695-1.0527 0.24426-0.48852 0.23047-0.94727 0.23047-0.94727v-8s0.01379-0.45875-0.23047-0.94727c-0.24426-0.48851-0.9362-1.0527-1.7695-1.0527h-4.5859l-2-2zm0 2h4.5859l2 2h5.4141v8h-12z"/>
 </g>
</svg>
