<?xml version="1.0" encoding="UTF-8"?>
<!-- Created with Inkscape (http://www.inkscape.org/) -->
<svg id="svg7384" width="16" height="16" version="1.1" xmlns="http://www.w3.org/2000/svg" xmlns:cc="http://creativecommons.org/ns#" xmlns:dc="http://purl.org/dc/elements/1.1/" xmlns:rdf="http://www.w3.org/1999/02/22-rdf-syntax-ns#">
 <metadata id="metadata90">
  <rdf:RDF>
   <cc:Work rdf:about="">
    <dc:format>image/svg+xml</dc:format>
    <dc:type rdf:resource="http://purl.org/dc/dcmitype/StillImage"/>
    <dc:title>Gnome Symbolic Icon Theme</dc:title>
   </cc:Work>
  </rdf:RDF>
 </metadata>
 <title id="title9167">Gnome Symbolic Icon Theme</title>
 <g id="layer9" transform="translate(-141 -277)">
  <path id="path10497" d="m146.78 286a1.0001 1.0001 0 0 0-0.5 1.7188l1.2812 1.2812-1.2812 1.2812a1.0165 1.0165 0 1 0 1.4375 1.4375l2-2 0.6875-0.71875-0.6875-0.71875-2-2a1.0001 1.0001 0 0 0-0.9375-0.28125z" style="block-progression:tb;color:#000000;fill:#bebebe;text-indent:0;text-transform:none"/>
  <path id="path10499" d="m156 286.01v0.99451c0 1.6447-1.3553 3-3 3h-1v-2h1c0.5713 0 1-0.4287 1-1v-0.98346zm-8.0073-4.0055h-2.9927c-0.5713 0-1 0.4287-1 1v4c0 0.5713 0.4287 1 1 1h4v2h-4c-1.6447 0-3-1.3553-3-3v-4c0-1.6447 1.3553-3 3-3h2.9816z" style="block-progression:tb;color:#000000;fill:#bebebe;text-indent:0;text-transform:none"/>
  <rect id="rect10501" transform="scale(-1,1)" x="-147" y="286" width="1" height="1" style="color:#000000;fill:#bebebe"/>
  <rect id="rect10503" transform="scale(-1,1)" x="-147" y="291" width="1" height="1" style="color:#000000;fill:#bebebe"/>
  <path id="path10505" d="m153 277c-2.2091 0-4 1.7909-4 4 0 2.2092 1.7909 4 4 4s4-1.7908 4-4c0-2.2091-1.7909-4-4-4zm-1 2h2v4h-2l-4e-3 -1.9886-0.9959-0.0114v-1z" style="color:#000000;fill:#bebebe"/>
 </g>
</svg>
