<svg width="16" height="16.003" style="enable-background:new" version="1.1" xmlns="http://www.w3.org/2000/svg">
 <title>Paper Symbolic Icon Theme</title>
 <g transform="translate(-265.00188,675)">
  <path d="m269.50188-671.99664c-2.48528 0-4.5 2.01472-4.5 4.5s2.01472 4.5 4.5 4.5c1.90471-3e-3 3.60143-1.20422 4.23633-3l3.26367-4e-3 -2e-4 1.004h3l2e-4 -1.00791 1 4e-3v-3l-7.26367 4e-3c-0.6349-1.79578-2.33162-2.99733-4.23633-3zm0 3c0.82843 0 1.5 0.67157 1.5 1.5s-0.67157 1.5-1.5 1.5-1.5-0.67157-1.5-1.5 0.67157-1.5 1.5-1.5z" style="fill:#5c616c;opacity:.35"/>
  <path d="m276.00168-663.99664v1c0 0.27614 0.10029 0.53779 0.28125 0.71875l0.78125 0.78125-0.78125 0.78125c-0.18096 0.18096-0.28125 0.44261-0.28125 0.71875v1h1c0.27614 0 0.53779-0.10029 0.71875-0.28125l0.78125-0.78125 0.78125 0.78125c0.18096 0.18096 0.44261 0.28125 0.71875 0.28125h1v-1c0-0.27614-0.10029-0.53779-0.28125-0.71875l-0.78125-0.78125 0.78125-0.78125c0.18096-0.18096 0.28125-0.44261 0.28125-0.71875v-1h-1c-0.27614 0-0.53779 0.10029-0.71875 0.28125l-0.78125 0.78125-0.78125-0.78125c-0.18096-0.18096-0.44261-0.28125-0.71875-0.28125h-1z" style="fill:#5c616c"/>
 </g>
</svg>
