<?xml version="1.0" encoding="UTF-8"?>
<!-- Created with Inkscape (http://www.inkscape.org/) -->
<svg id="svg7384" width="16" height="16" version="1.1" xmlns="http://www.w3.org/2000/svg" xmlns:cc="http://creativecommons.org/ns#" xmlns:dc="http://purl.org/dc/elements/1.1/" xmlns:rdf="http://www.w3.org/1999/02/22-rdf-syntax-ns#">
 <metadata id="metadata90">
  <rdf:RDF>
   <cc:Work rdf:about="">
    <dc:format>image/svg+xml</dc:format>
    <dc:type rdf:resource="http://purl.org/dc/dcmitype/StillImage"/>
    <dc:title>Gnome Symbolic Icon Theme</dc:title>
   </cc:Work>
  </rdf:RDF>
 </metadata>
 <title id="title9167">Gnome Symbolic Icon Theme</title>
 <g id="layer9" transform="translate(-361 -177)">
  <path id="path16213" d="m366 184c-0.30943 4e-5 -0.61463 0.0905-0.8125 0.28125l-3.5938 3.7188 3.6562 3.7188c0.19771 0.19101 0.44055 0.28124 0.75 0.28125h1v-1c-5e-5 -0.25688-0.12958-0.52871-0.3125-0.71875l-1.2812-1.2812h3.625c0.0217-0.27718 0.11278-1 0.72266-2h-4.3789l1.2188-1.2812c0.18273-0.19024 0.40624-0.46185 0.40625-0.71875v-1z" style="block-progression:tb;color:#000000;fill:#bebebe;opacity:.5;text-indent:0;text-transform:none"/>
  <path id="path16215" class="error" d="m373.5 186c-1.933 0-3.5 1.567-3.5 3.5s1.567 3.5 3.5 3.5 3.5-1.567 3.5-3.5-1.567-3.5-3.5-3.5zm-2.5 2.9688h5v1.0312h-5v-1.0312z" style="color:#bebebe;fill:#ef2929"/>
  <path id="path16217" d="m373.48 185.03 2.9258-3.0312-3.6562-3.7188c-0.19771-0.19101-0.44055-0.28124-0.75-0.28125h-1v1c5e-5 0.25688 0.12958 0.52871 0.3125 0.71875l1.2812 1.2812h-4.5937c-0.52831-7e-3 -1 0.47164-1 1s0.47169 1.0075 1 1h4.625l-1.2188 1.2812c-0.18273 0.19024-0.40624 0.46185-0.40625 0.71875v0.42578c0.62016-0.37715 1.9085-0.50701 2.4805-0.39453z" style="block-progression:tb;color:#000000;fill:#bebebe;opacity:.5;text-indent:0;text-transform:none"/>
 </g>
</svg>
