<svg xmlns="http://www.w3.org/2000/svg" width="16" height="16" version="1.1">
 <title id="title9167">
  Gnome Symbolic Icon Theme
 </title>
 <g id="layer9" transform="translate(-201.0002,-177)">
  <path d="m 208.84821,181.96875 c 1.64243,-0.092 3.0955,1.17008 3.1875,2.8125 -1e-4,1.40136 -0.37771,1.92177 -1.59375,2.84375 -0.19093,0.14364 -0.3256,0.2506 -0.375,0.3125 -0.0494,0.0621 -0.0312,0.0332 -0.0312,0.0312 0.007,0.52831 -0.47163,1 -1,1 -0.52837,0 -1.007,-0.47169 -1,-1 0,-0.50239 0.22424,-0.94342 0.46875,-1.25 0.24451,-0.30663 0.4913,-0.51638 0.71875,-0.6875 0.20405,-0.16056 0.46083,-0.38454 0.6875,-0.65625 0.0935,-0.1121 0.129,-0.30766 0.125,-0.4375 l 0,-0.0312 c -0.0316,-0.56324 -0.49926,-0.9691 -1.0625,-0.9375 -0.56324,0.0316 -0.9691,0.43676 -0.9375,1 l -2,0 c -0.092,-1.64243 1.17007,-2.9079 2.8125,-3 z m 0.1875,8 c 0.55228,0 1,0.44772 1,1 0,0.55228 -0.44772,1 -1,1 -0.55228,0 -1,-0.44772 -1,-1 0,-0.55228 0.44772,-1 1,-1 z" style="fill:#bebebe"/>
  <path d="m 206.0002,187 1.01562,0 c 0.0239,-0.34343 0.13908,-0.71932 0.51425,-1 l -1.52988,0 z" style="opacity:0.35;fill:#bebebe"/>
  <path d="m 204.0002,185 1.01562,0 c -0.0156,-0.68021 0.10253,-1.65205 0.66407,-2.18017 C 205.09617,183 204.43282,183.50337 204.0002,184 z" style="opacity:0.35;fill:#bebebe"/>
  <path d="m 214.0002,185 -1.01563,0 c 0.0156,-0.68021 -0.10252,-1.65205 -0.66406,-2.18017 0.58372,0.18017 1.24706,0.68354 1.67969,1.18017 z" style="opacity:0.35;fill:#bebebe"/>
  <path d="m 209,178.5 c -2.93267,0 -5.40212,1.06197 -7.3125,2.71875 a 0.50005,0.50005 0 0 0 -0.1875,0.375 l 0,1.40625 a 0.50005,0.50005 0 0 0 0.5,0.5 l 1.46875,0 a 0.50005,0.50005 0 0 0 0.34375,-0.125 c 1.45156,-1.20829 2.99415,-1.875 5.1875,-1.875 2.18694,0 3.76041,0.70348 5.21875,1.875 a 0.50005,0.50005 0 0 0 0.3125,0.125 l 1.46875,0 a 0.50005,0.50005 0 0 0 0.5,-0.5 l 0,-1.375 a 0.50005,0.50005 0 0 0 -0.15625,-0.375 C 214.60883,179.69983 211.95078,178.5 209,178.5 z m 0,1 c 2.60609,0 4.94914,1.07652 6.5,2.40625 l 0,0.59375 -0.875,0 c -1.53582,-1.18206 -3.31212,-2 -5.625,-2 -2.30727,0 -4.08249,0.77549 -5.625,2 l -0.875,0 0,-0.65625 C 204.22017,180.41356 206.3908,179.5 209,179.5 z" style="opacity:0.32000002;fill-opacity:0"/>
 </g>
</svg>
