<svg xmlns="http://www.w3.org/2000/svg" width="16" height="16" version="1.1">
 <title id="title9167">
  Gnome Symbolic Icon Theme
 </title>
 <path style="fill:#ff7800" class="warning" d="m 3,1 c -2.0001,0 -2,2 -2,2 v 10 c 0,2 2,2 2,2 l 10,-0.0937 c 1.9999,-0.0187 2,-1.9062 2,-1.9062 v -10 c 0,-2 -2,-2 -2,-2 h -10 z m 5,2.0312 c 1.8143,0 3.629,0.61811 5,1.875 v 1.0938 h -1.8125 c -1.8431,-1.4103 -4.5319,-1.4103 -6.375,0 h -1.8125 v -1.0938 c 1.371,-1.2569 3.1857,-1.875 5,-1.875 z m 0,3.0625 c 1.0436,0 2.0799,0.33741 2.875,1 0.0433,0.0185 0.0851,0.0394 0.125,0.0625 v 0.84375 h -6 v -0.8125 c 0.0387,-0.0339 0.0805,-0.0652 0.125,-0.0937 0.79509,-0.66259 1.8314,-1 2.875,-1 z m 0,2.9062 c 1.1046,0 2,0.89543 2,2 0,1.10457 -0.89543,2 -2,2 -1.10457,0 -2,-0.89543 -2,-2 0,-1.10457 0.89543,-2 2,-2 z"/>
</svg>
