<?xml version="1.0" encoding="UTF-8"?>
<!-- Created with Inkscape (http://www.inkscape.org/) -->
<svg id="svg7384" width="16" height="16" version="1.1" xmlns="http://www.w3.org/2000/svg" xmlns:cc="http://creativecommons.org/ns#" xmlns:dc="http://purl.org/dc/elements/1.1/" xmlns:rdf="http://www.w3.org/1999/02/22-rdf-syntax-ns#">
 <metadata id="metadata90">
  <rdf:RDF>
   <cc:Work rdf:about="">
    <dc:format>image/svg+xml</dc:format>
    <dc:type rdf:resource="http://purl.org/dc/dcmitype/StillImage"/>
    <dc:title>Gnome Symbolic Icon Theme</dc:title>
   </cc:Work>
  </rdf:RDF>
 </metadata>
 <title id="title9167">Gnome Symbolic Icon Theme</title>
 <g id="layer9" transform="translate(-221 -257)">
  <path id="path10898" class="warning" d="m229.88 265c-0.49245 0-0.875 0.38256-0.875 0.875v6.25c0 0.49244 0.38255 0.875 0.875 0.875h6.25c0.49245 0 0.875-0.38256 0.875-0.875v-6.25c0-0.49244-0.38255-0.875-0.875-0.875h-6.25zm2.125 1h2v4h-2v-4zm0 5h2v1h-2v-1z" style="color:#bebebe;fill:#f57900"/>
  <path id="path3520-7-4" d="m223 261c-0.5 0-1 0.5-1 1v4c0 0.5 0.5 1 1 1h1v-2h4c0.11796-0.53925 0.55151-0.9375 1.125-0.9375h6.875v-2.0625c0-0.5-0.5-1-1-1h-12z" style="fill:#bebebe"/>
  <path id="path4804-7-9" d="m225 258v2h8v-2h-8z" style="fill:#bebebe"/>
  <path id="path4806-9-7" d="m225 266v5h3v-5z" style="fill:#bebebe"/>
 </g>
</svg>
