<svg xmlns="http://www.w3.org/2000/svg" width="16" height="16" version="1.1">
 <title id="title9167">
  Gnome Symbolic Icon Theme
 </title>
 <g id="layer9" transform="translate(-381.00015,-337)">
  <path d="m 389.00015,342.01754 c -1.64587,0 -2.98246,1.33658 -2.98246,2.98246 0,1.64587 1.33659,2.98246 2.98246,2.98246 1.64587,0 2.98246,-1.33659 2.98246,-2.98246 0,-1.64588 -1.33659,-2.98246 -2.98246,-2.98246 z" style="fill:#bebebe"/>
  <path d="m 388.96875,338.0625 c -3.85777,0 -7,3.14223 -7,7 0,3.85777 3.14223,7 7,7 3.85776,0 7,-3.14223 7,-7 0,-3.85777 -3.14224,-7 -7,-7 z m 0,1 c 3.32116,0 6.03125,2.67883 6.03125,6 0,3.32117 -2.71009,6 -6.03125,6 -3.32117,0 -6,-2.67883 -6,-6 0,-3.32117 2.67883,-6 6,-6 z" style="fill:#bebebe"/>
 </g>
</svg>
