<?xml version="1.0" encoding="UTF-8"?>
<!-- Created with Inkscape (http://www.inkscape.org/) -->
<svg id="svg7384" width="16" height="16" version="1.1" xmlns="http://www.w3.org/2000/svg" xmlns:cc="http://creativecommons.org/ns#" xmlns:dc="http://purl.org/dc/elements/1.1/" xmlns:rdf="http://www.w3.org/1999/02/22-rdf-syntax-ns#">
 <metadata id="metadata90">
  <rdf:RDF>
   <cc:Work rdf:about="">
    <dc:format>image/svg+xml</dc:format>
    <dc:type rdf:resource="http://purl.org/dc/dcmitype/StillImage"/>
    <dc:title>Gnome Symbolic Icon Theme</dc:title>
   </cc:Work>
  </rdf:RDF>
 </metadata>
 <title id="title9167">Gnome Symbolic Icon Theme</title>
 <g id="layer9" transform="translate(-301 -217)">
  <path id="rect3259-2-8" d="m303 218v1 6c0 2.0717 1.5096 3.681 2.8438 4.875s2.6562 2 2.6562 2l0.5 0.28125 0.53125-0.3125s1.2943-0.79757 2.625-2 2.8438-2.7994 2.8438-4.8438v-6-1h-1-10-1zm2 2h8v5c0 0.91968-0.98696 2.3184-2.1562 3.375-0.90589 0.81857-1.4789 1.139-1.8438 1.375-0.35377-0.22243-0.92859-0.52475-1.8438-1.3438-1.1658-1.0434-2.1562-2.4272-2.1562-3.4062v-5z" style="block-progression:tb;color:#bebebe;fill:#bebebe;text-indent:0;text-transform:none"/>
  <path id="rect4034-7-1" d="m309 221v7.5c-0.41988-0.29448-0.58096-0.35517-1.1562-0.875-1.0886-0.98364-1.8438-2.2676-1.8438-2.625v-4h3z" style="color:#bebebe;fill:#bebebe"/>
 </g>
</svg>
