<svg xmlns="http://www.w3.org/2000/svg" width="16" height="16" version="1.1">
 <title id="title9167">
  Gnome Symbolic Icon Theme
 </title>
 <path style="fill:#ff7800;fill-rule:evenodd" class="warning" d="m 7.9998,0.05814 -2.26467,3.41252 -3.41252,-1.14785 1.14785,3.41252 -3.41252,2.26467 3.41252,2.26467 -1.14785,3.41252 3.41252,-1.14785 2.26467,3.41252 2.26467,-3.41252 3.41252,1.14785 -1.14785,-3.41252 3.41252,-2.26467 -3.41252,-2.26467 1.14785,-3.41252 -3.41252,1.14785 z m -0.99273,4.03298 h 1.98546 v 4.93264 h -1.98546 z m 1.02375,5.64616 c 0.70247,0 1.27194,0.56947 1.27194,1.27194 0,0.70247 -0.56947,1.27194 -1.27194,1.27194 -0.70247,0 -1.27194,-0.56947 -1.27194,-1.27194 0,-0.70247 0.56947,-1.27194 1.27194,-1.27194 z"/>
</svg>
