<?xml version="1.0" encoding="UTF-8"?>
<!-- Created with Inkscape (http://www.inkscape.org/) -->
<svg id="svg7384" width="16" height="16" version="1.1" xmlns="http://www.w3.org/2000/svg" xmlns:cc="http://creativecommons.org/ns#" xmlns:dc="http://purl.org/dc/elements/1.1/" xmlns:rdf="http://www.w3.org/1999/02/22-rdf-syntax-ns#">
 <metadata id="metadata90">
  <rdf:RDF>
   <cc:Work rdf:about="">
    <dc:format>image/svg+xml</dc:format>
    <dc:type rdf:resource="http://purl.org/dc/dcmitype/StillImage"/>
    <dc:title>Gnome Symbolic Icon Theme</dc:title>
   </cc:Work>
  </rdf:RDF>
 </metadata>
 <title id="title9167">Gnome Symbolic Icon Theme</title>
 <g id="layer9" transform="translate(-141 -297)">
  <path id="path5606" d="m142.78 302a1.0001 1.0001 0 0 0-0.5 1.7188l2 2 0.71875 0.6875 0.71875-0.6875 2-2a1.0165 1.0165 0 1 0-1.4375-1.4375l-1.2812 1.2812-1.2812-1.2812a1.0001 1.0001 0 0 0-0.9375-0.28125z" style="block-progression:tb;color:#000000;fill:#bebebe;text-indent:0;text-transform:none"/>
  <path id="path5608" d="m147 298c-1.6447 0-3 1.3553-3 3v4h2v-4c0-0.5713 0.4287-1 1-1h4c0.5713 0 1 0.4287 1 1v8c0 0.5713-0.4287 1-1 1h-4v2h4c1.6447 0 3-1.3553 3-3v-8c0-1.6447-1.3553-3-3-3h-4z" style="block-progression:tb;color:#000000;fill:#bebebe;text-indent:0;text-transform:none"/>
  <rect id="rect5610" transform="matrix(0,-1,-1,0,0,0)" x="-303" y="-148" width="1" height="1" style="color:#000000;fill:#bebebe"/>
  <rect id="rect5612" transform="matrix(0,-1,-1,0,0,0)" x="-303" y="-143" width="1" height="1" style="color:#000000;fill:#bebebe"/>
 </g>
</svg>
