<svg width="16.002886" height="16.000137" version="1.1" xmlns="http://www.w3.org/2000/svg" xmlns:osb="http://www.openswatchbook.org/uri/2009/osb">
 <g transform="translate(-972.99731,247.00014)" label="status">
  <path d="m986.0002-238c-1.108 0-2 0.91085-2 2.03125v0.96875h-1v4h6v-4h-1v-0.96875c0-1.1199-0.892-2.03125-2-2.03125zm0 1c0.554 0 1 0.4424 1 1v1h-2v-1c0-0.5576 0.446-1 1-1z" style="fill:#808080"/>
  <path d="m981.0002-245c-2.66694 0-5.33343 1.01507-7.36523 3.04688l0.73632 0.73828c3.66553-3.66553 9.59229-3.66553 13.25782 0l0.73632-0.73828c-2.0318-2.03181-4.69828-3.04688-7.36523-3.04688zm0 2.98242c-1.9205 0-3.84044 0.73108-5.30273 2.19336l0.73632 0.73633c2.5265-2.5265 6.60633-2.5265 9.13282 0l0.73632-0.73633c-1.46228-1.46228-3.38222-2.19336-5.30273-2.19336zm0 2.99805c-1.17406 0-2.34746 0.44512-3.24023 1.33789l0.73632 0.73828c1.30977-1.30977 3.36367-1.36619 4.75782-0.20312 0.13701-0.32523 0.33378-0.61814 0.56836-0.875-0.82774-0.65202-1.81871-0.99805-2.82227-0.99805zm0 3.01953a2 1.9999999 0 0 0-2 2 2 1.9999999 0 0 0 2 2 2 1.9999999 0 0 0 1-0.26953v-3.45899a2 1.9999999 0 0 0-1-0.27148z" style="fill:#808080"/>
 </g>
</svg>
