<svg width="16" height="16" viewBox="0 0 16 16" fill="none" xmlns="http://www.w3.org/2000/svg">
    <g id="icone">
        <path id="iso" fill-rule="evenodd" clip-rule="evenodd" d="M1.20642 7.95876C1.20642 4.18428 4.30893 1.08177 8.08341 1.08177C11.8579 1.08177 14.9604 4.18428 14.9604 7.95876C14.9604 11.7332 11.8579 14.8357 8.08341 14.8357C4.30893 14.8357 1.20642 11.7332 1.20642 7.95876ZM11.0307 7.95876C11.0307 6.30829 9.73388 5.01148 8.08341 5.01148C6.43294 5.01148 5.13613 6.30829 5.13613 7.95876C5.13613 9.60923 6.43294 10.906 8.08341 10.906C9.73388 10.906 11.0307 9.60923 11.0307 7.95876ZM6.11855 7.95876C6.11855 6.87907 7.00372 5.99391 8.08341 5.99391C9.16309 5.99391 10.0483 6.87907 10.0483 7.95876C10.0483 9.03845 9.16309 9.92361 8.08341 9.92361C7.00372 9.92361 6.11855 9.03845 6.11855 7.95876ZM9.06583 7.95876C9.06583 7.41057 8.6316 6.97633 8.08341 6.97633C7.53522 6.97633 7.10098 7.41057 7.10098 7.95876C7.10098 8.50695 7.53522 8.94119 8.08341 8.94119C8.6316 8.94119 9.06583 8.50695 9.06583 7.95876Z" fill="#444444"/>
    </g>
</svg>
