<svg height="16" width="16" xmlns="http://www.w3.org/2000/svg">
  <path d="m8.1191406 1.015625c-.3606817-.0196729-.7468106-.01345-1.1601562.0195312-6.52970002.5256-4.7972313 7.4240751-4.8945313 9.7343748-.0862 1.2221-.4913331 2.716028-1.0644531 4.236328h1.7636719c.18137-.64425.3155168-1.281171.3730469-1.888671.1063899.0742.2203168.14413.3417968.21289.19767.11646.367005.271627.546875.435547.42032.38306.896755.818667 1.828125.873047.0625.004.12595.003906.1875.003906.94194 0 1.5858157-.412931 2.1035156-.74414.2480101-.15882.4624525-.295479.6640626-.361329.57299-.17937 1.0730656-.46929 1.4472652-.83789.0585-.0575.113233-.115491.164063-.175781.20844.76393.493797 1.622568.810547 2.480468h3.769531c-.90475-1.3976-1.837359-2.766372-1.818359-4.513672h-.001953c.035718-3.2387809.349678-9.1795155-5.0605474-9.474609zm.3339844 5.1152344c1.0137-.0275 1.858166 1.0081 1.884766 2.3125.012.58991-.146516 1.1334875-.416016 1.5546875-.0601-.0302-.12228-.0589375-.1875-.0859375-.30223-.12928-.5450637-.2170794-.7460938-.2871094.1109901-.21727.18118-.48703.1875-.78125v-.0019531c.0154-.71608-.3458406-1.2977281-.8066406-1.2988281-.46088-.001-.8478912.5789318-.8632812 1.2949218-.00052.0234-.0003.0471125 0 .0703125-.28385-.13054-.5626875-.2247731-.8359375-.2832031-.001-.0269-.0039063-.0549313-.0039063-.0820312-.0265-1.3045001.7732694-2.3846094 1.7871094-2.4121094zm-4.5527344.3613281c.73025-.0425 1.3745531.8374438 1.4394532 1.9648437.0029999.0608.0058593.1220607.0058593.1816407-.23138.0582-.4399131.1419344-.6269531.2402343-.00071-.0079999-.0009531-.0169906-.0019531-.0253906-.0625-.63993-.4043819-1.1238781-.7636719-1.0800781-.3593.0438-.5995694.5983313-.5371094 1.2382813v.0019531c.0272.27904.10699.5279568.21875.7167969-.0278.0219-.1067356.0783412-.1972656.1445312-.0679.0496-.15028.1101537-.25.183594-.27182-.3567803-.4589175-.8688459-.4921875-1.4472659-.0649-1.1274.4748281-2.0767406 1.2050781-2.1191406zm2.125 2.8574219c.52505 0 1.1056094.2036625 1.7246094.6015625.29154.1897101.5459475.2758091.8671875.3867191.22088.0763.4713506.16306.8066406.30664l.0039063.001953c.31278.12852.6828856.364083.6660156.751954-.026.595899-.8052006 1.155859-1.5253906 1.380859l-.0039063.001953c-.29939.0971-.5649762.266386-.8476562.447266-.47485.30379-.9665413.61914-1.6757813.61914-.0465 0-.093745-.000906-.140625-.003906-.64963-.038-.9551437-.315466-1.3398437-.666016-.20292-.18498-.4111207-.376486-.6816407-.535156l-.0058593-.001953c-.58387-.32955-.9475132-.740656-.9707031-1.097656-.0115001-.17746.0669649-.329548.234375-.455078.36417-.27303.6081212-.452243.7695312-.570313.17924-.13109.2333475-.170864.2734375-.208984.0286-.0272.06045-.057444.09375-.089844.33422-.32503.8935431-.8691406 1.7519531-.8691406zm-2.2265625 1.6464846c-.0999312.019252-.1923412.075055-.2539062.166015-.1231.18186-.0764313.429635.1054687.552735.47438.3211 1.3131531.559797 2.1894532.623047.1485599.0107.3126212.017578.4882812.017578.76264 0 1.7312781-.072718 2.7675781-.554688.19909-.0927.2859694-.328224.1933594-.527343-.0926-.199201-.3301569-.28584-.5292969-.19336-1.1203.52119-2.1615281.515374-2.8613281.464844-.8347-.0602-1.5056813-.288591-1.8007813-.488281-.09092-.06155-.1988968-.0798-.2988281-.060547z" fill="#474747"/>
</svg>
