<svg width="16" height="16" viewBox="0 0 16 16" fill="none" xmlns="http://www.w3.org/2000/svg">
    <g id="icone">
        <path id="app" d="M8.12302 1.08177C4.3241 1.08177 1.24603 4.15984 1.24603 7.95876C1.24603 11.7577 4.3241 14.8357 8.12302 14.8357C11.9219 14.8357 15 11.7577 15 7.95876C15 4.15984 11.9219 1.08177 8.12302 1.08177ZM5.51345 10.9641C5.47125 11.036 5.41084 11.0956 5.3383 11.1369C5.26576 11.1781 5.18365 11.1995 5.10022 11.1989C5.01518 11.1997 4.93162 11.1767 4.85891 11.1326C4.80477 11.1012 4.75736 11.0595 4.71939 11.0097C4.68143 10.96 4.65367 10.9032 4.63769 10.8427C4.62172 10.7822 4.61785 10.7192 4.62631 10.6572C4.63477 10.5952 4.65539 10.5355 4.68698 10.4814L5.1564 9.70103C5.18012 9.66075 5.21396 9.62737 5.25457 9.60422C5.29518 9.58106 5.34114 9.56892 5.38788 9.56902H5.45727C5.79774 9.56902 6.03598 9.77379 6.10536 9.97212L5.51345 10.9641ZM9.48767 9.42902L6.4136 9.4324H4.37046C4.30617 9.43267 4.24251 9.41988 4.18332 9.39481C4.12412 9.36973 4.07064 9.3329 4.02612 9.28653C3.98159 9.24017 3.94694 9.18524 3.92428 9.12509C3.90162 9.06493 3.89142 9.0008 3.89429 8.93658C3.90411 8.67869 4.12915 8.48344 4.3855 8.48344H5.86651L7.62229 5.49471L7.05371 4.5261C6.92569 4.30536 6.98248 4.01432 7.20199 3.87555C7.25611 3.84055 7.31675 3.81685 7.38026 3.80589C7.44376 3.79492 7.50883 3.79692 7.57155 3.81174C7.63427 3.82657 7.69335 3.85392 7.74522 3.89217C7.7971 3.93041 7.8407 3.97874 7.87342 4.03427L8.17736 4.55342H8.18074L8.48498 4.03427C8.51774 3.97903 8.56128 3.93096 8.61301 3.89291C8.66474 3.85486 8.7236 3.82761 8.78609 3.8128C8.84858 3.79799 8.91341 3.79591 8.97671 3.80669C9.04002 3.81747 9.10051 3.84089 9.15457 3.87555C9.37285 4.01432 9.42903 4.30536 9.30009 4.52702L8.73151 5.49563L8.1789 6.43784L6.9788 8.48436V8.48773H8.74747C8.96913 8.48773 9.24698 8.60685 9.35934 8.79843L9.36917 8.81838C9.46833 8.98693 9.52451 9.10267 9.52451 9.27122C9.52289 9.32595 9.5107 9.37985 9.48859 9.42994L9.48767 9.42902ZM11.8747 9.4324H11.0424V9.43578L11.6509 10.4707C11.7163 10.5797 11.7363 10.71 11.7066 10.8336C11.677 10.9573 11.5999 11.0643 11.4921 11.1317C11.4174 11.1772 11.3316 11.2014 11.2441 11.2014C11.1609 11.2013 11.0791 11.1798 11.0067 11.1388C10.9343 11.0978 10.8737 11.0388 10.8308 10.9674L9.93161 9.4367L9.37285 8.48497L8.652 7.25264C8.54759 7.07668 8.49084 6.87655 8.48734 6.67197C8.48384 6.46739 8.53371 6.26544 8.63204 6.08601C8.77449 5.83457 8.88348 5.76856 8.88348 5.76856L10.487 8.48067H11.8658C12.1236 8.48067 12.345 8.679 12.357 8.93351C12.3595 8.99822 12.3488 9.06276 12.3257 9.12326C12.3027 9.18375 12.2676 9.23896 12.2226 9.28556C12.1776 9.33216 12.1237 9.36918 12.0641 9.39442C12.0045 9.41965 11.9403 9.43257 11.8756 9.4324H11.8747Z" fill="#444444"/>
    </g>
</svg>
