<svg height="16" width="16" xmlns="http://www.w3.org/2000/svg">
  <g fill="#474747" transform="translate(-913.00018 327.00006)">
    <path d="m920.5-326.01172c-1.92126 0-3.8417.73249-5.30469 2.19531-2.92598 2.92565-2.92598 7.68373 0 10.60938l.70703-.70703c-2.54381-2.54352-2.54381-6.6518 0-9.19532 2.54382-2.54351 6.6515-2.54351 9.19532 0 2.54381 2.54352 2.54381 6.6518 0 9.19532l.70898.70703c2.92598-2.92565 2.92598-7.68373 0-10.60938-1.46299-1.46282-3.38538-2.19531-5.30664-2.19531z"/>
    <path d="m920.5-323.00781c-1.1526 0-2.30586.43498-3.18359 1.30469-1.75547 1.7394-1.75547 4.58091 0 6.32031l.70507-.71094c-1.37158-1.35903-1.37158-3.53941 0-4.89844 1.37159-1.35903 3.58545-1.35903 4.95704 0 1.37158 1.35903 1.37158 3.53941 0 4.89844l.70507.71094c1.75547-1.7394 1.75547-4.58091 0-6.32031-.87773-.86971-2.03099-1.30469-3.18359-1.30469z"/>
    <path d="m920.5002-320a1.5 1.5 0 0 0 -1.5 1.5 1.5 1.5 0 0 0 1 1.41211v6.08789h1v-6.08789a1.5 1.5 0 0 0 1-1.41211 1.5 1.5 0 0 0 -1.5-1.5z"/>
  </g>
</svg>
