<svg height="16" width="16" xmlns="http://www.w3.org/2000/svg">
  <g fill="#474747">
    <path d="m13 8.875c-1.09 0-2 .879-2 1.969v1.094h-.97v4.062h5.97v-4.063h-1.032v-1.093c0-1.09-.88-1.969-1.968-1.969zm0 1c.546 0 .968.417.968.969v1.094h-1.968v-1.094c0-.552.453-.969 1-.969z"/>
    <path d="m96 228c-2 0-2 2-2 2v12c0 2 2 2 2 2h5.031v-4.998h-5.033v-2h6.672a3.008 3.008 0 0 1 2.33-1.127c.352 0 .686.073 1 .188v-5.063l-3-3zm1 6 .998.006v2h-2l.002-1.006s0-1 1-1zm6 0c1 0 1 1 1 1l-.002 1.002h-2v-2zm-4.002.006h2v2h-2zm-3 5.996h2v2l-.998-.002c-1 0-1-1-1-1zm3 0h2v2h-2zm5.002.935v.063c0 .95-.878.994-.969.996v1.004h2.729c.14-.262.24-.579.24-1v-1.063h-.031z" opacity=".35" transform="translate(-92 -228)"/>
  </g>
</svg>
