<svg height="16" width="16" xmlns="http://www.w3.org/2000/svg">
  <g fill="#474747">
    <path d="m116 228c-2 0-2 2-2 2v12c0 2 2 2 2 2h6v-2.002h-.002l.002-2.996h-6.002v-2h8v.998h2.002v-7l-3-3zm1 6 .998.006v2h-2l.002-1.006s0-1 1-1zm6 0c1 0 1 1 1 1l-.002 1.002h-2v-2zm-4.002.006h2v2h-2zm-3 5.996h2v2l-.998-.002c-1 0-1-1-1-1zm3 0h2v2h-2z" opacity=".35" transform="translate(-112 -228)"/>
    <path d="m11 11h1.375l1.125 1.094 1.093-1.094h1.407v1.469l-1.094 1.062 1.094 1.063v1.406h-1.438l-1.062-1.063-1.063 1.063h-1.437v-1.406l1.062-1.063-1.062-1.061z"/>
  </g>
</svg>
