<svg height="16" width="16" xmlns="http://www.w3.org/2000/svg">
  <path d="m5 0c-1.645 0-3 1.355-3 3v3h2v-3c0-.571.429-1 1-1h2c.571 0 1 .429 1 1v.25c.267-.15.557-.25.875-.25h1.125c0-1.645-1.355-3-3-3zm-3 9s-1 0-1 1v5h10v-2h-2.125c-1.01 0-1.875-.865-1.875-1.875v-2.125z" fill="#474747"/>
  <path d="m8.875 4a.863.863 0 0 0 -.875.875v6.25c0 .492.383.875.875.875h6.25a.863.863 0 0 0 .875-.875v-6.25a.863.863 0 0 0 -.875-.875zm2.125 1h2v2.5s0 .5-.5.5h-1c-.5 0-.5-.5-.5-.5zm.5 4h1c.277 0 .5.223.5.5v1c0 .277-.223.5-.5.5h-1a.499.499 0 0 1 -.5-.5v-1c0-.277.223-.5.5-.5z" fill="#f57900"/>
</svg>
