<svg height="16" width="16" xmlns="http://www.w3.org/2000/svg">
  <g fill="#444" transform="translate(-401.00015 -357)">
    <path d="m404.46875 358c-1.36417 0-2.46875 1.10458-2.46875 2.46875v9.0625c0 1.36417 1.10458 2.46875 2.46875 2.46875h9.0625c1.36417 0 2.46875-1.10458 2.46875-2.46875v-9.0625c0-1.36417-1.10458-2.46875-2.46875-2.46875zm0 1h9.0625c.83222 0 1.46875.63653 1.46875 1.46875v9.0625c0 .83222-.63653 1.46875-1.46875 1.46875h-9.0625c-.83222 0-1.46875-.63653-1.46875-1.46875v-9.0625c0-.83222.63653-1.46875 1.46875-1.46875z"/>
    <path d="m405.6875 363.0625a2.0029885 2.0029885 0 1 0 .21875 4h6.125a2.0002 2.0002 0 1 0 0-4h-6.125a2.0002 2.0002 0 0 0 -.21875 0z"/>
  </g>
</svg>
