<svg xmlns="http://www.w3.org/2000/svg" width="16" height="16" version="1.1" viewBox="0 0 16 16">
 <g id="layer9" transform="translate(-261 -297)">
  <path fill="#444" fill-rule="evenodd" d="m261 312v1h15v-1z"/>
  <path fill="#444" d="m261.5 298c-0.277 0-0.5 0.223-0.5 0.5s0.223 0.5 0.5 0.5h1c0.277 0 0.5-0.223 0.5-0.5s-0.223-0.5-0.5-0.5zm2.5508 0c0.2519 2.2466 2.1353 4 4.4492 4s4.1973-1.7534 4.4492-4zm10.449 0c-0.277 0-0.5 0.223-0.5 0.5s0.223 0.5 0.5 0.5h1c0.277 0 0.5-0.223 0.5-0.5s-0.223-0.5-0.5-0.5zm-1.7578 3.2422c-0.1278 0-0.2555 0.0486-0.3535 0.14648-0.1959 0.19586-0.1959 0.51116 0 0.70703l0.707 0.70703c0.098 0.0979 0.2257 0.14649 0.3535 0.14649s0.2555-0.0486 0.3535-0.14649c0.1959-0.19585 0.1959-0.51116 0-0.70703l-0.707-0.70703c-0.049-0.049-0.106-0.0849-0.166-0.10937-0.06-0.0245-0.1235-0.0371-0.1875-0.0371zm-8.5801 0.01c-0.094 0.0182-0.1844 0.0633-0.2578 0.13672l-0.707 0.70703c-0.1959 0.19587-0.1959 0.51117 0 0.70703 0.098 0.0979 0.2257 0.14844 0.3535 0.14844s0.2555-0.0505 0.3535-0.14844l0.707-0.70703c0.1959-0.19586 0.1959-0.51115 0-0.70703-0.049-0.049-0.106-0.0849-0.166-0.10937-0.09-0.0367-0.1889-0.0455-0.2832-0.0273zm4.3379 1.7478c-0.277 0-0.5 0.223-0.5 0.5v2.5h-3l3.5 4.5 3.5625-4.5h-3.0625v-2.5c0-0.20775-0.1251-0.38534-0.3047-0.46094-0.06-0.0253-0.1263-0.0391-0.1953-0.0391z"/>
 </g>
</svg>
