<svg xmlns="http://www.w3.org/2000/svg" width="16" height="16" version="1.1">
 <title id="title9167">
  Gnome Symbolic Icon Theme
 </title>
 <g id="layer9" transform="translate(-61 -277)">
  <path fill="#444" d="m62 280v2h3c0.5713 0 1 0.4287 1 1v4c0 1.6447 1.3553 3 3 3h6v-2h-6c-0.5713 0-1-0.4287-1-1v-4c0-1.6447-1.3553-3-3-3h-3z"/>
  <path fill="#444" d="m72.781 286a1.0001 1.0001 0 0 0-0.5 1.7188l1.2812 1.2812-1.2812 1.2812a1.0165 1.0165 0 1 0 1.4375 1.4375l2-2 0.6875-0.71875-0.6875-0.71875-2-2a1.0001 1.0001 0 0 0-0.9375-0.28125z"/>
  <path fill="#444" d="m72.781 278a1.0001 1.0001 0 0 0-0.5 1.7188l1.2812 1.2812-1.2812 1.2812a1.0165 1.0165 0 1 0 1.4375 1.4375l2-2 0.6875-0.71875-0.6875-0.71875-2-2a1.0001 1.0001 0 0 0-0.9375-0.28125z"/>
  <path fill="#444" d="m69 280c-0.22957 0-0.44085 0.0438-0.65625 0.0937 0.4813 0.5511 0.86125 1.1776 1.0312 1.9062h5.625v-2h-6zm-7 8v2h3c0.22957 0 0.44085-0.0438 0.65625-0.0937-0.4813-0.55115-0.86125-1.1777-1.0312-1.9063h-2.625z"/>
  <rect fill="#444" width="1" height="1" x="72" y="286"/>
  <rect fill="#444" width="1" height="1" x="72" y="291"/>
  <rect fill="#444" width="1" height="1" x="72" y="278"/>
  <rect fill="#444" width="1" height="1" x="72" y="283"/>
 </g>
</svg>
