<svg height="16" width="16" xmlns="http://www.w3.org/2000/svg">
  <g fill="#474747">
    <path d="m10 13a2 2 0 0 1 -2 2 2 2 0 0 1 -2-2 2 2 0 0 1 2-2 2 2 0 0 1 2 2z" opacity=".32"/>
    <path d="m8 2c-2.814 0-5.172 1-7 2.586v1.414h1.48c1.52-1.264 3.22-2 5.52-2s4 .78 5.52 2h1.48v-1.38c-1.64-1.467-4.186-2.62-7-2.62z" opacity=".32"/>
    <path d="m8 5c-1.504 0-2.86.36-3.875 1h7.688c-1.022-.627-2.351-1-3.813-1z" opacity=".32"/>
    <path d="m3.496 6.996h.016c.829 0 1.496.667 1.496 1.496v.016c0 .829-.667 1.496-1.496 1.496h-.016a1.493 1.493 0 0 1 -1.496-1.496v-.016c0-.829.667-1.496 1.496-1.496zm4 0h.016c.829 0 1.496.667 1.496 1.496v.016c0 .829-.667 1.496-1.496 1.496h-.016a1.493 1.493 0 0 1 -1.496-1.496v-.016c0-.829.667-1.496 1.496-1.496zm4.008 0c.833 0 1.504.667 1.504 1.496v.016c0 .829-.67 1.496-1.504 1.496a1.497 1.497 0 0 1 -1.504-1.496v-.016c0-.829.67-1.496 1.504-1.496z" display="block"/>
  </g>
</svg>
