<svg height="16" width="16" xmlns="http://www.w3.org/2000/svg">
  <path d="m11 9c.31 0 .615-.09.813-.281l3.593-3.719-3.656-3.719c-.198-.19-.44-.281-.75-.281h-1v1c0 .257.13.529.313.719l1.28 1.281h-4.593c-.528-.007-1 .472-1 1s.472 1.007 1 1h4.625l-1.219 1.281c-.182.19-.406.462-.406.719v1zm-6-2c-.31 0-.615.09-.812.281l-3.594 3.719 3.656 3.719c.198.19.44.281.75.281h1v-1c0-.257-.13-.529-.312-.719l-1.282-1.281h4.594c.528.007 1-.472 1-1s-.472-1.007-1-1h-4.625l1.219-1.281c.183-.19.406-.462.406-.719v-1z" fill="#474747" opacity=".35"/>
</svg>
