<svg enable-background="new" height="16" width="16" xmlns="http://www.w3.org/2000/svg">
  <g fill="#474747" transform="translate(-72.000198 -188)">
    <path d="m80.0002 189.5c.92654-.003 1.43567 3.13373 2.1875 3.65625.75154.52231 4.02289.0261 4.3125.875.28973.84921-2.65482 2.27358-2.9375 3.125-.28257.85109 1.24718 3.69066.5 4.21875-.74748.5283-3.10471-1.72244-4.03125-1.71875-.008.00003-.0226-.00041-.0312 0z"/>
    <path d="m80.04297 188.12891c.41394.009.7576.20571.98047.40429s.36865.41055.49804.62696c.25879.43282.44362.90643.62305 1.375.17943.46856.34639.92925.49609 1.26757.0847.1915.0676.16679.11329.23637l3.41797-.01a1.0001 1.0001 0 0 1 .95703.7012c.23946.7664-.10166 1.2614-.37305 1.6836-.27139.4223-.61031.8153-.95313 1.1992-.34281.3839-.68921.7526-.94921 1.0567-.26.304-.42095.6122-.38672.5097.0882-.2639.0178.015.11718.3614.0994.3466.2667.8044.42969 1.2734s.32434.9416.40235 1.4336c.039.246.0641.4998.01.8047-.0543.3048-.23754.7098-.59766.9512-.3551.238-.74654.263-1.04101.2285-.29447-.035-.53861-.1219-.77539-.2227-.47357-.2016-.9233-.479-1.36719-.7597-.44389-.2808-.87614-.5646-1.21875-.7598-.34149-.1945-.65783-.2438-.46484-.2442.22522-.0004-.0936.043-.42578.2403-.33217.1968-.75181.4838-1.1836.7676-.43178.2837-.86898.5661-1.33203.7714-.23152.1027-.47091.1911-.76758.2266-.29666.035-.70813 0-1.06054-.2559a1.0001 1.0001 0 0 1 -.17579-.166c-.43161-.517-.50778-1.257-.38476-1.7675.12302-.5106.34654-.8964.5332-1.2598.37333-.7268.59147-1.2064.40039-1.75a1.0001 1.0001 0 0 1 -.004-.01c.0626.1844-.0812-.1018-.35547-.3672-.2743-.2653-.65085-.594-1.02539-.9511-.37455-.3572-.75124-.7368-1.04883-1.1973s-.57036-1.1218-.31445-1.8301a1.0001 1.0001 0 0 1 .9414-.6601h3.61705c.0198-.032.0198-.025.043-.0703.1407-.27327.3155-.7436.49414-1.23437.17864-.49078.3598-1.00156.60156-1.46485.12088-.23164.25358-.457.46875-.67773.21518-.22074.58566-.47267 1.06055-.46289zm.0156 2.63086c-.0895.22295-.16973.39672-.26562.66015-.17819.48954-.3592.99978-.59766 1.46288-.11922.2316-.24897.4566-.45898.6777-.21001.2212-.56782.4786-1.04492.4786h-2.34571c.0847.088.12014.1499.21485.2402.33001.3147.70187.6385 1.03515.9609.33167.3209.6514.5617.85547 1.1563.47765 1.368-.12125 2.5697-.50781 3.3223-.0153.03-.0146.035-.0293.064.12407-.077.20591-.1125.33789-.1992.408-.2681.84086-.5659 1.26367-.8164.42282-.2506.76188-.5181 1.44141-.5196a1.0001 1.0001 0 0 1 .002 0c.66798 0 1.02356.259 1.45704.5059.43347.2469.87698.5411 1.29687.8066.20299.1284.34269.1915.52344.295-.0444-.1419-.0575-.2279-.11133-.3828-.15358-.4419-.33048-.9152-.46289-1.377s-.32136-.8676-.0937-1.5488c.17875-.535.45787-.814.76562-1.1739.30775-.3598.65731-.7323.97657-1.0898.0834-.093.12194-.1576.19922-.248l-2.24024.01a1.0001 1.0001 0 0 1 -.57422-.1797c-.55023-.3839-.68715-.8078-.88281-1.25-.19566-.4421-.36645-.92072-.53516-1.3613-.0778-.20307-.14363-.31727-.21875-.49023z"/>
  </g>
</svg>
