<svg enable-background="new" height="16" width="16" xmlns="http://www.w3.org/2000/svg">
  <path d="m19.97406 188.1259c-.43023.009-.7807.21289-1.00417.412-.22348.19912-.36802.40858-.49659.62361-.25715.43007-.44165.90049-.62087 1.36851s-.34617.93045-.49669 1.27064c-.0834.18859-.0632.16208-.11163.23484l-3.39829-.01c-.44993-.001-.84718.2831-.97707.6988-.23204.7425.0983 1.2254.36842 1.6456.27007.4203.61092.8149.95366 1.1987.34273.3838.68843.7519.94864 1.0562.26022.3043.42063.6067.39089.5178-.0815-.2441-.0158.043-.11596.392-.10012.3492-.26945.8072-.43224 1.2756-.16279.4685-.32364.9416-.40063 1.4271-.0385.2428-.0612.4915-.008.7878.0528.2963.22609.6899.59148.9348.36035.2414.77177.27 1.07415.2344.30238-.036.54731-.1239.78605-.2256.47748-.2035.92831-.4831 1.3724-.7641s.87594-.5649 1.21712-.7592c.34117-.1942.66538-.2352.44311-.2356-.25007-.0006.0726.036.40358.2325.33102.1962.7509.4834 1.18293.7673s.86756.5663 1.33452.7734c.23348.1036.47553.1948.78051.2314.305.037.73426 0 1.09071-.2629.0415-.03.0804-.064.11658-.1.51361-.5136.55625-1.2149.4738-1.7292-.0825-.5144-.26626-.9742-.4422-1.4148-.17594-.4407-.3483-.859-.4421-1.1845-.0935-.3245-.0735-.5301-.0765-.5222-.00002.0001 0 0-.00001 0-.0535.1599.0864-.1088.35858-.3721.27428-.2653.65145-.5942 1.02604-.9514.37458-.3572.75091-.7369 1.04667-1.1946.29575-.4577.56011-1.0989.31037-1.7901-.14232-.3944-.52754-.6589-.96039-.6594l-3.59523-.0004c-.0194-.032-.0201-.024-.0422-.0672-.14223-.27624-.31886-.74632-.49749-1.23706-.17863-.49076-.35962-1.00261-.59982-1.46289-.1201-.23015-.24928-.45209-.4642-.67256-.21493-.22046-.59281-.48033-1.08755-.47014z" fill="#474747" transform="translate(-12.000002 -188)"/>
</svg>
