<svg height="16" width="16" xmlns="http://www.w3.org/2000/svg">
  <g fill="#474747">
    <path d="m2.469 1s-1.5 0-1.5 1.5v11.969s0 1.53 1.5 1.53h7.5v-2h-7v-10.999h1v-2zm8.5 0v2h1v7h2v-7.5c0-1.5-1.5-1.5-1.5-1.5z"/>
    <path d="m5.5 0h3.969c.277 0 .5.223.5.5v3c0 .277-.223.5-.5.5h-3.969a.499.499 0 0 1 -.5-.5v-3c0-.277.223-.5.5-.5z"/>
    <path d="m10.969 11h1.375l1.125 1.094 1.094-1.094h1.406v1.469l-1.094 1.062 1.094 1.063v1.406h-1.439l-1.062-1.063-1.062 1.063h-1.436v-1.406l1.062-1.063-1.062-1.062z"/>
  </g>
</svg>
