<?xml version="1.0" encoding="UTF-8" standalone="no"?>
<!-- Created with Inkscape (http://www.inkscape.org/) -->

<svg
   xmlns:dc="http://purl.org/dc/elements/1.1/"
   xmlns:cc="http://creativecommons.org/ns#"
   xmlns:rdf="http://www.w3.org/1999/02/22-rdf-syntax-ns#"
   xmlns:svg="http://www.w3.org/2000/svg"
   xmlns="http://www.w3.org/2000/svg"
   xmlns:sodipodi="http://sodipodi.sourceforge.net/DTD/sodipodi-0.dtd"
   xmlns:inkscape="http://www.inkscape.org/namespaces/inkscape"
   id="svg7384"
   width="16"
   height="16"
   version="1.1"
   sodipodi:docname="battery-symbolic.svg"
   inkscape:version="0.92.3 (2405546, 2018-03-11)">
  <defs
     id="defs12" />
  <sodipodi:namedview
     pagecolor="#ffffff"
     bordercolor="#666666"
     borderopacity="1"
     objecttolerance="10"
     gridtolerance="10"
     guidetolerance="10"
     inkscape:pageopacity="0"
     inkscape:pageshadow="2"
     inkscape:window-width="1920"
     inkscape:window-height="1009"
     id="namedview10"
     showgrid="false"
     inkscape:zoom="14.75"
     inkscape:cx="8"
     inkscape:cy="8"
     inkscape:window-x="0"
     inkscape:window-y="34"
     inkscape:window-maximized="1"
     inkscape:current-layer="svg7384" />
  <metadata
     id="metadata90">
    <rdf:RDF>
      <cc:Work
         rdf:about="">
        <dc:format>image/svg+xml</dc:format>
        <dc:type
           rdf:resource="http://purl.org/dc/dcmitype/StillImage" />
        <dc:title>Gnome Symbolic Icon Theme</dc:title>
      </cc:Work>
    </rdf:RDF>
  </metadata>
  <title
     id="title9167">Gnome Symbolic Icon Theme</title>
  <g
     id="layer10"
     transform="translate(-141 -567)">
    <rect
       id="rect5637"
       transform="matrix(0,1,1,0,0,0)"
       x="572"
       y="146"
       width="2"
       height="6"
       style="color:#000000;fill:#bebebe" />
    <path
       id="path5639"
       d="m146.47 567c-0.49033 0-0.79607 0.22846-1.0312 0.46875s-0.4375 0.52725-0.4375 1v0.53125h-1-1v1 12 1h1 10 1v-1-12-1h-1-1v-0.375-0.0312-0.0312c-0.0239-0.4306-0.17023-0.72105-0.40625-1-0.22374-0.26444-0.6267-0.52931-1.1562-0.53125v-0.0312h-0.0625-4.9062zm0.53125 2h4v1 1h1 1v10h-8v-10h1 1v-1-1z"
       style="block-progression:tb;color:#bebebe;fill:#bebebe;text-indent:0;text-transform:none" />
    <rect
       id="rect5643"
       transform="matrix(0,1,1,0,0,0)"
       x="575"
       y="146"
       width="2"
       height="6"
       style="color:#000000;fill:#bebebe" />
    <rect
       id="rect5645"
       transform="matrix(0,1,1,0,0,0)"
       x="578"
       y="146"
       width="2"
       height="6"
       style="color:#000000;fill:#bebebe" />
  </g>
</svg>
