<svg xmlns="http://www.w3.org/2000/svg" xmlns:osb="http://www.openswatchbook.org/uri/2009/osb" width="16" height="16" version="1.1" viewBox="0 0 16 16">
 <title id="title9167">
  Gnome Symbolic Icon Theme
 </title>
 <defs>
  <linearGradient id="linearGradient19282" gradientTransform="matrix(-2.7365795,0.28202934,-0.18908311,-0.99988321,239.54008,-879.45557)" osb:paint="solid">
   <stop id="stop19284" offset="0" style="stop-color:#666666"/>
  </linearGradient>
 </defs>
 <g id="layer10" transform="translate(-321.00021,-547)">
  <path fill="#444" d="m 328.85241,553 h 3.69316 l -4.33808,6.24149 1.67168,0.17395 -4.18435,3.57771 v 0 l 1.96393,-1.03623 c 0.31822,0.0382 1.01074,0.0637 1.33697,0.0637 v 0 c 3.86854,0 7.00448,-3.13594 7.00448,-7.00542 v 0 c -0.0155,-2.46839 -1.28088,-5.00751 -4.00337,-6.32939 v 0 l 0.16016,-1.67681 z m -6.85221,2.01513 c 0,2.62727 1.44116,4.91936 3.58097,6.11349 v 0 l 0.31868,-3.7191 1.01121,1.20544 1.80267,-3.61496 -3.71353,-5e-5 3.16015,-6.93418 c -3.47018,0.41296 -6.16015,3.3674 -6.16015,6.94931"/>
 </g>
</svg>
