<svg xmlns="http://www.w3.org/2000/svg" xmlns:osb="http://www.openswatchbook.org/uri/2009/osb" width="16" height="16" version="1.1" viewBox="0 0 16 16">
 <title id="title9167">
  Gnome Symbolic Icon Theme
 </title>
 <defs>
  <linearGradient id="linearGradient19282" gradientTransform="matrix(-2.7365795,0.28202934,-0.18908311,-0.99988321,239.54008,-879.45557)" osb:paint="solid">
   <stop id="stop19284" offset="0" style="stop-color:#666666"/>
  </linearGradient>
 </defs>
 <g id="layer10" transform="translate(-281.0002,-547)">
  <path fill="#444" d="m 287.0002,553 c 1.662,0 3,1.338 3,3 v 1 c 0,1.662 -1.338,3 -3,3 h -3 c -1.662,0 -3,-1.338 -3,-3 v -1 c 0,-1.662 1.338,-3 3,-3 z m 0,2 h -3 c -0.554,0 -1,0.446 -1,1 v 1 c 0,0.554 0.446,1 1,1 h 3 c 0.554,0 1,-0.446 1,-1 v -1 c 0,-0.554 -0.446,-1 -1,-1 z"/>
  <path fill="#444" d="m 285.5002,561 c -2.5,0 -2.5,0.5 -2.5,0.5 0,0.5 0.5,0.5 0.5,0.5 h 4 c 0.5,0 0.5,-0.5 0.5,-0.5 0,0 0,-0.5 -2.5,-0.5 z"/>
  <path fill="#444" d="m 294.0002,550.0625 c 1.662,0 3,1.338 3,3 V 557 c 0,1.662 -1.338,3 -3,3 h -3 c -1.662,0 -3,-1.338 -3,-3 v -3.9375 c 0,-1.662 1.338,-3 3,-3 z m 0,2 h -3 c -0.554,0 -1,0.446 -1,1 V 557 c 0,0.554 0.446,1 1,1 h 3 c 0.554,0 1,-0.446 1,-1 v -3.9375 c 0,-0.554 -0.446,-1 -1,-1 z"/>
  <path fill="#444" d="m 292.5002,561 c -2.5,0 -2.5,0.5 -2.5,0.5 0,0.5 0.5,0.5 0.5,0.5 h 4 c 0.5,0 0.5,-0.5 0.5,-0.5 0,0 0,-0.5 -2.5,-0.5 z"/>
 </g>
</svg>
