<svg width="16" height="16" version="1.1" xmlns="http://www.w3.org/2000/svg">
 <g transform="translate(-561.04735,-539.18755)">
  <path d="m569.04735 539.18755c-4.41827 0-8 3.58173-8 8s3.58173 8 8 8 8-3.58173 8-8-3.58173-8-8-8zm-2.28571 4.57143c0.63809 0 1.17857 0.54048 1.17857 1.17857v1.10714c0 0.63809-0.54048 1.14286-1.17857 1.14286-0.6381 0-1.14286-0.50477-1.14286-1.14286v-1.10714c0-0.63809 0.50476-1.17857 1.14286-1.17857zm4.57142 0c0.6381 0 1.14286 0.54048 1.14286 1.17857v1.10714c0 0.63809-0.50476 1.14286-1.14286 1.14286-0.63809 0-1.14285-0.50477-1.14285-1.14286v-1.10714c0-0.63809 0.50476-1.17857 1.14285-1.17857zm-7.32841 3.10714c0.89077 3.77846 5.36339 5.06553 8.80606 3.75654 8e-3 0.68337-0.22295 1.25391-1.31936 1.46964-2.47487 0.48698-5.89808-0.16273-7.63429-2.96378-0.76125-1.22816-0.14517-1.92585 0.14759-2.2625z" style="fill:#fdc92b"/>
 </g>
</svg>
