<?xml version="1.0" encoding="UTF-8" standalone="no"?>
<svg
   xmlns:dc="http://purl.org/dc/elements/1.1/"
   xmlns:cc="http://creativecommons.org/ns#"
   xmlns:rdf="http://www.w3.org/1999/02/22-rdf-syntax-ns#"
   xmlns:svg="http://www.w3.org/2000/svg"
   xmlns="http://www.w3.org/2000/svg"
   xmlns:sodipodi="http://sodipodi.sourceforge.net/DTD/sodipodi-0.dtd"
   xmlns:inkscape="http://www.inkscape.org/namespaces/inkscape"
   inkscape:version="1.0alpha2 (883c7bc, 2019-06-02)"
   sodipodi:docname="face-sad.svg"
   id="svg10"
   version="1"
   height="16"
   width="16">
  <metadata
     id="metadata16">
    <rdf:RDF>
      <cc:Work
         rdf:about="">
        <dc:format>image/svg+xml</dc:format>
        <dc:type
           rdf:resource="http://purl.org/dc/dcmitype/StillImage" />
      </cc:Work>
    </rdf:RDF>
  </metadata>
  <defs
     id="defs14" />
  <sodipodi:namedview
     inkscape:current-layer="svg10"
     inkscape:window-maximized="1"
     inkscape:window-y="30"
     inkscape:window-x="0"
     inkscape:cy="8"
     inkscape:cx="8"
     inkscape:zoom="48.90984848"
     showgrid="false"
     id="namedview12"
     inkscape:window-height="979"
     inkscape:window-width="2560"
     inkscape:pageshadow="2"
     inkscape:pageopacity="0"
     guidetolerance="10"
     gridtolerance="10"
     objecttolerance="10"
     borderopacity="1"
     inkscape:document-rotation="0"
     bordercolor="#666666"
     pagecolor="#ffffff" />
  <path
     id="path2"
     d="M 8,1 C 4.122,1 1,4.122 1,8 c 0,3.878 3.122,7 7,7 3.878,0 7,-3.122 7,-7 C 15,4.122 11.878,1 8,1 Z"
     style="fill:#ffa348" />
  <path
     id="path4"
     d="M 5.1601249,6.6866308 C 4.7392278,6.2688048 5.2341375,6.0068901 5.6550342,5.5890645 6.0759311,5.1712384 6.2634305,4.755723 6.6843275,5.1735491 c 0.4208967,0.4178259 0.4208967,1.0952557 0,1.5130817 -0.420897,0.4178256 -1.1033057,0.4178256 -1.5242026,0 z"
     style="fill:#5e5c64" />
  <path
     id="path6"
     d="m 4.85,11.896293 c 0,0 1.05,-1.4 3.15,-1.4 2.1,0 3.15,1.4 3.15,1.4 v 0 0"
     style="fill:none;stroke:#5e5c64;stroke-linecap:round;stroke-linejoin:round" />
  <path
     id="path8"
     d="M 10.839875,6.6866308 C 11.260772,6.2688048 10.765862,6.0068902 10.344966,5.5890646 9.9240682,5.1712385 9.7365692,4.7557232 9.3156725,5.1735493 c -0.4208966,0.4178258 -0.4208966,1.0952555 0,1.5130815 0.4208967,0.4178256 1.1033055,0.4178256 1.5242025,0 z"
     style="fill:#5e5c64" />
</svg>
