<svg width="16" height="16" version="1.1" xmlns="http://www.w3.org/2000/svg">
 <g transform="matrix(1.1428571,0,0,1.1428571,-619.42855,-594.25141)" style="fill:#fdc92b">
  <path d="m549 519.97c-3.866 0-7 3.134-7 7s3.134 7 7 7 7-3.134 7-7-3.134-7-7-7zm-2 4c0.55833 0 1.0312 0.47292 1.0312 1.0312v0.96875c0 0.55833-0.47292 1-1.0312 1s-1-0.44167-1-1v-0.96875c0-0.55833 0.44167-1.0312 1-1.0312zm4 0c0.55833 0 1 0.47292 1 1.0312v0.96875c0 0.55833-0.44167 1-1 1s-1-0.44167-1-1v-0.96875c0-0.55833 0.44167-1.0312 1-1.0312zm-7 4.0312c2 1.3034 7.9871 1.3034 10.031 0l-0.0312 0.53125c-0.0364 0.42971-0.99999 3.375-5 3.4062-4 0.0312-5-2.78-5-3.3125v-0.625z" style="fill:#fdc92b"/>
 </g>
</svg>
