<!-- Created with Inkscape (http://www.inkscape.org/) -->
<svg width="24" height="24" version="1.0" xmlns="http://www.w3.org/2000/svg" xmlns:xlink="http://www.w3.org/1999/xlink">
 <path d="M 12,1 C 7.0997064,1 2.979772,4.2181725 1.5585938,8.6484375 L 8.089844,10.839844 C 8.600157,9.1410431 10.135706,7.875 12,7.875 Z M 1.3867188,9.1210937 C 1.2913991,9.473652 1.1890756,9.8296972 1.1289063,10.195313 1.1886059,9.8281586 1.2907229,9.4756293 1.3867188,9.1210937 Z M 1.1289063,10.367188 C 1.049456,10.900175 1,11.445009 1,12 1,11.443484 1.0507686,10.89979 1.1289063,10.367188 Z" style="fill-rule:evenodd;fill:#ffffff;opacity:.5"/>
 <path d="m12 1v6.875c2.277 1e-7 4.125 1.848 4.125 4.125s-1.848 4.125-4.125 4.125-4.125-1.848-4.125-4.125c0-0.406677 0.1043735-0.789729 0.214844-1.160156l-6.574219-2.1914065c-0.3396374 1.0592244-0.515625 2.1802945-0.515625 3.3515625 0 6.072 4.9280003 11 11 11 6.072 0 11-4.928 11-11 0-6.0719999-4.928-11-11-11z" style="fill:#ffffff"/>
</svg>
