<!-- Created with Inkscape (http://www.inkscape.org/) -->
<svg width="24" height="24" version="1.0" xmlns="http://www.w3.org/2000/svg" xmlns:xlink="http://www.w3.org/1999/xlink">
 <path d="m12 1c-6.0719999 0-11 4.9280001-11 11 0 4.900294 3.2181727 9.020228 7.648438 10.441406l2.191406-6.53125c-1.698801-0.510313-2.964844-2.045862-2.964844-3.910156 1e-7 -2.277 1.848-4.125 4.125-4.125zm-2.878906 21.613281c0.352558 0.09531 0.708603 0.197643 1.074218 0.257813-0.367153-0.0597-0.719683-0.161817-1.074218-0.257813zm1.246093 0.257813c0.532988 0.07945 1.077822 0.128906 1.632813 0.128906-0.556516 0-1.10021-0.05077-1.632813-0.128906z" style="fill-rule:evenodd;fill:#fffafa;opacity:.5"/>
 <path d="m12 1v6.875c2.277 0 4.125 1.848 4.125 4.125s-1.848 4.125-4.125 4.125c-0.406677 0-0.789729-0.104376-1.160156-0.214844l-2.191406 6.574219c1.059224 0.339637 2.180294 0.515625 3.351562 0.515625 6.072 0 11-4.928 11-11 0-6.0719999-4.928-11-11-11z" style="fill:#ffffff"/>
</svg>
