<!-- Created with Inkscape (http://www.inkscape.org/) -->
<svg width="24" height="24" version="1.0" xmlns="http://www.w3.org/2000/svg" xmlns:xlink="http://www.w3.org/1999/xlink">
 <path d="m12 1c-6.0719999 0-11 4.9280001-11 11 0 6.072 4.9280003 11 11 11 2.445101 0 4.704245-0.797324 6.53125-2.148438l-4.082031-5.542968c-0.686014 0.508937-1.530048 0.816406-2.449219 0.816406-2.277 0-4.125-1.848-4.125-4.125 1e-7 -2.277 1.848-4.125 4.125-4.125zm11 11c0 0.453362-0.03256 0.89295-0.08594 1.332031 0.053285-0.438681 0.08594-0.879044 0.08594-1.332031zm-3.609375 8.121094c-0.244556 0.222058-0.509594 0.444969-0.773438 0.644531 0.269036-0.203541 0.524486-0.417644 0.773438-0.644531z" style="fill-rule:evenodd;fill:#ffffff;opacity:.5"/>
 <path d="m12 1v6.875c2.277 0 4.125 1.848 4.125 4.125 0 1.357829-0.662382 2.556775-1.675781 3.308594l4.082031 5.542968c2.710058-2.004151 4.46875-5.224663 4.46875-8.851562 0-6.0719999-4.928-11-11-11z" style="fill:#ffffff"/>
</svg>
