<svg xmlns="http://www.w3.org/2000/svg" xmlns:xlink="http://www.w3.org/1999/xlink" width="256" height="256" version="1.1" viewBox="0 0 67.73 67.73">
 <defs>
  <filter id="filter1344" width="1.023" height="1.025" x="-.01" y="-.01" style="color-interpolation-filters:sRGB">
   <feGaussianBlur id="feGaussianBlur2" stdDeviation="1.06"/>
  </filter>
  <filter id="filter959" width="1.023" height="1.025" x="-.01" y="-.01" style="color-interpolation-filters:sRGB">
   <feGaussianBlur id="feGaussianBlur5" stdDeviation="1.06"/>
  </filter>
  <linearGradient id="linearGradient1057" x1="264" x2="48" y1="252" y2="52" gradientTransform="translate(-27.28,-38.771199)" gradientUnits="userSpaceOnUse">
   <stop style="stop-color:#000000" id="stop8" offset="0"/>
   <stop style="stop-color:#000000;stop-opacity:0.43290043" id="stop10" offset=".159"/>
   <stop style="stop-color:#000000;stop-opacity:0.0995671" id="stop12" offset=".194"/>
   <stop style="stop-color:#000000;stop-opacity:0" id="stop14" offset="1"/>
  </linearGradient>
  <clipPath id="clipPath977">
   <path d="M 78.994141,52 C 43.625611,52 40,53.999146 40,89.296875 V 140 H 264 V 108.92188 C 264,73.624145 260.37439,68 225.00586,68 H 138 L 122,52 Z" style="fill:#f6531e"/>
  </clipPath>
  <filter id="filter989" width="1.107" height="1.136" x="-.05" y="-.07" style="color-interpolation-filters:sRGB">
   <feGaussianBlur id="feGaussianBlur20" stdDeviation="5"/>
  </filter>
  <linearGradient id="linearGradient4226" x1="224" x2="224" y1="86" y2="478" gradientTransform="matrix(.11988932 0 0 .11988932 3.1009196 232.21778)" gradientUnits="userSpaceOnUse">
   <stop style="stop-color:#fb7c38" id="stop23" offset="0"/>
   <stop style="stop-color:#fda463" id="stop25" offset="1"/>
  </linearGradient>
  <radialGradient id="radialGradient1371" cx="152" cy="-.126" r="112" gradientTransform="matrix(.26458333 0 0 .06959709 -6.4240801 236.13742)" gradientUnits="userSpaceOnUse" xlink:href="#linearGradient1361"/>
  <linearGradient id="linearGradient1361">
   <stop style="stop-color:#ffffff" id="stop29" offset="0"/>
   <stop style="stop-color:#ffffff;stop-opacity:0.20392157" id="stop31" offset="1"/>
  </linearGradient>
  <radialGradient id="radialGradient1363" cx="148" cy="39.684" r="112" gradientTransform="matrix(.26458333 0 0 .06723474 -6.4240801 242.98554)" gradientUnits="userSpaceOnUse" xlink:href="#linearGradient1361"/>
  <filter style="color-interpolation-filters:sRGB" id="filter1302" width="1.024" height="1.024" x="-.01" y="-.01">
   <feGaussianBlur id="feGaussianBlur1304" stdDeviation="2.08"/>
  </filter>
  <clipPath id="clipPath1509-3" clipPathUnits="userSpaceOnUse">
   <path d="M 192,-164 H 88 c 0,0 -40,0 -40,40 V 4 h 416 v -96 c 0,0 0,-40 -40,-40 H 224 Z" style="fill:#c9b8a7"/>
  </clipPath>
  <filter style="color-interpolation-filters:sRGB" id="filter1529" width="1.217" height="1.269" x="-.11" y="-.13">
   <feGaussianBlur id="feGaussianBlur1531" stdDeviation="18.8"/>
  </filter>
 </defs>
 <path d="m 88.000104,-162.00003 c 0,0 -40,0 -40,40 l -0.0352,127.9999949 h 0.0332 l -0.0332,248.0938051 376.035156,-0.0938 c 40,0 40,-40 40,-40 v -208.0000051 -47.9999979 -48 c 0,0 0,-39.999997 -40,-39.999997 h -200 l -32,-32 z" transform="matrix(0.14247782,0,0,0.14247782,-2.5508762,25.5245134)" style="opacity:0.2;filter:url(#filter1302)"/>
 <path d="m 24.80488,2.1581434 h -14.8176929 c 0,0 -5.6991133,0 -5.6991133,5.69911 v 18.23717 h 59.2707722 v -13.67788 c 0,0 0,-5.69911 -5.699113,-5.69911 h -28.495563 z" style="fill:#a89888"/>
 <path d="m 256,-80 -32,32 h -136 c 0,0 -40,0 -40,40 v 264 h 376 c 40,0 40,-40 40,-40 v -256 c 0,-40 -40,-40 -40,-40 z" clip-path="url(#clipPath1509-3)" transform="matrix(0.14247782,0,0,0.14247782,-2.5508622,25.5245034)" style="opacity:0.1;filter:url(#filter1529)"/>
 <path d="m 33.923459,13.5563734 -4.559289,4.55929 h -19.3769829 c 0,0 -5.6991133,0 -5.6991133,5.69911 v 37.61414 h 53.5716592 c 5.699113,0 5.699113,-5.69911 5.699113,-5.69911 v -36.47432 c 0,-5.69911 -5.699113,-5.69911 -5.699113,-5.69911 z" style="fill:#c9b8a7"/>
 <path d="m 63.558846,54.8749434 c 0,0 0,5.69911 -5.699113,5.69911 l -53.5713812,0.0134 -5.69e-4,0.85487 53.5719372,-0.0134 c 5.699113,0 5.699113,-5.69911 5.699113,-5.69911 z" style="opacity:0.2"/>
 <path d="m 33.923459,13.5563734 -4.559289,4.55929 h -19.3769829 c 0,0 -5.6991133,0 -5.6991133,5.69911 v 0.56991 c 0,-5.69911 5.6991133,-5.69911 5.6991133,-5.69911 h 19.6036609 l 4.559293,-4.55929 h 23.709592 c 0,0 5.699113,0 5.699113,5.69911 v -0.56991 c 0,-5.69911 -5.699113,-5.69911 -5.699113,-5.69911 z" style="opacity:0.3;fill:#ffffff"/>
 <path id="steam" d="m 4.287899216,33.18238711 v 8.7003338 l 6.726390054,3.88019081 a 7.534581448,7.534581448 0 0 0 -0.0196359,0.52035689 7.534581448,7.534581448 0 0 0 7.53456954,7.53457086 7.534581448,7.534581448 0 0 0 7.53456981,-7.53457086 7.534581448,7.534581448 0 0 0 -0.0392723,-0.71103271 l 10.99310434,-7.10774223 a 8.790344846,8.790344846 0 0 0 6.62717407,-8.50603865 8.790344846,8.790344846 0 0 0 -8.79024537,-8.79024643 v -5.1697e-4 a 8.790344846,8.790344846 0 0 0 -8.67294442,7.38729992 l -6.22463643,10.33529365 a 7.534581448,7.534581448 0 0 0 -1.42774971,-0.14210336 7.534581448,7.534581448 0 0 0 -3.28129199,0.76012373 z m 30.566654274,-9.50334437 a 6.278817785,6.278817785 0 0 1 6.2783778,6.27889372 6.278817785,6.278817785 0 0 1 -6.2783778,6.27889372 6.278817785,6.278817785 0 0 1 -6.27889372,-6.27889372 6.278817785,6.278817785 0 0 1 6.27889372,-6.27889372 z m 0,2.51135113 a 3.767290724,3.767290724 0 0 0 -3.76754207,3.76754259 3.767290724,3.767290724 0 0 0 3.76754207,3.76702615 3.767290724,3.767290724 0 0 0 3.7670288,-3.76702615 3.767290724,3.767290724 0 0 0 -3.7670288,-3.76754259 z m -16.32533056,15.06913961 a 5.023054122,5.023054122 0 0 1 5.02321869,5.02321921 5.023054122,5.023054122 0 0 1 -5.02321869,5.02321922 5.023054122,5.023054122 0 0 1 -4.9198709,-4.04710029 l 1.77086406,1.02520995 c 1.80745917,1.04356055 4.10214599,0.42929708 5.1456859,-1.37814145 1.04353912,-1.80753113 0.42881662,-4.10214678 -1.37865922,-5.14568616 l -0.84848545,-0.49090228 a 5.023054122,5.023054122 0 0 1 0.23046561,-0.008786 z" style="opacity:0.4"/>
</svg>
