<svg width="16" height="16" version="1.1" xmlns="http://www.w3.org/2000/svg">
 <g transform="translate(-632 -160)">
  <path d="M639 161c-3.31 0-6 2.69-6 6s2.69 6 6 6a5.97 5.97 0 0 0 3.871-1.422l3.275 3.276.708-.708-3.276-3.275A5.97 5.97 0 0 0 645 167c0-3.31-2.69-6-6-6zm0 1a5 5 0 0 1 5 5 5 5 0 0 1-5 5 5 5 0 0 1-5-5 5 5 0 0 1 5-5z" fill="#808080" font-family="sans-serif" font-weight="400" overflow="visible"/>
 </g>
 <path d="m3 6.4819277v1h8v-1z" style="fill:#808080"/>
 <path d="m3 8.4819277v1h8v-1z" style="fill:#808080"/>
 <path d="m3 4.4819277v1h8v-1z" style="fill:#808080"/>
</svg>
