<svg width="16" height="16" version="1.1" xmlns="http://www.w3.org/2000/svg">
 <g transform="translate(-451.99713,-119.99986)">
  <path d="m460 122c-2.66694 0-5.33343 1.01507-7.36523 3.04688l0.73632 0.73828c3.66553-3.66553 9.59229-3.66553 13.25782 0l0.73632-0.73828c-2.0318-2.03181-4.69828-3.04688-7.36523-3.04688zm0 2.98242c-1.9205 0-3.84044 0.73108-5.30273 2.19336l0.73632 0.73633c2.5265-2.5265 6.60633-2.5265 9.13282 0l0.73632-0.73633c-1.46228-1.46228-3.38222-2.19336-5.30273-2.19336zm0 2.99805c-1.17406 0-2.34746 0.44512-3.24023 1.33789l0.73632 0.73828c1.38747-1.38747 3.62035-1.38746 5.00782 0l0.73632-0.73828c-0.89277-0.89277-2.06616-1.33789-3.24023-1.33789zm0 3.01953a2 1.9999999 0 0 0-2 2 2 1.9999999 0 0 0 2 2 2 1.9999999 0 0 0 2-2 2 1.9999999 0 0 0-2-2z" style="fill:#808080"/>
 </g>
</svg>
