<?xml version="1.0" encoding="UTF-8" standalone="no"?>
<svg
   xmlns:dc="http://purl.org/dc/elements/1.1/"
   xmlns:cc="http://creativecommons.org/ns#"
   xmlns:rdf="http://www.w3.org/1999/02/22-rdf-syntax-ns#"
   xmlns:svg="http://www.w3.org/2000/svg"
   xmlns="http://www.w3.org/2000/svg"
   xmlns:sodipodi="http://sodipodi.sourceforge.net/DTD/sodipodi-0.dtd"
   xmlns:inkscape="http://www.inkscape.org/namespaces/inkscape"
   height="16"
   style="enable-background:new"
   version="1.1"
   width="16"
   id="svg10"
   sodipodi:docname="airplane-mode-disabled.svg"
   inkscape:version="0.92.3 (2405546, 2018-03-11)">
  <metadata
     id="metadata16">
    <rdf:RDF>
      <cc:Work
         rdf:about="">
        <dc:format>image/svg+xml</dc:format>
        <dc:type
           rdf:resource="http://purl.org/dc/dcmitype/StillImage" />
      </cc:Work>
    </rdf:RDF>
  </metadata>
  <defs
     id="defs14" />
  <sodipodi:namedview
     pagecolor="#ffffff"
     bordercolor="#666666"
     borderopacity="1"
     objecttolerance="10"
     gridtolerance="10"
     guidetolerance="10"
     inkscape:pageopacity="0"
     inkscape:pageshadow="2"
     inkscape:window-width="1212"
     inkscape:window-height="916"
     id="namedview12"
     showgrid="false"
     inkscape:zoom="14.75"
     inkscape:cx="8"
     inkscape:cy="8"
     inkscape:window-x="0"
     inkscape:window-y="34"
     inkscape:window-maximized="0"
     inkscape:current-layer="svg10" />
  <title
     id="title2">
  Paper Symbolic Icon Theme
 </title>
  <g
     transform="translate(-285.0004,395.00335)"
     id="g8"
     style="fill:#4d4d4d;fill-opacity:1">
    <path
       d="m 299.99704,-387.00316 c 0,0.554 -0.446,1 -1,1 l -1.59375,0 -6.19141,-6.19141 -0.24609,-0.74609 c -0.26171,-1.04691 -0.2647,-1.06251 0.53125,-1.0625 0.43199,0 0.43388,0.0117 0.71875,0.5 l 3.6875,5.5 3.09375,0 c 0.554,0 1,0.446 1,1 z m -4.62109,1.78516 -3.16016,4.71484 c -0.2665,0.45685 -0.2833,0.49822 -0.65625,0.5 l -0.0625,0 c -0.79399,-9.7e-4 -0.78071,-0.0333 -0.53125,-1.03125 l 1.625,-4.96875 -4.5,0 -1.21875,1.78125 c -0.13925,0.20883 -0.1227,0.21873 -0.34375,0.21875 l -0.21875,0 c -0.42773,0 -0.28125,-0.4375 -0.28125,-0.4375 l 0.28125,-2.5625 -0.28125,-2.5625 c 0,0 -0.13986,-0.43749 0.25,-0.4375 l 0.25,0 c 0.21159,0 0.20423,0.009 0.34375,0.21875 l 1.21875,1.78125 4.5,0 2.78516,2.78516 z"
       style="fill:#4d4d4d;fill-opacity:1"
       id="path4" />
    <path
       d="m 300.05954,-381.34698 -12.71875,-12.71875 -1.40625,1.40625 12.71875,12.71875 z"
       style="fill:#4d4d4d;fill-opacity:1"
       id="path6" />
  </g>
</svg>
