<svg xmlns="http://www.w3.org/2000/svg" width="16" height="16" version="1.1">
 <title id="title9167">
  Gnome Symbolic Icon Theme
 </title>
 <g id="layer9" transform="translate(-141 -177)">
  <path d="m152 188h1.375l1.125 1.0938 1.0938-1.0938h1.4062v1.4688l-1.0938 1.0625 1.0938 1.0625v1.4062h-1.4375l-1.0625-1.0625-1.0625 1.0625h-1.4375v-1.4062l1.0625-1.0625-1.0625-1.0625v-1.4688z" style="fill:#241f31"/>
  <path d="m29 209a1 1 0 1 1-2 0 1 1 0 1 1 2 0z" transform="matrix(2 0 0 2 93 -228)" style="fill:#241f31;opacity:.35"/>
  <path d="m149 179c-2.8142 0-5.1717 1-7 2.5856v1.4144h1.4807c1.5193-1.2647 3.2194-2 5.5193-2s4 0.77953 5.5193 2h1.4807v-1.3813c-1.6404-1.4658-4.1858-2.6187-7-2.6187z" style="fill:#241f31;opacity:.35"/>
  <path d="m149 182c-2.1666 0-4.0198 0.73878-5 2v1h2c0.78878-0.60652 1.7589-1 3-1s2.2194 0.39348 3 1h2v-1c-0.99478-1.2229-2.8734-2-5-2z" style="fill:#241f31;opacity:.35"/>
  <path d="m149 185c-1.2573 0-2.2157 0.31165-3 1v1h3 0.375 2.625v-1c-0.8369-0.67206-1.7427-1-3-1z" style="fill:#241f31;opacity:.35"/>
 </g>
</svg>
