<?xml version="1.0" encoding="UTF-8" standalone="no"?>
<svg
   xmlns:dc="http://purl.org/dc/elements/1.1/"
   xmlns:cc="http://creativecommons.org/ns#"
   xmlns:rdf="http://www.w3.org/1999/02/22-rdf-syntax-ns#"
   xmlns:svg="http://www.w3.org/2000/svg"
   xmlns="http://www.w3.org/2000/svg"
   xmlns:sodipodi="http://sodipodi.sourceforge.net/DTD/sodipodi-0.dtd"
   xmlns:inkscape="http://www.inkscape.org/namespaces/inkscape"
   height="16"
   style="enable-background:new"
   version="1.1"
   width="16"
   id="svg10"
   sodipodi:docname="notification-disabled.svg"
   inkscape:version="0.92.3 (2405546, 2018-03-11)">
  <metadata
     id="metadata16">
    <rdf:RDF>
      <cc:Work
         rdf:about="">
        <dc:format>image/svg+xml</dc:format>
        <dc:type
           rdf:resource="http://purl.org/dc/dcmitype/StillImage" />
      </cc:Work>
    </rdf:RDF>
  </metadata>
  <defs
     id="defs14" />
  <sodipodi:namedview
     pagecolor="#ffffff"
     bordercolor="#666666"
     borderopacity="1"
     objecttolerance="10"
     gridtolerance="10"
     guidetolerance="10"
     inkscape:pageopacity="0"
     inkscape:pageshadow="2"
     inkscape:window-width="770"
     inkscape:window-height="480"
     id="namedview12"
     showgrid="false"
     inkscape:zoom="14.75"
     inkscape:cx="8"
     inkscape:cy="8"
     inkscape:window-x="0"
     inkscape:window-y="34"
     inkscape:window-maximized="0"
     inkscape:current-layer="svg10" />
  <title
     id="title2">
  Paper Symbolic Icon Theme
 </title>
  <g
     transform="translate(-684.93777,474.9375)"
     id="g8"
     style="fill:#4d4d4d;fill-opacity:1">
    <path
       d="m 687.34402,-473.0625 12.71875,12.71875 -1.40625,1.40625 -12.71875,-12.71875 z"
       style="fill:#4d4d4d;fill-opacity:1"
       id="path4" />
    <path
       d="m 693.0002,-474 c -0.55228,0 -1,0.44772 -1,1 0,0.0333 0.002,0.0665 0.006,0.0996 -0.64334,0.12889 -1.2324,0.39135 -1.75977,0.74023 l 7.75377,7.75392 0,-1.59375 0,-2 c 1.7e-4,-2.42916 -1.71554,-4.44156 -4.00586,-4.90039 0.004,-0.0331 0.006,-0.0663 0.006,-0.0996 0,-0.55228 -0.44772,-1 -1,-1 z m -4.1582,3.24805 c -0.5234,0.7903 -0.84177,1.72888 -0.8418,2.75195 l 0,4.5 -2,2 0,0.5 2,0 10,0 0.59375,0 -9.75195,-9.75195 z M 691.26973,-460 c 0.35698,0.61831 1.0165,0.99944 1.73047,1 0.71327,-10e-4 1.37189,-0.38229 1.72852,-1 l -3.45899,0 z"
       style="opacity:1;fill:#4d4d4d;fill-opacity:1"
       id="path6" />
  </g>
</svg>
