<?xml version="1.0" encoding="UTF-8" standalone="no"?>
<svg
   xmlns:dc="http://purl.org/dc/elements/1.1/"
   xmlns:cc="http://creativecommons.org/ns#"
   xmlns:rdf="http://www.w3.org/1999/02/22-rdf-syntax-ns#"
   xmlns:svg="http://www.w3.org/2000/svg"
   xmlns="http://www.w3.org/2000/svg"
   xmlns:sodipodi="http://sodipodi.sourceforge.net/DTD/sodipodi-0.dtd"
   xmlns:inkscape="http://www.inkscape.org/namespaces/inkscape"
   height="16"
   style="enable-background:new"
   version="1.1"
   width="16"
   id="svg8"
   sodipodi:docname="notification.svg"
   inkscape:version="0.92.3 (2405546, 2018-03-11)">
  <metadata
     id="metadata14">
    <rdf:RDF>
      <cc:Work
         rdf:about="">
        <dc:format>image/svg+xml</dc:format>
        <dc:type
           rdf:resource="http://purl.org/dc/dcmitype/StillImage" />
      </cc:Work>
    </rdf:RDF>
  </metadata>
  <defs
     id="defs12" />
  <sodipodi:namedview
     pagecolor="#ffffff"
     bordercolor="#666666"
     borderopacity="1"
     objecttolerance="10"
     gridtolerance="10"
     guidetolerance="10"
     inkscape:pageopacity="0"
     inkscape:pageshadow="2"
     inkscape:window-width="770"
     inkscape:window-height="480"
     id="namedview10"
     showgrid="false"
     inkscape:zoom="14.75"
     inkscape:cx="8"
     inkscape:cy="8"
     inkscape:window-x="1"
     inkscape:window-y="34"
     inkscape:window-maximized="0"
     inkscape:current-layer="svg8" />
  <title
     id="title2">
  Paper Symbolic Icon Theme
 </title>
  <g
     transform="translate(-665.00043,475)"
     id="g6"
     style="fill:#4d4d4d;fill-opacity:1">
    <path
       d="m 673.00034,-473.99999 c 0.55228,0 1,0.44772 1,1 -2.9e-4,0.0333 -0.002,0.0665 -0.006,0.0996 2.29032,0.45883 4.00603,2.47123 4.00586,4.90039 l -1.4e-4,1.99999 0,2.5 2,2 0,0.5 -2,0 -10,0 -2,0 0,-0.5 2,-2 1.4e-4,-4.49999 c 8e-5,-2.42916 1.71568,-4.44157 4.00586,-4.90039 -0.004,-0.0331 -0.006,-0.0663 -0.006,-0.0996 0,-0.55228 0.44772,-1 1,-1 z M 674.72872,-460 c -0.35663,0.61771 -1.01525,0.99874 -1.72852,1 -0.71397,-5.6e-4 -1.37349,-0.38169 -1.73047,-1 z"
       style="opacity:1;fill:#4d4d4d;fill-opacity:1"
       id="path4" />
  </g>
</svg>
