<svg xmlns="http://www.w3.org/2000/svg" width="16" height="16" version="1.1">
 <title id="title9167">
  Gnome Symbolic Icon Theme
 </title>
 <g id="layer9" transform="translate(-181.03 -397)">
  <path d="m183.5 398s-1.5 0-1.5 1.5v11.969s0 1.5312 1.5 1.5312h7.5v-2h-7v-11h1v-2zm8.5 0v2h1v7h2v-7.5c0-1.5-1.5-1.5-1.5-1.5z" style="fill:#241f31"/>
  <rect width="4.969" height="4" x="186.03" y="397" rx=".5" ry=".5" style="fill:#241f31"/>
  <path d="m192 408h1.375l1.125 1.0938 1.0938-1.0938h1.4062v1.4688l-1.0938 1.0625 1.0938 1.0625v1.4062h-1.4375l-1.0625-1.0625-1.0625 1.0625h-1.4375v-1.4062l1.0625-1.0625-1.0625-1.0625v-1.4688z" style="fill:#241f31"/>
 </g>
</svg>
