<?xml version="1.0" encoding="UTF-8" standalone="no"?>
<svg
   xmlns:dc="http://purl.org/dc/elements/1.1/"
   xmlns:cc="http://creativecommons.org/ns#"
   xmlns:rdf="http://www.w3.org/1999/02/22-rdf-syntax-ns#"
   xmlns:svg="http://www.w3.org/2000/svg"
   xmlns="http://www.w3.org/2000/svg"
   xmlns:sodipodi="http://sodipodi.sourceforge.net/DTD/sodipodi-0.dtd"
   xmlns:inkscape="http://www.inkscape.org/namespaces/inkscape"
   height="16"
   width="16"
   version="1.1"
   id="svg8"
   sodipodi:docname="touchpad-disabled.svg"
   inkscape:version="0.92.3 (2405546, 2018-03-11)">
  <metadata
     id="metadata14">
    <rdf:RDF>
      <cc:Work
         rdf:about="">
        <dc:format>image/svg+xml</dc:format>
        <dc:type
           rdf:resource="http://purl.org/dc/dcmitype/StillImage" />
      </cc:Work>
    </rdf:RDF>
  </metadata>
  <defs
     id="defs12" />
  <sodipodi:namedview
     pagecolor="#ffffff"
     bordercolor="#666666"
     borderopacity="1"
     objecttolerance="10"
     gridtolerance="10"
     guidetolerance="10"
     inkscape:pageopacity="0"
     inkscape:pageshadow="2"
     inkscape:window-width="768"
     inkscape:window-height="480"
     id="namedview10"
     showgrid="false"
     inkscape:zoom="14.75"
     inkscape:cx="0.30508475"
     inkscape:cy="8"
     inkscape:window-x="0"
     inkscape:window-y="34"
     inkscape:window-maximized="0"
     inkscape:current-layer="svg8" />
  <g
     color="#000"
     transform="translate(-1193 227)"
     id="g6"
     style="fill:#4d4d4d;fill-opacity:1">
    <path
       d="M1196.994-226c-1.258.015-2.178-.03-2.931.385a1.88 1.88 0 0 0-.838.998c-.165.438-.225.96-.225 1.617v8c0 .658.06 1.179.225 1.617.165.439.461.79.838.998.753.416 1.673.37 2.931.385h5.002v-1h-1v-2h1v-1h-8v-7c0-.592.063-1.006.16-1.266.098-.26.202-.371.385-.472.366-.202 1.197-.247 2.455-.262h7c1.259.015 2.087.06 2.453.262.184.1.29.212.387.472.098.26.16.674.16 1.266v5h1v-5c0-.658-.06-1.179-.224-1.617a1.88 1.88 0 0 0-.838-.998c-.753-.416-1.674-.37-2.932-.385h-7.004zM1194-215h6v2h-3.004c-1.258-.015-2.089-.06-2.455-.262-.183-.1-.287-.212-.385-.472-.098-.26-.16-.674-.16-1.266z"
       fill="gray"
       font-family="sans-serif"
       font-weight="400"
       opacity=".5"
       overflow="visible"
       style="line-height:normal;font-variant-ligatures:normal;font-variant-position:normal;font-variant-caps:normal;font-variant-numeric:normal;font-variant-alternates:normal;font-feature-settings:normal;text-indent:0;text-align:start;text-decoration-line:none;text-decoration-style:solid;text-decoration-color:#000;text-transform:none;text-orientation:mixed;shape-padding:0;isolation:auto;mix-blend-mode:normal;marker:none;fill:#4d4d4d;fill-opacity:1"
       white-space="normal"
       id="path2" />
    <path
       d="M1203.5-217.207l-.707.707.354.354 1.646 1.646-1.646 1.646-.354.354.707.707.354-.353 1.646-1.647 1.647 1.647.353.353.707-.707-.353-.354-1.647-1.646 1.647-1.646.353-.354-.707-.707-.353.353-1.647 1.647-1.646-1.647z"
       fill="gray"
       fill-rule="evenodd"
       font-family="sans-serif"
       font-weight="400"
       overflow="visible"
       style="line-height:normal;font-variant-ligatures:normal;font-variant-position:normal;font-variant-caps:normal;font-variant-numeric:normal;font-variant-alternates:normal;font-feature-settings:normal;text-indent:0;text-align:start;text-decoration-line:none;text-decoration-style:solid;text-decoration-color:#000;text-transform:none;text-orientation:mixed;shape-padding:0;isolation:auto;mix-blend-mode:normal;fill:#4d4d4d;fill-opacity:1"
       white-space="normal"
       id="path4" />
  </g>
</svg>
