<svg xmlns="http://www.w3.org/2000/svg" width="16" height="16" version="1.1">
 <title id="title9167">
  Gnome Symbolic Icon Theme
 </title>
 <g id="layer9" transform="translate(-61 -357)">
  <path d="m74 372v-4.5h-3.5z" style="fill:#241f31"/>
  <path d="m64.5 358c-1.385 0-2.5 1.115-2.5 2.5v5c0 1.385 1.115 2.5 2.5 2.5h9c1.385 0 2.5-1.115 2.5-2.5v-5c0-1.385-1.115-2.5-2.5-2.5h-9zm1.5 2h1c0.27614 0 0.53779 0.10029 0.71875 0.28125l1.2812 1.2812 1.2812-1.2812c0.18096-0.18096 0.44261-0.28125 0.71875-0.28125h1v1c0 0.27614-0.10029 0.53779-0.28125 0.71875l-1.2812 1.2812 1.2812 1.2812c0.18096 0.18096 0.28125 0.44261 0.28125 0.71875v1h-1c-0.27614 0-0.53779-0.10029-0.71875-0.28125l-1.2812-1.2812-1.2812 1.2812c-0.18096 0.18096-0.44261 0.28125-0.71875 0.28125h-1v-1c0-0.27614 0.10029-0.53779 0.28125-0.71875l1.2812-1.2812-1.2812-1.2812c-0.18096-0.18096-0.28125-0.44261-0.28125-0.71875v-1z" style="fill:#241f31"/>
 </g>
</svg>
