<svg xmlns="http://www.w3.org/2000/svg" width="16" height="16" version="1.1">
 <title id="title9167">
  Gnome Symbolic Icon Theme
 </title>
 <g id="layer9" transform="translate(-221,-277)">
  <path d="m 230.46539,277 c -1.27312,0 -2.30725,0.97301 -2.44824,2.21875 C 227.6931,279.09667 227.36073,279 226.99446,279 c -1.64309,0 -2.97508,1.34315 -2.97508,3 0,0.0982 0.0218,0.1855 0.0309,0.28125 C 223.75312,282.10201 223.39921,282 223.02769,282 c -1.0954,0 -1.9834,0.89543 -1.9834,2 0,1.10457 0.888,2 1.9834,2 l 12.39618,0 c 0.82155,0 1.48754,-0.67157 1.48754,-1.5 0,-0.82843 -0.66599,-1.5 -1.48754,-1.5 -0.20539,0 -0.41085,0.0491 -0.58882,0.125 0.0522,-0.20194 0.0929,-0.40658 0.0929,-0.625 0,-1.22936 -0.88592,-2.22819 -2.04537,-2.4375 0.0416,-0.18136 0.062,-0.36843 0.062,-0.5625 0,-1.38071 -1.10999,-2.5 -2.47924,-2.5 z" style="fill:#241f31"/>
  <path d="M 223.40625,287 A 0.49616697,0.49616697 0 0 0 223,287.40625 l -1,4.90625 a 0.49616697,0.49616697 0 1 0 0.96875,0.1875 l 1,-4.90625 A 0.49616697,0.49616697 0 0 0 223.40625,287 z" style="fill:#241f31"/>
  <path id="use6826" d="M 225.40625,287 A 0.49616697,0.49616697 0 0 0 225,287.40625 l -1,4.90625 a 0.49616697,0.49616697 0 1 0 0.96875,0.1875 L 226,287.59375 A 0.49616697,0.49616697 0 0 0 225.40625,287 z" style="fill:#241f31"/>
  <path id="use6826-1" d="M 227.40625,287 A 0.49616697,0.49616697 0 0 0 227,287.40625 l -1,4.90625 a 0.50871314,0.50871314 0 1 0 1,0.1875 l 1,-4.90625 A 0.49616697,0.49616697 0 0 0 227.40625,287 z" style="fill:#241f31"/>
  <path id="use6826-1-0" d="M 229.40625,287 A 0.49616697,0.49616697 0 0 0 229,287.40625 l -1,4.90625 a 0.50871314,0.50871314 0 1 0 1,0.1875 l 1,-4.90625 A 0.49616697,0.49616697 0 0 0 229.40625,287 z" style="fill:#241f31"/>
  <path id="use6826-1-0-0" d="m 231.40625,287 a 0.49616697,0.49616697 0 0 0 -0.375,0.40625 L 230,292.3125 a 0.50871314,0.50871314 0 1 0 1,0.1875 l 1,-4.90625 A 0.49616697,0.49616697 0 0 0 231.40625,287 z" style="fill:#241f31"/>
  <path id="use6826-1-0-0-6" d="m 233.40625,287 a 0.49616697,0.49616697 0 0 0 -0.375,0.40625 l -1,4.90625 A 0.49616697,0.49616697 0 1 0 233,292.5 l 1,-4.90625 A 0.49616697,0.49616697 0 0 0 233.40625,287 z" style="fill:#241f31"/>
 </g>
</svg>
