<svg xmlns="http://www.w3.org/2000/svg" width="16" height="16" version="1.1">
 <title id="title9167">
  Gnome Symbolic Icon Theme
 </title>
 <g id="layer9" transform="translate(-241,-277)">
  <path d="m 250.53599,277 c -1.27668,0 -2.3137,0.97301 -2.45508,2.21875 C 247.75596,279.09667 247.42266,279 247.05537,279 c -1.64768,0 -2.98339,1.34315 -2.98339,3 0,0.0982 0.022,0.1855 0.031,0.28125 C 243.80503,282.10201 243.45008,282 243.07752,282 c -1.09846,0 -1.98893,0.89543 -1.98893,2 0,1.10457 0.89047,2 1.98893,2 l 1.02554,0 a 1.4918439,1.50015 0 0 1 1.80246,-1.90625 1.4918439,1.50015 0 0 1 0.031,0 1.4918439,1.50015 0 0 1 1.33631,-0.4375 1.4918439,1.50015 0 0 1 0.83908,-0.59375 1.4918439,1.50015 0 0 1 1.39846,-1.09375 1.4918439,1.50015 0 0 1 1.46062,1.09375 1.4918439,1.50015 0 0 1 0.83908,0.59375 1.4918439,1.50015 0 0 1 1.39846,0.40625 1.4918439,1.50015 0 0 1 1.77139,1.9375 l 0.52831,0 c 0.82384,0 1.49169,-0.67157 1.49169,-1.5 0,-0.82843 -0.66785,-1.5 -1.49169,-1.5 -0.20597,0 -0.412,0.0491 -0.59047,0.125 0.0523,-0.20194 0.0932,-0.40658 0.0932,-0.625 0,-1.22936 -0.88839,-2.22819 -2.05108,-2.4375 0.0417,-0.18136 0.0622,-0.36843 0.0622,-0.5625 0,-1.38071 -1.11309,-2.5 -2.48616,-2.5 z" style="fill:#241f31"/>
  <path d="M 249.4375,282.9375 A 0.50005,0.50005 0 0 0 249,283.46875 l 0,0.65625 -0.28125,-0.125 a 0.50316382,0.50316382 0 1 0 -0.4375,0.90625 L 249,285.25 l 0,1.8125 -1.65625,-1.03125 0.0625,-0.875 a 0.50219246,0.50219246 0 1 0 -1,-0.0937 l -0.0312,0.40625 -0.59375,-0.375 A 0.50005,0.50005 0 1 0 245.25,285.9375 l 0.65625,0.40625 -0.3125,0.25 a 0.50316382,0.50316382 0 1 0 0.59375,0.8125 l 0.65625,-0.5 1.6875,1.03125 -1.71875,1.0625 -0.65625,-0.46875 a 0.50005,0.50005 0 1 0 -0.59375,0.78125 l 0.34375,0.25 -0.6875,0.40625 a 0.5118231,0.5118231 0 1 0 0.53125,0.875 l 0.625,-0.375 0.0312,0.375 a 0.50097561,0.50097561 0 1 0 1,-0.0625 l -0.0625,-0.90625 1.65625,-1.03125 0,1.8125 L 248.28125,291 a 0.50316382,0.50316382 0 1 0 0.4375,0.90625 l 0.28125,-0.125 0,0.6875 a 0.50005,0.50005 0 1 0 1,0 l 0,-0.6875 0.28125,0.125 A 0.50316382,0.50316382 0 1 0 250.71875,291 L 250,290.65625 l 0,-1.8125 1.65625,1 -0.0625,0.9375 a 0.50024408,0.50024408 0 1 0 1,0.0312 l 0.0312,-0.375 0.59375,0.375 a 0.50005,0.50005 0 1 0 0.53125,-0.84375 l -0.6875,-0.40625 0.34375,-0.25 A 0.50316382,0.50316382 0 1 0 252.8125,288.5 l -0.65625,0.5 -1.6875,-1.03125 1.6875,-1.03125 0.6875,0.46875 a 0.50005,0.50005 0 1 0 0.5625,-0.8125 l -0.3125,-0.21875 0.6875,-0.4375 a 0.5118231,0.5118231 0 1 0 -0.53125,-0.875 l -0.625,0.375 -0.0312,-0.375 a 0.50097561,0.50097561 0 1 0 -1,0.0625 l 0.0625,0.90625 -1.65625,1.03125 0,-1.8125 0.71875,-0.34375 A 0.50316382,0.50316382 0 1 0 250.28125,284 L 250,284.125 l 0,-0.65625 a 0.50005,0.50005 0 0 0 -0.5625,-0.53125 z" style="fill:#241f31"/>
 </g>
</svg>
