<svg height="16" width="16" xmlns="http://www.w3.org/2000/svg">
  <path d="m6.7579763 14.99382c-1.5121334-.160999-2.8657368-.609873-3.6440471-1.42537-.3144219-.328999-.5280808-.632622-.7055992-1.000996-.3757745-.779622-.4934892-1.656369-.3096031-2.304742.1829394-.6448713.5988988-1.3562439 1.1845461-2.0247414.325178-.3718737.7899844-.6124978.9403975-.9152467.3561226-.6114091.1340649-1.029934-.0709901-1.368661-.1124606-.1857718-.2327618-.2199742-.7426863-.1947743-.4977915.0246749-.7419117-.0067375-.9796641-.1259995-.1844023-.0924872-.2497994-.1969618-.1927491-.3081739.2964377-.2400116.4003845-.5025107.7261648-.6246602-.4767096-.4219235-.947482-.8632718-.9637452-1.4936195.033473-.3375738.3344712-.2563741.3344712-.2563741.4720631.0991371.9598731.1989743 1.4044005.2145492.1278683-.0180249.2626206-.0533748.2995356-.0786622.0368287-.0251999.1374197-.1748243.2233823-.3324113.3350736-.6141602.6899383-1.211267 1.0874833-1.4156662.4580371-.2355491 1.4406708-.36163624 2.0558329-.3346863.7393301.032287 1.3674855.2976739 1.8803356.7944096.3527996.3415113.5859916.4269109.9215811.3371363.235774-.063087.241797-.062825.241797.014 0 .1008872-.0783.2316117-.197052.3314488l-.110141.091962.111003.068162c.152305.093887.134235.1693994-.04733.1965243-.150585.022575-.2641694.07455-.2641694.121362 0 .016538.021513.159687.048188.3181489.065398.3888486.042163 1.1422208-.046467 1.5140944-.1368157.5766229-.3441931.9825339-.6987137 1.36797-.2753557.2601365-1.3893859.7934471-1.4616667.8412219.03442 0 .332148-.0182.5317808.000175.7314139.0672 1.2408221.3945518 1.974817.7498005.692692.3351238 1.116777.3529989 1.500554.1499997.538931-.3833154.856732-.9 1.293447-.9000805.963823.0000805.952516 2.0253684.895764 2.9512952.068059 2.3865543-2.027306 4.2944833-4.4375308 4.8571063-.6505279.151374-.9121161.178499-1.8139062.188999-.4672443.0044-.9038553.0035-.9695105-.0035z" fill="#444"/>
  <circle cx="13.5" cy="3.5" fill="#4285f4" r="1.5"/>
</svg>
