<svg height="16" width="16" xmlns="http://www.w3.org/2000/svg">
  <path d="m3.625 1a1.7500384 1.6924769 0 0 0 -1.7402344 1.5058594l-.875 7.6152346a1.7500384 1.6924769 0 0 0 1.7402344 1.878906h10.5a1.7500384 1.6924769 0 0 0 1.740234-1.878906l-.875-7.6152346a1.7500384 1.6924769 0 0 0 -1.740234-1.5058594zm4.3632812 2c.167166-.00588.3182998.089536.3691407.2324219l.6484375 1.7734375h2.1191406c.362013-.0009322.512856.4513934.21875.640625l-1.7207031 1.1113281.6542971 1.8085937c.10734.3058935-.2818889.5583454-.5722659.3710938l-1.7109375-1.1230469-1.7167968 1.1171875c-.2929612.1925281-.6863225-.0664072-.5703126-.375l.6621094-1.8046875-1.7148437-1.1171875c-.2913446-.1901706-.1416375-.6409916.21875-.640625l2.1230469.0097656.6542968-1.7734374c.0479106-.1327758.182368-.2246716.3378906-.2304688zm-6.9882812 9.300781v.478516c0 1.0605.9084203 2.220703 1.96875 2.220703h10.0625c1.060417 0 1.96875-1.160203 1.96875-2.220703v-.478516c-.465463.424374-1.071928.697266-1.75.697266h-10.5c-.6777221 0-1.2848863-.272892-1.75-.697266z" fill="#4285f4"/>
</svg>
