<svg height="16" width="16" xmlns="http://www.w3.org/2000/svg">
  <path d="m7.9999998.99995926c-5.4346045.00018154-5.5732505.00275-5.7148445.086914-.30058.178744-.285156-.041423-.285156 4.1259762 0 4.2289817-.0057 4.1437437.322266 4.9638675.377323.943422.984746 1.740955 1.982422 2.607421.837112.72702 1.830489 1.3845 2.9375005 1.94336.374516.189069.567626.275585.757812.272461.190186.0031.383296-.08339.757813-.272461 1.107011-.55886 2.1003872-1.21634 2.9375002-1.94336.997676-.866466 1.605099-1.663999 1.982422-2.607421.328019-.8201248.322266-.7348858.322266-4.9638675 0-4.1674022.01542-3.9472322-.285156-4.1259762-.141594-.084181-.280239-.086733-5.7148452-.086914zm0 2.00000004c2.2493602.000075 3.1924592.0035 3.9833992.00976.0068.5561302.0166.8595902.0166 2.2031252 0 2.1153977-.0043 3.1701647-.03418 3.6308597-.02989.460694.02587.161355-.145508.589843-.246929.6173978-.594472 1.1095098-1.436524 1.8408198-.6565122.570182-1.4778772 1.101155-2.3837872 1.573248z" fill="#444"/>
</svg>
