<svg height="16" width="16" xmlns="http://www.w3.org/2000/svg">
  <path d="m8 1c-2.77 0-5 2.345-5 5.25v3.5c0 2.905 2.23 5.25 5 5.25v-2.265625l-.1796875.150391a.50005.50005 0 0 1 -.8203125-.384766v-3.4394531l-1.2128906.8496093a.50065948.50065948 0 0 1 -.5742188-.8203124l1.5566406-1.0898438-1.5566406-1.0898438a.50065948.50065948 0 0 1 .5742188-.8203124l1.2128906.8496093v-3.4394531a.50005.50005 0 0 1 .4980469-.5.50005.50005 0 0 1 .3222656.1152344l2.9999995 2.5a.50005.50005 0 0 1 -.033203.7949218l-2.271484 1.5898438.8691406.6074219c.5042604-.9455243 1.4767384-1.6074219 2.6152344-1.6074219.352911 0 .686419.0744726 1 .1894531v-.9394531c0-2.905-2.23-5.25-5-5.25zm0 3.5683594v2.5703125l1.6757812-1.1738281zm4 3.4316406c-1.108 0-2 .911251-2 2.03125v.96875h-1v4h6v-4h-1v-.96875c0-1.119999-.892-2.0312499-2-2.03125zm-4 .8613281v2.1386719c.0000552-.552262.4477381-.999945 1-1h.0136719c.0016374-.1362519.0257491-.2665639.0449219-.3984375zm4 .1386719c.554 0 1 .440001 1 1v1h-2v-1c0-.559999.446-1 1-1z" fill="#444"/>
</svg>
