<svg height="16" width="16" xmlns="http://www.w3.org/2000/svg">
  <path d="m7.8125 1.0019531c-1.1283831.0292826-2.2663007.3315235-3.3125.9355469-3.3478377 1.932875-4.49537503 6.2146623-2.5625 9.5625 1.932875 3.347838 6.2146623 4.495375 9.5625 2.5625 3.347838-1.932875 4.495375-6.2146623 2.5625-9.5625-1.328852-2.3016384-3.767557-3.56246847-6.25-3.4980469zm-2.8125 1.9980469h2a1.0001 1.0001 0 0 1 .3261719.0566406c.4507822-.061197.9034385-.0607431 1.3476562 0a1.0001 1.0001 0 0 1 .3261719-.0566406h2a1.0001 1.0001 0 0 1 1 1v.5351562l.695312-.4003906-.230468 3.5976563-.464844-.2304688v1.4980469h.892578c-.148137.728725-.458262 1.404885-.892578 1.988281v1.011719a1.0001 1.0001 0 0 1 -1 1h-2a1.0001 1.0001 0 0 1 -.3261719-.056641c-.4507821.061197-.9034385.060744-1.3476562 0a1.0001 1.0001 0 0 1 -.3261719.056641h-2a1.0001 1.0001 0 0 1 -1-1v-.535156l-.6953125.40039.2304687-3.5976559.4648438.2304688v-1.4980469h-.8925781c.1481376-.7287251.4582639-1.4048824.8925781-1.9882812v-1.0117188a1.0001 1.0001 0 0 1 1-1zm0 1v8h2v-8zm4 0v8h2v-8z" fill="#444"/>
</svg>
