<svg height="16" width="16" xmlns="http://www.w3.org/2000/svg">
  <path d="m8.0000001.99999995c-3.8657501-.00000003-7 3.13424995-7 7.00000005-.0000001 3.86575 3.1342498 7 6.9999999 7 3.86575 0 7.000001-3.13425 7-7 0-3.8657501-3.13425-7.00000005-6.9999999-7.00000005zm0 2.00000005c2.4190029-.0000001 4.4371699 1.7176959 4.9003909 3.9999999h1.099609l-1.999999 3.0000001-2.000001-3 .816406-.0000002c-.413124-1.1628047-1.5118953-1.9999999-2.8164059-1.9999999-.7135101.0012568-1.4032123.2567791-1.9453125.7207031l-1.7910156-1.0332031c.9469761-1.070712 2.3069291-1.6849302 3.7363281-1.6874999zm-4.0000001 2.9999999 2.0000001 3-.8164064.0000005c.4131242 1.1628046 1.5118956 1.9999996 2.8164065 1.9999996.7135093-.001256 1.4032123-.256779 1.9453132-.720703l1.7910146 1.033203c-.946976 1.070712-2.3069287 1.6849-3.7363279 1.6875-2.4190033.000001-4.4371695-1.717696-4.9003909-3.9999993l-1.099609-.0000008z" fill="#444"/>
</svg>
