<svg height="16" width="16" xmlns="http://www.w3.org/2000/svg">
  <path d="m14.062177 11.499999c1.932875-3.3478365.785661-7.6293014-2.562177-9.5621766-3.3478377-1.93287503-7.6293036-.7856598-9.5621781 2.5621777-1.93287439 3.347838-.78566 7.6293039 2.5621792 9.5621779 3.3478365 1.932875 7.6293019.78566 9.5621759-2.562179zm-1.73205-.999999c-1.209502 2.094918-3.7061534 2.983854-5.9142982 2.243863l-.549802.952288-1.5980782-3.232049 3.5980764-.232051-.4082028.707028c1.21358.223627 2.4879984-.309339 3.1402538-1.4390784.355667-.6185461.479229-1.3436074.34851-2.0450418l1.790287-1.0344636c.453776 1.3554613.305727 2.840324-.406746 4.0795048zm-.598076-4.9641013-3.5980764.2320509.4082029-.7070291c-1.2135806-.2236264-2.4879982.3093403-3.1402546 1.4390798-.3556632.6185469-.4792283 1.3436071-.3485099 2.0450428l-1.7902861 1.0344624c-.4537761-1.3554617-.3057008-2.8403092.406746-4.0795051 1.2095009-2.094919 3.7061532-2.9838535 5.9142963-2.2438635l.5498048-.9522888z" fill="#444"/>
</svg>
