<svg height="16" width="16" xmlns="http://www.w3.org/2000/svg">
  <path d="m14.76148 6.1882662c-1.000529-3.7340272-4.8391854-5.95027667-8.5732134-4.949747-3.7340277 1.0005296-5.95027761 4.8391868-4.9497477 8.5732141 1.0005305 3.7340277 4.8391869 5.9502777 8.5732155 4.9497467 3.7340266-1.000529 5.9502766-4.8391855 4.9497456-8.5732138zm-1.931851.5176386c.626084 2.3365771-.510743 4.7305492-2.59539 5.7686902l.284601 1.062139-3.4154155-1.155392 2.380139-2.7083095.2113015.7885875c1.016258-.7000038 1.540545-1.9780164 1.202913-3.2380768-.185884-.6888729-.611208-1.2889401-1.1996302-1.6924963l.5344482-1.9974008c1.279324.6375879 2.224595 1.7922303 2.597033 3.1722587zm-3.9330535-3.0872463-2.3801393 2.7083089-.211302-.788588c-1.0162588.7000031-1.5405437 1.9780169-1.2029122 3.2380783.1858838.6888714.6112081 1.2889393 1.1996299 1.6924973l-.534448 1.997399c-1.2793244-.637588-2.224565-1.792239-2.597033-3.1722587-.626085-2.3365778.5107431-4.7305492 2.5953881-5.7686902l-.284599-1.0621409z" fill="#444"/>
</svg>
