<svg height="16" width="16" xmlns="http://www.w3.org/2000/svg">
  <path d="m6.1882667 1.2385192c-3.7340278 1.0005297-5.95027718 4.8391863-4.9497474 8.5732141 1.0005296 3.7340277 4.8391862 5.9502777 8.573214 4.9497477 3.7340277-1.00053 5.9502777-4.8391865 4.9497477-8.5732143s-4.8391865-5.95027723-8.5732143-4.9497475zm.5176381 1.9318517c2.3365774-.6260841 4.7305492.5107428 5.7686902 2.5953887l1.062141-.2845998-1.155394 3.4154157-2.7083094-2.3801394.7885874-.2113015c-.7000029-1.0162588-1.9780166-1.5405443-3.2380771-1.2029121-.6888726.1858839-1.2889397.6112076-1.6924959 1.1996296l-1.9974009-.5344486c.6375881-1.2793238 1.7922304-2.2245948 3.1722587-2.5970326zm-3.0872462 3.9330536 2.7083088 2.3801394-.7885879.211302c.7000032 1.0162581 1.9780171 1.5405441 3.2380777 1.2029111.688872-.185883 1.2889398-.611207 1.6924968-1.1996289l1.9974.5344479c-.637588 1.279324-1.792238 2.224566-3.1722587 2.597033-2.3365776.626085-4.7305491-.510743-5.7686901-2.595388l-1.062141.284599z" fill="#444"/>
</svg>
