<svg height="16" width="16" xmlns="http://www.w3.org/2000/svg">
  <path d="m12.949747 12.949746c2.733498-2.733497 2.733499-7.1659949 0-9.8994932-2.733498-2.73349804-7.1659972-2.73349814-9.8994947-.0000002-2.73349754 2.7334985-2.73349845 7.1659984.0000013 9.8994954 2.7334969 2.733498 7.1659964 2.733498 9.8994934-.000002zm-1.414213-1.414212c-1.710494 1.710493-4.3521476 1.922959-6.2935279.636672l-.7775382.777541-.7071092-3.5355331 3.5355341.7071071-.5772859.577285c1.1143493.530105 2.4832847.345143 3.4057131-.577285.503639-.5054163.810651-1.1737916.865931-1.8851577l1.997023-.5358548c.0875 1.426721-.43982 2.8226705-1.44874 3.8352255zm.707107-4.9497471-3.5355343-.7071068.5772863-.577287c-1.11435-.5301042-2.4832848-.3451415-3.4057142.5772867-.503636.505418-.8106501 1.1737914-.8659308 1.8851586l-1.9970221.5358539c-.0874948-1.4267214.4398418-2.8226492 1.4487401-3.8352258 1.710493-1.7104945 4.3521472-1.9229581 6.293526-.6366731l.777541-.7775404z" fill="#444"/>
</svg>
