<svg height="16" width="16" xmlns="http://www.w3.org/2000/svg">
  <path d="m4.5 1.9378222c-3.3478377 1.932875-4.49505283 6.2143401-2.5621778 9.5621778 1.932875 3.347838 6.2143401 4.495053 9.5621778 2.562178 3.347838-1.932875 4.495053-6.2143403 2.562178-9.562178s-6.2143403-4.49505283-9.562178-2.5621778zm1 1.7320508c2.094918-1.2095015 4.70155-.7310166 6.243863 1.0139061l.952289-.5498045-.23205 3.5980762-3.2320512-1.5980762.7070283-.408203c-.9391782-.8004565-2.3093398-.9761031-3.4390791-.3238478-.6172895.3578434-1.086828.9239833-1.3243385 1.5968034l-2.0676666.0007277c.2847494-1.4007519 1.1553941-2.612657 2.3920051-3.3295819zm-1.9641016 4.5980762 3.2320508 1.5980762-.7070285.4082036c.9391782.800456 2.30934.976103 3.4390793.323847.617289-.357843 1.086828-.9239831 1.324339-1.5968031l2.067666-.0007277c-.284749 1.4007518-1.155409 2.6126308-2.392005 3.3295818-2.094918 1.209502-4.7015496.731016-6.2438627-1.013906l-.9522897.549804z" fill="#444" opacity=".3"/>
</svg>
