<svg height="16" width="16" xmlns="http://www.w3.org/2000/svg">
  <path d="m8.0000002 1.0000002c-3.859828 0-7 3.1401734-7 7 0 3.8598278 3.140172 6.9999998 7 6.9999998 3.8598258 0 6.9999998-3.140172 6.9999998-6.9999998 0-3.8598266-3.140174-7-6.9999998-7zm.40039 2c1.6000008 0 4.5996098 1.3992188 4.5996098 3.1992188 0 .5999999-.250469 1.320667-1.021484 1.7226562-.513146.2183708-.884035-.016704-.953125-.3203125-.0455-.1999288.03982-.4295546.298828-.578125.943072-.86477-1.3242192-2.0234375-1.3242192-2.0234375v4.9999998c0 1.10457-1.4536026 2-2.9999996 2-1.546398 0-3-.89543-3-2 0-1.1045694 1.353993-1.9999998 2.90039-1.9999998.429087.0006696.715107.070989 1.09961.2070312v-4.7890624s.00039-.4179688.40039-.4179688z" fill="#444"/>
</svg>
