<svg height="16" width="16" xmlns="http://www.w3.org/2000/svg">
  <path d="m8 1a7 7 0 0 0 -6.2128906 3.7871094 7 7 0 0 1 3.2128906-.7871094 7 7 0 0 1 1.2597656.1171875 7 7 0 0 1 1.8476563-3.1113281 7 7 0 0 0 -.1074219-.0058594zm1.4726562.1601562a6 6 0 0 0 -2.2421874 3.2148438 7 7 0 0 1 3.6933592 2.9140625 4.5 4.5 0 0 1 1.576172-.2890625 4.5 4.5 0 0 1 2.488281.7519531 7 7 0 0 0 -5.5156248-6.5917969zm-4.4726562 3.8398438a6 6 0 0 0 -3.796875 1.359375 7 7 0 0 0 -.203125 1.640625 7 7 0 0 0 7 7 7 7 0 0 0 1.484375-.167969 4.5 4.5 0 0 1 -1.484375-3.332031 4.5 4.5 0 0 1 .0429688-.578125 7 7 0 0 1 -2.0429688-4.921875 7 7 0 0 1 .0664062-.9003906 6 6 0 0 0 -1.0664062-.0996094zm2.0351562.3632812a6 6 0 0 0 -.0351562.6367188 6 6 0 0 0 1.3457031 3.7714844 4.5 4.5 0 0 1 1.6816409-2.0292969 6 6 0 0 0 -2.9921878-2.3789063zm5.4140628 2.6367188a3.5 3.5 0 0 0 -2.423828 1.0253906 3.5 3.5 0 0 0 0 4.9492184 3.5 3.5 0 0 0 4.949218 0 3.5 3.5 0 0 0 0-4.9492184 3.5 3.5 0 0 0 -2.52539-1.0253906zm.089843 1a2.5 2.5 0 0 1 .001954 0 2.5 2.5 0 0 1 1.726562.7324219 2.5 2.5 0 0 1 .314453 3.1425781l-3.460937-3.4609375a2.5 2.5 0 0 1 1.417968-.4140625zm-2.121093 1.125 3.460937 3.460938a2.5 2.5 0 0 1 -3.146484-.31836 2.5 2.5 0 0 1 -.314453-3.142578z" fill="#444"/>
</svg>
