<svg height="16" width="16" xmlns="http://www.w3.org/2000/svg">
  <g fill="#444">
    <path d="m4.4966766 1.0009942c-2.5745248-.09071739-5.9992932 6.0429164-.7385376 11.2649408 5.2452122 5.205919 11.411907 1.84308 11.238276-.774464a7.5026047 7.5099607 0 0 1 -4.491793 1.505903 7.5026047 7.5099607 0 0 1 -7.502605-7.5099605 7.5026047 7.5099607 0 0 1 1.4946596-4.4864193z"/>
    <path d="m5.0378801 1.1085588c-.9595399 1.1993573-1.5356894 2.7193697-1.5356894 4.3788547 0 3.8770579 3.1291708 7.0092965 7.0024313 7.0092965 1.653362 0 3.168117-.573592 4.364796-1.529372-.108083-.248361-.279754-.483316-.533388-.69428-1.052087-.8764433-2.993014-1.5049947-5.0232282-3.5202943-2.1421622-2.1265743-2.7523666-4.1412007-3.6497047-5.1806994-.189384-.2193645-.401323-.367478-.625217-.4635055z" opacity=".3"/>
  </g>
</svg>
