<svg height="16" width="16" xmlns="http://www.w3.org/2000/svg">
  <path d="m12.874 2.0231-.362-.3098c-.538-.46-1.215-.7133-1.906-.7133-.9236 0-1.785.4335-2.3635 1.1892l-5.5668 7.2738c-.5101.666-.7436 1.502-.6586 2.356.0851.852.4784 1.618 1.1087 2.157l.3622.31c.5375.461 1.2145.714 1.9064.714.1068 0 .2149-.005.3212-.017.8013-.09 1.5232-.502 2.0297-1.157.0017-.002.0026-.004 3.7557-4.9072.669-.8733.54-2.159-.285-2.8659l-.19-.1618c-.342-.2921-.771-.4529-1.2107-.4529-.5863 0-1.1331.2752-1.5.7551l-3.7491 4.8977c-.2449.321-.198.791.1048 1.05.1253.108.2829.167.4439.167.2144 0 .4147-.101.5496-.277l3.7488-4.8981c.0977-.1284.2434-.2019.4003-.2019.1191 0 .2304.0418.3234.1208l.189.1624c.107.091.174.2214.189.3658.013.1452-.026.287-.113.3999l-3.7437 4.8921c-.3092.403-.7695.635-1.2628.635-.3698 0-.7318-.135-1.0191-.381l-.3622-.31c-.3358-.287-.5465-.696-.5918-1.152-.0455-.456.0796-.903.3523-1.26l5.5675-7.2732c.3094-.4039.7698-.6356 1.2638-.6356.37 0 .732.1354 1.019.3811l.362.3098c.695.5952.803 1.6776.24 2.413-.118.1551-.173.3497-.153.5482.02.1983.111.3767.259.5021.125.1072.283.1663.443.1663.215 0 .415-.1009.55-.2769.509-.6655.742-1.502.657-2.3563-.086-.8545-.479-1.6211-1.109-2.1594z" fill="#444"/>
</svg>
