<svg height="16" width="16" xmlns="http://www.w3.org/2000/svg">
  <path d="m3.5 1a3.5 3.5 0 0 0 -3.5 3.5 3.5 3.5 0 0 0 3.5 3.5 3.5 3.5 0 0 0 1.4766-.33l1.5234 1.83-5.5 6.5 7-5 7 5-5.5-6.5 1.523-1.832a3.5 3.5 0 0 0 1.477.332 3.5 3.5 0 0 0 3.5-3.5 3.5 3.5 0 0 0 -.002-.0254c0-.0197-.001-.0389-.002-.0586a3.5 3.5 0 0 0 -.045-.4707c-.018-.1195-.046-.2361-.076-.3535a3.5 3.5 0 0 0 -.059-.2051c-.063-.1946-.146-.3814-.244-.5644-.154-.2881-.335-.5652-.576-.8086-.536-.5408-1.205-.8547-1.9-.9629a3.5 3.5 0 0 0 -.027-.0039 3.5 3.5 0 0 0 -.461-.043c-.012-.0001-.024-.0039-.036-.0039-.006 0-.012.0019-.017.002a3.5 3.5 0 0 0 -.054-.002 3.5 3.5 0 0 0 -3.5 3.5 3.5 3.5 0 0 0 .383 1.584l-1.383 1.916-1.3814-1.9121a3.5 3.5 0 0 0 .3814-1.5879 3.5 3.5 0 0 0 -3.5005-3.5zm0 2a1.5 1.5 0 0 1 1.5 1.5 1.5 1.5 0 0 1 -1.5 1.5 1.5 1.5 0 0 1 -1.5-1.5 1.5 1.5 0 0 1 1.5-1.5zm9 0a1.5 1.5 0 0 1 1.5 1.5 1.5 1.5 0 0 1 -1.5 1.5 1.5 1.5 0 0 1 -1.5-1.5 1.5 1.5 0 0 1 1.5-1.5z" fill="#444"/>
</svg>
