<svg height="16" width="16" xmlns="http://www.w3.org/2000/svg">
  <path d="m6.3789062 2s-1.7604667-.042953-3.625 1.4980469c-1.86462212 1.5411-2.7539062 4.7311716-2.7539062 9.3261721 0 0 2.1383111 2.074781 5 2.175781 0 0 .6115556-.452 1-1-1.6444445-.547-2.5605469-2.367187-2.5605469-2.367188 1.5152.953002 2.9894357 1.350188 4.5605469 1.367188 1.571111-.017 3.045347-.414186 4.560547-1.367188 0 .000001-.916102 1.820188-2.560547 2.367188.388444.548 1 1 1 1 2.861689-.101 5-2.175781 5-2.175781 0-4.5950005-.889284-7.7850721-2.753906-9.3261721-1.864534-1.5409999-3.6250002-1.4980469-3.6250002-1.4980469l-.1289063.171875c2.3307555.7347 3.3906245 2.3730469 3.3906245 2.3730469s-.28456-.1718438-.763671-.4023438c-1.453156-.7848-2.785808-1.1425781-4.119141-1.1425781-1.3333334 0-2.6659851.3577781-4.1191406 1.1425781-.4791111.2305-.7636719.4023438-.7636719.4023438s1.0598695-1.6383469 3.390625-2.3730469zm-.8789062 6c.8381317 0 1.5149989.668 1.5 1.5 0 .832-.6618683 1.5-1.5 1.5-.8233329 0-1.5-.668-1.5-1.5s.6619684-1.5 1.5-1.5zm5 0c.838032 0 1.5.668 1.5 1.5s-.676667 1.5-1.5 1.5c-.838132 0-1.5-.668-1.5-1.5-.0149989-.832.661868-1.5 1.5-1.5z" fill="#444"/>
  <circle cx="14.5" cy="1.5" fill="#4285f4" r="1.5"/>
</svg>
