<svg height="16" width="16" xmlns="http://www.w3.org/2000/svg">
  <path d="m8 1a7 7 0 0 0 -5.082 2.1973l2.2343 3.8691a3 3 0 0 1 2.8477-2.0664h6.316a7 7 0 0 0 -6.316-4zm-5.7598 3.0234a7 7 0 0 0 -1.2402 3.9766 7 7 0 0 0 5.3828 6.803l2.2344-3.869a3 3 0 0 1 -.6172.066 3 3 0 0 1 -2.5938-1.502l-.0039.002zm7.9898 1.9766a3 3 0 0 1 .77 2 3 3 0 0 1 -.404 1.498l.002.002-3.1585 5.473a7 7 0 0 0 .5605.027 7 7 0 0 0 7-7 7 7 0 0 0 -.299-2z" fill="#444" opacity=".3"/>
  <path d="m8 6a2 2 0 0 0 -2 2 2 2 0 0 0 2 2 2 2 0 0 0 2-2 2 2 0 0 0 -2-2z" fill="#4285f4"/>
</svg>
