<svg height="16" width="16" xmlns="http://www.w3.org/2000/svg">
  <path d="m1.0195312 1c-1.34935132-.02591589-1.3632513 2.0055241-.0136718 1.9980469v10.9902341c-.01904533 1.345843 1.9995237 1.349216 1.9960937.013672h-.0039062v-12.0312499c-.0163961-.5374187-.4504717-.970649-.9921875-.9707031zm2.9785157 1v10.988281h1.0058593v1.273438c0 .726096.7265626.724609.7265626.724609h.2734374 1v-1.998047h1.9980469v1.994141h1.9999999v-1.994141h2v1.996094h.998047.273438s.726562.001489.726562-.724609v-1.271485h.300781c.387663 0 .699219-.304765.699219-.685547v-9.6171871c0-.3807824-.311556-.6855469-.699219-.6855469zm5.0019531 2h2v2h-2zm0 3h2v4h-2z" fill="#444"/>
</svg>
