<svg height="16" width="16" xmlns="http://www.w3.org/2000/svg">
  <path d="m7.5 1c-3.5898509 0-6.5 2.9101491-6.5 6.5.00378 3.408965 2.6405581 6.235847 6.0410156 6.476562-.0025167.898436-.0410156 2.023438-.0410156 2.023438 3.949542-.489133 7-3.918083 7-8 0-.092036-.009-.1699131-.01172-.2578125.005413-.0806493.00932-.1613925.01172-.2421875 0-3.5898509-2.910149-6.5-6.5-6.5zm-.828125 4.9880468c.2079-.0001998.3794.2033439.3125.4023439.0159.0377.013672.077887.013672.1171875 0 .856.0008 1.7123594 0 2.5683594-.0006.765-.4946563 1.4794374-1.2226563 1.7734374-.0183.008-.036787.01834-.054687.02734-.0098.003-.019097.0048-.029297.0078-.0056.003-.011878.0048-.017578.0078-.1521.042-.3040375.07661-.4609375.09961-.1197.017-.1567031-.04902-.1582031-.166015-.0012-.081-.00125-.162141-.00195-.244141l.00391-.439453c-.0006-.032-.00205-.06566-.00195-.09766.0001894-.1119684.1135019-.1603747.2578019-.1913747.183-.041.2325-.0985625.375-.2265625.1709-.154.2733-.4158125.3125-.6328125-.4937-.001-1.0041469-.0009531-1.4980469-.00195-.0537 0-.1063562-.0009531-.1601562-.00195-.2016-.003-.3398438-.4006563-.3398438-.5976563.0003-.7747.00135-1.2175875.00195-1.9921876 0-.0075-.00145-.015937-.00195-.023437-.0155-.1448999.027456-.2632499.1601563-.34375.0516-.0315.1085687-.042969.1679687-.042969.7807-.0004001 1.5609969-.00105 2.3417969-.00195zm4.001953 0c.208-.0001998.377547.2033439.310547.4023439.016.0377.01367.077887.01367.1171875 0 .856.001 1.7123594 0 2.5683594-.001.765-.496609 1.4794374-1.2246095 1.7734374-.018.008-.032781.01834-.050781.02734-.01.003-.02125.0048-.03125.0078-.005.003-.010625.0048-.015625.0078-.1519999.042-.3058906.07661-.4628906.09961-.12.017-.15525-.04902-.15625-.166015-.002-.081-.00195-.162141-.00195-.244141l.00195-.439453c0-.032-.00195-.06566-.00195-.09766.001-.1120004.1118594-.1594067.2558594-.1914067.183-.041.233-.098563.375-.2265625.171-.154.2735-.4158125.3125-.6328125-.494-.001-1.0001407-.0009531-1.4941407-.00195-.054 0-.1091093-.0009531-.1621093-.00195-.202-.003-.3398438-.4006563-.3398438-.5976563 0-.7748001.0009532-1.2175875.00195-1.9921876v-.023437c-.016-.1448999.025203-.2631499.1582032-.34375.051-.0314.1060156-.042969.1660156-.042969.781-.0004001 1.5647032-.00105 2.345703-.00195z" fill="#444"/>
  <circle cx="14.5" cy="1.5" fill="#4285f4" r="1.5"/>
</svg>
