<svg height="16" width="16" xmlns="http://www.w3.org/2000/svg">
  <path d="m3.9453125 2c-.3147281-.0002571-.6056516.1633916-.7636719.4277344l-3.06249998 5.140625c-.15898279.2665715-.15898279.5956138 0 .8613281l3.06249998 5.1425785c.1579328.264.4488563.427734.7636719.427734h6.1132815c.31499 0 .603348-.163734.761718-.427734l3.060547-5.1425785c.159246-.2657143.159246-.5947566 0-.8613281l-3.060547-5.140625c-.15837-.2638285-.446728-.4274772-.761718-.4277344zm.6289063 2h4.8554687l.0585937.0976562-2.4882812 2.4882813-2.4863281-2.4863281zm5.9687502 1.8710938 1.265625 2.1289062-1.265625 2.128906-2.1289065-2.128906zm-7.0839846.0019531 2.1269531 2.1269531-2.1269531 2.126953-1.2675782-2.126953zm3.5410156 3.5410156 2.4863281 2.4863285-.0585937.099609h-4.8535156l-.0605469-.099609z" fill="#444"/>
</svg>
