<svg height="16" width="16" xmlns="http://www.w3.org/2000/svg">
  <path d="m5.786 1.2033c-2.9439.8515-5.02184 3.1423-4.7645 6.3282.2969 3.6755 5.6237 7.3915 7.71 7.4685.9092-.215.3828-3.125-.1523-5.3214-.1504-.5935-.3008-1.1849-.4737-1.7794-.0556-.1922-.123-.4308-.1406-.4889-.2852-.9561-.6299-2.0478-1.1942-3.7836-.1066-.3137.118-.6422.4461-.6527.2198-.0074.418.1345.4825.3466.9785 3.0085 1.3662 4.3312 1.7646 5.8838 1.5711 1.9686 3.8551 4.6616 4.5931 4.4946 1.138-.26 1.551-7.8357-.526-10.172-2.076-2.3366-4.8249-2.88574-7.7454-2.3235z" fill="#444"/>
</svg>
