<svg height="16" width="16" xmlns="http://www.w3.org/2000/svg">
  <path d="m12.382358.99958504c-.285923 0-.145833.04645-.298951.10351596-.653686.243617-1.160753.500199-1.451172 1.664094-.467166 1.8722268-1.2697591 2.7070317-2.6025391 2.7070317-.407157 0-.410953.08131-.02149.4453111.756163.7067018 1.216254 1.7658248 1.34082 3.0878898.04897.5195594.122066.749619.305664.9648416.132467.1552868.295766.2812498.3642581.2812498.06849 0 .201509-.230053.295899-.5117174.126855-.378532.192132-1.046416.25-2.560546.06709-1.7555209.109469-2.1289799.295898-2.6103493.477208-1.2321663 1.044367-1.8906223 2.130982-1.4037893.521727.23375.972446.9126248 1.63379 2.0698047.490486.8582289 1.041652 1.5058569 1.282226 1.5058569.121528 0 .124257-.166917.0039-.240234-.493221-1.3477199-.515639-3.0454986-.816401-3.8388966-.532672-1.029947-1.567663-1.66406296-2.712884-1.66406296zm-6.5577407 4.28811866c-.09453.00085-.202611.0091-.336914.02149-.635293.05852-.951172.1418-.951172.2509769 0 .03567.393838.458752.874023.940426.9551406.958098 1.4120686 1.72059 1.6201176 2.704102.09367.3201244.121744.6477478.142578.9765604-.713386.324048-1.171841 1.034825-1.172852 1.818359 0 1.104569.895431 2 2.000001 2s2.0000001-.895431 2.0000001-2c-.0007001-.768985-.4422621-1.469458-1.1357421-1.801758-.100665-.2761848-.07519-.5436532-.07519-.8164044 0-1.634304-.85421-3.139681-2.187501-3.855466-.337638-.1812589-.493764-.2408509-.7773486-.2382809zm-2.091797.6513651-.539062.3652348c-.791485.537693-1.56266 1.411237-1.9775389 2.239257-.328679.655977-.369397.824522-.408203 1.6826154-.02699.596736-.101953 1.067707-.199219 1.256836-.211182.410627-.106372.796026.240234.881835.145922.03612.489867.292399.7646479.56836.920057.923995 2.670229 1.302958 4.233399.916992.4047146-.09993.4538116-.188166.2148426-.383789-.08583-.07026-.2686876-.347526-.4072256-.617188-.47379-.922245-.297537-2.069447.4335926-2.80957.331739-.3358154.35154-.3892412.293946-.8037094-.03393-.244325-.174625-.66527-.313477-.935547-.2829746-.550827-1.4740076-1.837593-1.9951166-2.155272zm-.982422 4.0605444c.414214 0 .75.3357858.75.7499998s-.335786.75-.75.75c-.414213 0-.75-.335786-.75-.75s.335787-.7499998.75-.7499998zm5.2500006.9999998c.552285 0 1 .447715 1 1 0 .552284-.447715 1-1 1-.552286 0-1.000001-.447716-1.000001-1 0-.552285.447715-1 1.000001-1z" fill="#444"/>
</svg>
