<svg height="16" width="16" xmlns="http://www.w3.org/2000/svg">
  <path d="m7 1c-.03076 0-.340073.6290934-.53125 1.0078125-.2798665.5544135-.4131959.9820769-.4589844 1.4746094-.011312.12171-.00954.241871-.00195.359375-.0047362.052935-.0073256.1050611-.0078156.1582031 0 .4587653.1601643.8774025.4199219 1.2148438-1.4584053.3982368-2.6975113 1.3301952-3.4882813 2.5761718-.155196.2029376-.291233.4139074-.390625.640625-.156183.3562616-.2734131.7247073-.3613281 1.1230469-.0585.2363652-.1071748.4761705-.1367187.7226565-.0026.02194.00489.02655.015625.02344-.01128.09494-.026376.185721-.035156.285157-.02812.318756-.031172.449217-.00977.449218l3.9863322-4.035159-.9609375 3.011719c.0052.0052-.1058848.04768.027344-.013672.8185444-.3768904 1.5688629-.8865107 2.4707029-.9941408.3110088-.0371157 1.388661-.0378802 1.7128906-.0039062.32761.0343275.6414164.219586.964844.421875.554339-.2770086 1.165458-.4214307 1.785156-.421875.408814-.0000961.815227.06248 1.205078.1855469.08832-.2465709.129389-.5146847.09766-.7597657-.0068-.052432-.02062-.1014581-.03125-.1523437.02116-.052393.0015-.141107-.08203-.2871094-.0822-.2184009-.204002-.4363377-.386724-.6835937-.884959-.9724579-1.965834-1.7383642-3.2226559-2.0898438.2592017-.3372435.4199219-.7546679.4199219-1.2128906-.000017-.050837-.00195-.1016547-.00586-.1523438.0017-.05067.00649-.1024842.00391-.1523437-.0352972-.6848115-.431165-1.1539661-1.0293-1.4628906-.3166713-.1635545-.801105-.2396037-1.1171875-.2402344-.4820356-.066083-.5615594-.7134888-.8515625-.9921875zm-2.4472656 8.8867188c0-.0000003-.4140169.3631912-1.828125 1.8515622-.167851.169733-.3928843.261141-.6289063.28125.1914391 1.10901.6909247 2.141822 1.4414063 2.980469h5.0039062c-.3528621-.607581-.5394604-1.297388-.5410156-2 .001626-1.114471.4681309-2.177735 1.2871094-2.933594-.0293801-.011866-.1347621-.0716499-.140625-.0722654-.094239-.00988-1.4475054-.003147-1.4902344.0019532-.5962637.0711612-1.2510578.4863302-2.1660156.9082032-.0024.0012-.00346.000759-.00586.002-.00328.0016-.012435.0082-.015625.0098-.050698.02504-.057682.03073-.1386719.05859-.020247.007-.1164672.03305-.1171875.0332-.0003601.000086-.2595855.02149-.2597656.02149l-.3281244-.072346-.0859375-.039062.4609375-.886719s-.2241481-.072871-.4472656-.1445312zm7.4472656.1132812c-1.656751 0-3 1.35-3 3s1.343249 3 3 3c1.65675 0 3-1.35 3-3s-1.34325-3-3-3zm.0039.5 2.4961 2.5h-1.5v2h-2v-2h-1.5zm-7.0039 1.5c.5522847 0 1 .447715 1 1s-.4477153 1-1 1-1-.447715-1-1 .4477153-1 1-1z" fill="#444"/>
</svg>
