<svg height="16" width="16" xmlns="http://www.w3.org/2000/svg">
  <path d="m.8008 1c-.4432 0-.8008.3624-.8008.8125v10.3745c0 .451.39735.63.8008.813h2.1992v1.187c0 .451.3723.813.834.813h8.332c.462 0 .834-.362.834-.813v-1.187h2.199c.443 0 .801-.362.801-.813v-10.3745c0-.4501-.358-.8125-.801-.8125zm.1992 1h14v10h-14zm6 1c-.5523 0-1 .4477-1 1s.4477 1 1 1 1-.4477 1-1-.4477-1-1-1zm5 0c-1.105 0-2 .8954-2 2s.895 2 2 2 2-.8954 2-2-.895-2-2-2zm-8.5 3c-.8284 0-1.5.6716-1.5 1.5s.6716 1.5 1.5 1.5 1.5-.6716 1.5-1.5-.6716-1.5-1.5-1.5zm8.965 2.4c-.262.0184-.466.237-.465.5 0 .2761.224.5.5.5s.5-.2239.5-.5-.224-.5-.5-.5c-.012-.0004-.023-.0004-.035 0zm-3.465.6c-.5523 0-1 .4477-1 1 0 .552.4477 1 1 1s1-.448 1-1c0-.5523-.4477-1-1-1z" fill="#444"/>
</svg>
