<svg height="16" width="16" xmlns="http://www.w3.org/2000/svg">
  <path d="m8 1c-3.8659932 0-7 2.9101491-7 6.5.000578 1.5815912.6217111 3.087594 1.7128906 4.255859.4696428-.482284 1.113937-.754789 1.7871094-.755859 1.3807119 0 2.5 1.119288 2.5 2.5-.0012798.140172-.0143467.279988-.0390625.417969.3434781.048862.690434.081086 1.0390625.082031 3.865993 0 7-2.910149 7-6.5 0-3.5898509-3.134007-6.5-7-6.5zm-1 3 2 3 4-2-5 6-1-3.5-4 1.5z" fill="#444"/>
  <circle cx="4.5" cy="13.5" fill="#4285f4" r="1.5"/>
</svg>
