<svg height="16" width="16" xmlns="http://www.w3.org/2000/svg">
  <path d="m8 .99996c-1.8412 1.72364-4.9418 2.99184-6 3.25004 0 4.6664 2.25 9.972 6 10.75 3.75-.778 6-6.0836 6-10.75-1.059-.2582-4.1589-1.5264-6-3.25004zm0 4.00004c.8403.0011 1.6417.3547 2.209.9746l.789-.457-.178 1.4746.004.0078h-.004l-.121 1-2.2986-.9824.9082-.5254c-.3628-.3162-.8274-.4909-1.3086-.4922-.714.0006-1.3735.3817-1.7305 1h-1.0957c.4235-1.1979 1.5557-1.999 2.8262-2zm-2.7012 3.0176 2.2989.9824-.8965.5176c.3616.3104.8222.4815 1.2988.4824.714-.0006 1.3735-.3817 1.7305-1h1.0955c-.423 1.198-1.5555 1.999-2.826 2-.8345-.001-1.6306-.35-2.1973-.963l-.8027.463.1797-1.4902-.0039-.0098h.0039z" fill="#444" fill-rule="evenodd"/>
</svg>
