<svg height="16" width="16" xmlns="http://www.w3.org/2000/svg">
  <path d="m2.5 1.99965c-.277 0-.5.223-.5.5v.5l-2-.002v-.0003 10.50265c0 .277.223.5.5.5h6c.277 0 .5-.223.5-.5v-10.50165l-.5.002h-1.5v-.5c0-.277-.223-.5-.5-.5z" fill="#4285f4" opacity=".3"/>
  <path d="m12 2.0000009c-1.762728 0-3 1.5069991-3 3.9999991h3zm1 0v3.9999991h3c0-2.493-1.237272-3.9999991-3-3.9999991zm-4 4.9999991v2.5000005c0 2.4929995 1.419091 4.4999995 3.181818 4.4999995h.636364c1.762727 0 3.181818-2.007 3.181818-4.4999995v-2.5000005h-3.181818z" fill="#444"/>
</svg>
