<svg height="16" width="16" xmlns="http://www.w3.org/2000/svg">
  <path d="m4.5 2c-1.1261999 0-2.5 1.15785-2.5 2.59375 0 .6178.216172 1.413275.5761719 1.859375.0793.2032-.0017063.3711156-.0039063.4160156-.0076.1531.325803.218587 1.2207032-.0703125 1.6205999-.6377 2.6781312-1.5501281 3.2070312-2.7988281l1 .0078125v-1.0078125h-1c0-.7332-1.3738-1-2.5-1zm7.5 1a1 1 0 0 0 -1 1 1 1 0 0 0 1 1 1 1 0 0 0 1-1 1 1 0 0 0 -1-1zm-3 1v.0078125a1.0001 1.0001 0 0 1 -1.0078125 1l-.5234375-.0039063c-.7209918 1.1817173-1.8020728 2.1329831-3.3105469 2.7265626a1.0001 1.0001 0 0 1 -.0585937.0214843c-.4197296.135501-.7419674.2027795-1.0605469.2265625-.1934588 1.0408562-.5025972 2.3222674-1.0390625 3.0214844 0 0 2.668-.0084 4 0h3c-.253-1.092-2.0938997-3.0235 0-3l-.0117188-.5c.5923523-.5943607 1.3346398-1.1784911 1.9667968-1.7988281a2 2 0 0 1 -.955078-1.7011719c-.121986.000267-.1714137-.00141-.2929688 0-.516016.00602-.4373861.000864-.7070312 0zm-3 3c1.4074001.031573 2 1 2 1h-2zm8.949219 2.7578125-2.828125 2.8281255-1.414063-1.414063-.707031.707031 1.414062 1.414063.707032.707031.707031-.707031 2.828125-2.828125z" fill="#444"/>
</svg>
