<svg height="16" width="16" xmlns="http://www.w3.org/2000/svg">
  <path d="m12.997 11.471c-.458.119-1.474.371-2.225.475-.984.137-2.122.213-2.972.198-.608-.011-1.4103-.139-1.8003-.291-.373-.153-.7129-.356-.9999-.61v3.757h-1.9998v-13.999h1.9998v5.181c0 .729.043 1.348.128 1.857.102.508.254.923.4579 1.245.22.322.5.56.839.712.3559.136 1.1493.25 1.6573.25.22 0 1.191-.055 1.411-.072.237-.017.453-.034.657-.051.203-.017.343-.045.496-.062.153-.034.293-.048.344-.065v-8.996h2.01z" fill="#444" opacity=".3"/>
</svg>
