<svg height="16" width="16" xmlns="http://www.w3.org/2000/svg">
  <g fill="#444">
    <path d="m13 9c-1.108 0-2 .911-2 2.031v.969h-1v4h6v-4h-1v-.969c0-1.12-.892-2.031-2-2.031zm0 1c.554 0 1 .442 1 1v1h-2v-1c0-.558.446-1 1-1z"/>
    <path d="m8.029 2 .002.002c-3.0341 0-5.7657 1.2698-8.031 3.0136l8.031 8.9804.969-1.096v-1.9h1.014c.019-1.635 1.342-3 2.986-3 .104 0 .203.021.305.031l2.695-3.0466c-2.258-1.7211-4.96-2.9844-7.971-2.9844z" opacity=".3"/>
    <path d="m8.031 4.998c-2.2426 0-4.5558.713-6.2302 2.002l6.2302 7 .969-1.1v-1.9h1.014c.019-1.635 1.342-3 2.986-3 .1 0 .194.021.291.031l.908-1.031c-1.667-1.2726-3.94-1.998-6.166-1.998z"/>
  </g>
</svg>
