<svg height="16" width="16" xmlns="http://www.w3.org/2000/svg">
  <g fill-rule="evenodd">
    <path d="m7.9998.99999v2.47071l5.0002 3.2949v-2.4707zm-5.2499.59571c-.414 0-.75.3677-.75.8223v1.0527l4.9999 3.2949v-2.4707c-1.3746-.863-2.5044-1.7309-3.8769-2.5898-.1132-.0717-.2425-.1094-.373-.1094zm-.75 3.5215v2.4707l4.9999 3.2951v-2.4709zm5.9999 0v2.4707l5.0002 3.2951v-2.4709zm-5.9999 4.1172v2.4706l5.2499 3.295-.25-2.471z" fill="#444"/>
    <path d="m8 9.2353v2.4687c1.3748.863 2.506 1.733 3.878 2.592.113.072.242.109.372.109.414 0 .75-.369.75-.824v-1.052z" fill="#4285f4"/>
  </g>
</svg>
