<svg height="16" width="16" xmlns="http://www.w3.org/2000/svg">
  <path d="m8 1a7 7 0 0 0 -7 7 7 7 0 0 0 7 7 7 7 0 0 0 7-7 7 7 0 0 0 -7-7zm-3 2c1.6 1.2 5.298967 1.201999 7 1.5-1.178779.2616295-3.1171774.3157437-4.7695312.6523438 1.4256746 1.0157423 2.1609842 1.0658577 3.7695312 1.3476562-1.712773.3801489-2.3606939.3421866-3.7890625 1.3613281 1.6843499.3673397 3.6675215.4421911 4.7890625.6386719-1.803821.400357-5.4.3-7 1.5l1.5.199219 1.5-.199219c-1.2 1.6-1.2019989 2.298967-1.5 4-.4003568-1.803821-.3-2.4-1.5-4l.1992188-1.5-.1992188-1.5c.5052456.3789342 1.2285944.6313016 2.0234375.8183594l.1757813-1.3183594-.171875-1.3007812c-.7939185.1766217-1.5168182.417887-2.0273438.8007812l.1992188-1.5zm4 7 1.5.199219 1.5-.199219c-1.2 1.6-1.201999 2.298967-1.5 4-.400357-1.803821-.3-2.4-1.5-4z" fill="#444"/>
</svg>
