<svg height="16" width="16" xmlns="http://www.w3.org/2000/svg">
  <path d="m2.5 1.99965c-.277 0-.5.223-.5.5v.5l-2-.002v-.0003 10.50265c0 .277.223.5.5.5h6c.277 0 .5-.223.5-.5v-10.50165l-.5.002h-1.5v-.5c0-.277-.223-.5-.5-.5z" fill="#4285f4" opacity=".3"/>
  <path d="m10 2c-.554 0-1 .446-1 1v10c0 .554.446 1 1 1h5c.554 0 1-.446 1-1v-10c0-.554-.446-1-1-1zm.714844 1h3.570312c.395715 0 .714844.3345.714844.75v7.5c0 .4155-.319129.75-.714844.75h-3.570312c-.395715 0-.714844-.3345-.714844-.75v-7.5c0-.4155.319129-.75.714844-.75z" fill="#444"/>
</svg>
