<svg height="16" width="16" xmlns="http://www.w3.org/2000/svg">
  <path d="m8.5 0c-3.0372436 0-5.4995438 2.3276432-5.5 5.1992188.00172.133675.00888.2672378.021484.4003906h-.021484v.4003906h-1.1660156c-.4616667 0-.8339844.3464546-.8339844.7773438v5.4453122c0 .430889.3723177.777344.8339844.777344h1.1660156v2.199219c0 .4432.3769338.800781.8457031.800781h2.9628907l1.2675781-2h.8476562l1.2675779 2h2.962891c.468769 0 .845703-.357581.845703-.800781v-2.199219h1.166016c.461666 0 .833984-.346455.833984-.777344v-5.4453122c0-.4308892-.372318-.7773438-.833984-.7773438h-1.166016v-.4003906h-.01758c.011301-.1332004.017164-.2667631.01758-.4003906-.000456-2.8715756-2.462756-5.1992188-5.5-5.1992188zm0 2c1.932663-.0000001 3.5 1 3.5 3.977539-.000558.014978-.0012.029952-.002.044922l-6.998-.0000001c-.0000931-.014974-.0000931-.029948 0-.044922 0-2.977539 1.567337-3.9775391 3.5-3.9775389zm-2.5 2v1h1v-1zm4 0v1h1v-1zm-1.5 3c.9233334 0 1.4667964.782188 1.4667964 1.742188v.257812h.6171876c.227489-.03915.416016.262571.416016.5v2.072266c0 .237428-.185182.427734-.416016.427734h-4.1679684c-.2308334 0-.4160156-.190306-.4160156-.427734v-2.072266c0-.237429.1851822-.5.4160156-.5h.6171875v-.257812c0-.960386.5434636-1.742188 1.4667969-1.742188zm0 .857422c-.4616667 0-.6328125.382565-.6328125.857422v.285156h1.265625v-.285156c0-.474857-.1711458-.857422-.6328125-.857422z" fill="#444" opacity=".3"/>
</svg>
