<svg height="16" width="16" xmlns="http://www.w3.org/2000/svg">
  <g fill="#444">
    <path d="m8 1c-1.6548 0-3.1768333.5435764-4.375 1.5546875l-1.4101562-1.3984375-1.09375 1.0878906 1.4101562 1.4003906c-.9600111 1.1666666-1.53125 2.7221355-1.53125 4.3554688 0 3.888889 3.1339778 7 7 7 3.866333 0 7-3.111111 7-7 0-1.6333333-.570695-3.1888022-1.53125-4.3554688l1.410156-1.4003906-1.09375-1.0878906-1.410156 1.3984375c-1.197778-1.0111111-2.7198888-1.5546875-4.375-1.5546875zm0 2c2.761429 0 5 2.2142856 5 5 0 2.785714-2.238571 5-5 5-2.7614287 0-5-2.214286-5-5 0-2.7857144 2.2385713-5 5-5z"/>
    <path d="m12 8h-4v-4c.1236173 0 .245925.00561.3666824.016582.12587.011439.2500558.02871.372285.051539.1412378.026379.279863.060181.4154555.100985.1150405.034619.227898.074279.3383159.1187215.1497422.060271.2949974.1293395.4351258.2065657.1143454.063017.2252774.1314659.3324474.2049989.113875.078133.223503.1620066.328466.2512027.105674.089799.20662.1849939.302413.2851579.08908.093146.173706.1905898.253532.2919883.08045.1021943.156031.2084059.226384.3182845.08592.1341845.16404.2738379.233733.4183216.07101.1472036.133259.2994212.186087.4559774.03695.1095139.0693.2211508.0968.3346797.02738.1130411.06374.3380892.08128.4546547.040127.204088.016749.2992622.030993.4903411z"/>
    <path d="m12 8h-4l3.790927 1.2796765c.03695-.1095139.0693-.2211508.0968-.3346797.02738-.1130411.06374-.3380892.08128-.4546547.040127-.204089.016749-.2992632.030993-.4903421z"/>
  </g>
</svg>
