<svg height="16" width="16" xmlns="http://www.w3.org/2000/svg">
  <path d="m2 1c-.554 0-1 .446-1 1v2.2832c.2965-.1755.636-.2832 1-.2832h1 1 .5859l1.7071-1.707c.1875-.1876.4418-.2929.707-.293h1c0-.554-.446-1-1-1zm5 2-2 2h-1-1-1c-.554 0-1 .446-1 1v1 1 2 1 2c0 1.108.892 2 2 2h10c1.108 0 2-.892 2-2v-2-1-6c0-.554-.446-1-1-1zm.9805 2.3203a.44445.44445 0 0 1 .0449 0 .44445.44445 0 0 1 .4004.3047l.7969 2.3906 2.5193.0254a.44445.44445 0 0 1 .26.8008l-2.0254 1.4982.7534 2.404a.44445.44445 0 0 1 -.683.494l-2.049-1.465-2.0527 1.461a.44445.44445 0 0 1 -.6816-.498l.7597-2.402-2.0234-1.5a.44445.44445 0 0 1 .2617-.8028l2.5195-.0195.8008-2.3867a.44445.44445 0 0 1 .3985-.3047z" fill="#444"/>
</svg>
