<svg height="16" width="16" xmlns="http://www.w3.org/2000/svg">
  <path d="m7.5000391.99998081c-.34503 0-.6904351.014663-.9101561.044922-2.652098.36514149-4.2193909 1.60036729-4.533203 3.57421869-.03467.2180843-.04521.606177-.05078 2.0898438l-.0039 1.1660156h-.002v.125.4707031.4042969.9707032l.0059-1.3691407.07226.1132813c.1899379.2903095.450559.4921634 1.6992189 1.3203124 2.087557 1.3845359 2.946169 1.8910459 3.474609 2.0449219.0834.02427.198507.04422.25586.04492.3507132.0044 1.3751209-.544785 2.9277351-1.570312 1.936219-1.2789109 2.295685-1.5460248 2.484375-1.8359381l.08008-.1230469v-.078125-.5175781-.8574219c0-1.8957908-.01469-2.2304309-.107422-2.6367187-.165396-.7245357-.465498-1.2982735-.945314-1.796875-.77015-.8003053-1.9740793-1.3238646-3.5371105-1.5390625-.2197297-.03025-.5651265-.04492199-.9101564-.04492199zm0 2.99999999c1.1343176 0 2.1192436.9426479 2.4414066 2.0976562.05672.2033481.05859.2119306.05859 1.0390626 0 .4586057-.0055.8423158-.01367.8515624-.0083.00924-1.1226942.013242-2.4863285.00977-1.363634.00349-2.4781621-.0005317-2.4863281-.00977-.0081-.00926-.01367-.3929566-.01367-.8515624 0-.8271319.0019-.8357145.05859-1.0390626.322172-1.1550084 1.3070889-2.0976562 2.441406-2.0976562zm5.5000009 5.4707033-.08008.123047c-.18869.289913-.548156.5570259-2.484375 1.8359379-1.5526141 1.025527-2.5770217 1.574712-2.9277349 1.570312-.05735-.0007-.172462-.02065-.25586-.04492-.52844-.153876-1.3870521-.660386-3.474609-2.044922-1.24866-.828149-1.509281-1.0300029-1.699219-1.3203119l-.07226-.113282-.0059 1.3691409v2.154297.873047h.0098l.0039.65625.08203.148437c.06354.112784.115384.162674.21875.220704l.134766.07617 2.191406.01367c1.205205.0069 3.4613204.01228 5.0136646.01172h2.8222653l.136719-.05664c.175381-.07192.227295-.11421.308594-.259765l.06445-.121094v-.689453h.01367l.000005-.873046v-2.992188-.5371089z" fill="#444"/>
</svg>
