<svg height="16" width="16" xmlns="http://www.w3.org/2000/svg">
  <path d="m-.0002 2v12h2v-12zm4 0v12l4.2522-.033c2.931-.033 3.208-.072 4.447-.676 2.702-1.316 3.98-4.505 2.941-7.3438-.686-1.8751-2.248-3.2628-4.237-3.7677-.625-.1586-1.02-.1797-3.448-.1797h-3.9557zm6.0002.3437 1.414 1.4141.707.7071-.707.707-1.414 1.4141-.707-.707.928-.9278c-.702-.0858-1.515.1005-2.342.9278-2.1216 2.121 0 4.242 0 4.242l-.707.707s-2.8287-2.828 0-5.656c1.048-1.0483 2.101-1.3122 3.006-1.2383l-.885-.8827.707-.707zm2.828 2.8281s2.828 2.8282 0 5.6562c-1.049 1.048-2.102 1.312-3.006 1.238l.885.883-.707.707-1.414-1.414-.707-.707.707-.707 1.414-1.414.707.707-.928.928c.701.086 1.515-.101 2.342-.928 2.121-2.121 0-4.2422 0-4.2422l.707-.7062z" fill="#444"/>
</svg>
