<svg height="16" width="16" xmlns="http://www.w3.org/2000/svg">
  <g fill="#444">
    <path d="m3.4628906 0c.7998917-.010607 1.5915351.3626686 2.0839844 1.0664062.2007601.286871.3332111.6064948.4003906.9394532h1.7324219c2.0928256 0 3.7910155 1.3954526 3.7910155 3.4882812 0 .9393169-.347348 1.7332481-.916015 2.3261719a2.50025 2.50025 0 0 1 .193359.2460937l.796875 1.1386719c.899064-.9737024 1.455078-2.2662078 1.455078-3.6933593 0-3.0241716-2.462434-5.47656255-5.5-5.47656255h-3.5957031c-.1458061-.0246412-.2935207-.03650935-.4414063-.03515625zm-2.4589844 2.5195312-.0039062.0039063v.0351563c-.0002756-.0129691.0039763-.0260746.0039062-.0390626zm-.0039062.0390626v9.9160152c-.047813 3.365899 5.047813 3.365899 5 0v-1.488281h.6796875l-.0488281-.070312c-.0243002-.033778-.0380681-.07265-.0605469-.107422a2.50025 2.50025 0 0 1 -.0664063-.115235c-.2959734-.516437-.4121471-1.1188896-.2988281-1.708984h-2.4121093v3.6875c.0076299.53942-.8064582.53942-.7988282 0v-7.7304688c-.6022332-.1250878-1.1611847-.4650127-1.5410156-1.0078124-.287176-.4103529-.4427261-.8855805-.453125-1.375zm4.9707031.2441406c-.00539.043712-.0020556.087156-.0097656.1308594-.1160001.6579845-.4805534 1.2320756-1.0273437 1.6152343-.3505168.2456102-.7427818.3776501-1.140625.4238281v3.2128907h.796875 1.9140624c.0113747-.0192938.0468357-.0344581.0644532-.0527344a2.50025 2.50025 0 0 1 2.046875-1.1621094 2.50025 2.50025 0 0 1 1.3300781.3476563c.4520975-.4541065.7265625-1.0737651.7265625-1.8242188 0-1.6616825-1.3305069-2.6914062-2.9921875-2.6914062h-1.0957031zm.0292969 1.2148437h1.5c.875806 0 1.5.622197 1.5 1.4941407 0 .727228-.4394856 1.3059314-1.0917969 1.4707031-.0145566-.0076334-.0356154-.0073744-.0449219-.0214844l-1.8632812.0429687z" opacity=".3"/>
    <path d="m3.4550781 0c-.4815269.00788452-.9653338.15474079-1.3886719.45117188-.5469387.38274464-.911483.95590132-1.0273437 1.61328122-.11600821.65738.031161 1.3204302.4140625 1.8671875.7904825 1.12886 2.351567 1.405717 3.4804688.6152344.5467902-.3828928.9113354-.9577062 1.0273437-1.6152344.1158605-.6570839-.0311612-1.3184772-.4140625-1.8652344-.4940515-.70553724-1.289252-1.07954608-2.0917969-1.0664062zm5.1601563 6.9707031a2.50025 2.50025 0 0 0 -1.9628906 3.9628909l2.0996093 3a2.50025 2.50025 0 1 0 4.0957029-2.867188l-2.099609-2.9999998a2.50025 2.50025 0 0 0 -2.1328126-1.0957031z"/>
  </g>
</svg>
