<svg height="16" width="16" xmlns="http://www.w3.org/2000/svg">
  <g fill="#444">
    <path d="m5.5 2a2.5 2.5 0 0 0 -2.5 2.5 2.5 2.5 0 0 0 .0800781.6152344c-.1784025-.0748547-.3744877-.1152344-.5800781-.1152344-.6522146 0-1.2016106.4186545-1.4082031 1h-.5917969a.5.5 0 0 0 -.5.5.5.5 0 0 0 .5.5h2.5644531c.6320456-.6159929 1.4913012-1 2.4355469-1a1.0001 1.0001 0 0 0 .00195 0c.2713299.0005645.4910278.1900133.7519562.2519531.2877438-.9665306.8790437-1.8004434 1.6621094-2.3847656a2.5 2.5 0 0 0 -2.4160156-1.8671875z" opacity=".3"/>
    <path d="m10.5 4c-1.9329966 0-3.5 1.5670034-3.5 3.5v.00391c-.432251-.3259613-.9586286-.5027836-1.5-.50391-1.3807119 0-2.5 1.1192881-2.5 2.5.001247.1901384.0241818.379514.0683594.564453-.6338086.19044-1.0679152.773746-1.0683594 1.435547 0 .828427.6715729 1.5 1.5 1.5h.6425781c.5654293-.157914.8429262-.506698 1.125-.853516 1.4300341-1.978253 2.6618766-4.1397086 4.9218749-4.146484 1.810547 0 2.810547 1 2.810547 2.5 0 .828427-.671573 1.5-1.5 1.5s-1.5-.671573-1.5-1.5c.000367-.136717.01942-.272742.05664-.404297-.6324963.217084-1.0691237.820141-1.1171879 1.464844.060184 1.511992 1.5429689 1.453125 1.5429689 1.453125l3.517579-.013672c1.104569 0 2-.895431 2-2 0-1.1045695-.895431-2-2-2-.119895.000332-.239517.011444-.357422.033203.234026-.4772934.356259-1.001624.357422-1.533203 0-1.9329966-1.567003-3.5-3.5-3.5z"/>
  </g>
</svg>
