<svg height="16" width="16" xmlns="http://www.w3.org/2000/svg">
  <path d="m14.062178 4.5a7 7 0 0 0 -9.5621779-2.5621778 7 7 0 0 0 -2.5621779 9.5621778 7 7 0 0 0 9.5621778 2.562178 7 7 0 0 0 2.562178-9.562178zm-1.732051 1a5 5 0 0 1 -1.059052 6.278949 1.5 1.5 0 0 1 -.704088 1.667203 1.5 1.5 0 0 1 -2.0065919-.483333 5 5 0 0 1 -3.5305033-.943136 1.5 1.5 0 0 1 -1.9760439-.586671 1.5 1.5 0 0 1 .2255355-1.7968606 5 5 0 0 1 2.2206167-5.9662784 5 5 0 0 1 .0754006-.0412773 1.5 1.5 0 0 1 .7236375-1.5747481 1.5 1.5 0 0 1 2.0490381.5490381 1.5 1.5 0 0 1 .1649552.430242 5 5 0 0 1 3.8170955 2.4668723zm-.866025.5a4 4 0 0 0 -3.0736015-1.9759771 1.5 1.5 0 0 1 -.5914623.6279009 1.5 1.5 0 0 1 -.0543882.0268905l.3647375 2.5340878a1.5 1.5 0 0 1 1.006638.7201106 1.5 1.5 0 0 1 -.1599707 1.7229226l.5878907 1.0182567a1.5 1.5 0 0 1 1.1596625.266407 4 4 0 0 0 .760494-4.940599zm-4.7084404-1.1786951a1.5 1.5 0 0 1 -.6759014-.3269455 4 4 0 0 0 -.0797601.041539 4 4 0 0 0 -1.8143611 4.6582161 1.5 1.5 0 0 1 1.140169.349831l1.0182568-.5878908a1.5 1.5 0 0 1 .7229226-1.5720801 1.5 1.5 0 0 1 .0543882-.0268906zm1.3343677 5.3346301a1.5 1.5 0 0 1 -1.2459644-.3338552l-1.0182569.5878912a1.5 1.5 0 0 1 -.1024619.87331 4 4 0 0 0 2.6039856.697736 1.5 1.5 0 0 1 .3505918-.806823z" fill="#444"/>
</svg>
