<svg height="16" width="16" xmlns="http://www.w3.org/2000/svg">
  <path d="m14.062178 11.5a7 7 0 0 0 -2.562178-9.5621778 7 7 0 0 0 -9.5621777 2.5621778 7 7 0 0 0 2.5621777 9.562178 7 7 0 0 0 9.562178-2.562178zm-1.732051-1a5 5 0 0 1 -5.9672551 2.222308 1.5 1.5 0 0 1 -1.7958841.223844 1.5 1.5 0 0 1 -.5847176-1.979426 5 5 0 0 1 -.9484718-3.5290737 1.5 1.5 0 0 1 -.47995-2.0046397 1.5 1.5 0 0 1 1.6688947-.7031109 5 5 0 0 1 6.2772569-1.0600287 5 5 0 0 1 .07345.04466 1.5 1.5 0 0 1 1.72559-.1606856 1.5 1.5 0 0 1 .549038 2.0490381 1.5 1.5 0 0 1 -.290124.3579769 5 5 0 0 1 -.227827 4.5391376zm-.866025-.5a4 4 0 0 0 .174446-3.6498052 1.5 1.5 0 0 1 -.83951-.198271 1.5 1.5 0 0 1 -.05048-.033656l-2.0122174 1.5829155a1.5 1.5 0 0 1 -.1203151 1.2318294 1.5 1.5 0 0 1 -1.5720801.7229226l-.5878908 1.0182567a1.5 1.5 0 0 1 .3491163 1.1375 4 4 0 0 0 4.6589311-1.811692zm-1.33344-4.6669763a1.5 1.5 0 0 1 -.054808-.7488205 4 4 0 0 0 -.075854-.0483048 4 4 0 0 0 -4.9413139.7578253 1.5 1.5 0 0 1 .2671219 1.1623308l1.0182568.5878908a1.5 1.5 0 0 1 1.7229226-.1599707 1.5 1.5 0 0 1 .05048.03366zm-3.9527418 3.8229114a1.5 1.5 0 0 1 -.3338551-1.2459644l-1.0182572-.5878907a1.5 1.5 0 0 1 -.8075395.3479203 4 4 0 0 0 .6977355 2.6039857 1.5 1.5 0 0 1 .8740254-.09979z" fill="#444"/>
</svg>
