<svg height="16" width="16" xmlns="http://www.w3.org/2000/svg">
  <path d="m1.0000001 8a7 7 0 0 0 6.9999999 7 7 7 0 0 0 7-6.9999999 7 7 0 0 0 -6.9999998-7 7 7 0 0 0 -7.0000001 6.9999999zm2.0000001.0000001a5 5 0 0 1 4.0566402-4.9082029 1.5 1.5 0 0 1 1.4433597-1.0917964 1.5 1.5 0 0 1 1.4960932 1.4218743 5 5 0 0 1 2.5859367 2.5820314 1.5 1.5 0 0 1 1.41797 1.4960947 1.5 1.5 0 0 1 -1.093751 1.4433581 5 5 0 0 1 -4.9062489 4.0566407 5 5 0 0 1 -.085942-.002 1.5 1.5 0 0 1 -1.4140619 1.001952 1.5 1.5 0 0 1 -1.5000003-1.5 1.5 1.5 0 0 1 .072269-.455079 5 5 0 0 1 -2.0722669-4.0448696zm.9999997-.0000002a4 4 0 0 0 1.673827 3.2480481 1.5 1.5 0 0 1 .8261735-.248048 1.5 1.5 0 0 1 .060541.0039l.9511775-2.3769467a1.5 1.5 0 0 1 -.5117188-1.1269531 1.5 1.5 0 0 1 1-1.4121094l.0000001-1.1757815a1.5 1.5 0 0 1 -.871094-.8105461 4 4 0 0 0 -3.1289063 3.8984367zm3.4882813 3.3750011a1.5 1.5 0 0 1 .4218769.621092 4 4 0 0 0 .0898418.003907 4 4 0 0 0 3.9003911-3.126953 1.5 1.5 0 0 1 -.8125-.873047l-1.1757815.0000003a1.5 1.5 0 0 1 -1.4121094.9999999 1.5 1.5 0 0 1 -.060548-.0039098zm1.5117189-5.2871099a1.5 1.5 0 0 1 .9121091.9121092l1.1757818-.0000004a1.5 1.5 0 0 1 .52539-.7050775 4 4 0 0 0 -1.9062497-1.90625 1.5 1.5 0 0 1 -.7070332.5234334l.0000019 1.1757852z" fill="#444"/>
</svg>
