<svg height="16" width="16" xmlns="http://www.w3.org/2000/svg">
  <path d="m8 1a7 6.5 0 0 0 -7 6.5 7 6.5 0 0 0 1.3300781 3.791016 2.5 2.5 0 0 1 1.1699219-.291016 2.5 2.5 0 0 1 2.5 2.5 2.5 2.5 0 0 1 -.0097656.214844 7 6.5 0 0 0 2.0097656.285156 7 6.5 0 0 0 7-6.5 7 6.5 0 0 0 -7-6.5zm-.0195312 2h.0195312.0195312l.46875.0195312.0175782.0019532.0195312.0039062.4570313.0605469.0273437.0058594.0253906.0078125.1308594.0351562-.2246094.7890625-.0957031-.0273437-.4179687-.0566406-.4277344-.0195313-.4296875.0195313-.1152344.0136718-.1132812-.8105468.1308593-.0175782.0214844-.0039062.015625-.0019532zm-1.5078126.2363281.2265626.7851563-.3339844.0957031-.7109375.34375-.2988281.2207031-.5-.65625.3320312-.2441406.0292969-.0234375.0351562-.015625.7792969-.3789063.0351562-.015625.0351563-.0097656zm3.5624998.1601563.712891.3457031.033203.015625.03125.0234375.679688.5.029296.0234375.027344.0292969.017578.0175781-.404297.359375-.169921.2265625-.646485-.4765625-.6796874-.3300781zm-5.8554685 1.2285156.6171875.5507812-.2714844.2949219-.1972656.2929688-.1738281.3222656-.1445313.3496094-.7734375-.3066407.1542969-.3710937.0058594-.0214844.0117187-.015625.1933594-.359375.0097656-.0195312.0117188-.0175781.2285156-.3378907.0195313-.0234375.0175781-.0234375zm7.9804685.3847656.216797.3144532.011719.0175781.009766.0175781.193359.359375.009765.0175781.009766.0195313.154297.3769531.007813.0234375.003906.0195312.115234.390625.00586.0234376.001953.0234374.005859.0371094-.769531.1289063-.048828.0117187-.001953-.0058594h-.001954l-.001953-.015625-.099609-.3535156-.136719-.3300781-.173828-.3222656-.203125-.2988281zm-9.1328122 2.0039063.4472656.0742187.3808594.0195313-.0214844.3964843.0195312.3710938.0625.3613281.0996094.3496094-.8007812.2246094-.1074219-.3691407-.0039063-.0214843-.0039062-.0234375-.0722656-.40625-.0039063-.0214844v-.0214844l-.0234375-.4199218v-.0234376-.0214843l.0234375-.4179688v-.0234375l.0039063-.0234375zm9.1386722.46875.833984.0449219-.023438.4179687-.001953.0234375-.003906.0214844-.070312.40625-.003907.0214844-.003906.0234374-.115234.3925782-.003906.0195312-.009766.0214844-.152344.3691406-.771484-.3046875.142578-.3476562.101562-.3554688.0625-.3613281zm-7.8496098 1.7460937.015625.0214844.1933594.2871094.5117188.5585936.2949218.216797-.5.654297-.3242187-.240235-.03125-.023437-.0273437-.029297-.5605469-.603516-.0175781-.02539-.0195313-.023438-.2285156-.3359371-.0117188-.0175781-.0097656-.0214844-.0078125-.0117188.4980469-.2597656zm7.1757818.2910156.617187.5507808-.560547.603516-.027344.029297-.029296.023437-.669922.494141-.5-.654297.638672-.470703zm-5.5195318 1.1816408.3925782.191406.7851562.220703.2753906.03711-.1132812.8125-.2949219-.039063-.0273437-.005859-.0273438-.007813-.8613281-.240234-.0351563-.007813-.0351562-.019531-.4277344-.203125zm3.6992188.18164.0449219.158204.2929691.583984-.041016.019531-.0351562.017578-.0371094.007813-.8613282.240234-.0253906.007813-.0273437.005859-.4570313.060547-.0195312.001953-.0175782.001953-.2695312.011719-.0371094-.818359.2460938-.009766.4199218-.058594.7910157-.220703.0019531-.001953z" fill="#444"/>
  <circle cx="3.5" cy="13.5" fill="#4285f4" r="1.5"/>
</svg>
