<svg height="16" width="16" xmlns="http://www.w3.org/2000/svg">
  <path d="m4.5 1a3.5 3.5 0 0 0 -3.5 3.5 3.5 3.5 0 0 0 1.0859375 2.5292969 6 6 0 0 0 -.0859375.9707031 6 6 0 0 0 6 6 6 6 0 0 0 .9707031-.082031 3.5 3.5 0 0 0 2.5292969 1.082031 3.5 3.5 0 0 0 3.5-3.5 3.5 3.5 0 0 0 -1.085938-2.5292969 6 6 0 0 0 .085938-.9707031 6 6 0 0 0 -6-6 6 6 0 0 0 -.9707031.0820312 3.5 3.5 0 0 0 -2.5292969-1.0820312zm3.5 1.9863281v1.0507813c.525978.0426141 1.1296326.1401672 1.765625.4101562 1.129354.4794271 2.234375 1.7057409 2.234375 3.5390625a1.0001 1.0001 0 1 1 -2 0c0-1.1666765-.395029-1.4338135-1.015625-1.6972656-.2956002-.1254867-.6446359-.1958285-.984375-.2363281v.9335937l-3-2zm-2.984375 4a1.0001 1.0001 0 0 1 .984375 1.0136719c0 1.1666667.3980887 1.4387454 1.0195312 1.7050781.2947608.126326.6424711.1966097.9804688.2382813v-.9433594l3 2-3 2v-1.037109c-.5227877-.045183-1.142182-.149105-1.7695312-.417969-1.1285574-.483668-2.2304688-1.7115889-2.2304688-3.544922a1.0001 1.0001 0 0 1 1.015625-1.0136719z" fill="#444"/>
</svg>
