<svg height="16" width="16" xmlns="http://www.w3.org/2000/svg">
  <path d="m4.5 1a3.5 3.5 0 0 0 -3.5 3.5 3.5 3.5 0 0 0 1.0859375 2.5292969 6 6 0 0 0 -.0859375.9707031 6 6 0 0 0 6 6 6 6 0 0 0 .9707031-.082031 3.5 3.5 0 0 0 2.5292969 1.082031 3.5 3.5 0 0 0 3.5-3.5 3.5 3.5 0 0 0 -1.085938-2.5292969 6 6 0 0 0 .085938-.9707031 6 6 0 0 0 -6-6 6 6 0 0 0 -.9707031.0820312 3.5 3.5 0 0 0 -2.5292969-1.0820312zm3.5 3a1.0001 1.0001 0 1 1 0 2c-1.1666667 0-1.4387455.3980885-1.7050781 1.0195312-.126326.2947607-.1966097.6424711-.2382813.9804688h.9433594l-2 3-2-3h1.0371094c.045183-.5227876.1491047-1.1421819.4179687-1.7695312.4836674-1.1285574 1.7115886-2.2304688 3.5449219-2.2304688zm3.013672 1 2 3h-1.050781c-.042614.5259779-.140168 1.1296326-.410157 1.765625-.479427 1.129354-1.7057407 2.234375-3.5390621 2.234375a1.0001 1.0001 0 1 1 0-2c1.1666765 0 1.4338135-.3950291 1.6972656-1.015625.1254867-.2956002.1958285-.6446358.2363281-.984375h-.9335937z" fill="#444"/>
</svg>
