<svg height="16" width="16" xmlns="http://www.w3.org/2000/svg">
  <path d="m3 1c-1.108 0-2 .892-2 2v10c0 1.108.892 2 2 2h10c1.108 0 2-.892 2-2v-10c0-1.108-.892-2-2-2zm2.8652 1.3047 1.586 2.748c.181-.0344.3646-.052.5488-.0527.1836.0008.3665.0185.5469.0527l1.5881-2.748 1.73 1-1.586 2.75c.239.279.424.5994.547.9453h3.174v2h-3.176c-.121.3469-.305.6688-.543.9492l1.584 2.7458-1.73 1-1.5862-2.748c-.181.035-.3646.052-.5488.053-.1836-.001-.3665-.018-.5469-.053l-1.5879 2.748-1.7304-1 1.5859-2.7497c-.2386-.2789-.4239-.5995-.5469-.9453h-3.1738v-2h3.1758c.1213-.347.3053-.6688.5429-.9492l-1.5839-2.7461zm2.1348 3.6953a2 2 0 0 0 -2 2 2 2 0 0 0 2 2 2 2 0 0 0 2-2 2 2 0 0 0 -2-2z" fill="#444"/>
</svg>
