<svg height="16" width="16" xmlns="http://www.w3.org/2000/svg">
  <path d="m3 1c-1.108 0-2 .892-2 2v10c0 1.108.892 2 2 2h10c1.108 0 2-.892 2-2v-10c0-1.108-.892-2-2-2zm2.8652 1.3047 1.5858 2.748c.181-.0344.3648-.052.549-.0527.1836.0008.3667.0184.547.0527l1.588-2.748 1.73 1-1.586 2.75c.239.279.424.5994.547.9453h3.174v2h-3.176c-.121.3469-.305.6686-.543.949l1.584 2.746-1.73 1-1.586-2.748c-.181.034-.3648.052-.549.053-.1836-.001-.3667-.019-.547-.053l-1.5878 2.748-1.7304-1 1.5859-2.75c-.2386-.2789-.4239-.5992-.5469-.945h-3.1738v-2h3.1758c.1213-.347.3054-.6687.543-.9492l-1.584-2.7461z" fill="#444"/>
  <path d="m8 6a2 2 0 0 0 -2 2 2 2 0 0 0 2 2 2 2 0 0 0 2-2 2 2 0 0 0 -2-2z" fill="#4285f4"/>
</svg>
