<svg height="16" width="16" xmlns="http://www.w3.org/2000/svg">
  <path d="m8 1a7 7 0 0 0 -7 7 7 7 0 0 0 7 7 7 7 0 0 0 3.131-.748l-.678-.678c-.304-.292-.4894-.743-.4686-1.15.0206-.407.1996-.745.4476-.992.247-.248.585-.427.992-.448.407-.02.858.165 1.15.469l.516.516 1.06-2.1233c.158-.3282.432-.5725.756-.7148a7 7 0 0 0 .094-1.1309 7 7 0 0 0 -7-7zm-2 4v2h4v-2l3 3-3 3v-2h-4v2l-3-3zm9.477 4.9941a.50005.50005 0 0 0 -.424.2829l-1.69 3.379-1.509-1.51a.50063.50063 0 1 0 -.708.708l2 2a.50005.50005 0 0 0 .801-.131l2-4a.50005.50005 0 0 0 -.47-.7289z" fill="#444"/>
</svg>
