<svg height="16" width="16" xmlns="http://www.w3.org/2000/svg">
  <path d="m15 0-3.5 1.7089844v.703125.3730468c.000025.00527.000451.010368 0 .015625v6.5078851 1.1757817c0 2.086981-1.166667 3.229838-3.5 3.229838-2.3333333 0-3.5-1.457039-3.5-3.229838v-.9863286-4.8242913l-3.5 1.7792969v2.4375c0 1.0469808.1357925 2.005601.4082031 2.873047.2702908.867445.6896721 1.61352 1.2578125 2.240234.4812236.531969 1.0749412.96409 1.7773438 1.298828l.1347656.04297c.078412.04401.1561135.08793.2480469.125.8730567.352065 1.9114492.529296 3.1113281.529296l-.00195-.0039c1.2200183 0 2.2728-.170564 3.162109-.515625.889663-.342481 1.619585-.826043 2.197266-1.453125.575207-.624871 1.005679-1.377135 1.285156-2.251953.279477-.874819.417969-1.8378951.417969-2.8867191v-.1816407c.000051-.0027332.00195-.0050812.00195-.0078184z" fill="#444" transform="matrix(.8571428561 0 0 .87499999295 1.14285696643 1.00000053792)"/>
</svg>
