<svg height="16" width="16" xmlns="http://www.w3.org/2000/svg">
  <path d="m7 0-.5 1.0313c.1619-.0133.3348-.0313.5-.0313h.5zm0 2c-2.7614 0-5 2.2386-5 5 0 2.254 1.5126 4.126 3.5625 4.75.4688-.678 1.1798-1.205 1.9685-1.438.62-1.322 1.975-2.338 3.469-2.312.304-.005.587.056.875.125.085-.364.125-.735.125-1.125 0-2.7614-2.239-5-5-5zm-4.9375.0625.3437 1.0625c.2191-.2592.4596-.4997.7188-.7187zm9.8755 0-1.094.375h-.063c.139.111.275.2251.407.3438.131.1186.257.2417.375.375zm-10.938 4.4375-1 .5 1.0312.5c-.0148-.169-.0312-.326-.0312-.5 0-.0275-.002-.0836 0-.1562.006-.1159.0224-.2323.0312-.3438zm11.969 0c.015.1693.031.3264.031.5 0 .027.002.084 0 .156-.006.116-.022.232-.031.344h.031l1-.5zm-1.969 2.5c-1.312 0-2.405.858-2.812 2.031-1.2313.156-2.188 1.196-2.188 2.469 0 1.381 1.119 2.5 2.5 2.5h5.5c1.105 0 2-.896 2-2 0-1.105-.895-2-2-2 0-1.657-1.343-3-3-3zm-8.5625 1.844-.375 1.093 1.0937-.375h.0625c-.1391-.111-.2749-.225-.4062-.343-.1313-.119-.258-.242-.375-.375z" fill="#444"/>
</svg>
