<svg height="16" width="16" xmlns="http://www.w3.org/2000/svg">
  <path d="m7.736.9962c-2.7628.1015-5.3087 1.8046-6.3125 4.5625-.52416 1.4403-.54376 2.9423-.1582 4.3163.4037-1.318 1.4844-2.333 2.8379-2.683.17-.2907.3715-.5601.5898-.8129.0105-.7103.1304-1.4286.3867-2.1329.5142-1.4126 1.4745-2.5083 2.6563-3.25zm.35 4.754c-1.5537 0-2.8764.9509-3.4457 2.2968-1.4459.215-2.5547 1.447-2.5547 2.953 0 1.657 1.3431 3 3 3h6.3754c1.449 0 2.625-1.175 2.625-2.625 0-1.347-1.013-2.451-2.321-2.601-.341-1.72-1.859-3.0238-3.679-3.0238z" fill="#444"/>
</svg>
