<svg height="16" width="16" xmlns="http://www.w3.org/2000/svg">
  <path d="m7.7397 1.0311c-2.7628.1014-5.3087 1.8046-6.3125 4.5625-1.26394 3.4724.3686 7.3244 3.6875 8.8124-.0932-.337-.1469-.707-.125-1.062.0277-1.002.5839-1.888 1.375-2.469-1.5669-1.733-2.1356-4.2466-1.2813-6.5939.5142-1.4126 1.4744-2.5084 2.6563-3.25zm3.2503 7.9689c-1.3123 0-2.4053.858-2.8133 2.031-1.2304.156-2.187 1.196-2.187 2.469 0 1.381 1.119 2.5 2.5 2.5h5.5003c1.105 0 2-.896 2-2 0-1.105-.895-2-2-2 0-1.657-1.343-3-3-3z" fill="#444"/>
</svg>
