<svg height="16" width="16" xmlns="http://www.w3.org/2000/svg">
  <path d="m8 1c-2.0711 0-3.8347 1.2679-4.5938 3.0625-1.9278.2866-3.4062 1.9299-3.4062 3.9375 0 2.209 1.7909 4 4 4h1v-1c.0001-.265.1054-.52.293-.707l1.707-1.707v-.586h-2c-.5523 0-.9999-.448-1-1v-2c.0001-.5523.4477-.9999 1-1h5c.552.0001 1 .4477 1 1v2 2c0 .266-.105.521-.293.709l-1.707 1.707v.584h1 2.5c1.933 0 3.5-1.567 3.5-3.5 0-1.7965-1.351-3.2687-3.094-3.4688-.454-2.2933-2.479-4.0312-4.906-4.0312z" fill="#444" opacity=".3"/>
  <path d="m5 5v2h3v2l-2 2v2h2v-2l2-2v-2-2zm1 9v2h2v-2z" fill="#4285f4"/>
</svg>
