<svg height="16" width="16" xmlns="http://www.w3.org/2000/svg">
  <path d="m8 1c-2.0711 0-3.8347 1.2679-4.5938 3.0625-1.9278.2866-3.4062 1.9299-3.4062 3.9375 0 2.209 1.7909 4 4 4h.4062c.4539-.801 1.241-1.427 2.125-1.687.6198-1.323 1.9748-2.339 3.4688-2.313 1.908-.031 3.582 1.485 3.875 3.344.143.045.269.091.406.156 1.031-.609 1.719-1.716 1.719-3 0-1.7965-1.351-3.2687-3.094-3.4688-.454-2.2933-2.479-4.0312-4.906-4.0312zm2 8c-1.312 0-2.405.858-2.812 2.031-1.2313.156-2.188 1.196-2.188 2.469 0 1.381 1.1193 2.5 2.5 2.5h5.5c1.105 0 2-.895 2-2s-.895-2-2-2c0-1.657-1.343-3-3-3z" fill="#444"/>
</svg>
