<svg height="16" width="16" xmlns="http://www.w3.org/2000/svg">
  <path d="m8.0208 0a.99921 1.0001 0 1 0 0 2s.2854.013.5425.1426c.2571.1295.4429.1884.4429.8574s-.1858.7279-.4429.8574c-.2571.1296-.5425.1426-.5425.1426h-7.0075a.99921 1.0001 0 1 0 0 2h7.0075s.707.013 1.4421-.3574c.7351-.3705 1.5411-1.3116 1.5411-2.6426s-.806-2.27215-1.5411-2.64258c-.7351-.37043-1.4421-.35742-1.4421-.35742zm4.9952 3a.99921 1.0001 0 1 0 0 2s.286.013.543.1426c.257.1295.443.1884.443.8574s-.186.7279-.443.8574c-.257.1296-.543.1426-.543.1426h-7.9926a.99921 1.0001 0 1 0 0 2h7.9926s.707.013 1.442-.3574c.735-.3705 1.542-1.3116 1.542-2.6426s-.807-2.2721-1.542-2.6426c-.735-.3704-1.442-.3574-1.442-.3574zm-12.0027 7a.99921 1.0001 0 1 0 0 2h7.0075s.2854.013.5425.143c.2571.129.4429.188.4429.857s-.1858.728-.4429.857c-.2571.13-.5425.143-.5425.143a.99921 1.0001 0 1 0 0 2s.707.013 1.4421-.357c.7351-.371 1.5411-1.312 1.5411-2.643s-.806-2.272-1.5411-2.643c-.7351-.37-1.4421-.357-1.4421-.357z" fill="#444"/>
</svg>
