<svg height="16" width="16" xmlns="http://www.w3.org/2000/svg">
  <path d="m8.0371 1a1.5219 1.5917 0 0 0 -.7988.2148l-4.4766 2.7032a1.5219 1.5917 0 0 0 -.7617 1.3789v5.4061a1.5219 1.5917 0 0 0 .7617 1.379l4.4766 2.703a1.5219 1.5917 0 0 0 1.5234 0l4.4763-2.703a1.5219 1.5917 0 0 0 .762-1.379v-5.4061a1.5219 1.5917 0 0 0 -.762-1.3789l-4.4763-2.7032a1.5219 1.5917 0 0 0 -.7246-.2128zm-1.7637 3c.6585 0 1.3113.4186 1.7266 1 .4153-.5814 1.0681-1 1.7266-1 1.2554 0 2.2734 1.3236 2.2734 2.9551 0 .4392-.06.8604-.164 1.2636 0 0-.096.3618-.18.5625-.958 2.5588-3.656 4.2188-3.656 4.2188s-2.698-1.66-3.6563-4.2188c-.0838-.2007-.1796-.5625-.1796-.5625-.1044-.4032-.1641-.8244-.1641-1.2636 0-1.6315 1.0178-2.9551 2.2734-2.9551z" fill="#444"/>
</svg>
