<svg height="16" width="16" xmlns="http://www.w3.org/2000/svg">
  <path d="m8 1c-.168875 0-.334625.0079802-.5.0195312-.021.0015701-.0415.0021563-.0625.0039063-2.500225.197309-4.6195031 1.69995-5.6894531 3.828125-.0692125.1378125-.1390188.2771219-.1992188.4199219-.3276875.7399875-.5066875 1.5239906-.5390625 2.3457031-.0014.027125-.0027662.0538281-.0039062.0800781-.00219.07875-.0044263.1567032-.0039063.2363282-.000255.0218749-.0019531.0445312-.0019531.0664062 0 .81375.1452125 1.5910316.3984375 2.316406.10185.3255.2196656.653828.3613281.986328.3528.8295.3954063 1.053969.3398438 1.746094-.038675.483-.1685813.976531-.3320313 1.253906-.148225.251125-.2675781.5125-.2675781.578125 0 .20475 1.1801219.132985 2.2246094-.134765 1.2236-.31325 1.3307093-.313144 2.3339844.001953.4589375.144325.9814656.221187 1.5722656.242187.0245.0018.0497187.001054.0742187.001954.0804997.002506.1610156.007812.2441407.007812h.0175781.0332031c.195125 0 .3884531-.010511.5800781-.025391 1.7307499-.123375 3.1207189-.763093 4.3710939-2.011718 1.03075-1.029 1.669875-2.298907 1.921875-3.6289066.02363-.12075.041974-.2438125.058594-.3671875.0105-.076125.021416-.1523907.029297-.2285157.016619-.1636249.02599-.3289687.03125-.4960937.001699-.042.003906-.083.003906-.125.000877-.039371.003906-.0778125.003906-.1171875 0-3.81325-3.018766-6.8923781-6.8066406-6.9941406-.02975-.0013125-.0600938-.0015156-.0898438-.0019532-.035-.000525-.0685156-.0039062-.1035156-.0039062zm-4 6a1 1 0 0 1 1 1 1 1 0 0 1 -1 1 1 1 0 0 1 -1-1 1 1 0 0 1 1-1zm4 0a1 1 0 0 1 1 1 1 1 0 0 1 -1 1 1 1 0 0 1 -1-1 1 1 0 0 1 1-1zm4 0a1 1 0 0 1 1 1 1 1 0 0 1 -1 1 1 1 0 0 1 -1-1 1 1 0 0 1 1-1z" fill="#444"/>
</svg>
