<svg height="16" width="16" xmlns="http://www.w3.org/2000/svg">
  <path d="m7 1c-3.866 0-7 3.134-7 7s3.134 7 7 7 7-3.134 7-7-3.134-7-7-7zm-5 3.9997h1v4.4124s-.0016.358.2812.7519c.2829.394.8348.836 2.2188.836.1058 0 .1363-.036.2324-.041-.0713-.077-.2069-.132-.2637-.211-.4672-.65-.4687-1.3359-.4687-1.3359v-3.3402l.0039-.0293s.0239-.1446.084-.2636.1631-.2586.3203-.3809c.3143-.2445.8146-.4097 1.5996-.3984.78.0112 1.2662.1747 1.5762.4082.155.1167.2593.251.3223.3672.062.1162.0898.2617.0898.2617l.0039.0332v3.3421s-.0017.6859-.4688 1.3359c-.057.079-.1926.134-.2636.211.096.005.1264.041.2324.041 1.384 0 1.936-.442 2.219-.836.283-.3939.281-.7519.281-.7519v-4.4124h1v4.4124s-.002.6859-.469 1.3359-1.415 1.252-3.031 1.252c-.622 0-1.065-.148-1.5-.295-.435.147-.8781.295-1.5.295-1.6161 0-2.5642-.602-3.0313-1.252-.4672-.65-.4687-1.3359-.4687-1.3359zm4.9922 1c-.639-.0092-.8888.1255-.9688.1875-.021.0169-.0184.0164-.0234.0234v3.2015s-.0014.358.2812.7519c.1441.2.3638.41.7188.57.355-.16.5747-.37.7187-.57.283-.3939.2813-.7519.2813-.7519v-3.1898c-.007-.0066.0004-.0018-.0156-.0136-.083-.0626-.3482-.1998-.9922-.209z" fill="#444"/>
</svg>
