<svg height="16" width="16" xmlns="http://www.w3.org/2000/svg">
  <path d="m3.4062.9874c-.2556 0-.5229.0854-.7187.2812l-1.4063 1.4063c-.3917.3917-.3917 1.0457 0 1.4375l.875.875h5.6878l-3.719-3.7188c-.1959-.1959-.4631-.2813-.7188-.2813zm9.1878 0c-.262 0-.523.0854-.719.2812l-3.719 3.7188h5.688l.875-.875c.391-.3917.391-1.0458 0-1.4375l-1.407-1.4062c-.195-.1958-.457-.2812-.718-.2812zm-8.1158 4.5079c-.2647.0114-.4745.2272-.4785.4921v1.4996 2c-.0096.676 1.0096.676 1 0v-1.5h1v1.5c-.0096.676 1.0096.676 1 0v-2c-.0005-.2758-.2242-.4992-.5-.4992h-1.5v-1c-.0042-.2816-.2401-.5042-.5215-.4921zm8.9998 0c-.264.0116-.474.2274-.478.4921v1h-.5c-.646.0204-.646.9792 0 .9996h.5v1.5c0 .2761.224.5.5.5h1.5c.676.0096.676-1.0096 0-1h-1v-1h1c.688.0218.688-1.0214 0-.9996h-1v-1c-.004-.2813-.24-.5035-.521-.4917zm-12.978 1.4921c-.27597 0-.49975165.2236-.5.4996v2c.00002761.2761.22387.5.5.5h2c.6762.0096.6762-1.0096 0-1h-1.5v-1h1.5c.6762.0096.6762-1.0096 0-1h-2zm8 0c-.276 0-.4998.2236-.5.4996v2c0 .2761.2239.5.5.5h.75c.6762.0096.6762-1.0096 0-1h-.25v-1h1v1.5c-.0096.676 1.01.676 1 0v-2c0-.276-.224-.4996-.5-.4996zm-6.3436 3.9996-.875.875c-.3917.392-.3917 1.046 0 1.438l1.4062 1.406c.3917.392 1.0458.392 1.4375 0l3.7189-3.719zm5.9996 0 3.719 3.719c.392.392 1.046.392 1.438 0l1.406-1.406c.392-.392.392-1.046 0-1.438l-.875-.875z" fill="#444" fill-rule="evenodd"/>
</svg>
