<svg height="16" width="16" xmlns="http://www.w3.org/2000/svg">
  <path d="m6.3041094 1.0003416c-.230746.00494-.4126395.074614-.4765625.074219-1.4770871.2052344-.5341324 1.753865.0917969 3.6738279.0534399.4914693-1.4623612.2861926-1.7988281-.2285157-1.134785-2.74638-1.4375073-2.4396683-1.7539063-2.5195312-.303068-.061806-1.3554172.4671249-1.3320313 1.578125.004.3191549.2059804 2.1230077.2089844 2.5898438-1.33037301 2.2596372-1.87256511 3.4964486-.2050781 5.8087436 1.1948705 1.565703 4.0672336 2.055165 5.9511719 2.021485 4.0093167.0016 4.9590727-2.177086 7.2561667-3.955078 1.754507-1.4348714-.04494-2.2421934-.46875-2.4942914-3.635092-2.3510797-5.6915221-1.8615132-5.7405421-2.2343749-.02571-.4309689-.009655-1.6290586-.072265-2.0546875-.246724-1.980671-1.1525205-2.27162241-1.6601565-2.2597656zm6.5960106 0c-.744634.115666-1.110105 4.3331544-.777344 4.9707031 1.142277-.7179733.923403-3.9026457.777344-4.9707031zm2.9375.9785156c-2.357948 3.0996933-1.799057 2.5203743-2.388672 5.0078125.224955.3077999 3.275786-4.640378 2.388672-5.0078125zm-7.8381981 5.0214844c.5522847 0 1 .4477153 1 1s-.4477153 1-1 1c-.5522848 0-1-.4477153-1-1s.4477152-1 1-1z" fill="#444"/>
</svg>
