<svg height="16" width="16" xmlns="http://www.w3.org/2000/svg">
  <path d="m3 1c-.554 0-1 .446-1 1v12c0 .554.446 1 1 1h5.0214844c.024718-.225479.0793692-.446893.1855468-.652344l1.3945313-2.705078.7167965-1.388672a4 4 0 0 1 -2.318359.746094h-4v-4a4 4 0 0 1 4-4 4 4 0 0 1 4 4 4 4 0 0 1 -.171875 1.1601562c.179735-.0819988.369618-.1460833.576172-.1582031h.001953.001953c.06029-.00334.119398-.00334.179688 0 .617309.0329797 1.143833.4153975 1.412109.9296875v-6.9316406c0-.554-.446-1-1-1zm5 4a2 2 0 0 0 -2 2 2 2 0 0 0 2 2 2 2 0 0 0 2-2 2 2 0 0 0 -2-2z" fill="#444"/>
  <path d="m12.462891 9a.710646.79561028 0 0 0 -.578125.3964844l-1.394532 2.7050776-1.3945309 2.705079a.710646.79561028 0 0 0 -.0957031.378906.710646.79561028 0 0 0 .7109375.814453h2.7890625 2.789062a.710646.79561028 0 0 0 .615235-1.193359l-1.394531-2.705079-1.394532-2.7050776a.710646.79561028 0 0 0 -.582031-.3964844.710646.79561028 0 0 0 -.070312 0zm-.462891 1h1v3h-1zm0 4h1v1h-1z" fill="#4285f4"/>
</svg>
