<svg height="16" width="16" xmlns="http://www.w3.org/2000/svg">
  <g fill="#444">
    <path d="m7.092 2.0466c-3.5556 0-2.7284 3.2481-4.5488 4.2265-.0628.0356-.0981.0684-.1543.1035 1.2005-.7145 2.6803-1.312 4.2519-1.7167 1.3312-.3424 2.6812-.5345 3.9262-.5586.032-.0002.064-.0002.095 0-1.2-.3412-1.332-2.0547-3.57-2.0547z"/>
    <path d="m10.967 5.0016c-1.245.0242-2.595.2163-3.926.5586-4.3863 1.1288-7.5124 3.5838-6.9822 5.4828.3055 1.085 1.7776 1.801 3.9707 1.931-.001-.008-.003-.015-.0039-.023-.1184-1.027.5331-1.92 1.2969-2.526.7638-.605 1.7465-1.045 2.8495-1.279s2.136-.223 3 .037c.812.245 1.576.778 1.764 1.694 2.198-1.233 3.338-2.719 3.008-3.9203-.35-1.2582-2.259-2.008-4.977-1.9551z"/>
    <path d="m9.662 10a1.8586 3.577 76.001 0 0 -1.377.142 1.8586 3.577 76.001 0 0 -3.2789 2.6 1.8586 3.577 76.001 0 0 3.7089 1.115 1.8586 3.577 76.001 0 0 3.277-2.599 1.8586 3.577 76.001 0 0 -2.33-1.258z" opacity=".3"/>
  </g>
</svg>
