<svg height="16" width="16" xmlns="http://www.w3.org/2000/svg">
  <g fill="#444">
    <path d="m8.1074219 2c-1.8698.0004-4.6282781.1237438-5.4550781.1523438-.8988002.0859999-1.2304032.1340312-1.72070318.5820312-.75482.7106-.93164062 2.1081937-.93164062 4.2460938v2.0332031c.00000005 2.4374001.30353375 3.6769061.80859375 4.1289061.57708005.529.95782375.569813 1.33984375.632813.1489.023 1.207325.224609 5.890625.224609.5647654 0 .9656111-.020086 1.4863281-.029297a4 4 0 0 1 -.5253906-1.970703 4 4 0 0 1 4-4 4 4 0 0 1 2.992188 1.3535156c.001058-.114091.007812-.2095958.007812-.328125v-2.3671875c0-1.2653-.064734-3.0508812-.802734-3.8007812-.56-.5053-.763922-.6463844-1.919922-.7089844-.326-.0154-3.177222-.1487775-5.1699221-.1484375zm-1.1074219 3 4 3-4 3z"/>
    <path d="m13.776457 9.1022225c-1.600298-.4287987-3.247183.5275428-3.674234 2.1213205-.4270519 1.593777.521021 3.245436 2.12132 3.674234 1.600297.428799 3.247183-.527542 3.674234-2.12132.427052-1.593777-.521022-3.245436-2.12132-3.6742345zm-.258819.9659255a2 2 0 0 1 1.414214 2.44949l-.965926-.258819a1 1 0 0 0 -.707107-1.224745zm-2.44949 1.414214.965926.258819a1 1 0 0 0 .707107 1.224745l-.258819.965926a2 2 0 0 1 -1.414214-2.44949z"/>
  </g>
</svg>
