<svg height="16" width="16" xmlns="http://www.w3.org/2000/svg">
  <path d="m8.1074219 2c-1.8698.0004-4.6282781.1237438-5.4550781.1523438-.8988001.0859999-1.2304032.1340312-1.72070318.5820312-.75482.7106-.93164062 2.1081938-.93164062 4.2460938v2.0332031c.00000005 2.4374001.30353375 3.6769061.80859375 4.1289061.57708005.529.95782375.569813 1.33984375.632813.1489.023 1.207325.224609 5.890625.224609 2.9195995 0 5.4285005-.148641 5.6874995-.181641.419001-.057 1.011704-.138781 1.470704-.675781.671-.812.802734-2.161488.802734-4.1171874v-2.3671875c0-1.2653-.064734-3.0508812-.802734-3.8007812-.56-.5053-.763922-.6463844-1.919922-.7089844-.326-.0154-3.177222-.1487775-5.1699221-.1484375zm-1.1074219 3 4 3-4 3z" fill="#444" opacity=".3"/>
</svg>
