<svg height="16" width="16" xmlns="http://www.w3.org/2000/svg">
  <path d="m8.1074219 2c-1.8698.0004-4.6282781.1237438-5.4550781.1523438-.8988003.0859999-1.2304032.1340312-1.72070318.5820312-.75482.7106-.93164062 2.1081937-.93164062 4.2460938v2.0332031c.00000005 2.4374001.30353375 3.6769061.80859375 4.1289061.57708005.529.95782375.569813 1.33984375.632813.1489.023 1.207325.224609 5.890625.224609 1.1080174 0 2.0268335-.030223 2.9160155-.058594l-.255859-.341797-1.5000002-2c-.4939122-.659495-.0231621-1.5998465.8007812-1.599609h1v-2l-4 3v-6l4 3v-.1191406c0-.4067359.087065-.7877584.300781-1.140625.213716-.3528667.641984-.7402344 1.232422-.7402344h.933594c.590438 0 1.018706.3873677 1.232422.7402344.213716.3528666.300781.7338891.300781 1.140625v2.1191406h.976562c.010916-.3131723.023438-.6225475.023438-.9746094v-2.3671875c0-1.2653-.064734-3.0508812-.802734-3.8007812-.56-.5053-.763922-.6463844-1.919922-.7089844-.326-.0154-3.177222-.1487775-5.1699221-.1484375zm4.4257811 5c-.295 0-.533203.3918594-.533203.8808594v3.1191406h-2l1.5 2 1.5 2 1.5-2 1.5-2h-2v-3.1191406c0-.489-.238203-.8808594-.533203-.8808594z" fill="#444"/>
</svg>
