<svg fill="none" height="16" viewBox="0 0 16 16" width="16" xmlns="http://www.w3.org/2000/svg">
  <path clip-rule="evenodd" d="m1.59998 6.19142c0 4.11588 3.39844 9.80858 6.40001 9.80858 2.82571 0 6.40001-5.6927 6.40001-9.80858 0-4.11592-2.8654-6.19142-6.40004-6.19142s-6.39998 2.0755-6.39998 6.19142zm8.15283 2.7614c.80819-.80823 1.93589-1.10218 2.97659-.88221.2199 1.04073-.074 2.16839-.8822 2.97659s-1.93587 1.1022-2.9766.8822c-.21997-1.0408.07398-2.16838.88221-2.97658zm-3.50562.04234c-.80822-.797-1.93585-1.08684-2.97658-.86995-.21994 1.02627.07398 2.13819.88221 2.93519s1.93586 1.0869 2.97658.87c.21997-1.0263-.07398-2.13824-.88221-2.93524z" fill="#E6DDFF" fill-rule="evenodd"/>
</svg>
