<svg height="16" width="16" xmlns="http://www.w3.org/2000/svg">
  <path d="m8.18755.04210924c.04568.66998.0383 1.30249996-.03125 2.59379996a.50005.50005 0 0 1 -.5625.46875c-.9-.1198-.3734-.0914-1.0312.0312a.50005.50005 0 0 1 -.46875-.1875c-.50609-.56969-1.0636-1.3607-1.5312-1.99999996-.14894-.20359-.25377-.34381-.375-.5-.0048.02679-.02695.03465-.03125.0625-.06496.4208-.08311.96210996 0 1.34379996-.01159-.05321.13499.28301.28125.59375s.30196.68198.4375.96875a.50005.50005 0 0 1 -.09375.5625c-.56143.54249-.84206.75169-.96875.875s-.19316.21663-.46875.78125c-.31629.64802-.52771 1.9667996-.8125 3.3124996-.28479 1.3456992-.65419 2.7436992-1.5 3.7186992a.50005.50005 0 0 1 -.0314.031c1.3956 1.6945 4.6187 3.8907 8.3438 3.1562a.50005.50005 0 0 1 -.0313-.031c-.7215-.727-1.0546-1.596-1.1875-2.531-.13295-.93528-.09073-1.9353-.0625-3a.50005.50005 0 0 1 .03125-.125c-.4774-.031-.9847-.14-1.4063-.5313992-.5103-.4742-.6462-1.0716-.6563-1.5625-.01-.491.0312-.9105996-.0624-1.3124996a.50005.50005 0 1 1 .96875-.21875c.1423.61078.08595 1.1192996.09375 1.4999996.0078.38073.04663.59892.34375.875.21612.20082.48564.26566.875.28125s.8466-.04591 1.3438-.03125c.46734.01378.84473.21372 1.0938.4375.24902.22378.40544.4617392.5625.5937492.43535.3659.7254.63372 1.5938 1.0625.40319.19909.81698.31258 1.1562.3125.33927-.000081.61019-.11013.84375-.34375.42228-.42239.67501-1.3108992.25-2.1561992.01246.02478-.08149-.07748-.25-.1875s-.39551-.23478-.65625-.375c-.52147-.28043-1.151-.59258-1.5938-1.0937996-.48766-.55207-.68416-1.217-.875-1.7812-.19084-.56429-.38317-1.0149-.65625-1.25-.21216-.1745-.26772-.18387-.5-.21875-.24458-.03673-.6554597-.09355-1.2812-.34375a.50005.50005 0 0 1 .1559-.9687c-.1757-.7953-.2319-1.434-.25-2.03119996-.0163-.00383-.0721-.10557-.1875-.21878-.1539-.15095-.3961-.3245-.625-.46875-.0715-.045062-.1184-.054982-.1875-.093752z" fill="#e6ddff" fill-rule="evenodd"/>
</svg>
