<svg enable-background="new" height="16" width="16" xmlns="http://www.w3.org/2000/svg">
  <g fill="#e6ddff" transform="translate(-152 -668)">
    <path d="m157.97266 674c-.53864 0-.97266.43402-.97266.97266v7.05468c0 .53864.43402.97266.97266.97266h4.05468c.53864 0 .97266-.43402.97266-.97266v-7.05468c0-.53864-.43402-.97266-.97266-.97266h-1.00586v1.01562c0 .53864-.43401.97266-.97265.97266h-.0664c-.53864 0-.97265-.43402-.97265-.97266v-1.01562zm.28125 6h3.49218c.27885 0 .50391.22506.50391.50391v.99218c0 .27885-.22506.50391-.50391.50391h-3.49218c-.27885 0-.50391-.22506-.50391-.50391v-.99218c0-.27885.22506-.50391.50391-.50391z"/>
    <path d="m155.96094 669.00391c-.53864 0-.97266.43401-.97266.97265v9.0586c0 .53864.43402.97265.97266.97265h.03906v-6.03515c0-.53864.43402-.97266.97266-.97266h2.02734v-1.04297c0-.53864.43402-.97266.97266-.97266h.0547c.53864 0 .97266.43402.97266.97266v1.04297h2.02734c.53862 0 .97264.43402.97264.97266v6.03515h.0703c.53864 0 .97266-.43401.97266-.97265v-9.0586c0-.53864-.43402-.97265-.97266-.97265z"/>
  </g>
</svg>
