<svg height="16" width="16" xmlns="http://www.w3.org/2000/svg">
  <path d="m.0078125.01367188v14.00000012l1.9921875-.013672v-12h12v3l2.007811.013672v-5.00000012zm4.5 3.00000002c-.8284271 0-1.5.6715729-1.5 1.5s.6715729 1.5 1.5 1.5 1.5-.6715729 1.5-1.5-.6715729-1.5-1.5-1.5zm2.5 1-.0078125 1.4215569 5-.019162.0078-1.4023952zm-2.5 3c-.8284271 0-1.5.6715729-1.5 1.5-.0000001.8284272.6715728 1.5000001 1.5 1.5000001s1.5000001-.6715729 1.5-1.5000001c0-.8284271-.6715729-1.5-1.5-1.5zm11.4999995.6914062-13.9999995 8.3085939h13.9999995zm-9.007812-.2662565.0078125 1.5748503h4.9999995l-.007812-1.5173653zm7 3.5611784v3h-5z" fill="#e6ddff"/>
</svg>
