<svg height="16" width="16" xmlns="http://www.w3.org/2000/svg">
  <path d="m8.0273438.50195312c-.6860001 0-1.3713744.23237876-1.9277344.69921878-1.11273.93369-1.3962019 2.5408781-.6699219 3.7988281l.8652344-.5c-.48695-.84343-.2987944-1.90523.4472656-2.53125.74605-.62602 1.8242525-.62602 2.5703125 0s.934216 1.68782.4472656 2.53125l.8652344.5c.72628-1.25795.442798-2.8651381-.6699219-3.7988281-.55636-.46684003-1.2417344-.69921878-1.9277343-.69921878zm-.0273438 4.49804688c-2.76142 0-5 2.23858-5 5s2.23858 5 5 5 5-2.23858 5-5-2.23858-5-5-5zm0 1.5429688 1.2304688 2.5253906a2.3165417 2.3770187 0 0 1 1.0859372 2.0117186 2.3165417 2.3770187 0 0 1 -2.316406 2.376953 2.3165417 2.3770187 0 0 1 -2.3164062-2.376953 2.3165417 2.3770187 0 0 1 1.0839843-2.0097655z" fill="#E6DDFF"/>
</svg>
