<svg height="16.033" width="16" xmlns="http://www.w3.org/2000/svg">
  <g fill="#e6ddff" transform="translate(-263.0002 -648.99035)">
    <path d="m269.875 649a1.0001 1.0001 0 0 0 -.875 1v3.5625l-1.28125-1.28125a1.016466 1.016466 0 1 0 -1.4375 1.4375l2.71875 2.71875v1.125l-2.71875 2.71875a1.016466 1.016466 0 1 0 1.4375 1.4375l1.28125-1.28125v3.5625a1.0001 1.0001 0 0 0 1.71875.71875l4-4a1.0001 1.0001 0 0 0 0-1.4375l-2.28125-2.28125 2.28125-2.28125a1.0001 1.0001 0 0 0 0-1.4375l-4-4a1.0001 1.0001 0 0 0 -.84375-.28125zm1.125 3.4375 1.5625 1.5625-1.5625 1.5625zm0 6 1.5625 1.5625-1.5625 1.5625z"/>
    <path d="m266 652h1v1h-1z"/>
    <path d="m266 661h1v1h-1z"/>
    <path d="m269 664h1v1h-1z"/>
    <path d="m269 649h1v1h-1z"/>
  </g>
</svg>
