<svg height="16" width="16" xmlns="http://www.w3.org/2000/svg">
  <path d="m580 240.5c-4.14214 0-7.5 3.35786-7.5 7.5s3.35786 7.5 7.5 7.5 7.5-3.35786 7.5-7.5-3.35786-7.5-7.5-7.5zm-.66467 2.8125h1.32934v2.49573c0 .74362-.0274 1.42163-.0806 2.03247-.0531.60198-.11992 1.20343-.19959 1.80542h-.76904c-.0797-.60199-.14647-1.20344-.19959-1.80542-.0531-.61084-.0806-1.28885-.0806-2.03247zm.66467 7.59521c.27444 0 .49068.0885.65002.26551.15935.17705.23987.38537.23987.62439s-.0805.44733-.23987.62439c-.15934.17705-.37558.2655-.65002.2655-.27443 0-.49067-.0884-.65002-.2655-.15935-.17706-.23987-.38537-.23987-.62439s.0805-.44734.23987-.62439c.15935-.17705.37559-.26551.65002-.26551z" fill="#e6ddff" transform="translate(-572 -240)"/>
</svg>
