<svg enable-background="new" height="16" width="16" xmlns="http://www.w3.org/2000/svg">
  <g fill="#e6ddff" transform="translate(-112 -668)">
    <path d="m115.71484 669c-1.48641 0-2.71484 1.22842-2.71484 2.71484v8.57032c0 1.48641 1.22843 2.71484 2.71484 2.71484h8.57032c1.48641 0 2.71484-1.22843 2.71484-2.71484v-8.57032c0-1.48642-1.22843-2.71484-2.71484-2.71484zm0 2h8.57032c.41301 0 .71484.30182.71484.71484v3.6211l-.66406.66406.66406.66406v3.6211c0 .413-.30183.71484-.71484.71484h-8.57032c-.41301 0-.71484-.30184-.71484-.71484v-3.57813l.70703-.70703-.70703-.70703v-3.57813c0-.41302.30183-.71484.71484-.71484z"/>
    <path d="m116.51791 673-.51791 1.03584h1.01396v4.96416h1.98604v-6zm3.43732 0v3.21297c0 1.03581.77686 1.03581 1.29477 1.03581h.75583v1.75122h1.99417v-2.89768-3.10232h-1.99417v3h-.72458c-.25896 0-.25896-.25892-.25896-.25892v-2.74108z"/>
  </g>
</svg>
