<svg height="16" width="16" xmlns="http://www.w3.org/2000/svg">
  <g fill="#e6ddff">
    <path d="m5.5683595 3.9994504v1.6015625h1.6015626 1.5 1.4003909v-1.6015625h-1.4003909-1.5zm0 3.2011719v1.5996093h1.6015626 1.5 1.4003909v-1.5996093h-1.4003909-1.5zm0 3.1992187v1.599609h1.5.1015626 1.5 1.4003909v-1.599609h-1.4003909-1.5-.1015626z"/>
    <path d="m3.1132812.5a1.0000999 1.0000999 0 0 0 -.8125 1v13a1.0000999 1.0000999 0 0 0 1 1h4.5.0371094 4.5000004a1.0000999 1.0000999 0 0 0 1-1v-13a1.0000999 1.0000999 0 0 0 -.8125-1 1.0000999 1.0000999 0 0 0 -.09375 0 1.0000999 1.0000999 0 0 0 -.09375 0h-4.5000004-.0371094-4.5a1.0000999 1.0000999 0 0 0 -.09375 0 1.0000999 1.0000999 0 0 0 -.09375 0zm1.1875 2h3.5.0371094 3.5000004v11h-3.5000004-.0371094-3.5z"/>
  </g>
</svg>
