<svg height="16" width="16" xmlns="http://www.w3.org/2000/svg">
  <path d="m203.0002 195v16h.96875c-.44927-.52508-.39088-.99184.0312-1.53125l2.54465-2.5209c-.3395-.58519-.54465-1.25698-.54465-1.9791 0-2.21358 1.80078-4.03125 4-4.03125 2.19923 0 4 1.81767 4 4.03125s-1.80077 4.03125-4 4.03125c-.8092 0-1.55582-.23556-2.1875-.65625l-2.7812 2.65625h12c-.12596-.12596-.21875-.30779-.21875-.5 0-.38442.30308-.6875.6875-.6875s.71875.30308.71875.6875c0 .19221-.0928.37404-.21875.5h1v-16h-1c-.12596.12596-.30779.21875-.5.21875s-.34279-.0928-.46875-.21875h-12.0625c-.12596.12595-.27654.21875-.46875.21875s-.37404-.0928-.5-.21875zm1.5.8125c.38442 0 .6875.30308.6875.6875s-.30308.71875-.6875.71875-.71875-.33433-.71875-.71875.33433-.6875.71875-.6875zm13 0c.38442 0 .71875.30308.71875.6875s-.33433.71875-.71875.71875-.6875-.33433-.6875-.71875.30308-.6875.6875-.6875zm-13 2c.38442 0 .6875.30308.6875.6875s-.30308.71875-.6875.71875-.71875-.33433-.71875-.71875.33433-.6875.71875-.6875zm13 0c.38442 0 .71875.30308.71875.6875s-.33433.71875-.71875.71875-.6875-.33433-.6875-.71875.30308-.6875.6875-.6875zm-13 2c.38442 0 .6875.30308.6875.6875s-.30308.71875-.6875.71875-.71875-.33433-.71875-.71875.33433-.6875.71875-.6875zm13 0c.38442 0 .71875.30308.71875.6875s-.33433.71875-.71875.71875-.6875-.33433-.6875-.71875.30308-.6875.6875-.6875zm-13 2c.38442 0 .6875.30308.6875.6875s-.30308.71875-.6875.71875-.71875-.33433-.71875-.71875.33433-.6875.71875-.6875zm13 0c.38442 0 .71875.30308.71875.6875s-.33433.71875-.71875.71875-.6875-.33433-.6875-.71875.30308-.6875.6875-.6875zm-7.45979 1.20312c-1.1122 0-1.99105.89617-1.99105 2.01563s.87885 2.01562 1.99105 2.01562 1.99104-.89616 1.99104-2.01562-.87884-2.01563-1.99104-2.01563zm-5.54021.79688c.38442 0 .6875.30308.6875.6875s-.30308.71875-.6875.71875-.71875-.33433-.71875-.71875.33433-.6875.71875-.6875zm13 0c.38442 0 .71875.30308.71875.6875s-.33433.71875-.71875.71875-.6875-.33433-.6875-.71875.30308-.6875.6875-.6875zm-13 2c.38442 0 .6875.30308.6875.6875s-.30308.71875-.6875.71875-.71875-.33433-.71875-.71875.33433-.6875.71875-.6875zm13 0c.38442 0 .71875.30308.71875.6875s-.33433.71875-.71875.71875-.6875-.33433-.6875-.71875.30308-.6875.6875-.6875zm0 2c.38442 0 .71875.30308.71875.6875s-.33433.71875-.71875.71875-.6875-.33433-.6875-.71875.30308-.6875.6875-.6875z" fill="#e6ddff" transform="translate(-203.0002 -195)"/>
</svg>
