<svg height="16" width="16" xmlns="http://www.w3.org/2000/svg">
  <path d="m14.515 3.504c.048.425-.035.868.013 1.3.05.47-.015.964-.1 1.427-.01-.376-.02-.756-.04-1.124-.021-.387-.176-.785-.281-1.163.113.795.163 1.601.183 2.398.015.617.017 1.258-.086 1.859-.1.587-.408 1.176-.601 1.72-.286.805-.196 1.881-.264 2.766 0 0-.067.154-.183-.596-.155-1.014-.242-2.125-.222-3.157v-.024c0-.013-.002-.035-.002-.035s-.033.094-.038.122c-.002.01-.007.037-.007.044v.003c-.003.012-.005.027-.008.044-.002.01-.002.018-.005.028-.002.017-.007.04-.01.059-.002.01-.005.023-.005.033-.015.082-.035.184-.06.305-.123.584-.867.848-.949 1.437-.003.013-1.131.104-.005.035-.068.407-.105.548-.358.834-.268.303-.099-.186-.462.028.347.09.015-.01 0 0-.487.328.996-.297.487-.023-.035.019.255-.281-.025-.005.926-.403-.57.837-.553.817.131-.139-.085.156 0 0 .705-.971-.002.005 0 0 .281-.567-.162-.205.091-.789 0 0-.07.105-.158.229-.11.154-.256.343-.316.415-.477.571-.813 1.401-1.312 1.946-.18.196-.489.271-.692.462-.19.179-.464.296-.712.338-.401.067-.827.311-1.236.46 0 0 .241-.286.416-.512.366-.477.705-.979 1.013-1.499-.007.005-.215.174-.351.465-.236.514-.825.9-1.234 1.297-.301.294-.724.465-1.133.552-.69-.027-1.392-.102-2.061-.266-.557-.139-1.573-.46-1.776-.84-.027-.055-.04-.273.076-.482.2-.363.604-.664.85-1.017.461-.668 1.121-1.682 1.785-2.077.369-.219.863-.351 1.294-.525.198-.067.293-.101.489-.174-.487.107-.955.289-1.419.463 0 0 .002.005.25-.323.276-.363.64-.664.961-.982.564-.559 1.938-1.464 1.938-1.464s-.73.433-1.111.438c-.23.002-.456.136-.647.256.236-.264.489-.52.733-.773.491-.517 1.166-.888 1.767-1.275-.298.062-.629.032-.927-.013.566-.353 1.118-.753 1.592-1.213 1.166-1.135 1.74-2.8 2.643-4.115.414-.602.986-1.126 1.535-1.618 0 0 .366.055.421.263.135.52.366 1.037.544 1.554.186.529.206 1.13.268 1.687z" fill="#e6ddff"/>
</svg>
