<svg height="16" width="16" xmlns="http://www.w3.org/2000/svg">
  <path d="m6.8554688 2.9550781a1.0001 1.0001 0 0 0 -.1679688.0136719 1.0001 1.0001 0 0 0 -.65625.375l-2.8125 3.46875a1.0001 1.0001 0 0 0 -.21875.625v1 6.558594c0 .57036.46094 1 1 1h8.003906c.52343 0 .996094-.4453.996094-.9375v-6.3007815a1.0001 1.0001 0 0 0 .03125-.2578125v-1a1.0001 1.0001 0 0 0 -.8125-1l-3-.5a1.0001 1.0001 0 0 0 -.3125-.03125 1.0001221 1.0001221 0 1 0 -.03125 2l.1796875.03125h-4.0546875v-.21875l2.59375-3.15625a1.0001 1.0001 0 0 0 -.7382812-1.6699219z" fill="#e6ddff"/>
</svg>
