<svg height="16" width="16" xmlns="http://www.w3.org/2000/svg">
  <path d="m5.42539-.00008046c-1.62068 0-2.92539 1.18005996-2.92539 2.64584996s1.30471 2.64585 2.92539 2.64585h2.51582v-5.29169996zm2.51596 0v5.29169996h2.51568c1.62067 0 2.92538-1.18006 2.92538-2.64585s-1.30471-2.64584996-2.92538-2.64584996zm2.68701 5.31353996a2.6816274 2.6816274 0 0 0 -2.68159 2.68159 2.6816274 2.6816274 0 0 0 2.68159 2.6816005 2.6816274 2.6816274 0 0 0 2.68174-2.6816005 2.6816274 2.6816274 0 0 0 -2.68174-2.68159zm-5.20297.003c-1.62068 0-2.92539 1.18006-2.92539 2.64585s1.30471 2.6458505 2.92539 2.6458505h2.51582v-5.2917005zm-.19206 5.3202105a2.6816273 2.6816273 0 0 0 -2.68159 2.6816 2.6816273 2.6816273 0 0 0 2.68159 2.68173 2.6816273 2.6816273 0 0 0 2.68173-2.68173 2.6816273 2.6816273 0 0 0 -.006-.16578c.0005.007.001.0138.002.0209.001.00036.003.001.004.001v-2.53807h-2.4798c-.0457 0-.091.001-.13615.003a2.6816273 2.6816273 0 0 0 -.0658-.003zm2.27703 1.26848c.0367.0589.0718.11907.10389.18094a2.6816273 2.6816273 0 0 0 -.10389-.18094zm.12656.22725c.0317.064.0613.12917.0879.19595a2.6816273 2.6816273 0 0 0 -.0879-.19595zm.10416.2392c.0264.0698.0503.14067.0709.21306a2.6816273 2.6816273 0 0 0 -.0709-.21306zm.0804.24811c.0197.0728.0364.14688.0499.22196a2.6816273 2.6816273 0 0 0 -.0499-.22196zm.0572.2627c.0121.0732.0208.14735.0268.22238a2.6816273 2.6816273 0 0 0 -.0268-.22238z" fill="#E6DDFF"/>
</svg>
