<svg height="16" width="16.059" xmlns="http://www.w3.org/2000/svg">
  <g fill="#e6ddff" transform="translate(-143.00019 -215)">
    <path d="m146.09395 221c-1.27743 0-2.3125 2.02507-2.3125 4.5 0 2.47494 1.03507 4.375 2.3125 4.375.0306 0 .0635-.0292.0937-.0312v.0312l8.8125-.875c-1.8125 0-3.0625-1.09865-3.0625-3.5 0-2.38942 1.03608-3.5 3.0625-3.5l-1.58594-.9961c-3.22964-.01-7.32031-.004-7.32031-.004zm.0234.99219 4.97656.008c.16968.00026.32247.18898.1875.375-.84239 1.51563-.89761 3.78176-.35669 5.56943 0 .17445-.14283.3125-.3125.3125l-5.04891.0139c-.16969 0-.25-.20055-.25-.375-.0858-1.75606-.92131-4.15772.58529-5.84111 0 0 .049-.0628.21875-.0625z"/>
    <path d="m150.00832 217c-.39473 0-.70961.17025-.88958.46259l-2.28241 3.68924-.14046.27756h.30433 1.10135.11704l.0469-.10414 1.4538-2.17057c.0363-.0581.15888-.15034.28091-.15034l7.3961.003c.0786-.005.079.10987.079.10987l-2.87252 5.72088-.0937.16191.16385.0926.0698.70127.6942.36803.0936-.1619 3.46967-7c.13852-.23162.005-1.3902-.10814-1.59514-.12605-.22734-.3837-.41187-.71398-.40478h-8.16989z" fill-rule="evenodd"/>
    <path d="m35.5625 31.953125a1.78125 3.046875 0 1 1 -3.5625 0 1.78125 3.046875 0 1 1 3.5625 0z" transform="matrix(.49627604 0 0 .49230822 138.11937 209.76921)"/>
    <path d="m150.07659 227.00703s-2.91924-.0221-3.10498-.0221-.26784.0324-.37159-.14741c-.30689-.42982-.52143-1.10364-.57752-1.71708-.0109-.11882-.20696-.12631-.30151-.12683l-2.56141.00639c-.13341 0-.15695.24121-.15695.24121-.0519 1.89982.71945 4.7556 2.88858 4.74728l7.88999.01151c-2.67921-.16112-2.63112-1.34814-2.84212-2.47213-.18112-.35221-.25941-.52078-.5697-.52078z" fill-rule="evenodd"/>
    <path d="m151.90625 221a.50219246.50219246 0 1 0 .09375 1h2.5c3.10676 0 3.5869 7 0 7h-2.9375a.50005.50005 0 1 0 0 1h2.9375c4.85104 0 4.50762-9 0-9h-2.5a.50005.50005 0 0 0 -.0937 0z"/>
  </g>
</svg>
