<svg height="16" width="16" xmlns="http://www.w3.org/2000/svg">
  <g fill="none" stroke="#e6ddff" stroke-width=".99985" transform="translate(-192 -180)">
    <ellipse cx="199.999" cy="183.5" rx="6.499" ry="2.5" stroke-dashoffset="1" stroke-linejoin="round"/>
    <path d="m193.49993 183.37534v9.12363"/>
    <g stroke-dashoffset="1" stroke-linejoin="round">
      <path d="m206.49822 186.49916a6.4990258 2.4996252 0 0 1 -3.24952 2.16474 6.4990258 2.4996252 0 0 1 -6.49902 0 6.4990258 2.4996252 0 0 1 -3.24951-2.16474"/>
      <path d="m206.49822 189.49864a6.4990258 2.4996252 0 0 1 -3.24952 2.16474 6.4990258 2.4996252 0 0 1 -6.49902 0 6.4990258 2.4996252 0 0 1 -3.24951-2.16474"/>
      <path d="m206.49822 192.49821a6.4990258 2.4996252 0 0 1 -3.24952 2.16474 6.4990258 2.4996252 0 0 1 -6.49902 0 6.4990258 2.4996252 0 0 1 -3.24951-2.16474"/>
    </g>
    <path d="m206.49798 183.37534v9.12363"/>
  </g>
</svg>
