<svg height="16" viewBox="0 0 16 16" width="16" xmlns="http://www.w3.org/2000/svg">
  <path d="m6.0597734.5-.4827197.130893-3.9008497 1.069243-1.176204 4.421464 2.5648726 2.5838622-.9314448 3.5919078 3.2192633 3.20263 4.4583575-1.239234.9161474-3.488214 3.528611-.941749 1.244193-4.4877614-3.316148-3.1737307-.470821.1240934-3.0152973.7921577zm-.504816 1.9429963 1.8679887 1.8291025-.6458923 2.4478693-2.5325779.7020626-1.8067989-1.817203.6628896-2.4886673zm6.1291776 1.6574116 1.86119 1.779805-.700283 2.5260653-2.491785.6646648-1.7830021-1.8648008.6475921-2.4580689zm-4.4328604 4.4146644 1.7813032 1.8614017-.6509915 2.475067-2.5189801.700362-1.7932012-1.783205.6628896-2.554963z" fill="#E6DDFF"/>
</svg>
