<svg height="16" viewBox="0 0 16 16" width="16" xmlns="http://www.w3.org/2000/svg">
  <path d="m66.26561 1.2305977c-.481685-.045161-.990053.1639537-1.35133.6456615-.240868.3612807-.484628.8403669-.605077 1.2016477-.361277.7225618-.606839 1.4475782-.96812 2.1701402-1.806404 3.6128085-4.695712 6.1400879-8.067666 8.1873459-3.492383 2.047259-7.341399 3.25005-11.435915 3.972612-.481708.120427-.84887.0038-1.21015-.116578-3.251528-1.445123-6.378072-1.326007-9.388746.600824-.361281.240854-.718946.36255-1.321081.242123-.36128-.120427-.727853-.121696-1.089135-.242123-4.33537-.842988-7.70806-3.255042-10.477881-6.626998-1.324695-1.4451227-2.283231-3.2474276-3.12622-5.1742592l-.363045-.7263691c-.120429.1204271-.121015.2433932-.121015.4842464-.120429 4.8170779-.242621 9.6347149-.363045 14.5722209 0 .240854-.00059.485515-.121015.726369-.602135 1.20427-.958035 2.400675-.958035 3.604943 0 .120427-.000591.243394-.121015.484247l-.48406-.484247c-2.047258-1.806403-4.33981-3.005388-7.1096303-3.246242-3.251528-.240854-6.0157032 1.562762-7.09954586 4.573436-.48170785 1.324696-.60389888 2.891307-.36304496 4.456858.72256178 4.455797 2.89233482 7.945097 6.62557032 10.474064 2.0472586 1.445123 4.4495648 2.289297 6.9785308 1.928017.361282 0 .727266.0013.96812.242123 4.576225 3.25153 9.637068 5.658427 15.056281 7.344397 3.131101.963416 6.379836 1.570588 9.751791 1.811442 3.251528.240864 6.37866.000042 9.509761-.842948 2.288113-.602135 4.336281-1.450115 6.383543-2.654386.22197-.0753.430258-.304904.645413-.394568.154692-.09826 1.852486-1.443876 2.692581-2.241884.92101-.874867 2.561485-2.77993 2.561485-2.77993 1.926833-2.528967 3.372956-5.302218 4.336372-8.312892 1.926822-5.298787 2.653418-10.831204 2.894271-16.49127.240868-4.937506-.123352-9.8806888-.605073-14.6977671-.120408-.6021348-.243191-1.3207638-.48406-1.8024717-.240852-.5419108-.688103-.8426245-1.169814-.8877845zm-27.611584 16.7782313c4.094517 0 7.714118 3.497124 7.59369 7.712068.120429 4.094516-3.499761 7.7031-7.714705 7.7031-4.214943 0-7.704621-3.493275-7.704621-7.828645 0-4.335371 3.731119-7.706949 7.825636-7.586523zm-14.925181.726369c2.649393.120427 4.453181 1.564073 5.65745 3.972612.240853.240854-.121014.721209-.121014 1.443771-1.565551-2.288112-3.73062-3.124589-5.657451-2.161172.963415 0 1.56605.236965 2.168185.959524.481705.602135.714829 1.327151.473975 2.17014-.240852 1.20427-1.438479 2.043326-2.763175 1.802472-1.445124-.240854-2.167598-1.32711-2.04717-3.013087-.842989.842989-1.083843 3.13343 0 4.698981 1.204269 1.806404 3.611956 2.64804 6.020495 1.44377l-.24203.242123c-2.047261 1.445126-4.337458 1.684667-6.625571.600824-2.288111-1.204269-3.489853-3.129539-3.61028-5.658505-.120427-3.492382 2.772496-6.742307 6.746586-6.501453zm16.52863 3.102762c-.429021.02446-.818321.118493-1.119389.269026 1.926832.240854 2.772672 1.810086 2.652245 3.25521s-1.449151 2.528841-2.894275 2.528841c-1.324696 0-2.763175-1.087525-2.763175-3.25521-1.083843 1.926831-.726178 4.693779 1.32108 6.259329 2.047258 1.565551 4.940181 1.451553 6.746586-.475279 1.806404-1.926831 1.927419-4.821862.121015-6.86912-1.083843-1.264483-2.777024-1.786182-4.064087-1.712797zm-33.9547884 2.537809c.7677222.01506 1.525712.380441 2.127847 1.103005 1.4451236 1.685977 1.3241086 4.213382-.121015 5.658505-1.2042694 1.20427-3.0110857 1.208119-4.2153554-.116578-.7225617-.722561-1.0790503-1.687121-1.0790502-2.770963 0-1.083843.3564886-2.044554 1.0790502-2.887542.6623483-.662348 1.4408018-1.00148 2.2085234-.986427zm40.7820504 13.863787c1.56555.361281 3.129161 1.931782 3.731295 3.497333-1.411551 1.491237-3.470377 1.879112-5.41542 2.286718-2.343126.491028-4.812022.366399-7.220561.125545-1.083842-.120428-2.173478-.361239-3.25732-.842947-.481708-.240854-1.081402-.602093-1.56311-.842947-.361281-.120427-.727266-.247241-.96812-.367668h-.121015c-.602135-.120427-.360105-.959525.24203-.959525h.121015l1.089135.358701c2.528966.842989 5.296669.845527 7.825635.484246 1.565551-.240854 3.13269-.604632 4.457385-1.327193.602135-.361281 1.324609-.842947 2.047171-.842947-.361281-.240854-.728442-.480398-1.21015-.600824-.602135-.120427-.360105-1.088919.24203-.968492z" fill="#e6ddff" transform="matrix(.23323615 0 0 .26228979 0 .24945)"/>
</svg>
