<svg height="16" viewBox="0 0 16 16" width="16" xmlns="http://www.w3.org/2000/svg">
  <path d="m2 1-.875.875.875 6.125-.875 6.125.875.875h12l.875-.875-.875-6.125.875-6.125-.875-.875zm4.1992188 3.6855469c.6096314 0 1.087591.1568334 1.4316406.4707031.3500854.3138697.5253906.7456499.5253906 1.2949219 0 .6518832-.2989248 1.0966289-.8964844 1.3320312.3863012.132791.6630245.3191086.8320313.5605469.1690068.2354023.2539062.558305.2539062.96875 0 .6096318-.1992831 1.094874-.5976562 1.457031-.3923372.362158-.9182527.544922-1.5761719.544922-1.3158385 0-2.0206122-.691984-2.1171875-2.0742186h.796875c.03018.4647686.1537995.8098716.3710937 1.0332036.2172945.223326.5419737.333984.9765626.333984.4164809 0 .7431132-.110658.9785156-.333984.2354022-.229367.3535156-.5467634.3535156-.9511724 0-.7786383-.4447457-1.1679687-1.3320312-1.1679687l-.3339844.0078125h-.0996094v-.6777344c.5734159-.0120719.9774884-.0840058 1.2128906-.2167969.2414383-.132791.361328-.3967253.3613282-.7890625 0-.3380135-.1014181-.6037244-.3066407-.796875-.1991865-.1991865-.4741333-.2988281-.8242187-.2988281-.4587327 0-.7761292.1273492-.9511719.3808594-.1690067.2474741-.2594124.5796127-.2714844.9960937h-.796875c.0301798-1.3822339.6999632-2.0742187 2.0097657-2.0742187zm5.2207032 0h.52539v6.4199221h-.796874v-4.5722659h-1.4199224v-.5703125c.6156674-.0784674 1.0160104-.1873449 1.2031254-.3261718.187114-.1388271.349454-.4562235.488281-.9511719z" fill="#e6ddff"/>
</svg>
