<svg height="16" viewBox="0 0 4.23 4.23" width="16" xmlns="http://www.w3.org/2000/svg">
  <path d="m3.9941406.5c-1.2582.0145-2.1788906-.03060437-2.9316406.38476562-.37636999.20765998-.67323063.55938688-.83789062.99804688-.16467.43867-.22460938.9595775-.22460938 1.6171875v2 5 2s.05989938 1.178528.22460938 1.617188c.16466999.438659.46152063.790396.83789062.998046.75275.41532 1.6734506.370196 2.9316406.384766h.0039063 8.0039061.003906c1.25819-.0145 2.178891.030604 2.931641-.384766.37637-.20766.673221-.559387.837891-.998046.16323-.43867.224609-.959578.224609-1.617188v-2-5-2c0-.65761-.059899-1.1785175-.224609-1.6171875-.16466-.43866-.461521-.7903869-.837891-.99804688-.75275-.41533999-1.673441-.37024562-2.931641-.38476562h-.003906-8.0039061zm4.0058594 2.5a1.1764723 1.1764723 0 0 1 1.1757812 1.1757812 1.1764723 1.1764723 0 0 1 -1.1757812 1.1777344 1.1764723 1.1764723 0 0 1 -1.1757812-1.1777344 1.1764723 1.1764723 0 0 1 1.1757812-1.1757812zm-2.3535156 3.5292969h3.5292968v5.2949221h1.1777348v1.175781h-4.7070316v-1.175781h1.1777344v-4.1191409h-1.1777344z" fill="#e6ddff" transform="matrix(.26458333 0 0 .26458333 -.000001 -.000001)"/>
</svg>
