<svg fill="none" height="16" viewBox="0 0 16 16" width="16" xmlns="http://www.w3.org/2000/svg">
  <g clip-rule="evenodd" fill="#E6DDFF" fill-rule="evenodd">
    <path d="m13.2985 1c.3598 0 .6515.2917.6515.65153v12.69697c0 .3598-.2917.6515-.6515.6515h-.5735v-4.6092c0-.1799-.1459-.3258-.3258-.3258h-5.59596c-.17991 0-.32576.1459-.32576.3258v4.6092h-.52379c-.34793 0-.68141-.1391-.92616-.3864l-2.60065-2.6278c-.24145-.244-.37689-.5733-.37689-.9166v-9.41768c0-.35982.2917-.65152.65152-.65152z"/>
    <path d="m12.0425 10.66h-4.8825v4.34h4.8825zm-3.3775.56h-.98v3.22h.98z"/>
  </g>
</svg>
