<svg fill="none" height="16" viewBox="0 0 16 16" width="16" xmlns="http://www.w3.org/2000/svg">
  <g fill="#E6DDFF">
    <path d="m9.61538 1h-7.89743c-.39651 0-.71795.35563-.71795.79433v7.74468c0 .43869.32144.79429.71795.79429h7.89743c.39652 0 .71792-.3556.71792-.79429v-7.74468c0-.4387-.3214-.79433-.71792-.79433z" opacity=".5"/>
    <path d="m14.641 5.60662h-3.9487c-.1982 0-.359.17782-.359.39716v3.87234c0 .21938.1608.39718.359.39718h3.9487c.1983 0 .359-.1778.359-.39718v-3.87234c0-.21934-.1607-.39716-.359-.39716z" opacity=".5"/>
    <path d="m9.86687 10.3333h-3.94872c-.19826 0-.35898.1779-.35898.3972v3.8723c0 .2194.16072.3972.35898.3972h3.94872c.19823 0 .35893-.1778.35893-.3972v-3.8723c0-.2193-.1607-.3972-.35893-.3972z" opacity=".5"/>
    <path d="m5.55917 9.85402h4.77415v.911458h-4.77415z"/>
    <path d="m10.7891 5.60662h5.15885v.911458h-5.15885z" transform="matrix(0 1 -1 0 16.39572 -5.18248)"/>
    <circle cx="5.55917" cy="10.2733" r="1.14844"/>
    <circle cx="10.3333" cy="10.2733" r="1.14844"/>
    <circle cx="10.3333" cy="5.60662" r="1.14844"/>
  </g>
</svg>
