<svg fill="none" height="16" viewBox="0 0 16 16" width="16" xmlns="http://www.w3.org/2000/svg">
  <path clip-rule="evenodd" d="m8 1c3.866 0 7 3.13401 7 7 0 3.866-3.134 7-7 7-3.86599 0-7-3.134-7-7 0-3.86599 3.13401-7 7-7zm2.9891 2.21545c-.3453 0-.677.09119-.99473.27371-.31084.17549-.60452.43184-.88082.76871-.2694.32992-.51449.73711-.73553 1.22146-.22104.47722-.41086 1.01747-.56974 1.62115-.11052.42814-.22107.78982-.33159 1.08461-.11052.29482-.22441.54025-.34184.73673-.10593-.04072-.21131-.09433-.3161-.14763-.14805-.0753-.29492-.15001-.44052-.18698-.24177-.07019-.4902-.1049-.74578-.1049-.20032 0-.38346.03147-.54924.09466-.15887.06315-.29675.14023-.41418.23151-.11743.09124-.21067.18949-.27974.29481-.06217.10523-.09345.29578-.09345.38706 0 .14739.06924.27071.20739.36897.13815.09825.34528.14708.62158.14708.7322 0 1.35025-.19329 1.8545-.57936.31775.14042.64271.27401.97427.40032.33847.11934.71142.17904 1.11897.17904.4628 0 .83241-.09826 1.10875-.29479.2763-.20352.4353-.46378.601-.84281.007-.04238-.0031-.07055-.0307-.08444-.0207-.02099-.0453-.02099-.0729 0-.1175.23864-.2039.3903-.3835.51668-.1796.12628-.44199.18931-.78736.18931-.41446 0-.7947-.04561-1.14007-.13686-.33847-.09825-.66283-.20686-.97367-.32616.42827-.51238.76325-1.23891 1.00502-2.17946.14506-.58961.28628-1.08103.42443-1.47407.13816-.39307.28667-.70523.44554-.93689.15888-.23864.33198-.37298.51849-.46423.19341-.09825.42122-.14709.68372-.14709.1934 0 .3519.03529.4762.10551.1313.06316.2285.1473.2906.25259.0622.10529.0962.19024.1031.31652.0069.12638-.0098.37589-.0512.50223-.0069.03531.0031.05964.0307.07353.0346.0142.0658.0108.0935-.01019.0465-.08031.0913-.23096.1345-.37653l.0001-.00005c.021-.07066.0416-.14013.0619-.19977.0622-.18962.0935-.35469.0935-.49504 0-.21762-.0659-.40004-.1972-.54743-.1312-.15443-.3037-.23151-.5179-.23151zm-5.81244 5.61413c.29703 0 .57674.04176.83923.126.15378.04937.30639.13542.45782.2208.10703.06035.21346.12037.31931.16686-.15888.1544-.33867.25971-.53899.31592-.19341.04901-.41451.07355-.66318.07355-.28321 0-.50431-.04555-.66318-.13686-.15197-.09121-.2279-.29969-.2279-.44011 0-.21756.15915-.32616.47689-.32616zm.97125 2.10292c-.16374 0-.32076.065-.43654.1808s-.18082.2728-.18082.4365c0 .1638.06504.3208.18082.4366.11578.1157.2728.1808.43654.1808.16373 0 .32076-.0651.43654-.1808.11578-.1158.18082-.2728.18082-.4366 0-.1637-.06504-.3207-.18082-.4365s-.27281-.1808-.43654-.1808zm3.70417 0c-.16374 0-.32076.065-.43654.1808s-.18082.2728-.18082.4365c0 .1638.06504.3208.18082.4366.11578.1157.2728.1808.43654.1808.16372 0 .32072-.0651.43652-.1808.1158-.1158.1808-.2728.1808-.4366 0-.1637-.065-.3207-.1808-.4365s-.2728-.1808-.43652-.1808zm-2.28862.7982c.11578-.1158.2728-.1809.43654-.1809.16373 0 .32076.0651.43654.1809.11578.1157.18082.2728.18082.4365s-.06504.3207-.18082.4365-.27281.1808-.43654.1808c-.16374 0-.32076-.065-.43654-.1808s-.18082-.2728-.18082-.4365.06504-.3208.18082-.4365z" fill="#E6DDFF" fill-rule="evenodd"/>
</svg>
