<svg fill="none" height="16" viewBox="0 0 16 16" width="16" xmlns="http://www.w3.org/2000/svg">
  <g fill="#E6DDFF">
    <g opacity=".3">
      <path clip-rule="evenodd" d="m12.8297 10.1117c.0323-.0122.064-.0241.0949-.0357.0589-.0221.1149-.043.1671-.0619.2661-.09641.4712-.15797.6456-.18011.1639-.02081.2742-.00309.3651.03945" fill-rule="evenodd"/>
      <path d="m14.1024 9.87344c.0731.03423.169.10115.2817.24166v3.1287h-11.76847v-4.12148c.33798.00964.66071-.05495.95723-.14955.38677-.1234.7851-.31962 1.13008-.48956.10642-.05242.20776-.10234.30212-.14685.44465-.20976.78232-.32768 1.07643-.3242.24609.00291.52968.09228.86955.48809 1.00329 1.16844 1.95306 1.77335 2.8736 1.99985.92136.2267 1.72676.0522 2.38466-.1646.2108-.0695.4273-.1511.6204-.2238l.0949-.0357c.0589-.0221.1149-.043.1671-.0619.2661-.09641.4712-.15797.6456-.18011.1639-.02081.2742-.00309.3651.03945z"/>
    </g>
    <path clip-rule="evenodd" d="m14.3841 10.1151c-.1127-.14051-.2086-.20743-.2817-.24166-.0909-.04254-.2012-.06026-.3651-.03945-.1744.02214-.3795.0837-.6456.18011-.0796.0289-.168.0622-.262.0976-.1931.0727-.4096.1543-.6204.2238-.6579.2168-1.4633.3913-2.38466.1646-.92054-.2265-1.87031-.83141-2.8736-1.99985-.33987-.39581-.62346-.48518-.86955-.48809-.29411-.00348-.63178.11444-1.07643.3242-.09436.04451-.1957.09443-.30212.14685-.34498.16994-.74331.36616-1.13008.48956-.29652.0946-.61925.15919-.95723.14955v4.12148h11.76847zm-12.36848 3.7287h12.96848v-3.92192c-.6663-1.01267-1.4364-.72227-2.3846-.36472-1.3196.49754-2.98397 1.12514-5.19325-1.44778-.98126-1.14279-1.98339-.64961-3.00106-.14877-.59162.29115-1.18848.58489-1.78956.56131-.19955-.00782-.39957-.05062-.60001-.1401z" fill-rule="evenodd"/>
    <path clip-rule="evenodd" d="m2.61563 5.52291c.10432-.12641.18299-.16957.22759-.18602.05479-.0202.13734-.0296.29122.01646.16351.04895.35636.14478.60736.28682.06752.03821.14083.08074.2181.12556.18642.10813.39586.22962.60247.33602.5995.30871 1.3713.60034 2.25726.38763.88151-.21163 1.72955-.88589 2.58419-2.15407.15656-.23232.26491-.32097.31879-.35183.03086-.01768.03761-.01639.06074-.01099.04988.01164.14267.05212.30075.16759.1555.11362.3271.26364.5453.45528l.0179.01572c.774.67974 1.9134 1.68054 3.7368 1.86528v6.93274h-11.76847zm8.41017-1.37802c.8495.74606 2.0056 1.76136 3.9583 1.76136v8.10285h-12.96847v-8.68098c.65917-1.00185 1.39474-.57504 2.26128-.07224 1.22823.71267 2.71956 1.578 4.62935-1.25588.72668-1.0783 1.26974-.60141 2.11954.14489z" fill-rule="evenodd"/>
    <path d="m2.84322 5.33689c-.0446.01645-.12327.05961-.22759.18602v7.88619h11.76847v-6.93274c-1.8234-.18474-2.9628-1.18554-3.7368-1.86528l-.0179-.01572c-.2182-.19164-.3898-.34166-.5453-.45528-.15808-.11547-.25087-.15595-.30075-.16759-.02313-.0054-.02988-.00669-.06074.01099-.05388.03086-.16223.11951-.31879.35183-.85464 1.26818-1.70268 1.94244-2.58419 2.15407-.88596.21271-1.65776-.07892-2.25726-.38763-.20661-.1064-.41605-.22789-.60247-.33602-.07727-.04482-.15058-.08735-.2181-.12556-.251-.14204-.44385-.23787-.60736-.28682-.15388-.04606-.23643-.03666-.29122-.01646z" opacity=".3"/>
    <path d="m1.6841 1h1.08182v13.2045h-1.08182z"/>
    <path d="m14.9841 13.1227h1.08182v13.3h-1.08182z" transform="matrix(0 1 -1 0 28.1068 -1.8614)"/>
    <path d="m2.76591 1.85909h1.08182v1.75h-1.08182z" transform="matrix(0 1 -1 0 4.625 -.90682)"/>
    <path d="m2.76591 3.67273h1.08182v1.75h-1.08182z" transform="matrix(0 1 -1 0 6.43864 .90682)"/>
    <path d="m2.76591 5.48636h1.08182v1.75h-1.08182z" transform="matrix(0 1 -1 0 8.25227 2.72045)"/>
    <path d="m2.76591 7.3h1.08182v1.75h-1.08182z" transform="matrix(0 1 -1 0 10.06591 4.53409)"/>
    <path d="m2.76591 9.11364h1.08182v1.75h-1.08182z" transform="matrix(0 1 -1 0 11.87955 6.34773)"/>
    <path d="m2.76591 10.9273h1.08182v1.75h-1.08182z" transform="matrix(0 1 -1 0 13.69321 8.16139)"/>
    <path d="m3.29091 13.25h1.08182v1.75h-1.08182z"/>
    <path d="m5.13637 13.25h1.08182v1.75h-1.08182z"/>
    <path d="m6.98183 13.25h1.08182v1.75h-1.08182z"/>
    <path d="m8.82729 13.25h1.08182v1.75h-1.08182z"/>
    <path d="m10.6727 13.25h1.08182v1.75h-1.08182z"/>
    <path d="m12.5182 13.25h1.08182v1.75h-1.08182z"/>
  </g>
</svg>
