<svg height="16" viewBox="0 0 4.23 4.23" width="16" xmlns="http://www.w3.org/2000/svg">
  <path d="m0 295.94162c.00672-.0421.81064641-1.94037.86250657-2.01952.0640107-.0977.12476269-.071.20685663.0909.056693.11181.3885142.90634.3885142.93029 0 .0208-.3370347.83124-.3864395.9293l-.034517.0685h-.51119503c-.4381248 0-.5257248.00056-.5257248.00056zm3.2189164-.002c-.036288-.0691-.2467477-.55073-.2412845-.55562.0032-.003.1579062-.0609.3438059-.12891.379837-.13901.5146264-.15997.5831104-.0907.036971.0374.3184288.72949.3287852.7749 0 0-.081429.001-.5093089.001-.4680171 0-.5051081-.001-.5051081-.001zm-1.2381569-.35541c-.03104-.031-.055925.0356.2523829-.67557.087125-.20097.1696704-.38262.1834304-.40367.017536-.0268.108815-.066.3050763-.13102.3236586-.10718.3637793-.11558.4449246-.0932.054112.0149.3101111.27549.6897379.70203l.066016.0741-.1040426-.007c-.090283-.006-.1426998.006-.3963626.0963-.9460416.3352-1.3302454.46594-1.3693056.46594-.024213 0-.056555-.0126-.071861-.0278zm-.1819563-.10464c-.041003-.0546-.1764288-.36263-.5521899-1.25607-.1104757-.26268-.1577397-.35374-.2120928-.40866-.038464-.0388-.069941-.0738-.069941-.0777 0-.014.9066379-.005.9829899.01.043243.009.099925.0347.1259787.0586.044821.0411.155888.25995.2695466.53125l.051307.12245-.2340821.52613c-.1287446.28938-.2428587.53219-.2535862.53957-.036629.0252-.063317.014-.1079274-.0454z" fill="#e6ddff" transform="translate(0 -292.76665)"/>
</svg>
