<svg height="16" width="16" xmlns="http://www.w3.org/2000/svg"><path d="m1.471586.49971985c-.456665.003-.923906.50340995-.971586.96256995l.01521 4.1852299c.000606.1612.116166.33057.230149.44424l1.900917 1.89585v.0242l.0124-.0121-.01211-.0121.02451-.00029-.01239.0124.01239.0124-.02479-.00029-1.900917 1.8958503c-.113983.11366-.229566.28276-.230149.44396l-.01521 4.18552c.04768.45916.514921.95937.971586.96257l4.114238-.005c.104156-.00013.308933-.0727.376916-.14l2.019512-1.99839v-.0358l.0355.0355v.00029h.000288l2.019231 1.99838c.06798.0673.273042.14017.377197.14029l4.11395.005c.456666-.003.923906-.50341.971586-.96257l-.01521-4.18551c-.000577-.1612-.116165-.33029-.230149-.44396l-1.900917-1.8958503h-.000288l-.02423-.0245.02423.00029 1.901197-1.89584c.113985-.11367.229561-.28305.230149-.44424l.01522-4.1852399c-.04768-.45917-.51492-.95936995-.971586-.96256995l-4.113957.005c-.104155.00013-.309214.073-.377197.14029l-2.019231 1.99837995-.03578.0358v-.0358l-2.019512-1.99837995c-.06798-.0673-.27276-.14017-.376916-.14029z" fill="#e6ddff" stroke-width=".066964"/></svg>