<svg height="16" width="16" xmlns="http://www.w3.org/2000/svg">
  <path d="m.86328125.84375c-.65892-.01398-.96769125.4412575-.83203125 1.2265625.0438.253123.26619063.6140176.74414062 1.2128906.53149998.665732.74499248 1.0302963.97656248 1.6601563.36511.992788.5337581 1.3248876.8300781 1.6347656.23072.241671.2310919.242612.0761719.734375-.23982.762063-.2903562 2.2906476-.0976562 3.009766.28798 1.07531.6435418 1.564453 1.1386719 1.564453.35283 0 .6425137-.296061.7460937-.761719.0362-.161676.1040806-.391305.1503906-.511719.08-.208831.1019257-.194454.4160157.31836.18189.297247.5298143.74102.7714843.984375.55912.563337 1.3252894 1.19647 1.3808594 1.142578.0236-.02274-.1996937-.35346-.4960937-.738282-1.0312801-2.9497975 2.0397974-.274514 5.2109372-1.210937 1.02563.355349 1.374832.517605 1.826172.841797l.476563.341797-.320313.0625c-.17683.03368-.563542.089367-.857422.123047-.61218.07073-1.013672.32428-1.013672.642578 0 .358718 1.222076 1.38636 2.447266 2.05664.58945.322508 1.156196.639398 1.259766.705078.27451.176834.348073.155398.277343-.076171-.14905-.48671-.651575-.961015-2.046875-1.933594-.81848-.570916-.825421-.549578.267578-.658203.779741-.07747 1.171876-.209548 1.171876-.396485 0-.08589-.394717-.542961-.878907-1.013671-.75785-.738486-1.015139-.92141-1.849609-1.328126-1.13678-.5523905-1.55062-.9905565-1.8125-1.9218745-.39072-1.389397-1.4409107-3.0207939-2.8378908-4.4042969-1.5232799-1.665414-3.3572668-2.0354546-5.1230468-2.6503906-.44898-.304067-1.4925932-.645472-2.00195315-.65625zm2.07031255 1.3457031a.85407393.64970859 34.436584 0 1 .6640624.2363281.85407393.64970859 34.436584 0 1 .2285157 1.0195313.85407393.64970859 34.436584 0 1 -1.0996094-.0488281.85407393.64970859 34.436584 0 1 -.2285156-1.0195313.85407393.64970859 34.436584 0 1 .4355469-.1875z" fill="#e6ddff"/>
</svg>
