<svg height="16" width="16" xmlns="http://www.w3.org/2000/svg">
  <g clip-rule="evenodd" fill="#e6ddff" image-rendering="optimizeQuality" shape-rendering="geometricPrecision" text-rendering="geometricPrecision" transform="translate(16.067797 3.305675)">
    <path d="m-13.076275-1.3985252c-2.351378 2.5552891-1.781514 7.3173023 1.272149 10.6357753 3.0536644 3.3184829 7.4349383 3.9369789 9.7863203 1.3816899 2.35138303-2.5552889 1.78313703-7.3174934-1.27053-10.63596678-3.0536627-3.31848352-7.4365573-3.93679762-9.7879393-1.38149842zm2.132185 1.06147352c1.8475632-2.00777682 5.2446042-1.57103932 7.5880923.9756806 2.343496 2.54671998 2.74538403 6.23835718.897818 8.24614418-1.847562 2.0077669-5.245493 1.5720169-7.5889883-.974713-2.343494-2.5467296-2.744485-6.2393248-.896922-8.24711178z" fill-rule="evenodd"/>
    <rect height="1.969" rx=".348" width="1.969" x="-4.5" y="-.49"/>
    <rect height="4.637" rx=".82" width="4.637" x="-15.57" y="2.1"/>
    <rect height="2.801" rx=".496" width="2.801" x="-3.58" y="8.17"/>
  </g>
</svg>
