<svg height="16" width="16" xmlns="http://www.w3.org/2000/svg">
  <g fill="#e6ddff" transform="translate(-323.0002 125)">
    <path d="m336.0002-122v5.5625c0 .51569-.0522 1.10849-.4375 1.625-.38532.5165-1.09467.8384-2.0625.8125h-4.0625l-1.03125 1h4.59375l3 3v-3h1c.554 0 1-.446 1-1v-7c0-.554-.446-1-1-1z" fill-opacity=".364706"/>
    <path d="m325.0002-124c-.554 0-1 .446-1 1v7c0 .554.446 1 1 1h1v3l3-3h5c.554 0 1-.446 1-1v-7c0-.554-.446-1-1-1zm3 2h1v1h1v-1h1v1h1v1h-1v1h1v1h-1v1h-1v-1h-1v1h-1v-1h-1v-1h1v-1h-1v-1h1zm1 2v1h1v-1z"/>
  </g>
</svg>
