<svg height="16" width="16" xmlns="http://www.w3.org/2000/svg">
  <path d="m49.983 381c-4.4183 0-8 3.5817-8 8s3.5817 8 8 8 8-3.5817 8-8-3.5817-8-8-8zm0 1.9432c1.1213 0 2.0301.9088 2.0301 2.0301s-.9088 2.0301-2.0301 2.0301-2.0301-.9088-2.0301-2.0301.9088-2.0301 2.0301-2.0301zm-4.7974 4.1202c3.2067-.0458 6.4129-.0154 9.6195.0113 0 0 .43092-.008.43092.42408v.20861c0 .22582-.23561.28804-.23561.28804l-2.9852.57817v2.1109l1.3547 3.9064c.1368.22572-.15839.2902-.15839.2902l-.5265.005c-.25317 0-.34809-.21303-.34809-.21303l-2.0718-3.5916c-.22228-.5041-.23617-.43981-.44654.00077l-2.1689 3.5862c-.07254.21764-.3556.22239-.3556.22239l-.5703-.009s-.20848-.006-.16065-.20918l1.3875-3.9888v-2.1109l-2.8919-.5548c-.23245-.0787-.32884-.29434-.32884-.29434v-.21764s-.0097-.44343.45567-.44343z" fill="#e6ddff" transform="translate(-41.983 -381)"/>
</svg>
