<svg fill="none" height="16" viewBox="0 0 16 16" width="16" xmlns="http://www.w3.org/2000/svg">
  <g fill="#E6DDFF">
    <path d="m5.469 1c-.821 0-1.469.648-1.469 1.469v11.061c0 .822.648 1.47 1.469 1.47h5.125c.82 0 1.469-.648 1.469-1.469v-11.061c0-.821-.648-1.469-1.47-1.469zm-.469 1h6.063v11h-6.063z"/>
    <path d="m6.79713 5.53125c-.17096 0-.30859.13764-.30859.3086s.13763.3086.30859.3086.3086-.13764.3086-.3086-.13764-.3086-.3086-.3086zm2.16016 0-.61719.6172.92578.92577-.92578.92578.61719.61718 1.54301-1.54296zm-2.93164 1.85156c-.25645 0-.46289.20646-.46289.4629 0 .25643.20644.46288.46289.46288.25644 0 .46289-.20645.46289-.46288 0-.25644-.20645-.4629-.46289-.4629zm1.38867 1.85157c-.34192 0-.61719.27526-.61719.61718 0 .34194.27527.61724.61719.61724s.61719-.2753.61719-.61724c0-.34192-.27527-.61718-.61719-.61718z"/>
  </g>
</svg>
