<svg fill="none" height="16" viewBox="0 0 16 16" width="16" xmlns="http://www.w3.org/2000/svg">
  <g fill="#E6DDFF">
    <path clip-rule="evenodd" d="m2.2 2.2v11.6h11.6v-11.6zm-.2-1.2c-.55228 0-1 .44772-1 1v12c0 .5523.44772 1 1 1h12c.5523 0 1-.4477 1-1v-12c0-.55228-.4477-1-1-1z" fill-rule="evenodd"/>
    <path d="m2.04688 7.51562h11.9062v.96875h-11.9062z"/>
    <path d="m7.51562 13.9531h11.9062v.96875h-11.9062z" transform="matrix(0 -1 1 0 -6.43748 21.46872)"/>
    <path d="m3.45312 3.4375h2.71875v2.89062h-2.71875z" opacity=".3"/>
    <path clip-rule="evenodd" d="m3.57812 3.65625v2.5h2.5v-2.5zm-.19999-.5c-.16569 0-.30001.13431-.30001.3v2.9c0 .16569.13432.3.3.3h2.90001c.16568 0 .29999-.13431.29999-.3v-2.9c0-.16569-.13431-.3-.29999-.3z" fill-rule="evenodd"/>
    <path d="m9.70312 9.67188h2.71875v2.89062h-2.71875z" opacity=".3"/>
    <path clip-rule="evenodd" d="m9.82812 9.89062v2.49998h2.49998v-2.49998zm-.19999-.5c-.16569 0-.30001.13432-.30001.3v2.89998c0 .1657.13432.3.3.3h2.89998c.1657 0 .3-.1343.3-.3v-2.89997c0-.16569-.1343-.30001-.3-.30001z" fill-rule="evenodd"/>
  </g>
</svg>
