<svg fill="none" height="16" viewBox="0 0 16 16" width="16" xmlns="http://www.w3.org/2000/svg">
  <g fill="#E6DDFF">
    <path clip-rule="evenodd" d="m2.1375 5.01562v8.75318h11.6v-8.75318zm-.2-4.04687c-.55228 0-1 .44772-1 1v12.00005c0 .5522.44772 1 1 1h12c.5523 0 1-.4478 1-1v-12.00005c0-.55228-.4477-1-1-1zm10.6305 2.95312.4798-.47974.4647.46475.4565-.45651-.4647-.46475.4849-.48488-.4716-.47155-.4849.48489-.4848-.48484-.4565.45651.4848.48484-.4797.47974zm-6.82608-.63446h2.50528v.63447h-2.50528zm5.29908-1.19405h-1.83171v1.82851h1.83171zm-1.36766 1.36447v-.90043h.90366v.90043z" fill-rule="evenodd"/>
    <path d="m10.3252 5.65625c-1.54735 0-1.83762 2.20393-.96713 2.20393.87033 0 2.51453-2.20393.96713-2.20393z"/>
    <path d="m7.75585 7.58711c.46348.02831.972-1.76875.10089-1.65573-.8708.11302-.56456 1.62744-.10089 1.65573z"/>
    <path d="m5.63175 8.70377c.32964-.14511.04244-1.56437-.51809-1.17732-.56028.38715.18845 1.32234.51809 1.17732z"/>
    <path d="m6.56052 7.96085c.39241-.08001.41392-1.68964-.28586-1.40089-.6999.28881-.10623 1.48101.28586 1.40089z"/>
    <path d="m8.60958 11.563c.06963.5317-.39006.7943-.84027.4515-1.43321-1.0912 2.37299-1.6355 2.12211-3.12629-.20825-1.23742-4.00498-.85647-4.43733 1.07972-.29265 1.30957 1.20466 3.12637 2.767 3.12637.76858 0 1.65509-.694 1.82091-1.5732.1267-.6704-1.49053-.4017-1.43242.0419z"/>
  </g>
</svg>
