<svg height="16" width="16" xmlns="http://www.w3.org/2000/svg">
  <g fill="#e6ddff" transform="translate(-63.000204 -667)">
    <path d="m291 178.03125a1.96875 1.96875 0 1 1 -3.9375 0 1.96875 1.96875 0 1 1 3.9375 0z" transform="matrix(1.5079365 0 0 1.5079365 -369.84037 406.50893)"/>
    <path d="m291 178.03125a1.96875 1.96875 0 1 1 -3.9375 0 1.96875 1.96875 0 1 1 3.9375 0z" transform="matrix(1.5079365 0 0 1.5079365 -359.87182 411.50893)"/>
    <path d="m291 178.03125a1.96875 1.96875 0 1 1 -3.9375 0 1.96875 1.96875 0 1 1 3.9375 0z" transform="matrix(1.5079365 0 0 1.5079365 -359.87182 401.50893)"/>
    <path d="m75.625 669.15625-10.0625 4.875-1.8125.90625 1.8125.90625 10.03125 5.0625.90625-1.8125-8.21875-4.15625 8.21875-4z"/>
  </g>
</svg>
