<svg fill="none" height="16" viewBox="0 0 16 16" width="16" xmlns="http://www.w3.org/2000/svg">
  <g clip-rule="evenodd" fill="#E6DDFF" fill-rule="evenodd">
    <path d="m8 1c-3.842 0-7 3.158-7 7s3.158 7 7 7c.62135 0 1.2248-.0826 1.7999-.2373-.25163-.4993-.39334-1.0635-.39334-1.6608 0-2.0409 1.65444-3.69534 3.69534-3.69534.5973 0 1.1615.14171 1.6608.39335.1547-.57511.2373-1.17856.2373-1.79991 0-3.842-3.158-7-7-7zm0 4c1.68 0 3 1.32 3 3s-1.32 3-3 3-3-1.32-3-3 1.32-3 3-3zm0 1c-1.099 0-2 .901-2 2s.901 2 2 2 2-.901 2-2-.901-2-2-2zm0 1c.558 0 1 .442 1 1s-.442 1-1 1-1-.442-1-1 .442-1 1-1z"/>
    <path d="m13.1019 16c.7686 0 1.5058-.3053 2.0493-.8488s.8488-1.2807.8488-2.0493c0-.7687-.3053-1.5058-.8488-2.0493s-1.2807-.8489-2.0493-.8489c-.3806 0-.7575.075-1.1091.2207-.3516.1456-.6711.3591-.9402.6282s-.4826.5886-.6283.9402c-.1456.3516-.2206.7285-.2206 1.1091s.075.7574.2206 1.109c.1457.3517.3592.6711.6283.9403.2691.2691.5886.4825.9402.6282.3516.1456.7285.2206 1.1091.2206zm1.8692-3.3846c.1603-.1821.1507-.467-.0215-.6364-.1722-.1695-.4416-.1593-.6019.0227l-1.5078 1.7122-.8995-.8779c-.1729-.1687-.4423-.1573-.6019.0255-.1595.1827-.1487.4676.0241.6363l1.1333 1.1059c.2154.2102.5509.1968.7507-.03z"/>
  </g>
</svg>
