<svg height="16.079" width="16.015" xmlns="http://www.w3.org/2000/svg">
  <path d="m649 462c-.22065 0-.44081.0113-.65625.0312l-.40625 2.0938c-.33446.0733-.66305.17589-.96875.3125l-1.5312-1.4688c-.38863.23011-.72695.51408-1.0625.8125l.90625 1.9062c-.22242.24899-.42425.5225-.59375.8125l-2.0938-.28125c-.17772.40877-.30872.83637-.40625 1.2812l1.8438 1c-.0171.16809-.0312.3274-.0312.5s.0142.33191.0312.5l-1.8438 1c.0975.44488.22853.87248.40625 1.2812l2.0938-.28125c.1695.29.37133.56351.59375.8125l-.90625 1.9062c.33555.29842.67387.58239 1.0625.8125l1.5312-1.4688c.3057.13661.63429.23916.96875.3125l.40625 2.0938c.21544.02.4356.0312.65625.0312s.44081-.0113.65625-.0312l.40625-2.0938c.33446-.0733.66305-.17589.96875-.3125l1.5312 1.4688c.38863-.23011.72695-.51408 1.0625-.8125l-.90625-1.9062c.22242-.24899.42425-.5225.59375-.8125l2.0938.28125c.17772-.40877.30872-.83637.40625-1.2812l-1.8438-1c.0171-.16809.0312-.3274.0312-.5s-.0142-.33191-.0312-.5l1.8438-1c-.0975-.44488-.22853-.87248-.40625-1.2812l-2.0938.28125c-.1695-.29-.37133-.56351-.59375-.8125l.90625-1.9062c-.33555-.29842-.67387-.58239-1.0625-.8125l-1.5312 1.4688c-.3057-.13661-.63429-.23916-.96875-.3125l-.40625-2.0938c-.21544-.02-.4356-.0312-.65625-.0312zm0 4c1.6568 0 3 1.3432 3 3s-1.3432 3-3 3-3-1.3432-3-3 1.3432-3 3-3z" fill="#e6ddff" fill-opacity=".999265" transform="translate(-641.1875 -460.9207)"/>
</svg>
