<svg height="16" width="16" xmlns="http://www.w3.org/2000/svg">
  <g fill="#e6ddff">
    <path d="m6.51073.98986174c-3.02886 0-5.51073 2.47905006-5.51073 5.50447006 0 3.02541 2.48187 5.5044602 5.51073 5.5044602 3.02885 0 5.510719-2.4790502 5.510719-5.5044602 0-3.02542-2.481869-5.50447006-5.510719-5.50447006zm0 2.00892996c1.94735 0 3.499509 1.5503901 3.499509 3.4955401 0 1.94514-1.552159 3.49553-3.499509 3.49553-1.94736 0-3.49952-1.55039-3.49952-3.49553 0-1.94515 1.55216-3.4955401 3.49952-3.4955401z"/>
    <path d="m9.8154198 8.9943218a1.0001 1.0001 0 0 0 -.4999998 1.7187502l3.999999 3.999999a1.0054782 1.0054782 0 1 0 1.40625-1.4375l-4-3.9999992a1.0001 1.0001 0 0 0 -.9062492-.28125z"/>
  </g>
</svg>
