<svg height="16" width="16" xmlns="http://www.w3.org/2000/svg">
  <g fill="#e6ddff" transform="translate(-483.0002 105)">
    <path d="m490.5002-104.01367c-1.385 0-2.5 1.115-2.5 2.5v5.01367c0 1.385 1.115 2.5 2.5 2.5.28782 0 .55949-.0578.81641-.14648a4.4999862 4.4999862 0 0 1 1.65429-2.07227c.0105-.0934.0293-.18496.0293-.28125v-5.01367c0-1.385-1.115-2.5-2.5-2.5zm-4 4.01367c-.27614 0-.5.22386-.5.5v2.96875c0 1.96838 1.25801 3.62455 3 4.25v1.28125h-2c-.56475 0-1 .49007-1 1v1h.84375 2.15625 3.67773a4.4999862 4.4999862 0 0 1 -1.67773-3.5 4.4999862 4.4999862 0 0 1 .0391-.55273c-.17687.027-.35458.0527-.5391.0527-1.9523 0-3.5-1.5671-3.5-3.53125v-2.96872c0-.27614-.22386-.5-.5-.5zm8 0c-.27614 0-.5.22386-.5.5 0 .069.006.12768.0312.1875v2.56445a4.4999862 4.4999862 0 0 1 .9688-.21875v-2.5332c0-.27614-.22386-.5-.5-.5z"/>
    <circle cx="495.5" cy="-92.5" r="3.5"/>
  </g>
</svg>
