<svg fill="none" height="16" viewBox="0 0 16 16" width="16" xmlns="http://www.w3.org/2000/svg">
  <path d="m1.82957 12.9603.89821.3753v-6.05283l-1.62885 3.92803c-.274823.6837.04022 1.4679.73064 1.7495zm13.07103-2.4802-3.3248-8.01014c-.0982-.24295-.2654-.4518-.4811-.60071-.2156-.14892-.4701-.23137-.7321-.23717-.1743 0-.3553.02681-.52956.10055l-4.94017 2.04443c-.23844.10119-.44285.26865-.58898.4825-.14614.21386-.22787.46515-.2355.72406-.0067.16757.02682.36196.08714.53624l3.35154 8.01014c.19439.5229.69042.8312 1.21326.8379.17428 0 .34856-.0335.51613-.1005l4.93344-2.0445c.328-.1343.5892-.3933.7262-.7201s.1386-.6947.0045-1.0227zm-9.48489-4.82618c-.17777 0-.34827-.07062-.47398-.19632-.1257-.12571-.19633-.29621-.19633-.47398 0-.17778.07063-.34828.19633-.47398.12571-.12571.29621-.19633.47398-.19633.36867 0 .67031.30164.67031.67031s-.30164.6703-.67031.6703zm-1.34061 7.37338c0 .3556.14124.6965.39265.948.25142.2514.59241.3926.94796.3926h.97195l-2.31256-5.59034z" fill="#E6DDFF"/>
</svg>
