<svg height="16" width="16" xmlns="http://www.w3.org/2000/svg">
  <g fill="#e6ddff" transform="translate(-462 -462)">
    <path d="m463.97 462c-1.0912 0-1.9688.87755-1.9688 1.9688v12.062c0 1.0912.87755 1.9688 1.9688 1.9688h12.031c.554 0 1-.446 1-1v-11c0-.554-.446-1-1-1h-12c-.554 0-1-.446-1-1s.446-1 1-1h12c0-.55856-.44144-1-1-1zm6.0312 4.0625c2.7267 0 4.9375 2.2079 4.9375 4.9375s-2.2108 4.9375-4.9375 4.9375-4.9375-2.2079-4.9375-4.9375 2.2108-4.9375 4.9375-4.9375zm0 1c-.63685 0-1.22.17421-1.75.4375l.71875 1.5c.31325-.1625.65582-.28125 1.0312-.28125s.718.11875 1.0312.28125l.71875-1.5c-.53005-.26329-1.1132-.4375-1.75-.4375zm-3.5 2.1875c-.26373.53017-.4375 1.1118-.4375 1.75 0 .64816.16599 1.245.4375 1.7812l1.5-.75c-.16256-.31326-.28125-.65563-.28125-1.0312 0-.36123.0989-.69568.25-1zm7.0312 0-1.5.75c.1511.30432.25.63877.25 1 0 .37562-.11869.71799-.28125 1.0312l1.5.75c.27151-.53622.4375-1.1331.4375-1.7812 0-.6332-.14638-1.2229-.40625-1.75zm-3.5312.46875c-.71682 0-1.2812.56221-1.2812 1.2812s.56443 1.2812 1.2812 1.2812 1.2812-.56221 1.2812-1.2812-.56443-1.2812-1.2812-1.2812zm1.0312 3.2812c-.31325.1625-.65582.28125-1.0312.28125-.36105 0-.6957-.099-1-.25l-.75 1.5c.52698.25944 1.1181.40625 1.75.40625.63685 0 1.22-.17421 1.75-.4375z"/>
    <path d="m470 467.03c-.64211 0-1.245.13662-1.7812.40625l.74229 1.5325c.39027-.17861.54899-.21178 1.0422-.24611.54638-.002.71942.13487 1.0266.23344l.72021-1.5198c-.53621-.26958-1.1079-.40625-1.75-.40625zm-3.5625 2.2188c-.26553.53901-.4375 1.1356-.4375 1.7812 0 .65895.19284 1.2653.46875 1.8125l1.5268-.77591c-.15799-.27948-.23673-.49585-.27949-1.0568.0432-.4966.0616-.47071.23058-.98785zm7.125 0-1.4968.74459c.15043.37094.19879.4814.22336 1.0093-.006.22936.0148.52961-.26718 1.0851l1.5093.75466c.27592-.54718.4375-1.1536.4375-1.8125 0-.64562-.14071-1.2422-.40625-1.7812zm-3.5349 4.0395c-.47463-.0401-.61731-.0296-1.012-.23332l-.79685 1.5688c.5362.26963 1.1391.4375 1.7812.4375s1.2138-.16787 1.75-.4375l-.74598-1.5666c-.39575.19501-.43347.17321-.9764.23109z"/>
    <path d="m231.12 273.97a3.5 3.9062 0 1 1 -7 0 3.5 3.9062 0 1 1 7 0z" transform="matrix(.36663 0 0 .3275 386.55 381.28)"/>
  </g>
</svg>
