<svg height="16" width="16" xmlns="http://www.w3.org/2000/svg">
  <path d="m6.9353133 1051.0517c-.298557-.058-.949956-.3045-1.447552-.548-.782875-.3831-1.175516-.7124-2.915421-2.4449-1.316653-1.3111-2.02616594-2.1063-2.05550394-2.3037-.08666-.5834.148039-1.022 1.01239494-1.8922l.86829-.8741-.746838-.7778c-.71273694-.7422-.81363194-.9551-.75026094-1.5827.03404-.3372.56730894-.8691.94332994-.941.486771-.093.868151.1096 1.653624.8786l.723777.7087.39866-.3375.398661-.3374-.250306-.9804c-.287573-1.1263-.240927-1.4654.259497-1.8865.845259-.7112 1.73882-.2076 2.118082 1.1938l.22503.8314h.58504.58504l.2911734-.8314c.497681-1.4212 1.3564423-1.8886 2.1865573-1.1901.516854.4349.55789.8115.202332 1.8569-.167375.4921-.290864.9018-.27442.9105.01644.01.213038.1646.436878.3463l.40698.3305.738999-.7085c.785193-.7528 1.2014-.9397 1.684078-.7562.52992.2015.804046.6066.804046 1.1883 0 .4861-.06192.5962-.716415 1.2733l-.716417.7413.957675.9811c.929991.9528.957675.9981.957675 1.5663v.585l-2.020542 2.0026c-1.742189 1.7268-2.145178 2.0637-2.925263 2.4456-1.3077193.6402-2.3469167.7988-3.6188807.5522zm3.3005937-2.2071c1.766728-.8644 2.463726-3.4248 1.46363-5.3767-1.266767-2.4722-4.7246877-2.9754-6.6339787-.9652l-.482517.508.580782-.4362c1.487488-1.1171 3.441027-1.007 4.7547314.2679 1.5769333 1.5304 1.1919443 4.0795-.751597 4.9766-2.0266664.9354-4.2591734-1.1437-3.3172824-3.0893.511737-1.0572 1.854145-1.5396 2.714756-.9757.1818614.1191.2902054.1512.2407644.071-.2731664-.442-1.7125684-.6327-2.3372984-.3096-.486541.2516-1.169208 1.0523-1.341039 1.573-.08182.2479-.125924.7665-.09801 1.1524.167082 2.3099 2.956529 3.7046 5.2070577 2.6036z" fill="#E6DDFF" transform="translate(0 -1036.3622)"/>
</svg>
