<svg height="22" width="22" xmlns="http://www.w3.org/2000/svg">
  <path d="m11 1.5c-2.982464 0-5.4359589 2.1562262-5.9101562 5h2.0488281c.4436922-1.7262966 1.9927781-3 3.8613281-3 2.216 0 4 1.784 4 4v2h2v-2c0-3.324-2.676-6-6-6z" opacity=".2"/>
  <path d="m11 1c-2.982464 0-5.4359589 2.1562262-5.9101562 5h2.0488281c.4436922-1.7262966 1.9927781-3 3.8613281-3 2.216 0 4 1.784 4 4v2h2v-2c0-3.324-2.676-6-6-6z" fill="#d2d2d2"/>
  <rect fill="#fe3c38" height="16" rx="1" transform="matrix(0 -1 -1 0 0 0)" width="12" x="-21" y="-19"/>
  <path d="m11 1c-2.982464 0-5.4359589 2.1562262-5.9101562 5h.1054687c.6638104-2.5919901 3.0000625-4.5 5.8046875-4.5 3.324 0 6 2.676 6 6v-.5c0-3.324-2.676-6-6-6z" fill="#fff" opacity=".2"/>
  <path d="m4 9c-.554 0-1 .446-1 1v.5c0-.554.446-1 1-1h14c.554 0 1 .446 1 1v-.5c0-.554-.446-1-1-1z" fill="#fff" opacity=".2"/>
  <path d="m3 11h16v7h-16z" fill="#fe6a6a"/>
  <path d="m3 20v.5c0 .554.446 1 1 1h14c.554 0 1-.446 1-1v-.5c0 .554-.446 1-1 1h-14c-.554 0-1-.446-1-1z" opacity=".2"/>
</svg>
