<svg height="22" width="22" xmlns="http://www.w3.org/2000/svg">
  <g transform="matrix(0 -1 -1 0 0 0)">
    <rect height="12" opacity=".2" rx="1" width="16" x="-20.5" y="-17"/>
    <rect fill="#8e8e8e" height="12" rx="1" width="16" x="-20" y="-17"/>
    <rect height="20" opacity=".2" rx="1" width="16" x="-18.5" y="-21"/>
    <rect fill="#4f4f4f" height="20" rx="1" width="16" x="-18" y="-21"/>
    <path d="m-16-19h12v16h-12z" fill="#e64b39"/>
  </g>
  <path d="m8 7.5v2h1v-2zm5 0v2h1v-2zm-5 4v1h1 4 1v-1h-1-4zm6 1v1h1v-1zm-6 0h-1v1h1z" opacity=".2"/>
  <g fill="#fff">
    <path d="m8 7v2h1v-2zm5 0v2h1v-2zm-5 4v1h1 4 1v-1h-1-4zm6 1v1h1v-1zm-6 0h-1v1h1z"/>
    <path d="m2 2c-.554 0-1 .446-1 1v.5c0-.554.446-1 1-1h18c.554 0 1 .446 1 1v-.5c0-.554-.446-1-1-1z" opacity=".1"/>
    <path d="m3 16h16v.5h-16z" opacity=".1"/>
  </g>
</svg>
