<svg height="22" width="22" xmlns="http://www.w3.org/2000/svg">
  <path d="m10.973 1.0003c-.473.0067-.92499.19765-1.2595.5322l-8.1805 8.1809c-.71054.71014-.71054 1.862 0 2.5721l8.1809 8.1814c.71014.71054 1.8619.71054 2.5721 0l8.1809-8.1814c.71054-.71014.71054-1.862 0-2.5721l-8.181-8.1814c-.347-.3476-.821-.53955-1.312-.5323z" fill="#64db2d" fill-rule="evenodd"/>
  <path d="m12 18.5h-2v-2h2zm2.07-7.7499-.89999.91999c-.72.73-1.17 1.33-1.17 2.83h-2v-.5c0-1.1.45-2.1 1.17-2.83l1.24-1.26c.37-.36.59-.85999.59-1.41 0-1.1-.89999-2-2-2s-2 .89999-2 2h-2c0-2.21 1.79-4 4-4s4 1.79 4 4c0 .87999-.36 1.68-.92999 2.25z" opacity=".2"/>
  <path d="m12 18h-2v-2h2zm2.07-7.7499-.89999.91999c-.72.73-1.17 1.33-1.17 2.83h-2v-.5c0-1.1.45-2.1 1.17-2.83l1.24-1.26c.37-.36.59-.85999.59-1.41 0-1.1-.89999-2-2-2s-2 .89999-2 2h-2c0-2.21 1.79-4 4-4s4 1.79 4 4c0 .87999-.36 1.68-.92999 2.25z" fill="#fff"/>
  <path d="m3 3h16v16h-16z" fill="none"/>
  <g fill-rule="evenodd">
    <path d="m10.973 1.0001c-.473.0067-.92499.19765-1.2595.53225l-8.1805 8.1819c-.4191.4187-.58512.9907-.5095 1.5357.0523-.379.2183-.745.5097-1.036l8.181-8.1817c.3348-.3343.7868-.5253 1.2598-.532.49141-.00726.96494.18474 1.3125.53225l8.1809 8.1819c.29141.29126.45738.65724.50975 1.0361.07558-.54515-.09046-1.117-.50975-1.5361l-8.181-8.1814c-.347-.3473-.821-.53925-1.312-.532z" fill="#fff" opacity=".2"/>
    <path d="m1.0235 11.25c-.075334.54494.090639 1.1172.50975 1.5361l8.1809 8.1809c.71014.71054 1.8621.71054 2.5722 0l8.1809-8.1809c.419-.419.585-.99099.5095-1.536-.0525.37865-.21853.74504-.50975 1.0361l-8.1809 8.1809c-.71014.71054-1.8621.71054-2.5722 0l-8.1808-8.181c-.2911-.291-.4571-.657-.5096-1.036z" opacity=".3"/>
  </g>
</svg>
