<svg height="22" width="22" xmlns="http://www.w3.org/2000/svg">
  <rect fill="#ffd453" height="20" rx="10" transform="matrix(0 -1 -1 0 0 0)" width="20" x="-21" y="-21"/>
  <path d="m545-355h2v9.0039h-2zm0 11.004h2v1.9961h-2z" opacity=".2" transform="translate(-535 360.5)"/>
  <path d="m545-355h2v9.0039h-2zm0 11.004h2v1.9961h-2z" fill="#3f3f3f" transform="translate(-535 360)"/>
  <path d="m11 1c-5.54 0-10 4.46-10 10 0 .084.004.166.0058.25.1324-5.423 4.5382-9.75 9.9942-9.75 5.4558 0 9.862 4.327 9.994 9.75.002-.08343.0059-.16606.0059-.25 0-5.54-4.46-10-10-10z" fill="#fff" opacity=".2"/>
  <path d="m1.0058 11.25c-.002.084-.0058.166-.0058.25 0 5.54 4.46 10 10 10s10-4.46 10-10c0-.084-.004-.1665-.006-.25-.132 5.423-4.538 9.75-9.994 9.75s-9.862-4.327-9.994-9.75z" opacity=".3"/>
</svg>
