<svg height="22" viewBox="0 0 22 22" width="22" xmlns="http://www.w3.org/2000/svg">
  <path d="m5.5 5.5v11h3.667v-11zm7.333 0v11h3.667v-11zm1.556-4.767c6.66 0 7.611.95 7.611 7.604v5.328c0 6.652-.951 7.602-7.611 7.602h-6.778c-6.66 0-7.611-.95-7.611-7.602v-5.328c0-6.654.951-7.604 7.611-7.604zm.007 2.058c.715 0 1.417.014 2.132.055.508.028 1.003.083 1.498.165.303.055.592.138.867.262.123.054.247.137.343.22.097.11.165.22.22.343.124.275.207.564.262.867.082.495.137.99.165 1.498.041.715.055 1.417.055 2.132v5.334.014c0 .702-.014 1.403-.055 2.118-.028.508-.083 1.004-.165 1.499-.055.302-.138.591-.262.866-.055.124-.123.234-.22.344-.096.082-.22.165-.343.22-.275.123-.564.206-.867.261-.495.082-.99.137-1.498.165-.715.041-1.417.055-2.132.055h-6.792c-.715 0-1.416-.014-2.131-.055-.509-.028-1.004-.083-1.499-.165-.303-.055-.591-.138-.866-.261-.124-.055-.248-.138-.344-.22-.096-.11-.165-.22-.22-.344-.124-.275-.206-.564-.262-.866-.082-.495-.137-.991-.164-1.499-.042-.715-.055-1.416-.055-2.118 0-.014 0-.014 0-.014v-5.334c0-.715.013-1.417.055-2.132.027-.508.082-1.003.164-1.498.056-.303.138-.592.262-.867.055-.123.124-.233.22-.343.096-.083.22-.166.344-.22.275-.124.563-.207.866-.262.495-.082.99-.137 1.499-.165.715-.041 1.416-.055 2.131-.055z" fill="#5c616c" fill-rule="evenodd"/>
</svg>
