<svg height="16" viewBox="0 0 16 16" width="16" xmlns="http://www.w3.org/2000/svg">
  <path d="m3 1.0097656c-1.108 0-2 .892-2 2v10.0000004c0 1.108.892 2 2 2h10c1.108 0 2-.892 2-2v-10.0000004c0-1.1082-.892-2-2-2zm3.0816406 1.9902344h.3183594v.7558594h-.3535156c-.472 0-.7783219.079175-.9199219.234375-.145.1517-.21875.4776156-.21875.9785156v1.3125c0 .5538-.074763.9546781-.2265625 1.2050781-.1517.2505-.4148625.4197125-.7890625.5078125.3742.0953.6373625.2690313.7890625.5195313.1518.2504.2265625.6509718.2265625 1.2011719v1.3125002c0 .505.07375.830422.21875.982422.1416.151.4479219.228515.9199219.228515h.3535156v.761719h-.3183594c-.8394 0-1.3998875-.129625-1.6796875-.390625-.2832-.261-.4238281-.7835-.4238281-1.5625v-1.2636719c0-.5326-.091438-.9008687-.2734375-1.1054687-.1821-.2046-1.4689344-.3066406-.9902344-.3066406h-.3144531v-.7578126h.3144531c.4787 0 .8081344-.099681.9902344-.3007812.182-.2046.2734375-.5701031.2734375-1.0957031v-1.2695313c0-.7796.1406281-1.2991406.4238281-1.5566406.2798-.261.8402875-.390625 1.6796875-.390625zm3.5183594 0h.3183594c.8395996 0 1.3996876.129625 1.6796876.390625.283.2575.423828.7770406.423828 1.5566406v1.2695313c0 .5256.09144.8911031.273437 1.0957031.182001.2011 1.469235.3007812.990235.3007812h.314453v.7578126h-.314453c-.479 0-.808234.1020406-.990235.3066406-.182.2046-.273437.5728687-.273437 1.1054687v1.2636719c0 .779-.140828 1.3015-.423828 1.5625-.28.261-.840088.390625-1.6796876.390625h-.3183594v-.761719h.3535156c.4720004 0 .7789214-.07752.9199224-.228515.144999-.152.218749-.477422.21875-.982422v-1.3125002c0-.5502001.07456-.9507719.226562-1.2011719.151-.2505.415062-.4242313.789062-.5195313-.374-.0881-.638062-.2573125-.789062-.5078125-.152-.2504-.226562-.6512781-.226562-1.2050781v-1.3125c0-.5009-.07375-.8268156-.21875-.9785156-.141001-.1552-.447922-.234375-.9199224-.234375h-.3535156z" fill="#474747"/>
</svg>
