<svg height="16" viewBox="0 0 16 16" width="16" xmlns="http://www.w3.org/2000/svg">
  <path d="m7 0v2h2v-2h-.5-1zm-3.9492188 1.6367188-.3476562.3476562-.015625-.015625-.71875.71875.015625.015625-.3476562.3476562 1.4140624 1.4140626 1.4140626-1.4140626zm9.8984378 0-1.414063 1.4140624 1.414063 1.4140626 1.414062-1.4140626-.347656-.3476562.015625-.015625-.71875-.71875-.015625.015625zm-4.949219 1.3632812c-2.7614 0-5 2.2386-5 5s2.2386 5 5 5 5-2.2386 5-5-2.2386-5-5-5zm0 2v6a3 3 0 0 1 -3-3 3 3 0 0 1 3-3zm-8 2v.5 1 .5h2v-2zm14 0v2h2v-.5-1-.5zm-10.9492188 4.535156-1.4140624 1.414063.3476562.347656-.015625.015625.71875.71875.015625-.015625.3476562.347656 1.4140626-1.414062zm9.8984378 0-1.414063 1.414063 1.414063 1.414062.347656-.347656.015625.015625.71875-.71875-.015625-.015625.347656-.347656zm-5.949219 2.464844v2h.5 1 .5v-2z" fill="#474747"/>
</svg>
