<svg fill="none" height="16" viewBox="0 0 16 16" width="16" xmlns="http://www.w3.org/2000/svg" xmlns:xlink="http://www.w3.org/1999/xlink">
  <defs>
    <clipPath id="clip0">
      <path d="m0 0h16v16h-16z"/>
    </clipPath>
  </defs>
  <g clip-path="url(#clip0)" fill="#444">
    <rect height="16" rx=".5" width="2" x="5.25"/>
    <path d="m4.25 0h4v4h-4z"/>
    <path d="m4.25 6h4v4h-4z"/>
    <path d="m4.25 12h4v4h-4z"/>
    <path clip-rule="evenodd" d="m9.75 2.25h-8.25c-.41421 0-.75-.33579-.75-.75s.33579-.75.75-.75h8.25c1.5188 0 2.75 1.23122 2.75 2.75v2.5c0 1.51878-1.2312 2.75-2.75 2.75h-7c-.69036 0-1.25.55964-1.25 1.25v2c0 .6904.55964 1.25 1.25 1.25h7.75c.4142 0 .75.3358.75.75s-.3358.75-.75.75h-7.75c-1.51878 0-2.75-1.2312-2.75-2.75v-2c0-1.51878 1.23122-2.75 2.75-2.75h7c.6904 0 1.25-.55964 1.25-1.25v-2.5c0-.69036-.5596-1.25-1.25-1.25z" fill-rule="evenodd"/>
    <path d="m15 3h3v1h-3z" transform="matrix(0 1 -1 0 18 -12)"/>
    <path d="m13 3 3 .00192v-.15157-.01568c.0003-.02925-.0116-.05817-.0375-.08365l-1.2-1.17149c-.0516-.052-.157-.0785-.2625-.07857s-.2109.0263-.2625.07823l-1.2 1.16996c-.0259.02544-.0379.05435-.0375.0836v.01568z"/>
    <path d="m13 6 3-.00192v.15157.01568c.0003.02925-.0116.05817-.0375.08365l-1.2 1.17149c-.0516.052-.157.0785-.2625.07857s-.2109-.0263-.2625-.07823l-1.2-1.16996c-.0259-.02544-.0379-.05435-.0375-.0836v-.01568z"/>
    <path d="m15 10h3v1h-3z" transform="matrix(0 1 -1 0 25 -5)"/>
    <path d="m13 10 3 .0019v-.15155-.01568c.0003-.02925-.0116-.05817-.0375-.08365l-1.2-1.17149c-.0516-.052-.157-.0785-.2625-.07857s-.2109.0263-.2625.07823l-1.2 1.16996c-.0259.02544-.0379.05435-.0375.0836v.01568z"/>
    <path d="m13 13 3-.0019v.1515.0157c.0003.0293-.0116.0582-.0375.0837l-1.2 1.1715c-.0516.052-.157.0785-.2625.0785-.1055.0001-.2109-.0263-.2625-.0782l-1.2-1.17c-.0259-.0254-.0379-.0543-.0375-.0836v-.0156z"/>
  </g>
</svg>
