<svg height="16" width="16" xmlns="http://www.w3.org/2000/svg">
  <path d="m8 1.031a6.963 6.963 0 0 0 -6.969 6.969 6.963 6.963 0 0 0 6.969 6.969 6.963 6.963 0 0 0 6.969-6.969 6.963 6.963 0 0 0 -6.969-6.969zm-3 3.969h1.031c.255.011.51.129.688.313l1.281 1.28 1.312-1.28c.266-.231.447-.306.688-.313h1v1c0 .286-.034.55-.25.75l-1.281 1.281 1.25 1.25c.188.188.281.454.281.719v1h-1c-.265 0-.53-.093-.719-.281l-1.281-1.281-1.281 1.28a1.015 1.015 0 0 1 -.719.282h-1v-1c0-.265.093-.53.281-.719l1.281-1.25-1.28-1.281a.909.909 0 0 1 -.282-.75z" fill="#474747"/>
</svg>
