<svg height="16" width="16" xmlns="http://www.w3.org/2000/svg">
  <path d="m8 1a7 7 0 0 0 -7 7 7 7 0 0 0 7 7 7 7 0 0 0 7-7 7 7 0 0 0 -7-7zm-3 4h1c.28 0 .5407.1002.7207.2812l1.2793 1.2774 1.2793-1.2774c.18-.181.4407-.2812.7207-.2812h1v1c0 .276-.099.5377-.279.7188l-1.2815 1.2812 1.2815 1.2812c.18.1809.279.4427.279.7188v1h-1c-.28 0-.5407-.1-.7207-.281l-1.2793-1.2854-1.2793 1.2854c-.18.181-.4407.281-.7207.281h-1v-1c0-.2761.0993-.5378.2793-.7188l1.2812-1.2812-1.2812-1.2812c-.18-.1811-.2793-.4428-.2793-.7188z" fill="#474747"/>
</svg>
