<svg height="16" viewBox="0 0 16 16" width="16" xmlns="http://www.w3.org/2000/svg" xmlns:xlink="http://www.w3.org/1999/xlink">
  <defs>
    <linearGradient id="lg1">
      <stop id="stop3948" offset="0" stop-opacity=".746988"/>
      <stop id="stop3950" offset="1" stop-opacity=".024096"/>
    </linearGradient>
    <linearGradient id="linearGradient3946" xlink:href="#lg1"/>
    <linearGradient id="linearGradient3830-9" xlink:href="#lg1"/>
    <linearGradient id="linearGradient3984">
      <stop id="stop3986" offset="0" stop-color="#f4deba"/>
      <stop id="stop3988" offset="1" stop-color="#de9625" stop-opacity="0"/>
    </linearGradient>
  </defs>
  <g fill="#444" transform="translate(-32.799327 -219.477716)">
    <path d="m42.723641 222.79258 2.849138 2.84914c.386003.386.386003 1.00751.000007 1.3935l-.727817.72782c-.385996.386-1.0075.386-1.393503-.00001l-2.849138-2.84914c-.386003-.386-.385996-1.0075 0-1.39349l.727818-.72782c.385995-.38599 1.007493-.386 1.393495 0z"/>
    <path d="m45.972733 221.21311 1.179511 1.17951c.391737.39174.391737 1.02248-.000007 1.41422l-1.707154 1.70715c-.391737.39174-1.022476.39174-1.414214 0l-1.17951-1.17951c-.391737-.39173-.391737-1.02247 0-1.41421l1.707154-1.70715c.391744-.39175 1.022483-.39175 1.41422-.00001z"/>
    <g opacity=".658" transform="matrix(.70710678 .70710678 -.70710678 .70710678 173.049725 37.925688)">
      <path d="m39.32657 226.74786 2.3972.00002-.28795 8.82117-1.93785-.0207z"/>
      <circle cx="40.457" cy="235.507" r=".974"/>
    </g>
    <path d="m35.77869 231.00061-1.226806 1.27624a.97447307.97447307 0 0 0 -.113526.0952.97447307.97447307 0 0 0 0 1.37878.97447307.97447307 0 0 0 1.333008.0421l.0055.005 2.98645-2.79785z"/>
  </g>
</svg>
