<svg height="16" width="16" xmlns="http://www.w3.org/2000/svg">
  <g fill="#444" transform="translate(-277.00061 35)">
    <path d="m279.00061-21v1h12v-1z"/>
    <path d="m284.66798-33.066904c-2.49506-.0086-3.86118 1.68806-3.81426 3.367685.0625 2.2375 1.74084 2.66559 2.80468 2.945313 1.66429.437603 3.53125.345971 3.53125 1.453125 0 .76802-.94672 1.285004-1.89537 1.38465-1.20409.126478-2.01137-.261635-2.83314-.987821-.18795-.194251-.44651-.30416-.7168-.304688-.89793-.0032-1.34486 1.086778-.70312 1.714844 1.21683 1.314057 2.63595 1.644224 3.88633 1.600374 4.01554-.140821 4.46132-2.315502 4.46132-3.40736-.0344-2.3375-1.8956-2.985043-4.40625-3.169922-1.4541-.107077-2.09961-.408624-2.09961-1.228516 0-.819891.6998-1.369068 2.03516-1.359375 1.33536.0097 1.97993.250604 2.2793.654297.78507 1.12927 2.45883-.112816 1.60546-1.191406-.79472-1.071663-1.63989-1.462583-4.13495-1.4712z" fill-rule="evenodd"/>
  </g>
</svg>
