<svg height="16" width="16" xmlns="http://www.w3.org/2000/svg">
  <path d="m1.78 1.72a1 1 0 0 0 -.406 1.78l5 4 .626.5.625-.5 5-4a1 1 0 1 0 -1.25-1.562l-4.375 3.5-4.375-3.5a1 1 0 0 0 -.843-.219z" fill="#474747"/>
  <path d="m.813 1a1.034 1.034 0 0 0 -.813 1v9c0 .524.477 1 1 1h6v-2h-5v-7h10v4h2v-5c0-.523-.476-1-1-1h-12a1.478 1.478 0 0 0 -.094 0 1.478 1.478 0 0 0 -.093 0z" fill="#474747"/>
  <path class="warning" d="m8.87 8a.863.863 0 0 0 -.876.875v6.25c0 .492.383.875.875.875h6.25a.863.863 0 0 0 .875-.875v-6.25a.863.863 0 0 0 -.874-.875zm2.124 1h2v2.5s0 .5-.5.5h-1c-.5 0-.5-.5-.5-.5zm.5 4h1c.277 0 .5.223.5.5v1c0 .277-.223.5-.5.5h-1a.499.499 0 0 1 -.5-.5v-1c0-.277.223-.5.5-.5z" fill="#f57900"/>
</svg>
