<svg height="16" width="16" xmlns="http://www.w3.org/2000/svg">
  <g fill="#474747">
    <path d="m6.97 4a1 1 0 0 0 -.484.143l-5 3a1 1 0 0 0 0 1.714l5 3a1 1 0 0 0 1.514-.857v-6a1 1 0 0 0 -1.03-1zm-.97 2.766v2.468l-2.057-1.234z"/>
    <path d="m7 11h1v1h-1zm0-7h1v1h-1z"/>
    <path d="m13.97 4a1 1 0 0 0 -.484.143l-5 3a1 1 0 0 0 0 1.714l5 3a1 1 0 0 0 1.514-.857v-6a1 1 0 0 0 -1.03-1zm-.97 2.766v2.468l-2.057-1.234z"/>
    <path d="m14 11h1v1h-1zm0-7h1v1h-1zm-7 1-5 3 5 3zm7 0-5 3 5 3z"/>
  </g>
</svg>
