<svg height="16" width="16" xmlns="http://www.w3.org/2000/svg">
  <g fill="#474747">
    <path d="m9.04 4a1 1 0 0 0 -1.04 1v6a1 1 0 0 0 1.514.857l5-3a1 1 0 0 0 0-1.714l-5-3a1 1 0 0 0 -.474-.143zm.96 2.768 2.055 1.232-2.055 1.232z"/>
    <path d="m9 11h-1v1h1zm0-7h-1v1h1z"/>
    <path d="m2.04 4a1 1 0 0 0 -1.04 1v6a1 1 0 0 0 1.514.857l5-3a1 1 0 0 0 0-1.714l-5-3a1 1 0 0 0 -.474-.143zm.96 2.768 2.055 1.232-2.055 1.232z"/>
    <path d="m2 11h-1v1h1zm0-7h-1v1h1zm7 1 5 3-5 3zm-7 0 5 3-5 3z"/>
  </g>
</svg>
