<svg height="16" width="16" xmlns="http://www.w3.org/2000/svg">
  <g transform="translate(-275 -371)">
    <path d="m280.10761 375.62639c-1.93855 0-3.51187 1.52035-3.51187 3.39361 0 1.8733 1.57332 3.39365 3.51187 3.39365 1.93854 0 3.51186-1.52035 3.51186-3.39365 0-1.87326-1.57332-3.39361-3.51186-3.39361zm5.9492 1.21563c-1.34541 0-2.43733 1.33881-2.43734 2.98842 0 1.6496 1.09193 2.98841 2.43734 2.98841 1.34542 0 2.43733-1.33881 2.43734-2.98841 0-1.64961-1.09192-2.98842-2.43734-2.98842z" fill="none" stroke="#474747" stroke-linecap="round" stroke-width="1.191489"/>
    <g fill="#474747">
      <circle cx="280" cy="375.5" r="2"/>
      <circle cx="280" cy="382" r="2"/>
      <circle cx="288" cy="380" r="2"/>
    </g>
  </g>
</svg>
