<svg height="16" viewBox="0 0 16 16" width="16" xmlns="http://www.w3.org/2000/svg">
  <path d="m15.496094.99609375a.50005.50005 0 0 0 -.488282.46093745c-.390859 4.1341001-2.236415 6.8007719-5.1035151 8.9511718l-2.3261719-2.3261718c-.12184-.62281-.27381-1.2624749-.5-1.921875-.45294-1.3204-1.1389781-2.6036593-2.2050781-3.5683593-1.0661-.96465-2.5172469-1.5878907-4.3730469-1.5878907a.50005.50005 0 1 0 0 1c1.638 0 2.8050719.5192282 3.7011719 1.3300782.89607.81083 1.5153406 1.9367906 1.9316406 3.1503906.26588.77507.4268713 1.5656375.5507813 2.3359375l-2.6835938 2.6835935 3.5 3.5 3.5-3.5-.351562-.351562c2.968999-2.2988002 4.944368-5.2535628 5.355468-9.6015628a.50005.50005 0 0 0 -.507812-.55468745z" fill="#474747"/>
</svg>
