<svg height="16" viewBox="0 0 16 16" width="16" xmlns="http://www.w3.org/2000/svg">
  <path d="m4.9042969-.03125v.09765625c-1.352-.14162-2.4685907.1833025-3.2753907.8203125-.81566995.64410005-1.30506558 1.57731255-1.50976558 2.57031245-.29377999 1.4258-.02180374 3.0095969.78515626 4.2167969v3.2949219h4.00000002v-1.1621094c.6603.088 1.3430687.1405332 2.0429687.1582032-.004.2152102-.0172781.4443472-.0175781.6542972-.002 1.3957.0770975 2.656128.5546875 3.611328.89515 1.7903 2.700522 2.086125 4.419922 1.578125v.160156h4v-3.773438c.18457-.71537.103351-1.454378-.355469-2.142578-.48313-.7246896-1.394706-.9214577-2.441406-1.0175778-1.0466-.09609-2.298263-.0556637-3.6015626-.0273437-.51656.01122-1.01125-.0341694-1.53125-.0371094.032-.89938.0655656-1.7832594.0722656-2.6933593.006-.8010001-.0208019-1.5773938-.1074219-2.3085938h.9648438v-4zm-.8789063 1.0664062c.25019-.01421.5201869-.0070993.8105469.0253907.026.0029.0429594.0140781.0683594.0175781v2.890625h2.0214843c.0908.69764.1271238 1.4758813.1210938 2.3007812-.006.8769401-.0402656 1.7767344-.0722656 2.6777344-.72619-.0272-1.4213125-.0826012-2.0703125-.1757812v-1.8027344h-3.2441407c-.5689199-.9567-.79011995-2.2059469-.5625-3.3105469.16607-.80593.5504407-1.5126281 1.1503907-1.9863281.44995-.35528 1.0268437-.5940988 1.7773437-.6367188zm7.3808594 8.9394532c.59016-.000966 1.135875.0131806 1.609375.0566406.94689.08693 1.536672.329522 1.701172.576172.27437.41156.298476.882878.160156 1.361328h-2.972656v2.802734c-1.3652.52037-2.8210907.420329-3.5253908-.988281-.32863-.65726-.4508687-1.816709-.4492187-3.162109.00024-.19843.0134781-.434925.0175781-.6406252.53213-.0029001 1.0616781.0366502 1.5800782.0253902.6541802-.0142096 1.2887062-.0302796 1.8789062-.0312496z" fill="#474747"/>
</svg>
