<svg height="16" viewBox="0 0 16 16" width="16" xmlns="http://www.w3.org/2000/svg">
  <g fill="#474747">
    <path d="m2 2v2.9960938h-.9921875v.0097656h.9921875v8.9941406h12v-1h-11v-7.9941406h4.46875l-3 3h-1.4609375v1h1.875l4.1230469-4.1230469 2.1230466 2.1230469.00586-.0039063.003906.0039063 2.828125-2.828125c.003.005-.707031-.7070313-.707031-.7070313l-2.125 2.125-2.1269535-2.125-.0019531.0019531-.0019532-.0019531-1.5273437 1.5253907h-4.4765625v-2.9960938zm5.5996094 7-2 2h-2.59375v1h3v-.007812l.0078125.007812 2-2h1.5917969l2.0000002 2h2.40039v-1h-1.986328l-2-2h-1.4140622z"/>
    <path d="m13.46 3.67-2.32 2.331-.004-.004-.006.004-2.123-2.123-4.123 4.123h-1.875v5h11v-8.778z" opacity=".5"/>
  </g>
</svg>
