<svg height="16" width="16" xmlns="http://www.w3.org/2000/svg">
  <path d="m5.3261719 0c-1.67759.0195-2.9064963-.04015813-3.9101563.51367188-.50182995.27685999-.89762746.74519812-1.11718748 1.33007812-.21956.58488-.29882812 1.27944-.29882812 2.15625v8c0 .87681.07924813 1.57137.29882812 2.15625.21956002.58488.61535753 1.053218 1.11718748 1.330078 1.00366.55376 2.2325663.494242 3.9101563.513672h.0039062 5.3398439.003906c1.67759-.0195 2.904543.04016 3.908203-.513672.50183-.27686.897628-.745198 1.117188-1.330078.219982-.58488.300781-1.27944.300781-2.15625v-8c0-.87681-.079248-1.57136-.298828-2.15625-.21955-.58488-.615358-1.05319813-1.117188-1.33007812-1.00366-.55379-2.232556-.49431188-3.910156-.51367188h-.003906-2.0039064-3.3359375zm7.8066401 2.7714844c.673476.1265709 1.135165 1.1176894.638672 1.6582031l-6.9999996 8.0000005-.6875.8125-.78125-.75-3-3.0000005c-.37638-.37633-.37635-1.06114 0-1.4375.37636-.37635 1.06117-.37638 1.4375 0l2.25 2.2500005 6.2812496-7.1875005c.14191-.17322.34362-.29645.5625-.34375.102709-.0210687.202618-.0200347.298828-.0019531z" fill="#76c22b"/>
</svg>
