<svg height="16" viewBox="0 0 16 16" width="16" xmlns="http://www.w3.org/2000/svg">
  <path d="m14.501953.94726562c-.682 0-1.24964.45816128-1.431641 1.08203128-5.3259995 1.1005-10.0363745 4.6579812-10.9843745 10.9882811-.6139.187-1.0644531.753688-1.0644531 1.429688 0 .829.6708469 1.5 1.4980468 1.5.8272 0 1.4980469-.671 1.4980469-1.5 0-.626-.3832344-1.162719-.9277343-1.386719.3728-2.376 1.2989156-4.3091907 2.6035156-5.8378908 1.3998 1.4257001 2.2839062 2.9257188 2.5039062 4.1367188.2244 1.236-.088875 2.284641-.984375 3.181641l.7050782.707031c1.1014-1.103 1.5366187-2.554359 1.2617187-4.068359-.2702-1.4887005-1.3081-3.1557943-2.8125-4.6835942.1711-.1676001.3524031-.3242688.5332031-.4804688 1.4696 1.4099 2.9584782 2.2876281 4.3925784 2.5488281 1.512.2752 2.958547-.1605719 4.060547-1.2636719l-.705078-.7070312c-.895.8968-1.943735 1.2110281-3.177735.9863281-1.141-.2078-2.4444968-.9411593-3.7792968-2.1933593 1.5823001-1.1458 3.4475468-1.9188032 5.4355468-2.3457032.23.5332.758.90625 1.375.90625.827 0 1.498047-.6716 1.498047-1.5 0-.8285-.671047-1.49999998-1.498047-1.49999998z" fill="#474747"/>
</svg>
