<svg height="16" viewBox="0 0 16 16" width="16" xmlns="http://www.w3.org/2000/svg">
  <path d="m8 0c-.48646 1.7025-1.6626 3.17195-2.1875 4.34375-.1837.3484-.3125.7336-.3125 1.15625 0 1.385 1.115 2.5 2.5 2.5s2.5-1.115 2.5-2.5c0-.4227-.0975-.8079-.28125-1.15625-.52491-1.1718-1.73225-2.64115-2.21875-4.34375zm-4.5 8c-.48646 1.7025-1.6626 3.17195-2.1875 4.34375-.1837.3484-.3125.7336-.3125 1.15625 0 1.385 1.115 2.5 2.5 2.5s2.5-1.115 2.5-2.5c0-.4227-.0975-.8079-.28125-1.15625-.52491-1.1718-1.73225-2.64115-2.21875-4.34375zm9 0c-.48646 1.7025-1.6626 3.17195-2.1875 4.34375-.1837.3484-.3125.7336-.3125 1.15625 0 1.385 1.115 2.5 2.5 2.5s2.5-1.115 2.5-2.5c0-.4227-.0975-.8079-.28125-1.15625-.52491-1.1718-1.73225-2.64115-2.21875-4.34375z" fill="#474747"/>
</svg>
