<svg height="16" viewBox="0 0 16 16" width="16" xmlns="http://www.w3.org/2000/svg">
  <path d="m7 1v1.0859375c-.8906.1527-1.7351031.5045969-2.4707031 1.0292969l-.7714844-.7714844-1.4140625 1.4140625.7695312.7695313c-.523.7366999-.8727374 1.5818562-1.0234374 2.4726562h-1.0898438v2h1.0859375c.1527.8906.5045969 1.734703 1.0292969 2.470703l-.7714844.771485 1.4140625 1.414062.7695313-.769531c.7366999.523 1.5818562.873437 2.4726562 1.023437v1.089844h2v-1.085938c.8906-.153 1.734703-.504296 2.470703-1.029296l.771485.771484 1.414062-1.414062-.769531-.769532c.523-.737.873437-1.581856 1.023437-2.472656h1.089844v-2h-1.085938c-.153-.8906-.504296-1.7351031-1.029296-2.4707031l.771484-.7714844-1.414062-1.4140625-.769532.7695312c-.737-.523-1.581856-.8727374-2.472656-1.0234374v-1.0898438zm-1 4h5v3.5l-2.5 2.5h-2.5z" fill="#474747"/>
</svg>
