<svg height="16" viewBox="0 0 16 16" width="16" xmlns="http://www.w3.org/2000/svg">
  <path d="m7 1v1.0859375a6 6 0 0 0 -2.4707031 1.0292969l-.7714844-.7714844-1.4140625 1.4140625.7695312.7695313a6 6 0 0 0 -1.0234374 2.4726562h-1.0898438v2h1.0859375a6 6 0 0 0 1.0292969 2.470703l-.7714844.771485 1.4140625 1.414062.7695313-.769531a6 6 0 0 0 2.4726562 1.023437v1.089844h2v-1.085938a6 6 0 0 0 2.470703-1.029296l.771485.771484 1.414062-1.414062-.769531-.769532a6 6 0 0 0 1.023437-2.472656h1.089844v-2h-1.085938a6 6 0 0 0 -1.029296-2.4707031l.771484-.7714844-1.414062-1.4140625-.769532.7695312a6 6 0 0 0 -2.472656-1.0234374v-1.0898438zm-1 5 4 2-4 2z" fill="#474747"/>
</svg>
