<svg height="16" viewBox="0 0 16 16" width="16" xmlns="http://www.w3.org/2000/svg">
  <path d="m1.0195312 1.5a.50005.50005 0 0 0 -.0507812.0019531.50005.50005 0 0 0 -.03320312.9960938s3.68612812.5131412 6.29882812 2.1757812c1.3064.83132 2.3077406 1.9094125 2.5566406 3.3203125.2248504 1.2741-.1579156 2.9106124-1.6660156 5.0078124h-1.1230469v3h2.9999999v-1.667969c2.3593-.3912 3.767556-1.448421 4.535156-2.544922.9648-1.378299.964844-2.7871089.964844-2.7871089a.50005.50005 0 1 0 -1 0s.000044 1.0911909-.785156 2.2128909c-.58758.8394-1.776444 1.604484-3.714844 1.958984v-.171875h-.8222655c1.2820005-1.9752 1.8515035-3.7302874 1.5957035-5.1796874-.31352-1.7766-1.5621597-3.0734875-3.0058598-3.9921875-2.8872999-1.8374-6.7011718-2.3242187-6.7011718-2.3242187a.50005.50005 0 0 0 -.0488282-.0058594z" fill="#474747"/>
</svg>
