<svg fill="none" height="16" viewBox="0 0 16 16" width="16" xmlns="http://www.w3.org/2000/svg">
  <defs>
    <clipPath id="clip0">
      <path d="m0 0h16v16h-16z"/>
    </clipPath>
  </defs>
  <path d="m11.1215 7.13885c.1442-.21362.3418-.38718.5928-.52069.2563-.13351.5474-.20027.8732-.20027.3791 0 .7209.09346 1.0253.28037.3098.18692.5528.45394.729.80107.1816.34179.2724.73965.2724 1.19359s-.0908.85715-.2724 1.20962c-.1762.34716-.4192.61686-.729.80906-.3044.1923-.6462.2884-1.0253.2884-.3312 0-.6222-.0641-.8732-.1923-.2457-.1335-.4433-.3044-.5928-.5126v.6328h-1.1215v-5.9279h1.1215zm2.3471 1.55407c0-.26702-.056-.49666-.1682-.68891-.1068-.1976-.251-.34713-.4326-.4486-.1762-.10147-.3685-.15221-.5767-.15221-.203 0-.3952.05341-.5768.16022-.1762.10147-.3204.251-.4326.4486-.1068.19759-.1602.4299-.1602.69693 0 .26702.0534.49933.1602.69692.1122.1976.2564.3498.4326.45661.1816.10147.3738.15222.5768.15222.2082 0 .4005-.05342.5767-.16023.1816-.10681.3258-.25901.4326-.45661.1122-.19759.1682-.43257.1682-.70494z" fill="#444"/>
  <path d="m1 8.73427c0-.44056.08654-.8313.25962-1.17221.17832-.34091.41695-.60314.7159-.78671.3042-.18357.64249-.27535 1.01486-.27535.32518 0 .6084.06556.84966.19668.2465.13112.44318.29633.59003.49563v-.62151h1.10927v4.3584h-1.10927v-.6372c-.14161.2045-.33829.375-.59003.5113-.24651.1311-.53235.1967-.85752.1967-.36714 0-.7028-.0944-1.007-.2832-.29895-.1888-.53758-.4537-.7159-.7946-.17308-.34615-.25962-.74213-.25962-1.18793zm3.43007.01573c0-.26748-.05245-.49563-.15734-.68444-.1049-.19406-.24651-.34091-.42483-.44056-.17832-.10489-.36975-.15734-.5743-.15734-.20454 0-.39336.04982-.56643.14947-.17308.09965-.31469.24651-.42483.44056-.10489.18881-.15734.41434-.15734.67658 0 .26223.05245.493.15734.6923.11014.19406.25175.34354.42483.44843.17832.1049.36713.1573.56643.1573.20455 0 .39598-.04978.5743-.14943.17832-.1049.31993-.25175.42483-.44056.10489-.19406.15734-.42483.15734-.69231z" fill="#444"/>
  <g fill="#ff7800">
    <path d="m7 0h2v16h-2z"/>
    <path d="m-14 8h2v8.028h-2z" transform="rotate(-90)"/>
  </g>
</svg>
