<svg fill="none" height="16" viewBox="0 0 16 16" width="16" xmlns="http://www.w3.org/2000/svg">
  <defs>
    <clipPath id="clip0">
      <path d="m0 0h16v16h-16z"/>
    </clipPath>
  </defs>
  <path d="m4.50002 0 4.93394.0311837-.0019.3014033-.0002.03118c.00012.058175-.01988.115545-.06273.165902l-1.98829 2.315611c-.08546.1028-.25925.15427-.4327.15317-.17346-.0011-.34658-.05476-.43074-.15863l-1.95886-2.340555c-.04224-.050895-.06164-.108513-.06063-.166682l.0002-.031179z" fill="#1c71d8"/>
  <path d="m11 4.00002v7.99998h.5052.0523c.0975.0008.1939-.0311.2787-.1l3.9025-3.2c.1732-.13751.2613-.41876.2613-.7 0-.28123-.0881-.56248-.2613-.69999l-3.9025-3.19999c-.0848-.069-.1812-.10104-.2787-.1h-.0523z" fill="#444"/>
  <path d="m0 5h3v6h-3z" fill="#444"/>
  <path d="m4.5 4.6c0-.33137.26863-.6.6-.6h3.8c.33137 0 .6.26863.6.6v3.8c0 .33137-.26863.6-.6.6h-3.8c-.33137 0-.6-.26863-.6-.6z" fill="#1c71d8"/>
</svg>
