<svg fill="none" height="16" viewBox="0 0 16 16" width="16" xmlns="http://www.w3.org/2000/svg">
  <defs>
    <clipPath id="clip0">
      <path d="m0 0h16v16h-16z"/>
    </clipPath>
  </defs>
  <path d="m4.41421 6.58579 1.41422 1.41421-1.41422 1.41421 1.41422 1.41419 1.41421-1.41419 1.41421 1.41419 1.41425-1.41419-1.41425-1.41421 1.41425-1.41421-1.41425-1.41422-1.41421 1.41422-1.41421-1.41422z" fill="#e01b24"/>
  <g fill="#444">
    <path d="m16 4.00002v7.99998h-.5052-.0523c-.0975.0008-.1939-.0311-.2787-.1l-3.9025-3.2c-.1732-.13751-.2613-.41876-.2613-.7 0-.28123.0881-.56248.2613-.69999l3.9025-3.19999c.0848-.069.1812-.10104.2787-.1h.0523z"/>
    <path d="m0 5h3v6h-3z"/>
  </g>
</svg>
