<svg height="22" width="22" xmlns="http://www.w3.org/2000/svg" xmlns:xlink="http://www.w3.org/1999/xlink">
  <linearGradient id="linearGradient3605" gradientTransform="matrix(-.86605 -.49995 -.49995 .86605 27.392 6.6067)" gradientUnits="userSpaceOnUse" x1="7" x2="19" y1="12" y2="5">
    <stop offset="0" stop-color="#444" stop-opacity=".5"/>
    <stop offset="1" stop-color="#444" stop-opacity="0"/>
  </linearGradient>
  <linearGradient id="linearGradient3611" gradientTransform="matrix(.86605 .49995 .49995 -.86605 -5.3919 15.393)" gradientUnits="userSpaceOnUse" x1="7" x2="17" y1="12" y2="12">
    <stop offset="0" stop-color="#444"/>
    <stop offset="1" stop-color="#444" stop-opacity=".5"/>
  </linearGradient>
  <path d="m4.9378 7.5002c-1.9328 3.3478-.7855 7.6288 2.5627 9.5618 3.3485 1.933 7.6295.786 9.5615-2.562l-1.733-1c-1.38 2.391-4.438 3.211-6.8298 1.83-2.3915-1.38-3.211-4.438-1.8305-6.8298.65-1.1258-1.0821-2.1257-1.7321-.9999z" fill="url(#linearGradient3611)"/>
  <path d="m4.9378 7.5002 1.7321.99991c1.3806-2.3915 4.4385-3.2111 6.83-1.8305s3.2111 4.4385 1.8305 6.83l1.7321.99991c1.933-3.348.786-7.6295-2.562-9.5624-3.348-1.9328-7.6295-.7854-9.5624 2.5627z" fill="url(#linearGradient3605)"/>
</svg>
