<svg height="22" width="22" xmlns="http://www.w3.org/2000/svg" xmlns:xlink="http://www.w3.org/1999/xlink">
  <linearGradient id="linearGradient3605" gradientTransform="matrix(-.99831 .058191 .058191 .99831 22.281 -1.6778)" gradientUnits="userSpaceOnUse" x1="7" x2="19" y1="12" y2="5">
    <stop offset="0" stop-color="#444" stop-opacity=".5"/>
    <stop offset="1" stop-color="#444" stop-opacity="0"/>
  </linearGradient>
  <linearGradient id="linearGradient3611" gradientTransform="matrix(.99831 -.058191 -.058191 -.99831 -.28129 23.678)" gradientUnits="userSpaceOnUse" x1="7" x2="17" y1="12" y2="12">
    <stop offset="0" stop-color="#444"/>
    <stop offset="1" stop-color="#444" stop-opacity=".5"/>
  </linearGradient>
  <path d="m4.012 11.407c.22497 3.8594 3.536 6.8058 7.3955 6.5808 3.8594-.22497 6.8058-3.536 6.5808-7.3955l-1.9966.11638c.16069 2.7567-1.9439 5.1218-4.7006 5.2825-2.7558.162-5.1208-1.942-5.2815-4.699-.0757-1.298-2.0723-1.181-1.9966.116z" fill="url(#linearGradient3611)"/>
  <path d="m4.012 11.407 1.9966-.116c-.1607-2.7568 1.9438-5.1218 4.7005-5.2825 2.7567-.16069 5.1218 1.9439 5.2825 4.7006l1.9966-.11638c-.226-3.8598-3.537-6.8061-7.396-6.5811-3.8598.2249-6.8061 3.536-6.5811 7.3951z" fill="url(#linearGradient3605)"/>
</svg>
