<svg height="22" width="22" xmlns="http://www.w3.org/2000/svg" xmlns:xlink="http://www.w3.org/1999/xlink">
  <linearGradient id="linearGradient3605" gradientTransform="matrix(.43366 -.90108 -.90108 -.43366 16.609 27.017)" gradientUnits="userSpaceOnUse" x1="7" x2="19" y1="12" y2="5">
    <stop offset="0" stop-color="#444" stop-opacity=".5"/>
    <stop offset="1" stop-color="#444" stop-opacity="0"/>
  </linearGradient>
  <linearGradient id="linearGradient3611" gradientTransform="matrix(-.43366 .90108 .90108 .43366 5.3906 -5.0168)" gradientUnits="userSpaceOnUse" x1="7" x2="17" y1="12" y2="12">
    <stop offset="0" stop-color="#444"/>
    <stop offset="1" stop-color="#444" stop-opacity=".5"/>
  </linearGradient>
  <path d="m11.342 4.0059c-2.7253-.132-5.3913 1.3462-6.6486 3.9589-1.6765 3.4832-.2122 7.6672 3.2714 9.3442l.8672-1.803c-2.4882-1.198-3.5352-4.186-2.3379-6.674 1.1975-2.4882 4.1859-3.5354 6.6739-2.3379 1.171.5638 2.039-1.2369.867-1.8007-.871-.4192-1.785-.6435-2.693-.6875z" fill="url(#linearGradient3611)"/>
  <path d="m14.035 4.6934-.867 1.8007c1.789.8613 2.805 2.6485 2.803 4.5099.01 0 .019-.004.029-.004.742 0 1.409.287 1.93.742.306-2.8601-1.154-5.7297-3.895-7.0486zm-5.203 10.813-.8672 1.803c1.305.627 2.7022.787 4.0352.591v-2.035c-1.036.217-2.1409.135-3.168-.359z" fill="url(#linearGradient3605)"/>
  <path d="m16 12c-1.108 0-2 .91085-2 2.0312v.96875h-1v4h6v-4h-1v-.96875c0-1.12-.892-2.031-2-2.031zm0 1c.554 0 1 .4424 1 1v1h-2v-1c0-.5576.446-1 1-1z" fill="#444"/>
</svg>
