<svg height="22" width="22" xmlns="http://www.w3.org/2000/svg" xmlns:xlink="http://www.w3.org/1999/xlink">
  <linearGradient id="linearGradient3605" gradientTransform="matrix(0 -1 -1 0 23 23)" gradientUnits="userSpaceOnUse" x1="7" x2="19" y1="12" y2="5">
    <stop offset="0" stop-color="#444" stop-opacity=".5"/>
    <stop offset="1" stop-color="#444" stop-opacity="0"/>
  </linearGradient>
  <linearGradient id="linearGradient3611" gradientTransform="matrix(0 1 1 0 -1 -.99995)" gradientUnits="userSpaceOnUse" x1="7" x2="17" y1="12" y2="12">
    <stop offset="0" stop-color="#444"/>
    <stop offset="1" stop-color="#444" stop-opacity=".5"/>
  </linearGradient>
  <path d="m11 4c-3.866 0-7 3.134-7 7s3.134 7 7 7v-2c-2.7614 0-5-2.239-5-5 0-2.7614 2.2386-5 5-5 1.3 0 1.3-2 0-2z" fill="url(#linearGradient3611)"/>
  <path d="m11 4v2c2.761 0 5 2.2386 5 5 .75 0 1.424.294 1.947.758.032-.249.053-.501.053-.758 0-3.866-3.134-7-7-7zm1 11.885c-.324.067-.655.115-1 .115v2c.342 0 .673-.041 1-.094z" fill="url(#linearGradient3605)"/>
  <path d="m16 12c-1.108 0-2 .91085-2 2.0312v.969h-1v4h6v-4h-1v-.96875c0-1.12-.892-2.031-2-2.031zm0 1c.554 0 1 .4424 1 1v1h-2v-1c0-.5576.446-1 1-1z" fill="#444"/>
</svg>
