<svg height="22" width="22" xmlns="http://www.w3.org/2000/svg" xmlns:xlink="http://www.w3.org/1999/xlink">
  <linearGradient id="linearGradient3605" gradientTransform="matrix(.78261 .62251 .62251 -.78261 -5.861 12.921)" gradientUnits="userSpaceOnUse" x1="7" x2="19" y1="12" y2="5">
    <stop offset="0" stop-color="#444" stop-opacity=".5"/>
    <stop offset="1" stop-color="#444" stop-opacity="0"/>
  </linearGradient>
  <linearGradient id="linearGradient3611" gradientTransform="matrix(-.78261 -.62251 -.62251 .78261 27.862 9.079)" gradientUnits="userSpaceOnUse" x1="7" x2="17" y1="12" y2="12">
    <stop offset="0" stop-color="#444"/>
    <stop offset="1" stop-color="#444" stop-opacity=".5"/>
  </linearGradient>
  <path d="m10.879 4.002c-2.017.0363-4.0038.9387-5.3575 2.6406l1.5664 1.2441c1.719-2.1611 4.8641-2.5176 7.0251-.7988 1.242.987 1.874 2.4432 1.873 3.9141.005 0 .009-.002.014-.002.747 0 1.419.291 1.941.752.249-2.3045-.635-4.6808-2.584-6.2305-1.323-1.0529-2.909-1.5478-4.478-1.5195z" fill="url(#linearGradient3611)"/>
  <path d="m5.5215 6.6426c-2.4066 3.0256-1.9045 7.4294 1.1211 9.8364 1.5723 1.25 3.5144 1.706 5.3574 1.439v-2.022c-1.398.285-2.9073-.024-4.1113-.982-2.1615-1.72-2.5198-4.866-.8008-7.0273z" fill="url(#linearGradient3605)"/>
  <path d="m16 12c-1.108 0-2 .91085-2 2.0312v.96875h-1v4h6v-4h-1v-.96875c0-1.12-.892-2.031-2-2.031zm0 1c.554 0 1 .4424 1 1v1h-2v-1c0-.5576.446-1 1-1z" fill="#444"/>
</svg>
