<svg height="22" width="22" xmlns="http://www.w3.org/2000/svg" xmlns:xlink="http://www.w3.org/1999/xlink">
  <linearGradient id="linearGradient3605" gradientTransform="matrix(.78152 -.62388 -.62388 -.78152 9.1089 27.865)" gradientUnits="userSpaceOnUse" x1="7" x2="19" y1="12" y2="5">
    <stop offset="0" stop-color="#444" stop-opacity=".5"/>
    <stop offset="1" stop-color="#444" stop-opacity="0"/>
  </linearGradient>
  <linearGradient id="linearGradient3611" gradientTransform="matrix(-.78152 .62388 .62388 .78152 12.892 -5.8648)" gradientUnits="userSpaceOnUse" x1="7" x2="17" y1="12" y2="12">
    <stop offset="0" stop-color="#444"/>
    <stop offset="1" stop-color="#444" stop-opacity=".5"/>
  </linearGradient>
  <path d="m11.111 4c-1.568-.0255-3.1562.474-4.4782 1.5293-3.0214 2.4119-3.5154 6.8167-1.1035 9.8377l1.5625-1.248c-1.7228-2.158-1.3687-5.3047.7891-7.0272 2.1581-1.7228 5.3041-1.369 7.0271.7891.811 1.016 2.374-.2321 1.563-1.2481-1.357-1.6995-3.343-2.6-5.36-2.6328z" fill="url(#linearGradient3611)"/>
  <path d="m16.471 6.6328-1.563 1.2481c.737.9229 1.067 2.0253 1.065 3.1211.009 0 .018-.002.027-.002.751 0 1.426.294 1.949.76.195-1.7743-.277-3.6218-1.478-5.1272zm-9.3772 7.4862-1.5645 1.248c1.6064 2.013 4.094 2.88 6.4707 2.537v-2.029c-1.781.365-3.694-.237-4.9062-1.756z" fill="url(#linearGradient3605)"/>
  <path d="m16 12c-1.108 0-2 .91085-2 2.0312v.96875h-1v4h6v-4h-1v-.96875c0-1.12-.892-2.031-2-2.031zm0 1c.554 0 1 .4424 1 1v1h-2v-1c0-.5576.446-1 1-1z" fill="#444"/>
</svg>
