<svg height="22" width="22" xmlns="http://www.w3.org/2000/svg" xmlns:xlink="http://www.w3.org/1999/xlink">
  <linearGradient id="linearGradient3605" gradientTransform="matrix(.97515 .22155 .22155 -.97515 -3.3602 20.043)" gradientUnits="userSpaceOnUse" x1="7" x2="19" y1="12" y2="5">
    <stop offset="0" stop-color="#444" stop-opacity=".5"/>
    <stop offset="1" stop-color="#444" stop-opacity="0"/>
  </linearGradient>
  <linearGradient id="linearGradient3611" gradientTransform="matrix(-.97515 -.22155 -.22155 .97515 25.361 1.9568)" gradientUnits="userSpaceOnUse" x1="7" x2="17" y1="12" y2="12">
    <stop offset="0" stop-color="#444"/>
    <stop offset="1" stop-color="#444" stop-opacity=".5"/>
  </linearGradient>
  <path d="m11.145 4c-3.2558-.0703-6.2217 2.1506-6.9712 5.4492l1.9512.4434c.6118-2.6928 3.2924-4.3793 5.984-3.7676 2.321.5274 3.872 2.5928 3.87 4.877.007 0 .014-.002.021-.002.75 0 1.424.294 1.947.758.385-3.4893-1.891-6.7878-5.396-7.5842-.471-.107-.941-.1638-1.406-.1738z" fill="url(#linearGradient3611)"/>
  <path d="m4.1758 9.4492c-.8565 3.7698 1.5035 7.5208 5.2734 8.3768.8638.196 1.7238.208 2.5508.086v-2.037c-.676.145-1.388.163-2.1074 0-2.6928-.612-4.3794-3.29-3.7676-5.9824z" fill="url(#linearGradient3605)"/>
  <path d="m16 12c-1.108 0-2 .91085-2 2.0312v.96875h-1v4h6v-4h-1v-.96875c0-1.12-.892-2.031-2-2.031zm0 1c.554 0 1 .4424 1 1v1h-2v-1c0-.5576.446-1 1-1z" fill="#444"/>
</svg>
