<svg height="22" width="22" xmlns="http://www.w3.org/2000/svg" xmlns:xlink="http://www.w3.org/1999/xlink">
  <linearGradient id="linearGradient3605" gradientTransform="matrix(.97476 -.22325 -.22325 -.97476 1.9814 25.376)" gradientUnits="userSpaceOnUse" x1="7" x2="19" y1="12" y2="5">
    <stop offset="0" stop-color="#444" stop-opacity=".5"/>
    <stop offset="1" stop-color="#444" stop-opacity="0"/>
  </linearGradient>
  <linearGradient id="linearGradient3611" gradientTransform="matrix(-.97476 .22325 .22325 .97476 20.018 -3.376)" gradientUnits="userSpaceOnUse" x1="7" x2="17" y1="12" y2="12">
    <stop offset="0" stop-color="#444"/>
    <stop offset="1" stop-color="#444" stop-opacity=".5"/>
  </linearGradient>
  <path d="m10.844 4c-.465.0108-.9354.0679-1.4065.1758-3.7683.8631-6.1248 4.6185-5.2617 8.3862l1.9512-.445c-.6165-2.6913 1.0644-5.3737 3.7558-5.99 2.6922-.6165 5.3742 1.066 5.9902 3.7578.29 1.2672 2.239.8202 1.949-.4473-.755-3.2972-3.723-5.5134-6.978-5.4375z" fill="url(#linearGradient3611)"/>
  <path d="m17.822 9.4375-1.949.4453c.086.3772.104.7502.098 1.1212.01 0 .019-.004.029-.004.752 0 1.428.294 1.951.76.085-.756.051-1.538-.129-2.3225zm-11.697 2.6775-1.9492.447c.82 3.581 4.2518 5.876 7.8242 5.356v-2.023c-2.6523.543-5.2674-1.126-5.875-3.78z" fill="url(#linearGradient3605)"/>
  <path d="m16 12c-1.108 0-2 .91085-2 2.0312v.96875h-1v4h6v-4h-1v-.96875c0-1.12-.892-2.031-2-2.031zm0 1c.554 0 1 .4424 1 1v1h-2v-1c0-.5576.446-1 1-1z" fill="#444"/>
</svg>
