<svg width="16" height="16" version="1.1" viewBox="0 0 16 16" xmlns="http://www.w3.org/2000/svg">
 <g transform="translate(-621.0002,-321)" fill="#808080">
  <path d="m630.0002 321v1h-1v1h-0.95312v1h0.95312v1h-0.95312v1h0.95312v1h-0.95312v1h0.95312v1h1v1h1v-1h1v1h1v-1h1v1h1v-1h1v-1h1v-1h-1v-1h1v-1h-1v-1h1v-1h-1v-1h-1v-1h-1v1h-1v-1h-1v1h-1v-1z"/>
  <path d="m627.5 332.98242c-0.83253 0-1.51758 0.68505-1.51758 1.51758s0.68505 1.51758 1.51758 1.51758 1.51758-0.68505 1.51758-1.51758-0.68505-1.51758-1.51758-1.51758zm0 1c0.29209 0 0.51758 0.22549 0.51758 0.51758s-0.22549 0.51758-0.51758 0.51758-0.51758-0.22549-0.51758-0.51758 0.22549-0.51758 0.51758-0.51758z"/>
  <path d="m621.5 331.13086v1h1.21094l1.65625 2.86914h2.07031v-1h-1.49219l-1.65625-2.86914z"/>
  <path d="m635.48242 329.94531c-0.83253 0-1.51758 0.68505-1.51758 1.51758s0.68505 1.51953 1.51758 1.51953 1.51758-0.687 1.51758-1.51953-0.68505-1.51758-1.51758-1.51758zm0 1c0.29209 0 0.51758 0.22549 0.51758 0.51758s-0.22549 0.51953-0.51758 0.51953-0.51758-0.22744-0.51758-0.51953 0.22549-0.51758 0.51758-0.51758z"/>
  <path d="m621.5 328.0957v1h1.21094l1.65625 2.86719h9.78906v-1h-9.21094l-1.65625-2.86719z"/>
  <path d="m626.5293 326.96289c-0.83253 0-1.51758 0.687-1.51758 1.51953s0.68505 1.51758 1.51758 1.51758 1.51758-0.68505 1.51758-1.51758-0.68505-1.51953-1.51758-1.51953zm0 1c0.29209 0 0.51757 0.22744 0.51758 0.51953 0 0.29209-0.22549 0.51758-0.51758 0.51758s-0.51758-0.22549-0.51758-0.51758 0.22549-0.51953 0.51758-0.51953z"/>
  <path d="m621.50195 324.97656-2e-3 1 3.5332 6e-3 1.0586 1.70899 0.85156-0.52735-1.35156-2.18164z"/>
  <path d="m622.52539 324.03711c0.83253 0 1.51953-0.687 1.51953-1.51953s-0.687-1.51758-1.51953-1.51758-1.51758 0.68505-1.51758 1.51758 0.68505 1.51953 1.51758 1.51953zm0-1c-0.29209 0-0.51758-0.22744-0.51758-0.51953s0.22549-0.51758 0.51758-0.51758 0.51953 0.22549 0.51953 0.51758-0.22744 0.51953-0.51953 0.51953z"/>
  <path d="m623.00195 322.01367-2e-3 1 3.31055 6e-3 0.85351 0.82813 0.69532-0.71875-1.14258-1.10938z"/>
  <path d="m630.53711 332.98242c-0.83253 0-1.51953 0.68505-1.51953 1.51758s0.687 1.51758 1.51953 1.51758 1.51758-0.68505 1.51758-1.51758-0.68505-1.51758-1.51758-1.51758zm0 1c0.29209 0 0.51758 0.22549 0.51758 0.51758s-0.22549 0.51758-0.51758 0.51758-0.51953-0.22549-0.51953-0.51758 0.22744-0.51758 0.51953-0.51758z"/>
  <path d="m633.57227 332.98242c-0.83253 0-1.51758 0.68505-1.51758 1.51758s0.68505 1.51758 1.51758 1.51758 1.51953-0.68505 1.51953-1.51758-0.687-1.51758-1.51953-1.51758zm0 1c0.29209 0 0.51953 0.22549 0.51953 0.51758s-0.22744 0.51758-0.51953 0.51758-0.51758-0.22549-0.51758-0.51758 0.22549-0.51758 0.51758-0.51758z"/>
  <path d="m632.77539 331.31055-0.86328 0.5039 1.125 1.9375 0.86328-0.5039z"/>
  <path d="m629.74609 331.28125-0.86718 0.5 1.15625 2 0.86718-0.5z"/>
  <path d="m626.91797 331.34375-0.89844 0.4375 0.96875 2 0.89844-0.4375z"/>
 </g>
</svg>
