<?xml version="1.0" encoding="UTF-8" standalone="no"?>
<svg
   xmlns:dc="http://purl.org/dc/elements/1.1/"
   xmlns:cc="http://creativecommons.org/ns#"
   xmlns:rdf="http://www.w3.org/1999/02/22-rdf-syntax-ns#"
   xmlns:svg="http://www.w3.org/2000/svg"
   xmlns="http://www.w3.org/2000/svg"
   xmlns:sodipodi="http://sodipodi.sourceforge.net/DTD/sodipodi-0.dtd"
   xmlns:inkscape="http://www.inkscape.org/namespaces/inkscape"
   width="16"
   height="16"
   version="1.1"
   id="svg6"
   sodipodi:docname="application-vnd.oasis.opendocument.master-document.svg"
   inkscape:version="0.92.3 (2405546, 2018-03-11)">
  <metadata
     id="metadata12">
    <rdf:RDF>
      <cc:Work
         rdf:about="">
        <dc:format>image/svg+xml</dc:format>
        <dc:type
           rdf:resource="http://purl.org/dc/dcmitype/StillImage" />
        <dc:title></dc:title>
      </cc:Work>
    </rdf:RDF>
  </metadata>
  <defs
     id="defs10" />
  <sodipodi:namedview
     pagecolor="#ffffff"
     bordercolor="#666666"
     borderopacity="1"
     objecttolerance="10"
     gridtolerance="10"
     guidetolerance="10"
     inkscape:pageopacity="0"
     inkscape:pageshadow="2"
     inkscape:window-width="1920"
     inkscape:window-height="1009"
     id="namedview8"
     showgrid="false"
     inkscape:zoom="52.1875"
     inkscape:cx="7.9999998"
     inkscape:cy="8"
     inkscape:window-x="0"
     inkscape:window-y="34"
     inkscape:window-maximized="1"
     inkscape:current-layer="svg6" />
  <g
     transform="matrix(1,0,0,-1,-472,196)"
     id="g4">
    <path
       style="fill:#4d4d4d"
       d="M 1 0 L 1 5.9589844 L 2 5.9589844 L 2 1 L 10 1 L 10 5 L 14 5 L 14 5.9589844 L 15 5.9589844 L 15 5 L 15 4.25 L 10.75 0 L 10 0 L 1 0 z M 1.0117188 6.2089844 C 0.45249974 6.2089844 1.4802974e-16 6.6612831 0 7.2207031 L 0 12.488281 C 1.7810265e-16 13.047301 0.45249974 13.5 1.0117188 13.5 L 14.988281 13.5 C 15.547336 13.5 16 13.047301 16 12.488281 L 16 7.2207031 C 15.999967 6.6613231 15.547336 6.2089844 14.988281 6.2089844 L 1.0117188 6.2089844 z M 3.2304688 7.3242188 C 3.9681882 7.3242188 4.4945902 7.4653069 4.8476562 7.7480469 C 5.1852402 8.0147569 5.4121094 8.4546063 5.4121094 8.9726562 C 5.4121094 9.4908762 5.2399793 9.9304557 4.9257812 10.228516 C 4.5176752 10.613206 3.9136236 10.785156 3.2070312 10.785156 C 3.0503093 10.785156 2.9082181 10.777519 2.7988281 10.761719 L 2.7988281 12.654297 L 1.6132812 12.654297 L 1.6132812 7.4335938 C 1.9819943 7.3710938 2.5005218 7.3242188 3.2304688 7.3242188 z M 7.7910156 7.3242188 C 8.7951096 7.3242188 9.4466202 7.5043219 9.9570312 7.8886719 C 10.506213 8.2968819 10.851562 8.9487725 10.851562 9.8828125 C 10.851562 10.895562 10.483592 11.593471 9.9726562 12.025391 C 9.4159952 12.488441 8.5689171 12.708984 7.5332031 12.708984 C 6.9132711 12.708984 6.4724451 12.669959 6.1738281 12.630859 L 6.1738281 7.4335938 C 6.6133241 7.3630937 7.1866296 7.3242188 7.7910156 7.3242188 z M 11.638672 7.3632812 L 14.871094 7.3632812 L 14.871094 8.34375 L 12.837891 8.34375 L 12.837891 9.5527344 L 14.738281 9.5527344 L 14.738281 10.527344 L 12.837891 10.527344 L 12.837891 12.654297 L 11.638672 12.654297 L 11.638672 7.3632812 z M 3.2929688 8.2265625 C 3.0497843 8.2265625 2.8852251 8.2498375 2.7988281 8.2734375 L 2.7988281 9.8359375 C 2.9009691 9.8591375 3.0270148 9.8671875 3.1992188 9.8671875 C 3.8352571 9.8671875 4.2265625 9.5456063 4.2265625 9.0039062 C 4.2265625 8.5174063 3.8891207 8.2265625 3.2929688 8.2265625 z M 7.9179688 8.2421875 C 7.6508078 8.2421875 7.477403 8.2655625 7.375 8.2890625 L 7.375 11.75 C 7.477207 11.7739 7.6418376 11.775391 7.7910156 11.775391 C 8.8739946 11.783391 9.5800781 11.185625 9.5800781 9.921875 C 9.5879781 8.822625 8.9459418 8.2421875 7.9179688 8.2421875 z M 1 13.738281 L 1 16 L 15 16 L 15 13.738281 L 14 13.738281 L 14 15 L 2 15 L 2 13.738281 L 1 13.738281 z "
       transform="matrix(1,0,0,-1,472,196)"
       id="path2" />
  </g>
</svg>
