<svg xmlns="http://www.w3.org/2000/svg" width="16" height="16" version="1.1">
 <g id="layer14" transform="translate(-502 -300)">
  <path fill="#444" d="m504 302c-0.52358 5e-5 -0.99995 0.47642-1 1v10c5e-5 0.52358 0.47642 0.99995 1 1h3.0001v-2s-1.9929-0.0211-2.0001 1e-4v-8h11l6.6e-4 7.9999h-1.0006v2h2.0006c0.5193 0 0.9993-0.43501 0.9993-0.99988v-10c7.5e-4 -0.46663-0.43709-1.0001-1-0.9999z"/>
  <path fill="#444" d="m514 308.06a3 3 0 0 1-5.9987 0 3 3 0 1 1 5.9987 0z"/>
  <path fill="#444" fill-rule="evenodd" d="m510 309-2.0002 7h1l2.0002-2 1.9998 2h1l-1.9999-7"/>
 </g>
</svg>
