<!-- Created with Inkscape (http://www.inkscape.org/) -->
<svg width="16" height="16" version="1.1" viewBox="0 0 16 16" xmlns="http://www.w3.org/2000/svg" xmlns:xlink="http://www.w3.org/1999/xlink">
 <defs>
  <linearGradient id="linearGradient3816" x1="5.875" x2="3.875" y1="31.125" y2="4.125" gradientTransform="matrix(0,-1,-1,0,544.125,391.875)" gradientUnits="userSpaceOnUse">
   <stop style="stop-color:#dbdee0" offset="0"/>
   <stop style="stop-color:#dbdee0;stop-opacity:0" offset="1"/>
  </linearGradient>
  <linearGradient id="linearGradient3819" x1="12" x2="23" y1="6" y2="10" gradientTransform="matrix(0,1,-1,0,544,368)" gradientUnits="userSpaceOnUse">
   <stop style="stop-color:#dbdee0" offset="0"/>
   <stop style="stop-color:#dbdee0;stop-opacity:0" offset="1"/>
  </linearGradient>
 </defs>
 <g transform="translate(-524,-372)">
  <path d="m540 380c0-4.40643-3.59357-8-8-8s-8 3.59357-8 8h2c0-3.32555 2.67445-6 6-6s6 2.67445 6 6c0 0.55228 0.44772 1 1 1s1-0.44772 1-1z" style="fill:url(#linearGradient3819)"/>
  <path d="m540 380c0 4.40643-3.59357 8-8 8s-8-3.59357-8-8h2c0 3.32555 2.67445 6 6 6s6-2.67445 6-6z" style="fill:url(#linearGradient3816)"/>
  <rect x="521" y="369.00003" width="22" height="22" style="fill:none"/>
 </g>
</svg>
