<svg height="16" width="16" xmlns="http://www.w3.org/2000/svg">
  <path d="m4.6152344 0c-2.5493835 0-4.6152344 2.3527391-4.6152344 5.2539062 0 .7794904.12009621 1.5278245.33203125 2.2441407 0 0 .19303716.6481127.36328125 1.0039062 1.9457348 4.5490959 7.3046875 7.4980469 7.3046875 7.4980469s5.358953-2.948951 7.304688-7.4980469c.170244-.3557935.363281-1.0039062.363281-1.0039062.211935-.7163162.332031-1.4646503.332031-2.2441407 0-2.9011671-2.065851-5.2539062-4.615234-5.2539062-1.337011 0-2.5415212.96631511-3.384766 2-.8432448-1.03368489-2.047755-2-3.3847656-2z" fill="#e01b24"/>
</svg>
