<svg xmlns="http://www.w3.org/2000/svg" width="16" height="16" version="1">
 <path d="m 4.6152344,0 c -2.5493835,0 -4.6152344,2.3527391 -4.6152344,5.2539062 0,0.7794904 0.12009621,1.5278245 0.33203125,2.2441407 0,0 0.19303716,0.6481127 0.36328125,1.0039062 1.9457348,4.5490959 7.3046875,7.4980469 7.3046875,7.4980469 0,0 5.358953,-2.948951 7.304688,-7.4980469 0.170244,-0.3557935 0.363281,-1.0039062 0.363281,-1.0039062 0.211935,-0.7163162 0.332031,-1.4646503 0.332031,-2.2441407 0,-2.9011671 -2.065851,-5.2539062 -4.615234,-5.2539062 -1.337011,0 -2.5415212,0.96631511 -3.384766,2 -0.8432448,-1.03368489 -2.047755,-2 -3.3847656,-2 z" style="fill:#e01b24"/>
</svg>
