<svg height="16" width="16" xmlns="http://www.w3.org/2000/svg">
  <path d="m8 1c-3.878 0-7 3.122-7 7s3.122 7 7 7 7-3.122 7-7-3.122-7-7-7z" fill="#c01c28"/>
  <path d="m6.8398753 6.6866307c.4208971-.417826-.0740127-.6797407-.4949094-1.0975664-.420897-.4178261-.6083963-.8333415-1.0292934-.4155153-.4208967.4178259-.4208967 1.0952557 0 1.5130817.4208971.4178257 1.1033058.4178257 1.5242028 0z" fill="#241f31"/>
  <path d="m5.05 11.696s.85-1.199707 2.95-1.199707 2.95 1.199707 2.95 1.199707" fill="none" stroke="#241f31" stroke-linecap="round" stroke-linejoin="round"/>
  <path d="m9.1601253 6.6866307c-.4208973-.417826.07401-.6797407.49491-1.0975664.4208967-.4178261.6083957-.8333415 1.0292927-.4155153.420896.4178259.420896 1.0952557 0 1.5130817-.420897.4178257-1.1033057.4178257-1.5242027 0z" fill="#241f31"/>
</svg>
