<svg height="16" width="16" xmlns="http://www.w3.org/2000/svg">
  <path d="m8 1c-3.878 0-7 3.122-7 7s3.122 7 7 7 7-3.122 7-7-3.122-7-7-7z" fill="#ffa348"/>
  <path d="m5.1601249 6.6866308c-.4208971-.417826.0740126-.6797407.4949093-1.0975663.4208969-.4178261.6083963-.8333415 1.0292933-.4155154.4208967.4178259.4208967 1.0952557 0 1.5130817-.420897.4178256-1.1033057.4178256-1.5242026 0z" fill="#5e5c64"/>
  <path d="m4.85 11.896293s1.05-1.4 3.15-1.4 3.15 1.4 3.15 1.4" fill="none" stroke="#5e5c64" stroke-linecap="round" stroke-linejoin="round"/>
  <path d="m10.839875 6.6866308c.420897-.417826-.074013-.6797406-.494909-1.0975662-.4208978-.4178261-.6083968-.8333414-1.0292935-.4155153-.4208966.4178258-.4208966 1.0952555 0 1.5130815.4208967.4178256 1.1033055.4178256 1.5242025 0z" fill="#5e5c64"/>
</svg>
