<svg height="16" width="16" xmlns="http://www.w3.org/2000/svg">
  <path d="m1.1442279.02208708c-.0644814.2796937-.0981781.56288782-.1007496.84672082.002873.9262826.3478261 3.3271921.6956521 3.3271921l2.0869565-1.3913043c-1.0233279-.7575699-2.4355644-1.7204123-2.681859-2.78260862z" fill="#a51d2d"/>
  <path d="m6.9565216 9.2173913s1.7391305 5.2826087 4.8695654 5.2826087c3.130434 0 2.673913-2.5 2.673913-2.5" fill="none" stroke="#a51d2d"/>
  <path d="m12.899859.02208708c.06448.2796937.09818.56288782.10075.84672082-.002873.9262826-.347827 3.3271921-.695653 3.3271921l-2.086956-1.3913043c1.023328-.7575699 2.435564-1.7204123 2.681859-2.78260862z" fill="#a51d2d"/>
  <path d="m7.0000001.9999994c-3.878 0-7.00000005 3.1220002-7.00000005 7.0000002 0 3.8780004 3.12200005 7.0000004 7.00000005 7.0000004 3.8780009 0 6.9999999-3.122 6.9999999-7.0000004 0-3.878-3.121999-7.0000002-6.9999999-7.0000002z" fill="#e01b24"/>
  <path d="m14.482065 10.500441a.33600777.31252702 0 0 0 -.272979.15584l-.581831.937489-.582267.937486a.33600777.31252702 0 0 0 .291353.468744h1.163659 1.163661a.33600777.31252702 0 0 0 .291353-.468744l-.582267-.937486-.581831-.937489a.33600777.31252702 0 0 0 -.308851-.15584z" fill="#c01c28"/>
  <path d="m5.8398752 6.6866307c.4208971-.417826-.0740127-.6797407-.4949094-1.0975663-.4208969-.4178261-.6083962-.8333415-1.0292933-.4155153-.4208967.4178259-.4208967 1.0952556 0 1.5130816.4208971.4178257 1.1033057.4178257 1.5242027 0z" fill="#241f31"/>
  <path d="m8.1601252 6.6866307c-.4208973-.417826.07401-.6797407.49491-1.0975663.4208968-.4178261.6083958-.8333415 1.0292928-.4155153.420896.4178259.420896 1.0952556 0 1.5130816-.420897.4178257-1.1033058.4178257-1.5242028 0z" fill="#241f31"/>
  <path d="m3.494301 10.05s1.2349719 1.45 3.5 1.45c2.265028 0 3.5-1.45 3.5-1.45" fill="none" stroke="#241f31" stroke-linecap="round" stroke-linejoin="round"/>
</svg>
