<svg height="22" width="22" xmlns="http://www.w3.org/2000/svg">
  <g fill="#444">
    <path d="m6.5 3c-.831 0-1.5.669-1.5 1.5v.5h12v-.5c0-.831-.669-1.5-1.5-1.5zm-1.5 4v2h12v-2zm0 4v2h11 1v-2zm0 4v2h8v-1a1.0001 1.0001 0 0 1 1-1z"/>
    <path d="m5 5v2h12v-2zm0 4v2h12v-2zm0 4v2h9 1v-1a1.0001 1.0001 0 0 1 1-1zm0 4v.5c0 .831.669 1.5 1.5 1.5h7.5a1.0001 1.0001 0 0 1 -1-1v-1z" opacity=".3"/>
    <path d="m15 3v11a1.0001 1.0001 0 0 1 1-1h1v-2-2-2-2-.5c0-.831-.669-1.5-1.5-1.5z" opacity=".3"/>
    <path d="m16 14v2h-2v2h2v2h2v-2h2v-2h-2v-2z"/>
  </g>
</svg>
