<svg height="22" width="22" xmlns="http://www.w3.org/2000/svg">
  <g fill="#444">
    <rect height="2" rx=".538" ry=".5" width="7" x="3" y="17"/>
    <rect height="2" opacity=".3" rx=".538" ry=".5" width="7" x="3" y="15"/>
    <rect height="2" rx=".538" ry=".5" width="7" x="3" y="13"/>
    <rect height="2" opacity=".3" rx=".538" ry=".5" width="7" x="3" y="11"/>
    <rect height="2" rx=".538" ry=".5" width="7" x="3" y="9"/>
    <rect height="2" opacity=".3" rx=".538" ry=".5" width="7" x="3" y="7"/>
    <rect height="2" rx=".538" ry=".5" width="7" x="3" y="5"/>
    <rect height="2" opacity=".3" rx=".538" ry=".5" width="7" x="3" y="3"/>
    <rect height="2" opacity=".3" rx=".538" ry=".5" width="7" x="12" y="17"/>
    <rect height="2" rx=".538" ry=".5" width="7" x="12" y="15"/>
    <rect height="2" opacity=".3" rx=".538" ry=".5" width="7" x="12" y="13"/>
    <rect height="2" rx=".538" ry=".5" width="7" x="12" y="11"/>
    <path d="m17.805711 3c-.09101 0-.182726.03479-.253395.105469l-.697201.703125 1.335814 1.335937.703061-.697265c.141347-.141352.141347-.364012 0-.505372l-.836348-.836425c-.07067-.07068-.160917-.105469-.251931-.105469zm-1.480821 1.338867-3.32489 3.325196v1.335937h1.335814l3.324891-3.325195z"/>
  </g>
</svg>
