<svg height="22" viewBox="0 0 22 22" width="22" xmlns="http://www.w3.org/2000/svg">
  <path d="m2 1s-1 0-1 1v4.9941406l2 .0058594v-1h.7988281l1.7050781-1.7070312.7070313-.7070313 2.4140625 2.4140625h4.375v7h-5.3398438l-1.4453124 1.458984-1.4492188-1.458984h-1.7558594v-1.990234l-2-.00586v2.996094s0 1 1 1h12.0000004c1 0 1-1 1-1v-12s0-1-1-1zm4.2109375 4-1.3867187 1.3867188 1.6347656 1.6347656-6.44921877-.0214844v2l6.46093747.021484-1.6347656 1.632813 1.3847656 1.386719 4.0019529-4.041016z" fill="#444" transform="translate(3 3)"/>
</svg>
