<svg fill="none" height="22" viewBox="0 0 22 22" width="22" xmlns="http://www.w3.org/2000/svg">
  <g fill="#444">
    <path clip-rule="evenodd" d="m5 5v12h12v-12zm-1-2c-.55228 0-1 .44772-1 1v14c0 .5523.44772 1 1 1h14c.5523 0 1-.4477 1-1v-14c0-.55228-.4477-1-1-1z" fill-rule="evenodd"/>
    <path d="m6 6h3v3h-3z" opacity=".5"/>
    <path d="m13 6h3v3h-3z" opacity=".5"/>
    <path d="m6 13h3v3h-3z" opacity=".5"/>
    <path d="m9.5 9.5h3v3h-3z" opacity=".5"/>
    <path d="m13 13h3v3h-3z" opacity=".5"/>
  </g>
</svg>
