<svg height="22" viewBox="0 0 22 22" width="22" xmlns="http://www.w3.org/2000/svg">
  <path d="m3.0097656 1c-2.24869997 0-1.9980468 2-1.9980468 2v12h13.9921872v-12c0-2-2-2-2-2h-1.998047v4h1.998047v8h-9.9941404v-8h2v-4zm2.9980469 0 2 3 1.9980465-3zm.4277344 5c-1.0655 0-1.5117188.3522562-1.5117188 1.2539062 0 0-.02445.5874338-.03125.7460938-.0462.36892-.175395.6777344-.578125.6777344h-.3046875v.6445312h.3046875c.58855 0 .609375.6442319.609375 1.2011724-.005.17393.0135781.368422.0175781.476562.0833001.71164.5369007 1 1.4941407 1v-.591797c-.44951 0-.6063919-.118313-.6699219-.408203-.0337-.11597-.0371813-.514418-.0507812-.705078 0-.4154601-.1220132-1.0347157-.7207032-1.2910158.47307-.20257.6421225-.6282862.6953125-1.0039062.0239-.10411.0185907-.2223044.0253907-.3027344 0-.86631.0104231-1.1054687.7207031-1.1054687zm3.1425781 0v.5917969c.71028 0 .720703.2391287.720703 1.1054687.007.0804.001991.1986244.025391.3027344.0532.37563.224195.8013462.697265 1.0039062-.59869.25635-.722656.8755657-.722656 1.2910158-.0137.19066-.017181.589108-.050781.705078-.0635.28989-.220412.408203-.669922.408203v.591797c.95725 0 1.412894-.28836 1.496094-1 .004-.10814.022578-.302633.017578-.476562 0-.5569105.020855-1.2011724.609375-1.2011724h.302734v-.6445312h-.302734c-.40273 0-.531945-.3088144-.578125-.6777344-.007-.15866-.03125-.7460938-.03125-.7460938 0-.9016599-.448192-1.2539062-1.513672-1.2539062z" fill="#444" transform="translate(3 3)"/>
</svg>
