<svg height="22" viewBox="0 0 22 22" width="22" xmlns="http://www.w3.org/2000/svg">
  <path d="m1 .73046875v1.00000005h1v6h1v-7.00000005h-1zm5 0a2 2 0 0 0 -2 2.00000005v3a2 2 0 0 0 2 2 2 2 0 0 0 2-2 2 2 0 0 0 -2-2 2 2 0 0 0 -1 .2695312v-1.2695312a1 1 0 0 1 1-1 1 1 0 0 1 1 1h1a2 2 0 0 0 -2-2.00000005zm2 .26953125v1a7 7 0 0 1 6.308594 4h-3.609375v1h4 1v-.1132812-.8867188-4h-1v2.65625a8 8 0 0 0 -6.699219-3.65625zm-2 3.7304688a1 1 0 0 1 1 1 1 1 0 0 1 -1 1 1 1 0 0 1 -1-1 1 1 0 0 1 1-1zm8 3.2695312a2 2 0 0 0 -2 2 2 2 0 0 0 .679688 1.5 2 2 0 0 0 -.679688 1.5 2 2 0 0 0 2 2 2 2 0 0 0 2-2 2 2 0 0 0 -.679688-1.5 2 2 0 0 0 .679688-1.5 2 2 0 0 0 -2-2zm-13 1v.1132812.8867188 4h1v-2.65625a8 8 0 0 0 6.6992188 3.65625v-1a7 7 0 0 1 -6.3085938-4h3.609375v-1h-4.0019531zm13 0a1 1 0 0 1 1 1 1 1 0 0 1 -1 1 1 1 0 0 1 -1-1 1 1 0 0 1 1-1zm0 3a1 1 0 0 1 1 1 1 1 0 0 1 -1 1 1 1 0 0 1 -1-1 1 1 0 0 1 1-1z" fill="#444" transform="translate(3 3)"/>
</svg>
