<svg fill="none" height="22" viewBox="0 0 22 22" width="22" xmlns="http://www.w3.org/2000/svg">
  <g fill="#444">
    <path clip-rule="evenodd" d="m7.05678 12.3546c-.13848.0319-.25909.119-.3355.2423l-1.0736 1.6614c-.05337.0579-.09395.1271-.11895.2028-.0117.0354-.01986.0718-.02442.1086h-.00431v.0697 4.3606h10.8333v-4.4303h-.0076c-.0046-.0368-.0127-.0732-.0244-.1086-.025-.0757-.0656-.1449-.119-.2028l-1.0736-1.6614c-.0571-.0897-.1382-.1603-.2335-.2033s-.2007-.0566-.3033-.039c-.0883.0176-.1709.0578-.2402.1169-.0693.059-.1232.1351-.1566.2213-.0334.0861-.0452.1795-.0345.2716s.0436.18.0958.2555l.8723 1.3498h-8.3874l.87227-1.3498c.06205-.09.09659-.197.09921-.3074s-.02681-.2191-.08451-.3121c-.05771-.093-.14105-.1661-.23932-.2099s-.20698-.0563-.31217-.0359zm2.06567 3.8073c.02254-.0011.04518-.0011.06771 0 .31521-.0616.6489.2257.64323.5537v.0693h2.16671v-.0693c-.0044-.2925.2554-.5616.5416-.5616s.5457.2691.5417.5616v.0693c0 .604-.4925 1.1075-1.0833 1.1075h-2.16671c-.5908 0-1.08333-.5035-1.08333-1.1075v-.0693c-.0117-.2404.14866-.4788.37239-.5537z" fill-rule="evenodd"/>
    <path d="m9.91667 10.2683v-2.83804-4.43026h2.16663v4.43026 2.83814l1.3881-1.41907c.2038-.20839.4912-.31149.7786-.3115h1.0833v1.10756c0 .29384-.1008.58761-.3047.79611l-3.25 3.3226-.3046.3116h-.948l-.3046-.3116-3.25005-3.3226c-.20382-.2085-.30467-.50227-.30468-.79611l.0001-1.10756h1.08334c.28741.00001.5748.10311.77864.3115z"/>
  </g>
</svg>
