<svg fill="none" height="22" viewBox="0 0 22 22" width="22" xmlns="http://www.w3.org/2000/svg">
  <path d="m16.1429 3c-.6585.00013-1.2967.22769-1.8067.64419-.51.41649-.8605.99637-.9922 1.64152h-9.20114v1.14286c2.12023 1.09577 3.61725 2.83372 3.83703 3.77453.2384 1.02-.0272 2.185-.74103 3.4392-.423-.2338-.8984-.3565-1.38172-.3566-.3752 0-.74673.0739-1.09338.2175-.34664.1436-.66161.354-.92692.6194-.53582.5358-.83684 1.2625-.83684 2.0203 0 .7577.30102 1.4844.83684 2.0203.26531.2653.58028.4757.92692.6193.34665.1436.71818.2175 1.09338.2175.6585-.0001 1.29677-.2276 1.80682-.6441s.86057-.9964.99227-1.6416h3.48667v1.1428 1.1429h5.7142v-5.7143h-5.7142v1.1429 1.1428h-3.49113c-.0834-.4112-.25637-.7991-.50663-1.136.97406-1.5378 1.38149-3 1.05577-4.4176-.33577-1.46123-1.3536-2.60123-2.808-3.58923h6.95569c.1315.64439.4813 1.22368.9904 1.64009.509.41641 1.1462.64444 1.8039.64563.3752 0 .7467-.07391 1.0933-.21749.3467-.14359.6617-.35404.927-.61935s.4757-.58028.6193-.92693c.1436-.34664.2175-.71817.2175-1.09338 0-.75776-.301-1.48448-.8368-2.0203-.5359-.53582-1.2626-.83684-2.0203-.83684z" fill="#444"/>
</svg>
