<svg fill="none" height="22" viewBox="0 0 22 22" width="22" xmlns="http://www.w3.org/2000/svg">
  <path clip-rule="evenodd" d="m3 7.83354v-1.3333-.00024h1.3333c.41259 0 .73641.1204.99997.37499l3.54151 3.62501-3.54151 3.6249c-.26356.2546-.58738.375-.99997.375h-1.3333v-1.3333c0-.3425.1731-.7046.41666-.9583l1.70822-1.7082-1.70822-1.70825c-.24356-.25371-.41666-.6158-.41666-.95831zm15.9996 0v-1.3333-.00024h-1.3333c-.4126 0-.7364.1204-1 .37499l-3.5415 3.62501 3.5415 3.6249c.2636.2546.5874.375 1 .375h1.3333v-1.3333c0-.3425-.1731-.7046-.4166-.9583l-1.7083-1.7082 1.7083-1.70825c.2435-.25371.4166-.6158.4166-.95831z" fill="#444" fill-rule="evenodd"/>
</svg>
