<svg height="22" viewBox="0 0 22 22" width="22" xmlns="http://www.w3.org/2000/svg">
  <path d="m9.125-.05859375v.12109375l.6699219 1.1054688a7 5 0 0 1 2.7421871 1.0175781l.8125-.6445313a8 6 0 0 0 -4.224609-1.59960935zm-1.2070312.05859375a8 6 0 0 0 -2.4179688.30273438l.8378906.84179682a7 5 0 0 1 1.6679688-.14843745 7 5 0 0 1 .5273437.01953125zm-3.4941407.63867188a8 6 0 0 0 -1.859375.96875002l.9726563.546875a7 5 0 0 1 1.6640625-.7324219zm9.7402339 1.53125002-.789062.6269531a7 5 0 0 1 .794922.8378906l1-.2929687a8 6 0 0 0 -1.00586-1.171875zm-12.4394526.1113281a8 6 0 0 0 -1.03320315 1.3046875l.93164065.3671875a7 5 0 0 1 1.0117187-1.1601562zm13.9296876 1.9609375-.966797.2832031a7 5 0 0 1 .296875 1.0898438l1.005859.1367187a8 6 0 0 0 -.335937-1.5097656zm-15.38671888.25a8 6 0 0 0 -.25781249 1.4257813l1.00390627-.0449219a7 5 0 0 1 .1816406-1.0136719zm14.67773388 2.1269531a7 5 0 0 1 -.58789 1.4667969l.990234.2753906a8 6 0 0 0 .583985-1.6074219zm-13.8300776.25-1.0058594.0449219a8 6 0 0 0 .5625 1.4726563l.9101562-.4179688a7 5 0 0 1 -.4667968-1.0996094zm1.0878906 1.9121094v.0039062l-.9394531.4296876a8 6 0 0 0 1.7714843 1.4667972c.63604 2.3756-1.8404968 4.5014-1.0292968 5.3125 1.1347.1082 1.8092312-1.566854 2.0820312-3.189453.10207-.1389.4709982-.666875.7675782-1.296876a8 6 0 0 0 3.140625.488282l-1.0664063-1.066406a7 5 0 0 1 -1.7871094-.384766c.00792-.444-.2657356-.723622-1.1347656-.544922-.00105 0-.000901.000234-.0019531-.0097656-.079193 0-.1576282-.0163438-.2363282-.0273438a7 5 0 0 1 -1.5664062-1.1816406zm11.460937.1503906a7 5 0 0 1 -1.673828 1.1679684l.976563.595703a8 6 0 0 0 1.777344-1.4628901zm-2.833984 1.6328124a7 5 0 0 1 -2.4296874.421875l.921875.921875a8 6 0 0 0 2.5937504-.681641z" fill="#444" transform="translate(3 3)"/>
</svg>
