<svg height="22" viewBox="0 0 22 22" width="22" xmlns="http://www.w3.org/2000/svg">
  <path d="m2 2v8h4v4h8v-8h-4v-4zm8 5c.739 0 1.333984.7802344 1.333984 1.7402344v.8320312h.332032c.185 0 .333984.1903344.333984.4277344v2.572266c0 .238-.148984.427734-.333984.427734h-3.3320316c-.1847 0-.3339844-.189734-.3339844-.427734v-2.572266c0-.2374.1492844-.4277344.3339844-.4277344h.3320312v-.8320312c0-.9603.5952844-1.7402344 1.3339844-1.7402344zm0 .8574219c-.3693 0-.6660156.3826219-.6660156.8574219v.8574218h1.3320316v-.8574218c0-.4748001-.297016-.8574219-.666016-.8574219z" fill="#444" transform="translate(3 3)"/>
</svg>
