<svg fill="none" height="22" viewBox="0 0 22 22" width="22" xmlns="http://www.w3.org/2000/svg">
  <path clip-rule="evenodd" d="m5.30171 5.71881c-.61221-.9596-.26611-2.16481.79429-2.71881l-.00008.00012 4.90388 7.99998 4.9039-7.99998c1.0604.554 1.4065 1.7592.7943 2.71875l-4.4204 7.28123.3515.5072c.6346-.9086 1.6879-1.5073 2.8709-1.5073 1.9212 0 3.5 1.5788 3.5 3.5s-1.5788 3.5-3.5 3.5c-1.2074 0-2.2795-.6235-2.9095-1.5637l-.0119.0169-1.5787-2.4844-1.44032 2.2226c-.59987 1.0753-1.7502 1.8086-3.05958 1.8086-1.9212 0-3.5-1.5788-3.5-3.5s1.5788-3.5 3.5-3.5c1.17612 0 2.22392.5917 2.85974 1.4914l.36237-.4914zm2.69075 9.62659c-.07523-.7652-.70446-1.3454-1.49246-1.3454-.84027 0-1.5.6597-1.5 1.5s.65973 1.5 1.5 1.5 1.5-.6597 1.5-1.5c0-.034-.00108-.0677-.00321-.1011l-.02098-.0309zm7.50754-1.3454c.8403 0 1.5.6597 1.5 1.5s-.6597 1.5-1.5 1.5-1.5-.6597-1.5-1.5.6597-1.5 1.5-1.5z" fill="#444" fill-rule="evenodd"/>
</svg>
