<svg height="22" viewBox="0 0 22 22" width="22" xmlns="http://www.w3.org/2000/svg">
  <path d="m0 0v7h8v-7zm9 1.0781v3.9219h1v-2.6445c2.393.846 3.995 3.1063 4 5.6445h1c-.003-3.4773-2.558-6.4251-6-6.9219zm-8 6.9219c.003 3.477 2.5584 6.425 6 6.922v-3.922h-1v2.645c-2.393-.847-3.9948-3.107-4-5.645zm9 1-.207.207-1.793 1.793v1.414l1.5-1.5v4.086h1v-4.086l1.5 1.5v-1.414l-1.793-1.793zm3.5 1v4.086l-1.5-1.5v1.414l1.793 1.793.207.207.207-.207 1.793-1.793v-1.414l-1.5 1.5v-4.086z" fill="#444" transform="translate(3 3)"/>
</svg>
