<svg height="22" width="22" xmlns="http://www.w3.org/2000/svg">
  <path d="m2 0c-1.108 0-2 .892-2 2v12c0 1.108.892 2 2 2h12c1.108 0 2-.892 2-2v-12c0-1.108-.892-2-2-2zm5.584 1.7227h.832c1.844 2.7653 5.647 3.2812 5.647 3.2812l-.125.9922s-.834-.1238-1.938-.5352v4.5391h-7.0547c-.0423.339-.1137.673-.2207 1h7.2754v3h-8v-1.377l-.0664.125c-.5203.911-1.043 1.565-1.043 1.565l-.7812-.625c-.0001 0 .4774-.597.957-1.436.4797-.839.9336-1.919.9336-2.752v-4.0391c-1.1036.4114-1.9375.5352-1.9375.5352l-.125-.9922s3.8029-.5159 5.6465-3.2812zm.416.9804c-.8588 1.0696-1.9335 1.7986-2.9336 2.2969h2.5313l-.875-.584.5546-.832 1.5 1-.2773.416h2.434c-1.0005-.4983-2.0752-1.2273-2.934-2.2969zm-3 3.2969v1h5v1h-5v1h6v-3zm0 6v1h6v-1z" fill="#444" transform="translate(3 3)"/>
</svg>
