<svg height="22" width="22" xmlns="http://www.w3.org/2000/svg">
  <path d="m2 0c-1.108 0-2 .892-2 2v12c0 1.108.892 2 2 2h12c1.108 0 2-.892 2-2v-12c0-1.108-.892-2-2-2zm4 2h7c-.228 3.0343-1.036 5.674-2.439 7.8359 1.024 1.2901 2.37 2.4091 4.039 3.3571l-.569 1.08c-1.631-.872-3.014-1.99-4.1521-3.355-1.0999 1.365-2.5041 2.483-4.2109 3.355l-.6836-1.023c1.7447-.872 3.1115-1.992 4.0976-3.3574-1.2516-1.8585-2.1241-4.2376-2.6171-6.8926h-.4649zm-3.6484.377c.8458.4613 1.6146 1.0202 2.3066 1.6738l-.75.9804c-.7689-.7304-1.5578-1.3458-2.3652-1.8457zm5.25.623c.4551 2.2757 1.1946 4.3141 2.2187 5.8691 1.0237-1.8205 1.6697-3.8589 1.9357-5.8691zm-5.8262 2.6523c.7689.423 1.4792.9032 2.1328 1.4414l-.8066.9805c-.6536-.6536-1.3659-1.1923-2.1348-1.6152zm1.3262 3.334.9804.6934c-.4613 1.8073-1.1352 3.5563-2.0195 5.2483l-1.15234-.809c.92274-1.615 1.65314-3.326 2.19144-5.1327z" fill="#444" transform="translate(3 3)"/>
</svg>
