<svg height="22" viewBox="0 0 22 22" width="22" xmlns="http://www.w3.org/2000/svg">
  <path d="m9 2c-.9168.001-1.8101687.29295-2.3554688.96875-.5452.6757-.6990781 1.5035906-.7675781 2.4628906-.0338.4727-.0436625.9944594-.0390625 1.5683594h-.8378906c-.554 0-1 .446-1 1s.446 1 1 1h.8886719c.0477 1.398.1113281 3.043.1113281 5a1.0001 1.0001 0 1 0 2 0c0-1.962-.0562625-3.619-.1015625-5h1.1015625c.554 0 1-.446 1-1s-.446-1-1-1h-1.1542969c-.0068-.5528-.0010562-1.0279812.0273438-1.4257812.0565-.7906001.217025-1.2120094.328125-1.3496094.111-.1376.2173812-.2239094.8007812-.2246094a1.0001 1.0001 0 1 0 -.0019531-2z" fill="#444" transform="translate(3 3)"/>
</svg>
