<svg height="22" viewBox="0 0 22 22" width="22" xmlns="http://www.w3.org/2000/svg">
  <path d="m8.0019531 1c-2.5260408 0-4.5742187 2.0410149-4.5742187 4.5605469 0 .4432428.065019.8721817.1835937 1.2773437-.5759977.4613976-2.81035608 2.4601404-1.890625 5.0527344 0 0 .7769557-.06585 1.4160157-1.244141.1940717.754089.5558771 1.437226 1.0488281 2.009766-.7221066.212101-1.2128907.623678-1.2128907 1.095703 0 .688997 1.0444087 1.248047 2.3300782 1.248047.8726565 0 1.6309392-.256796 2.0292968-.636719.2193855.028782.4410337.046875.6679688.046875.2273792 0 .4494716-.018093.6679688-.046875.3992459.379923 1.1585935.636719 2.0312502.636719 1.286113 0 2.330078-.559493 2.330078-1.248047 0-.471582-.490784-.883602-1.212891-1.095703.492507-.57254.854757-1.255677 1.048828-2.009766.638616 1.177848 1.416016 1.244141 1.416016 1.244141.921063-2.5930368-1.315071-4.5917796-1.890625-5.0527344.119019-.405162.185547-.8341009.185547-1.2773437 0-2.5190892-2.04729-4.5605469-4.5742189-4.5605469z" fill="#444" transform="translate(3 3)"/>
</svg>
