<svg xmlns="http://www.w3.org/2000/svg" fill="none" width="22" height="22" viewBox="0 0 22 22">
 <path fill="#444" d="M8 16L7.9936 6.00002H8.59987H8.66259C8.7796 5.99902 8.89528 6.03882 8.99716 6.12502L13.6827 10.125C13.8906 10.2969 13.9966 10.6484 13.9968 11C13.997 11.3515 13.8915 11.7031 13.6838 11.875L9.0034 15.875C8.90163 15.9612 8.786 16.0013 8.66899 16H8.60627H8Z"/>
 <path fill="#444" fill-rule="evenodd" d="M6 5V17H16V5H6ZM4 3C3.44772 3 3 3.44772 3 4V18C3 18.5523 3.44772 19 4 19H18C18.5523 19 19 18.5523 19 18V4C19 3.44772 18.5523 3 18 3H4ZM4 6.5H5V7.5H4V6.5ZM4 8.5H5V9.5H4V8.5ZM5 10.5H4V11.5H5V10.5ZM4 12.5H5V13.5H4V12.5ZM5 14.5H4V15.5H5V14.5ZM18 6.5H17V7.5H18V6.5ZM18 8.5H17V9.5H18V8.5ZM17 10.5H18V11.5H17V10.5ZM18 12.5H17V13.5H18V12.5ZM17 14.5H18V15.5H17V14.5Z" clip-rule="evenodd"/>
</svg>
