<svg fill="none" height="22" viewBox="0 0 22 22" width="22" xmlns="http://www.w3.org/2000/svg">
  <g fill="#444">
    <path clip-rule="evenodd" d="m6.12713 7.67411 4.54327-4.67411v4.3125l-6.9829 7.0112h-.6875v-6.64736zm2.71986 9.44819 1.82341 1.8777v-3.6719zm4.04621-12.40801v-1.71429c.5343.13619 1.048.3268 1.5347.56587l-1.2595 1.24607c-.0908-.03466-.1825-.06723-.2752-.09765zm4.1336 4.25874c.1998.63919.3077 1.32047.3077 2.02697 0 2.9371-1.8653 5.44-4.4413 6.2857v1.7143c3.4975-.8914 6.1068-4.1143 6.1068-8 0-1.18623-.2432-2.31069-.6806-3.32589zm-4.1358 5.45557v-1.3348l1.984-1.9532c-.0492 1.4256-.8443 2.6461-1.984 3.288z" fill-rule="evenodd"/>
    <path d="m17 3-14 14 2 2 14-14z"/>
  </g>
</svg>
