<svg height="22" viewBox="0 0 22 22" width="22" xmlns="http://www.w3.org/2000/svg">
  <g fill="#444" transform="translate(3 3)">
    <path d="m8 0a8 8 0 0 0 -8 8 8 8 0 0 0 8 8 8 8 0 0 0 8-8 8 8 0 0 0 -8-8zm0 1a7 7 0 0 1 7 7 7 7 0 0 1 -7 7 7 7 0 0 1 -7-7 7 7 0 0 1 7-7z"/>
    <path d="m.03515625 7.2636719c-.0022.02338-.00190625.0469125-.00390625.0703125a8 8 0 0 1 .0078125-.0585938c-.0009666-.0039-.00297625-.0077987-.00390625-.0117187zm.98046875 1.1796875a7 7 0 0 0 6.984375 6.5566406 7 7 0 0 0 6.976562-6.546875c-1.373999.925-3.989562 1.546875-6.976562 1.546875-2.997-.001-5.616175-.6266406-6.984375-1.5566406zm14.949219.2441406a8 8 0 0 1 -.054688.453125c.02153-.1504.041638-.300155.054688-.453125zm-15.92382837.1308594a8 8 0 0 0 .18554687 1.0332031c-.08046963-.3380086-.14966114-.6798423-.18554687-1.0332031zm.18554687 1.0332031c.02233741.0938272.04469773.1867845.0703125.2792965a8 8 0 0 1 -.0703125-.2792965zm.0703125.2792965a8 8 0 0 0 .33203125.982422c-.13372978-.316156-.23923292-.647265-.33203125-.982422zm15.564453-.6796871a8 8 0 0 1 -.105469.4824219c.03963-.15932.075549-.3194819.105469-.4824219zm-.183594.7832031a8 8 0 0 1 -.152343.458984c.05427-.15155.107113-.303364.152343-.458984zm-.259765.75a8 8 0 0 1 -.208985.466797c.07373-.15366.144975-.307877.208985-.466797zm-14.78710962.130859c.10393.24548.21869312.484567.34570312.716797a8 8 0 0 1 -.34570312-.716797zm14.46289062.574219a8 8 0 0 1 -.240234.421875c.0833-.13853.165254-.278045.240234-.421875zm-14.0136719.310547c.095218.16432.190565.329678.296875.486328a8 8 0 0 1 -.296875-.486328zm13.5976559.398438a8 8 0 0 1 -.232422.326171c.07915-.10778.158642-.214372.232422-.326171zm-13.0624996.40625a8 8 0 0 0 .2382812.310546c-.08338-.10008-.1578341-.206417-.2363281-.310546zm12.6015626.226562a8 8 0 0 1 -.269531.304688c.09059-.100881.184101-.199278.269531-.304688zm-12.0957032.380859c.085777.09312.1697056.188394.2597656.277344a8 8 0 0 1 -.2597656-.277344zm11.5683592.207032a8 8 0 0 1 -.277344.259765c.09312-.08578.188394-.169715.277344-.259765zm-11.0253905.328125c.10088.09059.1992775.184101.3046875.269531a8 8 0 0 1 -.3046875-.269531zm10.4511715.201172a8 8 0 0 1 -.310546.236328c.104129-.0785.210466-.152949.310546-.236328zm-9.8398434.296874c.10778.07915.2143719.158642.3261719.232422a8 8 0 0 1 -.3261719-.232422zm9.2109374.177735a8 8 0 0 1 -.486328.296875c.16432-.09522.329678-.190565.486328-.296875zm-8.5976561.230469c.13853.0833.278045.165254.421875.240234a8 8 0 0 1 -.421875-.240234zm.6601562.355468c.15366.07373.3078769.144975.4667969.208985a8 8 0 0 1 -.4667969-.208985zm6.5644529.16211c-.314767.133142-.642954.237502-.976562.330078a8 8 0 0 0 .976562-.330078zm-.976562.330078a8 8 0 0 1 -.2851565.074219c.0959809-.022825.1905515-.047966.2851565-.074219zm-.2851565.074219c-.3373889.080231-.6805237.147775-1.0332031.183593a8 8 0 0 0 1.0332031-.183593zm-4.5449219-.25c.15155.05427.3033644.107113.4589844.152343a8 8 0 0 1 -.4589844-.152343zm.7597656.230468v.001953a8 8 0 0 0 .4824219.103516c-.16294-.02992-.3231019-.065839-.4824219-.105469zm.7929688.154297c.1504.02153.300155.041638.453125.054688a8 8 0 0 1 -.453125-.054688z" opacity=".3"/>
  </g>
</svg>
