<svg height="22" viewBox="0 0 22 22" width="22" xmlns="http://www.w3.org/2000/svg">
  <path d="m2 0 2.8125 16h5.4375l3.75-16zm1.5 2c.27614 0 .5.2239.5.5s-.22386.5-.5.5-.5-.2239-.5-.5.22386-.5.5-.5zm7 0c.27614 0 .5.2239.5.5s-.22386.5-.5.5-.5-.2239-.5-.5.22386-.5.5-.5zm-2.5957031 2.0019531c1.5402-.05 2.8674121 1.0759157 3.0703121 2.6035157.21827 1.6429-.937028 3.1516406-2.5800778 3.3691406-1.6429.2182996-3.1516406-.9369781-3.3691406-2.5800782-.21827-1.6429.9370281-3.1516406 2.5800782-3.3691406.09916-.013.1988881-.0214375.2988281-.0234375zm1.5957031 6.9999999c.27614 0 .5.2239.5.5s-.22386.5-.5.5-.5-.2239-.5-.5.22386-.5.5-.5zm-3 2c.27614 0 .5.2239.5.5s-.22386.5-.5.5-.5-.2239-.5-.5.22386-.5.5-.5z" fill="#444" transform="translate(3 3)"/>
</svg>
