<svg height="22" viewBox="0 0 22 22" width="22" xmlns="http://www.w3.org/2000/svg">
  <path d="m15.810547 0c-.33111-.029-1.331541.33673438-1.681641.55273438-.78299.36519999-2.193628 1.10885942-3.861328 2.44335942.11437.0809999.227148.171925.335938.265625 1.5907-1.174 2.697468-1.6036719 3.042968-1.1386719.32403.4362-.254341 1.5080281-1.363281 2.9238281a5.0063 5.4049 0 0 0 -4.8749999-2.453125 5.0063 5.4049 0 0 0 -4.3046875 6.0683594 5.0063 5.4049 0 0 0 .3359375 1.3457026c-1.8811 2.430101-3.82969372 5.197154-3.37109372 5.814454.49605.6678 3.22615312-.641829 6.12695312-2.861328a5.0063 5.4049 0 0 0 2.53125.347656 5.0063 5.4049 0 0 0 4.3027345-6.0683596 5.0063 5.4049 0 0 0 -.230469-1.0351563c2.16-2.8602 3.584975-5.52766872 3.109375-6.16796872-.01616-.022-.050346-.03310938-.097656-.03710938zm-12.1875001 10.431641a5.0063 5.4049 0 0 0 1.5273437 1.904297c-1.4638 1.187599-2.5406594 1.756828-2.8808594 1.298828-.3375799-.4545.2035257-1.586125 1.3535157-3.203125z" fill="#444" transform="translate(3 3)"/>
</svg>
