<svg height="22" viewBox="0 0 22 22" width="22" xmlns="http://www.w3.org/2000/svg">
  <path d="m1 0v14h-1v1h1v1h1v-1h14v-1h-.84375l-.1875-.1875-.84375-.8125-1.28125-1.3125-.71875-.6875-2.125 2.09375-1.3125-1.28125-.8125-.8125-2-2h-3.875v-2h3.875l2-2 .8125-.84375 1.3125-1.28125 2.125 2.125 2-2 .84375-.84375 1.03125-1.03125v-.21875h-.21875l-.5-.46875-1.03125 1.03125-.8125.8125-1.3125 1.3125-2.125-2.125-1.53125 1.53125-.46875.46875-.84375.8125-1.6875 1.71875h-3.46875v-6zm1 10h3.46875l1.6875 1.6875.84375.84375.46875.46875 1 1h-7.46875zm10.125 2.40625 1.3125 1.28125.294922.3125h-3.201172z" fill="#444" transform="translate(3 3)"/>
</svg>
