<svg height="22" viewBox="0 0 22 22" width="22" xmlns="http://www.w3.org/2000/svg">
  <path d="m5 2v2h-2.0683594c-1.0698 0-1.9316406.9391187-1.9316406 2.1054688v5.7890622c0 1.1663.8618906 2.105469 1.9316406 2.105469h10.1367184c1.0698 0 1.931641-.939119 1.931641-2.105469v-5.7890622c0-1.1663001-.861891-2.1054688-1.931641-2.1054688h-2.068359v2h1.998047c-.002.009.001953.0262987.001953.1054688v5.7890622c0 .0791-.003953.096599-.001953.105469h-.998047v-1h-3v1h-5.9960938c.001-.009-.0039062-.026299-.0039062-.105469v-5.7890622c0-.0792001.0049062-.0965988.0039062-.1054688h1.9960938v2l4-3zm4 5v1h3v-1zm0 2v1h3v-1z" fill="#444" transform="translate(3 3)"/>
</svg>
