<svg height="22" width="22" xmlns="http://www.w3.org/2000/svg">
  <g fill="#444">
    <path d="m11.007812 3c-.166308.00989-.331632.1128756-.599609.2734375l-2.908203 1.7421875-2.8984375 1.7363281c-.638198.358215-.5518475.1965221-.6015625.8828125v1.2578125c0 .059578.0380375.1074219.0859375.1074219h.9140625v.4277344 7.1445316.427734h-.2324219c-.424987 0-.7675781.378053-.7675781.847656v1.152344h9.541016a4 4 0 0 1 -.541016-2 4 4 0 0 1 .132812-1h-1.132812v-6h3v3.541016a4 4 0 0 1 2-.541016v-3.5722656-.4277344h.914062c.0479 0 .085938-.047844.085938-.1074219v-1.2304687c-.0014-.7238546-.01687-.5594669-.625-.9238282l-2.875-1.7226562-2.892578-1.7324219c-.267663-.2096236-.4333-.2930885-.59961-.2832031zm-4.007812 7h3v6h-3z"/>
    <path d="m17 14c-1.656857 0-3 1.343143-3 3s1.343143 3 3 3 3-1.343143 3-3-1.343143-3-3-3zm-.214286.830357c.02867-.003.06482.0017.09375 0 .0034.01371-.02087.06252-.05357.133929-.208226.454885-.220037.987578-.02679 1.272321.03497.05163.06696.100757.06696.107143 0 .0064-.03771.01339-.08036.01339-.100105 0-.194837-.06102-.388393-.214286-.08598-.06809-.197764-.125271-.241071-.133928-.06801-.01359-.08613-.0076-.174107.08036-.08185.08184-.107143.12597-.107143.200893 0 .284117.33732.509957.964286.642857.851443.180458 1.061335.342458 1.084821.790178.02949.561429-.269421.984772-.924107 1.3125-.07814.03913-.127929.05432-.160714.06696-.01453-.0013-.02569.0013-.04018 0-.0056-.01736-.01339-.05763-.01339-.133928 0-.298192-.117535-.605143-.294643-.776786-.04754-.04608-.180651-.143721-.294642-.214286-.113988-.07056-.228836-.152528-.254465-.1875-.04247-.05803-.04602-.09369-.01339-.200893.05947-.195801.130252-.304855.267858-.428571.07214-.06486.144732-.11925.160714-.120536.01599-.0013-.09221-.03377-.254464-.06696-.162249-.03326-.399609-.102908-.522322-.147321-.224391-.08119-.527357-.25164-.642857-.375-.0049-.0052-.0091-.0088-.01339-.01339.165484-.659186.629893-1.199464 1.245536-1.459822.128816-.05448.261608-.09186.401786-.120535.06982-.01427.142191-.01946.214285-.02679zm2.008929 1.004465c.05034.03111.24039.442285.294643.642857.07005.258938.06498.707057 0 .964285-.02473.0979-.05642.189493-.06696.200893s-.04878-.05423-.09375-.133928c-.04498-.07969-.18864-.249022-.308035-.375-.344632-.363656-.398825-.553522-.254465-.84375.0728-.146353.389615-.4794.428572-.455357z"/>
  </g>
</svg>
