<svg height="22" viewBox="0 0 22 22" width="22" xmlns="http://www.w3.org/2000/svg">
  <path d="m12.613281.20507812a.50005.50005 0 0 0 -.470703.57421876l.283203 2.08593752-1.037109 1.0371094-.302734-2.2304688a.50005.50005 0 0 0 -.521485-.4394531.50005.50005 0 0 0 -.46875.5742187l.404297 2.984375-1.7089844 1.7089844h-2.2910156v1.40625l-1.2304688.3515625-.2597656-1.921875a.50005.50005 0 0 0 -.5214844-.4394531.50005.50005 0 0 0 -.4707031.5722656l.28125 2.0664062-1.6875.4824219-.2402343-1.765625a.50005.50005 0 0 0 -.5214844-.4394531.50005.50005 0 0 0 -.4707032.5742188l.2597657 1.9101562-.77539065.2207031a.50005.50005 0 1 0 .27343755.9609379l.6367187-.181641.3867187 2.833984-1.51367182 1.513672a.50005.50005 0 1 0 .70703122.707031l.9746094-.974609.0976562.712891a.50005.50005 0 1 0 .9902344-.132813l-.1992187-1.46875 1.5449219-1.544922.3027343 2.230469a.50005.50005 0 1 0 .9902344-.134766l-.4042969-2.984374 1.5546875-1.554688h2.2949219v-1.4101562l1.394531-.3984376.246094 1.8183594a.50052.50052 0 0 0 .992187-.1328125l-.267578-1.9628906 1.134766-.3242187.189453 1.3945312a.50006301.50006301 0 1 0 .990235-.1347656l-.208985-1.5371094 1.166016-.3339844a.50005.50005 0 0 0 -.140625-.9824218.50005.50005 0 0 0 -.132813.0214843l-1.027343.2929688-.351563-2.5898438 1.869141-1.8691406a.50005.50005 0 0 0 -.363282-.85742188.50005.50005 0 0 0 -.34375.15039063l-1.332031 1.33203125-.179687-1.33203125a.50005.50005 0 0 0 -.521485-.43945313zm-.017578 3.90429688.267578 1.9804688-1.132812.3222656-.171875-1.265625zm-1.925781 1.9257812.08789.65625-1.0410151.296875zm-4.3867189 2.9726563-.8027343.8027344-.0742188-.5527344zm-1.8496093.5292969.1582031 1.1621096-1.5429688 1.542969-.3027343-2.22461z" fill="#444" transform="translate(3 3)"/>
</svg>
