<svg height="22" viewBox="0 0 22 22" width="22" xmlns="http://www.w3.org/2000/svg">
  <path d="m3.5 1c-1.3807 0-2.5 1.1193-2.5 2.5.0001 1.1879.8361 2.2116187 2 2.4492188v4.0039062c-1.1632.23743-1.9989 1.260066-2 2.447266 0 1.3807 1.1193 2.5 2.5 2.5s2.5-1.1193 2.5-2.5c-.0001-1.187-.8361-2.211419-2-2.4492191v-4.0058594c.3899-.0782.7554063-.2482938 1.0664062-.4960937l1.2128907.9082031c-.1826.3532-.2783969.7448781-.2792969 1.1425781 0 1.3807 1.1193 2.5 2.5 2.5s2.5-1.1193 2.5-2.5-1.1193-2.5-2.5-2.5c-.592.0011-1.1643344.2122031-1.6152344.5957031l-1.1933594-.8925781c.2024-.3687.3085938-.782525.3085938-1.203125 0-1.3807-1.1193-2.5-2.5-2.5zm8 8-.21875.1875-3.28125 2.8125h2v3h3v-3h2l-3.28125-2.8125z" fill="#444" transform="translate(3 3)"/>
</svg>
