<svg height="22" viewBox="0 0 22 22" width="22" xmlns="http://www.w3.org/2000/svg">
  <path d="m8.7148438 1.2890625c-1.6102001 0-3.0782563.6509656-4.1601563 1.6972656a6.5 6.5 0 0 1 2.4453125-.4824219 6.5 6.5 0 0 1 6.5 6.5 6.5 6.5 0 0 1 -.482422 2.4433598c1.046-1.082 1.697266-2.5481035 1.697266-4.1582035 0-3.2934-2.7068-6-6.0000002-6zm-1.7148438 1.7109375c-3.2934 0-6 2.7066-6 6s2.7066 6 6 6 6-2.7066 6-6-2.7066-6-6-6zm0 4.2851562c.9417 0 1.7148438.7731338 1.7148438 1.7148438 0 .94169-.7731338 1.714844-1.7148438 1.714844-.9417 0-1.7148437-.773144-1.7148438-1.714844 0-.9417.7731338-1.7148438 1.7148438-1.7148438z" fill="#444" transform="translate(3 3)"/>
</svg>
