<svg height="22" width="22" xmlns="http://www.w3.org/2000/svg">
  <g fill="#444">
    <path d="m7 10-4 3.239999 4 3.760001v-2.02h2.0626397c.9771093 0 1.8409673.628812 2.1029083 1.44.313293.9702-1.029082 2.58-1.029082 2.58s2.863534-.88 2.863534-3.220001c0-2.248919-1.431767-3.779999-3.5794184-3.779999h-2.4205816z"/>
    <path d="m15 12 4-3.239999-4-3.760001v2.02h-2.06264c-.977109 0-1.840967-.628812-2.102908-1.44-.313293-.9702 1.029082-2.58 1.029082-2.58s-2.863534.88-2.863534 3.220001c0 2.248919 1.431767 3.779999 3.579418 3.779999h2.420582z"/>
    <path d="m16 14v2h-2v2h2v2h2v-2h2v-2h-2v-2z"/>
  </g>
</svg>
