<svg height="22" viewBox="0 0 22 22" width="22" xmlns="http://www.w3.org/2000/svg">
  <path d="m8 .75976562-8 7.81054688 1.5234375 1.5566405 1.1425781-.986328.7617188 6.095703h9.1445316l.761718-6.095703 1.142578.953125 1.523438-1.5234375zm0 5.33398438c1.2624 0 2.285156 1.0228563 2.285156 2.2851562 0 1.2624001-1.022856 2.2851558-2.285156 2.2851558-1.2624 0-2.2851562-1.0228558-2.2851562-2.2851558 0-1.2624 1.0228562-2.2851562 2.2851562-2.2851562zm0 6.095703c.42079 0 .7617188.340929.7617188.761719 0 .42078-.3409288.761719-.7617188.761719s-.7617188-.340939-.7617188-.761719c0-.42079.3409288-.761719.7617188-.761719z" fill="#444" transform="translate(3 3)"/>
</svg>
