<svg width="22" height="22" viewBox="0 0 22 22" fill="none" xmlns="http://www.w3.org/2000/svg">
<path d="M13.4981 10.3717C13.498 10.3908 13.4978 10.4079 13.4977 10.4232L13.4954 10.4285L13.4953 10.5C13.4953 10.5 13.4953 10.5 13.4953 10.5H8.5096C8.50743 10.4998 8.50409 10.4994 8.49991 10.4988V4.50262H8.49993H11.8L13.4957 6.08651C13.497 6.7185 13.499 7.73645 13.4998 8.63895C13.5002 9.14628 13.5002 9.61671 13.4996 9.96147C13.4993 10.134 13.4988 10.2743 13.4981 10.3717ZM13.5322 10.4966C13.5322 10.4966 13.5318 10.4967 13.531 10.4969L13.5322 10.4966Z" stroke="#444444"/>
<path d="M16.4982 17.3717C16.4981 17.3908 16.4979 17.4079 16.4978 17.4232L16.4955 17.4285L16.4954 17.5C16.4954 17.5 16.4954 17.5 16.4954 17.5H11.5097C11.5075 17.4998 11.5042 17.4994 11.5 17.4988V11.5026H11.5H14.8001L16.4958 13.0865C16.4971 13.7185 16.4991 14.7364 16.4998 15.6389C16.5003 16.1463 16.5003 16.6167 16.4997 16.9615C16.4994 17.134 16.4989 17.2743 16.4982 17.3717ZM16.5323 17.4966C16.5323 17.4966 16.5319 17.4967 16.5311 17.4969L16.5323 17.4966Z" stroke="#444444"/>
<path d="M5.50181 17.3724C5.50194 17.3914 5.50208 17.4085 5.50223 17.4238L5.50453 17.4291L5.50459 17.5006C5.50461 17.5006 5.50463 17.5006 5.50464 17.5006H10.4903C10.4925 17.5004 10.4958 17.5 10.5 17.4994V11.5032H10.5H7.19994L5.50417 13.0871C5.50287 13.7191 5.50092 14.7371 5.50016 15.6396C5.49973 16.1469 5.49967 16.6173 5.5003 16.9621C5.50062 17.1346 5.50111 17.2749 5.50181 17.3724ZM5.46774 17.4972C5.46773 17.4972 5.4681 17.4973 5.4689 17.4975L5.46774 17.4972Z" stroke="#444444"/>
</svg>
