<svg width="22" height="22" viewBox="0 0 22 22" fill="none" xmlns="http://www.w3.org/2000/svg">
<path d="M6 10.38C5.73478 10.38 5.48043 10.4854 5.29289 10.6729C5.10536 10.8604 5 11.1148 5 11.38V17.38C5 18.6612 7 18.5987 7 17.38V12.38H12.586L15 14.794V17.38C15 17.6452 15.1054 17.8996 15.2929 18.0871C15.4804 18.2746 15.7348 18.38 16 18.38C16.2652 18.38 16.5196 18.2746 16.7071 18.0871C16.8946 17.8996 17 17.6452 17 17.38V14.38C16.9999 14.1148 16.8945 13.8605 16.707 13.673L13.707 10.673C13.5195 10.4854 13.2652 10.3801 13 10.38H6Z" fill="#444444"/>
<path d="M5 3.62V8.63C5 9.63 6 9.63 6 9.63H16C16 9.63 17 9.63 17 8.63V3.6395H15V7.626H7V3.62H5Z" fill="#444444"/>
</svg>
