<svg width="22" height="22" viewBox="0 0 22 22" fill="none" xmlns="http://www.w3.org/2000/svg">
<path fill-rule="evenodd" clip-rule="evenodd" d="M17.871 15.8429C17.8711 15.8277 17.8712 15.8115 17.8713 15.7945C17.8722 15.6316 17.8728 15.3974 17.8732 15.1093C17.8741 14.5337 17.874 13.7483 17.8734 12.9014C17.8724 11.3959 17.8699 9.69793 17.8682 8.64272L15.7801 6.16165H12V15.8429H17.871ZM11.6562 5.16165C11.6562 5.16165 11.6152 5.1495 11.5536 5.16165C11.3692 5.19815 11 5.35694 11 5.94094V16.0636C11 16.8423 11.6562 16.8429 11.6562 16.8429H18.2114C18.867 16.8429 18.8676 16.0636 18.8676 16.0636C18.8799 16.0277 18.8708 10.2606 18.8676 8.2772L16.2455 5.16165H11.6562Z" fill="#444444"/>
<path fill-rule="evenodd" clip-rule="evenodd" d="M4.12904 15.8438C4.12894 15.8285 4.12884 15.8123 4.12874 15.7953C4.12783 15.6325 4.12719 15.3982 4.12677 15.1101C4.12594 14.5345 4.12601 13.7492 4.12658 12.9022C4.12758 11.3967 4.13013 9.69874 4.13184 8.64353L6.21994 6.16246H10V15.8438H4.12904ZM10.3438 5.16246C10.3438 5.16246 10.3848 5.15031 10.4464 5.16246C10.6308 5.19896 11 5.35774 11 5.94175V16.0645C11 16.8431 10.3438 16.8438 10.3438 16.8438H3.7886C3.13295 16.8438 3.13243 16.0645 3.13243 16.0645C3.1201 16.0286 3.12915 10.2614 3.13243 8.27801L5.75453 5.16246H10.3438Z" fill="#444444"/>
<path d="M6.12625 9H4.03241H3.81366V8.4375L6.06366 5.875H7.12616V8C7.12616 8.55228 6.67853 9 6.12625 9Z" fill="#444444"/>
<path d="M15.5948 9H17.6887H17.9074V8.4375L15.6574 5.875H14.5949V8C14.5949 8.55228 15.0425 9 15.5948 9Z" fill="#444444"/>
</svg>
