<svg height="22" viewBox="0 0 22 22" width="22" xmlns="http://www.w3.org/2000/svg">
  <path d="m7.5 0v1.8125h1v-1.8125zm-4.8125 1.96875-.71875.71875 1.28125 1.3125.71875-.75zm10.623047 0-1.279297 1.28125.71875.75 1.28125-1.3125zm-5.310547 1.03125c-2.7614 0-5 2.2386-5 5 0 2.761 2.2386 5 5 5 2.761 0 5-2.239 5-5 0-2.7614-2.239-5-5-5zm0 2a3 3 0 0 1 3 3 3 3 0 0 1 -3 3 3 3 0 0 1 -3-3 3 3 0 0 1 3-3zm-8 2.5v1h1.8125v-1zm14.1875 0v1h1.8125v-1zm-10.9375 4.53125-1.28125 1.28125.71875.71875 1.28125-1.28125zm9.5 0-.71875.71875 1.279297 1.28125.720703-.71875zm-5.25 2.15625v1.8125h1v-1.8125z" fill="#444" transform="translate(3 3)"/>
</svg>
