<svg xmlns="http://www.w3.org/2000/svg" width="16" height="16" version="1.1">
 <title id="title9167">
  Gnome Symbolic Icon Theme
 </title>
 <g id="layer12" transform="translate(-121.00015,-667)">
  <path d="m 125,673 0,2 6.5,0 c 0.84027,0 1.5,0.65973 1.5,1.5 0,0.84027 -0.65973,1.5 -1.5,1.5 l -0.5,0 0,2 0.5,0 c 1.92115,0 3.5,-1.57885 3.5,-3.5 0,-1.92115 -1.57885,-3.5 -3.5,-3.5 l -6.5,0 z" style="fill:#e6ddff"/>
  <path d="m 128,670.0221 0,1 c 0,0.25689 -0.12983,0.52846 -0.3125,0.71875 l -2.28125,2.28125 2.28125,2.28125 c 0.18267,0.19029 0.3125,0.46186 0.3125,0.71875 l 0,1 -1,0 c -0.30945,0 -0.55232,-0.0903 -0.75,-0.28125 l -3.65625,-3.71875 3.65625,-3.71875 c 0.19768,-0.19095 0.44055,-0.28125 0.75,-0.28125 z" style="fill:#e6ddff"/>
 </g>
</svg>
