<svg xmlns="http://www.w3.org/2000/svg" width="16" height="16" version="1.1">
 <title id="title9167">
  Gnome Symbolic Icon Theme
 </title>
 <g id="layer12" transform="translate(-100.12495,-606)">
  <g transform="matrix(-1,0,0,1,136.06255,119)">
   <path d="m 34.00005,491 c -0.177384,0.008 -0.351174,0.0592 -0.5,0.15625 l -5,3 c -0.282396,0.17971 -0.4375,0.51173 -0.4375,0.84375 0,0.33202 0.155104,0.66404 0.4375,0.84375 l 5,3 c 0.148826,0.097 0.322616,0.14825 0.5,0.15625 l 0.15625,0 0.84375,0 0,-8 -0.84375,0 z" style="fill:#e6ddff"/>
   <path d="m 27.00005,491 c -0.177384,0.008 -0.351174,0.0592 -0.5,0.15625 l -5,3 c -0.282396,0.17971 -0.4375,0.51173 -0.4375,0.84375 0,0.33202 0.155104,0.66404 0.4375,0.84375 l 5,3 c 0.148826,0.097 0.322616,0.14825 0.5,0.15625 l 0.15625,0 0.84375,0 0,-8 -0.84375,0 z" style="fill:#e6ddff"/>
  </g>
 </g>
</svg>
