<svg xmlns="http://www.w3.org/2000/svg" fill="none" width="16" height="16" version="1.1" viewBox="0 0 16 16">
 <path fill-rule="evenodd" d="m 4.78746,0 h 0.53871 0.00391 3.33594 2.00388 0.0039 0.5371 c 1.4079,0.0136935 2.4797,0.0207348 3.3731,0.513672 0.5018,0.27688 0.8976,0.745198 1.1172,1.330078 0.2196,0.58489 0.2988,1.27944 0.2988,2.15625 v 8 c 0,0.8768 -0.0808,1.5714 -0.3008,2.1562 -0.2195,0.5849 -0.6153,1.0533 -1.1172,1.3301 -0.893,0.4928 -1.9628,0.4999 -3.3696,0.5092 -0.1742,0.0012 -0.3537,0.0024 -0.5386,0.0045 h -0.0039 -5.33982 -0.00391 c -1.67759,-0.0194 -3.23113,-0.1391 -3.91015,-0.5137 -0.501834,-0.2768 -0.897632,-0.7452 -1.117192,-1.3301 -0.2195799,-0.5848 -0.298828,-1.2794 -0.298828,-2.1562 v -8 c 0,-0.87681 0.0792681,-1.57137 0.298828,-2.15625 0.21956,-0.58488 0.615358,-1.053218 1.117192,-1.330078 0.89302,-0.4927802 1.96437,-0.4998699 3.37144,-0.513672 z m 6.96644,2.36328 c -0.1277,-0.07366 -0.2647,-0.11776 -0.4023,-0.13476 -0.413,-0.05116 -0.8353,0.14411 -1.0567,0.52734 -0.2947,0.51061 -0.12,1.16228 0.3906,1.45703 0.511,0.29511 1.1643,0.12034 1.459,-0.39062 0.2951,-0.51097 0.1204,-1.16389 -0.3906,-1.45899 z m -3.2539,0.9961 c 0.42942,0 0.84558,0.061 1.24023,0.16992 0.0697,0.42925 0.32437,0.8242 0.73047,1.05859 0.4054,0.23368 0.8732,0.2569 1.2793,0.10352 0.7898,0.77677 1.3041,1.83321 1.3789,3.00976 l -1.5215,0.02149 c -0.1401,-1.59361 -1.4776,-2.84375 -3.1074,-2.84375 -0.46948,0 -0.91521,0.10534 -1.31445,0.29101 l -0.74219,-1.33008 c 0.61969,-0.30693 1.31816,-0.48046 2.05664,-0.48046 z m -1.79297,2.08789 -0.78125,-1.3086 c -0.93456,0.62463 -1.62904,1.57932 -1.91797,2.69727 0.33711,0.27516 0.55274,0.69457 0.55274,1.16406 0,0.46913 -0.21563,0.8889 -0.55274,1.16406 0.28857,1.11834 0.98305,2.07264 1.91797,2.69724 l 0.78125,-1.3086 c -0.80219,-0.56423 -1.32617,-1.49706 -1.32617,-2.5527 0,-1.05546 0.52398,-1.98811 1.32617,-2.55273 z m -2.57812,2.55273 c -1.8e-4,-0.59021 -0.47868,-1.06836 -1.06836,-1.06836 -0.59021,0 -1.06836,0.47815 -1.06836,1.06836 0,0.58986 0.47815,1.06836 1.06836,1.06836 0.58986,0 1.06836,-0.4785 1.06836,-1.06836 z m 7.47849,0.27734 1.5215,0.02149 c -0.0748,1.17655 -0.5891,2.23317 -1.3789,3.00977 -0.4061,-0.1534 -0.8735,-0.1305 -1.2793,0.1035 -0.4061,0.2348 -0.66077,0.6294 -0.73047,1.0586 -0.39466,0.1092 -0.81063,0.1699 -1.24023,0.1699 -0.73829,0 -1.43678,-0.1733 -2.05664,-0.4804 l 0.74219,-1.3301 c 0.39906,0.1858 0.84497,0.289 1.31445,0.289 1.6298,0 2.9673,-1.24762 3.1074,-2.84176 z m 0.5371,3.90036 c -0.2212,-0.3828 -0.6437,-0.5784 -1.0566,-0.5273 -0.1376,0.017 -0.2748,0.0611 -0.4024,0.1348 -0.5109,0.2951 -0.68568,0.9483 -0.3906,1.4589 0.2948,0.511 0.948,0.6858 1.459,0.3907 0.511,-0.2948 0.6857,-0.9461 0.3906,-1.4571 z" clip-rule="evenodd" style="fill:#e66100"/>
 <defs>
  <clipPath id="clip0">
   <rect fill="#fff" width="16" height="16"/>
  </clipPath>
 </defs>
</svg>
