<svg xmlns="http://www.w3.org/2000/svg" fill="none" width="16" height="16" version="1.1" viewBox="0 0 16 16">
 <path fill="#E01B24" d="m 5.67851,6.82149 1.17851,1.17851 -1.17851,1.17851 1.17851,1.17849 1.17851,-1.17849 1.17852,1.17849 1.17855,-1.17849 -1.17855,-1.17851 1.17855,-1.17851 -1.17855,-1.17851 -1.17852,1.17851 -1.17851,-1.17851 z"/>
 <path fill="#E6DDFF" d="m 0,6.1 c 0,-0.33137 0.268629,-0.6 0.6,-0.6 h 3.8 c 0.33137,0 0.6,0.26863 0.6,0.6 v 3.8 c 0,0.3314 -0.26863,0.6 -0.6,0.6 h -3.8 c -0.331371,0 -0.6,-0.2686 -0.6,-0.6 z"/>
 <path fill="#E6DDFF" d="m 11,6.1 c 0,-0.33137 0.2686,-0.6 0.6,-0.6 h 3.8 c 0.3314,0 0.6,0.26863 0.6,0.6 v 3.8 c 0,0.3314 -0.2686,0.6 -0.6,0.6 h -3.8 c -0.3314,0 -0.6,-0.2686 -0.6,-0.6 z"/>
 <defs>
  <clipPath id="clip0">
   <rect fill="#fff" width="16" height="16"/>
  </clipPath>
 </defs>
</svg>
