<svg fill="none" height="16" viewBox="0 0 16 16" width="16" xmlns="http://www.w3.org/2000/svg">
  <path d="m13.6 1h-11.2c-.7732 0-1.4.6268-1.4 1.4v11.2c0 .7732.6268 1.4 1.4 1.4h11.2c.7732 0 1.4-.6268 1.4-1.4v-11.2c0-.7732-.6268-1.4-1.4-1.4z" fill="#2ec27e"/>
  <path d="m7.42857 3c-.57307 0-1.07143.46136-1.07143 1.0345v1.10836h-2.1675c-.38207 0-.68964.23371-.68964.61578v2.24136h1.0345c.57307 0 1.10836.49836 1.10836 1.07143 0 .57286-.53529 1.07147-1.10836 1.07147h-1.0345v2.1671c0 .3821.30757.69.68964.69h2.1675v-.69c0-.5729.0125-1.4236 1.07143-1.4529 1.05893-.0292 1.07143.9229 1.07143 1.4529v.69h2.2414c.3822 0 .6157-.3079.6157-.69v-2.1671h1.1086c.5729 0 1.0343-.49861 1.0343-1.07147 0-.57307-.4679-.98336-1.0343-1.07143h-1.1086v-2.24136c0-.38207-.2335-.61578-.6157-.61578h-2.2414v-1.10836c0-.57314-.49836-1.0345-1.07143-1.0345z" fill="#f6f5f4"/>
</svg>
