<svg fill="none" height="16" viewBox="0 0 16 16" width="16" xmlns="http://www.w3.org/2000/svg">
  <path d="m13.6 1h-11.2c-.7732 0-1.4.6268-1.4 1.4v11.2c0 .7732.6268 1.4 1.4 1.4h11.2c.7732 0 1.4-.6268 1.4-1.4v-11.2c0-.7732-.6268-1.4-1.4-1.4z" fill="#9a9996"/>
  <g fill="#f6f5f4">
    <path d="m5.20001 10.2222c0 .7367.29266 1.4433.81359 1.9642.52094.5209 1.22748.8136 1.96419.8136s1.44325-.2927 1.96419-.8136c.52092-.5209.81362-1.2275.81362-1.9642 0-.73669-.2927-1.44323-.81362-1.96416-.52094-.52094-1.22748-.8136-1.96419-.8136s-1.44325.29266-1.96419.8136c-.52093.52093-.81359 1.22747-.81359 1.96416zm1.11111 0c0-.44201.1756-.86593.48816-1.17849s.73648-.48815 1.17851-.48815.86595.17559 1.17851.48815.48816.73648.48816 1.17849c0 .442-.1756.866-.48816 1.1785-.31256.3126-.73648.4882-1.17851.4882s-.86595-.1756-1.17851-.4882c-.31256-.3125-.48816-.7365-.48816-1.1785z"/>
    <path d="m7.42224 3v5.55556h1.11111v-5.55556z"/>
    <path d="m8.53333 4.11112v1.11111h1.11111v-1.11111z"/>
  </g>
</svg>
