<svg fill="none" height="16" viewBox="0 0 16 16" width="16" xmlns="http://www.w3.org/2000/svg">
  <path d="m13.6 1h-11.2c-.7732 0-1.4.6268-1.4 1.4v11.2c0 .7732.6268 1.4 1.4 1.4h11.2c.7732 0 1.4-.6268 1.4-1.4v-11.2c0-.7732-.6268-1.4-1.4-1.4z" fill="#3584e4"/>
  <g fill="#f6f5f4">
    <path d="m6.00390625 3.9453125c-.22707 0-.441885.04239313-.640625.12695313-.19745.0807-.37206812.1983325-.51757812.3515625l-.00195313.00195312v.00195313c-.14165.15409999-.25281812.33849812-.33007812.54882812-.07946.22013-.11806438.45348-.11523438.6875 0 .24895.03668438.48108625.11523438.69140625.07726.20689.18842812.38930875.33007812.54296875l.00195313.00195313c.14508.15281.319035.27329187.515625.35742187l.00195312.00195313c.19831.0807.413985.11914062.640625.11914062.22663 0 .442315-.03844062.640625-.11914062v-.00195313c.19362-.08194.36667563-.20338187.50976563-.35742187.14594-.15367.2582375-.33717188.3359375-.54492188.07898-.21032.1171875-.44354937.1171875-.69335937h.00390625c0-.24595-.0386375-.47564688-.1171875-.68554688-.07283-.2046-.18568438-.39212125-.33398438-.55078125-.14303-.15421-.31862187-.27479563-.51367187-.35351562-.20328-.0852-.42217813-.12861313-.64257813-.12695313zm.01367188 4.30273438c-1.23663 0-1.90091125.11613125-2.39453125.48828125-.24681.18629-.40966313.43906499-.50195313.734375-.09185.29531-.12066375.51982937-.12109375.91210937l.4296875.00195312h5.15039063.4296875c0-.39274999-.02923375-.61875249-.12109375-.91406249-.09143001-.29531001-.25362-.548515-.5-.734375-.49319-.37258-1.13446375-.48828125-2.37109375-.48828125z"/>
    <path d="m9.99609375 5.61523438c-.22706 0-.44383812.04239312-.64257812.12695312-.19745.0807-.37206813.1983325-.51757813.3515625v.00195313l-.00195312.00195312c-.14165.15409-.250865.33849813-.328125.54882813-.07946.22013-.1200175.45348-.1171875.6875 0 .24895.0386375.48108625.1171875.69140625.07726.20689.186475.38930875.328125.54296875l.00195312.00195312c.14508.15281.319035.27329188.515625.35742188l.00390625.00195312c.19831.0807.413995.11914063.640625.11914063s.44037188-.03844063.63867187-.11914063v-.00195312c.1937-.08194.36861875-.20338188.51171876-.35742188.146-.15367.25628437-.33717187.33398437-.54492187.0789-.21032.1171875-.44354938.1171875-.69335938h.00390625c0-.24596-.03663438-.47565687-.11523438-.68554687-.0728-.2046-.18763749-.39212125-.3359375-.55078125-.1431-.15421-.31867187-.27480563-.51367187-.35351563-.2033-.0852-.420195-.12861312-.640625-.12695312zm.01171875 4.30273437c-1.23661 0-1.90091125.11608125-2.39453125.48828125-.24681.1863-.40966312.439075-.50195312.734375-.09185.2953-.12066375.51980937-.12109375.91210938l.4296875.00195312h5.15039062.4296875c0-.3928-.02919375-.6187625-.12109375-.9140625-.0914-.2954-.2537-.548475-.5-.734375-.4932-.3726-1.13449375-.48828125-2.37109375-.48828125z"/>
  </g>
</svg>
