<svg fill="none" height="16" viewBox="0 0 16 16" width="16" xmlns="http://www.w3.org/2000/svg">
  <path d="m13.6 1h-11.2c-.7732 0-1.4.6268-1.4 1.4v11.2c0 .7732.6268 1.4 1.4 1.4h11.2c.7732 0 1.4-.6268 1.4-1.4v-11.2c0-.7732-.6268-1.4-1.4-1.4z" fill="#9a9996"/>
  <path clip-rule="evenodd" d="m7.43951 3.02933c-2.4943.27965-4.43951 2.39965-4.43951 4.96916 0 2.75851 2.24201 5.00151 4.99951 5.00151 2.75799 0 5.00049-2.243 5.00049-5.00151 0-2.53251-1.8915-4.62566-4.33449-4.95311 0 0-.6824-.09037-1.22605-.01605zm.22735.67605v1.6835c-.47737-.01685-.93385-.06745-1.35575-.14721.06336-.14855.12979-.29163.20224-.4221.33398-.6014.73731-.97655 1.15351-1.1142zm.71415.02791c.03755.0062.07569.01058.11298.01744.37608.16465.73751.52195 1.04121 1.06885.07111.12805.13639.26824.19876.41373-.41998.08185-.87605.13498-1.35296.15419zm-2.196.28465c-.105.1429-.2055.2925-.2955.4549-.104.18675-.1965.38905-.282.60015-.23-.0675-.444-.1442-.63945-.2283.35345-.3403.76445-.62035 1.21695-.82675zm3.79806.16745c.42163.1311.74423.39828 1.04823.6593-.183.0788-.3815.15125-.5955.2158-.084-.20645-.1745-.4047-.276-.58765-.0555-.0999-.115-.1946-.17653-.28745zm-5.46752 1.1716c.00745.02679-.0123-.03599-.003-.0086.25756.12025.56376.31241.86576.40285-.15618.55835-.25291 1.1718-.27896 1.82026h-1.45271c.08015-.82901.39335-1.58701.86915-2.21451zm6.97305.006c.4731.62645.7844 1.38205.8641 2.20821h-1.4032c-.0262-.65331-.1242-1.27116-.2824-1.83286.2852-.08745.5694-.25393.8142-.36825.0107-.02516-.0015.01761.0073-.0071zm-1.51478.55185c.14208.5003.23418 1.0604.26078 1.65631h-1.85366v-1.46936c.56111-.02059 1.09716-.08399 1.59286-.18698zm-3.90196.01047c.49686.1003 1.0338.16015 1.59495.17791v1.46796h-1.853c.0265-.59186.11759-1.14816.25804-1.64586zm-2.43256 2.36031h1.45966c.02675.66625.1277 1.2964.29151 1.86698-.32116.0417-.8736.3666-.9021.3826-.56115-.68555-.78785-1.30855-.8489-2.25005zm2.17451 0h1.853v1.51815c-.55645.01757-1.0891.07634-1.5824.17512-.14799-.50955-.24325-1.08285-.27059-1.6933zm2.5671 0h1.85369c-.0275.61455-.1237 1.19165-.27336 1.70375-.49215-.10146-1.02395-.16381-1.58031-.18419zm2.56849 0h1.4102c-.0561.86505-.3118 1.6096-.7967 2.26468-.2269-.1432-.6409-.2926-.9085-.3851.1659-.57388.2681-1.20848.295-1.87953zm-3.28264 2.23258v1.6326c-.416-.138-.8195-.5115-1.1535-1.113-.065-.117-.125-.244-.1825-.376.41649-.0777.8662-.1271 1.3362-.1437zm.71415.0014c.46995.0188.91921.0702 1.33411.15-.05683.1291-.1161.2535-.17993.3684-.33403.6015-.7378.9751-1.15421 1.1128zm-2.7547.3091c.08052.1945.16659.3826.26292.5561.13636.2455.29199.4684.46168.667-.547-.2224-1.0399-.5496-1.44991-.9608.21815-.0977.46176-.1858.72531-.2623zm4.79119.0126c.2466.0734.4747.1574.6806.2497-.3906.3917-.8558.7086-1.37178.93.15892-.1905.30418-.404.43308-.6363.0943-.1697.1789-.3535.258-.5435z" fill="#f6f5f4" fill-rule="evenodd"/>
</svg>
