<svg fill="none" height="16" viewBox="0 0 16 16" width="16" xmlns="http://www.w3.org/2000/svg">
  <path d="m13.6 1h-11.2c-.7732 0-1.4.6268-1.4 1.4v11.2c0 .7732.6268 1.4 1.4 1.4h11.2c.7732 0 1.4-.6268 1.4-1.4v-11.2c0-.7732-.6268-1.4-1.4-1.4z" fill="#a51d2d"/>
  <path d="m8.95042 5.53541c0 .76487-.02832 1.47781-.08498 2.13881s-.1322 1.33145-.22663 2.01133h-1.61473c-.09443-.67988-.17469-1.35033-.24079-2.01133-.05666-.661-.08499-1.37394-.08499-2.13881v-2.53541h2.25212zm.18414 6.16149c0 .4155-.13692.7365-.41076.9632-.2644.2266-.56658.3399-.90652.3399s-.64684-.1133-.92068-.3399c-.2644-.2267-.3966-.5477-.3966-.9632s.1322-.7366.3966-.9632c.27384-.2266.58074-.3399.92068-.3399s.64212.1133.90652.3399c.27384.2266.41076.5477.41076.9632z" fill="#f6f5f4"/>
</svg>
