<svg height="16" width="16" xmlns="http://www.w3.org/2000/svg">
  <path d="m6.25215.99889-.1543 1.8438a5.5 5.5 0 0 0 -1.6074.92969l-1.6758-.78906-1.75 3.0312 1.5215 1.0566a5.5 5.5 0 0 0 -.084.92773 5.5 5.5 0 0 0 .0801.93164l-1.5176 1.0527 1.75 3.0312 1.6719-.7871a5.5 5.5 0 0 0 1.6113.92382l.15 1.85h3.5l.1543-1.8438a5.5 5.5 0 0 0 1.6074-.92969l1.6758.78906 1.75-3.0312-1.5215-1.0566a5.5 5.5 0 0 0 .084-.92773 5.5 5.5 0 0 0 -.0801-.93164l1.5176-1.0527-1.75-3.0312-1.6719.7871a5.5 5.5 0 0 0 -1.6113-.92382l-.15-1.85zm1.75 5a2 2 0 0 1 2 2 2 2 0 0 1 -2 2 2 2 0 0 1 -2-2 2 2 0 0 1 2-2z" fill="#e6ddff"/>
</svg>
