<svg height="16" width="16" xmlns="http://www.w3.org/2000/svg">
  <g fill="#474747">
    <path d="m3.195 0a2.215 2.215 0 0 0 -2.195 2.201v7.599c0 1.199.993 2.2 2.195 2.2h6.61a2.215 2.215 0 0 0 2.195-2.201v-7.599c0-1.199-.994-2.2-2.196-2.2zm.305 2h6c.277 0 .5.223.5.5v7c0 .277-.223.5-.5.5h-6a.499.499 0 0 1 -.5-.5v-7c0-.277.223-.5.5-.5z"/>
    <path d="m13 4v9.813c0 .13-.064.187-.187.187h-6.625c-.124 0-.188-.057-.188-.188v-.812h-2v.813c0 1.199.986 2.187 2.188 2.187h6.625a2.197 2.197 0 0 0 2.187-2.188v-7.623c0-1.136-.886-2.09-2-2.188z"/>
    <path d="m6.496 3.004c-1.371 0-2.515 1.127-2.498 2.498l-.004 2.498h2.502a2.51 2.51 0 0 0 2.498-2.498 2.509 2.509 0 0 0 -2.498-2.498zm.004 1.496a1 1 0 0 1 1 1 1 1 0 0 1 -1 1 1 1 0 0 1 -1-1 1 1 0 0 1 1-1z"/>
  </g>
</svg>
