<svg fill="none" height="16" viewBox="0 0 16 16" width="16" xmlns="http://www.w3.org/2000/svg">
  <path clip-rule="evenodd" d="m12.6788 7.70851c.1858.18674.2903.43924.291.70264l.0135 5.18225c.0007.2607-.1005.5114-.2819.6986l-.7014.7236h-8l-.69654-.7076c-.18443-.1873-.28766-.4398-.28735-.7027l.01394-11.60426c.00066-.55269.44955-1.00003 1.00224-.99879l4.97382.01115c.54989.00123.99559.44622.99779.9961l.0101 2.61136c.001.26295.1056.51492.291.70135zm-8.3788-5.70851c-.16569 0-.3.13432-.3.3v2.4c0 .16569.13431.3.3.3h.4c.16568 0 .3-.13431.3-.3v-2.4c0-.16568-.13432-.3-.3-.3zm1.7.3c0-.16568.13431-.3.3-.3h.4c.16568 0 .3.13432.3.3v2.4c0 .16569-.13432.3-.3.3h-.4c-.16569 0-.3-.13431-.3-.3zm2.3-.3c-.16569 0-.3.13432-.3.3v2.4c0 .16569.13431.3.3.3h.4c.16568 0 .3-.13431.3-.3v-2.4c0-.16568-.13432-.3-.3-.3z" fill="#474747" fill-rule="evenodd"/>
</svg>
