<svg fill="none" height="16" viewBox="0 0 16 16" width="16" xmlns="http://www.w3.org/2000/svg">
  <path clip-rule="evenodd" d="m3.90909 1c-.50208 0-.90909.44772-.90909 1v12c0 .5523.40701 1 .90909 1h8.18181c.5021 0 .9091-.4477.9091-1v-12c0-.55228-.407-1-.9091-1zm4.09091 11.5c.55228 0 1-.4477 1-1s-.44772-1-1-1-1 .4477-1 1 .44772 1 1 1zm0 1.5c1.38071 0 2.5-1.1193 2.5-2.5s-1.11929-2.5-2.5-2.5-2.5 1.1193-2.5 2.5 1.11929 2.5 2.5 2.5zm-2.5-11.5c-.27614 0-.5.22386-.5.5v4c0 .27614.22386.5.5.5h5c.2761 0 .5-.22386.5-.5v-4c0-.27614-.2239-.5-.5-.5z" fill="#f6f5f4" fill-rule="evenodd" stroke-width=".999999"/>
</svg>
