<svg height="16" width="16" xmlns="http://www.w3.org/2000/svg">
  <g fill="#474747">
    <path d="m4.197 0a2.217 2.217 0 0 0 -2.197 2.201v11.599c0 1.199.995 2.2 2.197 2.2h7.607a2.215 2.215 0 0 0 2.196-2.201v-11.599c0-1.199-.994-2.2-2.196-2.2zm0 2h7.607c.124 0 .196.07.196.201v11.599c0 .13-.072.201-.196.201h-7.607c-.124-.001-.197-.071-.197-.202v-11.599c0-.13.073-.201.197-.201z"/>
    <path d="m8.78 5a1.023 1.023 0 0 0 -.47.281l-3.03 3c-.236.231-.345.583-.282.906v.813h2.47l-1.187 1.274c-.214.219-.32.54-.28.843a1.464 1.464 0 0 0 0 .094v.781h.999a1.03 1.03 0 0 0 .719-.281l3-2.992c.184-.19.287-.455.281-.719a.87.87 0 0 0 0-.125v-.875h-2.564l1.312-1.281c.215-.22.322-.54.281-.844a1.464 1.464 0 0 0 0-.094v-.781h-.999a1.015 1.015 0 0 0 -.25 0z"/>
    <path d="m5 3h1v1h-1zm2 0h4v1h-4z"/>
  </g>
</svg>
