<svg xmlns="http://www.w3.org/2000/svg" width="16" height="16" version="1.1" viewBox="0 0 4.23 4.23">
 <path fill="#E6DDFF" d="m 0.29809438,4.2264315 c -0.098476,-0.024963 -0.1617324,-0.130012 -0.1871657,-0.3108179 -0.00842,-0.059849 -0.0063,-0.1623602 0.00438,-0.2115834 0.038792,-0.1788685 0.1529797,-0.3163211 0.352289,-0.4240734 0.1040601,-0.056254 0.2582169,-0.1077975 0.3969349,-0.1327234 0.066491,-0.011943 0.07292,-0.010956 0.037028,0.00578 -0.044109,0.020559 -0.1148467,0.064213 -0.1627294,0.1004273 -0.1578049,0.1193467 -0.278224,0.2918661 -0.3280715,0.4700169 -0.012543,0.044828 -0.01423,0.1228844 -0.0029,0.134242 0.017453,0.017502 0.033721,0.00153 0.2197546,-0.2162858 C 1.0769987,3.1153482 1.4227752,2.6244308 1.6804125,2.1467054 c 0.039823,-0.073847 0.156003,-0.3088354 0.156003,-0.31554 0,-0.00238 -0.010075,-0.022599 -0.022388,-0.04487 C 1.7831155,1.7303794 1.7256295,1.6106078 1.6961409,1.5406915 1.5864966,1.2807084 1.5186093,1.028806 1.488142,0.76889901 c -0.00932,-0.079494 -0.010709,-0.2886512 -0.00233,-0.3508972 0.034105,-0.253435 0.1290288,-0.3933509 0.2819847,-0.4156444 0.067746,-0.00987 0.1607806,0.011646 0.2512016,0.058085 0.114563,0.058847 0.1864898,0.1418039 0.2154884,0.2485339 0.01188,0.043723 0.013133,0.1508561 0.00231,0.1979318 -0.00812,0.035326 -0.031404,0.1088873 -0.037429,0.1182356 -0.00524,0.00814 -0.0058,0.00643 -0.015643,-0.047378 -0.010257,-0.05609 -0.033112,-0.13514 -0.053125,-0.1837427 -0.038949,-0.09459 -0.091599,-0.1615537 -0.1495418,-0.1901923 -0.026612,-0.013141 -0.037186,-0.015904 -0.067585,-0.017543 -0.022148,-0.00113 -0.044332,0 -0.057557,0.00371 -0.018425,0.00481 -0.022953,0.00823 -0.031491,0.023743 -0.013009,0.023613 -0.029426,0.089022 -0.038734,0.154312 -0.010879,0.076316 -0.010705,0.3343676 2.819e-4,0.4342733 0.024987,0.22698199 0.076347,0.43649269 0.1550751,0.63258999 0.014302,0.035622 0.026613,0.065465 0.027356,0.066317 0.00481,0.0055 0.057799,-0.1603312 0.086055,-0.2692609 0.048042,-0.1852149 0.076051,-0.38198909 0.070225,-0.49336789 -0.00205,-0.039249 -0.0019,-0.040058 0.00702,-0.037372 0.034048,0.010237 0.098577,0.062573 0.1300753,0.1054822 0.036223,0.049345 0.065106,0.1252857 0.077731,0.20437829 0.00879,0.055082 0.00873,0.1734386 -1.217e-4,0.2446268 -0.018483,0.1485874 -0.069292,0.3298613 -0.1458402,0.5203229 l -0.027767,0.069087 0.00886,0.012958 c 0.020926,0.030586 0.092895,0.1177182 0.1294743,0.1567584 0.021808,0.023275 0.071135,0.076453 0.1096148,0.1181736 0.060216,0.065286 0.1353601,0.1392799 0.2086701,0.2054823 l 0.019552,0.017654 0.1078303,-0.036147 c 0.2039196,-0.068356 0.3553443,-0.1070779 0.5158846,-0.1319249 0.083471,-0.012916 0.2423732,-0.01621 0.3120566,-0.00646 0.2565737,0.035897 0.4327076,0.1754916 0.5234426,0.4148464 0.027654,0.072952 0.054017,0.2049422 0.054017,0.2704565 v 0.026047 L 4.1395976,2.8634677 C 4.1159746,2.8187467 4.0880576,2.7814997 4.0493186,2.7430128 3.9521996,2.6465238 3.8156897,2.588127 3.6240619,2.5610916 c -0.075513,-0.01066 -0.3095971,-0.010589 -0.4058955,0 -0.06845,0.0076 -0.2017194,0.026507 -0.2288558,0.032461 l -0.015113,0.00333 0.018349,0.011675 c 0.040836,0.025989 0.1529518,0.084019 0.2200955,0.1139154 0.1680356,0.07482 0.3427222,0.1250009 0.5169058,0.1484816 0.087745,0.01183 0.2531692,0.015431 0.3219997,0.00701 0.027311,-0.00333 0.050482,-0.00539 0.051489,-0.00455 0.00342,0.00286 -0.012084,0.065747 -0.022718,0.092074 -0.017804,0.044077 -0.037991,0.074005 -0.074296,0.1101521 -0.055605,0.05536 -0.1298341,0.090989 -0.226512,0.108723 -0.054065,0.00991 -0.1781724,0.00991 -0.240888,-9.9e-6 C 3.3140971,3.1488224 3.078083,3.0490874 2.8338679,2.8865339 2.7638452,2.8399248 2.6752026,2.7745757 2.614517,2.7248237 l -0.04447,-0.036457 -0.035413,0.0095 C 2.2749813,2.7676307 1.8503555,2.9182161 1.5319807,3.0534466 l -0.056135,0.023848 -0.029778,0.044515 C 1.0642116,3.6926882 0.74336488,4.0532622 0.50212818,4.1826397 c -0.069286,0.037156 -0.1563067,0.055791 -0.2040449,0.043686 z M 1.7953913,2.7247518 c 0.1621414,-0.080598 0.4468747,-0.2106951 0.5317612,-0.24297 0.010582,-0.00403 0.00928,-0.00582 -0.051027,-0.070056 -0.087495,-0.093211 -0.1233242,-0.1338614 -0.1864161,-0.2115115 -0.030419,-0.037436 -0.056908,-0.067072 -0.058866,-0.065863 -0.00196,0.00113 -0.025428,0.043496 -0.052157,0.093972 -0.071421,0.1348765 -0.2654537,0.4730836 -0.3183325,0.5548666 -0.00619,0.00956 -0.00592,0.00955 0.019043,-0.00185 0.013924,-0.00635 0.06612,-0.031816 0.1159935,-0.056606 z"/>
</svg>
