<svg height="16" viewBox="0 0 4.23 4.23" width="16" xmlns="http://www.w3.org/2000/svg">
  <path d="m305.85087 62.505885c-.1751-.236936-.45245-.569994-.76469-.890194-3.24854-3.333638-5.67484-7.269718-6.98197-11.629467-.06-.202651-.12-.405302-.17388-.608565-.0563-.204487-.1053-.413261-.1555-.620809-1.04632-4.426483-.91836-9.050719.23326-13.559854 0 0 .17571-.744482.22102-1.051213.96795-5.69749-2.53957-11.298246-8.23032-12.823944-5.80218-1.554473-11.74886 1.698962-13.64618 7.310738-.0784.209385-.23816.738359-.24.746318-1.24713 4.420361-3.41384 8.433583-6.47503 11.718854-3.47751 3.650164-7.89849 6.245442-12.85517 7.573387-6.03789 1.617534-9.625 7.834814-8.00685 13.875157 1.62059 6.039118 7.82808 9.626223 13.87026 8.00624 4.50852-1.151008 9.13276-1.281415 13.56108-.235712.20632.05143.41387.102244.61958.157958.20633.0551.41081.115101.6153.173263 4.35791 1.308354 8.29828 3.732814 11.62702 6.983194.40897.40959.76223.69795 1.09223.93121 4.47485 3.41017 10.84213 3.14874 14.92209-.93121 4.14118-4.13873 4.38118-10.678052.76775-15.125351zm-27.43747 2.046713c-5.91116-1.583861-9.42051-7.662163-7.83665-13.573323 1.58509-5.911773 7.66216-9.421123 13.57333-7.837263 5.9136 1.585085 9.42173 7.66155 7.83726 13.573323-1.58448 5.911773-7.66033 9.421736-13.57394 7.837263z" fill="#e6ddff" transform="matrix(.06614583 0 0 .06614583 -16.297489 -1.25171)"/>
</svg>
