<svg height="16" width="16" xmlns="http://www.w3.org/2000/svg">
  <g fill="#e6ddff" transform="translate(-501.0002 -461.99974)">
    <path d="m505.90625 462.09375a1.0001 1.0001 0 0 0 -.375 1.875l.46875.25v2.75c-.12616.19922-.25575.37424-.4375.6875-.27262.46989-.60717 1.04052-.96875 1.6875-.72316 1.29395-1.54045 2.81614-2.1875 4-.57062 1.044-.56219 2.44139.28125 3.5.01.0131.0215.0184.0312.0312.67388.8899 1.71652 1.125 2.59375 1.125h7.375c.87723 0 1.91987-.2351 2.59375-1.125.009-.0115.0221-.0197.0312-.0312.83629-1.04963.83721-2.42762.28125-3.46875-.004-.009.004-.0224 0-.0312-1.16773-2.37787-2.47179-4.21786-3.5625-6.40625v-2.6875l.5-.28125a1.0001 1.0001 0 0 0 -.5-1.875h-6.03125a1.0001 1.0001 0 0 0 -.0937 0zm2.09375 2h2.03125v3.125a1.0001 1.0001 0 0 0 .0937.4375c1.20164 2.45716 2.57567 4.32021 3.6875 6.59375a1.0001 1.0001 0 0 0 .0312.0625c.23971.43859.25996.88106-.0937 1.3125a1.0001 1.0001 0 0 0 -.0625.0312c-.14445.19822-.45965.34375-1 .34375h-7.375c-.54035 0-.85555-.14553-1-.34375a1.0001 1.0001 0 0 0 -.06245-.0312c-.35372-.43145-.33346-.87393-.0937-1.3125.64576-1.18148 1.47031-2.71674 2.1875-4 .35859-.64163.70549-1.20248.96875-1.65625s.47348-.83862.5-.875a1.0001 1.0001 0 0 0 .18745-.5625z"/>
    <path d="m507.21891 471.00142-2.21875 3.99904h8l-2.21875-3.99904z" opacity=".25"/>
  </g>
</svg>
