<svg height="16" width="16" xmlns="http://www.w3.org/2000/svg">
  <path d="m575.99414 221c-1.2582.0145-2.17889-.0306-2.93164.38477-.37637.20766-.67323.55938-.83789.99804-.16467.43867-.22461.95958-.22461 1.61719v8c0 .65761.0599 1.17853.22461 1.61719.16467.43866.46152.79039.83789.99804.75275.41532 1.67345.3702 2.93164.38477h.004 7.0039.004c1.25819-.0145 2.17889.0306 2.93164-.38477.37637-.20766.67322-.55938.83789-.99804.16413-.43867.22443-.95958.22443-1.61719v-8c0-.65761-.0599-1.17852-.22461-1.61719-.16466-.43866-.46152-.79038-.83789-.99804-.75275-.41534-1.67344-.37025-2.93164-.38477h-.004-7.0039zm3.50586 2a2.5 2.5 0 0 1 2.5 2.5 2.5 2.5 0 0 1 -2.5 2.5 2.5 2.5 0 0 1 -2.5-2.5 2.5 2.5 0 0 1 2.5-2.5zm2.07812 5.98828c.10902.0129.20527.0624.25782.13281l.0859.11329c.1266.16962.10642.49635-.0996.64843l-1.33204.98242a1 1 0 0 1 .0098.13477 1 1 0 0 1 -.5.86523v1.63477c0 .277-.20906.5-.46875.5h-.0625c-.25969 0-.46875-.223-.46875-.5v-1.63672a1 1 0 0 1 -.5-.86328 1 1 0 0 1 .008-.11719l-1.33008-.98242c-.20603-.15208-.22623-.4788-.0996-.64844l.0859-.11328c.1051-.14075.38577-.19894.5918-.0469l1.3457.99218a1 1 0 0 1 .39828-.08395 1 1 0 0 1 .38477.0762l1.35937-1.00195c.10302-.076.22499-.0988.33398-.0859z" fill="#e6ddff" transform="translate(-572 -219.99994)"/>
</svg>
