<svg fill="none" height="16" viewBox="0 0 16 16" width="16" xmlns="http://www.w3.org/2000/svg">
  <path d="m14.5021 1.34162c.2739-.20655.4979-.359587.4979-.33992l-1.43 3.62464c-.0662.16785-.1766.31466-.3195.42485l-2.352 1.81404 1.2402-.06113c.1616-.00797.2196.21023.0753.28354l-2.68269 1.36353.36219.01882c.1611.00836.1972.23024.04721.28935l-1.30393.51377.48037.29161c1.24315.75478 2.11445 1.81148 2.41815 2.93318.1149.4241.1043.5154-.0356.3065-.1483-.2214-.7273-.8014-.8-.8014-.0297 0-.0357.0562-.0135.1248.0222.0687.0398.4091.0395.7566-.0006.6724-.105 1.2432-.3273 1.7891l-.133.3265-.0733-.5392c-.1061-.7788-.44233-1.7151-.44443-1.2381-.00148.3222-.33328 1.1114-.68354 1.708-.26277-1.1178-.71036-2.2758-1.46726-3.2158 0 .0147-.23903-.2914-.23937-.277-.39877-.4343-.87348-.8103-1.43777-1.0994-.15115-.1109-.33739-.2094-.55729-.2916-.40896-.15277-.90168-.24617-1.3973-.28124-.09806-.0076-.24022-.01275-.35839-.01485-.66184-.0089-1.2944.08763-1.70157.29189-.25145.1261-.50578.3984-.45211.4838.06827.1086-.2019.0468-.31028-.0709-.08059-.0876-.11994-.2386-.13632-.52389-.019473-.33892.00047-.44676.12938-.69678.15957-.30959.51252-.66295.81628-.81738.09832-.04999.43755-.14604.75376-.21342 2.00139-.42632 3.27798-1.26355 3.72706-2.44414l.1289-.33851.33998-.06949c1.80324-.36805 5.02377-2.06733 7.60027-4.01037z" fill="#e6ddff"/>
</svg>
