<svg fill="none" height="16" viewBox="0 0 16 16" width="16" xmlns="http://www.w3.org/2000/svg">
  <path clip-rule="evenodd" d="m7.99781 2.27627 6.99779-.00355.0044 1.7636h-.8747v-.8818h-5.61578l-4.39112 7.66548-1.86579-3.25649h-1.24911v-.8818h1.74945l1.36019 2.37645zm-6.99781 9.24653c0-.2443.00348-.4409.00873-.4409h13.97817c.0052 0 .0087.1966.0087.4409 0 .2442-.0035.4409-.0087.4409h-13.97817c-.00525 0-.00873-.1967-.00873-.4409zm4.12308 1.7636c0-.2443.00348-.4409.00873-.4409h6.73199c.0052 0 .0087.1966.0087.4409 0 .2442-.0035.4409-.0087.4409h-6.73199c-.00525 0-.00873-.1967-.00873-.4409zm6.92562-3.71212c-.3471.52522-.7879.70342-1.5945.70342-1.57571 0-2.11033-.46894-2.11033-1.76327 0-1.43502.53462-1.83832 2.11033-1.83832h1.3225v-.39393c0-.96606-.2908-1.2662-1.3225-1.2662-.78786 0-1.03172.20635-1.22868.97544l-.7691-.19696c.30014-1.13489.79724-1.57571 1.99778-1.57571 1.5851 0 2.1197.60965 2.1197 2.06343v2.32604c0 .7222.1407.82538.7316.79724v.73154c-.7128.0282-1.0693-.1125-1.2568-.56272zm-2.90759-1.05985c0 .78786.27199 1.03172 1.31309 1.03172 1.0317 0 1.3225-.34703 1.3225-1.4913v-.64716h-1.3225c-1.03172 0-1.31309.1782-1.31309 1.10674z" fill="#E6DDFF" fill-rule="evenodd"/>
</svg>
