<svg fill="none" height="16" viewBox="0 0 16 16" width="16" xmlns="http://www.w3.org/2000/svg">
  <g fill="#E6DDFF">
    <path d="m1 2.875c0-.27614.22386-.5.5-.5h4.375c.27614 0 .5.22386.5.5v2.125c0 .27614-.22386.5-.5.5h-4.375c-.27614 0-.5-.22386-.5-.5z"/>
    <path d="m6.875 2.875c0-.27614.22386-.5.5-.5h1.75c.27614 0 .5.22386.5.5v2.125c0 .27614-.22386.5-.5.5h-1.75c-.27614 0-.5-.22386-.5-.5z" opacity=".5"/>
    <path d="m10.125 2.875c0-.27614.2239-.5.5-.5h3.875c.2761 0 .5.22386.5.5v2.125c0 .27614-.2239.5-.5.5h-3.875c-.2761 0-.5-.22386-.5-.5z" opacity=".8"/>
    <path d="m11.75 6.625c0-.27614.2239-.5.5-.5h2.25c.2761 0 .5.22386.5.5v2.25c0 .27614-.2239.5-.5.5h-2.25c-.2761 0-.5-.22386-.5-.5z"/>
    <path d="m6.5 6.625c0-.27614.22386-.5.5-.5h3.75c.2761 0 .5.22386.5.5v2.25c0 .27614-.2239.5-.5.5h-3.75c-.27614 0-.5-.22386-.5-.5z"/>
    <path d="m1 10.5c0-.2761.22386-.5.5-.5h1.25c.27614 0 .5.2239.5.5v2.125c0 .2761-.22386.5-.5.5h-1.25c-.27614 0-.5-.2239-.5-.5z"/>
    <path d="m3.75 10.5c0-.2761.22386-.5.5-.5h3c.27614 0 .5.2239.5.5v2.125c0 .2761-.22386.5-.5.5h-3c-.27614 0-.5-.2239-.5-.5z" opacity=".5"/>
    <path d="m8.25 10.5c0-.2761.22386-.5.5-.5h1.5c.2761 0 .5.2239.5.5v2.125c0 .2761-.2239.5-.5.5h-1.5c-.27614 0-.5-.2239-.5-.5z"/>
    <path d="m11.25 10.5c0-.2761.2239-.5.5-.5h2.75c.2761 0 .5.2239.5.5v2.125c0 .2761-.2239.5-.5.5h-2.75c-.2761 0-.5-.2239-.5-.5z" opacity=".8"/>
    <path d="m1 6.625c0-.27614.22386-.5.5-.5h4c.27614 0 .5.22386.5.5v2.25c0 .27614-.22386.5-.5.5h-4c-.27614 0-.5-.22386-.5-.5z" opacity=".8"/>
  </g>
</svg>
