<svg fill="none" height="16" viewBox="0 0 16 16" width="16" xmlns="http://www.w3.org/2000/svg">
  <path clip-rule="evenodd" d="m8 1c3.866 0 7 3.13401 7 7 0 3.866-3.134 7-7 7-3.86599 0-7-3.134-7-7 0-3.86599 3.13401-7 7-7zm1.88634 5.85154c0-1.66415-.30258-2.72317-1.51287-3.76798 2.38483.18145 4.29223 2.0663 4.51493 4.43931-.3078.66136-.9948 1.09481-1.584 1.46653-.0498.03137-.0988.0623-.1468.09288.1513-.45385.247-.97299.2085-1.55941-.1045-.7626-.4607-1.44344-.9833-1.95728zm-6.80278.77495c.18145-2.38477 2.06629-4.29216 4.43929-4.51494.66141.30781 1.09488.99493 1.46662 1.58418.03135.04969.06226.09868.09282.14669-.45386-.15128-.97303-.24701-1.55944-.20853-.7626.10453-1.44342.4607-1.95726.98333l1.28591.49644c-1.66414 0-2.72312.30254-3.76794 1.51283zm1.6121-.61591c.04972-.03137.09875-.0623.1468-.09289-.15128.45387-.24704.97302-.20856 1.55944.10452.76259.4607 1.44342.98332 1.95727l.49643-1.28597c0 1.66417.30258 2.72317 1.51286 3.76797-2.38477-.1814-4.29218-2.0663-4.51496-4.43927.30779-.66137.99488-1.09483 1.58411-1.46655zm4.45282 2.87576c1.66412 0 2.72312-.30259 3.76792-1.51287-.1814 2.38483-2.0663 4.29213-4.43927 4.51493-.66139-.3078-1.09486-.9949-1.46659-1.5841-.03135-.0497-.06227-.0987-.09285-.1467.45386.1513.97302.247 1.55944.2085.7626-.1045 1.44343-.4607 1.95727-.9833z" fill="#E6DDFF" fill-rule="evenodd"/>
</svg>
