<svg fill="none" height="16" viewBox="0 0 16 16" width="16" xmlns="http://www.w3.org/2000/svg">
  <g clip-rule="evenodd" fill="#e6ddff" fill-rule="evenodd">
    <path d="m3.58869.00332828c.13117-.00084939.26625-.00172403.40545-.00332828h.00391 8.00395.0039c.1392.0016067.2743.00248346.4055.00333489 1.0544.00684311 1.8566.01205001 2.5261.38143111.3764.20766.6732.559386.8379.998044.1647.43867.2246.95958.2246 1.61719v10c0 .6576-.0601 1.1785-.2246 1.6172-.1647.4386-.4615.7904-.8379.998-.6695.3694-1.4718.3746-2.5262.3815-.1312.0008-.2662.0017-.4054.0033h-.0039-8.00395-.00391c-.13937-.0016-.2746-.0025-.40592-.0034-1.05418-.0068-1.85635-.0121-2.52572-.3814-.37637-.2076-.673221-.5594-.837891-.998-.1647096-.4387-.224609-.9596-.224609-1.6172v-10c0-.65761.0599394-1.17852.224609-1.61719.16466-.438658.461521-.790384.837891-.998044.66947-.3694147 1.47177-.37461 2.52619-.38143772zm8.41131.99667172h-8c-1.25853.01471-2.08912.05981-2.45508.26172-.18341.10119-.28716.21275-.38476.47266-.09756.25989-.16016.67323-.16016 1.26562h14c0-.59239-.0627-1.00572-.1602-1.26562-.0975-.25993-.2033-.37146-.3867-.47266-.3659-.20192-1.1946-.24702-2.4531-.26172zm3 4.57186h-14v7.42814c0 .5924.06259 1.0057.16016 1.2656.09756.2599.20135.3715.38476.4727.36596.2019 1.19655.247 2.45508.2617h.00586 7.99414c1.2585-.0147 2.0872-.0598 2.4531-.2617.1834-.1012.2891-.2128.3867-.4727s.1602-.6732.1602-1.2656z"/>
    <path d="m3.44206 7v2h.25751v-2zm.51502 0v2h.51502v-2zm.77253 2v-2h.25751v2zm.51502-2v2h.25752v-2zm.51503 2v-2h.51502v2zm1.28755-2v2h.51502v-2zm-.51502 2v-2h.25751v2zm1.28755-2v2h.77253v-2zm1.03005 2v-2h.25751v2zm.51502-2v2h.25751v-2zm.51502 2v-2h.25747v2zm.51497-2v2h.5151v-2zm.7726 2v-2h.2575v2zm1.545-2v2h.2576v-2zm-1.03 2v-2h.7725v2zm1.5451-2v2h.2575v-2zm.515 2v-2h.2575v2zm-11.7425-1 .92704-.75v1.5z" opacity=".7"/>
    <path d="m2.67334 11.6335-.14966-.6335h.42603l-.14209.6362.50415-.3855.18164.3274-.63965.1782.62231.2107-.18457.3274-.47924-.4143.13769.6199h-.42627l.1499-.6294-.49438.4131-.1792-.3301.63037-.1987-.62622-.2073.18164-.324zm2 0-.14966-.6335h.42603l-.14209.6362.50415-.3855.18164.3274-.63965.1782.62231.2107-.18457.3274-.47925-.4143.1377.6199h-.42627l.1499-.6294-.49438.4131-.1792-.3301.63037-.1987-.62622-.2073.18164-.324zm1.85034-.6335.14966.6335-.48755-.4099-.18164.324.62622.2073-.63037.1987.1792.3301.49438-.4131-.1499.6294h.42627l-.1377-.6199.47925.4143.18457-.3274-.62231-.2107.63965-.1782-.18164-.3274-.50415.3855.14208-.6362zm2.14966.6335-.14966-.6335h.42602l-.14209.6362.50415-.3855.18164.3274-.63964.1782.62231.2107-.18457.3274-.47925-.4143.1377.6199h-.42627l.1499-.6294-.49438.4131-.1792-.3301.63037-.1987-.62622-.2073.18164-.324zm1.85036-.6335.1496.6335-.4875-.4099-.1817.324.6263.2073-.6304.1987.1792.3301.4944-.4131-.1499.6294h.4262l-.1376-.6199.4792.4143.1846-.3274-.6223-.2107.6396-.1782-.1816-.3274-.5042.3855.1421-.6362zm2.1496.6335-.1496-.6335h.426l-.1421.6362.5042-.3855.1816.3274-.6396.1782.6223.2107-.1846.3274-.4792-.4143.1376.6199h-.4262l.1499-.6294-.4944.4131-.1792-.3301.6304-.1987-.6263-.2073.1817-.324z" opacity=".6"/>
  </g>
</svg>
