<svg fill="none" height="16" viewBox="0 0 16 16" width="16" xmlns="http://www.w3.org/2000/svg">
  <g clip-rule="evenodd" fill="#E6DDFF" fill-rule="evenodd">
    <path d="m2.15385 1c-.59662 0-1.07693.48031-1.07693 1.07692v5.65385l-.07692 6.19233c0 .5966.48031 1.0769 1.07692 1.0769h5.92308.75777c-.47863-.715-.75777-1.5749-.75777-2.5 0-.9588.29988-1.8476.81096-2.57768-.2909-.5726-.48429-1.01258-.48429-1.01258s.74645-.08752 1.62581-.11971c.72432-.49833 1.60182-.79003 2.54752-.79003.9527 0 1.8362.29604 2.5636.80116l.0133-1.07039v-5.65385c0-.59661-.4803-1.07692-1.0769-1.07692zm7.87825 3.94303c0-1.0731-.86874-1.94303-1.94033-1.94303s-1.94028.86993-1.94028 1.94303c0 1.07311 1.94028 3.70277 1.94028 3.70277s1.94033-2.62966 1.94033-3.70277zm-7.06833 6.77107c-.53227-.9314-.2098-2.11853.72025-2.65155.93005-.53303 4.1729-.15281 4.1729-.15281s-1.31533 2.99256-2.24538 3.52556c-.93005.5331-2.1155.2101-2.64777-.7212z"/>
    <path d="m12.5 16c1.933 0 3.5-1.567 3.5-3.5s-1.567-3.5-3.5-3.5-3.5 1.567-3.5 3.5 1.567 3.5 3.5 3.5zm-1.4-4c-.0552 0-.1.0448-.1.1v.8c0 .0552.0448.1.1.1h2.8c.0552 0 .1-.0448.1-.1v-.8c0-.0552-.0448-.1-.1-.1z"/>
  </g>
</svg>
