<svg height="16" width="16" xmlns="http://www.w3.org/2000/svg">
  <path d="m163.9679 488.99775c1.30116.29459 3.52527.73274 2.93416 2.71296-.75126 2.51676-2.86892 4.80704-4.62105 6.55984l.00004.00005c-.002.002-.003.003-.005.005s-.003.003-.005.005l-.00005-.00005c-1.75278 1.75213-4.04306 3.86979-6.55982 4.62105-1.98022.59111-2.41837-1.633-2.71296-2.93416l4.20279-1.84813 1.64677.88801c.60942-.38881 1.66163-1.36433 2.3124-2.0147.65037-.65076 1.62589-1.70298 2.0147-2.3124l-1.05468-1.4801 1.84813-4.20279z" fill="#e6ddff" transform="translate(-152 -488.00001)"/>
</svg>
