<svg height="16" width="16" xmlns="http://www.w3.org/2000/svg">
  <path d="m1.5722656.5c-.56388 0-1.02183622.43040188-1.06640622.9824219.44095999.003.79687502.3610543.79687502.8027343 0 .44357-.3591644.8046876-.8027344.8046876v1.25c.44357 0 .8027344.3591643.8027344.8027343s-.3591644.8046875-.8027344.8046875v1.25c.44357 0 .8027344.3591644.8027344.8027344s-.3591644.8027344-.8027344.8027344v1.2499996c.44357 0 .8027344.361118.8027344.804688 0 .44358-.3591644.802734-.8027344.802734v1.25c.44357 0 .8027344.361108.8027344.804688 0 .44168-.35591503.799684-.79687502.802734.0446.55201.50252622.982422 1.06640622.982422 0-.44357.3591544-.802734.8027344-.802734.44356 0 .8027344.359164.8027344.802734h1.25c0-.44357.3611275-.802734.8046875-.802734.44357 0 .8027343.359164.8027343.802734h1.25c0-.44357.3611276-.802734.8046876-.802734.4435799 0 .8027343.359164.8027343.802734h1.2499999c0-.44357.361118-.802734.804688-.802734s.802734.359164.802734.802734h1.25c-.00001-.44357.359174-.802734.802734-.802734.4379 0 .795638.349416.804688.785156.4801-.0795.846939-.472114.886719-.964844-.44096-.003-.796875-.361054-.796875-.802734 0-.44358.359164-.804688.802734-.804688v-1.25c-.44357 0-.802734-.359154-.802734-.802734 0-.44357.359164-.804688.802734-.804688v-1.2499996c-.44357 0-.802734-.3591644-.802734-.8027344s.359164-.8027344.802734-.8027344v-1.25c-.44357 0-.802734-.3611175-.802734-.8046875s.359164-.8027343.802734-.8027343v-1.25c-.44357 0-.802734-.3611176-.802734-.8046876 0-.4416799.355915-.7996843.796875-.8027343-.0398-.49273002-.406619-.88536378-.886719-.96484378-.009.43574001-.366788.78515628-.804688.78515628-.44357 0-.802734-.3591644-.802734-.8027344h-1.25c0 .44357-.359164.8027344-.802734.8027344s-.804688-.3591644-.804688-.8027344h-1.2499999c0 .44357-.3591544.8027344-.8027343.8027344-.44356 0-.8046876-.3591644-.8046876-.8027344h-1.25c0 .44357-.3591643.8027344-.8027343.8027344-.44356 0-.8046875-.3591644-.8046875-.8027344h-1.25c0 .44357-.3591744.8027344-.8027344.8027344-.44358 0-.8027344-.3591644-.8027344-.8027344zm3.5410156 2.6894531h6.1113278l-.310547 1.4785157h-4.539062l-.4472656 1.7773437h6.9257816l-.359375 1.4804687-3.3046879 2.7734378c1.1547399.04049 1.6677729 1.060739 3.2890629-.082031l.294922 1.498046c-1.48558.84891-2.203164.623603-2.9648442.414063-.78292-.21544-1.2141538-.522084-2.2460938.003906l-.546875.279297-1.0644531-1.216797 4.0859371-3.626953h-4.3632809l-.9296875 3.871094h-1.5976562z" fill="#e6ddff"/>
</svg>
