<svg height="16" width="16" xmlns="http://www.w3.org/2000/svg">
  <path d="m2 1c-1.108 0-2 .848-2 1.902v8.196c0 1.054.892 1.902 2 1.902h2v3l3-3h7c1.108 0 2-.848 2-1.902v-8.196c0-1.054-.892-1.902-2-1.902h-5.564zm4.079 1h7.921c.554 0 1 .446 1 1v8c0 .554-.446 1-1 1h-1.812c1.71-2.034 2.068-5.146.2-7.236-1.428-1.597-4.04-2.075-5.702-.547-1.106 1.017-1.434 2.858-.338 4.01.707.742 1.974.957 2.75.191.483-.477.621-1.32.1-1.824-.31-.3-.856-.384-1.17-.041-.179.194-.227.529-.01.715.115.098.313.124.416-.006.05-.064.063-.174-.012-.227-.034-.023-.087-.027-.111.012-.007.015-.01.039.01.049.007.004.027-.002.02-.004v-.006c-.01-.003 0-.005 0-.006.006-.003.017.005.017.011.004.02-.016.035-.033.04-.046.01-.079-.033-.088-.073-.015-.09.07-.156.152-.166.165-.02.287.138.299.29.022.284-.25.488-.512.5-.465.02-.789-.425-.799-.856-.012-.726.683-1.226 1.363-1.221 1.09.006 1.835 1.053 1.808 2.078-.04 1.589-1.574 2.66-3.076 2.598-2.257-.095-3.765-2.279-3.644-4.416.093-1.65.991-2.99 2.252-3.866z" fill="#e6ddff"/>
</svg>
