<svg height="16" width="16" xmlns="http://www.w3.org/2000/svg">
  <g fill="#e6ddff" transform="translate(-383.0002 125)">
    <path d="m391.0002-125c-4.40643 0-8 3.59357-8 8s3.59357 8 8 8 8-3.59357 8-8-3.59357-8-8-8zm0 2c3.32555 0 6 2.67445 6 6s-2.67445 6-6 6-6-2.67445-6-6 2.67445-6 6-6z"/>
    <path d="m2.0387079 1.3786418a.79637027.79637027 0 0 1 -.7963703.7963703.79637027.79637027 0 0 1 -.79637028-.7963703.79637027.79637027 0 0 1 .79637028-.79637022.79637027.79637027 0 0 1 .7963703.79637022z" transform="matrix(1.883546 0 0 1.883546 382.1602 -126.09672)"/>
    <path d="m2.0387079 1.3786418a.79637027.79637027 0 0 1 -.7963703.7963703.79637027.79637027 0 0 1 -.79637028-.7963703.79637027.79637027 0 0 1 .79637028-.79637022.79637027.79637027 0 0 1 .7963703.79637022z" transform="matrix(1.8835459 0 0 1.8835459 395.1602 -126.09672)"/>
    <path d="m2.0387079 1.3786418a.79637027.79637027 0 0 1 -.7963703.7963703.79637027.79637027 0 0 1 -.79637028-.7963703.79637027.79637027 0 0 1 .79637028-.79637022.79637027.79637027 0 0 1 .7963703.79637022z" transform="matrix(1.8835459 0 0 1.8835459 382.1602 -113.09671)"/>
    <path d="m2.0387079 1.3786418a.79637027.79637027 0 0 1 -.7963703.7963703.79637027.79637027 0 0 1 -.79637028-.7963703.79637027.79637027 0 0 1 .79637028-.79637022.79637027.79637027 0 0 1 .7963703.79637022z" transform="matrix(1.883546 0 0 1.883546 395.1602 -113.09671)"/>
    <path d="m2.0387079 1.3786418a.79637027.79637027 0 0 1 -.7963703.7963703.79637027.79637027 0 0 1 -.79637028-.7963703.79637027.79637027 0 0 1 .79637028-.79637022.79637027.79637027 0 0 1 .7963703.79637022z" transform="matrix(3.7670919 0 0 3.7670919 386.3202 -122.19345)"/>
  </g>
</svg>
