<svg height="16" width="16" xmlns="http://www.w3.org/2000/svg">
  <g fill="#e6ddff" transform="translate(-243 -649)">
    <path d="m247.03 650v4h-3c-.54534 0-.96875.42341-.96875.96875 0 .54535.42341 1 .96875 1h3v2.0625h-3c-.54534 0-.96875.42341-.96875.96875 0 .54535.42341 1 .96875 1h3v4l1-.0937c3.6751-.34454 5.7668-4.023 5.9375-6.875.23648-.0665.53042.0111.6875.1875v.0312c.16445.15757.37436.41118.625.65625s.60354.47879 1.0625.53125c.4719.04.88833-.15809 1.1562-.46875.26137-.30307.3995-.70745.375-1.125-.00023-.011.00039-.0204 0-.0312-.0363-1.0088-.73453-1.6917-1.2188-2.2188-.32738-.35889-.51919-.79134-.40625-1.125.0978-.28616.46274-.49156.8125-.46875h.0312.0312c.57283-.0201.70488.003 1.3125 0v-1c-.56205.003-.73654-.0187-1.3125 0-.0137.00045-.0172-.0005-.0312 0-.74361-.0366-1.5117.36762-1.7812 1.1562-.28648.84634.1721 1.6285.625 2.125.50634.55116.92597 1.0521.9375 1.5938h.0312c.0101.12705-.0578.32333-.15625.4375-.0985.11417-.19795.16596-.3125.15625-.16676-.0191-.2944-.11077-.46875-.28125-.16979-.16602-.35398-.39175-.59375-.625-.007-.007-.0247.007-.0312 0-.36526-.39563-.90243-.60685-1.4062-.5625-.44674-3.1185-2.912-5.469-5.9062-5.9062l-1-.0937zm1 2.0938c2.0425.42745 3.705 2.1191 3.9688 4.3125.31355 2.608-1.3913 5.0249-3.9688 5.5312v-9.8438z"/>
    <path d="m249.34 652.88c-.77785-.13108-1.2121 1.3358-.29427.81948-.0229-.92977.68165.0909.0766.26611-.45485.0897-.65532-.0705-.94235.45497-.35676.37222-.18167 1.1938.31937.50676.39013-.2891.62946.78353.59147-.0209.0744.16412.37541.50927.60493.35853.56636.11105.62179.66202-.016.52878-.63563.11569-1.6508-.93807-1.6632.26192.0198.64976.007 1.3.0109 1.95.95308-.34702.95854 1.0776.91402 1.72.0923.50281.16312 1.8991.92481 1.2066.49057-.69648.93548-1.3727.84745-2.2536.23169-.35036.95594-1.3628.0629-1.2961-.33412-.25815-.69825-1.7197-.18848-.8122.046.76672.7391.98167 1.0293.20833.35039-.39282-.91916-.47489-.30833-.69789.44865.57012.93158.0258.52953-.49467-.37325-.79864-.83934-2.1753-1.7216-2.2971-.27079.22095-.49588-.13404-.12291-.20005-.18632-.13561-.46288-.0776-.65405-.20889z" opacity=".3"/>
  </g>
</svg>
