<svg height="16" viewBox="0 0 16 16" width="16" xmlns="http://www.w3.org/2000/svg">
  <path d="m8.0127092 15.5c.49538-.33335.00471.00001.5219365-.34588l5.4907723-3.87382v-.86331-5.3790802-.28777c-.767502-.53247-.148373-.10222-.501059-.35418l-4.9062032-3.47536973c-.5981646-.42232996-.00529.00003-.6054466-.42059-5.3602035 3.77142973-4.0443949 2.84319973-5.5951599 3.94022973-.421965.32698-.07829.0672-.4175493.33204v.2435.0221 5.3790802.86331c1.5524821 1.09562.2270871.16052.3757943.26564l5.1149778 3.60819.2714083.17709c.1889039.12892-.8173077-.56018.2505288.16878zm.334039-1.07637v-5.4897599l.041756-.0664.1461421-.0886 4.8226947-3.4089603v5.5118902zm-.6680793 0-5.0105896-3.54178v-5.4012202l5.0105896 3.5417803zm.250531-6.0874399-4.885327-3.4532303 4.9688363-3.5196497 4.9062028 3.4532397-4.7600621 3.3646903z" fill="#4d4d4d"/>
</svg>
