<svg height="16" width="16" xmlns="http://www.w3.org/2000/svg">
  <g fill="#E6DDFF">
    <path d="m11.892833 11.236194.680568-.775329v-.452278h-2.110624v.559962h1.283605l-.620266.702106v.460891h.318747c.39628 0 .564269.142144.564269.370436 0 .245521-.21537.387665-.564269.387665-.314439 0-.633187-.09907-.861479-.271365l-.271365.534117c.292902.206755.727949.323053 1.150073.323053.857172 0 1.249145-.465196 1.249145-.97347 0-.443662-.275672-.779639-.818404-.865788z"/>
    <path d="m3.7057139 3.0312545v.5571431h.5999996v2.4428552h.6942852v-2.9999983z"/>
    <path d="m2.0957 1.0293c-.59934 0-1.10937.48912-1.10937 1.09375v4.81054c0 .60463.51003 1.09571 1.10937 1.09571h4.78125c.59934 0 1.10938-.49108 1.10938-1.09571v-4.81054c0-.60463-.51004-1.09375-1.10938-1.09375zm0 1h4.78125c.0764 0 .10938.04.10938.0937v4.81054c0 .0538-.033.0957-.10938.0957h-4.78125c-.0764 0-.10937-.0419-.10937-.0957v-4.81054c0-.0538.0329-.0937.10937-.0937z"/>
    <path d="m10.705714 3.0312545v.5571431h.6v2.4428552h.694285v-2.9999983z"/>
    <path d="m9.07812 8.02539c-.59934 0-1.10937.48912-1.10937 1.09375v4.81055c0 .60463.51003 1.0957 1.10937 1.0957h4.7793c.59934 0 1.11133-.49107 1.11133-1.0957v-4.81055c0-.60463-.51199-1.09375-1.11133-1.09375zm0 1h4.7793c.0764 0 .11133.04.11133.0937v4.81055c0 .0538-.0349.0957-.11133.0957h-4.7793c-.0764 0-.10937-.0419-.10937-.0957v-4.81055c0-.0538.0329-.0937.10937-.0937z"/>
    <path d="m4.8837031 11.236194.6805682-.775329v-.452278h-2.110624v.559962h1.2836046l-.6202656.702106v.460891h.3187472c.3962794 0 .5642682.142144.5642682.370436 0 .245521-.2153693.387665-.5642682.387665-.3144399 0-.6331871-.09907-.8614792-.271365l-.2713658.534117c.292903.206755.7279498.323053 1.1500737.323053.8571721 0 1.2491453-.465196 1.2491453-.97347 0-.443662-.2756724-.779639-.8184044-.865788z"/>
  </g>
</svg>
