<svg height="16" width="16" xmlns="http://www.w3.org/2000/svg">
  <path d="m48 80.5c-15.4 0-27.9-4.2-27.9-9.3v-9.3c0-.8.4-1.6 1-2.3 3.1 4 13.9 7 26.9 7s23.8-3 26.9-7c.6.7 1 1.5 1 2.3v9.3c0 5.1-12.5 9.3-27.9 9.3zm0-18.6c-15.4 0-27.9-4.2-27.9-9.3v-9.3c0-.5.2-1 .4-1.4l.6-.9c3.1 4 13.9 7 26.9 7s23.8-3 26.9-7l.6.9c.2.5.4 1 .4 1.4v9.3c0 5.2-12.5 9.3-27.9 9.3zm0-18.5c-15.4 0-27.9-4.2-27.9-9.3v-4.6-4.6c0-5.1 12.5-9.3 27.9-9.3s27.9 4.2 27.9 9.3v4.6 4.6c0 5.1-12.5 9.3-27.9 9.3zm0-23.3c-10.3 0-18.6 2.1-18.6 4.6s8.3 4.6 18.6 4.6 18.6-2.1 18.6-4.6-8.3-4.6-18.6-4.6z" fill="#E6DDFF" transform="matrix(.23112481 0 0 .23112481 -3.395609 -3.105547)"/>
</svg>
