<svg fill="none" height="16" viewBox="0 0 16 16" width="16" xmlns="http://www.w3.org/2000/svg">
  <g fill="#E6DDFF">
    <rect height="14" opacity=".2" rx="1" width="14" x="1" y="1"/>
    <g opacity=".4">
      <path d="m12.5808 14c.7897 0 1.4298-.6401 1.4298-1.4298 0-.7896-.6401-1.4298-1.4298-1.4298-.7896 0-1.4297.6402-1.4297 1.4298 0 .7897.6401 1.4298 1.4297 1.4298z"/>
      <path d="m12.5298 9.45532c.7896 0 1.4298-.64013 1.4298-1.42978s-.6402-1.42979-1.4298-1.42979c-.7897 0-1.4298.64014-1.4298 1.42979s.6401 1.42978 1.4298 1.42978z"/>
    </g>
    <path d="m8.06083 13.9989c.78965 0 1.42979-.6401 1.42979-1.4298 0-.7896-.64014-1.4297-1.42979-1.4297s-1.42979.6401-1.42979 1.4297c0 .7897.64014 1.4298 1.42979 1.4298z"/>
    <path d="m8.00977 9.45425c.78965 0 1.42979-.64013 1.42979-1.42978s-.64014-1.42979-1.42979-1.42979-1.42978.64014-1.42978 1.42979.64013 1.42978 1.42978 1.42978z"/>
    <path d="m8.00977 4.90958c.78965 0 1.42979-.64014 1.42979-1.42979s-.64014-1.42979-1.42979-1.42979-1.42978.64014-1.42978 1.42979.64013 1.42979 1.42978 1.42979z"/>
    <path d="m3.42979 13.9996c.78965 0 1.42978-.6402 1.42978-1.4298 0-.7897-.64013-1.4298-1.42978-1.4298s-1.42979.6401-1.42979 1.4298c0 .7896.64014 1.4298 1.42979 1.4298z" opacity=".4"/>
  </g>
</svg>
