<svg fill="none" height="16" viewBox="0 0 16 16" width="16" xmlns="http://www.w3.org/2000/svg">
  <path clip-rule="evenodd" d="m1.50909 1c-.28116 0-.50909.22793-.50909.50909v12.98181c0 .2812.22793.5091.50909.5091h12.98181c.2812 0 .5091-.2279.5091-.5091v-12.98181c0-.28116-.2279-.50909-.5091-.50909zm2.01137 2.796c.17564-.18058.4159-.28414.66799-.28793.12722-.00191.25354.02169.37147.0694.11792.04772.22506.11857.31507.20836.09001.0898.16106.19671.20894.31442.04788.1177.07162.2438.06981.37083v5.39746l2.19739-2.04762c.17611-.16408.40801-.25532.64889-.25532.24087 0 .47278.09124.64889.25532l2.19739 2.04762v-5.39746c-.002-.12599.0211-.25111.0679-.36809.0469-.11698.1166-.22348.2051-.31329.0886-.08981.1941-.16114.3105-.20982.1164-.04869.2413-.07376.3675-.07376s.2511.02507.3675.07376c.1164.04868.2219.12001.3104.20982.0886.08981.1583.19631.2052.31329.0468.11698.0699.2421.0679.36809v7.58262c-.0001.1849-.0542.3659-.1559.5205-.1016.1547-.2462.2764-.4161.3501s-.3577.0963-.5403.0649c-.1826-.0313-.352-.1152-.4875-.2414l-3.14848-2.93389-3.14846 2.93389c-.13549.1262-.30493.2101-.48752.2414-.18258.0314-.37036.0088-.54027-.0649s-.31456-.1954-.41618-.3501c-.10162-.1546-.15578-.3356-.15585-.5205v-7.58262c-.00358-.25169.09307-.49451.26872-.67508z" fill="#E6DDFF" fill-rule="evenodd"/>
</svg>
