<svg fill="none" height="16" viewBox="0 0 16 16" width="16" xmlns="http://www.w3.org/2000/svg">
  <g fill="#E6DDFF">
    <path d="m4.35471 15h7.29059c.5088 0 .9212-.4124.9212-.9212v-9.59354c0-.50875-.4124-.92117-.9212-.92117h-7.29059c-.50875 0-.92118.41242-.92118.92117v9.59354c0 .5088.41243.9212.92118.9212z" opacity=".7"/>
    <path d="m6.74196 1-.62901.69408h-1.61295v1.38817h7v-1.38817h-1.61298l-.62901-.69408zm1.25802.34704c.17424 0 .31451.15478.31451.34704s-.14027.34704-.31451.34704c-.17423 0-.3145-.15478-.3145-.34704s.14027-.34704.3145-.34704z"/>
  </g>
</svg>
