<svg height="16" width="16" xmlns="http://www.w3.org/2000/svg">
  <radialGradient cx="591.26257" cy="862.67987" gradientTransform="scale(.87635495 1.1410901)" gradientUnits="userSpaceOnUse" r="586.17255">
    <stop offset="0" stop-color="#1c71d8"/>
    <stop offset="1" stop-color="#241f31"/>
  </radialGradient>
  <path d="m25.735234 932.65059c-3.64723 0-6.58487 2.93583-6.58487 6.59153v121.06138c0 3.6472 2.93764 6.5827 6.58487 6.5827h89.707796c3.64723 0 6.58266-2.9355 6.58266-6.5827v-121.06138c0-3.6557-2.93543-6.59153-6.58266-6.59153zm-2.33621 4.06895h17.85548v10.71373h-17.85548zm76.380522 0h17.855484v10.71373h-17.855484zm-76.380522 16.45109h17.85548v10.71373h-17.85548zm76.380522 0h17.855484v10.71373h-17.855484zm-76.380522 16.45109h17.85548v10.71373h-17.85548zm76.380522 0h17.855484v10.71373h-17.855484zm-29.496592 4.29969 6.04797 18.94925 19.67918-.19302-16.15157 11.60776 6.26317 18.6564-16.02955-11.7742-15.80768 11.721 6.2432-18.8827-16.03177-11.41256 19.88996.10428zm-50.26067 10.13689h.27954c-.0931.16924-.18646.32994-.27954.49919zm3.37674 2.00563h17.85548v.009 10.70486.0155h-17.85548v-.0155-10.70486zm76.380522 0h17.855484v.009 10.70486.0155h-17.855484v-.0155-10.70486zm-76.380522 16.45107h17.85548v.01 10.7048.018h-17.85548v-.018-10.7048zm76.380522 0h17.855484v.01 10.7048.018h-17.855484v-.018-10.7048zm-76.380522 16.4489h17.85548v10.7137h-17.85548zm76.380522 0h17.855484v10.7137h-17.855484zm-76.380522 16.451h17.85548v10.7226h-17.85548zm76.380522 0h17.855484v10.7226h-17.855484zm-76.380522 16.4511h17.85548v10.7205h-17.85548zm76.380522 0h17.855484v10.7205h-17.855484z" fill="#E6DDFF" fill-rule="evenodd" transform="matrix(.11919346 0 0 .11919346 -.282598 -111.16586)"/>
</svg>
