<svg fill="none" height="16" viewBox="0 0 16 16" width="16" xmlns="http://www.w3.org/2000/svg">
  <g fill="#E6DDFF">
    <path d="m2.5 2v12c0 .5523.49249 1 1.1 1h8.8c.6075 0 1.1-.4477 1.1-1v-12c0-.55229-.4925-1-1.1-1h-8.8c-.60751 0-1.1.44771-1.1 1z" opacity=".3"/>
    <g clip-rule="evenodd" fill-rule="evenodd">
      <path d="m6.94086 2.87972v-.00001h-3.29654l1.59295 2.34889-1.5928 2.34865h3.30599.42777l-1.59279-2.34865 1.59295-2.34888zm-1.42951 2.75303-1.01102 1.49081h2.02205zm0-.80831 1.01118-1.49103h-2.02236z"/>
      <path d="m11.4999 3.3334h-2.02237l1.01117 1.49104zm-1.2853 1.89519-1.59293-2.34888h.43753 2.859.4375l-1.5929 2.34888 1.5928 2.34866h-.4278-2.8782-.42777zm-.73692 1.89497 1.01102-1.49081 1.011 1.49081z"/>
      <path d="m6.52256 8.87641h-2.02233l1.01117 1.49099zm-1.28525 1.89519-1.59293-2.34887h.4375 2.85904.4375l-1.59293 2.34887 1.59281 2.3487h-.42781-2.87819-.4278zm-.73696 1.895 1.01105-1.4909 1.01104 1.4909z"/>
      <path d="m11.5 8.87641h-2.02241l1.01121 1.49109zm-1.2853 1.89519-1.59297-2.34887h.43753 2.85904.4375l-1.5929 2.34887 1.5928 2.3487h-.4278-2.87824-.42777zm-.73696 1.895 1.01106-1.4908 1.011 1.4908z"/>
    </g>
  </g>
</svg>
