<svg fill="none" height="16" viewBox="0 0 16 16" width="16" xmlns="http://www.w3.org/2000/svg">
  <g fill="#E6DDFF">
    <path d="m3.67113 11.3863c.85967 0 1.37337-.1783 1.76127-.671.24113.4193.70242.5556 1.49919.5137v-.9645c-.67097.0419-.81774-.0105-.81774-.78629v-2.52659c0-1.59353-.62903-2.33788-2.44272-2.33788-1.40483 0-1.98143.56612-2.3274 1.91853l1.00644.25161c.22016-.88064.45081-1.1008 1.32096-1.1008 1.1008 0 1.39434.30403 1.39434 1.26854v.33548h-1.39434c-1.80321 0-2.44272.45081-2.44272 2.08627 0 1.45723.63951 2.01293 2.44272 2.01293zm0-.9645c-1.12176 0-1.39434-.2412-1.39434-1.04843 0-.99595.28306-1.12176 1.39434-1.12176h1.39434v.61854c0 1.20565-.29354 1.55165-1.39434 1.55165z"/>
    <path d="m10.7716 1c-2.21001 0-4.00001 1.79-4.00001 4h2c0-1.1.9-2 2.00001-2 1.1 0 2 .9 2 2 0 .55-.2199 1.05016-.5899 1.41016l-1.2402 1.25976c-.72.73-1.16991 1.73008-1.16991 2.83008v.5h2.00001c0-1.5.4499-2.10008 1.1699-2.83008l.9004-.91992c.57-.57.9297-1.37.9297-2.25 0-2.21-1.79-4-4-4zm-1.00001 12v2h2.00001v-2z"/>
  </g>
</svg>
