<svg fill="none" height="16" viewBox="0 0 16 16" width="16" xmlns="http://www.w3.org/2000/svg">
  <g clip-rule="evenodd" fill="#E6DDFF" fill-rule="evenodd">
    <path d="m6.4281 3.29589 1.5518-2.429088.42821.011376 1.39327 2.459742-.02236.27945-1.55179 1.93854-.39925-.01184-1.39329-1.96919zm.51188.12747 1.10439 1.56089 1.23852-1.54719-1.10518-1.95115z"/>
    <path d="m9.62898 3.17536 2.68462-1.02572.2767.39893-1.71 1.93818-.0937.06633-2.6604 1.07693-.28897-.38797 1.46226-1.82667-.03805-.09958.16965-.06482.11418-.14263zm.10752.49417-.91096 1.13798 1.71886-.69577.9993-1.1327z"/>
    <path d="m10.5047 4.15491 1.7099-1.93818.4366.18718-.253 2.89246-.0508.13054-1.4891 1.93817-.4482-.15508.032-2.89246zm.4364.2611-.0227 2.05023.9881-1.2861.1804-2.06281z"/>
    <path d="m11.9137 5.17017-1.4522 1.89068.1137.38756 2.312.83059.2728-.07075 1.9633-2.24618-.1422-.41024-2.7283-.51203-.1503-.11541-.0586.07622-.095-.01784zm.3398.37849-1.1868 1.54504 1.8291.65708 1.563-1.78825z"/>
    <path d="m10.4619 7.36925.2806-.39036 2.1745.78095.0785-.06807.1212.13979.1738.06242-.0351.09763 1.9309 2.22719-.2803.3965-2.6605-1.04525-.1046-.07762zm2.3627.88867-1.4281-.51288 1.0947 1.38431 1.6513.64875z"/>
    <path d="m9.61547 9.80336 2.66043-.70691.1556.00893 2.6604 1.04522-.0622.481-2.8824.3386-.096-.0074-2.4385-.6769zm1.01783.24694 1.5044.4176 1.8433-.2166-1.656-.65056z"/>
    <path d="m9.42924 10.026.31625-.22332 2.40301.66712.2132-.0046.0014.0641.0618.0172-.057.2054.0629 2.917-.3653.2272-2.66046-1.3846-.13397-.2393zm2.44196.8857-1.96469-.5454-.12516 1.7774 2.14045 1.114z"/>
    <path d="m7.85777 12.1786 1.6152-2.27689.45329.16219-.15817 2.2462-.03032.1029-1.48874 2.7075-.46905-.1235.03171-2.6768zm.45296.2256-.01896 1.6008.98141-1.7848.09168-1.3019z"/>
    <path d="m3.65231 2.44265.29239-.38428 2.65821 1.08615.09378-.06636.10422.14727.16177.06609-.04209.10301 1.31414 1.8569-.29609.37687-2.56532-1.01562-.1058-.07959zm2.82462 1.19053-1.86015-.76007 1.00442 1.29995 1.71962.6808z"/>
    <path d="m3.60185 2.31871.44591-.17968 1.64683 2.11562-.01257.00978.01877-.00074.10982 2.75728-.44417.16717-1.39363-1.72287-.05426-.13111zm1.60568 2.12423-1.01705-1.30657.21761 2.07198.87291 1.07913z"/>
    <path d="m4.40152 5.1989 1.35332 1.67304-.10442.39049-2.15385.83059-.26683-.05659-2.05873-2.06117.13387-.42295 2.75522-.48121.14389-.1164.06468.07997.10108-.01765zm-.33659.37892-2.20035.38431 1.60392 1.60582 1.68167-.6485z"/>
    <path d="m4.12348 5.06003.04301-.00373h.00035l.19438.09278 1.39362 1.72287-.10442.39048-2.15385.83059-.26683-.05659-2.05873-2.06117.13387-.42295zm-.05855.51779-2.20035.38431 1.60392 1.60582 1.68167-.6485z"/>
    <path d="m3.47596 7.56591 1.9949-.76929.28403.39084-1.77374 2.18449-.12027.08127-2.78725.86128-.243107-.42283 2.281897-2.10021-.02866-.0743.18826-.0726.1496-.13769zm.06469.51095-1.5571 1.43313 1.65725-.51209 1.13443-1.39714z"/>
    <path d="m.925677 9.83783 2.787243-.86128.15164.00128 2.72383.89228-.0289.48279-2.31168.4612-.08694.002-3.199404-.4923zm1.185573.15698 2.08202.32039 1.33461-.2664-1.74336-.57105z"/>
    <path d="m6.47896 9.85884-.22135.00325.0006.04086-2.10796.42125-.19782.2053-.50658 3.1391.35993.2628 2.85031-1.4462.13685-.2267-.02866-1.9468.04112-.0082-.04452-.2228-.00333-.22597-.0417.00062-.00843-.04217zm-.21327.55246.025 1.6986-2.27294 1.1533.40065-2.4827z"/>
    <path d="m6.2624 10.187.03059 2.0779.03034.1157 1.48874 2.7381.46962-.1164.03171-2.6768-.04522-.1464-1.50809-2.1531-.00254-.17233-.11694.00172-.06766-.0966-.14233.09969-.17301.00255.00172.11743-.09591.06714zm.51079.7292 1.03929 1.4838-.01939 1.637-1.00106-1.8411z"/>
    <path d="m7.9905 7.77659 2.5967-.79995.2697.08383 1.6789 2.12285-.1318.39668-2.66042.7076-.25991-.086-1.61521-2.03046zm.49731.36998 1.28533 1.6158 2.13426-.56766-1.3366-1.68985z"/>
    <path d="m7.74695 8.01796-1.43782 1.93688-.00403.29246 1.5518 2.2155.40867.0012 1.61521-2.2768-.00826-.3003-1.49505-1.87947.03395-.04573-.17174-.12749-.13799-.17347-.0462.03674-.04554-.03381-.12697.17104-.17259.13729zm.32211.40494 1.2952 1.6282-1.30129 1.8343-1.2449-1.7773z"/>
    <path d="m5.23448 4.44477.33815-.24118 2.54558.96044.16173.23087.03171 2.61549-.34156.23566-2.5019-.98496-.15832-.22535zm.51064.35831.05974 2.0532 2.00232.78828-.02513-2.07296z"/>
  </g>
</svg>
