<svg height="16" width="16" xmlns="http://www.w3.org/2000/svg">
  <path d="m3.7612192 2.2393698c-.6530721.022677-1.2837184.3223937-1.7667722.7792252-.4909266.4642393-.8427376 1.1024504-.9140599 1.7886994-.035603.342803-.00104.693694.1084498 1.019187.1095004.325418.2945877.625474.5405008.857197.2899351.272882.6527697.445493.9857559.659263.1665676.106583.3264605.225638.4643785.370394.1379149.144.2531905.31559.3163389.50846.056168.170834.068923.355653.044175.534009-.025512.17915-.088951.35263-.181867.505474-.1857675.306142-.4855287.5287183-.8143876.6479623-.3813596.1379533-.8012648.1447563-1.1688998.3186143-.2909103.137953-.53585052.377991-.68846812.669733-.152542.291779-.212841.710135-.175718 1.040126.04357.387741.222965.75598.49070302 1.029732.2676624.273637.6218718.45222.993106.511445.5444002.08617 1.3138073-.09449 1.7091893-.492699.1979905-.198803.3479849-.447761.4327306-.720718.084004-.272126.1012497-.641915.046503-.922393-.041994-.2143-.1229934-.417752-.1987427-.621733-.07649-.203338-.1492422-.411741-.1672441-.629215-.032239-.3847566-.078913-.7754846.167074-1.0649586.2452384-.289512.589474-.667616.9517074-.751635.2339905-.0548.4769797-.06727.7132187-.02646.236239.04195.4649796.138708.6562199.288.1912414.150047.3442352.540888.4289804.774123.085491.232441.1004999.4949663.032243.7334926-.068994.244536-.40516.455207-.5566539.656202-.150743.201071-.3097353.402746-.3997318.640479-.098997.261921-.1087484.556497-.041242.828737.068243.272125.2107404.521234.398982.723703.2077417.224126.6586504.391484.9443868.482986.2864874.09222.5782236.108851.8774595.108851.2992377 0 .6119739-.01512.8984614-.108851.2857384-.09146.7363459-.258897.9440867-.482986.1882413-.202582.3307353-.451464.3989823-.723703.06751-.272126.05775-.567005-.04124-.828737-.09-.237733-.2489891-.439484-.3997329-.640479-.151492-.201071-.4873568-.411742-.5563546-.656202-.068242-.2384883-.053247-.5009766.032256-.7334926.084739-.233197.2377382-.624114.4289801-.774123.1912416-.149292.4199824-.246048.6562214-.288.236238-.04271.479227-.03024.713217.02646.362235.08391.70647.462123.951708.751634.245989.289512.199398.680202.16715 1.0649586-.018.217323-.09075.425953-.167242.629216-.07574.204094-.156745.407244-.198744.621732-.05475.280441-.0375.650116.0465.922393.08474.272882.234739.521953.432732.720718.395232.398211 1.16479.578948 1.709265.492699.371233-.05934.725218-.237732.992956-.511445.267738-.273638.44698-.641991.490478-1.029732.0375-.329953-.02324-.748385-.175489-1.040126-.152995-.29178-.397483-.531704-.688469-.669733-.367487-.173858-.787469-.180661-1.169201-.3186143-.328486-.119055-.628472-.3420473-.814464-.6479623-.092252-.153071-.155992-.326173-.181492-.505474-.02475-.178394-.01205-.362835.04425-.534009.063-.192756.17849-.364347.316486-.50846.137987-.144756.297737-.263811.464228-.370394.332986-.213921.695969-.386268.985456-.659263.245991-.231685.431232-.531704.540726-.857197.1095-.325417.143996-.67646.108748-1.019187-.07125-.686248-.423733-1.3244591-.914211-1.7886984-.482977-.4569449-1.113699-.7584378-1.766921-.7792252-.326235-.011339-.65397.048-.954706.1802835-.300737.1319055-.574475.3375118-.782215.5990929-.23849.3000944-.388485.6637228-.5257271 1.0251972-.1372504.362078-.2669875.732737-.4747279 1.055962-.3427355.533971-.8842117.887811-1.5014334.887811-.617223 0-1.1586993-.353764-1.5014331-.887811-.2077417-.32315-.3374846-.693695-.4747291-1.055962-.1372502-.3613232-.2872358-.7252161-.5257273-1.0251972-.2077418-.2615433-.4814782-.4671496-.7822137-.5990929-.300737-.1319055-.6284719-.1904882-.954709-.1802835zm4.2388093 4.4983176c.4141941 0 .7499663.335623.7499663.749972 0 .414199-.3357724.749972-.7499663.749972-.4141953 0-.7499659-.335622-.7499659-.749972 0-.414198.3357705-.749972.7499659-.749972z" fill="#e6ddff"/>
</svg>
