<svg height="16" width="16" xmlns="http://www.w3.org/2000/svg">
  <g fill="#e6ddff">
    <path d="m2.188 2c-1.206 0-2.188 1.018-2.188 2.219v7.562c0 1.201.982 2.219 2.188 2.219h11.624c1.206 0 2.188-1.018 2.188-2.219v-7.561c0-1.202-.982-2.22-2.188-2.22zm0 2h11.624c.12 0 .188.08.188.219v7.562c0 .139-.067.219-.188.219h-11.624c-.12 0-.188-.08-.188-.219v-7.561c0-.14.067-.22.188-.22z"/>
    <path d="m7.486 5a.5.5 0 0 0 -.447.309l-1.123 2.691h-2.916v1h3.25a.5.5 0 0 0 .46-.309l.62-1.488.68 3.395a.5.5 0 0 0 .89.203l1.35-1.801h2.75v-1h-3a.5.5 0 0 0 -.4.2l-.83 1.104-.78-3.903a.5.5 0 0 0 -.505-.401z"/>
  </g>
</svg>
