<svg xmlns="http://www.w3.org/2000/svg" width="16" height="16" version="1.1">
 <title id="title9167">
  Gnome Symbolic Icon Theme
 </title>
 <g id="layer9" transform="translate(-123.00021,-235)">
  <path fill="#E6DDFF" d="m 131.00021,235.5 c -4.14213,0 -7.5,3.35786 -7.5,7.5 0,4.14213 3.35787,7.5 7.5,7.5 4.14214,0 7.5,-3.35787 7.5,-7.5 0,-4.14214 -3.35786,-7.5 -7.5,-7.5 z m 3.11384,2.64509 a 0.53576787,0.53576787 0 0 1 0.0334,0 0.53576787,0.53576787 0 0 1 0.50223,0.90401 l -2.57807,3.44866 c 0.0806,0.16114 0.1004,0.34332 0.1004,0.53572 0,0.66218 -0.50969,1.20536 -1.17188,1.20536 -0.66219,0 -1.20536,-0.54318 -1.20536,-1.20536 0,-0.14294 0.0545,-0.27467 0.1004,-0.40179 l -1.40625,-1.40625 a 0.53576787,0.53576787 0 1 1 0.7366,-0.7366 l 1.40625,1.40625 c 0.11661,-0.0378 0.2391,-0.067 0.36831,-0.067 0.0589,0 0.11073,0.0253 0.16741,0.0334 l 2.6116,-3.48214 a 0.53576787,0.53576787 0 0 1 0.30134,-0.2009 0.53576787,0.53576787 0 0 1 0.0334,-0.0334 z"/>
 </g>
</svg>
