<svg height="16" viewBox="0 0 16 16" width="16" xmlns="http://www.w3.org/2000/svg">
  <path d="m0 0h16v16h-16z" fill="none"/>
  <path d="m11.324 11.768c-.416-.044-.84-.24-1.171-.541l-.123-.112.13-.152c.617-.723.836-1.664.601-2.58-.031-.121-.079-.274-.107-.339l-.05-.119.133-.063c.072-.034.212-.083.31-.108.154-.04.223-.046.524-.045.376.002.522.028.777.141.626.277 1.039.773 1.204 1.448.052.213.056.63.009.843-.201.901-.907 1.535-1.814 1.628-.11.011-.215.019-.233.018s-.103-.01-.19-.019zm-6.602-.055c-.497-.143-.806-.61-.741-1.122.065-.511.502-.896 1.018-.896.179 0 .204.011.228.105.111.422.354.88.624 1.177l.114.126-.058.11c-.123.232-.388.438-.652.507-.151.039-.384.036-.533-.007zm-2.125-.006c-.19-.027-.492-.136-.677-.246-.225-.133-.546-.455-.666-.667-.302-.538-.336-1.151-.094-1.711.228-.528.755-.96 1.313-1.077.14-.03.46-.064.46-.049-.001.004-.014.079-.029.166-.037.206-.038.574-.001.783.093.529.372 1.007.798 1.364l.106.088-.024.088c-.032.118-.032.419-.001.553.014.06.056.175.093.256.052.113.061.15.042.163-.369.247-.858.354-1.32.289zm4.951-.009c-.956-.171-1.747-.852-2.053-1.768-.096-.288-.121-.457-.121-.829 0-.384.019-.511.121-.827.294-.905 1.058-1.575 2.013-1.766.259-.051.677-.055.94-.008 1.095.196 1.93 1.021 2.147 2.122.051.255.047.744-.008.995-.116.53-.349.963-.72 1.338-.403.407-.88.653-1.449.746-.222.036-.659.035-.87-.003zm6.263-.068c-.164-.028-.317-.095-.447-.193-.17-.13-.175-.142-.09-.236.324-.358.529-.901.537-1.418l.003-.185.089-.012c.145-.02.349.022.524.108.248.122.433.327.526.584.062.172.063.484.001.662-.078.223-.249.438-.436.548-.208.123-.49.18-.707.142zm-10.066-1.612c-.299-.277-.505-.629-.607-1.035-.057-.229-.052-.741.009-.969.157-.58.527-1.043 1.047-1.311.304-.156.652-.24.941-.227l.137.007.042.158c.068.25.191.506.334.698l.049.066-.117.18c-.207.321-.361.747-.415 1.152-.012.094-.019.299-.015.456l.007.284h-.141c-.437 0-.843.22-1.072.582l-.057.09zm6.629-2.502c-.18-.272-.522-.614-.793-.794l-.201-.132.023-.074c.012-.042.022-.22.022-.417l.001-.343.208.011c.701.039 1.301.447 1.602 1.089.071.151.141.387.163.548l.01.072-.122.013c-.224.025-.404.078-.756.222-.012.005-.083-.083-.157-.195zm-4.618-.406c-.097-.151-.184-.344-.238-.533-.039-.133-.045-.199-.044-.49.001-.308.006-.35.054-.509.138-.449.399-.802.78-1.056.26-.174.54-.271.857-.301.786-.072 1.513.334 1.863 1.04.138.278.191.515.189.845-.001.266-.019.378-.059.372-.015-.002-.131-.039-.256-.082-.306-.105-.558-.146-.899-.145-.709 0-1.312.222-1.865.686-.1.084-.205.183-.233.22s-.057.067-.064.067c-.007-.001-.045-.052-.085-.114zm-1.764-.635c-.051-.099-.09-.28-.09-.417.001-.429.283-.807.697-.932.236-.072.614-.028.776.089.036.027.036.032-.018.185-.073.21-.11.43-.111.659v.19l-.233.012c-.272.014-.543.078-.782.182-.089.04-.172.076-.185.082s-.037-.017-.054-.05z" fill="#e6ddff"/>
</svg>
