<svg fill="none" height="16" viewBox="0 0 16 16" width="16" xmlns="http://www.w3.org/2000/svg">
  <path d="m4.2397 13.2465c-1.72112.0774-1.04653-1.0897-2.03492-.3778-.48939.3525.43924 2.0033 2.25294 1.5546 1.81371-.4488 3.61925-3.574 3.61925-3.574s.47967.2615 1.48259.4068c.57544.0833 4.08434.552 5.17454-2.07761 1.0901-2.62965-1.3297-4.33907-4.3751-6.14554-2.77936-1.64864-5.85767-1.80153-7.52921-1.23492-1.67155.56661-2.107599 2.17927-1.67155 3.63211.39245.97341.5664 1.38825.7413 1.48191.3376.18077 1.71337.17434 1.35177-.26152-.98839-1.19133-1.35177-3.498-.26164-3.76287 4.70289-1.14267 12.58743 3.9808 9.97113 6.29083-.6418.56661-1.6195.71385-2.253.75547-1.17398.07714-1.936-.24637-1.86047-.40679.35573-.75556.65905-1.12768 1.00293-1.8887.34454-.76255.60504-1.1819.75584-2.00493.1889-1.03152-1.17591-1.16664-1.49714-.2034-.32122.96324-3.14814 7.73886-4.86926 7.81636z" fill="#E6DDFF"/>
</svg>
