<svg height="16.004" width="16" xmlns="http://www.w3.org/2000/svg">
  <path d="m190.54883 529.68955a1.5 1.5 0 0 0 -1.5 1.5 1.5 1.5 0 0 0 1.5 1.5 1.5 1.5 0 0 0 1.5-1.5 1.5 1.5 0 0 0 -1.5-1.5zm2.1875.84765.4707 2.29102c2.4965 1.20765 3.52796 4.18904 2.32031 6.68554-1.20766 2.49652-4.18903 3.52798-6.68554 2.32032-2.3646-1.14384-3.47879-3.88316-2.51368-6.32617l-1.70117-1.05469s-.19224.49574-.22656.5957c-1.14184 3.32535.39364 7.03099 3.58789 8.57617 3.46954 1.67834 7.65174.20976 9.33008-3.25976 1.67834-3.46953.22066-7.67447-3.25977-9.33008-.94188-.44805-1.32226-.49805-1.32226-.49805zm-6.73633 1.4668c-.34166.0243-.29819.44817.0488 1.36719.55523 1.47043 3 4.20287 4 5s2.7457-1.19276 2-2-3.6652-3.3261-5-4c-.50052-.25272-.8438-.38178-1.0488-.36719z" fill="#e6ddff" transform="translate(-183 -529)"/>
</svg>
