<svg height="16" width="16" xmlns="http://www.w3.org/2000/svg">
  <g fill="#e6ddff">
    <path d="m4.96 8.635v2.365h-3.593c-.206 0-.368.205-.368.467v1.058c0 .262.162.467.368.467h10.264c.206 0 .368-.205.368-.467v-1.058c0-.262-.162-.467-.368-.467h-3.654v-2.365z"/>
    <path d="m3.8 0c-.951 0-1.8.793-1.8 1.746v6.613c0 .953.849 1.746 1.868 1.746h5.264c1.02 0 1.868-.793 1.868-1.746v-6.613c0-.953-.849-1.746-1.868-1.746zm.2 2h5v6h-5s0 .044 0 0v-6c0-.044 0 0 0 0z"/>
    <path d="m5 2.971h3v1.003h-3zm2 2.005h1v1.002h-1z"/>
    <path d="m9.229 3c.07 0 0 .209 0 .476v1.078c0 .267.07.476.16.476h4.451c.09 0 .16-.209.16-.476v-1.078c0-.267-.07-.476-.16-.476-.16 0-4.585.063-4.611 0zm-3.256 8.624c.08-.06.253.039.394.223l.573.747c.142.184.191.375.112.435l-3.935 2.954c-.08.059-.253-.039-.395-.224l-.573-.746c-.141-.184-.19-.376-.111-.435 0 0 3.946-2.893 3.935-2.954z"/>
    <path d="m7.027 11.624c-.08-.06-.253.039-.394.223l-.573.747c-.142.184-.191.375-.112.435l3.935 2.954c.08.059.253-.039.395-.224l.573-.746c.141-.184.19-.376.111-.435 0 0-3.946-2.893-3.935-2.954z"/>
  </g>
</svg>
