<svg fill="none" height="16" viewBox="0 0 16 16" width="16" xmlns="http://www.w3.org/2000/svg">
  <g fill="#E6DDFF">
    <path clip-rule="evenodd" d="m3.90695 11.8145c1.02193 1.0994 2.47931 1.7871 4.09695 1.7871 3.0915 0 5.5977-2.5114 5.5977-5.60941 0-3.09797-2.5062-5.60938-5.5977-5.60938-2.69694 0-4.94842 1.91127-5.47918 4.4559.04692-.21716.10634-.42972.17698-.63701l1.0983 1.0983 1.4 1.4v1.4l1.4 1.4.7.7v1.3517c-1.3318-.1674-2.52022-.8033-3.39305-1.7372zm6.89305-1.0145c.4809 0 1.1739.2429 1.631.6111.7576-.9757 1.1689-2.17581 1.169-3.4111 0-2.345-1.4504-4.3554-3.5-5.1877v.2877c0 .3713-.1475.7274-.41005.98995s-.61865.41005-.98995.41005h-.7v.7c0 .3713-.1475.7274-.41005.98995s-.61865.41005-.98995.41005v2.1h2.8c.3713 0 .7274.1475.99.41005.2625.26255.41.61865.41.98995z" fill-rule="evenodd" opacity=".6"/>
    <path clip-rule="evenodd" d="m7.98438 13.6c3.08412 0 5.58442-2.5002 5.58442-5.58438 0-3.08416-2.5003-5.58437-5.58442-5.58437-3.08417 0-5.58438 2.50021-5.58438 5.58437 0 3.08418 2.50021 5.58438 5.58438 5.58438zm0 1.4c3.85732 0 6.98442-3.127 6.98442-6.98438 0-3.85736-3.1271-6.98437-6.98442-6.98437-3.85737 0-6.98438 3.12701-6.98438 6.98437 0 3.85738 3.12701 6.98438 6.98438 6.98438z" fill-rule="evenodd"/>
    <path d="m8.45279 5.01639c-.02578-.00277-.05141.00493-.07129.02246-.01988.01755-.0317.04282-.03418.07031l-.11328 1.24317c-.00518.0572.03452.10872.08789.11426.30918.0321.60682.12149.88574.26562.01327.00687.0285.00977.04297.00977.0108 0 .02085-.00198.03125-.00586.0243-.0091.04449-.02788.05566-.05274l.50586-1.125c.02331-.05176.0034-.11372-.04492-.13867-.42366-.21889-.87668-.35458-1.3457-.40332zm-.93164.01856c-.46678.06786-.91412.22245-1.33008.45898-.04736.02693-.06514.08983-.04004.14063l.5459 1.10351c.01744.03524.05115.05469.08594.05469.01534 0 .03044-.00348.04492-.01172.27401-.15579.56861-.25706.87598-.30176.05312-.00772.09021-.06022.083-.11719l-.15625-1.23828c-.0072-.05695-.05638-.09653-.10937-.08886zm2.99315.89843c-.0256.00285-.0492.01668-.0654.03809l-.73537.96875c-.01623.02143-.02316.04872-.02051.07617.00263.02745.01517.05288.03516.07031.24144.21047.44412.46128.60352.74707.0182.0326.0509.05079.084.05079.0169 0 .0342-.00465.0498-.01465l1-.64063c.0221-.01417.0376-.0367.0439-.06347.0063-.02678.0025-.0554-.0107-.07911-.241-.4321-.5482-.81271-.9131-1.13086-.02-.0174-.0456-.02522-.0713-.02246zm-5.0205.10352c-.02581-.00177-.05097.00717-.07031.02539-.35343.33304-.64688.72541-.87207 1.16699-.01234.02423-.01505.05361-.00781.08008.00724.02649.0233.04829.0459.06152l1.02246.59961c.01478.00868.03112.0127.04687.0127.03434 0 .06733-.0201.08496-.05469.14884-.29187.34336-.55118.57715-.77148.01938-.01819.0306-.04373.03223-.07129.00166-.02754-.00644-.05545-.02344-.07617l-.76953-.9375c-.01699-.02073-.04069-.03338-.06641-.03516zm6.2656 1.89551-1.1123.37304c-.0512.01718-.0795.07603-.0635.13086.0798.27307.1202.55821.1202.84766 0 .04261-.001.08601-.003.13281-.0012.02757.0081.05481.0254.0752.0174.0204.0417.03292.0674.03418l1.1641.05761c.0015.00007.0024 0 .0039 0 .0515 0 .0942-.04383.0967-.09961.003-.06943.0048-.13493.0048-.20019 0-.43742-.0615-.86903-.1826-1.2832-.016-.05487-.0699-.08559-.1211-.06836zm-5.38962.12011c-.02112.00263-.04145.01267-.05762.0293-.03236.03323-.03965.08558-.01855.12793l.86035 1.72852c-.00316.03329-.00488.06763-.00488.10153 0 .2608.09461.5051.2666.6895.172.1844.40031.2861.64355.2861.24325 0 .47255-.1018.64454-.2861.172-.1844.2666-.4287.2666-.6895 0-.26073-.09462-.50603-.2666-.6904-.17176-.18413-.40069-.28586-.64356-.28613h-.00098c-.01642.00002-.03353.00004-.0498.00097l-1.57715-.99707c-.0193-.01222-.04138-.01728-.0625-.01465zm-2.04785.03321c-.02485-.00721-.05188-.00397-.07422.00976-.02234.01374-.03816.03684-.04492.06348-.09241.36533-.13965.74369-.13965 1.125 0 .06526.00186.13076.00488.20019.00242.05579.0451.09961.09668.09961.00152 0 .00337.00009.00489 0l1.16308-.05761c.02571-.00126.05006-.01379.06738-.03418.01735-.02039.0266-.04763.0254-.0752-.00203-.04682-.00293-.09021-.00293-.13281 0-.25252.03082-.50223.09179-.74316.014-.05547-.01662-.11287-.06836-.12793z"/>
  </g>
</svg>
