<svg fill="none" height="16" viewBox="0 0 16 16" width="16" xmlns="http://www.w3.org/2000/svg">
  <path clip-rule="evenodd" d="m2.1375 4.01562v9.75318h11.6v-9.75318zm-.2-3.04687c-.55228 0-1 .44772-1 1v12.00005c0 .5522.44772 1 1 1h12c.5523 0 1-.4478 1-1v-12.00005c0-.55228-.4477-1-1-1zm11.0881 2.34375.3253-.32528.3151.31511.3095-.30953-.3151-.31511.3288-.32877-.3198-.31973-.3287.32877-.3288-.32874-.3095.30953.3287.32874-.3252.32528zm-4.62837-.43019h1.69867v.43019h-1.69867zm3.59297-.80961h-1.242v1.2398h1.242zm-.9273.92516v-.61052h.6127v.61052z" fill="#E6DDFF" fill-rule="evenodd"/>
  <g fill="#c4c4c4">
    <path d="m3 5h3.98438v1.01562h-3.98438z"/>
    <path d="m3 7.04638h2v1.01562h-2z"/>
    <path d="m3 9h2v1.01562h-2z"/>
    <path d="m3 10.9536h2v1.01562h-2z"/>
    <path d="m6 7.04638h2.98438v1.01562h-2.98438z"/>
    <path d="m6 9h5.01562v1.01562h-5.01562z"/>
    <path d="m6 10.9536h4v1.01562h-4z"/>
  </g>
</svg>
