<svg height="16" width="16" xmlns="http://www.w3.org/2000/svg">
  <g fill="#e6ddff" transform="translate(-41.000398 -667)">
    <path d="m47.507806 667.99554c-3.028856 0-5.510726 2.47905-5.510726 5.50447 0 3.02541 2.48187 5.50446 5.510726 5.50446s5.510726-2.47905 5.510726-5.50446c0-3.02542-2.48187-5.50447-5.510726-5.50447zm0 2.00893c1.947357 0 3.499512 1.55039 3.499512 3.49554 0 1.94514-1.552155 3.49553-3.499512 3.49553s-3.499512-1.55039-3.499512-3.49553c0-1.94515 1.552155-3.49554 3.499512-3.49554z"/>
    <path d="m50.8125 676a1.0001 1.0001 0 0 0 -.5 1.71875l4 4a1.0054782 1.0054782 0 1 0 1.40625-1.4375l-4-4a1.0001 1.0001 0 0 0 -.90625-.28125z"/>
  </g>
</svg>
