<svg height="16" width="16" xmlns="http://www.w3.org/2000/svg">
  <g fill="#e6ddff" transform="translate(-83 -649)">
    <path d="m95 650c1.662 0 3 1.338 3 3v6c0 1.662-1.338 3-3 3h-8c-1.662 0-3-1.338-3-3v-6c0-1.662 1.338-3 3-3zm0 2h-8c-.554 0-1 .446-1 1v6c0 .554.446 1 1 1h8c.554 0 1-.446 1-1v-6c0-.554-.446-1-1-1z"/>
    <path d="m91 663c-5 0-5 1-5 1 0 1 1 1 1 1h8c1 0 1-1 1-1s0-1-5-1z"/>
    <path d="m87.5 654s-.5 0-.5.5v4c0 .5.5.5.5.5h4c.5 0 .5-.5.5-.5v-4c0-.5-.4373-.5-.5-.5zm.5002 1.9985h3v1.9999h-3z"/>
    <path d="m93.5 653s-.4999 0-.5.5l-.0002.98437s0 .4995.5.5l.9998.001s.4999 0 .5-.5l.0002-.98437s0-.49931-.5-.5z"/>
  </g>
</svg>
