<svg xmlns="http://www.w3.org/2000/svg" width="16" height="16" version="1.1">
 <path fill="#E6DDFF" d="M 4.666667,3.8333302 6,5.8333299 H 3.333333 L 3,7.1666699 H 1.5 L 2,5.1666702 H 1 L 1.6949151e-8,9.1666699 H 0.94140602 2.399739 L 2,10.5 h 2.333333 l -1.666667,2 H 4.666667 L 6,10.5 h 4 l 1.333334,2 h 2 l -1.666668,-2 H 14 L 13.60026,9.1666699 H 16 L 15,5.1666702 h -1 l 0.5,1.9999997 H 13 l -0.333334,-1.33334 H 10 L 11.333334,3.8333302 H 10.333333 L 9,5.8333299 H 7 L 5.666667,3.8333302 Z M 4.333333,6.8333299 H 6 v 1.66667 H 4.333333 Z m 5.666667,0 h 1.666666 v 1.66667 H 10 Z"/>
</svg>
