<svg height="16" width="16" xmlns="http://www.w3.org/2000/svg">
  <path d="m4.666667 3.8333302 1.333333 1.9999997h-2.666667l-.333333 1.33334h-1.5l.5-1.9999997h-1l-.99999998 3.9999997h.941406 1.45833298l-.399739 1.3333301h2.333333l-1.666667 2h2.000001l1.333333-2h4l1.333334 2h2l-1.666668-2h2.333334l-.39974-1.3333301h2.39974l-1-3.9999997h-1l.5 1.9999997h-1.5l-.333334-1.33334h-2.666666l1.333334-1.9999997h-1.000001l-1.333333 1.9999997h-2l-1.333333-1.9999997zm-.333334 2.9999997h1.666667v1.66667h-1.666667zm5.666667 0h1.666666v1.66667h-1.666666z" fill="#e6ddff"/>
</svg>
