<svg height="16" width="16" xmlns="http://www.w3.org/2000/svg">
  <path d="m8.0182082.66897491-.041229.082304v.1245651l-.041229-.082303-2.4125607 4.96823709-5.4005095.8198792-.07457-.024219-.04811.00747.03195.030746-.02525.00374.04415.014505 4.0045547 3.8538737-.00352.02088-.8813859 5.343128-.1035991.145179.087446-.04672-.011428.06976.014944-.0079.073535-.102919 4.7455694-2.533858 4.8543269 2.59193.01077.01516.01494.0079-.0017-.01011.03163.01692-.03745-.05241-.901488-5.465627-.0035-.02088 4.004552-3.853876.04415-.014505-.02525-.00374.03195-.030746-.04811-.00747-.07457.024218-5.400512-.8198791z" fill="#e6ddff"/>
</svg>
