<svg height="16" width="16" xmlns="http://www.w3.org/2000/svg">
  <g fill="#E6DDFF" transform="translate(-523.0002 105)">
    <path d="m531.0002-100c-2.76142 0-5 2.23858-5 5s2.23858 5 5 5 5-2.23858 5-5-2.23858-5-5-5zm0 1 .28516 3.04297a1 1 0 0 1 .71484.95703 1 1 0 0 1 -.54297.88867l.0527.55274c.0442.35355-.21646.62421-.50977.60351-.25733-.0182-.55067-.29415-.48438-.60351l.0488-.54297a1 1 0 0 1 -.56438-.89844 1 1 0 0 1 .73047-.96289z"/>
    <path d="m530-102h2v1h-2z"/>
    <path d="m531.02734-104.49805c-.686 0-1.37137.23238-1.92773.69922-1.11273.93369-1.3962 2.54088-.66992 3.79883l.86523-.5c-.48695-.84343-.29879-1.90523.44727-2.53125.74605-.62602 1.82425-.62602 2.57031 0s.93422 1.68782.44727 2.53125l.86523.5c.72628-1.25795.4428-2.86514-.66992-3.79883-.55636-.46684-1.24174-.69922-1.92774-.69922z"/>
    <path d="m296.78-456.22h2v1h-2z" transform="matrix(.69053214 .72330171 -.72330171 .69053214 0 0)"/>
  </g>
</svg>
