<svg enable-background="new" height="16.003" width="16" xmlns="http://www.w3.org/2000/svg">
  <path d="m258 76s-2-.0034-2 2v12c0 1.996643 2 2 2 2h12c.0948-.0034 2-.0034 2-2v-12s0-2-2-2zm2.90625 3h6.1875c1.05606 0 1.90625.85019 1.90625 1.90625v.1875c0 1.05606-.85019 1.90625-1.90625 1.90625h-6.1875c-1.05606 0-1.90625-.85019-1.90625-1.90625v-.1875c0-1.05606.85019-1.90625 1.90625-1.90625zm.0937 1c-.55228 0-1 .447715-1 1s.44772 1 1 1 1-.447715 1-1-.44772-1-1-1zm-.0566 5h6.11328c1.07668 0 1.94336.86668 1.94336 1.94336v.11328c0 1.07668-.86668 1.94336-1.94336 1.94336h-6.11328c-1.07668 0-1.94336-.86668-1.94336-1.94336v-.11328c.00001-1.07668.86669-1.94336 1.94336-1.94336zm6.05664 1c-.55228 0-1 .447715-1 1s.44772 1 1 1 1-.447715 1-1-.44772-1-1-1z" fill="#e6ddff" transform="translate(-256 -75.996643)"/>
</svg>
