<svg height="16" viewBox="0 0 16 16" width="16" xmlns="http://www.w3.org/2000/svg">
  <path d="m10.143179 3.9664454-.239305 1.649163h-1.444019c-.877335 0-1.689729.3108306-2.436824.9310686-.19039.155851-.367388.327375-.529142.512774-.08956-.183335-.200466-.355453-.330401-.512774-.511173-.620238-1.209519-.9310686-2.086854-.9310686h-1.865515c-.06672.3483726 0 .6446156.196959.8903256.198562.245887.470427.371147.8204.371147h.610452c.52256 0 .931068.187172 1.225707.564903.29464.377729.393921.830184.29464 1.352744-.09928.524158-.366162.970211-.80403 1.342958-.438046.371146-.923062.560099-1.444019.560099h-.610451c-.349976 0-.66899.120454-.962028.366165-.293039.24589-.473629.540529-.538749.890502h1.871923c.877512 0 1.684925-.306026 2.43202-.921459.190301-.155981.3668-.328079.527541-.514374.09086.184558.203971.357298.336806.514374.511174.615433 1.203113.921459 2.080449.921459h1.8721c.06672-.349973 0-.644612-.198563-.890502-.198738-.245711-.475408-.366165-.823781-.366165h-.60547c-.524158 0-.934449-.188953-1.230689-.560099-.29802-.372747-.397301-.8188-.29624-1.342958.09928-.52256.369367-.975015.809014-1.352744.439468-.377731.922883-.564903 1.44544-.564903h.610451c.340191 0 .652798-.122055.941032-.356379l-.33058 2.259435c-.131838.892103.07651 1.647386.630024 2.272426.540529.634829 1.268054.947437 2.147169.947437.895304 0 1.709299-.312608 2.441805-.947437.73251-.62504 1.171978-1.380323 1.302216-2.272426.13024-.893703-.08131-1.648984-.618637-2.274203-.553338-.6202371-1.286024-.9360494-2.181327-.9360494h-1.904481l.03257-.2489153c.06512-.3679418-.01636-.6903392-.260481-.9572232-.211726-.26706-.515975-.3973007-.887118-.3973007zm.919682 2.8846566h1.920852c.520956 0 .944232.182371 1.269655.559923.293038.376127.407084.839973.341966 1.369112-.08149.528963-.325598.981598-.748877 1.36253-.423276.384134-.895304.579495-1.432453.579495-.537325 0-.960424-.195361-1.269831-.579495-.30923-.380932-.4231-.833567-.357983-1.36253z" fill="#e6ddff"/>
</svg>
