<svg height="16" width="16" xmlns="http://www.w3.org/2000/svg">
  <path d="m564.78476 463.01879c-.24234.001-.52104.0664-.80589.21875-1.03738.54647-1.99198 2.33598-2.51067 4.65625-.44216 1.97089-.60455 4.66601-.34095 5.75.22958.93169.62706 1.34375 1.33282 1.34375 1.04588-.0179 2.35927-1.18225 3.19257-2.75.6027-.86787 2.00051-1.26248 3.34756-1.21875 1.34704-.0471 2.74485.35088 3.34755 1.21875.8333 1.56775 2.14669 2.73208 3.19257 2.75.70576 0 1.10324-.41206 1.33282-1.34375.2636-1.08399.10121-3.77911-.34095-5.75-.51869-2.32027-1.47329-4.10978-2.51067-4.65625-.5697-.30459-1.04015-.29563-1.4568 0-.52719.37626-1.62582.77958-3.56452.78125-1.93871.002-3.03734-.40499-3.56453-.78125-.20832-.14782-.40857-.21987-.65091-.21875zm.24797 3h.99186v1h.99187v1h-.99187v1h-.99186v-1h-.99187v-1h.99187zm7.439 0c.2739 0 .49593.22386.49593.5s-.22203.5-.49593.5-.49593-.22386-.49593-.5.22203-.5.49593-.5zm-.99187 1c.2739 0 .49594.22386.49594.5s-.22204.5-.49594.5c-.27389 0-.49593-.22386-.49593-.5s.22204-.5.49593-.5zm1.98374 0c.27389 0 .49593.22386.49593.5s-.22204.5-.49593.5c-.2739 0-.49594-.22386-.49594-.5s.22204-.5.49594-.5zm-.99187 1c.2739 0 .49593.22386.49593.5s-.22203.5-.49593.5-.49593-.22386-.49593-.5.22203-.5.49593-.5z" fill="#444" transform="translate(-561.00018 -461)"/>
</svg>
