<svg height="16" viewBox="0 0 16 16" width="16"
  xmlns="http://www.w3.org/2000/svg"
  xmlns:xlink="http://www.w3.org/1999/xlink">
  <g clip-path="url(#c)" mask="url(#b)" transform="translate(-168 -16)">
    <path d="m102.527344 57.355469c-11.695313-1.484375-19.335938 1.019531-25.878906 4.417969 6.648437-8.367188 14.945312-10.984376 25.878906-4.417969zm0 0" fill="#444444" fill-rule="evenodd"/>
  </g>
  <g clip-path="url(#e)" mask="url(#d)" transform="translate(-168 -16)">
    <path d="m38.578125 63.035156c11.121094-3.875 19.125-3.015625 26.242187-1.046875-8.277343-6.800781-16.945312-7.640625-26.242187 1.046875zm0 0" fill="#444444" fill-rule="evenodd"/>
  </g>
  <g fill="#444444">
    <path d="m2.5625 5.5c1.699219-1.085938 3.355469-1.09375 5 0 0-1.105469-1.121094-2-2.5-2s-2.5.894531-2.5 2zm0 0"/>
    <path d="m9 5c1.699219-1.085938 3.355469-1.09375 5 0 0-1.105469-1.121094-2-2.5-2s-2.5.894531-2.5 2zm0 0"/>
    <path d="m4 0c-1.089844 0-2 .910156-2 2v12c0 1.089844.910156 2 2 2h6l5-5v-9c0-1.089844-.910156-2-2-2zm0 2h9v9h-3v3h-6zm0 0"/>
    <path d="m14 5.328125c-4.28125 2.144531-8.367188 2.070313-11 1.65625v2.03125c4.265625 3.035156 8.101562 1.625 11-.78125zm0 0" fill-rule="evenodd"/>
  </g>
</svg>