<svg fill="none" height="16" viewBox="0 0 16 16" width="16" xmlns="http://www.w3.org/2000/svg">
  <g fill="#444">
    <path clip-rule="evenodd" d="m1.5 1.74442c-.27614 0-.5.22385-.5.5v8.24998c0 .2762.22386.5.5.5h9.1132l3.1592 3.2211c.0832.0849.2276.0259.2276-.093v-3.1281h.5c.2761 0 .5-.2238.5-.5v-8.24998c0-.27615-.2239-.5-.5-.5zm9.8958 4.625c.7939 0 1.4375-.64359 1.4375-1.4375s-.6436-1.4375-1.4375-1.4375-1.43749.64359-1.43749 1.4375.64359 1.4375 1.43749 1.4375zm-8.1458-.71871c0-.79391.64359-1.4375 1.4375-1.4375s1.4375.64359 1.4375 1.4375c-.00064.12084-.01652.24111-.04726.35797-.16426-.63354-.73575-1.07615-1.39024-1.07672-.6553.0009-1.22705.44487-1.39024 1.07953-.03097-.11777-.04685-.239-.04726-.36078z" fill-rule="evenodd" opacity=".45"/>
    <path d="m6.45776 8.32843c.32678.56599.93034.91501 1.5839.91597.65356 0 1.25712-.34998 1.5839-.91597h-1.5839z" opacity=".7"/>
    <path d="m8.04167 6.12984c-.0734.00004-.14425.03057-.19621.08543l-1.63034 1.52696c-.17445.18448-.0827.73006.16411.73023l1.66244.29279 1.66244-.29279c.2468-.00017.33859-.54575.1641-.73023l-1.63033-1.52696c-.05197-.05496-.12282-.08539-.19621-.08543z"/>
    <path d="m11.3958 5.89024c.5293 0 .9584-.42906.9584-.95833 0-.52928-.4291-.95834-.9584-.95834-.5292 0-.9583.42906-.9583.95834 0 .52927.4291.95833.9583.95833z"/>
  </g>
</svg>
