<svg height="16" viewBox="0 0 16 16" width="16" xmlns="http://www.w3.org/2000/svg">
  <path d="m8 0c-2.096.001-4.108.824-5.603 2.293l2.755 4.773c.404-1.231 1.552-2.065 2.848-2.066h7.412c-1.222-3.021-4.154-4.998-7.412-5zm-6.301 3.086c-1.098 1.403-1.696 3.132-1.699 4.914.004 3.593 2.403 6.742 5.865 7.701l2.752-4.767c-.203.043-.41.065-.617.066-1.071-.002-2.059-.574-2.594-1.502l-.004.002zm8.531 2.914c.494.549.768 1.261.77 2-.001.526-.14 1.043-.404 1.498l.002.002-3.704 6.414c.367.054.736.083 1.106.086 4.418 0 8-3.582 8-8-.002-.675-.089-1.347-.26-2zm-2.23 0c-1.105 0-2 .895-2 2 0 .53.211 1.039.586 1.414s.883.586 1.414.586c.53 0 1.039-.211 1.414-.586s.586-.884.586-1.414c0-.531-.211-1.039-.586-1.414s-.884-.586-1.414-.586z" fill="#474747" fill-rule="evenodd"/>
</svg>
