<svg xmlns="http://www.w3.org/2000/svg" width="16" height="16" version="1.1">
 <g style="fill:#444444;enable-background:new" transform="matrix(0.13888889,0,0,0.13888889,17.056901,-0.53060535)">
  <path style="fill:#444444;paint-order:markers fill stroke" d="M 64,8 C 34.204659,8 10,32.204653 10,62 c -2e-5,29.795337 24.204659,53.99999 54,54 -0.124458,-2.36471 -0.219071,-5.00225 -0.291016,-7.66797 h 14.189454 c 1.150615,0 2.078124,-0.66842 2.078124,-1.49805 v -3.68554 h 11.671876 c 1.150615,0 2.078124,-0.69831 2.078124,-1.56641 v -6.740233 h 6.230469 c 1.150619,0 2.076169,-0.92751 2.076169,-2.078125 v -4.152344 h 4.1543 c 1.15062,0 2.07617,-0.63401 2.07617,-1.419922 V 79.833984 C 114.35825,75.292609 118,69.288284 118,62 118,32.204653 93.795341,8 64,8 Z m 32.710938,46.210938 a 7.2692308,7.2692308 0 0 1 7.269532,7.269531 7.2692308,7.2692308 0 0 1 -7.269532,7.269531 7.2692308,7.2692308 0 0 1 -7.267579,-7.269531 7.2692308,7.2692308 0 0 1 7.267579,-7.269531 z" transform="translate(-129.20969,-0.5796417)"/>
 </g>
</svg>
