<svg height="16" width="16" xmlns="http://www.w3.org/2000/svg">
  <g enable-background="new" fill="#474747" transform="matrix(.52873254951 0 0 .52924797499 -71.37464931578 -28.96744517568)">
    <path d="m156.84717 57.880514a8.405846 8.3976597 0 0 0 -8.40584 8.397764 8.405846 8.3976597 0 0 0 8.40584 8.397576 8.405846 8.3976597 0 0 0 8.40585-8.397576 8.405846 8.3976597 0 0 0 -8.40585-8.397764zm0 6.718212a2.5217538 2.5192979 0 0 1 2.52176 2.519235 2.5217538 2.5192979 0 0 1 -2.52176 2.519423 2.5217538 2.5192979 0 0 1 -2.52175-2.519423 2.5217538 2.5192979 0 0 1 2.52175-2.519235z" fill="#444"/>
    <path d="m143.39782 57.880514a8.405846 8.3976597 0 0 0 -8.40585 8.397764 8.405846 8.3976597 0 0 0 8.40585 8.397576 8.405846 8.3976597 0 0 0 8.40584-8.397576 8.405846 8.3976597 0 0 0 -8.40584-8.397764zm0 6.718212a2.5217538 2.5192979 0 0 1 2.52175 2.519235 2.5217538 2.5192979 0 0 1 -2.52175 2.519423 2.5217538 2.5192979 0 0 1 -2.52176-2.519423 2.5217538 2.5192979 0 0 1 2.52176-2.519235z" fill="#444"/>
    <path d="m150.11161 66.278467c-.4127 0-.83293.151158-1.17516.530187l-6.73865 5.611169c-.0391.04157-.0705.08881-.10476.134153-.009.01889-.0199.02456-.0288.03779-.0914.128484-.15594.263393-.21161.402647-.0214.05479-.0344.109589-.0514.166274-.0329.109589-.065.219178-.0781.332169-.011.08314-.006.166274-.006.250355.0007.08314-.004.168163.006.250355.013.113369.0452.221447.0781.331981.0168.05668.0299.113368.0514.166274.0557.139821.12022.274918.21161.402646.008.0189.0196.02267.0288.0359.0342.04346.0657.09258.10476.137932l6.73865 7.477024c.34223.379218.76246.529242 1.17516.529998h.008.008c.4129-.000567.83276-.151158 1.17516-.529998l6.74279-7.477024c.0391-.04157.0706-.09069.10476-.137932.009-.01889.0203-.02267.0287-.0359.0915-.128484.15585-.263392.21162-.402835.0213-.05479.0345-.10959.0514-.166274.0329-.109589.063-.219368.076-.332169.0106-.08314.008-.166274.008-.250356 0-.08503.002-.168163-.008-.250355-.013-.113368-.0431-.221446-.076-.33198-.017-.05669-.0299-.113369-.0514-.166274-.0557-.139821-.12018-.275107-.21161-.402836-.009-.0189-.0193-.02267-.0288-.0359-.0342-.04535-.0656-.09069-.10478-.134152l-6.74276-5.610981c-.3424-.379406-.76226-.526218-1.17516-.530186-.003 0-.005 0-.008 0s-.005 0-.008 0z" fill="#474747" fill-rule="evenodd"/>
  </g>
</svg>
