<svg fill="none" height="16" viewBox="0 0 16 16" width="16" xmlns="http://www.w3.org/2000/svg">
  <g fill="#444">
    <path clip-rule="evenodd" d="m12.7838 3.39089c-.2065-.06084-.4082-.06599-.5966-.01482-.066.01923-.13.04534-.1917.07819.0928.94466.2864 1.9905.5617 3.03413.2769 1.04419.6258 2.04868 1.012 2.91397.0692-.00348.1371-.01388.2032-.03114v.00004c.1233-.03349.2397-.09075.3471-.17043.1072.37601-.3595.67039-.7408.84307-.0412.3524-.0389.7048.3088 1.0571.4837.4901.8337.5738 1.05.6256.175.0418.2625.0628.2625.2609 0 .4435-1.3125 1.33-2.1875.4435-.1943-.1969-.3455-.3719-.4631-.5251-.013.1111-.004.252.0526.466.1044.395.4155.5925.664.7502.2902.1842.4951.3142.1861.6417-.4443.4709-1.774.4922-2.509-.1191.0624.134.1316.2565.1936.3663.2293.4058.3608.6386-.3117.6386-1.3125 0-2.625-.8866-2.625-2.2166v-.8865h-.00001l.00001.8869c0 1.33-1.31251 2.2166-2.62501 2.2166-.67248 0-.541-.2327-.31171-.6386h.00002c.0614-.1087.12981-.2298.19167-.3622-.73605.6067-2.06035.5843-2.50357.1146-.30903-.3275-.10411-.4575.18611-.6417.24852-.1577.55958-.3552.66404-.7502.05725-.2166.06578-.3583.05205-.47-.11803.1541-.27012.3305-.46612.5291-.87499.8865-2.18748 0-2.18748-.4435 0-.1981.08749-.2191.26246-.2609.2163-.0518.56631-.1355 1.05003-.6256.34827-.3529.34998-.7058.30861-1.0588-.38004-.17265-.84262-.46576-.7375-.8398.10681.07886.22245.13559.345.16886l.00001-.00004c.06612.01726.13397.02766.2032.03114.38625-.86529.73511-1.86978 1.01204-2.91397.27531-1.04363.46892-2.08947.56167-3.03413-.06173-.03285-.12572-.05896-.19164-.07819-.17977-.04881-.37156-.04638-.56809.00674-.01688-.10258-.02683-.18957-.02683-.25642 0-.52355.60987-.58351 1.10957-.54476 1.02174-.77409 2.29193-1.23162 3.67146-1.23162 1.37934 0 2.64941.4574 3.67101 1.2313.5053-.04373 1.1415.00737 1.1415.54214 0 .06923-.0107.16006-.0287.26744z" fill-rule="evenodd"/>
    <path d="m2.2286 9.37126c-.22199-.06027-.4213-.1975-.58655-.40383s-.29321-.47773-.37658-.7987c-.08336-.32097-.1205-.68523-.10928-1.07198s.07057-.78841.17466-1.18206.25089-.77157.432-1.11219c.18112-.34062.39302-.63726.62359-.87299.23057-.23574.4753-.40594.72022-.5009.24493-.09495.48524-.11281.70722-.05254.06592.01923.12991.04534.19164.07819-.09275.94466-.28636 1.9905-.56167 3.03413-.27693 1.04419-.62579 2.04868-1.01204 2.91397-.06923-.00348-.13708-.01388-.2032-.03114" opacity=".2"/>
    <path clip-rule="evenodd" d="m1.16916 6.88215c.02278-.31976.07729-.64637.16144-.96739.02435-.09021.05098-.17972.07982-.26825.6006.08085.61426-.0679.94676-.13405.37101-.07385 1.06645.62615.4648.5208-.60131-.10535-.77736.86312-1.59531.85332-.0252-.00035-.03406-.00373-.05751-.00443z" fill-rule="evenodd"/>
    <path d="m13.7724 9.37126c.222-.06027.4213-.1975.5865-.40383.1653-.20633.2932-.47773.3766-.7987s.1205-.68523.1093-1.07198-.0706-.78841-.1747-1.18206-.2509-.77157-.432-1.11219-.393-.63726-.6235-.87299c-.2306-.23574-.4753-.40594-.7202-.5009-.245-.09495-.4853-.11281-.7072-.05254-.066.01923-.13.04534-.1917.07819.0928.94466.2864 1.9905.5617 3.03413.2769 1.04419.6258 2.04868 1.012 2.91397.0692-.00348.1371-.01388.2032-.03114" opacity=".2"/>
    <path clip-rule="evenodd" d="m14.8318 6.88215c-.0228-.31976-.0773-.64637-.1615-.96739-.0243-.09021-.0509-.17972-.0798-.26825-.6006.08085-.6142-.0679-.9467-.13405-.371-.07385-1.0665.62615-.4648.5208.6013-.10535.7773.86312 1.5953.85332.0252-.00035.0339-.00385.0574-.00455" fill-rule="evenodd"/>
  </g>
</svg>
