<svg height="16" width="16" xmlns="http://www.w3.org/2000/svg">
  <g fill="#444">
    <path d="m8 2h1c2.773268 0 5 2.2267317 5 5v1h2v-1c0-3.8541485-3.145851-7-7-7h-1z"/>
    <path d="m8 6h1c.5641294 0 1 .4358706 1 1v1h2v-1c0-1.6450096-1.35499-3-3-3h-1z"/>
    <path d="m5.9511719 6.2207031c-.2556191 0-.5111627.0971-.7070313.2929688l-4.95117185 4.9492191c-.39173716.391737-.39173716 1.022325 0 1.414062l2.83007815 2.830078c.3917371.391737 1.0223253.391737 1.4140625 0l4.9492187-4.951172c.3917372-.391737.3917372-1.022325 0-1.4140621l-2.828125-2.828125c-.1958686-.1958686-.4514121-.2929688-.7070312-.2929688zm.0488281 1.7792969c.5522847 0 1 .4477153 1 1s-.4477153 1-1 1-1-.4477153-1-1 .4477153-1 1-1z"/>
  </g>
</svg>
