<svg height="16" width="16" xmlns="http://www.w3.org/2000/svg">
  <g fill="#444" transform="translate(.000012 -31.5)">
    <path d="m3.5857105 33.785647v1.378575h5.4857368c2.2994077 0 4.1071627 1.80777 4.1071627 4.107182 0 2.299413-1.807755 4.107142-4.1071627 4.107142h-5.4857368v1.378575h5.4857368c3.0390977 0 5.4857367-2.446643 5.4857367-5.485717 0-3.039114-2.446639-5.485757-5.4857367-5.485757z"/>
    <path d="m4.5 32.41h.457v13.257h-.457z"/>
    <path d="m-10.44 39.27h9.143v.457h-9.143z" transform="scale(-1 1)"/>
    <path d="m12.271463 39.49995-1.828581.914307v-1.828572z"/>
    <path d="m4.7285708 47.5-.9142863-1.828573h1.8285766z"/>
    <path d="m4.04 31.5h1.371v1.371h-1.371z"/>
    <path d="m4.27 31.73h.914v.914h-.914z"/>
    <path d="m7.700012 36.985658 2.2857255 4.571452h-4.571451z"/>
  </g>
</svg>
