<svg height="16" viewBox="0 0 4.23 4.23" width="16" xmlns="http://www.w3.org/2000/svg">
  <path d="m1.5689225 293.37332c-.052606.00022-.4878035.0126-.94691378.35371 0 0-.48971705.88082-.48971705 1.96567 0 0 .28566369.48973 1.03724403.51353 0 0 .1258297-.14963.2278541-.27887-.43190364-.12923-.59514191-.39788-.59514191-.39788s.0340153.0238.0952301.0578c.003403 0 .006787.004.0135928.007.0102028.007.0204084.0102.0306103.017.08502.0476.17003811.085.24825691.11563.1394334.0579.3060785.10883.4999249.14623.2550611.0476.5543276.0646.8808059.004.1598385-.0306.3230878-.0748.4931287-.14623.1190285-.0442.2516555-.10882.3910888-.20064 0 0-.1700379.27546-.6155447.4013.1020247.12583.2244559.27205.2244559.27205.7515804-.0238 1.0372441-.51353 1.0372441-.51013 0-1.08486-.4897172-1.96568-.4897172-1.96568-.4863167-.36388-.952235-.35368-.952235-.35368l-.047602.0544c.5781388.17343.8467972.42851.8467972.42851-.3536852-.19044-.7005607-.28568-1.023638-.32309-.2448588-.0272-.4795243-.0204-.6869739.007-.020405 0-.037404.004-.05781.007-.1190285.0136-.4080954.0544-.77198279.21425-.12583014.0544-.20065493.0952-.20065493.0952s.278867-.26868.89101382-.44211l-.034009-.0408s-.0018-.00003-.00531-.00002zm-.086511 1.25493c.1938464 0 .3502857.16664.3468851.37409 0 .20745-.1530387.37409-.3468851.37409-.1904457 0-.3468851-.16664-.3468851-.37409s.1530386-.37409.3468851-.37409zm1.2412972 0c.1904457 0 .3468852.16664.3468852.37409s-.1530386.37409-.3468852.37409c-.1904456 0-.3468852-.16664-.3468852-.37409s.1530386-.37409.3468852-.37409z" fill="#444" transform="translate(0 -292.76665)"/>
</svg>
