<svg height="16" width="16" xmlns="http://www.w3.org/2000/svg">
  <g fill="#444" transform="translate(-40 -688)">
    <path d="m47.5 688.0134c-4.130291 0-7.486607 3.35631-7.486607 7.48661 0 4.13029 3.356316 7.4866 7.486607 7.4866s7.486607-3.35631 7.486607-7.4866c0-4.1303-3.356316-7.48661-7.486607-7.48661zm0 1.97321c3.049411 0 5.513393 2.46399 5.513393 5.5134s-2.463982 5.51339-5.513393 5.51339-5.513393-2.46398-5.513393-5.51339 2.463982-5.5134 5.513393-5.5134z"/>
    <path d="m50.40625 692a.50005.50005 0 0 0 -.25.15625l-2.65625 2.65625-1.65625-1.65625a.50005.50005 0 1 0 -.6875.6875l2 2a.50005.50005 0 0 0 .6875 0l3-3a.50005.50005 0 0 0 -.4375-.84375z"/>
  </g>
</svg>
