<svg fill="none" height="16" viewBox="0 0 16 16" width="16" xmlns="http://www.w3.org/2000/svg">
  <path clip-rule="evenodd" d="m2 1c-.55228 0-1 .44772-1 1v12c0 .5523.44772 1 1 1h12c.5523 0 1-.4477 1-1v-12c0-.55228-.4477-1-1-1zm10.8 7c0 2.651-2.149 4.8-4.8 4.8-2.65097 0-4.8-2.149-4.8-4.8 0-2.65097 2.14903-4.8 4.8-4.8 2.651 0 4.8 2.14903 4.8 4.8zm1.2 0c0 3.3137-2.6863 6-6 6-3.31371 0-6-2.6863-6-6 0-3.31371 2.68629-6 6-6 3.3137 0 6 2.68629 6 6zm-6.00001 2.5875c1.42904 0 2.58751-1.15846 2.58751-2.5875 0-1.42903-1.15847-2.5875-2.58751-2.5875s-2.5875 1.15847-2.5875 2.5875c0 1.42904 1.15846 2.5875 2.5875 2.5875zm0 1.2c2.09181 0 3.78751-1.6957 3.78751-3.7875 0-2.09178-1.6957-3.7875-3.78751-3.7875-2.09178 0-3.7875 1.69572-3.7875 3.7875 0 2.0918 1.69572 3.7875 3.7875 3.7875zm-.00001-2.25937c.84396 0 1.52812-.68416 1.52812-1.52812s-.68416-1.52813-1.52812-1.52813-1.52813.68417-1.52813 1.52813.68417 1.52812 1.52813 1.52812z" fill="#444" fill-rule="evenodd"/>
</svg>
