<svg height="16" width="16" xmlns="http://www.w3.org/2000/svg">
  <path d="m6.906316.50157923c-.498755-.010607-.931248.033908-1.108572.082659-.27911.074358-.698071.23274657-.868966.47398117-.116251.1618413-.214494.3694996-.214494.65761.0043.5437561-.0069.9935442 0 1.541747 0 .3060035-.105616.449592-.420619.456717h-1.4428706c-.3084572 0-.5428384-.00641-.7209121.072719-.1800021.0813756-.3081448.1863147-.403878.3149412-.1941451.2527528-.2260043.7239255-.2260043 1.0416079 0 0 .00212.2543465.066441.7591023.054643.3918742.4859025 3.1093506.896693 3.9320562.159425.321754.2652362.454644.5775666.596401.9000634.209306 4.0638894 1.262273 4.4076074.537283.281376-.736348.421737-1.9510726.480259-2.4326853 0 .3251288.05048 1.6401353.938023 1.9487643.351679.121126 1.076587.228176 1.815881.311802.669115.07447.996094.331113.996094 2.006312 0 1.018404-.06213 1.090261-1.205357 1.090261-1.032333 0-1.473213.000007-1.473213-.535714 0-.53572.31513-.535714 1.071428-.535714v-1.071428c-1.512607 0-2.142856-.000009-2.142856 1.765136 0 1.609894.612485 1.984862 2.755474 1.984862 1.680501 0 2.273286-.05614 2.96683-2.155412.136887-.415124.471856-1.681245.672258-3.808591.125894-1.3430509-.121994-5.3989503-.318603-6.4269977v-.00158c-.114109-.5992998-.476146-.8922673-.807756-1.0091614-.355719-.1262158-1.077428-.2529587-1.981724-.3573169-.730722-.085019-1.69701-.1857893-2.215051-.1695034 0-.3750043-.249567-.6861391-.583321-.8192657-.444648-.17309127-1.011066-.23993177-1.510358-.25059267zm4.504392 6.42699767c.443806 0 .803571.4796871.803571 1.0714278h-1.607142c0-.5917568.359764-1.0714278.803571-1.0714278z" fill="#444"/>
</svg>
