<svg height="16" width="16" xmlns="http://www.w3.org/2000/svg">
  <path d="m44.238 81-.353.36-8.969 9.095-.03.045c-.061.099-.27.45-.583 1.088-.314.638-.7 1.51-1.012 2.492l-.291.92.92-.291a18.163 18.163 0 0 0 2.492-1.012c.638-.314.987-.52 1.088-.584l.045-.029 9.455-9.322zm-.238 8v1h3v-1zm-8.11 1.89 1.22 1.22-.178.175c.007-.005-.379.227-.961.514-.214.105-.536.222-.834.338l-.274-.274c.116-.298.233-.62.338-.834.287-.582.518-.966.514-.96zm6.11.11v1h5v-1zm-2 2v1h7v-1z" fill="#444" transform="translate(-32 -80)"/>
</svg>
