<svg height="16" width="16.000002" xmlns="http://www.w3.org/2000/svg">
  <path d="m307.3752-145c-3.10783 0-4.375 2.08343-4.375 4.46875 0 5.78662 4.4701 11.53125 6.0625 11.53125s3.9375-3.96875 3.9375-3.96875c.77957 1.90227 2.63571 3.96875 3.84375 3.96875 1.53357 0 2.15625-.60233 2.15625-1.5625s-2.33903-1.02036-2.71875-2.4375-1.24338-4.9375-2.84375-4.9375c-1.60036 0-3.4375 2.90625-3.4375 2.90625 0-2.18361 1.03125-2.90213 1.03125-5.4375s-.54842-4.53125-3.65625-4.53125zm-1.875 3c.38672 0 .734.21081 1 .53125.266-.32044.61328-.53125 1-.53125.82843 0 1.5.89543 1.5 2s-.67157 2-1.5 2c-.38672 0-.734-.21081-1-.53125-.266.32044-.61328.53125-1 .53125-.82843 0-1.5-.89543-1.5-2s.67157-2 1.5-2zm0 2c-.27614 0-.5.22386-.5.5s.22386.5.5.5.5-.22386.5-.5-.22386-.5-.5-.5zm2 0c-.27614 0-.5.22386-.5.5s.22386.5.5.5.5-.22386.5-.5-.22386-.5-.5-.5zm-2.5 3h3s-.50747.96875-1.5625.96875-1.4375-.96875-1.4375-.96875z" fill="#444" transform="translate(-303.0002 145)"/>
</svg>
