<svg height="16" viewBox="0 0 16 16" width="16" xmlns="http://www.w3.org/2000/svg">
  <path d="m7.9879117.50052976c-2.7024906 0-4.8781416 2.17568494-4.8781416 4.87812274v2.4390802h-.6097701v3.4680563l.2477102-.323906c.3544819-.476031 1.2992995-1.1560054 2.0389115-1.4481629.3896617-.1542047 1.3252686-.3227716 2.3819074-.438274 1.5920125-.1791496 4.5998629-.0381732 5.6975219-1.2576756v-2.4390802c0-2.7024378-2.175652-4.87812275-4.8781468-4.87812275zm.4001613.59074014c.2311937.0151181.4578141.0404409.685988.0952441.8197566.1969134.9123096.3867591.1143307.2286614-1.2555061-.2486929-2.9230828.3099213-3.9444358 1.3338708-.3053859.3061417-.6907011.8131275-.8574879 1.124296-.3436346.6411591-.2895874.2282835.076233-.5526425.6687987-1.4275652 2.3069555-2.32388018 3.9253832-2.2294298zm-.4001613 1.8483401c1.3512491 0 2.4390733 1.0878236 2.4390733 2.4390425v2.4390802h-4.8781422v-2.4390802c0-1.3512189 1.0878236-2.4390425 2.4390689-2.4390425zm5.4879163 5.9490519-.647879.5335181c-.352139.2997165-.90322.709757-1.238593.914645-.686374.41949-2.3136723 1.009927-2.8011218 1.009927-.1833448 0-.2908346.04422-.2477102.11452.08126.131906 1.0555313.07219 2.077025-.133417.335357-.06765 1.113585-.371906 1.734025-.685984l1.124262-.571653v-.5907026zm0 1.3147841-.342992.476409c-1.137653 1.568126-2.990162 2.437039-5.5641343 2.591508-1.7192315.103182-1.0897777.298583.9718185.30463 1.3965394.0017 1.7113218-.04044 2.5534038-.323905.526821-.17726.96429-.312567.990875-.28611.09592.096-.934749.948963-1.505367 1.238589-1.0933156.55491-1.8378031.710702-3.8110491.800315-1.4017398.06387-1.9772182.136063-2.2485203.285732-.3454488.19011-.1172031.203338 4.2874318.209386h4.6685376z" fill="#444"/>
</svg>
