<svg height="16" width="16" xmlns="http://www.w3.org/2000/svg">
  <path d="m5.8447254 2.9996973c-1.562166.00196-3.12333.0009807-4.684297.00196-.118711 0-.23092405.025008-.33403305.08801-.26553.1610154-.351438.3980419-.320334.6870763.000981.015005.002.03001.002.045015-.0012 1.5481673-.0034 2.4322614-.0039 3.9794235 0 .3930402.276527 1.189124.67977105 1.1951261.107511.00196.214924.00196.322335.00196.987804.00196 2.007311.00392 2.994414.00598-.07901.4340482-.28303.9541074-.625065 1.2621378-.285031.256028-.484051.370037-.85009.451045-.289031.06401-.513054.16002-.514053.385042 0 .06401.003.128014.004.193022l-.008.879092c.002.163016.002.327032.004.490053.003.233026.07501.364036.315033.330034.314034-.04398.719074-.114009 1.024106-.197023.01101-.006.02401-.01098.035-.018.02001-.005.039-.01.05801-.01501.036-.018.07101-.038.108012-.053 1.456154-.587066 2.4442592-2.017219 2.4452595-3.5453785.00196-1.7101782 0-3.419361 0-5.1295393l.00221-.4548013c-.025101-.3143886-.3159096-.58271-.6543745-.582303zm9.0009506 0c-1.562166.00196-3.123331.0009807-4.684496.00196-.118011 0-.2310236.025008-.3340356.08801-.265027.1610154-.351036.3980419-.320032.6870763.000981.015005.002.03001.002.045015-.000981 1.5481673-.004 2.4322614-.004 3.9794235 0 .3930402.27603 1.189124.6800726 1.1951261.10701.00196.214021.00196.322031.00196.988107.00196 2.007215.00392 2.994318.00598-.07901.4340444-.283031.9541034-.625065 1.2621338-.285031.256028-.484051.370037-.850092.451045-.28903.06401-.513054.16002-.514054.385043 0 .06401.003.128014.004.193021l-.008.879092c.002.163016.002.327033.004.490054.003.233025.07501.364035.315035.330033.314031-.04398.719075-.114009 1.024107-.197022.01101-.006.02401-.01098.035-.018.02001-.005.039-.01.05801-.01501.036-.018.07101-.038.108012-.053 1.456156-.587067 2.44426-2.017219 2.44526-3.5453793.002-1.7101782 0-3.419361 0-5.1295393.005-.037022.00023-.474509.00023-.474509-.03536-.3058163-.32105-.5629967-.652418-.5625995z" fill="#444"/>
</svg>
