<svg fill="none" height="16" viewBox="0 0 16 16" width="16" xmlns="http://www.w3.org/2000/svg">
  <g fill="#444">
    <path d="m1.71576 10.9136h12.56844v2.5864c0 .8284-.6715 1.5-1.5 1.5h-11.06844z" opacity=".2"/>
    <path clip-rule="evenodd" d="m1.71576 1v14h11.35104c.6744 0 1.2174-.543 1.2174-1.2174v-.2965-.0078-8.21744-.00771-3.03576c0-.67443-.543-1.21739-1.2174-1.21739zm12.56844 12.4861c-.0042.6708-.5456 1.2095-1.2174 1.2095h-11.04667v-2.1304h11.04667c.6739 0 1.2166-.5421 1.2174-1.2158zm-6.19148-6.71584c-.04006.01403-.10217.02504-.1863.03306l-.02404.27645c.27044-.01803.47177-.02704.60399-.02704.14224 0 .34557.00601.61001.01803l.02704-.28247-.01502-.01803c-.06611.00601-.1172.00902-.15326.00902-.05809 0-.09916-.01503-.1232-.04508-.02203-.03205-.03305-.08614-.03305-.16226 0-.36861.00501-.73522.01502-1.09982.05609 0 .09616.00902.1202.02705s.04207.05609.05409.11419c.01202.05609.02304.15325.03305.29148l.37262-.02404c-.00601-.17028-.01102-.4247-.01503-.76326l-.03906-.04207-.3636.03305h-.94356l-.35759-.03305-.03906.04207c-.00401.29048-.01202.55291-.02404.7873l.37261-.02404c.01002-.1202.02104-.20835.03306-.26444.01402-.05609.03406-.09415.0601-.11419.02804-.02003.07011-.03005.12621-.03005v1.07578c0 .0641-.00802.11318-.02404.14724-.01603.03406-.04508.0591-.08715.07512zm-4.8819.29148c.1222-.00601.22337-.00901.3035-.00901.04007 0 .1212.00401.2434.01202.12221.00801.20534.01502.24942.02103.57695 0 .86542-.20934.86542-.62803 0-.1202-.03506-.21235-.10517-.27646-.06811-.06611-.15826-.11919-.27045-.15926.09015-.0601.16127-.12621.21335-.19833.05209-.07212.07813-.15926.07813-.26143 0-.15425-.05809-.27145-.17428-.35158-.1162-.08213-.28648-.1232-.51085-.1232-.05008.002-.13722.00601-.26143.01202-.1222.00401-.22737.00701-.31552.00901l-.50783-.00601-.03606.2404.03606.03606c.00801 0 .02203-.001.04207-.003.02003-.00201.04006-.00301.06009-.00301.05409 0 .08114.04608.08114.13823l-.00301 1.07277c0 .07212-.01402.1232-.04207.15325-.02804.03005-.08113.05208-.15926.06611l-.02704.27044c.03806-.002.11819-.00601.24039-.01202zm.70316-1.1569c-.05609-.01002-.09315-.01703-.11118-.02104 0-.02604.002-.08113.00601-.16527.00601-.08614.01102-.15626.01502-.21035.00201-.01602.00601-.02704.01202-.03305.00802-.00601.02204-.00902.04207-.00902.09816 0 .17129.01703.21936.05109.04808.03205.07212.08313.07212.15325 0 .04808-.01001.09115-.03005.12921-.01803.03606-.03906.06611-.0631.09015-.02204.02204-.03305.03105-.03305.02705-.02805 0-.07112-.00401-.12922-.01202zm-.08113.77227c-.03406-.02204-.05109-.05709-.05109-.10517l.01503-.3005h.23739c.0621.02003.10918.04908.14123.08714.03406.03807.05109.08214.05109.13222 0 .07212-.01903.12721-.0571.16528-.03806.03605-.09415.05408-.16827.05408-.07613 0-.13222-.01101-.16828-.03305zm1.28337.11419c-.01803.02203-.0601.04006-.12621.05409l-.02103.21635c.03005-.002.08614-.004.16828-.00601.08414-.002.17128-.003.26143-.003.07412 0 .15525.001.2434.003.09015.00401.15225.00601.18631.00601l.02103-.21034-.02103-.02705c-.00201 0-.00902.001-.02104.00301-.01202.002-.02905.003-.05108.003-.03206 0-.05309-.01001-.06311-.03005-.01001-.02203-.01502-.0651-.01502-.12921 0-.32053.00801-.58496.02404-.79331.004-.04407.01402-.07312.03005-.08714.01602-.01402.05208-.02504.10818-.03306l.01803-.22837c-.03606 0-.10117.002-.19533.00601-.09215.002-.17629.003-.25241.003h-.41469l-.02103.18931.02404.03606h.0601c.03405 0 .05709.00802.06911.02404.01202.01403.01803.04508.01803.09316v.77528c0 .0661-.01001.11118-.03005.13522zm2.14333-.5439c.0581.01402.1222.04708.19232.09916.07212.05209.10818.13122.10818.2374 0 .16827-.0611.29348-.1833.37562-.1202.08013-.30451.12019-.55292.12019-.03205-.00601-.09716-.01202-.19532-.01803-.09616-.004-.17128-.00701-.22537-.00901-.06811 0-.15526.002-.26143.00601-.10618.00401-.17629.00701-.21035.00901l.02404-.22837c.06411-.01002.10718-.02605.12922-.04808.02203-.02404.03305-.06311.03305-.11719l.003-.80834c0-.03205-.006-.05709-.01802-.07512-.01002-.01803-.02505-.02705-.04508-.02705l-.08714.00301-.03306-.03005.03306-.20434.43872.00601c.07613-.002.16828-.00501.27646-.00901.10817-.00401.1843-.00701.22837-.00902.19032 0 .33455.03206.43272.09616.09816.0621.14724.15426.14724.27646 0 .09616-.02805.17428-.08414.23438-.05409.0581-.10417.09817-.15025.1202zm-.58296-.36961c-.004.05609-.00801.11018-.01202.16227-.002.05008-.003.07913-.003.08714.01402.00201.04307.00701.08714.01503.04407.00801.07813.01202.10217.01202l.02704-.02705c.01403-.01402.02705-.03305.03907-.05709.01402-.02604.02103-.05509.02103-.08714 0-.04408-.01803-.07713-.05409-.09917-.03405-.02203-.08814-.03305-.16226-.03305-.01603 0-.02705.002-.03306.00601-.00601.004-.01002.01102-.01202.02103zm.13522.87745c.11219 0 .16828-.04908.16828-.14724 0-.03206-.01202-.0601-.03606-.08414-.02404-.02605-.05709-.04608-.09916-.0601l-.18931-.00301-.01202.19833c0 .03406.01302.0591.03906.07512.02805.01403.07112.02104.12921.02104zm4.08419.56863c-.034.17629-.0621.38263-.0841.61902l-.0451.04808c-.3365-.01402-.6581-.02103-.96458-.02103-.19633 0-.40767.01001-.63405.03005l.02705-.27646c.07612-.01202.12721-.03606.15325-.07212.02805-.03806.04207-.10217.04207-.19231l.003-1.00666c0-.06611-.005-.10918-.01502-.12922-.01002-.02203-.03205-.03305-.06611-.03305-.02805 0-.05409.002-.07813.00601l-.03606-.04207.02705-.23739c.04006 0 .07111.001.09315.003.2444.00401.44674.00601.607.00601.18828 0 .36858-.003.54088-.00901.1743-.00802.3035-.01703.3877-.02705l.039.04808c-.016.08214-.031.1803-.0451.29449-.012.11419-.02.21535-.024.3035l-.4147.02704.006-.11118c0-.04608-.008-.08013-.024-.10217-.014-.02404-.0421-.04006-.0842-.04808-.04-.01001-.1021-.01502-.1863-.01502-.042 0-.0701.00501-.0841.01502-.012.01002-.018.03205-.018.06611l-.0181.33956.2465.00301c.0801 0 .1903-.00601.3305-.01803l.0361.04206-.0421.34557c-.1923-.00601-.3125-.00901-.3606-.00901-.0421 0-.1172.00601-.22538.01803l-.00301.25542c0 .05409.00301.09416.00902.1202.00801.02404.02107.04006.03907.04808.02.00801.0521.01202.0962.01202.0901 0 .1572-.00802.2013-.02404.0441-.01603.0761-.04508.0961-.08715.0221-.04407.0391-.11318.0511-.20734l.3847-.02704zm1.0458-.51154-.0211.25242.0211.02103.3065-.01202c.1522-.006.2574-.00901.3155-.00901.0741 0 .1522.002.2344.00601.0821.002.1392.003.1713.003l.027-.27044-.012-.01202c-.0701-.002-.1342-.02304-.1923-.0631-.0581-.04007-.1192-.10518-.1833-.19533l-.2615-.3666.2825-.43572c.0501-.08013.1022-.14323.1562-.18931.0561-.04608.1323-.09215.2284-.13823l.0151-.26143-.0121-.02404c-.024.00201-.0721.00401-.1442.00601-.0721.00201-.1533.00301-.2434.00301h-.4658l-.018.24039.006.01803c.0441 0 .0741.00501.0902.01503.016.00801.024.02304.024.04507 0 .01803-.013.05209-.0391.10217-.026.05008-.0551.10117-.0871.15325l-.0571.09616c-.01-.01603-.0321-.04708-.0661-.09315-.0341-.04808-.0631-.09215-.0872-.13222-.024-.04207-.036-.07913-.036-.11118 0-.04808.039-.07212.1172-.07212l.021-.24641-.018-.03305-.2494.01202c-.1242.004-.2144.00601-.2705.00601h-.3546c-.0901-.00201-.1482-.00301-.1743-.00301l-.027.27345.015.01803c.0842.02004.1493.04508.1953.07513.0481.03005.1022.08914.1623.17729l.2464.3636-.2644.38163c-.0561.08013-.1222.16026-.1983.24039-.0762.07813-.1363.12721-.1803.14724l-.0181.2404.0151.04207.1863-.01202c.0941-.00401.1662-.00601.2163-.00601.0741.002.1583.00501.2524.00901.0962.00401.1633.00702.2014.00902l.015-.2434-.018-.03306c-.0401 0-.0702-.00701-.0902-.02103-.018-.01402-.027-.03706-.027-.06911 0-.02605.017-.06611.0511-.1202l.1141-.18931.1833.26443c.0221.03005.0331.0571.0331.08114 0 .03605-.029.05609-.0871.06009z" fill-rule="evenodd"/>
  </g>
</svg>
