<svg fill="none" height="16" viewBox="0 0 16 16" width="16" xmlns="http://www.w3.org/2000/svg">
  <g fill="#444">
    <path d="m1 7.53125c0-.27614.22386-.5.5-.5h6c.27614 0 .5.22386.5.5v.95313c0 .27614-.22386.49999-.5.49999h-6c-.27614 0-.5-.22385-.5-.5z"/>
    <path d="m9 7.33125c0-.16569.13431-.3.3-.3h1.4c.1657 0 .3.13431.3.3v1.35313c0 .16568-.1343.29999-.3.29999h-1.4c-.16569 0-.3-.13431-.3-.3z"/>
    <path d="m4.52746 5.99425c-1.35619 0-2.03428-.65308-2.03428-1.95922v-.93082c0-.40035.09008-.75816.27024-1.07344.18516-.32028.45039-.5705.7957-.75066.3453-.18016.75065-.27024 1.21606-.27024.26524 0 .49794.01752.69811.05255.1311.01966.26005.04791.38686.08475.1207.03506.19866.14888.19866.27457v.42807c0 .21634-.22483.36544-.4362.31932-.21637-.0472-.4538-.0708-.71231-.0708-.3453 0-.61554.06756-.81071.20268-.19017.13011-.28525.30026-.28525.51044v.13512c.12511-.08007.28275-.14262.47291-.18766.19017-.05005.37033-.07507.54048-.07507.58551 0 1.01589.13762 1.29113.41286.28025.27024.42037.67059.42037 1.20106 0 .52046-.16264.93332-.48793 1.23859-.32528.30526-.83323.4579-1.52384.4579zm.00751-.99838c.24522 0 .43038-.05505.55549-.16514.12511-.1101.18766-.27024.18766-.48043 0-.22019-.05755-.38533-.17265-.49543-.11009-.1101-.29526-.16515-.55549-.16515-.24021 0-.48542.07507-.73564.2252v.35281c0 .25022.06005.43538.18016.55549.1201.1151.30026.17265.54047.17265z"/>
    <path d="m4.28521 14.9688c-.2285 0-.5042-.0249-.82709-.0746-.21831-.0341-.40383-.074-.55656-.1199-.116-.0348-.18856-.1452-.18856-.2663v-.4538c0-.2177.22687-.3661.43757-.3113.07077.0184.14348.0346.21814.0486.24341.0447.47439.067.69296.067.28812 0 .49675-.0348.62591-.1043.13412-.0745.20118-.2037.20118-.3875 0-.2781-.21857-.4172-.65571-.4172h-.48225c-.17693 0-.31543-.1524-.29865-.3285l.03227-.3388c.01466-.154.14398-.2716.29865-.2716h.40528c.2136 0 .36759-.0348.46197-.1043.09935-.0696.14903-.1813.14903-.3353 0-.149-.0621-.2583-.18628-.3279-.12419-.0745-.32041-.1117-.58865-.1117-.2136 0-.43217.0248-.65571.0745-.045.01-.08878.0206-.13136.0318-.21413.0563-.44984-.0955-.44984-.317v-.4321c0-.1207.07197-.231.18668-.2685.14857-.0486.31733-.0901.50629-.1245.27321-.0496.54394-.0745.81218-.0745.40734 0 .75506.0596 1.04318.1788.29308.1193.51413.2832.66316.4918.15399.2087.23099.4471.23099.7154 0 .2285-.04471.4396-.13412.6333-.08942.1888-.21609.3353-.38002.4396.40237.1689.60355.5042.60355 1.006 0 .4917-.18628.8618-.55884 1.1102-.3676.2484-.85938.3726-1.47535.3726z"/>
    <path d="m12.9727 10.4816c-.2285 0-.5042-.0248-.8271-.0745-.2183-.0341-.4038-.0741-.5565-.1199-.116-.0348-.1886-.1453-.1886-.2664v-.45368c0-.21769.2269-.36609.4376-.31136.0707.01838.1434.03457.2181.04857.2434.04471.4744.06706.693.06706.2881 0 .4967-.03477.6259-.10432.1341-.07451.2012-.20366.2012-.38746 0-.27818-.2186-.41727-.6557-.41727h-.4823c-.1769 0-.3154-.15232-.2987-.32844l.0323-.33886c.0147-.15397.144-.27156.2987-.27156h.4052c.2136 0 .3676-.03477.462-.10432.0994-.06954.149-.18131.149-.3353 0-.14903-.062-.25831-.1862-.32786-.1242-.07451-.3204-.11177-.5887-.11177-.2136 0-.4322.02484-.6557.07452-.045.00999-.0888.0206-.1314.0318-.2141.05636-.4498-.09551-.4498-.31693v-.43219c0-.1207.072-.23093.1867-.26847.1486-.04861.3173-.09009.5063-.12445.2732-.04968.5439-.07451.8122-.07451.4073 0 .755.05961 1.0431.17883.2931.11922.5142.28314.6632.49178.154.20863.231.44707.231.71532 0 .2285-.0447.43962-.1341.63336-.0894.18876-.2161.3353-.38.43962.4023.1689.6035.5042.6035 1.00592 0 .49178-.1863.86186-.5588 1.11027-.3676.2483-.8594.3725-1.4754.3725z"/>
  </g>
</svg>
