<svg fill="none" height="16" viewBox="0 0 16 16" width="16" xmlns="http://www.w3.org/2000/svg">
  <path clip-rule="evenodd" d="m1.50909 1c-.28116 0-.50909.22793-.50909.50909v12.98181c0 .2812.22793.5091.50909.5091h12.98181c.2812 0 .5091-.2279.5091-.5091v-12.98181c0-.28116-.2279-.50909-.5091-.50909zm3.47668 2.81668c.77559-.32387 1.50154-.31048 1.50154-.31048h5.30659c.125-.00091.249.02298.3648.07031.1157.04732.221.11713.3097.20541.0888.08828.1592.19329.2072.30896.0481.11568.0728.23974.0728.36505 0 .1253-.0247.24936-.0728.36504-.048.11568-.1184.22068-.2072.30896-.0887.08828-.194.1581-.3097.20542-.1158.04732-.2398.07121-.3648.07031h-5.30659s-.41105.01334-.77258.1643c-.00966.00404-.0192.00801-.02862.01194-.34306.14284-.5254.21877-.5254.77333 0 .55457.18235.6305.5254.77334.00942.00392.01896.00789.02862.01193.36153.15096.77258.16446.77258.16446h3.03231s.72598-.01338 1.50158.31048c.7755.32387 1.7202 1.20888 1.7202 2.53836 0 1.3296-.9447 2.2147-1.7202 2.5386-.7756.3239-1.50158.3105-1.50158.3105h-5.30642c-.12561.0018-.25034-.0214-.36692-.0683s-.2227-.1165-.31218-.2049-.16054-.1937-.20904-.3098-.07347-.2408-.07347-.3667.02497-.2505.07347-.3667c.0485-.1161.11956-.2214.20904-.3098.08948-.0883.1956-.158.31218-.2049s.24131-.0701.36692-.0682h5.30642s.41121-.0134.77278-.1643c.0095-.004.0189-.0079.0282-.0118.3433-.143.5256-.2189.5256-.7737 0-.55458-.1822-.63047-.5253-.77334-.0094-.00391-.0189-.00787-.0285-.01189-.36157-.15096-.77278-.1643-.77278-.1643h-3.03231s-.72595.01338-1.50154-.31048c-.77558-.32387-1.72024-1.20903-1.72024-2.53856 0-1.32952.94466-2.21469 1.72024-2.53855z" fill="#444" fill-rule="evenodd"/>
</svg>
