<svg height="16" viewBox="0 0 4.23 4.23" width="16" xmlns="http://www.w3.org/2000/svg"><path d="m1.8334149 4.2248776c-.013491-.0065-.019995-.026673-.039849-.1235266-.064743-.3158726-.096863-.4693132-.099978-.4776384-.00259-.00695-.011765-.01187-.03282-.017634-.055513-.015149-.1446261-.050953-.2181789-.087661-.040605-.020251-.0762-.036674-.079095-.036465-.00426.0005288-.2180911.1291393-.47951864.2889037-.046624.028494-.061448.033909-.073841.026974-.011225-.00629-.2917476-.2867173-.297434-.2973426-.0072-.013457 0-.027188.070854-.1348806.03657-.055601.085506-.1301381.1087435-.1656368.023233-.035502.068046-.1037968.099574-.1517682l.057329-.087213-.031376-.062631c-.039338-.078524-.069738-.155599-.090888-.2304436-.00903-.031956-.017914-.059776-.019751-.06182-.0028-.00312-.3947928-.1009215-.534604-.1333693-.02571-.00597-.048155-.014081-.054826-.019823l-.011302-.00972-.0006345-.2002394c-.0003966-.1101352.0009517-.2063661.00292-.2138561.00196-.00749.00622-.016288.00949-.019558.00328-.00328.066055-.01849.1395236-.033819.1347488-.028116.1969842-.041137.2961024-.061956.029796-.00626.081311-.016915.1144741-.023678l.060304-.012293.00562-.021277c.010784-.040789.061064-.1600582.094491-.2241493l.033667-.064548-.071449-.1175695c-.039298-.064667-.099246-.1632171-.1332212-.2190066-.033971-.055789-.063659-.1045445-.065975-.1083475-.00233-.0038-.015675-.025774-.029704-.048815-.04019-.066039-.049339-.049095.1162777-.21530355.077976-.078252.1474533-.145282.1543955-.1489491.018012-.00953.023675-.00654.16949964.089345.069738.045856.1868232.1227919.2601917.170971l.1334013.087601.018752-.010966c.024447-.014292.1140262-.0541099.1549155-.0688619l.03212-.011585v.14508935.1450861l-.041073.020629c-.1107797.055638-.2041831.123172-.2934757.2122008-.1650848.1645888-.26919784.3661839-.31109464.6023782-.012656.071333-.01742.2228337-.00944.3000933.013015.126003.050963.257353.10807574.3740782.1218522.2490466.332865.4452033.5884661.5470326.1282544.051095.2388015.073185.3850273.076932.1748222.00448.3149214-.022094.4731401-.089748.076184-.032576.1803727-.093744.2350304-.1379842.050559-.040921.1085396-.093696.133265-.1213043.016484-.018403.032152-.035767.034819-.038582.031692-.033495.092804-.1209399.1270467-.181808l.021586-.038362.035203.052194c.1172654.1738583.2412128.3517958.2479391.3559386.00581.0036.016047.00219.039518-.00537.017422-.00561.032927-.010205.034447-.010205.00212 0 .1268548.2016589.1533399.2478748.00251.00443.012148.020486.021361.035695.021978.036272.024346.045224.016093.060843-.00376.00711-.070846.076708-.1491012.1546858-.1250591.1246211-.1440021.1417764-.156511.1417764-.010905 0-.063203-.032135-.2234455-.1373005-.115066-.075521-.2323674-.1523929-.2606679-.1708304l-.051462-.033525-.052278.027585c-.074185.039143-.1290343.062469-.21362.09085l-.073745.024745-.035719.1464981c-.019646.080576-.0483.1983685-.063676.261763-.045356.1870004-.045392.1871273-.056445.196354-.00959.00801-.022522.00851-.2153715.00835-.1362123 0-.2086135-.00185-.2154117-.0051zm1.4925533-1.2865178c-.0212267-.0310836-.0520383-.0762039-.0684782-.1002652-.0780956-.1143221-.6217092-.9102699-.6666532-.9761048-.0280367-.0410691-.0753564-.1103789-.1051525-.1540196l-.054178-.079347v.6156868.6156865l-.051867.00783c-.028529.00431-.103741.015712-.1671362.02534-.3538353.05375-.4725682.070914-.4748397.068646-.0014-.0014-.003-.6531207-.0036-1.4482925l-.00108-1.44575743.029968-.002839c.016483-.001559.1264457-.0120068.2443627-.0232401.1179131-.0112333.228916-.0217792.2466675-.0234342.017753-.001639.067114-.006443.1096952-.0106305l.07742-.007617-.00249.18221227c-.00135.10021796-.00348.38554307-.00468.63405397l-.00219.45184179.01025-.013198c.014176-.018255.374034-.49980119.7808793-1.04494248.038798-.0519822.072237-.0965907.074313-.0991261.00209-.002512.015923-.0212108.030768-.0414971.014847-.0202855.027385-.0373982.027861-.0380301.0009517-.001322.029512.005134.4219816.0951951.2855091.065515.3235474.0744967.3268505.07716.00156.001243-.034111.0505948-.041217.057017-.0014.001269-.014438.0178665-.028961.0368864-.033827.04428-.047415.061772-.2958626.3807923-.114114.1465256-.2116285.2720728-.2166992.278991-.00508.00692-.091696.11846908-.1924935.24789128-.1008017.1294221-.1832722.2375298-.1832722.240237 0 .00396.3431022.4785227.543426.7516633.023246.031696.057149.078379.075332.1037368.018186.025356.049883.06893.070442.096823.048807.066235.2056103.2815464.2143643.2943512.00372.00548.016724.023249.028852.039502.012129.016251.021515.030008.020862.030568-.0006345.0005552-.077956.025293-.171779.054962-.426397.1348194-.5447141.1721978-.5535797.1748891-.00811.00243-.015241-.00549-.048112-.053638z" fill="#444444" stroke-width=".004611"/></svg>