<svg fill="none" height="16" viewBox="0 0 16 16" width="16" xmlns="http://www.w3.org/2000/svg">
  <g fill="#444">
    <path d="m14 2.5h-12c-.55228 0-1 .49249-1 1.1v8.8c0 .6075.44772 1.1 1 1.1h12c.5523 0 1-.4925 1-1.1v-8.8c0-.60751-.4477-1.1-1-1.1z" opacity=".2"/>
    <path d="m4.33547 5.50956c-.17421 0-.33954.03228-.49201.09715-.15149.06192-.28584.15248-.39748.27004l-.00066.00132-.00066.00066c-.10868.11823-.19298.26016-.25226.42153-.06096.16889-.09108.34736-.08892.52691 0 .191.02866.36949.08892.53086.05928.15873.14358.29902.25226.41691l.00066.00066.00066.00066c.11131.11724.24468.20945.39551.27399l.00133.00066.0013.00066c.15215.06191.31747.09254.49135.09254s.33853-.03063.49068-.09254v-.00066c.14855-.06287.28209-.15647.39189-.27465.11196-.1179.19759-.25884.2572-.41823.06059-.16137.08956-.33953.08956-.53119h.0033c0-.1887-.02864-.36522-.0889-.52625-.05589-.15698-.14342-.30079-.2572-.42252-.10973-.11831-.24424-.21097-.39388-.27136-.15597-.06537-.32355-.09842-.49265-.09715zm2.30522 4.93974h-.32932-3.95149l-.32932-.0006c.00033-.301.02241-.47424.09289-.70081.0708-.22657.19561-.42054.38497-.56347.37872-.28552.88783-.37344 1.83659-.37344.94877 0 1.44111.08792 1.81949.37377.18903.1426.31383.33722.38397.56379.07048.22658.09222.39946.09222.70076z"/>
    <path d="m8 4.01562h5.95312v1.04457h-5.95312z"/>
    <path d="m8 6.16019h4v1.04457h-4z"/>
    <path d="m8 8.30476h3v1.04457h-3z"/>
    <path d="m8 10.4493h5.4375v1.04457h-5.4375z"/>
  </g>
</svg>
