<svg fill="none" height="16" viewBox="0 0 16 16" width="16" xmlns="http://www.w3.org/2000/svg">
  <g clip-rule="evenodd" fill="#444" fill-rule="evenodd">
    <path d="m1 1.03125h2v6h2.0625v-2.03125h2v2.03125h2.0625v-2.03125h2v2.03125h2v-2.03125h2v6h-2v-1.96875h-2v1.96875h-2v-1.96875h-2.0625v1.96875h-2v-1.96875h-2.0625v5.99995h-2v-5.99995-2z" opacity=".5"/>
    <path d="m2.87888 9.36185c-.53171-.53909-1.12549-.86185-1.87888-.86185v-1c1.09036 0 1.92627.48584 2.59084 1.15963.65096.66 1.16122 1.52427 1.61442 2.32947.06047.1075.11984.2137.17838.3184.39458.7059.75124 1.3439 1.15043 1.8352.45136.5556.88009.8261 1.37218.8261.55795 0 1.01044-.2833 1.46376-.83.40034-.4827.74989-1.1065 1.13909-1.8012.0642-.1146.1295-.2311.1962-.3493.894-1.58151 2.0627-3.4883 4.4197-3.4883v1c-1.7055 0-2.6149 1.32758-3.5491 2.9804-.0621.1098-.1244.2213-.1871.3334-.3845.6876-.7852 1.4041-1.249 1.9634-.55259.6663-1.26025 1.1916-2.23355 1.1916-.92979 0-1.61433-.5382-2.14833-1.1955-.45847-.5644-.86256-1.2884-1.251-1.9844-.05801-.1039-.11568-.2072-.17312-.3093-.45696-.8119-.90959-1.56485-1.45492-2.11775z"/>
  </g>
</svg>
