<svg fill="none" height="16" viewBox="0 0 16 16" width="16" xmlns="http://www.w3.org/2000/svg">
  <path d="m10.8146 1.72694c-.2294.17861-.90458 1.42835-1.5798 2.91815-.27353.60727-.66068 1.40156-.85614 1.76665-.58045 1.08164-1.99819 3.04948-2.65456 3.67726l-.61222.591.4566.4864c.28.2994.64992.9214.95683 1.6169.58261 1.3254.68384 1.5166.7953 1.5166.05276 0 .35107-.1644.68383-.3714.74252-.4701 1.43659-1.1021 2.38106-2.1774 1.4743-1.6763 2.5808-2.03142 3.9436-1.2618.3683.2091.6709.3404.6709.2915 0-.0515-.1874-.5563-.4125-1.12468-.225-.5684-.8394-2.17325-1.3606-3.5664-.3721-.61147-1.5879-4.78934-2.4123-4.35857zm-2.93831 3.43297c-.00646 0-.01454 0-.02316.0042-1.24705.54581-1.6972.79428-2.0655 1.14099-.24176.23167-.43937.47804-.43937.55001 0 .22379.98213.82108 1.14421.69553.07807-.06147.38499-.50063.68168-.97867.52391-.85155.79529-1.39946.70268-1.41206zm-3.49078 2.41121c-.21269 0-3.2264 1.1389-3.36963 1.27443-.042002.03887.00215.11084.09907.16442.09692.05516.64776.42289 1.23252.81898.5826.39605 1.08929.71815 1.12536.72025.03554 0 .30315-.1398.58907-.3121.60145-.3614 1.76235-1.47928 1.75643-1.69308-.00431-.1907-1.16091-.97447-1.43444-.97447" fill="#444"/>
</svg>
