<svg height="16" width="16" xmlns="http://www.w3.org/2000/svg">
  <path d="m4.2949969.4999989c-.6132974 0-1.1608556.010865-1.6495855.039627-.2443641.014335-.4740405.033236-.6898292.057341-.074844.00822-.1388551.021274-.2104033.030953-.1003391.5635288-.2251029 1.3326353-.2916666 1.8492504-.0560169.4347493-.1027287.856396-.1401399 1.2642279-.0374085.4078411-.0654854.8018127-.0843677 1.1814216-.018882.379609-.028561.7447823-.02899 1.0948443-.0004236.3500711.00831.6850583.026269 1.0042768.01796.3192094.045124.6226226.081391.9096736s.081756.5577581.1362585.811336c.054501.2535778.1180755.4900539.1907349.7088534.072662.218799.154339.419911.2450826.6026171.060418.121639.125486.2399.1950054.354682.069521.114782.14352.226021.2219199.333718.078396.107706.1611313.211841.248188.312243.087061.100401.1784495.197095.2739393.289982.09549.0929.1950839.182057.298784.26721.1036992.08519.211426.166324.32311.243534.2233689.154418.4625194.292757.7164853.414077.1372563.06556.2673387.121155.3941514.167831.1268127.04666.2503337.08437.3743524.114006.1240196.02958.2485834.05113.3774587.06547.1288762.01434.2620867.02155.4034674.02255.1869621.000913.3609239-.0064.5302802-.02547.1693563-.01899.3340787-.04922.502846-.09278.1687692-.04355.3414582-.100493.5266571-.173009.185198-.0725.3829325-.160563.6015782-.266434.2573287-.124607.4476518-.230961.6274582-.359211.1798072-.128259.3490987-.278422.5641824-.490812.1562793-.154336.2941164-.313101.4130438-.475161.1189274-.162052.2190002-.327418.2994308-.49482.080432-.167403.1412775-.3368781.1820653-.5072481.040787-.170369.061469-.341597.061469-.5125515 0-.1434068-.0155-.2898176-.044512-.4367215-.0290186-.146914-.0715951-.2943383-.1259072-.4396991-.0543094-.1453608-.1202815-.2886398-.1961695-.4274082-.0758853-.1387684-.1616887-.2730993-.2554354-.4002352-.0937459-.1271359-.1954263-.2471955-.3033119-.3576587-.1078857-.1104633-.2218852-.2112114-.3401917-.2999527-.1183065-.0887505-.2409337-.1653753-.3659421-.2273545-.1250076-.0619975-.2524439-.1093219-.3804344-.1394898-.0770175-.0181701-.1713595-.0317748-.2739393-.0407229-.1025798-.0091307-.2134485-.0134221-.323499-.0133308-.1100496.0001187-.2192839.00457-.3187108.01397-.099427.00922-.1889946.023101-.2597055.041362-.1187238.030771-.2224029.067841-.3110757.1105089-.088677.04264-.1623612.090851-.2210151.1437629-.058656.052867-.1022866.1104085-.1309525.1718399-.028661.06145-.042312.1267067-.041015.1950044.00128.068298.017567.1396449.048785.2131197.031218.073502.077346.1490861.1384571.2260671.061112.076972.1371578.1554045.2281315.2342116.090978.078798.1968698.1581072.3176754.2370604.082085.053689.1644093.1152751.242495.180514.078086.065193.1519066.1339565.2172623.2017246.065358.06775.1221259.1346414.166019.1959175.043891.061267.074936.1170556.088641.1627822.021457.071585.031163.113102.023037.1612299-.00813.048119-.034094.102903-.084112.200702-.031017.060628-.070361.1186717-.1167186.1737848-.046357.05515-.099718.107267-.1589026.155797-.059185.04857-.1242086.09354-.1937106.13444-.069503.04091-.1434469.07761-.2207566.109861-.07731.03223-.1579475.0599-.2405529.08245-.082606.02255-.167196.03981-.2525881.0515-.08539.01178-.1715778.01799-.2572466.0179-.085664-.000073-.1708354-.0064-.25427-.01927-.1541346-.023925-.3044525-.064191-.4495339-.11892-.1450823-.054785-.2849034-.124096-.4180903-.206135-.1331868-.081994-.2597849-.176834-.3782347-.2826045-.1184499-.1057792-.2288401-.2225152-.3297106-.3484733-.1008705-.1259671-.1921949-.2611289-.2726446-.4037322-.0804506-.1425942-.1499828-.2925477-.2071693-.4482353-.0571856-.1556876-.1020712-.3170454-.1331512-.4822746-.0310809-.1652292-.0483379-.3343389-.0504654-.505567-.0024652-.2002363.0097973-.3600875.0458088-.5182404.0360115-.158162.09575-.3146166.1878888-.5082879.0572769-.1203792.1236882-.2399184.1981107-.3575309.0744244-.1176035.1568335-.2333077.2462477-.3462728.089417-.1129559.1857961-.2231361.2880427-.3295818.1022474-.1064366.2103175-.2091388.3232405-.3071934.1129231-.0980455.2306543-.1914617.3520963-.2792442.1214411-.0877461.2466797-.1699498.3744821-.2455977.1278024-.0756022.2582637-.1447581.390269-.2063904.1320053-.0616322.2655346-.1157408.399586-.1614947.1486506-.0507667.3035886-.0915079.4631211-.1224062.1595326-.030862.323656-.051954.4908127-.06355.1671558-.011505.3372763-.013513.5087984-.00639.171523.0073.3444502.023831.5170808.04958.1726314.025657.3450465.060445.5155286.1040353.1704811.043553.3390659.096101.5041407.1570937.1650749.060993.3266385.1305508.4830483.2084631.1564111.077885.3076341.1641882.4521221.2585449.172284.1124994.331728.2309337.479167.3572661.14744.1263324.282809.260499.406962.4042436.124154.1437538.237119.2970766.339544.461831.102427.1647543.1944.3409312.276657.5302838.08226.1893433.15478.3919354.218425.6094652.06364.2175299.118393.4499701.164985.6992748.04659.2493047.08511.5154099.1162.8000778.0311.2846679.05478.587999.07195.9116185.02221.4187345.02485.8902806.0098 1.3957106-.01502.505421-.04775 1.044726-.09614 1.598603-.04839.553869-.112426 1.122392-.190347 1.686459-.07792.564068-.169698 1.123679-.273291 1.659678.133827-.01817.271129-.03479.393763-.0578.755697-.142165 1.303294-.38286 1.697592-.776658.788597-.787587.963898-2.187817.963898-4.638716v-3.9255886c0-3.369987-.331418-4.7536171-2.132893-5.2893337-.163741-.0486667-.339643-.090394-.528567-.1259124-.188925-.0355184-.390835-.0649193-.606625-.0890243-.215789-.0241051-.445464-.0430056-.689829-.0573409-.488729-.0286704-1.0362887-.0396272-1.6495865-.0396272z" fill="#444"/>
</svg>
