<?xml version="1.0" encoding="UTF-8" standalone="no"?>
<svg
   xmlns:dc="http://purl.org/dc/elements/1.1/"
   xmlns:cc="http://creativecommons.org/ns#"
   xmlns:rdf="http://www.w3.org/1999/02/22-rdf-syntax-ns#"
   xmlns:svg="http://www.w3.org/2000/svg"
   xmlns="http://www.w3.org/2000/svg"
   xmlns:sodipodi="http://sodipodi.sourceforge.net/DTD/sodipodi-0.dtd"
   xmlns:inkscape="http://www.inkscape.org/namespaces/inkscape"
   width="16"
   height="16"
   version="1.1"
   id="svg4"
   sodipodi:docname="template4-symbolic.svg"
   inkscape:version="0.92.3 (2405546, 2018-03-11)">
  <metadata
     id="metadata10">
    <rdf:RDF>
      <cc:Work
         rdf:about="">
        <dc:format>image/svg+xml</dc:format>
        <dc:type
           rdf:resource="http://purl.org/dc/dcmitype/StillImage" />
        <dc:title></dc:title>
      </cc:Work>
    </rdf:RDF>
  </metadata>
  <defs
     id="defs8" />
  <sodipodi:namedview
     pagecolor="#ffffff"
     bordercolor="#666666"
     borderopacity="1"
     objecttolerance="10"
     gridtolerance="10"
     guidetolerance="10"
     inkscape:pageopacity="0"
     inkscape:pageshadow="2"
     inkscape:window-width="1920"
     inkscape:window-height="1009"
     id="namedview6"
     showgrid="false"
     inkscape:zoom="14.75"
     inkscape:cx="8"
     inkscape:cy="8"
     inkscape:window-x="0"
     inkscape:window-y="34"
     inkscape:window-maximized="1"
     inkscape:current-layer="svg4" />
  <g
     style="display:inline;fill:#444444;fill-opacity:1;enable-background:new"
     id="g868"
     transform="matrix(0.16250001,0,0,0.16250001,-2.1289356,-30.644036)">
    <path
       style="display:inline;opacity:1;fill:#444444;fill-opacity:1;stroke:none;stroke-width:0.00836905px;stroke-linecap:butt;stroke-linejoin:miter;stroke-miterlimit:4;stroke-dasharray:none;stroke-dashoffset:0;stroke-opacity:1;marker:none;marker-start:none;marker-mid:none;marker-end:none;paint-order:normal;enable-background:new"
       d="m 65,22.798828 a 39.999962,39.999962 0 0 0 -40,40 39.999962,39.999962 0 0 0 40,40.000002 39.999962,39.999962 0 0 0 40,-40.000002 39.999962,39.999962 0 0 0 -40,-40 z M 53.289062,43.900391 a 3.9997652,4.0862426 0 0 1 4.060547,4.142578 v 29.732422 a 3.9997652,4.0862426 0 1 1 -7.998047,0 V 48.042969 a 3.9997652,4.0862426 0 0 1 3.9375,-4.142578 z m 23.300782,0 a 3.9997673,4.0862218 0 0 1 4.058594,4.142578 v 29.732422 a 3.9997673,4.0862218 0 1 1 -7.998047,0 V 48.042969 a 3.9997673,4.0862218 0 0 1 3.939453,-4.142578 z m -11.480469,8 a 3.9997519,3.5585256 0 0 1 4.060547,3.607421 v 22.802735 a 4.0000001,3.5587464 0 1 1 -8,0 V 55.507812 a 3.9997519,3.5585256 0 0 1 3.939453,-3.607421 z"
       transform="matrix(1.1538461,0,0,1.1538461,-12.668092,165.34925)"
       id="circle983"
       inkscape:connector-curvature="0" />
  </g>
</svg>
