<svg xmlns="http://www.w3.org/2000/svg" width="16" height="16" version="1.1">
 <g style="fill:#444444;enable-background:new" transform="matrix(0.16250001,0,0,0.16250001,-2.1289356,-30.644036)">
  <path style="fill:#444444" d="m 65,22.798828 a 39.999962,39.999962 0 0 0 -40,40 39.999962,39.999962 0 0 0 40,40.000002 39.999962,39.999962 0 0 0 40,-40.000002 39.999962,39.999962 0 0 0 -40,-40 z M 53.289062,43.900391 a 3.9997652,4.0862426 0 0 1 4.060547,4.142578 v 29.732422 a 3.9997652,4.0862426 0 1 1 -7.998047,0 V 48.042969 a 3.9997652,4.0862426 0 0 1 3.9375,-4.142578 z m 23.300782,0 a 3.9997673,4.0862218 0 0 1 4.058594,4.142578 v 29.732422 a 3.9997673,4.0862218 0 1 1 -7.998047,0 V 48.042969 a 3.9997673,4.0862218 0 0 1 3.939453,-4.142578 z m -11.480469,8 a 3.9997519,3.5585256 0 0 1 4.060547,3.607421 v 22.802735 a 4.0000001,3.5587464 0 1 1 -8,0 V 55.507812 a 3.9997519,3.5585256 0 0 1 3.939453,-3.607421 z" transform="matrix(1.1538461,0,0,1.1538461,-12.668092,165.34925)"/>
 </g>
</svg>
