<svg height="16" width="16" xmlns="http://www.w3.org/2000/svg">
  <path d="m86.627671 271.81657h8.55028c.0165-11.6264.0331-19.15685.0494-30.78306 3.6739 11.34577 7.351609 18.85694 11.038349 30.78306h8.20999c0-18.16792 0-36.33621 0-54.50417-2.77125.39448-5.73899.77242-8.51356 1.13439-.008 11.3919-.0158 18.39496-.0235 29.78718-3.81803-11.2132-6.165439-17.82725-9.972059-28.48346-2.9843.34086-6.26296.76031-9.25017 1.06351-.0296 17.00068-.059 34.00189-.0887 51.00255" fill="#444" transform="matrix(-.29355554 0 0 -.29355554 37.904973 79.793259)"/>
</svg>
