<svg height="16" width="16" xmlns="http://www.w3.org/2000/svg"><path d="m8 0a5.1428569 5.1428569 0 0 0 -4.771635 3.2310697 5.1428569 5.1428569 0 0 0 -3.228365 4.7689303 5.1428569 5.1428569 0 0 0 3.23107 4.771635 5.1428569 5.1428569 0 0 0 4.76893 3.228365 5.1428569 5.1428569 0 0 0 4.771635-3.23107 5.1428569 5.1428569 0 0 0 3.228365-4.76893 5.1428569 5.1428569 0 0 0 -3.23107-4.7716346 5.1428569 5.1428569 0 0 0 -4.76893-3.2283654zm0 1.142728a4 4 0 0 1 3.292668 1.7361783 5.1428569 5.1428569 0 0 0 -.435396-.021635 5.1428569 5.1428569 0 0 0 -1.426683.2058292 5.1428569 5.1428569 0 0 0 -1.430589-.2058288 5.1428569 5.1428569 0 0 0 -1.426082.2058292 5.1428569 5.1428569 0 0 0 -1.43119-.2058292 5.1428569 5.1428569 0 0 0 -.440504.0222355 4 4 0 0 1 3.297776-1.7367792zm3.251803 2.8771037a4 4 0 0 1 .616286.1150841 4 4 0 0 1 .107873.6078727 5.1428569 5.1428569 0 0 0 -.724159-.7229568zm-6.509015.00421a5.1428569 5.1428569 0 0 0 -.722956.7241587 4 4 0 0 1 .115084-.616286 4 4 0 0 1 .607872-.1078727zm1.823318.2427885a4 4 0 0 1 .522836.2403846 5.1428569 5.1428569 0 0 0 -1.003605 1.5808294 5.1428569 5.1428569 0 0 0 -1.575121 1 4 4 0 0 1 -.243389-.5114183 4 4 0 0 1 2.299279-2.3097957zm2.857271 0a4 4 0 0 1 2.309796 2.2992789 4 4 0 0 1 -.240385.5228365 5.1428569 5.1428569 0 0 0 -1.580829-1.0036057 5.1428569 5.1428569 0 0 0 -1-1.5751203 4 4 0 0 1 .511418-.2433894zm3.697116.4353966a4 4 0 0 1 1.736779 3.2977732 4 4 0 0 1 -1.736178 3.292668 5.1428569 5.1428569 0 0 0 .021634-.435396 5.1428569 5.1428569 0 0 0 -.205829-1.4266831 5.1428569 5.1428569 0 0 0 .205829-1.4305889 5.1428569 5.1428569 0 0 0 -.205829-1.4260817 5.1428569 5.1428569 0 0 0 .205829-1.43119 5.1428569 5.1428569 0 0 0 -.02224-.4405048zm-10.241587.00511a5.1428569 5.1428569 0 0 0 -.021634.4353904 5.1428569 5.1428569 0 0 0 .205829 1.4266828 5.1428569 5.1428569 0 0 0 -.205829 1.43059 5.1428569 5.1428569 0 0 0 .205829 1.4260817 5.1428569 5.1428569 0 0 0 -.205829 1.4311903 5.1428569 5.1428569 0 0 0 .02224.440504 4 4 0 0 1 -1.736784-3.297776 4 4 0 0 1 1.736178-3.2926683zm5.123197.4963943a4 4 0 0 1 .432993.5321463 5.1428569 5.1428569 0 0 0 -.435096-.0216346 5.1428569 5.1428569 0 0 0 -.440505.0222355 4 4 0 0 1 .442608-.5327523zm-.002103 1.6535406a4 4 0 0 1 1.010817.1349158 4 4 0 0 1 .131911 1.0078125 4 4 0 0 1 -.134916 1.0108172 4 4 0 0 1 -1.007812.1319111 4 4 0 0 1 -1.010817-.1349158 4 4 0 0 1 -.131911-1.0078125 4 4 0 0 1 .134916-1.0108172 4 4 0 0 1 1.007812-.1319111zm2.263522.7022235a4 4 0 0 1 .532752.4426082 4 4 0 0 1 -.532151.4329928 5.1428569 5.1428569 0 0 0 .021634-.4350962 5.1428569 5.1428569 0 0 0 -.022235-.4405048zm-4.527645.00541a5.1428569 5.1428569 0 0 0 -.021634.4350948 5.1428569 5.1428569 0 0 0 .02224.4405048 4 4 0 0 1 -.532752-.4426082 4 4 0 0 1 .532151-.4329928zm-1.228665 1.3461538a5.1428569 5.1428569 0 0 0 1.580829 1.0036057 5.1428569 5.1428569 0 0 0 1 1.5751203 4 4 0 0 1 -.511418.243389 4 4 0 0 1 -2.309796-2.2992785 4 4 0 0 1 .240385-.5228365zm6.982572.0009077a4 4 0 0 1 .243389.5114183 4 4 0 0 1 -2.299279 2.309796 4 4 0 0 1 -.522836-.240385 5.1428569 5.1428569 0 0 0 1.003605-1.5808293 5.1428569 5.1428569 0 0 0 1.575121-1zm-3.049279 1.3515553a4 4 0 0 1 -.442608.532752 4 4 0 0 1 -.432993-.532151 5.1428569 5.1428569 0 0 0 .435096.021634 5.1428569 5.1428569 0 0 0 .440505-.022235zm3.539663.988282a4 4 0 0 1 -.115084.616286 4 4 0 0 1 -.607872.107872 5.1428569 5.1428569 0 0 0 .722956-.724158zm-7.95613.0054a5.1428569 5.1428569 0 0 0 .724159.722965 4 4 0 0 1 -.616286-.115084 4 4 0 0 1 -.107873-.607872zm2.545373 1.679696a5.1428569 5.1428569 0 0 0 1.430589.205828 5.1428569 5.1428569 0 0 0 1.426082-.205829 5.1428569 5.1428569 0 0 0 1.43119.205829 5.1428569 5.1428569 0 0 0 .440504-.02224 4 4 0 0 1 -3.297776 1.736784 4 4 0 0 1 -3.292668-1.736178 5.1428569 5.1428569 0 0 0 .435396.021635 5.1428569 5.1428569 0 0 0 1.426683-.205829z" fill="#444444" stroke-width=".285714"/></svg>