<svg height="16" width="16" xmlns="http://www.w3.org/2000/svg">
  <path d="m131.00021 235.5c-4.14213 0-7.5 3.35786-7.5 7.5 0 4.14213 3.35787 7.5 7.5 7.5 4.14214 0 7.5-3.35787 7.5-7.5 0-4.14214-3.35786-7.5-7.5-7.5zm3.11384 2.64509a.53576787.53576787 0 0 1 .0334 0 .53576787.53576787 0 0 1 .50223.90401l-2.57807 3.44866c.0806.16114.1004.34332.1004.53572 0 .66218-.50969 1.20536-1.17188 1.20536s-1.20536-.54318-1.20536-1.20536c0-.14294.0545-.27467.1004-.40179l-1.40625-1.40625a.53576787.53576787 0 1 1 .7366-.7366l1.40625 1.40625c.11661-.0378.2391-.067.36831-.067.0589 0 .11073.0253.16741.0334l2.6116-3.48214a.53576787.53576787 0 0 1 .30134-.2009.53576787.53576787 0 0 1 .0334-.0334z" fill="#444" transform="translate(-123.00021 -235)"/>
</svg>
