<svg fill="none" height="16" viewBox="0 0 16 16" width="16" xmlns="http://www.w3.org/2000/svg">
  <g fill="#444">
    <path d="m13 2.96875h-10c-.55228 0-1 .44772-1 1v1.125h12v-1.125c0-.55228-.4477-1-1-1z"/>
    <path d="m3.54688 1.96875h3.90625v2h-3.90625z"/>
    <path d="m8.54688 1.96875h3.90625v2h-3.90625z"/>
    <path clip-rule="evenodd" d="m3 14.9688h10c.5523 0 1-.4478 1-1v-7.9688h-12v7.9688c0 .5522.44772 1 1 1zm.03125-5.7063c0-.11046.08954-.2.2-.2h1.42808c.11046 0 .2.08954.2.2v4.5688c0 .1104-.08954.1999-.2.1999h-1.42808c-.11046 0-.2-.0895-.2-.1999zm2.91356 1.7375c-.11045 0-.2.0895-.2.2v2.6313c0 .1104.08955.1999.2.1999h1.42808c.11046 0 .2-.0895.2-.2v-2.6312c0-.1105-.08954-.2-.2-.2zm2.51355-.7688c0-.1104.08954-.2.2-.2h1.42804c.1105 0 .2.0896.2.2v3.6001c0 .1104-.0895.1999-.2.1999h-1.42804c-.11046 0-.2-.0895-.2-.1999zm2.91354-2.1687c-.1104 0-.2.08954-.2.2v5.5688c0 .1104.0896.1999.2.1999h1.4281c.1105 0 .2-.0895.2-.1999v-5.5688c0-.11046-.0895-.2-.2-.2z" fill-rule="evenodd"/>
  </g>
</svg>
