<svg height="16" width="16" xmlns="http://www.w3.org/2000/svg">
  <path d="m8 .00000033c-.589478 0-1.161739.067624-1.714286.1875v3.67410717l-2.598214-2.5993303c-.9745809.6234034-1.8018197 1.4506422-2.4252232 2.4252231l2.5993303 2.5982143h-3.6741071c-.1198757.5525463-.1875 1.124808-.1875 1.7142857s.0676243 1.1617394.1875 1.7142857h3.6741071l-2.5993303 2.598214c.6234035.974581 1.4506423 1.80182 2.4252232 2.425223l2.598214-2.59933v3.674107c.552547.119875 1.124808.1875 1.714286.1875s1.161739-.06762 1.714286-.1875v-3.674107l2.598214 2.59933c.974581-.623403 1.80182-1.450642 2.425223-2.425223l-2.59933-2.598214h3.674107c.119875-.5525463.1875-1.124808.1875-1.7142857s-.06762-1.1617394-.1875-1.7142857h-3.674107l2.59933-2.5982143c-.623403-.9745809-1.450642-1.8018197-2.425223-2.4252231l-2.598214 2.5993303v-3.67410717c-.552547-.1198757-1.124808-.1875-1.714286-.1875zm-3.7142857 5.14285707h1.1428571 1.1428576 1.142857v1.1428572h-1.142857v4.5714284h-1.1428576v-4.5714284h-1.1428571zm3.9999997 0h1.142857v2.2857143h1.142858v-2.2857143h1.142857v2.2857143 1.1428572 2.2857141h-1.142857v-2.2857141h-1.142858v2.2857141h-1.142857v-2.2857141-1.1428572z" fill="#444"/>
</svg>
