<?xml version="1.0" encoding="UTF-8" standalone="no"?>
<svg
   xmlns:dc="http://purl.org/dc/elements/1.1/"
   xmlns:cc="http://creativecommons.org/ns#"
   xmlns:rdf="http://www.w3.org/1999/02/22-rdf-syntax-ns#"
   xmlns:svg="http://www.w3.org/2000/svg"
   xmlns="http://www.w3.org/2000/svg"
   xmlns:sodipodi="http://sodipodi.sourceforge.net/DTD/sodipodi-0.dtd"
   xmlns:inkscape="http://www.inkscape.org/namespaces/inkscape"
   width="16"
   height="16"
   viewBox="0 0 16 16"
   version="1.1"
   id="svg19"
   sodipodi:docname="postman-symbolic.svg"
   inkscape:version="0.92.4 (5da689c313, 2019-01-14)">
  <metadata
     id="metadata23">
    <rdf:RDF>
      <cc:Work
         rdf:about="">
        <dc:format>image/svg+xml</dc:format>
        <dc:type
           rdf:resource="http://purl.org/dc/dcmitype/StillImage" />
      </cc:Work>
    </rdf:RDF>
  </metadata>
  <sodipodi:namedview
     pagecolor="#ffffff"
     bordercolor="#666666"
     borderopacity="1"
     objecttolerance="10"
     gridtolerance="10"
     guidetolerance="10"
     inkscape:pageopacity="0"
     inkscape:pageshadow="2"
     inkscape:window-width="854"
     inkscape:window-height="480"
     id="namedview21"
     showgrid="false"
     inkscape:zoom="14.75"
     inkscape:cx="8"
     inkscape:cy="8"
     inkscape:window-x="0"
     inkscape:window-y="27"
     inkscape:window-maximized="0"
     inkscape:current-layer="svg19" />
  <defs
     id="defs3">
    <style
       id="current-color-scheme"
       type="text/css">
   .ColorScheme-Text { color: #808080; } .ColorScheme-Highlight { color: #5294e2; }
  </style>
  </defs>
  <g
     fill="currentColor"
     class="ColorScheme-Text"
     id="g17"
     style="fill:#444444;fill-opacity:1">
    <path
       d="M 0 15.984 L 1.059 14.69 L 2.406 16 L 0 15.984 Z"
       id="path5"
       style="fill:#444444;fill-opacity:1" />
    <path
       d="M 1.34 14.457 L 2.82 16.016 C 2.874 15.598 2.677 15.106 2.482 14.431 C 5.828 13.703 11.578 8.516 12.953 5.047 L 7.441 9.805 C 6.766 10.126 6.128 10.258 5.52 10.195 L 1.34 14.457 Z"
       id="path7"
       style="fill:#444444;fill-opacity:1" />
    <path
       d="M 6.922 8.74 L 5.906 9.758 C 7.063 9.758 7.188 9.625 7.519 9.337 L 12.763 4.66 C 13.283 4.218 12.322 3.309 11.751 3.855 L 6.922 8.74 Z"
       id="path9"
       style="fill:#444444;fill-opacity:1" />
    <path
       d="M 6.584 8.506 C 5.945 9.023 5.078 9.18 3.961 9.102 L 5.598 7.545 C 8.898 4.156 11.037 2.712 11.907 3.257 L 6.584 8.506 Z"
       id="path11"
       style="fill:#444444;fill-opacity:1" />
    <path
       d="M 13.413 2.361 L 14.815 3.855 C 13.335 4.218 11.946 3.322 12.101 1.906 C 12.491 -0.251 14.659 -0.329 15.256 0.516 Q 14.451 1.308 13.413 2.361 Z"
       id="path13"
       style="fill:#444444;fill-opacity:1" />
    <path
       d="M 15.191 3.608 L 13.893 2.309 L 15.593 0.685 C 16.333 1.776 16.038 2.944 15.191 3.608 Z"
       id="path15"
       style="fill:#444444;fill-opacity:1" />
  </g>
</svg>
