<svg fill="none" height="16" viewBox="0 0 16 16" width="16" xmlns="http://www.w3.org/2000/svg">
  <g clip-rule="evenodd" fill="#444" fill-rule="evenodd">
    <path d="m2.07692 1.26923c-.59661 0-1.07692.48031-1.07692 1.07692v5.65385h14v-5.65385c0-.59661-.4803-1.07692-1.0769-1.07692zm3.87697 1.14891c-.00293-.16594.11404-.30991.27707-.34101h.00004c.01064-.00034.0213-.00034.03195 0 .01065-.00034.02131-.00034.03195 0h2.19529c.09124-.00211.17953.03243.2451.09591l1.21487 1.21487c.06344.06557.09804.15386.09594.2451v3.21833c0 .18833-.15271.341-.34104.34102h-3.41016c-.18833-.00002-.34099-.15269-.34101-.34102zm1.70494.01218-1.35374-.00811.01225 4.4312 3.38978-.00614.01225-3.05282-.69648-.00929v1.1906.17051h-.1705-2.3658v-.34102h2.19529v-1.02464l-.34089-.00454.00613-1.34162-.34727-.00208v1.47771.0746l-.05329.04263-.35167.35167-.10656.11723-.12789-.10657-.35167-.30905-.05328-.05328v-.0746-.87385h.34101v.7886l.18117.15985.18116-.18117z" opacity=".5"/>
    <path d="m1 8v5.6538c0 .5967.48031 1.077 1.07692 1.077h5.92308 5.9231c.5966 0 1.0769-.4803 1.0769-1.077v-5.6538zm7 .75721c-1.41048 0-2.55769 1.14721-2.55769 2.55769 0 1.4105 1.14721 2.5577 2.55769 2.5577s2.5577-1.1472 2.5577-2.5577c0-1.41048-1.14722-2.55769-2.5577-2.55769zm.42121.38081c.96984.18576 1.71299 1.00128 1.78899 2.00638h-.94246c-.0388-.6733-.32887-1.37743-.84653-2.00638zm-1.6889 2.00638c.03892-.6731.32875-1.37718.84629-2.00635-.96975.18583-1.71277 1.00135-1.78884 2.00635zm1.26772-1.97035c-.57229.6201-.88267 1.32425-.92594 1.97035h1.85184c-.04316-.6459-.35331-1.35017-.9259-1.97035zm-2.21033 2.31135h.94417c.04379.6793.32356 1.3743.84415 2.0061-.14583-.0281-.28881-.0709-.42673-.1279-.2691-.1113-.5136-.2746-.71951-.4805s-.36917-.4504-.48045-.7195c-.08949-.2164-.14394-.4454-.16163-.6782zm1.28593 0c.04751.6578.34526 1.345.92437 1.9706.57903-.6255.87678-1.3126.92435-1.9706zm1.34609 2.0063c.96959-.186 1.71248-1.0014 1.78848-2.0063h-.94406c-.04376.6792-.32379 1.3743-.84442 2.0063z"/>
  </g>
</svg>
