<svg fill="none" height="16" viewBox="0 0 16 16" width="16" xmlns="http://www.w3.org/2000/svg">
  <path clip-rule="evenodd" d="m13.2656 3.07812h-10.5156v7.71878h10.5156zm-6.12964.89001h-3.44846v.87902h3.44846zm-1.71747 1.77113h-1.73099v.87902h1.73099zm-1.73099 1.69086h1.73099v.87902h-1.73099zm1.73099 1.69086h-1.73099v.87902h1.73099zm.86551-3.38172h2.58296v.87902h-2.58296zm4.341 1.69086h-4.341v.87902h4.341zm-4.341 1.69086h3.46199v.87902h-3.46199z" fill="#444" fill-rule="evenodd" opacity=".6"/>
  <path d="m7.3 12.9-2.8.7c-.168.014-.35.182-.35.35v.35c0 .175.1645.35.35.35h7c.1505 0 .35-.1435.35-.35v-.35c-.007-.182-.1925-.343-.35-.35l-2.8-.7zm6.65-.35c.9065 0 1.05-.1852 1.05-1.05v-9.1c0-.83685-.1925-1.05-1.05-1.05h-11.9c-.8505 0-1.05.189-1.05 1.05v9.1c0 .8785.18515 1.05 1.05 1.05zm-.7-9.45v7.7h-10.5v-7.7z" fill="#444"/>
</svg>
