<svg fill="none" height="16" viewBox="0 0 16 16" width="16" xmlns="http://www.w3.org/2000/svg">
  <path clip-rule="evenodd" d="m2.07692 1h11.84618c.5947 0 1.0769.52233 1.0769 1.16667v11.66663c0 .6443-.4822 1.1667-1.0769 1.1667h-11.84618c-.59477 0-1.07692-.5224-1.07692-1.1667v-11.66663c0-.64434.48215-1.16667 1.07692-1.16667zm3.16916 3.72549c.0878-.62782.62337-1.10856 1.26906-1.10856.64606 0 1.18127.48074 1.26907 1.10856h1.47429v-.73904h3.2925v.73904h1.0975v6.65131h-1.4743c-.0878.6278-.6234 1.1086-1.2691 1.1086-.6461 0-1.18126-.4808-1.26906-1.1086h-1.14322c-.07463.2166-.27437.3696-.51436.3696-.30291 0-.54874-.2484-.54874-.5543 0-.306.24583-.5543.54874-.5543.23999 0 .43973.153.51436.3695h1.14322c.0878-.6278.62336-1.10854 1.26906-1.10854.6461 0 1.1813.48074 1.2691 1.10854h1.1084v-5.91229h-.7316v.73903h-3.2925v-.73903h-1.47429c-.0878.62781-.62338 1.10855-1.26907 1.10855-.64605 0-1.18126-.48074-1.26906-1.10855h-1.84013v2.58663h.73166v.36952h-1.82915v-.36952h.73166v-2.95615zm1.77208-.58902c-.14341-.09459-.31901-.15002-.50302-.15002s-.35961.05543-.50301.15002l.50301.50809zm-.76605.77378-.50302-.50809c-.09365.14485-.14852.32222-.14852.50809 0 .18586.05487.36323.14852.50808zm1.17761 0c0-.18587-.05488-.36324-.14853-.50809l-.50302.50809.50302.50808c.09365-.14485.14853-.32222.14853-.50808zm-.41156.77377-.50302-.50809-.50301.50809c.1434.0946.319.15002.50301.15002s.35961-.05542.50302-.15002zm-4.34423 3.10618v-.36952l1.09749-.00037v.36952h-.36583v2.21707h1.13187c.07463-.2165.27438-.3695.51436-.3695.13133 0 .24877.0499.34315.1271l1.955-1.14325.18291.32333-1.94365 1.13182c.00731.0362.01134.0772.01134.1157 0 .3059-.24584.5543-.54875.5543-.23998 0-.43973-.153-.51436-.3696h-1.4977v-2.5866zm9.14577 2.4019c0-.5103-.4094-.9238-.9146-.9238s-.91457.4135-.91457.9238.40937.9238.91457.9238.9146-.4135.9146-.9238zm-6.58496 0c0-.102-.08195-.1848-.18292-.1848s-.18291.0828-.18291.1848.08194.1847.18291.1847.18292-.0827.18292-.1847zm2.92664 0c0-.102-.08195-.1848-.18292-.1848s-.18291.0828-.18291.1848.08194.1847.18291.1847.18292-.0827.18292-.1847z" fill="#444" fill-rule="evenodd"/>
</svg>
