<svg height="16" width="16" xmlns="http://www.w3.org/2000/svg">
  <path clip-rule="evenodd" d="m5.68394 7.97149c0 1.27381 1.04222 2.31601 2.31603 2.31601s2.31603-1.0422 2.31603-2.31601v-1.04543h.2715v1.10124c0 1.42906-1.15848 2.5875-2.58754 2.5875s-2.58753-1.15844-2.58753-2.5875v-1.10124h.27151zm4.90356-2.42862h-.2715v-2.20345c0-1.27381-1.04222-2.31603-2.31603-2.31603s-2.31603 1.04222-2.31603 2.31603v2.20345h-.27151v-1.00108h-.96736v3.55492c0 1.74363 1.25536 3.19409 2.91156 3.49679v1.5536c-1.3885.0663-2.44105.386-2.44105.843 0 .5152 1.3377 1.0099 2.98639 1.0099 1.64868 0 2.99123-.4947 2.99123-1.0099 0-.428-.9266-.7356-2.18555-.8274v-1.5815c1.62425-.3281 2.84725-1.76351 2.84725-3.48449v-3.55492h-.9674z" fill="#444" fill-rule="evenodd"/>
</svg>
