<svg height="16" width="16" xmlns="http://www.w3.org/2000/svg">
  <g fill="#444" transform="translate(-212 -667.99997)">
    <path d="m214 668v1h-1v1h-1v-2z"/>
    <path d="m228 670h-1v-1h-1l-.00001-1.00001 2.00001-.00002z"/>
    <path d="m214 683.99997v-.99997l-1-.00003v-.99997l-1-.00003v2z"/>
    <path d="m228 681.99997-1 .00003v.99997l-1 .00003-.00001.99998 2.00001.00002z"/>
    <path d="m218 671c-.54996 0-1 .45004-1 1v1h-2c-.55201 0-1 .45004-1 1v6c0 .54996.44799 1 1 1h10c.55201 0 1-.45004 1-1v-6c0-.54996-.44799-1-1-1h-2v-1c0-.54996-.45004-1-1-1zm2 2.46816c1.81251 0 3.28184 1.46933 3.28184 3.28184s-1.46933 3.28184-3.28184 3.28184-3.28184-1.46933-3.28184-3.28184 1.46933-3.28184 3.28184-3.28184zm0 1.28184c-1.10457 0-2 .89543-2 2s.89543 2 2 2 2-.89543 2-2-.89543-2-2-2z"/>
  </g>
</svg>
