<svg height="16" width="16" xmlns="http://www.w3.org/2000/svg"><path d="m8.0664062 0c-.4438904.00003831-.8876926.03723336-1.3261718.11132812l.1074218.63085938c.4024502-.06800646.8098399-.10152712 1.21875-.1015625zm.6015626.0234375-.046875.63671875c.4074433.03048569.8110197.09486738 1.2070312.19335937l.1542969-.62109374c-.4315939-.10734185-.8714901-.17584115-1.3144531-.20898438zm-2.5800782.22460938c-.4304486.11048568-.851952.25763005-1.2578125.43945312l.2617188.5839844c.3724206-.1668423.7606749-.30080916 1.15625-.40234378zm4.5332034.171875-.205078.60546872c.386533.131282.762088.2955826 1.121093.4902344l.304688-.56054688c-.390688-.21182984-.79972-.39217379-1.220703-.53515624zm-6.386719.56445312c-.3891769.2147418-.7599705.4632213-1.1074219.7402344l.3984375.5c.3193196-.2545846.6601066-.4824403 1.0175782-.6796875zm8.179687.3125-.351562.5332031c.34154.2239794.665477.4779379.964844.7558594l.435547-.46875c-.325609-.3022831-.677242-.576629-1.048829-.8203125zm-4.414062.3027344a6.4000109 6.4000109 0 0 0 -6.4003906 6.4003906 6.4000109 6.4000109 0 0 0 .8613281 3.189453l-.8613281 3.210938 3.2089844-.859375a6.4000109 6.4000109 0 0 0 3.1914062.859375 6.4000109 6.4000109 0 0 0 6.400391-6.400391 6.4000109 6.4000109 0 0 0 -6.400391-6.4003906zm-5.375.5605468c-.3234483.3046439-.622719.6376671-.890625.9921876l.5117188.3847656c.2462066-.3258056.519097-.6301318.8164062-.9101563zm11.306641.4296876-.472657.4316406c.275326.3017701.525146.6253061.746094.96875l.53711-.3457032c-.240431-.3737272-.511112-.7264932-.810547-1.0546874zm-12.5761722 1.109375c-.2377684.3754849-.44229054.7712884-.6132813 1.1816406l.5898437.2460937c.1569956-.3767658.3460229-.7409913.5644532-1.0859375zm13.7246092.5214843-.564453.2988281c.191542.3606205.350828.7374305.478516 1.125l.607421-.1992187c-.139143-.4223397-.31303-.8321474-.521484-1.2246094zm-14.56835925 1.2851563c-.13617738.4232413-.23623259.8568634-.29882813 1.296875l.6328125.0917968c.05750154-.4042042.14843474-.8048489.27343748-1.1933593zm15.27343725.5800781-.623047.1484375c.095011.3968581.156776.8013978.183594 1.2089844l.638672-.0410156c-.029166-.4432753-.095691-.8839662-.199219-1.3164063zm-15.63867162 1.3789063c-.02670154.4445102-.01428652.8906824.03515624 1.3320312l.63476563-.0703125c-.04549-.4060649-.055684-.8158926-.03125-1.2226563zm15.21289062.5917968c-.006523.4085186-.046255.8175354-.121094 1.21875l.628907.1171875c.081523-.4370521.125729-.8801581.132812-1.3242187zm-14.44921875 1.2753906-.62695313.1230469c.08618585.4359482.20911043.8659519.3671875 1.2812499l.59765628-.228516c-.1452743-.381663-.25869342-.7751821-.33789065-1.1757808zm14.19140575.5390626c-.107867.3935002-.2508.7784872-.423828 1.1484372l.580078.271485c.18824-.402477.343363-.821087.460938-1.25zm-13.6113276 1.1992182-.5761719.277344c.06825554.142489.1441047.280122.2207031.417969l-.14648435.548828.61718755.166016.2128906-.798828-.0664063-.113282c-.0938798-.162335-.1809138-.32936-.2617187-.498047zm12.9062496.494141c-.203547.354103-.437401.690697-.697265 1.005859l.492187.40625c.282654-.3428.538326-.70852.759766-1.09375zm-13.57421838 1.367188-.33203124 1.236328.61914062.164062.3300781-1.234375zm12.46679638.09375c-.285197.292516-.593923.561854-.923828.802734l.376954.515625c.358845-.262011.695732-.553008 1.005859-.871094zm-1.433593 1.142578c-.348842.212489-.71634.396301-1.095703.546875l.236328.59375c.413295-.164042.811946-.362613 1.191406-.59375zm-7.5410159.013672-.9179687.246093.1660156.617188.6660156-.177734c.1003386.055756.2016815.110727.3046875.162109l.2851563-.572266c-.1315299-.065611-.2608701-.135132-.3886719-.208984zm-1.5351562.412109-1.2363281.330078.1660156.619141 1.234375-.332031zm2.5976562.115234-.2363281.59375c.4127225.164808.8389234.295412 1.2734375.388672l.1347656-.626953c-.3993066-.085704-.7926027-.204018-1.171875-.355469zm-5.05078122.076172-.32617188 1.214844 1.0898438-.292969-.16406255-.617187-.02148437.005859.0390625-.144531zm9.85546912.13086c-.3904934.118426-.7919835.20311-1.197266.253906l.0800781.634766c.4408859-.055259.8771218-.146316 1.3027349-.275391zm-3.0292972.251953-.0820313.634765c.4404417.056523.887271.07763 1.3320313.058594l-.0273438-.640625c-.4072923.017431-.8172821-.000777-1.2226562-.052734z" fill="#444444" transform="matrix(1.00000000577 0 0 1.00000000577 -.000000125 .00000018846)"/></svg>