<svg fill="none" height="16" viewBox="0 0 16 16" width="16" xmlns="http://www.w3.org/2000/svg">
  <g fill="#444">
    <path d="m2.65526 9.35937c.05681-.15928.20764-.26562.37675-.26562h9.80339c.1655 0 .3138.10184.3733.25621l1.5818 4.10624c.101.262-.0924.5438-.3732.5438h-12.84994c-.27655 0-.46966-.2739-.37675-.5344z" opacity=".5"/>
    <g clip-rule="evenodd" fill-rule="evenodd">
      <path d="m11.7025 3.09c0-.11045-.0895-.2-.2-.2h-7.02c-.11046 0-.2.08955-.2.2v7.5h7.42zm-7.86-1.04c-.22091 0-.4.17909-.4.4v8.14h9.1v-8.14c0-.22091-.1791-.4-.4-.4z"/>
      <path d="m6.26621 2.45779-.55634-.0639-.4048 3.52463c-.33728.07734-.605.35979-.64673.72314-.05293.46089.27778.87742.73867.93035.46089.05294.87743-.27778.93036-.73867.04173-.36335-.15499-.69914-.46596-.85092z" opacity=".8"/>
      <path d="m8.22621 2.45779-.55634-.0639-.4048 3.52463c-.33728.07734-.605.35979-.64673.72314-.05293.46089.27778.87742.73867.93035.46089.05294.87743-.27778.93036-.73867.04173-.36335-.15499-.69914-.46595-.85092z" opacity=".8"/>
      <path d="m10.1862 2.45779-.55633-.0639-.4048 3.52463c-.33728.07734-.605.35979-.64673.72314-.05293.46089.27778.87742.73867.93035.46089.05294.87739-.27778.93039-.73867.0417-.36335-.155-.69914-.46599-.85092z" opacity=".8"/>
      <path d="m10.7846 2.51587-.5125.22578 1.4304 3.24667c-.2521.23706-.3406.61604-.1931.95074.187.42454.6828.61708 1.1073.43004.4246-.18704.6171-.68282.4301-1.10737-.1475-.3347-.4868-.52519-.8319-.49918z" opacity=".8"/>
    </g>
  </g>
</svg>
