<svg height="16" width="16" xmlns="http://www.w3.org/2000/svg">
  <g transform="translate(-652 -320)">
    <path d="m655.99414 321c-1.2582.0145-2.17889-.0306-2.93164.38477-.37637.20766-.67323.55938-.83789.99804-.16467.43867-.22461.95958-.22461 1.61719v8c0 .65761.0599 1.17853.22461 1.61719.16467.43866.46152.79039.83789.99804.75275.41532 1.67345.3702 2.93164.38477h1.50204c-1.01789-.73838-1.79833-1.78288-2.19726-3h-2.29892v-8c0-.59239.0626-1.00573.16016-1.26562.0976-.25991.20135-.37147.38476-.47266.36596-.20191 1.19655-.24701 2.45508-.26172h8c1.25852.0147 2.08717.0598 2.45312.26172.18341.1012.28916.21274.38672.47266.0974.25991.16016.67323.16016 1.26562v8h-.36914c-.14913.38855-.32639.76487-.53711 1.11914l1.21289 1.21289c.19979-.19452.36339-.43417.46875-.71484.16449-.43867.22461-.95958.22461-1.61719v-8c0-.65761-.0599-1.17852-.22461-1.61719-.16466-.43866-.46152-.79038-.83789-.99804-.75275-.41534-1.67344-.37025-2.93164-.38477h-8.0079zm2.70117 11c.53904.67207 1.35951 1.10547 2.30469 1.10547.94566 0 1.76622-.43284 2.30469-1.10547h-4.34571z" fill="#444"/>
    <path d="m658 322-5 10h2.29883c-.19158-.58458-.29883-1.20729-.29883-1.85352 0-2.39867 1.43244-4.47566 3.48047-5.43359.36686-.4328.90772-.71289 1.51953-.71289.27709 0 .54132.0563.78125.1582.0732-.003.14498-.0117.21875-.0117 1.25777 0 2.42701.39544 3.39453 1.06446l1.60547-3.21096zm3.55859 5.24023c-.36643.45999-.92478.75977-1.55859.75977-.29515 0-.57398-.0669-.82617-.18164-.68926.53834-1.13477 1.36981-1.13477 2.32812 0 .71075.25091 1.34792.65625 1.85352h2.30469l2.01367-4.02734c-.39717-.3679-.89454-.6283-1.45508-.73243z" fill="#474747" opacity=".5"/>
    <path d="m661 325c-2.75526 0-5 2.24474-5 5s2.24474 5 5 5 5-2.24474 5-5-2.24474-5-5-5zm0 1.03906c2.19321 0 3.96094 1.76773 3.96094 3.96094s-1.76773 3.96094-3.96094 3.96094-3.96094-1.76773-3.96094-3.96094 1.76773-3.96094 3.96094-3.96094z" fill="#444"/>
    <path d="m664.35352 332.64648-.70704.70704 2.5 2.5.70704-.70704z" fill="#474747" fill-rule="evenodd"/>
  </g>
</svg>
