<svg height="16" width="16" xmlns="http://www.w3.org/2000/svg">
  <g fill="#444">
    <path d="m2.7773438 9.5410156c-.2247808 0-.40625.2046218-.40625.4589844l-1.52148442 5.042969c-.00000001.254362.18146922.458984.40625002.458984h13.4882816c.224781 0 .40625-.204622.40625-.458984l-1.419922-5.042969c0-.2543626-.18147-.4589844-.40625-.4589844h-1.46875c.152055.4203969-.211624.7547934-.191407.8222654-.590008.648925-2.0513632 1.103516-3.6621089 1.103516-1.6778599 0-3.1094143-.491194-3.6542969-1.183594.039094-.123371-.3874138-.4192846-.2597656-.7421874zm1.3769531.6347654c.2244454.284713.5004097.624181.5292969.667969.0821689.124548 1.423462.498385 1.6425781.591797.219116.093413 2.4112398.402785 2.9316406.341797.5204008-.060991 2.5742185-.777344 2.5742185-.777344s.172987-.184257.222657-.236328c.008191.026149.107421.351562.107421.351562.004488.006419.005423.013079.009766.019532.119051.17689.191406.362502.191406.55664 0 1.073186-1.95229 1.9375-4.363281 1.9375-2.4109905 0-4.3632812-.864314-4.3632812-1.9375-.0000001-.213605.0796085-.415174.2226562-.607422 0 0 .2391295-.73938.2949219-.908203z" transform="matrix(.99999999149 0 0 .99999999149 .00000056199 .00000007334)"/>
    <path d="m8.0292969.49609375c-.2106011.00431102-.4169755.05399229-.6367188.14453125-.1136426.04682298-.2019666.15400665-.234375.26171875-.9801754 3.25772775-3.2988281 9.38867225-3.2988281 9.38867225-.1430477.169109-.2226562.343354-.2226562.53125 0 .94402 1.9522907 1.705078 4.3632812 1.705078 2.410991 0 4.363281-.761058 4.363281-1.705078 0-.170773-.072355-.330728-.191406-.486328-.004343-.005675-.005278-.011931-.009766-.017579 0 0-2.2631549-6.3401115-3.2050778-9.47070275-.0316883-.10532824-.1529848-.18381314-.265625-.2265625-.2364635-.08974338-.4515082-.12931102-.6621093-.125zm-.8730469 1.83203125c.3521014.0619283.4494446.0976563.84375.0976562.4076553 0 .6102008-.0315499.9726562-.0976562.2421942.9223659.6683091 1.9193027.9472657 2.9277344-.5578264.196728-1.1913233.3144531-1.9199219.3144531-.7201965 0-1.2571685-.1125252-1.8105469-.3046875.2887346-1.0038144.7173566-2.0050858.9667969-2.9375zm-1.8652344 5.3535156c.7087803.3526304 1.5896898.5722656 2.7109375.5722656 1.100292 0 2.0465919-.2131138 2.7539059-.5527343.381371 1.2983167.864028 2.5146911.908203 2.6621091-.590009.648925-2.0513632 1.103516-3.6621089 1.103516-1.6778599 0-3.1094143-.491194-3.6542969-1.183594.0955065-.3013968.5268886-1.2469144.9433594-2.6015624z" transform="matrix(.99999999149 0 0 .99999999149 .00000021785 .00000007334)"/>
  </g>
</svg>
