<svg height="16" width="16" xmlns="http://www.w3.org/2000/svg">
  <path d="m3.5 5a.5.5 0 0 0 -.5.5v2.969a4.516 4.516 0 0 0 3 4.25v1.281h-2c-.565 0-1 .49-1 1v1h9v-1c0-.584-.476-1-1-1h-2v-1.281a4.516 4.516 0 0 0 3-4.25v-2.969a.5.5 0 0 0 -1 0c0 .069.006.128.031.188v2.78a3.521 3.521 0 0 1 -3.53 3.532c-1.954 0-3.501-1.567-3.501-3.531v-2.969a.5.5 0 0 0 -.5-.5zm4-4.013c1.385 0 2.5 1.115 2.5 2.5v5.013c0 1.385-1.115 2.5-2.5 2.5a2.495 2.495 0 0 1 -2.5-2.5v-5.013c0-1.385 1.115-2.5 2.5-2.5z" fill="#474747"/>
</svg>
