<svg height="16" width="16" xmlns="http://www.w3.org/2000/svg">
  <g fill="#474747">
    <path d="m4.5 13c-2.5 0-2.5.5-2.5.5 0 .5.5.5.5.5h4c.5 0 .5-.5.5-.5s0-.5-2.5-.5zm7 0c-2.5 0-2.5.5-2.5.5 0 .5.5.5.5.5h4c.5 0 .5-.5.5-.5s0-.5-2.5-.5z"/>
    <path d="m2.5 4a2.517 2.517 0 0 0 -2.5 2.5v3c0 1.368 1.132 2.5 2.5 2.5h4c1.368 0 2.5-1.132 2.5-2.5v-3c0-1.368-1.132-2.5-2.5-2.5zm0 2h4c.294 0 .5.206.5.5v3c0 .294-.206.5-.5.5h-4a.478.478 0 0 1 -.5-.5v-3c0-.294.206-.5.5-.5z"/>
    <path d="m9.5 2a2.517 2.517 0 0 0 -2.5 2.5v5c0 1.368 1.132 2.5 2.5 2.5h4c1.368 0 2.5-1.132 2.5-2.5v-5c0-1.368-1.132-2.5-2.5-2.5zm0 2h4c.294 0 .5.206.5.5v5c0 .294-.206.5-.5.5h-4a.478.478 0 0 1 -.5-.5v-5c0-.294.206-.5.5-.5z"/>
  </g>
</svg>
