<?xml version="1.0" encoding="UTF-8" standalone="no"?>
<svg
   xmlns:dc="http://purl.org/dc/elements/1.1/"
   xmlns:cc="http://creativecommons.org/ns#"
   xmlns:rdf="http://www.w3.org/1999/02/22-rdf-syntax-ns#"
   xmlns:svg="http://www.w3.org/2000/svg"
   xmlns="http://www.w3.org/2000/svg"
   xmlns:sodipodi="http://sodipodi.sourceforge.net/DTD/sodipodi-0.dtd"
   xmlns:inkscape="http://www.inkscape.org/namespaces/inkscape"
   width="256"
   height="256"
   style="enable-background:new"
   version="1.0"
   id="svg49"
   sodipodi:docname="distributor-logo.svg"
   inkscape:version="0.92.3 (2405546, 2018-03-11)">
  <metadata
     id="metadata53">
    <rdf:RDF>
      <cc:Work
         rdf:about="">
        <dc:format>image/svg+xml</dc:format>
        <dc:type
           rdf:resource="http://purl.org/dc/dcmitype/StillImage" />
        <dc:title />
      </cc:Work>
    </rdf:RDF>
  </metadata>
  <sodipodi:namedview
     pagecolor="#ffffff"
     bordercolor="#666666"
     borderopacity="1"
     objecttolerance="10"
     gridtolerance="10"
     guidetolerance="10"
     inkscape:pageopacity="0"
     inkscape:pageshadow="2"
     inkscape:window-width="1920"
     inkscape:window-height="1016"
     id="namedview51"
     showgrid="false"
     inkscape:zoom="0.921875"
     inkscape:cx="-262.50847"
     inkscape:cy="128"
     inkscape:window-x="0"
     inkscape:window-y="27"
     inkscape:window-maximized="1"
     inkscape:current-layer="g43" />
  <defs
     id="defs27">
    <filter
       id="filter925"
       x="-.02"
       y="-.03"
       width="1.046"
       height="1.05"
       style="color-interpolation-filters:sRGB">
      <feGaussianBlur
         stdDeviation="2.32"
         id="feGaussianBlur2" />
    </filter>
    <filter
       id="filter931"
       x="-.01"
       y="-.01"
       width="1.023"
       height="1.025"
       style="color-interpolation-filters:sRGB">
      <feGaussianBlur
         stdDeviation="1.16"
         id="feGaussianBlur5" />
    </filter>
    <linearGradient
       id="linearGradient1108"
       x1="296"
       x2="296"
       y1="-212"
       y2="236"
       gradientUnits="userSpaceOnUse">
      <stop
         style="stop-color:#ffffff"
         offset="0"
         id="stop8" />
      <stop
         style="stop-color:#ffffff;stop-opacity:.09803922"
         offset=".125"
         id="stop10" />
      <stop
         style="stop-color:#000000;stop-opacity:.09803922"
         offset=".925"
         id="stop12" />
      <stop
         style="stop-color:#000000;stop-opacity:.49803922"
         offset="1"
         id="stop14" />
    </linearGradient>
    <clipPath
       id="clipPath1082-3">
      <path
         d="M 361.9375,-212 C 507.2348,-212 528,-191.28677 528,-46.125 V 70.125 C 528,215.28618 507.2348,236 361.9375,236 H 214.0625 C 68.7652,236 48,215.28618 48,70.125 V -46.125 C 48,-191.28677 68.7652,-212 214.0625,-212 Z"
         style="fill:#8c59d9"
         id="path17" />
    </clipPath>
    <linearGradient
       id="linearGradient4301"
       x1="-434"
       x2="-82"
       y1="-256"
       y2="-256"
       gradientUnits="userSpaceOnUse">
      <stop
         style="stop-color:#000000;stop-opacity:0"
         offset="0"
         id="stop20" />
      <stop
         style="stop-color:#000000"
         offset=".499"
         id="stop22" />
      <stop
         style="stop-color:#000000;stop-opacity:0"
         offset="1"
         id="stop24" />
    </linearGradient>
    <clipPath
       clipPathUnits="userSpaceOnUse"
       id="clipPath1509-3">
      <path
         sodipodi:nodetypes="ccccccccc"
         inkscape:connector-curvature="0"
         id="path1511-6"
         d="M 192,-164 H 88 c 0,0 -40,0 -40,40 V 4 h 416 v -96 c 0,0 0,-40 -40,-40 H 224 Z"
         style="display:inline;opacity:1;vector-effect:none;fill:#c9b8a7;fill-opacity:1;stroke:none;stroke-width:26.06693268;stroke-linecap:butt;stroke-linejoin:miter;stroke-miterlimit:4;stroke-dasharray:none;stroke-dashoffset:0;stroke-opacity:1;marker:none;marker-start:none;marker-mid:none;marker-end:none;paint-order:normal;enable-background:new" />
    </clipPath>
  </defs>
  <g
     transform="translate(0,-44)"
     id="g47">
    <path
       d="m162.53675 62.431991c72.64865 0 83.03125 10.356615 83.03125 82.937499v58.125c0 72.58059-10.3826 82.9375-83.03125 82.9375h-73.9375c-72.64865 0-83.03125-10.35691-83.03125-82.9375v-58.125c0-72.580884 10.3826-82.937499 83.03125-82.937499z"
       style="filter:url(#filter925);opacity:.2"
       id="path29" />
    <path
       d="m162.53675 61.431991c72.64865 0 83.03125 10.356615 83.03125 82.937499v58.125c0 72.58059-10.3826 82.9375-83.03125 82.9375h-73.9375c-72.64865 0-83.03125-10.35691-83.03125-82.9375v-58.125c0-72.580884 10.3826-82.937499 83.03125-82.937499z"
       style="filter:url(#filter931);opacity:.1"
       id="path31" />
    <path
       d="m162.53675 60.431991c72.64865 0 83.03125 10.356615 83.03125 82.937499v58.125c0 72.58059-10.3826 82.9375-83.03125 82.9375h-73.9375c-72.64865 0-83.03125-10.35691-83.03125-82.9375v-58.125c0-72.580884 10.3826-82.937499 83.03125-82.937499z"
       style="fill:#ded4ca;fill-opacity:1"
       id="path33" />
    <path
       d="m5.5679616 173.11032v29.06248c0 72.58061 10.3826 82.9375 83.03125 82.9375h73.937498c72.64865 0 83.03125-10.35689 83.03125-82.9375v-29.06248z"
       style="fill:#ffffff;opacity:.2"
       id="path35" />
    <circle
       transform="matrix(0 -.50000001 -.50000001 0 -2.4320384 45.110318)"
       cx="-258"
       cy="-256"
       r="176"
       style="fill:url(#linearGradient4301);filter:url(#filter4291);opacity:.4"
       id="circle37" />
    <g
       transform="matrix(1.9414905,0,0,1.9414905,-1256.8256,85.431981)"
       style="enable-background:new"
       id="g43">
      <circle
         cx="712.027"
         cy="45.326"
         r="45.326"
         style="fill:#8c6c4b;fill-opacity:1"
         id="circle39" />
      <path
         d="m681.207 39.273c-3.344 0-6.053 2.709-6.053 6.053 0 3.342 2.709 6.051 6.053 6.051 3.342 0 6.051-2.709 6.051-6.051-1e-3 -3.344-2.71-6.053-6.051-6.053zm43.207 27.504c-2.895 1.672-3.887 5.371-2.215 8.264 1.67 2.895 5.369 3.887 8.264 2.215 2.895-1.67 3.887-5.369 2.215-8.264-1.671-2.892-5.372-3.885-8.264-2.215zm-30.063-21.451c0-5.98 2.971-11.264 7.516-14.463l-4.424-7.41c-5.295 3.539-9.234 8.947-10.871 15.281 1.91 1.559 3.133 3.932 3.133 6.592 0 2.658-1.223 5.031-3.133 6.59 1.635 6.336 5.574 11.744 10.871 15.283l4.424-7.412c-4.545-3.197-7.516-8.48-7.516-14.461zm17.676-17.678c9.234 0 16.811 7.08 17.605 16.109l8.623-0.127c-0.424-6.666-3.336-12.65-7.811-17.051-2.301 0.869-4.959 0.736-7.256-0.588-2.301-1.328-3.744-3.568-4.139-6-2.236-0.617-4.59-0.955-7.023-0.955-4.184 0-8.139 0.982-11.65 2.721l4.205 7.535c2.262-1.052 4.786-1.644 7.446-1.644zm0 35.354c-2.66 0-5.184-0.592-7.445-1.645l-4.205 7.535c3.512 1.74 7.467 2.723 11.65 2.723 2.434 0 4.787-0.338 7.023-0.957 0.395-2.432 1.838-4.67 4.139-6 2.299-1.326 4.955-1.457 7.256-0.588 4.475-4.4 7.387-10.385 7.811-17.051l-8.625-0.127c-0.794 9.032-8.37 16.11-17.604 16.11zm12.385-39.131c2.895 1.672 6.594 0.682 8.264-2.213 1.672-2.895 0.682-6.594-2.213-8.266-2.895-1.67-6.594-0.678-8.266 2.217-1.67 2.893-0.678 6.592 2.215 8.262z"
         style="fill:#ffffff"
         id="path41" />
    </g>
    <path
       transform="matrix(.5 0 0 .5 -18.432 166.43199)"
       d="M 361.9375,-212 C 507.2348,-212 528,-191.28677 528,-46.125 V 70.125 C 528,215.28618 507.2348,236 361.9375,236 H 214.0625 C 68.7652,236 48,215.28618 48,70.125 V -46.125 C 48,-191.28677 68.7652,-212 214.0625,-212 Z"
       clip-path="url(#clipPath1082-3)"
       style="fill:none;opacity:.4;stroke-linecap:round;stroke-linejoin:round;stroke-width:8;stroke:url(#linearGradient1108)"
       id="path45" />
  </g>
</svg>
