<svg xmlns="http://www.w3.org/2000/svg" xmlns:xlink="http://www.w3.org/1999/xlink" width="256" height="256" version="1.1" viewBox="0 0 67.73 67.73">
 <defs>
  <!-- drop shadow -->
  <filter id="drop_shadow" width="1.024" height="1.024" x="-.01" y="-.01" style="color-interpolation-filters:sRGB">
   <feGaussianBlur id="feGaussianBlur1304" stdDeviation="2.08"/>
  </filter>

  <!-- primary shadow -->
  <clipPath id="primary_shadow_clip" clipPathUnits="userSpaceOnUse">
   <path style="fill:#ffa348" d="M 192,-164 H 88 c 0,0 -40,0 -40,40 V 4 h 416 v -96 c 0,0 0,-40 -40,-40 H 224 Z"/>
  </clipPath>
  <filter id="primary_shadow" width="1.217" height="1.269" x="-.11" y="-.13" style="color-interpolation-filters:sRGB">
   <feGaussianBlur id="feGaussianBlur1531" stdDeviation="18.8"/>
  </filter>
 </defs>

 <path id="drop_shadow"        fill="#000"    filter="url(#drop_shadow)"    opacity="0.2" d="m 88.000104,-162.00003 c 0,0 -40,0 -40,40 l -0.0352,127.9999949 h 0.0332 l -0.0332,248.0938051 376.035156,-0.0938 c 40,0 40,-40 40,-40 v -208.0000051 -47.9999979 -48 c 0,0 0,-39.999997 -40,-39.999997 h -200 l -32,-32 z" transform="matrix(0.14247782,0,0,0.14247782,-2.5508762,25.5245134)"/>
 <path id="secondary"          fill="#ff7800" filter="none"                 opacity="1.0" d="m 24.80488,2.1581434 h -14.8176929 c 0,0 -5.6991133,0 -5.6991133,5.69911 v 18.23717 h 59.2707722 v -13.67788 c 0,0 0,-5.69911 -5.699113,-5.69911 h -28.495563 z"/>
 <path id="primary_shadow"     fill="#000"    filter="url(#primary_shadow)" opacity="0.1" clip-path="url(#primary_shadow_clip)" d="m 256,-80 -32,32 h -136 c 0,0 -40,0 -40,40 v 264 h 376 c 40,0 40,-40 40,-40 v -256 c 0,-40 -40,-40 -40,-40 z" transform="matrix(0.14247782,0,0,0.14247782,-2.5508622,25.5245034)"/>
 <path id="primary"            fill="#ffa348" filter="none"                 opacity="1.0" d="m 33.923459,13.5563734 -4.559289,4.55929 h -19.3769829 c 0,0 -5.6991133,0 -5.6991133,5.69911 v 37.61414 h 53.5716592 c 5.699113,0 5.699113,-5.69911 5.699113,-5.69911 v -36.47432 c 0,-5.69911 -5.699113,-5.69911 -5.699113,-5.69911 z"/>
 <path id="highlighing_shadow" fill="#000"    filter="none"                 opacity="0.2" d="m 63.558846,54.8749434 c 0,0 0,5.69911 -5.699113,5.69911 l -53.5713812,0.0134 -5.69e-4,0.85487 53.5719372,-0.0134 c 5.699113,0 5.699113,-5.69911 5.699113,-5.69911 z"/>
 <path id="highlighting"       fill="#ffffff" filter="none"                 opacity="0.3" d="m 33.923459,13.5563734 -4.559289,4.55929 h -19.3769829 c 0,0 -5.6991133,0 -5.6991133,5.69911 v 0.56991 c 0,-5.69911 5.6991133,-5.69911 5.6991133,-5.69911 h 19.6036609 l 4.559293,-4.55929 h 23.709592 c 0,0 5.699113,0 5.699113,5.69911 v -0.56991 c 0,-5.69911 -5.699113,-5.69911 -5.699113,-5.69911 z"/>
 <path id="gear"               fill="#e66100" d="m 30.56245758,24.07589844 -0.29154805,3.48383856 a 10.39218581,10.39218581 0 0 0 -3.03716354,1.75663838 l -3.16640454,-1.49091965 -3.3066046,5.72741708 2.87485649,1.99643335 a 10.39218581,10.39218581 0 0 0 -0.15871698,1.75293496 10.39218581,10.39218581 0 0 0 0.15134815,1.76032294 l -2.86748752,1.98906438 3.3066046,5.72741701 3.1590355,-1.48721624 a 10.39218581,10.39218581 0 0 0 3.04453258,1.74554706 l 0.28342363,3.49555342 h 6.61320912 l 0.29154805,-3.48383856 a 10.39218581,10.39218581 0 0 0 3.03716354,-1.75663845 l 3.16640454,1.49091965 3.3066046,-5.72741701 -2.87485649,-1.99643335 a 10.39218581,10.39218581 0 0 0 0.15871698,-1.75293496 10.39218581,10.39218581 0 0 0 -0.15134815,-1.76032294 l 2.86748744,-1.98906438 -3.30660452,-5.72741701 -3.15903557,1.48721624 a 10.39218581,10.39218581 0 0 0 -3.04453251,-1.74554706 l -0.28342363,-3.49555342 z m 3.30660453,9.44744162 a 3.778976656,3.778976656 0 0 1 3.77897669,3.77897669 3.778976656,3.778976656 0 0 1 -3.77897669,3.77897663 3.778976656,3.778976656 0 0 1 -3.77897663,-3.77897663 3.778976656,3.778976656 0 0 1 3.77897663,-3.77897669 z"/>
</svg>
