<svg xmlns="http://www.w3.org/2000/svg" xmlns:xlink="http://www.w3.org/1999/xlink" width="256" height="256" version="1.1" viewBox="0 0 67.73 67.73">
 <defs>
  <filter style="color-interpolation-filters:sRGB" id="filter1344" width="1.023" height="1.025" x="-.01" y="-.01">
   <feGaussianBlur stdDeviation="1.06"/>
  </filter>
  <filter style="color-interpolation-filters:sRGB" id="filter959" width="1.023" height="1.025" x="-.01" y="-.01">
   <feGaussianBlur stdDeviation="1.06"/>
  </filter>
  <linearGradient id="linearGradient1057" x1="264" x2="48" y1="252" y2="52" gradientTransform="matrix(0.26458333,0,0,0.26458333,-6.4240833,221.79779)" gradientUnits="userSpaceOnUse">
   <stop offset="0" style="stop-color:#000000"/>
   <stop offset=".159" style="stop-color:#000000;stop-opacity:.43290043"/>
   <stop offset=".194" style="stop-color:#000000;stop-opacity:.0995671"/>
   <stop offset="1" style="stop-color:#000000;stop-opacity:0"/>
  </linearGradient>
  <clipPath id="clipPath977">
   <path style="fill:#f6531e" d="M 78.994141,52 C 43.625611,52 40,53.999146 40,89.296875 V 140 H 264 V 108.92188 C 264,73.624145 260.37439,68 225.00586,68 H 138 L 122,52 Z"/>
  </clipPath>
  <filter style="color-interpolation-filters:sRGB" id="filter989" width="1.107" height="1.136" x="-.05" y="-.07">
   <feGaussianBlur stdDeviation="5"/>
  </filter>
  <linearGradient id="linearGradient4226" x1="224" x2="224" y1="86" y2="478" gradientTransform="matrix(0.11988932,0,0,0.11988932,3.1009196,233.76191)" gradientUnits="userSpaceOnUse">
   <stop offset="0" style="stop-color:			#31c6b7"/>
   <stop offset="1" style="stop-color:#5bdbc1"/>
  </linearGradient>
  <radialGradient id="radialGradient1371" cx="152" cy="-.126" r="112" gradientTransform="matrix(0.26458333,0,0,0.06959709,-6.4240801,237.68155)" gradientUnits="userSpaceOnUse" xlink:href="#linearGradient1361"/>
  <linearGradient id="linearGradient1361">
   <stop offset="0" style="stop-color:#ffffff"/>
   <stop offset="1" style="stop-color:#ffffff;stop-opacity:.20392157"/>
  </linearGradient>
  <radialGradient id="radialGradient1363" cx="148" cy="39.684" r="112" gradientTransform="matrix(0.26458333,0,0,0.06723474,-6.4240801,244.52967)" gradientUnits="userSpaceOnUse" xlink:href="#linearGradient1361"/>
 </defs>
 <g transform="translate(0,-229.26666)">
  <path d="M 51.714141,15.228801 C 16.345611,15.228801 12.72,17.227947 12.72,52.525676 V 176.30692 c 0,35.29774 3.625611,38.92188 38.994141,38.92188 H 197.72586 c 35.36853,0 38.99414,-3.62414 38.99414,-38.92188 V 72.150676 c 0,-35.29774 -3.62561,-40.92188 -38.99414,-40.92188 H 110.72 l -15.999999,-16 z" transform="matrix(0.26458333,0,0,0.26458333,0.79374998,232.056)" style="opacity:0.1;filter:url(#filter1344)"/>
  <path d="M 51.714141,14.228801 C 16.345611,14.228801 12.72,16.227947 12.72,51.525676 V 183.30692 c 0,35.29774 3.625611,38.92188 38.994141,38.92188 H 197.72586 c 35.36853,0 38.99414,-3.62414 38.99414,-38.92188 V 71.150676 c 0,-35.297735 -3.62561,-40.92188 -38.99414,-40.92188 H 110.72 l -15.999999,-16 z" transform="matrix(0.26458333,0,0,0.26458333,0.79374998,232.056)" style="opacity:0.1;filter:url(#filter959)"/>
  <path d="m 14.47645,235.55612 c -9.3579238,0 -10.3172001,0.52894 -10.3172001,9.86813 v 34.86712 c 0,9.3392 0.9592763,10.29808 10.3172001,10.29808 h 38.632266 c 9.357924,0 10.3172,-0.95888 10.3172,-10.29808 V 250.6167 c 0,-9.33919 -0.959276,-10.82725 -10.3172,-10.82725 h -23.0203 l -4.233333,-4.23333 z" style="opacity:0.4;fill:url(#linearGradient1057);filter:url(#filter1067)"/>
  <path d="m 14.476449,235.55612 c -9.3579194,0 -10.317199,0.52894 -10.317199,9.86813 v 13.4152 h 59.266671 v -8.22275 c 0,-9.33919 -0.959281,-10.82725 -10.317202,-10.82725 H 30.088418 l -4.233339,-4.23333 z" style="fill:#2daaaa"/>
  <path d="M 78.99353,92 C 43.625,92 40,95.625 40,130.92273 v 82.15454 C 40,248.375 43.625,252 78.99353,252 H 225.00647 C 260.375,252 264,248.375 264,213.07727 V 114.92273 C 264,79.625 260.375,76 225.00647,76 H 143.75 l -16.00782,16 z" clip-path="url(#clipPath977)" transform="matrix(0.26458333,0,0,0.26458333,-6.4240801,223.91445)" style="opacity:0.5;fill:#1f6166;filter:url(#filter989)"/>
  <path d="m 14.476289,248.25612 c -9.3579192,0 -10.317039,0.95911 -10.317039,10.2983 v 21.73672 c 0,9.3392 0.9591202,10.29831 10.317039,10.29831 H 53.10888 c 9.357919,0 10.317041,-0.95911 10.317041,-10.29831 v -25.97005 c 0,-9.33919 -0.959122,-10.29831 -10.317041,-10.29831 H 31.60977 l -4.2354,4.23334 z" style="fill:url(#linearGradient4226)"/>
  <path d="m 14.476449,235.55612 c -9.3579194,0 -10.317199,0.52894 -10.317199,9.86813 v 0.52916 c 0,-9.33919 0.95928,-9.86813 10.317199,-9.86813 h 11.37863 l 4.233339,4.23334 h 23.020301 c 9.357921,0 10.317202,1.48805 10.317202,10.82724 v -0.52916 c 0,-9.3392 -0.959281,-10.82725 -10.317202,-10.82725 H 30.088418 l -4.233339,-4.23333 z" style="opacity:0.4;fill:url(#radialGradient1371)"/>
  <path d="m 31.60977,244.02278 -4.2354,4.23334 H 14.476449 c -9.3579194,0 -10.317199,0.95889 -10.317199,10.29808 v 0.52916 c 0,-9.33919 0.95928,-10.29808 10.317199,-10.29808 H 27.37437 l 4.2354,-4.23333 h 21.498949 c 9.357921,0 10.317202,0.95889 10.317202,10.29808 v -0.52917 c 0,-9.33919 -0.959281,-10.29808 -10.317202,-10.29808 z" style="opacity:0.4;fill:url(#radialGradient1363)"/>
  <path d="M 63.425921,273.12695 46.49258,290.06028 h 6.616139 c 9.357921,0 10.317202,-0.95888 10.317202,-10.29808 z" style="opacity:0.1;fill:#ffffff"/>
  <path d="m 4.1592496,279.7622 v 0.52917 c 0,9.33919 0.95928,10.29808 10.3171994,10.29808 h 38.63227 c 9.357921,0 10.317202,-0.95889 10.317202,-10.29808 v -0.52917 c 0,9.3392 -0.959281,10.29808 -10.317202,10.29808 h -38.63227 c -9.3579198,0 -10.3171994,-0.95888 -10.3171994,-10.29808 z" style="opacity:0.2;fill:#491706"/>
  <path d="m 31.234019,269.71696 q 0,1.72134 0.727713,2.71498 0.741707,0.99359 2.001225,0.99359 1.245511,0 1.987224,-0.99359 0.741713,-1.00765 0.741713,-2.71498 0,-1.69332 -0.755708,-2.67295 -0.741713,-0.99364 -2.001219,-0.99364 -1.231528,0 -1.973235,0.99364 -0.727713,0.97963 -0.727713,2.67295 z m 5.737764,4.21236 q -0.419842,0.99365 -1.357469,1.55343 -0.923638,0.54566 -2.169161,0.54566 -2.40706,0 -3.91847,-1.73535 -1.497415,-1.74931 -1.497415,-4.54819 0,-2.79894 1.511404,-4.54825 1.511416,-1.74931 3.904481,-1.74931 1.245523,0 2.169161,0.55991 0.937633,0.5599 1.357469,1.55337 v -1.83327 h 2.924863 v 9.69821 q 1.735326,-0.266 2.728938,-1.66536 0.993612,-1.41342 0.993612,-3.61059 0,-1.39947 -0.405829,-2.61696 -0.405828,-1.23156 -1.231516,-2.25316 -1.329491,-1.70733 -3.33071,-2.63097 -1.987224,-0.92364 -4.310315,-0.92364 -1.623374,0 -3.106789,0.43403 -1.483427,0.41978 -2.742932,1.24551 -2.071193,1.37151 -3.232747,3.55461 -1.147554,2.16915 -1.147554,4.70221 0,2.08513 0.741713,3.91845 0.755708,1.81932 2.169156,3.21873 1.399458,1.3715 3.204757,2.08519 1.819282,0.7277 3.876486,0.7277 1.763309,0 3.526624,-0.65776 1.763315,-0.65769 3.008825,-1.77727 l 1.497422,2.26712 q -1.74932,1.35749 -3.820513,2.07118 -2.057198,0.7277 -4.184369,0.7277 -2.58899,0 -4.884098,-0.92364 -2.295108,-0.90962 -4.086412,-2.65893 -1.791304,-1.74931 -2.728938,-4.04445 -0.937633,-2.30904 -0.937633,-4.95402 0,-2.54702 0.951628,-4.85611 0.951634,-2.3091 2.714943,-4.05847 1.763315,-1.73529 4.100401,-2.6869 2.351092,-0.95166 4.870109,-0.95166 3.134778,0 5.695779,1.20353 2.561002,1.18952 4.282332,3.44263 1.049591,1.3715 1.581384,2.98086 0.545776,1.59535 0.545776,3.35867 0,3.79253 -2.281107,5.89173 -2.281113,2.09921 -6.437493,2.09921 H 36.9718 Z" style="fill:#bae8d5"/>
 </g>
</svg>
