<svg xmlns="http://www.w3.org/2000/svg" xmlns:xlink="http://www.w3.org/1999/xlink" width="256" height="256" version="1.1" viewBox="0 0 67.73 67.73">
 <defs>
  <!-- drop shadow -->
  <filter id="drop_shadow" width="1.024" height="1.024" x="-.01" y="-.01" style="color-interpolation-filters:sRGB">
   <feGaussianBlur id="feGaussianBlur1304" stdDeviation="2.08"/>
  </filter>

  <!-- primary shadow -->
  <clipPath id="primary_shadow_clip" clipPathUnits="userSpaceOnUse">
   <path style="fill:#c2655b" d="M 192,-164 H 88 c 0,0 -40,0 -40,40 V 4 h 416 v -96 c 0,0 0,-40 -40,-40 H 224 Z"/>
  </clipPath>
  <filter id="primary_shadow" width="1.217" height="1.269" x="-.11" y="-.13" style="color-interpolation-filters:sRGB">
   <feGaussianBlur id="feGaussianBlur1531" stdDeviation="18.8"/>
  </filter>
 </defs>

 <path id="drop_shadow"        fill="#000"    filter="url(#drop_shadow)"    opacity="0.2" d="m 88.000104,-162.00003 c 0,0 -40,0 -40,40 l -0.0352,127.9999949 h 0.0332 l -0.0332,248.0938051 376.035156,-0.0938 c 40,0 40,-40 40,-40 v -208.0000051 -47.9999979 -48 c 0,0 0,-39.999997 -40,-39.999997 h -200 l -32,-32 z" transform="matrix(0.14247782,0,0,0.14247782,-2.5508762,25.5245134)"/>
 <path id="secondary"          fill="#7f372f" filter="none"                 opacity="1.0" d="m 24.80488,2.1581434 h -14.8176929 c 0,0 -5.6991133,0 -5.6991133,5.69911 v 18.23717 h 59.2707722 v -13.67788 c 0,0 0,-5.69911 -5.699113,-5.69911 h -28.495563 z"/>
 <path id="primary_shadow"     fill="#000"    filter="url(#primary_shadow)" opacity="0.1" clip-path="url(#primary_shadow_clip)" d="m 256,-80 -32,32 h -136 c 0,0 -40,0 -40,40 v 264 h 376 c 40,0 40,-40 40,-40 v -256 c 0,-40 -40,-40 -40,-40 z" transform="matrix(0.14247782,0,0,0.14247782,-2.5508622,25.5245034)"/>
 <path id="primary"            fill="#c2655b" filter="none"                 opacity="1.0" d="m 33.923459,13.5563734 -4.559289,4.55929 h -19.3769829 c 0,0 -5.6991133,0 -5.6991133,5.69911 v 37.61414 h 53.5716592 c 5.699113,0 5.699113,-5.69911 5.699113,-5.69911 v -36.47432 c 0,-5.69911 -5.699113,-5.69911 -5.699113,-5.69911 z"/>
 <path id="highlighing_shadow" fill="#000"    filter="none"                 opacity="0.2" d="m 63.558846,54.8749434 c 0,0 0,5.69911 -5.699113,5.69911 l -53.5713812,0.0134 -5.69e-4,0.85487 53.5719372,-0.0134 c 5.699113,0 5.699113,-5.69911 5.699113,-5.69911 z"/>
 <path id="highlighting"       fill="#ffffff" filter="none"                 opacity="0.3" d="m 33.923459,13.5563734 -4.559289,4.55929 h -19.3769829 c 0,0 -5.6991133,0 -5.6991133,5.69911 v 0.56991 c 0,-5.69911 5.6991133,-5.69911 5.6991133,-5.69911 h 19.6036609 l 4.559293,-4.55929 h 23.709592 c 0,0 5.699113,0 5.699113,5.69911 v -0.56991 c 0,-5.69911 -5.699113,-5.69911 -5.699113,-5.69911 z"/>
 <path id="gnome"              fill="#edd3d0" d="m 42.89604904,24.40697093 c -5.5941503,0 -6.64676216,7.5591518 -3.49610772,7.5591518 3.14460714,0 9.09365965,-7.5591518 3.49610772,-7.5591518 z m -8.5970233,1.88978793 c -0.08882,0 -0.18708929,0.00945 -0.28535786,0.0189 -3.20319057,0.38551714 -2.07876679,5.55408679 -0.37228857,5.65046601 1.64978486,0.0944893 3.45642215,-5.65424558 0.65953571,-5.66936387 z m -5.83944479,1.88978793 c -0.22866429,-0.00945 -0.48378572,0.0207857 -0.76536408,0.0925993 -2.99720372,0.75780493 -0.45543928,3.88729379 1.22269279,3.67563757 1.52316907,-0.19086857 1.74427429,-3.67941714 -0.45732871,-3.76823687 z m -4.17832115,3.77957594 c -0.26835,-0.00378 -0.55937715,0.0548 -0.86741265,0.19842785 -2.4642835,1.16410936 0.83150665,3.97233429 2.28097401,3.53768301 1.26804771,-0.38173715 0.45921857,-3.69264565 -1.41356136,-3.73611086 z m 11.4936903,1.88978793 c -4.41076508,-0.0699214 -10.22753237,2.01262414 -11.2215608,6.19661472 -1.07339958,4.52982172 4.42777315,10.8114768 10.1613898,10.8114768 2.82145336,0 6.07604615,-1.26804772 6.68455793,-4.30682672 0.46299786,-2.31688 -5.8417125,-1.319072 -5.6281665,0.21354643 0.25512143,1.83876372 -1.06395065,1.54584657 -2.71751508,0.36094928 -4.85675501,-3.82682057 8.71230044,-5.65235572 7.79197365,-10.80580751 -0.28535785,-1.60442993 -2.42459793,-2.42459793 -5.070679,-2.46617322 z"/>
</svg>
