<svg xmlns="http://www.w3.org/2000/svg" xmlns:xlink="http://www.w3.org/1999/xlink" width="256" height="256" version="1.1" viewBox="0 0 67.73 67.73">
 <defs>
  <filter style="color-interpolation-filters:sRGB" id="filter1344" width="1.023" height="1.025" x="-.01" y="-.01">
   <feGaussianBlur stdDeviation="1.06"/>
  </filter>
  <filter style="color-interpolation-filters:sRGB" id="filter959" width="1.023" height="1.025" x="-.01" y="-.01">
   <feGaussianBlur stdDeviation="1.06"/>
  </filter>
  <linearGradient id="linearGradient1057" x1="264" x2="48" y1="252" y2="52" gradientTransform="matrix(0.26458333,0,0,0.26458333,-6.4240833,221.79779)" gradientUnits="userSpaceOnUse">
   <stop offset="0" style="stop-color:#000000"/>
   <stop offset=".159" style="stop-color:#000000;stop-opacity:.43290043"/>
   <stop offset=".194" style="stop-color:#000000;stop-opacity:.0995671"/>
   <stop offset="1" style="stop-color:#000000;stop-opacity:0"/>
  </linearGradient>
  <clipPath id="clipPath977">
   <path style="fill:#f6531e" d="M 78.994141,52 C 43.625611,52 40,53.999146 40,89.296875 V 140 H 264 V 108.92188 C 264,73.624145 260.37439,68 225.00586,68 H 138 L 122,52 Z"/>
  </clipPath>
  <filter style="color-interpolation-filters:sRGB" id="filter989" width="1.107" height="1.136" x="-.05" y="-.07">
   <feGaussianBlur stdDeviation="5"/>
  </filter>
  <linearGradient id="linearGradient4226" x1="224" x2="224" y1="86" y2="478" gradientTransform="matrix(0.11988932,0,0,0.11988932,3.1009196,233.76191)" gradientUnits="userSpaceOnUse">
   <stop offset="0" style="stop-color:			#37a6e6"/>
   <stop offset="1" style="stop-color:#6dc7f1"/>
  </linearGradient>
  <radialGradient id="radialGradient1371" cx="152" cy="-.126" r="112" gradientTransform="matrix(0.26458333,0,0,0.06959709,-6.4240801,237.68155)" gradientUnits="userSpaceOnUse" xlink:href="#linearGradient1361"/>
  <linearGradient id="linearGradient1361">
   <stop offset="0" style="stop-color:#ffffff"/>
   <stop offset="1" style="stop-color:#ffffff;stop-opacity:.20392157"/>
  </linearGradient>
  <radialGradient id="radialGradient1363" cx="148" cy="39.684" r="112" gradientTransform="matrix(0.26458333,0,0,0.06723474,-6.4240801,244.52967)" gradientUnits="userSpaceOnUse" xlink:href="#linearGradient1361"/>
 </defs>
 <g transform="translate(0,-229.26666)">
  <path d="M 51.714141,15.228801 C 16.345611,15.228801 12.72,17.227947 12.72,52.525676 V 176.30692 c 0,35.29774 3.625611,38.92188 38.994141,38.92188 H 197.72586 c 35.36853,0 38.99414,-3.62414 38.99414,-38.92188 V 72.150676 c 0,-35.29774 -3.62561,-40.92188 -38.99414,-40.92188 H 110.72 l -15.999999,-16 z" transform="matrix(0.26458333,0,0,0.26458333,0.79374998,232.056)" style="opacity:0.1;filter:url(#filter1344)"/>
  <path d="M 51.714141,14.228801 C 16.345611,14.228801 12.72,16.227947 12.72,51.525676 V 183.30692 c 0,35.29774 3.625611,38.92188 38.994141,38.92188 H 197.72586 c 35.36853,0 38.99414,-3.62414 38.99414,-38.92188 V 71.150676 c 0,-35.297735 -3.62561,-40.92188 -38.99414,-40.92188 H 110.72 l -15.999999,-16 z" transform="matrix(0.26458333,0,0,0.26458333,0.79374998,232.056)" style="opacity:0.1;filter:url(#filter959)"/>
  <path d="m 14.47645,235.55612 c -9.3579238,0 -10.3172001,0.52894 -10.3172001,9.86813 v 34.86712 c 0,9.3392 0.9592763,10.29808 10.3172001,10.29808 h 38.632266 c 9.357924,0 10.3172,-0.95888 10.3172,-10.29808 V 250.6167 c 0,-9.33919 -0.959276,-10.82725 -10.3172,-10.82725 h -23.0203 l -4.233333,-4.23333 z" style="opacity:0.4;fill:url(#linearGradient1057);filter:url(#filter1067)"/>
  <path d="m 14.476449,235.55612 c -9.3579194,0 -10.317199,0.52894 -10.317199,9.86813 v 13.4152 h 59.266671 v -8.22275 c 0,-9.33919 -0.959281,-10.82725 -10.317202,-10.82725 H 30.088418 l -4.233339,-4.23333 z" style="fill:#1a7fd4"/>
  <path d="M 78.99353,92 C 43.625,92 40,95.625 40,130.92273 v 82.15454 C 40,248.375 43.625,252 78.99353,252 H 225.00647 C 260.375,252 264,248.375 264,213.07727 V 114.92273 C 264,79.625 260.375,76 225.00647,76 H 143.75 l -16.00782,16 z" clip-path="url(#clipPath977)" transform="matrix(0.26458333,0,0,0.26458333,-6.4240801,223.91445)" style="opacity:0.5;fill:#135c9a;filter:url(#filter989)"/>
  <path d="m 14.476289,248.25612 c -9.3579192,0 -10.317039,0.95911 -10.317039,10.2983 v 21.73672 c 0,9.3392 0.9591202,10.29831 10.317039,10.29831 H 53.10888 c 9.357919,0 10.317041,-0.95911 10.317041,-10.29831 v -25.97005 c 0,-9.33919 -0.959122,-10.29831 -10.317041,-10.29831 H 31.60977 l -4.2354,4.23334 z" style="fill:url(#linearGradient4226)"/>
  <path d="m 14.476449,235.55612 c -9.3579194,0 -10.317199,0.52894 -10.317199,9.86813 v 0.52916 c 0,-9.33919 0.95928,-9.86813 10.317199,-9.86813 h 11.37863 l 4.233339,4.23334 h 23.020301 c 9.357921,0 10.317202,1.48805 10.317202,10.82724 v -0.52916 c 0,-9.3392 -0.959281,-10.82725 -10.317202,-10.82725 H 30.088418 l -4.233339,-4.23333 z" style="opacity:0.4;fill:url(#radialGradient1371)"/>
  <path d="m 31.60977,244.02278 -4.2354,4.23334 H 14.476449 c -9.3579194,0 -10.317199,0.95889 -10.317199,10.29808 v 0.52916 c 0,-9.33919 0.95928,-10.29808 10.317199,-10.29808 H 27.37437 l 4.2354,-4.23333 h 21.498949 c 9.357921,0 10.317202,0.95889 10.317202,10.29808 v -0.52917 c 0,-9.33919 -0.959281,-10.29808 -10.317202,-10.29808 z" style="opacity:0.4;fill:url(#radialGradient1363)"/>
  <path d="M 63.425921,273.12695 46.49258,290.06028 h 6.616139 c 9.357921,0 10.317202,-0.95888 10.317202,-10.29808 z" style="opacity:0.1;fill:#ffffff"/>
  <path d="m 4.1592496,279.7622 v 0.52917 c 0,9.33919 0.95928,10.29808 10.3171994,10.29808 h 38.63227 c 9.357921,0 10.317202,-0.95889 10.317202,-10.29808 v -0.52917 c 0,9.3392 -0.959281,10.29808 -10.317202,10.29808 h -38.63227 c -9.3579198,0 -10.3171994,-0.95888 -10.3171994,-10.29808 z" style="opacity:0.2;fill:#491706"/>
  <path style="fill:#c6e9f7" d="m 36.441597,256.92206 c -0.0469,-0.0119 -0.09725,-0.0119 -0.144217,0.0119 -0.09393,0.0416 -0.147186,0.14487 -0.125811,0.24521 0.0031,0.0119 0.296627,1.44116 -0.515417,2.91159 -0.334507,0.60762 -1.069342,1.12227 -1.920589,1.72116 -1.220915,0.85895 -2.605794,1.83468 -3.347225,3.44541 -1.287781,2.81018 2.633438,5.87501 2.801107,6.00415 0.03919,0.0297 0.08544,0.0475 0.131927,0.0475 0.04928,0 0.100993,-0.0178 0.14107,-0.0534 0.0779,-0.0653 0.09898,-0.17693 0.05225,-0.26659 -0.01425,-0.0297 -1.420657,-2.7619 -1.368332,-4.72477 0.01841,-0.68368 0.972499,-1.45844 1.985009,-2.27957 0.927369,-0.75201 1.980502,-1.60455 2.595564,-2.60166 1.350223,-2.19484 -0.150332,-4.35346 -0.165651,-4.37501 -0.02969,-0.0416 -0.07291,-0.0701 -0.119695,-0.0825 z m 2.380782,5.47946 c -0.0475,-0.0178 -0.09992,-0.0178 -0.150332,0.003 -0.20739,0.079 -5.080665,1.95503 -5.080665,4.22468 0,1.56459 0.668812,2.39083 1.15665,2.99441 0.191359,0.2369 0.356653,0.44233 0.411098,0.61665 0.153301,0.50289 -0.209349,1.41331 -0.362056,1.72116 -0.04394,0.0885 -0.02256,0.19593 0.05225,0.26065 0.04037,0.0356 0.09066,0.0534 0.14107,0.0534 0.04275,0 0.08532,-0.0119 0.122664,-0.0416 0.08372,-0.0594 2.04874,-1.44715 1.696623,-3.12016 -0.131155,-0.63595 -0.445356,-1.09947 -0.720977,-1.5095 -0.42701,-0.63523 -0.734788,-1.0946 -0.266941,-1.94203 0.54819,-0.9885 3.030637,-2.86516 3.05577,-2.88398 0.08609,-0.0647 0.110433,-0.18465 0.05819,-0.27905 -0.02612,-0.0475 -0.06596,-0.0807 -0.11358,-0.098 z m 2.721334,8.43713 c -0.946001,0 -1.842912,0.4738 -1.880691,0.49398 -0.08752,0.0475 -0.131332,0.14606 -0.107465,0.24225 0.02375,0.0962 0.109306,0.16565 0.208637,0.16565 0.02019,0 2.018845,0.0119 2.199778,1.15664 0.160307,0.98506 -1.890059,2.58207 -2.693725,3.11405 -0.08686,0.0594 -0.119993,0.16803 -0.0798,0.26362 0.03444,0.0819 0.113699,0.1318 0.199433,0.1318 0.01544,0 0.03087,1.2e-4 0.04631,-0.003 0.190706,-0.0416 4.664045,-1.02935 4.190915,-3.63558 -0.288612,-1.59731 -1.292264,-1.9298 -2.083188,-1.9298 z m -10.958993,0.35268 c -0.670997,0 -4.03553,0.0534 -4.387284,1.11674 -0.08354,0.24996 -0.04453,0.49873 0.11358,0.71794 0.528063,0.73343 2.399099,1.13824 5.267796,1.13824 0.388715,0 0.797687,-0.006 1.218012,-0.0238 4.58654,-0.16446 6.289842,-1.59601 6.360027,-1.65674 0.07647,-0.0665 0.0966,-0.17456 0.04928,-0.26362 -0.0475,-0.0891 -0.15051,-0.13418 -0.248476,-0.10746 -1.615329,0.44114 -4.632993,0.59824 -6.725116,0.59824 -2.341027,0 -3.530884,-0.16981 -3.822779,-0.29449 0.149679,-0.20543 1.07351,-0.57236 2.21819,-0.79768 0.109484,-0.0238 0.182631,-0.12231 0.171825,-0.23333 -0.01128,-0.11103 -0.10319,-0.19653 -0.214751,-0.19653 z m -1.015514,3.06803 c -1.076319,0.26006 -1.602986,0.62324 -1.564702,1.07994 0.06804,0.80978 1.943133,1.22474 3.528241,1.33458 0.227933,0.0178 0.475161,0.0238 0.73325,0.0238 2.635759,0 6.016411,-0.82914 6.050165,-0.83757 0.08247,-0.0178 0.14386,-0.0849 0.159535,-0.16862 0.01544,-0.0831 -0.01959,-0.16922 -0.08888,-0.2179 l -1.07382,-0.75171 c -0.05225,-0.0356 -0.116549,-0.0475 -0.177941,-0.0297 -0.01128,0.003 -1.135269,0.29746 -2.764284,0.47855 -0.646535,0.0724 -1.368771,0.11043 -2.092408,0.11043 -1.628593,0 -2.695109,-0.19118 -2.850197,-0.3313 -0.02078,-0.0416 -0.01247,-0.0594 -0.0095,-0.0677 0.02791,-0.0784 0.178772,-0.17158 0.276144,-0.20839 0.107465,-0.0416 0.165353,-0.15734 0.131927,-0.26718 -0.03325,-0.10984 -0.146117,-0.17397 -0.257679,-0.14725 z m 0.693368,2.77349 c -0.144217,0.003 -1.411549,0.0611 -1.50027,0.86827 -0.02672,0.24105 0.04215,0.46014 0.205549,0.65346 0.454975,0.5391 1.684445,0.85865 3.755271,0.9787 0.244973,0.0119 0.493508,0.0237 0.739395,0.0237 2.632708,0 4.405061,-0.82701 4.479318,-0.86209 0.07196,-0.0356 0.118449,-0.1045 0.122665,-0.18406 0.0047,-0.0796 -0.03325,-0.15496 -0.101172,-0.19653 l -1.356083,-0.82837 c -0.0469,-0.0297 -0.105862,-0.0356 -0.159535,-0.0238 -0.0077,0.002 -0.866726,0.17931 -2.166019,0.35565 -0.245863,0.0356 -0.556087,0.0475 -0.917353,0.0475 -1.297898,0 -2.742073,-0.21078 -3.018935,-0.34971 -0.0047,-0.0237 9.74e-4,-0.0606 0.03978,-0.0891 0.08122,-0.0534 0.117796,-0.15318 0.08888,-0.24521 -0.0285,-0.0926 -0.114531,-0.1514 -0.211724,-0.15021 z m -2.175227,1.8592 c -0.02909,0.005 -0.128008,0.006 -0.242361,0.0178 -1.702405,0.10391 -3.667969,0.33724 -3.770607,1.21495 -0.03087,0.26718 0.04809,0.50942 0.236245,0.72097 0.459784,0.51654 1.781371,1.20266 7.924716,1.20266 6.030436,-0.005 9.267827,-1.07673 9.891332,-1.7518 0.220689,-0.23868 0.242716,-0.46608 0.223954,-0.61362 -0.04631,-0.36336 -0.376661,-0.58661 -0.414185,-0.61053 -0.09048,-0.0594 -0.211664,-0.0416 -0.282259,0.0416 -0.07036,0.0813 -0.07386,0.20068 -0.0031,0.28202 0.038,0.0475 0.06204,0.13121 -0.04928,0.24224 -0.249248,0.23274 -2.763216,0.93815 -6.949089,1.15053 -0.573424,0.0297 -1.176035,0.0475 -1.788657,0.0475 -3.747814,0 -6.490849,-0.51358 -6.85091,-0.81305 0.138874,-0.1995 1.10971,-0.51892 2.14148,-0.69948 0.116253,-0.0178 0.192903,-0.12884 0.174854,-0.24521 -0.01781,-0.11637 -0.124862,-0.19652 -0.242361,-0.18108 z"/>
 </g>
</svg>
