<svg xmlns="http://www.w3.org/2000/svg" xmlns:xlink="http://www.w3.org/1999/xlink" width="256" height="256" version="1.1" viewBox="0 0 67.73 67.73">
 <defs>
  <!-- drop shadow -->
  <filter id="drop_shadow" width="1.024" height="1.024" x="-.01" y="-.01" style="color-interpolation-filters:sRGB">
   <feGaussianBlur id="feGaussianBlur1304" stdDeviation="2.08"/>
  </filter>

  <!-- primary shadow -->
  <clipPath id="primary_shadow_clip" clipPathUnits="userSpaceOnUse">
   <path style="fill:#57e389" d="M 192,-164 H 88 c 0,0 -40,0 -40,40 V 4 h 416 v -96 c 0,0 0,-40 -40,-40 H 224 Z"/>
  </clipPath>
  <filter id="primary_shadow" width="1.217" height="1.269" x="-.11" y="-.13" style="color-interpolation-filters:sRGB">
   <feGaussianBlur id="feGaussianBlur1531" stdDeviation="18.8"/>
  </filter>
 </defs>

 <path id="drop_shadow"        fill="#000"    filter="url(#drop_shadow)"    opacity="0.2" d="m 88.000104,-162.00003 c 0,0 -40,0 -40,40 l -0.0352,127.9999949 h 0.0332 l -0.0332,248.0938051 376.035156,-0.0938 c 40,0 40,-40 40,-40 v -208.0000051 -47.9999979 -48 c 0,0 0,-39.999997 -40,-39.999997 h -200 l -32,-32 z" transform="matrix(0.14247782,0,0,0.14247782,-2.5508762,25.5245134)"/>
 <path id="secondary"          fill="#33d17a" filter="none"                 opacity="1.0" d="m 24.80488,2.1581434 h -14.8176929 c 0,0 -5.6991133,0 -5.6991133,5.69911 v 18.23717 h 59.2707722 v -13.67788 c 0,0 0,-5.69911 -5.699113,-5.69911 h -28.495563 z"/>
 <path id="primary_shadow"     fill="#000"    filter="url(#primary_shadow)" opacity="0.1" clip-path="url(#primary_shadow_clip)" d="m 256,-80 -32,32 h -136 c 0,0 -40,0 -40,40 v 264 h 376 c 40,0 40,-40 40,-40 v -256 c 0,-40 -40,-40 -40,-40 z" transform="matrix(0.14247782,0,0,0.14247782,-2.5508622,25.5245034)"/>
 <path id="primary"            fill="#57e389" filter="none"                 opacity="1.0" d="m 33.923459,13.5563734 -4.559289,4.55929 h -19.3769829 c 0,0 -5.6991133,0 -5.6991133,5.69911 v 37.61414 h 53.5716592 c 5.699113,0 5.699113,-5.69911 5.699113,-5.69911 v -36.47432 c 0,-5.69911 -5.699113,-5.69911 -5.699113,-5.69911 z"/>
 <path id="highlighing_shadow" fill="#000"    filter="none"                 opacity="0.2" d="m 63.558846,54.8749434 c 0,0 0,5.69911 -5.699113,5.69911 l -53.5713812,0.0134 -5.69e-4,0.85487 53.5719372,-0.0134 c 5.699113,0 5.699113,-5.69911 5.699113,-5.69911 z"/>
 <path id="highlighting"       fill="#ffffff" filter="none"                 opacity="0.3" d="m 33.923459,13.5563734 -4.559289,4.55929 h -19.3769829 c 0,0 -5.6991133,0 -5.6991133,5.69911 v 0.56991 c 0,-5.69911 5.6991133,-5.69911 5.6991133,-5.69911 h 19.6036609 l 4.559293,-4.55929 h 23.709592 c 0,0 5.699113,0 5.699113,5.69911 v -0.56991 c 0,-5.69911 -5.699113,-5.69911 -5.699113,-5.69911 z"/>
 <path id="steam"              fill="#2ec27e" d="m 4.287899216,33.18238711 v 8.7003338 l 6.726390054,3.88019081 a 7.534581448,7.534581448 0 0 0 -0.0196359,0.52035689 7.534581448,7.534581448 0 0 0 7.53456954,7.53457086 7.534581448,7.534581448 0 0 0 7.53456981,-7.53457086 7.534581448,7.534581448 0 0 0 -0.0392723,-0.71103271 l 10.99310434,-7.10774223 a 8.790344846,8.790344846 0 0 0 6.62717407,-8.50603865 8.790344846,8.790344846 0 0 0 -8.79024537,-8.79024643 v -5.1697e-4 a 8.790344846,8.790344846 0 0 0 -8.67294442,7.38729992 l -6.22463643,10.33529365 a 7.534581448,7.534581448 0 0 0 -1.42774971,-0.14210336 7.534581448,7.534581448 0 0 0 -3.28129199,0.76012373 z m 30.566654274,-9.50334437 a 6.278817785,6.278817785 0 0 1 6.2783778,6.27889372 6.278817785,6.278817785 0 0 1 -6.2783778,6.27889372 6.278817785,6.278817785 0 0 1 -6.27889372,-6.27889372 6.278817785,6.278817785 0 0 1 6.27889372,-6.27889372 z m 0,2.51135113 a 3.767290724,3.767290724 0 0 0 -3.76754207,3.76754259 3.767290724,3.767290724 0 0 0 3.76754207,3.76702615 3.767290724,3.767290724 0 0 0 3.7670288,-3.76702615 3.767290724,3.767290724 0 0 0 -3.7670288,-3.76754259 z m -16.32533056,15.06913961 a 5.023054122,5.023054122 0 0 1 5.02321869,5.02321921 5.023054122,5.023054122 0 0 1 -5.02321869,5.02321922 5.023054122,5.023054122 0 0 1 -4.9198709,-4.04710029 l 1.77086406,1.02520995 c 1.80745917,1.04356055 4.10214599,0.42929708 5.1456859,-1.37814145 1.04353912,-1.80753113 0.42881662,-4.10214678 -1.37865922,-5.14568616 l -0.84848545,-0.49090228 a 5.023054122,5.023054122 0 0 1 0.23046561,-0.008786 z"/>
</svg>
