<svg xmlns="http://www.w3.org/2000/svg" xmlns:xlink="http://www.w3.org/1999/xlink" width="256" height="256" version="1.1" viewBox="0 0 67.73 67.73">
 <defs>
  <filter style="color-interpolation-filters:sRGB" id="filter1344" width="1.023" height="1.025" x="-.01" y="-.01">
   <feGaussianBlur id="feGaussianBlur2" stdDeviation="1.06"/>
  </filter>
  <filter style="color-interpolation-filters:sRGB" id="filter959" width="1.023" height="1.025" x="-.01" y="-.01">
   <feGaussianBlur id="feGaussianBlur5" stdDeviation="1.06"/>
  </filter>
  <linearGradient id="linearGradient1057" x1="264" x2="48" y1="252" y2="52" gradientTransform="translate(-27.28,-38.771199)" gradientUnits="userSpaceOnUse">
   <stop id="stop8" offset="0" style="stop-color:#000000"/>
   <stop id="stop10" offset=".159" style="stop-color:#000000;stop-opacity:0.43290043"/>
   <stop id="stop12" offset=".194" style="stop-color:#000000;stop-opacity:0.0995671"/>
   <stop id="stop14" offset="1" style="stop-color:#000000;stop-opacity:0"/>
  </linearGradient>
  <clipPath id="clipPath977">
   <path d="M 78.994141,52 C 43.625611,52 40,53.999146 40,89.296875 V 140 H 264 V 108.92188 C 264,73.624145 260.37439,68 225.00586,68 H 138 L 122,52 Z" style="fill:#f6531e"/>
  </clipPath>
  <filter style="color-interpolation-filters:sRGB" id="filter989" width="1.107" height="1.136" x="-.05" y="-.07">
   <feGaussianBlur id="feGaussianBlur20" stdDeviation="5"/>
  </filter>
  <linearGradient id="linearGradient4226" x1="224" x2="224" y1="86" y2="478" gradientTransform="matrix(.11988932 0 0 .11988932 3.1009196 232.21778)" gradientUnits="userSpaceOnUse">
   <stop id="stop23" offset="0" style="stop-color:#fb7c38"/>
   <stop id="stop25" offset="1" style="stop-color:#fda463"/>
  </linearGradient>
  <radialGradient id="radialGradient1371" cx="152" cy="-.126" r="112" gradientTransform="matrix(.26458333 0 0 .06959709 -6.4240801 236.13742)" gradientUnits="userSpaceOnUse" xlink:href="#linearGradient1361"/>
  <linearGradient id="linearGradient1361">
   <stop id="stop29" offset="0" style="stop-color:#ffffff"/>
   <stop id="stop31" offset="1" style="stop-color:#ffffff;stop-opacity:0.20392157"/>
  </linearGradient>
  <radialGradient id="radialGradient1363" cx="148" cy="39.684" r="112" gradientTransform="matrix(.26458333 0 0 .06723474 -6.4240801 242.98554)" gradientUnits="userSpaceOnUse" xlink:href="#linearGradient1361"/>
  <filter id="filter1302" width="1.024" height="1.024" x="-.01" y="-.01" style="color-interpolation-filters:sRGB">
   <feGaussianBlur id="feGaussianBlur1304" stdDeviation="2.08"/>
  </filter>
  <clipPath id="clipPath1509-3" clipPathUnits="userSpaceOnUse">
   <path style="fill:#c9b8a7" d="M 192,-164 H 88 c 0,0 -40,0 -40,40 V 4 h 416 v -96 c 0,0 0,-40 -40,-40 H 224 Z"/>
  </clipPath>
  <filter id="filter1529" width="1.217" height="1.269" x="-.11" y="-.13" style="color-interpolation-filters:sRGB">
   <feGaussianBlur id="feGaussianBlur1531" stdDeviation="18.8"/>
  </filter>
 </defs>
 <path style="opacity:0.2;filter:url(#filter1302)" id="drop_shadow" d="m 88.000104,-162.00003 c 0,0 -40,0 -40,40 l -0.0352,127.9999949 h 0.0332 l -0.0332,248.0938051 376.035156,-0.0938 c 40,0 40,-40 40,-40 v -208.0000051 -47.9999979 -48 c 0,0 0,-39.999997 -40,-39.999997 h -200 l -32,-32 z" transform="matrix(0.14247782,0,0,0.14247782,-2.5508762,25.5245134)"/>
 <path id="secondary" d="m 24.80488,2.1581434 h -14.8176929 c 0,0 -5.6991133,0 -5.6991133,5.69911 v 18.23717 h 59.2707722 v -13.67788 c 0,0 0,-5.69911 -5.699113,-5.69911 h -28.495563 z" style="fill:#a89888"/>
 <path style="opacity:0.1;filter:url(#filter1529)" id="primary_shadow" d="m 256,-80 -32,32 h -136 c 0,0 -40,0 -40,40 v 264 h 376 c 40,0 40,-40 40,-40 v -256 c 0,-40 -40,-40 -40,-40 z" clip-path="url(#clipPath1509-3)" transform="matrix(0.14247782,0,0,0.14247782,-2.5508622,25.5245034)"/>
 <path id="primary" d="m 33.923459,13.5563734 -4.559289,4.55929 h -19.3769829 c 0,0 -5.6991133,0 -5.6991133,5.69911 v 37.61414 h 53.5716592 c 5.699113,0 5.699113,-5.69911 5.699113,-5.69911 v -36.47432 c 0,-5.69911 -5.699113,-5.69911 -5.699113,-5.69911 z" style="fill:#c9b8a7"/>
 <path id="highlighing_shadow" d="m 63.558846,54.8749434 c 0,0 0,5.69911 -5.699113,5.69911 l -53.5713812,0.0134 -5.69e-4,0.85487 53.5719372,-0.0134 c 5.699113,0 5.699113,-5.69911 5.699113,-5.69911 z" style="opacity:0.2"/>
 <path id="highlighting" d="m 33.923459,13.5563734 -4.559289,4.55929 h -19.3769829 c 0,0 -5.6991133,0 -5.6991133,5.69911 v 0.56991 c 0,-5.69911 5.6991133,-5.69911 5.6991133,-5.69911 h 19.6036609 l 4.559293,-4.55929 h 23.709592 c 0,0 5.699113,0 5.699113,5.69911 v -0.56991 c 0,-5.69911 -5.699113,-5.69911 -5.699113,-5.69911 z" style="opacity:0.3;fill:#ffffff"/>
</svg>
