<svg xmlns="http://www.w3.org/2000/svg" width="256" height="256" version="1.1" viewBox="0 0 67.73 67.73">
 <defs>
  <filter id="drop_shadow" width="1.023" height="1.025" x="-.01" y="-.01" style="color-interpolation-filters:sRGB">
   <feGaussianBlur id="feGaussianBlur1837" stdDeviation="2.16"/>
  </filter>
 </defs>
 <path id="drop_shadow"         filter="url(#drop_shadow)" fill="#000"    opacity="0.2"  d="m 2024.0547,-770.01562 c 0,0 -40,0 -40,40 v 143.30468 c -8.5017,5.56897 -16,15.37992 -16,32.69532 l 16,200 h 376 c 40,0 40,-40 40,-40 l 16,-192 c 0,-17.3154 -7.4983,-27.12635 -16,-32.69532 v -79.30468 c 0,0 0,-40 -40,-40 h -200 l -32,-32 z" transform="matrix(0.13275614,0,0,0.13275614,-257.01144,108.7481334)"/>
 <path id="secondary"           filter="none"              fill="#579140" opacity="1.0"  d="m 25.500824,6.2582134 h -13.806628 c 0,0 -5.3102442,0 -5.3102442,5.31024 v 21.24098 h 55.2265392 v -16.99278 c 0,0 0,-5.31025 -5.310243,-5.31025 h -26.551219 z"/>
 <rect id="paper"               filter="none"              fill="#f6f5f4" opacity="1.0"  width="46.09" height="33.734" x="10.56" y="16.84" ry="1.919"/>
 <path id="primary"             filter="none"              fill="#7aaf65" opacity="1.0"  d="m 33.997209,25.3750934 -4.24818,4.2482 h -20.1789362 c 0,0 -5.310244,0 -5.310244,5.31024 l 2.124103,26.55123 h 49.9162962 c 5.310243,0 5.310243,-5.31024 5.310243,-5.31024 l 2.124103,-25.48918 c 0,-5.31025 -5.310243,-5.31025 -5.310243,-5.31025 z"/>
 <path id="highlighting_shadow" filter="none"              fill="#000"    opacity="0.2"  d="m 61.610571,55.3780834 c 0,0 0,5.31025 -5.310244,5.31025 h -49.9163222 v 0.79654 h 49.9163222 c 5.310244,0 5.310244,-5.31025 5.310244,-5.31025 z"/>
 <path id="highlighting"        filter="none"              fill="#fff"    opacity="0.3"  d="m 33.997288,25.3751934 -4.248206,4.2482 h -20.1789362 c 0,0 -5.310244,0 -5.310244,5.31024 l 0.01085,0.13795 c 0.255893,-4.91633 5.299344,-4.91716 5.299344,-4.91716 h 20.1789362 l 4.248206,-4.2482 h 24.427116 c 0,0 5.040752,7.9e-4 5.299105,4.91327 l 0.01111,-0.13405 c 0,-5.31025 -5.31027,-5.31025 -5.31027,-5.31025 z"/>
 <path id="remote"                                         fill="#d0e3c9" d="m 32.90292615,37.56898437 c -3.22390953,0.61572727 -5.11342258,2.75922786 -5.7724432,5.77244319 h -3.84829545 v 3.84829546 h 3.84829545 c 0.65902062,3.01225327 2.54949574,5.15671589 5.7724432,5.77244316 z m 1.9241477,0 v 15.39318181 c 3.22294746,-0.61572727 5.11342258,-2.76018989 5.7724432,-5.77244316 h 3.84829545 v -3.84829546 h -3.84829545 c -0.65902062,-3.01321533 -2.54853367,-5.15671592 -5.7724432,-5.77244319 z"/>
</svg>