<svg xmlns="http://www.w3.org/2000/svg" xmlns:xlink="http://www.w3.org/1999/xlink" width="256" height="256" version="1.1" viewBox="0 0 67.73 67.73">
 <defs>
  <filter style="color-interpolation-filters:sRGB" id="filter1344" width="1.023" height="1.025" x="-.01" y="-.01">
   <feGaussianBlur stdDeviation="1.06"/>
  </filter>
  <filter style="color-interpolation-filters:sRGB" id="filter959" width="1.023" height="1.025" x="-.01" y="-.01">
   <feGaussianBlur stdDeviation="1.06"/>
  </filter>
  <linearGradient id="linearGradient1057" x1="264" x2="48" y1="252" y2="52" gradientTransform="translate(-27.28,-38.771199)" gradientUnits="userSpaceOnUse">
   <stop offset="0" style="stop-color:#000000"/>
   <stop offset=".159" style="stop-color:#000000;stop-opacity:.43290043"/>
   <stop offset=".194" style="stop-color:#000000;stop-opacity:.0995671"/>
   <stop offset="1" style="stop-color:#000000;stop-opacity:0"/>
  </linearGradient>
  <clipPath id="clipPath977">
   <path style="fill:#f6531e" d="M 78.994141,52 C 43.625611,52 40,53.999146 40,89.296875 V 140 H 264 V 108.92188 C 264,73.624145 260.37439,68 225.00586,68 H 138 L 122,52 Z"/>
  </clipPath>
  <filter style="color-interpolation-filters:sRGB" id="filter989" width="1.107" height="1.136" x="-.05" y="-.07">
   <feGaussianBlur stdDeviation="5"/>
  </filter>
  <linearGradient id="linearGradient4226" x1="224" x2="224" y1="86" y2="478" gradientTransform="matrix(0.11988932,0,0,0.11988932,3.1009196,232.21778)" gradientUnits="userSpaceOnUse">
   <stop offset="0" style="stop-color:		#8f76e4"/>
   <stop offset="1" style="stop-color:#a7a7f1"/>
  </linearGradient>
  <radialGradient id="radialGradient1371" cx="152" cy="-.126" r="112" gradientTransform="matrix(0.26458333,0,0,0.06959709,-6.4240801,236.13742)" gradientUnits="userSpaceOnUse" xlink:href="#linearGradient1361"/>
  <linearGradient id="linearGradient1361">
   <stop offset="0" style="stop-color:#ffffff"/>
   <stop offset="1" style="stop-color:#ffffff;stop-opacity:.20392157"/>
  </linearGradient>
  <radialGradient id="radialGradient1363" cx="148" cy="39.684" r="112" gradientTransform="matrix(0.26458333,0,0,0.06723474,-6.4240801,242.98554)" gradientUnits="userSpaceOnUse" xlink:href="#linearGradient1361"/>
 </defs>
 <g transform="translate(0,-227.72253)">
  <path d="M 51.714141,15.228801 C 16.345611,15.228801 12.72,17.227947 12.72,52.525676 V 176.30692 c 0,35.29774 3.625611,38.92188 38.994141,38.92188 H 197.72586 c 35.36853,0 38.99414,-3.62414 38.99414,-38.92188 V 72.150676 c 0,-35.29774 -3.62561,-40.92188 -38.99414,-40.92188 H 110.72 l -15.999999,-16 z" transform="matrix(0.26458333,0,0,0.26458333,0.79374998,230.51187)" style="opacity:0.1;filter:url(#filter1344)"/>
  <path d="M 51.714141,14.228801 C 16.345611,14.228801 12.72,16.227947 12.72,51.525676 V 183.30692 c 0,35.29774 3.625611,38.92188 38.994141,38.92188 H 197.72586 c 35.36853,0 38.99414,-3.62414 38.99414,-38.92188 V 71.150676 c 0,-35.297735 -3.62561,-40.92188 -38.99414,-40.92188 H 110.72 l -15.999999,-16 z" transform="matrix(0.26458333,0,0,0.26458333,0.79374998,230.51187)" style="opacity:0.1;filter:url(#filter959)"/>
  <path d="M 51.714141,13.228801 C 16.345611,13.228801 12.72,15.227947 12.72,50.525676 V 182.30692 c 0,35.29774 3.625611,38.92188 38.994141,38.92188 H 197.72586 c 35.36853,0 38.99414,-3.62414 38.99414,-38.92188 V 70.150676 c 0,-35.29774 -3.62561,-40.92188 -38.99414,-40.92188 H 110.72 l -15.999999,-16 z" transform="matrix(0.26458333,0,0,0.26458333,0.79374998,230.51187)" style="opacity:0.4;fill:url(#linearGradient1057);filter:url(#filter1067)"/>
  <path d="m 14.476449,234.01199 c -9.3579194,0 -10.317199,0.52894 -10.317199,9.86813 v 13.4152 h 59.266671 v -8.22275 c 0,-9.33919 -0.959281,-10.82725 -10.317202,-10.82725 H 30.088418 l -4.233339,-4.23333 z" style="fill:#8c59d0"/>
  <path d="M 78.99353,92 C 43.625,92 40,95.625 40,130.92273 v 82.15454 C 40,248.375 43.625,252 78.99353,252 H 225.00647 C 260.375,252 264,248.375 264,213.07727 V 114.92273 C 264,79.625 260.375,76 225.00647,76 H 143.75 l -16.00782,16 z" clip-path="url(#clipPath977)" transform="matrix(0.26458333,0,0,0.26458333,-6.4240801,222.37032)" style="opacity:0.5;fill:#642f99;filter:url(#filter989)"/>
  <path d="m 14.476289,246.71199 c -9.3579192,0 -10.317039,0.95911 -10.317039,10.2983 v 21.73672 c 0,9.3392 0.9591202,10.29831 10.317039,10.29831 H 53.10888 c 9.357919,0 10.317041,-0.95911 10.317041,-10.29831 v -25.97005 c 0,-9.33919 -0.959122,-10.29831 -10.317041,-10.29831 H 31.60977 l -4.2354,4.23334 z" style="fill:url(#linearGradient4226)"/>
  <path d="m 14.476449,234.01199 c -9.3579194,0 -10.317199,0.52894 -10.317199,9.86813 v 0.52916 c 0,-9.33919 0.95928,-9.86813 10.317199,-9.86813 h 11.37863 l 4.233339,4.23334 h 23.020301 c 9.357921,0 10.317202,1.48805 10.317202,10.82724 v -0.52916 c 0,-9.3392 -0.959281,-10.82725 -10.317202,-10.82725 H 30.088418 l -4.233339,-4.23333 z" style="opacity:0.4;fill:url(#radialGradient1371)"/>
  <path d="m 31.60977,242.47865 -4.2354,4.23334 H 14.476449 c -9.3579194,0 -10.317199,0.95889 -10.317199,10.29808 v 0.52916 c 0,-9.33919 0.95928,-10.29808 10.317199,-10.29808 H 27.37437 l 4.2354,-4.23333 h 21.498949 c 9.357921,0 10.317202,0.95889 10.317202,10.29808 v -0.52917 c 0,-9.33919 -0.959281,-10.29808 -10.317202,-10.29808 z" style="opacity:0.4;fill:url(#radialGradient1363)"/>
  <path d="M 63.425921,271.58282 46.49258,288.51615 h 6.616139 c 9.357921,0 10.317202,-0.95888 10.317202,-10.29808 z" style="opacity:0.1;fill:#ffffff"/>
  <path d="m 4.1592496,278.21807 v 0.52917 c 0,9.33919 0.95928,10.29808 10.3171994,10.29808 h 38.63227 c 9.357921,0 10.317202,-0.95889 10.317202,-10.29808 v -0.52917 c 0,9.3392 -0.959281,10.29808 -10.317202,10.29808 h -38.63227 c -9.3579198,0 -10.3171994,-0.95888 -10.3171994,-10.29808 z" style="opacity:0.2;fill:#491706"/>
  <path d="m 40.02915,254.72955 c -1.245399,0.044 -2.758476,0.72764 -3.651997,1.64755 -0.803036,0.81686 -1.509307,2.11755 -1.3208,3.36797 1.391176,0.0955 2.816284,-0.62206 3.682157,-1.54197 0.864615,-0.92243 1.450242,-2.19799 1.29064,-3.47355 z m -0.824402,5.03941 c -1.652571,0.13195 -3.161879,1.21775 -4.016441,1.21775 -0.972692,0 -2.47446,-1.18005 -4.069223,-1.14864 -2.096191,0.034 -4.031522,1.30447 -5.111036,3.31897 -2.176619,4.05415 -0.560492,10.05996 1.56209,13.34876 1.036785,1.60985 2.307317,3.35793 3.902081,3.35793 1.594763,0 2.155255,-1.08956 4.045346,-1.08956 1.89009,0 2.406597,1.08956 4.075507,1.08956 1.668909,0 2.744652,-1.67519 3.775153,-3.28881 1.190103,-1.86747 1.68399,-3.67839 1.712894,-3.77138 -0.0377,-0.0176 -3.281267,-1.34719 -3.313941,-5.3561 -0.03141,-3.3554 2.556146,-4.96651 2.670506,-5.04568 -1.450242,-2.27841 -3.711061,-2.59133 -4.516611,-2.62652 -0.240032,-0.0264 -0.480063,-0.0239 -0.716325,-0.005 z" style="isolation:isolate;fill:#dcdef5"/>
 </g>
</svg>
