<?xml version="1.0" encoding="UTF-8" standalone="no"?>
<svg
   xmlns:dc="http://purl.org/dc/elements/1.1/"
   xmlns:cc="http://creativecommons.org/ns#"
   xmlns:rdf="http://www.w3.org/1999/02/22-rdf-syntax-ns#"
   xmlns:svg="http://www.w3.org/2000/svg"
   xmlns="http://www.w3.org/2000/svg"
   xmlns:xlink="http://www.w3.org/1999/xlink"
   xmlns:sodipodi="http://sodipodi.sourceforge.net/DTD/sodipodi-0.dtd"
   xmlns:inkscape="http://www.inkscape.org/namespaces/inkscape"
   inkscape:version="1.0alpha (0d6517f328, 2019-04-02, custom)"
   sodipodi:docname="folder-orange-electron.svg"
   id="svg61"
   viewBox="0 0 67.73 67.73"
   version="1.1"
   height="256"
   width="256">
  <metadata
     id="metadata65">
    <rdf:RDF>
      <cc:Work
         rdf:about="">
        <dc:format>image/svg+xml</dc:format>
        <dc:type
           rdf:resource="http://purl.org/dc/dcmitype/StillImage" />
      </cc:Work>
    </rdf:RDF>
  </metadata>
  <sodipodi:namedview
     inkscape:current-layer="g59"
     inkscape:window-maximized="1"
     inkscape:window-y="32"
     inkscape:window-x="0"
     inkscape:cy="128"
     inkscape:cx="101.19575"
     inkscape:zoom="2.5742188"
     showgrid="false"
     id="namedview63"
     inkscape:window-height="816"
     inkscape:window-width="1600"
     inkscape:pageshadow="2"
     inkscape:pageopacity="0"
     guidetolerance="10"
     gridtolerance="10"
     objecttolerance="10"
     borderopacity="1"
     inkscape:document-rotation="0"
     bordercolor="#666666"
     pagecolor="#ffffff" />
  <defs
     id="defs35">
    <filter
       y="-.01"
       x="-.01"
       height="1.025"
       width="1.023"
       id="filter1344"
       style="color-interpolation-filters:sRGB">
      <feGaussianBlur
         id="feGaussianBlur2"
         stdDeviation="1.06" />
    </filter>
    <filter
       y="-.01"
       x="-.01"
       height="1.025"
       width="1.023"
       id="filter959"
       style="color-interpolation-filters:sRGB">
      <feGaussianBlur
         id="feGaussianBlur5"
         stdDeviation="1.06" />
    </filter>
    <linearGradient
       gradientUnits="userSpaceOnUse"
       gradientTransform="matrix(0.26458333,0,0,0.26458333,-6.4240833,221.79779)"
       y2="52"
       y1="252"
       x2="48"
       x1="264"
       id="linearGradient1057">
      <stop
         id="stop8"
         style="stop-color:#000000"
         offset="0" />
      <stop
         id="stop10"
         style="stop-color:#000000;stop-opacity:.43290043"
         offset=".159" />
      <stop
         id="stop12"
         style="stop-color:#000000;stop-opacity:.0995671"
         offset=".194" />
      <stop
         id="stop14"
         style="stop-color:#000000;stop-opacity:0"
         offset="1" />
    </linearGradient>
    <clipPath
       id="clipPath977">
      <path
         id="path17"
         d="M 78.994141,52 C 43.625611,52 40,53.999146 40,89.296875 V 140 H 264 V 108.92188 C 264,73.624145 260.37439,68 225.00586,68 H 138 L 122,52 Z"
         style="fill:#f6531e" />
    </clipPath>
    <filter
       y="-.07"
       x="-.05"
       height="1.136"
       width="1.107"
       id="filter989"
       style="color-interpolation-filters:sRGB">
      <feGaussianBlur
         id="feGaussianBlur20"
         stdDeviation="5" />
    </filter>
    <linearGradient
       gradientUnits="userSpaceOnUse"
       gradientTransform="matrix(0.11988932,0,0,0.11988932,3.1009196,233.76191)"
       y2="478"
       y1="86"
       x2="224"
       x1="224"
       id="linearGradient4226">
      <stop
         id="stop23"
         style="stop-color:		#76c22b"
         offset="0" />
      <stop
         id="stop25"
         style="stop-color:#a6d74f"
         offset="1" />
    </linearGradient>
    <radialGradient
       xlink:href="#linearGradient1361"
       gradientUnits="userSpaceOnUse"
       gradientTransform="matrix(0.26458333,0,0,0.06959709,-6.4240801,237.68155)"
       r="112"
       cy="-.126"
       cx="152"
       id="radialGradient1371" />
    <linearGradient
       id="linearGradient1361">
      <stop
         id="stop29"
         style="stop-color:#ffffff"
         offset="0" />
      <stop
         id="stop31"
         style="stop-color:#ffffff;stop-opacity:.20392157"
         offset="1" />
    </linearGradient>
    <radialGradient
       xlink:href="#linearGradient1361"
       gradientUnits="userSpaceOnUse"
       gradientTransform="matrix(0.26458333,0,0,0.06723474,-6.4240801,244.52967)"
       r="112"
       cy="39.684"
       cx="148"
       id="radialGradient1363" />
  </defs>
  <g
     id="g59"
     transform="translate(0,-229.26666)">
    <path
       inkscape:connector-curvature="0"
       id="path37"
       style="opacity:0.1;filter:url(#filter1344)"
       transform="matrix(0.26458333,0,0,0.26458333,0.79374998,232.056)"
       d="M 51.714141,15.228801 C 16.345611,15.228801 12.72,17.227947 12.72,52.525676 V 176.30692 c 0,35.29774 3.625611,38.92188 38.994141,38.92188 H 197.72586 c 35.36853,0 38.99414,-3.62414 38.99414,-38.92188 V 72.150676 c 0,-35.29774 -3.62561,-40.92188 -38.99414,-40.92188 H 110.72 l -15.999999,-16 z" />
    <path
       inkscape:connector-curvature="0"
       id="path39"
       style="opacity:0.1;filter:url(#filter959)"
       transform="matrix(0.26458333,0,0,0.26458333,0.79374998,232.056)"
       d="M 51.714141,14.228801 C 16.345611,14.228801 12.72,16.227947 12.72,51.525676 V 183.30692 c 0,35.29774 3.625611,38.92188 38.994141,38.92188 H 197.72586 c 35.36853,0 38.99414,-3.62414 38.99414,-38.92188 V 71.150676 c 0,-35.297735 -3.62561,-40.92188 -38.99414,-40.92188 H 110.72 l -15.999999,-16 z" />
    <path
       inkscape:connector-curvature="0"
       id="path41"
       style="opacity:0.4;fill:url(#linearGradient1057);filter:url(#filter1067)"
       d="m 14.47645,235.55612 c -9.3579238,0 -10.3172001,0.52894 -10.3172001,9.86813 v 34.86712 c 0,9.3392 0.9592763,10.29808 10.3172001,10.29808 h 38.632266 c 9.357924,0 10.3172,-0.95888 10.3172,-10.29808 V 250.6167 c 0,-9.33919 -0.959276,-10.82725 -10.3172,-10.82725 h -23.0203 l -4.233333,-4.23333 z" />
    <path
       inkscape:connector-curvature="0"
       id="path43"
       style="fill:#46a926"
       d="m 14.476449,235.55612 c -9.3579194,0 -10.317199,0.52894 -10.317199,9.86813 v 13.4152 h 59.266671 v -8.22275 c 0,-9.33919 -0.959281,-10.82725 -10.317202,-10.82725 H 30.088418 l -4.233339,-4.23333 z" />
    <path
       inkscape:connector-curvature="0"
       id="path45"
       style="opacity:0.5;fill:#1f6617;filter:url(#filter989)"
       transform="matrix(0.26458333,0,0,0.26458333,-6.4240801,223.91445)"
       clip-path="url(#clipPath977)"
       d="M 78.99353,92 C 43.625,92 40,95.625 40,130.92273 v 82.15454 C 40,248.375 43.625,252 78.99353,252 H 225.00647 C 260.375,252 264,248.375 264,213.07727 V 114.92273 C 264,79.625 260.375,76 225.00647,76 H 143.75 l -16.00782,16 z" />
    <path
       inkscape:connector-curvature="0"
       id="path47"
       style="fill:url(#linearGradient4226)"
       d="m 14.476289,248.25612 c -9.3579192,0 -10.317039,0.95911 -10.317039,10.2983 v 21.73672 c 0,9.3392 0.9591202,10.29831 10.317039,10.29831 H 53.10888 c 9.357919,0 10.317041,-0.95911 10.317041,-10.29831 v -25.97005 c 0,-9.33919 -0.959122,-10.29831 -10.317041,-10.29831 H 31.60977 l -4.2354,4.23334 z" />
    <path
       inkscape:connector-curvature="0"
       id="path49"
       style="opacity:0.4;fill:url(#radialGradient1371)"
       d="m 14.476449,235.55612 c -9.3579194,0 -10.317199,0.52894 -10.317199,9.86813 v 0.52916 c 0,-9.33919 0.95928,-9.86813 10.317199,-9.86813 h 11.37863 l 4.233339,4.23334 h 23.020301 c 9.357921,0 10.317202,1.48805 10.317202,10.82724 v -0.52916 c 0,-9.3392 -0.959281,-10.82725 -10.317202,-10.82725 H 30.088418 l -4.233339,-4.23333 z" />
    <path
       inkscape:connector-curvature="0"
       id="path51"
       style="opacity:0.4;fill:url(#radialGradient1363)"
       d="m 31.60977,244.02278 -4.2354,4.23334 H 14.476449 c -9.3579194,0 -10.317199,0.95889 -10.317199,10.29808 v 0.52916 c 0,-9.33919 0.95928,-10.29808 10.317199,-10.29808 H 27.37437 l 4.2354,-4.23333 h 21.498949 c 9.357921,0 10.317202,0.95889 10.317202,10.29808 v -0.52917 c 0,-9.33919 -0.959281,-10.29808 -10.317202,-10.29808 z" />
    <path
       inkscape:connector-curvature="0"
       id="path53"
       style="opacity:0.1;fill:#ffffff"
       d="M 63.425921,273.12695 46.49258,290.06028 h 6.616139 c 9.357921,0 10.317202,-0.95888 10.317202,-10.29808 z" />
    <path
       inkscape:connector-curvature="0"
       id="path55"
       style="opacity:0.2;fill:#491706"
       d="m 4.1592496,279.7622 v 0.52917 c 0,9.33919 0.95928,10.29808 10.3171994,10.29808 h 38.63227 c 9.357921,0 10.317202,-0.95889 10.317202,-10.29808 v -0.52917 c 0,9.3392 -0.959281,10.29808 -10.317202,10.29808 h -38.63227 c -9.3579198,0 -10.3171994,-0.95888 -10.3171994,-10.29808 z" />
    <path
       inkscape:connector-curvature="0"
       transform="matrix(0.26457031,0,0,0.26457031,0,229.26666)"
       d="m 128.10156,90.945312 a 6.4315799,6.4315799 0 0 0 -6.43164,6.431641 6.4315799,6.4315799 0 0 0 6.43164,6.429687 6.4315799,6.4315799 0 0 0 5.70313,-3.46289 c 9.22983,5.25643 15.99804,22.76949 15.99804,43.18164 0,8.6405 -1.20631,16.87704 -3.41601,24.04492 -0.20138,0.73633 0.19968,1.47324 0.86914,1.67383 0.67021,0.20146 1.40677,-0.20099 1.67578,-0.87109 2.34421,-7.36772 3.54883,-15.93967 3.54883,-24.84766 0,-21.58992 -7.37006,-40.31473 -17.96094,-45.796874 a 6.4315799,6.4315799 0 0 0 0.0117,-0.351563 6.4315799,6.4315799 0 0 0 -6.42969,-6.431641 z m -0.0371,2.679688 a 3.7445814,3.7445814 0 0 1 0.0352,0 3.7445814,3.7445814 0 0 1 3.75195,3.751953 c 0,2.07597 -1.74208,3.749997 -3.75195,3.749997 a 3.7445814,3.7445814 0 0 1 -3.75,-3.749997 3.7445814,3.7445814 0 0 1 3.71484,-3.751953 z m -22.85547,18.00195 c -8.605911,0.0313 -15.186249,2.79457 -18.300777,8.11914 -3.081287,5.29175 -2.211497,12.39229 2.142578,19.89453 0.334316,0.66947 1.20525,0.87073 1.808594,0.46876 0.669444,-0.33527 0.869955,-1.20604 0.46875,-1.8086 -3.885236,-6.76516 -4.621703,-12.86076 -2.144531,-17.21484 3.416396,-5.89431 12.659896,-8.17139 24.716796,-5.96094 a 1.3066068,1.3066068 0 0 0 1.54102,-1.07031 c 0.13372,-0.73708 -0.26681,-1.40725 -1.00391,-1.54102 -3.26536,-0.60296 -6.35988,-0.89713 -9.22852,-0.88672 z m 46.06641,0.082 c -0.73631,0 -1.33984,0.60277 -1.33984,1.33985 0,0.73629 0.60353,1.33984 1.33984,1.33984 7.63596,0.0669 13.12676,2.47725 15.60547,6.76367 3.41639,5.89511 0.73742,15.00449 -7.16602,24.31446 -0.46884,0.53649 -0.40093,1.40616 0.13477,1.875 0.53571,0.46883 1.40616,0.40296 1.875,-0.13282 8.57364,-10.1139 11.5202,-20.29426 7.43359,-27.39453 -3.01365,-5.22413 -9.4429,-7.97174 -17.88281,-8.10547 z m -11.24805,1.1836 c -0.0892,-0.001 -0.1813,0.005 -0.27343,0.0215 -7.70283,1.67555 -15.93955,4.89065 -23.84375,9.44532 -19.089547,11.01083 -31.645475,27.08944 -30.714848,39.05468 a 6.4315799,6.4315799 0 0 0 -3.310546,5.6211 6.4315799,6.4315799 0 0 0 6.429687,6.42968 6.4315799,6.4315799 0 0 0 6.429688,-6.42968 6.4315799,6.4315799 0 0 0 -6.429688,-6.42969 6.4315799,6.4315799 0 0 0 -0.457031,0.0156 C 87.41928,149.96797 99.289416,135.09482 117.25,124.70312 c 7.70283,-4.42094 15.67283,-7.56789 23.10742,-9.17578 a 1.283549,1.283549 0 0 0 1.00586,-1.60742 c -0.17621,-0.58644 -0.71126,-1.01803 -1.33594,-1.02734 z m -12.00586,26.04101 c -0.30594,0.002 -0.61603,0.0366 -0.92578,0.10352 -2.47871,0.53649 -4.08454,3.01424 -3.54882,5.49219 0.53571,2.4787 3.01229,4.08648 5.49023,3.55078 h 0.002 c 2.54481,-0.53574 4.08531,-3.01504 3.54883,-5.49219 -0.46874,-2.16889 -2.42476,-3.67152 -4.56641,-3.6543 z m -31.107418,7.63868 c -0.343272,-0.0167 -0.695035,0.10093 -0.96289,0.36914 -0.536478,0.46883 -0.604841,1.3385 -0.06836,1.875 5.291758,5.82669 12.124378,11.25243 19.960938,15.74023 18.35242,10.57076 37.8348,13.6694 48.11328,7.71484 a 6.4315799,6.4315799 0 0 0 3.72852,1.19336 c 3.61699,0 6.42968,-2.87955 6.42968,-6.42968 a 6.4315799,6.4315799 0 0 0 -6.42968,-6.43164 6.4315799,6.4315799 0 0 0 -6.42969,6.43164 6.4315799,6.4315799 0 0 0 0.84766,3.1875 c -9.37381,5.03842 -27.60123,2.02648 -44.91993,-7.94336 -7.56909,-4.35333 -14.26703,-9.64463 -19.357418,-15.27149 -0.23442,-0.26747 -0.568837,-0.41882 -0.91211,-0.43554 z m 70.734378,16.71093 a 3.7445814,3.7445814 0 0 1 0.0371,0 3.7445814,3.7445814 0 0 1 3.75,3.75196 3.7445814,3.7445814 0 0 1 -3.75,3.75 3.7445814,3.7445814 0 0 1 -2.29102,-0.77735 c -0.0329,-0.0786 -0.071,-0.15435 -0.11914,-0.22656 -0.13937,-0.20891 -0.33723,-0.35775 -0.55859,-0.45117 a 3.7445814,3.7445814 0 0 1 -0.78125,-2.29492 3.7445814,3.7445814 0 0 1 3.71289,-3.75196 z m -79.371096,0.002 a 3.7445814,3.7445814 0 0 1 0.03711,0 3.7445814,3.7445814 0 0 1 3.75,3.75 3.7445814,3.7445814 0 0 1 -3.75,3.75195 3.7445814,3.7445814 0 0 1 -3.75,-3.75195 3.7445814,3.7445814 0 0 1 3.712891,-3.75 z m 21.144536,5.67773 c -0.17684,-0.0104 -0.36085,0.015 -0.54493,0.082 -0.73708,0.26761 -1.07097,1.07002 -0.80273,1.74024 4.48781,12.45812 11.7888,20.16015 20.02734,20.16015 6.02807,0 11.51974,-4.0844 15.87305,-11.31836 0.40197,-0.60335 0.20148,-1.47348 -0.46875,-1.80859 -0.60258,-0.40197 -1.47348,-0.20155 -1.80859,0.46875 -3.88447,6.49691 -8.63906,9.98047 -13.59571,9.98047 -6.83278,0 -13.32972,-6.83261 -17.48242,-18.41992 -0.20118,-0.50207 -0.66676,-0.8535 -1.19726,-0.88477 z"
       style="opacity:1;isolation:isolate;fill:#dce6b8;stroke-width:0.768593;stop-opacity:1;fill-opacity:1"
       id="path41-6" />
  </g>
</svg>
