<svg xmlns="http://www.w3.org/2000/svg" xmlns:xlink="http://www.w3.org/1999/xlink" width="256" height="256" version="1.1" viewBox="0 0 67.73 67.73">
 <defs>
  <filter id="filter1344" width="1.023" height="1.025" x="-.01" y="-.01" style="color-interpolation-filters:sRGB">
   <feGaussianBlur stdDeviation="1.06"/>
  </filter>
  <filter id="filter959" width="1.023" height="1.025" x="-.01" y="-.01" style="color-interpolation-filters:sRGB">
   <feGaussianBlur stdDeviation="1.06"/>
  </filter>
  <linearGradient id="linearGradient1057" x1="264" x2="48" y1="252" y2="52" gradientTransform="translate(-27.28,-38.771199)" gradientUnits="userSpaceOnUse">
   <stop style="stop-color:#000000" offset="0"/>
   <stop style="stop-color:#000000;stop-opacity:.43290043" offset=".159"/>
   <stop style="stop-color:#000000;stop-opacity:.0995671" offset=".194"/>
   <stop style="stop-color:#000000;stop-opacity:0" offset="1"/>
  </linearGradient>
  <clipPath id="clipPath977">
   <path d="M 78.994141,52 C 43.625611,52 40,53.999146 40,89.296875 V 140 H 264 V 108.92188 C 264,73.624145 260.37439,68 225.00586,68 H 138 L 122,52 Z" style="fill:#f6531e"/>
  </clipPath>
  <filter id="filter989" width="1.107" height="1.136" x="-.05" y="-.07" style="color-interpolation-filters:sRGB">
   <feGaussianBlur stdDeviation="5"/>
  </filter>
  <linearGradient id="linearGradient4226" x1="224" x2="224" y1="86" y2="478" gradientTransform="matrix(0.11988932,0,0,0.11988932,3.1009196,232.21778)" gradientUnits="userSpaceOnUse">
   <stop style="stop-color:	#6d95b0" offset="0"/>
   <stop style="stop-color:#97b4c7" offset="1"/>
  </linearGradient>
  <radialGradient id="radialGradient1371" cx="152" cy="-.126" r="112" gradientTransform="matrix(0.26458333,0,0,0.06959709,-6.4240801,236.13742)" gradientUnits="userSpaceOnUse" xlink:href="#linearGradient1361"/>
  <linearGradient id="linearGradient1361">
   <stop style="stop-color:#ffffff" offset="0"/>
   <stop style="stop-color:#ffffff;stop-opacity:.20392157" offset="1"/>
  </linearGradient>
  <radialGradient id="radialGradient1363" cx="148" cy="39.684" r="112" gradientTransform="matrix(0.26458333,0,0,0.06723474,-6.4240801,242.98554)" gradientUnits="userSpaceOnUse" xlink:href="#linearGradient1361"/>
 </defs>
 <g transform="translate(0,-227.72253)">
  <path style="opacity:0.1;filter:url(#filter1344)" d="M 51.714141,15.228801 C 16.345611,15.228801 12.72,17.227947 12.72,52.525676 V 176.30692 c 0,35.29774 3.625611,38.92188 38.994141,38.92188 H 197.72586 c 35.36853,0 38.99414,-3.62414 38.99414,-38.92188 V 72.150676 c 0,-35.29774 -3.62561,-40.92188 -38.99414,-40.92188 H 110.72 l -15.999999,-16 z" transform="matrix(0.26458333,0,0,0.26458333,0.79374998,230.51187)"/>
  <path style="opacity:0.1;filter:url(#filter959)" d="M 51.714141,14.228801 C 16.345611,14.228801 12.72,16.227947 12.72,51.525676 V 183.30692 c 0,35.29774 3.625611,38.92188 38.994141,38.92188 H 197.72586 c 35.36853,0 38.99414,-3.62414 38.99414,-38.92188 V 71.150676 c 0,-35.297735 -3.62561,-40.92188 -38.99414,-40.92188 H 110.72 l -15.999999,-16 z" transform="matrix(0.26458333,0,0,0.26458333,0.79374998,230.51187)"/>
  <path style="opacity:0.4;fill:url(#linearGradient1057);filter:url(#filter1067)" d="M 51.714141,13.228801 C 16.345611,13.228801 12.72,15.227947 12.72,50.525676 V 182.30692 c 0,35.29774 3.625611,38.92188 38.994141,38.92188 H 197.72586 c 35.36853,0 38.99414,-3.62414 38.99414,-38.92188 V 70.150676 c 0,-35.29774 -3.62561,-40.92188 -38.99414,-40.92188 H 110.72 l -15.999999,-16 z" transform="matrix(0.26458333,0,0,0.26458333,0.79374998,230.51187)"/>
  <path style="fill:#537e9b" d="m 14.476449,234.01199 c -9.3579194,0 -10.317199,0.52894 -10.317199,9.86813 v 13.4152 h 59.266671 v -8.22275 c 0,-9.33919 -0.959281,-10.82725 -10.317202,-10.82725 H 30.088418 l -4.233339,-4.23333 z"/>
  <path style="opacity:0.5;fill:#3d5c71;filter:url(#filter989)" d="M 78.99353,92 C 43.625,92 40,95.625 40,130.92273 v 82.15454 C 40,248.375 43.625,252 78.99353,252 H 225.00647 C 260.375,252 264,248.375 264,213.07727 V 114.92273 C 264,79.625 260.375,76 225.00647,76 H 143.75 l -16.00782,16 z" clip-path="url(#clipPath977)" transform="matrix(0.26458333,0,0,0.26458333,-6.4240801,222.37032)"/>
  <path style="fill:url(#linearGradient4226)" d="m 14.476289,246.71199 c -9.3579192,0 -10.317039,0.95911 -10.317039,10.2983 v 21.73672 c 0,9.3392 0.9591202,10.29831 10.317039,10.29831 H 53.10888 c 9.357919,0 10.317041,-0.95911 10.317041,-10.29831 v -25.97005 c 0,-9.33919 -0.959122,-10.29831 -10.317041,-10.29831 H 31.60977 l -4.2354,4.23334 z"/>
  <path style="opacity:0.4;fill:url(#radialGradient1371)" d="m 14.476449,234.01199 c -9.3579194,0 -10.317199,0.52894 -10.317199,9.86813 v 0.52916 c 0,-9.33919 0.95928,-9.86813 10.317199,-9.86813 h 11.37863 l 4.233339,4.23334 h 23.020301 c 9.357921,0 10.317202,1.48805 10.317202,10.82724 v -0.52916 c 0,-9.3392 -0.959281,-10.82725 -10.317202,-10.82725 H 30.088418 l -4.233339,-4.23333 z"/>
  <path style="opacity:0.4;fill:url(#radialGradient1363)" d="m 31.60977,242.47865 -4.2354,4.23334 H 14.476449 c -9.3579194,0 -10.317199,0.95889 -10.317199,10.29808 v 0.52916 c 0,-9.33919 0.95928,-10.29808 10.317199,-10.29808 H 27.37437 l 4.2354,-4.23333 h 21.498949 c 9.357921,0 10.317202,0.95889 10.317202,10.29808 v -0.52917 c 0,-9.33919 -0.959281,-10.29808 -10.317202,-10.29808 z"/>
  <path style="opacity:0.1;fill:#ffffff" d="M 63.425921,271.58282 46.49258,288.51615 h 6.616139 c 9.357921,0 10.317202,-0.95888 10.317202,-10.29808 z"/>
  <path style="opacity:0.2;fill:#491706" d="m 4.1592496,278.21807 v 0.52917 c 0,9.33919 0.95928,10.29808 10.3171994,10.29808 h 38.63227 c 9.357921,0 10.317202,-0.95889 10.317202,-10.29808 v -0.52917 c 0,9.3392 -0.959281,10.29808 -10.317202,10.29808 h -38.63227 c -9.3579198,0 -10.3171994,-0.95888 -10.3171994,-10.29808 z"/>
  <path style="fill:#d5e1e8" d="m 28.75059,255.37018 c -0.07667,-2e-4 -0.152909,0.003 -0.228915,0.008 -0.321561,0.0242 -0.63696,0.10847 -0.925996,0.25579 -0.770339,0.3925 -1.243178,1.17633 -1.477874,2.13103 -0.234695,0.9547 -0.253527,2.11118 -0.09405,3.42443 0.07209,0.59362 0.182992,1.22017 0.32813,1.87111 -0.921834,0.18627 -1.772758,0.415 -2.526854,0.68726 -1.071342,0.38681 -1.960051,0.85389 -2.616249,1.42103 -0.656197,0.56715 -1.090134,1.26488 -1.131141,2.04732 -0.03913,0.74535 0.285485,1.45381 0.828333,2.06386 0.542845,0.61005 1.308161,1.14822 2.248847,1.63289 a 0.52707899,0.52707899 0 1 0 0.481601,-0.93633 c -0.861641,-0.44395 -1.524601,-0.92713 -1.942939,-1.39726 -0.418339,-0.47013 -0.586772,-0.9007 -0.565312,-1.30941 0.0225,-0.42928 0.257444,-0.85938 0.770975,-1.30322 0.513528,-0.44384 1.293823,-0.87187 2.282435,-1.22881 0.708382,-0.25575 1.525766,-0.47466 2.422989,-0.65315 0.304081,1.12825 0.71104,2.31886 1.209686,3.54017 -1.188378,2.21357 -2.027359,4.3494 -2.453993,6.20346 -0.296459,1.28834 -0.399307,2.44076 -0.266121,3.41409 0.133185,0.97333 0.524511,1.80182 1.249475,2.27262 0.687995,0.44679 1.550963,0.49035 2.440557,0.2594 0.889596,-0.23095 1.840208,-0.72854 2.835347,-1.43757 a 0.52707899,0.52707899 0 1 0 -0.609753,-0.85882 c -0.923996,0.65834 -1.782016,1.09304 -2.488096,1.27635 -0.706079,0.1833 -1.224349,0.12407 -1.602408,-0.12144 -0.397947,-0.25843 -0.673888,-0.74708 -0.781309,-1.53213 -0.107431,-0.78505 -0.02802,-1.83269 0.249068,-3.03687 0.352181,-1.5305 1.020909,-3.31541 1.965158,-5.19116 0.227128,0.50029 0.464464,1.00263 0.721885,1.50784 1.688599,3.31409 3.703066,6.06666 5.639171,7.86839 0.968052,0.90086 1.915124,1.56807 2.82501,1.93932 0.909887,0.37124 1.822231,0.44673 2.59248,0.0543 0.740834,-0.37747 1.212544,-1.12054 1.45462,-2.02355 0.242077,-0.90301 0.278114,-1.99592 0.151403,-3.23582 -0.253416,-2.47979 -1.179168,-5.55168 -2.707194,-8.72669 a 0.52707899,0.52707899 0 1 0 -0.949249,0.45783 c 1.484541,3.08466 2.373791,6.07004 2.609531,8.37686 0.117876,1.15341 0.06847,2.13503 -0.124533,2.85498 -0.193002,0.71995 -0.506121,1.14987 -0.912562,1.35696 -0.42273,0.2154 -0.983109,0.20853 -1.717122,-0.091 -0.734003,-0.2995 -1.600327,-0.89216 -2.50515,-1.73418 -1.80965,-1.68404 -3.775588,-4.35396 -5.416974,-7.57539 -0.379619,-0.74504 -0.721412,-1.48563 -1.031927,-2.21629 0.386074,-0.69523 0.804579,-1.39744 1.260841,-2.10003 0.455987,-0.70215 0.926758,-1.36957 1.404498,-2.00443 0.15071,-0.002 0.2982,-0.008 0.450595,-0.009 0.653571,0 1.319299,0.0117 1.993061,0.0501 l 0.0036,0.004 c 3.610591,0.18922 6.850551,0.89806 9.124056,1.86542 1.136753,0.48368 2.027442,1.03388 2.599197,1.58226 0.571755,0.54838 0.806146,1.05819 0.781311,1.53213 -0.02148,0.4097 -0.233912,0.81715 -0.700699,1.24224 -0.466787,0.42508 -1.177589,0.83999 -2.084007,1.1916 a 0.52716942,0.52716942 0 1 0 0.38032,0.98335 c 0.989691,-0.3839 1.808851,-0.84237 2.414204,-1.39364 0.605353,-0.55127 1.004685,-1.22325 1.043812,-1.96981 0.04523,-0.86325 -0.395358,-1.66709 -1.104274,-2.34703 -0.708909,-0.67993 -1.702805,-1.27351 -2.919053,-1.79101 -2.431671,-1.03466 -5.765262,-1.75471 -9.478025,-1.94966 h -0.0031 c -0.566956,-0.0322 -1.122461,-0.0444 -1.669066,-0.0491 1.001645,-1.22365 2.019476,-2.28781 2.998635,-3.13919 1.725617,-1.50043 3.346047,-2.32688 4.39383,-2.36666 0.387672,-0.0149 0.691047,0.0639 0.939431,0.2253 0.372941,0.24219 0.635474,0.68486 0.757541,1.39054 0.122065,0.70568 0.08299,1.64675 -0.131253,2.73717 a 0.52707899,0.52707899 0 1 0 1.033476,0.20204 c 0.231136,-1.17639 0.292795,-2.22902 0.138487,-3.1211 -0.154308,-0.89209 -0.545923,-1.65237 -1.225704,-2.09383 -0.452879,-0.29336 -0.994134,-0.41577 -1.552285,-0.39427 -1.509032,0.0573 -3.227966,1.04132 -5.046988,2.62297 -1.213735,1.05534 -2.461914,2.39736 -3.66678,3.95201 -1.31919,0.0408 -2.569647,0.15479 -3.724137,0.33537 -0.143199,-0.63426 -0.253601,-1.24275 -0.322445,-1.80962 -0.149078,-1.22752 -0.118571,-2.27996 0.07079,-3.05031 0.189376,-0.77035 0.513171,-1.22532 0.935814,-1.44067 0.158351,-0.0807 0.322889,-0.12664 0.521905,-0.14159 0.738987,-0.0555 1.873454,0.42914 3.117487,1.46134 a 0.52750846,0.52750846 0 1 0 0.673826,-0.8118 c -1.266117,-1.05055 -2.489858,-1.70845 -3.639871,-1.71143 z m 1.553834,8.26162 c -0.320466,0.44804 -0.638098,0.90554 -0.947701,1.38228 -0.309299,0.47629 -0.598299,0.95188 -0.876905,1.4262 -0.330766,-0.87586 -0.605914,-1.72599 -0.828849,-2.53977 0.831225,-0.12644 1.722848,-0.21504 2.653455,-0.26871 z m 3.608903,2.91286 a 1.5810802,1.5810802 0 0 0 -1.544532,1.58122 1.5812217,1.5812217 0 0 0 3.162443,0 1.5810802,1.5810802 0 0 0 -1.617911,-1.58122 z"/>
 </g>
</svg>
