<svg xmlns="http://www.w3.org/2000/svg" xmlns:xlink="http://www.w3.org/1999/xlink" width="256" height="256" version="1.1" viewBox="0 0 67.73 67.73">
 <defs>
  <filter id="filter1344" width="1.023" height="1.025" x="-.01" y="-.01" style="color-interpolation-filters:sRGB">
   <feGaussianBlur stdDeviation="1.06"/>
  </filter>
  <filter id="filter959" width="1.023" height="1.025" x="-.01" y="-.01" style="color-interpolation-filters:sRGB">
   <feGaussianBlur stdDeviation="1.06"/>
  </filter>
  <linearGradient id="linearGradient1057" x1="264" x2="48" y1="252" y2="52" gradientTransform="matrix(0.26458333,0,0,0.26458333,-6.4240833,221.79779)" gradientUnits="userSpaceOnUse">
   <stop style="stop-color:#000000" offset="0"/>
   <stop style="stop-color:#000000;stop-opacity:.43290043" offset=".159"/>
   <stop style="stop-color:#000000;stop-opacity:.0995671" offset=".194"/>
   <stop style="stop-color:#000000;stop-opacity:0" offset="1"/>
  </linearGradient>
  <clipPath id="clipPath977">
   <path d="M 78.994141,52 C 43.625611,52 40,53.999146 40,89.296875 V 140 H 264 V 108.92188 C 264,73.624145 260.37439,68 225.00586,68 H 138 L 122,52 Z" style="fill:#f6531e"/>
  </clipPath>
  <filter id="filter989" width="1.107" height="1.136" x="-.05" y="-.07" style="color-interpolation-filters:sRGB">
   <feGaussianBlur stdDeviation="5"/>
  </filter>
  <linearGradient id="linearGradient4226" x1="224" x2="224" y1="86" y2="478" gradientTransform="matrix(0.11988932,0,0,0.11988932,3.1009196,233.76191)" gradientUnits="userSpaceOnUse">
   <stop style="stop-color:			#f22c42" offset="0"/>
   <stop style="stop-color:#f76363" offset="1"/>
  </linearGradient>
  <radialGradient id="radialGradient1371" cx="152" cy="-.126" r="112" gradientTransform="matrix(0.26458333,0,0,0.06959709,-6.4240801,237.68155)" gradientUnits="userSpaceOnUse" xlink:href="#linearGradient1361"/>
  <linearGradient id="linearGradient1361">
   <stop style="stop-color:#ffffff" offset="0"/>
   <stop style="stop-color:#ffffff;stop-opacity:.20392157" offset="1"/>
  </linearGradient>
  <radialGradient id="radialGradient1363" cx="148" cy="39.684" r="112" gradientTransform="matrix(0.26458333,0,0,0.06723474,-6.4240801,244.52967)" gradientUnits="userSpaceOnUse" xlink:href="#linearGradient1361"/>
 </defs>
 <g transform="translate(0,-229.26666)">
  <path style="opacity:0.1;filter:url(#filter1344)" d="M 51.714141,15.228801 C 16.345611,15.228801 12.72,17.227947 12.72,52.525676 V 176.30692 c 0,35.29774 3.625611,38.92188 38.994141,38.92188 H 197.72586 c 35.36853,0 38.99414,-3.62414 38.99414,-38.92188 V 72.150676 c 0,-35.29774 -3.62561,-40.92188 -38.99414,-40.92188 H 110.72 l -15.999999,-16 z" transform="matrix(0.26458333,0,0,0.26458333,0.79374998,232.056)"/>
  <path style="opacity:0.1;filter:url(#filter959)" d="M 51.714141,14.228801 C 16.345611,14.228801 12.72,16.227947 12.72,51.525676 V 183.30692 c 0,35.29774 3.625611,38.92188 38.994141,38.92188 H 197.72586 c 35.36853,0 38.99414,-3.62414 38.99414,-38.92188 V 71.150676 c 0,-35.297735 -3.62561,-40.92188 -38.99414,-40.92188 H 110.72 l -15.999999,-16 z" transform="matrix(0.26458333,0,0,0.26458333,0.79374998,232.056)"/>
  <path style="opacity:0.4;fill:url(#linearGradient1057);filter:url(#filter1067)" d="m 14.47645,235.55612 c -9.3579238,0 -10.3172001,0.52894 -10.3172001,9.86813 v 34.86712 c 0,9.3392 0.9592763,10.29808 10.3172001,10.29808 h 38.632266 c 9.357924,0 10.3172,-0.95888 10.3172,-10.29808 V 250.6167 c 0,-9.33919 -0.959276,-10.82725 -10.3172,-10.82725 h -23.0203 l -4.233333,-4.23333 z"/>
  <path style="fill:#da1636" d="m 14.476449,235.55612 c -9.3579194,0 -10.317199,0.52894 -10.317199,9.86813 v 13.4152 h 59.266671 v -8.22275 c 0,-9.33919 -0.959281,-10.82725 -10.317202,-10.82725 H 30.088418 l -4.233339,-4.23333 z"/>
  <path style="opacity:0.5;fill:#7f1126;filter:url(#filter989)" d="M 78.99353,92 C 43.625,92 40,95.625 40,130.92273 v 82.15454 C 40,248.375 43.625,252 78.99353,252 H 225.00647 C 260.375,252 264,248.375 264,213.07727 V 114.92273 C 264,79.625 260.375,76 225.00647,76 H 143.75 l -16.00782,16 z" clip-path="url(#clipPath977)" transform="matrix(0.26458333,0,0,0.26458333,-6.4240801,223.91445)"/>
  <path style="fill:url(#linearGradient4226)" d="m 14.476289,248.25612 c -9.3579192,0 -10.317039,0.95911 -10.317039,10.2983 v 21.73672 c 0,9.3392 0.9591202,10.29831 10.317039,10.29831 H 53.10888 c 9.357919,0 10.317041,-0.95911 10.317041,-10.29831 v -25.97005 c 0,-9.33919 -0.959122,-10.29831 -10.317041,-10.29831 H 31.60977 l -4.2354,4.23334 z"/>
  <path style="opacity:0.4;fill:url(#radialGradient1371)" d="m 14.476449,235.55612 c -9.3579194,0 -10.317199,0.52894 -10.317199,9.86813 v 0.52916 c 0,-9.33919 0.95928,-9.86813 10.317199,-9.86813 h 11.37863 l 4.233339,4.23334 h 23.020301 c 9.357921,0 10.317202,1.48805 10.317202,10.82724 v -0.52916 c 0,-9.3392 -0.959281,-10.82725 -10.317202,-10.82725 H 30.088418 l -4.233339,-4.23333 z"/>
  <path style="opacity:0.4;fill:url(#radialGradient1363)" d="m 31.60977,244.02278 -4.2354,4.23334 H 14.476449 c -9.3579194,0 -10.317199,0.95889 -10.317199,10.29808 v 0.52916 c 0,-9.33919 0.95928,-10.29808 10.317199,-10.29808 H 27.37437 l 4.2354,-4.23333 h 21.498949 c 9.357921,0 10.317202,0.95889 10.317202,10.29808 v -0.52917 c 0,-9.33919 -0.959281,-10.29808 -10.317202,-10.29808 z"/>
  <path style="opacity:0.1;fill:#ffffff" d="M 63.425921,273.12695 46.49258,290.06028 h 6.616139 c 9.357921,0 10.317202,-0.95888 10.317202,-10.29808 z"/>
  <path style="opacity:0.2;fill:#491706" d="m 4.1592496,279.7622 v 0.52917 c 0,9.33919 0.95928,10.29808 10.3171994,10.29808 h 38.63227 c 9.357921,0 10.317202,-0.95889 10.317202,-10.29808 v -0.52917 c 0,9.3392 -0.959281,10.29808 -10.317202,10.29808 h -38.63227 c -9.3579198,0 -10.3171994,-0.95888 -10.3171994,-10.29808 z"/>
  <path style="fill:#fac3ba" d="m 25.572645,253.73052 v 6.6804 0.0424 c -1.25174,0.0299 -2.355943,0.11473 -3.235818,0.6002 -0.628576,0.34681 -1.124362,0.93422 -1.39936,1.66683 -0.275016,0.7326 -0.375121,1.60257 -0.375121,2.70085 v 5.0103 c 0,1.09827 0.100039,1.96826 0.375121,2.70087 0.275015,0.7326 0.770784,1.32003 1.39936,1.66682 0.471435,0.26012 1.000456,0.38987 1.565718,0.4795 v -1.7125 c -0.312659,-0.0593 -0.579925,-0.13227 -0.760029,-0.23159 -0.306313,-0.169 -0.479652,-0.3553 -0.642587,-0.78939 -0.162919,-0.43406 -0.267484,-1.12436 -0.267484,-2.11371 v -5.0103 c 0,-0.98935 0.104549,-1.67966 0.267484,-2.11371 0.163001,-0.43408 0.336274,-0.6204 0.642587,-0.78939 0.61119,-0.33721 1.998358,-0.41253 4.100229,-0.4371 h 13.360798 c 2.101854,0.0245 3.485799,0.0999 4.096955,0.4371 0.306313,0.16901 0.482926,0.35529 0.645861,0.78939 0.162952,0.43407 0.267484,1.12436 0.267484,2.11371 v 5.0103 c 0,0.98935 -0.104549,1.67965 -0.267484,2.11371 -0.163001,0.43407 -0.339531,0.62039 -0.645861,0.78939 -0.179636,0.099 -0.445616,0.17239 -0.756755,0.23159 v 1.7125 c 0.565262,-0.0897 1.094283,-0.21935 1.565718,-0.4795 0.628576,-0.34681 1.124345,-0.93422 1.39936,-1.66682 0.275049,-0.73263 0.375121,-1.6026 0.375121,-2.70087 v -5.0103 c 0,-1.09828 -0.100039,-1.96825 -0.375121,-2.70087 -0.274998,-0.73261 -0.770784,-1.32001 -1.39936,-1.66683 -0.879875,-0.48548 -1.984078,-0.5703 -3.235818,-0.6002 v -0.0424 -6.6804 z m 1.6701,1.6701 h 13.360798 v 5.0103 H 27.242745 Z m 15.865948,8.3505 a 0.8350499,0.8350499 0 0 0 -0.83505,0.83505 0.8350499,0.8350499 0 0 0 0.83505,0.83505 0.8350499,0.8350499 0 0 0 0.83505,-0.83505 0.8350499,0.8350499 0 0 0 -0.83505,-0.83505 z m -17.536048,6.6804 v 0.83505 9.18555 h 16.700998 v -9.18555 -0.83505 h -1.6701 v 0.83505 7.51545 H 27.242745 v -7.51545 -0.83505 z m 3.3402,1.6701 v 1.6701 h 10.020598 v -1.6701 z m 0,3.3402 v 1.6701 h 10.020598 v -1.6701 z"/>
 </g>
</svg>
