<svg xmlns="http://www.w3.org/2000/svg" xmlns:xlink="http://www.w3.org/1999/xlink" width="256" height="256" version="1.1" viewBox="0 0 67.73 67.73">
 <defs>
  <filter id="filter1344" width="1.023" height="1.025" x="-.01" y="-.01" style="color-interpolation-filters:sRGB">
   <feGaussianBlur stdDeviation="1.06"/>
  </filter>
  <filter id="filter959" width="1.023" height="1.025" x="-.01" y="-.01" style="color-interpolation-filters:sRGB">
   <feGaussianBlur stdDeviation="1.06"/>
  </filter>
  <linearGradient id="linearGradient1057" x1="264" x2="48" y1="252" y2="52" gradientTransform="matrix(0.26458333,0,0,0.26458333,-6.4240833,221.79779)" gradientUnits="userSpaceOnUse">
   <stop style="stop-color:#000000" offset="0"/>
   <stop style="stop-color:#000000;stop-opacity:.43290043" offset=".159"/>
   <stop style="stop-color:#000000;stop-opacity:.0995671" offset=".194"/>
   <stop style="stop-color:#000000;stop-opacity:0" offset="1"/>
  </linearGradient>
  <clipPath id="clipPath977">
   <path d="M 78.994141,52 C 43.625611,52 40,53.999146 40,89.296875 V 140 H 264 V 108.92188 C 264,73.624145 260.37439,68 225.00586,68 H 138 L 122,52 Z" style="fill:#f6531e"/>
  </clipPath>
  <filter id="filter989" width="1.107" height="1.136" x="-.05" y="-.07" style="color-interpolation-filters:sRGB">
   <feGaussianBlur stdDeviation="5"/>
  </filter>
  <linearGradient id="linearGradient4226" x1="224" x2="224" y1="86" y2="478" gradientTransform="matrix(0.11988932,0,0,0.11988932,3.1009196,233.76191)" gradientUnits="userSpaceOnUse">
   <stop style="stop-color:#fb7c38" offset="0"/>
   <stop style="stop-color:#fda463" offset="1"/>
  </linearGradient>
  <radialGradient id="radialGradient1371" cx="152" cy="-.126" r="112" gradientTransform="matrix(0.26458333,0,0,0.06959709,-6.4240801,237.68155)" gradientUnits="userSpaceOnUse" xlink:href="#linearGradient1361"/>
  <linearGradient id="linearGradient1361">
   <stop style="stop-color:#ffffff" offset="0"/>
   <stop style="stop-color:#ffffff;stop-opacity:.20392157" offset="1"/>
  </linearGradient>
  <radialGradient id="radialGradient1363" cx="148" cy="39.684" r="112" gradientTransform="matrix(0.26458333,0,0,0.06723474,-6.4240801,244.52967)" gradientUnits="userSpaceOnUse" xlink:href="#linearGradient1361"/>
  <filter style="color-interpolation-filters:sRGB" id="filter1718" width="1.028" height="1.173" x="-.01" y="-.09">
   <feGaussianBlur stdDeviation="1.3"/>
  </filter>
  <linearGradient id="linearGradient3585-3" x1="2321" x2="2321" y1="464" y2="466" gradientTransform="matrix(4.8695652,0,0,5,-9262.2609,-1704)" gradientUnits="userSpaceOnUse">
   <stop offset="0" style="stop-color:#8a826a"/>
   <stop offset="1" style="stop-color:#a69f8a"/>
  </linearGradient>
  <linearGradient id="linearGradient3601-5" x1="2343" x2="2343" y1="459" y2="465" gradientTransform="matrix(5,0,0,5,-9564,-1704)" gradientUnits="userSpaceOnUse" xlink:href="#linearGradient3634"/>
  <linearGradient id="linearGradient3634">
   <stop offset="0" style="stop-color:#746c58"/>
   <stop offset="1" style="stop-color:#8a836a"/>
  </linearGradient>
  <linearGradient id="linearGradient3593-3" x1="2340" x2="2340" y1="463" y2="467" gradientTransform="matrix(5,0,0,5,-9564,-1704)" gradientUnits="userSpaceOnUse" xlink:href="#linearGradient3634"/>
  <linearGradient id="linearGradient1542" x1="2148" x2="2148" y1="612" y2="608" gradientTransform="matrix(1,0,0,3,0,-1224)" gradientUnits="userSpaceOnUse">
   <stop offset="0" style="stop-color:#000000"/>
   <stop offset="1" style="stop-color:#000000;stop-opacity:0"/>
  </linearGradient>
 </defs>
 <g transform="translate(0,-229.26666)">
  <g style="enable-background:new" transform="matrix(0.26458333,0,0,0.26458333,-535.59083,127.89944)">
   <path style="opacity:0.2;filter:url(#filter1718)" d="m 2152,593 c -2.216,0 -4,1.784 -4,4 v 16 h -12 c -2.216,0 -4,1.784 -4,4 h -90 c -1.108,0 -2,0.892 -2,2 v 4 c 0,1.108 0.892,2 2,2 h 90 c 0,2.216 1.784,4 4,4 h 32 c 2.216,0 4,-1.784 4,-4 h 90 c 1.108,0 2,-0.892 2,-2 v -4 c 0,-1.108 -0.892,-2 -2,-2 h -90 c 0,-0.831 -0.2512,-1.60203 -0.6816,-2.24023 C 2170.6009,613.69609 2169.385,613 2168,613 h -12 v -16 c 0,-2.216 -1.784,-4 -4,-4 z"/>
   <rect style="fill:url(#linearGradient3585-3)" width="224" height="8" x="2040" y="616" rx="2" ry="2"/>
   <rect style="fill:url(#linearGradient3601-5)" width="8" height="28" x="2148" y="592" rx="4" ry="4"/>
   <path style="opacity:0.2;fill:#ffffff" d="m 2042,616 c -1.108,0 -2,0.892 -2,2 v 2 c 0,-1.108 0.892,-2 2,-2 h 220 c 1.108,0 2,0.892 2,2 v -2 c 0,-1.108 -0.892,-2 -2,-2 z"/>
   <rect style="fill:url(#linearGradient3593-3)" width="40" height="16" x="2132" y="612" rx="4" ry="4"/>
   <path style="opacity:0.2;fill:#ffffff" d="m 2136,612 c -2.216,0 -4,1.784 -4,4 v 2 c 0,-2.216 1.784,-4 4,-4 h 32 c 2.216,0 4,1.784 4,4 v -2 c 0,-2.216 -1.784,-4 -4,-4 z"/>
   <rect style="opacity:0.2;fill:url(#linearGradient1542)" width="8" height="12" x="2148" y="600"/>
   <path style="opacity:0.8;fill:#ffffff" d="m 2136,612 c -2.216,0 -4,1.784 -4,4 v 1 c 0,-2.216 1.784,-4 4,-4 h 32 c 2.216,0 4,1.784 4,4 v -1 c 0,-2.216 -1.784,-4 -4,-4 z"/>
  </g>
  <g transform="translate(0,-3.7039842)">
   <path d="M 51.714141,15.228801 C 16.345611,15.228801 12.72,17.227947 12.72,52.525676 V 176.30692 c 0,35.29774 3.625611,38.92188 38.994141,38.92188 H 197.72586 c 35.36853,0 38.99414,-3.62414 38.99414,-38.92188 V 72.150676 c 0,-35.29774 -3.62561,-40.92188 -38.99414,-40.92188 H 110.72 l -15.999999,-16 z" transform="matrix(0.26458333,0,0,0.26458333,0.79374998,232.056)" style="opacity:0.1;filter:url(#filter1344)"/>
   <path d="M 51.714141,14.228801 C 16.345611,14.228801 12.72,16.227947 12.72,51.525676 V 183.30692 c 0,35.29774 3.625611,38.92188 38.994141,38.92188 H 197.72586 c 35.36853,0 38.99414,-3.62414 38.99414,-38.92188 V 71.150676 c 0,-35.297735 -3.62561,-40.92188 -38.99414,-40.92188 H 110.72 l -15.999999,-16 z" transform="matrix(0.26458333,0,0,0.26458333,0.79374998,232.056)" style="opacity:0.1;filter:url(#filter959)"/>
   <path d="m 14.47645,235.55612 c -9.3579238,0 -10.3172001,0.52894 -10.3172001,9.86813 v 34.86712 c 0,9.3392 0.9592763,10.29808 10.3172001,10.29808 h 38.632266 c 9.357924,0 10.3172,-0.95888 10.3172,-10.29808 V 250.6167 c 0,-9.33919 -0.959276,-10.82725 -10.3172,-10.82725 h -23.0203 l -4.233333,-4.23333 z" style="opacity:0.4;fill:url(#linearGradient1057);filter:url(#filter1067)"/>
   <path d="m 14.476449,235.55612 c -9.3579194,0 -10.317199,0.52894 -10.317199,9.86813 v 13.4152 h 59.266671 v -8.22275 c 0,-9.33919 -0.959281,-10.82725 -10.317202,-10.82725 H 30.088418 l -4.233339,-4.23333 z" style="fill:#f34f17"/>
   <path d="M 78.99353,92 C 43.625,92 40,95.625 40,130.92273 v 82.15454 C 40,248.375 43.625,252 78.99353,252 H 225.00647 C 260.375,252 264,248.375 264,213.07727 V 114.92273 C 264,79.625 260.375,76 225.00647,76 H 143.75 l -16.00782,16 z" clip-path="url(#clipPath977)" transform="matrix(0.26458333,0,0,0.26458333,-6.4240801,223.91445)" style="opacity:0.5;fill:#903906;filter:url(#filter989)"/>
   <path d="m 14.476289,248.25612 c -9.3579192,0 -10.317039,0.95911 -10.317039,10.2983 v 21.73672 c 0,9.3392 0.9591202,10.29831 10.317039,10.29831 H 53.10888 c 9.357919,0 10.317041,-0.95911 10.317041,-10.29831 v -25.97005 c 0,-9.33919 -0.959122,-10.29831 -10.317041,-10.29831 H 31.60977 l -4.2354,4.23334 z" style="fill:url(#linearGradient4226)"/>
   <path d="m 14.476449,235.55612 c -9.3579194,0 -10.317199,0.52894 -10.317199,9.86813 v 0.52916 c 0,-9.33919 0.95928,-9.86813 10.317199,-9.86813 h 11.37863 l 4.233339,4.23334 h 23.020301 c 9.357921,0 10.317202,1.48805 10.317202,10.82724 v -0.52916 c 0,-9.3392 -0.959281,-10.82725 -10.317202,-10.82725 H 30.088418 l -4.233339,-4.23333 z" style="opacity:0.4;fill:url(#radialGradient1371)"/>
   <path d="m 31.60977,244.02278 -4.2354,4.23334 H 14.476449 c -9.3579194,0 -10.317199,0.95889 -10.317199,10.29808 v 0.52916 c 0,-9.33919 0.95928,-10.29808 10.317199,-10.29808 H 27.37437 l 4.2354,-4.23333 h 21.498949 c 9.357921,0 10.317202,0.95889 10.317202,10.29808 v -0.52917 c 0,-9.33919 -0.959281,-10.29808 -10.317202,-10.29808 z" style="opacity:0.4;fill:url(#radialGradient1363)"/>
   <path d="M 63.425921,273.12695 46.49258,290.06028 h 6.616139 c 9.357921,0 10.317202,-0.95888 10.317202,-10.29808 z" style="opacity:0.1;fill:#ffffff"/>
   <path d="m 4.1592496,279.7622 v 0.52917 c 0,9.33919 0.95928,10.29808 10.3171994,10.29808 h 38.63227 c 9.357921,0 10.317202,-0.95889 10.317202,-10.29808 v -0.52917 c 0,9.3392 -0.959281,10.29808 -10.317202,10.29808 h -38.63227 c -9.3579198,0 -10.3171994,-0.95888 -10.3171994,-10.29808 z" style="opacity:0.2;fill:#491706"/>
  </g>
 </g>
</svg>
