<?xml version="1.0" encoding="UTF-8" standalone="no"?>
<svg
   xmlns:dc="http://purl.org/dc/elements/1.1/"
   xmlns:cc="http://creativecommons.org/ns#"
   xmlns:rdf="http://www.w3.org/1999/02/22-rdf-syntax-ns#"
   xmlns:svg="http://www.w3.org/2000/svg"
   xmlns="http://www.w3.org/2000/svg"
   xmlns:xlink="http://www.w3.org/1999/xlink"
   xmlns:sodipodi="http://sodipodi.sourceforge.net/DTD/sodipodi-0.dtd"
   xmlns:inkscape="http://www.inkscape.org/namespaces/inkscape"
   width="256"
   height="256"
   version="1.1"
   viewBox="0 0 67.73 67.73"
   id="svg61"
   sodipodi:docname="insync-folder.svg"
   inkscape:version="0.92.3 (2405546, 2018-03-11)">
  <metadata
     id="metadata65">
    <rdf:RDF>
      <cc:Work
         rdf:about="">
        <dc:format>image/svg+xml</dc:format>
        <dc:type
           rdf:resource="http://purl.org/dc/dcmitype/StillImage" />
        <dc:title></dc:title>
      </cc:Work>
    </rdf:RDF>
  </metadata>
  <sodipodi:namedview
     pagecolor="#ffffff"
     bordercolor="#666666"
     borderopacity="1"
     objecttolerance="10"
     gridtolerance="10"
     guidetolerance="10"
     inkscape:pageopacity="0"
     inkscape:pageshadow="2"
     inkscape:window-width="1920"
     inkscape:window-height="1016"
     id="namedview63"
     showgrid="false"
     inkscape:zoom="3.2734375"
     inkscape:cx="131.65625"
     inkscape:cy="132.56336"
     inkscape:window-x="0"
     inkscape:window-y="27"
     inkscape:window-maximized="1"
     inkscape:current-layer="g57" />
  <defs
     id="defs35">
    <filter
       id="filter1344"
       x="-.01"
       y="-.01"
       width="1.023"
       height="1.025"
       style="color-interpolation-filters:sRGB">
      <feGaussianBlur
         stdDeviation="1.06"
         id="feGaussianBlur2" />
    </filter>
    <filter
       id="filter959"
       x="-.01"
       y="-.01"
       width="1.023"
       height="1.025"
       style="color-interpolation-filters:sRGB">
      <feGaussianBlur
         stdDeviation="1.06"
         id="feGaussianBlur5" />
    </filter>
    <linearGradient
       id="linearGradient1057"
       x1="264"
       x2="48"
       y1="252"
       y2="52"
       gradientTransform="translate(-27.28,-38.771199)"
       gradientUnits="userSpaceOnUse">
      <stop
         style="stop-color:#000000"
         offset="0"
         id="stop8" />
      <stop
         style="stop-color:#000000;stop-opacity:.43290043"
         offset=".159"
         id="stop10" />
      <stop
         style="stop-color:#000000;stop-opacity:.0995671"
         offset=".194"
         id="stop12" />
      <stop
         style="stop-color:#000000;stop-opacity:0"
         offset="1"
         id="stop14" />
    </linearGradient>
    <clipPath
       id="clipPath977">
      <path
         d="M 78.994141,52 C 43.625611,52 40,53.999146 40,89.296875 V 140 H 264 V 108.92188 C 264,73.624145 260.37439,68 225.00586,68 H 138 L 122,52 Z"
         style="fill:#f6531e"
         id="path17" />
    </clipPath>
    <filter
       id="filter989"
       x="-.05"
       y="-.07"
       width="1.107"
       height="1.136"
       style="color-interpolation-filters:sRGB">
      <feGaussianBlur
         stdDeviation="5"
         id="feGaussianBlur20" />
    </filter>
    <linearGradient
       id="linearGradient4226"
       x1="224"
       x2="224"
       y1="86"
       y2="478"
       gradientTransform="matrix(.11988932 0 0 .11988932 3.1009196 232.21778)"
       gradientUnits="userSpaceOnUse">
      <stop
         style="stop-color:#fb7c38"
         offset="0"
         id="stop23" />
      <stop
         style="stop-color:#fda463"
         offset="1"
         id="stop25" />
    </linearGradient>
    <radialGradient
       id="radialGradient1371"
       cx="152"
       cy="-.126"
       r="112"
       gradientTransform="matrix(.26458333 0 0 .06959709 -6.4240801 236.13742)"
       gradientUnits="userSpaceOnUse"
       xlink:href="#linearGradient1361" />
    <linearGradient
       id="linearGradient1361">
      <stop
         style="stop-color:#ffffff"
         offset="0"
         id="stop29" />
      <stop
         style="stop-color:#ffffff;stop-opacity:.20392157"
         offset="1"
         id="stop31" />
    </linearGradient>
    <radialGradient
       id="radialGradient1363"
       cx="148"
       cy="39.684"
       r="112"
       gradientTransform="matrix(.26458333 0 0 .06723474 -6.4240801 242.98554)"
       gradientUnits="userSpaceOnUse"
       xlink:href="#linearGradient1361" />
    <filter
       id="filter1344-3"
       x="-0.0099999998"
       y="-0.0099999998"
       width="1.023"
       height="1.025"
       style="color-interpolation-filters:sRGB">
      <feGaussianBlur
         stdDeviation="1.06"
         id="feGaussianBlur1007" />
    </filter>
    <filter
       id="filter959-6"
       x="-0.0099999998"
       y="-0.0099999998"
       width="1.023"
       height="1.025"
       style="color-interpolation-filters:sRGB">
      <feGaussianBlur
         stdDeviation="1.06"
         id="feGaussianBlur1004" />
    </filter>
    <clipPath
       id="clipPath977-3">
      <path
         inkscape:connector-curvature="0"
         d="M 78.994141,52 C 43.625611,52 40,53.999146 40,89.296875 V 140 H 264 V 108.92188 C 264,73.624145 260.37439,68 225.00586,68 H 138 L 122,52 Z"
         style="fill:#f6531e"
         id="path989" />
    </clipPath>
    <filter
       id="filter989-7"
       x="-0.050000001"
       y="-0.07"
       width="1.107"
       height="1.136"
       style="color-interpolation-filters:sRGB">
      <feGaussianBlur
         stdDeviation="5"
         id="feGaussianBlur992" />
    </filter>
    <linearGradient
       id="linearGradient4226-5"
       x1="224"
       x2="224"
       y1="86"
       y2="478"
       gradientTransform="matrix(0.06152114,0,0,0.06152114,1.183921,265.91059)"
       gradientUnits="userSpaceOnUse">
      <stop
         style="stop-color:#fb7c38"
         offset="0"
         id="stop984" />
      <stop
         style="stop-color:#fda463"
         offset="1"
         id="stop986" />
    </linearGradient>
    <radialGradient
       id="radialGradient1371-3"
       cx="152"
       cy="-0.126"
       r="112"
       gradientTransform="matrix(0.1357708,0,0,0.03571371,-3.7038272,267.92195)"
       gradientUnits="userSpaceOnUse"
       xlink:href="#linearGradient1361" />
    <radialGradient
       id="radialGradient1363-5"
       cx="148"
       cy="39.683998"
       r="112"
       gradientTransform="matrix(0.1357708,0,0,0.03450147,-3.7038272,271.43606)"
       gradientUnits="userSpaceOnUse"
       xlink:href="#linearGradient1361" />
  </defs>
  <g
     transform="translate(0,-229.26666)"
     id="g59">
    <g
       transform="translate(0,1.5441334)"
       id="g57">
      <path
         transform="matrix(.26458333 0 0 .26458333 .79374998 230.51187)"
         d="m51.714141 15.228801c-35.36853 0-38.994141 1.999146-38.994141 37.296875v123.78124c0 35.29774 3.625611 38.92188 38.994141 38.92188h146.01172c35.36853 0 38.99414-3.62414 38.99414-38.92188v-104.15624c0-35.29774-3.62561-40.92188-38.99414-40.92188h-87.00586l-16-16z"
         style="filter:url(#filter1344);opacity:.1"
         id="path37" />
      <path
         transform="matrix(.26458333 0 0 .26458333 .79374998 230.51187)"
         d="m51.714141 14.228801c-35.36853 0-38.994141 1.999146-38.994141 37.296875v131.78124c0 35.29774 3.625611 38.92188 38.994141 38.92188h146.01172c35.36853 0 38.99414-3.62414 38.99414-38.92188v-112.15624c0-35.297735-3.62561-40.92188-38.99414-40.92188h-87.00586l-16-16z"
         style="filter:url(#filter959);opacity:.1"
         id="path39" />
      <path
         transform="matrix(.26458333 0 0 .26458333 .79374998 230.51187)"
         d="m51.714141 13.228801c-35.36853 0-38.994141 1.999146-38.994141 37.296875v131.78124c0 35.29774 3.625611 38.92188 38.994141 38.92188h146.01172c35.36853 0 38.99414-3.62414 38.99414-38.92188v-112.15624c0-35.29774-3.62561-40.92188-38.99414-40.92188h-87.00586l-16-16z"
         style="fill:url(#linearGradient1057);filter:url(#filter1067);opacity:.4"
         id="path41" />
      <path
         d="m14.476449 234.01199c-9.3579194 0-10.317199 0.52894-10.317199 9.86813v13.4152h59.266671v-8.22275c0-9.33919-0.959281-10.82725-10.317202-10.82725h-23.020301l-4.233339-4.23333z"
         style="fill:#4a86cf;fill-opacity:1"
         id="path43" />
      <path
         transform="matrix(.26458333 0 0 .26458333 -6.4240801 222.37032)"
         d="M 78.99353,92 C 43.625,92 40,95.625 40,130.92273 v 82.15454 C 40,248.375 43.625,252 78.99353,252 H 225.00647 C 260.375,252 264,248.375 264,213.07727 V 114.92273 C 264,79.625 260.375,76 225.00647,76 H 143.75 l -16.00782,16 z"
         clip-path="url(#clipPath977)"
         style="fill:#002e65;filter:url(#filter989);opacity:0.5;fill-opacity:1"
         id="path45" />
      <path
         d="m14.476289 246.71199c-9.3579192 0-10.317039 0.95911-10.317039 10.2983v21.73672c0 9.3392 0.9591202 10.29831 10.317039 10.29831h38.632591c9.357919 0 10.317041-0.95911 10.317041-10.29831v-25.97005c0-9.33919-0.959122-10.29831-10.317041-10.29831h-21.49911l-4.2354 4.23334z"
         style="fill:#e7f0fc;fill-opacity:1"
         id="path47" />
      <path
         d="m14.476449 234.01199c-9.3579194 0-10.317199 0.52894-10.317199 9.86813v0.52916c0-9.33919 0.95928-9.86813 10.317199-9.86813h11.37863l4.233339 4.23334h23.020301c9.357921 0 10.317202 1.48805 10.317202 10.82724v-0.52916c0-9.3392-0.959281-10.82725-10.317202-10.82725h-23.020301l-4.233339-4.23333z"
         style="fill:url(#radialGradient1371);opacity:.4"
         id="path49" />
      <path
         d="m31.60977 242.47865-4.2354 4.23334h-12.897921c-9.3579194 0-10.317199 0.95889-10.317199 10.29808v0.52916c0-9.33919 0.95928-10.29808 10.317199-10.29808h12.897921l4.2354-4.23333h21.498949c9.357921 0 10.317202 0.95889 10.317202 10.29808v-0.52917c0-9.33919-0.959281-10.29808-10.317202-10.29808z"
         style="fill:url(#radialGradient1363);opacity:.4"
         id="path51" />
      <path
         d="m 63.425921,271.58282 -18.548878,17.47184 h 7.247356 c 10.25072,0 11.301522,-0.98937 11.301522,-10.62558 z"
         style="opacity:0.2;fill:#ffffff;stroke-width:1.06312823"
         id="path53"
         inkscape:connector-curvature="0" />
      <path
         d="m 4.1592496,278.74721 v 0.52917 c 0,9.33919 0.95928,10.29808 10.3171994,10.29808 h 38.63227 c 9.357921,0 10.317202,-0.95889 10.317202,-10.29808 v -0.52917 c 0,9.3392 -0.959281,10.29808 -10.317202,10.29808 h -38.63227 c -9.3579198,0 -10.3171994,-0.95888 -10.3171994,-10.29808 z"
         style="opacity:1;fill:#4a86cf;fill-opacity:1"
         id="path55"
         inkscape:connector-curvature="0" />
      <g
         transform="matrix(1.9594801,0,0,1.9594801,-65.906303,-283.11167)"
         id="g1046">
        <g
           transform="matrix(0.95489871,0,0,0.95489871,-216.42202,222.88851)"
           id="g1044">
          <g
             transform="matrix(0.32043814,0,0,0.32043814,199.6234,40.163757)"
             style="opacity:0.7"
             id="g1042">
            <path
               style="color:#000000;font-style:normal;font-variant:normal;font-weight:normal;font-stretch:normal;font-size:medium;line-height:normal;font-family:sans-serif;font-variant-ligatures:normal;font-variant-position:normal;font-variant-caps:normal;font-variant-numeric:normal;font-variant-alternates:normal;font-feature-settings:normal;text-indent:0;text-align:start;text-decoration:none;text-decoration-line:none;text-decoration-style:solid;text-decoration-color:#000000;letter-spacing:normal;word-spacing:normal;text-transform:none;writing-mode:lr-tb;direction:ltr;text-orientation:mixed;dominant-baseline:auto;baseline-shift:baseline;text-anchor:start;white-space:normal;shape-padding:0;clip-rule:nonzero;display:inline;overflow:visible;visibility:visible;opacity:1;isolation:auto;mix-blend-mode:normal;color-interpolation:sRGB;color-interpolation-filters:linearRGB;solid-color:#000000;solid-opacity:1;vector-effect:none;fill:#4a86cf;fill-opacity:1;fill-rule:nonzero;stroke:none;stroke-width:8.37230492;stroke-linecap:square;stroke-linejoin:miter;stroke-miterlimit:4;stroke-dasharray:none;stroke-dashoffset:0;stroke-opacity:1;color-rendering:auto;image-rendering:auto;shape-rendering:auto;text-rendering:auto;enable-background:accumulate"
               d="M 150.74805 95.644531 C 120.74231 95.644524 96.328125 120.06066 96.328125 150.06641 L 96.328125 154.24805 L 104.69727 154.24805 L 104.69727 150.06641 C 104.69727 124.58539 125.26703 104.01562 150.74805 104.01562 L 154.93555 104.01562 L 154.93555 95.644531 L 150.74805 95.644531 z M 150.74805 112.39062 C 129.99008 112.39062 113.07224 129.30843 113.07227 150.06641 L 113.07227 154.24805 L 121.44336 154.24805 L 121.44336 150.06641 C 121.44334 133.83316 134.51483 120.75976 150.74805 120.75977 L 154.93555 120.75977 L 154.93555 112.39062 L 150.74805 112.39062 z M 150.74805 129.13477 C 139.23789 129.13476 129.81638 138.55624 129.81641 150.06641 L 129.81641 154.24805 L 138.1875 154.24805 L 138.1875 150.06641 C 138.18748 143.08097 143.76262 137.5039 150.74805 137.50391 L 154.93555 137.50391 L 154.93555 129.13477 L 150.74805 129.13477 z M 152.8418 145.87695 A 6.2796836 6.2796836 0 0 0 146.56055 152.15625 A 6.2796836 6.2796836 0 0 0 152.8418 158.43555 A 6.2796836 6.2796836 0 0 0 159.12109 152.15625 A 6.2796836 6.2796836 0 0 0 152.8418 145.87695 z M 146.56641 166.79688 L 146.56641 191.91211 L 159.125 191.91211 L 159.125 166.79688 L 146.56641 166.79688 z "
               transform="matrix(0.44126425,0,0,0.44126425,194.24577,-1.7712691)"
               id="path1032" />
          </g>
        </g>
      </g>
    </g>
  </g>
</svg>
