<?xml version="1.0" encoding="UTF-8" standalone="no"?>
<!-- Created with Inkscape (http://www.inkscape.org/) -->

<svg
   xmlns:dc="http://purl.org/dc/elements/1.1/"
   xmlns:cc="http://creativecommons.org/ns#"
   xmlns:rdf="http://www.w3.org/1999/02/22-rdf-syntax-ns#"
   xmlns:svg="http://www.w3.org/2000/svg"
   xmlns="http://www.w3.org/2000/svg"
   xmlns:sodipodi="http://sodipodi.sourceforge.net/DTD/sodipodi-0.dtd"
   xmlns:inkscape="http://www.inkscape.org/namespaces/inkscape"
   width="256"
   height="256"
   viewBox="0 0 67.733332 67.733336"
   version="1.1"
   id="svg1333"
   inkscape:version="0.92.3 (2405546, 2018-03-11)"
   sodipodi:docname="user-home.svg">
  <defs
     id="defs1327">
    <clipPath
       clipPathUnits="userSpaceOnUse"
       id="clipPath1509">
      <path
         sodipodi:nodetypes="ccccccccc"
         inkscape:connector-curvature="0"
         id="path1511"
         d="M 192,-164 H 88 c 0,0 -40,0 -40,40 V 4 h 416 v -96 c 0,0 0,-40 -40,-40 H 224 Z"
         style="display:inline;opacity:1;vector-effect:none;fill:#c9b8a7;fill-opacity:1;stroke:none;stroke-width:26.06693268;stroke-linecap:butt;stroke-linejoin:miter;stroke-miterlimit:4;stroke-dasharray:none;stroke-dashoffset:0;stroke-opacity:1;marker:none;marker-start:none;marker-mid:none;marker-end:none;paint-order:normal;enable-background:new" />
    </clipPath>
    <clipPath
       clipPathUnits="userSpaceOnUse"
       id="clipPath1509-7">
      <path
         sodipodi:nodetypes="ccccccccc"
         inkscape:connector-curvature="0"
         id="path1511-5"
         d="M 192,-164 H 88 c 0,0 -40,0 -40,40 V 4 h 416 v -96 c 0,0 0,-40 -40,-40 H 224 Z"
         style="display:inline;opacity:1;vector-effect:none;fill:#c9b8a7;fill-opacity:1;stroke:none;stroke-width:26.06693268;stroke-linecap:butt;stroke-linejoin:miter;stroke-miterlimit:4;stroke-dasharray:none;stroke-dashoffset:0;stroke-opacity:1;marker:none;marker-start:none;marker-mid:none;marker-end:none;paint-order:normal;enable-background:new" />
    </clipPath>
    <clipPath
       clipPathUnits="userSpaceOnUse"
       id="clipPath1509-3">
      <path
         sodipodi:nodetypes="ccccccccc"
         inkscape:connector-curvature="0"
         id="path1511-6"
         d="M 192,-164 H 88 c 0,0 -40,0 -40,40 V 4 h 416 v -96 c 0,0 0,-40 -40,-40 H 224 Z"
         style="display:inline;opacity:1;vector-effect:none;fill:#c9b8a7;fill-opacity:1;stroke:none;stroke-width:26.06693268;stroke-linecap:butt;stroke-linejoin:miter;stroke-miterlimit:4;stroke-dasharray:none;stroke-dashoffset:0;stroke-opacity:1;marker:none;marker-start:none;marker-mid:none;marker-end:none;paint-order:normal;enable-background:new" />
    </clipPath>
    <filter
       inkscape:collect="always"
       style="color-interpolation-filters:sRGB"
       id="filter1529"
       x="-0.10846154"
       width="1.2169231"
       y="-0.1342857"
       height="1.2685714">
      <feGaussianBlur
         inkscape:collect="always"
         stdDeviation="18.8"
         id="feGaussianBlur1531" />
    </filter>
    <filter
       inkscape:collect="always"
       style="color-interpolation-filters:sRGB"
       id="filter1302"
       x="-0.012000846"
       width="1.0240017"
       y="-0.011999154"
       height="1.0239983">
      <feGaussianBlur
         inkscape:collect="always"
         stdDeviation="2.0803224"
         id="feGaussianBlur1304" />
    </filter>
    <filter
       inkscape:collect="always"
       style="color-interpolation-filters:sRGB"
       id="filter1316"
       x="-0.013329623"
       width="1.0266593"
       y="-0.12030141"
       height="1.2406029">
      <feGaussianBlur
         inkscape:collect="always"
         stdDeviation="2.3104787"
         id="feGaussianBlur1318" />
    </filter>
  </defs>
  <sodipodi:namedview
     id="base"
     pagecolor="#ffffff"
     bordercolor="#666666"
     borderopacity="1.0"
     inkscape:pageopacity="0.0"
     inkscape:pageshadow="2"
     inkscape:zoom="3.6477212"
     inkscape:cx="120.59432"
     inkscape:cy="113.49916"
     inkscape:document-units="mm"
     inkscape:current-layer="g6962"
     showgrid="false"
     units="px"
     inkscape:window-width="1920"
     inkscape:window-height="1016"
     inkscape:window-x="0"
     inkscape:window-y="27"
     inkscape:window-maximized="1" />
  <metadata
     id="metadata1330">
    <rdf:RDF>
      <cc:Work
         rdf:about="">
        <dc:format>image/svg+xml</dc:format>
        <dc:type
           rdf:resource="http://purl.org/dc/dcmitype/StillImage" />
        <dc:title></dc:title>
      </cc:Work>
    </rdf:RDF>
  </metadata>
  <g
     inkscape:label="Livello 1"
     inkscape:groupmode="layer"
     id="layer1"
     transform="translate(0,-229.26665)">
    <g
       style="display:inline;enable-background:new"
       transform="matrix(0.14248483,0,0,0.14248483,-2.2124364,256.01624)"
       id="g6962">
      <path
         id="path1310"
         d="m 464.0001,209.99997 c 0,0 0,40 -40,40 l -375.998046,0.0938 -0.004,6 L 424,255.99997 c 40,0 40,-40 40,-40 z"
         style="display:inline;opacity:0.1;vector-effect:none;fill:#000000;fill-opacity:1;stroke:none;stroke-width:26.06693268;stroke-linecap:butt;stroke-linejoin:miter;stroke-miterlimit:4;stroke-dasharray:none;stroke-dashoffset:0;stroke-opacity:1;marker:none;marker-start:none;marker-mid:none;marker-end:none;paint-order:normal;filter:url(#filter1316);enable-background:new"
         inkscape:connector-curvature="0" />
      <path
         inkscape:connector-curvature="0"
         id="path1461"
         d="m 88.000104,-162.00003 c 0,0 -40,0 -40,40 l -0.0352,127.9999949 h 0.0332 l -0.0332,248.0938051 376.035156,-0.0938 c 40,0 40,-40 40,-40 V 5.9999649 -42.000033 v -48 c 0,0 0,-39.999997 -40,-39.999997 h -200 l -32,-32 z"
         style="display:inline;opacity:0.2;vector-effect:none;fill:#000000;fill-opacity:1;stroke:none;stroke-width:26.06693268;stroke-linecap:butt;stroke-linejoin:miter;stroke-miterlimit:4;stroke-dasharray:none;stroke-dashoffset:0;stroke-opacity:1;marker:none;marker-start:none;marker-mid:none;marker-end:none;paint-order:normal;filter:url(#filter1302);enable-background:new" />
      <path
         style="display:inline;opacity:1;vector-effect:none;fill:#c9b8a7;fill-opacity:1;stroke:none;stroke-width:26.06693268;stroke-linecap:butt;stroke-linejoin:miter;stroke-miterlimit:4;stroke-dasharray:none;stroke-dashoffset:0;stroke-opacity:1;marker:none;marker-start:none;marker-mid:none;marker-end:none;paint-order:normal;enable-background:new"
         d="M 192.00011,-164.00002 H 88.000104 c 0,0 -40,0 -40,40 V 3.9999809 H 464.00011 V -92.000023 c 0,0 0,-39.999997 -39.99999,-39.999997 H 224.00011 Z"
         id="path1442"
         inkscape:connector-curvature="0"
         sodipodi:nodetypes="ccccccccc" />
      <path
         id="path1505"
         d="m 256,-80 -32,32 H 88 c 0,0 -40,0 -40,40 v 264 h 376 c 40,0 40,-40 40,-40 V -40 c 0,-40 -40,-40 -40,-40 z"
         style="display:inline;opacity:0.1;vector-effect:none;fill:#000000;fill-opacity:1;stroke:none;stroke-width:26.06693268;stroke-linecap:butt;stroke-linejoin:miter;stroke-miterlimit:4;stroke-dasharray:none;stroke-dashoffset:0;stroke-opacity:1;marker:none;marker-start:none;marker-mid:none;marker-end:none;paint-order:normal;filter:url(#filter1529);enable-background:new"
         inkscape:connector-curvature="0"
         sodipodi:nodetypes="cccccccccc"
         clip-path="url(#clipPath1509-3)"
         transform="translate(1.0107064e-4,-3.5134784e-5)" />
      <path
         sodipodi:nodetypes="cccccccccc"
         inkscape:connector-curvature="0"
         style="display:inline;opacity:1;vector-effect:none;fill:#ded4ca;fill-opacity:1;stroke:none;stroke-width:26.06693268;stroke-linecap:butt;stroke-linejoin:miter;stroke-miterlimit:4;stroke-dasharray:none;stroke-dashoffset:0;stroke-opacity:1;marker:none;marker-start:none;marker-mid:none;marker-end:none;paint-order:normal;enable-background:new"
         d="m 256.00011,-84.000023 -32,32 H 88.000104 c 0,0 -40,0 -40,39.999995 V 251.99997 H 424.00012 c 39.99999,0 39.99999,-39.99999 39.99999,-39.99999 V -44.000023 c 0,-40 -39.99999,-40 -39.99999,-40 z"
         id="rect1100-0-9" />
      <path
         style="display:inline;opacity:0.1;vector-effect:none;fill:#000000;fill-opacity:1;stroke:none;stroke-width:26.06693268;stroke-linecap:butt;stroke-linejoin:miter;stroke-miterlimit:4;stroke-dasharray:none;stroke-dashoffset:0;stroke-opacity:1;marker:none;marker-start:none;marker-mid:none;marker-end:none;paint-order:normal;enable-background:new"
         d="m 464.00011,205.99998 c 0,0 0,40 -39.99999,40 l -375.998066,0.0938 -0.004,6.00002 L 424.00002,252 c 39.99999,0 39.99999,-39.99999 39.99999,-39.99999 z"
         id="path1449"
         inkscape:connector-curvature="0" />
      <path
         style="display:inline;opacity:0.3;vector-effect:none;fill:#ffffff;fill-opacity:1;stroke:none;stroke-width:26.06693268;stroke-linecap:butt;stroke-linejoin:miter;stroke-miterlimit:4;stroke-dasharray:none;stroke-dashoffset:0;stroke-opacity:1;marker:none;marker-start:none;marker-mid:none;marker-end:none;paint-order:normal;enable-background:new"
         d="m 256.00011,-84.000023 -32,32 H 88.000104 c 0,0 -40,0 -40,39.999995 v 3.9999979 c 0,-39.9999929 40,-39.9999929 40,-39.9999929 H 225.59108 l 32.00002,-32 h 166.40902 c 0,0 39.99999,0 39.99999,40 v -4 c 0,-40 -39.99999,-40 -39.99999,-40 z"
         id="path1328"
         inkscape:connector-curvature="0"
         sodipodi:nodetypes="cccsccccccscc" />
      <g
         transform="matrix(0,-1.8562798,-1.8570142,0,985.26689,824.50377)"
         style="opacity:0.4;fill:#080808;fill-opacity:1;enable-background:new"
         id="g65">
        <path
           inkscape:connector-curvature="0"
           d="m 417.99469,353.3622 h 12.00475 v 12.01076 z"
           style="fill:#080808;fill-opacity:1"
           id="path57" />
        <path
           inkscape:connector-curvature="0"
           d="m 403.98915,433.3622 h -54.02137 l -1.5e-4,-51.99998 h 4.00159 l 1.5e-4,47.98826 54.02136,0.0117 z m 4.00158,-76 -58.0231,2e-5 v -4.01172 l 54.02151,0.0117 z"
           style="fill:#080808;fill-opacity:1"
           id="path59" />
        <path
           inkscape:connector-curvature="0"
           d="m 395.38322,341.93164 -2.79492,2.86133 49.55395,48.57031 -49.55395,48.56836 2.79492,2.86133 52.48559,-51.43164 z"
           style="fill:#080808;fill-opacity:1"
           id="path61" />
        <path
           inkscape:connector-curvature="0"
           d="m 388.74504,397.36217 c 0.2538,-1.01585 0.5239,-2.36509 0.80985,-4.04761 0.28572,-1.68252 0.42858,-3.61904 0.42858,-5.80952 0,-1.96822 -0.28571,-3.60317 -0.85748,-4.90475 -0.5399,-1.30156 -1.318,-2.33332 -2.33429,-3.09522 -0.98451,-0.79367 -2.17546,-1.34919 -3.57285,-1.66667 -1.39737,-0.31762 -2.93765,-0.47618 -4.62083,-0.47618 h -28.63043 l 1.9e-4,20 z"
           style="fill:#080808;fill-opacity:1"
           id="path63" />
      </g>
    </g>
  </g>
</svg>
