<svg height="16" width="16" xmlns="http://www.w3.org/2000/svg">
  <g fill="#474747">
    <path d="m2.188 4.094a6.937 6.937 0 0 0 -1.188 3.906 7 7 0 0 0 14 0c0-1.45-.433-2.789-1.188-3.906-.198.135-.424.25-.624.343-.85.395-1.855.563-2.938.563h-4.5c-1.083 0-2.087-.168-2.938-.563a4.443 4.443 0 0 1 -.624-.343zm3.812 1.906c.558 0 1.031.473 1.031 1.031v.969c0 .558-.473 1-1.031 1s-1-.442-1-1v-.969c0-.558.442-1.031 1-1.031zm4 0c.558 0 1 .473 1 1.031v.969c0 .558-.442 1-1 1s-1-.442-1-1v-.969c0-.558.442-1.031 1-1.031zm-7 3.063c.715 1.073 2.235 1.937 5 1.937 2.452 0 4.21-.75 5-1.938v.5c0 .681-.838 2.407-5 2.407-3.88 0-5-1.874-5-2.406z"/>
    <path d="m5.736 0c-.958 0-1.826.172-2.5.484-.673.312-1.236.811-1.236 1.516s.563 1.204 1.236 1.516c.674.312 1.542.484 2.5.484h4.528c.958 0 1.826-.172 2.5-.484.673-.312 1.236-.811 1.236-1.516s-.563-1.204-1.236-1.516c-.674-.312-1.542-.484-2.5-.484zm0 1h4.528c.834 0 1.583.162 2.08.393.496.23.656.481.656.607s-.16.377-.656.607c-.497.23-1.246.393-2.08.393h-4.528c-.834 0-1.583-.162-2.08-.393-.496-.23-.656-.481-.656-.607s.16-.377.656-.607c.497-.23 1.246-.393 2.08-.393z"/>
  </g>
</svg>
