<svg xmlns="http://www.w3.org/2000/svg" width="16" height="16" version="1.1">
 <title id="title9167">
  Gnome Symbolic Icon Theme
 </title>
 <g transform="translate(-561.04735,-539.18755)">
  <path fill="#444" d="m 569.0627,540.1875 c -3.86599,0 -7,3.13401 -7,7 0,3.86599 3.13401,7 7,7 3.86599,0 7,-3.13401 7,-7 0,-3.86599 -3.13401,-7 -7,-7 z m -2,4 c 0.55833,0 1.03125,0.47292 1.03125,1.03125 l 0,0.96875 c 0,0.55833 -0.47292,1 -1.03125,1 -0.55833,0 -1,-0.44167 -1,-1 l 0,-0.96875 c 0,-0.55833 0.44167,-1.03125 1,-1.03125 z m 4,0 c 0.55833,0 1,0.47292 1,1.03125 l 0,0.96875 c 0,0.55833 -0.44167,1 -1,1 -0.55833,0 -1,-0.44167 -1,-1 l 0,-0.96875 c 0,-0.55833 0.44167,-1.03125 1,-1.03125 z m -6.41236,2.71875 c 0.77942,3.30615 4.69296,4.43234 7.7053,3.28697 0.007,0.59795 -0.19508,1.09717 -1.15444,1.28594 -2.16551,0.4261 -5.16082,-0.14239 -6.68,-2.59331 -0.6661,-1.07464 -0.12703,-1.68512 0.12914,-1.97969 z"/>
 </g>
</svg>
