<svg height="16" width="16" xmlns="http://www.w3.org/2000/svg">
  <path d="m8.0000001-.00023425c-4.432 0-8.00000005 3.56800045-8.00000005 8.00000045 0 3.5729688 2.31995295 6.5801278 5.54101595 7.6132808v-1.662109c-2.02505.44688-2.4511719-.890625-2.4511719-.890625-.33119-.85462-.808594-1.082031-.808594-1.082031-.66103-.45857.04883-.451172.04883-.451172.7307201.05219 1.1152341.763672 1.1152341.763672.649401 1.13032 1.704391.804594 2.1191409.615234.06615-.47773.2550711-.805404.462891-.990234-1.6165-.1867-3.017578-1.220416-3.017578-4.0550158 0-.807401.586534-1.867737 1.052234-2.384438-.0751-.1871-.326088-1.339321.07031-2.357421 0 0 .03819-.01202.117188-.01563.2369-.0111.7698.43835 1.8125 1.15625.629544-.180863 1.435033-.265432 1.938-.269532.567132-.0047 1.223838.09289 1.815614.269532 1.0429999-.7179 1.7093129-1.169203 1.9453129-1.158204h.002c.0789.0037.117187.01563.117188.01563.39732 1.01806.146905 2.172275.07227 2.359374.466519.516801 1.047615 1.577037 1.047615 2.384439 0 2.8418198-1.700866 3.8661458-3.322266 4.0491558.261006.2284.326172.681284.326172 1.371094 0 .83312-.0021 1.37464-.0039 1.71875v.740234c3.456568-.884681 5.999994-4.000318 5.999994-7.7402338 0-4.432-3.568-8.00000045-7.9999999-8.00000045z" fill="#474747"/>
</svg>
