<svg width="16" height="16" viewBox="0 0 16 16" fill="none" xmlns="http://www.w3.org/2000/svg">
    <g id="icone">
        <path id="library" fill-rule="evenodd" clip-rule="evenodd" d="M10.3163 14.389H8.24937C8.15801 14.389 8.07039 14.3528 8.00579 14.2882C7.94118 14.2236 7.90489 14.1359 7.90489 14.0446V1.87294C7.90489 1.78158 7.94118 1.69396 8.00579 1.62935C8.07039 1.56475 8.15801 1.52846 8.24937 1.52846H10.3163C10.4076 1.52846 10.4952 1.56475 10.5598 1.62935C10.6244 1.69396 10.6607 1.78158 10.6607 1.87294V14.0446C10.6607 14.1359 10.6244 14.2236 10.5598 14.2882C10.4952 14.3528 10.4076 14.389 10.3163 14.389ZM1.35977 14.389H2.96734C3.05871 14.389 3.14633 14.3528 3.21093 14.2882C3.27553 14.2236 3.31182 14.1359 3.31182 14.0446V3.25086C3.31182 3.1595 3.27553 3.07188 3.21093 3.00727C3.14633 2.94267 3.05871 2.90638 2.96734 2.90638H1.35977C1.26841 2.90638 1.18079 2.94267 1.11619 3.00727C1.05158 3.07188 1.01529 3.1595 1.01529 3.25086V14.0446C1.01529 14.1359 1.05158 14.2236 1.11619 14.2882C1.18079 14.3528 1.26841 14.389 1.35977 14.389ZM7.44558 5.08809V6.58083H3.77113V5.08809C3.77113 4.99672 3.80742 4.9091 3.87203 4.8445C3.93663 4.7799 4.02425 4.74361 4.11561 4.74361H7.1011C7.19247 4.74361 7.28009 4.7799 7.34469 4.8445C7.40929 4.9091 7.44558 4.99672 7.44558 5.08809ZM3.77113 12.5518V14.0446C3.77113 14.1359 3.80742 14.2236 3.87203 14.2882C3.93663 14.3528 4.02425 14.389 4.11561 14.389H7.1011C7.19247 14.389 7.28009 14.3528 7.34469 14.2882C7.40929 14.2236 7.44558 14.1359 7.44558 14.0446V12.5518H3.77113ZM7.44558 7.49945H3.77113V11.6332H7.44558V7.49945ZM12.0099 14.0598L11.1487 3.50061C11.1413 3.41105 11.1692 3.32214 11.2264 3.25285C11.2837 3.18356 11.3657 3.13937 11.455 3.12972L13.5257 2.91413C13.5712 2.90939 13.6173 2.91379 13.6612 2.92708C13.7051 2.94037 13.7458 2.96228 13.7811 2.99153C13.8164 3.02078 13.8455 3.05677 13.8667 3.09741C13.8879 3.13805 13.9008 3.1825 13.9046 3.22818L14.7681 13.7446C14.7754 13.8332 14.7483 13.9212 14.6923 13.9902C14.6362 14.0592 14.5557 14.1039 14.4675 14.1149L12.3961 14.3733C12.35 14.379 12.3032 14.3754 12.2585 14.3626C12.2138 14.3499 12.1722 14.3282 12.1361 14.2989C12.1001 14.2696 12.0703 14.2333 12.0486 14.1922C12.0269 14.1511 12.0138 14.1061 12.0099 14.0598Z" fill="#444444"/>
    </g>
</svg>
