<svg width="16" height="16" viewBox="0 0 16 16" fill="none" xmlns="http://www.w3.org/2000/svg">
    <g id="icone">
        \<path id="aur" d="M7.90747 1.08177C7.29542 2.58096 6.92407 3.56436 6.24324 5.02229C6.66274 5.46241 7.17164 5.97819 8.00375 6.56273C7.10974 6.19137 6.49769 5.82689 6.04381 5.44178C5.15668 7.27106 3.80191 9.84993 1.03049 14.8357C3.21049 13.5773 4.90223 12.8002 6.47706 12.5044C6.40829 12.2156 6.36703 11.8993 6.37391 11.5692V11.5004C6.40829 10.1044 7.13725 9.03157 7.99688 9.10722C8.8565 9.17599 9.52357 10.3657 9.48918 11.7686C9.4823 12.0299 9.4548 12.2844 9.40666 12.5182C10.9609 12.8208 12.632 13.591 14.7845 14.8357C14.3581 14.0518 13.9799 13.3503 13.6223 12.6832C13.0652 12.2431 12.4532 11.6655 11.2428 11.0534C12.0749 11.2597 12.6732 11.5073 13.1409 11.7892C9.46167 4.94664 9.16596 4.03888 7.90747 1.08177Z" fill="#444444"/>
    </g>
</svg>
