<svg width="16" height="16" viewBox="0 0 16 16" fill="none" xmlns="http://www.w3.org/2000/svg">
    <g id="icone">
        <path id="freedesktop" fill-rule="evenodd" clip-rule="evenodd" d="M1.29238 1.08177C1.14046 1.08177 1.0173 1.20493 1.0173 1.35685V5.62058C1.0173 5.77251 1.14046 5.89566 1.29238 5.89566H4.8113L6.98326 11.5348H6.08908C5.93716 11.5348 5.814 11.6579 5.814 11.8099V14.5607C5.814 14.7126 5.93716 14.8357 6.08908 14.8357H9.66511C9.81704 14.8357 9.94019 14.7126 9.94019 14.5607V11.8099C9.94019 11.6579 9.81704 11.5348 9.66511 11.5348H9.61108L10.5826 10.416H14.5094C14.6613 10.416 14.7845 10.2928 14.7845 10.1409V6.56487C14.7845 6.41295 14.6613 6.28979 14.5094 6.28979H9.55797C9.4413 6.28979 9.3416 6.36241 9.30161 6.46492L7.20659 5.17254V1.35685C7.20659 1.20493 7.08343 1.08177 6.93151 1.08177H1.29238ZM9.06461 11.5348L10.0361 10.416H9.55797C9.40604 10.416 9.28289 10.2928 9.28289 10.1409V6.93818L7.20434 5.65596C7.18698 5.79117 7.07145 5.89566 6.93151 5.89566H5.25347L7.42543 11.5348H9.06461Z" fill="#444444"/>
    </g>
</svg>
