<svg width="16" height="16" viewBox="0 0 16 16" fill="none" xmlns="http://www.w3.org/2000/svg">
    <g id="icone">
        <path id="log" d="M1.00009 1.08177V14.8357H1.83285C1.44665 14.3844 1.49685 13.9831 1.85968 13.5194L4.04711 11.3524C3.75527 10.8494 3.57892 10.2719 3.57892 9.65114C3.57892 7.7483 5.12692 6.18579 7.01742 6.18579C8.90793 6.18579 10.4559 7.7483 10.4559 9.65114C10.4559 11.554 8.90793 13.1165 7.01742 13.1165C6.32181 13.1165 5.68 12.914 5.13699 12.5524L2.7462 14.8357H13.0617C12.9534 14.7275 12.8736 14.5712 12.8736 14.4059C12.8736 14.0755 13.1342 13.8149 13.4646 13.8149C13.7951 13.8149 14.0825 14.0755 14.0825 14.4059C14.0825 14.5712 14.0027 14.7275 13.8944 14.8357H14.7541V1.08177H13.8944C13.7862 1.19005 13.6299 1.26981 13.4646 1.26981C13.2994 1.26981 13.17 1.19004 13.0617 1.08177H2.69248C2.5842 1.19004 2.45475 1.26981 2.28953 1.26981C2.1243 1.26981 1.96799 1.19004 1.85971 1.08177H1.00009ZM2.28953 1.78022C2.61998 1.78022 2.88052 2.04075 2.88052 2.37121C2.88052 2.70166 2.61998 2.98906 2.28953 2.98906C1.95907 2.98906 1.67167 2.70166 1.67167 2.37121C1.67167 2.04075 1.95907 1.78022 2.28953 1.78022ZM13.4646 1.78022C13.7951 1.78022 14.0825 2.04075 14.0825 2.37121C14.0825 2.70166 13.7951 2.98906 13.4646 2.98906C13.1342 2.98906 12.8736 2.70166 12.8736 2.37121C12.8736 2.04075 13.1342 1.78022 13.4646 1.78022ZM2.28953 3.49946C2.61998 3.49946 2.88052 3.76 2.88052 4.09045C2.88052 4.42091 2.61998 4.70831 2.28953 4.70831C1.95907 4.70831 1.67167 4.42091 1.67167 4.09045C1.67167 3.76 1.95907 3.49946 2.28953 3.49946ZM13.4646 3.49946C13.7951 3.49946 14.0825 3.76 14.0825 4.09045C14.0825 4.42091 13.7951 4.70831 13.4646 4.70831C13.1342 4.70831 12.8736 4.42091 12.8736 4.09045C12.8736 3.76 13.1342 3.49946 13.4646 3.49946ZM2.28953 5.21871C2.61998 5.21871 2.88052 5.47924 2.88052 5.8097C2.88052 6.14016 2.61998 6.42756 2.28953 6.42756C1.95907 6.42756 1.67167 6.14016 1.67167 5.8097C1.67167 5.47924 1.95907 5.21871 2.28953 5.21871ZM13.4646 5.21871C13.7951 5.21871 14.0825 5.47924 14.0825 5.8097C14.0825 6.14016 13.7951 6.42756 13.4646 6.42756C13.1342 6.42756 12.8736 6.14016 12.8736 5.8097C12.8736 5.47924 13.1342 5.21871 13.4646 5.21871ZM2.28953 6.93796C2.61998 6.93796 2.88052 7.19849 2.88052 7.52895C2.88052 7.8594 2.61998 8.1468 2.28953 8.1468C1.95907 8.1468 1.67167 7.8594 1.67167 7.52895C1.67167 7.19849 1.95907 6.93796 2.28953 6.93796ZM13.4646 6.93796C13.7951 6.93796 14.0825 7.19849 14.0825 7.52895C14.0825 7.8594 13.7951 8.1468 13.4646 8.1468C13.1342 8.1468 12.8736 7.8594 12.8736 7.52895C12.8736 7.19849 13.1342 6.93796 13.4646 6.93796ZM7.05202 7.97219C6.09595 7.97219 5.34047 8.74256 5.34047 9.70487C5.34047 10.6672 6.09595 11.4375 7.05202 11.4375C8.00809 11.4375 8.76357 10.6672 8.76357 9.70487C8.76357 8.74256 8.00809 7.97219 7.05202 7.97219ZM2.28953 8.6572C2.61998 8.6572 2.88052 8.91774 2.88052 9.24819C2.88052 9.57865 2.61998 9.86605 2.28953 9.86605C1.95907 9.86605 1.67167 9.57865 1.67167 9.24819C1.67167 8.91774 1.95907 8.6572 2.28953 8.6572ZM13.4646 8.6572C13.7951 8.6572 14.0825 8.91774 14.0825 9.24819C14.0825 9.57865 13.7951 9.86605 13.4646 9.86605C13.1342 9.86605 12.8736 9.57865 12.8736 9.24819C12.8736 8.91774 13.1342 8.6572 13.4646 8.6572ZM2.28953 10.3765C2.61998 10.3765 2.88052 10.637 2.88052 10.9674C2.88052 11.2979 2.61998 11.5853 2.28953 11.5853C1.95907 11.5853 1.67167 11.2979 1.67167 10.9674C1.67167 10.637 1.95907 10.3765 2.28953 10.3765ZM13.4646 10.3765C13.7951 10.3765 14.0825 10.637 14.0825 10.9674C14.0825 11.2979 13.7951 11.5853 13.4646 11.5853C13.1342 11.5853 12.8736 11.2979 12.8736 10.9674C12.8736 10.637 13.1342 10.3765 13.4646 10.3765ZM13.4646 12.0957C13.7951 12.0957 14.0825 12.3562 14.0825 12.6867C14.0825 13.0171 13.7951 13.3045 13.4646 13.3045C13.1342 13.3045 12.8736 13.0171 12.8736 12.6867C12.8736 12.3562 13.1342 12.0957 13.4646 12.0957Z" fill="#444444"/>
    </g>
</svg>
