<svg width="16" height="16" viewBox="0 0 16 16" fill="none" xmlns="http://www.w3.org/2000/svg">
    <g id="icone">
        <path id="design" d="M10.3252 7.72082L11.1982 8.59388L10.1103 9.68184C10.0297 9.76243 10.0297 9.84302 10.1103 9.92361L10.3386 10.1519C10.4192 10.2325 10.4998 10.2325 10.5804 10.1519L11.6683 9.06399L13.3473 10.7429L12.2593 11.8309C12.1787 11.9115 12.1787 11.9876 12.2593 12.0592L12.4877 12.301C12.5682 12.3816 12.6488 12.3816 12.7294 12.301L13.8174 11.213L14.6636 12.0592C14.7442 12.1398 14.7845 12.2383 14.7845 12.3547C14.7845 12.4711 14.7442 12.5741 14.6636 12.6637L12.5145 14.8127C12.425 14.8933 12.322 14.9336 12.2056 14.9336C12.0892 14.9336 11.9907 14.8933 11.9101 14.8127L7.57168 10.4743L5.04654 12.9994C4.90327 13.1427 4.72866 13.2144 4.52271 13.2144C4.31676 13.2144 4.14214 13.1427 3.99887 12.9994L2.97807 11.9652C2.8348 11.8219 2.76317 11.6496 2.76317 11.4481C2.76317 11.2466 2.8348 11.0743 2.97807 10.931L5.50322 8.40584L1.15137 4.05399C1.07078 3.9734 1.03049 3.8749 1.03049 3.7585C1.03049 3.64209 1.07078 3.54359 1.15137 3.463L3.30043 1.30051C3.38997 1.21992 3.49295 1.17963 3.60936 1.17963C3.72576 1.17963 3.82426 1.21992 3.90485 1.30051L4.75104 2.1467L3.66308 3.23466C3.58249 3.31525 3.58249 3.39584 3.66308 3.47643L3.89142 3.70477C3.97201 3.78536 4.0526 3.78536 4.13319 3.70477L5.22115 2.61681L6.9001 4.29576L5.81214 5.38372C5.73155 5.46431 5.73155 5.5449 5.81214 5.62549L6.04048 5.85383C6.12107 5.93442 6.20166 5.93442 6.28225 5.85383L7.37021 4.76587L8.24326 5.65235L12.5011 1.39453C12.6444 1.25126 12.8167 1.17963 13.0182 1.17963C13.2197 1.17963 13.3921 1.25126 13.5353 1.39453L14.5696 2.42877C14.7128 2.57204 14.7845 2.74441 14.7845 2.94588C14.7845 3.14736 14.7128 3.31973 14.5696 3.463L10.3252 7.72082ZM1.91697 12.0324C1.93488 12.104 1.96622 12.1622 2.011 12.207L3.75711 13.9531C3.80188 13.9979 3.86008 14.0292 3.93172 14.0471C3.88694 14.1367 3.85113 14.1904 3.82426 14.2083L1.4603 14.9336C1.24539 14.9336 1.12003 14.9157 1.08421 14.8799C1.0484 14.8441 1.03049 14.7187 1.03049 14.5038L1.75579 12.1398C1.7737 12.1219 1.82743 12.0861 1.91697 12.0324Z" fill="#444444"/>
    </g>
</svg>
