<svg height="16" width="16" xmlns="http://www.w3.org/2000/svg">
  <path d="m12.238 1.9922c-.241.0012-.464.08-.674.2305-.53.381-1.6281.7793-3.5581.7793-1.94 0-3.0404-.3983-3.5704-.7793-.21-.151-.4103-.2207-.6503-.2207s-.5206.0697-.8106.2207c-1.03.551-1.98976 2.3332-2.50976 4.6582-.439996 1.984-.59984 4.6791-.33984 5.7641.23.942.62986 1.355 1.3398 1.355 1.04-.02 2.3495-1.186 3.1895-2.76.6-.872 2.0016-1.2629 3.3516-1.222 1.34-.0509 2.7401.35 3.3401 1.222.84 1.574 2.149 2.74 3.199 2.76.7 0 1.1-.413 1.33-1.355.26-1.085.1-3.7801-.34-5.7641-.52-2.325-1.48-4.1072-2.51-4.6582-.285-.1555-.545-.2318-.787-.2305zm-8.238 3.0078h1v1h1v1h-1v1h-1v-1h-1v-1h1zm7.5 0a.5.5 0 0 1 .5.5.5.5 0 0 1 -.5.5.5.5 0 0 1 -.5-.5.5.5 0 0 1 .5-.5zm-1 1a.5.5 0 0 1 .5.5.5.5 0 0 1 -.5.5.5.5 0 0 1 -.5-.5.5.5 0 0 1 .5-.5zm2 0a.5.5 0 0 1 .5.5.5.5 0 0 1 -.5.5.5.5 0 0 1 -.5-.5.5.5 0 0 1 .5-.5zm-1 1a.5.5 0 0 1 .5.5.5.5 0 0 1 -.5.5.5.5 0 0 1 -.5-.5.5.5 0 0 1 .5-.5z" fill="#474747"/>
</svg>
