<svg height="16" width="16.001" xmlns="http://www.w3.org/2000/svg">
  <g fill="#474747">
    <path d="m1 1a1 1 0 0 0 -1 1v11s-.014.459.23.947c.246.489.938 1.053 1.77 1.053h1.832a1 1 0 0 0 .326 0h9.842s.459.014.947-.23c.489-.245 1.053-.937 1.053-1.77v-6a1 1 0 0 0 -1-1h-11a1 1 0 0 0 -1 1v6h-1v-10h3.586l1.707 1.707a1 1 0 0 0 .707.293h5a1 1 0 1 0 0-2h-4.586l-1.707-1.707a1 1 0 0 0 -.707-.293zm4 7h9v5h-9z" fill-rule="evenodd"/>
    <path d="m1 6h1s0-1 1-1h6l-3-3h-5z" fill-rule="evenodd"/>
    <path d="m4 7h11v7h-11zm9-3h1v1h-1zm2 2h1v1h-1zm-12 0h1v1h-1z"/>
  </g>
</svg>
