<svg width="256" height="256" version="1.1" viewBox="0 0 67.73 67.73" xmlns="http://www.w3.org/2000/svg" xmlns:xlink="http://www.w3.org/1999/xlink">
 <defs>
  <linearGradient id="linearGradient1008" x1="152.006" x2="152.006" y1="112.013" y2="239.995" gradientTransform="matrix(.26488626 0 0 .26488626 -6.4611988 222.04517)" gradientUnits="userSpaceOnUse" xlink:href="#linearGradient928"/>
  <linearGradient id="linearGradient928">
   <stop style="stop-color:#808080" offset="0"/>
   <stop style="stop-color:#999999" offset="1"/>
  </linearGradient>
  <linearGradient id="linearGradient4226" x1="529.655" x2="-35.31" y1="295.638" y2="295.638" gradientTransform="matrix(0 -.11988932 -.11988589 0 66.487288 293.07747)" gradientUnits="userSpaceOnUse">
   <stop style="stop-color:#999999" offset="0"/>
   <stop style="stop-color:#b7b7b7" offset=".613"/>
   <stop style="stop-color:#dbdbdb" offset="1"/>
  </linearGradient>
  <linearGradient id="linearGradient4358" x1="88" x2="488" y1="88" y2="488" gradientUnits="userSpaceOnUse">
   <stop style="stop-color:#000000;stop-opacity:.58823532" offset="0"/>
   <stop style="stop-color:#000000;stop-opacity:0" offset=".88"/>
   <stop style="stop-color:#000000" offset="1"/>
  </linearGradient>
  <filter id="filter4346" x="-.01" y="-.01" width="1.026" height="1.022" style="color-interpolation-filters:sRGB">
   <feGaussianBlur stdDeviation="2.12"/>
  </filter>
 </defs>
 <g transform="translate(0,-229.26666)">
  <path transform="matrix(.13229167 0 0 .13229167 -4.938835 224.28581)" d="m189.84323 74c-70.59344 0-78.18921 7.250835-77.84323 77.98706v292.02588c-0.34598 70.73623 7.24979 77.98706 77.84323 77.98706h196.31354c70.59344 0 76.00668-7.27384 77.84323-77.98706v-292.02588c0-70.737067-7.24979-77.98706-77.84323-77.98706z" style="filter:url(#filter4346);opacity:.1"/>
  <path transform="matrix(.13229167 0 0 .13229167 -4.938835 224.28581)" d="m189.84323 74c-70.59344 0-78.18921 7.250835-77.84323 77.98706v292.02588c-0.34598 70.73623 7.24979 77.98706 77.84323 77.98706h196.31354c70.59344 0 77.84323-7.24999 77.84323-77.98706v-292.02588c0-70.737067-7.24979-77.98706-77.84323-77.98706z" style="fill:url(#linearGradient4358);filter:url(#filter4380);opacity:.3"/>
  <path d="m46.145058 233.81081c9.338927 0 10.343782 0.95922 10.298012 10.31704v38.63259c0.04577 9.35781-0.959085 10.31704-10.298012 10.31704h-25.970643c-9.338923 0-10.298011-0.95912-10.298011-10.31704v-38.63259c0-9.35793 0.9590881-10.31704 10.298011-10.31704z" style="fill:url(#linearGradient4226)"/>
  <g transform="matrix(1.021875,0,0,1.021875,-2.4855009,-5.9205336)">
   <g transform="scale(1.0012075 .99879396)" style="fill:#ffffff;opacity:.2;stroke-width:.79375;stroke:#ffffff">
    <path d="m22.258626 286.09154c2.656883 0 4.629417-1.46934 4.629417-4.06583 0-2.77765-2.294581-3.80418-4.267115-4.54891-1.590104-0.58371-3.039313-1.16742-3.039313-2.47573 0-1.14729 0.905756-1.85177 2.39522-1.85177 1.388825 0 2.294581 0.64409 2.636755 1.42908l1.610232-0.54345c-0.422686-1.44921-1.892023-2.51599-4.126219-2.51599-2.737395 0-4.327499 1.59011-4.327499 3.48213 0 2.4556 2.153686 3.36136 4.12622 4.08596 1.650487 0.60384 3.180208 1.34857 3.180208 2.97893 0 1.54985-1.086907 2.37509-2.77765 2.37509-1.549849 0-2.737395-0.84537-3.300976-2.0933l-1.650488 0.60384c0.623965 1.81151 2.455604 3.13995 4.911208 3.13995z" style="fill:#ffffff;stroke-width:.79375;stroke:#ffffff"/>
    <path d="m34.315218 286.09154c2.656883 0 4.629417-1.46934 4.629417-4.06583 0-2.77765-2.294581-3.80418-4.267115-4.54891-1.590104-0.58371-3.039313-1.16742-3.039313-2.47573 0-1.14729 0.905756-1.85177 2.39522-1.85177 1.388825 0 2.294581 0.64409 2.636755 1.42908l1.610232-0.54345c-0.422686-1.44921-1.892023-2.51599-4.126219-2.51599-2.737395 0-4.327499 1.59011-4.327499 3.48213 0 2.4556 2.153686 3.36136 4.12622 4.08596 1.650487 0.60384 3.180208 1.34857 3.180208 2.97893 0 1.54985-1.086907 2.37509-2.77765 2.37509-1.549849 0-2.737395-0.84537-3.300976-2.0933l-1.650488 0.60384c0.623965 1.81151 2.455604 3.13995 4.911208 3.13995z" style="fill:#ffffff;stroke-width:.79375;stroke:#ffffff"/>
    <path d="m42.265718 271.76048v14.08953h3.763918c5.112486 0 6.622078-3.80418 6.622078-7.04477 0-3.48213-1.710871-7.04476-6.541567-7.04476zm3.985324 12.45917h-2.234196v-10.84894h2.455603c3.099697 0 4.367754 2.69714 4.367754 5.43453 0 2.55624-1.086906 5.41441-4.589161 5.41441z" style="fill:#ffffff;stroke-width:.79375;stroke:#ffffff"/>
   </g>
   <g transform="scale(1.0012075 .99879396)" style="fill:url(#linearGradient1008);stroke-width:.79375;stroke:url(#linearGradient954)">
    <path d="m22.258625 285.55153c2.656883 0 4.629417-1.46933 4.629417-4.06583 0-2.77765-2.294581-3.80418-4.267115-4.54891-1.590103-0.58371-3.039312-1.16742-3.039312-2.47573 0-1.14729 0.905755-1.85177 2.39522-1.85177 1.388825 0 2.29458 0.6441 2.636754 1.42909l1.610232-0.54346c-0.422686-1.44921-1.892022-2.51599-4.126219-2.51599-2.737394 0-4.327498 1.59011-4.327498 3.48213 0 2.4556 2.153685 3.36136 4.126219 4.08596 1.650488 0.60384 3.180208 1.34857 3.180208 2.97893 0 1.54985-1.086907 2.37509-2.77765 2.37509-1.549848 0-2.737394-0.84537-3.300975-2.0933l-1.650488 0.60384c0.623965 1.81151 2.455604 3.13995 4.911207 3.13995z" style="fill:url(#linearGradient1008);stroke-width:.79375;stroke:url(#linearGradient954)"/>
    <path d="m34.315216 285.55153c2.656883 0 4.629417-1.46933 4.629417-4.06583 0-2.77765-2.294581-3.80418-4.267115-4.54891-1.590103-0.58371-3.039312-1.16742-3.039312-2.47573 0-1.14729 0.905755-1.85177 2.39522-1.85177 1.388825 0 2.29458 0.6441 2.636754 1.42909l1.610232-0.54346c-0.422686-1.44921-1.892022-2.51599-4.126219-2.51599-2.737394 0-4.327498 1.59011-4.327498 3.48213 0 2.4556 2.153685 3.36136 4.126219 4.08596 1.650488 0.60384 3.180208 1.34857 3.180208 2.97893 0 1.54985-1.086907 2.37509-2.77765 2.37509-1.549848 0-2.737394-0.84537-3.300975-2.0933l-1.650488 0.60384c0.623965 1.81151 2.455604 3.13995 4.911207 3.13995z" style="fill:url(#linearGradient1008);stroke-width:.79375;stroke:url(#linearGradient954)"/>
    <path d="m42.265716 271.22047v14.08953h3.763917c5.112486 0 6.622078-3.80418 6.622078-7.04477 0-3.48212-1.710871-7.04476-6.541566-7.04476zm3.985324 12.45917h-2.234197v-10.84894h2.455604c3.099696 0 4.367754 2.69714 4.367754 5.43453 0 2.55625-1.086907 5.41441-4.589161 5.41441z" style="fill:url(#linearGradient1008);stroke-width:.79375;stroke:url(#linearGradient954)"/>
   </g>
  </g>
  <path d="m9.8778316 282.23111v0.52917c-0.04577 9.35781 0.9591544 10.3172 10.29808 10.3172h25.970506c9.338924 0 10.055122-0.96243 10.298081-10.3172v-0.52917c-0.242959 9.35477-0.959157 10.3172-10.298081 10.3172h-25.970506c-9.338926 0-10.343851-0.95939-10.29808-10.3172z" style="opacity:.2"/>
 </g>
</svg>
