<svg width="256" height="256" version="1.1" viewBox="0 0 67.73 67.73" xmlns="http://www.w3.org/2000/svg" xmlns:xlink="http://www.w3.org/1999/xlink">
 <defs>
  <linearGradient id="linearGradient1157" x1="192" x2="192" y1="68" y2="212" gradientTransform="matrix(.26458333 0 0 .26458333 -5.9167273 221.37572)" gradientUnits="userSpaceOnUse">
   <stop style="stop-color:#808080" offset="0"/>
   <stop style="stop-color:#999999" offset="1"/>
  </linearGradient>
  <linearGradient id="linearGradient4226" x1="529.655" x2="-35.31" y1="295.638" y2="295.638" gradientTransform="matrix(0 -.11988932 -.11988589 0 65.509395 290.16739)" gradientUnits="userSpaceOnUse">
   <stop style="stop-color:#999999" offset="0"/>
   <stop style="stop-color:#b7b7b7" offset=".613"/>
   <stop style="stop-color:#dbdbdb" offset="1"/>
  </linearGradient>
  <filter id="filter1169" x="-.02" y="-.03" width="1.038" height="1.065" style="color-interpolation-filters:sRGB">
   <feGaussianBlur stdDeviation=".152"/>
  </filter>
  <linearGradient id="linearGradient4358" x1="88" x2="488" y1="88" y2="488" gradientUnits="userSpaceOnUse">
   <stop style="stop-color:#000000;stop-opacity:.58823532" offset="0"/>
   <stop style="stop-color:#000000;stop-opacity:0" offset=".88"/>
   <stop style="stop-color:#000000" offset="1"/>
  </linearGradient>
  <filter id="filter4346" x="-.01" y="-.01" width="1.026" height="1.022" style="color-interpolation-filters:sRGB">
   <feGaussianBlur stdDeviation="2.12"/>
  </filter>
 </defs>
 <g transform="translate(0,-229.26666)">
  <path transform="matrix(.13229167 0 0 .13229167 -5.9167283 221.37572)" d="m237.84323 90c-70.59344 0-78.18921 7.250835-77.84323 77.98706v216.02588c-0.34598 70.73623 7.24979 77.98706 77.84323 77.98706h132.31354c70.59344 0 77.84323-7.24999 77.84323-77.98706v-216.02588c0-70.737067-7.24979-77.98706-77.84323-77.98706z" style="filter:url(#filter4346);opacity:.1"/>
  <path transform="matrix(.13229167 0 0 .13229167 -5.9167283 221.37572)" d="m237.84323 90c-70.59344 0-78.18921 7.250835-77.84323 77.98706v216.02588c-0.34598 70.73623 7.24979 77.98706 77.84323 77.98706h132.31354c70.59344 0 77.84323-7.24999 77.84323-77.98706v-216.02588c0-70.737067-7.24979-77.98706-77.84323-77.98706z" style="fill:url(#linearGradient4358);filter:url(#filter4380);opacity:.3"/>
  <g transform="matrix(1.3229167,0,0,1.3229167,-119.95214,-100.6222)" style="enable-background:new">
   <g transform="translate(-228,192)" style="enable-background:new">
    <rect x="335" y="94.2" width="19.2" height="11.2" style="filter:url(#filter1169);opacity:.2"/>
    <rect x="335" y="97.4" width="19.2" height="8" style="fill:#c0bfbc"/>
    <rect x="335" y="96.4" width="19.2" height="8.6" style="fill:#f6f5f4"/>
    <rect transform="scale(-1,1)" x="-342.2" y="100.2" width="4.8" height="2.4" style="fill:#9a9996"/>
    <rect x="347" y="100.2" width="4.8" height="2.4" style="fill:#9a9996"/>
   </g>
  </g>
  <path d="m43.050498 233.01739c9.338927 0 10.343783 0.95922 10.298012 10.31703v28.57843c0.04577 9.35781-0.959085 10.31704-10.298012 10.31704h-17.503975c-9.338923 0-10.298012-0.95912-10.298012-10.31704v-28.57843c0-9.35792 0.959089-10.31703 10.298012-10.31703z" style="fill:url(#linearGradient4226)"/>
  <path d="m34.300999 240.42678-2.444295 4.23229h1.743561v20.04529l-4.450376-4.21162c-0.287337-0.35848-0.489061-0.82804-0.500226-1.31052 0-1.95182 3.1e-5 -3.11112-0.0011-3.53777 0.823982-0.2892 1.418003-1.06603 1.418003-1.98954 0-1.1683-0.947939-2.11563-2.116667-2.11563-1.169236 0-2.116666 0.94724-2.116666 2.11563 0 0.92351 0.594725 1.70034 1.418002 1.98954l-0.0011 3.49643c0 0.94754 0.520202 1.94051 1.129644 2.57245v1e-3c0.01503 0.0134 4.721161 4.46898 4.721161 4.46898 0.286914 0.35771 0.487691 0.8263 0.499195 1.30845v3.71966c-1.149374 0.3152-1.946146 1.35995-1.946085 2.55176 0 1.46126 1.18458 2.64583 2.645834 2.64583s2.645833-1.18457 2.645833-2.64583c-0.0011-1.19165-0.798719-2.23551-1.948201-2.54971v-3.67936c0-6e-3 2.64e-4 -0.0123 0-0.0186v-4.25917c0.01228-0.48121 0.212974-0.95004 0.500226-1.30741 0 0 4.705931-4.45416 4.721156-4.46795 0.609361-0.63194 1.129649-1.62578 1.129649-2.57349l-0.0011-3.3693h1.419035v-4.23333h-4.233332v4.23333h1.416964s-0.0011 0.88752-0.0011 3.41065c-0.01106 0.48256-0.212889 0.9522-0.500226 1.31051l-4.451408 4.21267v-15.813h1.746663z" style="fill:#ffffff;opacity:.2"/>
  <path d="m34.300999 239.89761-2.444295 4.2323h1.743561v20.04529l-4.450376-4.21163c-0.287337-0.35848-0.489061-0.82804-0.500226-1.31051 0-1.95183 3.1e-5 -3.11112-0.0011-3.53777 0.823982-0.2892 1.418003-1.06604 1.418003-1.98955 0-1.1683-0.947939-2.11563-2.116667-2.11563-1.169236 0-2.116666 0.94725-2.116666 2.11563 0 0.92351 0.594725 1.70035 1.418002 1.98955l-0.0011 3.49642c0 0.94754 0.520202 1.94051 1.129644 2.57246v1e-3c0.01503 0.0134 4.721161 4.46898 4.721161 4.46898 0.286914 0.35772 0.487691 0.82631 0.499195 1.30845v3.71967c-1.149374 0.3152-1.946146 1.35994-1.946085 2.55175 0 1.46126 1.18458 2.64584 2.645834 2.64584s2.645833-1.18458 2.645833-2.64584c-0.0011-1.19165-0.798719-2.23551-1.948201-2.54971v-3.67936c0-6e-3 2.64e-4 -0.0123 0-0.0186v-4.25917c0.01228-0.48121 0.212974-0.95003 0.500226-1.30741 0 0 4.705931-4.45416 4.721156-4.46795 0.609361-0.63194 1.129649-1.62578 1.129649-2.57348l-0.0011-3.36931h1.419035v-4.23331h-4.233332v4.23333h1.416964s-0.0011 0.88753-0.0011 3.41065c-0.01106 0.48256-0.212889 0.9522-0.500226 1.31051l-4.451408 4.21267v-15.81299h1.746663z" style="fill:url(#linearGradient1157)"/>
  <path d="m15.249939 271.38352v0.52917c-0.04577 9.35781 0.959155 10.3172 10.298082 10.3172h17.503837c9.338924 0 10.055122-0.96243 10.298081-10.3172v-0.52917c-0.242959 9.35477-0.959157 10.3172-10.298081 10.3172h-17.503837c-9.338927 0-10.343853-0.95938-10.298082-10.3172z" style="opacity:.2"/>
 </g>
</svg>
