<svg enable-background="new" height="128" viewBox="0 0 128 128" width="128" xmlns="http://www.w3.org/2000/svg" xmlns:xlink="http://www.w3.org/1999/xlink">
  <linearGradient id="linearGradient38688" gradientUnits="userSpaceOnUse" x1="12" x2="62" y1="276" y2="276">
    <stop offset="0" stop-color="#26a269"/>
    <stop offset=".10294679" stop-color="#3ad18b" stop-opacity=".988235"/>
    <stop offset=".23022602" stop-color="#2aa16b" stop-opacity=".941176"/>
    <stop offset="1" stop-color="#239360" stop-opacity=".878431"/>
  </linearGradient>
  <linearGradient id="linearGradient39296" gradientTransform="matrix(.25 0 0 .20238167 270.00027 237.00006)" gradientUnits="userSpaceOnUse" x1="-1029.6307" x2="-617.10089" y1="44" y2="44">
    <stop offset="0" stop-color="#babdb6"/>
    <stop offset=".04166667" stop-color="#f6f5f4"/>
    <stop offset=".08333334" stop-color="#d5d3cf"/>
    <stop offset=".91666669" stop-color="#deddda"/>
    <stop offset=".95833331" stop-color="#f6f5f4"/>
    <stop offset="1" stop-color="#babdb6"/>
  </linearGradient>
  <g transform="translate(0 -172)">
    <rect fill="url(#linearGradient39296)" height="48" rx="8" width="104" x="12" y="240"/>
    <rect fill="#f6f5f4" height="99.999969" rx="8" width="104" x="12" y="184"/>
    <path d="m20 12c-4.432 0-8 3.568-8 8v84c0 4.432 3.568 8 8 8h46v-48h50v-44c0-4.432-3.568-8-8-8z" fill="#deddda" opacity=".2" transform="translate(0 172)"/>
    <text x="36.367523" y="257"><tspan x="36.367523" y="279.89062"/></text>
    <path d="m20 184c-4.432 0-8 3.568-8 8v40h50v-48z" fill="#d46400"/>
    <path d="m20 182c-4.432 0-8 3.568-8 8v40h50v-48z" fill="#ff7800"/>
    <path d="m66 284v-48h50v40c0 4.432-3.568 8-8 8z" fill="#1860b7"/>
    <path d="m232-66h4v53.999985h-4z" fill="#deddda" transform="rotate(90)"/>
    <path d="m66 281.99998v-48h50v40c0 4.432-3.568 8-8 8z" fill="#3584e4"/>
    <path d="m12 236v40c0 4.432 3.568 8 8 8h42v-2-46z" fill="url(#linearGradient38688)"/>
    <path d="m12 234v40c0 4.432 3.568 8 8 8h42v-28-20z" fill="#2ec27e"/>
    <g fill="#fff">
      <path d="m39.034847 214.292c5.077784-3.62166 7.990043-7.80336 7.990043-12.35843 0-5.22713-3.733665-8.32608-10.006222-8.32608-3.173616 0-6.235221.78407-8.92346 2.2402l1.45613 4.8911c2.464219-1.12009 4.331051-1.60547 6.12321-1.60547 2.949596 0 4.629745 1.30678 4.629745 3.65899 0 2.98693-2.613566 6.30989-11.238332 13.03049v4.0697h18.668326v-5.6005z"/>
      <path d="m42.469819 257.20456c2.613565-1.34412 4.032358-3.3603 4.032358-5.74985 0-3.92035-3.771002-6.53391-9.334163-6.53391-5.899191 0-9.819539 3.17361-9.819539 7.91537 0 2.87492 1.456129 4.59241 3.434972 5.78718-2.650902 1.1201-4.144368 3.13628-4.144368 5.67517 0 4.36839 4.107031 7.28065 10.267579 7.28065 6.272557 0 10.454262-3.21095 10.454262-8.06472 0-3.39763-2.240199-5.15246-4.891101-6.30989zm-5.525825-6.75794c1.754823 0 2.912259.85875 2.912259 2.20287 0 1.34411-.970753 2.42688-2.464219 2.80024-1.941506-.70939-3.397635-1.45613-3.397635-2.83758 0-1.30678 1.157436-2.16553 2.949595-2.16553zm.298694 15.60672c-2.389546 0-3.957685-1.15743-3.957685-2.87492 0-1.23211.784069-2.20286 2.128189-2.6509 2.800248.89608 5.301804 1.56814 5.301804 3.32296 0 1.30678-1.418793 2.20286-3.472308 2.20286z" transform="translate(53.033009)"/>
      <path d="m99.822075 209.21421h-3.509645v-15.42004h-6.197884l-12.059738 15.42004v5.6005h11.761045v5.07778h6.496577v-5.07778h3.509645zm-15.868077-.0747 5.861855-7.65402v7.69136z" transform="translate(-49.884926 50.84182)"/>
    </g>
    <path d="m62 184h4v100h-4z" fill="#deddda"/>
  </g>
</svg>
