<svg height="128" width="128" xmlns="http://www.w3.org/2000/svg" xmlns:xlink="http://www.w3.org/1999/xlink">
  <linearGradient id="e" gradientTransform="matrix(1.0015 0 0 .99993 72.09 56.015)" gradientUnits="userSpaceOnUse" x1="43.844" x2="-60" y1="234" y2="234">
    <stop offset="0" stop-color="#d5d3cf"/>
    <stop offset=".038" stop-color="#e3e2df"/>
    <stop offset=".077" stop-color="#c0bfbc"/>
    <stop offset=".923" stop-color="#c0bfbc"/>
    <stop offset=".962" stop-color="#e3e2df"/>
    <stop offset="1" stop-color="#d5d3cf"/>
  </linearGradient>
  <g transform="translate(0 -172)">
    <rect fill="url(#e)" height="48" rx="8" width="104" x="12" y="240"/>
    <path d="m20 10c-4.432 0-8 3.568-8 8v42 42c0 4.432 3.568 8 8 8h44 44c4.432 0 8-3.568 8-8v-42-42c0-4.432-3.568-8-8-8z" fill="#001d26" transform="translate(0 172)"/>
    <path d="m-93.43 272.13h96v2.5h-96z" fill="none"/>
    <g fill="#00c8ff">
      <path d="m21.691406 181.8457c-1.212672 0-2.433032.003-3.664062.31641-1.565504.39892-2.781079 1.24397-3.660156 2.13672-.963889.97887-1.825941 2.30933-2.201172 3.95898-.286848 1.2611-.166016 2.30103-.166016 3.28125v40.38477 40.38476c0 .71603-.04245 1.78112.117188 2.86133.221271 1.49722.797024 2.86719 1.716796 3.96094.90846 1.08029 2.117498 1.99735 3.605469 2.49023 1.658705.54945 3.093859.37891 4.251953.37891h42.308594 42.30859c.91999 0 2.09301.11639 3.45508-.18164 1.63229-.35724 3.12075-1.19192 4.21875-2.43945.87624-.99558 1.53755-2.26478 1.8418-3.71875.28181-1.34669.17578-2.52722.17578-3.35157v-40.38476-40.38477c0-.88745.17071-2.24297-.35156-3.90234-.4269-1.35639-1.49808-3.48733-3.92578-4.75195-1.86748-.97279-3.93912-1.03907-5.41407-1.03907zm0 4h84.617184c1.08984 0 3.02337.30502 3.56641.58789 1.19087.62034 1.75224 1.74739 1.95898 2.4043.25909.82317.16602 1.48048.16602 2.70117v40.38477 40.38476c0 1.0294.0358 1.92126-.0918 2.53125-.14937.71385-.55324 1.46878-.92968 1.89649-.47122.53538-1.24401.99298-2.07032 1.17383-.59015.12913-1.47677.0898-2.59961.0898h-42.30859-42.308594c-1.387913 0-2.309645.049-2.99414-.17773-.531845-.17618-1.404779-.79472-1.800782-1.26563-.428011-.50897-.688757-1.06732-.822265-1.9707-.077382-.52357-.074219-1.47844-.074219-2.27731v-40.38476-40.38477c0-1.168-.0313-1.96498.06641-2.39453.180215-.79229.632349-1.51297 1.150391-2.03906.525868-.53405.998168-.86434 1.798828-1.06836.533917-.13603 1.527954-.19141 2.675781-.19141z"/>
      <path d="m35.830355 207.75893c0-.3125.625-.53572.982143-.53572 2.857143-.13392 7.098214-.22321 11.517857-.22321 12.366071 0 17.1875 6.78571 17.1875 15.49107 0 11.33929-8.214286 16.20536-18.303571 16.20536-1.696429 0-2.276786-.0893-3.482143-.0893v17.14287c0 .35714-.133929.53571-.535715.53571h-6.830357c-.357143 0-.535714-.13392-.535714-.53571zm7.946429 23.70536c1.026785.0893 1.830357.0893 3.616071.0893 5.223214 0 10.133929-1.83036 10.133929-8.92857 0-5.66964-3.526786-8.52679-9.464286-8.52679-1.785714 0-3.482143.0893-4.285714.13393zm38.392861-5.3125c-3.52679 0-4.732147 1.78571-4.732147 3.25892 0 1.60715.803567 2.72322 5.535717 5.17858 7.00893 3.39285 9.19643 6.65178 9.19643 11.42857 0 7.14285-5.44643 10.98214-12.8125 10.98214-3.883933 0-7.232147-.80357-9.15179-1.91964-.3125-.13393-.357143-.35715-.357143-.71429v-6.5625c0-.44643.223214-.58036.535714-.35714 2.8125 1.83036 6.026786 2.63393 8.973219 2.63393 3.52678 0 5-1.47322 5-3.48215 0-1.60714-1.02679-3.03571-5.53572-5.35714-6.339284-3.03571-8.973213-6.11607-8.973213-11.25 0-5.75893 4.508929-10.53571 12.321433-10.53571 3.83928 0 6.51785.58035 7.99107 1.25.35714.22321.44643.58035.44643.89285v6.11608c0 .35714-.22322.58035-.66965.44642-1.96428-1.25-4.86607-2.00892-7.76785-2.00892z"/>
    </g>
  </g>
</svg>
