<svg height="128" width="128" xmlns="http://www.w3.org/2000/svg" xmlns:xlink="http://www.w3.org/1999/xlink">
  <linearGradient id="e" gradientTransform="matrix(1.0015 0 0 .99993 72.09 56.015)" gradientUnits="userSpaceOnUse" x1="43.844" x2="-60" y1="234" y2="234">
    <stop offset="0" stop-color="#d5d3cf"/>
    <stop offset=".038" stop-color="#e3e2df"/>
    <stop offset=".077" stop-color="#c0bfbc"/>
    <stop offset=".923" stop-color="#c0bfbc"/>
    <stop offset=".962" stop-color="#e3e2df"/>
    <stop offset="1" stop-color="#d5d3cf"/>
  </linearGradient>
  <g transform="translate(0 -172)">
    <rect fill="url(#e)" height="48" rx="8" width="104" x="12" y="240"/>
    <path d="m20 10c-4.432 0-8 3.568-8 8v42 42c0 4.432 3.568 8 8 8h44 44c4.432 0 8-3.568 8-8v-42-42c0-4.432-3.568-8-8-8z" fill="#261300" transform="translate(0 172)"/>
    <path d="m-93.43 272.13h96v2.5h-96z" fill="none"/>
    <g fill="#ff7c00">
      <path d="m21.691406 181.8457c-1.212672 0-2.433032.003-3.664062.31641-1.565504.39892-2.781079 1.24397-3.660156 2.13672-.963889.97887-1.825941 2.30933-2.201172 3.95898-.286848 1.2611-.166016 2.30103-.166016 3.28125v40.38477 40.38476c0 .71603-.04245 1.78112.117188 2.86133.221271 1.49722.797024 2.86719 1.716796 3.96094.90846 1.08029 2.117498 1.99735 3.605469 2.49023 1.658705.54945 3.093859.37891 4.251953.37891h42.308594 42.30859c.91999 0 2.09301.11639 3.45508-.18164 1.63229-.35724 3.12075-1.19192 4.21875-2.43945.87624-.99558 1.53755-2.26478 1.8418-3.71875.28181-1.34669.17578-2.52722.17578-3.35157v-40.38476-40.38477c0-.88745.17071-2.24297-.35156-3.90234-.4269-1.35639-1.49808-3.48733-3.92578-4.75195-1.86748-.97279-3.93912-1.03907-5.41407-1.03907zm0 4h84.617184c1.08984 0 3.02337.30502 3.56641.58789 1.19087.62034 1.75224 1.74739 1.95898 2.4043.25909.82317.16602 1.48048.16602 2.70117v40.38477 40.38476c0 1.0294.0358 1.92126-.0918 2.53125-.14937.71385-.55324 1.46878-.92968 1.89649-.47122.53538-1.24401.99298-2.07032 1.17383-.59015.12913-1.47677.0898-2.59961.0898h-42.30859-42.308594c-1.387913 0-2.309645.049-2.99414-.17773-.531845-.17618-1.404779-.79472-1.800782-1.26563-.428011-.50897-.688757-1.06732-.822265-1.9707-.077382-.52357-.074219-1.47844-.074219-2.27731v-40.38476-40.38477c0-1.168-.0313-1.96498.06641-2.39453.180215-.79229.632349-1.51297 1.150391-2.03906.525868-.53405.998168-.86434 1.798828-1.06836.533917-.13603 1.527954-.19141 2.675781-.19141z"/>
      <path d="m48.949046 243.28318-3.495574 13.27434c-.0885.35398-.221239.44248-.663717.44248h-6.504424c-.442478 0-.530974-.13275-.442478-.66372l12.566371-43.9823c.221238-.79646.353982-1.50442.442478-3.67256 0-.30973.132743-.44248.353981-.44248h9.292035c.309735 0 .442478.0885.530974.44248l14.070792 47.74335c.0885.35399 0 .57523-.35398.57523h-7.345131c-.353983 0-.575221-.0885-.663717-.39824l-3.672566-13.31858zm12.300885-7.16814c-1.238939-4.9115-4.159292-15.61946-5.265487-20.79646h-.0885c-.929204 5.177-3.274336 13.93805-5.132743 20.79646zm19.9115-24.60176c0-2.83186 1.991157-4.51328 4.513277-4.51328 2.699111 0 4.513277 1.81416 4.513277 4.51328 0 2.92035-1.902657 4.51327-4.601776 4.51327-2.566366 0-4.424778-1.59292-4.424778-4.51327zm.530979 10.04424c0-.35398.132737-.53097.530972-.53097h6.946898c.353981 0 .530979.13274.530979.53097v34.91151c0 .35398-.0885.53097-.530979.53097h-6.858407c-.442472 0-.575217-.22124-.575217-.57523v-34.86725z"/>
    </g>
  </g>
</svg>
