<svg height="128" width="128" xmlns="http://www.w3.org/2000/svg" xmlns:xlink="http://www.w3.org/1999/xlink">
  <linearGradient id="linearGradient4929" gradientUnits="userSpaceOnUse" x1="15.568182" x2="43.590908" y1="5.25" y2="47.772728">
    <stop offset="0" stop-color="#f46363"/>
    <stop offset="1" stop-color="#9f0000"/>
  </linearGradient>
  <g fill="url(#linearGradient4929)" fill-rule="evenodd" transform="translate(0 64)">
    <path d="m36.998047-53.505859a1.50015 1.50015 0 0 0 -1.320313 2.210937l27.09375 50.376953a1.50015 1.50015 0 0 0 2.650391-.019531l26.208984-50.376953a1.50015 1.50015 0 0 0 -1.330078-2.191406zm-5.623047 5.160156a1.50015 1.50015 0 0 0 -1.232422.712891l-27.095703 43.904296a1.50015 1.50015 0 0 0 1.2832031 2.28711l51.0019529-.175782a1.50015 1.50015 0 0 0 1.310547-2.21875l-23.90625-43.728515a1.50015 1.50015 0 0 0 -1.361328-.78125zm64.265625.08789a1.50015 1.50015 0 0 0 -1.339844.771484l-24.259765 43.728517a1.50015 1.50015 0 0 0 1.30664 2.228515l51.355464.175781a1.50015 1.50015 0 0 0 1.28321-2.287109l-27.095705-43.904297a1.50015 1.50015 0 0 0 -1.25-.71289zm-31.517578 50.550782a1.50015 1.50015 0 0 0 -1.306641.789062l-27.095703 50.376949a1.50015 1.50015 0 0 0 1.320313 2.21094h53.304687a1.50015 1.50015 0 0 0 1.330078-2.1914l-26.208984-50.376958a1.50015 1.50015 0 0 0 -1.34375-.808593zm58.625003 1.224609-51.357425.175781a1.50015 1.50015 0 0 0 -1.306641 2.228516l24.261719 43.728515a1.50015 1.50015 0 0 0 2.589844.05859l27.095703-43.904292a1.50015 1.50015 0 0 0 -1.2832-2.28711zm-118.37305.087891a1.50015 1.50015 0 0 0 -1.2832031 2.287109l27.0937501 43.904302a1.50015 1.50015 0 0 0 2.59375-.06836l23.908203-43.730473a1.50015 1.50015 0 0 0 -1.310547-2.21875z" fill="#030303" opacity=".2"/>
    <path d="m36.998047 8.4941406a1.50015 1.50015 0 0 0 -1.320313 2.2109374l27.09375 50.376953a1.50015 1.50015 0 0 0 2.650391-.019531l26.208984-50.376953a1.50015 1.50015 0 0 0 -1.330078-2.1914064zm-5.623047 5.1601564a1.50015 1.50015 0 0 0 -1.232422.712891l-27.095703 43.904296a1.50015 1.50015 0 0 0 1.2832031 2.28711l51.0019529-.175782a1.50015 1.50015 0 0 0 1.310547-2.21875l-23.90625-43.728515a1.50015 1.50015 0 0 0 -1.361328-.78125zm64.265625.087891a1.50015 1.50015 0 0 0 -1.339844.771484l-24.259765 43.728516a1.50015 1.50015 0 0 0 1.30664 2.228515l51.355464.175781a1.50015 1.50015 0 0 0 1.28321-2.287109l-27.095705-43.904297a1.50015 1.50015 0 0 0 -1.25-.71289zm-31.517578 50.550781a1.50015 1.50015 0 0 0 -1.306641.789062l-27.095703 50.376949a1.50015 1.50015 0 0 0 1.320313 2.21094h53.304687a1.50015 1.50015 0 0 0 1.330078-2.1914l-26.208984-50.376958a1.50015 1.50015 0 0 0 -1.34375-.808593zm58.625003 1.224609-51.357425.175781a1.50015 1.50015 0 0 0 -1.306641 2.228516l24.261719 43.728515a1.50015 1.50015 0 0 0 2.589844.05859l27.095703-43.904292a1.50015 1.50015 0 0 0 -1.2832-2.28711zm-118.37305.087891a1.50015 1.50015 0 0 0 -1.2832031 2.287109l27.0937501 43.904302a1.50015 1.50015 0 0 0 2.59375-.06836l23.908203-43.730473a1.50015 1.50015 0 0 0 -1.310547-2.21875z" fill="#c01c28" transform="translate(0 -64)"/>
  </g>
  <g transform="translate(-1.599931 60.268076)">
    <path d="m128 86.807c-40.781 0-72.5 33.321-72.5 43.622 0 13.499 31.719 42.06 72.5 42.06s72.5-33.321 72.5-42.06c0-10.301-31.719-43.622-72.5-43.622z" opacity=".2" stroke-width="1.45" transform="matrix(.68965515 0 0 .68965515 -22.520213 -85.57416)"/>
    <path d="m65.755647-27.980371c-28.124828 0-49.999999 22.9799992-49.999999 30.0841406 0 9.3103494 21.875171 29.0068954 49.999999 29.0068954 28.12483 0 50.000003-22.9799989 50.000003-29.0068954 0-7.1041414-21.875173-30.0841406-50.000003-30.0841406z" fill="#fff"/>
    <circle cx="65.755653" cy="1.565148" fill="#1c71d8" r="25"/>
    <circle cx="65.755653" cy="1.565148" fill="#3d3846" r="13.636552"/>
  </g>
</svg>
