<?xml version="1.0" encoding="UTF-8" standalone="no"?>
<!-- Created with Inkscape (http://www.inkscape.org/) -->

<svg
   xmlns:dc="http://purl.org/dc/elements/1.1/"
   xmlns:cc="http://creativecommons.org/ns#"
   xmlns:rdf="http://www.w3.org/1999/02/22-rdf-syntax-ns#"
   xmlns:svg="http://www.w3.org/2000/svg"
   xmlns="http://www.w3.org/2000/svg"
   xmlns:xlink="http://www.w3.org/1999/xlink"
   xmlns:sodipodi="http://sodipodi.sourceforge.net/DTD/sodipodi-0.dtd"
   xmlns:inkscape="http://www.inkscape.org/namespaces/inkscape"
   width="128"
   height="128"
   viewBox="0 0 33.866666 33.866667"
   version="1.1"
   id="svg888"
   inkscape:version="0.92.4 (5da689c313, 2019-01-14)"
   sodipodi:docname="aiuto.svg">
  <defs
     id="defs882">
    <linearGradient
       xlink:href="#linearGradient882"
       id="linearGradient884"
       x1="64.016159"
       y1="189.81104"
       x2="64.016159"
       y2="312.88797"
       gradientUnits="userSpaceOnUse"
       gradientTransform="matrix(1.04,0,0,1.04,-2.5768079,-177.40347)" />
    <linearGradient
       id="linearGradient882">
      <stop
         style="stop-color:#ffffff;stop-opacity:1;"
         offset="0"
         id="stop878" />
      <stop
         style="stop-color:#ffffff;stop-opacity:0.28033474"
         offset="1"
         id="stop880" />
    </linearGradient>
    <filter
       style="color-interpolation-filters:sRGB"
       id="filter1047"
       x="-0.096000001"
       width="1.192"
       y="-0.096000001"
       height="1.192">
      <feGaussianBlur
         stdDeviation="4.16"
         id="feGaussianBlur1049" />
    </filter>
    <linearGradient
       xlink:href="#linearGradient882"
       id="linearGradient892"
       x1="-80"
       y1="-274.09021"
       x2="-80"
       y2="-244"
       gradientUnits="userSpaceOnUse" />
    <filter
       style="color-interpolation-filters:sRGB"
       id="filter1031"
       x="-0.12"
       width="1.24"
       y="-0.12"
       height="1.24">
      <feGaussianBlur
         stdDeviation="4.2"
         id="feGaussianBlur1033" />
    </filter>
  </defs>
  <sodipodi:namedview
     id="base"
     pagecolor="#ffffff"
     bordercolor="#666666"
     borderopacity="1.0"
     inkscape:pageopacity="0.0"
     inkscape:pageshadow="2"
     inkscape:zoom="4.7659899"
     inkscape:cx="7.401391"
     inkscape:cy="62.185835"
     inkscape:document-units="mm"
     inkscape:current-layer="layer1"
     showgrid="false"
     inkscape:window-width="1920"
     inkscape:window-height="1016"
     inkscape:window-x="0"
     inkscape:window-y="27"
     inkscape:window-maximized="1"
     units="px"
     showguides="false">
    <inkscape:grid
       type="xygrid"
       id="grid1550" />
  </sodipodi:namedview>
  <metadata
     id="metadata885">
    <rdf:RDF>
      <cc:Work
         rdf:about="">
        <dc:format>image/svg+xml</dc:format>
        <dc:type
           rdf:resource="http://purl.org/dc/dcmitype/StillImage" />
        <dc:title></dc:title>
      </cc:Work>
    </rdf:RDF>
  </metadata>
  <g
     inkscape:label="Livello 1"
     inkscape:groupmode="layer"
     id="layer1"
     transform="translate(0,-263.13332)">
    <path
       id="path1669"
       d="m 16.805807,264.45837 a 15.875,15.875 0 0 0 -15.874999,15.875 15.875,15.875 0 0 0 15.874999,15.875 15.875,15.875 0 0 0 15.874999,-15.875 15.875,15.875 0 0 0 -15.874999,-15.875 z m 0,6.61458 a 9.2604168,9.2604168 0 0 1 9.260417,9.26042 9.2604168,9.2604168 0 0 1 -9.260417,9.26041 9.2604168,9.2604168 0 0 1 -9.2604157,-9.26041 9.2604168,9.2604168 0 0 1 9.2604157,-9.26042 z"
       style="opacity:0.15;fill:#1b1515;fill-opacity:1;stroke:none;stroke-width:0.31926081;stroke-linecap:round;stroke-linejoin:round;stroke-miterlimit:4;stroke-dasharray:none;stroke-opacity:1"
       inkscape:connector-curvature="0" />
    <path
       inkscape:connector-curvature="0"
       id="path1663"
       d="m 23.252032,295.80427 c 2.355701,-0.16012 4.654511,-1.17801 6.384761,-3.01953 3.46049,-3.68304 3.49144,-9.42506 0.0723,-13.14649 l -0.7793,0.71485 c 3.05081,3.32049 3.02322,8.42078 -0.0645,11.70703 -3.08768,3.28625 -8.175731,3.63117 -11.679691,0.79297 l -0.66602,0.82226 c 1.96353,1.59045 4.37672,2.28903 6.73243,2.12891 z"
       style="color:#000000;font-style:normal;font-variant:normal;font-weight:normal;font-stretch:normal;font-size:medium;line-height:normal;font-family:sans-serif;font-variant-ligatures:normal;font-variant-position:normal;font-variant-caps:normal;font-variant-numeric:normal;font-variant-alternates:normal;font-feature-settings:normal;text-indent:0;text-align:start;text-decoration:none;text-decoration-line:none;text-decoration-style:solid;text-decoration-color:#000000;letter-spacing:normal;word-spacing:normal;text-transform:none;writing-mode:lr-tb;direction:ltr;text-orientation:mixed;dominant-baseline:auto;baseline-shift:baseline;text-anchor:start;white-space:normal;shape-padding:0;clip-rule:nonzero;display:inline;overflow:visible;visibility:visible;opacity:1;isolation:auto;mix-blend-mode:normal;color-interpolation:sRGB;color-interpolation-filters:linearRGB;solid-color:#000000;solid-opacity:1;vector-effect:none;fill:#ddc6b3;fill-opacity:1;fill-rule:nonzero;stroke:none;stroke-width:1.05833328;stroke-linecap:butt;stroke-linejoin:miter;stroke-miterlimit:4;stroke-dasharray:none;stroke-dashoffset:0;stroke-opacity:1;marker:none;paint-order:normal;color-rendering:auto;image-rendering:auto;shape-rendering:auto;text-rendering:auto;enable-background:new" />
    <path
       inkscape:connector-curvature="0"
       id="path1667"
       d="m 1.3487876,286.69605 c 0.16012,2.3557 1.17801,4.65451 3.01953,6.38476 3.68304,3.46049 9.4250594,3.49144 13.1464894,0.0723 l -0.71485,-0.7793 c -3.32049,3.05081 -8.4207794,3.02322 -11.7070294,-0.0645 -3.28625,-3.08768 -3.63117,-8.17573 -0.79297,-11.67969 l -0.82226,-0.66602 c -1.59045,1.96353 -2.28903,4.37672 -2.12891,6.73243 z"
       style="color:#000000;font-style:normal;font-variant:normal;font-weight:normal;font-stretch:normal;font-size:medium;line-height:normal;font-family:sans-serif;font-variant-ligatures:normal;font-variant-position:normal;font-variant-caps:normal;font-variant-numeric:normal;font-variant-alternates:normal;font-feature-settings:normal;text-indent:0;text-align:start;text-decoration:none;text-decoration-line:none;text-decoration-style:solid;text-decoration-color:#000000;letter-spacing:normal;word-spacing:normal;text-transform:none;writing-mode:lr-tb;direction:ltr;text-orientation:mixed;dominant-baseline:auto;baseline-shift:baseline;text-anchor:start;white-space:normal;shape-padding:0;clip-rule:nonzero;display:inline;overflow:visible;visibility:visible;opacity:1;isolation:auto;mix-blend-mode:normal;color-interpolation:sRGB;color-interpolation-filters:linearRGB;solid-color:#000000;solid-opacity:1;vector-effect:none;fill:#ddc6b3;fill-opacity:1;fill-rule:nonzero;stroke:none;stroke-width:1.05833328;stroke-linecap:butt;stroke-linejoin:miter;stroke-miterlimit:4;stroke-dasharray:none;stroke-dashoffset:0;stroke-opacity:1;marker:none;paint-order:normal;color-rendering:auto;image-rendering:auto;shape-rendering:auto;text-rendering:auto;enable-background:new" />
    <path
       style="color:#000000;font-style:normal;font-variant:normal;font-weight:normal;font-stretch:normal;font-size:medium;line-height:normal;font-family:sans-serif;font-variant-ligatures:normal;font-variant-position:normal;font-variant-caps:normal;font-variant-numeric:normal;font-variant-alternates:normal;font-feature-settings:normal;text-indent:0;text-align:start;text-decoration:none;text-decoration-line:none;text-decoration-style:solid;text-decoration-color:#000000;letter-spacing:normal;word-spacing:normal;text-transform:none;writing-mode:lr-tb;direction:ltr;text-orientation:mixed;dominant-baseline:auto;baseline-shift:baseline;text-anchor:start;white-space:normal;shape-padding:0;clip-rule:nonzero;display:inline;overflow:visible;visibility:visible;opacity:1;isolation:auto;mix-blend-mode:normal;color-interpolation:sRGB;color-interpolation-filters:linearRGB;solid-color:#000000;solid-opacity:1;vector-effect:none;fill:#ddc6b3;fill-opacity:1;fill-rule:nonzero;stroke:none;stroke-width:1.05833328;stroke-linecap:butt;stroke-linejoin:miter;stroke-miterlimit:4;stroke-dasharray:none;stroke-dashoffset:0;stroke-opacity:1;marker:none;paint-order:normal;color-rendering:auto;image-rendering:auto;shape-rendering:auto;text-rendering:auto;enable-background:new"
       d="m 32.636823,273.53086 c -0.16012,-2.3557 -1.17801,-4.65451 -3.01953,-6.38476 -3.683041,-3.46049 -9.42506,-3.49144 -13.14649,-0.0723 l 0.714849,0.7793 c 3.32049,-3.05081 8.42078,-3.02322 11.70703,0.0645 3.286251,3.08768 3.63117,8.17573 0.79297,11.67969 l 0.82226,0.66602 c 1.590451,-1.96353 2.289031,-4.37672 2.128911,-6.73243 z"
       id="path1665"
       inkscape:connector-curvature="0" />
    <path
       style="color:#000000;font-style:normal;font-variant:normal;font-weight:normal;font-stretch:normal;font-size:medium;line-height:normal;font-family:sans-serif;font-variant-ligatures:normal;font-variant-position:normal;font-variant-caps:normal;font-variant-numeric:normal;font-variant-alternates:normal;font-feature-settings:normal;text-indent:0;text-align:start;text-decoration:none;text-decoration-line:none;text-decoration-style:solid;text-decoration-color:#000000;letter-spacing:normal;word-spacing:normal;text-transform:none;writing-mode:lr-tb;direction:ltr;text-orientation:mixed;dominant-baseline:auto;baseline-shift:baseline;text-anchor:start;white-space:normal;shape-padding:0;clip-rule:nonzero;display:inline;overflow:visible;visibility:visible;opacity:1;isolation:auto;mix-blend-mode:normal;color-interpolation:sRGB;color-interpolation-filters:linearRGB;solid-color:#000000;solid-opacity:1;vector-effect:none;fill:#ddc6b3;fill-opacity:1;fill-rule:nonzero;stroke:none;stroke-width:1.05833328;stroke-linecap:butt;stroke-linejoin:miter;stroke-miterlimit:4;stroke-dasharray:none;stroke-dashoffset:0;stroke-opacity:1;marker:none;paint-order:normal;color-rendering:auto;image-rendering:auto;shape-rendering:auto;text-rendering:auto;enable-background:new"
       d="m 10.326125,264.90193 c -2.3557062,0.16012 -4.6545192,1.17801 -6.384766,3.01953 -3.46049091,3.68304 -3.4914388,9.42506 -0.072266,13.14649 L 4.6483899,280.3531 C 1.5975823,277.03261 1.625169,271.93232 4.7128429,268.64607 7.8005192,265.35982 12.888567,265.0149 16.39253,267.8531 l 0.666016,-0.82226 c -1.963523,-1.59045 -4.376716,-2.28903 -6.732421,-2.12891 z"
       id="path1082"
       inkscape:connector-curvature="0" />
    <path
       style="opacity:1;fill:#f6f5f4;fill-opacity:1;stroke:none;stroke-width:0.31926081;stroke-linecap:round;stroke-linejoin:round;stroke-miterlimit:4;stroke-dasharray:none;stroke-opacity:1"
       d="m 16.805808,263.40003 a 15.875,15.875 0 0 0 -15.875,15.875 15.875,15.875 0 0 0 15.875,15.875 15.875,15.875 0 0 0 15.874999,-15.875 15.875,15.875 0 0 0 -15.874999,-15.875 z m 0,6.61459 a 9.2604168,9.2604168 0 0 1 9.260416,9.26041 9.2604168,9.2604168 0 0 1 -9.260416,9.26042 9.2604168,9.2604168 0 0 1 -9.2604168,-9.26042 9.2604168,9.2604168 0 0 1 9.2604168,-9.26041 z"
       id="path1523"
       inkscape:connector-curvature="0" />
    <path
       style="display:inline;opacity:1;vector-effect:none;fill:#e01b24;fill-opacity:1;stroke:none;stroke-width:1.05833328;stroke-linecap:butt;stroke-linejoin:miter;stroke-miterlimit:4;stroke-dasharray:none;stroke-dashoffset:0;stroke-opacity:1;marker:none;marker-start:none;marker-mid:none;marker-end:none;paint-order:normal;enable-background:new"
       d="m 1.8630508,284.57807 h 7.3644083 c -8.027e-4,-0.001 -0.00126,-0.002 -0.00207,-0.004 A 9.2604168,9.2604168 0 0 1 9.0135158,284.27796 9.2604168,9.2604168 0 0 1 8.5530789,283.47491 9.2604168,9.2604168 0 0 1 8.1748073,282.63 9.2604168,9.2604168 0 0 1 8.0063423,282.12306 c -0.012746,-0.0391 -0.026533,-0.0775 -0.038758,-0.11679 a 9.2604168,9.2604168 0 0 1 -0.084749,-0.25425 9.2604168,9.2604168 0 0 1 -0.2025716,-0.9033 9.2604168,9.2604168 0 0 1 -0.015503,-0.12868 c -0.00673,-0.042 -0.00935,-0.0845 -0.015503,-0.12661 a 9.2604168,9.2604168 0 0 1 -0.080615,-0.66352 9.2604168,9.2604168 0 0 1 -0.023255,-0.65526 9.2604168,9.2604168 0 0 1 0.046509,-0.92449 9.2604168,9.2604168 0 0 1 0.096118,-0.63614 c 0.00412,-0.0236 0.00603,-0.0472 0.010335,-0.0708 a 9.2604168,9.2604168 0 0 1 0.031523,-0.20826 9.2604168,9.2604168 0 0 1 0.2289265,-0.8971 9.2604168,9.2604168 0 0 1 0.1565796,-0.42892 c 1.31e-4,-3.5e-4 3.858e-4,-6.7e-4 5.167e-4,-0.001 H 1.2667048 a 15.875,15.875 0 0 0 -0.1049031,0.4687 15.875,15.875 0 0 0 -0.1912028,1.5751 15.875,15.875 0 0 0 -0.039791,1.12293 15.875,15.875 0 0 0 0.079065,1.58492 15.875,15.875 0 0 0 0.2371948,1.56889 15.875,15.875 0 0 0 0.3927408,1.53738 15.875,15.875 0 0 0 0.2232422,0.61185 z"
       id="path1579"
       inkscape:connector-curvature="0" />
    <path
       style="display:inline;opacity:1;vector-effect:none;fill:#e01b24;fill-opacity:1;stroke:none;stroke-width:1.05833328;stroke-linecap:butt;stroke-linejoin:miter;stroke-miterlimit:4;stroke-dasharray:none;stroke-dashoffset:0;stroke-opacity:1;marker:none;marker-start:none;marker-mid:none;marker-end:none;paint-order:normal;enable-background:new"
       d="m 21.022088,294.56247 v -7.0435 c -6.33e-4,3.3e-4 -0.0014,2e-4 -0.0021,5.2e-4 a 9.2604168,9.2604168 0 0 1 -0.01395,0.008 9.2604168,9.2604168 0 0 1 -0.844909,0.37827 9.2604168,9.2604168 0 0 1 -0.877983,0.29197 9.2604168,9.2604168 0 0 1 -0.238745,0.0537 c -0.05602,0.014 -0.111678,0.0243 -0.167949,0.0372 a 9.2604168,9.2604168 0 0 1 -0.49661,0.11162 9.2604168,9.2604168 0 0 1 -0.918807,0.11162 9.2604168,9.2604168 0 0 1 -0.655257,0.0233 9.2604168,9.2604168 0 0 1 -0.924492,-0.0465 9.2604168,9.2604168 0 0 1 -0.915189,-0.13798 9.2604168,9.2604168 0 0 1 -0.294556,-0.0749 c -0.03781,-0.009 -0.07445,-0.0194 -0.112138,-0.0289 a 9.2604168,9.2604168 0 0 1 -0.490409,-0.12505 9.2604168,9.2604168 0 0 1 -0.869198,-0.31781 9.2604168,9.2604168 0 0 1 -0.63562,-0.30696 c -0.0026,-0.001 -0.0056,-0.002 -0.0083,-0.003 v 7.07657 a 15.875,15.875 0 0 0 0.0031,10e-4 15.875,15.875 0 0 0 1.548742,0.34727 15.875,15.875 0 0 0 1.575098,0.1912 15.875,15.875 0 0 0 1.122929,0.0398 15.875,15.875 0 0 0 1.584916,-0.0791 15.875,15.875 0 0 0 1.568896,-0.2372 15.875,15.875 0 0 0 1.062468,-0.2713 z"
       id="path1575"
       inkscape:connector-curvature="0" />
    <path
       style="display:inline;opacity:1;vector-effect:none;fill:#e01b24;fill-opacity:1;stroke:none;stroke-width:1.05833328;stroke-linecap:butt;stroke-linejoin:miter;stroke-miterlimit:4;stroke-dasharray:none;stroke-dashoffset:0;stroke-opacity:1;marker:none;marker-start:none;marker-mid:none;marker-end:none;paint-order:normal;enable-background:new"
       d="m 25.499334,276.1083 a 9.2604168,9.2604168 0 0 1 0.229443,0.68936 9.2604168,9.2604168 0 0 1 0.202572,0.90331 9.2604168,9.2604168 0 0 1 0.111621,0.9188 9.2604168,9.2604168 0 0 1 0.02325,0.65526 9.2604168,9.2604168 0 0 1 -0.04651,0.92449 9.2604168,9.2604168 0 0 1 -0.05116,0.34003 c -0.01276,0.0919 -0.02584,0.18301 -0.04134,0.27441 a 9.2604168,9.2604168 0 0 1 -0.04547,0.30075 9.2604168,9.2604168 0 0 1 -0.228927,0.89711 9.2604168,9.2604168 0 0 1 -0.01602,0.0434 9.2604168,9.2604168 0 0 1 -0.30179,0.82579 9.2604168,9.2604168 0 0 1 -0.1757,0.36432 c -0.03217,0.0676 -0.06383,0.1347 -0.09767,0.20154 a 9.2604168,9.2604168 0 0 1 -0.129191,0.26768 9.2604168,9.2604168 0 0 1 -0.483691,0.7891 9.2604168,9.2604168 0 0 1 -0.05529,0.0729 c -3.57e-4,5.1e-4 -6.76e-4,10e-4 -10e-4,0.002 h 7.358723 a 15.875,15.875 0 0 0 0.351401,-1.05627 15.875,15.875 0 0 0 0.347266,-1.54874 15.875,15.875 0 0 0 0.191201,-1.5751 15.875,15.875 0 0 0 0.02325,-0.65629 v -0.79788 a 15.875,15.875 0 0 0 -0.06253,-1.25367 15.875,15.875 0 0 0 -0.237193,-1.5689 15.875,15.875 0 0 0 -0.0031,-0.0129 z"
       id="path1557"
       inkscape:connector-curvature="0" />
    <path
       style="display:inline;opacity:1;vector-effect:none;fill:#e01b24;fill-opacity:1;stroke:none;stroke-width:1.05833328;stroke-linecap:butt;stroke-linejoin:miter;stroke-miterlimit:4;stroke-dasharray:none;stroke-dashoffset:0;stroke-opacity:1;marker:none;marker-start:none;marker-mid:none;marker-end:none;paint-order:normal;enable-background:new"
       d="m 21.155413,264.0124 a 15.875,15.875 0 0 0 -0.102836,-0.0341 15.875,15.875 0 0 0 -1.548743,-0.34726 15.875,15.875 0 0 0 -1.575097,-0.19121 15.875,15.875 0 0 0 -1.122929,-0.0398 15.875,15.875 0 0 0 -1.584916,0.0791 15.875,15.875 0 0 0 -1.568897,0.23719 15.875,15.875 0 0 0 -1.127063,0.28784 l 0.03101,7.0466 a 9.2604168,9.2604168 0 0 1 0.04961,-0.0284 9.2604168,9.2604168 0 0 1 0.84491,-0.37828 9.2604168,9.2604168 0 0 1 0.877983,-0.29197 9.2604168,9.2604168 0 0 1 0.232027,-0.0522 c 0.04775,-0.012 0.09521,-0.0208 0.143144,-0.032 a 9.2604168,9.2604168 0 0 1 0.528133,-0.11834 9.2604168,9.2604168 0 0 1 0.918807,-0.11162 9.2604168,9.2604168 0 0 1 0.655257,-0.0233 9.2604168,9.2604168 0 0 1 0.924491,0.0465 9.2604168,9.2604168 0 0 1 0.91519,0.13798 9.2604168,9.2604168 0 0 1 0.284737,0.0729 c 0.03206,0.008 0.06311,0.0163 0.09508,0.0243 a 9.2604168,9.2604168 0 0 1 0.517281,0.13178 9.2604168,9.2604168 0 0 1 0.869197,0.31781 9.2604168,9.2604168 0 0 1 0.608749,0.29404 c 4.87e-4,2.5e-4 0.0011,2.6e-4 0.0016,5.1e-4 z"
       id="path1555"
       inkscape:connector-curvature="0" />
    <circle
       id="circle864"
       style="display:inline;opacity:1;vector-effect:none;fill:none;fill-opacity:1;stroke:url(#linearGradient884);stroke-width:3.99999952;stroke-linecap:butt;stroke-linejoin:miter;stroke-miterlimit:4;stroke-dasharray:none;stroke-dashoffset:0;stroke-opacity:1;marker:none;marker-start:none;marker-mid:none;marker-end:none;paint-order:normal;filter:url(#filter1047);enable-background:new"
       cx="64.420197"
       cy="67.086838"
       r="52"
       transform="matrix(0.26458333,0,0,0.26458333,-0.14457697,262.34999)" />
    <circle
       transform="matrix(-0.26458333,0,0,-0.26458333,-0.14457697,218.42916)"
       style="display:inline;opacity:1;vector-effect:none;fill:none;fill-opacity:1;stroke:url(#linearGradient892);stroke-width:4;stroke-linecap:butt;stroke-linejoin:miter;stroke-miterlimit:4;stroke-dasharray:none;stroke-dashoffset:0;stroke-opacity:1;marker:none;marker-start:none;marker-mid:none;marker-end:none;paint-order:normal;filter:url(#filter1031);enable-background:new"
       id="path866"
       cx="-64.420181"
       cy="-235.08685"
       r="42" />
  </g>
</svg>
