<svg fill="none" height="128" viewBox="0 0 128 128" width="128" xmlns="http://www.w3.org/2000/svg">
  <path d="m124 64c0 15.913-6.321 31.1742-17.574 42.426-11.2518 11.253-26.513 17.574-42.426 17.574-7.8793 0-15.6815-1.552-22.961-4.567-7.2795-3.016-13.8939-7.435-19.4654-13.007-5.5715-5.571-9.9911-12.1855-13.00637-19.465-3.01529-7.2796-4.56723-15.0817-4.56723-22.961s1.55195-15.6815 4.56723-22.961c3.01527-7.2795 7.43487-13.8939 13.00637-19.4654s12.1859-9.9911 19.4654-13.00639c7.2795-3.01528 15.0817-4.56721 22.961-4.56721 15.913 0 31.1742 6.3214 42.426 17.5736 11.253 11.2522 17.574 26.5134 17.574 42.4264z" fill="#3d3846" opacity=".65"/>
  <path d="m120 62c0-30.9279-25.072-56-55.9999-56-30.928 0-56.00004 25.0721-56.00004 56v2c0 30.9279 25.07204 56 56.00004 56 30.9279 0 55.9999-25.0721 55.9999-56z" fill="#c0bfbc"/>
  <path d="m124 62c0 15.913-6.321 31.1742-17.574 42.426-11.2518 11.253-26.513 17.574-42.426 17.574-7.8793 0-15.6815-1.552-22.961-4.567-7.2795-3.016-13.8939-7.435-19.4654-13.007-5.5715-5.5711-9.9911-12.1855-13.00637-19.465-3.01528-7.2795-4.56723-15.0817-4.56723-22.961s1.55194-15.6815 4.56723-22.961c3.01527-7.2796 7.43487-13.8939 13.00637-19.4654s12.1859-9.99109 19.4654-13.00637 15.0817-4.56723 22.961-4.56723c15.913 0 31.1742 6.32141 42.426 17.5736 11.253 11.2522 17.574 26.5134 17.574 42.4264z" fill="#3d3846"/>
  <path d="m118 62c0 14.3217-5.689 28.0568-15.816 38.184-10.1272 10.127-23.8623 15.816-38.184 15.816-7.0914 0-14.1133-1.397-20.6649-4.111-6.5516-2.713-12.5045-6.691-17.5189-11.705-5.0143-5.0146-8.9919-10.9675-11.7057-17.5191-2.7137-6.5516-4.1105-13.5735-4.1105-20.6649s1.3968-14.1133 4.1105-20.6649c2.7138-6.5516 6.6914-12.5045 11.7057-17.5189 5.0144-5.0143 10.9673-8.9919 17.5189-11.7057 6.5516-2.71375 13.5735-4.1105 20.6649-4.1105 14.3217 0 28.0568 5.6893 38.184 15.8162 10.127 10.127 15.816 23.8621 15.816 38.1838z" stroke="#57e389" stroke-width="12"/>
  <path d="m34.4501 53.6495c0 19.0039 15.6912 45.2879 29.55 45.2879 13.0467 0 29.5499-26.284 29.5499-45.2879 0-19.004-13.23-28.5869-29.5501-28.5869-16.32 0-29.5498 9.5829-29.5498 28.5869z" fill="#33d17a"/>
  <path d="m72.0931 66.3993c3.7317-3.7317 8.9381-5.0889 13.7434-4.0733 1.0155 4.8052-.3416 10.0117-4.0734 13.7434-3.7317 3.7317-8.9381 5.0889-13.7434 4.0733-1.0156-4.8054.3416-10.0118 4.0734-13.7434z" fill="#3d3846"/>
  <path d="m93.5067 52.6502c-.4693 18.9292-16.6499 44.4404-29.5066 44.4404-13.6528 0-29.0509-25.495-29.5067-44.4223-.0074.3316-.0432.6435-.0432.9811 0 19.004 15.6912 45.288 29.5499 45.288 13.0467 0 29.55-26.284 29.55-45.288 0-.3438-.0347-.6616-.0432-.9992z" fill="#000" opacity=".2"/>
  <path d="m42.1636 62.5781c4.8052-1.0014 10.0116.3368 13.7434 4.0167 3.7317 3.6799 5.0889 8.8141 4.0733 13.5525-4.8052 1.0014-10.0117-.3368-13.7434-4.0167-3.7318-3.68-5.0888-8.814-4.0733-13.5525z" fill="#3d3846"/>
</svg>
