<svg xmlns="http://www.w3.org/2000/svg" xmlns:xlink="http://www.w3.org/1999/xlink" width="128" height="128" version="1.0">
 <defs>
  <linearGradient id="a">
   <stop id="stop2" offset="0" stop-color="#68676b"/>
   <stop id="stop4" offset=".8" stop-color="#424048"/>
   <stop id="stop6" offset="1" stop-color="#241f31"/>
  </linearGradient>
  <radialGradient id="d" cx="279.422" cy="446.483" r="224" fx="279.422" fy="446.483" gradientTransform="matrix(1.34416 .0006 -.00062 1.38763 -121.22 -718.103)" gradientUnits="userSpaceOnUse" xlink:href="#a"/>
  <linearGradient id="e" x1="43.844" x2="-60" y1="234" y2="234" gradientTransform="matrix(1.0015 0 0 .99993 72.09 56.015)" gradientUnits="userSpaceOnUse" xlink:href="#b"/>
  <linearGradient id="b">
   <stop id="stop11" offset="0" stop-color="#d5d3cf"/>
   <stop id="stop13" offset=".038" stop-color="#e3e2df"/>
   <stop id="stop15" offset=".077" stop-color="#c0bfbc"/>
   <stop id="stop17" offset=".923" stop-color="#c0bfbc"/>
   <stop id="stop19" offset=".962" stop-color="#e3e2df"/>
   <stop id="stop21" offset="1" stop-color="#d5d3cf"/>
  </linearGradient>
  <linearGradient id="linearGradient1007" x1="160.305" x2="161.33" y1="240.139" y2="135.579" gradientTransform="matrix(0.54625232,0,0,0.54625232,-6.0941965,-68.413544)" gradientUnits="userSpaceOnUse" xlink:href="#linearGradient1018"/>
  <linearGradient id="linearGradient1018">
   <stop id="stop2-3" offset="0" style="stop-color:#37a6e6"/>
   <stop id="stop4-6" offset="1" style="stop-color:#1a7fd4"/>
  </linearGradient>
 </defs>
 <g transform="translate(0 -172)">
  <rect fill="url(#e)" width="104" height="48" x="12" y="240" rx="8" ry="8"/>
  <path d="M 20 10 C 15.568 10 12 13.568 12 18 L 12 60 L 12 102 C 12 106.432 15.568 110 20 110 L 64 110 L 108 110 C 112.432 110 116 106.432 116 102 L 116 60 L 116 18 C 116 13.568 112.432 10 108 10 L 20 10 z" transform="translate(0,172)" style="fill:#f6f5f4"/>
  <g transform="matrix(0.75,0,0,0.81951145,12.321538,212.04877)" style="enable-background:new">
   <g transform="matrix(2,0,0,2,24.834232,-1978.9059)">
    <g transform="matrix(0.5288301,0,0,0.48397442,-10.949758,1001.7122)">
     <g transform="matrix(0.15600733,0,0,0.15600733,39.250164,-143.11337)" style="enable-background:new">
      <path d="m 148.3457,95.794922 c -3.19432,0.04399 -6.96581,0.75916 -9.82226,2.769531 -0.88351,0.613974 -0.73281,1.467457 0.24804,1.347656 3.21959,-0.381858 10.3912,-1.243584 11.66407,0.388671 1.28035,1.63975 -1.42149,8.38654 -2.62696,11.39649 -0.36688,0.91346 0.41858,1.28064 1.24219,0.59179 5.36848,-4.48496 6.7455,-13.883053 5.65234,-15.238279 -0.54658,-0.673867 -3.1631,-1.299848 -6.35742,-1.255859 z m -83.912106,1.802734 c -0.665796,0.08599 -0.96171,0.892782 -0.259766,1.527344 11.912486,10.75942 27.657827,17.22852 45.148442,17.22852 12.47403,0 26.96328,-3.93121 36.95898,-11.29883 1.65472,-1.22794 0.23903,-3.05474 -1.45313,-2.33594 -11.20117,4.75451 -23.38314,7.04687 -34.45703,7.04687 -16.419905,0 -32.315977,-4.50053 -45.171871,-11.980464 -0.280779,-0.164722 -0.543693,-0.216163 -0.765625,-0.1875 z" transform="matrix(3.501453,0,0,3.501453,-290.16834,416.88681)" style="fill:#ff9900;fill-rule:evenodd"/>
      <path d="m 52.365234,64.519531 c -5.061498,0 -10.713796,1.88505 -11.904296,8.144531 -0.119799,0.666375 0.358697,1.019857 0.792968,1.117188 l 5.167969,0.552734 c 0.479192,-0.02246 0.830071,-0.493458 0.919922,-0.972656 0.441756,-2.156376 2.254117,-3.197266 4.283203,-3.197266 1.093166,0 2.334918,0.40391 2.986328,1.384766 0.741255,1.093158 0.644531,2.592044 0.644531,3.857422 v 0.6875 c -3.084819,0.351908 -7.119622,0.576744 -10.009765,1.849609 -3.3319,1.437584 -5.675782,4.380929 -5.675782,8.701172 10e-7,5.533197 3.489319,8.294922 7.966797,8.294922 3.788639,0 5.855297,-0.891102 8.775391,-3.871094 0.973364,1.400148 1.287661,2.081295 3.054688,3.548829 0.396832,0.209644 0.905904,0.187519 1.257812,-0.126954 l 0.01367,0.01563 c 1.063218,-0.943414 2.996356,-2.627222 4.082031,-3.533203 0.434271,-0.359396 0.358092,-0.936826 0.01367,-1.416015 -0.973364,-1.347741 -2.005859,-2.440281 -2.005859,-4.933594 v -8.296875 c 0,-3.511602 0.2469,-6.737814 -2.34375,-9.15625 -2.044066,-1.961703 -5.42889,-2.650391 -8.019532,-2.650391 z m 69.791016,0 c -5.06149,0 -10.72129,1.88505 -11.9043,8.144531 -0.12728,0.666375 0.3587,1.019857 0.79297,1.117188 l 5.1582,0.552734 c 0.48669,-0.02246 0.83984,-0.493458 0.92969,-0.972656 0.44176,-2.156376 2.2463,-3.197266 4.27539,-3.197266 1.10065,0 2.34241,0.40391 2.98633,1.384766 0.74874,1.093158 0.65235,2.592044 0.65235,3.857422 v 0.6875 c -3.08482,0.351908 -7.12158,0.576744 -10.01172,1.849609 -3.33939,1.437584 -5.67578,4.380929 -5.67578,8.701172 0,5.533197 3.48183,8.294922 7.96679,8.294922 3.78115,0 5.8553,-0.891102 8.77539,-3.871094 0.96588,1.400148 1.28766,2.081295 3.05469,3.548829 0.39683,0.209644 0.90591,0.187519 1.25781,-0.126954 l 0.008,0.01563 c 1.06321,-0.943414 2.9944,-2.627222 4.08007,-3.533203 0.43429,-0.359396 0.36038,-0.936826 0.0234,-1.416015 -0.97336,-1.347741 -2.00586,-2.440281 -2.00586,-4.933594 v -8.296875 c 0,-3.511602 0.2469,-6.737814 -2.34375,-9.15625 -2.04406,-1.961703 -5.42888,-2.650391 -8.01953,-2.650391 z M 82.951172,64.78125 c -3.279493,0 -5.71249,1.608843 -7.007813,5.060547 h -0.09766 v -3.570313 c -0.03744,-0.494169 -0.448207,-0.891614 -0.964844,-0.914062 h -4.964843 c -0.569044,0 -1.025391,0.433887 -1.025391,0.980469 v 27.322265 c 0.03744,0.486687 0.442032,0.868817 0.951172,0.90625 h 5.324219 c 0.569043,0 1.02539,-0.441699 1.02539,-0.988281 V 79.097656 c 0,-3.159694 -0.150293,-7.533203 3.675782,-7.533203 3.781141,0 3.279296,4.485825 3.279296,7.533203 l 0.0078,14.480469 c 0,0.52412 0.419891,0.950848 0.958984,0.988281 h 5.314453 c 0.569044,0 1.027344,-0.441699 1.027344,-0.988281 V 79.097656 c 0,-1.549899 -0.05244,-3.85669 0.494141,-5.234375 0.546581,-1.377688 1.893804,-2.238281 3.18164,-2.238281 1.542411,0 2.732074,0.515197 3.128907,2.349609 0.254568,1.093167 0.15039,3.969986 0.15039,5.123047 v 14.480469 c 0,0.52412 0.427382,0.950848 0.958985,0.988281 h 5.316406 c 0.56904,0 1.02539,-0.441699 1.02539,-0.988281 l 0.008,-17.244141 c 0,-2.927584 0.34287,-6.267769 -1.3418,-8.566406 -1.48999,-2.066528 -3.930852,-2.986328 -6.162103,-2.986328 -3.137232,0 -6.063726,1.608843 -7.351563,5.060547 C 88.36597,66.390093 86.283245,64.78125 82.951345,64.78125 Z m 90.605468,0 c -7.70456,0 -11.97852,6.611479 -11.97852,15.117188 0,8.453293 4.22155,15.236328 11.97852,15.236328 7.44998,0 12.17578,-6.611818 12.17578,-14.945313 0,-8.625508 -4.27655,-15.408203 -12.17578,-15.408203 z m 30.41406,0 c -3.67632,0 -5.7639,1.781358 -7.2539,5.517578 h -0.0977 v -4.177734 c -0.10483,-0.426783 -0.48696,-0.741224 -0.95117,-0.763672 h -4.93359 c -0.5391,0 -0.98242,0.388967 -1.02735,0.890625 l 0.008,27.330078 c 0,0.52412 0.42738,0.950848 0.95899,0.988281 h 5.30078 c 0.56904,0 1.03353,-0.441699 1.04101,-0.988281 V 78.865234 c 0,-1.841904 0.097,-3.504129 0.84571,-5.173828 0.5915,-1.317781 1.7828,-2.1875 3.07812,-2.1875 3.67633,0 3.33203,4.373849 3.33203,7.361328 v 14.839844 c 0.0524,0.464219 0.45668,0.823895 0.94336,0.861328 h 5.33789 c 0.52412,0 0.9655,-0.382138 1.02539,-0.861328 V 76.505859 c 0,-2.643054 9e-5,-6.319532 -1.39257,-8.505859 -1.49749,-2.358535 -3.82636,-3.21875 -6.21485,-3.21875 z m -63.98632,0.501953 c -0.5391,0 -0.98829,0.396776 -0.98829,0.988281 v 3.908204 c 0,0.584023 0.44821,0.980468 1.00977,0.980468 h 9.14258 L 138.64258,86.224609 C 138.00615,87.190486 138,88.275679 138,88.912109 v 3.960938 c 0,0.569044 0.63571,1.227883 1.24219,0.898437 5.95249,-3.159694 13.10287,-2.852056 18.48633,-0.0293 0.65889,0.344417 1.28906,-0.321582 1.28906,-0.890626 v -4.171874 c -0.0524,-0.561562 -0.24085,-1.130188 -0.92969,-1.519532 -3.05487,-1.722108 -6.61113,-2.222982 -9.98047,-2.140625 l 9.06836,-12.945312 c 0.8386,-1.16055 1.30892,-1.895476 1.31641,-2.457031 V 66.27148 c 0,-0.584017 -0.44821,-0.988281 -1.00977,-0.988281 z m 33.61718,5.076172 c 1.69216,0 2.88343,0.740779 3.48242,2.642578 0.69634,2.18633 0.79297,4.941927 0.79297,7.248047 0,3.50412 -0.19474,9.253906 -4.32031,9.253906 -4.17798,0 -4.125,-7.127409 -4.125,-10.466797 0,-3.331905 0.24652,-8.677734 4.16992,-8.677734 z M 55.255859,80.361328 v 1.154297 c 0,2.074013 0.05214,3.802624 -0.996093,5.644531 -0.846083,1.497487 -2.18611,2.419922 -3.683594,2.419922 -2.044066,0 -3.234375,-1.558785 -3.234375,-3.857422 0,-4.537373 4.065525,-5.361328 7.914062,-5.361328 z m 69.791021,0 v 1.154297 c 0,2.074013 0.0521,3.802624 -0.9961,5.644531 -0.84608,1.497487 -2.1936,2.419922 -3.68359,2.419922 -2.04407,0 -3.24219,-1.558785 -3.24219,-3.857422 0,-4.537373 4.06586,-5.361328 7.92188,-5.361328 z" transform="matrix(3.501453,0,0,3.501453,-290.16834,416.88681)" style="fill:#221f1f;fill-rule:evenodd"/>
     </g>
     <path d="m 40.055853,58.593852 c -0.92974,-5.29932 -7.23788,-43.417992 -7.23788,-43.736889 0,-0.129095 -2.54947,-0.234724 -5.66548,-0.234724 -5.41023,0 -5.71271,-0.04725 -6.7138,-1.048319 -1.36931,-1.369318 -1.74689,-2.996183 -1.07298,-4.6231461 1.02457,-2.473545 1.49281,-2.579999 11.34818,-2.579999 8.19348,0 9.01351,0.06765 9.21162,0.760001 0.1196,0.418003 0.55226,2.860871 0.96145,5.4285951 l 0.74398,4.66859 h 43.148 43.147997 v 3.040016 c 0,2.220169 -0.15376,3.040013 -0.57017,3.040013 -0.3136,0 -1.09523,0.548031 -1.73696,1.217853 l -1.16678,1.217859 1.51981,1.473061 c 1.39798,1.354975 1.51982,1.678022 1.51982,4.029784 0,1.406198 -0.18173,2.491584 -0.40383,2.411962 -0.22211,-0.07962 -1.47598,-1.170765 -2.78638,-2.42477 -1.31041,-1.25401 -2.54962,-2.280014 -2.75381,-2.280014 -0.2042,0 -2.12335,1.760252 -4.2648,3.911659 l -3.89352,3.911655 4.00516,4.005163 4.00518,4.00518 2.29965,-2.27109 c 1.26481,-1.2491 2.43519,-2.27109 2.60086,-2.27109 0.59382,0 -1.29851,6.97426 -2.73967,10.09718 -0.61441,1.33141 -0.86657,1.4343 -1.63407,0.66681 -0.41379,-0.41379 -1.36987,0.31099 -4.43572,3.36264 -2.14953,2.13956 -3.82313,4.11187 -3.71913,4.38291 0.11372,0.29634 -1.05254,0.84582 -2.92545,1.37835 -6.04739,1.71944 -6.36419,1.68704 -4.32423,-0.44221 l 1.1789,-1.23051 -4.00178,-4.00177 -4.001767,-4.00177 -4.00655,4.00654 -4.00654,4.00655 1.86378,1.89905 1.86378,1.89906 -2.74297,0.24886 c -2.06352,0.18722 -2.9158,0.0925 -3.44071,-0.38233 -0.61108,-0.5528 -0.766,-0.54892 -1.24746,0.0312 -0.37859,0.45617 -1.3444,0.66239 -3.10228,0.66239 -1.40391,0 -2.55256,-0.13918 -2.55256,-0.30928 0,-0.1701 0.76573,-1.09839 1.70161,-2.06287 l 1.70161,-1.75358 -3.85264,-4.12573 -3.85264,-4.12573 -4.14299,4.11401 -4.14298,4.11402 2.0434,2.07458 2.04338,2.07458 h -2.86194 c -2.03518,0 -3.02075,-0.19135 -3.41167,-0.66239 -0.4927,-0.59366 -0.62568,-0.59366 -1.28166,0 -0.77183,0.69849 -5.65785,0.96905 -5.65785,0.31329 0,-0.192 0.684,-1.01205 1.52001,-1.82234 0.836,-0.81029 1.52,-1.68327 1.52,-1.93997 0,-0.25669 -1.75875,-2.21731 -3.90832,-4.35693 l -3.90832,-3.89021 -3.69171,3.67254 c -2.03044,2.01989 -3.69171,3.92549 -3.69171,4.23468 0,0.30919 0.8066,1.43721 1.79246,2.50674 l 1.79246,1.94459 h -5.61925 -5.61926 l -0.74288,-4.23431 z m 31.17398,-7.03448 3.86789,-3.8859 -3.84697,-3.93128 c -2.11583,-2.1622 -4.05996,-3.93128 -4.32028,-3.93128 -0.26033,0 -2.22404,1.75887 -4.36381,3.90859 l -3.89048,3.90859 3.89048,3.90859 c 2.13977,2.14972 4.09406,3.90858 4.34288,3.90858 0.24881,0 2.19295,-1.74865 4.32029,-3.88589 z m 21.74002,-0.0257 3.89353,-3.91165 -4.01116,-4.01116 -4.01116,-4.01115 -4.01116,4.01115 -4.01116,4.01116 3.89353,3.91165 c 2.14145,2.15141 3.9994,3.91166 4.12879,3.91166 0.12939,0 1.98734,-1.76025 4.12879,-3.91166 z m 21.714377,0 3.89353,-3.91165 -4.01116,-4.01116 -4.01116,-4.01115 -4.01116,4.01115 -4.01116,4.01116 3.89354,3.91165 c 2.14144,2.15141 3.9994,3.91166 4.12878,3.91166 0.12939,0 1.98735,-1.76025 4.12879,-3.91166 z m -65.347447,-7.58099 c -2.01389,-2.0244 -3.70129,-3.63788 -3.74977,-3.5855 -0.0761,0.0822 0.96951,6.56745 1.79476,11.13219 l 0.26804,1.48263 2.67429,-2.67429 2.67429,-2.67429 z m 10.52464,-3.17314 c 2.08503,-2.094734 3.79096,-3.996085 3.79096,-4.225233 0,-0.567409 -7.03216,-7.60051 -7.5995,-7.60051 -0.24911,0 -2.20364,1.758866 -4.34341,3.908587 l -3.89047,3.908587 3.89047,3.908589 c 2.13977,2.14972 3.99634,3.90859 4.12573,3.90859 0.1294,0 1.94119,-1.71387 4.02622,-3.80861 z m 22.24818,-0.1 3.89048,-3.908589 -3.89048,-3.908587 c -2.13977,-2.149721 -4.08611,-3.908587 -4.32523,-3.908587 -0.23911,0 -2.14882,1.706132 -4.2438,3.791407 l -3.80906,3.791406 4.00904,4.02577 c 2.20496,2.21417 4.11467,4.02577 4.2438,4.02577 0.12912,0 1.98548,-1.75887 4.12525,-3.90859 z m 21.717437,-0.003 3.89353,-3.911654 -4.01116,-4.011161 -4.011157,-4.011156 -4.01116,4.011156 -4.01115,4.011161 3.89353,3.911654 c 2.14143,2.15141 3.99939,3.91166 4.12878,3.91166 0.12939,0 1.987347,-1.76025 4.128787,-3.91166 z M 49.004243,29.922583 c 2.08502,-2.09473 3.79095,-4.034841 3.79095,-4.31135 0,-0.27651 -0.51493,-0.907793 -1.14428,-1.402848 -0.9622,-0.756857 -1.75695,-0.900089 -4.99431,-0.900089 -2.79123,0 -3.84964,0.149289 -3.84863,0.542858 0.002,0.721118 1.27925,8.152133 1.56776,9.120039 0.12459,0.418003 0.36401,0.759999 0.53204,0.759999 0.16802,0 2.01143,-1.71387 4.09647,-3.808609 z m 24.7652,-5.404007 c -1.15229,-1.202731 -1.19476,-1.21028 -6.80881,-1.21028 -5.55024,0 -5.67083,0.02067 -6.87712,1.176321 l -1.22782,1.176325 4.01855,4.035335 4.01856,4.035336 4.01808,-4.001381 4.01808,-4.001372 z m 19.18805,5.31338 3.88117,-3.899236 -1.25718,-1.312212 -1.25718,-1.312212 h -5.53117 c -5.35177,0 -5.57559,0.03735 -6.90084,1.152498 l -1.36967,1.152506 4.04207,4.05895 c 2.22314,2.232419 4.14772,4.058942 4.27685,4.058942 0.12913,0 1.9813,-1.754653 4.11595,-3.899236 z m 21.624167,0.09063 c 2.08502,-2.09473 3.79096,-4.034841 3.79096,-4.31135 0,-0.27651 -0.51493,-0.907793 -1.14428,-1.402848 -1.02098,-0.803096 -1.73762,-0.900089 -6.65021,-0.900089 h -5.50592 l -1.25718,1.312212 -1.25719,1.312212 3.88117,3.899236 c 2.13465,2.144583 3.98705,3.899236 4.11643,3.899236 0.12939,0 1.94119,-1.71387 4.02622,-3.808609 z" style="fill:url(#linearGradient1007);paint-order:markers fill stroke"/>
    </g>
   </g>
  </g>
 </g>
</svg>
