<svg height="128" width="128" xmlns="http://www.w3.org/2000/svg" xmlns:xlink="http://www.w3.org/1999/xlink">
  <linearGradient id="e" gradientTransform="matrix(1.0015 0 0 .99993 72.09 56.015)" gradientUnits="userSpaceOnUse" x1="43.844" x2="-60" y1="234" y2="234">
    <stop offset="0" stop-color="#d5d3cf"/>
    <stop offset=".038" stop-color="#e3e2df"/>
    <stop offset=".077" stop-color="#c0bfbc"/>
    <stop offset=".923" stop-color="#c0bfbc"/>
    <stop offset=".962" stop-color="#e3e2df"/>
    <stop offset="1" stop-color="#d5d3cf"/>
  </linearGradient>
  <linearGradient id="linearGradient1007" gradientUnits="userSpaceOnUse" x1="81.4727811576" x2="82.0326897856" y1="62.76294187248" y2="5.64679929328">
    <stop offset="0" stop-color="#37a6e6"/>
    <stop offset="1" stop-color="#1a7fd4"/>
  </linearGradient>
  <g transform="translate(0 -172)">
    <rect fill="url(#e)" height="48" rx="8" width="104" x="12" y="240"/>
    <path d="m20 10c-4.432 0-8 3.568-8 8v42 42c0 4.432 3.568 8 8 8h44 44c4.432 0 8-3.568 8-8v-42-42c0-4.432-3.568-8-8-8z" fill="#f6f5f4" transform="translate(0 172)"/>
    <g enable-background="new" transform="matrix(.79324515 0 0 .79324515739 14.522575 232.14196148683)">
      <g enable-background="new" fill-rule="evenodd" transform="matrix(.54625233365 0 0 .54625233365 -6.01822397393 -78.07597185968)">
        <path d="m148.3457 95.794922c-3.19432.04399-6.96581.75916-9.82226 2.769531-.88351.613974-.73281 1.467457.24804 1.347656 3.21959-.381858 10.3912-1.243584 11.66407.388671 1.28035 1.63975-1.42149 8.38654-2.62696 11.39649-.36688.91346.41858 1.28064 1.24219.59179 5.36848-4.48496 6.7455-13.883053 5.65234-15.238279-.54658-.673867-3.1631-1.299848-6.35742-1.255859zm-83.912106 1.802734c-.665796.08599-.96171.892782-.259766 1.527344 11.912486 10.75942 27.657827 17.22852 45.148442 17.22852 12.47403 0 26.96328-3.93121 36.95898-11.29883 1.65472-1.22794.23903-3.05474-1.45313-2.33594-11.20117 4.75451-23.38314 7.04687-34.45703 7.04687-16.419905 0-32.315977-4.50053-45.171871-11.980464-.280779-.164722-.543693-.216163-.765625-.1875z" fill="#f90"/>
        <path d="m52.365234 64.519531c-5.061498 0-10.713796 1.88505-11.904296 8.144531-.119799.666375.358697 1.019857.792968 1.117188l5.167969.552734c.479192-.02246.830071-.493458.919922-.972656.441756-2.156376 2.254117-3.197266 4.283203-3.197266 1.093166 0 2.334918.40391 2.986328 1.384766.741255 1.093158.644531 2.592044.644531 3.857422v.6875c-3.084819.351908-7.119622.576744-10.009765 1.849609-3.3319 1.437584-5.675782 4.380929-5.675782 8.701172.000001 5.533197 3.489319 8.294922 7.966797 8.294922 3.788639 0 5.855297-.891102 8.775391-3.871094.973364 1.400148 1.287661 2.081295 3.054688 3.548829.396832.209644.905904.187519 1.257812-.126954l.01367.01563c1.063218-.943414 2.996356-2.627222 4.082031-3.533203.434271-.359396.358092-.936826.01367-1.416015-.973364-1.347741-2.005859-2.440281-2.005859-4.933594v-8.296875c0-3.511602.2469-6.737814-2.34375-9.15625-2.044066-1.961703-5.42889-2.650391-8.019532-2.650391zm69.791016 0c-5.06149 0-10.72129 1.88505-11.9043 8.144531-.12728.666375.3587 1.019857.79297 1.117188l5.1582.552734c.48669-.02246.83984-.493458.92969-.972656.44176-2.156376 2.2463-3.197266 4.27539-3.197266 1.10065 0 2.34241.40391 2.98633 1.384766.74874 1.093158.65235 2.592044.65235 3.857422v.6875c-3.08482.351908-7.12158.576744-10.01172 1.849609-3.33939 1.437584-5.67578 4.380929-5.67578 8.701172 0 5.533197 3.48183 8.294922 7.96679 8.294922 3.78115 0 5.8553-.891102 8.77539-3.871094.96588 1.400148 1.28766 2.081295 3.05469 3.548829.39683.209644.90591.187519 1.25781-.126954l.008.01563c1.06321-.943414 2.9944-2.627222 4.08007-3.533203.43429-.359396.36038-.936826.0234-1.416015-.97336-1.347741-2.00586-2.440281-2.00586-4.933594v-8.296875c0-3.511602.2469-6.737814-2.34375-9.15625-2.04406-1.961703-5.42888-2.650391-8.01953-2.650391zm-39.205078.261719c-3.279493 0-5.71249 1.608843-7.007813 5.060547h-.09766v-3.570313c-.03744-.494169-.448207-.891614-.964844-.914062h-4.964843c-.569044 0-1.025391.433887-1.025391.980469v27.322265c.03744.486687.442032.868817.951172.90625h5.324219c.569043 0 1.02539-.441699 1.02539-.988281v-14.480469c0-3.159694-.150293-7.533203 3.675782-7.533203 3.781141 0 3.279296 4.485825 3.279296 7.533203l.0078 14.480469c0 .52412.419891.950848.958984.988281h5.314453c.569044 0 1.027344-.441699 1.027344-.988281v-14.480469c0-1.549899-.05244-3.85669.494141-5.234375.546581-1.377688 1.893804-2.238281 3.18164-2.238281 1.542411 0 2.732074.515197 3.128907 2.349609.254568 1.093167.15039 3.969986.15039 5.123047v14.480469c0 .52412.427382.950848.958985.988281h5.316406c.56904 0 1.02539-.441699 1.02539-.988281l.008-17.244141c0-2.927584.34287-6.267769-1.3418-8.566406-1.48999-2.066528-3.930852-2.986328-6.162103-2.986328-3.137232 0-6.063726 1.608843-7.351563 5.060547-1.497484-3.451704-3.580209-5.060547-6.912109-5.060547zm90.605468 0c-7.70456 0-11.97852 6.611479-11.97852 15.117188 0 8.453293 4.22155 15.236328 11.97852 15.236328 7.44998 0 12.17578-6.611818 12.17578-14.945313 0-8.625508-4.27655-15.408203-12.17578-15.408203zm30.41406 0c-3.67632 0-5.7639 1.781358-7.2539 5.517578h-.0977v-4.177734c-.10483-.426783-.48696-.741224-.95117-.763672h-4.93359c-.5391 0-.98242.388967-1.02735.890625l.008 27.330078c0 .52412.42738.950848.95899.988281h5.30078c.56904 0 1.03353-.441699 1.04101-.988281v-14.712891c0-1.841904.097-3.504129.84571-5.173828.5915-1.317781 1.7828-2.1875 3.07812-2.1875 3.67633 0 3.33203 4.373849 3.33203 7.361328v14.839844c.0524.464219.45668.823895.94336.861328h5.33789c.52412 0 .9655-.382138 1.02539-.861328v-17.199219c0-2.643054.00009-6.319532-1.39257-8.505859-1.49749-2.358535-3.82636-3.21875-6.21485-3.21875zm-63.98632.501953c-.5391 0-.98829.396776-.98829.988281v3.908204c0 .584023.44821.980468 1.00977.980468h9.14258l-10.50586 15.064453c-.63643.965877-.64258 2.05107-.64258 2.6875v3.960938c0 .569044.63571 1.227883 1.24219.898437 5.95249-3.159694 13.10287-2.852056 18.48633-.0293.65889.344417 1.28906-.321582 1.28906-.890626v-4.171874c-.0524-.561562-.24085-1.130188-.92969-1.519532-3.05487-1.722108-6.61113-2.222982-9.98047-2.140625l9.06836-12.945312c.8386-1.16055 1.30892-1.895476 1.31641-2.457031v-3.345704c0-.584017-.44821-.988281-1.00977-.988281zm33.61718 5.076172c1.69216 0 2.88343.740779 3.48242 2.642578.69634 2.18633.79297 4.941927.79297 7.248047 0 3.50412-.19474 9.253906-4.32031 9.253906-4.17798 0-4.125-7.127409-4.125-10.466797 0-3.331905.24652-8.677734 4.16992-8.677734zm-118.345701 10.001953v1.154297c0 2.074013.05214 3.802624-.996093 5.644531-.846083 1.497487-2.18611 2.419922-3.683594 2.419922-2.044066 0-3.234375-1.558785-3.234375-3.857422 0-4.537373 4.065525-5.361328 7.914062-5.361328zm69.791021 0v1.154297c0 2.074013.0521 3.802624-.9961 5.644531-.84608 1.497487-2.1936 2.419922-3.68359 2.419922-2.04407 0-3.24219-1.558785-3.24219-3.857422 0-4.537373 4.06586-5.361328 7.92188-5.361328z" fill="#221f1f"/>
      </g>
      <path d="m40.055853 58.593852c-.92974-5.29932-7.23788-43.417992-7.23788-43.736889 0-.129095-2.54947-.234724-5.66548-.234724-5.41023 0-5.71271-.04725-6.7138-1.048319-1.36931-1.369318-1.74689-2.996183-1.07298-4.6231461 1.02457-2.473545 1.49281-2.579999 11.34818-2.579999 8.19348 0 9.01351.06765 9.21162.760001.1196.418003.55226 2.860871.96145 5.4285951l.74398 4.66859h43.148 43.147997v3.040016c0 2.220169-.15376 3.040013-.57017 3.040013-.3136 0-1.09523.548031-1.73696 1.217853l-1.16678 1.217859 1.51981 1.473061c1.39798 1.354975 1.51982 1.678022 1.51982 4.029784 0 1.406198-.18173 2.491584-.40383 2.411962-.22211-.07962-1.47598-1.170765-2.78638-2.42477-1.31041-1.25401-2.54962-2.280014-2.75381-2.280014-.2042 0-2.12335 1.760252-4.2648 3.911659l-3.89352 3.911655 4.00516 4.005163 4.00518 4.00518 2.29965-2.27109c1.26481-1.2491 2.43519-2.27109 2.60086-2.27109.59382 0-1.29851 6.97426-2.73967 10.09718-.61441 1.33141-.86657 1.4343-1.63407.66681-.41379-.41379-1.36987.31099-4.43572 3.36264-2.14953 2.13956-3.82313 4.11187-3.71913 4.38291.11372.29634-1.05254.84582-2.92545 1.37835-6.04739 1.71944-6.36419 1.68704-4.32423-.44221l1.1789-1.23051-4.00178-4.00177-4.001767-4.00177-4.00655 4.00654-4.00654 4.00655 1.86378 1.89905 1.86378 1.89906-2.74297.24886c-2.06352.18722-2.9158.0925-3.44071-.38233-.61108-.5528-.766-.54892-1.24746.0312-.37859.45617-1.3444.66239-3.10228.66239-1.40391 0-2.55256-.13918-2.55256-.30928s.76573-1.09839 1.70161-2.06287l1.70161-1.75358-3.85264-4.12573-3.85264-4.12573-4.14299 4.11401-4.14298 4.11402 2.0434 2.07458 2.04338 2.07458h-2.86194c-2.03518 0-3.02075-.19135-3.41167-.66239-.4927-.59366-.62568-.59366-1.28166 0-.77183.69849-5.65785.96905-5.65785.31329 0-.192.684-1.01205 1.52001-1.82234.836-.81029 1.52-1.68327 1.52-1.93997 0-.25669-1.75875-2.21731-3.90832-4.35693l-3.90832-3.89021-3.69171 3.67254c-2.03044 2.01989-3.69171 3.92549-3.69171 4.23468s.8066 1.43721 1.79246 2.50674l1.79246 1.94459h-5.61925-5.61926l-.74288-4.23431zm31.17398-7.03448 3.86789-3.8859-3.84697-3.93128c-2.11583-2.1622-4.05996-3.93128-4.32028-3.93128-.26033 0-2.22404 1.75887-4.36381 3.90859l-3.89048 3.90859 3.89048 3.90859c2.13977 2.14972 4.09406 3.90858 4.34288 3.90858.24881 0 2.19295-1.74865 4.32029-3.88589zm21.74002-.0257 3.89353-3.91165-4.01116-4.01116-4.01116-4.01115-4.01116 4.01115-4.01116 4.01116 3.89353 3.91165c2.14145 2.15141 3.9994 3.91166 4.12879 3.91166s1.98734-1.76025 4.12879-3.91166zm21.714377 0 3.89353-3.91165-4.01116-4.01116-4.01116-4.01115-4.01116 4.01115-4.01116 4.01116 3.89354 3.91165c2.14144 2.15141 3.9994 3.91166 4.12878 3.91166.12939 0 1.98735-1.76025 4.12879-3.91166zm-65.347447-7.58099c-2.01389-2.0244-3.70129-3.63788-3.74977-3.5855-.0761.0822.96951 6.56745 1.79476 11.13219l.26804 1.48263 2.67429-2.67429 2.67429-2.67429zm10.52464-3.17314c2.08503-2.094734 3.79096-3.996085 3.79096-4.225233 0-.567409-7.03216-7.60051-7.5995-7.60051-.24911 0-2.20364 1.758866-4.34341 3.908587l-3.89047 3.908587 3.89047 3.908589c2.13977 2.14972 3.99634 3.90859 4.12573 3.90859.1294 0 1.94119-1.71387 4.02622-3.80861zm22.24818-.1 3.89048-3.908589-3.89048-3.908587c-2.13977-2.149721-4.08611-3.908587-4.32523-3.908587-.23911 0-2.14882 1.706132-4.2438 3.791407l-3.80906 3.791406 4.00904 4.02577c2.20496 2.21417 4.11467 4.02577 4.2438 4.02577.12912 0 1.98548-1.75887 4.12525-3.90859zm21.717437-.003 3.89353-3.911654-4.01116-4.011161-4.011157-4.011156-4.01116 4.011156-4.01115 4.011161 3.89353 3.911654c2.14143 2.15141 3.99939 3.91166 4.12878 3.91166s1.987347-1.76025 4.128787-3.91166zm-54.822797-10.753959c2.08502-2.09473 3.79095-4.034841 3.79095-4.31135 0-.27651-.51493-.907793-1.14428-1.402848-.9622-.756857-1.75695-.900089-4.99431-.900089-2.79123 0-3.84964.149289-3.84863.542858.002.721118 1.27925 8.152133 1.56776 9.120039.12459.418003.36401.759999.53204.759999.16802 0 2.01143-1.71387 4.09647-3.808609zm24.7652-5.404007c-1.15229-1.202731-1.19476-1.21028-6.80881-1.21028-5.55024 0-5.67083.02067-6.87712 1.176321l-1.22782 1.176325 4.01855 4.035335 4.01856 4.035336 4.01808-4.001381 4.01808-4.001372zm19.18805 5.31338 3.88117-3.899236-1.25718-1.312212-1.25718-1.312212h-5.53117c-5.35177 0-5.57559.03735-6.90084 1.152498l-1.36967 1.152506 4.04207 4.05895c2.22314 2.232419 4.14772 4.058942 4.27685 4.058942s1.9813-1.754653 4.11595-3.899236zm21.624167.09063c2.08502-2.09473 3.79096-4.034841 3.79096-4.31135 0-.27651-.51493-.907793-1.14428-1.402848-1.02098-.803096-1.73762-.900089-6.65021-.900089h-5.50592l-1.25718 1.312212-1.25719 1.312212 3.88117 3.899236c2.13465 2.144583 3.98705 3.899236 4.11643 3.899236.12939 0 1.94119-1.71387 4.02622-3.808609z" fill="url(#linearGradient1007)"/>
    </g>
  </g>
</svg>
