<svg enable-background="new" height="128" viewBox="0 0 128 128" width="128" xmlns="http://www.w3.org/2000/svg">
  <g transform="translate(.000062 -173)">
    <path d="m123.99993 237a59.999995 59.999995 0 0 1 -59.999985 60 59.999995 59.999995 0 0 1 -60.0000069-60 59.999995 59.999995 0 0 1 60.0000069-59.99999 59.999995 59.999995 0 0 1 59.999985 59.99999z" fill="#deddda"/>
    <rect fill="#d5d3cf" height="114" rx="56" width="112" x="8" y="179"/>
    <path d="m123.99993 235a59.999995 59.999995 0 0 1 -59.999985 59.99999 59.999995 59.999995 0 0 1 -60.0000069-59.99999 59.999995 59.999995 0 0 1 60.0000069-60 59.999995 59.999995 0 0 1 59.999985 60z" fill="#f6f5f4"/>
    <circle cx="64" cy="235" fill="#3d3846" r="54"/>
    <path d="m64.000045 181a54 54 0 0 0 -54 54 54 54 0 0 0 .0415 1.1709 54 54 0 0 1 53.9585-53.1709 54 54 0 0 1 53.958495 52.82813 54 54 0 0 0 .0415-.82813 54 54 0 0 0 -54.000005-54z" opacity=".1"/>
    <path d="m97.804121 225.91846c0-2.71598-2.230968-4.94695-4.946948-4.94695-2.71597 0-4.94695 2.23097-4.94695 4.94695v20.61231c0 2.71597 2.23098 4.94695 4.94695 4.94695 2.71598 0 4.946948-2.23098 4.946948-4.94695zm-57.71445 0c0-2.71598-2.230978-4.94695-4.946953-4.94695s-4.946954 2.23097-4.946954 4.94695v20.61231c0 2.71597 2.230979 4.94695 4.946954 4.94695s4.946953-2.23098 4.946953-4.94695zm34.725674-23.57078 3.491969-6.30494c.193996-.3395.07275-.77599-.266751-.94574-.097-.0485-.218244-.097-.339493-.097-.242498 0-.484996.12125-.606245.36375l-3.540466 6.37769c-2.885725-1.28524-6.135196-2.01273-9.554414-2.01273s-6.668689.72749-9.554409 2.01273l-3.516217-6.37769c-.194-.3395-.606245-.46075-.945743-.26675-.339497.194-.460746.60624-.266746.94574l3.491969 6.30494c-6.74144 3.49197-11.276147 10.11216-11.276147 17.72659h44.134591c0-7.61443-4.53471-14.23462-11.251898-17.72659zm-21.000302 9.65141c-1.018493 0-1.842982-.82449-1.842982-1.84298s.824489-1.84299 1.842982-1.84299c1.018489 0 1.842982.8245 1.842982 1.84299s-.824493 1.84298-1.842982 1.84298zm20.369809 0c-1.018493 0-1.842982-.82449-1.842982-1.84298s.824489-1.84299 1.842982-1.84299c1.018489 0 1.842982.8245 1.842982 1.84299s-.824493 1.84298-1.842982 1.84298zm-32.2522 9.82116v31.98545c0 2.95847 2.37648 5.33495 5.334951 5.33495h3.540467v10.91239c0 2.71598 2.230977 4.94696 4.946955 4.94696 2.715974 0 4.946951-2.23098 4.946951-4.94696v-10.91239h6.595938v10.91239c0 2.71598 2.230978 4.94696 4.946956 4.94696 2.715973 0 4.946951-2.23098 4.946951-4.94696v-10.91239h3.540462c2.95848 0 5.33496-2.37648 5.33496-5.33495v-31.98545z" fill="#79c257"/>
  </g>
</svg>
