<svg fill="none" height="128" viewBox="0 0 128 128" width="128" xmlns="http://www.w3.org/2000/svg" xmlns:xlink="http://www.w3.org/1999/xlink">
  <linearGradient id="paint0_linear" gradientUnits="userSpaceOnUse" x1="116" x2="12" y1="76.844" y2="76">
    <stop offset="0" stop-color="#d5d3cf"/>
    <stop offset=".045" stop-color="#f6f5f4"/>
    <stop offset=".091" stop-color="#d5d3cf"/>
    <stop offset=".909" stop-color="#d5d3cf"/>
    <stop offset=".955" stop-color="#eeeeec"/>
    <stop offset="1" stop-color="#d5d3cf"/>
  </linearGradient>
  <linearGradient id="paint1_linear" gradientUnits="userSpaceOnUse" x1="103.436" x2="102.252" y1="95.437" y2="94.286">
    <stop offset="0" stop-color="#d5d3cf"/>
    <stop offset="1" stop-color="#fff"/>
  </linearGradient>
  <path d="m20 116h88c4.418 0 8-3.582 8-8v-11.596c0-4.4183-3.582-8-8-8h-88c-4.4183 0-8 3.5817-8 8v11.596c0 4.418 3.5817 8 8 8z" fill="#26a269"/>
  <path d="m20 114.18h88c4.418 0 8-3.582 8-8v-20.491c0-4.4183-3.582-8-8-8h-88c-4.4183 0-8 3.5817-8 8v20.491c0 4.418 3.5817 8 8 8z" fill="url(#paint0_linear)"/>
  <path d="m116 55.79h-104v-43.789h104z" fill="#f6f5f4"/>
  <path d="m20 110.53h88c4.418 0 8-3.582 8-8v-82.526c0-4.4183-3.582-8-8-8h-88c-4.4183 0-8 3.5817-8 8v82.526c0 4.418 3.5817 8 8 8z" fill="#f6f5f4"/>
  <path d="m12 18v2 2c.5304 0 1.0391-.2107 1.4142-.5858s.5858-.8838.5858-1.4142-.2107-1.0391-.5858-1.4142-.8838-.5858-1.4142-.5858zm8 0c-1.1046 0-2 .8954-2 2s.8954 2 2 2 2-.8954 2-2-.8954-2-2-2zm8 0c-1.1046 0-2 .8954-2 2s.8954 2 2 2 2-.8954 2-2-.8954-2-2-2zm8 0c-1.1046 0-2 .8954-2 2s.8954 2 2 2 2-.8954 2-2-.8954-2-2-2zm8 0c-.1381 0-.2721.0144-.4023.041-.9114.1865-1.5977.9925-1.5977 1.959 0 1.1046.8954 2 2 2s2-.8954 2-2-.8954-2-2-2zm8 0c-.1381 0-.2721.0144-.4023.041-.9114.1865-1.5977.9925-1.5977 1.959 0 1.1046.8954 2 2 2s2-.8954 2-2-.8954-2-2-2zm8 0c-.1381 0-.2721.0144-.4023.041-.9114.1865-1.5977.9925-1.5977 1.959 0 1.1046.8954 2 2 2s2-.8954 2-2-.8954-2-2-2zm8 0c-.1381 0-.2721.0144-.4023.041-.9114.1865-1.5977.9925-1.5977 1.959 0 1.1046.8954 2 2 2s2-.8954 2-2-.8954-2-2-2zm8 0c-.1381 0-.2721.0144-.4023.041-.9114.1865-1.5977.9925-1.5977 1.959 0 1.1046.8954 2 2 2s2-.8954 2-2-.8954-2-2-2zm8 0c-.1381 0-.2722.0144-.4023.041-.9114.1865-1.5977.9925-1.5977 1.959 0 1.1046.8954 2 2 2s2-.8954 2-2-.8954-2-2-2zm8 0c-1.1046 0-2 .8954-2 2s.8954 2 2 2 2-.8954 2-2-.8954-2-2-2zm8 0c-1.1046 0-2 .8954-2 2s.8954 2 2 2c1.105 0 2-.8954 2-2s-.895-2-2-2zm8 0c-1.105 0-2 .8954-2 2s.895 2 2 2 2-.8954 2-2-.895-2-2-2zm8 0c-.53 0-1.039.2107-1.414.5858s-.586.8838-.586 1.4142.211 1.0391.586 1.4142.884.5858 1.414.5858v-2z" fill="#d5d3cf"/>
  <path d="m99 82.75c-6.094 0-11 4.906-11 11v14c0 1.133.1693 2.223.4844 3.25l27.5746-27.8144c-.972-.2792-1.995-.4356-3.059-.4356z" fill="url(#paint1_linear)"/>
  <path d="m24.427 85.015c-.3185-.0005-.6149-.0291-.8891-.0858-.2764-.0286-.5085-.1135-.6961-.2547l1.1735-4.1407c.1148.0565.2508.099.4078.1274.1769.0284.3748.0428.5938.0431.7367.0011 1.3221-.463 1.7562-1.3923.454-.9293.9041-2.4222 1.3503-4.4787.3697-1.6057.6697-3.2115.9-4.8175.2502-1.6059.4805-3.2118.6909-4.8178.2303-1.6059.4618-3.2259.6944-4.86.2548-1.6623.5716-3.3526.9505-5.071.3184-1.4649.6785-2.8312 1.0804-4.0987.4218-1.2675.9195-2.3658 1.4929-3.2949.5735-.9291 1.2492-1.6466 2.0272-2.1527.7803-.5343 1.708-.8007 2.7832-.7991.3583.0005.6945.0292 1.0085.086.3339.0569.587.1277.7593.2125l-1.1206 4.2254c-.1348-.0566-.3006-.0991-.4974-.1275-.1968-.0285-.4246-.0429-.6835-.0433-.7566-.0011-1.363.477-1.8193 1.4345-.454.9293-.903 2.4081-1.3469 4.4364-.3497 1.6057-.6497 3.2116-.9 4.8175-.228 1.5777-.4583 3.1836-.6909 4.8178-.2104 1.6059-.443 3.24-.6978 4.9023-.2525 1.6341-.5682 3.3103-.9471 5.0287-.3206 1.4931-.6907 2.8593-1.1102 4.0986-.4019 1.2675-.8885 2.3518-1.4596 3.2527-.5735.9291-1.2492 1.6467-2.0272 2.1528-.7803.5343-1.708.8006-2.7832.799z" fill="#3584e4"/>
  <g fill="#000">
    <path d="m41.0399 56.2945 1.7434-2.9533-1.6402-2.7243h1.8123l.5047.9157c.0764.1603.1529.3244.2294.4922.0841.1603.1682.3206.2523.4808h.0459c.0612-.1602.1261-.3205.195-.4808.0688-.1678.1338-.3319.195-.4922l.3899-.9157h1.7435l-1.6517 2.9189 1.7549 2.7587h-1.8123l-.5505-.9386c-.0918-.1603-.1835-.3244-.2753-.4922-.0841-.1679-.172-.332-.2638-.4923h-.0459c-.0688.1603-.1414.3244-.2179.4923-.0765.1602-.1491.3243-.2179.4922l-.4474.9386z"/>
    <path d="m47.425 57.2898v-.6731c.3265-.3045.6235-.5876.8912-.8493.273-.2671.5058-.5155.6985-.7452.198-.2351.3506-.4514.4576-.6491.1124-.2029.1686-.3953.1686-.5769 0-.251-.0642-.4407-.1927-.5689-.1284-.1335-.3051-.2003-.5299-.2003-.1873 0-.3532.0534-.4978.1603-.1445.1014-.281.2216-.4094.3605l-.6423-.633c.2515-.2671.5085-.4674.7707-.6009.2623-.1389.5754-.2084.9394-.2084.2516 0 .4791.0401.6825.1202.2087.0748.388.1843.5379.3285.1499.1389.265.3072.3453.5048.0802.1977.1204.4194.1204.6651 0 .2137-.0455.4327-.1365.6571-.091.219-.2141.4407-.3693.665-.1499.219-.3239.4407-.5219.6651-.1927.219-.3934.4353-.6022.649.1285-.016.2703-.0294.4255-.0401.1606-.016.3025-.024.4256-.024h1.0277v.9936z"/>
    <path d="m35.6941 82.3439 1.7434-2.9533-1.6402-2.7243h1.8123l.5047.9157c.0764.1603.1529.3243.2294.4922.0841.1603.1682.3205.2523.4808h.0459c.0612-.1603.1261-.3205.195-.4808.0688-.1679.1338-.3319.195-.4922l.3899-.9157h1.7435l-1.6517 2.9189 1.7549 2.7587h-1.8123l-.5505-.9386c-.0918-.1603-.1835-.3244-.2753-.4923-.0841-.1678-.172-.3319-.2638-.4922h-.0459c-.0688.1603-.1414.3244-.2179.4922-.0765.1603-.1491.3244-.2179.4923l-.4474.9386z"/>
    <path d="m42.3441 83.3376v-.9535h1.108v-2.9407h-.9554v-.7291c.2783-.0535.5138-.1176.7065-.1924.1927-.0747.3801-.1656.5621-.2724h.8671v4.1346h.9554v.9535z"/>
    <path d="m69.1248 66.2114 2.3871-4.0438-2.2458-3.7302h2.4814l.691 1.2538c.1047.2195.2094.4441.3141.674.1152.2194.2303.4389.3455.6583h.0628c.0838-.2194.1728-.4389.267-.6583.0942-.2299.1832-.4545.267-.674l.534-1.2538h2.3871l-2.2615 3.9967 2.4029 3.7773h-2.4814l-.7539-1.2853c-.1256-.2194-.2512-.444-.3769-.6739-.1151-.2299-.2355-.4545-.3612-.674h-.0628c-.0942.2195-.1937.4441-.2984.674-.1047.2194-.2042.4441-.2984.6739l-.6125 1.2853z"/>
    <path d="m82.1178 64.7381v-2.8839h-2.7641v-1.63h2.7641v-2.8839h1.6961v2.8839h2.7641v1.63h-2.7641v2.8839z"/>
    <path d="m89.3125 66.2113v-1.3165c.6387-.5956 1.2198-1.1494 1.7433-1.6614.5339-.5224.9894-1.0083 1.3663-1.4576.3874-.4598.6858-.883.8952-1.2696.2198-.397.3298-.7732.3298-1.1284 0-.4911-.1257-.8621-.3769-1.1129-.2513-.2612-.5968-.3918-1.0366-.3918-.3664 0-.691.1045-.9737.3135-.2827.1985-.5496.4336-.8009.7053l-1.2564-1.2382c.4921-.5225.9946-.9143 1.5077-1.1755.513-.2717 1.1255-.4075 1.8374-.4075.4921 0 .9371.0783 1.335.2351.4083.1463.759.3605 1.0522.6426.2931.2717.5182.6008.6753.9874.157.3866.2356.8202.2356 1.3009 0 .4179-.089.8464-.267 1.2852-.178.4284-.4188.862-.7224 1.3009-.2932.4284-.6335.862-1.0209 1.3009-.3769.4284-.7695.8516-1.1778 1.2695.2512-.0313.5287-.0574.8323-.0783.3141-.0314.5916-.0471.8324-.0471h2.0102v1.9435z"/>
  </g>
  <path clip-rule="evenodd" d="m64.9332 50.766h36.5848v2.2013h-34.9436l-4.4908 14.9393-2.0804.0925-2.7059-6.7512-3.0654 1.5296-.9865-1.9689 5.2096-2.5995 2.4233 6.0461z" fill="#2ec27e" fill-rule="evenodd"/>
</svg>
