<svg height="128" width="128" xmlns="http://www.w3.org/2000/svg">
  <g transform="translate(-312.63939 -39.69793)">
    <g stroke-width=".535706">
      <path d="m403.96453 105.16176c-3.14558 0-5.67773 1.82315-5.67773 4.08789v19.41992l-2.00977-6.01758a1.4904946 1.5176468 0 0 0 -2.89648.34961l-1.77539 19.89063-4.20508-32.0918a1.4904946 1.5176468 0 0 0 -2.95117-.0312l-2.99805 19.83985v-16.57227a1.4904946 1.5176468 0 0 0 -2.94336-.33203l-4.1875 19.19336-1.82617-13.00781a1.4904946 1.5176468 0 0 0 -2.95703.0762l-1.37305 15.38281-1.61914-21.43164a1.4904946 1.5176468 0 0 0 -2.9707.01l-1.44141 20.55859-1.54687-23.58594a1.4904946 1.5176468 0 0 0 -1.48438-1.41601 1.4904946 1.5176468 0 0 0 -1.46875 1.24804l-1.875 10.60547v-12.08594c0-2.26477-2.53222-4.08789-5.67773-4.08789h-1.68555c-2.26314 0-4.19389.95121-5.10742 2.32422a33.248253 29.11987 0 0 0 -23.69141 27.84766 33.248253 29.11987 0 0 0 23.67188 27.85742c.90567 1.38802 2.84861 2.34961 5.12695 2.34961h1.68555c3.14551 0 5.67773-1.82312 5.67773-4.08789v-22.99609l2.66016-15.04493 2.17383 33.21094a1.4904946 1.5176468 0 0 0 2.97265.008l1.54883-22.08593 1.44141 19.05664a1.4904946 1.5176468 0 0 0 2.96875.0215l1.82422-20.45312 1.17968 8.39257a1.4904946 1.5176468 0 0 0 2.92774.11329l3.01562-13.81446v22.58985a1.4904946 1.5176468 0 0 0 2.96289.23242l4.38477-29.01367 4.58984 35.05273a1.4904946 1.5176468 0 0 0 2.96094-.0644l2.3457-26.26563 2.57227 7.70703v23.35157c0 2.26473 2.53215 4.08789 5.67773 4.08789h1.6875c2.27525 0 4.21376-.96081 5.1211-2.34571a33.248251 29.119868 0 0 0 23.67773-27.85937 33.248251 29.119868 0 0 0 -23.6914-27.84766c-.91299-1.37408-2.84313-2.32617-5.10743-2.32617z" fill="#0a0a0a" opacity=".6"/>
      <path d="m359.14605 107.63815a1.4904946 1.5176468 0 0 0 -1.46997 1.24778l-5.36467 30.3499a1.4904946 1.5176468 0 1 0 2.93121.53646l3.21938-18.20402 2.17439 33.21003a1.4904946 1.5176468 0 0 0 2.97196.009l1.54856-22.08667 1.44087 19.05761a1.4904946 1.5176468 0 0 0 2.96905.0207l1.82508-20.45357 1.17889 8.39364a1.4904946 1.5176468 0 0 0 2.92829.11264l3.01563-13.81455v22.59053a1.4904946 1.5176468 0 0 0 2.96322.23117l4.38372-29.0132 4.59038 35.05355a1.4904946 1.5176468 0 0 0 2.96032-.0652l2.34613-26.2657 2.80604 8.40846a1.4912394 1.5184047 0 1 0 2.8235-.97821l-5.06776-15.17208a1.4904946 1.5176468 0 0 0 -2.89628.34974l-1.7756 19.89032-4.20325-32.09264a1.4904946 1.5176468 0 0 0 -2.95157-.0296l-2.99816 19.84006v-16.57389a1.4904946 1.5176468 0 0 0 -2.94285-.33195l-4.18869 19.19418-1.82509-13.00837a1.4904946 1.5176468 0 0 0 -2.9574.077l-1.37392 15.38243-1.61842-21.43166a1.4904946 1.5176468 0 0 0 -2.97196.009l-1.44086 20.55999-1.54564-23.58637a1.4904946 1.5176468 0 0 0 -1.48453-1.41673z" fill="#f5c211"/>
      <path d="m377.42832 43.697936c-14.99289 0-30.9748 5.09994-41.6494 16.97913-4.86243 5.41114-9.05109 12.42562-11.82362 19.59958-2.49544 6.45697-3.72706 13.25205-4.30661 20.191774l9.15838-.28346c.55799-5.982754 1.60825-11.290054 3.55465-16.326404 2.32736-6.02207 6.38676-11.86719 10.25389-16.17072 8.27491-9.20871 22.29477-14.23834 34.99734-14.23834 12.01378 0 24.09456 4.33061 32.31147 12.87435 4.56723 4.74889 8.8219 10.51827 11.27914 16.56105 2.12651 5.22947 3.33249 11.2086 3.9595 17.583524l9.32852-.30773c-.64769-7.373244-1.65774-14.295794-4.39145-21.018494-3.20299-7.87672-8.19357-14.31715-13.19874-19.52141-10.39732-10.81088-25.08979-15.92285-39.47307-15.92285z" fill="#3584e4"/>
      <path d="m425.87568 100.16056v.003h-.14084c-.15727 0-.28389.12661-.28389.28389v.28056c0 .15728.12662.28389.28389.28389h.14084v30.41296h8.61544v-31.26461z" fill="#1a5fb4"/>
      <path d="m410.3282 105.50459v55.98978a33.248251 29.119868 0 0 0 24.16624-28.00432 33.248251 29.119868 0 0 0 -24.16624-27.98546z" fill="#3584e4"/>
    </g>
    <g fill="#006ab9" transform="matrix(-.56778247 0 0 .56778247 449.99093 34.145866)">
      <path d="m214.40039 116.26758v.006h-.24805c-.277 0-.5.223-.5.5v.49414c0 .277.223.5.5.5h.24805v53.56445h15.17383v-55.06445z" fill="#1a5fb4"/>
      <path d="m187.01758 125.67969v98.61133a58.558083 51.287018 0 0 0 42.5625-49.32227 58.558083 51.287018 0 0 0 -42.5625-49.28906z" fill="#3584e4"/>
      <rect fill="#1a5fb4" height="106.342" rx="10" ry="7.2" width="22.969999" x="165.89" y="121.83"/>
    </g>
    <rect fill="#1a5fb4" height="60.378933" rx="5.677952" ry="4.087975" stroke-width=".535706" width="13.041772" x="398.3316" y="103.31669"/>
  </g>
</svg>
