<svg height="128" width="128" xmlns="http://www.w3.org/2000/svg" xmlns:xlink="http://www.w3.org/1999/xlink">
  <clipPath id="d-3">
    <path d="m64-40.445h448v32.223h-416c-15.592 0-32-17.02-32-32.223z"/>
  </clipPath>
  <clipPath id="e-6">
    <path d="m64-40.45h448v32.222h-448z"/>
  </clipPath>
  <g transform="translate(0 -172)">
    <rect fill="#1b1b1b" height="82.03" rx="8" width="112" x="8" y="205.97"/>
    <g transform="translate(.019 .027993)">
      <g clip-path="url(#d-3)" transform="matrix(.25 0 0 -.25 -8.019 197.917)">
        <path d="m12.246094 16.373047 2.438548 5.463987-5.6748764 4.600466h112.0000044v-10.064453h-101.747772z" fill="#f6f5f4" transform="matrix(4 0 0 -4 27.960592 57.29724)"/>
        <g fill="#241f31">
          <path d="m12.246094 16.373047 7.93164 13.738281 9.832032-5.675781-4.654297-8.0625z" transform="matrix(4 0 0 -4 27.960592 57.29724)"/>
          <path d="m37.246094 16.373047 7.93164 13.738281 9.832032-5.675781-4.654297-8.0625z" transform="matrix(4 0 0 -4 27.960592 57.29724)"/>
          <path d="m62.246094 16.373047 7.93164 13.738281 9.832032-5.675781-4.654297-8.0625z" transform="matrix(4 0 0 -4 27.960592 57.29724)"/>
          <path d="m87.246094 16.373047 7.93164 13.738281 9.832036-5.675781-4.6543-8.0625z" transform="matrix(4 0 0 -4 27.960592 57.29724)"/>
          <path d="m112.24609 16.373047 7.774 13.895916.98976-7.892153-.00008-6.003763z" transform="matrix(4 0 0 -4 27.960592 57.29724)"/>
        </g>
      </g>
      <g clip-path="url(#e-6)" transform="matrix(.25 0 0 .25 -8.019 218.083)">
        <path d="m64-48.45h448v56.232h-448z" fill="#fff"/>
        <path d="m20.177734 18.703125-9.050781 15.675781h13.109375l5.773438-10z" transform="matrix(4 0 0 4 27.960592 -137.96124)"/>
        <path d="m45.177734 18.703125-9.050781 15.675781h13.109375l5.773438-10z" transform="matrix(4 0 0 4 27.960592 -137.96124)"/>
        <path d="m70.177734 18.703125-9.050781 15.675781h13.109375l5.773438-10z" transform="matrix(4 0 0 4 27.960592 -137.96124)"/>
        <path d="m95.177734 18.703125-9.050781 15.675781h13.109375l5.773442-10z" transform="matrix(4 0 0 4 27.960592 -137.96124)"/>
        <path d="m120.17773 18.703125-9.05078 15.675781h9.88282v-7.941406z" transform="matrix(4 0 0 4 27.960592 -137.96124)"/>
      </g>
      <path d="m7.981 205.306c0-2.668 2.745-5.334 5.334-5.334 0 0 10.666 10.59 10.666 10.667v5.333h-16z" fill="#c0bfbc"/>
      <circle cx="10.997" cy="213.249" fill="#241f31" r="1.25"/>
      <circle cx="10.997" cy="205.266" fill="#241f31" r="1.25"/>
      <path d="m7.98 215.97h112v2h-112z" fill="#77767b"/>
      <path d="m119.981 215.972v2h-10l1.272-2zm-20.635 0-1.017 2h-13.348l1.272-2zm-25.122 0-1.016 2h-13.348l1.271-2zm-25 0-1.016 2h-13.348l1.271-2zm-24.861 0-1.017 2h-13.348l1.272-2z" fill="#3d3846"/>
      <circle cx="10.997" cy="212.943" fill="#f6f5f4" r="1.25"/>
      <circle cx="10.997" cy="204.961" fill="#f6f5f4" r="1.25"/>
      <circle cx="20.888" cy="213.222" fill="#241f31" r="1.25"/>
      <circle cx="20.888" cy="212.917" fill="#f6f5f4" r="1.25"/>
    </g>
    <path d="m8.0000001 218v59.46018c0 4.01373 3.5679999 7.24393 7.9999999 7.24393h96c4.432 0 8-3.2302 8-7.24393v-59.46018z" fill="#2a2a2a"/>
    <g transform="translate(3.62562 175.67718)">
      <path d="m22.374384 65.674877h76c1.062 0 1.999996.936 1.999996 2h-79.999996c0-1.108.983-2 2-2z" fill="#f6f5f4"/>
      <path d="m44.374384 53.674877v14h-2v-14zm34 0v14h-2v-14zm-58 30h79.999996c0 1.054-.912996 2-1.999996 2h-76c-.985 0-2-1.03-2-2z" fill="#f6f5f4"/>
      <g fill="#fff">
        <path d="m30.829541 79.269808q.128906.3151.229167.51562.114583.1862.243489.28646.143229.10026.329427.12891.186198.0287.458334.0287h.214843v.6875h-4.654948v-.6875h.644532q.415364 0 .658854-.10027.257812-.10026.257812-.30078 0-.0573-.02865-.14323-.01432-.0859-.08594-.25781l-.802076-2.04823h-3.967448l-.515625 1.34636q-.128907.37239-.128907.64453 0 .85938 1.217448.85938h.300782v.6875h-3.967448v-.6875h.05729q.300781 0 .58724-.12891.286458-.14323.458333-.34375.08594-.0859.143229-.17188.05729-.0859.114584-.20052.07161-.11458.143229-.28646.08594-.18619.200521-.47265l3.451823-8.7513h.630208zm-6.216146-2.66406h3.365885l-1.690104-4.25391z"/>
        <path d="m35.842562 73.941678v.52995h-.214844q-.458333 0-.644531.0716-.171875.0716-.171875.27213 0 .0716.01432.15755.02865.0859.07162.15756l1.704427 3.96744 1.389323-3.48046q.04297-.15756.07162-.32943.04297-.17188.04297-.28646 0-.52995-.78776-.52995h-.214844v-.52995h2.979167v.52995h-.05729q-.415364 0-.759114.32943-.329427.32943-.630209 1.07422l-2.119791 5.27083h-.529948l-2.592448-6.04427q-.157552-.35807-.358073-.48698-.186198-.14323-.615886-.14323h-.128906v-.52995z"/>
        <path d="m43.319125 79.670848q0 .22917.04297.3724.04297.1289.157552.21484.128906.0716.34375.10026.229167.0143.601563.0143h.10026v.54428h-3.895833v-.54428h.114583q.358073 0 .572917-.0143.229166-.0286.34375-.10026.128906-.0859.157552-.21484.04297-.14323.04297-.3724v-4.18229q0-.24349-.02865-.38672-.01432-.15755-.08594-.22917-.07161-.0859-.200521-.11458-.114583-.0286-.329427-.0286h-.759114v-.63021l2.821614-.15756zm-.701823-9.48177q.358073 0 .601563.25781.257812.25782.257812.61589 0 .37239-.257812.63021-.24349.24349-.615885.24349-.372396 0-.615886-.25782-.229167-.25781-.229167-.61588 0-.35807.24349-.61589.24349-.25781.615885-.25781z"/>
        <path d="m49.119907 70.031528 2.950521-.15755v9.29557q0 .35807.02864.57292.02865.21484.128907.34375.10026.11458.272135.15755.186198.0286.486979.0286h.272136v.64454l-2.621094.0859v-1.16015q-.358073.67317-.845052.98828-.486979.3151-1.217448.3151-.644531 0-1.203125-.27213-.544271-.27214-.945313-.7448-.386719-.48697-.615885-1.16015-.214844-.67318-.214844-1.47526 0-.81641.229167-1.50391.229166-.6875.630208-1.1888.401042-.51563.945313-.80208.54427-.28646 1.174479-.28646.658854 0 1.145833.27213.501302.25782.916667.83073v-3.38021q0-.24349-.02865-.38671-.01432-.15756-.08594-.22917-.07161-.0859-.20052-.11458-.114584-.0286-.315105-.0286h-.88802zm-.24349 4.48307q-.458333 0-.845052.30078-.386719.30078-.58724.78776-.272135.77344-.272135 2.07683 0 1.26041.44401 1.96224.458334.6875 1.246094.6875.816406 0 1.289063-.77344.486979-.78776.486979-2.10547 0-1.07422-.286459-1.80469-.20052-.51562-.601562-.8164-.401042-.31511-.873698-.31511z"/>
        <path d="m55.694124 77.551058v.21484q0 .52995.08594.90235.10026.37239.286458.6875.58724.97396 1.704427.97396.759115 0 1.27474-.35808.515625-.37239.973958-1.24609l.529948.30078q-.916667 2.11979-3.065104 2.11979-.759115 0-1.389323-.25781-.615886-.25781-1.059896-.71615-.444011-.45833-.6875-1.10286-.24349-.65886-.24349-1.46094 0-.83073.24349-1.54687.257812-.71615.701823-1.23177.458333-.52995 1.074219-.81641.615885-.30078 1.332031-.30078.6875 0 1.246094.28646.572916.27213.973958.78776.415365.5013.644531 1.21744.229167.70183.229167 1.54688zm2.635417-.65885q.372396 0 .486979-.11459.114583-.11458.114583-.44401 0-.90234-.415364-1.44661-.401042-.54427-1.088542-.54427-1.059896 0-1.518229 1.33203-.114584.32942-.171875.60156-.04297.27214-.04297.61589z"/>
        <path d="m61.423293 74.099238 2.678386-.15756v1.13152q.429687-.70183.945312-1.03125.515625-.32943 1.203125-.32943.773438 0 1.317709.41536.54427.40104.744791 1.08854.486979-.80208 1.045573-1.14583.572917-.35807 1.303386-.35807.544271 0 .988281.21484.44401.21485.773437.63021.14323.1862.229167.35807.100261.17188.157552.3724.05729.1862.07162.44401.01432.24349.01432.58724v3.33724q0 .22917.04297.37239.04297.14323.157553.21485.128906.0716.34375.10026.229166.0286.587239.0286h.07161v.54428h-3.78125v-.54428h.114583q.329427 0 .529948-.0143.214844-.0286.329427-.10026.114583-.0859.157552-.21484.04297-.14323.04297-.3724v-3.05078q0-.45833-.04297-.73047-.02865-.27213-.128906-.51562-.157552-.35808-.444011-.5586-.272135-.20052-.658854-.20052-.773437 0-1.246094.67318-.458333.67318-.458333 1.79036v2.59245q0 .22917.02865.3724.04297.1289.157552.21484.128906.0716.34375.10026.214844.0143.58724.0143h.05729v.54428h-3.809896v-.54428h.07161q.372396 0 .58724-.0143.229166-.0286.34375-.10026.128906-.0859.171875-.21484.04297-.14323.04297-.3724v-3.20833q0-.91667-.315104-1.36068-.128906-.20052-.415364-.34375-.272136-.14323-.558594-.14323-.372396 0-.6875.1862-.315104.17187-.544271.48698-.214844.30078-.34375.73047-.128906.42969-.128906.93099v2.70703q0 .22917.02865.37239.04297.14323.157552.21485.128906.0716.34375.10026.214843.0286.587239.0286h.05729v.54428h-3.766927v-.54428h.128906q.315104 0 .515625-.0286.214844-.0287.315104-.10026.114584-.0716.157552-.21485.04297-.14322.04297-.37239v-4.16797q0-.24349-.02865-.38672-.01432-.15755-.08594-.22917-.05729-.0859-.186198-.11458-.114584-.0286-.329427-.0286h-.615886z"/>
        <path d="m74.71496 74.099238 2.621094-.15756v4.55469q0 .31511 0 .51563.01432.1862.02865.3151.02865.12891.07161.22917.04297.10026.114583.20052.157553.24349.429688.35807.272135.11459.630208.11459.558594 0 .973959-.27214.429687-.28646.658854-.78776.171875-.3724.257812-.77344.08594-.41536.08594-1.05989v-1.84766q0-.48698-.128906-.61589-.114584-.14322-.529948-.14322h-.759115v-.63021l2.807292-.15756v5.22787q0 .3724.02865.58724.04297.21484.143229.32943.10026.11458.286458.15755.186198.0286.501302.0286h.372396v.64454l-2.721354.10026v-1.2461q-.501302.73047-1.059896 1.0599-.544271.3151-1.289063.3151-.6875 0-1.203125-.24349-.515625-.25781-.816406-.71614-.171875-.25782-.229166-.57292-.05729-.3151-.05729-.88802v-3.23698q0-.24349-.02865-.38672-.01432-.15755-.08594-.22917-.07161-.0859-.200521-.11458-.114584-.0286-.329427-.0286h-.572917z"/>
        <path d="m87.34777 73.941678v.52995h-.214844q-.658854 0-.658854.25782 0 .0859.04297.17187.04297.0859.114583.15755l1.145833 1.47526.945313-1.11718q.300781-.34375.300781-.61589 0-.32943-.673177-.32943h-.286458v-.52995h3.108073v.52995h-.143229q-.286459 0-.572917.15755-.286458.14323-.558594.47266l-1.690104 1.99089 1.890625 2.54948q.286458.40104.58724.57291.315104.15755.716145.15755h.08594v.54428h-3.766927v-.54428h.10026q.429688 0 .615886-.0573.186198-.0716.186198-.21484 0-.0716-.05729-.20052-.05729-.12891-.128906-.24349l-1.160157-1.51823-1.246093 1.51823q-.128907.15755-.128907.3151 0 .10026.05729.20052.07161.10026.157552.14323.07162.0287.157552.043.100261.0143.372396.0143h.229167v.54428h-3.179688v-.54428h.100261q.329427 0 .673177-.20052.34375-.20052.658854-.57291l1.747396-2.01953-1.833334-2.30599q-.186198-.22917-.329427-.3724-.143229-.15755-.286458-.24349-.128906-.0859-.286458-.12891-.14323-.043-.34375-.0573v-.52995z"/>
      </g>
    </g>
  </g>
</svg>
