<svg fill="none" height="128" viewBox="0 0 128 128" width="128" xmlns="http://www.w3.org/2000/svg" xmlns:xlink="http://www.w3.org/1999/xlink">
  <filter id="filter0_d" color-interpolation-filters="sRGB" filterUnits="userSpaceOnUse" height="122" width="120" x="4" y="2">
    <feFlood flood-opacity="0" result="BackgroundImageFix"/>
    <feColorMatrix in="SourceAlpha" type="matrix" values="0 0 0 0 0 0 0 0 0 0 0 0 0 0 0 0 0 0 127 0"/>
    <feOffset dy="2"/>
    <feColorMatrix type="matrix" values="0 0 0 0 0 0 0 0 0 0 0 0 0 0 0 0 0 0 0.25 0"/>
    <feBlend in2="BackgroundImageFix" mode="normal" result="effect1_dropShadow"/>
    <feBlend in="SourceGraphic" in2="effect1_dropShadow" mode="normal" result="shape"/>
  </filter>
  <filter id="filter1_d" color-interpolation-filters="sRGB" filterUnits="userSpaceOnUse" height="77" width="51.2661" x="39.3673" y="26.5">
    <feFlood flood-opacity="0" result="BackgroundImageFix"/>
    <feColorMatrix in="SourceAlpha" type="matrix" values="0 0 0 0 0 0 0 0 0 0 0 0 0 0 0 0 0 0 127 0"/>
    <feOffset dx="2" dy="2"/>
    <feColorMatrix type="matrix" values="0 0 0 0 0 0 0 0 0 0 0 0 0 0 0 0 0 0 0.25 0"/>
    <feBlend in2="BackgroundImageFix" mode="normal" result="effect1_dropShadow"/>
    <feBlend in="SourceGraphic" in2="effect1_dropShadow" mode="normal" result="shape"/>
  </filter>
  <path d="m124 64c0 15.913-6.321 31.1742-17.574 42.426-11.2518 11.253-26.513 17.574-42.426 17.574-7.8793 0-15.6815-1.552-22.961-4.567-7.2795-3.016-13.8939-7.435-19.4654-13.007-5.5715-5.571-9.9911-12.1855-13.00637-19.465-3.01529-7.2796-4.56723-15.0817-4.56723-22.961s1.55195-15.6815 4.56723-22.961c3.01527-7.2795 7.43487-13.8939 13.00637-19.4654s12.1859-9.9911 19.4654-13.00639c7.2795-3.01528 15.0817-4.56721 22.961-4.56721 15.913 0 31.1742 6.3214 42.426 17.5736 11.253 11.2522 17.574 26.5134 17.574 42.4264z" fill="#3d3846" opacity=".65"/>
  <path d="m124 62c0 15.913-6.321 31.1742-17.574 42.426-11.2518 11.253-26.513 17.574-42.426 17.574-7.8793 0-15.6815-1.552-22.961-4.567-7.2795-3.016-13.8939-7.435-19.4654-13.007-5.5715-5.5711-9.9911-12.1855-13.00637-19.465-3.01528-7.2795-4.56723-15.0817-4.56723-22.961s1.55194-15.6815 4.56723-22.961c3.01527-7.2796 7.43487-13.8939 13.00637-19.4654s12.1859-9.99109 19.4654-13.00637 15.0817-4.56723 22.961-4.56723c15.913 0 31.1742 6.32141 42.426 17.5736 11.253 11.2522 17.574 26.5134 17.574 42.4264z" fill="#3d3846"/>
  <g filter="url(#filter0_d)">
    <path d="m120 62c0 14.8521-5.9 29.0959-16.402 39.598-10.5021 10.502-24.7459 16.402-39.598 16.402-7.354 0-14.636-1.448-21.4303-4.263-6.7942-2.814-12.9676-6.939-18.1677-12.139-5.2001-5.2001-9.325-11.3735-12.1393-18.1677-2.81422-6.7943-4.2627-14.0763-4.2627-21.4303s1.44848-14.636 4.2627-21.4303c2.8143-6.7942 6.9392-12.9676 12.1393-18.1677s11.3735-9.325 18.1677-12.1393c6.7943-2.81422 14.0763-4.2627 21.4303-4.2627 14.8521 0 29.0959 5.9 39.598 16.402 10.502 10.5021 16.402 24.7459 16.402 39.598z" stroke="#f5c211" stroke-width="8"/>
  </g>
  <path d="m51.7021 26.5v12.5016h-12.3349v8.3296s4.7083-.0796 4.6343 0c2.5206-.0375 3.3254 1.8188 3.5844 3.0563v27.5016c-.0925.7828-.0139 2.7234-1.776 2.7796.0832.0704-6.4427 0-6.4427 0v8.3297h8.917c1.5078-.0562 1.961 0 3.4179 0v12.5016h8.2233v-12.5016h4.0237l.1711 12.5016h8.1354l-.0832-12.5016c10.4525-.7687 16.5297-5.8406 16.4604-14.5828.0693-8.039-6.2762-12.4734-10.2074-12.4968 3.9312.014 6.1651-4.3219 6.1651-10.4204 0-8.3296-5.6749-12.4968-12.3349-12.4968v-12.5016h-8.2232v12.5016c-1.6327 0-2.4467-.061-4.107 0v-12.5016zm8.2233 20.8312c8.2186 0 12.3302 0 12.3302 6.2532 0 6.2484-4.1116 6.2484-12.3302 6.2484zm0 20.836c10.9566 0 16.4418-.6938 16.4418 6.2484 0 6.9469-5.4852 6.2531-16.4418 6.2531z" fill="#f5c211"/>
  <g filter="url(#filter1_d)">
    <path d="m51.7022 26.5v12.5016h-12.3349v8.3296s4.7083-.0796 4.6343 0c2.5206-.0375 3.3253 1.8188 3.5843 3.0563v27.5016c-.0925.7828-.0138 2.7234-1.776 2.7796.0833.0704-6.4426 0-6.4426 0v8.3297h8.917c1.5078-.0562 1.961 0 3.4179 0v12.5016h8.2232v-12.5016h4.0238l.1711 12.5016h8.1354l-.0833-12.5016c10.4525-.7687 16.5298-5.8406 16.4604-14.5828.0694-8.039-6.2761-12.4734-10.2074-12.4968 3.9313.014 6.1652-4.3219 6.1652-10.4204 0-8.3296-5.6749-12.4968-12.3349-12.4968v-12.5016h-8.2233v12.5016c-1.6326 0-2.4466-.061-4.107 0v-12.5016zm8.2232 20.8312c8.2187 0 12.3303 0 12.3303 6.2532 0 6.2484-4.1116 6.2484-12.3303 6.2484zm0 20.836c10.9567 0 16.4419-.6938 16.4419 6.2484 0 6.9469-5.4852 6.2531-16.4419 6.2531z" fill="#f5c211"/>
  </g>
</svg>
