<svg fill="none" height="128" viewBox="0 0 128 128" width="128" xmlns="http://www.w3.org/2000/svg" xmlns:xlink="http://www.w3.org/1999/xlink">
  <linearGradient id="paint0_linear" gradientUnits="userSpaceOnUse" x1="11.25" x2="115.75" y1="100.75" y2="100.75">
    <stop offset="0" stop-color="#77767b"/>
    <stop offset=".0287081" stop-color="#c0bfbc"/>
    <stop offset=".148325" stop-color="#9a9996"/>
    <stop offset=".844498" stop-color="#9a9996"/>
    <stop offset=".9689" stop-color="#c0bfbc"/>
    <stop offset="1" stop-color="#77767b"/>
  </linearGradient>
  <path d="m124 68c0 15.913-6.321 31.1742-17.574 42.426-11.2518 11.253-26.513 17.574-42.426 17.574-7.8793 0-15.6815-1.552-22.961-4.567-7.2795-3.016-13.8939-7.435-19.4654-13.007-5.5715-5.571-9.9911-12.1855-13.00637-19.465-3.01528-7.2795-4.56723-15.0817-4.56723-22.961s1.55194-15.6815 4.56723-22.961c3.01527-7.2796 7.43487-13.8939 13.00637-19.4654s12.1859-9.9911 19.4654-13.0064c7.2795-3.01525 15.0817-4.5672 22.961-4.5672 15.913 0 31.1742 6.3214 42.426 17.5736 11.253 11.2522 17.574 26.5134 17.574 42.4264z" fill="url(#paint0_linear)"/>
  <path d="m124 61c0-7.8793-1.552-15.6815-4.567-22.961-3.016-7.2795-7.435-13.8939-13.007-19.4654-5.571-5.5715-12.1855-9.99109-19.465-13.00637s-15.0817-4.56723-22.961-4.56723v60z" fill="#f66151"/>
  <path d="m64 1c-7.8793 0-15.6815 1.55195-22.961 4.56723s-13.8939 7.43487-19.4654 13.00637-9.9911 12.1859-13.00637 19.4654c-3.01529 7.2795-4.56723 15.0817-4.56723 22.961h60z" fill="#f6d32d"/>
  <path d="m124 61c0 7.8793-1.552 15.6815-4.567 22.961-3.016 7.2795-7.435 13.8939-13.007 19.465-5.571 5.572-12.1855 9.991-19.465 13.007-7.2795 3.015-15.0817 4.567-22.961 4.567v-60z" fill="#57e389"/>
  <path d="m64 121c-7.8793 0-15.6815-1.552-22.961-4.567-7.2795-3.016-13.8939-7.435-19.4654-13.007-5.5715-5.5711-9.9911-12.1855-13.00637-19.465-3.01529-7.2795-4.56723-15.0817-4.56723-22.961h60z" fill="#3584e4"/>
  <path d="m107.625 61c0 11.5701-4.596 22.6663-12.7775 30.8475-8.1812 8.1815-19.2774 12.7775-30.8475 12.7775-5.7289 0-11.4017-1.128-16.6946-3.321-5.2928-2.1921-10.102-5.4055-14.1529-9.4565-4.051-4.0509-7.2644-8.8601-9.4567-14.1529-2.1924-5.2929-3.3208-10.9657-3.3208-16.6946s1.1284-11.4017 3.3208-16.6946c2.1923-5.2928 5.4057-10.102 9.4567-14.1529 4.0509-4.051 8.8601-7.2644 14.1529-9.4567 5.2929-2.1924 10.9657-3.3208 16.6946-3.3208 11.5701 0 22.6663 4.5962 30.8475 12.7775 8.1815 8.1812 12.7775 19.2774 12.7775 30.8475z" fill="#5e5c64"/>
  <path d="m107.625 60.875c-.125-11.3125-4.596-22.6663-12.7775-30.8475-8.1812-8.1813-19.2774-12.7775-30.8475-12.7775s-22.6663 4.5962-30.8475 12.7775c-8.1813 8.1812-12.7775 19.2774-12.7775 30.8475 1.6875-13.625 7.3126-21.0001 14.75-28.4375 7.6875-7.375 18.232-11.1875 28.75-11.1875s19.8125 3.4375 28.625 10.75c4.9771 4.1299 11.562 10.5 15.125 28.875z" fill="#241f31" opacity=".25"/>
  <g clip-rule="evenodd" fill-rule="evenodd">
    <path d="m60.9071 35.4092 9.8704-.9092v16.6965l11.3856-16.6965 10.3369 1.9643-12.8392 16.8653 12.8315 16.5276-9.8703 3.9286-11.8445-17.6786v15.7143l-9.8704 1.9643zm-13.7951 8.4134c.1934-.1938.428-.268.6709-.2532v.0001c.243.0111.4942.1069.7249.2531l6.7858 4.3007c.6327-.3027 1.2829-.5677 1.9471-.7941v4.2278c-4.8171 2.2737-7.8901 7.1021-7.8963 12.4073 0 7.5939 6.1868 13.7499 13.8186 13.7499 5.4337-.0054 10.3598-3.1792 12.5885-8.1103l4.4224 6.5988 1.3803-.5486 1.8507 2.8927c.2936.459.3866 1.0043 0 1.3888l-4.191 4.1703c-.3867.3846-1.0091.3846-1.3958 0l-6.7858-4.3007c-.7033.3412-1.4284.6359-2.1707.8824l-1.7505 7.8303c-.1186.5315-.4402.9821-.987.9821h-5.9223c-.5468 0-.987-.438-.987-.9821l-1.7466-7.8265c-.7455-.2535-1.4733-.5557-2.1784-.9053l-6.8167 4.3198c-.3867.3846-1.0091.3846-1.3958 0l-4.1872-4.1703c-.3866-.3847-.2936-.93 0-1.3888l4.3376-6.7829c-.3366-.6902-.6276-1.4017-.8714-2.1293l-7.8693-1.7417c-.5337-.1181-.987-.438-.987-.9822v-5.8929c0-.5442.4402-.9822.987-.9822l7.8655-1.7379c.2517-.735.5518-1.4529.8983-2.1485l-4.3298-6.7676c-.3866-.3847-.3866-1.0042 0-1.3888z" fill="#241f31" opacity=".4"/>
    <path d="m59.9071 34.4092 9.8704-.9092v16.6965l11.3856-16.6965 10.3369 1.9643-12.8392 16.8653 12.8315 16.5276-9.8703 3.9286-11.8445-17.6786v15.7143l-9.8704 1.9643zm-13.7951 8.4134c.1934-.1938.428-.268.6709-.2532v.0001c.243.0111.4942.1069.7249.2531l6.7858 4.3007c.6327-.3027 1.2829-.5677 1.9471-.7941v4.2278c-4.8171 2.2737-7.8901 7.1021-7.8963 12.4073 0 7.5939 6.1868 13.7499 13.8186 13.7499 5.4337-.0054 10.3598-3.1792 12.5885-8.1103l4.4224 6.5988 1.3803-.5486 1.8507 2.8927c.2936.459.3866 1.0043 0 1.3888l-4.191 4.1703c-.3867.3846-1.0091.3846-1.3958 0l-6.7858-4.3007c-.7033.3412-1.4284.6359-2.1707.8824l-1.7505 7.8303c-.1186.5315-.4402.9821-.987.9821h-5.9223c-.5468 0-.987-.438-.987-.9821l-1.7466-7.8265c-.7455-.2535-1.4733-.5557-2.1784-.9053l-6.8167 4.3198c-.3867.3846-1.0091.3846-1.3958 0l-4.1872-4.1703c-.3866-.3847-.2936-.93 0-1.3888l4.3376-6.7829c-.3366-.6902-.6276-1.4017-.8714-2.1293l-7.8693-1.7417c-.5337-.1181-.987-.438-.987-.9822v-5.8929c0-.5442.4402-.9822.987-.9822l7.8655-1.7379c.2517-.735.5518-1.4529.8983-2.1485l-4.3298-6.7676c-.3866-.3847-.3866-1.0042 0-1.3888z" fill="#f6f5f4"/>
  </g>
</svg>
