<svg fill="none" height="128" viewBox="0 0 128 128" width="128" xmlns="http://www.w3.org/2000/svg" xmlns:xlink="http://www.w3.org/1999/xlink">
  <linearGradient id="paint0_linear" gradientUnits="userSpaceOnUse" x1="11.25" x2="115.75" y1="100.75" y2="100.75">
    <stop offset="0" stop-color="#77767b"/>
    <stop offset=".0287081" stop-color="#c0bfbc"/>
    <stop offset=".148325" stop-color="#9a9996"/>
    <stop offset=".844498" stop-color="#9a9996"/>
    <stop offset=".9689" stop-color="#c0bfbc"/>
    <stop offset="1" stop-color="#77767b"/>
  </linearGradient>
  <path d="m124 68c0 15.913-6.321 31.1742-17.574 42.426-11.2518 11.253-26.513 17.574-42.426 17.574-7.8793 0-15.6815-1.552-22.961-4.567-7.2795-3.016-13.8939-7.435-19.4654-13.007-5.5715-5.571-9.9911-12.1855-13.00637-19.465-3.01528-7.2795-4.56723-15.0817-4.56723-22.961s1.55194-15.6815 4.56723-22.961c3.01527-7.2796 7.43487-13.8939 13.00637-19.4654s12.1859-9.9911 19.4654-13.0064c7.2795-3.01525 15.0817-4.5672 22.961-4.5672 15.913 0 31.1742 6.3214 42.426 17.5736 11.253 11.2522 17.574 26.5134 17.574 42.4264z" fill="url(#paint0_linear)"/>
  <circle fill="#f66151" r="60" transform="matrix(1 0 0 -1 64 61)"/>
  <path d="m124 61c0-33.1371-26.8629-60-60-60s-60 26.8629-60 60 26.8629 60 60 60 60-26.8629 60-60zm-113.2024 0c0-29.3829 23.8195-53.20244 53.2024-53.20244s53.202 23.81954 53.202 53.20244-23.8191 53.202-53.202 53.202-53.2024-23.8191-53.2024-53.202z" fill="#f6f5f4" opacity=".8"/>
  <path d="m117 61c-.152-13.7436-5.584-27.5372-15.523-37.4767-9.9398-9.9394-23.4205-15.5233-37.477-15.5233s-27.5372 5.5839-37.4767 15.5233c-9.9394 9.9395-15.5233 23.4202-15.5233 37.4767 2.0501-16.553 8.8841-25.513 17.9198-34.5487 9.3395-8.9599 22.15-13.5917 34.9283-13.5917 12.7784 0 24.0702 4.1762 34.7765 13.0602 6.0464 5.0174 14.0474 12.7564 18.3754 35.0802z" fill="#241f31" opacity=".25"/>
  <path d="m104 64c-.115 10.3725-4.2143 20.7828-11.7157 28.2843-7.5015 7.5014-17.6756 11.7157-28.2843 11.7157s-20.7828-4.2143-28.2843-11.7157c-7.5014-7.5015-11.7157-17.6756-11.7157-28.2843 1.5473 12.4928 6.705 19.2551 13.5244 26.0745 7.0487 6.7622 16.7169 10.2575 26.361 10.2575 9.644 0 18.1662-3.1515 26.2464-9.8564 4.5636-3.7867 10.6022-9.6275 13.8682-26.4756z" fill="#241f31" opacity=".25"/>
  <path d="m64 21.0017c-2.2341.0023-4.4642.1918-6.6667.5664v56.1c0 1.8467-1.4866 3.3333-3.3333 3.3333h-3.3333c-1.8467 0-3.3334-1.4866-3.3334-3.3333v-52.9767c-6.954 3.1874-12.8482 8.302-16.9838 14.7374-4.1356 6.4353-6.3392 13.9215-6.3495 21.5712 0 10.6087 4.2142 20.7828 11.7157 28.2843s17.6756 11.7157 28.2843 11.7157 20.7827-4.2142 28.2842-11.7157 11.7158-17.6756 11.7158-28.2843-4.2143-20.7828-11.7158-28.2843-17.6755-11.7157-28.2842-11.7157zm-1.6536 19.9983c.278.0025.551.081.7942.2281l30 18.1834c.2594.1576.4755.3878.6259.6671.1505.2792.2298.5975.2298.9214s-.0793.6419-.2298.9212c-.1504.2793-.3665.5097-.6259.6673l-30 18.1832c-.2536.1531-.5394.2315-.8292.2273-.2899-.0042-.5736-.0907-.8234-.2511s-.457-.389-.601-.6634-.2199-.5851-.2203-.9013v-36.3666c.0002-.2398.0439-.4771.1285-.6984.0847-.2213.2087-.4222.3648-.5911.1562-.1688.3413-.3024.5449-.3928.2036-.0905.4216-.1359.6415-.1341" fill="#f6f5f4" opacity=".85"/>
</svg>
