<svg height="128" width="128" xmlns="http://www.w3.org/2000/svg">
  <path d="m11 37.082031v60l51.943359 29.917969 51.943361-29.917969v-60l-51.943361 29.917969z" fill="#3d3846" opacity=".6"/>
  <path d="m11 33.082479 51.943532-30.0824797v59.9999997z" fill="#62a0ea"/>
  <path d="m62.943532 62.999999-51.943532 30.08248v-60z" fill="#e01b24"/>
  <path d="m11 93.082479 51.943527-30.08248v60.000001z" fill="#f6d32d"/>
  <g transform="matrix(-.51231187 0 0 .51231187 128.91212 -2.654451)">
    <path d="m27.376024 69.756206 101.390446-58.71908v117.116164z" fill="#1c71d8"/>
    <path d="m128.76647 128.15329-101.390446 58.71908v-117.116164z" fill="#2ec27e"/>
    <path d="m27.376024 186.87237 101.390436-58.71908v117.11616z" fill="#8ff0a4"/>
  </g>
  <path d="m59.442957 99.71383c-1.127084-.52182-2.713532-1.65607-3.525428-2.52053-1.578563-1.680787-3.053191-6.214767-2.494907-7.671007.192857-.50305-.609975-.067-1.884193 1.02336-2.437077 2.08543-5.300084 2.82314-8.614111 2.21958-7.087969-1.29087-10.695792-10.23552-6.576737-16.30529l1.21235-1.7865-1.777077-.28837c-7.34416-1.1918-11.358267-9.58343-7.628539-15.94773 1.479424-2.52445 4.737348-4.75593 7.628539-5.22512l1.777077-.28837-1.21235-1.7865c-3.50966-5.17178-1.582983-12.4396 4.040598-15.24195 4.169701-2.07785 8.502493-1.47251 11.754337 1.64221l1.408854 1.34945v-2.16551c0-2.41167 1.322609-5.38223 3.159085-7.09527 2.734415-2.55062 7.87754-3.46935 11.330181-2.02394 2.03355.85132 5.370857 4.46747 5.73405 6.21314.903246 4.34141.711161 4.03498 1.955984 3.12037 5.567467-4.09059 12.994217-2.58972 16.076677 3.24895 1.97887 3.7483 1.4678 8.84787-1.19149 11.88907-.64536.73804-.52449.85908 1.12528 1.1268 2.95764.47996 6.20739 2.69013 7.69975 5.23667 3.748263 6.39592-.2852 14.75607-7.69975 15.95929-1.64977.26771-1.77064.38875-1.12528 1.1268 2.77519 3.17373 3.14054 7.71391.95707 11.89354-3.16535 6.05918-11.18138 7.37331-16.120223 2.64271l-1.408859-1.34945v2.16551c0 7.092987-7.961352 11.912087-14.600888 8.838087z" fill="#faf8f6"/>
  <path d="m59.442957 99.71383c-1.127084-.52182-2.713532-1.65607-3.525428-2.52053-1.578563-1.680787-3.053191-6.214767-2.494907-7.671007.192857-.50305-.609975-.067-1.884193 1.02336-2.437077 2.08543-5.300084 2.82314-8.614111 2.21958-7.087969-1.29087-10.695792-10.23552-6.576737-16.30529l1.21235-1.7865-1.777077-.28837c-7.34416-1.1918-11.358267-9.58343-7.628539-15.94773 1.479424-2.52445 4.737348-4.75593 7.628539-5.22512l1.777077-.28837-1.21235-1.7865c-3.50966-5.17178-1.582983-12.4396 4.040598-15.24195 4.169701-2.07785 8.502493-1.47251 11.754337 1.64221l1.408854 1.34945v-2.16551c0-2.41167 1.322609-5.38223 3.159085-7.09527 2.734415-2.55062 7.87754-3.46935 11.330181-2.02394 2.03355.85132 5.370857 4.46747 5.73405 6.21314.903246 4.34141.711161 4.03498 1.955984 3.12037 5.567467-4.09059 12.994217-2.58972 16.076677 3.24895 1.97887 3.7483 1.4678 8.84787-1.19149 11.88907-.64536.73804-.52449.85908 1.12528 1.1268 2.95764.47996 6.20739 2.69013 7.69975 5.23667 3.748263 6.39592-.2852 14.75607-7.69975 15.95929-1.64977.26771-1.77064.38875-1.12528 1.1268 2.77519 3.17373 3.14054 7.71391.95707 11.89354-3.16535 6.05918-11.18138 7.37331-16.120223 2.64271l-1.408859-1.34945v2.16551c0 7.092987-7.961352 11.912087-14.600888 8.838087zm8.359307-5.088817c2.148536-2.00702 2.586884-4.63013 1.173933-7.0249-.932315-1.58016-1.080092-2.64868-1.080092-7.80969v-5.97907l4.311483 4.28909c3.110973 3.09481 4.399682 4.75921 4.628228 5.97747.470604 2.50851 2.876014 4.31171 5.751711 4.31171 4.98778 0 7.70455-5.8562 4.48938-9.6772-.76342-.90728-2.01736-1.69121-3.00004-1.87556-1.21826-.22855-2.88266-1.51726-5.977472-4.62824l-4.289079-4.31148h5.979064c5.161007 0 6.229537.14778 7.809687 1.08009 2.39477 1.41295 5.01788.97461 7.02491-1.17393 3.12533-3.34567 1.20967-9.06194-3.32179-9.91205-1.43333-.26889-2.30185-.098-3.70312.72881-1.58015.93231-2.64868 1.08009-7.809687 1.08009h-5.979064l4.289079-4.31148c3.094812-3.11098 4.759212-4.39968 5.977472-4.62823 2.50851-.4706 4.31171-2.87602 4.31171-5.75172 0-4.98778-5.85619-7.70455-9.677198-4.48938-.90727.76342-1.691213 2.01736-1.875563 3.00004-.228546 1.21826-1.517255 2.88266-4.628228 5.97748l-4.311483 4.28908v-5.97907c0-5.16101.147777-6.22953 1.080092-7.80969.826767-1.40127.997703-2.26979.728807-3.70312-.850104-4.53145-6.566374-6.44712-9.912049-3.32179-2.148535 2.00703-2.586883 4.63014-1.173932 7.02491.932315 1.58016 1.080091 2.64868 1.080091 7.80969v5.97907l-4.311482-4.28908c-3.110973-3.09482-4.399682-4.75922-4.628234-5.97748-.470598-2.50851-2.876019-4.31171-5.751713-4.31171-4.987786 0-7.704556 5.85619-4.489389 9.6772.763421.90728 2.017366 1.69122 3.000047 1.87557 1.218262.22855 2.882661 1.51725 5.977477 4.62823l4.289084 4.31148h-5.979074c-5.161009 0-6.229533-.14778-7.809688-1.08009-2.39477-1.41295-5.017879-.9746-7.024907 1.17393-2.066236 2.21191-2.066236 5.7974 0 8.00931 2.007028 2.14854 4.630137 2.58688 7.024907 1.17393 1.580155-.93231 2.648679-1.08009 7.809688-1.08009h5.979074l-4.289084 4.31148c-3.094816 3.11098-4.759215 4.39969-5.977477 4.62824-2.508514.4706-4.311709 2.87601-4.311709 5.75171 0 4.98778 5.856191 7.70455 9.677196 4.48938.907281-.76342 1.691218-2.01736 1.875568-3.00004.228552-1.21826 1.517261-2.88266 4.628234-5.97747l4.311482-4.28909v5.97907c0 5.16101-.147776 6.22953-1.080091 7.80969-1.412951 2.39477-.974603 5.01788 1.173932 7.0249 1.255763 1.17306 2.019011 1.44928 4.004652 1.44928 1.985647 0 2.748895-.27622 4.004657-1.44928z" fill="#3d3846"/>
</svg>
