<svg fill="none" height="128" viewBox="0 0 128 128" width="128" xmlns="http://www.w3.org/2000/svg" xmlns:xlink="http://www.w3.org/1999/xlink">
  <clipPath id="clip0">
    <path d="m38 63h47v36h-47z"/>
  </clipPath>
  <path d="m62.7135 119c21.4346 0 38.8105-9.744 38.8105-21.7641h-77.6215c0 12.0201 17.3763 21.7641 38.811 21.7641z" fill="#f66151"/>
  <ellipse cx="62.7135" cy="96.3782" fill="#f6f5f4" rx="38.8109" ry="16.8324"/>
  <ellipse cx="62.451" cy="96.3782" fill="#deddda" rx="32.9165" ry="14.2759"/>
  <ellipse cx="61.5933" cy="49.5594" fill="#9a9996" rx="26.5317" ry="9.85641"/>
  <ellipse cx="61.5933" cy="54.7666" fill="#b5835a" rx="22.2338" ry="9.50514"/>
  <path clip-rule="evenodd" d="m61.5933 59.4158c14.6531 0 26.5318-4.4129 26.5318-9.8564v47.6083h-.0034c.0022.0584.0034.1168.0034.1754 0 6.0399-11.8787 10.9359-26.5318 10.9359s-26.5317-4.896-26.5317-10.9359c0-.0586.0011-.117.0033-.1754h-.0033v-47.6083c0 5.4435 11.8786 9.8564 26.5317 9.8564z" fill="#c0bfbc" fill-rule="evenodd"/>
  <path d="m67.3871 52.5195-9.0305 4.2537-.0096-8.487z" fill="#cdab8f"/>
  <path clip-rule="evenodd" d="m99.1383 67.6023c0-1.6569-1.3432-3-3-3h-2.2654c-1.6568 0-3 1.3431-3 3v15.4899c0 1.6568 1.3432 3 3 3h2.2654c1.6568 0 3-1.3432 3-3zm-12.7287-7.6286v30.7471h13.0737c2.5487 0 4.6137-1.7763 4.6137-3.9674v-22.8123c0-2.1911-2.065-3.9674-4.6137-3.9674z" fill="#c0bfbc" fill-rule="evenodd"/>
  <path d="m51.6253 33.9303c.4154 6.3664 8.8933 9.9138 8.8933 9.9138s-3.4845-6.0306-3.3532-10.7886c.1756-6.3646 7.4193-9.8148 5.1027-15.7454-1.6847-4.3126-8.4559-8.3101-8.4559-8.3101s4.3737 4.5195 5.1027 8.3101c1.2608 6.5561-7.89 7.4174-7.2896 16.6202z" fill="#f6f5f4" opacity=".4"/>
  <path d="m69.5576 21.6838c-.2042 3.6665-5.8316 7.1438-5.8316 7.1438s2.8986-3.9092 3.2074-7.1438c.2976-3.1172-1.8953-8.3101-1.8953-8.3101s4.7059 4.9634 4.5195 8.3101z" fill="#f6f5f4" opacity=".4"/>
  <path d="m38 58.25c14.5 6 31.5 6 47.375 0v40.75c-13 8-34.125 8.375-47.375 0z" fill="#3d3846"/>
  <g clip-path="url(#clip0)" fill="#c4c4c4">
    <circle cx="44.75" cy="73.25" r="1"/>
    <circle cx="48" cy="76" opacity=".548799" r="1"/>
    <circle cx="65" cy="86" opacity=".540851" r="1"/>
    <circle cx="58" cy="96" opacity=".796725" r="1"/>
    <circle cx="79" cy="77" opacity=".535622" r="1"/>
    <circle cx="85" cy="95" opacity=".233341" r="1"/>
    <circle cx="75" cy="71" opacity=".978238" r="1"/>
    <circle cx="78" cy="88" opacity=".095683" r="1"/>
    <circle cx="85" cy="81" opacity=".851796" r="1"/>
    <circle cx="75" cy="93" opacity=".233599" r="1"/>
    <circle cx="58" cy="80" opacity=".266629" r="1"/>
    <circle cx="84" cy="75" opacity=".193018" r="1"/>
    <circle cx="47" cy="93" opacity=".359773" r="1"/>
    <circle cx="73" cy="70" opacity=".819095" r="1"/>
    <circle cx="72" cy="73" opacity=".532973" r="1"/>
    <circle cx="40" cy="92" opacity=".877723" r="1"/>
    <circle cx="66" cy="87" opacity=".639594" r="1"/>
    <circle cx="56" cy="84" opacity=".664295" r="1"/>
    <circle cx="83" cy="82" opacity=".654631" r="1"/>
    <circle cx="81" cy="96" opacity=".196478" r="1"/>
    <circle cx="72" cy="82" opacity=".408051" r="1"/>
    <circle cx="58" cy="90" opacity=".550586" r="1"/>
    <circle cx="83" cy="74" opacity=".082253" r="1"/>
    <circle cx="60" cy="83" opacity=".166759" r="1"/>
    <circle cx="46" cy="98" opacity=".859478" r="1"/>
    <circle cx="43" cy="90" opacity=".566212" r="1"/>
  </g>
  <path d="m51.2901 89.5869c.124-3.2868 1.7897-6.3182 4.8347-8.3214.009.0034.0879-.0253.0518.0429-.2412.2236-4.5777 5.3463-.586 9.3897 0 0 2.0972 2.0162 3.7235.1031 0 0 1.6048-2.0775-.0203-5.2268 0 0-.4113-1.0283-1.8933-1.6662l1.1935-1.3168s1.0086.4327 1.7896 1.6064c0 0 .0416-1.2357-.905-2.5525l1.8505-2.0995 1.8319 2.0798s-.8424 1.1934-.9045 2.592c0 0 .5754-.9466 1.8106-1.6262l1.172 1.3169s-1.127.3714-1.882 1.6527c-.6492 1.1872-1.149 3.7263.0292 5.2837 0 0 1.3185 1.8697 3.6379-.1103 0 0 4.2644-3.821-.4373-9.3454 0 0-.257-.2271.0315-.1037 2.0782 1.513 4.5665 3.5083 4.8234 8.4877-.1014 6.0383-4.145 10.349-10.0496 10.349-5.7813 0-10.2756-4.8247-10.1021-10.5351z" fill="#f66151"/>
  <g fill="#f6f5f4">
    <path d="m56.5385 73.1965.2252.6613c.1219.3576.2306.6435.2448.6435.0003 0 .0005-.0001.0006-.0002.0156-.0138.4564-1.2938.4564-1.2938h.8543l-1.0307 3.003h-.5937s-.6337-1.8303-.6312-1.8373l-.6615 1.8143h-.5878l-1.0176-2.9908.8501.0005s.4657 1.32.4719 1.32l.4647-1.3206zm-3.0314-.208.0935.2749 1.0176 2.9908.048.1408h.1488.5877.1454l.0499-.1366.4593-1.2597c.0396.1152.0823.2393.1251.3633.1582.4586.3167.9163.3167.9163l.0484.1398h.1479.5938.1483l.0482-.1403 1.0306-3.003.0945-.2752h-.291-.8543-.1482l-.0483.1401c-.0772.2243-.1797.5203-.2674.7708-.0132-.038-.027-.078-.0412-.1198l-.2252-.6612-.0479-.1408h-.1488-.9545-.1471l-.0489.1388-.2715.7715c-.0897-.2521-.1936-.5458-.2731-.7711l-.0489-.1386-.1469-.0001-.8501-.0005z"/>
    <path d="m56.5385 73.1965.2252.6613c.1219.3576.2306.6435.2448.6435.0003 0 .0005-.0001.0006-.0002.0156-.0138.4564-1.2938.4564-1.2938h.8543l-1.0307 3.003h-.5937s-.6337-1.8303-.6312-1.8373l-.6615 1.8143h-.5878l-1.0176-2.9908.8501.0005s.4657 1.32.4719 1.32l.4647-1.3206z"/>
    <path d="m69.6949 73.1848-.0019.7871s-.8478-.0028-1.2789-.0028c-.1434 0-.2407.0003-.2453.0012-.0743.0135-.1216.1714-.1005.2408.0104.035.0881.1496.1722.2547.0839.1053.2218.2775.306.3826.216.2696.2457.3229.2656.4777.0325.2514-.0864.5236-.3072.7031-.0015.0012-.003.0024-.0045.0036-.2167.1764-.2182.1776-1.8495.1776-.0238 0-.0477 0-.0722 0-.9989-.0002-1.5272-.0085-1.6041-.0257-.1366-.0309-.3542-.2085-.9296-.7604-.2069-.1984-.3976-.372-.4074-.3721-.0002 0-.0004.0002-.0004.0004l-.0067 1.1579-.9324-.0041-.0058-2.9864h1.1758.9036c.6268.0226 1.0509.647.9665 1.0451-.0192.0904-.068.2213-.1086.2909-.0834.1429-.2956.3262-.4678.405-.0636.0288-.1155.0623-.1155.0742 0 .0444.2093.2506.2877.2834.067.028.2621.0342 1.1223.0342.1009 0 .1924.0001.2756.0001.8647 0 .8212-.0063.888-.1491.0468-.0995.0112-.159-.3179-.5296-.4169-.4148-.3732-.6135-.3761-.7603-.0059-.1758.1325-.729.8522-.729zm-5.586 1.3797c.3992 0 .4803-.0062.5652-.0431.2868-.1247.3021-.493.027-.6564-.0602-.0359-.1376-.0418-.5703-.0441l-.5008-.0027c.0042.0039-.0016.7161-.0016.7161s.1255.0302.4805.0302zm5.7943-1.5875h-.2083-1.9168c-.4164 0-.6627.1644-.796.3023-.2168.2242-.2679.5065-.2639.6397.0002.0111 0 .0224-.0001.0343-.0019.2163.03.4612.4327.8635.0796.0897.2128.24.2631.3147-.11.0135-.389.0135-.6821.0135h-.1244l-.1511-.0001c-.517 0-.9529-.0014-1.0422-.0191-.0125-.0081-.0301-.0222-.0493-.0389.1786-.11.3592-.2805.4442-.4263.0516-.0886.1085-.24.1324-.3524.053-.2499-.0344-.5515-.2338-.8069-.2326-.2979-.571-.4762-.9284-.4891l-.0038-.0001h-.0037-.9036-1.1759-.2082l.0005.2082.0057 2.9864.0004.2064.2065.0009.9324.0042.2075.0009.0012-.2075.004-.6936c.019.018.0387.0368.0589.0562.6293.6036.8405.7709 1.0276.8132.0514.0114.1364.0304 1.6499.0308h.0721c.8194 0 1.2306 0 1.4753-.0236.2802-.0271.3703-.0907.5055-.2007l.0044-.0036c.2776-.2256.424-.567.3822-.8909-.0272-.2106-.0829-.2981-.3096-.581l-.0674-.0841c-.0789-.0987-.1743-.2179-.2383-.2981-.0516-.0645-.0921-.1217-.1165-.1592.0321-.0001.0738-.0002.1277-.0002.4258 0 1.2698.0028 1.2782.0029l.208.0007.0005-.208.002-.7872zm-6.0657 1.3721c.0004-.0525.0007-.1113.001-.1703.0003-.0519.0005-.104.0006-.1517l.2905.0015c.167.001.4183.0023.4673.0162.0625.038.0974.0966.0936.1574-.0021.0329-.0177.0932-.0993.1286-.0454.0198-.1179.0259-.4823.0259-.1156 0-.2047-.0033-.2714-.0076z"/>
    <path clip-rule="evenodd" d="m69.6949 73.1848-.0019.7871s-.8478-.0028-1.2789-.0028c-.1434 0-.2407.0003-.2453.0012-.0743.0135-.1216.1714-.1005.2408.0104.035.0881.1496.1722.2547.0839.1053.2218.2775.306.3826.216.2696.2457.3229.2656.4777.0325.2514-.0864.5236-.3072.7031l-.0045.0036c-.2167.1764-.2182.1776-1.8495.1776h-.0722c-.9989-.0002-1.5272-.0085-1.6041-.0257-.1366-.0309-.3542-.2085-.9296-.7604-.2069-.1984-.3976-.372-.4074-.3721-.0002 0-.0004.0002-.0004.0004l-.0067 1.1579-.9324-.0041-.0058-2.9864h1.1758.9036c.6268.0226 1.0509.647.9665 1.0451-.0192.0904-.068.2213-.1086.2909-.0834.1429-.2956.3262-.4678.405-.0636.0288-.1155.0623-.1155.0742 0 .0444.2093.2506.2877.2834.067.028.2621.0342 1.1223.0342l.2756.0001c.8647 0 .8212-.0063.888-.1491.0468-.0995.0112-.159-.3179-.5296-.4169-.4148-.3732-.6135-.3761-.7603-.0059-.1758.1325-.729.8522-.729zm-5.0208 1.3366c-.0849.0369-.166.0431-.5652.0431-.355 0-.4805-.0302-.4805-.0302s.0058-.7122.0016-.7161l.5008.0027c.4327.0023.5101.0082.5703.0441.2751.1634.2598.5317-.027.6564z" fill-rule="evenodd"/>
    <path d="m60.8031 73.1726 1.0464 3.0108-.8527.0039-.1415-.4522-1.5247-.0123-.1345.4528-.8441-.0089 1.0332-2.9928zm-.6858.4414c-.0021.0086-.1336.3693-.2654.7299-.133.3637-.2665.7273-.2683.7301 0 0 0 .0001 0 0 .0035-.001.4757-.0021.7784-.0021.1416 0 .2461.0003.248.0008-.0053-.0137-.4911-1.4411-.4927-1.4587 0-.0001 0 0 0 0zm.8335-.6494-.1479.0002-1.4179.0013-.1479.0001-.0483.1399-1.0332 2.9929-.0941.2725.2884.003.8441.0089.1567.0016.0446-.1502.09-.3029 1.217.0098.0963.3077.0458.1464.1535-.0006.8526-.0039.2908-.0014-.0955-.2746-1.0464-3.0108zm-1.0681 1.8998c.0393-.1073.0923-.2522.1643-.4491.0226-.0617.0432-.1182.0622-.17.0172.0508.0359.1061.0563.1662.0168.0495.0905.2667.1538.4527-.1881 0-.3296 0-.4366.0002z"/>
    <path clip-rule="evenodd" d="m60.8031 73.1726 1.0464 3.0108-.8527.0039-.1415-.4522-1.5247-.0123-.1345.4528-.8441-.0089 1.0332-2.9928zm-.9512 1.1713c.1318-.3606.2633-.7213.2654-.7299.0016.0176.4874 1.445.4927 1.4587-.0019-.0005-.1064-.0008-.248-.0008-.3027 0-.7749.0011-.7784.0021.0018-.0028.1353-.3664.2683-.7301z" fill-rule="evenodd"/>
    <path d="m61.1558 69.579v.7428h-1.4878v2.2719h-.8869v-2.2737l-1.7366.0049c-.2093 0-.2374.1668-.2374.2306 0 .0785.0512.1569.3322.5128.1823.2311.3499.4618.3719.5121.1205.2774-.0353.7096-.3192.8852-.2023.125-.1677.1281-1.6703.1281-.0772 0-.1583 0-.2439 0h-1.6173v-.8345h2.5427l.0751-.0522c.0506-.0354.08-.0839.0912-.1504.0155-.0956.0075-.1081-.3065-.4618-.3712-.4182-.4104-.4946-.3912-.7616.0218-.3046.2935-.7472.7683-.7472zm.2078-.2081-.2082.0003-4.7156.007c-.2717 0-.5239.1173-.7102.3304-.151.1728-.2501.4008-.2651.6098-.0252.3509.0555.4777.443.9143.1125.1267.2194.2472.2551.2983-.0006.0021-.0011.0034-.0014.0041-.0004.0004-.001.0008-.0018.0014l-.0214.0149h-2.4775-.2078v.2077.8346.2077h.2078 1.6173.1282.1157c.7409 0 1.1065-.0007 1.3219-.0165.2465-.018.3252-.0603.443-.1335l.0147-.0091c.3704-.2291.5613-.7747.4005-1.1447-.0496-.1132-.3637-.5129-.3993-.5581-.0986-.1248-.2614-.3309-.2871-.3905.0006-.005.0018-.0102.0031-.0138.0043-.0011.0125-.0026.026-.0026l1.5288-.0043v2.0653.2078h.2078.8869.2078v-.2078-2.0641h1.28.2078v-.2078-.7428z"/>
    <path d="m61.1558 69.579v.7428h-1.4878v2.2719h-.8869v-2.2737l-1.7366.0049c-.2093 0-.2374.1668-.2374.2306 0 .0785.0512.1569.3322.5128.1823.2311.3499.4618.3719.5121.1205.2774-.0353.7096-.3192.8852-.2023.125-.1677.1281-1.6703.1281h-.2439-1.6173v-.8345h2.5427l.0751-.0522c.0506-.0354.08-.0839.0912-.1504.0155-.0956.0075-.1081-.3065-.4618-.3712-.4182-.4104-.4946-.3912-.7616.0218-.3046.2935-.7472.7683-.7472z"/>
    <path d="m63.5728 69.6031 1.0436 3.0186-.8511-.0047-.1382-.4522-1.5178-.0067-.1356.4355h-.8667l1.0321-2.9905zm-1.2158 1.9122 1.0338-.0013c.0035 0-.5024-1.4857-.5058-1.4867-.0037-.0002-.5397 1.488-.528 1.488zm1.3638-2.12h-.148-1.4337-.1481l-.0483.14-1.0321 2.9906-.0951.2755h.2915.8667.153l.0454-.146.0899-.2888 1.2112.0053.0935.3058.0447.1462.1529.0009.8511.0047.2934.0016-.0958-.2773-1.0436-3.0186zm-1.0751 1.9118c.0641-.1825.1533-.4326.2341-.6574.0766.2245.1613.4739.223.6568z"/>
    <path clip-rule="evenodd" d="m63.5728 69.6031 1.0436 3.0186-.8511-.0047-.1382-.4522-1.5178-.0067-.1356.4355h-.8667l1.0321-2.9905zm-.182 1.9109-1.0338.0013c-.0117 0 .5243-1.4882.528-1.488.0034.001.5093 1.4867.5058 1.4867z" fill-rule="evenodd"/>
    <path d="m66.5038 69.6031c.6733 0 1.1405.0096 1.2304.0252.2078.0361.3956.147.5363.3174.1473.1782.1811.2633.2003.5075.0275.3447-.1364.642-.4597.835-.0943.0564-.1912.1112-.2154.1221-.0371.0169-.0321.033.0343.1109.0429.0501.1172.1216.165.1587l.0872.0678 1.6124.0231.0158.8228h-.9885c-.7646 0-1.0093-.007-1.081-.0311-.1073-.0364-.3654-.2551-.8901-.7543l-.3746-.3563.004 1.1417h-.9621v-2.9905zm-.1417 1.3446h.5109c.4971 0 .5127-.0015.5836-.0548.1268-.095.1717-.193.1582-.3433-.0138-.1551-.0735-.2359-.2234-.3008-.0844-.0369-.1657-.0429-.5641-.0429h-.4652zm.1417-1.5524h-1.0856-.2078v.2078 2.9905.2078h.2078.9621.2085l-.0007-.2085-.0023-.6549.0218.0207c.649.6175.8404.7577.9667.8005.0969.0327.2592.0422 1.1477.0422h.9885.2118l-.004-.2118-.0159-.8228-.0038-.2009-.2009-.0029-1.5428-.0221-.0324-.0251c-.0103-.008-.0227-.0186-.036-.0306.0115-.0069.0221-.0132.0313-.0186.3897-.2326.5939-.608.5602-1.0299-.0224-.2847-.0732-.4129-.2472-.6234-.1711-.207-.4058-.3454-.661-.3897-.1418-.0246-.854-.0283-1.266-.0283zm.0661 1.0184h.2574c.3643 0 .4365.0061.4809.0255.0844.0366.093.0543.0996.1287.0067.074-.0025.1038-.0759.1588-.0024.0018-.0042.0032-.0058.0043-.0484.009-.2282.009-.4531.009h-.3031z"/>
    <path clip-rule="evenodd" d="m66.5038 69.6031c.6733 0 1.1405.0096 1.2304.0252.2078.0361.3956.147.5363.3174.1473.1782.1811.2633.2003.5075.0275.3447-.1364.642-.4597.835-.0943.0564-.1912.1112-.2154.1221-.0371.0169-.0321.033.0343.1109.0429.0501.1172.1216.165.1587l.0872.0678 1.6124.0231.0158.8228h-.9885c-.7646 0-1.0093-.007-1.081-.0311-.1073-.0364-.3654-.2551-.8901-.7543l-.3746-.3563.004 1.1417h-.9621v-2.9905zm.3692 1.3446h-.5109v-.7418h.4652c.3984 0 .4797.006.5641.0429.1499.0649.2096.1457.2234.3008.0135.1503-.0314.2483-.1582.3433-.0709.0533-.0865.0548-.5836.0548z" fill-rule="evenodd"/>
  </g>
</svg>
