<svg enable-background="new" height="128" viewBox="0 0 128 128" width="128" xmlns="http://www.w3.org/2000/svg" xmlns:xlink="http://www.w3.org/1999/xlink">
  <linearGradient id="linearGradient1227" gradientTransform="matrix(.64390501 0 0 .82744837 -79.638178 200.61503)" gradientUnits="userSpaceOnUse" x1="105.91275" x2="364.63037" y1="66.000511" y2="66.000511">
    <stop offset="0" stop-color="#3b5e76"/>
    <stop offset=".75" stop-color="#afc2d0" stop-opacity="0"/>
    <stop offset="1" stop-color="#afc2d0" stop-opacity="0"/>
  </linearGradient>
  <g transform="matrix(.86666673 0 0 .86666673 9.533387 -142.40002)">
    <path d="m132.07686 238.15385a69.230763 69.230763 0 0 1 -69.23076 69.23077 69.230763 69.230763 0 0 1 -69.2307765-69.23077 69.230763 69.230763 0 0 1 69.2307765-69.23076 69.230763 69.230763 0 0 1 69.23076 69.23076z" fill="#804000" opacity=".5"/>
    <rect fill="#d5d3cf" height="131.53847" rx="64.615387" width="129.23077" x="-1.769221" y="171.23077"/>
    <path d="m132.07686 235.84616a69.230763 69.230763 0 0 1 -69.23076 69.23076 69.230763 69.230763 0 0 1 -69.2307765-69.23076 69.230763 69.230763 0 0 1 69.2307765-69.23077 69.230763 69.230763 0 0 1 69.23076 69.23077z" fill="#ff7f00"/>
    <circle cx="62.8461" cy="235.84615" fill="#ffbe11" r="62.307693"/>
    <path d="m62.846215 173.53847a62.307692 62.307692 0 0 0 -62.30769159 62.30769 62.307692 62.307692 0 0 0 .04789 1.35104 62.307692 62.307692 0 0 1 62.25980659-61.35104 62.307692 62.307692 0 0 1 62.2598 60.95553 62.307692 62.307692 0 0 0 .0479-.95553 62.307692 62.307692 0 0 0 -62.307701-62.30769z" opacity=".1"/>
    <path d="m114.76917 235.84616a51.923073 51.923073 0 0 1 -51.923078 51.92307 51.923073 51.923073 0 0 1 -51.923073-51.92307 51.923073 51.923073 0 0 1 51.923073-51.92307 51.923073 51.923073 0 0 1 51.923078 51.92307z" fill="#ffd319"/>
    <path d="m97.461475 235.84616a34.615383 34.615383 0 0 1 -34.615383 34.61538 34.615383 34.615383 0 0 1 -34.615383-34.61538 34.615383 34.615383 0 0 1 34.615383-34.61538 34.615383 34.615383 0 0 1 34.615383 34.61538z" fill="#ffe20d"/>
    <path d="m85.923014 235.84616a23.076921 23.076921 0 0 1 -23.076922 23.07692 23.076921 23.076921 0 0 1 -23.076921-23.07692 23.076921 23.076921 0 0 1 23.076921-23.07692 23.076921 23.076921 0 0 1 23.076922 23.07692z" fill="#ffed1f"/>
    <g enable-background="new" fill="#fff" stroke="#fff" stroke-width=".768232" transform="matrix(.97758209 0 0 1.022932 .000001 -11.774764)">
      <path d="m55.462669 267.8066q-4.111685 2.13342-8.572476 3.21952-4.460791 1.08611-9.309476 1.08611-14.468478 0-22.924586-8.06821-8.4561074-8.107-8.4561074-21.95485 0-13.88664 8.4561074-21.95485 8.456108-8.107 22.924586-8.107 4.848685 0 9.309476 1.0861 4.460791 1.08611 8.572476 3.21953v11.98595q-4.150475-2.83163-8.184581-4.15047-4.034107-1.31885-8.494897-1.31885-7.990634 0-12.567793 5.12022-4.577159 5.12021-4.577159 14.11937 0 8.96037 4.577159 14.08058 4.577159 5.12021 12.567793 5.12021 4.46079 0 8.494897-1.31884 4.034106-1.31884 8.184581-4.15047z"/>
      <path d="m82.809257 224.36237v35.33723h5.352949q9.154318 0 13.964214-4.53837 4.84869-4.53837 4.84869-13.18843 0-8.61126-4.8099-13.11085-4.809896-4.49958-14.003004-4.49958zm-14.933952-11.28774h15.748531q13.188425 0 19.627484 1.90069 6.47784 1.86189 11.09379 6.36147 4.07289 3.91774 6.05116 9.03795 1.97826 5.12022 1.97826 11.59806 0 6.55542-1.97826 11.71443-1.97827 5.12021-6.05116 9.03794-4.65474 4.49959-11.17137 6.40027-6.516637 1.8619-19.549904 1.8619h-15.748531z"/>
    </g>
    <g fill-rule="evenodd" transform="translate(4.615384 .000744)">
      <path d="m-10.95742 265.45156c57.37214 1.5199 60.366668-21.5132 72.764674-21.27813 15.527801.29876 9.681406 23.11919 65.654276 21.59931" fill="url(#linearGradient1227)"/>
      <path d="m61.801341 242.553c-3.351193-.0636-6.060159 1.45876-9.021661 3.59072-2.961503 2.13196-6.248869 4.9068-10.920476 7.63921-9.343214 5.4648-24.23985 10.80412-52.817089 10.04705l-.042115 1.62233c28.7949.76283 44.082935-4.65562 53.679521-10.26862 4.798294-2.8065 8.168861-5.6503 11.048651-7.72343 2.879791-2.07314 5.194229-3.34076 8.042041-3.28676 3.682359.0709 5.981031 1.41868 8.424733 3.5193 2.443701 2.10063 4.954619 4.97242 8.767142 7.804 7.625048 5.66318 20.403634 11.03885 48.499442 10.27594l-.044-1.62049c-27.877068.75697-40.159935-4.51741-47.486856-9.95916-3.663462-2.72089-6.100976-5.51603-8.677421-7.73077-2.576446-2.21473-5.370421-3.83079-9.451961-3.90932z" fill="#aabdd6"/>
    </g>
  </g>
</svg>
