<svg width="128" height="128" viewBox="0 0 128 128" fill="none" xmlns="http://www.w3.org/2000/svg" xmlns:xlink="http://www.w3.org/1999/xlink">
<g clip-path="url(#clip0)">
<path d="M108 117H20C15.582 117 12 112.766 12 107.547V37.453C12 32.234 15.582 28 20 28H108C112.418 28 116 32.234 116 37.453V107.547C116 112.766 112.418 117 108 117Z" fill="#A51D2D"/>
<path d="M108 115H20C17.8783 115 15.8434 114.157 14.3431 112.657C12.8429 111.157 12 109.122 12 107V83C12 80.8783 12.8429 78.8434 14.3431 77.3431C15.8434 75.8429 17.8783 75 20 75H108C110.122 75 112.157 75.8429 113.657 77.3431C115.157 78.8434 116 80.8783 116 83V107C116 109.122 115.157 111.157 113.657 112.657C112.157 114.157 110.122 115 108 115Z" fill="url(#paint0_linear)"/>
<path d="M108 109H20C17.8783 109 15.8434 108.157 14.3431 106.657C12.8429 105.157 12 103.122 12 101V21C12 18.8783 12.8429 16.8434 14.3431 15.3431C15.8434 13.8429 17.8783 13 20 13H108C110.122 13 112.157 13.8429 113.657 15.3431C115.157 16.8434 116 18.8783 116 21V101C116 103.122 115.157 105.157 113.657 106.657C112.157 108.157 110.122 109 108 109Z" fill="url(#paint1_linear)"/>
<path d="M28 96C28 98.21 26.21 100 24 100C21.79 100 20 98.21 20 96C20 93.79 21.79 92 24 92C26.21 92 28 93.79 28 96ZM44 96C44 98.21 42.21 100 40 100C37.79 100 36 98.21 36 96C36 93.79 37.79 92 40 92C42.21 92 44 93.79 44 96ZM60 96C60 98.21 58.21 100 56 100C53.79 100 52 98.21 52 96C52 93.79 53.79 92 56 92C58.21 92 60 93.79 60 96ZM28 73C28 75.21 26.21 77 24 77C21.79 77 20 75.21 20 73C20 70.79 21.79 69 24 69C26.21 69 28 70.79 28 73ZM44 73C44 75.21 42.21 77 40 77C37.79 77 36 75.21 36 73C36 70.79 37.79 69 40 69C42.21 69 44 70.79 44 73ZM60 73C60 75.21 58.21 77 56 77C53.79 77 52 75.21 52 73C52 70.79 53.79 69 56 69C58.21 69 60 70.79 60 73ZM76 73C76 75.21 74.21 77 72 77C69.79 77 68 75.21 68 73C68 70.79 69.79 69 72 69C74.21 69 76 70.79 76 73ZM92 73C92 75.21 90.21 77 88 77C85.79 77 84 75.21 84 73C84 70.79 85.79 69 88 69C90.21 69 92 70.79 92 73ZM108 73C108 75.21 106.21 77 104 77C101.79 77 100 75.21 100 73C100 70.79 101.79 69 104 69C106.21 69 108 70.79 108 73ZM44 50C44 52.21 42.21 54 40 54C37.79 54 36 52.21 36 50C36 47.79 37.79 46 40 46C42.21 46 44 47.79 44 50ZM60 50C60 52.21 58.21 54 56 54C53.79 54 52 52.21 52 50C52 47.79 53.79 46 56 46C58.21 46 60 47.79 60 50ZM76 50C76 52.21 74.21 54 72 54C69.79 54 68 52.21 68 50C68 47.79 69.79 46 72 46C74.21 46 76 47.79 76 50ZM92 50C92 52.21 90.21 54 88 54C85.79 54 84 52.21 84 50C84 47.79 85.79 46 88 46C90.21 46 92 47.79 92 50ZM108 50C108 52.21 106.21 54 104 54C101.79 54 100 52.21 100 50C100 47.79 101.79 46 104 46C106.21 46 108 47.79 108 50Z" fill="#C0BFBC"/>
<path d="M62 73C62 76.313 59.312 79 56 79C52.687 79 50 76.312 50 73C50 69.687 52.688 67 56 67C59.313 67 62 69.688 62 73Z" fill="#ED333B"/>
<rect y="-24" width="192" height="152" fill="url(#pattern0)"/>
<path d="M94 94.973V107.258C94 109.38 94.8429 111.415 96.3431 112.915C97.8434 114.415 99.8783 115.258 102 115.258H114.285C116.407 115.258 118.442 114.415 119.942 112.915C121.442 111.415 122.285 109.38 122.285 107.258V94.973C122.285 92.8513 121.442 90.8165 119.942 89.3162C118.442 87.8159 116.407 86.973 114.285 86.973H102C99.8783 86.973 97.8434 87.8159 96.3431 89.3162C94.8429 90.8165 94 92.8513 94 94.973Z" fill="url(#paint2_linear)"/>
<path d="M116 100.97V88.685C116 86.5633 115.157 84.5284 113.657 83.0281C112.157 81.5279 110.122 80.685 108 80.685H95.715C93.5933 80.685 91.5584 81.5279 90.0581 83.0281C88.5579 84.5284 87.715 86.5633 87.715 88.685V100.97C87.715 103.092 88.5579 105.127 90.0581 106.627C91.5584 108.127 93.5933 108.97 95.715 108.97H108C110.122 108.97 112.157 108.127 113.657 106.627C115.157 105.127 116 103.092 116 100.97Z" fill="#F6F5F4"/>
<path d="M20 12C18.9487 11.9974 17.9072 12.2025 16.9354 12.6036C15.9636 13.0047 15.0807 13.5939 14.3373 14.3373C13.5939 15.0807 13.0047 15.9636 12.6036 16.9354C12.2025 17.9072 11.9974 18.9487 12 20V32H116V20C116 15.566 112.434 12 108 12H20Z" fill="#3584E4"/>
<path d="M12 30V32H116V30H12Z" fill="#1A5FB4"/>
</g>
<defs>
<pattern id="pattern0" patternContentUnits="objectBoundingBox" width="1" height="1">
<use xlink:href="#image0" transform="scale(0.00520833 0.00657895)"/>
</pattern>
<linearGradient id="paint0_linear" x1="116" y1="67" x2="12" y2="67" gradientUnits="userSpaceOnUse">
<stop stop-color="#D5D3CF"/>
<stop offset="0.038" stop-color="#F6F5F4"/>
<stop offset="0.077" stop-color="#D5D3CF"/>
<stop offset="0.923" stop-color="#D5D3CF"/>
<stop offset="0.962" stop-color="#EEEEEC"/>
<stop offset="1" stop-color="#D5D3CF"/>
</linearGradient>
<linearGradient id="paint1_linear" x1="48" y1="38.25" x2="91.75" y2="104" gradientUnits="userSpaceOnUse">
<stop stop-color="#F3F2F0"/>
<stop offset="1" stop-color="#F9F8F7"/>
</linearGradient>
<linearGradient id="paint2_linear" x1="105" y1="97.9719" x2="104" y2="96.9721" gradientUnits="userSpaceOnUse">
<stop stop-color="#D5D3CF"/>
<stop offset="1" stop-color="#F6F5F4"/>
</linearGradient>
<clipPath id="clip0">
<rect width="128" height="128" fill="white"/>
</clipPath>
</defs>
</svg>
