<svg height="128" width="128" xmlns="http://www.w3.org/2000/svg"><g stroke-width="1.857143"><path d="m17.571426 76.896622c1.323298-7.989973-.128788-36.940424 47.139205-40.096472 31.998482 4.698713 43.296919 17.136803 45.717919 40.096472-.669 12.26756-32.722633 44.186358-45.954803 43.075078-14.289343.81668-46.687004-31.862264-46.902321-43.075078z" fill="#030200" opacity=".3"/><path d="m78.85713 35.546017c9.044439-7.832674 21.65825-13.841913 36.47214-14.260201 2.81107 17.296547-3.84718 31.181555-8.25784 37.142849" fill="#ff9800"/><path d="m84.428558 37.003004c7.918222-5.413178 15.695022-9.267126 25.999992-10.145763-.62223 17.789279-4.2634 20.109445-8.00271 25.999996" fill="#ba6c0f"/><path d="m17.571426 72.896622c1.323298-7.989973-.128788-36.940424 47.139205-40.096472 31.998482 4.698713 43.296919 17.136803 45.717919 40.096472-.669 12.26756-32.722633 44.186358-45.954803 43.075078-14.289343.81668-46.687004-31.862264-46.902321-43.075078z" fill="#ff9800"/><path d="m49.142849 35.546017c-9.044438-7.832674-21.658247-13.841913-36.472139-14.260201-2.8110727 17.296547 3.847183 31.181555 8.257843 37.142849" fill="#ff9800"/><path d="m43.571422 37.003004c-7.918223-5.413178-15.695018-9.267126-25.999996-10.145763.622234 17.789279 4.263408 20.109445 8.002713 25.999996" fill="#ba6c0f"/><path d="m12.671036 21.285814c-.537769 3.308891-.721777 6.483478-.649275 9.506974.03002-2.462474.220176-5.009584.649275-7.649832 14.602818.412329 27.050002 6.266729 36.065563 13.935824 4.590641-1.167558 9.869047-2.015346 15.974327-2.42299 5.469552.803158 10.291506 1.85374 14.61049 3.123045l-.464286-.377232c9.044439-7.832673 21.65792-13.840357 36.47181-14.258647.4347 2.674681.62056 5.256555.64565 7.751394.0795-3.055033-.10243-6.266161-.64565-9.608536-14.81389.41829-27.427371 6.425973-36.47181 14.258646l.464286.377232c-4.318984-1.269305-9.140938-2.319886-14.61049-3.123045-6.105282.407645-11.383686 1.255432-15.974327 2.42299-9.015561-7.669094-21.462745-13.523495-36.065563-13.935823zm7.435825 37.741345c-1.918964 5.836022-2.07831 11.110444-2.535435 13.870541.0062.321917.04714.666862.10519 1.022877.42173-3.102654.661374-8.360189 2.836496-14.258654-.130539-.185176-.272871-.43691-.406251-.634764zm87.390889.616629c-.14008.198978-.29187.458008-.42801.642019 1.60718 4.026714 2.6464 8.541055 3.23912 13.565851.0542-.326931.10314-.650316.11969-.953958-.517-4.902987-1.48534-9.286421-2.9308-13.253912z" fill="#f6d644" opacity=".2"/><path d="m74.214274 92.785747a10.214284 10.214284 0 1 1 -20.428568 0 10.214284 10.214284 0 1 1 20.428568 0z" fill="#ffe0b2"/><path d="m61.39999 77.328879s-25.62117-3.266064-29.902682 10.789627c-2.872233 9.429211 3.688341 9.668991 4.70297 16.044554 1.014624 6.37559-6.371711 4.75638-6.371711 4.75638l.705833 1.4168s7.209879 1.26501 7.430453-5.56597c.220579-6.830993-6.673617-9.921983-2.43864-16.651764 4.234976-6.729784 19.993841-2.784451 19.993841-2.784451z" opacity=".1"/><path d="m61.39999 75.471736s-25.62117-3.266063-29.902682 10.789627c-2.872233 9.429214 3.688341 9.668994 4.70297 16.044557 1.014624 6.37559-6.371711 4.75638-6.371711 4.75638l.705833 1.4168s7.209879 1.26501 7.430453-5.56597c.220579-6.830993-6.673617-9.921983-2.43864-16.651767 4.234976-6.729783 19.993841-2.784451 19.993841-2.784451z" fill="#ba6c0f"/><path d="m42.64285 39.857239c-10.764518 0-19.501397 8.738612-19.499996 19.499997-.0025 10.762319 8.734789 19.499997 19.499996 19.499997 10.764522 0 19.501399-8.738621 19.499997-19.499997.0024-10.762319-8.734786-19.499997-19.499997-19.499997zm0 5.571428c7.689451 0 13.930349 6.241188 13.92857 13.928569.001 7.686709-6.239613 13.928569-13.92857 13.928569-7.689446 0-13.930348-6.241187-13.928569-13.928569-.001-7.686717 6.239615-13.928569 13.928569-13.928569z" opacity=".1"/><path d="m42.64285 38.000097c-10.764518 0-19.501397 8.738611-19.499996 19.499997-.0025 10.762319 8.734789 19.499996 19.499996 19.499996 10.764522 0 19.501399-8.73862 19.499997-19.499996.0024-10.76232-8.734786-19.499997-19.499997-19.499997zm0 5.571427c7.689451 0 13.930349 6.241188 13.92857 13.92857.001 7.686709-6.239613 13.928569-13.92857 13.928569-7.689446 0-13.930348-6.241188-13.928569-13.928569-.001-7.686717 6.239615-13.92857 13.928569-13.92857z" fill="#4caf50"/><path d="m66.599989 77.328879s25.621171-3.266064 29.902683 10.789627c2.872232 9.429211-3.688341 9.668991-4.702971 16.044554-1.014623 6.37559 6.371712 4.75638 6.371712 4.75638l-.705833 1.4168s-7.209879 1.26501-7.430454-5.56597c-.220578-6.830993 6.673618-9.921983 2.43864-16.651764-4.234976-6.729784-19.993841-2.784451-19.993841-2.784451z" opacity=".1"/><path d="m66.599989 75.471736s25.621171-3.266063 29.902683 10.789627c2.872232 9.429214-3.688341 9.668994-4.702971 16.044557-1.014623 6.37559 6.371712 4.75638 6.371712 4.75638l-.705833 1.4168s-7.209879 1.26501-7.430454-5.56597c-.220578-6.830993 6.673618-9.921983 2.43864-16.651767-4.234976-6.729783-19.993841-2.784451-19.993841-2.784451z" fill="#ba6c0f"/><path d="m74.214274 81.642947a10.214284 10.214284 0 1 1 -20.428568 0 10.214284 10.214284 0 1 1 20.428568 0z" fill="#383838"/><path d="m85.326839 56.574022c-3.83826.03523-6.622086.442303-8.856326 1.495137-2.978993 1.403773-4.867725 3.941267-6.852303 8.025038a.48449724.47199997 0 0 0 .138153.573346c2.290689 1.753607 4.431517 2.665438 6.437872 2.863053 2.006353.197626 3.859571-.33033 5.523851-1.371607 3.328547-2.082539 5.966357-6.160907 8.235629-10.832789a.48449724.47199997 0 0 0 -.418218-.6729c-1.532335-.06053-2.929224-.091-4.20865-.07928z" opacity=".2"/><path d="m85.326839 54.716879c-3.83826.03523-6.622086.442303-8.856326 1.495138-2.978993 1.403773-4.867725 3.941267-6.852303 8.025038a.48449724.47199997 0 0 0 .138153.573346c2.290689 1.753607 4.431517 2.665438 6.437872 2.863053 2.006353.197626 3.859571-.33033 5.523851-1.371608 3.328547-2.082538 5.966357-6.160907 8.235629-10.832789a.48449724.47199997 0 0 0 -.418218-.6729c-1.532335-.06052-2.929224-.091-4.20865-.07928z" fill="#eeeeec"/><path d="m77.136512 57.685812c-.345377 3.699985-.2002 5.32816 2.417045 7.42857-.181907-3.415302-.275834-5.071145-2.417045-7.42857z" fill="#263742"/><path d="m115.8997 55.392198a43.872851 10.020702 18.246416 1 1 -83.370833-27.355706 43.872851 10.020702 18.246416 1 1 83.370833 27.355706z" opacity=".1"/><path d="m115.8997 53.535055a43.872851 10.020702 18.246416 1 1 -83.370833-27.355706 43.872851 10.020702 18.246416 1 1 83.370833 27.355706z" fill="#d8d8d8"/><path d="m64.573087 13.857246c9.354474.311325 25.300005 3.017721 38.426893 11.308655l-6.722979 20.103724c-13.863666 1.189227-29.853834-4.559181-37.848439-11.602914z" opacity=".1"/><path d="m64.573087 12.000101c9.354474.311328 25.300005 3.017723 38.426893 11.308657l-6.722979 20.103724c-13.863666 1.189227-29.853834-4.55918-37.848439-11.602914z" fill="#d8d8d8"/><path d="m64.873116 12.014791c11.66955 9.150227 30.318125 12.856313 37.961654 11.785778l.1648-.492347c-12.992175-8.205852-28.735072-10.936314-38.126454-11.293431z" opacity=".2"/><path d="m23.254464 55.159093c-2.446687.776443-3.98087 1.509918-4.864834 2.330857-.441983.410467-.732502.867965-.802343 1.36601-.06984.498048.09674.984233.385937 1.396484.578386.824497 1.625029 1.481591 2.960542 2.142962 1.335513.661375 2.967257 1.300388 4.702335 1.934764l.365625-.990232c-1.720243-.628951-3.324612-1.259596-4.595695-1.88906-1.271083-.629463-2.204575-1.282487-2.569527-1.80273-.182475-.260122-.230154-.457249-.203125-.65.02703-.192762.14702-.43427.472265-.736325.65049-.604112 2.088653-1.341955 4.468743-2.097264z" fill="#4caf50"/><path d="m63.99999 87.214374a10.214284 10.214284 0 1 1 -20.428568 0 10.214284 10.214284 0 1 1 20.428568 0z" opacity=".1"/><path d="m63.99999 85.357232a10.214284 10.214284 0 1 1 -20.428568 0 10.214284 10.214284 0 1 1 20.428568 0z" fill="#c19d6a"/><path d="m84.428472 87.213353a10.214284 10.210942 0 1 1 -20.428566 0 10.214284 10.210942 0 1 1 20.428566 0z" opacity=".1"/><path d="m84.428472 85.35621a10.214284 10.210942 0 1 1 -20.428566 0 10.214284 10.210942 0 1 1 20.428566 0z" fill="#c19d6a"/><path d="m59.872628 27.152616-1.444066 4.655199c7.994605 7.043733 23.984149 12.796392 37.847815 11.607162l1.372373-4.110548c-4.050441.329392-13.990405-.956164-20.350048-2.738654-6.831174-1.914645-14.270977-5.973458-17.426074-9.413159z" opacity=".2"/><path d="m42.64285 43.571524c7.689449 0 13.930351 6.241188 13.92857 13.92857.001 7.686707-6.239615 13.928567-13.92857 13.928567-7.689444 0-13.930346-6.241186-13.928567-13.928567-.001-7.686717 6.239615-13.92857 13.928567-13.92857z" fill="#1b65cf" opacity=".3"/><path d="m37.101715 56.574022c3.83826.03523 6.622085.442303 8.856326 1.495137 2.978992 1.403773 4.867725 3.941267 6.852303 8.025038a.48449724.47199997 0 0 1 -.138153.573346c-2.290689 1.753607-4.431517 2.665438-6.437872 2.863053-2.006353.197626-3.859571-.33033-5.523851-1.371607-3.328548-2.082539-5.966357-6.160907-8.235629-10.832789a.48449724.47199997 0 0 1 .418217-.6729c1.532336-.06053 2.929225-.091 4.208651-.07928z" opacity=".2"/><path d="m37.101715 54.716879c3.83826.03523 6.622085.442303 8.856326 1.495138 2.978992 1.403773 4.867725 3.941267 6.852303 8.025038a.48449724.47199997 0 0 1 -.138153.573346c-2.290689 1.753607-4.431517 2.665438-6.437872 2.863053-2.006353.197626-3.859571-.33033-5.523851-1.371608-3.328548-2.082538-5.966357-6.160907-8.235629-10.832789a.48449724.47199997 0 0 1 .418217-.6729c1.532336-.06052 2.929225-.091 4.208651-.07928z" fill="#eeeeec"/><path d="m45.292042 57.685812c.345377 3.699985.2002 5.32816-2.417045 7.42857.181907-3.415302.275834-5.071145 2.417045-7.42857z" fill="#263742"/></g></svg>