<svg xmlns="http://www.w3.org/2000/svg" xmlns:xlink="http://www.w3.org/1999/xlink" version="1.0" viewBox="0 0 128 128">
 <defs>
  <linearGradient id="g">
   <stop offset="0" stop-color="#613583"/>
   <stop offset=".038" stop-color="#c061cb"/>
   <stop offset=".077" stop-color="#613583"/>
   <stop offset=".923" stop-color="#613583"/>
   <stop offset=".962" stop-color="#c061cb"/>
   <stop offset="1" stop-color="#613583"/>
  </linearGradient>
  <linearGradient id="f">
   <stop offset="0" stop-color="#f6f5f4"/>
   <stop offset="1" stop-color="#deddda"/>
  </linearGradient>
  <linearGradient id="d">
   <stop offset="0" stop-color="#3d3846"/>
   <stop offset=".351" stop-color="#9a9996"/>
   <stop offset=".602" stop-color="#77767b"/>
   <stop offset="1" stop-color="#3d3846"/>
  </linearGradient>
  <linearGradient id="h">
   <stop offset="0" stop-color="#c061cb"/>
   <stop offset="1" stop-color="#a347ba"/>
  </linearGradient>
  <linearGradient id="i">
   <stop offset="0" stop-color="#deddda"/>
   <stop offset="1" stop-color="#f6f5f4"/>
  </linearGradient>
  <linearGradient id="a">
   <stop offset="0" stop-color="#d5d3cf"/>
   <stop offset="1" stop-color="#f6f5f4"/>
  </linearGradient>
  <linearGradient id="b">
   <stop offset="0" stop-color="#d5d3cf"/>
   <stop offset="1" stop-color="#949390"/>
  </linearGradient>
  <linearGradient id="c">
   <stop offset="0" stop-color="#9a9996"/>
   <stop offset="1" stop-color="#77767b"/>
  </linearGradient>
  <linearGradient id="e">
   <stop offset="0" stop-color="#c0bfbc"/>
   <stop offset="1" stop-color="#5e5c64"/>
  </linearGradient>
  <linearGradient id="n" x1="60" x2="68" y1="199.856" y2="199.856" gradientTransform="matrix(.75 0 0 .7 -29 76)" gradientUnits="userSpaceOnUse" xlink:href="#d"/>
  <linearGradient id="m" x1="60" x2="68" y1="199.856" y2="199.856" gradientTransform="matrix(.75 0 0 .7 -29 109)" gradientUnits="userSpaceOnUse" xlink:href="#d"/>
  <linearGradient id="k" x1="51.952" x2="108" y1="209.311" y2="260" gradientTransform="matrix(1.02326 0 0 1.14286 -129.488 -28.571)" gradientUnits="userSpaceOnUse" xlink:href="#f"/>
  <linearGradient id="j" x1="48" x2="464" y1="204" y2="204" gradientTransform="matrix(.25 0 0 .25 0 225)" gradientUnits="userSpaceOnUse" xlink:href="#g"/>
  <radialGradient id="l" cx="-223" cy="64" r="24" fx="-223" fy="64" gradientTransform="matrix(1.55555 0 0 1.55555 126.389 -35.555)" gradientUnits="userSpaceOnUse" xlink:href="#h"/>
  <linearGradient id="o" x1="-254" x2="-206" y1="64" y2="64" gradientTransform="translate(-1)" gradientUnits="userSpaceOnUse" xlink:href="#i"/>
 </defs>
 <g transform="translate(0 -172)">
  <rect fill="url(#j)" width="104" height="84" x="12" y="204" rx="8" ry="8"/>
  <rect fill="#a347ba" width="104" height="96" x="12" y="184" rx="8" ry="8"/>
  <g>
   <rect opacity=".2" width="88" height="80" x="-108" y="194" rx="3" ry="3" transform="scale(-1 1)"/>
   <path fill="#3d3846" d="M16 244h6v14h-6zM16 210h6v15h-6z"/>
  </g>
  <rect fill="url(#k)" width="88" height="80" x="-108" y="192" rx="3" ry="3" transform="scale(-1 1)"/>
  <circle fill="#613583" cx="-233" cy="64" r="28" transform="rotate(-90)"/>
  <circle fill="url(#l)" cx="-231" cy="64" r="28" transform="rotate(-90)"/>
  <path fill="url(#m)" d="M19 241a3 1 0 0 0-3 1v14h6v-14a3 1 0 0 0-3-1z"/>
  <path fill="#3d3846" d="M19 255a3 1 0 0 0-3 1 3 1 0 0 0 3 1 3 1 0 0 0 1-.059V256h2a3 1 0 0 0-3-1zM19 247c-1.657 0-3 .448-3 1v2c0-.552 1.343-1 3-1s3 .448 3 1v-2c0-.552-1.343-1-3-1zm1.197 2.916l-.056.008.056-.008z"/>
  <path fill="url(#n)" d="M19 208a3 1 0 0 0-3 1v14h6v-14a3 1 0 0 0-3-1z"/>
  <path fill="#3d3846" d="M19 222a3 1 0 0 0-3 1 3 1 0 0 0 3 1 3 1 0 0 0 1-.059V223h2a3 1 0 0 0-3-1zM19 214c-1.657 0-3 .448-3 1v2c0-.552 1.343-1 3-1s3 .448 3 1v-2c0-.552-1.343-1-3-1zm1.197 2.916l-.056.008.056-.008z"/>
  <circle fill="url(#o)" cx="-231" cy="64" r="24" transform="rotate(-90)"/>
  <path fill="#3d3846" d="M68 215h-8v10h4v2l-4 2v18h8v-10l-4-2 4-2z"/>
 </g>
</svg>
