<svg fill="none" height="128" viewBox="0 0 128 128" width="128" xmlns="http://www.w3.org/2000/svg" xmlns:xlink="http://www.w3.org/1999/xlink"><linearGradient id="a" gradientUnits="userSpaceOnUse" x1="39.3657" x2="39.3657" y1="7.99995" y2="120.751"><stop offset="0" stop-color="#edece9"/><stop offset="1" stop-color="#fff"/></linearGradient><radialGradient id="b" cx="0" cy="0" gradientTransform="matrix(8.07233728 44.48319171 -79.28490327 14.38778235 55.8266 67.5168)" gradientUnits="userSpaceOnUse" r="1"><stop offset="0" stop-color="#dc8add"/><stop offset="1" stop-color="#813d9c"/></radialGradient><radialGradient id="c" cx="0" cy="0" gradientTransform="matrix(43.62049809 -43.62049809 .88388348 .88388348 96.035 107.956)" gradientUnits="userSpaceOnUse" r="1"><stop offset="0" stop-color="#d5d4cf"/><stop offset="1" stop-color="#f6f5f4"/></radialGradient><path d="m28.0078 8h71.9844c4.4378 0 8.0118 3.5703 8.0078 8.0078l-.094 80.0938-24.0193 24.0274h-55.7539c-4.4336 0-8-3.57-8.0078-8.008l-.125-96.1132c-.0078-4.4375 3.5703-8.0078 8.0078-8.0078z" fill="url(#a)"/><path d="m27.8672 16h72.0625v84.125l-14.25 11.875h-57.8125z" fill="url(#b)"/><g clip-rule="evenodd" fill-rule="evenodd"><path d="m94.5273 39.6992c-11.6953-1.4844-19.3359 1.0195-25.8789 4.418 6.6485-8.3672 14.9454-10.9844 25.8789-4.418z" fill="#12121c"/><path d="m30.5781 45.3789c11.1211-3.875 19.125-3.0117 26.2422-1.0469-8.2773-6.8007-16.9453-7.6406-26.2422 1.0469z" fill="#12121c"/><path d="m94.5273 41.3555c-11.6953-1.4844-19.3359 1.0195-25.8789 4.4179 6.6485-8.3672 14.9454-10.9843 25.8789-4.4179z" fill="#12121c"/><path d="m30.5781 47.0352c11.1211-3.875 19.125-3.0157 26.2422-1.0469-8.2773-6.8008-16.9453-7.6406-26.2422 1.0469z" fill="#12121c"/><path d="m99.9297 50.6094c-28.1524 14.3984-55 13.9101-72.3125 11.1172v13.6679c28.0469 20.3633 53.2461 10.9024 72.3125-5.2617z" fill="#c0bfbc"/><path d="m99.9297 50.6055c-2.4883 1.2734-4.9688 2.4218-7.4336 3.4726 1.0586 3.668 4.9766 16.2305 5.4336 17.6953.6719-.5429 1.3437-1.082 2-1.6406zm-9.1992 4.2148c-3.3594 1.3672-6.6875 2.5234-9.9649 3.5156-.2656 2.3828 3.7461 17.125 4.9961 21.6407 4.2656-2.3243 8.3125-5.1133 12.1406-8.1875-.7343-2.1875-4.8281-14.25-7.1718-16.9688zm-11.8633 4.0781c-3.836 1.0899-7.5977 1.9414-11.2695 2.5938-.0782 5.1367 1.789 20.2031 2.332 24.4726 5.5234-1.164 10.8047-3.2578 15.8047-5.9765-1.2735-4.418-5.4102-18.6446-6.8672-21.0899zm-8.9375 27.0664c-.5547-4.2851-2.6289-19.6484-4.375-24.1406-4.3867.6992-8.6289 1.1211-12.6914 1.3203-1.2813 3.8399-1.4063 18.9414-1.418 23.0469 6.4102 1.1992 12.582 1.0156 18.4844-.2266zm-18.4844.2266c-.0039-4.0547-.0664-18.5976-.668-22.957-4.039.125-7.875.0351-11.4882-.1953-1.375 3.0507-2.5547 13.3007-3.0274 17.7539 5.1836 2.7265 10.2539 4.4765 15.1836 5.3984zm-23.8281-24.4726v13.6757c2.8984 2.1094 5.7656 3.8907 8.6016 5.3828.3671-4.3984 1.1835-14.4921 1.246-17.875-3.539-.2812-6.8398-.6992-9.8476-1.1835z" fill="#fff"/></g><path d="m92 96c-4.4336 0-8 3.5664-8 8v16l24-24z" fill="url(#c)"/></svg>