<svg enable-background="new" height="128" viewBox="0 0 128 128" width="128" xmlns="http://www.w3.org/2000/svg" xmlns:xlink="http://www.w3.org/1999/xlink">
  <linearGradient id="b" gradientTransform="matrix(57.704454 0 0 44.262275 319.31273 -44.037636)" gradientUnits="userSpaceOnUse" x1="1.377" x2="-.638" y1="-.406" y2="1.344">
    <stop offset="0" stop-color="#f7a076"/>
    <stop offset=".4455" stop-color="#f3816c"/>
    <stop offset="1" stop-color="#f06878"/>
  </linearGradient>
  <linearGradient id="d" gradientTransform="matrix(42.236857 0 0 54.229078 292.63386 -81.868922)" gradientUnits="userSpaceOnUse" x1="1.233" x2="-.848" y1="-.515" y2="2.508">
    <stop offset="0" stop-color="#d5de26"/>
    <stop offset="1" stop-color="#c5d94b"/>
  </linearGradient>
  <linearGradient id="e" gradientTransform="matrix(60.674784 0 0 55.690597 249.0243 -81.682354)" gradientUnits="userSpaceOnUse" x1="1.489" x2="-.427" y1="-.589" y2="1.401">
    <stop offset="0" stop-color="#f2d200"/>
    <stop offset="1" stop-color="#fdef52"/>
  </linearGradient>
  <linearGradient id="f" gradientTransform="matrix(59.603216 0 0 45.29075 248.44569 -44.77549)" gradientUnits="userSpaceOnUse" x1="1.585" x2="-.366" y1="-1.471" y2=".207">
    <stop offset="0" stop-color="#ffcd10"/>
    <stop offset="1" stop-color="#f29634"/>
  </linearGradient>
  <linearGradient id="g" gradientTransform="matrix(60.709996 0 0 55.960719 248.98751 -18.025674)" gradientUnits="userSpaceOnUse" x1="1.952" x2=".037" y1="-1.28" y2=".718">
    <stop offset="0" stop-color="#f79f1c"/>
    <stop offset=".4455" stop-color="#f08021"/>
    <stop offset="1" stop-color="#ed693c"/>
  </linearGradient>
  <linearGradient id="h" gradientTransform="matrix(42.423948 0 0 54.50709 292.38213 -16.376009)" gradientUnits="userSpaceOnUse" x1="2.466" x2=".396" y1="-.866" y2="2.143">
    <stop offset="0" stop-color="#e47c26"/>
    <stop offset=".4455" stop-color="#df5b27"/>
    <stop offset="1" stop-color="#dd3a3a"/>
  </linearGradient>
  <linearGradient id="i" gradientTransform="matrix(58.884806 0 0 55.919728 317.6636 -18.024626)" gradientUnits="userSpaceOnUse" x1="1.438" x2="-.537" y1="-.731" y2="1.391">
    <stop offset="0" stop-color="#f3783c"/>
    <stop offset=".4455" stop-color="#ef5339"/>
    <stop offset="1" stop-color="#ed294a"/>
  </linearGradient>
  <linearGradient id="linearGradient1137" gradientTransform="matrix(58.884806 0 0 55.641197 317.66464 -81.631903)" gradientUnits="userSpaceOnUse" x1=".96" x2="-1.015" y1="-.038" y2="2.073">
    <stop offset="0" stop-color="#9dc63b"/>
    <stop offset="1" stop-color="#9bc183"/>
  </linearGradient>
  <g transform="matrix(.86666673 0 0 .86666673 9.533387 -142.40002)">
    <path d="m123.95898 62.830078a59.999999 59.999999 0 0 1 -59.95898 59.169922 59.999999 59.999999 0 0 1 -59.9589844-58.830078 59.999999 59.999999 0 0 0 -.0410156.830078 59.999999 59.999999 0 0 0 60 60 59.999999 59.999999 0 0 0 60-60 59.999999 59.999999 0 0 0 -.04102-1.169922z" fill="#322f24" opacity=".2" transform="matrix(1.1538461 0 0 1.1538461 -11.000061 164.3077)"/>
    <rect fill="#d5d3cf" height="131.538" rx="64.615" width="129.231" x="-1.77" y="171.23"/>
    <path d="m132.07686 235.84616a69.230763 69.230763 0 0 1 -69.23076 69.23076 69.230763 69.230763 0 0 1 -69.2307765-69.23076 69.230763 69.230763 0 0 1 69.2307765-69.23077 69.230763 69.230763 0 0 1 69.23076 69.23077z" fill="#f6f5f4"/>
    <path d="m369.38867-2.3222656a59.999999 59.999999 0 0 0 .66211-1.8164063 59.999999 59.999999 0 0 0 1.48438-5.8105469 59.999999 59.999999 0 0 0 .89648-5.9296872 59.999999 59.999999 0 0 0 .29883-5.990235 59.999999 59.999999 0 0 0 -.14844-4.24414 59.999999 59.999999 0 0 0 -.72265-5.953125 59.999999 59.999999 0 0 0 -1.31446-5.851563 59.999999 59.999999 0 0 0 -1.18554-3.570312c-19.98134 6.743646-50.04688 19.480469-50.04688 19.480469s30.05371 12.9169712 50.07617 19.6855464z" fill="url(#b)" transform="matrix(1.1538461 0 0 1.1538461 -297.996741 261.07978)"/>
    <path d="m366.93359-47.455078a59.999999 59.999999 0 0 0 -.73047-1.628906 59.999999 59.999999 0 0 0 -2.98437-5.203125 59.999999 59.999999 0 0 0 -3.48828-4.878907 59.999999 59.999999 0 0 0 -3.95703-4.505859 59.999999 59.999999 0 0 0 -4.38867-4.087891 59.999999 59.999999 0 0 0 -4.77539-3.628906 59.999999 59.999999 0 0 0 -5.11329-3.134766 59.999999 59.999999 0 0 0 -2.07031-1c-9.37824 18.899377-21.76172 49.533204-21.76172 49.533204s30.30973-12.089765 49.26953-21.464844z" fill="url(#linearGradient1137)" transform="matrix(1.1538461 0 0 1.1538461 -297.996741 261.07978)"/>
    <path d="m312.73047-81.869141a59.999999 59.999999 0 0 0 -4.24414.150391 59.999999 59.999999 0 0 0 -5.95313.722656 59.999999 59.999999 0 0 0 -5.85156 1.314453 59.999999 59.999999 0 0 0 -2.92969.972657c6.70799 20.002577 19.92969 51.068359 19.92969 51.068359s13.10149-30.400424 19.85938-50.423828a59.999999 59.999999 0 0 0 -3.07813-1.125 59.999999 59.999999 0 0 0 -5.81055-1.484375 59.999999 59.999999 0 0 0 -5.93164-.894531 59.999999 59.999999 0 0 0 -5.99023-.300782z" fill="url(#d)" transform="matrix(1.1538461 0 0 1.1538461 -297.996741 261.07978)"/>
    <path d="m287.73438-76.333984a59.999999 59.999999 0 0 0 -2.21876.992187 59.999999 59.999999 0 0 0 -5.20312 2.984375 59.999999 59.999999 0 0 0 -4.87695 3.488281 59.999999 59.999999 0 0 0 -4.50586 3.958985 59.999999 59.999999 0 0 0 -4.08789 4.388672 59.999999 59.999999 0 0 0 -3.63086 4.773437 59.999999 59.999999 0 0 0 -3.13477 5.113281 59.999999 59.999999 0 0 0 -1.14258 2.365235c18.76244 9.409832 50.76563 22.277343 50.76563 22.277343s-12.54017-31.493561-21.96484-50.341796z" fill="url(#e)" transform="matrix(1.1538461 0 0 1.1538461 -297.996741 261.07978)"/>
    <path d="m256.36523-42.214844a59.999999 59.999999 0 0 0 -.95312 2.615235 59.999999 59.999999 0 0 0 -1.48438 5.810547 59.999999 59.999999 0 0 0 -.89648 5.929687 59.999999 59.999999 0 0 0 -.30078 5.990234 59.999999 59.999999 0 0 0 .15039 4.244141 59.999999 59.999999 0 0 0 .72266 5.955078 59.999999 59.999999 0 0 0 1.31445 5.8515626 59.999999 59.999999 0 0 0 1.27539 3.8398438c19.81549-6.4723735 51.85547-20.0312504 51.85547-20.0312504s-31.74544-13.642341-51.6836-20.205078z" fill="url(#f)" transform="matrix(1.1538461 0 0 1.1538461 -297.996741 261.07978)"/>
    <path d="m258.72656 4.15625a59.999999 59.999999 0 0 0 .53321 1.1914062 59.999999 59.999999 0 0 0 2.98437 5.2011718 59.999999 59.999999 0 0 0 3.48828 4.878906 59.999999 59.999999 0 0 0 3.95703 4.50586 59.999999 59.999999 0 0 0 4.38867 4.08789 59.999999 59.999999 0 0 0 4.7754 3.628907 59.999999 59.999999 0 0 0 5.11328 3.134765 59.999999 59.999999 0 0 0 3.47851 1.681641c9.42362-18.760968 22.25196-50.492188 22.25196-50.492188s-32.18349 12.7481979-50.97071 22.181641z" fill="url(#g)" transform="matrix(1.1538461 0 0 1.1538461 -297.996741 261.07978)"/>
    <path d="m293.51758 34.910156a59.999999 59.999999 0 0 0 1.48242.541016 59.999999 59.999999 0 0 0 5.81055 1.484375 59.999999 59.999999 0 0 0 5.93164.896484 59.999999 59.999999 0 0 0 5.98828.298828 59.999999 59.999999 0 0 0 4.24609-.15039 59.999999 59.999999 0 0 0 5.95313-.722657 59.999999 59.999999 0 0 0 5.85156-1.3125 59.999999 59.999999 0 0 0 4.7168-1.568359c-6.74046-20.014802-19.81836-50.753906-19.81836-50.753906s-13.49635 31.294078-20.16211 51.287109z" fill="url(#h)" transform="matrix(1.1538461 0 0 1.1538461 -297.996741 261.07978)"/>
    <path d="m339.40625 31.845703a59.999999 59.999999 0 0 0 .54102-.242187 59.999999 59.999999 0 0 0 5.20312-2.984375 59.999999 59.999999 0 0 0 4.87695-3.488282 59.999999 59.999999 0 0 0 4.50586-3.958984 59.999999 59.999999 0 0 0 4.08789-4.388672 59.999999 59.999999 0 0 0 3.63086-4.773437 59.999999 59.999999 0 0 0 3.13477-5.1132816 59.999999 59.999999 0 0 0 1.54687-3.2050782c-18.81068-9.3666658-49.26953-21.7167972-49.26953-21.7167972s12.34097 30.972972 21.74219 49.871094z" fill="url(#i)" transform="matrix(1.1538461 0 0 1.1538461 -297.996741 261.07978)"/>
    <path d="m-6.3373463 237.19606a69.230765 69.230765 0 0 1 69.1834303-68.27298 69.230765 69.230765 0 0 1 69.183436 67.88086 69.230765 69.230765 0 0 0 .0473-.95779 69.230765 69.230765 0 0 0 -69.230766-69.23076 69.230765 69.230765 0 0 0 -69.2307603 69.23076 69.230765 69.230765 0 0 0 .0473 1.34991z" fill="#fff" opacity=".4"/>
  </g>
</svg>
