<svg fill="none" height="128" viewBox="0 0 128 128" width="128" xmlns="http://www.w3.org/2000/svg">
  <path d="m103 71c0 24.9118-18.1934 47-39.3077 47s-37.6923-22.0882-37.6923-47 23.251-55.6018 37.6923-59c15.5096 2.9085 39.3077 34.0882 39.3077 59z" fill="#000" opacity=".4"/>
  <path d="m102 70c0 24.9118-18.1934 47-39.3077 47s-37.6923-22.0882-37.6923-47 23.251-55.6018 37.6923-59c15.5096 2.9085 39.3077 34.0882 39.3077 59z" fill="#deddda"/>
  <g fill="#1a5fb4">
    <path d="m57.7608 116.452c-3.5947-.727-5.9329-1.533-8.9676-3.09l-1.8179-.932.5762-3.923c.3168-2.158.6064-3.953.6434-3.99.0797-.08 15.215 8.752 15.2196 8.881.0017.049-.8401.809-1.8709 1.689-2.0603 1.76-1.9771 1.73-3.7828 1.365z"/>
    <path d="m61.4164 116.848-1.4513-.082 1.8993-1.608 1.8993-1.608 1.411 1.215c.7761.669 1.5634 1.335 1.7496 1.48s.2984.304.2493.353c-.0491.05-.8612.128-1.8047.176-.9435.047-1.8923.102-2.1084.121-.216.019-1.0459-.002-1.8441-.047z"/>
    <path d="m65.8533 115.013c-.9507-.822-1.7437-1.541-1.7622-1.599-.0362-.112 13.1653-8.79 13.4808-8.862.2031-.045 3.171 6.599 3.0702 6.874-.0871.238-3.2704 2.005-4.8893 2.714-2.4134 1.057-6.9291 2.41-7.9353 2.376-.1297-.004-1.0136-.68-1.9642-1.503z"/>
  </g>
  <path d="m55.9999 108.699-7.6535-4.503.4252-.423c.2339-.232 3.531-3.104 7.3269-6.3811l6.9017-5.9585 7.274 6.3658 7.2739 6.3658-1.6047 1.048c-.8827.577-3.994 2.617-6.9142 4.533-2.9201 1.917-5.3243 3.478-5.3426 3.47s-3.4773-2.041-7.6867-4.517z" fill="#1c71d8"/>
  <path d="m45.3079 111.306c-4.0592-2.798-7.4757-6.213-10.4382-10.432-1.4371-2.0474-2.1522-3.1933-2.0537-3.2918.0878-.0878 14.7058 6.4468 14.9355 6.6768.0839.084-.0594 1.539-.3519 3.574-.5809 4.043-.6271 4.298-.7792 4.298-.0637 0-.6543-.371-1.3125-.825z" fill="#1a5fb4"/>
  <path d="m40.0582 100.454-7.7245-3.4866-.8607-1.65c-.4733-.9074-1.1265-2.2473-1.4515-2.9774l-.5909-1.3276 6.0325-12.0683c3.3179-6.6375 6.0682-12.0681 6.1119-12.0678.0892.0005 21.1195 24.1828 21.1641 24.3361.0407.1401-14.5083 12.6626-14.7532 12.6986-.1118.016-3.6793-1.539-7.9277-3.457z" fill="#3584e4"/>
  <path d="m28.5371 88.5999c-1.2392-3.4792-2.2103-7.5257-2.7623-11.5102-.3297-2.3806-.4763-9.0003-.2471-11.1566.2254-2.12.6548-4.7839.8122-5.0385.0911-.1475 1.9808.5351 7.4042 2.6748 4.0049 1.58 7.3394 2.9256 7.41 2.99.1297.1186-11.6688 23.8869-11.8573 23.8869-.0561 0-.398-.8309-.7597-1.8464z" fill="#1c71d8"/>
  <path d="m52.4039 78.8448-10.6-12.2046 11.0426-.0404c6.0734-.0222 16.0302-.0222 22.1262 0l11.0835.0404-10.1636 10.7638c-5.5899 5.9201-10.7767 11.4121-11.5261 12.2046l-1.3626 1.4408z" fill="#3584e4"/>
  <path d="m70.5483 97.668c-3.9651-3.4698-7.2092-6.3692-7.2092-6.4431 0-.1652 22.8318-24.3491 22.9875-24.349.1135.0001 10.7967 18.9838 10.7967 19.1853 0 .0798-14.5524 13.5468-19.0325 17.6128l-.3334.303z" fill="#1c71d8"/>
  <path d="m79.4377 107.7-1.5003-3.489 9.2652-8.5325c5.0959-4.693 9.29-8.5081 9.3202-8.4779.0867.0867-12.331 21.6694-12.638 21.9654-.3635.351-2.7153 2.022-2.8453 2.022-.0558 0-.7766-1.57-1.6018-3.488z" fill="#1c71d8"/>
  <path d="m84.9715 108.065c.0288-.075 2.8101-4.947 6.1807-10.8262l6.1283-10.6889.2128 2.1318c.2566 2.5703.277 2.4893-1.4311 5.6707-2.4268 4.5201-5.2187 8.2816-8.734 11.7686-1.8579 1.842-2.5288 2.396-2.3567 1.944z" fill="#1a5fb4"/>
  <path d="m97.6963 88.2385-.1921-2.0506 1.7345-2.774c.9543-1.5256 1.7343-2.6712 1.7333-2.5456-.006 1.0658-2.6914 9.4208-3.0285 9.4208-.0303 0-.1416-.9228-.2472-2.0506z" fill="#1a5fb4"/>
  <path d="m97.7232 84.8679c3.0608-17.6533 3.8038-21.8902 3.8328-21.8618.019.019.153.9152.299 1.9915.481 3.5565.335 8.9704-.356 13.1921-.238 1.4489-.287 1.5598-1.6707 3.7712-.7842 1.2532-1.5971 2.526-1.8063 2.8285l-.3805.5499z" fill="#1a5fb4"/>
  <path d="m91.9578 76.1908c-3.4504-6.1638-5.2606-9.5466-5.1462-9.6173.2914-.1801 14.3394-3.972 14.4194-3.8921.06.06-3.8424 22.9187-3.9257 22.9949-.0137.0125-2.42-4.256-5.3475-9.4855z" fill="#1c71d8"/>
  <path d="m86.6738 66.1253c0-.1453 6.8873-21.4313 6.9567-21.5008.0264-.0263 1.7595 3.921 3.8515 8.7718 2.0919 4.8509 3.778 8.845 3.747 8.8759-.053.0536-14.3458 3.9751-14.4874 3.9751-.0373 0-.0678-.0549-.0678-.122z" fill="#3584e4"/>
  <path d="m97.3875 52.5077c-1.917-4.443-3.4855-8.1466-3.4855-8.2303s.1702-.1949.3783-.2471c.208-.0522.4914-.1383.6296-.1914.1961-.0752.41.2444.9719 1.4528 2.2162 4.7663 3.8581 9.3686 4.6122 12.9284.264 1.2458.457 2.2877.429 2.3154-.027.0277-1.6184-3.5849-3.5355-8.0278z" fill="#1a5fb4"/>
  <path d="m52.3216 55.9914c5.7806-5.7241 10.5647-10.4288 10.6313-10.455.1017-.0398 19.0981 17.1121 22.0966 19.9511l.9685.9169-22.1032-.0028-22.1033-.0028z" fill="#62a0ea"/>
  <path d="m74.8371 55.8298c-6.2913-5.7181-11.3814-10.4148-11.3112-10.4372.1827-.0582 29.8017-1.1425 29.8515-1.0928.0399.0399-6.9852 21.8101-7.0632 21.888-.0211.0212-5.1858-4.64-11.4771-10.358z" fill="#99c1f1"/>
  <path d="m63.4177 44.9602c0-.0909 12.3684-17.368 12.4664-17.4139.0387-.0181 3.9769 3.6794 8.7516 8.2167l8.6813 8.2496-13.2605.499c-13.1925.4965-16.6388.5894-16.6388.4486z" fill="#99c1f1"/>
  <path d="m61.7662 43.3421c-4.5204-6.1592-9.1528-12.7551-10.427-14.8467l-.6461-1.0606h12.4213c9.8962 0 12.3969.0399 12.3014.1964-.0849.1391-12.1332 17.0291-12.3841 17.3608-.0152.0201-.5847-.7223-1.2655-1.6499z" fill="#99c1f1"/>
  <path d="m41.5016 65.9075c-.1526-.4284-5.1113-21.3044-5.1109-21.517.0001-.1214 3.1605-3.9626 7.0229-8.5359 6.0893-7.21 7.0446-8.2766 7.1886-8.025.9959 1.7406 6.2622 9.2937 10.4487 14.9859l1.7776 2.4171-10.135 10.0293c-5.5743 5.5162-10.356 10.2153-10.626 10.4425-.3598.3027-.5111.357-.5659.2031z" fill="#62a0ea"/>
  <path d="m33.6999 63.298c-6.8397-2.7204-7.3195-2.9361-7.2282-3.2498.1077-.3707 9.4779-15.3216 9.6051-15.3258.0437-.0015 1.2066 4.7173 2.5844 10.4861 1.3777 5.7689 2.5347 10.6126 2.571 10.7638.0363.1513.0047.267-.0702.2573s-3.4328-1.3289-7.4621-2.9316z" fill="#3584e4"/>
  <path d="m26.805 58.6059c0-.3887 1.14-4.2526 1.8484-6.2651 1.6357-4.647 4.1632-10.0989 6.6658-14.3779.9313-1.5925 1.1592-1.8904 1.2042-1.5742.0305.2145-.0649 2.0521-.212 4.0836l-.2676 3.6936-4.4879 7.1516c-4.6241 7.3685-4.7509 7.563-4.7509 7.2884z" fill="#1a5fb4"/>
  <path d="m36.3993 42.9869c.005-.3866.131-2.2938.28-4.2383l.271-3.5356 1.1577-1.7285c.6368-.9507 1.6453-2.4054 2.2413-3.2328l1.0835-1.5044 4.2707-.6473c2.3489-.356 4.2934-.6247 4.3211-.597.0456.0456-12.6408 15.1464-13.3383 15.8767-.2919.3057-.2959.3003-.287-.3928z" fill="#62a0ea"/>
  <path d="m42.4689 27.4117c.8073-1.0302 3.0932-3.6949 4.4858-5.2292l.845-.931 1.22 2.8766c.671 1.5822 1.1621 2.9262 1.0914 2.9867-.1165.0998-7.7033 1.2716-8.1922 1.2654-.1137-.0015.1338-.4373.55-.9685z" fill="#62a0ea"/>
  <path d="m51.244 26.8316c.1705-.1589 2.0777-1.7399 4.2383-3.5133 2.1607-1.7734 4.7035-3.8708 5.6507-4.6609.9473-.79 1.8425-1.4365 1.9893-1.4365.2144 0 10.8387 8.5062 11.9976 9.6056.303.2874.0342.294-11.9379.294-11.897 0-12.239-.0083-11.938-.2889z" fill="#99c1f1"/>
  <path d="m86.6673 37.3273c-3.492-3.3234-7.2046-6.8559-8.2504-7.8497-1.0457-.9939-1.8434-1.8306-1.7726-1.8593.0707-.0286 2.2802.3883 4.9099.9266l4.7812.9788 1.2467 1.7447c2.726 3.8148 2.7553 3.8705 4.1964 7.9728.7377 2.1 1.318 3.8882 1.2895 3.9736-.0284.0854-2.9088-2.564-6.4007-5.8875z" fill="#62a0ea"/>
  <path d="m93.689 43.8136c-.1904-.308-2.3128-6.52-2.2493-6.5835.1076-.1076 3.5623 5.9719 3.5623 6.2689 0 .0477-.1703.1294-.3783.1816-.208.0523-.4837.1355-.6126.1849-.129.0495-.2739.0261-.3221-.0519z" fill="#1a5fb4"/>
  <path d="m80.7265 28.1327-4.7688-.9985-1.5991-1.3033c-9.9477-8.1065-10.4517-8.5338-10.1888-8.6382.1481-.0587 2.5229-.1118 5.2772-.1179l5.008-.011 1.5905 1.3749c2.8348 2.4507 6.2549 6.0462 8.9473 9.4063.4924.6145.8953 1.1625.8953 1.2178 0 .15-.0229.1459-5.1616-.9301z" fill="#99c1f1"/>
  <path d="m50.305 26.4639c-.1215-.287-.6847-1.6118-1.2516-2.944-.8463-1.9887-.996-2.4645-.8365-2.659.1069-.1303 1.0345-1.0026 2.0614-1.9385l1.8671-1.7015 5.1255.0064 5.1254.0064-.55.4749c-.97.8376-10.688 8.8343-11.01 9.0598-.2845.1993-.3289.1738-.5313-.3045z" fill="#99c1f1"/>
  <path d="m53.2433 16.3712c2.6254-2.1474 6.6916-4.4676 8.8571-5.0537l.9952-.2694 1.5745.4991c1.9993.6338 4.8015 2.0351 6.9186 3.4598 2.7976 1.8826 2.8713 1.6779-.6485 1.7998-1.6743.0579-4.9534.1011-7.2868.0961-2.3335-.0051-5.8337.0395-7.7782.0991l-3.5356.1084z" fill="#99c1f1"/>
</svg>
