<svg enable-background="new" height="128" viewBox="0 0 128 128" width="128" xmlns="http://www.w3.org/2000/svg" xmlns:xlink="http://www.w3.org/1999/xlink">
  <linearGradient id="linearGradient1053" gradientUnits="userSpaceOnUse" x1="108.000001" x2="116.000001" y1="79" y2="79">
    <stop offset="0" stop-color="#e8e7e4"/>
    <stop offset=".511" stop-color="#fff"/>
    <stop offset="1" stop-color="#c2bfba"/>
  </linearGradient>
  <path d="m12 32v84h96c4.432 0 8-3.568 8-8v-68c0-4.432-3.568-8-8-8z" fill="#1a5fb4"/>
  <path d="m14.000001 44v70h93.999999c4.432 0 8-3.568 8-8v-54c0-4.432-3.568-8-8-8z" fill="url(#linearGradient1053)"/>
  <path d="m12 14v94h96c4.432 0 8-3.568 8-8v-78c0-4.432-3.568-8-8-8z" fill="#1a5fb4"/>
  <path d="m12 12v94h96c4.432 0 8-3.568 8-8v-78c0-4.432-3.568-8-8-8z" fill="#1c71d8"/>
  <g fill="none" stroke-width="1.76471" transform="matrix(1.1333333 0 0 1.1333333 -5.896462 -8.369664)">
    <path d="m30.699231 23h6.261052m.894438 0h5.813834m.935853 0h5.187729m.85302 0h2.236088m.894437 0h5.008842m.98388 0h13.148209m.894441 0h10.017684m.894436 0h3.041082m-57.065025 5h9.70804m1.129462 0h4.638723m.85751 0h2.289126m.931362 0h4.272945m.894439 0h4.382114m.827201 0h6.880954m.894441 0h9.077596m-46.783913 4.97337h8.216874m.863183 0h13.532462m.829388 0h6.562951m.84118 0h6.139562m.880455 0h5.230022m.841183 0 8.225504.05326m-52.162764 4.97337h11.424571m.897126 0h12.34781m.853021 0h4.85227m.894438 0h11.5493m.77734 0h7.915842m.89444 0h3.132991m.894438 0h1.732989m-58.166576 5h4.26449m1.310208 0h15.790156m-21.364854 27h9.70804m1.129462 0h4.638723m.85751 0h2.289126m.931362 0h4.272945m.894439 0h4.382114m.827201 0h6.880954m-36.811876 10.91819h8.216874m.863183 0h13.532462m.829388 0h6.562951m23.192052.16362h13.404628m-66.601538-16.08181h11.424571m.897126 0h12.34781m.853021 0h4.85227m.894438 0h11.5493m-42.818536-11h6.261052m.894438 0h5.813834m.935853 0h5.187729m.85302 0h2.236088m.894437 0h5.008842m.98388 0h13.148209m.894441 0h10.017684m-53.129507 6h10.544418m.829422 0h11.196841m.853021 0h4.378342m.826736 0h10.533738m.845044 0h11.504156m-51.511718 26h9.853568m1.057734 0h4.344169m1.017501 0h2.166749m.689724 0h4.277289m.567845 0h22.644829m1.065528 0h6.044828m.812792 0h1.526282m-44.843224 6h3.21427m-14.439884 0h10.284685m4.977259 0h7.478552m.791095 0h10.978052m.85302 0h7.447382m.74968 0h1.534646m.839123 0h9.456877m.96682 0h4.951147m-50.082724 5h4.538384m-15.763998 0h10.284685m6.462851 0h6.380506" opacity=".4" stroke="#99c1f1"/>
    <path d="m30.699231 32.97337h8.216874m48.216713 5.02663h1.732989m-58.166576 32h9.70804m-9.70804-16h6.261052m17.16265 6h4.378342m-4.270453 32h10.978052" stroke="#ff7800"/>
    <path d="m53.775682 23h5.008842m9.621024 5h9.077596m-16.852991 42h6.880954m6.299947-16h10.017684" stroke="#f9f06b"/>
    <path d="m30.699231 23h6.261052m25.008184 15h11.5493m-23.264313 32h4.272945m7.442068-5h11.5493m-35.663046-11h5.813834m-1.74371 43h4.538384" stroke="#2ec27e"/>
  </g>
  <path d="m12 12h8v94h-8z" fill="#3d3846"/>
  <path d="m12 106v10h8v-2h-6v-6h6v-2z" fill="#241f31"/>
  <path d="m15 106v-94" fill="none" opacity=".15" stroke="#fff" stroke-width="2"/>
  <g transform="matrix(.99836972 0 0 .9854542 -.996867 -170.23967)">
    <path d="m40.160156 205.0957v60h22.496094v-10h-12.496094v-40h12.505859v-10zm32.568359 0v10h2.3691406c8.3964862 0 15.0625 6.6233446 15.0625 15v10c0 8.3766554-6.6660138 15-15.0625 15h-2.3691406v10h2.3691406c13.763514 0 25.0625-11.216655 25.0625-25v-10c0-13.783345-11.298986-25-25.0625-25z" fill="#241f31" opacity=".3"/>
    <path d="m39.060547 31.195312v60h22.496094v-10h-12.496094v-40h12.505859v-10zm32.566406 0v10h2.3671875c8.3964862 0 15.066406 6.6233446 15.066406 15v10c0 8.3766554-6.6699201 15-15.066406 15h-2.3671875v10h2.3671875c13.763514 0 25.066406-11.216655 25.066406-25v-10c-.00000001-13.783345-11.302892-25-25.066406-25z" fill="#fff" transform="translate(0 172)"/>
  </g>
</svg>
