<?xml version="1.0" encoding="UTF-8" standalone="no"?>
<svg
   xmlns:dc="http://purl.org/dc/elements/1.1/"
   xmlns:cc="http://creativecommons.org/ns#"
   xmlns:rdf="http://www.w3.org/1999/02/22-rdf-syntax-ns#"
   xmlns:svg="http://www.w3.org/2000/svg"
   xmlns="http://www.w3.org/2000/svg"
   xmlns:xlink="http://www.w3.org/1999/xlink"
   xmlns:sodipodi="http://sodipodi.sourceforge.net/DTD/sodipodi-0.dtd"
   xmlns:inkscape="http://www.inkscape.org/namespaces/inkscape"
   width="128"
   height="128"
   version="1.0"
   id="svg105"
   sodipodi:docname="org.gnome.Sysprof.svg"
   inkscape:version="0.92.3 (2405546, 2018-03-11)">
  <metadata
     id="metadata109">
    <rdf:RDF>
      <cc:Work
         rdf:about="">
        <dc:format>image/svg+xml</dc:format>
        <dc:type
           rdf:resource="http://purl.org/dc/dcmitype/StillImage" />
        <dc:title />
      </cc:Work>
    </rdf:RDF>
  </metadata>
  <sodipodi:namedview
     pagecolor="#ffffff"
     bordercolor="#666666"
     borderopacity="1"
     objecttolerance="10"
     gridtolerance="10"
     guidetolerance="10"
     inkscape:pageopacity="0"
     inkscape:pageshadow="2"
     inkscape:window-width="1920"
     inkscape:window-height="1009"
     id="namedview107"
     showgrid="false"
     inkscape:zoom="7.4553571"
     inkscape:cx="37.508982"
     inkscape:cy="22.443113"
     inkscape:window-x="0"
     inkscape:window-y="34"
     inkscape:window-maximized="1"
     inkscape:current-layer="g103" />
  <defs
     id="defs79">
    <linearGradient
       id="g">
      <stop
         offset="0"
         stop-color="#77767b"
         id="stop2" />
      <stop
         offset=".089"
         stop-color="#9a9996"
         id="stop4" />
      <stop
         offset=".4"
         stop-color="#deddda"
         id="stop6" />
      <stop
         offset=".8"
         stop-color="#a9a8a9"
         id="stop8" />
      <stop
         offset="1"
         stop-color="#77767b"
         id="stop10" />
    </linearGradient>
    <linearGradient
       id="h">
      <stop
         offset="0"
         stop-color="#fff"
         id="stop13"
         style="stop-color:#2c92fc;stop-opacity:1" />
      <stop
         offset="1"
         stop-color="#f6f5f4"
         id="stop15"
         style="stop-color:#234ef3;stop-opacity:1" />
    </linearGradient>
    <linearGradient
       id="a">
      <stop
         offset="0"
         stop-color="#f6f5f4"
         stop-opacity=".437"
         id="stop18" />
      <stop
         offset="1"
         stop-color="#deddda"
         stop-opacity="0"
         id="stop20" />
    </linearGradient>
    <linearGradient
       id="b">
      <stop
         offset="0"
         stop-color="#7a8599"
         id="stop23" />
      <stop
         offset="1"
         stop-color="#a4acb7"
         id="stop25" />
    </linearGradient>
    <linearGradient
       id="n"
       x1="30"
       x2="98"
       y1="250"
       y2="250"
       gradientTransform="matrix(1.11765,0,0,1.11765,178.47,-343.412)"
       gradientUnits="userSpaceOnUse"
       xlink:href="#h" />
    <radialGradient
       id="m"
       cx="64"
       cy="247.702"
       r="46"
       fx="64"
       fy="247.702"
       gradientUnits="userSpaceOnUse"
       xlink:href="#c" />
    <linearGradient
       id="c">
      <stop
         offset="0"
         stop-color="#5e5c64"
         id="stop30" />
      <stop
         offset=".739"
         stop-color="#c0bfbc"
         id="stop32" />
      <stop
         offset=".896"
         stop-color="#deddda"
         id="stop34" />
      <stop
         offset="1"
         stop-color="#77767b"
         id="stop36" />
    </linearGradient>
    <linearGradient
       id="l"
       x1="58"
       x2="70"
       y1="189"
       y2="189"
       gradientUnits="userSpaceOnUse"
       xlink:href="#d" />
    <linearGradient
       id="d">
      <stop
         offset="0"
         stop-color="#77767b"
         id="stop40" />
      <stop
         offset=".075"
         stop-color="#9a9996"
         id="stop42" />
      <stop
         offset=".445"
         stop-color="#deddda"
         id="stop44" />
      <stop
         offset=".834"
         stop-color="#b9b8b8"
         id="stop46" />
      <stop
         offset="1"
         stop-color="#77767b"
         id="stop48" />
    </linearGradient>
    <linearGradient
       id="k"
       x1="60"
       x2="68"
       y1="199.856"
       y2="199.856"
       gradientUnits="userSpaceOnUse"
       xlink:href="#e" />
    <linearGradient
       id="e">
      <stop
         offset="0"
         stop-color="#9a9996"
         id="stop52" />
      <stop
         offset=".119"
         stop-color="#c0bfbc"
         id="stop54" />
      <stop
         offset=".351"
         stop-color="#deddda"
         id="stop56" />
      <stop
         offset=".602"
         stop-color="#d2d1ce"
         id="stop58" />
      <stop
         offset=".853"
         stop-color="#bbbab7"
         id="stop60" />
      <stop
         offset="1"
         stop-color="#9a9996"
         id="stop62" />
    </linearGradient>
    <radialGradient
       id="j"
       cx="63.679"
       cy="186.801"
       r="16"
       fx="63.679"
       fy="186.801"
       gradientUnits="userSpaceOnUse"
       xlink:href="#f"
       gradientTransform="translate(90.033898,-46.644068)" />
    <linearGradient
       id="f">
      <stop
         offset="0"
         stop-color="#77767b"
         id="stop66" />
      <stop
         offset=".729"
         stop-color="#77767b"
         id="stop68" />
      <stop
         offset=".81"
         stop-color="#abaaa9"
         id="stop70" />
      <stop
         offset=".9"
         stop-color="#c0bfbc"
         id="stop72" />
      <stop
         offset="1"
         stop-color="#77767b"
         id="stop74" />
    </linearGradient>
    <linearGradient
       id="i"
       x1="58"
       x2="70"
       y1="189"
       y2="189"
       gradientTransform="matrix(0.75525347,0.35218048,-0.63392739,1.3594617,236.99983,-133.01004)"
       gradientUnits="userSpaceOnUse"
       xlink:href="#g" />
    <linearGradient
       id="o"
       x1="14.747642"
       x2="-31.44244"
       y1="244.62692"
       y2="276.60892"
       gradientUnits="userSpaceOnUse"
       xlink:href="#h"
       gradientTransform="translate(-112.08805,7.5869817)" />
  </defs>
  <g
     transform="translate(0 -172)"
     id="g103">
    <path
       d="M60 190h8v20h-8z"
       id="path87"
       fill="url(#k)" />
    <path
       d="M58 184h12v10H58z"
       id="path89"
       fill="url(#l)" />
    <circle
       cx="64"
       cy="250"
       r="46"
       id="circle91"
       fill="url(#m)" />
    <circle
       cx="250"
       cy="-64"
       r="38"
       transform="rotate(90)"
       id="circle93"
       fill="url(#n)"
       style="fill-opacity:1;fill:#0074ee" />
    <path
       d="M63 217l-.744 27.201c-2.636.692-4.254 3.074-4.256 5.799a6 6 0 0 0 3.844 5.592l-.217 3.902a2.374 2.374 0 1 0 4.746 0l-.217-3.896A6 6 0 0 0 70 250c-.003-2.725-1.709-5.105-4.344-5.797L65 217zm1 29a4 4 0 1 1 0 8 4 4 0 0 1 0-8z"
       id="path97"
       style="fill:#f2f2f2;fill-opacity:1"
       fill="#414045" />
    <path
       d="M60 194h8v2h-8zM62 184v8h-2v-8zM66 184v8h-2v-8zM70 184v8h-2v-8z"
       id="path99"
       opacity=".2" />
    <path
       style="fill-opacity:1;fill:#fcfcfc;opacity:0.3"
       d="M 64 40 A 38 38 0 0 0 26 78 A 38 38 0 0 0 26.041016 79.167969 A 38 38 0 0 1 64 42 A 38 38 0 0 1 101.95898 78.832031 A 38 38 0 0 0 102 78 A 38 38 0 0 0 64 40 z "
       transform="translate(0,172)"
       id="circle876" />
    <path
       style="fill-opacity:1;fill:#000000;opacity:0.2"
       d="M 101.95898 76.832031 A 38 38 0 0 1 64 114 A 38 38 0 0 1 26.041016 77.167969 A 38 38 0 0 0 26 78 A 38 38 0 0 0 64 116 A 38 38 0 0 0 102 78 A 38 38 0 0 0 101.95898 76.832031 z "
       transform="translate(0,172)"
       id="circle885" />
  </g>
</svg>
