<svg xmlns="http://www.w3.org/2000/svg" width="128" height="128" style="enable-background:new" version="1.0" viewBox="0 0 128 128">
 <title>
  Adwaita Icon Template
 </title>
 <defs>
  <linearGradient id="linearGradient1053" x1="384" x2="416" y1="120" y2="120" gradientTransform="matrix(.25 0 0 .25 12.000001 49)" gradientUnits="userSpaceOnUse">
   <stop style="stop-color:#e8e7e4" offset="0"/>
   <stop style="stop-color:#ffffff" offset=".511"/>
   <stop style="stop-color:#c2bfba" offset="1"/>
  </linearGradient>
 </defs>
 <path d="m12 32v84h96c4.432 0 8-3.568 8-8v-68c0-4.432-3.568-8-8-8z" style="fill:#1a5fb4"/>
 <path d="m14.000001 44v70h93.999999c4.432 0 8-3.568 8-8v-54c0-4.432-3.568-8-8-8z" style="fill:url(#linearGradient1053)"/>
 <path d="m12 14v94h96c4.432 0 8-3.568 8-8v-78c0-4.432-3.568-8-8-8z" style="fill:#1a5fb4"/>
 <path d="m12 12v94h96c4.432 0 8-3.568 8-8v-78c0-4.432-3.568-8-8-8z" style="fill:#1c71d8"/>
 <g transform="matrix(1.1333333 0 0 1.1333333 -5.8964618 -8.3696644)">
  <path d="m30.699231 23h6.261052m0.894438 0h5.813834m0.935853 0h5.187729m0.85302 0h2.236088m0.894437 0h5.008842m0.98388 0h13.148209m0.894441 0h10.017684m0.894436 0h3.041082m-57.065025 5h9.70804m1.129462 0h4.638723m0.85751 0h2.289126m0.931362 0h4.272945m0.894439 0h4.382114m0.827201 0h6.880954m0.894441 0h9.077596m-46.783913 4.97337h8.216874m0.863183 0h13.532462m0.829388 0h6.562951m0.84118 0h6.139562m0.880455 0h5.230022m0.841183 0 8.225504 0.05326m-52.162764 4.97337h11.424571m0.897126 0h12.34781m0.853021 0h4.85227m0.894438 0h11.5493m0.77734 0h7.915842m0.89444 0h3.132991m0.894438 0h1.732989m-58.166576 5h4.26449m1.310208 0h15.790156m-21.364854 27h9.70804m1.129462 0h4.638723m0.85751 0h2.289126m0.931362 0h4.272945m0.894439 0h4.382114m0.827201 0h6.880954m-36.811876 10.91819h8.216874m0.863183 0h13.532462m0.829388 0h6.562951m23.192052 0.16362h13.404628m-66.601538-16.08181h11.424571m0.897126 0h12.34781m0.853021 0h4.85227m0.894438 0h11.5493m-42.818536-11h6.261052m0.894438 0h5.813834m0.935853 0h5.187729m0.85302 0h2.236088m0.894437 0h5.008842m0.98388 0h13.148209m0.894441 0h10.017684m-53.129507 6h10.544418m0.829422 0h11.196841m0.853021 0h4.378342m0.826736 0h10.533738m0.845044 0h11.504156m-51.511718 26h9.853568m1.057734 0h4.344169m1.017501 0h2.166749m0.689724 0h4.277289m0.567845 0h22.644829m1.065528 0h6.044828m0.812792 0h1.526282m-44.843224 6h3.21427m-14.439884 0h10.284685m4.977259 0h7.478552m0.791095 0h10.978052m0.85302 0h7.447382m0.74968 0h1.534646m0.839123 0h9.456877m0.96682 0h4.951147m-50.082724 5h4.538384m-15.763998 0h10.284685m6.462851 0h6.380506" style="fill:none;opacity:.4;stroke-width:1.76471;stroke:#99c1f1"/>
  <path d="m30.699231 32.97337h8.216874m48.216713 5.02663h1.732989m-58.166576 32h9.70804m-9.70804-16h6.261052m17.16265 6h4.378342m-4.270453 32h10.978052" style="fill:none;stroke-width:1.76471;stroke:#ff7800"/>
  <path d="m53.775682 23h5.008842m9.621024 5h9.077596m-16.852991 42h6.880954m6.299947-16h10.017684" style="fill:none;stroke-width:1.76471;stroke:#f9f06b"/>
  <path d="m30.699231 23h6.261052m25.008184 15h11.5493m-23.264313 32h4.272945m7.442068-5h11.5493m-35.663046-11h5.813834m-1.74371 43h4.538384" style="fill:none;stroke-width:1.76471;stroke:#2ec27e"/>
 </g>
 <rect width="8" height="94" x="12" y="12" style="fill:#3d3846"/>
 <path d="m12 106v10h8v-2h-6v-6h6v-2z" style="fill:#241f31"/>
 <path d="m15 106v-94" style="fill:none;opacity:.15;stroke-width:2;stroke:#ffffff"/>
 <g transform="matrix(.99836972 0 0 .9854542 -.99686735 -170.23967)">
  <path d="m40.160156 205.0957v60h22.496094v-10h-12.496094v-40h12.505859v-10zm32.568359 0v10h2.3691406c8.3964862 0 15.0625 6.6233446 15.0625 15v10c0 8.3766554-6.6660138 15-15.0625 15h-2.3691406v10h2.3691406c13.763514 0 25.0625-11.216655 25.0625-25v-10c0-13.783345-11.298986-25-25.0625-25z" style="fill:#241f31;font-variation-settings:normal;inline-size:0;opacity:.3;stop-color:#000000"/>
  <path d="m39.060547 31.195312v60h22.496094v-10h-12.496094v-40h12.505859v-10zm32.566406 0v10h2.3671875c8.3964862 0 15.066406 6.6233446 15.066406 15v10c0 8.3766554-6.6699201 15-15.066406 15h-2.3671875v10h2.3671875c13.763514 0 25.066406-11.216655 25.066406-25v-10c-1e-8 -13.783345-11.302892-25-25.066406-25z" transform="translate(0,172)" style="fill:#ffffff;font-variation-settings:normal;inline-size:0;stop-color:#000000"/>
 </g>
</svg>
