<svg height="128" width="128" xmlns="http://www.w3.org/2000/svg" xmlns:xlink="http://www.w3.org/1999/xlink">
  <linearGradient id="e" gradientTransform="matrix(1.0015 0 0 .99993 72.09 56.015)" gradientUnits="userSpaceOnUse" x1="43.844" x2="-60" y1="234" y2="234">
    <stop offset="0" stop-color="#d5d3cf"/>
    <stop offset=".038" stop-color="#e3e2df"/>
    <stop offset=".077" stop-color="#c0bfbc"/>
    <stop offset=".923" stop-color="#c0bfbc"/>
    <stop offset=".962" stop-color="#e3e2df"/>
    <stop offset="1" stop-color="#d5d3cf"/>
  </linearGradient>
  <g transform="translate(0 -172)">
    <rect fill="url(#e)" height="48" rx="8" width="104" x="12" y="240"/>
    <g>
      <rect fill="url(#e)" height="48" rx="8" width="104" x="12" y="240"/>
      <path d="m20 10c-4.432 0-8 3.568-8 8v42 42c0 4.432 3.568 8 8 8h44 44c4.432 0 8-3.568 8-8v-42-42c0-4.432-3.568-8-8-8z" fill="#bcecec" transform="translate(0 172)"/>
      <g fill="#41abe7" transform="matrix(.25022215 0 0 .25022215 -101.03296175156 182.1096968779)">
        <path d="m689.65183 43.359879c-33.51559 0-62.65707 16.160368-79.22647 40.323545-9.01908-4.150384-19.00195-6.970366-29.89531-6.970366-36.56603 0-67.1981 26.604632-67.1981 60.438482 0 3.85306.83609 7.21622 1.61575 10.5297-23.46098 15.73368-39.23857 40.77506-39.23857 69.50855 0 48.68089 43.97559 87.12571 97.29635 87.12571h50.05709v-14.17491h-50.05709c-46.75315 0-83.30878-32.96982-83.30878-72.9508 0-24.99646 14.12265-47.12443 36.30368-60.38384l4.72236-2.82561-1.57672-5.31559c-1.136-3.84125-1.8265-7.68606-1.8265-11.51321 0-25.07169 23.25597-46.263578 53.21053-46.263578 10.66486 0 20.53691 2.770554 28.82595 7.438702l5.94784 3.372006 3.46567-5.95565c12.99914-22.307917 39.71924-38.208241 70.88232-38.208233 44.49626 0 79.5387 31.647719 79.5387 69.617823 0 4.41865-.39916 8.62422-1.25669 12.68404v.008l-1.35037 6.43959 6.22884 1.84211c33.3075 9.86352 56.58254 37.14704 56.58254 69.06363 0 34.27074-26.84753 63.25603-64.01343 70.91355l-3.19248.65567v14.37004l4.76139-.92105c43.39205-8.45953 76.43209-42.87912 76.43209-85.01821 0-36.95709-25.70988-67.77815-61.14098-80.51439.44581-3.10015.93666-6.19442.93666-9.52279 0-46.729733-42.41651-83.792727-93.52627-83.792731zm-77.28289 47.489054.12489.07025c-.021.03499-.0493.06645-.0702.101474-.0392-.02137-.0856-.03335-.12489-.05464zm163.46413 49.838527.0859.0234-.0156.0624c-.0248-.008-.0455-.0237-.0702-.0312.004-.0176-.003-.037 0-.0546zm-254.45359 9.57742c.007.0247.00074.0533.008.0781-.0258.0157-.0445.0389-.0702.0546l-.0234-.0859z"/>
        <path d="m651.04102 116.13281c-14.28753 0-25.97657 11.68904-25.97657 25.97657v187.32226c0 14.28752 11.68904 25.97656 25.97657 25.97656h83.17382c14.28752 0 25.97657-11.68904 25.97657-25.97656v-187.32226c0-14.28753-11.68905-25.97657-25.97657-25.97657zm0 11.99024h83.17382c7.85281 0 13.98828 6.13352 13.98828 13.98633v187.32226c0 7.85281-6.13547 13.98633-13.98828 13.98633h-83.17382c-7.85281 0-13.98829-6.13352-13.98829-13.98633v-187.32226c0-7.85281 6.13548-13.98633 13.98829-13.98633z" fill-opacity=".982843"/>
        <path d="m70 56.5a1.50015 1.50015 0 1 0 0 3h10a1.50015 1.50015 0 1 0 0-3zm-5 15a1.50015 1.50015 0 1 0 0 3h15a1.50015 1.50015 0 1 0 0-3zm0 10a1.50015 1.50015 0 1 0 0 3h15a1.50015 1.50015 0 1 0 0-3zm0 10a1.50015 1.50015 0 1 0 0 3h15a1.50015 1.50015 0 1 0 0-3z" transform="matrix(3.9964488 0 0 3.9964488 403.77305 -65.949238)"/>
      </g>
    </g>
  </g>
</svg>
