<?xml version="1.0" encoding="UTF-8" standalone="no"?>
<svg
   xmlns:dc="http://purl.org/dc/elements/1.1/"
   xmlns:cc="http://creativecommons.org/ns#"
   xmlns:rdf="http://www.w3.org/1999/02/22-rdf-syntax-ns#"
   xmlns:svg="http://www.w3.org/2000/svg"
   xmlns="http://www.w3.org/2000/svg"
   xmlns:xlink="http://www.w3.org/1999/xlink"
   xmlns:sodipodi="http://sodipodi.sourceforge.net/DTD/sodipodi-0.dtd"
   xmlns:inkscape="http://www.inkscape.org/namespaces/inkscape"
   width="128"
   height="128"
   version="1.0"
   viewBox="0 0 128 128"
   style="enable-background:new"
   id="svg56"
   sodipodi:docname="com.github.alainm23.planner.svg"
   inkscape:version="0.92.3 (2405546, 2018-03-11)">
  <metadata
     id="metadata60">
    <rdf:RDF>
      <cc:Work
         rdf:about="">
        <dc:format>image/svg+xml</dc:format>
        <dc:type
           rdf:resource="http://purl.org/dc/dcmitype/StillImage" />
        <dc:title>
  Adwaita Icon Template
 </dc:title>
      </cc:Work>
    </rdf:RDF>
  </metadata>
  <sodipodi:namedview
     pagecolor="#ffffff"
     bordercolor="#666666"
     borderopacity="1"
     objecttolerance="10"
     gridtolerance="10"
     guidetolerance="10"
     inkscape:pageopacity="0"
     inkscape:pageshadow="2"
     inkscape:window-width="1920"
     inkscape:window-height="1009"
     id="namedview58"
     showgrid="false"
     inkscape:zoom="6.5234375"
     inkscape:cx="33.724551"
     inkscape:cy="64"
     inkscape:window-x="0"
     inkscape:window-y="34"
     inkscape:window-maximized="1"
     inkscape:current-layer="svg56" />
  <title
     id="title4162">
  Adwaita Icon Template
 </title>
  <defs
     id="defs25">
    <linearGradient
       id="linearGradient950">
      <stop
         id="stop946"
         offset="0"
         style="stop-color:#9a9996" />
      <stop
         id="stop948"
         offset="1"
         style="stop-color:#77767b" />
    </linearGradient>
    <linearGradient
       id="linearGradient1001"
       x1="1660.857"
       x2="1662.99"
       y1="806.297"
       y2="812.882"
       gradientTransform="matrix(1.8293937,-0.81599442,0.81599442,1.8293937,-3645.9624,100.02949)"
       gradientUnits="userSpaceOnUse"
       xlink:href="#linearGradient950" />
    <clipPath
       id="clipPath5154"
       clipPathUnits="userSpaceOnUse">
      <circle
         style="fill:url(#radialGradient5158)"
         cx="128"
         cy="924.362"
         r="109.647"
         id="circle7" />
    </clipPath>
    <clipPath
       id="clipPath977"
       clipPathUnits="userSpaceOnUse">
      <circle
         style="fill:url(#radialGradient5158)"
         cx="128"
         cy="924.362"
         r="109.647"
         id="circle10" />
    </clipPath>
    <clipPath
       id="clipPath4688"
       clipPathUnits="userSpaceOnUse">
      <path
         style="fill:url(#radialGradient4692);stroke:#a7003f;stroke-linecap:round;stroke-linejoin:round"
         d="m 106.42383,889.60156 c -2.2448,-0.0524 -4.09304,1.75264 -4.09375,3.99805 v 32.64453 32.64453 c -4e-5,3.07923 3.33305,5.004 6,3.46485 l 28.26953,-16.32227 28.27148,-16.32227 c 2.66559,-1.54001 2.66559,-5.38772 0,-6.92773 l -28.27148,-16.32227 -28.26953,-16.32226 c -0.58054,-0.3353 -1.23603,-0.51932 -1.90625,-0.53516 z"
         id="path13" />
    </clipPath>
    <clipPath
       id="clipPath4564"
       clipPathUnits="userSpaceOnUse">
      <circle
         cx="128"
         cy="924.362"
         r="109.647"
         style="fill:url(#radialGradient4568)"
         id="circle16" />
    </clipPath>
    <clipPath
       id="clipPath6215"
       clipPathUnits="userSpaceOnUse">
      <path
         style="fill:url(#radialGradient6219)"
         d="m 105.17325,806.18572 c -3.06859,0.56361 -6.11393,1.24721 -9.129005,2.04923 -3.838255,1.06506 -7.62084,2.32142 -11.333578,3.76438 -3.712189,1.44307 -7.34989,3.07087 -10.899472,4.87732 -3.549153,1.80656 -7.005749,3.78947 -10.35684,5.94129 -3.351877,2.15253 -6.593991,4.47137 -9.714191,6.94783 -3.119992,2.47544 -6.114241,5.10535 -8.971529,7.87988 -0.367219,0.38909 -0.731819,0.78065 -1.093777,1.17464 2.60205,17.85956 16.832359,40.03752 30.863064,55.74236 -4.76734,8.84435 -7.265993,18.73329 -7.272057,28.78068 0.02104,2.87431 0.246096,5.7435 0.673482,8.58593 -20.257302,-9.18513 -43.077023,-26.53494 -52.798465,-47.36396 -0.440667,1.15171 -0.863474,2.31018 -1.268271,3.47498 -1.176789,3.80495 -2.162562,7.66637 -2.953625,11.56979 -0.79154,3.90311 -1.3874065,7.84335 -1.7853678,11.80598 -0.39733,3.96334 -0.5961891,7.94407 -0.5958321,11.92728 -4.394e-4,2.81936 0.098928,5.63785 0.2979155,8.45018 0.282275,3.97319 0.763088,7.92978 1.4406374,11.85493 0.625626,3.51826 1.408798,7.00668 2.347153,10.45473 16.778133,6.68355 43.114514,5.45001 63.748015,1.14301 6.818545,11.02763 16.987182,19.58379 29.018153,24.41667 -18.071844,12.93645 -44.490188,24.02095 -67.37308,22.03245 1.384097,1.665 2.813203,3.2921 4.285735,4.8794 2.774977,2.8571 5.691103,5.5737 8.737453,8.1395 3.046107,2.5658 6.218619,4.9777 9.505651,7.2266 3.287242,2.2488 6.684891,4.3319 10.180217,6.2413 3.495379,1.9096 7.084075,3.6433 10.752641,5.1944 3.66896,1.5509 7.413193,2.9174 11.218668,4.0942 1.438565,0.3959 2.884421,0.7648 4.336807,1.1066 14.138748,-11.1844 26.206378,-34.5828 32.780368,-54.56406 12.95816,-0.38251 25.45395,-4.90132 35.65955,-12.89544 2.15922,22.12638 -1.46693,50.5581 -14.64692,69.3832 3.06859,-0.5636 6.11393,-1.2473 9.129,-2.0493 3.83826,-1.0651 7.62084,-2.3214 11.33358,-3.7644 3.71219,-1.4431 7.34989,-3.0709 10.89947,-4.8773 3.54915,-1.8066 7.00575,-3.7895 10.35684,-5.9413 3.35188,-2.1525 6.59399,-4.4714 9.71419,-6.9478 3.11999,-2.4754 6.11424,-5.1054 8.97153,-7.8799 0.36722,-0.3891 0.73182,-0.7806 1.09378,-1.1746 -2.60204,-17.85957 -16.83236,-40.03755 -30.86307,-55.74238 4.76735,-8.84435 7.266,-18.7333 7.27207,-28.78069 -0.021,-2.8743 -0.24611,-5.74349 -0.6735,-8.58592 20.25731,9.18513 43.07704,26.53494 52.79848,47.36396 0.44067,-1.15171 0.86347,-2.31018 1.26827,-3.47499 1.17679,-3.80495 2.16256,-7.66636 2.95362,-11.56978 0.79154,-3.90311 1.38741,-7.84335 1.78537,-11.80598 0.39733,-3.96334 0.59619,-7.94408 0.59583,-11.92729 4.4e-4,-2.81936 -0.0989,-5.63784 -0.29791,-8.45017 -0.28228,-3.97319 -0.76309,-7.92978 -1.44064,-11.85493 -0.62776,-3.53416 -1.41449,-7.03823 -2.35779,-10.50154 -20.56165,-7.32804 -45.89823,-4.79548 -63.74906,-1.11372 -6.81835,-11.01918 -16.98234,-19.56874 -29.00647,-24.39915 18.07184,-12.93645 44.49019,-24.02091 67.37307,-22.03241 -1.38409,-1.66502 -2.8132,-3.2921 -4.28573,-4.87944 -2.77498,-2.85712 -5.6911,-5.57368 -8.73745,-8.13949 -3.04611,-2.56581 -6.21862,-4.97769 -9.50565,-7.22659 -3.28724,-2.24885 -6.68489,-4.3319 -10.18022,-6.24135 -3.49538,-1.90963 -7.08407,-3.64325 -10.75264,-5.19438 -3.66896,-1.55092 -7.41319,-2.91736 -11.21867,-4.09421 -1.42662,-0.39262 -2.86041,-0.75869 -4.30063,-1.09804 -14.14688,11.18369 -26.2293,34.57475 -32.8107,54.55552 -12.96018,0.38127 -25.4582,4.90015 -35.665394,12.89544 -2.15922,-22.12637 1.466931,-50.55807 14.646924,-69.38315 z"
         id="path19" />
    </clipPath>
    <linearGradient
       id="_lgradient_78"
       x1="0"
       x2="0"
       y1="0"
       y2="1"
       gradientTransform="matrix(117.16873,0,0,110.27645,69.41563,62.390233)"
       gradientUnits="userSpaceOnUse">
      <stop
         style="stop-color:#1fd1b0"
         id="stop51"
         offset="0%" />
      <stop
         style="stop-color:#00ffaa"
         id="stop53"
         offset="100%" />
    </linearGradient>
    <linearGradient
       gradientTransform="matrix(3.5015185,0,0,3.5015185,31.431597,-8.4384671)"
       spreadMethod="reflect"
       gradientUnits="userSpaceOnUse"
       xlink:href="#linearGradient4698"
       id="linearGradient4696"
       y2="78.886131"
       x2="115.336"
       y1="78.886131"
       x1="63.984127" />
    <linearGradient
       id="linearGradient4698">
      <stop
         offset="0"
         style="stop-color:#b1f258;stop-opacity:1"
         id="stop4700" />
      <stop
         offset="1"
         style="stop-color:#c7f587;stop-opacity:0.27450982"
         id="stop4702" />
    </linearGradient>
    <linearGradient
       gradientTransform="matrix(2.3829779,0,0,2.3829779,103.1684,76.041005)"
       spreadMethod="reflect"
       gradientUnits="userSpaceOnUse"
       xlink:href="#linearGradient4698"
       id="linearGradient4704"
       y2="75.747101"
       x2="120.5055"
       y1="75.747101"
       x1="63.913647" />
    <linearGradient
       spreadMethod="reflect"
       gradientUnits="userSpaceOnUse"
       xlink:href="#linearGradient4698"
       id="linearGradient4741"
       y2="110.64021"
       x2="63.5"
       y1="64"
       x1="63.5" />
    <radialGradient
       gradientTransform="matrix(1,0,0,1.3743285,0,-24.272542)"
       gradientUnits="userSpaceOnUse"
       xlink:href="#linearGradient3567"
       id="radialGradient3573"
       fy="59.5"
       fx="64"
       r="3"
       cy="59.5"
       cx="64" />
    <linearGradient
       id="linearGradient3567">
      <stop
         offset="0"
         style="stop-color:#b2f259;stop-opacity:0.48854962"
         id="stop3569" />
      <stop
         offset="1"
         style="stop-color:#acea55;stop-opacity:0"
         id="stop3571" />
    </linearGradient>
    <radialGradient
       gradientTransform="matrix(1,0,0,1.3743285,0,-30.272542)"
       gradientUnits="userSpaceOnUse"
       xlink:href="#linearGradient3567"
       id="radialGradient3577"
       fy="59.5"
       fx="64"
       r="3"
       cy="59.5"
       cx="64" />
    <radialGradient
       gradientTransform="matrix(1,0,0,1.3743285,0,-36.272542)"
       gradientUnits="userSpaceOnUse"
       xlink:href="#linearGradient3567"
       id="radialGradient3581"
       fy="59.5"
       fx="64"
       r="3"
       cy="59.5"
       cx="64" />
    <radialGradient
       gradientTransform="matrix(1,0,0,1.3743285,0,-48.272542)"
       gradientUnits="userSpaceOnUse"
       xlink:href="#linearGradient3567"
       id="radialGradient3585"
       fy="59.5"
       fx="64"
       r="3"
       cy="59.5"
       cx="64" />
    <radialGradient
       gradientTransform="matrix(1,0,0,1.3743285,0,-11.272542)"
       gradientUnits="userSpaceOnUse"
       xlink:href="#linearGradient3567"
       id="radialGradient3589"
       fy="59.5"
       fx="64"
       r="3"
       cy="59.5"
       cx="64" />
    <radialGradient
       gradientTransform="matrix(1,0,0,1.3743285,0,-5.272542)"
       gradientUnits="userSpaceOnUse"
       xlink:href="#linearGradient3567"
       id="radialGradient3593"
       fy="59.5"
       fx="64"
       r="3"
       cy="59.5"
       cx="64" />
    <radialGradient
       gradientTransform="matrix(1,0,0,1.3743285,0,0.727458)"
       gradientUnits="userSpaceOnUse"
       xlink:href="#linearGradient3567"
       id="radialGradient3597"
       fy="59.5"
       fx="64"
       r="3"
       cy="59.5"
       cx="64" />
    <radialGradient
       gradientTransform="matrix(1,0,0,1.3743285,0,12.727458)"
       gradientUnits="userSpaceOnUse"
       xlink:href="#linearGradient3567"
       id="radialGradient3601"
       fy="59.5"
       fx="64"
       r="3"
       cy="59.5"
       cx="64" />
    <radialGradient
       gradientTransform="matrix(1,0,0,1.3743285,30.5,-145.77254)"
       gradientUnits="userSpaceOnUse"
       xlink:href="#linearGradient3567"
       id="radialGradient4652"
       fy="59.5"
       fx="64"
       r="3"
       cy="59.5"
       cx="64" />
    <radialGradient
       gradientTransform="matrix(1,0,0,1.3743285,18.5,-145.77254)"
       gradientUnits="userSpaceOnUse"
       xlink:href="#linearGradient3567"
       id="radialGradient4656"
       fy="59.5"
       fx="64"
       r="3"
       cy="59.5"
       cx="64" />
    <radialGradient
       gradientTransform="matrix(1,0,0,1.3743285,12.5,-145.77254)"
       gradientUnits="userSpaceOnUse"
       xlink:href="#linearGradient3567"
       id="radialGradient4660"
       fy="59.5"
       fx="64"
       r="3"
       cy="59.5"
       cx="64" />
    <radialGradient
       gradientTransform="matrix(1,0,0,1.3743285,6.5,-145.77254)"
       gradientUnits="userSpaceOnUse"
       xlink:href="#linearGradient3567"
       id="radialGradient4664"
       fy="59.5"
       fx="64"
       r="3"
       cy="59.5"
       cx="64" />
    <radialGradient
       gradientTransform="matrix(1,0,0,1.3743285,-6.5,-145.77254)"
       gradientUnits="userSpaceOnUse"
       xlink:href="#linearGradient3567"
       id="radialGradient4668"
       fy="59.5"
       fx="64"
       r="3"
       cy="59.5"
       cx="64" />
    <radialGradient
       gradientTransform="matrix(1,0,0,1.3743285,-12.5,-145.77254)"
       gradientUnits="userSpaceOnUse"
       xlink:href="#linearGradient3567"
       id="radialGradient4672"
       fy="59.5"
       fx="64"
       r="3"
       cy="59.5"
       cx="64" />
    <radialGradient
       gradientTransform="matrix(1,0,0,1.3743285,-18.5,-145.77254)"
       gradientUnits="userSpaceOnUse"
       xlink:href="#linearGradient3567"
       id="radialGradient4676"
       fy="59.5"
       fx="64"
       r="3"
       cy="59.5"
       cx="64" />
    <radialGradient
       gradientTransform="matrix(1,0,0,1.3743285,-30.5,-145.77254)"
       gradientUnits="userSpaceOnUse"
       xlink:href="#linearGradient3567"
       id="radialGradient4680"
       fy="59.5"
       fx="64"
       r="3"
       cy="59.5"
       cx="64" />
    <radialGradient
       gradientTransform="matrix(6.3305477,0,0,6.3305477,-158.80019,-194.70483)"
       gradientUnits="userSpaceOnUse"
       xlink:href="#linearGradient3677"
       id="radialGradient3675"
       fy="81.275986"
       fx="76.207619"
       r="2.7484715"
       cy="81.275986"
       cx="76.207619" />
    <linearGradient
       id="linearGradient3677">
      <stop
         offset="0"
         style="stop-color:#f3ff5f;stop-opacity:1"
         id="stop3679" />
      <stop
         offset="0.41935483"
         style="stop-color:#8fe018;stop-opacity:0.2890625"
         id="stop3687" />
      <stop
         offset="0.7096774"
         style="stop-color:#88d120;stop-opacity:0.09160306"
         id="stop4706" />
      <stop
         offset="1"
         style="stop-color:#81bb30;stop-opacity:0"
         id="stop3681" />
    </linearGradient>
    <radialGradient
       gradientTransform="matrix(8.4407305,0,0,8.4407305,-420.22078,-399.07759)"
       gradientUnits="userSpaceOnUse"
       xlink:href="#linearGradient3677"
       id="radialGradient3685"
       fy="81.275986"
       fx="76.207619"
       r="2.7484715"
       cy="81.275986"
       cx="76.207619" />
    <linearGradient
       gradientTransform="matrix(-4.2750216,-1.4343103,1.4343103,-4.2750216,419.1679,670.31881)"
       gradientUnits="userSpaceOnUse"
       xlink:href="#linearGradient4755"
       id="linearGradient3699"
       y2="84.09185"
       x2="77.019699"
       y1="105.39568"
       x1="64.451485" />
    <linearGradient
       id="linearGradient4755">
      <stop
         offset="0"
         style="stop-color:#b7f067;stop-opacity:0.82442749"
         id="stop4757" />
      <stop
         offset="1"
         style="stop-color:#94d041;stop-opacity:0"
         id="stop4761" />
    </linearGradient>
    <radialGradient
       gradientTransform="matrix(10.549741,0,0,10.549741,-547.97166,-698.97971)"
       gradientUnits="userSpaceOnUse"
       xlink:href="#linearGradient3701"
       id="radialGradient3709"
       fy="81.275986"
       fx="76.207619"
       r="2.7484715"
       cy="81.275986"
       cx="76.207619" />
    <linearGradient
       id="linearGradient3701">
      <stop
         offset="0"
         style="stop-color:#b7f067;stop-opacity:0.82442749"
         id="stop3703" />
      <stop
         offset="0.5"
         style="stop-color:#97d93b;stop-opacity:0.27480915"
         id="stop4708" />
      <stop
         offset="1"
         style="stop-color:#94d041;stop-opacity:0"
         id="stop3705" />
    </linearGradient>
    <filter
       id="filter3737"
       height="1.6137941"
       width="1.2546898"
       y="-0.30689704"
       x="-0.12734491"
       style="color-interpolation-filters:sRGB">
      <feGaussianBlur
         stdDeviation="0.75639026"
         id="feGaussianBlur3739" />
    </filter>
    <linearGradient
       gradientTransform="matrix(-4.2750216,-1.4343103,1.4343103,-4.2750216,419.1679,670.31881)"
       gradientUnits="userSpaceOnUse"
       xlink:href="#linearGradient3729"
       id="linearGradient4765"
       y2="93.954872"
       x2="71.128105"
       y1="100.28912"
       x1="56.166229" />
    <linearGradient
       id="linearGradient3729">
      <stop
         offset="0"
         style="stop-color:#f3ffb1;stop-opacity:1"
         id="stop3731" />
      <stop
         offset="1"
         style="stop-color:#eaff7f;stop-opacity:0"
         id="stop3733" />
    </linearGradient>
    <linearGradient
       gradientTransform="matrix(-4.2750216,-1.4343103,1.4343103,-4.2750216,419.1679,670.31881)"
       gradientUnits="userSpaceOnUse"
       xlink:href="#linearGradient3729"
       id="linearGradient3735"
       y2="95.151703"
       x2="63.643311"
       y1="95.349014"
       x1="48.638611" />
    <linearGradient
       gradientTransform="matrix(5.6190476,0,0,5.6190476,-14.241087,-1.9315122)"
       gradientUnits="userSpaceOnUse"
       xlink:href="#linearGradient4727"
       id="linearGradient4733"
       y2="48"
       x2="48"
       y1="35"
       x1="59" />
    <linearGradient
       id="linearGradient4727">
      <stop
         offset="0"
         style="stop-color:#c8fc7d;stop-opacity:1"
         id="stop4729" />
      <stop
         offset="1"
         style="stop-color:#c8fc7d;stop-opacity:0"
         id="stop4731" />
    </linearGradient>
    <radialGradient
       gradientTransform="matrix(0,3.0918892,-3.0673667,0,457.85985,57.722911)"
       gradientUnits="userSpaceOnUse"
       xlink:href="#linearGradient4705"
       id="radialGradient4711"
       fy="65.809189"
       fx="64.134277"
       r="51.055847"
       cy="65.809189"
       cx="64.134277" />
    <linearGradient
       id="linearGradient4705">
      <stop
         offset="0"
         style="stop-color:#000000;stop-opacity:0"
         id="stop4707" />
      <stop
         offset="0.89365935"
         style="stop-color:#000000;stop-opacity:0"
         id="stop4713" />
      <stop
         offset="1"
         style="stop-color:#000000;stop-opacity:1"
         id="stop4709" />
    </linearGradient>
    <radialGradient
       gradientTransform="matrix(0.6876737,0,0,0.6772167,7.4153633,7.543666)"
       gradientUnits="userSpaceOnUse"
       xlink:href="#linearGradient3276"
       id="radialGradient5077"
       fy="22.180895"
       fx="22.72254"
       r="3.742358"
       cy="22.180895"
       cx="22.72254" />
    <linearGradient
       id="linearGradient3276">
      <stop
         offset="0"
         style="stop-color:#ffffff;stop-opacity:1"
         id="stop3278" />
      <stop
         offset="1"
         style="stop-color:#a5a5a5;stop-opacity:1"
         id="stop3280" />
    </linearGradient>
    <linearGradient
       gradientUnits="userSpaceOnUse"
       xlink:href="#linearGradient3276"
       id="linearGradient5015"
       y2="21.091696"
       x2="19.766102"
       y1="21.091696"
       x1="27.734058" />
    <linearGradient
       gradientUnits="userSpaceOnUse"
       xlink:href="#linearGradient3410"
       id="linearGradient5017"
       y2="23.370684"
       x2="26.162327"
       y1="23.370684"
       x1="19.999998" />
    <linearGradient
       id="linearGradient3410">
      <stop
         offset="0"
         style="stop-color:#000000;stop-opacity:0.67175573"
         id="stop3412" />
      <stop
         offset="1"
         style="stop-color:#000000;stop-opacity:0"
         id="stop3414" />
    </linearGradient>
    <linearGradient
       gradientUnits="userSpaceOnUse"
       xlink:href="#linearGradient3199"
       id="linearGradient5019"
       y2="23.370684"
       x2="28.484715"
       y1="23.370684"
       x1="18.999998" />
    <linearGradient
       id="linearGradient3199">
      <stop
         offset="0"
         style="stop-color:#6d6d6d;stop-opacity:1"
         id="stop3201" />
      <stop
         offset="1"
         style="stop-color:#ffffff;stop-opacity:1"
         id="stop3203" />
    </linearGradient>
    <radialGradient
       gradientTransform="matrix(0.6876737,0,0,0.6772167,7.4153633,7.543666)"
       gradientUnits="userSpaceOnUse"
       xlink:href="#linearGradient3276"
       id="radialGradient5069"
       fy="22.180895"
       fx="22.72254"
       r="3.742358"
       cy="22.180895"
       cx="22.72254" />
    <radialGradient
       gradientTransform="matrix(0.6876737,0,0,0.6772167,7.4153633,7.543666)"
       gradientUnits="userSpaceOnUse"
       xlink:href="#linearGradient3276"
       id="radialGradient5045"
       fy="22.180895"
       fx="22.72254"
       r="3.742358"
       cy="22.180895"
       cx="22.72254" />
    <radialGradient
       gradientTransform="matrix(0.6876737,0,0,0.6772167,7.4153633,7.543666)"
       gradientUnits="userSpaceOnUse"
       xlink:href="#linearGradient3276"
       id="radialGradient5013"
       fy="22.180895"
       fx="22.72254"
       r="3.742358"
       cy="22.180895"
       cx="22.72254" />
    <linearGradient
       spreadMethod="reflect"
       gradientUnits="userSpaceOnUse"
       xlink:href="#linearGradient4698"
       id="linearGradient4749"
       y2="19.08498"
       x2="63.5"
       y1="64"
       x1="63.5" />
    <radialGradient
       gradientTransform="matrix(1,0,0,1.3743285,0,-24.272542)"
       gradientUnits="userSpaceOnUse"
       xlink:href="#linearGradient3567"
       id="radialGradient3634"
       fy="59.5"
       fx="64"
       r="3"
       cy="59.5"
       cx="64" />
    <radialGradient
       gradientTransform="matrix(1,0,0,1.3743285,0,-30.272542)"
       gradientUnits="userSpaceOnUse"
       xlink:href="#linearGradient3567"
       id="radialGradient3636"
       fy="59.5"
       fx="64"
       r="3"
       cy="59.5"
       cx="64" />
    <radialGradient
       gradientTransform="matrix(1,0,0,1.3743285,0,-36.272542)"
       gradientUnits="userSpaceOnUse"
       xlink:href="#linearGradient3567"
       id="radialGradient3638"
       fy="59.5"
       fx="64"
       r="3"
       cy="59.5"
       cx="64" />
    <radialGradient
       gradientTransform="matrix(1,0,0,1.3743285,0,-48.272542)"
       gradientUnits="userSpaceOnUse"
       xlink:href="#linearGradient3567"
       id="radialGradient3640"
       fy="59.5"
       fx="64"
       r="3"
       cy="59.5"
       cx="64" />
    <radialGradient
       gradientTransform="matrix(1,0,0,1.3743285,0,-11.272542)"
       gradientUnits="userSpaceOnUse"
       xlink:href="#linearGradient3567"
       id="radialGradient3642"
       fy="59.5"
       fx="64"
       r="3"
       cy="59.5"
       cx="64" />
    <radialGradient
       gradientTransform="matrix(1,0,0,1.3743285,0,-5.272542)"
       gradientUnits="userSpaceOnUse"
       xlink:href="#linearGradient3567"
       id="radialGradient3644"
       fy="59.5"
       fx="64"
       r="3"
       cy="59.5"
       cx="64" />
    <radialGradient
       gradientTransform="matrix(1,0,0,1.3743285,0,0.727458)"
       gradientUnits="userSpaceOnUse"
       xlink:href="#linearGradient3567"
       id="radialGradient3646"
       fy="59.5"
       fx="64"
       r="3"
       cy="59.5"
       cx="64" />
    <radialGradient
       gradientTransform="matrix(1,0,0,1.3743285,0,12.727458)"
       gradientUnits="userSpaceOnUse"
       xlink:href="#linearGradient3567"
       id="radialGradient3648"
       fy="59.5"
       fx="64"
       r="3"
       cy="59.5"
       cx="64" />
    <radialGradient
       gradientTransform="matrix(1,0,0,1.3743285,30.5,-145.77254)"
       gradientUnits="userSpaceOnUse"
       xlink:href="#linearGradient3567"
       id="radialGradient4620"
       fy="59.5"
       fx="64"
       r="3"
       cy="59.5"
       cx="64" />
    <radialGradient
       gradientTransform="matrix(1,0,0,1.3743285,18.5,-145.77254)"
       gradientUnits="userSpaceOnUse"
       xlink:href="#linearGradient3567"
       id="radialGradient4624"
       fy="59.5"
       fx="64"
       r="3"
       cy="59.5"
       cx="64" />
    <radialGradient
       gradientTransform="matrix(1,0,0,1.3743285,12.5,-145.77254)"
       gradientUnits="userSpaceOnUse"
       xlink:href="#linearGradient3567"
       id="radialGradient4628"
       fy="59.5"
       fx="64"
       r="3"
       cy="59.5"
       cx="64" />
    <radialGradient
       gradientTransform="matrix(1,0,0,1.3743285,6.5,-145.77254)"
       gradientUnits="userSpaceOnUse"
       xlink:href="#linearGradient3567"
       id="radialGradient4632"
       fy="59.5"
       fx="64"
       r="3"
       cy="59.5"
       cx="64" />
    <radialGradient
       gradientTransform="matrix(1,0,0,1.3743285,-6.5,-145.77254)"
       gradientUnits="userSpaceOnUse"
       xlink:href="#linearGradient3567"
       id="radialGradient4636"
       fy="59.5"
       fx="64"
       r="3"
       cy="59.5"
       cx="64" />
    <radialGradient
       gradientTransform="matrix(1,0,0,1.3743285,-12.5,-145.77254)"
       gradientUnits="userSpaceOnUse"
       xlink:href="#linearGradient3567"
       id="radialGradient4640"
       fy="59.5"
       fx="64"
       r="3"
       cy="59.5"
       cx="64" />
    <radialGradient
       gradientTransform="matrix(1,0,0,1.3743285,-18.5,-145.77254)"
       gradientUnits="userSpaceOnUse"
       xlink:href="#linearGradient3567"
       id="radialGradient4644"
       fy="59.5"
       fx="64"
       r="3"
       cy="59.5"
       cx="64" />
    <radialGradient
       gradientTransform="matrix(1,0,0,1.3743285,-30.5,-145.77254)"
       gradientUnits="userSpaceOnUse"
       xlink:href="#linearGradient3567"
       id="radialGradient4648"
       fy="59.5"
       fx="64"
       r="3"
       cy="59.5"
       cx="64" />
    <filter
       id="filter4614"
       style="color-interpolation-filters:sRGB">
      <feGaussianBlur
         stdDeviation="1.2850637"
         id="feGaussianBlur4616" />
    </filter>
    <linearGradient
       gradientTransform="matrix(3.8665178,0,0,4.5760253,-538.99206,-133.84999)"
       gradientUnits="userSpaceOnUse"
       xlink:href="#linearGradient3659"
       id="linearGradient3665"
       y2="61.943794"
       x2="58.102489"
       y1="15.530697"
       x1="58.102489" />
    <linearGradient
       id="linearGradient3659">
      <stop
         offset="0"
         style="stop-color:#6fa13d;stop-opacity:0.74193549"
         id="stop3661" />
      <stop
         offset="1"
         style="stop-color:#cfdd99;stop-opacity:0"
         id="stop3663" />
    </linearGradient>
    <radialGradient
       gradientTransform="matrix(3.7813908,2.9974574e-7,-3.0613011e-7,3.8619318,-534.05168,-156.85294)"
       gradientUnits="userSpaceOnUse"
       xlink:href="#linearGradient4721"
       id="radialGradient3587"
       fy="88.987427"
       fx="64.134277"
       r="39.752651"
       cy="88.987427"
       cx="64.134277" />
    <linearGradient
       id="linearGradient4721">
      <stop
         offset="0"
         style="stop-color:#50682e;stop-opacity:1"
         id="stop4723" />
      <stop
         offset="1"
         style="stop-color:#1f221a;stop-opacity:1"
         id="stop4725" />
    </linearGradient>
    <linearGradient
       id="linearGradient3737-9">
      <stop
         id="stop3739-7"
         style="stop-color:#ffffff;stop-opacity:1"
         offset="0" />
      <stop
         id="stop3741-4"
         style="stop-color:#ffffff;stop-opacity:0"
         offset="1" />
    </linearGradient>
    <linearGradient
       id="linearGradient4046-3">
      <stop
         id="stop4048-7"
         style="stop-color:#000000;stop-opacity:1;"
         offset="0" />
      <stop
         id="stop4050-73"
         style="stop-color:#ffffff;stop-opacity:0.2"
         offset="1" />
    </linearGradient>
    <linearGradient
       x1="45.447727"
       y1="92.539597"
       x2="45.447727"
       y2="7.0165396"
       id="ButtonShadow-0-1-1-5-9"
       gradientUnits="userSpaceOnUse"
       gradientTransform="matrix(1.0058652,0,0,0.994169,100,0)">
      <stop
         id="stop3750-8-9-3-6-4"
         style="stop-color:#000000;stop-opacity:1"
         offset="0" />
      <stop
         id="stop3752-5-6-4-2-9"
         style="stop-color:#000000;stop-opacity:0.58823532"
         offset="1" />
    </linearGradient>
  </defs>
  <path
     style="fill:#120e02;fill-opacity:1;opacity:0.6"
     d="M 124.00001,63.999998 A 59.999999,59.999999 0 0 1 64.000011,124 59.999999,59.999999 0 0 1 4,63.999998 59.999999,59.999999 0 0 1 64.000011,4.000002 59.999999,59.999999 0 0 1 124.00001,63.999998 Z"
     id="path27" />
  <rect
     width="112"
     height="114"
     x="8"
     y="6"
     rx="56"
     ry="56"
     style="fill:#d5d3cf"
     id="rect29" />
  <path
     d="M 124.00001,62 A 59.999999,59.999999 0 0 1 64.000011,122 59.999999,59.999999 0 0 1 4,62 59.999999,59.999999 0 0 1 64.000011,1.9999952 59.999999,59.999999 0 0 1 124.00001,62 Z"
     style="fill:#3d3846;fill-opacity:1"
     id="path31" />
  <ellipse
     style="opacity:1;fill:#f6f5f4;fill-opacity:1;stroke:none;stroke-width:10;stroke-linecap:round;stroke-linejoin:bevel;stroke-miterlimit:4;stroke-dasharray:none;stroke-dashoffset:0;stroke-opacity:1"
     id="path1018"
     cx="96.498207"
     cy="60.5509"
     rx="9.7341318"
     ry="10.730539" />
  <g
     id="g1006"
     transform="translate(129.20969,0.5796417)">
    <rect
       ry="1.4186127"
       rx="2.0769231"
       y="68.170357"
       x="-41.71439"
       height="19.860577"
       width="20.76923"
       id="rect1063"
       style="opacity:1;fill:#c061cb;fill-opacity:1;stroke:none;stroke-width:1.03846145;stroke-opacity:1;paint-order:markers fill stroke" />
    <rect
       style="opacity:1;fill:#ff7800;fill-opacity:1;stroke:none;stroke-width:1.03846157;stroke-opacity:1;paint-order:markers fill stroke"
       id="rect1053"
       width="20.76923"
       height="17.783653"
       x="-47.94516"
       y="76.47805"
       rx="2.0769231"
       ry="2.0769231" />
    <rect
       ry="1.5669643"
       rx="2.0769231"
       y="80.631897"
       x="-56.252853"
       height="21.9375"
       width="20.76923"
       id="rect966-2"
       style="opacity:1;fill:#ed333b;fill-opacity:1;stroke:none;stroke-width:1.03846157;stroke-opacity:1;paint-order:markers fill stroke" />
    <rect
       ry="1.497524"
       rx="2.0769231"
       y="86.787163"
       x="-70.003258"
       height="20.965334"
       width="20.76923"
       id="rect966-8"
       style="opacity:1;fill:#33d17a;fill-opacity:1;stroke:none;stroke-width:1.03846145;stroke-opacity:1;paint-order:markers fill stroke" />
    <path
       id="path4176-7"
       d="m -65.209583,7.4203566 c -29.795341,0 -53.999997,24.2046534 -53.999997,54.0000004 -2e-5,29.795337 24.204656,53.999993 53.999997,54.000003 -0.519231,-9.86539 -0.519231,-24.403849 -0.519231,-26.480772 29.076923,2.076923 54.519231,-8.241236 54.519231,-27.519231 0,-29.795347 -24.204659,-54.0000004 -54,-54.0000004 z m 32.711538,46.2115384 a 7.2692308,7.2692308 0 0 1 7.26923,7.269231 7.2692308,7.2692308 0 0 1 -7.26923,7.269231 7.2692308,7.2692308 0 0 1 -7.26923,-7.269231 7.2692308,7.2692308 0 0 1 7.26923,-7.269231 z"
       style="color:#000000;display:inline;overflow:visible;visibility:visible;fill:#3584e4;fill-opacity:1;fill-rule:nonzero;stroke:none;stroke-width:1.03846157;stroke-opacity:1;marker:none;enable-background:accumulate"
       inkscape:connector-curvature="0" />
  </g>
  <g
     id="g1042"
     transform="translate(129.20969,2.5796417)" />
  <path
     style="opacity:0.1"
     d="M 64.00011,7.9999983 A 54.000004,54.000004 0 0 0 10.000107,62 54.000004,54.000004 0 0 0 10.041612,63.170902 54.000004,54.000004 0 0 1 64.000115,9.9999965 54.000004,54.000004 0 0 1 117.95861,62.828126 54.000004,54.000004 0 0 0 118.00013,62 54.000004,54.000004 0 0 0 64.000114,7.9999983 Z"
     id="path35" />
</svg>
