<svg fill="none" height="128" viewBox="0 0 128 128" width="128" xmlns="http://www.w3.org/2000/svg" xmlns:xlink="http://www.w3.org/1999/xlink">
  <linearGradient id="paint0_linear" gradientUnits="userSpaceOnUse" x1="116" x2="12" y1="118.874" y2="118.874">
    <stop offset="0" stop-color="#c061cb"/>
    <stop offset=".038" stop-color="#dc8add"/>
    <stop offset=".077" stop-color="#9141ac"/>
    <stop offset=".923" stop-color="#9141ac"/>
    <stop offset=".962" stop-color="#dc8add"/>
    <stop offset="1" stop-color="#c061cb"/>
  </linearGradient>
  <path d="m108 68.875h-88c-4.4183 0-8 3.5817-8 8v32c0 4.418 3.5817 8 8 8h88c4.418 0 8-3.582 8-8v-32c0-4.4183-3.582-8-8-8z" fill="url(#paint0_linear)"/>
  <path d="m20 11.125c-4.432 0-8 3.568-8 8v42 42c0 4.432 3.568 8 8 8h44 44c4.432 0 8-3.568 8-8v-42-42c0-4.432-3.568-8-8-8z" fill="#613583"/>
  <rect fill="#dc8add" height="47.625" rx="7" width="72.0025" x="29" y="30.875"/>
  <g fill="#241f31">
    <path d="m57.5367 62.2312v13.7381h-11.2236c-1.1087 0-2.2287.0343-3.3602.0457-.1486 0-.2972 0-.4572 0h-.0686c-.8001 0-1.6001-.0229-2.3887-.0914-.8115-.1486-1.6001-.3658-2.3773-.6401-.5944-.2857-1.1773-.6057-1.7373-.9715-.1143-.08-.2286-.16-.3429-.24-.3086-.2629-.6057-.5372-.8915-.8115-.2857-.2857-.5486-.5829-.8115-.88-.08-.1143-.16-.2401-.24-.3544-.3657-.5486-.6743-1.12-.96-1.7029-.2858-.7887-.5029-1.5887-.6629-2.4116v-.0115c-.0915-.9143-.1258-1.8515-.1372-2.7773v-.0114c-.0228-1.9316.08-3.8746.08-5.7604h1.2687c.3086 0 .5486 1.3029.5486 2.9145v5.3032c0-1.1772.2514-2.1373.56-2.1373h2.2973c.3086 0 .5486.9601.5486 2.1373v-16.5497c0-2.9488.2515-5.3375.5601-5.3375h2.2973c.3086 0 .56 2.3887.56 5.3375v11.2236c0-1.6115.2515-2.9145.5486-2.9145h2.2973c.3086 0 .5486 1.303.5486 2.9145v9.9664c0-.8.2515-1.4515.5486-1.4515h2.2973c.3086 0 .5486.6515.5486 1.4515v-11.7608c0-1.7487.2515-3.1659.5601-3.1659h2.2973c.2057 0 .3772.6286.4686 1.5544v-3.7031c0-2.183.2514-3.9432.56-3.9432h2.2973c.3086 0 .5601 1.7716.5601 3.9432v7.0976c0-1.6115.2514-2.9145.5486-2.9145h2.2973c.3086.0114.56 1.3144.56 2.9145z" opacity=".4"/>
    <path d="m96.1794 65.3971c-.1029.4001-.1601.8115-.1601 1.2573 0 .4228-.0228.8343-.0571 1.2572-.16.8115-.3657 1.6001-.6515 2.3773-.2857.5943-.6057 1.1658-.9715 1.7258-.08.1143-.16.24-.24.3543-.2629.2972-.5257.6058-.8115.8915-.2857.2858-.5829.5372-.88.8001-.1143.08-.2401.1714-.3658.2514-.56.3658-1.1429.6858-1.7372.9715-.7772.2743-1.5659.4915-2.3659.6401-.6858.0571-1.383.08-2.0687.08h-.5486c-.903 0-1.7944-.0229-2.6745-.0229h-22.0587v-30.3564c0-2.9487.2515-5.3375.5487-5.3375h2.2973c.3085 0 .5486 2.3888.5486 5.3375v19.4414c0-1.383.2514-2.4916.56-2.4916h2.2973c.3086 0 .5486 1.1201.5486 2.4916v4.4917c0-1.0172.2515-1.8401.56-1.8401h2.2973c.3086 0 .5601.8229.5601 1.8401v3.3602c0-.7429.2514-1.3486.5486-1.3486h2.2973c.3086 0 .5486.6057.5486 1.3486v-19.6584c0-2.9488.2514-5.3376.5486-5.3376h2.2973c.3086 0 .5486 2.3888.5486 5.3376v8.972c0-1.6115.2515-2.9145.5601-2.9145h2.2973c.3085 0 .56 1.303.56 2.9145v9.9664c0-.8001.2514-1.4515.5486-1.4515h2.2973c.3086 0 .56.6514.56 1.4515v-11.7494c0-1.7487.2515-3.1659.5487-3.1659h2.2973c.2057 0 .3771.6286.4686 1.5544v-3.7031c0-2.183.2514-3.9432.5486-3.9432h2.2973c.3086 0 .5486 1.7716.5486 3.9432v7.0976c0-1.6115.2514-2.9145.56-2.9145h2.2973c.3086 0 .5486 1.303.5486 2.9145v3.2916c.0572-.08.1257-.1371.1943-.1371h1.4516z" opacity=".4"/>
    <path d="m101.003 49.0417v12.3894c-1.3148.1143-2.5149.6629-3.4064 1.5201v-15.441c.8458.8572 1.9544 1.4401 3.1774 1.5201.08 0 .149.0114.229.0114z" opacity=".4"/>
    <path d="m80.7211 103.497c-.8801.96-2.0916 1.44-3.326 1.497-1.4858.069-3.0059-.457-4.0688-1.497-.3772-.377-.7772-.72-1.1772-1.075-.1715-.114-.3315-.228-.5029-.342-.6858-.458-1.4058-.846-2.1373-1.201-1.0058-.377-2.0344-.651-3.0974-.845-.4457-.046-.8915-.0574-1.3372-.0689-.6172-.0114-1.2458.0115-1.863.0689-1.0515.183-2.0916.468-3.0973.845-.743.355-1.4516.743-2.1373 1.201-.1715.114-.3429.24-.5144.354-.4.331-.7886.686-1.1657 1.063-.9601.948-2.1602 1.428-3.3717 1.486-1.4287.068-2.8916-.446-4.0346-1.486-2.0687-1.897-1.9544-5.4748 0-7.4064 2.9602-2.9259 6.6748-4.9946 10.6865-5.9661v-6.9491c0-2.9373 2.4001-5.1089 5.2346-5.2346.16-.0115.3086 0 .4572 0 2.6173.16 4.7775 2.6402 4.7775 5.2346v6.9491c4.0117.9715 7.7262 3.0402 10.6864 5.9661 2.0802 2.0573 1.8973 5.3264-.0114 7.4064z" opacity=".6"/>
  </g>
  <path d="m79.7211 102.497c-.8801.96-2.0916 1.44-3.326 1.497-1.4858.069-3.0059-.457-4.0688-1.497-.3772-.377-.7772-.72-1.1772-1.075-.1715-.114-.3315-.228-.5029-.342-.6858-.458-1.4058-.846-2.1373-1.2005-1.0058-.3772-2.0344-.6515-3.0974-.8458-.4457-.0457-.8915-.0571-1.3372-.0686-.6172-.0114-1.2458.0115-1.863.0686-1.0515.1829-2.0916.4686-3.0973.8458-.743.3545-1.4516.7425-2.1373 1.2005-.1715.114-.3429.24-.5144.354-.4.331-.7886.686-1.1657 1.063-.9601.948-2.1602 1.428-3.3717 1.486-1.4287.068-2.8916-.446-4.0346-1.486-2.0687-1.897-1.9544-5.4748 0-7.4064 2.9602-2.9259 6.6748-4.9946 10.6865-5.9661v-6.9491c0-2.9373 2.4001-5.1089 5.2346-5.2346.16-.0115.3086 0 .4572 0 2.6173.16 4.7775 2.6402 4.7775 5.2346v6.9491c4.0117.9715 7.7262 3.0402 10.6864 5.9661 2.0802 2.0573 1.8973 5.3264-.0114 7.4064z" fill="#813d9c"/>
  <path d="m107.489 67.6429c0 .1715 0 .3543-.012.5372-.103 3.2002-.948 6.3204-2.503 9.1206-.846 1.543-1.909 2.9374-3.12 4.1603-.606.6172-1.246 1.1887-1.9202 1.703-3.2573 2.5373-7.3033 4.046-11.5093 4.2517-.4686.0229-.9258.0343-1.3944.0343h-.5258c-.7429 0-1.4858-.0229-2.2173-.0229h-39.7284c-2.3659 0-4.6632-.0228-7.0062-.5714-2.7887-.6515-5.3375-1.943-7.5091-3.6917-.6972-.5601-1.3715-1.1772-1.9887-1.8287-2.0573-2.1602-3.6459-4.7661-4.606-7.612-.8686-2.5373-.9486-5.1546-.9601-7.7948 0-.5257 0-1.0515 0-1.5658v-10.0807c0-2.7545 0-5.4975 0-8.252 0-.2972 0-.6057 0-.9029 0-5.4747 2.103-10.8693 6.1262-14.6524 3.8059-3.566 8.7434-5.4747 13.9552-5.4747h5.3489 38.9056c3.9088 0 7.7605.7886 11.1436 2.8573 5.875 3.6117 9.486 10.0464 9.543 16.9383 0 .1258 0 .2629-.011.3886-.183 2.7202-2.503 4.6975-5.177 4.8461-.012 0-.035 0-.046 0-.08 0-.172 0-.252 0s-.148 0-.228-.0114c-1.223-.0801-2.3432-.6629-3.1776-1.5201-.96-.983-1.5658-2.3316-1.5772-3.7146v-.0914c-.0114-.3886-.0229-.7772-.0571-1.1544-.1601-.8115-.3658-1.6115-.6629-2.3887-.2858-.5944-.5944-1.1658-.9601-1.7144-.08-.1143-.16-.2286-.24-.3543-.2629-.3086-.5258-.6058-.8115-.8801-.2858-.2857-.5943-.5486-.8915-.8115-.1143-.08-.2286-.16-.3543-.24-.5486-.3657-1.1315-.6858-1.7144-.9715-.7772-.2857-1.5887-.5029-2.4002-.6515-.8-.0685-1.6001-.0914-2.4001-.1028h-.5258c-1.1201 0-2.2402.0457-3.3488.0457h-36.3453c-.8801 0-1.783-.0229-2.6745-.0229h-.0114c-.1258 0-.2629 0-.4001 0-.7429 0-1.4858.0229-2.2173.08-.8114.1486-1.6115.3658-2.3887.6515-.5943.2857-1.1658.6058-1.7144.9715-.1143.08-.2286.16-.3429.24-.3086.2629-.6057.5258-.8915.8229-.2857.2858-.5486.5944-.8229.8915-.08.1143-.16.2286-.24.3429-.3543.5486-.6743 1.1086-.9601 1.703-.2857.7772-.5029 1.5658-.6629 2.3773-.0343.3886-.0457.7886-.0571 1.1772v.0686c-.0114.4457-.0114.8915 0 1.3372v.0572.96 13.2009c0 1.8973-.1029 3.8289-.08 5.7604v.0115c.0114.9372.0457 1.8629.1371 2.7773v.0114c.16.8229.3772 1.623.6629 2.4116.2858.5829.5944 1.1544.9601 1.703.08.1257.16.24.24.3543.2629.2972.5258.5943.8115.8801.2857.2857.5943.5486.8915.8114.1143.0801.2286.1601.3429.2401.56.3657 1.1429.6857 1.7372.9715.7772.2743 1.5659.4914 2.3773.64.7887.0686 1.5887.0914 2.3888.0914h.0685.4572c1.1315 0 2.2516-.0457 3.3603-.0457h36.3224c.8801 0 1.7716.0229 2.6745.0229h.5486c.6972 0 1.383-.0229 2.0687-.08.8115-.1486 1.6001-.3658 2.3659-.6401.5943-.2857 1.1772-.6057 1.7373-.9715.1257-.08.24-.16.3657-.2514.2972-.2629.5943-.5258.8801-.8001.2857-.2857.5486-.5829.8114-.8915.0801-.1143.1601-.2286.2401-.3543.3657-.5486.6857-1.1315.9715-1.7258.2857-.7772.5028-1.5658.6514-2.3773.0343-.4229.0572-.8344.0572-1.2572 0-.4344.0571-.8572.16-1.2573.24-.9486.7429-1.7944 1.4172-2.4458.8915-.8573 2.0913-1.4173 3.4063-1.5202.057 0 .125-.0114.183-.0114h.057c.148-.0114.308 0 .457 0 2.651.1943 4.834 2.6745 4.812 5.2575z" fill="#241f31" opacity=".6"/>
  <path d="m106.489 66.6429c0 .1715 0 .3543-.012.5372-.103 3.2002-.948 6.3204-2.503 9.1206-.846 1.543-1.909 2.9374-3.12 4.1603-.606.6172-1.2458 1.1887-1.9202 1.703-3.2573 2.5373-7.3033 4.046-11.5093 4.2517-.4686.0229-.9258.0343-1.3944.0343h-.5258c-.7429 0-1.4858-.0229-2.2173-.0229h-39.7284c-2.3659 0-4.6632-.0228-7.0062-.5714-2.7887-.6515-5.3375-1.943-7.5091-3.6917-.6972-.5601-1.3715-1.1772-1.9887-1.8287-2.0573-2.1602-3.6459-4.7661-4.606-7.612-.8686-2.5373-.9486-5.1546-.9601-7.7948 0-.5257 0-1.0515 0-1.5658v-10.0807c0-2.7545 0-5.4975 0-8.252 0-.2972 0-.6057 0-.9029 0-5.4747 2.103-10.8693 6.1262-14.6524 3.8059-3.566 8.7434-5.4747 13.9552-5.4747h5.3489 38.9056c3.9088 0 7.7605.7886 11.1436 2.8573 5.875 3.6117 9.486 10.0464 9.543 16.9383 0 .1258 0 .2629-.011.3886-.183 2.7202-2.503 4.6975-5.177 4.8461-.012 0-.035 0-.046 0-.08 0-.172 0-.252 0s-.148 0-.228-.0114c-1.2231-.0801-2.3432-.6629-3.1776-1.5201-.96-.983-1.5658-2.3316-1.5772-3.7146v-.0914c-.0114-.3886-.0229-.7772-.0571-1.1544-.1601-.8115-.3658-1.6115-.6629-2.3887-.2858-.5944-.5944-1.1658-.9601-1.7144-.08-.1143-.16-.2286-.24-.3543-.2629-.3086-.5258-.6058-.8115-.8801-.2858-.2857-.5943-.5486-.8915-.8115-.1143-.08-.2286-.16-.3543-.24-.5486-.3657-1.1315-.6858-1.7144-.9715-.7772-.2857-1.5887-.5029-2.4002-.6515-.8-.0685-1.6001-.0914-2.4001-.1028h-.5258c-1.1201 0-2.2402.0457-3.3488.0457h-36.3453c-.8801 0-1.783-.0229-2.6745-.0229h-.0114c-.1258 0-.2629 0-.4001 0-.7429 0-1.4858.0229-2.2173.08-.8114.1486-1.6115.3658-2.3887.6515-.5943.2857-1.1658.6058-1.7144.9715-.1143.08-.2286.16-.3429.24-.3086.2629-.6057.5258-.8915.8229-.2857.2858-.5486.5944-.8229.8915-.08.1143-.16.2286-.24.3429-.3543.5486-.6743 1.1086-.9601 1.703-.2857.7772-.5029 1.5658-.6629 2.3773-.0343.3886-.0457.7886-.0571 1.1772v.0686c-.0114.4457-.0114.8915 0 1.3372v.0572.96 13.2009c0 1.8973-.1029 3.8289-.08 5.7604v.0115c.0114.9372.0457 1.8629.1371 2.7773v.0114c.16.8229.3772 1.623.6629 2.4116.2858.5829.5944 1.1544.9601 1.703.08.1257.16.24.24.3543.2629.2972.5258.5943.8115.8801.2857.2857.5943.5486.8915.8114.1143.0801.2286.1601.3429.2401.56.3657 1.1429.6857 1.7372.9715.7772.2743 1.5659.4914 2.3773.64.7887.0686 1.5887.0914 2.3888.0914h.0685.4572c1.1315 0 2.2516-.0457 3.3603-.0457h36.3224c.8801 0 1.7716.0229 2.6745.0229h.5486c.6972 0 1.383-.0229 2.0687-.08.8115-.1486 1.6001-.3658 2.3659-.6401.5943-.2857 1.1772-.6057 1.7373-.9715.1257-.08.24-.16.3657-.2514.2972-.2629.5943-.5258.8801-.8001.2857-.2857.5486-.5829.8114-.8915.0801-.1143.1601-.2286.2401-.3543.3657-.5486.6857-1.1315.9715-1.7258.2857-.7772.5028-1.5658.6514-2.3773.0343-.4229.0572-.8344.0572-1.2572 0-.4344.0571-.8572.16-1.2573.24-.9486.7429-1.7944 1.4172-2.4458.8915-.8573 2.0916-1.4173 3.4063-1.5202.057 0 .125-.0114.183-.0114h.057c.148-.0114.308 0 .457 0 2.651.1943 4.834 2.6745 4.812 5.2575z" fill="#813d9c"/>
</svg>
