<svg fill="none" height="128" viewBox="0 0 128 128" width="128" xmlns="http://www.w3.org/2000/svg">
  <path d="m115.968 67.0315c0 13.7829-5.475 27.0013-15.221 36.7475-9.7457 9.746-22.9641 15.221-36.747 15.221-6.8246 0-13.5824-1.344-19.8875-3.956s-12.0341-6.44-16.8598-11.265c-4.8257-4.826-8.6537-10.5549-11.2653-16.86-2.6117-6.3051-3.9559-13.0629-3.9559-19.8875s1.3442-13.5824 3.9559-19.8875c2.6116-6.3051 6.4396-12.0341 11.2653-16.8598s10.5547-8.6537 16.8598-11.2653c6.3051-2.6117 13.0629-3.9559 19.8875-3.9559 13.7829 0 27.0013 5.4752 36.747 15.2212 9.746 9.746 15.221 22.9644 15.221 36.7473z" fill="#1a5fb4"/>
  <circle fill="#3584e4" r="51.9685" transform="matrix(1 0 0 -1 64 60.9685)"/>
  <path clip-rule="evenodd" d="m66.7727 24.4685c8.9852 7.7567 11.2316 15.619 11.2316 27.9738l3.6855-9.547c3.88 3.8148 6.5246 8.8694 7.3006 14.531.2856 4.3536-.4252 8.2077-1.5483 11.5772 4.5832-2.9183 10.3721-6.2529 12.8499-11.5772-1.6538-17.6174-15.8145-31.6107-33.5193-32.9578zm-6.3151.2078c-17.6173 1.6539-31.6105 15.8145-32.9576 33.5192 7.7568-8.9852 15.6188-11.2313 27.9735-11.2313l-9.5467-3.6856c3.8148-3.8801 8.8692-6.5243 14.5308-7.3003 4.3536-.2857 8.208.425 11.5775 1.5481-2.9182-4.5833-6.2531-10.3722-11.5775-12.8501zm-19.8994 28.2571c-4.5833 2.9182-10.3725 6.2529-12.8504 11.5774 1.654 17.6173 15.8147 31.6106 33.5194 32.9576-8.9852-7.7568-11.2316-15.6191-11.2316-27.9738l-3.6855 9.547c-3.88-3.8147-6.5243-8.8693-7.3003-14.5308-.2856-4.3537.4253-8.2079 1.5484-11.5774zm59.9418 10.8078c-7.7568 8.9852-15.6188 11.2316-27.9736 11.2316l9.5468 3.6855c-3.8148 3.8801-8.8693 6.5245-14.531 7.3006-4.3536.2856-8.2078-.4252-11.5773-1.5483 2.9182 4.5832 6.253 10.3721 11.5773 12.85 17.6174-1.654 31.6107-15.8146 32.9578-33.5194z" fill="#ecf0f1" fill-rule="evenodd"/>
  <path d="m115.968 60.9685c0-28.7014-23.2666-51.96849-51.968-51.96849s-51.9685 23.26709-51.9685 51.96849 23.2671 51.9685 51.9685 51.9685 51.968-23.2671 51.968-51.9685zm-98.0489 0c0-25.4497 20.6311-46.0808 46.0809-46.0808 25.4497 0 46.081 20.6311 46.081 46.0808 0 25.4498-20.6313 46.0805-46.081 46.0805-25.4498 0-46.0809-20.6307-46.0809-46.0805z" fill="#f6f5f4" opacity=".8"/>
  <path d="m109.906 60.9685c-.132-11.9039-4.837-23.8511-13.4459-32.4601-8.609-8.609-20.2852-13.4454-32.4601-13.4454s-23.8511 4.8364-32.4601 13.4454c-8.609 8.6089-13.4454 20.2852-13.4454 32.4601 1.7757-14.3373 7.6949-22.0979 15.521-29.9241 8.0894-7.7605 19.1851-11.7723 30.253-11.7723 11.0678 0 20.8482 3.6172 30.1213 11.3119 5.2373 4.3459 12.1672 11.0489 15.9162 30.3845z" fill="#241f31" opacity=".25"/>
</svg>
