<svg enable-background="new" height="128" viewBox="0 0 128 128" width="128" xmlns="http://www.w3.org/2000/svg" xmlns:xlink="http://www.w3.org/1999/xlink">
  <linearGradient id="linearGradient913" gradientTransform="matrix(63.051 0 0 70.028 34 50.972)" gradientUnits="userSpaceOnUse" spreadMethod="reflect" x1=".417325" x2="1.174754" y1=".916372" y2=".632394">
    <stop offset="0" stop-color="#626262"/>
    <stop offset=".50128251" stop-color="#fbfbfb"/>
    <stop offset="1" stop-color="#3e3e3e"/>
    <stop offset="1" stop-color="#222"/>
  </linearGradient>
  <linearGradient id="linearGradient1533" gradientTransform="matrix(3.137934 0 0 3.137934 -235.41081 -397.44715)" gradientUnits="userSpaceOnUse" spreadMethod="pad" x1="95.41539" x2="106.85539" xlink:href="#linearGradient913" y1="159.50749" y2="154.38976"/>
  <linearGradient id="linearGradient878" gradientTransform="matrix(.77742238 -.29141244 .29141244 .77742238 5.018462 6.406499)" gradientUnits="userSpaceOnUse" spreadMethod="pad" x1="15.096322" x2="76.951645" xlink:href="#linearGradient913" y1="94.400116" y2="94.400116"/>
  <path d="m124.00001 63.999998a59.999999 59.999999 0 0 1 -59.999999 60.000002 59.999999 59.999999 0 0 1 -60.000011-60.000002 59.999999 59.999999 0 0 1 60.000011-59.999996 59.999999 59.999999 0 0 1 59.999999 59.999996z" fill="#deddda"/>
  <rect fill="#d5d3cf" height="114" rx="56" width="112" x="8" y="6"/>
  <path d="m124.00001 62a59.999999 59.999999 0 0 1 -59.999999 60 59.999999 59.999999 0 0 1 -60.000011-60 59.999999 59.999999 0 0 1 60.000011-60.0000048 59.999999 59.999999 0 0 1 59.999999 60.0000048z" fill="#f6f5f4"/>
  <circle cx="64" cy="62" fill="none" r="54"/>
  <circle cx="64.000008" cy="61.999996" fill="#444" opacity=".75" r="54"/>
  <path d="m64.00011 7.9999983a54.000004 54.000004 0 0 0 -54.000003 54.0000017 54.000004 54.000004 0 0 0 .041505 1.170902 54.000004 54.000004 0 0 1 53.958503-53.1709055 54.000004 54.000004 0 0 1 53.958495 52.8281295 54.000004 54.000004 0 0 0 .04152-.828126 54.000004 54.000004 0 0 0 -54.000016-54.0000017z" opacity=".1"/>
  <g transform="translate(4.17596 -2.816994)">
    <path d="m34.17249 19.816989-8.410214 39.170613 54.981409 11.806754 8.410223-39.172335zm3.123847 2.595726c.09065-.01583.186052-.01511.28132.0071l5.610844 1.292687c.381082.08801.618745.468885.531572.849135l-.781827 3.393081c-.08717.380255-.468883.617856-.849133.529848l-5.612567-1.292719c-.380249-.08802-.617855-.468051-.529843-.849136l.781822-3.391344c.06603-.28581.295972-.490957.567812-.538475zm8.322206 1.917456c.09065-.01596.184322-.01488.279591.0072l5.610843 1.294415c.381081.08717.619579.466323.531571.847407l-.781826 3.391364c-.08716.381086-.46805.618749-.849135.531574l-5.609113-1.292723c-.381084-.08718-.619577-.46805-.53157-.849132l.780096-3.391356c.066-.285812.297702-.490607.569543-.538476zm8.320476 1.917452c.09063-.01591.186046-.01512.281316.0074l5.612566 1.292688c.380255.08801.617853.468884.529849.849134l-.781829 3.393087c-.088.380252-.468048.617852-.849129.529845l-5.610844-1.292784c-.381081-.08799-.618747-.46888-.531569-.849136l.781823-3.39137c.06541-.285188.296015-.490762.567817-.538475zm8.3222 1.917453c.09053-.01595.186257-.01487.28132.0075l5.61084 1.294408c.38025.08717.619575.466328.531571.847413l-.781825 3.39135c-.02204.09527-.06159.180856-.115633.25543-.05403.07457-.123326.138267-.200201.186395-.153512.09562-.343737.133618-.5333.08973l-5.610839-1.292741c-.381084-.08802-.619577-.468073-.531573-.849152l.781825-3.39136c.06602-.285809.296326-.490606.567815-.538477zm8.322201 1.917458c.09064-.01589.186049-.0151.281319.0075l5.610839 1.292684c.381083.088.617852.469776.529849.850859l-.781827 3.391359c-.08798.381082-.467157.618746-.84741.531573l-5.612562-1.29451c-.380254-.08716-.617853-.46888-.529848-.849135l.781826-3.391353c.06601-.285191.295974-.490763.567814-.538478zm8.322201 1.917455c.09065-.01584.184321-.01341.279596.0091l5.61084 1.292682c.381079.08798.618748.467159.531568.847411l-.781822 3.393081c-.08716.380253-.468052.617852-.849134.529847l-5.61084-1.29287c-.380254-.088-.617854-.468051-.529849-.849132l.780102-3.391358c.06602-.285811.297697-.490957.569539-.538474zm-24.85442 2.203952 13.209897 14.443902-17.289882 6.881091zm-23.045699 19.007135c.09065-.0159.186041-.0151.281319.0075l5.610839 1.292682c.381083.088.618748.468883.531573.849139l-.781827 3.391311c-.08716.380253-.468878.619576-.84913.531571l-5.612569-1.292729c-.380249-.08801-.617853-.46888-.529841-.849133l.781816-3.39136c.06602-.285188.295982-.49076.56782-.538473zm8.3222 1.917455c.09065-.01595.184325-.01487.279595.0075l5.610838 1.292688c.381085.08716.61875.468051.531574.84913l-.781825 3.391345c-.08718.381085-.466326.61958-.84741.531574l-5.612566-1.292762c-.380251-.08798-.61785-.468048-.529846-.849131l.780099-3.391384c.06602-.285812.297701-.490607.569541-.538477zm8.320474 1.917453c.09063-.0159.186051-.0151.281321.0075l5.612569 1.292683c.380251.088.61785.468054.529846.849137l-.781826 3.391356c-.08799.381085-.468051.619579-.849137.531574l-5.610839-1.292832c-.381082-.08801-.618747-.468911-.531571-.849163l.781825-3.391358c.06541-.285185.29601-.490761.567812-.538474zm8.322204 1.917455c.09053-.01595.186254-.01487.28132.0075l5.61084 1.29269c.380252.08716.619577.468878.531572.849129l-.781824 3.393064c-.088.380254-.468054.617853-.849135.529848l-5.610841-1.292813c-.381081-.08798-.618747-.468049-.531572-.849136l.781822-3.391353c.06601-.285813.296328-.490609.567818-.538477zm8.3222 1.917454c.09053-.01591.184532-.0151.279593.0075l5.612571 1.292653c.381081.088.617849.468053.529842.849135l-.780097 3.391333c-.08799.381082-.468881.618746-.849136.531573l-5.612565-1.292755c-.380252-.08717-.617852-.468046-.529846-.849133l.781823-3.391425c.06602-.285812.296325-.490725.567815-.538476z" fill="#ed333b"/>
    <g enable-background="new" transform="matrix(.83024502 0 0 .83024502 11.81733 8.833418)">
      <g fill="none" stroke="#565656" stroke-miterlimit="2" stroke-width=".105">
        <path d="m23.45 53.46 6.758 1.557c.459.106.745.564.64 1.022l-.942 4.086c-.105.458-.564.745-1.022.639l-6.759-1.557c-.458-.106-.745-.564-.639-1.022l.941-4.086c.106-.458.564-.745 1.023-.639z"/>
        <path d="m33.473 55.769 6.758 1.558c.459.105.745.563.64 1.022l-.942 4.085c-.105.459-.563.746-1.022.64l-6.759-1.557c-.458-.106-.745-.564-.639-1.023l.941-4.085c.106-.459.564-.745 1.023-.64z"/>
        <path d="m43.496 58.079 6.759 1.557c.458.106.745.564.639 1.023l-.941 4.085c-.106.459-.564.745-1.023.639l-6.758-1.557c-.459-.106-.745-.564-.64-1.022l.942-4.086c.105-.458.563-.745 1.022-.639z"/>
        <path d="m53.519 60.388 6.759 1.558c.458.105.745.564.639 1.022l-.941 4.086c-.106.458-.564.745-1.023.639l-6.758-1.557c-.459-.106-.745-.564-.64-1.023l.942-4.085c.106-.459.564-.745 1.022-.64z"/>
      </g>
      <path d="m73.566 65.008 6.758 1.557c.459.106.745.564.64 1.022l-.942 4.086c-.105.458-.564.745-1.022.639l-6.759-1.557c-.458-.106-.745-.564-.639-1.023l.941-4.085c.106-.458.564-.745 1.023-.639z"/>
      <path d="m73.566 65.008 6.758 1.557c.459.106.745.564.64 1.022l-.942 4.086c-.105.458-.564.745-1.022.639l-6.759-1.557c-.458-.106-.745-.564-.639-1.023l.941-4.085c.106-.458.564-.745 1.023-.639z" fill="none" stroke="#565656" stroke-miterlimit="2" stroke-width=".105"/>
    </g>
    <g enable-background="new" fill="none" stroke="#565656" stroke-miterlimit="2" stroke-width=".105" transform="matrix(.83024502 0 0 .83024502 11.81733 8.833418)">
      <path d="m31.027 16.365 6.758 1.557c.459.106.745.564.64 1.022l-.942 4.086c-.105.458-.564.745-1.022.639l-6.759-1.557c-.458-.106-.745-.564-.639-1.023l.941-4.085c.106-.459.564-.745 1.023-.639z"/>
      <path d="m41.05 18.674 6.758 1.558c.459.105.746.563.64 1.022l-.942 4.085c-.105.459-.563.745-1.022.64l-6.758-1.558c-.459-.105-.746-.563-.64-1.022l.941-4.085c.106-.459.564-.745 1.023-.64z"/>
      <path d="m51.073 20.984 6.759 1.557c.458.106.745.564.639 1.022l-.941 4.086c-.106.458-.564.745-1.023.639l-6.758-1.557c-.459-.106-.745-.564-.64-1.022l.942-4.086c.105-.458.563-.745 1.022-.639z"/>
      <path d="m81.143 27.913 6.758 1.557c.459.106.745.564.64 1.022l-.942 4.086c-.105.458-.563.745-1.022.639l-6.759-1.557c-.458-.106-.745-.564-.639-1.023l.941-4.085c.106-.459.564-.745 1.023-.639z"/>
    </g>
    <path d="m89.291608 65.503513.749056 1.514904c.40224.813504.511966 1.605083-.338173 1.922639l-35.564027 13.284517c-.850066.317754-1.706617-.145422-2.108859-.958921l-.749061-1.514905c10.054036-6.459536 31.266458-13.129106 38.011064-14.248234z" fill="#9ac1f2" fill-opacity=".953781"/>
    <path d="m90.978189 53.706231 2.74713 7.328741c.485177 1.294322-.166235 2.726905-1.460542 3.212073l-43.41509 16.2739c-1.294318.485169-2.726904-.166239-3.212072-1.460561l-2.747139-7.328743z" fill="url(#linearGradient878)"/>
    <path d="m54.128721 82.679853 35.670056-13.341683-.331239 28.146763 3.074494 6.969507c.402972.91352-10.192239 6.10147-10.687781 5.27337l-4.151264-6.9371z" fill="url(#linearGradient1533)"/>
  </g>
</svg>
