<svg enable-background="new" height="128" viewBox="0 0 128 128" width="128" xmlns="http://www.w3.org/2000/svg" xmlns:xlink="http://www.w3.org/1999/xlink">
  <linearGradient id="linearGradient1986" gradientUnits="userSpaceOnUse" x1="133.792502" x2="122.222502" y1="238.379067" y2="249.949067">
    <stop offset="0" stop-color="#f6f5f4"/>
    <stop offset=".257" stop-color="#fff"/>
    <stop offset=".6" stop-color="#c0bfbc"/>
    <stop offset=".703" stop-color="#f6f5f4"/>
    <stop offset="1" stop-color="#f6f5f4"/>
  </linearGradient>
  <linearGradient id="linearGradient1988" gradientUnits="userSpaceOnUse" x1="144.277701" x2="141.656701" y1="238.96412" y2="241.58512">
    <stop offset="0" stop-color="#c0bfbc"/>
    <stop offset="1" stop-color="#f6f5f4"/>
  </linearGradient>
  <linearGradient id="linearGradient1039" gradientUnits="userSpaceOnUse" x1="142" x2="198" y1="268" y2="268">
    <stop offset="0" stop-color="#77767b"/>
    <stop offset=".176" stop-color="#c0bfbc"/>
    <stop offset=".409" stop-color="#77767b"/>
    <stop offset="1" stop-color="#3d3846"/>
  </linearGradient>
  <g transform="translate(0 -172)">
    <rect fill="#2ec27e" height="64" rx="8" width="112" x="8" y="224"/>
    <g enable-background="new" fill="none" stroke="#26a269" stroke-width=".935414" transform="matrix(1 0 0 1.1428571 0 -22.857143)">
      <path d="m27 230v14" stroke-width="1.870829"/>
      <path d="m32 230v14" stroke-width="3.741658"/>
      <path d="m37 230v14" stroke-width="1.870829"/>
      <path d="m41 230v14" stroke-width="1.870829"/>
      <path d="m46 230v14" stroke-width="3.741658"/>
      <path d="m56 230v14" stroke-width="3.741658"/>
      <path d="m51 230v14" stroke-width="1.870829"/>
      <path d="m63 230v14" stroke-width="5.612486"/>
      <g stroke-width="1.870829">
        <path d="m69 230v14"/>
        <path d="m73 230v14"/>
        <path d="m77 230v14"/>
      </g>
      <path d="m82 230v14" stroke-width="3.741658"/>
      <path d="m87 230v14" stroke-width="1.870829"/>
      <path d="m99 230v14" stroke-width="1.870829"/>
      <path d="m93 230v14" stroke-width="5.612486"/>
      <path d="m103 230v14" stroke-width="1.870829"/>
      <path d="m107 230v14" stroke-width="1.870829"/>
    </g>
    <g enable-background="new" fill="#8ff0a4" transform="translate(0 12)">
      <path d="m22.21582 254 1.197265 5.06836-3.90039-3.2793-1.453125 2.5918 5.009765 1.6582-5.042968 1.58985 1.433593 2.64062 3.955078-3.30469-1.199218 5.03516h3.410156l-1.101562-4.95898 3.833984 3.31445 1.476562-2.61914-4.978515-1.68555 5.117187-1.42578-1.453125-2.61914-4.033203 3.08398 1.136719-5.08984z"/>
      <path d="m38.21582 254 1.197265 5.06836-3.90039-3.2793-1.453125 2.5918 5.009765 1.6582-5.042968 1.58985 1.433593 2.64062 3.955078-3.30469-1.199218 5.03516h3.410156l-1.101562-4.95898 3.833984 3.31445 1.476562-2.61914-4.978515-1.68555 5.117187-1.42578-1.453125-2.61914-4.033203 3.08398 1.136719-5.08984z"/>
      <path d="m54.21582 254 1.197265 5.06836-3.90039-3.2793-1.453125 2.5918 5.009765 1.6582-5.042968 1.58985 1.433593 2.64062 3.955078-3.30469-1.199218 5.03516h3.410156l-1.101562-4.95898 3.833984 3.31445 1.476562-2.61914-4.978515-1.68555 5.117187-1.42578-1.453125-2.61914-4.033203 3.08398 1.136719-5.08984z"/>
      <path d="m70.21582 254 1.197265 5.06836-3.90039-3.2793-1.453125 2.5918 5.009765 1.6582-5.042968 1.58985 1.433593 2.64062 3.955078-3.30469-1.199218 5.03516h3.410156l-1.101562-4.95898 3.833984 3.31445 1.476562-2.61914-4.978515-1.68555 5.117187-1.42578-1.453125-2.61914-4.033203 3.08398 1.136719-5.08984z"/>
      <path d="m86.21582 254 1.197265 5.06836-3.90039-3.2793-1.453125 2.5918 5.009765 1.6582-5.042968 1.58985 1.433593 2.64062 3.955078-3.30469-1.199218 5.03516h3.410156l-1.101562-4.95898 3.833984 3.31445 1.476562-2.61914-4.978515-1.68555 5.117187-1.42578-1.453125-2.61914-4.033203 3.08398 1.136719-5.08984z"/>
      <path d="m102.21582 254 1.19726 5.06836-3.900385-3.2793-1.453125 2.5918 5.00976 1.6582-5.042963 1.58985 1.433593 2.64062 3.95508-3.30469-1.19922 5.03516h3.41016l-1.10157-4.95898 3.83399 3.31445 1.47656-2.61914-4.97851-1.68555 5.11718-1.42578-1.45312-2.61914-4.03321 3.08398 1.13672-5.08984z"/>
    </g>
    <rect fill="#2ec27e" height="40" rx="8" width="112" x="8" y="200"/>
    <path d="m8 214h112v18h-112z" fill="#241f31"/>
    <path d="m22 242-7.2 6 7.2 6z" fill="#26a269" fill-rule="evenodd"/>
    <g enable-background="new" transform="matrix(-1 0 0 -1 215 484)">
      <path d="m170 296a28 28 0 0 1 -28-28 28 28 0 0 1 28-28 28 28 0 0 1 28 28 28 28 0 0 1 -28 28zm.0312-12a6.0312505 6.0000005 0 0 0 6.03125-6 6.0312505 6.0000005 0 0 0 -6.03125-6 6.0312505 6.0000005 0 0 0 -6.03125 6 6.0312505 6.0000005 0 0 0 6.03125 6z" fill="url(#linearGradient1039)"/>
      <g transform="matrix(.70710678 -.70710678 -.70710678 -.70710678 243.95332 484.3158)">
        <path d="m125.41422 214.44366-16.97055 16.97056 8.36742 8.36743 3.65338-3.41768 4.24264 4.24264h2.82843v2.82843l2.12132 2.12132h4.24264v4.24264h2.82843v2.82842h5.65685v5.65686h2.82843v2.82843h12.72792l4.94974-4.94976v-4.24264z" fill="#77767b"/>
        <path d="m124 213.02944-16.97055 16.97056 8.36742 8.36743 3.65338-3.41768 4.24264 4.24264h2.82843v2.82843l2.12132 2.12132h4.24264v4.24264h2.82843v2.82842h5.65685v5.65686h2.82843v2.82843h12.72792l4.94974-4.94976v-4.24264z" fill="url(#linearGradient1986)"/>
        <path d="m125.74823 221.26459c-1.79388.002-2.67811 2.18243-1.39257 3.43359l33.58547 33.5861 2.82844-2.82843-33.58579-33.58579c-.37702-.38755-.89487-.60597-1.43555-.60547z" fill="url(#linearGradient1988)"/>
      </g>
      <path d="m170 298a28 28 0 0 0 28-28 28 28 0 0 0 -28-28 28 28 0 0 0 -28 28 28 28 0 0 0 28 28zm-.0312-12a6.0312505 6.0000005 0 0 1 -6.03125-6 6.0312505 6.0000005 0 0 1 6.03125-6 6.0312505 6.0000005 0 0 1 6.03125 6 6.0312505 6.0000005 0 0 1 -6.03125 6z" fill="#f6f5f4"/>
    </g>
  </g>
</svg>
