<svg fill="none" height="128" viewBox="0 0 128 128" width="128" xmlns="http://www.w3.org/2000/svg">
  <path d="m112 20h-96c-4.4183 0-8 3.9399-8 8.8v70.4c0 4.86 3.5817 8.8 8 8.8h96c4.418 0 8-3.94 8-8.8v-70.4c0-4.8601-3.582-8.8-8-8.8z" fill="#f5c211"/>
  <path d="m8.00507 97.9994v2c0 4.4316 3.56803 7.9996 8.00003 7.9996h95.9999c4.432 0 8-3.568 8-7.9996v-2c0 4.4316-3.568 7.9996-8 7.9996h-95.9999c-4.432 0-8.00003-3.568-8.00003-7.9996z" fill="#e5a50a"/>
  <g fill="#c061cb">
    <path d="m63.9299 20.3952c-.1299 0-.2544.0175-.3846.0193-1.2159 3.7701-.0458 8.6159 2.2669 9.7899 2.4905 1.2643 7.9291-1.2953 9.6483-5.1444.3277-.7344.5771-1.2874.602-2.0912-3.9086-1.6975-7.8696-2.5718-12.1308-2.5718zm-2.135.1155c-4.9788.3492-13.7245 4.3679-13.7245 4.3679s1.388 2.3574 2.8071 3.2228c3.1111 1.8988 8.5149 2.1953 10.4613-1.4302.8861-1.652.9301-3.9572.4561-6.1605zm15.1634 5.6554c-1.1186 0-4.0502 2.4096-4.0502 3.4774 0 1.0657 2.3546 3.7816 3.4735 3.7816 1.119 0 .7252-3.6449.7252-4.7106 0-1.066.9723-2.5463-.1485-2.5463zm-24.3688 3.2886c-1.4849-.1446-3.5375 1.6054-4.0319 2.5788-.5659 1.1122-.6063 4.0151.8585 4.8633 1.4649.8478 2.7413-1.066 3.309-2.1803.5659-1.1122 1.9246-4.2309.4597-5.0787-.1826-.1046-.3857-.1684-.5953-.1871zm9.0076.3777c-1.6244.0233-3.4721.5878-4.9935 1.3454-3.0435 1.5129-3.6331 5.3699-2.3825 8.2303 1.2489 2.8604 2.996 3.9496 6.0392 2.4364 3.0432-1.5131 6.2352-7.2203 4.9842-10.0807-.6242-1.4302-2.0233-1.9529-3.6474-1.9275zm8.6502 1.2914c-.6575.058-1.3457.2815-2.0601.6861-2.8565 1.6248-3.8563 6.3687-2.4097 9.2655 1.4467 2.8973 5.3727 4.3947 8.231 2.7699 2.8564-1.6248 2.4078-6.5246.9612-9.4236-1.0857-2.1721-2.7502-3.4714-4.7206-3.3zm8.1523 4.3618c-1.6627.108-1.7926 2.4518-1.7214 3.7143.0715 1.2645.4651 4.6762 2.1278 4.5685 1.6627-.108 2.8071-3.3809 2.7359-4.6454-.0716-1.2646-1.4796-3.7451-3.1423-3.6392zm-16.0902 6.6172c-2.2101-.0365-4.6272 1.6094-5.7187 3.3712-1.4538 2.3478-2.1682 4.3139.3663 6.0986 2.5342 1.7868 6.4896 1.4842 7.9434-.8636 1.4538-2.3474 2.0251-6.1622-.5091-7.949-.6335-.4472-1.3457-.6457-2.0837-.6572zm-7.5481.586c-.9065 0-2.2211.7287-2.2211 2.0086 0 1.2796.5913 1.8502 1.4978 1.8502s1.789-.5706 1.789-1.8502c0-1.2799-.1574-2.0086-1.0639-2.0086zm14.4551 2.7795c-1.3991 0-2.6773 2.8393-2.6773 4.6297 0 1.7908 1.8552 1.8545 3.2543 1.8545 1.3987 0 3.2592-1.4513 3.2592-3.2421s-2.4372-3.2421-3.8362-3.2421z"/>
    <path d="m48.0704 24.8786s8.7457-4.0187 13.7245-4.3679l-.4561-.5107h-15.0263c.1578 2.1367 1.7579 4.8786 1.7579 4.8786z"/>
    <path d="m63.5453 20.4145c.1302-.0018.2547-.0193.3846-.0193l.0018.0018c4.2612 0 8.2222.8743 12.1308 2.5718.0437-1.4098-.4903-2.9532-1.0928-2.9688h-11.0398z"/>
  </g>
  <path d="m34.8774 64.7294c4.7993-10.2846 7.5752-21.1023 8.3172-32.4637-7.7155-4.248-12.4071-.19-14.0856 12.1627-.2371 5.8961 1.6892 12.6664 5.7684 20.301z" fill="#f6f5f4"/>
  <path d="m37.5936 46.2281c-.5587.0448-1.4756-.3352-2.4146.302-1.0586.7519-1.7636 2.9466-3.6331 3.935-.5638.2981-1.201.4359-1.9117.4135-.6525-2.3907-.7945-4.6902-.4583-6.931.8536.1191 1.8323.2007 2.6272.0895 1.6545-.4472 2.5263-.7824 2.9176-.7488 1.666.1428 3.2979 1.8334 3.3648 2.5041.0097.0952.0673.391-.4919.4357z" fill="#3d3846"/>
  <path d="m93.1226 64.7294c-4.7993-10.2846-7.5753-21.1023-8.3172-32.4637 7.7155-4.248 12.4071-.19 14.0855 12.1627.2372 5.8961-1.6891 12.6664-5.7683 20.301z" fill="#f6f5f4"/>
  <path d="m90.4064 46.2281c.5587.0448 1.4756-.3352 2.4146.302 1.0585.7519 1.7636 2.9466 3.6331 3.935.5638.2981 1.201.4359 1.9117.4135.6525-2.3907.7945-4.6902.4582-6.931-.8535.1191-1.8322.2007-2.6271.0895-1.6545-.4472-2.5263-.7824-2.9176-.7488-1.666.1428-3.2979 1.8334-3.3648 2.5041-.0097.0952-.0673.391.4919.4357z" fill="#3d3846"/>
</svg>
