<svg enable-background="new" height="128" viewBox="0 0 128 128" width="128" xmlns="http://www.w3.org/2000/svg" xmlns:xlink="http://www.w3.org/1999/xlink">
  <linearGradient id="linearGradient1329" gradientUnits="userSpaceOnUse" x1="11.823" x2="115.82" y1="268" y2="268">
    <stop offset="0" stop-color="#7e0024"/>
    <stop offset=".029" stop-color="#b47385"/>
    <stop offset=".058" stop-color="#702"/>
    <stop offset=".942" stop-color="#702"/>
    <stop offset=".971" stop-color="#b47385"/>
    <stop offset="1" stop-color="#7e0024"/>
  </linearGradient>
  <linearGradient id="linearGradient1610" gradientUnits="userSpaceOnUse" x1="70.586" x2="60" y1="223.255" y2="193">
    <stop offset="0" stop-color="#fff"/>
    <stop offset="1" stop-color="#deddda"/>
  </linearGradient>
  <linearGradient id="linearGradient1612" gradientUnits="userSpaceOnUse" x1="60" x2="68" y1="268" y2="268">
    <stop offset="0" stop-color="#949390"/>
    <stop offset=".083" stop-color="#d5d3cf"/>
    <stop offset=".167" stop-color="#949390"/>
    <stop offset=".833" stop-color="#949390"/>
    <stop offset=".917" stop-color="#d5d3cf"/>
    <stop offset="1" stop-color="#949390"/>
  </linearGradient>
  <g enable-background="new" transform="translate(.17678 -172)">
    <rect fill="url(#linearGradient1329)" height="76" rx="8" width="104" x="12" y="212"/>
    <rect height="68" opacity=".1" rx="8" width="104" x="12" y="186"/>
    <rect fill="#a80030" height="68" rx="8" width="104" x="12" y="184"/>
    <path d="m62 192h2v60h-2z" fill="#cdab8f"/>
    <path d="m64-252h2v60h-2z" fill="#eadcd0" transform="scale(1 -1)"/>
    <g enable-background="new" transform="translate(0 17)">
      <path d="m60 178v4h4v-2h4v-2h-4zm4 4v2h-4v4h4v-2h4v-4zm0 6v2h-4v4h4v-2h4v-4zm0 6v2h-4v4h4v-2h4v-2-2zm0 6v2h-4v4h4v-2h4v-4zm0 6v2h-4v4h4v-2h4v-4zm0 6v2h-4v4h4v-2h4v-2-2zm0 6v2h-4v4h4v-2h4v-4zm0 6v2h-4v4h4v-2h4v-4zm0 6v2h-4v4h4v-2h4v-2-2z" fill="url(#linearGradient1610)"/>
      <path d="m64 179v1h4v-1zm-4 2v1h4v-1zm4 4v1h4v-1zm-4 2v1h4v-1zm4 4v1h4v-1zm-4 2v1h4v-1zm4 4v1h4v-1zm-4 2v1h4v-1zm4 4v1h4v-1zm-4 2v1h4v-1zm4 4v1h4v-1zm-4 2v1h4v-1zm4 4v1h4v-1zm-4 2v1h4v-1zm4 4v1h4v-1zm-4 2v1h4v-1zm4 4v1h4v-1zm-4 2v1h4v-1zm4 4v1h4v-1zm-4 2v1h4v-1z" fill="#241f31" opacity=".4"/>
    </g>
    <path d="m60 186c-2.216 0-4 1.784-4 4v10c0 2.216 1.784 4 4 4v8c0 1.108.892 2 2 2h4c1.108 0 2-.892 2-2v-8c2.216 0 4-1.784 4-4v-10c0-2.216-1.784-4-4-4zm2 22h4v4h-4z" opacity=".1"/>
    <g enable-background="new" transform="translate(0 -66)">
      <path d="m62 258c-1.108 0-2 .892-2 2v16c0 1.108.892 2 2 2h4c1.108 0 2-.892 2-2v-16c0-1.108-.892-2-2-2zm0 14h4v4h-4z" fill="url(#linearGradient1612)"/>
      <rect fill="#3d3846" height="18" rx="4" width="16" x="56" y="250"/>
      <rect fill="#5e5c64" height="18" rx="4" width="16" x="56" y="248"/>
      <path d="m62 254c-1.108 0-2 .892-2 2v18c0 1.108.892 2 2 2h4c1.108 0 2-.892 2-2v-18c0-1.108-.892-2-2-2zm0 16h4v4h-4z" fill="#fff"/>
      <g transform="scale(1 -1)">
        <rect fill="#68676b" height="10" rx="2" width="4" x="62" y="-260"/>
        <rect fill="#949390" height="8" rx="2" width="4" x="62" y="-258"/>
      </g>
    </g>
    <g fill="#fff" transform="translate(-.17678 172)">
      <path d="m16.178 13.072c-.7547.43517-1.4278.98966-2 1.6387v62.578c.57218.64901 1.2453 1.2035 2 1.6387z" opacity=".1"/>
      <path d="m112.18 13.072v65.855c.75493-.43551 1.4278-.99114 2-1.6406v-62.574c-.57219-.64949-1.2451-1.2051-2-1.6406z" opacity=".1"/>
    </g>
  </g>
  <g enable-background="new" fill="#fff" transform="matrix(.36311186 0 0 .36311186 71.723442 42.188572)">
    <path d="m60.969 47.645c-1.494.02.281.768 2.232 1.069.541-.422 1.027-.846 1.463-1.26-1.213.297-2.449.304-3.695.191"/>
    <path d="m68.986 45.646c.893-1.229 1.541-2.573 1.77-3.963-.201.99-.736 1.845-1.244 2.749-2.793 1.759-.264-1.044-.002-2.111-3.002 3.783-.414 2.268-.524 3.325"/>
    <path d="m71.949 37.942c.182-2.691-.529-1.839-.768-.814.278.146.499 1.898.768.814"/>
    <path d="m55.301 1.163c.798.142 1.724.252 1.591.443.876-.193 1.073-.367-1.591-.443"/>
    <path d="m56.893 1.606-.561.117.523-.048z"/>
    <path d="m81.762 38.962c.09 2.416-.705 3.59-1.424 5.666l-1.293.643c-1.057 2.054.105 1.304-.652 2.937-1.652 1.467-5.006 4.589-6.08 4.875-.785-.017.531-.926.703-1.281-2.209 1.516-1.773 2.276-5.152 3.199l-.098-.221c-8.33 3.92-19.902-3.847-19.75-14.443-.088.672-.253.504-.437.774-.43-5.451 2.518-10.926 7.49-13.165 4.863-2.406 10.564-1.42 14.045 1.829-1.912-2.506-5.721-5.163-10.232-4.917-4.421.072-8.558 2.881-9.938 5.932-2.264 1.425-2.528 5.496-3.514 6.242-1.329 9.76 2.497 13.975 8.97 18.936 1.016.686.286.791.422 1.313-2.15-1.006-4.118-2.526-5.738-4.387.86 1.257 1.787 2.479 2.986 3.439-2.029-.685-4.738-4.913-5.527-5.085 3.495 6.258 14.178 10.975 19.775 8.634-2.59.096-5.879.053-8.787-1.022-1.225-.629-2.884-1.93-2.587-2.173 7.636 2.851 15.522 2.158 22.128-3.137 1.682-1.31 3.518-3.537 4.049-3.567-.799 1.202.137.578-.477 1.639 1.672-2.701-.729-1.1 1.73-4.664l.908 1.25c-.34-2.244 2.785-4.966 2.467-8.512.717-1.084.799 1.168.039 3.662 1.055-2.767.279-3.212.549-5.496.291.768.678 1.583.875 2.394-.688-2.675.703-4.503 1.049-6.058-.342-.15-1.061 1.182-1.227-1.976.025-1.372.383-.719.52-1.057-.268-.155-.975-1.207-1.404-3.224.309-.475.832 1.229 1.256 1.298-.273-1.603-.742-2.826-.762-4.057-1.24-2.59-.439.346-1.443-1.112-1.32-4.114 1.094-.955 1.258-2.823 1.998 2.895 3.137 7.385 3.662 9.244-.4-2.267-1.045-4.464-1.834-6.589.609.257-.979-4.663.791-1.405-1.889-6.945-8.078-13.435-13.773-16.479.695.637 1.574 1.437 1.26 1.563-2.834-1.685-2.336-1.818-2.742-2.53-2.305-.939-2.459.077-3.984.002-4.35-2.308-5.188-2.063-9.191-3.507l.182.852c-2.881-.96-3.357.362-6.47.002-.189-.147.998-.536 1.976-.677-2.786.368-2.656-.55-5.382.101.671-.471 1.383-.784 2.099-1.184-2.271.138-5.424 1.322-4.451.244-3.705 1.654-10.286 3.975-13.979 7.438l-.116-.776c-1.692 2.031-7.379 6.066-7.832 8.699l-.453.105c-.879 1.491-1.45 3.18-2.148 4.713-1.151 1.963-1.688.756-1.524 1.064-2.265 4.592-3.392 8.45-4.363 11.616.692 1.035.017 6.232.278 10.391-1.136 20.544 14.418 40.489 31.42 45.093 2.492.893 6.197.861 9.349.949-3.718-1.064-4.198-.563-7.822-1.826-2.613-1.232-3.185-2.637-5.037-4.244l.733 1.295c-3.63-1.285-2.111-1.59-5.065-2.525l.783-1.021c-1.177-.09-3.117-1.982-3.647-3.033l-1.288.051c-1.546-1.906-2.371-3.283-2.31-4.35l-.416.742c-.471-.809-5.691-7.158-2.983-5.68-.503-.458-1.172-.747-1.897-2.066l.551-.629c-1.301-1.677-2.398-3.826-2.314-4.542.695.938 1.177 1.114 1.655 1.275-3.291-8.164-3.476-.449-5.967-8.31l.526-.042c-.403-.611-.65-1.27-.974-1.919l.23-2.285c-2.368-2.736-.662-11.645-.319-16.53.235-1.986 1.977-4.101 3.3-7.418l-.806-.138c1.542-2.688 8.802-10.799 12.166-10.383 1.629-2.046-.324-.008-.643-.522 3.579-3.703 4.704-2.616 7.119-3.283 2.603-1.545-2.235.604-1.001-.589 4.503-1.149 3.19-2.614 9.063-3.197.62.352-1.437.544-1.953 1.001 3.75-1.836 11.869-1.417 17.145 1.018 6.117 2.861 12.994 11.314 13.266 19.267l.309.083c-.156 3.162.484 6.819-.627 10.177z"/>
    <path d="m44.658 49.695-.211 1.047c.983 1.335 1.763 2.781 3.016 3.821-.902-1.759-1.571-2.486-2.805-4.868"/>
    <path d="m46.979 49.605c-.52-.576-.826-1.268-1.172-1.956.33 1.211 1.006 2.252 1.633 3.312z"/>
    <path d="m88.063 40.675-.219.552c-.402 2.858-1.273 5.686-2.605 8.309 1.472-2.767 2.421-5.794 2.824-8.861"/>
    <path d="m55.598.446c1.009-.369 2.482-.203 3.556-.446-1.398.117-2.789.187-4.162.362z"/>
    <path d="m20.127 19.308c.233 2.154-1.62 2.991.41 1.569 1.09-2.454-.424-.677-.41-1.569"/>
    <path d="m17.739 29.282c.469-1.437.553-2.299.732-3.132-1.293 1.654-.596 2.007-.732 3.132"/>
  </g>
</svg>
