<svg enable-background="new" height="128" viewBox="0 0 128 128" width="128" xmlns="http://www.w3.org/2000/svg" xmlns:xlink="http://www.w3.org/1999/xlink">
  <linearGradient id="linearGradient1037" gradientUnits="userSpaceOnUse" x1="96" x2="104" y1="255" y2="255">
    <stop offset="0" stop-color="#e8e7e4"/>
    <stop offset=".5" stop-color="#fff"/>
    <stop offset="1" stop-color="#c9c6c1"/>
  </linearGradient>
  <g transform="translate(0 -172)">
    <path d="m24 200v92h72c4.432 0 8-3.568 8-8v-76c0-4.432-3.568-8-8-8z" fill="#a51d2d"/>
    <path d="m24 274h8v18h-8z" fill="#191622"/>
    <path d="m26 220v70h70c4.432 0 8-3.568 8-8v-54c0-4.432-3.568-8-8-8z" fill="url(#linearGradient1037)"/>
    <path d="m24 200v76h72c4.432 0 8-3.568 8-8v-60c0-4.432-3.568-8-8-8z" fill="#ac1d2e"/>
    <path d="m24 180v94h72c4.432 0 8-3.568 8-8v-78c0-4.432-3.568-8-8-8z" fill="#ed333b"/>
    <path d="m24 180h8v94h-8z" fill="#424048"/>
    <g fill="#fff">
      <path d="m26 180.00001h2v94h-2z" opacity=".223"/>
      <path d="m58 206.02051v5.9795h-.74854c-2.18863 0-3.26074 1.20587-3.26074 3.30517v6.61621c0 3.08196-.93803 4.37761-2.99267 5.00293 2.05464.62533 2.99267 1.92049 2.99267 5.00244v6.76807c0 2.0993 1.07211 3.30518 3.26074 3.30518h.74854v5.82763h-1.56641c-5.58325 0-8.44189-2.85852-8.44189-7.99511v-7.73145c0-1.42931-.75936-2.10413-1.96533-2.09961l-2.02637-.00146v-5.9585l2.02637.002c1.20598.001 1.96533-.6703 1.96533-2.09961v-7.92827c0-5.13659 2.85864-7.99512 8.44189-7.99512z"/>
      <path d="m74 206.02051v5.9795h.74853c2.18864 0 3.26075 1.20587 3.26075 3.30517v6.61621c0 3.08196.93803 4.37761 2.99267 5.00293-2.05464.62533-2.99267 1.92049-2.99267 5.00244v6.76807c0 2.0993-1.07211 3.30518-3.26075 3.30518h-.74853v5.82763h1.5664c5.58326 0 8.4419-2.85852 8.4419-7.99511v-7.73145c0-1.42931.75936-2.10413 1.96533-2.09961l2.02637-.00146v-5.9585l-2.02637.002c-1.20598.001-1.96533-.6703-1.96533-2.09961v-7.92827c0-5.13659-2.85864-7.99512-8.4419-7.99512z"/>
    </g>
    <path d="m24 274h8v2h-8z" fill="#191622"/>
  </g>
</svg>
