<svg fill="none" height="128" viewBox="0 0 128 128" width="128" xmlns="http://www.w3.org/2000/svg">
  <g fill="#241f31" opacity=".25">
    <path clip-rule="evenodd" d="m62.7795 20.0457-43.7918 43.7917c-1.1944 1.1944-1.1944 3.1308 0 4.3252l43.7918 43.7914c1.1943 1.195 3.1307 1.195 4.3251 0l43.7914-43.7914c1.195-1.1944 1.195-3.1308 0-4.3252l-43.7914-43.7917c-1.1944-1.1944-3.1308-1.1944-4.3251 0zm-45.9544 41.6292 43.7918-43.7918c2.3887-2.3887 6.2615-2.3887 8.6502 0l43.7919 43.7918c2.389 2.3887 2.389 6.2615 0 8.6502l-43.7919 43.7919c-2.3887 2.389-6.2615 2.389-8.6502 0l-43.7918-43.7919c-2.3887-2.3887-2.3887-6.2615 0-8.6502z" fill-rule="evenodd"/>
    <path d="m18.9877 63.8374 43.7918-43.7917c1.1943-1.1944 3.1307-1.1944 4.3251 0l43.7914 43.7917c1.195 1.1944 1.195 3.1308 0 4.3252l-43.7914 43.7914c-1.1944 1.195-3.1308 1.195-4.3251 0l-43.7918-43.7914c-1.1944-1.1944-1.1944-3.1308 0-4.3252z"/>
  </g>
  <path clip-rule="evenodd" d="m62.2795 19.4877-43.7918 43.7918c-1.1944 1.1943-1.1944 3.1307 0 4.3251l43.7918 43.7914c1.1943 1.195 3.1307 1.195 4.3251 0l43.7914-43.7914c1.195-1.1944 1.195-3.1308 0-4.3251l-43.7914-43.7918c-1.1944-1.1944-3.1308-1.1944-4.3251 0zm-45.9544 41.6292 43.7918-43.7918c2.3887-2.3887 6.2615-2.3887 8.6502 0l43.7919 43.7918c2.389 2.3887 2.389 6.2615 0 8.6502l-43.7919 43.7919c-2.3887 2.389-6.2615 2.389-8.6502 0l-43.7918-43.7919c-2.3887-2.3887-2.3887-6.2615 0-8.6502z" fill="#e5a50a" fill-rule="evenodd"/>
  <path d="m18.4877 63.2795 43.7918-43.7918c1.1943-1.1944 3.1307-1.1944 4.3251 0l43.7914 43.7918c1.195 1.1943 1.195 3.1307 0 4.3251l-43.7914 43.7914c-1.1944 1.195-3.1308 1.195-4.3251 0l-43.7918-43.7914c-1.1944-1.1944-1.1944-3.1308 0-4.3251z" fill="#e5a50a"/>
  <path clip-rule="evenodd" d="m62.3207 19.364-42.9567 42.9567c-1.1716 1.1716-1.1716 3.0711 0 4.2426l42.9567 42.9567c1.1716 1.172 3.0711 1.172 4.2426 0l42.9567-42.9567c1.172-1.1715 1.172-3.071 0-4.2426l-42.9567-42.9567c-1.1715-1.1716-3.071-1.1716-4.2426 0zm-45.0781 40.8354 42.9568-42.9568c2.3431-2.3431 6.1421-2.3431 8.4853 0l42.9563 42.9568c2.344 2.3431 2.344 6.1421 0 8.4853l-42.9563 42.9563c-2.3432 2.344-6.1422 2.344-8.4853 0l-42.9568-42.9563c-2.3431-2.3432-2.3431-6.1422 0-8.4853z" fill="#f5c211" fill-rule="evenodd"/>
  <path d="m19.364 62.3207 42.9567-42.9567c1.1716-1.1716 3.0711-1.1716 4.2426 0l42.9567 42.9567c1.172 1.1716 1.172 3.0711 0 4.2426l-42.9567 42.9567c-1.1715 1.172-3.071 1.172-4.2426 0l-42.9567-42.9567c-1.1716-1.1715-1.1716-3.071 0-4.2426z" fill="#f5c211"/>
  <path d="m66.9003 38.1875v17.1739l-9.8333 9.8333.0344.0345h-.0344v24.5833h4.9167v-22.5823l4.9166-4.9166v27.4989h4.9167v-51.625z" fill="#3d3846"/>
</svg>
