<svg
   enable-background="new" height="128" viewBox="0 0 128 128" width="128" version="1.1" xmlns="http://www.w3.org/2000/svg">
  <path d="m132.07686 235.84616a69.230763 69.230763 0 0 1 -69.23076 69.23076 69.230763 69.230763 0 0 1 -69.2307765-69.23076 69.230763 69.230763 0 0 1 69.2307765-69.23077 69.230763 69.230763 0 0 1 69.23076 69.23077z" fill="#1c5397" transform="matrix(.86666673 0 0 .86666673 9.533387 -137.40002)" id="path2" style="fill:#3f4ddc;fill-opacity:1" />
  <g fill="#3584e4" transform="matrix(.86666673 0 0 .86666673 9.533387 -142.40002)" id="g8">
    <path d="m132.07686 235.84616a69.230763 69.230763 0 0 1 -69.23076 69.23076 69.230763 69.230763 0 0 1 -69.2307765-69.23076 69.230763 69.230763 0 0 1 69.2307765-69.23077 69.230763 69.230763 0 0 1 69.23076 69.23077z" fill="#3584e4" id="path4" fill="#5865f2" />
    <path d="m 98.286531,202.07669 a 84.163524,84.163524 0 0 0 -20.994855,-6.45935 57.677829,57.677829 0 0 0 -2.689389,5.46684 78.184432,78.184432 0 0 0 -23.30005,0 57.925958,57.925958 0 0 0 -2.689392,-5.46684 84.755833,84.755833 0 0 0 -21.010866,6.47537 c -13.286871,19.65816 -16.888734,38.82807 -15.087802,57.72585 v 0 a 84.627764,84.627764 0 0 0 25.749316,12.92669 62.192164,62.192164 0 0 0 5.514852,-8.89261 54.764323,54.764323 0 0 1 -8.684492,-4.14614 c 0.728377,-0.52828 1.440746,-1.07256 2.129102,-1.60083 a 60.487282,60.487282 0 0 0 51.482626,0 c 0.696356,0.5683 1.408722,1.11258 2.129094,1.60083 a 54.972431,54.972431 0 0 1 -8.700494,4.15414 61.631874,61.631874 0 0 0 5.514852,8.88461 84.243569,84.243569 0 0 0 25.765327,-12.91868 v 0 c 2.11308,-21.91534 -3.60987,-40.90916 -15.127829,-57.74988 z m -52.227005,46.11985 c -5.018596,0 -9.16474,-4.55434 -9.16474,-10.15725 0,-5.60289 4.002069,-10.19727 9.148731,-10.19727 5.146662,0 9.26079,4.59438 9.172744,10.19727 -0.08804,5.60291 -4.042091,10.15725 -9.156735,10.15725 z m 33.809486,0 c -5.026601,0 -9.156738,-4.55434 -9.156738,-10.15725 0,-5.60289 4.002071,-10.19727 9.156738,-10.19727 5.154667,0 9.236774,4.59438 9.14873,10.19727 -0.08805,5.60291 -4.034089,10.15725 -9.14873,10.15725z" fill="#ffffff" />
  </g>
</svg>
