<svg enable-background="new" height="128" viewBox="0 0 128 128" width="128" xmlns="http://www.w3.org/2000/svg">
  <g enable-background="new" fill="#fff" transform="matrix(.15 0 -.01875 .15 136.97501 41.100001)">
    <path d="m-247.66678-233.33334h-536.00001c-45.2 0-77.4 36.8-71.7 82.4l67.6 540.8c5.7 45.6 47.10001 82.4 92.30001 82.4h461.84958l-38.69958-74 57.15 47.6 54 44.8 95.500031 76-89.700031-717.6c-5.7-45.6-47.1-82.4-92.3-82.4zm-89.1 522.4s-16.55-17.2-30.45-32.4c50.55-14.8 66.45-47.6 66.45-47.6-15.05 10.8-29.7 18.4-43.05 23.6-18.95 8.4-37.45 14-55.85 17.2-37.5 7.2-72.95 5.2-103.65-.4-23.35-4.4-43.75-10.8-60.95-17.2-9.65-3.6-20.2-8-30.9-13.6-1.3-.8-2.55-1.2-3.85-2-.85-.4-1.3-.8-1.75-1.2-7.7-4-12.05-6.8-12.05-6.8s23.2 32 75.9 47.2c-10.1 15.2-22.65 33.2-22.65 33.2-88.75-2.8-129.6-60.8-129.6-60.8-16.1-128.800001 28.45-233.2000047 28.45-233.2000047 52.2-43.2000003 107.15-42.0000003 107.15-42.0000003l4.6 4.8c-69.4 20.8-98.65 52.4-98.65 52.4s8.2-4.7999997 22.15-11.5999997c40.45-18.8000003 73.8-24.0000003 87.65-25.2000003 2.35-.4 4.3-.8 6.7-.8 24-3.2 51.5-4 80.7-.8 38.55 4.4 80.75 15.6 125.2 38.4 0 0-35.35-30-105.95-50.8l4.8-6.4s54.65-1.2 117.65 42.0000003c0 0 70.65 104.4000037 86.75 233.2000047 0 0-26.75 58-114.8 60.8z" fill="#4256a0"/>
    <path d="m-766.5-205.59h573.333v527.406h-573.333z" fill="#fff" transform="matrix(1 0 .12403473 .99227788 0 0)"/>
    <g fill="#7289da">
      <path d="m-548.70008 81.599996c-22.8 0-38.3 20.000004-35.25 44.400004s23.95 44.4 46.35 44.4c22.8 0 38.3-20 35.25-44.4-2.65-24.4-23.55-44.400004-46.35-44.400004zm146 0c-22.8 0-38.3 20.000004-35.25 44.400004s23.95 44.4 46.35 44.4c22.8 0 38.3-20 35.25-44.4s-23.55-44.400004-46.35-44.400004z"/>
      <path d="m-250.25008-254h-536.00001c-45.2 0-77.4 36.8-71.7 82.4l67.6 540.8c5.7 45.6 47.10001 82.4 92.30001 82.4h453.6l-30.45-74 57.15 47.6 54 44.8 95.499998 76-89.699998-717.6c-5.7-45.6-47.1-82.4-92.3-82.4zm-89.1 522.4s-16.55-17.2-30.45-32.4c50.55-14.8 66.45-47.6 66.45-47.6-15.05 10.8-29.7 18.4-43.05 23.6-18.95 8.4-37.45 14-55.85 17.2-37.5 7.2-72.95 5.2-103.65-.4-23.35-4.4-43.75-10.8-60.95-17.2-9.65-3.6-20.2-8-30.9-13.6-1.3-.8-2.55-1.2-3.85-2-.85-.4-1.3-.8-1.75-1.2-7.7-4-12.05-6.8-12.05-6.8s23.2 32 75.9 47.2c-10.1 15.2-22.65 33.2-22.65 33.2-88.75-2.8-129.6-60.8-129.6-60.8-16.1-128.800004 28.45-233.200008 28.45-233.200008 52.2-43.2 107.15-42 107.15-42l4.6 4.8c-69.4 20.8-98.65 52.4-98.65 52.4s8.2-4.8 22.15-11.6c40.45-18.8 73.8-24 87.65-25.2 2.35-.4 4.3-.8 6.7-.8 24-3.2 51.5-4 80.7-.8 38.55 4.4 80.75 15.6 125.2 38.4 0 0-35.35-30-105.95-50.8l4.8-6.4s54.65-1.2 117.65 42c0 0 70.65 104.400004 86.75 233.200008 0 0-26.75 58-114.8 60.8z"/>
    </g>
  </g>
</svg>
