<svg enable-background="new" height="128" viewBox="0 0 128 128" width="128" xmlns="http://www.w3.org/2000/svg" xmlns:xlink="http://www.w3.org/1999/xlink">
  <radialGradient id="radialGradient1030-8" cx="64" cy="194.19" gradientTransform="matrix(-4.7272726 .00000129 -.0000003 -1.4318182 490.54548 36.71204)" gradientUnits="userSpaceOnUse" r="44">
    <stop offset="0" stop-color="#fff"/>
    <stop offset="1" stop-color="#fff" stop-opacity=".094118"/>
  </radialGradient>
  <linearGradient id="linearGradient1444-2-3-3" gradientUnits="userSpaceOnUse" x1="135.99999" x2="247.99999" y1="246.000027" y2="246.000027">
    <stop offset="0" stop-color="#d5d3cf"/>
    <stop offset=".036" stop-color="#e4e1de"/>
    <stop offset=".071" stop-color="#d5d3cf"/>
    <stop offset=".929" stop-color="#d5d3cf"/>
    <stop offset=".964" stop-color="#e4e1de"/>
    <stop offset="1" stop-color="#d5d3cf"/>
  </linearGradient>
  <radialGradient id="radialGradient2561" cx="131.915" cy="55.927" gradientTransform="matrix(.27422239 -.65633356 -.43584762 -.03616942 -6.580881 152.00005)" gradientUnits="userSpaceOnUse" r="160">
    <stop offset="0" stop-color="#e01b24"/>
    <stop offset="1" stop-color="#f8e45c"/>
  </radialGradient>
  <radialGradient id="radialGradient3300" cx="525.588" cy="638.592" gradientTransform="matrix(-.15348725 -.31454803 -.29858559 .21589871 387.34532 128.39058)" gradientUnits="userSpaceOnUse" r="192">
    <stop offset="0" stop-color="#2ec27e"/>
    <stop offset="1" stop-color="#57e389" stop-opacity="0"/>
  </radialGradient>
  <g transform="translate(-128 -140)">
    <rect fill="#f6f5f4" height="88" rx="8" width="112" x="136" y="168"/>
    <g enable-background="new" transform="matrix(.27083332221 0 0 .31249999721 122.66666228841 198.2499979942)">
      <path d="m16 32c-.554 0-1.081672.110625-1.560547.3125s-.908031.495922-1.269531.857422-.655547.790656-.857422 1.269531-.3125 1.006547-.3125 1.560547v70c0 .554.110625 1.08167.3125 1.56055.201875.47887.495922.90803.857422 1.26953s.790656.65554 1.269531.85742 1.006547.3125 1.560547.3125h96c.554 0 1.08167-.11062 1.56055-.3125.47887-.20188.90803-.49592 1.26953-.85742s.65554-.79066.85742-1.26953c.20188-.47888.3125-1.00655.3125-1.56055v-70c0-.554-.11062-1.081672-.3125-1.560547s-.49592-.908031-.85742-1.269531-.79066-.655547-1.26953-.857422c-.47888-.201875-1.00655-.3125-1.56055-.3125z" fill="url(#radialGradient2561)" transform="matrix(3.6923078 0 0 3.2 19.692326 -186.4)"/>
      <path d="m16 32c-.554 0-1.081672.110625-1.560547.3125s-.908031.495922-1.269531.857422-.655547.790656-.857422 1.269531-.3125 1.006547-.3125 1.560547v70c0 .554.110625 1.08167.3125 1.56055.201875.47887.495922.90803.857422 1.26953s.790656.65554 1.269531.85742 1.006547.3125 1.560547.3125h96c.554 0 1.08167-.11062 1.56055-.3125.47887-.20188.90803-.49592 1.26953-.85742s.65554-.79066.85742-1.26953c.20188-.47888.3125-1.00655.3125-1.56055v-70c0-.554-.11062-1.081672-.3125-1.560547s-.49592-.908031-.85742-1.269531-.79066-.655547-1.26953-.857422c-.47888-.201875-1.00655-.3125-1.56055-.3125z" fill="url(#radialGradient3300)" transform="matrix(3.6923078 0 0 3.2 19.692326 -186.4)"/>
    </g>
    <path d="m135.99999 246v4c0 4.432 3.568 8 8 8h96c4.432 0 8-3.568 8-8v-4c0 4.432-3.568 8-8 8h-96c-4.432 0-8-3.568-8-8z" fill="url(#linearGradient1444-2-3-3)"/>
    <path d="m144-246h96v70h-96z" fill="url(#radialGradient1030-8)" opacity=".05" transform="scale(1 -1)"/>
    <g transform="matrix(4.6673577 0 0 4.6673577 5.522773 -853.88619)">
      <g fill="#080700" fill-opacity=".8375">
        <path d="m41.122051 226.97967-3.517249.45324-.591768 3.45524-1.517939-3.20505-3.469003.50493 2.579112-2.43406-1.552194-3.14318 3.111917 1.70071 2.5097-2.44752-.655841 3.48516z" opacity=".1"/>
        <path d="m47.023871 227.33338-1.298443-.17969-.546381 1.17492-.230347-1.29042-1.286252-.15657 1.156081-.61784-.248567-1.27168.944844.90858 1.132631-.62937-.572135 1.17937z" opacity=".1"/>
        <path d="m44.812045 223.52612-1.795496.96183.388204 1.9757-1.469599-1.4104-1.759037.97973.887235-1.83351-1.47535-1.37019 2.017939.27723.847225-1.82655.359921 2.00484z" opacity=".1"/>
        <path d="m39.322704 228.68007c-.449408.00009-.670595.54685-.347656.85938l6.011567 6.18638c.471254.49084 1.197872-.23577.707032-.70703l-6.011568-6.18639c-.09421-.0974-.223892-.15234-.359375-.15234z" fill-rule="evenodd" opacity=".1"/>
      </g>
      <path d="m37.988739 228.53897-2.297797-2.35131-2.888395 1.48949 1.526172-2.91193-2.309155-2.28675 3.241023.55164 1.461259-2.90278.476891 3.25286 3.212262.49274-2.946288 1.45874z" fill="#fff601" fill-opacity=".995238" transform="matrix(.64913853 -.86150281 .86150281 .64913853 -179.99636 110.92512)"/>
      <path d="m37.988739 228.53897-2.297797-2.35131-2.888395 1.48949 1.526172-2.91193-2.309155-2.28675 3.241023.55164 1.461259-2.90278.476891 3.25286 3.212262.49274-2.946288 1.45874z" fill="#fff601" fill-opacity=".995238" transform="matrix(.17246664 -.59507374 .59507374 .17246664 -97.308777 206.28836)"/>
      <path d="m37.988739 228.53897-2.297797-2.35131-2.888395 1.48949 1.526172-2.91193-2.309155-2.28675 3.241023.55164 1.461259-2.90278.476891 3.25286 3.212262.49274-2.946288 1.45874z" fill="#fff601" fill-opacity=".995238" transform="matrix(.31512729 -.24426588 .24426588 .31512729 -20.343182 164.16536)"/>
      <path d="m39.751212 228.25156c-.449408.00009-.670595.54685-.347656.85938l6.011567 6.18638c.471254.49084 1.197872-.23577.707032-.70703l-6.011568-6.18639c-.09421-.0974-.223892-.15234-.359375-.15234z" fill="#434343" fill-rule="evenodd"/>
      <path d="m63.056641 71.445312c-2.097548.000421-3.130319 2.55303-1.623047 4.011719l4.490234 4.619141 3.298828-3.298828-4.490234-4.621094c-.439712-.454601-1.043434-.710938-1.675781-.710938z" fill="#fff" fill-rule="evenodd" transform="matrix(.21425399 0 0 .21425399 26.241234 212.94408)"/>
      <path d="m45.774173 235.44964c.4494-.00009.67068-.547.34774-.85953l-.96205-.98967-.70679.70679.96205.99009c.0942.0974.22356.15232.35905.15232z" fill="#fff" fill-rule="evenodd"/>
      <path d="m61.789062 71.839844c-.023658.015537-.061017.010995-.083984.027344-.3682.262094-.646563.626924-.8125 1.037109s-.219121.866169-.136719 1.310547c.082403.444377.300917.877515.677735 1.242187l28.058594 28.873049c.549877.57273 1.174172.78991 1.765624.75976.591453-.03014 1.15015-.3064 1.56836-.72461.108738-.10873.099623-.28238.1875-.4082z" fill="#050000" opacity=".05" transform="matrix(.21425399 0 0 .21425399 26.241234 212.94408)"/>
    </g>
  </g>
</svg>
