<svg fill="none" height="128" viewBox="0 0 128 128" width="128" xmlns="http://www.w3.org/2000/svg" xmlns:xlink="http://www.w3.org/1999/xlink">
  <radialGradient id="paint0_radial" cx="0" cy="0" gradientTransform="matrix(37.12544582 -86.63602341 51.58104348 22.10361418 14.261 47.9025)" gradientUnits="userSpaceOnUse" r="1">
    <stop offset="0" stop-color="#e01b24"/>
    <stop offset="1" stop-color="#f8e45c"/>
  </radialGradient>
  <radialGradient id="paint1_radial" cx="0" cy="0" gradientTransform="matrix(-24.93599644 -49.82426712 52.47922319 -26.26474604 108 78.8748)" gradientUnits="userSpaceOnUse" r="1">
    <stop offset="0" stop-color="#2ec27e"/>
    <stop offset="1" stop-color="#57e389" stop-opacity="0"/>
  </radialGradient>
  <path d="m108 14h-88c-4.4183 0-8 3.5817-8 8v88.042c0 4.418 3.5817 8 8 8h88c4.418 0 8-3.582 8-8v-88.042c0-4.4183-3.582-8-8-8z" fill="#f6f5f4"/>
  <path d="m20 88h88v-66h-88z" fill="url(#paint0_radial)"/>
  <path d="m20 88h88v-66h-88z" fill="url(#paint1_radial)"/>
  <path d="m116.162 41.2727h-51.572c-3.2253 0-5.84 2.6147-5.84 5.8401v68.8222c0 3.226 2.6147 5.84 5.84 5.84h51.572c3.225 0 5.84-2.614 5.84-5.84v-68.8222c0-3.2254-2.615-5.8401-5.84-5.8401z" fill="#deddda"/>
  <path d="m58.75 111.623v4.312c0 3.236 2.6047 5.84 5.84 5.84h51.572c3.235 0 5.84-2.604 5.84-5.84v-4.312c0 3.235-2.605 5.84-5.84 5.84h-51.572c-3.2353 0-5.84-2.605-5.84-5.84z" fill="#1a5fb4"/>
  <path d="m78.5269 54.875c-.08 0-.152-.028-.216-.084-.056-.064-.084-.136-.084-.216v-7.8c0-.088.028-.16.084-.216.064-.056.136-.084.216-.084h3.12c1.176 0 2.088.28 2.736.84s.988 1.372 1.02 2.436c.008.232.012.54.012.924s-.004.688-.012.912c-.04 1.112-.372 1.94-.996 2.484-.616.536-1.516.804-2.7.804zm3.12-1.728c.528 0 .916-.124 1.164-.372.248-.256.38-.66.396-1.212.016-.232.024-.532.024-.9s-.008-.664-.024-.888c-.016-.536-.16-.932-.432-1.188-.264-.256-.66-.384-1.188-.384h-1.2v4.944z" fill="#1a5fb4"/>
  <path d="m90.2487 54.995c-1.128 0-2.016-.276-2.664-.828s-.992-1.364-1.032-2.436c-.008-.232-.012-.576-.012-1.032 0-.464.004-.812.012-1.044.04-1.056.388-1.868 1.044-2.436.664-.576 1.548-.864 2.652-.864s1.988.288 2.652.864c.664.568 1.012 1.38 1.044 2.436.016.464.024.812.024 1.044 0 .224-.008.568-.024 1.032-.04 1.072-.384 1.884-1.032 2.436s-1.536.828-2.664.828zm0-1.728c.44 0 .788-.132 1.044-.396.264-.264.404-.668.42-1.212.016-.464.024-.792.024-.984 0-.208-.008-.536-.024-.984-.016-.544-.156-.948-.42-1.212s-.612-.396-1.044-.396-.78.132-1.044.396c-.256.264-.396.668-.42 1.212-.008.224-.012.552-.012.984 0 .424.004.752.012.984.024.544.164.948.42 1.212s.604.396 1.044.396z" fill="#1a5fb4"/>
  <path d="m98.8037 54.995c-1.144 0-2.04-.276-2.688-.828-.64-.56-.98-1.368-1.02-2.424-.008-.216-.012-.568-.012-1.056 0-.496.004-.856.012-1.08.04-1.04.388-1.84 1.044-2.4.656-.568 1.544-.852 2.664-.852.704 0 1.3363.12 1.8963.36.56.232 1 .568 1.32 1.008.328.432.496.94.504 1.524v.024c0 .064-.028.12-.084.168-.048.04-.104.06-.168.06h-1.62c-.104 0-.184-.02-.24-.06-.056-.048-.104-.132-.144-.252-.112-.408-.2883-.692-.5283-.852-.24-.168-.556-.252-.948-.252-.944 0-1.432.528-1.464 1.584-.008.216-.012.548-.012.996s.004.788.012 1.02c.032 1.056.52 1.584 1.464 1.584.392 0 .712-.084.96-.252.248-.176.4203-.46.5163-.852.032-.12.076-.2.132-.24.056-.048.14-.072.252-.072h1.62c.072 0 .132.024.18.072.056.048.08.108.072.18-.008.584-.176 1.096-.504 1.536-.32.432-.76.768-1.32 1.008-.56.232-1.1923.348-1.8963.348z" fill="#1a5fb4"/>
  <g fill="#c0bfbc">
    <path d="m64.376 62.6227c0-.5523.4478-1 1-1h50c.552 0 1 .4477 1 1v3c0 .5523-.448 1-1 1h-50c-.5522 0-1-.4477-1-1z"/>
    <path d="m71.875 71.6227c0-.5523.4477-1 1-1h40.375c.552 0 1 .4477 1 1v3c0 .5523-.448 1-1 1h-40.375c-.5523 0-1-.4477-1-1z"/>
    <path d="m64.376 80.6227c0-.5523.4478-1 1-1h40.375c.552 0 1 .4477 1 1v3c0 .5523-.448 1-1 1h-40.375c-.5522 0-1-.4477-1-1z"/>
    <path d="m64.376 89.6227c0-.5523.4478-1 1-1h45.624c.552 0 1 .4477 1 1v3c0 .5523-.448 1-1 1h-45.624c-.5522 0-1-.4477-1-1z"/>
    <path d="m64.376 98.6227c0-.5523.4478-1 1-1h24.124c.5523 0 1 .4477 1 1v3.0003c0 .552-.4477 1-1 1h-24.124c-.5522 0-1-.448-1-1z"/>
    <path d="m80.6271 107.623c0-.553.4477-1 1-1h24.1239c.552 0 1 .447 1 1v3c0 .552-.448 1-1 1h-24.1239c-.5523 0-1-.448-1-1z"/>
  </g>
</svg>
