<svg enable-background="new" height="128" viewBox="0 0 128 128" width="128" xmlns="http://www.w3.org/2000/svg">
  <rect height="45.833" opacity=".2" rx="1.142" ry="1.021" width="110" x="10" y="74.17"/>
  <path d="m65.000004 35.142858a27.857144 27.857142 0 0 0 -27.857146 27.857142 27.857144 27.857142 0 0 0 27.857146 27.857144 27.857144 27.857142 0 0 0 27.857142-27.857144 27.857144 27.857142 0 0 0 -27.857142-27.857142zm0 16.714285c6.154201 0 11.142854 4.988658 11.142854 11.142857 0 6.1542-4.988653 11.142858-11.142854 11.142858s-11.142859-4.988658-11.142859-11.142858c0-6.154199 4.988658-11.142857 11.142859-11.142857z" fill="#939393"/>
  <path d="m65.000004 11c-28.807999 0-52.000004 23.192-52.000004 52 0 28.808001 23.192005 52 52.000004 52s51.999996-23.191999 51.999996-52c0-28.808-23.191997-52-51.999996-52zm0 29.714286a22.285716 22.285714 0 0 1 22.285713 22.285714 22.285716 22.285714 0 0 1 -22.285713 22.285715 22.285716 22.285714 0 0 1 -22.285715-22.285715 22.285716 22.285714 0 0 1 22.285715-22.285714z" fill="#e4e4e4"/>
  <rect fill="#3162c3" height="45.833" rx="1.142" ry="1.021" width="110" x="10" y="72.17"/>
  <g enable-background="new" fill="#fff">
    <rect height="10" rx="1.3" width="10" x="23.922294" y="84.083334"/>
    <rect height="10" rx="1.3" width="10" x="35.922294" y="84.083334"/>
    <rect height="10" rx="1.3" width="10" x="23.922294" y="96.083334"/>
    <rect height="10" rx="1.3" width="10" x="35.922294" y="96.083334"/>
    <g transform="matrix(1.0031083 0 0 1.0031083 -2.394404 5.757871)">
      <path d="m67.393806 84.165863q-.917968-.429687-1.835937-.625-.898438-.214844-1.816406-.214844-2.695313 0-4.160157 1.738282-1.445312 1.71875-1.445312 4.941406v10.078123h-6.992188v-21.874998h6.992188v3.59375q1.347656-2.148438 3.085937-3.125 1.757813-.996094 4.199219-.996094.351563 0 .761719.03906.410156.01953 1.191406.117187z"/>
      <path d="m70.909431 78.208832h6.992188v21.874998h-6.992188zm0-8.515625h6.992188v5.703125h-6.992188z"/>
      <path d="m91.651619 96.919769v11.484371h-6.992188v-30.195308h6.992188v3.203125q1.445312-1.914063 3.203125-2.8125 1.757812-.917969 4.042969-.917969 4.042967 0 6.640627 3.222656 2.59765 3.203125 2.59765 8.261719 0 5.058594-2.59765 8.28125-2.59766 3.203127-6.640627 3.203127-2.285157 0-4.042969-.898439-1.757813-.917969-3.203125-2.832032zm4.648437-14.160156q-2.246093 0-3.457031 1.660156-1.191406 1.640625-1.191406 4.746094 0 3.105469 1.191406 4.765625 1.210938 1.640625 3.457031 1.640625 2.246094 0 3.417969-1.640625 1.191405-1.640625 1.191405-4.765625 0-3.125-1.191405-4.765625-1.171875-1.640625-3.417969-1.640625z"/>
    </g>
  </g>
</svg>
