<svg enable-background="new" height="128" viewBox="0 0 128 128" width="128" xmlns="http://www.w3.org/2000/svg" xmlns:xlink="http://www.w3.org/1999/xlink">
  <radialGradient id="radialGradient1425" cx="80.25944096348" cy="56.78531452645" gradientUnits="userSpaceOnUse" r="32.3954204">
    <stop offset="0" stop-color="#505050"/>
    <stop offset="1"/>
  </radialGradient>
  <linearGradient id="linearGradient1506" gradientUnits="userSpaceOnUse" x1="71.22899069328" x2="76.18771926664" y1="66.01873612" y2="61.06000754664">
    <stop offset="0" stop-color="#bcbcb4"/>
    <stop offset="1" stop-color="#eeeeec"/>
  </linearGradient>
  <linearGradient id="linearGradient1492" gradientUnits="userSpaceOnUse" x1="38.979297034" x2="34.51885157192" y1="22.66170260736" y2="27.12214806944">
    <stop offset="0" stop-color="#e9b96e"/>
    <stop offset="1" stop-color="#dc9321"/>
  </linearGradient>
  <linearGradient id="linearGradient2186" gradientUnits="userSpaceOnUse" x1="25.455" x2="70.054" y1="31.144" y2="68.509">
    <stop offset="0" stop-color="#ce8cff"/>
    <stop offset=".67" stop-color="#eee5fd"/>
    <stop offset="1" stop-color="#fefeff"/>
  </linearGradient>
  <linearGradient id="linearGradient2192" gradientTransform="matrix(-1 0 0 -1 130 126)" gradientUnits="userSpaceOnUse" x1="25.455" x2="70.054" y1="31.144" y2="68.509">
    <stop offset="0" stop-color="#ce8cff"/>
    <stop offset=".67" stop-color="#eee5fd"/>
    <stop offset="1" stop-color="#fefeff" stop-opacity=".22381"/>
  </linearGradient>
  <path d="m65.000004 13c-28.807999 0-52.000004 23.192-52.000004 52 0 28.808001 23.192005 52 52.000004 52s51.999996-23.191999 51.999996-52c0-28.808-23.191997-52-51.999996-52zm0 29.714286a22.285716 22.285714 0 0 1 22.285713 22.285714 22.285716 22.285714 0 0 1 -22.285713 22.285715 22.285716 22.285714 0 0 1 -22.285715-22.285715 22.285716 22.285714 0 0 1 22.285715-22.285714z" opacity=".2"/>
  <path d="m65.000004 35.142858a27.857144 27.857142 0 0 0 -27.857146 27.857142 27.857144 27.857142 0 0 0 27.857146 27.857144 27.857144 27.857142 0 0 0 27.857142-27.857144 27.857144 27.857142 0 0 0 -27.857142-27.857142zm0 16.714285c6.154201 0 11.142854 4.988658 11.142854 11.142857 0 6.1542-4.988653 11.142858-11.142854 11.142858s-11.142859-4.988658-11.142859-11.142858c0-6.154199 4.988658-11.142857 11.142859-11.142857z" fill="#939393"/>
  <path d="m65.000004 11c-28.807999 0-52.000004 23.192-52.000004 52 0 28.808001 23.192005 52 52.000004 52s51.999996-23.191999 51.999996-52c0-28.808-23.191997-52-51.999996-52zm0 29.714286a22.285716 22.285714 0 0 1 22.285713 22.285714 22.285716 22.285714 0 0 1 -22.285713 22.285715 22.285716 22.285714 0 0 1 -22.285715-22.285715 22.285716 22.285714 0 0 1 22.285715-22.285714z" fill="url(#linearGradient2186)"/>
  <path d="m64.999996 115c28.807999 0 52.000004-23.192 52.000004-52 0-28.808001-23.192005-52-52.000004-52s-51.999996 23.191999-51.999996 52c0 28.808 23.191997 52 51.999996 52zm0-29.714286a22.285716 22.285714 0 0 1 -22.285713-22.285714 22.285716 22.285714 0 0 1 22.285713-22.285715 22.285716 22.285714 0 0 1 22.285715 22.285715 22.285716 22.285714 0 0 1 -22.285715 22.285714z" fill="url(#linearGradient2192)"/>
  <g fill="url(#linearGradient1492)">
    <path d="m87.246094 63.769531a22.285716 22.285714 0 0 1 -.072266 1.455078 22.285716 22.285714 0 0 1 -.332031 2.203125 22.285716 22.285714 0 0 1 -.550781 2.158204 22.285716 22.285714 0 0 1 -.763672 2.091796 22.285716 22.285714 0 0 1 -.970703 2.00586 22.285716 22.285714 0 0 1 -1.164063 1.90039 22.285716 22.285714 0 0 1 -.205078.269532c2.180845 1.010933 4.842529.653571 6.646484-1.150391 2.338487-2.338443 2.29938-6.141024-.085937-8.431641z"/>
    <path d="m64.21875 40.742188a22.285716 22.285714 0 0 0 -.794922.027343 22.285716 22.285714 0 0 0 -2.210937.269531 22.285716 22.285714 0 0 0 -2.173829.488282 22.285716 22.285714 0 0 0 -2.115234.701172 22.285716 22.285714 0 0 0 -2.033203.910156 22.285716 22.285714 0 0 0 -1.931641 1.109375 22.285716 22.285714 0 0 0 -1.125.802734l29.566407 29.56836c.523555.545199 1.140959.934851 1.787109 1.234375a22.285716 22.285714 0 0 0 .205078-.269532 22.285716 22.285714 0 0 0 1.164063-1.90039 22.285716 22.285714 0 0 0 .970703-2.00586 22.285716 22.285714 0 0 0 .763672-2.091796 22.285716 22.285714 0 0 0 .550781-2.158204 22.285716 22.285714 0 0 0 .332031-2.203125 22.285716 22.285714 0 0 0 .072266-1.455078z"/>
    <path d="m38.294922 18.552734c-.781666.469301-1.654198.796129-2.408203 1.304688-1.822673 1.22935-3.421211 2.732871-5.06836 4.177734l21.015625 21.015625a22.285716 22.285714 0 0 1 1.125-.802734 22.285716 22.285714 0 0 1 1.931641-1.109375 22.285716 22.285714 0 0 1 2.033203-.910156 22.285716 22.285714 0 0 1 2.115234-.701172 22.285716 22.285714 0 0 1 2.173829-.488282 22.285716 22.285714 0 0 1 2.210937-.269531 22.285716 22.285714 0 0 1 .794922-.027343l-19.486328-19.486329c-1.936869-1.661221-4.181692-2.400904-6.4375-2.703125z"/>
  </g>
  <path d="m57.945062 34.950017a7.871004 7.871004 0 0 0 -5.482826 13.515405l27.545759 27.54576a7.871004 7.871004 0 1 0 11.130897-11.130897l-27.545759-27.54576a7.871004 7.871004 0 0 0 -5.648071-2.384508z" fill="url(#linearGradient1506)"/>
  <path d="m81.638205 46.835078c-10.866492 0-19.675542 8.809045-19.675542 19.675542s8.80905 19.675543 19.675542 19.675543h19.675545v-19.675543c0-10.866497-8.809043-19.675542-19.675545-19.675542z" fill="url(#radialGradient1425)"/>
  <circle cx="79.671" cy="-56.847" fill="#7a8599" r="3.126" transform="scale(1 -1)"/>
</svg>
