<svg height="128" viewBox="0 0 128 128" width="128" xmlns="http://www.w3.org/2000/svg" xmlns:xlink="http://www.w3.org/1999/xlink">
  <clipPath id="SVGID_6_-3" clip-path="url(#SVGID_5_)">
    <path d="m245.46 129.523-97.891-96.898c-5.556-5.502-16.222-11.873-23.7-14.16l-39.518-12.083c-7.479-2.286-18.096.391-23.599 5.948l-13.441 13.578c-5.5 5.559-14.502 14.653-20.005 20.21l-13.44 13.579c-5.5 5.558-8.07 16.206-5.706 23.658l12.483 39.391c2.363 7.456 8.843 18.056 14.399 23.556l97.89 96.898c5.558 5.502 14.605 5.455 20.105-.101l36.26-36.63c5.504-5.559 14.503-14.651 20.005-20.209l36.259-36.629c5.502-5.56 5.455-14.606-.101-20.108zm-178.085-50.74c-7.198 0-13.033-5.835-13.033-13.033 0-7.197 5.835-13.033 13.033-13.033 7.197 0 13.033 5.835 13.033 13.033-.001 7.198-5.836 13.033-13.033 13.033z" height="100%" width="100%"/>
  </clipPath>
  <linearGradient id="SVGID_11_" gradientUnits="userSpaceOnUse" x1="67.374" x2="67.374" y1="82.338" y2="49.164">
    <stop offset="0" stop-color="#c8c8c8"/>
    <stop offset=".063" stop-color="#bfbfbf"/>
    <stop offset=".316" stop-color="#a0a0a0"/>
    <stop offset=".561" stop-color="#898989"/>
    <stop offset=".793" stop-color="#7c7c7c"/>
    <stop offset="1" stop-color="#777"/>
  </linearGradient>
  <linearGradient id="SVGID_10_" gradientUnits="userSpaceOnUse" x1="67.374" x2="67.374" y1="87.669" y2="43.832">
    <stop offset="0" stop-color="#777"/>
    <stop offset=".207" stop-color="#7c7c7c"/>
    <stop offset=".439" stop-color="#898989"/>
    <stop offset=".684" stop-color="#a0a0a0"/>
    <stop offset=".937" stop-color="#bfbfbf"/>
    <stop offset="1" stop-color="#c8c8c8"/>
  </linearGradient>
  <linearGradient id="linearGradient1150" gradientUnits="userSpaceOnUse" x1="136.68" x2="136.68" y1="229.467" y2="39.946">
    <stop offset="0" stop-color="#e6e7e8"/>
    <stop offset="1" stop-color="#fff"/>
  </linearGradient>
  <clipPath id="SVGID_5_">
    <path d="m245.46 129.523-97.891-96.898c-5.556-5.502-16.222-11.873-23.7-14.16l-39.518-12.083c-7.479-2.286-18.096.391-23.599 5.948l-13.441 13.578c-5.5 5.559-14.502 14.653-20.005 20.21l-13.44 13.579c-5.5 5.558-8.07 16.206-5.706 23.658l12.483 39.391c2.363 7.456 8.843 18.056 14.399 23.556l97.89 96.898c5.558 5.502 14.605 5.455 20.105-.101l36.26-36.63c5.504-5.559 14.503-14.651 20.005-20.209l36.259-36.629c5.502-5.56 5.455-14.606-.101-20.108zm-178.085-50.74c-7.198 0-13.033-5.835-13.033-13.033 0-7.197 5.835-13.033 13.033-13.033 7.197 0 13.033 5.835 13.033 13.033-.001 7.198-5.836 13.033-13.033 13.033z" height="100%" width="100%"/>
  </clipPath>
  <path d="m16.519531 19.058594c-4.432 0-7.9999997 3.568-7.9999998 8v24 48c0 4.431996 3.5679998 7.999996 7.9999998 7.999996h95.999999c4.432 0 8-3.568 8-7.999996v-48-24c0-4.432-3.568-8-8-8zm14.486328 7.24414a6.4112506 6.3979821 0 0 1 6.410157 6.396485 6.4112506 6.3979821 0 0 1 -6.410157 6.398437 6.4112506 6.3979821 0 0 1 -6.412109-6.398437 6.4112506 6.3979821 0 0 1 6.412109-6.396485z" fill="#559f2f"/>
  <path clip-path="url(#SVGID_6_-3)" clip-rule="evenodd" d="m119.142 160.18c.84 7.224 1.71 13.293 2.208 19.39.512 6.339 3.038 8.335 9.523 6.429 22.587-6.635 45.307-12.838 67.97-19.206 2.67-.75 5.341-1.501 9.025-2.535.833 12.349 1.615 23.891 2.412 35.654-1.142.599-1.95 1.211-2.854 1.465-31.292 8.807-62.574 17.621-93.895 26.293-3.664 1.014-7.543 1.427-11.355 1.697-11.792.86-19.628-3.747-22.368-15.293-3.292-13.876-5.288-28.087-7.257-42.242-3.343-24.035-6.69-48.087-9.152-72.228-2.001-19.593 5.288-30.714 24.121-36.498 25.428-7.81 51.072-15.024 76.851-21.607 18.449-4.705 27.947 1.101 31.71 19.9 3.24 16.215 5.159 32.819 6.165 49.337 1.003 16.504-5.839 25.949-21.635 31.218-17.217 5.745-34.78 10.464-52.195 15.617-2.9.856-5.822 1.64-9.274 2.609zm-4.598-31.437c13.178-3.704 25.534-6.922 37.661-10.851 1.854-.599 3.891-4.542 3.736-6.795-.588-8.65-2.093-17.234-3.128-25.862-.501-4.16-2.669-5.014-6.397-3.938-10.324 2.989-20.794 5.54-30.96 8.994-2.189.75-4.88 4.648-4.722 6.915.702 10.166 2.353 20.269 3.81 31.537z" fill="url(#linearGradient1150)" fill-rule="evenodd" transform="matrix(.44213135 0 0 .45763165 5.961102 1.937288)"/>
  <g clip-path="url(#SVGID_6_-3)" transform="matrix(.49509708 0 0 .49509708 -2.39202 .162234)">
    <path d="m67.375 52.718c7.197 0 13.033 5.835 13.033 13.033s-5.835 13.033-13.033 13.033-13.033-5.835-13.033-13.033 5.835-13.033 13.033-13.033m0-10.664c-13.066 0-23.696 10.63-23.696 23.696s10.63 23.696 23.696 23.696 23.696-10.63 23.696-23.696-10.63-23.696-23.696-23.696z" opacity=".1"/>
  </g>
  <g clip-path="url(#SVGID_6_-3)" transform="matrix(.49509708 0 0 .49509708 -2.39202 .162234)">
    <path d="m67.375 58.049c7.197 0 13.033 5.835 13.033 13.033s-5.835 13.033-13.033 13.033-13.033-5.835-13.033-13.033c0-7.197 5.835-13.033 13.033-13.033m0-8.886c-12.086 0-21.919 9.833-21.919 21.919 0 12.085 9.833 21.919 21.919 21.919s21.919-9.834 21.919-21.919c-.001-12.086-9.834-21.919-21.919-21.919z" opacity=".3"/>
    <path d="m67.375 52.718c7.197 0 13.033 5.835 13.033 13.033s-5.835 13.033-13.033 13.033-13.033-5.835-13.033-13.033 5.835-13.033 13.033-13.033m0-8.886c-12.086 0-21.919 9.833-21.919 21.919 0 12.085 9.833 21.919 21.919 21.919s21.919-9.834 21.919-21.919c-.001-12.086-9.834-21.919-21.919-21.919z" fill="url(#SVGID_10_)"/>
  </g>
  <g clip-path="url(#SVGID_6_-3)" transform="matrix(.49509708 0 0 .49509708 -2.39202 .162234)">
    <path d="m67.375 55.888c5.447 0 9.862 4.416 9.862 9.862s-4.415 9.863-9.862 9.863-9.863-4.417-9.863-9.863 4.415-9.862 9.863-9.862m0-6.724c-9.146 0-16.587 7.441-16.587 16.587 0 9.145 7.441 16.587 16.587 16.587s16.587-7.442 16.587-16.587c-.001-9.146-7.442-16.587-16.587-16.587z" fill="#e9e6dd"/>
    <path d="m67.375 55.888c5.447 0 9.862 4.416 9.862 9.862s-4.415 9.863-9.862 9.863-9.863-4.417-9.863-9.863 4.415-9.862 9.863-9.862m0-6.724c-9.146 0-16.587 7.441-16.587 16.587 0 9.145 7.441 16.587 16.587 16.587s16.587-7.442 16.587-16.587c-.001-9.146-7.442-16.587-16.587-16.587z" fill="url(#SVGID_11_)"/>
  </g>
  <g clip-path="url(#SVGID_6_-3)" transform="matrix(.49509708 0 0 .49509708 -2.39202 .162234)">
    <path d="m83.961 65.75s-.027-.202-.078-.582c-.067-.375-.085-.948-.265-1.63-.079-.341-.165-.719-.26-1.13-.13-.402-.27-.836-.42-1.301-.158-.459-.39-.925-.597-1.425-.223-.494-.52-.983-.792-1.507-.633-1.001-1.37-2.05-2.313-3.012-.902-.999-2.045-1.852-3.253-2.651-1.227-.79-2.628-1.351-4.069-1.818-1.44-.427-3.045-.614-4.496-.645-1.691.037-3.095.218-4.585.646-1.44.47-2.842 1.028-4.068 1.819-1.209.799-2.351 1.652-3.253 2.65-.942.961-1.678 2.011-2.312 3.011-.272.524-.569 1.013-.792 1.507-.207.5-.439.965-.598 1.424-.15.464-.291.899-.42 1.301-.095.413-.182.792-.261 1.135-.18.688-.198 1.247-.266 1.624-.051.38-.078.583-.078.583s-.006-.204-.019-.586c.01-.381-.083-.953.011-1.667.032-.36.068-.759.107-1.193.084-.429.175-.894.273-1.39.11-.495.294-1.003.454-1.553.176-.544.449-1.083.688-1.666.293-.555.598-1.141.959-1.718.393-.555.768-1.16 1.262-1.694.909-1.139 2.08-2.163 3.387-3.077 1.318-.905 2.824-1.631 4.427-2.151 1.585-.495 3.428-.738 4.992-.777 1.804.046 3.447.283 5.082.777 1.602.523 3.108 1.247 4.426 2.152 1.307.914 2.477 1.939 3.386 3.077.494.535.87 1.139 1.262 1.695.361.577.666 1.163.959 1.717.239.583.513 1.121.688 1.666.16.55.344 1.058.454 1.553.098.496.188.96.273 1.39.04.436.076.837.108 1.199.094.719.001 1.277.011 1.661-.007.382-.014.586-.014.586z" fill="#fff" opacity=".6"/>
  </g>
  <path d="m8.5195312 62.677734c-5.4546734 12.493184-7.86414482 25.823817-5.7617187 34.738282 1.3278504 5.632724 4.3763756 8.918284 8.8164065 9.498044.722346.09457 1.427104.14258 2.111328.14258.541344 0 .996705-.20471 1.513672-.26367-.608533-.1045-1.248211-.12839-1.800781-.36133-.957751-.40375-1.818016-.98794-2.541016-1.71094-.272819-.27282-.415377-.64899-.646484-.95898-2.3510816-.98468-4.0158379-3.26627-4.8847661-6.951173-1.5048106-6.38045-.2124821-16.320401 3.1933593-26.498047z" fill="#231f20" transform="matrix(1.00000000326 0 0 1.00000000326 .00000044896 -.00000040137)"/>
  <path d="m8.5195312 62.677734v7.634766c4.2688358-12.756524 11.9346568-25.896174 22.4414068-32.978516.604513-.407465.763428-1.228012.355468-1.832031-.40697-.604018-1.227022-.764887-1.832031-.357422-8.894298 5.995594-16.120295 16.437427-20.9648438 27.533203z" fill="#231f20" transform="matrix(1.00000000326 0 0 1.00000000326 .00000044896 -.00000040137)"/>
  <path d="m8.5195312 77.978516v14.46875l.7382813.125s1.9606595-11.449836 3.1132815-15.390625c1.257535-4.299491 2.610419-9.082332 4.173828-13.259766 1.583038-4.229886 3.788982-9.532952 5.197266-12.373047 1.463619-2.951692 5.476562-10.953125 5.476562-10.953125l-3.21875-1.613281s-4.005698 7.988679-5.482422 10.966797c-1.53206 3.089715-3.723588 8.381857-5.34375 12.710937-1.639793 4.381532-3.007384 9.234572-4.2578124 13.509766-.1271325.434664-.2625242 1.273513-.3964844 1.808594z" opacity=".209"/>
</svg>
