<svg height="128" viewBox="0 0 33.866666 33.866666" width="128" xmlns="http://www.w3.org/2000/svg" xmlns:xlink="http://www.w3.org/1999/xlink">
  <linearGradient id="SVGID_11_" gradientUnits="userSpaceOnUse" x1="67.374001" x2="67.374001" y1="82.337997" y2="49.164001">
    <stop offset="0" stop-color="#c8c8c8"/>
    <stop offset=".063" stop-color="#bfbfbf"/>
    <stop offset=".316" stop-color="#a0a0a0"/>
    <stop offset=".561" stop-color="#898989"/>
    <stop offset=".793" stop-color="#7c7c7c"/>
    <stop offset="1" stop-color="#777"/>
  </linearGradient>
  <linearGradient id="SVGID_10_" gradientUnits="userSpaceOnUse" x1="67.374001" x2="67.374001" y1="87.668999" y2="43.832001">
    <stop offset="0" stop-color="#777"/>
    <stop offset=".207" stop-color="#7c7c7c"/>
    <stop offset=".439" stop-color="#898989"/>
    <stop offset=".684" stop-color="#a0a0a0"/>
    <stop offset=".937" stop-color="#bfbfbf"/>
    <stop offset="1" stop-color="#c8c8c8"/>
  </linearGradient>
  <clipPath id="SVGID_6_-3-3"/>
  <clipPath id="SVGID_6_-3-0"/>
  <clipPath id="SVGID_6_-3-8"/>
  <g transform="translate(0 -263.13334)">
    <path d="m4.9264915 268.29796c-1.1726333 0-2.1166666.94403-2.1166666 2.11667v6.35 12.7c0 1.17263.9440333 2.11666 2.1166666 2.11666h25.4000005c1.172633 0 2.116666-.94403 2.116666-2.11666v-12.7-6.35c0-1.17264-.944033-2.11667-2.116666-2.11667zm3.8328409 1.91668a1.6963101 1.6927994 0 0 1 1.6960206 1.6924 1.6963101 1.6927994 0 0 1 -1.6960206 1.69292 1.6963101 1.6927994 0 0 1 -1.696537-1.69292 1.6963101 1.6927994 0 0 1 1.696537-1.6924z" fill="#559f2f" stroke-width=".264583"/>
    <g clip-path="url(#SVGID_6_-3-3)" transform="matrix(.13099444 0 0 .13099444 .253146 264.95672)">
      <path d="m67.375 52.718c7.197 0 13.033 5.835 13.033 13.033s-5.835 13.033-13.033 13.033-13.033-5.835-13.033-13.033 5.835-13.033 13.033-13.033m0-10.664c-13.066 0-23.696 10.63-23.696 23.696s10.63 23.696 23.696 23.696 23.696-10.63 23.696-23.696-10.63-23.696-23.696-23.696z" opacity=".1"/>
    </g>
    <g clip-path="url(#SVGID_6_-3-3)" transform="matrix(.13099444 0 0 .13099444 .253146 264.95672)">
      <path d="m67.375 58.049c7.197 0 13.033 5.835 13.033 13.033s-5.835 13.033-13.033 13.033-13.033-5.835-13.033-13.033c0-7.197 5.835-13.033 13.033-13.033m0-8.886c-12.086 0-21.919 9.833-21.919 21.919 0 12.085 9.833 21.919 21.919 21.919s21.919-9.834 21.919-21.919c-.001-12.086-9.834-21.919-21.919-21.919z" opacity=".3"/>
      <path d="m67.375 52.718c7.197 0 13.033 5.835 13.033 13.033s-5.835 13.033-13.033 13.033-13.033-5.835-13.033-13.033 5.835-13.033 13.033-13.033m0-8.886c-12.086 0-21.919 9.833-21.919 21.919 0 12.085 9.833 21.919 21.919 21.919s21.919-9.834 21.919-21.919c-.001-12.086-9.834-21.919-21.919-21.919z" fill="url(#SVGID_10_)"/>
    </g>
    <g clip-path="url(#SVGID_6_-3-3)" transform="matrix(.13099444 0 0 .13099444 .253146 264.95672)">
      <path d="m67.375 55.888c5.447 0 9.862 4.416 9.862 9.862s-4.415 9.863-9.862 9.863-9.863-4.417-9.863-9.863 4.415-9.862 9.863-9.862m0-6.724c-9.146 0-16.587 7.441-16.587 16.587 0 9.145 7.441 16.587 16.587 16.587s16.587-7.442 16.587-16.587c-.001-9.146-7.442-16.587-16.587-16.587z" fill="#e9e6dd"/>
      <path d="m67.375 55.888c5.447 0 9.862 4.416 9.862 9.862s-4.415 9.863-9.862 9.863-9.863-4.417-9.863-9.863 4.415-9.862 9.863-9.862m0-6.724c-9.146 0-16.587 7.441-16.587 16.587 0 9.145 7.441 16.587 16.587 16.587s16.587-7.442 16.587-16.587c-.001-9.146-7.442-16.587-16.587-16.587z" fill="url(#SVGID_11_)"/>
    </g>
    <g clip-path="url(#SVGID_6_-3-3)" transform="matrix(.13099444 0 0 .13099444 .253146 264.95672)">
      <path d="m83.961 65.75s-.027-.202-.078-.582c-.067-.375-.085-.948-.265-1.63-.079-.341-.165-.719-.26-1.13-.13-.402-.27-.836-.42-1.301-.158-.459-.39-.925-.597-1.425-.223-.494-.52-.983-.792-1.507-.633-1.001-1.37-2.05-2.313-3.012-.902-.999-2.045-1.852-3.253-2.651-1.227-.79-2.628-1.351-4.069-1.818-1.44-.427-3.045-.614-4.496-.645-1.691.037-3.095.218-4.585.646-1.44.47-2.842 1.028-4.068 1.819-1.209.799-2.351 1.652-3.253 2.65-.942.961-1.678 2.011-2.312 3.011-.272.524-.569 1.013-.792 1.507-.207.5-.439.965-.598 1.424-.15.464-.291.899-.42 1.301-.095.413-.182.792-.261 1.135-.18.688-.198 1.247-.266 1.624-.051.38-.078.583-.078.583s-.006-.204-.019-.586c.01-.381-.083-.953.011-1.667.032-.36.068-.759.107-1.193.084-.429.175-.894.273-1.39.11-.495.294-1.003.454-1.553.176-.544.449-1.083.688-1.666.293-.555.598-1.141.959-1.718.393-.555.768-1.16 1.262-1.694.909-1.139 2.08-2.163 3.387-3.077 1.318-.905 2.824-1.631 4.427-2.151 1.585-.495 3.428-.738 4.992-.777 1.804.046 3.447.283 5.082.777 1.602.523 3.108 1.247 4.426 2.152 1.307.914 2.477 1.939 3.386 3.077.494.535.87 1.139 1.262 1.695.361.577.666 1.163.959 1.717.239.583.513 1.121.688 1.666.16.55.344 1.058.454 1.553.098.496.188.96.273 1.39.04.436.076.837.108 1.199.094.719.001 1.277.011 1.661-.007.382-.014.586-.014.586z" fill="#fff" opacity=".6"/>
    </g>
    <path d="m2.8098249 283.88719v3.82819l.1953369.0331s.5187578-3.02943.8237224-4.0721c.3327228-1.13757.6906734-2.40303 1.1043253-3.50831.4188455-1.11916 1.0025015-2.52226 1.3751099-3.27371.387249-.78096 1.449007-2.89801 1.449007-2.89801l-.851628-.42688s-1.0598404 2.11367-1.450557 2.90163c-.4053575.81749-.9851993 2.2177-1.4138672 3.36311-.4338619 1.15928-.7957036 2.44331-1.1265462 3.57446-.033637.115-.06946.33695-.1049031.47852z" opacity=".209" stroke-width=".264583"/>
    <path d="m13.39001 288.24911-2.428024-2.59943-.686143-5.44213c-.7544211-5.98367-.7093361-7.14488.287114-7.39497.350289-.0879.708967-.38695.797062-.66451.0881-.27756.321476-.63853.518624-.80215.388122-.32211 7.961416-2.65815 8.62273-2.65974.45053-.001 4.533913 4.04192 4.99193 4.94257.388308.76358.377197 4.37373-.01612 5.23697-.461515 1.01291-1.564513 1.5663-5.47453 2.74663-1.944572.58701-3.596081 1.12779-3.670019 1.20173-.07394.0739-.05194.79472.04889 1.60174.154395 1.23573.267753 1.46731.718252 1.46731.40974 0 7.124816-1.84912 9.150437-2.51974.236544-.0783.329926.28373.327908 1.27127-.0026 1.25602-.104153 1.48976-1.124479 2.5873-1.004365 1.08038-1.384501 1.2808-3.635199 1.91659-1.382448.39053-3.298089.93504-4.256979 1.21002l-1.743436.49998zm6.936316-10.83324c.353734-.33657-.09254-3.98368-.506914-4.14269-.44543-.17093-3.219314.61298-4.043719 1.14276-.574934.36947-.606405.51336-.443982 2.02982.293002 2.7356.108719 2.60432 2.594182 1.84795 1.19502-.36367 2.275215-.7587 2.400433-.87784z" fill="#fff" stroke-width=".264583"/>
    <g transform="matrix(.13099444 0 0 .13099444 -.066418 263.30888)">
      <g clip-path="url(#SVGID_6_-3-0)">
        <path d="m67.375 52.718c7.197 0 13.033 5.835 13.033 13.033s-5.835 13.033-13.033 13.033-13.033-5.835-13.033-13.033 5.835-13.033 13.033-13.033m0-10.664c-13.066 0-23.696 10.63-23.696 23.696s10.63 23.696 23.696 23.696 23.696-10.63 23.696-23.696-10.63-23.696-23.696-23.696z" opacity=".1"/>
      </g>
      <g>
        <path d="m67.375 58.049c7.197 0 13.033 5.835 13.033 13.033s-5.835 13.033-13.033 13.033-13.033-5.835-13.033-13.033c0-7.197 5.835-13.033 13.033-13.033m0-8.886c-12.086 0-21.919 9.833-21.919 21.919 0 12.085 9.833 21.919 21.919 21.919s21.919-9.834 21.919-21.919c-.001-12.086-9.834-21.919-21.919-21.919z" opacity=".3"/>
        <path d="m67.375 52.718c7.197 0 13.033 5.835 13.033 13.033s-5.835 13.033-13.033 13.033-13.033-5.835-13.033-13.033 5.835-13.033 13.033-13.033m0-8.886c-12.086 0-21.919 9.833-21.919 21.919 0 12.085 9.833 21.919 21.919 21.919s21.919-9.834 21.919-21.919c-.001-12.086-9.834-21.919-21.919-21.919z" fill="url(#SVGID_10_)"/>
      </g>
      <g clip-path="url(#SVGID_6_-3-0)">
        <path d="m67.375 55.888c5.447 0 9.862 4.416 9.862 9.862s-4.415 9.863-9.862 9.863-9.863-4.417-9.863-9.863 4.415-9.862 9.863-9.862m0-6.724c-9.146 0-16.587 7.441-16.587 16.587 0 9.145 7.441 16.587 16.587 16.587s16.587-7.442 16.587-16.587c-.001-9.146-7.442-16.587-16.587-16.587z" fill="#e9e6dd"/>
        <path d="m67.375 55.888c5.447 0 9.862 4.416 9.862 9.862s-4.415 9.863-9.862 9.863-9.863-4.417-9.863-9.863 4.415-9.862 9.863-9.862m0-6.724c-9.146 0-16.587 7.441-16.587 16.587 0 9.145 7.441 16.587 16.587 16.587s16.587-7.442 16.587-16.587c-.001-9.146-7.442-16.587-16.587-16.587z" fill="url(#SVGID_11_)"/>
      </g>
      <g clip-path="url(#SVGID_6_-3-0)">
        <path d="m83.961 65.75s-.027-.202-.078-.582c-.067-.375-.085-.948-.265-1.63-.079-.341-.165-.719-.26-1.13-.13-.402-.27-.836-.42-1.301-.158-.459-.39-.925-.597-1.425-.223-.494-.52-.983-.792-1.507-.633-1.001-1.37-2.05-2.313-3.012-.902-.999-2.045-1.852-3.253-2.651-1.227-.79-2.628-1.351-4.069-1.818-1.44-.427-3.045-.614-4.496-.645-1.691.037-3.095.218-4.585.646-1.44.47-2.842 1.028-4.068 1.819-1.209.799-2.351 1.652-3.253 2.65-.942.961-1.678 2.011-2.312 3.011-.272.524-.569 1.013-.792 1.507-.207.5-.439.965-.598 1.424-.15.464-.291.899-.42 1.301-.095.413-.182.792-.261 1.135-.18.688-.198 1.247-.266 1.624-.051.38-.078.583-.078.583s-.006-.204-.019-.586c.01-.381-.083-.953.011-1.667.032-.36.068-.759.107-1.193.084-.429.175-.894.273-1.39.11-.495.294-1.003.454-1.553.176-.544.449-1.083.688-1.666.293-.555.598-1.141.959-1.718.393-.555.768-1.16 1.262-1.694.909-1.139 2.08-2.163 3.387-3.077 1.318-.905 2.824-1.631 4.427-2.151 1.585-.495 3.428-.738 4.992-.777 1.804.046 3.447.283 5.082.777 1.602.523 3.108 1.247 4.426 2.152 1.307.914 2.477 1.939 3.386 3.077.494.535.87 1.139 1.262 1.695.361.577.666 1.163.959 1.717.239.583.513 1.121.688 1.666.16.55.344 1.058.454 1.553.098.496.188.96.273 1.39.04.436.076.837.108 1.199.094.719.001 1.277.011 1.661-.007.382-.014.586-.014.586z" fill="#fff" opacity=".6"/>
      </g>
    </g>
    <g clip-path="url(#SVGID_6_-3-8)" transform="matrix(.13099444 0 0 .13099444 9.052312 264.84134)">
      <path d="m83.961 65.75s-.027-.202-.078-.582c-.067-.375-.085-.948-.265-1.63-.079-.341-.165-.719-.26-1.13-.13-.402-.27-.836-.42-1.301-.158-.459-.39-.925-.597-1.425-.223-.494-.52-.983-.792-1.507-.633-1.001-1.37-2.05-2.313-3.012-.902-.999-2.045-1.852-3.253-2.651-1.227-.79-2.628-1.351-4.069-1.818-1.44-.427-3.045-.614-4.496-.645-1.691.037-3.095.218-4.585.646-1.44.47-2.842 1.028-4.068 1.819-1.209.799-2.351 1.652-3.253 2.65-.942.961-1.678 2.011-2.312 3.011-.272.524-.569 1.013-.792 1.507-.207.5-.439.965-.598 1.424-.15.464-.291.899-.42 1.301-.095.413-.182.792-.261 1.135-.18.688-.198 1.247-.266 1.624-.051.38-.078.583-.078.583s-.006-.204-.019-.586c.01-.381-.083-.953.011-1.667.032-.36.068-.759.107-1.193.084-.429.175-.894.273-1.39.11-.495.294-1.003.454-1.553.176-.544.449-1.083.688-1.666.293-.555.598-1.141.959-1.718.393-.555.768-1.16 1.262-1.694.909-1.139 2.08-2.163 3.387-3.077 1.318-.905 2.824-1.631 4.427-2.151 1.585-.495 3.428-.738 4.992-.777 1.804.046 3.447.283 5.082.777 1.602.523 3.108 1.247 4.426 2.152 1.307.914 2.477 1.939 3.386 3.077.494.535.87 1.139 1.262 1.695.361.577.666 1.163.959 1.717.239.583.513 1.121.688 1.666.16.55.344 1.058.454 1.553.098.496.188.96.273 1.39.04.436.076.837.108 1.199.094.719.001 1.277.011 1.661-.007.382-.014.586-.014.586z" fill="#fff" opacity=".6"/>
    </g>
    <path d="m132.41322 22.893488c-7.198 0-13.03406 5.836059-13.03406 13.034059 0 .914128.0971 1.805775.27615 2.666776 1.23082-5.918267 6.47399-10.367285 12.75791-10.367285 6.28467 0 11.52866 4.446253 12.75791 10.367285.17893-.86071.27615-1.752981.27615-2.666776 0-7.198-5.83706-13.034059-13.03406-13.034059z" fill="#fff" opacity=".3" transform="matrix(.13099444 0 0 .13099444 -8.586063 266.75004)"/>
    <path d="m8.5195312 62.677734c-5.4546734 12.493184-7.86414482 25.823817-5.7617187 34.738282 1.3278504 5.632724 4.3763756 8.918284 8.8164065 9.498044.722346.0946 1.427104.14258 2.111328.14258.541344 0 .996705-.20471 1.513672-.26367-.608533-.1045-1.248211-.12839-1.800781-.36133-.957751-.40375-1.818016-.98794-2.541016-1.71094-.272819-.27282-.415377-.64899-.646484-.95898-2.3510816-.98468-4.0158379-3.26627-4.8847661-6.951173-1.5048106-6.38045-.2124821-16.320401 3.1933593-26.498047z" fill="#231f20" transform="matrix(.26458334278 0 0 .26458334278 .55569876432 263.25537547991)"/>
    <path d="m8.5195312 62.677734v7.634766c4.2688358-12.756524 11.9346568-25.896174 22.4414068-32.978516.604513-.407465.763428-1.228012.355468-1.832031-.40697-.604018-1.227022-.764887-1.832031-.357422-8.894298 5.995594-16.120295 16.437427-20.9648438 27.533203z" fill="#231f20" transform="matrix(.26458334278 0 0 .26458334278 .55569876432 263.25537547991)"/>
  </g>
</svg>
