<svg enable-background="new" height="128" viewBox="0 0 128 128" width="128" xmlns="http://www.w3.org/2000/svg" xmlns:xlink="http://www.w3.org/1999/xlink">
  <linearGradient gradientUnits="userSpaceOnUse" x1="6.463597" x2="6.463597" y1="13.196473" y2="2.429462">
    <stop offset="0" stop-color="#c03b00"/>
    <stop offset="1" stop-color="#e74700"/>
  </linearGradient>
  <linearGradient id="linearGradient893" gradientTransform="matrix(6.5745233 0 0 6.9998728 -13.018256 158.52673)" gradientUnits="userSpaceOnUse" x1="3.019348" x2="18.965513" y1="10.118958" y2="10.118958">
    <stop offset="0" stop-color="#fff6b8"/>
    <stop offset="1" stop-color="#ffef81"/>
  </linearGradient>
  <g transform="matrix(.86666673 0 0 .86666673 9.533387 -142.40002)">
    <path d="m132.07686 238.15385a69.230763 69.230763 0 0 1 -69.23076 69.23077 69.230763 69.230763 0 0 1 -69.2307765-69.23077 69.230763 69.230763 0 0 1 69.2307765-69.23076 69.230763 69.230763 0 0 1 69.23076 69.23076z" fill="#551a00" opacity=".5"/>
    <rect fill="#d5d3cf" height="131.53847" rx="64.615387" width="129.23077" x="-1.769221" y="171.23077"/>
    <path d="m132.07686 235.84616a69.230763 69.230763 0 0 1 -69.23076 69.23076 69.230763 69.230763 0 0 1 -69.2307765-69.23076 69.230763 69.230763 0 0 1 69.2307765-69.23077 69.230763 69.230763 0 0 1 69.23076 69.23077z" fill="#e66100"/>
    <circle cx="62.8461" cy="235.84615" fill="#ff7800" r="62.307693"/>
    <g transform="translate(0 .320821)">
      <g fill-rule="evenodd">
        <path d="m67.521484 13.425781c-3.116073.053719-6.839864 1.355459-9.267578 6.347657-4.75001 9.767633 4.22461 16.128906 4.22461 16.128906 2.230022-7.974193 5.522365-15.53327 10.667968-21.335938 0 0-2.508927-1.194344-5.625-1.140625zm13.509766 4.400391c-4.736941 2.284044-11.213657 12.130047-10.943359 20.789062 4.626508 2.367457 9.387244 5.205789 2.736328 25.712891-6.731133 20.754453-10.271379 18.514048-14.498047 18.328125-3.17854 4.22695-4.380352 20.82269-1.09375 23.52344 0 0 20.090055 9.86098 32.003906-39.115237 11.851022-48.717913-8.205078-49.238281-8.205078-49.238281zm-31.615234 63.078125c-3.346841-.049144-9.989963 1.122226-9.587891 11.279297.536409 13.550746 9.992187 12.699216 9.992187 12.699216-2.719886-8.950313-2.231639-16.88538 1.460938-23.808591 0 0-.749621-.153541-1.865234-.169922z" fill="#c64600" transform="matrix(1.15384611838 0 0 1.1538460571 -11.00005752148 163.98688099875)"/>
        <path d="m43.373047 207.32422c-.315988-.0865-.66593-.0433-.945313.0977-.279382.14092-.496301.35631-.685546.60742-.756984 1.00444-1.223405 2.71954-1.726563 4.78125-.503158 2.0617-.989633 4.44247-1.556641 6.59765-.567008 2.15519-1.233571 4.08871-1.986328 5.17969-.799204 1.1583-1.324692 1.44571-1.568359 1.48047-.243667.0348-.459451-.11359-.839844-.37305-.190196-.12973-.408421-.28257-.714844-.36328-.306423-.0807-.710227-.0358-1.033203.16797-.645951.40747-1.112449 1.21377-1.789062 2.84375-1.417465 3.41472-1.523607 9.51944-1.857422 14.5-.166908 2.49028-.39039 4.69821-.783203 6.01758-.196407.65968-.454602 1.06804-.609375 1.18359-.07739.0578-.10989.067-.1875.0625-.07761-.004-.215913-.0434-.41211-.17187-.331022-.21686-.819424-.866-1.285156-1.84375-.465732-.97776-.935022-2.26995-1.40039-3.76172-.930738-2.98354-1.847219-6.76624-2.771485-10.53711s-1.856929-7.52888-2.837891-10.5c-.49048-1.48556-.990411-2.77328-1.523437-3.7832s-1.076173-1.77104-1.830078-2.13086c-.704475-.33623-1.515068-.18799-2.054688.29492-.539619.48291-.909391 1.20499-1.236328 2.10351-.653873 1.79705-1.08885 4.34803-1.439453 7.15039-.7012047 5.60474-1.0531246 12.24164-1.7265624 15.13868a.57698112.57698112 0 1 0 1.1230469.25976c.7385225-3.17702 1.0550945-9.71708 1.7480465-15.25586.346477-2.76939.790653-5.28173 1.378907-6.89843.294126-.80836.635482-1.38043.921875-1.63672.286392-.2563.416785-.29292.789062-.11524.322851.15409.822231.71285 1.304688 1.62696.482456.9141.970102 2.15627 1.449218 3.60742.958233 2.90228 1.888788 6.64545 2.8125 10.41406s1.841891 7.56299 2.791016 10.60547c.474563 1.52124.955685 2.85333 1.460937 3.91406.505253 1.06073 1.006958 1.86284 1.69336 2.3125.31252.20473.637276.33788.978516.35742.341239.0195.683214-.0934.945312-.28906.524195-.39136.797296-1.01318 1.025391-1.7793.456188-1.53223.657965-3.75987.826171-6.26953.336414-5.01932.544378-11.17392 1.773438-14.13476.646649-1.5578 1.157666-2.19368 1.339844-2.3086.09109-.0575.06431-.0443.121094-.0293.05678.0149.188599.0847.359374.20117.341551.23296.891306.67106 1.652344.5625.761039-.10857 1.478258-.69545 2.355469-1.9668.923658-1.33867 1.573618-3.34325 2.152344-5.54297.578725-2.19972 1.067249-4.58788 1.5625-6.61719.49525-2.0293 1.049887-3.72779 1.527343-4.36132.119365-.15839.22425-.24175.283204-.27149.05895-.0297.06303-.0296.121093-.0137.116131.0318.481872.29497.91211.99219.825485 1.33775 1.520564 4.08464 2.060547 7.48828.539982 3.40364.958928 7.48371 1.388672 11.61719.429743 4.13347.870809 8.32078 1.458984 11.96093.588175 3.64016 1.304807 6.72165 2.380859 8.72657.526755.98146 1.000602 1.61479 1.572266 1.96679.571664.35201 1.30881.26737 1.785156-.10742.952692-.74958 1.459179-2.21975 2.054688-3.91015.595508-1.69041 1.188802-3.59802 1.86914-5.0586.340169-.73029.703638-1.34462 1.066407-1.7539.362768-.40929.690097-.59513 1.015624-.61719.786213-.0533 1.461828.41526 2.146485 1.30078.684657.88551 1.299968 2.1382 1.865234 3.35937.565267 1.22117 1.07093 2.40162 1.65625 3.22852.292661.41345.606944.76429 1.064453.9375.45751.17321 1.028878.039 1.435547-.30859.741-.63329 1.10032-1.55565 1.271485-2.625.171164-1.06936.169855-2.32092.146484-3.76368-.04674-2.88552-.196899-6.53649.564453-10.82617.787483-4.43684.831838-9.98342 1.207031-13.86133.187597-1.93895.502104-3.47959.871094-4.09179.184495-.30611.26542-.33656.396484-.33203.131065.005.474722.14055.951172.60937.87148.85752 1.911035 3.17771 2.88086 6.17578.969824 2.99808 1.929991 6.68977 2.914062 10.42383s1.993445 7.51086 3.072266 10.70117 2.19158 5.78653 3.5625 7.24414c.661361.70319 1.229925 1.12393 1.888672 1.16602.329373.021.662561-.0873.912109-.27539.249548-.18806.427711-.43601.574219-.71289.586032-1.10755.78132-2.82664 1.039062-4.75977.257743-1.93313.537636-4.04894 1.074219-5.71875s1.286699-2.79379 2.396485-3.08008c2.515153-.64882 5.161605.68121 7.697262 2.53125 2.53566 1.85005 4.85348 4.15643 6.88282 5.21094a.5770034.5770034 0 1 0 .5332-1.02344c-1.71834-.8929-4.10798-3.20146-6.73633-5.11914-2.62835-1.91767-5.603533-3.5068-8.666015-2.71679-1.679036.43313-2.620348 2.01803-3.207031 3.84375-.586683 1.82571-.861812 3.98989-1.119141 5.91992-.257328 1.93002-.53586 3.65633-.914062 4.37109-.09455.17869-.189114.28615-.25.33203-.06089.0459-.07757.0492-.144532.0449-.133916-.009-.547076-.19436-1.121093-.80468-1.099831-1.16938-2.250425-3.68726-3.310547-6.82227-1.060123-3.13501-2.065429-6.89349-3.048828-10.625-.983399-3.7315-1.945135-7.43668-2.931641-10.48633-.986506-3.04964-1.935876-5.4283-3.169922-6.64257-.576309-.56709-1.112126-.91851-1.71875-.93946-.606624-.0209-1.121425.3837-1.425781.88867-.608713 1.00994-.841039 2.59002-1.033203 4.57618-.384328 3.97231-.433843 9.4922-1.19336 13.77148-.785618 4.4264-.628366 8.18646-.582031 11.04687.02317 1.43021.01541 2.63646-.132812 3.5625-.148226.92605-.419246 1.53518-.88086 1.92969-.194635.16635-.189097.14083-.277343.10742-.08825-.0334-.302149-.20173-.53125-.52539-.458203-.64731-.97918-1.81201-1.550782-3.04687s-1.202013-2.54994-2-3.58203c-.797987-1.0321-1.842081-1.83189-3.136718-1.74414-.714901.0484-1.317129.45628-1.800782 1.00195s-.883494 1.24637-1.25 2.0332c-.733012 1.57367-1.325739 3.50319-1.910156 5.16211s-1.251796 3.05006-1.679688 3.38672c-.213945.16833-.218568.1853-.46875.0312-.250181-.15405-.677297-.63326-1.158203-1.5293-.939265-1.75005-1.679381-4.7733-2.259765-8.36523s-1.019574-7.76396-1.449219-11.89648c-.429645-4.13253-.850614-8.22467-1.398437-11.67774-.547824-3.45306-1.188472-6.2476-2.216797-7.91406-.496676-.80489-.957868-1.32704-1.589844-1.5z" fill="url(#linearGradient893)"/>
        <path d="m110.55786 237.07699-5.29021-23.28557 4.01739 23.71573-6.29171-16.89115 5.00352 17.5164-16.733666-11.74057 15.206736 13.13789-22.808399 2.01497 22.032499-.57356-13.346341 5.10528 13.692241-3.43633-14.094448 8.10046 14.709828-5.93451 2.03154 1.31527-4.27622 16.38681 6.55055-16.6391 4.99585 15.92192-2.95664-15.6965 8.70286 8.74085-7.08414-10.78822 13.91613 3.03865-13.3428-5.14532 11.9088-8.81268-12.0503 7.57184 15.35643-20.6439-16.22594 18.8509 6.09682-12.14845-7.79013 10.76629.51227-10.99376z" fill="#ffea53"/>
      </g>
      <path d="m115.69358 241.79538a5.257791 5.2590079 0 0 1 -5.25359 5.25901 5.257791 5.2590079 0 0 1 -5.26198-5.25062 5.257791 5.2590079 0 0 1 5.2452-5.26738 5.257791 5.2590079 0 0 1 5.27035 5.24221" fill="#fcf5c7"/>
    </g>
    <path d="m62.846215 173.53847a62.307692 62.307692 0 0 0 -62.30769159 62.30769 62.307692 62.307692 0 0 0 .04789 1.35104 62.307692 62.307692 0 0 1 62.25980659-61.35104 62.307692 62.307692 0 0 1 62.2598 60.95553 62.307692 62.307692 0 0 0 .0479-.95553 62.307692 62.307692 0 0 0 -62.307701-62.30769z" opacity=".1"/>
  </g>
</svg>
