<svg xmlns="http://www.w3.org/2000/svg" xmlns:xlink="http://www.w3.org/1999/xlink" width="128" height="128" version="1.0" viewBox="0 0 128 128" style="enable-background:new">
 <title id="title4162">
  Adwaita Icon Template
 </title>
 <defs>
  <linearGradient id="linearGradient950">
   <stop id="stop946" offset="0" style="stop-color:#9a9996"/>
   <stop id="stop948" offset="1" style="stop-color:#77767b"/>
  </linearGradient>
  <linearGradient id="linearGradient1001" x1="1660.857" x2="1662.99" y1="806.297" y2="812.882" gradientTransform="matrix(1.8293937,-0.81599442,0.81599442,1.8293937,-3645.9624,100.02949)" gradientUnits="userSpaceOnUse" xlink:href="#linearGradient950"/>
  <clipPath id="clipPath5154" clipPathUnits="userSpaceOnUse">
   <circle style="fill:url(#radialGradient5158)" cx="128" cy="924.362" r="109.647"/>
  </clipPath>
  <clipPath id="clipPath977" clipPathUnits="userSpaceOnUse">
   <circle style="fill:url(#radialGradient5158)" cx="128" cy="924.362" r="109.647"/>
  </clipPath>
  <clipPath id="clipPath4688" clipPathUnits="userSpaceOnUse">
   <path style="fill:url(#radialGradient4692);stroke:#a7003f;stroke-linecap:round;stroke-linejoin:round" d="m 106.42383,889.60156 c -2.2448,-0.0524 -4.09304,1.75264 -4.09375,3.99805 v 32.64453 32.64453 c -4e-5,3.07923 3.33305,5.004 6,3.46485 l 28.26953,-16.32227 28.27148,-16.32227 c 2.66559,-1.54001 2.66559,-5.38772 0,-6.92773 l -28.27148,-16.32227 -28.26953,-16.32226 c -0.58054,-0.3353 -1.23603,-0.51932 -1.90625,-0.53516 z"/>
  </clipPath>
  <clipPath id="clipPath4564" clipPathUnits="userSpaceOnUse">
   <circle cx="128" cy="924.362" r="109.647" style="fill:url(#radialGradient4568)"/>
  </clipPath>
  <clipPath id="clipPath6215" clipPathUnits="userSpaceOnUse">
   <path style="fill:url(#radialGradient6219)" d="m 105.17325,806.18572 c -3.06859,0.56361 -6.11393,1.24721 -9.129005,2.04923 -3.838255,1.06506 -7.62084,2.32142 -11.333578,3.76438 -3.712189,1.44307 -7.34989,3.07087 -10.899472,4.87732 -3.549153,1.80656 -7.005749,3.78947 -10.35684,5.94129 -3.351877,2.15253 -6.593991,4.47137 -9.714191,6.94783 -3.119992,2.47544 -6.114241,5.10535 -8.971529,7.87988 -0.367219,0.38909 -0.731819,0.78065 -1.093777,1.17464 2.60205,17.85956 16.832359,40.03752 30.863064,55.74236 -4.76734,8.84435 -7.265993,18.73329 -7.272057,28.78068 0.02104,2.87431 0.246096,5.7435 0.673482,8.58593 -20.257302,-9.18513 -43.077023,-26.53494 -52.798465,-47.36396 -0.440667,1.15171 -0.863474,2.31018 -1.268271,3.47498 -1.176789,3.80495 -2.162562,7.66637 -2.953625,11.56979 -0.79154,3.90311 -1.3874065,7.84335 -1.7853678,11.80598 -0.39733,3.96334 -0.5961891,7.94407 -0.5958321,11.92728 -4.394e-4,2.81936 0.098928,5.63785 0.2979155,8.45018 0.282275,3.97319 0.763088,7.92978 1.4406374,11.85493 0.625626,3.51826 1.408798,7.00668 2.347153,10.45473 16.778133,6.68355 43.114514,5.45001 63.748015,1.14301 6.818545,11.02763 16.987182,19.58379 29.018153,24.41667 -18.071844,12.93645 -44.490188,24.02095 -67.37308,22.03245 1.384097,1.665 2.813203,3.2921 4.285735,4.8794 2.774977,2.8571 5.691103,5.5737 8.737453,8.1395 3.046107,2.5658 6.218619,4.9777 9.505651,7.2266 3.287242,2.2488 6.684891,4.3319 10.180217,6.2413 3.495379,1.9096 7.084075,3.6433 10.752641,5.1944 3.66896,1.5509 7.413193,2.9174 11.218668,4.0942 1.438565,0.3959 2.884421,0.7648 4.336807,1.1066 14.138748,-11.1844 26.206378,-34.5828 32.780368,-54.56406 12.95816,-0.38251 25.45395,-4.90132 35.65955,-12.89544 2.15922,22.12638 -1.46693,50.5581 -14.64692,69.3832 3.06859,-0.5636 6.11393,-1.2473 9.129,-2.0493 3.83826,-1.0651 7.62084,-2.3214 11.33358,-3.7644 3.71219,-1.4431 7.34989,-3.0709 10.89947,-4.8773 3.54915,-1.8066 7.00575,-3.7895 10.35684,-5.9413 3.35188,-2.1525 6.59399,-4.4714 9.71419,-6.9478 3.11999,-2.4754 6.11424,-5.1054 8.97153,-7.8799 0.36722,-0.3891 0.73182,-0.7806 1.09378,-1.1746 -2.60204,-17.85957 -16.83236,-40.03755 -30.86307,-55.74238 4.76735,-8.84435 7.266,-18.7333 7.27207,-28.78069 -0.021,-2.8743 -0.24611,-5.74349 -0.6735,-8.58592 20.25731,9.18513 43.07704,26.53494 52.79848,47.36396 0.44067,-1.15171 0.86347,-2.31018 1.26827,-3.47499 1.17679,-3.80495 2.16256,-7.66636 2.95362,-11.56978 0.79154,-3.90311 1.38741,-7.84335 1.78537,-11.80598 0.39733,-3.96334 0.59619,-7.94408 0.59583,-11.92729 4.4e-4,-2.81936 -0.0989,-5.63784 -0.29791,-8.45017 -0.28228,-3.97319 -0.76309,-7.92978 -1.44064,-11.85493 -0.62776,-3.53416 -1.41449,-7.03823 -2.35779,-10.50154 -20.56165,-7.32804 -45.89823,-4.79548 -63.74906,-1.11372 -6.81835,-11.01918 -16.98234,-19.56874 -29.00647,-24.39915 18.07184,-12.93645 44.49019,-24.02091 67.37307,-22.03241 -1.38409,-1.66502 -2.8132,-3.2921 -4.28573,-4.87944 -2.77498,-2.85712 -5.6911,-5.57368 -8.73745,-8.13949 -3.04611,-2.56581 -6.21862,-4.97769 -9.50565,-7.22659 -3.28724,-2.24885 -6.68489,-4.3319 -10.18022,-6.24135 -3.49538,-1.90963 -7.08407,-3.64325 -10.75264,-5.19438 -3.66896,-1.55092 -7.41319,-2.91736 -11.21867,-4.09421 -1.42662,-0.39262 -2.86041,-0.75869 -4.30063,-1.09804 -14.14688,11.18369 -26.2293,34.57475 -32.8107,54.55552 -12.96018,0.38127 -25.4582,4.90015 -35.665394,12.89544 -2.15922,-22.12637 1.466931,-50.55807 14.646924,-69.38315 z"/>
  </clipPath>
  <linearGradient id="_lgradient_78" x1="0" x2="0" y1="0" y2="1" gradientTransform="matrix(117.16873,0,0,110.27645,69.41563,62.390233)" gradientUnits="userSpaceOnUse">
   <stop style="stop-color:#1fd1b0" id="stop51" offset="0%"/>
   <stop style="stop-color:#00ffaa" id="stop53" offset="100%"/>
  </linearGradient>
 </defs>
 <path style="fill:#deddda" d="M 124.00001,63.999998 A 59.999999,59.999999 0 0 1 64.000011,124 59.999999,59.999999 0 0 1 4,63.999998 59.999999,59.999999 0 0 1 64.000011,4.000002 59.999999,59.999999 0 0 1 124.00001,63.999998 Z"/>
 <rect width="112" height="114" x="8" y="6" rx="56" ry="56" style="fill:#d5d3cf"/>
 <path d="M 124.00001,62 A 59.999999,59.999999 0 0 1 64.000011,122 59.999999,59.999999 0 0 1 4,62 59.999999,59.999999 0 0 1 64.000011,1.9999952 59.999999,59.999999 0 0 1 124.00001,62 Z" style="fill:#f6f5f4"/>
 <circle cx="64" cy="62" r="54" style="fill:#3d3846"/>
 <path style="opacity:0.1" d="M 64.00011,7.9999983 A 54.000004,54.000004 0 0 0 10.000107,62 54.000004,54.000004 0 0 0 10.041612,63.170902 54.000004,54.000004 0 0 1 64.000115,9.9999965 54.000004,54.000004 0 0 1 117.95861,62.828126 54.000004,54.000004 0 0 0 118.00013,62 54.000004,54.000004 0 0 0 64.000114,7.9999983 Z"/>
 <g style="isolation:isolate" transform="matrix(0.48275862,0,0,0.48275862,2.2068976,2.2068966)">
  <path style="fill:#99c1f1" d="m 173.52349,126.40801 c 1.344,-1.89538 2.51568,-3.9286 3.44614,-6.0652 2.20553,-4.47999 3.41168,-9.3735 3.4806,-14.37041 0.0345,-3.51506 -0.75815,-6.995657 -2.27445,-10.166105 -0.96492,-1.964299 -2.58461,-3.515062 -4.58337,-4.376597 -1.24061,-0.551382 -2.51568,-0.964918 -3.85967,-1.171687 -1.61969,-0.310152 -3.27383,-0.447998 -4.92798,-0.413536 -4.23875,0.06892 -8.4775,0.620305 -12.61287,1.654146 -5.03136,1.24061 -9.9938,2.860296 -14.8184,4.824595 -10.92426,4.445524 -21.3316,10.131644 -30.98079,16.920544 -4.92798,3.4806 -9.373496,7.58151 -13.19871,12.23379 -3.687369,4.44552 -6.823356,9.33904 -9.40796,14.50825 -2.412297,4.79013 -4.307674,9.78703 -5.651668,14.95624 -1.171687,4.3766 -1.791992,8.85658 -1.826454,13.37102 v 0.86154 c 0,0.93045 -0.344614,1.79199 -0.99938,2.44675 -0.620305,0.65477 -1.48184,1.03385 -2.412297,1.03385 -0.895997,0.0345 -1.791993,-0.34462 -2.446759,-0.96492 -0.654767,-0.65477 -1.033842,-1.5163 -1.033842,-2.44676 v -0.896 c 0,-0.0345 0,-0.0689 0,-0.0689 0.03446,-5.10029 0.723689,-10.16611 2.067684,-15.09409 1.447378,-5.61721 3.515061,-11.09657 6.134127,-16.26578 2.825834,-5.65166 6.271973,-10.95872 10.269495,-15.81777 4.204289,-5.13475 9.097807,-9.68365 14.542704,-13.50887 10.06273,-7.06458 20.91807,-12.991944 32.35925,-17.644231 5.10028,-2.102145 10.37288,-3.790753 15.74885,-5.134748 4.61783,-1.171687 9.40796,-1.791992 14.1981,-1.860915 2.06768,-0.03446 4.13536,0.137846 6.16859,0.516921 1.89537,0.310153 3.75629,0.861535 5.51382,1.654147 3.4806,1.550763 6.30643,4.273212 7.96058,7.68489 1.99876,4.135367 2.99814,8.649806 2.96368,13.233176 -0.10339,5.96182 -1.48184,11.85472 -4.10091,17.23069 -1.13722,2.51569 -2.51568,4.92798 -4.13536,7.16797 -0.51692,0.72369 -1.344,1.24061 -2.23999,1.37846 -0.896,0.13784 -1.82646,-0.0689 -2.55015,-0.62031 -0.75815,-0.51692 -1.24061,-1.30953 -1.41291,-2.23999 -0.13785,-0.89599 0.0689,-1.82645 0.6203,-2.55014 z"/>
  <path style="fill:#99c1f1" d="m 126.27693,68.823026 c -0.79262,-0.447998 -1.37846,-1.206148 -1.61969,-2.067683 -0.20677,-0.895996 -0.10338,-1.826454 0.34461,-2.619066 0.448,-0.792612 1.20615,-1.378456 2.10215,-1.619685 0.86153,-0.24123 1.82645,-0.137846 2.61906,0.344614 4.3766,2.48122 8.20181,5.858436 11.30334,9.855957 3.44614,4.411058 6.30643,9.235653 8.54642,14.3704 2.48122,5.68613 4.47999,11.544566 5.8929,17.575307 1.55076,6.44428 2.58461,12.99195 3.17045,19.57407 0.37908,4.65229 0.58584,9.33904 0.58584,14.02579 0.0345,7.61597 -0.55138,15.26639 -1.75753,22.77898 -1.03384,6.71997 -2.86029,13.26763 -5.4449,19.53961 -1.13722,2.75691 -2.55014,5.41043 -4.20429,7.92612 -1.5163,2.30891 -3.30829,4.41105 -5.34151,6.27197 -1.9643,1.75753 -4.23875,3.20491 -6.68551,4.20429 -2.48122,0.99938 -5.13475,1.5163 -7.82274,1.5163 -0.0345,0 -0.0689,0 -0.0689,0 l -0.75815,-0.0345 c 0,0 0,0 -0.0345,0 -5.23813,-0.13785 -10.37288,-1.5163 -14.99071,-4.06645 -3.58398,-2.03322 -6.71997,-4.79013 -9.23565,-8.06396 -1.82645,-2.34338 -3.342754,-4.96244 -4.47998,-7.71935 -0.551383,-1.17169 -0.964919,-2.37784 -1.309533,-3.61845 -0.206768,-0.896 -0.103384,-1.82645 0.379075,-2.61906 0.447998,-0.79262 1.206149,-1.37846 2.067684,-1.58523 0.895994,-0.24123 1.826454,-0.10338 2.619064,0.34462 0.79261,0.44799 1.37846,1.20614 1.61969,2.10214 0.24123,0.896 0.55138,1.79199 0.93045,2.65353 0.93046,2.23999 2.17107,4.34213 3.65291,6.23751 1.92984,2.55014 4.3766,4.68675 7.13351,6.27197 3.61845,1.9643 7.68489,3.06707 11.78579,3.17045 l 0.72369,0.0345 c 1.792,0 3.54953,-0.34461 5.20367,-0.99938 1.68861,-0.72369 3.27384,-1.72307 4.65229,-2.96368 1.58523,-1.44738 2.99814,-3.10152 4.20429,-4.92798 1.41292,-2.1366 2.61907,-4.41106 3.61845,-6.75443 2.34337,-5.78951 4.03198,-11.82026 4.96244,-17.98884 1.17168,-7.16798 1.72307,-14.43933 1.68861,-21.71068 0,-4.47998 -0.17231,-8.95996 -0.58585,-13.43994 -0.51692,-6.23752 -1.5163,-12.44057 -2.99814,-18.54023 -1.30953,-5.65167 -3.17045,-11.131031 -5.47936,-16.438085 -1.99876,-4.617827 -4.58337,-8.959962 -7.68489,-12.923022 -2.55014,-3.273832 -5.68613,-6.030743 -9.30457,-8.098427 z"/>
  <path style="fill:#99c1f1" d="m 181.86315,152.21959 c 0.86153,-0.31015 1.79199,-0.31015 2.65352,0.0689 0.82708,0.34462 1.48184,1.03385 1.82646,1.86092 0.34461,0.86153 0.31015,1.82645 -0.0345,2.65353 -0.37908,0.82707 -1.03384,1.5163 -1.89538,1.82645 -1.9643,0.79261 -3.96306,1.48184 -5.99628,2.06768 -2.99814,0.86154 -6.03074,1.61969 -9.06335,2.27446 -8.06396,1.75753 -16.30024,2.65352 -24.57097,2.68798 -7.34028,0.0689 -14.71501,-0.82707 -21.84852,-2.72245 -8.13289,-2.27445 -15.92116,-5.78951 -22.985748,-10.4418 -6.961201,-4.51444 -13.336558,-9.92488 -18.919303,-16.05901 -5.238132,-5.6172 -9.614728,-11.9581 -13.026406,-18.81591 -1.550762,-3.06707 -2.756911,-6.30644 -3.652907,-9.64919 -0.861535,-3.03261 -1.309533,-6.20305 -1.343994,-9.407964 -0.03446,-3.342755 0.585843,-6.685509 1.860915,-9.787035 0.861534,-2.102144 2.033222,-4.066444 3.515061,-5.823975 1.309533,-1.550762 2.929219,-2.894756 4.721211,-3.928598 3.342755,-1.826454 7.099046,-2.72245 10.889799,-2.619066 3.101526,0.03446 6.168589,0.447998 9.201192,1.24061 2.687988,0.723689 5.341515,1.619686 7.92612,2.687989 2.75691,1.102764 5.41044,2.412297 7.96058,3.894137 0.79261,0.482459 1.34399,1.24061 1.58522,2.102145 0.20677,0.895996 0.10339,1.826453 -0.37907,2.619065 -0.448,0.792612 -1.20615,1.343995 -2.10214,1.585224 -0.896,0.24123 -1.82646,0.103384 -2.61907,-0.344614 -2.23999,-1.343994 -4.61783,-2.515681 -7.064586,-3.4806 -2.274452,-0.964919 -4.652288,-1.757531 -7.064585,-2.377836 -2.48122,-0.689228 -5.031363,-1.033842 -7.581506,-1.068303 -2.584604,-0.06892 -5.134747,0.551382 -7.374738,1.791992 -1.068303,0.620305 -2.033222,1.412917 -2.860295,2.377836 -0.99938,1.171687 -1.791992,2.48122 -2.377836,3.928599 -0.895996,2.274451 -1.378456,4.686749 -1.343994,7.133508 0.03446,2.584606 0.379075,5.169206 1.068303,7.684886 0.792612,2.89476 1.860915,5.68613 3.204909,8.37412 3.135987,6.27198 7.133508,12.09595 11.923641,17.2307 5.20367,5.72059 11.131029,10.71749 17.609767,14.92178 6.47874,4.27321 13.57779,7.51258 21.05591,9.58027 6.51321,1.72306 13.23318,2.55014 19.98761,2.48122 7.78827,-0.0345 15.54209,-0.86154 23.15805,-2.51569 2.89476,-0.6203 5.75506,-1.34399 8.58089,-2.17106 1.82645,-0.55139 3.61845,-1.13723 5.37598,-1.86092 z"/>
  <circle style="fill:#99c1f1" stroke="#3f3f3f" stroke-width="1.749" cx="128" cy="127.867" r="7.326" vector-effect="non-scaling-stroke"/>
  <path style="fill:#99c1f1" d="m 127.51538,55.511416 c -3.51608,0.16508 -6.70658,2.107787 -8.46727,5.155748 -2.85413,4.944087 -1.16072,11.265761 3.78268,14.121092 4.94408,2.854132 11.26576,1.160719 14.12109,-3.782675 2.85413,-4.944087 1.16072,-11.265761 -3.78268,-14.121092 -1.7143,-0.989489 -3.67663,-1.466055 -5.65382,-1.373073 z m 55.38053,89.586154 c -1.73255,0.0419 -3.42677,0.5187 -4.9269,1.38653 -4.94339,2.85534 -6.63681,9.17701 -3.78267,14.1211 2.85533,4.94339 9.177,6.6368 14.12109,3.78267 4.94339,-2.85533 6.6368,-9.177 3.78267,-14.12109 -1.88915,-3.27444 -5.41487,-5.2567 -9.19419,-5.16921 z M 72.861769,158.88213 c -5.70975,0 -10.338417,4.62866 -10.338417,10.33841 0,5.70975 4.628667,10.33842 10.338417,10.33842 5.70975,0 10.338417,-4.62867 10.338417,-10.33842 0,-5.70975 -4.628667,-10.33841 -10.338417,-10.33841 z"/>
  <path d="m 127.99999,65.836372 c -1.90325,0 -3.44613,1.542889 -3.44613,3.446139 0,1.90325 1.54288,3.446139 3.44613,3.446139 1.90325,0 3.44614,-1.542889 3.44614,-3.446139 0,-1.90325 -1.54289,-3.446139 -3.44614,-3.446139 z m 55.13823,89.599618 c -1.90325,0 -3.44614,1.54289 -3.44614,3.44614 0,1.90325 1.54289,3.44614 3.44614,3.44614 1.90325,0 3.44614,-1.54289 3.44614,-3.44614 0,-1.90325 -1.54289,-3.44614 -3.44614,-3.44614 z M 72.861769,169.22054 c -1.90325,0 -3.446139,1.54289 -3.446139,3.44614 0,1.90325 1.542889,3.44614 3.446139,3.44614 1.90325,0 3.446139,-1.54289 3.446139,-3.44614 0,-1.90325 -1.542889,-3.44614 -3.446139,-3.44614 z" style="opacity:0.2"/>
  <linearGradient id="linearGradient911" x1="0" x2="0" y1="0" y2="1" gradientTransform="matrix(117.16873,0,0,110.27645,69.41563,62.390233)" gradientUnits="userSpaceOnUse">
   <stop style="stop-color:#1fd1b0" id="stop907" offset="0%"/>
   <stop style="stop-color:#00ffaa" id="stop909" offset="100%"/>
  </linearGradient>
  <path style="fill:#241f31" d="m 127.99999,62.390233 c -1.90325,0 -3.44613,1.542889 -3.44613,3.446139 0,1.90325 1.54288,3.446139 3.44613,3.446139 1.90325,0 3.44614,-1.542889 3.44614,-3.446139 0,-1.90325 -1.54289,-3.446139 -3.44614,-3.446139 z m 55.13823,89.599617 c -1.90325,0 -3.44614,1.54289 -3.44614,3.44614 0,1.90325 1.54289,3.44614 3.44614,3.44614 1.90325,0 3.44614,-1.54289 3.44614,-3.44614 0,-1.90325 -1.54289,-3.44614 -3.44614,-3.44614 z M 72.861769,165.7744 c -1.90325,0 -3.446139,1.54289 -3.446139,3.44614 0,1.90325 1.542889,3.44614 3.446139,3.44614 1.90325,0 3.446139,-1.54289 3.446139,-3.44614 0,-1.90325 -1.542889,-3.44614 -3.446139,-3.44614 z"/>
 </g>
</svg>
