<svg enable-background="new" height="128" viewBox="0 0 128 128" width="128" xmlns="http://www.w3.org/2000/svg">
  <path d="m124.00001 63.999998a59.999999 59.999999 0 0 1 -59.999999 60.000002 59.999999 59.999999 0 0 1 -60.000011-60.000002 59.999999 59.999999 0 0 1 60.000011-59.999996 59.999999 59.999999 0 0 1 59.999999 59.999996z" fill="#deddda"/>
  <rect fill="#d5d3cf" height="114" rx="56" width="112" x="8" y="6"/>
  <path d="m124.00001 62a59.999999 59.999999 0 0 1 -59.999999 60 59.999999 59.999999 0 0 1 -60.000011-60 59.999999 59.999999 0 0 1 60.000011-60.0000048 59.999999 59.999999 0 0 1 59.999999 60.0000048z" fill="#f6f5f4"/>
  <circle cx="64" cy="62" fill="#99c1f1" r="54"/>
  <path d="m64.00011 7.9999983a54.000004 54.000004 0 0 0 -54.000003 54.0000017 54.000004 54.000004 0 0 0 .041505 1.170902 54.000004 54.000004 0 0 1 53.958503-53.1709055 54.000004 54.000004 0 0 1 53.958495 52.8281295 54.000004 54.000004 0 0 0 .04152-.828126 54.000004 54.000004 0 0 0 -54.000016-54.0000017z" opacity=".1"/>
  <path d="m63.765625 29.805526c-1.697417.07969-3.237903 1.016853-4.087891 2.488282-1.377856 2.386801-.560297 5.439923 1.826172 6.818359 1.664199.960713 3.641622.83461 5.160156-.126953.349312.368688.682632.753831.996094 1.15625 1.214968 1.552461 2.256435 3.229305 3.125 4.996094-1.184777.391096-2.356172.818305-3.507812 1.292968-5.523328 2.245931-10.763224 5.107092-15.621094 8.517579-2.628571 1.846657-4.991828 4.042639-7.021484 6.521484-.875107 1.063705-1.688785 2.176536-2.451172 3.324219-1.620386-2.003346-3.017145-4.18077-4.169922-6.486329-.648825-1.297649-1.164234-2.645498-1.546875-4.042968-.332731-1.214467-.498985-2.461245-.515625-3.708985-.01664-1.181194.215888-2.345348.648437-3.443359.282822-.698735.665979-1.330842 1.148438-1.896484.399277-.465823.865127-.84898 1.380859-1.148438 1.081375-.598915 2.312807-.898504 3.560547-.865234 1.231103.01664 2.460373.182894 3.658203.515625 1.164557.299458 2.314099.682614 3.41211 1.148437 1.181193.465823 2.328782 1.030863 3.410156 1.679688.382639.216275.83112.282471 1.263672.166015.432547-.116455.799349-.381031 1.015625-.763671.232909-.382641.28146-.833076.18164-1.265626-.116456-.415911-.381033-.78076-.763671-1.013671-1.231102-.715371-2.512829-1.348491-3.84375-1.88086-1.247741-.515732-2.528522-.947508-3.826172-1.296875-1.464015-.382641-2.944119-.582969-4.441407-.599609-1.830019-.04991-3.644068.381936-5.257812 1.263672-.865099.499096-1.647109 1.14784-2.279297 1.896484-.715371.848463-1.281353 1.797672-1.697266 2.8125-.615552 1.497288-.915077 3.110866-.898437 4.724609.01664 1.5472.232523 3.076997.648437 4.541016.43255 1.613741 1.015028 3.177548 1.763672 4.658203 1.43539 2.885276 3.225974 5.58136 5.335938 8.021485-.234634.429772-.474039.85628-.69336 1.294922-1.264376 2.49548-2.262203 5.141758-2.960937 7.853515-.264398.969458-.461677 1.951272-.621094 2.939453-2.129251.570056-3.705078 2.49363-3.705078 4.802735 0 2.756431 2.233803 4.990234 4.990234 4.990234s4.992188-2.233803 4.992188-4.990234c0-2.026746-1.213538-3.762941-2.949219-4.544922.135136-.788141.296074-1.573294.503906-2.34961.648825-2.495481 1.563959-4.906273 2.728516-7.21875.03738-.07477.08128-.146175.119141-.220703 2.334965 2.345552 4.903828 4.458314 7.68164 6.259766 3.41049 2.245933 7.171433 3.941051 11.097657 5.039062 3.443763.915011 7.003292 1.347713 10.546874 1.314454.771962-.0032 1.542265-.036 2.3125-.07031-.464371 2.04795-1.088981 4.058185-1.878906 6.009766-.482459 1.131282-1.065947 2.230256-1.748047 3.261718-.582279.881739-1.264013 1.680172-2.029297 2.378907-.665458.598915-1.430902 1.080319-2.246093 1.429687-.79855.31609-1.646615.482419-2.511719.482419l-.349609-.01563c-1.979745-.04991-3.942618-.582967-5.689453-1.53125-1.330923-.765279-2.511713-1.796242-3.44336-3.027344-.715371-.915012-1.314484-1.930346-1.763672-3.011718-.182999-.415916-.332763-.848699-.449218-1.28125-.116456-.432553-.398614-.797401-.78125-1.013672-.382639-.216278-.833076-.282472-1.265626-.166016-.415911.09982-.781771.381028-.998046.763672-.232912.38264-.283414.833073-.183594 1.265625.166366.598915.366628 1.180451.632812 1.746094.549006 1.330922 1.280376 2.595275 2.16211 3.726562 1.214467 1.580469 2.728787 2.911023 4.458984 3.892578 2.229297 1.231107 4.709528 1.896341 7.238281 1.962891h.01563l.36523.01758h.0332c1.297651 0 2.579514-.249963 3.777344-.732422 1.181195-.482459 2.280232-1.180834 3.228515-2.029297.981555-.898375 1.846118-1.9127 2.578125-3.027343.798555-1.214473 1.480294-2.495249 2.029297-3.826172 1.001375-2.430001 1.755962-4.949574 2.277344-7.525391 2.046132-.216321 4.078932-.538286 6.089844-.976563.891212-.19242 1.782464-.40926 2.669921-.638671 1.494191 1.990059 4.27104 2.597727 6.480469 1.322265 2.386464-1.378435 3.204028-4.429604 1.826172-6.816406-.912003-1.580764-2.613001-2.53833-4.4375-2.496094-.836404.02023-1.654705.250969-2.378906.669922-1.545387.892628-2.41906 2.487567-2.478516 4.148438-.787923.203783-1.580111.395237-2.378906.566406-1.59828.347138-3.210746.605136-4.830078.802734.430277-3.139761.651076-6.317907.636719-9.486328 0-2.262569-.1002-4.525551-.283204-6.771484-.282819-3.177575-.780653-6.338187-1.529296-9.449219-.499387-2.131539-1.154498-4.217401-1.9375-6.259766.119509-.03039.237747-.06619.357422-.0957 1.996386-.499096 4.041597-.765558 6.08789-.798828.798555-.01664 1.596987.04949 2.378906.199219.648823.09982 1.264367.300222 1.863282.566406.964919.415914 1.747067 1.164999 2.21289 2.113281.732007 1.530561 1.114317 3.209325 1.097656 4.90625-.03327 2.412302-.614948 4.774747-1.679687 6.9375-.449188 1.031463-1.015235 2.014677-1.664063 2.929688-.266193.349367-.365378.797922-.298828 1.230469.08318.449187.315638.830531.681641 1.080078.349368.2662.797918.367321 1.230469.300781.432547-.06655.832483-.316649 1.082031-.666016.781914-1.081375 1.447091-2.246466 1.996094-3.460937 1.264378-2.595296 1.930559-5.440241 1.980469-8.318359.01664-2.212663-.466722-4.390335-1.431641-6.386719-.798555-1.647017-2.161508-2.962294-3.841797-3.710938-.848463-.382641-1.747102-.649099-2.662109-.798828-.981559-.182998-1.980325-.26664-2.978516-.25-2.312481.03327-4.624219.332796-6.853516.898438-.293606.0734-.584658.156629-.876953.234375-1.015836-2.154284-2.24767-4.194285-3.714844-6.072266-.479122-.617535-1.006743-1.192293-1.554687-1.744141.736409-2.203212-.148826-4.693511-2.238281-5.90039-.827593-.477684-1.775963-.706998-2.730469-.66211zm8.349609 18.390625c.773632 1.991309 1.416397 4.030321 1.900391 6.119141.715371 2.944663 1.197718 5.939956 1.447266 8.951172.199644 2.162749.283203 4.325532.283203 6.488281.01556 3.282524-.227906 6.563031-.720703 9.804688-.978657.05683-1.95764.0894-2.939453.09375-3.260761.03327-6.506083-.365444-9.650391-1.197266-3.610127-.998195-7.036395-2.562071-10.164063-4.625-2.842313-1.844481-5.450788-4.021138-7.791015-6.472656.825683-1.314196 1.725968-2.58084 2.716797-3.775391 1.846655-2.245928 3.992068-4.22596 6.371093-5.90625 4.658229-3.2774 9.683251-6.023807 14.957032-8.169922 1.180987-.480829 2.378828-.917682 3.589843-1.310547zm-8.136718 13.001954a3.5366898 3.5366898 0 0 0 -3.515625 3.537109 3.5366898 3.5366898 0 0 0 3.537109 3.537109 3.5366898 3.5366898 0 0 0 3.537109-3.537109 3.5366898 3.5366898 0 0 0 -3.537109-3.537109 3.5366898 3.5366898 0 0 0 -.02148 0z" fill="#241f31" opacity=".4"/>
  <path d="m63.765625 29.005859c-1.697417.07969-3.237903 1.016853-4.087891 2.488282-1.377856 2.386801-.560297 5.439923 1.826172 6.818359 1.664199.960713 3.641622.83461 5.160156-.126953.349312.368688.682632.753831.996094 1.15625 1.214968 1.552461 2.256435 3.229305 3.125 4.996094-1.184777.391096-2.356172.818305-3.507812 1.292968-5.523328 2.245931-10.763224 5.107092-15.621094 8.517579-2.628571 1.846657-4.991828 4.042639-7.021484 6.521484-.875107 1.063705-1.688785 2.176536-2.451172 3.324219-1.620386-2.003346-3.017145-4.18077-4.169922-6.486329-.648825-1.297649-1.164234-2.645498-1.546875-4.042968-.332731-1.214467-.498985-2.461245-.515625-3.708985-.01664-1.181194.215888-2.345348.648437-3.443359.282822-.698735.665979-1.330842 1.148438-1.896484.399277-.465823.865127-.84898 1.380859-1.148438 1.081375-.598915 2.312807-.898504 3.560547-.865234 1.231103.01664 2.460373.182894 3.658203.515625 1.164557.299458 2.314099.682614 3.41211 1.148437 1.181193.465823 2.328782 1.030863 3.410156 1.679688.382639.216275.83112.282471 1.263672.166015.432547-.116455.799349-.381031 1.015625-.763671.232909-.382641.28146-.833076.18164-1.265626-.116456-.415911-.381033-.78076-.763671-1.013671-1.231102-.715371-2.512829-1.348491-3.84375-1.88086-1.247741-.515732-2.528522-.947508-3.826172-1.296875-1.464015-.382641-2.944119-.582969-4.441407-.599609-1.830019-.04991-3.644068.381936-5.257812 1.263672-.865099.499096-1.647109 1.14784-2.279297 1.896484-.715371.848463-1.281353 1.797672-1.697266 2.8125-.615552 1.497288-.915077 3.110866-.898437 4.724609.01664 1.5472.232523 3.076997.648437 4.541016.43255 1.613741 1.015028 3.177548 1.763672 4.658203 1.43539 2.885276 3.225974 5.58136 5.335938 8.021485-.234634.429772-.474039.85628-.69336 1.294922-1.264376 2.49548-2.262203 5.141758-2.960937 7.853515-.264398.969458-.461677 1.951272-.621094 2.939453-2.129251.570056-3.705078 2.49363-3.705078 4.802735 0 2.756431 2.233803 4.990234 4.990234 4.990234s4.992188-2.233803 4.992188-4.990234c0-2.026746-1.213538-3.762941-2.949219-4.544922.135136-.788141.296074-1.573294.503906-2.34961.648825-2.495481 1.563959-4.906273 2.728516-7.21875.03738-.07477.08128-.146175.119141-.220703 2.334965 2.345552 4.903828 4.458314 7.68164 6.259766 3.41049 2.245933 7.171433 3.941051 11.097657 5.039062 3.443763.915011 7.003292 1.347713 10.546874 1.314454.771962-.003201 1.542265-.036003 2.3125-.070313-.464371 2.04795-1.088981 4.058185-1.878906 6.009766-.482459 1.131282-1.065947 2.230256-1.748047 3.261718-.582279.881739-1.264013 1.680172-2.029297 2.378907-.665458.598915-1.430902 1.080319-2.246093 1.429687-.79855.316093-1.646615.482422-2.511719.482422l-.349609-.015625c-1.979745-.04991-3.942618-.582967-5.689453-1.53125-1.330923-.765279-2.511713-1.796242-3.44336-3.027344-.715371-.915012-1.314484-1.930346-1.763672-3.011718-.182999-.415916-.332763-.848699-.449218-1.28125-.116456-.432553-.398614-.797401-.78125-1.013672-.382639-.216278-.833076-.282472-1.265626-.166016-.415911.09982-.781771.381028-.998046.763672-.232912.38264-.283414.833073-.183594 1.265625.166366.598915.366628 1.180451.632812 1.746094.549006 1.330922 1.280376 2.595275 2.16211 3.726562 1.214467 1.580469 2.728787 2.911023 4.458984 3.892578 2.229297 1.231107 4.709528 1.896341 7.238281 1.962891h.015625l.365235.017578h.033203c1.297651 0 2.579514-.249963 3.777344-.732422 1.181195-.482459 2.280232-1.180834 3.228515-2.029297.981555-.898375 1.846118-1.9127 2.578125-3.027343.798555-1.214473 1.480294-2.495249 2.029297-3.826172 1.001375-2.430001 1.755962-4.949574 2.277344-7.525391 2.046132-.216321 4.078932-.538286 6.089844-.976563.891212-.19242 1.782464-.40926 2.669921-.638671 1.494191 1.990059 4.27104 2.597727 6.480469 1.322265 2.386464-1.378435 3.204028-4.429604 1.826172-6.816406-.912003-1.580764-2.613001-2.53833-4.4375-2.496094-.836404.02023-1.654705.250969-2.378906.669922-1.545387.892628-2.41906 2.487567-2.478516 4.148438-.787923.203783-1.580111.395237-2.378906.566406-1.59828.347138-3.210746.605136-4.830078.802734.430277-3.139761.651076-6.317907.636719-9.486328 0-2.262569-.1002-4.525551-.283204-6.771484-.282819-3.177575-.780653-6.338187-1.529296-9.449219-.499387-2.131539-1.154498-4.217401-1.9375-6.259766.119509-.03039.237747-.066193.357422-.095703 1.996386-.499096 4.041597-.765558 6.08789-.798828.798555-.01664 1.596987.04949 2.378906.199219.648823.09982 1.264367.300222 1.863282.566406.964919.415914 1.747067 1.164999 2.21289 2.113281.732007 1.530561 1.114317 3.209325 1.097656 4.90625-.03327 2.412302-.614948 4.774747-1.679687 6.9375-.449188 1.031463-1.015235 2.014677-1.664063 2.929688-.266193.349367-.365378.797922-.298828 1.230469.08318.449187.315638.830531.681641 1.080078.349368.2662.797918.367321 1.230469.300781.432547-.06655.832483-.316649 1.082031-.666016.781914-1.081375 1.447091-2.246466 1.996094-3.460937 1.264378-2.595296 1.930559-5.440241 1.980469-8.318359.016639-2.212663-.466722-4.390335-1.431641-6.386719-.798555-1.647017-2.161508-2.962294-3.841797-3.710938-.848463-.382641-1.747102-.649099-2.662109-.798828-.981559-.182998-1.980325-.26664-2.978516-.25-2.312481.03327-4.624219.332796-6.853516.898438-.293606.0734-.584658.156629-.876953.234375-1.015836-2.154284-2.24767-4.194285-3.714844-6.072266-.479122-.617535-1.006743-1.192293-1.554687-1.744141.736409-2.203212-.148826-4.693511-2.238281-5.90039-.827593-.477684-1.775963-.706998-2.730469-.66211zm8.349609 18.390625c.773632 1.991309 1.416397 4.030321 1.900391 6.119141.715371 2.944663 1.197718 5.939956 1.447266 8.951172.199644 2.162749.283203 4.325532.283203 6.488281.01556 3.282524-.227906 6.563031-.720703 9.804688-.978657.05683-1.95764.0894-2.939453.09375-3.260761.03327-6.506083-.365444-9.650391-1.197266-3.610127-.998195-7.036395-2.562071-10.164063-4.625-2.842313-1.844481-5.450788-4.021138-7.791015-6.472656.825683-1.314196 1.725968-2.58084 2.716797-3.775391 1.846655-2.245928 3.992068-4.22596 6.371093-5.90625 4.658229-3.2774 9.683251-6.023807 14.957032-8.169922 1.180987-.480829 2.378828-.917682 3.589843-1.310547zm-8.136718 13.001954a3.5366898 3.5366898 0 0 0 -3.515625 3.537109 3.5366898 3.5366898 0 0 0 3.537109 3.537109 3.5366898 3.5366898 0 0 0 3.537109-3.537109 3.5366898 3.5366898 0 0 0 -3.537109-3.537109 3.5366898 3.5366898 0 0 0 -.021484 0z" fill="#241f31"/>
  <path d="m63.999996 33.989973c-.91881 0-1.663649.744843-1.663649 1.663653s.744839 1.663653 1.663649 1.663653 1.663654-.744843 1.663654-1.663653-.744844-1.663653-1.663654-1.663653zm26.618456 43.254988c-.91881 0-1.663654.744843-1.663654 1.663653 0 .918811.744844 1.663654 1.663654 1.663654s1.663654-.744843 1.663654-1.663654c0-.91881-.744844-1.663653-1.663654-1.663653zm-53.236907 6.65461c-.918811 0-1.663654.744843-1.663654 1.663654 0 .91881.744843 1.663654 1.663654 1.663654.91881 0 1.663653-.744844 1.663653-1.663654 0-.918811-.744843-1.663654-1.663653-1.663654z" opacity=".2"/>
  <path d="m63.999996 32.326319c-.91881 0-1.663649.744843-1.663649 1.663654 0 .91881.744839 1.663653 1.663649 1.663653s1.663654-.744843 1.663654-1.663653c0-.918811-.744844-1.663654-1.663654-1.663654zm26.618456 43.254988c-.91881 0-1.663654.744843-1.663654 1.663654 0 .91881.744844 1.663653 1.663654 1.663653s1.663654-.744843 1.663654-1.663653c0-.918811-.744844-1.663654-1.663654-1.663654zm-53.236907 6.65461c-.918811 0-1.663654.744844-1.663654 1.663654s.744843 1.663654 1.663654 1.663654c.91881 0 1.663653-.744844 1.663653-1.663654s-.744843-1.663654-1.663653-1.663654z" fill="#99c1f1"/>
</svg>
