<svg enable-background="new" height="128" viewBox="0 0 128 128" width="128" xmlns="http://www.w3.org/2000/svg" xmlns:xlink="http://www.w3.org/1999/xlink">
  <linearGradient id="linearGradient925" gradientUnits="userSpaceOnUse" x1="214" x2="226" xlink:href="#linearGradient936" y1="-34" y2="-34"/>
  <linearGradient id="linearGradient936">
    <stop offset="0" stop-color="#62a0ea"/>
    <stop offset="1" stop-color="#3584e4"/>
  </linearGradient>
  <linearGradient id="linearGradient927" gradientUnits="userSpaceOnUse" x1="214" x2="226" xlink:href="#linearGradient936" y1="-52" y2="-52"/>
  <linearGradient id="linearGradient929" gradientUnits="userSpaceOnUse" x1="214" x2="226" xlink:href="#linearGradient936" y1="-70" y2="-70"/>
  <g enable-background="new" transform="translate(-160 -1888)">
    <g enable-background="new" transform="translate(160 1730)">
      <g enable-background="new" transform="translate(0 -10)">
        <rect fill="#3584e4" height="56" rx="28" width="96" x="28" y="220"/>
        <path d="m28.025346 247.00001c.52401 15.04435 12.79799 27 27.97461 27h30v2h-30c-15.51201 0-28-12.48799-28-28 0-.33539.0138-.66753.0254-1zm95.951174.0723c.01.30861.0234.61655.0234.9277 0 14.15284-10.39695 25.78251-24.000004 27.71289v-2c13.257314-1.88132 23.466014-12.97702 23.976564-26.64062z" fill="#1a5fb4" fill-rule="evenodd"/>
      </g>
      <g transform="translate(-4 -10)">
        <rect fill="#f6f5f4" height="56" rx="28" width="96" x="8" y="192"/>
        <g fill="#c0bfbc" transform="matrix(1 0 0 -1 3.999988 439.99998)">
          <circle cx="220" cy="-34" fill="url(#linearGradient925)" r="6" transform="rotate(90)"/>
          <circle cx="220" cy="-52" fill="url(#linearGradient927)" r="6" transform="rotate(90)"/>
          <circle cx="220" cy="-70" fill="url(#linearGradient929)" r="6" transform="rotate(90)"/>
        </g>
      </g>
      <path d="m99.974586 209.00001c-.524013 15.04435-12.797987 27-27.97461 27h-30v2h30c15.512015 0 28-12.48799 28-28 0-.33539-.0138-.66753-.0254-1zm-95.9511721.0723c-.00997.30861-.023437.61655-.023437.9277 0 14.15284 10.3969521 25.78251 24.0000001 27.71289v-2c-13.257308-1.88132-23.4660156-12.97702-23.9765631-26.64062z" fill="#c0bfbc" fill-rule="evenodd"/>
    </g>
    <g fill-rule="evenodd">
      <path d="m187.99998 1966v14l16.54492-14z" fill="#c0bfbc"/>
      <path d="m187.99998 1964v14l16.54524-14z" fill="#f6f5f4"/>
      <g transform="translate(25.45478 498)">
        <path d="m234.54522 1496v14l-16.54492-14z" fill="#1a5fb4"/>
        <path d="m234.54522 1494v14l-16.54524-14z" fill="#3584e4"/>
      </g>
    </g>
  </g>
</svg>
