<svg enable-background="new" height="128" viewBox="0 0 128 128" width="128" xmlns="http://www.w3.org/2000/svg">
  <g transform="translate(.000062 -173)">
    <path d="m123.99993 237a59.999995 59.999995 0 0 1 -59.999985 60 59.999995 59.999995 0 0 1 -60.0000069-60 59.999995 59.999995 0 0 1 60.0000069-59.99999 59.999995 59.999995 0 0 1 59.999985 59.99999z" fill="#deddda"/>
    <rect fill="#d5d3cf" height="114" rx="56" width="112" x="8" y="179"/>
    <path d="m123.99993 235a59.999995 59.999995 0 0 1 -59.999985 59.99999 59.999995 59.999995 0 0 1 -60.0000069-59.99999 59.999995 59.999995 0 0 1 60.0000069-60 59.999995 59.999995 0 0 1 59.999985 60z" fill="#f6f5f4"/>
  </g>
  <rect fill="#90ae32" height="108" rx="54.001" transform="matrix(0 -1 -1 0 0 0)" width="108" x="-116.17" y="-118.15"/>
  <path d="m89.067477 64.244433c0 3.968225-39.657751 26.785346-43.108779 24.801058-3.448496-1.984103-3.448496-47.619882.000004-49.601275 3.448494-1.984092 43.108779 20.832865 43.108779 24.801048z" opacity=".2"/>
  <path d="m89.066102 62.16718c0 3.968203-39.657679 26.785242-43.107294 24.801139-3.448504-1.984102-3.448504-47.618582.000004-49.600711 3.448505-1.984108 43.107294 20.832926 43.107294 24.801151z" fill="#fff"/>
  <path d="m64.076647 8.1319153a54 54 0 0 0 -54 54.0000007 54 54 0 0 0 .0415 1.1709 54 54 0 0 1 53.9585-53.1709 54 54 0 0 1 53.958503 52.82813 54 54 0 0 0 .0415-.82813 54 54 0 0 0 -54.000013-54.0000007z" opacity=".1"/>
</svg>
