<?xml version="1.0" encoding="UTF-8" standalone="no"?>
<svg
   xmlns:dc="http://purl.org/dc/elements/1.1/"
   xmlns:cc="http://creativecommons.org/ns#"
   xmlns:rdf="http://www.w3.org/1999/02/22-rdf-syntax-ns#"
   xmlns:svg="http://www.w3.org/2000/svg"
   xmlns="http://www.w3.org/2000/svg"
   xmlns:xlink="http://www.w3.org/1999/xlink"
   xmlns:sodipodi="http://sodipodi.sourceforge.net/DTD/sodipodi-0.dtd"
   xmlns:inkscape="http://www.inkscape.org/namespaces/inkscape"
   style="enable-background:new"
   width="128"
   height="128"
   version="1.0"
   viewBox="0 0 128 128"
   id="svg44"
   sodipodi:docname="firefox.svg"
   inkscape:version="0.92.3 (2405546, 2018-03-11)">
  <metadata
     id="metadata48">
    <rdf:RDF>
      <cc:Work
         rdf:about="">
        <dc:format>image/svg+xml</dc:format>
        <dc:type
           rdf:resource="http://purl.org/dc/dcmitype/StillImage" />
        <dc:title>
  Adwaita Icon Template
 </dc:title>
      </cc:Work>
    </rdf:RDF>
  </metadata>
  <sodipodi:namedview
     pagecolor="#ffffff"
     bordercolor="#666666"
     borderopacity="1"
     objecttolerance="10"
     gridtolerance="10"
     guidetolerance="10"
     inkscape:pageopacity="0"
     inkscape:pageshadow="2"
     inkscape:window-width="1920"
     inkscape:window-height="1009"
     id="namedview46"
     showgrid="false"
     inkscape:zoom="6.8442613"
     inkscape:cx="35.143711"
     inkscape:cy="18.245507"
     inkscape:window-x="0"
     inkscape:window-y="34"
     inkscape:window-maximized="1"
     inkscape:current-layer="layer9" />
  <title
     id="title4162">
  Adwaita Icon Template
 </title>
  <defs
     id="defs22">
    <linearGradient
       id="linearGradient950">
      <stop
         style="stop-color:#9a9996"
         id="stop946"
         offset="0" />
      <stop
         style="stop-color:#77767b"
         id="stop948"
         offset="1" />
    </linearGradient>
    <linearGradient
       id="linearGradient1001"
       x1="1660.857"
       x2="1662.99"
       y1="806.297"
       y2="812.882"
       gradientTransform="matrix(1.8293937,-0.81599442,0.81599442,1.8293937,-3645.9624,100.02949)"
       gradientUnits="userSpaceOnUse"
       xlink:href="#linearGradient950" />
    <clipPath
       id="clipPath5154"
       clipPathUnits="userSpaceOnUse">
      <circle
         cx="128"
         cy="924.362"
         r="109.647"
         style="fill:url(#radialGradient5158)"
         id="circle7" />
    </clipPath>
    <clipPath
       id="clipPath977"
       clipPathUnits="userSpaceOnUse">
      <circle
         cx="128"
         cy="924.362"
         r="109.647"
         style="fill:url(#radialGradient5158)"
         id="circle10" />
    </clipPath>
    <clipPath
       id="clipPath4688"
       clipPathUnits="userSpaceOnUse">
      <path
         d="m 106.42383,889.60156 c -2.2448,-0.0524 -4.09304,1.75264 -4.09375,3.99805 v 32.64453 32.64453 c -4e-5,3.07923 3.33305,5.004 6,3.46485 l 28.26953,-16.32227 28.27148,-16.32227 c 2.66559,-1.54001 2.66559,-5.38772 0,-6.92773 l -28.27148,-16.32227 -28.26953,-16.32226 c -0.58054,-0.3353 -1.23603,-0.51932 -1.90625,-0.53516 z"
         style="fill:url(#radialGradient4692);stroke:#a7003f;stroke-linecap:round;stroke-linejoin:round"
         id="path13" />
    </clipPath>
    <clipPath
       id="clipPath4564"
       clipPathUnits="userSpaceOnUse">
      <circle
         style="fill:url(#radialGradient4568)"
         cx="128"
         cy="924.362"
         r="109.647"
         id="circle16" />
    </clipPath>
    <clipPath
       id="clipPath6215"
       clipPathUnits="userSpaceOnUse">
      <path
         d="m 105.17325,806.18572 c -3.06859,0.56361 -6.11393,1.24721 -9.129005,2.04923 -3.838255,1.06506 -7.62084,2.32142 -11.333578,3.76438 -3.712189,1.44307 -7.34989,3.07087 -10.899472,4.87732 -3.549153,1.80656 -7.005749,3.78947 -10.35684,5.94129 -3.351877,2.15253 -6.593991,4.47137 -9.714191,6.94783 -3.119992,2.47544 -6.114241,5.10535 -8.971529,7.87988 -0.367219,0.38909 -0.731819,0.78065 -1.093777,1.17464 2.60205,17.85956 16.832359,40.03752 30.863064,55.74236 -4.76734,8.84435 -7.265993,18.73329 -7.272057,28.78068 0.02104,2.87431 0.246096,5.7435 0.673482,8.58593 -20.257302,-9.18513 -43.077023,-26.53494 -52.798465,-47.36396 -0.440667,1.15171 -0.863474,2.31018 -1.268271,3.47498 -1.176789,3.80495 -2.162562,7.66637 -2.953625,11.56979 -0.79154,3.90311 -1.3874065,7.84335 -1.7853678,11.80598 -0.39733,3.96334 -0.5961891,7.94407 -0.5958321,11.92728 -4.394e-4,2.81936 0.098928,5.63785 0.2979155,8.45018 0.282275,3.97319 0.763088,7.92978 1.4406374,11.85493 0.625626,3.51826 1.408798,7.00668 2.347153,10.45473 16.778133,6.68355 43.114514,5.45001 63.748015,1.14301 6.818545,11.02763 16.987182,19.58379 29.018153,24.41667 -18.071844,12.93645 -44.490188,24.02095 -67.37308,22.03245 1.384097,1.665 2.813203,3.2921 4.285735,4.8794 2.774977,2.8571 5.691103,5.5737 8.737453,8.1395 3.046107,2.5658 6.218619,4.9777 9.505651,7.2266 3.287242,2.2488 6.684891,4.3319 10.180217,6.2413 3.495379,1.9096 7.084075,3.6433 10.752641,5.1944 3.66896,1.5509 7.413193,2.9174 11.218668,4.0942 1.438565,0.3959 2.884421,0.7648 4.336807,1.1066 14.138748,-11.1844 26.206378,-34.5828 32.780368,-54.56406 12.95816,-0.38251 25.45395,-4.90132 35.65955,-12.89544 2.15922,22.12638 -1.46693,50.5581 -14.64692,69.3832 3.06859,-0.5636 6.11393,-1.2473 9.129,-2.0493 3.83826,-1.0651 7.62084,-2.3214 11.33358,-3.7644 3.71219,-1.4431 7.34989,-3.0709 10.89947,-4.8773 3.54915,-1.8066 7.00575,-3.7895 10.35684,-5.9413 3.35188,-2.1525 6.59399,-4.4714 9.71419,-6.9478 3.11999,-2.4754 6.11424,-5.1054 8.97153,-7.8799 0.36722,-0.3891 0.73182,-0.7806 1.09378,-1.1746 -2.60204,-17.85957 -16.83236,-40.03755 -30.86307,-55.74238 4.76735,-8.84435 7.266,-18.7333 7.27207,-28.78069 -0.021,-2.8743 -0.24611,-5.74349 -0.6735,-8.58592 20.25731,9.18513 43.07704,26.53494 52.79848,47.36396 0.44067,-1.15171 0.86347,-2.31018 1.26827,-3.47499 1.17679,-3.80495 2.16256,-7.66636 2.95362,-11.56978 0.79154,-3.90311 1.38741,-7.84335 1.78537,-11.80598 0.39733,-3.96334 0.59619,-7.94408 0.59583,-11.92729 4.4e-4,-2.81936 -0.0989,-5.63784 -0.29791,-8.45017 -0.28228,-3.97319 -0.76309,-7.92978 -1.44064,-11.85493 -0.62776,-3.53416 -1.41449,-7.03823 -2.35779,-10.50154 -20.56165,-7.32804 -45.89823,-4.79548 -63.74906,-1.11372 -6.81835,-11.01918 -16.98234,-19.56874 -29.00647,-24.39915 18.07184,-12.93645 44.49019,-24.02091 67.37307,-22.03241 -1.38409,-1.66502 -2.8132,-3.2921 -4.28573,-4.87944 -2.77498,-2.85712 -5.6911,-5.57368 -8.73745,-8.13949 -3.04611,-2.56581 -6.21862,-4.97769 -9.50565,-7.22659 -3.28724,-2.24885 -6.68489,-4.3319 -10.18022,-6.24135 -3.49538,-1.90963 -7.08407,-3.64325 -10.75264,-5.19438 -3.66896,-1.55092 -7.41319,-2.91736 -11.21867,-4.09421 -1.42662,-0.39262 -2.86041,-0.75869 -4.30063,-1.09804 -14.14688,11.18369 -26.2293,34.57475 -32.8107,54.55552 -12.96018,0.38127 -25.4582,4.90015 -35.665394,12.89544 -2.15922,-22.12637 1.466931,-50.55807 14.646924,-69.38315 z"
         style="fill:url(#radialGradient6219)"
         id="path19" />
    </clipPath>
    <filter
       style="color-interpolation-filters:sRGB"
       id="filter11210"
       width="1.096"
       height="1.096"
       x="-0.050000001"
       y="-0.050000001">
      <feGaussianBlur
         id="feGaussianBlur11212"
         stdDeviation="4.48" />
    </filter>
    <filter
       style="color-interpolation-filters:sRGB"
       id="filter11191"
       width="1.024"
       height="1.024"
       x="-0.0099999998"
       y="-0.0099999998">
      <feGaussianBlur
         id="feGaussianBlur11193"
         stdDeviation="1.12" />
    </filter>
    <linearGradient
       id="linearGradient11065"
       x1="104"
       x2="200"
       y1="44"
       y2="268"
       gradientTransform="translate(-280.752,-323.24799)"
       gradientUnits="userSpaceOnUse"
       xlink:href="#linearGradient7537" />
    <linearGradient
       id="linearGradient7537">
      <stop
         style="stop-color:#f37e40"
         id="stop7539"
         offset="0" />
      <stop
         style="stop-color:#f34f17"
         id="stop7541"
         offset="1" />
    </linearGradient>
    <filter
       style="color-interpolation-filters:sRGB"
       id="filter5358"
       width="1.227"
       height="1.255"
       x="-0.11"
       y="-0.13">
      <feGaussianBlur
         id="feGaussianBlur5360"
         stdDeviation="6.8" />
    </filter>
    <filter
       style="color-interpolation-filters:sRGB"
       id="filter5380"
       width="1.023"
       height="1.026"
       x="-0.0099999998"
       y="-0.0099999998">
      <feGaussianBlur
         id="feGaussianBlur5382"
         stdDeviation=".68" />
    </filter>
  </defs>
  <g
     id="layer1"
     transform="matrix(0.86666673,0,0,0.86666673,9.5333867,-142.40002)">
    <g
       id="layer9">
      <path
         style="fill:#000000;stroke-width:1;fill-opacity:1;opacity:0.6"
         d="m -6.2156561,236.17158 a 69.230765,69.230765 0 0 0 -0.1690205,3.36688 69.230765,69.230765 0 0 0 69.2307656,69.23077 69.230765,69.230765 0 0 0 69.230771,-69.23077 69.230765,69.230765 0 0 0 -0.11945,-3.36688 z"
         id="path24"
         inkscape:connector-curvature="0" />
      <path
         style="opacity:0.98999999;fill:#f5c211;fill-opacity:1;stroke-width:0.20215842"
         d="m 83.009258,164.79686 c 0,0 -32.486867,27.9654 -22.287014,55.19272 7.823814,20.88468 27.206209,24.08061 42.052536,37.25331 l 8.15474,-1.71309 c 0,0 14.32746,-34.95402 13.20654,-37.93034 -0.30799,-0.81781 -0.79103,-3.33109 -1.32127,-6.4094 -4.15909,-5.27402 -8.73765,-9.91238 -13.74841,-14.49624 C 88.697001,178.06125 83.009248,169.74341 83.009258,164.79686 Z"
         id="path1202"
         inkscape:connector-curvature="0"
         sodipodi:nodetypes="cscccccc" />
      <ellipse
         id="circle1069"
         cy="238.15773"
         cx="64.4739"
         style="fill:#1a5fb4;fill-opacity:1;stroke-width:1.22693956"
         rx="36.435837"
         ry="36.280113" />
      <path
         sodipodi:nodetypes="cscccscsscc"
         inkscape:connector-curvature="0"
         id="path1054"
         d="m -6.3121499,237.52016 c 0,38.07529 30.9775859,68.94137 69.1906659,68.94137 38.212834,0 69.190444,-30.86608 69.190444,-68.94137 0,-4.00906 -0.3582,-8.01013 -1.05964,-11.9578 0.091,1.34849 0.14011,2.69958 0.14477,4.05116 -7e-4,35.05196 -28.51907,63.46673 -63.697804,63.46621 -35.177792,-5.3e-4 -63.6949888,-28.415 -63.6954614,-63.46621 9.35e-4,-3.78274 2.5830239,-6.34618 2.7676907,-8.93835 0.5747566,-8.06803 9.1057237,-12.46267 11.7812037,-18.2178 1.917866,-4.12545 0.613166,-10.88637 0.0041,-15.42409 -21.2216652,12.91992 -24.3445098,34.20583 -24.6254353,50.48688 z"
         style="opacity:1;fill:#c01c28;fill-opacity:1;stroke:none;stroke-width:0.58957762;stroke-linecap:round;stroke-linejoin:bevel;stroke-miterlimit:4;stroke-dasharray:none;stroke-dashoffset:0;stroke-opacity:1;enable-background:new" />
      <path
         style="opacity:1;fill:#ffa348;fill-opacity:1;stroke:none;stroke-width:0.83661956;stroke-linecap:round;stroke-linejoin:bevel;stroke-miterlimit:4;stroke-dasharray:none;stroke-dashoffset:0;stroke-opacity:1;enable-background:new"
         d="m 81.972413,215.03814 c -0.278891,-0.004 -0.557751,-0.003 -0.838584,0.004 -1.859348,0.0428 -3.762417,0.32261 -5.686551,0.85971 0,0 1.06465,0.97467 1.528321,1.39086 5.711037,2.72262 10.181018,7.25007 12.857989,12.70421 2.251657,3.87566 3.428225,8.17513 3.431277,12.53869 -0.0041,8.41605 -4.363849,16.36078 -11.817189,21.53603 -3.045955,2.2441 -6.573675,3.87389 -10.399275,4.71605 -2.163331,0.55413 -4.388561,0.89464 -6.635543,1.01536 -20.0232,1.64743 -5.112113,3.36378 11.922695,1.07625 13.231906,-1.77689 28.001897,-6.26305 31.035267,-10.06128 5.75791,-24.12318 -7.828197,-45.51183 -25.398407,-45.77964 z"
         id="path1070"
         inkscape:connector-curvature="0"
         sodipodi:nodetypes="sccccccccscs" />
      <path
         style="opacity:1;fill:#ff7800;fill-opacity:1;stroke:none;stroke-width:0.54422331;stroke-linecap:round;stroke-linejoin:bevel;stroke-miterlimit:4;stroke-dasharray:none;stroke-dashoffset:0;stroke-opacity:1;enable-background:new"
         d="m 18.313912,187.03329 c -3.256413,2.22889 -6.594596,4.50309 -9.1872887,7.11115 -34.1010993,34.30311 -10.7876901,103.48673 58.2610027,105.82727 35.274004,3.7e-4 63.866164,-33.85863 63.865684,-69.00544 -0.001,-1.11557 -0.091,-2.11576 -0.14017,-3.1671 -0.0483,-0.42456 -0.1,-0.84989 -0.15632,-1.2735 -0.39191,-2.24339 -0.8977,-4.46428 -1.51467,-6.65783 -0.61692,-2.19308 -1.34389,-4.35488 -2.17959,-6.47624 -0.8361,-2.12167 -1.7793,-4.20175 -2.8259,-6.23044 -1.04635,-2.02852 -2.19486,-4.00385 -3.44122,-5.91916 -0.84706,-1.25457 -1.73527,-2.47953 -2.66463,-3.67601 -1.40342,-1.59028 -2.9001,-3.20427 -4.54774,-4.88159 4.70807,16.35169 5.502,23.52681 5.08613,35.56192 -1.45657,16.76587 -13.6608,34.46561 -31.153177,39.42568 -5.297274,1.85918 -11.10497,2.89535 -17.111729,2.89535 -10.185149,0 -20.14823,-1.41685 -26.963939,-6.37001 -1.094992,-0.79577 -2.113948,-1.67101 -3.062837,-2.61249 a 30.688013,27.325963 0 0 1 -8.488879,-16.21471 c -0.556611,-2.61808 -0.841071,-5.299 -0.841071,-7.96097 0,-6.63144 2.328064,-12.8111 6.334098,-18.02677 0.861127,-13.95449 0.898046,-21.94402 0.200973,-28.64099 -7.921562,5.94229 -9.976695,7.43139 -16.582028,13.57134 -0.348845,0.32426 -2.507203,-17.56856 -2.886689,-17.27946 z"
         id="circle1061"
         inkscape:connector-curvature="0" />
      <path
         style="fill:#e66100;fill-opacity:1;stroke:none;stroke-width:0.63378727px;stroke-linecap:butt;stroke-linejoin:miter;stroke-opacity:1"
         d="m 20.341003,204.92189 c 5.137627,-5.21607 11.467902,-9.65179 17.441626,-14.18048 0.30236,3.13248 0.758036,10.05755 0.251631,20.1528 -5.446665,-5.17133 -17.943223,-2.91588 -17.693257,-5.97232 z"
         id="path1692"
         inkscape:connector-curvature="0"
         sodipodi:nodetypes="cccc" />
      <path
         style="opacity:0.2;fill:#000000;fill-opacity:1;stroke:none;stroke-width:0.82725054;stroke-linecap:round;stroke-linejoin:bevel;stroke-miterlimit:4;stroke-dasharray:none;stroke-dashoffset:0;stroke-opacity:1;enable-background:new"
         d="m 80.872057,215.03817 c -0.273702,-0.004 -0.547373,-0.003 -0.822986,0.004 -1.824752,0.0427 -3.692402,0.32142 -5.580737,0.8565 0,0 1.044849,0.97103 1.499889,1.38566 5.60476,2.71246 9.991574,7.223 12.61873,12.65676 2.209755,3.86119 3.364436,8.1446 3.367437,12.49186 -0.0041,8.38463 -4.282654,16.29968 -11.597308,21.45559 -1.53911,1.15113 -3.205633,2.13685 -4.970798,2.93991 -6.788161,2.09248 -14.170396,2.83906 -20.147357,1.72777 -3.043776,-0.55182 -5.947809,-1.57181 -8.231094,-2.7061 -1.108432,-0.55065 -2.817731,-1.75842 -4.229376,-2.823 -0.47857,-0.36092 -0.837926,-0.64619 -1.217433,-0.94388 -1.235804,-1.55264 -3.612491,-4.42671 -5.602643,-7.70236 -1.821946,-2.99877 -2.852996,-6.89076 -3.133685,-8.16135 -0.520513,-2.35625 0.170158,-5.52089 2.174346,-7.3098 1.212932,-1.08264 2.851126,-2.28725 4.228154,-3.03959 1.978202,-1.08083 4.368472,-1.4017 6.521816,-1.9825 3.075116,-0.82943 6.436203,-0.61073 9.369387,-1.85945 2.504644,-1.06625 5.707882,-2.12396 6.712946,-4.67629 0.288735,-0.73321 0.254014,-2.5157 -0.383493,-2.49812 -0.04254,0.001 -0.08847,0.009 -0.136363,0.0282 -0.239999,0.0902 -0.492041,0.17292 -0.75481,0.24859 0.273784,0.5215 0.246617,1.6661 0.02795,2.22124 -1.005074,2.55234 -4.208312,3.61003 -6.712946,4.6763 -2.933205,1.24871 -6.294281,1.03001 -9.369397,1.85945 -2.153344,0.58079 -4.543604,0.90165 -6.521816,1.9825 -1.377018,0.75233 -3.015222,1.95694 -4.228154,3.03959 -2.004188,1.7889 -2.694849,4.95355 -2.174336,7.30979 0.280689,1.27059 5.650002,16.12556 3.133675,8.16136 2.397915,2.87737 3.829648,6.92033 6.86878,8.50839 0.284471,0.22036 0.501967,0.39508 0.826644,0.63992 1.422743,1.07296 3.125732,2.28974 4.327988,2.88701 2.338103,1.16152 5.284758,2.19573 8.391789,2.759 6.753678,1.04062 10.190914,1.06848 16.271038,-0.58822 0.815054,-0.18215 1.613924,-0.40774 2.39957,-0.66207 2.882578,-0.69675 5.564245,-2.3732 7.806202,-4.03637 7.314655,-5.15591 11.592951,-13.07098 11.597308,-21.4556 -0.0031,-4.34726 -1.157671,-8.63066 -3.367437,-12.49186 -2.627156,-5.43375 -7.01397,-9.94429 -12.61873,-12.65675 -0.455039,-0.41464 -1.499878,-1.38568 -1.499878,-1.38568 1.828584,-0.51814 3.637018,-0.79087 5.406632,-0.84665 -0.08364,-0.002 -0.16576,-0.0123 -0.249575,-0.0135 z m -57.656593,5.27191 c -0.127043,9.5e-4 -0.254086,0.007 -0.381047,0.0123 3.232296,0.0822 6.45217,0.72857 9.241562,1.28228 4.177261,0.83269 8.076164,3.02159 12.309497,3.58353 2.816046,0.37379 6.07662,0.65747 9.08208,0.62267 -2.643566,-0.0443 -5.40652,-0.30028 -7.835425,-0.62267 -4.233322,-0.56194 -8.132246,-2.75084 -12.309507,-3.58353 -3.038577,-0.6032 -6.587351,-1.32024 -10.10716,-1.29336 z"
         id="path1885"
         inkscape:connector-curvature="0"
         sodipodi:nodetypes="cccccccccsccscccccccccccsccccccccccccccccccccsccccc" />
      <path
         style="fill:#040404;fill-opacity:0;stroke:none;stroke-width:1.42543387px;stroke-linecap:butt;stroke-linejoin:miter;stroke-opacity:1"
         d="m 29.887772,205.73586 c -1.641061,-0.0446 -3.352106,0.48043 -5.007984,0.52519 -3.445415,0.0852 -6.912132,-0.27085 -10.338888,0.12851 -3.261879,0.38016 -6.6067403,0.79358 -9.6419062,2.14895 -1.7090931,0.7631 -4.23808982,1.32586 -4.64470213,3.28775 -1.01009847,4.87382 3.68815823,9.55885 7.20116453,12.7733 1.8495147,1.69234 4.4228078,2.15943 6.7383048,2.90991 2.330777,0.75543 4.680769,1.4786 7.045084,2.14632 0.546818,0.71188 1.201238,1.36093 1.835273,1.98287 1.323514,1.29807 2.854321,2.4127 4.493995,3.28236 1.905391,1.01057 4.615459,0.62139 6.092465,2.18915 l 5.239413,11.96409 c -0.510732,-3.22378 -1.669934,-7.83063 0.653917,-12.06587 0.800843,-1.03477 2.021029,-1.70091 3.194237,-2.28567 1.685388,-0.84004 3.552833,-1.29615 5.395484,-1.69073 2.753367,-0.58958 5.824938,0.16822 8.387905,-0.99411 1.30842,-0.59337 3.196929,-2.88587 3.196929,-2.88587 l 0.23146,-2.40082 c 0,0 -6.647092,-3.44126 -9.757637,-5.56536 -3.470559,-2.37 -6.589026,-5.3028 -9.873336,-7.96886 -2.948998,-2.39396 -5.319694,-6.00822 -8.829227,-7.2079 -0.526761,-0.17982 -1.064907,-0.2588 -1.61192,-0.27352 z"
         id="path2818"
         inkscape:connector-curvature="0" />
      <path
         inkscape:connector-curvature="0"
         id="path2915"
         d="m 29.887772,205.73586 c -1.641061,-0.0446 -3.352106,0.48043 -5.007984,0.52519 -3.445415,0.0852 -6.912132,-0.27085 -10.338888,0.12851 -3.261879,0.38016 -6.6067403,0.79358 -9.6419062,2.14895 -1.7090931,0.7631 -4.23808982,1.32586 -4.64470213,3.28775 -1.01009847,4.87382 3.68815823,9.55885 7.20116453,12.7733 1.8495147,1.69234 4.4228078,2.15943 6.7383048,2.90991 2.330777,0.75543 4.680769,1.4786 7.045084,2.14632 0.546818,0.71188 1.201238,1.36093 1.835273,1.98287 1.323514,1.29807 2.854321,2.4127 4.493995,3.28236 1.905391,1.01057 4.615459,0.62139 6.092465,2.18915 l 5.239413,11.96409 c -0.510732,-3.22378 -1.669934,-7.83063 0.653917,-12.06587 0.800843,-1.03477 2.021029,-1.70091 3.194237,-2.28567 1.685388,-0.84004 3.552833,-1.29615 5.395484,-1.69073 2.753367,-0.58958 5.824938,0.16822 8.387905,-0.99411 1.30842,-0.59337 3.196929,-2.88587 3.196929,-2.88587 l 0.23146,-2.40082 c 0,0 -6.647092,-3.44126 -9.757637,-5.56536 -3.470559,-2.37 -6.589026,-5.3028 -9.873336,-7.96886 -2.948998,-2.39396 -5.319694,-6.00822 -8.829227,-7.2079 -0.526761,-0.17982 -1.064907,-0.2588 -1.61192,-0.27352 z"
         style="fill:#040404;fill-opacity:0;stroke:none;stroke-width:1.42543387px;stroke-linecap:butt;stroke-linejoin:miter;stroke-opacity:1" />
      <path
         style="fill:#ff7800;fill-opacity:1;stroke:none;stroke-width:0.63378716px;stroke-linecap:butt;stroke-linejoin:miter;stroke-opacity:1"
         d="m 21.178981,205.77847 c 6.372085,-1.163 13.226306,-0.91406 18.207009,2.22985 1.362508,0.89005 3.21301,3.10231 3.407736,3.49016 0.194706,0.38776 7.107547,5.91376 7.107547,5.91376 l 7.594367,4.65352 4.28401,2.03588 v 1.06643 c 0,0 -19.18065,3.49012 -20.543745,3.39316 -1.363094,-0.0973 -10.612651,5.04128 -10.612651,5.04128 l -0.876263,10.37336 2.62881,8.33751 -29.3064701,13.47572 -3.69982072,-7.56192 c 0,0 -5.50330218,-11.35496 -5.66364748,-22.6294 -0.1603454,-11.27438 1.4158682,-21.8434 7.7082893,-31.46734 4.2620003,-6.64906 4.9341868,-9.78503 16.899071,-17.09715 0.814314,6.26965 1.858454,12.5044 2.865758,18.74518 z"
         id="path1752"
         inkscape:connector-curvature="0"
         sodipodi:nodetypes="ccccccccccccczccc" />
      <path
         style="fill:#ffa348;fill-opacity:1;stroke:none;stroke-width:1.45661473px;stroke-linecap:butt;stroke-linejoin:miter;stroke-opacity:1"
         d="m 26.402714,235.88947 c -2.843974,-1.78555 -3.20966,-1.2037 -7.533106,-3.18745 -4.186251,-1.92946 -6.003471,-2.11214 -6.811527,-5.61654 -0.575928,-3.2518 1.601655,-5.06787 4.061304,-6.03637 5.362685,-1.97408 11.64966,-0.71184 16.603555,0.25702 4.256462,0.8358 8.22868,3.03209 12.542272,3.59614 5.281326,0.6906 12.134159,1.11749 15.977042,-0.30566 0.781433,-0.28959 0.843897,1.69422 0.53008,2.47928 -1.024134,2.56191 -4.288562,3.62371 -6.840688,4.69399 -2.988804,1.25336 -6.413556,1.03351 -9.546984,1.86605 -2.194167,0.58298 -4.62933,0.90456 -6.645037,1.98943 -1.403137,0.75516 -3.073297,1.96426 -4.309215,3.05096 -2.042196,1.79559 -2.746062,4.97283 -2.215674,7.33792 0.285992,1.27536 1.337006,5.18219 3.193498,8.19224 3.080479,4.99456 7.354461,9.38963 6.500988,8.94324 -3.156938,-1.65129 -3.62067,-1.57838 -7.979032,-6.89411 -3.58594,-4.37362 -5.155752,-9.9802 -5.538906,-11.40303"
         id="path2512"
         inkscape:connector-curvature="0"
         sodipodi:nodetypes="cccccsssssssssssc" />
    </g>
  </g>
  <g
     style="enable-background:new"
     id="layer1-3"
     transform="translate(-294.27009,-106.8)">
    <g
       id="layer9-6">
      <g
         id="layer11" />
    </g>
  </g>
</svg>
