<svg fill="none" height="128" viewBox="0 0 128 128" width="128" xmlns="http://www.w3.org/2000/svg" xmlns:xlink="http://www.w3.org/1999/xlink">
  <radialGradient id="paint1_radial" cx="104.81" cy="16.3157" gradientUnits="userSpaceOnUse" r="121.246">
    <stop offset=".129" stop-color="#ffbd4f"/>
    <stop offset=".186" stop-color="#ffac31"/>
    <stop offset=".247" stop-color="#ff9d17"/>
    <stop offset=".283" stop-color="#ff980e"/>
    <stop offset=".403" stop-color="#ff563b"/>
    <stop offset=".467" stop-color="#ff3750"/>
    <stop offset=".71" stop-color="#f5156c"/>
    <stop offset=".782" stop-color="#eb0878"/>
    <stop offset=".86" stop-color="#e50080"/>
  </radialGradient>
  <path d="m116.971 43.2551c-2.527-6.0806-7.653-12.6458-11.668-14.7211 2.864 5.545 4.85 11.5 5.89 17.6533l.011.0975c-6.576-16.3943-17.727-23.0045-26.8343-37.39849-.4606-.7278-.9214-1.45711-1.37-2.22692-.2566-.43969-.4622-.83583-.6408-1.20048-.3777-.73148-.6688-1.50453-.8673-2.30346.0002-.03687-.0131-.07254-.0375-.10022-.0243-.02767-.058-.04542-.0946-.04984-.0359-.00983-.0737-.00983-.1095 0-.0079 0-.0195.01352-.0286.01647-.009.0026-.0285.01646-.042.02253l.0225-.039c-14.6085 8.55351-19.5651 24.38811-20.0212 32.30831-5.834.401-11.4117 2.5509-16.0056 6.1691-.4793-.406-.9803-.7857-1.5007-1.1375-1.3252-4.6385-1.3817-9.5476-.1635-14.2154-5.3648 2.599-10.1318 6.2832-13.9993 10.8195h-.027c-2.3049-2.9217-2.1428-12.5557-2.0108-14.568-.6819.274-1.3328.6196-1.9418 1.0309-2.0348 1.4523-3.937 3.0818-5.6843 4.8695-1.9912 2.0188-3.8098 4.2009-5.4368 6.5232v.009-.0105c-3.7392 5.3011-6.39127 11.2902-7.8032 17.6218l-.078.3842c-.10955.5117-.50421 3.0748-.57174 3.6315 0 .0435-.00902.084-.01352.1275-.50911 2.6461-.82457 5.3258-.94389 8.0178v.3002c.01277 14.5624 5.48785 28.5902 15.34315 39.3115 9.8553 10.721 23.3737 17.354 37.8836 18.59s28.9555-3.016 40.4819-11.916c11.5268-8.9 19.2948-21.7999 21.7698-36.1505.098-.7503.177-1.4931.264-2.2509 1.198-9.9008-.099-19.9439-3.772-29.2156zm-67.033 45.5258c.2716.1305.5268.2716.8059.3961l.0404.0255c-.2821-.135-.5642-.2756-.8463-.4217zm61.27-42.4826v-.0554l.011.0615z" fill="#dc8add"/>
  <path d="m116.971 43.2551c-2.527-6.0806-7.653-12.6458-11.668-14.7211 2.864 5.5449 4.85 11.5 5.89 17.6533v.0554l.011.0616c4.483 12.8279 3.834 26.8921-1.81 39.2532-6.666 14.3024-22.8003 28.9615-48.0558 28.2495-27.2887-.773-51.3211-21.0225-55.814-47.5445-.81783-4.1822 0-6.3026.41117-9.7015-.56089 2.6402-.87388 5.3269-.93488 8.0253v.3002c.01275 14.5624 5.48781 28.5903 15.34311 39.3115 9.8553 10.721 23.3737 17.354 37.8837 18.59 14.5099 1.236 28.9555-3.016 40.4818-11.916 11.5259-8.9 19.2949-21.7999 21.7699-36.1505.098-.7503.177-1.4931.264-2.2509 1.198-9.9008-.099-19.9439-3.772-29.2156z" fill="url(#paint1_radial)"/>
  <path d="m116.971 43.2551c-2.527-6.0806-7.653-12.6458-11.668-14.7211 2.864 5.5449 4.85 11.5 5.89 17.6533v.0554l.011.0616c4.483 12.8279 3.834 26.8921-1.81 39.2532-6.666 14.3024-22.8003 28.9615-48.0558 28.2495-27.2887-.773-51.3211-21.0225-55.814-47.5445-.81783-4.1822 0-6.3026.41117-9.7015-.56089 2.6402-.87388 5.3269-.93488 8.0253v.3002c.01275 14.5624 5.48781 28.5903 15.34311 39.3115 9.8553 10.721 23.3737 17.354 37.8837 18.59 14.5099 1.236 28.9555-3.016 40.4818-11.916 11.5259-8.9 19.2949-21.7999 21.7699-36.1505.098-.7503.177-1.4931.264-2.2509 1.198-9.9008-.099-19.9439-3.772-29.2156z" fill="#613583"/>
  <path d="m63.2621 53.7024c-.0961 1.4466-5.2072 6.4362-6.9944 6.4362-16.5383 0-19.223 10.0046-19.223 10.0046.7323 8.4245 6.6028 15.3633 13.6992 19.0338.3241.1681.6528.3197.9814.4682.5692.2521 1.1385.4852 1.7077.6993 2.4355.862 4.9863 1.3541 7.5676 1.4601 28.9875 1.3596 34.6028-34.6643 13.6842-45.1176 4.9348-.6421 9.9323.5713 14.0232 3.4049-2.5553-4.5097-6.2594-8.2624-10.7355-10.8763s-9.5645-3.9959-14.748-4.0054c-.6902 0-1.3655.0571-2.0438.1036-5.834.401-11.4117 2.5508-16.0056 6.169.8869.7503 1.8878 1.7528 3.9961 3.8311 3.9467 3.8881 14.0683 7.9158 14.0909 8.3885z" fill="#1a5fb4"/>
  <path d="m42.4634 39.5485c.4712.3001.8599.5613 1.2005.7969-1.3252-4.6385-1.3817-9.5476-.1635-14.2154-5.3648 2.5989-10.1318 6.2831-13.9993 10.8195.2836-.0078 8.7201-.1591 12.9623 2.599z" fill="#c061cb"/>
  <path d="m5.53173 66.2626c4.48837 26.5219 28.52527 46.7714 55.81407 47.5444 25.2554.714 41.3902-13.9471 48.0562-28.2494 5.644-12.3611 6.292-26.4253 1.809-39.2533v-.0555c0-.0435-.009-.0689 0-.0554l.011.0975c2.063 13.4711-4.789 26.5219-15.5001 35.3471l-.033.075c-20.8706 16.9975-40.8438 10.2552-44.8865 7.5031-.2821-.1351-.5642-.2757-.8464-.4217-12.1685-5.8164-17.1955-16.903-16.1181-26.4109-2.8885.0426-5.7274-.7534-8.1728-2.2915-2.4453-1.5382-4.392-3.7525-5.6044-6.3746 3.1942-1.9569 6.8364-3.0632 10.5794-3.2134 3.743-.1503 7.4621.6605 10.8029 2.355 6.8877 3.1268 14.7252 3.4349 21.837.8584-.0225-.4727-10.1441-4.5019-14.0908-8.3885-2.1083-2.0783-3.1093-3.0793-3.9961-3.8311-.4793-.406-.9803-.7857-1.5006-1.1374-.3452-.2356-.7338-.4908-1.2005-.7969-4.2423-2.7581-12.6788-2.6066-12.9579-2.5991h-.0269c-2.305-2.9217-2.1429-12.5556-2.0109-14.568-.6818.2741-1.3328.6197-1.9418 1.031-2.0347 1.4522-3.9369 3.0817-5.6843 4.8695-1.9983 2.0131-3.8244 4.1901-5.4593 6.5082v.009-.0105c-3.7391 5.301-6.39125 11.2902-7.80318 17.6218-.02851.1185-2.09486 9.1523-1.07594 13.8372z" fill="#9141ac"/>
  <g fill="#c061cb">
    <path d="m89.9355 51.0718c-.2536-.2326-.5522-.4727-.8718-.7143-.1186-.0885-.2356-.1771-.3617-.2656-4.0909-2.8336-9.0884-4.047-14.0233-3.4049 20.9187 10.4593 15.3063 46.4772-13.6841 45.1176-2.5813-.106-5.1322-.5982-7.5676-1.4601-.5693-.2131-1.1385-.4462-1.7077-.6993-.3287-.15-.6573-.3001-.9814-.4682l.0404.0255c4.0427 2.7596 24.0099 9.5019 44.8866-7.5031l.033-.075c.5207-1.2155 7.4291-18.402-5.7624-30.5526z"/>
    <path d="m37.0447 70.1432s2.6847-10.0046 19.223-10.0046c1.7872 0 6.9028-4.9896 6.9944-6.4362-7.1118 2.5765-14.9494 2.2684-21.8371-.8584-3.3408-1.6945-7.0599-2.5053-10.8029-2.355-3.743.1502-7.3851 1.2565-10.5794 3.2134 1.2124 2.6222 3.1591 4.8364 5.6045 6.3746 2.4453 1.5381 5.2842 2.3341 8.1727 2.2915-1.0774 9.5094 3.9496 20.596 16.1182 26.4109.2716.1305.5267.2716.8058.3961-7.1024-3.669-12.9669-10.6078-13.6992-19.0323z"/>
  </g>
</svg>
