<svg enable-background="new" height="128" viewBox="0 0 128 128" width="128" xmlns="http://www.w3.org/2000/svg" xmlns:xlink="http://www.w3.org/1999/xlink">
  <linearGradient id="linearGradient1064" gradientUnits="userSpaceOnUse" x1="8.000028" x2="120.000028" y1="288" y2="288">
    <stop offset="0" stop-color="#77767b"/>
    <stop offset=".036" stop-color="#c0bfbc"/>
    <stop offset=".071" stop-color="#9a9996"/>
    <stop offset=".929" stop-color="#9a9996"/>
    <stop offset=".964" stop-color="#c0bfbc"/>
    <stop offset="1" stop-color="#77767b"/>
  </linearGradient>
  <g transform="translate(0 -172)">
    <rect fill="url(#linearGradient1064)" height="76" rx="8" width="112" x="8" y="212"/>
    <rect fill="#deddda" height="84" rx="8" width="112" x="8" y="200"/>
    <rect fill="#241f31" height="76" rx="4" width="104" x="12" y="204"/>
    <path d="m14.96 208h97.876v68h-97.876z" fill="#e2c272"/>
    <g fill="#983e1c" transform="matrix(2.363108 0 0 2.363108 -163.9022166181 -386.74285456766)">
      <path d="m89.116439 273.48686v3.48341 3.48375h7.102934 7.103277v-3.48375-3.48341h-7.103277z"/>
      <path d="m97.681842 265.08559v3.48341 3.48341h6.998568 6.99891v-3.48341-3.48341h-6.99891z"/>
      <path d="m82.013507 265.08559v3.48341 3.48341h6.998569 6.99857v-3.48341-3.48341h-6.99857z"/>
      <path d="m89.116439 256.68432v3.48341 3.48341h7.102934 7.103277v-3.48341-3.48341h-7.103277z"/>
      <path d="m117.1067 263.65101v-6.96662h-5.21856-7.10273v3.48372 3.4829h7.10273z"/>
      <path d="m117.1067 272.05245v-6.96662h-1.05163-2.93581l.0809 6.96662h2.89536z"/>
      <path d="m117.1067 280.4539v-6.96746h-5.21856-7.10273v3.48373 3.48373h7.10273z"/>
      <path d="m75.688563 273.48644v6.96746h5.071095 6.894592v-3.48373-3.48373h-6.894592z"/>
      <path d="m75.688563 265.08583v6.96662h1.41566 3.237478v-3.48372-3.4829h-3.237478z"/>
      <path d="m75.751212 256.68439v6.96662h4.956985 6.946053v-3.4829-3.48372h-6.946053z"/>
      <path d="m111.43058 251.59678h-14.206304v3.79825h7.103574 7.10273z"/>
      <path d="m117.01738 251.59678h-4.09699l-.0371 3.79825h2.93496 1.28842v-3.39215c-.0269-.14294-.0609-.26735-.0893-.4061z"/>
      <path d="m80.09396 251.59678h-4.254562c-.04794.2343-.107191.43939-.150835.68582v3.11243h1.16202 3.243377z"/>
      <path d="m95.76227 251.59678h-14.206305v3.79825h7.102731 7.103574z"/>
    </g>
  </g>
</svg>
