<?xml version="1.0" encoding="UTF-8" standalone="no"?>
<svg
   xmlns:dc="http://purl.org/dc/elements/1.1/"
   xmlns:cc="http://creativecommons.org/ns#"
   xmlns:rdf="http://www.w3.org/1999/02/22-rdf-syntax-ns#"
   xmlns:svg="http://www.w3.org/2000/svg"
   xmlns="http://www.w3.org/2000/svg"
   xmlns:xlink="http://www.w3.org/1999/xlink"
   xmlns:sodipodi="http://sodipodi.sourceforge.net/DTD/sodipodi-0.dtd"
   xmlns:inkscape="http://www.inkscape.org/namespaces/inkscape"
   enable-background="new"
   height="128"
   viewBox="0 0 128 128"
   width="128"
   version="1.1"
   id="svg28"
   sodipodi:docname="firefox-official.svg"
   inkscape:version="0.92.4 (5da689c313, 2019-01-14)">
  <metadata
     id="metadata34">
    <rdf:RDF>
      <cc:Work
         rdf:about="">
        <dc:format>image/svg+xml</dc:format>
        <dc:type
           rdf:resource="http://purl.org/dc/dcmitype/StillImage" />
      </cc:Work>
    </rdf:RDF>
  </metadata>
  <defs
     id="defs32">
    <linearGradient
       gradientTransform="translate(3.7,-81.97106)"
       gradientUnits="userSpaceOnUse"
       y2="74.468002"
       x2="6.447"
       y1="12.393"
       x1="70.786003"
       id="a">
      <stop
         id="stop834"
         stop-color="#fff44f"
         offset=".048" />
      <stop
         id="stop836"
         stop-color="#ffe847"
         offset=".111" />
      <stop
         id="stop838"
         stop-color="#ffc830"
         offset=".225" />
      <stop
         id="stop840"
         stop-color="#ff980e"
         offset=".368" />
      <stop
         id="stop842"
         stop-color="#ff8b16"
         offset=".401" />
      <stop
         id="stop844"
         stop-color="#ff672a"
         offset=".462" />
      <stop
         id="stop846"
         stop-color="#ff3647"
         offset=".534" />
      <stop
         id="stop848"
         stop-color="#e31587"
         offset=".705" />
    </linearGradient>
    <radialGradient
       inkscape:collect="always"
       xlink:href="#b"
       id="radialGradient952"
       gradientUnits="userSpaceOnUse"
       gradientTransform="matrix(1.7314836,0,0,1.7314836,13801.099,14926.926)"
       cx="-7907.187"
       cy="-8515.1211"
       r="80.796997" />
    <radialGradient
       gradientUnits="userSpaceOnUse"
       gradientTransform="translate(7978.7,8442.0289)"
       r="80.796997"
       cy="-8515.1211"
       cx="-7907.187"
       id="b">
      <stop
         id="stop851"
         stop-color="#ffbd4f"
         offset=".129" />
      <stop
         id="stop853"
         stop-color="#ffac31"
         offset=".186" />
      <stop
         id="stop855"
         stop-color="#ff9d17"
         offset=".247" />
      <stop
         id="stop857"
         stop-color="#ff980e"
         offset=".283" />
      <stop
         id="stop859"
         stop-color="#ff563b"
         offset=".403" />
      <stop
         id="stop861"
         stop-color="#ff3750"
         offset=".467" />
      <stop
         id="stop863"
         stop-color="#f5156c"
         offset=".71" />
      <stop
         id="stop865"
         stop-color="#eb0878"
         offset=".782" />
      <stop
         id="stop867"
         stop-color="#e50080"
         offset=".86" />
    </radialGradient>
    <radialGradient
       gradientUnits="userSpaceOnUse"
       gradientTransform="translate(7978.7,8442.0289)"
       r="80.796997"
       cy="-8482.0889"
       cx="-7936.7109"
       id="c">
      <stop
         id="stop870"
         stop-color="#960e18"
         offset=".3" />
      <stop
         id="stop872"
         stop-opacity=".74"
         stop-color="#b11927"
         offset=".351" />
      <stop
         id="stop874"
         stop-opacity=".343"
         stop-color="#db293d"
         offset=".435" />
      <stop
         id="stop876"
         stop-opacity=".094"
         stop-color="#f5334b"
         offset=".497" />
      <stop
         id="stop878"
         stop-opacity="0"
         stop-color="#ff3750"
         offset=".53" />
    </radialGradient>
    <radialGradient
       gradientUnits="userSpaceOnUse"
       gradientTransform="translate(7978.7,8442.0289)"
       r="58.534"
       cy="-8533.457"
       cx="-7926.9702"
       id="d">
      <stop
         id="stop881"
         stop-color="#fff44f"
         offset=".132" />
      <stop
         id="stop883"
         stop-color="#ffdc3e"
         offset=".252" />
      <stop
         id="stop885"
         stop-color="#ff9d12"
         offset=".506" />
      <stop
         id="stop887"
         stop-color="#ff980e"
         offset=".526" />
    </radialGradient>
    <radialGradient
       gradientUnits="userSpaceOnUse"
       gradientTransform="translate(7978.7,8442.0289)"
       r="38.471001"
       cy="-8460.9844"
       cx="-7945.6479"
       id="e">
      <stop
         id="stop890"
         stop-color="#3a8ee6"
         offset=".353" />
      <stop
         id="stop892"
         stop-color="#5c79f0"
         offset=".472" />
      <stop
         id="stop894"
         stop-color="#9059ff"
         offset=".669" />
      <stop
         id="stop896"
         stop-color="#c139e6"
         offset="1" />
    </radialGradient>
    <radialGradient
       gradientUnits="userSpaceOnUse"
       gradientTransform="translate(7978.7,8442.0289)"
       r="27.676001"
       cy="-8518.4268"
       cx="-7937.731"
       id="g">
      <stop
         id="stop908"
         stop-color="#ffe226"
         offset="0" />
      <stop
         id="stop910"
         stop-color="#ffdb27"
         offset=".121" />
      <stop
         id="stop912"
         stop-color="#ffc82a"
         offset=".295" />
      <stop
         id="stop914"
         stop-color="#ffa930"
         offset=".502" />
      <stop
         id="stop916"
         stop-color="#ff7e37"
         offset=".732" />
      <stop
         id="stop918"
         stop-color="#ff7139"
         offset=".792" />
    </radialGradient>
    <radialGradient
       gradientUnits="userSpaceOnUse"
       gradientTransform="translate(7978.7,8442.0289)"
       r="118.081"
       cy="-8535.9814"
       cx="-7915.9771"
       id="h">
      <stop
         id="stop921"
         stop-color="#fff44f"
         offset=".113" />
      <stop
         id="stop923"
         stop-color="#ff980e"
         offset=".456" />
      <stop
         id="stop925"
         stop-color="#ff5634"
         offset=".622" />
      <stop
         id="stop927"
         stop-color="#ff3647"
         offset=".716" />
      <stop
         id="stop929"
         stop-color="#e31587"
         offset=".904" />
    </radialGradient>
    <radialGradient
       gradientUnits="userSpaceOnUse"
       gradientTransform="matrix(0.105,0.995,-0.653,0.069,-4680.304,8388.2199)"
       r="86.499001"
       cy="-8522.8594"
       cx="-7927.165"
       id="i">
      <stop
         id="stop932"
         stop-color="#fff44f"
         offset="0" />
      <stop
         id="stop934"
         stop-color="#ffe847"
         offset=".06" />
      <stop
         id="stop936"
         stop-color="#ffc830"
         offset=".168" />
      <stop
         id="stop938"
         stop-color="#ff980e"
         offset=".304" />
      <stop
         id="stop940"
         stop-color="#ff8b16"
         offset=".356" />
      <stop
         id="stop942"
         stop-color="#ff672a"
         offset=".455" />
      <stop
         id="stop944"
         stop-color="#ff3647"
         offset=".57" />
      <stop
         id="stop946"
         stop-color="#e31587"
         offset=".737" />
    </radialGradient>
    <radialGradient
       gradientUnits="userSpaceOnUse"
       gradientTransform="translate(7978.7,8442.0289)"
       r="73.720001"
       cy="-8508.1758"
       cx="-7938.3828"
       id="j">
      <stop
         id="stop949"
         stop-color="#fff44f"
         offset=".137" />
      <stop
         id="stop951"
         stop-color="#ff980e"
         offset=".48" />
      <stop
         id="stop953"
         stop-color="#ff5634"
         offset=".592" />
      <stop
         id="stop955"
         stop-color="#ff3647"
         offset=".655" />
      <stop
         id="stop957"
         stop-color="#e31587"
         offset=".904" />
    </radialGradient>
    <radialGradient
       gradientUnits="userSpaceOnUse"
       gradientTransform="translate(7978.7,8442.0289)"
       r="80.685997"
       cy="-8503.8613"
       cx="-7918.9229"
       id="k">
      <stop
         id="stop960"
         stop-color="#fff44f"
         offset=".094" />
      <stop
         id="stop962"
         stop-color="#ffe141"
         offset=".231" />
      <stop
         id="stop964"
         stop-color="#ffaf1e"
         offset=".509" />
      <stop
         id="stop966"
         stop-color="#ff980e"
         offset=".626" />
    </radialGradient>
    <linearGradient
       gradientTransform="translate(3.7,-81.97106)"
       gradientUnits="userSpaceOnUse"
       y2="66.806"
       x2="15.267"
       y1="12.061"
       x1="70.013"
       id="l">
      <stop
         id="stop969"
         stop-opacity=".8"
         stop-color="#fff44f"
         offset=".167" />
      <stop
         id="stop971"
         stop-opacity=".634"
         stop-color="#fff44f"
         offset=".266" />
      <stop
         id="stop973"
         stop-opacity=".217"
         stop-color="#fff44f"
         offset=".489" />
      <stop
         id="stop975"
         stop-opacity="0"
         stop-color="#fff44f"
         offset=".6" />
    </linearGradient>
  </defs>
  <sodipodi:namedview
     pagecolor="#ffffff"
     bordercolor="#666666"
     borderopacity="1"
     objecttolerance="10"
     gridtolerance="10"
     guidetolerance="10"
     inkscape:pageopacity="0"
     inkscape:pageshadow="2"
     inkscape:window-width="1920"
     inkscape:window-height="1016"
     id="namedview30"
     showgrid="false"
     inkscape:zoom="6.5546875"
     inkscape:cx="35.013111"
     inkscape:cy="64"
     inkscape:window-x="0"
     inkscape:window-y="27"
     inkscape:window-maximized="1"
     inkscape:current-layer="g26" />
  <g
     transform="matrix(.86666673 0 0 .86666673 9.533387 -142.40002)"
     id="g26">
    <path
       inkscape:connector-curvature="0"
       d="m 123.96611,214.21739 c -2.91581,-7.01599 -8.83056,-14.59123 -13.46229,-16.98586 a 69.719913,69.719913 0 0 1 6.79609,20.36917 l 0.0121,0.1125 c -7.58735,-18.91646 -20.454005,-26.54365 -30.962365,-43.15206 -0.53157,-0.83977 -1.06314,-1.68127 -1.58085,-2.56951 -0.29608,-0.50734 -0.5333,-0.96444 -0.73934,-1.38519 a 12.212153,12.212153 0 0 1 -1.0008,-2.65783 0.17314836,0.17314836 0 0 0 -0.15237,-0.17315 0.23894473,0.23894473 0 0 0 -0.1264,0 c -0.009,0 -0.0225,0.0156 -0.0329,0.019 -0.0104,0.003 -0.0329,0.019 -0.0485,0.026 l 0.026,-0.045 c -16.85602,9.86946 -22.57511,28.14009 -23.10148,37.27885 a 33.568271,33.568271 0 0 0 -18.468,7.11814 20.062699,20.062699 0 0 0 -1.73148,-1.31247 31.111296,31.111296 0 0 1 -0.18873,-16.40235 49.702234,49.702234 0 0 0 -16.15301,12.48401 h -0.0311 c -2.65956,-3.37121 -2.47256,-14.48733 -2.32019,-16.80925 a 11.995717,11.995717 0 0 0 -2.24054,1.18953 48.871123,48.871123 0 0 0 -6.55886,5.61866 58.60206,58.60206 0 0 0 -6.2731623,7.52676 v 0.0104 -0.0121 a 56.67665,56.67665 0 0 0 -9.00372,20.33281 l -0.09,0.44327 c -0.1264,0.59043 -0.58178,3.54781 -0.6597,4.19019 0,0.0502 -0.0104,0.0969 -0.0156,0.14717 a 63.955809,63.955809 0 0 0 -1.0891,9.25132 v 0.3463 A 67.110569,67.110569 0 0 0 128.01438,250.52485 c 0.1125,-0.86574 0.20432,-1.72283 0.30474,-2.59723 a 69.011738,69.011738 0 0 0 -4.35297,-33.71028 z m -77.345355,52.52977 c 0.3134,0.15064 0.60775,0.3134 0.92981,0.45711 l 0.0467,0.0294 q -0.48828,-0.23374 -0.97656,-0.48654 z M 61.992875,226.272 Z m 55.324335,-8.54316 v -0.064 l 0.0121,0.071 z"
       id="path902"
       style="fill:#f5c211;fill-opacity:0.99215686;stroke-width:1.7314837" />
    <path
       inkscape:connector-curvature="0"
       d="m 123.96611,214.21739 c -2.91581,-7.01599 -8.83056,-14.59123 -13.46229,-16.98586 a 69.719913,69.719913 0 0 1 6.79609,20.36917 v 0.064 l 0.0121,0.071 a 60.775072,60.775072 0 0 1 -2.08817,45.29218 c -7.69125,16.50277 -26.308145,33.41763 -55.449015,32.59516 -31.48703,-0.89171 -59.21673223,-24.25634 -64.4008023,-54.85859 -0.94365,-4.82565 0,-7.27223 0.47443,-11.19403 a 49.998318,49.998318 0 0 0 -1.07871,9.25997 v 0.3463 A 67.110569,67.110569 0 0 0 128.01432,250.52484 c 0.1125,-0.86575 0.20431,-1.72283 0.30474,-2.59723 a 69.011738,69.011738 0 0 0 -4.35296,-33.71028 z"
       id="path904"
       style="fill:url(#radialGradient952);stroke-width:1.7314837" />
    <path
       inkscape:connector-curvature="0"
       d="m 123.96611,214.21739 c -2.91581,-7.01599 -8.83056,-14.59123 -13.46229,-16.98586 a 69.719913,69.719913 0 0 1 6.79609,20.36917 v 0.064 l 0.0121,0.071 a 60.775072,60.775072 0 0 1 -2.08817,45.29218 c -7.69125,16.50277 -26.308145,33.41763 -55.449015,32.59516 -31.48703,-0.89171 -59.21673223,-24.25634 -64.4008023,-54.85859 -0.94365,-4.82565 0,-7.27223 0.47443,-11.19403 a 49.998318,49.998318 0 0 0 -1.07871,9.25997 v 0.3463 A 67.110569,67.110569 0 0 0 128.01432,250.52484 c 0.1125,-0.86575 0.20431,-1.72283 0.30474,-2.59723 a 69.011738,69.011738 0 0 0 -4.35296,-33.71028 z"
       id="path906"
       style="fill:#c01c28;fill-opacity:1;stroke-width:1.7314837" />
    <path
       inkscape:connector-curvature="0"
       d="m 61.994605,226.272 c -0.11082,1.66914 -6.00825,7.42633 -8.07045,7.42633 -19.08267,0 -22.1803,11.54381 -22.1803,11.54381 0.84496,9.72054 7.61853,17.72693 15.80671,21.96213 0.374,0.19393 0.7532,0.3688 1.13239,0.54023 q 0.98522,0.43633 1.97043,0.80686 a 29.842119,29.842119 0 0 0 8.73187,1.68474 c 33.44707,1.56873 39.92628,-39.99727 15.7894,-52.05882 a 23.167249,23.167249 0 0 1 16.18071,3.92877 33.867818,33.867818 0 0 0 -29.40405,-17.17116 c -0.79648,0 -1.57565,0.0658 -2.35828,0.11947 a 33.568271,33.568271 0 0 0 -18.468,7.11813 c 1.02331,0.86575 2.17821,2.02238 4.61094,4.42049 4.55379,4.48629 16.23265,9.13359 16.25863,9.67902 z"
       id="path910"
       style="fill:#1a5fb4;fill-opacity:1;stroke-width:1.7314837" />
    <path
       inkscape:connector-curvature="0"
       d="m 37.996235,209.94061 c 0.54369,0.34629 0.99215,0.64757 1.38519,0.91942 a 31.111296,31.111296 0 0 1 -0.18873,-16.40235 49.702234,49.702234 0 0 0 -16.15301,12.484 c 0.32726,-0.009 10.06166,-0.18354 14.95655,2.99893 z"
       id="path914"
       style="fill:#e66100;fill-opacity:1;stroke-width:1.7314837" />
    <path
       inkscape:connector-curvature="0"
       d="m -4.6172973,240.76451 c 5.17886007,30.60225 32.9137723,53.96688 64.4007923,54.85859 29.14087,0.82419 47.757775,-16.0924 55.449015,-32.59516 a 60.775072,60.775072 0 0 0 2.08817,-45.29218 v -0.064 c 0,-0.0502 -0.0104,-0.0796 0,-0.064 l 0.0121,0.1125 c 2.38079,15.54355 -5.52517,30.60227 -17.884475,40.78512 l -0.0381,0.0865 c -24.08148,19.61252 -47.12752,11.83297 -51.79214,8.65742 q -0.48828,-0.23376 -0.97655,-0.48655 c -14.04059,-6.71124 -19.84106,-19.50344 -18.59786,-30.47411 a 17.233456,17.233456 0 0 1 -15.89675,-9.99934 25.310826,25.310826 0 0 1 24.67191,-0.9904 33.417632,33.417632 0 0 0 25.19654,0.9904 c -0.026,-0.54541 -11.70482,-5.19444 -16.25862,-9.679 -2.43274,-2.39811 -3.58764,-3.553 -4.61094,-4.42049 a 20.062699,20.062699 0 0 0 -1.73149,-1.31246 c -0.39824,-0.27185 -0.84669,-0.56621 -1.38518,-0.91942 -4.89491,-3.18247 -14.62931,-3.00759 -14.95137,-2.99894 h -0.0311 c -2.65955,-3.37119 -2.47255,-14.48732 -2.32018,-16.80924 a 11.995717,11.995717 0 0 0 -2.24054,1.18953 48.871123,48.871123 0 0 0 -6.55886,5.61867 58.60206,58.60206 0 0 0 -6.2991323,7.50944 v 0.0104 -0.0121 a 56.67665,56.67665 0 0 0 -9.00372,20.33284 c -0.0329,0.13679 -2.41715,10.56032 -1.24147,15.96601 z"
       id="path916"
       style="fill:#ff7800;fill-opacity:1;stroke-width:1.7314837" />
    <path
       inkscape:connector-curvature="0"
       d="m 92.771725,223.2367 c -0.29262,-0.26837 -0.63719,-0.54541 -1.006,-0.82418 -0.13678,-0.10212 -0.27184,-0.20431 -0.41728,-0.30647 a 23.167249,23.167249 0 0 0 -16.18072,-3.92877 c 24.13688,12.06847 17.66113,53.62755 -15.7894,52.05882 a 29.842119,29.842119 0 0 1 -8.73187,-1.68474 q -0.98521,-0.3688 -1.97043,-0.80686 c -0.37919,-0.17316 -0.75839,-0.3463 -1.13239,-0.54023 l 0.0467,0.0294 c 4.66462,3.1842 27.70374,10.96376 51.79214,-8.65741 l 0.0381,-0.0865 c 0.600825,-1.4025 8.572565,-21.23318 -6.64889,-35.25301 z"
       id="path920"
       style="fill:#ffa348;fill-opacity:1;stroke-width:1.7314837" />
    <path
       inkscape:connector-curvature="0"
       d="m 31.743855,245.24214 c 0,0 3.09763,-11.54381 22.1803,-11.54381 2.0622,0 7.96483,-5.75719 8.07045,-7.42633 a 33.417632,33.417632 0 0 1 -25.19655,-0.99041 25.310826,25.310826 0 0 0 -24.67191,0.99041 17.233456,17.233456 0 0 0 15.89676,9.99932 c -1.24321,10.97241 4.55726,23.76461 18.59785,30.47411 0.3134,0.15064 0.60775,0.3134 0.92981,0.45711 -8.19511,-4.23347 -14.96175,-12.23986 -15.80671,-21.9604 z"
       id="path922"
       style="fill:#ffa348;fill-opacity:1;stroke-width:1.7314837" />
    <path
       style="fill:#0a0a0a;fill-opacity:0;stroke-width:1.7314837"
       id="path936"
       d="m 61.994605,226.272 c -0.11082,1.66914 -6.00825,7.42633 -8.07045,7.42633 -19.08267,0 -22.1803,11.54381 -22.1803,11.54381 0.84496,9.72054 7.61853,17.72693 15.80671,21.96213 0.374,0.19393 0.7532,0.3688 1.13239,0.54023 q 0.98522,0.43633 1.97043,0.80686 a 29.842119,29.842119 0 0 0 8.73187,1.68474 c 33.44707,1.56873 39.92628,-39.99727 15.7894,-52.05882 a 23.167249,23.167249 0 0 1 16.18071,3.92877 33.867818,33.867818 0 0 0 -29.40405,-17.17116 c -0.79648,0 -1.57565,0.0658 -2.35828,0.11947 a 33.568271,33.568271 0 0 0 -18.468,7.11813 c 1.02331,0.86575 2.17821,2.02238 4.61094,4.42049 4.55379,4.48629 16.23265,9.13359 16.25863,9.67902 z"
       inkscape:connector-curvature="0" />
  </g>
</svg>
