<svg enable-background="new" height="128" viewBox="0 0 128 128" width="128" xmlns="http://www.w3.org/2000/svg" xmlns:xlink="http://www.w3.org/1999/xlink"><radialGradient id="a" cx="106.667" cy="-60.348" gradientTransform="matrix(.21428571 0 0 .32237036 9.142857 245.58768)" gradientUnits="userSpaceOnUse" r="225"><stop offset="0" stop-color="#50dbb5"/><stop offset="1" stop-color="#4a86cf"/></radialGradient><linearGradient id="b" gradientUnits="userSpaceOnUse" x1="8.000028" x2="120.000028" y1="288" y2="288"><stop offset="0" stop-color="#77767b"/><stop offset=".036" stop-color="#c0bfbc"/><stop offset=".071" stop-color="#9a9996"/><stop offset=".929" stop-color="#9a9996"/><stop offset=".964" stop-color="#c0bfbc"/><stop offset="1" stop-color="#77767b"/></linearGradient><g transform="translate(0 -172)"><rect fill="url(#b)" height="76" rx="8" width="112" x="8" y="212"/><rect fill="#deddda" height="84" rx="8" width="112" x="8" y="200"/><rect fill="#241f31" height="76" rx="4" width="104" x="12" y="204"/><path d="m16 208h96v68h-96z" fill="url(#a)"/><g fill="#4aad47" transform="translate(217.939741 171.490025)"><path d="m-172.93945 51.771484c-1.56621.05731-3.12556.325281-4.6211.804688l.45703 1.429687c1.36162-.436476 2.78714-.681991 4.21875-.734375.9148-.03336 1.83174.0073 2.74024.123047l.18945-1.486328c-.98917-.126011-1.98739-.173072-2.98437-.136719zm4.51953.388672-.29883 1.470703c1.41418.28787 2.79905.73867 4.13477 1.3125l.59179-1.378906c-1.41981-.609961-2.90168-1.093654-4.42773-1.404297zm-10.60938.958985c-1.44433.607235-2.80042 1.401639-4.04687 2.332031l.89648 1.203125c1.15697-.863595 2.40851-1.596559 3.73047-2.152344zm16.4375 1.095703-.67187 1.341797c1.30249.653619 2.5493 1.418246 3.73047 2.277343l.88281-1.21289c-1.24475-.905343-2.5625-1.714286-3.94141-2.40625zm25.7793 1.240234c-.57125-.0155-1.0247.205224-1.35742.386719l.71875 1.316406c.22127-.1207.37336-.156874.49805-.173828.0375.533265-.22494 1.181881-.54688 1.910156l1.37109.605469c.31223-.7063.79725-1.618714.68164-2.722656-.0566-.667821-.57017-1.318708-1.36523-1.322266zm-47.47461.966797c-1.17637 1.009268-2.2454 2.130087-3.2207 3.318359l1.1582.951172c.92746-1.129979 1.93819-2.188316 3.03906-3.132812zm44.80273.164063-3.91796 2.21289.73828 1.306641 3.91797-2.214844zm-17.94531.974609-.94531 1.164062c1.13422.921534 2.19489 1.926364 3.13281 3.027344l1.14258-.972656c-1.00782-1.183021-2.13711-2.249479-3.33008-3.21875zm12.72071 1.976562-3.91797 2.212891.73828 1.306641 3.91797-2.212891zm6.61132.740235-1.7832 4.130859 1.37695.595703 1.78321-4.132812zm-50.35546.669922c-.91822 1.23001-1.74706 2.51773-2.51368 3.832031l1.29492.755859c.74457-1.276496 1.54335-2.515207 2.41993-3.689453zm35.27148.917968-1.03906 1.083985c.47698.456984 1.04533.815199 1.66601 1.046875.0006.000226.001-.000226.002 0 1.05712.40038 2.31543.414133 3.37109-.208985l-.76367-1.291015c-.58158.343283-1.3877.359493-2.07813.09766l-.002-.002h-.002c-.4268-.15886-.82422-.410319-1.1543-.726563zm12.70703 3.919922-1.7832 4.132813 1.37695.59375 1.7832-4.13086zm-51.22656.371094c-.66388 1.38192-1.27197 2.948748-1.2168 4.65625l1.49805-.04883c-.0425-1.313806.44782-2.65721 1.07226-3.957031zm51.08594 5.132812-1.37305.601563 1.80469 4.121094 1.37304-.601563zm-50.59375.78125-1.44727.390626c.42127 1.563882 1.18255 2.960797 1.96875 4.261718l1.2832-.77539c-.76049-1.258381-1.44374-2.537021-1.80468-3.876954zm53.00195 4.714844-1.375.601563 1.80469 4.121093 1.375-.601562zm-13.61133.03516c-1.24234.235799-2.3183.979101-3.0332 1.976563l1.21875.875c.50222-.700715 1.27221-1.222977 2.09375-1.378906.35326-.06722.71285-.06437 1.03711.01367l.35156-1.458985c-.55999-.134782-1.13004-.129696-1.66797-.02734zm-36.80078.378907-1.26172.8125c.82718 1.285192 1.73197 2.529325 2.73242 3.699219l1.13867-.97461c-.94949-1.110303-1.81327-2.300206-2.60937-3.537109zm40.01367.359375-.73828 1.30664 3.91797 2.214844.73828-1.30664zm-7.16406 2.30664c-.98384 1.066947-2.07521 2.041541-3.23633 2.929688l.91211 1.191406c1.22111-.934031 2.37756-1.964629 3.42773-3.103516zm12.38672.646485-.73828 1.30664 3.91797 2.212891.73828-1.306641zm-41.65039 1.308593-1.08594 1.035157c1.06265 1.117203 2.22717 2.150158 3.50195 3.044922l.86133-1.226563c-1.18131-.829156-2.27321-1.797834-3.27734-2.853516zm49.24414.488282-1.39844.544922c.17678.454043.25503.855064.22266 1.175781-.27601-.05062-.63857-.293938-1.23047-.585938l-.66407 1.345703c.38839.1916.97601.711269 1.88282.773438.74559.07251 1.38408-.446111 1.50195-1.162109.14997-.810566-.0958-1.530086-.31445-2.091797zm-24.39844 1.339844c-1.20563.824145-2.47525 1.554461-3.79688 2.164062l.62696 1.361328c1.40261-.646957 2.74503-1.418556 4.01562-2.287109zm-20.35742 1.810546-.76758 1.28711c1.34192.800487 2.78684 1.434282 4.29688 1.861328l.4082-1.44336c-1.37718-.389473-2.70355-.968994-3.9375-1.705078zm15.2207.921875c-1.35235.527174-2.75223.923313-4.17578 1.152344l.23828 1.480469c1.53891-.247591 3.04048-.672276 4.48242-1.234375zm-9.88867 1.109375-.27734 1.47461c1.54372.290344 3.12367.362384 4.68164.236328l-.1211-1.496094c-1.43133.11581-2.87829.04939-4.2832-.214844z" fill="#76ff03"/><circle cx="-181.17383" cy="63.508476" fill="#fff" r="3"/><path d="m-121.72153 69.669167q2.83203.605468 4.41407 2.519531 1.60156 1.914062 1.60156 4.726562 0 4.316407-2.96875 6.679688-2.96875 2.363281-8.4375 2.363281-1.83594 0-3.78906-.371094-1.9336-.351562-4.00391-1.074218v-3.808594q1.64062.957031 3.59375 1.445312 1.95312.488282 4.08203.488282 3.71094 0 5.64453-1.464844 1.95313-1.464844 1.95313-4.257813 0-2.578125-1.81641-4.023437-1.79687-1.464844-5.01953-1.464844h-3.39844v-3.242187h3.55469q2.91016 0 4.45312-1.152344 1.54297-1.171875 1.54297-3.359375 0-2.246094-1.60156-3.4375-1.58203-1.210938-4.55078-1.210938-1.62109 0-3.47656.351563-1.85547.351562-4.08203 1.09375v-3.515625q2.24609-.625 4.19921-.9375 1.97266-.3125 3.71094-.3125 4.49219 0 7.10938 2.050781 2.61718 2.03125 2.61718 5.507813 0 2.421875-1.38671 4.101562-1.38672 1.660156-3.94532 2.304688z" fill="#29b6f6"/></g></g></svg>