<svg xmlns="http://www.w3.org/2000/svg" xmlns:xlink="http://www.w3.org/1999/xlink" width="128" height="128" version="1.0">
 <defs>
  <linearGradient id="a">
   <stop id="stop2" offset="0" stop-color="#68676b"/>
   <stop id="stop4" offset=".8" stop-color="#424048"/>
   <stop id="stop6" offset="1" stop-color="#241f31"/>
  </linearGradient>
  <radialGradient id="d" cx="279.422" cy="446.483" r="224" fx="279.422" fy="446.483" gradientTransform="matrix(1.34416 .0006 -.00062 1.38763 -121.22 -718.103)" gradientUnits="userSpaceOnUse" xlink:href="#a"/>
  <linearGradient id="e" x1="43.844" x2="-60" y1="234" y2="234" gradientTransform="matrix(1.0015 0 0 .99993 72.09 56.015)" gradientUnits="userSpaceOnUse" xlink:href="#b"/>
  <linearGradient id="b">
   <stop id="stop11" offset="0" stop-color="#d5d3cf"/>
   <stop id="stop13" offset=".038" stop-color="#e3e2df"/>
   <stop id="stop15" offset=".077" stop-color="#c0bfbc"/>
   <stop id="stop17" offset=".923" stop-color="#c0bfbc"/>
   <stop id="stop19" offset=".962" stop-color="#e3e2df"/>
   <stop id="stop21" offset="1" stop-color="#d5d3cf"/>
  </linearGradient>
 </defs>
 <g transform="translate(0 -172)">
  <rect fill="url(#e)" width="104" height="48" x="12" y="240" rx="8" ry="8"/>
  <path style="fill:#c01c28" d="M 20 10 C 15.568 10 12 13.568 12 18 L 12 60 L 12 102 C 12 106.432 15.568 110 20 110 L 64 110 L 108 110 C 112.432 110 116 106.432 116 102 L 116 60 L 116 18 C 116 13.568 112.432 10 108 10 L 20 10 z" transform="translate(0,172)"/>
  <g transform="translate(-0.005372,1.1162819)">
   <path d="m 93.273831,195.23704 v 14.71957 c -14.696146,0.25844 -18.307806,14.59042 -18.307806,14.59042 h 11.08449 v 14.71956 H 68.863299 c -10.33889,31.89471 -34.126386,29.05207 -34.126386,29.05207 v -14.71957 c 0,0 15.094926,2.80021 22.791655,-25.30723 9.625485,-35.16137 35.743443,-33.05591 35.743443,-33.05591 z" style="opacity:0.2"/>
   <path d="m 93.273831,193.4089 v 14.71956 c -14.696146,0.25844 -18.307806,14.59042 -18.307806,14.59042 h 11.08449 v 14.71957 H 68.863299 c -10.33889,31.89471 -34.126386,29.05206 -34.126386,29.05206 v -14.71957 c 0,0 15.094926,2.80021 22.791655,-25.30723 9.625485,-35.16137 35.743443,-33.05591 35.743443,-33.05591 z" style="fill:#ffffff"/>
  </g>
 </g>
</svg>
