<svg enable-background="new" height="128" viewBox="0 0 128 128" width="128" xmlns="http://www.w3.org/2000/svg" xmlns:xlink="http://www.w3.org/1999/xlink">
  <linearGradient id="linearGradient990" gradientUnits="userSpaceOnUse" x1="64" x2="64" y1="202.385" y2="444.5">
    <stop offset="0" stop-color="#a347ba"/>
    <stop offset="1" stop-color="#c061cb"/>
  </linearGradient>
  <linearGradient id="linearGradient1053" gradientUnits="userSpaceOnUse" x1="108.000001" x2="116.000001" y1="251" y2="251">
    <stop offset="0" stop-color="#e8e7e4"/>
    <stop offset=".511" stop-color="#fff"/>
    <stop offset="1" stop-color="#c2bfba"/>
  </linearGradient>
  <g transform="translate(0 -172)">
    <path d="m12 204v84h96c4.432 0 8-3.568 8-8v-68c0-4.432-3.568-8-8-8z" fill="#813d9c"/>
    <path d="m14.000001 216v70h93.999999c4.432 0 8-3.568 8-8v-54c0-4.432-3.568-8-8-8z" fill="url(#linearGradient1053)"/>
    <path d="m12 186v94h96c4.432 0 8-3.568 8-8v-78c0-4.432-3.568-8-8-8z" fill="#813d9c"/>
    <path d="m12 184v94h96c4.432 0 8-3.568 8-8v-78c0-4.432-3.568-8-8-8z" fill="url(#linearGradient990)"/>
    <g fill="#813d9c">
      <path d="m812.20261 1309.7929c-27.70079 0-55.72369 7.4083-74.72772 20.9366l18.03773 35.1092c12.56198-9.9852 31.56602-16.1051 49.92584-16.1051 27.05659 0 42.19199 14.4169 42.19199 35.9977l-50.00981-.2354c-52.82417-.2486-74.40225 26.624-74.40225 57.2238 0 29.9555 22.04572 51.6578 62.6306 51.6578 25.44607 0 52.4405-7.5298 61.78146-23.3128l.003 21.3432 53.33034-.01-.006-104.013c-.003-52.5026-35.93005-78.5921-88.75482-78.5921zm-11.67969 151.6087c-17.71562 0-28.34499-8.3747-28.34499-20.9367 0-11.5956 7.40547-23.1197 30.91845-22.9689l44.53407.2354.003 16.1495c.003 16.8142-30.36157 27.5207-47.11089 27.5207z" transform="matrix(.140625 0 0 .140625 -29.23291 12.300445)"/>
      <path d="m55.305889 221.92387c-.944974.77446-1.612023 1.05106-2.445832 1.05106-1.278503 0-1.667605-.77447-1.667605-3.20851v-10.78724c0-2.8766-.277936-4.48085-1.111745-5.80851-1.22291-1.99149-4.573306-3.04255-7.852936-3.04255-5.225182 0-9.33863 2.71064-9.33863 6.19575 0 1.27234 1.056163 2.37871 2.39025 2.37871 1.334086 0 2.501413-1.10637 2.501413-2.3234 0-.22127-.05563-.49787-.111176-.8851-.111177-.49787-.16676-.94042-.16676-1.32766 0-1.49362 1.778783-2.71064 4.002271-2.71064 2.723757 0 4.672684 1.60425 4.672684 4.59149v4.39862c-7.655771 2.24877-9.953459 2.84819-12.343697 4.95032-1.22292 1.10637-2.001135 2.98723-2.001135 4.81276 0 3.48511 2.445832 5.91915 5.836637 5.91915 2.445831 0 5.172972-1.1617 8.563777-4.0383.277937 2.93191 1.790584 4.0383 4.069655 4.0383 1.889959 0 3.057287-.66383 5.002829-2.76596zm-9.128066-3.1532c0 1.65958-.277936 2.26809-1.445263 2.93191-1.389682.77448-3.338597 1.21703-4.505924 1.21703-1.945553 0-3.501982-1.88085-3.501982-4.25958v-.22127c.05563-3.31915 2.949483-4.39712 9.453169-6.6652z" transform="translate(2.694112 -3.92387)"/>
      <path d="m86.312915 236.674c-.913953-.0795-2.066328.23842-3.457126.95369-1.390799.71527-2.801467 1.78817-4.232002 3.21871-1.430536 1.3908-2.761727 3.07963-3.99358 5.06648-1.192112 1.98686-2.066328 4.19227-2.622647 6.61623-.437107 1.78817-.596055 3.33791-.476846 4.64924.119213 1.27158.397373 2.32462.834481 3.15909.437107.79475.973557 1.37094 1.609351 1.72857.635794.39738 1.231851.59606 1.78817.59606 1.192113-.0795 2.384226-.33776 3.576339-.77488 1.033163-.39736 2.125935-1.01329 3.278311-1.84777 1.152376-.87422 2.205409-2.10606 3.159099-3.69555-.03974 1.0729.01987 1.96699.178817 2.68225.198685.71527.397372 1.29143.596055 1.72857.238423.51658.536452.91394.894085 1.19211.357634.23845.774874.3974 1.251719.47685.476845.11922.973556.15898 1.490143.11921.556313-.0398 1.092769-.13908 1.609345-.29804.516587-.15894.97357-.35763 1.370936-.59605.596061-.39736 1.331189-1.0729 2.205406-2.02659.913953-.99342 1.827907-2.06632 2.741871-3.21871.953691-1.19211 1.867644-2.36436 2.741858-3.51673.87421-1.19211 1.58947-2.18554 2.14579-2.98028.47687-.63579.75503-1.19211.83449-1.66897.11917-.47683.0993-.83448-.0596-1.0729-.15895-.23839-.39737-.31787-.71528-.23842-.31789.0398-.63578.23844-.95369.59607-.23843.31789-.63578.81461-1.1921 1.49013-.51659.67554-1.112642 1.45041-1.788176 2.32463-.675533.87421-1.410661 1.78817-2.205405 2.74186-.755007.91394-1.490146 1.7683-2.205405 2.56303-.715271.75501-1.390805 1.39081-2.026602 1.90738-.635786.47685-1.152373.71527-1.54974.71527-.47685 0-.854348-.0993-1.132505-.29802-.238431-.23842-.417245-.53645-.536454-.89409-.119215-.35763-.198689-.73514-.238423-1.1325 0-.43712.01987-.83448.05961-1.19212.119204-.59605.218553-1.09276.298027-1.49014.07952-.39736.139089-.73514.178814-1.01329.07952-.31791.13909-.61593.178826-.89409.07941-.31789.158936-.65566.23842-1.01329.397366-1.82791.71527-3.31805.95369-4.47043.23842-1.15237.417235-2.06633.536445-2.74186.119221-.67552.178826-1.13251.178826-1.37093 0-.27819-.01982-.457-.05958-.53645-.07952-.0398-.238419-.0596-.476839-.0596-.198683 0-.496708.0198-.894086.0596-.357629.0398-.814612.11921-1.37093.23842.834486-1.27159 1.152379-2.28488.953696-3.03989-.158958-.79474-.516588-1.3908-1.072909-1.78817-.675529-.4371-1.549746-.75501-2.622648-.95369zm-1.403712 3.72833c.151497.008.281139.0567.390417.14604.119214.15896.198687.37751.238422.65566.03975.23842.01987.57618-.05961 1.0133-.03974.39736-.218555.91395-.536451 1.54975.317896-.0794.635794-.13905.95369-.17882.317896-.0398.576189-.0993.774874-.17882.238422-.0794.456975-.13904.655661-.17882.158946-.0397.178818.27817.05961.95369-.07947.6358-.218554 1.45041-.41724 2.44384-.198686.99344-.437108 2.0266-.715267 3.09949-.278161 1.0729-.516583 2.00672-.715268 2.80147-.03974.19868-.218554.51657-.53645.95369-.27816.43711-.655663.91395-1.132508 1.43053-.437109.51658-.95369 1.0133-1.549747 1.49014-.556319.47685-1.132507.87422-1.728565 1.19211-.556318.27813-1.112638.43707-1.668957.47685-.55632 0-1.053033-.21856-1.490141-.65566-.238419-.23843-.397365-.73513-.476845-1.49014-.07947-.79474-.05961-1.70871.05961-2.74186.15895-1.03317.417241-2.12594.774874-3.27831.357635-1.19211.83448-2.30475 1.430536-3.33791 1.430536-2.50345 2.682256-4.21214 3.755155-5.1261.834481-.71526 1.479711-1.06246 1.934205-1.04012z"/>
      <path d="m37 68c-2.704645-.03825-2.704645 4.03825 0 4h9.880859c.01107.001.285634.0327.585938.197266.306304.16789.485897.188343.537109.939453v-.01953l.246094 5.193358c-.460676-.176436-.769531-.251953-.769531-.251953l-.236328-.058594h-9.244141c-4.333333 0-5.896484 4.367188-5.896484 4.367188l-.103516.308593v2.324219c0 3.03333 1.431289 5.127712 2.939453 6.070312s3.060547.929688 3.060547.929688h7.591797l3.392578-2.203125.01953.320313c.08969 2.735348 4.223189 2.492675 3.992188-.234376l-1-17.009765v-.0098c-.140818-2.06533-1.461734-3.545828-2.607422-4.173828-1.145688-.62799-2.257813-.685547-2.257813-.685547l-.066405-.003872zm1 14h8.644531c.106906.0312.525263.141312 1.03711.482422.558515.372213.877827.68942.894531 1.355469l.138672 1.363281-4.306641 2.798828h-6.408203s-.447617-.0129-.939453-.320312c-.491836-.3074-1.060547-.713018-1.060547-2.679688v-1.564453c.102847-.30497.534758-1.435547 2-1.435547z" fill-rule="evenodd" transform="translate(1.796942 170.07613)"/>
    </g>
    <path d="m12 184h8v94h-8z" fill="#3d3846"/>
    <path d="m812.20261 1309.7929c-27.70079 0-55.72369 7.4083-74.72772 20.9366l18.03773 35.1092c12.56198-9.9852 31.56602-16.1051 49.92584-16.1051 27.05659 0 42.19199 14.4169 42.19199 35.9977l-50.00981-.2354c-52.82417-.2486-74.40225 26.624-74.40225 57.2238 0 29.9555 22.04572 51.6578 62.6306 51.6578 25.44607 0 52.4405-7.5298 61.78146-23.3128l.003 21.3432 53.33034-.01-.006-104.013c-.003-52.5026-35.93005-78.5921-88.75482-78.5921zm-11.67969 151.6087c-17.71562 0-28.34499-8.3747-28.34499-20.9367 0-11.5956 7.40547-23.1197 30.91845-22.9689l44.53407.2354.003 16.1495c.003 16.8142-30.36157 27.5207-47.11089 27.5207z" fill="#fff" transform="matrix(.140625 0 0 .140625 -29.23291 14.300445)"/>
    <path d="m55.305889 221.92387c-.944974.77446-1.612023 1.05106-2.445832 1.05106-1.278503 0-1.667605-.77447-1.667605-3.20851v-10.78724c0-2.8766-.277936-4.48085-1.111745-5.80851-1.22291-1.99149-4.573306-3.04255-7.852936-3.04255-5.225182 0-9.33863 2.71064-9.33863 6.19575 0 1.27234 1.056163 2.37871 2.39025 2.37871 1.334086 0 2.501413-1.10637 2.501413-2.3234 0-.22127-.05563-.49787-.111176-.8851-.111177-.49787-.16676-.94042-.16676-1.32766 0-1.49362 1.778783-2.71064 4.002271-2.71064 2.723757 0 4.672684 1.60425 4.672684 4.59149v4.39862c-7.655771 2.24877-9.953459 2.84819-12.343697 4.95032-1.22292 1.10637-2.001135 2.98723-2.001135 4.81276 0 3.48511 2.445832 5.91915 5.836637 5.91915 2.445831 0 5.172972-1.1617 8.563777-4.0383.277937 2.93191 1.790584 4.0383 4.069655 4.0383 1.889959 0 3.057287-.66383 5.002829-2.76596zm-9.128066-3.1532c0 1.65958-.277936 2.26809-1.445263 2.93191-1.389682.77448-3.338597 1.21703-4.505924 1.21703-1.945553 0-3.501982-1.88085-3.501982-4.25958v-.22127c.05563-3.31915 2.949483-4.39712 9.453169-6.6652z" fill="#fff" transform="translate(2.694112 -1.92387)"/>
    <path d="m86.312915 238.674c-.913953-.0795-2.066328.23842-3.457126.95369-1.390799.71527-2.801467 1.78817-4.232002 3.21871-1.430536 1.3908-2.761727 3.07963-3.99358 5.06648-1.192112 1.98686-2.066328 4.19227-2.622647 6.61623-.437107 1.78817-.596055 3.33791-.476846 4.64924.119213 1.27158.397373 2.32462.834481 3.15909.437107.79475.973557 1.37094 1.609351 1.72857.635794.39738 1.231851.59606 1.78817.59606 1.192113-.0795 2.384226-.33776 3.576339-.77488 1.033163-.39736 2.125935-1.01329 3.278311-1.84777 1.152376-.87422 2.205409-2.10606 3.159099-3.69555-.03974 1.0729.01987 1.96699.178817 2.68225.198685.71527.397372 1.29143.596055 1.72857.238423.51658.536452.91394.894085 1.19211.357634.23845.774874.3974 1.251719.47685.476845.11922.973556.15898 1.490143.11921.556313-.0398 1.092769-.13908 1.609345-.29804.516587-.15894.97357-.35763 1.370936-.59605.596061-.39736 1.331189-1.0729 2.205406-2.02659.913953-.99342 1.827907-2.06632 2.741871-3.21871.953691-1.19211 1.867644-2.36436 2.741858-3.51673.87421-1.19211 1.58947-2.18554 2.14579-2.98028.47687-.63579.75503-1.19211.83449-1.66897.11917-.47683.0993-.83448-.0596-1.0729-.15895-.23839-.39737-.31787-.71528-.23842-.31789.0398-.63578.23844-.95369.59607-.23843.31789-.63578.81461-1.1921 1.49013-.51659.67554-1.112642 1.45041-1.788176 2.32463-.675533.87421-1.410661 1.78817-2.205405 2.74186-.755007.91394-1.490146 1.7683-2.205405 2.56303-.715271.75501-1.390805 1.39081-2.026602 1.90738-.635786.47685-1.152373.71527-1.54974.71527-.47685 0-.854348-.0993-1.132505-.29802-.238431-.23842-.417245-.53645-.536454-.89409-.119215-.35763-.198689-.73514-.238423-1.1325 0-.43712.01987-.83448.05961-1.19212.119204-.59605.218553-1.09276.298027-1.49014.07952-.39736.139089-.73514.178814-1.01329.07952-.31791.13909-.61593.178826-.89409.07941-.31789.158936-.65566.23842-1.01329.397366-1.82791.71527-3.31805.95369-4.47043.23842-1.15237.417235-2.06633.536445-2.74186.119221-.67552.178826-1.13251.178826-1.37093 0-.27819-.01982-.457-.05958-.53645-.07952-.0398-.238419-.0596-.476839-.0596-.198683 0-.496708.0198-.894086.0596-.357629.0398-.814612.11921-1.37093.23842.834486-1.27159 1.152379-2.28488.953696-3.03989-.158958-.79474-.516588-1.3908-1.072909-1.78817-.675529-.4371-1.549746-.75501-2.622648-.95369zm-1.403712 3.72833c.151497.008.281139.0567.390417.14604.119214.15896.198687.37751.238422.65566.03975.23842.01987.57618-.05961 1.0133-.03974.39736-.218555.91395-.536451 1.54975.317896-.0794.635794-.13905.95369-.17882.317896-.0398.576189-.0993.774874-.17882.238422-.0794.456975-.13904.655661-.17882.158946-.0397.178818.27817.05961.95369-.07947.6358-.218554 1.45041-.41724 2.44384-.198686.99344-.437108 2.0266-.715267 3.09949-.278161 1.0729-.516583 2.00672-.715268 2.80147-.03974.19868-.218554.51657-.53645.95369-.27816.43711-.655663.91395-1.132508 1.43053-.437109.51658-.95369 1.0133-1.549747 1.49014-.556319.47685-1.132507.87422-1.728565 1.19211-.556318.27813-1.112638.43707-1.668957.47685-.55632 0-1.053033-.21856-1.490141-.65566-.238419-.23843-.397365-.73513-.476845-1.49014-.07947-.79474-.05961-1.70871.05961-2.74186.15895-1.03317.417241-2.12594.774874-3.27831.357635-1.19211.83448-2.30475 1.430536-3.33791 1.430536-2.50345 2.682256-4.21214 3.755155-5.1261.834481-.71526 1.479711-1.06246 1.934205-1.04012z" fill="#fff"/>
    <path d="m37 68c-2.704645-.03825-2.704645 4.03825 0 4h9.880859c.01107.001.285634.0327.585938.197266.306304.16789.485897.188343.537109.939453v-.01953l.246094 5.193358c-.460676-.176436-.769531-.251953-.769531-.251953l-.236328-.058594h-9.244141c-4.333333 0-5.896484 4.367188-5.896484 4.367188l-.103516.308593v2.324219c0 3.03333 1.431289 5.127712 2.939453 6.070312s3.060547.929688 3.060547.929688h7.591797l3.392578-2.203125.01953.320313c.08969 2.735348 4.223189 2.492675 3.992188-.234376l-1-17.009765v-.0098c-.140818-2.06533-1.461734-3.545828-2.607422-4.173828-1.145688-.62799-2.257813-.685547-2.257813-.685547l-.066405-.003872zm1 14h8.644531c.106906.0312.525263.141312 1.03711.482422.558515.372213.877827.68942.894531 1.355469l.138672 1.363281-4.306641 2.798828h-6.408203s-.447617-.0129-.939453-.320312c-.491836-.3074-1.060547-.713018-1.060547-2.679688v-1.564453c.102847-.30497.534758-1.435547 2-1.435547z" fill="#fff" fill-rule="evenodd" transform="translate(1.796942 172.07613)"/>
    <path d="m12 106v10h8v-2h-6v-6h6v-2z" fill="#241f31" transform="translate(0 172)"/>
    <path d="m15 278v-94" fill="none" opacity=".15" stroke="#fff" stroke-width="2"/>
  </g>
</svg>
