<svg enable-background="new" height="128" viewBox="0 0 128 128" width="128" xmlns="http://www.w3.org/2000/svg">
  <g transform="translate(0 -172)">
    <rect fill="#1a5fb4" height="80" rx="8" width="96" x="24" y="200"/>
    <path d="m16 24c-4.432 0-8 3.568-8 8v4 64c0 4.432 3.568 8 8 8h16v16l16-16h38 26c4.432 0 8-3.568 8-8v-68c0-4.432-3.568-8-8-8z" fill="#53bde0" transform="translate(0 172)"/>
    <path d="m86.150391 24v84h25.849609c4.432 0 8-3.568 8-8v-68c0-4.432-3.568-8-8-8z" fill="#1a5fb4" transform="translate(0 172)"/>
    <rect fill="#81dffe" height="80" rx="8" width="112" x="8" y="196"/>
    <path d="m32 268v24l24-24z" fill="#81dffe" fill-rule="evenodd"/>
    <path d="m74.255856 196.00001c-16.932079 1.74446-32.470249 14.31096-33.480469 32.23633-.78363 13.86174 8.98961 28.01968 23.625001 28.63086 9.740205.40688 19.689612-6.53314 19.947262-16.83594.1673-6.64455-4.651779-13.44071-11.726559-13.48046-4.39999-.0267-8.906477 3.21689-8.826172 7.91601.06692 2.79799 2.161036 5.67392 5.175781 5.54102 1.70311-.0743 3.466089-1.39573 3.324219-3.24024-.07361-.97891-.86611-1.99818-1.9375-1.87304-.528665.0602-1.080122.50465-.982422 1.08398.06692.25698.26805.53373.5625.4668.113765-.0267.234632-.13524.201172-.26172 0-.0402-.06727-.0892-.107422-.0684 0 .003-.06692.0198 0 .0332v.004.002.0312c0 .0469-.0868.0476-.126953.0273-.113765-.0602-.108515-.22848-.06836-.32618.153914-.25162.508963-.21695.730468-.0684.488515.3413.401007 1.04839.06641 1.46289-.6692.84554-1.947204.67985-2.693359.0391-1.40599-1.20415-1.095994-3.38178.06641-4.63867 2.03771-2.2231 5.569082-1.68284 7.582032.26171 3.382805 3.26536 2.489781 8.74135-.636719 11.83204-5.03171 4.97042-13.247346 3.57133-17.832032-1.24415-7.11024-7.46661-4.98308-19.40598 2.191407-26 10.78281-9.90824 27.711709-6.80119 36.968749 3.55274 13.53523 15.1397 9.09657 38.56558-5.5 51.25976-1.5463 1.28274-3.09346 2.49547-4.63867 3.65625h25.85937c4.432 0 8-3.568 8-8v-64c0-4.432-3.568-8-8-8z" fill="#3584e4"/>
  </g>
</svg>
