<svg viewBox="0 0 128 128" xmlns="http://www.w3.org/2000/svg" xmlns:xlink="http://www.w3.org/1999/xlink">
  <clipPath id="e">
    <path d="m64 175.307c-2.045 0-4.09.782-5.656 2.35l-52.688 52.686a7.952 7.952 0 0 0 -2.342 5.657h-.002v2h.002a7.952 7.952 0 0 0 2.342 5.656l52.688 52.688a7.981 7.981 0 0 0 11.312 0l52.688-52.688a7.952 7.952 0 0 0 2.342-5.656h.002v-2h-.002a7.95 7.95 0 0 0 -2.342-5.656l-52.688-52.688a7.972 7.972 0 0 0 -5.656-2.35z"/>
  </clipPath>
  <g transform="translate(0 -172)">
    <path d="m64 175.307c-2.045 0-4.09.782-5.656 2.35l-52.688 52.686a7.952 7.952 0 0 0 -2.342 5.657h-.002v2h.002a7.952 7.952 0 0 0 2.342 5.656l52.688 52.688a7.981 7.981 0 0 0 11.312 0l52.688-52.688a7.952 7.952 0 0 0 2.342-5.656h.002v-2h-.002a7.95 7.95 0 0 0 -2.342-5.656l-52.688-52.688a7.972 7.972 0 0 0 -5.656-2.35z" fill="#1c71d8"/>
    <g clip-path="url(#e)">
      <path d="m48 220 16-16v32l-16 16z" fill="#26a269"/>
      <path d="m16 82.001953 16 16v-2.001953l16-16-15.976562-16.023438-16.023438 16.023438z" fill="#813d9c" transform="translate(0 172)"/>
      <path d="m80 252-32 32v-32l31.892-32.242z" fill="#98c1f1"/>
      <path d="m96 32-16-16-16 16v32z" fill="#2ec27e" transform="translate(0 172)"/>
      <path d="m32.03125 31.966797-.015625-.017578-13.382813 13.416015z" transform="translate(0 172)"/>
      <path d="m32.03125 31.966797-13.398438 13.398437-13.0449214 13.076172c-.7115695.730096-1.2888133 1.570867-1.671875 2.496094-.3981191.961596-.6062686 2.001315-.6035156 3.0625h-.0019531v2c-.0025 1.06134.2070141 2.100901.6054687 3.0625s.9858498 1.845235 1.7382813 2.59375l10.3457031 10.345703v-2.001953l32-32z" fill="#613583" transform="translate(0 172)"/>
      <path d="m79.988281 15.986328-10.330078-10.330078c-.760846-.76425-1.65999-1.3581675-2.638672-1.7578125s-2.036903-.6050169-3.115234-.5917969c-1.044485.0128-2.06548.22977-3.009766.6289063-.944286.3991362-1.811862.9804381-2.548828 1.7207031l-26.345703 26.34375 16 16z" fill="#f5c211" transform="translate(0 172)"/>
      <path d="m112.01758 81.984375 10.32812-10.328125c.75208-.74868 1.33821-1.632156 1.73633-2.59375s.60823-2.001305.60547-3.0625h.00195v-2h-.00195c.003-1.061185-.20729-2.100904-.60547-3.0625-.39728-.959427-.98279-1.840293-1.73242-2.587891l-26.34961-26.349609-.066406 33.900391z" fill="#e01b24" transform="translate(0 172)"/>
      <path d="m64 236 32-32v32l-16 16z" fill="#ff7800"/>
      <path d="m64 204 16 16 16-16-16-16z" fill="#58ce98"/>
      <path d="m31.060547 32.941406-25.4023439 25.402344c-.0464501.046241-.062238.112901-.1074219.160156z" transform="translate(0 172)"/>
      <path d="m32 204 16 16 16-16z" fill="#e5a50a"/>
      <path d="m80 252 16.012 15.988-.012-31.988z" fill="#ffa348"/>
      <path d="m48 252 16-16-15.985-15.883z" fill="#3584e4"/>
      <path d="m96.013672 97.988281 15.986328-15.986328v-1.984375l-16-16.017578z" fill="#f66151" transform="translate(0 172)"/>
      <path d="m32 97.998047 16 16.000003v-33.99805l-16 16z" fill="#813d9c" transform="translate(0 172)"/>
      <path d="m64 236-16-16-16 16z" fill="#1a5fb4"/>
      <path d="m64 236-16 16-15.977-16.023z" fill="#3584e4"/>
    </g>
    <path d="m3.313 236v2h.001a7.952 7.952 0 0 0 2.342 5.656l52.688 52.688a7.981 7.981 0 0 0 11.312 0l52.688-52.688a7.952 7.952 0 0 0 2.342-5.656h.001v-2h-.001a7.952 7.952 0 0 1 -2.342 5.656l-52.688 52.688a7.981 7.981 0 0 1 -11.312 0l-52.688-52.688a7.952 7.952 0 0 1 -2.342-5.656h-.002z" opacity=".2"/>
  </g>
</svg>
