<svg height="128" width="128" xmlns="http://www.w3.org/2000/svg" xmlns:xlink="http://www.w3.org/1999/xlink">
  <linearGradient id="e" gradientTransform="matrix(1.0015 0 0 .99993 72.09 56.015)" gradientUnits="userSpaceOnUse" x1="43.844" x2="-60" y1="234" y2="234">
    <stop offset="0" stop-color="#d5d3cf"/>
    <stop offset=".038" stop-color="#e3e2df"/>
    <stop offset=".077" stop-color="#c0bfbc"/>
    <stop offset=".923" stop-color="#c0bfbc"/>
    <stop offset=".962" stop-color="#e3e2df"/>
    <stop offset="1" stop-color="#d5d3cf"/>
  </linearGradient>
  <linearGradient id="linearGradient1072" gradientUnits="userSpaceOnUse" x1="-3.701" x2="8.925" y1="43.91" y2="51.547">
    <stop offset="0" stop-color="#c17d10"/>
    <stop offset="1" stop-color="#9b650c"/>
  </linearGradient>
  <radialGradient id="radialGradient9318" cx="20.764" cy="19.541" gradientTransform="matrix(-.38441888 -.18518909 -.48280624 1.0022112 12.85232 234.18548)" gradientUnits="userSpaceOnUse" r="14.8">
    <stop offset="0" stop-color="#fef088"/>
    <stop offset=".5" stop-color="#fde63a"/>
    <stop offset="1" stop-color="#dac203"/>
  </radialGradient>
  <linearGradient id="linearGradient7988" gradientTransform="matrix(-.74080601 -.42770424 -.68218058 1.1815707 25.056265 224.11631)" gradientUnits="userSpaceOnUse" x1="9.105" x2="10.147" xlink:href="#linearGradient5739" y1="38.828" y2="30.141"/>
  <linearGradient id="linearGradient5739">
    <stop offset="0" stop-color="#c4a000"/>
    <stop offset="1" stop-color="#c4a000" stop-opacity="0"/>
  </linearGradient>
  <linearGradient id="linearGradient7990" gradientTransform="matrix(-.74080601 -.42770424 -.68258264 1.1822687 25.082143 224.0715)" gradientUnits="userSpaceOnUse" x1="19.616" x2="18.486" xlink:href="#linearGradient5739" y1="39.253" y2="29.909"/>
  <linearGradient id="linearGradient7992" gradientTransform="matrix(-.74080601 -.42770424 -.72151911 1.2497074 28.513349 222.48323)" gradientUnits="userSpaceOnUse" x1="15.097" x2="14.045" xlink:href="#linearGradient5739" y1="36.968" y2="29"/>
  <linearGradient id="linearGradient7994" gradientTransform="matrix(-.74080601 -.42770424 -.68544314 1.1872215 22.592012 222.47437)" gradientUnits="userSpaceOnUse" x1="14.045" x2="14.045" xlink:href="#linearGradient5739" y1="37.576" y2="29"/>
  <linearGradient id="linearGradient7996" gradientTransform="matrix(-.74080601 -.42770424 -.73692332 1.2763893 26.921416 220.10808)" gradientUnits="userSpaceOnUse" x1="16.929" x2="14.045" xlink:href="#linearGradient5739" y1="34.011" y2="29"/>
  <linearGradient id="linearGradient8582" gradientTransform="matrix(-.8681464 0 0 .86047252 11.910868 231.88763)" gradientUnits="userSpaceOnUse" x1="11.997" x2="17.774" y1="19.592" y2="16.235">
    <stop offset="0" stop-color="#dac203"/>
    <stop offset=".5" stop-color="#fdec69"/>
    <stop offset="1" stop-color="#fdef7e"/>
  </linearGradient>
  <linearGradient id="linearGradient15309" gradientTransform="matrix(1.0065594 0 0 1.0065614 -126.77435 190.57098)" gradientUnits="userSpaceOnUse" x1="10.615" x2="2.007" y1="28.123" y2="27.235">
    <stop offset="0" stop-color="#b30000"/>
    <stop offset=".5" stop-color="#ff5c5c"/>
    <stop offset="1" stop-color="#c30000"/>
  </linearGradient>
  <g transform="translate(0 -172)">
    <rect fill="url(#e)" height="48" rx="8" width="104" x="12" y="240"/>
    <path d="m20 10c-4.432 0-8 3.568-8 8v42 42c0 4.432 3.568 8 8 8h44 44c4.432 0 8-3.568 8-8v-42-42c0-4.432-3.568-8-8-8z" fill="#e01b24" transform="translate(0 172)"/>
    <g enable-background="new" transform="matrix(2.7255672 0 0 2.5445492 87.00797265214 -406.48266857425)">
      <path d="m17.095703 14.990234c-4.672361-.16054-9.5668169 2.384703-11.7148436 6.152344l-13.4824219 30.664063c-2.8640355 5.023483-2.0477735 10.892855 1.8300781 13.160156 3.8778517 2.267301 9.3058861.04936 12.1699219-4.974609l19.1347655-27.013672c2.864036-5.023597 2.032596-14.088379-3.449219-16.871094-1.398109-.709701-2.930827-1.063674-4.488281-1.117188zm-.740234 5.792969a4.1927273 4.1927273 0 0 1 4.011719 3.107422 4.1927273 4.1927273 0 0 1 -2.964844 5.134766 4.1927273 4.1927273 0 0 1 -5.134766-2.964844 4.1927273 4.1927273 0 0 1 2.964844-5.134766 4.1927273 4.1927273 0 0 1 1.123047-.142578z" fill="url(#linearGradient1072)" fill-rule="evenodd" transform="matrix(.26458333 0 0 .26458333 0 229.26666)"/>
      <path d="m-1.0165329 251.50533c.68047416 3.66701-.5423004 11.93509-5.3542021 16.84643-3.718251.12092-11.967243-2.92351-17.562472-8.72264 7.900703-3.86362 13.290077-13.44958 17.4805339-11.3621z" fill="url(#radialGradient9318)" fill-rule="evenodd"/>
      <path d="m-2.3488428 252.8515c-2.0093668 5.36365-2.1294904 10.93922-6.1450684 15.32881" fill="none" stroke="url(#linearGradient7988)" stroke-linecap="round" stroke-width=".855408"/>
      <path d="m-8.773068 251.06033c-.7410904-.64069-4.918615 5.20743-12.829844 10.5915" fill="none" stroke="url(#linearGradient7990)" stroke-linecap="round" stroke-width=".855408"/>
      <path d="m-3.7812509 251.56553c-3.1755437 4.57429-2.5345677 10.62781-7.5625111 15.46673" fill="none" stroke="url(#linearGradient7992)" stroke-linecap="round" stroke-width=".855409"/>
      <path d="m-8.0334907 251.49016s-6.9944463 11.18157-9.5651233 12.92056" fill="none" stroke="url(#linearGradient7994)" stroke-linecap="round" stroke-width=".855409"/>
      <path d="m-4.8825181 250.99819c-2.9487169 2.49507-7.4442399 12.1153-9.6746819 14.95061" fill="none" stroke="url(#linearGradient7996)" stroke-linecap="round" stroke-width=".855409"/>
      <g fill-rule="evenodd">
        <path d="m4.3485064 247.45782-9.8044107-5.61055c-.5120909 2.03807.2923962 2.772-1.5362727 6.11419l6.76653305 3.87215c1.24327525-2.97462 3.04943255-2.91721 4.57415035-4.37579z" fill="url(#linearGradient8582)"/>
        <rect fill="url(#linearGradient15309)" height="2.96" rx=".855" transform="matrix(-.86602487 -.50000092 -.49999974 .86602555 0 0)" width="11.133" x="-127.28" y="215.79"/>
        <path d="m-12.097484 266.69884s-1.288744-.42828-1.861451-.80561c1.058513-1.66337 2.911245-5.04319 4.6218793-7.59254-1.0207093 5.595-2.7604283 8.39815-2.7604283 8.39815z" fill="#fff" opacity=".317308"/>
        <path d="m-15.011836 265.41829-1.733055-.92823c1.663379-1.58778 6.388616-8.65324 6.388616-8.65324z" fill="#fff" opacity=".317308"/>
        <path d="m-18.875474 263.13396-2.084092-1.4916c2.721893-1.13412 9.911223-8.45184 9.911223-8.45184-2.03838 2.57641-5.788748 7.36706-7.827131 9.94344z" fill="#fff" opacity=".317308"/>
        <path d="m-21.86527 261.02058-1.447617-1.20569c2.835305-1.28533 10.688906-8.47881 10.688906-8.47881s-5.196252 7.86993-9.241289 9.6845z" fill="#fff" opacity=".317308"/>
        <path d="m-9.2243746 267.56833s-1.0241144-.23924-1.7480404-.38974c1.2475367-1.05853 3.2514849-3.79569 4.3572525-7.36571-.4536505 5.89742-2.6092121 7.75545-2.6092121 7.75545z" fill="#fff" opacity=".317308"/>
        <path d="m-6.6536971 267.90854s-1.067566-.0129-1.067566-.0129c1.9658112-2.15482 2.6844223-4.58953 3.7901899-8.04616.113415 4.00722-2.7226239 8.05786-2.7226239 8.05786z" fill="#fff" opacity=".317308"/>
      </g>
    </g>
  </g>
</svg>
