<svg fill="none" height="128" viewBox="0 0 128 128" width="128" xmlns="http://www.w3.org/2000/svg">
  <path clip-rule="evenodd" d="m36.7806 9 11.1204 11.1204c5.9166-3.4647 12.8045-5.4504 20.1536-5.4504 22.0577 0 39.9394 17.8813 39.9394 39.939 0 7.3491-1.986 14.237-5.451 20.1536l11.121 11.1209-13.9441 13.9442c3.3151 2.1103 5.5151 5.8173 5.5151 10.0393v.9c0 4.547-3.686 8.233-8.2332 8.233h-57.3397c-4.547 0-8.233-3.686-8.233-8.233v-.9c0-4.339 2.3239-8.134 5.7925-10.2108-16.0565-10.9872-24.1962-30.8321-22.7135-50.9185.6459-8.7507 5.2954-17.466 9.5601-23.7802l-1.6225-1.6225zm61.2758 89.9457-.0122-.0121c-.002.0014-.0041.0028-.0061.0042.0061.0026.0122.0053.0183.0079zm-61.2758-87.3583-11.7475 11.7476 1.4032 1.4032-.4318.6271c-4.3275 6.2859-9.041 14.9608-9.6718 23.5071-1.4819 20.0756 6.9235 39.7488 23.1939 50.1137l1.4664.9342-1.6004.6797c-3.607 1.531-6.134 5.105-6.134 9.267v.9c0 3.537 2.867 6.403 6.4035 6.403h57.3397c3.5362 0 6.4032-2.866 6.4032-6.403v-.9c0-4.723-3.254-8.688-7.6434-9.77l-2.0696-.5109 1.7959-1.1484c.7102-.4541 1.4198-.9334 2.1269-1.4391l.6307-.4512 1.0836 1.0837 11.7479-11.7476-10.841-10.8403.375-.6144c3.523-5.7741 5.553-12.5585 5.553-19.8198 0-21.0472-17.0621-38.1095-38.1094-38.1095-7.2613 0-14.0457 2.03-19.8198 5.5528l-.6144.3749z" fill="#33d17a" fill-rule="evenodd"/>
  <path clip-rule="evenodd" d="m23.7394 23.335 13.0412-13.0413 10.9778 10.9777c5.9135-3.6079 12.8621-5.6866 20.2962-5.6866 21.5525 0 39.0244 17.4717 39.0244 39.0242 0 7.4341-2.079 14.3827-5.687 20.2963l10.978 10.9782-13.0409 13.0413-1.1822-1.1822c-.7202.5152-1.4429 1.0033-2.1662 1.4658 4.7883 1.1816 8.3393 5.5056 8.3393 10.6586v.9c0 4.042-3.276 7.318-7.3182 7.318h-57.3397c-4.0418 0-7.3183-3.276-7.3183-7.318v-.9c0-4.542 2.7584-8.44 6.6913-10.1093-16.6005-10.5753-25.1171-30.5996-23.6147-50.9527.6492-8.7958 5.4787-17.637 9.8306-23.9584z" fill="#f6f5f4" fill-rule="evenodd"/>
  <g fill="#f66151">
    <path d="m32.6038 23.4806c-7.5443 8.6172-11.7125 19.6751-11.7335 31.1282 0 26.1717 21.2164 47.3882 47.3881 47.3882 11.4569-.013 22.5217-4.1738 31.1461-11.7157l-5.5622-5.5622c-7.1388 6.0812-16.2061 9.4281-25.5839 9.4435-21.8449 0-39.5538-17.7088-39.5538-39.5538.0016-9.383 3.3418-18.4593 9.4197-25.6078z"/>
    <path d="m86.9855 68.2607-5.2791 5.2791 18.9816 18.9817 5.279-5.2791z"/>
    <path d="m34.5191 16.4612-5.2791 5.279 17.6227 17.6227 5.279-5.2791z"/>
    <path clip-rule="evenodd" d="m101.59 54.6089c0 18.5212-15.0143 33.5356-33.5354 33.5356-18.5212 0-33.5355-15.0144-33.5355-33.5356 0-18.5211 15.0143-33.5355 33.5355-33.5355 18.5211 0 33.5354 15.0144 33.5354 33.5355zm-12.256.9264c.0094.0115.0338.03.0734.0552l.0602.1805.0173-.014.028.0346c.0187.0231.0269.0451.0247.0659-.206.8544-1.2246 2.3093-3.0559 4.3647-1.8197 2.0461-3.1276 3.3914-3.9237 4.0359-.7846.6351-1.2277.9843-1.3293 1.0474l-.8407.7665c-.8763.8049-1.3837 1.2634-1.5221 1.3755-4.846 3.9229-9.5235 5.6946-14.0327 5.315-4.4976-.389-8.5584-2.8219-12.1825-7.2986-3.6334-4.4883-5.0273-8.9941-4.1817-13.5176.857-4.5327 3.6163-8.6859 8.2776-12.4594.8538-.6912 1.9691-1.4604 3.346-2.3076 1.3884-.8565 2.6817-1.512 3.88-1.9664 1.5368-.461 3.079-.5731 4.6268-.3363 1.5499.216 2.8908.7634 4.0226 1.6425.289.2627.7239.6937 1.3046 1.2931.583.5785 1.019.9991 1.308 1.2618.0708.2291-.1072.5164-.5341.862l-8.918 6.9616c-.0648.0143-.2486-.0948-.5513-.3272l.042.0519c-.9643-.7664-1.8362-1.006-2.6158-.7186-.361.1203-.7665.3626-1.2165.7269-.4499.3642-.8161.7848-1.0985 1.2617-.2709.4676-.4316.9415-.4822 1.4217-.0505.4802-.0348.9832.047 1.509.0725.5143.2203 1.0153.4434 1.5032s.467.978.7319 1.4703c.2648.4923.5538.9554.867 1.3895.3247.4247.6296.8368.9148 1.2362.2967.3901.5535.7074.7705.9519.2077.2329.3443.3898.4096.4706l.9668 1.1941c.6071.75 1.0667 1.247 1.3788 1.4909.3027.2324.645.4901 1.0268.773.3726.2715.697.4481.9734.53.9637.2703 1.8079.3222 2.5325.1557.7269-.1873 1.6442-.7294 2.7519-1.626 1.1191-.906 2.0452-1.9326 2.7781-3.0799l-2.1271-2.8045-1.3302.9049-.103.2267-1.7999 1.457-.1937.1855-.7969-.0997c-.1819-.1775-.4456-.4797-.7912-.9066l-3.1383-3.8767c-.1588-.1962-.1792-.5044-.061-.9247l1.1595-.9387c1.0038-.8126 2.1381-1.7118 3.4029-2.6975l.1731-.1401c1.1494-.8922 2.0183-1.5766 2.6067-2.0529l1.0384-.8406.3841-.3396c2.0537-1.6626 3.3323-2.4779 3.8355-2.4461l10.4263 13.3041z" fill-rule="evenodd"/>
    <path d="m61.2167 100.261h15.1511v8.17587h-15.1511z"/>
    <path d="m37.8325 110.378c0-3.314 2.6863-6 6-6h48.9988c3.3137 0 6 2.686 6 6v.218c0 1.105-.8954 2-2 2h-56.9988c-1.1045 0-2-.895-2-2z"/>
  </g>
</svg>
