<svg height="128" width="128" xmlns="http://www.w3.org/2000/svg" xmlns:xlink="http://www.w3.org/1999/xlink">
  <linearGradient id="linearGradient8534">
    <stop offset="0"/>
    <stop offset="1" stop-opacity="0"/>
  </linearGradient>
  <linearGradient id="linearGradient2452" gradientTransform="matrix(1.4314924 .7490339 -.7490339 1.4314924 -13.230352 83.159017)" gradientUnits="userSpaceOnUse" x1="13.236" x2="7.752" y1="37.752" y2="42.282">
    <stop offset="0" stop-color="#fff"/>
    <stop offset="1" stop-color="#fff" stop-opacity="0"/>
  </linearGradient>
  <linearGradient id="linearGradient6945" gradientUnits="userSpaceOnUse" x1="-15.3145662705" x2="-8.2743000711" y1="124.2282936021" y2="130.7453736219">
    <stop offset="0" stop-color="#bdbdbd"/>
    <stop offset=".333" stop-color="#e2e2e2"/>
    <stop offset=".667" stop-color="#a3a3a3"/>
    <stop offset="1" stop-color="#ddd"/>
  </linearGradient>
  <linearGradient id="linearGradient4330" gradientUnits="userSpaceOnUse" x1="51.5356900528" x2="47.9143000624" xlink:href="#linearGradient8534" y1="6.3550689808" y2="7.227835816"/>
  <linearGradient id="linearGradient4351" gradientUnits="userSpaceOnUse" x1="56.17685616" x2="34.1858963328" xlink:href="#linearGradient8534" y1="2.1807374048" y2="6.5445715808"/>
  <g transform="matrix(1.3911497 0 0 1.3911497 -.823425 61.439959)">
    <g fill="#3f3f3f">
      <path d="m20.359657-27.898135s5.675954 11.70462 18.954493 11.374415c27.826832-.698119 32.706409-15.214082 33.404528-17.308447.69812-2.094364 1.766331-1.777122 2.013298.158494 9.075564 82.378326-62.983119 47.033-65.5422456 33.00227422 14.3114676-4.18872782 10.8208656-12.21712622 10.8208656-12.21712622z" fill-rule="evenodd" opacity=".5"/>
      <path d="m30.950173 6.8509461c13.306513 2.66142 20.082867.1936875 24.048785-2.8686302-1.047181-1.3526105-2.836113-2.8361188-2.836113-2.8361188s4.646818 1.2912646 6.28308 3.4033427c1.631579 2.1060292.605819 3.4036063.178819 6.0982502-.950585-2.3667356-2.724885-3.2542981-2.965099-4.1946752-3.566625 4.9303962-12.452589 4.7255782-24.709472.3978313z" fill-rule="evenodd" opacity=".5"/>
      <path d="m34.845722-10.270551a8.0283849 8.0283978 0 1 1 -16.056769 0 8.0283849 8.0283978 0 1 1 16.056769 0z" fill-rule="evenodd" opacity=".5"/>
      <path d="m18.852716-7.2456637a12.042587 8.5519782 54.192283 1 1 -13.8710216 10.0070014 12.042587 8.5519782 54.192283 1 1 13.8710216-10.0070014z" fill-rule="evenodd" opacity=".5"/>
      <path d="m32.560174-9.0811686a3.8655186 3.8655248 0 1 1 -7.731037 0 3.8655186 3.8655248 0 1 1 7.731037 0z" fill-rule="evenodd" opacity=".5"/>
      <path d="m11.393596-6.6054312a3.4906019 4.1887285 0 1 1 -6.9812037 0 3.4906018 4.1887286 0 1 1 6.9812037 0z" fill-rule="evenodd" opacity=".5"/>
      <path d="m52.822299-9.3979086a9.4246241 9.4246392 0 1 1 -18.849248 0 9.4246241 9.4246392 0 1 1 18.849248 0z" fill-rule="evenodd" opacity=".5"/>
      <path d="m50.139277-8.0016725a4.537782 4.5377893 0 1 1 -9.075564 0 4.537782 4.5377893 0 1 1 9.075564 0z" fill-rule="evenodd" opacity=".5"/>
      <g opacity=".5" transform="matrix(-.11963731 -.40610834 .40610769 -.1196375 24.227646 29.149665)">
        <path d="m-8.3999014 115.45202 7.03287 6.57618c15.8225584-12.09555 32.4035684-38.100419 32.4035684-38.100419 3.746307-4.250722-.221634-7.109423-4.103802-4.5455 0 0-24.5866464 19.173762-35.3326364 36.069739z"/>
        <path d="m-21.831201 132.97792 4.258129 3.66575 16.0989046-13.96496.52140597-1.33797 2.07455703-.0338c-.82932603-2.96187-5.57594-8.30928-9.130194-8.30928l.155477 2.06635-1.270036.72038-12.7082416 17.1935z"/>
        <path d="m-9.2285864 124.56689-8.2741756 9.98314" stroke="#fff" stroke-linecap="round" stroke-linejoin="round" stroke-width="4.664041"/>
        <path d="m-50.059546 151.85042c19.797589 0 34.822284 2.35762 37.66676-12.04605 2.292255-11.60737-13.668303-17.16917-21.577392-6.80685-7.61895 9.98219-16.089368 18.8529-16.089368 18.8529z"/>
        <path d="m-14.116135 140.20995a4.9046402 4.9046402 0 1 1 -9.80928 0 4.9046402 4.9046402 0 1 1 9.80928 0z" opacity=".527778"/>
        <path d="m-1.3778614 121.66823a3.3094106 3.3094106 0 1 1 -6.618821 0 3.3094106 3.3094106 0 1 1 6.618821 0z"/>
        <path d="m-37.174219 148.32348s7.054521.17875 11.594522-2.67658c1.60624-1.01021 2.873304 1.23211.936084 2.06121-4.18434 1.79084-12.530606.61537-12.530606.61537z" opacity=".427778"/>
      </g>
      <path d="m45.296061 10.149482c2.956685.282548 5.626827-.537508 6.737064-.9360461.193943-1.0966575 1.059466-3.2013107 4.040169-3.3399482l-1.04718-1.8325677s-3.883295 2.6615855-8.028383 3.446973z" fill-rule="evenodd" opacity=".5"/>
    </g>
    <path d="m20.359686-29.335794s5.675964 11.70462 18.954524 11.374415c27.826876-.698119 32.706461-15.214082 33.404581-17.308447.698122-2.094364 1.766334-1.777122 2.013302.158494 9.075578 82.378326-62.98322 47.033-65.5423511 33.0022738 14.3114901-4.1887278 10.8208831-12.2171258 10.8208831-12.2171258z" fill="#6c5a42" fill-rule="evenodd"/>
    <path d="m30.950219 5.4132867c13.306535 2.66142 20.0829.1936875 24.048824-2.8686302-1.047183-1.3526105-2.836118-2.83611878-2.836118-2.83611878s4.646826 1.2912646 6.283091 3.40334268c1.631581 2.1060292.605819 3.4036063.178819 6.0982502-.950587-2.3667356-2.72489-3.2542981-2.965104-4.1946752-3.566631 4.9303962-12.452609 4.7255782-24.709512.3978313z" fill="url(#linearGradient4351)" fill-rule="evenodd"/>
    <path d="m34.845775-11.70821a8.0283978 8.0283978 0 1 1 -16.056795 0 8.0283978 8.0283978 0 1 1 16.056795 0z" fill="#fff" fill-rule="evenodd"/>
    <path d="m18.852743-8.6833231a12.042594 8.5519872 54.192151 1 1 -13.8710439 10.0070014 12.042594 8.5519872 54.192151 1 1 13.8710439-10.0070014z" fill="#3f3f3f" fill-rule="evenodd"/>
    <path d="m32.560223-10.518828a3.8655248 3.8655248 0 1 1 -7.731049 0 3.8655248 3.8655248 0 1 1 7.731049 0z" fill="#2e3436" fill-rule="evenodd"/>
    <path d="m11.393611-8.0430906a3.4906075 4.1887285 0 1 1 -6.9812149 0 3.4906074 4.1887285 0 1 1 6.9812149 0z" fill="#fff" fill-rule="evenodd"/>
    <path d="m52.82238-10.835568a9.4246392 9.4246392 0 1 1 -18.849278 0 9.4246392 9.4246392 0 1 1 18.849278 0z" fill="#fff" fill-rule="evenodd"/>
    <path d="m50.139354-9.4393319a4.5377893 4.5377893 0 1 1 -9.075578 0 4.5377893 4.5377893 0 1 1 9.075578 0z" fill="#2e3436" fill-rule="evenodd"/>
    <g transform="matrix(-.1196375 -.40610834 .40610834 -.1196375 24.227682 27.712006)">
      <path d="m-8.3999014 115.45202 7.03287 6.57618c15.8225584-12.09555 32.4035684-38.100419 32.4035684-38.100419 3.746307-4.250722-.221634-7.109423-4.103802-4.5455 0 0-24.5866464 19.173762-35.3326364 36.069739z" fill="#d59959"/>
      <path d="m-21.831201 132.97792 4.258129 3.66575 16.0989046-13.96496.52140597-1.33797 2.07455703-.0338c-.82932603-2.96187-5.57594-8.30928-9.130194-8.30928l.155477 2.06635-1.270036.72038-12.7082416 17.1935z" fill="url(#linearGradient6945)"/>
      <path d="m-9.2285864 124.56689-8.2741756 9.98314" fill="none" stroke="#fff" stroke-linecap="round" stroke-linejoin="round" stroke-width="4.664041"/>
      <path d="m-50.059546 151.85042c19.797589 0 34.822284 2.35762 37.66676-12.04605 2.292255-11.60737-13.668303-17.16917-21.577392-6.80685-7.61895 9.98219-16.089368 18.8529-16.089368 18.8529z" fill="#3f3f3f"/>
      <path d="m-14.116135 140.20995a4.9046402 4.9046402 0 1 1 -9.80928 0 4.9046402 4.9046402 0 1 1 9.80928 0z" fill="#fff" opacity=".527778"/>
      <path d="m-1.3778614 121.66823a3.3094106 3.3094106 0 1 1 -6.618821 0 3.3094106 3.3094106 0 1 1 6.618821 0z" fill="#fff"/>
      <path d="m-37.174219 148.32348s7.054521.17875 11.594522-2.67658c1.60624-1.01021 2.873304 1.23211.936084 2.06121-4.18434 1.79084-12.530606.61537-12.530606.61537z" fill="url(#linearGradient2452)" opacity=".427778"/>
    </g>
    <path d="m45.29613 8.7118226c2.95669.282548 5.626836-.537508 6.737075-.9360461.193944-1.0966575 1.059468-3.2013107 4.040176-3.3399482l-1.047182-1.8325677s-3.883301 2.6615855-8.028396 3.446973z" fill="url(#linearGradient4330)" fill-rule="evenodd"/>
  </g>
</svg>
