<svg height="128pt" viewBox="0 0 128 128" width="128pt" xmlns="http://www.w3.org/2000/svg" xmlns:xlink="http://www.w3.org/1999/xlink"><linearGradient id="a" gradientTransform="matrix(.232143 0 0 .328947 -8.566925 263.826965)" gradientUnits="userSpaceOnUse" x1="88.595886" x2="536.595886" y1="-449.394012" y2="-449.394012"><stop offset="0" stop-color="#c0bfbc"/><stop offset=".0384615" stop-color="#f6f5f4"/><stop offset=".0768555" stop-color="#c0bfbc"/><stop offset=".923077" stop-color="#c0bfbc"/><stop offset=".961538" stop-color="#f6f5f4"/><stop offset="1" stop-color="#c0bfbc"/></linearGradient><linearGradient id="b" gradientUnits="userSpaceOnUse" x1="66.000003" x2="66.000003" y1="284" y2="216.322327"><stop offset="0" stop-color="#e5a50a"/><stop offset="1" stop-color="#f6d32d"/></linearGradient><linearGradient id="c" gradientUnits="userSpaceOnUse" x1="74.000003" x2="74.000003" y1="280" y2="222"><stop offset="0" stop-color="#e01b24"/><stop offset="1" stop-color="#f66151"/></linearGradient><linearGradient id="d" gradientTransform="matrix(0 -1 1 0 -128.999997 137)" gradientUnits="userSpaceOnUse" x1="79" x2="95" y1="218" y2="218"><stop offset="0" stop-color="#e01b24"/><stop offset="1" stop-color="#f8887c"/></linearGradient><linearGradient id="e" gradientTransform="matrix(1 0 0 -1 130 20)" gradientUnits="userSpaceOnUse" x1="-71.999977" x2="-71.999977" y1="-262" y2="-189.053665"><stop offset="0" stop-color="#1a5fb4"/><stop offset="1" stop-color="#62a0ea"/></linearGradient><linearGradient id="f" gradientTransform="matrix(0 -1 1 0 -160.999996 136)" gradientUnits="userSpaceOnUse" x1="55" x2="71" y1="198" y2="198"><stop offset="0" stop-color="#3584e4"/><stop offset="1" stop-color="#98c1f1"/></linearGradient><linearGradient id="g" gradientTransform="matrix(0 -1 1 0 -206.999996 65.000008)" gradientUnits="userSpaceOnUse" x1="31" x2="47" y1="270" y2="270"><stop offset="0" stop-color="#e5a50a"/><stop offset="1" stop-color="#f8e45c"/></linearGradient><path d="m20 16h88c4.417969 0 8 3.582031 8 8v84c0 4.417969-3.582031 8-8 8h-88c-4.417969 0-8-3.582031-8-8v-84c0-4.417969 3.582031-8 8-8zm0 0" fill="url(#a)"/><path d="m20 12h88c4.417969 0 8 3.582031 8 8v84c0 4.417969-3.582031 8-8 8h-88c-4.417969 0-8-3.582031-8-8v-84c0-4.417969 3.582031-8 8-8zm0 0" fill="#f6f5f4"/><path d="m60 112h6v4h-6zm0 0" fill="#391f4d"/><path d="m67 196v92" fill="none" stroke="url(#b)" stroke-linejoin="round" stroke-width="6" transform="translate(-4 -172)"/><path d="m67 284.9375v-20.9375c0-4.96875 4.03125-9 9-9h8c4.96875 0 9-4.03125 9-9v-24" fill="none" stroke="url(#c)" stroke-width="6" transform="translate(-4 -172)"/><path d="m81 51c0-4.394531 3.605469-8 8-8s8 3.605469 8 8-3.605469 8-8 8-8-3.605469-8-8zm0 0" fill="#c01c28"/><path d="m81 50c0-4.394531 3.605469-8 8-8s8 3.605469 8 8-3.605469 8-8 8-8-3.605469-8-8zm0 0" fill="url(#d)"/><path d="m91 50c0 1.105469-.894531 2-2 2s-2-.894531-2-2 .894531-2 2-2 2 .894531 2 2zm0 0" fill="#fff"/><path d="m67 284c0-4.96875-4.03125-9-9-9h-8c-4.96875 0-9-4.03125-9-9v-40c0-4.96875 4.03125-9 9-9h8c4.96875 0 9-4.03125 9-9v-6" fill="none" stroke="url(#e)" stroke-linejoin="round" stroke-width="6" transform="translate(-4 -172)"/><path d="m29 74c0 4.394531 3.605469 8 8 8s8-3.605469 8-8-3.605469-8-8-8-8 3.605469-8 8zm0 0" fill="#1a5fb4"/><path d="m29 73c0 4.394531 3.605469 8 8 8s8-3.605469 8-8-3.605469-8-8-8-8 3.605469-8 8zm0 0" fill="url(#f)"/><path d="m39 73c0 1.105469-.894531 2-2 2s-2-.894531-2-2 .894531-2 2-2 2 .894531 2 2zm0 0" fill="#fff"/><path d="m60 112h6v4h-6zm0 0" fill="#12437e"/><path d="m55 27c0 4.394531 3.605469 8 8 8s8-3.605469 8-8-3.605469-8-8-8-8 3.605469-8 8zm0 0" fill="#bc8808"/><path d="m55 26c0 4.394531 3.605469 8 8 8s8-3.605469 8-8-3.605469-8-8-8-8 3.605469-8 8zm0 0" fill="url(#g)"/><path d="m65 26c0 1.105469-.894531 2-2 2s-2-.894531-2-2 .894531-2 2-2 2 .894531 2 2zm0 0" fill="#fff"/></svg>