<svg height="128" width="128" xmlns="http://www.w3.org/2000/svg">
  <g fill-rule="evenodd" transform="translate(0 -172)">
    <path d="m26.421875 181.46094c-.916494.00007-1.833544.52649-2.175781 1.58008l-13.306641 40.95703-6.7148436 20.66601c-.612425 1.88474.058713 3.94847 1.6621094 5.11328l58.1132812 42.22266 58.11328-42.22266c1.60343-1.16481 2.27453-3.22854 1.66211-5.11328l-6.71484-20.66601-13.30664-40.95703c-.68447-2.10718-3.66514-2.10775-4.349613 0l-13.308594 40.95703h-44.191406l-13.308594-40.95703c-.342238-1.05388-1.257334-1.58015-2.173828-1.58008z" fill="#060505" opacity=".2"/>
    <path d="m63.999971 289.99995 22.095343-68.00208h-44.190687z" fill="#e01b24"/>
    <path d="m63.999971 289.99983-22.095344-68.00208h-30.966075z" fill="#ff7800"/>
    <path d="m10.938609 221.99792-6.7143763 20.66521c-.612425 1.88474.05833 3.9496 1.661726 5.11441l58.1140693 42.22246z" fill="#f5c211"/>
    <path d="m10.938609 221.99798h30.966075l-13.308098-40.95701c-.684476-2.10775-3.665975-2.10718-4.35045 0z" fill="#e01b24"/>
    <path d="m63.999971 289.99983 22.095343-68.00208h30.966076z" fill="#ff7800"/>
    <path d="m117.06139 221.99792 6.71438 20.66521c.61242 1.88474-.0583 3.9496-1.66173 5.11441l-58.114069 42.22246z" fill="#f5c211"/>
    <path d="m117.06139 221.99798h-30.966076l13.308099-40.95701c.684477-2.10775 3.665977-2.10718 4.350447 0z" fill="#e01b24"/>
  </g>
</svg>
