<svg enable-background="new" height="128" viewBox="0 0 128 128" width="128" xmlns="http://www.w3.org/2000/svg" xmlns:xlink="http://www.w3.org/1999/xlink">
  <linearGradient id="linearGradient1159" gradientUnits="userSpaceOnUse" x1="-107.99999" x2="-19.99999" y1="-276" y2="-276">
    <stop offset="0" stop-color="#c0bfbc"/>
    <stop offset=".045" stop-color="#fff"/>
    <stop offset=".091" stop-color="#deddda"/>
    <stop offset=".909" stop-color="#deddda"/>
    <stop offset=".955" stop-color="#fff"/>
    <stop offset="1" stop-color="#c0bfbc"/>
  </linearGradient>
  <linearGradient id="linearGradient1103" gradientTransform="matrix(.07621224 -.44419723 .44419725 -.07621223 77.725794 331.83807)" gradientUnits="userSpaceOnUse" x1="128.817" x2="158.518" y1="-97.698" y2="-127.399">
    <stop offset="0" stop-color="#d0bb8e"/>
    <stop offset="1" stop-color="#fff"/>
  </linearGradient>
  <clipPath id="clipPath1062">
    <rect height="108" rx="8" transform="scale(-1)" width="88" x="-108" y="-116"/>
  </clipPath>
  <g transform="translate(0 -172)">
    <g transform="scale(-1)">
      <rect fill="#424048" height="30.25" rx="8" width="88" x="-108" y="-294"/>
      <rect fill="url(#linearGradient1159)" height="40" rx="8" width="88" x="-108" y="-292"/>
      <rect fill="#f6f5f4" height="108" rx="8" width="88" x="-108" y="-288"/>
    </g>
    <g transform="translate(-.456736 9.796612)">
      <path d="m33.970338 188.21944c-3.04564 0-5.497546 2.45191-5.497546 5.49754v10.9951c0 3.04564 2.451906 5.49755 5.497546 5.49755h22.989742c3.04564 0 5.497546-2.45191 5.497546-5.49755v-10.9951c0-3.04563-2.451906-5.49754-5.497546-5.49754zm37.983051 0c-3.04564 0-5.497546 2.45191-5.497546 5.49754v10.9951c0 3.04564 2.451906 5.49755 5.497546 5.49755h22.989741c3.04564 0 5.49755-2.45191 5.49755-5.49755v-10.9951c0-3.04563-2.45191-5.49754-5.49755-5.49754zm-37.983051 25.9884c-3.04564 0-5.497546 2.45191-5.497546 5.49755v10.9951c0 3.04564 2.451906 5.49754 5.497546 5.49754h22.989742c3.04564 0 5.497546-2.4519 5.497546-5.49754v-10.9951c0-3.04564-2.451906-5.49755-5.497546-5.49755zm37.983051 0c-3.04564 0-5.497546 2.45191-5.497546 5.49755v10.9951c0 3.04564 2.451906 5.49754 5.497546 5.49754h22.989741c3.04564 0 5.49755-2.4519 5.49755-5.49754v-10.9951c0-3.04564-2.45191-5.49755-5.49755-5.49755zm-37.983051 25.98841c-3.04564 0-5.497546 2.45191-5.497546 5.49755v10.99509c0 3.04564 2.451906 5.49755 5.497546 5.49755h22.989742c3.04564 0 5.497546-2.45191 5.497546-5.49755v-10.99509c0-3.04564-2.451906-5.49755-5.497546-5.49755zm37.983051 0c-3.04564 0-5.497546 2.45191-5.497546 5.49755v10.99509c0 3.04564 2.451906 5.49755 5.497546 5.49755h22.989741c3.04564 0 5.49755-2.45191 5.49755-5.49755v-10.99509c0-3.04564-2.45191-5.49755-5.49755-5.49755z" opacity=".2"/>
      <rect fill="#eee" height="21.99" ry="5.498" width="33.985" x="28.47" y="186.22"/>
      <path d="m36.469224 190.21855v1.9991h15.992862v-1.9991zm-1.999109 5.99732v1.99911h13.993756v-1.99911zm0 5.99733v1.99911h21.990188v-1.99911z" opacity=".2"/>
      <rect fill="#eee" height="21.99" ry="5.498" width="33.985" x="66.46" y="186.22"/>
      <path d="m74.452273 190.21855v1.9991h15.992864v-1.9991zm-1.999108 5.99732v1.99911h13.993757v-1.99911zm0 5.99733v1.99911h21.990187v-1.99911z" opacity=".2"/>
      <rect fill="#eee" height="21.99" ry="5.498" width="33.985" x="28.47" y="212.21"/>
      <path d="m36.469224 216.20696v1.9991h15.992862v-1.9991zm-1.999109 5.99731v1.99912h13.993756v-1.99912zm0 5.99733v1.9991h21.990188v-1.9991z" opacity=".2"/>
      <rect fill="#eee" height="21.99" ry="5.498" width="33.985" x="66.46" y="212.21"/>
      <path d="m74.452273 216.20696v1.9991h15.992864v-1.9991zm-1.999108 5.99731v1.99912h13.993757v-1.99912zm0 5.99733v1.9991h21.990187v-1.9991z" opacity=".2"/>
      <rect fill="#eee" height="21.99" ry="5.498" width="33.985" x="28.47" y="238.2"/>
      <path d="m36.469224 242.19535v1.99911h15.992862v-1.99911zm-1.999109 5.99733v1.99912h13.993756v-1.99912zm0 5.99733v1.9991h21.990188v-1.9991z" opacity=".2"/>
      <rect fill="#eee" height="21.99" ry="5.498" width="33.985" x="66.46" y="238.2"/>
      <path d="m74.452273 242.19535v1.99911h15.992864v-1.99911zm-1.999108 5.99733v1.99912h13.993757v-1.99912zm0 5.99733v1.9991h21.990187v-1.9991z" opacity=".2"/>
    </g>
    <path clip-path="url(#clipPath1062)" d="m100 16-68 68v20h22l68-68-7.86719-5.761719-.0742-.07227-8.22461-8.22461z" opacity=".2" transform="translate(0 172)"/>
    <path d="m32 276v-20l20 20z" fill="url(#linearGradient1103)"/>
    <path d="m31.999996 276 .000004-8 8 8z" fill="#424048"/>
    <path d="m50 274-16-16 67.94696-67.94695 16 16z" fill="#f6d32d"/>
    <path d="m37.887772 261.88776-5.887772-5.88776 68.00001-67.99999 5.83472 5.9408z" fill="#f9f06b"/>
    <path d="m46.112246 270.11223 5.887754 5.88777 68-68-5.9408-5.83472z" fill="#e5a50a"/>
  </g>
</svg>
