<svg enable-background="new" height="128" viewBox="0 0 128 128" width="128" xmlns="http://www.w3.org/2000/svg">
  <g transform="translate(0 -172)">
    <path d="m20 188c-4.432 0-8 3.568-8 8v84c0 4.432 3.568001 8 8 8h39.957032 4.042968 43.29492c6.07629 0 8.66602-4.51575 8.66602-10.125v-39.875h-51.96094v-50z" fill="#797979"/>
    <path d="m19.999849 184c-4.431916 0-7.999849 3.568-7.999849 8v84c0 4.432 3.567934 8 7.999849 8h39.999246 3.999925 44.00113c4.43192 0 7.99985-3.568 7.99985-8v-84c0-4.432-3.56793-8-7.99985-8h-44.00113-3.999925z" fill="#f2f2f2"/>
    <g transform="matrix(1.8929253 0 0 1.8929253 1.0070177678 -264.04529)">
      <path d="m24.367486 254.27451v17.60874h17.529467c.06428 0 .117333-.0344.180939-.0371v-17.53446c-.06361-.003-.116661-.0371-.180939-.0371z" fill="#945f2b" fill-opacity=".811765"/>
      <path d="m13.833336 267.8955v-1.10204q1.292523-.2313 2.238105-1.14287.945583-.91157 1.176877-2.32654-.66667.81633-2.081643.81633-1.251707 0-2.088445-.85714-.836738-.85716-.836738-2.13607 0-1.34694.918371-2.2245.918372-.87756 2.319739-.87756 1.564634 0 2.367358 1.02042.802725 1.02041.802725 2.66668 0 2.40817-1.28572 4.12926-1.285721 1.7211-3.530629 2.03403zm1.605449-4.85716q.884359 0 1.435382-.53742.551023-.53742.551023-1.40818 0-.82993-.564629-1.36735-.564628-.53742-1.421776-.53742-.884358 0-1.43538.53742-.551023.53742-.551023 1.36735 0 .88437.537417 1.41498.537418.53062 1.448986.53062z" fill="#3b3b3b" fill-rule="evenodd"/>
      <path d="m33.183776 267.9281q-2.408176 0-3.251716-2.21769l1.102046-.44899q.639457 1.53742 2.14967 1.53742.897963 0 1.469394-.43537.571431-.43538.571431-1.26532 0-.78912-.503404-1.2585-.503404-.46939-1.469395-.46939h-.680275v-1.11566h.612249q.748302 0 1.210891-.41496.462586-.41497.462586-1.09525 0-.70748-.455785-1.12926-.455785-.42177-1.176874-.42177-1.292524 0-1.891167 1.27892l-1.102046-.42177q.340139-.87076 1.108848-1.42178.768712-.55102 1.884365-.55102 1.2381 0 2.05443.7211.816329.72108.816329 1.80953 0 .65306-.319728 1.21088-.31973.55784-.904767.85715.748302.29933 1.170074.91157.421772.61225.421772 1.4694 0 1.29252-.938782 2.08164-.938778.78912-2.340146.78912z" fill="#ececec"/>
      <path d="m10.033587 236.69465c-.5853269 0-1.1418365.11792-1.6477888.33121-.5059524.2133-.9614632.52191-1.3434065.90386-.3819432.38195-.690565.83745-.9038592 1.34341-.2132889.50596-.3312085 1.06245-.3312085 1.64779v13.33604h18.603399v-17.56231zm32.031276 0v17.56231h18.492995c.06781 0 .123782-.0344.190884-.0371v-13.2989c0-.58534-.117918-1.14183-.331207-1.64779-.213294-.50596-.521917-.96146-.90386-1.34341s-.837455-.69056-1.343407-.90386c-.505953-.21329-1.062462-.33121-1.647789-.33121z" opacity=".36"/>
      <path d="m5.807324 271.8915v13.43097c0 .58534.1179196 1.14183.3312085 1.64779.2132942.50596.521916.96146.9038592 1.34341.3819433.38195.8374541.69056 1.3434065.90386.4334032.1827.9175137.25519 1.4115057.28374h14.6134191v-17.60977zm36.257539 0v17.60977h14.693901c.493992-.0285.9781-.10104 1.411504-.28374.505952-.2133.961464-.52191 1.343407-.90386s.690566-.83745.90386-1.34341c.213289-.50596.331207-1.06245.331207-1.64779v-13.39382c-.0671-.003-.123074-.0371-.190884-.0371z" opacity=".36"/>
    </g>
  </g>
</svg>
