<svg height="128" width="128" xmlns="http://www.w3.org/2000/svg" xmlns:xlink="http://www.w3.org/1999/xlink">
  <linearGradient id="a">
    <stop offset="0" stop-color="#fff"/>
    <stop offset=".4" stop-color="#fff"/>
    <stop offset="1" stop-color="#f6f5f4"/>
  </linearGradient>
  <radialGradient id="i" cx="44.001" cy="250" gradientUnits="userSpaceOnUse" r="8" xlink:href="#a"/>
  <radialGradient id="h" cx="44.001" cy="210" gradientUnits="userSpaceOnUse" r="8" xlink:href="#a"/>
  <radialGradient id="g" cx="20.002" cy="272" gradientUnits="userSpaceOnUse" r="12" xlink:href="#a"/>
  <radialGradient id="f" cx="20.002" cy="184" gradientUnits="userSpaceOnUse" r="12" xlink:href="#a"/>
  <radialGradient id="e" cx="84.001" cy="210" gradientUnits="userSpaceOnUse" r="8" xlink:href="#a"/>
  <radialGradient id="d" cx="84.001" cy="250" gradientUnits="userSpaceOnUse" r="8" xlink:href="#a"/>
  <radialGradient id="c" cx="108.002" cy="272" gradientUnits="userSpaceOnUse" r="12" xlink:href="#a"/>
  <radialGradient id="b" cx="108.002" cy="184" gradientUnits="userSpaceOnUse" r="12" xlink:href="#a"/>
  <g transform="translate(0 -172)">
    <path d="m22.352 194.352h82.687v82.687h-82.687z" fill="none"/>
    <g fill="none" stroke="#f6f5f4" stroke-width="8">
      <path d="m84 256 24 24m-24-64 24-24m-64 64-24 24m24-64-24-24m24 24h40v40h-40z"/>
      <path d="m20 192h88v88h-88z"/>
    </g>
    <path d="m98.5 194v2h-69v-2z" fill="#d5d3cf"/>
    <path d="m120 192c0 6.627-5.373 12-12 12-1.85 0-3.222-.095-5.165-1.166-1.092-1.726-3.55-4.584-5.668-5.666-1.071-1.944-1.167-3.318-1.167-5.168 0-6.627 5.373-12 12-12s12 5.373 12 12z" fill="#d5d3cf"/>
    <path d="m110 203h2v69h-2z" fill="#d5d3cf"/>
    <circle cx="108" cy="280" fill="#d5d3cf" r="12"/>
    <path d="m79 258v2h-30v-2zm20.604 16.425-1.414 1.415-15-15 1.415-1.415zm3.454-74.632 1.414 1.414-15 15-1.414-1.414z" fill="#d5d3cf"/>
    <circle cx="108" cy="190" fill="url(#b)" r="12"/>
    <path d="m86 222h2v26h-2zm-7-4v2h-30v-2z" fill="#d5d3cf"/>
    <circle cx="84" cy="216" fill="#d5d3cf" r="8"/>
    <path d="m98.5 282v2h-69v-2z" fill="#d5d3cf"/>
    <circle cx="108" cy="278" fill="url(#c)" r="12"/>
    <path d="m92 256c0 .666 0 1-.235 1.932-1.165.59-4.765 4.542-5.787 5.822-.502.246-1.295.246-1.978.246a8 8 0 1 1 8-8z" fill="#d5d3cf"/>
    <circle cx="84" cy="254" fill="url(#d)" r="8"/>
    <circle cx="84" cy="214" fill="url(#e)" r="8"/>
    <g fill="#d5d3cf">
      <path d="m22 203h2v69h-2z"/>
      <circle cx="20" cy="280" r="12"/>
      <path d="m46 222h2v26h-2z"/>
      <circle cx="44" cy="216" r="8"/>
      <path d="m43.586 259.586 1.414 1.414-15 15-1.414-1.414z"/>
      <path d="m7.912 192c0 6.627 5.372 12 12 12 1.849 0 3.222-.095 5.165-1.166 1.092-1.726 3.55-4.584 5.668-5.666 1.071-1.944 1.167-3.318 1.167-5.168 0-6.627-5.373-12-12-12-6.628 0-12 5.373-12 12z"/>
      <path d="m40.077 214.953-1.414 1.415-15-15 1.415-1.414z"/>
    </g>
    <circle cx="20" cy="190" fill="url(#f)" r="12"/>
    <circle cx="20" cy="278" fill="url(#g)" r="12"/>
    <circle cx="44" cy="214" fill="url(#h)" r="8"/>
    <path d="m36 256c0 .666 0 1 .235 1.932 1.165.59 4.765 4.542 5.787 5.822.502.246 1.295.246 1.978.246a8 8 0 1 0 -8-8z" fill="#d5d3cf"/>
    <circle cx="44" cy="254" fill="url(#i)" r="8"/>
  </g>
</svg>
