<svg xmlns="http://www.w3.org/2000/svg" xmlns:xlink="http://www.w3.org/1999/xlink" width="128" height="128" version="1.0" viewBox="0 0 128 128" style="enable-background:new">
 <title id="title4162">
  Adwaita Icon Template
 </title>
 <defs>
  <linearGradient id="linearGradient1099" x1="32" x2="96" y1="236" y2="236" gradientTransform="translate(604.81684,170.58641)" gradientUnits="userSpaceOnUse" xlink:href="#linearGradient1036"/>
  <linearGradient id="linearGradient1036">
   <stop id="stop1032" offset="0" style="stop-color:#d5d3cf"/>
   <stop id="stop1034" offset="1" style="stop-color:#f6f5f4"/>
  </linearGradient>
  <radialGradient id="radialGradient1103" cx="-244" cy="-76" r="32" fx="-244" fy="-76" gradientTransform="matrix(0.88333331,0,0,0.88333331,-460.35018,463.11973)" gradientUnits="userSpaceOnUse" xlink:href="#linearGradient1069"/>
  <linearGradient id="linearGradient1069">
   <stop id="stop1065" offset="0" style="stop-color:#d5d3cf"/>
   <stop id="stop1067-1" offset="1" style="stop-color:#949390"/>
  </linearGradient>
  <linearGradient id="linearGradient1027" x1="64" x2="64" y1="262.5" y2="232" gradientTransform="translate(-470.5864,432.81685)" gradientUnits="userSpaceOnUse" xlink:href="#linearGradient1025"/>
  <linearGradient id="linearGradient1025">
   <stop id="stop1021" offset="0" style="stop-color:#9a9996"/>
   <stop id="stop1023" offset="1" style="stop-color:#77767b"/>
  </linearGradient>
  <linearGradient id="linearGradient1076">
   <stop style="stop-color:#d5d3cf" id="stop1064" offset="0"/>
   <stop id="stop1066" offset=".036" style="stop-color:#e4e1de"/>
   <stop style="stop-color:#d5d3cf" id="stop1068" offset=".071"/>
   <stop id="stop1070" offset=".929" style="stop-color:#d5d3cf"/>
   <stop style="stop-color:#e4e1de" id="stop1072" offset=".964"/>
   <stop style="stop-color:#d5d3cf" id="stop1074" offset="1"/>
  </linearGradient>
  <linearGradient id="linearGradient1020">
   <stop style="stop-color:#ffffff" id="stop1016" offset="0"/>
   <stop style="stop-color:#ffffff;stop-opacity:0.09411765" id="stop1018" offset="1"/>
  </linearGradient>
  <radialGradient id="radialGradient1030-8" cx="64" cy="194.19" r="44" fx="64" fy="194.19" gradientTransform="matrix(-4.7272726,1.2901346e-6,-3.0301491e-7,-1.4318182,490.54548,36.71204)" gradientUnits="userSpaceOnUse" xlink:href="#linearGradient1020"/>
  <linearGradient id="linearGradient1444-2-3-3" x1="120" x2="568" y1="619.964" y2="619.964" gradientTransform="matrix(0.25,0,0,0.25,105.99999,91.009027)" gradientUnits="userSpaceOnUse" xlink:href="#linearGradient1076"/>
  <linearGradient id="linearGradient1108" x1="296" x2="296" y1="-212" y2="236" gradientUnits="userSpaceOnUse">
   <stop style="stop-color:#ffffff" id="stop2" offset="0"/>
   <stop style="stop-color:#ffffff;stop-opacity:.09803922" id="stop4" offset=".125"/>
   <stop style="stop-color:#000000;stop-opacity:0" id="stop6" offset=".925"/>
   <stop style="stop-color:#000000;stop-opacity:0" id="stop8" offset="1"/>
  </linearGradient>
  <clipPath id="clipPath1082-3-360">
   <path style="fill:#8c59d9" d="M 361.9375,-212 C 507.2348,-212 528,-191.28677 528,-46.125 V 70.125 C 528,215.28618 507.2348,236 361.9375,236 H 214.0625 C 68.7652,236 48,215.28618 48,70.125 V -46.125 C 48,-191.28677 68.7652,-212 214.0625,-212 Z"/>
  </clipPath>
  <linearGradient id="linearGradient2059" x1="168" x2="168" y1="284" y2="28" gradientTransform="matrix(0.41427661,0,0,0.41427661,10.345231,149.94328)" gradientUnits="userSpaceOnUse">
   <stop style="stop-color:#f7f7f7" id="stop14" offset="0"/>
   <stop style="stop-color:#e6e6e6" id="stop16" offset="1"/>
  </linearGradient>
  <filter id="filter1132" width="1.046" height="1.05" x="-.02" y="-.03" style="color-interpolation-filters:sRGB">
   <feGaussianBlur id="feGaussianBlur19" stdDeviation="2.32"/>
  </filter>
  <filter id="filter4569" width="1.023" height="1.025" x="-.01" y="-.01" style="color-interpolation-filters:sRGB">
   <feGaussianBlur id="feGaussianBlur22" stdDeviation="1.16"/>
  </filter>
 </defs>
 <g id="layer1" transform="translate(0,-172)">
  <g id="layer2" style="display:none">
   <text style="font-size:5.33333349px;line-height:125%;font-family:Cantarell" id="context" x="-.05" y="128.65" xml:space="preserve">
    <tspan id="tspan2716" x="-.05" y="128.65" style="font-size:5.33333349px">apps</tspan>
   </text>
   <text id="text3021" x="-.25" y="137.23" xml:space="preserve" style="font-weight:bold;font-size:5.33333349px;line-height:125%;font-family:Cantarell">
    <tspan id="tspan3023" x="-.25" y="137.23" style="font-size:5.33333349px">org.gnome.Usage</tspan>
   </text>
   <rect style="fill:#f0f0f0" width="128" height="128" x="0" y="172"/>
   <rect width="16" height="16" x="160" y="172" style="fill:#f0f0f0"/>
   <text style="font-weight:bold;font-size:4px;line-height:125%;font-family:Cantarell" id="text863" x="0" y="164" xml:space="preserve">
    <tspan style="font-size:4px" id="tspan861" x="0" y="164">Hicolor</tspan>
   </text>
   <text id="text867" x="160" y="164" xml:space="preserve" style="font-weight:bold;font-size:4px;line-height:125%;font-family:Cantarell">
    <tspan id="tspan865" x="160" y="164" style="font-size:4px">Symbolic</tspan>
   </text>
  </g>
  <g id="layer3" style="display:none">
   <circle cx="64" cy="236" r="59.504" style="opacity:0.1;fill:none;stroke:#000000;stroke-width:0.99000001;stroke-dasharray:0.99000001, 0.99000001"/>
   <rect width="87.01" height="111.01" x="20.5" y="180.5" rx="8.701" ry="7.929" style="opacity:0.1;fill:none;stroke:#000000;stroke-width:0.99000001;stroke-dasharray:0.99000001, 0.99000001"/>
   <rect width="103.01" height="103.01" x="12.49" y="184.5" rx="7.924" ry="7.924" style="opacity:0.1;fill:none;stroke:#000000;stroke-width:0.99000001;stroke-dasharray:0.99000001, 0.99000001"/>
   <rect width="111.01" height="87.01" x="8.49" y="200.5" rx="7.929" ry="8.701" style="opacity:0.1;fill:none;stroke:#000000;stroke-width:0.99000001;stroke-dasharray:0.99000001, 0.99000001"/>
   <path d="M 2.6203015e-5,288.99999 H 128.00003" style="fill:none;stroke:#62a0ea;stroke-width:2"/>
  </g>
  <g id="layer9">
   <g transform="translate(-128,32)">
    <rect style="fill:#f6f5f4" width="112" height="88" x="136" y="168" rx="8" ry="8"/>
    <rect style="fill:#241f31" width="104" height="78" x="140" y="172" rx="4" ry="4"/>
    <path style="fill:url(#linearGradient1444-2-3-3)" d="m 135.99999,246 v 4 c 0,4.432 3.568,8 8,8 h 96 c 4.432,0 8,-3.568 8,-8 v -4 c 0,4.432 -3.568,8 -8,8 h -96 c -4.432,0 -8,-3.568 -8,-8 z"/>
    <g transform="translate(-1.57422,3.71209)">
     <path d="m 141.57422,188.24805 h 15.4348 c 18.38766,-0.14593 10.52658,43.85833 24.28133,45.05399 h 13.71556 c 15.58612,0 9.33961,-53.7616 20.23368,-53.7616 10.30857,0 8.32808,35.14846 14.80703,35.14846 5.4976,0 3.69222,-16.06156 8.6841,-16.06156 h 6.8435" style="fill:none;stroke:#1a7fd4;stroke-width:0.86666662"/>
     <path d="m 245.57422,226.32775 h -8.50147 c -8.09431,0 -6.07079,-21.2129 -12.67832,-21.2129 -6.60752,0 -2.9204,7.49089 -7.99926,5.92391 -5.07885,-1.56697 -2.94892,-29.70236 -15.73708,-29.76498 h -8.51557 c -15.58611,0 -9.33961,53.7616 -20.23367,53.7616 -10.30857,0 -8.32808,-35.14849 -14.80703,-35.14849 -5.4976,0 -3.69222,16.06158 -8.6841,16.06158 h -6.8435" style="fill:none;stroke:#da1636;stroke-width:0.86666662"/>
    </g>
    <rect width="96" height="70" x="144" y="-246" transform="scale(1,-1)" style="opacity:0.05;fill:url(#radialGradient1030-8)"/>
   </g>
  </g>
 </g>
</svg>
