<svg xmlns="http://www.w3.org/2000/svg" xmlns:xlink="http://www.w3.org/1999/xlink" width="128" height="128" version="1.0">
 <defs>
  <linearGradient id="a">
   <stop offset="0" stop-color="#fff"/>
   <stop offset=".4" stop-color="#fff"/>
   <stop offset="1" stop-color="#f6f5f4"/>
  </linearGradient>
  <radialGradient id="i" cx="134.2" cy="222.988" r="2" fx="134.2" fy="222.988" gradientTransform="matrix(4 0 0 4 -492.799 -641.952)" gradientUnits="userSpaceOnUse" xlink:href="#a"/>
  <radialGradient id="h" cx="134.2" cy="222.988" r="2" fx="134.2" fy="222.988" gradientTransform="matrix(4 0 0 4 -492.799 -681.952)" gradientUnits="userSpaceOnUse" xlink:href="#a"/>
  <radialGradient id="g" cx="134.2" cy="222.988" r="2" fx="134.2" fy="222.988" gradientTransform="matrix(6 0 0 6 -785.198 -1065.928)" gradientUnits="userSpaceOnUse" xlink:href="#a"/>
  <radialGradient id="f" cx="134.2" cy="222.988" r="2" fx="134.2" fy="222.988" gradientTransform="matrix(6 0 0 6 -785.198 -1153.928)" gradientUnits="userSpaceOnUse" xlink:href="#a"/>
  <radialGradient id="e" cx="134.2" cy="222.988" r="2" fx="134.2" fy="222.988" gradientTransform="matrix(4 0 0 4 -452.799 -681.952)" gradientUnits="userSpaceOnUse" xlink:href="#a"/>
  <radialGradient id="d" cx="134.2" cy="222.988" r="2" fx="134.2" fy="222.988" gradientTransform="matrix(4 0 0 4 -452.799 -641.952)" gradientUnits="userSpaceOnUse" xlink:href="#a"/>
  <radialGradient id="c" cx="134.2" cy="222.988" r="2" fx="134.2" fy="222.988" gradientTransform="matrix(6 0 0 6 -697.198 -1065.928)" gradientUnits="userSpaceOnUse" xlink:href="#a"/>
  <radialGradient id="b" cx="134.2" cy="222.988" r="2" fx="134.2" fy="222.988" gradientTransform="matrix(6 0 0 6 -697.198 -1153.928)" gradientUnits="userSpaceOnUse" xlink:href="#a"/>
 </defs>
 <g transform="translate(0 -172)">
  <path fill="none" d="M22.352 194.352h82.687v82.687H22.352z" color="#000" font-family="sans-serif" font-weight="400" overflow="visible"/>
  <g fill="none" stroke="#f6f5f4" stroke-width="8" color="#000">
   <path d="M84 256l24 24M84 216l24-24M44 256l-24 24M44 216l-24-24M44 216h40v40H44z" overflow="visible"/>
   <path d="M20 192h88v88H20z" overflow="visible"/>
  </g>
  <path fill="#d5d3cf" d="M98.5 194v2h-69v-2z"/>
  <path fill="#d5d3cf" d="M120 192c0 6.627-5.373 12-12 12-1.85 0-3.222-.095-5.165-1.166-1.092-1.726-3.55-4.584-5.668-5.666C96.096 195.224 96 193.85 96 192c0-6.627 5.373-12 12-12s12 5.373 12 12z" color="#000" overflow="visible"/>
  <path fill="#d5d3cf" d="M110 203h2v69h-2z"/>
  <circle fill="#d5d3cf" cx="108" cy="280" r="12" color="#000" overflow="visible"/>
  <path fill="#d5d3cf" d="M79 258v2H49v-2zM99.604 274.425l-1.414 1.415-15-15 1.415-1.415zM103.058 199.793l1.414 1.414-15 15-1.414-1.414z"/>
  <circle fill="url(#b)" cx="108" cy="190" r="12" color="#000" overflow="visible"/>
  <path fill="#d5d3cf" d="M86 222h2v26h-2zM79 218v2H49v-2z"/>
  <circle fill="#d5d3cf" cx="84" cy="216" r="8" color="#000" overflow="visible"/>
  <path fill="#d5d3cf" d="M98.5 282v2h-69v-2z"/>
  <circle fill="url(#c)" cx="108" cy="278" r="12" color="#000" overflow="visible"/>
  <path fill="#d5d3cf" d="M92 256c0 .666 0 1-.235 1.932-1.165.59-4.765 4.542-5.787 5.822-.502.246-1.295.246-1.978.246a8 8 0 1 1 8-8z" color="#000" overflow="visible"/>
  <circle fill="url(#d)" cx="84" cy="254" r="8" color="#000" overflow="visible"/>
  <circle fill="url(#e)" cx="84" cy="214" r="8" color="#000" overflow="visible"/>
  <path fill="#d5d3cf" d="M22 203h2v69h-2z"/>
  <circle fill="#d5d3cf" cx="20" cy="280" r="12" color="#000" overflow="visible"/>
  <path fill="#d5d3cf" d="M46 222h2v26h-2z"/>
  <circle fill="#d5d3cf" cx="44" cy="216" r="8" color="#000" overflow="visible"/>
  <path fill="#d5d3cf" d="M43.586 259.586L45 261l-15 15-1.414-1.414z"/>
  <path fill="#d5d3cf" d="M7.912 192c0 6.627 5.372 12 12 12 1.849 0 3.222-.095 5.165-1.166 1.092-1.726 3.55-4.584 5.668-5.666 1.071-1.944 1.167-3.318 1.167-5.168 0-6.627-5.373-12-12-12-6.628 0-12 5.373-12 12z" color="#000" overflow="visible"/>
  <path fill="#d5d3cf" d="M40.077 214.953l-1.414 1.415-15-15 1.415-1.414z"/>
  <circle fill="url(#f)" cx="20" cy="190" r="12" color="#000" overflow="visible"/>
  <circle fill="url(#g)" cx="20" cy="278" r="12" color="#000" overflow="visible"/>
  <circle fill="url(#h)" cx="44" cy="214" r="8" color="#000" overflow="visible"/>
  <path fill="#d5d3cf" d="M36 256c0 .666 0 1 .235 1.932 1.165.59 4.765 4.542 5.787 5.822.502.246 1.295.246 1.978.246a8 8 0 1 0-8-8z" color="#000" overflow="visible"/>
  <circle fill="url(#i)" cx="44" cy="254" r="8" color="#000" overflow="visible"/>
 </g>
</svg>
