<svg height="64" width="64" xmlns="http://www.w3.org/2000/svg">
  <path d="m4.00042 56.000075v1.99997c0 1.661975 1.3379799 2.999955 2.999955 2.999955h49.99925c1.661975 0 2.999955-1.33798 2.999955-2.999955v-1.99997c0 1.661975-1.33798 2.999955-2.999955 2.999955h-49.99925c-1.6619751 0-2.999955-1.33798-2.999955-2.999955z" opacity=".2"/>
  <path d="m6.800378 4.00087c-.7755884 0-1.4763779.3113953-1.9823703.8175877l27.1815923 27.1815923 27.181592-27.1815923c-.505992-.5065924-1.205982-.8179877-1.98197-.8179877h-50.399244z" fill="#4987d7"/>
  <path d="m6.800378 60.00003c-.7755884 0-1.4763779-.311995-1.9823703-.817988l27.1815923-27.181592 27.181592 27.181592c-.505992.505993-1.205982.817988-1.98197.817988h-50.399244z" fill="#a45390"/>
  <path d="m59.99958 6.800828c0-.7755884-.311475-1.4762979-.817568-1.9823903l-27.181592 27.1815923 27.181592 27.181592c.505993-.505992.817988-1.205982.817988-1.98197v-50.399244z" fill="#6db832"/>
  <path d="m4.00042 6.800828c0-.7755884.3114753-1.4762979.8175677-1.9823903l27.1815923 27.1815923-27.1815923 27.181592c-.5065924-.505992-.8179877-1.205982-.8179877-1.98197v-50.399244z" fill="#c2352a"/>
  <path d="m34.544922 9.0019531c-1.180009 0-2.212582.1429119-3.09961.4277344-.878947.2766891-1.63672.6637505-2.271484 1.1601565-.626617.488272-1.147467 1.065112-1.5625 1.732422-.406887.66727-.732419 1.091806-.976562 1.873046-.235996.77311-.40235 1.583354-.5 2.429688-.089518.846294-.134766 1.696301-.134766 2.550781h.002c0 1.34318.159234 2.506249.476563 3.490235.325329.977318.7668 1.787029 1.328125 2.429687.570658.642656 1.237964 1.122124 2.001953 1.439453.765275.309328 1.588097.464844 2.46675.464844.895987 0 1.701359-.138067 2.416015-.414062.716136-.284822 1.32748-.691739 1.832032-1.220704.504539-.537099.889647-1.188163 1.158203-1.953125.276689-.764896.416015-1.631197.416015-2.599609 0-.90332-.113934-1.704441-.341797-2.404297-.22785-.699856-.556967-1.390954-.988281-1.871094-.423167-.48014-.944016-.845381-1.5625-1.097656-.618484-.252277-1.314796-.378906-2.08789-.378906-.48014 0-.91602.05241-1.306641.158203-.382488.105798-.727874.252283-1.037109.439453-.30925.179037-.582364.499356-.81836.759766-.227863.252276-.423179.52539-.585937.818359h-.146485c.04069-.830121.147469-1.587895.31836-2.271484.179037-.68359.475591-.968759.890625-1.457032.415033-.488273.97559-.868162 1.683593-1.136718.708016-.27669 1.612314-.414063 2.710938-.414063.349928 0 .695314.02344 1.037109.07227.349928.04069.679046.09863.988281.171875v-3.0156251c-.154623-.032547-.328133-.061525-.523437-.085937-.195317-.024413-.399745-.040698-.611328-.048828-.20345-.016279-.405924-.027026-.609375-.035156-.20345-.00813-.391609-.013672-.5625-.013672zm-2.294922 9.0507809c.740549 0 1.290377.25326 1.648438.757813.366207.496419.548828 1.180021.548828 2.050781 0 .537099-.05794 1.000004-.171875 1.390625-.105785.390621-.259441.716153-.462891.976563-.195304.252263-.430342.444007-.707031.574218-.268556.122067-.570649.183594-.904297.183594-.406901 0-.764984-.10319-1.074219-.30664-.301102-.203452-.557948-.467454-.769531-.792969-.203437-.333649-.357093-.704427-.462891-1.111328-.09765-.415033-.146484-.829107-.146484-1.244141 0-.301102.05599-.597656.169922-.890625.122065-.292969.293941-.558925.513672-.794922.21973-.236009.483733-.425788.792968-.572265.309249-.146478.65105-.220704 1.025391-.220704zm12.75 6.947266v9.003906l.855469.806641c.154625-.04883.339198-.09408.550781-.134766.211583-.04883.43034-.09408.658203-.134765.235997-.04069.471035-.07325.707031-.09766.244143-.02441.472011-.03516.683594-.03516 1.163663 0 2.022793.231454 2.576172.695313.561511.455753.841797 1.12306.841797 2.001953 0 .984652-.283858 1.704429-.853516 2.160156-.569631.44758-1.399757.671875-2.490234.671875-.366195 0-.753255-.02897-1.160156-.08594-.406887-.0651-.813803-.14649-1.220703-.24414-.398754-.105776-.785816-.22688-1.160157-.365225-.374341-.146477-.703458-.302086-.988281-.464844v3.259765c.293329.162665.619234.304451.976562.425782.366661.122665.749777.219638 1.148438.292968.406661.08133.829538.143594 1.269531.183594.43866.04133.882085.06055 1.330078.06055 1.12265 0 2.115863-.142405 2.978516-.427734.870721-.284822 1.597669-.691739 2.183594-1.220704.585925-.537098 1.030929-1.188163 1.332031-1.953124.301102-.773163.451172-1.642917.451172-2.611329 0-.878933-.139327-1.656588-.416016-2.332031-.276689-.683576-.658211-1.253257-1.146484-1.708984-.488286-.455727-1.06154-.801113-1.720703-1.03711-.65915-.235999-1.371757-.355471-2.136719-.355471v.002c-.545245 0-.991868.02898-1.341797.08594-.341795.05696-.643888.112952-.904297.169922l.292969-3.611378h5.703125v-3zm-31.005859.09375c-.716136 0-1.363616.07422-1.941407.220703-.577791.138344-1.105798.324551-1.585937.560547-.4801396.236011-.9196055.509123-1.3183595.818359-.398754.301102-.7822296.418305-1.1484375.751953l2.050781 2.431641c.651031-.585925 1.273117-1.036134 1.867188-1.353515.594058-.317382 1.212572-.476563 1.855469-.476563.610351 0 1.095064.166351 1.453124.5.366207.333648.548829.802092.548829 1.404297 0 .545245-.08497 1.053397-.25586 1.52539-.170904.471994-.411468.936852-.720703 1.392579-.309235.455713-.678062.922204-1.109375 1.402343-.431301.480126-.912441 1.006514-1.441406 1.576172l-4.1992189 4.728516v2.423828h11.9746099v-.002-2.974609h-7.273438v-.169922l2.146484-2.361328c.63475-.626617 1.229825-1.241546 1.783204-1.84375.561525-.610351 1.053395-1.219742 1.476562-1.830079.423167-.618484.75781-1.246108 1.001953-1.880859.244129-.642924.365235-1.313816.365235-2.013672 0-.773095-.130217-1.469406-.390626-2.08789-.252276-.618471-.617516-.943688-1.097656-1.375-.480126-.439401-1.062504-.775676-1.746094-1.011672-.675496-.235996-1.44044-.355469-2.294921-.355469zm12.005859 16.083984v2.822266h8.203125l-6.347656 15h.002 3.941406l6.201125-15.453125v-2.369141z" opacity=".2"/>
  <g fill="#fff">
    <path d="m34.544922 8.0019531c-1.180009 0-2.212582.1429119-3.09961.4277344-.878947.2766891-1.63672.6637502-2.271484 1.1601563-.626617.4882722-1.147467 1.0651122-1.5625 1.7324222-.406887.66727-.732419 1.091806-.976562 1.873046-.235996.77311-.40235 1.583354-.5 2.429688-.089518.846294-.134766 1.696301-.134766 2.550781h.001953c0 1.34318.159234 2.506249.476563 3.490235.325329.977318.7668 1.787029 1.328125 2.429687.570658.642656 1.237964 1.122124 2.001953 1.439453.765322.309328 1.588144.464844 2.466797.464844.895987 0 1.701359-.138067 2.416015-.414062.716136-.284822 1.32748-.691739 1.832032-1.220704.504539-.537099.889647-1.188163 1.158203-1.953125.276689-.764896.416015-1.631197.416015-2.599609 0-.90332-.113934-1.704441-.341797-2.404297-.22785-.699856-.556967-1.390954-.988281-1.871094-.423167-.48014-.944016-.845381-1.5625-1.097656-.618484-.252277-1.314796-.378906-2.08789-.378906-.48014 0-.91602.052405-1.306641.158203-.382488.105798-.727874.252283-1.037109.439453-.30925.179037-.582364.499356-.81836.759766-.227863.252276-.423179.52539-.585937.818359h-.146485c.040693-.830121.147469-1.587895.31836-2.271484.179037-.68359.475591-.968759.890625-1.457032.415033-.488273.97559-.868162 1.683593-1.136718.708016-.27669 1.612314-.414063 2.710938-.414063.349928 0 .695314.023436 1.037109.072266.349928.040692.679046.098635.988281.171875v-3.0156251c-.154623-.032547-.328133-.0615245-.523437-.0859375-.195317-.024413-.399745-.0406982-.611328-.0488282-.20345-.0162789-.405924-.0270262-.609375-.0351562-.20345-.00813-.391609-.0136719-.5625-.0136719zm-2.294922 9.0507809c.740549 0 1.290377.25326 1.648438.757813.366207.496419.548828 1.180021.548828 2.050781 0 .537099-.057944 1.000004-.171875 1.390625-.105785.390621-.259441.716153-.462891.976563-.195304.252263-.430342.444007-.707031.574218-.268556.122067-.570649.183594-.904297.183594-.406901 0-.764984-.10319-1.074219-.30664-.301102-.203452-.557948-.467454-.769531-.792969-.203437-.333649-.357093-.704427-.462891-1.111328-.097648-.415033-.146484-.829107-.146484-1.244141 0-.301102.055991-.597656.169922-.890625.122065-.292969.293941-.558925.513672-.794922.21973-.236009.483733-.425788.792968-.572265.309249-.146478.65105-.220704 1.025391-.220704zm12.75 6.947266v9.003906l.855469.806641c.154625-.048828.339198-.094076.550781-.134766.211583-.048828.43034-.094075.658203-.134765.235997-.04069.471035-.073247.707031-.097657.244143-.02441.472011-.035156.683594-.035156 1.163663 0 2.022793.231454 2.576172.695313.561511.455753.841797 1.12306.841797 2.001953 0 .984652-.283858 1.704429-.853516 2.160156-.569631.44758-1.399757.671875-2.490234.671875-.366195 0-.753255-.028968-1.160156-.085938-.406887-.065104-.813803-.14649-1.220703-.24414-.398754-.105785-.785816-.226889-1.160157-.365234-.374341-.146477-.703458-.302086-.988281-.464844v3.259765c.293329.162665.619234.304451.976562.425782.366661.122665.749777.219638 1.148438.292968.406661.081331.829538.143594 1.269531.183594.43866.04133.882085.060547 1.330078.060547 1.12265 0 2.115863-.142405 2.978516-.427734.870721-.284822 1.597669-.691739 2.183594-1.220704.585925-.537098 1.030929-1.188163 1.332031-1.953124.301102-.773163.451172-1.642917.451172-2.611329 0-.878933-.139327-1.656588-.416016-2.332031-.276689-.683576-.658211-1.253257-1.146484-1.708984-.488286-.455727-1.06154-.801113-1.720703-1.03711-.65915-.235996-1.371757-.355468-2.136719-.355468v.001953c-.545245 0-.991868.028977-1.341797.085937-.341795.056959-.643888.112952-.904297.169922l.292969-3.611328h5.703125v-3zm-31.005859.09375c-.716136 0-1.363616.074225-1.941407.220703-.577791.138344-1.105798.324551-1.585937.560547-.4801396.236011-.9196055.509123-1.3183595.818359-.398754.301102-.7822296.418305-1.1484375.751953l2.050781 2.431641c.651031-.585925 1.273117-1.036134 1.867188-1.353515.594058-.317382 1.212572-.476563 1.855469-.476563.610351 0 1.095064.166351 1.453124.5.366207.333648.548829.802092.548829 1.404297 0 .545245-.084969 1.053397-.25586 1.52539-.170904.471994-.411468.936852-.720703 1.392579-.309235.455713-.678062.922204-1.109375 1.402343-.431301.480126-.912441 1.006514-1.441406 1.576172l-4.1992189 4.728516v2.423828h11.9746099v-.001953-2.974609h-7.273438v-.169922l2.146484-2.361328c.63475-.626617 1.229825-1.241546 1.783204-1.84375.561525-.610351 1.053395-1.219742 1.476562-1.830079.423167-.618484.75781-1.246108 1.001953-1.880859.244129-.642924.365235-1.313816.365235-2.013672 0-.773095-.130217-1.469406-.390626-2.08789-.252276-.618471-.617516-.943688-1.097656-1.375-.480126-.439448-1.062504-.775723-1.746094-1.011719-.675496-.235996-1.44044-.355469-2.294921-.355469zm12.005859 16.083984v2.822266h8.203125l-6.347656 15h.001953 3.941406l6.201172-15.453125v-2.369141z"/>
    <path d="m7 4c-1.6619751 0-3 1.3380249-3 3v1c0-1.6619751 1.3380249-3 3-3h50c1.661975 0 3 1.3380249 3 3v-1c0-1.6619751-1.338025-3-3-3z" opacity=".1"/>
  </g>
</svg>
