<svg height="128" viewBox="0 0 33.866666 33.866668" width="128" xmlns="http://www.w3.org/2000/svg">
  <g transform="translate(0 -263.13332)">
    <path d="m19.695438 264.72082c-7.652994 0-13.8570309 6.20404-13.8570348 13.85704.00295.074.011218.24565.01757.37052h-2.4163899a17.636154 17.636154 0 0 0 17.6319987 17.52244 17.636154 17.636154 0 0 0 .136942-.007v-10.33271a7.5583515 7.5583515 0 0 1 -7.267773-7.1825c.161974-3.2959 2.807164-5.9945 6.106087-6.07405v.00051c.0726-.004.284371-.0193.357084.008 2.782909-.00001 5.003312 2.26691 5.003312 5.04982-.002.0578-.0048.11543-.0088.17311h5.601208c-.0019-.19649-.009-.39299-.02119-.58911-.02666-.377-.07227-.75253-.136424-1.12499-.06435-.37248-.147349-.74117-.248563-1.10536-.101076-.36429-.220141-.72353-.357084-1.07591-.137012-.35229-.291526-.69771-.463021-1.03456-.17132-.33674-.359206-.6644-.563274-.98237-.20428-.31819-.424355-.62622-.659392-.92242-.234974-.29605-.484918-.57999-.748274-.85111-.263334-.27118-.5398-.52903-.828889-.77257-.2892-.24356-.590713-.4728-.902788-.68626-.311918-.2133-.634185-.41059-.965833-.59169-.331758-.18127-.67241-.34576-1.020609-.493-.348088-.14724-.703487-.27684-1.064535-.3886-.361201-.11175-.727569-.20549-1.098124-.28061-.370434-.0751-.744268-.13179-1.120345-.1695-.207567-.0164-.535841-.0423-.754476-.0486v-2.25051c-.117035-.007-.234215-.0132-.3514-.0176zm5.703011 13.38471c-.08182 2.26964-1.922913 4.10673-4.189925 4.24315v3.71812c.156618-.00073.31347-.006.469739-.017.251338-.0178.501521-.0482.749825-.091.248314-.0428.494103-.098.736906-.16536.242807-.0674.482402-.14643.717269-.23772.234967-.0913.465203-.19473.68988-.30902.224615-.11431.443178-.23952.655257-.37569.21191-.13631.416671-.28299.613916-.43977.197479-.15659.387067-.32314.567924-.49867.180673-.17551.35244-.35976.514699-.55242.162486-.19285.315444-.39391.457851-.60203.142189-.20784.274063-.4224.394808-.64338.120851-.22123.230511-.44838.328663-.68057.09805-.23207.184499-.46883.258897-.70952.0745-.2408.136473-.48522.186553-.73226.05016-.24695.08792-.49652.113173-.74724.02503-.25067.03784-.50255.03772-.75447-.0011-.13493-.0061-.26943-.01447-.40411z" fill="#030303" opacity=".2"/>
    <path d="m20.046911 272.34524.103353-5.86837-.105937-.0145z"/>
    <path d="m19.999698 266.60248.0471 5.74294c.0726-.004.284596-.0191.357309.008 2.782909-.00001 5.003053 2.26674 5.003053 5.04965-.002.0578-.0049.11553-.0089.17321h5.601349c-.0019-.19649-.009-.3929-.02116-.58902-.02666-.377-.07215-.75244-.136307-1.1249-.06435-.37248-.147286-.74151-.2485-1.1057-.101075-.36429-.220307-.7233-.357251-1.07568-.13701-.35229-.291552-.69751-.463047-1.03436-.17132-.33674-.359365-.66471-.563432-.98268-.20428-.31819-.424351-.62597-.659387-.92217-.234975-.29605-.484607-.58017-.747962-.85129-.263333-.27118-.540064-.52903-.829155-.77257-.289199-.24356-.590401-.4725-.902476-.68596-.311918-.2133-.634305-.41087-.965953-.59197-.331758-.18127-.672375-.34582-1.020574-.49306-.348088-.14724-.703322-.27699-1.06437-.38875-.361201-.11175-.727767-.20536-1.098322-.28048-.370434-.0751-.74439-.13157-1.120467-.16928-.216651-.0171-.569975-.0458-.787249-.0504z" fill="#db4534"/>
    <path d="m19.695452 264.19165c-7.652995 0-13.856975 6.20397-13.8569789 13.85697.00378.0949.016815.37999.022545.47475l8.0795549-.10402c.161974-3.2959 2.8073-5.99443 6.106223-6.07398v-8.13606c-.117035-.007-.234159-.0133-.351344-.0177z" fill="#4480f6"/>
    <path d="m3.4395833 278.41917a17.636154 17.636154 0 0 0 17.6322157 17.52248 17.636154 17.636154 0 0 0 .136799-.007v-10.33285a7.5583516 7.5583516 0 0 1 -7.268025-7.1824z" fill="#f3b500"/>
    <path d="m25.398258 277.57645c-.08182 2.26964-1.922648 4.10657-4.18966 4.24299v3.71816c.156618-.00073.313175-.006.469444-.0168.251338-.0178.501627-.0482.749931-.091.248314-.0428.494333-.098.737136-.16533.242807-.0674.482093-.14688.71696-.23817.234967-.0913.46522-.19425.689897-.30854.224615-.11431.443372-.23978.655451-.37595.21191-.13631.416871-.28313.614116-.43991.197479-.15659.387003-.32296.56786-.49849.180673-.17551.35246-.35994.514717-.5526.162488-.19285.315224-.3937.457633-.60182.142189-.20784.273903-.42265.394649-.64363.12085-.22123.230557-.44836.32871-.68055.09805-.23207.184435-.46889.258834-.70958.0745-.2408.136908-.48518.18699-.73222.05016-.24695.08793-.49626.113179-.74698.02503-.25067.03751-.50244.03739-.75436-.0011-.13493-.0059-.26981-.01427-.40449z" fill="#d7d7d7"/>
    <path d="m5.9010049 276.81112c-.036205.40837-.062528.81986-.062528 1.23765.00295.0741.011216.24566.01757.37052h8.0847781z" opacity=".2"/>
    <path d="m21.507804 266.61536c-.235097-.0387-.469282-.0832-.706417-.10697-.208261-.0164-.538463-.0419-.75706-.0481v.002-.002l.0026 5.88491z" opacity=".2"/>
    <path d="m28.638119 278.9066c.0071-.0571.02007-.11328.02584-.17053.02503-.25067.03785-.50256.03773-.75448-.0011-.13493-.0061-.26995-.01447-.40463l-3.289203-.00051s2.537448 1.02986 3.240113 1.33015z" opacity=".2"/>
    <path d="m21.208598 285.53772.0248.008.0036-.009c-.0095.00008-.01894.00099-.02842.001z"/>
    <path d="m22.992468 281.31214c-.06315.0328-.11964.0761-.184485.10593-.246327.11343-.504591.20514-.772046.27285-.258444.0654-.526041.10634-.799434.12454-.0181.97681-.02091 3.67348-.02791 3.72226.0095-.00005.01893-.00096.02842-.001z" opacity=".2"/>
  </g>
</svg>
