<svg height="128" viewBox="0 0 33.87 33.87" width="128" xmlns="http://www.w3.org/2000/svg" xmlns:xlink="http://www.w3.org/1999/xlink">
  <clipPath id="b-3"/>
  <g transform="translate(0 -263.13332)">
    <g transform="translate(.942519 9.496073)">
      <path d="m15.858523 254.82786c-.374662.00001-.749206.0133-1.122929.0398-.527891.0374-1.053581.10125-1.575098.1912-.521715.0899-1.038609.20576-1.548743.34727-.509984.1417-1.012562.30883-1.505851.50074-.4931555.19174-.9764162.40802-1.4479726.64803-.4717646.24009-.9312257.50362-1.3766612.78961-.4454091.28593-.8762394.59397-1.2908767.92294-.4146064.32907-.8124951.67866-1.1921752 1.04748-.3796611.36878-.7406412.75632-1.0815878 1.16117-.340899.40473-.6613485.82625-.9601483 1.26298-.086322.13617-.170564.27364-.2526977.41237-.018841.27006 6.9397734 12.24262 7.0525348 12.10819l6.3022057-10.77287h14.139187c-.237679-.46631-.498274-.92058-.78083-1.36115-.285935-.44541-.593967-.87624-.922941-1.29088-.329066-.41461-.678663-.8125-1.04748-1.19218-.368785-.37966-.756326-.74064-1.161171-1.08158-.404725-.3409-.826242-.66135-1.262972-.96015-.436854-.29885-.88838-.57567-1.352888-.82941-.464477-.25381-.941358-.48423-1.428854-.6904-.487572-.20613-.985148-.38774-1.490865-.54415-.505591-.15646-1.01869-.28754-1.537374-.39274-.518685-.10517-1.042304-.18433-1.568896-.23719-.526656-.0528-1.055622-.0792-1.584916-.0791z" fill="#db4437"/>
      <path d="m2.5047649 262.16488a15.809427 15.809427 0 0 0 -.5469779.89208 15.809427 15.809427 0 0 0 -.6870956 1.42298 15.809427 15.809427 0 0 0 -.54178832 1.4842 15.809427 15.809427 0 0 0 -.39129172 1.53143 15.809427 15.809427 0 0 0 -.23612417 1.56258 15.809427 15.809427 0 0 0 -.07888089 1.57814 15.809427 15.809427 0 0 0 .03944045 1.11835 15.809427 15.809427 0 0 0 .19045614 1.5688 15.809427 15.809427 0 0 0 .34614258 1.5418 15.809427 15.809427 0 0 0 .49819623 1.49978 15.809427 15.809427 0 0 0 .6455793 1.44218 15.809427 15.809427 0 0 0 .786216 1.37107 15.809427 15.809427 0 0 0 .9195872 1.28546 15.809427 15.809427 0 0 0 1.0425793 1.18684 15.809427 15.809427 0 0 0 1.1567494 1.07735 15.809427 15.809427 0 0 0 1.2579445.95643 15.809427 15.809427 0 0 0 1.3472065.82619 15.809427 15.809427 0 0 0 1.422973.68709 15.809427 15.809427 0 0 0 1.4842081.54178 15.809427 15.809427 0 0 0 1.531435.39129 15.809427 15.809427 0 0 0 1.562571.23613 15.809427 15.809427 0 0 0 .906613.0452l6.9488-12.15239h-12.5529867z" fill="#0f9d58"/>
      <path d="m15.160504 286.41203c.223955.016.477552.0271.701987.0336.373761.00006.747406-.0131 1.120235-.0395.526669-.0374 1.051139-.10103 1.571447-.19078.520263-.0898 1.035713-.20547 1.544417-.34672.508777-.1412 1.010173-.30775 1.502311-.49904.492014-.19134.974152-.40717 1.444609-.64667.470641-.23945.929011-.5023 1.373392-.78755.444296-.28538.87404-.59281 1.287621-.92113.413439-.32808.810218-.67663 1.188851-1.04434.378819-.368.738992-.75472 1.079168-1.15871.340155-.40379.659904-.82434.958049-1.26007.298182-.43575.574384-.88614.827571-1.34948.253034-.46335.482739-.93907.688254-1.42537.205568-.48622.386696-.98241.542705-1.48672.156146-.50448.28696-1.01646.391951-1.53401.104884-.51747.183824-1.03986.236522-1.56522.05267-.52529.07905-1.05288.07902-1.5808.000054-.37376-.01312-.74741-.03951-1.12024-.03735-.52667-.101027-1.05114-.190776-1.57145-.08976-.52026-.20548-1.03571-.346728-1.54441-.141197-.50878-.307751-1.01017-.499038-1.50231-.191343-.49201-.407169-.97415-.64667-1.44461-.01449-.0253-.02904-.0506-.04367-.0759l-14.266902.0717 6.443984 10.83734z" fill="#ffcd40"/>
      <circle cx="15.859" cy="270.637" fill="#f1f1f1" r="7.216"/>
      <circle cx="15.942" cy="270.566" fill="#2f3943" r="5.773"/>
    </g>
    <g clip-path="url(#b-3)" transform="matrix(.18039773 0 0 .18039773 .509094 272.2404)">
      <path d="m61.195312 123.85938-.080078.14062h2.884766a60 60 0 0 1 -2.804688-.14062z" fill="none" transform="matrix(1.4666667 0 0 1.4666667 2.133333 2.133333)"/>
    </g>
    <path d="m64.816406 41.955078c-12.698373 0-23.007812 9.869271-23.007812 22.023438 0 12.154128 10.309439 22.021484 23.007812 22.021484h17.701172 36.656252c.54017-1.375907 1.08258-2.751605 1.51953-4.164062.59016-1.906697 1.0856-3.842734 1.48242-5.798829.39641-1.955792.69536-3.930403.89453-5.916015.19907-1.985348.29699-3.979321.29688-5.97461.0002-1.412636-.0487-2.8233-.14844-4.232422-.14117-1.990562-.38149-3.972927-.7207-5.939453-.33925-1.966337-.7767-3.915245-1.31055-5.83789-.53366-1.922948-1.16374-3.817678-1.88672-5.677735-.06669-.171482-.15635-.333063-.22461-.503906h-53.349608z" fill="#2f3943" fill-opacity=".990476" transform="matrix(.26458333 0 0 .26458333 0 263.13332)"/>
    <path d="m16.595755 282.80457v-5.58342h2.057895q.701916 0 1.244305.23531.542393.23529.857456.6381.315067.40281.470606.88936.155537.48657.155537 1.02895 0 .3988-.08774.77768-.08774.37889-.295123.74978-.207383.37091-.518461.64609-.311074.27518-.78966.44667-.478578.17148-1.068827.17148zm1.212403-1.15656h.941208q.68596 0 1.028945-.49053.342983-.49056.342983-1.14461 0-.65406-.331019-1.14861-.331016-.49452-.953172-.49452h-1.028945zm6.301302 1.25227q-.901327 0-1.419789-.56631-.51846-.56631-.51846-1.57132 0-.9811.52245-1.55538.522448-.57431 1.415799-.57431.813585 0 1.32407.49452.510484.49455.510484 1.43575 0 .39083-.0319.59823h-2.608261q.01594.38285.239289.57031.223338.18744.566321.18744.558342 0 .917278-.43073l.670012.67q-.61418.7418-1.587289.7418zm-.797633-2.60824h1.523479q-.08774-.67799-.773704-.67799-.311079 0-.510487.17946-.199409.17947-.239288.49853zm5.93439 2.51253h-1.252285l-1.491572-4.07588h1.204425l.805611 2.27324q.04785.11968.111681.38287.06381-.26323.111658-.38287l.797633-2.27324h1.20443z" fill="#faf8f6" fill-rule="evenodd"/>
  </g>
</svg>
