<svg fill="none" height="128" viewBox="0 0 128 128" width="128" xmlns="http://www.w3.org/2000/svg" xmlns:xlink="http://www.w3.org/1999/xlink">
  <linearGradient id="paint0_linear" gradientUnits="userSpaceOnUse" x1="116" x2="12" y1="117.999" y2="117.999">
    <stop offset="0" stop-color="#d5d3cf"/>
    <stop offset=".038" stop-color="#e3e2df"/>
    <stop offset=".077" stop-color="#c0bfbc"/>
    <stop offset=".923" stop-color="#c0bfbc"/>
    <stop offset=".962" stop-color="#e3e2df"/>
    <stop offset="1" stop-color="#d5d3cf"/>
  </linearGradient>
  <path d="m108 68h-88c-4.4183 0-8 3.5817-8 8v32c0 4.418 3.5817 8 8 8h88c4.418 0 8-3.582 8-8v-32c0-4.4183-3.582-8-8-8z" fill="url(#paint0_linear)"/>
  <path d="m20 10c-4.432 0-8 3.568-8 8v42 42c0 4.432 3.568 8 8 8h44 44c4.432 0 8-3.568 8-8v-42-42c0-4.432-3.568-8-8-8z" fill="#2ec27e"/>
  <path d="m30.2028 43c-2.5526 0-4.6077 2.055-4.6077 4.6077v26.7871c0 2.5526 2.0551 4.6052 4.6077 4.6052h45.5952c2.5526 0 4.6077-2.0526 4.6077-4.6052v-26.7871c0-2.5527-2.0551-4.6077-4.6077-4.6077zm70.2572 4.275c-.6178.0038-1.226.1535-1.775.437l-15.8414 8.1726v10.9458l15.5435 7.2293c.6372.2963 1.3387.4276 2.0399.3817.701-.0458 1.38-.2674 1.973-.6442s1.082-.8968 1.421-1.5121c.34-.6153.519-1.3062.522-2.0089l.062-19.0663c.002-.5181-.099-1.0313-.297-1.5102-.198-.4788-.488-.9138-.855-1.2796-.367-.3659-.803-.6555-1.282-.852s-.993-.2961-1.511-.2931zm-58.6883 3.061h22.8795c5.7418 0 10.4244 4.6826 10.4244 10.4244s-4.6826 10.4244-10.4244 10.4244-10.4219-4.6826-10.4219-10.4244c0-3.1238 1.3921-5.9267 3.5799-7.84h-9.1955c2.1887 1.9133 3.5823 4.716 3.5823 7.84 0 5.7418-4.6826 10.4244-10.4243 10.4244-5.7418 0-10.4219-4.6826-10.4219-10.4244s4.6801-10.4244 10.4219-10.4244zm0 2.5621c-4.3565 0-7.8599 3.5058-7.8599 7.8623s3.5034 7.8599 7.8599 7.8599c4.3564 0 7.8623-3.5034 7.8623-7.8599 0-4.2031-3.2658-7.6051-7.408-7.84h-.4543zm22.8795 0v.0223h-.4543c-4.1421.2349-7.4056 3.6369-7.4056 7.84 0 4.3565 3.5034 7.8599 7.8599 7.8599s7.8623-3.5034 7.8623-7.8599-3.5058-7.8623-7.8623-7.8623z" opacity=".2"/>
  <path d="m29.2028 42c-2.5526 0-4.6077 2.055-4.6077 4.6077v26.7871c0 2.5526 2.0551 4.6052 4.6077 4.6052h45.5952c2.5526 0 4.6077-2.0526 4.6077-4.6052v-26.7871c0-2.5527-2.0551-4.6077-4.6077-4.6077zm70.2572 4.275c-.6178.0038-1.226.1535-1.775.437l-15.8414 8.1726v10.9458l15.5435 7.2293c.6372.2963 1.3387.4276 2.04.3817.7009-.0458 1.3799-.2674 1.9729-.6442s1.082-.8968 1.421-1.5121c.34-.6153.519-1.3062.522-2.0089l.062-19.0663c.002-.5181-.099-1.0313-.297-1.5102-.198-.4788-.488-.9138-.855-1.2796-.367-.3659-.803-.6555-1.282-.852s-.9929-.2961-1.511-.2931zm-58.6883 3.061h22.8795c5.7418 0 10.4244 4.6826 10.4244 10.4244s-4.6826 10.4244-10.4244 10.4244-10.4219-4.6826-10.4219-10.4244c0-3.1238 1.3921-5.9267 3.5799-7.84h-9.1955c2.1887 1.9133 3.5823 4.716 3.5823 7.84 0 5.7418-4.6826 10.4244-10.4243 10.4244-5.7418 0-10.4219-4.6826-10.4219-10.4244s4.6801-10.4244 10.4219-10.4244zm0 2.5621c-4.3565 0-7.8599 3.5058-7.8599 7.8623s3.5034 7.8599 7.8599 7.8599c4.3564 0 7.8623-3.5034 7.8623-7.8599 0-4.2031-3.2658-7.6051-7.408-7.84h-.4543zm22.8795 0v.0223h-.4543c-4.1421.2349-7.4056 3.6369-7.4056 7.84 0 4.3565 3.5034 7.8599 7.8599 7.8599s7.8623-3.5034 7.8623-7.8599-3.5058-7.8623-7.8623-7.8623z" fill="#f6f5f4" fill-opacity=".99"/>
</svg>
