<svg enable-background="new" height="128" viewBox="0 0 128 128" width="128" xmlns="http://www.w3.org/2000/svg" xmlns:xlink="http://www.w3.org/1999/xlink">
  <linearGradient id="linearGradient1364">
    <stop offset="0"/>
    <stop offset=".047" stop-color="#424048"/>
    <stop offset=".097" stop-color="#241f31"/>
    <stop offset=".9" stop-color="#241f31"/>
    <stop offset=".95" stop-color="#424048"/>
    <stop offset="1"/>
  </linearGradient>
  <linearGradient id="linearGradient1057" gradientUnits="userSpaceOnUse" x1="62.24999" x2="62.24999" y1="256.25" y2="196.96125">
    <stop offset="0" stop-color="#c0bfbc"/>
    <stop offset="1" stop-color="#f6f5f4"/>
  </linearGradient>
  <linearGradient id="linearGradient1284" gradientUnits="userSpaceOnUse" x1="86.74999" x2="80.74999" y1="279.25" y2="182">
    <stop offset="0" stop-color="#f6f5f4"/>
    <stop offset="1" stop-color="#fff"/>
  </linearGradient>
  <linearGradient id="linearGradient1444-3-9" gradientTransform="matrix(.25 0 0 .24305558 -20.00001 91.56432)" gradientUnits="userSpaceOnUse" x1="177" x2="496" y1="619.964" y2="619.964">
    <stop offset="0" stop-color="#424048"/>
    <stop offset=".047" stop-color="#f6f5f4"/>
    <stop offset=".097" stop-color="#949390"/>
    <stop offset=".9" stop-color="#d5d3cf"/>
    <stop offset=".95" stop-color="#f6f5f4"/>
    <stop offset="1" stop-color="#424048"/>
  </linearGradient>
  <linearGradient id="linearGradient1121" gradientTransform="matrix(.25 0 0 .24305558 -20.00001 91.56432)" gradientUnits="userSpaceOnUse" x1="176" x2="495" xlink:href="#linearGradient1364" y1="799.964" y2="799.964"/>
  <radialGradient id="radialGradient1131" cx="128" cy="199.581" gradientUnits="userSpaceOnUse" r="16">
    <stop offset="0" stop-opacity=".25098"/>
    <stop offset="1" stop-opacity=".031373"/>
  </radialGradient>
  <radialGradient id="radialGradient1133" cx="127.9998720185" cy="199.757523836" gradientUnits="userSpaceOnUse" r="11.005204">
    <stop offset="0" stop-color="#949390"/>
    <stop offset="1" stop-color="#424048"/>
  </radialGradient>
  <linearGradient id="linearGradient1027" gradientTransform="matrix(1 0 0 1.0203748 256.40514 17.535923)" gradientUnits="userSpaceOnUse" x1="64" x2="64" xlink:href="#linearGradient1364" y1="262.5" y2="232"/>
  <linearGradient id="linearGradient1099" gradientUnits="userSpaceOnUse" x1="225.40712" x2="289.40712" y1="-320.40513" y2="-320.40513">
    <stop offset="0" stop-color="#26a269"/>
    <stop offset="1" stop-color="#2ec27e"/>
  </linearGradient>
  <g transform="translate(0 -172)">
    <circle cx="32.5" cy="172" fill="#ac1d2e" opacity=".05" r="0"/>
    <rect fill="url(#linearGradient1121)" height="70" rx="8" width="80" x="24" y="222"/>
    <rect fill="url(#linearGradient1444-3-9)" height="70" rx="8" width="80" x="24" y="216"/>
    <rect fill="url(#linearGradient1284)" height="104" rx="8" ry="8.457" width="80" x="24" y="180"/>
    <g enable-background="new" transform="matrix(.25 0 0 .25 -.00001 225)">
      <circle cx="128" cy="204" fill="url(#radialGradient1131)" r="16"/>
      <circle cx="128" cy="204" fill="url(#radialGradient1133)" r="8"/>
    </g>
    <path d="m41.99999 184c-2.216 0-4 1.784-4 4 0 3.31371-2.68629 6-6 6-2.216 0-4 1.784-4 4v8c0 2.216 1.784 4 4 4 3.31371 0 6 2.68629 6 6-.003 1.47715-.55015 2.90139-1.5376 4-5.92217 6.59263-8.44822 15.13802-8.4624 24 0 19.88225 16.11775 36 36 36s36-16.11775 36-36c-.0159-8.86282-2.5389-17.40831-8.46338-24-.98709-1.09875-1.53421-2.52298-1.53662-4 0-3.31371 2.68629-6 6-6 2.216 0 4-1.784 4-4v-8c0-2.216-1.784-4-4-4-3.31371 0-6-2.68629-6-6 0-2.216-1.784-4-4-4zm22 56a6 6 0 0 1 6 6 6 6 0 0 1 -6 6 6 6 0 0 1 -6-6 6 6 0 0 1 6-6z" fill="#9a9996"/>
    <path d="m41.99999 182c-2.216 0-4 1.784-4 4 0 3.31371-2.68629 6-6 6-2.216 0-4 1.784-4 4v8c0 2.216 1.784 4 4 4 3.31371 0 6 2.68629 6 6-.003 1.47715-.55015 2.90139-1.5376 4-5.92217 6.59263-8.44822 15.13802-8.4624 24 0 19.88225 16.11775 36 36 36s36-16.11775 36-36c-.0159-8.86282-2.5389-17.40831-8.46338-24-.98709-1.09875-1.53421-2.52298-1.53662-4 0-3.31371 2.68629-6 6-6 2.216 0 4-1.784 4-4v-8c0-2.216-1.784-4-4-4-3.31371 0-6-2.68629-6-6 0-2.216-1.784-4-4-4zm22 56a6 6 0 0 1 6 6 6 6 0 0 1 -6 6 6 6 0 0 1 -6-6 6 6 0 0 1 6-6z" fill="url(#linearGradient1057)"/>
  </g>
  <g enable-background="new" transform="matrix(.6 0 0 .56967213 -128.02712 -77.847042)">
    <g fill="#241f31" transform="translate(396.40514 26.917914)">
      <rect height="24" rx="8" width="24" x="-88" y="176"/>
      <rect height="24" rx="8" width="24" x="-88" y="272"/>
      <rect height="24" rx="8" transform="matrix(.70710678 -.70710678 .70710678 .70710678 0 0)" width="24" x="-232.62" y="53.139999"/>
      <rect height="24" rx="8" transform="matrix(.70710678 -.70710678 .70710678 .70710678 0 0)" width="24" x="-232.62" y="149.14"/>
      <rect height="24" rx="8" transform="rotate(-90)" width="24" x="-248" y="-136"/>
      <rect height="24" rx="8" transform="rotate(-90)" width="24" x="-248" y="-40"/>
      <g transform="matrix(-.70710678 -.70710678 .70710678 -.70710678 0 0)">
        <rect height="24" rx="8" width="24" x="-125.14" y="-280.62"/>
        <rect height="24" rx="8" width="24" x="-125.14" y="-184.62"/>
      </g>
    </g>
    <g fill="#57e389" transform="translate(396.40514 21.407123)">
      <rect height="24" rx="8" width="24" x="-88" y="176"/>
      <rect height="24" rx="8" width="24" x="-88" y="272"/>
      <rect height="24" rx="8" transform="matrix(.70710678 -.70710678 .70710678 .70710678 0 0)" width="24" x="-232.62" y="53.139999"/>
      <rect height="24" rx="8" transform="matrix(.70710678 -.70710678 .70710678 .70710678 0 0)" width="24" x="-232.62" y="149.14"/>
      <rect height="24" rx="8" transform="rotate(-90)" width="24" x="-248" y="-136"/>
      <rect height="24" rx="8" transform="rotate(-90)" width="24" x="-248" y="-40"/>
      <g transform="matrix(-.70710678 -.70710678 .70710678 -.70710678 0 0)">
        <rect height="24" rx="8" width="24" x="-125.14" y="-280.62"/>
        <rect height="24" rx="8" width="24" x="-125.14" y="-184.62"/>
      </g>
    </g>
    <path d="m320.40496 211.4064c-26.36753 0-48 22.07323-48 48.97799s21.63247 48.97799 48 48.97799 48-22.07323 48-48.97799-21.63247-48.97799-48-48.97799zm0 24.489c13.39697 0 24 10.81906 24 24.48899s-10.60303 24.489-24 24.489-24-10.81907-24-24.489 10.60303-24.48899 24-24.48899z" fill="url(#linearGradient1027)"/>
    <path d="m320.40528 209.40727c-26.39122 0-48 21.60878-48 48 0 26.39123 21.60878 48 48 48s48-21.60877 48-48c0-26.39122-21.60878-48-48-48zm0 20c15.58242 0 28 12.41758 28 28s-12.41758 28-28 28-28-12.41758-28-28 12.41758-28 28-28z" fill="#57e389"/>
    <path d="m349.40528 257.40727c0 15.98665-13.01335 29-29 29s-29-13.01335-29-29c0-15.98664 13.01335-29 29-29s29 13.01336 29 29zm-5 0c0-13.28444-10.71555-24-24-24-13.28444 0-24 10.71556-24 24 0 13.28445 10.71556 24 24 24 13.28445 0 24-10.71555 24-24z" fill="#5e5c64"/>
    <circle cx="257.40714" cy="-320.40518" fill="none" r="32" stroke="url(#linearGradient1099)" stroke-linecap="square" stroke-linejoin="round" stroke-width="7.999999" transform="rotate(90)"/>
  </g>
</svg>
