<?xml version="1.0" encoding="UTF-8" standalone="no"?>
<svg
   xmlns:dc="http://purl.org/dc/elements/1.1/"
   xmlns:cc="http://creativecommons.org/ns#"
   xmlns:rdf="http://www.w3.org/1999/02/22-rdf-syntax-ns#"
   xmlns:svg="http://www.w3.org/2000/svg"
   xmlns="http://www.w3.org/2000/svg"
   xmlns:xlink="http://www.w3.org/1999/xlink"
   xmlns:sodipodi="http://sodipodi.sourceforge.net/DTD/sodipodi-0.dtd"
   xmlns:inkscape="http://www.inkscape.org/namespaces/inkscape"
   width="128"
   height="128"
   version="1.0"
   id="svg59"
   sodipodi:docname="gtkdialog.svg"
   inkscape:version="0.92.3 (2405546, 2018-03-11)">
  <metadata
     id="metadata63">
    <rdf:RDF>
      <cc:Work
         rdf:about="">
        <dc:format>image/svg+xml</dc:format>
        <dc:type
           rdf:resource="http://purl.org/dc/dcmitype/StillImage" />
        <dc:title></dc:title>
      </cc:Work>
    </rdf:RDF>
  </metadata>
  <sodipodi:namedview
     pagecolor="#ffffff"
     bordercolor="#666666"
     borderopacity="1"
     objecttolerance="10"
     gridtolerance="10"
     guidetolerance="10"
     inkscape:pageopacity="0"
     inkscape:pageshadow="2"
     inkscape:window-width="1920"
     inkscape:window-height="1009"
     id="namedview61"
     showgrid="true"
     inkscape:zoom="6.5234375"
     inkscape:cx="64"
     inkscape:cy="64"
     inkscape:window-x="0"
     inkscape:window-y="34"
     inkscape:window-maximized="1"
     inkscape:current-layer="g57">
    <inkscape:grid
       type="xygrid"
       id="grid855" />
  </sodipodi:namedview>
  <defs
     id="defs15">
    <linearGradient
       id="a">
      <stop
         id="stop2"
         offset="0"
         stop-color="#68676b" />
      <stop
         id="stop4"
         offset=".8"
         stop-color="#424048" />
      <stop
         id="stop6"
         offset="1"
         stop-color="#241f31" />
    </linearGradient>
    <radialGradient
       id="d"
       cx="279.422"
       cy="446.483"
       r="224"
       fx="279.422"
       fy="446.483"
       gradientTransform="matrix(1.34416 .0006 -.00062 1.38763 -121.22 -718.103)"
       gradientUnits="userSpaceOnUse"
       xlink:href="#a" />
    <linearGradient
       id="e"
       x1="43.844"
       x2="-60"
       y1="234"
       y2="234"
       gradientTransform="matrix(1.0015 0 0 .99993 72.09 56.015)"
       gradientUnits="userSpaceOnUse"
       xlink:href="#b" />
    <linearGradient
       id="b">
      <stop
         id="stop11"
         offset="0"
         stop-color="#d5d3cf" />
      <stop
         id="stop13"
         offset=".038"
         stop-color="#e3e2df" />
      <stop
         id="stop15"
         offset=".077"
         stop-color="#c0bfbc" />
      <stop
         id="stop17"
         offset=".923"
         stop-color="#c0bfbc" />
      <stop
         id="stop19"
         offset=".962"
         stop-color="#e3e2df" />
      <stop
         id="stop21"
         offset="1"
         stop-color="#d5d3cf" />
    </linearGradient>
  </defs>
  <g
     transform="translate(0 -172)"
     id="g57">
    <path
       style="fill:#000000;stroke-width:0.59594029;fill-opacity:1;opacity:0.6"
       d="m 63.328125,179.63672 a 0.98653848,0.78878986 0 0 0 -0.646484,0.21289 l -52.13086,28.6543 A 0.98653848,0.78878986 0 0 0 10,209.22266 v 52.3457 l 0.337891,0.59375 52.375,36.64453 0.002,-0.002 a 0.98653848,0.78878986 0 0 0 1.273437,0.0176 L 119.64062,262.17773 A 0.98653848,0.78878986 0 0 0 120,261.56836 v -52.3457 a 0.98653848,0.78878986 0 0 0 -0.58398,-0.73047 L 64.033203,179.83984 a 0.98653848,0.78878986 0 0 0 -0.660156,-0.20312 0.98653848,0.78878986 0 0 0 -0.0332,0 0.98653848,0.78878986 0 0 0 -0.01172,0 z m 0.05078,1.74219 53.755865,27.81054 c -2.5948,1.22041 -52.771811,24.82142 -53.757818,25.28516 l -50.591797,-25.2832 z m 54.646485,29.22265 v 37.94141 l -0.006,-37.93945 z m -106.052735,0.043 50.404297,25.1875 v 60.64258 h -0.002 v -60.64063 z m 56.701172,23.16797 -4.324219,2.03516 v -0.002 z"
       id="path857"
       inkscape:connector-curvature="0" />
    <path
       inkscape:connector-curvature="0"
       style="fill:#f5c211;stroke-width:0.59594029;fill-opacity:1"
       d="m 63.339519,175.63637 a 0.98653848,0.78878986 0 0 0 -0.0117,0.001 0.98653848,0.78878986 0 0 0 -0.646941,0.21127 l -52.130259,28.65561 a 0.98653848,0.78878986 0 0 0 -0.550617,0.71813 v 52.34677 l 0.337138,0.59324 52.376295,36.64357 0.0014,-9.9e-4 a 0.98653848,0.78878986 0 0 0 1.27436,0.0166 L 119.64056,258.178 a 0.98653848,0.78878986 0 0 0 0.35927,-0.60885 v -52.34676 a 0.98653848,0.78878986 0 0 0 -0.58313,-0.73063 L 64.033379,175.83932 a 0.98653848,0.78878986 0 0 0 -0.661264,-0.20191 0.98653848,0.78878986 0 0 0 -0.03253,-10e-4 z m 0.03905,1.7433 53.756091,27.81052 c -2.5948,1.22041 -52.77139,24.81978 -53.757397,25.28352 L 12.784296,205.19124 Z m 54.647751,29.22181 v 50.59619 l -53.676687,35.34364 v -60.69482 z m -106.054284,0.0437 50.404226,25.18778 v 60.64071 L 11.972037,257.21116 Z"
       id="path36" />
    <path
       inkscape:connector-curvature="0"
       d="m 11.972455,206.64486 c 0,0 50.403477,25.18843 50.403477,25.18843 v 60.64037 L 11.972455,257.21171 Z"
       id="path38"
       style="stroke-width:0.59594029;fill:#241f31;fill-opacity:1" />
    <path
       inkscape:connector-curvature="0"
       style="fill:#e01b24;stroke-width:0.59594029;fill-opacity:1"
       d="m 64.348809,231.84767 53.670771,-25.26552 0.008,50.61517 -53.677502,35.34411 z"
       id="path40" />
    <path
       inkscape:connector-curvature="0"
       style="fill:#ffffff;stroke-width:0.59594029"
       d="m 12.784213,205.1917 c 0,0 50.59486,-27.81233 50.59486,-27.81233 l 53.755837,27.8113 -53.757124,25.28291 z"
       id="path42" />
  </g>
</svg>
