<svg enable-background="new" height="128" viewBox="0 0 128 128" width="128" xmlns="http://www.w3.org/2000/svg">
  <g transform="matrix(1.5924867 0 0 1.5924867 317.19707 -172.75314)">
    <path d="m-159.39844 111.31387-.0703.13086c-17.78199.69341-32.06635 15.06338-32.06641 32.80078.00007 17.61713 14.09763 31.88995 31.71094 32.76367v11.52539l2.91406-1.3086c13.26543-5.94939 23.78178-16.62436 29.375-29.92773l-.0488.10742.2207-.4414v-.19922c1.66154-3.97315 2.57013-8.21731 2.57422-12.51953v-.002c-.001-18.17837-14.9754-32.92954-33.37305-32.92968zm1.23633 4.13671c16.19475.00014 29.23526 12.88077 29.23633 28.79297-.004 3.91812-.82031 7.79472-2.39844 11.39258l.01-.0195-.0254.0625c-.004.009-.01.0165-.0137.0254l-.14648.33594v-.0527l.0762-.15234c-4.76178 11.22858-13.42221 20.27048-24.26367 25.96875v-5.90039c0-.18762.004-.31955.004-.49805-.00053-.1785.097-.40702-.21289-1.08593-.15493-.33946-.51426-.76757-.89649-.98633-.38223-.21877-.69249-.26107-.87891-.28125-.37283-.0404-.42308-.0137-.49023-.0137-16.19569.00009-29.23627-12.87971-29.23633-28.79296.00005-15.91327 13.04079-28.79501 29.23633-28.79493zm30.63477 41.83008-.006.0117c.00025-.00057-.00025-.001 0-.002.001-.004.004-.006.006-.01z" fill="#deddda"/>
    <path d="m-158.16211 112.10938c17.2962.00014 31.30355 13.81603 31.30469 30.86132-.004 4.2066-.87969 8.36953-2.57422 12.23047v.002l-.002.004c-5.3856 12.82188-15.5215 23.11838-28.32227 28.85938 0 0 0-8.56347 0-9.43555s.0769-.79689-.40627-.79689c-17.29704.00009-31.30463-13.81496-31.30469-30.86132.00005-17.04637 14.00765-30.86337 31.30469-30.86328z" fill="#18a15f"/>
    <path d="m-174.13143 134.6119v13.66918h7.55385v8.08244a7.4204148 8.2181093 0 0 0 6.11576-8.08244 7.4204148 8.2181093 0 0 0 -.00043-.0137v-13.65549z" fill="#fff"/>
    <path d="m-155.97965 134.6119v13.66919h7.55385v8.08244a7.420415 8.2181094 0 0 0 6.11576-8.08244 7.420415 8.2181094 0 0 0 -.00044-.0137v-13.65549z" fill="#fff"/>
    <path d="m-159.39844 110.04102-.0703.13086c-17.78199.69341-32.06635 15.06338-32.06641 32.80078.00007 17.61713 14.09763 31.88995 31.71094 32.76367v11.52539l2.91406-1.3086c13.26543-5.94939 23.78178-16.62436 29.375-29.92773l-.0488.10742.2207-.4414v-.19922c1.66154-3.97315 2.57013-8.21731 2.57422-12.51953v-.002c-.001-18.17837-14.9754-32.92954-33.37305-32.92968zm1.23633 4.13671c16.19475.00014 29.23526 12.88077 29.23633 28.79297-.004 3.91812-.82031 7.79472-2.39844 11.39258l.01-.0195-.0254.0625c-.004.009-.01.0165-.0137.0254l-.14648.33594v-.0527l.0762-.15234c-4.76178 11.22858-13.42221 20.27048-24.26367 25.96875v-5.90039c0-.18762.004-.31955.004-.49805-.00053-.1785.097-.40702-.21289-1.08593-.15493-.33946-.51426-.76757-.89649-.98633-.38223-.21877-.69249-.26107-.87891-.28125-.37283-.0404-.42308-.0137-.49023-.0137-16.19569.00009-29.23627-12.87971-29.23633-28.79296.00005-15.91327 13.04079-28.79501 29.23633-28.79493zm30.63477 41.83008-.006.0117c.00025-.00057-.00025-.001 0-.002.001-.004.004-.006.006-.01z" fill="#f6f5f4"/>
  </g>
  <path d="m65.17683 9.073472a46.38346 46.38346 0 0 0 -46.38346 46.38346 46.38346 46.38346 0 0 0 .03566 1.005748 46.38346 46.38346 0 0 1 46.347813-45.671303 46.38346 46.38346 0 0 1 46.347787 45.37688 46.38346 46.38346 0 0 0 .0356-.711325 46.38346 46.38346 0 0 0 -46.383438-46.38346z" opacity=".1"/>
</svg>
