<svg fill="none" height="128" viewBox="0 0 128 128" width="128" xmlns="http://www.w3.org/2000/svg" xmlns:xlink="http://www.w3.org/1999/xlink">
  <linearGradient id="paint0_linear" gradientUnits="userSpaceOnUse" x1="12" x2="116" y1="64" y2="64">
    <stop offset="0" stop-color="#77767b"/>
    <stop offset=".05" stop-color="#c0bfbc"/>
    <stop offset=".1" stop-color="#9a9996"/>
    <stop offset=".9" stop-color="#9a9996"/>
    <stop offset=".95" stop-color="#c0bfbc"/>
    <stop offset="1" stop-color="#77767b"/>
  </linearGradient>
  <path d="m108 22h-88c-4.4183 0-8 3.5817-8 8v78c0 4.418 3.5817 8 8 8h88c4.418 0 8-3.582 8-8v-78c0-4.4183-3.582-8-8-8z" fill="url(#paint0_linear)"/>
  <path d="m108 12h-88c-4.4183 0-8 3.5817-8 8v80c0 4.418 3.5817 8 8 8h88c4.418 0 8-3.582 8-8v-80c0-4.4183-3.582-8-8-8z" fill="#deddda"/>
  <path d="m108 104h-88c-2.2091 0-4-1.791-4-4v-80c0-2.2091 1.7909-4 4-4h88c2.209 0 4 1.7909 4 4v80c0 2.209-1.791 4-4 4z" fill="#5e5c64"/>
  <path d="m69.3277 21.4996s6.6803 27.6756-11.7928 28.4254c8.5208-26.1077 11.7928-28.4254 11.7928-28.4254z" fill="#000" fill-opacity=".4"/>
  <path d="m68.8505 20.4091s6.6803 27.6755-11.7928 28.4254c8.5208-26.1078 11.7928-28.4254 11.7928-28.4254z" fill="#ff7800"/>
  <path d="m41.5509 74.4376c37.2189 6.3395-8.5208-28.289 24.8126-53.9196-14.9284 30.1977 27.062 24.0628 23.6537 57.1234-.4771 14.6558-14.0423 22.0859-25.0852 22.3586-13.2925-.2045-25.6306-11.2474-23.3811-25.5624z" fill="#000" fill-opacity=".4"/>
  <path d="m40.6296 73.9196c37.2188 6.3395-8.5208-28.2891 24.8126-53.9196-14.9284 30.1977 27.062 24.0627 23.6537 57.1234-.4772 14.6558-14.0423 22.0859-25.0853 22.3585-13.2924-.2044-25.6305-11.2474-23.381-25.5623z" fill="#f6d32d"/>
  <path d="m39.249 68.4604c-2.5467 4.3349 4.954 13.4163 4.954 13.4163-3.5351-7.1402.9371-8.9804.8694-16.524-.0361-4.0248-5.9363-9.0383-5.9363-9.0383s2.6596 7.8111.1129 12.146z" fill="#000" fill-opacity=".4"/>
  <path d="m39.2402 67.6286c-2.5467 4.335 4.954 13.4163 4.954 13.4163-3.5351-7.1402.9371-8.9804.8694-16.5239-.036-4.0248-5.9363-9.0383-5.9363-9.0383s2.6596 7.811.1129 12.1459z" fill="#e01b24"/>
  <circle cx="63.5334" cy="74.8058" fill="#c0bfbc" r="20.7226"/>
</svg>
