<svg xmlns="http://www.w3.org/2000/svg" xmlns:xlink="http://www.w3.org/1999/xlink" width="128" height="128" version="1.0" viewBox="0 0 128 128" style="enable-background:new">
 <title id="title4162">
  Adwaita Icon Template
 </title>
 <defs>
  <linearGradient id="linearGradient1007">
   <stop id="stop1003" offset="0" style="stop-color:#2dc0af"/>
   <stop id="stop1005" offset="1" style="stop-color:#61a1d2"/>
  </linearGradient>
  <linearGradient id="linearGradient6809-3">
   <stop id="stop6805" offset="0" style="stop-color:#f6d123"/>
   <stop id="stop6807" offset="1" style="stop-color:#2dc0af;stop-opacity:0.13779527"/>
  </linearGradient>
  <linearGradient id="linearGradient6826">
   <stop id="stop6822" offset="0" style="stop-color:#50dbb5"/>
   <stop id="stop6824" offset="1" style="stop-color:#4a86cf"/>
  </linearGradient>
  <radialGradient id="radialGradient439" cx="184" cy="-179.602" r="225" fx="184" fy="-179.602" gradientTransform="matrix(0.25,0,0,0.1967778,-162.99495,200.7212)" gradientUnits="userSpaceOnUse" xlink:href="#linearGradient6826"/>
  <radialGradient id="radialGradient441" cx="256" cy="267.602" r="225" fx="256" fy="267.602" gradientTransform="matrix(0.45333333,0,0,0.35682373,-215.04828,157.89251)" gradientUnits="userSpaceOnUse" xlink:href="#linearGradient6809-3"/>
  <linearGradient id="linearGradient443" x1="230" x2="230" y1="204" y2="172" gradientTransform="matrix(0.25,0,0,0.25,-162.99495,202.37942)" gradientUnits="userSpaceOnUse" xlink:href="#linearGradient1007"/>
  <filter id="c" width="1.083" height="1.067" x="-.04" y="-.03" color-interpolation-filters="sRGB" filterUnits="objectBoundingBox">
   <feOffset id="feOffset26" dy="4" result="pf_100_offsetBlur"/>
   <feFlood id="feFlood28" flood-opacity=".4"/>
   <feComposite id="feComposite30" in2="pf_100_offsetBlur" operator="in" result="pf_100_dropShadow"/>
   <feBlend id="feBlend32" in="SourceGraphic" in2="pf_100_dropShadow" mode="normal"/>
  </filter>
 </defs>
 <rect width="112" height="88" x="8" y="28" rx="8" ry="8.8" style="fill:#3584e4"/>
 <path d="m 8,106 v 2 c 0,4.432 3.568,8 8,8 h 96 c 4.432,0 8,-3.568 8,-8 v -2 c 0,4.432 -3.568,8 -8,8 H 16 c -4.432,0 -8,-3.568 -8,-8 z" style="fill:#1a5fb4"/>
 <path d="M 51.426237,3.5849023 37.669233,41.395903 h -0.004 l -23.379,64.228997 h 15.564 L 49.732237,51.043903 h 11.7 l -19.883,54.581997 15.559,0.005 18.527,-50.920997 c 2.666,-7.321 -1.528,-13.313 -9.314,-13.313 h -13.083 l 14.46,-38.0612516 h -16.272 z m 40.769,37.8110007 -24.042,66.065997 h -0.011 l -13.487,32.84579 h 14.851 l 14.884,-34.68279 h 20.656003 c 3.625,0 7.605,-2.787 8.844,-6.190997 l 16.282,-44.725 c 2.664,-7.324 -1.529,-13.313 -9.32,-13.313 z m 12.108003,9.612 h 11.695 l -16.377003,44.933 h -11.695 z" filter="url(#c)" transform="matrix(0.47461307,0,0,0.47910402,30.189171,37.00599)" style="isolation:isolate;fill:#f6f5f4;filter:url(#c)"/>
</svg>
