<svg fill="none" height="128" viewBox="0 0 128 128" width="128" xmlns="http://www.w3.org/2000/svg" xmlns:xlink="http://www.w3.org/1999/xlink">
  <linearGradient id="paint0_linear" gradientUnits="userSpaceOnUse" x1="114" x2="10" y1="121.999" y2="121.999">
    <stop offset="0" stop-color="#d5d3cf"/>
    <stop offset=".038" stop-color="#e3e2df"/>
    <stop offset=".077" stop-color="#c0bfbc"/>
    <stop offset=".923" stop-color="#c0bfbc"/>
    <stop offset=".962" stop-color="#e3e2df"/>
    <stop offset="1" stop-color="#d5d3cf"/>
  </linearGradient>
  <path d="m106 72h-88c-4.4183 0-8 3.5817-8 8v32c0 4.418 3.5817 8 8 8h88c4.418 0 8-3.582 8-8v-32c0-4.4183-3.582-8-8-8z" fill="url(#paint0_linear)"/>
  <path d="m18 14c-4.432 0-8 3.568-8 8v42 42c0 4.432 3.568 8 8 8h44 44c4.432 0 8-3.568 8-8v-42-42c0-4.432-3.568-8-8-8z" fill="#3d3846"/>
  <path d="m27.375 81.875s-4.75-13-17.25-10.125v34.25c0 4.418 3.5817 8 8 8h87.75c4.418 0 8-3.582 8-8v-68.875s-10.375 0-12.625 9c-2.6874 10.7497 7.25 17.375 7.25 17.375s-3.168 1.955-3.25 4.75c-.093 3.181 4.375 5.75 4.375 5.75s-7.755 1.2298-10.375 4.75c-4 5.375 4.375 16.875 4.375 16.875s-12.875-5.875-14.625-4.125 2 14 2 14-16.875-11.375-16.875 3.375c0 0-3.9643-4.761-9.25-6.125-5.7666-1.488-14.5 2.125-14.5 2.125s2.0388-13.9121-4.875-20.375c-5.75-5.375-18.125-2.625-18.125-2.625z" fill="#f6f5f4" opacity=".3"/>
  <path d="m65.1334 78.0082c-.7865 6.6932.3267 13.5678 3.3386 19.7512.1298.2668.1223.5359.0246.762-.195.4546-.7511.7331-1.2785.4579-2.4227-1.2671-4.6972-2.9194-6.7324-4.9546-6.2642-6.2642-8.8904-14.7896-7.8783-22.9491.0023-.0213.0062-.0421.01-.0629.1732.1308.347.2601.5216.3885.2757.2031.5533.4023.8318.5987 2.1442 1.5126 4.3763 2.8476 6.6773 4.0062 1.2189.6137 2.4567 1.1773 3.7106 1.6919.2573.1053.5155.2087.7747.3102z" fill="#62a0ea"/>
  <path d="m65.1336 78.0081c-.7866 6.6932.3267 13.5679 3.3386 19.7513.1298.2667.1223.5358.0246.7619-.2192.0916-.4797.0954-.7332-.0372-2.2887-1.1972-4.4381-2.7585-6.3614-4.6818-5.9186-5.9186-8.4004-13.9748-7.4439-21.684.0013-.0118.0075-.0699.0127-.1185 2.1443 1.5126 4.3763 2.8477 6.6772 4.0062 1.219.6137 2.4568 1.1773 3.7107 1.6919.2573.1053.5155.2087.7747.3102z" fill="#1a5fb4"/>
  <path d="m76.0455 67.0961c6.6932-.7865 13.5679.3266 19.7513 3.3385.2667.1299.5358.1224.762.0246.4546-.195.7332-.7511.4579-1.2784-1.2671-2.4228-2.9194-4.6973-4.9546-6.7325-6.2641-6.2642-14.7896-8.8904-22.9492-7.8782-.0213.0024-.042.0061-.0628.0099.1308.1733.2601.347.3885.5217.203.2757.4023.5533.5987.8318 1.5125 2.1442 2.8476 4.3763 4.0061 6.6773.6137 1.219 1.1773 2.4568 1.6919 3.7106.1053.2573.2087.5155.3102.7747z" fill="#62a0ea"/>
  <path d="m76.0456 67.0962c6.6932-.7866 13.5679.3266 19.7513 3.3386.2667.1297.5358.1222.762.0244.0915-.219.0953-.4795-.0373-.7331-1.1972-2.2887-2.7584-4.4381-4.6818-6.3614-5.9185-5.9186-13.9747-8.4004-21.684-7.4439-.0118.0014-.0699.0076-.1185.0128 1.5126 2.1443 2.8477 4.3762 4.0061 6.6772.6137 1.219 1.1774 2.4568 1.692 3.7106.1053.2574.2087.5156.3102.7748z" fill="#1a5fb4"/>
  <path d="m82.625 80.0907c2.5402 2.5402 4.7507 6.529 4.497 9.3076-2.7708.2403-6.7436-1.9708-9.2732-4.5004-2.5402-2.5402-1.7064-3.4846-1.4527-6.2632 2.7708-.2403 3.6993-1.0736 6.2289 1.456z" fill="#f66151"/>
  <path d="m81.9498 80.78c1.8169 1.8168 3.398 4.6698 3.2165 6.6572-1.9819.172-4.8234-1.4095-6.6327-3.2188-1.8169-1.8168-1.2205-2.4924-1.039-4.4799 1.9819-.1718 2.6459-.7679 4.4552 1.0415z" fill="#ffa348"/>
  <path d="m80.8895 80.3694c1.4725 1.4724 2.7538 3.7845 2.6068 5.3952-1.6062.1393-3.909-1.1424-5.3754-2.6087-1.4724-1.4724-.9891-2.0199-.8421-3.6305 1.6062-.1394 2.1444-.6224 3.6107.844z" fill="#f8e45c"/>
  <path d="m46.8665 37.2187-11.4865 11.4865c-1.4129-3.4477-2.4473-7.0106-3.1044-10.6268-.3107-1.7099.6855-3.2555 2.1523-3.8244.5745-.2232 1.2218-.2965 1.8908-.1714 3.5944.6743 7.1313 1.7204 10.5478 3.1361z" fill="#e01b24"/>
  <path d="m65.0991 49.7987c1.275 1.3477 2.4642 2.7447 3.5704 4.184.2142.2786.4254.5594.6335.8413 2.6933 3.6535 4.8582 7.5681 6.4959 11.6408.1049.2606.2073.5216.3073.7832.5241 1.3634.9887 2.7438 1.3947 4.1374.3474 1.1915.6523 2.3915.9143 3.5996.2163.9934-.0127 2.0229-.6151 2.8207l-.001.001c-.0949.127-.1992.2475-.3129.3612l-1.3077 1.3077c-.8347.8346-2.0385 1.184-3.1905.9281-1.09-.2422-2.1734-.5184-3.2484-.8304-1.5541-.4494-3.0917-.9711-4.6061-1.565-.2592-.1015-.5175-.2049-.7747-.3101-1.254-.5146-2.4917-1.0782-3.7106-1.692-2.5999-1.3091-5.1128-2.8439-7.5091-4.6047-.1747-.1284-.3484-.2578-.5217-.3886-.2398-.1803-.4782-.3631-.7157-.5486-2.0875-1.6295-4.0797-3.4368-5.9553-5.42-4.6337-4.8998-8.1525-10.4506-10.5664-16.339l11.4865-11.4865c6.6965 2.7754 12.9305 6.9728 18.2326 12.5799z" fill="#deddda"/>
  <path d="m46.8666 37.2186-9.5037 9.5037c-1.4129-3.4476-2.4472-7.0106-3.1043-10.6268-.1186-.6529-.0473-1.2821.1694-1.8416.5746-.2233 1.2218-.2965 1.8908-.1714 3.5944.6742 7.1314 1.7203 10.5478 3.1361z" fill="#a51d2d"/>
  <path d="m65.0991 49.7986c1.2751 1.3477 2.4643 2.7447 3.5704 4.184.2143.2785.4253.5594.6336.8413 2.6932 3.6535 4.8582 7.568 6.4959 11.6408.1048.2606.2073.5216.3074.7832.524 1.3633.9886 2.7438 1.3945 4.1374.3474 1.1915.6524 2.3916.9144 3.5997.2163.9932-.0127 2.0228-.6151 2.8206l-.001.001c-.8001.6047-1.8341.8351-2.8282.6142-1.0901-.2422-2.1735-.5184-3.2485-.8304-1.5541-.4495-3.0917-.9711-4.6061-1.565-.2592-.1015-.5174-.2049-.7747-.3101-1.254-.5147-2.4917-1.0782-3.7106-1.692-2.5999-1.3091-5.1127-2.8439-7.5091-4.6048-.1747-.1284-.3484-.2577-.5217-.3885-.2398-.1803-.4782-.3631-.7156-.5487-2.0876-1.6295-4.0798-3.4367-5.9554-5.4199-4.6336-4.8999-8.1525-10.4506-10.5664-16.3391l9.5036-9.5036c6.6966 2.7754 12.9306 6.9728 18.2326 12.5799z" fill="#c0bfbc"/>
  <path d="m80.9722 78.7418-4.5049 4.5049-9.0906-4.4112 9.4986-9.4986z" fill="#5e5c64"/>
  <path d="m52.917 48.4939c1.786 1.786 1.786 4.6816 0 6.4677-1.7861 1.786-4.6817 1.786-6.4677 0-1.786-1.7859-1.786-4.6817 0-6.4677s4.6818-1.786 6.4677 0z" fill="#deddda"/>
  <path d="m46.8267 54.5841c1.5774 1.5775 4.135 1.5774 5.7123 0 1.5774-1.5774 1.5774-4.1348 0-5.7122-1.5774-1.5775-4.1349-1.5775-5.7123 0-1.5773 1.5773-1.5774 4.1348 0 5.7122z" fill="#62a0ea"/>
  <path d="m52.2087 49.2022c1.3949 1.395 1.395 3.6563 0 5.0513-.5042.5042-1.1217.8262-1.7704.9659-1.1458.247-2.3901-.0751-3.2809-.9659-1.3951-1.395-1.3952-3.6563-.0001-5.0513.8908-.8908 2.1352-1.2128 3.281-.9659.6487.1397 1.2661.4617 1.7704.9659z" fill="#3d3846"/>
  <path d="m60.1493 57.2446c1.3669 1.3669 1.3668 3.583 0 4.9498-1.3669 1.3669-3.583 1.3669-4.9498.0001s-1.3668-3.583 0-4.9498c1.3669-1.3669 3.583-1.3669 4.9498-.0001z" fill="#deddda"/>
  <path d="m55.4883 61.9056c1.2072 1.2072 3.1646 1.2072 4.3717 0 1.2072-1.2072 1.2072-3.1645 0-4.3717s-3.1645-1.2072-4.3717 0c-1.2071 1.2072-1.2072 3.1645 0 4.3717z" fill="#62a0ea"/>
  <path d="m59.6072 57.7868c1.0676 1.0675 1.0677 2.7981 0 3.8658-.3858.3858-.8583.6323-1.3548.7392-.8769.189-1.8292-.0575-2.511-.7392-1.0676-1.0677-1.0677-2.7983 0-3.8659.6817-.6818 1.6341-.9281 2.511-.7392.4964.1069.9689.3534 1.3548.7393z" fill="#3d3846"/>
</svg>
