<svg height="128" width="128" xmlns="http://www.w3.org/2000/svg">
  <path d="m27.945289 96.849177c-4.801703-.568417-9.439615-5.044236-10.820674-10.446363-.368001-1.439989-.449686-3.856855-.177264-5.258971.450528-2.315793 1.520847-4.282115 3.292223-6.046333 2.816432-2.808427 6.293498-4.265275 13.928474-5.840017 4.597913-.948719 13.681739-2.350241 13.931844-2.149525.07474.06.17343.539581.219369 1.065689.252295 2.890327 1.568933 6.14108 3.404519 8.405505.416591.513933.80914 1.00776.872297 1.097318.08051.114104-.02905.345934-.366275.774941-.717687.913067-8.917507 9.425718-10.677936 11.085937-1.691038 1.594283-4.670754 4.272431-5.430336 4.880869-.887372.710689-2.425314 1.551083-3.546203 1.937732-.947287.326777-2.884054.67549-3.473824.625427-.100715-.0084-.620928-.06737-1.156046-.130525z" opacity=".2"/>
  <path d="m47.719259 125.93983c-2.269482-.27368-3.928435-.77475-5.730548-1.73054-3.884647-2.06316-6.516235-5.66738-7.46824-10.22741-.320842-1.53719-.32067-5.06653.000366-6.65391.851667-4.21098 2.645357-7.340675 8.754982-15.276294 3.705446-4.813058 10.40046-13.050154 10.607198-13.050154.06316 0 .555875.311808 1.094951.692858 1.900639 1.343506 4.154628 2.24952 6.624868 2.663033.249474.04168.481098.122104.514739.178735.03368.05663.25478 2.692106.491411 5.856861.854741 11.432482 1.185017 18.273761 1.020216 21.134421-.155199 2.69322-.882193 5.58612-1.980514 7.88044-1.577478 3.29568-4.209153 5.96592-7.245922 7.35161-2.076386.94768-4.726755 1.41576-6.682972 1.18035zm30.521801-6.3133c-5.124231-.97684-8.922139-5.45686-10.677936-12.60637-.816845-3.31789-3.389486-19.486386-3.738961-23.507451l-.08244-.944561.534821-.06337c2.984771-.354018 4.161322-.665469 6.05855-1.603546.687793-.340124 1.653017-.907235 2.144978-1.260285.49196-.35305.924214-.641953.96055-.641953.07238 0 4.986967 5.5676 7.496451 8.492252 3.893404 4.538113 7.026132 8.433725 8.101505 10.074976 3.116979 4.756668 4.22233 10.137748 2.937273 14.301548-.597055 1.93495-1.657144 3.53205-3.201359 4.82318-2.870873 2.40017-7.114974 3.58195-10.533514 2.93305zm24.53946-20.423666c-3.93298-.405176-7.757501-2.116215-11.109934-4.970531-1.929777-1.64304-7.574345-6.884242-10.253093-9.520475-2.256051-2.220046-6.656026-6.778538-6.656026-6.896011 0-.06084.266823-.43206.59297-.824899 1.676977-2.02009 2.723675-4.177021 3.433446-7.075389l.130062-.531202 6.132234.05642c17.479221.160841 19.041761.249558 22.491881 1.277015 4.20738 1.253058 7.58529 3.879468 9.40172 7.309926 2.0843 3.936476 2.03567 8.793723-.13314 13.292678-.69647 1.444726-1.19163 2.170784-2.30498 3.379638-2.02228 2.195752-4.45096 3.581236-7.33813 4.186284-1.20139.251746-3.44557.41385-4.38697.316882zm-23.658193-33.097383c-.03874-.958488-.157852-2.170409-.264802-2.693232-.422359-2.064555-1.263835-4.178878-2.287293-5.74697-.265852-.407285-.454737-.818065-.419706-.912803.135494-.366528 9.613932-8.421926 13.566367-11.530149 2.711085-2.131714 4.284648-3.19159 6.226551-4.193743 5.985286-3.089065 11.524256-2.907506 15.642166.512803 1.89205 1.571499 3.48789 4.201785 4.15719 6.851815.44131 1.747332.47041 4.500648.0654 6.185707-1.25196 5.208864-5.10023 8.789087-10.97983 10.213514-2.02401.490443-9.423194 1.528385-15.416479 2.162576-2.818581.298233-9.397931.892593-9.880881.892593h-.338318l-.07036-1.742658zm-56.063374.724213c-4.415175-.467371-8.043399-2.067376-10.493092-4.635807-4.0096992-4.206332-4.6981231-10.736883-1.758744-16.673749 1.993271-4.029909 5.175599-6.584866 9.382774-7.535185 1.549478-.349897 4.866123-.321686 6.549497.05516 2.446746.548213 5.053495 1.683796 7.220659 3.145275 2.654749 1.791587 11.225307 8.747401 15.751641 12.781101l2.234619 1.992935-.212421.336675c-.116842.185136-.439288.656549-.716509 1.04754-1.179079 1.662869-2.213187 4.33728-2.584094 6.682974l-.200714 1.269393-.560886.07528c-2.117989.284295-11.171413 1.083289-15.150374 1.3371-2.953864.188419-8.196665.256507-9.461933.122862zm51.271776-11.924257c-1.882491-2.041102-5.338547-3.774792-8.47498-4.251385-.707455-.107451-1.304889-.213432-1.32771-.235495-.02274-.02231-.144672-1.541605-.270823-3.37677-.738024-10.737725-.964424-17.135224-.751455-21.234187.209851-4.038542.559539-5.861917 1.556302-8.114559 1.018192-2.301145 3.276811-5.050124 5.308229-6.461078 4.410543-3.0628311 9.832881-3.925572 14.867847-2.3657753 7.8834 2.4421563 12.569733 11.4021473 10.466568 20.0101813-.997858 4.083552-3.560689 8.114978-9.588248 15.082164-2.266368 2.619672-10.829516 11.469938-11.097726 11.469938-.113052 0-.42274-.235453-.688172-.523286zm-26.846418-5.845495c-9.85646-10.21983-12.747838-13.972264-14.172686-18.392492-.651793-2.022745-.829478-3.356644-.752424-5.658128.07705-2.305692.310737-3.37938 1.128004-5.177283 1.554111-3.41938 4.189912-5.720864 8.049714-7.030763 2.71799-.921941 5.336021-1.033563 7.93561-.338318 1.41449.378284 3.479761 1.47849 4.699808 2.503674 2.220219 1.865733 4.019342 4.832439 4.751177 7.834555.5224 2.143125 1.286194 7.378976 2.263461 15.515849.92253 7.681294 1.385183 11.971836 1.301268 12.068259-.04375.05027-.490361.150946-.992551.223747-2.837065.411201-5.438337 1.562742-7.634557 3.379592-.450611.372801-.898151.677813-.994529.677813-.09638 0-2.609357-2.523715-5.584442-5.608441z" opacity=".2"/>
  <path d="m47.719259 123.83446c-2.269482-.27369-3.928435-.77476-5.730548-1.73054-3.884647-2.06316-6.516235-5.66739-7.46824-10.22742-.320842-1.53716-.32067-5.06653.000366-6.6539.851667-4.21098 2.645357-7.340673 8.754982-15.276297 3.705446-4.813059 10.40046-13.050154 10.607198-13.050154.06316 0 .555875.311808 1.094951.692858 1.900639 1.343505 4.154628 2.249519 6.624868 2.663032.249474.04168.481098.122104.514739.178736.03368.05663.25478 2.692106.491411 5.856861.854741 11.432482 1.185017 18.273764 1.020216 21.134414-.155199 2.69322-.882193 5.58613-1.980514 7.88045-1.577478 3.29568-4.209153 5.96591-7.245922 7.35161-2.076386.94767-4.726755 1.41575-6.682972 1.18035zm30.521801-6.3133c-5.124231-.97684-8.922139-5.45687-10.677936-12.60637-.816845-3.31789-3.389486-19.48639-3.738961-23.507454l-.08244-.944562.534821-.06337c2.984771-.354018 4.161322-.665468 6.05855-1.603545.687793-.340124 1.653017-.907236 2.144978-1.260286.49196-.35305.924214-.641953.96055-.641953.07238 0 4.986967 5.5676 7.496451 8.492252 3.893404 4.538113 7.026132 8.433705 8.101505 10.074976 3.116979 4.756662 4.22233 10.137742 2.937273 14.301542-.597055 1.93496-1.657144 3.53206-3.201359 4.82319-2.870873 2.40017-7.114974 3.58195-10.533514 2.93305zm24.53946-20.423669c-3.93298-.405176-7.757501-2.116216-11.109934-4.970531-1.929777-1.64304-7.574345-6.884243-10.253093-9.520454-2.256051-2.220068-6.656026-6.77856-6.656026-6.896033 0-.06084.266823-.432038.59297-.824899 1.676977-2.020085 2.723675-4.177021 3.433446-7.075388l.130062-.531202 6.132234.05642c17.479221.160841 19.041761.249558 22.491881 1.277016 4.20738 1.253058 7.58529 3.879467 9.40172 7.309926 2.0843 3.936475 2.03567 8.793723-.13314 13.292678-.69647 1.444726-1.19163 2.170784-2.30498 3.379638-2.02228 2.195751-4.45096 3.581236-7.33813 4.186284-1.20139.251745-3.44557.413849-4.38697.316881zm-23.658193-33.097384c-.03874-.958487-.157852-2.170409-.264802-2.693232-.422359-2.064555-1.263835-4.178878-2.287293-5.746969-.265852-.407285-.454737-.818065-.419706-.912804.135494-.366527 9.613932-8.421925 13.566367-11.530148 2.711085-2.131715 4.284648-3.191591 6.226551-4.193743 5.985286-3.089065 11.524256-2.907507 15.642166.512802 1.89205 1.5715 3.48789 4.201785 4.15719 6.851816.44131 1.747332.47041 4.500648.0654 6.185707-1.25196 5.208863-5.10023 8.789087-10.97983 10.213514-2.02401.490442-9.423194 1.528384-15.416479 2.162575-2.818581.298234-9.397931.892593-9.880881.892593h-.338318l-.07036-1.742658zm-56.063374.724214c-4.415175-.467371-8.043399-2.067376-10.493092-4.635807-4.0096992-4.206333-4.6981231-10.736883-1.758744-16.67375 1.993271-4.029908 5.175599-6.584866 9.382774-7.535185 1.549478-.349896 4.866123-.321686 6.549497.05516 2.446746.548213 5.053495 1.683796 7.220659 3.145276 2.654749 1.791586 11.225307 8.747401 15.751641 12.781101l2.234619 1.992934-.212421.336676c-.116842.185135-.439288.656548-.716509 1.047539-1.179079 1.66287-2.213187 4.337281-2.584094 6.682975l-.200714 1.269392-.560886.07528c-2.117989.284295-11.171413 1.083289-15.150374 1.337099-2.953864.18842-8.196665.256508-9.461933.122862zm51.271776-11.924257c-1.882491-2.041103-5.338547-3.774793-8.47498-4.251385-.707455-.107452-1.304889-.213432-1.32771-.235495-.02274-.02232-.144672-1.541605-.270823-3.37677-.738024-10.737725-.964424-17.135224-.751455-21.234187.209851-4.038542.559539-5.861918 1.556302-8.114558 1.018192-2.301146 3.276811-5.050126 5.308229-6.461077 4.410543-3.0628337 9.832881-3.9255745 14.867847-2.3657779 7.8834 2.4421563 12.569733 11.4021499 10.466568 20.0101809-.997858 4.083553-3.560689 8.114979-9.588248 15.082164-2.266368 2.619673-10.829516 11.469939-11.097726 11.469939-.113052 0-.42274-.235453-.688172-.523287zm-26.846418-5.845495c-9.85646-10.21983-12.747838-13.972265-14.172686-18.392493-.651793-2.022744-.829478-3.356644-.752424-5.658127.07705-2.305692.310737-3.379381 1.128004-5.177283 1.554111-3.419381 4.189912-5.720864 8.049714-7.030764 2.71799-.9219402 5.336021-1.0335604 7.93561-.338318 1.41449.378284 3.479761 1.478491 4.699808 2.503674 2.220219 1.865734 4.019342 4.83244 4.751177 7.834556.5224 2.143125 1.286194 7.378976 2.263461 15.515849.92253 7.681293 1.385183 11.971836 1.301268 12.068258-.04375.05027-.490361.150946-.992551.223748-2.837065.411201-5.438337 1.562742-7.634557 3.379591-.450611.372801-.898151.677814-.994529.677814-.09638 0-2.609357-2.523716-5.584442-5.608442z" fill="#0aa41e"/>
  <path d="m27.945289 94.743803c-4.801703-.568417-9.439615-5.044235-10.820674-10.446363-.368001-1.439989-.449686-3.856855-.177264-5.25895.450528-2.315814 1.520847-4.282136 3.292223-6.046348 2.816432-2.808433 6.293498-4.265281 13.928474-5.840023 4.597913-.948719 13.681739-2.350241 13.931844-2.149525.07474.06.17343.539582.219369 1.065689.252295 2.890328 1.568933 6.141076 3.404519 8.405505.416591.513933.80914 1.007761.872297 1.097318.08051.114105-.02905.345934-.366275.774942-.717687.913066-8.917507 9.425718-10.677936 11.085937-1.691038 1.594282-4.670754 4.272431-5.430336 4.880868-.887372.71069-2.425314 1.551083-3.546203 1.937733-.947287.326776-2.884054.675489-3.473824.625427-.100715-.0084-.620928-.06737-1.156046-.130526z" fill="#c33a24"/>
  <circle cx="63.736" cy="67.051" opacity=".2" r="16.842"/>
  <circle cx="63.736" cy="64.946" fill="#ffbf00" r="16.842"/>
</svg>
