<svg fill="none" height="128" viewBox="0 0 128 128" width="128" xmlns="http://www.w3.org/2000/svg">
  <path d="m119.098 66.9016c0 14.3478-5.699 28.1079-15.845 38.2534-10.1451 10.145-23.9052 15.845-38.253 15.845-7.1043 0-14.139-1.399-20.7026-4.118-6.5635-2.719-12.5272-6.704-17.5507-11.727-5.0235-5.024-9.0084-10.9874-11.7271-17.5509s-4.118-13.5982-4.118-20.7025 1.3993-14.139 4.118-20.7026c2.7187-6.5635 6.7036-12.5272 11.7271-17.5507s10.9872-9.0084 17.5507-11.7271 13.5983-4.118 20.7026-4.118c14.3478 0 28.1079 5.6997 38.253 15.8451 10.146 10.1454 15.845 23.9055 15.845 38.2533z" fill="#3d3846" opacity=".2"/>
  <path d="m118.098 65.0984c0 14.3477-5.699 28.1079-15.845 38.2536-10.1451 10.145-23.9052 15.845-38.253 15.845-7.1043 0-14.1391-1.4-20.7026-4.118-6.5635-2.719-12.5272-6.704-17.5507-11.727-5.0235-5.0238-9.0084-10.9876-11.7271-17.5511s-4.11799-13.5982-4.11799-20.7025 1.39929-14.1391 4.11799-20.7026 6.7036-12.5273 11.7271-17.5508 10.9872-9.0083 17.5507-11.727c6.5636-2.7187 13.5983-4.118 20.7026-4.118 14.3478 0 28.1079 5.6996 38.253 15.845 10.146 10.1455 15.845 23.9056 15.845 38.2534z" fill="#26a269"/>
  <path d="m118.098 63.0984c0 14.3477-5.699 28.1079-15.845 38.2536-10.1451 10.145-23.9052 15.845-38.253 15.845-7.1043 0-14.1391-1.4-20.7026-4.118-6.5635-2.719-12.5272-6.704-17.5507-11.727-5.0235-5.0238-9.0084-10.9876-11.7271-17.5511s-4.11799-13.5982-4.11799-20.7025 1.39929-14.1391 4.11799-20.7026 6.7036-12.5273 11.7271-17.5508 10.9872-9.0083 17.5507-11.727c6.5636-2.7187 13.5983-4.118 20.7026-4.118 14.3478 0 28.1079 5.6996 38.253 15.845 10.146 10.1455 15.845 23.9056 15.845 38.2534z" fill="#33d17a"/>
  <g fill="#f6f5f4">
    <path d="m40.335 40.742c2.6028 3.7172 1.6994 8.8405-2.0177 11.4433-3.7172 2.6027-8.8405 1.6994-11.4433-2.0178-2.6028-3.7171-1.6994-8.8405 2.0178-11.4432 3.7171-2.6028 8.8404-1.6994 11.4432 2.0177zm-9.0862 6.3622c.911 1.301 2.7042 1.6172 4.0052.7062 1.301-.9109 1.6172-2.7041.7062-4.0051s-2.7042-1.6172-4.0052-.7062-1.6171 2.7041-.7062 4.0051z"/>
    <path d="m101.126 40.742c2.603 3.7172 1.699 8.8405-2.0178 11.4433-3.7171 2.6027-8.8405 1.6994-11.4432-2.0178-2.6028-3.7171-1.6994-8.8405 2.0177-11.4432 3.7172-2.6028 8.8405-1.6994 11.4433 2.0177zm-9.0862 6.3622c.911 1.301 2.7041 1.6172 4.0051.7062 1.301-.9109 1.6172-2.7041.7062-4.0051-.9109-1.301-2.7041-1.6172-4.0051-.7062s-1.6172 2.7041-.7062 4.0051z"/>
    <path d="m40.335 75.1594c2.6028 3.7171 1.6994 8.8404-2.0177 11.4432-3.7172 2.6028-8.8405 1.6994-11.4433-2.0177-2.6028-3.7172-1.6994-8.8405 2.0178-11.4433 3.7171-2.6028 8.8404-1.6994 11.4432 2.0178zm-9.0862 6.3622c.911 1.301 2.7042 1.6172 4.0052.7062s1.6172-2.7041.7062-4.0051-2.7042-1.6172-4.0052-.7063c-1.301.911-1.6171 2.7042-.7062 4.0052z" opacity=".7"/>
    <path d="m101.126 75.1594c2.603 3.7171 1.699 8.8404-2.0178 11.4432-3.7171 2.6028-8.8405 1.6994-11.4432-2.0177-2.6028-3.7172-1.6994-8.8405 2.0177-11.4433 3.7172-2.6028 8.8405-1.6994 11.4433 2.0178zm-9.0862 6.3622c.911 1.301 2.7041 1.6172 4.0051.7062s1.6172-2.7041.7062-4.0051c-.9109-1.301-2.7041-1.6172-4.0051-.7063-1.301.911-1.6172 2.7042-.7062 4.0052z" opacity=".7"/>
    <path d="m72.2164 27.2164c0 4.5378-3.6786 8.2165-8.2164 8.2165s-8.2164-3.6787-8.2164-8.2165 3.6786-8.2164 8.2164-8.2164 8.2164 3.6786 8.2164 8.2164zm-11.0922 0c0 1.5883 1.2876 2.8758 2.8758 2.8758s2.8757-1.2875 2.8757-2.8758c0-1.5882-1.2875-2.8757-2.8757-2.8757s-2.8758 1.2875-2.8758 2.8757z" opacity=".7"/>
    <path d="m70.7305 92.8439c2.6027 3.7172 1.6994 8.8401-2.0178 11.4431s-8.8405 1.7-11.4432-2.018c-2.6028-3.7167-1.6994-8.84 2.0177-11.4428 3.7172-2.6028 8.8405-1.6994 11.4433 2.0177zm-9.0862 6.3623c.911 1.3008 2.7041 1.6168 4.0051.7062 1.301-.911 1.6172-2.7042.7062-4.0052-.9109-1.301-2.7041-1.6172-4.0051-.7062s-1.6172 2.7042-.7062 4.0052z"/>
    <path d="m30.1628 56.2526h6.88346v12.0461h-6.88346z" opacity=".7"/>
    <path d="m90.9537 56.2526h6.88346v12.0461h-6.88346z" opacity=".7"/>
    <path d="m52.6544 29.8331h6.88346v12.0461h-6.88346z" opacity=".7" transform="matrix(.49042318 .87148442 -.87148442 .49042318 52.830543 -30.685233)"/>
    <path d="m82.4677 82.8115h6.88346v12.0461h-6.88346z" opacity=".7" transform="matrix(.49042318 .87148442 -.87148442 .49042318 114.19256 -29.670495)"/>
    <path d="m0 0h6.88346v12.0461h-6.88346z" opacity=".7" transform="matrix(.490423 -.871485 -.871485 -.490423 52.6544 94.7179)"/>
    <path d="m0 0h6.88346v12.0461h-6.88346z" opacity=".7" transform="matrix(.490423 -.871485 -.871485 -.490423 82.4677 41.7396)"/>
    <path clip-rule="evenodd" d="m55.1908 83.1292-14.8424-28.3942 6.8628-3.5874 14.8425 28.3943z" fill-rule="evenodd"/>
    <path clip-rule="evenodd" d="m81.0038 51.1476-14.8424 28.3943 6.8628 3.5874 14.8425-28.3943z" fill-rule="evenodd"/>
  </g>
</svg>
