<svg height="128" width="128" xmlns="http://www.w3.org/2000/svg" xmlns:xlink="http://www.w3.org/1999/xlink">
  <radialGradient id="radialGradient4244" cx="30.369" cy="306.191" gradientTransform="matrix(.01102938 9.3394137 -10.060611 .01188137 3140.3267 -64.41376)" gradientUnits="userSpaceOnUse" r="30">
    <stop offset="0" stop-color="#505050"/>
    <stop offset=".339" stop-color="#2b2b2b"/>
    <stop offset=".705" stop-color="#0a0a0a"/>
    <stop offset="1"/>
  </radialGradient>
  <g transform="translate(0 -262)">
    <path d="m52.470151 272.72218-43.8806518 44.90303c-14.8261338 18.36038 10.0898708 16.22416 20.7709588 21.51244 3.831473 3.9164-14.685679 6.80715-10.854205 10.72681 3.831471 3.9164 23.168486 7.54536 27.006493 11.46176 3.831473 3.91638-7.842598 8.07126-4.011127 11.98764 3.831474 3.9164 12.693185.20579 14.35251 9.24713 1.182431 6.46093 15.969368 2.77644 23.201151-2.5151 3.831473-3.91968-7.329776-3.55057-3.498303-7.46697 9.528054-9.74363 18.399563-3.54076 21.659417-13.30399 1.610329-4.82445-14.025866-7.43757-10.187861-11.35395 11.024056-6.43806 49.126467-10.62883 31.047017-28.70828l-45.484453-46.49052c-5.562656-5.34053-14.845729-5.39933-20.120946 0zm50.403629 86.55275c0 2.22768 16.4136 3.68775 16.4136-.52589-2.33874-6.76795-14.47337-6.31066-16.4136.52589zm-73.937953 11.83737c3.887002 3.36113 9.890622-.8362 11.690402-5.52671-3.766146-5.00412-17.863873.17978-11.690402 5.52671zm71.880123-7.26116c-5.010634 4.49456.56182 9.05441 5.5006 6.1506 1.10077-1.1171-.0294-5.03348-5.5006-6.1506z" fill="#fdfdfd" opacity=".3"/>
    <path d="m52.470151 270.57227-43.8806518 44.90304c-14.8261338 18.36037 10.0898708 16.22415 20.7709588 21.51243 3.831473 3.9164-14.685679 6.80715-10.854205 10.72681 3.831471 3.9164 23.168486 7.54536 27.006493 11.46177 3.831473 3.91638-7.842598 8.07125-4.011127 11.98763 3.831474 3.9164 12.693185.20579 14.35251 9.24714 1.182431 6.46092 15.969368 2.77643 23.201151-2.5151 3.831473-3.91968-7.329776-3.55058-3.498303-7.46698 9.528054-9.74362 18.399563-3.54076 21.659417-13.30399 1.610329-4.82445-14.025866-7.43757-10.187861-11.35395 11.024056-6.43806 49.126467-10.62883 31.047017-28.70828l-45.484453-46.49052c-5.562656-5.34053-14.845729-5.39933-20.120946 0zm50.403629 86.55275c0 2.22768 16.4136 3.68775 16.4136-.52589-2.33874-6.76795-14.47337-6.31066-16.4136.52589zm-73.937953 11.83737c3.887002 3.36113 9.890622-.83619 11.690402-5.52671-3.766146-5.00412-17.863873.17979-11.690402 5.52671zm71.880123-7.26116c-5.010634 4.49456.56182 9.05442 5.5006 6.1506 1.10077-1.1171-.0294-5.03348-5.5006-6.1506z" fill="url(#radialGradient4244)" opacity=".9"/>
    <g fill="#fff">
      <path d="m41.968714 339.41794c1.172634.72838 18.909117 4.33122 23.243615 5.04983 1.502538.31684.437697 1.86511-1.633193 2.91035-4.670936 1.24122-27.3266-7.96018-21.610422-7.96018z"/>
      <path d="m69.938792 273.72107 17.360851 17.63196c1.646258 1.6822 1.623395 4.94206.702273 5.87951l-8.619997-6.89536-1.695256 10.21074-7.202386-3.80208-11.533612 7.28731-3.818409-15.36182-6.196337 10.72027h-9.472524c-3.860871 0-4.3149-4.89956-.806798-8.40766 6.127744-6.61445 13.160276-13.35626 16.981949-17.26287 3.841273-3.92619 10.534102-3.81514 14.300246 0z"/>
      <circle cx="123.409" cy="292.389" opacity=".533333" r=".591"/>
    </g>
  </g>
</svg>
