<svg height="128" viewBox="0 0 128 128" width="128" xmlns="http://www.w3.org/2000/svg">
  <g transform="translate(0 80)">
    <path d="m118.21951-17.463415c0 30.708843-24.90091 55.609757-55.609753 55.609757-30.708841 0-55.609757-24.900914-55.609757-55.609757 0-30.70884 24.900916-55.609757 55.609757-55.609757 30.708843 0 55.609753 24.900917 55.609753 55.609757z" fill="#090b00" opacity=".2"/>
    <path d="m127 11.804878-14.63415 32.195122-17.858226-15.800303-10.529727-9.375 15.800306-2.629575c-10.243902-71.124238-27.804878-85.758384-39.798018-89.268294h2.629572c6.150916 0 12.004575.880335 17.263721 2.926829h.297255c21.368137 12.004575 29.268297 63.5099109 31.314787 79.3216496.29725 2.9268284.58308 4.6760664.58308 4.6760664z" fill="#090b00" opacity=".2"/>
    <path d="m118.21951-19.463415c0 30.708843-24.90091 55.609757-55.609753 55.609757-30.708841 0-55.609757-24.900914-55.609757-55.609757 0-30.70884 24.900916-55.609757 55.609757-55.609757 30.708843 0 55.609753 24.900917 55.609753 55.609757z" fill="#006064"/>
    <path d="m83.680642 24.439024 5.567836 4.973324c12.576222-7.019818 22.237042-18.44131 26.627282-32.480944-.88033-5.8536586-2.34375-12.88491-3.80716-20.201983 1.46341-5.853659 2.05793-11.124237 2.641-16.383384-1.46341-3.807167-3.22408-7.317073-5.56783-10.54116-2.92683-4.390244-6.43674-8.197408-10.243902-11.410059-.58308 0-1.463414-.594513-2.046494-1.760673-.880335-.58308-1.749237-1.166157-2.629575-1.760669-.297255-.285825-.880335-.58308-1.177589-.58308-1.16616-.58308-2.332317-1.463415-3.212655-2.046495-.583077-.297254-1.463415-.58308-2.046492-1.166157-.297257-.297257-.594512-.297257-.880337-.594512-1.760669-.868902-3.509907-1.74924-5.567833-2.332317-6.436739-2.057927-12.290398-3.224087-18.727136-3.224087-.297255 0-.58308 0-.880335 0-.58308.297258-1.16616.297258-1.749237 0-2.057927 0-4.104421.297258-5.853659.58308-2.057926.297255-3.807166.58308-5.853658 1.177592 6.436736 2.332318 10.243902 4.092987 10.243902 4.092987 10.82698 3.224087 20.190548 17.858233 26.924541 43.022105-.583077 1.463414-1.177589 3.224084-1.760669 4.973324-4.092989 9.660823-19.607471 41.570122-53.266007 41.570122h-7.019816c7.317073 7.317073 16.680638 12.57622 27.210366 14.919969 3.224084-.285834 4.390244-.285834 2.343749.297255 1.463415.285834 2.92683.58308 4.687499.58308 1.74924 0 3.212655.297257 4.973324.297257 1.463414 0 2.926829 0 4.092989-.297257 6.150913-3.224084 11.707317-7.317074 16.977896-11.707318z" fill="#004d40"/>
    <path d="m22.217227-9.5167668-5.270579-5.2591472-4.676069-2.926829-.297255-9.660825 1.177592-7.317074 4.973321-7.031247 7.019819-7.900154.58308-4.092989-3.509909-2.046492 8.494665-1.760672 6.436736 2.926829-2.046492 2.34375 7.317073-1.463415 6.722561.58308-8.483233 4.390244-2.629572 2.629575.868903 4.984756 2.926829.583077 2.926829-4.973321 4.104419-2.641007 4.092989 2.046495 1.463415 3.807164-8.483233 4.104421 2.926829 2.046492-9.077743 2.926829-4.676066 4.973324-7.031251 4.092989-.285822 4.984756-4.687502-6.44817-5.853658.297254-1.76067 5.853659zm36.88262-54.4321682-2.343749 3.212655 3.807164 5.567833-.880334 2.629575 2.926829 2.926829 7.614331-6.733993-1.760673-2.046495.297258-3.212651-4.390244-3.224087zm-20.785059 79.904729 1.463414 4.092986 3.224084 4.687502c12.587655-2.926829 22.237045-9.95808 29.554119-17.858233l-11.112805-.8803346-8.780488-3.807164-3.224087 1.7606693-1.166157-5.2705786-18.155488-7.9001533-5.556404.5830801.880335 3.8071639-2.046492 9.0777455 4.973321 4.3902441 2.629575 2.9268286z" fill="#cddc39"/>
    <path d="m72.556405 6.878049-7.602899-.58308c-6.436736 6.139484-14.931401 11.12424-25.461126 13.170731l.285822.58308 3.224084 4.687502c12.587655-3.224087 22.5343-10.243903 29.554119-17.858233z" fill="#7cb342"/>
    <path d="m102.70503-13.907011c4.6875-11.707317 6.43674-24.878049 6.15092-36.585366-4.10442-5.853659-9.077747-11.112805-14.931406-14.919972 3.50991 10.243902 2.92683 27.507623-4.676066 45.948934-4.390244 10.5411604-21.368143 45.365854-58.833843 45.365854 6.733993 4.687502 14.336891 7.900153 22.534299 9.363568 22.5343-7.019819 39.512196-23.997714 49.756096-49.173018z" fill="#ffc107"/>
    <path d="m127 9.804878-14.63415 32.195122-17.858226-15.800303-10.529727-9.375 15.800306-2.629575c-10.243902-71.124238-27.804878-85.758384-39.798018-89.268294h2.629572c6.150916 0 12.004575.880335 17.263721 2.926829h.297255c21.368137 12.004575 29.268297 63.5099109 31.314787 79.3216496.29725 2.9268284.58308 4.6760664.58308 4.6760664z" fill="#ffc107"/>
    <path d="m97.148628-1.9024389c-1.463414 2.6295747-2.926829 5.2705786-4.687498 7.6143308-1.16616-7.9115855-2.629575-15.5144841-4.390244-22.2484779.58308-.880334.880335-1.760669 1.177592-2.629572.868903-2.343752 1.749237-4.687501 2.629572-7.03125 1.760672 7.03125 3.509909 14.931401 5.270578 24.2949691zm11.124242-34.8246941c-2.92683-9.660826-6.734-19.024391-11.707319-26.638722 0 0-.297257-.297254-.297257-.297254-.880335-.58308-1.463415-1.16616-2.34375-1.463415 1.177593 3.521342 1.76067 7.614328 2.046495 12.587652 4.390241 9.077742 7.614331 19.60747 9.958081 29.565548 1.16616-4.687499 1.74924-9.363565 2.34375-13.753809z" fill="#ffa000"/>
  </g>
</svg>
