<svg fill="none" height="128" viewBox="0 0 128 128" width="128" xmlns="http://www.w3.org/2000/svg" xmlns:xlink="http://www.w3.org/1999/xlink"><linearGradient id="a" gradientTransform="matrix(1.1818183 0 0 1.134943 11.636392 213.40334)" gradientUnits="userSpaceOnUse" x1="-108" x2="-20" y1="-274" y2="-274"><stop offset="0" stop-color="#c92014"/><stop offset=".045" stop-color="#f9786e"/><stop offset=".091" stop-color="#d83b2f"/><stop offset=".909" stop-color="#d83b2f"/><stop offset=".955" stop-color="#f9786e"/><stop offset="1" stop-color="#c92014"/></linearGradient><rect fill="url(#a)" height="45.397717" rx="9.454547" stroke-width="1.158144" transform="scale(-1)" width="104" x="-116" y="-118"/><path d="m20 10c-4.432 0-8 3.568-8 8v42 42c0 4.432 3.568 8 8 8h44 44c4.432 0 8-3.568 8-8v-42-42c0-4.432-3.568-8-8-8z" fill="#f44336"/><path d="m20.666666 15v11.111123l24.444442 14.44443 24.444442-14.44443v-11.111123l-24.444442 14.44443zm24.444442 25.555553h-24.444442v11.111123h48.888884v-11.111123zm27.777775-25.555553v36.666676h34.444447v-36.666676zm3.43403 41.564664v48.132796h14.700085c4.570287 0 7.974842-1.13884 10.213972-3.4171 2.23912-2.27823 3.35893-5.738629 3.35893-10.381043 0-3.030516-.52134-5.587942-1.56423-7.672747-1.04289-2.084806-2.51537-3.514462-4.4171-4.28821 1.48765-.795238 2.62279-2.009333 3.40495-3.642792.78216-1.65495 1.17318-3.653827 1.17318-5.996525 0-4.44903-1.07382-7.683674-3.220919-9.704006-2.131785-2.020296-5.582333-3.030374-10.351998-3.030374zm-55.656247.657537v47.777799h11.111109v-47.777799zm17.777776 0v47.777799h11.111111v-47.777799zm17.777779 0v47.777799h11.111107v-47.777799zm28.957461 7.789066h4.900174c1.395621 0 2.453657.440421 3.174474 1.321623.720822.859711 1.0816 2.117187 1.0816 3.772136 0 1.676441-.360788 2.944553-1.0816 3.804264-.720817.859711-1.778853 1.289495-3.174474 1.289495h-4.900174zm0 18.634122h5.199216c1.794367 0 3.136521.52671 4.026045 1.579876.889516 1.031639 1.334198 2.589662 1.334198 4.674468 0 2.127788-.452351 3.718553-1.357201 4.771684-.889516 1.053171-2.224001 1.579446-4.003042 1.579446h-5.199216z" fill="#fff" stroke-width=".839895"/></svg>