<svg fill="none" height="128" viewBox="0 0 128 128" width="128" xmlns="http://www.w3.org/2000/svg" xmlns:xlink="http://www.w3.org/1999/xlink">
  <linearGradient id="paint1_linear" gradientUnits="userSpaceOnUse" x1="90.9277" x2="107.785" y1="82.6598" y2="82.6598">
    <stop offset="0" stop-color="#e8e7e4"/>
    <stop offset=".5" stop-color="#fff"/>
    <stop offset="1" stop-color="#c9c6c1"/>
  </linearGradient>
  <path d="m20.2166 28.6444v90.3536h79.7111c4.3523 0 7.8563-3.505 7.8563-7.857v-74.6398c0-4.3527-3.504-7.8568-7.8563-7.8568z" fill="#26a269"/>
  <path d="m20.2155 101.323h7.8573v17.677h-7.8573z" fill="#191622"/>
  <path d="m22.1808 48.2863v68.7467h77.7469c4.3523 0 7.8573-3.504 7.8573-7.856v-53.0339c0-4.3526-3.505-7.8568-7.8573-7.8568z" fill="url(#paint1_linear)"/>
  <path d="m20.2166 28.6444v74.6396h79.7111c4.3523 0 7.8563-3.5042 7.8563-7.8569v-58.9259c0-4.3527-3.504-7.8568-7.8563-7.8568z" fill="#26a269"/>
  <path d="m20.2163 9.00195v92.31705h79.7112c4.3525 0 7.8565-3.5039 7.8565-7.8565v-76.6038c0-4.3526-3.504-7.85675-7.8565-7.85675z" fill="#33d17a"/>
  <path d="m20.2155 9h7.8573v92.318h-7.8573z" fill="#424048"/>
  <path d="m22.1808 9.0024h1.9642v92.3176h-1.9642z" fill="#fff" opacity=".223"/>
  <path d="m20.2155 101.323h7.8573v1.964h-7.8573z" fill="#191622"/>
  <g fill="#241f31" opacity=".2">
    <path d="m38.7226 60.7501c-.504 0-1.1402.0198-1.9087.0592-.7686.0394-1.2725.0657-1.5119.0788l.1701-1.7741c.4913-.092.8252-.2365 1.0016-.4336.1764-.1972.2646-.5323.2646-1.0054l.0189-7.0372c0-.6045-.1701-.9067-.5103-.9067-.126 0-.252.0065-.378.0197-.1259.0131-.2141.0197-.2645.0197l-.2268-.2366.2268-1.5769 3.1938.0394c.5543-.0132 1.2158-.0329 1.9843-.0592.7811-.0394 1.3292-.0657 1.6441-.0788 1.4111 0 2.482.2694 3.2127.8082.7308.5257 1.0961 1.2944 1.0961 2.3063 0 .6702-.1637 1.2419-.4913 1.715s-.7748.9067-1.3418 1.301c.7055.2628 1.2725.6111 1.7009 1.0447.4409.4205.6614 1.0251.6614 1.8135 0 2.7466-1.8142 4.1199-5.4427 4.1199-.2772-.0394-.8-.0854-1.5686-.138-.7685-.0526-1.2787-.0789-1.5307-.0789zm1.8142-7.668c.1134.0263.3465.0723.6993.138.3653.0526.6362.0789.8126.0789 0 .0262.0693-.0329.2079-.1775.1511-.1577.2834-.3548.3968-.5913.126-.2497.189-.5323.189-.8476 0-.46-.1512-.7951-.4536-1.0054-.3023-.2234-.7622-.3351-1.3795-.3351-.126 0-.2142.0197-.2646.0592-.0378.0394-.063.1117-.0756.2168-.0252.3548-.0567.8148-.0945 1.3799-.0252.5519-.0378.9133-.0378 1.0841zm-.1323 4.5141c0 .3154.1071.5454.3213.6899.2268.1446.5795.2169 1.0583.2169.4662 0 .8189-.1183 1.0583-.3549.2394-.2496.3591-.611.3591-1.0841 0-.3286-.1071-.6177-.3213-.8674-.2016-.2496-.4977-.4402-.8882-.5716h-1.493z"/>
    <path d="m48.0032 59.39c.4158-.092.6804-.2103.7938-.3548.126-.1577.189-.4534.189-.8871v-5.0857c0-.3154-.0378-.5191-.1134-.6111-.0756-.1051-.2205-.1577-.4347-.1577h-.378l-.1511-.2365.1322-1.2419h2.608c.4788 0 1.0079-.0065 1.5875-.0197.5921-.0263 1.0016-.0394 1.2283-.0394l-.1133 1.4981c-.3528.0526-.5796.1249-.6804.2168-.1008.092-.1638.2826-.189.5717-.1008 1.3667-.1512 3.1014-.1512 5.204 0 .4205.0315.7031.0945.8476.063.1314.1953.1971.3969.1971.1386 0 .2457-.0065.3213-.0197.0756-.0131.1197-.0197.1323-.0197l.1322.1774-.1322 1.3799c-.2142 0-.6048-.0132-1.1717-.0394-.5544-.0132-1.0646-.0198-1.5308-.0198-.5669 0-1.115.0066-1.6441.0198-.5166.0131-.8694.0262-1.0583.0394z"/>
    <path d="m62.2764 55.4673c.3654.092.7686.3088 1.2095.6505.4536.3417.6804.8608.6804 1.5572 0 1.1039-.3843 1.9253-1.1528 2.4641-.756.5256-1.915.7885-3.4773.7885-.2016-.0395-.611-.0789-1.2284-.1183-.6047-.0263-1.0772-.046-1.4174-.0592-.4283 0-.9764.0132-1.6441.0395s-1.1087.046-1.3229.0591l.1512-1.4981c.4032-.0657.674-.1709.8126-.3154.1386-.1577.2079-.414.2079-.7688l.0189-5.3026c0-.2102-.0378-.3745-.1134-.4928-.063-.1182-.1575-.1774-.2835-.1774l-.548.0197-.2079-.1971.2079-1.3404 2.7591.0394c.4788-.0131 1.0583-.0328 1.7387-.0591.6803-.0263 1.1591-.046 1.4362-.0592 1.1969 0 2.1041.2103 2.7214.6308.6173.4074.926 1.0119.926 1.8136 0 .6307-.1764 1.1433-.5291 1.5375-.3402.3811-.6552.6439-.945.7885zm-3.6662-2.4246c-.0252.368-.0504.7228-.0756 1.0645-.0126.3285-.0189.519-.0189.5716.0882.0131.2709.046.548.0986.2772.0525.4914.0788.6426.0788.0252-.0263.0819-.0854.1701-.1774s.1701-.2168.2456-.3745c.0882-.1709.1323-.3614.1323-.5717 0-.2891-.1134-.5059-.3401-.6505-.2142-.1445-.5544-.2168-1.0205-.2168-.1008 0-.1701.0131-.2079.0394s-.063.0723-.0756.138zm.8504 5.7559c.7055 0 1.0583-.3219 1.0583-.9659 0-.2102-.0756-.3942-.2268-.5519-.1512-.1708-.359-.3022-.6236-.3942l-1.1906-.0197-.0756 1.301c0 .2234.0819.3876.2457.4928.1764.0919.4472.1379.8126.1379z"/>
    <path d="m66.3446 59.114c.5291-.0525.9197-.1248 1.1717-.2168.2646-.1051.4472-.2694.548-.4928s.1512-.5454.1512-.9659v-7.0569c-.3528 0-.6173.0657-.7937.1971-.1638.1314-.2898.3811-.378.749-.0756.368-.1449.9462-.2079 1.7347l-2.3433.1577c.0756-1.5375.126-3.2591.1511-5.1646l.2457-.276 2.2489.2169h5.9341l2.2867-.2169.2456.276c.0252 2.2209.0567 3.8899.0945 5.0069l-2.3434.1577c-.063-.9068-.1322-1.5441-.2078-1.9121-.0756-.3811-.189-.6308-.3402-.749-.1512-.1183-.4032-.1774-.7559-.1774-.063 2.3917-.0945 4.7966-.0945 7.2146 0 .4994.0693.8542.2079 1.0645.1511.1971.4094.2956.7748.2956.2268 0 .548-.0197.9638-.0591l.0945.1183-.1701 1.8529c-1.6631-.0788-2.9418-.1183-3.8363-.1183-.8316 0-2.0978.0592-3.7986.1775z"/>
    <path d="m85.1464 62.5289c-.2142 1.1564-.3906 2.51-.5292 4.0607l-.2834.3154c-2.1166-.092-4.1387-.138-6.0664-.138-1.2346 0-2.5638.0657-3.9875.1971l.1701-1.8135c.4787-.0788.8-.2365.9638-.4731.1764-.2497.2646-.6702.2646-1.2616l.0189-6.6035c0-.4337-.0315-.7162-.0945-.8476-.063-.1446-.2016-.2169-.4158-.2169-.1764 0-.3401.0132-.4913.0394l-.2268-.2759.1701-1.5573c.252 0 .4472.0066.5858.0197 1.5371.0263 2.8096.0394 3.8175.0394 1.1843 0 2.3182-.0197 3.4017-.0591 1.096-.0526 1.9087-.1117 2.4378-.1774l.2457.3154c-.1008.5388-.1953 1.1827-.2835 1.9318-.0756.7491-.126 1.4127-.1512 1.9909l-2.6079.1774.0378-.7293c0-.3023-.0504-.5257-.1512-.6702-.0882-.1577-.2646-.2629-.5292-.3154-.2519-.0657-.6425-.0986-1.1716-.0986-.2646 0-.441.0329-.5292.0986-.0756.0657-.1134.2102-.1134.4336l-.1134 2.2275 1.5497.0197c.5039 0 1.1969-.0394 2.0788-.1183l.2268.276-.2646 2.2669c-1.2095-.0394-1.9654-.0591-2.2678-.0591-.2646 0-.737.0394-1.4174.1183l-.0189 1.6755c0 .3548.0189.6176.0567.7885.0504.1577.1323.2628.2457.3154.126.0525.3276.0788.6047.0788.567 0 .9891-.0526 1.2662-.1577.2772-.1051.4788-.2957.6048-.5716.1386-.2891.2457-.7425.3212-1.3602l2.419-.1774z"/>
    <path d="m91.5907 60.829.1323-1.6558c.3653-.0263.548-.1577.548-.3943 0-.1577-.0693-.3351-.2079-.5322l-1.1528-1.7347-.7181 1.2419c-.2142.3548-.3213.6176-.3213.7885 0 .2102.0567.3614.1701.4534.126.0919.315.1379.567.1379l.1133.2169-.0944 1.5967c-.2394-.0132-.6615-.0329-1.2662-.0592-.5922-.0263-1.1213-.046-1.5875-.0591-.315 0-.7685.0131-1.3607.0394-.5921.0394-.9827.0657-1.1716.0789l-.0945-.276.1134-1.577c.2771-.1314.6551-.4534 1.1338-.9659.4788-.5256.8946-1.0513 1.2473-1.5769l1.6631-2.5035-1.5497-2.3852c-.3779-.5782-.7181-.9659-1.0205-1.163-.2898-.1971-.6992-.3614-1.2284-.4928l-.0945-.1183.1701-1.7938c.1638 0 .5292.0066 1.0961.0197h2.23c.3528 0 .9197-.0131 1.7009-.0394.7811-.0394 1.3039-.0657 1.5685-.0788l.1134.2168-.1323 1.6164c-.4913 0-.737.1577-.737.4731 0 .2103.0756.4534.2268.7293.1511.2629.3338.552.548.8674.2142.3022.3528.5059.4158.6111l.359-.6308c.2016-.3417.3843-.6768.5481-1.0053.1638-.3286.2457-.552.2457-.6703 0-.1445-.0504-.2431-.1512-.2956-.1008-.0658-.2898-.0986-.567-.0986l-.0378-.1183.1134-1.577h2.9293c.5669 0 1.0772-.0065 1.5307-.0197.4536-.0131.7559-.0262.9071-.0394l.0756.1577-.0945 1.715c-.6047.3022-1.0835.6045-1.4362.9067-.3402.3023-.6678.7162-.9827 1.2419l-1.7765 2.8583 1.6442 2.4048c.4031.5914.7874 1.0185 1.1528 1.2813.3653.2629.7685.4008 1.2094.414l.0756.0788-.17 1.7741c-.2016 0-.5607-.0065-1.0772-.0197-.5166-.0263-1.008-.0394-1.4741-.0394-.3654 0-1.0268.0197-1.9843.0591-.9575.0395-1.6001.0657-1.9276.0789z"/>
  </g>
  <g fill="#f6f5f4">
    <path d="m38.7226 60.0067c-.504 0-1.1402.0189-1.9087.0567-.7686.0378-1.2725.063-1.5119.0756l.1701-1.7008c.4913-.0882.8252-.2268 1.0016-.4158s.2646-.5103.2646-.9638l.0189-6.7467c0-.5795-.1701-.8693-.5103-.8693-.126 0-.252.0063-.378.0189-.1259.0126-.2141.0189-.2645.0189l-.2268-.2268.2268-1.5118 3.1938.0378c.5543-.0126 1.2158-.0315 1.9843-.0567.7811-.0378 1.3292-.063 1.6441-.0756 1.4111 0 2.482.2582 3.2127.7748.7308.5039 1.0961 1.241 1.0961 2.2111 0 .6425-.1637 1.1906-.4913 1.6441-.3276.4536-.7748.8694-1.3418 1.2473.7055.252 1.2725.5859 1.7009 1.0016.4409.4032.6614.9827.6614 1.7387 0 2.6331-1.8142 3.9497-5.4427 3.9497-.2772-.0378-.8-.0819-1.5686-.1323-.7685-.0504-1.2787-.0756-1.5307-.0756zm1.8142-7.3514c.1134.0252.3465.0693.6993.1323.3653.0504.6362.0756.8126.0756 0 .0252.0693-.0315.2079-.1701.1511-.1512.2834-.3402.3968-.567.126-.2393.189-.5102.189-.8126 0-.4409-.1512-.7622-.4536-.9638-.3023-.2142-.7622-.3213-1.3795-.3213-.126 0-.2142.0189-.2646.0567-.0378.0378-.063.1071-.0756.2079-.0252.3402-.0567.7811-.0945 1.3229-.0252.5291-.0378.8756-.0378 1.0394zm-.1323 4.3277c0 .3024.1071.5229.3213.6614.2268.1386.5795.2079 1.0583.2079.4662 0 .8189-.1134 1.0583-.3401.2394-.2394.3591-.5859.3591-1.0395 0-.3149-.1071-.5921-.3213-.8315-.2016-.2394-.4977-.422-.8882-.548h-1.493z"/>
    <path d="m48.0032 58.7027c.4158-.0882.6804-.2015.7938-.3401.126-.1512.189-.4347.189-.8504v-4.8758c0-.3024-.0378-.4977-.1134-.5858-.0756-.1008-.2205-.1512-.4347-.1512h-.378l-.1511-.2268.1322-1.1906h2.608c.4788 0 1.0079-.0063 1.5875-.0189.5921-.0252 1.0016-.0378 1.2283-.0378l-.1133 1.4363c-.3528.0504-.5796.1197-.6804.2079-.1008.0881-.1638.2708-.189.548-.1008 1.3103-.1512 2.9733-.1512 4.9891 0 .4032.0315.6741.0945.8127.063.126.1953.1889.3969.1889.1386 0 .2457-.0063.3213-.0188.0756-.0126.1197-.0189.1323-.0189l.1322.17-.1322 1.3229c-.2142 0-.6048-.0126-1.1717-.0378-.5544-.0126-1.0646-.0189-1.5308-.0189-.5669 0-1.115.0063-1.6441.0189-.5166.0126-.8694.0252-1.0583.0378z"/>
    <path d="m62.2764 54.942c.3654.0882.7686.2961 1.2095.6236.4536.3276.6804.8253.6804 1.493 0 1.0583-.3843 1.8457-1.1528 2.3623-.756.5039-1.915.7559-3.4773.7559-.2016-.0378-.611-.0756-1.2284-.1134-.6047-.0252-1.0772-.0441-1.4174-.0567-.4283 0-.9764.0126-1.6441.0378s-1.1087.0441-1.3229.0567l.1512-1.4363c.4032-.063.674-.1637.8126-.3023.1386-.1512.2079-.3969.2079-.7371l.0189-5.0836c0-.2016-.0378-.3591-.1134-.4724-.063-.1134-.1575-.1701-.2835-.1701l-.548.0189-.2079-.189.2079-1.2851 2.7591.0378c.4788-.0126 1.0583-.0315 1.7387-.0567.6803-.0252 1.1591-.0441 1.4362-.0567 1.1969 0 2.1041.2016 2.7214.6048.6173.3905.926.9701.926 1.7386 0 .6047-.1764 1.0961-.5291 1.4741-.3402.3653-.6552.6173-.945.7559zm-3.6662-2.3245c-.0252.3528-.0504.6929-.0756 1.0205-.0126.315-.0189.4977-.0189.5481.0882.0126.2709.0441.548.0945.2772.0503.4914.0755.6426.0755.0252-.0252.0819-.0819.1701-.17.0882-.0882.1701-.2079.2456-.3591.0882-.1638.1323-.3465.1323-.5481 0-.2771-.1134-.485-.3401-.6236-.2142-.1386-.5544-.2079-1.0205-.2079-.1008 0-.1701.0126-.2079.0378s-.063.0693-.0756.1323zm.8504 5.5183c.7055 0 1.0583-.3087 1.0583-.926 0-.2016-.0756-.378-.2268-.5292-.1512-.1638-.359-.2897-.6236-.3779l-1.1906-.0189-.0756 1.2472c0 .2142.0819.3717.2457.4725.1764.0882.4472.1323.8126.1323z"/>
    <path d="m66.3446 58.4382c.5291-.0504.9197-.1197 1.1717-.2079.2646-.1008.4472-.2583.548-.4725s.1512-.5228.1512-.926v-6.7656c-.3528 0-.6173.063-.7937.189-.1638.126-.2898.3654-.378.7182-.0756.3527-.1449.9071-.2079 1.663l-2.3433.1512c.0756-1.4741.126-3.1245.1511-4.9514l.2457-.2645 2.2489.2079h5.9341l2.2867-.2079.2456.2645c.0252 2.1292.0567 3.7293.0945 4.8002l-2.3434.1512c-.063-.8693-.1322-1.4804-.2078-1.8331-.0756-.3654-.189-.6048-.3402-.7182s-.4032-.1701-.7559-.1701c-.063 2.293-.0945 4.5986-.0945 6.9168 0 .4788.0693.8189.2079 1.0205.1511.189.4094.2835.7748.2835.2268 0 .548-.0189.9638-.0567l.0945.1134-.1701 1.7764c-1.6631-.0756-2.9418-.1134-3.8363-.1134-.8316 0-2.0978.0567-3.7986.1701z"/>
    <path d="m85.1464 61.712c-.2142 1.1087-.3906 2.4064-.5292 3.8931l-.2834.3023c-2.1166-.0881-4.1387-.1322-6.0664-.1322-1.2346 0-2.5638.063-3.9875.1889l.1701-1.7386c.4787-.0756.8-.2268.9638-.4536.1764-.2393.2646-.6425.2646-1.2094l.0189-6.331c0-.4157-.0315-.6866-.0945-.8126-.063-.1386-.2016-.2079-.4158-.2079-.1764 0-.3401.0126-.4913.0378l-.2268-.2645.1701-1.493c.252 0 .4472.0063.5858.0189 1.5371.0252 2.8096.0378 3.8175.0378 1.1843 0 2.3182-.0189 3.4017-.0567 1.096-.0504 1.9087-.1071 2.4378-.1701l.2457.3024c-.1008.5165-.1953 1.1339-.2835 1.852-.0756.7181-.126 1.3544-.1512 1.9087l-2.6079.1701.0378-.6992c0-.2898-.0504-.504-.1512-.6426-.0882-.1511-.2646-.2519-.5292-.3023-.2519-.063-.6425-.0945-1.1716-.0945-.2646 0-.441.0315-.5292.0945-.0756.063-.1134.2016-.1134.4157l-.1134 2.1355 1.5497.0189c.5039 0 1.1969-.0378 2.0788-.1134l.2268.2646-.2646 2.1733c-1.2095-.0378-1.9654-.0567-2.2678-.0567-.2646 0-.737.0378-1.4174.1134l-.0189 1.6064c0 .3401.0189.5921.0567.7559.0504.1512.1323.252.2457.3024.126.0504.3276.0756.6047.0756.567 0 .9891-.0504 1.2662-.1512.2772-.1008.4788-.2835.6048-.5481.1386-.2771.2457-.7118.3212-1.304l2.419-.17z"/>
    <path d="m91.5907 60.0823.1323-1.5874c.3653-.0252.548-.1512.548-.378 0-.1512-.0693-.3213-.2079-.5103l-1.1528-1.663-.7181 1.1906c-.2142.3402-.3213.5921-.3213.7559 0 .2016.0567.3465.1701.4347.126.0882.315.1323.567.1323l.1133.2078-.0944 1.5308c-.2394-.0126-.6615-.0315-1.2662-.0567-.5922-.0252-1.1213-.0441-1.5875-.0567-.315 0-.7685.0126-1.3607.0378-.5921.0378-.9827.063-1.1716.0756l-.0945-.2646.1134-1.5118c.2771-.126.6551-.4347 1.1338-.9261.4788-.5039.8946-1.0079 1.2473-1.5118l1.6631-2.4001-1.5497-2.2867c-.3779-.5543-.7181-.926-1.0205-1.115-.2898-.189-.6992-.3464-1.2284-.4724l-.0945-.1134.1701-1.7198c.1638 0 .5292.0063 1.0961.0189h2.23c.3528 0 .9197-.0126 1.7009-.0378.7811-.0378 1.3039-.063 1.5685-.0756l.1134.2079-.1323 1.5497c-.4913 0-.737.1512-.737.4535 0 .2016.0756.4347.2268.6993.1511.252.3338.5291.548.8315.2142.2898.3528.4851.4158.5858l.359-.6047c.2016-.3276.3843-.6488.5481-.9638s.2457-.5292.2457-.6425c0-.1386-.0504-.2331-.1512-.2835-.1008-.063-.2898-.0945-.567-.0945l-.0378-.1134.1134-1.5119h2.9293c.5669 0 1.0772-.0063 1.5307-.0189.4536-.0126.7559-.0252.9071-.0378l.0756.1512-.0945 1.6442c-.6047.2898-1.0835.5795-1.4362.8693-.3402.2898-.6678.6866-.9827 1.1906l-1.7765 2.7402 1.6442 2.3056c.4031.567.7874.9764 1.1528 1.2284.3653.252.7685.3843 1.2094.3969l.0756.0756-.17 1.7008c-.2016 0-.5607-.0063-1.0772-.0189-.5166-.0252-1.008-.0378-1.4741-.0378-.3654 0-1.0268.0189-1.9843.0567s-1.6001.063-1.9276.0756z"/>
  </g>
  <path d="m47.4827 24.2272c0-1.4094.2568-2.7157.7706-3.9189.4816-1.1688 1.1559-2.0969 2.0228-2.7845.8349-.6531 1.766-.9797 2.7935-.9797.6422 0 1.3165.1203 2.0229.3609.7064.2751 1.6375.6704 2.7934 1.186.867.4126 1.5413.7048 2.0229.8766.4816.2063.9151.3094 1.3004.3094 1.7018 0 2.8738-1.2375 3.5159-3.7126l3.6604.2062c.3211 1.1001.7546 1.9595 1.3005 2.5783.5458.6187 1.1559.9281 1.8302.9281.4174 0 .8829-.1031 1.3967-.3094.5137-.1718 1.2201-.4812 2.1192-.9281 1.0917-.5157 1.9586-.8938 2.6008-1.1345.6743-.2406 1.3165-.3609 1.9265-.3609 1.6697 0 3.0183.825 4.0457 2.4751 1.0275 1.6844 1.5413 3.8673 1.5413 6.5487 0 .8938-.0803 1.822-.2409 2.7845-.1605.9625-.2729 1.5813-.3371 1.8563l-.7706.5157-3.9976-.9282c.0321-.1031.0803-.3609.1445-.7735.0642-.3781.0964-.7219.0964-1.0313 0-.825-.2088-1.461-.6262-1.9078-.4174-.4469-1.0114-.6704-1.782-.6704-.6101 0-1.5733.2235-2.8898.6704-.578.1718-1.172.3265-1.782.464-.578.1719-1.0757.2579-1.4931.2579-.9954 0-1.8623-.3438-2.6008-1.0313-.7064-.6532-1.2041-1.5642-1.4931-2.733h-.2408c-.7706 2.5095-2.2155 3.7643-4.3347 3.7643-.7706 0-2.0229-.2407-3.7567-.7219-1.5413-.4469-2.633-.6704-3.2751-.6704-.867 0-1.5573.2406-2.0711.7219-.4816.5157-.7224 1.2204-.7224 2.1142 0 .3437.0321.6703.0963.9797s.1124.5156.1445.6188l-.6261.6703-3.9976-.7219c-.0642-.1031-.1766-.3781-.3371-.825-.1927-.4125-.3693-1.0313-.5298-1.8564-.1606-.825-.2408-1.7875-.2408-2.8876z" fill="#241f31" opacity=".2"/>
  <path d="m47.4827 88.3115c0 1.4094.2568 2.7157.7706 3.9189.4816 1.1688 1.1559 2.097 2.0228 2.7845.8349.6532 1.766.9797 2.7935.9797.6422 0 1.3165-.1203 2.0229-.3609.7064-.275 1.6375-.6704 2.7934-1.186.867-.4125 1.5413-.7047 2.0229-.8766.4816-.2063.9151-.3094 1.3004-.3094 1.7018 0 2.8738 1.2376 3.5159 3.7127l3.6604-.2063c.3211-1.1.7546-1.9594 1.3005-2.5782.5458-.6188 1.1559-.9282 1.8302-.9282.4174 0 .8829.1031 1.3967.3094.5137.1719 1.2201.4813 2.1192.9282 1.0917.5156 1.9586.8938 2.6008 1.1344.6743.2406 1.3165.3609 1.9265.3609 1.6697 0 3.0183-.825 4.0457-2.4751 1.0275-1.6844 1.5413-3.8673 1.5413-6.5487 0-.8938-.0803-1.8219-.2409-2.7845-.1605-.9625-.2729-1.5813-.3371-1.8563l-.7706-.5156-3.9976.9281c.0321.1032.0803.361.1445.7735.0642.3781.0964.7219.0964 1.0313 0 .825-.2088 1.461-.6262 1.9079s-1.0114.6703-1.782.6703c-.6101 0-1.5733-.2234-2.8898-.6703-.578-.1719-1.172-.3266-1.782-.4641-.578-.1719-1.0757-.2578-1.4931-.2578-.9954 0-1.8623.3437-2.6008 1.0313-.7064.6531-1.2041 1.5641-1.4931 2.7329h-.2408c-.7706-2.5095-2.2155-3.7642-4.3347-3.7642-.7706 0-2.0229.2406-3.7567.7219-1.5413.4469-2.633.6703-3.2751.6703-.867 0-1.5573-.2406-2.0711-.7219-.4816-.5156-.7224-1.2203-.7224-2.1141 0-.3438.0321-.6704.0963-.9798s.1124-.5156.1445-.6187l-.6261-.6704-3.9976.7219c-.0642.1032-.1766.3782-.3371.8251-.1927.4125-.3693 1.0313-.5298 1.8563-.1606.825-.2408 1.7876-.2408 2.8876z" fill="#241f31" opacity=".2"/>
  <path d="m47.4827 23.6558c0-1.3165.2568-2.5366.7706-3.6604.4816-1.0917 1.1559-1.9587 2.0228-2.6008.8349-.6101 1.766-.9151 2.7935-.9151.6422 0 1.3165.1124 2.0229.3371.7064.2569 1.6375.6261 2.7934 1.1078.867.3853 1.5413.6582 2.0229.8187.4816.1927.9151.289 1.3004.289 1.7018 0 2.8738-1.1559 3.5159-3.4677l3.6604.1926c.3211 1.0275.7546 1.8302 1.3005 2.4082.5458.5779 1.1559.8669 1.8302.8669.4174 0 .8829-.0963 1.3967-.289.5137-.1605 1.2201-.4495 2.1192-.8669 1.0917-.4816 1.9586-.8348 2.6008-1.0596.6743-.2247 1.3165-.3371 1.9265-.3371 1.6697 0 3.0183.7706 4.0457 2.3118 1.0275 1.5733 1.5413 3.6123 1.5413 6.1167 0 .8349-.0803 1.7018-.2409 2.6009-.1605.899-.2729 1.477-.3371 1.7338l-.7706.4817-3.9976-.867c.0321-.0963.0803-.3371.1445-.7224.0642-.3532.0964-.6743.0964-.9633 0-.7706-.2088-1.3646-.6262-1.782s-1.0114-.6261-1.782-.6261c-.6101 0-1.5733.2087-2.8898.6261-.578.1605-1.172.305-1.782.4334-.578.1606-1.0757.2409-1.4931.2409-.9954 0-1.8623-.3211-2.6008-.9633-.7064-.6101-1.2041-1.461-1.4931-2.5527h-.2408c-.7706 2.344-2.2155 3.516-4.3347 3.516-.7706 0-2.0229-.2248-3.7567-.6743-1.5413-.4174-2.633-.6261-3.2751-.6261-.867 0-1.5573.2247-2.0711.6742-.4816.4817-.7224 1.1399-.7224 1.9747 0 .3211.0321.6262.0963.9151.0642.289.1124.4817.1445.578l-.6261.6261-3.9976-.6743c-.0642-.0963-.1766-.3532-.3371-.7706-.1927-.3853-.3693-.9632-.5298-1.7339-.1606-.7706-.2408-1.6696-.2408-2.6971z" fill="#f6f5f4"/>
  <path d="m47.4827 87.8829c0 1.3165.2568 2.5366.7706 3.6604.4816 1.0917 1.1559 1.9587 2.0228 2.6009.8349.61 1.766.9151 2.7935.9151.6422 0 1.3165-.1124 2.0229-.3372.7064-.2568 1.6375-.6261 2.7934-1.1077.867-.3853 1.5413-.6583 2.0229-.8188.4816-.1927.9151-.289 1.3004-.289 1.7018 0 2.8738 1.1559 3.5159 3.4678l3.6604-.1927c.3211-1.0275.7546-1.8302 1.3005-2.4082.5458-.5779 1.1559-.8669 1.8302-.8669.4174 0 .8829.0963 1.3967.289.5137.1605 1.2201.4495 2.1192.8669 1.0917.4817 1.9586.8349 2.6008 1.0596.6743.2248 1.3165.3372 1.9265.3372 1.6697 0 3.0183-.7706 4.0457-2.3119 1.0275-1.5733 1.5413-3.6122 1.5413-6.1167 0-.8348-.0803-1.7018-.2409-2.6008-.1605-.8991-.2729-1.477-.3371-1.7339l-.7706-.4816-3.9976.8669c.0321.0963.0803.3371.1445.7225.0642.3531.0964.6742.0964.9632 0 .7706-.2088 1.3646-.6262 1.7821-.4174.4174-1.0114.6261-1.782.6261-.6101 0-1.5733-.2087-2.8898-.6261-.578-.1606-1.172-.3051-1.782-.4335-.578-.1606-1.0757-.2408-1.4931-.2408-.9954 0-1.8623.3211-2.6008.9632-.7064.6101-1.2041 1.461-1.4931 2.5527h-.2408c-.7706-2.344-2.2155-3.5159-4.3347-3.5159-.7706 0-2.0229.2247-3.7567.6743-1.5413.4174-2.633.6261-3.2751.6261-.867 0-1.5573-.2248-2.0711-.6743-.4816-.4816-.7224-1.1399-.7224-1.9747 0-.3211.0321-.6261.0963-.9151s.1124-.4816.1445-.578l-.6261-.6261-3.9976.6743c-.0642.0963-.1766.3532-.3371.7706-.1927.3853-.3693.9633-.5298 1.7339-.1606.7706-.2408 1.6697-.2408 2.6971z" fill="#f6f5f4"/>
</svg>
