<svg fill="none" height="128" viewBox="0 0 128 128" width="128" xmlns="http://www.w3.org/2000/svg">
  <path d="m117 63c0 13.7912-5.479 27.0176-15.23 36.7695-9.7523 9.7515-22.9787 15.2305-36.77 15.2305-6.8287 0-13.5906-1.345-19.8995-3.958-6.309-2.614-12.0414-6.444-16.87-11.2724-4.8287-4.8287-8.659-10.5611-11.2722-16.8701-2.6133-6.3089-3.9583-13.0708-3.9583-19.8995s1.345-13.5906 3.9583-19.8995c2.6132-6.309 6.4435-12.0414 11.2722-16.8701 4.8286-4.8286 10.561-8.6589 16.87-11.2721 6.3089-2.6133 13.0708-3.9583 19.8995-3.9583 13.7913 0 27.0177 5.4786 36.77 15.2304 9.751 9.7519 15.23 22.9783 15.23 36.7696z" fill="#62a0ea" opacity=".347"/>
  <path d="m117 61.2667c0 13.7912-5.479 27.0176-15.23 36.7695-9.7523 9.7518-22.9787 15.2308-36.77 15.2308-6.8287 0-13.5906-1.345-19.8995-3.959-6.309-2.613-12.0414-6.443-16.87-11.2718-4.8287-4.8286-8.659-10.5611-11.2722-16.87-2.6133-6.3089-3.9583-13.0708-3.9583-19.8995 0-6.8288 1.345-13.5906 3.9583-19.8996 2.6132-6.3089 6.4435-12.0413 11.2722-16.87 4.8286-4.8286 10.561-8.6589 16.87-11.2722 6.3089-2.6132 13.0708-3.95824 19.8995-3.95824 13.7913 0 27.0177 5.47854 36.77 15.23044 9.751 9.7519 15.23 22.9783 15.23 36.7696z" fill="#62a0ea"/>
  <g fill="#f6f5f4">
    <path clip-rule="evenodd" d="m98.0926 94.3593c8.7764-8.7768 13.7074-20.6805 13.7074-33.0926 0-12.4122-4.931-24.3159-13.7074-33.0926-8.7767-8.7767-20.6805-13.7074-33.0926-13.7074-6.1459 0-12.2315 1.2105-17.9096 3.5624-5.678 2.3519-10.8372 5.7992-15.183 10.145s-7.793 9.5049-10.145 15.183c-2.3519 5.678-3.5624 11.7637-3.5624 17.9096 0 6.1458 1.2105 12.2315 3.5624 17.9095 2.352 5.6781 5.7992 10.8373 10.145 15.1831 4.3458 4.3457 9.505 7.7927 15.183 10.1447 5.6781 2.352 11.7637 3.563 17.9096 3.563 12.4121 0 24.3159-4.931 33.0926-13.7077zm3.6774 3.6769c9.751-9.7519 15.23-22.9783 15.23-36.7695 0-13.7913-5.479-27.0177-15.23-36.7696-9.7523-9.7519-22.9787-15.23044-36.77-15.23044-6.8287 0-13.5906 1.34504-19.8995 3.95824-6.309 2.6133-12.0414 6.4436-16.87 11.2722-4.8287 4.8287-8.659 10.5611-11.2722 16.87-2.6133 6.309-3.9583 13.0708-3.9583 19.8996 0 6.8287 1.345 13.5906 3.9583 19.8995 2.6132 6.3089 6.4435 12.0414 11.2722 16.87 4.8286 4.8288 10.561 8.6588 16.87 11.2718 6.3089 2.614 13.0708 3.959 19.8995 3.959 13.7913 0 27.0177-5.479 36.77-15.2308z" fill-rule="evenodd"/>
    <path d="m44.6526 42.2184c-.2871-.0176-.5644.0702-.7929.2991l-4.9531 4.9285c-.4569.4545-.4569 1.1867 0 1.6414l5.1171 7.998c-.4096.8221-.7642 1.6705-1.0617 2.5391l-9.2955 2.0539c-.6463.0001-1.1665.5176-1.1665 1.1609v6.9642c0 .6432.5357 1.0213 1.1665 1.1608l9.3001 2.0584c.2881.8599.632 1.7008 1.0298 2.5164l-5.1262 8.0162c-.347.5422-.457 1.1867 0 1.6413l4.9485 4.9285c.4569.4545 1.1925.4545 1.6495 0l8.0561-5.1052c.8333.4132 1.6934.7703 2.5745 1.0699l2.0641 9.2495c0 .6431.5203 1.1607 1.1665 1.1607h6.999c.6463 0 1.0263-.5326 1.1665-1.1607l2.0687-9.254c.8773-.2913 1.7343-.6396 2.5654-1.0429l8.0197 5.0827c.4569.4545 1.1925.4545 1.6495 0l4.9531-4.9285c.4569-.4544.3469-1.0988 0-1.6413l-2.1872-3.4187-1.6313.6484-5.2265-7.7986c-2.6339 5.8277-8.4556 9.5785-14.8774 9.585-9.0193 0-16.3309-7.2753-16.3309-16.25.0072-6.2698 3.6389-11.9761 9.332-14.6632v-4.9965c-.7851.2676-1.5534.5809-2.3011.9386l-8.0197-5.0827c-.2727-.1728-.5695-.286-.8566-.2992z"/>
    <path d="m69.8279 31.5-11.6649 1.0745v45.3542l11.6649-2.3215v-18.5714l13.998 20.8929 11.665-4.6429-15.1645-19.5327 15.1736-19.9317-12.2163-2.3214-13.4558 19.7322z"/>
  </g>
</svg>
