<svg enable-background="new" height="128" viewBox="0 0 128 128" width="128" xmlns="http://www.w3.org/2000/svg">
  <g enable-background="new" transform="translate(162.99495 -137.37942)">
    <rect fill="#5e5c64" height="88" rx="8" ry="8.8" width="112" x="-155" y="165.38"/>
    <path d="m-154.99495 243.37942v2c0 4.432 3.568 8 8 8h96c4.432 0 8-3.568 8-8v-2c0 4.432-3.568 8-8 8h-96c-4.432 0-8-3.568-8-8z" fill="#6e6e6e"/>
    <g transform="matrix(1.0117647 0 0 1.0117647 6.518613 -2.479152)">
      <path d="m-105.92132 169.17595.12767 81.73078h6.410768v-81.73078z" fill="#e01b24"/>
      <path d="m-118.99824 184.22963v4.90384h6.53845v-4.90384zm-6.53846 9.80768v4.90386h13.07691v-4.90386zm-13.07692 9.8077v4.90385h26.15383v-4.90385zm-6.53847 9.80769v4.90385h32.6923v-4.90385zm6.53847 9.80769v4.90385h26.15383v-4.90385zm13.07692 9.80769v4.90386h13.07691v-4.90386z" fill-rule="evenodd" opacity=".2"/>
      <path d="m-118.99824 182.25289v4.90384h6.53845v-4.90384zm-6.53846 9.80768v4.90386h13.07691v-4.90386zm-13.07692 9.8077v4.90385h26.15383v-4.90385zm-6.53847 9.80769v4.90385h32.6923v-4.90385zm6.53847 9.80769v4.90385h26.15383v-4.90385zm13.07692 9.80769v4.90386h13.07691v-4.90386z" fill="#62a0ea" fill-rule="evenodd"/>
      <path d="m-90.302088 193.05955c-1.203929.0649-2.500306 1.12353-2.497289 2.2965l-.04494 34.63218c0 1.56409 2.302066 2.9251 3.618982 1.99592l24.811105-17.37528c1.325512-.91771 1.322484-3.07041 0-3.9922l-24.765099-17.25656c-.330566-.23025-.720375-.32198-1.121862-.30055z" opacity=".2"/>
      <path d="m-89.575157 167.88347h-13.076933-13.07692l6.53847 9.80769 6.53845 9.8077 6.538467-9.8077z" opacity=".2"/>
      <path d="m-89.575157 165.90673h-13.076933-13.07692l6.53847 9.80769 6.53845 9.8077 6.538467-9.8077z" fill="#f66151"/>
      <path d="m-90.302088 191.08281c-1.203929.0649-2.500306 1.12353-2.497289 2.2965l-.04494 34.63218c0 1.56409 2.302066 2.9251 3.618982 1.99592l24.811105-17.37528c1.325512-.91771 1.322484-3.07041 0-3.9922l-24.765099-17.25656c-.330566-.23025-.720375-.32198-1.121862-.30055z" fill="#1c71d8"/>
    </g>
  </g>
</svg>
