<svg fill="none" height="128" viewBox="0 0 128 128" width="128" xmlns="http://www.w3.org/2000/svg" xmlns:xlink="http://www.w3.org/1999/xlink">
  <linearGradient id="paint0_linear" gradientUnits="userSpaceOnUse" x1="12" x2="116" y1="64" y2="64">
    <stop offset="0" stop-color="#613583"/>
    <stop offset=".05" stop-color="#c061cb"/>
    <stop offset=".1" stop-color="#9141ac"/>
    <stop offset=".9" stop-color="#9141ac"/>
    <stop offset=".95" stop-color="#c061cb"/>
    <stop offset="1" stop-color="#613583"/>
  </linearGradient>
  <path d="m108 22h-88c-4.4183 0-8 3.5817-8 8v78c0 4.418 3.5817 8 8 8h88c4.418 0 8-3.582 8-8v-78c0-4.4183-3.582-8-8-8z" fill="url(#paint0_linear)"/>
  <path d="m108 12h-88c-4.4183 0-8 3.5817-8 8v80c0 4.418 3.5817 8 8 8h88c4.418 0 8-3.582 8-8v-80c0-4.4183-3.582-8-8-8z" fill="#dc8add"/>
  <path d="m30.8519 55.3333h16.6666v33.3334c0 4.6023-3.7309 8.3333-8.3333 8.3333-4.6024 0-8.3333-3.7309-8.3333-8.3333z" fill="#f66151"/>
  <path d="m55.8519 67.3704h16.6666v21.2963c0 4.6023-3.7309 8.3333-8.3333 8.3333-4.6024 0-8.3333-3.731-8.3333-8.3333z" fill="#33d17a"/>
  <path d="m80.8519 48.8518h16.6666v39.8149c0 4.6023-3.7309 8.3333-8.3333 8.3333-4.6024 0-8.3333-3.731-8.3333-8.3333z" fill="#3584e4"/>
  <path d="m30.8519 54.4074h16.6666v33.3333c0 4.6024-3.7309 8.3334-8.3333 8.3334-4.6024 0-8.3333-3.731-8.3333-8.3334z" fill="#f66151"/>
  <path d="m55.8519 66.4445h16.6666v21.2963c0 4.6023-3.7309 8.3333-8.3333 8.3333-4.6024 0-8.3333-3.731-8.3333-8.3333z" fill="#33d17a"/>
  <path d="m80.8519 47.9259h16.6666v39.8149c0 4.6023-3.7309 8.3333-8.3333 8.3333-4.6024 0-8.3333-3.731-8.3333-8.3334z" fill="#3584e4"/>
  <g fill="#f6f5f4" opacity=".3">
    <path d="m30.8519 29.4074h16.6666v58.3333c0 4.6024-3.7309 8.3334-8.3333 8.3334-4.6024 0-8.3333-3.731-8.3333-8.3334z"/>
    <path d="m55.8519 29.4074h16.6666v58.3333c0 4.6024-3.7309 8.3334-8.3333 8.3334-4.6024 0-8.3333-3.731-8.3333-8.3334z"/>
    <path d="m80.8519 29.4074h16.6666v58.3333c0 4.6024-3.7309 8.3334-8.3333 8.3334-4.6024 0-8.3333-3.731-8.3333-8.3334z"/>
    <rect height="7.40741" rx="1" width="20.3704" x="29" y="22"/>
    <rect height="7.40741" rx="1" width="20.3704" x="54" y="22"/>
    <rect height="7.40741" rx="1" width="20.3704" x="79" y="22"/>
  </g>
</svg>
