<svg height="128pt" viewBox="0 0 128 128" width="128pt" xmlns="http://www.w3.org/2000/svg">
  <path d="m18.453 59.488h91.094l9.453 15.899h-110z" fill="#77767b"/>
  <path d="m109.547 59.488 9.453 15.899h-27.393v-15.899z" fill="#5e5c64"/>
  <path d="m18.453 59.488-9.453 15.899h27.393v-15.899z" fill="#5e5c64"/>
  <path d="m70.323 87.648h38.916c1.954 0 3.538-1.872 3.538-4.181v-51.279c0-2.309-1.584-4.181-3.538-4.181h-38.916c-1.954 0-3.537 1.872-3.537 4.181v51.279c0 2.309 1.583 4.181 3.537 4.181z" fill="#33d17a"/>
  <path d="m70.323 86.764h38.916c1.954 0 3.538-1.872 3.538-4.182v-51.278c0-2.31-1.584-4.182-3.538-4.182h-38.916c-1.954 0-3.537 1.872-3.537 4.182v51.278c0 2.31 1.583 4.182 3.537 4.182z" fill="#d5d3cf"/>
  <path d="m70.323 84.11h38.916c1.954 0 3.538-1.584 3.538-3.538v-52.566c0-1.953-1.584-3.537-3.538-3.537h-38.916c-1.954 0-3.537 1.584-3.537 3.537v52.566c0 1.954 1.583 3.538 3.537 3.538z" fill="#f6f5f4"/>
  <path d="m75.299 37.752c.051.046.076.097.076.152 0 .05-.021.096-.062.137-.037.037-.08.055-.131.055-.041 0-.085-.018-.13-.055l-2.695-2.289v2.131c0 .064-.021.117-.062.158-.037.041-.087.062-.152.062-.064 0-.116-.021-.158-.062-.036-.041-.055-.094-.055-.158v-4.476c0-.064.019-.117.055-.158.042-.041.094-.062.158-.062.065 0 .115.021.152.062.041.041.062.094.062.158v2.07l2.557-2.228c.037-.036.08-.055.131-.055.05 0 .096.021.137.062.041.037.062.08.062.131 0 .055-.025.105-.076.151l-2.392 2.056zm1.075.317c-.065 0-.12-.021-.165-.062-.042-.042-.062-.092-.062-.152v-4.42c0-.06.02-.11.062-.151.045-.042.1-.062.165-.062h1.333c.766 0 1.357.208 1.774.625.422.417.633 1.016.633 1.795s-.211 1.379-.633 1.801c-.417.417-1.008.626-1.774.626zm1.313-.372c1.32 0 1.98-.685 1.98-2.055 0-1.366-.66-2.049-1.98-2.049h-1.114v4.104zm3.701.406c-.064 0-.116-.021-.158-.062-.036-.041-.055-.094-.055-.158v-4.476c0-.064.019-.117.055-.158.042-.041.094-.062.158-.062.065 0 .115.021.152.062.041.041.062.094.062.158v4.476c0 .064-.021.117-.062.158-.037.041-.087.062-.152.062zm2.765-4.531c-.261.019-.458.101-.591.248-.133.142-.2.362-.2.66v.254h.832c.06 0 .106.016.138.048s.048.074.048.124c0 .051-.016.092-.048.124-.032.027-.078.041-.138.041h-.832v2.819c0 .064-.02.117-.061.158-.042.037-.092.055-.152.055-.064 0-.114-.018-.151-.055-.036-.037-.055-.089-.055-.158v-2.819h-.522c-.055 0-.099-.014-.131-.041-.032-.032-.048-.073-.048-.124 0-.05.016-.092.048-.124s.076-.048.131-.048h.522v-.172c0-.403.096-.719.289-.948.197-.23.481-.358.852-.385l.179-.014c.179-.014.268.039.268.158 0 .11-.066.172-.199.186zm2.196 0c-.262.019-.459.101-.592.248-.133.142-.199.362-.199.66v.254h.832c.059 0 .105.016.137.048s.048.074.048.124c0 .051-.016.092-.048.124-.032.027-.078.041-.137.041h-.832v2.819c0 .064-.021.117-.062.158-.041.037-.092.055-.151.055-.064 0-.115-.018-.151-.055-.037-.037-.055-.089-.055-.158v-2.819h-.523c-.055 0-.098-.014-.131-.041-.032-.032-.048-.073-.048-.124 0-.05.016-.092.048-.124.033-.032.076-.048.131-.048h.523v-.172c0-.403.096-.719.288-.948.197-.23.482-.358.853-.385l.179-.014c.178-.014.268.039.268.158 0 .11-.067.172-.2.186zm2.738 4.531c-.064 0-.116-.018-.158-.055-.036-.037-.055-.089-.055-.158v-3.011c0-.069.019-.122.055-.159.042-.036.094-.055.158-.055.065 0 .115.019.152.055.036.037.055.09.055.159v3.011c0 .069-.019.121-.055.158-.037.037-.087.055-.152.055zm0-4.214c-.091 0-.167-.028-.226-.083-.055-.055-.083-.126-.083-.213 0-.092.028-.165.083-.22.059-.055.135-.083.226-.083.092 0 .165.028.22.083.06.055.09.128.09.22 0 .087-.03.158-.09.213-.055.055-.128.083-.22.083zm2.391 4.228c-.193 0-.383-.025-.571-.076-.183-.055-.346-.128-.488-.22-.087-.059-.149-.11-.186-.151-.032-.046-.048-.096-.048-.151 0-.046.014-.085.041-.117.033-.032.069-.048.11-.048.042 0 .113.034.214.103.133.087.268.158.405.213.142.055.319.082.53.082.27 0 .481-.048.632-.144.151-.101.227-.243.227-.426 0-.11-.028-.2-.083-.268-.055-.074-.146-.136-.275-.186-.128-.055-.311-.108-.55-.158-.407-.092-.698-.209-.873-.351-.169-.146-.254-.341-.254-.584 0-.293.115-.53.344-.708.229-.184.527-.275.893-.275.179 0 .349.023.509.068.165.046.307.113.426.2.161.11.241.218.241.323 0 .046-.016.087-.048.124-.028.032-.062.048-.103.048-.046 0-.117-.037-.213-.11-.124-.087-.248-.156-.372-.206-.119-.055-.272-.083-.46-.083-.238 0-.429.055-.571.165-.142.106-.213.25-.213.433 0 .106.023.193.069.261.05.069.133.131.247.186.12.051.289.101.509.151.316.074.559.152.729.234.17.083.291.181.364.296.074.114.11.261.11.44 0 .279-.119.506-.357.68-.234.17-.546.255-.935.255zm-18.303 5.988c.403 0 .703.105.9.316.202.211.303.529.303.956v1.959c0 .064-.018.117-.055.158-.037.037-.087.055-.151.055-.065 0-.115-.018-.152-.055-.036-.041-.055-.094-.055-.158v-.412c-.096.206-.236.366-.419.481-.183.11-.394.165-.633.165-.215 0-.412-.044-.591-.131s-.321-.208-.426-.364c-.101-.156-.151-.328-.151-.516 0-.247.064-.44.192-.577.128-.138.342-.236.64-.296.298-.059.712-.089 1.244-.089h.144v-.255c0-.302-.062-.522-.185-.66-.124-.142-.319-.213-.585-.213-.339 0-.662.09-.969.268-.014.01-.051.035-.11.076-.055.037-.103.055-.144.055-.046 0-.085-.016-.117-.048-.028-.037-.042-.08-.042-.131 0-.101.081-.199.241-.295.161-.092.339-.163.536-.214.197-.05.392-.075.585-.075zm-.227 3.1c.298 0 .541-.1.729-.302.192-.202.288-.458.288-.77v-.227h-.13c-.44 0-.777.018-1.011.055s-.399.101-.495.193c-.096.087-.144.215-.144.385 0 .192.073.353.22.481.146.124.327.185.543.185zm4.093-3.1c.293 0 .552.073.777.22.224.142.399.346.522.612.124.261.186.566.186.914 0 .344-.062.646-.186.908-.123.256-.298.456-.522.598-.225.142-.484.213-.777.213-.27 0-.504-.057-.701-.172-.197-.119-.346-.291-.447-.516v1.698c0 .065-.018.115-.055.152-.037.041-.087.062-.151.062-.065 0-.117-.021-.159-.062-.036-.037-.055-.087-.055-.152v-4.248c0-.064.019-.115.055-.152.042-.041.094-.061.159-.061.064 0 .114.02.151.061.037.037.055.088.055.152v.46c.101-.224.25-.394.447-.508.197-.12.431-.179.701-.179zm-.062 3.094c.353 0 .626-.117.818-.351.197-.238.296-.571.296-.997 0-.435-.099-.774-.296-1.017-.192-.243-.463-.365-.811-.365s-.619.119-.811.358c-.188.238-.282.575-.282 1.01 0 .436.094.773.282 1.011.188.234.456.351.804.351zm4.003-3.094c.293 0 .552.073.777.22.224.142.399.346.522.612.124.261.186.566.186.914 0 .344-.062.646-.186.908-.123.256-.298.456-.522.598-.225.142-.484.213-.777.213-.27 0-.504-.057-.701-.172-.197-.119-.346-.291-.447-.516v1.698c0 .065-.018.115-.055.152-.037.041-.087.062-.151.062-.065 0-.117-.021-.158-.062-.037-.037-.055-.087-.055-.152v-4.248c0-.064.018-.115.055-.152.041-.041.093-.061.158-.061.064 0 .114.02.151.061.037.037.055.088.055.152v.46c.101-.224.25-.394.447-.508.197-.12.431-.179.701-.179zm-.062 3.094c.353 0 .626-.117.818-.351.197-.238.296-.571.296-.997 0-.435-.099-.774-.296-1.017-.192-.243-.463-.365-.811-.365s-.619.119-.811.358c-.188.238-.282.575-.282 1.01 0 .436.094.773.282 1.011.188.234.456.351.804.351zm5.495.371c-.307 0-.578-.071-.812-.213-.229-.142-.408-.344-.536-.605-.128-.262-.192-.566-.192-.915 0-.348.064-.653.192-.914s.307-.463.536-.605c.234-.142.505-.213.812-.213.302 0 .57.071.804.213s.412.344.536.605c.129.261.193.566.193.914 0 .349-.064.653-.193.915-.124.261-.302.463-.536.605s-.502.213-.804.213zm-.007-.371c.353 0 .625-.117.818-.351.192-.234.289-.571.289-1.011 0-.43-.099-.765-.296-1.003-.193-.243-.461-.365-.804-.365-.349 0-.619.122-.812.365-.192.238-.288.573-.288 1.003 0 .44.094.777.281 1.011.188.234.459.351.812.351zm3.801-4.174c-.261.019-.458.101-.591.248-.133.142-.2.362-.2.66v.254h.832c.06 0 .106.016.138.048.032.033.048.074.048.124 0 .051-.016.092-.048.124-.032.027-.078.041-.138.041h-.832v2.819c0 .064-.02.117-.061.158-.042.037-.092.055-.152.055-.064 0-.114-.018-.151-.055s-.055-.089-.055-.158v-2.819h-.522c-.055 0-.099-.014-.131-.041-.032-.032-.048-.073-.048-.124 0-.05.016-.091.048-.124.032-.032.076-.048.131-.048h.522v-.172c0-.403.096-.719.289-.948.197-.229.481-.358.852-.385l.179-.014c.179-.014.268.039.268.158 0 .11-.066.172-.199.186zm5.97 4.18c.051.046.076.097.076.152 0 .05-.021.096-.062.137-.037.037-.08.055-.131.055-.041 0-.085-.018-.13-.055l-2.695-2.289v2.131c0 .064-.021.117-.062.158-.037.041-.087.062-.151.062-.065 0-.117-.021-.159-.062-.036-.041-.055-.094-.055-.158v-4.476c0-.064.019-.116.055-.158.042-.041.094-.062.159-.062.064 0 .114.021.151.062.041.042.062.094.062.158v2.07l2.557-2.228c.037-.036.08-.055.131-.055s.096.021.137.062c.042.037.062.08.062.131 0 .055-.025.105-.075.151l-2.393 2.056zm1.075.317c-.065 0-.12-.021-.165-.062-.042-.041-.062-.092-.062-.151v-4.421c0-.06.02-.11.062-.151.045-.042.1-.062.165-.062h1.333c.766 0 1.357.208 1.774.625.422.418.633 1.016.633 1.795s-.211 1.379-.633 1.801c-.417.417-1.008.626-1.774.626zm1.313-.372c1.32 0 1.98-.685 1.98-2.055 0-1.366-.66-2.049-1.98-2.049h-1.114v4.104zm3.716.372c-.065 0-.12-.021-.165-.062-.042-.041-.062-.092-.062-.151v-4.421c0-.06.02-.11.062-.151.045-.042.1-.062.165-.062h2.612c.059 0 .105.016.138.048.036.032.055.078.055.137 0 .055-.019.099-.055.131-.033.032-.079.048-.138.048h-2.42v1.836h2.283c.059 0 .104.016.137.048.036.032.055.078.055.137 0 .06-.019.106-.055.138-.033.032-.078.048-.137.048h-2.283v1.911h2.42c.059 0 .105.016.138.048.036.028.055.072.055.131 0 .06-.019.106-.055.138-.033.032-.079.048-.138.048zm-27.802 4.572c.064 0 .114.02.151.061.041.037.062.088.062.152v4.482c0 .064-.021.117-.062.158-.037.037-.087.055-.151.055s-.115-.018-.151-.055c-.037-.041-.055-.094-.055-.158v-.454c-.101.225-.25.397-.447.516-.197.115-.431.172-.701.172-.294 0-.553-.071-.777-.213-.225-.147-.399-.351-.523-.612-.124-.266-.185-.573-.185-.921 0-.344.061-.644.185-.901.124-.261.298-.463.523-.605.224-.142.483-.213.777-.213.27 0 .504.06.701.179.197.114.346.284.447.508v-1.938c0-.064.018-.115.055-.152.036-.041.087-.061.151-.061zm-1.299 4.558c.348 0 .616-.117.804-.351.192-.238.289-.575.289-1.011 0-.435-.094-.772-.282-1.01s-.456-.358-.805-.358c-.353 0-.625.12-.818.358-.192.234-.288.566-.288.997 0 .435.096.774.288 1.017.193.239.463.358.812.358zm5.171-.392c.041 0 .076.018.103.055.032.032.048.071.048.117 0 .101-.077.199-.233.295-.33.197-.679.296-1.045.296-.509 0-.91-.154-1.203-.461-.294-.307-.44-.728-.44-1.265 0-.343.064-.646.192-.907.133-.266.316-.47.55-.612.238-.147.511-.22.818-.22.431 0 .77.14 1.018.419.252.275.378.656.378 1.142 0 .082-.018.144-.055.185-.037.037-.096.055-.179.055h-2.289c.013.422.123.743.33.963.206.22.497.33.873.33.197 0 .362-.025.495-.076.133-.055.275-.126.426-.213.101-.069.172-.103.213-.103zm-1.21-2.358c-.321 0-.577.101-.77.302-.192.202-.307.484-.344.846h2.125c-.009-.367-.101-.649-.275-.846-.174-.201-.42-.302-.736-.302zm3.351 3.121c-.193 0-.383-.025-.571-.076-.183-.055-.346-.128-.488-.22-.087-.059-.149-.11-.185-.151-.033-.046-.049-.096-.049-.151 0-.046.014-.085.042-.117.032-.032.068-.048.11-.048.041 0 .112.034.213.103.133.087.268.158.405.213.142.055.319.083.53.083.27 0 .481-.049.632-.145.152-.101.227-.243.227-.426 0-.11-.027-.199-.082-.268-.055-.073-.147-.135-.275-.186-.129-.055-.312-.107-.55-.158-.408-.092-.699-.208-.873-.351-.17-.146-.255-.341-.255-.584 0-.293.115-.529.344-.708.229-.183.527-.275.894-.275.178 0 .348.023.508.069.165.046.307.112.427.199.16.11.24.218.24.323 0 .046-.016.087-.048.124-.027.032-.062.048-.103.048-.046 0-.117-.037-.213-.11-.124-.087-.248-.156-.371-.206-.12-.055-.273-.083-.461-.083-.238 0-.429.055-.571.165-.142.106-.213.25-.213.433 0 .106.023.193.069.262.05.068.133.13.248.185.119.051.288.101.508.152.317.073.559.151.729.233.17.083.291.181.364.296.074.115.11.261.11.44 0 .28-.119.506-.357.681-.234.169-.546.254-.935.254zm4.734-.378c.059.055.089.112.089.172 0 .05-.018.096-.055.137-.037.037-.08.055-.131.055-.045 0-.094-.02-.144-.062l-1.87-1.595v1.444c0 .069-.021.122-.062.158-.037.037-.085.055-.144.055-.064 0-.117-.018-.158-.055-.037-.036-.055-.089-.055-.158v-4.489c0-.069.018-.122.055-.158.041-.037.094-.055.158-.055.059 0 .107.018.144.055.041.036.062.089.062.158v2.873l1.712-1.54c.05-.041.098-.061.144-.061.055 0 .101.02.138.061.041.037.062.083.062.138 0 .069-.028.124-.083.165l-1.485 1.313zm2.217.014c.128.013.192.073.192.178 0 .055-.02.099-.062.131-.041.032-.107.046-.199.041l-.193-.014c-.348-.022-.607-.128-.776-.316-.165-.192-.248-.483-.248-.873v-1.829h-.522c-.055 0-.099-.013-.131-.041-.032-.032-.048-.073-.048-.124 0-.05.016-.091.048-.123s.076-.049.131-.049h.522v-.852c0-.069.018-.121.055-.158s.087-.055.151-.055c.065 0 .115.018.152.055.041.037.061.089.061.158v.852h.832c.06 0 .106.017.138.049s.048.073.048.123c0 .051-.016.092-.048.124-.032.028-.078.041-.138.041h-.832v1.85c0 .284.055.488.165.612.11.119.282.188.516.206zm2.125.364c-.307 0-.577-.071-.811-.213-.229-.142-.408-.344-.536-.605-.129-.261-.193-.566-.193-.915 0-.348.064-.653.193-.914.128-.261.307-.463.536-.605.234-.142.504-.213.811-.213.303 0 .571.071.804.213.234.142.413.344.537.605.128.261.192.566.192.914 0 .349-.064.654-.192.915-.124.261-.303.463-.537.605-.233.142-.501.213-.804.213zm-.007-.371c.353 0 .626-.117.818-.351.193-.234.289-.571.289-1.011 0-.43-.098-.765-.296-1.003-.192-.243-.46-.365-.804-.365-.348 0-.619.122-.811.365-.193.238-.289.573-.289 1.003 0 .44.094.777.282 1.011s.458.351.811.351zm3.994-3.094c.293 0 .552.073.777.22.225.142.399.346.522.612.124.261.186.566.186.914 0 .344-.062.646-.186.908-.123.256-.297.456-.522.598s-.484.213-.777.213c-.27 0-.504-.057-.701-.172-.197-.119-.346-.291-.447-.516v1.699c0 .064-.018.114-.055.151-.037.041-.087.062-.151.062s-.117-.021-.158-.062c-.037-.037-.055-.087-.055-.151v-4.249c0-.064.018-.115.055-.151.041-.042.094-.062.158-.062s.114.02.151.062c.037.036.055.087.055.151v.46c.101-.224.25-.394.447-.508.197-.119.431-.179.701-.179zm-.062 3.094c.353 0 .626-.117.818-.351.197-.238.296-.571.296-.997 0-.435-.099-.774-.296-1.017-.192-.243-.463-.365-.811-.365s-.619.12-.811.358c-.188.238-.282.575-.282 1.01 0 .436.094.773.282 1.011.188.234.456.351.804.351zm3.595 19.263c-.091 0-.169-.029-.234-.089-.059-.064-.089-.144-.089-.241 0-.096.03-.174.089-.233.065-.064.143-.097.234-.097.088 0 .161.033.22.097.065.059.096.137.096.233 0 .097-.031.177-.096.241-.059.06-.132.089-.22.089z"/>
  <path d="m96.768 34.624c.467 0 .814.117 1.038.351.23.229.344.58.344 1.052v1.677c0 .124-.037.223-.11.296-.073.069-.175.103-.303.103-.119 0-.217-.037-.295-.11-.073-.073-.11-.17-.11-.289v-.151c-.078.179-.202.319-.372.419-.165.101-.357.152-.577.152-.224 0-.429-.046-.612-.138s-.327-.218-.433-.378-.158-.339-.158-.536c0-.248.062-.443.185-.585.129-.142.335-.245.619-.309.285-.064.677-.096 1.176-.096h.172v-.158c0-.225-.048-.388-.145-.489-.096-.105-.251-.158-.467-.158-.133 0-.268.021-.406.062-.137.037-.3.092-.488.165-.119.06-.206.09-.261.09-.083 0-.151-.03-.206-.09-.051-.059-.076-.137-.076-.234 0-.077.018-.144.055-.199.041-.059.107-.114.199-.165.161-.087.351-.156.571-.206.224-.051.444-.076.66-.076zm-.213 2.881c.229 0 .415-.076.557-.227.147-.156.22-.355.22-.598v-.145h-.124c-.307 0-.546.014-.715.042-.169.027-.291.075-.364.144s-.11.163-.11.282c0 .147.05.268.151.364.106.092.234.138.385.138zm4.42-2.881c.404 0 .704.115.901.344.198.229.296.575.296 1.038v1.691c0 .129-.039.23-.117.303-.073.073-.176.11-.31.11-.132 0-.238-.037-.316-.11-.077-.073-.117-.174-.117-.303v-1.643c0-.261-.049-.451-.151-.57-.096-.12-.249-.179-.461-.179-.247 0-.446.078-.598.234-.146.155-.22.364-.22.625v1.533c0 .129-.038.23-.117.303-.077.073-.183.11-.316.11-.132 0-.238-.037-.316-.11-.073-.073-.11-.174-.11-.303v-2.66c0-.119.04-.216.117-.289.078-.073.184-.11.316-.11.12 0 .216.037.289.11.078.069.117.16.117.275v.186c.115-.188.268-.333.46-.434.193-.1.411-.151.653-.151zm-1.717 18.143c-.211.014-.365.078-.461.193-.096.114-.144.279-.144.495v.158h.584c.257 0 .385.108.385.323 0 .216-.128.323-.385.323h-.584v2.345c0 .133-.042.233-.124.302-.078.069-.179.103-.303.103-.123 0-.227-.034-.309-.103-.083-.069-.124-.169-.124-.302v-2.345h-.344c-.256 0-.385-.107-.385-.323 0-.215.129-.323.385-.323h.344v-.048c0-.431.113-.768.337-1.011.23-.247.55-.387.963-.419l.178-.014c.184-.014.312.007.385.062.079.05.117.131.117.241 0 .197-.112.307-.337.33zm2.265 4.263c-.344 0-.646-.071-.908-.213-.256-.142-.455-.346-.598-.612-.142-.266-.213-.575-.213-.928s.071-.66.213-.922c.143-.265.342-.469.598-.611.262-.142.564-.214.908-.214s.644.072.901.214c.261.142.46.346.598.611.142.262.213.569.213.922s-.071.662-.213.928c-.138.266-.337.47-.598.612-.257.142-.557.213-.901.213zm-.007-.667c.28 0 .493-.092.639-.275.147-.183.22-.454.22-.811 0-.353-.073-.621-.22-.805-.146-.188-.357-.282-.632-.282s-.488.094-.639.282c-.147.184-.22.452-.22.805 0 .357.073.628.22.811.146.183.357.275.632.275zm4.305-2.819c.12-.009.214.016.282.076.069.059.103.149.103.268 0 .124-.03.215-.089.275s-.167.099-.323.117l-.206.02c-.271.028-.47.12-.598.275-.124.156-.186.351-.186.585v1.444c0 .133-.041.236-.124.309-.082.069-.185.103-.309.103s-.227-.034-.31-.103c-.078-.073-.116-.176-.116-.309v-2.661c0-.128.038-.227.116-.296.083-.068.184-.103.303-.103s.216.035.289.103c.073.065.11.158.11.282v.275c.087-.201.215-.357.385-.467.174-.11.367-.172.577-.186zm-32.578 12.939c-.334 0-.63-.071-.886-.213-.252-.142-.447-.344-.585-.605-.137-.261-.206-.566-.206-.915 0-.348.071-.655.213-.921.147-.27.351-.479.612-.625.261-.147.561-.22.901-.22.178 0 .357.025.536.075.183.051.344.119.481.206.147.097.22.218.22.365 0 .101-.025.183-.076.247-.045.06-.107.09-.185.09-.051 0-.103-.012-.158-.035s-.11-.05-.165-.082c-.101-.06-.197-.106-.289-.138-.092-.036-.197-.055-.316-.055-.285 0-.505.094-.66.282-.152.184-.227.449-.227.798 0 .343.075.609.227.797.155.184.375.275.66.275.114 0 .215-.016.302-.048.092-.037.193-.085.303-.144.068-.042.128-.071.178-.09.051-.023.101-.034.152-.034.073 0 .135.032.185.096.051.064.076.145.076.241 0 .078-.018.147-.055.206-.032.055-.087.106-.165.151-.142.092-.307.165-.495.22-.188.051-.381.076-.578.076zm3.399 0c-.344 0-.647-.071-.908-.213-.257-.142-.456-.346-.598-.612s-.213-.575-.213-.928.071-.66.213-.921c.142-.266.341-.47.598-.612.261-.142.564-.213.908-.213.343 0 .644.071.9.213.262.142.461.346.598.612.142.261.214.568.214.921s-.072.662-.214.928c-.137.266-.336.47-.598.612-.256.142-.557.213-.9.213zm-.007-.667c.279 0 .492-.092.639-.275s.22-.454.22-.811c0-.353-.073-.621-.22-.805-.147-.187-.357-.281-.632-.281s-.488.094-.64.281c-.146.184-.22.452-.22.805 0 .357.074.628.22.811.147.183.358.275.633.275zm6.422-2.832c.367 0 .647.11.839.33.197.215.296.566.296 1.051v1.692c0 .133-.042.236-.124.309-.078.069-.181.103-.309.103-.124 0-.227-.034-.31-.103-.078-.073-.117-.176-.117-.309v-1.692c0-.252-.045-.43-.137-.536-.087-.11-.222-.165-.406-.165-.224 0-.403.078-.536.234-.133.151-.199.36-.199.626v1.533c0 .133-.042.236-.124.309-.078.069-.179.103-.303.103-.123 0-.227-.034-.309-.103-.083-.073-.124-.176-.124-.309v-1.692c0-.252-.046-.43-.137-.536-.087-.11-.223-.165-.406-.165-.224 0-.403.078-.536.234-.128.151-.193.36-.193.626v1.533c0 .133-.041.236-.123.309-.083.069-.186.103-.31.103s-.227-.034-.309-.103c-.078-.073-.117-.176-.117-.309v-2.661c0-.128.041-.227.124-.296.082-.068.185-.103.309-.103.119 0 .216.035.289.103.078.065.117.159.117.282v.165c.105-.183.245-.323.419-.419.179-.096.383-.144.612-.144.504 0 .841.21 1.011.632.1-.192.249-.346.446-.461.198-.114.42-.171.667-.171zm3.94 0c.289 0 .545.073.77.22.229.146.406.355.529.625.129.266.193.573.193.921 0 .349-.064.654-.193.915-.123.261-.298.463-.522.605-.225.142-.484.213-.777.213-.238 0-.451-.05-.639-.151s-.333-.241-.433-.42v1.403c0 .119-.039.213-.117.282-.078.068-.181.103-.31.103-.128 0-.233-.037-.316-.11-.078-.073-.117-.17-.117-.289v-3.898c0-.124.037-.222.11-.296.078-.073.181-.11.31-.11.128 0 .231.037.309.11.078.074.117.172.117.296v.172c.101-.188.245-.332.433-.433.192-.106.41-.158.653-.158zm-.227 2.832c.271 0 .481-.092.633-.275.151-.188.227-.451.227-.791 0-.348-.076-.618-.227-.811-.152-.192-.362-.289-.633-.289-.275 0-.488.094-.639.282-.147.188-.22.456-.22.805 0 .343.073.609.22.797.151.188.364.282.639.282zm3.882-2.832c.467 0 .813.116 1.038.35.229.229.344.58.344 1.052v1.678c0 .123-.037.222-.11.295-.074.069-.175.103-.303.103-.119 0-.218-.036-.296-.11-.073-.073-.11-.169-.11-.288v-.152c-.077.179-.201.319-.371.42-.165.101-.357.151-.577.151-.225 0-.429-.046-.612-.138-.184-.091-.328-.217-.433-.378-.106-.16-.158-.339-.158-.536 0-.247.061-.442.185-.584.129-.142.335-.245.619-.31.284-.064.676-.096 1.176-.096h.171v-.158c0-.225-.048-.387-.144-.488-.096-.106-.252-.158-.467-.158-.133 0-.269.02-.406.062-.138.036-.3.091-.488.165-.119.059-.206.089-.261.089-.083 0-.152-.03-.207-.089-.05-.06-.075-.138-.075-.234 0-.078.018-.145.055-.2.041-.059.107-.114.199-.165.16-.087.351-.155.571-.206.224-.05.444-.075.66-.075zm-.213 2.88c.229 0 .414-.075.556-.227.147-.155.22-.355.22-.598v-.144h-.123c-.307 0-.546.014-.715.041-.17.028-.291.076-.365.144-.073.069-.11.163-.11.282 0 .147.051.268.152.365.105.091.233.137.385.137zm4.345-2.867c.119-.009.213.016.282.076.068.06.103.149.103.268 0 .124-.03.216-.09.275-.059.06-.167.099-.323.117l-.206.021c-.27.027-.47.119-.598.275-.124.155-.186.35-.186.584v1.444c0 .133-.041.236-.123.309-.083.069-.186.103-.31.103s-.227-.034-.309-.103c-.078-.073-.117-.176-.117-.309v-2.661c0-.128.039-.227.117-.296.082-.068.183-.103.302-.103.12 0 .216.035.289.103.073.065.11.159.11.282v.275c.087-.201.216-.357.385-.467.174-.11.367-.172.578-.186zm1.181 3.472c-.123 0-.227-.034-.309-.103-.078-.073-.117-.176-.117-.309v-2.654c0-.133.039-.234.117-.303.082-.068.186-.103.309-.103.124 0 .227.035.31.103.082.069.123.17.123.303v2.654c0 .133-.041.236-.123.309-.083.069-.186.103-.31.103zm0-4.084c-.156 0-.28-.041-.371-.123-.092-.087-.137-.2-.137-.337 0-.138.045-.248.137-.33.091-.083.215-.124.371-.124.152 0 .273.041.365.124.096.082.144.192.144.33 0 .137-.046.25-.137.337-.092.082-.216.123-.372.123zm3.272.599c.403 0 .704.114.901.343.196.23.295.576.295 1.038v1.692c0 .128-.038.229-.117.302-.073.074-.176.11-.309.11s-.238-.036-.316-.11c-.078-.073-.117-.174-.117-.302v-1.643c0-.262-.051-.452-.151-.571-.097-.119-.25-.179-.461-.179-.248 0-.447.078-.598.234-.147.156-.22.364-.22.626v1.533c0 .128-.039.229-.117.302-.078.074-.183.11-.316.11s-.238-.036-.317-.11c-.073-.073-.11-.174-.11-.302v-2.661c0-.119.039-.215.117-.289.079-.073.183-.11.317-.11.119 0 .215.037.288.11.079.069.117.161.117.275v.186c.115-.188.268-.332.461-.433.192-.101.41-.151.653-.151zm4.916.013c.128 0 .231.037.309.11.077.074.117.172.117.296v2.716c0 .527-.147.925-.44 1.196-.294.27-.727.405-1.3.405-.5 0-.916-.093-1.251-.281-.17-.101-.254-.223-.254-.365 0-.101.022-.181.069-.24.049-.06.114-.09.192-.09.041 0 .091.009.151.028.06.023.121.048.186.075.165.069.311.122.44.158.132.037.284.055.454.055.6 0 .9-.293.9-.88v-.44c-.101.188-.247.335-.44.44-.192.101-.412.152-.66.152-.294 0-.555-.069-.783-.207-.226-.142-.402-.339-.53-.591-.129-.252-.192-.543-.192-.873s.062-.621.185-.873c.128-.257.307-.454.537-.591.228-.142.489-.213.783-.213.248 0 .468.052.66.158.193.101.339.245.44.433v-.179c0-.119.039-.215.117-.289.078-.073.181-.11.31-.11zm-1.3 2.668c.275 0 .488-.09.64-.268.155-.179.233-.424.233-.736 0-.316-.078-.564-.233-.742-.152-.179-.365-.269-.64-.269-.27 0-.484.09-.639.269-.157.178-.234.426-.234.742 0 .312.077.557.234.736.155.178.369.268.639.268zm-29.355 9.618c.229.014.344.117.344.309 0 .11-.046.195-.138.255-.087.055-.213.078-.378.068l-.186-.013c-.77-.055-1.155-.468-1.155-1.238v-1.499h-.343c-.124 0-.22-.027-.289-.082-.064-.055-.096-.135-.096-.241 0-.105.032-.185.096-.24.069-.055.165-.083.289-.083h.343v-.632c0-.124.039-.223.117-.296s.183-.11.316-.11c.129 0 .232.037.31.11s.117.172.117.296v.632h.584c.124 0 .218.028.282.083.069.055.103.135.103.24 0 .106-.034.186-.103.241-.064.055-.158.082-.282.082h-.584v1.561c0 .339.155.52.467.543zm2.758-2.846c.788 0 1.182.46 1.182 1.382v1.691c0 .128-.039.229-.117.302-.073.074-.176.11-.309.11s-.238-.036-.316-.11c-.078-.073-.117-.174-.117-.302v-1.691c0-.243-.051-.42-.151-.53-.097-.114-.25-.172-.461-.172-.248 0-.447.078-.598.234-.147.156-.22.364-.22.626v1.533c0 .128-.039.229-.117.302-.078.074-.183.11-.316.11s-.239-.036-.317-.11c-.073-.073-.11-.174-.11-.302v-4.111c0-.12.039-.216.117-.289.083-.073.188-.11.317-.11.128 0 .231.034.309.103s.117.163.117.282v1.602c.114-.179.266-.314.454-.406.192-.096.41-.144.653-.144zm4.716 2.523c.078 0 .139.03.185.089.051.06.076.14.076.241 0 .142-.085.261-.254.357-.156.087-.333.158-.53.213-.197.051-.385.076-.564.076-.54 0-.969-.156-1.285-.467-.316-.312-.475-.738-.475-1.279 0-.344.069-.649.207-.915.137-.265.33-.472.577-.618.252-.147.536-.22.853-.22.302 0 .566.066.79.199.225.133.399.321.523.564s.185.529.185.859c0 .197-.087.296-.261.296h-2.028c.028.316.117.55.268.701.151.147.371.22.66.22.147 0 .275-.018.385-.055.115-.037.243-.087.385-.151.138-.073.238-.11.303-.11zm-1.19-1.918c-.233 0-.421.073-.564.22-.137.146-.219.357-.247.632h1.554c-.009-.279-.078-.49-.206-.632-.129-.147-.308-.22-.537-.22zm6.935-1.203c-.155 0-.279-.042-.371-.124-.092-.087-.137-.2-.137-.337 0-.138.045-.248.137-.33.092-.083.216-.124.371-.124.152 0 .273.041.365.124.096.082.144.192.144.33 0 .137-.048.25-.144.337-.092.082-.213.124-.365.124zm.042.68c.256 0 .385.108.385.323v2.668c0 .133-.042.236-.124.309-.078.069-.179.103-.303.103-.123 0-.227-.034-.309-.103-.083-.073-.124-.176-.124-.309v-2.345h-1.361v2.345c0 .133-.041.234-.124.302-.078.069-.179.103-.302.103-.124 0-.227-.034-.31-.103-.082-.068-.123-.169-.123-.302v-2.345h-.344c-.257 0-.385-.107-.385-.323 0-.215.128-.323.385-.323h.344v-.034c0-.426.112-.763.336-1.011.23-.252.55-.396.963-.433l.158-.014c.023-.004.057-.007.103-.007.243 0 .365.104.365.31 0 .101-.028.179-.083.234s-.131.087-.227.096l-.151.014c-.211.018-.364.084-.461.199-.096.11-.144.273-.144.488v.158zm1.707 3.403c-.124 0-.227-.034-.31-.103-.078-.073-.117-.176-.117-.309v-4.105c0-.132.039-.233.117-.302.083-.069.186-.103.31-.103.123 0 .227.034.309.103.083.069.124.17.124.302v4.105c0 .133-.041.236-.124.309-.082.069-.186.103-.309.103zm3.98-.962c.078 0 .139.03.185.089.051.06.076.14.076.241 0 .142-.085.261-.254.357-.156.087-.333.158-.53.213-.197.051-.385.076-.564.076-.54 0-.969-.156-1.285-.467-.316-.312-.475-.738-.475-1.279 0-.344.069-.649.207-.915.137-.265.33-.472.577-.618.252-.147.536-.22.853-.22.302 0 .566.066.79.199.225.133.399.321.523.564s.185.529.185.859c0 .197-.087.296-.261.296h-2.028c.028.316.117.55.268.701.151.147.371.22.66.22.147 0 .275-.018.385-.055.115-.037.243-.087.385-.151.138-.073.238-.11.303-.11zm-1.19-1.918c-.233 0-.421.073-.563.22-.138.146-.22.357-.248.632h1.554c-.009-.279-.078-.49-.206-.632-.129-.147-.308-.22-.537-.22zm3.398 2.894c-.499 0-.903-.098-1.21-.296-.146-.087-.22-.21-.22-.371 0-.091.025-.165.076-.22.05-.059.112-.089.186-.089.077 0 .185.037.323.11.146.069.279.121.398.158.124.037.28.055.468.055.192 0 .342-.032.446-.096.11-.064.165-.154.165-.268 0-.078-.022-.14-.068-.186-.042-.046-.119-.087-.234-.124-.11-.041-.279-.087-.508-.137-.408-.083-.702-.2-.88-.351-.175-.151-.262-.36-.262-.626 0-.201.06-.382.179-.543.119-.165.282-.291.488-.378.211-.091.449-.137.715-.137.193 0 .378.025.557.075.178.046.339.115.481.207.147.091.22.213.22.364 0 .092-.025.17-.076.234-.05.059-.111.089-.185.089-.05 0-.101-.009-.152-.027-.045-.023-.104-.055-.178-.097-.133-.068-.248-.119-.344-.151-.096-.037-.215-.055-.357-.055-.17 0-.305.034-.406.103-.096.069-.144.163-.144.282 0 .115.05.202.151.261.101.06.296.12.584.179.308.064.548.138.722.22.174.083.298.186.371.309.078.124.117.282.117.475 0 .312-.131.561-.392.749-.256.188-.6.282-1.031.282z" fill="#2ec27e"/>
  <path d="m18.761 87.648h38.916c1.954 0 3.537-1.872 3.537-4.181v-51.279c0-2.309-1.583-4.181-3.537-4.181h-38.916c-1.954 0-3.538 1.872-3.538 4.181v51.279c0 2.309 1.584 4.181 3.538 4.181z" fill="#3584e4"/>
  <path d="m18.761 86.764h38.916c1.954 0 3.537-1.872 3.537-4.182v-51.278c0-2.31-1.583-4.182-3.537-4.182h-38.916c-1.954 0-3.538 1.872-3.538 4.182v51.278c0 2.31 1.584 4.182 3.538 4.182z" fill="#d5d3cf"/>
  <path d="m18.761 84.11h38.916c1.954 0 3.537-1.584 3.537-3.538v-52.566c0-1.953-1.583-3.537-3.537-3.537h-38.916c-1.954 0-3.538 1.584-3.538 3.537v52.566c0 1.954 1.584 3.538 3.538 3.538z" fill="#f6f5f4"/>
  <path d="m23.729 38.547c.051.046.076.096.076.151 0 .051-.021.097-.062.138-.037.037-.08.055-.131.055-.041 0-.085-.018-.13-.055l-2.695-2.29v2.132c0 .064-.021.117-.062.158-.037.041-.087.062-.151.062-.065 0-.117-.021-.159-.062-.036-.041-.055-.094-.055-.158v-4.476c0-.064.019-.117.055-.158.042-.041.094-.062.159-.062.064 0 .114.021.151.062.041.041.062.094.062.158v2.069l2.557-2.227c.037-.037.08-.055.131-.055.05 0 .096.021.137.062.042.037.062.08.062.13 0 .055-.025.106-.075.152l-2.393 2.055zm1.075.316c-.065 0-.12-.02-.165-.062-.042-.041-.062-.091-.062-.151v-4.42c0-.06.02-.11.062-.152.045-.041.1-.062.165-.062h1.333c.766 0 1.357.209 1.774.626.422.417.633 1.015.633 1.794 0 .78-.211 1.38-.633 1.802-.417.417-1.008.625-1.774.625zm1.313-.371c1.32 0 1.98-.685 1.98-2.056 0-1.365-.66-2.048-1.98-2.048h-1.114v4.104zm3.626.406c-.064 0-.117-.019-.158-.055-.037-.037-.055-.09-.055-.158v-3.012c0-.068.018-.121.055-.158.041-.036.094-.055.158-.055s.114.019.151.055c.037.037.055.09.055.158v3.012c0 .068-.018.121-.055.158-.037.036-.087.055-.151.055zm0-4.215c-.092 0-.167-.027-.227-.082-.055-.055-.082-.126-.082-.213 0-.092.027-.165.082-.22.06-.055.135-.083.227-.083s.165.028.22.083c.059.055.089.128.089.22 0 .087-.03.158-.089.213-.055.055-.128.082-.22.082zm2.686-.316c-.261.018-.459.101-.591.248-.133.142-.2.362-.2.66v.254h.832c.06 0 .105.016.138.048.032.032.048.073.048.124 0 .05-.016.092-.048.124-.033.027-.078.041-.138.041h-.832v2.819c0 .064-.02.116-.062.158-.041.036-.091.055-.151.055-.064 0-.115-.019-.151-.055-.037-.037-.055-.09-.055-.158v-2.819h-.523c-.055 0-.098-.014-.13-.041-.032-.032-.048-.074-.048-.124 0-.051.016-.092.048-.124s.075-.048.13-.048h.523v-.172c0-.403.096-.719.289-.949.197-.229.481-.357.852-.385l.179-.013c.179-.014.268.039.268.158 0 .11-.067.172-.199.185zm2.195 0c-.261.018-.458.101-.591.248-.133.142-.199.362-.199.66v.254h.831c.06 0 .106.016.138.048s.048.073.048.124c0 .05-.016.092-.048.124-.032.027-.078.041-.138.041h-.831v2.819c0 .064-.021.116-.062.158-.042.036-.092.055-.152.055-.064 0-.114-.019-.151-.055-.036-.037-.055-.09-.055-.158v-2.819h-.522c-.055 0-.099-.014-.131-.041-.032-.032-.048-.074-.048-.124 0-.051.016-.092.048-.124s.076-.048.131-.048h.522v-.172c0-.403.096-.719.289-.949.197-.229.481-.357.852-.385l.179-.013c.179-.014.268.039.268.158 0 .11-.066.172-.199.185zm2.739 4.531c-.064 0-.117-.019-.158-.055-.037-.037-.055-.09-.055-.158v-3.012c0-.068.018-.121.055-.158.041-.036.094-.055.158-.055s.115.019.151.055c.037.037.055.09.055.158v3.012c0 .068-.018.121-.055.158-.036.036-.087.055-.151.055zm0-4.215c-.092 0-.167-.027-.227-.082-.055-.055-.082-.126-.082-.213 0-.092.027-.165.082-.22.06-.055.135-.083.227-.083s.165.028.22.083c.06.055.09.128.09.22 0 .087-.03.158-.09.213-.055.055-.128.082-.22.082zm2.39 4.228c-.192 0-.382-.025-.57-.075-.184-.055-.346-.128-.488-.22-.087-.06-.149-.11-.186-.151-.032-.046-.048-.097-.048-.152 0-.045.014-.084.041-.117.032-.032.069-.048.11-.048s.112.035.213.103c.133.088.268.159.406.214.142.055.318.082.529.082.271 0 .482-.048.633-.144.151-.101.227-.243.227-.427 0-.11-.028-.199-.083-.268-.055-.073-.147-.135-.275-.185-.128-.055-.312-.108-.55-.158-.408-.092-.699-.209-.873-.351-.17-.147-.254-.341-.254-.584 0-.294.114-.53.343-.709.23-.183.527-.275.894-.275.179 0 .348.023.509.069.165.046.307.113.426.2.161.11.241.217.241.323 0 .046-.016.087-.048.123-.028.033-.062.049-.103.049-.046 0-.117-.037-.214-.11-.123-.087-.247-.156-.371-.207-.119-.055-.273-.082-.46-.082-.239 0-.429.055-.571.165-.142.105-.213.25-.213.433 0 .105.023.192.069.261.05.069.132.131.247.186.119.05.289.101.509.151.316.073.559.151.729.234.169.082.291.181.364.295.073.115.11.262.11.44 0 .28-.119.507-.358.681-.233.17-.545.254-.935.254zm5.256-3.465c.404 0 .704.106.901.317.202.211.302.529.302.955v1.96c0 .064-.018.117-.055.158-.036.037-.087.055-.151.055s-.114-.018-.151-.055c-.037-.041-.055-.094-.055-.158v-.413c-.096.206-.236.367-.419.481-.184.11-.395.165-.633.165-.215 0-.412-.043-.591-.13s-.321-.209-.426-.365c-.101-.155-.152-.327-.152-.515 0-.248.064-.44.193-.578.128-.137.341-.236.639-.295.298-.06.713-.09 1.245-.09h.144v-.254c0-.303-.062-.523-.186-.66-.123-.142-.318-.213-.584-.213-.339 0-.662.089-.969.268-.014.009-.051.034-.11.076-.055.036-.104.055-.145.055-.046 0-.085-.016-.117-.049-.027-.036-.041-.08-.041-.13 0-.101.08-.2.241-.296.16-.091.339-.162.536-.213.197-.05.392-.076.584-.076zm-.227 3.101c.298 0 .541-.101.729-.302.193-.202.289-.459.289-.77v-.227h-.131c-.44 0-.777.018-1.01.055-.234.036-.399.101-.495.192-.097.087-.145.216-.145.385 0 .193.074.353.22.481.147.124.328.186.543.186zm-4.224 6.353c.403 0 .704.105.901.316.201.211.302.529.302.955v1.96c0 .064-.018.117-.055.158-.037.037-.087.055-.151.055s-.115-.018-.151-.055c-.037-.041-.055-.094-.055-.158v-.413c-.097.207-.236.367-.42.482-.183.11-.394.165-.632.165-.216 0-.413-.044-.591-.131-.179-.087-.321-.209-.427-.364-.101-.156-.151-.328-.151-.516 0-.248.064-.44.193-.578.128-.137.341-.236.639-.295.298-.06.713-.09 1.244-.09h.145v-.254c0-.302-.062-.522-.186-.66-.124-.142-.319-.213-.584-.213-.34 0-.663.089-.97.268-.013.009-.05.034-.11.076-.055.036-.103.055-.144.055-.046 0-.085-.016-.117-.048-.027-.037-.041-.081-.041-.131 0-.101.08-.199.24-.296.161-.091.34-.162.537-.213.197-.05.392-.075.584-.075zm-.227 3.1c.298 0 .541-.101.729-.302.192-.202.289-.459.289-.77v-.227h-.131c-.44 0-.777.018-1.011.055-.233.037-.398.101-.495.192-.096.087-.144.216-.144.385 0 .193.073.353.22.482.147.123.328.185.543.185zm4.093-3.1c.294 0 .553.073.777.22.225.142.399.346.523.611.123.262.185.567.185.915 0 .344-.062.646-.185.907-.124.257-.298.456-.523.598-.224.143-.483.214-.777.214-.27 0-.504-.058-.701-.172-.197-.119-.346-.291-.447-.516v1.698c0 .064-.018.115-.055.151-.037.042-.087.062-.151.062s-.117-.02-.158-.062c-.037-.036-.055-.087-.055-.151v-4.249c0-.064.018-.114.055-.151.041-.041.094-.062.158-.062s.114.021.151.062c.037.037.055.087.055.151v.461c.101-.224.25-.394.447-.509.197-.119.431-.178.701-.178zm-.062 3.093c.353 0 .626-.117.819-.35.197-.239.295-.571.295-.997 0-.436-.098-.775-.295-1.018-.193-.243-.463-.364-.812-.364-.348 0-.618.119-.811.357-.188.239-.282.576-.282 1.011 0 .436.094.772.282 1.011.188.233.456.35.804.35zm4.003-3.093c.294 0 .553.073.777.22.225.142.399.346.523.611.123.262.185.567.185.915 0 .344-.062.646-.185.907-.124.257-.298.456-.523.598-.224.143-.483.214-.777.214-.27 0-.504-.058-.701-.172-.197-.119-.346-.291-.447-.516v1.698c0 .064-.018.115-.055.151-.036.042-.087.062-.151.062s-.117-.02-.158-.062c-.037-.036-.055-.087-.055-.151v-4.249c0-.064.018-.114.055-.151.041-.041.094-.062.158-.062s.115.021.151.062c.037.037.055.087.055.151v.461c.101-.224.25-.394.447-.509.197-.119.431-.178.701-.178zm-.062 3.093c.353 0 .626-.117.819-.35.197-.239.295-.571.295-.997 0-.436-.098-.775-.295-1.018-.193-.243-.463-.364-.812-.364-.348 0-.618.119-.811.357-.188.239-.282.576-.282 1.011 0 .436.094.772.282 1.011.188.233.456.35.804.35zm-26.691 9.825c-.307 0-.578-.071-.812-.213-.229-.142-.408-.344-.536-.605-.128-.262-.192-.566-.192-.915 0-.348.064-.653.192-.914s.307-.463.536-.605c.234-.142.505-.213.812-.213.302 0 .57.071.804.213s.413.344.536.605c.129.261.193.566.193.914 0 .349-.064.653-.193.915-.123.261-.302.463-.536.605s-.502.213-.804.213zm-.007-.372c.353 0 .625-.116.818-.35.192-.234.289-.571.289-1.011 0-.431-.099-.765-.296-1.004-.192-.242-.461-.364-.804-.364-.349 0-.619.122-.812.364-.192.239-.288.573-.288 1.004 0 .44.094.777.282 1.011.187.234.458.35.811.35zm3.801-4.173c-.261.019-.458.101-.591.248-.133.142-.2.362-.2.66v.254h.832c.06 0 .106.016.138.048s.048.074.048.124c0 .051-.016.092-.048.124-.032.027-.078.041-.138.041h-.832v2.819c0 .064-.02.117-.061.158-.042.037-.092.055-.152.055-.064 0-.114-.018-.151-.055s-.055-.089-.055-.158v-2.819h-.522c-.055 0-.099-.014-.131-.041-.032-.032-.048-.073-.048-.124 0-.05.016-.092.048-.124s.076-.048.131-.048h.522v-.172c0-.403.096-.719.289-.948.197-.23.481-.358.852-.385l.179-.014c.179-.014.268.039.268.158 0 .11-.066.172-.199.186zm5.97 4.18c.051.046.076.097.076.152 0 .05-.021.096-.062.137-.037.037-.08.055-.131.055-.041 0-.084-.018-.13-.055l-2.695-2.289v2.131c0 .064-.021.117-.062.158-.037.041-.087.062-.151.062-.065 0-.117-.021-.159-.062-.036-.041-.055-.094-.055-.158v-4.476c0-.064.019-.117.055-.158.042-.041.094-.062.159-.062.064 0 .114.021.151.062.041.041.062.094.062.158v2.07l2.557-2.228c.037-.036.08-.055.131-.055.05 0 .096.021.137.062.042.037.062.08.062.131 0 .055-.025.105-.075.151l-2.393 2.056zm1.075.317c-.064 0-.119-.021-.165-.062-.042-.042-.062-.092-.062-.152v-4.42c0-.06.02-.11.062-.151.046-.042.101-.062.165-.062h1.333c.766 0 1.357.208 1.774.625.422.417.633 1.016.633 1.795s-.211 1.379-.633 1.801c-.417.417-1.008.626-1.774.626zm1.313-.372c1.32 0 1.98-.685 1.98-2.055 0-1.366-.66-2.049-1.98-2.049h-1.114v4.104zm3.715.372c-.064 0-.119-.021-.165-.062-.041-.042-.062-.092-.062-.152v-4.42c0-.06.021-.11.062-.151.046-.042.101-.062.165-.062h2.613c.059 0 .105.016.137.048.037.032.055.078.055.137 0 .055-.018.099-.055.131-.032.032-.078.048-.137.048h-2.42v1.836h2.282c.06 0 .106.016.138.048.037.032.055.078.055.137 0 .06-.018.106-.055.138-.032.032-.078.048-.138.048h-2.282v1.911h2.42c.059 0 .105.016.137.048.037.028.055.071.055.131s-.018.105-.055.137c-.032.033-.078.049-.137.049zm-14.568 4.571c.064 0 .115.021.151.062.042.037.062.087.062.152v4.482c0 .064-.02.117-.062.158-.036.037-.087.055-.151.055s-.115-.018-.151-.055c-.037-.041-.055-.094-.055-.158v-.454c-.101.225-.25.397-.447.516-.197.115-.431.172-.701.172-.294 0-.553-.071-.777-.213-.225-.147-.399-.351-.523-.612-.123-.266-.185-.573-.185-.921 0-.344.062-.644.185-.901.124-.261.298-.463.523-.605.224-.142.483-.213.777-.213.27 0 .504.059.701.179.197.114.346.284.447.508v-1.938c0-.065.018-.115.055-.152.036-.041.087-.062.151-.062zm-1.299 4.559c.348 0 .616-.117.804-.351.193-.238.289-.575.289-1.011 0-.435-.094-.772-.282-1.01-.188-.239-.456-.358-.804-.358-.353 0-.626.119-.819.358-.192.233-.288.566-.288.997 0 .435.096.774.288 1.017.193.238.463.358.812.358zm5.171-.392c.042 0 .076.018.103.055.032.032.049.071.049.117 0 .1-.078.199-.234.295-.33.197-.678.296-1.045.296-.509 0-.91-.154-1.203-.461-.294-.307-.44-.729-.44-1.265 0-.344.064-.646.192-.907.133-.266.316-.47.55-.612.238-.147.511-.22.818-.22.431 0 .77.14 1.018.419.252.275.378.656.378 1.141 0 .083-.018.145-.055.186-.037.037-.096.055-.179.055h-2.289c.014.422.124.743.33.963s.497.33.873.33c.197 0 .362-.026.495-.076.133-.055.275-.126.426-.213.101-.069.172-.103.213-.103zm-1.21-2.358c-.321 0-.577.1-.77.302-.192.202-.307.484-.343.846h2.124c-.009-.367-.101-.649-.275-.846-.174-.202-.419-.302-.736-.302zm3.351 3.121c-.193 0-.383-.025-.571-.076-.183-.055-.346-.128-.488-.22-.087-.059-.149-.11-.185-.151-.033-.046-.049-.096-.049-.151 0-.046.014-.085.042-.117.032-.032.068-.048.11-.048.041 0 .112.034.213.103.133.087.268.158.405.213.143.055.319.082.53.082.27 0 .481-.048.632-.144.152-.101.227-.243.227-.426 0-.11-.027-.2-.082-.268-.055-.074-.147-.135-.275-.186-.129-.055-.312-.108-.55-.158-.408-.092-.699-.209-.873-.351-.17-.146-.255-.341-.255-.584 0-.293.115-.529.344-.708.229-.183.527-.275.894-.275.178 0 .348.023.508.069.165.045.308.112.427.199.16.11.24.218.24.323 0 .046-.016.087-.048.124-.027.032-.062.048-.103.048-.046 0-.117-.037-.213-.11-.124-.087-.248-.156-.371-.206-.119-.055-.273-.083-.461-.083-.238 0-.428.055-.571.165-.142.106-.213.25-.213.433 0 .106.023.193.069.262.05.068.133.13.248.185.119.051.288.101.508.151.317.074.559.152.729.234.17.083.291.181.364.296.074.114.11.261.11.44 0 .279-.119.506-.357.68-.234.17-.545.255-.935.255zm4.734-.378c.059.055.089.112.089.172 0 .05-.018.096-.055.137-.037.037-.08.055-.131.055-.045 0-.094-.021-.144-.062l-1.87-1.595v1.444c0 .069-.021.121-.062.158-.036.037-.085.055-.144.055-.064 0-.117-.018-.158-.055-.037-.037-.055-.089-.055-.158v-4.489c0-.069.018-.122.055-.159.041-.036.094-.055.158-.055.059 0 .108.019.144.055.041.037.062.09.062.159v2.873l1.712-1.54c.05-.041.098-.062.144-.062.055 0 .101.021.138.062.041.037.062.083.062.138 0 .069-.028.124-.083.165l-1.485 1.313zm2.217.013c.128.014.192.074.192.179 0 .055-.02.099-.062.131-.041.032-.107.046-.199.041l-.192-.014c-.349-.023-.608-.128-.777-.316-.165-.192-.248-.483-.248-.873v-1.829h-.522c-.055 0-.099-.014-.131-.041-.032-.032-.048-.073-.048-.124 0-.05.016-.091.048-.124.032-.032.076-.048.131-.048h.522v-.852c0-.069.018-.122.055-.158.037-.037.087-.055.151-.055.065 0 .115.018.152.055.041.036.062.089.062.158v.852h.831c.06 0 .106.016.138.048.032.033.048.074.048.124 0 .051-.016.092-.048.124-.032.027-.078.041-.138.041h-.831v1.85c0 .284.055.488.165.611.11.12.281.188.515.207zm2.125.365c-.307 0-.577-.071-.811-.213-.229-.142-.408-.344-.536-.605-.129-.262-.193-.566-.193-.915 0-.348.064-.653.193-.914.128-.261.307-.463.536-.605.234-.142.504-.213.811-.213.303 0 .571.071.805.213.233.142.412.344.536.605.128.261.192.566.192.914 0 .349-.064.653-.192.915-.124.261-.303.463-.536.605-.234.142-.502.213-.805.213zm-.007-.371c.353 0 .626-.117.818-.351.193-.234.289-.571.289-1.011 0-.43-.098-.765-.295-1.003-.193-.243-.461-.365-.805-.365-.348 0-.619.122-.811.365-.193.238-.289.573-.289 1.003 0 .44.094.777.282 1.011s.458.351.811.351zm3.994-3.094c.294 0 .552.073.777.22.225.142.399.346.523.612.123.261.185.566.185.914 0 .344-.062.646-.185.908-.124.256-.298.456-.523.598s-.483.213-.777.213c-.27 0-.504-.057-.701-.172-.197-.119-.346-.291-.447-.516v1.698c0 .065-.018.115-.055.152-.037.041-.087.062-.151.062s-.117-.021-.158-.062c-.037-.037-.055-.087-.055-.152v-4.248c0-.064.018-.115.055-.152.041-.041.094-.061.158-.061s.114.02.151.061c.037.037.055.088.055.152v.46c.101-.224.25-.394.447-.508.197-.12.431-.179.701-.179zm-.062 3.094c.353 0 .626-.117.818-.351.198-.238.296-.571.296-.997 0-.435-.098-.774-.296-1.017-.192-.243-.462-.365-.811-.365-.348 0-.619.119-.811.358-.188.238-.282.575-.282 1.01 0 .436.094.773.282 1.011.188.234.456.351.804.351zm2.521.357c-.091 0-.169-.03-.233-.089-.06-.064-.09-.145-.09-.241s.03-.174.09-.234c.064-.064.142-.096.233-.096.087 0 .161.032.22.096.064.06.097.138.097.234s-.033.177-.097.241c-.059.059-.133.089-.22.089z"/>
  <path d="m20.677 48.316c-.133 0-.236-.036-.31-.11-.073-.073-.11-.174-.11-.302v-4.029c0-.133.039-.238.117-.316.083-.083.19-.124.323-.124.138 0 .245.041.323.124.083.078.124.183.124.316v3.713h1.932c.275 0 .413.121.413.364s-.138.364-.413.364zm3.744.042c-.123 0-.226-.035-.309-.103-.078-.074-.117-.177-.117-.31v-2.654c0-.132.039-.233.117-.302.083-.069.186-.103.309-.103.124 0 .227.034.31.103.082.069.124.17.124.302v2.654c0 .133-.042.236-.124.31-.083.068-.186.103-.31.103zm0-4.084c-.155 0-.279-.041-.371-.124-.092-.087-.137-.199-.137-.337 0-.137.045-.247.137-.33.092-.082.216-.123.371-.123.152 0 .273.041.365.123.096.083.144.193.144.33 0 .138-.046.25-.137.337-.092.083-.216.124-.372.124zm3.272.598c.404 0 .704.115.901.344s.295.575.295 1.038v1.691c0 .129-.038.229-.116.303-.074.073-.177.11-.31.11s-.238-.037-.316-.11c-.078-.074-.117-.174-.117-.303v-1.643c0-.261-.05-.451-.151-.571-.096-.119-.25-.178-.461-.178-.247 0-.447.078-.598.233-.147.156-.22.365-.22.626v1.533c0 .129-.039.229-.117.303-.078.073-.183.11-.316.11s-.238-.037-.316-.11c-.074-.074-.11-.174-.11-.303v-2.66c0-.12.039-.216.117-.289s.183-.11.316-.11c.119 0 .215.037.289.11.078.069.116.16.116.275v.185c.115-.187.269-.332.461-.433.193-.1.41-.151.653-.151zm4.723.014c.133 0 .238.037.316.11s.117.172.117.295v2.668c0 .119-.041.215-.124.289-.077.073-.181.11-.309.11-.124 0-.222-.035-.296-.103-.073-.069-.11-.163-.11-.282v-.172c-.105.183-.247.325-.426.426-.179.096-.38.144-.605.144-.825 0-1.237-.462-1.237-1.388v-1.692c0-.123.039-.222.117-.295s.181-.11.309-.11c.133 0 .238.037.316.11s.117.172.117.295v1.699c0 .238.048.414.144.529.097.115.248.172.454.172.239 0 .429-.078.571-.234.147-.16.22-.371.22-.632v-1.534c0-.123.039-.222.117-.295s.181-.11.309-.11zm4.243 2.798c.082.082.123.176.123.282 0 .101-.039.192-.116.275-.078.078-.17.117-.275.117-.115 0-.214-.048-.296-.145l-.969-1.072-.97 1.072c-.087.092-.185.138-.295.138-.101 0-.191-.039-.269-.117s-.116-.167-.116-.268c0-.106.041-.2.123-.282l1.004-1.093-.949-1.031c-.082-.083-.123-.177-.123-.282 0-.106.038-.195.116-.268.078-.078.168-.117.269-.117.11 0 .208.046.295.137l.915 1.004.914-1.004c.087-.091.186-.137.296-.137.105 0 .194.039.268.117.078.073.117.162.117.268 0 .105-.042.199-.124.282l-.949 1.031z" fill="#3584e4"/>
  <path d="m9 75.387h110v23.847c0 2.373-1.924 4.297-4.297 4.297h-101.406c-2.373 0-4.297-1.924-4.297-4.297z" fill="#deddda"/>
  <path d="m76.587 80.973-13.446 7.734 13.75 8.594v-4.145h27.929v-8.124h-28.233z" fill="#1a5fb4"/>
  <path d="m76.724 80.973-13.583 7.781 13.583 7.859v-3.97h27.999v-7.782h-27.999z" fill="#3584e4"/>
  <path d="m51.969 85.505v4.061h-28.36v7.887h27.804v4.145l13.446-8.594z" fill="#26a269"/>
  <path d="m51.608 85.27v3.862h-27.999v7.725h27.999v3.941l13.584-7.802z" fill="#57e389"/>
  <path d="m9 75.172h110v3.008h-110z" fill="#c0bfbc"/>
</svg>
