<svg fill="none" height="128" viewBox="0 0 128 128" width="128" xmlns="http://www.w3.org/2000/svg">
  <path d="m108 22h-88c-4.4183 0-8 3.5817-8 8v78c0 4.418 3.5817 8 8 8h88c4.418 0 8-3.582 8-8v-78c0-4.4183-3.582-8-8-8z" fill="#1a5fb4"/>
  <path d="m108 12h-88c-4.4183 0-8 3.5817-8 8v80c0 4.418 3.5817 8 8 8h88c4.418 0 8-3.582 8-8v-80c0-4.4183-3.582-8-8-8z" fill="#3584e4"/>
  <path d="m93.6666 99.3333c5.1546 0 9.3334-4.1787 9.3334-9.3333 0-5.1547-4.1788-9.3333-9.3334-9.3333-5.1547 0-9.3333 4.1786-9.3333 9.3333 0 5.1546 4.1786 9.3333 9.3333 9.3333z" fill="#c0bfbc"/>
  <path d="m93.6666 98.3333c5.1546 0 9.3334-4.1787 9.3334-9.3333 0-5.1547-4.1788-9.3333-9.3334-9.3333-5.1547 0-9.3333 4.1786-9.3333 9.3333 0 5.1546 4.1786 9.3333 9.3333 9.3333z" fill="#f6f5f4"/>
  <path d="m93.3333 69.6667c5.1547 0 9.3337-4.1787 9.3337-9.3334 0-5.1546-4.179-9.3333-9.3337-9.3333-5.1546 0-9.3333 4.1787-9.3333 9.3333 0 5.1547 4.1787 9.3334 9.3333 9.3334z" fill="#c0bfbc"/>
  <path d="m93.3333 68.6667c5.1547 0 9.3337-4.1787 9.3337-9.3334 0-5.1546-4.179-9.3333-9.3337-9.3333-5.1546 0-9.3333 4.1787-9.3333 9.3333 0 5.1547 4.1787 9.3334 9.3333 9.3334z" fill="#f6f5f4"/>
  <path d="m64.6666 99c5.1546 0 9.3333-4.1787 9.3333-9.3334 0-5.1546-4.1787-9.3333-9.3333-9.3333-5.1547 0-9.3333 4.1787-9.3333 9.3333 0 5.1547 4.1786 9.3334 9.3333 9.3334z" fill="#a51d2d"/>
  <path d="m64.6666 98c5.1546 0 9.3333-4.1787 9.3333-9.3334 0-5.1546-4.1787-9.3333-9.3333-9.3333-5.1547 0-9.3333 4.1787-9.3333 9.3333 0 5.1547 4.1786 9.3334 9.3333 9.3334z" fill="#f66151"/>
  <path d="m64.3333 69.3333c5.1547 0 9.3334-4.1787 9.3334-9.3333 0-5.1547-4.1787-9.3333-9.3334-9.3333-5.1546 0-9.3333 4.1786-9.3333 9.3333 0 5.1546 4.1787 9.3333 9.3333 9.3333z" fill="#a51d2d"/>
  <path d="m64.3333 68.3333c5.1547 0 9.3334-4.1787 9.3334-9.3333 0-5.1547-4.1787-9.3333-9.3334-9.3333-5.1546 0-9.3333 4.1786-9.3333 9.3333 0 5.1546 4.1787 9.3333 9.3333 9.3333z" fill="#f66151"/>
  <path d="m64.3333 39.6667c5.1547 0 9.3334-4.1787 9.3334-9.3334 0-5.1546-4.1787-9.3333-9.3334-9.3333-5.1546 0-9.3333 4.1787-9.3333 9.3333 0 5.1547 4.1787 9.3334 9.3333 9.3334z" fill="#a51d2d"/>
  <path d="m64.3333 38.6667c5.1547 0 9.3334-4.1787 9.3334-9.3334 0-5.1546-4.1787-9.3333-9.3334-9.3333-5.1546 0-9.3333 4.1787-9.3333 9.3333 0 5.1547 4.1787 9.3334 9.3333 9.3334z" fill="#f66151"/>
  <path d="m35.3333 98.6667c5.1547 0 9.3334-4.1787 9.3334-9.3334 0-5.1546-4.1787-9.3333-9.3334-9.3333-5.1546 0-9.3333 4.1787-9.3333 9.3333 0 5.1547 4.1787 9.3334 9.3333 9.3334z" fill="#c0bfbc"/>
  <g fill="#f6f5f4">
    <path d="m35.3333 97.6667c5.1547 0 9.3334-4.1787 9.3334-9.3334 0-5.1546-4.1787-9.3333-9.3334-9.3333-5.1546 0-9.3333 4.1787-9.3333 9.3333 0 5.1547 4.1787 9.3334 9.3333 9.3334z"/>
    <path d="m108 12h-88c-4.4183 0-8 3.5817-8 8v23.5l104-18v-5.5c0-4.4183-3.582-8-8-8z" opacity=".25"/>
  </g>
</svg>
