<svg fill="none" height="128" viewBox="0 0 128 128" width="128" xmlns="http://www.w3.org/2000/svg"><path d="m112 20h-96c-4.4183 0-8 3.9399-8 8.8v70.4c0 4.86 3.5817 8.8 8 8.8h96c4.418 0 8-3.94 8-8.8v-70.4c0-4.8601-3.582-8.8-8-8.8z" fill="#f8e45c"/><path d="m8 98v2c0 4.432 3.568 8 8 8h96c4.432 0 8-3.568 8-8v-2c0 4.432-3.568 7-8 7h-96c-4.432 0-8-2.568-8-7z" fill="#b69e00"/><g transform="translate(.747869 -6.777099)"><path d="m1011.7255 253.30081-63.48295 10.07464c-17.65345 3.75907-17.59323 4.92872-17.6529 19.84303v29.20444 14.69524 77.11225c-.73626-.51571-1.45994-1.03266-2.22115-1.54278v.004c-5.60862-3.75854-11.58527-6.43472-19.61434-6.43474-10.05696 0-16.05738 3.85117-19.688 8.92336-3.63058 5.07219-4.83379 11.46643-4.83379 16.4086 0 5.95959 2.03612 12.32136 6.45024 17.16835 4.41413 4.84699 11.19785 8.24098 20.95556 8.24114 11.01866 0 18.77188-3.07717 23.15344-9.08618 3.44982-4.73113 5.35856-11.05416 6.03934-18.8507v-.0119-.008c.0953-.94586.16465-1.91792.22485-2.9189.0924-1.54112.0698-4.42291.0698-4.42291v-92.65992c0-13.23678-.001-14.02567 17.65679-17.04431l49.32271-8.15585c1.3714-.17943 2.4534-.28859 3.6205-.41864z" fill="#5d5d5d" stroke-width="1.322326" transform="matrix(.35783339 .05960288 -.05962141 .35772222 -272.8892 -111.83361)"/><path d="m79.031012 76.089921v5.31293h29.221118v-5.31293zm-10.625861 10.62586v5.31293h39.846979v-5.31293zm-10.625862 10.62586v5.312929h50.472841v-5.312929z" fill="#fda463" stroke-width=".531293"/></g></svg>