<svg fill="none" height="128" viewBox="0 0 128 128" width="128" xmlns="http://www.w3.org/2000/svg" xmlns:xlink="http://www.w3.org/1999/xlink">
  <linearGradient id="paint4_linear" gradientUnits="userSpaceOnUse" x1="104.653" x2="103.414" y1="93.1455" y2="91.9414">
    <stop offset="0" stop-color="#d5d3cf"/>
    <stop offset="1" stop-color="#fff"/>
  </linearGradient>
  <path d="m18.5742 119.001h92.0568c4.622 0 8.369-4.428 8.369-9.891v-80.6435c0-5.4626-3.747-9.891-8.369-9.891h-92.0568c-4.622 0-8.3689 4.4284-8.3689 9.891v80.6435c0 5.463 3.7469 9.891 8.3689 9.891z" fill="#241f31" opacity=".25"/>
  <path d="m17.3689 117.796h92.0571c4.622 0 8.369-4.428 8.369-9.891v-80.6441c0-5.4626-3.747-9.8909-8.369-9.8909h-92.0571c-4.622 0-8.36891 4.4283-8.36891 9.8909v80.6441c0 5.463 3.74691 9.891 8.36891 9.891z" fill="#f66151"/>
  <path d="m17.3689 115.703h92.0571c4.622 0 8.369-4.428 8.369-9.891v-80.6436c0-5.4626-3.747-9.8909-8.369-9.8909h-92.0571c-4.622 0-8.36891 4.4283-8.36891 9.8909v80.6436c0 5.463 3.74691 9.891 8.36891 9.891z" fill="#d5d3cf"/>
  <path d="m17.3689 109.426h92.0571c4.622 0 8.369-3.747 8.369-8.369v-83.6883c0-4.6219-3.747-8.36872-8.369-8.36872h-92.0571c-4.622 0-8.36891 3.74682-8.36891 8.36872v83.6883c0 4.622 3.74691 8.369 8.36891 8.369z" fill="#f6f5f4"/>
  <g fill="#d5d3cf">
    <path d="m109.427 82.2273c1.155 0 2.092-.9368 2.092-2.0922 0-1.1555-.937-2.0923-2.092-2.0923-1.156 0-2.092.9368-2.092 2.0923 0 1.1554.936 2.0922 2.092 2.0922z"/>
    <path d="m109.427 71.7663c1.155 0 2.092-.9368 2.092-2.0922 0-1.1555-.937-2.0923-2.092-2.0923-1.156 0-2.092.9368-2.092 2.0923 0 1.1554.936 2.0922 2.092 2.0922z"/>
    <path d="m109.427 61.3052c1.155 0 2.092-.9367 2.092-2.0922s-.937-2.0922-2.092-2.0922c-1.156 0-2.092.9367-2.092 2.0922s.936 2.0922 2.092 2.0922z"/>
    <path d="m109.427 50.8442c1.155 0 2.092-.9367 2.092-2.0922s-.937-2.0922-2.092-2.0922c-1.156 0-2.092.9367-2.092 2.0922s.936 2.0922 2.092 2.0922z"/>
    <path d="m109.427 40.3832c1.155 0 2.092-.9367 2.092-2.0922s-.937-2.0922-2.092-2.0922c-1.156 0-2.092.9367-2.092 2.0922s.936 2.0922 2.092 2.0922z"/>
    <path d="m109.427 29.9222c1.155 0 2.092-.9367 2.092-2.0922s-.937-2.0922-2.092-2.0922c-1.156 0-2.092.9367-2.092 2.0922s.936 2.0922 2.092 2.0922z"/>
    <path d="m109.427 19.4612c1.155 0 2.092-.9367 2.092-2.0922s-.937-2.0922-2.092-2.0922c-1.156 0-2.092.9367-2.092 2.0922s.936 2.0922 2.092 2.0922z"/>
    <path d="m17.37 103.149c1.1555 0 2.0922-.936 2.0922-2.092 0-1.1554-.9367-2.0921-2.0922-2.0921s-2.0922.9367-2.0922 2.0921c0 1.156.9367 2.092 2.0922 2.092z"/>
    <path d="m17.37 92.6883c1.1555 0 2.0922-.9367 2.0922-2.0922s-.9367-2.0922-2.0922-2.0922-2.0922.9367-2.0922 2.0922.9367 2.0922 2.0922 2.0922z"/>
    <path d="m17.37 82.2273c1.1555 0 2.0922-.9368 2.0922-2.0922 0-1.1555-.9367-2.0923-2.0922-2.0923s-2.0922.9368-2.0922 2.0923c0 1.1554.9367 2.0922 2.0922 2.0922z"/>
    <path d="m17.37 71.7663c1.1555 0 2.0922-.9368 2.0922-2.0922 0-1.1555-.9367-2.0923-2.0922-2.0923s-2.0922.9368-2.0922 2.0923c0 1.1554.9367 2.0922 2.0922 2.0922z"/>
    <path d="m17.37 61.3052c1.1555 0 2.0922-.9367 2.0922-2.0922s-.9367-2.0922-2.0922-2.0922-2.0922.9367-2.0922 2.0922.9367 2.0922 2.0922 2.0922z"/>
    <path d="m17.37 50.8442c1.1555 0 2.0922-.9367 2.0922-2.0922s-.9367-2.0922-2.0922-2.0922-2.0922.9367-2.0922 2.0922.9367 2.0922 2.0922 2.0922z"/>
    <path d="m17.37 40.3832c1.1555 0 2.0922-.9367 2.0922-2.0922s-.9367-2.0922-2.0922-2.0922-2.0922.9367-2.0922 2.0922.9367 2.0922 2.0922 2.0922z"/>
    <path d="m17.37 29.9222c1.1555 0 2.0922-.9367 2.0922-2.0922s-.9367-2.0922-2.0922-2.0922-2.0922.9367-2.0922 2.0922.9367 2.0922 2.0922 2.0922z"/>
    <path d="m17.37 19.4612c1.1555 0 2.0922-.9367 2.0922-2.0922s-.9367-2.0922-2.0922-2.0922-2.0922.9367-2.0922 2.0922.9367 2.0922 2.0922 2.0922z"/>
  </g>
  <path d="m51.4163 60.2317v31.6296h31.9019v-31.6296zm2.9001 2.8754h26.1016v25.8788h-26.1016z" fill="#f66151"/>
  <path d="m54.3308 39.6185c-11.7806 0-21.3308 9.4693-21.3308 21.1493 0 11.6801 9.5502 21.1489 21.3308 21.1489 11.7812 0 21.3314-9.4688 21.3314-21.1489 0-11.68-9.5502-21.1493-21.3314-21.1493zm0 3.5256c9.8178 0 17.7764 7.8905 17.7764 17.6237 0 9.7333-7.9586 17.6238-17.7764 17.6238-9.8172 0-17.7758-7.8905-17.7758-17.6238 0-9.7332 7.9586-17.6237 17.7758-17.6237z" fill="#3584e4"/>
  <path clip-rule="evenodd" d="m43.7974 24.9377 52.2026 63.2583v-63.2583zm24.0706 11.5017h16.5313v20.1275" fill="#33d17a" fill-rule="evenodd"/>
  <path d="m100.012 79.8736c-6.3748 0-11.507 5.1321-11.507 11.5071v14.6453c0 1.185.1771 2.326.5067 3.4l28.8453-29.0968c-1.016-.292-2.087-.4556-3.199-.4556z" fill="url(#paint4_linear)"/>
</svg>
