<svg fill="none" height="128" viewBox="0 0 128 128" width="128" xmlns="http://www.w3.org/2000/svg">
  <path d="m10.9298 16.7193c0-2.1316 1.728-3.8597 3.8597-3.8597h98.4215c2.131 0 3.859 1.7281 3.859 3.8597v98.4207c0 2.132-1.728 3.86-3.859 3.86h-98.4215c-2.1317 0-3.8597-1.728-3.8597-3.86z" fill="#26a269"/>
  <path d="m10.9298 12.8597c0-2.1317 1.728-3.8597 3.8597-3.8597h98.4215c2.131 0 3.859 1.728 3.859 3.8596v98.4214c0 2.131-1.728 3.859-3.859 3.859h-98.4215c-2.1317 0-3.8597-1.728-3.8597-3.859z" fill="#33d17a"/>
  <path d="m52.5315 28.0006s-5.5038-.1015-11.3839 2.3539c-5.88 2.4554-13.0419 9.1662-13.0419 19.2459s7.1619 16.7906 13.0419 19.246c5.8801 2.4553 11.3839 2.3538 11.3839 2.3538h22.9893s3.1175.1012 5.8584 1.2457c2.7409 1.1446 4.1992 1.6336 4.1992 5.9535s-1.4583 4.8101-4.1992 5.9546c-2.7409 1.1446-5.8584 1.2457-5.8584 1.2457h-40.2304c-.9523-.014-1.8979.1619-2.7818.5174s-1.6884.8836-2.3668 1.5536c-.6783.6699-1.2171 1.4684-1.5848 2.3489-.3677.8804-.557 1.8254-.557 2.7799s.1893 1.8994.557 2.7799.9065 1.6789 1.5848 2.3489c.6784.6699 1.4829 1.198 2.3668 1.5535.8839.3556 1.8295.5312 2.7818.5174h40.2304s5.5038.1018 11.3838-2.3539c5.8801-2.4553 13.042-9.1662 13.042-19.2459s-7.1619-16.7894-13.042-19.2448c-5.88-2.4553-11.3838-2.3538-11.3838-2.3538h-22.9893s-3.1164-.1024-5.8573-1.2469-4.2003-1.6336-4.2003-5.9535 1.4594-4.8089 4.2003-5.9534c2.7409-1.1446 5.8573-1.2457 5.8573-1.2457h40.2316c.9479.0068 1.8877-.1743 2.7654-.5331.8778-.3588 1.676-.888 2.3486-1.5573.6727-.6693 1.2066-1.4654 1.571-2.3424.3643-.877.5519-1.8176.5519-2.7676s-.1876-1.8905-.5519-2.7675c-.3644-.877-.8983-1.6731-1.571-2.3424-.6726-.6693-1.4708-1.1986-2.3486-1.5574-.8777-.3587-1.8175-.5399-2.7654-.533z" fill="#f6f5f4"/>
  <path d="m52.5322 28.0006s-5.5038-.1015-11.3839 2.3539c-5.88 2.4554-13.0419 9.1662-13.0419 19.2459 0 .2026.0084.4018.0141.6017.2788-9.744 7.266-16.2382 13.0278-18.6442 5.8801-2.4554 11.3839-2.3539 11.3839-2.3539h40.2316c1.8149-.011 3.5667.6668 4.9034 1.8972s2.1593 2.9222 2.3024 4.7355c.0884-.9994-.0326-2.0063-.3552-2.9561s-.8397-1.8215-1.5182-2.5593c-.6784-.7378-1.5033-1.3254-2.4215-1.725-.9183-.3996-1.9098-.6025-2.9109-.5957zm-10.0435 22.2015c-.0071.1941-.0141.3897-.0141.6017 0 4.3199 1.4594 4.8089 4.2003 5.9535 2.7409 1.1445 5.8573 1.2468 5.8573 1.2468h22.9893s5.5038-.1015 11.3838 2.3539c5.7619 2.406 12.7491 8.8991 13.0279 18.6431.006-.1999.0141-.3991.0141-.6017 0-10.0797-7.1619-16.7894-13.042-19.2448-5.8801-2.4553-11.3838-2.3538-11.3838-2.3538h-22.9893s-3.1164-.1024-5.8573-1.2469c-2.6064-1.0884-4.0505-1.5912-4.1863-5.3518zm43.0763 28.799c-.1357 3.7607-1.5787 4.2646-4.1851 5.3529-2.7409 1.1446-5.8584 1.2457-5.8584 1.2457h-40.2304c-.9988-.0136-1.9894.1816-2.9086.5732-.9192.3917-1.7469.9711-2.4302 1.7012-.6832.7302-1.207 1.5952-1.538 2.5396-.3309.9445-.4618 1.9478-.3841 2.9458.1619-1.8092 1.0002-3.4902 2.3467-4.7061 1.3466-1.2158 3.1019-1.8768 4.9142-1.8503h40.2304s3.1175-.1011 5.8584-1.2457c2.7409-1.1445 4.1992-1.6347 4.1992-5.9546 0-.212-.0071-.4076-.014-.6017z" fill="#fff"/>
  <path d="m99.9689 34.6333c-.1594 1.8011-.9889 3.4761-2.3239 4.6923-1.3351 1.2163-3.0778 1.8846-4.8819 1.8723h-40.2316s-3.1164.1011-5.8573 1.2457c-2.7409 1.1445-4.2003 1.6336-4.2003 5.9534 0 .2121.007.4076.0141.6017.1358-3.7605 1.5799-4.2634 4.1862-5.3517 2.7409-1.1446 5.8573-1.2457 5.8573-1.2457h40.2316c.9949.006 1.9801-.1952 2.8934-.5907s1.7346-.9768 2.412-1.7071c.6774-.7302 1.1961-1.5935 1.5232-2.5351.3272-.9417.4553-1.9411.3772-2.9351zm-71.8491 14.3654c-.0057.1999-.0141.3991-.0141.6017 0 10.0797 7.1619 16.7906 13.0419 19.246 5.8801 2.4553 11.3839 2.3538 11.3839 2.3538h22.9893s3.1175.1012 5.8584 1.2457c2.6064 1.0884 4.0494 1.5913 4.1851 5.3518.0071-.1941.0141-.3897.0141-.6017 0-4.3199-1.4583-4.8089-4.1992-5.9535-2.7409-1.1445-5.8584-1.2456-5.8584-1.2456h-22.9893s-5.5038.1014-11.3839-2.3539c-5.7618-2.406-12.749-8.9002-13.0278-18.6443zm71.8127 28.799c-.2788 9.7441-7.266 16.2382-13.0279 18.6443-5.88 2.4553-11.3838 2.3538-11.3838 2.3538h-40.2304c-1.8255.0249-3.5921-.6475-4.9407-1.8808s-2.1782-2.9348-2.3202-4.7589c-.0899 1.0046.0317 2.017.3572 2.9715.3254.9545.8473 1.8298 1.5318 2.5692.6846.7395 1.5165 1.3265 2.4419 1.7232.9254.3966 1.9236.594 2.93.5792h40.2304s5.5038.1018 11.3838-2.3539c5.8801-2.4553 13.042-9.1662 13.042-19.2459 0-.2026-.0084-.4018-.0141-.6017z" fill="#241f31" opacity=".2"/>
</svg>
