<svg fill="none" height="128" viewBox="0 0 128 128" width="128" xmlns="http://www.w3.org/2000/svg">
  <path d="m10.9298 16.7193c0-2.1316 1.728-3.8597 3.8597-3.8597h98.4215c2.131 0 3.859 1.7281 3.859 3.8597v98.4207c0 2.132-1.728 3.86-3.859 3.86h-98.4215c-2.1317 0-3.8597-1.728-3.8597-3.86z" fill="#1a5fb4"/>
  <path d="m10.9298 12.8597c0-2.1317 1.728-3.8597 3.8597-3.8597h98.4215c2.131 0 3.859 1.728 3.859 3.8596v98.4214c0 2.131-1.728 3.859-3.859 3.859h-98.4215c-2.1317 0-3.8597-1.728-3.8597-3.859z" fill="#3584e4"/>
  <path d="m35.1026 28.0148c-1.9111.0287-3.7327.8139-5.0643 2.1829s-2.0644 3.2099-2.0372 5.1181v57.4871c.0004 1.4023.4111 2.774 1.1815 3.9466.7705 1.1726 1.8671 2.095 3.1553 2.6539 1.2881.5589 2.7118.7306 4.096.4925 1.3843-.2377 2.6689-.8738 3.6961-1.8302l23.8699-22.2435 23.8699 22.2435c1.0272.9564 2.3118 1.5925 3.6961 1.8302 1.3842.2381 2.8078.0664 4.096-.4925s2.3848-1.4813 3.1553-2.6539c.7704-1.1726 1.181-2.5443 1.1815-3.9466v-57.4871c.0153-.9551-.1596-1.9038-.515-2.7907s-.884-1.6943-1.5551-2.3751c-.671-.6809-1.471-1.2217-2.3535-1.5908-.8824-.3691-1.8296-.5592-2.7863-.5592-.9568 0-1.904.1901-2.7864.5592s-1.6825.9099-2.3535 1.5908c-.671.6808-1.1997 1.4882-1.5551 2.3751s-.5304 1.8356-.515 2.7907v40.9206l-16.6594-15.5239c-1.3352-1.244-3.0933-1.9358-4.9195-1.9358s-3.5844.6918-4.9195 1.9358l-16.6594 15.5239v-40.9206c.0137-.9631-.1663-1.9191-.5293-2.8115-.363-.8923-.9017-1.7029-1.5841-2.3837-.6824-.6807-1.4946-1.2179-2.3887-1.5796-.894-.3617-1.8517-.5407-2.8163-.5262z" fill="#f6f5f4"/>
  <path d="m92.6944 28.0008c-.9487.0124-1.8856.2116-2.7571.5862-.8714.3746-1.6603.9173-2.3213 1.5968-.6611.6796-1.1813 1.4827-1.5309 2.3633-.3495.8807-.5216 1.8216-.5063 2.7688v1.1981c-.0154-.9551.1596-1.9038.515-2.7907s.8841-1.6943 1.5551-2.3751c.671-.6809 1.4711-1.2217 2.3535-1.5908s1.8296-.5592 2.7864-.5592c.9567 0 1.9039.1901 2.7863.5592.8825.3691 1.6825.9099 2.3535 1.5908.6711.6808 1.1997 1.4882 1.5551 2.3751s.5303 1.8356.515 2.7907v-1.1981c.0153-.9631-.1626-1.9194-.5238-2.8125-.3613-.893-.8984-1.7046-1.5795-2.3867s-1.4923-1.2208-2.3857-1.5843c-.8934-.3634-1.8507-.5442-2.8153-.5316zm-57.5918.0141c-1.9111.0287-3.7327.8139-5.0643 2.1829s-2.0644 3.2099-2.0372 5.1181v1.1981c-.0272-1.9082.7056-3.7491 2.0372-5.1181s3.1532-2.1542 5.0643-2.1829c.9646-.0145 1.9223.1645 2.8163.5262.8941.3617 1.7063.8989 2.3887 1.5796.6824.6808 1.2211 1.4914 1.5841 2.3837.363.8924.543 1.8484.5293 2.8115v-1.1981c.0137-.9631-.1663-1.9191-.5293-2.8115-.363-.8923-.9017-1.7029-1.5841-2.3837s-1.4946-1.2179-2.3887-1.5796c-.894-.3618-1.8517-.5407-2.8163-.5262zm28.5422 30.7706c-1.7017.0838-3.3188.7665-4.5644 1.927l-16.6594 15.524v1.1981l16.6594-15.5239c1.3351-1.244 3.0933-1.9358 4.9195-1.9358s3.5843.6918 4.9195 1.9358l16.6594 15.5239v-1.1981l-16.6594-15.524c-.7053-.6571-1.5356-1.1663-2.4416-1.4973-.9061-.331-1.8694-.4771-2.833-.4297z" fill="#fff" opacity=".3"/>
  <path d="m63.9999 74.6241-23.8699 22.2435c-1.0272.9564-2.3118 1.5925-3.6961 1.8302-1.3842.2376-2.8079.0664-4.096-.4925-1.2882-.5589-2.3848-1.4813-3.1553-2.6539-.7704-1.1726-1.1811-2.5443-1.1815-3.9466v1.1981c.0004 1.4024.4111 2.774 1.1815 3.9466.7705 1.1726 1.8671 2.095 3.1553 2.6539 1.2881.559 2.7118.7306 4.096.4925 1.3843-.2377 2.6689-.8738 3.6961-1.8302l23.8699-22.2435 23.8699 22.2435c1.0272.9564 2.3118 1.5925 3.6961 1.8302 1.3842.2381 2.8078.0665 4.096-.4925 1.2882-.5589 2.3848-1.4813 3.1552-2.6539.7705-1.1726 1.1811-2.5442 1.1816-3.9466v-1.1981c-.0005 1.4023-.4111 2.774-1.1816 3.9466-.7704 1.1726-1.867 2.095-3.1552 2.6539s-2.7118.7301-4.096.4925c-1.3843-.2377-2.6689-.8738-3.6961-1.8302z" fill="#241f31" opacity=".2"/>
</svg>
