<svg fill="none" height="128" viewBox="0 0 128 128" width="128" xmlns="http://www.w3.org/2000/svg">
  <path d="m112 20h-96c-4.4183 0-8 3.9399-8 8.8v70.4c0 4.86 3.5817 8.8 8 8.8h96c4.418 0 8-3.94 8-8.8v-70.4c0-4.8601-3.582-8.8-8-8.8z" fill="#5e5c64"/>
  <path d="m8 97v3c0 4.432 3.568 8 8 8h96c4.432 0 8-3.568 8-8v-3c0 4.432-3.568 8-8 8h-96c-4.432 0-8-3.568-8-8z" fill="#3d3846"/>
  <path clip-rule="evenodd" d="m112 23h-96c-2.7614 0-5 2.2386-5 5v69c0 2.7614 2.2386 5 5 5h96c2.761 0 5-2.2386 5-5v-69c0-2.7614-2.239-5-5-5zm-96-3c-4.4183 0-8 3.5817-8 8v69c0 4.418 3.5817 8 8 8h96c4.418 0 8-3.582 8-8v-69c0-4.4183-3.582-8-8-8z" fill="#f6f5f4" fill-rule="evenodd"/>
  <path d="m17 59h39v39h-39z" fill="#241f31" opacity=".2"/>
  <path d="m16 58h39v39h-39z" fill="#33d17a"/>
  <path d="m16 97h39l-39-39z" fill="#ffa348"/>
  <path d="m16 58h39v39h-39z" fill="#f6f5f4" opacity=".3"/>
  <path d="m46 45h39v39h-39z" fill="#241f31" opacity=".2"/>
  <path d="m45 44h39v39h-39z" fill="#33d17a"/>
  <path d="m45 83h39l-39-39z" fill="#ffa348"/>
  <path d="m73 29h39v39h-39z" fill="#241f31" opacity=".2"/>
  <path d="m72 28h39v39h-39z" fill="#33d17a"/>
  <path d="m72 67h39l-39-39z" fill="#ffa348"/>
  <path d="m72 28h39v39h-39z" fill="#241f31" opacity=".3"/>
</svg>
