<svg fill="none" height="128" viewBox="0 0 128 128" width="128" xmlns="http://www.w3.org/2000/svg" xmlns:xlink="http://www.w3.org/1999/xlink">
  <linearGradient id="paint1_linear" gradientUnits="userSpaceOnUse" x1="108" x2="116" y1="79" y2="79">
    <stop offset="0" stop-color="#e8e7e4"/>
    <stop offset=".511049" stop-color="#fff"/>
    <stop offset="1" stop-color="#c2bfba"/>
  </linearGradient>
  <path d="m12 32v84h96c4.432 0 8-3.568 8-8v-68c0-4.432-3.568-8-8-8z" fill="#a51d2d"/>
  <path d="m14 44v70h94c4.432 0 8-3.568 8-8v-54c0-4.432-3.568-8-8-8z" fill="url(#paint1_linear)"/>
  <path d="m12 14v94h96c4.432 0 8-3.568 8-8v-78c0-4.432-3.568-8-8-8z" fill="#a51d2d"/>
  <path d="m12 12v94h96c4.432 0 8-3.568 8-8v-78c0-4.432-3.568-8-8-8z" fill="#c01c28"/>
  <path d="m20 12h-8v94h8z" fill="#3d3846"/>
  <path d="m12 106v10h8v-2h-6v-6h6v-2z" fill="#241f31"/>
  <path d="m15 106v-94" opacity=".15" stroke="#fff" stroke-width="2"/>
  <path clip-rule="evenodd" d="m41 22.637s10-4.137 25.5 0 25.5 0 25.5 0v34s-10 4.137-25.5 0-25.5 0-25.5 0z" fill="#3d3846" fill-rule="evenodd" opacity=".4"/>
  <path clip-rule="evenodd" d="m40 21.637s10-4.137 25.5 0 25.5 0 25.5 0v34s-10 4.137-25.5 0-25.5 0-25.5 0z" fill="#fff" fill-rule="evenodd"/>
  <path d="m65.2167 48.793c6.1027 1.0487 11.05-3.121 11.05-9.3132s-4.9473-12.062-11.05-13.1107c-6.1028-1.0486-11.05 3.1211-11.05 9.3133 0 6.1921 4.9472 12.062 11.05 13.1106z" fill="#d30000"/>
  <g fill="#f6f5f4">
    <path d="m36.0543 83.8281h-7.1875c-1.3229.0834-1.9427-.5364-1.8594-1.8593v-9.2188c-.0208-.6354.1458-1.125.5-1.4688.3333-.2604.7656-.3906 1.2969-.3906h7.25c.625-.0208 1.1146.1459 1.4687.5.2604.3229.3907.7552.3907 1.2969v9.2813c.0833 1.3229-.5365 1.9427-1.8594 1.8593zm-7.5781-7.25h7.9687v-3.375c-.0104-.5833-.3125-.8854-.9062-.9062h-6.1563c-.6042.0208-.9062.3333-.9062.9375zm0 1.375v3.5625c.0208.6042.3333.9063.9375.9063h6.125c.5833-.0104.8854-.3125.9062-.9063v-3.5625z"/>
    <path d="m49.4293 74.2969c.5416 1.1666 1.3281 2.3229 2.3594 3.4687 1.0416 1.1354 2.1354 2.0365 3.2812 2.7032.4167.2395.625.5156.625.8281 0 .5416-.25.8125-.75.8125-.4792 0-1.3698-.6615-2.6719-1.9844-1.2916-1.3229-2.3958-2.8438-3.3125-4.5625v5.1875h2.5313c.4791 0 .7187.224.7187.6719 0 .4375-.2396.6562-.7187.6562h-2.5313v1.7969c0 .5625-.2343.8438-.7031.8438-.4583 0-.6875-.2813-.6875-.8438v-1.7969h-2.4062c-.4792 0-.7188-.2239-.7188-.6719 0-.4374.2396-.6562.7188-.6562h2.4062v-5.2188l-.0625.125c-.8229 1.5313-1.8906 3.0053-3.2031 4.4219-1.3125 1.4063-2.1719 2.1094-2.5781 2.1094-.5 0-.75-.2604-.75-.7813 0-.2916.1718-.5572.5156-.7968 1.1146-.7813 2.1927-1.7865 3.2344-3.0156 1.0416-1.2292 1.7916-2.3282 2.25-3.2969h-4.9219c-.5729 0-.8594-.2344-.8594-.7031 0-.4688.2865-.7032.8594-.7032h5.5156v-2.0156c0-.5833.2344-.875.7031-.875.4584 0 .6875.2917.6875.875v2.0156h5.6563c.5833 0 .875.2344.875.7032 0 .4687-.2917.7031-.875.7031z"/>
    <path d="m64.523 76.8594.4219-2.1875h-.9844c-.4166 0-.625-.1875-.625-.5625s.2084-.5625.625-.5625h1.1563l.1875-1.3125.0156-.2344h-1.7187c-.4688 0-.7032-.1979-.7032-.5938 0-.3854.2344-.5781.7032-.5781h6.9843c.4792 0 .7188.1979.7188.5938 0 .3854-.2396.5781-.7188.5781h-3.9843l-.0313.1875-.2031 1.3594h2.375c1-.0521 1.4687.4114 1.4062 1.3906v1.9219h.9688c.3854 0 .5781.1979.5781.5937 0 .3854-.1927.5781-.5781.5781h-7.9531c-.4688 0-.7032-.1979-.7032-.5937 0-.3854.2344-.5781.7032-.5781zm1.2344 0h3.1406v-1.6719c-.0104-.3333-.1771-.5052-.5-.5156h-2.2187zm-.8594 2.2968h4.5469c.9792-.052 1.4375.4115 1.375 1.3907v2.2656c.0625.9896-.3958 1.4531-1.375 1.3906h-4.5469c-.9687.0521-1.4218-.4062-1.3593-1.375v-2.3125c-.0625-.9687.3906-1.4218 1.3593-1.3594zm.3907 3.8907h3.7343c.3334-.0104.5052-.1823.5157-.5157v-1.7031c-.0105-.3333-.1823-.5052-.5157-.5156h-3.7343c-.323.0104-.4896.1771-.5.5v1.7344c.0104.3229.177.4896.5.5zm-4.3907-3.75c.875 0 1.3125.4271 1.3125 1.2812v2.1875c0 .8542-.4375 1.2813-1.3125 1.2813h-1.9375c-.875 0-1.3125-.4167-1.3125-1.25v-2.2188c0-.8541.4375-1.2812 1.3125-1.2812zm.1563 3.2656v-1.7813c-.0104-.2812-.1511-.4218-.4219-.4218h-1.4062c-.2709 0-.4115.1406-.4219.4218v1.7813c.0104.2813.151.4219.4219.4219h1.4062c.2708 0 .4115-.1406.4219-.4219zm-2.8125-10.7031c-.4584 0-.6875-.1927-.6875-.5782 0-.3854.2291-.5781.6875-.5781h3.3437c.4688 0 .7032.1927.7032.5781 0 .3855-.2344.5782-.7032.5782zm-.5625 2.1718c-.4688 0-.7031-.1927-.7031-.5781s.2343-.5781.7031-.5781h4.4219c.4687 0 .7031.1927.7031.5781s-.2344.5781-.7031.5781zm.6094 2.1094c-.448 0-.6719-.1875-.6719-.5625 0-.3646.2239-.5469.6719-.5469h3.25c.4479 0 .6718.1876.6718.5626 0 .3645-.2239.5468-.6718.5468zm.0312 2.1406c-.4687 0-.7031-.1822-.7031-.5468 0-.375.2239-.5625.6719-.5625h3.25c.4479 0 .6718.1875.6718.5625 0 .3646-.2239.5468-.6718.5468z"/>
    <path d="m80.398 73.3438h-.5468c-.4167 0-.625-.2084-.625-.625 0-.4271.2083-.6407.625-.6407h2.75v-1.2656c0-.5417.2239-.8125.6718-.8125.4375 0 .6563.2708.6563.8125v1.2656h2.7812c.4167 0 .625.2136.625.6407 0 .4166-.2083.625-.625.625h-.6093l-.0157.0624c-.1041.698-.3177 1.6876-.6406 2.9688h1.4688c.5208 0 .7812.2135.7812.6406 0 .4167-.2604.625-.7812.625h-3v2.1563h2.4843c.4792 0 .7188.2135.7188.6406s-.2396.6406-.7188.6406h-2.4843v2.8281c0 .5417-.224.8126-.6719.8126-.4375 0-.6563-.2709-.6563-.8126v-2.8281h-2.2968c-.4792 0-.7188-.2135-.7188-.6406s.2396-.6406.7188-.6406h2.2968v-2.1563h-2.9843c-.5105 0-.7657-.2135-.7657-.6406 0-.4167.2552-.625.7657-.625h1.3437c-.1667-1.1042-.349-2.1146-.5469-3.0312zm1.2657 0c.2187 1.0416.3958 2.052.5312 3.0312h2.0313c.302-1.3646.4947-2.375.5781-3.0312zm-5.8438 4.9062v-2.6094h-2.125c-.4792 0-.7187-.2083-.7187-.625 0-.4166.2395-.625.7187-.625h2.125v-2.2812c-1.1146.1875-1.8333.2812-2.1562.2812-.4063 0-.6094-.2031-.6094-.6094 0-.2083.0677-.3645.2031-.4687.1354-.1146.5833-.2031 1.3438-.2656 1.677-.1979 2.901-.4167 3.6718-.6563.2292-.0729.3959-.1094.5-.1094.4271 0 .6407.2136.6407.6407 0 .2083-.099.375-.2969.5-.1979.1146-.8854.276-2.0625.4843v2.4844h1.8594c.4687 0 .7031.2084.7031.625 0 .4167-.2344.625-.7031.625h-1.8594v2.6094h.7969c.9479-.0521 1.3906.3854 1.3281 1.3125v3.1719c.0521.9271-.3906 1.3646-1.3281 1.3125h-2.875c-.9375.0521-1.3803-.3854-1.3282-1.3125v-3.1719c-.0521-.9271.3907-1.3646 1.3282-1.3125zm2.125 4v-2.2031c.0104-.4271-.1979-.6354-.625-.625h-1.8125c-.4271-.0104-.6354.1979-.625.625v2.2031c-.0104.4271.1979.6354.625.625h1.8125c.4271.0104.6354-.1979.625-.625z"/>
    <path d="m90.1949 79.9531v-6.5c-.0521-1.0416.4323-1.5312 1.4531-1.4687h2.1875v-1.375c0-.4063.2084-.6094.625-.6094.4167 0 .625.2031.625.6094v1.375h2.3438v-1.375c0-.4063.2083-.6094.625-.6094.4166 0 .625.2031.625.6094v1.375h2.3437c1.031-.0625 1.516.4271 1.453 1.4687v6.5h.61c.406 0 .609.2084.609.625 0 .4167-.203.625-.609.625h-13.5005c-.4062 0-.6093-.2083-.6093-.625 0-.4166.2031-.625.6093-.625zm8.4844 0h2.5157v-2.9375h-2.5157zm-1.25 0v-2.9375h-2.3438v2.9375zm-3.5938 0v-2.9375h-2.3593v2.9375zm4.8438-4.1093h2.5157v-2.0626c-.011-.3437-.188-.5208-.531-.5312h-1.9847zm-1.25 0v-2.5938h-2.3438v2.5938zm-3.5938 0v-2.5938h-1.8281c-.3437.0104-.5208.1875-.5312.5312v2.0626zm-.1562 5.7968c.4687 0 .7031.2188.7031.6563 0 .25-.2656.5364-.7969.8593-.5208.323-1.2604.6511-2.2187.9844-.9584.3334-1.5313.5-1.7188.5-.4479 0-.6718-.2239-.6718-.6718 0-.3855.2552-.6303.7656-.7344 1.2708-.25 2.3958-.7084 3.375-1.375.2291-.1459.4166-.2188.5625-.2188zm5.25-.0156c.1458 0 .3437.0781.5937.2344.938.5833 2.094 1.0156 3.469 1.2968.469.0938.703.3282.703.7032 0 .4896-.24.7344-.719.7344-.156 0-.739-.1719-1.75-.5157-1.01-.3333-1.7655-.6458-2.2655-.9375-.5-.3021-.75-.5833-.75-.8437 0-.4479.2396-.6719.7188-.6719z"/>
  </g>
</svg>
