<svg fill="none" height="128" viewBox="0 0 128 128" width="128" xmlns="http://www.w3.org/2000/svg">
  <path d="m104 22h-80.75c-4.4183 0-7.7 3.5817-7.7 8v78c0 4.418 4.2817 8 8.7 8h79.75c4.418 0 8-3.582 8-8v-78c0-4.4183-3.582-8-8-8z" fill="#5e5c64"/>
  <path d="m104 12h-80.5c-4.4183 0-8 3.5817-8 8v80c0 4.418 3.5817 8 8 8h80.5c4.418 0 8-3.582 8-8v-80c0-4.4183-3.582-8-8-8z" fill="#deddda"/>
  <g fill="#ffbe6f">
    <path clip-rule="evenodd" d="m31.3235 77.5152-13.7078 13.7078c-.3739.3739-.3739.98 0 1.3539l13.7078 13.7081c.3738.374.98.374 1.3538 0l13.7078-13.7081c.3739-.3739.3739-.98 0-1.3539l-13.7078-13.7078c-.3738-.3738-.98-.3738-1.3538 0zm-14.3848 13.0309 13.7078-13.7078c.7478-.7477 1.96-.7477 2.7077 0l13.7079 13.7078c.7477.7477.7477 1.96 0 2.7077l-13.7079 13.7082c-.7477.747-1.9599.747-2.7077 0l-13.7078-13.7082c-.7477-.7477-.7477-1.96 0-2.7077z" fill-rule="evenodd"/>
    <path d="m17.6157 91.223 13.7078-13.7078c.3738-.3738.98-.3738 1.3538 0l13.7078 13.7078c.3739.3739.3739.98 0 1.3539l-13.7078 13.7081c-.3738.374-.98.374-1.3538 0l-13.7078-13.7081c-.3739-.3739-.3739-.98 0-1.3539z"/>
    <path clip-rule="evenodd" d="m63.3231 77.5152-13.7078 13.7078c-.3739.3739-.3739.98 0 1.3539l13.7078 13.7081c.3738.374.98.374 1.3538 0l13.7078-13.7081c.3739-.3739.3739-.98 0-1.3539l-13.7078-13.7078c-.3738-.3738-.98-.3738-1.3538 0zm-14.3848 13.0309 13.7078-13.7078c.7478-.7477 1.96-.7477 2.7078 0l13.7078 13.7078c.7477.7477.7477 1.96 0 2.7077l-13.7078 13.7082c-.7478.747-1.96.747-2.7078 0l-13.7078-13.7082c-.7477-.7477-.7477-1.96 0-2.7077z" fill-rule="evenodd"/>
    <path d="m49.6153 91.223 13.7078-13.7078c.3738-.3738.98-.3738 1.3538 0l13.7078 13.7078c.3739.3739.3739.98 0 1.3539l-13.7078 13.7081c-.3738.374-.98.374-1.3538 0l-13.7078-13.7081c-.3739-.3739-.3739-.98 0-1.3539z"/>
    <path clip-rule="evenodd" d="m95.3227 77.5152-13.7078 13.7078c-.3739.3739-.3739.98 0 1.3539l13.7078 13.7081c.3738.374.98.374 1.3538 0l13.7075-13.7081c.374-.3739.374-.98 0-1.3539l-13.7075-13.7078c-.3738-.3738-.98-.3738-1.3538 0zm-14.3848 13.0309 13.7078-13.7078c.7478-.7477 1.96-.7477 2.7078 0l13.7075 13.7078c.748.7477.748 1.96 0 2.7077l-13.7075 13.7082c-.7478.747-1.96.747-2.7078 0l-13.7078-13.7082c-.7477-.7477-.7477-1.96 0-2.7077z" fill-rule="evenodd"/>
    <path d="m81.6149 91.223 13.7078-13.7078c.3738-.3738.98-.3738 1.3538 0l13.7075 13.7078c.374.3739.374.98 0 1.3539l-13.7075 13.7081c-.3738.374-.98.374-1.3538 0l-13.7078-13.7081c-.3739-.3739-.3739-.98 0-1.3539z"/>
    <path clip-rule="evenodd" d="m31.3235 45.6153-13.7078 13.7078c-.3739.3738-.3739.98 0 1.3538l13.7078 13.7078c.3738.3739.98.3739 1.3538 0l13.7078-13.7078c.3739-.3738.3739-.98 0-1.3538l-13.7078-13.7078c-.3738-.3739-.98-.3739-1.3538 0zm-14.3848 13.0308 13.7078-13.7078c.7478-.7477 1.96-.7477 2.7077 0l13.7079 13.7078c.7477.7478.7477 1.96 0 2.7078l-13.7079 13.7078c-.7477.7477-1.9599.7477-2.7077 0l-13.7078-13.7078c-.7477-.7478-.7477-1.96 0-2.7078z" fill-rule="evenodd"/>
    <path d="m17.6157 59.3231 13.7078-13.7078c.3738-.3739.98-.3739 1.3538 0l13.7078 13.7078c.3739.3738.3739.98 0 1.3538l-13.7078 13.7078c-.3738.3739-.98.3739-1.3538 0l-13.7078-13.7078c-.3739-.3738-.3739-.98 0-1.3538z"/>
    <path clip-rule="evenodd" d="m63.3231 45.6153-13.7078 13.7078c-.3739.3738-.3739.98 0 1.3538l13.7078 13.7078c.3738.3739.98.3739 1.3538 0l13.7078-13.7078c.3739-.3738.3739-.98 0-1.3538l-13.7078-13.7078c-.3738-.3739-.98-.3739-1.3538 0zm-14.3848 13.0308 13.7078-13.7078c.7478-.7477 1.96-.7477 2.7078 0l13.7078 13.7078c.7477.7478.7477 1.96 0 2.7078l-13.7078 13.7078c-.7478.7477-1.96.7477-2.7078 0l-13.7078-13.7078c-.7477-.7478-.7477-1.96 0-2.7078z" fill-rule="evenodd"/>
    <path d="m49.6153 59.3231 13.7078-13.7078c.3738-.3739.98-.3739 1.3538 0l13.7078 13.7078c.3739.3738.3739.98 0 1.3538l-13.7078 13.7078c-.3738.3739-.98.3739-1.3538 0l-13.7078-13.7078c-.3739-.3738-.3739-.98 0-1.3538z"/>
    <path clip-rule="evenodd" d="m95.3227 45.6153-13.7078 13.7078c-.3739.3738-.3739.98 0 1.3538l13.7078 13.7078c.3738.3739.98.3739 1.3538 0l13.7075-13.7078c.374-.3738.374-.98 0-1.3538l-13.7075-13.7078c-.3738-.3739-.98-.3739-1.3538 0zm-14.3848 13.0308 13.7078-13.7078c.7478-.7477 1.96-.7477 2.7078 0l13.7075 13.7078c.748.7478.748 1.96 0 2.7078l-13.7075 13.7078c-.7478.7477-1.96.7477-2.7078 0l-13.7078-13.7078c-.7477-.7478-.7477-1.96 0-2.7078z" fill-rule="evenodd"/>
    <path d="m81.6149 59.3231 13.7078-13.7078c.3738-.3739.98-.3739 1.3538 0l13.7075 13.7078c.374.3738.374.98 0 1.3538l-13.7075 13.7078c-.3738.3739-.98.3739-1.3538 0l-13.7078-13.7078c-.3739-.3738-.3739-.98 0-1.3538z"/>
    <path clip-rule="evenodd" d="m31.3235 13.7153-13.7078 13.7078c-.3739.3738-.3739.98 0 1.3538l13.7078 13.7078c.3738.3739.98.3739 1.3538 0l13.7078-13.7078c.3739-.3738.3739-.98 0-1.3538l-13.7078-13.7078c-.3738-.3739-.98-.3739-1.3538 0zm-14.3848 13.0308 13.7078-13.7078c.7478-.7477 1.96-.7477 2.7077 0l13.7079 13.7078c.7477.7478.7477 1.96 0 2.7078l-13.7079 13.7078c-.7477.7477-1.9599.7477-2.7077 0l-13.7078-13.7078c-.7477-.7478-.7477-1.96 0-2.7078z" fill-rule="evenodd"/>
    <path d="m17.6157 27.4231 13.7078-13.7078c.3738-.3739.98-.3739 1.3538 0l13.7078 13.7078c.3739.3738.3739.98 0 1.3538l-13.7078 13.7078c-.3738.3739-.98.3739-1.3538 0l-13.7078-13.7078c-.3739-.3738-.3739-.98 0-1.3538z"/>
    <path clip-rule="evenodd" d="m63.3231 13.7153-13.7078 13.7078c-.3739.3738-.3739.98 0 1.3538l13.7078 13.7078c.3738.3739.98.3739 1.3538 0l13.7078-13.7078c.3739-.3738.3739-.98 0-1.3538l-13.7078-13.7078c-.3738-.3739-.98-.3739-1.3538 0zm-14.3848 13.0308 13.7078-13.7078c.7478-.7477 1.96-.7477 2.7078 0l13.7078 13.7078c.7477.7478.7477 1.96 0 2.7078l-13.7078 13.7078c-.7478.7477-1.96.7477-2.7078 0l-13.7078-13.7078c-.7477-.7478-.7477-1.96 0-2.7078z" fill-rule="evenodd"/>
    <path d="m49.6153 27.4231 13.7078-13.7078c.3738-.3739.98-.3739 1.3538 0l13.7078 13.7078c.3739.3738.3739.98 0 1.3538l-13.7078 13.7078c-.3738.3739-.98.3739-1.3538 0l-13.7078-13.7078c-.3739-.3738-.3739-.98 0-1.3538z"/>
    <path clip-rule="evenodd" d="m95.3227 13.7153-13.7078 13.7078c-.3739.3738-.3739.98 0 1.3538l13.7078 13.7078c.3738.3739.98.3739 1.3538 0l13.7075-13.7078c.374-.3738.374-.98 0-1.3538l-13.7075-13.7078c-.3738-.3739-.98-.3739-1.3538 0zm-14.3848 13.0308 13.7078-13.7078c.7478-.7477 1.96-.7477 2.7078 0l13.7075 13.7078c.748.7478.748 1.96 0 2.7078l-13.7075 13.7078c-.7478.7477-1.96.7477-2.7078 0l-13.7078-13.7078c-.7477-.7478-.7477-1.96 0-2.7078z" fill-rule="evenodd"/>
    <path d="m81.6149 27.4231 13.7078-13.7078c.3738-.3739.98-.3739 1.3538 0l13.7075 13.7078c.374.3738.374.98 0 1.3538l-13.7075 13.7078c-.3738.3739-.98.3739-1.3538 0l-13.7078-13.7078c-.3739-.3738-.3739-.98 0-1.3538z"/>
  </g>
  <circle cx="32.0004" cy="91.9" fill="#a51d2d" r="9.625"/>
  <circle cx="48.4159" cy="76.4155" fill="#a51d2d" r="9.625"/>
  <circle cx="63.75" cy="60" fill="#a51d2d" r="9.625"/>
  <circle cx="79.5841" cy="44.5155" fill="#a51d2d" r="9.625"/>
  <circle cx="95.9996" cy="28.1" fill="#a51d2d" r="9.625"/>
  <circle cx="32.0004" cy="90.9" fill="#f66151" r="9.625"/>
  <circle cx="48.4159" cy="75.4155" fill="#f66151" r="9.625"/>
  <circle cx="63.75" cy="59" fill="#f66151" r="9.625"/>
  <circle cx="79.5841" cy="43.5155" fill="#f66151" r="9.625"/>
  <circle cx="95.9996" cy="27.1" fill="#f66151" r="9.625"/>
</svg>
