<svg fill="none" height="128" viewBox="0 0 128 128" width="128" xmlns="http://www.w3.org/2000/svg" xmlns:xlink="http://www.w3.org/1999/xlink">
  <linearGradient id="paint0_linear" gradientUnits="userSpaceOnUse" x1="108" x2="20" y1="104" y2="104">
    <stop offset="0" stop-color="#c0bfbc"/>
    <stop offset=".045" stop-color="#fff"/>
    <stop offset=".091" stop-color="#deddda"/>
    <stop offset=".909" stop-color="#deddda"/>
    <stop offset=".955" stop-color="#fff"/>
    <stop offset="1" stop-color="#c0bfbc"/>
  </linearGradient>
  <linearGradient id="paint15_linear" gradientUnits="userSpaceOnUse" x1="99.0027" x2="98.1587" y1="104.907" y2="104.086">
    <stop offset="0" stop-color="#d5d3cf"/>
    <stop offset="1" stop-color="#fff"/>
  </linearGradient>
  <path d="m28 122h72c4.418 0 8-3.582 8-8v-14.25c0-4.4183-3.582-8-8-8h-72c-4.4183 0-8 3.5817-8 8v14.25c0 4.418 3.5817 8 8 8z" fill="#1a5fb4"/>
  <path d="m28 120h72c4.418 0 8-3.582 8-8v-24c0-4.4183-3.582-8-8-8h-72c-4.4183 0-8 3.5817-8 8v24c0 4.418 3.5817 8 8 8z" fill="url(#paint0_linear)"/>
  <path d="m28 116h72c4.418 0 8-3.582 8-8v-92c0-4.4183-3.582-8-8-8h-72c-4.4183 0-8 3.5817-8 8v92c0 4.418 3.5817 8 8 8z" fill="#f6f5f4"/>
  <path d="m28 18c-1.1046 0-2 .8954-2 2s.8954 2 2 2 2-.8954 2-2-.8954-2-2-2zm8 0c-1.1046 0-2 .8954-2 2s.8954 2 2 2 2-.8954 2-2-.8954-2-2-2zm8 0c-1.1046 0-2 .8954-2 2s.8954 2 2 2 2-.8954 2-2-.8954-2-2-2zm8 0c-1.1046 0-2 .8954-2 2s.8954 2 2 2 2-.8954 2-2-.8954-2-2-2zm8 0c-1.1046 0-2 .8954-2 2s.8954 2 2 2 2-.8954 2-2-.8954-2-2-2zm8 0c-1.1046 0-2 .8954-2 2s.8954 2 2 2 2-.8954 2-2-.8954-2-2-2zm8 0c-1.1046 0-2 .8954-2 2s.8954 2 2 2 2-.8954 2-2-.8954-2-2-2zm8 0c-1.1046 0-2 .8954-2 2s.8954 2 2 2 2-.8954 2-2-.8954-2-2-2zm8 0c-1.1046 0-2 .8954-2 2s.8954 2 2 2 2-.8954 2-2-.8954-2-2-2z" fill="#d5d3cf"/>
  <path d="m100 22c-1.1046 0-2-.8954-2-2s.8954-2 2-2c1.105 0 2 .8954 2 2s-.895 2-2 2z" fill="#d5d3cf"/>
  <path d="m108 22c-.351 0-.696-.0924-1-.2679-.304-.1756-.557-.4281-.732-.7321-.176-.304-.268-.6489-.268-1s.092-.696.268-1c.175-.304.428-.5565.732-.7321.304-.1755.649-.2679 1-.2679" fill="#d5d3cf"/>
  <path d="m20 22c.3511 0 .696-.0924 1-.2679.304-.1756.5565-.4281.7321-.7321.1755-.304.2679-.6489.2679-1s-.0924-.696-.2679-1c-.1756-.304-.4281-.5565-.7321-.7321-.304-.1755-.6489-.2679-1-.2679" fill="#d5d3cf"/>
  <g fill="#241f31">
    <path d="m45 8h1v108h-1z" opacity=".1"/>
    <path d="m35 8h1v108h-1z" opacity=".1"/>
    <path d="m65 8h1v108h-1z" opacity=".1"/>
    <path d="m75 8h1v108h-1z" opacity=".1"/>
    <path d="m85 8h1v108h-1z" opacity=".1"/>
    <path d="m95 8h1v108h-1z" opacity=".1"/>
    <path d="m108 68.25h1v88h-1z" opacity=".1" transform="matrix(0 1 -1 0 176.25 -39.75)"/>
    <path d="m108 58.25h1v88h-1z" opacity=".1" transform="matrix(0 1 -1 0 166.25 -49.75)"/>
    <path d="m108 48.25h1v88h-1z" opacity=".1" transform="matrix(0 1 -1 0 156.25 -59.75)"/>
    <path d="m108 38.25h1v88h-1z" opacity=".1" transform="matrix(0 1 -1 0 146.25 -69.75)"/>
    <path d="m108 28.25h1v88h-1z" opacity=".1" transform="matrix(0 1 -1 0 136.25 -79.75)"/>
    <path d="m108 88.25h1v88h-1z" opacity=".1" transform="matrix(0 1 -1 0 196.25 -19.75)"/>
    <path d="m108 98.25h1v88h-1z" opacity=".1" transform="matrix(0 1 -1 0 206.25 -9.75)"/>
    <path d="m108 108.25h1v88h-1z" opacity=".1" transform="matrix(0 1 -1 0 216.25 .25)"/>
  </g>
  <path d="m55 8h1.75v108h-1.75z" fill="#1a5fb4"/>
  <path d="m108 78.25h1.75v88h-1.75z" fill="#1a5fb4" transform="matrix(0 1 -1 0 186.25 -29.75)"/>
  <path d="m70.4862 87.7811c0 .1064-.0483.1983-.1451.2757-.087.0677-.1934.1258-.3192.1742-.1258.0387-.2515.0677-.3773.087-.1257.0194-.2225.029-.2902.029-.2225 0-.4305-.0338-.6239-.1015-.1935-.0774-.4015-.121-.624-.1306-.3192.087-.6046.2805-.8561.5804s-.4499.7352-.595 1.306c-.1451.5707-.2273 1.2866-.2466 2.1475-.0194.861.0435 1.9009.1886 3.1198.6094-.1258 1.1754-.2322 1.6977-.3192.5321-.0968.9432-.1451 1.2334-.1451.2322 0 .3918.0628.4789.1886s.1306.2854.1306.4789c0 .1934-.0194.3724-.0581.5368-.0386.1645-.1402.2999-.3047.4063l-3.0327.4644c.0484.4063.0871.8174.1161 1.2334.0387.4063.0774.8077.1161 1.2044.1548 1.2579.2854 2.2879.3918 3.0909.116.803.2079 1.446.2757 1.93.0774.474.1354.817.1741 1.03.0484.203.0822.343.1016.421.0193.068.029.097.029.087.0097-.01.0145 0 .0145.029 0 .203-.0629.343-.1886.421-.1258.087-.2757.13-.4499.13-.1354 0-.2805-.014-.4353-.043-.1451-.02-.2902-.053-.4353-.102-.1451-.048-.2757-.116-.3918-.203s-.1983-.193-.2467-.319c-.0774-.658-.1693-1.287-.2757-1.887-.1064-.599-.1983-1.223-.2757-1.871-.0774-.765-.1644-1.577-.2612-2.4382-.087-.861-.1596-1.6833-.2176-2.4668-.0387.0096-.0774.0145-.1161.0145-.0387-.0097-.0822-.0145-.1306-.0145-.1548 0-.2854-.0339-.3918-.1016-.0967-.0774-.1451-.2128-.1451-.4063 0-.2225.0532-.4257.1596-.6095.1161-.1838.2854-.3047.5079-.3627-.029-.5321-.0629-1.1222-.1016-1.7703-.0387-.6482-.0532-1.306-.0435-1.9735.0097-.6771.0629-1.3301.1596-1.9589.1064-.6385.2902-1.1995.5514-1.6832.2612-.4934.6191-.89 1.0738-1.1899s1.0399-.4498 1.7558-.4498c.1451 0 .3482.0242.6094.0725.2709.0484.5417.1258.8126.2322.2709.0967.503.2177.6965.3628.2032.1451.3047.3095.3047.4933z" fill="#1c71d8"/>
  <path d="m80.3825 106.921c0 .125-.0629.246-.1887.362-.1257.116-.2757.218-.4498.305s-.3531.155-.5369.203c-.1741.058-.3144.087-.4208.087-.1935 0-.3773-.053-.5514-.159-.1741-.097-.3386-.223-.4933-.378-.1452-.154-.2854-.319-.4209-.493-.1257-.174-.237-.334-.3337-.479-.5127-.754-.9335-1.543-1.2624-2.365-.3193-.832-.5756-1.683-.7691-2.554-.1838-.871-.3144-1.7508-.3918-2.6408-.0677-.8997-.1015-1.7945-.1015-2.6845 0-.9093.0483-1.8912.1451-2.9456.1064-1.0545.2805-2.1041.5223-3.1488.2516-1.0448.5805-2.0412.9868-2.9892.4063-.9577.9093-1.7897 1.5091-2.4958.0483-.0581.1064-.1258.1741-.2032.0774-.0774.1548-.1499.2322-.2176.087-.0774.1741-.1403.2612-.1887.087-.058.1741-.087.2611-.087.1161 0 .2225.0386.3193.116.0967.0678.1789.1597.2467.2757.0773.1065.1354.2225.1741.3483.0484.1258.0725.237.0725.3337 0 .1065-.0483.2612-.1451.4644-.0967.2031-.2128.4208-.3482.653-.1258.2225-.2515.4401-.3773.6529-.1258.2032-.2225.3676-.2902.4934-.2902.6288-.5369 1.2963-.7401 2.0025-.1934.7061-.353 1.4317-.4788 2.1766-.1258.7352-.2177 1.4704-.2757 2.2056-.0484.7352-.0726 1.4414-.0726 2.1185 0 .7739.0291 1.5768.0871 2.4088.0677.8222.179 1.6445.3338 2.4668.1644.822.3869 1.625.6674 2.409.2806.774.6337 1.489 1.0593 2.147.1645.252.3289.479.4934.682.1741.203.3869.392.6384.566.0871.078.1838.155.2903.232.116.078.1741.184.1741.32z" fill="#1c71d8"/>
  <path d="m86.622 105.31c0 .116-.0435.208-.1306.276-.0773.058-.1692.101-.2757.13-.1064.029-.2176.049-.3337.058-.1161.01-.208.015-.2757.015-.1451 0-.2757-.005-.3918-.015-.1161-.009-.2273-.034-.3337-.072-.0968-.039-.1887-.097-.2757-.174-.0871-.078-.1742-.184-.2612-.32-.1645-.3-.3193-.609-.4644-.928-.1354-.32-.2708-.634-.4063-.943-.0677-.175-.1257-.315-.1741-.421-.0387-.107-.0967-.242-.1741-.407-.2128.552-.4305 1.089-.653 1.611-.2128.522-.4353 1.045-.6675 1.567-.0677.136-.1451.266-.2321.392-.0774.135-.2177.203-.4209.203-.1064 0-.237-.034-.3917-.101-.1451-.058-.2903-.141-.4354-.247-.1354-.097-.2563-.208-.3627-.334-.0968-.126-.1451-.251-.1451-.377 0-.097.0193-.194.058-.29.0387-.107.0822-.208.1306-.305h-.0145c.3676-.793.711-1.572 1.0302-2.336.329-.774.653-1.553.9723-2.3365-.0678-.1547-.1645-.3918-.2903-.711-.116-.3192-.2466-.6723-.3917-1.0593-.1451-.3869-.2951-.7932-.4499-1.2189-.1547-.4256-.295-.8222-.4208-1.1898-.1161-.3773-.2176-.7062-.3047-.9867-.0774-.2903-.1161-.4934-.1161-.6095 0-.1935.0581-.3144.1741-.3628.1258-.058.2661-.087.4209-.087.3095 0 .5755.0629.798.1886.2322.1258.4112.3386.5369.6385.0484.1257.0968.2612.1451.4063.0581.1354.1064.2708.1451.4063l.1306.3627c.1161.3096.2177.5901.3048.8417.0967.2515.2128.5272.3482.8271.2419-.6192.4644-1.2576.6675-1.9154.2128-.6675.3676-1.335.4643-2.0025l.0436-.3918c0-.1354.0193-.2805.058-.4353.0484-.1354.1016-.237.1596-.3047.0677-.0677.1838-.1016.3483-.1016.1548 0 .3047.0242.4498.0726.1451.0483.2757.1209.3918.2176.1161.0871.208.1983.2757.3338.0774.1257.1161.2757.1161.4498 0 .2708-.0339.5901-.1016.9577-.058.3579-.1403.74-.2467 1.1463-.1064.3966-.2273.8078-.3627 1.2334-.1258.4257-.2612.8416-.4063 1.2479-.1355.3967-.2709.7739-.4063 1.1319-.1258.3482-.237.6529-.3338.9141l.8852 1.8715c.1741.368.3531.75.5369 1.147.1934.396.3676.764.5224 1.103.1547.328.2805.609.3772.841.1064.232.1596.363.1596.392z" fill="#1c71d8"/>
  <path d="m91.7733 95.6314c0 .8996-.0532 1.8767-.1596 2.9311-.0967 1.0448-.2709 2.0895-.5224 3.1345-.2418 1.045-.5659 2.046-.9722 3.004-.4063.948-.9093 1.775-1.5091 2.481-.0484.058-.1112.126-.1886.203-.0678.087-.1451.164-.2322.232-.0871.078-.1741.14-.2612.189-.0871.048-.1693.072-.2467.072-.1161 0-.2273-.038-.3337-.116-.0968-.067-.1838-.159-.2612-.275-.0677-.107-.1209-.223-.1596-.349-.0387-.116-.0581-.227-.0581-.333 0-.107.0484-.262.1451-.465.0968-.203.208-.416.3338-.638.1257-.232.2515-.45.3773-.653.1257-.213.2176-.382.2757-.508.2902-.619.5368-1.282.74-1.988.2031-.706.3676-1.427.4934-2.162.1257-.745.2176-1.4851.2757-2.2203.058-.7449.087-1.4559.087-2.133 0-.7643-.0338-1.5623-.1016-2.3943-.058-.8319-.1692-1.659-.3337-2.4813-.1548-.8223-.3724-1.6155-.653-2.3797-.2805-.7739-.6336-1.4898-1.0593-2.1476-.1741-.2515-.3434-.4837-.5078-.6965-.1645-.2128-.3725-.4063-.624-.5804-.087-.0774-.1838-.15-.2902-.2177-.1161-.0774-.1741-.1886-.1741-.3337 0-.1258.0629-.2467.1886-.3628.1258-.1161.2757-.2177.4498-.3047.1645-.0871.3338-.1548.5079-.2032.1741-.058.3144-.087.4208-.087.1935 0 .3773.0532.5514.1596.1838.0967.3483.2225.4934.3772.1548.1548.295.3193.4208.4934s.237.3338.3337.4789c.5031.7545.919 1.5478 1.248 2.3797.3385.8319.5997 1.6832.7835 2.5539.1935.8706.3289 1.7558.4063 2.6554.0774.8997.1161 1.7945.1161 2.6845z" fill="#1c71d8"/>
  <path d="m103.266 93.1355c0 .1355-.029.2612-.087.3773-.058.1645-.116.2999-.174.4063-.049.1064-.112.1887-.189.2467-.078.058-.174.1016-.29.1306-.107.0193-.247.029-.421.029h-3.947c-.0677 0-.1548 0-.2612 0-.0967-.0097-.1983-.0242-.3047-.0435-.0968-.029-.1838-.0677-.2612-.1161-.0677-.058-.1016-.1403-.1016-.2467 0-.2322.0822-.4353.2467-.6094.1644-.1838.3627-.2999.5949-.3483.1935-.029.387-.0435.5804-.0435.1935-.0097.387-.0242.5805-.0435.5514-.0291 1.1032-.0581 1.6542-.0871.551-.0387 1.112-.0581 1.683-.0581.068 0 .14.0049.218.0146.087 0 .164.0145.232.0435.077.0193.135.058.174.1161.049.058.073.1354.073.2321zm.087 3.2794c0 .0968-.024.2032-.073.3193-.048.1161-.111.2321-.188.3482-.068.1064-.146.2032-.233.2902-.087.0871-.174.1452-.261.1742-.077.0193-.145.029-.203.029s-.126 0-.203 0c-.29 0-.58-.0097-.871-.029-.29-.0194-.58-.029-.87-.029-.426 0-.8516.0096-1.2773.029-.4256.0193-.8513.029-1.2769.029-.0774 0-.1548 0-.2322 0-.0774-.0097-.1499-.0242-.2176-.0435-.0581-.0291-.1113-.0678-.1597-.1161-.0386-.0484-.058-.1209-.058-.2177 0-.2515.0774-.4595.2322-.6239.1548-.1742.3482-.2854.5804-.3338.1935-.0484.3869-.0725.5804-.0725.2032-.0097.4063-.0242.6095-.0436.4933-.0483.9912-.0822 1.4942-.1015.503-.0291 1.011-.0436 1.524-.0436.068 0 .164.0049.29.0145.126 0 .247.0145.363.0436.126.029.232.0725.319.1306.087.058.131.1402.131.2466z" fill="#1c71d8"/>
  <path d="m95.8407 95.8636c-4.3437 0-7.8407 3.4969-7.8407 7.8404v9.979c0 .808.1207 1.585.3453 2.317l19.6547-19.826c-.692-.1989-1.422-.3104-2.18-.3104z" fill="url(#paint15_linear)"/>
  <path d="m23.5 114.75c26.625-46.5 77.75-48.625 76-106.5" stroke="#f66151"/>
</svg>
