<svg height="128" width="128" xmlns="http://www.w3.org/2000/svg" xmlns:xlink="http://www.w3.org/1999/xlink">
  <linearGradient id="e" gradientTransform="matrix(1.0015 0 0 .99993 72.09 56.015)" gradientUnits="userSpaceOnUse" x1="43.844" x2="-60" y1="234" y2="234">
    <stop offset="0" stop-color="#d5d3cf"/>
    <stop offset=".038" stop-color="#e3e2df"/>
    <stop offset=".077" stop-color="#c0bfbc"/>
    <stop offset=".923" stop-color="#c0bfbc"/>
    <stop offset=".962" stop-color="#e3e2df"/>
    <stop offset="1" stop-color="#d5d3cf"/>
  </linearGradient>
  <g transform="translate(0 -172)">
    <rect fill="url(#e)" height="48" rx="8" width="104" x="12" y="240"/>
    <path d="m20 10c-4.432 0-8 3.568-8 8v42 42c0 4.432 3.568 8 8 8h44 44c4.432 0 8-3.568 8-8v-42-42c0-4.432-3.568-8-8-8z" fill="#e6561f" transform="translate(0 172)"/>
  </g>
  <rect fill="url(#e)" height="48" rx="8" transform="translate(0 -172)" width="104" x="12" y="240"/>
  <g transform="matrix(.74994953 0 0 1 14.781271 -9.33687)">
    <path d="m18.461538 58.645372h93.872232l10.43025-11.473272h-15.64538v-2.08605h3.12908v-3.129074h-3.12908v-1.043025h-2.08605v1.043025h-2.08605v-1.043025h-4.172095l-2.086049 1.043025v3.129074h2.722472v2.08605h-3.765497-9.387223l-7.301173-8.344199h-29.204694l-1.043025 2.08605h-9.387223l-1.043024 7.301173h-33.376793v3.129075s1.051525 1.865794 2.156767 2.457296c2.452286 1.312425 5.460412.103458 8.167416.742492.75662.178615 1.576677.455715 2.086049 1.043025.720355.830579 1.14909 3.05836 1.14909 3.05836z" fill="#4e4e4e"/>
    <path d="m38.310547 48-.03125.214844h-33.3769532v3.128906s1.051008 1.865529 2.15625 2.457031c2.4522859 1.312425 5.4609652.105107 8.1679682.744141.75662.178615 1.576566.455659 2.085938 1.042969.720355.830579 1.148438 3.05664 1.148438 3.05664h93.873042l9.67774-10.644531z" fill="#34a011"/>
    <path d="m18.461538 58.645372h93.872232l10.43025-11.473272h-15.64538v-2.08605h3.12908v-3.129074h-3.12908v-1.043025h-2.08605v1.043025h-2.08605v-1.043025h-4.172095l-2.086049 1.043025v3.129074h2.722472v2.08605h-3.765497-9.387223l-7.301173-8.344199h-29.204694l-1.043025 2.08605h-9.387223l-1.043024 7.301173h-33.376793v3.129075s1.051525 1.865794 2.156767 2.457296c2.452286 1.312425 5.460412.103458 8.167416.742492.75662.178615 1.576677.455715 2.086049 1.043025.720355.830579 1.14909 3.05836 1.14909 3.05836z" fill="#f5f5f5" fill-opacity=".210345"/>
    <path d="m110.24772 43h14.60235v1.043025h-14.60235z" stroke="#000" stroke-width=".104302"/>
    <path d="m5.945241 45.607562v1.043025h.961543l-.03261 1.552314 1.043025.02445.03464-1.576763h3.730034v1.564537h1.043025v-1.564537h9.297585v1.564537h1.2223v-1.564537h4.082462v1.564537h1.043024v-1.564537h4.07635v1.564537h1.234524v-1.564537h4.597862v-1.043025zm10.95176 1.051173v1.556389h1.043025v-1.556389z"/>
    <path d="m5.596891 52.387223c.39805.531354.922399 1.124643 1.462676 1.413788 2.452287 1.312425 5.459963.104528 8.166967.743562.756621.178615 1.576678.455715 2.08605 1.043025.720354.830579 1.148954 3.057774 1.148954 3.057774h93.872232l5.68978-6.258149z" fill="#131718"/>
    <path d="m80 43-2.08605-3.129074h-23.395327l1.491807 3.129074z" fill-opacity=".231035"/>
    <path d="m60.182529 38.827901 1.043025-3.129074h11.473272l1.551479 3.129074z" fill="#333d40"/>
    <path d="m68.526727 21.09648v8.344198h1.043025v-8.344198z" fill="#3e3e3e"/>
    <path d="m67.483702 29.440678h2.08605 1.043025v4.172099h3.129074v1.043025h-3.129074v1.043025h-3.129075z" fill="#999"/>
    <path d="m82.086049 41.956976h8.344198l5.215124 5.215124h-9.387223l-4.791225-5.1721" fill="#333d40"/>
    <path d="m49.751953 38.828125-1.042969 2.085937h-9.386718l-1.042969 7.300782h-33.3769532v3.128906s1.051008 1.865529 2.15625 2.457031c2.4522859 1.312425 5.4609652.105107 8.1679682.744141.75662.178615 1.576566.455659 2.085938 1.042969.720355.830579 1.148438 3.05664 1.148438 3.05664h93.873042l10.42969-11.472656h-15.64453v-2.085937h-7.708984v2.085937h-3.765625-9.386719l-7.300781-8.34375z" fill-opacity=".210345"/>
  </g>
  <path d="m12 46.889516v13.605999 41.583765c0 1.09702.223203 2.13997.626953 3.08823s.987938 1.80193 1.710938 2.51777c.723.71583 1.585218 1.29423 2.542968 1.69399.95775.39974 2.011141.62073 3.119141.62073h44 44c1.108 0 2.16139-.22099 3.11914-.62073.95775-.39976 1.81997-.97816 2.54297-1.69399.723-.71584 1.30719-1.56951 1.71094-2.51777s.62695-1.99121.62695-3.08823v-41.583765-13.605999z" fill="#0fa8e3"/>
  <g transform="matrix(0 -.57110321 .42829859 0 47.607613 122.06568)">
    <path d="m40.67442 25.999997v22h8l9-8v-6l-9-8z" fill="#7c7c7c"/>
    <path d="m26.67442 25.999997v22h5.64706l6.35294-8v-6l-6.35294-8z" fill="#131718"/>
    <path d="m27.67442 33.484887v7h78a3.50035 3.50035 0 1 0 0-7z" fill="#3d4a4b"/>
    <path d="m27.67442 33.500777-3 .49922v6l3 .50078z" fill="#3d4a4b"/>
    <path d="m24.67442 33.999997-3-2v10l3-2z" fill="#121516"/>
    <g fill="#f3da36">
      <path d="m38.674419 33.484886h1v7h-1z"/>
      <path d="m88.674423 33.484886h1v7h-1z"/>
    </g>
  </g>
</svg>
