<svg height="128" viewBox="0 0 33.865 33.865" width="128" xmlns="http://www.w3.org/2000/svg" xmlns:xlink="http://www.w3.org/1999/xlink">
  <linearGradient id="linearGradient1853" gradientUnits="userSpaceOnUse" x1="11.72146487424" x2="18.01104370053" y1="286.478097652" y2="286.44157875691">
    <stop offset="0" stop-opacity=".057143"/>
    <stop offset=".491" stop-opacity=".942857"/>
    <stop offset="1" stop-opacity="0"/>
  </linearGradient>
  <filter id="filter1064" color-interpolation-filters="sRGB" height="1.356" width="1.364" x="-.18" y="-.18">
    <feGaussianBlur stdDeviation=".136"/>
  </filter>
  <g transform="translate(2.103705 -263.965662)">
    <path d="m26.298773 281.237c0 1.66615-.496182 4.917-1.790984 6.29062-2.059978 2.18539-5.741112 2.10093-9.633025 2.10093-3.200249 0-6.8398544.0592-8.9344921-1.52509-2.0538491-1.55342-2.5940849-4.72922-2.5940849-6.86646 0-4.31689 5.1381122-7.81642 11.476293-7.81642 6.338181 0 11.476293 3.49953 11.476293 7.81642z" fill="#241f31" opacity=".6" stroke-width=".640682"/>
    <ellipse cx="5.411374" cy="278.03485" fill="#241f31" rx="6.456797" ry="6.090967" stroke-width=".640682"/>
    <ellipse cx="6.650453" cy="278.828" fill="#c0bfbc" rx="6.456797" ry="6.090967" stroke-width=".640682"/>
    <g transform="matrix(-.64068237 0 0 .64068237 35.959172 112.54126)">
      <ellipse cx="18.282" cy="258.23099" fill="#241f31" rx="10.078" ry="9.507"/>
      <ellipse cx="20.216" cy="259.46899" fill="#c0bfbc" rx="10.078" ry="9.507"/>
    </g>
    <path d="m26.298773 280.17872c0 1.66615-.496182 4.917-1.790984 6.29062-2.059978 2.18539-5.741112 2.10093-9.633025 2.10093-3.200249 0-6.8398544.0592-8.9344921-1.52509-2.0538491-1.55342-2.5940849-4.72922-2.5940849-6.86646 0-4.31689 5.1381122-7.81642 11.476293-7.81642 6.338181 0 11.476293 3.49953 11.476293 7.81642z" fill="#9a9996" stroke-width=".640682"/>
    <g transform="matrix(.64068237 0 0 .64068237 -6.227852 112.45338)">
      <ellipse cx="23.707001" cy="263.69699" fill="#000a11" opacity=".637" rx="4.448" ry="4.822"/>
      <ellipse cx="23.299" cy="263.616" fill="#99c1f1" rx="4.448" ry="4.822"/>
      <ellipse cx="23.135" cy="263.03101" opacity=".637" rx="2.53" ry="2.469"/>
      <ellipse cx="24.563999" cy="261.31799" fill="#fff" filter="url(#filter1064)" opacity=".5" rx=".898" ry=".918"/>
      <g transform="translate(19.17751 .244819)">
        <ellipse cx="-22.913" cy="-263.69699" fill="#000a11" opacity=".637" rx="4.448" ry="4.822" transform="scale(-1)"/>
        <ellipse cx="23.299" cy="263.616" fill="#99c1f1" rx="4.448" ry="4.822"/>
        <ellipse cx="23.135" cy="263.03101" opacity=".637" rx="2.53" ry="2.469"/>
        <ellipse cx="24.563999" cy="261.31799" fill="#fff" filter="url(#filter1064)" opacity=".5" rx=".898" ry=".918"/>
      </g>
    </g>
    <g stroke-width=".169514">
      <path d="m15.559768 272.41304c-.248502-.0109-.484755-.0507-.737318-.0507-.359615 0-.69869.0498-1.04986.0719-1.059086 1.28488-1.722619 4.67683-1.722619 7.63043 0 3.71773.386843 5.72069 2.561912 5.73832 2.331717.0189 2.849619-2.04674 2.849619-5.76447 0-2.96873-.786065-6.36288-1.901734-7.62548z" fill="#3d3846" opacity=".637"/>
      <path d="m15.932879 285.48044c.03322-.0193.07605-.0263.107931-.0474.188219-.12452.353096-.28004.497286-.46549.07053-.0907.121528-.21087.182425-.31585a.57512172 1.019534 0 0 0 .0043-.11455.57512172 1.019534 0 0 0 -.57509-1.01941.57512172 1.019534 0 0 0 -.575089 1.01941.57512172 1.019534 0 0 0 .358233.94325z" fill="#000a11"/>
      <path d="m13.003798 285.12287c.0926.10526.179695.21831.290358.29863.09124.0663.206777.10122.311217.15032a.57512172 1.019534 0 0 0 .457556-.99756.57512172 1.019534 0 0 0 -.575089-1.01973.57512172 1.019534 0 0 0 -.57509 1.01973.57512172 1.019534 0 0 0 .09104.54861z" fill="#000a11"/>
      <path d="m12.174338 286.33409s.293844.36397.477733.45936c.18389.0954.496111.12863.569608.11025.0735-.0184.169463-.004.349114-.11025.179651-.10549.478655-.50564.643106-.60636.16445-.10069.165369-.0735.257242-.0918.09187-.0184.584272-.0449.75335 0 .169077.0449.147701.0592.257242.14699.109542.0879.243032.29467.367489.40423.124458.10957.202118.25725.367488.25725.165371 0 .346128.0521.551233-.0184.205106-.0705.606356-.441.606356-.441" fill="none" stroke="url(#linearGradient1853)" stroke-linecap="round"/>
    </g>
  </g>
</svg>
