<svg fill="none" height="128" viewBox="0 0 128 128" width="128" xmlns="http://www.w3.org/2000/svg">
  <path d="m50.73 45.4365v67.9045c0 3.126 2.7964 5.659 6.246 5.659h49.968c3.45 0 6.246-2.534 6.246-5.659v-67.9045c0-3.1252-2.796-5.6587-6.246-5.6587h-49.968c-3.4496 0-6.246 2.5335-6.246 5.6587z" fill="#e5a50a"/>
  <path d="m50.73 45.3651v67.0479c0 3.085 2.7517 5.587 6.146 5.587h49.168c3.395 0 6.146-2.502 6.146-5.587v-67.0479c0-3.0858-2.751-5.5873-6.146-5.5873h-49.168c-3.3943 0-6.146 2.5015-6.146 5.5873z" fill="#f8e45c"/>
  <path clip-rule="evenodd" d="m101.015 52.8152h-13.6372v-2.5348h18.4192l-16.081 23.7116h13.69v2.5349h-18.4719z" fill="#33d17a" fill-rule="evenodd"/>
  <path clip-rule="evenodd" d="m89.7158 52.8152h13.6372v-2.5348h-18.4191l16.0801 23.7116h-13.6892v2.5349h18.4712z" fill="#33d17a" fill-rule="evenodd"/>
  <path clip-rule="evenodd" d="m73.2049 83.7857h-13.6369v-2.5348h18.4188l-16.0806 23.7121h13.6896v2.534h-18.4715z" fill="#f66151" fill-rule="evenodd"/>
  <path clip-rule="evenodd" d="m61.906 83.7857h13.6368v-2.5348h-18.4187l16.0806 23.7121h-13.6897v2.534h18.4716z" fill="#f66151" fill-rule="evenodd"/>
  <path clip-rule="evenodd" d="m101.015 83.7857h-13.6369v-2.5348h18.4189l-16.0808 23.7121h13.6898v2.534h-18.4717z" fill="#33d17a" fill-rule="evenodd"/>
  <path clip-rule="evenodd" d="m89.716 83.7857h13.637v-2.5348h-18.4189l16.0809 23.7121h-13.6899v2.534h18.4719z" fill="#33d17a" fill-rule="evenodd"/>
  <path d="m22 15.5873v67.0476c0 3.0858 2.7517 5.5873 6.146 5.5873h49.1683c3.3944 0 6.146-2.5015 6.146-5.5873v-67.0476c0-3.0858-2.7516-5.58733-6.146-5.58733l-49.1683.00001c-3.3943 0-6.146 2.50152-6.146 5.58732z" fill="#241f31" opacity=".2"/>
  <path d="m20 13.6587v67.9048c0 3.1252 2.7964 5.6587 6.246 5.6587h49.9683c3.4496 0 6.246-2.5335 6.246-5.6587v-67.9048c0-3.1252-2.7964-5.65873-6.246-5.65873l-49.9683.00001c-3.4496 0-6.246 2.53352-6.246 5.65872z" fill="#e5a50a"/>
  <path d="m20 13.5873v67.0476c0 3.0858 2.7517 5.5873 6.146 5.5873h49.1683c3.3944 0 6.146-2.5015 6.146-5.5873v-67.0476c0-3.0858-2.7516-5.58733-6.146-5.58733l-49.1683.00001c-3.3943 0-6.146 2.50152-6.146 5.58732z" fill="#f8e45c"/>
  <g clip-rule="evenodd" fill-rule="evenodd">
    <path d="m42.4744 21.0374h-13.6368v-2.5348h18.4187l-16.0806 23.7116h13.6897v2.5349h-18.4716z" fill="#f66151"/>
    <path d="m31.1755 21.0374h13.6368v-2.5348h-18.4187l16.0806 23.7116h-13.6897v2.5349h18.4716z" fill="#f66151"/>
    <path d="m70.2845 21.0374h-13.6369v-2.5348h18.4188l-16.0806 23.7116h13.6896v2.5349h-18.4715z" fill="#f66151"/>
    <path d="m58.9855 21.0374h13.6369v-2.5348h-18.4188l16.0807 23.7116h-13.6897v2.5349h18.4716z" fill="#f66151"/>
    <path d="m42.4747 52.0079h-13.6369v-2.5348h18.4188l-16.0807 23.7116h13.6897v2.5349h-18.4716z" fill="#33d17a"/>
    <path d="m31.1757 52.0079h13.6369v-2.5348h-18.4188l16.0806 23.7116h-13.6896v2.5349h18.4715z" fill="#33d17a"/>
    <path d="m70.2847 52.0079h-13.6368v-2.5348h18.4187l-16.0806 23.7116h13.6897v2.5349h-18.4716z" fill="#33d17a"/>
    <path d="m58.9858 52.0079h13.6368v-2.5348h-18.4187l16.0806 23.7116h-13.6897v2.5349h18.4716z" fill="#33d17a"/>
  </g>
</svg>
