<svg fill="none" height="128" viewBox="0 0 128 128" width="128" xmlns="http://www.w3.org/2000/svg">
  <path d="m38.4483 14c0-2.7614 2.2386-5 5-5h41.1034c2.7614 0 5 2.2386 5 5v66.5447h-51.1034z" fill="#99c1f1"/>
  <path d="m62.4745 117.201c.7988.942 2.2522.942 3.051 0l48.3185-56.9927c-6.347 2.0289-18.0322 7.984-21.8649 4.2889-8.0432-7.7543-19.198-5.7086-27.0848-2.7713-18.7805 6.9943-15.2345 7.9861-31.5563 0-4.8548-2.3754-11.2428-5.6746-19.1822-1.5176z" fill="#1a5fb4"/>
  <path d="m62.4954 115.366c.7968.909 2.2124.909 3.0092 0l48.3394-55.1988c-6.347 1.9643-18.0322 7.7294-21.8649 4.1522-8.0432-7.507-19.198-5.5265-27.0848-2.6829-18.7805 6.7712-15.2345 7.7314-31.5563 0-4.8548-2.2997-11.2428-5.4937-19.1822-1.4693z" fill="#3584e4"/>
  <g fill="#1a5fb4">
    <ellipse rx="7.37618" ry="3.53901" transform="matrix(.875779 .482711 -.426116 .904668 42.2496 59.5057)"/>
    <ellipse rx="7.29134" ry="3.57572" transform="matrix(-.960467 .278395 -.240434 -.970666 99.7409 58.6962)"/>
    <ellipse rx="4.21839" ry="2.06873" transform="matrix(-.960467 .278395 -.240434 -.970666 56.6938 59.5058)"/>
  </g>
  <ellipse cx="42.2496" cy="58.9947" fill="#3584e4" rx="7.25013" ry="3.32172" transform="matrix(.89100652 .4539905 -.4539905 .89100652 31.387964 -12.75088)"/>
  <ellipse cx="99.7409" cy="58.2464" fill="#3584e4" rx="7.25013" ry="3.32172" transform="matrix(-.96592583 .25881905 -.25881905 -.96592583 211.158489 88.693258)"/>
  <ellipse cx="56.6938" cy="58.9947" fill="#3584e4" rx="4.19455" ry="1.92177" transform="matrix(-.96592583 .25881905 -.25881905 -.96592583 126.724758 101.305769)"/>
</svg>
