<svg fill="none" height="128" viewBox="0 0 128 128" width="128" xmlns="http://www.w3.org/2000/svg">
  <path d="m47.1289 14.7761h-3.1044c-1.7145 0-3.1044 1.3899-3.1044 3.1044v3.1044c0 1.7145 1.3899 3.1043 3.1044 3.1043h3.1044c1.7145 0 3.1043-1.3898 3.1043-3.1043v-3.1044c0-1.7145-1.3898-3.1044-3.1043-3.1044z" fill="#77767b"/>
  <path d="m47.1289 52.0286h-3.1044c-1.7145 0-3.1044 1.3898-3.1044 3.1043v3.1044c0 1.7145 1.3899 3.1044 3.1044 3.1044h3.1044c1.7145 0 3.1043-1.3899 3.1043-3.1044v-3.1044c0-1.7145-1.3898-3.1043-3.1043-3.1043z" fill="#77767b"/>
  <path d="m30.2109 20.4995-2.1952 2.1951c-1.2123 1.2123-1.2123 3.1779 0 4.3902l2.1952 2.1952c1.2123 1.2123 3.1779 1.2123 4.3902 0l2.1951-2.1952c1.2124-1.2123 1.2124-3.1779 0-4.3902l-2.1951-2.1951c-1.2123-1.2124-3.1779-1.2124-4.3902 0z" fill="#77767b"/>
  <path d="m56.5523 46.841-2.1951 2.1951c-1.2123 1.2123-1.2123 3.1779 0 4.3902l2.1951 2.1951c1.2124 1.2124 3.1779 1.2124 4.3903 0l2.1951-2.1951c1.2123-1.2123 1.2123-3.1779 0-4.3902l-2.1951-2.1951c-1.2124-1.2124-3.1779-1.2124-4.3903 0z" fill="#77767b"/>
  <path d="m22.2939 36.5067v3.1044c0 1.7145 1.3898 3.1044 3.1043 3.1044h3.1044c1.7145 0 3.1044-1.3899 3.1044-3.1044v-3.1044c0-1.7145-1.3899-3.1044-3.1044-3.1044h-3.1044c-1.7145 0-3.1043 1.3899-3.1043 3.1044z" fill="#77767b"/>
  <path d="m59.5463 36.5067v3.1044c0 1.7145 1.3899 3.1044 3.1044 3.1044h3.1044c1.7145 0 3.1043-1.3899 3.1043-3.1044v-3.1044c0-1.7145-1.3898-3.1044-3.1043-3.1044h-3.1044c-1.7145 0-3.1044 1.3899-3.1044 3.1044z" fill="#77767b"/>
  <path d="m28.0158 53.4263 2.1951 2.1951c1.2123 1.2123 3.1779 1.2123 4.3902 0l2.1952-2.1951c1.2123-1.2124 1.2123-3.1779 0-4.3903l-2.1952-2.1951c-1.2123-1.2123-3.1779-1.2123-4.3902 0l-2.1951 2.1951c-1.2124 1.2124-1.2124 3.1779 0 4.3903z" fill="#77767b"/>
  <path d="m54.3572 27.0848 2.1951 2.1951c1.2124 1.2123 3.178 1.2123 4.3903 0l2.1951-2.1951c1.2123-1.2123 1.2123-3.1779 0-4.3903l-2.1951-2.1951c-1.2123-1.2123-3.1779-1.2123-4.3903 0l-2.1951 2.1951c-1.2123 1.2124-1.2123 3.178 0 4.3903z" fill="#77767b"/>
  <g fill="#f6f5f4">
    <path d="m47.1289 14h-3.1044c-1.7145 0-3.1044 1.3899-3.1044 3.1044v3.1043c0 1.7145 1.3899 3.1044 3.1044 3.1044h3.1044c1.7145 0 3.1043-1.3899 3.1043-3.1044v-3.1043c0-1.7145-1.3898-3.1044-3.1043-3.1044z"/>
    <path d="m47.1289 51.2525h-3.1044c-1.7145 0-3.1044 1.3899-3.1044 3.1044v3.1044c0 1.7144 1.3899 3.1043 3.1044 3.1043h3.1044c1.7145 0 3.1043-1.3899 3.1043-3.1043v-3.1044c0-1.7145-1.3898-3.1044-3.1043-3.1044z"/>
    <path d="m30.2109 19.7233-2.1952 2.1952c-1.2123 1.2123-1.2123 3.1779 0 4.3902l2.1952 2.1951c1.2123 1.2124 3.1779 1.2124 4.3902 0l2.1951-2.1951c1.2124-1.2123 1.2124-3.1779 0-4.3902l-2.1951-2.1952c-1.2123-1.2123-3.1779-1.2123-4.3902 0z"/>
    <path d="m56.5523 46.0648-2.1951 2.1952c-1.2123 1.2123-1.2123 3.1779 0 4.3902l2.1951 2.1951c1.2124 1.2124 3.1779 1.2124 4.3903 0l2.1951-2.1951c1.2123-1.2123 1.2123-3.1779 0-4.3902l-2.1951-2.1952c-1.2124-1.2123-3.1779-1.2123-4.3903 0z"/>
    <path d="m22.2939 35.7306v3.1044c0 1.7145 1.3898 3.1043 3.1043 3.1043h3.1044c1.7145 0 3.1044-1.3898 3.1044-3.1043v-3.1044c0-1.7145-1.3899-3.1044-3.1044-3.1044h-3.1044c-1.7145 0-3.1043 1.3899-3.1043 3.1044z"/>
    <path d="m59.5463 35.7306v3.1044c0 1.7145 1.3899 3.1043 3.1044 3.1043h3.1044c1.7145 0 3.1043-1.3898 3.1043-3.1043v-3.1044c0-1.7145-1.3898-3.1044-3.1043-3.1044h-3.1044c-1.7145 0-3.1044 1.3899-3.1044 3.1044z"/>
    <path d="m28.0158 52.6502 2.1951 2.1951c1.2123 1.2124 3.1779 1.2124 4.3902 0l2.1952-2.1951c1.2123-1.2123 1.2123-3.1779 0-4.3902l-2.1952-2.1952c-1.2123-1.2123-3.1779-1.2123-4.3902 0l-2.1951 2.1952c-1.2124 1.2123-1.2124 3.1779 0 4.3902z"/>
    <path d="m54.3572 26.3087 2.1951 2.1951c1.2124 1.2123 3.178 1.2123 4.3903 0l2.1951-2.1951c1.2123-1.2124 1.2123-3.1779 0-4.3903l-2.1951-2.1951c-1.2123-1.2123-3.1779-1.2123-4.3903 0l-2.1951 2.1951c-1.2123 1.2124-1.2123 3.1779 0 4.3903z"/>
    <path clip-rule="evenodd" d="m45.5767 26.4176c-6.0008 0-10.8654 4.8645-10.8654 10.8653 0 6.0007 4.8646 10.8653 10.8654 10.8653 6.0007 0 10.8653-4.8646 10.8653-10.8653 0-6.0008-4.8646-10.8653-10.8653-10.8653zm-18.6263 10.8653c0-10.287 8.3393-18.6263 18.6263-18.6263 10.2869 0 18.6262 8.3393 18.6262 18.6263 0 10.2869-8.3393 18.6262-18.6262 18.6262-10.287 0-18.6263-8.3393-18.6263-18.6262z" fill-rule="evenodd"/>
  </g>
  <path clip-rule="evenodd" d="m60.3225 37.2828c0 8.1438-6.602 14.7457-14.7458 14.7457-8.1439 0-14.7458-6.6019-14.7458-14.7457 0-8.1439 6.6019-14.7458 14.7458-14.7458 8.1438 0 14.7458 6.6019 14.7458 14.7458zm-14.7458 13.9696c7.7152 0 13.9697-6.2544 13.9697-13.9696 0-7.7153-6.2545-13.9697-13.9697-13.9697-7.7153 0-13.9697 6.2544-13.9697 13.9697 0 7.7152 6.2544 13.9696 13.9697 13.9696z" fill="#f9f06b" fill-rule="evenodd"/>
  <path d="m59.5464 37.2828c0 7.7152-6.2545 13.9697-13.9697 13.9697-7.7153 0-13.9697-6.2545-13.9697-13.9697s6.2544-13.9697 13.9697-13.9697c7.7152 0 13.9697 6.2545 13.9697 13.9697z" fill="#f5c211"/>
  <path d="m59.5464 37.2828c-.0401-3.6225-1.4718-7.2582-4.0917-9.8781-2.6198-2.6198-6.173-4.0916-9.878-4.0916s-7.2583 1.4718-9.8781 4.0916c-2.6198 2.6199-4.0916 6.1731-4.0916 9.8781.5404-4.363 2.3417-6.7247 4.7233-9.1063 2.4617-2.3617 5.8382-3.5825 9.2064-3.5825 3.3681 0 6.3444 1.1008 9.1663 3.4424 1.5938 1.3225 3.7026 3.3623 4.8434 9.2464z" fill="#241f31" opacity=".25"/>
  <path d="m78.8983 56.5546h-3.8297c-2.1151 0-3.8297 1.7146-3.8297 3.8297v3.8297c0 2.115 1.7146 3.8297 3.8297 3.8297h3.8297c2.1151 0 3.8297-1.7147 3.8297-3.8297v-3.8297c0-2.1151-1.7146-3.8297-3.8297-3.8297z" fill="#77767b"/>
  <path d="m78.8983 102.511h-3.8297c-2.1151 0-3.8297 1.715-3.8297 3.83v3.829c0 2.115 1.7146 3.83 3.8297 3.83h3.8297c2.1151 0 3.8297-1.715 3.8297-3.83v-3.829c0-2.115-1.7146-3.83-3.8297-3.83z" fill="#77767b"/>
  <path d="m58.0275 63.6152-2.708 2.708c-1.4956 1.4956-1.4956 3.9204 0 5.416l2.708 2.708c1.4956 1.4956 3.9204 1.4956 5.416 0l2.708-2.708c1.4956-1.4956 1.4956-3.9204 0-5.416l-2.708-2.708c-1.4956-1.4956-3.9204-1.4956-5.416 0z" fill="#77767b"/>
  <path d="m90.5235 96.1112-2.708 2.708c-1.4956 1.4958-1.4956 3.9208 0 5.4158l2.708 2.708c1.4956 1.496 3.9204 1.496 5.416 0l2.708-2.708c1.4955-1.495 1.4955-3.92 0-5.4158l-2.708-2.708c-1.4956-1.4956-3.9204-1.4956-5.416 0z" fill="#77767b"/>
  <path d="m48.2607 83.3625v3.8297c0 2.115 1.7146 3.8297 3.8297 3.8297h3.8297c2.1151 0 3.8297-1.7147 3.8297-3.8297v-3.8297c0-2.1151-1.7146-3.8297-3.8297-3.8297h-3.8297c-2.1151 0-3.8297 1.7146-3.8297 3.8297z" fill="#77767b"/>
  <path d="m94.217 83.3625v3.8297c0 2.115 1.7147 3.8297 3.8297 3.8297h3.8293c2.116 0 3.83-1.7147 3.83-3.8297v-3.8297c0-2.1151-1.714-3.8297-3.83-3.8297h-3.8293c-2.115 0-3.8297 1.7146-3.8297 3.8297z" fill="#77767b"/>
  <path d="m55.3195 104.235 2.708 2.708c1.4956 1.496 3.9204 1.496 5.416 0l2.708-2.708c1.4956-1.495 1.4956-3.92 0-5.4158l-2.708-2.708c-1.4956-1.4956-3.9204-1.4956-5.416 0l-2.708 2.708c-1.4956 1.4958-1.4956 3.9208 0 5.4158z" fill="#77767b"/>
  <path d="m87.8155 71.7391 2.708 2.708c1.4956 1.4956 3.9204 1.4956 5.416 0l2.708-2.708c1.4955-1.4955 1.4955-3.9204 0-5.416l-2.708-2.708c-1.4956-1.4956-3.9204-1.4956-5.416 0l-2.708 2.708c-1.4956 1.4956-1.4956 3.9205 0 5.416z" fill="#77767b"/>
  <path d="m78.8983 55.5972h-3.8297c-2.1151 0-3.8297 1.7146-3.8297 3.8297v3.8297c0 2.115 1.7146 3.8297 3.8297 3.8297h3.8297c2.1151 0 3.8297-1.7147 3.8297-3.8297v-3.8297c0-2.1151-1.7146-3.8297-3.8297-3.8297z" fill="#f6f5f4"/>
  <path d="m78.8983 101.554h-3.8297c-2.1151 0-3.8297 1.714-3.8297 3.829v3.83c0 2.115 1.7146 3.83 3.8297 3.83h3.8297c2.1151 0 3.8297-1.715 3.8297-3.83v-3.83c0-2.115-1.7146-3.829-3.8297-3.829z" fill="#f6f5f4"/>
  <path d="m58.0275 62.6578-2.708 2.708c-1.4956 1.4956-1.4956 3.9204 0 5.416l2.708 2.708c1.4956 1.4956 3.9204 1.4956 5.416 0l2.708-2.708c1.4956-1.4956 1.4956-3.9204 0-5.416l-2.708-2.708c-1.4956-1.4956-3.9204-1.4956-5.416 0z" fill="#f6f5f4"/>
  <path d="m90.5235 95.1538-2.708 2.708c-1.4956 1.4955-1.4956 3.9202 0 5.4162l2.708 2.708c1.4956 1.495 3.9204 1.495 5.416 0l2.708-2.708c1.4955-1.496 1.4955-3.9207 0-5.4162l-2.708-2.708c-1.4956-1.4956-3.9204-1.4956-5.416 0z" fill="#f6f5f4"/>
  <path d="m48.2607 82.405v3.8297c0 2.1151 1.7146 3.8297 3.8297 3.8297h3.8297c2.1151 0 3.8297-1.7146 3.8297-3.8297v-3.8297c0-2.1151-1.7146-3.8297-3.8297-3.8297h-3.8297c-2.1151 0-3.8297 1.7146-3.8297 3.8297z" fill="#f6f5f4"/>
  <path d="m94.217 82.405v3.8297c0 2.1151 1.7147 3.8297 3.8297 3.8297h3.8293c2.116 0 3.83-1.7146 3.83-3.8297v-3.8297c0-2.1151-1.714-3.8297-3.83-3.8297h-3.8293c-2.115 0-3.8297 1.7146-3.8297 3.8297z" fill="#f6f5f4"/>
  <path d="m55.3195 103.278 2.708 2.708c1.4956 1.495 3.9204 1.495 5.416 0l2.708-2.708c1.4956-1.496 1.4956-3.9206 0-5.4162l-2.708-2.708c-1.4956-1.4956-3.9204-1.4956-5.416 0l-2.708 2.708c-1.4956 1.4956-1.4956 3.9202 0 5.4162z" fill="#f6f5f4"/>
  <path d="m87.8155 70.7817 2.708 2.708c1.4956 1.4956 3.9204 1.4956 5.416 0l2.708-2.708c1.4955-1.4956 1.4955-3.9204 0-5.416l-2.708-2.708c-1.4956-1.4956-3.9204-1.4956-5.416 0l-2.708 2.708c-1.4956 1.4956-1.4956 3.9204 0 5.416z" fill="#f6f5f4"/>
  <path clip-rule="evenodd" d="m76.9834 70.916c-7.4028 0-13.4039 6.0011-13.4039 13.4039s6.0011 13.4039 13.4039 13.4039 13.404-6.0011 13.404-13.4039-6.0012-13.4039-13.404-13.4039zm-22.9782 13.4039c0-12.6905 10.2877-22.9782 22.9782-22.9782s22.9782 10.2877 22.9782 22.9782-10.2877 22.9781-22.9782 22.9781-22.9782-10.2876-22.9782-22.9781z" fill="#f6f5f4" fill-rule="evenodd"/>
  <path clip-rule="evenodd" d="m95.1745 84.3198c0 10.0467-8.1445 18.1912-18.1911 18.1912s-18.191-8.1445-18.191-18.1912c0-10.0466 8.1444-18.191 18.191-18.191s18.1911 8.1444 18.1911 18.191zm-18.1911 17.2332c9.5179 0 17.2336-7.7153 17.2336-17.2332 0-9.5178-7.7157-17.2336-17.2336-17.2336s-17.2336 7.7158-17.2336 17.2336c0 9.5179 7.7157 17.2332 17.2336 17.2332z" fill="#99c1f1" fill-rule="evenodd"/>
  <path d="m94.217 84.3198c0 9.5179-7.7157 17.2332-17.2336 17.2332s-17.2336-7.7153-17.2336-17.2332 7.7157-17.2336 17.2336-17.2336 17.2336 7.7157 17.2336 17.2336z" fill="#3584e4"/>
  <path d="m94.217 84.3198c-.0493-4.4689-1.8156-8.9541-5.0476-12.186-3.2319-3.2319-7.6153-5.0476-12.186-5.0476-4.5706 0-8.9541 1.8157-12.186 5.0476s-5.0476 7.6154-5.0476 12.186c.6666-5.3824 2.8888-8.2959 5.8268-11.2339 3.0369-2.9135 7.2024-4.4196 11.3574-4.4196 4.1551 0 7.8268 1.358 11.3081 4.2467 1.9661 1.6315 4.5676 4.1479 5.9749 11.4068z" fill="#241f31" opacity=".25"/>
</svg>
