<svg height="128" width="128" xmlns="http://www.w3.org/2000/svg" xmlns:xlink="http://www.w3.org/1999/xlink">
  <linearGradient id="b-7" gradientUnits="userSpaceOnUse" x1="1422" x2="1324" y1="-1554.64" y2="-1554.64">
    <stop offset="0" stop-color="#e196fb"/>
    <stop offset=".13" stop-color="#f4c7fa"/>
    <stop offset=".314" stop-color="#e091f3"/>
    <stop offset=".441" stop-color="#d764e9"/>
    <stop offset=".684" stop-color="#e7adf0"/>
    <stop offset=".756" stop-color="#e6a9f8"/>
    <stop offset=".88" stop-color="#e595f2"/>
    <stop offset="1" stop-color="#f2cbf8"/>
  </linearGradient>
  <linearGradient id="linearGradient1081" gradientUnits="userSpaceOnUse" x1="-108" x2="-20" y1="-100" y2="-100">
    <stop offset="0" stop-color="#852094"/>
    <stop offset=".045" stop-color="#ef9afc"/>
    <stop offset=".091" stop-color="#ae35c0"/>
    <stop offset=".909" stop-color="#ae35c0"/>
    <stop offset=".955" stop-color="#ef9afc"/>
    <stop offset="1" stop-color="#852094"/>
  </linearGradient>
  <linearGradient id="linearGradient1677" gradientUnits="userSpaceOnUse" x1="1471.015" x2="1273.484" y1="-1450.632" y2="-1705.672">
    <stop offset="0" stop-color="#8e03a3"/>
    <stop offset="1" stop-color="#c254d2"/>
  </linearGradient>
  <radialGradient id="d-3-9" cx="518.854" cy="730.484" gradientTransform="matrix(2.0112 0 0 .56548 329.8266 -1985.9909)" gradientUnits="userSpaceOnUse" r="22.89">
    <stop offset="0" stop-color="#dc85e9"/>
    <stop offset="1" stop-color="#f2cbf8"/>
  </radialGradient>
  <rect fill="#deddda" height="59" rx="8" width="88" x="20" y="61"/>
  <rect fill="url(#linearGradient1081)" fill-rule="evenodd" height="40" rx="8" transform="scale(-1)" width="88" x="-108" y="-120"/>
  <path d="m108 108.65397a7.468 7.468 0 0 1 -7.492 7.346h-.5v1h.5a8.488 8.488 0 0 0 7.463-4.428c.013-.19.029-.379.029-.572zm-42 7.346 34 1v-1z" fill="#f2c5ff" fill-opacity=".272"/>
  <path d="m73.160156 8h-45.160156c-4.432 0-8 3.568-8 8v88c0 4.432 3.568 8 8 8h71.999996c4.432004 0 8.000004-3.568 8.000004-8v-60.29492z" fill="#f6f5f4"/>
  <path d="m108.21484 32.630859v-16.630859c0-1.108-.2232-2.161391-.62695-3.119141s-.98794-1.819968-1.71094-2.542968c-.723-.7230004-1.58522-1.3071879-2.54297-1.7109379s-2.01114-.6269531-3.11914-.6269531h-16.873043c-2.778059 0-2.900702 2.889554-1.431641 4.365234l21.609374 21.708985c1.76321 1.77016 4.69531 1.34877 4.69531-1.44336z" fill="#ad34bf"/>
  <path d="m28.800781 8c-4.860857 0-8.800781 3.95576-8.800781 8.82812v86.34376c0 5.38276 2.516163 8.82812 8.800781 8.82812h70.398438c6.284621 0 8.800781-3.23045 8.800781-8.82812v-59.55665l-34.630859-35.61523h-.41211zm0 1.95898h43.742188l33.498051 34.45118v58.76172c0 3.82469-3.03597 6.86914-6.841801 6.86914h-70.398438c-3.805828 0-6.841797-3.04445-6.841797-6.86914v-86.34376c0-3.82469 3.035969-6.86914 6.841797-6.86914z" fill="#ae35c0"/>
  <g transform="matrix(.40618652344 0 0 .40618652344 -493.69409609375 705.541712375)">
    <path d="m1309-1602.638v6h28v-6zm32 0v6h30v-6zm34 0v6h30v-6zm34 0v6h28v-6zm-100 10v8h28v-8zm32 0v8h30v-8zm34 0v8h30v-8zm34 0v8h28v-8zm-100 12v8h28v-8zm32 0v8h30v-8zm34 0v8h30v-8zm34 0v8h28v-8zm-100 12v8h28v-8zm32 0v8h30v-8zm34 0v8h30v-8zm34 0v8h28v-8zm-100 12v8h28v-8zm32 0v8h30v-8zm34 0v8h30v-8zm34 0v8h28v-8zm-100 12v8h28v-8zm32 0v8h30v-8zm34 0v8h30v-8zm34 0v8h28v-8zm-100 12v8h28v-8zm32 0v8h30v-8zm34 0v8h30v-8zm34 0v8h28v-8zm-100 12v8h28v-8zm32 0v8h30v-8zm34 0v8h30v-8zm34 0v8h28v-8zm-100 12v8h28v-8zm32 0v8h30v-8zm34 0v8h30v-8zm34 0v8h28v-8zm-100 12v6h28v-6zm32 0v6h30v-6zm34 0v6h30v-6zm34 0v6h28v-6z" fill="url(#linearGradient1677)" opacity=".6"/>
    <path d="m1338.867-1582.857c-4.423 1.106-8 2.64-10.563 4.282-2.562 1.64-4.21 3.59-4.22 5.937-.077 19.65-.06 38.386-.06 54 0 2.294 1.65 4.262 4.218 5.906 2.568 1.645 6.19 3.057 10.594 4.25 8.81 2.386 20.86 3.844 34.187 3.844 13.328 0 25.378-1.458 34.188-3.844 4.406-1.193 8.026-2.605 10.595-4.25 2.568-1.644 4.196-3.623 4.196-5.917v-54c0-2.345-1.695-4.285-4.257-5.925-2.563-1.64-6.163-3.09-10.563-4.282-8.8-2.383-20.826-3.78-34.156-3.78-13.42 0-24.7 1.417-34.157 3.78zm34.156-1.78c13.188-.025 25.115 1.46 33.687 3.78 4.287 1.16 7.736 2.593 10.032 4.063 2.295 1.47 3.46 2.918 3.343 4.156-.21 2.205-2.578 3.735-4.25 4.688-2.71 1.545-5.95 2.71-8.874 3.468-9.98 2.59-19.947 3.535-29.53 3.78-13.262.214-26.41-.73-38.532-3.84-2.813-.735-5.25-1.64-7.656-2.845-2.16-1.083-5.063-2.882-5.28-5.25-.118-1.273 1.047-2.686 3.343-4.156s5.697-3.094 10.03-4.062c11.927-2.665 23.656-3.764 33.688-3.783zm-47 16.124c.633.635 1.392 1.273 2.28 1.813 3.29 1.996 7.31 3.487 10.564 4.28 13.105 3.04 26.117 4.087 38.625 3.72 10.112-.32 20.32-1.07 29.687-3.72 4.634-1.31 9.564-2.895 12.843-6.093v12.875c0 .582 0 1.22-.125 1.72-.273 1.104-1.37 2.436-3.344 3.593-3.264 1.91-6.84 3.083-10 3.937-11.23 2.74-22.915 3.735-33.53 3.75-11.457-.088-23.537-1.125-33.688-3.78-4.357-1.376-8.725-2.563-11.875-5.47-.724-.677-1.133-1.406-1.31-2.03-.163-.567-.125-1.123-.125-1.72v-12.875zm0 18.03c.388.385.835.766 1.312 1.126 3.833 2.65 8.6 4.188 12.75 5.22 11.482 2.606 21.65 3.477 32.938 3.5 11.353-.234 22.474-.815 32.937-3.5 3.705-.967 7.68-2.386 10.688-3.907 1.144-.58 2.937-2.034 3.375-2.438v12.844c0 .582 0 1.22-.125 1.72-.273 1.104-1.402 2.38-3.344 3.592-4.288 2.516-9.373 3.904-13.843 4.875-10.388 2.016-19.908 2.798-29.687 2.812-4.946 0-9.71-.172-14.187-.594-10.05-1.23-18.982-2.152-27.5-6.063-1.452-.672-2.796-1.603-3.875-2.593-.73-.67-1.116-1.41-1.31-2.03-.076-.24-.124-.504-.125-.72-.035-4.614 0-9.23 0-13.844zm0 18c1.566 1.542 3.638 2.706 5.53 3.502 8.676 3.596 18.944 5.06 27.126 5.748 4.934.406 9.77.595 14.343.594 11.368-.184 22.45-.886 32.937-3.5 4.22-1.145 8.17-2.41 11.657-4.47.934-.554 1.67-1.192 2.406-1.874v13.844c0 1.296-1.023 2.753-3.312 4.22-2.29 1.465-5.718 2.84-10 4-8.562 2.317-20.505 3.78-33.687 3.78s-25.125-1.462-33.687-3.78c-4.282-1.16-7.71-2.535-10-4-2.29-1.467-3.313-2.924-3.313-4.22z" fill="none" opacity=".5" stroke="#fff" stroke-width="2"/>
    <path d="m1325-1570.638v52c0 7.18 21.49 13 48 13s48-5.82 48-13v-52z" fill="url(#b-7)"/>
    <path d="m1338.867-1582.857c-4.423 1.106-8 2.64-10.563 4.282-2.562 1.64-4.21 3.59-4.22 5.937-.077 19.65-.06 38.386-.06 54 0 2.294 1.65 4.262 4.218 5.906 2.568 1.645 6.19 3.057 10.594 4.25 8.81 2.386 20.86 3.844 34.187 3.844 13.328 0 25.378-1.458 34.188-3.844 4.406-1.193 8.026-2.605 10.595-4.25 2.568-1.644 4.196-3.623 4.196-5.917v-54c0-2.345-1.695-4.285-4.257-5.925-2.563-1.64-6.163-3.09-10.563-4.282-8.8-2.383-20.826-3.78-34.156-3.78-13.42 0-24.7 1.417-34.157 3.78zm34.156-1.78c13.188-.025 25.115 1.46 33.687 3.78 4.287 1.16 7.736 2.593 10.032 4.063 2.295 1.47 3.46 2.918 3.343 4.156-.21 2.205-2.578 3.735-4.25 4.688-2.71 1.545-5.95 2.71-8.874 3.468-9.98 2.59-19.947 3.535-29.53 3.78-13.262.214-26.41-.73-38.532-3.84-2.813-.735-5.25-1.64-7.656-2.845-2.16-1.083-5.063-2.882-5.28-5.25-.118-1.273 1.047-2.686 3.343-4.156s5.697-3.094 10.03-4.062c11.927-2.665 23.656-3.764 33.688-3.783zm-47 16.124c.633.635 1.392 1.273 2.28 1.813 3.29 1.996 7.31 3.487 10.564 4.28 13.105 3.04 26.117 4.087 38.625 3.72 10.112-.32 20.32-1.07 29.687-3.72 4.634-1.31 9.564-2.895 12.843-6.093v12.875c0 .582 0 1.22-.125 1.72-.273 1.104-1.37 2.436-3.344 3.593-3.264 1.91-6.84 3.083-10 3.937-11.23 2.74-22.915 3.735-33.53 3.75-11.457-.088-23.537-1.125-33.688-3.78-4.357-1.376-8.725-2.563-11.875-5.47-.724-.677-1.133-1.406-1.31-2.03-.163-.567-.125-1.123-.125-1.72v-12.875zm0 18.03c.388.385.835.766 1.312 1.126 3.833 2.65 8.6 4.188 12.75 5.22 11.482 2.606 21.65 3.477 32.938 3.5 11.353-.234 22.474-.815 32.937-3.5 3.705-.967 7.68-2.386 10.688-3.907 1.144-.58 2.937-2.034 3.375-2.438v12.844c0 .582 0 1.22-.125 1.72-.273 1.104-1.402 2.38-3.344 3.592-4.288 2.516-9.373 3.904-13.843 4.875-10.388 2.016-19.908 2.798-29.687 2.812-4.946 0-9.71-.172-14.187-.594-10.05-1.23-18.982-2.152-27.5-6.063-1.452-.672-2.796-1.603-3.875-2.593-.73-.67-1.116-1.41-1.31-2.03-.076-.24-.124-.504-.125-.72-.035-4.614 0-9.23 0-13.844zm0 18c1.566 1.542 3.638 2.706 5.53 3.502 8.676 3.596 18.944 5.06 27.126 5.748 4.934.406 9.77.595 14.343.594 11.368-.184 22.45-.886 32.937-3.5 4.22-1.145 8.17-2.41 11.657-4.47.934-.554 1.67-1.192 2.406-1.874v13.844c0 1.296-1.023 2.753-3.312 4.22-2.29 1.465-5.718 2.84-10 4-8.562 2.317-20.505 3.78-33.687 3.78s-25.125-1.462-33.687-3.78c-4.282-1.16-7.71-2.535-10-4-2.29-1.467-3.313-2.924-3.313-4.22z" fill="url(#linearGradient1677)"/>
    <ellipse cx="1373.153" cy="-1572.56" fill="url(#d-3-9)" rx="47.008" ry="12.002"/>
    <path id="g" d="m1326.484-1567.358v12.087c0 6.7 20.817 12.132 46.495 12.132 25.677 0 46.494-5.432 46.494-12.133v-12.027c-4.157 3.715-19.627 9.195-46.35 9.195-26.72 0-42.75-5.54-46.64-9.256z" fill="none" opacity=".5" stroke="#fff"/>
    <ellipse cx="1372.781" cy="-1572.617" fill="none" opacity=".5" rx="46.492" ry="11.501" stroke="#fff" stroke-width="1.000908"/>
    <use height="1085" transform="translate(0 18)" width="5033" xlink:href="#g"/>
    <use height="1085" transform="translate(0 36)" width="5033" xlink:href="#g"/>
  </g>
</svg>
