<svg height="128" width="128" xmlns="http://www.w3.org/2000/svg" xmlns:xlink="http://www.w3.org/1999/xlink">
  <linearGradient id="linearGradient8074-2">
    <stop offset="0" stop-opacity="0"/>
    <stop offset=".493"/>
    <stop offset="1" stop-opacity="0"/>
  </linearGradient>
  <linearGradient id="linearGradient22171" gradientTransform="matrix(1.64102 0 0 .500001 2374.52 -735.2511)" gradientUnits="userSpaceOnUse" x1="815.125" x2="815.125" y1="-1491.638" y2="-1543.638">
    <stop offset="0" stop-color="#727272"/>
    <stop offset="1" stop-color="#b3b3b3"/>
  </linearGradient>
  <linearGradient id="linearGradient22173" gradientUnits="userSpaceOnUse" x1="3793.25" x2="3793.25" y1="-1592.081099" y2="-1549.821099">
    <stop offset="0" stop-color="#ccc"/>
    <stop offset="1" stop-color="#b3b3b3"/>
  </linearGradient>
  <linearGradient id="linearGradient22175" gradientTransform="matrix(1.90625 0 0 1.85714 -3264.03 489.3979)" gradientUnits="userSpaceOnUse" x1="3658.22" x2="3658.22" y1="-1076.625" y2="-1117.844">
    <stop offset="0" stop-color="#fff6dd"/>
    <stop offset="1" stop-color="#fef8f4"/>
  </linearGradient>
  <linearGradient id="linearGradient1553" gradientTransform="matrix(2.5 0 0 6.33333 2347.5 8423.6359)" gradientUnits="userSpaceOnUse" x1="529.25" x2="535" y1="-1568.638" y2="-1574.638">
    <stop offset="0" stop-color="#fc5c00"/>
    <stop offset="1" stop-color="#ccc" stop-opacity="0"/>
  </linearGradient>
  <linearGradient id="linearGradient22179" gradientTransform="matrix(1.01667 0 0 1.1 -62.1745 160.0329)" gradientUnits="userSpaceOnUse" x1="3682" x2="3682" y1="-1515.003" y2="-1494.843">
    <stop offset="0" stop-color="#fff"/>
    <stop offset="1" stop-color="#f2f2f2"/>
  </linearGradient>
  <linearGradient id="linearGradient22195" gradientUnits="userSpaceOnUse" x1="3669.452" x2="3669.452" y1="-1068.818" y2="-1073.573">
    <stop offset="0"/>
    <stop offset="1" stop-color="#4d4d4d"/>
  </linearGradient>
  <linearGradient id="linearGradient22197" gradientTransform="matrix(12.0378 0 0 12.0329 -41007.4 -9920.3041)" gradientUnits="userSpaceOnUse" x1="3715.894" x2="3715.894" xlink:href="#linearGradient9860" y1="693.037" y2="695.848"/>
  <linearGradient id="linearGradient9860">
    <stop offset="0" stop-color="#666"/>
    <stop offset="1" stop-color="#808080"/>
  </linearGradient>
  <linearGradient id="linearGradient22199" gradientTransform="matrix(12.0378 0 0 12.0329 -41007.4 -9920.3041)" gradientUnits="userSpaceOnUse" x1="3715.894" x2="3715.894" xlink:href="#linearGradient9860" y1="694.657" y2="696.496"/>
  <linearGradient id="linearGradient22201" gradientTransform="matrix(.745342 0 0 1 3682.67 -317.4341)" gradientUnits="userSpaceOnUse" x1="-17" x2="144" xlink:href="#linearGradient10295" y1="-1194.638" y2="-1194.638"/>
  <linearGradient id="linearGradient10295">
    <stop offset="0" stop-color="#e9b913" stop-opacity="0"/>
    <stop offset=".493" stop-color="#fc5c00"/>
    <stop offset="1" stop-color="#e9b913" stop-opacity="0"/>
  </linearGradient>
  <linearGradient id="linearGradient1549" gradientTransform="matrix(.459627 0 0 1 -1578.2541 -2476.36)" gradientUnits="userSpaceOnUse" x1="-17" x2="144" xlink:href="#linearGradient10295" y1="-1194.638" y2="-1194.638"/>
  <linearGradient id="linearGradient1545" gradientTransform="matrix(.482919 0 0 1 -1579.6141 -2474.36)" gradientUnits="userSpaceOnUse" x1="-17" x2="144" xlink:href="#linearGradient8074-2" y1="-1194.638" y2="-1194.638"/>
  <linearGradient id="linearGradient1541" gradientUnits="userSpaceOnUse" x1="3790.003104" x2="3780.706047564" y1="-1485.070893476" y2="-1494.367949912">
    <stop offset="0"/>
    <stop offset=".455" stop-opacity=".360784"/>
    <stop offset="1" stop-opacity="0"/>
  </linearGradient>
  <linearGradient id="linearGradient1537" gradientUnits="userSpaceOnUse" x1="3665.867" x2="3690.102" y1="-1481.2551" y2="-1505.4901">
    <stop offset="0"/>
    <stop offset="1" stop-opacity="0"/>
  </linearGradient>
  <linearGradient id="linearGradient1533" gradientTransform="matrix(.136646 0 0 .999984 -1503.7441 -2474.38)" gradientUnits="userSpaceOnUse" x1="-17" x2="144" xlink:href="#linearGradient8074-2" y1="-1194.638" y2="-1194.638"/>
  <linearGradient id="linearGradient1081" gradientUnits="userSpaceOnUse" x1="-108" x2="-20" y1="-100" y2="-100">
    <stop offset="0" stop-color="#262626"/>
    <stop offset=".045" stop-color="#7a7a7a"/>
    <stop offset=".091" stop-color="#3a3a3a"/>
    <stop offset=".909" stop-color="#3c3c3c"/>
    <stop offset=".955" stop-color="#7a7a7a"/>
    <stop offset="1" stop-color="#262626"/>
  </linearGradient>
  <rect fill="#deddda" height="59" rx="8" width="88" x="20" y="61"/>
  <rect fill="url(#linearGradient1081)" fill-rule="evenodd" height="40" rx="8" transform="scale(-1)" width="88" x="-108" y="-120"/>
  <path d="m108 108.65397a7.468 7.468 0 0 1 -7.492 7.346h-.5v1h.5a8.488 8.488 0 0 0 7.463-4.428c.013-.19.029-.379.029-.572zm-42 7.346 34 1v-1z" fill="#c0bfbc" fill-opacity=".272"/>
  <path d="m73.160156 8h-45.160156c-4.432 0-8 3.568-8 8v88c0 4.432 3.568 8 8 8h71.999996c4.432004 0 8.000004-3.568 8.000004-8v-60.29492z" fill="#f6f5f4"/>
  <path d="m108.21484 32.630859v-16.630859c0-1.108-.2232-2.161391-.62695-3.119141s-.98794-1.819968-1.71094-2.542968c-.723-.7230004-1.58522-1.3071879-2.54297-1.7109379s-2.01114-.6269531-3.11914-.6269531h-16.873043c-2.778059 0-2.900702 2.889554-1.431641 4.365234l21.609374 21.708985c1.76321 1.77016 4.69531 1.34877 4.69531-1.44336z" fill="#4a4a4a"/>
  <path d="m28.800781 8c-4.860857 0-8.800781 3.95576-8.800781 8.82812v86.34376c0 5.38276 2.516163 8.82812 8.800781 8.82812h70.398438c6.284621 0 8.800781-3.23045 8.800781-8.82812v-59.55665l-34.630859-35.61523h-.41211zm0 1.95898h43.742188l33.498051 34.45118v58.76172c0 3.82469-3.03597 6.86914-6.841801 6.86914h-70.398438c-3.805828 0-6.841797-3.04445-6.841797-6.86914v-86.34376c0-3.82469 3.035969-6.86914 6.841797-6.86914z" fill="#4a4a4a"/>
  <g enable-background="new" transform="matrix(.390625 0 0 .390625 -1393.0313 677.74331)">
    <path d="m3666-1507.07h128v28h-128z" opacity=".15"/>
    <path d="m3666-1509.07h128v28h-128z" fill="url(#linearGradient22171)"/>
    <path d="m3666-1591.07h128v84h-128z" fill="url(#linearGradient22173)"/>
    <rect fill="url(#linearGradient22175)" height="78" rx="1" width="122" x="3669" y="-1588.07"/>
    <rect fill="url(#linearGradient1553)" height="76" opacity=".25" rx="2" width="30" x="3670" y="-1587.07"/>
    <path d="m3669-1506.07h122v22h-122z" fill="url(#linearGradient22179)"/>
    <g fill="#fff" transform="matrix(2.0003 0 0 2 -3609.1 642.6999)">
      <path d="m3655.2528-1071.3549v.7704c-.2254-.1313-.4523-.2297-.6805-.2953-.2283-.066-.4608-.099-.6977-.099-.3566 0-.6234.059-.8003.1755-.1741.1141-.2611.2896-.2611.5264 0 .214.066.3738.1969.4794.1312.1056.4579.2083.9801.3082l.3167.06c.3909.074.6862.2225.886.4451.2025.2225.3038.5122.3038.8688 0 .4737-.1683.8446-.505 1.1128-.3367.2654-.8046.398-1.4038.398-.2369 0-.4851-.026-.7447-.077-.2597-.049-.5407-.1227-.8432-.2225v-.8132c.2939.1512.575.2653.8432.3424.2682.074.5221.1112.7618.1112.3481 0 .6177-.07.8089-.2097.1912-.1426.2868-.341.2868-.5949 0-.3652-.3496-.6177-1.0486-.7576l-.034-.01-.2953-.06c-.4537-.089-.7846-.2369-.9929-.4451-.2083-.2112-.3125-.4979-.3125-.8603 0-.4594.1555-.8132.4665-1.0614.3111-.2511.7547-.3767 1.3311-.3767.2568 0 .5036.024.7404.073.2369.046.4694.1155.6977.2097"/>
      <path d="m3657.8135-1069.1036c0 .6106.096 1.0714.2867 1.3824.1941.311.4808.4665.8603.4665s.6663-.1555.8603-.4665c.1969-.3139.2953-.7747.2953-1.3824 0-.6078-.098-1.0672-.2953-1.3782-.194-.3139-.4808-.4708-.8603-.4708s-.6662.1555-.8603.4665c-.1911.311-.2867.7718-.2867 1.3825m2.3026 1.7804c-.1284.2368-.3024.4195-.5222.5478-.2168.1256-.4693.1884-.7575.1884-.5735 0-1.0272-.2212-1.361-.6634-.331-.4451-.4965-1.0572-.4965-1.8361 0-.7932.1655-1.4138.4965-1.8618s.7846-.672 1.361-.672c.2853 0 .5364.063.7533.1884.2197.1226.3951.3024.5264.5392v-.612h.7918v6.6168h-.7918z"/>
      <path d="m3666.5463-1070.4394c-.1683-.1313-.3395-.2268-.5136-.2868-.174-.06-.3652-.09-.5735-.09-.4908 0-.866.154-1.1256.4622-.2597.3082-.3895.7533-.3895 1.3353v2.384h-.7918v-4.7936h.7918v.9373c.1312-.3395.3324-.5992.6035-.7789.2739-.1826.5977-.2739.9715-.2739.194 0 .3752.024.5436.073.1683.049.3295.1241.4836.2269v.8046"/>
      <path d="m3669.8788-1072.7579v1.3611h1.789v.612h-1.789v2.6022c0 .3538.067.6006.2011.7405.1341.1398.3681.2097.7019.2097h.886v.6291h-.963c-.5906 0-1.0072-.1184-1.2498-.3552-.2425-.2368-.3638-.6449-.3638-1.2241v-2.6022h-1.2797v-.612h1.2797v-1.3611z"/>
      <path d="m3677.1676-1066.1651v.6163h-.2739c-.7105 0-1.187-.1055-1.4295-.3167-.2397-.2111-.3596-.632-.3595-1.2626v-1.0229c-.0001-.4308-.077-.729-.2312-.8945-.1512-.1655-.4265-.2482-.826-.2482h-.2654v-.6121h.2654c.4023 0 .6791-.081.8303-.2439.1512-.1627.2268-.458.2269-.886v-1.0272c-.0001-.6305.1198-1.05.3595-1.2583.2425-.2111.719-.3167 1.4295-.3167h.2739v.612h-.2996c-.3995.0001-.6606.063-.7832.1884-.1199.1227-.1798.3866-.1798.7918v1.0614c0 .448-.066.7732-.1969.9758-.1284.2026-.3495.3396-.6634.4109.3167.077.5393.2168.6677.4194s.1926.5265.1926.9716v1.0614c0 .408.06.6734.1798.7961.1226.1227.3837.184.7832.184z"/>
      <path d="m3682.5192-1071.5218-1.7163 2.294 1.8832 2.4995h-.9116l-1.4039-1.9217-1.3995 1.9217h-.9116l1.8831-2.4995-1.7162-2.294h.8731l1.2711 1.7334 1.2626-1.7334z"/>
      <path d="m3683.8592-1066.1651h.291c.4024 0 .6649-.063.7876-.1883.1227-.1255.184-.3895.184-.7918v-1.0614c0-.4451.064-.769.1926-.9716.1284-.2026.351-.3424.6677-.4194-.3139-.071-.5365-.2083-.6677-.4109-.1284-.2026-.1926-.5278-.1926-.9758v-1.0614c0-.4024-.061-.6663-.184-.7918-.1227-.1256-.3852-.1883-.7876-.1884h-.291v-.612h.2654c.7104 0 1.1855.1056 1.4252.3167.2397.2083.3595.6278.3595 1.2583v1.0272c0 .428.076.7233.2269.886.154.1626.4322.2439.8345.2439h.274v.6121h-.274c-.4023 0-.6805.083-.8345.2482-.1513.1655-.2269.4637-.2269.8945v1.0229c0 .6306-.1198 1.0515-.3595 1.2626-.2397.2112-.7148.3167-1.4252.3167h-.2654z"/>
    </g>
    <g opacity=".15" transform="matrix(2.0003 0 0 2 -3609.1 645.6999)">
      <path d="m3655.2528-1071.3549v.7704c-.2254-.1313-.4523-.2297-.6805-.2953-.2283-.066-.4608-.099-.6977-.099-.3566 0-.6234.059-.8003.1755-.1741.1141-.2611.2896-.2611.5264 0 .214.066.3738.1969.4794.1312.1056.4579.2083.9801.3082l.3167.06c.3909.074.6862.2225.886.4451.2025.2225.3038.5122.3038.8688 0 .4737-.1683.8446-.505 1.1128-.3367.2654-.8046.398-1.4038.398-.2369 0-.4851-.026-.7447-.077-.2597-.049-.5407-.1227-.8432-.2225v-.8132c.2939.1512.575.2653.8432.3424.2682.074.5221.1112.7618.1112.3481 0 .6177-.07.8089-.2097.1912-.1426.2868-.341.2868-.5949 0-.3652-.3496-.6177-1.0486-.7576l-.034-.01-.2953-.06c-.4537-.089-.7846-.2369-.9929-.4451-.2083-.2112-.3125-.4979-.3125-.8603 0-.4594.1555-.8132.4665-1.0614.3111-.2511.7547-.3767 1.3311-.3767.2568 0 .5036.024.7404.073.2369.046.4694.1155.6977.2097"/>
      <path d="m3657.8135-1069.1036c0 .6106.096 1.0714.2867 1.3824.1941.311.4808.4665.8603.4665s.6663-.1555.8603-.4665c.1969-.3139.2953-.7747.2953-1.3824 0-.6078-.098-1.0672-.2953-1.3782-.194-.3139-.4808-.4708-.8603-.4708s-.6662.1555-.8603.4665c-.1911.311-.2867.7718-.2867 1.3825m2.3026 1.7804c-.1284.2368-.3024.4195-.5222.5478-.2168.1256-.4693.1884-.7575.1884-.5735 0-1.0272-.2212-1.361-.6634-.331-.4451-.4965-1.0572-.4965-1.8361 0-.7932.1655-1.4138.4965-1.8618s.7846-.672 1.361-.672c.2853 0 .5364.063.7533.1884.2197.1226.3951.3024.5264.5392v-.612h.7918v6.6168h-.7918z"/>
      <path d="m3666.5463-1070.4394c-.1683-.1313-.3395-.2268-.5136-.2868-.174-.06-.3652-.09-.5735-.09-.4908 0-.866.154-1.1256.4622-.2597.3082-.3895.7533-.3895 1.3353v2.384h-.7918v-4.7936h.7918v.9373c.1312-.3395.3324-.5992.6035-.7789.2739-.1826.5977-.2739.9715-.2739.194 0 .3752.024.5436.073.1683.049.3295.1241.4836.2269v.8046"/>
      <path d="m3669.8788-1072.7579v1.3611h1.789v.612h-1.789v2.6022c0 .3538.067.6006.2011.7405.1341.1398.3681.2097.7019.2097h.886v.6291h-.963c-.5906 0-1.0072-.1184-1.2498-.3552-.2425-.2368-.3638-.6449-.3638-1.2241v-2.6022h-1.2797v-.612h1.2797v-1.3611z"/>
      <path d="m3677.1676-1066.1651v.6163h-.2739c-.7105 0-1.187-.1055-1.4295-.3167-.2397-.2111-.3596-.632-.3595-1.2626v-1.0229c-.0001-.4308-.077-.729-.2312-.8945-.1512-.1655-.4265-.2482-.826-.2482h-.2654v-.6121h.2654c.4023 0 .6791-.081.8303-.2439.1512-.1627.2268-.458.2269-.886v-1.0272c-.0001-.6305.1198-1.05.3595-1.2583.2425-.2111.719-.3167 1.4295-.3167h.2739v.612h-.2996c-.3995.0001-.6606.063-.7832.1884-.1199.1227-.1798.3866-.1798.7918v1.0614c0 .448-.066.7732-.1969.9758-.1284.2026-.3495.3396-.6634.4109.3167.077.5393.2168.6677.4194s.1926.5265.1926.9716v1.0614c0 .408.06.6734.1798.7961.1226.1227.3837.184.7832.184z"/>
      <path d="m3682.5192-1071.5218-1.7163 2.294 1.8832 2.4995h-.9116l-1.4039-1.9217-1.3995 1.9217h-.9116l1.8831-2.4995-1.7162-2.294h.8731l1.2711 1.7334 1.2626-1.7334z"/>
      <path d="m3683.8592-1066.1651h.291c.4024 0 .6649-.063.7876-.1883.1227-.1255.184-.3895.184-.7918v-1.0614c0-.4451.064-.769.1926-.9716.1284-.2026.351-.3424.6677-.4194-.3139-.071-.5365-.2083-.6677-.4109-.1284-.2026-.1926-.5278-.1926-.9758v-1.0614c0-.4024-.061-.6663-.184-.7918-.1227-.1256-.3852-.1883-.7876-.1884h-.291v-.612h.2654c.7104 0 1.1855.1056 1.4252.3167.2397.2083.3595.6278.3595 1.2583v1.0272c0 .428.076.7233.2269.886.154.1626.4322.2439.8345.2439h.274v.6121h-.274c-.4023 0-.6805.083-.8345.2482-.1513.1655-.2269.4637-.2269.8945v1.0229c0 .6306-.1198 1.0515-.3595 1.2626-.2397.2112-.7148.3167-1.4252.3167h-.2654z"/>
    </g>
    <g fill="url(#linearGradient22195)" opacity=".9" transform="matrix(2.0003 0 0 2 -3609.1 643.6999)">
      <path d="m3655.2528-1071.3549v.7704c-.2254-.1313-.4523-.2297-.6805-.2953-.2283-.066-.4608-.099-.6977-.099-.3566 0-.6234.059-.8003.1755-.1741.1141-.2611.2896-.2611.5264 0 .214.066.3738.1969.4794.1312.1056.4579.2083.9801.3082l.3167.06c.3909.074.6862.2225.886.4451.2025.2225.3038.5122.3038.8688 0 .4737-.1683.8446-.505 1.1128-.3367.2654-.8046.398-1.4038.398-.2369 0-.4851-.026-.7447-.077-.2597-.049-.5407-.1227-.8432-.2225v-.8132c.2939.1512.575.2653.8432.3424.2682.074.5221.1112.7618.1112.3481 0 .6177-.07.8089-.2097.1912-.1426.2868-.341.2868-.5949 0-.3652-.3496-.6177-1.0486-.7576l-.034-.01-.2953-.06c-.4537-.089-.7846-.2369-.9929-.4451-.2083-.2112-.3125-.4979-.3125-.8603 0-.4594.1555-.8132.4665-1.0614.3111-.2511.7547-.3767 1.3311-.3767.2568 0 .5036.024.7404.073.2369.046.4694.1155.6977.2097"/>
      <path d="m3657.8135-1069.1036c0 .6106.096 1.0714.2867 1.3824.1941.311.4808.4665.8603.4665s.6663-.1555.8603-.4665c.1969-.3139.2953-.7747.2953-1.3824 0-.6078-.098-1.0672-.2953-1.3782-.194-.3139-.4808-.4708-.8603-.4708s-.6662.1555-.8603.4665c-.1911.311-.2867.7718-.2867 1.3825m2.3026 1.7804c-.1284.2368-.3024.4195-.5222.5478-.2168.1256-.4693.1884-.7575.1884-.5735 0-1.0272-.2212-1.361-.6634-.331-.4451-.4965-1.0572-.4965-1.8361 0-.7932.1655-1.4138.4965-1.8618s.7846-.672 1.361-.672c.2853 0 .5364.063.7533.1884.2197.1226.3951.3024.5264.5392v-.612h.7918v6.6168h-.7918z"/>
      <path d="m3666.5463-1070.4394c-.1683-.1313-.3395-.2268-.5136-.2868-.174-.06-.3652-.09-.5735-.09-.4908 0-.866.154-1.1256.4622-.2597.3082-.3895.7533-.3895 1.3353v2.384h-.7918v-4.7936h.7918v.9373c.1312-.3395.3324-.5992.6035-.7789.2739-.1826.5977-.2739.9715-.2739.194 0 .3752.024.5436.073.1683.049.3295.1241.4836.2269v.8046"/>
      <path d="m3669.8788-1072.7579v1.3611h1.789v.612h-1.789v2.6022c0 .3538.067.6006.2011.7405.1341.1398.3681.2097.7019.2097h.886v.6291h-.963c-.5906 0-1.0072-.1184-1.2498-.3552-.2425-.2368-.3638-.6449-.3638-1.2241v-2.6022h-1.2797v-.612h1.2797v-1.3611z"/>
      <path d="m3677.1676-1066.1651v.6163h-.2739c-.7105 0-1.187-.1055-1.4295-.3167-.2397-.2111-.3596-.632-.3595-1.2626v-1.0229c-.0001-.4308-.077-.729-.2312-.8945-.1512-.1655-.4265-.2482-.826-.2482h-.2654v-.6121h.2654c.4023 0 .6791-.081.8303-.2439.1512-.1627.2268-.458.2269-.886v-1.0272c-.0001-.6305.1198-1.05.3595-1.2583.2425-.2111.719-.3167 1.4295-.3167h.2739v.612h-.2996c-.3995.0001-.6606.063-.7832.1884-.1199.1227-.1798.3866-.1798.7918v1.0614c0 .448-.066.7732-.1969.9758-.1284.2026-.3495.3396-.6634.4109.3167.077.5393.2168.6677.4194s.1926.5265.1926.9716v1.0614c0 .408.06.6734.1798.7961.1226.1227.3837.184.7832.184z"/>
      <path d="m3682.5192-1071.5218-1.7163 2.294 1.8832 2.4995h-.9116l-1.4039-1.9217-1.3995 1.9217h-.9116l1.8831-2.4995-1.7162-2.294h.8731l1.2711 1.7334 1.2626-1.7334z"/>
      <path d="m3683.8592-1066.1651h.291c.4024 0 .6649-.063.7876-.1883.1227-.1255.184-.3895.184-.7918v-1.0614c0-.4451.064-.769.1926-.9716.1284-.2026.351-.3424.6677-.4194-.3139-.071-.5365-.2083-.6677-.4109-.1284-.2026-.1926-.5278-.1926-.9758v-1.0614c0-.4024-.061-.6663-.184-.7918-.1227-.1256-.3852-.1883-.7876-.1884h-.291v-.612h.2654c.7104 0 1.1855.1056 1.4252.3167.2397.2083.3595.6278.3595 1.2583v1.0272c0 .428.076.7233.2269.886.154.1626.4322.2439.8345.2439h.274v.6121h-.274c-.4023 0-.6805.083-.8345.2482-.1513.1655-.2269.4637-.2269.8945v1.0229c0 .6306-.1198 1.0515-.3595 1.2626-.2397.2112-.7148.3167-1.4252.3167h-.2654z"/>
    </g>
    <path d="m3672.4957-1515.5719h115.0084m-115.0084-45h115.0084m-115.0084-20h115.0084" fill="none" opacity=".75" stroke="#fff" stroke-linecap="square"/>
    <path d="m3781.5-1585.571v72.9991m-103-72.9991v72.9991m51-72.9991v72.9991m-57.0043-4h115.0084m-115.0084-45h115.0084m-115.0084-20h115.0084" fill="none" opacity=".25" stroke="#f87019" stroke-dasharray="1 1" stroke-linecap="square"/>
    <path d="m3721.9679-1581.0719h60.0325v12.0001h-6.0033v-4h-48.2859l-24.3647 57.9999h-5.0992l-14.8145-31.5448-5.8739 3.2928-2.1997-7.5648.6725-1.5554 12.0751-3.6375 12.5939 24.5797 21.2624-49.57" fill="#fff"/>
    <path d="m3781.5-1585.571v72.9991m-103-72.9991v72.9991m51-72.9991v72.9991m-57.0043-4h115.0084m-115.0084-45h115.0084m-115.0084-20h115.0084" fill="none" opacity=".7" stroke="#f87019" stroke-dasharray="1 3" stroke-linecap="square"/>
    <path d="m3721.9679-1582.0719h60.0325v12.0001h-6.0033v-4h-49.0203l-24.4584 57.9999h-3.5523l-14.9799-31.9656-5.8335 3.0573-2.1523-7.4951 12.1064-4.6063 12.5939 24.5797 21.2624-49.57" fill="url(#linearGradient22197)" opacity=".8"/>
    <path d="m3778.8992-1561.0719h-10.4586l-12.1902 15.9972h-.3098l-11.777-15.9972h-11.275l16.8719 22.4298v.285l-16.9604 23.2852h10.6244l12.3093-16.7093h.31l12.3979 16.7093h11.3625l-17.3636-23.6652v-.2852z" fill="#fff"/>
    <path d="m3778.3578-1562.0719h-9.9172l-12.1902 15.9972h-.3098l-11.777-15.9972h-10.7437l16.8719 22.4298v.285l-17.4917 23.2852h9.9173l13.0164-17.328h.31l13.0166 17.328h10.7438l-17.905-23.6652v-.2852z" fill="url(#linearGradient22199)" opacity=".8"/>
    <path d="m3721.9688-1582.0719-21.2813 49.5625-12.5937-24.5625-12.0938 4.5937.3125 1.125 11.1875-4.375 13.1875 25.875 22.0937-51.2187h58.2188v11h1v-12zm54.0312 8v4h1.0938v-3.125l-1.0626-.875h-.031z" opacity=".25"/>
    <path d="m3733.4062-1562.0719.75 1h9.4688l11.7812 16h1.4063l12.1875-16h8.5938l.75-1h-9.9063l-12.1875 16h-.3125l-11.7813-16zm28.5 22.0625-.4687 1.2812 17.1563 22.6563h1.2187l-17.9063-23.6563zm-11.625.5v.1562l-17.4687 23.2813h1.3125l16.7188-22.2813z" opacity=".25"/>
    <path d="m3670-1512.07h120v1h-120z" fill="url(#linearGradient22201)" opacity=".35"/>
    <path d="m-1586.07-3671h74v1h-74z" fill="url(#linearGradient1549)" opacity=".35" transform="rotate(90)"/>
    <path d="m-1587.82-3669h77.75v1h-77.75z" fill="url(#linearGradient1545)" opacity=".25" transform="rotate(90)"/>
    <path d="m3770-1505.07h20v20h-20z" fill="url(#linearGradient1541)" opacity=".15"/>
    <path d="m3666-1531.0719v50h50v-1h-49v-49z" fill="url(#linearGradient1537)" opacity=".5"/>
    <path d="m-1506.07-3669h22v1h-22z" fill="url(#linearGradient1533)" opacity=".5" transform="rotate(90)"/>
  </g>
</svg>
