<svg height="128" width="128" xmlns="http://www.w3.org/2000/svg">
  <rect fill="#333" height="82.029999" rx="8" width="112" x="7.5237" y="33.97"/>
  <rect fill="#5c5c5c" height="82.029999" rx="8" width="112" x="7.5237" y="29.97"/>
  <g transform="translate(-272.25333 -102.267829)">
    <path d="m23.929688 29.970703h-8.40625c-.911639 0-1.751413.237232-2.566407.515625v80.998052c.814994.27839 1.654768.51562 2.566407.51562h8.40625z" fill="#fff" transform="translate(272.25333 102.26783)"/>
    <path d="m302.9556 132.23853h-8.40235v6.84375h-7.7207v-6.65625c-.75247.0907-1.51721.15606-2.18945.43945-.95775.40375-1.81997.98794-2.54297 1.71094s-1.30719 1.58327-1.71094 2.54102-.62695 2.01309-.62695 3.12109v66.0293c0 1.108.2232 2.16139.62695 3.11914s.98794 1.81997 1.71094 2.54297 1.58522 1.30719 2.54297 1.71094c.67224.28339 1.43698.34877 2.18945.43945v-9.64648h7.7207v9.83398h8.40235zm-16.12305 11.58594h7.7207v10.32812h-7.7207zm.0195 15.28125h7.71875v10.32812h-7.71875zm0 15.17578h7.71875v10.32813h-7.71875zm0 15.17578h7.71875v10.33008h-7.71875z" fill="#808080" stroke-width=".479255"/>
    <g transform="translate(-.522493 .26064)">
      <path d="m380.84151 190.17141-.98226 6.51049-4.82047-3.4073-.22789 7.56937-6.32881-4.46619-.90682 8.40314-6.85451-5.90542-1.96176 6.89123-5.42594-6.28576-3.23865 5.37578-2.78881-6.43466-2.39187 4.83705c.29662.31675.60429.58849.90643.88628.75358.58455 1.6375 1.08851 1.6375 1.08851s9.79457 4.54281 22.60545.15246c6.49903-2.22757 12.9175-7.92247 17.72612-13.02494-.18484-.0727-.34164-.1564-.54267-.22158z" fill-rule="evenodd" stroke-width=".466432"/>
      <ellipse cx="378.80312021834" cy="160.91842685698" opacity=".2" rx="6.50101371684" ry="6.52984646485" stroke-width=".39495833"/>
      <ellipse cx="375.81841616895" cy="157.92029975379" opacity=".2" rx="1.59918627817" ry="1.60590056978" stroke-width=".39495833"/>
      <g stroke-width=".466432">
        <path d="m383.64374 178.3973-.13231.0201c-23.54742 4.31768-40.19887 6.17754-40.19887 6.17754s-7.56582 2.43887-14.31527 1.00517l6.74905 9.81195 2.13041-6.10368 4.69131 6.74549 3.30146-6.96075 7.46037 7.38769 2.66637-8.45606 7.03342 6.7455 3.41086-9.20688 5.32996 5.77943 3.30145-8.45606 5.86238 4.0661 2.55735-8.09901z" fill="#fff" fill-rule="evenodd"/>
        <path d="m380.84151 188.47782-.98226 6.51089-4.82047-3.4077-.22789 7.56938-6.32881-4.46619-.90682 8.40313-6.85451-5.90541-1.96176 6.89123-5.42594-6.28577-3.23865 5.37618-2.78881-6.43466-2.39187 4.83666c.29662.31676-.76306 1.95583-.46091 2.25402.75358.58415.27015 2.06524.27015 2.06524s13.89661 5.12894 26.70788.73818c6.49864-2.22757 12.91711-10.65716 17.72573-15.75962-.18485-.0727-1.70899-.35191-1.91002-.41708z" fill="#fff" fill-rule="evenodd"/>
        <path d="m391.50093 206.83971c.0592-.24666.1431-.44696.19404-.71058.16396-.84837.2863-1.78546.37716-2.82137.18171-2.0718.23595-4.5368.23595-7.46746v-9.7313c-5.60108 5.84408-21.09288 20.52732-37.24076 21.01768-4.24303.0731-7.98803-1.94466-10.15675-5.55893 0 0-1.70463.26633-1.38472 2.62186 1.63474 8.351 15.71624 9.66687 19.16107 9.71308 7.02577-.0207 16.47675-1.85453 28.81401-7.06298z" fill="#ed333b"/>
        <path d="m120.06836 48.154297v-10.183594c0-1.108-.22125-2.163344-.625-3.121094s-.98989-1.818015-1.71289-2.541015-1.58327-1.307188-2.54102-1.710938-2.01309-.626953-3.12109-.626953h-10.06641c-.01038.000429-.1121.029297-.12109.029297h-6.914063c-14.45743 4.98929-34.255582 12.188349-44.138672 17.474609-16.41249 8.77914-16.66831 11.986606-14.75 16.697266 1.91831 4.71068 7.713356 7.250596 10.697266 14.316406 2.9843 7.0658 24.298828 6.410157 24.298828 6.410157s23.85642.758749 48.994141-11.625z" fill="#ed333b" transform="translate(272.2388 101.90269)"/>
        <circle cx="378.59628" cy="159.69878" fill="#3f3f3f" r="6.77539"/>
        <circle cx="376.05518" cy="157.15813" fill="#f8fcf9" r="2.540654"/>
      </g>
    </g>
  </g>
</svg>
