<svg enable-background="new" height="128" viewBox="0 0 128 128" width="128" xmlns="http://www.w3.org/2000/svg">
  <g transform="translate(.000062 -173)">
    <path d="m123.99993 237a59.999995 59.999995 0 0 1 -59.999985 60 59.999995 59.999995 0 0 1 -60.0000069-60 59.999995 59.999995 0 0 1 60.0000069-59.99999 59.999995 59.999995 0 0 1 59.999985 59.99999z" fill="#a44b6a"/>
    <path d="m123.99993 235a59.999995 59.999995 0 0 1 -59.999985 59.99999 59.999995 59.999995 0 0 1 -60.0000069-59.99999 59.999995 59.999995 0 0 1 60.0000069-60 59.999995 59.999995 0 0 1 59.999985 60z" fill="#ff3e80"/>
    <path d="m63.999935 175.00106a59.999996 59.999996 0 0 0 -59.9999967 60 59.999996 59.999996 0 0 0 .047326 1.34765 59.999996 59.999996 0 0 1 .2524038-5.03005 59.999996 59.999996 0 0 1 .8969342-5.93149 59.999996 59.999996 0 0 1 1.4828734-5.80979 59.999996 59.999996 0 0 1 2.0575418-5.63402 59.999996 59.999996 0 0 1 2.6074215-5.40189 59.999996 59.999996 0 0 1 3.134765-5.11343 59.999996 59.999996 0 0 1 3.63056-4.77314 59.999996 59.999996 0 0 1 4.08804-4.38777 59.999996 59.999996 0 0 1 4.504957-3.95958 59.999996 59.999996 0 0 1 4.879057-3.48858 59.999996 59.999996 0 0 1 5.201321-2.98378 59.999996 59.999996 0 0 1 5.476263-2.44967 59.999996 59.999996 0 0 1 5.690354-1.89077 59.999996 59.999996 0 0 1 5.852613-1.31385 59.999996 59.999996 0 0 1 5.954027-.72341 59.999996 59.999996 0 0 1 4.243539-.14874 59.999996 59.999996 0 0 1 5.990084.29973 59.999996 59.999996 0 0 1 5.929237.89468 59.999996 59.999996 0 0 1 5.812049 1.48513 59.999996 59.999996 0 0 1 5.634014 2.05529 59.999996 59.999996 0 0 1 5.39964 2.60967 59.999996 59.999996 0 0 1 5.11343 3.13477 59.999996 59.999996 0 0 1 4.775391 3.6283 59.999996 59.999996 0 0 1 4.38777 4.08804 59.999996 59.999996 0 0 1 3.95733 4.50721 59.999996 59.999996 0 0 1 3.48858 4.87906 59.999996 59.999996 0 0 1 2.98603 5.20132 59.999996 59.999996 0 0 1 2.44967 5.47401 59.999996 59.999996 0 0 1 1.89078 5.69261 59.999996 59.999996 0 0 1 1.31385 5.85036 59.999996 59.999996 0 0 1 .72115 5.95403 59.999996 59.999996 0 0 1 .10366 2.89588 59.999996 59.999996 0 0 0 .0473-.95778 59.999996 59.999996 0 0 0 -59.999995-60z" fill="#fff" opacity=".266"/>
  </g>
  <g enable-background="new" transform="matrix(.40499269 0 0 .40498869 -130.27947 -214.62519)">
    <path d="m449.75704 538.12208a148.15082 148.15228 0 0 0 -9.67677 2.17019 148.15082 148.15228 0 0 0 -14.05051 4.66871 148.15082 148.15228 0 0 0 -13.52188 6.04874 148.15082 148.15228 0 0 0 -12.84301 7.36755 148.15082 148.15228 0 0 0 -12.04727 8.61402 148.15082 148.15228 0 0 0 -11.12355 9.77703 148.15082 148.15228 0 0 0 -.91815.98494c3.77945 22.31075 20.82335 49.48106 37.83344 68.89549-5.91222 11.18416-9.01263 23.69266-9.02016 36.39813.0261 3.63472.31023 7.26216.84025 10.85657-25.00552-11.56123-53.11147-33.37044-65.26115-59.54694a148.15082 148.15228 0 0 0 -1.79178 4.90799 148.15082 148.15228 0 0 0 -3.66148 14.34558 148.15082 148.15228 0 0 0 -2.2147 14.64606 148.15082 148.15228 0 0 0 -.74008 14.79074 148.15082 148.15228 0 0 0 .37282 10.47817 148.15082 148.15228 0 0 0 1.78066 14.70171 148.15082 148.15228 0 0 0 3.08833 13.76129c20.81424 8.38185 53.35752 6.83532 78.88319 1.40229 8.45601 13.94503 21.06581 24.76103 35.986 30.87248-21.99842 16.05714-53.92949 29.66408-81.93813 27.78968a148.15082 148.15228 0 0 0 3.70043 4.21241 148.15082 148.15228 0 0 0 10.8342 10.0942 148.15082 148.15228 0 0 0 11.7913 8.95903 148.15082 148.15228 0 0 0 12.62598 7.74039 148.15082 148.15228 0 0 0 13.33269 6.44382 148.15082 148.15228 0 0 0 13.91139 5.07493 148.15082 148.15228 0 0 0 7.53998 1.92535c16.56437-14.76961 30.68677-42.55204 38.49006-66.73641 16.07003-.48371 31.57066-6.20088 44.22711-16.30989 2.5686 26.83937-1.76157 60.75688-16.52117 84.50979a148.15082 148.15228 0 0 0 9.67677-2.1702 148.15082 148.15228 0 0 0 14.05051-4.66871 148.15082 148.15228 0 0 0 13.52188-6.04871 148.15082 148.15228 0 0 0 12.843-7.36756 148.15082 148.15228 0 0 0 12.04727-8.61403 148.15082 148.15228 0 0 0 11.12357-9.77703 148.15082 148.15228 0 0 0 .91813-.98493c-3.78115-22.30983-20.82461-49.48252-37.83343-68.89549 5.91222-11.18416 9.01262-23.6871 9.02015-36.39258-.0261-3.6347-.31022-7.26214-.84025-10.85656 25.0055 11.56121 53.11145 33.36491 65.26116 59.54137a148.15082 148.15228 0 0 0 1.79177-4.90799 148.15082 148.15228 0 0 0 3.66149-14.34557 148.15082 148.15228 0 0 0 2.21468-14.64607 148.15082 148.15228 0 0 0 .7401-14.78518 148.15082 148.15228 0 0 0 -.37283-10.48373 148.15082 148.15228 0 0 0 -1.78066-14.70171 148.15082 148.15228 0 0 0 -3.10501-13.81694c-25.46889-9.19056-56.78935-6.00872-78.87763-1.36333-8.45576-13.93435-21.06318-24.74746-35.97488-30.85578 21.99842-16.05715 53.92952-29.66409 81.93813-27.78968a148.15082 148.15228 0 0 0 -3.70044-4.21242 148.15082 148.15228 0 0 0 -10.83418-10.09421 148.15082 148.15228 0 0 0 -11.79131-8.95903 148.15082 148.15228 0 0 0 -12.62598-7.74038 148.15082 148.15228 0 0 0 -13.33268-6.44382 148.15082 148.15228 0 0 0 -13.9114-5.07492 148.15082 148.15228 0 0 0 -7.49546-1.91423c-16.5759 14.76741-30.7165 42.54568-38.52901 66.73085-16.07255.48213-31.57426 6.19383-44.23268 16.30432-2.56872-26.84065 1.75983-60.75675 16.52118-84.50979z" fill="#f8f8f8"/>
    <path d="m451.91497 639.494c-2.66846-.0623-4.86554 2.08284-4.8664 4.75126v38.79453 38.79452c-.00003 3.65935 3.96213 5.94674 7.13242 4.11761l33.60496-19.39726 33.60728-19.39728c3.16868-1.83014 3.16868-6.40272 0-8.23286l-33.60728-19.39726-33.60496-19.39728c-.69011-.39847-1.4693-.61717-2.26602-.63598z" fill="#ff3e80"/>
  </g>
</svg>
