<svg enable-background="new" height="128" viewBox="0 0 128 128" width="128" xmlns="http://www.w3.org/2000/svg">
  <g transform="translate(0 -172)">
    <path d="m70.791521 201.5463c2.898816 0 5.23252 2.33376 5.23252 5.23262v54.9425c0 2.89888-2.333704 5.23263-5.23252 5.23263h-26.1626-2.616261-28.78014c-2.89882 0-5.23252-2.33375-5.23252-5.23263v-54.9425c0-2.89886 2.3337-5.23262 5.23252-5.23262h28.78014 2.616261z" fill="#f3af3f"/>
    <path d="m70.765872 206.16262c2.89887 0 5.232619 2.33375 5.232619 5.23262v54.94249c0 2.89888-2.333749 5.23262-5.232619 5.23262h-26.134988-2.644415-28.318229c-3.97436 0-5.66824-2.95365-5.66824-6.62253v-26.08133h33.986469v-32.70387z" fill="#f5c211"/>
    <path d="m70.791521 181.13895c2.898816 0 5.23252 3.06188 5.23252 6.8652v72.08468c0 3.80334-2.333704 6.86522-5.23252 6.86522h-26.1626-2.616261-28.78014c-2.89882 0-5.23252-3.06188-5.23252-6.86522v-72.08468c0-3.80332 2.3337-6.8652 5.23252-6.8652h28.78014 2.616261z" fill="#f6f5f4" fill-opacity=".995238"/>
    <path d="m112.76587 228.59226c2.89887 0 5.23262 2.33376 5.23262 5.23263v54.9425c0 2.89887-2.33375 5.23261-5.23262 5.23261h-26.134984-2.644413-28.318224c-3.974366 0-5.668249-2.95365-5.668249-6.62254v-26.08132h33.986473v-32.70388z" fill="#1c71d8"/>
    <path d="m111.04653 203.56859c2.89882 0 5.23252 2.40971 5.23252 5.40297v56.73124c0 2.99327-2.3337 5.40299-5.23252 5.40299h-26.1626-2.616261l-28.841892.40137-5.139896.0619-.03088-62.59746c-.0015-2.99326 2.333699-5.40297 5.232521-5.40297h28.780142 2.616261z" opacity=".1"/>
    <path d="m112.79152 203.56859c2.89882 0 5.23252 3.06186 5.23252 6.8652v72.08468c0 3.80334-2.3337 6.86522-5.23252 6.86522h-26.162596-2.616261-28.780142c-2.898822 0-5.232521-3.06188-5.232521-6.86522v-72.08468c0-3.80334 2.333699-6.8652 5.232521-6.8652h28.780142 2.616261z" fill="#f6f5f4"/>
    <path d="m92.027674 225.11823c-.06158-.004-.118563.004-.169922.0234-.410863.15767-1.850069 1.76941-3.199218 3.58203-1.349148 1.81263-2.541775 3.40378-2.648438 3.53516-.106668.13137-.673775-.19644-1.261719-.72852-1.338624-1.21145-1.847656-.72979-1.847656 1.75 0 1.36643.266949 1.93946.904297 1.93946.98759 0 7.718668 3.81113 10.324219 5.8457.89545.69922 1.775871 2.01219 1.957031 2.91797.27746 1.3873.663342 1.68217 2.445313 1.87109 4.206629.446 9.968749.41031 9.968749-.0625 0-.26594-.58858-.76867-1.3086-1.11719s-3.2718-1.56936-5.67187-2.71289c-2.400077-1.14353-5.143905-2.72858-6.097655-3.52148-1.698158-1.41174-1.710421-1.46038-.582031-2.3125.63374-.47858 1.991138-1.27814 3.017578-1.77734 2.469918-1.20122 2.602428-1.52277 1.316411-3.21875l-1.091801-1.43946-3.09961 3.05469c-1.705245 1.68004-3.354112 3.04802-3.664062 3.04102-.309943-.007-1.184203-.49042-1.943359-1.07422l-1.38086-1.06055 2.449219-2.27148c1.347292-1.24914 2.82477-2.48263 3.283203-2.74219.71244-.4034.69151-.7136-.144531-2.12891-.470719-.79686-1.123594-1.36782-1.554688-1.39258zm-14.947265 2.02149c-.969641-.0207-1.930764.24789-2.908204.80664-.800023.45734-2.305672.84211-3.345703.85351-1.999896.0218-2.077484.13375-1.523437 2.20118.428353 1.5984 1.22042 1.63626 3.125.14648 3.303767-2.58424 5.144566-.85136 3.164062 2.97852-.859225 1.66165-1.08058 1.74955-4.064453 1.61132-1.735539-.0804-3.325074.0243-3.533203.23243-.208123.20812.0739 1.06803.626953 1.91211.823519 1.25687 1.311963 1.47432 2.697266 1.19726.930331-.18603 1.691406-.19532 1.691406-.0195 0 .82473-7.052855 7.60031-10.001953 9.60938-4.393014 2.99275-4.559364 3.46522-.910156 2.57226 5.32273-1.30245 8.806908-3.24571 8.535156-4.75976-.196829-1.09662.07996-1.95118.630859-1.95118.320009 0 .582032.5295.582032 1.17774 0 1.11786.08867 1.13294 1.716797.29101 2.361976-1.22143 2.9375-1.11835 2.9375.52539-.000001 1.76917-1.233985 3.03618-3.425782 3.51758-1.389417.30517-1.76495.75825-2.091797 2.52149-.219043 1.18168-.870602 2.9345-1.447265 3.89453-2.460966 4.09702-1.724589 5.96431 1.146484 2.9082.832332-.88598 2.008375-1.45508 3.009766-1.45508 1.375604 0 1.644531.24339 1.644531 1.48828 0 2.36323-1.215132 6.55997-2.117187 7.3086-.887568.73662-2.040652.34121-4.851563-1.66016l-1.443359-1.02734 1.310546 1.85351c.720483 1.01938 2.416572 2.77866 3.769532 3.90821l2.458984 2.05273.94336-1.23047c1.227952-1.60585 3.435234-7.91609 3.427734-9.79883-.0032-.80882.427925-2.09143.958984-2.84961.90949-1.29847.900018-1.42762-.146484-2.21484-.767737-.57754-1.963267-.73897-3.873047-.52344-2.339322.264-2.763359.15897-2.755859-.67968.01445-1.60716.72794-2.30309 3.638672-3.55079 2.353364-1.00877 2.751953-1.41714 2.751953-2.82226 0-.90373.524043-2.67042 1.164062-3.92578s1.164063-2.35877 1.164063-2.45117c0-.42371-2.907102-.078-5.791016.68945-1.745169.46442-3.282554.73698-3.416016.60351-.133461-.13346.540267-1.23832 1.496094-2.45312.955828-1.21479 2.594959-3.73429 3.642578-5.59961 1.047618-1.86533 2.391122-3.6947 2.986328-4.06641 1.516468-.94705 1.351671-1.73141-.607422-2.88867-1.018039-.60137-1.997156-.91288-2.966796-.93359zm13.787109 13.64258c-.69781.0207-1.584984.25803-3.119141.72461l-3.392578 1.03125-.101562 2.88671c-.09127 2.60195-.343514 3.10149-2.548828 5.06836-2.405045 2.14509-2.418698 2.18164-.886719 2.18164.857072 0 2.329299-.39847 3.273437-.88671 1.456794-.75333 1.716797-1.23185 1.716797-3.16211 0-4.13626 1.548371-6.32883 3.845703-5.44727.707506.27149.854291.85145.605469 2.38477-.497452 3.06545.909184 5.36872 3.273438 5.35742 2.190989-.0104 2.918047-.41035 3.804687-2.0957.8613-1.63717.470196-1.9073-2.246094-1.54297-2.91386.39083-3.606443-.90652-1.792968-3.35938l1.248046-1.68555-1.703124-.88085c-.770269-.39832-1.278753-.59488-1.976563-.57422zm-.447266 11.66992c-.992014.0528-2.099661.44117-3.5625 1.17773-.864136.4351-2.238773.79102-3.054687.79102-1.651668 0-1.742815.17618-.898438 1.7539.563071 1.05212.702057 1.03491 3.513672-.42382 3.668494-1.90327 4.509846-1.34779 3.140625 2.07422-.5312 1.3276-1.02071 2.41406-1.08789 2.41406-.06717 0-1.505622-.41032-3.195313-.91211-1.689697-.50179-3.18146-.80291-3.316406-.66797-.134945.13495.807207.94158 2.09375 1.79297s2.337891 1.7618 2.33789 2.02148c.000001.84553-2.554419 2.87592-5.527343 4.39453-3.010858 1.53791-2.730417 1.83907 1.433593 1.54102 1.380633-.0988 2.821546-.85418 4.578126-2.40039l2.564453-2.25586 4.730468 3.7207c2.602 2.04674 4.992491 3.65798 5.312501 3.58008.320009-.0778.661777-1.3753.759757-2.88281l.17774-2.74024-4.396482-2.03125c-2.418121-1.11724-4.396484-2.14209-4.396484-2.27734 0-.57835 1.48264-3.62523 2.476562-5.08984l1.078125-1.58985-1.898437-1.15429c-.995887-.60563-1.871267-.88877-2.863282-.83594z" fill="#fff"/>
    <path d="m92.027674 223.11823c-.06158-.004-.118563.004-.169922.0234-.410863.15767-1.850069 1.76941-3.199218 3.58203-1.349148 1.81263-2.541775 3.40378-2.648438 3.53516-.106668.13137-.673775-.19644-1.261719-.72852-1.338624-1.21145-1.847656-.72979-1.847656 1.75 0 1.36643.266949 1.93946.904297 1.93946.98759 0 7.718668 3.81113 10.324219 5.8457.89545.69922 1.775871 2.01219 1.957031 2.91797.27746 1.3873.663342 1.68217 2.445313 1.87109 4.206629.446 9.968749.41031 9.968749-.0625 0-.26594-.58858-.76867-1.3086-1.11719s-3.2718-1.56936-5.67187-2.71289c-2.400077-1.14353-5.143905-2.72858-6.097655-3.52148-1.698158-1.41174-1.710421-1.46038-.582031-2.3125.63374-.47858 1.991138-1.27814 3.017578-1.77734 2.469918-1.20122 2.602428-1.52277 1.316411-3.21875l-1.091801-1.43946-3.09961 3.05469c-1.705245 1.68004-3.354112 3.04802-3.664062 3.04102-.309943-.007-1.184203-.49042-1.943359-1.07422l-1.38086-1.06055 2.449219-2.27148c1.347292-1.24914 2.82477-2.48263 3.283203-2.74219.71244-.4034.69151-.7136-.144531-2.12891-.470719-.79686-1.123594-1.36782-1.554688-1.39258zm-14.947265 2.02149c-.969641-.0207-1.930764.24789-2.908204.80664-.800023.45734-2.305672.84211-3.345703.85351-1.999896.0218-2.077484.13375-1.523437 2.20118.428353 1.5984 1.22042 1.63626 3.125.14648 3.303767-2.58424 5.144566-.85136 3.164062 2.97852-.859225 1.66165-1.08058 1.74955-4.064453 1.61132-1.735539-.0804-3.325074.0243-3.533203.23243-.208123.20812.0739 1.06803.626953 1.91211.823519 1.25687 1.311963 1.47432 2.697266 1.19726.930331-.18603 1.691406-.19532 1.691406-.0195 0 .82473-7.052855 7.60031-10.001953 9.60938-4.393014 2.99275-4.559364 3.46522-.910156 2.57226 5.32273-1.30245 8.806908-3.24571 8.535156-4.75976-.196829-1.09662.07996-1.95118.630859-1.95118.320009 0 .582032.5295.582032 1.17774 0 1.11786.08867 1.13294 1.716797.29101 2.361976-1.22143 2.9375-1.11835 2.9375.52539-.000001 1.76917-1.233985 3.03618-3.425782 3.51758-1.389417.30517-1.76495.75825-2.091797 2.52149-.219043 1.18168-.870602 2.9345-1.447265 3.89453-2.460966 4.09702-1.724589 5.96431 1.146484 2.9082.832332-.88598 2.008375-1.45508 3.009766-1.45508 1.375604 0 1.644531.24339 1.644531 1.48828 0 2.36323-1.215132 6.55997-2.117187 7.3086-.887568.73662-2.040652.34121-4.851563-1.66016l-1.443359-1.02734 1.310546 1.85351c.720483 1.01938 2.416572 2.77866 3.769532 3.90821l2.458984 2.05273.94336-1.23047c1.227952-1.60585 3.435234-7.91609 3.427734-9.79883-.0032-.80882.427925-2.09143.958984-2.84961.90949-1.29847.900018-1.42762-.146484-2.21484-.767737-.57754-1.963267-.73897-3.873047-.52344-2.339322.264-2.763359.15897-2.755859-.67968.01445-1.60716.72794-2.30309 3.638672-3.55079 2.353364-1.00877 2.751953-1.41714 2.751953-2.82226 0-.90373.524043-2.67042 1.164062-3.92578s1.164063-2.35877 1.164063-2.45117c0-.42371-2.907102-.078-5.791016.68945-1.745169.46442-3.282554.73698-3.416016.60351-.133461-.13346.540267-1.23832 1.496094-2.45312.955828-1.21479 2.594959-3.73429 3.642578-5.59961 1.047618-1.86533 2.391122-3.6947 2.986328-4.06641 1.516468-.94705 1.351671-1.73141-.607422-2.88867-1.018039-.60137-1.997156-.91288-2.966796-.93359zm13.787109 13.64258c-.69781.0207-1.584984.25803-3.119141.72461l-3.392578 1.03125-.101562 2.88671c-.09127 2.60195-.343514 3.10149-2.548828 5.06836-2.405045 2.14509-2.418698 2.18164-.886719 2.18164.857072 0 2.329299-.39847 3.273437-.88671 1.456794-.75333 1.716797-1.23185 1.716797-3.16211 0-4.13626 1.548371-6.32883 3.845703-5.44727.707506.27149.854291.85145.605469 2.38477-.497452 3.06545.909184 5.36872 3.273438 5.35742 2.190989-.0104 2.918047-.41035 3.804687-2.0957.8613-1.63717.470196-1.9073-2.246094-1.54297-2.91386.39083-3.606443-.90652-1.792968-3.35938l1.248046-1.68555-1.703124-.88085c-.770269-.39832-1.278753-.59488-1.976563-.57422zm-.447266 11.66992c-.992014.0528-2.099661.44117-3.5625 1.17773-.864136.4351-2.238773.79102-3.054687.79102-1.651668 0-1.742815.17618-.898438 1.7539.563071 1.05212.702057 1.03491 3.513672-.42382 3.668494-1.90327 4.509846-1.34779 3.140625 2.07422-.5312 1.3276-1.02071 2.41406-1.08789 2.41406-.06717 0-1.505622-.41032-3.195313-.91211-1.689697-.50179-3.18146-.80291-3.316406-.66797-.134945.13495.807207.94158 2.09375 1.79297s2.337891 1.7618 2.33789 2.02148c.000001.84553-2.554419 2.87592-5.527343 4.39453-3.010858 1.53791-2.730417 1.83907 1.433593 1.54102 1.380633-.0988 2.821546-.85418 4.578126-2.40039l2.564453-2.25586 4.730468 3.7207c2.602 2.04674 4.992491 3.65798 5.312501 3.58008.320009-.0778.661777-1.3753.759757-2.88281l.17774-2.74024-4.396482-2.03125c-2.418121-1.11724-4.396484-2.14209-4.396484-2.27734 0-.57835 1.48264-3.62523 2.476562-5.08984l1.078125-1.58985-1.898437-1.15429c-.995887-.60563-1.871267-.88877-2.863282-.83594z" fill="#7f7f7f"/>
    <path d="m44.253906 199.2832v6.88477 6.88281l-2.472656.64649c-9.10718 2.37687-11.936467 3.0331-13.091797 3.0371-1.04227.004-1.306875.32964-1.296875 1.60352.0166 2.07915 1.761171 5.87745 4.175781 9.0957 1.05708 1.40891 2.193371 3.01813 2.525391 3.57618.56887.95611.822121.9599 4.400391.0625 6.65758-1.66966 6.121894-2.39346 6.490234 8.75781.17641 5.3407.09891 10.29359-.171875 11.00586-.51411 1.35219.197065 1.97561 2.251953 1.97461.834705-.00038.988434-.83463 1.099609-5.96289.07111-3.27985.293438-8.48434.494141-11.56641l.365235-5.60352 1.232421-.14062v-4.99414c-.310418.0501-.850184.0501-1.009765.11133-.797702.30612-.919922-.35258-.919922-4.94532v-5.29882h1.929687v-1.97657c0-.24066.08527-.44359.103516-.67773l-1.451172.0918v-5.08399c0-3.20783.247209-5.2368.669922-5.49805 1.068962-.66065-1.196302-1.98242-3.398437-1.98242zm0 16.26953v4.92969 4.92774l-2.18164.61523c-5.13336 1.44524-6.364302 1.42081-7.388672-.14258-1.28899-1.96724-1.806188-5.43857-.960938-6.45703.67259-.81043 5.889441-2.87034 8.931641-3.52734z" fill="#fff"/>
    <path d="m44.253906 25.283203v6.884766 6.882812l-2.472656.646485c-9.10718 2.37687-11.936467 3.033109-13.091797 3.037109-1.04227.004-1.306875.329636-1.296875 1.603516.0166 2.07915 1.761171 5.877453 4.175781 9.095703 1.05708 1.40891 2.193371 3.018122 2.525391 3.576172.56887.95611.822121.9599 4.400391.0625 6.65758-1.66966 6.121894-2.393458 6.490234 8.757812.17641 5.3407.09891 10.293589-.171875 11.00586-.51411 1.35219.197065 1.975609 2.251953 1.974609.834705-.00038.988434-.834631 1.099609-5.962891.07111-3.27985.293438-8.484336.494141-11.566406l.365235-5.603516 1.232421-.140625v-4.99414c-.310418.050126-.850184.050092-1.009765.111328-.797702.30612-.919922-.352573-.919922-4.945313v-5.298828h1.929687v-1.976562c0-.240667.085275-.443594.103516-.677735l-1.451172.091797v-5.083984c0-3.20783.247209-5.236797.669922-5.498047 1.068962-.66065-1.196302-1.982422-3.398437-1.982422zm0 16.269531v4.929688 4.927734l-2.18164.615235c-5.13336 1.44524-6.364302 1.420811-7.388672-.142579-1.28899-1.96724-1.806188-5.438571-.960938-6.457031.67259-.81043 5.889441-2.870343 8.931641-3.527343z" fill="#7f7f7f" transform="translate(0 172)"/>
  </g>
</svg>
