<svg enable-background="new" height="128" viewBox="0 0 128 128" width="128" xmlns="http://www.w3.org/2000/svg" xmlns:xlink="http://www.w3.org/1999/xlink">
  <linearGradient id="linearGradient1444-2-3-3" gradientUnits="userSpaceOnUse" x1="135.99999" x2="247.99999" y1="246.000027" y2="246.000027">
    <stop offset="0" stop-color="#3d3846"/>
    <stop offset=".036" stop-color="#7a7a7a"/>
    <stop offset=".071" stop-color="#282828"/>
    <stop offset=".929" stop-color="#282828"/>
    <stop offset=".964" stop-color="#7a7a7a"/>
    <stop offset="1" stop-color="#3d3846"/>
  </linearGradient>
  <linearGradient id="linearGradient883" gradientUnits="userSpaceOnUse" x1="191.73653" x2="191.61676" y1="171.87425" y2="249.58682">
    <stop offset="0" stop-color="#53eaca"/>
    <stop offset="1" stop-color="#5ac9f8"/>
  </linearGradient>
  <g transform="translate(-128 -140)">
    <rect fill="#3d3846" height="88" rx="8" width="112" x="136" y="168"/>
    <rect fill="url(#linearGradient883)" height="78" rx="4" width="104" x="140" y="172"/>
    <g fill="#3d3846" opacity=".2" stroke-width=".233769" transform="translate(3.98164 3.639235)">
      <path d="m152.52048 180.15765c-1.03286 0-1.87015.8373-1.87015 1.87015.0491 18.84457-.13197 56.53608-.13197 56.53608h75l-.0621-56.53608c0-1.03285-.8373-1.87015-1.87015-1.87015h-20.68485-30.07352z"/>
      <path d="m151.02625 180.15765 37.02708 29.92241 37.403-29.92241-37.403 31.79255z" opacity=".1"/>
      <path d="m152.52048 180.15765c-.39978 0-.76945.12649-1.07342.34015l36.60627 29.58226 36.79119-29.43295c-.33239-.30316-.77302-.48946-1.25834-.48946h-20.68488-30.07353z"/>
      <path d="m188.05333 202.59945c-3.43081 0-6.86166 1.22538-9.49046 3.67638l-28.04451 25.38288v6.90517h75l-.035-6.90517-27.93958-25.38288c-2.62883-2.451-6.05967-3.67638-9.49049-3.67638z"/>
      <path d="m152.52048 180.15765c-.78342 0-1.45344.48227-1.73181 1.16564l28.41615 28.77411c4.90199 4.96379 12.79503 4.96379 17.69702 0l28.41615-28.77411c-.27837-.68337-.94839-1.16564-1.73181-1.16564h-20.68488-30.07353z" opacity=".05"/>
      <path d="m152.52048 180.15765c-.40447 0-.77797.12964-1.08392.34792l27.76826 27.76826c4.90199 4.90198 12.79503 4.90198 17.69702 0l27.76826-27.76826c-.30595-.21828-.67945-.34792-1.08392-.34792h-20.68488-30.07353z"/>
    </g>
    <path d="m135.99999 246v4c0 4.432 3.568 8 8 8h96c4.432 0 8-3.568 8-8v-4c0 4.432-3.568 8-8 8h-96c-4.432 0-8-3.568-8-8z" fill="url(#linearGradient1444-2-3-3)"/>
    <g stroke-width=".233769" transform="translate(3.98164 1.639235)">
      <path d="m152.52048 180.15765c-1.03286 0-1.87015.8373-1.87015 1.87015.0491 18.84457-.13197 56.53608-.13197 56.53608h75l-.0621-56.53608c0-1.03285-.8373-1.87015-1.87015-1.87015h-20.68485-30.07352z" fill="#eef0f1"/>
      <path d="m151.02625 180.15765 37.02708 29.92241 37.403-29.92241-37.403 31.79255z" opacity=".1"/>
      <path d="m152.52048 180.15765c-.39978 0-.76945.12649-1.07342.34015l36.60627 29.58226 36.79119-29.43295c-.33239-.30316-.77302-.48946-1.25834-.48946h-20.68488-30.07353z" fill="#f7f8f9"/>
      <path d="m188.05333 202.59945c-3.43081 0-6.86166 1.22538-9.49046 3.67638l-28.04451 25.38288v6.90517h75l-.035-6.90517-27.93958-25.38288c-2.62883-2.451-6.05967-3.67638-9.49049-3.67638z" fill="#eaeced"/>
      <path d="m152.52048 180.15765c-.78342 0-1.45344.48227-1.73181 1.16564l28.41615 28.77411c4.90199 4.96379 12.79503 4.96379 17.69702 0l28.41615-28.77411c-.27837-.68337-.94839-1.16564-1.73181-1.16564h-20.68488-30.07353z" opacity=".05"/>
      <path d="m152.52048 180.15765c-.40447 0-.77797.12964-1.08392.34792l27.76826 27.76826c4.90199 4.90198 12.79503 4.90198 17.69702 0l27.76826-27.76826c-.30595-.21828-.67945-.34792-1.08392-.34792h-20.68488-30.07353z" fill="#f5f5f5"/>
    </g>
  </g>
</svg>
