<svg enable-background="new" height="128" viewBox="0 0 128 128" width="128" xmlns="http://www.w3.org/2000/svg">
  <g enable-background="new" fill="#3584e4" transform="matrix(2.8346457 0 0 2.8346457 -28.180629 -686.42085)">
    <path d="m39.00611 248.54356-28.182666 28.18268h11.124736l12.608035-12.60804v12.60804l11.866385-11.8664v11.8664l6.664993-6.80983.0098-21.37285-14.091333 14.09133z" fill="#3584e4" fill-rule="evenodd"/>
    <path d="m39.00611 248.54356-28.182666 28.18268h11.124736l12.608035-12.60804v12.60804l11.866385-11.8664v11.8664l6.734177-6.73419-.05934-21.44849-14.091333 14.09133z" fill="#3587e1"/>
    <path d="m69.773438 58.259766-35.738282 35.740234h-27.535156l-4 4h31.535156l35.738282-35.740234zm33.636722 2.103515-33.636722 33.636719v4l33.636722-33.636719zm19.07812 14.558594-19.07812 19.078125v4l19.08984-19.089844z" fill="#000" opacity=".2" transform="matrix(.35277777 0 0 .35277777 9.9415 242.15402)"/>
  </g>
</svg>
