<svg fill="none" height="129" viewBox="0 0 128 129" width="128" xmlns="http://www.w3.org/2000/svg">
  <path clip-rule="evenodd" d="m119 73.9579h-96v-2h96z" fill="#5e5c64" fill-rule="evenodd"/>
  <path clip-rule="evenodd" d="m119 32h-96v-2h96z" fill="#5e5c64" fill-rule="evenodd"/>
  <path d="m45.7368 95.2111c-12.6315 0-22.7368-19.8379-22.7368-19.8379v30.3768h22.7368 25.2632 22.7368 25.2632v-25.4173s-12.632 17.9781-25.2632 17.9781c-12.6315 0-12.6315-11.7788-22.7368-11.7788-12.6316 0-12.6316 8.6791-25.2632 8.6791z" fill="#c061cb"/>
  <path d="m45.7368 90.8716c-12.6315 0-22.7368-44.0155-22.7368-44.0155v28.5171s10.1053 19.8379 22.7368 19.8379c12.6316 0 12.6316-8.6791 25.2632-8.6791 10.1053 0 10.1053 11.7788 22.7368 11.7788 12.6312 0 25.2632-17.9781 25.2632-17.9781v-17.9782s-12.632 19.218-25.2632 19.218c-12.6315 0-12.6315-8.6791-22.7368-8.6791-12.6316 0-12.6316 17.9782-25.2632 17.9782z" fill="#3584e4"/>
  <g fill="#5e5c64">
    <path d="m14.5 9.5h8.5v103.75h-8.5z"/>
    <path d="m119 104.75h8.5v104.5h-8.5z" transform="matrix(0 1 -1 0 223.75 -14.25)"/>
    <path d="m23 16.25h8.5v13.75h-8.5z" transform="matrix(0 1 -1 0 39.25 -6.75)"/>
    <path d="m23 30.5h8.5v13.75h-8.5z" transform="matrix(0 1 -1 0 53.5 7.5)"/>
    <path d="m23 44.75h8.5v13.75h-8.5z" transform="matrix(0 1 -1 0 67.75 21.75)"/>
    <path d="m23 59h8.5v13.75h-8.5z" transform="matrix(0 1 -1 0 82 36)"/>
    <path d="m23 73.25h8.5v13.75h-8.5z" transform="matrix(0 1 -1 0 96.25 50.25)"/>
    <path d="m23 87.5h8.5v13.75h-8.5z" transform="matrix(0 1 -1 0 110.5 64.5)"/>
    <path d="m27.125 105.75h8.5v13.75h-8.5z"/>
    <path d="m41.625 105.75h8.5v13.75h-8.5z"/>
    <path d="m56.125 105.75h8.5v13.75h-8.5z"/>
    <path d="m70.625 105.75h8.5v13.75h-8.5z"/>
    <path d="m85.125 105.75h8.5v13.75h-8.5z"/>
    <path d="m99.625 105.75h8.5v13.75h-8.5z"/>
  </g>
</svg>
