<svg fill="none" height="129" viewBox="0 0 128 129" width="128" xmlns="http://www.w3.org/2000/svg" xmlns:xlink="http://www.w3.org/1999/xlink">
  <linearGradient id="paint0_linear" gradientUnits="userSpaceOnUse" x1="12" x2="116" y1="64.5" y2="64.5">
    <stop offset="0" stop-color="#a51d2d"/>
    <stop offset=".05" stop-color="#f66151"/>
    <stop offset=".1" stop-color="#e01b24"/>
    <stop offset=".9" stop-color="#e01b24"/>
    <stop offset=".95" stop-color="#f66151"/>
    <stop offset="1" stop-color="#a51d2d"/>
  </linearGradient>
  <path d="m108 22.5h-88c-4.4183 0-8 3.5817-8 8v78c0 4.418 3.5817 8 8 8h88c4.418 0 8-3.582 8-8v-78c0-4.4183-3.582-8-8-8z" fill="url(#paint0_linear)"/>
  <path d="m108 12.5h-88c-4.4183 0-8 3.5817-8 8v80c0 4.418 3.5817 8 8 8h88c4.418 0 8-3.582 8-8v-80c0-4.4183-3.582-8-8-8z" fill="#deddda"/>
  <g clip-rule="evenodd" fill-rule="evenodd">
    <path d="m65.0194 23-8.3146 13.0214 7.4647 10.5494 8.3145-10.3848z" fill="#a51d2d"/>
    <path d="m72.484 36.186-8.3145 10.3848 14.2538-5.7699 9.1619-10.3846z" fill="#ed333b"/>
    <path d="m78.4233 40.8009-.1722 15.4959 7.978-10.3846 1.3559-15.4959z" fill="#c01c28"/>
    <path d="m86.2293 45.9122-7.9755 10.3846 12.387 4.4501 10.5182-12.0335z" fill="#a51d2d"/>
    <path d="m90.6408 60.7469-12.3895-4.4501 8.9949 11.3749 14.2538 5.6027z" fill="#ed333b"/>
    <path d="m87.2463 67.6693-14.2538 3.7917 13.065 3.627 15.4425-1.8136z" fill="#c01c28"/>
    <path d="m86.0574 75.088-13.0649-3.627-.8475 12.0334 14.2538 7.4186z" fill="#a51d2d"/>
    <path d="m64.339 83.6591-.1695 14.3409 7.9755-14.5056.8474-12.0334z" fill="#ed333b"/>
    <path d="m56.7025 36.0214-14.9294-6.099 8.6535 11.2078 13.7429 5.4406z" fill="#ed333b"/>
    <path d="m50.4266 41.1302-8.6559-11.2078 1.6972 16.1543 7.4672 9.2298z" fill="#c01c28"/>
    <path d="m43.468 46.0767-15.1012 2.6367 11.0287 11.0434 11.5396-4.4503z" fill="#a51d2d"/>
    <path d="m39.3955 59.7568-12.8955 11.8688 14.9317-4.6149 9.5034-11.7042z" fill="#ed333b"/>
    <path d="m41.4317 67.0107-14.9317 4.6149 17.1399 2.6367 12.3845-2.472z" fill="#c01c28"/>
    <path d="m56.0245 71.7903-12.387 2.4744-2.7142 16.8129 15.2707-7.7478-.1694-11.5395" fill="#a51d2d"/>
    <path d="m56.0244 71.7903.1695 11.5395 7.9756 14.6702.1695-14.3409-8.3145-11.8688" fill="#c01c28"/>
    <path d="m64.339 60.5823 13.9124-4.2855.1721-15.4959-14.2538 5.7699.1696 14.0115" fill="#f66151"/>
    <path d="m78.2513 56.2968-13.9124 4.2856 8.6535 10.8786 14.2538-3.7917z" fill="#f66151"/>
    <path d="m64.3389 60.5824-8.3145 11.2079 8.3145 11.8688 8.6535-12.1981z" fill="#f66151"/>
    <path d="m41.4318 67.0107 14.5927 4.7796 8.3145-11.208-13.4039-5.2758z" fill="#f66151"/>
    <path d="m64.339 60.5823-.1696-14.0115-13.7453-5.4406.5109 14.1763z" fill="#f66151"/>
  </g>
</svg>
