<svg enable-background="new" height="128" viewBox="0 0 128 128" width="128" xmlns="http://www.w3.org/2000/svg" xmlns:xlink="http://www.w3.org/1999/xlink"><linearGradient id="a" gradientTransform="matrix(-.24999998 0 0 .24999998 145.99999 125.00905)" gradientUnits="userSpaceOnUse" x1="231.99998" x2="583.64319" y1="619.96387" y2="619.96387"><stop offset="0" stop-color="#3f5058"/><stop offset=".04550065" stop-color="#9facb2"/><stop offset=".09100132" stop-color="#8a9ea8"/><stop offset=".91001338" stop-color="#90a4ae"/><stop offset=".95551407" stop-color="#b6c2c8"/><stop offset="1" stop-color="#43545c"/></linearGradient><g enable-background="new" transform="translate(20 -172.000001)"><rect fill="#b4c1c7" height="87.999786" rx="8" ry="8.799982" transform="rotate(90)" width="111.91078" x="180" y="-88"/><path d="m87.99998 280.00001.00001 4.00001c.00001 4.43197-3.56799 7.99999-8 7.99999l-71.999997.00001c-4.431989 0-7.999992-3.56801-7.999995-8.00001l-.000003-3.99997c.000008 4.43197 3.568009 7.99996 8.000005 7.99996l72.00001.00003c4.43199 0 7.99999-3.56802 7.99997-8.00002z" fill="url(#a)"/><rect fill="#fafafa" height="102" rx="5" width="80" x="4.000107" y="182.95538"/><rect fill="#c9d3d7" height="10" rx="1" width="60" x="10" y="210"/><rect fill="#39f1c4" height="10" rx="1.166667" ry="1" width="70" x="10" y="230"/><rect fill="#a97dff" height="10" opacity=".7" rx=".666667" ry="1" width="40" x="10" y="250"/><rect fill="#ff5c93" height="10" rx=".416667" ry="1" width="25" x="10" y="270"/><rect fill="#a97dff" height="10" rx=".666667" ry="1" width="40" x="10" y="250"/><path d="m15 195v75h15v-55l25 55h20v-75h-15v55l-25-55z" fill="#90a4ae"/><path d="m14 194v1 76h17v-51.38281l23.355469 51.38281h21.644531v-77h-17v51.38281l-23.355469-51.38281zm2 2h18.355469l24.734375 54.41406 1.910156-.41406v-54h13v73h-18.355469l-24.734375-54.41406-1.910156.41406v54h-13z" fill="#43545d"/></g></svg>