<svg enable-background="new" height="128" viewBox="0 0 128 128" width="128" xmlns="http://www.w3.org/2000/svg" xmlns:xlink="http://www.w3.org/1999/xlink">
  <linearGradient id="linearGradient1159" gradientUnits="userSpaceOnUse" x1="-107.99999" x2="-19.99999" y1="-276" y2="-276">
    <stop offset="0" stop-color="#c0bfbc"/>
    <stop offset=".045" stop-color="#fff"/>
    <stop offset=".091" stop-color="#deddda"/>
    <stop offset=".909" stop-color="#deddda"/>
    <stop offset=".955" stop-color="#fff"/>
    <stop offset="1" stop-color="#c0bfbc"/>
  </linearGradient>
  <linearGradient id="linearGradient1103" gradientTransform="matrix(.07621224 -.44419723 .44419725 -.07621223 77.725794 331.83807)" gradientUnits="userSpaceOnUse" x1="128.817" x2="158.518" y1="-97.698" y2="-127.399">
    <stop offset="0" stop-color="#d0bb8e"/>
    <stop offset="1" stop-color="#fff"/>
  </linearGradient>
  <clipPath id="clipPath1062">
    <rect height="108" rx="8" transform="scale(-1)" width="88" x="-108" y="-116"/>
  </clipPath>
  <g transform="translate(0 -172)">
    <g transform="scale(-1)">
      <rect fill="#1a5fb4" height="30.25" rx="8" width="88" x="-108" y="-294"/>
      <rect fill="url(#linearGradient1159)" height="40" rx="8" width="88" x="-108" y="-292"/>
      <rect fill="#f6f5f4" height="108" rx="8" width="88" x="-108" y="-288"/>
    </g>
    <path clip-path="url(#clipPath1062)" d="m100 16-68 68v20h22l68-68-7.86719-5.761719-.0742-.07227-8.22461-8.22461z" opacity=".2" transform="translate(0 172)"/>
    <rect fill="#4d4d4d" height="8.278" opacity=".1" rx=".857" ry=".859" width="62.084" x="23.76" y="249.02"/>
    <path d="m30.583986 246c-1.422973 0-2.583984 1.16101-2.583984 2.58398v8.83204c-.0019 1.42137 1.162609 2.58588 2.583984 2.58398h1.082031l-.666016 2h2l.666016-2h3.167969l.666016 2h2l-.666016-2h.582032c1.422024.002 2.586952-1.16368 2.583984-2.58594v-5.49609-.50391h-1.005859v.50391 5.49805a.50281277.50281277 0 0 0 0 .002c.0018.87799-.698174 1.578-1.576172 1.57617a.50281277.50281277 0 0 0 -.002 0h-8.831985a.50281277.50281277 0 0 0 -.0019 0c-.877998.002-1.578004-.69818-1.576172-1.57617a.50281277.50281277 0 0 0 0-.002v-8.83204c0-.88354.69458-1.57812 1.578125-1.57812h5.498044.503906v-1.00586h-.503906zm10.310547.5332a1.761 1.761 0 0 0 -1.201172.4336l-4.359375 4.35937a2.968 2.968 0 0 0 -1.333985-.32617 3 3 0 0 0 -3 3v3h3a3 3 0 0 0 3.000001-3c0-.571-.168313-1.09969-.445313-1.55469l5.445313-5.44531a1.627 1.627 0 0 0 -1.105469-.4668z" fill="#4d4d4d"/>
    <path d="m32 276v-20l20 20z" fill="url(#linearGradient1103)"/>
    <path d="m31.999996 276 .000004-8 8 8z" fill="#424048"/>
    <rect fill="#005aff" height="8.278" opacity=".25" rx=".857" ry=".859" width="62.084" x="23.76" y="209.02"/>
    <rect fill="#4d4d4d" height="8.278" opacity=".1" rx=".857" ry=".859" width="62.084" x="23.76" y="229.02"/>
    <path d="m50 274-16-16 67.94696-67.94695 16 16z" fill="#f6d32d"/>
    <path d="m37.887772 261.88776-5.887772-5.88776 68.00001-67.99999 5.83472 5.9408z" fill="#f9f06b"/>
    <path d="m46.112246 270.11223 5.887754 5.88777 68-68-5.9408-5.83472z" fill="#e5a50a"/>
    <g fill="#4d4d4d" transform="translate(28 206)">
      <path d="m7.467 0h1.066c.591 0 1.067.476 1.067 1.067v1.066c0 .591-.476 1.067-1.067 1.067h-1.066c-.591 0-1.067-.476-1.067-1.067v-1.066c0-.591.476-1.067 1.067-1.067zm0 12.8h1.066c.591 0 1.067.476 1.067 1.067v1.066c0 .591-.476 1.067-1.067 1.067h-1.066c-.591 0-1.067-.476-1.067-1.067v-1.066c0-.591.476-1.067 1.067-1.067zm-5.501-10.08.754-.754a1.064 1.064 0 0 1 1.509 0l.754.754c.418.418.418 1.09 0 1.509l-.754.754a1.064 1.064 0 0 1 -1.509 0l-.754-.754a1.064 1.064 0 0 1 0-1.509zm9.051 9.051.754-.754a1.064 1.064 0 0 1 1.509 0l.754.754c.418.418.418 1.09 0 1.509l-.754.754a1.064 1.064 0 0 1 -1.509 0l-.754-.754a1.064 1.064 0 0 1 0-1.509zm-11.017-3.238v-1.066c0-.591.476-1.067 1.067-1.067h1.066c.591 0 1.067.476 1.067 1.067v1.066c0 .591-.476 1.067-1.067 1.067h-1.066c-.591 0-1.067-.476-1.067-1.067zm12.8 0v-1.066c0-.591.476-1.067 1.067-1.067h1.066c.591 0 1.067.476 1.067 1.067v1.066c0 .591-.476 1.067-1.067 1.067h-1.066c-.591 0-1.067-.476-1.067-1.067zm-10.08 5.501-.754-.754a1.064 1.064 0 0 1 0-1.509l.754-.754a1.064 1.064 0 0 1 1.509 0l.754.754c.418.418.418 1.09 0 1.509l-.754.754a1.064 1.064 0 0 1 -1.509 0zm9.051-9.051-.754-.754a1.064 1.064 0 0 1 0-1.509l.754-.754a1.064 1.064 0 0 1 1.509 0l.754.754c.418.418.418 1.09 0 1.509l-.754.754a1.064 1.064 0 0 1 -1.509 0z"/>
      <path d="m8 1.5c-3.572 0-6.5 2.928-6.5 6.5s2.928 6.5 6.5 6.5 6.5-2.928 6.5-6.5-2.928-6.5-6.5-6.5zm0 3c1.95 0 3.5 1.55 3.5 3.5s-1.55 3.5-3.5 3.5-3.5-1.55-3.5-3.5 1.55-3.5 3.5-3.5z"/>
    </g>
    <g fill="#474747" transform="translate(28 226)">
      <path d="m8 0c-4.415 0-8 3.585-8 8s3.585 8 8 8 8-3.585 8-8-3.585-8-8-8zm0 2c3.341 0 6 2.659 6 6s-2.659 6-6 6-6-2.659-6-6 2.659-6 6-6z"/>
      <path d="m7.338 5a2.344 2.344 0 0 0 -2.338 2.338v1.324a2.344 2.344 0 0 0 2.338 2.338h1.324a2.344 2.344 0 0 0 2.338-2.338v-1.324a2.344 2.344 0 0 0 -2.338-2.338zm0 1h1.324c.75 0 1.338.588 1.338 1.338v1.324c0 .75-.588 1.338-1.338 1.338h-1.324c-.75 0-1.338-.588-1.338-1.338v-1.324c0-.75.588-1.338 1.338-1.338z"/>
      <path d="m4.719 1.438a5.881 5.881 0 0 0 -3.282 3.312l3.75 1.875c.252-.64.743-1.17 1.375-1.438zm6.562 0-1.844 3.75a2.574 2.574 0 0 1 1.376 1.437l3.75-1.875a5.881 5.881 0 0 0 -3.282-3.313zm-6.094 8-3.75 1.874a5.904 5.904 0 0 0 3.282 3.25l1.875-3.75a2.59 2.59 0 0 1 -1.407-1.374zm5.625 0a2.59 2.59 0 0 1 -1.406 1.374l1.875 3.75a5.904 5.904 0 0 0 3.281-3.25z"/>
    </g>
    <rect fill="#4d4d4d" height="8.278" opacity=".1" rx=".857" ry=".859" width="62.084" x="23.76" y="189.02"/>
    <path d="m505.51367 180.04102c-.11528-.008-.25052.002-.41015.0156l-7.20899 1.125c-.81332.0828-.90176.46246-.89453.93554v9.51953c-.41338-.27155-.85577-.46484-1.44531-.46484-.75911 0-1.21229.29098-1.48633.67383-.27403.38285-.36524.86524-.36524 1.23828 0 .44983.15511.92907.48829 1.29492s.84551.62304 1.58203.62305c.83169 0 1.41537-.23199 1.74609-.68555.26039-.35711.40565-.83534.45703-1.42383.007-.0714.0111-.14515.0156-.2207.004-.0599.003-.1018.004-.17188h.00384v-7.70312c.0221-.61938.58398-.71094.58398-.71094l5.85352-.91406c.56193-.17179.5625.52343.5625.52343v6.94141c-.41338-.27156-.85577-.46484-1.44531-.46485-.75911 0-1.21229.29098-1.48633.67383-.27403.38285-.36524.86525-.36524 1.23828 0 .44983.15511.92907.48829 1.29493.33318.36585.84551.62303 1.58203.62304.83169 0 1.41537-.23198 1.74609-.68554.26039-.35711.40565-.83535.45703-1.42383.007-.0714.0111-.14515.0156-.22071.004-.0599.003-.1018.004-.17187h.00384v-10.56836c.0119-.68564-.14049-.86619-.48633-.89062z" fill="#4d4d4d" transform="translate(-465.70312 6.99807)"/>
  </g>
</svg>
