<svg height="128" width="128" xmlns="http://www.w3.org/2000/svg" xmlns:xlink="http://www.w3.org/1999/xlink"><linearGradient id="a" gradientUnits="userSpaceOnUse" x1="67.25296" x2="66.443222" y1="9.873605" y2="37.025402"><stop offset="0" stop-color="#56962c"/><stop offset="1" stop-color="#b8845b"/></linearGradient><linearGradient id="b" gradientTransform="matrix(1.0015 0 0 .99993 72.09 -115.985)" gradientUnits="userSpaceOnUse" x1="43.844" x2="-60" y1="234" y2="234"><stop offset="0" stop-color="#b8845b"/><stop offset=".038" stop-color="#bd987b"/><stop offset=".077" stop-color="#785439"/><stop offset=".923" stop-color="#785439"/><stop offset=".962" stop-color="#bd987b"/><stop offset="1" stop-color="#b8845b"/></linearGradient><rect fill="url(#b)" height="48" rx="8" width="104" x="12" y="68"/><path d="m20 10c-4.432 0-8 3.568-8 8v42 42c0 4.432 3.568 8 8 8h44 44c4.432 0 8-3.568 8-8v-42-42c0-4.432-3.568-8-8-8z" fill="url(#a)"/><path d="m141.84323 74c-70.59344 0-78.18921 7.250835-77.84323 77.98706v146.01294 146.01294c-.34598 70.73623 7.24979 77.98706 77.84323 77.98706h292.31354c70.59344 0 79.78033-7.27652 77.84323-77.98706v-146.01294-146.01294c0-70.737067-7.24979-77.98706-77.84323-77.98706z" fill="none" opacity=".3" transform="matrix(.222221325 0 0 .222221325 -1.23769363541 -.98492963027)" visibility="hidden"/><g transform="matrix(7.75284514221 0 0 8.08318514179 307.95650154354 -2033.11355376672)"><path d="m-74.785156 103.51758h8.740234v-8.841799h-8.740234z" fill="#b8845b" stroke-width="8.436706" transform="matrix(.12898491 0 0 .12371361 -20.73098 252.32022)"/><path d="m-109.73633 103.51758h8.74219v-8.841799h-8.74219z" fill="#785439" stroke-width="8.436706" transform="matrix(.12898491 0 0 .12371361 -20.73098 252.32022)"/><path d="m-135.01172 94.699219v.818359c0 1.108.2232 2.161391.62695 3.119141s.98794 1.819971 1.71094 2.542971 1.58522 1.30718 2.54297 1.71093c.88995.37517 1.87618.55289 2.89844.58204v-8.773441z" fill="#785439" stroke-width=".488296" transform="matrix(.12898491 0 0 .12371361 -20.73098 252.32022)"/><path d="m-127.25195 103.46875c.0847.003.15486.0488.24023.0488h8.5v-8.841799h-8.74023z" fill="#956b49" stroke-width="8.436706" transform="matrix(.12898491 0 0 .12371361 -20.73098 252.32022)"/><path d="m-26.988189 256.14435h-1.127553v1.12755h1.127553z" fill="#956b49" stroke-width="1.06574"/><path d="m-36.015001 256.14435h1.127552v1.12755h-1.127552z" fill="#583c28" stroke-width="1.06574"/><path d="m-31.506924 256.14435h-1.127553v1.12755h1.127553z" fill="#b8845b" stroke-width="1.06574"/><path d="m-32.62595 256.14435h-1.127552v1.12755h1.127552z" fill="#785439" stroke-width="1.06574"/><path d="m-31.506924 255.01466h-1.127553v1.12756h1.127553z" fill="#956b49" stroke-width="1.06574"/><path d="m-135.01172 21.779297v9.115234h7.74219v-9.115234z" fill="#583c28" stroke-width="8.436706" transform="matrix(.12898491 0 0 .12371361 -20.73098 252.32022)"/><path d="m-33.755635 255.01466h1.127553v1.12756h-1.127553z" fill="#785439" stroke-width="1.06574"/><path d="m-32.62595 253.88499h-1.127552v1.12755h1.127552z" fill="#583c28" stroke-width="1.06574"/><path d="m-32.62595 253.88499h1.127552v1.12755h-1.127552z" fill="#9bca6b" stroke-width="1.06574"/><path d="m-127.23242 3.5625c-1.02226.029142-2.00849.2068637-2.89844.5820312-.95775.40375-1.81997.9879376-2.54297 1.7109376-.723.7229999-1.30719 1.5832658-1.71094 2.5410156s-.62695 2.0130936-.62695 3.1210936v1.126953h7.7793z" fill="#56962c" stroke-width=".488296" transform="matrix(.12898491 0 0 .12371361 -20.73098 252.32022)"/><path d="m-37.144687 252.75531h1.127552v1.12755h-1.127552z" fill="#60a036" stroke-width="1.06574"/><path d="m-36.015001 252.75531h1.127552v1.12755h-1.127552z" fill="#72b248" stroke-width="1.06574"/><path d="m-28.117872 253.88499h-1.127552v1.12755h1.127552z" fill="#72b248" stroke-width="1.06574"/><path d="m-37.144687 253.88499h1.127552v1.12755h-1.127552z" fill="#72b248" stroke-width="1.06574"/><path d="m-29.247558 255.01466h1.127552v1.12756h-1.127552z" fill="#56962c" stroke-width="1.06574"/><path d="m-135.01172 12.648438v9.113281h7.74219v-9.113281z" fill="#60a036" stroke-width="8.436706" transform="matrix(.12898491 0 0 .12371361 -20.73098 252.32022)"/><path d="m-30.377241 257.2634h-1.127552v1.12755h1.127552z" fill="#b8845b" stroke-width="1.06574"/><path d="m-34.885321 257.2634h1.127553v1.12755h-1.127553z" fill="#785439" stroke-width="1.06574"/><path d="m-135.01172 39.957031v9.113281h7.74219v-9.113281z" fill="#785439" stroke-width="8.436706" transform="matrix(.12898491 0 0 .12371361 -20.73098 252.32022)"/><path d="m-37.144687 257.2634h1.127552v1.12755h-1.127552z" fill="#956b49" stroke-width="1.06574"/><path d="m-30.377241 256.14435h-1.127552v1.12755h1.127552z" fill="#b8845b" stroke-width="1.06574"/><path d="m-34.885321 256.14435h1.127553v1.12755h-1.127553z" fill="#785439" stroke-width="1.06574"/><path d="m-135.01172 30.910156v9.115235h7.74219v-9.115235z" fill="#785439" stroke-width="8.436706" transform="matrix(.12898491 0 0 .12371361 -20.73098 252.32022)"/><path d="m-37.144687 256.14435h1.127552v1.12755h-1.127552z" fill="#583c28" stroke-width="1.06574"/><path d="m-34.885321 255.01466h1.127553v1.12756h-1.127553z" fill="#583c28" stroke-width="1.06574"/><path d="m-30.377241 255.01466h-1.127552v1.12756h1.127552z" fill="#6b6b6b" stroke-width="1.06574"/><path d="m-31.506924 253.88499h1.127552v1.12755h-1.127552z" fill="#956b49" stroke-width="1.06574"/><path d="m-33.755635 252.75531h-1.127552v1.12755h1.127552z" fill="#60a036" stroke-width="1.06574"/><path d="m-36.015001 255.01466h-1.127553v1.12756h1.127553z" fill="#56962c" stroke-width="1.06574"/><path d="m-34.885321 253.88499h1.127553v1.12755h-1.127553z" fill="#60a036" stroke-width="1.06574"/><path d="m-100.97852 103.51758h8.742192v-8.771486h-8.742192z" fill="#b8845b" stroke-width="8.436706" transform="matrix(.12898491 0 0 .12371361 -20.73098 252.32022)"/><path d="m-118.47852 103.51758h8.74219v-8.771486h-8.74219z" fill="#785439" stroke-width="8.436706" transform="matrix(.12898491 0 0 .12371361 -20.73098 252.32022)"/><path d="m-57.269531 103.51758h8.742187v-8.771486h-8.742187z" fill="#583c28" stroke-width="8.436706" transform="matrix(.12898491 0 0 .12371361 -20.73098 252.32022)"/><path d="m-33.755635 258.39308h1.127553v-1.12755h-1.127553z" fill="#b8845b" stroke-width="1.06574"/><path d="m-32.62595 258.39308h1.127552v-1.12755h-1.127552z" fill="#785439" stroke-width="1.06574"/><path d="m-34.885321 258.39308h-1.127552v-1.12755h1.127552z" fill="#785439" stroke-width="1.06574"/><path d="m-28.117872 258.39308h1.127552v-1.12755h-1.127552z" fill="#583c28" stroke-width="1.06574"/><path d="m-48.494141 103.51758h8.742188v-8.841799h-8.742188z" fill="#b8845b" stroke-width="8.436706" transform="matrix(.12898491 0 0 .12371361 -20.73098 252.32022)"/><path d="m-66.011719 103.51758h8.742188v-8.841799h-8.742188z" fill="#785439" stroke-width="8.436706" transform="matrix(.12898491 0 0 .12371361 -20.73098 252.32022)"/><path d="m-92.220703 103.51758h8.742187v-8.841799h-8.742187z" fill="#956b49" stroke-width="8.436706" transform="matrix(.12898491 0 0 .12371361 -20.73098 252.32022)"/><path d="m-29.247558 256.14435h-1.127552v1.12755h1.127552z" fill="#956b49" stroke-width="1.06574"/><path d="m-25.858505 256.14435h1.127552v1.12755h-1.127552z" fill="#583c28" stroke-width="1.06574"/><path d="m-30.377241 255.01466h1.127553v1.12756h-1.127553z" fill="#9bca6b" stroke-width="1.06574"/><path d="m-24.739478 255.01466h-1.127552v1.12756h1.127552z" fill="#785439" stroke-width="1.06574"/><path d="m-25.858505 253.88499h1.127552v1.12755h-1.127552z" fill="#583c28" stroke-width="1.06574"/><path d="m-32.62595 252.75531h1.127552v1.12755h-1.127552z" fill="#72b248" stroke-width="1.06574"/><path d="m-31.506924 252.75531h1.127552v1.12755h-1.127552z" fill="#56962c" stroke-width="1.06574"/><path d="m-30.377241 252.75531h1.127553v1.12755h-1.127553z" fill="#60a036" stroke-width="1.06574"/><path d="m-31.042969 11.361328c-.02111-1.047304-.212162-2.0550331-.595703-2.9648436-.40375-.9577498-.987937-1.8180157-1.710937-2.5410156-.723-.723-1.583266-1.3071876-2.541016-1.7109376-.942769-.3974345-1.98327-.6103305-3.072266-.6171874h-.826171v9.1171872h8.746093z" fill="#56962c" stroke-width=".488296" transform="matrix(.12898491 0 0 .12371361 -20.73098 252.32022)"/><path d="m-29.247558 253.88499h-1.127552v1.12755h1.127552z" fill="#72b248" stroke-width="1.06574"/><g transform="matrix(-1.0657395 0 0 1.0657395 2.138471 -17.708058)"><path d="m26.27 258.01001h1.058v1.058h-1.058z" fill="#b8845b"/><path d="m28.389999 258.01001h1.058v1.058h-1.058z" fill="#785439"/><path d="m26.27 256.95999h1.058v1.058h-1.058z" fill="#b8845b"/><path d="m28.389999 256.95999h1.058v1.058h-1.058z" fill="#785439"/><path d="m34.740002 255.89999h1.058v1.058h-1.058z" fill="#583c28"/><path d="m27.33 255.89999h1.058v1.058h-1.058z" fill="#b8845b"/><path d="m26.27 253.78h1.058v1.058h-1.058z" fill="#60a036"/><path d="m27.33 253.78h1.058v1.058h-1.058z" fill="#72b248"/><path d="m28.389999 253.78h1.058v1.058h-1.058z" fill="#72b248"/><path d="m32.619999 253.78h1.058v1.058h-1.058z" fill="#56962c"/></g><path d="m-26.988189 253.88499h1.127552v1.12755h-1.127552z" fill="#72b248" stroke-width="1.06574"/><path d="m-28.117872 253.88499h1.127552v1.12755h-1.127552z" fill="#56962c" stroke-width="1.06574"/><path d="m-26.988189 255.01466h1.127552v1.12756h-1.127552z" fill="#56962c" stroke-width="1.06574"/><path d="m-34.885321 253.88499h-1.127552v1.12755h1.127552z" fill="#60a036" stroke-width="1.06574"/><path d="m-39.787109 103.51758h.77539c1.108 0 2.163344-.2232 3.121094-.62696.95775-.40375 1.818016-.98793 2.541016-1.71093s1.307187-1.585221 1.710937-2.542971c.383529-.909782.574585-1.915623.595703-2.962891v-.976562h-8.74414z" fill="#785439" stroke-width=".488296" transform="matrix(.12898491 0 0 .12371361 -20.73098 252.32022)"/><path d="m-83.527344 103.51758h.515625 8.226563v-8.771486h-8.742188z" fill="#583c28" stroke-width="8.436706" transform="matrix(.12898491 0 0 .12371361 -20.73098 252.32022)"/><path d="m-24.739478 258.39308h-1.127552v-1.12755h1.127552z" fill="#785439" stroke-width="1.06574"/><path d="m-30.377241 258.39308h1.127553v-1.12755h-1.127553z" fill="#583c28" stroke-width="1.06574"/><path d="m-30.377241 261.78212h-1.127552v1.12755h1.127552z" fill="#b8845b" stroke-width="1.06574"/><path d="m-34.885321 261.78212h1.127553v1.12755h-1.127553z" fill="#785439" stroke-width="1.06574"/><path d="m-135.01172 76.482422v9.113281h7.74219v-9.113281z" fill="#785439" stroke-width="8.436706" transform="matrix(.12898491 0 0 .12371361 -20.73098 252.32022)"/><path d="m-37.144687 261.78212h1.127552v1.12755h-1.127552z" fill="#956b49" stroke-width="1.06574"/><path d="m-36.015001 262.9118h1.127552v1.12756h-1.127552z" fill="#583c28" stroke-width="1.06574"/><path d="m-33.755635 262.9118h1.127553v-1.12755h-1.127553z" fill="#b8845b" stroke-width="1.06574"/><path d="m-32.62595 262.9118h1.127552v-1.12755h-1.127552z" fill="#785439" stroke-width="1.06574"/><path d="m-34.885321 262.9118h-1.127552v-1.12755h1.127552z" fill="#785439" stroke-width="1.06574"/><path d="m-33.755635 262.9118h1.127553v1.12756h-1.127553z" fill="#583c28" stroke-width="1.06574"/><path d="m-36.015001 262.9118h-1.127553v1.12756h1.127553z" fill="#b8845b" stroke-width="1.06574"/><path d="m-34.885321 262.9118h1.127553v1.12756h-1.127553z" fill="#6b6b6b" stroke-width="1.06574"/><path d="m-135.01172 85.613281v9.115235h7.74219v-9.115235z" fill="#785439" stroke-width="8.436706" transform="matrix(.12898491 0 0 .12371361 -20.73098 252.32022)"/><path d="m-29.247558 262.9118h-1.127552v1.12756h1.127552z" fill="#583c28" stroke-width="1.06574"/><path d="m-31.506924 262.9118h1.127552v1.12756h-1.127552z" fill="#956b49" stroke-width="1.06574"/><path d="m-30.377241 262.9118h1.127553v-1.12755h-1.127553z" fill="#583c28" stroke-width="1.06574"/><path d="m-31.506924 262.9118h-1.127553v1.12756h1.127553z" fill="#b8845b" stroke-width="1.06574"/><path d="m-25.858505 260.65244h1.127552v1.12755h-1.127552z" fill="#b8845b" stroke-width="1.06574"/><path d="m-30.377241 260.65244h-1.127552v1.12755h1.127552z" fill="#583c28" stroke-width="1.06574"/><path d="m-30.377241 260.65244h1.127553v1.12755h-1.127553z" fill="#785439" stroke-width="1.06574"/><path d="m-25.858505 260.65244h-1.127553v1.12755h1.127553z" fill="#583c28" stroke-width="1.06574"/><path d="m-28.117872 260.65244h1.127552v1.12755h-1.127552z" fill="#956b49" stroke-width="1.06574"/><path d="m-28.117872 260.65244h-1.127552v1.12755h1.127552z" fill="#b8845b" stroke-width="1.06574"/><path d="m-135.01172 67.351562v9.113282h7.74219v-9.113282z" fill="#6b6b6b" stroke-width="8.436706" transform="matrix(.12898491 0 0 .12371361 -20.73098 252.32022)"/><g stroke-width="1.06574"><path d="m-32.62595 260.65244h1.127552v1.12755h-1.127552z" fill="#583c28"/><path d="m-36.015001 260.65244h1.127552v1.12755h-1.127552z" fill="#785439"/><path d="m-37.144687 260.65244h1.127552v1.12755h-1.127552z" fill="#583c28"/><path d="m-33.755635 260.65244h-1.127552v1.12755h1.127552z" fill="#583c28"/><path d="m-32.62595 260.65244h-1.127552v1.12755h1.127552z" fill="#785439"/><path d="m-25.858505 261.78212h-1.127553v1.12755h1.127553z" fill="#b8845b"/><path d="m-29.247558 262.9118h1.127552v-1.12755h-1.127552z" fill="#b8845b"/><path d="m-28.117872 262.9118h1.127552v-1.12755h-1.127552z" fill="#785439"/><path d="m-29.247558 262.9118h1.127552v1.12756h-1.127552z" fill="#583c28"/><path d="m-24.739478 262.9118h-1.127552v1.12756h1.127552z" fill="#583c28"/><path d="m-26.988189 262.9118h1.127552v1.12756h-1.127552z" fill="#956b49"/><path d="m-25.858505 262.9118h1.127552v-1.12755h-1.127552z" fill="#583c28"/><path d="m-26.988189 262.9118h-1.127553v1.12756h1.127553z" fill="#b8845b"/><path d="m-30.377241 259.52275h1.127553v1.12755h-1.127553z" fill="#785439"/><path d="m-33.755635 259.52275h1.127553v1.12755h-1.127553z" fill="#785439"/><path d="m-32.62595 259.52275h1.127552v1.12755h-1.127552z" fill="#956b49"/><path d="m-34.885321 260.65244h1.127553v-1.12756h-1.127553z" fill="#956b49"/><path d="m-29.247558 260.65244h1.127552v-1.12756h-1.127552z" fill="#b8845b"/><path d="m-28.117872 260.65244h1.127552v-1.12756h-1.127552z" fill="#785439"/><path d="m-30.377241 260.65244h-1.127552v-1.12756h1.127552z" fill="#785439"/><path d="m-34.885321 258.39308h1.127553v1.12755h-1.127553z" fill="#583c28"/><path d="m-33.755635 258.39308h1.127553v1.12755h-1.127553z" fill="#6b6b6b"/><path d="m-28.117872 258.39308h1.127552v1.12755h-1.127552z" fill="#583c28"/><path d="m-31.506924 258.39308h1.127552v1.12755h-1.127552z" fill="#785439"/><path d="m-32.62595 258.39308h1.127552v1.12755h-1.127552z" fill="#583c28"/><path d="m-29.247558 258.39308h-1.127552v1.12755h1.127552z" fill="#583c28"/><path d="m-28.117872 258.39308h-1.127552v1.12755h1.127552z" fill="#785439"/><path d="m-25.858505 260.65244h-1.127553v-1.12756h1.127553z" fill="#b8845b"/><path d="m-24.739478 259.52275h-1.127552v1.12755h1.127552z" fill="#785439"/><path d="m-24.739478 258.39308h-1.127552v1.12755h1.127552z" fill="#583c28"/><path d="m-26.988189 258.39308h1.127552v1.12755h-1.127552z" fill="#956b49"/></g><path d="m-135.01172 49.087891v4.429687 4.685547h7.75977v-9.115234z" fill="#b8845b" stroke-width="8.436706" transform="matrix(.12898491 0 0 .12371361 -20.73098 252.32022)"/><path d="m-34.885321 259.52275h-1.127552v-1.12755h1.127552z" fill="#6b6b6b" stroke-width="1.06574"/><path d="m-36.015001 259.52275h-1.127553v-1.12755h1.127553z" fill="#785439" stroke-width="1.06574"/><path d="m-36.015001 260.65244h1.127552v-1.12756h-1.127552z" fill="#b8845b" stroke-width="1.06574"/><path d="m-36.015001 260.65244h-1.127553v-1.12756h1.127553z" fill="#583c28" stroke-width="1.06574"/><path d="m-135.01172 58.236328v9.115234h7.74219v-9.115234z" fill="#956b49" stroke-width="8.436706" transform="matrix(.12898491 0 0 .12371361 -20.73098 252.32022)"/></g></svg>