<svg enable-background="new" height="128" viewBox="0 0 128 128" width="128" xmlns="http://www.w3.org/2000/svg">
  <g transform="translate(0 -172)">
    <path d="m20 188c-4.432 0-8 3.568-8 8v84c0 4.432 3.568001 8 8 8h39.957032 4.042968 43.29492c6.07629 0 8.66602-4.51575 8.66602-10.125v-39.875h-51.96094v-50z" fill="#383838"/>
    <path d="m20 184c-4.432 0-8 3.568-8 8v84c0 4.432 3.568001 8 8 8h40 4 44.00196c4.432 0 8-3.568 8-8v-84c0-4.432-3.568-8-8-8h-44.00196-4z" fill="#5e5e5e"/>
    <path d="m38.375979 201c-5.170645 0-9.375 4.20435-9.375 9.375v51.25c0 5.17065 4.204355 9.375 9.375 9.375h51.25c5.170641 0 9.375002-4.20435 9.375002-9.375v-51.25c0-5.17065-4.204362-9.375-9.375002-9.375zm55.625 5v60l-54.062821-.249s3.3011-4.88145 3.3011-4.8976c0-.312 10.43419-12.8601 10.654295-12.8125.12575.03 4.797565 2.0102 10.371095 4.4043 9.518915 4.0888 10.143005 4.32925 10.40039 3.98435.38925-.5216 1.732235-3.33135 2.44141-5.1074l.60547-1.5039-1.01563-.55665c-1.43644-.78555-3.544-2.5305-4.86328-4.0332-1.203885-1.3712-3.378905-4.68335-3.378905-5.14645 0-.153.68988.5476 1.5332 1.5527 2.368775 2.8233 7.831025 7.24005 8.17383 6.61135.4068-.7461.66733-2.946.6543-5.49805-.016-3.1156-.4217-5.5388-1.494145-8.8867l-.605465-1.8848-2.968755-.9277c-1.63412-.5137-3.2745-1.0269-3.642575-1.1426-1.28365-.4035-.47305-.39 1.40625.03 2.246985.50175 4.524195.92565 5.9375 1.1035 1.244385.1565 1.517325-.08 1.65039-1.46485.1697-1.7657-.969565-6.6443-2.11914-9.07225-.4588-.969-.663455-1.181-1.58203-1.60155-3.057755-1.3999-12.62512-2.7094-16.689455-2.28515-1.75693.1835-3.568385.61125-4.13086.97655-.15855.103.97884.393 2.929685.75195 1.75135.322 3.02352.6169 2.832035.6543-.1915.035-2.9412-.267-6.113285-.67385-5.568835-.71455-5.784-.7221-6.171875-.371-.8087.7319-1.967485 2.72845-2.20703 3.79885-.23195 1.03635-.21325 1.16215.30275 2.2168.879495 1.7976 2.509055 3.09825 6.23047 4.98045 1.759735.89005 3.15762 1.6666 3.10547 1.71875-.05215.052-1.55654-.5125-3.339845-1.25l-3.24219-1.33785-4.755855 1.3281c-2.61682.7323-9.789255 1.4251-9.89663 1.4251l-.24985-24.834z" fill="#050505" opacity=".1"/>
    <path d="m38.375979 199c-5.170645 0-9.375 4.20435-9.375 9.375v51.25c0 5.17065 4.204355 9.375 9.375 9.375h51.25c5.170641 0 9.375002-4.20435 9.375002-9.375v-51.25c0-5.17065-4.204362-9.375-9.375002-9.375zm55.625 5v60l-54.062821-.249s3.3011-4.88145 3.3011-4.8976c0-.312 10.43419-12.8601 10.654295-12.8125.12575.03 4.797565 2.0102 10.371095 4.4043 9.518915 4.0888 10.143005 4.32925 10.40039 3.98435.38925-.5216 1.732235-3.33135 2.44141-5.1074l.60547-1.5039-1.01563-.55665c-1.43644-.78555-3.544-2.5305-4.86328-4.0332-1.203885-1.3712-3.378905-4.68335-3.378905-5.14645 0-.153.68988.5476 1.5332 1.5527 2.368775 2.8233 7.831025 7.24005 8.17383 6.61135.4068-.7461.66733-2.946.6543-5.49805-.016-3.1156-.4217-5.5388-1.494145-8.8867l-.605465-1.8848-2.968755-.9277c-1.63412-.5137-3.2745-1.0269-3.642575-1.1426-1.28365-.4035-.47305-.39 1.40625.03 2.246985.50175 4.524195.92565 5.9375 1.1035 1.244385.1565 1.517325-.08 1.65039-1.46485.1697-1.7657-.969565-6.6443-2.11914-9.07225-.4588-.969-.663455-1.181-1.58203-1.60155-3.057755-1.3999-12.62512-2.7094-16.689455-2.28515-1.75693.1835-3.568385.61125-4.13086.97655-.15855.103.97884.393 2.929685.75195 1.75135.322 3.02352.6169 2.832035.6543-.1915.035-2.9412-.267-6.113285-.67385-5.568835-.71455-5.784-.7221-6.171875-.371-.8087.7319-1.967485 2.72845-2.20703 3.79885-.23195 1.03635-.21325 1.16215.30275 2.2168.879495 1.7976 2.509055 3.09825 6.23047 4.98045 1.759735.89005 3.15762 1.6666 3.10547 1.71875-.05215.052-1.55654-.5125-3.339845-1.25l-3.24219-1.33785-4.755855 1.3281c-2.61682.7323-9.789255 1.4251-9.89663 1.4251l-.24985-24.834z" fill="#fff"/>
  </g>
</svg>
