<svg height="128" width="128" xmlns="http://www.w3.org/2000/svg"><g stroke-width="1.857143"><path d="m45.427734 32.572266a33.42857 33.42857 0 0 0 -33.427734 33.427734 33.42857 33.42857 0 0 0 20.984375 30.998047 33.42857 33.42857 0 0 0 31.015625 21.001953 33.42857 33.42857 0 0 0 30.998047-20.984375 33.42857 33.42857 0 0 0 21.001953-31.015625 33.42857 33.42857 0 0 0 -33.427734-33.427734 33.42857 33.42857 0 0 0 -18.5625 5.65625 33.42857 33.42857 0 0 0 -18.582032-5.65625z" fill="#000409" opacity=".3"/><circle cx="82.571426" cy="64" fill="#03a8f3" r="33.42857"/><circle cx="82.571426" cy="64" fill="#3e50b4" r="26"/><circle cx="64" cy="45.428574" fill="#03a8f3" r="33.42857"/><circle cx="64" cy="45.428574" fill="#3e50b4" r="26"/><circle cx="45.42857" cy="64" fill="#03a8f3" r="33.42857"/><circle cx="45.42857" cy="64" fill="#3e50b4" r="26"/><circle cx="64" cy="82.571426" fill="#03a8f3" r="33.42857"/><circle cx="64" cy="82.571426" fill="#3e50b4" r="26"/><circle cx="64" cy="64" fill="#03a8f3" r="33.42857"/><circle cx="64" cy="64" fill="#3e50b4" r="26"/></g></svg>