<svg enable-background="new" height="128" viewBox="0 0 128 128" width="128" xmlns="http://www.w3.org/2000/svg">
  <g enable-background="new" transform="translate(162.99495 -137.37942)">
    <rect fill="#89c9d8" height="88.000008" rx="8" ry="8.8" width="112" x="-154.99495" y="165.37943"/>
    <path d="m-154.99495 243.37942v2c0 4.432 3.568 8 8 8h96c4.432 0 8-3.568 8-8v-2c0 4.432-3.568 8-8 8h-96c-4.432 0-8-3.568-8-8z" fill="#6e6e6e"/>
    <g transform="translate(.253524 -.093896)">
      <path d="m-99.248475 182.80666c-10.354675 0-19.173605 6.14746-22.968805 14.84799-9.63919 1.38934-17.03119 9.35734-17.03119 19.09067 0 10.712 8.9544 19.39467 19.99999 19.39467h42.501338c9.664 0 17.498666-7.59734 17.498666-16.97067 0-8.70933-6.754666-15.848-15.469333-16.816-2.272-11.1208-12.397333-19.54666-24.530666-19.54666z" fill="#fff"/>
      <path d="m-85.915142 212.13999-21.333338 13.33333v-26.66667z" fill="#f18537" fill-opacity=".99902"/>
    </g>
  </g>
</svg>
