<svg fill="none" height="129" viewBox="0 0 128 129" width="128" xmlns="http://www.w3.org/2000/svg" xmlns:xlink="http://www.w3.org/1999/xlink">
  <linearGradient id="paint4_linear" gradientUnits="userSpaceOnUse" x1="92.4861" x2="89.3882" y1="24.2847" y2="26.8556">
    <stop offset="0" stop-color="#706f72"/>
    <stop offset="1" stop-color="#52505a"/>
  </linearGradient>
  <path d="m118.848 49.5842c0-2.1568-1.074-4.0615-2.716-5.2119l-45.1942-32.7467c-1.7502-1.2681-4.117-1.2682-5.8672-.0001l-42.1079 30.5071c-5.8106 3.6508-5.8106 5.2948-5.8106 7.4516 0 3.5106 2.8454 6.356 6.356 6.356 1.3539 0 2.6102-.4237 3.6399-1.1441l40.8478-29.7396.0042-.0021.0042.0021 40.8478 29.7396c1.03.7204 2.286 1.1441 3.64 1.1441 3.51 0 6.356-2.8454 6.356-6.356z" fill="#deddda"/>
  <path d="m67.5763 18.6517-42.3732 32.2037 85.8059 1.0593s-28.3196-22.3166-43.4327-33.263z" fill="#deddda"/>
  <path d="m112.492 119.5h-88.9839c-3.5106 0-6.356-2.845-6.356-6.356v-63.5598c0-3.5106 2.8454-6.356 6.356-6.356h88.9839c3.51 0 6.356 2.8454 6.356 6.356v63.5598c0 3.511-2.846 6.356-6.356 6.356z" fill="#c0bfbc"/>
  <path d="m37.4589 22.1303c0-3.0774 2.4948-5.5722 5.5722-5.5722h42.1302l13.5916 13.8364v55.8159c0 3.0774-2.4947 5.5722-5.5721 5.5722h-50.1497c-3.0774 0-5.5722-2.4948-5.5722-5.5722z" fill="#3584e4"/>
  <path d="m84.3277 72.1253c-.9771-.3463-10.1992-5.4718-13.8666-7.7071-.7552-.4603-.785-.6667-.785-5.4398v-4.9614l10.1039 5.7464 10.1038 5.7464.0154 2.0198c.03 4.183-2.002 5.8593-5.5706 4.5957zm-27.0379-2.4945c-5.1813-2.9544-9.7738-5.5987-10.2056-5.8766-.7527-.4845-.785-.7051-.785-5.3605 0-2.8022.1352-4.8069.3204-4.7405.1762.0637 4.8079 2.6745 10.2928 5.8025l9.9724 5.6872v4.9316c0 2.7123-.0395 4.9308-.0872 4.9298-.0477-.0015-4.3265-2.419-9.5078-5.3735zm-.954-13.2224-10.0257-5.7477-.0051-4.9499c-.0052-2.722.1293-4.8979.2939-4.8346.1647.0637 4.7922 2.6791 10.2834 5.813l9.9841 5.698.0076 4.9211c.0052 2.7064-.1082 4.9044-.2524 4.8845-.1439-.0205-4.7733-2.6228-10.2874-5.7844zm32.007 5.5142c-.5758-.3522-4.815-2.7797-9.4206-5.3944-4.6056-2.6148-8.5747-4.9372-8.8203-5.1607-.3306-.3011-.421-1.6352-.3488-5.1437l.0975-4.737 7.676 4.3806c4.2218 2.4091 8.7359 4.9853 10.0312 5.7244l2.3551 1.3438v4.8194c0 2.6508-.1177 4.8166-.2616 4.8135-.1439 0-.7327-.294-1.3084-.6459zm-5.2336-15.7542c-3.4542-1.9894-7.8898-4.5107-9.8568-5.6025l-3.5763-1.9854v-4.9611c0-3.8338.099-4.9205.4361-4.7829.2399.0992 4.754 2.6609 10.0312 5.6947l9.595 5.5164.097 4.875c.0534 2.681-.0265 4.8719-.1745 4.8687-.1493 0-3.0974-1.6333-6.5516-3.6229zm-26.7788-2.5212-10.0312-5.7568.0077-1.2122c.0379-5.5349 2.8201-6.9332 8.0705-4.0567 1.469.8049 4.8804 2.7064 7.5808 4.2259l4.91 2.7628.0077 4.9209c.0051 2.7064-.1096 4.9099-.2537 4.8968-.144-.0205-4.7757-2.6144-10.2929-5.7807z" fill="#f6f5f4"/>
  <path d="m90.2837 30.5836c-3.0255 0-5.4612-2.4358-5.4612-5.4613v-6.9507c0-.5623.084-1.1038.2404-1.6135l13.69 13.8092c-.4823.1386-.9905.2163-1.5185.2163z" fill="url(#paint4_linear)"/>
  <path d="m112.492 119.5h-88.9839c-3.5106 0-6.356-2.845-6.356-6.356v-63.5598c0-3.5106 2.8454-6.356 6.356-6.356l95.3399 69.9158c0 3.511-2.846 6.356-6.356 6.356z" fill="#deddda"/>
  <path d="m23.5081 119.5h88.9839c3.51 0 6.356-2.845 6.356-6.356v-63.5598c0-3.5106-2.846-6.356-6.356-6.356l-95.3399 69.9158c0 3.511 2.8454 6.356 6.356 6.356z" fill="#f6f5f4"/>
  <path d="m116.304 39.4172-48.304 35.1672z" fill="#de5145"/>
</svg>
