<svg enable-background="new" height="128" viewBox="0 0 128 128" width="128" xmlns="http://www.w3.org/2000/svg">
  <g transform="matrix(.86666673 0 0 .86666673 9.533387 -142.40002)">
    <path d="m132.07686 238.15385a69.230763 69.230763 0 0 1 -69.23076 69.23077 69.230763 69.230763 0 0 1 -69.2307765-69.23077 69.230763 69.230763 0 0 1 69.2307765-69.23076 69.230763 69.230763 0 0 1 69.23076 69.23076z" fill="#deddda"/>
    <rect fill="#d5d3cf" height="131.538" rx="64.615" width="129.231" x="-1.77" y="171.23"/>
    <path d="m132.07686 235.84616a69.230763 69.230763 0 0 1 -69.23076 69.23076 69.230763 69.230763 0 0 1 -69.2307765-69.23076 69.230763 69.230763 0 0 1 69.2307765-69.23077 69.230763 69.230763 0 0 1 69.23076 69.23077z" fill="#f6f5f4"/>
    <path d="m62.771643 184.65433a53.440526 53.440526 0 0 0 -53.440531 53.44053 53.440526 53.440526 0 0 0 53.440531 53.44052 53.440526 53.440526 0 0 0 53.440487-53.44052 53.440526 53.440526 0 0 0 -53.440487-53.44053zm6.07278 12.14557a40.080395 40.080395 0 0 1 40.080357 40.0804 40.080395 40.080395 0 0 1 -40.080357 40.08039 40.080395 40.080395 0 0 1 -40.08039-40.08039 40.080395 40.080395 0 0 1 40.08039-40.0804z" fill="#010000" opacity=".2"/>
    <path d="m62.771643 182.34664a53.440526 53.440526 0 0 0 -53.440531 53.44053 53.440526 53.440526 0 0 0 53.440531 53.44052 53.440526 53.440526 0 0 0 53.440487-53.44052 53.440526 53.440526 0 0 0 -53.440487-53.44053zm6.07278 12.14557a40.080395 40.080395 0 0 1 40.080357 40.0804 40.080395 40.080395 0 0 1 -40.080357 40.08039 40.080395 40.080395 0 0 1 -40.08039-40.08039 40.080395 40.080395 0 0 1 40.08039-40.0804z" fill="#3584e4"/>
    <rect fill="#010000" height="38.866" opacity=".2" rx="7.773" width="38.866" x="4.47" y="218.66"/>
    <rect fill="#ff7800" height="38.866" rx="7.773" width="38.866" x="4.47" y="216.35"/>
    <rect fill="#010000" height="24.291" opacity=".2" rx="4.858" width="24.291" x="91.92" y="247.81"/>
    <rect fill="#ff7800" height="24.291" rx="4.858" width="24.291" x="91.92" y="245.5"/>
    <rect fill="#010000" height="19.433" opacity=".2" rx="3.887" width="19.433" x="82.21" y="189.51"/>
    <rect fill="#ff7800" height="19.433" rx="3.887" width="19.433" x="82.21" y="187.2"/>
  </g>
</svg>
