<svg fill="none" height="129" viewBox="0 0 128 129" width="128" xmlns="http://www.w3.org/2000/svg" xmlns:xlink="http://www.w3.org/1999/xlink">
  <linearGradient id="paint1_linear" gradientUnits="userSpaceOnUse" x1="0" x2="103.937" y1="51.9685" y2="51.9685">
    <stop offset="0" stop-color="#deddda"/>
    <stop offset=".989583" stop-color="#f6f5f4"/>
  </linearGradient>
  <linearGradient id="paint2_linear" gradientUnits="userSpaceOnUse" x1="64" x2="64" y1="100.036" y2="22.9007">
    <stop offset="0" stop-color="#2ec27e"/>
    <stop offset="1" stop-color="#57e389"/>
  </linearGradient>
  <path d="m115.968 67.5315c0 13.7829-5.475 27.0013-15.221 36.7475-9.7457 9.746-22.9641 15.221-36.747 15.221-6.8246 0-13.5824-1.344-19.8875-3.956s-12.0341-6.44-16.8598-11.265c-4.8257-4.826-8.6537-10.5549-11.2653-16.86-2.6117-6.3051-3.9559-13.0629-3.9559-19.8875s1.3442-13.5824 3.9559-19.8875c2.6116-6.3051 6.4396-12.0341 11.2653-16.8598s10.5547-8.6537 16.8598-11.2653c6.3051-2.6117 13.0629-3.9559 19.8875-3.9559 13.7829 0 27.0013 5.4752 36.747 15.2212 9.746 9.746 15.221 22.9644 15.221 36.7473z" fill="#c0bfbc"/>
  <circle fill="url(#paint1_linear)" r="51.9685" transform="matrix(1 0 0 -1 64 61.4685)"/>
  <path d="m64.0061 22.9007c-4.2053 0-8.2591.6763-12.0525 1.9203v36.6476c0 6.6565 5.3961 12.0525 12.0525 12.0525 6.6565 0 12.0526-5.396 12.0526-12.0525s-5.3961-12.0526-12.0526-12.0526v-12.0525c13.313 0 24.1052 10.7921 24.1052 24.1051s-10.7922 24.1052-24.1052 24.1052c-13.3129 0-24.1051-10.7922-24.1051-24.1052v-30.0936c-8.8104 7.0684-14.4688 17.9181-14.4688 30.0936 0 21.2995 17.2663 38.5674 38.5678 38.5674 21.2995 0 38.568-17.2658 38.568-38.5674 0-21.2995-17.2665-38.5679-38.568-38.5679" fill="url(#paint2_linear)"/>
</svg>
