<svg enable-background="new" height="128" viewBox="0 0 128 128" width="128" xmlns="http://www.w3.org/2000/svg" xmlns:xlink="http://www.w3.org/1999/xlink">
  <linearGradient id="linearGradient4413" gradientUnits="userSpaceOnUse" x1="31.34651324" x2="31.34651324" y1="11.63811702" y2="69.55600875">
    <stop offset="0" stop-opacity="0"/>
    <stop offset=".505"/>
    <stop offset="1" stop-opacity="0"/>
  </linearGradient>
  <filter id="filter4460" color-interpolation-filters="sRGB" height="1.023" width="1.026" x="-.01" y="-.01">
    <feGaussianBlur stdDeviation="1.133"/>
  </filter>
  <linearGradient id="linearGradient4470" gradientUnits="userSpaceOnUse" x1="31.34650812" x2="31.34650812" y1="69.55600525" y2="10.97365102487">
    <stop offset="0" stop-color="#fff"/>
    <stop offset="1" stop-color="#f1edd7"/>
  </linearGradient>
  <g transform="translate(0 -172)">
    <path d="m123.99993 237a59.999995 59.999995 0 0 1 -59.999985 60 59.999995 59.999995 0 0 1 -60.0000069-60 59.999995 59.999995 0 0 1 60.0000069-59.99999 59.999995 59.999995 0 0 1 59.999985 59.99999z" fill="#deddda"/>
    <rect fill="#d5d3cf" height="114" rx="56" width="112" x="8" y="179"/>
    <path d="m123.99993 235a59.999995 59.999995 0 0 1 -59.999985 59.99999 59.999995 59.999995 0 0 1 -60.0000069-59.99999 59.999995 59.999995 0 0 1 60.0000069-60 59.999995 59.999995 0 0 1 59.999985 60z" fill="#f6f5f4"/>
    <circle cx="64" cy="235" fill="#3584dd" r="54"/>
    <path d="m64.000045 181a54 54 0 0 0 -54 54 54 54 0 0 0 .0415 1.1709 54 54 0 0 1 53.9585-53.1709 54 54 0 0 1 53.958495 52.82813 54 54 0 0 0 .0415-.82813 54 54 0 0 0 -54.000005-54z" opacity=".1"/>
  </g>
  <g transform="translate(38.173717 22.948394)">
    <path d="m6.7647104 11.638115v58.651023s29.7470636-12.02288 54.0541816-29.344033c0-.0053-.0029-.0097-.0062-.01576-.0029-.0064-.0065-.01278-.01095-.01921-.0049-.0064-.0091-.01302-.01232-.01921-.0034-.0064-.0062-.01285-.0062-.01852-25.639254-17.873551-54.0184656-29.234261-54.0184656-29.234261z" fill="url(#linearGradient4413)" opacity=".4" visibility="hidden"/>
    <path d="m155.41127 137.99999v239.99999s121.72498-49.19762 221.18971-120.07579c0-.0217-.0115-.0398-.0253-.0645-.0115-.0263-.0264-.0523-.0448-.0786-.0191-.026-.0374-.0533-.0504-.0786-.0147-.0262-.0253-.0526-.0253-.0758-104.91599-73.13856-221.04372-119.62658-221.04372-119.62658z" filter="url(#filter4460)" opacity=".1" transform="matrix(.24437929 0 0 .24437929 -31.214585 -22.086224)"/>
    <path d="m6.7647084 11.149366v58.651032s29.7470556-12.02289 54.0541786-29.344047c0-.0055-.0029-.0092-.0063-.01663-.0029-.0055-.0065-.01293-.0109-.01921-.0049-.0055-.009-.01293-.01237-.01921-.0034-.0055-.0063-.01293-.0063-.01847-25.639104-17.87271-54.0183096-29.233423-54.0183096-29.233423z" fill="url(#linearGradient4470)"/>
    <path d="m6.7645714 11.149366v.488752s28.1864696 11.280191 53.7375276 29.041052c.105366-.07482.21169-.147967.316929-.222911 0-.0055-.0029-.0092-.0063-.01663-.0029-.0055-.0065-.01293-.01109-.01903-.0049-.0055-.0092-.01293-.01236-.01921-.0034-.0055-.0063-.01293-.0063-.01866-25.63924-17.8735-54.0186026-29.234306-54.0186026-29.234306z" fill="#fff"/>
  </g>
</svg>
