<?xml version="1.0" encoding="UTF-8" standalone="no"?>
<svg
   xmlns:osb="http://www.openswatchbook.org/uri/2009/osb"
   xmlns:dc="http://purl.org/dc/elements/1.1/"
   xmlns:cc="http://creativecommons.org/ns#"
   xmlns:rdf="http://www.w3.org/1999/02/22-rdf-syntax-ns#"
   xmlns:svg="http://www.w3.org/2000/svg"
   xmlns="http://www.w3.org/2000/svg"
   xmlns:sodipodi="http://sodipodi.sourceforge.net/DTD/sodipodi-0.dtd"
   xmlns:inkscape="http://www.inkscape.org/namespaces/inkscape"
   height="128"
   viewBox="0 0 128.00141 128.00141"
   width="128"
   version="1.1"
   id="svg117"
   sodipodi:docname="org.gnome.Reversi.svg"
   inkscape:version="0.92.4 (5da689c313, 2019-01-14)">
  <metadata
     id="metadata123">
    <rdf:RDF>
      <cc:Work
         rdf:about="">
        <dc:format>image/svg+xml</dc:format>
        <dc:type
           rdf:resource="http://purl.org/dc/dcmitype/StillImage" />
        <dc:title></dc:title>
      </cc:Work>
    </rdf:RDF>
  </metadata>
  <defs
     id="defs121">
    <linearGradient
       id="linearGradient1159"
       osb:paint="solid">
      <stop
         style="stop-color:#f6f5f4;stop-opacity:1;"
         offset="0"
         id="stop1157" />
    </linearGradient>
    <linearGradient
       id="linearGradient1153"
       osb:paint="solid">
      <stop
         style="stop-color:#deddda;stop-opacity:1;"
         offset="0"
         id="stop1151" />
    </linearGradient>
    <linearGradient
       id="linearGradient1147"
       osb:paint="solid">
      <stop
         style="stop-color:#c0bfbc;stop-opacity:1;"
         offset="0"
         id="stop1145" />
    </linearGradient>
    <linearGradient
       id="linearGradient1141"
       osb:paint="solid">
      <stop
         style="stop-color:#9a9996;stop-opacity:1;"
         offset="0"
         id="stop1139" />
    </linearGradient>
    <linearGradient
       id="linearGradient1135"
       osb:paint="solid">
      <stop
         style="stop-color:#77767b;stop-opacity:1;"
         offset="0"
         id="stop1133" />
    </linearGradient>
    <linearGradient
       id="linearGradient1129"
       osb:paint="solid">
      <stop
         style="stop-color:#5e5c64;stop-opacity:1;"
         offset="0"
         id="stop1127" />
    </linearGradient>
    <linearGradient
       id="linearGradient1123"
       osb:paint="solid">
      <stop
         style="stop-color:#3d3846;stop-opacity:1;"
         offset="0"
         id="stop1121" />
    </linearGradient>
    <linearGradient
       id="linearGradient1117"
       osb:paint="solid">
      <stop
         style="stop-color:#241f31;stop-opacity:1;"
         offset="0"
         id="stop1115" />
    </linearGradient>
    <linearGradient
       id="linearGradient1111"
       osb:paint="solid">
      <stop
         style="stop-color:#cdab8f;stop-opacity:1;"
         offset="0"
         id="stop1109" />
    </linearGradient>
    <linearGradient
       id="linearGradient1105"
       osb:paint="solid">
      <stop
         style="stop-color:#b5835a;stop-opacity:1;"
         offset="0"
         id="stop1103" />
    </linearGradient>
    <linearGradient
       id="linearGradient1099"
       osb:paint="solid">
      <stop
         style="stop-color:#986a44;stop-opacity:1;"
         offset="0"
         id="stop1097" />
    </linearGradient>
    <linearGradient
       id="linearGradient1093"
       osb:paint="solid">
      <stop
         style="stop-color:#865e3c;stop-opacity:1;"
         offset="0"
         id="stop1091" />
    </linearGradient>
    <linearGradient
       id="linearGradient1087"
       osb:paint="solid">
      <stop
         style="stop-color:#63452c;stop-opacity:1;"
         offset="0"
         id="stop1085" />
    </linearGradient>
    <linearGradient
       id="linearGradient1081"
       osb:paint="solid">
      <stop
         style="stop-color:#dc8add;stop-opacity:1;"
         offset="0"
         id="stop1079" />
    </linearGradient>
    <linearGradient
       id="linearGradient1075"
       osb:paint="solid">
      <stop
         style="stop-color:#c061cb;stop-opacity:1;"
         offset="0"
         id="stop1073" />
    </linearGradient>
    <linearGradient
       id="linearGradient1069"
       osb:paint="solid">
      <stop
         style="stop-color:#9141ac;stop-opacity:1;"
         offset="0"
         id="stop1067" />
    </linearGradient>
    <linearGradient
       id="linearGradient1063"
       osb:paint="solid">
      <stop
         style="stop-color:#813d9c;stop-opacity:1;"
         offset="0"
         id="stop1061" />
    </linearGradient>
    <linearGradient
       id="linearGradient1057"
       osb:paint="solid">
      <stop
         style="stop-color:#613583;stop-opacity:1;"
         offset="0"
         id="stop1055" />
    </linearGradient>
    <linearGradient
       id="linearGradient1051"
       osb:paint="solid">
      <stop
         style="stop-color:#f66151;stop-opacity:1;"
         offset="0"
         id="stop1049" />
    </linearGradient>
    <linearGradient
       id="linearGradient1045"
       osb:paint="solid">
      <stop
         style="stop-color:#ed333b;stop-opacity:1;"
         offset="0"
         id="stop1043" />
    </linearGradient>
    <linearGradient
       id="linearGradient1039"
       osb:paint="solid">
      <stop
         style="stop-color:#e01b24;stop-opacity:1;"
         offset="0"
         id="stop1037" />
    </linearGradient>
    <linearGradient
       id="linearGradient1033"
       osb:paint="solid">
      <stop
         style="stop-color:#c01c28;stop-opacity:1;"
         offset="0"
         id="stop1031" />
    </linearGradient>
    <linearGradient
       id="linearGradient1027"
       osb:paint="solid">
      <stop
         style="stop-color:#a51d2d;stop-opacity:1;"
         offset="0"
         id="stop1025" />
    </linearGradient>
    <linearGradient
       id="linearGradient1021"
       osb:paint="solid">
      <stop
         style="stop-color:#ffbe6f;stop-opacity:1;"
         offset="0"
         id="stop1019" />
    </linearGradient>
    <linearGradient
       id="linearGradient1015"
       osb:paint="solid">
      <stop
         style="stop-color:#ffa348;stop-opacity:1;"
         offset="0"
         id="stop1013" />
    </linearGradient>
    <linearGradient
       id="linearGradient1009"
       osb:paint="solid">
      <stop
         style="stop-color:#ff7800;stop-opacity:1;"
         offset="0"
         id="stop1007" />
    </linearGradient>
    <linearGradient
       id="linearGradient1003"
       osb:paint="solid">
      <stop
         style="stop-color:#e66100;stop-opacity:1;"
         offset="0"
         id="stop1001" />
    </linearGradient>
    <linearGradient
       id="linearGradient997"
       osb:paint="solid">
      <stop
         style="stop-color:#c64600;stop-opacity:1;"
         offset="0"
         id="stop995" />
    </linearGradient>
    <linearGradient
       id="linearGradient991"
       osb:paint="solid">
      <stop
         style="stop-color:#f9f06b;stop-opacity:1;"
         offset="0"
         id="stop989" />
    </linearGradient>
    <linearGradient
       id="linearGradient985"
       osb:paint="solid">
      <stop
         style="stop-color:#f8e45c;stop-opacity:1;"
         offset="0"
         id="stop983" />
    </linearGradient>
    <linearGradient
       id="linearGradient979"
       osb:paint="solid">
      <stop
         style="stop-color:#f6d32d;stop-opacity:1;"
         offset="0"
         id="stop977" />
    </linearGradient>
    <linearGradient
       id="linearGradient973"
       osb:paint="solid">
      <stop
         style="stop-color:#f5c211;stop-opacity:1;"
         offset="0"
         id="stop971" />
    </linearGradient>
    <linearGradient
       id="linearGradient967"
       osb:paint="solid">
      <stop
         style="stop-color:#e5a50a;stop-opacity:1;"
         offset="0"
         id="stop965" />
    </linearGradient>
    <linearGradient
       id="linearGradient961"
       osb:paint="solid">
      <stop
         style="stop-color:#8ff0a4;stop-opacity:1;"
         offset="0"
         id="stop959" />
    </linearGradient>
    <linearGradient
       id="linearGradient955"
       osb:paint="solid">
      <stop
         style="stop-color:#57e389;stop-opacity:1;"
         offset="0"
         id="stop953" />
    </linearGradient>
    <linearGradient
       id="linearGradient949"
       osb:paint="solid">
      <stop
         style="stop-color:#33d17a;stop-opacity:1;"
         offset="0"
         id="stop947" />
    </linearGradient>
    <linearGradient
       id="linearGradient943"
       osb:paint="solid">
      <stop
         style="stop-color:#2ec27e;stop-opacity:1;"
         offset="0"
         id="stop941" />
    </linearGradient>
    <linearGradient
       id="linearGradient937"
       osb:paint="solid">
      <stop
         style="stop-color:#26a269;stop-opacity:1;"
         offset="0"
         id="stop935" />
    </linearGradient>
  </defs>
  <sodipodi:namedview
     pagecolor="#ffffff"
     bordercolor="#666666"
     borderopacity="1"
     objecttolerance="10"
     gridtolerance="10"
     guidetolerance="10"
     inkscape:pageopacity="0"
     inkscape:pageshadow="2"
     inkscape:window-width="1920"
     inkscape:window-height="1016"
     id="namedview119"
     showgrid="false"
     inkscape:zoom="6.5546875"
     inkscape:cx="64"
     inkscape:cy="64"
     inkscape:window-x="0"
     inkscape:window-y="27"
     inkscape:window-maximized="1"
     inkscape:current-layer="g91" />
  <filter
     id="filter951"
     height="1.072"
     width="1.072"
     x="-0.039999999"
     y="-0.039999999"
     style="color-interpolation-filters:sRGB">
    <feGaussianBlur
       stdDeviation="1.035"
       id="feGaussianBlur2" />
  </filter>
  <filter
     id="filter1210"
     height="1.052"
     width="1.052"
     x="-0.029999999"
     y="-0.029999999"
     style="color-interpolation-filters:sRGB">
    <feGaussianBlur
       stdDeviation="1.135"
       id="feGaussianBlur5" />
  </filter>
  <filter
     id="filter1266"
     height="1.2079999"
     width="1.2079999"
     x="-0.1"
     y="-0.1"
     style="color-interpolation-filters:sRGB">
    <feGaussianBlur
       stdDeviation="4.54"
       id="feGaussianBlur8" />
  </filter>
  <g
     transform="matrix(0.58252993,0,0,0.58252993,71.311834,49.242331)"
     id="g51">
    <circle
       cx="-65.550781"
       cy="78.334679"
       r="50"
       id="circle37"
       style="fill:#3d3846;fill-opacity:1" />
    <path
       d="m -54.049264,112.0485 -16.588073,-17.582325 -23.887937,3.697162 11.595793,-21.209429 -10.897994,-21.576291 23.754668,4.474175 17.152605,-17.032051 3.085399,23.974631 21.498893,11.049904 -21.847791,10.342956 z"
       id="path41"
       inkscape:connector-curvature="0"
       style="fill:#f5c211;fill-opacity:1" />
    <path
       d="m -15.590646,77.171032 a 50,50 0 0 1 -49.958985,49.164068 50,50 0 0 1 -49.958979,-48.832036 50,50 0 0 0 -0.041,0.832031 50,50 0 0 0 49.999989,50.000005 50,50 0 0 0 50,-50.000005 50,50 0 0 0 -0.04101,-1.164063 z"
       id="path45"
       inkscape:connector-curvature="0"
       style="opacity:0.2" />
  </g>
  <g
     transform="matrix(0.58252993,0,0,0.58252993,129.66095,46.50114)"
     id="g75">
    <circle
       cx="-60.716"
       cy="79.607002"
       r="50"
       id="circle53"
       style="fill:#deddda;fill-opacity:1" />
    <path
       d="m -10.755859,78.443359 a 50,50 0 0 1 -49.958985,49.164061 50,50 0 0 1 -49.958986,-48.832029 50,50 0 0 0 -0.041,0.832031 50,50 0 0 0 49.999996,49.999998 50,50 0 0 0 50,-49.999998 50,50 0 0 0 -0.04101,-1.164063 z"
       id="path57"
       inkscape:connector-curvature="0"
       style="opacity:0.2" />
    <g
       transform="translate(0.31724,-1.292849)"
       id="g73">
      <path
         d="m -61.033021,46.40005 -9.20526,12.27505 -15.189638,-2.16995 2.169947,15.18964 -12.275048,9.20527 12.275048,9.20526 -2.169947,15.18964 15.189638,-2.16996 9.20526,12.27505 9.205272,-12.27505 15.189636,2.16996 -2.169948,-15.18964 12.275051,-9.20526 -12.275051,-9.20527 2.169948,-15.18964 -15.189636,2.16995 z"
         id="path67"
         inkscape:connector-curvature="0"
         style="fill:#f5c211;fill-opacity:1" />
      <path
         style="fill:#000000;fill-opacity:1;stroke-width:0.58252352;opacity:0.2"
         d="M 80.080078 78.664062 L 81.085938 85.705078 L 81.34375 85.511719 L 80.371094 78.705078 L 80.080078 78.664062 z M 108.50195 78.664062 L 108.21094 78.705078 L 107.23828 85.511719 L 107.49609 85.705078 L 108.50195 78.664062 z M 75.527344 91.873047 L 74.193359 92.873047 L 81.085938 98.042969 L 81.34375 96.236328 L 75.527344 91.873047 z M 113.05469 91.873047 L 107.23828 96.236328 L 107.49609 98.042969 L 114.38867 92.873047 L 113.05469 91.873047 z M 88.929688 103.82031 L 80.371094 105.04297 L 80.080078 107.08398 L 88.929688 105.82031 L 94.291016 112.9707 L 99.654297 105.82031 L 108.50195 107.08398 L 108.21094 105.04297 L 99.654297 103.82031 L 94.291016 110.9707 L 88.929688 103.82031 z "
         transform="matrix(1.7166689,0,0,1.7166689,-222.89971,-78.533333)"
         id="path1259" />
    </g>
  </g>
  <g
     transform="matrix(-0.58252993,0,0,0.58252993,58.923991,-13.246924)"
     id="g91">
    <circle
       cx="-60.716"
       cy="79.607002"
       r="50"
       id="circle77"
       style="fill:#3d3846;fill-opacity:1" />
    <path
       d="m 83.188575,218.71919 -16.241156,-17.90327 -23.955653,3.22943 12.008235,-20.97867 -10.474079,-21.78523 23.662654,4.93774 17.482315,-16.69345 2.616089,24.03037 21.27875,11.46811 -22.045827,9.91384 z"
       id="path81"
       inkscape:connector-curvature="0"
       style="fill:#f5c211;fill-opacity:1"
       transform="rotate(-1.1202434,-5373.5282,6937.6684)" />
    <path
       d="m -10.755859,78.443359 a 50,50 0 0 1 -49.958985,49.164061 50,50 0 0 1 -49.958986,-48.832029 50,50 0 0 0 -0.041,0.832031 50,50 0 0 0 49.999996,49.999998 50,50 0 0 0 50,-49.999998 50,50 0 0 0 -0.04101,-1.164063 z"
       id="path85"
       inkscape:connector-curvature="0"
       style="opacity:0.2" />
    <path
       style="fill:#000000;fill-opacity:1;stroke-width:0.58252352;opacity:0.2"
       d="M 74.638672 31.798828 L 72.613281 32.839844 L 85.339844 38.865234 L 87.591797 52.765625 L 97.253906 42.523438 L 111.16992 44.677734 L 109.97656 42.492188 L 97.253906 40.523438 L 87.591797 50.765625 L 85.339844 36.865234 L 74.638672 31.798828 z "
       id="path1269"
       transform="matrix(-1.7166689,0,0,1.7166689,101.15187,22.740332)" />
    <path
       id="path1273"
       d="m 10.547443,183.32764 -3.4769196,1.78708 21.8472896,10.3436 3.86586,23.86236 16.58664,-17.58244 23.88919,3.69821 -2.0486,-3.75185 -21.84059,-3.3797 -16.58664,17.58245 -3.86586,-23.86237 z"
       style="opacity:0.2;fill:#000000;fill-opacity:1;stroke-width:1"
       inkscape:connector-curvature="0" />
  </g>
  <g
     transform="matrix(-0.58252993,0,0,0.58252993,-2.241523,-13.246924)"
     id="g115">
    <circle
       cx="-60.716"
       cy="79.607002"
       r="50"
       id="circle93"
       style="fill:#deddda;fill-opacity:1" />
    <path
       d="m -10.755859,78.443359 a 50,50 0 0 1 -49.958985,49.164061 50,50 0 0 1 -49.958986,-48.832029 50,50 0 0 0 -0.041,0.832031 50,50 0 0 0 49.999996,49.999998 50,50 0 0 0 50,-49.999998 50,50 0 0 0 -0.04101,-1.164063 z"
       id="path97"
       inkscape:connector-curvature="0"
       style="opacity:0.2" />
    <g
       transform="translate(0.31724,-1.292849)"
       id="g113">
      <path
         d="m -61.033021,46.40005 -9.20526,12.27505 -15.189638,-2.16995 2.169947,15.18964 -12.275048,9.20527 12.275048,9.20526 -2.169947,15.18964 15.189638,-2.16996 9.20526,12.27505 9.205272,-12.27505 15.189636,2.16996 -2.169948,-15.18964 12.275051,-9.20526 -12.275051,-9.20527 2.169948,-15.18964 -15.189636,2.16995 z"
         id="path107"
         inkscape:connector-curvature="0"
         style="fill:#f5c211;fill-opacity:1" />
    </g>
    <g
       id="g1252"
       transform="translate(0.31724,-1.292849)">
      <path
         style="fill:#000000;fill-opacity:1;stroke-width:0.58252352;opacity:0.2"
         d="M 18.916016 18.916016 L 19.921875 25.957031 L 20.179688 25.763672 L 19.207031 18.957031 L 18.916016 18.916016 z M 47.337891 18.916016 L 47.046875 18.957031 L 46.074219 25.763672 L 46.332031 25.957031 L 47.337891 18.916016 z M 14.363281 32.126953 L 13.029297 33.126953 L 19.921875 38.294922 L 20.179688 36.488281 L 14.363281 32.126953 z M 51.890625 32.126953 L 46.074219 36.488281 L 46.332031 38.294922 L 53.224609 33.126953 L 51.890625 32.126953 z M 27.763672 44.072266 L 19.207031 45.294922 L 18.916016 47.335938 L 27.763672 46.072266 L 33.126953 53.222656 L 38.488281 46.072266 L 47.337891 47.335938 L 47.046875 45.294922 L 38.488281 44.072266 L 33.126953 51.222656 L 27.763672 44.072266 z "
         transform="matrix(-1.7166689,0,0,1.7166689,-4.1651504,24.033181)"
         id="path1250" />
    </g>
    <g
       transform="translate(0.31724,-4.7261868)"
       id="g1256" />
  </g>
</svg>
