<?xml version="1.0" encoding="UTF-8" standalone="no"?>
<!-- Generator: Adobe Illustrator 17.0.0, SVG Export Plug-In . SVG Version: 6.00 Build 0)  -->

<svg
   xmlns:osb="http://www.openswatchbook.org/uri/2009/osb"
   xmlns:dc="http://purl.org/dc/elements/1.1/"
   xmlns:cc="http://creativecommons.org/ns#"
   xmlns:rdf="http://www.w3.org/1999/02/22-rdf-syntax-ns#"
   xmlns:svg="http://www.w3.org/2000/svg"
   xmlns="http://www.w3.org/2000/svg"
   xmlns:sodipodi="http://sodipodi.sourceforge.net/DTD/sodipodi-0.dtd"
   xmlns:inkscape="http://www.inkscape.org/namespaces/inkscape"
   version="1.1"
   id="Layer_1"
   x="0px"
   y="0px"
   width="128"
   height="128"
   viewBox="0 0 128 128"
   enable-background="new 0 0 375 150"
   xml:space="preserve"
   inkscape:version="0.92.4 (5da689c313, 2019-01-14)"
   sodipodi:docname="org.musicbrainz.Picard.svg"><metadata
     id="metadata8145"><rdf:RDF><cc:Work
         rdf:about=""><dc:format>image/svg+xml</dc:format><dc:type
           rdf:resource="http://purl.org/dc/dcmitype/StillImage" /><dc:title></dc:title></cc:Work></rdf:RDF></metadata><defs
     id="defs8143"><linearGradient
       osb:paint="solid"
       id="linearGradient997"><stop
         id="stop995"
         offset="0"
         style="stop-color:#c64600;stop-opacity:1;" /></linearGradient><linearGradient
       osb:paint="solid"
       id="linearGradient1003"><stop
         id="stop1001"
         offset="0"
         style="stop-color:#e66100;stop-opacity:1;" /></linearGradient><linearGradient
       osb:paint="solid"
       id="linearGradient1009"><stop
         id="stop1007"
         offset="0"
         style="stop-color:#ff7800;stop-opacity:1;" /></linearGradient><linearGradient
       osb:paint="solid"
       id="linearGradient1015"><stop
         id="stop1013"
         offset="0"
         style="stop-color:#ffa348;stop-opacity:1;" /></linearGradient><linearGradient
       osb:paint="solid"
       id="linearGradient1021"><stop
         id="stop1019"
         offset="0"
         style="stop-color:#ffbe6f;stop-opacity:1;" /></linearGradient><linearGradient
       osb:paint="solid"
       id="linearGradient1057"><stop
         id="stop1055"
         offset="0"
         style="stop-color:#613583;stop-opacity:1;" /></linearGradient><linearGradient
       osb:paint="solid"
       id="linearGradient1063"><stop
         id="stop1061"
         offset="0"
         style="stop-color:#813d9c;stop-opacity:1;" /></linearGradient><linearGradient
       osb:paint="solid"
       id="linearGradient1069"><stop
         id="stop1067"
         offset="0"
         style="stop-color:#9141ac;stop-opacity:1;" /></linearGradient><linearGradient
       osb:paint="solid"
       id="linearGradient1075"><stop
         id="stop1073"
         offset="0"
         style="stop-color:#c061cb;stop-opacity:1;" /></linearGradient><linearGradient
       osb:paint="solid"
       id="linearGradient1081"><stop
         id="stop1079"
         offset="0"
         style="stop-color:#dc8add;stop-opacity:1;" /></linearGradient></defs><sodipodi:namedview
     pagecolor="#ffffff"
     bordercolor="#666666"
     borderopacity="1"
     objecttolerance="10"
     gridtolerance="10"
     guidetolerance="10"
     inkscape:pageopacity="0"
     inkscape:pageshadow="2"
     inkscape:window-width="1628"
     inkscape:window-height="946"
     id="namedview8141"
     showgrid="false"
     fit-margin-top="2"
     fit-margin-left="2"
     fit-margin-right="2"
     fit-margin-bottom="2"
     inkscape:zoom="6.0078125"
     inkscape:cx="64"
     inkscape:cy="64"
     inkscape:window-x="0"
     inkscape:window-y="27"
     inkscape:window-maximized="0"
     inkscape:current-layer="g8039" /><g
     id="g8033"
     transform="matrix(0.53571427,0,0,0.53571427,-7.4039284,53.516252)" /><g
     id="g8035"
     transform="translate(-2.354,-20.823)"><g
       id="g8037"
       transform="matrix(1.5555556,0,0,1.5555556,27.581111,-97.56834)"><g
         id="g8039"><polygon
           points="131.355,37.823 70.354,2.823 70.354,146.823 131.355,111.823 "
           id="polygon8041"
           style="fill:#e66100;fill-opacity:1"
           transform="matrix(0.53571427,0,0,0.53571427,-11.4785,76.910681)" /><polygon
           points="65.354,146.823 65.354,2.823 4.354,37.823 4.354,111.823 "
           id="polygon8043"
           style="fill:#813d9c;fill-opacity:1"
           transform="matrix(0.53571427,0,0,0.53571427,-11.4785,76.910681)" /><g
           id="g8045"
           transform="matrix(0.53571427,0,0,0.53571427,-11.4785,76.910681)"><g
             id="g8047"><path
               d="m 41.814,45.301 -17.973,8.664 -9.75,52.414 17.17,-4.354 14.453,10.237 9.754,-52.414 z m -3.56,18.508 c -3.023,-0.563 -5.018,-3.469 -4.455,-6.492 0.563,-3.024 3.469,-5.019 6.492,-4.456 3.025,0.564 5.02,3.47 4.457,6.493 -0.562,3.022 -3.471,5.017 -6.494,4.455 z"
               id="path8049"
               inkscape:connector-curvature="0"
               style="fill:#591463" /><path
               d="m 65.393,42.229 c -0.201,-0.046 -0.406,-0.094 -0.615,-0.143 -5.787,-1.35 -16.445,-3.828 -24.182,8.8 -0.439,-0.078 -0.887,-0.12 -1.33,-0.12 -3.641,0 -6.767,2.602 -7.432,6.185 -0.371,1.988 0.055,4 1.199,5.667 1.143,1.666 2.867,2.788 4.855,3.157 0.459,0.086 0.926,0.129 1.391,0.129 3.641,0 6.77,-2.601 7.436,-6.185 0.508,-2.73 -0.533,-5.393 -2.492,-7.097 6.209,-9.772 14.258,-7.898 19.646,-6.642 0.547,0.128 1.053,0.246 1.524,0.345 z m -22.61,16.758 c -0.355,1.904 -2.24,3.208 -4.162,2.855 -1.936,-0.36 -3.215,-2.227 -2.856,-4.161 0.315,-1.689 1.785,-2.916 3.5,-2.916 0.221,0 0.441,0.021 0.66,0.061 1.934,0.361 3.216,2.228 2.858,4.161 z"
               id="path8051"
               inkscape:connector-curvature="0"
               style="fill:#591463" /></g><g
             id="g8053"><path
               d="m 41.814,42.896 -17.972,8.664 -9.75,52.414 17.17,-4.354 14.453,10.237 9.754,-52.414 z m -3.56,18.507 c -3.023,-0.563 -5.018,-3.469 -4.455,-6.492 0.563,-3.024 3.469,-5.019 6.492,-4.456 3.025,0.563 5.02,3.47 4.457,6.493 -0.562,3.023 -3.471,5.018 -6.494,4.455 z"
               id="path8055"
               inkscape:connector-curvature="0"
               style="fill:#c061cb;fill-opacity:1" /><path
               d="m 65.393,39.823 c -0.201,-0.046 -0.406,-0.094 -0.615,-0.143 -5.787,-1.35 -16.445,-3.828 -24.182,8.8 -0.439,-0.078 -0.887,-0.12 -1.33,-0.12 -3.641,0 -6.767,2.602 -7.432,6.185 -0.371,1.988 0.055,4 1.199,5.667 1.143,1.666 2.867,2.788 4.855,3.157 0.459,0.086 0.926,0.129 1.391,0.129 3.641,0 6.77,-2.601 7.436,-6.185 0.508,-2.73 -0.533,-5.393 -2.492,-7.097 6.209,-9.771 14.258,-7.899 19.646,-6.642 0.547,0.128 1.053,0.246 1.524,0.345 z m -22.61,16.759 c -0.355,1.904 -2.24,3.208 -4.162,2.855 -1.936,-0.36 -3.215,-2.227 -2.856,-4.161 0.315,-1.689 1.785,-2.916 3.5,-2.916 0.221,0 0.441,0.021 0.66,0.061 1.934,0.36 3.216,2.227 2.858,4.161 z"
               id="path8057"
               inkscape:connector-curvature="0"
               style="fill:#ffffff;fill-opacity:1" /></g></g><g
           id="g8059"><g
             id="g8079"><g
               id="g8081"
               transform="matrix(0.53571427,0,0,0.53571427,-11.4785,76.910681)"><path
                 d="m 103.53,111.927 c -1.165,-1.36 -2.858,-2.139 -4.648,-2.139 -1.459,0 -2.875,0.525 -3.983,1.477 -1.612,1.383 -2.326,3.429 -2.087,5.397 -1.948,0.7 -4.258,1.365 -5.328,1.332 -0.821,-0.044 -1.302,-0.346 -2.224,-0.972 -1.172,-0.795 -2.418,-1.512 -4.149,-1.847 2.936,-2.761 6.009,-6.83 8.584,-12.834 2.061,-0.076 3.976,-1.193 5.038,-2.972 1.725,-2.896 0.773,-6.659 -2.124,-8.394 -0.949,-0.565 -2.032,-0.864 -3.134,-0.864 -2.146,0 -4.161,1.144 -5.261,2.986 -0.838,1.405 -1.079,3.05 -0.678,4.636 0.351,1.393 1.16,2.59 2.302,3.429 -4.053,9.218 -9.219,13.081 -12.565,14.685 -0.128,0.045 -0.248,0.101 -0.36,0.168 -1.187,0.531 -2.05,0.704 -2.559,0.808 v 4 c 0.275,-0.03 1.885,-0.118 4.247,-1.192 5.348,-1.357 6.839,-0.354 8.407,0.709 1.021,0.692 2.291,1.554 4.263,1.656 0.1,0.005 0.204,0.008 0.309,0.008 2.109,0 5.172,-1.022 7.021,-1.723 1.144,1.116 2.676,1.75 4.285,1.75 v 0 c 1.461,0 2.876,-0.524 3.983,-1.476 1.24,-1.062 1.993,-2.546 2.118,-4.176 0.125,-1.631 -0.392,-3.214 -1.457,-4.452 z M 87.656,95.151 c 0.386,-0.645 1.066,-1.03 1.819,-1.03 0.378,0 0.752,0.104 1.078,0.297 1,0.601 1.331,1.899 0.735,2.898 -0.385,0.646 -1.064,1.032 -1.817,1.032 -0.379,0 -0.755,-0.104 -1.084,-0.301 -0.483,-0.288 -0.826,-0.748 -0.964,-1.294 -0.138,-0.548 -0.055,-1.116 0.233,-1.602 z m 12.603,22.363 c -0.49,0.421 -1.018,0.509 -1.373,0.509 -0.621,0 -1.207,-0.269 -1.608,-0.734 -0.758,-0.885 -0.654,-2.222 0.231,-2.981 0.492,-0.423 1.018,-0.512 1.373,-0.512 0.617,0 1.201,0.269 1.605,0.74 0.368,0.43 0.547,0.976 0.504,1.538 -0.043,0.562 -0.302,1.072 -0.732,1.44 z"
                 id="path8083"
                 inkscape:connector-curvature="0"
                 style="fill:#d3562c" /><path
                 d="m 79.355,48.434 c 0.07,0.018 0.142,0.034 0.212,0.046 -0.072,-0.012 -0.142,-0.028 -0.212,-0.046 z"
                 id="path8085"
                 inkscape:connector-curvature="0" /><path
                 d="m 101.305,36.031 c -0.357,-1.599 -1.317,-2.964 -2.708,-3.844 -0.98,-0.617 -2.109,-0.944 -3.265,-0.944 -2.117,0 -4.053,1.066 -5.174,2.85 -1.354,2.138 -1.218,4.799 0.144,6.759 -3.646,4.124 -8.706,4.313 -9.942,4.293 -3.692,-1.604 -7.234,-2.164 -10.005,-2.317 v 3.996 c 2.441,0.144 5.553,0.686 8.748,2.136 0.005,0.002 0.01,0.002 0.015,0.005 3.445,1.563 6.334,3.928 8.607,7.041 -0.136,0.173 -0.265,0.352 -0.382,0.538 -1.796,2.854 -0.942,6.644 1.903,8.444 0.98,0.622 2.111,0.951 3.27,0.951 2.113,0 4.051,-1.065 5.183,-2.852 1.806,-2.851 0.951,-6.642 -1.908,-8.453 -1.384,-0.871 -3.092,-1.113 -4.667,-0.755 -1.538,-2.154 -3.323,-4.017 -5.345,-5.566 2.517,-0.778 5.401,-2.269 7.78,-5.096 0.572,0.172 1.166,0.267 1.77,0.267 2.116,0 4.051,-1.068 5.172,-2.849 0.874,-1.375 1.16,-3.009 0.804,-4.604 z M 90.734,58.679 c 0.169,-0.267 0.395,-0.49 0.673,-0.661 0.335,-0.207 0.722,-0.316 1.121,-0.316 0.4,0 0.79,0.112 1.122,0.321 0.987,0.627 1.283,1.936 0.66,2.919 -0.392,0.618 -1.063,0.988 -1.795,0.988 -0.397,0 -0.785,-0.113 -1.124,-0.327 -0.984,-0.624 -1.278,-1.937 -0.657,-2.924 z m 6.379,-20.188 c -0.6,0.951 -1.938,1.271 -2.912,0.653 l -0.096,-0.063 c -0.914,-0.647 -1.161,-1.897 -0.558,-2.851 0.386,-0.613 1.053,-0.98 1.784,-0.98 0.397,0 0.787,0.113 1.124,0.326 0.479,0.304 0.813,0.775 0.937,1.33 0.123,0.547 0.026,1.108 -0.279,1.585 z"
                 id="path8087"
                 inkscape:connector-curvature="0"
                 style="fill:#d3562c" /><path
                 d="m 110,77.011 c 0.425,1.035 1.136,1.962 2.109,2.649 0.072,0.052 0.151,0.105 0.283,0.191 0.981,0.621 2.11,0.949 3.268,0.949 2.116,0 4.052,-1.068 5.173,-2.849 0.875,-1.375 1.16,-3.01 0.805,-4.604 -0.358,-1.598 -1.318,-2.964 -2.709,-3.844 -0.98,-0.617 -2.109,-0.944 -3.266,-0.944 -0.125,0 -0.25,0.008 -0.375,0.018 -0.71,-3.157 -0.919,-7.769 0.035,-11.265 0.112,0.011 0.225,0.024 0.337,0.024 2.116,0 4.052,-1.067 5.173,-2.849 0.875,-1.375 1.16,-3.009 0.805,-4.604 -0.358,-1.599 -1.318,-2.964 -2.709,-3.844 -0.98,-0.617 -2.109,-0.944 -3.266,-0.944 -2.114,0 -4.051,1.066 -5.173,2.85 -1.603,2.532 -1.12,5.804 1.025,7.765 0.021,0.02 0.048,0.037 0.071,0.059 -1.349,4.518 -1.146,10.324 -0.036,14.417 -0.143,0.132 -0.294,0.254 -0.426,0.399 -0.229,0.255 -0.445,0.526 -0.634,0.824 -0.318,0.502 -0.551,1.033 -0.71,1.578 -3.371,0.488 -5.198,1.671 -6.824,2.729 -2.035,1.324 -3.961,2.572 -9.636,2.665 -1.964,-0.23 -3.553,-0.177 -5.29,-0.116 -1.431,0.052 -2.91,0.106 -4.849,0.003 -1.335,-0.071 -2.104,-0.882 -3.458,-2.424 -1.803,-2.055 -4.219,-4.649 -9.369,-5.023 v 4 c 3.295,0.3 4.796,1.888 6.356,3.667 1.487,1.694 3.175,3.615 6.256,3.782 2.118,0.114 3.76,0.052 5.208,0.001 2.491,-0.092 4.453,-0.161 7.855,0.684 2.607,0.643 12.099,9.673 14.773,14.322 -0.108,0.142 -0.219,0.282 -0.314,0.434 -1.743,2.755 -1.026,6.385 1.619,8.251 0.072,0.052 0.151,0.104 0.283,0.191 0.981,0.621 2.11,0.948 3.268,0.948 2.116,0 4.052,-1.068 5.173,-2.849 0.875,-1.374 1.16,-3.009 0.805,-4.603 -0.358,-1.6 -1.318,-2.965 -2.709,-3.845 -0.98,-0.617 -2.109,-0.944 -3.266,-0.944 -0.528,0 -1.047,0.067 -1.543,0.195 -2.561,-4.187 -8.652,-10.455 -13.189,-13.792 1.813,-0.628 3.05,-1.435 4.212,-2.188 1.429,-0.927 2.616,-1.687 4.859,-2.064 z m 3.88,-26.925 c 0.388,-0.614 1.054,-0.98 1.783,-0.98 0.399,0 0.79,0.113 1.125,0.325 0.48,0.304 0.813,0.775 0.937,1.33 0.122,0.546 0.024,1.106 -0.279,1.584 -0.598,0.951 -1.938,1.272 -2.912,0.653 l -0.094,-0.063 c -0.918,-0.646 -1.163,-1.896 -0.56,-2.849 z m 0,23.463 c 0.388,-0.614 1.054,-0.98 1.783,-0.98 0.399,0 0.79,0.112 1.125,0.326 0.48,0.304 0.813,0.774 0.937,1.329 0.122,0.546 0.024,1.107 -0.279,1.585 -0.598,0.95 -1.938,1.271 -2.912,0.652 l -0.094,-0.063 c -0.918,-0.646 -1.163,-1.896 -0.56,-2.849 z m 0,26.303 c 0.388,-0.613 1.054,-0.979 1.783,-0.979 0.399,0 0.79,0.112 1.125,0.325 0.48,0.304 0.813,0.775 0.937,1.33 0.122,0.547 0.024,1.106 -0.279,1.584 -0.598,0.951 -1.938,1.271 -2.912,0.653 l -0.094,-0.063 c -0.918,-0.647 -1.163,-1.896 -0.56,-2.85 z"
                 id="path8089"
                 inkscape:connector-curvature="0"
                 style="fill:#d3562c" /></g><g
               id="g8091"><path
                 d="m 43.983998,135.26443 c -0.624107,-0.72857 -1.531071,-1.14589 -2.489999,-1.14589 -0.781608,0 -1.540179,0.28125 -2.13375,0.79125 -0.863572,0.74089 -1.246072,1.83696 -1.118036,2.89125 -1.043571,0.375 -2.281071,0.73125 -2.854286,0.71357 -0.439821,-0.0236 -0.6975,-0.18536 -1.191428,-0.52071 -0.627857,-0.4259 -1.295357,-0.81 -2.222679,-0.98947 1.572857,-1.47911 3.219107,-3.65893 4.598572,-6.87535 1.104107,-0.0407 2.129999,-0.63911 2.698928,-1.59215 0.924107,-1.55143 0.414107,-3.56732 -1.137857,-4.49678 -0.508393,-0.30268 -1.088571,-0.46286 -1.678929,-0.46286 -1.149642,0 -2.229107,0.61286 -2.818392,1.59964 -0.448929,0.75268 -0.578036,1.63393 -0.363215,2.48357 0.188036,0.74625 0.621429,1.3875 1.233215,1.83697 -2.17125,4.93821 -4.93875,7.00768 -6.73125,7.86696 -0.06857,0.0241 -0.132857,0.0541 -0.192857,0.09 -0.635893,0.28447 -1.098215,0.37714 -1.370893,0.43286 v 2.14286 c 0.147321,-0.0161 1.009821,-0.0632 2.275178,-0.63858 2.865,-0.72696 3.66375,-0.18964 4.50375,0.37983 0.546964,0.37071 1.227322,0.8325 2.28375,0.88714 0.05357,0.003 0.109286,0.004 0.165536,0.004 1.129821,0 2.770714,-0.5475 3.76125,-0.92303 0.612857,0.59786 1.433571,0.9375 2.295535,0.9375 v 0 c 0.782679,0 1.540715,-0.28072 2.13375,-0.79072 0.664286,-0.56892 1.067679,-1.36392 1.134643,-2.23714 0.06696,-0.87375 -0.21,-1.72178 -0.780536,-2.385 z m -8.503928,-8.98714 c 0.206786,-0.34554 0.571072,-0.55179 0.974464,-0.55179 0.2025,0 0.402858,0.0557 0.5775,0.15911 0.535715,0.32197 0.713036,1.01732 0.39375,1.5525 -0.20625,0.34607 -0.57,0.55286 -0.973392,0.55286 -0.203036,0 -0.404465,-0.0557 -0.580715,-0.16125 -0.25875,-0.15429 -0.4425,-0.40072 -0.516428,-0.69322 -0.07393,-0.29357 -0.02947,-0.59785 0.124821,-0.85821 z m 6.751607,11.98018 c -0.2625,0.22553 -0.545357,0.27268 -0.735536,0.27268 -0.332678,0 -0.646607,-0.14411 -0.861428,-0.39322 -0.406072,-0.47411 -0.350357,-1.19036 0.12375,-1.59696 0.263571,-0.22661 0.545357,-0.27429 0.735536,-0.27429 0.330535,0 0.643392,0.14411 0.859821,0.39643 0.197143,0.23036 0.293036,0.52286 0.27,0.82393 -0.02304,0.30107 -0.161786,0.57428 -0.392143,0.77143 z"
                 id="path8093"
                 inkscape:connector-curvature="0"
                 style="fill:#ffffff;fill-opacity:1;stroke-width:0.53571427" /><path
                 d="m 31.033106,101.56854 c 0.0375,0.01 0.07607,0.0182 0.113571,0.0246 -0.03857,-0.006 -0.07607,-0.0145 -0.113571,-0.0246 z"
                 id="path8095"
                 inkscape:connector-curvature="0"
                 style="fill:#fffedb;stroke-width:0.53571427" /><path
                 d="m 42.792034,94.603716 c -0.19125,-0.856607 -0.705535,-1.587857 -1.450714,-2.059286 -0.525,-0.330535 -1.129821,-0.505714 -1.749107,-0.505714 -1.134107,0 -2.17125,0.571071 -2.771786,1.526786 -0.725357,1.145357 -0.6525,2.570892 0.07714,3.620892 -1.953214,2.209286 -4.663928,2.310536 -5.326071,2.299822 -1.977857,-0.859286 -3.875357,-1.159286 -5.359821,-1.24125 v 2.140714 c 1.307678,0.0766 2.974821,0.36696 4.686428,1.14428 0.0027,10e-4 0.0054,10e-4 0.008,0.003 1.845535,0.83733 3.393214,2.10429 4.610892,3.77197 -0.07286,0.0927 -0.141964,0.18857 -0.204642,0.28821 -0.962143,1.52893 -0.504643,3.55929 1.019464,4.52358 0.525,0.33321 1.130893,0.50946 1.751786,0.50946 1.131964,0 2.170178,-0.57053 2.776607,-1.52786 0.9675,-1.52732 0.509464,-3.55821 -1.022143,-4.52839 -0.741429,-0.46661 -1.656429,-0.59625 -2.500179,-0.40447 -0.823928,-1.15392 -1.780178,-2.15196 -2.863393,-2.98178 1.348393,-0.41679 2.893393,-1.215535 4.167857,-2.729999 0.306429,0.09214 0.624643,0.143035 0.948215,0.143035 1.133571,0 2.170178,-0.572142 2.770714,-1.52625 0.468214,-0.736607 0.621429,-1.611964 0.430714,-2.466428 z m -5.663035,12.132854 c 0.09054,-0.14303 0.211607,-0.2625 0.360535,-0.35411 0.179465,-0.11089 0.386786,-0.16928 0.600536,-0.16928 0.214286,0 0.423214,0.06 0.601071,0.17196 0.52875,0.3359 0.687322,1.03715 0.353572,1.56375 -0.21,0.33107 -0.569464,0.52929 -0.961607,0.52929 -0.212679,0 -0.420536,-0.0605 -0.602143,-0.17518 -0.527143,-0.33429 -0.684643,-1.03768 -0.351964,-1.56643 z M 40.54632,95.921573 c -0.321429,0.509464 -1.038214,0.680893 -1.56,0.349821 l -0.05143,-0.03375 c -0.489642,-0.346607 -0.621964,-1.01625 -0.298928,-1.527321 0.206786,-0.328393 0.564107,-0.525 0.955714,-0.525 0.212679,0 0.421607,0.06054 0.602143,0.174643 0.256607,0.162857 0.435536,0.415178 0.501964,0.7125 0.06589,0.293036 0.01393,0.593571 -0.149464,0.849107 z"
                 id="path8097"
                 inkscape:connector-curvature="0"
                 style="fill:#ffffff;fill-opacity:1;stroke-width:0.53571427" /><path
                 d="m 47.45007,116.55943 c 0.227678,0.55447 0.608571,1.05107 1.129821,1.41911 0.03857,0.0279 0.08089,0.0562 0.151607,0.10232 0.525536,0.33268 1.130357,0.50839 1.750715,0.50839 1.133571,0 2.170714,-0.57214 2.77125,-1.52625 0.468749,-0.7366 0.621428,-1.6125 0.431249,-2.46642 -0.191785,-0.85608 -0.706071,-1.58786 -1.451249,-2.05929 -0.525,-0.33054 -1.129822,-0.50571 -1.749643,-0.50571 -0.06697,0 -0.133929,0.004 -0.200893,0.01 -0.380357,-1.69125 -0.492322,-4.16197 0.01875,-6.03483 0.06,0.006 0.120536,0.0129 0.180536,0.0129 1.133571,0 2.170714,-0.5716 2.77125,-1.52625 0.468749,-0.7366 0.621428,-1.61196 0.431249,-2.46643 -0.191785,-0.8566 -0.706071,-1.58785 -1.451249,-2.05928 -0.525,-0.330536 -1.129822,-0.505714 -1.749643,-0.505714 -1.1325,0 -2.170179,0.571074 -2.77125,1.526784 -0.85875,1.35643 -0.6,3.10929 0.549107,4.15982 0.01125,0.0107 0.02571,0.0198 0.03804,0.0316 -0.722679,2.42036 -0.613929,5.53072 -0.01929,7.7234 -0.07661,0.0707 -0.1575,0.13607 -0.228214,0.21375 -0.122679,0.13661 -0.238393,0.28179 -0.339643,0.44143 -0.170357,0.26893 -0.295179,0.55339 -0.380357,0.84536 -1.805893,0.26143 -2.784643,0.89518 -3.655715,1.46196 -1.090178,0.70929 -2.121964,1.37786 -5.162142,1.42768 -1.052143,-0.12321 -1.903393,-0.0948 -2.833929,-0.0621 -0.766607,0.0279 -1.558928,0.0568 -2.597678,0.002 -0.715179,-0.038 -1.127143,-0.4725 -1.8525,-1.29858 -0.965893,-1.10089 -2.260179,-2.49053 -5.019107,-2.69089 v 2.14286 c 1.765178,0.16071 2.569285,1.01143 3.405,1.96446 0.796607,0.9075 1.700893,1.93661 3.351428,2.02607 1.134643,0.0611 2.014286,0.0279 2.79,5.4e-4 1.334464,-0.0493 2.385536,-0.0862 4.208036,0.36643 1.396607,0.34446 6.481607,5.18196 7.914107,7.6725 -0.05786,0.0761 -0.117322,0.15107 -0.168215,0.2325 -0.93375,1.47589 -0.549642,3.42053 0.867322,4.42018 0.03857,0.0279 0.08089,0.0557 0.151607,0.10232 0.525536,0.33268 1.130357,0.50785 1.750714,0.50785 1.133572,0 2.170714,-0.57214 2.77125,-1.52625 0.46875,-0.73607 0.621429,-1.61196 0.43125,-2.46589 -0.191786,-0.85714 -0.706071,-1.58839 -1.45125,-2.05982 -0.525,-0.33053 -1.129821,-0.50571 -1.749643,-0.50571 -0.282857,0 -0.560893,0.0359 -0.826607,0.10446 -1.371964,-2.24303 -4.635,-5.60089 -7.065535,-7.38857 0.97125,-0.33643 1.633928,-0.76875 2.256428,-1.17214 0.765536,-0.49661 1.401429,-0.90375 2.603036,-1.10572 z m 2.078571,-14.42411 c 0.207857,-0.32893 0.564643,-0.525 0.955179,-0.525 0.21375,0 0.423214,0.0605 0.602678,0.17411 0.257143,0.16286 0.435536,0.41518 0.501965,0.7125 0.06536,0.2925 0.01286,0.5925 -0.149465,0.84857 -0.320357,0.50946 -1.038214,0.68143 -1.56,0.34982 l -0.05036,-0.0337 c -0.491786,-0.34607 -0.623036,-1.01571 -0.3,-1.52625 z m 0,12.56947 c 0.207857,-0.32893 0.564643,-0.525 0.955179,-0.525 0.21375,0 0.423214,0.06 0.602678,0.17464 0.257143,0.16286 0.435536,0.41465 0.501965,0.71197 0.06536,0.2925 0.01286,0.59303 -0.149465,0.8491 -0.320357,0.50893 -1.038214,0.6809 -1.56,0.34929 l -0.05036,-0.0337 c -0.491786,-0.34607 -0.623036,-1.01571 -0.3,-1.52625 z m 0,14.09089 c 0.207857,-0.32839 0.564643,-0.52446 0.955179,-0.52446 0.21375,0 0.423214,0.06 0.602678,0.17411 0.257143,0.16285 0.435536,0.41517 0.501965,0.7125 0.06536,0.29303 0.01286,0.5925 -0.149465,0.84857 -0.320357,0.50946 -1.038214,0.68089 -1.56,0.34982 l -0.05036,-0.0337 c -0.491786,-0.34661 -0.623036,-1.01572 -0.3,-1.52679 z"
                 id="path8099"
                 inkscape:connector-curvature="0"
                 style="fill:#ffffff;fill-opacity:1;stroke-width:0.53571427" /></g></g></g><path
           style="fill:#000000;fill-opacity:1;stroke-width:0.83333331;opacity:0.2"
           d="M 116.83398 90.433594 L 66 119.59961 L 66 123.59961 L 116.83398 94.433594 L 116.83398 90.433594 z "
           transform="matrix(0.64285712,0,0,0.64285712,-16.217428,76.108716)"
           id="polygon1720" /><path
           style="fill:#000000;fill-opacity:1;stroke-width:0.83333331;opacity:0.2"
           d="M 11 90.433594 L 11 94.433594 L 61.833984 123.59961 L 61.833984 119.59961 L 11 90.433594 z "
           transform="matrix(0.64285712,0,0,0.64285712,-16.217428,76.108716)"
           id="polygon1722" /></g></g></g></svg>