<svg xmlns="http://www.w3.org/2000/svg" xmlns:xlink="http://www.w3.org/1999/xlink" style="enable-background:new" width="128" height="128" version="1.0" viewBox="0 0 128 128">
 <title id="title4162">
  Adwaita Icon Template
 </title>
 <defs>
  <linearGradient id="linearGradient10247">
   <stop id="stop10243" offset="0" style="stop-color:#010101"/>
   <stop id="stop10245" offset="1" style="stop-color:#010101;stop-opacity:0"/>
  </linearGradient>
  <linearGradient id="linearGradient10232">
   <stop id="stop10228" offset="0" style="stop-color:#47454b"/>
   <stop id="stop10230" offset="1" style="stop-color:#dfdee0"/>
  </linearGradient>
  <linearGradient id="linearGradient1194">
   <stop style="stop-color:#5e5c64" id="stop1190" offset="0"/>
   <stop style="stop-color:#77767b" id="stop1192" offset="1"/>
  </linearGradient>
  <linearGradient id="linearGradient1188">
   <stop id="stop1184" offset="0" style="stop-color:#c0bfbc"/>
   <stop id="stop1186" offset="1" style="stop-color:#f6f5f4"/>
  </linearGradient>
  <linearGradient id="linearGradient1378">
   <stop style="stop-color:#424048" id="stop1366" offset="0"/>
   <stop id="stop1368" offset=".047" style="stop-color:#f6f5f4"/>
   <stop style="stop-color:#949390" id="stop1370" offset=".097"/>
   <stop id="stop1372" offset=".9" style="stop-color:#d5d3cf"/>
   <stop style="stop-color:#f6f5f4" id="stop1374" offset=".95"/>
   <stop style="stop-color:#424048" id="stop1376" offset="1"/>
  </linearGradient>
  <linearGradient id="linearGradient1364">
   <stop id="stop1352" offset="0" style="stop-color:#000000"/>
   <stop style="stop-color:#424048" id="stop1354" offset=".047"/>
   <stop id="stop1356" offset=".097" style="stop-color:#241f31"/>
   <stop style="stop-color:#241f31" id="stop1358" offset=".9"/>
   <stop id="stop1360" offset=".95" style="stop-color:#424048"/>
   <stop id="stop1362" offset="1" style="stop-color:#000000"/>
  </linearGradient>
  <linearGradient id="linearGradient1235">
   <stop style="stop-color:#949390" id="stop1231" offset="0"/>
   <stop style="stop-color:#424048" id="stop1233" offset="1"/>
  </linearGradient>
  <linearGradient id="linearGradient983">
   <stop id="stop979" offset="0" style="stop-color:#000000;stop-opacity:0.25098041"/>
   <stop id="stop981" offset="1" style="stop-color:#000000;stop-opacity:0.03137255"/>
  </linearGradient>
  <linearGradient id="linearGradient1282">
   <stop id="stop1278" offset="0" style="stop-color:#f6f5f4"/>
   <stop id="stop1280" offset="1" style="stop-color:#ffffff"/>
  </linearGradient>
  <linearGradient id="linearGradient1494">
   <stop id="stop1490" offset="0" style="stop-color:#babdb6"/>
   <stop id="stop1492" offset="1" style="stop-color:#babdb6;stop-opacity:0"/>
  </linearGradient>
  <linearGradient id="linearGradient1496" x1="280" x2="280" y1="172" y2="20" gradientUnits="userSpaceOnUse" xlink:href="#linearGradient1494"/>
  <linearGradient id="linearGradient2155" x1="301.624" x2="318.912" y1="113.77" y2="59.234" gradientTransform="matrix(0.25,0,0,0.25,-1e-5,225)" gradientUnits="userSpaceOnUse" xlink:href="#linearGradient1194"/>
  <linearGradient id="linearGradient1057" x1="249" x2="249" y1="125" y2="-112.155" gradientTransform="matrix(0.25,0,0,0.25,-1e-5,225)" gradientUnits="userSpaceOnUse" xlink:href="#linearGradient1188"/>
  <linearGradient id="linearGradient1284" x1="347" x2="323" y1="217" y2="-172" gradientTransform="matrix(0.25,0,0,0.25,-1e-5,225)" gradientUnits="userSpaceOnUse" xlink:href="#linearGradient1282"/>
  <linearGradient id="linearGradient1444-3-9" x1="177" x2="496" y1="619.964" y2="619.964" gradientTransform="matrix(0.25,0,0,0.24305558,-20.00001,91.56432)" gradientUnits="userSpaceOnUse" xlink:href="#linearGradient1378"/>
  <linearGradient id="linearGradient1121" x1="176" x2="495" y1="799.964" y2="799.964" gradientTransform="matrix(0.25,0,0,0.24305558,-20.00001,91.56432)" gradientUnits="userSpaceOnUse" xlink:href="#linearGradient1364"/>
  <radialGradient id="radialGradient1131" cx="128" cy="199.581" r="16" fx="128" fy="199.581" gradientUnits="userSpaceOnUse" xlink:href="#linearGradient983"/>
  <radialGradient id="radialGradient1133" cx="127.937" cy="200.072" r="8" fx="127.937" fy="200.072" gradientTransform="matrix(1.3756505,0,0,1.3756505,-47.996726,-75.471623)" gradientUnits="userSpaceOnUse" xlink:href="#linearGradient1235"/>
  <linearGradient id="linearGradient9681" x1="298.658" x2="328.098" y1="125.793" y2="70.897" gradientTransform="matrix(0.25,0,0,0.25,-1e-5,225)" gradientUnits="userSpaceOnUse" xlink:href="#linearGradient10232"/>
  <radialGradient id="radialGradient10249" cx="62.562" cy="221.951" r="36.044" fx="62.562" fy="221.951" gradientTransform="matrix(0.59826328,0.63515006,-0.1152322,0.10854002,50.709492,158.17297)" gradientUnits="userSpaceOnUse" xlink:href="#linearGradient10247"/>
 </defs>
 <g id="layer1" transform="translate(0,-172)">
  <g id="layer9">
   <circle cx="32.5" cy="172" r="0" style="opacity:0.05;fill:#ac1d2e"/>
   <rect width="80" height="70" x="24" y="222" rx="8" ry="8" style="fill:url(#linearGradient1121)"/>
   <rect width="80" height="70" x="24" y="216" rx="8" ry="8" style="fill:url(#linearGradient1444-3-9)"/>
   <rect width="80" height="104" x="24" y="180" rx="8" ry="8.457" style="fill:url(#linearGradient1284)"/>
   <g transform="matrix(0.25,0,0,0.25,-1e-5,225)" style="enable-background:new">
    <circle style="fill:url(#radialGradient1131)" cx="128" cy="204" r="16"/>
    <circle style="fill:url(#radialGradient1133)" cx="128" cy="204" r="8"/>
   </g>
   <path d="m 41.99999,184 c -2.216,0 -4,1.784 -4,4 0,3.31371 -2.68629,6 -6,6 -2.216,0 -4,1.784 -4,4 v 8 c 0,2.216 1.784,4 4,4 3.31371,0 6,2.68629 6,6 -0.003,1.47715 -0.55015,2.90139 -1.5376,4 -5.92217,6.59263 -8.44822,15.13802 -8.4624,24 0,19.88225 16.11775,36 36,36 19.88225,0 36,-16.11775 36,-36 -0.0159,-8.86282 -2.5389,-17.40831 -8.46338,-24 -0.98709,-1.09875 -1.53421,-2.52298 -1.53662,-4 0,-3.31371 2.68629,-6 6,-6 2.216,0 4,-1.784 4,-4 v -8 c 0,-2.216 -1.784,-4 -4,-4 -3.31371,0 -6,-2.68629 -6,-6 0,-2.216 -1.784,-4 -4,-4 z m 22,56 a 6,6 0 0 1 6,6 6,6 0 0 1 -6,6 6,6 0 0 1 -6,-6 6,6 0 0 1 6,-6 z" style="fill:#9a9996"/>
   <path d="m 41.99999,182 c -2.216,0 -4,1.784 -4,4 0,3.31371 -2.68629,6 -6,6 -2.216,0 -4,1.784 -4,4 v 8 c 0,2.216 1.784,4 4,4 3.31371,0 6,2.68629 6,6 -0.003,1.47715 -0.55015,2.90139 -1.5376,4 -5.92217,6.59263 -8.44822,15.13802 -8.4624,24 0,19.88225 16.11775,36 36,36 19.88225,0 36,-16.11775 36,-36 -0.0159,-8.86282 -2.5389,-17.40831 -8.46338,-24 -0.98709,-1.09875 -1.53421,-2.52298 -1.53662,-4 0,-3.31371 2.68629,-6 6,-6 2.216,0 4,-1.784 4,-4 v -8 c 0,-2.216 -1.784,-4 -4,-4 -3.31371,0 -6,-2.68629 -6,-6 0,-2.216 -1.784,-4 -4,-4 z m 22,56 a 6,6 0 0 1 6,6 6,6 0 0 1 -6,6 6,6 0 0 1 -6,-6 6,6 0 0 1 6,-6 z" style="fill:url(#linearGradient1057)"/>
   <use id="use1038" width="100%" height="100%" x="0" y="0" transform="translate(64)" xlink:href="#g1036" style="enable-background:new"/>
   <path d="M 61.398438 42.943359 C 59.000691 42.943359 56.715452 43.492114 54.636719 44.214844 A 0.92704756 0.92704756 0 0 0 54.287109 45.746094 L 64.933594 56.365234 C 66.774137 58.200694 66.774165 61.049176 64.933594 62.884766 L 60.919922 66.888672 C 59.07955 68.723952 56.213419 68.723952 54.373047 66.888672 L 43.724609 56.269531 A 0.92704756 0.92704756 0 0 0 42.195312 56.619141 C 41.470369 58.692571 40.919922 60.974688 40.919922 63.367188 C 40.919922 74.637497 50.101205 83.792969 61.398438 83.792969 C 63.58377 83.792969 65.656448 83.309301 67.583984 82.681641 L 96.205078 111.28711 C 96.439701 111.52173 96.679181 111.73155 96.917969 111.94141 C 100.91393 111.46237 104 107.89952 104 103.54297 L 104 92.753906 L 80.765625 69.535156 C 81.394633 67.613016 81.876953 65.546038 81.876953 63.367188 C 81.876953 52.096878 72.695566 42.943359 61.398438 42.943359 z" transform="translate(0,172)" style="opacity:0.1"/>
   <path d="m 61.398438,209.94922 c -2.54998,0 -4.942101,0.58013 -7.087891,1.32617 a 1.9221205,1.9221205 0 0 0 -0.726563,3.17578 l 10.646485,10.61914 c 1.467365,1.46331 1.467424,3.64593 0,5.10938 l -4.013672,4.0039 c -1.467,1.46294 -3.673625,1.46294 -5.140625,0 L 44.427734,223.56445 a 1.9221205,1.9221205 0 0 0 -3.171875,0.72657 c -0.748509,2.14083 -1.330078,4.53045 -1.330078,7.07617 0,11.80951 9.63912,21.41992 21.472657,21.41992 2.098622,0 4.052678,-0.43747 5.888671,-0.99219 l 28.214844,28.19531 c 5.237257,5.23727 11.930027,4.68446 15.595707,1.02539 3.66568,-3.65906 4.2486,-10.32756 -0.83204,-15.4082 L 81.878906,237.24023 c 0.555729,-1.83129 0.992188,-3.78043 0.992188,-5.87304 0,-11.80952 -9.639342,-21.41797 -21.472656,-21.41797 z" style="fill:url(#linearGradient9681)"/>
   <use id="use1038-9" width="100%" height="100%" x="0" y="0" transform="translate(64,-60)" xlink:href="#g1036" style="enable-background:new"/>
   <use id="use1038-7" width="100%" height="100%" x="0" y="0" transform="translate(64,-88)" xlink:href="#g1036" style="enable-background:new"/>
   <use id="use1038-2" width="100%" height="100%" x="0" y="0" transform="translate(0,-88)" xlink:href="#g1036" style="enable-background:new"/>
   <use id="use1038-3" width="100%" height="100%" x="0" y="0" transform="translate(0,-60)" xlink:href="#g1036" style="enable-background:new"/>
   <path style="opacity:0.57999998;fill:url(#radialGradient10249)" d="m 61.398438,209.84961 c -2.565301,0 -4.968555,0.58169 -7.121094,1.33008 a 2.0222693,2.0222693 0 0 0 -0.763672,3.34179 l 10.646484,10.61914 c 1.429807,1.42586 1.429869,3.54276 0,4.96876 l -4.013672,4.0039 c -1.429422,1.42546 -3.570577,1.42546 -5,0 L 44.498047,223.49414 a 2.0222693,2.0222693 0 0 0 -3.335938,0.76367 c -0.750881,2.14762 -1.335937,4.54824 -1.335937,7.10938 0,11.86378 9.684753,21.51953 21.572266,21.51953 2.090307,0 4.033718,-0.4324 5.861328,-0.98047 l 28.171875,28.1543 c 5.267269,5.26727 12.036159,4.72278 15.738279,1.02734 3.70212,-3.69544 4.27787,-10.43893 -0.83398,-15.55078 L 81.990234,237.21094 c 0.548715,-1.82239 0.980469,-3.76022 0.980469,-5.84375 0,-11.86379 -9.684987,-21.51758 -21.572265,-21.51758 z"/>
   <path d="m 61.39918,211.87039 c -2.25592,0 -4.44247,0.51766 -6.45873,1.21867 l 10.64819,10.61898 c 2.18821,2.18216 2.18821,5.65137 0,7.83365 l -4.01489,4.00387 c -2.18822,2.18216 -5.66701,2.18216 -7.85523,0 L 43.07034,224.92659 c -0.70299,2.01064 -1.22193,4.19123 -1.22193,6.44098 0,10.76797 8.75318,19.49707 19.55077,19.49707 2.25593,0 4.44248,-0.51766 6.45875,-1.21855 l 29.00274,28.98453 c 9.32243,9.32244 21.00762,-2.70043 12.04464,-11.66341 L 79.72802,237.80856 c 0.70298,-2.01064 1.22191,-4.19123 1.22191,-6.44098 0,-10.76797 -8.75317,-19.49719 -19.55077,-19.49719 z" style="fill:url(#linearGradient2155)"/>
  </g>
 </g>
</svg>
