<svg fill="none" height="128" viewBox="0 0 128 128" width="128" xmlns="http://www.w3.org/2000/svg" xmlns:xlink="http://www.w3.org/1999/xlink">
  <linearGradient id="paint0_linear" gradientUnits="userSpaceOnUse" x1="117.458" x2="10.5421" y1="123.281" y2="123.281">
    <stop offset="0" stop-color="#d5d3cf"/>
    <stop offset=".038" stop-color="#e3e2df"/>
    <stop offset=".077" stop-color="#c0bfbc"/>
    <stop offset=".923" stop-color="#c0bfbc"/>
    <stop offset=".962" stop-color="#e3e2df"/>
    <stop offset="1" stop-color="#d5d3cf"/>
  </linearGradient>
  <g clip-rule="evenodd" fill-rule="evenodd">
    <path d="m10.5421 24.4206c0-4.5563 3.668-8.2243 8.2243-8.2243h90.4676c4.556 0 8.224 3.668 8.224 8.2243v30.3271c-7.097 0-12.851 5.7533-12.851 12.8504 0 7.0972 5.754 12.8505 12.851 12.8505v30.3274c0 4.556-3.668 8.224-8.224 8.224h-32.3835c0-7.097-5.7534-12.85-12.8505-12.85s-12.8505 5.753-12.8505 12.85h-32.3831c-4.5563 0-8.2243-3.668-8.2243-8.224v-26.6265c2.7883 1.8823 6.1489 2.9813 9.7663 2.9813 9.6521 0 17.4766-7.8245 17.4766-17.4766s-7.8245-17.4766-17.4766-17.4766c-3.6174 0-6.978 1.099-9.7663 2.9813z" fill="url(#paint0_linear)"/>
    <path d="m10.5421 17.2243c0-4.5563 3.668-8.2243 8.2243-8.2243h90.4676c4.556 0 8.224 3.668 8.224 8.2243v30.3271c-7.097 0-12.851 5.7534-12.851 12.8505s5.754 12.8504 12.851 12.8504v30.3267c0 4.557-3.668 8.225-8.224 8.225h-32.3835c0-7.097-5.7534-12.8507-12.8505-12.8507s-12.8505 5.7537-12.8505 12.8507h-32.3831c-4.5563 0-8.2243-3.668-8.2243-8.225v-26.6258c2.7883 1.8824 6.1489 2.9814 9.7663 2.9814 9.6521 0 17.4766-7.8246 17.4766-17.4767 0-9.652-7.8245-17.4766-17.4766-17.4766-3.6174 0-6.978 1.099-9.7663 2.9814z" fill="#33d17a"/>
  </g>
</svg>
