<?xml version="1.0" encoding="UTF-8" standalone="no"?>
<!-- Generator: Adobe Illustrator 22.1.0, SVG Export Plug-In . SVG Version: 6.00 Build 0)  -->

<svg
   xmlns:dc="http://purl.org/dc/elements/1.1/"
   xmlns:cc="http://creativecommons.org/ns#"
   xmlns:rdf="http://www.w3.org/1999/02/22-rdf-syntax-ns#"
   xmlns:svg="http://www.w3.org/2000/svg"
   xmlns="http://www.w3.org/2000/svg"
   xmlns:sodipodi="http://sodipodi.sourceforge.net/DTD/sodipodi-0.dtd"
   xmlns:inkscape="http://www.inkscape.org/namespaces/inkscape"
   version="1.1"
   id="Layer_1"
   x="0px"
   y="0px"
   viewBox="0 0 128 128"
   xml:space="preserve"
   width="128"
   height="128"
   sodipodi:docname="icons8-pcloud.svg"
   inkscape:version="0.92.3 (2405546, 2018-03-11)"><metadata
   id="metadata21"><rdf:RDF><cc:Work
       rdf:about=""><dc:format>image/svg+xml</dc:format><dc:type
         rdf:resource="http://purl.org/dc/dcmitype/StillImage" /><dc:title></dc:title></cc:Work></rdf:RDF></metadata><defs
   id="defs19" /><sodipodi:namedview
   pagecolor="#ffffff"
   bordercolor="#666666"
   borderopacity="1"
   objecttolerance="10"
   gridtolerance="10"
   guidetolerance="10"
   inkscape:pageopacity="0"
   inkscape:pageshadow="2"
   inkscape:window-width="1920"
   inkscape:window-height="1009"
   id="namedview17"
   showgrid="false"
   inkscape:zoom="6.5234375"
   inkscape:cx="64"
   inkscape:cy="39.473054"
   inkscape:window-x="0"
   inkscape:window-y="34"
   inkscape:window-maximized="1"
   inkscape:current-layer="Layer_1" />
<path
   style="fill:#516466;stroke-width:2.5;fill-opacity:1"
   d="m 100.06641,41.261719 c -0.182191,-0.0063 -0.363598,-0.0074 -0.621098,0.01758 0.035,0.06625 0.03477,0.06437 0.02539,0.04687 2.302728,4.092838 3.119138,10.260309 3.119138,14.230469 0,3.32 -0.64453,5.722656 -0.64453,5.722656 H 26.945312 c 0,0 -0.644531,-2.402656 -0.644531,-5.722656 0,-3.9825 0.827031,-9.909453 3.144531,-14.001953 -14.099999,1.8425 -24.9999995,13.869609 -24.9999995,28.474609 0,15.8775 12.8725005,28.75 28.7499995,28.75 h 68.749998 2.5 c 11.045,0 20,-8.955 20,-20 0,-5.65 -2.35304,-10.7425 -6.12304,-14.375 -2.215,4.7875 -7.51766,6.875 -8.97266,6.875 h -0.0273 c 4.57507,-2.870763 7.62304,-7.948793 7.62304,-13.75 0,-8.975 -7.275,-16.25 -16.25,-16.25 -0.26375,0 -0.44672,-0.01133 -0.6289,-0.01758 z"
   id="path831"
   inkscape:connector-curvature="0" /><g
   id="g2"
   transform="translate(0,80)">
</g>
<path
   style="fill:#00bcd4;stroke-width:2.5"
   d="m 26.945509,57.279641 c 0,0 -0.645,-2.4025 -0.645,-5.7225 0,-3.9825 0.8275,-9.91 3.145,-14.0025 -14.1,1.8425 -25,13.87 -25,28.475 0,15.8775 12.8725,28.75 28.75,28.75 15.8775,0 71.250001,0 71.250001,0 v -37.5 z"
   id="path4"
   inkscape:connector-curvature="0" />
<circle
   style="fill:#00bcd4;stroke-width:2.5"
   cx="64.445511"
   cy="57.27964"
   r="37.5"
   id="circle6" />
<path
   style="fill:#ffffff;stroke-width:2.5"
   d="m 64.445509,87.279641 c -16.5425,0 -30,-13.4575 -30,-30 0,-16.5425 13.4575,-30 30,-30 16.5425,0 30,13.4575 30,30 0,16.5425 -13.4575,30 -30,30 z m 0,-55 c -13.785,0 -25,11.215 -25,25 0,13.785 11.215,25 25,25 13.785,0 25,-11.215 25,-25 0,-13.785 -11.215,-25 -25,-25 z"
   id="path8"
   inkscape:connector-curvature="0" />
<path
   style="fill:#ffffff;stroke-width:2.5"
   d="m 55.695509,74.779641 c -2.0725,0 -3.75,-1.68 -3.75,-3.75 v -25 c 0,-2.07 1.6775,-3.75 3.75,-3.75 h 12.5 c 6.2025,0 11.25,5.0475 11.25,11.25 0,6.2025 -5.0475,11.25 -11.25,11.25 h -8.75 v 6.25 c 0,2.07 -1.6775,3.75 -3.75,3.75 z m 3.75,-17.5 h 8.75 c 2.0675,0 3.75,-1.6825 3.75,-3.75 0,-2.0675 -1.6825,-3.75 -3.75,-3.75 h -8.75 z"
   id="path10"
   inkscape:connector-curvature="0" />
<path
   style="fill:#00bcd4;stroke-width:2.5"
   d="m 116.94551,53.529641 c 0,-8.975 -7.275,-16.25 -16.25,-16.25 -0.5275,0 -0.735001,-0.05 -1.250001,0 0.07,0.1325 -0.005,-0.0075 0,0 2.322501,4.0925 3.145001,10.2925 3.145001,14.2775 0,3.32 -0.645,5.7225 -0.645,5.7225 v 12.4375 c 8.3875,-0.64 15,-7.635 15,-16.1875 z"
   id="path12"
   inkscape:connector-curvature="0" />
<path
   style="fill:#00bcd4;stroke-width:2.5"
   d="m 118.32301,60.404641 c -2.215,4.7875 -7.5175,6.875 -8.9725,6.875 -2.6075,0 -7.405,0 -7.405,0 v 27.5 c 0.7925,-0.0575 1.615,0 2.5,0 11.045,0 20,-8.955 20,-20 0,-5.65 -2.3525,-10.7425 -6.1225,-14.375 z"
   id="path14"
   inkscape:connector-curvature="0" />
</svg>