<svg height="128" viewBox="0 0 128 128" width="128" xmlns="http://www.w3.org/2000/svg">
  <g stroke-width="2.5">
    <path d="m100.06641 41.261719c-.182191-.0063-.363598-.0074-.621098.01758.035.06625.03477.06437.02539.04687 2.302728 4.092838 3.119138 10.260309 3.119138 14.230469 0 3.32-.64453 5.722656-.64453 5.722656h-74.999998s-.644531-2.402656-.644531-5.722656c0-3.9825.827031-9.909453 3.144531-14.001953-14.099999 1.8425-24.9999995 13.869609-24.9999995 28.474609 0 15.8775 12.8725005 28.75 28.7499995 28.75h68.749998 2.5c11.045 0 20-8.955 20-20 0-5.65-2.35304-10.7425-6.12304-14.375-2.215 4.7875-7.51766 6.875-8.97266 6.875h-.0273c4.57507-2.870763 7.62304-7.948793 7.62304-13.75 0-8.975-7.275-16.25-16.25-16.25-.26375 0-.44672-.01133-.6289-.01758z" fill="#516466"/>
    <path d="m26.945509 57.279641s-.645-2.4025-.645-5.7225c0-3.9825.8275-9.91 3.145-14.0025-14.1 1.8425-25 13.87-25 28.475 0 15.8775 12.8725 28.75 28.75 28.75h71.250001v-37.5z" fill="#00bcd4"/>
    <circle cx="64.445511" cy="57.27964" fill="#00bcd4" r="37.5"/>
    <path d="m64.445509 87.279641c-16.5425 0-30-13.4575-30-30s13.4575-30 30-30 30 13.4575 30 30-13.4575 30-30 30zm0-55c-13.785 0-25 11.215-25 25s11.215 25 25 25 25-11.215 25-25-11.215-25-25-25z" fill="#fff"/>
    <path d="m55.695509 74.779641c-2.0725 0-3.75-1.68-3.75-3.75v-25c0-2.07 1.6775-3.75 3.75-3.75h12.5c6.2025 0 11.25 5.0475 11.25 11.25s-5.0475 11.25-11.25 11.25h-8.75v6.25c0 2.07-1.6775 3.75-3.75 3.75zm3.75-17.5h8.75c2.0675 0 3.75-1.6825 3.75-3.75s-1.6825-3.75-3.75-3.75h-8.75z" fill="#fff"/>
    <g fill="#00bcd4">
      <path d="m116.94551 53.529641c0-8.975-7.275-16.25-16.25-16.25-.5275 0-.735001-.05-1.250001 0 .07.1325-.005-.0075 0 0 2.322501 4.0925 3.145001 10.2925 3.145001 14.2775 0 3.32-.645 5.7225-.645 5.7225v12.4375c8.3875-.64 15-7.635 15-16.1875z"/>
      <path d="m118.32301 60.404641c-2.215 4.7875-7.5175 6.875-8.9725 6.875-2.6075 0-7.405 0-7.405 0v27.5c.7925-.0575 1.615 0 2.5 0 11.045 0 20-8.955 20-20 0-5.65-2.3525-10.7425-6.1225-14.375z"/>
    </g>
  </g>
</svg>
