<svg enable-background="new" height="128" viewBox="0 0 128 128" width="128" xmlns="http://www.w3.org/2000/svg">
  <g transform="matrix(1.8929253 0 0 1.8929253 1.0070177678 -436.04529)">
    <path d="m33.767357 232.99698c-1.073264.0131-2.098603.44652-2.855875 1.20718l-27.0696037 27.0696c-.7727953.76931-1.2059891 1.81563-1.2031604 2.90605h-.001v1.02756c-.00257 1.09058.4310004 2.1369 1.2041638 2.90605l27.0696023 27.0696c1.602822 1.61013 4.209276 1.61013 5.812097 0l27.069606-27.0696c.772796-.76931 1.205992-1.81562 1.203161-2.90605h.0011v-1.02756h-.0011c.0031-1.09042-.430365-2.13674-1.203161-2.90605l-27.069606-27.0696c-.781809-.78531-1.848179-1.22076-2.956222-1.20718z" fill="#030303" opacity=".2"/>
    <path d="m33.767357 231.94041c-1.073264.0131-2.098603.44652-2.855875 1.20718l-27.0696037 27.0696c-.7727953.76931-1.2059891 1.81563-1.2031604 2.90605h-.001v1.02756c-.00257 1.09058.4310004 2.1369 1.2041638 2.90605l27.0696023 27.0696c1.602822 1.61013 4.209276 1.61013 5.812097 0l27.069606-27.0696c.772796-.76931 1.205992-1.81562 1.203161-2.90605h.0011v-1.02756h-.0011c.0031-1.09042-.430365-2.13674-1.203161-2.90605l-27.069606-27.0696c-.781809-.78531-1.848179-1.22076-2.956222-1.20718z" fill="#e4e4e4"/>
    <g transform="translate(0 -1.135647)">
      <path d="m33.739202 238.11246a2.1491598 2.1491598 0 0 0 -1.4774.65056l-9.443607 9.44361a2.1491598 2.1491598 0 0 0 0 3.03874l6.295738 6.29572a2.1491598 2.1491598 0 0 0 3.038743 0l7.924234-7.92422 3.254897 3.257-4.249623 4.24962a2.1491598 2.1491598 0 1 0 3.038743 3.03874l5.771092-5.769a2.1491598 2.1491598 0 0 0 0-3.03874l-6.295738-6.29574a2.1491598 2.1491598 0 0 0 -3.038742 0l-7.924234 7.92214-3.254897-3.2549 7.922137-7.92422a2.1491598 2.1491598 0 0 0 -1.561343-3.68931zm-15.202108 15.23567a2.1491598 2.1491598 0 0 0 -1.487893.62748l-9.4436046 9.4436a2.1491598 2.1491598 0 1 0 3.0387416 3.03875l7.924234-7.92213 3.254897 3.25488-7.922137 7.92425a2.1491598 2.1491598 0 0 0 0 3.03874l6.295738 6.29574a2.1491598 2.1491598 0 1 0 3.038743-3.03874l-4.776365-4.77636 7.924234-7.92425a2.1491598 2.1491598 0 0 0 0-3.03874l-6.295738-6.29574a2.1491598 2.1491598 0 0 0 -1.55085-.62748zm32.091471 1.86144c-.796296-.0378-1.576082.23089-2.157339.81216l-5.246447 5.24434 11.015441 11.01755c.182379.18244.326033.38626.451195.59809l5.319897-5.3199c1.162518-1.16251 1.068906-3.12614-.209861-4.40491l-6.925307-6.92741c-.639383-.63939-1.451282-.98219-2.247579-1.01992zm-14.232562 5.46051a2.1491598 2.1491598 0 0 0 -1.487892.62747l-9.443606 9.44361a2.1491598 2.1491598 0 1 0 3.038743 3.03874l7.924234-7.92213 3.254895 3.25489-7.922135 7.92424a2.1491598 2.1491598 0 0 0 -.0063 3.03244l6.272651 6.31882a2.1491598 2.1491598 0 0 0 3.045039.004l9.443607-9.44153a2.1494576 2.1494576 0 1 0 -3.040841-3.03874l-7.917937 7.91794-3.244404-3.26748 7.930531-7.93054a2.1491598 2.1491598 0 0 0 0-3.03875l-6.295738-6.29572a2.1491598 2.1491598 0 0 0 -1.55085-.62747zm-9.959857 17.38462-2.096481 2.0986c-1.162512 1.16251-1.071007 3.12614.207761 4.40491l6.927409 6.92531c1.278765 1.27876 3.242405 1.37237 4.404917.20987l2.17203-2.17205c-.211824-.12508-.415708-.2688-.598096-.4512z" opacity=".1"/>
      <g fill="none" stroke-linecap="round" stroke-linejoin="round" stroke-width="4.29789">
        <path d="m9.1252785 263.86484 9.4428055-9.44281 6.295204 6.29519-9.442805 9.44281 6.295202 6.29522" stroke="#5092ff"/>
        <path d="m33.781491 239.20863-9.442804 9.44279 6.295205 6.29521 9.442802-9.44281 6.295203 6.29522-5.770602 5.77059" stroke="#4b70e1"/>
        <path d="m26.984102 271.18682 9.442806-9.44281 6.295202 6.29522-9.442804 9.44279 6.272787 6.31763 9.442804-9.44281" stroke="#744dec"/>
      </g>
      <path d="m24.338687 279.07824c-1.162514 1.16251-1.069746 3.12705.209021 4.40583l6.926362 6.92635c1.278766 1.27878 3.243308 1.37154 4.405822.20902l2.172173-2.17216c-.211825-.12508-.415983-.26845-.598371-.45083l-11.016606-11.01662zm18.885608-18.8856 11.016604 11.0166c.182379.18244.325671.38654.450831.59837l5.319772-5.31978c1.162513-1.16251 1.069746-3.12705-.209021-4.40582l-6.926361-6.92635c-1.278765-1.27878-3.243309-1.37154-4.405823-.20903z" fill="#283d8a"/>
    </g>
  </g>
</svg>
