<svg height="128" viewBox="0 0 102.4 102.4" width="128" xmlns="http://www.w3.org/2000/svg">
  <g transform="translate(-7.047635 -319.2)">
    <path d="m80.006835 324.53631c-3.54123.0329-6.61963.56176-8.74844 1.05937-1.06441.2488-1.89019.49005-2.42344.66094-.26662.0855-.45139.15099-.5875.20312-.034.013-.0652.023-.10625.0406-.02.009-.0413.0186-.0797.0375-2.18734-.54339-4.54287-.88002-7.09531-.92187-5.03921-.0827-9.07721 1.24072-12.20937 3.37032-1.62663-.63359-9.66251-3.58534-18.12657-3.1-4.71234.27021-9.55064 1.68357-13.07812 5.42031-3.52748 3.73675-5.58025 9.6608-5.14063 18.45.10329 2.0655.81013 6.35596 2.00157 11.67344 1.19143 5.31747 2.86722 11.55967 4.92812 17.16562 2.0609 5.60594 4.43083 10.5656 7.39844 13.45 1.4838 1.44221 3.23462 2.41174 5.16719 2.32969 1.93256-.082 3.76874-1.21576 5.42187-3.20313 3.99017-4.80038 7.2973-8.28839 7.86719-8.8875 1.72147.90925 3.6418 1.4409 5.6625 1.47657.003.0506-.0108.10112-.0172.15156-1.21279 1.41667-1.77217 2.27392-2.34218 2.72812-.64934.51741-1.7081.94466-4.73906 1.56875-1.67058.34435-2.77424.71924-3.61094 1.40157-.41836.34117-.78567.81426-.92032 1.39843-.13464.58417.007 1.18257.2375 1.60938.46034.85363 1.14607 1.28955 1.85626 1.67812.70963.38827 1.47608.67553 2.19843.85625 1.54979.38781 4.14814.87538 7.05469.37813 2.14386-.36677 4.45826-1.31698 6.52344-3.18282-.0306 3.7988.0158 7.46175.15156 10.625.0995 2.31788.24292 4.37243.43594 6.05157.19302 1.67915.3982 2.93568.7875 3.90937.56344 1.40838 1.50375 3.70019 3.5625 5.43438s5.25531 2.74437 9.63437 1.80625c3.54037-.75901 6.16433-1.92219 8.02657-3.85781 1.86184-1.93523 2.83488-4.51794 3.39531-7.76719v-.002c.66305-3.84233 1.7482-12.61523 2.25156-17.325.0174.006.0342.0118.0516.0172 1.20353.37406 2.62206.49342 4.15625.47656 3.06838-.0337 6.52025-.62096 8.93281-1.74063 2.719635-1.26304 4.845965-2.79455 5.918745-4.4125.2682-.40449.49507-.83216.55155-1.41875.0565-.58658-.23759-1.39466-.77031-1.8-1.06542-.81069-2.09445-.60338-3.49531-.31406-5.567025 1.14909-8.360145.71331-9.581245.20781-.29936-.12392-.50634-.24763-.65313-.35625 5.86099-8.91708 10.012985-18.8598 12.217185-27.39375 1.13573-4.39717 1.75753-8.41589 1.80938-11.77343.0519-3.35755-.38295-6.08943-1.84375-7.95625-6.495235-8.29947-15.548825-10.28919-22.631275-10.2234zm.0266 2.83593c6.54479-.0608 14.52233 1.66345 20.370305 9.13594.7192.9191 1.28912 3.12563 1.24219 6.16406-.0469 3.03843-.62869 6.87541-1.721875 11.10782-2.03304 7.87127-5.83891 17.11692-11.13749 25.46093-.16024-.21124-.31091-.42298-.48126-.6375 2.00401-3.32574 2.37698-6.7114 2.225-9.79375-.16172-3.27992-.81591-6.28416-.73281-8.84218.11278-3.53623 1.0434-6.03331.9125-9.74844.003-.0119.01-.0277.0125-.0391.0678-.282.0557-.4466.0469-.61093-.0177-.32865-.0751-.631-.16407-.99688-.17786-.73176-.48913-1.67189-.95468-2.79062-.9311-2.23745-2.47795-5.16162-4.78125-8.10625-2.80069-3.58043-6.7669-7.18637-12.0375-9.5125 1.90562-.39552 4.39123-.76453 7.20156-.79063zm-19.11407 1.08125c10.60943.17394 17.47475 5.54864 21.71563 10.97031 2.12044 2.71085 3.55831 5.43334 4.39688 7.44844.25973.62413.35937 1.00864.50625 1.46875-4.96929-.49163-8.36778.33526-10.26251 2.50313-2.14686 2.45636-2.02291 5.93186-1.18437 9.29375s2.45476 6.81571 3.93906 9.66406c.74215 1.42418 1.45357 2.69501 2.01563 3.70313.56205 1.0081.99439 1.81718 1.08593 2.03906.85741 2.07873 1.94902 3.553 2.80782 4.6375.59732.7543.76568 1.05599.9875 1.41406-.33734.0943-.57194.1351-1.04219.34688-.80467.36239-1.73159 1.0308-2.33281 2.13281-.58464 1.07162-.85526 2.47757-.77032 4.30469-.18706 2.44953-1.72075 15.26463-2.48437 19.68906-.51057 2.96134-1.30851 4.89338-2.64375 6.28125-1.33525 1.38787-3.33553 2.35639-6.57813 3.05156-3.73996.8012-5.78359-.0008-7.21093-1.20313-1.42734-1.20232-2.218-2.97098-2.75782-4.32031-.16199-.40516-.42038-1.60042-.60156-3.17656-.18118-1.57613-.32279-3.57791-.42031-5.85-.19505-4.54419-.21614-10.17533-.0594-15.77969.006-.17346-.0189-.34665-.075-.51093-.0613-.42175-.1648-.83286-.30781-1.21875-.53279-1.43768-1.52895-2.6956-2.97187-3.29376-.47198-.1955-1.26806-.54161-2.28125-.45312-.18306.016-.36858.0539-.55469.10156.29583-1.20388.80967-2.63773 1.4125-4.2625v-.003c1.43509-3.86025 5.32793-8.97432 2.35625-22.71718-.61922-2.86294-2.32802-4.75521-4.39844-5.55469-1.03521-.39974-2.12166-.56197-3.21562-.5625v.002c-1.09397-.00053-2.19509.16183-3.25469.40625-2.11921.48884-4.09996 1.33696-5.60781 2.17656-.0255.0142-.0451.028-.0703.0422.20677-2.55763.74409-6.38191 2.18438-10.19843 1.23485-3.27215 3.10935-6.46559 5.90937-8.79688s6.52261-3.86103 11.76875-3.775zm-28.525.22031c5.50171-.003 10.89639 1.48467 13.78125 2.42657-2.63978 2.58857-4.40171 5.77717-5.58906 8.92343-2.67964 7.10059-2.50233 14.11004-2.49844 14.25313-.00001.001.00001.002 0 .003-.00001.002.00001.005 0 .006.00003.00096 0 .0406 0 .0406.001.0214.003.0428.005.0641.004.93341.1591 2.44939.20938 4.6875.0518 2.30609-.006 5.22144-.44219 8.3375-.74897 5.35583 1.3842 10.2504 4.95781 13.26094-.929.98166-3.89566 4.14014-7.67031 8.68125-1.34476 1.61666-2.44696 2.144-3.36094 2.18281-.91397.0388-1.91794-.41271-3.06875-1.53125-2.3016-2.23708-4.71851-6.95978-6.71562-12.39219s-3.65114-11.58273-4.82188-16.80781c-1.17073-5.22508-1.8575-9.6283-1.93593-11.19688-.41479-8.29279 1.48639-13.3028 4.37031-16.35781s6.91317-4.29147 11.17656-4.53594c.53293-.0306 1.06866-.045 1.60313-.0453zm52.92344 22.29219c.76238.0142 1.6378.0959 2.57032.21094-.057 2.78517-.81171 5.09694-.92656 8.69844-.0999 3.07389.58819 6.10877.73437 9.07343.11804 2.39407-.0847 4.69931-1.19219 7.03751-.2615-.46509-.5176-.95778-.75156-1.525-.25193-.61064-.66446-1.32648-1.22813-2.33751-.56367-1.01101-1.25954-2.25387-1.97812-3.63281-1.43717-2.7579-2.9637-6.07452-3.70313-9.03906-.73943-2.96453-.6295-5.37143.56719-6.74062.89751-1.02691 2.67157-1.80573 5.90781-1.74532zm-35.34375.48281c.82138.00038 1.57854.11363 2.21094.35782 1.26479.48839 2.18408 1.36089 2.64844 3.50781 2.84281 13.1469-.53105 16.51422-2.24688 21.13125-.58039 1.56425-1.1165 3.04499-1.47656 4.50781-6.17691.0242-11.45258-5.90735-10.44063-13.14375.4645-3.32144.52283-6.38842.46875-8.79531-.0494-2.20051-.174-3.69401-.19531-4.31094.0386-.0352.0381-.0416.0906-.0844.30709-.24976.82951-.60239 1.47343-.96094 1.28786-.7171 3.07891-1.47848 4.86563-1.89062.89336-.20608 1.78018-.31912 2.60156-.31876zm33.62656.86407c-.27808-.007-.57711.01-.8875.0531-.62076.0865-1.16832.26116-1.57343.4875-.20256.11317-.37108.23874-.49375.3875-.12268.14875-.20336.33555-.17657.53281v.002c.0266.18877.12555.35721.26563.53125.14008.17405.3282.34766.55312.5.44984.30469 1.05773.52736 1.725.43437.66802-.0926 1.23494-.47421 1.63282-.89219.19893-.20898.35479-.42793.4625-.63593.10183-.19664.15777-.38035.14062-.57344-.0008-.0105.009-.0208.008-.0312v-.002h-.003c-.0284-.19589-.15473-.35502-.31249-.46406-.15855-.10957-.35398-.18402-.5797-.2375-.22571-.0535-.48285-.085-.76093-.0922zm-33.44375.70937c-.29157.007-.56237.0387-.80781.0969-.24543.0582-.4703.11436-.66406.24844-.13979.0644-.23553.15561-.30781.27187-.0692.11137-.10313.37968-.10313.37968-.0001.00074.0001.002 0 .003-.041.29458.052.51216.17188.74375.12019.23217.29151.46834.50469.69219.42634.4477 1.03108.86 1.77031.9625.73734.10218 1.40209-.14344 1.88906-.47344.24372-.16516.44645-.35203.60313-.54687.15667-.19484.28066-.38647.31718-.64844.0388-.27854-.0784-.53202-.22812-.71406-.14977-.18204-.34065-.3222-.56094-.44531-.44058-.24622-1.01176-.42416-1.65781-.51407-.32265-.045-.63499-.0632-.92656-.0562zm38.59219 30.91719c.38271.3221.65761.66473 1.275.92031 2.01883.83572 5.3355 1.14185 11.131245-.0391-.8551.79283-2.128785 1.77464-3.865615 2.58125-1.76222.81785-5.07534 1.45009-7.76875 1.47969-1.34671.0148-2.55949-.1247-3.28437-.35-.33522-.10418-.52383-.21888-.60469-.27969-.0608-1.44087.14637-2.33669.40937-2.81875.27356-.50143.57973-.71346 1.00781-.90625.42809-.1928.93868-.28222 1.56094-.50156.0394-.0139.0973-.0707.13906-.0859zm-34.11406.48281c.2245-.0196.50396.0637.95.24844.45705.18947 1.10634.86962 1.39844 1.65781.29209.78819.25188 1.52707-.10157 2.02188-2.05768 2.88121-4.46633 3.98806-6.78281 4.38437-2.31648.3963-4.53323.005-5.88906-.33437-.4752-.11878-1.06818-.34069-1.525-.59063-.14805-.081-.12644-.0926-.23438-.175.33413-.17725.73764-.41239 1.88282-.64843 3.14506-.64759 4.72005-1.16022 5.93281-2.12657 1.21275-.96635 1.72249-2.00031 3.19375-3.64375.00052-.001.001-.002.002-.003.62486-.6993.94893-.77102 1.17344-.79062z" opacity=".6"/>
    <path d="m100.75557 380.7686c-11.447235 2.36127-12.234175-1.51448-12.234175-1.51448 12.086485-17.93435 17.138995-40.69935 12.778755-46.27095-11.895095-15.19828-32.486115-8.01047-32.829745-7.82387l-.1106.0198c-2.26159-.46947-4.79263-.74916-7.63725-.79558-5.17973-.0849-9.10873 1.35791-12.09013 3.61882 0 0-36.73235-15.13229-35.02398 19.0317.36343 7.26814 10.41726 54.99395 22.40908 40.57851 4.383-5.27121 8.61786-9.72817 8.61786-9.72817 2.10343 1.39728 4.62149 2.11003 7.26131 1.85401l.20504-.17409c-.0637.65449-.0346 1.29465.0821 2.05246-3.08927 3.45156-2.18149 4.05758-8.35707 5.32878-6.24885 1.28782-2.57791 3.58059-.18114 4.17979 2.90561.72663 9.62781 1.75593 14.16989-4.60238l-.18115.72549c1.21045.96945 2.06042 6.3062 1.91797 11.14389-.14246 4.83791-.23759 8.1593.71616 10.7536.95374 2.59431 1.90431 8.43148 10.02265 6.69193 6.78364-1.45371 10.29892-5.22091 10.78797-11.50481.34704-4.46743 1.13239-3.80702 1.182-7.80111l.62991-1.89088c.72641-6.05587.11538-8.00956 4.29471-7.10088l1.01565.0892c3.07606.13996 7.10201-.49474 9.46487-1.59299 5.088015-2.36127 8.105595-6.3037 3.088805-5.2678z" fill="#1a5fb4"/>
    <path d="m80.006835 321.33631c-3.54123.0329-6.61963.56176-8.74844 1.05937-1.06441.2488-1.89019.49005-2.42344.66094-.26662.0855-.45139.15099-.5875.20312-.034.013-.0652.023-.10625.0406-.02.009-.0413.0186-.0797.0375-2.18734-.54339-4.54287-.88002-7.09531-.92187-5.03921-.0827-9.07721 1.24072-12.20937 3.37032-1.62663-.63359-9.66251-3.58534-18.12657-3.1-4.71234.27021-9.55064 1.68357-13.07812 5.42031-3.52748 3.73675-5.58025 9.6608-5.14063 18.45.10329 2.0655.81013 6.35596 2.00157 11.67344 1.19143 5.31747 2.86722 11.55967 4.92812 17.16562 2.0609 5.60594 4.43083 10.5656 7.39844 13.45 1.4838 1.44221 3.23462 2.41174 5.16719 2.32969 1.93256-.082 3.76874-1.21576 5.42187-3.20313 3.99017-4.80038 7.2973-8.28839 7.86719-8.8875 1.72147.90925 3.6418 1.4409 5.6625 1.47657.003.0506-.0108.10112-.0172.15156-1.21279 1.41667-1.77217 2.27392-2.34218 2.72812-.64934.51741-1.7081.94466-4.73906 1.56875-1.67058.34435-2.77424.71924-3.61094 1.40157-.41836.34117-.78567.81426-.92032 1.39843-.13464.58417.007 1.18257.2375 1.60938.46034.85363 1.14607 1.28955 1.85626 1.67812.70963.38827 1.47608.67553 2.19843.85625 1.54979.38781 4.14814.87538 7.05469.37813 2.14386-.36677 4.45826-1.31698 6.52344-3.18282-.0306 3.7988.0158 7.46175.15156 10.625.0995 2.31788.24292 4.37243.43594 6.05157.19302 1.67915.3982 2.93568.7875 3.90937.56344 1.40838 1.50375 3.70019 3.5625 5.43438s5.25531 2.74437 9.63437 1.80625c3.54037-.75901 6.16433-1.92219 8.02657-3.85781 1.86184-1.93523 2.83488-4.51794 3.39531-7.76719v-.002c.66305-3.84233 1.7482-12.61523 2.25156-17.325.0174.006.0342.0118.0516.0172 1.20353.37406 2.62206.49342 4.15625.47656 3.06838-.0337 6.52025-.62096 8.93281-1.74063 2.719635-1.26304 4.845965-2.79455 5.918745-4.4125.2682-.40449.49507-.83216.55155-1.41875.0565-.58658-.23759-1.39466-.77031-1.8-1.06542-.81069-2.09445-.60338-3.49531-.31406-5.567025 1.14909-8.360145.71331-9.581245.20781-.29936-.12392-.50634-.24763-.65313-.35625 5.86099-8.91708 10.012985-18.8598 12.217185-27.39375 1.13573-4.39717 1.75753-8.41589 1.80938-11.77343.0519-3.35755-.38295-6.08943-1.84375-7.95625-6.495235-8.29947-15.548825-10.28919-22.631275-10.2234zm.0266 2.83593c6.54479-.0608 14.52233 1.66345 20.370305 9.13594.7192.9191 1.28912 3.12563 1.24219 6.16406-.0469 3.03843-.62869 6.87541-1.721875 11.10782-2.03304 7.87127-5.83891 17.11692-11.13749 25.46093-.16024-.21124-.31091-.42298-.48126-.6375 2.00401-3.32574 2.37698-6.7114 2.225-9.79375-.16172-3.27992-.81591-6.28416-.73281-8.84218.11278-3.53623 1.0434-6.03331.9125-9.74844.003-.0119.01-.0277.0125-.0391.0678-.282.0557-.4466.0469-.61093-.0177-.32865-.0751-.631-.16407-.99688-.17786-.73176-.48913-1.67189-.95468-2.79062-.9311-2.23745-2.47795-5.16162-4.78125-8.10625-2.80069-3.58043-6.7669-7.18637-12.0375-9.5125 1.90562-.39552 4.39123-.76453 7.20156-.79063zm-19.11407 1.08125c10.60943.17394 17.47475 5.54864 21.71563 10.97031 2.12044 2.71085 3.55831 5.43334 4.39688 7.44844.25973.62413.35937 1.00864.50625 1.46875-4.96929-.49163-8.36778.33526-10.26251 2.50313-2.14686 2.45636-2.02291 5.93186-1.18437 9.29375s2.45476 6.81571 3.93906 9.66406c.74215 1.42418 1.45357 2.69501 2.01563 3.70313.56205 1.0081.99439 1.81718 1.08593 2.03906.85741 2.07873 1.94902 3.553 2.80782 4.6375.59732.7543.76568 1.05599.9875 1.41406-.33734.0943-.57194.1351-1.04219.34688-.80467.36239-1.73159 1.0308-2.33281 2.13281-.58464 1.07162-.85526 2.47757-.77032 4.30469-.18706 2.44953-1.72075 15.26463-2.48437 19.68906-.51057 2.96134-1.30851 4.89338-2.64375 6.28125-1.33525 1.38787-3.33553 2.35639-6.57813 3.05156-3.73996.8012-5.78359-.0008-7.21093-1.20313-1.42734-1.20232-2.218-2.97098-2.75782-4.32031-.16199-.40516-.42038-1.60042-.60156-3.17656-.18118-1.57613-.32279-3.57791-.42031-5.85-.19505-4.54419-.21614-10.17533-.0594-15.77969.006-.17346-.0189-.34665-.075-.51093-.0613-.42175-.1648-.83286-.30781-1.21875-.53279-1.43768-1.52895-2.6956-2.97187-3.29376-.47198-.1955-1.26806-.54161-2.28125-.45312-.18306.016-.36858.0539-.55469.10156.29583-1.20388.80967-2.63773 1.4125-4.2625v-.003c1.43509-3.86025 5.32793-8.97432 2.35625-22.71718-.61922-2.86294-2.32802-4.75521-4.39844-5.55469-1.03521-.39974-2.12166-.56197-3.21562-.5625v.002c-1.09397-.00053-2.19509.16183-3.25469.40625-2.11921.48884-4.09996 1.33696-5.60781 2.17656-.0255.0142-.0451.028-.0703.0422.20677-2.55763.74409-6.38191 2.18438-10.19843 1.23485-3.27215 3.10935-6.46559 5.90937-8.79688s6.52261-3.86103 11.76875-3.775zm-28.525.22031c5.50171-.003 10.89639 1.48467 13.78125 2.42657-2.63978 2.58857-4.40171 5.77717-5.58906 8.92343-2.67964 7.10059-2.50233 14.11004-2.49844 14.25313-.00001.001.00001.002 0 .003-.00001.002.00001.005 0 .006.00003.00096 0 .0406 0 .0406.001.0214.003.0428.005.0641.004.93341.1591 2.44939.20938 4.6875.0518 2.30609-.006 5.22144-.44219 8.3375-.74897 5.35583 1.3842 10.2504 4.95781 13.26094-.929.98166-3.89566 4.14014-7.67031 8.68125-1.34476 1.61666-2.44696 2.144-3.36094 2.18281-.91397.0388-1.91794-.41271-3.06875-1.53125-2.3016-2.23708-4.71851-6.95978-6.71562-12.39219s-3.65114-11.58273-4.82188-16.80781c-1.17073-5.22508-1.8575-9.6283-1.93593-11.19688-.41479-8.29279 1.48639-13.3028 4.37031-16.35781s6.91317-4.29147 11.17656-4.53594c.53293-.0306 1.06866-.045 1.60313-.0453zm52.92344 22.29219c.76238.0142 1.6378.0959 2.57032.21094-.057 2.78517-.81171 5.09694-.92656 8.69844-.0999 3.07389.58819 6.10877.73437 9.07343.11804 2.39407-.0847 4.69931-1.19219 7.03751-.2615-.46509-.5176-.95778-.75156-1.525-.25193-.61064-.66446-1.32648-1.22813-2.33751-.56367-1.01101-1.25954-2.25387-1.97812-3.63281-1.43717-2.7579-2.9637-6.07452-3.70313-9.03906-.73943-2.96453-.6295-5.37143.56719-6.74062.89751-1.02691 2.67157-1.80573 5.90781-1.74532zm-35.34375.48281c.82138.00038 1.57854.11363 2.21094.35782 1.26479.48839 2.18408 1.36089 2.64844 3.50781 2.84281 13.1469-.53105 16.51422-2.24688 21.13125-.58039 1.56425-1.1165 3.04499-1.47656 4.50781-6.17691.0242-11.45258-5.90735-10.44063-13.14375.4645-3.32144.52283-6.38842.46875-8.79531-.0494-2.20051-.174-3.69401-.19531-4.31094.0386-.0352.0381-.0416.0906-.0844.30709-.24976.82951-.60239 1.47343-.96094 1.28786-.7171 3.07891-1.47848 4.86563-1.89062.89336-.20608 1.78018-.31912 2.60156-.31876zm33.62656.86407c-.27808-.007-.57711.01-.8875.0531-.62076.0865-1.16832.26116-1.57343.4875-.20256.11317-.37108.23874-.49375.3875-.12268.14875-.20336.33555-.17657.53281v.002c.0266.18877.12555.35721.26563.53125.14008.17405.3282.34766.55312.5.44984.30469 1.05773.52736 1.725.43437.66802-.0926 1.23494-.47421 1.63282-.89219.19893-.20898.35479-.42793.4625-.63593.10183-.19664.15777-.38035.14062-.57344-.0008-.0105.009-.0208.008-.0312v-.002h-.003c-.0284-.19589-.15473-.35502-.31249-.46406-.15855-.10957-.35398-.18402-.5797-.2375-.22571-.0535-.48285-.085-.76093-.0922zm-33.44375.70937c-.29157.007-.56237.0387-.80781.0969-.24543.0582-.4703.11436-.66406.24844-.13979.0644-.23553.15561-.30781.27187-.0692.11137-.10313.37968-.10313.37968-.0001.00074.0001.002 0 .003-.041.29458.052.51216.17188.74375.12019.23217.29151.46834.50469.69219.42634.4477 1.03108.86 1.77031.9625.73734.10218 1.40209-.14344 1.88906-.47344.24372-.16516.44645-.35203.60313-.54687.15667-.19484.28066-.38647.31718-.64844.0388-.27854-.0784-.53202-.22812-.71406-.14977-.18204-.34065-.3222-.56094-.44531-.44058-.24622-1.01176-.42416-1.65781-.51407-.32265-.045-.63499-.0632-.92656-.0562zm38.59219 30.91719c.38271.3221.65761.66473 1.275.92031 2.01883.83572 5.3355 1.14185 11.131245-.0391-.8551.79283-2.128785 1.77464-3.865615 2.58125-1.76222.81785-5.07534 1.45009-7.76875 1.47969-1.34671.0148-2.55949-.1247-3.28437-.35-.33522-.10418-.52383-.21888-.60469-.27969-.0608-1.44087.14637-2.33669.40937-2.81875.27356-.50143.57973-.71346 1.00781-.90625.42809-.1928.93868-.28222 1.56094-.50156.0394-.0139.0973-.0707.13906-.0859zm-34.11406.48281c.2245-.0196.50396.0637.95.24844.45705.18947 1.10634.86962 1.39844 1.65781.29209.78819.25188 1.52707-.10157 2.02188-2.05768 2.88121-4.46633 3.98806-6.78281 4.38437-2.31648.3963-4.53323.005-5.88906-.33437-.4752-.11878-1.06818-.34069-1.525-.59063-.14805-.081-.12644-.0926-.23438-.175.33413-.17725.73764-.41239 1.88282-.64843 3.14506-.64759 4.72005-1.16022 5.93281-2.12657 1.21275-.96635 1.72249-2.00031 3.19375-3.64375.00052-.001.001-.002.002-.003.62486-.6993.94893-.77102 1.17344-.79062z" fill="#fff"/>
  </g>
</svg>
