<svg enable-background="new" height="128" viewBox="0 0 128 128" width="128" xmlns="http://www.w3.org/2000/svg">
  <g transform="translate(0 -172)">
    <path d="m20 188c-4.432 0-8 3.568-8 8v84c0 4.432 3.568001 8 8 8h39.957032 4.042968 43.29492c6.07629 0 8.66602-4.51575 8.66602-10.125v-39.875h-51.96094v-50z" fill="#414141"/>
    <path d="m20 184c-4.432 0-8 3.568-8 8v84c0 4.432 3.568001 8 8 8h40 4 44.00196c4.432 0 8-3.568 8-8v-84c0-4.432-3.568-8-8-8h-44.00196-4z" fill="#646464"/>
    <path d="m83.706783 196.86893c-1.383792-.66635-2.699723-1.06796-3.946982-1.20404-1.270142-.12927-2.427911-.044-3.473849.25633-1.045944.30032-1.969704.79392-2.77049 1.48032-.800771.68636-1.438126 1.52328-1.913041 2.50949-.300313.62366-.521333 1.20517-.66329 1.74427-.148951.55359-.247124 1.04229-.29449 1.46614-.05441.43833-.0744.80449-.0589 1.09782.01549.29329.0085.55329.0302.67098l.133626 1.315c.06193.60714-.0029 1.07795-.195022 1.40965-.180491.34125-.525895.53843-1.03718.59058-.117166.0113-.245925.0132-.386591.006-.140693-.008-.267031-.0219-.376809-.0429l-20.646655-9.94227-6.728118 13.97193c-.02109.10961-.03572.23617-.04292.3768-.0072.1406-.0053.26943.0066.38659.05216.5113.249325.85671.590586 1.0372.331701.19221.802556.25686 1.409669.195l1.314981-.1336c.117619-.0217.377675-.0151.67098-.0302.293308-.0151.659493.004 1.097811.0588.423842.0473.912573.14551 1.466159.29451.53911.14191 1.120598.36298 1.744243.6633.98623.47491 1.823121 1.11224 2.509504 1.91303.686389.80078 1.180003 1.72452 1.480324 2.77047.300327 1.04596.383944 2.20293.254712 3.47308-.136101 1.24727-.536075 2.56398-1.20244 3.94777-.666351 1.38379-1.426384 2.53563-2.280788 3.45657-.861257.89806-1.779546 1.56407-2.755532 1.99542-.975964.43134-1.990951.62862-3.044992.59133-1.054029-.0373-2.110798-.31183-3.16955-.82165-.609152-.29335-1.156876-.60575-1.640767-.93657-.483827-.33095-.892745-.64607-1.230727-.94594-.337969-.29996-.612673-.56944-.820141-.80646-.199799-.25294-.276548-.41663-.339772-.54504l-.714669-1.11303c-.330165-.51328-.674338-.84099-1.031439-.98047-.354159-.15364-.747651-.0915-1.179895.18652-.09899.0635-.200848.14249-.306321.23592-.105487.0933-.194381.18198-.267037.26689l-9.896787 20.55214 20.646656 9.94229c.109795.0212.236129.0357.376809.0429.140617.008.269428.006.386589-.006.511285-.0521.856708-.24931 1.03718-.59058.192189-.3317.256955-.80249.195024-1.40965l-.133626-1.31498c-.02173-.11773-.01474-.37769-.0302-.67098-.01549-.29333.0045-.65949.0589-1.09782.04736-.42386.145531-.91257.29449-1.46614.14194-.53912.362969-1.12061.663282-1.74425.474921-.98627 1.112265-1.82313 1.913049-2.50951.800783-.6864 1.724544-1.18 2.770481-1.48033 1.045948-.30032 2.203716-.38557 3.47386-.25634 1.247258.13606 2.563178.53771 3.946971 1.20408 1.383781.66635 2.535652 1.42637 3.45659 2.28079.898062.86124 1.564061 1.77953 1.995405 2.75552.431337.97599.628636 1.99096.591339 3.045-.0373 1.05404-.311841 2.11079-.821683 3.16955-.293332.60917-.605697 1.15688-.936637 1.64073-.330931.48382-.64607.89273-.945949 1.23071-.299922.33796-.56942.61268-.806457.82014-.25299.19977-.416638.27655-.545034.33978l-1.113005.71469c-.513285.33016-.840995.67432-.980471 1.03141-.154261.3539-.09141.74767.186614 1.1799.06374.099.142545.20095.235916.30635.0933.10563.181966.19434.266873.26704l13.877419 6.6826 9.896789-20.55215c.07262-.0849.161573-.17348.267032-.26687.10547-.0933.20725-.17216.306325-.23594.432244-.278.826025-.34091 1.179897-.18652.357163.13946.701221.46728 1.031435.98047l.714678 1.11299c.06322.12851.139998.29207.339779.54505.207435.23709.482156.50653.820134.80646.337964.29992.746899.615 1.230735.94594.483821.33097 1.03161.64323 1.64076.93657 1.058758.50982 2.115526.78434 3.169554.82167 1.054038.0372 2.069029-.16007 3.044991-.59133.975984-.43136 1.894284-1.09737 2.755542-1.99542.85439-.92094 1.61443-2.07281 2.28078-3.45659.66636-1.38378 1.06634-2.70051 1.20243-3.94777.12925-1.27015.0456-2.42712-.2547-3.47307-.30033-1.04594-.79394-1.9697-1.48033-2.77047-.68638-.8008-1.52328-1.43813-2.509498-1.91304-.62365-.30033-1.20518-.52128-1.744251-.66329-.553608-.14891-1.042314-.24713-1.466159-.29448-.438353-.0542-.80449-.0745-1.097816-.0588-.293325.0151-.553308.009-.670972.0302l-1.31498.13361c-.607155.0618-1.077962-.004-1.409671-.19501-.340998-.18103-.538424-.5259-.590581-1.03719-.0119-.11717-.0138-.24594-.0066-.38657.0072-.1406.02185-.26703.04295-.37683l6.728115-13.972-13.877413-6.68261c-.08498-.0726-.173571-.16157-.266872-.26704-.09329-.10564-.172176-.20732-.235918-.30633-.278027-.43225-.340913-.82603-.186611-1.17991.139498-.35707.467177-.70128.980467-1.03142l1.113005-.71469c.128409-.0633.292041-.14003.545034-.33978.237038-.20745.50654-.48215.80646-.82013.299879-.33799.614993-.74688.945962-1.23073.330934-.48382.643304-1.03159.936639-1.64073.509825-1.05875.784362-2.11552.821665-3.16954.0373-1.05403-.159987-2.06902-.591331-3.04499-.431344-.97601-1.097356-1.89427-1.995407-2.75554-.920939-.85442-2.072807-1.61444-3.456584-2.2808z" fill="#67e16a"/>
  </g>
</svg>
