<svg enable-background="new" height="128" viewBox="0 0 128 128" width="128" xmlns="http://www.w3.org/2000/svg" xmlns:xlink="http://www.w3.org/1999/xlink">
  <linearGradient id="linearGradient1640" gradientUnits="userSpaceOnUse" x1="8" x2="120" y1="275.999989" y2="275.999989">
    <stop offset="0" stop-color="#a51d2d"/>
    <stop offset=".034" stop-color="#ed333b"/>
    <stop offset=".071" stop-color="#c01c28"/>
    <stop offset=".928" stop-color="#c01c28"/>
    <stop offset=".964" stop-color="#ed333b"/>
    <stop offset="1" stop-color="#c01c28"/>
  </linearGradient>
  <g transform="translate(0 -172)">
    <rect fill="url(#linearGradient1640)" height="24" rx="8" width="112" x="8" y="264"/>
    <rect fill="#ed333b" height="84" rx="8" ry="8.842" width="112" x="8" y="200"/>
    <path d="m36 281.99999h56l-4-10h-48z" fill="#5e5c64" stroke="#5e5c64" stroke-linecap="round" stroke-linejoin="round" stroke-width="8"/>
    <path d="m32 282h64v6h-64z" fill="#424048"/>
    <path d="m24 207.99999h80l8 8v52.00001h-96v-52.00001z" fill="#f6f5f4"/>
    <g enable-background="new" transform="translate(0 7.999989)">
      <path d="m16 216h96v32h-96z" fill="#424048"/>
      <circle cx="40" cy="232" fill="#f6f5f4" r="6"/>
      <circle cx="88" cy="232" fill="#f6f5f4" r="6"/>
      <path d="m52 226h24v12h-24z" fill="#949390"/>
      <path d="m51.999992 226h15.35563s.64094 3.55767.64094 5.55767-.64094 6.44233-.64094 6.44233h-15.35563z" fill="#6b696c"/>
    </g>
  </g>
</svg>
