<svg enable-background="new" height="128" viewBox="0 0 128 128" width="128" xmlns="http://www.w3.org/2000/svg">
  <g transform="translate(.000062 -173)">
    <path d="m123.99993 237a59.999995 59.999995 0 0 1 -59.999985 60 59.999995 59.999995 0 0 1 -60.0000069-60 59.999995 59.999995 0 0 1 60.0000069-59.99999 59.999995 59.999995 0 0 1 59.999985 59.99999z" fill="#deddda"/>
    <rect fill="#d5d3cf" height="114" rx="56" width="112" x="8" y="179"/>
  </g>
  <g transform="translate(61.662456 -1049.4539)">
    <rect fill="#c12d25" height="120" rx="60" width="120" x="-57.66" y="1051.45"/>
    <path d="m2.3375278 1051.4538c-4.421077 0-8.713047.5072-12.8571378 1.4064v27.5556l-19.486607-19.4948c-7.309354 4.6755-13.513642 10.8797-18.189166 18.1892l19.494969 19.4865h-27.555792c-.899068 4.144-1.40625 8.436-1.40625 12.8571s.507182 8.7131 1.40625 12.8571h27.555792l-19.494969 19.4867c4.675524 7.3093 10.879812 13.5135 18.189166 18.189l19.486607-19.4948v27.5558c4.1440908.899 8.4360608 1.4062 12.8571378 1.4062s8.7130462-.5072 12.8571382-1.4062v-27.5558l19.4866 19.4948c7.309349-4.6755 13.513649-10.8797 18.189169-18.189l-19.494983-19.4867h27.555803c.89906-4.144 1.40625-8.436 1.40625-12.8571s-.50719-8.7131-1.40625-12.8571h-27.555803l19.494983-19.4865c-4.67552-7.3095-10.87982-13.5137-18.189169-18.1892l-19.4866 19.4948v-27.5556c-4.144092-.8992-8.4360612-1.4064-12.8571382-1.4064z" fill="#fff"/>
    <rect fill="#ffcb05" height="102.857" rx="51.429" transform="matrix(0 -1 -1 0 0 0)" width="102.857" x="-1162.88" y="-53.77"/>
    <rect fill="#c12d25" height="85.714" rx="42.857" transform="matrix(0 -1 -1 0 0 0)" width="85.714" x="-1154.31" y="-45.2"/>
    <path d="m-25.519611 1092.1681v8.5714h8.571432v34.2857h8.5714248v-34.2857h8.57142501v-8.5714zm29.9999948 0v42.8571h8.5714252v-17.1428h8.571426v17.1428h8.571425v-42.8571h-8.571425v17.1428h-8.571426v-17.1428z" opacity=".2"/>
    <g fill="#fffcf7" transform="matrix(4.2857127 0 0 4.2857127 -68.376737 1042.8824)">
      <path d="m12 11h2v10h-2z"/>
      <path d="m11-16h2v6h-2z" transform="rotate(90)"/>
      <path d="m17 11h2v10h-2z"/>
      <path d="m15-23h2v6h-2z" transform="rotate(90)"/>
      <path d="m21 11h2v10h-2z"/>
    </g>
  </g>
  <path d="m64.044695 10.696461a50.988329 50.988329 0 0 0 -50.988328 50.988329 50.988329 50.988329 0 0 0 .03919 1.105597 50.988329 50.988329 0 0 1 50.949143-50.20547 50.988329 50.988329 0 0 1 50.94915 49.881817 50.988329 50.988329 0 0 0 .0392-.781944 50.988329 50.988329 0 0 0 -50.988339-50.988329z" opacity=".1"/>
</svg>
