<svg enable-background="new" height="128" viewBox="0 0 128 128" width="128" xmlns="http://www.w3.org/2000/svg">
  <g transform="matrix(2.93349736104 0 0 2.93101626752 -8.02271648295 -735.42208600289)">
    <path d="m30.793709 256.9542c-3.045807.0561-6.556271.92279-10.097536 2.65213-5.235372 2.55662-9.171609 6.31678-10.9577497 10.65183-.6361942-.17756-1.3261468-.2363-2.6924988-1.22678-1.3663419-.99048-2.8396405-3.63102-2.8396405-3.63102s-.6937641 5.02498 1.4348009 8.08234c1.0911499 1.56727 2.2349249 2.54515 3.0886502 3.12925.121603 1.39212.4907886 2.76742 1.1405168 4.10014 3.6784641 7.54538 14.1960251 9.98348 23.4941141 5.44286 5.964661-2.91276 7.736604-7.3339 7.799192-12.91547.31669.0855.580845.18331.769664.30319 1.488933.94531 1.894872 2.83605 1.894872 2.83605s2.165381-4.59114.676452-8.50748c-.828591-2.17944-2.518748-3.27091-4.206529-3.7383-.06553-.42438-.130223-.84638-.199076-1.27875-.602008-3.78045-4.053351-5.81937-8.702016-5.89999-.198792-.003-.400162-.004-.603216 0z" fill="#060603" opacity=".2"/>
    <path d="m16.642956 257.57608s-4.625206 2.071-6.091204 5.49636c-1.4660007 3.42536-.9390505 5.83412-.9390505 5.83412l6.6185665-.9046s-1.128523-1.73114-1.053899-4.8175c.07462-3.08636 1.465587-5.60838 1.465587-5.60838z" fill="#568d21"/>
    <path d="m8.7990473 259.08977s-2.662714 4.31459-1.951821 7.97242c.710886 3.65784 2.499342 5.35378 2.499342 5.35378l4.9664607-4.47105s-1.905535-.79711-3.576908-3.39191c-1.6713717-2.59479-1.9370737-5.46324-1.9370737-5.46324z" fill="#568d21"/>
    <path d="m31.396826 256.27168c-3.180667-.0552-6.923362.80774-10.700711 2.65237-5.235372 2.55662-9.171435 6.31649-10.9575755 10.65154-.6361942-.17756-1.3265442-.2363-2.6928962-1.22678-1.366342-.99048-2.839145-3.63095-2.839145-3.63095s-.69387 5.02512 1.434695 8.08248c1.09115 1.56727 2.234947 2.54482 3.088672 3.12892.121603 1.39212.490512 2.76807 1.1402402 4.10079 3.6784645 7.54538 14.1958575 9.98329 23.4939465 5.44267 9.298092-4.5406 8.416322-12.74182 6.734933-23.30064-.602009-3.78045-4.053494-5.81978-8.702159-5.9004z" fill="#789e2d"/>
    <ellipse cx="32.258957" cy="261.21179" fill="none" rx="2.367472" ry="2.191037"/>
    <ellipse cx="32.258957" cy="261.21179" fill="#d3d7cf" rx="2.367472" ry="2.191037"/>
    <path d="m35.83079 266.25013s-7.274113 7.44837-4.594176 9.35819c2.679936 1.90985 10.911164-1.71886 11.102584-4.77457.191444-3.05575-6.508408-4.58362-6.508408-4.58362z" fill="#ebe000"/>
    <path d="m36.704921 263.29068c-1.981412.41533-3.976246 3.62787-3.164103 6.32877.812146 2.70091 6.903212 2.29578 8.392142 3.24112 1.488932.94531 1.895 2.83593 1.895 2.83593s2.165716-4.59153.676786-8.50787c-1.488929-3.91633-5.759995-4.32552-7.799825-3.89795z" fill="#d9a100"/>
    <path d="m35.83079 266.25013s-7.274113 7.44837-4.594176 9.35819c2.679936 1.90985 10.911164-1.71886 11.102584-4.77457.191444-3.05575-6.508408-4.58362-6.508408-4.58362z" fill="none"/>
    <ellipse cx="31.911207" cy="261.63605" fill="#3b3100" opacity=".848" rx="1.397499" ry="1.293351"/>
  </g>
</svg>
