<svg width="128" height="128" viewBox="0 0 128 128" fill="none" xmlns="http://www.w3.org/2000/svg">
<g id="preferences-system-network-vpn">
<g id="world">
<path id="Vector" fill-rule="evenodd" clip-rule="evenodd" d="M9.11499 58.6081L9.11513 60.4405L12.7917 60.2945L12.875 58.4635L9.11499 58.6081Z" fill="url(#paint0_linear)"/>
<path id="Vector_2" d="M64 119C94.3757 119 119 94.3757 119 64C119 33.6243 94.3757 9 64 9C33.6243 9 9 33.6243 9 64C9 94.3757 33.6243 119 64 119Z" fill="url(#paint1_linear)"/>
<path id="Vector_3" opacity="0.1" fill-rule="evenodd" clip-rule="evenodd" d="M108 95.1669H96.9998V108.011C102.171 103.854 104.597 101.436 108 97.0002V95.1669Z" fill="white"/>
<path id="Vector_4" fill-rule="evenodd" clip-rule="evenodd" d="M102.5 58.5001V60.3335H106.166V58.5001H102.5Z" fill="url(#paint2_linear)"/>
<g id="Group">
<path id="Vector_5" opacity="0.1" d="M82.3331 78.6668H76.8331V80.5001H82.3331V78.6668Z" fill="white"/>
<path id="Vector_6" opacity="0.1" d="M32.8333 60.3334H29.1666V62.1668H32.8333V60.3334Z" fill="white"/>
<path id="Vector_7" opacity="0.1" d="M40.1666 29.1668H34.6666V31.0001H40.1666V29.1668Z" fill="white"/>
<path id="Vector_8" opacity="0.1" d="M45.6664 51.1668H41.9998V53.0001H45.6664V51.1668Z" fill="white"/>
<path id="Vector_9" opacity="0.1" d="M96.9999 49.3335H93.3332V51.1668H96.9999V49.3335Z" fill="white"/>
</g>
<path id="Vector_10" opacity="0.2" fill-rule="evenodd" clip-rule="evenodd" d="M43.8332 115.185V111.667L49.3332 106.167V102.5L54.8332 97.0001V93.3334L58.4999 89.6668V82.3334L54.8332 78.6668H47.4999L43.8332 75.0001H32.8332L29.1666 78.6668V87.8334L36.6144 95.2978L36.5354 111.662C38.8654 113.008 41.3035 114.188 43.8332 115.185V115.185ZM9.11353 60.4357L27.3332 76.8334V71.3334L23.6666 67.6668L29.1666 62.1668H32.8332L36.4999 65.8334L36.6144 58.1318L41.9999 53.0001H45.6666V49.3335L49.3332 45.6668V40.1668L45.4169 36.6147L36.4999 36.5001V43.8335H32.8332L29.1666 40.1668V36.5001L34.6666 31.0001H40.1666V27.3335L36.4999 23.6668H26.6067C16.5909 32.9568 10.0413 45.9317 9.11353 60.4357V60.4357ZM41.5516 13.7749L49.3332 20.0001V27.3335L56.6666 34.6668H60.3332V31.0001L65.8332 25.5001V21.8335L69.4999 18.1668V9.27168C67.6909 9.09207 65.8561 9.00012 63.9999 9.00012C56.0038 9.00012 48.4063 10.7065 41.5516 13.7749ZM108 97.0056C104.871 101.169 101.166 104.874 97.0017 108.003L87.8332 98.8334V87.8334L85.9999 86.0001V84.1668L82.3332 80.5001H76.8332L69.4999 73.1668V65.8334L76.8332 58.5001H89.6666L91.4999 60.3334H102.5V64.0001L111.667 73.1668V80.5001L108 84.1668V97.0056ZM117.773 75.6066L102.5 60.3334H106.167L108 58.5001V56.6668H102.5L96.9999 51.1668H93.3332V53.0001L95.1666 54.8335V56.6668H93.3332L89.6666 53.0001V51.1668H82.3332V54.8335H73.1666V47.5001H80.4999V42.0001H84.1666V38.3335H93.3332L95.1666 36.6147V32.7025H91.4999V34.6668H85.9999V31.0001L91.4999 25.5001H93.3332H103.278C113.003 35.4207 119 49.0101 119 64.0001C119 67.9819 118.576 71.8649 117.773 75.6066ZM104.333 49.3335H100.667L106.167 54.8335H109.833L104.333 49.3335Z" fill="black"/>
<path id="Vector_11" fill-rule="evenodd" clip-rule="evenodd" d="M69.4999 9.27168C67.6909 9.09208 65.8561 9.00012 63.9999 9.00012C56.579 9.00012 49.5013 10.4698 43.0422 13.134L49.3332 18.1668V25.5001L56.6665 32.8335H60.3332V29.1668L65.8332 23.6668V20.0001L69.4999 16.3335V9.27168ZM9.24957 58.7249C10.6565 43.9404 17.916 30.8623 28.6854 21.8335H36.4999L40.1665 25.5001V29.1668H34.6665L29.1665 34.6668V38.3335L32.8332 42.0001H36.4999V34.6668L45.4168 34.7814L49.3332 38.3335V43.8335L45.6665 47.5001V51.1668H41.9999L36.6144 56.2985L36.4999 64.0001L32.8332 60.3334H29.1665L23.6665 65.8334L27.3332 69.5001V75.0001L9.24957 58.7249ZM43.8332 115.185C41.3003 114.187 38.8593 113.005 36.5265 111.658L36.6144 93.4644L29.1665 86.0001V76.8334L32.8332 73.1668H43.8332L47.4999 76.8334H54.8332L58.4999 80.5001V87.8334L54.8332 91.5001V95.1668L49.3332 100.667V104.333L43.8332 109.833V115.185ZM108 97.0056C105.133 100.821 101.782 104.251 98.0385 107.205L87.8332 97.0001V86.0001L85.9999 84.1668V82.3334L82.3332 78.6668H76.8332L69.4999 71.3334V64.0001L76.8332 56.6668H89.6665L91.4999 58.5001H102.5V62.1668L111.667 71.3334V78.6668L108 82.3334V97.0056ZM118.079 74.0788L102.5 58.5001H106.167L108 56.6668V54.8334H102.5L96.9999 49.3334H93.3332V51.1668L95.1665 53.0001V54.8334H93.3332L89.6665 51.1668V49.3334H82.3332V53.0001H73.1665V45.6668H80.4999V40.1668H84.1665V36.5001H93.3332L95.1665 34.7814V30.8691H91.4999V32.8335H85.9999V29.1668L91.4999 23.6668H93.3332H101.393C112.223 33.7116 119 48.0644 119 64.0001C119 67.4427 118.684 70.8114 118.079 74.0788ZM104.333 47.5001H100.667L106.167 53.0001H109.833L104.333 47.5001Z" fill="url(#paint3_linear)"/>
<path id="Vector_12" opacity="0.1" d="M95.1665 54.8335H93.3332V56.6668H95.1665V54.8335Z" fill="white"/>
<path id="Vector_13" opacity="0.1" d="M108 54.8335H102.5V56.6668H108V54.8335Z" fill="white"/>
<path id="Vector_14" opacity="0.1" d="M95.1665 30.8691H91.4999V32.7025H95.1665V30.8691Z" fill="white"/>
<path id="Vector_15" opacity="0.1" d="M60.3332 32.8335H56.6666V34.6668H60.3332V32.8335Z" fill="white"/>
<path id="Vector (Stroke)" fill-rule="evenodd" clip-rule="evenodd" d="M64 113.5C91.3381 113.5 113.5 91.3381 113.5 64C113.5 36.6619 91.3381 14.5 64 14.5C36.6619 14.5 14.5 36.6619 14.5 64C14.5 91.3381 36.6619 113.5 64 113.5ZM119 64C119 94.3757 94.3757 119 64 119C33.6243 119 9 94.3757 9 64C9 33.6243 33.6243 9 64 9C94.3757 9 119 33.6243 119 64Z" fill="url(#paint4_linear)"/>
</g>
<g id="shield">
<path id="Vector_16" fill-rule="evenodd" clip-rule="evenodd" d="M37.2149 43.9687C35.3892 68.4095 45.2926 87.9386 63.2123 99.7694C63.6152 100.122 63.7903 100.038 64.2081 99.7342C82.0928 87.8996 91.9758 68.3842 90.1522 43.9665C69.8396 38.6446 55.7042 38.7112 37.2163 43.9665L37.2149 43.9687Z" fill="url(#paint5_linear)"/>
<path id="Vector_17" fill-rule="evenodd" clip-rule="evenodd" d="M86.2004 46.9733C87.7494 68.301 79.346 85.3428 64.1397 95.6662C63.7978 95.9744 63.6492 95.9003 63.2947 95.6355C48.1186 85.3084 39.7322 68.2784 41.2798 46.9709C57.777 42.4532 70.5111 42.3848 86.2003 46.9709L86.2004 46.9733Z" fill="url(#paint6_linear)"/>
<path id="Vector_18" fill-rule="evenodd" clip-rule="evenodd" d="M82.714 49.6994C84.0158 67.6043 76.9532 81.9111 64.173 90.5777C63.8857 90.8365 63.7608 90.7743 63.4629 90.552C50.7081 81.8822 43.6598 67.5853 44.9604 49.6974C58.8255 45.9047 69.5279 45.8473 82.7139 49.6974L82.714 49.6994Z" fill="url(#paint7_linear)"/>
</g>
</g>
<defs>
<linearGradient id="paint0_linear" x1="9.11499" y1="59.452" x2="12.875" y2="59.452" gradientUnits="userSpaceOnUse">
<stop stop-color="#57E389"/>
</linearGradient>
<linearGradient id="paint1_linear" x1="9.00001" y1="64" x2="119" y2="64" gradientUnits="userSpaceOnUse">
<stop stop-color="#5E5C64"/>
</linearGradient>
<linearGradient id="paint2_linear" x1="102.5" y1="59.4168" x2="106.166" y2="59.4168" gradientUnits="userSpaceOnUse">
<stop stop-color="#F6F5F4"/>
</linearGradient>
<linearGradient id="paint3_linear" x1="9.24957" y1="62.0925" x2="119" y2="62.0925" gradientUnits="userSpaceOnUse">
<stop stop-color="#F6F5F4"/>
</linearGradient>
<linearGradient id="paint4_linear" x1="9.00001" y1="64" x2="119" y2="64" gradientUnits="userSpaceOnUse">
<stop stop-color="#5E5C64"/>
</linearGradient>
<linearGradient id="paint5_linear" x1="37" y1="70" x2="90.367" y2="70" gradientUnits="userSpaceOnUse">
<stop stop-color="#E5A50A"/>
</linearGradient>
<linearGradient id="paint6_linear" x1="41.0975" y1="69.7122" x2="86.3827" y2="69.7122" gradientUnits="userSpaceOnUse">
<stop stop-color="#5E5C64"/>
</linearGradient>
<linearGradient id="paint7_linear" x1="44.8072" y1="68.789" x2="82.8672" y2="68.789" gradientUnits="userSpaceOnUse">
<stop stop-color="#E5A50A"/>
</linearGradient>
</defs>
</svg>
