<svg width="128" height="128" viewBox="0 0 128 128" fill="none" xmlns="http://www.w3.org/2000/svg">
<g id="preferences-log">
<rect id="Rectangle 69" x="13" y="21" width="103" height="95" fill="url(#paint0_linear)"/>
<path id="Vector" d="M12.1842 24.125V34.125L114.224 34.125V24.125L12.1842 24.125Z" fill="url(#paint1_linear)"/>
<path id="Vector_2" fill-rule="evenodd" clip-rule="evenodd" d="M112.202 23.1261H14.7981V112.874H112.202V23.1261ZM11.7981 19C10.2527 19 9 20.3996 9 22.1261V115.874C9 117.6 10.2527 119 11.7981 119H116.202C117.748 119 119 117.6 119 115.874V22.1261C119 20.3996 117.748 19 116.202 19H11.7981Z" fill="url(#paint2_linear)"/>
<path id="Vector_3" d="M8.96875 17.4549C8.96875 15.9265 10.2077 14.6875 11.7362 14.6875H116.233C117.762 14.6875 119 15.9265 119 17.4549V25.125H8.96875V17.4549Z" fill="url(#paint3_linear)"/>
<g id="Group 1">
<path id="Vector_4" d="M96.0312 20.9688H88.0938V22.9789H96.0312V20.9688Z" fill="url(#paint4_linear)"/>
<path id="Vector_5" d="M114.16 21.4851L109.657 16.9825L108.211 18.4288L112.713 22.9314L114.16 21.4851Z" fill="url(#paint5_linear)"/>
<path id="Vector_6" d="M109.721 22.9789L114.224 18.4763L112.73 16.9823L108.227 21.4849L109.721 22.9789Z" fill="url(#paint6_linear)"/>
<path id="Vector (Stroke)" fill-rule="evenodd" clip-rule="evenodd" d="M99.0795 17.1856H104.883V22.9789H99.0795V17.1856ZM100.55 18.6558V21.5087H103.413V18.6558H100.55Z" fill="url(#paint7_linear)"/>
</g>
<g id="Group 13">
<rect id="Rectangle 8" x="21.0312" y="38.25" width="38.5133" height="9.52967" rx="2" fill="url(#paint8_linear)"/>
<rect id="Rectangle 9" x="21.0312" y="53.1801" width="24.9753" height="9.52967" rx="2" fill="url(#paint9_linear)"/>
<rect id="Rectangle 10" x="21.0312" y="68.1102" width="24.9753" height="9.52967" rx="2" fill="url(#paint10_linear)"/>
<rect id="Rectangle 11" x="21.0312" y="83.0402" width="24.9753" height="9.52967" rx="2" fill="url(#paint11_linear)"/>
<rect id="Rectangle 12" x="21.0312" y="97.9703" width="24.9753" height="9.52967" rx="2" fill="url(#paint12_linear)"/>
<rect id="Rectangle 13" x="51.6084" y="53.1801" width="30.8106" height="9.52967" rx="2" fill="url(#paint13_linear)"/>
<rect id="Rectangle 14" x="51.6084" y="68.1102" width="39.4469" height="9.52967" rx="2" fill="url(#paint14_linear)"/>
<rect id="Rectangle 15" x="51.6084" y="83.0402" width="24.5084" height="9.52967" rx="2" fill="url(#paint15_linear)"/>
<rect id="Rectangle 16" x="51.6084" y="97.9703" width="44.4228" height="9.52967" rx="2" fill="url(#paint16_linear)"/>
</g>
</g>
<defs>
<linearGradient id="paint0_linear" x1="13" y1="68.5" x2="116" y2="68.5" gradientUnits="userSpaceOnUse">
<stop stop-color="#F6F5F4"/>
</linearGradient>
<linearGradient id="paint1_linear" x1="63.2038" y1="34.125" x2="63.2038" y2="24.125" gradientUnits="userSpaceOnUse">
<stop stop-color="#F66151"/>
</linearGradient>
<linearGradient id="paint2_linear" x1="9" y1="64" x2="119" y2="64" gradientUnits="userSpaceOnUse">
<stop stop-color="#5E5C64"/>
</linearGradient>
<linearGradient id="paint3_linear" x1="9.20493" y1="18.4062" x2="118" y2="18.4062" gradientUnits="userSpaceOnUse">
<stop stop-color="#5E5C64"/>
</linearGradient>
<linearGradient id="paint4_linear" x1="88.0938" y1="21.9738" x2="96.0312" y2="21.9738" gradientUnits="userSpaceOnUse">
<stop stop-color="#F6F5F4"/>
</linearGradient>
<linearGradient id="paint5_linear" x1="108.934" y1="17.7056" x2="113.437" y2="22.2082" gradientUnits="userSpaceOnUse">
<stop stop-color="#F6F5F4"/>
</linearGradient>
<linearGradient id="paint6_linear" x1="113.477" y1="17.7293" x2="108.974" y2="22.2319" gradientUnits="userSpaceOnUse">
<stop stop-color="#F6F5F4"/>
</linearGradient>
<linearGradient id="paint7_linear" x1="99.0795" y1="20.0823" x2="104.883" y2="20.0823" gradientUnits="userSpaceOnUse">
<stop stop-color="#F6F5F4"/>
</linearGradient>
<linearGradient id="paint8_linear" x1="21.0313" y1="43.0148" x2="59.5445" y2="43.0148" gradientUnits="userSpaceOnUse">
<stop stop-color="#5E5C64"/>
</linearGradient>
<linearGradient id="paint9_linear" x1="21.0313" y1="57.9449" x2="46.0065" y2="57.9449" gradientUnits="userSpaceOnUse">
<stop stop-color="#5E5C64"/>
</linearGradient>
<linearGradient id="paint10_linear" x1="21.0313" y1="72.875" x2="46.0065" y2="72.875" gradientUnits="userSpaceOnUse">
<stop stop-color="#5E5C64"/>
</linearGradient>
<linearGradient id="paint11_linear" x1="21.0313" y1="87.8051" x2="46.0065" y2="87.8051" gradientUnits="userSpaceOnUse">
<stop stop-color="#5E5C64"/>
</linearGradient>
<linearGradient id="paint12_linear" x1="21.0313" y1="102.735" x2="46.0065" y2="102.735" gradientUnits="userSpaceOnUse">
<stop stop-color="#5E5C64"/>
</linearGradient>
<linearGradient id="paint13_linear" x1="51.6084" y1="57.9449" x2="82.419" y2="57.9449" gradientUnits="userSpaceOnUse">
<stop stop-color="#5E5C64"/>
</linearGradient>
<linearGradient id="paint14_linear" x1="51.6084" y1="72.875" x2="91.0553" y2="72.875" gradientUnits="userSpaceOnUse">
<stop stop-color="#5E5C64"/>
</linearGradient>
<linearGradient id="paint15_linear" x1="51.6084" y1="87.8051" x2="76.1168" y2="87.8051" gradientUnits="userSpaceOnUse">
<stop stop-color="#5E5C64"/>
</linearGradient>
<linearGradient id="paint16_linear" x1="51.6084" y1="102.735" x2="96.0312" y2="102.735" gradientUnits="userSpaceOnUse">
<stop stop-color="#5E5C64"/>
</linearGradient>
</defs>
</svg>
