<svg fill="none" height="128" viewBox="0 0 128 128" width="128" xmlns="http://www.w3.org/2000/svg" xmlns:xlink="http://www.w3.org/1999/xlink">
  <linearGradient id="paint0_linear" gradientUnits="userSpaceOnUse" x1="116" x2="12" y1="117.999" y2="117.999">
    <stop offset="0" stop-color="#d5d3cf"/>
    <stop offset=".038" stop-color="#e3e2df"/>
    <stop offset=".077" stop-color="#c0bfbc"/>
    <stop offset=".923" stop-color="#c0bfbc"/>
    <stop offset=".962" stop-color="#e3e2df"/>
    <stop offset="1" stop-color="#d5d3cf"/>
  </linearGradient>
  <path d="m108 68h-88c-4.4183 0-8 3.5817-8 8v32c0 4.418 3.5817 8 8 8h88c4.418 0 8-3.582 8-8v-32c0-4.4183-3.582-8-8-8z" fill="url(#paint0_linear)"/>
  <path d="m20 10c-4.432 0-8 3.568-8 8v42 42c0 4.432 3.568 8 8 8h44 44c4.432 0 8-3.568 8-8v-42-42c0-4.432-3.568-8-8-8z" fill="#3d3846"/>
  <path d="m12 18c0-4.432 3.568-8 8-8h88c4.432 0 8 3.568 8 8v42h-104z" fill="#3584e4"/>
  <g clip-rule="evenodd" fill-rule="evenodd">
    <path d="m51.8586 17.0015c-1.2111.2311-2.08 1.3005-2.0583 2.5333v32.9323c.0002 1.399 1.1343 2.5331 2.5333 2.5333h25.3326c1.399-.0002 2.5331-1.1343 2.5332-2.5333v-23.9076c.0157-.6778-.2409-1.3336-.7125-1.8208l-9.0247-9.0247c-.4871-.4716-1.143-.7282-1.8208-.7125h-16.3078c-.0791-.0025-.1583-.0025-.2374 0-.0791-.0025-.1583-.0025-.2374 0zm.5506 2.5635 10.0564.0603v10.5175l-1.3458 1.3458-1.3458-1.1875v-5.8581h-2.5332v6.4914.5542l.3958.3958 2.6124 2.2958.95.7916.7916-.8708 2.6124-2.6124.3959-.3167v-.5541-10.9774l2.5797.0155-.0455 9.9663 2.5323.0338v7.6116h-16.3079v2.5332h17.5745 1.2666v-1.2666-8.8444l5.1739.069-.091 22.6781-25.1812.0456z" fill="#241f31" opacity=".5"/>
    <path d="m46 85.625c0-10.4779 8.5221-19 19-19s19 8.5221 19 19-8.5221 19-19 19-19-8.5221-19-19zm35.4189-1.2667c-.5651-7.466-6.0854-13.5245-13.2899-14.9045 3.8455 4.6723 6.0003 9.9029 6.2885 14.9045zm-19.5493-14.9042c-3.8446 4.6738-5.9976 9.9044-6.2867 14.9042h-7.0018c.565-7.4655 6.0847-13.5237 13.2885-14.9042zm-3.7478 14.9042c.3215-4.7996 2.6271-10.0303 6.8784-14.6367 4.2535 4.607 6.5575 9.8384 6.8782 14.6367zm-2.5273 2.5334h-7.0139c.1315 1.7295.5359 3.4301 1.2008 5.038.8265 1.999 2.0394 3.8153 3.569 5.3449s3.3459 2.7424 5.3449 3.5694c1.0245.423 2.0867.741 3.17.95-3.8673-4.6936-5.9456-9.8562-6.2708-14.9023zm9.4055 14.6383c-4.302-4.6468-6.5138-9.7518-6.8668-14.6383h13.7334c-.3534 4.8877-2.5652 9.9922-6.8666 14.6383zm16.4189-14.6383c-.565 7.4647-6.0834 13.5223-13.2861 14.9033 3.8675-4.6942 5.9478-9.8578 6.2728-14.9033z" fill="#241f31" opacity=".5"/>
    <path d="m50.8586 16.0015c-1.2111.2311-2.08 1.3005-2.0583 2.5333v32.9323c.0002 1.399 1.1343 2.5331 2.5333 2.5333h25.3326c1.399-.0002 2.5331-1.1343 2.5332-2.5333v-23.9076c.0157-.6778-.2409-1.3336-.7125-1.8208l-9.0247-9.0247c-.4871-.4716-1.143-.7282-1.8208-.7125h-16.3078c-.0791-.0025-.1583-.0025-.2374 0-.0791-.0025-.1583-.0025-.2374 0zm.5506 2.5635 10.0564.0603v10.5175l-1.3458 1.3458-1.3458-1.1875v-5.8581h-2.5332v6.4914.5542l.3958.3958 2.6124 2.2958.95.7916.7916-.8708 2.6124-2.6124.3959-.3167v-.5541-10.9774l2.5797.0155-.0455 9.9663 2.5323.0338v7.6116h-16.3079v2.5332h17.5745 1.2666v-1.2666-8.8444l5.1739.069-.091 22.6781-25.1812.0456z" fill="#f6f5f4"/>
    <path d="m45 84.625c0-10.4779 8.5221-19 19-19s19 8.5221 19 19-8.5221 19-19 19-19-8.5221-19-19zm35.4189-1.2667c-.5651-7.466-6.0854-13.5245-13.2899-14.9045 3.8455 4.6723 6.0003 9.9029 6.2885 14.9045zm-19.5493-14.9042c-3.8446 4.6738-5.9976 9.9044-6.2867 14.9042h-7.0018c.565-7.4655 6.0847-13.5237 13.2885-14.9042zm-3.7478 14.9042c.3215-4.7996 2.6271-10.0303 6.8784-14.6367 4.2535 4.607 6.5575 9.8384 6.8782 14.6367zm-2.5273 2.5334h-7.0139c.1315 1.7295.5359 3.4301 1.2008 5.038.8265 1.999 2.0394 3.8153 3.569 5.3449s3.3459 2.7425 5.3449 3.569c1.0245.4234 2.0867.7414 3.17.9504-3.8673-4.6936-5.9456-9.8562-6.2708-14.9023zm9.4055 14.6383c-4.302-4.6468-6.5138-9.7518-6.8668-14.6383h13.7334c-.3534 4.8877-2.5652 9.9922-6.8666 14.6383zm16.4189-14.6383c-.565 7.4647-6.0834 13.5224-13.2861 14.9033 3.8675-4.6942 5.9478-9.8578 6.2728-14.9033z" fill="#f6f5f4"/>
  </g>
</svg>
