<svg width="128" height="128" viewBox="0 0 128 128" fill="none" xmlns="http://www.w3.org/2000/svg">
<g id="preferences-system-network-server-nis">
<g id="server">
<g id="Group">
<path id="Vector" opacity="0.2" d="M12.9999 105.62V89.8326C12.9999 85.2075 16.7549 81.4525 21.38 81.4525H105.879C110.504 81.4525 114.259 85.2075 114.259 89.8326V105.62C114.259 110.245 110.504 114 105.879 114H21.38C16.7549 114 12.9999 110.245 12.9999 105.62Z" fill="black"/>
<path id="Vector_2" d="M12.9999 103.567V88.269C12.9999 83.5091 16.8645 79.6438 21.6251 79.6438H105.634C110.394 79.6438 114.259 83.5091 114.259 88.269V103.567C114.259 108.327 110.394 112.191 105.634 112.191H21.6251C16.8645 112.191 12.9999 108.327 12.9999 103.567Z" fill="#C0BFBC"/>
<path id="Vector_3" opacity="0.2" d="M22.945 95.9179C20.4485 95.9179 18.4246 93.8941 18.4246 91.3976C18.4246 88.9011 20.4485 86.8772 22.945 86.8772C25.4415 86.8772 27.4653 88.9011 27.4653 91.3976C27.4653 93.8941 25.4415 95.9179 22.945 95.9179Z" fill="black"/>
<path id="Vector_4" opacity="0.2" d="M36.9118 95.9179C34.4153 95.9179 32.3914 93.8941 32.3914 91.3976C32.3914 88.9011 34.4153 86.8772 36.9118 86.8772C39.4083 86.8772 41.4321 88.9011 41.4321 91.3976C41.4321 93.8941 39.4083 95.9179 36.9118 95.9179Z" fill="black"/>
<path id="Vector_5" opacity="0.2" d="M50.8785 95.9179C48.3819 95.9179 46.3581 93.8941 46.3581 91.3976C46.3581 88.9011 48.3819 86.8772 50.8785 86.8772C53.375 86.8772 55.3988 88.9011 55.3988 91.3976C55.3988 93.8941 53.375 95.9179 50.8785 95.9179Z" fill="black"/>
<path id="Vector_6" d="M22.945 94.1092C20.4485 94.1092 18.4246 92.0854 18.4246 89.5889C18.4246 87.0923 20.4485 85.0685 22.945 85.0685C25.4415 85.0685 27.4653 87.0923 27.4653 89.5889C27.4653 92.0854 25.4415 94.1092 22.945 94.1092Z" fill="#E66100"/>
<path id="Vector_7" d="M36.9118 94.1092C34.4153 94.1092 32.3914 92.0854 32.3914 89.5889C32.3914 87.0923 34.4153 85.0685 36.9118 85.0685C39.4083 85.0685 41.4321 87.0923 41.4321 89.5889C41.4321 92.0854 39.4083 94.1092 36.9118 94.1092Z" fill="#F5C211"/>
<path id="Vector_8" d="M50.8785 94.1092C48.3819 94.1092 46.3581 92.0854 46.3581 89.5889C46.3581 87.0923 48.3819 85.0685 50.8785 85.0685C53.375 85.0685 55.3988 87.0923 55.3988 89.5889C55.3988 92.0854 53.375 94.1092 50.8785 94.1092Z" fill="#33D17A"/>
<path id="Vector_9" opacity="0.5" fill-rule="evenodd" clip-rule="evenodd" d="M78.9685 89.9101L86.1963 100.762C86.3569 100.993 86.4128 101.272 86.3569 101.544C86.301 101.817 86.1404 102.061 85.9099 102.215C85.6795 102.368 85.3932 102.424 85.1208 102.368C84.8485 102.313 84.611 102.152 84.4574 101.922L77.2226 91.0763C77.069 90.8459 77.0131 90.5595 77.069 90.2872C77.1248 90.0148 77.2855 89.7774 77.5159 89.6238C77.7464 89.4701 78.0257 89.4143 78.2981 89.4632C78.5704 89.519 78.8148 89.6796 78.9685 89.9101V89.9101ZM95.3026 101.922L88.0748 91.0763C87.9212 90.8459 87.8653 90.5595 87.9142 90.2872C87.97 90.0148 88.1307 89.7774 88.3611 89.6238C88.5916 89.4701 88.8779 89.4143 89.1502 89.4632C89.4226 89.519 89.66 89.6796 89.8137 89.9101L97.0484 100.762C97.2021 100.993 97.2579 101.272 97.2021 101.544C97.1532 101.817 96.9926 102.061 96.7551 102.215C96.5247 102.368 96.2454 102.424 95.973 102.368C95.7007 102.313 95.4562 102.152 95.3026 101.922V101.922ZM106.155 101.922L98.92 91.0763C98.7664 90.8459 98.7105 90.5595 98.7664 90.2872C98.8222 90.0148 98.9828 89.7774 99.2133 89.6238C99.4437 89.4701 99.7231 89.4143 99.9954 89.4632C100.268 89.519 100.512 89.6796 100.666 89.9101L107.901 100.762C108.054 100.993 108.11 101.272 108.054 101.544C107.998 101.817 107.838 102.061 107.607 102.215C107.377 102.368 107.091 102.424 106.818 102.368C106.546 102.313 106.308 102.152 106.155 101.922V101.922ZM73.6052 101.922L66.3774 91.0763C66.2168 90.8459 66.1609 90.5595 66.2168 90.2872C66.2727 90.0148 66.4333 89.7774 66.6637 89.6238C66.8942 89.4701 67.1805 89.4143 67.4529 89.4632C67.7252 89.519 67.9626 89.6796 68.1163 89.9101L75.3511 100.762C75.5047 100.993 75.5606 101.272 75.5047 101.544C75.4488 101.817 75.2882 102.061 75.0578 102.215C74.8273 102.368 74.548 102.424 74.2756 102.368C74.0033 102.313 73.7589 102.152 73.6052 101.922V101.922Z" fill="#3D3846"/>
</g>
<g id="Group_2">
<path id="Vector_10" opacity="0.2" d="M12.9999 72.798V57.0107C12.9999 52.3856 16.7549 48.6306 21.38 48.6306H105.879C110.504 48.6306 114.259 52.3856 114.259 57.0107V72.798C114.259 77.4231 110.504 81.1781 105.879 81.1781H21.38C16.7549 81.1781 12.9999 77.4231 12.9999 72.798Z" fill="black"/>
<path id="Vector_11" d="M12.9999 70.7449V55.4471C12.9999 50.6872 16.8645 46.8219 21.6251 46.8219H105.634C110.394 46.8219 114.259 50.6872 114.259 55.4471V70.7449C114.259 75.5048 110.394 79.3694 105.634 79.3694H21.6251C16.8645 79.3694 12.9999 75.5048 12.9999 70.7449Z" fill="#C0BFBC"/>
<path id="Vector_12" opacity="0.2" d="M22.945 63.096C20.4485 63.096 18.4246 61.0722 18.4246 58.5756C18.4246 56.0791 20.4485 54.0553 22.945 54.0553C25.4415 54.0553 27.4653 56.0791 27.4653 58.5756C27.4653 61.0722 25.4415 63.096 22.945 63.096Z" fill="black"/>
<path id="Vector_13" opacity="0.2" d="M36.9118 63.096C34.4153 63.096 32.3914 61.0722 32.3914 58.5756C32.3914 56.0791 34.4153 54.0553 36.9118 54.0553C39.4083 54.0553 41.4321 56.0791 41.4321 58.5756C41.4321 61.0722 39.4083 63.096 36.9118 63.096Z" fill="black"/>
<path id="Vector_14" d="M22.945 61.2873C20.4485 61.2873 18.4246 59.2635 18.4246 56.767C18.4246 54.2704 20.4485 52.2466 22.945 52.2466C25.4415 52.2466 27.4653 54.2704 27.4653 56.767C27.4653 59.2635 25.4415 61.2873 22.945 61.2873Z" fill="#E66100"/>
<path id="Vector_15" d="M36.9118 61.2873C34.4153 61.2873 32.3914 59.2635 32.3914 56.767C32.3914 54.2704 34.4153 52.2466 36.9118 52.2466C39.4083 52.2466 41.4321 54.2704 41.4321 56.767C41.4321 59.2635 39.4083 61.2873 36.9118 61.2873Z" fill="#F5C211"/>
<path id="Vector_16" opacity="0.5" fill-rule="evenodd" clip-rule="evenodd" d="M78.9685 57.0882L86.1963 67.9404C86.3569 68.1708 86.4128 68.4502 86.3569 68.7225C86.301 68.9949 86.1404 69.2393 85.9099 69.3929C85.6795 69.5466 85.3932 69.6024 85.1208 69.5466C84.8485 69.4907 84.611 69.3301 84.4574 69.0996L77.2226 58.2544C77.069 58.024 77.0131 57.7376 77.069 57.4653C77.1248 57.1929 77.2855 56.9555 77.5159 56.8019C77.7464 56.6482 78.0257 56.5924 78.2981 56.6413C78.5704 56.6971 78.8148 56.8577 78.9685 57.0882V57.0882ZM95.3026 69.0996L88.0748 58.2544C87.9212 58.024 87.8653 57.7376 87.9142 57.4653C87.97 57.1929 88.1307 56.9555 88.3611 56.8019C88.5916 56.6482 88.8779 56.5924 89.1502 56.6413C89.4226 56.6971 89.66 56.8577 89.8137 57.0882L97.0484 67.9404C97.2021 68.1708 97.2579 68.4502 97.2021 68.7225C97.1532 68.9949 96.9926 69.2393 96.7551 69.3929C96.5247 69.5466 96.2454 69.6024 95.973 69.5466C95.7007 69.4907 95.4562 69.3301 95.3026 69.0996V69.0996ZM106.155 69.0996L98.92 58.2544C98.7664 58.024 98.7105 57.7376 98.7664 57.4653C98.8222 57.1929 98.9828 56.9555 99.2133 56.8019C99.4437 56.6482 99.7231 56.5924 99.9954 56.6413C100.268 56.6971 100.512 56.8577 100.666 57.0882L107.901 67.9404C108.054 68.1708 108.11 68.4502 108.054 68.7225C107.998 68.9949 107.838 69.2393 107.607 69.3929C107.377 69.5466 107.091 69.6024 106.818 69.5466C106.546 69.4907 106.308 69.3301 106.155 69.0996V69.0996ZM73.6052 69.0996L66.3774 58.2544C66.2168 58.024 66.1609 57.7376 66.2168 57.4653C66.2727 57.1929 66.4333 56.9555 66.6637 56.8019C66.8942 56.6482 67.1805 56.5924 67.4529 56.6413C67.7252 56.6971 67.9626 56.8577 68.1163 57.0882L75.3511 67.9404C75.5047 68.1708 75.5606 68.4502 75.5047 68.7225C75.4488 68.9949 75.2882 69.2393 75.0578 69.3929C74.8273 69.5466 74.548 69.6024 74.2756 69.5466C74.0033 69.4907 73.7589 69.3301 73.6052 69.0996V69.0996Z" fill="#3D3846"/>
</g>
<g id="Group_3">
<path id="Vector_17" opacity="0.2" d="M12.9999 39.9761V24.1888C12.9999 19.5637 16.7549 15.8087 21.38 15.8087H105.879C110.504 15.8087 114.259 19.5637 114.259 24.1888V39.9761C114.259 44.6012 110.504 48.3562 105.879 48.3562H21.38C16.7549 48.3562 12.9999 44.6012 12.9999 39.9761Z" fill="#1A1A1A"/>
<path id="Vector_18" d="M12.9999 37.923V22.6252C12.9999 17.8653 16.8645 14 21.6251 14H105.634C110.394 14 114.259 17.8653 114.259 22.6252V37.923C114.259 42.6829 110.394 46.5475 105.634 46.5475H21.6251C16.8645 46.5475 12.9999 42.6829 12.9999 37.923Z" fill="#C0BFBC"/>
<path id="Vector_19" opacity="0.2" d="M22.945 30.2741C20.4485 30.2741 18.4246 28.2503 18.4246 25.7537C18.4246 23.2572 20.4485 21.2334 22.945 21.2334C25.4415 21.2334 27.4653 23.2572 27.4653 25.7537C27.4653 28.2503 25.4415 30.2741 22.945 30.2741Z" fill="black"/>
<path id="Vector_20" d="M22.945 28.4654C20.4485 28.4654 18.4246 26.4415 18.4246 23.945C18.4246 21.4485 20.4485 19.4247 22.945 19.4247C25.4415 19.4247 27.4653 21.4485 27.4653 23.945C27.4653 26.4415 25.4415 28.4654 22.945 28.4654Z" fill="#E66100"/>
<path id="Vector_21" opacity="0.5" fill-rule="evenodd" clip-rule="evenodd" d="M78.9685 24.2663L86.1963 35.1184C86.3569 35.3489 86.4128 35.6282 86.3569 35.9006C86.301 36.1729 86.1404 36.4174 85.9099 36.571C85.6795 36.7246 85.3932 36.7805 85.1208 36.7246C84.8485 36.6688 84.611 36.5081 84.4574 36.2777L77.2226 25.4325C77.069 25.202 77.0131 24.9157 77.069 24.6434C77.1248 24.371 77.2855 24.1336 77.5159 23.9799C77.7464 23.8263 78.0257 23.7704 78.2981 23.8193C78.5704 23.8752 78.8148 24.0358 78.9685 24.2663ZM95.3026 36.2777L88.0748 25.4325C87.9212 25.202 87.8653 24.9157 87.9142 24.6434C87.97 24.371 88.1307 24.1336 88.3611 23.9799C88.5916 23.8263 88.8779 23.7704 89.1502 23.8193C89.4226 23.8752 89.66 24.0358 89.8137 24.2663L97.0484 35.1184C97.2021 35.3489 97.2579 35.6282 97.2021 35.9006C97.1532 36.1729 96.9926 36.4174 96.7551 36.571C96.5247 36.7246 96.2454 36.7805 95.973 36.7246C95.7007 36.6688 95.4562 36.5081 95.3026 36.2777ZM106.155 36.2777L98.92 25.4325C98.7664 25.202 98.7105 24.9157 98.7664 24.6434C98.8222 24.371 98.9828 24.1336 99.2133 23.9799C99.4437 23.8263 99.7231 23.7704 99.9954 23.8193C100.268 23.8752 100.512 24.0358 100.666 24.2663L107.901 35.1184C108.054 35.3489 108.11 35.6282 108.054 35.9006C107.998 36.1729 107.838 36.4174 107.607 36.571C107.377 36.7246 107.091 36.7805 106.818 36.7246C106.546 36.6688 106.308 36.5081 106.155 36.2777ZM73.6052 36.2777L66.3774 25.4325C66.2168 25.202 66.1609 24.9157 66.2168 24.6434C66.2727 24.371 66.4333 24.1336 66.6637 23.9799C66.8942 23.8263 67.1805 23.7704 67.4529 23.8193C67.7252 23.8752 67.9626 24.0358 68.1163 24.2663L75.3511 35.1184C75.5047 35.3489 75.5606 35.6282 75.5047 35.9006C75.4488 36.1729 75.2882 36.4174 75.0578 36.571C74.8273 36.7246 74.548 36.7805 74.2756 36.7246C74.0033 36.6688 73.7589 36.5081 73.6052 36.2777Z" fill="#3D3846"/>
</g>
</g>
<g id="box">
<path id="Vector_22" d="M116.538 76.6667H78.4615C76.5498 76.6667 75 78.2834 75 80.2778V116.389C75 118.383 76.5498 120 78.4615 120H116.538C118.45 120 120 118.383 120 116.389V80.2778C120 78.2834 118.45 76.6667 116.538 76.6667Z" fill="url(#paint0_linear)"/>
<path id="Vector_23" d="M116.538 75H78.4615C76.5498 75 75 76.6167 75 78.6111V114.722C75 116.716 76.5498 118.333 78.4615 118.333H116.538C118.45 118.333 120 116.716 120 114.722V78.6111C120 76.6167 118.45 75 116.538 75Z" fill="url(#paint1_linear)"/>
</g>
<g id="utente con lucchetto">
<g id="utente">
<g id="Vector_24" opacity="0.1">
<path d="M93.9224 82.6815C93.0214 82.6815 92.1647 82.8484 91.3778 83.1839C90.5943 83.5041 89.8995 83.9725 89.3221 84.5806L89.3187 84.5874L89.3152 84.5908C88.7532 85.2022 88.3172 85.9363 88.0106 86.7709C87.6953 87.6444 87.5395 88.5674 87.5507 89.496C87.5507 90.4839 87.6989 91.407 88.0106 92.2416C88.3172 93.0625 88.7532 93.788 89.3152 94.3978L89.3187 94.4012L89.3221 94.4046C89.8978 95.0109 90.5875 95.4878 91.3676 95.8217L91.3745 95.8251L91.3812 95.8285C92.1681 96.1487 93.0231 96.3071 93.9224 96.3071C94.8217 96.3071 95.6733 96.1487 96.4602 95.8285V95.8251C97.2284 95.4999 97.9192 95.0158 98.487 94.4046C99.0661 93.7949 99.5089 93.0659 99.8155 92.2416C100.131 91.407 100.279 90.4855 100.279 89.4943H100.292C100.292 88.5183 100.144 87.6054 99.8325 86.7726C99.544 85.9608 99.0919 85.2171 98.504 84.5874C97.9365 83.9755 97.241 83.4963 96.467 83.1839C95.6617 82.8455 94.7959 82.6746 93.9224 82.6815ZM93.9224 84.3847C94.6139 84.3847 95.2339 84.509 95.7993 84.7509L95.8164 84.7577L95.8334 84.7611C96.3955 84.991 96.8672 85.3163 97.259 85.7421V85.7592C97.6677 86.1901 97.9931 86.7198 98.2281 87.3602V87.3687C98.4495 87.9665 98.5585 88.6512 98.567 89.4159V89.4943C98.567 90.3152 98.4444 91.0271 98.2145 91.6437V91.6471C98.0019 92.2361 97.6716 92.7756 97.2437 93.2328L97.2266 93.2396V93.2464C96.8281 93.6773 96.3511 94.0129 95.7823 94.2581C95.1905 94.4926 94.5589 94.61 93.9224 94.6039C93.2241 94.6039 92.599 94.4813 92.0319 94.2513H92.0268C91.4732 94.0129 91.0048 93.6773 90.5995 93.2601L90.5126 93.1408L90.499 93.1306C90.1134 92.6947 89.8109 92.192 89.6065 91.6471C89.3611 90.9564 89.2416 90.2272 89.2539 89.4943C89.2539 88.6921 89.3749 87.9852 89.6065 87.3653L89.6099 87.3619V87.3551C89.845 86.7147 90.1635 86.1901 90.5552 85.7609L90.5756 85.7438C90.9843 85.318 91.4613 84.9893 92.0234 84.7594L92.0335 84.7526L92.0472 84.7492C92.6092 84.5107 93.2309 84.3847 93.9224 84.3847ZM105.845 108.229H104.142C104.142 106.756 104.022 106.015 103.741 105.108C103.46 104.2 103.043 103.568 102.355 103.047C100.975 102.008 98.7612 101.458 93.9718 101.458C89.1807 101.458 86.878 102.006 85.4984 103.047C84.8086 103.566 84.3913 104.198 84.1085 105.108C83.8258 106.017 83.7066 106.756 83.7032 108.229L82 108.226C82.0034 106.669 82.1176 105.773 82.482 104.602C82.8465 103.43 83.4938 102.427 84.4731 101.687C86.4318 100.211 89.0632 99.7561 93.9718 99.7561C98.8787 99.7561 101.425 100.211 103.382 101.689C104.36 102.428 105.005 103.433 105.368 104.605C105.732 105.777 105.845 106.671 105.845 108.229Z" fill="black"/>
<path d="M104.142 108.229C104.142 106.756 104.022 106.015 103.741 105.108C103.46 104.2 103.043 103.568 102.355 103.047C100.975 102.008 98.7612 101.458 93.9718 101.458C89.1807 101.458 86.878 102.006 85.4984 103.047C84.8086 103.566 84.3913 104.198 84.1085 105.108C83.8258 106.017 83.7066 106.756 83.7032 108.229H104.142Z" fill="black"/>
</g>
<g id="Vector_25">
<path d="M93.9224 82.0002C93.0214 82.0002 92.1647 82.1671 91.3778 82.5026C90.5943 82.8228 89.8995 83.2912 89.3221 83.8993L89.3187 83.9061L89.3152 83.9095C88.7532 84.5209 88.3172 85.255 88.0106 86.0896C87.6953 86.9631 87.5395 87.8861 87.5507 88.8147C87.5507 89.8026 87.6989 90.7257 88.0106 91.5603C88.3172 92.3812 88.7532 93.1068 89.3152 93.7165L89.3187 93.7199L89.3221 93.7233C89.8978 94.3297 90.5875 94.8066 91.3676 95.1404L91.3745 95.1438L91.3812 95.1472C92.1681 95.4674 93.0231 95.6258 93.9224 95.6258C94.8217 95.6258 95.6733 95.4674 96.4602 95.1472V95.1438C97.2284 94.8187 97.9192 94.3346 98.487 93.7233C99.0661 93.1136 99.5089 92.3846 99.8155 91.5603C100.131 90.7257 100.279 89.8043 100.279 88.813H100.292C100.292 87.8371 100.144 86.9241 99.8325 86.0913C99.544 85.2796 99.0919 84.5358 98.504 83.9061C97.9365 83.2942 97.241 82.815 96.467 82.5026C95.6617 82.1643 94.7959 81.9933 93.9224 82.0002ZM93.9224 83.7034C94.6139 83.7034 95.2339 83.8277 95.7993 84.0696L95.8164 84.0764L95.8334 84.0798C96.3955 84.3097 96.8672 84.635 97.259 85.0608V85.0779C97.6677 85.5088 97.9931 86.0385 98.2281 86.6789V86.6874C98.4495 87.2852 98.5585 87.9699 98.567 88.7346V88.813C98.567 89.6339 98.4444 90.3459 98.2145 90.9624V90.9659C98.0019 91.5548 97.6716 92.0944 97.2437 92.5515L97.2266 92.5584V92.5652C96.8281 92.9961 96.3511 93.3316 95.7823 93.5769C95.1905 93.8113 94.5589 93.9287 93.9224 93.9226C93.2241 93.9226 92.599 93.8 92.0319 93.57H92.0268C91.4732 93.3316 91.0048 92.9961 90.5995 92.5788L90.5126 92.4596L90.499 92.4493C90.1134 92.0135 89.8109 91.5107 89.6065 90.9659C89.3611 90.2751 89.2416 89.5459 89.2539 88.813C89.2539 88.0108 89.3749 87.304 89.6065 86.684L89.6099 86.6806V86.6738C89.845 86.0334 90.1635 85.5088 90.5552 85.0796L90.5756 85.0626C90.9843 84.6368 91.4613 84.308 92.0234 84.0781L92.0335 84.0713L92.0472 84.0679C92.6092 83.8294 93.2309 83.7034 93.9224 83.7034ZM105.845 107.548H104.142C104.142 106.075 104.022 105.334 103.741 104.426C103.46 103.518 103.043 102.887 102.355 102.365C100.975 101.326 98.7612 100.776 93.9718 100.776C89.1807 100.776 86.878 101.325 85.4984 102.365C84.8086 102.885 84.3913 103.517 84.1085 104.426C83.8258 105.336 83.7066 106.075 83.7032 107.548L82 107.545C82.0034 105.988 82.1176 105.092 82.482 103.92C82.8465 102.749 83.4938 101.745 84.4731 101.006C86.4318 99.5295 89.0632 99.0748 93.9718 99.0748C98.8787 99.0748 101.425 99.5296 103.382 101.008C104.36 101.747 105.005 102.752 105.368 103.924C105.732 105.096 105.845 105.99 105.845 107.548Z" fill="url(#paint2_linear)"/>
<path d="M93.9224 83.7034C94.6139 83.7034 95.2339 83.8277 95.7993 84.0696L95.8164 84.0764L95.8334 84.0798C96.3955 84.3097 96.8672 84.635 97.259 85.0608V85.0779C97.6677 85.5088 97.9931 86.0385 98.2281 86.6789V86.6874C98.4495 87.2852 98.5585 87.9699 98.567 88.7346V88.813C98.567 89.6339 98.4444 90.3459 98.2145 90.9624V90.9659C98.0019 91.5548 97.6716 92.0944 97.2437 92.5515L97.2266 92.5584V92.5652C96.8281 92.9961 96.3511 93.3316 95.7823 93.5769C95.1905 93.8113 94.5589 93.9287 93.9224 93.9226C93.2241 93.9226 92.599 93.8 92.0319 93.57H92.0268C91.4732 93.3316 91.0048 92.9961 90.5995 92.5788L90.5126 92.4596L90.499 92.4493C90.1134 92.0135 89.8109 91.5107 89.6065 90.9659C89.3611 90.2751 89.2416 89.5459 89.2539 88.813C89.2539 88.0108 89.3749 87.304 89.6065 86.684L89.6099 86.6806V86.6738C89.845 86.0334 90.1635 85.5088 90.5552 85.0796L90.5756 85.0626C90.9843 84.6368 91.4613 84.308 92.0234 84.0781L92.0335 84.0713L92.0472 84.0679C92.6092 83.8294 93.2309 83.7034 93.9224 83.7034Z" fill="url(#paint3_linear)"/>
<path d="M104.142 107.548C104.142 106.075 104.022 105.334 103.741 104.426C103.46 103.518 103.043 102.887 102.355 102.365C100.975 101.326 98.7612 100.776 93.9718 100.776C89.1807 100.776 86.878 101.325 85.4984 102.365C84.8086 102.885 84.3913 103.517 84.1085 104.426C83.8258 105.336 83.7066 106.075 83.7032 107.548H104.142Z" fill="url(#paint4_linear)"/>
</g>
</g>
<g id="lucchetto">
<rect id="Rectangle 48" x="96.1639" y="100.361" width="8.91803" height="8.91803" fill="url(#paint5_linear)"/>
<rect id="Rectangle 49" x="99.3114" y="98.7869" width="3.67213" height="8.91803" fill="url(#paint6_linear)"/>
<path id="Vector_26" opacity="0.1" d="M106.393 93.541C105.183 93.541 104.022 94.0108 103.166 94.847C102.31 95.6832 101.829 96.8174 101.829 98V102.459H98.7869V111.377H114V102.459H110.957V98C110.957 96.8174 110.477 95.6832 109.621 94.847C108.765 94.0108 107.604 93.541 106.393 93.541ZM106.393 95.0273C107.2 95.0273 107.974 95.3405 108.545 95.898C109.115 96.4555 109.436 97.2116 109.436 98V102.459H103.351V98C103.351 97.2116 103.671 96.4555 104.242 95.898C104.813 95.3405 105.586 95.0273 106.393 95.0273V95.0273Z" fill="black"/>
<path id="Vector_27" d="M105.869 93.0164C104.658 93.0164 103.498 93.4862 102.642 94.3224C101.786 95.1586 101.305 96.2928 101.305 97.4754V101.934H98.2623V110.852H113.475V101.934H110.433V97.4754C110.433 96.2928 109.952 95.1586 109.096 94.3224C108.24 93.4862 107.079 93.0164 105.869 93.0164ZM105.869 94.5027C106.676 94.5027 107.45 94.8159 108.02 95.3734C108.591 95.9309 108.912 96.687 108.912 97.4754V101.934H102.826V97.4754C102.826 96.687 103.147 95.9309 103.717 95.3734C104.288 94.8159 105.062 94.5027 105.869 94.5027V94.5027Z" fill="url(#paint7_linear)"/>
<rect id="Rectangle 50" opacity="0.1" x="96.1639" y="100.361" width="0.52459" height="7.86885" fill="black"/>
<rect id="Rectangle 51" opacity="0.1" x="96.6885" y="100.361" width="2.62295" height="0.52459" fill="black"/>
</g>
</g>
</g>
<defs>
<linearGradient id="paint0_linear" x1="75" y1="98.3333" x2="120" y2="98.3333" gradientUnits="userSpaceOnUse">
<stop stop-color="#5E5C64"/>
</linearGradient>
<linearGradient id="paint1_linear" x1="75" y1="96.6667" x2="120" y2="96.6667" gradientUnits="userSpaceOnUse">
<stop stop-color="#DEDDDA"/>
</linearGradient>
<linearGradient id="paint2_linear" x1="82" y1="94.7741" x2="105.845" y2="94.7741" gradientUnits="userSpaceOnUse">
<stop stop-color="#5E5C64"/>
</linearGradient>
<linearGradient id="paint3_linear" x1="82" y1="94.7741" x2="105.845" y2="94.7741" gradientUnits="userSpaceOnUse">
<stop stop-color="#5E5C64"/>
</linearGradient>
<linearGradient id="paint4_linear" x1="82" y1="94.7741" x2="105.845" y2="94.7741" gradientUnits="userSpaceOnUse">
<stop stop-color="#5E5C64"/>
</linearGradient>
<linearGradient id="paint5_linear" x1="96.1639" y1="104.82" x2="105.082" y2="104.82" gradientUnits="userSpaceOnUse">
<stop stop-color="#DEDDDA"/>
</linearGradient>
<linearGradient id="paint6_linear" x1="99.3114" y1="103.246" x2="102.984" y2="103.246" gradientUnits="userSpaceOnUse">
<stop stop-color="#DEDDDA"/>
</linearGradient>
<linearGradient id="paint7_linear" x1="98.2623" y1="101.934" x2="113.475" y2="101.934" gradientUnits="userSpaceOnUse">
<stop stop-color="#5E5C64"/>
</linearGradient>
</defs>
</svg>
