<svg fill="none" height="128" viewBox="0 0 128 128" width="128" xmlns="http://www.w3.org/2000/svg" xmlns:xlink="http://www.w3.org/1999/xlink">
  <linearGradient id="paint0_linear" gradientUnits="userSpaceOnUse" x1="12" x2="116" y1="64" y2="64">
    <stop offset="0" stop-color="#77767b"/>
    <stop offset=".05" stop-color="#c0bfbc"/>
    <stop offset=".1" stop-color="#9a9996"/>
    <stop offset=".9" stop-color="#9a9996"/>
    <stop offset=".95" stop-color="#c0bfbc"/>
    <stop offset="1" stop-color="#77767b"/>
  </linearGradient>
  <linearGradient id="paint1_linear" gradientUnits="userSpaceOnUse" x1="62.7189" x2="31.0001" y1="50.3594" y2="50.3594">
    <stop offset="0" stop-color="#c4c4c4"/>
    <stop offset="1" stop-color="#d5d3cf" stop-opacity=".44"/>
  </linearGradient>
  <path d="m108 22h-88c-4.4183 0-8 3.5817-8 8v78c0 4.418 3.5817 8 8 8h88c4.418 0 8-3.582 8-8v-78c0-4.4183-3.582-8-8-8z" fill="url(#paint0_linear)"/>
  <path d="m108 12h-88c-4.4183 0-8 3.5817-8 8v80c0 4.418 3.5817 8 8 8h88c4.418 0 8-3.582 8-8v-80c0-4.4183-3.582-8-8-8z" fill="#deddda"/>
  <path d="m108 104h-88c-2.2091 0-4-1.791-4-4v-80c0-2.2091 1.7909-4 4-4h88c2.209 0 4 1.7909 4 4v80c0 2.209-1.791 4-4 4z" fill="#c9b8a7"/>
  <path clip-rule="evenodd" d="m31 34.5h31.7188v15.8594h-31.7188z" fill="url(#paint1_linear)" fill-rule="evenodd"/>
  <path d="m64.6029 79.0363 20.319-.13 2.2996-22.9993c.4822-4.6627-5.297-6.6039-6.8988-2.2996.019-5.1702-5.297-5.8172-6.902-2.3028.203-4.2694-5.2241-5.9219-6.8988-2.2996v-9.1985c0-6.8988-6.8989-6.8988-6.8989 0v20.6997c-11.5012-11.5012-14.321-3.2353-14.321-3.2353 7.8155 5.2748 12.5924 21.8098 19.3009 21.7654z" fill="#f6f5f4"/>
  <path d="m31 98c0-2.2091 1.7909-4 4-4h58c2.2091 0 4 1.7909 4 4v6h-66z" fill="#908478"/>
  <path d="m112 20v7h-96v-7c0-2.2091 1.7909-4 4-4h88c2.209 0 4 1.7909 4 4z" fill="#908478"/>
  <path d="m25.5 21.5c0-1.6569-1.3431-3-3-3s-3 1.3431-3 3 1.3431 3 3 3 3-1.3431 3-3z" fill="#deddda"/>
  <g fill="#3d3846">
    <path d="m48 90.25h-8c-1.1046 0-2 .8954-2 2v8c0 1.105.8954 2 2 2h8c1.1046 0 2-.895 2-2v-8c0-1.1046-.8954-2-2-2z"/>
    <path d="m68 90.25h-8c-1.1046 0-2 .8954-2 2v8c0 1.105.8954 2 2 2h8c1.1046 0 2-.895 2-2v-8c0-1.1046-.8954-2-2-2z"/>
    <path d="m88 90.25h-8c-1.1046 0-2 .8954-2 2v8c0 1.105.8954 2 2 2h8c1.1046 0 2-.895 2-2v-8c0-1.1046-.8954-2-2-2z"/>
  </g>
  <path d="m48 89.25h-8c-1.1046 0-2 .8954-2 2v8c0 1.105.8954 2 2 2h8c1.1046 0 2-.895 2-2v-8c0-1.1046-.8954-2-2-2z" fill="#3584e4"/>
  <path d="m68 89.25h-8c-1.1046 0-2 .8954-2 2v8c0 1.105.8954 2 2 2h8c1.1046 0 2-.895 2-2v-8c0-1.1046-.8954-2-2-2z" fill="#f66151"/>
  <path d="m88 89.25h-8c-1.1046 0-2 .8954-2 2v8c0 1.105.8954 2 2 2h8c1.1046 0 2-.895 2-2v-8c0-1.1046-.8954-2-2-2z" fill="#2ec27e"/>
</svg>
