<svg width="128" height="128" viewBox="0 0 128 128" fill="none" xmlns="http://www.w3.org/2000/svg">
<g id="preferences-system-network-ntp">
<g id="world">
<path id="Vector" fill-rule="evenodd" clip-rule="evenodd" d="M9.11499 58.608L9.11513 60.4404L12.7917 60.2945L12.875 58.4635L9.11499 58.608Z" fill="url(#paint0_linear)"/>
<path id="Vector_2" d="M64 119C94.3757 119 119 94.3757 119 64C119 33.6243 94.3757 9 64 9C33.6243 9 9 33.6243 9 64C9 94.3757 33.6243 119 64 119Z" fill="#3584E4"/>
<path id="Vector_3" opacity="0.1" fill-rule="evenodd" clip-rule="evenodd" d="M108 95.1668H96.9999V108.011C102.171 103.854 104.597 101.436 108 97.0002V95.1668Z" fill="white"/>
<path id="Vector_4" fill-rule="evenodd" clip-rule="evenodd" d="M102.5 58.5001V60.3335H106.166V58.5001H102.5Z" fill="url(#paint1_linear)"/>
<g id="Group">
<path id="Vector_5" opacity="0.1" d="M82.3331 78.6668H76.8331V80.5001H82.3331V78.6668Z" fill="white"/>
<path id="Vector_6" opacity="0.1" d="M32.8333 60.3335H29.1666V62.1668H32.8333V60.3335Z" fill="white"/>
<path id="Vector_7" opacity="0.1" d="M40.1666 29.1668H34.6666V31.0001H40.1666V29.1668Z" fill="white"/>
<path id="Vector_8" opacity="0.1" d="M45.6664 51.1668H41.9998V53.0001H45.6664V51.1668Z" fill="white"/>
<path id="Vector_9" opacity="0.1" d="M96.9998 49.3335H93.3331V51.1668H96.9998V49.3335Z" fill="white"/>
</g>
<path id="Vector_10" opacity="0.2" fill-rule="evenodd" clip-rule="evenodd" d="M43.8332 115.185V111.667L49.3332 106.167V102.5L54.8332 97.0001V93.3334L58.4999 89.6668V82.3334L54.8332 78.6668H47.4999L43.8332 75.0001H32.8332L29.1666 78.6668V87.8334L36.6144 95.2978L36.5354 111.662C38.8654 113.008 41.3035 114.188 43.8332 115.185V115.185ZM9.11353 60.4357L27.3332 76.8334V71.3334L23.6666 67.6668L29.1666 62.1668H32.8332L36.4999 65.8334L36.6144 58.1318L41.9999 53.0001H45.6666V49.3334L49.3332 45.6668V40.1668L45.4169 36.6147L36.4999 36.5001V43.8334H32.8332L29.1666 40.1668V36.5001L34.6666 31.0001H40.1666V27.3334L36.4999 23.6668H26.6067C16.5909 32.9568 10.0413 45.9317 9.11353 60.4357V60.4357ZM41.5516 13.7748L49.3332 20.0001V27.3334L56.6666 34.6668H60.3332V31.0001L65.8332 25.5001V21.8334L69.4999 18.1668V9.27167C67.6909 9.09206 65.8561 9.00011 63.9999 9.00011C56.0038 9.00011 48.4063 10.7064 41.5516 13.7748ZM108 97.0056C104.871 101.169 101.166 104.874 97.0017 108.003L87.8332 98.8334V87.8334L85.9999 86.0001V84.1668L82.3332 80.5001H76.8332L69.4999 73.1668V65.8334L76.8332 58.5001H89.6666L91.4999 60.3334H102.5V64.0001L111.667 73.1668V80.5001L108 84.1668V97.0056ZM117.773 75.6066L102.5 60.3334H106.167L108 58.5001V56.6668H102.5L96.9999 51.1668H93.3332V53.0001L95.1666 54.8334V56.6668H93.3332L89.6666 53.0001V51.1668H82.3332V54.8334H73.1666V47.5001H80.4999V42.0001H84.1666V38.3334H93.3332L95.1666 36.6147V32.7024H91.4999V34.6668H85.9999V31.0001L91.4999 25.5001H93.3332H103.278C113.003 35.4207 119 49.0101 119 64.0001C119 67.9819 118.576 71.8649 117.773 75.6066ZM104.333 49.3334H100.667L106.167 54.8334H109.833L104.333 49.3334Z" fill="black"/>
<path id="Vector_11" fill-rule="evenodd" clip-rule="evenodd" d="M69.4999 9.27167C67.691 9.09207 65.8562 9.00011 63.9999 9.00011C56.5791 9.00011 49.5014 10.4698 43.0423 13.134L49.3333 18.1668V25.5001L56.6666 32.8334H60.3333V29.1668L65.8333 23.6668V20.0001L69.4999 16.3334V9.27167ZM9.24963 58.7249C10.6565 43.9404 17.9161 30.8623 28.6854 21.8334H36.4999L40.1666 25.5001V29.1668H34.6666L29.1666 34.6668V38.3334L32.8333 42.0001H36.4999V34.6668L45.4169 34.7814L49.3333 38.3334V43.8334L45.6666 47.5001V51.1668H41.9999L36.6144 56.2985L36.4999 64.0001L32.8333 60.3334H29.1666L23.6666 65.8334L27.3333 69.5001V75.0001L9.24963 58.7249ZM43.8333 115.185C41.3003 114.187 38.8593 113.005 36.5265 111.658L36.6144 93.4644L29.1666 86.0001V76.8334L32.8333 73.1668H43.8333L47.4999 76.8334H54.8333L58.4999 80.5001V87.8334L54.8333 91.5001V95.1668L49.3333 100.667V104.333L43.8333 109.833V115.185ZM108 97.0056C105.134 100.821 101.782 104.251 98.0385 107.205L87.8333 97.0001V86.0001L85.9999 84.1668V82.3334L82.3333 78.6668H76.8333L69.4999 71.3334V64.0001L76.8333 56.6668H89.6666L91.4999 58.5001H102.5V62.1668L111.667 71.3334V78.6668L108 82.3334V97.0056ZM118.079 74.0788L102.5 58.5001H106.167L108 56.6668V54.8334H102.5L96.9999 49.3334H93.3333V51.1668L95.1666 53.0001V54.8334H93.3333L89.6666 51.1668V49.3334H82.3333V53.0001H73.1666V45.6668H80.4999V40.1668H84.1666V36.5001H93.3333L95.1666 34.7814V30.8691H91.4999V32.8334H85.9999V29.1668L91.4999 23.6668H93.3333H101.394C112.223 33.7116 119 48.0644 119 64.0001C119 67.4426 118.684 70.8114 118.079 74.0788ZM104.333 47.5001H100.667L106.167 53.0001H109.833L104.333 47.5001Z" fill="url(#paint2_linear)"/>
<path id="Vector_12" opacity="0.1" d="M95.1665 54.8335H93.3331V56.6668H95.1665V54.8335Z" fill="white"/>
<path id="Vector_13" opacity="0.1" d="M108 54.8335H102.5V56.6668H108V54.8335Z" fill="white"/>
<path id="Vector_14" opacity="0.1" d="M95.1665 30.8692H91.4999V32.7025H95.1665V30.8692Z" fill="white"/>
<path id="Vector_15" opacity="0.1" d="M60.3332 32.8335H56.6665V34.6668H60.3332V32.8335Z" fill="white"/>
<path id="Vector (Stroke)" fill-rule="evenodd" clip-rule="evenodd" d="M64 113.5C91.3381 113.5 113.5 91.3381 113.5 64C113.5 36.6619 91.3381 14.5 64 14.5C36.6619 14.5 14.5 36.6619 14.5 64C14.5 91.3381 36.6619 113.5 64 113.5ZM119 64C119 94.3757 94.3757 119 64 119C33.6243 119 9 94.3757 9 64C9 33.6243 33.6243 9 64 9C94.3757 9 119 33.6243 119 64Z" fill="url(#paint3_linear)"/>
</g>
<g id="clock">
<path id="Vector_16" opacity="0.2" fill-rule="evenodd" clip-rule="evenodd" d="M88.528 39.4968C88.3933 39.4923 88.2592 39.5173 88.1352 39.57C88.0112 39.6227 87.9001 39.7018 87.8099 39.8019L67.4972 61.6771C66.7415 61.1826 65.8764 60.8801 64.9771 60.7959C64.0779 60.7118 63.1717 60.8485 62.3373 61.1942L49.1922 46.5884C49.0085 46.3785 48.7798 46.2127 48.5232 46.1035C48.2665 45.9944 47.9885 45.9446 47.7099 45.9579C47.3577 45.9748 47.0177 46.0919 46.7298 46.2955C46.4419 46.499 46.2181 46.7806 46.0847 47.107C45.9513 47.4333 45.9138 47.791 45.9767 48.138C46.0396 48.4849 46.2003 48.8067 46.4398 49.0654L59.5836 63.6698C59.1772 64.4176 58.9483 65.2488 58.9147 66.0992C58.881 66.9495 59.0435 67.7963 59.3896 68.5738C59.8563 69.6142 60.6323 70.4854 61.612 71.0689L50.6505 99.2563C50.6049 99.3699 50.5823 99.4915 50.584 99.6139C50.5857 99.7363 50.6117 99.8571 50.6604 99.9695C50.7092 100.082 50.7797 100.183 50.8679 100.268C50.9562 100.353 51.0604 100.42 51.1745 100.464C51.2886 100.508 51.4104 100.53 51.5328 100.527C51.6552 100.524 51.7757 100.496 51.8875 100.446C51.9993 100.396 52.1001 100.325 52.184 100.236C52.2679 100.146 52.3333 100.042 52.3764 99.927L63.3371 71.7418C64.473 71.9771 65.654 71.8504 66.7141 71.3794C68.0574 70.7801 69.1077 69.6718 69.6339 68.2982C70.16 66.9246 70.119 65.3982 69.5197 64.0548C69.3407 63.6588 69.1157 63.2853 68.8495 62.9418L89.1666 41.062C89.2902 40.9328 89.3737 40.7707 89.407 40.595C89.4404 40.4194 89.4222 40.2379 89.3547 40.0724C89.2872 39.9069 89.1732 39.7644 89.0265 39.6623C88.8798 39.5601 88.7066 39.5027 88.528 39.4968V39.4968Z" fill="black"/>
<g id="Group_2">
<path id="Vector_17" fill-rule="evenodd" clip-rule="evenodd" d="M64.4623 64.4622L47.8236 45.9748Z" fill="url(#paint4_linear)"/>
<path id="Vector (Stroke)_2" fill-rule="evenodd" clip-rule="evenodd" d="M46.4836 44.4859C47.3059 43.7458 48.5724 43.8125 49.3125 44.6348L65.9512 63.1222C66.6912 63.9445 66.6246 65.211 65.8023 65.9511C64.98 66.6912 63.7134 66.6245 62.9733 65.8022L46.3347 47.3148C45.5946 46.4925 45.6613 45.226 46.4836 44.4859Z" fill="url(#paint5_linear)"/>
<path id="Vector_18" d="M64.4623 64.4622L88.4959 38.5798" stroke="white" stroke-width="2.00313" stroke-linecap="round"/>
<path id="Vector_19" d="M64.4623 64.4622L51.5211 97.7395" stroke="#ED333B" stroke-width="2.00313" stroke-linecap="round"/>
</g>
<path id="Vector_20" d="M66.7217 69.5272C69.5192 68.2795 70.7754 65.0002 69.5276 62.2028C68.2798 59.4053 65.0005 58.1491 62.2031 59.3969C59.4057 60.6447 58.1495 63.9239 59.3972 66.7214C60.645 69.5188 63.9243 70.775 66.7217 69.5272Z" fill="#D5D3CF"/>
<path id="Vector_21" d="M64.489 66.3137C65.5115 66.3137 66.3405 65.4848 66.3405 64.4622C66.3405 63.4396 65.5115 62.6107 64.489 62.6107C63.4664 62.6107 62.6375 63.4396 62.6375 64.4622C62.6375 65.4848 63.4664 66.3137 64.489 66.3137Z" fill="#131C1A"/>
<path id="Vector_22" d="M64.4889 66.3109C65.5099 66.3109 66.3376 65.4832 66.3376 64.4622C66.3376 63.4412 65.5099 62.6134 64.4889 62.6134C63.4678 62.6134 62.6401 63.4412 62.6401 64.4622C62.6401 65.4832 63.4678 66.3109 64.4889 66.3109Z" fill="#131C1A"/>
<path id="Vector_23" opacity="0.1" d="M64.4622 14.5462C51.2237 14.5462 38.5274 19.8052 29.1663 29.1663C19.8053 38.5273 14.5463 51.2236 14.5463 64.4622C14.5551 64.8231 14.5679 65.1839 14.5846 65.5445C14.7858 52.4459 20.1282 39.9513 29.4592 30.7565C38.7903 21.5616 51.3621 16.4035 64.4622 16.395C77.5086 16.4019 90.0337 21.5164 99.356 30.6434C108.678 39.7704 114.057 52.1844 114.34 65.2277C114.355 64.9726 114.367 64.7174 114.378 64.4622C114.378 57.9071 113.087 51.4163 110.579 45.3602C108.07 39.3041 104.393 33.8014 99.7581 29.1663C95.123 24.5311 89.6203 20.8544 83.5642 18.3458C77.5081 15.8373 71.0173 14.5462 64.4622 14.5462H64.4622Z" fill="black"/>
</g>
</g>
<defs>
<linearGradient id="paint0_linear" x1="9.11499" y1="59.452" x2="12.875" y2="59.452" gradientUnits="userSpaceOnUse">
<stop stop-color="#57E389"/>
</linearGradient>
<linearGradient id="paint1_linear" x1="102.5" y1="59.4168" x2="106.166" y2="59.4168" gradientUnits="userSpaceOnUse">
<stop stop-color="#57E389"/>
</linearGradient>
<linearGradient id="paint2_linear" x1="9.24963" y1="62.0925" x2="119" y2="62.0925" gradientUnits="userSpaceOnUse">
<stop stop-color="#57E389"/>
</linearGradient>
<linearGradient id="paint3_linear" x1="8.99999" y1="64" x2="119" y2="64" gradientUnits="userSpaceOnUse">
<stop stop-color="#2EC27E"/>
</linearGradient>
<linearGradient id="paint4_linear" x1="47.8236" y1="55.2185" x2="64.4623" y2="55.2185" gradientUnits="userSpaceOnUse">
<stop stop-color="#5E5C64"/>
</linearGradient>
<linearGradient id="paint5_linear" x1="45.8204" y1="55.2185" x2="66.4654" y2="55.2185" gradientUnits="userSpaceOnUse">
<stop stop-color="#5E5C64"/>
</linearGradient>
</defs>
</svg>
