<svg fill="none" height="128" viewBox="0 0 128 128" width="128" xmlns="http://www.w3.org/2000/svg" xmlns:xlink="http://www.w3.org/1999/xlink">
  <linearGradient id="paint0_linear" gradientUnits="userSpaceOnUse" x1="116" x2="12" y1="118.999" y2="118.999">
    <stop offset="0" stop-color="#d5d3cf"/>
    <stop offset=".038" stop-color="#e3e2df"/>
    <stop offset=".077" stop-color="#c0bfbc"/>
    <stop offset=".923" stop-color="#c0bfbc"/>
    <stop offset=".962" stop-color="#e3e2df"/>
    <stop offset="1" stop-color="#d5d3cf"/>
  </linearGradient>
  <path d="m108 69h-88c-4.4183 0-8 3.5817-8 8v32c0 4.418 3.5817 8 8 8h88c4.418 0 8-3.582 8-8v-32c0-4.4183-3.582-8-8-8z" fill="url(#paint0_linear)"/>
  <path d="m20 11c-4.432 0-8 3.568-8 8v42 42c0 4.432 3.568 8 8 8h44 44c4.432 0 8-3.568 8-8v-42-42c0-4.432-3.568-8-8-8z" fill="#1a5fb4"/>
  <path d="m103.871 22.6243s-11.9396-.3376-23.8729 5.6903c-3.6474 1.6735-7.6265 4.3515-10.9422 7.6986-5.3618 5.4126-13.6912 15.3769-20.2496 23.4303h-14.5665l-6.6315 10.0419 11.247 3.0694c.0335.4046.1395.9773.4508 1.7506l-1.7473 3.8792s-.6628 1.3388 4.3107 6.6942c5.3053 5.3589 6.9631 4.6864 6.9631 4.6864l4.1213-1.8881c.6173.1941 1.0747.2611 1.3729.2611l3.1268 11.6683 9.9477-6.6942v-15.1528c8.0339-6.5573 17.8921-14.7981 23.2106-19.9929 3.3157-3.3471 5.9686-7.3638 7.9543-11.0457 5.6338-12.0464 5.3048-24.0966 5.3048-24.0966zm-23.2101 30.125c-3.6507 0-6.6315-3.0123-6.6315-6.6942 0-3.6852 2.9808-6.6948 6.6315-6.6948 3.6474 0 6.6319 3.0096 6.6319 6.6948 0 3.6819-2.9878 6.6942-6.6319 6.6942zm-34.8156 40.1664c.6628.3381.9945.6696 1.6579 1.0039-.6634.6696-1.3268 1.6735-1.9929 2.3432-7.6297 7.6982-21.2177 6.6942-21.2177 6.6942s-.995-13.7266 6.6314-21.4186c.6634-.6724 1.6579-1.3354 2.3213-2.0117.3311.6696.6595 1.0045.9945 1.6735-4.9736 6.3567-4.3108 16.067-4.3108 16.067s9.6127.6691 15.9163-4.3515z" fill="#3584e4"/>
  <path d="m102.376 22.6241s-11.5105-.3224-23.0142 5.434c-3.5161 1.5981-7.3519 4.1555-10.5482 7.3519-5.1688 5.1687-13.1982 14.6841-19.5205 22.3748h-14.042l-6.3927 9.5895 10.842 2.9311c.0323.3864.1345.9333.4346 1.6717l-1.6844 3.7045s-.639 1.2785 4.1555 6.3927c5.1143 5.1174 6.7124 4.4753 6.7124 4.4753l3.9729-1.8031c.595.1853 1.036.2494 1.3235.2494l3.0142 11.1427 9.5895-6.3927v-14.4703c7.7446-6.2619 17.2479-14.1315 22.3748-19.0922 3.1963-3.1963 5.7537-7.0321 7.6679-10.5482 5.4307-11.5037 5.1147-23.0111 5.1147-23.0111zm-22.3753 28.768c-3.5192 0-6.3926-2.8766-6.3926-6.3926 0-3.5193 2.8734-6.3932 6.3926-6.3932 3.5161 0 6.3932 2.8739 6.3932 6.3932 0 3.516-2.8803 6.3926-6.3932 6.3926zm-33.5619 38.357c.6389.3229.9586.6395 1.5981.9587-.6395.6394-1.2789 1.5981-1.9211 2.2376-7.355 7.3516-20.4537 6.3927-20.4537 6.3927s-.9592-13.1083 6.3927-20.4538c.6394-.6421 1.5981-1.2752 2.2376-1.921.3192.6394.6358.9592.9587 1.5981-4.7945 6.0703-4.1556 15.3432-4.1556 15.3432s9.2666.639 15.3433-4.1555z" fill="#f6f5f4"/>
</svg>
