<svg width="128" height="128" viewBox="0 0 128 128" fill="none" xmlns="http://www.w3.org/2000/svg">
<g id="preferences-releasenotes">
<path id="Vector" d="M28 120H100C104.418 120 108 116.418 108 112V88C108 83.5817 104.418 80 100 80H28C23.5817 80 20 83.5817 20 88V112C20 116.418 23.5817 120 28 120Z" fill="url(#paint0_linear)"/>
<path id="Vector_2" d="M28 116H100C104.418 116 108 112.418 108 108V16C108 11.5817 104.418 8 100 8H28C23.5817 8 20 11.5817 20 16V108C20 112.418 23.5817 116 28 116Z" fill="#F6F5F4"/>
<path id="Vector_3" d="M28 18C26.8954 18 26 18.8954 26 20C26 21.1046 26.8954 22 28 22C29.1046 22 30 21.1046 30 20C30 18.8954 29.1046 18 28 18ZM36 18C34.8954 18 34 18.8954 34 20C34 21.1046 34.8954 22 36 22C37.1046 22 38 21.1046 38 20C38 18.8954 37.1046 18 36 18ZM44 18C42.8954 18 42 18.8954 42 20C42 21.1046 42.8954 22 44 22C45.1046 22 46 21.1046 46 20C46 18.8954 45.1046 18 44 18ZM52 18C50.8954 18 50 18.8954 50 20C50 21.1046 50.8954 22 52 22C53.1046 22 54 21.1046 54 20C54 18.8954 53.1046 18 52 18ZM60 18C58.8954 18 58 18.8954 58 20C58 21.1046 58.8954 22 60 22C61.1046 22 62 21.1046 62 20C62 18.8954 61.1046 18 60 18ZM68 18C66.8954 18 66 18.8954 66 20C66 21.1046 66.8954 22 68 22C69.1046 22 70 21.1046 70 20C70 18.8954 69.1046 18 68 18ZM76 18C74.8954 18 74 18.8954 74 20C74 21.1046 74.8954 22 76 22C77.1046 22 78 21.1046 78 20C78 18.8954 77.1046 18 76 18ZM84 18C82.8954 18 82 18.8954 82 20C82 21.1046 82.8954 22 84 22C85.1046 22 86 21.1046 86 20C86 18.8954 85.1046 18 84 18ZM92 18C90.8954 18 90 18.8954 90 20C90 21.1046 90.8954 22 92 22C93.1046 22 94 21.1046 94 20C94 18.8954 93.1046 18 92 18Z" fill="#D5D3CF"/>
<path id="Vector_4" d="M100 22C98.8954 22 98 21.1046 98 20C98 18.8954 98.8954 18 100 18C101.105 18 102 18.8954 102 20C102 21.1046 101.105 22 100 22Z" fill="#D5D3CF"/>
<path id="Vector_5" d="M108 22C107.649 22 107.304 21.9076 107 21.7321C106.696 21.5565 106.443 21.304 106.268 21C106.092 20.696 106 20.3511 106 20C106 19.6489 106.092 19.304 106.268 19C106.443 18.696 106.696 18.4435 107 18.2679C107.304 18.0924 107.649 18 108 18" fill="#D5D3CF"/>
<path id="Vector_6" d="M20 22C20.3511 22 20.696 21.9076 21 21.7321C21.304 21.5565 21.5565 21.304 21.7321 21C21.9076 20.696 22 20.3511 22 20C22 19.6489 21.9076 19.304 21.7321 19C21.5565 18.696 21.304 18.4435 21 18.2679C20.696 18.0924 20.3511 18 20 18" fill="#D5D3CF"/>
<path id="K" d="M44.7206 52.5C43.5382 52.5 42.542 52.2591 41.7319 51.7774C40.9436 51.2739 40.1773 50.4309 39.4328 49.2485L34.2765 41.0049L32.3059 43.0083V48.6245C32.3059 49.1719 32.3716 49.5441 32.5029 49.7412C32.6562 49.9382 32.9408 50.0806 33.3569 50.1681L35.3603 50.4637V52.0402H26V50.4637L28.0363 50.1681C28.4523 50.1024 28.726 49.9601 28.8574 49.7412C28.9887 49.5222 29.0544 49.1062 29.0544 48.4931V32.4657C29.0544 31.8964 28.9778 31.5242 28.8245 31.349C28.6931 31.152 28.4085 31.0096 27.9706 30.9221L26 30.6265V29.05H35.3603V30.6265L33.2912 30.9221C32.8971 30.9658 32.6343 31.1082 32.5029 31.349C32.3716 31.568 32.3059 31.984 32.3059 32.5971V40.5451L40.2868 32.5642C40.659 32.192 40.8013 31.8526 40.7137 31.5461C40.6261 31.2176 40.3415 31.0096 39.8598 30.9221L38.2833 30.6593L38.6118 29.05H46.3956V30.6922L45.1475 30.9549C44.7753 31.0425 44.4469 31.1848 44.1623 31.3819C43.8776 31.557 43.4616 31.9183 42.9142 32.4657L36.5426 38.8701L42.2902 47.5735C42.7719 48.2961 43.1989 48.8544 43.5711 49.2485C43.9652 49.6426 44.3703 49.9163 44.7863 50.0696C45.2023 50.2229 45.7059 50.2995 46.2971 50.2995C46.4941 50.2995 46.7021 50.2776 46.9211 50.2338C47.14 50.19 47.4247 50.1134 47.775 50.0039L48.1034 51.1863C47.7093 51.6023 47.2057 51.9198 46.5926 52.1387C46.0015 52.3796 45.3775 52.5 44.7206 52.5Z" fill="url(#paint1_linear)"/>
<path id="Rectangle 17" d="M82 64.4438C82 63.4396 82.814 62.6256 83.8182 62.6256H100.182C101.186 62.6256 102 63.4396 102 64.4438V80.8074C102 81.8116 101.186 82.6256 100.182 82.6256H83.8182C82.814 82.6256 82 81.8116 82 80.8074V64.4438Z" fill="url(#paint2_linear)"/>
<rect id="Rectangle 18" x="52.25" y="29.05" width="49.75" height="5.34919" fill="url(#paint3_linear)"/>
<rect id="Rectangle 19" x="52.25" y="38.1004" width="49.75" height="5.34919" fill="url(#paint4_linear)"/>
<rect id="Rectangle 20" x="52.25" y="47.1508" width="49.75" height="5.34919" fill="url(#paint5_linear)"/>
<rect id="Rectangle 21" x="26" y="56.55" width="49.75" height="5.34919" fill="url(#paint6_linear)"/>
<rect id="Rectangle 22" x="26" y="65.6004" width="49.75" height="5.34919" fill="url(#paint7_linear)"/>
<rect id="Rectangle 23" x="26" y="74.6508" width="49.75" height="5.34919" fill="url(#paint8_linear)"/>
<rect id="Rectangle 24" x="26" y="83.701" width="49.75" height="5.34919" fill="url(#paint9_linear)"/>
<rect id="Rectangle 25" x="26" y="92.7512" width="77.375" height="5.34919" fill="url(#paint10_linear)"/>
<rect id="Rectangle 26" x="26" y="101.801" width="67" height="5.34919" fill="url(#paint11_linear)"/>
<path id="Vector_7" d="M95.8407 95.8636C91.497 95.8636 88 99.3605 88 103.704V113.683C88 114.491 88.1207 115.268 88.3453 116L108 96.174C107.308 95.9751 106.578 95.8636 105.82 95.8636H95.8407Z" fill="url(#paint12_linear)"/>
</g>
<defs>
<linearGradient id="paint0_linear" x1="108" y1="104" x2="20" y2="104" gradientUnits="userSpaceOnUse">
<stop stop-color="#C0BFBC"/>
<stop offset="0.045" stop-color="white"/>
<stop offset="0.091" stop-color="#DEDDDA"/>
<stop offset="0.909" stop-color="#DEDDDA"/>
<stop offset="0.955" stop-color="white"/>
<stop offset="1" stop-color="#C0BFBC"/>
</linearGradient>
<linearGradient id="paint1_linear" x1="26" y1="40.775" x2="48.1034" y2="40.775" gradientUnits="userSpaceOnUse">
<stop stop-color="#813D9C"/>
</linearGradient>
<linearGradient id="paint2_linear" x1="92" y1="62.6256" x2="92" y2="92.171" gradientUnits="userSpaceOnUse">
<stop stop-color="#6D57B1"/>
<stop offset="1" stop-color="#2EC27E"/>
</linearGradient>
<linearGradient id="paint3_linear" x1="52.25" y1="31.7246" x2="102" y2="31.7246" gradientUnits="userSpaceOnUse">
<stop stop-color="#C0BFBC"/>
</linearGradient>
<linearGradient id="paint4_linear" x1="52.25" y1="40.775" x2="102" y2="40.775" gradientUnits="userSpaceOnUse">
<stop stop-color="#C0BFBC"/>
</linearGradient>
<linearGradient id="paint5_linear" x1="52.25" y1="49.8254" x2="102" y2="49.8254" gradientUnits="userSpaceOnUse">
<stop stop-color="#C0BFBC"/>
</linearGradient>
<linearGradient id="paint6_linear" x1="26" y1="59.2246" x2="75.75" y2="59.2246" gradientUnits="userSpaceOnUse">
<stop stop-color="#C0BFBC"/>
</linearGradient>
<linearGradient id="paint7_linear" x1="26" y1="68.275" x2="75.75" y2="68.275" gradientUnits="userSpaceOnUse">
<stop stop-color="#C0BFBC"/>
</linearGradient>
<linearGradient id="paint8_linear" x1="26" y1="77.3254" x2="75.75" y2="77.3254" gradientUnits="userSpaceOnUse">
<stop stop-color="#C0BFBC"/>
</linearGradient>
<linearGradient id="paint9_linear" x1="26" y1="86.3756" x2="75.75" y2="86.3756" gradientUnits="userSpaceOnUse">
<stop stop-color="#C0BFBC"/>
</linearGradient>
<linearGradient id="paint10_linear" x1="26" y1="95.4258" x2="103.375" y2="95.4258" gradientUnits="userSpaceOnUse">
<stop stop-color="#C0BFBC"/>
</linearGradient>
<linearGradient id="paint11_linear" x1="26" y1="104.476" x2="93" y2="104.476" gradientUnits="userSpaceOnUse">
<stop stop-color="#C0BFBC"/>
</linearGradient>
<linearGradient id="paint12_linear" x1="99.0027" y1="104.907" x2="98.1587" y2="104.086" gradientUnits="userSpaceOnUse">
<stop stop-color="#D5D3CF"/>
<stop offset="1" stop-color="white"/>
</linearGradient>
</defs>
</svg>
