<svg width="128" height="128" viewBox="0 0 128 128" fill="none" xmlns="http://www.w3.org/2000/svg">
<g id="preferences-desktop-theme-windowdecorations">
<path id="Vector" d="M12.1842 24.125V34.125L114.224 34.125V24.125L12.1842 24.125Z" fill="url(#paint0_linear)"/>
<path id="Vector_2" fill-rule="evenodd" clip-rule="evenodd" d="M112.202 23.1261H14.7981V112.874H63.5H112.202V23.1261ZM11.7981 19C10.2527 19 9 20.3996 9 22.1261V115.874C9 117.6 10.2527 119 11.7981 119H64H116.202C117.748 119 119 117.6 119 115.874V22.1261C119 20.3996 117.748 19 116.202 19H11.7981Z" fill="url(#paint1_linear)"/>
<path id="Vector_3" d="M14.7981 112.874V23.1261H64V19H11.7981C10.2527 19 9 20.3996 9 22.1261V115.874C9 117.6 10.2527 119 11.7981 119H64V112.874H14.7981Z" fill="url(#paint2_linear)"/>
<path id="Vector_4" d="M8.96875 17.4549C8.96875 15.9265 10.2077 14.6875 11.7362 14.6875H116.233C117.762 14.6875 119 15.9265 119 17.4549V25.125H8.96875V17.4549Z" fill="url(#paint3_linear)"/>
<path id="Vector_5" d="M119 17.4549C119 15.9265 117.762 14.6875 116.233 14.6875H63.9844L63.9844 25.125H119V17.4549Z" fill="url(#paint4_linear)"/>
<path id="Vector_6" d="M96.0312 20.9688H88.0938V22.9789H96.0312V20.9688Z" fill="url(#paint5_linear)"/>
<path id="Vector_7" d="M114.16 21.4851L109.657 16.9825L108.211 18.4288L112.713 22.9314L114.16 21.4851Z" fill="url(#paint6_linear)"/>
<path id="Vector_8" d="M109.721 22.9789L114.224 18.4763L112.73 16.9823L108.227 21.4849L109.721 22.9789Z" fill="url(#paint7_linear)"/>
<path id="Vector (Stroke)" fill-rule="evenodd" clip-rule="evenodd" d="M99.0794 17.1856H104.883V22.9789H99.0794V17.1856ZM100.55 18.6558V21.5087H103.413V18.6558H100.55Z" fill="url(#paint8_linear)"/>
<rect id="Rectangle 2" x="14.875" y="33.875" width="97.25" height="79.125" fill="url(#paint9_linear)"/>
</g>
<defs>
<linearGradient id="paint0_linear" x1="63.2039" y1="34.125" x2="63.2039" y2="24.125" gradientUnits="userSpaceOnUse">
<stop stop-color="#33D17A"/>
</linearGradient>
<linearGradient id="paint1_linear" x1="9.00002" y1="69" x2="119" y2="69" gradientUnits="userSpaceOnUse">
<stop stop-color="#3D3846"/>
</linearGradient>
<linearGradient id="paint2_linear" x1="9" y1="69" x2="64" y2="69" gradientUnits="userSpaceOnUse">
<stop stop-color="#C0BFBC"/>
</linearGradient>
<linearGradient id="paint3_linear" x1="8.96874" y1="19.9062" x2="119" y2="19.9062" gradientUnits="userSpaceOnUse">
<stop stop-color="#C0BFBC"/>
</linearGradient>
<linearGradient id="paint4_linear" x1="63.9844" y1="19.9062" x2="119" y2="19.9062" gradientUnits="userSpaceOnUse">
<stop stop-color="#3D3846"/>
</linearGradient>
<linearGradient id="paint5_linear" x1="88.0938" y1="21.9738" x2="96.0312" y2="21.9738" gradientUnits="userSpaceOnUse">
<stop stop-color="#F6F5F4"/>
</linearGradient>
<linearGradient id="paint6_linear" x1="108.934" y1="17.7056" x2="113.436" y2="22.2079" gradientUnits="userSpaceOnUse">
<stop stop-color="#F6F5F4"/>
</linearGradient>
<linearGradient id="paint7_linear" x1="113.477" y1="17.7293" x2="108.974" y2="22.2322" gradientUnits="userSpaceOnUse">
<stop stop-color="#F6F5F4"/>
</linearGradient>
<linearGradient id="paint8_linear" x1="98.7974" y1="20.0823" x2="105.165" y2="20.0823" gradientUnits="userSpaceOnUse">
<stop stop-color="#F6F5F4"/>
</linearGradient>
<linearGradient id="paint9_linear" x1="14.875" y1="73.4375" x2="112.125" y2="73.4375" gradientUnits="userSpaceOnUse">
<stop stop-color="#F6F5F4"/>
</linearGradient>
</defs>
</svg>
