<svg width="128" height="128" viewBox="0 0 128 128" fill="none" xmlns="http://www.w3.org/2000/svg">
<g id="preferences-system-linux">
<path id="Vector" d="M104.889 17.7037H23.4074C19.3164 17.7037 16 21.2965 16 25.7284V105.975C16 110.407 19.3164 114 23.4074 114H104.889C108.98 114 112.296 110.407 112.296 105.975V25.7284C112.296 21.2965 108.98 17.7037 104.889 17.7037Z" fill="url(#paint0_linear)"/>
<path id="Vector_2" d="M104.889 14H23.4074C19.3164 14 16 17.5928 16 22.0247V102.272C16 106.703 19.3164 110.296 23.4074 110.296H104.889C108.98 110.296 112.296 106.703 112.296 102.272V22.0247C112.296 17.5928 108.98 14 104.889 14Z" fill="url(#paint1_linear)"/>
<path id="Vector (Stroke)" fill-rule="evenodd" clip-rule="evenodd" d="M104.889 18.6296H23.4074C22.2152 18.6296 20.6296 19.7937 20.6296 22.0247V102.272C20.6296 104.502 22.2153 105.667 23.4074 105.667H104.889C106.081 105.667 107.667 104.502 107.667 102.272V22.0247C107.667 19.7939 106.081 18.6296 104.889 18.6296ZM23.4074 14H104.889C108.98 14 112.296 17.5928 112.296 22.0247V102.272C112.296 106.703 108.98 110.296 104.889 110.296H23.4074C19.3164 110.296 16 106.703 16 102.272V22.0247C16 17.5928 19.3164 14 23.4074 14Z" fill="url(#paint2_linear)"/>
<g id="linux">
<path id="Vector_3" d="M54.457 47.4703C55.4094 43.6978 54.4914 39.6872 54.6236 35.7982C54.9147 27.3061 59.629 25.3801 64.4624 25.1288C70.0074 24.8378 76.571 28.1235 76.9678 36.1342C77.1556 39.9676 76.4784 43.9279 77.4678 47.637C79.7721 56.2879 89.6637 62.534 89.8066 71.4812C89.9389 79.9839 86.0235 90.0052 78.8012 94.492C75.071 96.8095 70.0101 94.029 65.6264 94.3253C60.7507 94.6587 55.3274 98.9894 51.121 96.4947C43.486 91.9629 41.3801 80.3437 41.9516 71.4812C42.5336 62.4758 52.248 56.2217 54.457 47.4703V47.4703Z" fill="url(#paint3_linear)"/>
<path id="Vector_4" d="M68.0365 45.4756C70.2019 45.4756 71.9572 43.2062 71.9572 40.4067C71.9572 37.6073 70.2019 35.3379 68.0365 35.3379C65.8712 35.3379 64.1158 37.6073 64.1158 40.4067C64.1158 43.2062 65.8712 45.4756 68.0365 45.4756Z" fill="url(#paint4_linear)"/>
<path id="Vector_5" d="M58.7506 44.711C60.2804 44.711 61.5205 42.8633 61.5205 40.584C61.5205 38.3047 60.2804 36.457 58.7506 36.457C57.2209 36.457 55.9808 38.3047 55.9808 40.584C55.9808 42.8633 57.2209 44.711 58.7506 44.711Z" fill="url(#paint5_linear)"/>
<path id="Vector_6" d="M67.5497 43.8856C68.4366 43.8856 69.1556 42.6976 69.1556 41.2321C69.1556 39.7667 68.4366 38.5787 67.5497 38.5787C66.6629 38.5787 65.9439 39.7667 65.9439 41.2321C65.9439 42.6976 66.6629 43.8856 67.5497 43.8856Z" fill="url(#paint6_linear)"/>
<path id="Vector_7" d="M58.764 43.2083C59.439 43.2083 59.9862 42.3236 59.9862 41.2321C59.9862 40.1407 59.439 39.2559 58.764 39.2559C58.089 39.2559 57.5417 40.1407 57.5417 41.2321C57.5417 42.3236 58.089 43.2083 58.764 43.2083Z" fill="url(#paint7_linear)"/>
<path id="Vector_8" d="M67.518 45.6317C67.0376 45.6093 66.5563 45.6128 66.0762 45.6422C62.8222 45.8327 59.3354 47.1105 57.5735 48.6581C54.7534 51.137 56.4253 53.5471 55.211 57.0286C53.9967 60.5101 50.9411 65.0657 50.0258 69.4097C49.6554 71.1637 49.1845 72.9177 48.8618 74.6796L57.5735 85.3252C59.2852 87.4152 54.8195 86.64 50.666 83.9495C53.6131 88.0951 59.4598 92.2036 65.2323 91.8147C71.3805 91.402 78.6399 84.9734 80.9626 79.7167C78.7086 79.3357 76.5181 75.9442 78.3224 73.4177C78.9494 72.542 80.296 72.4653 81.4521 72.6505C80.7563 69.9573 79.37 67.5446 78.6743 65.5181C77.4679 61.9837 76.0658 60.9943 74.7853 57.8567C73.5022 54.7191 74.8568 48.9148 71.2456 46.6555C70.2297 46.0205 68.9308 45.7031 67.518 45.6317V45.6317Z" fill="url(#paint8_linear)"/>
<path id="Vector_9" d="M40.4515 78.9865C41.7399 77.9548 42.3431 75.8569 43.9516 75.4838C45.2109 75.1928 46.6236 75.9151 47.6209 76.7352C49.8987 78.6082 50.2453 82.0633 52.039 84.4072C53.2348 85.9654 55.2612 86.8517 56.2083 88.5739C57.1951 90.3729 58.4676 92.7486 57.5417 94.5766C56.293 97.0396 52.7162 97.8042 49.9543 97.91C48.277 97.9761 46.8193 96.6931 45.2029 96.2433C42.8484 95.5872 40.1314 95.992 38.0335 94.7433C36.3721 93.7565 34.4039 92.2539 34.2822 90.3253C34.2319 89.5634 35.3457 89.148 35.5309 88.4073C36.0229 86.4601 34.1367 84.2009 35.0309 82.4019C35.9832 80.4918 38.7822 80.3199 40.4515 78.9865V78.9865Z" fill="url(#paint9_linear)"/>
<path id="Vector_10" d="M77.7456 76.087C77.2139 76.5632 76.7641 77.1637 76.4361 77.759C75.0128 80.3437 75.9731 83.685 75.1742 86.5236C74.6398 88.4152 73.0869 89.9893 72.8461 91.9364C72.5948 93.9734 72.2906 96.6507 73.8276 98.0079C75.9017 99.8333 79.5076 99.2169 82.1108 98.2936C83.6954 97.7327 84.5711 96.0026 85.9071 94.9867C87.8489 93.5052 90.5236 92.8703 92.0104 90.9364C93.1876 89.402 94.4628 87.2802 93.8622 85.4442C93.6241 84.7194 92.4389 84.7432 91.9918 84.1241C90.8146 82.4971 91.7273 79.7061 90.2326 78.3674C89.1214 77.3754 87.4891 77.4891 85.9124 77.4468C85.1505 79.0791 82.669 80.1902 80.9626 79.7167C79.5181 79.3145 78.079 77.6717 77.7456 76.087V76.087Z" fill="url(#paint10_linear)"/>
<path id="Vector_11" d="M62.6687 41.3856C64.4121 41.293 66.0153 42.4226 67.5894 43.1766C69.1106 43.9094 71.7085 44.129 71.9228 45.8036C72.1688 47.7058 69.4889 48.8275 67.9227 49.9306C66.5232 50.9174 64.9624 52.0735 63.2534 52.0577C61.5258 52.0391 59.9967 50.801 58.584 49.8063C57.42 48.9862 55.5866 48.2296 55.5416 46.8036C55.4914 45.2798 57.3671 44.3089 58.584 43.3856C59.7904 42.4703 61.1555 41.465 62.6687 41.3856V41.3856Z" fill="url(#paint11_linear)"/>
<path id="Vector_12" d="M44.9173 75.4415C44.5954 75.3993 44.2686 75.4136 43.9516 75.4838C42.3432 75.8569 41.7373 77.9548 40.449 78.9865C38.7796 80.3199 35.9806 80.4945 35.0283 82.4019C34.6314 83.2008 34.8113 84.095 35.06 85.0077C36.0336 83.14 38.7928 82.9548 40.449 81.632C41.7373 80.6003 42.3432 78.5024 43.9516 78.1294C45.2109 77.8384 46.6236 78.5606 47.621 79.3807C49.8988 81.2537 50.2454 84.7088 52.039 87.0527C53.2348 88.6136 55.2613 89.4946 56.2084 91.2168C56.7243 92.1586 57.301 93.2592 57.6185 94.3544C58.346 92.5581 57.1555 90.3015 56.2084 88.5713C55.2613 86.8517 53.2348 85.9654 52.039 84.4072C50.2454 82.0633 49.8988 78.6082 47.621 76.7352C46.8723 76.1188 45.8935 75.5605 44.9173 75.4415V75.4415ZM35.3325 88.7644C34.9648 89.2962 34.2425 89.6956 34.2849 90.3253C34.3219 90.9073 34.56 91.4364 34.8748 91.939C35.1526 91.6692 35.4436 91.3967 35.5309 91.0528C35.7161 90.32 35.5468 89.5422 35.3325 88.7644ZM77.7457 76.0897C77.2139 76.5659 76.7668 77.1611 76.4388 77.7563C75.0155 80.341 75.9705 83.6876 75.1716 86.5263C74.6372 88.4178 73.0869 89.9893 72.8461 91.9364C72.7059 93.074 72.5869 94.3888 72.743 95.5846C72.7773 95.246 72.8065 94.8967 72.8488 94.5793C73.0869 92.6348 74.6372 91.0607 75.1716 89.1718C75.9705 86.3332 75.0128 82.9866 76.4388 80.4019C76.7668 79.8066 77.2139 79.2114 77.7457 78.7352C78.079 80.3199 79.5182 81.9601 80.9626 82.3596C82.669 82.8358 85.1531 81.7246 85.9151 80.0923C87.4918 80.1347 89.1214 80.0209 90.2326 81.013C91.7273 82.3516 90.8146 85.14 91.9892 86.7697C92.386 87.3173 93.3305 87.3914 93.7088 87.8993C93.9892 87.0739 94.1189 86.2353 93.8596 85.4469C93.6215 84.722 92.4363 84.7432 91.9892 84.1241C90.8119 82.4971 91.7273 79.7061 90.2326 78.3675C89.1214 77.3754 87.4918 77.4891 85.9151 77.4468C85.1531 79.0791 82.669 80.1902 80.9626 79.7167C79.5182 79.3146 78.079 77.6743 77.7457 76.0897V76.0897Z" fill="url(#paint12_linear)"/>
</g>
</g>
<defs>
<linearGradient id="paint0_linear" x1="16" y1="65.8519" x2="112.296" y2="65.8519" gradientUnits="userSpaceOnUse">
<stop stop-color="#E5A50A"/>
</linearGradient>
<linearGradient id="paint1_linear" x1="16" y1="62.1481" x2="112.296" y2="62.1481" gradientUnits="userSpaceOnUse">
<stop stop-color="#F6F5F4"/>
</linearGradient>
<linearGradient id="paint2_linear" x1="16" y1="62.1481" x2="112.296" y2="62.1481" gradientUnits="userSpaceOnUse">
<stop stop-color="#F5C211"/>
</linearGradient>
<linearGradient id="paint3_linear" x1="41.8633" y1="61.1883" x2="89.8098" y2="61.1883" gradientUnits="userSpaceOnUse">
<stop stop-color="#5E5C64"/>
</linearGradient>
<linearGradient id="paint4_linear" x1="64.1158" y1="40.4067" x2="71.9572" y2="40.4067" gradientUnits="userSpaceOnUse">
<stop stop-color="#F6F5F4"/>
</linearGradient>
<linearGradient id="paint5_linear" x1="55.9808" y1="40.584" x2="61.5205" y2="40.584" gradientUnits="userSpaceOnUse">
<stop stop-color="#F6F5F4"/>
</linearGradient>
<linearGradient id="paint6_linear" x1="65.9439" y1="41.2321" x2="69.1556" y2="41.2321" gradientUnits="userSpaceOnUse">
<stop stop-color="#241F31"/>
</linearGradient>
<linearGradient id="paint7_linear" x1="57.5417" y1="41.2321" x2="59.9862" y2="41.2321" gradientUnits="userSpaceOnUse">
<stop stop-color="#241F31"/>
</linearGradient>
<linearGradient id="paint8_linear" x1="48.8618" y1="68.7287" x2="81.4521" y2="68.7287" gradientUnits="userSpaceOnUse">
<stop stop-color="#F6F5F4"/>
</linearGradient>
<linearGradient id="paint9_linear" x1="34.2805" y1="86.6653" x2="57.8629" y2="86.6653" gradientUnits="userSpaceOnUse">
<stop stop-color="#F5C211"/>
</linearGradient>
<linearGradient id="paint10_linear" x1="72.6403" y1="87.6361" x2="94.0158" y2="87.6361" gradientUnits="userSpaceOnUse">
<stop stop-color="#F5C211"/>
</linearGradient>
<linearGradient id="paint11_linear" x1="55.5406" y1="46.719" x2="71.9386" y2="46.719" gradientUnits="userSpaceOnUse">
<stop stop-color="#F5C211"/>
</linearGradient>
<linearGradient id="paint12_linear" x1="34.2831" y1="85.5012" x2="93.9998" y2="85.5012" gradientUnits="userSpaceOnUse">
<stop stop-color="#F8E45C"/>
</linearGradient>
</defs>
</svg>
