<svg width="128" height="128" viewBox="0 0 128 128" fill="none" xmlns="http://www.w3.org/2000/svg">
<g id="preferences-devices-tree">
<path id="Vector" d="M108 22H20C15.5817 22 12 25.5817 12 30V108C12 112.418 15.5817 116 20 116H108C112.418 116 116 112.418 116 108V30C116 25.5817 112.418 22 108 22Z" fill="url(#paint0_linear)"/>
<path id="Vector_2" d="M108 12H20C15.5817 12 12 15.5817 12 20V100C12 104.418 15.5817 108 20 108H108C112.418 108 116 104.418 116 100V20C116 15.5817 112.418 12 108 12Z" fill="url(#paint1_linear)"/>
<path id="Vector 2 (Stroke)" fill-rule="evenodd" clip-rule="evenodd" d="M57.125 40.9375V32.125H59.125V40.9375C59.125 42.5944 57.7819 43.9375 56.125 43.9375H49.1875C48.6352 43.9375 48.1875 44.3852 48.1875 44.9375V51.0625H46.1875V44.9375C46.1875 43.2806 47.5306 41.9375 49.1875 41.9375H56.125C56.6773 41.9375 57.125 41.4898 57.125 40.9375Z" fill="url(#paint2_linear)"/>
<path id="Vector 2 (Stroke)_2" fill-rule="evenodd" clip-rule="evenodd" d="M42.4362 74.125V65.3125H44.4362V74.125C44.4362 75.7819 43.0931 77.125 41.4362 77.125H34.4987C33.9464 77.125 33.4987 77.5727 33.4987 78.125V84.25H31.4987V78.125C31.4987 76.4681 32.8419 75.125 34.4987 75.125H41.4362C41.9885 75.125 42.4362 74.6773 42.4362 74.125Z" fill="url(#paint3_linear)"/>
<path id="Vector 2 (Stroke)_3" fill-rule="evenodd" clip-rule="evenodd" d="M50.4987 74.125V65.3125H48.4987V74.125C48.4987 75.7819 49.8419 77.125 51.4987 77.125H58.4362C58.9885 77.125 59.4362 77.5727 59.4362 78.125V84.25H61.4362V78.125C61.4362 76.4681 60.0931 75.125 58.4362 75.125H51.4987C50.9464 75.125 50.4987 74.6773 50.4987 74.125Z" fill="url(#paint4_linear)"/>
<path id="Vector 2 (Stroke)_4" fill-rule="evenodd" clip-rule="evenodd" d="M85.4987 74.125V65.3125H83.4987V74.125C83.4987 75.7819 84.8419 77.125 86.4987 77.125H93.4362C93.9885 77.125 94.4362 77.5727 94.4362 78.125V84.25H96.4362V78.125C96.4362 76.4681 95.0931 75.125 93.4362 75.125H86.4987C85.9464 75.125 85.4987 74.6773 85.4987 74.125Z" fill="url(#paint5_linear)"/>
<path id="Vector 2 (Stroke)_5" fill-rule="evenodd" clip-rule="evenodd" d="M76.9349 74.125V65.3125H78.9349V74.125C78.9349 75.7819 77.5918 77.125 75.9349 77.125H68.9974C68.4452 77.125 67.9974 77.5727 67.9974 78.125V84.25H65.9974V78.125C65.9974 76.4681 67.3406 75.125 68.9974 75.125H75.9349C76.4872 75.125 76.9349 74.6773 76.9349 74.125Z" fill="url(#paint6_linear)"/>
<path id="Vector 2 (Stroke)_6" fill-rule="evenodd" clip-rule="evenodd" d="M71.1875 40.9375V32.125H69.1875V40.9375C69.1875 42.5944 70.5306 43.9375 72.1875 43.9375H79.125C79.6773 43.9375 80.125 44.3852 80.125 44.9375V51.0625H82.125V44.9375C82.125 43.2806 80.7819 41.9375 79.125 41.9375H72.1875C71.6352 41.9375 71.1875 41.4898 71.1875 40.9375Z" fill="url(#paint7_linear)"/>
<g id="Group 11">
<path id="Vector_3" d="M73.6375 16.6348H54.3624C53.3946 16.6348 52.6101 17.4847 52.6101 18.5332V37.5165C52.6101 38.5644 53.3946 39.4145 54.3624 39.4145H73.6375C74.6053 39.4145 75.3898 38.5644 75.3898 37.5165V18.5332C75.3898 17.4847 74.6053 16.6348 73.6375 16.6348Z" fill="url(#paint8_linear)"/>
<path id="Vector_4" d="M73.6375 15H54.3624C53.3946 15 52.6101 15.8499 52.6101 16.8984V35.8818C52.6101 36.9296 53.3946 37.7797 54.3624 37.7797H73.6375C74.6053 37.7797 75.3898 36.9296 75.3898 35.8818V16.8984C75.3898 15.8499 74.6053 15 73.6375 15Z" fill="url(#paint9_linear)"/>
<path id="Vector_5" d="M58.1607 49.2232H38.8856C37.9178 49.2232 37.1333 50.0731 37.1333 51.1216V70.1049C37.1333 71.1528 37.9178 72.0029 38.8856 72.0029H58.1607C59.1285 72.0029 59.913 71.1528 59.913 70.1049V51.1216C59.913 50.0731 59.1285 49.2232 58.1607 49.2232Z" fill="url(#paint10_linear)"/>
<path id="Vector_6" d="M58.1607 47.5884H38.8856C37.9178 47.5884 37.1333 48.4383 37.1333 49.4868V68.4702C37.1333 69.518 37.9178 70.3681 38.8856 70.3681H58.1607C59.1285 70.3681 59.913 69.518 59.913 68.4702V49.4868C59.913 48.4383 59.1285 47.5884 58.1607 47.5884Z" fill="url(#paint11_linear)"/>
<path id="Vector_7" d="M89.1143 49.2232H69.8392C68.8714 49.2232 68.0869 50.0731 68.0869 51.1216V70.1049C68.0869 71.1528 68.8714 72.0029 69.8392 72.0029H89.1143C90.0821 72.0029 90.8666 71.1528 90.8666 70.1049V51.1216C90.8666 50.0731 90.0821 49.2232 89.1143 49.2232Z" fill="url(#paint12_linear)"/>
<path id="Vector_8" d="M89.1143 47.5884H69.8392C68.8714 47.5884 68.0869 48.4383 68.0869 49.4868V68.4702C68.0869 69.518 68.8714 70.3681 69.8392 70.3681H89.1143C90.0821 70.3681 90.8666 69.518 90.8666 68.4702V49.4868C90.8666 48.4383 90.0821 47.5884 89.1143 47.5884Z" fill="url(#paint13_linear)"/>
<path id="Vector_9" d="M73.6375 81.8116H54.3624C53.3946 81.8116 52.6101 82.6615 52.6101 83.71V102.693C52.6101 103.741 53.3946 104.591 54.3624 104.591H73.6375C74.6053 104.591 75.3898 103.741 75.3898 102.693V83.71C75.3898 82.6615 74.6053 81.8116 73.6375 81.8116Z" fill="url(#paint14_linear)"/>
<path id="Vector_10" d="M73.6375 80.1768H54.3624C53.3946 80.1768 52.6101 81.0267 52.6101 82.0752V101.059C52.6101 102.106 53.3946 102.957 54.3624 102.957H73.6375C74.6053 102.957 75.3898 102.106 75.3898 101.059V82.0752C75.3898 81.0267 74.6053 80.1768 73.6375 80.1768Z" fill="url(#paint15_linear)"/>
<path id="Vector_11" d="M104.591 81.8116H85.316C84.3483 81.8116 83.5637 82.6615 83.5637 83.71V102.693C83.5637 103.741 84.3483 104.591 85.316 104.591H104.591C105.559 104.591 106.343 103.741 106.343 102.693V83.71C106.343 82.6615 105.559 81.8116 104.591 81.8116Z" fill="url(#paint16_linear)"/>
<path id="Vector_12" d="M104.591 80.1768H85.316C84.3483 80.1768 83.5637 81.0267 83.5637 82.0752V101.059C83.5637 102.106 84.3483 102.957 85.316 102.957H104.591C105.559 102.957 106.343 102.106 106.343 101.059V82.0752C106.343 81.0267 105.559 80.1768 104.591 80.1768Z" fill="url(#paint17_linear)"/>
<path id="Vector_13" d="M42.6839 82.2203H23.4088C22.441 82.2203 21.6565 83.0702 21.6565 84.1186V103.102C21.6565 104.15 22.441 105 23.4088 105H42.6839C43.6517 105 44.4362 104.15 44.4362 103.102V84.1186C44.4362 83.0702 43.6517 82.2203 42.6839 82.2203Z" fill="url(#paint18_linear)"/>
<path id="Vector_14" d="M42.6839 80.5855H23.4088C22.441 80.5855 21.6565 81.4354 21.6565 82.4839V101.467C21.6565 102.515 22.441 103.365 23.4088 103.365H42.6839C43.6517 103.365 44.4362 102.515 44.4362 101.467V82.4839C44.4362 81.4354 43.6517 80.5855 42.6839 80.5855Z" fill="url(#paint19_linear)"/>
</g>
</g>
<defs>
<linearGradient id="paint0_linear" x1="12" y1="64" x2="116" y2="64" gradientUnits="userSpaceOnUse">
<stop stop-color="#77767B"/>
<stop offset="0.05" stop-color="#C0BFBC"/>
<stop offset="0.1" stop-color="#9A9996"/>
<stop offset="0.9" stop-color="#9A9996"/>
<stop offset="0.95" stop-color="#C0BFBC"/>
<stop offset="1" stop-color="#77767B"/>
</linearGradient>
<linearGradient id="paint1_linear" x1="12" y1="60" x2="116" y2="60" gradientUnits="userSpaceOnUse">
<stop stop-color="#DEDDDA"/>
</linearGradient>
<linearGradient id="paint2_linear" x1="46.1875" y1="41.5937" x2="59.125" y2="41.5937" gradientUnits="userSpaceOnUse">
<stop stop-color="#3D3846"/>
</linearGradient>
<linearGradient id="paint3_linear" x1="31.4987" y1="74.7812" x2="44.4362" y2="74.7812" gradientUnits="userSpaceOnUse">
<stop stop-color="#3D3846"/>
</linearGradient>
<linearGradient id="paint4_linear" x1="61.4362" y1="74.7812" x2="48.4987" y2="74.7812" gradientUnits="userSpaceOnUse">
<stop stop-color="#3D3846"/>
</linearGradient>
<linearGradient id="paint5_linear" x1="96.4362" y1="74.7812" x2="83.4987" y2="74.7812" gradientUnits="userSpaceOnUse">
<stop stop-color="#3D3846"/>
</linearGradient>
<linearGradient id="paint6_linear" x1="65.9974" y1="74.7812" x2="78.9349" y2="74.7812" gradientUnits="userSpaceOnUse">
<stop stop-color="#3D3846"/>
</linearGradient>
<linearGradient id="paint7_linear" x1="82.125" y1="41.5937" x2="69.1875" y2="41.5937" gradientUnits="userSpaceOnUse">
<stop stop-color="#3D3846"/>
</linearGradient>
<linearGradient id="paint8_linear" x1="52.6101" y1="28.0246" x2="75.3898" y2="28.0246" gradientUnits="userSpaceOnUse">
<stop stop-color="#A51D2D"/>
</linearGradient>
<linearGradient id="paint9_linear" x1="52.6101" y1="26.3899" x2="75.3898" y2="26.3899" gradientUnits="userSpaceOnUse">
<stop stop-color="#F66151"/>
</linearGradient>
<linearGradient id="paint10_linear" x1="37.1333" y1="60.613" x2="59.913" y2="60.613" gradientUnits="userSpaceOnUse">
<stop stop-color="#613583"/>
</linearGradient>
<linearGradient id="paint11_linear" x1="37.1333" y1="58.9783" x2="59.913" y2="58.9783" gradientUnits="userSpaceOnUse">
<stop stop-color="#C061CB"/>
</linearGradient>
<linearGradient id="paint12_linear" x1="68.0869" y1="60.613" x2="90.8666" y2="60.613" gradientUnits="userSpaceOnUse">
<stop stop-color="#613583"/>
</linearGradient>
<linearGradient id="paint13_linear" x1="68.0869" y1="58.9783" x2="90.8666" y2="58.9783" gradientUnits="userSpaceOnUse">
<stop stop-color="#C061CB"/>
</linearGradient>
<linearGradient id="paint14_linear" x1="52.6101" y1="93.2014" x2="75.3898" y2="93.2014" gradientUnits="userSpaceOnUse">
<stop stop-color="#26A269"/>
</linearGradient>
<linearGradient id="paint15_linear" x1="52.6101" y1="91.5667" x2="75.3898" y2="91.5667" gradientUnits="userSpaceOnUse">
<stop stop-color="#2EC27E"/>
</linearGradient>
<linearGradient id="paint16_linear" x1="83.5637" y1="93.2014" x2="106.343" y2="93.2014" gradientUnits="userSpaceOnUse">
<stop stop-color="#26A269"/>
</linearGradient>
<linearGradient id="paint17_linear" x1="83.5637" y1="91.5667" x2="106.343" y2="91.5667" gradientUnits="userSpaceOnUse">
<stop stop-color="#2EC27E"/>
</linearGradient>
<linearGradient id="paint18_linear" x1="21.6565" y1="93.6101" x2="44.4362" y2="93.6101" gradientUnits="userSpaceOnUse">
<stop stop-color="#26A269"/>
</linearGradient>
<linearGradient id="paint19_linear" x1="21.6565" y1="91.9754" x2="44.4362" y2="91.9754" gradientUnits="userSpaceOnUse">
<stop stop-color="#2EC27E"/>
</linearGradient>
</defs>
</svg>
