<svg width="128" height="128" viewBox="0 0 128 128" fill="none" xmlns="http://www.w3.org/2000/svg">
<g id="preferences-virtualization-vm-new">
<g id="finistra">
<path id="Vector" d="M12 24L12 114H114V24H12Z" fill="url(#paint0_linear)"/>
<path id="Vector_2" d="M12.1842 24.125V34.125L114.224 34.125V24.125L12.1842 24.125Z" fill="url(#paint1_linear)"/>
<path id="Vector_3" fill-rule="evenodd" clip-rule="evenodd" d="M112.202 23.1261H14.7981V112.874H112.202V23.1261ZM11.7981 19C10.2527 19 9 20.3996 9 22.1261V115.874C9 117.6 10.2527 119 11.7981 119H116.202C117.748 119 119 117.6 119 115.874V22.1261C119 20.3996 117.748 19 116.202 19H11.7981Z" fill="url(#paint2_linear)"/>
<path id="Vector_4" d="M8.96875 17.4549C8.96875 15.9265 10.2077 14.6875 11.7362 14.6875H116.233C117.762 14.6875 119 15.9265 119 17.4549V25.125H8.96875V17.4549Z" fill="url(#paint3_linear)"/>
</g>
<g id="pulsanti">
<path id="Vector_5" d="M96.0312 20.9688H88.0938V22.9789H96.0312V20.9688Z" fill="url(#paint4_linear)"/>
<path id="Vector_6" d="M114.16 21.485L109.657 16.9824L108.211 18.4288L112.713 22.9314L114.16 21.485Z" fill="url(#paint5_linear)"/>
<path id="Vector_7" d="M109.721 22.9789L114.224 18.4763L112.73 16.9823L108.227 21.4849L109.721 22.9789Z" fill="url(#paint6_linear)"/>
<path id="Vector (Stroke)" fill-rule="evenodd" clip-rule="evenodd" d="M99.0795 17.1856H104.883V22.9789H99.0795V17.1856ZM100.55 18.6558V21.5087H103.413V18.6558H100.55Z" fill="url(#paint7_linear)"/>
</g>
<path id="Vector_8" d="M35.34 89.5L24 58H31.425L38.22 77.845C38.31 78.055 38.4 78.34 38.49 78.7L38.625 79.195C38.685 78.925 38.82 78.475 39.03 77.845L45.825 58H53.16L41.865 89.5H35.34Z" fill="#F66151"/>
<path id="Vector_9" fill-rule="evenodd" clip-rule="evenodd" d="M50.25 89.5001L61.59 58.0002H68.115L76.0866 80.2318L84.0899 58.0002H90.6149L101.91 89.5001H94.5749L87.7799 69.6551C87.5699 69.0251 87.4349 68.5751 87.3749 68.3051L87.2399 68.8001C87.1499 69.1601 87.0599 69.4451 86.9699 69.6551L80.175 89.5001H79.4099H72.75H72.075L65.28 69.6551C65.07 69.0251 64.935 68.5751 64.875 68.3051L64.74 68.8001C64.65 69.1601 64.56 69.4451 64.47 69.6551L57.675 89.5001H50.25Z" fill="#77767B"/>
<path id="Vector_10" d="M115.923 79H82.0769C80.3776 79 79 80.4924 79 82.3333V115.667C79 117.508 80.3776 119 82.0769 119H115.923C117.622 119 119 117.508 119 115.667V82.3333C119 80.4924 117.622 79 115.923 79Z" fill="url(#paint8_linear)"/>
<path id="Union" fill-rule="evenodd" clip-rule="evenodd" d="M93 104C93.5523 104 94 104.448 94 105V113C94 113.552 94.4477 114 95 114H103C103.552 114 104 113.552 104 113V105C104 104.448 104.448 104 105 104H113C113.552 104 114 103.552 114 103V95C114 94.4477 113.552 94 113 94H105C104.448 94 104 93.5523 104 93V85C104 84.4477 103.552 84 103 84H95C94.4477 84 94 84.4477 94 85V93C94 93.5523 93.5523 94 93 94H85C84.4477 94 84 94.4477 84 95V103C84 103.552 84.4477 104 85 104H93Z" fill="url(#paint9_linear)"/>
</g>
<defs>
<linearGradient id="paint0_linear" x1="63" y1="114" x2="63" y2="24" gradientUnits="userSpaceOnUse">
<stop stop-color="#F6F5F4"/>
</linearGradient>
<linearGradient id="paint1_linear" x1="63.2039" y1="34.125" x2="63.2039" y2="24.125" gradientUnits="userSpaceOnUse">
<stop stop-color="#F66151"/>
</linearGradient>
<linearGradient id="paint2_linear" x1="9" y1="64" x2="119" y2="64" gradientUnits="userSpaceOnUse">
<stop stop-color="#5E5C64"/>
</linearGradient>
<linearGradient id="paint3_linear" x1="9.20493" y1="18.4062" x2="118" y2="18.4062" gradientUnits="userSpaceOnUse">
<stop stop-color="#5E5C64"/>
</linearGradient>
<linearGradient id="paint4_linear" x1="88.0938" y1="21.9738" x2="96.0312" y2="21.9738" gradientUnits="userSpaceOnUse">
<stop stop-color="#F6F5F4"/>
</linearGradient>
<linearGradient id="paint5_linear" x1="108.934" y1="17.7056" x2="113.436" y2="22.2079" gradientUnits="userSpaceOnUse">
<stop stop-color="#F6F5F4"/>
</linearGradient>
<linearGradient id="paint6_linear" x1="113.477" y1="17.7293" x2="108.974" y2="22.2322" gradientUnits="userSpaceOnUse">
<stop stop-color="#F6F5F4"/>
</linearGradient>
<linearGradient id="paint7_linear" x1="98.7974" y1="20.0823" x2="105.165" y2="20.0823" gradientUnits="userSpaceOnUse">
<stop stop-color="#F6F5F4"/>
</linearGradient>
<linearGradient id="paint8_linear" x1="79" y1="99" x2="119" y2="99" gradientUnits="userSpaceOnUse">
<stop stop-color="#C061CB"/>
</linearGradient>
<linearGradient id="paint9_linear" x1="84" y1="99" x2="114" y2="99" gradientUnits="userSpaceOnUse">
<stop stop-color="#F6F5F4"/>
</linearGradient>
</defs>
</svg>
