<svg width="128" height="128" viewBox="0 0 128 128" fill="none" xmlns="http://www.w3.org/2000/svg">
<g id="preferences-system-network-server-boot">
<g id="server">
<g id="Group">
<path id="Vector" opacity="0.2" d="M13 105.62V89.8326C13 85.2075 16.755 81.4525 21.3801 81.4525H105.879C110.504 81.4525 114.259 85.2075 114.259 89.8326V105.62C114.259 110.245 110.504 114 105.879 114H21.3801C16.755 114 13 110.245 13 105.62Z" fill="black"/>
<path id="Vector_2" d="M13 103.567V88.269C13 83.5091 16.8646 79.6438 21.6252 79.6438H105.634C110.395 79.6438 114.259 83.5091 114.259 88.269V103.567C114.259 108.327 110.395 112.191 105.634 112.191H21.6252C16.8646 112.191 13 108.327 13 103.567Z" fill="#C0BFBC"/>
<path id="Vector_3" opacity="0.2" d="M22.945 95.9179C20.4485 95.9179 18.4247 93.8941 18.4247 91.3976C18.4247 88.9011 20.4485 86.8772 22.945 86.8772C25.4416 86.8772 27.4654 88.9011 27.4654 91.3976C27.4654 93.8941 25.4416 95.9179 22.945 95.9179Z" fill="black"/>
<path id="Vector_4" opacity="0.2" d="M36.9118 95.9179C34.4153 95.9179 32.3915 93.8941 32.3915 91.3976C32.3915 88.9011 34.4153 86.8772 36.9118 86.8772C39.4083 86.8772 41.4322 88.9011 41.4322 91.3976C41.4322 93.8941 39.4083 95.9179 36.9118 95.9179Z" fill="black"/>
<path id="Vector_5" opacity="0.2" d="M50.8786 95.9179C48.3821 95.9179 46.3582 93.8941 46.3582 91.3976C46.3582 88.9011 48.3821 86.8772 50.8786 86.8772C53.3751 86.8772 55.3989 88.9011 55.3989 91.3976C55.3989 93.8941 53.3751 95.9179 50.8786 95.9179Z" fill="black"/>
<path id="Vector_6" d="M22.945 94.1092C20.4485 94.1092 18.4247 92.0854 18.4247 89.5889C18.4247 87.0923 20.4485 85.0685 22.945 85.0685C25.4416 85.0685 27.4654 87.0923 27.4654 89.5889C27.4654 92.0854 25.4416 94.1092 22.945 94.1092Z" fill="#E66100"/>
<path id="Vector_7" d="M36.9118 94.1092C34.4153 94.1092 32.3915 92.0854 32.3915 89.5889C32.3915 87.0923 34.4153 85.0685 36.9118 85.0685C39.4083 85.0685 41.4322 87.0923 41.4322 89.5889C41.4322 92.0854 39.4083 94.1092 36.9118 94.1092Z" fill="#F5C211"/>
<path id="Vector_8" d="M50.8786 94.1092C48.3821 94.1092 46.3582 92.0854 46.3582 89.5889C46.3582 87.0923 48.3821 85.0685 50.8786 85.0685C53.3751 85.0685 55.3989 87.0923 55.3989 89.5889C55.3989 92.0854 53.3751 94.1092 50.8786 94.1092Z" fill="#33D17A"/>
<path id="Vector_9" opacity="0.5" fill-rule="evenodd" clip-rule="evenodd" d="M78.9686 89.9101L86.1964 100.762C86.357 100.993 86.4129 101.272 86.357 101.544C86.3011 101.817 86.1405 102.061 85.9101 102.215C85.6796 102.368 85.3933 102.424 85.1209 102.368C84.8486 102.313 84.6111 102.152 84.4575 101.922L77.2227 91.0763C77.0691 90.8459 77.0132 90.5595 77.0691 90.2872C77.125 90.0148 77.2856 89.7774 77.516 89.6238C77.7465 89.4701 78.0258 89.4143 78.2982 89.4632C78.5705 89.519 78.8149 89.6796 78.9686 89.9101V89.9101ZM95.3027 101.922L88.0749 91.0763C87.9213 90.8459 87.8654 90.5595 87.9143 90.2872C87.9702 90.0148 88.1308 89.7774 88.3612 89.6238C88.5917 89.4701 88.878 89.4143 89.1503 89.4632C89.4227 89.519 89.6601 89.6796 89.8138 89.9101L97.0486 100.762C97.2022 100.993 97.2581 101.272 97.2022 101.544C97.1533 101.817 96.9927 102.061 96.7553 102.215C96.5248 102.368 96.2455 102.424 95.9731 102.368C95.7008 102.313 95.4563 102.152 95.3027 101.922V101.922ZM106.155 101.922L98.9201 91.0763C98.7665 90.8459 98.7106 90.5595 98.7665 90.2872C98.8223 90.0148 98.983 89.7774 99.2134 89.6238C99.4439 89.4701 99.7232 89.4143 99.9955 89.4632C100.268 89.519 100.512 89.6796 100.666 89.9101L107.901 100.762C108.054 100.993 108.11 101.272 108.054 101.544C107.999 101.817 107.838 102.061 107.607 102.215C107.377 102.368 107.091 102.424 106.818 102.368C106.546 102.313 106.309 102.152 106.155 101.922V101.922ZM73.6053 101.922L66.3775 91.0763C66.2169 90.8459 66.161 90.5595 66.2169 90.2872C66.2728 90.0148 66.4334 89.7774 66.6638 89.6238C66.8943 89.4701 67.1806 89.4143 67.453 89.4632C67.7253 89.519 67.9627 89.6796 68.1164 89.9101L75.3512 100.762C75.5048 100.993 75.5607 101.272 75.5048 101.544C75.4489 101.817 75.2883 102.061 75.0579 102.215C74.8274 102.368 74.5481 102.424 74.2757 102.368C74.0034 102.313 73.759 102.152 73.6053 101.922V101.922Z" fill="#3D3846"/>
</g>
<g id="Group_2">
<path id="Vector_10" opacity="0.2" d="M13 72.798V57.0107C13 52.3856 16.755 48.6306 21.3801 48.6306H105.879C110.504 48.6306 114.259 52.3856 114.259 57.0107V72.798C114.259 77.4231 110.504 81.1781 105.879 81.1781H21.3801C16.755 81.1781 13 77.4231 13 72.798Z" fill="black"/>
<path id="Vector_11" d="M13 70.7449V55.4471C13 50.6872 16.8646 46.8219 21.6252 46.8219H105.634C110.395 46.8219 114.259 50.6872 114.259 55.4471V70.7449C114.259 75.5048 110.395 79.3694 105.634 79.3694H21.6252C16.8646 79.3694 13 75.5048 13 70.7449Z" fill="#C0BFBC"/>
<path id="Vector_12" opacity="0.2" d="M22.945 63.096C20.4485 63.096 18.4247 61.0722 18.4247 58.5756C18.4247 56.0791 20.4485 54.0553 22.945 54.0553C25.4416 54.0553 27.4654 56.0791 27.4654 58.5756C27.4654 61.0722 25.4416 63.096 22.945 63.096Z" fill="black"/>
<path id="Vector_13" opacity="0.2" d="M36.9118 63.096C34.4153 63.096 32.3915 61.0722 32.3915 58.5756C32.3915 56.0791 34.4153 54.0553 36.9118 54.0553C39.4083 54.0553 41.4322 56.0791 41.4322 58.5756C41.4322 61.0722 39.4083 63.096 36.9118 63.096Z" fill="black"/>
<path id="Vector_14" d="M22.945 61.2873C20.4485 61.2873 18.4247 59.2635 18.4247 56.767C18.4247 54.2704 20.4485 52.2466 22.945 52.2466C25.4416 52.2466 27.4654 54.2704 27.4654 56.767C27.4654 59.2635 25.4416 61.2873 22.945 61.2873Z" fill="#E66100"/>
<path id="Vector_15" d="M36.9118 61.2873C34.4153 61.2873 32.3915 59.2635 32.3915 56.767C32.3915 54.2704 34.4153 52.2466 36.9118 52.2466C39.4083 52.2466 41.4322 54.2704 41.4322 56.767C41.4322 59.2635 39.4083 61.2873 36.9118 61.2873Z" fill="#F5C211"/>
<path id="Vector_16" opacity="0.5" fill-rule="evenodd" clip-rule="evenodd" d="M78.9686 57.0882L86.1964 67.9404C86.357 68.1708 86.4129 68.4502 86.357 68.7225C86.3011 68.9949 86.1405 69.2393 85.9101 69.3929C85.6796 69.5466 85.3933 69.6024 85.1209 69.5466C84.8486 69.4907 84.6111 69.3301 84.4575 69.0996L77.2227 58.2544C77.0691 58.024 77.0132 57.7376 77.0691 57.4653C77.125 57.1929 77.2856 56.9555 77.516 56.8019C77.7465 56.6482 78.0258 56.5924 78.2982 56.6413C78.5705 56.6971 78.8149 56.8577 78.9686 57.0882V57.0882ZM95.3027 69.0996L88.0749 58.2544C87.9213 58.024 87.8654 57.7376 87.9143 57.4653C87.9702 57.1929 88.1308 56.9555 88.3612 56.8019C88.5917 56.6482 88.878 56.5924 89.1503 56.6413C89.4227 56.6971 89.6601 56.8577 89.8138 57.0882L97.0486 67.9404C97.2022 68.1708 97.2581 68.4502 97.2022 68.7225C97.1533 68.9949 96.9927 69.2393 96.7553 69.3929C96.5248 69.5466 96.2455 69.6024 95.9731 69.5466C95.7008 69.4907 95.4563 69.3301 95.3027 69.0996V69.0996ZM106.155 69.0996L98.9201 58.2544C98.7665 58.024 98.7106 57.7376 98.7665 57.4653C98.8223 57.1929 98.983 56.9555 99.2134 56.8019C99.4439 56.6482 99.7232 56.5924 99.9955 56.6413C100.268 56.6971 100.512 56.8577 100.666 57.0882L107.901 67.9404C108.054 68.1708 108.11 68.4502 108.054 68.7225C107.999 68.9949 107.838 69.2393 107.607 69.3929C107.377 69.5466 107.091 69.6024 106.818 69.5466C106.546 69.4907 106.309 69.3301 106.155 69.0996V69.0996ZM73.6053 69.0996L66.3775 58.2544C66.2169 58.024 66.161 57.7376 66.2169 57.4653C66.2728 57.1929 66.4334 56.9555 66.6638 56.8019C66.8943 56.6482 67.1806 56.5924 67.453 56.6413C67.7253 56.6971 67.9627 56.8577 68.1164 57.0882L75.3512 67.9404C75.5048 68.1708 75.5607 68.4502 75.5048 68.7225C75.4489 68.9949 75.2883 69.2393 75.0579 69.3929C74.8274 69.5466 74.5481 69.6024 74.2757 69.5466C74.0034 69.4907 73.759 69.3301 73.6053 69.0996V69.0996Z" fill="#3D3846"/>
</g>
<g id="Group_3">
<path id="Vector_17" opacity="0.2" d="M13 39.9761V24.1888C13 19.5637 16.755 15.8087 21.3801 15.8087H105.879C110.504 15.8087 114.259 19.5637 114.259 24.1888V39.9761C114.259 44.6012 110.504 48.3562 105.879 48.3562H21.3801C16.755 48.3562 13 44.6012 13 39.9761Z" fill="#1A1A1A"/>
<path id="Vector_18" d="M13 37.923V22.6252C13 17.8653 16.8646 14 21.6252 14H105.634C110.395 14 114.259 17.8653 114.259 22.6252V37.923C114.259 42.6829 110.395 46.5475 105.634 46.5475H21.6252C16.8646 46.5475 13 42.6829 13 37.923Z" fill="#C0BFBC"/>
<path id="Vector_19" opacity="0.2" d="M22.945 30.2741C20.4485 30.2741 18.4247 28.2503 18.4247 25.7537C18.4247 23.2572 20.4485 21.2334 22.945 21.2334C25.4416 21.2334 27.4654 23.2572 27.4654 25.7537C27.4654 28.2503 25.4416 30.2741 22.945 30.2741Z" fill="black"/>
<path id="Vector_20" d="M22.945 28.4654C20.4485 28.4654 18.4247 26.4415 18.4247 23.945C18.4247 21.4485 20.4485 19.4247 22.945 19.4247C25.4416 19.4247 27.4654 21.4485 27.4654 23.945C27.4654 26.4415 25.4416 28.4654 22.945 28.4654Z" fill="#E66100"/>
<path id="Vector_21" opacity="0.5" fill-rule="evenodd" clip-rule="evenodd" d="M78.9686 24.2663L86.1964 35.1184C86.357 35.3489 86.4129 35.6282 86.357 35.9006C86.3011 36.1729 86.1405 36.4174 85.9101 36.571C85.6796 36.7246 85.3933 36.7805 85.1209 36.7246C84.8486 36.6688 84.6111 36.5081 84.4575 36.2777L77.2227 25.4325C77.0691 25.202 77.0132 24.9157 77.0691 24.6434C77.125 24.371 77.2856 24.1336 77.516 23.9799C77.7465 23.8263 78.0258 23.7704 78.2982 23.8193C78.5705 23.8752 78.8149 24.0358 78.9686 24.2663ZM95.3027 36.2777L88.0749 25.4325C87.9213 25.202 87.8654 24.9157 87.9143 24.6434C87.9702 24.371 88.1308 24.1336 88.3612 23.9799C88.5917 23.8263 88.878 23.7704 89.1503 23.8193C89.4227 23.8752 89.6601 24.0358 89.8138 24.2663L97.0486 35.1184C97.2022 35.3489 97.2581 35.6282 97.2022 35.9006C97.1533 36.1729 96.9927 36.4174 96.7553 36.571C96.5248 36.7246 96.2455 36.7805 95.9731 36.7246C95.7008 36.6688 95.4563 36.5081 95.3027 36.2777ZM106.155 36.2777L98.9201 25.4325C98.7665 25.202 98.7106 24.9157 98.7665 24.6434C98.8223 24.371 98.983 24.1336 99.2134 23.9799C99.4439 23.8263 99.7232 23.7704 99.9955 23.8193C100.268 23.8752 100.512 24.0358 100.666 24.2663L107.901 35.1184C108.054 35.3489 108.11 35.6282 108.054 35.9006C107.999 36.1729 107.838 36.4174 107.607 36.571C107.377 36.7246 107.091 36.7805 106.818 36.7246C106.546 36.6688 106.309 36.5081 106.155 36.2777ZM73.6053 36.2777L66.3775 25.4325C66.2169 25.202 66.161 24.9157 66.2169 24.6434C66.2728 24.371 66.4334 24.1336 66.6638 23.9799C66.8943 23.8263 67.1806 23.7704 67.453 23.8193C67.7253 23.8752 67.9627 24.0358 68.1164 24.2663L75.3512 35.1184C75.5048 35.3489 75.5607 35.6282 75.5048 35.9006C75.4489 36.1729 75.2883 36.4174 75.0579 36.571C74.8274 36.7246 74.5481 36.7805 74.2757 36.7246C74.0034 36.6688 73.759 36.5081 73.6053 36.2777Z" fill="#3D3846"/>
</g>
</g>
<g id="box">
<path id="Vector_22" d="M116.538 76.6667H78.4615C76.5498 76.6667 75 78.2834 75 80.2778V116.389C75 118.383 76.5498 120 78.4615 120H116.538C118.45 120 120 118.383 120 116.389V80.2778C120 78.2834 118.45 76.6667 116.538 76.6667Z" fill="url(#paint0_linear)"/>
<path id="Vector_23" d="M116.538 75H78.4615C76.5498 75 75 76.6167 75 78.6111V114.722C75 116.716 76.5498 118.333 78.4615 118.333H116.538C118.45 118.333 120 116.716 120 114.722V78.6111C120 76.6167 118.45 75 116.538 75Z" fill="url(#paint1_linear)"/>
</g>
<g id="shutdown">
<g id="Group_4">
<path id="Vector_24" d="M92.08 84.6268C91.6967 84.6135 91.3176 84.7106 90.988 84.9066C88.3255 86.4502 86.2456 88.8266 85.0694 91.6689C83.8931 94.5112 83.686 97.6612 84.48 100.633C85.2778 103.603 87.0322 106.228 89.4722 108.102C91.9122 109.977 94.9021 110.996 97.98 111.004C101.058 111.006 104.051 109.995 106.497 108.128C108.943 106.26 110.705 103.641 111.512 100.673C112.314 97.7029 112.116 94.5519 110.947 91.706C109.778 88.8601 107.705 86.4777 105.046 84.9266C104.819 84.7944 104.568 84.7083 104.308 84.673C104.047 84.6378 103.783 84.6541 103.528 84.7211C103.274 84.7881 103.036 84.9044 102.827 85.0634C102.618 85.2225 102.442 85.4211 102.31 85.6479C102.178 85.8748 102.092 86.1254 102.056 86.3856C102.021 86.6457 102.037 86.9103 102.104 87.1641C102.171 87.418 102.288 87.6561 102.447 87.865C102.606 88.0739 102.805 88.2494 103.032 88.3815C104.934 89.4857 106.417 91.1866 107.252 93.22C108.087 95.2533 108.226 97.5052 107.648 99.6257C107.076 101.748 105.819 103.622 104.071 104.956C102.324 106.291 100.184 107.011 97.984 107.005C95.7847 107.005 93.6473 106.278 91.904 104.938C90.1606 103.599 88.9091 101.721 88.344 99.5977C87.7725 97.4757 87.9183 95.2245 88.7588 93.1938C89.5993 91.1631 91.0874 89.4665 92.992 88.3675C93.3734 88.1542 93.6743 87.8218 93.8487 87.4214C94.0231 87.0209 94.0614 86.5744 93.9577 86.1502C93.854 85.7259 93.6141 85.3473 93.2747 85.0722C92.9352 84.797 92.5149 84.6406 92.078 84.6268H92.08Z" fill="url(#paint2_linear)"/>
<path id="Vector_25" d="M97.968 81C97.4379 81.0084 96.9328 81.2268 96.5638 81.6071C96.1948 81.9874 95.992 82.4986 96 83.0282V93.0195C96 93.5495 96.2107 94.0577 96.5858 94.4325C96.9608 94.8072 97.4696 95.0177 98 95.0177C98.5304 95.0177 99.0391 94.8072 99.4142 94.4325C99.7893 94.0577 100 93.5495 100 93.0195V83.0282C100.004 82.7608 99.9538 82.4952 99.8529 82.2474C99.7521 81.9996 99.6025 81.7746 99.413 81.5856C99.2235 81.3967 98.998 81.2476 98.7497 81.1474C98.5015 81.0471 98.2357 80.9977 97.968 81.002V81Z" fill="url(#paint3_linear)"/>
</g>
</g>
</g>
<defs>
<linearGradient id="paint0_linear" x1="75" y1="98.3333" x2="120" y2="98.3333" gradientUnits="userSpaceOnUse">
<stop stop-color="#5E5C64"/>
</linearGradient>
<linearGradient id="paint1_linear" x1="75" y1="96.6667" x2="120" y2="96.6667" gradientUnits="userSpaceOnUse">
<stop stop-color="#DEDDDA"/>
</linearGradient>
<linearGradient id="paint2_linear" x1="84.0057" y1="97.8147" x2="111.996" y2="97.8147" gradientUnits="userSpaceOnUse">
<stop stop-color="#5E5C64"/>
</linearGradient>
<linearGradient id="paint3_linear" x1="95.9998" y1="88.0089" x2="100" y2="88.0089" gradientUnits="userSpaceOnUse">
<stop stop-color="#5E5C64"/>
</linearGradient>
</defs>
</svg>
