<svg fill="none" height="128" viewBox="0 0 128 128" width="128" xmlns="http://www.w3.org/2000/svg" xmlns:xlink="http://www.w3.org/1999/xlink">
  <linearGradient id="paint2_linear" gradientUnits="userSpaceOnUse" x1="65.5" x2="65.5" y1="45.9624" y2="97.1452">
    <stop offset="0"/>
    <stop offset="1" stop-opacity="0"/>
  </linearGradient>
  <g fill="#62a0ea">
    <path d="m117 63c0 13.7912-5.479 27.0176-15.23 36.7695-9.7523 9.7515-22.9787 15.2305-36.77 15.2305-6.8287 0-13.5906-1.345-19.8995-3.958-6.309-2.614-12.0414-6.444-16.87-11.2724-4.8287-4.8287-8.659-10.5611-11.2722-16.8701-2.6133-6.3089-3.9583-13.0708-3.9583-19.8995s1.345-13.5906 3.9583-19.8995c2.6132-6.309 6.4435-12.0414 11.2722-16.8701 4.8286-4.8286 10.561-8.6589 16.87-11.2721 6.3089-2.6133 13.0708-3.9583 19.8995-3.9583 13.7913 0 27.0177 5.4786 36.77 15.2304 9.751 9.7519 15.23 22.9783 15.23 36.7696z" opacity=".347"/>
    <path d="m113.533 61.2667c0-26.8043-21.7287-48.5334-48.5329-48.5334s-48.5334 21.7291-48.5334 48.5334v1.7333c0 26.8042 21.7292 48.533 48.5334 48.533s48.5329-21.7288 48.5329-48.533z"/>
    <path d="m117 61.2667c0 13.7912-5.479 27.0176-15.23 36.7695-9.7523 9.7518-22.9787 15.2308-36.77 15.2308-6.8287 0-13.5906-1.345-19.8995-3.959-6.309-2.613-12.0414-6.443-16.87-11.2718-4.8287-4.8287-8.659-10.5611-11.2722-16.87-2.6133-6.3089-3.9583-13.0708-3.9583-19.8995 0-6.8288 1.345-13.5907 3.9583-19.8996 2.6132-6.3089 6.4435-12.0414 11.2722-16.87 4.8286-4.8287 10.561-8.6589 16.87-11.2722 6.3089-2.6132 13.0708-3.95825 19.8995-3.95825 13.7913 0 27.0177 5.47855 36.77 15.23045 9.751 9.7519 15.23 22.9783 15.23 36.7696z"/>
  </g>
  <path d="m65 43.2504c-4.5971 0-9.0059 1.8261-12.2565 5.0768-3.2506 3.2506-5.0768 7.6594-5.0768 12.2565s1.8262 9.0059 5.0768 12.2565 7.6594 5.0768 12.2565 5.0768 9.0059-1.8262 12.2565-5.0768c3.2507-3.2506 5.0769-7.6594 5.0769-12.2565s-1.8262-9.0059-5.0769-12.2565c-3.2506-3.2507-7.6594-5.0768-12.2565-5.0768zm-6.9333 8.6666c.2276 0 .453.0448.6633.132.2103.0871.4014.2147.5623.3757.161.161.2887.352.3758.5623s.1319.4357.1319.6634c0 .2276-.0448.453-.1319.6633s-.2148.4013-.3758.5623c-.1609.161-.352.2886-.5623.3757-.2103.0872-.4357.132-.6633.132s-.453-.0448-.6633-.132c-.2103-.0871-.4014-.2147-.5624-.3757-.1609-.161-.2886-.352-.3757-.5623s-.1319-.4357-.1319-.6633c0-.2277.0448-.4531.1319-.6634s.2148-.4013.3757-.5623c.161-.161.3521-.2886.5624-.3757.2103-.0872.4357-.132.6633-.132zm6.9333 0c.2276 0 .4531.0448.6634.132.2102.0871.4013.2147.5623.3757.1609.161.2886.352.3757.5623s.132.4357.132.6634c0 .2276-.0449.453-.132.6633s-.2148.4013-.3757.5623c-.161.161-.3521.2886-.5623.3757-.2103.0872-.4358.132-.6634.132s-.453-.0448-.6633-.132c-.2103-.0871-.4014-.2147-.5623-.3757-.161-.161-.2887-.352-.3758-.5623s-.1319-.4357-.1319-.6633c0-.2277.0448-.4531.1319-.6634s.2148-.4013.3758-.5623c.1609-.161.352-.2886.5623-.3757.2103-.0872.4357-.132.6633-.132zm6.9334 0c.2276 0 .453.0448.6633.132.2103.0871.4014.2147.5623.3757.161.161.2886.352.3757.5623.0872.2103.132.4357.132.6634 0 .2276-.0448.453-.132.6633-.0871.2103-.2147.4013-.3757.5623-.1609.161-.352.2886-.5623.3757-.2103.0872-.4357.132-.6633.132-.2277 0-.4531-.0448-.6634-.132-.2103-.0871-.4013-.2147-.5623-.3757-.1609-.161-.2886-.352-.3757-.5623s-.132-.4357-.132-.6633c0-.2277.0449-.4531.132-.6634s.2148-.4013.3757-.5623c.161-.161.352-.2886.5623-.3757.2103-.0872.4357-.132.6634-.132zm-13.8667 6.9334c.2276 0 .453.0448.6633.1319s.4014.2148.5623.3757c.161.161.2887.3521.3758.5624s.1319.4357.1319.6633-.0448.453-.1319.6633-.2148.4014-.3758.5623c-.1609.161-.352.2887-.5623.3758s-.4357.1319-.6633.1319-.453-.0448-.6633-.1319-.4014-.2148-.5624-.3758c-.1609-.1609-.2886-.352-.3757-.5623s-.1319-.4357-.1319-.6633.0448-.453.1319-.6633.2148-.4014.3757-.5624c.161-.1609.3521-.2886.5624-.3757s.4357-.1319.6633-.1319zm6.9333 0c.2276 0 .4531.0448.6634.1319.2102.0871.4013.2148.5623.3757.1609.161.2886.3521.3757.5624s.132.4357.132.6633-.0449.453-.132.6633-.2148.4014-.3757.5623c-.161.161-.3521.2887-.5623.3758-.2103.0871-.4358.1319-.6634.1319s-.453-.0448-.6633-.1319-.4014-.2148-.5623-.3758c-.161-.1609-.2887-.352-.3758-.5623s-.1319-.4357-.1319-.6633.0448-.453.1319-.6633.2148-.4014.3758-.5624c.1609-.1609.352-.2886.5623-.3757s.4357-.1319.6633-.1319zm6.9334 0c.2276 0 .453.0448.6633.1319s.4014.2148.5623.3757c.161.161.2886.3521.3757.5624.0872.2103.132.4357.132.6633s-.0448.453-.132.6633c-.0871.2103-.2147.4014-.3757.5623-.1609.161-.352.2887-.5623.3758s-.4357.1319-.6633.1319c-.2277 0-.4531-.0448-.6634-.1319s-.4013-.2148-.5623-.3758c-.1609-.1609-.2886-.352-.3757-.5623s-.132-.4357-.132-.6633.0449-.453.132-.6633.2148-.4014.3757-.5624c.161-.1609.352-.2886.5623-.3757s.4357-.1319.6634-.1319zm-13.8667 6.9333c.2276 0 .453.0448.6633.1319s.4014.2148.5623.3758c.161.1609.2887.352.3758.5623s.1319.4357.1319.6633-.0448.453-.1319.6633-.2148.4014-.3758.5624c-.1609.1609-.352.2886-.5623.3757s-.4357.132-.6633.132-.453-.0449-.6633-.132-.4014-.2148-.5624-.3757c-.1609-.161-.2886-.3521-.3757-.5624s-.1319-.4357-.1319-.6633.0448-.453.1319-.6633.2148-.4014.3757-.5623c.161-.161.3521-.2887.5624-.3758s.4357-.1319.6633-.1319zm6.9333 0c.2276 0 .4531.0448.6634.1319.2102.0871.4013.2148.5623.3758.1609.1609.2886.352.3757.5623s.132.4357.132.6633-.0449.453-.132.6633-.2148.4014-.3757.5624c-.161.1609-.3521.2886-.5623.3757-.2103.0871-.4358.132-.6634.132s-.453-.0449-.6633-.132-.4014-.2148-.5623-.3757c-.161-.161-.2887-.3521-.3758-.5624s-.1319-.4357-.1319-.6633.0448-.453.1319-.6633.2148-.4014.3758-.5623c.1609-.161.352-.2887.5623-.3758s.4357-.1319.6633-.1319zm6.9334 0c.2276 0 .453.0448.6633.1319s.4014.2148.5623.3758c.161.1609.2886.352.3757.5623.0872.2103.132.4357.132.6633s-.0448.453-.132.6633c-.0871.2103-.2147.4014-.3757.5624-.1609.1609-.352.2886-.5623.3757s-.4357.132-.6633.132c-.2277 0-.4531-.0449-.6634-.132s-.4013-.2148-.5623-.3757c-.1609-.161-.2886-.3521-.3757-.5624s-.132-.4357-.132-.6633.0449-.453.132-.6633.2148-.4014.3757-.5623c.161-.161.352-.2887.5623-.3758s.4357-.1319.6634-.1319z" fill="#f6f5f4"/>
  <path d="m38.8597 16.4278c-.6615.3605-1.3151.7352-1.9603 1.1241-1.4591.9366-2.8704 1.9457-4.2286 3.0233-1.3582 1.078-2.6616 2.2232-3.9053 3.4314-1.1368 1.1131-2.2219 2.2779-3.2519 3.4905-.0061.0078-.0052.0384-.0119.0457l4.618 5.5186c-1.4924 1.8219-2.8393 3.7561-4.0306 5.7877-1.2032 2.0853-2.1598 4.2446-2.998 6.4242l-7.0607-1.2493c-.0007.0026-.0126-.0034-.0135-.0017-.2462.6358-.4798 1.2764-.7008 1.9214-.5126 1.6562-.9419 3.337-1.2866 5.0361-.3445 1.6991-.6038 3.4143-.777 5.1394-.1656 1.6758-.2498 3.3588-.2522 5.0428 0 .0018.0035.0004.0035.0018l7.0895 1.256c.1036 4.7273.9351 9.4011 2.4664 13.8523l-6.1466 3.538c.038.1153.0763.2304.1151.3453.6281 1.6161 1.3365 3.1997 2.1228 4.745.3521.6447.7178 1.2819 1.0969 1.9112l1.6725 2.854c.8842 1.3676 1.8321 2.6928 2.8406 3.9714.3328.3904.6714.7758 1.0157 1.1562l5.9807-3.4567c3.0261 3.4735 6.6226 6.5232 10.7663 9.0225l-2.3175 6.369c.1193.073.2389.147.3589.22 1.5215.831 3.0837 1.586 4.6806 2.261 1.5972.675 3.2271 1.27 4.8838 1.783 1.6562.512 3.337.942 5.0361 1.286.4892.081.9796.155 1.471.222l2.2345-6.16c4.6991.742 9.4526.751 14.0741.03l2.1905 6.008c1.437-.259 2.8625-.579 4.2727-.958 1.6706-.464 3.3169-1.012 4.9328-1.64 1.6155-.628 3.1985-1.337 4.7433-2.123.8-.431 1.5885-.883 2.3648-1.356l-2.1397-5.854c4.0054-2.3971 7.6647-5.4203 10.8238-9.0529l5.3766 3.1029c1.027-1.2287 1.997-2.5042 2.906-3.8224.979-1.431 1.886-2.9101 2.717-4.4318.832-1.5215 1.587-3.0837 2.262-4.6806.278-.7124.541-1.4309.787-2.155l-5.349-3.091c1.557-4.5478 2.336-9.2332 2.407-13.8963l6.26-1.1088c0-1.2172-.043-2.4339-.129-3.648 0-.0026-.001-.0044-.001-.007-.123-1.7269-.331-3.4468-.625-5.1529-.294-1.709-.674-3.4023-1.138-5.0733-.325-1.0991-.687-2.187-1.085-3.2621l-6.339 1.1207c-1.685-4.3666-4.058-8.4799-7.046-12.1832l4.251-5.0548c-.825-1.0122-1.687-1.993-2.585-2.9404-1.208-1.2437-2.4776-2.4262-3.8038-3.543-1.3258-1.1167-2.7066-2.1665-4.1372-3.1453-.8868-.5817-1.7912-1.136-2.7119-1.6623l-4.3336 5.1512c-4.1276-2.2847-8.5874-3.9092-13.2175-4.8144v-6.9083c-1.2949-.24643-2.5988-.44348-3.9087-.59081-1.7252-.17283-3.458-.25927-5.1918-.25899-1.2273.00002-2.4543.04351-3.6785.13035-1.6523.12108-3.2979.32106-4.9312.59925l.3284 7.0133c-4.6399.9037-9.1088 2.5281-13.2462 4.8144l-4.5807-5.4543c-.0061.0035-.024-.0162-.0305-.0135zm26.5416 7.3282c20.8799 0 37.8057 16.9274 37.8057 37.8073s-16.9258 37.8056-37.8057 37.8056-37.8073-16.9257-37.8073-37.8056 16.9274-37.8073 37.8073-37.8073z" fill="#f6f5f4"/>
  <path clip-rule="evenodd" d="m23 61.5c0-23.4721 19.0279-42.5 42.5-42.5s42.5 19.0279 42.5 42.5-19.0279 42.5-42.5 42.5-42.5-19.0279-42.5-42.5zm42.5-37.9301c-20.9482 0-37.9301 16.9819-37.9301 37.9301s16.9819 37.9301 37.9301 37.9301 37.93-16.9819 37.93-37.9301-16.9818-37.9301-37.93-37.9301z" fill="url(#paint2_linear)" fill-rule="evenodd" opacity=".2"/>
  <path d="m65.5 14c-12.0673 0-23.6405 4.9498-32.1734 13.7605s-13.3266 20.7606-13.3266 33.2208c.0081.3397.0197.6793.035 1.0187.1833-12.3285 5.0531-24.0885 13.5586-32.7428 8.5056-8.6543 19.9652-13.5091 31.9064-13.5172 11.8922.0066 23.3092 4.8204 31.8068 13.4108 8.4972 8.5904 13.4002 20.2746 13.6582 32.551.013-.2401.025-.4803.035-.7205 0-6.1697-1.177-12.2789-3.463-17.979-2.287-5.7-5.639-10.8792-9.8636-15.2418-4.2251-4.3626-9.241-7.8232-14.7613-10.1843-5.5203-2.361-11.437-3.5762-17.4121-3.5762z" fill="#62a0ea" opacity=".1"/>
</svg>
