<svg height="128" width="128" xmlns="http://www.w3.org/2000/svg">
  <path d="m94.536146 33.641992v14.693878c0 8.140408-6.553469 14.693877-14.693877 14.693877h-29.387755s-14.693878 0-14.693878 14.693878v25.714285c0 10.17796 11.471021 18.36735 25.714286 18.36735h7.346939c14.243265 0 25.714285-8.18939 25.714285-18.36735v-11.020408h11.020404c10.17796 0 18.36735-11.47102 18.36735-25.714285v-7.346939c0-14.243265-8.18939-25.714286-18.36735-25.714286z" fill="#f5c211"/>
  <path d="m79.842269 104.6624a4.8979592 4.8979592 0 0 1 4.897959 4.89796 4.8979592 4.8979592 0 0 1 -4.897959 4.89796 4.8979592 4.8979592 0 0 1 -4.897959-4.89796 4.8979592 4.8979592 0 0 1 4.897959-4.89796z" opacity=".2"/>
  <path d="m79.842269 102.21342a4.8979592 4.8979592 0 0 1 4.897959 4.89796 4.8979592 4.8979592 0 0 1 -4.897959 4.89796 4.8979592 4.8979592 0 0 1 -4.897959-4.89796 4.8979592 4.8979592 0 0 1 4.897959-4.89796z" fill="#fff"/>
  <path d="m61.474922 4.2542373c-14.243265 0-25.714286 8.1918367-25.714286 18.3673467v11.020408h-11.020408c-10.17551 0-18.3673466 11.471021-18.3673466 25.714286v7.346939c0 14.243265 8.1918366 25.714285 18.3673466 25.714285h11.020408v-14.693877c0-8.140408 6.553469-14.693878 14.693878-14.693878h29.387755s14.693877 0 14.693877-14.693877v-25.714286c0-10.17551-11.47102-18.3673467-25.714285-18.3673467z" fill="#1c71d8"/>
  <path d="m50.454514 16.499135a4.8979592 4.8979592 0 0 1 4.897959 4.897959 4.8979592 4.8979592 0 0 1 -4.897959 4.897959 4.8979592 4.8979592 0 0 1 -4.89796-4.897959 4.8979592 4.8979592 0 0 1 4.89796-4.897959z" opacity=".2"/>
  <path d="m50.454514 14.050155a4.8979592 4.8979592 0 0 1 4.897959 4.89796 4.8979592 4.8979592 0 0 1 -4.897959 4.897959 4.8979592 4.8979592 0 0 1 -4.89796-4.897959 4.8979592 4.8979592 0 0 1 4.89796-4.89796z" fill="#fff"/>
  <path d="m94.536146 48.33587c0 14.693877-14.693877 14.693877-14.693877 14.693877h-29.387755c-8.140409 0-14.693878 6.55347-14.693878 14.693878v2.448979c0-8.140408 6.553469-14.693877 14.693878-14.693877h29.387755s14.693877 0 14.693877-14.693878zm-88.1632646 18.367347v2.448979c0 14.243265 8.1918366 25.714286 18.3673466 25.714286h11.020408v-2.44898h-11.020408c-10.17551 0-18.3673466-11.47102-18.3673466-25.714285z" opacity=".2"/>
  <path d="m123.9239 66.703217c0 14.243265-8.18939 25.714285-18.36735 25.714285h-11.020404v2.44898h11.020404c10.17796 0 18.36735-11.471021 18.36735-25.714286zm-88.163264 36.734693v2.44898c0 10.17551 11.468572 18.36735 25.714286 18.36735h7.346939c14.243265 0 25.714285-8.18939 25.714285-18.36735v-2.44898c0 10.17796-11.47102 18.36735-25.714285 18.36735h-7.346939c-14.245714 0-25.714286-8.19184-25.714286-18.36735z" opacity=".2"/>
</svg>
