<svg height="128" width="128" xmlns="http://www.w3.org/2000/svg" xmlns:xlink="http://www.w3.org/1999/xlink">
  <linearGradient id="e" gradientTransform="matrix(1.0015 0 0 .99993 72.09 -115.985)" gradientUnits="userSpaceOnUse" x1="43.844" x2="-60" y1="234" y2="234">
    <stop offset="0" stop-color="#57e389"/>
    <stop offset=".038" stop-color="#8ff0a4"/>
    <stop offset=".077" stop-color="#26a269"/>
    <stop offset=".923" stop-color="#26a269"/>
    <stop offset=".962" stop-color="#8ff0a4"/>
    <stop offset="1" stop-color="#57e389"/>
  </linearGradient>
  <rect fill="url(#e)" height="48" rx="8" width="104" x="12" y="68"/>
  <path d="m20 10c-4.432 0-8 3.568-8 8v42 42c0 4.432 3.568 8 8 8h44 44c4.432 0 8-3.568 8-8v-42-42c0-4.432-3.568-8-8-8z" fill="#33d17a"/>
  <path d="m49.939778 31.94344c-6.028399 0-10.899225 2.193109-14.601867 6.578888-4.224389 4.997725-6.337911 11.770721-6.337911 20.337998 0 6.374611 1.22257 11.916193 3.690703 16.607502 3.749953 6.986558 9.512172 10.470329 17.249075 10.470329 1.671804 7.465417 6.283083 11.392229 17.129249 9.747403v-5.415569c-5.049017.465594-6.145571-2.309398-6.539093-7.220459v-.321007c1.519259-.969213 2.897912-2.171444 4.131978-3.650467 4.034704-4.844739 6.057582-11.599163 6.057582-20.217731 0-6.425459-1.28801-11.955986-3.851208-16.647297-3.797263-6.833571-9.428603-10.26959-16.928508-10.26959zm40.636204 2.16658-7.621499.200298-2.527382 11.954218h-5.415568v8.945324h4.974292v17.129249c0 4.69131.668988 7.981416 1.965841 9.867669 1.632452 2.499081 5.099864 3.731379 10.42921 3.731379 1.777037 0 3.978111-.241862 6.619124-.802519v-8.504489c-1.824349.101699-3.179567.160505-4.091299.160505-1.488751 0-2.54507-.252032-3.169399-.762283-.768471-.611949-1.16332-2.194437-1.16332-4.693521v-16.12599h7.862478v-8.945324h-7.862478zm-40.636204 7.862034c5.886023.000441 8.825057 5.647257 8.825057 16.968303 0 11.321488-2.939034 17.008983-8.825057 17.008983-5.980646 0-8.985118-5.716677-8.985118-17.089014 0-.45896 0-.904657 0-1.36406.284308-10.351834 3.289222-15.52377 8.985118-15.524212z" fill="#f6f5f4"/>
  <path d="m84 72c-4.432 0-8 3.568-8 8v14 16h18 14c4.432 0 8-3.568 8-8v-8-14-8z" fill="#5e5c64"/>
  <path d="m96 76c-8.272 0-15 6.727999-15 14.999999 0 8.272001 6.728 15.000001 15 15.000001s15-6.728 15-15.000001c0-8.272-6.728-14.999999-15-14.999999zm-2.464844 2.242187c-3.034156 3.68996-4.717894 7.810888-4.945314 11.757813h-5.539062c.447424-5.894445 4.79538-10.67014 10.484376-11.757813zm4.92578 0c5.688984 1.08767 10.036934 5.863393 10.484384 11.757813h-5.53907c-.2268-3.947581-1.91138-8.069687-4.945314-11.757813zm-2.460936.238281c3.34346 3.631996 5.1549 7.739528 5.40625 11.519532h-10.816408c.251994-3.781755 2.06728-7.887493 5.410158-11.519532zm-12.964844 13.519532h5.5625c.256432 3.986262 1.885128 8.062 4.941406 11.76953a12.984 12.984 0 0 1 -10.503906-11.76953zm7.566406 0h10.792968c-.27756 3.85005-2.01851 7.861808-5.398436 11.52344-3.379242-3.661652-5.117414-7.675056-5.394532-11.52344zm12.796878 0h5.54688c-.44745 5.894446-4.79537 10.67408-10.484384 11.76172 3.052294-3.70622 4.681454-7.778762 4.937504-11.76172z" fill="#f6f5f4"/>
</svg>
