<svg xmlns="http://www.w3.org/2000/svg" width="128" height="128" version="1.1" viewBox="0 0 33.87 33.87">
 <defs>
  <linearGradient id="linearGradient1108" x1="296" x2="296" y1="-212" y2="236" gradientUnits="userSpaceOnUse">
   <stop style="stop-color:#ffffff" id="stop2" offset="0"/>
   <stop style="stop-color:#ffffff;stop-opacity:.09803922" id="stop4" offset=".125"/>
   <stop style="stop-color:#000000;stop-opacity:.09803922" id="stop6" offset=".925"/>
   <stop style="stop-color:#000000;stop-opacity:.49803922" id="stop8" offset="1"/>
  </linearGradient>
  <clipPath id="clipPath1082-3-36753">
   <path style="fill:#8c59d9" d="M 361.9375,-212 C 507.2348,-212 528,-191.28677 528,-46.125 V 70.125 C 528,215.28618 507.2348,236 361.9375,236 H 214.0625 C 68.7652,236 48,215.28618 48,70.125 V -46.125 C 48,-191.28677 68.7652,-212 214.0625,-212 Z"/>
  </clipPath>
  <filter id="filter904" width="1.046" height="1.05" x="-.02" y="-.03" style="color-interpolation-filters:sRGB">
   <feGaussianBlur id="feGaussianBlur14" stdDeviation="2.32"/>
  </filter>
  <filter id="filter4569" width="1.023" height="1.025" x="-.01" y="-.01" style="color-interpolation-filters:sRGB">
   <feGaussianBlur id="feGaussianBlur17" stdDeviation="1.16"/>
  </filter>
  <filter id="filter1323" width="1.099" height="1.263" x="-.05" y="-.13" style="color-interpolation-filters:sRGB">
   <feGaussianBlur id="feGaussianBlur20" stdDeviation=".601"/>
  </filter>
  <filter id="filter1393" width="1.033" height="1.085" x="-.02" y="-.04" style="color-interpolation-filters:sRGB">
   <feGaussianBlur id="feGaussianBlur23" stdDeviation=".677"/>
  </filter>
  <linearGradient id="linearGradient837" x1="132.609" x2="167.697" y1="48.475" y2="21.659" gradientUnits="userSpaceOnUse">
   <stop style="stop-color:#b7a788" id="stop26" offset="0"/>
   <stop style="stop-color:#cebe9d" id="stop28" offset="1"/>
  </linearGradient>
  <linearGradient id="linearGradient845" x1="168.976" x2="202.266" y1="24.766" y2="47.985" gradientUnits="userSpaceOnUse">
   <stop style="stop-color:#dfcba2" id="stop31" offset="0"/>
   <stop style="stop-color:#e1cfae" id="stop33" offset="1"/>
  </linearGradient>
  <linearGradient id="linearGradient859" x1="119.99" x2="167.408" y1="54.82" y2="108.289" gradientUnits="userSpaceOnUse">
   <stop style="stop-color:#e3d1b0" id="stop36" offset="0"/>
   <stop style="stop-color:#e5d2ab" id="stop38" offset="1"/>
  </linearGradient>
  <linearGradient id="linearGradient873" x1="216.653" x2="170.055" y1="46.971" y2="118.263" gradientUnits="userSpaceOnUse">
   <stop style="stop-color:#c8b897" id="stop41" offset="0"/>
   <stop style="stop-color:#bfaf95" id="stop43" offset="1"/>
  </linearGradient>
  <filter id="filter1269" width="1.047" height="1.049" x="-.02" y="-.03" style="color-interpolation-filters:sRGB">
   <feGaussianBlur id="feGaussianBlur46" stdDeviation=".024"/>
  </filter>
  <filter id="filter1185" width="1.043" height="1.054" x="-.02" y="-.03" style="color-interpolation-filters:sRGB">
   <feGaussianBlur id="feGaussianBlur49" stdDeviation=".024"/>
  </filter>
  <linearGradient id="linearGradient1281" x1="168.598" x2="168.44" y1="79.016" y2="122.411" gradientUnits="userSpaceOnUse">
   <stop style="stop-color:#ffffff" id="stop52" offset="0"/>
   <stop style="stop-color:#ffffff;stop-opacity:0" id="stop54" offset="1"/>
  </linearGradient>
  <filter style="color-interpolation-filters:sRGB" id="filter4889" width="1.03" height="1.02" x="-.01" y="-.01">
   <feGaussianBlur id="feGaussianBlur4891" stdDeviation=".63"/>
  </filter>
 </defs>
 <g transform="translate(0,-263.13166)">
  <path d="m -152,60.000003 -39.74219,0.19336 c -2.85932,0.01393 -4.25781,0.94729 -4.25781,3.80664 v 40.000007 c 0,2.85936 1.39849,3.79271 4.25781,3.80664 L -152,108.00001 c 2.85933,0.0139 4,-1.14064 4,-4 V 64.000003 c 0,-2.85935 -1.14067,-4.01393 -4,-4 z m -52,52.000007 -39.74219,0.19336 c -2.85932,0.0139 -4.25781,0.94729 -4.25781,3.80664 v 40 c 0,2.85936 1.39849,3.79271 4.25781,3.80664 L -204,160 c 2.85933,0.0139 4,-1.14063 4,-3.99999 v -40 c 0,-2.85935 -1.14067,-4.01393 -4,-4 z m 52,0 -39.74219,0.19336 c -2.85932,0.0139 -4.25781,0.94729 -4.25781,3.80664 v 40 c 0,2.85936 1.39849,3.79271 4.25781,3.80664 L -152,160 c 2.85933,0.0139 4,-1.14063 4,-3.99999 v -40 c 0,-2.85935 -1.14067,-4.01393 -4,-4 z M -204,164 l -39.74219,0.19336 C -246.60151,164.20726 -248,165.14065 -248,168 v 40 c 0,2.85936 1.39849,3.79271 4.25781,3.80664 L -204,212 c 2.85933,0.0139 4,-1.14064 4,-4 v -40 c 0,-2.85935 -1.14067,-4.01393 -4,-4 z" transform="matrix(0.20415394,0,0,0.20415394,57.288546,252.34904)" style="opacity:0.1;filter:url(#filter4889)"/>
  <path d="m 26.257148,264.18997 -8.113525,0.0395 c -0.58374,0.003 -0.869249,0.19339 -0.869249,0.77714 v 8.16616 c 0,0.58375 0.285509,0.7743 0.869249,0.77714 l 8.113525,0.0395 c 0.583742,0.003 0.816615,-0.23286 0.816615,-0.81661 v -8.16616 c 0,-0.58375 -0.232873,-0.81946 -0.816615,-0.81661 z m -10.616006,10.616 -8.1135213,0.0395 c -0.5837426,0.003 -0.869251,0.1934 -0.869251,0.77715 v 8.16615 c 0,0.58375 0.2855084,0.7743 0.869251,0.77714 l 8.1135213,0.0395 c 0.583746,0.003 0.816618,-0.23287 0.816618,-0.81662 v -8.16615 c 0,-0.58375 -0.232872,-0.81946 -0.816618,-0.81662 z m 10.616006,0 -8.113525,0.0395 c -0.58374,0.003 -0.869249,0.1934 -0.869249,0.77715 v 8.16615 c 0,0.58375 0.285509,0.7743 0.869249,0.77714 l 8.113525,0.0395 c 0.583742,0.003 0.816615,-0.23287 0.816615,-0.81662 v -8.16615 c 0,-0.58375 -0.232873,-0.81946 -0.816615,-0.81662 z m -10.616006,10.616 -8.1135213,0.0395 c -0.5837426,0.003 -0.869251,0.19339 -0.869251,0.77714 v 8.16616 c 0,0.58375 0.2855084,0.77429 0.869251,0.77714 l 8.1135213,0.0395 c 0.583746,0.003 0.816618,-0.23287 0.816618,-0.81662 v -8.16616 c 0,-0.58375 -0.232872,-0.81946 -0.816618,-0.81662 z" style="fill:#f5c211"/>
  <path d="m 26.257148,264.18997 -8.113525,0.0395 c -0.58374,0.003 -0.869249,0.19339 -0.869249,0.77714 v 0.20416 c 0,-0.58375 0.285509,-0.77431 0.869249,-0.77715 l 8.113525,-0.0395 c 0.583742,-0.003 0.816615,0.23287 0.816615,0.81662 v -0.20416 c 0,-0.58375 -0.232873,-0.81946 -0.816615,-0.81661 z m -10.616006,10.616 -8.1135213,0.0395 c -0.5837426,0.003 -0.869251,0.1934 -0.869251,0.77715 v 0.20415 c 0,-0.58375 0.2855084,-0.7743 0.869251,-0.77714 l 8.1135213,-0.0395 c 0.583746,-0.003 0.816618,0.23287 0.816618,0.81662 v -0.20415 c 0,-0.58375 -0.232872,-0.81946 -0.816618,-0.81662 z m 10.616006,0 -8.113525,0.0395 c -0.58374,0.003 -0.869249,0.1934 -0.869249,0.77715 v 0.20415 c 0,-0.58375 0.285509,-0.7743 0.869249,-0.77714 l 8.113525,-0.0395 c 0.583742,-0.003 0.816615,0.23287 0.816615,0.81662 v -0.20415 c 0,-0.58375 -0.232873,-0.81946 -0.816615,-0.81662 z m -10.616006,10.616 -8.1135213,0.0395 c -0.5837426,0.003 -0.869251,0.19339 -0.869251,0.77714 v 0.20415 c 0,-0.58374 0.2855084,-0.7743 0.869251,-0.77714 l 8.1135213,-0.0395 c 0.583746,-0.003 0.816618,0.23287 0.816618,0.81661 v -0.20415 c 0,-0.58375 -0.232872,-0.81946 -0.816618,-0.81662 z" style="fill:#ffffff"/>
 </g>
</svg>
