<svg height="128" viewBox="0 0 128 128" width="128" xmlns="http://www.w3.org/2000/svg">
  <path d="m124 64c0 7.8793-1.552 15.6815-4.567 22.961s-7.435 13.894-13.007 19.465c-5.571 5.572-12.1854 9.991-19.465 13.007-7.2795 3.015-15.0817 4.567-22.961 4.567s-15.6815-1.552-22.961-4.567c-7.2795-3.016-13.8939-7.435-19.4654-13.007-5.5715-5.571-9.9911-12.1855-13.00637-19.465-3.01529-7.2795-4.56723-15.0817-4.56723-22.961s1.55195-15.6815 4.56723-22.961c3.01527-7.2795 7.43487-13.8939 13.00637-19.4654s12.1859-9.9911 19.4654-13.00638 15.0817-4.56722 22.961-4.56722c15.913 0 31.1742 6.3214 42.426 17.5736 11.253 11.2522 17.574 26.5134 17.574 42.4264z" fill="#deddda"/>
  <path d="m120 62c0-30.928-25.072-56.00001-55.9999-56.00001-30.928 0-56.00004 25.07201-56.00004 56.00001v2c0 30.928 25.07204 56 56.00004 56 30.9279 0 55.9999-25.072 55.9999-56z" fill="#d5d3cf"/>
  <path d="m124 62c0 15.913-6.321 31.1742-17.574 42.426-11.2518 11.253-26.513 17.574-42.426 17.574-7.8793 0-15.6815-1.552-22.961-4.567-7.2795-3.016-13.8939-7.435-19.4654-13.007-5.5715-5.5711-9.9911-12.1855-13.00637-19.465-3.01528-7.2795-4.56723-15.0817-4.56723-22.961s1.55194-15.6815 4.56723-22.961c3.01527-7.2795 7.43487-13.8939 13.00637-19.4654s12.1859-9.9911 19.4654-13.00638 15.0817-4.56723 22.961-4.56723 15.6815 1.55195 22.961 4.56723c7.2796 3.01528 13.894 7.43488 19.465 13.00638 5.572 5.5715 9.992 12.1859 13.007 19.4654s4.567 15.0817 4.567 22.961z" fill="#f6f5f4"/>
  <path d="m64 116c29.8234 0 54-24.1766 54-54s-24.1766-54.00002-54-54.00002-54 24.17662-54 54.00002 24.1766 54 54 54z" fill="#e01b24"/>
  <path d="m64.0001 7.99999c-14.3217 0-28.0568 5.68931-38.1837 15.81621-10.127 10.127-15.8163 23.8621-15.8163 38.1838.0096.3904.0235.7808.0415 1.1709.2176-14.1703 5.9971-27.6872 16.0916-37.6344 10.0946-9.9472 23.6949-15.5273 37.8669-15.53651 14.1138.00751 27.6637 5.54041 37.7489 15.41421 10.085 9.8737 15.903 23.3035 16.21 37.4139.016-.2759.029-.552.041-.8281 0-7.0914-1.397-14.1133-4.11-20.6649-2.714-6.5516-6.692-12.5045-11.706-17.5189-5.0145-5.0143-10.9674-8.9919-17.519-11.7057-6.5515-2.71376-13.5735-4.11051-20.6649-4.11051z" opacity=".1"/>
  <path d="m78.0541 94.0944c0 2.5026-6.5214 4.9056-14.5298 4.9056s-14.5062-2.403-14.5062-4.9056c0-2.5027 6.4978-4.1572 14.5062-4.1572s14.5298 1.6545 14.5298 4.1572z" fill="#9a9996"/>
  <g fill="#deddda">
    <path d="m78.0248 93.8795c0 2.1774-6.4921 3.9423-14.5005 3.9423s-14.5005-1.7649-14.5005-3.9423c0-2.1773 6.4921-3.9423 14.5005-3.9423s14.5005 1.765 14.5005 3.9423z"/>
    <path d="m78.0248 53.559h-28.3577v-1.2234h28.3577z"/>
    <path d="m63.713 94.4158h-.3773c-.8469 0-1.5333-.6865-1.5333-1.5333v-13.6317h3.4439v13.6317c0 .8468-.6865 1.5333-1.5333 1.5333z"/>
    <path d="m77.569 49.1998v15.9307c0 7.4939-6.075 13.5688-13.5689 13.5688s-13.5688-6.0749-13.5688-13.5688v-15.9307h-2.6989v16.2678c0 8.9844 7.2833 16.2677 16.2677 16.2677s16.2678-7.2833 16.2678-16.2677v-16.2678z"/>
  </g>
  <path d="m64.0756 76.8493c-6.5793 0-11.9623-5.383-11.9623-11.9623v-23.9247c0-6.5792 5.383-11.9623 11.9623-11.9623 6.5792 0 11.9623 5.3831 11.9623 11.9623v23.9247c0 6.5793-5.3831 11.9623-11.9623 11.9623z" fill="#60767b"/>
  <path d="m64.0756 76.8493c-6.5793 0-11.9623-5.383-11.9623-11.9623v-23.9247c0-6.5792 5.383-11.9623 11.9623-11.9623 6.5792 0 11.9623 5.3831 11.9623 11.9623v23.9247c0 6.5793-5.3831 11.9623-11.9623 11.9623z" fill="#deddda"/>
  <path d="m52.0378 61.2951v3.5919c0 6.5793 5.383 11.9623 11.9624 11.9623 6.5792 0 11.9622-5.383 11.9622-11.9623v-3.6272" fill="#9a9996"/>
  <path d="m76.0957 61.4343h-24.0886v-5.673h24.0886z" fill="#57e389"/>
</svg>
