<svg xmlns="http://www.w3.org/2000/svg" width="128" height="128" viewBox="0 0 128 128">
 <path fill="#33D17A" d="M112 28H16C11.5817 28 8 31.9399 8 36.8V107.2C8 112.06 11.5817 116 16 116H112C116.418 116 120 112.06 120 107.2V36.8C120 31.9399 116.418 28 112 28Z"/>
 <path fill="#6E6E6E" d="M8 106V108C8 112.432 11.568 116 16 116H112C116.432 116 120 112.432 120 108V106C120 110.432 116.432 114 112 114H16C11.568 114 8 110.432 8 106Z"/>
 <path opacity=".4" d="M34.2283 50.4613L24 85.3333H28.2267L38.3589 50.4613H34.2283ZM38.3589 50.4613L48.4912 85.3333H52.7179L42.4896 50.4613H38.3589ZM77.3051 50.4613L67.0768 85.3333H71.3035L81.4357 50.4613H77.3051ZM99.8133 58.6667C99.7477 58.7776 99.6821 59.9168 99.6171 61.0907C99.5515 62.2645 99.5168 63.0907 99.5168 63.5664H99.4645C98.7136 62.0277 97.648 60.8459 96.2597 60.0208C94.8875 59.1803 93.2619 58.7627 91.384 58.7627C88.0357 58.7627 85.5376 59.8507 83.888 62.024C82.2544 64.1813 81.4357 68.7616 81.4357 73.3141C81.4357 77.8032 82.1968 80.2427 83.7157 82.3365C85.2507 84.4304 87.6448 85.4736 90.8949 85.4736C92.8384 85.4736 94.5376 85.0645 95.9909 84.2395C97.4448 83.3989 98.5835 82.1552 99.4165 80.5056H99.4645V84.6443C99.4645 89.6411 97.272 91.5072 92.8784 91.5072C91.2448 91.5072 89.9205 91.1883 88.9077 90.5376C87.9115 89.9029 87.2667 88.9872 86.9728 87.7973L82.5376 88.4181C83.0277 90.4485 84.1317 92.8325 85.8469 93.9269C87.5621 95.0373 89.8672 95.5899 92.7579 95.5899C100.157 95.5899 104 91.7813 104 84.5483V64.3477V58.6667H99.8133ZM91.448 62.7691C92.6864 62.7691 93.7877 63.136 94.7573 63.8709C95.7419 64.5915 96.504 65.6443 97.0411 67.0283C97.5781 68.3973 97.8464 71.1109 97.8464 73.0139C97.8464 74.8731 97.5781 75.7051 97.0411 77.0603C96.504 78.4005 95.7419 79.4283 94.7573 80.1488C93.7728 80.8699 92.648 81.2309 91.3797 81.2309C89.2464 81.2309 87.7408 80.5333 86.8608 79.1355C85.9803 77.7376 85.5387 76.2133 85.5387 73.0139C85.5387 69.7851 86.0091 66.3739 86.9488 64.9328C87.8885 63.4912 89.3893 62.7691 91.448 62.7691ZM56.8203 79.1797V85.3333H62.9744V79.1797H56.8203Z"/>
 <path fill="#3D3846)" d="M34.2267 48.4101L24 83.2821H28.2283L38.3589 48.4101H34.2267Z"/>
 <path fill="#fff" d="M56.8203 83.2821V77.128H62.9744V83.2821H56.8203Z"/>
 <path fill="#3D3846" d="M77.3034 48.4101L67.0768 83.2821H71.3051L81.4357 48.4101H77.3034Z"/>
 <path fill="#3D3846" d="M99.8133 56.6155C99.7477 56.7264 99.6821 57.8656 99.6171 59.0395C99.5515 60.2128 99.5168 61.0395 99.5168 61.5152H99.4645C98.7136 59.9765 97.648 58.7941 96.2597 57.9696C94.8875 57.1291 93.2619 56.7115 91.384 56.7115C88.0357 56.7115 85.5376 57.7995 83.888 59.9728C82.2544 62.1301 81.4357 66.7104 81.4357 71.2629C81.4357 75.752 82.1968 78.1915 83.7157 80.2853C85.2507 82.3792 87.6448 83.4224 90.8949 83.4224C92.8384 83.4224 94.5376 83.0133 95.9909 82.1883C97.4448 81.3477 98.5835 80.104 99.4165 78.4544H99.4645V82.5931C99.4645 87.5893 97.272 89.4571 92.8784 89.4571C91.2448 89.4571 89.9205 89.1381 88.9077 88.4875C87.9115 87.8533 87.2667 86.9371 86.9728 85.7472L82.5376 86.368C83.0277 88.3984 84.1317 90.7813 85.8469 91.8757C87.5621 92.9861 89.8672 93.5387 92.7579 93.5387C100.157 93.5387 104 89.7301 104 82.4965V62.2965V56.6155H99.8133ZM91.448 60.7179C92.6864 60.7179 93.7877 61.0848 94.7573 61.8197C95.7419 62.5403 96.504 63.5931 97.0411 64.9765C97.5781 66.3461 97.8464 69.0597 97.8464 70.9621C97.8464 72.8219 97.5781 73.6539 97.0411 75.0091C96.504 76.3493 95.7419 77.3771 94.7573 78.0976C93.7728 78.8187 92.648 79.1797 91.3797 79.1797C89.2464 79.1797 87.7408 78.4821 86.8608 77.0843C85.9803 75.6859 85.5387 74.1621 85.5387 70.9621C85.5387 67.7339 86.0091 64.3227 86.9488 62.8816C87.8885 61.44 89.3893 60.7179 91.448 60.7179Z"/>
 <path fill="#fff" d="M42.4912 48.4101L52.7179 83.2821H48.4896L38.3589 48.4101H42.4912Z"/>
</svg>
