<svg enable-background="new" height="128" viewBox="0 0 128 128" width="128" xmlns="http://www.w3.org/2000/svg">
  <g enable-background="new" transform="translate(.000062 -173)">
    <path d="m123.99993 237a59.999995 59.999995 0 0 1 -59.999985 60 59.999995 59.999995 0 0 1 -60.0000069-60 59.999995 59.999995 0 0 1 60.0000069-59.99999 59.999995 59.999995 0 0 1 59.999985 59.99999z" fill="#deddda"/>
    <rect fill="#d5d3cf" height="114" rx="56" width="112" x="8" y="179"/>
    <path d="m123.99993 235a59.999995 59.999995 0 0 1 -59.999985 59.99999 59.999995 59.999995 0 0 1 -60.0000069-59.99999 59.999995 59.999995 0 0 1 60.0000069-60 59.999995 59.999995 0 0 1 59.999985 60z" fill="#f6f5f4"/>
  </g>
  <g enable-background="new" transform="matrix(1.862069 0 0 1.862069 59.789814 -507.74071)">
    <path d="m20.62 48.01 22.7-15.13-22.7-15.14v9.18l8.93 5.96-8.93 5.95z" fill="#20aa73" transform="matrix(.7664523 0 0 .7664523 -26.541636 274.97296)"/>
    <path d="m55.39 38.14v-9.18l-22.7 15.14 22.7 15.13v-9.18l-8.93-5.95z" fill="#3989da" transform="matrix(.76641852 0 0 .76641852 -27.189311 277.97536)"/>
    <path d="m27.633246 291.97314-4.876758 3.2455a23.2 23.2 0 0 1 2.704588 10.75322 23.2 23.2 0 0 1 -23.1999982 23.2 23.2 23.2 0 0 1 -17.8502928-8.4423l-4.859766 3.23418c5.316284 6.69764 13.5144988 11.00812 22.7100588 11.00812 15.9904742 0 29.0000002-13.00876 29.0000002-29 0-5.07706-1.325304-9.84392-3.627832-13.99872z" fill="#20aa73"/>
    <path d="m2.2610778 276.97186c-15.9912288 0-28.9999998 13.00876-28.9999998 29 0 4.71932 1.136876 9.1759 3.146386 13.11798l4.899415-3.25968a23.2 23.2 0 0 1 -2.245801-9.8583 23.2 23.2 0 0 1 23.1999998-23.2 23.2 23.2 0 0 1 17.1904302 7.67764l4.888086-3.25118c-5.322838-6.25136-13.244974-10.22646-22.0785162-10.22646z" fill="#3989da"/>
  </g>
</svg>
