<svg enable-background="new" height="128" viewBox="0 0 128 128" width="128" xmlns="http://www.w3.org/2000/svg" xmlns:xlink="http://www.w3.org/1999/xlink">
  <linearGradient id="linearGradient1064" gradientUnits="userSpaceOnUse" x1="8.000028" x2="120.000028" y1="284" y2="284">
    <stop offset="0" stop-color="#77767b"/>
    <stop offset=".036" stop-color="#c0bfbc"/>
    <stop offset=".071" stop-color="#9a9996"/>
    <stop offset=".929" stop-color="#9a9996"/>
    <stop offset=".964" stop-color="#c0bfbc"/>
    <stop offset="1" stop-color="#77767b"/>
  </linearGradient>
  <filter id="filter1718" color-interpolation-filters="sRGB" height="1.173" width="1.028" x="-.01" y="-.09">
    <feGaussianBlur stdDeviation="1.3"/>
  </filter>
  <linearGradient id="linearGradient3585-3" gradientTransform="matrix(4.8695652 0 0 5 -9262.2609 -1704)" gradientUnits="userSpaceOnUse" x1="2321" x2="2321" y1="464" y2="466">
    <stop offset="0" stop-color="#6b6b6b"/>
    <stop offset="1" stop-color="#a0a0a0"/>
  </linearGradient>
  <linearGradient id="linearGradient3601-5" gradientUnits="userSpaceOnUse" x1="2151" x2="2151" y1="591" y2="621">
    <stop offset="0" stop-color="#746c58"/>
    <stop offset="1" stop-color="#8a836a"/>
  </linearGradient>
  <linearGradient id="linearGradient3593-3" gradientUnits="userSpaceOnUse" x1="2136" x2="2136" y1="611" y2="631">
    <stop offset="0" stop-color="#5a5a5a"/>
    <stop offset="1" stop-color="#6e6e6e"/>
  </linearGradient>
  <linearGradient id="linearGradient1542" gradientTransform="matrix(1 0 0 3 0 -1224)" gradientUnits="userSpaceOnUse" x1="2148" x2="2148" y1="612" y2="608">
    <stop offset="0"/>
    <stop offset="1" stop-opacity="0"/>
  </linearGradient>
  <filter id="filter927" color-interpolation-filters="sRGB" height="1.13" width="1.111" x="-.06" y="-.07">
    <feGaussianBlur stdDeviation="2.6"/>
  </filter>
  <filter id="filter941" color-interpolation-filters="sRGB" height="1.052" width="1.045" x="-.02" y="-.03">
    <feGaussianBlur stdDeviation="1.04"/>
  </filter>
  <g transform="translate(0 -172)">
    <g enable-background="new" transform="matrix(.52112284647 0 0 .52112284647 -1057.92329621174 -29.34338550699)">
      <path d="m2152 593c-2.216 0-4 1.784-4 4v16h-12c-2.216 0-4 1.784-4 4h-90c-1.108 0-2 .892-2 2v4c0 1.108.892 2 2 2h90c0 2.216 1.784 4 4 4h32c2.216 0 4-1.784 4-4h90c1.108 0 2-.892 2-2v-4c0-1.108-.892-2-2-2h-90c0-.831-.2512-1.60203-.6816-2.24023-.7175-1.06368-1.9334-1.75977-3.3184-1.75977h-12v-16c0-2.216-1.784-4-4-4z" filter="url(#filter1718)" opacity=".2"/>
      <rect fill="url(#linearGradient3585-3)" height="8" rx="2" width="224" x="2040" y="616"/>
      <rect fill="url(#linearGradient3601-5)" height="28" rx="4" width="8" x="2148" y="592"/>
      <path d="m2042 616c-1.108 0-2 .892-2 2v2c0-1.108.892-2 2-2h220c1.108 0 2 .892 2 2v-2c0-1.108-.892-2-2-2z" fill="#fff" opacity=".2"/>
      <rect fill="url(#linearGradient3593-3)" height="16" rx="4" width="40" x="2132" y="612"/>
      <path d="m2136 612c-2.216 0-4 1.784-4 4v2c0-2.216 1.784-4 4-4h32c2.216 0 4 1.784 4 4v-2c0-2.216-1.784-4-4-4z" fill="#fff" opacity=".2"/>
      <path d="m2148 600h8v12h-8z" fill="url(#linearGradient1542)" opacity=".2"/>
      <path d="m2136 612c-2.216 0-4 1.784-4 4v1c0-2.216 1.784-4 4-4h32c2.216 0 4 1.784 4 4v-1c0-2.216-1.784-4-4-4z" fill="#fff" opacity=".8"/>
    </g>
    <rect fill="url(#linearGradient1064)" height="76" rx="8" width="112" x="8" y="208"/>
    <rect fill="#deddda" height="84" rx="8" width="112" x="8" y="196"/>
    <rect fill="#241f31" height="76" rx="4" width="104" x="12" y="200"/>
    <path d="m16 204h96v68h-96z" fill="#4874e1"/>
    <g transform="translate(1.897872 .000564)">
      <path d="m194.71786 93.570135c4.23134-.0532 7.07155.89696 8.53084 2.64832 1.53216 1.82431 2.32023 4.816665 2.32023 8.976165v72.74891c0 4.15961-.78807 7.15179-2.32023 8.97615-1.45929 1.75144-4.29916 2.64833-8.53084 2.64833h-90.2997c-4.23168 0-7.079426-.89689-8.538716-2.64833-1.53216-1.82437-2.31239-4.81655-2.31239-8.97616v-72.7489c0-4.1595.78023-7.151855 2.31239-8.976165 1.4592-1.75136 4.307036-2.64832 8.538716-2.64832z" filter="url(#filter941)" opacity=".05" transform="matrix(.35393629 0 0 .35393629 18.352787 197.20332)"/>
      <path d="m87.270507 229.61332c1.497625-.0195 2.502879.31749 3.019374.93735.542286.64569.821213 1.70479.821213 3.177v25.74847c0 1.47224-.278944 2.53128-.821213 3.177-.516495.6199-1.52163.93733-3.019374.93733h-31.960341c-1.497745 0-2.505665-.3175-3.022163-.93733-.542286-.64572-.818439-1.70476-.818439-3.177v-25.74847c0-1.47221.276156-2.53131.818439-3.177.516465-.61986 1.524418-.93735 3.022163-.93735z" fill="#fff"/>
      <path d="m146.71786 45.57013c4.23134-.05324 7.07155.896961 8.53084 2.648322 1.53216 1.824317 2.32023 4.816665 2.32023 8.976166v72.748912c0 4.15961-.78807 7.15179-2.32023 8.97615-1.45929 1.75144-4.29916 2.64833-8.53084 2.64833h-90.299701c-4.23167 0-7.07942-.89689-8.53871-2.64833-1.53217-1.82437-2.3124-4.81655-2.3124-8.97616v-72.748902c0-4.159501.78023-7.151849 2.3124-8.976166 1.45919-1.751361 4.30704-2.648322 8.53871-2.648322z" filter="url(#filter927)" opacity=".1" transform="matrix(.35393629 0 0 .35393629 18.352787 197.20332)"/>
      <path d="m91.111515 234.8367v-1.11431c0-.7361-.06985-1.36934-.207378-1.89885-.137526-.52951-.342684-.95528-.613826-1.27811-.129136-.15486-.288759-.29223-.479037-.41061-.19027-.11825-.410674-.21836-.662215-.29806-.503079-.15907-1.12931-.23812-1.878121-.22872h-31.959843c-.748868 0-1.375738.0787-1.879501.23585-.251891.0784-.473072.17689-.663599.29385-.19053.11694-.350609.25269-.479726.40782-.271135.32268-.475622.74861-.612443 1.27811-.136815.52951-.205984 1.16275-.205984 1.89885v1.11431z" fill="#808080"/>
      <path d="m70.281564 212.6244c1.497625-.0195 2.502879.3175 3.019374.93732.542286.64569.821213 1.70479.821213 3.177v25.74847c0 1.47224-.278943 2.53128-.821213 3.177-.516495.6199-1.521629.93733-3.019374.93733h-31.96034c-1.497746 0-2.505665-.3175-3.02216-.93733-.542293-.64572-.818443-1.70476-.818443-3.177v-25.74847c0-1.47221.276156-2.53131.818443-3.177.516459-.61986 1.524414-.93732 3.02216-.93732z" fill="#fff"/>
      <path d="m74.121969 217.8532v-1.11428c0-.7361-.06985-1.36934-.207376-1.89889-.137528-.5295-.342682-.95524-.613827-1.27811-.129137-.15486-.288759-.29222-.479033-.4106-.190271-.11826-.410675-.21837-.662216-.29807-.503079-.15907-1.12931-.23812-1.878121-.22873h-31.959842c-.748869 0-1.375739.0787-1.879502.23586-.25189.0784-.473071.17689-.663598.29385-.19053.11696-.35061.25302-.479727.40782-.271135.32301-.475622.74861-.612444 1.27811-.136814.52954-.205983 1.16278-.205983 1.89889v1.11428z" fill="#808080"/>
    </g>
  </g>
</svg>
