<svg height="128" viewBox="0 0 33.865 33.865001" width="128" xmlns="http://www.w3.org/2000/svg"><g enable-background="new" transform="matrix(.26457032 0 0 .26457032 -35.708355 -6.870854)"><path d="m193.51227 33.606577v21.81836l10.9082 32.726562-25.45312 32.726561v21.81836h21.8164l14.54688-21.81836 7.27148 21.81836h21.81836v-21.81836l-14.54492-32.726561 29.0918-32.726562v-21.81836h-21.81836l-14.54688 21.81836-7.27148-21.81836zm-54.54492 112.363283v4h21.8164l7.27344-58.181642 20.75421-.43348 6.15595-24.010145-1.45508-5.011453-28.43236 18.416411z" fill="#1a5fb4"/><path d="m193.51227 29.606577v21.818359l10.9082 32.726563-25.45312 32.726561v21.81836h21.8164l14.54688-21.81836 7.27148 21.81836h21.81836v-21.81836l-14.54492-32.726561 29.0918-32.726563v-21.818359h-21.81836l-14.54688 21.818359-7.27148-21.818359zm-40 32.726563-14.54492 83.63672h21.8164l7.27344-58.181641h18.18164l7.27344-25.455079z" fill="#3584e4"/></g></svg>