<svg width="128" height="128" viewBox="0 0 128 128" fill="none" xmlns="http://www.w3.org/2000/svg">
<g id="rocs">
<g id="Group">
<g id="Group_2">
<path id="Vector" d="M68 5H60C55.5817 5 52 8.58172 52 13V21C52 25.4183 55.5817 29 60 29H68C72.4183 29 76 25.4183 76 21V13C76 8.58172 72.4183 5 68 5Z" fill="#77767B"/>
<path id="Vector_2" d="M68 101H60C55.5817 101 52 104.582 52 109V117C52 121.418 55.5817 125 60 125H68C72.4183 125 76 121.418 76 117V109C76 104.582 72.4183 101 68 101Z" fill="#77767B"/>
<path id="Vector_3" d="M24.4022 19.7492L18.7454 25.406C15.6212 28.5302 15.6212 33.5955 18.7454 36.7197L24.4022 42.3766C27.5264 45.5008 32.5917 45.5008 35.7159 42.3766L41.3728 36.7197C44.497 33.5955 44.497 28.5302 41.3728 25.406L35.7159 19.7492C32.5917 16.625 27.5264 16.625 24.4022 19.7492Z" fill="#77767B"/>
<path id="Vector_4" d="M92.2844 87.6314L86.6276 93.2882C83.5034 96.4124 83.5034 101.478 86.6276 104.602L92.2844 110.259C95.4086 113.383 100.474 113.383 103.598 110.259L109.255 104.602C112.379 101.478 112.379 96.4124 109.255 93.2882L103.598 87.6314C100.474 84.5072 95.4086 84.5072 92.2844 87.6314Z" fill="#77767B"/>
<path id="Vector_5" d="M4 61V69C4 73.4183 7.58172 77 12 77H20C24.4183 77 28 73.4183 28 69V61C28 56.5817 24.4183 53 20 53H12C7.58172 53 4 56.5817 4 61Z" fill="#77767B"/>
<path id="Vector_6" d="M100 61V69C100 73.4183 103.582 77 108 77H116C120.418 77 124 73.4183 124 69V61C124 56.5817 120.418 53 116 53H108C103.582 53 100 56.5817 100 61Z" fill="#77767B"/>
<g id="Group_3">
<path id="Vector_7" d="M18.7454 104.602L24.4022 110.259C27.5264 113.383 32.5917 113.383 35.7159 110.259L41.3728 104.602C44.497 101.478 44.497 96.4124 41.3728 93.2882L35.7159 87.6314C32.5917 84.5072 27.5264 84.5072 24.4022 87.6314L18.7454 93.2882C15.6212 96.4124 15.6212 101.478 18.7454 104.602Z" fill="#77767B"/>
<path id="Vector_8" d="M86.6276 36.7197L92.2844 42.3765C95.4086 45.5007 100.474 45.5007 103.598 42.3765L109.255 36.7197C112.379 33.5955 112.379 28.5302 109.255 25.406L103.598 19.7491C100.474 16.6249 95.4086 16.6249 92.2844 19.7491L86.6276 25.406C83.5034 28.5302 83.5034 33.5955 86.6276 36.7197Z" fill="#77767B"/>
</g>
</g>
<g id="Group_4">
<path id="Vector_9" d="M68 3H60C55.5817 3 52 6.58172 52 11V19C52 23.4183 55.5817 27 60 27H68C72.4183 27 76 23.4183 76 19V11C76 6.58172 72.4183 3 68 3Z" fill="#F6F5F4"/>
<path id="Vector_10" d="M68 99H60C55.5817 99 52 102.582 52 107V115C52 119.418 55.5817 123 60 123H68C72.4183 123 76 119.418 76 115V107C76 102.582 72.4183 99 68 99Z" fill="#F6F5F4"/>
<path id="Vector_11" d="M24.4022 17.7492L18.7454 23.406C15.6212 26.5302 15.6212 31.5955 18.7454 34.7197L24.4022 40.3766C27.5264 43.5008 32.5917 43.5008 35.7159 40.3766L41.3728 34.7197C44.497 31.5955 44.497 26.5302 41.3728 23.406L35.7159 17.7492C32.5917 14.625 27.5264 14.625 24.4022 17.7492Z" fill="#F6F5F4"/>
<path id="Vector_12" d="M92.2844 85.6314L86.6276 91.2882C83.5034 94.4124 83.5034 99.4777 86.6276 102.602L92.2844 108.259C95.4086 111.383 100.474 111.383 103.598 108.259L109.255 102.602C112.379 99.4777 112.379 94.4124 109.255 91.2882L103.598 85.6314C100.474 82.5072 95.4086 82.5072 92.2844 85.6314Z" fill="#F6F5F4"/>
<path id="Vector_13" d="M4 59V67C4 71.4183 7.58172 75 12 75H20C24.4183 75 28 71.4183 28 67V59C28 54.5817 24.4183 51 20 51H12C7.58172 51 4 54.5817 4 59Z" fill="#F6F5F4"/>
<path id="Vector_14" d="M100 59V67C100 71.4183 103.582 75 108 75H116C120.418 75 124 71.4183 124 67V59C124 54.5817 120.418 51 116 51H108C103.582 51 100 54.5817 100 59Z" fill="#F6F5F4"/>
<g id="Group_5">
<path id="Vector_15" d="M18.7454 102.602L24.4022 108.259C27.5264 111.383 32.5917 111.383 35.7159 108.259L41.3728 102.602C44.497 99.4777 44.497 94.4124 41.3728 91.2882L35.7159 85.6314C32.5917 82.5072 27.5264 82.5072 24.4022 85.6314L18.7454 91.2882C15.6212 94.4124 15.6212 99.4777 18.7454 102.602Z" fill="#F6F5F4"/>
<path id="Vector_16" d="M86.6276 34.7197L92.2844 40.3765C95.4086 43.5007 100.474 43.5007 103.598 40.3765L109.255 34.7197C112.379 31.5955 112.379 26.5302 109.255 23.406L103.598 17.7491C100.474 14.6249 95.4086 14.6249 92.2844 17.7491L86.6276 23.406C83.5034 26.5302 83.5034 31.5955 86.6276 34.7197Z" fill="#F6F5F4"/>
</g>
</g>
<g id="Group_6">
<path id="Vector_17" d="M64 101C83.8823 101 100 84.8823 100 65C100 45.1177 83.8823 29 64 29C44.1177 29 28 45.1177 28 65C28 84.8823 44.1177 101 64 101Z" stroke="url(#paint0_linear)" stroke-width="24"/>
<path id="Vector_18" d="M64 101C84.9868 101 102 83.9868 102 63C102 42.0132 84.9868 25 64 25C43.0132 25 26 42.0132 26 63C26 83.9868 43.0132 101 64 101Z" stroke="#F6F5F4" stroke-width="20"/>
<path id="Vector_19" d="M37.5 63C37.5 48.3645 49.3645 36.5 64 36.5C78.6355 36.5 90.5 48.3645 90.5 63C90.5 77.6355 78.6355 89.5 64 89.5C49.3645 89.5 37.5 77.6355 37.5 63Z" stroke="url(#paint1_radial)" stroke-width="5" stroke-linecap="square" stroke-linejoin="round"/>
<path id="Vector_20" d="M32 63C32 80.6731 46.3269 95 64 95C81.6731 95 96 80.6731 96 63C96 45.3269 81.6731 31 64 31C46.3269 31 32 45.3269 32 63Z" stroke="url(#paint2_linear)" stroke-width="8" stroke-linecap="square" stroke-linejoin="round"/>
</g>
</g>
<path id="Vector 3" d="M37.5998 63.6239C37.9444 64.6734 39.0745 65.2448 40.1239 64.9002C41.1734 64.5556 41.7448 63.4255 41.4002 62.3761L37.5998 63.6239ZM28.5 29.5L29.0747 27.5843L25.4044 26.4832L26.5998 30.1239L28.5 29.5ZM63.5 40L62.9253 41.9157L63.496 42.0868L64.0673 41.9179L63.5 40ZM65.5 10.5C65.5 9.39543 64.6046 8.5 63.5 8.5C62.3954 8.5 61.5 9.39543 61.5 10.5H65.5ZM99 29.5L100.883 30.1745L102.212 26.4644L98.4327 27.5821L99 29.5ZM87 63L85.1172 62.3255L84.8974 62.9391L85.0813 63.5643L87 63ZM117 65C118.105 65 119 64.1046 119 63C119 61.8954 118.105 61 117 61V65ZM97 97L96.5081 98.9386L99.9086 99.8014L98.9187 96.4357L97 97ZM63.9919 86.5614C62.9212 86.2898 61.8331 86.9375 61.5614 88.0081C61.2898 89.0788 61.9375 90.1669 63.0081 90.4386L63.9919 86.5614ZM41.4002 62.3761L30.4002 28.8761L26.5998 30.1239L37.5998 63.6239L41.4002 62.3761ZM27.9253 31.4157L62.9253 41.9157L64.0747 38.0843L29.0747 27.5843L27.9253 31.4157ZM65.5 40V10.5H61.5V40H65.5ZM64.0673 41.9179L99.5673 31.4179L98.4327 27.5821L62.9327 38.0821L64.0673 41.9179ZM97.1172 28.8255L85.1172 62.3255L88.8828 63.6745L100.883 30.1745L97.1172 28.8255ZM87 65H117V61H87V65ZM85.0813 63.5643L95.0813 97.5643L98.9187 96.4357L88.9187 62.4357L85.0813 63.5643ZM97.4919 95.0614L63.9919 86.5614L63.0081 90.4386L96.5081 98.9386L97.4919 95.0614Z" fill="url(#paint3_linear)"/>
<circle id="Ellipse 3" cx="29" cy="28" r="8" fill="#1C71D8"/>
<circle id="Ellipse 4" cx="40" cy="64" r="8" fill="#1C71D8"/>
<circle id="Ellipse 5" cx="64" cy="13" r="8" fill="#1C71D8"/>
<circle id="Ellipse 7" cx="64" cy="40" r="8" fill="url(#paint4_linear)"/>
<circle id="Ellipse 6" cx="99" cy="28" r="8" fill="#1C71D8"/>
<circle id="Ellipse 8" cx="88" cy="64" r="8" fill="#1C71D8"/>
<circle id="Ellipse 10" cx="98" cy="98" r="8" fill="#1C71D8"/>
<circle id="Ellipse 11" cx="64" cy="89" r="8" fill="#1C71D8"/>
<circle id="Ellipse 9" cx="112" cy="63" r="8" fill="url(#paint5_linear)"/>
</g>
<defs>
<linearGradient id="paint0_linear" x1="64" y1="89.5" x2="64" y2="59" gradientUnits="userSpaceOnUse">
<stop stop-color="#9A9996"/>
<stop offset="1" stop-color="#77767B"/>
</linearGradient>
<radialGradient id="paint1_radial" cx="0" cy="0" r="1" gradientUnits="userSpaceOnUse" gradientTransform="translate(74.6 70.0667) rotate(-90) scale(28.2667)">
<stop stop-color="#D5D3CF"/>
<stop offset="1" stop-color="#949390"/>
</radialGradient>
<linearGradient id="paint2_linear" x1="64" y1="31" x2="64" y2="95" gradientUnits="userSpaceOnUse">
<stop stop-color="#D5D3CF"/>
<stop offset="1" stop-color="#F6F5F4"/>
</linearGradient>
<linearGradient id="paint3_linear" x1="28.5" y1="53.75" x2="117" y2="53.75" gradientUnits="userSpaceOnUse">
<stop stop-color="#5E5C64"/>
</linearGradient>
<linearGradient id="paint4_linear" x1="56" y1="40" x2="72" y2="40" gradientUnits="userSpaceOnUse">
<stop stop-color="#2EC27E"/>
</linearGradient>
<linearGradient id="paint5_linear" x1="104" y1="63" x2="120" y2="63" gradientUnits="userSpaceOnUse">
<stop stop-color="#2EC27E"/>
</linearGradient>
</defs>
</svg>
