<svg enable-background="new" height="128" viewBox="0 0 128 128" width="128" xmlns="http://www.w3.org/2000/svg" xmlns:xlink="http://www.w3.org/1999/xlink">
  <linearGradient id="linearGradient965" gradientUnits="userSpaceOnUse" x1="48" x2="464" y1="44" y2="44">
    <stop offset="0" stop-color="#77767b"/>
    <stop offset=".05" stop-color="#c0bfbc"/>
    <stop offset=".1" stop-color="#9a9996"/>
    <stop offset=".9" stop-color="#9a9996"/>
    <stop offset=".95" stop-color="#c0bfbc"/>
    <stop offset="1" stop-color="#77767b"/>
  </linearGradient>
  <radialGradient id="radialGradient1030" cx="64" cy="194.19" gradientTransform="matrix(-4.7273 .00000079 -.0000003 -1.6364 238.55 49.766)" gradientUnits="userSpaceOnUse" r="44">
    <stop offset="0" stop-color="#fff"/>
    <stop offset="1" stop-color="#fff" stop-opacity=".094118"/>
  </radialGradient>
  <g transform="translate(0 -172)">
    <rect fill="url(#linearGradient965)" height="376" rx="32" transform="matrix(.25 0 0 .25 0 225)" width="416" x="48" y="-124"/>
    <rect fill="#deddda" height="96" rx="8" stroke-width=".25" width="104" x="12" y="184"/>
    <rect fill="#640093" height="88" rx="4" transform="scale(1 -1)" width="96" x="16" y="-276"/>
    <path d="m-108-272h88v78h-88z" fill="url(#radialGradient1030)" opacity=".05" transform="scale(-1)"/>
    <path d="m100 244h4v4h-4zm-8 0h4v4h-4zm-8 0h4v4h-4zm-8 0h4v4h-4zm-8 0h4v4h-4zm-8 0h4v4h-4zm-8 0h4v4h-4zm-8 0h4v4h-4zm-8 0h4v4h-4zm-8 0h4v4h-4zm-8 0h4v4h-4zm84 4h4v4h-4zm-8 0h4v4h-4zm-8 0h4v4h-4zm-8 0h4v4h-4zm-8 0h4v4h-4zm-8 0h4v4h-4zm-8 0h4v4h-4zm-8 0h4v4h-4zm-8 0h4v4h-4zm-8 0h4v4h-4zm-8 0h4v4h-4zm76 4h4v4h-4zm-8 0h4v4h-4zm-8 0h4v4h-4zm-8 0h4v4h-4zm-8 0h4v4h-4zm-8 0h4v4h-4zm-8 0h4v4h-4zm-8 0h4v4h-4zm-8 0h4v4h-4zm-8 0h4v4h-4zm-8 0h4v4h-4zm84 4h4v4h-4zm-8 0h4v4h-4zm-8 0h4v4h-4zm-8 0h4v4h-4zm-8 0h4v4h-4zm-8 0h4v4h-4zm-8 0h4v4h-4zm-8 0h4v4h-4zm-8 0h4v4h-4zm-8 0h4v4h-4zm-8 0h4v4h-4zm76 4h4v4h-4zm-8 0h4v4h-4zm-8 0h4v4h-4zm-8 0h4v4h-4zm-8 0h4v4h-4zm-8 0h4v4h-4zm-8 0h4v4h-4zm-8 0h4v4h-4zm-8 0h4v4h-4zm-8 0h4v4h-4zm-8 0h4v4h-4zm84 4h4v4h-4zm-8 0h4v4h-4zm-8 0h4v4h-4zm-8 0h4v4h-4zm-8 0h4v4h-4zm-8 0h4v4h-4zm-8 0h4v4h-4zm-8 0h4v4h-4zm-8 0h4v4h-4zm-8 0h4v4h-4zm-8 0h4v4h-4zm76 4h4v4h-4zm-8 0h4v4h-4zm-8 0h4v4h-4zm-8 0h4v4h-4zm-8 0h4v4h-4zm-8 0h4v4h-4zm-8 0h4v4h-4zm-8 0h4v4h-4zm-8 0h4v4h-4zm-8 0h4v4h-4zm-8 0h4v4h-4z" fill="#9111a7" opacity=".3"/>
    <path d="m25.952226 227.48571h4.66286l1.279998-8.3657h5.942857l-1.279998 8.3657h4.617139l1.280002-8.3657h5.028575l.685711-4.52572h-5.02857l1.051425-6.99429h5.074288l.639998-4.52572h-5.02857l1.188572-7.58857h-4.617144l-1.188574 7.58857h-5.942856l1.142857-7.58857h-4.617139l-1.142857 7.58857h-5.074286l-.685716 4.52572h5.028572l-1.051426 6.99429h-5.028571l-.685716 4.52572h5.028571zm6.628569-12.89142 1.05143-6.99429h5.942859l-1.05143 6.99429z" fill="#fff"/>
  </g>
</svg>
