<svg fill="none" height="128" viewBox="0 0 128 128" width="128" xmlns="http://www.w3.org/2000/svg" xmlns:xlink="http://www.w3.org/1999/xlink"><linearGradient id="a" gradientTransform="matrix(1.1818183 0 0 1.134943 11.636392 213.40334)" gradientUnits="userSpaceOnUse" x1="-108" x2="-20" y1="-274" y2="-274"><stop offset="0" stop-color="#db3a29"/><stop offset=".045" stop-color="#e59991"/><stop offset=".091" stop-color="#ce4f41"/><stop offset=".909" stop-color="#d15245"/><stop offset=".955" stop-color="#e59991"/><stop offset="1" stop-color="#db3a29"/></linearGradient><rect fill="url(#a)" height="45.397717" rx="9.454547" stroke-width="1.158144" transform="scale(-1)" width="104" x="-116" y="-118"/><path d="m20 10c-4.432 0-8 3.568-8 8v42 42c0 4.432 3.568 8 8 8h44 44c4.432 0 8-3.568 8-8v-42-42c0-4.432-3.568-8-8-8z" fill="#f66151"/><g fill="#f6f5f4" transform="matrix(.82469126 0 0 .82469126 -.796528 22.39915)"><path d="m37.3185 76.9963c2.6677 0 4.9463.9516 6.838 2.8529 1.8916 1.9012 2.8379 4.1915 2.8379 6.8727 0 2.73-.9464 5.0331-2.8379 6.91-1.8917 1.8769-4.1703 2.8157-6.838 2.8157-2.6678 0-4.9488-.9492-6.8405-2.8504-1.8917-1.9013-2.8355-4.194-2.8355-6.8753 0-2.6812.9439-4.9715 2.8355-6.8727 1.8917-1.9013 4.1727-2.8529 6.8405-2.8529z"/><path d="m27.6425 48.2589c8.6823 0 16.7093 2.1561 24.0819 6.4705 7.3727 4.3144 13.2046 10.1766 17.4972 17.5866 4.2927 7.41 6.4383 15.4798 6.4383 24.206h-13.969c0-9.4574-3.3214-17.5273-9.9665-24.206-6.6936-6.7275-14.7206-10.0906-24.0819-10.0906z"/><path d="m27.6425 23.3973c9.8464 0 19.2551 1.9369 28.2284 5.8125 8.9733 3.8757 16.7108 9.0802 23.2104 15.6127s11.6771 14.3084 15.5332 23.3271 5.7825 18.4762 5.7825 28.3724h-13.9687c0-7.9949-1.5512-15.6496-4.6555-22.9621s-7.2885-13.6003-12.5512-18.8653-11.5195-9.4585-18.7709-12.5785-14.8535-4.6803-22.8082-4.6803z"/></g></svg>