<svg width="128" height="128" enable-background="new" version="1.0" viewBox="0 0 128 128" xmlns="http://www.w3.org/2000/svg" xmlns:xlink="http://www.w3.org/1999/xlink">
 <title>Adwaita Icon Template</title>
 <g transform="matrix(.86667 0 0 .86667 9.5334 -142.4)">
  <g>
   <g>
    <path d="m132.08 238.15a69.231 69.231 0 0 1-69.231 69.231 69.231 69.231 0 0 1-69.231-69.231 69.231 69.231 0 0 1 69.231-69.231 69.231 69.231 0 0 1 69.231 69.231z" enable-background="new" fill="#deddda" style="paint-order:normal"/>
    <rect x="-1.7692" y="171.23" width="129.23" height="131.54" rx="64.615" ry="64.615" enable-background="new" fill="#d5d3cf" style="paint-order:normal"/>
    <path d="m132.08 235.85a69.231 69.231 0 0 1-69.231 69.231 69.231 69.231 0 0 1-69.231-69.231 69.231 69.231 0 0 1 69.231-69.231 69.231 69.231 0 0 1 69.231 69.231z" enable-background="new" fill="#f6f5f4" style="paint-order:normal"/>
    <circle cx="62.846" cy="235.85" r="62.308" enable-background="new" fill="#75aadb" style="paint-order:normal"/>
    <path d="m62.846 173.54a62.308 62.308 0 0 0-62.308 62.308 62.308 62.308 0 0 0 0.04789 1.351 62.308 62.308 0 0 1 62.26-61.351 62.308 62.308 0 0 1 62.26 60.956 62.308 62.308 0 0 0 0.0479-0.95553 62.308 62.308 0 0 0-62.308-62.308z" enable-background="new" opacity=".1" style="paint-order:normal"/>
   </g>
   <g transform="matrix(1.1538 0 0 1.1538 -1062 -141.44)">
    <g id="a">
     <g transform="matrix(.18307 0 0 .18307 924.98 270.38)" fill="#deddda">
      <path class="st2" d="m373.85 433.21h37.534v29.156h-57.306l-94.952-142.32h-50.604v113.16h49.487v29.156h-124.55v-29.156h42.784v-250.78l-42.784-5.2503v-27.592c16.198 3.6864 30.273 6.2556 47.923 6.2556 26.586 0 53.732-6.2556 80.318-6.2556 51.609 0 99.532 23.459 99.532 80.765 0 44.348-26.586 72.498-67.807 84.451zm-165.33-141.31 27.145 0.55854c66.243 1.0054 91.712-24.464 91.712-58.423 0-39.656-28.709-55.295-65.126-55.295-17.203 0-34.965 1.5639-53.732 3.6864z" fill="#deddda" stroke-width="1.1171"/>
     </g>
     <g transform="matrix(.2045 0 0 .2045 919.14 264.74)" enable-background="new">
      <path class="st2" d="m363.22 404.49h33.6v26.1h-51.3l-85-127.4h-45.3v101.3h44.3v26.1h-111.5v-26.1h38.3v-224.5l-38.3-4.7v-24.7c14.5 3.3 27.1 5.6 42.9 5.6 23.8 0 48.1-5.6 71.9-5.6 46.2 0 89.1 21 89.1 72.3 0 39.7-23.8 64.9-60.7 75.6zm-148-126.5 24.3 0.5c59.3 0.9 82.1-21.9 82.1-52.3 0-35.5-25.7-49.5-58.3-49.5-15.4 0-31.3 1.4-48.1 3.3z"/>
     </g>
    </g>
   </g>
  </g>
 </g>
 <style type="text/css">.st0{fill:#75AADB;}
	.st1{fill:#4D4D4D;}
	.st2{fill:#FFFFFF;}
	.st3{fill:url(#SVGID_1_);}
	.st4{fill:url(#SVGID_2_);}
	.st5{fill:url(#SVGID_3_);}
	.st6{fill:url(#SVGID_4_);}
	.st7{fill:url(#SVGID_5_);}
	.st8{fill:url(#SVGID_6_);}
	.st9{fill:url(#SVGID_7_);}
	.st10{fill:url(#SVGID_8_);}
	.st11{fill:url(#SVGID_9_);}
	.st12{fill:url(#SVGID_10_);}
	.st13{opacity:0.18;fill:url(#SVGID_11_);}
	.st14{opacity:0.3;}</style>
</svg>
