<svg enable-background="new" height="128" viewBox="0 0 128 128" width="128" xmlns="http://www.w3.org/2000/svg" xmlns:xlink="http://www.w3.org/1999/xlink">
  <linearGradient id="linearGradient1053-2" gradientUnits="userSpaceOnUse" x1="384" x2="416" y1="760" y2="760">
    <stop offset="0" stop-color="#deddda"/>
    <stop offset=".511" stop-color="#fff"/>
    <stop offset="1" stop-color="#c0bfbc"/>
  </linearGradient>
  <g enable-background="new" transform="translate(192.50002 -169.5)">
    <rect fill="#f8e45c" height="24" rx="8" ry="8.003" width="16" x="-92.5" y="193.5"/>
    <rect fill="#2ec27e" height="24" rx="8" ry="8.003" width="16" x="-92.5" y="209.5"/>
    <rect fill="#c061cb" height="24" rx="8" ry="8.003" width="16" x="-92.5" y="225.5"/>
    <rect fill="#f66151" height="24" rx="8" ry="8.003" width="16" x="-92.5" y="241.5"/>
    <g enable-background="new" transform="matrix(.25 0 0 .25 -188.50002 62.499999)">
      <path d="m64 540v368h320c17.728 0 32-14.272 32-32v-304c0-17.728-14.272-32-32-32z" fill="#1d60b5"/>
      <path d="m72 620v280h312c17.728 0 32-14.272 32-32v-216c0-17.728-14.272-32-32-32z" fill="url(#linearGradient1053-2)"/>
      <path d="m64 540v336h320c17.728 0 32-14.272 32-32v-272c0-17.728-14.272-32-32-32z" fill="#2864b0"/>
      <path d="m64 460v408h320c17.728 0 32-14.272 32-32v-344c0-17.728-14.272-32-32-32z" fill="#3584e4"/>
      <path d="m72 460.00003h8v408h-8z" fill="#fff" opacity=".187"/>
    </g>
    <path d="m-132.75814 229.59019q0 2.7859 1.17777 4.39403 1.20043 1.60812 3.2389 1.60812 2.01581 0 3.21624-1.60812 1.20043-1.63077 1.20043-4.39403 0-2.7406-1.22308-4.32607-1.20043-1.60812-3.23889-1.60812-1.99317 0-3.1936 1.60812-1.17777 1.58547-1.17777 4.32607zm9.28633 6.81753q-.67949 1.60813-2.19701 2.51411-1.49487.88333-3.51069.88333-3.89573 0-6.34188-2.80855-2.42351-2.8312-2.42351-7.36112 0-4.52992 2.44615-7.36112 2.44616-2.83119 6.31924-2.83119 2.01582 0 3.51069.90598 1.51752.90598 2.19701 2.5141v-2.96709h4.73377v15.69617q2.80855-.43034 4.41667-2.6953 1.60812-2.28761 1.60812-5.8436 0-2.26496-.65684-4.23547-.65684-1.99317-1.99316-3.64659-2.15172-2.76325-5.39061-4.25812-3.21624-1.49488-6.97607-1.49488-2.62736 0-5.02821.70214-2.40086.67949-4.43932 2.01581-3.35214 2.21967-5.23206 5.753-1.85727 3.51069-1.85727 7.61027 0 3.37479 1.20043 6.34188 1.22308 2.94445 3.51069 5.20941 2.26496 2.21966 5.18676 3.37479 2.94444 1.17778 6.27393 1.17778 2.85385 0 5.7077-1.06453 2.85385-1.06453 4.86966-2.8765l2.42351 3.66923q-2.8312 2.19701-6.18334 3.35214-3.32949 1.17778-6.77223 1.17778-4.19017 0-7.90471-1.49487-3.71453-1.47222-6.61368-4.30342-2.89915-2.8312-4.41667-6.54574-1.51752-3.73718-1.51752-8.01795 0-4.12223 1.54017-7.85941 1.54017-3.73719 4.39402-6.56839 2.85385-2.80855 6.63633-4.34872 3.80514-1.54017 7.88206-1.54017 5.07351 0 9.21839 1.94786 4.14487 1.92522 6.93077 5.5718 1.69872 2.21967 2.55941 4.82437.88333 2.58205.88333 5.4359 0 6.13804-3.69188 9.53548-3.69189 3.39744-10.41882 3.39744h-.88333z" fill="#fff"/>
  </g>
</svg>
