<svg width="128" height="128" viewBox="0 0 128 128" fill="none" xmlns="http://www.w3.org/2000/svg">
<g id="sage-notebook">
<g id="circle">
<path id="Vector" d="M63.9931 118.986C94.365 118.986 118.986 94.365 118.986 63.9931C118.986 33.6212 94.365 9 63.9931 9C33.6212 9 9 33.6212 9 63.9931C9 94.365 33.6212 118.986 63.9931 118.986Z" fill="url(#paint0_linear)"/>
<path id="Vector_2" fill-rule="evenodd" clip-rule="evenodd" d="M118.932 62.5538C118.661 76.9492 112.755 90.6641 102.483 100.753C92.2103 110.841 78.3911 116.499 63.9931 116.51C49.6633 116.501 35.903 110.899 25.6417 100.897C15.3805 90.8943 9.42874 77.2815 9.0537 62.9566C9.03254 63.3019 9.01464 63.6474 9 63.9931C9.00001 78.5782 14.7939 92.5659 25.1071 102.879C35.4203 113.192 49.408 118.986 63.9931 118.986C78.5782 118.986 92.5659 113.192 102.879 102.879C113.192 92.5659 118.986 78.5782 118.986 63.9931C118.975 63.5131 118.957 63.0333 118.932 62.5538" fill="url(#paint1_linear)"/>
</g>
<g id="geometry shadow" opacity="0.4">
<path id="Vector 4 (Stroke)" fill-rule="evenodd" clip-rule="evenodd" d="M94.1504 53.2896L40.8121 84.932L37.7424 79.5717L91.0808 47.9293L94.1504 53.2896Z" fill="url(#paint2_linear)"/>
<path id="Vector 6 (Stroke)" fill-rule="evenodd" clip-rule="evenodd" d="M68.9405 35.0069L69.0483 97.8435L62.9525 97.8544L62.8447 35.0177L68.9405 35.0069Z" fill="url(#paint3_linear)"/>
<path id="Vector 5 (Stroke)" fill-rule="evenodd" clip-rule="evenodd" d="M90.7742 84.0002L38.0455 52.6681L41.1189 47.31L93.8476 78.6421L90.7742 84.0002Z" fill="url(#paint4_linear)"/>
<path id="Polygon 1 (Stroke)" fill-rule="evenodd" clip-rule="evenodd" d="M66.4036 38.8667L43.4642 52.4692V79.7717L66.4036 93.3742L89.343 79.7717V52.4692L66.4036 38.8667ZM95.4388 48.9033L66.4036 31.6862L37.3684 48.9033V83.3376L66.4036 100.555L95.4388 83.3376V48.9033Z" fill="url(#paint5_linear)"/>
<path id="Polygon 2 (Stroke)" fill-rule="evenodd" clip-rule="evenodd" d="M66.0988 53.2609L55.157 59.6907V72.5502L66.0988 78.9799L77.0406 72.5502V59.6907L66.0988 53.2609ZM80.0885 57.8996L66.0988 49.6788L52.1091 57.8996V74.3412L66.0988 82.562L80.0885 74.3412V57.8996Z" fill="url(#paint6_linear)"/>
<ellipse id="Ellipse 12" cx="66.4036" cy="32.927" rx="9.7533" ry="9.92701" fill="url(#paint7_linear)"/>
<ellipse id="Ellipse 13" cx="66.4036" cy="98.073" rx="9.7533" ry="9.92701" fill="url(#paint8_linear)"/>
<ellipse id="Ellipse 14" cx="95.0538" cy="82.5621" rx="9.7533" ry="9.92701" fill="url(#paint9_linear)"/>
<ellipse id="Ellipse 15" cx="37.7533" cy="82.5621" rx="9.7533" ry="9.92701" fill="url(#paint10_linear)"/>
<ellipse id="Ellipse 16" cx="95.0538" cy="48.438" rx="9.7533" ry="9.92701" fill="url(#paint11_linear)"/>
<ellipse id="Ellipse 17" cx="37.7533" cy="48.438" rx="9.7533" ry="9.92701" fill="url(#paint12_linear)"/>
</g>
<g id="geometry">
<path id="Vector 4 (Stroke)_2" fill-rule="evenodd" clip-rule="evenodd" d="M92.1504 51.2896L38.8121 82.932L35.7424 77.5717L89.0808 45.9293L92.1504 51.2896Z" fill="url(#paint13_linear)"/>
<path id="Vector 6 (Stroke)_2" fill-rule="evenodd" clip-rule="evenodd" d="M66.9405 33.0069L67.0483 95.8435L60.9525 95.8544L60.8447 33.0177L66.9405 33.0069Z" fill="url(#paint14_linear)"/>
<path id="Vector 5 (Stroke)_2" fill-rule="evenodd" clip-rule="evenodd" d="M88.7742 82.0002L36.0455 50.6681L39.1189 45.31L91.8476 76.6421L88.7742 82.0002Z" fill="url(#paint15_linear)"/>
<path id="Polygon 1 (Stroke)_2" fill-rule="evenodd" clip-rule="evenodd" d="M64.4036 36.8667L41.4642 50.4692V77.7717L64.4036 91.3742L87.343 77.7717V50.4692L64.4036 36.8667ZM93.4388 46.9033L64.4036 29.6862L35.3684 46.9033V81.3376L64.4036 98.5548L93.4388 81.3376V46.9033Z" fill="url(#paint16_linear)"/>
<path id="Polygon 2 (Stroke)_2" fill-rule="evenodd" clip-rule="evenodd" d="M64.0988 51.2609L53.157 57.6907V70.5502L64.0988 76.9799L75.0406 70.5502V57.6907L64.0988 51.2609ZM78.0885 55.8996L64.0988 47.6788L50.1091 55.8996V72.3412L64.0988 80.562L78.0885 72.3412V55.8996Z" fill="url(#paint17_linear)"/>
<ellipse id="Ellipse 12_2" cx="64.4036" cy="30.927" rx="9.7533" ry="9.92701" fill="url(#paint18_linear)"/>
<ellipse id="Ellipse 13_2" cx="64.4036" cy="96.073" rx="9.7533" ry="9.92701" fill="url(#paint19_linear)"/>
<ellipse id="Ellipse 14_2" cx="93.0538" cy="80.5621" rx="9.7533" ry="9.92701" fill="url(#paint20_linear)"/>
<ellipse id="Ellipse 15_2" cx="35.7533" cy="80.5621" rx="9.7533" ry="9.92701" fill="url(#paint21_linear)"/>
<ellipse id="Ellipse 16_2" cx="93.0538" cy="46.438" rx="9.7533" ry="9.92701" fill="url(#paint22_linear)"/>
<ellipse id="Ellipse 17_2" cx="35.7533" cy="46.438" rx="9.7533" ry="9.92701" fill="url(#paint23_linear)"/>
</g>
</g>
<defs>
<linearGradient id="paint0_linear" x1="9" y1="63.9931" x2="118.986" y2="63.9931" gradientUnits="userSpaceOnUse">
<stop stop-color="#C061CB"/>
</linearGradient>
<linearGradient id="paint1_linear" x1="9.00001" y1="90.77" x2="118.986" y2="90.77" gradientUnits="userSpaceOnUse">
<stop stop-color="#613583"/>
</linearGradient>
<linearGradient id="paint2_linear" x1="37.7424" y1="66.4307" x2="94.1504" y2="66.4307" gradientUnits="userSpaceOnUse">
<stop stop-color="#241F31"/>
</linearGradient>
<linearGradient id="paint3_linear" x1="51.7865" y1="91.2569" x2="80.8608" y2="42.0501" gradientUnits="userSpaceOnUse">
<stop stop-color="#241F31"/>
</linearGradient>
<linearGradient id="paint4_linear" x1="53.3748" y1="40.87" x2="79.2264" y2="90.0681" gradientUnits="userSpaceOnUse">
<stop stop-color="#241F31"/>
</linearGradient>
<linearGradient id="paint5_linear" x1="37.3684" y1="66.1205" x2="95.4388" y2="66.1205" gradientUnits="userSpaceOnUse">
<stop stop-color="#241F31"/>
</linearGradient>
<linearGradient id="paint6_linear" x1="52.1091" y1="66.1204" x2="80.0885" y2="66.1204" gradientUnits="userSpaceOnUse">
<stop stop-color="#241F31"/>
</linearGradient>
<linearGradient id="paint7_linear" x1="56.6503" y1="32.927" x2="76.1569" y2="32.927" gradientUnits="userSpaceOnUse">
<stop stop-color="#241F31"/>
</linearGradient>
<linearGradient id="paint8_linear" x1="56.6503" y1="98.073" x2="76.1569" y2="98.073" gradientUnits="userSpaceOnUse">
<stop stop-color="#241F31"/>
</linearGradient>
<linearGradient id="paint9_linear" x1="85.3005" y1="82.5621" x2="104.807" y2="82.5621" gradientUnits="userSpaceOnUse">
<stop stop-color="#241F31"/>
</linearGradient>
<linearGradient id="paint10_linear" x1="28" y1="82.5621" x2="47.5066" y2="82.5621" gradientUnits="userSpaceOnUse">
<stop stop-color="#241F31"/>
</linearGradient>
<linearGradient id="paint11_linear" x1="85.3005" y1="48.438" x2="104.807" y2="48.438" gradientUnits="userSpaceOnUse">
<stop stop-color="#241F31"/>
</linearGradient>
<linearGradient id="paint12_linear" x1="28" y1="48.438" x2="47.5066" y2="48.438" gradientUnits="userSpaceOnUse">
<stop stop-color="#241F31"/>
</linearGradient>
<linearGradient id="paint13_linear" x1="35.7424" y1="64.4307" x2="92.1504" y2="64.4307" gradientUnits="userSpaceOnUse">
<stop stop-color="#F6F5F4"/>
</linearGradient>
<linearGradient id="paint14_linear" x1="49.7865" y1="89.2569" x2="78.8608" y2="40.0501" gradientUnits="userSpaceOnUse">
<stop stop-color="#F6F5F4"/>
</linearGradient>
<linearGradient id="paint15_linear" x1="51.3748" y1="38.87" x2="77.2264" y2="88.0681" gradientUnits="userSpaceOnUse">
<stop stop-color="#F6F5F4"/>
</linearGradient>
<linearGradient id="paint16_linear" x1="35.3684" y1="64.1205" x2="93.4388" y2="64.1205" gradientUnits="userSpaceOnUse">
<stop stop-color="#F6F5F4"/>
</linearGradient>
<linearGradient id="paint17_linear" x1="50.1091" y1="64.1204" x2="78.0885" y2="64.1204" gradientUnits="userSpaceOnUse">
<stop stop-color="#F6F5F4"/>
</linearGradient>
<linearGradient id="paint18_linear" x1="54.6503" y1="30.927" x2="74.1569" y2="30.927" gradientUnits="userSpaceOnUse">
<stop stop-color="#F6F5F4"/>
</linearGradient>
<linearGradient id="paint19_linear" x1="54.6503" y1="96.073" x2="74.1569" y2="96.073" gradientUnits="userSpaceOnUse">
<stop stop-color="#F6F5F4"/>
</linearGradient>
<linearGradient id="paint20_linear" x1="83.3005" y1="80.5621" x2="102.807" y2="80.5621" gradientUnits="userSpaceOnUse">
<stop stop-color="#F6F5F4"/>
</linearGradient>
<linearGradient id="paint21_linear" x1="26" y1="80.5621" x2="45.5066" y2="80.5621" gradientUnits="userSpaceOnUse">
<stop stop-color="#F6F5F4"/>
</linearGradient>
<linearGradient id="paint22_linear" x1="83.3005" y1="46.438" x2="102.807" y2="46.438" gradientUnits="userSpaceOnUse">
<stop stop-color="#F6F5F4"/>
</linearGradient>
<linearGradient id="paint23_linear" x1="26" y1="46.438" x2="45.5066" y2="46.438" gradientUnits="userSpaceOnUse">
<stop stop-color="#F6F5F4"/>
</linearGradient>
</defs>
</svg>
