<svg fill="none" height="128" viewBox="0 0 128 128" width="128" xmlns="http://www.w3.org/2000/svg" xmlns:xlink="http://www.w3.org/1999/xlink"><linearGradient id="a" gradientUnits="userSpaceOnUse" x1="90.9277" x2="107.785" y1="82.6598" y2="82.6598"><stop offset="0" stop-color="#e8e7e4"/><stop offset=".5" stop-color="#fff"/><stop offset="1" stop-color="#c9c6c1"/></linearGradient><path d="m20.2166 28.6444v90.3536h79.7111c4.3523 0 7.8563-3.505 7.8563-7.857v-74.6398c0-4.3527-3.504-7.8568-7.8563-7.8568z" fill="#546e7a"/><path d="m20.2155 101.323h7.8573v17.677h-7.8573z" fill="#191622"/><path d="m22.1808 48.2863v68.7467h77.7469c4.3523 0 7.8573-3.504 7.8573-7.856v-53.0339c0-4.3526-3.505-7.8568-7.8573-7.8568z" fill="url(#a)"/><path d="m20.2166 28.6444v74.6396h79.7111c4.3523 0 7.8563-3.5042 7.8563-7.8569v-58.9259c0-4.3527-3.504-7.8568-7.8563-7.8568z" fill="#546e7a"/><path d="m20.2163 9.00195v92.31705h79.7112c4.3525 0 7.8565-3.5039 7.8565-7.8565v-76.6038c0-4.3526-3.504-7.85675-7.8565-7.85675z" fill="#90a4ae"/><path d="m20.2155 9h7.8573v92.318h-7.8573z" fill="#424048"/><path d="m22.1808 9.0024h1.9642v92.3176h-1.9642z" fill="#fff" opacity=".223"/><path d="m20.2155 101.323h7.8573v1.964h-7.8573z" fill="#191622"/><g transform="translate(0 -3.49805)"><path d="m75 13v50l10-10 10 10v-50z" fill="#f06292"/><path d="m74.5 12.5v.5 51.207031l10.5-10.5 10.5 10.5v-51.707031zm1 1h19v48.292969l-9.5-9.5-9.5 9.5z" fill="#546e7a"/></g></svg>