<svg enable-background="new" height="128" viewBox="0 0 128 128" width="128" xmlns="http://www.w3.org/2000/svg" xmlns:xlink="http://www.w3.org/1999/xlink"><linearGradient id="a" gradientTransform="matrix(3.515783 0 0 5.7311964 -245.46148 -42.52341)" gradientUnits="userSpaceOnUse" x1="25.355" x2="25.355" y1="33.357" y2="31.763"><stop offset="0" stop-color="#2e3436"/><stop offset="1" stop-color="#2e3436" stop-opacity="0"/></linearGradient><radialGradient id="b" cx="130" cy="536.622" gradientTransform="matrix(4.1699347 0 0 .31152744 -703.17389 -7.261715)" gradientUnits="userSpaceOnUse" r="46" xlink:href="#j"/><radialGradient id="c" cx="117.197" cy="126.459" gradientTransform="matrix(1.7603952 .10829199 -.07692273 1.2504559 -55.373373 24.270299)" gradientUnits="userSpaceOnUse" r="43"><stop offset="0" stop-color="#fff"/><stop offset="1" stop-color="#fff" stop-opacity="0"/></radialGradient><linearGradient id="d" gradientTransform="matrix(4.0215518 0 0 4.4016601 -113.49853 1.802608)" gradientUnits="userSpaceOnUse" x1="-11.986" x2="-11.986" y1="11.5" y2="28.977"><stop offset="0" stop-color="#204a87"/><stop offset="1" stop-color="#729fcf"/></linearGradient><clipPath id="e"><path d="m84 428h92v56h-92z"/></clipPath><filter id="f" color-interpolation-filters="sRGB" height="1.605" width="1.605" x="-.3" y="-.3"><feGaussianBlur stdDeviation="3.533"/></filter><filter id="g" color-interpolation-filters="sRGB"><feGaussianBlur stdDeviation=".841"/></filter><filter id="h" color-interpolation-filters="sRGB" height="1.405" width="1.222" x="-.11" y="-.2"><feGaussianBlur stdDeviation=".839"/></filter><linearGradient id="i" gradientTransform="matrix(1.2993122 0 0 1.6374894 -329.99329 -634.47565)" gradientUnits="userSpaceOnUse" x1="145" x2="149.75" xlink:href="#j" y1="481.125" y2="492.875"/><linearGradient id="j"><stop offset="0"/><stop offset="1" stop-opacity="0"/></linearGradient><clipPath id="k"><path d="m79.40625 432.78125c4.95211 3.15625 10.09773 2.36004 13.8125 6.28125.20853.22012.41543.41335.625.625-.91227.0132-3.36173-.64471-5.8125-.21875-2.03999.35455-4.02605-.55433-6.4375 1.03125 2.8086-1.17696 5.05872-.41657 7.3125-.71875 1.75702-.23558 4.85952.60574 6.84375 1.75 3.19912 2.92004 6.06811 5.00342 6.65625 7.03125.75156 2.59125.93062 10.17703.96875 13.3125-.33977-.27402-.66062-.5645-.96875-.875-.68906-.71321-1.34766-1.47779-2.15625-2.0625-.77698-.56343-1.58267-1.08104-2.21875-1.8125-.66486-.8969-1.44709-1.69706-2.1875-2.53125-.70592-.72238-1.45646-1.39671-2.125-2.15625-.61554-.75741-1.33614-1.42319-2.1875-1.90625-.77581-.47272-1.5828-1.00327-2.53125-.96875-.47451-.0791-.95887-.19127-1.3125-.53125-.59769-.44175-1.32432-.71337-2.0625-.78125l.125.0625c.9109.24481 1.68179.8215 2.40625 1.40625.82464.41098 1.87022.34115 2.53125 1.0625.70456.74408 1.76065 1.14357 2.28125 2.0625.20942.35023.44974.66458.71875.96875-.70331.27896-1.37908 1.26201-1.875 1.59375-1.29807.86836-4.60919-2.74752-7.5-2.40625 2.08544-.0469 5.75517 2.50843 6.46875 2.71875.55836.16459-1.66639 2.10357-3.375 3.03125 1.51744-.43138 3.97727-2.51723 4.4375-2.625.57771-.13527 1.16213-1.94726 2.4375-1.6875.26687.28232.53984.57255.78125.875.69303.78032 1.38577 1.54029 1.96875 2.40625.85162 1.06177 1.95474 1.87787 2.875 2.875.7471.7803 1.39506 1.64575 2.09375 2.46875.93323 1.12487 1.87928 2.25013 2.8125 3.375.42144.87267 1.03174 1.61036 1.65625 2.34375.66563.75999 1.30957 1.55781 1.8125 2.4375.59909.89138 1.1135 1.84141 1.5 2.84375.30827.94828.48395 1.92145.625 2.90625.19051 1.03702.34872 2.0991.25 3.15625-.14578 1.5715-.30651 3.14619-.4375 4.71875-.0217.7843-.12135 1.62135.25 2.34375.88575.56065 1.94401.69175 2.96875.75.86591-.0236 1.72648-.22461 2.46875-.6875.31904-.16231.63392-.49478.46875-.875-.18667-1.01745-.40295-2.03142-.5-3.0625-.1344-1.15271-.25974-2.31102-.34375-3.46875-.099-1.09509-.14847-2.18257-.1875-3.28125.0322-1.00198.0767-2.03591.375-3 .32471-.94223.65194-2.18347 1.25-2.96875.85084-1.04281 2.1162-1.51624 3.09375-2.4375.82415-.71738 1.68863-1.38982 2.46875-2.15625.75889-.71303 1.63356-2.17099 2.3125-2.96875.7624-.80646 1.48992-.89854 2.21875-1.625.18969-.12973.38766-.25786.59375-.375.52915-.26792 1.04107-.57592 1.71875-.625.70029.0397 1.39399-.19008 2.09375-.0937.70007.0559 1.02933.72896 1.78125.65625.66535-.12321 1.35216-.12021 2.03125-.0625-.21541-.0835-.44604-.15445-.6875-.1875-.48981-.0904-.98368.0758-1.46875.0313-.63207-.054-.8309-.55639-1.375-.71875-.66242-.11588-1.35944.10128-2.03125.0625-.5382-.0737-1.05528.0455-1.59375.0313.76409-1.1233 1.44323-2.44724 2.25-3.375 1.3398-1.24472 2.98696-2.48222 4.03125-2.96875 1.39189-.64849 2.38459.15819 4.21875-.75-2.03978.86066-3.28052-.27726-5.6875 1.125-1.32634.76242-2.21246 1.18656-2.96875 1.71875-1.58811-1.34506-.70451-6.06166-2.09375-8.78125.0827-.0958.125-.20732.125-.34375 1.54418-.65828 3.85538-.62579 5.34375-.34375 1.80941.34285 1.14282.69721 2.0625.75.8083.0464 2.21338.8335 3.34375 1.28125 1.22261.48428 1.53834-.0211 3.84375 1.21875-1.65524-1.12051-3.34913-1.13223-3.59375-1.40625.7457-2.42944 3.79609-2.88736 5.0625-5.1875-1.76435 2.59269-4.05299 2.33985-5.28125 5.09375-1.22654-.34407-2.44261-.89298-3.0625-1.28125 1.49793-1.8748-1.68651-7.18964-1.78125-9-.11059 2.41309 2.83075 5.84705 1.25 8.8125-3.16781-1.25867-5.75024-.78886-7.4375-.40625-.0628-.0425-.14103-.0804-.21875-.0937-1.38487-2.04113-.95284-3.54566-2.5-5.78125.85981 2.03517 1.03075 4.21454 1.875 5.96875.0201.0419.0431.0827.0625.125-.0386.0749-.0625.16002-.0625.25 0 .22641.14749.41694.34375.5.92516 2.72077.58242 6.13236.8125 8.65625-2.33949-3.83923-5.15618-3.90227-6.78125-10.25 1.34906 7.76942 7.42824 8.46368 5.875 13.34375-1.18921 1.23925-3.11722 3.33597-4.03125 4.25-.76285.67868-1.59581 1.26835-2.4375 1.84375-.87643.65389-.79689 1.13319-1.71875 1.71875-.68733.46263-2.24808.96188-2.84375 1.4375-.77914.62211-1.21036 1.46972-1.875 2.3125-.35417.47917-1.23958.61458-1.5625 1.25-.32894-1.33239-1.28622-3.80883-3.09375-4.84375-.89341-.51154-1.89485-1.4387-2.625-2.21875-.16244-.16986-.32136-.31728-.5-.46875-1.2415-3.00067-1.37508-6.70906-1.65625-10.0625.097-.0922.17429-.19076.28125-.28125.53668-.40499 1.03141-.85932 1.9375-1.125 1.00361-.19673 1.64252.33535 2.6875.1875 1.01534-.18272 1.85205-1.06453 2.84375-1.375.83379-.32538 2.07498-.13823 3.0625-.3125-1.14808.056-2.26509-.14799-3.375.1875-.91936.16193-1.46612 1.11655-2.34375 1.15625-1.0076.1187-1.63048-.40688-2.59375-.21875-.80343.11401-1.45915.39725-2.21875.5625-.096-.0611-.4129.0496-.40625-.0625-.0616-.56577-.12813-1.12745-.21875-1.65625-.06-3.89672 4.27346-2.57015 5.15625-3.25.58133-.44768 3.85453-3.04945 6.75-3.65625-3.43517.61964-6.89928 3.23605-6.5625 2.40625.43039-1.06043.76035-7.91801 2.84375-10.375-3.23258 3.13778-1.93744 10.59758-4.28125 11.3125-1.14933.35058-3.94816-.0106-4.4375 1.375-.10489-.29885-.21204-.57258-.34375-.84375-.84843-1.74675-3.20807-3.66898-5.71875-5.84375-.24719-1.22331 1.70858-1.61353 1.90625-2.125.15296-.39577 2.42162-2.38883 3-3.6875-1.08179 1.42622-3.17911 3.22298-3.28125 2.71875-.13053-.6444-2.23183-4.07697-1.96875-5.90625-.63373 2.51321 2.51245 5.71105 1.53125 6.78125-.40432.441-1.56827 1.00067-1.8125 1.65625-1.21315-1.06576-2.41928-2.18039-3.53125-3.40625-3.25105-3.58405-5.7455-2.03174-14.3125-5.65625z"/></clipPath><filter id="l" color-interpolation-filters="sRGB"><feGaussianBlur stdDeviation=".594"/></filter><radialGradient id="m" cx="-172" cy="20.939" gradientTransform="matrix(1.1986271 0 0 1.0945536 178.16386 153.90715)" gradientUnits="userSpaceOnUse" r="15.857"><stop offset="0" stop-color="#fff"/><stop offset="1" stop-color="#fff" stop-opacity=".094488"/></radialGradient><linearGradient id="n" gradientUnits="userSpaceOnUse" x1="57.849732" x2="101.902732" y1="201.832985" y2="254.336985"><stop offset="0" stop-color="#254f8b"/><stop offset="1" stop-color="#bad1e8"/></linearGradient><linearGradient id="o" gradientUnits="userSpaceOnUse" x1="51.902428" x2="107.902428" y1="214.33333" y2="214.33333"><stop offset="0" stop-color="#949390"/><stop offset=".091" stop-color="#deddda"/><stop offset=".336" stop-color="#9a9996"/><stop offset=".844" stop-color="#c3c0ba"/><stop offset=".931" stop-color="#deddda"/><stop offset="1" stop-color="#c0bfbc"/></linearGradient><rect fill="#deddda" height="104.042" rx="8" width="104" x="12" y="19.958"/><rect fill="#f6f5f4" height="104.042" rx="8" width="104" x="12" y="11.958"/><circle cy="-.042" fill="#9059a1" r="0"/><g transform="translate(-51.90243 -168.042)"><g enable-background="new" transform="matrix(.62455971 .00018128 -.00018128 .62455971 216.91786 155.29473)"><path d="m-232.13 52.42h140.863v105.64h-140.863z" fill="url(#d)" transform="matrix(1 -.00004367 -.0000514 1 0 0)"/><g clip-path="url(#e)" transform="matrix(1.6374894 0 0 1.6374894 -358.40018 -645.93808)"><circle cx="110.795" cy="483.02802" fill="#b6cee7" filter="url(#f)" r="14.01" transform="matrix(1.71312 0 0 1.37852 -77.8045 -183.178)"/><circle cx="110.795" cy="483.02802" fill="#b6cee7" r="14.01" transform="matrix(1.14208 0 0 1.14208 -14.5363 -68.6555)"/><circle cx="110.795" cy="483.02802" fill="#e0eaf5" filter="url(#g)" r="14.01" transform="matrix(.994857 0 0 .994857 1.775 2.45615)"/></g><path d="m28.9999 47.93738c-5.0025 0-9.0625 4.06-9.0625 9.0625 0 .2919 0 .5902.031.875h18.0625c.027-.2848.031-.5831.031-.875 0-5.0025-4.06-9.0625-9.0625-9.0625h-.0001z" fill="#fff" filter="url(#h)" transform="matrix(1.6374894 0 0 1.6374894 -222.48839 51.632586)"/><path d="m-231.79575 146.34892c29.23207-5.5863 64.05407.18974 90.04032.25786l49.98787-4.96414.488348 16.42362-140.863158.006z" fill="url(#a)"/><g fill-rule="evenodd"><path d="m-213.63578 61.099208c8.10901 5.168243 16.53487 3.864474 22.61781 10.285398.34142.360575.68022.676938 1.02344 1.02343-1.49389.02162-5.50475-1.055688-9.51791-.358118-3.34048.58049-6.5927-.907661-10.54134 1.688579 4.59906-1.927161 8.28357-.682015 11.97415-1.176864 2.87706-.385792 7.95738.991828 11.20648 2.865607 5.23865 4.781468 9.93661 8.193015 10.89961 11.513515 1.23075 4.243228 1.52386 16.664895 1.58624 21.799085-.55626-.44868-1.08172-.92437-1.58624-1.43281-1.12839-1.16786-2.20684-2.41972-3.53091-3.37732-1.27216-.92256-2.59149-1.77013-3.6331-2.96794-1.08876-1.468678-2.36961-2.778836-3.582-4.144827-1.15591-1.182926-2.385-2.287076-3.47967-3.530917-1.00788-1.240228-2.18785-2.330473-3.58201-3.121388-1.27036-.774037-2.59182-1.642887-4.14497-1.586393-.77699-.129526-1.57003-.313089-2.14921-.869835-.97856-.723443-2.16852-1.168185-3.37732-1.279371l.20468.102347c1.49159.401021 2.75393 1.345198 3.94029 2.302801 1.35028.67301 3.06244.558546 4.14482 1.739826 1.15378 1.218459 2.88313 1.872631 3.7356 3.37732.34289.573453.73638 1.088278 1.17686 1.586236-1.15164.45687-2.25809 2.066522-3.07029 2.609832-2.12546 1.421838-7.54734-4.498998-12.28117-3.940291 3.41499-.07675 9.42409 4.107651 10.5926 4.452012.91437.269529-2.72871 3.444628-5.52653 4.963558 2.48472-.70625 6.51278-4.12189 7.26636-4.298417.94597-.221382 1.90292-3.18851 3.99138-2.763264.43704.462437.88391.937631 1.27921 1.432805 1.13494 1.277906 2.26922 2.522236 3.22388 3.940296 1.39449 1.73869 3.20081 3.07504 4.70778 4.70779 1.22338 1.27773 2.28447 2.69482 3.42842 4.04246 1.52827 1.84202 3.07733 3.68468 4.60544 5.52653.69019 1.42904 1.68956 2.63701 2.71217 3.83795 1.08991 1.2445 2.14446 2.55088 2.96794 3.99138.98103 1.45966 1.82335 3.01528 2.45624 4.65653.50484 1.55283.79238 3.14644 1.02343 4.75904.31194 1.69807.571 3.43725.40937 5.16824-.23874 2.57331-.50189 5.15186-.7164 7.72698-.036 1.28429-.19878 2.65487.40938 3.83779 1.45032.91814 3.18327 1.13281 4.86122 1.22811 1.41806-.0386 2.82711-.36777 4.04262-1.12577.52236-.26577 1.03801-.81006.7675-1.4328-.30556-1.66598-.65975-3.3264-.81875-5.01482-.22008-1.88753-.42525-3.78423-.5628-5.67995-.16212-1.79322-.24317-3.57399-.30703-5.3731.0523-1.6406.12608-3.33376.61406-4.91246.53169-1.54285 1.06747-3.5753 2.04686-4.86122 1.39317-1.70757 3.46525-2.48276 5.0659-3.99138 1.34962-1.17474 2.76523-2.27578 4.04264-3.53092 1.24269-1.16753 2.675-3.55499 3.78669-4.86121 1.24841-1.32064 2.43969-1.47129 3.6331-2.66092.31063-.21238.63485-.42231.97233-.61406.8664-.43869 1.70479-.94303 2.81435-1.02344 1.14674.065 2.28267-.31128 3.42858-.15343 1.14641.0916 1.68547 1.19357 2.9167 1.07453 1.08958-.20175 2.21421-.19683 3.32623-.10234-.35272-.13673-.73032-.25283-1.12578-.30703-.80204-.14803-1.6108.12412-2.40513.0513-1.0349-.0885-1.3606-.9111-2.25156-1.17686-1.08468-.18979-2.22601.16587-3.32607.10233-.8813-.12069-1.72803.0745-2.60983.0513 1.25121-1.8394 2.36339-4.00727 3.68436-5.52653 2.19391-2.038195 4.89117-4.064589 6.60121-4.861391 2.27922-1.061912 3.90475.259059 6.90807-1.228112-3.33999 1.409389-5.37178-.453909-9.31322 1.84218-2.1718 1.248579-3.62279 1.943034-4.86121 2.814514-2.6005-2.20259-1.15361-9.925969-3.42859-14.379285.13592-.156871.2047-.33945.2047-.562804 2.5286-1.07796 6.31318-1.024741 8.75041-.562969 2.96288.561495 1.87132 1.141821 3.37732 1.228116 1.32359.07598 3.62442 1.364849 5.47527 2.098116 2.00217.793035 2.51912-.03455 6.29419 1.995609-2.71037-1.834808-5.48412-1.853966-5.88481-2.302638 1.22108-3.97828 6.21608-4.728087 8.2898-8.494477-2.88903 4.245519-6.63658 3.831398-8.64792 8.34088-2.00839-.563296-3.99973-1.462114-5.01481-2.097951 2.4528-3.069965-2.76162-11.773058-2.91686-14.737405-.18094 3.951426 4.6354 9.5744 2.04686 14.430376-5.18724-2.061109-9.41589-1.291816-12.17883-.665313-.10316-.0696-.23088-.131654-.35811-.153432-2.26776-3.34228-1.5602-5.805883-4.09372-9.466653 1.40791 3.332618 1.68775 6.901198 3.07029 9.773682.0327.06861.0704.135421.10316.204686-.0622.122648-.10316.262162-.10316.409373 0 .370891.24153.682833.56281.818744 1.515 4.455281.95383 10.04174 1.33045 14.174595-3.83074-6.286647-8.44305-6.389965-11.10413-16.784256 2.20912 12.722312 12.16358 13.859211 9.62024 21.850165-1.9473 2.02934-5.10438 5.46267-6.60121 6.95933-1.24908 1.11136-2.61311 2.07699-3.99138 3.01921-1.43509 1.07075-1.30476 1.8556-2.81435 2.81435-1.12544.75767-3.68124 1.5751-4.65669 2.35389-1.27578 1.01869-1.98186 2.40678-3.07029 3.78669-.57984.78469-2.02968 1.00641-2.55859 2.04686-.53857-2.18162-2.10614-6.23686-5.0659-7.9315-1.46292-.83773-3.10287-2.35585-4.2984-3.63326-.26593-.27805-.52629-.51941-.81875-.76749-2.03295-4.91362-2.25171-10.98609-2.71217-16.47724.15883-.15098.28541-.312441.46063-.460625.87883-.663186 1.6889-1.407103 3.17262-1.84218 1.64339-.322094 2.68958.549208 4.40076.307028 1.66254-.299175 3.03263-1.743102 4.65653-2.251543 1.36534-.532685 3.39779-.226309 5.01481-.511721-1.87983.09167-3.70891-.242346-5.52653.307028-1.50534.265277-2.40072 1.828417-3.83778 1.89343-1.64993.194365-2.66993-.666289-4.24732-.358278-1.31555.186832-2.38926.650572-3.63309.921084-.15721-.100084-.67612.08125-.66532-.102335-.10151-.926319-.20976-1.8461-.35811-2.712001-.0982-6.380807 6.9978-4.208677 8.44322-5.321843.95203-.733104 6.31186-4.993524 11.05305-5.987152-5.62494 1.014752-11.29736 5.299079-10.74602 3.940291.70477-1.736394 1.24514-12.965641 4.65669-16.988952-5.29335 5.138114-3.17247 17.353457-7.01058 18.524098-1.88198.574104-6.46498-.01736-7.26636 2.251548-.17162-.489445-.34716-.937626-.56281-1.381713-1.38925-2.860203-5.25323-6.007785-9.36447-9.568997-.40463-2.003141 2.79781-2.642089 3.12154-3.479665.25053-.648119 3.96534-3.911635 4.91247-6.038242-1.77144 2.335387-5.20575 5.277628-5.37309 4.451843-.2137-1.055199-3.65455-6.675882-3.22373-9.671341-1.03768 4.115339 4.11403 9.351702 2.50732 11.104143-.66203.722133-2.56791 1.638636-2.96795 2.712174-1.98643-1.745236-3.96141-3.570382-5.7823-5.57778-5.32364-5.868763-9.4082-3.326888-23.43656-9.261968v-.000327z"/><path d="m-144.3134 148.03958c-1.29021.0787-2.57589.26691-3.32948 1.02343.0298.97497.75594 2.11433 1.33985 3.17264 1.17977 1.9491 2.37359 3.88528 3.57311 5.83356h6.45602c-.55506-1.25383-1.06816-2.53827-1.58361-3.7867-.60457-1.39154-1.06439-2.77161-1.54292-4.14482-.0546-.51318-.68851-.95793-1.2181-1.17702-1.29243-.62471-2.55303-.88915-3.69487-.92109z" fill="url(#i)" opacity=".797297"/><path clip-path="url(#k)" d="m80.40625 432.78125c4.95211 3.15625 10.09773 2.36004 13.8125 6.28125.16682.1761.33306.33512.5.5.47081.0642.86634.12875 1.125.125-.20957-.21165-.41647-.40488-.625-.625-3.01825-3.18598-6.9951-3.26716-11.03125-4.875-.03474-.0138-.059-.0484-.09375-.0625-1.10179-.36006-2.29362-.75403-3.6875-1.34375zm18.125.625c-.63373 2.51321 2.51245 5.71105 1.53125 6.78125-.28982.31612-.95433.69532-1.40625 1.125.12002.10757.25465.20603.375.3125.45504-.64981 1.60175-.96015 1.75-1.34375.0395-.1023.21224-.3176.46875-.59375.007-.15893-.013-.33834-.0625-.53125-.36749.24581-.65336.32478-.6875.15625-.13053-.6444-2.23183-4.07697-1.96875-5.90625zm15.125 3c-3.23258 3.13778-1.93744 10.59758-4.28125 11.3125-.87305.26631-2.67739.13373-3.71875.65625.10564.23081.1924.46561.28125.71875.48934-1.38565 3.28817-1.02442 4.4375-1.375.40212-.12266.70836-.4424.9375-.90625-.37324.16279-.58924.18863-.5-.0313.43039-1.06043.76035-7.91801 2.84375-10.375zm-9.875.1875c-.65633.8653-1.67467 1.86478-2.40625 2.40625.035.0884.11425.25945.125.3125.006.0315.01.0483.0313.0625.76016-.80336 1.86771-1.92287 2.25-2.78125zm31.15625 1.28125c-.10681 2.33068 2.61199 5.60659 1.375 8.5.1879.0583.37002.14826.5625.21875 1.03088-2.07763-1.84715-6.99222-1.9375-8.71875zm-44.09375 1.4375c-.58853-.002-1.19981.0498-1.8125.15625-.24454.0425-.47494.0811-.71875.0937.57324.0163 1.14758.006 1.71875-.0937.3802-.0661.75059-.10454 1.125-.125-.10937-.003-.20125-.031-.3125-.0313zm-4.90625.21875c-1.05294.0153-2.13802.17596-3.34375.96875.73581-.30835 1.4245-.46615 2.09375-.5625.66231-.25997 1.29099-.37458 1.90625-.40625-.21749-.006-.43522-.003-.65625 0zm5.6875.21875c-.16769-.002-.31622.0195-.46875.0313 1.75151.14017 4.01985.84237 5.59375 1.75 3.19912 2.92004 6.06811 5.00342 6.65625 7.03125.69343 2.39084.87982 8.89902.9375 12.375.0202.021.0422.0415.0625.0625.30813.3105.62898.60098.96875.875-.0381-3.13547-.21719-10.72125-.96875-13.3125-.58814-2.02783-3.45713-4.11121-6.65625-7.03125-1.7362-1.00123-4.32697-1.76239-6.125-1.78125zm-4.5.0625c.65921.0186 1.30134.0547 1.9375.0313-.6308-.0149-1.27239-.0416-1.9375-.0313zm38.90625.59375c.85981 2.03517 1.03075 4.21454 1.875 5.96875.0201.0419.0431.0827.0625.125-.0386.0749-.0625.16002-.0625.25 0 .22641.14749.41694.34375.5.75795 2.22902.68188 4.89913.75 7.1875.35884.43277.71896.90498 1.0625 1.46875-.081-.88874-.10567-1.89754-.125-2.9375-.22118-1.90879-.22993-4.24515-1.0625-5.875.0353-.0409.0733-.0777.0937-.125-.004-.008.004-.0227 0-.0313-.0255-.0612-.0625-.11723-.0625-.1875 0-.09.024-.17511.0625-.25-.0194-.0423-.0424-.0831-.0625-.125-.0198-.0411-.0434-.0834-.0625-.125-.0287.006-.0655.0249-.0937.0313-.0628-.0425-.14103-.0804-.21875-.0937-1.38487-2.04113-.95284-3.54566-2.5-5.78125zm19.03125 2.65625c-1.69758 2.49457-3.86818 2.37373-5.125 4.8125.0526.0186.10315.0444.15625.0625.89869-2.16469 3.75785-2.67569 4.96875-4.875zm-27.6875 1.3125c-2.19466.39587-4.28042 1.54971-5.5 2.15625-.0203.0759-.0419.19937-.0625.25-.0928.22874.15792.18098.5625 0 1.35368-.92023 3.20812-2.03073 5-2.40625zm4.90625 1.28125c1.34906 7.76942 7.42824 8.46368 5.875 13.34375-1.18921 1.23925-3.11722 3.33597-4.03125 4.25-.76285.67868-1.59581 1.26835-2.4375 1.84375-.87643.65389-.79689 1.13319-1.71875 1.71875-.68733.46263-2.24808.96188-2.84375 1.4375-.77914.62211-1.21036 1.46972-1.875 2.3125-.17709.23959-.47526.38932-.78125.5625.0747.23312.17111.49452.21875.6875.32292-.63542 1.20833-.77083 1.5625-1.25.66464-.84278 1.09586-1.69039 1.875-2.3125.59567-.47562 2.15642-.97487 2.84375-1.4375.92186-.58556.84232-1.06486 1.71875-1.71875.84169-.5754 1.67465-1.16507 2.4375-1.84375.91403-.91403 2.84204-3.01075 4.03125-4.25.39409-1.23817.2929-2.21057-.0937-3.09375-.005-.008.005-.0235 0-.0313-2.33668-3.81627-5.15947-3.88386-6.78125-10.21875zm9.625.21875c-.92497.006-1.69874.11176-2.40625.25.0135.0204.0173.042.0313.0625.0777.0133.1559.0513.21875.0937.73442-.16654 1.63943-.32515 2.6875-.375-.17873-.007-.35939-.0323-.53125-.0313zm.78125.34375c-.0732.003-.1456.0269-.21875.0313.67709.016 1.33761.0544 1.875.15625 1.80941.34285 1.14282.69721 2.0625.75.8083.0464 2.21338.8335 3.34375 1.28125 1.22261.48428 1.53834-.0211 3.84375 1.21875-1.65524-1.12051-3.34913-1.13223-3.59375-1.40625.0129-.0419.017-.0842.0313-.125-.0649-.0291-.12217-.0641-.1875-.0937-.0207.0437-.0423.0797-.0625.125-1.00669-.2824-1.9875-.7062-2.65625-1.0625-.18654-.0477-.28433-.1223-.40625-.21875-.0974-.077-.24506-.15717-.5-.25-.0108.0211-.02.0415-.0313.0625-.24588-.0977-.48007-.17228-.71875-.25-.0468-.01-.0744-.0217-.125-.0313-.74419-.14102-1.69938-.22641-2.65625-.1875zm-46.0625 2.03125.125.0625c.9109.24481 1.68179.8215 2.40625 1.40625.82464.41098 1.87022.34115 2.53125 1.0625.70456.74408 1.76065 1.14357 2.28125 2.0625.20942.35023.44974.66458.71875.96875-.70331.27896-1.37908 1.26201-1.875 1.59375-.0184.0123-.0433.0207-.0625.0313.26674.0829.5096.12431.71875.0937.35283-.4495.78212-.98745 1.375-1.09375.27247-.26266.5507-.50877.84375-.625-.26901-.30417-.50933-.61852-.71875-.96875-.5206-.91893-1.57669-1.31842-2.28125-2.0625-.66103-.72135-1.70661-.65152-2.53125-1.0625-.06827-.0551-.14958-.10156-.21875-.15625-.45456-.0788-.91165-.20596-1.25-.53125-.59769-.44175-1.32432-.71337-2.0625-.78125zm28.3125 3.0625c-.5615-.002-1.13254.0198-1.6875.1875-.8619.15181-1.40092.98682-2.1875 1.125.15712.0284.29573.0585.46875.0625.008-.004.0232.004.0313 0 .66399-.34171 1.29896-.84303 2-1.0625.29196-.11393.63652-.16173 1-.1875.45253-.0986.91776-.12668 1.375-.125-.33672-.005-.66726.001-1 0zm-6.28125 1.09375c-.11119.004-.22334.008-.34375.0313-.58666.0833-1.09791.25436-1.625.40625.003.0315-.003.0623 0 .0937-.007.11209.31024.001.40625.0625.72887-.15857 1.36514-.40917 2.125-.53125-.18386-.0329-.36151-.0695-.5625-.0625zm.75.375c-.11556.005-.24955.007-.375.0313.5303.0941 1.02742.28089 1.6875.1875.0423-.008.0833-.0213.125-.0313-.48738-.0785-.91748-.20805-1.4375-.1875zm-23.5625.1875c-.18337-.008-.35057.01-.53125.0313 2.08544-.0469 5.75517 2.50843 6.46875 2.71875.55836.16459-1.66639 2.10357-3.375 3.03125 1.32776-.37746 3.38761-2.02266 4.1875-2.5.01714-.0102.01528-.0221.03125-.0313.21446-.26888.31472-.45329.15625-.5-.0892-.0263-.23354-.0976-.40625-.1875-1.40032.064-4.06601-2.46133-6.53125-2.5625zm53.78125.0625c-.88641.37401-1.6291.38336-2.375.375.46305-.0347.90399-.0303 1.34375-.0313.31369-.0695.65846-.15916 1.03125-.34375zm-2.375.375c-.97055-.0109-1.9515-.0429-3.3125.75-.98526.56636-1.68584.93652-2.3125 1.3125.1001.15403.21261.29518.34375.40625.43285-.30459.95516-.58877 1.53125-.90625.0447-.0331.0806-.0614.125-.0937.66035-.48117 1.29197-.8658 1.78125-1.09375.34797-.16212.68254-.22024 1-.25.018-.004.0446.004.0625 0 .27556-.0643.52793-.10604.78125-.125zm-41.40625 1.03125c-.15346.0275-.30526.0776-.4375.15625.22223.23657.45596.46782.65625.71875.69303.78032 1.38577 1.54029 1.96875 2.40625.85162 1.06177 1.95474 1.87787 2.875 2.875.7471.7803 1.39506 1.64575 2.09375 2.46875.93323 1.12487 1.87928 2.25013 2.8125 3.375.42144.87267 1.03174 1.61036 1.65625 2.34375.66563.75999 1.30957 1.55781 1.8125 2.4375.59909.89138 1.1135 1.84141 1.5 2.84375.30827.94828.48395 1.92145.625 2.90625.19051 1.03702.34872 2.0991.25 3.15625-.14578 1.5715-.30651 3.14619-.4375 4.71875-.0217.7843-.12135 1.62135.25 2.34375.88575.56065 1.94401.69175 2.96875.75.15421-.004.31552-.0153.46875-.0313-.85535-.0774-1.70207-.25325-2.4375-.71875-.37135-.7224-.27171-1.55945-.25-2.34375.13099-1.57256.29172-3.14725.4375-4.71875.0987-1.05715-.0595-2.11923-.25-3.15625-.14105-.9848-.31673-1.95797-.625-2.90625-.3865-1.00234-.90091-1.95237-1.5-2.84375-.50293-.87969-1.14687-1.67751-1.8125-2.4375-.62451-.73339-1.23481-1.47108-1.65625-2.34375-.93322-1.12487-1.87927-2.25013-2.8125-3.375-.69869-.823-1.34665-1.68845-2.09375-2.46875-.92026-.99713-2.02338-1.81323-2.875-2.875-.58298-.86596-1.27572-1.62593-1.96875-2.40625-.24141-.30245-.51438-.59268-.78125-.875-.15942-.0325-.29833-.0249-.4375 0zm36.40625 5.5625c-.27801.006-.56326.0349-.84375.0625.10242.002.20882.017.3125.0313.3359.0194.69022-.0275 1.03125-.0625-.1656-.029-.331-.0347-.5-.0313zm-2.09375.0625c-.0128.019-.0184.0436-.0313.0625.19686.005.40053-.0167.59375-.0313-.19023-.0261-.37567-.039-.5625-.0313zm2.78125.21875c-.14219.006-.2642.0468-.40625.0625.65402.0921.99171.6953 1.71875.625.16682-.0309.33094-.0464.5-.0625-.11167-.0407-.21151-.0958-.3125-.15625-.10595.005-.20725.01-.3125 0-.40936-.035-.64885-.24056-.90625-.4375-.0927-.004-.18865-.0352-.28125-.0313zm2.28125.40625c-.072.001-.14679.0254-.21875.0313.0432.009.0772.0272.125.0313.15833.0145.30899-.0171.46875-.0313-.12245-.0226-.25224-.0334-.375-.0313zm.96875.1875c-.0641.002-.12357.0276-.1875.0313.0927.006.18873-.008.28125 0-.0298-.0116-.0634-.0202-.0937-.0313z" fill="#729fcf" filter="url(#l)" opacity=".491532" transform="matrix(1.6374894 0 0 1.6374894 -343.66276 -647.57558)"/></g><path d="m-231.79575 146.34892c29.23207-5.5863 64.05407.18974 90.04032.25786l49.98787-4.96414.488348 16.42362-140.863158.006z" fill="url(#b)"/></g><path d="m159.8825 246.39473.0195-58.37304-23.07813-.006-13.74023 32.99218c1.57253 2.9629 36.23654 25.02884 36.79883 25.38672z" fill="url(#c)" opacity=".263158"/><path d="m131.9489 188.01583-44.417965-.0117c7.184105 14.58469 20.082895 19.62304 29.871095 29.85742z" fill="url(#c)" opacity=".263158"/><g enable-background="new" transform="matrix(.62455971 .00018128 -.00018128 .62455971 216.91786 155.29473)"><g clip-path="url(#e)" transform="matrix(1.6374894 0 0 1.6374894 -358.40018 -645.93808)"><circle cx="110.795" cy="483.02802" fill="#b6cee7" filter="url(#f)" r="14.01" transform="matrix(1.71312 0 0 1.37852 -77.8045 -183.178)"/><circle cx="110.795" cy="483.02802" fill="#b6cee7" r="14.01" transform="matrix(1.14208 0 0 1.14208 -14.5363 -68.6555)"/><circle cx="110.795" cy="483.02802" fill="#e0eaf5" filter="url(#g)" r="14.01" transform="matrix(.994857 0 0 .994857 1.775 2.45615)"/></g><path d="m28.9999 47.93738c-5.0025 0-9.0625 4.06-9.0625 9.0625 0 .2919 0 .5902.031.875h18.0625c.027-.2848.031-.5831.031-.875 0-5.0025-4.06-9.0625-9.0625-9.0625h-.0001z" fill="#fff" filter="url(#h)" transform="matrix(1.6374894 0 0 1.6374894 -222.48839 51.632586)"/><path d="m-231.79575 146.34892c29.23207-5.5863 64.05407.18974 90.04032.25786l49.98787-4.96414.488348 16.42362-140.863158.006z" fill="url(#a)"/><path d="m-213.63578 61.099208c8.10901 5.168243 16.53487 3.864474 22.61781 10.285398.34142.360575.68022.676938 1.02344 1.02343-1.49389.02162-5.50475-1.055688-9.51791-.358118-3.34048.58049-6.5927-.907661-10.54134 1.688579 4.59906-1.927161 8.28357-.682015 11.97415-1.176864 2.87706-.385792 7.95738.991828 11.20648 2.865607 5.23865 4.781468 9.93661 8.193015 10.89961 11.513515 1.23075 4.243228 1.52386 16.664895 1.58624 21.799085-.55626-.44868-1.08172-.92437-1.58624-1.43281-1.12839-1.16786-2.20684-2.41972-3.53091-3.37732-1.27216-.92256-2.59149-1.77013-3.6331-2.96794-1.08876-1.468678-2.36961-2.778836-3.582-4.144827-1.15591-1.182926-2.385-2.287076-3.47967-3.530917-1.00788-1.240228-2.18785-2.330473-3.58201-3.121388-1.27036-.774037-2.59182-1.642887-4.14497-1.586393-.77699-.129526-1.57003-.313089-2.14921-.869835-.97856-.723443-2.16852-1.168185-3.37732-1.279371l.20468.102347c1.49159.401021 2.75393 1.345198 3.94029 2.302801 1.35028.67301 3.06244.558546 4.14482 1.739826 1.15378 1.218459 2.88313 1.872631 3.7356 3.37732.34289.573453.73638 1.088278 1.17686 1.586236-1.15164.45687-2.25809 2.066522-3.07029 2.609832-2.12546 1.421838-7.54734-4.498998-12.28117-3.940291 3.41499-.07675 9.42409 4.107651 10.5926 4.452012.91437.269529-2.72871 3.444628-5.52653 4.963558 2.48472-.70625 6.51278-4.12189 7.26636-4.298417.94597-.221382 1.90292-3.18851 3.99138-2.763264.43704.462437.88391.937631 1.27921 1.432805 1.13494 1.277906 2.26922 2.522236 3.22388 3.940296 1.39449 1.73869 3.20081 3.07504 4.70778 4.70779 1.22338 1.27773 2.28447 2.69482 3.42842 4.04246 1.52827 1.84202 3.07733 3.68468 4.60544 5.52653.69019 1.42904 1.68956 2.63701 2.71217 3.83795 1.08991 1.2445 2.14446 2.55088 2.96794 3.99138.98103 1.45966 1.82335 3.01528 2.45624 4.65653.50484 1.55283.79238 3.14644 1.02343 4.75904.31194 1.69807.571 3.43725.40937 5.16824-.23874 2.57331-.50189 5.15186-.7164 7.72698-.036 1.28429-.19878 2.65487.40938 3.83779 1.45032.91814 3.18327 1.13281 4.86122 1.22811 1.41806-.0386 2.82711-.36777 4.04262-1.12577.52236-.26577 1.03801-.81006.7675-1.4328-.30556-1.66598-.65975-3.3264-.81875-5.01482-.22008-1.88753-.42525-3.78423-.5628-5.67995-.16212-1.79322-.24317-3.57399-.30703-5.3731.0523-1.6406.12608-3.33376.61406-4.91246.53169-1.54285 1.06747-3.5753 2.04686-4.86122 1.39317-1.70757 3.46525-2.48276 5.0659-3.99138 1.34962-1.17474 2.76523-2.27578 4.04264-3.53092 1.24269-1.16753 2.675-3.55499 3.78669-4.86121 1.24841-1.32064 2.43969-1.47129 3.6331-2.66092.31063-.21238.63485-.42231.97233-.61406.8664-.43869 1.70479-.94303 2.81435-1.02344 1.14674.065 2.28267-.31128 3.42858-.15343 1.14641.0916 1.68547 1.19357 2.9167 1.07453 1.08958-.20175 2.21421-.19683 3.32623-.10234-.35272-.13673-.73032-.25283-1.12578-.30703-.80204-.14803-1.6108.12412-2.40513.0513-1.0349-.0885-1.3606-.9111-2.25156-1.17686-1.08468-.18979-2.22601.16587-3.32607.10233-.8813-.12069-1.72803.0745-2.60983.0513 1.25121-1.8394 2.36339-4.00727 3.68436-5.52653 2.19391-2.038195 4.89117-4.064589 6.60121-4.861391 2.27922-1.061912 3.90475.259059 6.90807-1.228112-3.33999 1.409389-5.37178-.453909-9.31322 1.84218-2.1718 1.248579-3.62279 1.943034-4.86121 2.814514-2.6005-2.20259-1.15361-9.925969-3.42859-14.379285.13592-.156871.2047-.33945.2047-.562804 2.5286-1.07796 6.31318-1.024741 8.75041-.562969 2.96288.561495 1.87132 1.141821 3.37732 1.228116 1.32359.07598 3.62442 1.364849 5.47527 2.098116 2.00217.793035 2.51912-.03455 6.29419 1.995609-2.71037-1.834808-5.48412-1.853966-5.88481-2.302638 1.22108-3.97828 6.21608-4.728087 8.2898-8.494477-2.88903 4.245519-6.63658 3.831398-8.64792 8.34088-2.00839-.563296-3.99973-1.462114-5.01481-2.097951 2.4528-3.069965-2.76162-11.773058-2.91686-14.737405-.18094 3.951426 4.6354 9.5744 2.04686 14.430376-5.18724-2.061109-9.41589-1.291816-12.17883-.665313-.10316-.0696-.23088-.131654-.35811-.153432-2.26776-3.34228-1.5602-5.805883-4.09372-9.466653 1.40791 3.332618 1.68775 6.901198 3.07029 9.773682.0327.06861.0704.135421.10316.204686-.0622.122648-.10316.262162-.10316.409373 0 .370891.24153.682833.56281.818744 1.515 4.455281.95383 10.04174 1.33045 14.174595-3.83074-6.286647-8.44305-6.389965-11.10413-16.784256 2.20912 12.722312 12.16358 13.859211 9.62024 21.850165-1.9473 2.02934-5.10438 5.46267-6.60121 6.95933-1.24908 1.11136-2.61311 2.07699-3.99138 3.01921-1.43509 1.07075-1.30476 1.8556-2.81435 2.81435-1.12544.75767-3.68124 1.5751-4.65669 2.35389-1.27578 1.01869-1.98186 2.40678-3.07029 3.78669-.57984.78469-2.02968 1.00641-2.55859 2.04686-.53857-2.18162-2.10614-6.23686-5.0659-7.9315-1.46292-.83773-3.10287-2.35585-4.2984-3.63326-.26593-.27805-.52629-.51941-.81875-.76749-2.03295-4.91362-2.25171-10.98609-2.71217-16.47724.15883-.15098.28541-.312441.46063-.460625.87883-.663186 1.6889-1.407103 3.17262-1.84218 1.64339-.322094 2.68958.549208 4.40076.307028 1.66254-.299175 3.03263-1.743102 4.65653-2.251543 1.36534-.532685 3.39779-.226309 5.01481-.511721-1.87983.09167-3.70891-.242346-5.52653.307028-1.50534.265277-2.40072 1.828417-3.83778 1.89343-1.64993.194365-2.66993-.666289-4.24732-.358278-1.31555.186832-2.38926.650572-3.63309.921084-.15721-.100084-.67612.08125-.66532-.102335-.10151-.926319-.20976-1.8461-.35811-2.712001-.0982-6.380807 6.9978-4.208677 8.44322-5.321843.95203-.733104 6.31186-4.993524 11.05305-5.987152-5.62494 1.014752-11.29736 5.299079-10.74602 3.940291.70477-1.736394 1.24514-12.965641 4.65669-16.988952-5.29335 5.138114-3.17247 17.353457-7.01058 18.524098-1.88198.574104-6.46498-.01736-7.26636 2.251548-.17162-.489445-.34716-.937626-.56281-1.381713-1.38925-2.860203-5.25323-6.007785-9.36447-9.568997-.40463-2.003141 2.79781-2.642089 3.12154-3.479665.25053-.648119 3.96534-3.911635 4.91247-6.038242-1.77144 2.335387-5.20575 5.277628-5.37309 4.451843-.2137-1.055199-3.65455-6.675882-3.22373-9.671341-1.03768 4.115339 4.11403 9.351702 2.50732 11.104143-.66203.722133-2.56791 1.638636-2.96795 2.712174-1.98643-1.745236-3.96141-3.570382-5.7823-5.57778-5.32364-5.868763-9.4082-3.326888-23.43656-9.261968v-.000327z" fill-rule="evenodd"/><path clip-path="url(#k)" d="m80.40625 432.78125c4.95211 3.15625 10.09773 2.36004 13.8125 6.28125.16682.1761.33306.33512.5.5.47081.0642.86634.12875 1.125.125-.20957-.21165-.41647-.40488-.625-.625-3.01825-3.18598-6.9951-3.26716-11.03125-4.875-.03474-.0138-.059-.0484-.09375-.0625-1.10179-.36006-2.29362-.75403-3.6875-1.34375zm18.125.625c-.63373 2.51321 2.51245 5.71105 1.53125 6.78125-.28982.31612-.95433.69532-1.40625 1.125.12002.10757.25465.20603.375.3125.45504-.64981 1.60175-.96015 1.75-1.34375.0395-.1023.21224-.3176.46875-.59375.007-.15893-.013-.33834-.0625-.53125-.36749.24581-.65336.32478-.6875.15625-.13053-.6444-2.23183-4.07697-1.96875-5.90625zm15.125 3c-3.23258 3.13778-1.93744 10.59758-4.28125 11.3125-.87305.26631-2.67739.13373-3.71875.65625.10564.23081.1924.46561.28125.71875.48934-1.38565 3.28817-1.02442 4.4375-1.375.40212-.12266.70836-.4424.9375-.90625-.37324.16279-.58924.18863-.5-.0313.43039-1.06043.76035-7.91801 2.84375-10.375zm-9.875.1875c-.65633.8653-1.67467 1.86478-2.40625 2.40625.035.0884.11425.25945.125.3125.006.0315.01.0483.0313.0625.76016-.80336 1.86771-1.92287 2.25-2.78125zm31.15625 1.28125c-.10681 2.33068 2.61199 5.60659 1.375 8.5.1879.0583.37002.14826.5625.21875 1.03088-2.07763-1.84715-6.99222-1.9375-8.71875zm-44.09375 1.4375c-.58853-.002-1.19981.0498-1.8125.15625-.24454.0425-.47494.0811-.71875.0937.57324.0163 1.14758.006 1.71875-.0937.3802-.0661.75059-.10454 1.125-.125-.10937-.003-.20125-.031-.3125-.0313zm-4.90625.21875c-1.05294.0153-2.13802.17596-3.34375.96875.73581-.30835 1.4245-.46615 2.09375-.5625.66231-.25997 1.29099-.37458 1.90625-.40625-.21749-.006-.43522-.003-.65625 0zm5.6875.21875c-.16769-.002-.31622.0195-.46875.0313 1.75151.14017 4.01985.84237 5.59375 1.75 3.19912 2.92004 6.06811 5.00342 6.65625 7.03125.69343 2.39084.87982 8.89902.9375 12.375.0202.021.0422.0415.0625.0625.30813.3105.62898.60098.96875.875-.0381-3.13547-.21719-10.72125-.96875-13.3125-.58814-2.02783-3.45713-4.11121-6.65625-7.03125-1.7362-1.00123-4.32697-1.76239-6.125-1.78125zm-4.5.0625c.65921.0186 1.30134.0547 1.9375.0313-.6308-.0149-1.27239-.0416-1.9375-.0313zm38.90625.59375c.85981 2.03517 1.03075 4.21454 1.875 5.96875.0201.0419.0431.0827.0625.125-.0386.0749-.0625.16002-.0625.25 0 .22641.14749.41694.34375.5.75795 2.22902.68188 4.89913.75 7.1875.35884.43277.71896.90498 1.0625 1.46875-.081-.88874-.10567-1.89754-.125-2.9375-.22118-1.90879-.22993-4.24515-1.0625-5.875.0353-.0409.0733-.0777.0937-.125-.004-.008.004-.0227 0-.0313-.0255-.0612-.0625-.11723-.0625-.1875 0-.09.024-.17511.0625-.25-.0194-.0423-.0424-.0831-.0625-.125-.0198-.0411-.0434-.0834-.0625-.125-.0287.006-.0655.0249-.0937.0313-.0628-.0425-.14103-.0804-.21875-.0937-1.38487-2.04113-.95284-3.54566-2.5-5.78125zm19.03125 2.65625c-1.69758 2.49457-3.86818 2.37373-5.125 4.8125.0526.0186.10315.0444.15625.0625.89869-2.16469 3.75785-2.67569 4.96875-4.875zm-27.6875 1.3125c-2.19466.39587-4.28042 1.54971-5.5 2.15625-.0203.0759-.0419.19937-.0625.25-.0928.22874.15792.18098.5625 0 1.35368-.92023 3.20812-2.03073 5-2.40625zm4.90625 1.28125c1.34906 7.76942 7.42824 8.46368 5.875 13.34375-1.18921 1.23925-3.11722 3.33597-4.03125 4.25-.76285.67868-1.59581 1.26835-2.4375 1.84375-.87643.65389-.79689 1.13319-1.71875 1.71875-.68733.46263-2.24808.96188-2.84375 1.4375-.77914.62211-1.21036 1.46972-1.875 2.3125-.17709.23959-.47526.38932-.78125.5625.0747.23312.17111.49452.21875.6875.32292-.63542 1.20833-.77083 1.5625-1.25.66464-.84278 1.09586-1.69039 1.875-2.3125.59567-.47562 2.15642-.97487 2.84375-1.4375.92186-.58556.84232-1.06486 1.71875-1.71875.84169-.5754 1.67465-1.16507 2.4375-1.84375.91403-.91403 2.84204-3.01075 4.03125-4.25.39409-1.23817.2929-2.21057-.0937-3.09375-.005-.008.005-.0235 0-.0313-2.33668-3.81627-5.15947-3.88386-6.78125-10.21875zm9.625.21875c-.92497.006-1.69874.11176-2.40625.25.0135.0204.0173.042.0313.0625.0777.0133.1559.0513.21875.0937.73442-.16654 1.63943-.32515 2.6875-.375-.17873-.007-.35939-.0323-.53125-.0313zm.78125.34375c-.0732.003-.1456.0269-.21875.0313.67709.016 1.33761.0544 1.875.15625 1.80941.34285 1.14282.69721 2.0625.75.8083.0464 2.21338.8335 3.34375 1.28125 1.22261.48428 1.53834-.0211 3.84375 1.21875-1.65524-1.12051-3.34913-1.13223-3.59375-1.40625.0129-.0419.017-.0842.0313-.125-.0649-.0291-.12217-.0641-.1875-.0937-.0207.0437-.0423.0797-.0625.125-1.00669-.2824-1.9875-.7062-2.65625-1.0625-.18654-.0477-.28433-.1223-.40625-.21875-.0974-.077-.24506-.15717-.5-.25-.0108.0211-.02.0415-.0313.0625-.24588-.0977-.48007-.17228-.71875-.25-.0468-.01-.0744-.0217-.125-.0313-.74419-.14102-1.69938-.22641-2.65625-.1875zm-46.0625 2.03125.125.0625c.9109.24481 1.68179.8215 2.40625 1.40625.82464.41098 1.87022.34115 2.53125 1.0625.70456.74408 1.76065 1.14357 2.28125 2.0625.20942.35023.44974.66458.71875.96875-.70331.27896-1.37908 1.26201-1.875 1.59375-.0184.0123-.0433.0207-.0625.0313.26674.0829.5096.12431.71875.0937.35283-.4495.78212-.98745 1.375-1.09375.27247-.26266.5507-.50877.84375-.625-.26901-.30417-.50933-.61852-.71875-.96875-.5206-.91893-1.57669-1.31842-2.28125-2.0625-.66103-.72135-1.70661-.65152-2.53125-1.0625-.06827-.0551-.14958-.10156-.21875-.15625-.45456-.0788-.91165-.20596-1.25-.53125-.59769-.44175-1.32432-.71337-2.0625-.78125zm28.3125 3.0625c-.5615-.002-1.13254.0198-1.6875.1875-.8619.15181-1.40092.98682-2.1875 1.125.15712.0284.29573.0585.46875.0625.008-.004.0232.004.0313 0 .66399-.34171 1.29896-.84303 2-1.0625.29196-.11393.63652-.16173 1-.1875.45253-.0986.91776-.12668 1.375-.125-.33672-.005-.66726.001-1 0zm-6.28125 1.09375c-.11119.004-.22334.008-.34375.0313-.58666.0833-1.09791.25436-1.625.40625.003.0315-.003.0623 0 .0937-.007.11209.31024.001.40625.0625.72887-.15857 1.36514-.40917 2.125-.53125-.18386-.0329-.36151-.0695-.5625-.0625zm.75.375c-.11556.005-.24955.007-.375.0313.5303.0941 1.02742.28089 1.6875.1875.0423-.008.0833-.0213.125-.0313-.48738-.0785-.91748-.20805-1.4375-.1875zm-23.5625.1875c-.18337-.008-.35057.01-.53125.0313 2.08544-.0469 5.75517 2.50843 6.46875 2.71875.55836.16459-1.66639 2.10357-3.375 3.03125 1.32776-.37746 3.38761-2.02266 4.1875-2.5.01714-.0102.01528-.0221.03125-.0313.21446-.26888.31472-.45329.15625-.5-.0892-.0263-.23354-.0976-.40625-.1875-1.40032.064-4.06601-2.46133-6.53125-2.5625zm53.78125.0625c-.88641.37401-1.6291.38336-2.375.375.46305-.0347.90399-.0303 1.34375-.0313.31369-.0695.65846-.15916 1.03125-.34375zm-2.375.375c-.97055-.0109-1.9515-.0429-3.3125.75-.98526.56636-1.68584.93652-2.3125 1.3125.1001.15403.21261.29518.34375.40625.43285-.30459.95516-.58877 1.53125-.90625.0447-.0331.0806-.0614.125-.0937.66035-.48117 1.29197-.8658 1.78125-1.09375.34797-.16212.68254-.22024 1-.25.018-.004.0446.004.0625 0 .27556-.0643.52793-.10604.78125-.125zm-41.40625 1.03125c-.15346.0275-.30526.0776-.4375.15625.22223.23657.45596.46782.65625.71875.69303.78032 1.38577 1.54029 1.96875 2.40625.85162 1.06177 1.95474 1.87787 2.875 2.875.7471.7803 1.39506 1.64575 2.09375 2.46875.93323 1.12487 1.87928 2.25013 2.8125 3.375.42144.87267 1.03174 1.61036 1.65625 2.34375.66563.75999 1.30957 1.55781 1.8125 2.4375.59909.89138 1.1135 1.84141 1.5 2.84375.30827.94828.48395 1.92145.625 2.90625.19051 1.03702.34872 2.0991.25 3.15625-.14578 1.5715-.30651 3.14619-.4375 4.71875-.0217.7843-.12135 1.62135.25 2.34375.88575.56065 1.94401.69175 2.96875.75.15421-.004.31552-.0153.46875-.0313-.85535-.0774-1.70207-.25325-2.4375-.71875-.37135-.7224-.27171-1.55945-.25-2.34375.13099-1.57256.29172-3.14725.4375-4.71875.0987-1.05715-.0595-2.11923-.25-3.15625-.14105-.9848-.31673-1.95797-.625-2.90625-.3865-1.00234-.90091-1.95237-1.5-2.84375-.50293-.87969-1.14687-1.67751-1.8125-2.4375-.62451-.73339-1.23481-1.47108-1.65625-2.34375-.93322-1.12487-1.87927-2.25013-2.8125-3.375-.69869-.823-1.34665-1.68845-2.09375-2.46875-.92026-.99713-2.02338-1.81323-2.875-2.875-.58298-.86596-1.27572-1.62593-1.96875-2.40625-.24141-.30245-.51438-.59268-.78125-.875-.15942-.0325-.29833-.0249-.4375 0zm36.40625 5.5625c-.27801.006-.56326.0349-.84375.0625.10242.002.20882.017.3125.0313.3359.0194.69022-.0275 1.03125-.0625-.1656-.029-.331-.0347-.5-.0313zm-2.09375.0625c-.0128.019-.0184.0436-.0313.0625.19686.005.40053-.0167.59375-.0313-.19023-.0261-.37567-.039-.5625-.0313zm2.78125.21875c-.14219.006-.2642.0468-.40625.0625.65402.0921.99171.6953 1.71875.625.16682-.0309.33094-.0464.5-.0625-.11167-.0407-.21151-.0958-.3125-.15625-.10595.005-.20725.01-.3125 0-.40936-.035-.64885-.24056-.90625-.4375-.0927-.004-.18865-.0352-.28125-.0313zm2.28125.40625c-.072.001-.14679.0254-.21875.0313.0432.009.0772.0272.125.0313.15833.0145.30899-.0171.46875-.0313-.12245-.0226-.25224-.0334-.375-.0313zm.96875.1875c-.0641.002-.12357.0276-.1875.0313.0927.006.18873-.008.28125 0-.0298-.0116-.0634-.0202-.0937-.0313z" fill="#729fcf" fill-rule="evenodd" filter="url(#l)" opacity=".491532" transform="matrix(1.6374894 0 0 1.6374894 -343.66276 -647.57558)"/><path d="m-231.79575 146.34892c29.23207-5.5863 64.05407.18974 90.04032.25786l49.98787-4.96414.488348 16.42362-140.863158.006z" fill="url(#b)"/></g><path d="m79.804774 202.09766c-14.359403 0-26 11.6406-26 26 .0094 2.07202.266411.13548.765625 2.14648 2.686042-11.83218 13.198801-20.23347 25.332031-20.24414 11.981122.0132 22.40201 8.21199 25.23438 19.85352.43642-1.88774.66047.18166.66796-1.75586 0-14.3594-11.640594-26-25.999996-26zm-27.902344 23.90234v8c0 15.46397 12.536034 28 28 28 15.46397 0 28-12.53603 28-28v-8c0 7.1509-2.68447 13.074-7.0957 17.37891-4.885 6.72441-12.690471 10.70808-21.001956 10.71875-8.608416-.01-16.653796-4.28029-21.486328-11.4043-4.006862-4.2395-6.416016-9.91612-6.416016-16.69336z" fill="url(#o)"/><ellipse cx="80.708" cy="230.23199" fill="url(#n)" rx="25.073999" ry="22.372999"/><g enable-background="new" transform="matrix(1.3020833 0 0 1.3020833 116.61189 -27.008332)"><path d="m-27.999999 179.7184c-9.649942.009-17.790289 7.43348-19.007134 17.335 1.197386 9.91882 9.343034 17.36654 19.007134 17.37859 9.649942-.009 17.790289-7.43348 19.0071335-17.33499-1.1973855-9.91882-9.3430345-17.36654-19.0071335-17.3786z" fill="url(#m)"/><path d="m-28.192866 177.4144c-10.603867 0-19.2 8.59613-19.2 19.2.0077.79575.06482 1.39825.171094 2.1869 0-9.0989 9.36791-16.76992 19.028906-16.7789 9.67517.0117 19.028906 7.68 19.028906 16.8211.1080352-.80261.1651807-1.41927.171094-2.2291 0-10.60387-8.596133-19.2-19.2-19.2z" fill="#453637" opacity=".1"/></g><circle cx="79.902" cy="228" fill="none" r="26" stroke="#f6f5f4" stroke-linecap="square" stroke-linejoin="round" stroke-width="4"/><g fill="#f6f5f4"><circle cx="101.902" cy="206" r="6"/><path d="m101.90243 212 6-6v22h-3z"/><path d="m95.90243 206 6-6h-22v3z"/></g><circle cx="102.902" cy="205" fill="#c0bfbc" r="2"/></g></svg>