<svg height="128" width="128" xmlns="http://www.w3.org/2000/svg"><g fill="#010101" opacity=".3" transform="translate(0 2)"><path d="m64.499999 11a52.000577 51.999354 0 0 0 -51.999999 51.998777 52.000577 51.999354 0 0 0 6.989812 25.912719l-6.989812 26.088504 26.064697-6.98477a52.000577 51.999354 0 0 0 25.935302 6.98477 52.000577 51.999354 0 0 0 52.000001-52.001223 52.000577 51.999354 0 0 0 -52.000001-51.998777z" stroke-width="2.599998"/><path d="m64.933594 10.99999c-2.885288.000249-5.772932.237066-8.623047.718682l.693359 4.099224c2.615926-.442042 5.271772-.659864 7.929688-.660094zm3.908203.14647-.310547 4.146094c2.648382.198157 5.279441.617497 7.853516 1.257695l1.003906-4.034776c-2.80536-.697722-5.667615-1.153582-8.546875-1.369013zm-16.767578 1.470565c-2.797916.718157-5.535736 1.673351-8.173829 2.855201l1.699219 3.792612c2.420734-1.084475 4.936575-1.960873 7.507813-2.620848zm29.46875 1.117083-1.335938 3.93713c2.51247.853333 4.953572 1.92001 7.287109 3.185247l1.980469-3.653953c-2.539471-1.376894-5.195249-2.539038-7.93164-3.468424zm-41.515625 3.669577c-2.52965 1.395822-4.940785 3.005603-7.199219 4.806188l2.591797 3.249695c2.075577-1.6548 4.291669-3.133493 6.615234-4.4156zm53.164062 2.021294-2.279297 3.476236c2.22001 1.455866 4.317789 3.099299 6.263672 4.905789l2.830079-3.046589c-2.116453-1.96484-4.399144-3.751493-6.814454-5.335436zm-63.632812 5.620566c-2.102414 1.980185-4.037908 4.136417-5.779297 6.4408l3.316406 2.505624c1.600343-2.117736 3.37999-4.10116 5.3125-5.921319zm73.494146 2.7888-3.072271 2.800517c1.789621 1.961506 3.415401 4.073664 4.851561 6.306049l3.4961-2.247836c-1.5628-2.429227-3.32906-4.725467-5.27539-6.85873zm-81.738287 7.21026c-1.545494 2.440652-2.884654 5.011676-3.996094 7.678965l3.837891 1.59946c1.020471-2.448978 2.252078-4.813828 3.671875-7.055978zm89.203127 3.384447-3.67188 1.949035c1.24502 2.344033 2.29113 4.794564 3.1211 7.313766l3.94922-1.300659c-.90443-2.745208-2.04349-5.411139-3.39844-7.962142zm-94.695314 8.356636c-.885153 2.751069-1.534536 5.576632-1.941407 8.436707l4.115235.585883c.37376-2.627328.970685-5.223954 1.783203-7.749272zm99.275394 3.769178-4.04297.968659c.61757 2.579578 1.01513 5.213229 1.18945 7.862542l4.14844-.273413c-.18958-2.881289-.62199-5.746927-1.29492-8.557788zm-101.648441 8.971812c-.17356 2.889317-.09091 5.78667.230468 8.655437l4.132813-.460895c-.295685-2.639422-.371712-5.302554-.212891-7.946518zm98.892581 3.845342c-.0424 2.655371-.30652 5.307376-.79297 7.915271l4.08789.761647c.5299-2.840839.81724-5.724124.86328-8.610518zm-93.921878 8.284377-4.078125.804613c.560208 2.833663 1.359218 5.62009 2.386719 8.31953l3.886718-1.478376c-.944283-2.480814-1.68053-5.041876-2.195312-7.645767zm92.236328 3.511389c-.70114 2.557752-1.62337 5.057513-2.74805 7.462189l3.76758 1.761553c1.22356-2.616098 2.226-5.336296 2.99024-8.124236zm-88.470703 7.79419-3.748047 1.796706c.443661.926178.937657 1.824441 1.435547 2.720447l-.953125 3.562165 4.015625 1.076071 1.386719-5.181154-.431641-.746024c-.610219-1.055179-1.179846-2.131747-1.705078-3.228211zm83.886723 3.200871c-1.32306 2.301668-2.84018 4.491843-4.5293 6.5404l3.20703 2.644282c1.83725-2.228206 3.48838-4.610571 4.92774-7.114565zm-88.22852 8.893695-2.152344 8.030498 4.015625 1.07607 2.152344-8.030497zm81.039062.613223c-1.853779 1.901354-3.86734 3.646685-6.011718 5.212405l2.451172 3.3571c2.332495-1.70307 4.521291-3.60183 6.537114-5.669387zm-9.322265 7.425085c-2.26747 1.38118-4.651326 2.57172-7.117188 3.55045l1.533203 3.86291c2.686417-1.06627 5.279607-2.36052 7.746094-3.86291zm-49.019531.0879-5.964844 1.59946 1.076172 4.01524 4.335937-1.16395c.652201.36242 1.303117.72842 1.972656 1.0624l1.855469-3.72035c-.854944-.42647-1.698585-.88116-2.529297-1.3612zm-9.980469 2.67553-8.033203 2.15215 1.076172 4.01524 8.033203-2.15214zm16.890625.74798-1.541016 3.86097c2.682696 1.07125 5.454955 1.91505 8.279297 2.52124l.873047-4.06407c-2.595493-.55708-5.146058-1.33371-7.611328-2.31814zm-32.835938.49604-2.115234 7.8977 7.08789-1.89826-1.076171-4.01524-.132813.0351.251953-.94327zm64.066406.85539c-2.538205.76977-5.14496 1.32202-7.779296 1.65219l.517578 4.12461c2.865758-.35918 5.702268-.95966 8.46875-1.79865zm-19.695312 1.63852-.529297 4.12266c2.862871.3674 5.761402.4987 8.652344.37497l-.177735-4.15391c-2.6474.1133-5.31038-.006-7.945312-.34372z" opacity="1"/></g><path d="m64.499999 10.999992a52.000577 51.999354 0 0 0 -51.999999 51.998777 52.000577 51.999354 0 0 0 6.989812 25.912719l-6.989812 26.088512 26.064697-6.98477a52.000577 51.999354 0 0 0 25.935302 6.98477 52.000577 51.999354 0 0 0 52.000001-52.001231 52.000577 51.999354 0 0 0 -52.000001-51.998777z" fill="#fff" stroke-width="2.599998"/><g fill="#03a8f3"><path d="m64.933594 10.99999c-2.885288.000249-5.772932.237066-8.623047.718682l.693359 4.099224c2.615926-.442042 5.271772-.659864 7.929688-.660094zm3.908203.14647-.310547 4.146094c2.648382.198157 5.279441.617497 7.853516 1.257695l1.003906-4.034776c-2.80536-.697722-5.667615-1.153582-8.546875-1.369013zm-16.767578 1.470565c-2.797916.718157-5.535736 1.673351-8.173829 2.855201l1.699219 3.792612c2.420734-1.084475 4.936575-1.960873 7.507813-2.620848zm29.46875 1.117083-1.335938 3.93713c2.51247.853333 4.953572 1.92001 7.287109 3.185247l1.980469-3.653953c-2.539471-1.376894-5.195249-2.539038-7.93164-3.468424zm-41.515625 3.669577c-2.52965 1.395822-4.940785 3.005603-7.199219 4.806188l2.591797 3.249695c2.075577-1.6548 4.291669-3.133493 6.615234-4.4156zm53.164062 2.021294-2.279297 3.476236c2.22001 1.455866 4.317789 3.099299 6.263672 4.905789l2.830079-3.046589c-2.116453-1.96484-4.399144-3.751493-6.814454-5.335436zm-63.632812 5.620566c-2.102414 1.980185-4.037908 4.136417-5.779297 6.4408l3.316406 2.505624c1.600343-2.117736 3.37999-4.10116 5.3125-5.921319zm73.494146 2.7888-3.072266 2.800517c1.789616 1.961506 3.415396 4.073664 4.851556 6.306049l3.4961-2.247836c-1.5628-2.429227-3.32906-4.725467-5.27539-6.85873zm-81.738287 7.21026c-1.545494 2.440652-2.884654 5.011676-3.996094 7.678965l3.837891 1.59946c1.020471-2.448978 2.252078-4.813828 3.671875-7.055978zm89.203127 3.384447-3.67188 1.949035c1.24502 2.344033 2.29113 4.794564 3.1211 7.313766l3.94922-1.300659c-.90443-2.745208-2.04349-5.411139-3.39844-7.962142zm-94.695314 8.356636c-.885153 2.751069-1.534536 5.576632-1.941407 8.436707l4.115235.585883c.37376-2.627328.970685-5.223954 1.783203-7.749272zm99.275394 3.769178-4.04297.968659c.61757 2.579578 1.01513 5.213229 1.18945 7.862542l4.14844-.273413c-.18958-2.881289-.62199-5.746927-1.29492-8.557788zm-101.648441 8.971812c-.17356 2.889317-.09091 5.78667.230468 8.655437l4.132813-.460895c-.295685-2.639422-.371712-5.302554-.212891-7.946518zm98.892581 3.845342c-.0424 2.655371-.30652 5.307376-.79297 7.915271l4.08789.761647c.5299-2.840839.81724-5.724124.86328-8.610518zm-93.921878 8.284377-4.078125.804613c.560208 2.833663 1.359218 5.62009 2.386719 8.31953l3.886718-1.478376c-.944283-2.480814-1.68053-5.041876-2.195312-7.645767zm92.236328 3.511389c-.70114 2.557752-1.62337 5.057513-2.74805 7.462189l3.76758 1.761553c1.22356-2.616098 2.226-5.336296 2.99024-8.124236zm-88.470703 7.79419-3.748047 1.796706c.443661.926178.937657 1.824441 1.435547 2.720447l-.953125 3.562165 4.015625 1.076071 1.386719-5.181154-.431641-.746024c-.610219-1.055179-1.179846-2.131747-1.705078-3.228211zm83.886723 3.200871c-1.32306 2.301668-2.84018 4.491843-4.5293 6.5404l3.20703 2.644282c1.83725-2.228206 3.48838-4.610571 4.92774-7.114565zm-88.22852 8.893695-2.152344 8.030498 4.015625 1.07607 2.152344-8.030497zm81.039064.613223c-1.853781 1.901354-3.867342 3.646685-6.01172 5.212405l2.451172 3.3571c2.332495-1.70307 4.521288-3.60183 6.537114-5.669387zm-9.322267 7.425085c-2.26747 1.38118-4.651326 2.57172-7.117188 3.55045l1.533203 3.86291c2.686417-1.06627 5.279607-2.36052 7.746094-3.86291zm-49.019531.0879-5.964844 1.59946 1.076172 4.01524 4.335937-1.16395c.652201.36242 1.303117.72842 1.972656 1.0624l1.855469-3.72035c-.854944-.42647-1.698585-.88116-2.529297-1.3612zm-9.980469 2.67553-8.033203 2.15215 1.076172 4.01524 8.033203-2.15214zm16.890625.74798-1.541016 3.86097c2.682696 1.07125 5.454955 1.91505 8.279297 2.52124l.873047-4.06407c-2.595493-.55708-5.146058-1.33371-7.611328-2.31814zm-32.835938.49604-2.115234 7.8977 7.08789-1.89826-1.076171-4.01524-.132813.0351.251953-.94327zm64.066406.85539c-2.538205.76977-5.14496 1.32202-7.779296 1.65219l.517578 4.12461c2.865758-.35918 5.702268-.95966 8.46875-1.79865zm-19.695312 1.63852-.529297 4.12266c2.862871.3674 5.761402.4987 8.652344.37497l-.177735-4.15391c-2.6474.1133-5.31038-.006-7.945312-.34372z"/><path d="m64.5 21.399409a41.600071 41.600071 0 0 0 -41.599609 41.59961 41.600071 41.600071 0 0 0 5.591797 20.730468l-5.591797 20.871093 20.851562-5.587889a41.600071 41.600071 0 0 0 20.748047 5.587889 41.600071 41.600071 0 0 0 41.59961-41.601561 41.600071 41.600071 0 0 0 -41.59961-41.59961z" stroke-width="2.080004"/></g></svg>