<svg height="128" width="128" xmlns="http://www.w3.org/2000/svg" xmlns:xlink="http://www.w3.org/1999/xlink">
  <linearGradient id="e" gradientTransform="matrix(1.0015 0 0 .99993 72.09 56.015)" gradientUnits="userSpaceOnUse" x1="43.844" x2="-60" y1="234" y2="234">
    <stop offset="0" stop-color="#d5d3cf"/>
    <stop offset=".038" stop-color="#e3e2df"/>
    <stop offset=".077" stop-color="#c0bfbc"/>
    <stop offset=".923" stop-color="#c0bfbc"/>
    <stop offset=".962" stop-color="#e3e2df"/>
    <stop offset="1" stop-color="#d5d3cf"/>
  </linearGradient>
  <g transform="translate(0 -172)">
    <rect fill="url(#e)" height="48" rx="8" width="104" x="12" y="240"/>
    <path d="m-130.69 222.85h35.65v35.65h-35.65z" fill="#f4f1ef" stroke="#f4f1ef" stroke-width="3.307277" transform="matrix(1.70605024507 -.489202041 .489202041 1.70605024507 138.82397 -236.88942)"/>
    <g transform="matrix(.99999999262 0 0 .99999999262 127.45117016984 188.25976414844)">
      <path d="m-115.45117 18.361328v25.378906 42c0 1.108.2232 2.163344.62695 3.121094.40282.955548.98633 1.813183 1.70703 2.535156.007.0063.016.01131.0234.01758.71967.715592 1.5728 1.298466 2.52344 1.699219.50793.214125 1.09852.225885 1.65429.332031 8.36763-2.054099 16.425129-5.811397 23.773442-13.472656l-17.441362-60.82422c-4.56438-.515923-8.74633-.679347-12.86719-.78711z" fill="#48c39e"/>
      <path d="m-86.521484 93.740234h23.070312 44c1.108 0 2.161391-.223203 3.119141-.626953.951148-.400967 1.80548-.9831 2.52539-1.699219.0071-.0059.01444-.01163.02149-.01758.720702-.721973 1.304209-1.579608 1.707031-2.535156.40375-.95775.626953-2.013094.626953-3.121094v-5.011718c-2.054951-6.738228-5.768848-13.06074-12.865234-18.539063h-.002l-60.822266 17.441406c-1.1948 4.887392-1.491168 9.549323-1.380859 14.109375z" fill="#d81768"/>
      <path d="m-13.806641-3.9335938c-.71991-.7161183-1.574242-1.2982517-2.52539-1.6992187-.95775-.40375-2.011141-.6269531-3.119141-.6269531h-14.169922c-3.147522 1.9855425-5.938761 4.4799207-8.138672 7.8203125l17.44336 60.8242191c4.497985.928586 8.731391 1.133717 12.865234 1.0625v-19.707032-41.9999996c0-1.10800002-.223203-2.16139065-.626953-3.1191406-.402822-.9555495-.986328-1.8151358-1.707031-2.5371094-.007-.00595-.01442-.011638-.02149-.017578z" fill="#ecb524"/>
      <path d="m-39.589844-6.2597656h-67.861326c-1.108 0-2.16139.2232031-3.11914.6269531-.95064.4007536-1.80377.9836273-2.52344 1.6992187-.007.00627-.016.011297-.0234.017578-.472.472831-.77532 1.0828841-1.11719 1.6621094 2.96729 7.2808611 6.82425 14.4078804 11.6504 21.3691404l60.822221-17.443359c1.113188-2.8064668 1.733953-5.4067502 2.171875-7.9316406z" fill="#81d2e0"/>
      <path d="m-114.92969 88.339844c.0572.165246.038.361417.10547.521484.40282.955548.98633 1.813183 1.70703 2.535156.007.0063.016.01131.0234.01758.71967.715592 1.5728 1.298466 2.52344 1.699219.95775.40375 2.01114.626953 3.11914.626953h26.310545l-4-13.941406z" fill="#390f39"/>
      <path d="m-109.72852-5.8027344c-.27171.081813-.58327.060939-.84179.1699219-.95064.4007536-1.80377.9836273-2.52344 1.6992187-.007.00627-.016.011297-.0234.017578-.7207.7219736-1.30421 1.5815599-1.70703 2.5371094-.40375.95774995-.62695 2.01114058-.62695 3.1191406v21.0664068l12.86719-3.691407z" fill="#20a48e"/>
      <path d="m-16.3125-5.6210938c-.0071-.00302-.01242-.00872-.01953-.011719-.95775-.40375-2.011141-.6269531-3.119141-.6269531h-24.583984l2.27539 7.9316406z" fill="#77971f"/>
      <path d="m-15.632812 92.642578c.647448-.359028 1.305617-.710703 1.826171-1.228516.0071-.0059.01444-.01163.02149-.01758.720702-.721973 1.304209-1.579608 1.707031-2.535156.40375-.95775.626953-2.013094.626953-3.121094v-27.080076l-12.867187 3.689453z" fill="#d5100d"/>
    </g>
    <path d="m79.406791 240.28824c-.000042 3.94976-1.300724 6.97838-3.902056 9.0857-2.582399 2.10782-6.398898 3.16167-11.449837 3.16167-3.493817 0-6.531968-.57901-9.114122-1.73726-2.563424-1.15825-4.652143-3.02863-6.266243-5.61119l6.180397-4.89911c2.656788 2.97401 5.916879 4.03028 9.370658 4.30487 2.183594 0 3.882997-.36945 5.098174-1.111 1.234184-.75907 1.938751-1.08596 1.938793-2.62407-.000042-.87318-.305964-1.60425-.742548-2.19319-.417802-.58832-1.053847-1.09171-1.908297-1.50937-.854482-.43696-2.335555-.93029-4.443089-1.48107-2.050684-.55104-4.809364-1.1011-6.632231-1.65186-1.80385-.56971-3.370384-1.30068-4.699369-2.19319-1.310169-.8925-2.344967-2.01295-3.104542-3.36089-.759458-1.34835-1.139266-3.04748-1.139266-5.09857 0-3.74035 1.262689-6.65517 3.788121-8.74365 2.525432-2.10781 6.964506-3.16167 11.673735-3.16167 6.816593 0 11.639586 2.33576 14.46898 7.00671l-6.123718 3.96381c-1.082309-1.67079-2.297571-2.86716-3.645734-3.58884-1.348151-.72103-2.952603-1.0822-4.813549-1.0822-4.026267.0543-6.396182 1.04563-7.116539 4.80247 0 1.27242.607571 2.45567 1.822855 3.13905 1.215263.66441 4.15429 1.33895 7.173562 2.02236 1.670896.43696 3.322871.91145 4.955659 1.42401 1.632946.49363 3.085556 1.18689 4.357647 2.07938 1.291206.8925 2.326035 2.06016 3.104585 3.50304.778465 1.44314 1.16774 3.29466 1.167782 5.55406" fill="#5a3856"/>
  </g>
</svg>
