<svg enable-background="new" height="128" viewBox="0 0 128 128" width="128" xmlns="http://www.w3.org/2000/svg">
  <path d="m124.00001 63.999998a59.999999 59.999999 0 0 1 -59.999999 60.000002 59.999999 59.999999 0 0 1 -60.000011-60.000002 59.999999 59.999999 0 0 1 60.000011-59.999996 59.999999 59.999999 0 0 1 59.999999 59.999996z" fill="#deddda"/>
  <rect fill="#d5d3cf" height="114" rx="56" width="112" x="8" y="6"/>
  <path d="m124.00001 62a59.999999 59.999999 0 0 1 -59.999999 60 59.999999 59.999999 0 0 1 -60.000011-60 59.999999 59.999999 0 0 1 60.000011-60.0000048 59.999999 59.999999 0 0 1 59.999999 60.0000048z" fill="#f6f5f4"/>
  <circle cx="64" cy="62" fill="#c0bfbc" r="54"/>
  <path d="m64.00011 7.9999983a54.000004 54.000004 0 0 0 -54.000003 54.0000017 54.000004 54.000004 0 0 0 .041505 1.170902 54.000004 54.000004 0 0 1 53.958503-53.1709055 54.000004 54.000004 0 0 1 53.958495 52.8281295 54.000004 54.000004 0 0 0 .04152-.828126 54.000004 54.000004 0 0 0 -54.000016-54.0000017z" opacity=".1"/>
  <g stroke-width="2.25" transform="translate(-82.71018 32.115336)">
    <path d="m146.33225-.96494413-44.62207 31.23632713 34.01368 23.809572 2.68065-13.877933-14.19433-9.931639 18.61524-13.034179z" fill="#613583"/>
    <path d="m158.53148 7.0506804-2.67188 13.8779276 13.35058 9.342775-17.51661 12.26074-3.50683 18.202149 43.52344-30.462889z" fill="#3584e4"/>
  </g>
</svg>
