<svg enable-background="new" height="128" viewBox="0 0 128 128" width="128" xmlns="http://www.w3.org/2000/svg">
  <g enable-background="new" transform="translate(162.99495 -137.37942)">
    <rect fill="#343434" height="88" rx="8" ry="8.8" width="112" x="-155" y="165.38"/>
    <path d="m-154.99495 243.37942v2c0 4.432 3.568 8 8 8h96c4.432 0 8-3.568 8-8v-2c0 4.432-3.568 8-8 8h-96c-4.432 0-8-3.568-8-8z" fill="#6e6e6e"/>
    <g enable-background="new" fill-rule="evenodd">
      <g stroke="#343434" stroke-linecap="round" stroke-linejoin="round" transform="matrix(1.8658103 0 0 1.8658103 -284.56471440257 129.36352890936)">
        <rect fill="#fff" height="24.71" rx="1.326" stroke-width="2.181214" width="35.336" x="81.79" y="34.2"/>
        <path d="m86.197536 37.299204c-.734373 0-1.325582.59121-1.325582 1.325582v15.877569c0 .734373.591209 1.325583 1.325582 1.325583h22.061514c.73438 0 1.32559-.59121 1.32559-1.325583v-15.877569c0-.734372-.59121-1.325582-1.32559-1.325582z" fill="#343434" stroke-width="1.308727"/>
        <path d="m105.00754 55.016927c-.76513-2.379151-2.00926-4.679659-4.04521-5.943351-2.04971-.08912-4.630479 0-7.125789 0-2.209779 1.176174-3.551885 3.51262-4.387497 5.943351" fill="#fff" stroke-width="1.744972"/>
        <path d="m103.55582 44.437738c0 3.49279-2.83473 6.327519-6.32752 6.327519s-6.327518-2.834729-6.327518-6.327519 2.834728-6.327518 6.327518-6.327518 6.32752 2.834728 6.32752 6.327518z" fill="#fff" stroke-width="1.744972"/>
        <g fill="#343434" stroke-width="1.08173" transform="matrix(.66279127 0 0 .66279127 79.392959 22.073219)">
          <path d="m52.9535 24.53592c0 1.097-.88971 1.98731-1.98596 1.98731s-1.98596-.89031-1.98596-1.98731c0-1.09699.88971-1.98731 1.98596-1.98731s1.98596.89032 1.98596 1.98731z"/>
          <path d="m52.9535 36.83673c0 1.09699-.88971 1.98731-1.98596 1.98731s-1.98596-.89032-1.98596-1.98731c0-1.097.88971-1.98731 1.98596-1.98731s1.98596.89031 1.98596 1.98731z"/>
          <path d="m52.9535 30.68632c0 1.097-.88971 1.98731-1.98596 1.98731s-1.98596-.89031-1.98596-1.98731c0-1.09699.88971-1.98731 1.98596-1.98731s1.98596.89032 1.98596 1.98731z"/>
        </g>
      </g>
      <g fill="#fff" stroke="#fff" stroke-width="1.063188" transform="matrix(1.8658103 0 0 1.8658103 -283.36367178855 125.86353)">
        <path d="m98.107008 37.495096-6.714145-8.358411"/>
        <path d="m99.203188 37.906168 7.125222-8.906506"/>
        <g stroke-linecap="round" stroke-linejoin="round">
          <path d="m92.215011 29.068174c0 .416002-.337631.753627-.753633.753627-.416 0-.753627-.337625-.753627-.753627 0-.416003.337627-.753627.753627-.753627.416002 0 .753633.337624.753633.753627z"/>
          <path d="m106.91934 28.931151c0 .416002-.33765.753627-.75365.753627-.41599 0-.75361-.337625-.75361-.753627 0-.416003.33762-.75363.75361-.75363.416 0 .75365.337627.75365.75363z"/>
        </g>
      </g>
    </g>
  </g>
</svg>
