<svg enable-background="new" height="128" viewBox="0 0 128 128" width="128" xmlns="http://www.w3.org/2000/svg" xmlns:xlink="http://www.w3.org/1999/xlink">
  <linearGradient id="linearGradient1529" gradientTransform="matrix(.46356661 0 0 .46376817 -130.54416 197.10169)" gradientUnits="userSpaceOnUse" x1="45.017" x2="109.736" y1="186.424" y2="335.662">
    <stop offset="0" stop-color="#111d2e"/>
    <stop offset="1" stop-color="#1387b8"/>
  </linearGradient>
  <g transform="translate(.000062 -173)">
    <path d="m123.99993 237a59.999995 59.999995 0 0 1 -59.999985 60 59.999995 59.999995 0 0 1 -60.0000069-60 59.999995 59.999995 0 0 1 60.0000069-59.99999 59.999995 59.999995 0 0 1 59.999985 59.99999z" fill="#deddda"/>
    <rect fill="#d5d3cf" height="114" rx="56" width="112" x="8" y="179"/>
    <path d="m123.99993 235a59.999995 59.999995 0 0 1 -59.999985 59.99999 59.999995 59.999995 0 0 1 -60.0000069-59.99999 59.999995 59.999995 0 0 1 60.0000069-60 59.999995 59.999995 0 0 1 59.999985 60z" fill="#f6f5f4"/>
    <circle cx="64" cy="235" fill="url(#linearGradient1529)" r="54"/>
    <path d="m64.000045 181a54 54 0 0 0 -54 54 54 54 0 0 0 .0415 1.1709 54 54 0 0 1 53.9585-53.1709 54 54 0 0 1 53.958495 52.82813 54 54 0 0 0 .0415-.82813 54 54 0 0 0 -54.000005-54z" opacity=".1"/>
    <path d="m61.153089 220.54811c0 .0909 0 .1817.0046.26699l-13.222453 19.19526c-2.1419-.0973-4.291221.27811-6.329226 1.11708-.898411.36618-1.740235.8158-2.530115 1.33494l-29.03435-11.94489c.00023 0-.67184 11.04566 2.12799 19.27777l20.52569 8.46386c1.0306 4.60274 4.19011 8.64 8.851454 10.58214 7.626519 3.18438 16.419998-.44497 19.592496-8.06987.825591-1.99313 1.210558-4.0836 1.1549-6.16944l18.919036-13.51159c.153058.005.310756.009.463815.009 11.321736 0 20.523834-9.22403 20.523834-20.55152 0-11.32841-9.202098-20.5441-20.523834-20.5441-11.317099 0-20.523837 9.21569-20.523837 20.5441zm-3.172499 38.89762c-2.455439 5.89133-9.229928 8.68635-15.11853 6.23433-2.716565-1.13099-4.767555-3.20292-5.950755-5.67347l6.681265 2.76721c4.342704 1.80772 9.325011-.2503 11.130181-4.58885 1.810735-4.34317-.243504-9.33064-4.583889-11.13836l-6.906677-2.85992c2.665084-1.01047 5.694727-1.04755 8.525393.12979 2.853857 1.18661 5.068112 3.42077 6.241565 6.27605 1.173454 2.85528 1.168816 6.00721-.01855 8.85322m23.696336-25.20618c-7.537003 0-13.673281-6.14163-13.673281-13.69144 0-7.54377 6.136278-13.68726 13.673281-13.68726 7.54164 0 13.67792 6.14349 13.67792 13.68726 0 7.54981-6.13628 13.69144-13.67792 13.69144m-10.245688-13.71229c0-5.67951 4.60105-10.28596 10.268876-10.28596 5.672463 0 10.273514 4.60645 10.273514 10.28596 0 5.67996-4.601051 10.28224-10.273514 10.28224-5.667826 0-10.268876-4.60228-10.268876-10.28224z" fill="#f6f5f4"/>
  </g>
</svg>
