<svg width="128" height="128" viewBox="0 0 128 128" fill="none" xmlns="http://www.w3.org/2000/svg">
<g id="subtitleeditor">
<g id="Group 24">
<g id="box">
<path id="Vector" d="M99.535 13.7723H16.5446C12.3778 13.7723 9 17.4316 9 21.9456V103.679C9 108.192 12.3778 111.852 16.5446 111.852H99.535C103.701 111.852 107.08 108.192 107.08 103.679V21.9456C107.08 17.4316 103.701 13.7723 99.535 13.7723Z" fill="url(#paint0_linear)"/>
<path id="Vector_2" d="M99.535 10H16.5446C12.3778 10 9 13.6593 9 18.1733V99.9063C9 104.42 12.3778 108.08 16.5446 108.08H99.535C103.701 108.08 107.08 104.42 107.08 99.9063V18.1733C107.08 13.6593 103.701 10 99.535 10Z" fill="url(#paint1_linear)"/>
</g>
<g id="dialog">
<rect id="Rectangle 45" width="68.2407" height="45.0876" rx="4" transform="matrix(1 0 0 -1 23.2592 87.2255)" fill="url(#paint2_linear)"/>
<rect id="Rectangle 44" width="68.2407" height="45.0876" rx="4" transform="matrix(1 0 0 -1 23.2592 85.3885)" fill="url(#paint3_linear)"/>
<path id="Rectangle 47" d="M64.9958 40.3009H80.5327V26.9071C80.5327 26.0115 79.4459 25.5674 78.8188 26.2068L64.9958 40.3009Z" fill="url(#paint4_linear)"/>
<rect id="Rectangle 64" x="42.6111" y="46.6666" width="40.7407" height="6.11111" fill="url(#paint5_linear)"/>
<rect id="Rectangle 65" x="31.4074" y="59.9073" width="51.9444" height="6.11111" fill="url(#paint6_linear)"/>
<rect id="Rectangle 66" x="50.7592" y="73.1482" width="32.5926" height="6.11111" fill="url(#paint7_linear)"/>
</g>
<g id="pencil">
<path id="Vector_3" d="M69.8354 105.326L40.5741 118.981L54.2292 89.7201L57.1557 86.7942L72.7613 102.4L69.8354 105.326Z" fill="url(#paint8_linear)"/>
<path id="Vector_4" d="M44.9177 109.67L40.5741 118.981L49.8856 114.638C49.8856 114.638 50.8068 114.096 50.3236 113.612C49.8404 113.129 48.3859 113.626 48.3859 113.626C48.3859 113.626 49.3523 112.154 48.3823 111.183C47.4122 110.213 45.9408 111.18 45.9408 111.18C45.9408 111.18 46.4264 109.715 45.9384 109.228C45.451 108.74 44.9177 109.67 44.9177 109.67Z" fill="#1A5FB4"/>
<path id="Vector_5" d="M54.2292 89.7202C56.1802 87.7692 59.5942 93.1341 56.6677 96.06C61.5446 91.1831 68.3725 98.011 63.4956 102.888C66.4215 99.9614 71.7864 103.375 69.8354 105.326L119 56.1617L103.394 40.5555L54.2292 89.7202Z" fill="url(#paint9_linear)"/>
</g>
</g>
</g>
<defs>
<linearGradient id="paint0_linear" x1="9.00001" y1="62.8121" x2="107.08" y2="62.8121" gradientUnits="userSpaceOnUse">
<stop stop-color="#26A269"/>
</linearGradient>
<linearGradient id="paint1_linear" x1="8.99999" y1="59.0398" x2="107.08" y2="59.0398" gradientUnits="userSpaceOnUse">
<stop stop-color="#2EC27E"/>
</linearGradient>
<linearGradient id="paint2_linear" x1="0" y1="22.5438" x2="68.2407" y2="22.5438" gradientUnits="userSpaceOnUse">
<stop stop-color="#8FF0A4"/>
</linearGradient>
<linearGradient id="paint3_linear" x1="0" y1="22.5438" x2="68.2407" y2="22.5438" gradientUnits="userSpaceOnUse">
<stop stop-color="#F6F5F4"/>
</linearGradient>
<linearGradient id="paint4_linear" x1="64.9958" y1="32.3801" x2="80.5327" y2="32.3801" gradientUnits="userSpaceOnUse">
<stop stop-color="#F6F5F4"/>
</linearGradient>
<linearGradient id="paint5_linear" x1="42.6111" y1="49.7222" x2="83.3519" y2="49.7222" gradientUnits="userSpaceOnUse">
<stop stop-color="#57E389"/>
</linearGradient>
<linearGradient id="paint6_linear" x1="31.4074" y1="62.9629" x2="83.3519" y2="62.9629" gradientUnits="userSpaceOnUse">
<stop stop-color="#57E389"/>
</linearGradient>
<linearGradient id="paint7_linear" x1="50.7592" y1="76.2037" x2="83.3518" y2="76.2037" gradientUnits="userSpaceOnUse">
<stop stop-color="#57E389"/>
</linearGradient>
<linearGradient id="paint8_linear" x1="40.5741" y1="102.888" x2="72.7613" y2="102.888" gradientUnits="userSpaceOnUse">
<stop stop-color="#FFBE6F"/>
</linearGradient>
<linearGradient id="paint9_linear" x1="41.016" y1="102.93" x2="56.6258" y2="118.54" gradientUnits="userSpaceOnUse">
<stop offset="0.0087" stop-color="#3584E4"/>
<stop offset="0.28261" stop-color="#3584E4"/>
<stop offset="0.28271" stop-color="#1C71D8"/>
<stop offset="0.71304" stop-color="#1C71D8"/>
<stop offset="0.71314" stop-color="#1A5FB4"/>
<stop offset="0.98261" stop-color="#1A5FB4"/>
</linearGradient>
</defs>
</svg>
