<svg width="128" height="128" viewBox="0 0 128 128" fill="none" xmlns="http://www.w3.org/2000/svg">
<g id="synfig_icon">
<g id="circle">
<path id="Vector" d="M63.9931 118.986C94.365 118.986 118.986 94.365 118.986 63.9931C118.986 33.6212 94.365 9 63.9931 9C33.6212 9 9 33.6212 9 63.9931C9 94.365 33.6212 118.986 63.9931 118.986Z" fill="url(#paint0_linear)"/>
<path id="Vector_2" fill-rule="evenodd" clip-rule="evenodd" d="M118.932 62.5538C118.661 76.9492 112.755 90.6641 102.483 100.753C92.2103 110.841 78.3911 116.499 63.9931 116.51C49.6633 116.501 35.903 110.899 25.6417 100.897C15.3805 90.8943 9.42874 77.2815 9.0537 62.9566C9.03254 63.3019 9.01464 63.6474 9 63.9931C9.00001 78.5782 14.7939 92.5659 25.1071 102.879C35.4203 113.192 49.408 118.986 63.9931 118.986C78.5782 118.986 92.5659 113.192 102.879 102.879C113.192 92.5659 118.986 78.5782 118.986 63.9931C118.975 63.5131 118.957 63.0333 118.932 62.5538" fill="url(#paint1_linear)"/>
</g>
<path id="Vector_3" d="M66.5378 26.0002C66.2628 25.9952 65.9928 26.0952 65.8028 26.2802C63.0329 28.9551 60.2179 31.9551 57.6679 34.815C57.6679 34.82 57.6629 34.82 57.6629 34.825C51.388 42.0649 46.6231 49.4998 43.1682 57.4647C39.9482 64.8796 38.0682 71.2945 36.3583 80.6444C35.9833 82.6893 35.6033 85.1693 35.3383 87.1643C35.2083 88.1642 35.1083 89.0392 35.0533 89.6892C35.0233 90.0092 35.0033 90.2742 35.0033 90.4892C34.9983 90.5992 34.9983 90.6892 35.0083 90.7992C35.0133 90.8542 35.0233 90.9142 35.0483 91.0142C35.0833 91.1192 35.0583 91.3242 35.4933 91.5742C35.7333 91.7092 35.7633 91.6842 35.8233 91.6942C35.8833 91.7092 35.9283 91.7192 35.9733 91.7242C36.0733 91.7392 36.1733 91.7492 36.2883 91.7592C36.5183 91.7842 36.8083 91.8042 37.1133 91.8192C39.5182 91.9442 43.0632 92.5092 45.4131 93.1442C46.9981 93.5742 48.0431 93.9291 49.5931 94.5691C49.9531 94.7141 50.2781 94.8491 50.523 94.9441C50.648 94.9941 50.748 95.0341 50.823 95.0641C50.858 95.0741 50.888 95.0841 50.918 95.0991C50.923 95.0991 50.923 95.0991 50.923 95.0991C50.928 95.0991 50.928 95.0991 50.928 95.0991C50.928 95.0991 50.928 95.1041 50.933 95.1041C50.943 95.1091 50.953 95.1141 50.973 95.1191C50.973 95.1191 50.968 95.1141 50.963 95.1141C50.968 95.1141 50.973 95.1141 50.978 95.1191C50.988 95.1241 51.003 95.1291 51.033 95.1341C51.043 95.1391 51.053 95.1441 51.068 95.1541C51.063 95.1491 51.038 95.1491 51.033 95.1491C51.098 95.1841 51.183 95.2241 51.293 95.2841C51.553 95.4141 51.913 95.5991 52.308 95.8041C56.103 97.7791 58.9379 99.8141 63.4679 103.829C64.0678 104.359 64.6228 104.839 65.0428 105.194C65.2528 105.374 65.4278 105.519 65.5678 105.629C65.6378 105.684 65.6978 105.729 65.7578 105.774C65.7878 105.794 65.8178 105.819 65.8728 105.849C65.8978 105.864 65.9328 105.879 65.9878 105.909C66.0478 105.934 66.1078 105.984 66.3778 105.999C66.6978 106.009 66.7678 105.944 66.8328 105.919C66.8978 105.889 66.9328 105.874 66.9628 105.859C67.0178 105.824 67.0528 105.804 67.0828 105.779C67.1528 105.729 67.2128 105.684 67.2878 105.624C67.4378 105.509 67.6278 105.354 67.8578 105.159C68.3178 104.779 68.9228 104.259 69.5778 103.684C73.3277 100.394 75.1377 99.0041 77.7476 97.4041C83.4475 93.9042 88.5275 92.3492 96.3274 91.7392L96.9573 91.6942C97.4673 91.6542 97.8573 91.2592 97.8573 90.7892V90.4442C97.8573 89.7292 97.6723 88.2442 97.4223 86.4143C97.1723 84.5793 96.8573 82.4893 96.5674 80.9043C94.8574 71.4745 92.9124 64.8346 89.6525 57.3197C86.7175 50.5548 82.5126 43.7199 77.4876 37.535C77.4776 37.52 77.4676 37.505 77.4526 37.49C74.0727 33.7901 70.8027 29.9001 67.2328 26.2952C67.0528 26.1152 66.8028 26.0102 66.5378 26.0002Z" fill="url(#paint2_linear)"/>
<path id="Vector_4" d="M64.5378 24.0002C64.2628 23.9952 63.9928 24.0952 63.8028 24.2802C61.0329 26.9551 58.2179 29.9551 55.6679 32.815C55.6679 32.82 55.6629 32.82 55.6629 32.825C49.388 40.0649 44.6231 47.4998 41.1682 55.4647C37.9482 62.8796 36.0682 69.2945 34.3583 78.6444C33.9833 80.6893 33.6033 83.1693 33.3383 85.1643C33.2083 86.1642 33.1083 87.0392 33.0533 87.6892C33.0233 88.0092 33.0033 88.2742 33.0033 88.4892C32.9983 88.5992 32.9983 88.6892 33.0083 88.7992C33.0133 88.8542 33.0233 88.9142 33.0483 89.0142C33.0833 89.1192 33.0583 89.3242 33.4933 89.5742C33.7333 89.7092 33.7633 89.6842 33.8233 89.6942C33.8833 89.7092 33.9283 89.7192 33.9733 89.7242C34.0733 89.7392 34.1733 89.7492 34.2883 89.7592C34.5183 89.7842 34.8083 89.8042 35.1133 89.8192C37.5182 89.9442 41.0632 90.5092 43.4131 91.1442C44.9981 91.5742 46.0431 91.9291 47.5931 92.5691C47.9531 92.7141 48.2781 92.8491 48.523 92.9441C48.648 92.9941 48.748 93.0341 48.823 93.0641C48.858 93.0741 48.888 93.0841 48.918 93.0991C48.923 93.0991 48.923 93.0991 48.923 93.0991C48.928 93.0991 48.928 93.0991 48.928 93.0991C48.928 93.0991 48.928 93.1041 48.933 93.1041C48.943 93.1091 48.953 93.1141 48.973 93.1191C48.973 93.1191 48.968 93.1141 48.963 93.1141C48.968 93.1141 48.973 93.1141 48.978 93.1191C48.988 93.1241 49.003 93.1291 49.033 93.1341C49.043 93.1391 49.053 93.1441 49.068 93.1541C49.063 93.1491 49.038 93.1491 49.033 93.1491C49.098 93.1841 49.183 93.2241 49.293 93.2841C49.553 93.4141 49.913 93.5991 50.308 93.8041C54.103 95.7791 56.9379 97.8141 61.4679 101.829C62.0678 102.359 62.6228 102.839 63.0428 103.194C63.2528 103.374 63.4278 103.519 63.5678 103.629C63.6378 103.684 63.6978 103.729 63.7578 103.774C63.7878 103.794 63.8178 103.819 63.8728 103.849C63.8978 103.864 63.9328 103.879 63.9878 103.909C64.0478 103.934 64.1078 103.984 64.3778 103.999C64.6978 104.009 64.7678 103.944 64.8328 103.919C64.8978 103.889 64.9328 103.874 64.9628 103.859C65.0178 103.824 65.0528 103.804 65.0828 103.779C65.1528 103.729 65.2128 103.684 65.2878 103.624C65.4378 103.509 65.6278 103.354 65.8578 103.159C66.3178 102.779 66.9228 102.259 67.5778 101.684C71.3277 98.3941 73.1377 97.0041 75.7476 95.4041C81.4475 91.9042 86.5275 90.3492 94.3274 89.7392L94.9573 89.6942C95.4673 89.6542 95.8573 89.2592 95.8573 88.7892V88.4442C95.8573 87.7292 95.6723 86.2442 95.4223 84.4143C95.1723 82.5793 94.8573 80.4893 94.5674 78.9043C92.8574 69.4745 90.9124 62.8346 87.6525 55.3197C84.7175 48.5548 80.5126 41.7199 75.4876 35.535C75.4776 35.52 75.4676 35.505 75.4526 35.49C72.0727 31.7901 68.8027 27.9001 65.2328 24.2952C65.0528 24.1152 64.8028 24.0102 64.5378 24.0002Z" fill="#3584E4"/>
</g>
<defs>
<linearGradient id="paint0_linear" x1="9.00002" y1="63.9931" x2="118.986" y2="63.9931" gradientUnits="userSpaceOnUse">
<stop stop-color="#3D3846"/>
</linearGradient>
<linearGradient id="paint1_linear" x1="9" y1="90.77" x2="118.986" y2="90.77" gradientUnits="userSpaceOnUse">
<stop stop-color="#241F31"/>
</linearGradient>
<linearGradient id="paint2_linear" x1="35" y1="66" x2="97.8573" y2="66" gradientUnits="userSpaceOnUse">
<stop stop-color="#241F31"/>
</linearGradient>
</defs>
</svg>
