<svg enable-background="new" height="128" viewBox="0 0 128 128" width="128" xmlns="http://www.w3.org/2000/svg" xmlns:xlink="http://www.w3.org/1999/xlink">
  <linearGradient id="linearGradient1841" gradientUnits="userSpaceOnUse" x1="14.918707" x2="114.83448" y1="185.84134" y2="282.15866">
    <stop offset="0" stop-color="#222"/>
    <stop offset=".50576639" stop-color="#303288"/>
    <stop offset="1" stop-color="#3f42ee"/>
  </linearGradient>
  <linearGradient id="linearGradient930" gradientUnits="userSpaceOnUse" x1="14.989222" x2="113.51093" y1="13.923353" y2="109.9521">
    <stop offset="0" stop-color="#fdfd02"/>
    <stop offset=".18118827" stop-color="#358859"/>
    <stop offset=".39754173" stop-color="#4520a8"/>
    <stop offset=".66172838" stop-color="#662d9d"/>
    <stop offset="1" stop-color="#5e57d2"/>
  </linearGradient>
  <g transform="translate(0 -172)">
    <path d="m20 188c-4.432 0-8 3.568-8 8v84c0 4.432 3.568001 8 8 8h39.957032 4.042968 43.29492c6.07629 0 8.66602-4.51575 8.66602-10.125v-39.875h-51.96094v-50z" fill="#212121"/>
    <path d="m20 184c-4.432 0-8 3.568-8 8v84c0 4.432 3.568001 8 8 8h40 4 44.00196c4.432 0 8-3.568 8-8v-84c0-4.432-3.568-8-8-8h-44.00196-4z" fill="url(#linearGradient1841)"/>
    <path d="m28.482422 12h-8.482422c-1.108 0-2.161391.223203-3.119141.626953s-1.819968.987938-2.542968 1.710938-1.307188 1.585218-1.710938 2.542968-.626953 2.011141-.626953 3.119141v13.662109l49.894531 78.337891h2.105469 44.00195c1.108 0 2.16139-.2232 3.11914-.62695s1.81997-.98794 2.54297-1.71094 1.30719-1.58522 1.71094-2.54297.62695-2.01114.62695-3.11914v-41.902344z" fill="url(#linearGradient930)" opacity=".75" transform="translate(0 172)"/>
    <path d="m74.033531 228.34625v1.53183h1.021207c2.719092 0 3.656149.35181 4.595479 1.73607l9.088821 13.78643-8.16973 11.94823c-.69214.98876-2.155278 3.26791-7.148536 3.26791v1.5318l5.514576-.20423c1.82921 0 4.55178.0559 6.33156.20423v-1.5318c-2.27416-.0495-3.16578-1.45893-3.16578-2.34881 0-.44495.16461-.57951.51061-1.12333l7.0464-10.41642 7.76123 11.84612c.0989.19758.30639.36229.30639.51061 0 .59324-1.14207 1.4824-3.2679 1.53183v1.5318c1.73034-.14837 5.371982-.20423 7.250642-.20423l6.43367.20423v-1.5318h-.91909c-2.57079 0-3.6594-.30563-4.6976-1.83822l-10.416411-15.72673 6.740032-9.90579c1.087639-1.58205 2.850629-3.21847 7.250639-3.2679v-1.53183l-5.51457.20423c-1.977552 0-4.354042-.0559-6.331551-.20423v1.53183c1.977509.0495 3.06364 1.10961 3.06364 2.24667 0 .49437-.0624.68165-.40847 1.22546l-5.71884 8.27187-6.33154-9.49733c-.0989-.14837-.30634-.51709-.30634-.71485 0-.59327 1.03991-1.48239 3.165769-1.53182v-1.53183c-1.73034.14837-5.372.20423-7.250649.20423zm-53.254653 0-.919089 11.13127h1.225461c.692119-7.95953 1.419418-9.59944 8.884592-9.59944.88988 0 2.160786.003 2.655166.10211 1.038182.19758 1.123326.70111 1.123326 1.83817v26.61069c0 1.68089-.01721 2.55432-5.20819 2.45092h-2.042463v1.53184c2.026976-.14838 7.121068-.20448 9.395211-.20448 2.274159 0 7.368224.0558 9.395194.20448v-1.53184h-2.04243c-5.191013 0-5.106081-.77003-5.106081-2.45092v-26.61067c0-.98875-.07291-1.64041.816979-1.83817.543814-.0989 1.92007-.10211 2.859397-.10211 7.465157 0 8.19245 1.63992 8.884588 9.59944h1.225472l-.919106-11.13127zm26.519837 13.02052v1.5318h1.225462c3.806723 0 3.880635.46692 3.880635 2.2467v26.18307c0 1.77976-.07384 2.34879-3.880635 2.34879h-1.225462v1.5318h28.49194l2.144576-12.76521h-1.327584c-1.235951 7.61347-2.321545 11.23341-10.824912 11.23341h-6.535798c-2.323569 0-2.450904-.41099-2.450904-2.04245v-13.29576h4.391227c4.795497 0 5.412446 1.61869 5.412446 5.82092h1.225472v-13.17369h-1.225472c0 4.25169-.61695 5.82095-5.412446 5.82095h-4.391228v-11.96819c0-1.63146.127482-1.94034 2.450904-1.94034h6.331566c7.564021 0 8.91055 2.62543 9.70156 9.49733h1.225471l-1.429731-11.02913z" fill="#f2ff84" stroke-width="2.46057"/>
  </g>
</svg>
