<svg xmlns="http://www.w3.org/2000/svg" width="128" height="128" x="0" y="0" version="1.1" viewBox="0 0 128 128" xml:space="preserve">
 <path style="fill:none" d="M 40.403656,41.68766 A 20.426046,20.426046 0 1 1 80.557303,34.165826 20.426046,20.426046 0 1 1 40.403656,41.68766 Z"/>
 <g>
  <g transform="matrix(2.1052614,0,0,2.1052614,-4.4196211,-139.15778)">
   <path style="opacity:0.2;fill:#412323" d="m 25.990234,68.99967 c -4.382829,0.116977 -6.976562,4.270243 -8.820312,7.857422 -0.341003,0.180941 -0.683814,0.354731 -1.023438,0.542969 -3.479938,2.339614 -6.3300173,5.578154 -8.5312496,9.123047 -1.9362809,3.417753 -3.1107263,7.219389 -3.546875,11.115234 -0.2591893,3.949848 0.1923262,7.974648 1.6796875,11.669918 2.8156131,6.34713 9.7862191,13.74907 16.2441411,13.66993 -1.399112,-0.80893 -4.901578,-3.97995 -5.998047,-9.9961 1.164035,2.27981 6.42079,5.3021 7.998047,5.9961 -0.783571,-0.73172 -3.791895,-5.11882 -3.998047,-7.69532 L 9.9453125,108.19303 c -0.8862862,-2.80407 -1.415312,-5.7051 -1.7382813,-8.669922 -0.041247,-0.662644 -0.1235128,-1.379761 0.1152344,-1.203126 0.8930949,1.415481 2.1234594,1.862348 3.6738284,2.666018 -1.470309,-2.312519 -2.1401354,-4.963999 -1.898438,-7.712892 0.242521,-2.758263 1.798677,-5.432541 3.507813,-7.414063 0.202774,-0.23214 0.42967,-0.451556 0.640625,-0.679687 0.09139,0.709685 0.20849,1.41907 0.291015,2.105468 -0.02454,0.531112 0.301708,1.647441 0.04687,1.759766 -0.514084,1.55298 -1.004666,3.556114 0.22461,4.912109 0.389359,-1.755232 2.304887,-2.601577 3.814453,-3.339843 1.706455,-0.740857 3.087708,-2.361994 4.777344,-3.140626 2.226487,-1.277211 4.376221,0.523438 7.236328,0.523438 2.734422,0 5.624234,-1.00008 8.330078,-2.216797 0.629742,0.651445 1.755604,1.709404 2.248047,2.482422 h -0.0059 c 1.410398,2.255635 2.387804,4.877733 2.708985,7.451172 0.40079,3.366043 0.06449,6.718703 -1.925781,9.267573 -2.37e-4,4e-5 -0.01563,0.002 -0.01563,0.002 4.6e-5,0 0.01347,-3e-5 0.01367,0 0.04102,0.005 3.611182,0.25989 5.992188,-2 -1.698781,13.13504 -9.752796,20.15593 -13.994141,21.99024 5.47079,0.36818 9.641566,-3.6592 9.900391,-3.91406 -0.612405,0.77104 -2.447254,3.04343 -3.904297,3.91406 3.689411,-1.03307 6.160079,-1.40867 8.488281,-3.10742 -8.71e-4,0 1.891547,-1.03001 3.865235,-3.28125 0.262569,-0.2995 0.714061,-0.71362 0.984375,-1.05469 0.168031,-0.21203 0.324049,-0.42954 0.488281,-0.64258 0.02895,-0.035 0.06201,-0.0699 0.08984,-0.10547 4.1541,-5.08178 6.17538,-11.39942 6.02539,-17.124997 0.02923,-6.94073 -2.787396,-12.966492 -7.519476,-17.947312 -3.42219,-3.602071 -7.30843,-6.004671 -10.808594,-7.197266 -4.534889,-1.302228 -10.1305,-1.85688 -14.132812,-1.099609 -0.379017,0.12672 0.05761,-2.083438 0.52539,-2.416016 -0.957538,0.08964 -1.980795,1.905933 -2.826172,2.783203 -0.0954,0.02047 -0.178984,0.04401 -0.267578,0.06641 0.524621,-1.063114 0.271144,-1.778888 1.09375,-2.849609 -2.398126,0.447719 -2.869,2.013731 -3.701172,3.580079 -0.315664,0.106586 -0.619361,0.237609 -0.929687,0.355468 0.787815,-2.610549 2.221156,-3.942491 4.630859,-5.935547 z"/>
   <path style="fill:#1a5fb4" d="m 12.848705,113.81613 c 2.428951,3.49346 5.564376,7.60961 9.143849,8.16153 -1.399111,-0.80893 -4.901049,-3.97971 -5.997518,-9.99586 1.164035,2.27981 6.419434,5.30353 7.996691,5.99752 -0.78357,-0.73172 -3.792193,-5.12032 -3.998345,-7.69682 L 9.9089106,107.18228 c 0.06283,0.0956 0.2860654,2.90135 2.9397944,6.63385 z"/>
   <path style="opacity:0.2" d="M 48.756945,89.978163 30.574727,83.601867 11.089251,84.90028 6.1161583,91.106416 c 0.8848932,5.73688 0.3350959,11.947094 3.4167361,16.959214 L 43.983454,118.978 48.727841,105.73517 Z"/>
   <path style="fill:#ebebeb" d="M 48.756945,88.979481 30.574727,82.603186 11.089251,83.901598 6.1161583,90.107734 c 0.8848932,5.73688 0.3350959,11.947096 3.4167361,16.959216 l 34.4505596,10.91237 4.744387,-13.24283 z"/>
   <path style="fill:#3f7da7;fill-rule:evenodd" d="m 11.555692,83.528801 3.282753,0.468846 0.901258,-4.393287 -1.802516,0.878657 z"/>
   <path style="opacity:0.2" d="M 47.278005,93.476196 44.580423,84.61467 11.585519,84.283517 11.398445,84.514031 11.089251,84.901598 24,103 Z"/>
   <path style="fill:#f7f7f7" d="M 47.278005,92.476196 44.580423,83.61467 11.585519,83.283517 11.398445,83.514031 11.089251,83.901598 24,102 Z"/>
   <path style="fill:#1c71d8" d="m 30.503704,72.335214 c -0.0034,7.92e-4 -4.148479,0.01997 -5.957846,0.600975 -3.014965,0.695765 -5.719906,1.978354 -8.399987,3.463799 -3.479938,2.339614 -6.329877,5.578996 -8.5311093,9.123889 -1.9362809,3.417754 -3.1096022,7.219453 -3.5457509,11.115298 -0.2591893,3.949845 0.1926363,7.974565 1.6799976,11.669835 2.8156131,6.34713 9.7856236,13.7478 16.2435456,13.66865 -0.820296,-0.12648 -1.44493,-0.95717 -2.215427,-1.40763 -2.591672,-1.51518 -5.056106,-4.06102 -6.928422,-6.7539 -2.65373,-3.7325 -2.8764832,-6.53697 -2.9393124,-6.63258 l 0.035511,0.011 C 9.0582754,104.38993 8.5305795,101.48951 8.2075414,98.524053 8.1662945,97.86141 8.0835267,97.142737 8.3222739,97.319372 c 0.8930949,1.41548 2.1240481,1.863723 3.6744171,2.667392 -1.470309,-2.312517 -2.1409117,-4.963954 -1.899214,-7.712848 0.242521,-2.758263 1.798775,-5.43232 3.507911,-7.413842 4.477738,-5.126208 11.011402,-9.273279 16.898316,-12.52486 z"/>
   <path style="fill:#62a0ea" d="m 25.990884,68.000007 c -4.737368,0.12644 -7.397788,4.977809 -9.26473,8.722128 -0.672468,1.19013 -1.369504,2.602374 -1.956888,3.726491 -1.124206,1.771473 -0.464348,3.89897 -0.231332,5.837054 -0.02454,0.531112 0.300813,1.646185 0.04598,1.75851 -0.514084,1.55298 -1.003961,3.556918 0.225315,4.912913 0.389359,-1.755232 2.304929,-2.600966 3.814495,-3.339232 1.706455,-0.740857 3.087736,-2.363239 4.777372,-3.141871 2.226487,-1.277211 4.376363,0.524 7.23647,0.524 2.734422,0 5.623107,-0.999698 8.328951,-2.216415 0.629742,0.651445 1.756067,1.709547 2.24851,2.482565 h -0.007 c 1.410398,2.255635 2.388267,4.877784 2.709448,7.451223 0.40079,3.366043 0.06497,6.717157 -1.925303,9.266037 -2.36e-4,4e-5 -0.01579,0.003 -0.01579,0.003 4.6e-5,0 0.01379,-4e-5 0.01399,0 0.04102,0.005 3.610414,0.25901 5.99142,-2.00087 -1.698781,13.13503 -9.752864,20.15659 -13.994209,21.9909 5.646058,0.37997 9.995864,-3.99835 9.995864,-3.99835 0.821078,-1.16943 -1.984675,2.79511 -3.998345,3.99835 3.689411,-1.03308 6.159317,-1.40851 8.487519,-3.10726 -8.71e-4,0 1.891865,-1.0299 3.865553,-3.28115 0.262569,-0.29949 0.713676,-0.71508 0.98399,-1.05616 0.168031,-0.21202 0.323363,-0.42946 0.487595,-0.64249 0.02895,-0.035 0.06195,-0.0683 0.08978,-0.10386 4.1541,-5.08179 6.177153,-11.40009 6.027163,-17.125664 C 59.95588,91.719573 57.13888,85.694537 52.4068,80.713717 48.98461,77.111646 45.098021,74.708092 41.597857,73.515497 37.062968,72.213269 31.467849,71.658098 27.465537,72.415369 c -0.379017,0.12672 0.05675,-2.083618 0.524535,-2.416195 -1.122145,0.105046 -2.3384,2.592383 -3.24767,3.146028 0.746216,-1.236311 0.350893,-1.977688 1.248498,-3.146028 -3.336863,0.622976 -2.927113,3.407008 -4.978474,5.351705 0.67584,-3.613586 2.166084,-5.024762 4.978474,-7.350878 z"/>
   <path style="fill:#3584e4" d="m 16.615437,87.991728 c 6.664543,-0.191821 2.479991,-4.322253 11.374635,-11.995037 -7.246419,3.751988 -14.143635,3.746791 -11.366037,11.995037 h -0.0084 z"/>
   <path style="fill:#ffffff" d="m 20.610694,84.639502 c -0.639012,1.167169 -2.130043,1.637585 -2.954876,1.198232 -0.842953,-0.439352 -0.838421,-1.908297 -0.185884,-3.075468 0.629948,-1.167171 3.412599,-0.643495 3.426196,-0.643495 0.01319,0 0.353487,1.357997 -0.28553,2.520731 z"/>
   <path style="fill:#5e5c64" d="m 17.815241,89.95908 c 0,0 0.358872,-0.346321 0.171799,-0.979599 -2.237115,0.739668 -3.335625,-1.401722 -3.327819,-1.401722 0.0076,0 -1.676022,4.412314 0.333638,6.411487 0.174086,-1.646529 2.739233,-3.94404 2.747039,-3.94404"/>
   <circle style="fill:#5e5c64" cx="19" cy="84" r="1"/>
  </g>
 </g>
</svg>
