<svg enable-background="new" height="128" viewBox="0 0 128 128" width="128" xmlns="http://www.w3.org/2000/svg" xmlns:xlink="http://www.w3.org/1999/xlink"><linearGradient id="a" gradientTransform="matrix(2.6996628 0 0 2.7003377 -.787853 -2.801356)" gradientUnits="userSpaceOnUse" x2="0" y1="43.943001" y2="3.77"><stop offset="0" stop-color="#663579"/><stop offset="1" stop-color="#16a085"/></linearGradient><linearGradient id="b" gradientUnits="userSpaceOnUse" x1="31.138302" x2="104.192208" y1="19.672099" y2="97.76151"><stop offset="0"/><stop offset="1" stop-opacity="0"/></linearGradient><linearGradient id="c" gradientUnits="userSpaceOnUse" x1="100.352805" x2="63.146805" y1="93.33621" y2="55.174399"><stop offset="0" stop-color="#735a93"/><stop offset="1" stop-color="#8b6cb1"/></linearGradient><g transform="translate(.000062 -173)"><path d="m123.99993 237a59.999995 59.999995 0 0 1 -59.999985 60 59.999995 59.999995 0 0 1 -60.0000069-60 59.999995 59.999995 0 0 1 60.0000069-59.99999 59.999995 59.999995 0 0 1 59.999985 59.99999z" fill="#deddda"/><rect fill="#d5d3cf" height="114" rx="56" width="112" x="8" y="179"/><path d="m123.99993 235a59.999995 59.999995 0 0 1 -59.999985 59.99999 59.999995 59.999995 0 0 1 -60.0000069-59.99999 59.999995 59.999995 0 0 1 60.0000069-60 59.999995 59.999995 0 0 1 59.999985 60z" fill="#f6f5f4"/></g><path d="m116.35051 48.275536c-.12688-.496862-.26996-1.028829-.41844-1.555394-.28617-1.001827-.61283-2.014454-.96648-3.016278-.73701-2.087362-1.6198-4.126116-2.64837-6.137867-.43465-.847906-.90979-1.709314-1.40653-2.562622-2.32171-3.947894-5.24004-7.687862-8.7334-11.184799-4.454447-4.455557-9.30574-7.974097-14.586281-10.566421-4.494939-2.208876-9.316537-3.7237647-14.429697-4.5419677-1.860068-.297037-3.752531-.502262-5.725985-.612975-1.10956-.0621-2.270417-.0972-3.442069-.0972-1.069067 0-2.127335.0297-3.191003.0864-.766703.0405-1.528008.0918-2.294714.164727-6.503485.594073-12.561529 2.2655827-18.182227 5.0334287-5.215747 2.562619-10.056243 6.075759-14.510687 10.531316-10.210123 10.212678-15.477167 22.483012-15.798427 36.7867q-.0162.696689-.0162 1.401476c0 14.913966 5.272442 27.648757 15.814625 38.18277 9.75118 9.75362 21.373227 14.99498 34.855343 15.72137.0405.005.0864.005.132273.0108h.0459c.971879.0513 1.897863.081 2.80225.081h.342859c1.177052 0 2.346006-.0351 3.442069-.0918.286165-.0162.542632-.0351.7937-.0513 2.310911-.16472 4.56513-.46445 6.714063-.88031.909784-.17822 1.806074-.37804 2.678066-.58867 9.243645-2.32229 17.404725-7.04788 24.566932-14.19838.69651-.696683 1.37142-1.401472 2.00315-2.092758 4.55973-5.017227 7.9802-10.480011 10.27761-16.420753 1.04207-2.684135 1.84657-5.462784 2.4378-8.357546.59392-2.95147.95028-6.024454 1.05826-9.205451.0216-.691286.0351-1.401475.0351-2.117064 0-.0756 0-.153927 0-.229527 0-.0405 0-.0756 0-.1134 0-.353744-.005-.71019-.0108-1.069335-.0972-4.255733-.63442-8.352143-1.62519-12.31624" fill="url(#a)" stroke-width="2.7"/><path d="m64 7.7240484a54 54 0 0 0 -54 53.9999996 54 54 0 0 0 .0415 1.1709 54 54 0 0 1 53.9585-53.1708996 54 54 0 0 1 53.9585 52.8281296 54 54 0 0 0 .0415-.82813 54 54 0 0 0 -54.00001-53.9999996z" opacity=".1"/><g stroke-width="2.7"><path d="m117.77051 67.467502-42.986703-45.954003-5.948101 5.3298-9.360901-9.2637-3.4236 10.2222 8.073001 8.364601-25.461002 64.2843 14.563801 14.56381c34.643702-9.94141 61.022705-17.574306 64.543505-47.555108" fill="url(#b)" opacity=".2"/><path d="m55.910805 32.3135c-1.755 4.5792-2.0682 8.577901-6.561 11.348101-11.520901 5.5755-20.422801 18.1548-20.439001 31.851901 0 19.386001 15.714 35.099998 35.100002 35.099998v-8.1c-14.912101 0-27.000002-12.087897-27.000002-26.999998s12.087901-27.000001 27.000002-27.000001v-13.500001c-3.283201-.2511-5.724001-1.3095-8.100001-2.7" fill="#fdfcdf"/><path d="m72.110806 32.3135c-2.1141 1.1367-5.3244 2.9052-8.1 2.7v75.6a35.100002 35.100002 0 0 0 35.100002-35.099998 35.100002 35.100002 0 0 0 -20.729883-31.978126c-3.456-2.3328-5.7645-6.480001-6.2694-11.221201" fill="url(#c)"/></g><g transform="matrix(2.7000002 0 0 2.7000002 -.789198 -2.786502)"><g fill="#78af52"><path d="m20.428 6c-.018.055-.035.11-.048.157q-1.559 5.157 3.275 6.843c.943-2.635-.048-4.909-2.984-6.843-.07-.047-.156-.102-.244-.157"/><path d="m25.04 13c-.249-2.02.742-3.361 2.963-4-.242 2.223-1.228 3.554-2.963 4"/></g><g stroke-width="2"><path d="m24 19a10 10 0 0 0 -10 10 10 10 0 0 0 10 10v-3a7 7 0 0 1 -7-7 7 7 0 0 1 7-7z" fill="#eaeace"/><path d="m24 22a7 7 0 0 0 -7 7 7 7 0 0 0 7 7v-3a4 4 0 0 1 -4-4 4 4 0 0 1 4-4z" fill="#d1d1b8"/><path d="m24 25a4 4 0 0 0 -4 4 4 4 0 0 0 4 4z" fill="#bfbfa9"/></g></g></svg>