<svg width="128" height="128" viewBox="0 0 128 128" fill="none" xmlns="http://www.w3.org/2000/svg">
<g id="ulauncher-indicator">
<g id="shadow">
<path id="ulauncher" d="M18.3433 53.8413C18.5889 80.7754 18.8903 91.1825 31.5266 103.437C40.7447 112.377 56.9735 114.349 66.6021 113.953C88.6953 113.043 110.972 102.893 110.97 67.9344C111 15.3274 111 15.3274 111 15.3274L108.327 14L85.2035 24.1351C85.2035 24.1351 85.2551 53.2411 85.2551 71.8909C85.2551 81.7139 84.2903 88.2445 73.6047 91.2822C68.3711 92.7701 57.4422 94.2389 51.1883 88.7094C44.5178 82.8116 43.5761 76.702 43.6863 69.0242C43.8824 55.3554 43.6136 42.6578 43.6136 42.6578L42.8438 41.8761L18.3433 53.8413Z" fill="url(#paint0_linear)"/>
<path id="ulauncher_2" d="M110.97 67.9345C110.972 102.893 88.6952 113.043 66.6021 113.953L65.1171 110.903L70.4626 92.7611C81.1482 89.7233 85.2551 81.714 85.2551 71.891L108.327 66.2124L110.97 67.9345Z" fill="url(#paint1_linear)"/>
<path id="ulauncher_3" d="M66.602 113.953C56.9734 114.349 40.7446 112.377 31.5266 103.437C25.6861 97.7731 22.4806 92.5037 20.6979 85.8147L42.8438 67.5398L43.6862 69.0242C43.576 76.702 44.5178 82.8116 51.1883 88.7094C57.4421 94.2389 65.6745 92.9215 70.9081 91.4336L65.117 111.345L66.602 113.953Z" fill="#3584E4"/>
<path id="ulauncher_4" opacity="0.4" d="M18.3433 53.8413C18.5889 80.7754 18.8903 91.1825 31.5266 103.437C40.7447 112.377 56.9735 114.349 66.6021 113.953C88.6953 113.043 110.972 102.893 110.97 67.9345C110.966 14.1518 111 15.3274 111 15.3274L108.327 14L85.2035 24.1351C85.2035 24.1351 85.2551 53.2411 85.2551 71.891C85.2551 81.714 84.2903 88.2445 73.6047 91.2823C68.3711 92.7702 57.4422 94.2389 51.1883 88.7095C44.5178 82.8116 43.5761 76.702 43.6863 69.0242C43.8824 55.3554 43.6136 42.6578 43.6136 42.6578L42.8438 41.8761L18.3433 53.8413Z" fill="url(#paint2_linear)"/>
</g>
<g id="solid">
<path id="ulauncher_5" d="M18 52.8613C18.2391 79.0177 18.5326 89.1243 30.8345 101.025C39.8086 109.707 55.6079 111.622 64.9818 111.237C86.4903 110.354 108.177 100.497 108.175 66.5475C108.172 14.3177 108.205 14.1703 108.205 14.1703L83.0909 24.0128C83.0909 24.0128 83.1412 52.2784 83.1412 70.3898C83.1412 79.9292 82.2019 86.2712 71.7991 89.2212C66.704 90.6662 56.0642 92.0925 49.9759 86.7227C43.4819 80.9952 42.5651 75.0619 42.6724 67.6058C42.8633 54.3317 42.6016 42.0007 42.6016 42.0007L18 52.8613Z" fill="url(#paint3_linear)"/>
<path id="ulauncher_6" d="M108.175 66.5476C108.177 100.497 86.4903 110.354 64.9818 111.237L71.7991 89.2213C82.2019 86.2712 83.1412 79.9293 83.1412 70.3899L108.175 66.5476Z" fill="url(#paint4_linear)"/>
<path id="ulauncher_7" d="M64.9818 111.237C55.6079 111.622 39.8086 109.707 30.8345 101.025C25.1485 95.5246 22.0279 90.4074 20.2924 83.9115L42.6724 67.6058C42.5651 75.062 43.4819 80.9952 49.9759 86.7227C56.0642 92.0925 66.704 90.6662 71.799 89.2212L64.9818 111.237Z" fill="#3584E4"/>
</g>
</g>
<defs>
<linearGradient id="paint0_linear" x1="18.3433" y1="64" x2="111" y2="64" gradientUnits="userSpaceOnUse">
<stop stop-color="#33D17A"/>
</linearGradient>
<linearGradient id="paint1_linear" x1="65.1171" y1="90.0826" x2="110.97" y2="90.0826" gradientUnits="userSpaceOnUse">
<stop stop-color="#C0BFBC"/>
</linearGradient>
<linearGradient id="paint2_linear" x1="18.3433" y1="64" x2="111" y2="64" gradientUnits="userSpaceOnUse">
<stop stop-color="#241F31"/>
</linearGradient>
<linearGradient id="paint3_linear" x1="18" y1="62.7267" x2="108.205" y2="62.7267" gradientUnits="userSpaceOnUse">
<stop stop-color="#33D17A"/>
</linearGradient>
<linearGradient id="paint4_linear" x1="64.9818" y1="88.8924" x2="108.175" y2="88.8924" gradientUnits="userSpaceOnUse">
<stop stop-color="#C0BFBC"/>
</linearGradient>
</defs>
</svg>
