<svg fill="none" height="128" viewBox="0 0 128 128" width="128" xmlns="http://www.w3.org/2000/svg" xmlns:xlink="http://www.w3.org/1999/xlink">
  <linearGradient id="paint0_linear" gradientUnits="userSpaceOnUse" x1="116" x2="12" y1="117.999" y2="117.999">
    <stop offset="0" stop-color="#d5d3cf"/>
    <stop offset=".038" stop-color="#e3e2df"/>
    <stop offset=".077" stop-color="#c0bfbc"/>
    <stop offset=".923" stop-color="#c0bfbc"/>
    <stop offset=".962" stop-color="#e3e2df"/>
    <stop offset="1" stop-color="#d5d3cf"/>
  </linearGradient>
  <path d="m108 68h-88c-4.4183 0-8 3.5817-8 8v32c0 4.418 3.5817 8 8 8h88c4.418 0 8-3.582 8-8v-32c0-4.4183-3.582-8-8-8z" fill="url(#paint0_linear)"/>
  <path d="m20 10c-4.432 0-8 3.568-8 8v42 42c0 4.432 3.568 8 8 8h44 44c4.432 0 8-3.568 8-8v-42-42c0-4.432-3.568-8-8-8z" fill="#f6f5f4"/>
  <path clip-rule="evenodd" d="m20 14c-2.2229 0-4 1.7771-4 4v84c0 2.223 1.7771 4 4 4h88c2.223 0 4-1.777 4-4v-84c0-2.2229-1.777-4-4-4zm-8 4c0-4.432 3.568-8 8-8h88c4.432 0 8 3.568 8 8v84c0 4.432-3.568 8-8 8h-88c-4.432 0-8-3.568-8-8z" fill="#f66151" fill-rule="evenodd"/>
  <g fill="#241f31" opacity=".4">
    <path clip-rule="evenodd" d="m68.1031 51.5h-5.8527v36.6152h.0142c-.0327.5865-.1641 1.1639-.3894 1.7078-.2624.6335-.6469 1.2091-1.1318 1.6939-.4848.4848-1.0604.8694-1.6938 1.1318-.6335.2624-1.3124.3974-1.9981.3974-.6856 0-1.3645-.135-1.998-.3974-.6334-.2624-1.209-.647-1.6938-1.1318-.4849-.4848-.8695-1.0604-1.1318-1.6939-.2624-.6334-.3975-1.3124-.3975-1.998h-5.8304c0 1.4513.2859 2.8884.8412 4.2292.2133.5148.4647 1.0116.7515 1.4863.4603.7618 1.012 1.4669 1.6442 2.0991 1.0263 1.0262 2.2446 1.8403 3.5854 2.3957s2.7779.8412 4.2292.8412c1.4514 0 2.8885-.2858 4.2293-.8412s2.5591-1.3695 3.5854-2.3957c.6322-.6322 1.1839-1.3373 1.6442-2.0991.2868-.4747.5382-.9715.7514-1.4863.5184-1.2514.802-2.5866.8375-3.939h.0038v-.2902z" fill-rule="evenodd"/>
    <path d="m46 84.3199c0-.5522.4477-1 1-1h3.8281c.5523 0 1 .4478 1 1v3.7188h-5.8281z"/>
  </g>
  <path clip-rule="evenodd" d="m67.6031 51.1488h-5.8527v36.6152h.0142c-.0327.5865-.1641 1.1639-.3894 1.7078-.2624.6335-.6469 1.2091-1.1318 1.6939-.4848.4848-1.0604.8694-1.6938 1.1318-.6335.2624-1.3124.3974-1.9981.3974-.6856 0-1.3645-.135-1.998-.3974-.6334-.2624-1.209-.647-1.6938-1.1318-.4849-.4848-.8695-1.0604-1.1318-1.6939-.2624-.6334-.3975-1.3124-.3975-1.998h-5.8304c0 1.4513.2859 2.8884.8412 4.2292.2133.5148.4647 1.0116.7515 1.4863.4603.7618 1.012 1.4669 1.6442 2.0991 1.0263 1.0262 2.2446 1.8403 3.5854 2.3957s2.7779.8412 4.2292.8412c1.4514 0 2.8885-.2858 4.2293-.8412s2.5591-1.3695 3.5854-2.3957c.6322-.6322 1.1839-1.3373 1.6442-2.0991.2868-.4747.5382-.9715.7514-1.4863.5184-1.2514.802-2.5866.8375-3.939h.0038v-.2902z" fill="#b5835a" fill-rule="evenodd"/>
  <path d="m45.5 83.9687c0-.5522.4477-.9999 1-.9999h3.8281c.5523 0 1 .4477 1 .9999v3.7188h-5.8281z" fill="#b5835a"/>
  <g fill="#241f31" opacity=".4">
    <circle cx="45" cy="56.4568" r="10"/>
    <circle cx="65" cy="56.4568" r="10"/>
    <circle cx="85" cy="56.4568" r="10"/>
    <path d="m95 55.8943c0-7.9564-3.1607-15.5871-8.7868-21.2132-5.6261-5.626-13.2567-8.7868-21.2132-8.7868s-15.5871 3.1608-21.2132 8.7868c-5.6261 5.6261-8.7868 13.2567-8.7868 21.2132h30z"/>
    <rect height="7.66641" rx="2" transform="matrix(.9998477 -.01745241 .01745241 .9998477 -.376756 1.074893)" width="7.07342" x="61.3969" y="22.1234"/>
  </g>
  <g fill="#f66151">
    <circle cx="44" cy="55.9316" r="10"/>
    <circle cx="64" cy="55.9316" r="10"/>
    <circle cx="84" cy="55.9316" r="10"/>
    <path d="m94 55.369c0-7.9564-3.1607-15.5871-8.7868-21.2132-5.6261-5.626-13.2567-8.7868-21.2132-8.7868s-15.5871 3.1608-21.2132 8.7868c-5.6261 5.6261-8.7868 13.2568-8.7868 21.2132h30z"/>
    <rect height="7.66641" rx="2" transform="matrix(.9998477 -.01745241 .01745241 .9998477 -.36774 1.057361)" width="7.07342" x="60.3969" y="21.5981"/>
  </g>
</svg>
