<svg xmlns="http://www.w3.org/2000/svg" width="128" height="128" viewBox="0 0 128 128">
 <g id="video-cutter">
  <path fill="#613583" fill-rule="evenodd" d="M19 21H105C109.418 21 113 24.9399 113 29.8V100.2C113 105.001 109.504 105.001 105.16 105L105 105H19L18.9124 105C16.4729 105.001 12 105.002 12 100.2V29.8C12 24.9399 14.5817 21 19 21ZM21.0773 94.5645C20.9039 94.5632 20.7387 94.5991 20.5881 94.6618C20.1365 94.8498 19.8189 95.2944 19.816 95.8144L19.7851 101.983C19.7813 102.676 20.3402 103.241 21.032 103.245L31.2408 103.294C31.9326 103.298 32.5001 102.739 32.5028 102.047L32.5331 95.8756C32.5357 95.1841 31.9764 94.6181 31.2831 94.6143L21.0773 94.5645ZM36.212 94.6394C36.0387 94.6383 35.8763 94.673 35.7257 94.7359C35.2743 94.9245 34.9535 95.3694 34.9507 95.8893L34.9228 102.058C34.919 102.751 35.4798 103.316 36.1727 103.319L46.3755 103.369C47.0684 103.372 47.6345 102.812 47.6368 102.119L47.6677 95.9505C47.6715 95.2573 47.1114 94.6945 46.4185 94.6922L36.212 94.6394ZM51.3497 94.7138C51.1762 94.712 51.0109 94.7478 50.8604 94.8106C50.409 94.999 50.0904 95.445 50.0884 95.9636L50.0574 102.132C50.0548 102.824 50.6142 103.39 51.3074 103.394L61.5132 103.444C62.2065 103.448 62.7711 102.889 62.7752 102.197L62.8055 96.0249C62.8095 95.3331 62.2503 94.7671 61.5585 94.763L51.3497 94.7138ZM66.4874 94.7881C66.3143 94.7864 66.1484 94.8218 65.998 94.8847C65.5472 95.0732 65.2289 95.5179 65.2261 96.0378L65.1951 102.207C65.1914 102.9 65.7518 103.464 66.4451 103.468L76.6509 103.518C76.9958 103.52 77.3099 103.38 77.5381 103.155C77.6523 103.042 77.7473 102.905 77.8117 102.755C77.8761 102.605 77.9112 102.441 77.9122 102.268L77.9431 96.0992C77.9469 95.4059 77.3854 94.8435 76.6939 94.8409L66.4874 94.7881ZM81.625 94.8622C81.4515 94.8602 81.2862 94.896 81.1357 94.9588C80.6842 95.1472 80.3668 95.5931 80.3637 96.112L80.3328 102.281C80.3287 102.973 80.8882 103.54 81.5797 103.543L91.7892 103.595C92.4807 103.598 93.0438 103.039 93.0475 102.346L93.0785 96.1769C93.0822 95.4837 92.5241 94.9157 91.8308 94.912L81.625 94.8622ZM96.7603 94.9397C96.5868 94.9379 96.4239 94.9702 96.2733 95.0329C95.8217 95.2209 95.5011 95.6664 95.4983 96.1863L95.4703 102.355C95.4666 103.048 96.0255 103.612 96.7173 103.616L106.923 103.667C107.616 103.67 108.182 103.111 108.185 102.42L108.215 96.2478C108.218 95.5563 107.659 94.9932 106.966 94.9895L96.7603 94.9397ZM20.5881 25.6618C20.7387 25.5991 20.9039 25.5632 21.0773 25.5645L31.2831 25.6143C31.9764 25.6181 32.5357 26.1841 32.5331 26.8756L32.5028 33.0474C32.5001 33.7389 31.9326 34.2985 31.2408 34.2944L21.032 34.2452C20.3402 34.2411 19.7813 33.6765 19.7851 32.9832L19.816 26.8144C19.8189 26.2944 20.1365 25.8498 20.5881 25.6618ZM35.7257 25.7359C35.8763 25.6729 36.0387 25.6383 36.212 25.6394L46.4185 25.6922C47.1114 25.6945 47.6715 26.2573 47.6677 26.9505L47.6368 33.1194C47.6345 33.8123 47.0684 34.3716 46.3755 34.3693L36.1727 34.3188C35.4798 34.3164 34.919 33.7507 34.9228 33.0575L34.9507 26.8893C34.9535 26.3694 35.2743 25.9245 35.7257 25.7359ZM50.8604 25.8106C51.0109 25.7478 51.1762 25.712 51.3497 25.7138L61.5585 25.763C62.2503 25.7671 62.8095 26.3331 62.8055 27.0249L62.7752 33.1968C62.7711 33.8886 62.2065 34.4475 61.5132 34.4438L51.3074 34.3937C50.6142 34.39 50.0548 33.824 50.0574 33.1325L50.0884 26.9636C50.0904 26.445 50.409 25.999 50.8604 25.8106ZM65.998 25.8847C66.1484 25.8218 66.3143 25.7864 66.4874 25.7881L76.6939 25.8409C77.3854 25.8435 77.9469 26.4059 77.9431 27.0992L77.9122 33.268C77.9112 33.4414 77.8761 33.6048 77.8117 33.7548C77.7473 33.9048 77.6523 34.0419 77.5381 34.1551C77.3099 34.3802 76.9958 34.52 76.6509 34.518L66.4451 34.468C65.7518 34.4643 65.1914 33.9 65.1951 33.2067L65.2261 27.0378C65.2289 26.5179 65.5472 26.0732 65.998 25.8847ZM81.1357 25.9588C81.2862 25.896 81.4515 25.8602 81.625 25.8622L91.8308 25.912C92.5241 25.9157 93.0822 26.4837 93.0785 27.1769L93.0475 33.3458C93.0438 34.039 92.4807 34.5977 91.7892 34.5951L81.5797 34.5428C80.8882 34.5402 80.3287 33.9726 80.3328 33.2808L80.3637 27.1119C80.3668 26.5931 80.6842 26.1472 81.1357 25.9588ZM96.2733 26.0329C96.4239 25.9702 96.5868 25.9379 96.7603 25.9397L106.966 25.9895C107.659 25.9932 108.218 26.5563 108.215 27.2478L108.185 33.4197C108.182 34.1112 107.616 34.6704 106.923 34.6666L96.7173 34.6165C96.0255 34.6124 95.4666 34.0478 95.4703 33.3545L95.4983 27.1863C95.5011 26.6664 95.8217 26.2209 96.2733 26.0329ZM84.0863 65.6574C85.3046 64.8693 85.3046 63.087 84.0863 62.2989L56.2998 44.324C54.969 43.4632 53.2135 44.4184 53.2135 46.0033V81.953C53.2135 83.5379 54.969 84.4931 56.2998 83.6323L84.0863 65.6574Z" clip-rule="evenodd"/>
  <path fill="#9141AC" fill-rule="evenodd" d="M16 20H112C116.418 20 120 23.9399 120 28.8V99.2C120 104.06 116.418 108 112 108H16C11.5817 108 8 104.06 8 99.2V28.8C8 23.9399 11.5817 20 16 20ZM21.0773 93.5645C20.9039 93.5632 20.7387 93.5991 20.5881 93.6618C20.1365 93.8498 19.8189 94.2944 19.816 94.8144L19.7851 100.983C19.7813 101.676 20.3402 102.241 21.032 102.245L31.2408 102.294C31.9326 102.298 32.5001 101.739 32.5028 101.047L32.5331 94.8756C32.5357 94.1841 31.9764 93.6181 31.2831 93.6143L21.0773 93.5645ZM36.212 93.6394C36.0387 93.6383 35.8763 93.673 35.7257 93.7359C35.2743 93.9245 34.9535 94.3694 34.9507 94.8893L34.9228 101.058C34.919 101.751 35.4798 102.316 36.1727 102.319L46.3755 102.369C47.0684 102.372 47.6345 101.812 47.6368 101.119L47.6677 94.9505C47.6715 94.2573 47.1114 93.6945 46.4185 93.6922L36.212 93.6394ZM51.3497 93.7138C51.1762 93.712 51.0109 93.7478 50.8604 93.8106C50.409 93.999 50.0904 94.445 50.0884 94.9636L50.0574 101.132C50.0548 101.824 50.6142 102.39 51.3074 102.394L61.5132 102.444C62.2065 102.448 62.7711 101.889 62.7752 101.197L62.8055 95.0249C62.8095 94.3331 62.2503 93.7671 61.5585 93.763L51.3497 93.7138ZM66.4874 93.7881C66.3143 93.7864 66.1484 93.8218 65.998 93.8847C65.5472 94.0732 65.2289 94.5179 65.2261 95.0378L65.1951 101.207C65.1914 101.9 65.7518 102.464 66.4451 102.468L76.6509 102.518C76.9958 102.52 77.3099 102.38 77.5381 102.155C77.6523 102.042 77.7473 101.905 77.8117 101.755C77.8761 101.605 77.9112 101.441 77.9122 101.268L77.9431 95.0992C77.9469 94.4059 77.3854 93.8435 76.6939 93.8409L66.4874 93.7881ZM81.625 93.8622C81.4515 93.8602 81.2862 93.896 81.1357 93.9588C80.6842 94.1472 80.3668 94.5931 80.3637 95.112L80.3328 101.281C80.3287 101.973 80.8882 102.54 81.5797 102.543L91.7892 102.595C92.4807 102.598 93.0438 102.039 93.0475 101.346L93.0785 95.1769C93.0822 94.4837 92.5241 93.9157 91.8308 93.912L81.625 93.8622ZM96.7603 93.9397C96.5868 93.9379 96.4239 93.9702 96.2733 94.0329C95.8217 94.2209 95.5011 94.6664 95.4983 95.1863L95.4703 101.355C95.4666 102.048 96.0255 102.612 96.7173 102.616L106.923 102.667C107.616 102.67 108.182 102.111 108.185 101.42L108.215 95.2478C108.218 94.5563 107.659 93.9932 106.966 93.9895L96.7603 93.9397ZM20.5881 24.6618C20.7387 24.5991 20.9039 24.5632 21.0773 24.5645L31.2831 24.6143C31.9764 24.6181 32.5357 25.1841 32.5331 25.8756L32.5028 32.0474C32.5001 32.7389 31.9326 33.2985 31.2408 33.2944L21.032 33.2452C20.3402 33.2411 19.7813 32.6765 19.7851 31.9832L19.816 25.8144C19.8189 25.2944 20.1365 24.8498 20.5881 24.6618ZM35.7257 24.7359C35.8763 24.6729 36.0387 24.6383 36.212 24.6394L46.4185 24.6922C47.1114 24.6945 47.6715 25.2573 47.6677 25.9505L47.6368 32.1194C47.6345 32.8123 47.0684 33.3716 46.3755 33.3693L36.1727 33.3188C35.4798 33.3164 34.919 32.7507 34.9228 32.0575L34.9507 25.8893C34.9535 25.3694 35.2743 24.9245 35.7257 24.7359ZM50.8604 24.8106C51.0109 24.7478 51.1762 24.712 51.3497 24.7138L61.5585 24.763C62.2503 24.7671 62.8095 25.3331 62.8055 26.0249L62.7752 32.1968C62.7711 32.8886 62.2065 33.4475 61.5132 33.4438L51.3074 33.3937C50.6142 33.39 50.0548 32.824 50.0574 32.1325L50.0884 25.9636C50.0904 25.445 50.409 24.999 50.8604 24.8106ZM65.998 24.8847C66.1484 24.8218 66.3143 24.7864 66.4874 24.7881L76.6939 24.8409C77.3854 24.8435 77.9469 25.4059 77.9431 26.0992L77.9122 32.268C77.9112 32.4414 77.8761 32.6048 77.8117 32.7548C77.7473 32.9048 77.6523 33.0419 77.5381 33.1551C77.3099 33.3802 76.9958 33.52 76.6509 33.518L66.4451 33.468C65.7518 33.4643 65.1914 32.9 65.1951 32.2067L65.2261 26.0378C65.2289 25.5179 65.5472 25.0732 65.998 24.8847ZM81.1357 24.9588C81.2862 24.896 81.4515 24.8602 81.625 24.8622L91.8308 24.912C92.5241 24.9157 93.0822 25.4837 93.0785 26.1769L93.0475 32.3458C93.0438 33.039 92.4807 33.5977 91.7892 33.5951L81.5797 33.5428C80.8882 33.5402 80.3287 32.9726 80.3328 32.2808L80.3637 26.1119C80.3668 25.5931 80.6842 25.1472 81.1357 24.9588ZM96.2733 25.0329C96.4239 24.9702 96.5868 24.9379 96.7603 24.9397L106.966 24.9895C107.659 24.9932 108.218 25.5563 108.215 26.2478L108.185 32.4197C108.182 33.1112 107.616 33.6704 106.923 33.6666L96.7173 33.6165C96.0255 33.6124 95.4666 33.0478 95.4703 32.3545L95.4983 26.1863C95.5011 25.6664 95.8217 25.2209 96.2733 25.0329ZM85.4666 64.6793C86.6849 63.8912 86.6849 62.1088 85.4666 61.3208L57.6801 43.3459C56.3493 42.4851 54.5938 43.4403 54.5938 45.0252V80.9749C54.5938 82.5598 56.3493 83.515 57.6801 82.6542L85.4666 64.6793Z" clip-rule="evenodd"/>
  <path fill="#613583" d="M8 98V100C8 104.432 11.568 108 16 108H112C116.432 108 120 104.432 120 100V98C120 102.432 116.432 106 112 106H16C11.568 106 8 102.432 8 98Z"/>
  <path fill="#241F31" fill-rule="evenodd" opacity=".4" d="M84.8545 41.4892C85.584 41.731 87.3371 43.1401 88.4814 44.4055L88.4814 44.4055C89.4911 45.5219 89.9562 46.2631 90.6892 47.919C91.6858 50.1682 92.088 51.8332 92.0111 53.3852C91.9555 54.5053 91.3617 62.4182 90.6757 71.197C90.1853 77.473 90.1554 77.8777 89.9449 80.8289C89.8422 82.2685 89.7611 83.56 89.765 83.6996C89.7669 83.7655 89.7827 83.8296 89.8093 83.8951C89.9221 84.1725 90.3101 84.5008 91.47 85.3508C92.9255 86.4187 94.7101 87.9197 95.7806 88.9761C96.9227 90.1033 99.6285 93.0933 100.561 94.2596C100.979 94.7819 101.336 95.2152 101.357 95.2231C101.376 95.2319 101.703 94.7224 102.081 94.0924C103.42 91.8597 104.674 90.6889 106.929 89.569C111.072 87.5111 116.225 88.5638 119.505 92.1377C119.759 92.4147 120.128 92.8824 120.326 93.1781C120.78 93.857 121.581 95.6864 121.883 96.734C122.752 99.751 121.963 103.366 119.866 105.969C117.514 108.89 114.076 110.347 110.367 109.996C108.218 109.793 106.352 109.004 104.362 107.457C103.238 106.583 102.721 105.944 100.854 103.119C98.349 99.3247 96.3166 96.5355 94.9635 95.0299C94.1951 94.1733 93.255 93.3872 92.3646 92.852C91.4644 92.311 89.6651 91.6093 88.7142 91.4287C88.0515 91.3028 87.9581 91.3054 87.608 91.4599C87.2733 91.6076 87.1886 91.6881 86.9345 92.1009C85.9472 93.7043 85.2409 96.0403 85.2217 97.7692C85.1992 99.7995 85.868 103.495 87.202 108.718C88.1731 112.521 88.2558 113.042 88.1309 114.543C87.806 118.447 86.2306 121.281 83.2537 123.314C82.3352 123.941 80.7876 124.606 79.7431 124.823C78.1898 125.144 76.5812 125.178 75.1108 124.918C73.0543 124.554 70.4773 122.986 68.9051 121.142C68.5023 120.668 68.379 120.457 67.8168 119.267C66.7937 117.101 66.511 115.939 66.5663 114.126C66.645 111.55 67.5324 109.25 69.1973 107.307C71.6524 104.442 75.5241 103.118 79.328 103.841L80.5707 104.078C81.1353 104.185 81.2371 104.148 81.1183 103.878C80.9532 103.504 80.4402 98.9778 80.3201 96.837C80.2051 94.7895 80.2831 91.7717 80.4963 90.0266C80.6538 88.7369 80.6857 88.2054 80.6161 88.0478C80.6154 88.0461 80.61 88.0408 80.6048 88.0357C80.6006 88.0315 80.5964 88.0274 80.5951 88.0255C80.4397 87.7959 78.0905 85.9372 66.4053 76.7954C57.937 70.1704 55.6454 68.3098 55.0912 67.6105C54.6152 67.0098 52.6067 62.5934 52.4182 61.7319C52.0346 59.9807 52.0893 57.1153 52.5297 55.8713C52.6307 55.5861 52.6689 55.5444 52.7821 55.594C52.8553 55.6263 53.7881 56.3335 54.8542 57.1659C77.6485 74.9624 81.5319 77.9746 81.6303 77.9312C81.6537 77.9209 81.6834 77.8431 81.6956 77.7578C81.7779 77.1791 82.3834 69.5853 83.7159 52.4508C84.1343 47.0711 84.5366 42.2556 84.6077 41.7645C84.6563 41.4296 84.6606 41.4249 84.8545 41.4892ZM115.527 103.991C118.093 101.748 118.355 97.8504 116.113 95.2846C113.87 92.7188 109.972 92.4566 107.407 94.6991C104.841 96.9415 104.579 100.839 106.821 103.405C109.064 105.971 112.961 106.233 115.527 103.991ZM81.3193 118.99C83.8851 116.748 84.1473 112.85 81.9048 110.284C79.6624 107.718 75.7646 107.456 73.1988 109.698C70.633 111.941 70.3708 115.839 72.6133 118.404C74.8557 120.97 78.7535 121.232 81.3193 118.99Z" clip-rule="evenodd"/>
  <path fill="#C0BFBC" d="M88.4814 42.6235C87.3371 41.3581 85.584 39.949 84.8545 39.7072C84.6606 39.6429 84.6563 39.6476 84.6077 39.9825C84.5366 40.4736 84.1343 45.2891 83.7159 50.6688C82.3834 67.8033 81.7779 75.3971 81.6956 75.9758C81.6834 76.0611 81.6537 76.1389 81.6303 76.1492C81.5319 76.1926 77.6485 73.1804 54.8542 55.3839C53.7881 54.5515 52.8553 53.8443 52.7821 53.812C52.6689 53.7624 52.6307 53.8041 52.5297 54.0893C52.0893 55.3333 52.0346 58.1987 52.4182 59.9499C52.6067 60.8114 54.6152 65.2278 55.0912 65.8285C55.6454 66.5278 57.937 68.3884 66.4053 75.0134C78.0905 84.1552 80.4397 86.0139 80.5951 86.2435C81.3327 85.7171 84.8492 82.3296 84.8492 82.3296L85.1937 82.354L89.8093 82.1131C89.7827 82.0476 89.7669 81.9835 89.765 81.9176C89.7611 81.778 89.8422 80.4865 89.9449 79.0469C90.1554 76.0957 90.1853 75.691 90.6757 69.415C91.3617 60.6362 91.9555 52.7233 92.0111 51.6032C92.088 50.0512 91.6858 48.3862 90.6892 46.137C89.9562 44.4811 89.4911 43.7399 88.4814 42.6235L88.4814 42.6235Z"/>
  <path fill="#F6D32D" d="M119.505 90.3557C116.225 86.7818 111.072 85.7291 106.929 87.787C104.674 88.9069 103.42 90.0777 102.081 92.3104C101.703 92.9403 101.376 93.4499 101.357 93.4411C101.336 93.4332 100.979 92.9999 100.561 92.4776C99.6285 91.3113 96.9227 88.3213 95.7806 87.1941C94.7101 86.1377 92.9255 84.6367 91.47 83.5688C90.3101 82.7188 89.9221 82.3905 89.8093 82.1131C84.2093 80.1856 82.4909 84.3299 80.5951 86.2435C80.598 86.2477 80.6148 86.2626 80.6161 86.2658C80.6857 86.4234 80.6538 86.9549 80.4963 88.2446C80.2831 89.9897 80.2051 93.0075 80.3201 95.055C80.4402 97.1958 80.9532 101.722 81.1183 102.096C81.2371 102.366 81.1353 102.403 80.5707 102.296C80.2785 102.24 79.7196 102.134 79.328 102.059C75.5241 101.336 71.6524 102.66 69.1973 105.525C67.5324 107.468 66.645 109.768 66.5663 112.344C66.511 114.157 66.7937 115.319 67.8168 117.485C68.379 118.675 68.5023 118.886 68.9051 119.36C70.4773 121.204 73.0543 122.772 75.1108 123.136C76.5812 123.396 78.1898 123.362 79.7431 123.041C80.7876 122.824 82.3351 122.159 83.2537 121.532C86.2306 119.499 87.806 116.665 88.1309 112.761C88.2558 111.26 88.1731 110.739 87.202 106.936C85.868 101.713 85.1992 98.0175 85.2217 95.9872C85.2409 94.2583 85.9472 91.9223 86.9345 90.3189C87.1886 89.9061 87.2733 89.8256 87.608 89.6779C87.9581 89.5234 88.0515 89.5208 88.7142 89.6467C89.6651 89.8273 91.4644 90.529 92.3646 91.07C93.255 91.6052 94.1951 92.3913 94.9635 93.2479C96.3166 94.7535 98.349 97.5427 100.854 101.337C102.721 104.162 103.238 104.801 104.362 105.675C106.352 107.222 108.218 108.011 110.367 108.214C114.076 108.565 117.514 107.108 119.866 104.187C121.963 101.584 122.752 97.969 121.883 94.952C121.581 93.9044 120.78 92.075 120.326 91.3961C120.128 91.1004 119.759 90.6327 119.505 90.3557L119.505 90.3557ZM116.113 93.5026C118.355 96.0684 118.093 99.9662 115.527 102.209C112.961 104.451 109.064 104.189 106.821 101.623C104.579 99.0573 104.841 95.1595 107.407 92.9171C109.972 90.6746 113.87 90.9368 116.113 93.5026V93.5026ZM81.9048 108.502C84.1473 111.068 83.8851 114.965 81.3193 117.208C78.7535 119.45 74.8557 119.188 72.6133 116.622C70.3708 114.057 70.633 110.159 73.1988 107.916C75.7646 105.674 79.6624 105.936 81.9048 108.502Z"/>
  <path fill="#9A9996" d="M84.0251 85.6647C84.8402 86.5975 86.2572 86.6928 87.1899 85.8776C88.1226 85.0624 88.2179 83.6455 87.4028 82.7127C86.5876 81.78 85.1706 81.6847 84.2379 82.4999C83.3052 83.3151 83.2099 84.732 84.0251 85.6647Z"/>
 </g>
</svg>
