<svg enable-background="new" height="128" viewBox="0 0 128 128" width="128" xmlns="http://www.w3.org/2000/svg">
  <g transform="translate(0 -172)">
    <text x="107.99998" y="390.00003"><tspan x="107.99998" y="397.90536"/></text>
    <g stroke-width=".513777" transform="matrix(1.8929253 0 0 1.8929253 1.007018 -264.04529)">
      <path d="m33.503217 232.20455c-1.073264.0131-2.098603.44652-2.855875 1.20718l-27.0696047 27.0696c-.7727953.76931-1.2059891 1.81563-1.2031604 2.90605h-.001v1.02756c-.00257 1.09058.4310004 2.1369 1.2041638 2.90605l27.0696033 27.0696c1.602822 1.61013 4.209276 1.61013 5.812097 0l27.069606-27.0696c.772796-.76931 1.205992-1.81562 1.203161-2.90605h.0011v-1.02756h-.0011c.0031-1.09042-.430365-2.13674-1.203161-2.90605l-27.069606-27.0696c-.781809-.78531-1.848179-1.22076-2.956222-1.20718z" fill="#019733"/>
      <path d="m123.4668 61.5c-.22158 1.684515-.98548 3.260499-2.20313 4.472656l-51.242186 51.242184c-3.03402 3.04786-7.96793 3.04786-11.001953 0l-51.2402341-51.242184c-1.2167729-1.210457-1.9800281-2.784396-2.203125-4.466797-.0441158.337336-.0751112.677471-.0742188 1.021485h-.0019531v1.945312c-.0048648 2.064387.8157563 4.044057 2.2792969 5.5l51.2402341 51.242184c3.034023 3.04786 7.967933 3.04786 11.001953 0l51.242186-51.242184c1.46285-1.456246 2.2827-3.435897 2.27735-5.5h.00195v-1.945312h-.00195c.00098-.345972-.02964-.688139-.07422-1.027344z" opacity=".2" stroke-width=".972542" transform="matrix(.52828286 0 0 .52828286 -.53199 230.35525)"/>
    </g>
  </g>
</svg>
