<svg fill="none" height="128" viewBox="0 0 128 128" width="128" xmlns="http://www.w3.org/2000/svg" xmlns:xlink="http://www.w3.org/1999/xlink">
  <linearGradient id="paint0_linear" gradientUnits="userSpaceOnUse" x1="116" x2="12" y1="117.999" y2="117.999">
    <stop offset="0" stop-color="#d5d3cf"/>
    <stop offset=".038" stop-color="#e3e2df"/>
    <stop offset=".077" stop-color="#c0bfbc"/>
    <stop offset=".923" stop-color="#c0bfbc"/>
    <stop offset=".962" stop-color="#e3e2df"/>
    <stop offset="1" stop-color="#d5d3cf"/>
  </linearGradient>
  <path d="m108 68h-88c-4.4183 0-8 3.5817-8 8v32c0 4.418 3.5817 8 8 8h88c4.418 0 8-3.582 8-8v-32c0-4.4183-3.582-8-8-8z" fill="url(#paint0_linear)"/>
  <path d="m20 10c-4.432 0-8 3.568-8 8v42 42c0 4.432 3.568 8 8 8h44 44c4.432 0 8-3.568 8-8v-42-42c0-4.432-3.568-8-8-8z" fill="#f6f5f4"/>
  <path clip-rule="evenodd" d="m20 14c-2.2229 0-4 1.7771-4 4v84c0 2.223 1.7771 4 4 4h88c2.223 0 4-1.777 4-4v-84c0-2.2229-1.777-4-4-4zm-8 4c0-4.432 3.568-8 8-8h88c4.432 0 8 3.568 8 8v84c0 4.432-3.568 8-8 8h-88c-4.432 0-8-3.568-8-8z" fill="#f66151" fill-rule="evenodd"/>
  <path clip-rule="evenodd" d="m26 45 11.34 31.5h6.525l11.295-31.5h-7.335l-6.795 19.845c-.21.63-.345 1.08-.405 1.35l-.135-.495c-.09-.36-.18-.645-.27-.855l-6.795-19.845zm37.5899.0001-11.34 31.5h7.425l6.795-19.845c.09-.21.18-.495.27-.855l.135-.495c.06.27.195.72.405 1.35l6.795 19.845h.675 6.66.765l6.795-19.845c.09-.21.18-.495.27-.855l.135-.495c.06.27.195.72.405 1.35l6.795 19.845h7.3351l-11.2951-31.5h-6.525l-8.0034 22.2316-7.9716-22.2316z" fill="#241f31" fill-rule="evenodd" opacity=".4"/>
  <path d="m36.385 75.7499-11.34-31.5h7.425l6.795 19.845c.09.21.18.495.27.855l.135.495c.06-.27.195-.72.405-1.35l6.795-19.845h7.335l-11.295 31.5z" fill="#f66151"/>
  <path clip-rule="evenodd" d="m51.295 75.75 11.34-31.4999h6.525l7.9716 22.2316 8.0033-22.2316h6.525l11.2951 31.4999h-7.3351l-6.795-19.845c-.21-.63-.345-1.08-.405-1.35l-.135.495c-.09.36-.18.645-.27.855l-6.7949 19.845h-.7651-6.6599-.675l-6.795-19.845c-.21-.63-.345-1.08-.405-1.35l-.135.495c-.09.36-.18.645-.27.855l-6.795 19.845z" fill="#77767b" fill-rule="evenodd"/>
</svg>
