<svg height="128" width="128" xmlns="http://www.w3.org/2000/svg" xmlns:xlink="http://www.w3.org/1999/xlink">
  <linearGradient id="linearGradient855" gradientUnits="userSpaceOnUse" x1="95.2854559509" x2="108.04839915768" y1="190.65999544538" y2="269.58344248223">
    <stop offset="0" stop-color="#3eb34f"/>
    <stop offset="1" stop-color="#2d903b"/>
  </linearGradient>
  <linearGradient id="linearGradient865" gradientUnits="userSpaceOnUse" x1="30.32092263111" x2="96.37794003879" y1="270.22987428968" y2="264.4128480206">
    <stop offset="0" stop-color="#2d903b"/>
    <stop offset=".968" stop-color="#1c7629"/>
    <stop offset="1" stop-color="#156b21"/>
  </linearGradient>
  <g transform="translate(0 -172)">
    <path d="m110.97901 277.56201-15.82715-94.97962c-.48712-2.92325-3.25083-4.88748-6.19667-4.4041l-74.443421 12.21571c-2.94584.48338-4.9252303 3.22592-4.4381 6.14918l15.82715 94.97962c.48713 2.92326 3.25084 4.8875 6.19667 4.4041l74.443421-12.21568c2.94586-.4834 4.92524-3.22594 4.4381-6.14921z" opacity=".2"/>
    <path d="m110.97901 275.45679-15.82715-94.97961c-.48712-2.92326-3.25083-4.88747-6.19667-4.40407l-74.443421 12.21567c-2.94584.48338-4.9252303 3.22594-4.4381 6.1492l15.82715 94.97963c.48713 2.92325 3.25084 4.88748 6.19667 4.40408l74.443421-12.21569c2.94586-.48338 4.92524-3.22592 4.4381-6.14921z" fill="#373538"/>
    <path d="m27.684219 260.21056h68.378981l2.42404 16.84212z" fill="url(#linearGradient865)"/>
    <path d="m83.68425 184.42105 23.80611 5.35122 11.98338 74.98751-20.9865 12.2929z" fill="url(#linearGradient855)"/>
    <path d="m64.86868 201.26317 14.25441 3.54826 6.66642 43.33336-12.50009 7.85524z" fill="#2d8039"/>
    <g fill="#3eb34f">
      <path d="m26.842119 221.40787 46.447301 34.59216 12.50009-7.85524-52.434201-28.95402z"/>
      <path d="m31.052489 248.77629 33.816191-47.51312 14.25441 3.54827-41.206541 44.02848z"/>
    </g>
  </g>
</svg>
