<svg enable-background="new" height="128" viewBox="0 0 128 128" width="128" xmlns="http://www.w3.org/2000/svg" xmlns:xlink="http://www.w3.org/1999/xlink">
  <linearGradient id="linearGradient1722">
    <stop offset="0" stop-color="#e01b24"/>
    <stop offset="1" stop-color="#f8e45c"/>
  </linearGradient>
  <linearGradient id="linearGradient1247" gradientUnits="userSpaceOnUse" x1="51.902428" x2="107.902428" y1="214.33333" y2="214.33333">
    <stop offset="0" stop-color="#949390"/>
    <stop offset=".091" stop-color="#deddda"/>
    <stop offset=".336" stop-color="#9a9996"/>
    <stop offset=".844" stop-color="#c3c0ba"/>
    <stop offset=".931" stop-color="#deddda"/>
    <stop offset="1" stop-color="#c0bfbc"/>
  </linearGradient>
  <radialGradient id="radialGradient1249" cx="-172" cy="20.939" gradientTransform="matrix(1.1986271 0 0 1.0945536 178.16386 153.90715)" gradientUnits="userSpaceOnUse" r="15.857">
    <stop offset="0" stop-color="#fff"/>
    <stop offset="1" stop-color="#fff" stop-opacity=".094488"/>
  </radialGradient>
  <radialGradient id="radialGradient2561" cx="131.915" cy="55.927" gradientTransform="matrix(1.0125135 2.1002674 -1.6092836 .11574215 -4.606311 -300.00018)" gradientUnits="userSpaceOnUse" r="160" xlink:href="#linearGradient1722"/>
  <radialGradient id="radialGradient3300" cx="525.588" cy="638.592" gradientTransform="matrix(-.56672219 1.0065537 -1.1024699 -.69087589 1449.8905 -224.44988)" gradientUnits="userSpaceOnUse" r="192">
    <stop offset="0" stop-color="#2ec27e"/>
    <stop offset="1" stop-color="#57e389" stop-opacity="0"/>
  </radialGradient>
  <linearGradient id="linearGradient895" gradientUnits="userSpaceOnUse" x1="45.617389" x2="110.154389" xlink:href="#linearGradient1722" y1="190.687114" y2="266.568114"/>
  <g transform="translate(0 -172)">
    <rect fill="#f6f5f4" height="104.042" rx="8" width="104" x="12" y="184"/>
    <circle cy="172" fill="#9059a1" r="0"/>
    <g enable-background="new" transform="matrix(.22916665983 0 0 .25781253393 5.33333727275 213.65625323857)">
      <path d="m64-172h384v256h-384z" fill="url(#radialGradient2561)" transform="scale(1 -1)"/>
      <path d="m64-172h384v256h-384z" fill="url(#radialGradient3300)" transform="scale(1 -1)"/>
    </g>
    <g transform="translate(-51.90243 4)">
      <path d="m79.804774 202.09766c-14.359403 0-26 11.6406-26 26 .0094 2.07202.266411.13548.765625 2.14648 2.686042-11.83218 13.198801-20.23347 25.332031-20.24414 11.981122.0132 22.40201 8.21199 25.23438 19.85352.43642-1.88774.66047.18166.66796-1.75586 0-14.3594-11.640594-26-25.999996-26zm-27.902344 23.90234v8c0 15.46397 12.536034 28 28 28 15.46397 0 28-12.53603 28-28v-8c0 7.1509-2.68447 13.074-7.0957 17.37891-4.885 6.72441-12.690471 10.70808-21.001956 10.71875-8.608416-.01-16.653796-4.28029-21.486328-11.4043-4.006862-4.2395-6.416016-9.91612-6.416016-16.69336z" fill="url(#linearGradient1247)"/>
      <ellipse cx="79.878" cy="229.317" fill="url(#linearGradient895)" rx="24.91" ry="22.381"/>
      <g transform="matrix(1.3020833 0 0 1.3020833 116.61189 -27.008333)">
        <path d="m-27.999999 179.7184c-9.649942.009-17.790289 7.43348-19.007134 17.335 1.197386 9.91882 9.343034 17.36654 19.007134 17.37859 9.649942-.009 17.790289-7.43348 19.0071335-17.33499-1.1973855-9.91882-9.3430345-17.36654-19.0071335-17.3786z" fill="url(#radialGradient1249)"/>
        <path d="m-28.192866 177.4144c-10.603867 0-19.2 8.59613-19.2 19.2.0077.79575.06482 1.39825.171094 2.1869 0-9.0989 9.36791-16.76992 19.028906-16.7789 9.67517.0117 19.028906 7.68 19.028906 16.8211.1080352-.80261.1651807-1.41927.171094-2.2291 0-10.60387-8.596133-19.2-19.2-19.2z" fill="#453637" opacity=".1"/>
      </g>
      <circle cx="79.902" cy="228" fill="none" r="26" stroke="#f6f5f4" stroke-linecap="square" stroke-linejoin="round" stroke-width="4"/>
    </g>
    <g fill="#f6f5f4">
      <circle cx="50" cy="210" r="6"/>
      <path d="m50 216 6-6v22h-3z"/>
      <path d="m44 210 6-6h-22v3z"/>
    </g>
    <circle cx="51" cy="209" fill="#c0bfbc" r="2"/>
  </g>
</svg>
