<svg height="128" width="128" xmlns="http://www.w3.org/2000/svg" xmlns:xlink="http://www.w3.org/1999/xlink">
  <linearGradient id="linearGradient4801">
    <stop offset="0" stop-color="#c0c0c0"/>
    <stop offset=".25" stop-color="#fff"/>
    <stop offset=".499" stop-color="#d2d2d2"/>
    <stop offset="1" stop-color="#c8c8c8"/>
  </linearGradient>
  <linearGradient id="linearGradient4853" gradientTransform="matrix(1 0 0 .96484375 0 .989397)" gradientUnits="userSpaceOnUse" x1="24.286" x2="24.286" y1="27.643" y2="44.643">
    <stop offset="0" stop-color="#cc5506"/>
    <stop offset="1" stop-color="#f98b41"/>
  </linearGradient>
  <linearGradient id="linearGradient4855" gradientUnits="userSpaceOnUse" x1="24.286" x2="24.286" y1="47.332" y2="36.143">
    <stop offset="0" stop-color="#fff"/>
    <stop offset="1" stop-color="#fff" stop-opacity="0"/>
  </linearGradient>
  <linearGradient id="linearGradient4857" gradientTransform="matrix(1 0 0 .98581946 0 .007381)" gradientUnits="userSpaceOnUse" x1="13.915" x2="33.148" y1="20.563" y2="23.063">
    <stop offset="0" stop-color="#cc4f00"/>
    <stop offset=".25" stop-color="#ff8636"/>
    <stop offset=".499" stop-color="#ef6000"/>
    <stop offset="1" stop-color="#da5700"/>
  </linearGradient>
  <linearGradient id="linearGradient4861" gradientTransform="matrix(1.0127073 0 0 1 -.228013 0)" gradientUnits="userSpaceOnUse" x1="13.915" x2="33.148" xlink:href="#linearGradient4801" y1="20.563" y2="23.063"/>
  <linearGradient id="linearGradient4863" gradientTransform="matrix(1.0570931 0 0 1 -1.298624 0)" gradientUnits="userSpaceOnUse" x1="13.915" x2="33.148" xlink:href="#linearGradient4801" y1="20.563" y2="23.063"/>
  <linearGradient id="linearGradient892" gradientUnits="userSpaceOnUse" x1="4.32" x2="44.429" y1="36.975" y2="36.975">
    <stop offset="0" stop-color="#6d2a00"/>
    <stop offset=".036" stop-color="#f6965b"/>
    <stop offset=".071" stop-color="#ea792e"/>
    <stop offset=".892" stop-color="#ef8034"/>
    <stop offset=".964" stop-color="#f6965b"/>
    <stop offset="1" stop-color="#6d2a00"/>
  </linearGradient>
  <g transform="matrix(2.677786 0 0 2.677786 -1.031944 -.533729)">
    <path d="m9.571605 29.143h29.71393c.633241 0 1.143035.533311 1.143035 1.195764l3.985807 12.099198c0 .662452.10125 2.692874-.645529 2.692874l-39.1782574-.03315c-.775167.028357-.4265556-2.57941-.4265556-2.57941l4.264536-12.179512c0-.662453.509793-1.195764 1.143034-1.195764z" fill="url(#linearGradient892)"/>
    <path d="m9.571605 28.142858h29.71393c.633241 0 1.143035.530244 1.143035 1.188888l4 13.059724c0 .658644-.509794 1.188888-1.143035 1.188888h-37.999644c-.633241 0-1.143034-.530244-1.143034-1.188888l4.285714-13.059724c0-.658644.509793-1.188888 1.143034-1.188888z" fill="url(#linearGradient4853)"/>
    <path d="m9.5625 28.46875c-.4568709 0-.8125.373679-.8125.90625a.31251948.31251948 0 0 1 0 .09375l-4.25 13.46875c.020181.509938.3474827.90625.78125.90625h38c.437305 0 .827725-.398641.84375-.90625l-4-13.46875a.31251948.31251948 0 0 1 0-.09375c0-.523034-.386879-.90625-.84375-.90625z" fill="none" opacity=".525" stroke="url(#linearGradient4855)" stroke-dashoffset=".45" stroke-linecap="square" stroke-linejoin="round" stroke-width=".382877" transform="matrix(1 0 0 .95132743 0 1.416068)"/>
    <g transform="translate(-.120537)">
      <path d="m26.4375.93158641c-1.388433-.58330657-2.522243-.52985125-3.8125.05862639-.333634.1521681-.592355.5000336-.6875.8500826-2.877626 10.5871556-9.6875 30.5150326-9.6875 30.5150326-.419963.549582-.65625 1.118843-.65625 1.729479 0 3.067933 5.734247 5.540193 12.8125 5.540193s12.8125-2.47226 12.8125-5.540193c0-.554986-.212985-1.077228-.5625-1.582912-.01275-.01845-.01807-.04026-.03125-.05863 0 0-6.640927-20.604873-9.40625-30.7788518-.09304-.3422923-.450559-.5938974-.78125-.73282679z" fill="url(#linearGradient4857)"/>
      <path d="m15.691323 23.09375c-1.3076 4.216103-2.456033 7.155705-2.755896 8.09375 1.710775 2.154974 6.389143 3.6875 11.657142 3.6875 5.05728 0 9.531068-1.417835 11.383528-3.4375-.138698-.458813-1.403968-4.240466-2.601361-8.28125-2.220764 1.057009-5.327564 1.71875-8.782167 1.71875-3.520396 0-6.67588-.68375-8.901246-1.78125z" fill="url(#linearGradient4861)"/>
      <path d="m20.801552 6.5625c-.817495 2.9660386-1.903366 6.150587-2.849643 9.34375 1.8136.611275 4.293397.96875 6.653716.96875 2.387853 0 4.705851-.374202 6.534028-1-.91423-3.207851-1.91971-6.3784253-2.713457-9.3125-1.187885.210286-2.484554.3125-3.820571.3125-1.292269 0-2.650121-.1155042-3.804073-.3125z" fill="url(#linearGradient4863)"/>
    </g>
  </g>
</svg>
