<svg height="128" viewBox="0 0 128 128" width="128" xmlns="http://www.w3.org/2000/svg">
  <path d="m75.023438 6.0039062c-2.4636.049582-5.359565.5487568-9.072266 1.5039063-3.77807.971966-7.408785 2.1168609-8.06836 2.5449215-.65959.428062-1.729247 2.194676-2.376953 3.925782-1.57391 4.206648-11.11294 22.20388-14.341797 27.058593-.668931 1.005762-1.189528 1.749243-1.6875 2.365235.316187-.475337.584421-.894162.742188-1.177735-.635739.887139-1.268101 1.845261-1.902344 2.400391-.252472.217153-.517306.422734-.814453.623047 0 0-.002.002-.002.002-.843439.568284-1.920557 1.113477-3.527344 1.888672-2.537899 1.224412-4.965123 2.704489-5.392578 3.289062-.155251.21232-.287148.450433-.396484.707032v.002c-.109001.25612-.195338.529926-.259766.814453v.002c-.193277.854952-.188441 1.802273 0 2.630859.0626.27643.144991.539321.248047.78125v.002c.05782.135797.136843.246081.207031.367187.0546.0941.0982.201383.160156.285156 0 0 .002.002.002.002.07058.09522.146592.183722.226562.263672v.002c.08058.08047.165873.151815.25586.214844l1.220703.853516-1.234375 2.542969-1.236328 2.542968-1.910157-1.677734c-.771515-.677399-1.647383-1.201474-2.585937-1.56836-.468714-.183162-.95369-.326807-1.449219-.43164h-.002c-.247462-.0523-.497765-.09619-.75-.128906h-.002c-.252243-.03267-.505978-.05532-.761719-.06836h-.002c-.255752-.01299-.515547-.01645-.773438-.0098-.2579.0067-.518442.02427-.777343.05078-1.297572.133421-2.603647.515752-3.833985 1.15039-.246281.127089-.488681.264742-.728515.41211-.510951.313957-.940345.643427-1.314454 1.041016 0 0-.002.002-.002.002-.18635.198252-.359756.414337-.521484.652343-.16194.238301-.313313.499592-.457031.791016v.002c-.143447.291028-.280841.610378-.41211.966797v.002c-.131283.356603-.257461.748979-.382812 1.183594v.002c-.251079.870237-.496826 1.908713-.761719 3.167969-.229397 1.090519-.4898174 2.095931-.7871092 3.033203-.297698.93714-.6330798 1.805878-1.0136719 2.623047-.5708882 1.225753-1.2421117 2.334957-2.0429688 3.382812-.2671158.349271-.549133.691523-.8457031 1.029297-.3078109.350577-.566187.678843-.7792969.998047-.1066425.159527-.2019785.315566-.2871093.472656v.002c-.085086.157153-.1595214.312405-.2246094.470704-.065032.158283-.1195204.317372-.1660156.480468v.002c-.1389279.488234-.1996141 1.007199-.1990298 1.602989.00365 3.767308 2.4644118 6.493689 6.419922 7.480469.65927.164454 1.359869.281172 2.097656.345703.737854.0646 1.512764.07688 2.320313.03516 1.720132-.08886 2.609583-.123412 3.068359.02539.02485.0081.02253.03186.04492.04102.0014-.0049.0025-.0087.0039-.01367.401369.158239.438025.482983.4375 1.099609-.0028 3.26394 4.313895 7.798828 7.423828 7.798828.209501 0 .362955.03951.47461.128906-.09684.0012-.169329.0023-.267578.0039.181796.05137.389527.06744.445312.283203.08224.316314.03881.849239-.09961 1.714839-.151836.94955-.119086 1.82733.123047 2.6875.08075.28633.184397.57088.3125.85547.000257.00058-.000258.001 0 .002.12796.28409.280177.56753.457031.85351.531331.85961 1.287606 1.73575 2.292969 2.68164.242951.22859.500603.45449.769531.67578.000385.00032.0016-.00031.002 0 .537522.44224 1.115529.86551 1.693359 1.24219.000444.00029.0015-.00029.002 0 .288651.18813.578444.36662.861328.5293.479111.27561.933744.49876 1.355469.67773.07663.0325.160638.0747.234375.10352.000514.0002.0014-.0002.002 0 .479288.18681.89472.29297 1.203125.29297.402959 0 1.848005 1.47614 3.210938 3.28125.917447 1.21506 1.654354 2.14609 2.386719 2.86718.000316.00032-.000317.002 0 .002.183079.18024.365659.34704.550781.50195s.371814.29778.564453.42969c.19309.13243.391532.2536.597656.36523.205631.11124.418481.21178.642578.30469 1.793039.74419 4.262914.93382 8.808594 1.14844 2.012399.095 3.599288.1848 4.949219.31445 1.217848.11696 2.233099.27534 3.203125.49023.104562.0232.218795.0378.322265.0625.000605.00015.0013-.00014.002 0 .531323.12717 1.04957.27602 1.580078.45118.000606.0002.0013-.0002.002 0 .143275.0473.299925.11467.445312.16601.932142.32903 1.904904.72586 3.064453 1.25391.670233.30522 1.398553.64807 2.208985 1.03516 1.37992.65908 2.683959 1.13572 3.8125 1.41406.376158.0929.733058.16457 1.066406.21289.307385.0446.590417.0649.855469.0703.02239.00046.0502.006.07227.006.847531.008 1.452705-.1923 1.71289-.61328.07167-.11596.0985-.24186.08203-.375-.000074-.00059.000076-.001 0-.002-.03394-.26749-.243615-.56611-.617187-.89258-.186815-.16326-.41575-.33433-.683594-.50977-.00067-.00044-.0013-.002-.002-.002-1.073431-.70258-2.784918-1.49522-5.052734-2.32422-2.207516-.80696-4.013672-1.54618-4.013672-1.64258 0-.0965-.144456-.54954-.320313-1.00781-.06032-.1572-.08959-.30378-.08008-.44141.0095-.13762.05722-.2669.152344-.39062.19025-.24745.568-.47136 1.195312-.69727.627338-.22588 1.504751-.45313 2.695313-.70312 1.190545-.24979 2.694271-.52272 4.574219-.8418 3.758434-.6379 7.904917-1.63344 9.214843-2.21289 1.309925-.57944 3.216959-1.2326 4.238282-1.45117.288218-.0617.554508-.12769.800781-.19727.247308-.0699.47297-.14349.679687-.22265.410841-.15734.745244-.33513 1.00586-.53711.522328-.40481.755859-.90893.755859-1.55664 0-.19851-.03051-.37616-.08984-.53321-.02946-.0784-.06665-.15086-.109375-.21875-.04273-.0678-.09147-.13032-.146484-.1875-.220019-.22875-.534654-.37268-.912109-.42578-.377456-.0531-.818707-.0161-1.291016.11524-.236154.0657-.480509.15563-.728516.26953-.248147.11346-.499663.25174-.751953.41406-.635368.40878-1.383675.84231-2.169922 1.26953-.840304.45629-1.728968.90741-2.595703 1.31641-1.679188.79203-3.266563 1.42849-4.214844 1.65039l-1.662109.38867 1.523438-1.22461c1.180288-.94929 1.618161-2.22728 1.333984-3.76172-.04046-.2191-.09619-.44255-.166016-.67187-.139679-.45862-.3375-.93669-.59375-1.4336-.256027-.49647-.572011-1.01169-.943359-1.54297-.000289-.00041.000289-.002 0-.002-.371771-.53177-.800867-1.07938-1.287109-1.64258-.486243-.56319-1.029242-1.14123-1.628907-1.73242-1.012313-.99801-3.320905-2.538877-5.925781-4.074218-.000481-.000283-.0015.000284-.002 0-2.606246-1.536078-5.507475-3.066003-7.705078-4.044921-.731859-.326004-1.385469-.591844-1.923828-.775391-.000674-.000229-.0013.000229-.002 0-.269314-.09178-.509744-.162494-.716797-.210938-.207151-.04839-.380029-.07422-.515625-.07422-.270031 0-.493835-.01383-.673828-.04297-.268038-.04339-.437449-.120562-.50586-.228516-.02253-.03554-.03427-.07465-.03516-.117187-.000006-.000569.000002-.0014 0-.002-.0011-.0866.04277-.187296.130859-.302735.0086-.0113.06865-.03921.07813-.05078-.01767.0074-.0274.01222-.04492.01953.373774-.461552 1.421221-1.141302 3.164062-2.044922 7.865573-4.078098 12.620177-10.98807 14.603516-21.222656 1.09722-5.662036 1.354076-7.040014 1.902343-6.580078.190659.159942.415113.522319.72461 1.03125.56027.921288 2.822629 3.149195 5.029297 4.951172 5.584115 4.560004 8.422663 8.800599 7.195312 10.75-.389429.618536-1.4093.798811-4 .707031-3.712554-.131516-6.523437.641563-6.523437 1.792969 0 1.137065 1.542231 1.409119 4.322265.761719 1.428467-.332654 5.836618-.65687 9.794922-.71875 8.778602-.137234 10.516612-.757733 14.794922-5.291016 3.04555-3.227063 5.38231-4.420111 8.73242-4.457031 2.42116-.02667 6.08985-2.016235 6.08985-3.302734 0-1.305544-1.13592-1.892579-3.66602-1.892579-1.28695 0-2.47624.664159-4.58984 2.564453-3.54185 3.184427-6.03084 4.123024-8.19727 3.087891-2.74471-1.311444-2.4507-4.079574.98242-9.220703 1.24404-1.86296 2.10571-3.641068 1.91407-3.951172-.60994-.986896-5.00228-.665178-6.00196.439453-.74717.825592-.79728 1.296275-.2832 2.658203.82029 2.173198.17262 6.377168-1.26367 8.203125-2.198456 2.794862-7.411146 1.119334-10.701175-3.439453-1.036443-1.436129-3.054213-3.584257-4.484375-4.773437-1.605138-1.334684-3.091205-3.241432-3.880859-4.982422-1.054862-2.32571-1.533971-3.56096-1.472657-4.708985.08116-1.519685 1.209587-2.854912 4.191407-6.048828 5.592091-5.989868 5.80128-6.641668 6.027343-18.912109.143419-7.784393.100101-8.128482-1.404296-11.349609-1.807089-3.869026-4.833523-7.2150366-7.582123-8.3789186-1.984852-.8404795-4.01687-1.2390355-6.480468-1.1894532z" fill="#030202" opacity=".2"/>
  <path d="m80.271484 49.882812c-.314921-.597845-1.097722-2.086074-1.142578-2.175781-.054198-.108395-.488281-.460937-.488281-.460937s-1.110608.107674-1.462891.351562-1.193847.97559-1.248046 1.083985c-.054198.108395-.948246 1.599617-1.056641 1.816406-.108394.21679-.623291 2.600351-.650391 2.898437-.0271.298085-.052734 2.276869-.052734 2.65625 0 .379382.649662 1.572035.785156 1.978516.135493.40648.732422 1.490234.732422 1.490234s.065921.147271.068359.152344c.190659.159942.415113.522319.72461 1.03125.56027.921288 2.822629 3.149195 5.029297 4.951172 5.584115 4.560004 8.422663 8.800599 7.195312 10.75-.389429.618536-1.4093.798811-4 .707031-3.712554-.131516-6.523437.641563-6.523437 1.792969 0 1.137065 1.542231 1.409119 4.322265.761719 1.428467-.332654 5.836618-.65687 9.794922-.71875 8.778602-.137234 10.516612-.757733 14.794922-5.291016 3.04555-3.227063 5.38231-4.420111 8.73242-4.457031 2.42116-.026667 6.08985-2.016235 6.08985-3.302734 0-1.305543-1.13592-1.892579-3.66602-1.892579-1.28695 0-2.47624.664158-4.58984 2.564453-3.54185 3.184427-6.03084 4.123024-8.19727 3.087891-2.74471-1.311444-2.4507-4.079574.98242-9.220703 1.24404-1.86296 2.10571-3.641068 1.91407-3.951172-.60994-.986896-5.00228-.665178-6.00196.439453-.74717.825592-.79728 1.296275-.2832 2.658203.82029 2.173198.17262 6.377168-1.26367 8.203125-2.198453 2.794862-7.411146 1.119334-10.701175-3.439453-1.036443-1.436129-3.054213-3.584257-4.484375-4.773437-1.605138-1.334684-3.091205-3.241432-3.880859-4.982422-1.054862-2.32571-1.533971-3.560961-1.472657-4.708985z" fill="#1a5fb4"/>
  <path d="m75.023438 4.0039062c-2.463599.0495825-5.359565.5487568-9.072266 1.5039063-3.77807.971966-7.408786 2.1168609-8.06836 2.5449219-.65959.428062-1.729247 2.1946756-2.376953 3.9257816-1.57391 4.206648-11.112941 22.20388-14.341797 27.058593-2.395292 3.601404-2.903134 4.032683-7.191406 6.101563-2.537899 1.224412-4.965123 2.704489-5.392578 3.289062-1.242005 1.698555-.996421 5.06576.44336 6.074219l1.220703.853516-1.234375 2.542969-1.236328 2.542968-1.910157-1.677734c-3.086059-2.709596-7.828657-2.951631-11.666015-.59375-2.043804 1.25583-2.79199 2.773525-3.851563 7.810547-.9175887 4.362079-2.3168922 7.366166-4.689453 10.068359-1.2312437 1.402309-1.65781 2.438562-1.65625 4.029297.0048614 5.023078 4.3774988 8.195088 10.837891 7.861328 3.440265-.177731 3.555787-.139651 3.554687 1.152344-.002837 3.26394 4.313895 7.798828 7.423828 7.798828.724415 0 .829574.399658.552735 2.130859-.404896 2.532126.506166 4.559176 3.185547 7.080076 1.943616 1.82866 4.887789 3.52149 6.123046 3.52149.402959 0 1.848005 1.47614 3.210938 3.28125 3.669788 4.86026 4.462234 5.19004 13.550781 5.61914 8.049596.38006 9.29389.67675 15.777344 3.77344 3.679787 1.75755 6.825115 2.21342 7.519531 1.08984.576203-.93233-1.737805-2.44747-6.273437-4.10547-2.207516-.80696-4.013672-1.54618-4.013672-1.64258 0-.09645-.144456-.54954-.320313-1.00781-.482574-1.25758 1.017318-1.79792 8.53711-3.07422 3.758434-.6379 7.904917-1.63344 9.214843-2.21289 1.309925-.57944 3.216959-1.2326 4.238282-1.45117 2.305746-.49344 3.242187-1.21824 3.242187-2.51367 0-1.58246-2.010977-1.86495-4.029297-.56641-2.630871 1.69263-7.083907 3.79254-8.980469 4.23633l-1.662109.38867 1.523438-1.22461c2.69675-2.16895 1.512159-6.05757-3.285157-10.787109-2.70002-2.661878-14.621473-9.179687-16.791015-9.179687-2.150875 0-1.445266-.924514 2.113281-2.769532 7.865573-4.078099 12.620177-10.98807 14.603516-21.222656 1.09722-5.662036 1.354076-7.040014 1.902343-6.580078-.002438-.005073-.068359-.152344-.068359-.152344s-.596929-1.083754-.732422-1.490234c-.135494-.406481-.785156-1.599134-.785156-1.978516 0-.379381.025634-2.358165.052734-2.65625.0271-.298086.541997-2.681647.650391-2.898437.108395-.216789 1.002443-1.708011 1.056641-1.816406.054199-.108395.895763-.840097 1.248046-1.083985s1.462891-.351562 1.462891-.351562.434083.352542.488281.460937c.044856.089707.827657 1.577936 1.142578 2.175781.081164-1.519685 1.209587-2.854912 4.191407-6.048828 5.592091-5.989868 5.80128-6.641668 6.027343-18.912109.143419-7.784393.100101-8.128482-1.404296-11.349609-1.806998-3.8690137-4.833432-7.2150246-7.582032-8.3789066-1.984852-.8404795-4.01687-1.2390356-6.480468-1.1894532z" fill="#1c71d8"/>
  <g fill="#1a5fb4">
    <path d="m27.773438 60.441406-1.910157-1.677734c-.771514-.677399-1.647339-1.201576-2.585937-1.56836-.938598-.366783-1.941201-.576805-2.966797-.628906-1.025596-.0521-2.072959.053662-3.105469.320313s-2.048473.693733-3.007812 1.283203c-.510951.313957-.942334.645506-1.316407 1.042969-.374072.397463-.691079.860511-.978515 1.443359-.574873 1.165696-1.026854 2.805708-1.556641 5.324219-.4587943 2.181039-1.0395969 4.021912-1.8007811 5.65625s-1.7023915 3.061013-2.8886719 4.412109c-.6156219.701155-1.0308861 1.310225-1.2910156 1.94336-.2601296.633134-.3660144 1.29057-.3652344 2.085937.0012153 1.255769.2755093 2.396018.7871094 3.394531.5116001.998514 1.2602287 1.855362 2.2109375 2.544922.9507087.68956 2.1033336 1.212107 3.4218751 1.541016 1.318541.328908 2.802871.464299 4.417969.380859 1.720132-.088865 2.6096-.123247 3.068359.025391.024854.008053.022529.031863.044922.041015.873123-3.072198 1.746333-6.170326 2.441406-8.515625 1.062502-3.585068 1.834913-6.35732 2.603516-8.503906s1.034729-2.663537 1.822265-4.425781 2.050589-4.251915 2.955079-6.119141z"/>
    <path d="m40.21875 40.224609c-.648793.905355-1.294058 1.890248-1.941406 2.439453-.962504.816581-2.160552 1.44017-4.304688 2.47461-2.537899 1.224412-4.965123 2.704489-5.392578 3.289062-.310501.424639-.527138.955269-.65625 1.525391-.129111.570122-.170046 1.179669-.126953 1.769531s.168888 1.158719.375 1.642578c.206112.48386.491617.884604.851563 1.136719l1.220703.853516c.895344-1.700758 1.934757-3.609673 2.90625-5.109375s1.582951-2.103396 2.863281-3.90625c1.127925-1.58825 3.543789-4.926625 4.205078-6.115235z"/>
    <path d="m26.023438 97.023438c.181797.051367.389527.067437.445312.283203.081785.31633.03881.849243-.099609 1.714843-.101224.633031-.121246 1.234806-.050782 1.820316.070465.5855.230123 1.15346.486329 1.72265.51241 1.13839 1.410309 2.27666 2.75 3.53711.971808.91433 2.194837 1.79534 3.328124 2.44727 1.133288.65193 2.177294 1.07422 2.794922 1.07422.402959 0 1.848005 1.47614 3.210938 3.28125.917447 1.21506 1.654402 2.14818 2.386719 2.86914.732316.72096 1.45908 1.22993 2.355468 1.60156s1.963386.60637 3.373047.77344c1.409662.16706 3.16341.26772 5.435547.375 4.024798.19003 6.346776.35814 8.474609.86718 2.127834.50905 4.061008 1.35792 7.302735 2.90626 1.839893.87877 3.545513 1.43369 4.878906 1.62695.666697.09663 1.241276.10146 1.691406.01367.450131-.08779.775615-.26989.949219-.55078.144051-.23308.107321-.50174-.099609-.80078-.206931-.29904-.582223-.62726-1.119141-.97852-1.073835-.70252-2.786871-1.49717-5.054687-2.32617-2.207516-.80696-4.013672-1.54618-4.013672-1.64258 0-.09645-.144456-.54954-.320313-1.00781-.120643-.3144-.118002-.5846.072266-.83203s.567975-.47138 1.195312-.69727c1.254675-.45177 3.509636-.90677 7.269532-1.54492 3.758434-.6379 7.904917-1.63344 9.214843-2.21289 1.309925-.57944 3.216959-1.2326 4.238282-1.45117 1.152873-.24672 1.9643-.55203 2.486328-.95703.522027-.40501.755859-.90893.755859-1.55664 0-.39562-.125684-.7107-.345703-.93946-.220019-.22875-.534654-.37268-.912109-.42578-.377456-.0531-.818707-.01613-1.291016.11524-.472309.13136-.975889.35895-1.480469.68359-1.315435.84631-3.086302 1.79349-4.765625 2.58594-1.679323.79244-3.266563 1.42849-4.214844 1.65039l-1.662109.38867 1.523438-1.22461c.674187-.54224 1.105581-1.19202 1.298828-1.93555.193247-.74352.14846-1.58073-.13086-2.49804-.279319-.91732-.793598-1.91297-1.537109-2.97657s-1.716687-2.19456-2.916016-3.376949c-.675005-.665469-1.925724-1.571329-3.457031-2.55664-1.531306-.985312-3.342082-2.050236-5.136719-3.03125s-3.574065-1.878674-5.039062-2.53125c-1.464997-.652577-2.615818-1.060547-3.158203-1.060547-.537719 0-.897512-.056212-1.078125-.171875s-.182174-.290391-.00586-.521485c.008619-.011296.068654-.039209.078125-.050781-1.651805.688515-2.64934 1.144206-3.976562 1.617188-2.635492.93921-5.813772 1.822229-7.896485 2.429687-2.082711.607458-5.554849 1.300477-7.550781 1.734375s-7.723193 1.476832-8.070312 1.650391c-.180229.090114-1.356875.069013-2.613281.089844z"/>
  </g>
</svg>
