<svg enable-background="new" height="128" viewBox="0 0 128 128" width="128" xmlns="http://www.w3.org/2000/svg">
  <g transform="translate(.000062 -173)">
    <path d="m64 4a59.999995 59.999995 0 0 0 -60 60 59.999995 59.999995 0 0 0 9.857422 32.902344l-10.3437501 29.173826 30.8359371-9.91211-4.853515-2.89258-17.009766 4.0586 5.347656-15.08399a59.999995 59.999995 0 0 0 46.166016 21.75391 59.999995 59.999995 0 0 0 60-60 59.999995 59.999995 0 0 0 -60-60z" fill="#deddda" transform="translate(-.000062 173)"/>
    <rect fill="#d5d3cf" height="114" rx="56" width="112" x="8" y="179"/>
    <path d="m123.99993 235a59.999995 59.999995 0 0 1 -59.999985 59.99999 59.999995 59.999995 0 0 1 -60.0000069-59.99999 59.999995 59.999995 0 0 1 60.0000069-60 59.999995 59.999995 0 0 1 59.999985 60z" fill="#f6f5f4"/>
    <circle cx="64" cy="235" fill="#169d0c" r="54"/>
    <path d="m64.000045 181a54 54 0 0 0 -54 54 54 54 0 0 0 .0415 1.1709 54 54 0 0 1 53.9585-53.1709 54 54 0 0 1 53.958495 52.82813 54 54 0 0 0 .0415-.82813 54 54 0 0 0 -54.000005-54z" opacity=".1"/>
  </g>
  <path d="m41.643649 28.605163c-.52454-.0477-1.033768-.0451-1.409564.0341h-.0088c-1.099339.22706-2.477404 1.026789-5.459711 3.195874-1.791922 1.311603-4.250127 3.66531-4.82804 4.614231-1.340878 2.248706-1.265194 4.158796.367483 8.553405 2.799877 7.536236 6.891198 14.797725 12.270026 21.806348 10.2948 13.409124 23.263049 23.160819 39.502335 29.701322 2.06929.835612 2.74301.975607 4.36606.896862 1.96429-.09188 3.4561-.686862 5.56038-2.248711 2.3274-1.723719 5.65663-5.770515 6.5141-7.927351.80934-2.047465.59497-3.90243-.6081-5.350529-.68248-.800607-5.72663-4.825533-8.08465-6.439881-1.7893-1.220603-4.56293-2.900568-5.836-3.54806-1.67555-.835607-3.34673-.979982-4.97853-.4375-1.28619.433125-1.70618.800612-3.58297 3.101818-.97121 1.176854-1.86804 2.244336-1.98178 2.344957-.12688.100625-.53373.32375-.91434.494366-1.51368.691237-3.587342.275625-6.973448-1.378099-2.638007-1.273103-4.974156-2.887447-7.620042-5.263028-2.254337-2.008086-4.528363-4.637412-5.801433-6.680502-1.641866-2.633702-2.893499-6.049198-2.905311-7.938288 0-.8133.336425-1.968278.752029-2.554957.161867-.235812 1.190386-1.13004 2.289776-1.999335 8.74962-6.04006-1.639124-17.688293-7.758286-22.002783-.359608-.227062-.989144-.539429-1.392939-.675049-.41692-.14744-.953709-.25113-1.478248-.29925z" fill="#fff"/>
  <path d="m17.919293 86.819578-12.8255304 36.169162 38.7294674-12.62131-1.721247.2049-16.383224-27.427345z" opacity=".1" transform="matrix(.85142587 0 0 .85142587 3.663101 16.987057)"/>
  <g transform="matrix(.85142587 0 0 .85142587 3.663101 15.284205)">
    <path d="m17.919293 86.819578-12.8255304 36.169162 38.7294674-12.62131 1.270532-7.84744-19.375003-19.375005z" fill="#169d0c"/>
    <path d="m15.02894 84.918546-.173471.815829-15.03125025 42.390625 45.62250425-15.1582c-3.124116-1.33718-4.969981-2.53355-7.793445-4.11422l-27.289997 9.00094 9.104671-25.784498c-1.61215-2.372796-1.632254-2.387744-4.439012-7.150476z" fill="#f6f5f4"/>
  </g>
</svg>
