<svg height="128" viewBox="-54 0 95.999995 95.999995" width="128" xmlns="http://www.w3.org/2000/svg">
  <g transform="matrix(-1 0 0 1 136.68097 -98.069456)">
    <path d="m128.42245 102.57014c7.78263-.0724 25.26097 5.73234 25.67578 10.43848-.228.64582-.44239 1.31182-.65918 1.97607 4.48934-.68755 10.04638-.0464 17.59131 3.07325l7.34472 25.45312c-5.92718-2.4509-10.59564-3.56489-14.51806-3.53467-5.94479.0451-10.13074 2.49134-14.02295 5.11231l-2.57373-8.89014c-.39176 1.18021-.81101 2.33496-1.24512 3.47461l5.26026 9.88916c6.40735-4.31362 13.5808-7.67278 28.35058-1.56592l7.30517 25.51904c-11.31108-4.6771-18.08243-3.74798-23.51513-1.13086l3.34717 6.29297-5.2295 2.78028-5.562-10.45752-.001.001-7.26709-13.66406 5.82421 20.13135c-6.45002 4.37399-13.6068 7.8647-28.51024 1.70068l-3.49659-12.0791c-.66858 1.55269-1.28935 3.52576-2.01269 6.2666-2.86571 10.85864 5.13714 9.35234 11.37451 17.22363 6.03821 7.61998-41.352151-8.9453-33.055671-11.45947 8.137041-2.46585 13.618941 4.81183 18.335461-6.3208 2.8708-6.77605 4.0431-10.99196-.53614-22.4956-1.03082-2.58955-1.47571-5.59644-1.48388-8.86963l-5.01416-17.36426c2.62702 1.08613 5.00233 1.85832 7.18652 2.39355 1.96826-7.83392 4.9549-15.92043 7.64209-22.88671.40455-.58238 1.38084-.89521 2.74365-.98291.22998-.0148.47112-.0226.72217-.0249zm15.84228 46.42383c-1.44336.89551-2.96957 1.71701-4.6289 2.37598-1.15843 1.4093-2.43962 2.68064-3.87158 3.78076-.95894.7367-1.8191 1.37284-2.63672 1.96875 5.51302-.0431 9.49662-1.98996 13.14258-4.35498z" fill="#3d3846" fill-rule="evenodd" opacity=".6"/>
    <g enable-background="new" transform="matrix(-.32682379118 .17384257405 .17384257405 .32682379118 181.84448225517 40.66401169268)">
      <g stroke-width=".451114" transform="matrix(2.3849653 -1.2685995 1.2685995 2.3849653 180.53793 79.615581)">
        <path d="m26.552999 23.002013c-14.884945 6.154092-22.0418639 2.694502-28.4923382-1.646564l-7.3432282 25.470778c6.4441588 4.365875 14.2240648 7.955391 28.5049704 1.562207z" fill="#2ec27e"/>
        <path d="m-21.837059 74.205671c-6.46491-4.350992-13.492809-7.929676-28.412941-1.760245l7.305784-25.518601c14.923292-6.170332 22.09239-2.678713 28.550983 1.698894l-7.443826 25.579502z" fill="#3584e4"/>
        <path d="m-13.152671 44.019398c-3.892208-2.620971-8.078091-5.067359-14.022867-5.112471-3.922433-.03022-8.591459 1.084026-14.518641 3.534927l7.345483-25.452735c14.913367-6.166272 22.076599-2.676457 28.5306819 1.697992z" fill="#e01b24"/>
        <path d="m-10.520873 51.081129c6.4567886 4.347386 13.6290441 7.810136 28.52978 1.651077l-7.344581 25.367925c-14.9034427 6.16402-22.060811 2.673301-28.510833-1.700694z" fill="#f6d32d"/>
      </g>
      <path d="m127.70024 99.595712c-1.36281.0877-2.33896.399977-2.74351.982348-5.76484 14.94483-12.97495 35.06078-8.33092 46.72714 4.57924 11.50365 3.40611 15.71978.53531 22.49583-4.71652 11.13263-10.19769 3.85394-18.334716 6.31979-8.296479 2.51417 39.094246 19.08074 33.056036 11.46076-6.23737-7.87129-14.24127-6.36524-11.37556-17.22388 3.06234-11.6037 4.25457-9.75383 15.25663-18.20624 11.25763-8.64875 13.28255-27.83218 18.33472-42.14284-.42819-4.85795-19.03878-10.886489-26.39799-10.412908z" fill="#f6f5f4" fill-rule="evenodd" transform="matrix(-2.3849653 1.2685995 1.2685995 2.3849653 382.10644 -327.67008)"/>
      <path d="m118.67866 147.54357c2.30638 4.71617 9.31818 7.91354 14.58484 4.66516 8.39894-5.1803 12.42751-18.36262 16.17067-31.34276-1.94253-2.47282-6.17182-4.71711-14.88288.23441-9.09305 5.16865-10.95092-1.57255-14.03482-3.49089-4.41428 13.08087-4.68933 23.41596-1.83781 29.93408z" fill="#c01c28" fill-rule="evenodd" transform="matrix(-2.3849653 1.2685995 1.2685995 2.3849653 382.10644 -327.67008)"/>
      <path d="m285 6v32h16v-32zm0 160v32h16v-32z" fill="#deddda" transform="matrix(-.9999508 0 0 .9999508 508.23235 104.87827)"/>
      <path d="m-223.25 142.88h15.999v127.994h-15.999z" fill="#3d3846" transform="scale(-1 1)"/>
    </g>
  </g>
</svg>
