<svg enable-background="new" height="128" viewBox="0 0 128 128" width="128" xmlns="http://www.w3.org/2000/svg">
  <g enable-background="new" transform="translate(162.99495 -137.37942)">
    <rect fill="#494949" height="88" rx="8" ry="8.8" width="112" x="-155" y="165.38"/>
    <path d="m-154.99495 243.37942v2c0 4.432 3.568 8 8 8h96c4.432 0 8-3.568 8-8v-2c0 4.432-3.568 8-8 8h-96c-4.432 0-8-3.568-8-8z" fill="#6e6e6e"/>
    <g transform="translate(3.952493 -4.009491)">
      <path d="m-58.102934 233.94595c1.31097-.59272 2.55919-1.83493 3.8074-3.57653-25.46692.39951-64.110746.39951-98.185256.33729.0939.19976.19976.39297.29963.59272h6.94731c35.62891-.0622 67.968366-.0622 87.130916 2.65307" fill="#fb7c38" fill-rule="evenodd"/>
      <path d="m-147.4934 224.89518v-4.06337h.5245l1.67283 2.38453 1.66629-2.38453h.5245v4.06337h-.63693v-2.92104l-1.5604 2.26555-1.5544-2.26555v2.92104zm9.34386 0v-4.06337h3.81395v.59272h-3.17702v1.01789h2.0909v.58017h-2.0909v1.29242h3.35822v.58017zm8.46405-4.05737v4.05737h1.81637c.67459 0 1.2051-.18065 1.60461-.54306.39952-.3684.60528-.86125.60528-1.47307 0-.60528-.19976-1.09867-.60528-1.47908-.41207-.38096-.94257-.56216-1.60461-.56216zm.64293.58072h1.17344c.45573 0 .83669.13098 1.11777.40551.28708.26853.44318.61183.44318 1.04246 0 .44317-.14409.80558-.42462 1.061-.27453.26253-.65549.39352-1.13633.39352h-1.17344zm7.9521 3.47665v-4.07593h.64949v4.07593zm6.90365-4.05737-2.07835 4.05737h.67404l.53051-1.0299h2.15367l.5305 1.0299h.66804l-2.07234-4.05737zm.20631.93657.79248 1.54184h-1.59151zm13.994496 2.12856c-.249966.36786-.499396.64294-.936566.83615-.37441.19375-.74882.28708-1.24822.28708-.74936 0-1.31097-.19976-1.74815-.60528-.49885-.40552-.6866-.91746-.6866-1.54184 0-.62383.18775-1.13578.6866-1.54785.43718-.40607.99879-.61183 1.74815-.61183.43663 0 .81104.0873 1.186.25598.37441.1621.6866.39951.8738.69915l-.49939.35585c-.12499-.23087-.37441-.41207-.62438-.53705-.29717-.12169-.61492-.18524-.93603-.18721-.49939 0-.93656.14955-1.31097.44973-.31219.29309-.4994.6675-.4994 1.11068 0 .44972.18721.82413.4994 1.11722.37441.29964.81158.44973 1.31097.44973.37441 0 .6866-.0688.93603-.21231.30932-.14525.56969-.37737.74936-.66805zm4.61898.99224v-4.06337h3.80741v.59272h-3.18357v1.01789h2.12256v.58017h-2.12256v1.29242h3.37077v.58017zm8.48861 0v-4.06337h.31219l2.62141 2.85882v-2.85882h.62438v4.06337h-.37441l-2.55919-2.84627v2.84627zm9.48795 0v-3.50176h-1.74761v-.56161h4.05683v.56161h-1.68485v3.50176zm6.49157 0v-4.06337h3.80741v.59272h-3.12081v1.01789h2.0598v.58017h-2.0598v1.29242h3.30801v.58017zm8.48916-4.05737v4.05737h.62383v-1.77871h1.81037l1.12323 1.77871h.6866l-1.12323-1.77871c.31219-.0622.56162-.18121.74882-.39352.18721-.20576.24997-.45573.24997-.74281 0-.35585-.12498-.64894-.37441-.8487-.18775-.19976-.49939-.29363-.93657-.29363zm.62383.59327h2.18478c.18721 0 .37441.0622.4994.14354.12498.0873.1872.22486.1872.39952 0 .1812-.0622.31218-.1872.40551-.12499.0999-.31219.14355-.4994.14355h-2.18478z" fill="#fff" fill-rule="evenodd"/>
      <path d="m-121.83273 192.82534-.73408 5.05889h-4.4296c-2.69127 0-5.18333.95349-7.47508 2.8561-.58403.47808-1.12698 1.00424-1.62317 1.57296-.27474-.56239-.61494-1.09037-1.01352-1.57296-1.56805-1.90261-3.71026-2.8561-6.40153-2.8561h-5.72256c-.20467 1.06865 0 1.97739.60418 2.73112.6091.75427 1.44306 1.13851 2.51662 1.13851h1.87259c1.60298 0 2.8561.57416 3.75992 1.73287.90382 1.1587 1.20837 2.54663.90382 4.14961-.30455 1.60788-1.12322 2.97617-2.4664 4.11959-1.34373 1.13851-2.83154 1.71813-4.4296 1.71813h-1.87259c-1.07357 0-2.05216.3695-2.95107 1.12323-.89891.75428-1.45288 1.6581-1.65264 2.73166h5.74222c2.69181 0 5.16859-.93875 7.46034-2.82662.58376-.47848 1.12518-1.0064 1.61826-1.57787.27872.56614.62569 1.09603 1.03317 1.57787 1.56805 1.88787 3.69061 2.82662 6.38188 2.82662h5.74276c.20467-1.07356 0-1.97738-.6091-2.73166-.60964-.75373-1.45834-1.12323-2.52699-1.12323h-1.85731c-1.60788 0-2.86647-.57962-3.7752-1.71813-.91419-1.14342-1.21874-2.51171-.90873-4.11959.30455-1.60298 1.13305-2.99091 2.48169-4.14961 1.34809-1.15871 2.83099-1.73287 4.43396-1.73287h1.87259c1.04355 0 2.00249-.37441 2.88666-1.09321l-1.01407 6.93093c-.40442 2.73657.23469 5.05344 1.93263 6.97078 1.6581 1.94737 3.88982 2.90631 6.58655 2.90631 2.74639 0 5.24336-.95894 7.49036-2.90631 2.24701-1.91734 3.5951-4.23421 3.99461-6.97078.39952-2.74148-.24942-5.05834-1.8977-6.97623-1.69739-1.90261-3.94494-2.87138-6.69133-2.87138h-5.84209l.0999-.76356c.19975-1.12868-.0502-2.11765-.79904-2.93633-.64948-.81922-1.58278-1.21874-2.72128-1.21874zm2.82117 8.84883h5.89231c1.59806 0 2.89648.55943 3.89473 1.71759.89891 1.15379 1.24875 2.57666 1.049 4.19982-.24997 1.62262-.99879 3.0111-2.29722 4.17963-1.29842 1.17835-2.74639 1.77763-4.39412 1.77763-1.64827 0-2.94615-.59928-3.89527-1.77763-.94858-1.16853-1.29788-2.55701-1.09813-4.17963z" fill="#a6d74f"/>
      <path d="m-92.945364 197.74397c-2.7464 0-5.24337.96385-7.440156 2.88666-2.24755 1.95227-3.59564 4.26422-3.99515 7.00571l-1.44797 9.83233c1.14833 0 2.19733-.38478 3.0957-1.20346.94912-.80394 1.49818-1.77762 1.64827-2.93141l.8487-5.69746c.249966-1.63791.998776-3.04112 2.297206-4.2293 1.29842-1.1587 2.79606-1.73287 4.39412-1.73287 1.64773 0 2.94616.57417 3.894731 1.73287.949119 1.18818 1.298429 2.59139 1.048999 4.2293l-.799029 5.69746c-.199758 1.13359.09988 2.08272.799029 2.9014.69915.81376 1.59806 1.23347 2.7464 1.23347l1.44797-9.83233c.19975-1.63791.99878-3.04112 2.29721-4.2293 1.29842-1.1587 2.74639-1.73287 4.39412-1.73287 1.59806 0 2.89649.57417 3.84507 1.73287.94857 1.18818 1.34809 2.59139 1.09866 4.2293l-.84869 5.69746c-.1501 1.13359.0999 2.08272.79848 2.9014.69915.81376 1.59806 1.23347 2.74694 1.23347l.69861-4.60425c.29963.60419.64948 1.1789 1.14888 1.71814 1.69739 1.92225 3.89473 2.88611 6.59145 2.88611h5.8421c.15009-1.08338-.0999-2.01231-.74882-2.78132-.64894-.75919-1.54785-1.13851-2.59685-1.13851h-1.89715c-1.64828 0-2.94616-.58945-3.89528-1.74761-.99879-1.15379-1.34809-2.54173-1.14833-4.16489.24942-1.63791 1.04845-3.04112 2.34688-4.2293 1.29842-1.1587 2.79661-1.73287 4.39412-1.73287h1.8977c1.09867 0 2.09745-.40443 2.99636-1.16853.8487-.7641 1.3481-1.66792 1.49764-2.76167h-5.79243c-2.74639 0-5.19315.96385-7.44015 2.88666-1.09867.9584-1.99758 2.0074-2.64652 3.15082-.29963-1.14833-.89891-2.20225-1.69794-3.15082-1.69794-1.92281-3.89473-2.88666-6.64112-2.88666-1.49818 0-2.99637.35476-4.49455 1.04408-1.49818.68879-2.84627 1.6128-3.94494 2.82608-.78235-1.19125-1.84541-2.17203-3.0957-2.85609-1.29842-.66914-2.69673-1.01407-4.24457-1.01407z" fill="#f7f7f7"/>
    </g>
  </g>
</svg>
