<svg height="128" viewBox="0 0 33.865 33.865001" width="128" xmlns="http://www.w3.org/2000/svg" xmlns:xlink="http://www.w3.org/1999/xlink"><radialGradient id="a" cx="64.224388" cy="105.85261" gradientTransform="matrix(.26290328 .00062783 -.00154918 .64532038 -1.79003 -44.437131)" gradientUnits="userSpaceOnUse" r="60"><stop offset="0" stop-color="#eae9e7"/><stop offset=".20831005" stop-color="#cac8c4" stop-opacity=".952756"/><stop offset=".74454528" stop-color="#ebeae9" stop-opacity=".972441"/><stop offset="1" stop-color="#d5d3cf" stop-opacity=".925197"/></radialGradient><path d="m16.975778 2.2512068c-8.1563365 0-14.7227905 6.5491711-14.7227905 14.6841262v.524221c0 8.134954 6.566454 14.684125 14.7227905 14.684125 8.156337 0 14.72251-6.549171 14.72251-14.684125v-.524221c0-8.1349551-6.566173-14.6841262-14.72251-14.6841262zm.01317 11.6629092a3.0125303 3.0090922 0 0 1 3.01253 3.009168 3.0125303 3.0090922 0 0 1 -3.01253 3.009169 3.0125303 3.0090922 0 0 1 -3.012531-3.009169 3.0125303 3.0090922 0 0 1 3.012531-3.009168z" fill="#d5d3cf"/><path d="m16.9757 1.2022003a15.774241 15.732889 0 0 0 -15.7742402 15.7328867 15.774241 15.732889 0 0 0 15.7742402 15.732893 15.774241 15.732889 0 0 0 15.774241-15.732893 15.774241 15.732889 0 0 0 -15.774241-15.7328867zm0 12.5863137a3.1548674 3.1465968 0 0 1 3.15485 3.146573 3.1548674 3.1465968 0 0 1 -3.15485 3.146581 3.1548674 3.1465968 0 0 1 -3.154849-3.146581 3.1548674 3.1465968 0 0 1 3.154849-3.146573z" fill="#f6f5f4"/><ellipse cx="16.975698" cy="16.957621" fill="none" opacity=".488" rx="4.075013" ry="4.064331" stroke="#000" stroke-width=".763063"/><circle cx="23.994524" cy=".018719" fill="none" opacity=".488" r="4.855967" stroke="#000" stroke-width=".26256" transform="matrix(.70803424 .7061781 -.70803424 .7061781 0 0)"/><path d="m29.438334 7.3951813-9.932105 7.6416547a3.1533849 3.1451182 0 0 1 .627858 1.877946 3.1533849 3.1451182 0 0 1 -.0099.198324l.01301.000705 12.601923.536706a15.77424 15.732888 0 0 0 .02216-.62692 15.77424 15.732888 0 0 0 -.0788-1.570453 15.77424 15.732888 0 0 0 -.235452-1.555009 15.77424 15.732888 0 0 0 -.3903-1.523767 15.77424 15.732888 0 0 0 -.540583-1.477434 15.77424 15.732888 0 0 0 -.685934-1.4160051 15.77424 15.732888 0 0 0 -.824243-1.3408881 15.77424 15.732888 0 0 0 -.567678-.7448595zm-28.2146999 8.9130417a15.774241 15.732888 0 0 0 -.022152.626917 15.774241 15.732888 0 0 0 .078834 1.570453 15.774241 15.732888 0 0 0 .2354483 1.555009 15.774241 15.732888 0 0 0 .3903052 1.523767 15.774241 15.732888 0 0 0 .5405773 1.477433 15.774241 15.732888 0 0 0 .6859339 1.416006 15.774241 15.732888 0 0 0 .8242427 1.340888 15.774241 15.732888 0 0 0 .5676784.744858l9.9771531-7.676404.01444-.01124a3.1533849 3.1451182 0 0 1 -.68875-1.961136 3.1533849 3.1451182 0 0 1 .0033-.0695l-.0055-.00035z" fill-opacity=".929134" opacity=".05"/><path d="m1.2148118 17.340755c-.00551.08737-.00959.174774-.013336.262216 0 8.689036 7.0623657 15.732889 15.7742472 15.732889 8.71187 0 15.774234-7.043853 15.774234-15.732889-.0028-.08743-.0055-.174838-.0093-.262216-.14344 8.582877-7.158371 15.46684-15.765001 15.470676-8.6050315-.006-15.6174825-6.889391-15.7608885-15.470676z" fill="url(#a)" opacity=".74"/><path d="m16.97524 1.0582808c-8.7891975.0000006-15.9169574 7.1099503-15.9169587 15.8767162-.0000022 8.766767 7.1277592 15.876715 15.9169587 15.876715 8.789199 0 15.918019-7.109948 15.918017-15.876715-.000001-8.7667665-7.128821-15.8767162-15.918017-15.8767162zm0 .286992c8.634547.0000006 15.631023 6.9784214 15.631025 15.5897242.000001 8.611303-6.996476 15.589723-15.631025 15.589723-8.6345495-.000001-15.6299684-6.97842-15.6299664-15.589723.0000014-8.6113022 6.9954189-15.5897231 15.6299664-15.5897242zm0 12.2993722c-1.819694.00001-3.297752 1.474819-3.297765 3.290352.000009 1.815535 1.478069 3.290341 3.297765 3.290352 1.819696-.000011 3.298814-1.474817 3.298824-3.290352-.000014-1.815533-1.479131-3.290342-3.298824-3.290352zm0 .286992c1.665045.00001 3.011819 1.34329 3.011831 3.00336-.000008 1.660072-1.346784 3.00335-3.011831 3.00336-1.665047-.00001-3.010764-1.343288-3.010773-3.00336.000013-1.66007 1.345728-3.00335 3.010773-3.00336z" fill="#7e7e7d"/></svg>