<svg enable-background="new" height="128" viewBox="0 0 128 128" width="128" xmlns="http://www.w3.org/2000/svg" xmlns:xlink="http://www.w3.org/1999/xlink"><linearGradient id="a" gradientUnits="userSpaceOnUse" x1="12.000033" x2="99.99999" y1="256.000073" y2="256.000073"><stop offset="0" stop-color="#986a44"/><stop offset=".029" stop-color="#cdab8f"/><stop offset=".058" stop-color="#b5835a"/><stop offset=".942" stop-color="#b5835a"/><stop offset=".971" stop-color="#cdab8f"/><stop offset="1" stop-color="#986a44"/></linearGradient><g transform="translate(8 -172)"><rect fill="url(#a)" height="76" rx="8.721" width="88" x="12" y="212"/><rect fill="#cdab8f" height="98" rx="8.721" width="88" x="12" y="188"/><path d="m20 198h72v82h-72z" fill="#deddda"/><path d="m20 192h72v86h-72z" fill="#fff"/><path d="m36 184c-2.216 0-4 1.784-4 4v6h48v-6c0-2.216-1.784-4-4-4h-14l-6 4-6-4z" fill="#c0bfbc"/><circle cx="56" cy="182" fill="none" r="6" stroke="#c0bfbc" stroke-linejoin="round" stroke-width="4"/><path d="m32 194h48v4h-48z" fill="#9a9996"/><path d="m46.585938 230.58594-8.585938 8.58594-4.585938-4.58594-2.828124 2.82812 7.414062 7.41406 11.414062-11.41406z" fill="#e71908"/><path d="m56 212h24v4h-24z" fill="#deddda"/><path d="m56 236h18v4h-18z" fill="#deddda"/><path d="m46.585938 206.58594-8.585938 8.58594-4.585938-4.58594-2.828124 2.82812 7.414062 7.41406 11.414062-11.41406z" fill="#e71908"/><path d="m56 260h24v4h-24z" fill="#deddda"/><rect fill="none" height="21.153847" opacity=".3" rx="1.692308" stroke="#000" stroke-width="1.5" width="21.153847" x="29.25" y="251.59616"/></g></svg>