<svg width="128" height="128" viewBox="0 0 128 128" fill="none" xmlns="http://www.w3.org/2000/svg">
<g id="xmind">
<path id="Vector" d="M117.333 64C117.333 34.5448 93.4551 10.6667 64 10.6667C34.5448 10.6667 10.6666 34.5448 10.6666 64C10.6666 93.4552 34.5448 117.333 64 117.333C93.4551 117.333 117.333 93.4552 117.333 64Z" fill="url(#paint0_linear)"/>
<path id="Vector_2" opacity="0.4" d="M10.6978 62.6666C10.6872 63.1107 10.6666 63.5531 10.6666 64C10.6666 93.5466 34.4533 117.333 64 117.333C93.5466 117.333 117.333 93.5466 117.333 64C117.333 63.5531 117.312 63.1107 117.302 62.6666C116.596 91.5896 93.099 114.667 64 114.667C34.901 114.667 11.4037 91.5896 10.6979 62.6666H10.6978Z" fill="url(#paint1_linear)"/>
<path id="Vector_3" opacity="0.8" d="M47.8131 40.0014C47.6371 40.0041 47.4387 40.0182 47.2107 40.0332C46.3468 40.0883 30.0441 43.1408 29.0065 43.4419C27.9096 43.76 26.9728 44.4322 26.7443 45.0699C26.3545 46.1535 27.484 49.6754 28.9751 52.0401C34.9234 59.1038 41.5276 60.8986 47.9999 64.7049C48.7428 65.5757 49.0361 65.996 43.338 68.5189C34.4323 72.4624 31.5498 75.8164 29.8442 80.7784C29.3405 82.2446 29.1064 86.1218 29.4615 87.0974C29.9225 88.3622 30.2003 88.6168 38.805 86.9846C47.4487 85.3448 46.734 85.2489 47.4548 84.5659C48.042 84.0096 48.0755 83.8755 48.332 81.2436C48.4797 79.7354 48.7848 76.7904 49.0086 76.0103C49.5276 74.1985 50.833 72.3065 52.2546 71.3058C57.6461 67.5113 67.7938 69.4035 73.2851 75.2262C75.3542 77.4202 76.6535 80.5518 77.6905 83.9545C78.2888 85.9178 78.8964 86.7702 79.84 86.9579C80.708 87.1303 80.7293 86.8589 91.7276 84.7706C97.8454 83.609 100.391 83.044 100.751 82.7639C101.525 82.1616 101.528 80.6877 100.757 78.2522C99.4347 74.0675 97.141 71.2857 92.8924 68.0671C90.7906 66.4748 88.1366 64.9695 83.643 62.8178C79.3689 60.7711 77.3333 60.2174 77.3333 59.5818C77.3333 59.0563 79.0119 58.8221 82.4023 57.8077C89.8311 55.5845 93.4109 52.4658 93.4109 46.6912C93.4109 44.157 92.9327 42.1121 92.1889 41.4485C91.1999 40.566 89.463 40.5381 85.3099 41.2892C71.9969 43.6965 72.9137 43.6027 72.2944 44.6049C71.9668 45.1349 71.981 45.2593 72.5834 47.6681C72.9284 49.0491 73.2062 50.7767 73.2041 51.1774C73.1988 52.0298 72.0914 53.4538 71.5497 53.9616C70.2244 55.2032 67.2201 56.048 64.1427 56.048C60.4206 56.048 57.6162 54.7685 54.8306 51.8021C52.8178 49.6586 51.7902 47.5843 50.4189 43.7677C49.2147 40.4155 49.0496 39.9786 47.812 40.0001L47.8131 40.0014Z" fill="url(#paint2_linear)"/>
</g>
<defs>
<linearGradient id="paint0_linear" x1="10.6666" y1="64" x2="117.333" y2="64" gradientUnits="userSpaceOnUse">
<stop stop-color="#E01B24"/>
</linearGradient>
<linearGradient id="paint1_linear" x1="10.6666" y1="90" x2="117.333" y2="90" gradientUnits="userSpaceOnUse">
<stop stop-color="#241F31"/>
</linearGradient>
<linearGradient id="paint2_linear" x1="26.6666" y1="64.0637" x2="101.333" y2="64.0637" gradientUnits="userSpaceOnUse">
<stop stop-color="#F6F5F4"/>
</linearGradient>
</defs>
</svg>
