<svg enable-background="new" height="128" viewBox="0 0 128 128" width="128" xmlns="http://www.w3.org/2000/svg" xmlns:xlink="http://www.w3.org/1999/xlink">
  <linearGradient id="linearGradient1159" gradientUnits="userSpaceOnUse" x1="-107.99999" x2="-19.99999" y1="-276" y2="-276">
    <stop offset="0" stop-color="#c0bfbc"/>
    <stop offset=".045" stop-color="#fff"/>
    <stop offset=".091" stop-color="#deddda"/>
    <stop offset=".909" stop-color="#deddda"/>
    <stop offset=".955" stop-color="#fff"/>
    <stop offset="1" stop-color="#c0bfbc"/>
  </linearGradient>
  <linearGradient id="linearGradient917" gradientUnits="userSpaceOnUse" x1="99.00269218044" x2="98.15874374108" y1="104.90678366473" y2="104.08635743694">
    <stop offset="0" stop-color="#d5d3cf"/>
    <stop offset="1" stop-color="#fff"/>
  </linearGradient>
  <g transform="translate(0 -172)">
    <g transform="scale(-1)">
      <rect fill="#628eb6" height="30.25" rx="8" width="88" x="-108" y="-294"/>
      <rect fill="url(#linearGradient1159)" height="40" rx="8" width="88" x="-108" y="-292"/>
      <rect fill="#f6f5f4" height="108" rx="8" width="88" x="-108" y="-288"/>
    </g>
    <path d="m119.35938 202.97852c-3.96763-.37168-22.006143 11.97279-40.740239 30.11718-19.983059 19.35402-33.190824 37.97894-31.023438 40.2168 2.1674 2.23786 20.63802-10.53854 40.621094-29.89258 10.609499-10.27553 19.478093-20.31259 25.171873-27.82812.10649.35752.1983.75653.16016 1.03906-.15326 1.13484-.96286 2.17629-1.50391 3.18555-.59021 1.10094-1.196 2.10565-1.88672 3.14648-.81206 1.22366-1.82845 2.37288-2.76758 3.50195-.85183 1.02415-1.64661 2.03027-2.60351 2.95703-.79651.77141-2.62305 2.04688-2.62305 2.04688l-1.79101-.38477-3.773441 3.90235.002 2.3164s-.04081.44009.04297.50977c.08379.0697.273077.022.414063-.0488 1.062825-.53434 5.530066-2.83827 7.343746-4.18359 2.05425-1.52378 3.31689-2.92081 4.66993-4.47852 1.35304-1.55773 2.44235-3.19042 3.45312-4.79492 1.01075-1.60448 2.49512-4.47904 2.62305-4.79883.12793-.3198 1.18784-2.85301 1.21484-4.09179.0237-1.08396-.55537-2.55064-.70703-2.91797 3.49915-4.97375 5.1551-8.39541 4.30469-9.27344-.13547-.13986-.33706-.22132-.60156-.24609z" opacity=".2"/>
    <g fill="#ffde00" transform="translate(-4 2)">
      <path d="m32 188c-1.10457 0-2 .89543-2 2s.89543 2 2 2 2-.89543 2-2-.89543-2-2-2zm8 0c-1.10457 0-2 .89543-2 2s.89543 2 2 2 2-.89543 2-2-.89543-2-2-2zm8 0c-1.10457 0-2 .89543-2 2s.89543 2 2 2 2-.89543 2-2-.89543-2-2-2zm8 0c-1.10457 0-2 .89543-2 2s.89543 2 2 2 2-.89543 2-2-.89543-2-2-2zm8 0c-1.10457 0-2 .89543-2 2s.89543 2 2 2 2-.89543 2-2-.89543-2-2-2zm8 0c-1.10457 0-2 .89543-2 2s.89543 2 2 2 2-.89543 2-2-.89543-2-2-2zm8 0c-1.10457 0-2 .89543-2 2s.89543 2 2 2 2-.89543 2-2-.89543-2-2-2zm8 0c-1.10457 0-2 .89543-2 2s.89543 2 2 2 2-.89543 2-2-.89543-2-2-2zm8 0c-1.10457 0-2 .89543-2 2s.89543 2 2 2 2-.89543 2-2-.89543-2-2-2z"/>
      <circle cx="-104" cy="190" r="2" transform="scale(-1 1)"/>
      <path d="m112 192a2 2 0 0 1 -1.73205-1 2 2 0 0 1 0-2 2 2 0 0 1 1.73205-1"/>
      <path d="m-24 192a2 2 0 0 1 -1.732051-1 2 2 0 0 1 0-2 2 2 0 0 1 1.732051-1" transform="scale(-1 1)"/>
    </g>
    <path d="m29.429803 282.46562c-.646193-.39753-1.174885-1.03101-1.174885-1.40774 0-1.65679 16.214896-26.77049 25.697051-39.79972l5.815171-7.99047-4.846524-5.40597c-2.665596-2.97328-7.851967-8.53882-11.525298-12.36788-5.516132-5.74999-6.556506-7.15779-5.976328-8.08705 1.001443-1.60406 3.573604-2.78212 6.099555-2.79363 2.182874-.01 5.689081 3.2478 19.131094 17.7755 1.705412 1.84315 3.211004 3.20265 3.345784 3.02111 1.513533-2.0387 11.205467-13.55979 14.748955-17.53253 4.813446-5.39652 7.020638-6.52825 10.300112-5.28141 1.935277.73579 2.832988 2.4593 1.935602 3.71614-.335714.47017-3.335544 3.97893-6.666305 7.79722-9.231455 10.5827-14.42052 17.13915-14.42052 18.22049 0 .53769.622383 1.17812.961947 1.77596.687607 1.2106 1.62463 3.5671.734932 3.01722-.232588-.14374-1.631429 1.31439-3.053262 2.77047-1.396203 1.42984-1.649737 2.42502-2.190604 2.50881-.374349.058-1.449381-.87089-1.876626-1.25754-1.052026-.95206-1.448267-.61752-4.981698 4.20621-5.021067 6.85459-15.106336 21.97627-15.106336 22.65018 0 .28983.73929.34141 1.642868.11468 1.138324-.28571 1.831461-.0753 2.256957.68497.486983.8702-.304625 1.86367-3.824797 4.80007-2.441373 2.03652-5.693158 4.90147-7.226157 6.36655-2.174876 2.07849-3.428739 2.72502-5.706572 2.94247-1.605587.1533-3.447937-.0466-4.094116-.44406zm52.337064-23.12581-5.731864-7.12599 2.943703-3.59767c1.472853-1.80006 3.391656-2.33335 3.690399-2.4464.298757-.11298 3.942748 4.01363 7.296276 8.12009 5.147129 6.30279 5.99025 7.66634 5.410312 8.74996-.966969 1.80678-2.834822 2.65715-5.836528 2.65715-2.449413 0-2.851791-.32911-7.772298-6.35714z" stroke-width=".866667"/>
    <path d="m88.215917 241.42055c-19.983074 19.35404-38.452106 32.12944-40.619506 29.89158-2.167386-2.23786 11.03919-20.86154 31.022249-40.21556 19.983036-19.35402 39.17542-32.10943 41.34285-29.87161 2.16744 2.23783-11.76249 20.84152-31.745593 40.19559z" fill="#628eb6"/>
    <path d="m57.384516 254.37879c-6.430938 8.28833-9.577593 14.42131-8.408222 15.62872 1.159158 1.19682 7.128151-1.7688 15.350574-7.87005z" fill="#4b6892"/>
    <path d="m51.30928 270.56723-2.857053-3.03565c-.891376 1.86756-1.324264 3.29573-.854786 3.78045.46794.48316 1.868318.093 3.711839-.7448z"/>
    <path d="m56.193931 255.81649c-3.849129 4.96082-6.41277 8.93081-7.741704 11.71509l2.857053 3.03565c2.723048-1.23748 6.612223-3.65044 11.515268-7.28861z" fill="#d7d4d5"/>
    <path d="m51.30928 270.56723-2.857053-3.03565c-.891376 1.86756-1.324264 3.29573-.854786 3.78045.46794.48316 1.868318.093 3.711839-.7448z"/>
    <path d="m95.226695 230.03194c-19.983074 19.35405-45.462884 43.51805-47.630284 41.28019-2.167386-2.23786 22.250101-27.06679 42.233161-46.42081 7.01721-6.79632 9.842384-8.52121 13.872318-11.34279 7.17336-5.02247 14.85329-13.77555 16.25962-12.32357 1.53192 1.58166.34577 1.90187-7.45151 9.53235-3.23472 3.16554-11.42398 13.59977-17.283305 19.27463z" fill="#f6f9ff" opacity=".2"/>
    <path d="m87.496939 242.07263c.247342-.238.470634-.41173.718484-.65176.162793-.15769.284905-.30231.446894-.45989l-9.405984-9.94064-1.169215 1.10759z" fill="#4b6892"/>
    <path d="m106.30774 207.839c-.12074.0845-.21481.13838-.33677.22419-.23478.16532-.51357.38588-.75258.55636l-.20294.22395 7.06709 6.43005c.0863-.11059.22805-.2595.3132-.36913.2568-.33056.4278-.59229.67328-.91404z" fill="#4b6892"/>
    <path d="m115.65661 210.49667c-.6845.973-1.44394 2.00927-2.26715 3.09586.10649.35752.19681.75598.15867 1.03851-.15326 1.13484-.96296 2.17708-1.50401 3.18634-.59021 1.10094-1.19485 2.10485-1.88557 3.14568-.81206 1.22366-1.82892 2.37327-2.76805 3.50234-.85184 1.02415-1.64724 2.03012-2.60414 2.95688-.79651.77141-2.6225 2.04685-2.6225 2.04685l-1.79116-.38419-3.773782 3.90226.0028 2.31568s-.04189.44039.04189.51007c.08379.0697.273367.021.414353-.0498 1.062825-.53434 5.530629-2.83756 7.344309-4.18288 2.05425-1.52378 3.31631-2.92019 4.66935-4.4779 1.35304-1.55773 2.44307-3.19207 3.45384-4.79657 1.01075-1.60448 2.49456-4.47805 2.62249-4.79784.12793-.3198 1.18852-2.85363 1.21552-4.09241.0237-1.08475-.55561-2.55285-.70676-2.91885z" fill="#6b89ac"/>
  </g>
  <path d="m95.840737 95.863562c-4.343769 0-7.840737 3.49697-7.840737 7.840738v9.97912c0 .80737.120661 1.58474.345263 2.31658l19.654737-19.825978c-.69242-.19895-1.42204-.31046-2.18014-.31046z" fill="url(#linearGradient917)"/>
</svg>
