<svg enable-background="new" height="128" viewBox="0 0 128 128" width="128" xmlns="http://www.w3.org/2000/svg" xmlns:xlink="http://www.w3.org/1999/xlink">
  <linearGradient id="linearGradient965" gradientUnits="userSpaceOnUse" x1="48" x2="464" y1="44" y2="44">
    <stop offset="0" stop-color="#77767b"/>
    <stop offset=".05" stop-color="#c0bfbc"/>
    <stop offset=".1" stop-color="#9a9996"/>
    <stop offset=".9" stop-color="#9a9996"/>
    <stop offset=".95" stop-color="#c0bfbc"/>
    <stop offset="1" stop-color="#77767b"/>
  </linearGradient>
  <radialGradient id="radialGradient1030" cx="64" cy="194.19" gradientTransform="matrix(-4.7273 .00000079 -.0000003 -1.6364 238.55 49.766)" gradientUnits="userSpaceOnUse" r="44">
    <stop offset="0" stop-color="#fff"/>
    <stop offset="1" stop-color="#fff" stop-opacity=".094118"/>
  </radialGradient>
  <linearGradient id="linearGradient1950" gradientUnits="userSpaceOnUse" x1="70.347" x2="70.347" y1="245.4" y2="269.14">
    <stop offset="0" stop-color="#2d2839"/>
    <stop offset="1" stop-color="#282433"/>
  </linearGradient>
  <g transform="translate(0 -172)">
    <rect fill="url(#linearGradient965)" height="376" rx="32" transform="matrix(.25 0 0 .25 0 225)" width="416" x="48" y="-124"/>
    <rect fill="#deddda" height="96" rx="8" stroke-width=".25" width="104" x="12" y="184"/>
    <rect fill="#241f31" height="88" rx="4" transform="scale(1 -1)" width="96" x="16" y="-276"/>
    <path d="m-108-272h88v78h-88z" fill="url(#radialGradient1030)" opacity=".05" transform="scale(-1)"/>
    <g fill="#fff" transform="translate(-2 -2)">
      <path d="m44.012 210.89-14.012-7.6157v4.7282l9.7107 4.6295v.1422l-9.7107 5.2283v4.7282l14.012-8.2145z"/>
      <path d="m48 226 .000002 4h16l-.000002-4z"/>
    </g>
    <path d="m100 244h4v4h-4zm-8 0h4v4h-4zm-8 0h4v4h-4zm-8 0h4v4h-4zm-8 0h4v4h-4zm-8 0h4v4h-4zm-8 0h4v4h-4zm-8 0h4v4h-4zm-8 0h4v4h-4zm-8 0h4v4h-4zm-8 0h4v4h-4zm84 4h4v4h-4zm-8 0h4v4h-4zm-8 0h4v4h-4zm-8 0h4v4h-4zm-8 0h4v4h-4zm-8 0h4v4h-4zm-8 0h4v4h-4zm-8 0h4v4h-4zm-8 0h4v4h-4zm-8 0h4v4h-4zm-8 0h4v4h-4zm76 4h4v4h-4zm-8 0h4v4h-4zm-8 0h4v4h-4zm-8 0h4v4h-4zm-8 0h4v4h-4zm-8 0h4v4h-4zm-8 0h4v4h-4zm-8 0h4v4h-4zm-8 0h4v4h-4zm-8 0h4v4h-4zm-8 0h4v4h-4zm84 4h4v4h-4zm-8 0h4v4h-4zm-8 0h4v4h-4zm-8 0h4v4h-4zm-8 0h4v4h-4zm-8 0h4v4h-4zm-8 0h4v4h-4zm-8 0h4v4h-4zm-8 0h4v4h-4zm-8 0h4v4h-4zm-8 0h4v4h-4zm76 4h4v4h-4zm-8 0h4v4h-4zm-8 0h4v4h-4zm-8 0h4v4h-4zm-8 0h4v4h-4zm-8 0h4v4h-4zm-8 0h4v4h-4zm-8 0h4v4h-4zm-8 0h4v4h-4zm-8 0h4v4h-4zm-8 0h4v4h-4zm84 4h4v4h-4zm-8 0h4v4h-4zm-8 0h4v4h-4zm-8 0h4v4h-4zm-8 0h4v4h-4zm-8 0h4v4h-4zm-8 0h4v4h-4zm-8 0h4v4h-4zm-8 0h4v4h-4zm-8 0h4v4h-4zm-8 0h4v4h-4zm76 4h4v4h-4zm-8 0h4v4h-4zm-8 0h4v4h-4zm-8 0h4v4h-4zm-8 0h4v4h-4zm-8 0h4v4h-4zm-8 0h4v4h-4zm-8 0h4v4h-4zm-8 0h4v4h-4zm-8 0h4v4h-4zm-8 0h4v4h-4z" fill="url(#linearGradient1950)"/>
  </g>
  <path d="m68.064453 16h-24.730469l27.394532 41.960938-31.144532 46.039062h14.259766l23.832031-35.064453 22.599609 35.064453h7.72461c.554 0 1.08167-.11062 1.56055-.3125.47887-.20188.90803-.49592 1.26953-.85742s.65554-.79066.85742-1.26953c.20188-.47888.3125-1.00655.3125-1.56055v-18.830078l-16.972656-23.429688 16.972656-22.667968v-15.072266c0-.554-.11062-1.081672-.3125-1.560547s-.49592-.908031-.85742-1.269531c-.13908-.139078-.32991-.212703-.48828-.330078l-21.931644 30.023437z" fill="#e4e4e4" opacity=".1"/>
</svg>
