<svg enable-background="new" height="128" viewBox="0 0 128 128" width="128" xmlns="http://www.w3.org/2000/svg">
  <path d="m-150 3v10h15l36.818359 50-36.818359 50h-15v10h45v-10h-15l30-41.818359 30 41.818359h-15v10h45v-10h-15l-36.818359-50 36.818359-50h15v-10h-45v10s15.62198-.000002 15 0l-30 41.818359-30-41.818359c-.62198-.000002 15 0 15 0v-10z" fill="#e01b24" transform="matrix(.96774193805 0 0 .96774193952 151.66129049701 2.96774089289)"/>
  <path d="m5 9v4h15l35.345703 48 1.472656-2-36.818359-50zm30 0 2.869141 4c3.579668-.000001 12.130859 0 12.130859 0v-4s-15.62198-.000002-15 0zm45 0v4s8.551191-.000001 12.130859 0l2.869141-4c.62198-.000002-15 0-15 0zm30 0-36.818359 50 1.472656 2 35.345703-48h15v-4zm-45 58.181641-30 41.818359h2.869141l27.130859-37.818359 27.130859 37.818359h2.869141zm-60 51.818359v4h45v-4zm75 0v4h45v-4z" fill="#080808" opacity=".2" transform="matrix(.96774193805 0 0 .96774193952 1.66129117306 2.96774089289)"/>
  <g transform="translate(.72727 -.723179)">
    <path d="m17.811656 20.842386-9.3996317 23.434981 6.6887017 1.964228.371532-.529356c9.15646-13.032773 19.58591-18.620279 33.709378-18.620279 2.496266 0 3.973977.321902 4.789006.920187.815029.598286 1.216846 1.6124 1.216846 3.422954v58.093877c0 5.081552-.622841 8.32923-2.031491 10.248672-1.408163 1.91878-3.557909 2.7116-7.334051 2.95598l-6.93639.43121v5.3101h50.060171v-5.3101l-6.936393-.43121c-3.776138-.24438-5.925889-1.0372-7.334052-2.95598-1.408645-1.919442-2.03149-5.16712-2.03149-10.248672v-57.588371c0-2.160099.345447-3.352615 1.037338-3.9569.691885-.604285 1.992862-.891747 4.498139-.891747 13.442477 0 25.037741 6.366823 33.710511 18.622113l.36585.516521 7.00684-1.939464-9.23944-23.448744h-.65103z" fill="#3584e4"/>
    <path d="m49.181933 23.221035c-14.123468 0-24.553847 5.586809-33.710307 18.619581l-.370464.529234-5.2998988-1.55557-1.3892389 3.462701 6.6891377 1.963836.370464-.529234c9.15646-13.032772 19.586839-18.619581 33.710307-18.619581 2.496266 0 3.974537.322204 4.789567.920489.815028.598287 1.215347 1.612455 1.215347 3.423009v-3.870968c0-1.810554-.400319-2.824722-1.215347-3.423008-.81503-.598285-2.293301-.920489-4.789567-.920489zm28.998236 0c-2.505277 0-3.806603.287852-4.498489.892137-.69189.604285-1.037676 1.795924-1.037676 3.956022v3.870968c0-2.160099.345786-3.351737 1.037676-3.956023.691886-.604285 1.993212-.892137 4.498489-.892137 13.442477 0 25.037521 6.366181 33.710301 18.621471l.3648.517894 7.00667-1.941155-1.376-3.489163-5.63067 1.559351-.3648-.517894c-8.67278-12.25529-20.267824-18.621471-33.710301-18.621471zm-39.293725 81.382935v3.87097h50.059853v-3.87097z" opacity=".2"/>
  </g>
</svg>
