<svg fill="none" height="128" viewBox="0 0 128 128" width="128" xmlns="http://www.w3.org/2000/svg">
  <ellipse cx="64" cy="59.1138" fill="#26a269" rx="47.5" ry="50.1138"/>
  <path d="m107.868 119-31.8533-14.203 27.1433-15.8973z" fill="#26a269"/>
  <path d="m107.309 116.215-27.662-14.202 22.912-17.6306z" fill="#57e389"/>
  <ellipse cx="64" cy="56.9963" fill="#57e389" rx="47.5" ry="47.9963"/>
  <path d="m64.2784 54.1701c2.2275-3.8048 4.3489-7.6097 6.3642-11.4145 2.0154-3.8049 3.8716-7.6365 5.5687-11.4949h13.6831c-3.023 6.002-6.1521 11.8164-9.3872 17.4433-3.2352 5.6269-6.656 11.2806-10.2624 16.9611v21.3017h-12.4102v-21.141c-3.6064-5.6805-7.0537-11.3609-10.3419-17.0414-3.2351-5.6805-6.3642-11.5217-9.3872-17.5237h14.399c1.6972 3.8584 3.5269 7.69 5.4892 11.4949 1.9623 3.8048 4.0572 7.6097 6.2847 11.4145z" fill="#f6f5f4"/>
</svg>
