<?xml version="1.0" encoding="UTF-8" standalone="no"?>
<svg
   xmlns:dc="http://purl.org/dc/elements/1.1/"
   xmlns:cc="http://creativecommons.org/ns#"
   xmlns:rdf="http://www.w3.org/1999/02/22-rdf-syntax-ns#"
   xmlns:svg="http://www.w3.org/2000/svg"
   xmlns="http://www.w3.org/2000/svg"
   xmlns:sodipodi="http://sodipodi.sourceforge.net/DTD/sodipodi-0.dtd"
   xmlns:inkscape="http://www.inkscape.org/namespaces/inkscape"
   enable-background="new"
   height="128"
   viewBox="0 0 128 128"
   width="128"
   version="1.1"
   id="svg49"
   sodipodi:docname="zenkit.svg"
   inkscape:version="0.92.4 (5da689c313, 2019-01-14)">
  <metadata
     id="metadata55">
    <rdf:RDF>
      <cc:Work
         rdf:about="">
        <dc:format>image/svg+xml</dc:format>
        <dc:type
           rdf:resource="http://purl.org/dc/dcmitype/StillImage" />
      </cc:Work>
    </rdf:RDF>
  </metadata>
  <defs
     id="defs53" />
  <sodipodi:namedview
     pagecolor="#ffffff"
     bordercolor="#666666"
     borderopacity="1"
     objecttolerance="10"
     gridtolerance="10"
     guidetolerance="10"
     inkscape:pageopacity="0"
     inkscape:pageshadow="2"
     inkscape:window-width="1920"
     inkscape:window-height="1016"
     id="namedview51"
     showgrid="false"
     inkscape:zoom="6.7748969"
     inkscape:cx="64.919761"
     inkscape:cy="63.080251"
     inkscape:window-x="0"
     inkscape:window-y="27"
     inkscape:window-maximized="1"
     inkscape:current-layer="g45" />
  <linearGradient
     id="linearGradient1491"
     gradientUnits="userSpaceOnUse"
     x1="33.658993"
     x2="33.723515"
     y1="231.94041"
     y2="296.3558">
    <stop
       offset="0"
       stop-color="#ff6bbe"
       id="stop2" />
    <stop
       offset=".59204137"
       stop-color="#f16ac4"
       id="stop4" />
    <stop
       offset=".59204137"
       stop-color="#c164c6"
       id="stop6" />
    <stop
       offset="1"
       stop-color="#8b62d0"
       id="stop8" />
  </linearGradient>
  <linearGradient
     id="linearGradient1531"
     gradientUnits="userSpaceOnUse"
     x1="26.851412"
     x2="75.201218"
     y1="228.81468"
     y2="291.65692">
    <stop
       offset="0"
       stop-color="#ff2e5b"
       id="stop11" />
    <stop
       offset=".57138896"
       stop-color="#ff2f5d"
       id="stop13" />
    <stop
       offset=".57221907"
       stop-color="#8f5cba"
       id="stop15" />
    <stop
       offset="1"
       stop-color="#6a66c9"
       id="stop17" />
  </linearGradient>
  <linearGradient
     id="linearGradient1552"
     gradientUnits="userSpaceOnUse"
     x1="64.697266"
     x2="-19.943132"
     y1="3.005859"
     y2="112.21028">
    <stop
       offset="0"
       stop-color="#ff9b83"
       id="stop20" />
    <stop
       offset=".52819526"
       stop-color="#ff9f6b"
       id="stop22" />
    <stop
       offset=".52886319"
       stop-color="#43a8fc"
       id="stop24" />
    <stop
       offset="1"
       stop-color="#3ea7fd"
       id="stop26" />
  </linearGradient>
  <g
     transform="translate(0 -172)"
     id="g47">
    <text
       x="107.99998"
       y="390.00003"
       id="text31">
      <tspan
         x="107.99998"
         y="397.90536"
         id="tspan29" />
    </text>
    <g
       transform="matrix(1.8929253 0 0 1.8929253 1.0070177678 -264.04529)"
       id="g45">
      <path
         d="m33.658993 231.94041c-.793116.0133-1.550816.45336-2.110421 1.22568l-20.003766 27.48456c-.571077.7811-.891196 1.84346-.889106 2.9506h-.000738v1.04331c-.0019 1.1073.318498 2.16966.889847 2.9506l20.003764 27.48455c1.184446 1.63482 3.110551 1.63482 4.294995 0l20.003768-27.48455c.571077-.78111.891199-1.84346.889107-2.9506h.000812v-1.04331h-.000812c.0023-1.10714-.31803-2.1695-.889107-2.9506l-20.003768-27.48456c-.577737-.79735-1.365757-1.23947-2.184575-1.22568z"
         id="path35"
         fill="url(#linearGradient1531)" />
      <path
         d="m64.697266 3.0058594c-.742238.0167389-1.467314.2253245-2.138672.6152344-.678643.3941401-1.302386.9682467-1.832032 1.6992187l-37.865234 52.0273435c-.540503.739282-.963878 1.611018-1.25 2.560547-.286121.949529-.435572 1.975571-.433594 3.023438h-.001953v1.974609c-.001798 1.048018.149184 2.075861.435547 3.025391.286363.949529.70924 1.821416 1.25 2.560547l37.865234 52.027342c.560517.77365 1.208258 1.35341 1.900391 1.74024.692133.38682 1.428058.58007 2.164063.58007.012605 0 .024504-.00965.037109-.00976z"
         transform="matrix(.52828286 0 0 .52828286 -.531991 230.35525)"
         id="path37"
         fill="url(#linearGradient1552)" />
      <path
         d="m10.4816 262.66718 9.474927 7.53135 27.614958-.16196 9.474929-7.53135"
         id="path39"
         fill="none" />
      <path
         d="m47.571485 270.03656-13.84797 26.31925"
         id="path41"
         fill="none" />
      <path
         d="m47.571485 270.03657-13.912492-38.09616-13.702466 38.25811 13.766988 26.1573h.08098"
         id="path43"
         fill="url(#linearGradient1491)" />
      <path
         style="fill:#000000;stroke-width:1.89292526;fill-opacity:1;opacity:0.2"
         d="M 108.35156 61.917969 C 108.19212 63.640221 107.62795 65.253941 106.72266 66.492188 L 68.855469 118.51953 C 67.801516 119.97424 66.437433 120.73519 65.054688 120.82227 L 64.996094 120.93359 L 64.84375 120.93359 L 64.794922 120.83984 C 63.873618 120.84071 62.952683 120.53886 62.117188 119.93359 C 61.950372 119.81275 61.786205 119.68015 61.626953 119.53516 L 61.626953 119.5332 C 61.308308 119.24309 61.006821 118.90637 60.726562 118.51953 L 22.861328 66.492188 C 22.050187 65.383482 21.50491 63.97618 21.285156 62.457031 L 21.285156 62.455078 C 21.259964 62.281025 21.244918 62.104182 21.228516 61.927734 C 21.221704 62.002265 21.210386 62.075435 21.205078 62.150391 C 21.186875 62.408775 21.17724 62.669674 21.177734 62.931641 L 21.175781 62.931641 L 21.175781 64.90625 C 21.175332 65.168255 21.184773 65.429028 21.203125 65.6875 C 21.221501 65.946074 21.248498 66.201751 21.285156 66.455078 L 21.285156 66.457031 C 21.50491 67.976175 22.050187 69.383492 22.861328 70.492188 L 60.726562 122.51953 C 61.006821 122.90636 61.308307 123.24309 61.626953 123.5332 L 61.626953 123.53516 C 61.786211 123.68016 61.950373 123.81276 62.117188 123.93359 C 62.952683 124.53886 63.873617 124.8407 64.794922 124.83984 L 64.84375 124.93359 L 64.996094 124.93359 L 65.054688 124.82227 C 66.437433 124.73522 67.801517 123.97424 68.855469 122.51953 L 106.72266 70.492188 C 107.80366 69.013605 108.40826 67.001983 108.4043 64.90625 L 108.40625 64.90625 L 108.40625 62.931641 L 108.4043 62.931641 C 108.40501 62.590331 108.3826 62.252792 108.35156 61.917969 z "
         transform="matrix(0.52828286,0,0,0.52828286,-0.53199023,230.35525)"
         id="path862" />
    </g>
  </g>
</svg>
