<svg enable-background="new" height="128" viewBox="0 0 128 128" width="128" xmlns="http://www.w3.org/2000/svg" xmlns:xlink="http://www.w3.org/1999/xlink">
  <linearGradient id="linearGradient4696" gradientUnits="userSpaceOnUse" spreadMethod="reflect" x1="255.47320139685" x2="435.282734716" xlink:href="#linearGradient4698" y1="267.78278008992" y2="267.78278008992"/>
  <linearGradient id="linearGradient4698">
    <stop offset="0" stop-color="#b1f258"/>
    <stop offset="1" stop-color="#c7f587" stop-opacity=".27451"/>
  </linearGradient>
  <linearGradient id="linearGradient4704" gradientUnits="userSpaceOnUse" spreadMethod="reflect" x1="255.4732083094" x2="390.33034332845" xlink:href="#linearGradient4698" y1="256.54467267207" y2="256.54467267207"/>
  <linearGradient id="linearGradient4741" gradientUnits="userSpaceOnUse" spreadMethod="reflect" x1="63.5" x2="63.5" xlink:href="#linearGradient4698" y1="64" y2="110.64021"/>
  <radialGradient id="radialGradient3573" cx="64" cy="59.5" gradientTransform="matrix(1 0 0 1.3743285 0 -24.272542)" gradientUnits="userSpaceOnUse" r="3" xlink:href="#linearGradient3567"/>
  <linearGradient id="linearGradient3567">
    <stop offset="0" stop-color="#b2f259" stop-opacity=".48855"/>
    <stop offset="1" stop-color="#acea55" stop-opacity="0"/>
  </linearGradient>
  <radialGradient id="radialGradient3577" cx="64" cy="59.5" gradientTransform="matrix(1 0 0 1.3743285 0 -30.272542)" gradientUnits="userSpaceOnUse" r="3" xlink:href="#linearGradient3567"/>
  <radialGradient id="radialGradient3581" cx="64" cy="59.5" gradientTransform="matrix(1 0 0 1.3743285 0 -36.272542)" gradientUnits="userSpaceOnUse" r="3" xlink:href="#linearGradient3567"/>
  <radialGradient id="radialGradient3585" cx="64" cy="59.5" gradientTransform="matrix(1 0 0 1.3743285 0 -48.272542)" gradientUnits="userSpaceOnUse" r="3" xlink:href="#linearGradient3567"/>
  <radialGradient id="radialGradient3589" cx="64" cy="59.5" gradientTransform="matrix(1 0 0 1.3743285 0 -11.272542)" gradientUnits="userSpaceOnUse" r="3" xlink:href="#linearGradient3567"/>
  <radialGradient id="radialGradient3593" cx="64" cy="59.5" gradientTransform="matrix(1 0 0 1.3743285 0 -5.272542)" gradientUnits="userSpaceOnUse" r="3" xlink:href="#linearGradient3567"/>
  <radialGradient id="radialGradient3597" cx="64" cy="59.5" gradientTransform="matrix(1 0 0 1.3743285 0 .727458)" gradientUnits="userSpaceOnUse" r="3" xlink:href="#linearGradient3567"/>
  <radialGradient id="radialGradient3601" cx="64" cy="59.5" gradientTransform="matrix(1 0 0 1.3743285 0 12.727458)" gradientUnits="userSpaceOnUse" r="3" xlink:href="#linearGradient3567"/>
  <radialGradient id="radialGradient4652" cx="64" cy="59.5" gradientTransform="matrix(1 0 0 1.3743285 30.5 -145.77254)" gradientUnits="userSpaceOnUse" r="3" xlink:href="#linearGradient3567"/>
  <radialGradient id="radialGradient4656" cx="64" cy="59.5" gradientTransform="matrix(1 0 0 1.3743285 18.5 -145.77254)" gradientUnits="userSpaceOnUse" r="3" xlink:href="#linearGradient3567"/>
  <radialGradient id="radialGradient4660" cx="64" cy="59.5" gradientTransform="matrix(1 0 0 1.3743285 12.5 -145.77254)" gradientUnits="userSpaceOnUse" r="3" xlink:href="#linearGradient3567"/>
  <radialGradient id="radialGradient4664" cx="64" cy="59.5" gradientTransform="matrix(1 0 0 1.3743285 6.5 -145.77254)" gradientUnits="userSpaceOnUse" r="3" xlink:href="#linearGradient3567"/>
  <radialGradient id="radialGradient4668" cx="64" cy="59.5" gradientTransform="matrix(1 0 0 1.3743285 -6.5 -145.77254)" gradientUnits="userSpaceOnUse" r="3" xlink:href="#linearGradient3567"/>
  <radialGradient id="radialGradient4672" cx="64" cy="59.5" gradientTransform="matrix(1 0 0 1.3743285 -12.5 -145.77254)" gradientUnits="userSpaceOnUse" r="3" xlink:href="#linearGradient3567"/>
  <radialGradient id="radialGradient4676" cx="64" cy="59.5" gradientTransform="matrix(1 0 0 1.3743285 -18.5 -145.77254)" gradientUnits="userSpaceOnUse" r="3" xlink:href="#linearGradient3567"/>
  <radialGradient id="radialGradient4680" cx="64" cy="59.5" gradientTransform="matrix(1 0 0 1.3743285 -30.5 -145.77254)" gradientUnits="userSpaceOnUse" r="3" xlink:href="#linearGradient3567"/>
  <radialGradient id="radialGradient3675" cx="323.63577718293" cy="319.81667623753" gradientUnits="userSpaceOnUse" r="17.39933309811" xlink:href="#linearGradient3677"/>
  <linearGradient id="linearGradient3677">
    <stop offset="0" stop-color="#f3ff5f"/>
    <stop offset=".41935483" stop-color="#8fe018" stop-opacity=".289063"/>
    <stop offset=".7096774" stop-color="#88d120" stop-opacity=".091603"/>
    <stop offset="1" stop-color="#81bb30" stop-opacity="0"/>
  </linearGradient>
  <radialGradient id="radialGradient3685" cx="223.02719402568" cy="286.95110394777" gradientUnits="userSpaceOnUse" r="23.1991114388" xlink:href="#linearGradient3677"/>
  <radialGradient id="radialGradient3709" cx="255.99898267668" cy="158.46089181963" gradientUnits="userSpaceOnUse" r="28.99566774575">
    <stop offset="0" stop-color="#b7f067" stop-opacity=".824427"/>
    <stop offset=".5" stop-color="#97d93b" stop-opacity=".274809"/>
    <stop offset="1" stop-color="#94d041" stop-opacity="0"/>
  </radialGradient>
  <filter id="filter3737" color-interpolation-filters="sRGB" height="1.613794" width="1.25469" x="-.127345" y="-.306897">
    <feGaussianBlur stdDeviation=".75639026"/>
  </filter>
  <linearGradient id="linearGradient4733" gradientUnits="userSpaceOnUse" x1="317.2827214" x2="255.4731978" y1="194.735154" y2="267.7827728">
    <stop offset="0" stop-color="#c8fc7d"/>
    <stop offset="1" stop-color="#c8fc7d" stop-opacity="0"/>
  </linearGradient>
  <linearGradient id="linearGradient4749" gradientUnits="userSpaceOnUse" spreadMethod="reflect" x1="63.5" x2="63.5" xlink:href="#linearGradient4698" y1="64" y2="19.08498"/>
  <path d="m124.00001 63.999998a59.999999 59.999999 0 0 1 -59.999999 60.000002 59.999999 59.999999 0 0 1 -60.000011-60.000002 59.999999 59.999999 0 0 1 60.000011-59.999996 59.999999 59.999999 0 0 1 59.999999 59.999996z" fill="#deddda"/>
  <rect fill="#d5d3cf" height="114" rx="56" width="112" x="8" y="6"/>
  <path d="m124.00001 62a59.999999 59.999999 0 0 1 -59.999999 60 59.999999 59.999999 0 0 1 -60.000011-60 59.999999 59.999999 0 0 1 60.000011-60.0000048 59.999999 59.999999 0 0 1 59.999999 60.0000048z" fill="#f6f5f4"/>
  <circle cx="64" cy="62" fill="#3d3846" r="54"/>
  <path d="m64.00011 7.9999983a54.000004 54.000004 0 0 0 -54.000003 54.0000017 54.000004 54.000004 0 0 0 .041505 1.170902 54.000004 54.000004 0 0 1 53.958503-53.1709055 54.000004 54.000004 0 0 1 53.958495 52.8281295 54.000004 54.000004 0 0 0 .04152-.828126 54.000004 54.000004 0 0 0 -54.000016-54.0000017z" opacity=".1"/>
  <g transform="matrix(0 1.173913 -1.173913 0 139.08904 -11.71535)">
    <path d="m63.5 18v92h1v-92z" fill="url(#linearGradient4749)" fill-rule="evenodd" opacity=".3"/>
    <path d="m61 57h6v1h-6z" fill="url(#radialGradient3573)" opacity=".5"/>
    <path d="m61 51h6v1h-6z" fill="url(#radialGradient3577)" opacity=".5"/>
    <path d="m61 45h6v1h-6z" fill="url(#radialGradient3581)" opacity=".5"/>
    <path d="m61 33h6v1h-6z" fill="url(#radialGradient3585)" opacity=".5"/>
    <path d="m61 70h6v1h-6z" fill="url(#radialGradient3589)" opacity=".5"/>
    <path d="m61 76h6v1h-6z" fill="url(#radialGradient3593)" opacity=".5"/>
    <path d="m61 82h6v1h-6z" fill="url(#radialGradient3597)" opacity=".5"/>
    <path d="m61 94h6v1h-6z" fill="url(#radialGradient3601)" opacity=".5"/>
    <path d="m91.5-64.5h6v1h-6z" fill="url(#radialGradient4652)" opacity=".5" transform="rotate(90)"/>
    <path d="m79.5-64.5h6v1h-6z" fill="url(#radialGradient4656)" opacity=".5" transform="rotate(90)"/>
    <path d="m73.5-64.5h6v1h-6z" fill="url(#radialGradient4660)" opacity=".5" transform="rotate(90)"/>
    <path d="m67.5-64.5h6v1h-6z" fill="url(#radialGradient4664)" opacity=".5" transform="rotate(90)"/>
    <path d="m54.5-64.5h6v1h-6z" fill="url(#radialGradient4668)" opacity=".5" transform="rotate(90)"/>
    <path d="m48.5-64.5h6v1h-6z" fill="url(#radialGradient4672)" opacity=".5" transform="rotate(90)"/>
    <path d="m42.5-64.5h6v1h-6z" fill="url(#radialGradient4676)" opacity=".5" transform="rotate(90)"/>
    <path d="m30.5-64.5h6v1h-6z" fill="url(#radialGradient4680)" opacity=".5" transform="rotate(90)"/>
  </g>
  <g transform="matrix(.30360989 0 0 .30360989 -14.651452 -15.729899)">
    <path d="m395.1936 256.01899a139.19465 139.19465 0 0 1 -278.38929 0 139.19465 139.19465 0 1 1 278.38929 0z" fill="none" opacity=".5" stroke="url(#linearGradient4696)" stroke-linecap="square" stroke-linejoin="round" stroke-width="3.371428"/>
    <path d="m255.97686 161.30693c-52.31776 0-94.72337 42.40561-94.72337 94.72337 0 52.31777 42.40561 94.72338 94.72337 94.72338s94.72337-42.40561 94.72337-94.72338c0-52.31776-42.40561-94.72337-94.72337-94.72337z" fill="none" opacity=".5" stroke="url(#linearGradient4704)" stroke-linecap="square" stroke-linejoin="round" stroke-width="3.371429"/>
    <g transform="matrix(3.8665178 0 0 3.8665178 9.66428 8.561851)">
      <path d="m63.5 18v92h1v-92z" fill="url(#linearGradient4741)" fill-rule="evenodd" opacity=".5"/>
      <path d="m61 57h6v1h-6z" fill="url(#radialGradient3573)" opacity=".5"/>
      <path d="m61 51h6v1h-6z" fill="url(#radialGradient3577)" opacity=".5"/>
      <path d="m61 45h6v1h-6z" fill="url(#radialGradient3581)" opacity=".5"/>
      <path d="m61 33h6v1h-6z" fill="url(#radialGradient3585)" opacity=".5"/>
      <path d="m61 70h6v1h-6z" fill="url(#radialGradient3589)" opacity=".5"/>
      <path d="m61 76h6v1h-6z" fill="url(#radialGradient3593)" opacity=".5"/>
      <path d="m61 82h6v1h-6z" fill="url(#radialGradient3597)" opacity=".5"/>
      <path d="m61 94h6v1h-6z" fill="url(#radialGradient3601)" opacity=".5"/>
      <path d="m91.5-64.5h6v1h-6z" fill="url(#radialGradient4652)" opacity=".5" transform="rotate(90)"/>
      <path d="m79.5-64.5h6v1h-6z" fill="url(#radialGradient4656)" opacity=".5" transform="rotate(90)"/>
      <path d="m73.5-64.5h6v1h-6z" fill="url(#radialGradient4660)" opacity=".5" transform="rotate(90)"/>
      <path d="m67.5-64.5h6v1h-6z" fill="url(#radialGradient4664)" opacity=".5" transform="rotate(90)"/>
      <path d="m54.5-64.5h6v1h-6z" fill="url(#radialGradient4668)" opacity=".5" transform="rotate(90)"/>
      <path d="m48.5-64.5h6v1h-6z" fill="url(#radialGradient4672)" opacity=".5" transform="rotate(90)"/>
      <path d="m42.5-64.5h6v1h-6z" fill="url(#radialGradient4676)" opacity=".5" transform="rotate(90)"/>
      <path d="m30.5-64.5h6v1h-6z" fill="url(#radialGradient4680)" opacity=".5" transform="rotate(90)"/>
    </g>
    <path d="m341.0351 319.81668a17.39933 17.39933 0 0 1 -34.79866 0 17.39933 17.39933 0 1 1 34.79866 0z" fill="url(#radialGradient3675)" opacity=".8"/>
    <path d="m246.2263 286.9511a23.19911 23.19911 0 0 1 -46.39822 0 23.19911 23.19911 0 1 1 46.39822 0z" fill="url(#radialGradient3685)"/>
    <path d="m284.99464 158.46089a28.995665 28.995665 0 0 1 -57.99133 0 28.995665 28.995665 0 1 1 57.99133 0z" fill="url(#radialGradient3709)"/>
    <path d="m13.761952 37.554969c9.34416-5.041765 14.666753-1.696391 14.23038-4.237921-.601492-3.503217-5.936499-1.245202-14.23038 4.237921z" fill="#dfff3c" fill-rule="evenodd" filter="url(#filter3737)" opacity=".706564" transform="matrix(3.8665178 0 0 3.8665178 153.42513 29.760251)"/>
    <path d="m255.38091 256.67781 127.13764-126.33218" fill="none" stroke="url(#linearGradient4733)" stroke-width="2.809524"/>
  </g>
</svg>
