<svg height="32" width="32" xmlns="http://www.w3.org/2000/svg">
  <circle cx="16" cy="17" fill="#00100f" opacity=".2" r="14"/>
  <circle cx="16" cy="16" fill="#5294e2" r="14"/>
  <g opacity=".2" transform="translate(0 1)">
    <path d="m16 6c-2.2096 0-4 1.7912-4 4s1.7904 4 4 4 4-1.7912 4-4-1.7904-4-4-4z"/>
    <path d="m16 16.000001c-6.9993.0042-7 4.430769-7 4.430769v1.8s1.292299 2.76923 7 2.76923 7-2.76923 7-2.76923v-1.8s0-4.433538-6.9986-4.430769z"/>
  </g>
  <g fill="#fff">
    <path d="m16 6c-2.2096 0-4 1.7912-4 4s1.7904 4 4 4 4-1.7912 4-4-1.7904-4-4-4z"/>
    <path d="m16 16.000001c-6.9993.0042-7 4.430769-7 4.430769v1.8s1.292299 2.76923 7 2.76923 7-2.76923 7-2.76923v-1.8s0-4.433538-6.9986-4.430769z"/>
    <path d="m16 2a14 14 0 0 0 -14 14 14 14 0 0 0 .0214844.585938 14 14 0 0 1 13.9785156-13.585938 14 14 0 0 1 13.978516 13.414062 14 14 0 0 0 .021484-.414062 14 14 0 0 0 -14-14z" opacity=".2"/>
  </g>
</svg>
