<svg height="32" width="32" xmlns="http://www.w3.org/2000/svg">
  <path d="m16 3c-4.092537 0-7.4415809 3.0443272-7.9316406 7h3.0312496c.460995-2.2873613 2.473223-4 4.900391-4 2.77 0 5 2.23 5 5v3h3v-3c0-4.432-3.568-8-8-8z" opacity=".2"/>
  <path d="m16 2c-4.092537 0-7.4415809 3.0443272-7.9316406 7h3.0312496c.460995-2.2873613 2.473223-4 4.900391-4 2.77 0 5 2.23 5 5v3h3v-3c0-4.432-3.568-8-8-8z" fill="#d2d2d2"/>
  <rect fill="#fe3c38" height="22" rx="1.4" transform="matrix(0 -1 -1 0 0 0)" width="17" x="-30" y="-27"/>
  <path d="m16 2c-4.092537 0-7.4415809 3.0443272-7.9316406 7h.1914062c.8846812-3.4565744 4.0003184-6 7.7402344-6 4.432 0 8 3.568 8 8v-1c0-4.432-3.568-8-8-8z" fill="#fff" opacity=".2"/>
  <path d="m6.4004 13c-.7756 0-1.4004.625-1.4004 1.4v1c0-.775.6248-1.4 1.4004-1.4h19.2c.775 0 1.4.625 1.4 1.4v-1c0-.775-.625-1.4-1.4-1.4z" fill="#fff" opacity=".1"/>
  <path d="m5 16h22v10h-22z" fill="#fe6a6a"/>
  <path d="m5 28.6v1c0 .775.6248 1.4 1.4004 1.4h19.2c.775 0 1.4-.625 1.4-1.4v-1c0 .775-.625 1.4-1.4 1.4h-19.2c-.7752 0-1.4-.625-1.4-1.4z" opacity=".2"/>
</svg>
