<svg height="32" width="32" xmlns="http://www.w3.org/2000/svg">
  <rect fill="#8e8e8e" height="30" rx="1" transform="matrix(0 -1 -1 0 0 0)" width="3" x="-27" y="-31"/>
  <path d="m29 22.75v-15.5c0-.6925-.58-1.25-1.3-1.25h-23.4c-.7202 0-1.3.5575-1.3 1.25v15.5c0 .692.5798 1.25 1.3 1.25h23.4c.7202 0 1.3-.5575 1.3-1.25z" fill="#8e8e8e"/>
  <path d="m27 22v-14h-22v14z" opacity=".5"/>
  <path d="m4.3008 6c-.7202 0-1.3008.5575-1.3008 1.25v1c0-.6925.5806-1.25 1.3008-1.25h23.398c.72 0 1.301.5575 1.301 1.25v-1c0-.6925-.581-1.25-1.301-1.25z" fill="#fff" opacity=".2"/>
  <path d="m3 22.75v1c0 .692.5806 1.25 1.3008 1.25h23.398c.72 0 1.301-.558 1.301-1.25v-1c0 .692-.581 1.25-1.301 1.25h-23.398c-.7204 0-1.301-.558-1.301-1.25z" opacity=".2"/>
  <path d="m1 26v1c0 .554.446 1 1 1h28c.554 0 1-.446 1-1v-1c0 .554-.446 1-1 1h-28c-.554 0-1-.446-1-1z" opacity=".2"/>
</svg>
