<svg height="32" width="32" xmlns="http://www.w3.org/2000/svg">
  <rect fill="#4795d1" height="28" rx="14" transform="matrix(0 -1 -1 0 0 0)" width="28" x="-30" y="-30"/>
  <path d="m16 2c-7.756 0-14 6.244-14 14 0 .169.0195.333.0254.5.2641-7.5206 6.3878-13.5 13.975-13.5s13.711 5.9794 13.975 13.5c.006-.16736.0254-.33116.0254-.5 0-7.756-6.244-14-14-14z" fill="#fff" opacity=".2"/>
  <path d="m2.0254 16.5c-.0059.167-.0254.331-.0254.5 0 7.756 6.244 14 14 14s14-6.244 14-14c0-.16884-.01952-.33264-.02539-.5-.264 7.521-6.388 13.5-13.975 13.5-7.5872 0-13.711-5.979-13.975-13.5z" opacity=".2"/>
  <path d="m16 7.0000005c-5.522857 0-10 4.4771425-10 9.9999995s4.477143 10 10 10 10-4.477143 10-10-4.477143-9.9999995-10-9.9999995zm-.935547 1.9941407c.108806-.01139.245686.0065.355469 0 .01301.05204-.07708.238754-.201172.509765-.790216 1.7262878-.8369 3.7475278-.103516 4.8281248.132716.195919.253907.38202.253907.40625 0 .02424-.142858.05078-.304688.05078-.3799.000001-.740065-.230841-1.474609-.8125-.326312-.25839-.749712-.474962-.914063-.507812-.258081-.05156-.326284-.02922-.660156.304688-.310635.310584-.40625.47934-.40625.763671 0 1.078223 1.280827 1.933145 3.660156 2.4375 3.231224.684838 4.026105 1.298953 4.115235 2.998047.111903 2.130617-1.02133 3.736741-3.50586 4.980469-.296546.148492-.484954.207879-.609375.255859-.05514-.0049-.09933.0049-.154297 0-.02114-.06587-.05078-.218244-.05078-.507812 0-1.131635-.445068-2.297836-1.117187-2.949219-.180417-.174873-.684591-.544709-1.117188-.8125-.432581-.267775-.869537-.578221-.966797-.710937-.161141-.220234-.172666-.354868-.04883-.761719.22568-.743064.493412-1.159404 1.015625-1.628906.273776-.246141.548725-.450179.609375-.455079.06067-.0049-.34908-.129893-.964844-.255859-.615733-.12621-1.518682-.390047-1.984375-.558594-.851564-.308125-2.001131-.955677-2.439452-1.423827-.01853-.01985-.034681-.03321-.050781-.05078.628012-2.501606 2.390201-4.551008 4.726562-5.5390618.488855-.206768.99342-.348223 1.525391-.457032.264977-.05416.538902-.0757.8125-.103516zm7.625 3.8124998c.191025.118078.913249 1.680238 1.119141 2.441406.265819.982671.246579 2.682022 0 3.658203-.09385.37154-.21585.718459-.25586.761719s-.186741-.203394-.357422-.50586c-.170692-.302419-.712909-.94574-1.166015-1.423828-1.307875-1.380072-1.514642-2.099756-.966797-3.201172.276282-.555408 1.479111-1.821708 1.626953-1.730468z" opacity=".2"/>
  <path d="m16 6.0000005c-5.522857 0-10 4.4771425-10 9.9999995s4.477143 10 10 10 10-4.477143 10-10-4.477143-9.9999995-10-9.9999995zm-.935547 1.9941407c.108806-.01139.245686.0065.355469 0 .01301.05204-.07708.238754-.201172.509765-.790216 1.7262878-.8369 3.7475278-.103516 4.8281248.132716.195919.253907.38202.253907.40625 0 .02424-.142858.05078-.304688.05078-.3799.000001-.740065-.230841-1.474609-.8125-.326312-.25839-.749712-.474962-.914063-.507812-.258081-.05156-.326284-.02922-.660156.304688-.310635.310584-.40625.47934-.40625.763671 0 1.078223 1.280827 1.933145 3.660156 2.4375 3.231224.684838 4.026105 1.298953 4.115235 2.998047.111903 2.130617-1.02133 3.736741-3.50586 4.980469-.296546.148492-.484954.207879-.609375.255859-.05514-.0049-.09933.0049-.154297 0-.02114-.06587-.05078-.218244-.05078-.507812 0-1.131635-.445068-2.297836-1.117187-2.949219-.180417-.174873-.684591-.544709-1.117188-.8125-.432581-.267775-.869537-.578221-.966797-.710937-.161141-.220234-.172666-.354868-.04883-.761719.22568-.743064.493412-1.159404 1.015625-1.628906.273776-.246141.548725-.450179.609375-.455079.06067-.0049-.34908-.129893-.964844-.255859-.615733-.12621-1.518682-.390047-1.984375-.558594-.851564-.308125-2.001131-.955677-2.439452-1.423827-.01853-.01985-.034681-.03321-.050781-.05078.628012-2.501606 2.390201-4.5510078 4.726562-5.5390618.488855-.206768.99342-.348223 1.525391-.457032.264977-.05416.538902-.0757.8125-.103516zm7.625 3.8124998c.191025.118078.913249 1.680238 1.119141 2.441406.265819.982671.246579 2.682022 0 3.658203-.09385.37154-.21585.718459-.25586.761719s-.186741-.203394-.357422-.50586c-.170692-.302419-.712909-.94574-1.166015-1.423828-1.307875-1.380072-1.514642-2.099756-.966797-3.201172.276282-.555408 1.479111-1.821708 1.626953-1.730468z" fill="#99ff51"/>
</svg>
