<svg height="32" width="32" xmlns="http://www.w3.org/2000/svg">
  <path d="m4 29v1.5c0 .831.669 1.5 1.5 1.5h21c.831 0 1.5-.669 1.5-1.5v-1.5c0 .831-.669 1.5-1.5 1.5h-21c-.831 0-1.5-.669-1.5-1.5z" opacity=".2"/>
  <rect fill="#8e8e8e" height="24" rx="1.5" transform="matrix(0 -1 -1 0 0 0)" width="30" x="-31" y="-28"/>
  <path d="m7.5385 3.9997h16.924c.852 0 1.538.7548 1.538 1.6923v18.616c0 .937-.686 1.692-1.538 1.692h-16.924c-.8518 0-1.538-.75458-1.538-1.6918v-18.615c.001-.9374.6872-1.6922 1.5395-1.6922z" opacity=".5"/>
  <path d="m5.5 1c-.831 0-1.5.669-1.5 1.5v1c0-.831.669-1.5 1.5-1.5h21c.831 0 1.5.669 1.5 1.5v-1c0-.831-.669-1.5-1.5-1.5z" fill="#fff" opacity=".2"/>
  <rect height="1" opacity=".5" rx=".5" width="8" x="12" y="2"/>
  <circle cx="16" cy="28" opacity=".5" r="1"/>
</svg>
