<?xml version="1.0" encoding="UTF-8" standalone="no"?>
<svg
   xmlns:dc="http://purl.org/dc/elements/1.1/"
   xmlns:cc="http://creativecommons.org/ns#"
   xmlns:rdf="http://www.w3.org/1999/02/22-rdf-syntax-ns#"
   xmlns:svg="http://www.w3.org/2000/svg"
   xmlns="http://www.w3.org/2000/svg"
   xmlns:xlink="http://www.w3.org/1999/xlink"
   xmlns:sodipodi="http://sodipodi.sourceforge.net/DTD/sodipodi-0.dtd"
   xmlns:inkscape="http://www.inkscape.org/namespaces/inkscape"
   viewBox="0 0 128 128"
   style="display:inline;enable-background:new"
   version="1.0"
   id="svg11300"
   height="128"
   width="128"
   sodipodi:docname="pyrenamer.svg"
   inkscape:version="0.92.3 (2405546, 2018-03-11)">
  <sodipodi:namedview
     pagecolor="#ffffff"
     bordercolor="#666666"
     borderopacity="1"
     objecttolerance="10"
     gridtolerance="10"
     guidetolerance="10"
     inkscape:pageopacity="0"
     inkscape:pageshadow="2"
     inkscape:window-width="1920"
     inkscape:window-height="1016"
     id="namedview24"
     showgrid="false"
     inkscape:zoom="6.578125"
     inkscape:cx="36.712589"
     inkscape:cy="64"
     inkscape:window-x="0"
     inkscape:window-y="27"
     inkscape:window-maximized="1"
     inkscape:current-layer="layer9" />
  <title
     id="title4162">Adwaita Icon Template</title>
  <defs
     id="defs3">
    <linearGradient
       gradientTransform="matrix(0.54625232,0,0,0.54625232,-6.0941965,-68.413544)"
       id="linearGradient1007"
       x1="160.30499"
       x2="161.33"
       y1="240.13901"
       y2="135.57899"
       gradientUnits="userSpaceOnUse"
       xlink:href="#linearGradient1018" />
    <linearGradient
       id="linearGradient1018">
      <stop
         style="stop-color:#37a6e6"
         offset="0"
         id="stop2" />
      <stop
         style="stop-color:#1a7fd4"
         offset="1"
         id="stop4" />
    </linearGradient>
    <linearGradient
       id="linearGradient1108"
       x1="296"
       x2="296"
       y1="-212"
       y2="236"
       gradientUnits="userSpaceOnUse">
      <stop
         style="stop-color:#ffffff"
         offset="0"
         id="stop2-3" />
      <stop
         style="stop-color:#ffffff;stop-opacity:.09803922"
         offset=".125"
         id="stop4-6" />
      <stop
         style="stop-color:#000000;stop-opacity:.09803922"
         offset=".925"
         id="stop6" />
      <stop
         style="stop-color:#000000;stop-opacity:.49803922"
         offset="1"
         id="stop8" />
    </linearGradient>
    <clipPath
       id="clipPath1082-3-36753">
      <path
         inkscape:connector-curvature="0"
         d="M 361.9375,-212 C 507.2348,-212 528,-191.28677 528,-46.125 V 70.125 C 528,215.28618 507.2348,236 361.9375,236 H 214.0625 C 68.7652,236 48,215.28618 48,70.125 V -46.125 C 48,-191.28677 68.7652,-212 214.0625,-212 Z"
         style="fill:#8c59d9"
         id="path11" />
    </clipPath>
  </defs>
  <metadata
     id="metadata4">
    <rdf:RDF>
      <cc:Work
         rdf:about="">
        <dc:format>image/svg+xml</dc:format>
        <dc:type
           rdf:resource="http://purl.org/dc/dcmitype/StillImage" />
        <dc:creator>
          <cc:Agent>
            <dc:title>GNOME Design Team</dc:title>
          </cc:Agent>
        </dc:creator>
        <dc:source />
        <cc:license
           rdf:resource="http://creativecommons.org/licenses/by-sa/4.0/" />
        <dc:title>Adwaita Icon Template</dc:title>
        <dc:subject>
          <rdf:Bag />
        </dc:subject>
        <dc:date />
        <dc:rights>
          <cc:Agent>
            <dc:title />
          </cc:Agent>
        </dc:rights>
        <dc:publisher>
          <cc:Agent>
            <dc:title />
          </cc:Agent>
        </dc:publisher>
        <dc:identifier />
        <dc:relation />
        <dc:language />
        <dc:coverage />
        <dc:description />
        <dc:contributor>
          <cc:Agent>
            <dc:title />
          </cc:Agent>
        </dc:contributor>
      </cc:Work>
      <cc:License
         rdf:about="http://creativecommons.org/licenses/by-sa/4.0/">
        <cc:permits
           rdf:resource="http://creativecommons.org/ns#Reproduction" />
        <cc:permits
           rdf:resource="http://creativecommons.org/ns#Distribution" />
        <cc:requires
           rdf:resource="http://creativecommons.org/ns#Notice" />
        <cc:requires
           rdf:resource="http://creativecommons.org/ns#Attribution" />
        <cc:permits
           rdf:resource="http://creativecommons.org/ns#DerivativeWorks" />
        <cc:requires
           rdf:resource="http://creativecommons.org/ns#ShareAlike" />
      </cc:License>
    </rdf:RDF>
  </metadata>
  <g
     transform="translate(0,-172)"
     style="display:inline"
     id="layer1">
    <g
       style="display:inline"
       id="layer9">
      <path
         inkscape:connector-curvature="0"
         id="path864"
         d="M 18.487795,218.40255 C 15.447556,218.40255 13,220.85012 13,223.89036 v 57.62185 C 13,284.55245 15.447556,287 18.487795,287 h 27.4095 2.773372 29.699205 c 4.168182,0 5.944669,-3.09769 5.944669,-6.9455 V 252.70129 H 48.670667 v -34.29874 z"
         style="opacity:1;fill:#797979;fill-opacity:1;stroke:none;stroke-width:0.97099423;stroke-linecap:butt;stroke-linejoin:miter;stroke-miterlimit:4;stroke-dasharray:none;stroke-dashoffset:0;stroke-opacity:1;marker:none;marker-start:none;marker-mid:none;marker-end:none;paint-order:normal" />
      <path
         inkscape:connector-curvature="0"
         id="path866"
         d="M 18.487691,215.65867 C 15.44751,215.65867 13,218.10621 13,221.14646 v 57.62184 c 0,3.04024 2.44751,5.4878 5.487691,5.4878 h 27.438458 2.743847 30.183649 c 3.040187,0 5.487692,-2.44756 5.487692,-5.4878 v -57.62184 c 0,-3.04025 -2.447505,-5.48779 -5.487692,-5.48779 H 48.669996 45.926149 Z"
         style="display:inline;opacity:1;fill:#f3af3f;fill-opacity:1;stroke:none;stroke-width:0.17149198;stroke-linecap:butt;stroke-linejoin:miter;stroke-miterlimit:4;stroke-dasharray:none;stroke-dashoffset:0;stroke-opacity:1;marker:none;marker-start:none;marker-mid:none;marker-end:none;paint-order:normal;enable-background:new" />
      <path
         inkscape:connector-curvature="0"
         id="path868"
         d="m 32.009899,231.91903 v 39.98582 h 17.32459 c 5.386289,0 9.397667,-0.89968 12.036753,-2.839 2.639065,-1.88934 3.9602,-4.76831 3.9602,-8.62695 0,-2.51909 -0.615785,-4.63834 -1.845048,-6.36774 -1.228869,-1.72939 -2.961754,-3.17886 -5.203259,-3.82863 1.753279,-0.69975 3.090402,-1.40951 4.012279,-2.76903 0.921671,-1.36951 1.383005,-3.03891 1.383005,-4.97823 0,-3.69869 -1.266846,-6.37774 -3.797449,-8.05715 -2.512412,-1.6794 -6.57807,-2.51909 -12.199457,-2.51909 z m 9.996455,6.66763 h 5.349705 c 1.52376,0 2.678552,0.39986 3.465572,1.0796 0.786721,0.69978 1.18118,1.7294 1.18118,3.08892 0,1.36951 -0.393859,2.40915 -1.18118,3.10889 -0.786722,0.69975 -1.941911,1.04963 -3.465572,1.04963 h -5.349705 z m 0,16.66108 h 5.743365 c 1.981898,0 3.462574,0.39987 4.445025,1.24957 0.982651,0.79972 1.474077,2.04926 1.474077,3.70868 0,1.6894 -0.500822,2.94897 -1.500167,3.78866 -0.982653,0.79972 -2.454132,1.24956 -4.419036,1.24956 h -5.743265 z"
         style="display:inline;opacity:0.2;stroke-width:1.66607654;enable-background:new" />
      <path
         inkscape:connector-curvature="0"
         id="path870"
         d="m 32.009899,229.96447 v 39.98583 h 17.32459 c 5.386289,0 9.397667,-0.89968 12.036753,-2.83899 2.639065,-1.88933 3.9602,-4.76832 3.9602,-8.62694 0,-2.51911 -0.615785,-4.63836 -1.845048,-6.36774 -1.228869,-1.7294 -2.961754,-3.17888 -5.203259,-3.81865 1.753279,-0.69975 3.090402,-1.40951 4.012279,-2.76903 0.921671,-1.3795 1.383005,-3.03891 1.383005,-4.97823 0,-3.69869 -1.266846,-6.38774 -3.797449,-8.05715 -2.512412,-1.6794 -6.57807,-2.51909 -12.199457,-2.51909 z m 9.996455,6.66765 h 5.349705 c 1.52376,0 2.678552,0.39985 3.465572,1.0796 0.786721,0.69975 1.18118,1.7294 1.18118,3.08892 0,1.3695 -0.393859,2.40915 -1.18118,3.1089 -0.786722,0.69974 -1.941911,1.04961 -3.465572,1.04961 h -5.349705 z m 0,16.66009 h 5.743365 c 1.981898,0 3.462574,0.39986 4.445025,1.24955 0.982651,0.79972 1.474077,2.04928 1.474077,3.70869 0,1.6894 -0.500822,2.94895 -1.500167,3.78867 -0.982653,0.79971 -2.454132,1.24954 -4.419036,1.24954 h -5.743265 z"
         style="display:inline;fill:#ffffff;stroke-width:1.66607654;enable-background:new" />
      <path
         style="opacity:1;fill:#405b73;fill-opacity:1;stroke:none;stroke-width:0.97099423;stroke-linecap:butt;stroke-linejoin:miter;stroke-miterlimit:4;stroke-dasharray:none;stroke-dashoffset:0;stroke-opacity:1;marker:none;marker-start:none;marker-mid:none;marker-end:none;paint-order:normal"
         d="M 18.487795,218.40255 C 15.447556,218.40255 13,220.85012 13,223.89036 v 57.62185 C 13,284.55245 15.447556,287 18.487795,287 h 27.4095 2.773372 29.699205 c 4.168182,0 5.944669,-3.09769 5.944669,-6.9455 V 252.70129 H 48.670667 v -34.29874 z"
         id="path872"
         inkscape:connector-curvature="0" />
      <path
         style="display:inline;opacity:1;fill:#2297fd;fill-opacity:1;stroke:none;stroke-width:0.17149198;stroke-linecap:butt;stroke-linejoin:miter;stroke-miterlimit:4;stroke-dasharray:none;stroke-dashoffset:0;stroke-opacity:1;marker:none;marker-start:none;marker-mid:none;marker-end:none;paint-order:normal;enable-background:new"
         d="M 18.487691,215.65867 C 15.44751,215.65867 13,218.10621 13,221.14646 v 57.62184 c 0,3.04024 2.44751,5.4878 5.487691,5.4878 h 27.438458 2.743847 30.183649 c 3.040187,0 5.487692,-2.44756 5.487692,-5.4878 v -57.62184 c 0,-3.04025 -2.447505,-5.48779 -5.487692,-5.48779 H 48.669996 45.926149 Z"
         id="path874"
         inkscape:connector-curvature="0" />
      <path
         inkscape:connector-curvature="0"
         id="path901"
         d="M 56.373747,265.23722 H 40.992579 l -2.427241,6.66763 h -9.887583 l 14.129301,-39.98582 h 11.727223 l 14.129304,39.98582 h -9.887597 l -2.401649,-6.66763 z M 43.44565,256.90715 H 53.895356 L 48.683303,241.2897 Z"
         style="display:inline;opacity:0.2;fill:#0a0a0a;fill-opacity:1;stroke-width:1.66607654;enable-background:new" />
      <g
         transform="matrix(0.84634809,-0.48863931,0.48863931,0.84634809,-79.156713,246.45854)"
         id="g1710"
         style="display:inline;enable-background:new" />
      <text
         id="text1204"
         y="390.12808"
         x="104.42175"
         style="font-style:normal;font-variant:normal;font-weight:normal;font-stretch:normal;font-size:26.06076241px;line-height:125%;font-family:Cantarell;-inkscape-font-specification:Cantarell;letter-spacing:0px;word-spacing:0px;display:inline;fill:#000000;fill-opacity:1;stroke:none;stroke-width:0.97727865;enable-background:new"
         xml:space="preserve"><tspan
           y="397.85382"
           x="104.42175"
           id="tspan1202"
           style="stroke-width:0.97727865" /></text>
      <path
         style="display:inline;fill:#ffffff;stroke-width:1.66607654;enable-background:new"
         d="M 56.373747,263.28266 H 40.992579 l -2.427241,6.66764 h -9.887583 l 14.129301,-39.98583 h 11.727223 l 14.129304,39.98583 h -9.887597 l -2.401649,-6.66764 z M 43.44565,254.9526 h 10.449706 l -5.212053,-15.61745 z"
         id="path6-7"
         inkscape:connector-curvature="0" />
      <path
         style="opacity:1;fill:#797979;fill-opacity:1;stroke:none;stroke-width:0.97099423;stroke-linecap:butt;stroke-linejoin:miter;stroke-miterlimit:4;stroke-dasharray:none;stroke-dashoffset:0;stroke-opacity:1;marker:none;marker-start:none;marker-mid:none;marker-end:none;paint-order:normal"
         d="m 51.146457,185.29447 c -3.040238,0 -5.487796,2.44756 -5.487796,5.4878 v 57.62184 c 0,3.04025 2.447558,5.4878 5.487796,5.4878 h 27.4095 2.773373 29.69921 c 4.16818,0 5.94466,-3.09769 5.94466,-6.94549 V 219.5932 H 81.32933 v -34.29873 z"
         id="path1518"
         inkscape:connector-curvature="0" />
      <path
         style="display:inline;opacity:1;fill:#f3af3f;fill-opacity:1;stroke:none;stroke-width:0.17149198;stroke-linecap:butt;stroke-linejoin:miter;stroke-miterlimit:4;stroke-dasharray:none;stroke-dashoffset:0;stroke-opacity:1;marker:none;marker-start:none;marker-mid:none;marker-end:none;paint-order:normal;enable-background:new"
         d="m 51.146353,182.55057 c -3.040181,0 -5.487692,2.44756 -5.487692,5.48779 v 57.62186 c 0,3.04024 2.447511,5.4878 5.487692,5.4878 h 27.438458 2.743847 30.183652 c 3.04018,0 5.48769,-2.44756 5.48769,-5.4878 v -57.62186 c 0,-3.04023 -2.44751,-5.48779 -5.48769,-5.48779 H 81.328658 78.584811 Z"
         id="path1520"
         inkscape:connector-curvature="0" />
      <path
         style="display:inline;opacity:0.2;stroke-width:1.66607654;enable-background:new"
         d="m 64.668561,198.81094 v 39.98582 H 81.99315 c 5.386293,0 9.397669,-0.89968 12.036756,-2.839 2.639063,-1.88934 3.960201,-4.76831 3.960201,-8.62694 0,-2.51911 -0.615782,-4.63836 -1.845046,-6.36775 -1.228876,-1.72938 -2.961759,-3.17887 -5.203263,-3.82863 1.753276,-0.69975 3.090404,-1.4095 4.012278,-2.76903 0.921677,-1.36951 1.383014,-3.03892 1.383014,-4.97824 0,-3.69868 -1.266856,-6.37772 -3.797461,-8.05714 -2.512406,-1.67941 -6.578067,-2.51909 -12.199453,-2.51909 z m 9.996456,6.66763 h 5.349704 c 1.523759,0 2.678551,0.39985 3.465573,1.07961 0.786721,0.69976 1.181179,1.72939 1.181179,3.08891 0,1.3695 -0.393859,2.40915 -1.181179,3.10889 -0.786723,0.69975 -1.941912,1.04963 -3.465573,1.04963 h -5.349704 z m 0,16.6611 h 5.743364 c 1.981898,0 3.462574,0.39984 4.445026,1.24955 0.98265,0.79972 1.474076,2.04927 1.474076,3.70867 0,1.68941 -0.500822,2.94897 -1.500168,3.78867 -0.982652,0.79971 -2.454132,1.24956 -4.419034,1.24956 h -5.743265 z"
         id="path12"
         inkscape:connector-curvature="0" />
      <path
         style="display:inline;fill:#ffffff;stroke-width:1.66607654;enable-background:new"
         d="m 64.668561,196.85637 v 39.98584 H 81.99315 c 5.386293,0 9.397669,-0.89967 12.036756,-2.83899 2.639063,-1.88932 3.960201,-4.76831 3.960201,-8.62694 0,-2.5191 -0.615782,-4.63835 -1.845046,-6.36775 -1.228876,-1.72939 -2.961759,-3.17886 -5.203263,-3.81864 1.753276,-0.69975 3.090404,-1.40952 4.012278,-2.76903 0.921677,-1.37949 1.383014,-3.0389 1.383014,-4.97822 0,-3.6987 -1.266856,-6.38775 -3.797461,-8.05716 -2.512406,-1.67939 -6.578067,-2.5191 -12.199453,-2.5191 z m 9.996456,6.66766 h 5.349704 c 1.523759,0 2.678551,0.39987 3.465573,1.07961 0.786721,0.69975 1.181179,1.72938 1.181179,3.08892 0,1.36951 -0.393859,2.40913 -1.181179,3.1089 -0.786723,0.69973 -1.941912,1.04961 -3.465573,1.04961 h -5.349704 z m 0,16.6601 h 5.743364 c 1.981898,0 3.462574,0.39986 4.445026,1.24954 0.98265,0.79972 1.474076,2.04929 1.474076,3.70869 0,1.6894 -0.500822,2.94895 -1.500168,3.78867 -0.982652,0.79971 -2.454132,1.24955 -4.419034,1.24955 h -5.743265 z"
         id="path14"
         inkscape:connector-curvature="0" />
      <path
         inkscape:connector-curvature="0"
         id="path881"
         d="m 51.146457,185.29447 c -3.040238,0 -5.487796,2.44756 -5.487796,5.4878 v 57.62184 c 0,3.04025 2.447558,5.4878 5.487796,5.4878 h 27.4095 2.773373 29.69921 c 4.16818,0 5.94466,-3.09769 5.94466,-6.94549 V 219.5932 H 81.32933 v -34.29873 z"
         style="opacity:1;fill:#855400;fill-opacity:1;stroke:none;stroke-width:0.97099423;stroke-linecap:butt;stroke-linejoin:miter;stroke-miterlimit:4;stroke-dasharray:none;stroke-dashoffset:0;stroke-opacity:1;marker:none;marker-start:none;marker-mid:none;marker-end:none;paint-order:normal" />
      <path
         inkscape:connector-curvature="0"
         id="path883"
         d="m 51.146353,182.55057 c -3.040181,0 -5.487692,2.44756 -5.487692,5.48779 v 57.62186 c 0,3.04024 2.447511,5.4878 5.487692,5.4878 h 27.438458 2.743847 30.183652 c 3.04018,0 5.48769,-2.44756 5.48769,-5.4878 v -57.62186 c 0,-3.04023 -2.44751,-5.48779 -5.48769,-5.48779 H 81.328658 78.584811 Z"
         style="display:inline;opacity:1;fill:#f3af3f;fill-opacity:1;stroke:none;stroke-width:0.17149198;stroke-linecap:butt;stroke-linejoin:miter;stroke-miterlimit:4;stroke-dasharray:none;stroke-dashoffset:0;stroke-opacity:1;marker:none;marker-start:none;marker-mid:none;marker-end:none;paint-order:normal;enable-background:new" />
      <path
         inkscape:connector-curvature="0"
         id="path885"
         d="m 64.668559,198.81094 v 39.98582 h 17.324589 c 5.386286,0 9.397671,-0.89968 12.036758,-2.839 2.639063,-1.88934 3.960201,-4.76831 3.960201,-8.62694 0,-2.51911 -0.615782,-4.63836 -1.845046,-6.36775 -1.228876,-1.72938 -2.961759,-3.17887 -5.203271,-3.82863 1.753284,-0.69975 3.090404,-1.4095 4.012285,-2.76903 0.921678,-1.36951 1.383005,-3.03892 1.383005,-4.97824 0,-3.69868 -1.266846,-6.37772 -3.797451,-8.05714 -2.512406,-1.67941 -6.578069,-2.51909 -12.199456,-2.51909 z m 9.996456,6.66763 h 5.349704 c 1.52376,0 2.678551,0.39985 3.465573,1.07961 0.786721,0.69976 1.18118,1.72939 1.18118,3.08891 0,1.3695 -0.39386,2.40915 -1.18118,3.10889 -0.786722,0.69975 -1.941912,1.04963 -3.465573,1.04963 h -5.349704 z m 0,16.6611 h 5.743364 c 1.981898,0 3.462574,0.39984 4.445025,1.24955 0.982651,0.79972 1.474078,2.04927 1.474078,3.70867 0,1.68941 -0.500823,2.94897 -1.500169,3.78867 -0.982652,0.79971 -2.454131,1.24956 -4.419034,1.24956 h -5.743265 z"
         style="display:inline;opacity:0.2;fill:#c28c32;fill-opacity:1;stroke-width:1.66607654;enable-background:new" />
      <path
         style="display:inline;opacity:1;fill:#ffffff;fill-opacity:1;stroke-width:1.66607654;enable-background:new"
         d="m 64.668559,196.85637 v 39.98583 h 17.324589 c 5.386286,0 9.397671,-0.89968 12.036758,-2.83899 2.639063,-1.88934 3.960201,-4.76832 3.960201,-8.62695 0,-2.5191 -0.615782,-4.63835 -1.845046,-6.36775 -1.228876,-1.72939 -2.961759,-3.17886 -5.203271,-3.82863 1.753284,-0.69974 3.090404,-1.40951 4.012285,-2.76903 0.921678,-1.3695 1.383005,-3.03891 1.383005,-4.97823 0,-3.69869 -1.266846,-6.37773 -3.797451,-8.05713 -2.512406,-1.67942 -6.578069,-2.51912 -12.199456,-2.51912 z m 9.996456,6.66764 h 5.349704 c 1.52376,0 2.678551,0.39986 3.465573,1.07961 0.786721,0.69977 1.18118,1.72939 1.18118,3.08892 0,1.36951 -0.39386,2.40913 -1.18118,3.10888 -0.786722,0.69976 -1.941912,1.04963 -3.465573,1.04963 h -5.349704 z m 0,16.6611 h 5.743364 c 1.981898,0 3.462574,0.39985 4.445025,1.24955 0.982651,0.79973 1.474078,2.04926 1.474078,3.70868 0,1.6894 -0.500823,2.94896 -1.500169,3.78867 -0.982652,0.79971 -2.454131,1.24955 -4.419034,1.24955 h -5.743265 z"
         id="path862"
         inkscape:connector-curvature="0" />
    </g>
  </g>
  <g
     transform="matrix(0.57623059,0,0,0.62694308,-95.149209,44.915948)"
     id="g861"
     style="stroke:#ffffff;stroke-width:1.84039485;stroke-linecap:butt;stroke-linejoin:round;stroke-miterlimit:4;stroke-dasharray:none;stroke-opacity:1">
    <g
       id="g859"
       transform="matrix(2,0,0,2,24.834232,-1978.9059)"
       style="stroke:#ffffff;stroke-width:0.92019743;stroke-linecap:butt;stroke-linejoin:round;stroke-miterlimit:4;stroke-dasharray:none;stroke-opacity:1" />
  </g>
</svg>
