<svg xmlns="http://www.w3.org/2000/svg" width="16" height="16" version="1.1">
 <g label="status" transform="translate(-993.0002,-73)" style="fill:#4d4d4d">
  <g transform="translate(501.0002,-207)">
   <path d="m 507.5,292 c 0,2.5 -0.97827,2.47086 -3.5,2.5 h -8 c -2.52174,-0.0302 -3.5,0 -3.5,-2.5 v -8 c 0,-2.5 0.97826,-2.47087 3.5,-2.5 h 8 c 2.52173,0.0302 3.5,0 3.5,2.5 z" style="fill:none;stroke:#4d4d4d;stroke-width:1.00000012"/>
   <path d="m 494.33331,290 c -0.18466,0 -0.33333,0.1115 -0.33333,0.25 v 2.5 c 0,0.1385 0.14867,0.25 0.33333,0.25 h 3.33334 c 0.18466,0 0.33333,-0.1115 0.33333,-0.25 v -2.5 c 0,-0.1385 -0.14867,-0.25 -0.33333,-0.25 z" style="opacity:0.5;fill:#4d4d4d"/>
   <rect width="4" height="1" x="502" y="292" rx=".25" ry=".25" style="fill:#4d4d4d"/>
   <rect width="4" height="1" x="502" y="290" rx=".25" ry=".25" style="fill:#4d4d4d"/>
   <rect width="2" height="12" x="499" y="282" style="opacity:0.5;fill:#4d4d4d"/>
  </g>
 </g>
</svg>
