<svg xmlns="http://www.w3.org/2000/svg" version="1.1" viewBox="0 0 16 16">
 <defs>
  <style id="current-color-scheme" type="text/css">
   .ColorScheme-Text { color:#241f31; }
  </style>
 </defs>
 <g transform="matrix(0.57690865,0,0,0.57690865,-7.7918215,11.96629)" style="fill:#241f31">
  <path d="m 29.1,-14.941 c -0.21,-0.21 -0.548,-0.219 -0.768,-0.02 -1.137,1.021 -7.112,6.208 -13.149,8.04 l -0.065,0.02 c -0.157,0.048 -0.285,0.162 -0.35,0.312 -0.065,0.151 -0.061,0.322 0.011,0.469 l 0.03,0.061 c 0,10e-5 1e-4,0.002 1e-4,0.002 0.021,0.043 0.891,1.86 1,4.421 0.07,1.592 -0.161,3.122 -0.684,4.551 -0.187,0.015 -0.37,0.093 -0.513,0.236 -0.319,0.319 -0.319,0.835 0,1.154 0.319,0.319 0.835,0.319 1.154,0 0.184,-0.184 0.261,-0.435 0.232,-0.674 l 5.849,-5.849 c 0.146,-0.146 0.2,-0.36 0.139,-0.557 -0.207,-0.68 -0.022,-1.415 0.482,-1.919 0.364,-0.364 0.847,-0.564 1.362,-0.564 0.515,0 0.999,0.2 1.362,0.564 0.364,0.364 0.564,0.847 0.564,1.362 0,0.514 -0.2,0.998 -0.564,1.362 -0.364,0.364 -0.847,0.564 -1.361,0.564 -0.191,0 -0.379,-0.028 -0.559,-0.082 -0.197,-0.06 -0.411,-0.006 -0.557,0.139 L 16.8671,4.5 c -0.24,-0.029 -0.491,0.048 -0.675,0.232 -0.319,0.319 -0.318,0.835 0,1.154 0.319,0.319 0.835,0.319 1.154,0 0.143,-0.143 0.221,-0.326 0.236,-0.513 1.26,-0.462 2.601,-0.696 3.988,-0.696 0.174,0 0.352,0.004 0.529,0.011 2.569,0.106 4.442,0.999 4.459,1.01 l 0.059,0.029 c 0.078,0.038 0.162,0.057 0.246,0.057 0.076,0 0.151,-0.015 0.223,-0.046 0.15,-0.065 0.264,-0.193 0.312,-0.35 l 0.02,-0.065 c 1.834,-6.04 7.02,-12.01 8.04,-13.149 0.198,-0.221 0.189,-0.558 -0.021,-0.768 l -6.344,-6.345" style="fill:#241f31"/>
  <path d="m 40.21,-13.224 -6.488,-6.487 c -0.105,-0.105 -0.247,-0.164 -0.395,-0.164 -0.148,0 -0.29,0.059 -0.395,0.163 l -2.776,2.776 c -0.218,0.218 -0.218,0.572 0,0.79 l 6.488,6.487 c 0.105,0.105 0.247,0.164 0.395,0.164 0.148,0 0.29,-0.059 0.395,-0.164 l 2.776,-2.776 c 0.218,-0.218 0.218,-0.572 0,-0.79" style="fill:#241f31"/>
 </g>
</svg>
