<svg xmlns="http://www.w3.org/2000/svg" width="16" height="16" version="1.1">
 <title id="title9167">
  Gnome Symbolic Icon Theme
 </title>
 <g id="layer14" transform="translate(-561,-301.00012)">
  <path d="m 325.0625,97.1875 a 2,3.236068 0 1 1 -4,0 2,3.236068 0 1 1 4,0 z" transform="matrix(1.0000007,0,0,0.61803426,241.93747,252.93479)" style="fill:#241f31"/>
  <path d="m 563.0002,303 0,1 c 0,0.55016 0.45347,1 1,1 4.97056,0 9,4.02944 9,9 0,0.55016 0.45347,1 1,1 l 1,0 0,-1 c 0,-6.07513 -4.92487,-11 -11,-11 l -1,0 z m 0,4 0,1 c 0,0.55016 0.45347,1 1,1 2.76143,0 5,2.23857 5,5 0,0.55016 0.45347,1 1,1 l 1,0 0,-1 c 0,-3.866 -3.134,-7 -7,-7 l -1,0 z" style="fill:#241f31"/>
 </g>
</svg>
