<svg xmlns="http://www.w3.org/2000/svg" width="16" height="16" version="1.1">
 <title id="title9167">
  Gnome Symbolic Icon Theme
 </title>
 <g id="layer9" transform="translate(-223.0002,-215)">
  <path style="fill:#444444" d="m 231.00038,215.49899 c -0.252,5e-4 -0.50376,0.0137 -0.75438,0.0396 -0.23837,0.024 -0.47325,0.0596 -0.70462,0.10546 -0.0103,0.002 -0.0205,0.003 -0.0308,0.005 -0.21738,0.0441 -0.42988,0.10156 -0.64013,0.16407 -0.0299,0.008 -0.0596,0.0154 -0.0894,0.0234 -0.23713,0.0737 -0.46938,0.1574 -0.69575,0.25341 -0.22376,0.0948 -0.44276,0.20038 -0.65629,0.31641 -0.4235,0.23048 -0.82379,0.50127 -1.19532,0.80859 -0.1854,0.15299 -0.36334,0.31479 -0.5332,0.48486 -0.16199,0.16228 -0.31644,0.33189 -0.46288,0.5083 -0.009,0.0104 -0.0178,0.0204 -0.0264,0.0308 -0.11844,0.14658 -0.23131,0.29757 -0.33838,0.45264 -0.038,0.0539 -0.0776,0.1062 -0.11425,0.16114 -0.0814,0.12461 -0.15907,0.25163 -0.23291,0.38086 -0.052,0.089 -0.10542,0.1768 -0.15381,0.26806 -0.0602,0.11613 -0.11735,0.23388 -0.17139,0.353 -0.0502,0.108 -0.0999,0.216 -0.14501,0.32663 -0.0448,0.11325 -0.0868,0.22763 -0.12598,0.34287 -0.0427,0.12125 -0.0851,0.24213 -0.12158,0.36613 -0.0308,0.10875 -0.0591,0.21813 -0.085,0.32813 -0.032,0.13062 -0.0643,0.261 -0.0894,0.39412 -0.0223,0.12588 -0.0413,0.25238 -0.0571,0.37938 -0.0159,0.11775 -0.0321,0.23512 -0.0425,0.3545 -0.0207,0.21712 -0.032,0.43512 -0.0337,0.65325 5e-4,0.25199 0.0137,0.50375 0.0396,0.75437 0.12895,1.28175 0.58307,2.46863 1.27735,3.479 0.006,0.009 0.0126,0.0187 0.019,0.0279 0.0537,0.0771 0.10893,0.15338 0.16553,0.2285 3.7e-4,-0.003 0.001,-0.005 0.002,-0.007 1.36958,1.82701 3.54492,3.01763 5.99704,3.01763 1.4085,0 2.7235,-0.39762 3.85113,-1.07662 l 10e-4,0.001 c 0.0151,-0.0102 0.0303,-0.0205 0.0454,-0.0308 0.17888,-0.10962 0.35287,-0.225 0.5215,-0.34862 0.0388,-0.0285 0.0774,-0.0572 0.11563,-0.0865 0.14812,-0.113 0.29149,-0.231 0.43074,-0.3545 0.0564,-0.0504 0.11213,-0.10163 0.16701,-0.15375 0.11587,-0.10925 0.22799,-0.22213 0.33687,-0.33838 0.0648,-0.0686 0.12825,-0.1385 0.19037,-0.2095 0.10226,-0.11787 0.19963,-0.23925 0.2945,-0.36325 0.0519,-0.067 0.10275,-0.13488 0.15238,-0.20362 0.0996,-0.13988 0.19263,-0.28401 0.28263,-0.43076 0.0375,-0.0595 0.0741,-0.1195 0.10987,-0.18012 0.0892,-0.15488 0.17087,-0.3145 0.24913,-0.47613 0.0306,-0.0615 0.0604,-0.12349 0.0893,-0.186 0.0701,-0.15562 0.13237,-0.315 0.192,-0.476 0.029,-0.0763 0.0569,-0.15287 0.0834,-0.23 0.0517,-0.15537 0.0961,-0.3135 0.13775,-0.47312 0.0219,-0.0802 0.0424,-0.16088 0.0615,-0.24175 0.0339,-0.15088 0.0602,-0.30438 0.085,-0.4585 0.0171,-0.10125 0.0324,-0.20288 0.0454,-0.30476 0.0155,-0.13199 0.0236,-0.26575 0.0323,-0.39987 0.0134,-0.15938 0.0216,-0.31912 0.0249,-0.479 0,-0.25288 -0.0135,-0.502 -0.0382,-0.7485 l -0.002,-0.006 c -0.024,-0.23837 -0.0595,-0.47325 -0.10538,-0.70463 -0.002,-0.01 -0.002,-0.0206 -0.004,-0.0308 -0.0441,-0.21737 -0.10162,-0.42987 -0.16412,-0.64012 -0.008,-0.0284 -0.0131,-0.0581 -0.0219,-0.0864 l -0.003,-0.0103 c -0.0732,-0.23473 -0.15693,-0.46423 -0.25205,-0.68848 -0.0948,-0.22376 -0.20026,-0.44275 -0.31638,-0.65628 -0.2305,-0.4235 -0.50125,-0.82378 -0.80863,-1.19531 -0.15287,-0.1854 -0.31475,-0.36334 -0.48474,-0.5332 -0.16238,-0.16199 -0.33188,-0.31644 -0.50838,-0.46289 -0.008,-0.007 -0.0166,-0.0147 -0.0249,-0.022 -0.002,-0.002 -0.004,-0.003 -0.006,-0.005 -0.14648,-0.11844 -0.29748,-0.23132 -0.4526,-0.33839 -0.0539,-0.038 -0.10613,-0.0776 -0.16113,-0.11426 -0.12462,-0.0814 -0.25162,-0.15906 -0.38087,-0.2329 -0.0889,-0.052 -0.17675,-0.10541 -0.268,-0.15381 -0.11613,-0.0602 -0.23388,-0.11734 -0.35301,-0.17139 -0.10799,-0.0502 -0.216,-0.0999 -0.32674,-0.14501 -0.11313,-0.0448 -0.22738,-0.0867 -0.34263,-0.12595 -0.12138,-0.0427 -0.24225,-0.0851 -0.36625,-0.12159 -0.10875,-0.0308 -0.21813,-0.0591 -0.32812,-0.085 -0.13063,-0.032 -0.26088,-0.0643 -0.39401,-0.0893 -0.126,-0.0223 -0.25249,-0.0413 -0.37937,-0.0571 -0.11775,-0.0159 -0.23513,-0.0321 -0.3545,-0.0425 -0.21725,-0.0207 -0.43525,-0.032 -0.65338,-0.0337 z m -1.13963,1.08252 1.01313,2.37891 1.73362,-1.47218 v 4.11326 l 4.01788,3.2725 -1.23487,0.82112 -3.43213,-0.0351 1.92187,2.60651 c -0.85425,0.46662 -1.83475,0.73249 -2.87987,0.73249 -2.50013,0 -4.63341,-1.5165 -5.53711,-3.68262 0.47302,-1.82751 1.17951,-3.59188 2.19136,-4.57613 0.43175,-1.58869 1.27412,-2.90363 2.20612,-4.15873 z m 1.19325,5.66749 5e-4,0.63863 1.44575,0.11137 c -0.186,-0.44963 -0.59049,-0.65675 -1.44637,-0.75 z"/>
 </g>
</svg>
