<svg xmlns="http://www.w3.org/2000/svg" width="16" height="16" version="1.1">
 <g transform="translate(-472,-180)">
  <path style="fill:#4d4d4d" d="M 1.1425781 3.3574219 C 0.51931812 3.3574219 0 3.87674 0 4.5 L 0 11.357422 C 0 11.980682 0.51931812 12.5 1.1425781 12.5 L 14.857422 12.5 C 15.480682 12.5 16 11.980682 16 11.357422 L 16 4.5 C 16 3.87674 15.480682 3.3574219 14.857422 3.3574219 L 1.1425781 3.3574219 z M 1.1425781 4.5 L 14.857422 4.5 L 14.857422 11.357422 L 1.1425781 11.357422 L 1.1425781 4.5 z M 2.8574219 5.6425781 L 2.8574219 10.214844 L 4 10.214844 L 4 7.4277344 L 5.4277344 9.2148438 L 6.8574219 7.4277344 L 6.8574219 10.214844 L 8 10.214844 L 8 5.6425781 L 6.8574219 5.6425781 L 5.4277344 7.4277344 L 4 5.6425781 L 2.8574219 5.6425781 z M 10.857422 5.6425781 L 10.857422 7.9277344 L 9.7148438 7.9277344 L 11.427734 10.214844 L 13.142578 7.9277344 L 12 7.9277344 L 12 5.6425781 L 10.857422 5.6425781 z" transform="translate(472,180)"/>
 </g>
</svg>
