<svg xmlns="http://www.w3.org/2000/svg" width="16" height="16" version="1.1">
 <g style="font-size:32.5px;line-height:125%;text-align:center;letter-spacing:0px;word-spacing:0px;text-anchor:middle;fill:#4d4d4d" transform="matrix(0.61538451,0,0,0.61538451,-6.1520043,-6.4618449)">
  <path d="M 20.341776,35.688 19.818094,13.487072 q -2.285156,0.856934 -3.570556,2.681885 -1.269532,1.824951 -1.269532,4.538574 0,0.618896 0.06348,1.015625 0.07935,0.380859 0.158691,0.618896 0.07935,0.222168 0.142823,0.349122 0.07935,0.126953 0.07935,0.222168 -0.841064,0 -1.491699,-0.158692 -0.650635,-0.17456 -1.094971,-0.539551 -0.428466,-0.36499 -0.666504,-0.968017 -0.222167,-0.603028 -0.222167,-1.491699 0,-1.079102 0.460205,-2.126465 0.476074,-1.047364 1.2854,-1.983643 0.825195,-0.936279 1.920166,-1.729736 1.11084,-0.793457 2.364502,-1.364746 1.269531,-0.587159 2.634277,-0.904541 1.380616,-0.333252 2.745362,-0.333252 0.36499,0 0.666504,0.01587 0.317382,0.01587 0.634765,0.04761 l 0.285645,19.995117 6.839599,-19.899902 2.269287,0 -9.029541,24.216309 -4.681396,0 z" style="fill:#4d4d4d"/>
 </g>
</svg>
