<svg xmlns="http://www.w3.org/2000/svg" width="16" height="16" version="1.1">
 <g transform="translate(-592,-219.99994)">
  <path d="m 595.99414,221 c -1.2582,0.0145 -2.17889,-0.0306 -2.93164,0.38477 -0.37637,0.20766 -0.67323,0.55938 -0.83789,0.99804 C 592.05994,222.82148 592,223.34239 592,224 v 2 h 0.53125 c 0.25969,0 0.46875,0.223 0.46875,0.5 v 4 c 0,0.277 -0.21354,0.54804 -0.46875,0.5 H 592 v 2 c 0,0 0.0599,1.17853 0.22461,1.61719 0.16467,0.43866 0.46152,0.79039 0.83789,0.99804 0.75275,0.41532 1.67345,0.3702 2.93164,0.38477 h 0.004 8.0039 0.004 c 1.25819,-0.0145 2.17889,0.0306 2.93164,-0.38477 0.37637,-0.20766 0.67322,-0.55938 0.83789,-0.99804 C 607.9388,234.17852 608,233.65761 608,233 v -2 h -0.53125 C 607.20906,231 607,230.777 607,230.5 v -4 c 0,-0.277 0.20906,-0.5 0.46875,-0.5 H 608 v -2 c 0,-0.65761 -0.0599,-1.17852 -0.22461,-1.61719 -0.16466,-0.43866 -0.46152,-0.79038 -0.83789,-0.99804 -0.75275,-0.41534 -1.67344,-0.37025 -2.93164,-0.38477 h -0.004 -8.0039 z M 595.5,225 h 0.5 1 1 c 0.0693,0 0.13545,0.0138 0.19531,0.0391 C 598.65182,225.132 599,225.51525 599,226 v 2 c 0,0.554 -0.446,1 -1,1 h -1.5 c -0.277,0 -0.5,0.223 -0.5,0.5 v 1 c 0,0.277 0.223,0.5 0.5,0.5 h 0.5 1.5 c 0.277,0 0.5,0.223 0.5,0.5 0,0.277 -0.223,0.5 -0.5,0.5 H 598 596.5 596 c -0.554,0 -1,-0.446 -1,-1 v -0.5 -1 -0.5 c 0,-0.554 0.446,-1 1,-1 h 1 0.5 c 0.277,0 0.5,-0.223 0.5,-0.5 v -1 c 0,-0.277 -0.22361,-0.48157 -0.5,-0.5 h -1.5 -0.5 c -0.277,0 -0.5,-0.223 -0.5,-0.5 0,-0.277 0.223,-0.5 0.5,-0.5 z m 6.5,0 h 2 c 0.554,0 1,0.446 1,1 v 2 c 0,0.18637 -0.46463,0.35094 -0.55273,0.5 0.0881,0.14906 0.55273,0.31363 0.55273,0.5 v 2 c 0,0.554 -0.446,1 -1,1 h -2 c -0.554,0 -1,-0.446 -1,-1 v -2 c 0,-0.18637 0.46463,-0.35094 0.55273,-0.5 C 601.46466,228.35094 601,228.18637 601,228 v -2 c 0,-0.554 0.446,-1 1,-1 z m 0.5,1 c -0.277,0 -0.5,0.223 -0.5,0.5 v 1 c 0,0.277 0.223,0.5 0.5,0.5 h 1 c 0.277,0 0.5,-0.223 0.5,-0.5 v -1 c 0,-0.277 -0.223,-0.5 -0.5,-0.5 z m 0,3 c -0.277,0 -0.5,0.223 -0.5,0.5 v 1 c 0,0.277 0.223,0.5 0.5,0.5 h 1 c 0.277,0 0.5,-0.223 0.5,-0.5 v -1 c 0,-0.277 -0.223,-0.5 -0.5,-0.5 z" style="fill:#4d4d4d"/>
 </g>
</svg>
