<?xml version="1.0" encoding="UTF-8" standalone="no"?>
<!-- Created with Inkscape (http://www.inkscape.org/) -->

<svg
   xmlns:dc="http://purl.org/dc/elements/1.1/"
   xmlns:cc="http://creativecommons.org/ns#"
   xmlns:rdf="http://www.w3.org/1999/02/22-rdf-syntax-ns#"
   xmlns:svg="http://www.w3.org/2000/svg"
   xmlns="http://www.w3.org/2000/svg"
   xmlns:xlink="http://www.w3.org/1999/xlink"
   xmlns:sodipodi="http://sodipodi.sourceforge.net/DTD/sodipodi-0.dtd"
   xmlns:inkscape="http://www.inkscape.org/namespaces/inkscape"
   width="128"
   height="128"
   id="svg5831"
   version="1.1"
   inkscape:version="0.92.3 (2405546, 2018-03-11)"
   sodipodi:docname="audacity.svg">
  <defs
     id="defs5833">
    <linearGradient
       id="linearGradient999"
       inkscape:collect="always">
      <stop
         id="stop993"
         offset="0"
         style="stop-color:#98aec6;stop-opacity:1" />
      <stop
         style="stop-color:#102640;stop-opacity:1"
         offset="0.64924306"
         id="stop995" />
      <stop
         id="stop997"
         offset="1"
         style="stop-color:#102640;stop-opacity:1" />
    </linearGradient>
    <linearGradient
       id="linearGradient991"
       inkscape:collect="always">
      <stop
         id="stop983"
         offset="0"
         style="stop-color:#90a8c2;stop-opacity:1" />
      <stop
         style="stop-color:#52769e;stop-opacity:1"
         offset="0.31057373"
         id="stop985" />
      <stop
         id="stop987"
         offset="0.68832356"
         style="stop-color:#52769e;stop-opacity:1" />
      <stop
         id="stop989"
         offset="1"
         style="stop-color:#597ca2;stop-opacity:1" />
    </linearGradient>
    <linearGradient
       id="linearGradient5159">
      <stop
         id="stop5161"
         offset="0"
         style="stop-color:#52769e;stop-opacity:1;" />
      <stop
         id="stop5163"
         offset="1"
         style="stop-color:#d1dbe7;stop-opacity:1;" />
    </linearGradient>
    <linearGradient
       id="linearGradient5165">
      <stop
         id="stop5167"
         offset="0"
         style="stop-color:#1d446f;stop-opacity:1;" />
      <stop
         id="stop5169"
         offset="1"
         style="stop-color:#5892d4;stop-opacity:1;" />
    </linearGradient>
    <linearGradient
       id="linearGradient5171">
      <stop
         id="stop5173"
         offset="0"
         style="stop-color:#5892d4;stop-opacity:1;" />
      <stop
         id="stop5175"
         offset="1"
         style="stop-color:#1d446f;stop-opacity:1;" />
    </linearGradient>
    <linearGradient
       id="linearGradient5177">
      <stop
         id="stop5179"
         offset="0"
         style="stop-color:#102640;stop-opacity:1;" />
      <stop
         id="stop5181"
         offset="1"
         style="stop-color:#77a6dd;stop-opacity:1;" />
    </linearGradient>
    <linearGradient
       id="linearGradient5183">
      <stop
         id="stop5185"
         offset="0"
         style="stop-color:#bd1717;stop-opacity:1;" />
      <stop
         id="stop5187"
         offset="1"
         style="stop-color:#bdb317;stop-opacity:1;" />
    </linearGradient>
    <radialGradient
       cx="4.9929786"
       cy="43.5"
       r="2.5"
       fx="4.9929786"
       fy="43.5"
       id="radialGradient2455"
       xlink:href="#linearGradient3688-166-749-6"
       gradientUnits="userSpaceOnUse"
       gradientTransform="matrix(2.003784,0,0,1.4,27.98813,-17.4)" />
    <linearGradient
       id="linearGradient3688-166-749-6">
      <stop
         id="stop2883-3"
         style="stop-color:#181818;stop-opacity:1"
         offset="0" />
      <stop
         id="stop2885-68"
         style="stop-color:#181818;stop-opacity:0"
         offset="1" />
    </linearGradient>
    <radialGradient
       cx="4.9929786"
       cy="43.5"
       r="2.5"
       fx="4.9929786"
       fy="43.5"
       id="radialGradient2457"
       xlink:href="#linearGradient3688-464-309-5"
       gradientUnits="userSpaceOnUse"
       gradientTransform="matrix(2.003784,0,0,1.4,-20.01187,-104.4)" />
    <linearGradient
       id="linearGradient3688-464-309-5">
      <stop
         id="stop2889-7"
         style="stop-color:#181818;stop-opacity:1"
         offset="0" />
      <stop
         id="stop2891-4"
         style="stop-color:#181818;stop-opacity:0"
         offset="1" />
    </linearGradient>
    <linearGradient
       x1="25.058096"
       y1="47.027729"
       x2="25.058096"
       y2="39.999443"
       id="linearGradient2459"
       xlink:href="#linearGradient3702-501-757-4"
       gradientUnits="userSpaceOnUse" />
    <linearGradient
       id="linearGradient3702-501-757-4">
      <stop
         id="stop2895-3"
         style="stop-color:#181818;stop-opacity:0"
         offset="0" />
      <stop
         id="stop2897-5"
         style="stop-color:#181818;stop-opacity:1"
         offset="0.5" />
      <stop
         id="stop2899-69"
         style="stop-color:#181818;stop-opacity:0"
         offset="1" />
    </linearGradient>
    <radialGradient
       inkscape:collect="always"
       xlink:href="#linearGradient4117"
       id="radialGradient1233"
       gradientUnits="userSpaceOnUse"
       gradientTransform="matrix(2.8150539,0.01105706,-0.01047197,2.6660925,-242.35997,-102.50318)"
       cx="134.30902"
       cy="55.279427"
       fx="134.30902"
       fy="55.279427"
       r="58.46003" />
    <linearGradient
       inkscape:collect="always"
       id="linearGradient4117">
      <stop
         style="stop-color:#eae9e7;stop-opacity:1"
         offset="0"
         id="stop4111" />
      <stop
         id="stop4113"
         offset="0.64924306"
         style="stop-color:#b5b3ad;stop-opacity:1" />
      <stop
         style="stop-color:#fcfcfc;stop-opacity:1"
         offset="1"
         id="stop4115" />
    </linearGradient>
    <radialGradient
       inkscape:collect="always"
       xlink:href="#linearGradient991"
       id="radialGradient1257"
       gradientUnits="userSpaceOnUse"
       gradientTransform="matrix(1.3327133,0.04090919,-0.06418711,2.0910465,121.04765,-320.17677)"
       cx="183.52466"
       cy="320.79443"
       fx="183.52466"
       fy="320.79443"
       r="20.486324" />
    <radialGradient
       inkscape:collect="always"
       xlink:href="#linearGradient999"
       id="radialGradient1261"
       gradientUnits="userSpaceOnUse"
       gradientTransform="matrix(0.7655591,0.00300699,-0.00284787,0.72504877,228.78827,322.81079)"
       cx="134.30902"
       cy="55.279427"
       fx="134.30902"
       fy="55.279427"
       r="58.46003" />
    <radialGradient
       inkscape:collect="always"
       xlink:href="#linearGradient5638"
       id="radialGradient5640"
       cx="282.1377"
       cy="-218.9213"
       fx="282.1377"
       fy="-218.9213"
       r="128.51855"
       gradientTransform="matrix(0.32122778,0.01058026,-0.00543605,0.16504441,279.66592,338.31875)"
       gradientUnits="userSpaceOnUse" />
    <linearGradient
       inkscape:collect="always"
       id="linearGradient5638">
      <stop
         style="stop-color:#102640;stop-opacity:1"
         offset="0"
         id="stop5634" />
      <stop
         style="stop-color:#6590c2;stop-opacity:1"
         offset="1"
         id="stop5636" />
    </linearGradient>
    <radialGradient
       inkscape:collect="always"
       xlink:href="#linearGradient5646"
       id="radialGradient5648"
       cx="281.38574"
       cy="-269.13684"
       fx="281.38574"
       fy="-269.13684"
       r="144.51788"
       gradientTransform="matrix(0.29191273,0,0,0.10655733,289.12687,326.82105)"
       gradientUnits="userSpaceOnUse" />
    <linearGradient
       inkscape:collect="always"
       id="linearGradient5646">
      <stop
         style="stop-color:#88a1bd;stop-opacity:0.97254902"
         offset="0"
         id="stop5642" />
      <stop
         style="stop-color:#5a7089;stop-opacity:1"
         offset="1"
         id="stop5644" />
    </linearGradient>
    <linearGradient
       inkscape:collect="always"
       id="linearGradient5664">
      <stop
         style="stop-color:#102640;stop-opacity:1"
         offset="0"
         id="stop5660" />
      <stop
         id="stop5668"
         offset="0.07799384"
         style="stop-color:#6c829b;stop-opacity:1" />
      <stop
         style="stop-color:#88a1bd;stop-opacity:0.97254902"
         offset="0.10368115"
         id="stop5672" />
      <stop
         style="stop-color:#6182a6;stop-opacity:1"
         offset="0.11958282"
         id="stop5670" />
      <stop
         id="stop5682"
         offset="0.28471547"
         style="stop-color:#687e97;stop-opacity:1" />
      <stop
         id="stop5680"
         offset="0.49999952"
         style="stop-color:#92a8c0;stop-opacity:1" />
      <stop
         style="stop-color:#687e97;stop-opacity:1"
         offset="0.76176536"
         id="stop5684" />
      <stop
         id="stop5674"
         offset="0.87430018"
         style="stop-color:#3e63aa;stop-opacity:1" />
      <stop
         style="stop-color:#88a1bd;stop-opacity:0.97254902"
         offset="0.90488034"
         id="stop5676" />
      <stop
         id="stop5678"
         offset="0.94891572"
         style="stop-color:#6c829b;stop-opacity:1" />
      <stop
         style="stop-color:#102640;stop-opacity:1"
         offset="1"
         id="stop5662" />
    </linearGradient>
    <linearGradient
       inkscape:collect="always"
       xlink:href="#linearGradient5664"
       id="linearGradient1031"
       gradientUnits="userSpaceOnUse"
       gradientTransform="matrix(0.29191273,0,0,0.29191273,289.12687,352.08093)"
       x1="137.61646"
       y1="-138.58612"
       x2="426.65503"
       y2="-138.58612" />
    <radialGradient
       inkscape:collect="always"
       xlink:href="#linearGradient999"
       id="radialGradient1019"
       gradientUnits="userSpaceOnUse"
       gradientTransform="matrix(0.75517238,0.00296619,-0.00280923,0.71521168,111.15496,311.5195)"
       cx="134.30902"
       cy="55.279427"
       fx="134.30902"
       fy="55.279427"
       r="58.46003" />
    <radialGradient
       inkscape:collect="always"
       xlink:href="#linearGradient991"
       id="radialGradient1021"
       gradientUnits="userSpaceOnUse"
       gradientTransform="matrix(1.3146317,0.04035415,-0.06331625,2.0626762,4.8761161,-322.74433)"
       cx="183.52466"
       cy="320.79443"
       fx="183.52466"
       fy="320.79443"
       r="20.486324" />
  </defs>
  <sodipodi:namedview
     id="base"
     pagecolor="#ffffff"
     bordercolor="#666666"
     borderopacity="1.0"
     inkscape:pageopacity="0.0"
     inkscape:pageshadow="2"
     inkscape:zoom="6.0503022"
     inkscape:cx="8.0058064"
     inkscape:cy="59.356671"
     inkscape:document-units="px"
     inkscape:current-layer="layer1"
     showgrid="false"
     fit-margin-top="0"
     fit-margin-left="0"
     fit-margin-right="0"
     fit-margin-bottom="0"
     inkscape:window-width="1920"
     inkscape:window-height="1009"
     inkscape:window-x="0"
     inkscape:window-y="34"
     inkscape:window-maximized="1" />
  <metadata
     id="metadata5836">
    <rdf:RDF>
      <cc:Work
         rdf:about="">
        <dc:format>image/svg+xml</dc:format>
        <dc:type
           rdf:resource="http://purl.org/dc/dcmitype/StillImage" />
        <dc:title />
      </cc:Work>
    </rdf:RDF>
  </metadata>
  <g
     inkscape:label="Capa 1"
     inkscape:groupmode="layer"
     id="layer1"
     transform="translate(-307.42856,-282.64789)">
    <path
       inkscape:connector-curvature="0"
       style="fill:#edd400;fill-opacity:1;fill-rule:evenodd;stroke:none;stroke-width:2.2390101px;stroke-linecap:butt;stroke-linejoin:miter;stroke-opacity:1"
       d="m 349.68218,364.51835 4.15184,-1.39984 2.24423,-5.4623 0.49698,-5.62988 1.55327,-2.89678 1.9319,7.18353 2.2835,-6.15325 c 0,0 1.05582,9.31277 1.05582,8.15899 0,-1.15381 2.30614,-12.41802 2.30614,-12.41802 l 1.63395,11.38901 1.66531,-5.8522 1.15911,6.26616 1.27894,-3.4413 1.39096,4.17975 2.8322,-8.82661 1.70007,7.51799 3.29584,-4.1924 2.00917,4.01005 3.06402,-4.48764 2.12508,3.98623 0.81914,-3.4406 1.51076,7.01935 3.05627,-0.38712 v 19.5075 l -2.51533,0.84368 -1.27895,6.72348 -2.33513,-2.52967 c 0,0 -2.3169,12.32823 -2.3169,9.88981 0,-2.43844 -2.16371,-5.53682 -2.16371,-5.53682 l -3.52768,3.4862 -1.15915,-4.21555 -3.71699,7.83779 -1.20164,-8.13444 -1.7851,4.42104 -2.08643,-3.41817 c 0,0 -1.58802,8.06311 -1.58802,7.04039 0,-1.02272 -1.08187,-6.15183 -1.08187,-6.15183 0,0 -2.4033,8.02011 -2.4033,5.58168 0,-2.43844 -1.08187,-6.65258 -1.08187,-6.65258 l -2.24874,5.85659 -1.15914,-3.78285 -2.71241,4.37335 -0.72423,-8.08816 -3.87754,-0.22861 0.65296,-6.60911 -3.25333,-1.83462 z"
       id="path5844"
       sodipodi:nodetypes="cccccccscccccccccccccccccccscccccccscsccccccccc" />
    <path
       inkscape:connector-curvature="0"
       style="fill:#ef2929;fill-opacity:1;fill-rule:evenodd;stroke:none;stroke-width:2.2390101px;stroke-linecap:butt;stroke-linejoin:miter;stroke-opacity:1"
       d="m 350.34166,369.56367 3.43838,1.02969 1.33494,-4.48352 2.10343,2.87559 0.58144,-15.94224 2.85692,16.52048 1.71918,-2.05943 c 0,0 0.96542,2.54665 0.96542,2.05943 0,-0.48723 1.94947,-11.14449 1.94947,-11.14449 l 2.24268,11.74942 1.71918,-6.78321 v 5.14856 l 1.7192,-1.02971 v 3.57451 l 4.37702,-17.09847 0.78051,15.58339 3.1484,-6.30693 2.00917,6.30693 4.01488,-11.23732 1.14267,11.23732 2.97472,-4.00084 2.18284,2.97112 1.71919,-1.02971 v 8.2377 l -1.71919,-1.02973 -1.71918,3.6477 -2.5325,-3.6477 c 0,0 -2.47087,16.28674 -2.47087,15.25702 0,-1.02972 -1.87336,-14.22729 -1.87336,-14.22729 l -3.61206,4.36549 -1.54551,-4.36549 -3.43836,8.23768 -1.71919,-7.20797 -2.51106,4.24747 -0.92732,-4.24747 c 0,0 -1.41007,5.81646 -1.41007,5.38458 0,-0.43187 -0.30911,-4.35487 -0.30911,-4.35487 0,0 -2.92167,13.97333 -2.92167,12.94362 0,-1.02972 -0.51671,-13.97333 -0.51671,-13.97333 l -3.12927,5.27718 -0.3091,-4.24747 -2.7749,12.73202 -1.09333,-12.34347 -2.98938,1.7352 -0.0186,-3.15346 -3.43838,-1.50624 z"
       id="path6815"
       sodipodi:nodetypes="cccccccscccccccccccccccccccscccccccscsccccccccc" />
    <path
       style="color:#000000;font-style:normal;font-variant:normal;font-weight:normal;font-stretch:normal;font-size:medium;line-height:normal;font-family:sans-serif;font-variant-ligatures:normal;font-variant-position:normal;font-variant-caps:normal;font-variant-numeric:normal;font-variant-alternates:normal;font-feature-settings:normal;text-indent:0;text-align:start;text-decoration:none;text-decoration-line:none;text-decoration-style:solid;text-decoration-color:#000000;letter-spacing:normal;word-spacing:normal;text-transform:none;writing-mode:lr-tb;direction:ltr;text-orientation:mixed;dominant-baseline:auto;baseline-shift:baseline;text-anchor:start;white-space:normal;shape-padding:0;clip-rule:nonzero;display:inline;overflow:visible;visibility:visible;opacity:1;isolation:auto;mix-blend-mode:normal;color-interpolation:sRGB;color-interpolation-filters:linearRGB;solid-color:#000000;solid-opacity:1;vector-effect:none;fill:#7288a0;fill-opacity:1;fill-rule:nonzero;stroke:none;stroke-width:1.2324847;stroke-linecap:butt;stroke-linejoin:bevel;stroke-miterlimit:4;stroke-dasharray:none;stroke-dashoffset:0;stroke-opacity:1;marker:none;paint-order:normal;color-rendering:auto;image-rendering:auto;shape-rendering:auto;text-rendering:auto;enable-background:new"
       d="M 63.998047 17.171875 C 41.236984 17.171875 22.748375 35.601019 22.644531 58.337891 L 22.625 58.337891 L 22.625 78.720703 L 25.34375 78.720703 L 25.34375 58.529297 L 25.357422 58.529297 C 25.357422 37.173777 42.642527 19.892578 63.998047 19.892578 C 85.353567 19.892578 102.63477 37.173777 102.63477 58.529297 L 102.64648 58.529297 L 102.64648 62.523438 L 102.65625 62.523438 L 102.65625 78.720703 L 105.375 78.720703 L 105.375 58.337891 L 105.36719 58.337891 L 105.34961 58.337891 C 105.24577 35.601019 86.759109 17.171875 63.998047 17.171875 z "
       transform="translate(307.42856,282.64789)"
       id="path1309" />
    <path
       style="color:#000000;font-style:normal;font-variant:normal;font-weight:normal;font-stretch:normal;font-size:medium;line-height:normal;font-family:sans-serif;font-variant-ligatures:normal;font-variant-position:normal;font-variant-caps:normal;font-variant-numeric:normal;font-variant-alternates:normal;font-feature-settings:normal;text-indent:0;text-align:start;text-decoration:none;text-decoration-line:none;text-decoration-style:solid;text-decoration-color:#000000;letter-spacing:normal;word-spacing:normal;text-transform:none;writing-mode:lr-tb;direction:ltr;text-orientation:mixed;dominant-baseline:auto;baseline-shift:baseline;text-anchor:start;white-space:normal;shape-padding:0;clip-rule:nonzero;display:inline;overflow:visible;visibility:visible;opacity:1;isolation:auto;mix-blend-mode:normal;color-interpolation:sRGB;color-interpolation-filters:linearRGB;solid-color:#000000;solid-opacity:1;vector-effect:none;fill:url(#linearGradient1031);fill-opacity:1;fill-rule:nonzero;stroke:none;stroke-width:5.43903732;stroke-linecap:butt;stroke-linejoin:bevel;stroke-miterlimit:4;stroke-dasharray:none;stroke-dashoffset:0;stroke-opacity:1;marker:none;paint-order:normal;color-rendering:auto;image-rendering:auto;shape-rendering:auto;text-rendering:auto;enable-background:accumulate"
       d="m 371.4856,296.29202 c -15.50238,0 -30.10804,5.52248 -39.17403,17.4785 -1.93347,2.55487 -2.99586,8.78287 0.95824,11.06577 l 3.2525,1.80003 c 1.15397,0.66593 2.62927,0.27063 3.29567,-0.88307 6.53655,-11.32164 18.24721,-19.49524 31.66762,-19.49524 13.42042,0 25.13166,8.17364 31.6682,19.49524 0.6664,1.1537 2.1417,1.549 3.29566,0.88307 l 3.06576,-1.56073 c 4.64693,-2.68291 2.4984,-8.94229 1.29054,-11.03437 -9.04664,-12.12618 -23.71515,-17.7492 -39.32016,-17.7492 z"
       id="path5655"
       inkscape:connector-curvature="0"
       sodipodi:nodetypes="sccccsccccs" />
    <path
       style="color:#000000;font-style:normal;font-variant:normal;font-weight:normal;font-stretch:normal;font-size:medium;line-height:normal;font-family:sans-serif;font-variant-ligatures:normal;font-variant-position:normal;font-variant-caps:normal;font-variant-numeric:normal;font-variant-alternates:normal;font-feature-settings:normal;text-indent:0;text-align:start;text-decoration:none;text-decoration-line:none;text-decoration-style:solid;text-decoration-color:#000000;letter-spacing:normal;word-spacing:normal;text-transform:none;writing-mode:lr-tb;direction:ltr;text-orientation:mixed;dominant-baseline:auto;baseline-shift:baseline;text-anchor:start;white-space:normal;shape-padding:0;clip-rule:nonzero;display:inline;overflow:visible;visibility:visible;opacity:1;isolation:auto;mix-blend-mode:normal;color-interpolation:sRGB;color-interpolation-filters:linearRGB;solid-color:#000000;solid-opacity:1;vector-effect:none;fill:url(#radialGradient5648);fill-opacity:1;fill-rule:nonzero;stroke:none;stroke-width:5.43903732;stroke-linecap:butt;stroke-linejoin:bevel;stroke-miterlimit:4;stroke-dasharray:none;stroke-dashoffset:0;stroke-opacity:1;marker:none;paint-order:normal;color-rendering:auto;image-rendering:auto;shape-rendering:auto;text-rendering:auto;enable-background:accumulate"
       d="m 371.4856,293.54389 c -15.31281,0 -29.60853,7.25692 -38.66474,19.33282 0,0 -4.34022,7.02781 1.05197,10.14102 l 1.72062,0.99342 c 1.18462,0.68361 2.69911,0.2778 3.38322,-0.90653 6.7102,-11.62243 19.08852,-18.76908 32.50893,-18.76908 13.42042,0 25.79932,7.1467 32.5095,18.76908 0.68411,1.18434 2.1986,1.59014 3.38322,0.90653 l 1.77066,-1.0223 c 5.15697,-2.79071 0.99091,-10.1268 0.99091,-10.1268 -9.05689,-12.06714 -23.34767,-19.31816 -38.65429,-19.31816 z"
       id="path1318"
       inkscape:connector-curvature="0"
       sodipodi:nodetypes="sccccsccccs" />
    <path
       inkscape:connector-curvature="0"
       style="color:#000000;font-style:normal;font-variant:normal;font-weight:normal;font-stretch:normal;font-size:medium;line-height:normal;font-family:sans-serif;font-variant-ligatures:normal;font-variant-position:normal;font-variant-caps:normal;font-variant-numeric:normal;font-variant-alternates:normal;font-feature-settings:normal;text-indent:0;text-align:start;text-decoration:none;text-decoration-line:none;text-decoration-style:solid;text-decoration-color:#000000;letter-spacing:normal;word-spacing:normal;text-transform:none;writing-mode:lr-tb;direction:ltr;text-orientation:mixed;dominant-baseline:auto;baseline-shift:baseline;text-anchor:start;white-space:normal;shape-padding:0;clip-rule:nonzero;display:inline;overflow:visible;visibility:visible;opacity:1;isolation:auto;mix-blend-mode:normal;color-interpolation:sRGB;color-interpolation-filters:linearRGB;solid-color:#000000;solid-opacity:1;vector-effect:none;fill:url(#radialGradient5640);fill-opacity:1;fill-rule:nonzero;stroke:none;stroke-width:5.43903732;stroke-linecap:butt;stroke-linejoin:bevel;stroke-miterlimit:4;stroke-dasharray:none;stroke-dashoffset:0;stroke-opacity:1;marker:none;paint-order:normal;color-rendering:auto;image-rendering:auto;shape-rendering:auto;text-rendering:auto;enable-background:accumulate"
       d="m 371.4856,300.0133 c -18.22999,6e-5 -29.66254,9.3981 -37.36654,22.74182 -0.058,0.10212 -0.10774,0.20869 -0.1488,0.31871 l 1.62319,0.93732 c 1.18462,0.68361 2.69911,0.27781 3.38322,-0.90653 6.7102,-11.62243 19.08852,-18.76908 32.50893,-18.76908 13.42042,0 25.79932,7.1467 32.5095,18.76908 0.68411,1.18434 2.1986,1.59014 3.38322,0.90653 l 1.62434,-0.93789 c -0.0415,-0.10986 -0.0916,-0.21624 -0.14994,-0.31814 -7.70403,-13.34376 -19.13712,-22.74189 -37.36712,-22.74182 z"
       id="path1328"
       sodipodi:nodetypes="zccccsccccz" />
    <circle
       r="15.576219"
       cy="369.9671"
       cx="327.00479"
       id="path1278"
       style="display:inline;opacity:1;vector-effect:none;fill:#88a1bd;fill-opacity:0.97142855;stroke:none;stroke-width:0.27195185;stroke-linecap:butt;stroke-linejoin:bevel;stroke-miterlimit:4;stroke-dasharray:none;stroke-dashoffset:0;stroke-opacity:1;marker:none;marker-start:none;marker-mid:none;marker-end:none;paint-order:normal;enable-background:new" />
    <path
       sodipodi:nodetypes="cccccccccccccc"
       inkscape:connector-curvature="0"
       id="path1273"
       d="m 333.83089,344.55158 c -4.65138,-3e-5 -9.29458,1.36161 -13.20905,3.87402 -1.46339,0.9394 -2.34825,2.55884 -2.34829,4.2978 v 34.17334 c 5e-5,1.73487 0.88077,3.35107 2.3386,4.29154 3.91127,2.52276 8.55477,3.89497 13.20905,3.90372 0.005,0 0.0104,0 0.0156,0 5.61143,-0.006 10.0463,-2.01702 14.37571,-5.58695 1.17631,-0.97018 1.85761,-2.41519 1.85763,-3.93997 v -31.4919 c -2e-5,-1.52562 -0.68208,-2.97136 -1.8595,-3.94152 -4.33034,-3.56756 -8.76509,-5.57547 -14.37573,-5.58008 h -0.004 z"
       style="display:inline;opacity:1;vector-effect:none;fill:url(#radialGradient1261);fill-opacity:1;stroke:none;stroke-width:0.27195185;stroke-linecap:butt;stroke-linejoin:bevel;stroke-miterlimit:4;stroke-dasharray:none;stroke-dashoffset:0;stroke-opacity:1;marker:none;marker-start:none;marker-mid:none;marker-end:none;paint-order:normal;enable-background:new" />
    <path
       id="path1280"
       d="m 338.92734,345.16802 v 49.30615 c 3.36559,-0.84828 6.35019,-2.54888 9.28514,-4.96897 1.1763,-0.97017 1.85743,-2.41534 1.85745,-3.94012 v -31.4917 c -2e-5,-1.52563 -0.68162,-2.97155 -1.85904,-3.94171 -2.93481,-2.41784 -5.91927,-4.11667 -9.28355,-4.96365 z"
       style="display:inline;opacity:1;vector-effect:none;fill:url(#radialGradient1257);fill-opacity:1;stroke:none;stroke-width:0.27195185;stroke-linecap:butt;stroke-linejoin:bevel;stroke-miterlimit:4;stroke-dasharray:none;stroke-dashoffset:0;stroke-opacity:1;marker:none;marker-start:none;marker-mid:none;marker-end:none;paint-order:normal;enable-background:new"
       inkscape:connector-curvature="0" />
    <g
       id="g1017"
       transform="matrix(-1.0137541,0,0,1.0137541,626.75261,7.00662)">
      <circle
         r="15.364888"
         cy="358.03632"
         cx="208.03889"
         id="circle1007"
         style="display:inline;opacity:1;vector-effect:none;fill:#88a1bd;fill-opacity:0.97142855;stroke:none;stroke-width:0.26826215;stroke-linecap:butt;stroke-linejoin:bevel;stroke-miterlimit:4;stroke-dasharray:none;stroke-dashoffset:0;stroke-opacity:1;marker:none;marker-start:none;marker-mid:none;marker-end:none;paint-order:normal;enable-background:new" />
      <path
         sodipodi:nodetypes="cccccccccccccc"
         inkscape:connector-curvature="0"
         id="path1009"
         d="m 214.77241,332.96531 c -4.58827,-3e-5 -9.16847,1.34314 -13.02983,3.82146 -1.44354,0.92665 -2.31639,2.52412 -2.31643,4.23949 v 33.70969 c 5e-5,1.71133 0.86882,3.30561 2.30687,4.23332 3.8582,2.48853 8.4387,3.84212 13.02983,3.85075 0.005,0 0.0103,0 0.0154,0 5.5353,-0.006 9.91,-1.98965 14.18067,-5.51115 1.16035,-0.95701 1.83241,-2.38242 1.83243,-3.88651 v -31.06463 c -2e-5,-1.50493 -0.67283,-2.93105 -1.83428,-3.88805 -4.27158,-3.51915 -8.64617,-5.49982 -14.18068,-5.50437 h -0.004 z"
         style="display:inline;opacity:1;vector-effect:none;fill:url(#radialGradient1019);fill-opacity:1;stroke:none;stroke-width:0.26826215;stroke-linecap:butt;stroke-linejoin:bevel;stroke-miterlimit:4;stroke-dasharray:none;stroke-dashoffset:0;stroke-opacity:1;marker:none;marker-start:none;marker-mid:none;marker-end:none;paint-order:normal;enable-background:new" />
      <path
         id="path1011"
         d="m 219.79972,333.57339 v 48.63718 c 3.31992,-0.83677 6.26403,-2.51429 9.15916,-4.90155 1.16034,-0.95701 1.83223,-2.38257 1.83225,-3.88666 v -31.06444 c -2e-5,-1.50493 -0.67237,-2.93123 -1.83382,-3.88823 -2.89499,-2.38503 -5.83896,-4.06081 -9.15759,-4.8963 z"
         style="display:inline;opacity:1;vector-effect:none;fill:url(#radialGradient1021);fill-opacity:1;stroke:none;stroke-width:0.26826215;stroke-linecap:butt;stroke-linejoin:bevel;stroke-miterlimit:4;stroke-dasharray:none;stroke-dashoffset:0;stroke-opacity:1;marker:none;marker-start:none;marker-mid:none;marker-end:none;paint-order:normal;enable-background:new"
         inkscape:connector-curvature="0" />
    </g>
  </g>
</svg>
