<?xml version="1.0" encoding="UTF-8" standalone="no"?>
<!-- Created with Inkscape (http://www.inkscape.org/) -->

<svg
   xmlns:dc="http://purl.org/dc/elements/1.1/"
   xmlns:cc="http://creativecommons.org/ns#"
   xmlns:rdf="http://www.w3.org/1999/02/22-rdf-syntax-ns#"
   xmlns:svg="http://www.w3.org/2000/svg"
   xmlns="http://www.w3.org/2000/svg"
   xmlns:xlink="http://www.w3.org/1999/xlink"
   xmlns:sodipodi="http://sodipodi.sourceforge.net/DTD/sodipodi-0.dtd"
   xmlns:inkscape="http://www.inkscape.org/namespaces/inkscape"
   width="128"
   height="128"
   id="svg2782"
   sodipodi:version="0.32"
   inkscape:version="0.92.3 (2405546, 2018-03-11)"
   sodipodi:docname="Audacity.svg"
   inkscape:output_extension="org.inkscape.output.svg.inkscape"
   version="1.1">
  <sodipodi:namedview
     id="base"
     pagecolor="#ffffff"
     bordercolor="#666666"
     borderopacity="1.0"
     inkscape:pageopacity="0.0"
     inkscape:pageshadow="2"
     inkscape:zoom="6.9583333"
     inkscape:cx="60"
     inkscape:cy="60"
     inkscape:current-layer="layer2"
     showgrid="true"
     inkscape:grid-bbox="true"
     inkscape:document-units="px"
     inkscape:window-width="1920"
     inkscape:window-height="1009"
     inkscape:window-x="0"
     inkscape:window-y="34"
     inkscape:window-maximized="1" />
  <defs
     id="defs2784">
    <linearGradient
       id="linearGradient10707">
      <stop
         id="stop10709"
         offset="0"
         style="stop-color:#ffffff;stop-opacity:1;" />
      <stop
         id="stop10711"
         offset="1"
         style="stop-color:#ffffff;stop-opacity:0;" />
    </linearGradient>
    <linearGradient
       inkscape:collect="always"
       xlink:href="#linearGradient10707"
       id="linearGradient10705"
       x1="3.5097475"
       y1="22.810303"
       x2="8.2490902"
       y2="28.935303"
       gradientUnits="userSpaceOnUse"
       gradientTransform="matrix(2.5184236,0,0,2.5184236,3.9999997,-78.328084)" />
  </defs>
  <metadata
     id="metadata2787">
    <rdf:RDF>
      <cc:Work
         rdf:about="">
        <dc:format>image/svg+xml</dc:format>
        <dc:type
           rdf:resource="http://purl.org/dc/dcmitype/StillImage" />
        <dc:title></dc:title>
      </cc:Work>
    </rdf:RDF>
  </metadata>
  <g
     inkscape:groupmode="layer"
     id="layer3"
     inkscape:label="shadow#1"
     transform="translate(0,80)" />
  <g
     inkscape:groupmode="layer"
     id="layer2"
     inkscape:label="shadow"
     transform="translate(0,80)">
    <path
       inkscape:connector-curvature="0"
       sodipodi:nodetypes="cccccccscccccccccccccccccccscccccccscsccccccccc"
       id="path850"
       d="m 35.663551,-8.217468 5.275169,-1.708935 2.851412,-6.668355 0.631436,-6.872921 1.973515,-3.536366 2.454582,8.76961 2.901335,-7.511871 c 0,0 1.341488,11.368998 1.341488,9.960463 0,-1.408534 2.930081,-15.15987 2.930081,-15.15987 l 2.076032,13.903653 2.115864,-7.144337 1.472751,7.649709 1.62495,-4.201133 1.767301,5.102646 3.598467,-10.775501 2.160027,9.177936 4.187572,-5.118069 2.552767,4.895468 3.893017,-5.478505 2.700038,4.86636 1.040778,-4.200278 1.919498,8.569216 3.883167,-0.472595 V 9.6435548 L 87.818913,10.673504 86.193969,18.8815 83.227021,15.793291 c 0,0 -2.943757,15.050276 -2.943757,12.073439 0,-2.976838 -2.749132,-6.759311 -2.749132,-6.759311 l -4.482119,4.255925 -1.472746,-5.146324 -4.722654,9.568343 -1.526767,-9.930494 -2.268064,5.397175 -2.650951,-4.172879 c 0,0 -2.01768,9.843435 -2.01768,8.594899 0,-1.248536 -1.374569,-7.510156 -1.374569,-7.510156 0,0 -3.053533,9.790941 -3.053533,6.814104 0,-2.976837 -1.374568,-8.121448 -1.374568,-8.121448 l -2.857167,7.149719 -1.472751,-4.618076 -3.446267,5.338952 -0.920199,-9.873986 -4.926628,-0.279107 0.829629,-8.068369 -4.133547,-2.2396952 z"
       style="fill:#010101;fill-opacity:1;fill-rule:evenodd;stroke:none;stroke-width:2.7885282px;stroke-linecap:butt;stroke-linejoin:miter;stroke-opacity:1;opacity:0.2" />
    <path
       style="fill:#edd400;fill-opacity:1;fill-rule:evenodd;stroke:none;stroke-width:2.7885282px;stroke-linecap:butt;stroke-linejoin:miter;stroke-opacity:1"
       d="m 35.663551,-10.217468 5.275169,-1.708935 2.851412,-6.668355 0.631436,-6.872921 1.973515,-3.536366 2.454582,8.76961 2.901335,-7.511871 c 0,0 1.341488,11.368998 1.341488,9.960463 0,-1.408534 2.930081,-15.15987 2.930081,-15.15987 l 2.076032,13.903653 2.115864,-7.144337 1.472751,7.649709 1.62495,-4.201133 1.767301,5.102646 3.598467,-10.775501 2.160027,9.177936 4.187572,-5.118069 2.552767,4.895468 3.893017,-5.478505 2.700038,4.86636 1.040778,-4.200278 1.919498,8.569216 3.883167,-0.472595 V 7.6435548 L 87.818913,8.6735038 86.193969,16.8815 83.227021,13.793291 c 0,0 -2.943757,15.050276 -2.943757,12.073439 0,-2.976838 -2.749132,-6.759311 -2.749132,-6.759311 l -4.482119,4.255925 -1.472746,-5.146324 -4.722654,9.568343 -1.526767,-9.930494 -2.268064,5.397175 -2.650951,-4.172879 c 0,0 -2.01768,9.843435 -2.01768,8.594899 0,-1.248536 -1.374569,-7.510156 -1.374569,-7.510156 0,0 -3.053533,9.790941 -3.053533,6.814104 0,-2.976837 -1.374568,-8.121448 -1.374568,-8.121448 l -2.857167,7.149719 -1.472751,-4.618076 -3.446267,5.338952 -0.920199,-9.873986 -4.926628,-0.279107 0.829629,-8.0683692 -4.133547,-2.239695 z"
       id="path5844"
       sodipodi:nodetypes="cccccccscccccccccccccccccccscccccccscsccccccccc"
       inkscape:connector-curvature="0" />
    <path
       style="fill:#ef2929;fill-opacity:1;fill-rule:evenodd;stroke:none;stroke-width:2.7885282px;stroke-linecap:butt;stroke-linejoin:miter;stroke-opacity:1"
       d="m 36.501466,-4.0581673 4.368652,1.2570661 1.696135,-5.4734714 2.672514,3.5104937 0.738759,-19.4622091 3.629895,20.1681207 2.184324,-2.5141373 c 0,0 1.226611,3.1089386 1.226611,2.5141373 0,-0.5948013 2.476923,-13.6051517 2.476923,-13.6051517 l 2.84944,14.3436694 2.184329,-8.2809264 v 6.2853401 l 2.184325,-1.2570687 v 4.3637584 l 5.561279,-20.8737648 0.991699,19.0241437 4.000207,-7.6994627 2.55277,7.6994627 5.10116,-13.7184707 1.451816,13.7184707 3.779554,-4.8842031 2.773422,3.6271345 2.184329,-1.2570687 V 3.4842398 l -2.184329,-1.257069 -2.184327,4.453099 -3.217705,-4.453099 c 0,0 -3.139373,19.8827782 -3.139373,18.6257072 0,-1.257063 -2.380218,-17.3686382 -2.380218,-17.3686382 l -4.589316,5.329397 -1.963665,-5.329397 -4.368649,10.0565442 -2.18433,-8.7994762 -3.190449,5.185326 -1.1782,-5.185326 c 0,0 -1.791591,7.1007182 -1.791591,6.5734842 0,-0.527235 -0.392738,-5.3164152 -0.392738,-5.3164152 0,0 -3.712167,17.0585932 -3.712167,15.8015242 0,-1.257069 -0.656477,-17.0585932 -0.656477,-17.0585932 l -3.975924,6.4423972 -0.39273,-5.1853282 -3.52567,15.5432252 -1.389155,-15.0688772 -3.798188,2.118314 -0.02443,-3.849731 -4.368651,-1.838786 z"
       id="path6815"
       sodipodi:nodetypes="cccccccscccccccccccccccccccscccccccscsccccccccc"
       inkscape:connector-curvature="0" />
  </g>
  <g
     inkscape:label="Layer 1"
     id="layer1"
     inkscape:groupmode="layer"
     transform="translate(0,80)">
    <path
       id="path852"
       d="m 64.191406,-65.886719 c -10.282893,0.01783 -20.597594,3.21118 -28.445312,9.726563 -7.413586,6.154954 -12.514434,15.358511 -13.056641,27.136718 -4.858631,1.046925 -9.155038,4.215894 -12.355469,8.652344 C 6.3805779,-14.890865 4.0000001,-7.443417 4,0.75 c -10e-8,8.193417 2.3805781,15.640864 6.333984,21.121094 3.953407,5.480226 9.578962,9.029296 15.871094,9.029296 h 1.63086 V 29.26953 0.75 -29.400391 h -0.0078 c 0.601877,-10.14318 4.906193,-17.61646 11.183594,-22.828125 6.777211,-5.626619 15.964162,-8.532836 25.1875,-8.548828 9.223337,-0.01599 18.413335,2.857543 25.197265,8.47461 6.450764,5.341204 10.829076,13.090658 11.259766,23.71289 V 0.75 29.26953 30.90039 h 1.63086 c 6.29213,0 11.91573,-3.54907 15.86914,-9.029296 3.95341,-5.48023 6.33594,-12.927677 6.33594,-21.121094 0,-8.193417 -2.38253,-15.640865 -6.33594,-21.121094 -3.21133,-4.451556 -7.52382,-7.630049 -12.40234,-8.666015 -0.56041,-11.834034 -5.67433,-21.053067 -13.099613,-27.201172 -7.859974,-6.508026 -18.179997,-9.666267 -28.462891,-9.648438 z m 28.951172,35.429688 a 2.5186754,2.5186754 0 0 0 -2.480469,2.554687 V 29.08984 a 2.5186754,2.5186754 0 1 0 5.03711,0 v -56.992184 a 2.5186754,2.5186754 0 0 0 -2.556641,-2.554687 z m -58.958984,0.355469 a 2.5186754,2.5186754 0 0 0 -2.480469,2.554687 V 29.44531 a 2.5186754,2.5186754 0 1 0 5.037109,0 v -56.992185 a 2.5186754,2.5186754 0 0 0 -2.55664,-2.554687 z"
       style="color:#000000;font-style:normal;font-variant:normal;font-weight:normal;font-stretch:normal;font-size:medium;line-height:normal;font-family:sans-serif;font-variant-ligatures:normal;font-variant-position:normal;font-variant-caps:normal;font-variant-numeric:normal;font-variant-alternates:normal;font-feature-settings:normal;text-indent:0;text-align:start;text-decoration:none;text-decoration-line:none;text-decoration-style:solid;text-decoration-color:#000000;letter-spacing:normal;word-spacing:normal;text-transform:none;writing-mode:lr-tb;direction:ltr;text-orientation:mixed;dominant-baseline:auto;baseline-shift:baseline;text-anchor:start;white-space:normal;shape-padding:0;clip-rule:nonzero;display:inline;overflow:visible;visibility:visible;opacity:0.2;isolation:auto;mix-blend-mode:normal;color-interpolation:sRGB;color-interpolation-filters:linearRGB;solid-color:#000000;solid-opacity:1;vector-effect:none;fill:#010101;fill-opacity:1;fill-rule:nonzero;stroke:none;stroke-width:3.26085258;stroke-linecap:butt;stroke-linejoin:miter;stroke-miterlimit:4;stroke-dasharray:none;stroke-dashoffset:0;stroke-opacity:1;color-rendering:auto;image-rendering:auto;shape-rendering:auto;text-rendering:auto;enable-background:accumulate"
       inkscape:connector-curvature="0" />
    <path
       style="color:#000000;font-style:normal;font-variant:normal;font-weight:normal;font-stretch:normal;font-size:medium;line-height:normal;font-family:sans-serif;font-variant-ligatures:normal;font-variant-position:normal;font-variant-caps:normal;font-variant-numeric:normal;font-variant-alternates:normal;font-feature-settings:normal;text-indent:0;text-align:start;text-decoration:none;text-decoration-line:none;text-decoration-style:solid;text-decoration-color:#000000;letter-spacing:normal;word-spacing:normal;text-transform:none;writing-mode:lr-tb;direction:ltr;text-orientation:mixed;dominant-baseline:auto;baseline-shift:baseline;text-anchor:start;white-space:normal;shape-padding:0;clip-rule:nonzero;display:inline;overflow:visible;visibility:visible;opacity:1;isolation:auto;mix-blend-mode:normal;color-interpolation:sRGB;color-interpolation-filters:linearRGB;solid-color:#000000;solid-opacity:1;vector-effect:none;fill:#204a87;fill-opacity:1;fill-rule:nonzero;stroke:none;stroke-width:3.26085258;stroke-linecap:butt;stroke-linejoin:miter;stroke-miterlimit:4;stroke-dasharray:none;stroke-dashoffset:0;stroke-opacity:1;color-rendering:auto;image-rendering:auto;shape-rendering:auto;text-rendering:auto;enable-background:accumulate"
       d="M 64.191406 12.113281 C 53.908513 12.131111 43.593812 15.324461 35.746094 21.839844 C 28.332508 27.994798 23.23166 37.198355 22.689453 48.976562 C 17.830822 50.023487 13.534415 53.192456 10.333984 57.628906 C 6.3805779 63.109135 4.0000001 70.556583 4 78.75 C 3.9999999 86.943417 6.3805781 94.390864 10.333984 99.871094 C 14.287391 105.35132 19.912946 108.90039 26.205078 108.90039 L 27.835938 108.90039 L 27.835938 107.26953 L 27.835938 78.75 L 27.835938 48.599609 L 27.828125 48.599609 C 28.430002 38.456429 32.734318 30.983149 39.011719 25.771484 C 45.78893 20.144865 54.975881 17.238648 64.199219 17.222656 C 73.422556 17.206666 82.612554 20.080199 89.396484 25.697266 C 95.847248 31.03847 100.22556 38.787924 100.65625 49.410156 L 100.65625 78.75 L 100.65625 107.26953 L 100.65625 108.90039 L 102.28711 108.90039 C 108.57924 108.90039 114.20284 105.35132 118.15625 99.871094 C 122.10966 94.390864 124.49219 86.943417 124.49219 78.75 C 124.49219 70.556583 122.10966 63.109135 118.15625 57.628906 C 114.94492 53.17735 110.63243 49.998857 105.75391 48.962891 C 105.1935 37.128857 100.07958 27.909824 92.654297 21.761719 C 84.794323 15.253693 74.4743 12.095452 64.191406 12.113281 z M 93.142578 47.542969 A 2.5186754 2.5186754 0 0 0 90.662109 50.097656 L 90.662109 107.08984 A 2.5186754 2.5186754 0 1 0 95.699219 107.08984 L 95.699219 50.097656 A 2.5186754 2.5186754 0 0 0 93.142578 47.542969 z M 34.183594 47.898438 A 2.5186754 2.5186754 0 0 0 31.703125 50.453125 L 31.703125 107.44531 A 2.5186754 2.5186754 0 1 0 36.740234 107.44531 L 36.740234 50.453125 A 2.5186754 2.5186754 0 0 0 34.183594 47.898438 z "
       transform="translate(0,-80)"
       id="path2790" />
    <path
       style="fill:url(#linearGradient10705);fill-opacity:1;fill-rule:evenodd;stroke:none;stroke-width:1.57859969px;stroke-linecap:butt;stroke-linejoin:miter;stroke-opacity:1"
       d="m 22.014446,-28.429524 c -8.921839,4.613737 -10.66701,9.809325 -12.0813314,15.567089 0,0 6.9178364,-9.915341 11.8509604,-12.283241 z"
       id="path9728"
       sodipodi:nodetypes="cccc"
       inkscape:connector-curvature="0" />
  </g>
</svg>
