<?xml version="1.0" encoding="UTF-8" standalone="no"?>
<!-- Created with Inkscape (http://www.inkscape.org/) -->

<svg
   xmlns:dc="http://purl.org/dc/elements/1.1/"
   xmlns:cc="http://creativecommons.org/ns#"
   xmlns:rdf="http://www.w3.org/1999/02/22-rdf-syntax-ns#"
   xmlns:svg="http://www.w3.org/2000/svg"
   xmlns="http://www.w3.org/2000/svg"
   xmlns:xlink="http://www.w3.org/1999/xlink"
   xmlns:sodipodi="http://sodipodi.sourceforge.net/DTD/sodipodi-0.dtd"
   xmlns:inkscape="http://www.inkscape.org/namespaces/inkscape"
   width="128"
   height="128"
   id="svg8388"
   version="1.1"
   inkscape:version="0.92.3 (2405546, 2018-03-11)"
   sodipodi:docname="banshee.svg">
  <defs
     id="defs8390">
    <linearGradient
       id="linearGradient8838">
      <stop
         id="stop8840"
         style="stop-color:#000000;stop-opacity:1"
         offset="0" />
      <stop
         id="stop8842"
         style="stop-color:#000000;stop-opacity:0"
         offset="1" />
    </linearGradient>
    <linearGradient
       id="linearGradient4933">
      <stop
         style="stop-color:#ffffff;stop-opacity:1"
         offset="0"
         id="stop4935" />
      <stop
         style="stop-color:#d1d1d1;stop-opacity:1"
         offset="1"
         id="stop4937" />
    </linearGradient>
    <linearGradient
       inkscape:collect="always"
       xlink:href="#linearGradient5035"
       id="linearGradient4839"
       gradientUnits="userSpaceOnUse"
       x1="-171.10748"
       y1="27.172562"
       x2="-171.10748"
       y2="105.51175" />
    <linearGradient
       inkscape:collect="always"
       id="linearGradient5035">
      <stop
         style="stop-color:#ffffff;stop-opacity:1;"
         offset="0"
         id="stop5037" />
      <stop
         style="stop-color:#ffffff;stop-opacity:0;"
         offset="1"
         id="stop5039" />
    </linearGradient>
    <linearGradient
       inkscape:collect="always"
       xlink:href="#linearGradient8005"
       id="linearGradient4841"
       gradientUnits="userSpaceOnUse"
       gradientTransform="matrix(1.3816791,0,0,1.3771154,-15.020939,-18.392009)"
       x1="46.80846"
       y1="16.687328"
       x2="65.76947"
       y2="87.928337" />
    <linearGradient
       id="linearGradient8005">
      <stop
         id="stop8007"
         style="stop-color:#357cc7;stop-opacity:1"
         offset="0" />
      <stop
         id="stop8009"
         style="stop-color:#6593c6;stop-opacity:1"
         offset="1" />
    </linearGradient>
    <radialGradient
       inkscape:collect="always"
       xlink:href="#linearGradient8033"
       id="radialGradient4843"
       gradientUnits="userSpaceOnUse"
       gradientTransform="matrix(2.257496,2.4062858e-7,-4.1936558e-7,3.9083992,-56.55502,-205.13853)"
       cx="48.17165"
       cy="77.798073"
       fx="48.17165"
       fy="77.798073"
       r="15.495689" />
    <linearGradient
       id="linearGradient8033">
      <stop
         id="stop8035"
         style="stop-color:#ffffff;stop-opacity:1"
         offset="0" />
      <stop
         id="stop8037"
         style="stop-color:#ffffff;stop-opacity:0"
         offset="1" />
    </linearGradient>
    <radialGradient
       inkscape:collect="always"
       xlink:href="#linearGradient8053"
       id="radialGradient4845"
       gradientUnits="userSpaceOnUse"
       gradientTransform="matrix(2.0339719,-1.3444647,0.98312504,1.4775107,-141.36595,75.389014)"
       cx="76.367531"
       cy="78"
       fx="76.367531"
       fy="78"
       r="2.767844" />
    <linearGradient
       id="linearGradient8053">
      <stop
         id="stop8055"
         style="stop-color:#ffffff;stop-opacity:1"
         offset="0" />
      <stop
         id="stop8057"
         style="stop-color:#ffffff;stop-opacity:0"
         offset="1" />
    </linearGradient>
    <linearGradient
       inkscape:collect="always"
       xlink:href="#linearGradient5577"
       id="linearGradient4847"
       gradientUnits="userSpaceOnUse"
       gradientTransform="matrix(1.8063795,0,0,1.8004131,-16.99958,-21.38889)"
       x1="32.429935"
       y1="21.016321"
       x2="41.986534"
       y2="20.332947" />
    <linearGradient
       inkscape:collect="always"
       id="linearGradient5577">
      <stop
         style="stop-color:#ffffff;stop-opacity:1;"
         offset="0"
         id="stop5579" />
      <stop
         style="stop-color:#ffffff;stop-opacity:0;"
         offset="1"
         id="stop5581" />
    </linearGradient>
    <radialGradient
       inkscape:collect="always"
       xlink:href="#linearGradient8053"
       id="radialGradient4849"
       gradientUnits="userSpaceOnUse"
       gradientTransform="matrix(1.4722437,-0.97315983,0.71161238,1.0694621,-131.77154,6.0388325)"
       cx="76.367531"
       cy="78"
       fx="76.367531"
       fy="78"
       r="2.767844" />
    <radialGradient
       inkscape:collect="always"
       xlink:href="#linearGradient4933"
       id="radialGradient862"
       cx="-169.5036"
       cy="74.465996"
       fx="-169.5036"
       fy="74.465996"
       r="21.865276"
       gradientUnits="userSpaceOnUse" />
  </defs>
  <sodipodi:namedview
     id="base"
     pagecolor="#ffffff"
     bordercolor="#666666"
     borderopacity="1.0"
     inkscape:pageopacity="0.0"
     inkscape:pageshadow="2"
     inkscape:zoom="2.4748737"
     inkscape:cx="-60.51099"
     inkscape:cy="47.42857"
     inkscape:current-layer="g4790"
     showgrid="true"
     inkscape:grid-bbox="true"
     inkscape:document-units="px"
     fit-margin-top="0"
     fit-margin-left="0"
     fit-margin-right="0"
     fit-margin-bottom="0"
     inkscape:window-width="1920"
     inkscape:window-height="1016"
     inkscape:window-x="0"
     inkscape:window-y="27"
     inkscape:window-maximized="1" />
  <metadata
     id="metadata8393">
    <rdf:RDF>
      <cc:Work
         rdf:about="">
        <dc:format>image/svg+xml</dc:format>
        <dc:type
           rdf:resource="http://purl.org/dc/dcmitype/StillImage" />
        <dc:title></dc:title>
      </cc:Work>
    </rdf:RDF>
  </metadata>
  <g
     id="layer1"
     inkscape:label="Layer 1"
     inkscape:groupmode="layer"
     transform="translate(60.142857,56.57143)">
    <g
       style="display:inline;enable-background:new"
       id="g4790"
       transform="matrix(0.81852181,0,0,0.81852181,-51.81537,-49.616309)">
      <circle
         transform="matrix(2.0785299,0,0,1.9554003,425.27872,-61.98785)"
         id="path4163"
         style="color:#000000;display:inline;overflow:visible;visibility:visible;fill:url(#radialGradient862);fill-opacity:1.0;fill-rule:nonzero;stroke:#969696;stroke-width:0.49602556;stroke-miterlimit:4;stroke-dasharray:none;stroke-opacity:1;marker:none;enable-background:accumulate"
         cx="-169.5036"
         cy="74.465996"
         r="21.617264" />
      <path
         id="path4525-0-6"
         d="m 61.34375,64.21875 -11.875,4.0625 v 34.28125 c 9.006001,0.79312 23.878027,1.22806 36,-1.90625 6.217842,-1.60771 11.651353,-4.165574 15.1875,-7.96875 3.53615,-3.803176 5.27022,-8.827031 4.0625,-15.84375 -0.90721,-5.270749 -3.81709,-8.1326 -7.84375,-9.6875 -4.026657,-1.5549 -9.207742,-1.669029 -14.3125,-1.09375 -10.209516,1.150558 -20.03125,5.03125 -20.03125,5.03125 a 0.88397186,0.88397186 0 0 1 -1.1875,-0.8125 z M 80.5625,73.25 c 2.538949,0.01362 4.959786,0.256843 6.9375,1.25 1.977714,0.993157 3.456179,2.834227 3.875,5.53125 0.626467,4.034169 -1.048016,7.220475 -3.78125,9.46875 -2.733234,2.248275 -6.49936,3.663478 -10.28125,4.625 -7.563781,1.923044 -15.34375,1.9375 -15.34375,1.9375 a 0.88397186,0.88397186 0 0 1 -0.875,-0.875 v -17.375 a 0.88397186,0.88397186 0 0 1 0.5625,-0.84375 c 0,0 10.382082,-3.764465 18.90625,-3.71875 z"
         style="display:inline;fill:none;stroke:#ffffff;stroke-opacity:1;enable-background:new"
         inkscape:connector-curvature="0" />
      <path
         id="path4525-0"
         d="m 88.28125,63.75 c -1.870848,-0.01779 -3.804466,0.09677 -5.71875,0.3125 -10.209516,1.150558 -20.03125,5.03125 -20.03125,5.03125 a 0.88397186,0.88397186 0 0 1 -1.1875,-0.8125 v -4.0625 l -11.875,4.0625 v 32.28125 c 9.006001,0.79312 23.878027,1.22806 36,-1.90625 6.217842,-1.60771 11.651353,-4.165574 15.1875,-7.96875 3.53615,-3.803176 5.27022,-8.827031 4.0625,-15.84375 -0.90721,-5.270749 -3.81709,-8.1326 -7.84375,-9.6875 C 94.358339,64.184437 91.39933,63.779648 88.28125,63.75 Z m -7.71875,7.5 c 2.538949,0.01362 4.959786,0.256843 6.9375,1.25 1.977714,0.993157 3.456179,2.834227 3.875,5.53125 0.626467,4.034169 -1.048016,7.220475 -3.78125,9.46875 -2.733234,2.248275 -6.49936,3.663478 -10.28125,4.625 -7.563781,1.923044 -15.34375,1.9375 -15.34375,1.9375 a 0.88397186,0.88397186 0 0 1 -0.875,-0.875 v -17.375 a 0.88397186,0.88397186 0 0 1 0.5625,-0.84375 c 0,0 10.382082,-3.764465 18.90625,-3.71875 z"
         style="display:inline;fill:none;stroke:#969696;stroke-opacity:1;enable-background:new"
         inkscape:connector-curvature="0" />
      <path
         transform="matrix(2.0785299,0,0,1.9554003,425.27124,-61.993236)"
         d="m -169.5,53.419922 c -11.62726,0 -21.04883,9.421569 -21.04883,21.048828 0,11.627259 9.42157,21.048828 21.04883,21.048828 11.62726,0 21.04883,-9.421569 21.04883,-21.048828 0,-11.627259 -9.42157,-21.048828 -21.04883,-21.048828 z"
         id="path5033"
         style="color:#000000;display:inline;overflow:visible;visibility:visible;fill:none;stroke:url(#linearGradient4839);stroke-width:0.49602559;stroke-miterlimit:4;stroke-dasharray:none;stroke-opacity:1;marker:none;enable-background:accumulate"
         inkscape:original="M -169.5 52.84375 C -181.43889 52.84375 -191.125 62.529865 -191.125 74.46875 C -191.125 86.407635 -181.43889 96.09375 -169.5 96.09375 C -157.56111 96.09375 -147.875 86.407635 -147.875 74.46875 C -147.875 62.529865 -157.56111 52.84375 -169.5 52.84375 z "
         inkscape:radius="-0.57615423"
         sodipodi:type="inkscape:offset" />
      <path
         d="m 61.333984,5.4648438 c -15.26035,0.6911121 -21.888399,3.9211981 -26.871093,8.3945312 -4.578752,4.110684 -8.144825,9.438683 -15.476563,14.679687 7.014822,-0.334532 11.43246,-2.471582 15.248047,-4.792968 4.336538,-2.638331 8.185858,-5.470202 14.394531,-5.222656 a 0.88397186,0.88397186 0 0 1 0.84961,0.882812 v 82.14063 c 9.007884,0.79213 23.876066,1.23384 35.990234,-1.898442 6.217842,-1.60771 11.659166,-4.151903 15.19531,-7.955079 3.53615,-3.803176 5.26632,-8.83875 4.0586,-15.855468 -0.90721,-5.27075 -3.80733,-8.120881 -7.833988,-9.675782 -4.026658,-1.5549 -9.209695,-1.684654 -14.314453,-1.109375 -10.209516,1.150559 -20.029297,5.048829 -20.029297,5.048828 A 0.88397186,0.88397186 0 0 1 61.333984,69.28125 Z M 80.566406,72.240234 c 2.538949,0.01362 4.953927,0.280281 6.931641,1.273438 1.977714,0.993157 3.456179,2.810789 3.875,5.507812 0.626467,4.034169 -1.055828,7.230241 -3.789063,9.478516 -2.733234,2.248275 -6.477875,3.679103 -10.259765,4.640625 -7.563781,1.923044 -15.353516,1.931641 -15.353516,1.931641 A 0.88397186,0.88397186 0 0 1 61.083984,94.1875 v -17.375 a 0.88397186,0.88397186 0 0 1 0.583985,-0.832031 c 0,0 10.374269,-3.78595 18.898437,-3.740235 z"
         id="path4525"
         style="fill:url(#linearGradient4841);fill-opacity:1;fill-rule:evenodd;stroke:#2e629a;stroke-opacity:1"
         inkscape:original="M 62.21875 4.5 C 29.959993 5.6821585 34.260717 18.168404 16.09375 29.5625 C 34.217886 30.080737 36.733914 18.933388 48.59375 19.40625 L 48.59375 102.375 C 66.540157 104.04682 110.5721 104.6111 105.59375 75.6875 C 101.77973 53.528553 62.218746 69.28125 62.21875 69.28125 L 62.21875 4.5 z M 80.5625 73.125 C 85.514782 73.15156 89.734995 74.229949 90.5 79.15625 C 92.82375 94.120168 61.968751 94.1875 61.96875 94.1875 L 61.96875 76.8125 C 61.96875 76.8125 72.308697 73.080735 80.5625 73.125 z "
         inkscape:radius="-0.88388348"
         sodipodi:type="inkscape:offset" />
      <path
         sodipodi:nodetypes="cccc"
         style="opacity:0.4;fill:#ffffff;fill-opacity:1;fill-rule:evenodd;stroke:none"
         id="path8013"
         d="M 61.352266,70.851178 C 91.1575,60.714802 97.296563,67.37735 97.296563,67.37735 c 0,0 -14.171659,-2.34988 -35.91394,5.903543 z"
         inkscape:connector-curvature="0" />
      <path
         style="opacity:0.3;fill:none;stroke:url(#radialGradient4843);stroke-width:1.99999976;stroke-linecap:butt;stroke-linejoin:miter;stroke-miterlimit:4;stroke-dasharray:none;stroke-opacity:1"
         id="path8023"
         d="M 52.925,35.238614 V 98.16836 c 0,0 19.051395,2.43442 40.056781,-4.381965"
         inkscape:connector-curvature="0" />
      <path
         style="opacity:0.4;fill:#ffffff;fill-opacity:1;fill-rule:evenodd;stroke:none"
         id="path8045"
         d="m 91.321296,89.589128 c -7.7217,5.92015 -15.444852,4.332388 -15.444852,4.332388 0,0 8.963999,-0.807621 14.246402,-7.526719 0,0 4.373684,0.759911 1.19845,3.194331 z"
         inkscape:connector-curvature="0" />
      <path
         style="fill:url(#radialGradient4845);fill-opacity:1;fill-rule:nonzero;stroke:none"
         id="path8051"
         d="M 96.276939,84.240131 A 4.9120542,6.7484836 56.73188 0 1 85.017506,91.68267 4.9120542,6.7484836 56.73188 1 1 96.276939,84.240131 Z"
         inkscape:connector-curvature="0" />
      <path
         sodipodi:nodetypes="cccc"
         style="opacity:0.4;fill:url(#linearGradient4847);fill-opacity:1;fill-rule:evenodd;stroke:none"
         id="path8061"
         d="M 58.655648,6.0719132 C 31.601387,9.2703039 36.094298,15.741355 22.052523,26.951431 32.069696,21.787248 35.862331,7.4367344 60.352785,9.0332093 Z"
         inkscape:connector-curvature="0" />
      <path
         sodipodi:nodetypes="sssss"
         style="opacity:0.8;fill:url(#radialGradient4849);fill-opacity:1;fill-rule:nonzero;stroke:none"
         id="path8063"
         d="m 40.240783,12.445508 c 1.030923,1.549964 0.02788,4.243039 -2.105574,5.653261 -2.133452,1.410221 -5.012813,1.283434 -6.044308,-0.266152 -1.031671,-1.54985 -0.02877,-4.243592 2.105046,-5.654055 2.133816,-1.410462 5.013737,-1.283283 6.044836,0.266946 z"
         inkscape:connector-curvature="0" />
    </g>
  </g>
</svg>
