<svg xmlns="http://www.w3.org/2000/svg" xmlns:osb="http://www.openswatchbook.org/uri/2009/osb" width="16" height="16" version="1.1" viewBox="0 0 16 16">
 <title id="title9167">
  Gnome Symbolic Icon Theme
 </title>
 <defs>
  <linearGradient id="linearGradient19282" gradientTransform="matrix(-2.7365795,0.28202934,-0.18908311,-0.99988321,239.54008,-879.45557)" osb:paint="solid">
   <stop id="stop19284" offset="0" style="stop-color:#666666"/>
  </linearGradient>
 </defs>
 <g id="layer14" transform="translate(-621.0002,-321)">
  <path fill="#bebebe" d="m 630.0002,321 v 0.5 0.5 h -1 v 1 h -0.45312 -0.5 v 1 h 0.5 0.45312 v 1 h -0.45312 -0.5 v 1 h 0.5 0.45312 v 1 h -0.45312 -0.5 v 1 h 0.5 0.45312 v 1 h 1 v 0.5 0.5 h 1 v -0.5 -0.5 h 1 v 0.5 0.5 h 1 v -0.5 -0.5 h 1 v 0.5 0.5 h 1 v -0.5 -0.5 h 1 v -1 h 0.5 0.5 v -1 h -0.5 -0.5 v -1 h 0.5 0.5 v -1 h -0.5 -0.5 v -1 h 0.5 0.5 v -1 h -0.5 -0.5 v -1 h -1 v -0.5 -0.5 h -1 v 0.5 0.5 h -1 v -0.5 -0.5 h -1 v 0.5 0.5 h -1 v -0.5 -0.5 z"/>
  <path fill="#bebebe" d="m 627.5,332.98242 c -0.83253,0 -1.51758,0.68505 -1.51758,1.51758 0,0.83253 0.68505,1.51758 1.51758,1.51758 0.83253,0 1.51758,-0.68505 1.51758,-1.51758 0,-0.83253 -0.68505,-1.51758 -1.51758,-1.51758 z m 0,1 c 0.29209,0 0.51758,0.22549 0.51758,0.51758 0,0.29209 -0.22549,0.51758 -0.51758,0.51758 -0.29209,0 -0.51758,-0.22549 -0.51758,-0.51758 0,-0.29209 0.22549,-0.51758 0.51758,-0.51758 z"/>
  <path fill="#bebebe" d="m 621.5,331.13086 v 1 h 1.21094 L 624.36719,335 h 2.07031 v -1 h -1.49219 l -1.65625,-2.86914 z"/>
  <path fill="#bebebe" d="m 635.48242,329.94531 c -0.83253,0 -1.51758,0.68505 -1.51758,1.51758 0,0.83253 0.68505,1.51953 1.51758,1.51953 0.83253,0 1.51758,-0.687 1.51758,-1.51953 0,-0.83253 -0.68505,-1.51758 -1.51758,-1.51758 z m 0,1 c 0.29209,0 0.51758,0.22549 0.51758,0.51758 0,0.29209 -0.22549,0.51953 -0.51758,0.51953 -0.29209,0 -0.51758,-0.22744 -0.51758,-0.51953 0,-0.29209 0.22549,-0.51758 0.51758,-0.51758 z"/>
  <path fill="#bebebe" d="m 621.5,328.0957 v 1 h 1.21094 l 1.65625,2.86719 h 9.78906 v -1 h -9.21094 l -1.65625,-2.86719 z"/>
  <path fill="#bebebe" d="m 626.5293,326.96289 c -0.83253,0 -1.51758,0.687 -1.51758,1.51953 0,0.83253 0.68505,1.51758 1.51758,1.51758 0.83253,0 1.51758,-0.68505 1.51758,-1.51758 0,-0.83253 -0.68505,-1.51953 -1.51758,-1.51953 z m 0,1 c 0.29209,0 0.51757,0.22744 0.51758,0.51953 0,0.29209 -0.22549,0.51758 -0.51758,0.51758 -0.29209,0 -0.51758,-0.22549 -0.51758,-0.51758 0,-0.29209 0.22549,-0.51953 0.51758,-0.51953 z"/>
  <path fill="#bebebe" d="m 621.50195,324.97656 -0.002,1 3.5332,0.006 1.0586,1.70899 0.85156,-0.52735 -1.35156,-2.18164 z"/>
  <path fill="#bebebe" d="m 622.52539,324.03711 c 0.83253,0 1.51953,-0.687 1.51953,-1.51953 0,-0.83253 -0.687,-1.51758 -1.51953,-1.51758 -0.83253,0 -1.51758,0.68505 -1.51758,1.51758 0,0.83253 0.68505,1.51953 1.51758,1.51953 z m 0,-1 c -0.29209,0 -0.51758,-0.22744 -0.51758,-0.51953 0,-0.29209 0.22549,-0.51758 0.51758,-0.51758 0.29209,0 0.51953,0.22549 0.51953,0.51758 0,0.29209 -0.22744,0.51953 -0.51953,0.51953 z"/>
  <path fill="#bebebe" d="m 623.00195,322.01367 -0.002,1 3.31055,0.006 0.85351,0.82813 0.69532,-0.71875 -1.14258,-1.10938 z"/>
  <path fill="#bebebe" d="m 630.53711,332.98242 c -0.83253,0 -1.51953,0.68505 -1.51953,1.51758 0,0.83253 0.687,1.51758 1.51953,1.51758 0.83253,0 1.51758,-0.68505 1.51758,-1.51758 0,-0.83253 -0.68505,-1.51758 -1.51758,-1.51758 z m 0,1 c 0.29209,0 0.51758,0.22549 0.51758,0.51758 0,0.29209 -0.22549,0.51758 -0.51758,0.51758 -0.29209,0 -0.51953,-0.22549 -0.51953,-0.51758 0,-0.29209 0.22744,-0.51758 0.51953,-0.51758 z"/>
  <path fill="#bebebe" d="m 633.57227,332.98242 c -0.83253,0 -1.51758,0.68505 -1.51758,1.51758 0,0.83253 0.68505,1.51758 1.51758,1.51758 0.83253,0 1.51953,-0.68505 1.51953,-1.51758 0,-0.83253 -0.687,-1.51758 -1.51953,-1.51758 z m 0,1 c 0.29209,0 0.51953,0.22549 0.51953,0.51758 0,0.29209 -0.22744,0.51758 -0.51953,0.51758 -0.29209,0 -0.51758,-0.22549 -0.51758,-0.51758 0,-0.29209 0.22549,-0.51758 0.51758,-0.51758 z"/>
  <path fill="#bebebe" d="m 632.77539,331.31055 -0.86328,0.5039 1.125,1.9375 0.86328,-0.5039 z"/>
  <path fill="#bebebe" d="m 629.74609,331.28125 -0.86718,0.5 1.15625,2 0.86718,-0.5 z"/>
  <path fill="#bebebe" d="m 626.91797,331.34375 -0.89844,0.4375 0.96875,2 0.89844,-0.4375 z"/>
 </g>
</svg>
