<svg xmlns="http://www.w3.org/2000/svg" xmlns:osb="http://www.openswatchbook.org/uri/2009/osb" width="16" height="16" version="1.1">
 <title id="title9167">
  Gnome Symbolic Icon Theme
 </title>
 <defs>
  <linearGradient id="linearGradient7212" osb:paint="solid">
   <stop id="stop7214" offset="0" style="stop-color:#e6ddff"/>
  </linearGradient>
 </defs>
 <g id="layer9" transform="translate(-383.0002,185)">
  <path fill="#e6ddff" d="m 391.28145,-185 c -1.09519,0 -2.19484,0.40659 -3.03125,1.1875 -0.8364,0.78091 -1.25,1.78826 -1.25,2.8125 0,1.02424 0.4136,2.03159 1.25,2.8125 1.23924,1.15701 3.05794,1.43224 4.59375,0.875 l 4.4375,4.3125 1.28125,0 0.4375,-0.40625 0,-1.84375 -0.75,-0.75 -0.75,0 -0.75,-1.5 -0.75,0 0,-1.5 -0.75,-0.5625 c 0.59684,-1.4339 0.30173,-3.09298 -0.9375,-4.25 -0.83641,-0.78091 -1.93606,-1.1875 -3.03125,-1.1875 z m -0.78125,1 c 0.82843,0 1.5,0.67157 1.5,1.5 0,0.82843 -0.67157,1.5 -1.5,1.5 -0.82843,0 -1.5,-0.67157 -1.5,-1.5 0,-0.82843 0.67157,-1.5 1.5,-1.5 z"/>
  <path fill="#e6ddff" d="m 387.0002,-184 c -2.20914,0 -4,1.69177 -4,3.78125 0,1.54382 0.97334,2.88051 2.375,3.46875 l 0,0.75 0.625,0 1,1 -1,1 0,1 0.81152,1 -0.81152,0.48614 0,0.4342 1,1.07966 1,0 1,-1 0,0 0,-5.47656 c -0.15625,-0.0547 -0.1533,-0.0541 -0.15625,-0.0547 -1.26949,-0.61624 -2.2305,-1.75108 -2.625,-3.125 -0.68068,-0.0606 -1.21875,-0.64783 -1.21875,-1.34375 0,-0.6847 0.52256,-1.23675 1.1875,-1.3125 0.16739,-0.61864 0.43612,-1.18913 0.8125,-1.6875 z"/>
 </g>
</svg>
