<svg xmlns="http://www.w3.org/2000/svg" width="16" height="16" version="1.1">
 <title id="title9167">
  Gnome Symbolic Icon Theme
 </title>
 <g id="layer9" transform="translate(-143.0002,-175)">
  <path fill="#e6ddff" d="M 16.5,22.6875 A 1.75,1.8125 0 0 1 14.75,24.5 1.75,1.8125 0 0 1 13,22.6875 1.75,1.8125 0 0 1 14.75,20.875 1.75,1.8125 0 0 1 16.5,22.6875 Z" transform="matrix(0.29306971,0,0,0.27586073,151.16455,179.24141)"/>
  <path fill="#e6ddff" d="m 153.0002,191 5,0 c 0,0 0.33504,-1 0,-2 -0.18036,0.15698 -1.56557,1 -2.5,1 -0.93443,0 -2.13928,-0.68603 -2.5,-1 -0.31243,1.22576 0,2 0,2 z"/>
  <path fill="#e6ddff" d="m 143.0002,175 v 16 l 8.05928,0.0383 -0.0192,-1.02275 -7.01737,-0.0192 -0.0383,-14.01198 14.08862,0.0575 -0.0958,4.97724 L 159.0002,181 v -6 z"/>
  <path fill="#e6ddff" d="m 145.0002,181 0,2.21875 c 0,2.31865 2.78142,4.58596 6.5625,4.75 -0.62469,-0.74109 -1.03125,-1.67164 -1.03125,-2.71875 0,-1.24613 0.61867,-2.47207 1.46875,-3.25 -6,0.76452 -7,-1 -7,-1 z"/>
  <path fill="#e6ddff" d="m 150.0002,180 c -1.66667,-1.43664 -3.33333,-1.39359 -5,0 0,-1.10458 1.11929,-2 2.5,-2 1.38071,0 2.5,0.89542 2.5,2 z"/>
  <path fill="#e6ddff" d="m 152.0002,180 c 1.66667,-1.43664 3.33333,-1.39359 5,0 0,-1.10458 -1.11929,-2 -2.5,-2 -1.38071,0 -2.5,0.89542 -2.5,2 z"/>
  <path fill="#e6ddff" d="m 155.5002,182 c -1.933,0 -3.5,1.567 -3.5,3.5 0,1.933 1.567,3.5 3.5,3.5 1.933,0 3.5,-1.567 3.5,-3.5 0,-1.933 -1.567,-3.5 -3.5,-3.5 z m 0.0192,1.00359 c 1.4808,0.004 2.4808,0.99641 2.47724,2.61138 -0.003,1.38503 -0.99644,2.38503 -2.45808,2.36228 -1.53834,-0.0239 -2.53836,-0.97725 -2.51557,-2.41976 0.0246,-1.55746 0.97721,-2.55749 2.49641,-2.5539 z"/>
 </g>
</svg>
