<svg xmlns="http://www.w3.org/2000/svg" xmlns:xlink="http://www.w3.org/1999/xlink" width="16" height="16" version="1.1">
 <defs>
  <radialGradient id="radialGradient3936-3" cx="7.118" cy="9.957" r="8.933" fx="7.118" fy="9.957" gradientTransform="matrix(0,25.311449,-31.074374,0,372.78533,-255.44129)" gradientUnits="userSpaceOnUse" xlink:href="#linearGradient2867-449-88-871-390-598-476-591-434-148-57-177-8-3-3-6-4-8-8-8-5-7-8"/>
  <linearGradient id="linearGradient2867-449-88-871-390-598-476-591-434-148-57-177-8-3-3-6-4-8-8-8-5-7-8">
   <stop offset="0" style="stop-color:#404648" id="stop3750-1-0-7-6-6-1-3-9-3-9-2"/>
   <stop offset="1" style="stop-color:#0c1011" id="stop3754-1-8-5-2-7-6-7-1-9-1-0"/>
  </linearGradient>
 </defs>
 <g fill="#E6DDFF" transform="translate(-372,-60)">
  <path fill="#E6DDFF" d="m 372,61 v 13 h 6 c 0.97522,8e-5 1.60156,0.80078 1.60156,0.80078 l 0.39063,0.51758 0.40039,-0.50977 c 0,0 0.65126,-0.79321 1.61133,-0.80859 H 388 V 61 h -2 v 1 h 1 v 11 h -5.00391 -0.004 c -1.02478,0.0148 -1.62385,0.47752 -1.98828,0.82422 C 379.64034,73.4702 379,73 378,73 h -5 V 62 h 5 c 0.98317,9e-5 1.59961,0.79883 1.59961,0.79883 L 380,63.33398 l 0.40039,-0.53515 c 0,0 0.61643,-0.79883 1.59961,-0.79883 v 7 l 3,-1 v -7 h -3 c -1.03628,0 -1.63476,0.46542 -2,0.82031 C 379.63465,61.4654 379.03597,61 378,61 Z m 3,3 v 1 h 3 v -1 z m 0,2 v 1 h 3 v -1 z m 0,2 v 1 h 3 v -1 z m 0,2 v 1 h 3 v -1 z"/>
 </g>
</svg>
