<svg xmlns="http://www.w3.org/2000/svg" width="16" height="16" version="1.1">
 <title id="title9167">
  Gnome Symbolic Icon Theme
 </title>
 <g id="layer13" transform="translate(-461.0002,-195)">
  <path fill="#e6ddff" d="m 464.50433,203.01365 c -1.92115,0 -3.50339,1.5501 -3.50339,3.47125 0,1.92115 1.58224,3.50339 3.50339,3.50339 1.92115,0 3.50339,-1.58224 3.50339,-3.50339 0,-1.92115 -1.58224,-3.47125 -3.50339,-3.47125 z m 0,1.99275 c 0.84027,0 1.51064,0.63823 1.51064,1.4785 0,0.84027 -0.67037,1.51063 -1.51064,1.51063 -0.84027,0 -1.51064,-0.67036 -1.51064,-1.51063 0,-0.84027 0.67037,-1.4785 1.51064,-1.4785 z"/>
  <path fill="#e6ddff" d="m 472.50433,203.01365 c -1.92115,0 -3.50339,1.5501 -3.50339,3.47125 0,1.92115 1.58224,3.50339 3.50339,3.50339 1.92115,0 3.50339,-1.58224 3.50339,-3.50339 0,-1.92115 -1.58224,-3.47125 -3.50339,-3.47125 z m 0,1.99275 c 0.84027,0 1.51064,0.63823 1.51064,1.4785 0,0.84027 -0.67037,1.51063 -1.51064,1.51063 -0.84027,0 -1.51064,-0.67036 -1.51064,-1.51063 0,-0.84027 0.67037,-1.4785 1.51064,-1.4785 z"/>
  <rect fill="#e6ddff" width="2" height="9.516" x="466" y="197"/>
  <rect fill="#e6ddff" width="2" height="9.563" x="474" y="197"/>
  <rect fill="#e6ddff" width="10" height="2" x="466" y="197"/>
 </g>
</svg>
