<svg xmlns="http://www.w3.org/2000/svg" width="16" height="16" version="1.1">
 <g transform="matrix(0.125,0,0,0.125,-0.18909409,-21.5)" style="fill:#E6DDFF;enable-background:new">
  <path style="isolation:isolate;fill:#E6DDFF" d="m 15.674473,177.89278 c -1.519577,1.82412 -2.286686,4.15889 -2.1451,6.52881 V 287.5784 c -0.141586,2.36993 0.625523,4.70469 2.1451,6.52882 l 0.326897,0.3269 57.781155,-57.73481 v -1.35228 L 16.00137,177.56588 Z"/>
  <path style="isolation:isolate;fill:#E6DDFF" d="M 92.903048,255.95969 73.782525,236.69931 v -1.35228 l 19.120523,-19.30673 0.419586,0.23256 22.897616,13.01129 c 6.52882,3.68441 6.52882,9.74729 0,13.47805 l -22.804099,12.96411 z"/>
  <path style="isolation:isolate;fill:#E6DDFF" d="M 93.462496,255.67997 73.782525,236 15.674473,294.10722 c 2.745291,2.41377 6.819916,2.53162 9.700124,0.28055 l 68.134243,-38.7078"/>
  <path style="isolation:isolate;fill:#E6DDFF" d="M 93.462496,216.32003 25.328252,177.61222 c -2.880208,-2.25106 -6.954833,-2.13321 -9.700123,0.28056 L 73.782525,236 Z"/>
 </g>
</svg>
