<svg xmlns="http://www.w3.org/2000/svg" width="16" height="16" version="1.1">
 <title id="title9167">
  Gnome Symbolic Icon Theme
 </title>
 <g id="layer11" transform="translate(-323,-649.00012)">
  <path fill="#e6ddff" d="m 326.0002,657.00012 10,0 0,7.05898 c 0,0.4922 -0.47266,0.9375 -0.99609,0.9375 l -8.00391,0 c -0.53906,0 -1,-0.42964 -1,-1 z"/>
  <path fill="#e6ddff" d="m 329.6875,651.96875 a 1.0001,1.0001 0 0 0 -0.65625,0.375 l -2.8125,3.46875 A 1.0001,1.0001 0 0 0 326,656.4375 l 0,1 a 1.0001,1.0001 0 1 0 2,0 l 0,-0.65625 2.59375,-3.15625 a 1.0001,1.0001 0 0 0 -0.90625,-1.65625 z"/>
  <path fill="#e6ddff" d="m 331.90625,654.96875 a 1.0001221,1.0001221 0 1 0 -0.0312,2 l 2.15625,0.375 0,0.15625 a 1.0001,1.0001 0 1 0 2,0 l 0,-1 a 1.0001,1.0001 0 0 0 -0.8125,-1 l -3,-0.5 a 1.0001,1.0001 0 0 0 -0.3125,-0.0312 z"/>
 </g>
</svg>
