<?xml version="1.0" encoding="UTF-8"?>
<!-- Created with Inkscape (http://www.inkscape.org/) -->
<svg id="svg7384" width="16" height="16" version="1.1" xmlns="http://www.w3.org/2000/svg" xmlns:cc="http://creativecommons.org/ns#" xmlns:dc="http://purl.org/dc/elements/1.1/" xmlns:rdf="http://www.w3.org/1999/02/22-rdf-syntax-ns#">
 <metadata id="metadata90">
  <rdf:RDF>
   <cc:Work rdf:about="">
    <dc:format>image/svg+xml</dc:format>
    <dc:type rdf:resource="http://purl.org/dc/dcmitype/StillImage"/>
    <dc:title>Gnome Symbolic Icon Theme</dc:title>
   </cc:Work>
  </rdf:RDF>
 </metadata>
 <title id="title9167">Gnome Symbolic Icon Theme</title>
 <g id="layer11" transform="translate(-62,-381)">
  <g id="g11525" transform="translate(14,-17)">
   <path id="rect5122-3-5" d="m50.031 398c-0.54216 0-1 0.32904-1 0.9375v14.125c0 0.58636 0.37667 0.9375 1 0.9375h13.031c0.52007 0 0.9375-0.35114 0.9375-0.9375v-14.125c0-0.54217-0.39534-0.9375-0.9375-0.9375h-13.031zm0.96875 2.0312h11.031v2.9688h-11.031v-2.9688zm0.1875 3.9688h1.625c0.1108 0 0.1875 0.0767 0.1875 0.1875v1.625c0 0.1108-0.0767 0.1875-0.1875 0.1875h-1.625c-0.1108 0-0.1875-0.0767-0.1875-0.1875v-1.625c0-0.1108 0.0767-0.1875 0.1875-0.1875zm3 0h1.625c0.1108 0 0.1875 0.0767 0.1875 0.1875v1.625c0 0.1108-0.0767 0.1875-0.1875 0.1875h-1.625c-0.1108 0-0.1875-0.0767-0.1875-0.1875v-1.625c0-0.1108 0.0767-0.1875 0.1875-0.1875zm3 0h1.625c0.1108 0 0.1875 0.0767 0.1875 0.1875v1.625c0 0.1108-0.0767 0.1875-0.1875 0.1875h-1.625c-0.1108 0-0.1875-0.0767-0.1875-0.1875v-1.625c0-0.1108 0.0767-0.1875 0.1875-0.1875zm3 0h1.625c0.1108 0 0.1875 0.0767 0.1875 0.1875v1.625c0 0.1108-0.0767 0.1875-0.1875 0.1875h-1.625c-0.1108 0-0.1875-0.0767-0.1875-0.1875v-1.625c0-0.1108 0.0767-0.1875 0.1875-0.1875zm-9 3h1.625c0.1108 0 0.1875 0.0767 0.1875 0.1875v1.625c0 0.1108-0.0767 0.1875-0.1875 0.1875h-1.625c-0.1108 0-0.1875-0.0767-0.1875-0.1875v-1.625c0-0.1108 0.0767-0.1875 0.1875-0.1875zm3 0h1.625c0.1108 0 0.1875 0.0767 0.1875 0.1875v1.625c0 0.1108-0.0767 0.1875-0.1875 0.1875h-1.625c-0.1108 0-0.1875-0.0767-0.1875-0.1875v-1.625c0-0.1108 0.0767-0.1875 0.1875-0.1875zm3 0h1.625c0.1108 0 0.1875 0.0767 0.1875 0.1875v1.625c0 0.1108-0.0767 0.1875-0.1875 0.1875h-1.625c-0.1108 0-0.1875-0.0767-0.1875-0.1875v-1.625c0-0.1108 0.0767-0.1875 0.1875-0.1875zm3 0h1.625c0.1108 0 0.1875 0.0767 0.1875 0.1875v1.625c0 0.1108-0.0767 0.1875-0.1875 0.1875h-1.625c-0.1108 0-0.1875-0.0767-0.1875-0.1875v-1.625c0-0.1108 0.0767-0.1875 0.1875-0.1875zm-9 3h1.625c0.1108 0 0.1875 0.0767 0.1875 0.1875v1.625c0 0.1108-0.0767 0.1875-0.1875 0.1875h-1.625c-0.1108 0-0.1875-0.0767-0.1875-0.1875v-1.625c0-0.1108 0.0767-0.1875 0.1875-0.1875zm3 0h1.625c0.1108 0 0.1875 0.0767 0.1875 0.1875v1.625c0 0.1108-0.0767 0.1875-0.1875 0.1875h-1.625c-0.1108 0-0.1875-0.0767-0.1875-0.1875v-1.625c0-0.1108 0.0767-0.1875 0.1875-0.1875zm3 0h1.625c0.1108 0 0.1875 0.0767 0.1875 0.1875v1.625c0 0.1108-0.0767 0.1875-0.1875 0.1875h-1.625c-0.1108 0-0.1875-0.0767-0.1875-0.1875v-1.625c0-0.1108 0.0767-0.1875 0.1875-0.1875zm3 0h1.625c0.1108 0 0.1875 0.0767 0.1875 0.1875v1.625c0 0.1108-0.0767 0.1875-0.1875 0.1875h-1.625c-0.1108 0-0.1875-0.0767-0.1875-0.1875v-1.625c0-0.1108 0.0767-0.1875 0.1875-0.1875z" style="fill:#bebebe"/>
  </g>
 </g>
</svg>
