<svg xmlns="http://www.w3.org/2000/svg" width="16" height="16" version="1.1">
 <g transform="translate(-592,-239.99994)">
  <path d="m 595.99414,241 c -1.2582,0.0145 -2.17889,-0.0306 -2.93164,0.38477 -0.37637,0.20766 -0.67323,0.55938 -0.83789,0.99804 C 592.05994,242.82148 592,243.34239 592,244 v 8 c 0,0.65761 0.0599,1.17853 0.22461,1.61719 0.16467,0.43866 0.46152,0.79039 0.83789,0.99804 0.75275,0.41532 1.67345,0.3702 2.93164,0.38477 h 0.004 8.0039 0.004 c 1.25819,-0.0145 2.17889,0.0306 2.93164,-0.38477 0.37637,-0.20766 0.67322,-0.55938 0.83789,-0.99804 C 607.94006,253.17852 608,252.65761 608,252 v -8 c 0,-0.65761 -0.0599,-1.17852 -0.22461,-1.61719 -0.16466,-0.43866 -0.46152,-0.79038 -0.83789,-0.99804 -0.75275,-0.41534 -1.67344,-0.37025 -2.93164,-0.38477 h -0.004 -8.0039 z m 0.006,1 h 8 c 1.25852,0.0147 2.08717,0.0598 2.45312,0.26172 0.18341,0.1012 0.28916,0.21274 0.38672,0.47266 C 606.93741,242.99429 607,243.40761 607,244 v 8 c 0,0.59239 -0.0626,1.00572 -0.16016,1.26562 -0.0976,0.25991 -0.20331,0.37147 -0.38672,0.47266 C 606.08717,253.94019 605.25852,253.98529 604,254 H 596.00586 596 c -1.25853,-0.0147 -2.08912,-0.0598 -2.45508,-0.26172 -0.18341,-0.10119 -0.2872,-0.21275 -0.38476,-0.47266 C 593.06259,253.00572 593,252.59239 593,252 v -8 c 0,-0.59239 0.0626,-1.00572 0.16016,-1.26562 0.0976,-0.25991 0.20135,-0.37147 0.38476,-0.47266 C 593.91088,242.05981 594.74147,242.01471 596,242 Z" style="fill:#808080"/>
  <path d="m 598.25,246 c -0.1385,0 -0.25,0.1115 -0.25,0.25 v 6.5 c 0,0.1385 0.1115,0.25 0.25,0.25 h 3.5 c 0.1385,0 0.25,-0.1115 0.25,-0.25 v -6.5 c 0,-0.1385 -0.1115,-0.25 -0.25,-0.25 z m 0.875,4 h 1.75 c 0.0693,0 0.125,0.0557 0.125,0.125 v 1.75 c 0,0.0693 -0.0557,0.125 -0.125,0.125 h -1.75 C 599.0557,252 599,251.9443 599,251.875 v -1.75 c 0,-0.0693 0.0557,-0.125 0.125,-0.125 z" style="fill:#808080"/>
  <rect style="opacity:0.5;fill:#808080" width="2" height="4" x="599" y="242"/>
 </g>
</svg>
