<?xml version="1.0" encoding="UTF-8" standalone="no"?>
<!-- Created with Inkscape (http://www.inkscape.org/) -->

<svg
   xmlns:dc="http://purl.org/dc/elements/1.1/"
   xmlns:cc="http://creativecommons.org/ns#"
   xmlns:rdf="http://www.w3.org/1999/02/22-rdf-syntax-ns#"
   xmlns:svg="http://www.w3.org/2000/svg"
   xmlns="http://www.w3.org/2000/svg"
   xmlns:sodipodi="http://sodipodi.sourceforge.net/DTD/sodipodi-0.dtd"
   xmlns:inkscape="http://www.inkscape.org/namespaces/inkscape"
   sodipodi:docname="org.gnome.Glade-symbolic.svg"
   height="16"
   id="svg7384"
   inkscape:version="0.92.3 (2405546, 2018-03-11)"
   version="1.1"
   width="16">
  <metadata
     id="metadata90">
    <rdf:RDF>
      <cc:Work
         rdf:about="">
        <dc:format>image/svg+xml</dc:format>
        <dc:type
           rdf:resource="http://purl.org/dc/dcmitype/StillImage" />
        <dc:title>Gnome Symbolic Icon Theme</dc:title>
      </cc:Work>
    </rdf:RDF>
  </metadata>
  <sodipodi:namedview
     inkscape:bbox-paths="true"
     bordercolor="#666666"
     borderopacity="1"
     inkscape:current-layer="layer9"
     inkscape:cx="8"
     inkscape:cy="6.0022143"
     gridtolerance="10"
     inkscape:guide-bbox="true"
     guidetolerance="10"
     id="namedview88"
     inkscape:object-nodes="false"
     inkscape:object-paths="false"
     objecttolerance="10"
     pagecolor="#ffffff"
     inkscape:pageopacity="1"
     inkscape:pageshadow="2"
     showborder="true"
     showgrid="true"
     showguides="true"
     inkscape:snap-bbox="true"
     inkscape:snap-bbox-midpoints="false"
     inkscape:snap-global="true"
     inkscape:snap-grids="true"
     inkscape:snap-nodes="true"
     inkscape:snap-others="false"
     inkscape:snap-to-guides="true"
     inkscape:window-height="1009"
     inkscape:window-maximized="1"
     inkscape:window-width="1920"
     inkscape:window-x="0"
     inkscape:window-y="34"
     inkscape:zoom="52.1875"
     borderlayer="true"
     inkscape:showpageshadow="false">
    <inkscape:grid
       empspacing="2"
       enabled="true"
       id="grid4866"
       snapvisiblegridlinesonly="true"
       spacingx="1"
       spacingy="1"
       type="xygrid"
       visible="true"
       originx="0"
       originy="0" />
  </sodipodi:namedview>
  <title
     id="title9167">Gnome Symbolic Icon Theme</title>
  <defs
     id="defs7386" />
  <g
     inkscape:groupmode="layer"
     id="layer9"
     inkscape:label="apps"
     style="display:inline"
     transform="translate(-223.0002,-215)">
    <path
       style="display:inline;fill:#808080;fill-opacity:1;stroke:none;enable-background:new"
       d="M 0.0078125,0.01367188 V 14.013672 L 1.0488281,13.994141 1.0878906,1.0546875 H 14.984375 l 0.01953,3.9589844 h 1.003906 V 0.01367188 Z m 4.5,3.00000002 c -0.8284271,0 -1.5,0.6715729 -1.5,1.5 0,0.8284271 0.6715729,1.5 1.5,1.5 0.8284271,0 1.5,-0.6715729 1.5,-1.5 0,-0.8284271 -0.6715729,-1.5 -1.5,-1.5 z m 2.5,1 v 1 h 4.9999995 v -1 z m -2.5,3 c -0.8284271,0 -1.5,0.6715729 -1.5,1.5 -10e-8,0.8284272 0.6715728,1.5000001 1.5,1.5000001 0.8284272,0 1.5000001,-0.6715729 1.5,-1.5000001 0,-0.8284271 -0.6715729,-1.5 -1.5,-1.5 z M 16.007812,7.7050781 2.0078125,16.013672 H 16.007812 Z M 7.0078125,8.0136719 v 1 h 4.9999995 v -1 z m 8.0336785,1.9362859 -0.05712,4.9269952 -8.8867188,0.152344 z"
       transform="translate(223.0002,215)"
       id="path4349"
       inkscape:connector-curvature="0"
       sodipodi:nodetypes="cccccccccssssscccccsssssccccccccccccc" />
  </g>
</svg>
