<?xml version="1.0" encoding="UTF-8" standalone="no"?>
<svg
   xmlns:dc="http://purl.org/dc/elements/1.1/"
   xmlns:cc="http://creativecommons.org/ns#"
   xmlns:rdf="http://www.w3.org/1999/02/22-rdf-syntax-ns#"
   xmlns:svg="http://www.w3.org/2000/svg"
   xmlns="http://www.w3.org/2000/svg"
   xmlns:xlink="http://www.w3.org/1999/xlink"
   xmlns:sodipodi="http://sodipodi.sourceforge.net/DTD/sodipodi-0.dtd"
   xmlns:inkscape="http://www.inkscape.org/namespaces/inkscape"
   width="16"
   height="16"
   version="1.0"
   id="svg48"
   sodipodi:docname="52.svg"
   inkscape:version="0.92.3 (2405546, 2018-03-11)">
  <metadata
     id="metadata52">
    <rdf:RDF>
      <cc:Work
         rdf:about="">
        <dc:format>image/svg+xml</dc:format>
        <dc:type
           rdf:resource="http://purl.org/dc/dcmitype/StillImage" />
        <dc:title></dc:title>
      </cc:Work>
    </rdf:RDF>
  </metadata>
  <sodipodi:namedview
     pagecolor="#ffffff"
     bordercolor="#666666"
     borderopacity="1"
     objecttolerance="10"
     gridtolerance="10"
     guidetolerance="10"
     inkscape:pageopacity="0"
     inkscape:pageshadow="2"
     inkscape:window-width="1920"
     inkscape:window-height="1009"
     id="namedview50"
     showgrid="false"
     inkscape:zoom="52.187239"
     inkscape:cx="3.9747797"
     inkscape:cy="8.42669"
     inkscape:window-x="0"
     inkscape:window-y="34"
     inkscape:window-maximized="1"
     inkscape:current-layer="svg48" />
  <defs
     id="defs30">
    <linearGradient
       id="a">
      <stop
         id="stop2"
         offset="0"
         stop-color="#68676b" />
      <stop
         id="stop4"
         offset=".8"
         stop-color="#424048" />
      <stop
         id="stop6"
         offset="1"
         stop-color="#241f31" />
    </linearGradient>
    <radialGradient
       id="d"
       cx="279.422"
       cy="446.483"
       r="224"
       fx="279.422"
       fy="446.483"
       gradientTransform="matrix(1.34416,6e-4,-6.2e-4,1.38763,-121.22,-718.103)"
       gradientUnits="userSpaceOnUse"
       xlink:href="#a" />
    <linearGradient
       id="e"
       x1="43.844002"
       x2="-60"
       y1="234"
       y2="234"
       gradientTransform="matrix(1.0015,0,0,0.99993,72.09,56.015)"
       gradientUnits="userSpaceOnUse"
       xlink:href="#b" />
    <linearGradient
       id="b">
      <stop
         id="stop11"
         offset="0"
         stop-color="#d5d3cf" />
      <stop
         id="stop13"
         offset=".038"
         stop-color="#e3e2df" />
      <stop
         id="stop15"
         offset=".077"
         stop-color="#c0bfbc" />
      <stop
         id="stop17"
         offset=".923"
         stop-color="#c0bfbc" />
      <stop
         id="stop19"
         offset=".962"
         stop-color="#e3e2df" />
      <stop
         id="stop21"
         offset="1"
         stop-color="#d5d3cf" />
    </linearGradient>
    <linearGradient
       id="linearGradient1007"
       x1="160.30499"
       x2="161.33"
       y1="240.13901"
       y2="135.57899"
       gradientTransform="matrix(0.54625232,0,0,0.54625232,-6.0941965,-68.413544)"
       gradientUnits="userSpaceOnUse"
       xlink:href="#linearGradient1018" />
    <linearGradient
       id="linearGradient1018">
      <stop
         id="stop2-3"
         offset="0"
         style="stop-color:#37a6e6" />
      <stop
         id="stop4-6"
         offset="1"
         style="stop-color:#1a7fd4" />
    </linearGradient>
    <clipPath
       id="clipPath1082-3"
       clipPathUnits="userSpaceOnUse">
      <path
         d="M 361.9375,-212 C 507.2348,-212 528,-191.28677 528,-46.125 V 70.125 C 528,215.28618 507.2348,236 361.9375,236 H 214.0625 C 68.7652,236 48,215.28618 48,70.125 V -46.125 C 48,-191.28677 68.7652,-212 214.0625,-212 Z"
         style="fill:#8c59d9"
         id="path19"
         inkscape:connector-curvature="0" />
    </clipPath>
    <linearGradient
       id="linearGradient4358"
       x1="88"
       x2="488"
       y1="88"
       y2="488"
       gradientUnits="userSpaceOnUse"
       xlink:href="#linearGradient4360" />
    <linearGradient
       id="linearGradient4360">
      <stop
         id="stop4362"
         offset="0"
         style="stop-color:#000000;stop-opacity:0.58823532" />
      <stop
         id="stop4366"
         offset="1"
         style="stop-color:#000000;stop-opacity:0.20555556" />
    </linearGradient>
    <filter
       style="color-interpolation-filters:sRGB"
       id="filter4380"
       width="1.1059999"
       height="1.0880001"
       x="-0.050000001"
       y="-0.039999999">
      <feGaussianBlur
         id="feGaussianBlur4382"
         stdDeviation="8.48" />
    </filter>
    <filter
       style="color-interpolation-filters:sRGB"
       id="filter4346"
       width="1.026"
       height="1.022"
       x="-0.0099999998"
       y="-0.0099999998">
      <feGaussianBlur
         id="feGaussianBlur4348"
         stdDeviation="2.12" />
    </filter>
  </defs>
  <path
     style="fill:#808080;fill-opacity:1;stroke-width:0.10367084"
     d="m 7.1181379,15.308882 c -0.22808,-0.1056 -0.54911,-0.33512 -0.7134,-0.51005 -0.31944,-0.34013 -0.61784,-1.25762 -0.50487,-1.5523 0.039,-0.1018 -0.12343,-0.0136 -0.38128,0.20709 -0.49317,0.422 -1.07252,0.57128 -1.74314,0.44915 -1.43432,-0.26122 -2.1643902,-2.07125 -1.33086,-3.29952 l 0.24532,-0.36152 -0.3596,-0.0583 C 0.84414768,9.9422615 0.03185768,8.2441415 0.78660768,6.9562615 1.0859777,6.4454215 1.7452477,5.9938615 2.3303079,5.8989215 l 0.3596,-0.0584 -0.24532,-0.36151 c -0.7102202,-1.04656 -0.3203302,-2.51727 0.81765,-3.08435 0.84377,-0.42047 1.72055,-0.29797 2.37859,0.33232 l 0.28509,0.27307 v -0.43821 c 0,-0.48802 0.26765,-1.08914 0.63927,-1.43579 0.55334,-0.51614009 1.59409,-0.70205009 2.29277,-0.40956009 0.4115,0.17227 1.08684,0.90403009 1.1603301,1.25728009 0.18278,0.87853 0.14391,0.81652 0.39581,0.63144 1.12663,-0.82777 2.6295,-0.52405 3.25326,0.65745 0.40044,0.7585 0.29702,1.79045 -0.24111,2.40586 -0.13059,0.14935 -0.10613,0.17384 0.22771,0.22802 0.59851,0.0971 1.25612,0.54437 1.55811,1.05968 0.7585,1.29428 -0.0577,2.98603 -1.55811,3.2295105 -0.33384,0.0542 -0.3583,0.0787 -0.22771,0.22802 0.56159,0.64223 0.63552,1.56097 0.19367,2.40676 -0.64053,1.22613 -2.26265,1.49205 -3.26207,0.53477 l -0.28509,-0.27307 v 0.43821 c 0,1.43533 -1.6110501,2.41052 -2.9546201,1.78847 z m 1.69158,-1.02977 c 0.43477,-0.40614 0.52348,-0.93695 0.23755,-1.42155 -0.18866,-0.31976 -0.21856,-0.53599 -0.21856,-1.58036 v -1.209921 l 0.87246,0.867941 c 0.6295401,0.62626 0.8903201,0.96307 0.9365701,1.20959 0.0952,0.50762 0.58198,0.87251 1.16391,0.87251 1.00932,0 1.55908,-1.18505 0.90846,-1.95826 -0.15448,-0.1836 -0.40823,-0.34224 -0.60708,-0.37954 -0.24653,-0.0463 -0.58333,-0.30703 -1.2096,-0.9365605 l -0.86793,-0.87247 h 1.20992 c 1.04437,0 1.2606,0.0299 1.58036,0.21857 0.4846,0.28592 1.01541,0.19721 1.42155,-0.23756 0.63244,-0.67703 0.24479,-1.83376 -0.67219,-2.00579 -0.29005,-0.0544 -0.4658,-0.0198 -0.74936,0.14748 -0.31976,0.18866 -0.53599,0.21857 -1.58036,0.21857 h -1.20992 l 0.86793,-0.87247 c 0.62627,-0.62953 0.96307,-0.89032 1.2096,-0.93656 0.50762,-0.0952 0.87251,-0.58199 0.87251,-1.16391 0,-1.00933 -1.18505,-1.55909 -1.95827,-0.90847 -0.18359,0.15448 -0.34223,0.40823 -0.37953,0.60708 -0.0463,0.24653 -0.30703,0.58334 -0.9365701,1.2096 l -0.87246,0.86793 v -1.20991 c 0,-1.04438 0.0299,-1.26061 0.21856,-1.58036 0.16731,-0.28356 0.2019,-0.45932 0.14748,-0.74936 -0.17202,-0.91698 -1.32876,-1.30464 -2.00579,-0.6722 -0.43477,0.40614 -0.52347,0.93695 -0.23755,1.42156 0.18866,0.31975 0.21856,0.53598 0.21856,1.58036 v 1.20991 l -0.87246,-0.86793 c -0.62953,-0.62626 -0.89032,-0.96307 -0.93657,-1.2096 -0.0952,-0.50762 -0.58198,-0.87251 -1.16391,-0.87251 -1.00932,0 -1.55908,1.18505 -0.90846,1.95827 0.15448,0.18359 0.40823,0.34223 0.60708,0.37954 0.24653,0.0462 0.58333,0.30703 1.2096,0.93656 l 0.86793,0.87247 h -1.20992 c -1.04437,0 -1.2606,-0.0299 -1.58036,-0.21857 -0.4846,-0.28592 -1.0154102,-0.19722 -1.4215502,0.23756 -0.41812,0.44759 -0.41812,1.17315 0,1.62075 0.40614,0.43477 0.9369502,0.52348 1.4215502,0.23756 0.31976,-0.18867 0.53599,-0.21857 1.58036,-0.21857 h 1.20992 l -0.86793,0.87247 c -0.62627,0.6295305 -0.96307,0.8903105 -1.2096,0.9365605 -0.50762,0.0952 -0.87251,0.58199 -0.87251,1.16391 0,1.00932 1.18505,1.55908 1.95827,0.90847 0.18359,-0.15449 0.34223,-0.40824 0.37953,-0.60709 0.0462,-0.24652 0.30704,-0.58333 0.93657,-1.20959 l 0.87246,-0.867941 v 1.209921 c 0,1.04437 -0.0299,1.2606 -0.21856,1.58036 -0.28592,0.4846 -0.19722,1.01541 0.23755,1.42155 0.25412,0.23738 0.40857,0.29327 0.81038,0.29327 0.40181,0 0.55626,-0.0559 0.81038,-0.29327 z"
     id="path1534"
     inkscape:connector-curvature="0" />
</svg>
