<?xml version="1.0" encoding="UTF-8" standalone="no"?>
<!-- Created with Inkscape (http://www.inkscape.org/) -->

<svg
   xmlns:osb="http://www.openswatchbook.org/uri/2009/osb"
   xmlns:dc="http://purl.org/dc/elements/1.1/"
   xmlns:cc="http://creativecommons.org/ns#"
   xmlns:rdf="http://www.w3.org/1999/02/22-rdf-syntax-ns#"
   xmlns:svg="http://www.w3.org/2000/svg"
   xmlns="http://www.w3.org/2000/svg"
   xmlns:sodipodi="http://sodipodi.sourceforge.net/DTD/sodipodi-0.dtd"
   xmlns:inkscape="http://www.inkscape.org/namespaces/inkscape"
   sodipodi:docname="org.gnome.Sysprof-symbolic.svg"
   height="16"
   id="svg7384"
   version="1.1"
   inkscape:version="0.92.3 (2405546, 2018-03-11)"
   width="16">
  <metadata
     id="metadata90">
    <rdf:RDF>
      <cc:Work
         rdf:about="">
        <dc:format>image/svg+xml</dc:format>
        <dc:type
           rdf:resource="http://purl.org/dc/dcmitype/StillImage" />
        <dc:title>Gnome Symbolic Icon Theme</dc:title>
      </cc:Work>
    </rdf:RDF>
  </metadata>
  <sodipodi:namedview
     inkscape:bbox-nodes="true"
     inkscape:bbox-paths="true"
     bordercolor="#666666"
     borderopacity="1"
     inkscape:current-layer="layer9"
     inkscape:cx="8"
     inkscape:cy="8"
     gridtolerance="10"
     inkscape:guide-bbox="true"
     guidetolerance="10"
     id="namedview88"
     inkscape:object-nodes="false"
     inkscape:object-paths="false"
     objecttolerance="10"
     pagecolor="#ffffff"
     inkscape:pageopacity="1"
     inkscape:pageshadow="2"
     showborder="true"
     showgrid="false"
     showguides="true"
     inkscape:snap-bbox="true"
     inkscape:snap-bbox-edge-midpoints="true"
     inkscape:snap-bbox-midpoints="true"
     inkscape:snap-global="true"
     inkscape:snap-grids="true"
     inkscape:snap-nodes="true"
     inkscape:snap-others="true"
     inkscape:snap-to-guides="true"
     inkscape:window-height="1009"
     inkscape:window-maximized="1"
     inkscape:window-width="1920"
     inkscape:window-x="0"
     inkscape:window-y="34"
     inkscape:zoom="52.1875">
    <inkscape:grid
       empspacing="2"
       enabled="true"
       id="grid4866"
       originx="-282"
       originy="-322"
       snapvisiblegridlinesonly="true"
       spacingx="1"
       spacingy="1"
       type="xygrid"
       visible="true" />
  </sodipodi:namedview>
  <title
     id="title9167">Gnome Symbolic Icon Theme</title>
  <defs
     id="defs7386">
    <linearGradient
       id="linearGradient7212"
       osb:paint="solid">
      <stop
         id="stop7214"
         offset="0"
         style="stop-color:#000000;stop-opacity:1;" />
    </linearGradient>
    <filter
       id="filter4520"
       x="-0.059999999"
       y="-0.059999999"
       width="1.12"
       height="1.12"
       style="color-interpolation-filters:sRGB">
      <feGaussianBlur
         stdDeviation="1.2"
         id="feGaussianBlur23" />
    </filter>
  </defs>
  <g
     inkscape:groupmode="layer"
     id="layer9"
     inkscape:label="apps"
     style="display:inline"
     transform="translate(-523.0002,105)">
    <path
       style="color:#000000;clip-rule:nonzero;display:inline;overflow:visible;visibility:visible;opacity:1;isolation:auto;mix-blend-mode:normal;color-interpolation:sRGB;color-interpolation-filters:linearRGB;solid-color:#000000;solid-opacity:1;fill:#bebebe;fill-opacity:1;fill-rule:nonzero;stroke:none;stroke-width:2;stroke-linecap:butt;stroke-linejoin:miter;stroke-miterlimit:4;stroke-dasharray:none;stroke-dashoffset:0;stroke-opacity:1;marker:none;marker-start:none;marker-mid:none;marker-end:none;paint-order:normal;color-rendering:auto;image-rendering:auto;shape-rendering:auto;text-rendering:auto;enable-background:new"
       d="M 8.0273438 0.50195312 C 7.3413437 0.50195312 6.6559694 0.73433188 6.0996094 1.2011719 C 4.9868794 2.1348619 4.7034075 3.74205 5.4296875 5 L 6.2949219 4.5 C 5.8079719 3.65657 5.9961275 2.59477 6.7421875 1.96875 C 7.4882375 1.34273 8.56644 1.34273 9.3125 1.96875 C 10.05856 2.59477 10.246716 3.65657 9.7597656 4.5 L 10.625 5 C 11.35128 3.74205 11.067798 2.1348619 9.9550781 1.2011719 C 9.3987181 0.73433187 8.7133437 0.50195312 8.0273438 0.50195312 z M 8 5 C 5.23858 5 3 7.23858 3 10 C 3 12.76142 5.23858 15 8 15 C 10.76142 15 13 12.76142 13 10 C 13 7.23858 10.76142 5 8 5 z M 8 6.5429688 L 9.2304688 9.0683594 A 2.3165417 2.3770187 0 0 1 10.316406 11.080078 A 2.3165417 2.3770187 0 0 1 8 13.457031 A 2.3165417 2.3770187 0 0 1 5.6835938 11.080078 A 2.3165417 2.3770187 0 0 1 6.7675781 9.0703125 L 8 6.5429688 z "
       transform="translate(523.0002,-105)"
       id="path9349" />
    <g
       transform="matrix(0.3125,0,0,0.3125,502.19543,-174.92522)"
       style="enable-background:new"
       id="g75" />
  </g>
</svg>
