<svg xmlns="http://www.w3.org/2000/svg" width="16" height="16" version="1.1">
 <path fill="#241f31" d="m 5.5683595,3.9994504 v 1.6015625 h 1.6015626 1.5 1.4003909 V 3.9994504 h -1.4003909 -1.5 z m 0,3.2011719 v 1.5996093 h 1.6015626 1.5 1.4003909 V 7.2006223 h -1.4003909 -1.5 z m 0,3.1992187 v 1.599609 h 1.5 0.1015626 1.5 1.4003909 v -1.599609 h -1.4003909 -1.5 -0.1015626 z"/>
 <path fill="#241f31" d="M 3.1132812 0.5 A 1.0000999 1.0000999 0 0 0 2.3007812 1.5 L 2.3007812 14.5 A 1.0000999 1.0000999 0 0 0 3.3007812 15.5 L 7.8007812 15.5 L 7.8378906 15.5 L 12.337891 15.5 A 1.0000999 1.0000999 0 0 0 13.337891 14.5 L 13.337891 1.5 A 1.0000999 1.0000999 0 0 0 12.525391 0.5 A 1.0000999 1.0000999 0 0 0 12.431641 0.5 A 1.0000999 1.0000999 0 0 0 12.337891 0.5 L 7.8378906 0.5 L 7.8007812 0.5 L 3.3007812 0.5 A 1.0000999 1.0000999 0 0 0 3.2070312 0.5 A 1.0000999 1.0000999 0 0 0 3.1132812 0.5 z M 4.3007812 2.5 L 7.8007812 2.5 L 7.8378906 2.5 L 11.337891 2.5 L 11.337891 13.5 L 7.8378906 13.5 L 7.8007812 13.5 L 4.3007812 13.5 L 4.3007812 2.5 z"/>
</svg>
