<?xml version="1.0" encoding="UTF-8" standalone="no"?>
<!-- Created with Inkscape (http://www.inkscape.org/) -->

<svg
   xmlns:dc="http://purl.org/dc/elements/1.1/"
   xmlns:cc="http://creativecommons.org/ns#"
   xmlns:rdf="http://www.w3.org/1999/02/22-rdf-syntax-ns#"
   xmlns:svg="http://www.w3.org/2000/svg"
   xmlns="http://www.w3.org/2000/svg"
   xmlns:sodipodi="http://sodipodi.sourceforge.net/DTD/sodipodi-0.dtd"
   xmlns:inkscape="http://www.inkscape.org/namespaces/inkscape"
   id="svg7384"
   sodipodi:docname="package-x-generic-symbolic.svg"
   version="1.1"
   inkscape:version="0.92.3 (2405546, 2018-03-11)"
   height="16"
   width="16">
  <metadata
     id="metadata90">
    <rdf:RDF>
      <cc:Work
         rdf:about="">
        <dc:format>image/svg+xml</dc:format>
        <dc:type
           rdf:resource="http://purl.org/dc/dcmitype/StillImage" />
        <dc:title>Gnome Symbolic Icon Theme</dc:title>
      </cc:Work>
    </rdf:RDF>
  </metadata>
  <sodipodi:namedview
     inkscape:cy="1.2808399"
     pagecolor="#555753"
     borderopacity="1"
     showborder="false"
     inkscape:bbox-paths="false"
     guidetolerance="10"
     inkscape:object-paths="true"
     inkscape:window-width="1296"
     showguides="true"
     inkscape:object-nodes="true"
     inkscape:snap-bbox="true"
     inkscape:pageshadow="2"
     inkscape:guide-bbox="true"
     inkscape:snap-nodes="false"
     bordercolor="#666666"
     objecttolerance="10"
     id="namedview88"
     showgrid="false"
     inkscape:window-maximized="0"
     inkscape:window-x="64"
     inkscape:snap-global="true"
     inkscape:window-y="66"
     gridtolerance="10"
     inkscape:window-height="1009"
     inkscape:snap-to-guides="true"
     inkscape:current-layer="layer14"
     inkscape:snap-bbox-midpoints="false"
     inkscape:zoom="47.625"
     inkscape:cx="8"
     inkscape:snap-grids="true"
     inkscape:pageopacity="1">
    <inkscape:grid
       spacingx="1"
       spacingy="1"
       id="grid4866"
       empspacing="2"
       enabled="true"
       type="xygrid"
       snapvisiblegridlinesonly="true"
       visible="true"
       originx="0"
       originy="0" />
  </sodipodi:namedview>
  <title
     id="title9167">Gnome Symbolic Icon Theme</title>
  <defs
     id="defs7386" />
  <g
     inkscape:label="status"
     transform="translate(-482,-300)"
     inkscape:groupmode="layer"
     id="layer9"
     style="display:inline" />
  <g
     inkscape:label="devices"
     transform="translate(-482,-300)"
     inkscape:groupmode="layer"
     id="layer10" />
  <g
     inkscape:label="apps"
     transform="translate(-482,-300)"
     inkscape:groupmode="layer"
     id="layer11" />
  <g
     inkscape:label="actions"
     transform="translate(-482,-300)"
     inkscape:groupmode="layer"
     id="layer12" />
  <g
     inkscape:label="places"
     transform="translate(-482,-300)"
     inkscape:groupmode="layer"
     id="layer13" />
  <g
     inkscape:label="mimetypes"
     transform="translate(-482,-300)"
     inkscape:groupmode="layer"
     id="layer14">
    <path
       style="color:#bebebe;fill:#241f31;fill-opacity:1;fill-rule:nonzero;stroke:none;stroke-width:2;marker:none;visibility:visible;display:inline;overflow:visible;enable-background:accumulate"
       d="M 6.8554688 2.9550781 A 1.0001 1.0001 0 0 0 6.6875 2.96875 A 1.0001 1.0001 0 0 0 6.03125 3.34375 L 3.21875 6.8125 A 1.0001 1.0001 0 0 0 3 7.4375 L 3 8.4375 L 3 14.996094 C 3 15.566454 3.46094 15.996094 4 15.996094 L 12.003906 15.996094 C 12.527336 15.996094 13 15.550794 13 15.058594 L 13 8.7578125 A 1.0001 1.0001 0 0 0 13.03125 8.5 L 13.03125 7.5 A 1.0001 1.0001 0 0 0 12.21875 6.5 L 9.21875 6 A 1.0001 1.0001 0 0 0 8.90625 5.96875 A 1.0001221 1.0001221 0 1 0 8.875 7.96875 L 9.0546875 8 L 5 8 L 5 7.78125 L 7.59375 4.625 A 1.0001 1.0001 0 0 0 6.8554688 2.9550781 z "
       transform="translate(482,300)"
       id="rect7268" />
  </g>
  <g
     inkscape:label="emblems"
     transform="translate(-482,-300)"
     inkscape:groupmode="layer"
     id="layer15"
     style="display:inline" />
  <g
     inkscape:label="categories"
     transform="translate(-482,-300)"
     inkscape:groupmode="layer"
     id="g4953"
     style="display:inline" />
</svg>
