<svg xmlns="http://www.w3.org/2000/svg" xmlns:osb="http://www.openswatchbook.org/uri/2009/osb" width="16" height="16" version="1.1">
 <title id="title9167">
  Gnome Symbolic Icon Theme
 </title>
 <defs>
  <linearGradient id="linearGradient7212" osb:paint="solid">
   <stop id="stop7214" offset="0" style="stop-color:#000000"/>
  </linearGradient>
 </defs>
 <g id="layer9" transform="translate(-383.0002,165)">
  <rect width="15.938" height="16" x="383" y="-165" rx="0" ry="0" style="opacity:0;fill:#ffffff"/>
  <path fill="#444" d="m 385.1877,-165 c -1.2016,0 -2.1875,0.98758 -2.1875,2.1875 l 0,11.625 c 0,1.19992 0.9859,2.1875 2.1875,2.1875 l 7.28125,0 -2.03125,-2 -5.25,0 c -0.1238,0 -0.1875,-0.0566 -0.1875,-0.1875 l 0,-11.625 c 0,-0.1309 0.0637,-0.1875 0.1875,-0.1875 l 9.625,0 c 0.1238,0 0.1875,0.0566 0.1875,0.1875 l 0,4.84375 2,0.4375 0,-5.28125 c 0,-1.19992 -0.9859,-2.1875 -2.1875,-2.1875 z m 4.8125,3 c -2.20914,0 -4,1.79086 -4,4 0,2.19866 1.77407,3.98312 3.96875,4 0.20388,-0.98482 0.50919,-1.51244 1.03125,-2.28125 l 1.40625,1.46875 0.75,-0.75 -1.40625,-1.5625 c 0.69625,-0.45441 1.5773,-0.7768 2.25,-0.875 0,-2.20914 -1.79086,-4 -4,-4 z m 0,3 c 0.55228,0 1,0.44771 1,1 0,0.55228 -0.44772,1 -1,1 -0.55228,0 -1,-0.44772 -1,-1 0,-0.55229 0.44772,-1 1,-1 z m 4.46875,2 c -0.40656,0 -0.79288,0.0924 -1.15625,0.21875 l 1.90625,1.90625 c 0.39436,0.39326 0.39436,1.01297 0,1.40625 l -0.71875,0.75 c -0.39436,0.39327 -1.0119,0.39327 -1.40625,0 l -1.9375,-1.9375 c -0.12669,0.36235 -0.21875,0.75081 -0.21875,1.15625 0,1.94058 1.58533,3.53125 3.53125,3.53125 0.40656,0 0.79288,-0.0924 1.15625,-0.21875 l 1.21875,1.1875 c 0.021,-2.6e-4 0.0415,-2.6e-4 0.0625,0 l 2.09375,-2.09375 -1.21875,-1.21875 c 0.1267,-0.36235 0.21875,-0.78205 0.21875,-1.1875 0,-1.94057 -1.58534,-3.5 -3.53125,-3.5 z"/>
 </g>
</svg>
