<svg xmlns="http://www.w3.org/2000/svg" width="16" height="16" version="1.1">
 <g transform="translate(-492,-240)">
  <path d="m 500,245 a 3,3 0 0 0 -3,3 3,3 0 0 0 3,3 3,3 0 0 0 3,-3 3,3 0 0 0 -3,-3 z m 0,1.5 a 1.5,1.5 0 0 1 1.5,1.5 1.5,1.5 0 0 1 -1.5,1.5 1.5,1.5 0 0 1 -1.5,-1.5 1.5,1.5 0 0 1 1.5,-1.5 z" style="fill:#808080"/>
  <path d="m 500,240 a 8,8 0 0 0 -8,8 8,8 0 0 0 8,8 8,8 0 0 0 8,-8 8,8 0 0 0 -8,-8 z m 0,1 a 7,7 0 0 1 7,7 7,7 0 0 1 -7,7 7,7 0 0 1 -7,-7 7,7 0 0 1 7,-7 z" style="fill:#808080"/>
  <path d="m 504.50322,251.0014 c -0.0115,5.3e-4 -0.0141,0.0182 -0.0212,0.0273 l -9.85001,2.99913 c -0.98635,0.49987 -0.64044,1.49667 -0.15797,1.814 0.59552,0.36832 1.26294,-0.004 1.86673,-0.13864 l 8.35893,-3.76456 c 0.33346,-0.0932 0.43128,-0.71144 0.077,-0.85136 -0.0887,-0.0545 -0.18023,-0.0804 -0.27356,-0.0859 z" style="fill:#808080"/>
 </g>
</svg>
