<svg xmlns="http://www.w3.org/2000/svg" width="16" height="16" version="1.1">
 <title id="title9167">
  Gnome Symbolic Icon Theme
 </title>
 <g id="layer9" transform="translate(-43.0002,-175)">
  <path fill="#241f31" d="m 45.812895,176 c -0.478082,0.0912 -0.821076,0.51337 -0.8125,1 v 13 c 5.5e-5,0.55226 0.447738,0.99994 1,1 h 10 c 0.552262,-6e-5 0.999945,-0.44774 1,-1 v -9.4375 c 0.0062,-0.26756 -0.0951,-0.52645 -0.28125,-0.71875 l -3.5625,-3.5625 C 52.964346,176.0951 52.70546,175.9938 52.437895,176 h -6.4375 c -0.03122,-0.001 -0.06248,-0.001 -0.0937,0 -0.03122,-0.001 -0.06248,-0.001 -0.0937,0 z m 0.217369,1.01191 5.988096,0.0359 -0.01797,3.93419 4.041992,0.0539 -0.03593,8.95217 -9.940257,0.018 z"/>
  <path fill="#241f31" d="m 50,176.5625 0,4.625 -0.53125,0.53125 -0.53125,-0.46875 0,-2.3125 -1,0 0,2.5625 0,0.21875 0.15625,0.15625 1.03125,0.90625 0.375,0.3125 0.3125,-0.34375 1.03125,-1.03125 0.15625,-0.125 0,-0.21875 0,-4.8125 -1,0 z"/>
  <path fill="#241f31" d="m 53,180.375 0,3.625 -6.4375,0 0,1 6.9375,0 0.5,0 0,-0.5 0,-4.125 -1,0 z"/>
 </g>
</svg>
