<svg xmlns="http://www.w3.org/2000/svg" width="16" height="16" version="1.1">
 <g fill="#241f31" transform="translate(-292,-398.64789)">
  <path fill="#241f31" d="M 8 0.5 A 7.5 7.5 0 0 0 0.93945312 5.5 L 15.0625 5.5 A 7.5 7.5 0 0 0 8 0.5 z M 0.65234375 6.5 A 7.5 7.5 0 0 0 0.52539062 7.5 L 15.482422 7.5 A 7.5 7.5 0 0 0 15.339844 6.5 L 0.65234375 6.5 z M 0.51757812 8.5 A 7.5 7.5 0 0 0 0.66015625 9.5 L 15.347656 9.5 A 7.5 7.5 0 0 0 15.474609 8.5 L 0.51757812 8.5 z M 0.9375 10.5 A 7.5 7.5 0 0 0 8 15.5 A 7.5 7.5 0 0 0 15.060547 10.5 L 0.9375 10.5 z" transform="translate(292,398.64789)"/>
 </g>
</svg>
