<svg xmlns="http://www.w3.org/2000/svg" width="16" height="16" version="1.1">
 <g transform="matrix(0.08639807,0,0,0.08639807,-8.8647345,-11.715415)" style="enable-background:new">
  <g transform="translate(-12.573749,-0.06723732)">
   <g transform="matrix(0.56348412,0,0,0.56348412,-272.33831,-14.277295)" style="stroke:#808080;stroke-opacity:0.79000005">
    <circle cx="883.604" cy="372.218" r="36.271" style="opacity:0.66763006;fill:none;stroke:#808080;stroke-width:16.92636299;stroke-linejoin:round;stroke-opacity:0.79000005"/>
    <circle cx="883.604" cy="372.218" r="68.972" style="opacity:0.66763006;fill:none;stroke:#808080;stroke-width:11.69271851;stroke-linejoin:round;stroke-opacity:0.79000005"/>
    <circle cx="883.604" cy="372.218" r="103.121" style="opacity:0.66763006;fill:none;stroke:#808080;stroke-width:5.99500418;stroke-linejoin:round;stroke-opacity:0.79000005"/>
   </g>
   <g transform="matrix(1.7060829,0,0,1.7060829,143.27284,-163.5878)" style="fill:#808080">
    <g style="fill:#808080">
     <path style="fill:#808080;fill-rule:evenodd" d="m 47.589745,209.314 -47.7665216,46.36163 21.7759096,0.70244 c 0,0 -9.131831,18.96611 -9.131831,18.96611 -2.8097966,8.42939 9.834282,11.59041 11.941628,5.26838 0,0 8.42939,-18.96612 8.42939,-18.96612 l 15.453872,16.50755 z"/>
     <path d="M 47.589844,37.314453 47.34375,37.552734 16.185547,111.33398 c 3.147793,1.27683 7.120849,0.58472 8.222656,-2.7207 L 32.837891,89.646484 48.292969,106.1543 Z" transform="translate(0,172)" style="fill:#808080;fill-rule:evenodd"/>
    </g>
   </g>
  </g>
 </g>
</svg>
