<?xml version="1.0" encoding="UTF-8" standalone="no"?>
<svg
   xmlns:dc="http://purl.org/dc/elements/1.1/"
   xmlns:cc="http://creativecommons.org/ns#"
   xmlns:rdf="http://www.w3.org/1999/02/22-rdf-syntax-ns#"
   xmlns:svg="http://www.w3.org/2000/svg"
   xmlns="http://www.w3.org/2000/svg"
   xmlns:sodipodi="http://sodipodi.sourceforge.net/DTD/sodipodi-0.dtd"
   xmlns:inkscape="http://www.inkscape.org/namespaces/inkscape"
   width="16"
   height="16"
   version="1.1"
   viewBox="0 0 4.23 4.23"
   id="svg6"
   sodipodi:docname="exfalso-symbolic.svg"
   inkscape:version="0.92.3 (2405546, 2018-03-11)">
  <metadata
     id="metadata12">
    <rdf:RDF>
      <cc:Work
         rdf:about="">
        <dc:format>image/svg+xml</dc:format>
        <dc:type
           rdf:resource="http://purl.org/dc/dcmitype/StillImage" />
      </cc:Work>
    </rdf:RDF>
  </metadata>
  <defs
     id="defs10" />
  <sodipodi:namedview
     pagecolor="#ffffff"
     bordercolor="#666666"
     borderopacity="1"
     objecttolerance="10"
     gridtolerance="10"
     guidetolerance="10"
     inkscape:pageopacity="0"
     inkscape:pageshadow="2"
     inkscape:window-width="1463"
     inkscape:window-height="896"
     id="namedview8"
     showgrid="false"
     inkscape:zoom="14.75"
     inkscape:cx="0.30508475"
     inkscape:cy="8"
     inkscape:window-x="0"
     inkscape:window-y="34"
     inkscape:window-maximized="0"
     inkscape:current-layer="svg6" />
  <g
     transform="translate(0,-292.76665)"
     id="g4"
     style="fill:#241f31;fill-opacity:1">
    <path
       style="fill:#241f31;fill-rule:evenodd;fill-opacity:1"
       d="m 0,292.76665 c 0.5150507,0.54249 0.2915498,0.88953 0.5741465,1.52847 0.26224946,0.59294 0.8331162,0.14912 1.2239394,0.56833 -0.3908214,0.4192 -0.96363244,-0.0266 -1.2258801,0.56638 -0.2825951,0.63895 -0.057157,0.98792 -0.5722058,1.53041 0.5424884,-0.51505 0.89146426,-0.28961 1.5304089,-0.5722 0.5929412,-0.26225 0.149121,-0.83312 0.5683291,-1.22394 0.4162217,0.39087 -0.025832,0.96395 0.5663868,1.22588 0.6390851,0.28266 0.985861,0.0551 1.5284679,0.57026 -0.5151625,-0.5426 -0.2876089,-0.88938 -0.5702665,-1.52846 -0.2619293,-0.59222 -0.833072,-0.15211 -1.2239393,-0.56833 0.3908673,-0.41623 0.96201,0.0239 1.2239393,-0.56833 0.2826592,-0.63909 0.055102,-0.98586 0.5702665,-1.52847 -0.5426088,0.51516 -0.8893844,0.28761 -1.5284679,0.57027 -0.5922191,0.26193 -0.1501651,0.83501 -0.5663868,1.22588 C 1.6795315,294.17197 2.12335,293.60111 1.5304089,293.33886 0.89146426,293.05626 0.5424884,293.28166 0,292.76665 Z"
       id="path2" />
  </g>
</svg>
