<svg xmlns="http://www.w3.org/2000/svg" width="16" height="16" version="1.1">
 <path d="m 7.853658,-4.7e-7 c -2.882602,0 -5.203251,2.32064907 -5.203251,5.20325177 V 7.8048771 H 2 V 11.504063 L 2.264227,11.158536 C 2.642328,10.650762 3.650121,9.925495 4.439025,9.6138205 4.854655,9.4495926 5.852616,9.2693971 6.979675,9.1463391 8.677787,8.955511 11.886099,9.1056913 13.056911,7.8048771 V 5.2032513 C 13.056911,2.3206486 10.736261,-4.7e-7 7.853658,-4.7e-7 Z m 0.42683,0.6300808 c 0.246613,0.014377 0.488324,0.043106 0.731707,0.1016312 C 9.8865823,0.9418567 9.9853033,1.1442645 9.134151,0.9756148 7.79497,0.71018413 6.016256,1.3063465 4.926835,2.3983793 4.601079,2.7249479 4.190103,3.2656621 4.012201,3.5975646 3.645654,4.2814674 3.703321,3.8409796 4.093501,3.0081351 4.806869,1.4854357 6.554203,0.52935413 8.280492,0.63008033 Z M 7.853658,2.6016242 c 1.441302,0 2.601627,1.1603251 2.601627,2.6016271 V 7.8048771 H 5.252033 V 5.2032513 c 0,-1.441302 1.160325,-2.6016271 2.601625,-2.6016271 z m 5.85366,6.3455301 -0.691056,0.5691056 c -0.375611,0.3196081 -0.963417,0.7570081 -1.32114,0.9756091 -0.732118,0.447414 -2.467867,1.077235 -2.987805,1.077235 -0.195568,0 -0.310216,0.04736 -0.264226,0.121958 0.08667,0.140487 1.125876,0.07729 2.215447,-0.142276 0.357724,-0.07201 1.187802,-0.396618 1.849592,-0.731708 l 1.199188,-0.609756 V 9.577241 Z m 0,1.4024397 -0.365855,0.508129 c -1.213473,1.67265 -3.189442,2.59948 -5.934958,2.764228 -1.833813,0.109978 -1.162406,0.318699 1.036586,0.325202 1.4896093,0.0021 1.825372,-0.04321 2.723575,-0.345527 0.561933,-0.189074 1.028554,-0.333497 1.056911,-0.304878 0.102322,0.10251 -0.997046,1.012194 -1.605692,1.321137 C 9.451707,15.20982 8.6576,15.375934 6.552846,15.471543 5.057689,15.539443 4.443857,15.616746 4.154473,15.776423 3.785989,15.979348 4.029472,15.993495 8.727643,16 h 4.979675 z" style="fill:#808080"/>
</svg>
