<svg xmlns="http://www.w3.org/2000/svg" fill="none" width="16" height="16" viewBox="0 0 16 16">
 <path fill="#808080" fill-rule="evenodd" d="M5.85366 1H10.1463V14.6585H5.85366V1ZM4.68293 6.46341V9.19512H0V6.46341H4.68293ZM16 9.19512V6.46341H11.3171V9.19512H16ZM0 3.34146C0 2.04831 1.04831 1 2.34146 1H4.68293V5.29268H0V3.34146ZM13.6585 1H11.3171V5.29268H16V3.34146C16 2.04831 14.9517 1 13.6585 1ZM0 12.3171C0 13.6102 1.04831 14.6585 2.34146 14.6585H4.68293V10.3659H0V12.3171ZM13.6585 14.6585H11.3171V10.3659H16V12.3171C16 13.6102 14.9517 14.6585 13.6585 14.6585Z" clip-rule="evenodd"/>
</svg>
