<?xml version="1.0" encoding="UTF-8" standalone="no"?>
<svg
   xmlns:dc="http://purl.org/dc/elements/1.1/"
   xmlns:cc="http://creativecommons.org/ns#"
   xmlns:rdf="http://www.w3.org/1999/02/22-rdf-syntax-ns#"
   xmlns:svg="http://www.w3.org/2000/svg"
   xmlns="http://www.w3.org/2000/svg"
   xmlns:sodipodi="http://sodipodi.sourceforge.net/DTD/sodipodi-0.dtd"
   xmlns:inkscape="http://www.inkscape.org/namespaces/inkscape"
   width="16"
   height="16"
   version="1.1"
   viewBox="0 0 4.23 4.23"
   id="svg6"
   sodipodi:docname="gitkraken-symbolic.svg"
   inkscape:version="0.92.3 (2405546, 2018-03-11)">
  <metadata
     id="metadata12">
    <rdf:RDF>
      <cc:Work
         rdf:about="">
        <dc:format>image/svg+xml</dc:format>
        <dc:type
           rdf:resource="http://purl.org/dc/dcmitype/StillImage" />
      </cc:Work>
    </rdf:RDF>
  </metadata>
  <defs
     id="defs10" />
  <sodipodi:namedview
     pagecolor="#ffffff"
     bordercolor="#666666"
     borderopacity="1"
     objecttolerance="10"
     gridtolerance="10"
     guidetolerance="10"
     inkscape:pageopacity="0"
     inkscape:pageshadow="2"
     inkscape:window-width="1481"
     inkscape:window-height="811"
     id="namedview8"
     showgrid="false"
     inkscape:zoom="14.75"
     inkscape:cx="8"
     inkscape:cy="8"
     inkscape:window-x="0"
     inkscape:window-y="34"
     inkscape:window-maximized="0"
     inkscape:current-layer="svg6" />
  <g
     transform="translate(0,-292.76665)"
     id="g4"
     style="fill:#241f31;fill-opacity:1">
    <path
       style="fill:#241f31;fill-opacity:1"
       d="m 4.0000231,294.05828 c -0.01634,-0.0425 -0.06539,-0.0621 -0.104614,-0.0458 -0.02942,0.0131 -0.04904,0.0425 -0.04904,0.0719 0,0.01 0,0.0196 0.0065,0.0261 0.07519,0.19943 0.117682,0.41518 0.117682,0.64402 0,0.92518 -0.689787,1.69343 -1.58553,1.80784 v -0.85325 c 0.05556,-0.01 0.107869,-0.0261 0.160176,-0.0425 v 0.71593 c 0.729025,-0.17653 1.274961,-0.8369 1.274961,-1.62804 0,-0.63094 -0.349793,-1.18343 -0.866304,-1.46785 -0.03922,-0.0229 -0.08827,-0.007 -0.107901,0.036 -0.0065,0.01 -0.0065,0.0229 -0.0065,0.036 0,0.0294 0.01634,0.0556 0.03922,0.0686 0.467491,0.25826 0.784603,0.75845 0.784603,1.33054 0,0.64402 -0.398843,1.19324 -0.964406,1.41554 v -0.63421 c 0.09809,-0.0294 0.170005,-0.12095 0.170005,-0.23211 0,-0.0915 -0.04576,-0.16673 -0.120954,-0.20923 0.05556,-0.54922 0.307299,-0.4021 0.307299,-0.57863 v -0.10136 c 0,-0.26153 -0.6048,-1.11478 -0.889216,-1.13439 h -0.05231 c -0.284417,0.0196 -0.889202,0.87286 -0.889202,1.13439 v 0.10135 c 0,0.17326 0.24845,0.0294 0.307299,0.57863 -0.07193,0.0425 -0.117698,0.12095 -0.117698,0.20923 0,0.10788 0.07193,0.19941 0.170005,0.23211 v 0.63422 C 1.0218071,295.951 0.619692,295.40178 0.619692,294.75775 c 0,-0.57208 0.31711202,-1.07227 0.7846031,-1.33053 0.03597,-0.0196 0.05231,-0.0654 0.03268,-0.10462 -0.0098,-0.0294 -0.03922,-0.0457 -0.06865,-0.0457 -0.01307,0 -0.02615,0.003 -0.03922,0.01 -0.5165271,0.28442 -0.8663501,0.83691 -0.8663501,1.46785 0,0.79114 0.5459511,1.45151 1.2815031,1.63131 v -0.71594 c 0.05231,0.0163 0.104613,0.0327 0.160191,0.0425 v 0.85325 c -0.895728,-0.11768 -1.5855151,-0.88267 -1.5855151,-1.81111 0,-0.22557 0.04249,-0.44132 0.117683,-0.64402 0.01636,-0.0392 -0.0033,-0.085 -0.04249,-0.10135 -0.0098,-0.003 -0.01961,-0.007 -0.02942,-0.007 -0.0327,0 -0.06212,0.0196 -0.07519,0.0523 -0.085,0.21903 -0.130767,0.45441 -0.130767,0.69959 0,1.06902 0.8434371,1.93861 1.9026441,1.98112 v -1.00363 c 0.02942,0.003 0.08173,0.003 0.08173,0.003 0,0 0.05231,0 0.08173,-0.003 v 1.00363 c 1.059207,-0.0425 1.902644,-0.9121 1.902644,-1.98112 -0.0033,-0.24518 -0.04576,-0.48056 -0.127496,-0.69633 z m -1.490731,1.13114 c 0.02942,-0.0294 0.06865,-0.0491 0.114412,-0.0491 0.04578,0 0.085,0.0196 0.114412,0.0491 0.02944,0.0294 0.04905,0.0686 0.04905,0.11441 0,0.0458 -0.01961,0.085 -0.04904,0.11441 -0.02942,0.0294 -0.06865,0.049 -0.114412,0.049 -0.04578,0 -0.085,-0.0196 -0.114427,-0.049 -0.02942,-0.0294 -0.04903,-0.0687 -0.04903,-0.11441 0,-0.0458 0.01961,-0.085 0.04903,-0.11443 z m -0.732296,0.22882 c -0.02942,0.0294 -0.06865,0.049 -0.114412,0.049 -0.04578,0 -0.085,-0.0196 -0.114411,-0.049 -0.03271,-0.0294 -0.04905,-0.0687 -0.04905,-0.11441 0,-0.0458 0.01961,-0.085 0.04904,-0.11443 0.02942,-0.0294 0.06865,-0.0491 0.114412,-0.0491 0.04578,0 0.085,0.0196 0.114427,0.0491 0.02942,0.0294 0.04904,0.0686 0.04904,0.11441 -0.0033,0.0458 -0.01961,0.085 -0.04904,0.11441 z"
       id="path2" />
  </g>
</svg>
