<svg xmlns="http://www.w3.org/2000/svg" width="16" height="16" version="1.1">
 <g id="layer1">
  <g transform="translate(-302.99597,-213.992)">
   <path fill="#241f31" d="m 304.99657,213.992 c -1.0907,0 -2,0.9093 -2,2 l 0,11 c 0,1.0907 0.9093,2 2,2 l 2,0 0,-1.5625 0.4375,-0.4375 -2.4375,0 0,-3 3,0 0,2.4375 1,-1 0,-1.4375 1.4375,0 1,-1 -2.4375,0 0,-3 3,0 0,2.4375 1,-0.96875 0,-1.46875 1.46875,0 1,-1 -2.46875,0 0,-3 3,0 0,2.46875 1.875,-1.875 0.125,0.125 0,-0.71875 c 0,-1.0907 -0.9093,-2 -2,-2 z m 0,2 3,0 0,3 -3,0 z m 4,0 3,0 0,3 -3,0 z m 8.875,2 -1.59375,1.59375 c 0,0 0.883,0.20582 1.30269,0.69332 0.41969,0.48749 0.82231,1.43168 0.82231,1.43168 l 0.625,-0.625 0,-1.9375 z m -12.875,2 3,0 0,3 -3,0 z m 10.59375,0.28125 -7.59375,7.65625 0,2.0625 2.08594,0.008 7.63281,-7.60156 c 0,0 -0.17181,-0.82267 -0.71512,-1.39844 -0.54331,-0.57577 -1.40988,-0.72675 -1.40988,-0.72675 z m 2.40625,3.25 -2,1.96875 0,1.5 -1.5,0 -2,2 3.5,0 c 1.0907,0 2,-0.9093 2,-2 z"/>
  </g>
 </g>
</svg>
