<svg width="16" height="16" version="1.1" xmlns="http://www.w3.org/2000/svg">
 <g transform="matrix(-.29355554 0 0 -.29355554 37.904973 79.793259)" style="fill:#4d4d4d">
  <path d="m100.58117 230.32809a12.977532 12.977532 0 0 1-25.955064 0 12.977532 12.977532 0 1 1 25.955064 0z" style="fill:#4d4d4d"/>
  <path d="m129.12368 258.84626a12.977532 12.977532 0 0 1-25.95506 0 12.977532 12.977532 0 1 1 25.95506 0z" style="fill:#4d4d4d"/>
  <path d="m129.12368 230.29714a12.977532 12.977532 0 0 1-25.95506 0 12.977532 12.977532 0 1 1 25.95506 0z" style="fill:#b1b1b1"/>
  <path d="m100.57458 258.84758a12.977531 12.977531 0 0 1-25.955059 0 12.977531 12.977531 0 1 1 25.955059 0z" style="fill:#b1b1b1"/>
 </g>
</svg>
