<svg width="16" height="16" version="1.1" xmlns="http://www.w3.org/2000/svg">
 <g transform="translate(-311.99997,-159.99994)">
  <path d="m317 164c-0.65761 0-1.17852 0.0599-1.61719 0.22461-0.43866 0.16467-0.79038 0.46152-0.99804 0.83789-0.41533 0.75275-0.37023 1.67345-0.38477 2.93164v4.0119c0.0146 1.25819-0.0306 2.17889 0.38477 2.93164 0.20765 0.37637 0.55938 0.67322 0.99804 0.83789 0.43866 0.16449 0.95958 0.22443 1.61719 0.22443h5c0.65761 0 1.17852-0.0599 1.61719-0.22461 0.43866-0.16466 0.78843-0.46152 0.99609-0.83789 0.41532-0.75275 0.37218-1.67344 0.38672-2.93164v-4.0119c-0.0145-1.2582 0.0306-2.17889-0.38477-2.93164-0.20766-0.37637-0.55938-0.67323-0.99804-0.83789-0.43867-0.16449-0.95958-0.22443-1.61719-0.22443zm0 1h5c0.59239 0 1.00571 0.0626 1.26562 0.16016 0.25992 0.0976 0.37146 0.20331 0.47266 0.38672 0.20192 0.36595 0.24703 1.1946 0.26172 2.45312v3.99414c-0.0146 1.26354-0.0593 2.09217-0.26172 2.45898-0.10119 0.18341-0.21275 0.28916-0.47266 0.38672-0.2599 0.09757-0.67323 0.16016-1.26562 0.16016h-5c-0.59239 0-1.00572-0.0626-1.26562-0.16016-0.25991-0.0976-0.37147-0.20331-0.47266-0.38672-0.20191-0.36595-0.24698-1.19459-0.26172-2.45312v-4c0.0147-1.25852 0.0598-2.08717 0.26172-2.45312 0.10119-0.18341 0.21275-0.28916 0.47266-0.38672 0.2599-0.09757 0.67323-0.16016 1.26562-0.16016z" style="fill:#4d4d4d"/>
  <path d="m316 160v3h1v-2h5v2h1v-3zm2 2v1h1v-1zm2 0v1h1v-1z" style="fill-rule:evenodd;fill:#4d4d4d"/>
 </g>
</svg>
