<svg xmlns="http://www.w3.org/2000/svg" style="enable-background:new" width="16" height="16" version="1.1">
 <g transform="translate(-112,-180)">
  <path d="m 123.28105,180.00525 c -0.27821,0.0752 -0.37465,0.49932 -0.15625,0.68727 l 3.1875,3.18646 c 0.21982,0.23021 0.69212,0.0371 0.6875,-0.28116 l 0,-3.21769 c -0.0122,-0.20318 -0.20269,-0.37897 -0.40625,-0.37488 l -3.1875,0 c -0.0413,-0.007 -0.0837,-0.007 -0.125,0 z" style="fill:#808080"/>
  <path d="m 113.84375,180.00525 c -0.4813,0.0874 -0.85238,0.53322 -0.84375,0.99967 v 13.99541 c 6e-5,0.52341 0.51276,0.99962 1.0625,0.99967 h 11.875 c 0.54975,-5e-5 1.06245,-0.47626 1.0625,-0.99967 V 187.5 c 0.006,-0.26397 -0.1196,-0.61972 -0.31245,-0.80945 l -6.40625,-6.40414 c -0.19927,-0.18364 -0.47275,-0.28728 -0.75,-0.28116 h -5.46875 c -0.0654,-0.006 -0.15331,-0.006 -0.21875,0 z M 114.25,181.25 h 5.25 l 6.25,6.25 v 7.25 h -11.5 z" style="fill:#808080"/>
  <g transform="translate(0.50011965,0.74269933)">
   <path style="fill:#808080" d="m 116.5,186.5 v 5 a 3,0.97898524 0 0 0 0,0.0215 3,0.97898524 0 0 0 3,0.97852 3,0.97898524 0 0 0 3,-0.97852 3,0.97898524 0 0 0 -0.004,-0.0215 h 0.004 v -5 h -1 v 4.7207 a 3,0.97898524 0 0 1 -2.0625,0.27149 3,0.97898524 0 0 1 -1.9375,-0.23438 V 186.5 Z"/>
   <path style="fill:#808080" d="m 116.5,191.5 v -5 a 3,0.97898524 0 0 1 0,-0.0215 3,0.97898524 0 0 1 3,-0.97852 3,0.97898524 0 0 1 3,0.97852 3,0.97898524 0 0 1 -0.004,0.0215 h 0.004 v 5 h -1 v -4.7207 a 3,0.97898524 0 0 0 -2.0625,-0.27149 3,0.97898524 0 0 0 -1.9375,0.23438 V 191.5 Z"/>
   <path style="fill:#808080" d="m 116.5,189.5 v -1.0999 c -2.4e-4,-0.007 -2.4e-4,-0.0643 0,-0.0715 7.9e-4,-0.5405 1.3437,-0.82862 3,-0.82862 1.6563,0 2.99921,0.33812 3,0.87862 -0.001,0.007 -0.002,0.0143 -0.004,0.0215 l 0.004,-0.05 V 189.5 h -1 v -0.82045 c -0.5,-0.1294 -1.2313,-0.17862 -2,-0.17955 -0.71051,7.9e-4 -1.5,0.0502 -2,0.14245 V 189.5 Z"/>
   <path style="fill:#808080" d="m 116.5,188.49998 v 1.0999 c -2.4e-4,0.007 -2.4e-4,0.0643 0,0.0715 7.9e-4,0.5405 1.3437,0.82862 3,0.82862 1.6563,0 2.99921,-0.33812 3,-0.87862 -0.001,-0.007 -0.002,-0.0143 -0.004,-0.0215 l 0.004,0.05 v -1.1499 h -1 v 0.82045 c -0.5,0.1294 -1.2313,0.17862 -2,0.17955 -0.71051,-7.9e-4 -1.5,-0.0502 -2,-0.14245 v -0.85755 z"/>
  </g>
 </g>
</svg>
