<svg xmlns="http://www.w3.org/2000/svg" width="16" height="16.164" version="1.1">
 <g transform="translate(-492.00004,-259.83594)">
  <path d="m 497.24223,259.83594 c -1.2582,0.0145 -2.1789,-0.0286 -2.93164,0.38672 -0.37638,0.20766 -0.67323,0.55742 -0.83789,0.99609 -0.16467,0.43867 -0.22461,0.95958 -0.22461,1.61719 v 10 c 0,0.65761 0.0599,1.17858 0.22461,1.61718 0.16468,0.43861 0.46153,0.79048 0.83789,0.99805 0.75272,0.41514 1.67354,0.3697 2.93164,0.38477 h 0.002 5.00586 0.004 c 1.25819,-0.0145 2.17889,0.0306 2.93164,-0.38477 0.37637,-0.20766 0.67322,-0.55938 0.83789,-0.99805 0.16466,-0.43866 0.22461,-0.95957 0.22461,-1.61718 v -10 c 0,-0.65761 -0.0599,-1.17663 -0.22461,-1.61524 -0.16469,-0.43861 -0.46153,-0.79048 -0.83789,-0.99804 -0.75273,-0.41514 -1.67355,-0.37166 -2.93164,-0.38672 h -0.004 -5.00586 z m 0.006,1 h 5 c 1.25861,0.0152 2.08714,0.0599 2.45312,0.26172 0.18342,0.10115 0.28917,0.21285 0.38672,0.47265 0.0976,0.2598 0.16016,0.67324 0.16016,1.26563 v 10 c 0,0.59239 -0.0626,1.00571 -0.16016,1.26562 -0.0976,0.25991 -0.20331,0.37342 -0.38672,0.47461 -0.36595,0.20192 -1.1946,0.24506 -2.45312,0.25977 h -4.99414 -0.006 c -1.25863,-0.0152 -2.0891,-0.0599 -2.45508,-0.26172 -0.18342,-0.10116 -0.28722,-0.21286 -0.38477,-0.47266 -0.0975,-0.2598 -0.16015,-0.67323 -0.16015,-1.26562 v -10 c 0,-0.59239 0.0626,-1.00572 0.16015,-1.26563 0.0976,-0.25991 0.20136,-0.37146 0.38477,-0.47265 0.36595,-0.20192 1.19655,-0.24702 2.45508,-0.26172 z M 496.50004,263 c -0.277,0 -0.5,0.223 -0.5,0.5 0,0.277 0.223,0.5 0.5,0.5 h 2.5 v 1 h -2.5 c -0.277,0 -0.5,0.223 -0.5,0.5 v 4 c 0,0.277 0.223,0.5 0.5,0.5 h 1.625 l -1.36133,2 c -0.34,0.5 0.0179,1 0.29492,1 0.44186,0 0.7526,-0.26952 0.90625,-0.5 l 1.03516,-1.55273 V 272.5 c 0,0.277 0.223,0.5 0.5,0.5 0.277,0 0.5,-0.223 0.5,-0.5 v -1.55273 L 501.0352,272.5 c 0.15365,0.23048 0.46439,0.5 0.90625,0.5 0.277,0 0.63492,-0.5 0.29492,-1 l -1.36133,-2 h 1.625 c 0.277,0 0.5,-0.223 0.5,-0.5 v -4 c 0,-0.277 -0.223,-0.5 -0.5,-0.5 h -2.5 v -1 h 2.5 c 0.277,0 0.5,-0.223 0.5,-0.5 0,-0.277 -0.223,-0.5 -0.5,-0.5 h -3 z m 0.75,3 h 1.75 v 1 h -1.75 c -0.1385,0 -0.25,-0.1115 -0.25,-0.25 v -0.5 c 0,-0.1385 0.1115,-0.25 0.25,-0.25 z m 2.75,0 h 1.75 c 0.1385,0 0.25,0.1115 0.25,0.25 v 0.5 c 0,0.1385 -0.1115,0.25 -0.25,0.25 h -1.75 z m -2.75,2 h 1.75 v 1 h -1.75 c -0.1385,0 -0.25,-0.1115 -0.25,-0.25 v -0.5 c 0,-0.1385 0.1115,-0.25 0.25,-0.25 z m 2.75,0 h 1.75 c 0.1385,0 0.25,0.1115 0.25,0.25 v 0.5 c 0,0.1385 -0.1115,0.25 -0.25,0.25 h -1.75 z" style="fill:#808080"/>
 </g>
</svg>
