<svg xmlns="http://www.w3.org/2000/svg" xmlns:osb="http://www.openswatchbook.org/uri/2009/osb" width="16.042" height="16" version="1.1">
 <title id="title9167">
  Gnome Symbolic Icon Theme
 </title>
 <defs>
  <linearGradient id="linearGradient7212" osb:paint="solid">
   <stop id="stop7214" offset="0" style="stop-color:#000000"/>
  </linearGradient>
 </defs>
 <g id="layer9" transform="translate(-422.95857,125)">
  <path d="m 432.97097,-124.96875 c -2.19122,0 -3.98836,1.69816 -3.98836,3.78125 0,3.09857 3.1388,8.12532 3.98836,8.1875 0.84956,0.0622 3.9572,-5.15111 3.9572,-8.1875 0,-2.08309 -1.76597,-3.78125 -3.9572,-3.78125 z M 432.93986,-122 c 0.55067,0 0.99709,0.44772 0.99709,1 0,0.55228 -0.44642,1 -0.99709,1 -0.55067,0 -0.99709,-0.44772 -0.99709,-1 0,-0.55228 0.44642,-1 0.99709,-1 z" style="fill:#4d4d4d"/>
  <path d="m 437.7383,-114 a 0.99718873,1.0001 0 0 0 -0.34275,0.15625 l -4.26878,2.65625 -4.08184,-2.53125 a 0.99718873,1.0001 0 0 0 -1.02825,0 l -4.58037,2.8125 a 1.0073817,1.0103227 0 1 0 1.0594,1.71875 l 4.01952,-2.5 4.08183,2.53125 a 0.99718873,1.0001 0 0 0 1.05941,0 l 4.79849,-3 A 0.99718873,1.0001 0 0 0 437.7383,-114 z" style="fill:#4d4d4d"/>
 </g>
</svg>
