<svg xmlns="http://www.w3.org/2000/svg" width="16" height="16" version="1.1">
 <path fill="#808080" d="M 12.363636,1.4090907 C 14.001745,1.4090907 16,3.0932361 16,5.181818 c 0,0.8986182 -0.314432,2.0556727 -0.838068,2.7045454 -0.115346,0.2955637 0.0025,0.5398045 0.0057,0.6051136 0.01106,0.2226909 -0.473895,0.3179448 -1.775568,-0.102272 C 11.034809,7.4616407 9.4965818,6.1344725 8.7272727,4.3181816 L 7.272727,4.3295416 V 2.8636361 h 1.4545457 c 0,-1.0664727 1.9982543,-1.4545454 3.6363633,-1.4545454 z M 1.454545,2.8636361 c 0.803324,0 1.454546,0.6512223 1.454546,1.4545455 0,0.8033232 -0.651222,1.4545455 -1.454546,1.4545455 C 0.651222,5.7727271 0,5.1215048 0,4.3181816 0,3.5148584 0.651222,2.8636361 1.454545,2.8636361 Z m 4.363637,1.4545455 v 0.01136 c 5.7e-5,0.8077482 0.658185,1.4607746 1.465909,1.4545455 l 0.7613635,-0.00568 c 1.0487154,1.7188615 2.6211965,3.1025209 4.8153415,3.9659092 0.02808,0.0113 0.0565,0.02172 0.08523,0.03125 C 13.556539,9.97266 14.025248,10.07052 14.488636,10.105113 14.770031,11.619086 15.219687,13.482957 16,14.5 c 0,0 -3.880727,-0.01222 -5.818182,0 H 5.818182 c 0.368,-1.588364 3.0456721,-4.397818 0,-4.363637 L 5.835227,9.4090907 C 4.973624,8.5445661 3.893933,7.6949218 2.974432,6.7926135 3.835667,6.2649031 4.361537,5.3282312 4.363636,4.3181816 c 0.177435,3.884e-4 0.249329,-0.00205 0.426137,0 0.750569,0.00876 0.636198,0.00126 1.028409,0 z M 10.181818,8.681818 C 8.1346908,8.727742 7.272727,10.136363 7.272727,10.136363 h 2.909091 z"/>
</svg>
