<?xml version="1.0" encoding="UTF-8"?>
<!-- Created with Inkscape (http://www.inkscape.org/) -->
<svg id="svg7384" width="16" height="16" version="1.1" viewBox="0 0 16 16" xmlns="http://www.w3.org/2000/svg" xmlns:cc="http://creativecommons.org/ns#" xmlns:dc="http://purl.org/dc/elements/1.1/" xmlns:osb="http://www.openswatchbook.org/uri/2009/osb" xmlns:rdf="http://www.w3.org/1999/02/22-rdf-syntax-ns#">
 <metadata id="metadata90">
  <rdf:RDF>
   <cc:Work rdf:about="">
    <dc:format>image/svg+xml</dc:format>
    <dc:type rdf:resource="http://purl.org/dc/dcmitype/StillImage"/>
    <dc:title>Gnome Symbolic Icon Theme</dc:title>
   </cc:Work>
  </rdf:RDF>
 </metadata>
 <title id="title9167">Gnome Symbolic Icon Theme</title>
 <g id="layer11" transform="translate(-83 -669)">
  <path id="path14137" d="m83 674h2.4844l2.9688-2.9998h0.54687v11.999l-0.4753 8.3e-4 -3.0403-3.0006h-2.4844z" style="color:#bebebe;fill:#bebebe"/>
  <path id="path14143" d="m97 677c0-2.1666-0.73878-4.0198-2-5h-1v2c0.60652 0.78878 1 1.7589 1 3s-0.39348 2.2194-1 3v2h1c1.2229-0.99478 2-2.8734 2-5z" style="color:#000000;fill:#bebebe"/>
  <path id="path14145" d="m94 677c0-1.2573-0.31165-2.2157-1-3h-1v6h1c0.67206-0.8369 1-1.7427 1-3z" style="color:#000000;fill:#bebebe;text-decoration-line:none;text-indent:0;text-transform:none"/>
 </g>
</svg>
