<svg xmlns="http://www.w3.org/2000/svg" width="16" height="16" version="1.1">
 <path style="fill:#808080" d="m 6.939062,-1.2e-7 c -0.446302,0 -0.805729,0.425577 -0.805729,0.95416696 V 2.2458328 c 0,0.04893 0.006,0.0958 0.01198,0.142709 C 4.881738,2.8021319 4.00471,3.7000979 4.000521,4.7999999 H 4 v 0.0078 0.52552 0.76198 9.1427081 C 4,15.660116 4.333222,16 4.746875,16 h 5.972917 c 0.413653,0 0.746875,-0.339884 0.746875,-0.761979 v -9.1427081 -0.76198 -0.52552 -0.00781 h -5.21e-4 c -0.0042,-1.099902 -0.881217,-1.997868 -2.144792,-2.4114581 0.0059,-0.04691 0.01198,-0.09378 0.01198,-0.142709 V 0.95416984 C 9.333333,0.42557988 8.973907,2.88e-6 8.527604,2.88e-6 Z M 7.733333,7.4666669 a 0.8,1.2 0 0 1 0.8,1.2 0.8,1.2 0 0 1 -0.0036,0.104687 l 1.21823,-1.24375 0.282812,0.277083 -1.765625,1.802084 h 1.601563 v 0.393229 H 8.56875 a 1.0666667,1.4 0 0 1 0.218229,0.6588541 l 1.24375,1.269271 -0.282812,0.277083 -0.98073,-1.000521 a 1.0666667,1.4 0 0 1 -1.033854,1.06198 1.0666667,1.4 0 0 1 -1.033854,-1.06198 L 5.71875,12.205208 5.435938,11.928125 6.679687,10.658854 A 1.0666667,1.4 0 0 1 6.896875,9.9999999 H 5.6 V 9.6067709 H 7.201562 L 5.435938,7.8052079 5.71875,7.5281249 6.936979,8.7713539 a 0.8,1.2 0 0 1 -0.0036,-0.104687 0.8,1.2 0 0 1 0.8,-1.2 z"/>
</svg>
