<svg xmlns="http://www.w3.org/2000/svg" width="16" height="16" version="1.1">
 <g transform="translate(-491.99997,-199.99994)">
  <path d="m 495.99414,203 c -1.2582,0.0145 -2.17889,-0.0306 -2.93164,0.38477 -0.37637,0.20766 -0.67323,0.55938 -0.83789,0.99804 C 492.05994,204.82148 492,205.34239 492,206 v 5 c 0,0.65761 0.0599,1.17853 0.22461,1.61719 0.16467,0.43866 0.46152,0.79039 0.83789,0.99804 0.75275,0.41532 1.67345,0.3702 2.93164,0.38477 h 0.004 7.0039 0.004 c 1.25819,-0.0145 2.17889,0.0306 2.93164,-0.38477 0.37637,-0.20766 0.67322,-0.55938 0.83789,-0.99804 C 506.94006,212.17852 507,211.65761 507,211 v -5 c 0,-0.65761 -0.0599,-1.17852 -0.22461,-1.61719 -0.16466,-0.43866 -0.46152,-0.79038 -0.83789,-0.99804 -0.75275,-0.41534 -1.67344,-0.37025 -2.93164,-0.38477 h -0.004 -7.0039 z m 0.006,1 h 7 c 1.25852,0.0147 2.08717,0.0598 2.45312,0.26172 0.18341,0.1012 0.28916,0.21274 0.38672,0.47266 C 505.93741,204.99429 506,205.40761 506,206 v 5 c 0,0.59239 -0.0626,1.00572 -0.16016,1.26562 -0.0976,0.25991 -0.20331,0.37147 -0.38672,0.47266 C 505.08717,212.94019 504.25852,212.98529 503,213 H 496.00586 496 c -1.25853,-0.0147 -2.08717,-0.0598 -2.45312,-0.26172 -0.18341,-0.10119 -0.28916,-0.21275 -0.38672,-0.47266 C 493.06259,212.00572 493,211.59239 493,211 v -5 c 0,-0.59239 0.0626,-1.00572 0.16016,-1.26562 0.0976,-0.25991 0.20331,-0.37147 0.38672,-0.47266 C 493.91283,204.05981 494.74147,204.01471 496,204 Z" style="fill:#808080"/>
  <path d="m 495,206 v 1.00001 h 1.00001 V 206 Z m 2.00001,0 v 1.00001 h 1.00001 V 206 Z m 2.00002,0 v 1.00001 h 1 V 206 Z m 2.00001,0 v 1.00001 h 1.00001 V 206 Z m 2.00001,0 v 1.00001 h 1.00001 V 206 Z m -7.002,2.00001 0.004,1.00001 h 0.99796 v -1.00001 z m 2.00197,0 v 1.00001 h 1.00001 v -1.00001 z m 2.00001,0 v 1.00001 h 1.00001 v -1.00001 z m 2.00002,0 v 1.00001 h 1 v -1.00001 z M 495,210.00003 v 1 h 1.00001 v -1 z m 2.00001,0 v 1 h 5.00004 v -1 z m 6.00004,0 0.0117,1 h 0.99415 l -0.0117,-1 z" style="fill:#808080;fill-rule:evenodd"/>
 </g>
</svg>
