<svg xmlns="http://www.w3.org/2000/svg" width="16" height="16" version="1.1" viewBox="0 0 4.23 4.23">
 <g transform="translate(0,-292.76666)">
  <g transform="matrix(0.00705556,0,0,0.00705556,-0.40175256,293.47446)" style="fill:#808080">
   <path style="fill:#808080" d="m 349.58008,-12.728516 c -19.78034,0.499891 -39.51808,2.890348 -58.82031,7.2539096 4.10872,18.8723954 8.21745,37.7447914 12.32617,56.6171874 33.74925,-7.665785 69.12626,-7.971229 103.02539,-1.0293 3.71633,-18.821141 8.65912,-38.435398 11.61328,-56.7636714 -22.39128,-4.5980686 -45.29405,-6.6135646 -68.14453,-6.0781256 z m 105.80078,78.716797 c 31.47813,14.008295 59.87299,34.867319 82.70703,60.664059 14.44727,-12.81901 28.89453,-25.63802 43.3418,-38.457028 C 553.05494,56.141376 517.74279,30.253699 478.60547,12.900391 470.86393,30.596354 463.1224,48.292318 455.38086,65.988281 Z M 227.18164,16.626953 C 189.51961,34.723972 155.71119,60.77538 128.625,92.591797 c 14.7487,12.470703 29.49739,24.941413 44.24609,37.412113 22.37137,-26.20404 50.37565,-47.593699 81.60157,-62.169926 -8.17123,-17.501302 -16.34245,-35.002604 -24.51368,-52.503906 -0.92578,0.432292 -1.85156,0.864583 -2.77734,1.296875 z M 568.0293,168.66016 c 16.99699,30.09909 27.33124,63.91871 30.12695,98.36914 19.23893,-1.70833 38.47787,-3.41667 57.7168,-5.125 -3.5014,-42.55686 -16.29754,-84.32012 -37.26568,-121.51953 -16.85936,9.42513 -33.71871,18.85026 -50.57807,28.27539 z M 89.939453,150.27539 c -18.701268,36.38678 -29.811885,76.6502 -32.357428,117.48438 19.276042,1.22135 38.552083,2.44271 57.828125,3.66406 2.15345,-34.4883 11.88032,-68.47463 28.29492,-98.88281 -17.08268,-9.01302 -34.16536,-18.02605 -51.248045,-27.03907 -0.839191,1.59115 -1.678381,3.18229 -2.517572,4.77344 z"/>
   <circle style="fill:#808080;stroke:#bebebe;stroke-width:75.08624268;stroke-miterlimit:5.19999981" cx="381.429" cy="433.791" r="0" transform="matrix(0.50880116,0,0,0.55776489,164.13818,45.848517)"/>
   <path style="fill:#808080" d="m 430,220 30,55 h -85 v 50 h 85 l -30,55 170,-80 z" transform="translate(56.941089,-12.819102)"/>
   <path style="fill:#808080" d="M 170,220 0,300 170,380 140,325 h 85 v -50 h -85 z" transform="translate(56.941089,-12.819102)"/>
   <path style="fill:#808080" d="m 356.94141,187.18164 c -55.02475,0 -100.00001,44.97526 -100,100 -1e-5,55.02475 44.97525,100 100,100 55.02475,0 100,-44.97525 100,-100 0,-55.02475 -44.97525,-100 -100,-100 z m 0,34.39844 c 36.43357,0 65.59961,29.168 65.59961,65.60156 0,36.43356 -29.16604,65.59961 -65.59961,65.59961 -36.43357,0 -65.59961,-29.16605 -65.59961,-65.59961 0,-36.43356 29.16604,-65.60156 65.59961,-65.60156 z"/>
  </g>
 </g>
</svg>
