<svg xmlns="http://www.w3.org/2000/svg" width="16" height="16" version="1.1">
 <g transform="translate(-512,-240)">
  <rect style="fill:none" width="16" height="16" x="239.5" y="-511.5" transform="rotate(90)"/>
  <path style="fill:#808080" d="m 520,242.5 v 1 8 a 4.5000005,4.5000005 0 0 1 4.5,-4.5 4.5000005,4.5000005 0 0 1 3.5,1.67773 V 243.5 c 0,-0.554 -0.446,-1 -1,-1 z"/>
  <path style="opacity:0.35;fill:#808080" d="m 513,242.5 c -0.554,0 -1,0.446 -1,1 v 8 c 0,0.554 0.446,1 1,1 h 4 2 1 v -1 -8 -1 h -1 -2 z"/>
  <path style="fill:#808080" d="m 524.5,248 c -1.92115,0 -3.5,1.57885 -3.5,3.5 0,1.92115 1.57885,3.5 3.5,3.5 1.92115,0 3.5,-1.57885 3.5,-3.5 0,-1.92115 -1.57885,-3.5 -3.5,-3.5 z m 0,2 c 0.84027,0 1.5,0.65973 1.5,1.5 0,0.84027 -0.65973,1.5 -1.5,1.5 -0.84027,0 -1.5,-0.65973 -1.5,-1.5 0,-0.84027 0.65973,-1.5 1.5,-1.5 z"/>
 </g>
</svg>
