<?xml version="1.0" encoding="UTF-8" standalone="no"?>
<!-- Created with Inkscape (http://www.inkscape.org/) -->

<svg
   xmlns:dc="http://purl.org/dc/elements/1.1/"
   xmlns:cc="http://creativecommons.org/ns#"
   xmlns:rdf="http://www.w3.org/1999/02/22-rdf-syntax-ns#"
   xmlns:svg="http://www.w3.org/2000/svg"
   xmlns="http://www.w3.org/2000/svg"
   xmlns:sodipodi="http://sodipodi.sourceforge.net/DTD/sodipodi-0.dtd"
   xmlns:inkscape="http://www.inkscape.org/namespaces/inkscape"
   width="16"
   height="16"
   viewBox="0 0 16 16.000001"
   version="1.1"
   id="svg2008"
   inkscape:version="0.92.3 (2405546, 2018-03-11)"
   sodipodi:docname="org.gnome.dfeet-symbolic.svg">
  <defs
     id="defs2002" />
  <sodipodi:namedview
     id="base"
     pagecolor="#ffffff"
     bordercolor="#666666"
     borderopacity="1.0"
     inkscape:pageopacity="0.0"
     inkscape:pageshadow="2"
     inkscape:zoom="52.1875"
     inkscape:cx="5.4581657"
     inkscape:cy="5.7005988"
     inkscape:document-units="px"
     inkscape:current-layer="layer1"
     showgrid="true"
     units="px"
     borderlayer="true"
     inkscape:showpageshadow="false"
     inkscape:window-width="1920"
     inkscape:window-height="1009"
     inkscape:window-x="0"
     inkscape:window-y="34"
     inkscape:window-maximized="1">
    <inkscape:grid
       type="xygrid"
       id="grid2553" />
  </sodipodi:namedview>
  <metadata
     id="metadata2005">
    <rdf:RDF>
      <cc:Work
         rdf:about="">
        <dc:format>image/svg+xml</dc:format>
        <dc:type
           rdf:resource="http://purl.org/dc/dcmitype/StillImage" />
        <dc:title></dc:title>
      </cc:Work>
    </rdf:RDF>
  </metadata>
  <g
     inkscape:label="Layer 1"
     inkscape:groupmode="layer"
     id="layer1"
     transform="translate(0,-1106.5197)">
    <path
       style="display:inline;opacity:1;vector-effect:none;fill:#808080;fill-opacity:1;stroke:none;stroke-width:4;stroke-linecap:round;stroke-linejoin:round;stroke-miterlimit:4;stroke-dasharray:none;stroke-dashoffset:0;stroke-opacity:1;marker:none;marker-start:none;marker-mid:none;marker-end:none;paint-order:normal;enable-background:new"
       d="M 8.5 0 C 4.3637867 0 1 3.3638 1 7.5 C 1 9.3140667 1.6471905 10.979047 2.7226562 12.277344 L 0 15 L 0 16 L 1 16 L 3.7226562 13.277344 C 5.0209521 14.352811 6.6859275 15 8.5 15 C 12.636213 15 16 11.6362 16 7.5 C 16 3.3638 12.636213 0 8.5 0 z M 8.5 1 C 12.095773 1 15 3.9043 15 7.5 C 15 11.0958 12.095773 14 8.5 14 C 4.9042268 14 2 11.0958 2 7.5 C 2 3.9043 4.9042268 1 8.5 1 z M 10 3 C 8.892 3 8 3.892 8 5 L 8 8 L 12 8 L 12 5 C 12 3.892 11.108 3 10 3 z M 3.9960938 6 C 3.8392037 6.474 3.7324219 6.9717 3.7324219 7.5 C 3.7324219 8.8927 4.3326037 10.1304 5.2773438 11 L 6 11 L 6 8 C 6 6.892 5.108 6 4 6 L 3.9960938 6 z M 8 9 L 8 10 C 8 11.108 8.892 12 10 12 C 11.108 12 12 11.108 12 10 L 12 9 L 8 9 z "
       transform="translate(0,1106.5197)"
       id="rect1969" />
  </g>
</svg>
