<svg xmlns="http://www.w3.org/2000/svg" width="16" height="16">
    <g fill="#2e3436">
        <path d="M7.467 0h1.066C9.124 0 9.6.476 9.6 1.067v1.066c0 .591-.476 1.067-1.067 1.067H7.467C6.876 3.2 6.4 2.724 6.4 2.133V1.067C6.4.476 6.876 0 7.467 0zM7.467 12.8h1.066c.591 0 1.067.476 1.067 1.067v1.066C9.6 15.524 9.124 16 8.533 16H7.467c-.591 0-1.067-.476-1.067-1.067v-1.066c0-.591.476-1.067 1.067-1.067zM1.966 2.72l.754-.754a1.064 1.064 0 0 1 1.509 0l.754.754c.418.418.418 1.09 0 1.509l-.754.754a1.064 1.064 0 0 1-1.509 0l-.754-.754a1.064 1.064 0 0 1 0-1.509zM11.017 11.771l.754-.754a1.064 1.064 0 0 1 1.509 0l.754.754c.418.418.418 1.09 0 1.509l-.754.754a1.064 1.064 0 0 1-1.509 0l-.754-.754a1.064 1.064 0 0 1 0-1.509zM0 8.533V7.467C0 6.876.476 6.4 1.067 6.4h1.066c.591 0 1.067.476 1.067 1.067v1.066c0 .591-.476 1.067-1.067 1.067H1.067C.476 9.6 0 9.124 0 8.533zM12.8 8.533V7.467c0-.591.476-1.067 1.067-1.067h1.066c.591 0 1.067.476 1.067 1.067v1.066c0 .591-.476 1.067-1.067 1.067h-1.066c-.591 0-1.067-.476-1.067-1.067zM2.72 14.034l-.754-.754a1.064 1.064 0 0 1 0-1.509l.754-.754a1.064 1.064 0 0 1 1.509 0l.754.754c.418.418.418 1.09 0 1.509l-.754.754a1.064 1.064 0 0 1-1.509 0zM11.771 4.983l-.754-.754a1.064 1.064 0 0 1 0-1.509l.754-.754a1.064 1.064 0 0 1 1.509 0l.754.754c.418.418.418 1.09 0 1.509l-.754.754a1.064 1.064 0 0 1-1.509 0z" style="marker:none"/>
        <path d="M8 1.5C4.428 1.5 1.5 4.428 1.5 8s2.928 6.5 6.5 6.5 6.5-2.928 6.5-6.5S11.572 1.5 8 1.5zm0 3c1.95 0 3.5 1.55 3.5 3.5S9.95 11.5 8 11.5 4.5 9.95 4.5 8 6.05 4.5 8 4.5z" style="line-height:normal;font-variant-ligatures:normal;font-variant-position:normal;font-variant-caps:normal;font-variant-numeric:normal;font-variant-alternates:normal;font-feature-settings:normal;text-indent:0;text-align:start;text-decoration-line:none;text-decoration-style:solid;text-decoration-color:#000;text-transform:none;text-orientation:mixed;shape-padding:0;isolation:auto;mix-blend-mode:normal;marker:none" color="#000" font-weight="400" font-family="sans-serif" white-space="normal" overflow="visible"/>
    </g>
</svg>
