<svg xmlns="http://www.w3.org/2000/svg" width="16" height="16" version="1.0"><defs><linearGradient id="a"><stop offset="0" stop-color="#d5d3cf"/><stop offset="1" stop-color="#f6f5f4"/></linearGradient><linearGradient id="b"><stop offset="0" stop-color="#d5d3cf"/><stop offset="1" stop-color="#949390"/></linearGradient><linearGradient id="c"><stop offset="0" stop-color="#9a9996"/><stop offset="1" stop-color="#77767b"/></linearGradient></defs><path style="marker:none" d="M8 3a5 5 0 0 0-5 5 5 5 0 0 0 5 5 5 5 0 0 0 5-5 5 5 0 0 0-5-5zm0 1a4 4 0 0 1 4 4 4 4 0 0 1-4 4 4 4 0 0 1-4-4 4 4 0 0 1 4-4zm1.5 4a1.5 1.5 0 1 1-3 0 1.5 1.5 0 0 1 3 0zM4 1C2.355 1 1 2.355 1 4v8c0 1.645 1.355 3 3 3h8c1.645 0 3-1.355 3-3V4c0-1.645-1.355-3-3-3zm0 2h8c.571 0 1 .429 1 1v8c0 .571-.429 1-1 1H4c-.571 0-1-.429-1-1V4c0-.571.429-1 1-1z"/></svg>