<svg xmlns="http://www.w3.org/2000/svg" xmlns:osb="http://www.openswatchbook.org/uri/2009/osb" width="16" height="16" version="1.1" viewBox="0 0 16 16">
 <title id="title9167">
  Gnome Symbolic Icon Theme
 </title>
 <defs>
  <linearGradient id="linearGradient7212" osb:paint="solid">
   <stop id="stop7214" offset="0" style="stop-color:#000000"/>
  </linearGradient>
 </defs>
 <g id="layer9" transform="translate(-263.00021,84.999986)">
  <path d="m 265.01582,-81.5625 v 6.53125 l 2.18165,1.16797 c 0.33217,-0.69418 1.03316,-1.1362 1.80273,-1.13672 1.10457,0 2,0.89543 2,2 -6.3e-4,0.45812 -0.15854,0.90214 -0.44727,1.25781 L 273.0002,-70 v -7 z M 267.0002,-79 a 1,1 0 0 1 1,1 1,1 0 0 1 -1,1 1,1 0 0 1 -1,-1 1,1 0 0 1 1,-1 z" style="fill:#4d4d4d"/>
  <path d="m 266.3127,-81.92188 6.71875,3.95313 -0.0254,-0.99218 c -1.71825,-0.95813 -1.18325,-2.47067 0.0156,-3.03516 L 273.01565,-83 c -2.54887,-0.0691 -4.57215,0.0265 -6.70313,1.07812 z" style="fill:#4d4d4d"/>
  <path d="m 274.0002,-78.09966 v 9.09965 c 0,0 3,-3 3,-6 0,-3 -1,-3.09965 -1,-3.09965 z" style="fill:#4d4d4d"/>
  <rect width="2" height="5" x="274" y="-84" rx="1" ry="1" style="fill:#4d4d4d"/>
 </g>
</svg>
