<svg xmlns="http://www.w3.org/2000/svg" width="16" height="16">
    <path d="M2 2C.9 2 0 2.9 0 4v8c0 1.1.9 2 2 2h12c1.1 0 2-.9 2-2V4c0-1.1-.9-2-2-2zm3 3h1.298c.105 0 .21.022.301.074l4.2 2.4c.186.104.28.315.28.526 0 .21-.094.422-.28.525l-4.2 2.4a.602.602 0 0 1-.3.075H5z" style="line-height:normal;font-variant-ligatures:normal;font-variant-position:normal;font-variant-caps:normal;font-variant-numeric:normal;font-variant-alternates:normal;font-feature-settings:normal;text-indent:0;text-align:start;text-decoration-line:none;text-decoration-style:solid;text-decoration-color:#000;text-transform:none;text-orientation:mixed;shape-padding:0;isolation:auto;mix-blend-mode:normal" color="#000" font-weight="400" font-family="sans-serif" white-space="normal" overflow="visible" fill="#2e3436"/>
</svg>
