<svg width="16" height="16" version="1.1" viewBox="0 0 16 16" xmlns="http://www.w3.org/2000/svg">
 <g transform="translate(0,-1106.5197)" fill="#4d4d4d">
  <path d="m10 1109.5197c-1.108 0-2 0.892-2 2v3h4v-3c0-1.108-0.892-2-2-2z"/>
  <path d="m10 1118.5197c-1.108 0-2-0.892-2-2v-1h4v1c0 1.108-0.892 2-2 2z"/>
  <path d="m4 1112.5197c1.108 0 2 0.892 2 2v3h-0.72266c-0.94474-0.8696-1.54492-2.1073-1.54492-3.5 0-0.5283 0.10678-1.026 0.26367-1.5h4e-3zm-1.98242 1.834c0.0597 1.1613 0.42327 2.2424 1.01758 3.166h-1.03516v-3c0-0.057 0.013-0.1103 0.0176-0.166z"/>
  <path transform="translate(0,1106.5197)" d="m8.5 0c-4.130291 0-7.5 3.3697-7.5 7.5 0 1.5628162 0.4830998 3.015066 1.3066406 4.21875l-2.3066406 2.28125v2h2l2.296875-2.296875c1.2005375 0.816839 2.6472777 1.296875 4.203125 1.296875 4.130291 0 7.5-3.3697 7.5-7.5s-3.369709-7.5-7.5-7.5zm0 2c3.049411 0 5.5 2.4506 5.5 5.5s-2.450589 5.5-5.5 5.5c-3.0494108 0-5.5-2.4506-5.5-5.5s2.4505892-5.5 5.5-5.5z"/>
 </g>
</svg>
