<?xml version="1.0" encoding="UTF-8" standalone="no"?>
<svg
   xmlns:dc="http://purl.org/dc/elements/1.1/"
   xmlns:cc="http://creativecommons.org/ns#"
   xmlns:rdf="http://www.w3.org/1999/02/22-rdf-syntax-ns#"
   xmlns:svg="http://www.w3.org/2000/svg"
   xmlns="http://www.w3.org/2000/svg"
   xmlns:sodipodi="http://sodipodi.sourceforge.net/DTD/sodipodi-0.dtd"
   xmlns:inkscape="http://www.inkscape.org/namespaces/inkscape"
   version="1.1"
   id="svg2"
   viewBox="0 0 16 16"
   height="16"
   width="16"
   sodipodi:docname="org.gnome.Taquin-symbolic.svg"
   inkscape:version="0.92.3 (2405546, 2018-03-11)">
  <sodipodi:namedview
     pagecolor="#ffffff"
     bordercolor="#666666"
     borderopacity="1"
     objecttolerance="10"
     gridtolerance="10"
     guidetolerance="10"
     inkscape:pageopacity="0"
     inkscape:pageshadow="2"
     inkscape:window-width="1920"
     inkscape:window-height="1009"
     id="namedview14"
     showgrid="false"
     inkscape:zoom="6.5555556"
     inkscape:cx="-12.127118"
     inkscape:cy="18"
     inkscape:window-x="0"
     inkscape:window-y="34"
     inkscape:window-maximized="1"
     inkscape:current-layer="svg2" />
  <defs
     id="defs4" />
  <metadata
     id="metadata7">
    <rdf:RDF>
      <cc:Work
         rdf:about="">
        <dc:format>image/svg+xml</dc:format>
        <dc:type
           rdf:resource="http://purl.org/dc/dcmitype/StillImage" />
        <dc:title />
      </cc:Work>
    </rdf:RDF>
  </metadata>
  <g
     transform="matrix(0.44444444,0,0,0.44444444,0,-451.71653)"
     id="layer1"
     style="fill:#808080;fill-opacity:1">
    <path
       id="use4158"
       transform="translate(0,1016.3622)"
       d="M 0,0 V 10 H 10 V 0 Z m 4.8085938,1.2265625 c 0.8723958,0 1.5494791,0.1920573 2.03125,0.5761719 0.485026,0.3841146 0.7285156,0.9205729 0.7285156,1.6074218 0,0.3971355 -0.1035156,0.7682292 -0.3085938,1.1132813 C 7.0546875,4.8652344 6.624349,5.3242188 5.9667969,5.9003906 L 4.4082031,7.2675781 H 7.6171875 V 8.6484375 H 2.3183594 V 7.2675781 L 4.9804688,4.9179688 C 5.218099,4.703125 5.3938802,4.4941406 5.5078125,4.2890625 5.6217448,4.0839844 5.6777344,3.8697917 5.6777344,3.6484375 c 0,-0.3417969 -0.1145834,-0.6158854 -0.3457032,-0.8242187 -0.2278645,-0.2083334 -0.5332031,-0.3125 -0.9140624,-0.3125 -0.2929688,0 -0.6126303,0.0625 -0.9609376,0.1894531 C 3.108724,2.8248698 2.735026,3.0104167 2.3378906,3.2578125 V 1.65625 C 2.7610677,1.516276 3.1803385,1.4114583 3.59375,1.3398438 4.0071615,1.264974 4.4114583,1.2265625 4.8085938,1.2265625 Z"
       style="color:#000000;clip-rule:nonzero;display:inline;overflow:visible;visibility:visible;opacity:1;isolation:auto;mix-blend-mode:normal;color-interpolation:sRGB;color-interpolation-filters:linearRGB;solid-color:#000000;solid-opacity:1;fill:#808080;fill-opacity:1;fill-rule:nonzero;stroke:none;stroke-width:0;stroke-linecap:butt;stroke-linejoin:round;stroke-miterlimit:4;stroke-dasharray:none;stroke-dashoffset:0;stroke-opacity:1;color-rendering:auto;image-rendering:auto;shape-rendering:auto;text-rendering:auto;enable-background:accumulate"
       inkscape:connector-curvature="0" />
    <path
       id="use4306"
       transform="translate(0,1016.3622)"
       d="M 0,13 V 23 H 10 V 13 Z m 5.5546875,1.230469 c 0.3352865,0 0.6608073,0.02604 0.9765625,0.07813 0.3157552,0.05208 0.6282552,0.130208 0.9375,0.234375 V 15.89063 C 7.1595052,15.744141 6.8671875,15.636719 6.59375,15.568359 6.3203125,15.496745 6.0533854,15.460938 5.7929688,15.460938 c -0.5598959,0 -0.9960938,0.15625 -1.3085938,0.46875 -0.3125,0.309244 -0.4947917,0.76888 -0.546875,1.380859 0.2148438,-0.159505 0.4485677,-0.277344 0.6992188,-0.355469 0.250651,-0.08138 0.5240885,-0.123047 0.8203124,-0.123047 0.7454428,0 1.3450521,0.218099 1.8007813,0.654297 0.4589844,0.436198 0.6894531,1.008464 0.6894531,1.714844 0,0.78125 -0.2565104,1.406901 -0.7675781,1.878906 -0.5110677,0.46875 -1.1953125,0.703125 -2.0546875,0.703125 -0.9472656,0 -1.6822917,-0.31901 -2.203125,-0.957031 -0.5175781,-0.641276 -0.7753906,-1.549479 -0.7753906,-2.72461 0,-1.204427 0.3027344,-2.149088 0.9082031,-2.835937 0.608724,-0.690104 1.4420573,-1.035156 2.5,-1.035156 z m -0.4101563,3.8125 c -0.328776,0 -0.5761718,0.107422 -0.7421874,0.322265 -0.1627605,0.211589 -0.2441407,0.530599 -0.2441407,0.957032 0,0.426432 0.08138,0.748046 0.2441407,0.96289 0.1660156,0.211589 0.4134114,0.316406 0.7421874,0.316406 0.3320313,0 0.5794271,-0.104817 0.7421876,-0.316406 0.1660156,-0.214844 0.2480468,-0.536458 0.2480468,-0.96289 0,-0.426433 -0.082031,-0.745443 -0.2480468,-0.957032 C 5.7239583,18.150391 5.4765625,18.042969 5.1445312,18.042969 Z"
       style="color:#000000;clip-rule:nonzero;display:inline;overflow:visible;visibility:visible;opacity:1;isolation:auto;mix-blend-mode:normal;color-interpolation:sRGB;color-interpolation-filters:linearRGB;solid-color:#000000;solid-opacity:1;fill:#808080;fill-opacity:1;fill-rule:nonzero;stroke:none;stroke-width:0;stroke-linecap:butt;stroke-linejoin:round;stroke-miterlimit:4;stroke-dasharray:none;stroke-dashoffset:0;stroke-opacity:1;color-rendering:auto;image-rendering:auto;shape-rendering:auto;text-rendering:auto;enable-background:accumulate"
       inkscape:connector-curvature="0" />
    <path
       id="use4308"
       transform="translate(0,1016.3622)"
       d="M 0,26 V 36 H 10 V 26 Z m 2.1933594,1.351562 H 7.6875 v 1.060547 L 4.8457031,34.642578 H 3.0136719 L 5.7050781,28.734375 H 2.1933594 Z"
       style="color:#000000;clip-rule:nonzero;display:inline;overflow:visible;visibility:visible;opacity:1;isolation:auto;mix-blend-mode:normal;color-interpolation:sRGB;color-interpolation-filters:linearRGB;solid-color:#000000;solid-opacity:1;fill:#808080;fill-opacity:1;fill-rule:nonzero;stroke:none;stroke-width:0;stroke-linecap:butt;stroke-linejoin:round;stroke-miterlimit:4;stroke-dasharray:none;stroke-dashoffset:0;stroke-opacity:1;color-rendering:auto;image-rendering:auto;shape-rendering:auto;text-rendering:auto;enable-background:accumulate"
       inkscape:connector-curvature="0" />
    <path
       id="use4310"
       transform="translate(0,1016.3622)"
       d="M 13,0 V 10 H 23 V 0 Z m 4.681641,1.21875 c 0.947265,0 1.654297,0.15625 2.123047,0.46875 0.472005,0.3092448 0.708984,0.7753906 0.708984,1.4003906 0,0.4264323 -0.113281,0.7773438 -0.337891,1.0507813 -0.224609,0.2701823 -0.55664,0.4596354 -0.996093,0.5703125 0.491536,0.1269531 0.865234,0.3483073 1.11914,0.6640625 0.257162,0.3125 0.384766,0.7122396 0.384766,1.1972656 0,0.7226563 -0.276693,1.2727865 -0.830078,1.6503906 C 19.30013,8.5950521 18.492839,8.78125 17.431641,8.78125 17.057292,8.78125 16.682292,8.751302 16.304688,8.689453 15.930339,8.6308594 15.559245,8.5403646 15.191406,8.4199219 V 6.9707031 c 0.351563,0.1757813 0.69987,0.3092448 1.044922,0.4003907 0.348307,0.087891 0.690104,0.1308593 1.025391,0.1308593 0.498047,0 0.878906,-0.085286 1.142578,-0.2578125 0.266927,-0.172526 0.400391,-0.4199218 0.400391,-0.7421875 C 18.804688,6.1699219 18.667969,5.9192708 18.394531,5.75 18.124349,5.577474 17.723958,5.4902344 17.193359,5.4902344 H 16.441406 V 4.2792969 h 0.791016 c 0.472005,0 0.823568,-0.072266 1.054687,-0.21875 0.23112,-0.1497396 0.345703,-0.3769531 0.345703,-0.6796875 0,-0.2799479 -0.111328,-0.4954427 -0.335937,-0.6484375 -0.224609,-0.1529948 -0.542969,-0.2304688 -0.953125,-0.2304688 -0.302734,0 -0.608724,0.035156 -0.917969,0.1035157 -0.309245,0.068359 -0.615885,0.1692708 -0.921875,0.3027343 V 1.53125 C 15.875,1.4270833 16.242839,1.3489583 16.607422,1.296875 16.972005,1.2447917 17.330078,1.21875 17.681641,1.21875 Z"
       style="color:#000000;clip-rule:nonzero;display:inline;overflow:visible;visibility:visible;opacity:1;isolation:auto;mix-blend-mode:normal;color-interpolation:sRGB;color-interpolation-filters:linearRGB;solid-color:#000000;solid-opacity:1;fill:#808080;fill-opacity:1;fill-rule:nonzero;stroke:none;stroke-width:0;stroke-linecap:butt;stroke-linejoin:round;stroke-miterlimit:4;stroke-dasharray:none;stroke-dashoffset:0;stroke-opacity:1;color-rendering:auto;image-rendering:auto;shape-rendering:auto;text-rendering:auto;enable-background:accumulate"
       inkscape:connector-curvature="0" />
    <path
       id="use4312"
       transform="translate(0,1016.3622)"
       d="M 13,13 V 23 H 23 V 13 Z m 4.892578,1.351562 h 2.089844 v 4.59961 h 1.041016 V 20.3125 h -1.041016 v 1.328125 H 18.205078 V 20.3125 h -3.232422 v -1.611328 z m 0.3125,1.546876 -2.060547,3.052734 h 2.060547 z"
       style="color:#000000;clip-rule:nonzero;display:inline;overflow:visible;visibility:visible;opacity:1;isolation:auto;mix-blend-mode:normal;color-interpolation:sRGB;color-interpolation-filters:linearRGB;solid-color:#000000;solid-opacity:1;fill:#808080;fill-opacity:1;fill-rule:nonzero;stroke:none;stroke-width:0;stroke-linecap:butt;stroke-linejoin:round;stroke-miterlimit:4;stroke-dasharray:none;stroke-dashoffset:0;stroke-opacity:1;color-rendering:auto;image-rendering:auto;shape-rendering:auto;text-rendering:auto;enable-background:accumulate"
       inkscape:connector-curvature="0" />
    <path
       id="use4314"
       transform="translate(0,1016.3622)"
       d="M 13,26 V 36 H 23 V 26 Z m 5.001953,1.232422 c 0.882162,0 1.552735,0.160156 2.011719,0.482422 0.458984,0.31901 0.689453,0.78776 0.689453,1.40625 0,0.413411 -0.113932,0.758463 -0.341797,1.035156 -0.224609,0.276693 -0.559245,0.481771 -1.001953,0.615234 0.494792,0.136719 0.86849,0.360677 1.119141,0.669922 0.253906,0.30599 0.380859,0.69336 0.380859,1.16211 0,0.722656 -0.240885,1.269531 -0.722656,1.640625 -0.478516,0.367838 -1.190755,0.550781 -2.134766,0.550781 -0.947265,0 -1.663411,-0.182943 -2.148437,-0.550781 -0.481771,-0.371094 -0.722657,-0.917969 -0.722657,-1.640625 0,-0.46875 0.126302,-0.85612 0.376953,-1.16211 0.253907,-0.309245 0.628256,-0.533203 1.123047,-0.669922 -0.442708,-0.133463 -0.777343,-0.338541 -1.001953,-0.615234 -0.224609,-0.276693 -0.335937,-0.621745 -0.335937,-1.035156 0,-0.615235 0.228515,-1.083985 0.6875,-1.40625 0.458984,-0.322266 1.132812,-0.482422 2.021484,-0.482422 z m 0,1.18164 c -0.299479,0 -0.530599,0.07813 -0.693359,0.234376 -0.159505,0.15625 -0.238282,0.377604 -0.238282,0.664062 0,0.289714 0.07878,0.511719 0.238282,0.667969 0.16276,0.15625 0.39388,0.234375 0.693359,0.234375 0.292969,0 0.520182,-0.07813 0.679688,-0.234375 0.159505,-0.15625 0.238281,-0.378255 0.238281,-0.667969 0,-0.289714 -0.07878,-0.511068 -0.238281,-0.664062 -0.159506,-0.15625 -0.386719,-0.234376 -0.679688,-0.234376 z m 0,2.978516 c -0.351562,0 -0.621745,0.09505 -0.810547,0.28711 -0.188802,0.192057 -0.283203,0.468098 -0.283203,0.826171 0,0.358073 0.0944,0.632162 0.283203,0.824219 0.188802,0.188802 0.458985,0.283203 0.810547,0.283203 0.348307,0 0.615235,-0.0944 0.800781,-0.283203 0.185547,-0.192057 0.279297,-0.466146 0.279297,-0.824219 0,-0.361328 -0.09375,-0.637369 -0.279297,-0.826171 -0.185546,-0.192058 -0.452474,-0.28711 -0.800781,-0.28711 z"
       style="color:#000000;clip-rule:nonzero;display:inline;overflow:visible;visibility:visible;opacity:1;isolation:auto;mix-blend-mode:normal;color-interpolation:sRGB;color-interpolation-filters:linearRGB;solid-color:#000000;solid-opacity:1;fill:#808080;fill-opacity:1;fill-rule:nonzero;stroke:none;stroke-width:0;stroke-linecap:butt;stroke-linejoin:round;stroke-miterlimit:4;stroke-dasharray:none;stroke-dashoffset:0;stroke-opacity:1;color-rendering:auto;image-rendering:auto;shape-rendering:auto;text-rendering:auto;enable-background:accumulate"
       inkscape:connector-curvature="0" />
    <path
       id="use4316"
       transform="translate(0,1016.3622)"
       d="M 26,0 V 10 H 36 V 0 Z m 2.580078,1.3613281 h 4.673828 v 1.3808594 h -3.173828 v 1.1289063 c 0.143229,-0.039063 0.286458,-0.068359 0.429688,-0.087891 0.146484,-0.022786 0.296875,-0.035156 0.453125,-0.035156 0.888671,0 1.58138,0.2239583 2.076171,0.6699219 0.494792,0.4427083 0.742188,1.0611979 0.742188,1.8554687 0,0.7877604 -0.270182,1.4036458 -0.810547,1.8496094 -0.537109,0.4459635 -1.285156,0.6699219 -2.242187,0.6699219 -0.413412,0 -0.823568,-0.041667 -1.230469,-0.1230469 -0.403646,-0.078125 -0.804688,-0.1985676 -1.205078,-0.361328 V 6.8300781 c 0.397135,0.2278646 0.772135,0.3977865 1.126953,0.5117188 0.358073,0.1139323 0.695963,0.171875 1.011719,0.171875 0.455729,0 0.813802,-0.1106771 1.074218,-0.3320313 0.263672,-0.2246094 0.394532,-0.5273437 0.394532,-0.9082031 0,-0.3841146 -0.13086,-0.686849 -0.394532,-0.9082031 -0.260416,-0.2213542 -0.618489,-0.3320313 -1.074218,-0.3320313 -0.270183,0 -0.559245,0.035807 -0.865235,0.1074219 -0.305989,0.068359 -0.634765,0.1757812 -0.986328,0.3222656 z"
       style="color:#000000;clip-rule:nonzero;display:inline;overflow:visible;visibility:visible;opacity:1;isolation:auto;mix-blend-mode:normal;color-interpolation:sRGB;color-interpolation-filters:linearRGB;solid-color:#000000;solid-opacity:1;fill:#808080;fill-opacity:1;fill-rule:nonzero;stroke:none;stroke-width:0;stroke-linecap:butt;stroke-linejoin:round;stroke-miterlimit:4;stroke-dasharray:none;stroke-dashoffset:0;stroke-opacity:1;color-rendering:auto;image-rendering:auto;shape-rendering:auto;text-rendering:auto;enable-background:accumulate"
       inkscape:connector-curvature="0" />
    <path
       id="use4320"
       transform="translate(0,1016.3622)"
       d="m 26,17.25 v 10 h 10 v -10 z m 4.859375,1.292969 c 0.950521,0 1.686198,0.319661 2.207031,0.960937 0.520834,0.641276 0.78125,1.548828 0.78125,2.720703 0,1.204427 -0.305338,2.151693 -0.914062,2.841797 -0.608724,0.686849 -1.442709,1.029297 -2.503906,1.029297 -0.341797,0 -0.669922,-0.02604 -0.982422,-0.07813 -0.3125,-0.04883 -0.61849,-0.123698 -0.917969,-0.224609 v -1.347657 c 0.299479,0.139974 0.585937,0.246745 0.859375,0.31836 0.273437,0.06836 0.54362,0.101562 0.810547,0.101562 0.559896,0 0.996094,-0.153645 1.308593,-0.46289 0.3125,-0.3125 0.497396,-0.77474 0.552735,-1.386719 -0.221354,0.16276 -0.458333,0.283854 -0.708985,0.365234 -0.250651,0.08138 -0.521484,0.123047 -0.814453,0.123047 -0.745442,0 -1.347656,-0.217448 -1.80664,-0.65039 -0.455729,-0.436198 -0.683594,-1.009115 -0.683594,-1.71875 0,-0.784506 0.253906,-1.412761 0.761719,-1.884766 0.511067,-0.472005 1.194661,-0.707031 2.050781,-0.707031 z m -0.0098,1.18164 c -0.328776,0 -0.576171,0.107422 -0.742187,0.322266 -0.166016,0.214844 -0.25,0.533854 -0.25,0.957031 0,0.426433 0.08398,0.746094 0.25,0.960938 0.166016,0.211588 0.413411,0.318359 0.742187,0.318359 0.328776,0 0.576172,-0.106771 0.742188,-0.318359 0.166015,-0.214844 0.248047,-0.534505 0.248047,-0.960938 0,-0.423177 -0.08203,-0.742187 -0.248047,-0.957031 -0.166016,-0.214844 -0.413412,-0.322266 -0.742188,-0.322266 z"
       style="color:#000000;clip-rule:nonzero;display:inline;overflow:visible;visibility:visible;opacity:1;isolation:auto;mix-blend-mode:normal;color-interpolation:sRGB;color-interpolation-filters:linearRGB;solid-color:#000000;solid-opacity:1;fill:#808080;fill-opacity:1;fill-rule:nonzero;stroke:none;stroke-width:0;stroke-linecap:butt;stroke-linejoin:round;stroke-miterlimit:4;stroke-dasharray:none;stroke-dashoffset:0;stroke-opacity:1;color-rendering:auto;image-rendering:auto;shape-rendering:auto;text-rendering:auto;enable-background:accumulate"
       inkscape:connector-curvature="0" />
  </g>
</svg>
