<?xml version="1.0" encoding="UTF-8" standalone="no"?>
<svg
   xmlns:dc="http://purl.org/dc/elements/1.1/"
   xmlns:cc="http://creativecommons.org/ns#"
   xmlns:rdf="http://www.w3.org/1999/02/22-rdf-syntax-ns#"
   xmlns:svg="http://www.w3.org/2000/svg"
   xmlns="http://www.w3.org/2000/svg"
   xmlns:sodipodi="http://sodipodi.sourceforge.net/DTD/sodipodi-0.dtd"
   xmlns:inkscape="http://www.inkscape.org/namespaces/inkscape"
   width="16"
   height="16"
   version="1.1"
   id="svg12"
   sodipodi:docname="PDF-symbolic.svg"
   inkscape:version="0.92.3 (2405546, 2018-03-11)">
  <metadata
     id="metadata18">
    <rdf:RDF>
      <cc:Work
         rdf:about="">
        <dc:format>image/svg+xml</dc:format>
        <dc:type
           rdf:resource="http://purl.org/dc/dcmitype/StillImage" />
        <dc:title />
      </cc:Work>
    </rdf:RDF>
  </metadata>
  <defs
     id="defs16" />
  <sodipodi:namedview
     pagecolor="#ffffff"
     bordercolor="#666666"
     borderopacity="1"
     objecttolerance="10"
     gridtolerance="10"
     guidetolerance="10"
     inkscape:pageopacity="0"
     inkscape:pageshadow="2"
     inkscape:window-width="1920"
     inkscape:window-height="1009"
     id="namedview14"
     showgrid="true"
     inkscape:zoom="52.1875"
     inkscape:cx="8"
     inkscape:cy="8"
     inkscape:window-x="0"
     inkscape:window-y="34"
     inkscape:window-maximized="1"
     inkscape:current-layer="svg12">
    <inkscape:grid
       type="xygrid"
       id="grid819" />
  </sodipodi:namedview>
  <path
     style="color:#000000;font-style:normal;font-variant:normal;font-weight:normal;font-stretch:normal;font-size:medium;line-height:normal;font-family:Sans;-inkscape-font-specification:Sans;text-indent:0;text-align:start;text-decoration:none;text-decoration-line:none;letter-spacing:normal;word-spacing:normal;text-transform:none;writing-mode:lr-tb;direction:ltr;baseline-shift:baseline;text-anchor:start;display:inline;overflow:visible;visibility:visible;fill:#241f31;fill-opacity:1;stroke:none;stroke-width:1.99999988;marker:none;enable-background:accumulate"
     d="M 3.4414062 0.4921875 L 3.4414062 0.5 L 3.3007812 0.5 C 3.2695652 0.498536 3.2382472 0.498536 3.2070312 0.5 C 3.1758152 0.498536 3.1444972 0.498536 3.1132812 0.5 C 2.6351992 0.5912215 2.2922049 1.0133685 2.3007812 1.5 L 2.3007812 14.5 C 2.3008364 15.052262 2.7485189 15.499945 3.3007812 15.5 L 13.300781 15.5 C 13.853043 15.499945 14.300726 15.052262 14.300781 14.5 L 14.300781 5.0625 C 14.306981 4.7949353 14.205681 4.5360495 14.019531 4.34375 L 10.457031 0.78125 C 10.264732 0.59510451 10.005845 0.49380138 9.7382812 0.5 L 9.59375 0.5 L 9.59375 0.4921875 L 3.4414062 0.4921875 z M 4.3007812 2.2851562 L 9.2988281 2.2851562 L 9.3007812 2.5 L 9.3007812 5.5 L 12.300781 5.5 L 12.324219 9 L 4.3007812 9 L 4.3007812 2.2851562 z M 3.8007812 10.337891 L 5.15625 10.337891 C 5.5596471 10.337891 5.8688393 10.427661 6.0839844 10.607422 C 6.3005449 10.785766 6.4101563 11.039884 6.4101562 11.371094 C 6.4101564 11.703719 6.3005449 11.958912 6.0839844 12.138672 C 5.8688393 12.317015 5.5596471 12.40625 5.15625 12.40625 L 4.6171875 12.40625 L 4.6171875 13.505859 L 3.8007812 13.505859 L 3.8007812 10.337891 z M 6.984375 10.337891 L 7.8476562 10.337891 C 8.3289019 10.337891 8.6869139 10.372051 8.921875 10.441406 C 9.1582515 10.509346 9.3608609 10.624873 9.5292969 10.789062 C 9.6779168 10.932021 9.7871881 11.096366 9.859375 11.283203 C 9.931562 11.47004 9.96875 11.681592 9.96875 11.917969 C 9.96875 12.157176 9.931562 12.372295 9.859375 12.560547 C 9.787188 12.747384 9.6779168 12.911727 9.5292969 13.054688 C 9.3594455 13.218875 9.1538076 13.334941 8.9160156 13.404297 C 8.6782237 13.472237 8.3232404 13.505859 7.8476562 13.505859 L 6.984375 13.505859 L 6.984375 10.337891 z M 10.59375 10.337891 L 12.800781 10.337891 L 12.800781 10.955078 L 11.412109 10.955078 L 11.412109 11.544922 L 12.716797 11.544922 L 12.716797 12.162109 L 11.412109 12.162109 L 11.412109 13.505859 L 10.59375 13.505859 L 10.59375 10.337891 z M 4.6171875 10.929688 L 4.6171875 11.814453 L 5.0703125 11.814453 C 5.2288404 11.814453 5.3511589 11.775653 5.4375 11.699219 C 5.523841 11.621369 5.5664062 11.512636 5.5664062 11.371094 C 5.5664062 11.229551 5.5238412 11.119402 5.4375 11.042969 C 5.351159 10.966539 5.2288404 10.929687 5.0703125 10.929688 L 4.6171875 10.929688 z M 7.8027344 10.955078 L 7.8027344 12.888672 L 8.0957031 12.888672 C 8.4297442 12.888672 8.6838619 12.806232 8.859375 12.640625 C 9.0363035 12.47502 9.125 12.233609 9.125 11.917969 C 9.125 11.603743 9.0368412 11.365361 8.8613281 11.201172 C 8.685815 11.036982 8.4311596 10.955078 8.0957031 10.955078 L 7.8027344 10.955078 z "
     id="path1234" />
  <g
     aria-label="PDF"
     style="font-style:normal;font-weight:normal;font-size:21.74097633px;line-height:1.25;font-family:sans-serif;letter-spacing:0px;word-spacing:0px;fill:#000000;fill-opacity:1;stroke:none;stroke-width:0.54352444"
     id="text817" />
</svg>
