<?xml version="1.0" encoding="UTF-8" standalone="no"?>
<svg
   xmlns:dc="http://purl.org/dc/elements/1.1/"
   xmlns:cc="http://creativecommons.org/ns#"
   xmlns:rdf="http://www.w3.org/1999/02/22-rdf-syntax-ns#"
   xmlns:svg="http://www.w3.org/2000/svg"
   xmlns="http://www.w3.org/2000/svg"
   xmlns:sodipodi="http://sodipodi.sourceforge.net/DTD/sodipodi-0.dtd"
   xmlns:inkscape="http://www.inkscape.org/namespaces/inkscape"
   width="16"
   height="16"
   version="1.1"
   id="svg8"
   sodipodi:docname="PDF-symbolic.svg"
   inkscape:version="0.92.3 (2405546, 2018-03-11)">
  <metadata
     id="metadata14">
    <rdf:RDF>
      <cc:Work
         rdf:about="">
        <dc:format>image/svg+xml</dc:format>
        <dc:type
           rdf:resource="http://purl.org/dc/dcmitype/StillImage" />
      </cc:Work>
    </rdf:RDF>
  </metadata>
  <defs
     id="defs12" />
  <sodipodi:namedview
     pagecolor="#ffffff"
     bordercolor="#666666"
     borderopacity="1"
     objecttolerance="10"
     gridtolerance="10"
     guidetolerance="10"
     inkscape:pageopacity="0"
     inkscape:pageshadow="2"
     inkscape:window-width="1920"
     inkscape:window-height="1009"
     id="namedview10"
     showgrid="false"
     inkscape:zoom="14.75"
     inkscape:cx="8"
     inkscape:cy="8"
     inkscape:window-x="0"
     inkscape:window-y="34"
     inkscape:window-maximized="1"
     inkscape:current-layer="svg8" />
  <path
     style="fill:#241f31;fill-opacity:1;stroke-width:0.03125066"
     d="m 2.9064462,15.95075 c -0.06016,-0.026 -0.155467,-0.0919 -0.211799,-0.14637 -0.20821,-0.20138 -0.19446,0.35045 -0.19446,-7.8040496 0,-8.15447009 -0.01375,-7.60261007 0.19446,-7.80413007 0.21611,-0.20916002 -0.06578,-0.19604002679 4.2138709,-0.19604002679 3.5230459,0 3.8866899,0.005000007 3.9620259,0.0507000068 0.116806,0.0714 3.201763,3.60975009 3.227516,3.70187009 0.01163,0.0416 0.02255,2.67822 0.02426,5.8591596 0.0034,6.38011 0.01542,5.99246 -0.191345,6.19257 -0.218197,0.21118 0.215089,0.19617 -5.6249719,0.19482 -4.6527709,-0.001 -5.3033579,-0.007 -5.3995559,-0.0485 z m 5.5819629,-0.74796 c 0.866794,-0.14895 1.368732,-0.54182 1.5928779,-1.24676 0.106771,-0.3358 0.133973,-0.84048 0.0633,-1.17435 -0.139125,-0.65721 -0.5890269,-1.12165 -1.2559169,-1.29651 -0.309385,-0.0811 -0.863903,-0.1118 -1.408971,-0.078 -0.272271,0.0169 -0.533822,0.0389 -0.581223,0.0489 l -0.08618,0.0181 0.0081,1.86469 0.0081,1.86469 0.156253,0.0185 c 0.337352,0.04 1.224821,0.0286 1.503752,-0.0193 z m -0.746279,-0.62834 c -0.05154,-0.0152 -0.05453,-0.0951 -0.04688,-1.25606 l 0.0082,-1.23985 0.281256,-0.0101 c 0.459459,-0.0164 0.734884,0.068 0.965245,0.29607 0.298011,0.29501 0.394045,0.81681 0.253629,1.3781 -0.09027,0.36082 -0.343663,0.6403 -0.680939,0.75102 -0.193873,0.0636 -0.670986,0.11303 -0.780484,0.0808 z m -3.3356519,-0.0225 v -0.66729 l 0.367195,-0.0189 c 0.546439,-0.0281 0.859988,-0.13155 1.1170959,-0.36855 0.194685,-0.17945 0.289358,-0.35032 0.346947,-0.62618 0.08437,-0.40414 -0.0066,-0.78122 -0.254832,-1.05595 -0.3203679,-0.35461 -0.8106809,-0.46685 -1.7831759,-0.40821 -0.284574,0.0172 -0.551347,0.0397 -0.592828,0.0501 l -0.07542,0.0189 v 1.87165 1.87165 h 0.437509 0.43751 z m 0.03906,-1.35139 c -0.02913,-0.0133 -0.03906,-0.15976 -0.03906,-0.57582 v -0.55799 l 0.143625,-0.0215 c 0.305675,-0.0458 0.651525,0.055 0.775501,0.22605 0.03285,0.0453 0.06621,0.14981 0.07412,0.23217 0.04212,0.43837 -0.189519,0.6785 -0.678181,0.70305 -0.130317,0.007 -0.254518,0.004 -0.276003,-0.006 z m 7.1798398,1.25304 v -0.76564 h 0.687515 0.687514 V 13.3442 13.00044 h -0.687514 -0.687515 v -0.43751 -0.43751 h 0.735414 0.735414 l -0.0088,-0.35157 -0.0088,-0.35157 -1.164087,-0.008 -1.164088,-0.008 v 1.90667 1.90667 h 0.43751 0.437509 z m 1.87504,-7.0461296 v -3.24917 l -1.452468,-0.009 -1.452469,-0.009 -0.08663,-0.0866 -0.08663,-0.0866 -0.0086,-1.67122 -0.0086,-1.67122007 H 6.7651111 3.1252022 V 5.6403904 10.65612 H 8.3128131 13.500423 Z M 4.2206602,9.68299 C 3.9869952,9.5236 3.9274022,9.24461 4.0462882,8.8666404 c 0.04741,-0.15074 0.09359,-0.21436 0.295876,-0.40762 0.272673,-0.26051 0.486998,-0.42468 0.817597,-0.62627 l 0.229936,-0.1402 0.165283,-0.65081 c 0.09091,-0.35795 0.2776769,-1.12143 0.4150459,-1.69663 l 0.249762,-1.04582 -0.22893,-0.23546 c -0.5509539,-0.56667 -0.7532949,-0.96497 -0.6771919,-1.33303 0.08357,-0.40418 0.5698099,-0.67517 0.9505529,-0.52976 0.379148,0.1448 0.553575,0.68326 0.496206,1.53181 l -0.02735,0.40449 0.250791,0.23847 c 0.629778,0.59884 1.433501,1.2889 2.241747,1.92471 l 0.529815,0.41678 0.7552819,9.5e-4 c 1.205579,0.002 1.558843,0.0665 1.876169,0.34513 0.39752,0.34902 0.299302,1.0737 -0.178566,1.31749 -0.175046,0.0893 -0.465023,0.10877 -0.681723,0.0458 -0.193749,-0.0563 -0.690793,-0.36486 -1.432149,-0.889 l -0.4949899,-0.34996 -0.56834,0.0479 c -1.16559,0.0982 -2.279269,0.35213 -3.021124,0.68876 -0.213002,0.0967 -0.226456,0.10897 -0.259519,0.23741 C 5.4922102,9.1651 5.0765782,9.69881 4.5201092,9.7417 4.3556842,9.7544 4.3129922,9.7457 4.2206572,9.683 Z m 0.471804,-0.49141 c 0.07808,-0.0495 0.171955,-0.1321496 0.208599,-0.1836096 0.08366,-0.11749 0.286678,-0.53858 0.286678,-0.59462 0,-0.055 -0.234992,0.11172 -0.486358,0.34496 -0.151143,0.14025 -0.201499,0.21037 -0.228734,0.31853 -0.01921,0.0763 -0.03492,0.1535596 -0.03492,0.1717396 0,0.0594 0.109999,0.0348 0.254739,-0.057 z M 12.025137,7.9513704 c 0.191106,-0.13386 0.189472,-0.45934 -0.0029,-0.57813 -0.199652,-0.12328 -0.420888,-0.16253 -1.026756,-0.18216 -0.320662,-0.0104 -0.576358,-0.008 -0.568213,0.005 0.02911,0.0469 1.090576,0.73553 1.182486,0.76712 0.141589,0.0487 0.336976,0.0431 0.415384,-0.0118 z m -5.6342449,-0.67153 c 0.189066,-0.0651 0.491416,-0.1558 0.671889,-0.2015 0.387937,-0.0982 1.283588,-0.25192 1.649159,-0.283 0.142178,-0.0121 0.265268,-0.0329 0.273533,-0.0463 0.0083,-0.0134 -0.11493,-0.12755 -0.273768,-0.25372 -0.587249,-0.46648 -1.832093,-1.54722 -2.005337,-1.74098 -0.07091,-0.0793 -0.112347,-0.0853 -0.112347,-0.0163 0,0.0442 -0.596656,2.49587 -0.644867,2.6498 -0.0152,0.0485 -0.0079,0.0549 0.03969,0.0349 0.03206,-0.0135 0.212985,-0.0778 0.402052,-0.14292 z m -0.07875,-3.78741 c -8.94e-4,-0.2819 -0.05505,-0.61577 -0.120381,-0.74218 -0.07361,-0.14241 -0.206103,-0.16324 -0.33472,-0.0526 -0.109152,0.0939 -0.113111,0.23073 -0.01245,0.43029 0.08028,0.15916 0.393945,0.5598 0.438264,0.5598 0.01645,0 0.02963,-0.0879 0.02929,-0.19531 z"
     id="path817"
     inkscape:connector-curvature="0" />
</svg>
