<svg xmlns="http://www.w3.org/2000/svg" width="16" height="16" version="1.1">
 <g transform="translate(-552,-240)">
  <path d="m 555.99414,241 c -1.2582,0.0145 -2.17889,-0.0306 -2.93164,0.38477 -0.1894,0.10449 -0.35759,0.24583 -0.5,0.41601 H 552.5 v 0.0879 c -0.11056,0.14835 -0.20685,0.31154 -0.27539,0.49414 C 552.05994,242.82148 552,243.34239 552,244 v 8 c 0,0.65761 0.0599,1.17858 0.22461,1.61719 0.16468,0.43861 0.46153,0.78852 0.83789,0.99609 0.75272,0.41513 1.67354,0.37165 2.93164,0.38672 h 0.002 8.00586 0.004 c 1.25819,-0.0145 2.17889,0.0306 2.93164,-0.38477 0.37637,-0.20766 0.67322,-0.55938 0.83789,-0.99804 C 567.93992,253.17852 568,252.65761 568,252 v -8 c 0,-0.65761 -0.0599,-1.17858 -0.22461,-1.61719 -0.0685,-0.18245 -0.16493,-0.34429 -0.27539,-0.49219 v -0.0898 h -0.0625 c -0.1422,-0.16917 -0.31105,-0.30985 -0.5,-0.41406 -0.75272,-0.41513 -1.67355,-0.37165 -2.93164,-0.38672 h -0.002 -8.00586 z M 553,244 h 14 v 8 c 0,0.59239 -0.0626,1.00573 -0.16016,1.26562 -0.0976,0.25991 -0.20135,0.37147 -0.38476,0.47266 C 566.08912,253.9402 565.25852,253.98529 564,254 H 556.00586 556 c -1.25863,-0.0152 -2.0891,-0.0599 -2.45508,-0.26172 -0.18342,-0.10116 -0.28722,-0.21286 -0.38476,-0.47266 C 553.06261,253.00583 553,252.59239 553,252 Z" style="fill:#808080"/>
  <path d="m 556,246 h 1 l -2,5 h -1 z" style="fill:#808080"/>
  <path d="m 557,246 h -1 l 2,5 h 1 z" style="fill:#808080"/>
  <rect style="fill:#808080" width="2" height=".5" x="555.5" y="-249.5" transform="scale(1,-1)"/>
  <rect style="fill:#808080" width="1.5" height=".5" x="554" y="250.5"/>
  <rect style="fill:#808080" width="1.5" height=".5" x="557.5" y="250.5"/>
  <path style="opacity:0.5;fill:#808080" d="m 8,6 v 1 h 2.957031 L 11.367188,6.5859375 11.943359,6 Z M 8,8 V 9 H 8.984375 L 9.1210938,8.8613281 9.6816406,8.2929688 9.9707031,8 Z m 5.048828,0 -1.013672,1 H 14 V 8 Z m -2.029297,2 -1.013672,1 H 14 V 10 Z M 2,12 v 1 H 12 V 12 H 8.7890625 c -0.081986,0.04325 -0.080059,0.04778 -0.1933594,0.103516 -0.362929,0.178531 -0.8584077,0.398818 -1.4179687,0.576172 L 6.6542969,12.845703 6.8203125,12.322266 C 6.8567588,12.20735 6.8981924,12.108979 6.9375,12 Z" transform="translate(552,240)"/>
 </g>
 <path d="m 11.394036,7.0371745 -0.746899,0.7572503 v 0 l -0.37345,0.3786261 v 0 l -0.3734491,0.378626 v 0 L 9.5267913,8.9303021 v 0 l -0.3734491,0.378626 v 0 L 8.7806304,9.6875532 v 0 L 8.4071812,10.066179 v 0 0 L 8.124692,10.444805 c -0.038438,0.06918 -0.055551,0.092 -0.1198006,0.22259 -0.1188204,0.241521 -0.2650681,0.571577 -0.3830595,0.943607 L 7.5116443,11.959307 7.8599498,11.849119 C 8.2322903,11.731105 8.5620574,11.584858 8.803556,11.46606 9.0450555,11.347259 9.1772672,11.268906 9.2154597,11.244946 l 0.017,-0.01109 3.5799343,-3.5296471 -0.757251,-0.7572512 v 0 L 11.766735,6.6585459 v 0 z m -2.7879288,3.3662155 0.4614537,0.461454 -0.067301,0.06656 c 0.00262,-0.0018 -0.1433238,0.08601 -0.3638362,0.194489 -0.081104,0.0399 -0.2027427,0.08427 -0.315766,0.127933 L 8.2171301,11.15029 c 0.043662,-0.113016 0.088026,-0.234645 0.1279328,-0.315766 0.1085112,-0.220557 0.1959427,-0.365711 0.194489,-0.363836 z" style="fill:#808080"/>
</svg>
