<svg xmlns="http://www.w3.org/2000/svg" width="16" height="16" version="1.1">
 <title id="title9167">
  Gnome Symbolic Icon Theme
 </title>
 <g id="layer11" transform="translate(-303.02908,-649.02581)">
  <path d="m 307.725,651.25977 c -3.58218,0 -4.66582,1.39975 -4.66582,1.39975 l 0,10.04946 c 0,0 1.08364,-1.07673 4.66582,-1.07673 2.9161,0 4.47225,1.07673 7.17818,1.07673 2.08923,0 3.19429,-1.39975 3.19429,-1.39975 l 0,-10.04946 c 0,0 -1.14095,1.04084 -3.23018,1.04084 -3.3734,0 -3.97619,-1.04084 -7.14229,-1.04084 z m 2.93145,2.77148 c 1.32876,0 2.375,1.08037 2.375,2.4375 0,1.35713 -1.04624,2.46875 -2.375,2.46875 -1.32876,0 -2.40625,-1.11162 -2.40625,-2.46875 0,-1.35713 1.07749,-2.4375 2.40625,-2.4375 z m -4.5625,0.96875 0.96875,1.03125 -0.9375,-0.0312 0.9375,1 -0.96875,-0.0312 0.96875,1.03125 -1,-0.0312 0.0312,-1 -0.0312,0 0.0312,-0.9688 -0.0312,0 z m 4.5625,0 c -0.794,0 -1.46875,0.6578 -1.46875,1.46875 0,0.81095 0.67475,1.46875 1.46875,1.46875 0.79399,0 1.4375,-0.6578 1.4375,-1.46875 0,-0.81095 -0.64351,-1.46875 -1.4375,-1.46875 z m 4.375,0 0,1 0.0312,0.96875 -0.0312,0 0.0312,1 -1,0.0312 0.96875,-1.03125 -0.96875,0.0312 0.9375,-1 -0.9375,0.0312 z m -7.9375,2.96875 0.96875,1.03125 -1,-0.0312 z m 6.9375,0 0.0312,1 -1,0.0312 z m -5.9375,1 0.96875,1.03125 -1,-0.0312 z m 4.9375,0 0.0312,1 -1,0.0312 z" style="fill:#241f31"/>
 </g>
</svg>
