<?xml version="1.0" encoding="UTF-8"?>
<!-- Created with Inkscape (http://www.inkscape.org/) -->
<svg id="svg7384" width="16" height="16" version="1.1" viewBox="0 0 16 16" xmlns="http://www.w3.org/2000/svg" xmlns:cc="http://creativecommons.org/ns#" xmlns:dc="http://purl.org/dc/elements/1.1/" xmlns:osb="http://www.openswatchbook.org/uri/2009/osb" xmlns:rdf="http://www.w3.org/1999/02/22-rdf-syntax-ns#">
 <metadata id="metadata90">
  <rdf:RDF>
   <cc:Work rdf:about="">
    <dc:format>image/svg+xml</dc:format>
    <dc:type rdf:resource="http://purl.org/dc/dcmitype/StillImage"/>
    <dc:title>Gnome Symbolic Icon Theme</dc:title>
   </cc:Work>
  </rdf:RDF>
 </metadata>
 <title id="title9167">Gnome Symbolic Icon Theme</title>
 <g id="layer11" transform="translate(-183 -669)">
  <path id="rect3239" d="m192 675c-1.0907 0-2 0.9093-2 2v3c0 1.0907 0.9093 2 2 2h5c1.0907 0 2-0.9093 2-2v-3c0-1.0907-0.9093-2-2-2zm0 2h5v3h-5z" style="color-rendering:auto;color:#bebebe;dominant-baseline:auto;fill:#bebebe;font-feature-settings:normal;font-variant-alternates:normal;font-variant-caps:normal;font-variant-ligatures:normal;font-variant-numeric:normal;font-variant-position:normal;image-rendering:auto;isolation:auto;mix-blend-mode:normal;shape-padding:0;shape-rendering:auto;solid-color:#000000;text-decoration-color:#000000;text-decoration-line:none;text-decoration-style:solid;text-indent:0;text-orientation:mixed;text-transform:none;white-space:normal"/>
  <path id="path3243" d="m194.5 684c-2.5 0-2.5-0.5-2.5-0.5 0-0.5 0.5-0.5 0.5-0.5h4c0.5 0 0.5 0.5 0.5 0.5s0 0.5-2.5 0.5z" style="enable-background:new;fill:#bebebe"/>
  <path id="rect3788" d="m186 670v1h5v-1zm-1 2c-0.554 0-1 0.446-1 1v2c0 0.554 0.446 1 1 1v-1h4.7754c0.54839-0.6101 1.3359-1 2.2246-1h1v-1c0-0.554-0.446-1-1-1h-6zm1 4v3h3v-2c0-0.35292 0.0707-0.68601 0.18164-1z" style="fill:#bebebe"/>
 </g>
</svg>
