<svg xmlns="http://www.w3.org/2000/svg" width="16" height="16" version="1.1">
 <title id="title9167">
  Gnome Symbolic Icon Theme
 </title>
 <g id="layer11" transform="translate(-123.00039,-529.0264)">
  <path fill="#241f31" d="m 127.95963,537.66101 0,2.36614 -3.59094,0 c -0.20663,0 -0.3683,0.20498 -0.3683,0.46705 l 0,1.05849 c 0,0.26197 0.16167,0.46705 0.3683,0.46705 3.42113,0 6.84225,0 10.26339,0 0.20664,0 0.36831,-0.20508 0.36831,-0.46705 l 0,-1.05849 c 0,-0.26197 -0.16167,-0.46705 -0.36831,-0.46705 l -3.65498,0 0,-2.36614 z"/>
  <path fill="#241f31" d="m 126.80038,529.0264 c -0.95124,0 -1.79999,0.79333 -1.79999,1.74593 l 0,6.61339 c 0,0.95261 0.84875,1.74594 1.86792,1.74594 l 5.26416,0 c 1.01917,0 1.86792,-0.79333 1.86792,-1.74594 l 0,-6.61339 c 0,-0.9526 -0.84875,-1.74593 -1.86792,-1.74593 z m 0.20001,2 5,0 c 1e-5,0.31661 0,-0.31595 0,0 l 0,6 0,0 -5,0 c 0,0 0,0.044 0,0 l 0,-6 c 0,-0.0439 0,0 0,0 z"/>
  <rect fill="#241f31" width="3" height="1.002" x="128" y="532"/>
  <rect fill="#241f31" width="1" height="1.002" x="130" y="534"/>
  <path fill="#241f31" d="m 132.22933,532.0264 c 0.0701,0 0,0.20877 0,0.47581 l 0,1.07827 c 0,0.26693 0.0701,0.47581 0.15975,0.47581 1.48385,0 2.96771,0 4.45157,0 0.0896,0 0.15974,-0.20888 0.15974,-0.47581 l 0,-1.07827 c 0,-0.26693 -0.0701,-0.47581 -0.15974,-0.47581 -0.15976,0 -4.5857,0.0631 -4.61132,0 z"/>
  <path fill="#241f31" d="m 128.97378,540.6506 c 0.0792,-0.0594 0.25217,0.0384 0.39407,0.22323 l 0.57302,0.74611 c 0.14184,0.18469 0.19083,0.37577 0.11162,0.43522 -1.31185,0.9846 -2.62371,1.96921 -3.93557,2.95382 -0.0792,0.0594 -0.25222,-0.0385 -0.39407,-0.22323 l -0.57302,-0.74611 c -0.14184,-0.18469 -0.19083,-0.37577 -0.11162,-0.43522 0,0 3.94648,-2.89315 3.93557,-2.95382 z"/>
  <path fill="#241f31" d="m 130.027,540.6506 c -0.0792,-0.0594 -0.25217,0.0384 -0.39407,0.22323 l -0.57302,0.74611 c -0.14184,0.18469 -0.19083,0.37577 -0.11162,0.43522 1.31185,0.9846 2.62371,1.96921 3.93557,2.95382 0.0792,0.0594 0.25222,-0.0385 0.39407,-0.22323 l 0.57302,-0.74611 c 0.14184,-0.18469 0.19083,-0.37577 0.11162,-0.43522 0,0 -3.94648,-2.89315 -3.93557,-2.95382 z"/>
 </g>
</svg>
