<svg xmlns="http://www.w3.org/2000/svg" width="16" height="16" version="1.1" viewBox="0 0 4.23 4.23">
 <g transform="matrix(0.10666141,0,0,0.10666141,-1.4957039,-25.953982)">
  <path fill="#808080" d="m 33.866666,247.59647 a 11.575522,12.117376 0 0 0 -11.575525,12.11734 11.575522,12.117376 0 0 0 0.132485,1.73442 8.2682302,8.6552689 0 0 0 -0.132485,-0.005 8.2682302,8.6552689 0 0 0 -8.268225,8.65536 8.2682302,8.6552689 0 0 0 8.268225,8.65519 h 21.497411 a 9.9218759,10.386323 0 0 0 9.921865,-10.3863 9.9218759,10.386323 0 0 0 -8.381265,-10.2511 11.575522,12.117376 0 0 0 -11.462486,-10.52152 z m 0,1.73104 a 9.9218759,10.386323 0 0 1 0.991554,0.0515 9.9218759,10.386323 0 0 1 4.608885,1.76491 9.9218759,10.386323 0 0 1 0.0037,0 9.9218759,10.386323 0 0 1 2.16719,2.11307 9.9218759,10.386323 0 0 1 0,0.005 9.9218759,10.386323 0 0 1 2.008915,4.72996 9.9218759,10.386323 0 0 1 0.141974,1.72419 8.2682302,8.6552689 0 0 1 1.647171,0.17225 8.2682302,8.6552689 0 0 1 0.797781,0.21274 8.2682302,8.6552689 0 0 1 0.0037,0 8.2682302,8.6552689 0 0 1 0.771918,0.29738 8.2682302,8.6552689 0 0 1 0.0037,0 8.2682302,8.6552689 0 0 1 0.739634,0.37542 8.2682302,8.6552689 0 0 1 0.0077,0.005 8.2682302,8.6552689 0 0 1 0.69764,0.44977 8.2682302,8.6552689 0 0 1 0.0077,0.005 8.2682302,8.6552689 0 0 1 0.652425,0.52043 8.2682302,8.6552689 0 0 1 0.0037,0.005 8.2682302,8.6552689 0 0 1 0.600739,0.5852 8.2682302,8.6552689 0 0 1 0.0038,0.005 8.2682302,8.6552689 0 0 1 1.023852,1.35238 8.2682302,8.6552689 0 0 1 0.0037,0.005 8.2682302,8.6552689 0 0 1 0.406939,0.74716 8.2682302,8.6552689 0 0 1 0.0037,0.005 8.2682302,8.6552689 0 0 1 0.335916,0.7844 8.2682302,8.6552689 0 0 1 0.0037,0.005 8.2682302,8.6552689 0 0 1 0.258355,0.81825 8.2682302,8.6552689 0 0 1 0,0.005 8.2682302,8.6552689 0 0 1 0.180862,0.8419 8.2682302,8.6552689 0 0 1 0,0.005 8.2682302,8.6552689 0 0 1 0.10007,0.85537 8.2682302,8.6552689 0 0 1 0.01898,0.61097 8.2682302,8.6552689 0 0 1 -8.268219,8.6552 h -21.497398 a 6.614584,6.9242151 0 0 1 -6.614593,-6.92415 6.614584,6.9242151 0 0 1 0.03235,-0.68974 6.614584,6.9242151 0 0 1 6.582294,-6.2345 6.614584,6.9242151 0 0 1 0.494136,0.0221 6.614584,6.9242151 0 0 1 0,0.004 6.614584,6.9242151 0 0 1 1.912035,0.45345 9.9218759,10.386323 0 0 1 -0.565227,-1.98464 9.9218759,10.386323 0 0 1 -0.122641,-0.87906 9.9218759,10.386323 0 0 1 -0.0225,-0.19948 9.9218759,10.386323 0 0 1 -0.04219,-0.87915 9.9218759,10.386323 0 0 1 0.04852,-1.03791 9.9218759,10.386323 0 0 1 9.873421,-9.34839 z"/>
 </g>
</svg>
