<svg xmlns="http://www.w3.org/2000/svg" width="16" height="16" version="1.1">
 <g transform="translate(-552,-300)">
  <path d="m 560,305 a 3,3 0 0 0 -3,3 3,3 0 0 0 2.35156,2.92578 c 0.0286,-0.0963 0.0662,-0.18899 0.13282,-0.26172 h 0.0117 0.0449 c 0.13867,0.0972 0.25989,0.21836 0.38476,0.33399 A 3,3 0 0 0 560,311 a 3,3 0 0 0 3,-3 3,3 0 0 0 -3,-3 z m 0,1.5 a 1.5,1.5 0 0 1 1.5,1.5 1.5,1.5 0 0 1 -1.5,1.5 1.5,1.5 0 0 1 -1.5,-1.5 1.5,1.5 0 0 1 1.5,-1.5 z" style="opacity:0.5;fill:#4d4d4d"/>
  <path d="m 560,300 a 8,8 0 0 0 -8,8 8,8 0 0 0 8,8 8,8 0 0 0 8,-8 8,8 0 0 0 -8,-8 z m 0,1 a 7,7 0 0 1 7,7 7,7 0 0 1 -7,7 7,7 0 0 1 -7,-7 7,7 0 0 1 7,-7 z" style="fill:#4d4d4d"/>
  <path d="m 564.5,304.65234 -5.5,5.5 -1,3.5 3.5,-1 5.5,-5.5 z m -5,6 1.5,1.5 -2,0.5 z" style="fill:#4d4d4d"/>
  <path d="m 560,302 c -3.31371,0 -6,2.68629 -6,6 0,2.61164 1.67072,4.82807 4,5.65234 l 0.3,-0.97234 c -1.8213,-0.79488 -3.29901,-2.6928 -3.3,-4.68 0,-2.76142 2.23858,-5 5,-5 z" style="opacity:0.5;fill:#4d4d4d"/>
 </g>
</svg>
