<svg xmlns="http://www.w3.org/2000/svg" width="16" height="16" version="1.1">
 <path d="m 6.3504464,8.0267285 q 0,1.095771 0.463248,1.728278 0.472161,0.6325285 1.2739453,0.6325285 0.7928715,0 1.2650325,-0.6325285 0.472161,-0.641421 0.472161,-1.728278 0,-1.077965 -0.4810699,-1.701558 -0.4721608,-0.632528 -1.2739412,-0.632528 -0.7839667,0 -1.2561277,0.632528 -0.463248,0.623593 -0.463248,1.701558 z m 3.6525596,2.6815065 q -0.2672612,0.632529 -0.8641421,0.988864 -0.5879721,0.347443 -1.3808475,0.347443 -1.532294,0 -2.4944296,-1.104685 -0.9532309,-1.1135785 -0.9532309,-2.8953215 0,-1.781722 0.9621358,-2.895322 0.9621397,-1.113578 2.4855247,-1.113578 0.7928754,0 1.3808475,0.356357 0.5968809,0.356336 0.8641421,0.988843 v -1.167022 h 1.861918 v 6.1737215 q 1.104677,-0.169286 1.737193,-1.0601355 0.632517,-0.899786 0.632517,-2.29845 0,-0.890871 -0.258353,-1.665921 -0.258353,-0.783965 -0.783963,-1.4343 Q 12.34599,2.8418708 11.072048,2.2538923 9.8070156,1.6659137 8.3281746,1.6659137 q -1.0334103,0 -1.9777282,0.2761714 Q 5.4061243,2.2093637 4.6043439,2.7349637 3.285858,3.608028 2.546436,4.9977785 q -0.730514,1.380835 -0.730514,2.993314 0,1.327393 0.472161,2.4944355 0.48107,1.158129 1.3808478,2.049 0.8908689,0.873043 2.0400903,1.327393 1.1581264,0.463243 2.4677032,0.463243 1.1224948,0 2.2449897,-0.418714 1.122495,-0.418693 1.915367,-1.131386 l 0.95323,1.443193 q -1.113585,0.86415 -2.432071,1.3185 Q 9.5486629,16 8.1945419,16 6.546437,16 5.0854098,15.412021 3.6243866,14.832957 2.484074,13.719378 1.343761,12.605799 0.746881,11.144757 0.15,9.6748425 0.15,7.9910925 0.15,6.3697205 0.755789,4.8997855 1.361579,3.4298494 2.484074,2.3162494 3.6065689,1.2115851 5.0943187,0.60579937 6.5909812,-7.83e-6 8.1945419,-7.83e-6 q 1.9955461,0 3.6258381,0.7661572 1.630287,0.75724283 2.726055,2.19152153 0.668152,0.8730646 1.006684,1.8975646 0.347436,1.015585 0.347436,2.138078 0,2.41425 -1.452113,3.7505575 -1.452118,1.336307 -4.097998,1.336307 h -0.347438 z" style="fill:#808080"/>
</svg>
