<?xml version="1.0" encoding="UTF-8" standalone="no"?>
<svg
   xmlns:dc="http://purl.org/dc/elements/1.1/"
   xmlns:cc="http://creativecommons.org/ns#"
   xmlns:rdf="http://www.w3.org/1999/02/22-rdf-syntax-ns#"
   xmlns:svg="http://www.w3.org/2000/svg"
   xmlns="http://www.w3.org/2000/svg"
   xmlns:sodipodi="http://sodipodi.sourceforge.net/DTD/sodipodi-0.dtd"
   xmlns:inkscape="http://www.inkscape.org/namespaces/inkscape"
   version="1.1"
   viewBox="0 0 16 16"
   id="svg7"
   sodipodi:docname="scribus.svg"
   inkscape:version="0.92.3 (2405546, 2018-03-11)">
  <metadata
     id="metadata11">
    <rdf:RDF>
      <cc:Work
         rdf:about="">
        <dc:format>image/svg+xml</dc:format>
        <dc:type
           rdf:resource="http://purl.org/dc/dcmitype/StillImage" />
      </cc:Work>
    </rdf:RDF>
  </metadata>
  <sodipodi:namedview
     pagecolor="#ffffff"
     bordercolor="#666666"
     borderopacity="1"
     objecttolerance="10"
     gridtolerance="10"
     guidetolerance="10"
     inkscape:pageopacity="0"
     inkscape:pageshadow="2"
     inkscape:window-width="1920"
     inkscape:window-height="1009"
     id="namedview9"
     showgrid="false"
     inkscape:zoom="14.75"
     inkscape:cx="8"
     inkscape:cy="8"
     inkscape:window-x="0"
     inkscape:window-y="34"
     inkscape:window-maximized="1"
     inkscape:current-layer="svg7" />
  <defs
     id="defs3">
    <style
       id="current-color-scheme"
       type="text/css">
   .ColorScheme-Text { color:#241f31; }
  </style>
  </defs>
  <g
     id="g892"
     transform="matrix(0.57690865,0,0,0.57690865,-7.7918215,11.96629)"
     style="fill:#241f31;fill-opacity:1;stroke-width:1.73335934">
    <path
       d="m 29.1,-14.941 c -0.21,-0.21 -0.548,-0.219 -0.768,-0.02 -1.137,1.021 -7.112,6.208 -13.149,8.04 l -0.065,0.02 c -0.157,0.048 -0.285,0.162 -0.35,0.312 -0.065,0.151 -0.061,0.322 0.011,0.469 l 0.03,0.061 c 0,10e-5 1e-4,0.002 1e-4,0.002 0.021,0.043 0.891,1.86 1,4.421 0.07,1.592 -0.161,3.122 -0.684,4.551 -0.187,0.015 -0.37,0.093 -0.513,0.236 -0.319,0.319 -0.319,0.835 0,1.154 0.319,0.319 0.835,0.319 1.154,0 0.184,-0.184 0.261,-0.435 0.232,-0.674 l 5.849,-5.849 c 0.146,-0.146 0.2,-0.36 0.139,-0.557 -0.207,-0.68 -0.022,-1.415 0.482,-1.919 0.364,-0.364 0.847,-0.564 1.362,-0.564 0.515,0 0.999,0.2 1.362,0.564 0.364,0.364 0.564,0.847 0.564,1.362 0,0.514 -0.2,0.998 -0.564,1.362 -0.364,0.364 -0.847,0.564 -1.361,0.564 -0.191,0 -0.379,-0.028 -0.559,-0.082 -0.197,-0.06 -0.411,-0.006 -0.557,0.139 L 16.8671,4.5 c -0.24,-0.029 -0.491,0.048 -0.675,0.232 -0.319,0.319 -0.318,0.835 0,1.154 0.319,0.319 0.835,0.319 1.154,0 0.143,-0.143 0.221,-0.326 0.236,-0.513 1.26,-0.462 2.601,-0.696 3.988,-0.696 0.174,0 0.352,0.004 0.529,0.011 2.569,0.106 4.442,0.999 4.459,1.01 l 0.059,0.029 c 0.078,0.038 0.162,0.057 0.246,0.057 0.076,0 0.151,-0.015 0.223,-0.046 0.15,-0.065 0.264,-0.193 0.312,-0.35 l 0.02,-0.065 c 1.834,-6.04 7.02,-12.01 8.04,-13.149 0.198,-0.221 0.189,-0.558 -0.021,-0.768 l -6.344,-6.345"
       id="path888"
       inkscape:connector-curvature="0"
       style="fill:#241f31;fill-opacity:1;stroke-width:1.73335934" />
    <path
       d="m 40.21,-13.224 -6.488,-6.487 c -0.105,-0.105 -0.247,-0.164 -0.395,-0.164 -0.148,0 -0.29,0.059 -0.395,0.163 l -2.776,2.776 c -0.218,0.218 -0.218,0.572 0,0.79 l 6.488,6.487 c 0.105,0.105 0.247,0.164 0.395,0.164 0.148,0 0.29,-0.059 0.395,-0.164 l 2.776,-2.776 c 0.218,-0.218 0.218,-0.572 0,-0.79"
       id="path890"
       inkscape:connector-curvature="0"
       style="fill:#241f31;fill-opacity:1;stroke-width:1.73335934" />
  </g>
</svg>
