<svg xmlns="http://www.w3.org/2000/svg" width="16" height="16" version="1.1">
 <g transform="translate(-132.00001,-140)">
  <path d="m 146.49023,140.99609 c -0.12976,0.004 -0.25303,0.0575 -0.34375,0.15039 l -0.48632,0.48633 c -0.21492,-0.10289 -0.45127,-0.1531 -0.68946,-0.14648 -0.38956,0.0113 -0.75941,0.17386 -1.03125,0.45312 l -1.64648,1.64649 -0.93945,-0.93946 c -0.0942,-0.0974 -0.2239,-0.15234 -0.35938,-0.15234 -0.44941,8e-5 -0.6706,0.54683 -0.34766,0.85938 l 0.93946,0.93945 -6.14649,6.14648 c -0.35526,0.34249 -0.50915,0.82822 -0.43945,1.29883 v 0.55469 l -1.85352,1.85351 0.70704,0.70704 L 135.70703,153 h 0.54492 c 0.47378,0.0725 0.96431,-0.081 1.3086,-0.43945 l 6.14648,-6.14649 0.93945,0.93946 c 0.47127,0.49023 1.19727,-0.23577 0.70704,-0.70704 l -0.93946,-0.93945 1.64649,-1.64648 c 0.45873,-0.44877 0.5812,-1.13965 0.30468,-1.71875 l 0.48829,-0.48828 c 0.32529,-0.31801 0.0914,-0.86991 -0.36329,-0.85743 z m -4.09375,3.90039 0.70704,0.70704 L 139.70703,149 h -1.41406 z" style="fill:#4d4d4d"/>
 </g>
</svg>
