<svg xmlns="http://www.w3.org/2000/svg" width="16" height="16" version="1.1">
 <title id="title9167">
  Gnome Symbolic Icon Theme
 </title>
 <g id="layer10" transform="translate(-161 -447)">
  <path fill="#444" d="m169 463c3 0 4-1 4-1h-1-6-1s1 1 4 1z"/>
  <g>
   <path fill="#444" d="M 3,1 C 1.338,1 0,2.338 0,4 v 7 c 0,1.662 1.338,3 3,3 h 10 c 1.662,0 3,-1.338 3,-3 V 4 C 16,2.338 14.662,1 13,1 Z m 0,2 h 5 v 6 c 0,0 4.564786,0.00487 6,0 v 2 c 0,0.554 -0.446,1 -1,1 H 3 C 2.446,12 2,11.554 2,11 V 4 C 2,3.446 2.446,3 3,3 Z m 7,0 h 1 v 3 h 3 v 1 h -4 z" transform="translate(161,447)"/>
  </g>
 </g>
</svg>
