<svg width="16" height="16" version="1.1" xmlns="http://www.w3.org/2000/svg">
 <g transform="translate(-612,-219.99994)">
  <path d="m615.99414 221c-1.2582 0.0145-2.17889-0.0306-2.93164 0.38477-0.37637 0.20766-0.67323 0.55938-0.83789 0.99804-0.16467 0.43867-0.22461 0.95958-0.22461 1.61719v8c0 0.65761 0.0599 1.17853 0.22461 1.61719 0.16467 0.43866 0.46152 0.79039 0.83789 0.99804 0.75275 0.41532 1.67345 0.3702 2.93164 0.38477h8.0119c1.25819-0.0145 2.17889 0.0306 2.93164-0.38477 0.37637-0.20766 0.67322-0.55938 0.83789-0.99804 0.16413-0.43867 0.22443-0.95958 0.22443-1.61719v-8c0-0.65761-0.0599-1.17852-0.22461-1.61719-0.16466-0.43866-0.46152-0.79038-0.83789-0.99804-0.75275-0.41534-1.67344-0.37025-2.93164-0.38477h-8.0079zm9.00586 2c0.554 0 1 0.446 1 1s-0.446 1-1 1-1-0.446-1-1 0.446-1 1-1zm-5 1c2.216 0 4 1.784 4 4s-1.784 4-4 4-4-1.784-4-4 1.784-4 4-4z" style="fill:#241f31"/>
  <rect x="617" y="225" width="6" height="6" rx="3" ry="3" style="fill:#241f31"/>
 </g>
</svg>
