<svg xmlns="http://www.w3.org/2000/svg" xmlns:osb="http://www.openswatchbook.org/uri/2009/osb" width="16" height="16" version="1.1">
 <title id="title9167">
  Gnome Symbolic Icon Theme
 </title>
 <defs>
  <linearGradient id="linearGradient19282" gradientTransform="matrix(-2.7365795,0.28202934,-0.18908311,-0.99988321,239.54008,-879.45557)" osb:paint="solid">
   <stop id="stop19284" offset="0" style="stop-color:#666666"/>
  </linearGradient>
 </defs>
 <g id="layer12" transform="translate(-241.0002,-767)">
  <path fill="#241f31" d="M 11.087891 0.05078125 A 1.0001 1.0001 0 0 0 10.201172 0.5546875 L 6.9121094 6.1386719 L 5.21875 5.09375 C 4.46209 4.71653 3.9958612 4.9479631 3.7070312 5.5332031 L 3.6894531 6.4394531 L 9.7089844 9.9609375 L 10.330078 9.7441406 C 10.985408 9.2602206 10.769566 8.4631575 10.166016 8.1484375 L 8.6152344 7.1894531 L 11.923828 1.5703125 A 1.0001 1.0001 0 0 0 11.087891 0.05078125 z M 3.0546875 7.4882812 L 1.5253906 10.140625 C 0.47199062 11.965185 1.4774288 14.029297 3.6679688 14.029297 L 9.0371094 14.029297 L 8.0878906 13.212891 C 7.8669106 13.080311 7.77903 12.748929 8 12.505859 L 9.0429688 10.962891 L 3.0546875 7.4882812 z" transform="translate(241.0002,767)"/>
 </g>
</svg>
