<svg xmlns="http://www.w3.org/2000/svg" width="16" height="16" version="1.1">
 <g transform="translate(-492,-220)">
  <path d="m 495.99414,221 c -1.2582,0.0145 -2.17889,-0.0306 -2.93164,0.38477 -0.37637,0.20766 -0.67323,0.55938 -0.83789,0.99804 C 492.05994,222.82148 492,223.34239 492,224 v 8 c 0,0.65761 0.0599,1.17858 0.22461,1.61719 0.16468,0.43861 0.46153,0.78852 0.83789,0.99609 0.75272,0.41513 1.67354,0.37165 2.93164,0.38672 h 0.002 8.00586 0.004 c 1.25819,-0.0145 2.17889,0.0306 2.93164,-0.38477 0.37637,-0.20766 0.67322,-0.55938 0.83789,-0.99804 C 507.94006,233.17852 508,232.65761 508,232 v -8 c 0,-0.65761 -0.0599,-1.17858 -0.22461,-1.61719 -0.16468,-0.43861 -0.46153,-0.78852 -0.83789,-0.99609 -0.75272,-0.41513 -1.67355,-0.37165 -2.93164,-0.38672 h -0.002 -8.00586 z m 0.006,1 h 8 c 1.25862,0.0152 2.0891,0.0599 2.45508,0.26172 0.18342,0.10116 0.28722,0.21286 0.38476,0.47266 C 506.93739,222.99417 507,223.40761 507,224 v 8 c 0,0.59239 -0.0626,1.00572 -0.16016,1.26562 -0.0976,0.25991 -0.20135,0.37147 -0.38476,0.47266 C 506.08912,233.9402 505.25852,233.98529 504,234 H 496.00586 496 c -1.25863,-0.0152 -2.0891,-0.0599 -2.45508,-0.26172 -0.18342,-0.10116 -0.28722,-0.21286 -0.38476,-0.47266 C 493.06261,233.00583 493,232.59239 493,232 v -8 c 0,-0.59239 0.0626,-1.00572 0.16016,-1.26562 0.0976,-0.25991 0.20135,-0.37147 0.38476,-0.47266 C 493.91088,222.0598 494.74147,222.0147 496,222 Z" style="fill:#808080"/>
  <path d="m 501.5,228 c -0.277,0 -0.5,0.223 -0.5,0.5 0,0.277 0.223,0.5 0.5,0.5 h 2 c 0.277,0 0.5,0.223 0.5,0.5 0,0 0,0.11065 0,0.25 0,0.1385 -0.1115,0.25 -0.25,0.25 H 503 502.25 501.5 c -0.277,0 -0.5,0.223 -0.5,0.5 v 2 c 0,0.277 0.223,0.5 0.5,0.5 h 3 0.5 v -0.5 -3 -0.5 c 0,-0.554 -0.446,-1 -1,-1 h -0.5 z m 0.75,3 h 1.5 c 0.1385,0 0.25,0.1115 0.25,0.25 v 0.5 c 0,0.1385 -0.1115,0.25 -0.25,0.25 h -1.5 c -0.1385,0 -0.25,-0.1115 -0.25,-0.25 v -0.5 c 0,-0.1385 0.1115,-0.25 0.25,-0.25 z" style="fill:#808080"/>
  <path d="m 502.86588,225.14782 0.98575,0.99775 c 0.19608,0.19847 0.19889,0.51087 0,0.7066 -0.19889,0.19573 -0.52194,0.19847 -0.71802,0 l -0.98575,-0.99775 c -0.19609,-0.19848 -0.19889,-0.51087 0,-0.7066 0.19889,-0.19573 0.52193,-0.19847 0.71802,0 z" style="fill:#808080"/>
 </g>
</svg>
