<svg xmlns="http://www.w3.org/2000/svg" width="16" height="16" version="1.1">
 <g transform="translate(-331.99997,-239.99994)">
  <path style="fill:#808080" d="m 339.7619,255.27158 c -2.6342,-0.7307 -3.64646,-3.86643 -2.26009,-7.00124 0.21535,-0.48698 0.39086,-0.9299 0.38999,-0.98428 -8.5e-4,-0.0546 -0.54208,-0.11395 -1.20271,-0.13214 -2.1269,-0.059 -3.82437,-0.81774 -4.42723,-1.97908 -0.34322,-0.66114 -0.35038,-2.09755 -0.0138,-2.74595 0.43013,-0.8284 1.26885,-1.44073 2.25329,-1.6451 1.0568,-0.21936 1.13012,-0.20785 5.20982,0.81384 2.88387,0.72224 3.28642,0.78615 4.58417,0.72766 1.16349,-0.0523 1.58493,-0.14551 2.31328,-0.50992 0.49054,-0.24573 1.00535,-0.40177 1.14604,-0.34779 1.14213,0.43824 -1.94208,2.03371 -4.35397,2.25225 -1.43501,0.12992 -2.79491,-0.0701 -6.00742,-0.88444 -3.08078,-0.78088 -3.59611,-0.79843 -4.14911,-0.14104 -0.30985,0.36821 -0.40923,0.6621 -0.40923,1.21003 0,0.63872 0.0742,0.79432 0.63262,1.32547 0.82396,0.78382 1.86504,1.08888 3.70361,1.08525 l 1.4335,-0.003 0.52381,-0.80092 c 0.3993,-0.61051 0.71514,-0.88537 1.32864,-1.1561 0.44264,-0.19525 0.96736,-0.32404 1.16606,-0.28619 0.35799,0.0683 0.35613,0.0768 -0.20656,0.92424 -0.31228,0.47035 -0.53924,0.87917 -0.50432,0.90852 0.0349,0.0297 0.56142,-0.0728 1.17,-0.22716 1.0094,-0.2561 1.12363,-0.25871 1.30143,-0.0297 0.37111,0.47878 -0.0813,0.70171 -2.40795,1.18635 l -0.94845,0.19747 -0.5634,1.13635 c -1.67259,3.37363 -1.06407,6.37221 1.29316,6.37221 0.46701,0 1.03012,-0.12508 1.3913,-0.30957 2.07162,-1.05684 3.30021,-4.74882 1.58029,-4.74882 -0.93244,0 -2.06768,0.94052 -2.64569,2.19195 -0.30696,0.66458 -0.46997,0.81398 -0.7647,0.70089 -0.76342,-0.29286 0.6889,-2.69764 2.04804,-3.39099 1.72954,-0.88236 3.34077,-9.8e-4 3.34011,1.82622 -9.5e-4,2.70569 -3.31423,5.1939 -5.94459,4.46424 z"/>
 </g>
</svg>
