<svg xmlns="http://www.w3.org/2000/svg" width="16" height="16" version="1.1" viewBox="0 0 4.23 4.23">
 <g transform="translate(0,-292.76665)">
  <g transform="matrix(0.01081181,0,0,0.01081181,-0.26360576,292.20512)" style="fill:#808080;enable-background:new">
   <g style="fill:#808080" transform="matrix(1.2463937,0,0,-1.2463937,67.228557,198.82457)">
    <path d="m 0,0 -24.56,42.513 49.098,0.013 z" style="fill:#808080"/>
   </g>
   <g style="fill:#808080" transform="matrix(1.2463937,0,0,-1.2463937,67.214596,198.82083)">
    <path d="M 0,0 24.549,42.52 49.098,0 Z" style="fill:#808080"/>
   </g>
   <g style="fill:#808080" transform="matrix(1.2463937,0,0,-1.2463937,97.826649,251.82483)">
    <path d="m 0,0 -24.56,42.513 49.098,0.013 z" style="fill:#808080"/>
   </g>
   <g style="fill:#808080" transform="matrix(1.2463937,0,0,-1.2463937,97.812689,251.82124)">
    <path d="M 0,0 24.549,42.52 49.098,0 Z" style="fill:#808080"/>
   </g>
   <g style="fill:#808080" transform="matrix(1.2463937,0,0,-1.2463937,128.42412,304.82887)">
    <path d="m 0,0 -24.56,42.513 49.098,0.013 z" style="fill:#808080"/>
   </g>
   <g style="fill:#808080" transform="matrix(1.2463937,0,0,-1.2463937,128.41016,304.82524)">
    <path d="M 0,0 24.549,42.52 49.098,0 Z" style="fill:#808080"/>
   </g>
   <g style="fill:#808080" transform="matrix(1.2463937,0,0,-1.2463937,159.02172,357.83286)">
    <path d="m 0,0 -24.56,42.513 49.098,0.013 z" style="fill:#808080"/>
   </g>
   <g style="fill:#808080" transform="matrix(1.2463937,0,0,-1.2463937,159.00763,357.82913)">
    <path d="M 0,0 24.549,42.52 49.098,0 Z" style="fill:#808080"/>
   </g>
   <g style="fill:#808080" transform="matrix(1.2463937,0,0,-1.2463937,220.21728,357.83286)">
    <path d="m 0,0 -24.56,42.513 49.098,0.013 z" style="fill:#808080"/>
   </g>
   <g style="fill:#808080" transform="matrix(1.2463937,0,0,-1.2463937,189.60461,304.82524)">
    <path d="M 0,0 24.549,42.52 49.098,0 Z" style="fill:#808080"/>
   </g>
   <g style="fill:#808080" transform="matrix(1.2463937,0,0,-1.2463937,250.81602,304.82338)">
    <path d="m 0,0 -24.56,42.513 49.098,0.013 z" style="fill:#808080"/>
   </g>
   <g style="fill:#808080" transform="matrix(1.2463937,0,0,-1.2463937,220.20332,251.81573)">
    <path d="M 0,0 24.549,42.52 49.099,0 Z" style="fill:#808080"/>
   </g>
   <g style="fill:#808080" transform="matrix(1.2463937,0,0,-1.2463937,281.4141,251.82672)">
    <path d="m 0,0 -24.56,42.513 49.099,0.013 z" style="fill:#808080"/>
   </g>
   <g style="fill:#808080" transform="matrix(1.2463937,0,0,-1.2463937,250.80205,198.8191)">
    <path d="M 0,0 24.549,42.52 49.098,0 Z" style="fill:#808080"/>
   </g>
   <g style="fill:#808080" transform="matrix(1.2463937,0,0,-1.2463937,250.93779,304.76803)">
    <path d="m 0,0 -24.561,42.513 49.099,0.013 z" style="fill:#808080"/>
   </g>
   <g style="fill:#808080" transform="matrix(1.2463937,0,0,-1.2463937,220.3256,251.76028)">
    <path d="M 0,0 24.549,42.52 49.098,0 Z" style="fill:#808080"/>
   </g>
   <g style="fill:#808080" transform="matrix(1.2463937,0,0,-1.2463937,281.53587,251.76577)">
    <path d="m 0,0 -24.559,42.513 49.098,0.013 z" style="fill:#808080"/>
   </g>
   <g style="fill:#808080" transform="matrix(1.2463937,0,0,-1.2463937,250.9232,198.75814)">
    <path d="M 0,0 24.549,42.52 49.098,0 Z" style="fill:#808080"/>
   </g>
   <g style="fill:#808080" transform="matrix(1.2463937,0,0,-1.2463937,312.13582,198.76363)">
    <path d="m 0,0 -24.561,42.513 49.098,0.013 z" style="fill:#808080"/>
   </g>
   <g style="fill:#808080" transform="matrix(1.2463937,0,0,-1.2463937,311.89727,198.82083)">
    <path d="M 0,0 24.549,42.52 49.1,0 Z" style="fill:#808080"/>
   </g>
   <g style="fill:#808080" transform="matrix(1.2463937,0,0,-1.2463937,373.08735,198.76124)">
    <path d="M 0,0 -24.543,42.522 24.555,42.516 Z" style="fill:#808080"/>
   </g>
   <g style="fill:#808080" transform="matrix(1.2463937,0,0,-1.2463937,250.77947,304.59206)">
    <path d="M 0,0 24.786,42.383 49.098,-0.273 Z" style="fill:#808080"/>
   </g>
   <g style="fill:#808080" transform="matrix(1.2463937,0,0,-1.2463937,281.30216,357.76096)">
    <path d="M 0,0 24.549,42.52 49.1,0 Z" style="fill:#808080"/>
   </g>
   <g style="fill:#808080" transform="matrix(1.2463937,0,0,-1.2463937,342.5118,357.76644)">
    <path d="m 0,0 -24.559,42.513 49.098,0.013 z" style="fill:#808080"/>
   </g>
   <g style="fill:#808080" transform="matrix(1.2463937,0,0,-1.2463937,342.4971,357.75562)">
    <path d="M 0,0 24.549,42.52 49.098,0 Z" style="fill:#808080"/>
   </g>
   <g style="fill:#808080" transform="matrix(1.2463937,0,0,-1.2463937,281.31674,357.76644)">
    <path d="m 0,0 -24.56,42.513 49.097,0.013 z" style="fill:#808080"/>
   </g>
  </g>
 </g>
</svg>
