<svg width="16" height="16" version="1.1" xmlns="http://www.w3.org/2000/svg">
 <g transform="translate(0,-32)">
  <g transform="matrix(.34414011 0 0 .34414011 -.35768841 32.158118)">
   <path transform="matrix(2.9057932 0 0 2.9057932 1.0393686 -.45945821)" d="m2.7773438 9.5410156c-0.2247808 0-0.40625 0.2046218-0.40625 0.4589844l-1.5214844 5.042969c-1e-8 0.254362 0.18146922 0.458984 0.40625002 0.458984h13.488282c0.224781 0 0.40625-0.204622 0.40625-0.458984l-1.419922-5.042969c0-0.2543626-0.18147-0.4589844-0.40625-0.4589844h-1.46875c0.152055 0.4203969-0.211624 0.7547934-0.191407 0.8222654-0.590008 0.648925-2.0513632 1.103516-3.6621089 1.103516-1.6778599 0-3.1094143-0.491194-3.6542969-1.183594 0.039094-0.123371-0.3874138-0.4192846-0.2597656-0.7421874h-1.3105468zm1.3769531 0.6347654c0.2244454 0.284713 0.5004097 0.624181 0.5292969 0.667969 0.0821689 0.124548 1.423462 0.498385 1.6425781 0.591797 0.219116 0.093413 2.4112398 0.402785 2.9316406 0.341797 0.5204008-0.060991 2.5742185-0.777344 2.5742185-0.777344s0.172987-0.184257 0.222657-0.236328c0.008191 0.026149 0.107421 0.351562 0.107421 0.351562 0.004488 0.006419 0.005423 0.013079 0.009766 0.019532 0.119051 0.17689 0.191406 0.362502 0.191406 0.55664 0 1.073186-1.95229 1.9375-4.363281 1.9375-2.4109905 0-4.3632812-0.864314-4.3632812-1.9375-1e-7 -0.213605 0.0796085-0.415174 0.2226562-0.607422 0 0 0.2391295-0.73938 0.2949219-0.908203z" style="fill:#241f31"/>
   <g transform="translate(-.1205365)" style="fill:#241f31">
    <path transform="matrix(2.9057932 0 0 2.9057932 1.1599051 -.45945821)" d="m8.0292969 0.49609375c-0.2106011 0.00431102-0.4169755 0.05399229-0.6367188 0.14453125-0.1136426 0.04682298-0.2019666 0.15400665-0.234375 0.26171875-0.9801754 3.2577278-3.2988281 9.3886722-3.2988281 9.3886722-0.1430477 0.169109-0.2226562 0.343354-0.2226562 0.53125 0 0.94402 1.9522907 1.705078 4.3632812 1.705078 2.410991 0 4.363281-0.761058 4.363281-1.705078 0-0.170773-0.072355-0.330728-0.191406-0.486328-0.004343-0.005675-0.005278-0.011931-0.009766-0.017579 0 0-2.2631549-6.3401115-3.2050778-9.4707028-0.0316883-0.10532824-0.1529848-0.18381314-0.265625-0.2265625-0.2364635-0.08974338-0.4515082-0.12931102-0.6621093-0.125zm-0.8730469 1.8320312c0.3521014 0.0619283 0.4494446 0.0976563 0.84375 0.0976562 0.4076553 0 0.6102008-0.0315499 0.9726562-0.0976562 0.2421942 0.9223659 0.6683091 1.9193027 0.9472657 2.9277344-0.5578264 0.196728-1.1913233 0.3144531-1.9199219 0.3144531-0.7201965 0-1.2571685-0.1125252-1.8105469-0.3046875 0.2887346-1.0038144 0.7173566-2.0050858 0.9667969-2.9375zm-1.8652344 5.3535156c0.7087803 0.3526304 1.5896898 0.5722656 2.7109375 0.5722656 1.100292 0 2.0465919-0.2131138 2.7539059-0.5527343 0.381371 1.2983167 0.864028 2.5146911 0.908203 2.6621091-0.590009 0.648925-2.0513632 1.103516-3.6621089 1.103516-1.6778599 0-3.1094143-0.491194-3.6542969-1.183594 0.0955065-0.3013968 0.5268886-1.2469144 0.9433594-2.6015624z" style="fill:#241f31"/>
   </g>
  </g>
 </g>
</svg>
