<?xml version="1.0" encoding="UTF-8" standalone="no"?>
<!-- Created with Inkscape (http://www.inkscape.org/) -->

<svg
   xmlns:osb="http://www.openswatchbook.org/uri/2009/osb"
   xmlns:dc="http://purl.org/dc/elements/1.1/"
   xmlns:cc="http://creativecommons.org/ns#"
   xmlns:rdf="http://www.w3.org/1999/02/22-rdf-syntax-ns#"
   xmlns:svg="http://www.w3.org/2000/svg"
   xmlns="http://www.w3.org/2000/svg"
   xmlns:sodipodi="http://sodipodi.sourceforge.net/DTD/sodipodi-0.dtd"
   xmlns:inkscape="http://www.inkscape.org/namespaces/inkscape"
   sodipodi:docname="xchat-symbolic.svg"
   height="16"
   id="svg7384"
   inkscape:version="0.92.3 (2405546, 2018-03-11)"
   version="1.1"
   width="16">
  <metadata
     id="metadata90">
    <rdf:RDF>
      <cc:Work
         rdf:about="">
        <dc:format>image/svg+xml</dc:format>
        <dc:type
           rdf:resource="http://purl.org/dc/dcmitype/StillImage" />
        <dc:title>Gnome Symbolic Icon Theme</dc:title>
      </cc:Work>
    </rdf:RDF>
  </metadata>
  <sodipodi:namedview
     inkscape:bbox-paths="true"
     bordercolor="#666666"
     borderopacity="1"
     inkscape:current-layer="layer9"
     inkscape:cx="19.404906"
     inkscape:cy="5.972405"
     gridtolerance="10"
     inkscape:guide-bbox="true"
     guidetolerance="10"
     id="namedview88"
     inkscape:object-nodes="false"
     inkscape:object-paths="false"
     objecttolerance="10"
     pagecolor="#ffffff"
     inkscape:pageopacity="1"
     inkscape:pageshadow="2"
     showborder="true"
     showgrid="false"
     showguides="false"
     inkscape:snap-bbox="true"
     inkscape:snap-bbox-midpoints="false"
     inkscape:snap-global="true"
     inkscape:snap-grids="true"
     inkscape:snap-nodes="true"
     inkscape:snap-others="false"
     inkscape:snap-to-guides="true"
     inkscape:window-height="1009"
     inkscape:window-maximized="1"
     inkscape:window-width="1920"
     inkscape:window-x="0"
     inkscape:window-y="34"
     inkscape:zoom="23.709365">
    <inkscape:grid
       empspacing="2"
       enabled="true"
       id="grid4866"
       originx="-81.999998"
       originy="-342"
       snapvisiblegridlinesonly="true"
       spacingx="1"
       spacingy="1"
       type="xygrid"
       visible="true" />
    <sodipodi:guide
       position="7.4347305,8.7760479"
       orientation="0,1"
       id="guide818"
       inkscape:locked="false" />
  </sodipodi:namedview>
  <title
     id="title9167">Gnome Symbolic Icon Theme</title>
  <defs
     id="defs7386">
    <linearGradient
       id="linearGradient7212"
       osb:paint="solid">
      <stop
         id="stop7214"
         offset="0"
         style="stop-color:#241f31;stop-opacity:1;" />
    </linearGradient>
  </defs>
  <g
     inkscape:groupmode="layer"
     id="layer9"
     inkscape:label="apps"
     style="display:inline"
     transform="translate(-323.0002,125)">
    <path
       style="color:#ffffff;fill:#241f31;fill-opacity:1;fill-rule:evenodd;stroke-width:0.86453205"
       d="m 326.80879,-123.11338 c -0.22099,0 -0.45176,0.0728 -0.62109,0.24219 l -1.2168,1.21679 c -0.33867,0.33867 -0.33867,0.90355 0,1.24219 l 0.75781,0.75586 h 4.91602 l -3.21485,-3.21484 c -0.16933,-0.16933 -0.4001,-0.24219 -0.62109,-0.24219 z m 7.94336,0 c -0.22602,0 -0.45177,0.0728 -0.6211,0.24219 l -3.21679,3.21484 h 4.91797 l 0.75586,-0.75586 c 0.33867,-0.33867 0.33867,-0.90355 0,-1.24219 l -1.21485,-1.21679 c -0.16933,-0.16933 -0.39507,-0.24219 -0.62109,-0.24219 z m -7.01563,3.89648 a 0.43230925,0.43230925 0 0 0 -0.41406,0.42579 v 1.29687 1.72852 a 0.43230925,0.43230925 0 1 0 0.86328,0 v -1.29688 h 0.86524 v 1.29688 a 0.432617,0.432617 0 0 0 0.86523,0 v -1.72852 a 0.43230925,0.43230925 0 0 0 -0.43359,-0.43164 h -1.29688 v -0.86523 a 0.43230925,0.43230925 0 0 0 -0.44922,-0.42579 z m 9.50977,0 a 0.43230925,0.43230925 0 0 0 -0.41406,0.42579 v 0.86523 h -0.43164 a 0.43230925,0.43230925 0 0 0 0,0.86328 h 0.43164 v 1.29688 a 0.43230925,0.43230925 0 0 0 0.43164,0.43359 h 1.29687 a 0.43261695,0.43261695 0 1 0 0,-0.86523 h -0.86328 v -0.86524 h 0.86328 a 0.43230925,0.43230925 0 1 0 0,-0.86328 h -0.86328 v -0.86523 a 0.43230925,0.43230925 0 0 0 -0.45117,-0.42579 z m -13.81445,1.29102 a 0.43230925,0.43230925 0 0 0 -0.43164,0.43164 v 1.72852 a 0.43230925,0.43230925 0 0 0 0.43164,0.43359 h 1.72851 a 0.43261695,0.43261695 0 1 0 0,-0.86523 h -1.29687 v -0.86524 h 1.29687 a 0.43230925,0.43230925 0 1 0 0,-0.86328 z m 8.64453,0 a 0.43230925,0.43230925 0 0 0 -0.43164,0.43164 v 1.72852 a 0.43230925,0.43230925 0 0 0 0.43164,0.43359 h 0.64843 a 0.43261695,0.43261695 0 1 0 0,-0.86523 h -0.21484 v -0.86524 h 0.86328 v 1.29688 a 0.43262,0.43262 0 0 0 0.86524,0 v -1.72852 a 0.43230925,0.43230925 0 0 0 -0.43164,-0.43164 z m -6.34961,3.45703 -0.75586,0.75781 c -0.33867,0.33868 -0.33867,0.90355 0,1.24219 l 1.2168,1.21485 c 0.33868,0.33867 0.90354,0.33867 1.24218,0 l 3.21485,-3.21485 z m 5.1875,0 3.21484,3.21485 c 0.33867,0.33866 0.90551,0.33866 1.24414,0 l 1.21485,-1.21485 c 0.33867,-0.33868 0.33867,-0.90355 0,-1.24219 l -0.75586,-0.75781 z"
       id="rect3637"
       inkscape:connector-curvature="0" />
  </g>
</svg>
