<svg enable-background="new" height="16" width="16" xmlns="http://www.w3.org/2000/svg">
  <g fill="#e6ddff" transform="translate(-285.0004 395.00335)">
    <path d="m299.99704-387.00316c0 .554-.446 1-1 1h-1.59375l-6.19141-6.19141-.24609-.74609c-.26171-1.04691-.2647-1.06251.53125-1.0625.43199 0 .43388.0117.71875.5l3.6875 5.5h3.09375c.554 0 1 .446 1 1zm-4.62109 1.78516-3.16016 4.71484c-.2665.45685-.2833.49822-.65625.5h-.0625c-.79399-.00097-.78071-.0333-.53125-1.03125l1.625-4.96875h-4.5l-1.21875 1.78125c-.13925.20883-.1227.21873-.34375.21875h-.21875c-.42773 0-.28125-.4375-.28125-.4375l.28125-2.5625-.28125-2.5625s-.13986-.43749.25-.4375h.25c.21159 0 .20423.009.34375.21875l1.21875 1.78125h4.5z"/>
    <path d="m300.05954-381.34698-12.71875-12.71875-1.40625 1.40625 12.71875 12.71875z"/>
  </g>
</svg>
