<svg height="16.072" width="16" xmlns="http://www.w3.org/2000/svg">
  <g fill="#e6ddff" transform="translate(-201.0002 -397)">
    <path d="m208.40625 403a.50005.50005 0 0 0 -.40625.5v2.5h-1.5a.50005.50005 0 1 0 0 1h2a.50005.50005 0 0 0 .5-.5v-3a.50005.50005 0 0 0 -.59375-.5z"/>
    <path d="m208.47468 400.06252c-3.5601 0-6.44332 2.91421-6.44332 6.4743s2.88322 6.4743 6.44332 6.4743c3.56009 0 6.4743-2.91421 6.4743-6.4743s-2.91421-6.4743-6.4743-6.4743zm0 1.98256c2.48864 0 4.49174 2.0031 4.49174 4.49174s-2.0031 4.49174-4.49174 4.49174-4.46076-2.0031-4.46076-4.49174 1.97212-4.49174 4.46076-4.49174z"/>
    <path d="m205.28145 398c-1.80618 0-3.28125 1.47507-3.28125 3.28125 0 .40491.0842.76711.21875 1.125 1.20599-1.82226 3.18396-3.10226 5.46875-3.34375-.59771-.64999-1.4536-1.0625-2.40625-1.0625zm6.4375 0c-.95265 0-1.80854.41251-2.40625 1.0625 2.28729.25122 4.27051 1.54101 5.46875 3.375.14145-.3658.21875-.74054.21875-1.15625 0-1.80618-1.47508-3.28125-3.28125-3.28125z"/>
    <path d="m204.90625 409.90625a1.0001 1.0001 0 0 0 -.46875.28125l-1.125 1.09375a1.0001 1.0001 0 1 0 1.375 1.4375l1.125-1.09375a1.0001 1.0001 0 0 0 -.90625-1.71875z"/>
    <path d="m211.9375 410a1.0001 1.0001 0 0 0 -.59375 1.65625l.90625 1a1.0001 1.0001 0 1 0 1.5-1.3125l-.90625-1a1.0001 1.0001 0 0 0 -.90625-.34375z"/>
  </g>
</svg>
