<svg height="16" width="16" xmlns="http://www.w3.org/2000/svg">
  <path d="m827.26582-325.73633-13 13 .47071.47266 3.23828-3.23828 3.02539 3.16797v-6.19336l2.3125-2.3125c.46625.54225.73633 1.22708.73633 1.94726 0 .79584-.31616 1.55836-.87891 2.1211l-.35351.35351.70703.70703.35351-.35351c.75001-.75 1.17188-1.76746 1.17188-2.82813 0-.98504-.37667-1.92341-1.0293-2.65429l1.42188-1.42188c1.02759 1.10751 1.60742 2.55981 1.60742 4.07617 0 1.59149-.63246 3.11683-1.75781 4.24219l-.35352.35352.70703.70703.35352-.35352c1.31262-1.31262 2.05078-3.0929 2.05078-4.94922 0-1.78129-.68564-3.48797-1.90039-4.7832l1.58789-1.58789zm-6.26562.0703-3.5 3.66602h-2.62891s-.87109.89365-.87109 3.00195c0 2.10835.87109 2.99805.87109 2.99805h1.42188l4.70703-4.70703z" fill="#e6ddff" opacity=".5" transform="translate(-813.00024 327)"/>
</svg>
