<svg xmlns="http://www.w3.org/2000/svg" width="16" height="16" version="1.1">
 <title id="title9167">
  Gnome Symbolic Icon Theme
 </title>
 <g id="layer9" transform="translate(-141 -217)">
  <path d="m146.47 217c-0.49202 0-0.79615 0.22777-1.0312 0.46875s-0.4375 0.55884-0.4375 1.0312v0.5h-1-1v1 12 1h1 10 1v-1-12-1h-1-1v-0.375-0.0312-0.0312c-0.0239-0.43046-0.17041-0.72033-0.40625-1-0.22357-0.26511-0.62489-0.52941-1.1562-0.53125v-0.0312h-0.0625-4.9062zm0.53125 2h4v1 1h1 1v10h-8v-10h1 1v-1-1z" style="fill:#E6DDFF"/>
 </g>
</svg>
