<svg height="16" viewBox="0 0 16 16" width="16" xmlns="http://www.w3.org/2000/svg">
  <path d="m81 398.99v11.01c.00002.83333.57399 1.5057 1.0625 1.75.48851.24436.9375.25.9375.25h12s.44899-.006.9375-.25c.48851-.24426 1.0776-.91681 1.0625-1.75v-3h-13.031l-.46875 3.0312c-.0164.2618-.26945.48511-.53125.46875-.2618-.0164-.48511-.26945-.46875-.53125l.5-3.5c.01-.22281.18713-.42714.40625-.46875.0312-.003.0626-.003.0937 0h11.5l.00005-5.0101c0-1-1-1-1-1l-5 .00007-2-2c-1.4316.002-5 0-5 0s-1 0-1 1z" fill="#e6ddff" transform="translate(-81 -396.99)"/>
</svg>
