<svg height="16" width="16" xmlns="http://www.w3.org/2000/svg">
  <g fill="#e6ddff" transform="translate(-181 -447)">
    <path d="m193 448c1.662 0 3 1.338 3 3v6c0 1.662-1.338 3-3 3h-8c-1.662 0-3-1.338-3-3v-6c0-1.662 1.338-3 3-3zm0 2h-8c-.554 0-1 .446-1 1v6c0 .554.446 1 1 1h8c.554 0 1-.446 1-1v-6c0-.554-.446-1-1-1z"/>
    <path d="m189 461c-5 0-5 1-5 1 0 1 1 1 1 1h8c1 0 1-1 1-1s0-1-5-1z"/>
    <path d="m186.23317 450.63825c-.94003 0-1.69681.75678-1.69681 1.69681v3.39363c0 .94004.75678 1.69682 1.69681 1.69682h.48828v-1.13121h-.48828c-.31334 0-.5656-.25226-.5656-.56561v-3.39363c0-.31334.25226-.5656.5656-.5656h.48828v-1.13121z" stroke-width=".565605"/>
  </g>
</svg>
