<svg height="16" width="16" xmlns="http://www.w3.org/2000/svg">
  <g fill="#e6ddff" transform="translate(-311.99997 -119.99994)">
    <path d="m315.99414 121c-1.2582.0145-2.17889-.0306-2.93164.38477-.37637.20766-.67323.55938-.83789.99804-.16467.43867-.22461.95958-.22461 1.61719v6c0 .65761.0599 1.17853.22461 1.61719.16467.43866.46152.79039.83789.99804.75275.41532 1.67345.3702 2.93164.38477h.004 8.0039.004c1.25819-.0145 2.17889.0306 2.93164-.38477.37637-.20766.67322-.55938.83789-.99804.16449-.43867.22443-.95958.22443-1.61719v-6c0-.65761-.0599-1.17852-.22461-1.61719-.16466-.43866-.46152-.79038-.83789-.99804-.75275-.41534-1.67344-.37025-2.93164-.38477h-.004-8.0039zm.006 1h8c1.25852.0147 2.08717.0598 2.45312.26172.18341.1012.28916.21274.38672.47266.09743.25991.16002.67323.16002 1.26562v6c0 .59239-.0626 1.00572-.16016 1.26562-.0976.25991-.20331.37147-.38672.47266-.36595.20191-1.1946.24701-2.45312.26172h-7.99414-.00586c-1.25853-.0147-2.08912-.0598-2.45508-.26172-.18341-.10119-.2872-.21275-.38476-.47266-.09757-.2599-.16016-.67323-.16016-1.26562v-6c0-.59239.0626-1.00572.16016-1.26562.0976-.25991.20135-.37147.38476-.47266.36596-.20191 1.19655-.24701 2.45508-.26172z"/>
    <path d="m318 132h4v1.5c0 1.5.5 1.5 1.5 1.5h.5v1h-8v-1h.5c1 0 1.5 0 1.5-1.5z"/>
    <path d="m316.62527 122.21386c-.98912.0114-1.71291-.0241-2.30467.30248-.29588.16325-.52926.43976-.6587.78461-.12945.34486-.17658.75436-.17658 1.27133v4.71683c0 .51698.0471.92649.17658 1.27134.12945.34485.36282.62136.6587.78461.59176.32649 1.31556.29102 2.30467.30247h.79075v-.78614h-.78153-.005c-.98938-.0116-1.64234-.047-1.93003-.20574-.14419-.0795-.22578-.16725-.30248-.37158-.0767-.20431-.12591-.52926-.12591-.99496v-4.71683c0-.4657.0492-.79064.12591-.99496.0767-.20432.15829-.29202.30248-.37157.28769-.15873.94065-.19419 1.93003-.20575h.78614v-.78614z"/>
  </g>
</svg>
