<svg height="16" width="16" xmlns="http://www.w3.org/2000/svg">
  <path d="m375 181v1h.99414c-1.2582.0145-2.17889-.0306-2.93164.38477-.37637.20766-.67323.55938-.83789.99804-.16467.43867-.22461.95958-.22461 1.61719v6c0 .65761.0599 1.17853.22461 1.61719.16467.43866.46152.79039.83789.99804.75275.41532 1.67345.3702 2.93164.38477h.004 8.0039.004c1.25819-.0145 2.17889.0306 2.93164-.38477.37637-.20766.67322-.55938.83789-.99804.16431-.43867.22443-.95958.22443-1.61719v-6c0-.65761-.0599-1.17852-.22461-1.61719-.16466-.43866-.46152-.79038-.83789-.99804-.75275-.41534-1.67344-.37025-2.93164-.38477h-.004-7.00186v-1zm1 2h8c1.25852.0147 2.08717.0598 2.45312.26172.18341.1012.28916.21274.38672.47266.09743.25991.16016.67323.16016 1.26562v6c0 .59239-.0626 1.00573-.16016 1.26562-.0976.25991-.20331.37147-.38672.47266-.36594.20191-1.1946.24701-2.45312.26172h-7.99414-.00586c-1.25853-.0147-2.08912-.0598-2.45508-.26172-.18341-.10119-.2872-.21274-.38476-.47266-.09757-.2599-.16016-.67323-.16016-1.26562v-6c0-.59239.0626-1.00572.16016-1.26562.0976-.25991.20135-.37147.38476-.47266.36596-.20191 1.19655-.24701 2.45508-.26172zm4 1a4 4 0 0 0 -4 4 4 4 0 0 0 4 4 4 4 0 0 0 4-4 4 4 0 0 0 -4-4zm5.5 0a.5.5 0 0 0 -.5.5.5.5 0 0 0 .5.5.5.5 0 0 0 .5-.5.5.5 0 0 0 -.5-.5zm-5.5 1a3 3 0 0 1 3 3 3 3 0 0 1 -3 3 3 3 0 0 1 -3-3 3 3 0 0 1 3-3zm-.084 1.00391a2 2 0 0 0 -1.916 1.99609 2 2 0 0 0 2 2 2 2 0 0 0 2-2 2 2 0 0 0 -1.90039-1.99414 1 1 0 0 1 .90039.99414 1 1 0 0 1 -1 1 1 1 0 0 1 -1-1 1 1 0 0 1 .91602-.99609z" fill="#e6ddff" transform="translate(-371.99997 -179.99994)"/>
</svg>
