<svg height="16" width="16" xmlns="http://www.w3.org/2000/svg">
  <path d="m577.0001 401v2h1c1.74038 0 2.95515.64207 3.75586 1.58203s1.21611 2.12686 1.59375 3.25977c.37763 1.1329.72045 2.21788 1.24609 2.96484s1.16566 1.19336 2.4043 1.19336h1v1h-1c-1.51136 0-2.55884-.6786-3.2207-1.61914s-1.00654-2.10556-1.37891-3.22266c-.37236-1.11709-.76946-2.1802-1.40625-2.92773-.63679-.74754-1.48452-1.23047-2.99414-1.23047h-1.00195v2c-.76044-.34766-1.53408-.73627-2.32227-1.16602-.78078-.43079-1.53279-.87569-2.25781-1.33398.72502-.44911 1.47703-.88952 2.25781-1.32031.78861-.42999 1.56338-.82275 2.32422-1.17969zm11 2v1h-1c-1.23864 0-1.87866.4464-2.4043 1.19336-.25564.36328-.46596.80901-.66015 1.29883-.15087-.40456-.33409-.81273-.54493-1.21875.11854-.22564.24313-.44748.38868-.6543.66186-.94054 1.70934-1.61914 3.2207-1.61914zm-6.21094 6.45898c.13997.41445.28834.82311.47852 1.24414-.15242.24951-.31982.48957-.51172.71485-.80071.93996-2.01548 1.58203-3.75586 1.58203h-1.00195v2c-.76044-.34766-1.53408-.73627-2.32227-1.16602-.78078-.43079-1.53279-.87569-2.25781-1.33398.72502-.44911 1.47703-.88952 2.25781-1.32031.78861-.42999 1.56338-.82275 2.32422-1.17969v2h1c1.50962 0 2.35735-.48293 2.99414-1.23047.31492-.36968.57125-.81814.79492-1.31055z" fill="#e6ddff" transform="translate(-572.00004 -400)"/>
</svg>
