<svg height="16.001" width="16" xmlns="http://www.w3.org/2000/svg" xmlns:xlink="http://www.w3.org/1999/xlink">
  <clipPath id="clipPath6810-7-87">
    <path d="m21 281h14v11h-14z"/>
  </clipPath>
  <g fill="#e6ddff" transform="translate(-121 -197)">
    <rect height="10.013" rx="2.5" width="5" x="124" y="197.99"/>
    <path clip-path="url(#clipPath6810-7-87)" d="m27.96875 273.625c-2.502477 0-4.53125 2.02877-4.53125 4.53125v5.8125c0 2.50248 2.028773 4.53125 4.53125 4.53125s4.53125-2.02877 4.53125-4.53125v-5.8125c0-2.50248-2.028773-4.53125-4.53125-4.53125zm0 1c1.964148 0 3.53125 1.5671 3.53125 3.53125v5.8125c0 1.96415-1.567102 3.53125-3.53125 3.53125s-3.53125-1.5671-3.53125-3.53125v-5.8125c0-1.96415 1.567102-3.53125 3.53125-3.53125z" transform="matrix(.993968 0 0 1 98.706899 -78.486135)"/>
    <path d="m24 361a1 1 0 1 1 -2 0 1 1 0 1 1 2 0z" transform="matrix(.5 0 0 .5 111 22)"/>
    <path d="m24 361a1 1 0 1 1 -2 0 1 1 0 1 1 2 0z" transform="matrix(.5 0 0 .5 119 22)"/>
    <path d="m122.90625 211a1.001098 1.001098 0 1 0 .09375 2h7a1.0001 1.0001 0 1 0 0-2h-7a1.0001 1.0001 0 0 0 -.0937 0z"/>
    <path d="m122 212h9v1h-9z"/>
    <path d="m125 209h3v4h-3z"/>
    <path d="m134.0002 197.99193c-1.09865 0-2.00806.90942-2.00806 2.00807s.90941 2.00806 2.00806 2.00806 2.00806-.90941 2.00806-2.00806-.90941-2.00807-2.00806-2.00807zm0 1.01613c.55821 0 .99193.43373.99193.99194s-.43372.99193-.99193.99193-.99193-.43372-.99193-.99193.43372-.99194.99193-.99194z" opacity=".5"/>
    <path d="m134.00019 202.99193c-1.09865 0-2.00806.90941-2.00806 2.00806s.90941 2.00807 2.00806 2.00807 2.00807-.90942 2.00807-2.00807-.90942-2.00806-2.00807-2.00806zm0 1.01613c.55821 0 .99194.43373.99194.99193 0 .55821-.43373.99194-.99194.99194s-.99193-.43373-.99193-.99194c0-.5582.43372-.99193.99193-.99193z" opacity=".5"/>
    <path d="m132.0002 208h1.375l1.125 1.09375 1.09375-1.09375h1.40625v1.46875l-1.09375 1.0625 1.09375 1.0625v1.40625h-1.4375l-1.0625-1.0625-1.0625 1.0625h-1.4375v-1.40625l1.0625-1.0625-1.0625-1.0625z"/>
  </g>
</svg>
