<svg height="16.001" width="16" xmlns="http://www.w3.org/2000/svg" xmlns:xlink="http://www.w3.org/1999/xlink">
  <clipPath id="clipPath6810-7-87">
    <path d="m21 281h14v11h-14z"/>
  </clipPath>
  <g fill="#e6ddff" transform="translate(-161 -197)">
    <path d="m174.0002 198c-1.10457 0-2 .89543-2 2s.89543 2 2 2 2-.89543 2-2-.89543-2-2-2zm0 1c.55228 0 1 .44771 1 1 0 .55228-.44772 1-1 1s-1-.44772-1-1c0-.55229.44772-1 1-1z" opacity=".5"/>
    <rect height="10.013" rx="2.5" width="5" x="164" y="197.99"/>
    <path clip-path="url(#clipPath6810-7-87)" d="m27.96875 273.625c-2.502477 0-4.53125 2.02877-4.53125 4.53125v5.8125c0 2.50248 2.028773 4.53125 4.53125 4.53125s4.53125-2.02877 4.53125-4.53125v-5.8125c0-2.50248-2.028773-4.53125-4.53125-4.53125zm0 1c1.964148 0 3.53125 1.5671 3.53125 3.53125v5.8125c0 1.96415-1.567102 3.53125-3.53125 3.53125s-3.53125-1.5671-3.53125-3.53125v-5.8125c0-1.96415 1.567102-3.53125 3.53125-3.53125z" transform="matrix(.993968 0 0 1 138.7069 -78.486135)"/>
    <path d="m24 361a1 1 0 1 1 -2 0 1 1 0 1 1 2 0z" transform="matrix(.5 0 0 .5 151 22)"/>
    <path d="m24 361a1 1 0 1 1 -2 0 1 1 0 1 1 2 0z" transform="matrix(.5 0 0 .5 159 22)"/>
    <path d="m162.90625 211a1.001098 1.001098 0 1 0 .09375 2h7a1.0001 1.0001 0 1 0 0-2h-7a1.0001 1.0001 0 0 0 -.0937 0z"/>
    <path d="m162 212h9v1h-9z"/>
    <path d="m165 209h3v4h-3z"/>
    <path d="m-186.0625 184.0625a1.9375 1.9375 0 1 1 -3.875 0 1.9375 1.9375 0 1 1 3.875 0z" transform="matrix(1.0322581 0 0 1.0322551 368.06472 20.00054)"/>
    <path d="m-186.0625 184.0625a1.9375 1.9375 0 1 1 -3.875 0 1.9375 1.9375 0 1 1 3.875 0z" transform="matrix(1.0322581 0 0 1.0322551 368.06472 15.00054)"/>
  </g>
</svg>
