<svg fill="none" height="16" viewBox="0 0 16 16" width="16" xmlns="http://www.w3.org/2000/svg" xmlns:xlink="http://www.w3.org/1999/xlink">
  <clipPath id="clip0">
    <path d="m0 0h16v16h-16z"/>
  </clipPath>
  <g clip-path="url(#clip0)">
    <path d="m.5 11v3.375h6.5v-3.375z" fill="#e01b24" opacity=".75"/>
    <g fill="#E6DDFF">
      <path d="m1.71968 1.00182c-.07096-.00002-.14124.01394-.2068.04109-.06557.02715-.12514.06695-.17532.11713s-.08998.10975-.11713.17532c-.02715.06556-.04111.13584-.04109.2068v.2398h-.648419c-.069726-.00002-.138773.01369-.203196.04037-.064422.02667-.122957.06577-.172261.11508-.049303.0493-.0884084.10784-.1150804.17226-.0266721.06442-.0403885.13347-.04036506.20319l-.03092084 12.15734c.0002308.1406.0562724.2754.1558163.3747.099543.0994.234449.1552.375086.1551h6.57812c.14064.0001.27555-.0557.37509-.1551.09954-.0993.15559-.2341.15582-.3747l.03092-12.15734c.00002-.06972-.01369-.13877-.04037-.20319-.02667-.06442-.06577-.12296-.11508-.17226-.0493-.04931-.10784-.08841-.17226-.11508-.06442-.02668-.13347-.04039-.20319-.04037h-.64737v-.2398c.00002-.07096-.01394-.14124-.04109-.2068-.02715-.06557-.06695-.12514-.11713-.17532s-.10975-.08998-.17532-.11713-.13584-.04111-.2068-.04109zm-.65786 1.84195h5.51632l-.03092 11.09653h-5.51632z"/>
      <path d="m10.6652 2.1317c-1.18222 0-2.13395.95066-2.13395 2.13393v2.13393h3.20085v-4.26786zm2.1339 0v4.26786h3.2009v-2.13393c0-1.18327-.9517-2.13393-2.1339-2.13393zm-4.26785 5.33482v2.40067c0 2.36331 1.66445 4.00111 3.73435 4.00111 2.0689 0 3.7344-1.6378 3.7344-4.00111v-2.40067h-4.2679z"/>
    </g>
  </g>
</svg>
