<svg height="16" width="16" xmlns="http://www.w3.org/2000/svg">
  <path d="m7.1934 0c-1.0982 1.38-1.4274 1.57-1.0313 2.45.3591.8 1.2869.7.8203 2.55.7664-.9 1.3753-1.54.7735-2.46-.6122-.94-.9475-1.01-.5625-2.54zm2.9996 0c-1.0978 1.38-1.427 1.57-1.0309 2.45.3591.8 1.2869.7.8203 2.55.7666-.9 1.3756-1.54.7736-2.46-.612-.94-.9476-1.01-.563-2.54zm3 0c-1.098 1.38-1.427 1.57-1.031 2.45.359.8 1.287.7.82 2.55.767-.9 1.376-1.54.774-2.46-.612-.94-.948-1.01-.563-2.54zm-9.193 6c-2.2091 0-4 1.79-4 4s1.7909 4 4 4c.2425 0 .4843-.02.7227-.07.7393 1.55 2.2353 2.07 5.2773 2.07 6 0 6-2 6-10zm0 2h.0078c.0116 1.6.0522 2.94.1953 3.99-.0674 0-.1352.01-.2031.01-1.1046 0-2-.9-2-2s.8954-2 2-2z" fill="#e6ddff"/>
</svg>
