<svg xmlns="http://www.w3.org/2000/svg" width="16" height="16" version="1.1">
 <title id="title9167">
  Gnome Symbolic Icon Theme
 </title>
 <g id="layer9" transform="translate(-241 -237)">
  <path d="m245 248v1.0098h3v0.99023h-5v2h12v-2h-5v-0.99023h3v-1.0098h-8z" style="fill:#E6DDFF;opacity:.5"/>
  <path d="m249 238c-1.645 0-3 1.355-3 3v1h-1v1.0098h8v-1.0098h-1v-1c0-1.645-1.355-3-3-3zm0 2c0.56413 0 1 0.43588 1 1v1h-2v-1c0-0.56412 0.43587-1 1-1z" style="fill:#E6DDFF;opacity:.5"/>
  <circle cx="244.5" cy="245.5" r="1.5" style="fill:#E6DDFF"/>
  <circle cx="248.5" cy="245.5" r="1.5" style="fill:#E6DDFF"/>
  <circle cx="252.5" cy="245.5" r="1.5" style="fill:#E6DDFF"/>
 </g>
</svg>
