<svg height="16" width="16" xmlns="http://www.w3.org/2000/svg">
  <path d="m103.0624 237c-1.15073 0-2.0625.91177-2.0625 2.0625v11.875c0 1.15073.91177 2.0625 2.0625 2.0625h11.875c1.15073 0 2.0625-.91177 2.0625-2.0625v-11.875c0-1.15073-.91177-2.0625-2.0625-2.0625zm3.9375 3h.0937 5.90625v2h-6v2h6v2h-6v2c-.00036-.00045.0315.0001.0313 0h5.96875v2h-6c-.6248 0-.99413-.24118-1.34375-.5625-.33108-.30424-.64399-.78976-.625-1.4375h-.0313v-.0937-5.84375-.0625h.0313c-.013-.4751.11013-.99964.46875-1.40625.35357-.40089.93419-.583 1.5-.5625z" fill="#e6ddff" transform="translate(-100.9999 -237)"/>
</svg>
