<svg height="16" width="16" xmlns="http://www.w3.org/2000/svg">
  <path d="m2.713 2c-1.058-.013-1.768.224-2.133.662-.383.456-.58 1.204-.58 2.244v6.188c0 1.04.197 1.788.58 2.244.365.438 1.075.662 2.133.662h10.574c1.058 0 1.77-.224 2.135-.662.383-.456.578-1.204.578-2.244v-6.188c0-1.04-.195-1.788-.578-2.244-.365-.438-1.077-.662-2.135-.662zm-1.713 3h1v5c1.11 0 2-.89 2-2v-3h1v3c0 1.651-1.35 3-3 3h-1zm5 0h2c1.099 0 2 .901 2 2s-.901 2-2 2h-1v2h-1v-5zm5 0h2c1.099 0 2 .901 2 2v4h-1v-4c0-.558-.442-1-1-1h-1v5h-1v-5zm-4 1v2h1c.558 0 1-.442 1-1s-.442-1-1-1z" fill="#e6ddff"/>
</svg>
