<svg enable-background="new" height="16.003" width="16" xmlns="http://www.w3.org/2000/svg">
  <g fill="#e6ddff" transform="translate(-265.00176 615.00009)">
    <path d="m273.00176-613.99478c-2.89543 0-5.79086 1.10272-8 3.31055l8 9.6875 2-2.42187v-1.57813h1.30273l4.69727-5.6875c-2.20914-2.20783-5.10457-3.31055-8-3.31055z" opacity=".35"/>
    <path d="m276.00176-603.99673v1c0 .27614.10029.53779.28125.71875l.78125.78125-.78125.78125c-.18096.18096-.28125.44261-.28125.71875v1h1c.27614 0 .53779-.10029.71875-.28125l.78125-.78125.78125.78125c.18096.18096.44261.28125.71875.28125h1v-1c0-.27614-.10029-.53779-.28125-.71875l-.78125-.78125.78125-.78125c.18096-.18096.28125-.44261.28125-.71875v-1h-1c-.27614 0-.53779.10029-.71875.28125l-.78125.78125-.78125-.78125c-.18096-.18096-.44261-.28125-.71875-.28125z"/>
  </g>
</svg>
