<svg height="16" width="16" xmlns="http://www.w3.org/2000/svg">
  <path d="m83.063 237c-1.1507 0-2.0625.91177-2.0625 2.0625v11.875c0 1.1507.91177 2.0625 2.0625 2.0625h11.875c1.1507 0 2.0625-.91177 2.0625-2.0625v-11.875c0-1.1507-.91177-2.0625-2.0625-2.0625zm-.0625 3h4a1.0001 1.0001 0 0 1 .875 1.4375l-1.375 2.7812c.35458.11552.74913.19557.96875.4375.33238.36614.53125.8102.53125 1.3438v2c0 1.1124-.90732 2-2 2h-3v-2h3v-2h-1a1.0001 1.0001 0 0 1 -.875-1.4375l1.25-2.5625h-2.375zm8.0625.0312h1.8438.0625c.003-.0001-.003.0315 0 .0312.52731-.0204 1.0725.076 1.5.46875.41475.38112.59343 1.0075.5625 1.5938h.0312v.125.75h-2v-.875-.0625-.0312c-.0176-.002.003-.002-.0312 0h-.0312-.0312-1.9062c-.0276 0-.022.002-.0312 0-.006.004-.0292-.003-.0312 0-.007.0224.007.0466 0 .0625v.0312 5.8125c-.0237-.0217 0 .0625 0 .0625h1.9688c.007-.0193.0294-.016.0312 0 .00088.008 0-.0555 0-.0312v-1.9375h-1v-2h2 1v1 2.9375c0 .56264-.22708.99952-.5625 1.375-.31592.35364-.85192.632-1.4688.625v.0312h-.0937-1.875c-.6248 0-.99413-.24123-1.3438-.5625-.33105-.30421-.64392-.78987-.625-1.4375.00006-.002-.0313.002-.0312 0v-.0937-5.8125-.0937-.0625c.0625-.43728.20536-.88912.5625-1.2812.35715-.39213.94608-.625 1.5-.625z" fill="#e6ddff" transform="translate(-81 -237)"/>
</svg>
