<svg height="16" width="16.003" xmlns="http://www.w3.org/2000/svg">
  <g fill="#e6ddff" transform="translate(-611.994 -80)">
    <path d="m623.422 90c-.45.005-.78-.012-1.049.137a.673.673 0 0 0 -.299.357c-.059.157-.08.341-.08.576v1.858c0 .235.022.421.08.578a.668.668 0 0 0 .3.355c.268.148.598.134 1.048.139h2.146c.45-.005.778.01 1.047-.139a.668.668 0 0 0 .3-.355c.058-.157.08-.343.08-.578v-1.858c0-.235-.022-.42-.08-.576a.672.672 0 0 0 -.3-.357c-.269-.15-.597-.132-1.047-.137h-.002zm-5-9c-.45.005-.78-.012-1.049.137a.673.673 0 0 0 -.299.357c-.059.157-.08.341-.08.576v1.858c0 .235.022.421.08.578a.668.668 0 0 0 .3.355c.268.148.598.134 1.048.139h2.146c.45-.005.778.01 1.047-.139a.668.668 0 0 0 .3-.355c.058-.157.08-.343.08-.578v-1.858c0-.235-.022-.42-.08-.576a.672.672 0 0 0 -.3-.357c-.269-.15-.597-.132-1.047-.137h-.002zm-5 9c-.45.005-.78-.012-1.049.137a.673.673 0 0 0 -.299.357c-.059.157-.08.341-.08.576v1.858c0 .235.022.421.08.578a.668.668 0 0 0 .3.355c.268.148.598.134 1.048.139h2.146c.45-.005.778.01 1.047-.139a.668.668 0 0 0 .3-.355c.058-.157.08-.343.08-.578v-1.858c0-.235-.022-.42-.08-.576a.672.672 0 0 0 -.3-.357c-.269-.15-.597-.132-1.047-.137h-.002z"/>
    <g fill-rule="evenodd">
      <path d="m615.494 87c-.667 0-1.138.408-1.322.777-.185.37-.178.723-.178.723v2h1v-2s.007-.147.072-.277c.066-.131.095-.223.428-.223h8c.333 0 .362.092.428.223.065.13.072.277.072.277v2h1v-2s.007-.353-.178-.723a1.485 1.485 0 0 0 -1.322-.777z"/>
      <path d="m619 84.498-.006 3 1 .004.006-3z"/>
    </g>
  </g>
</svg>
