<svg height="16" width="16" xmlns="http://www.w3.org/2000/svg">
  <g fill="#e6ddff">
    <path d="m3.0004 0a2.0001 2.0002 0 0 0 -1.9882 1.779l-.99998 9a2.0001 2.0002 0 0 0 1.98818 2.221h11.9996a2.0001 2.0002 0 0 0 1.988-2.221l-1-9a2.0001 2.0002 0 0 0 -1.988-1.779zm5.9996 2v2 5h2v2h-5.9997v-2h1.9997v-4.5l-1.9997.5v-2z"/>
    <path d="m.00052738 13.203v.547c0 1.212 1.03807262 2.25 2.24987262 2.25h11.4996c1.212 0 2.25-1.038 2.25-2.25v-.547c-.532.485-1.225.797-2 .797h-11.9996c-.7746 0-1.46828-.312-1.99987262-.797z"/>
  </g>
</svg>
