<svg height="16" width="16" xmlns="http://www.w3.org/2000/svg">
  <g transform="translate(-221 -257)">
    <path d="m229.88 265c-.49245 0-.875.38256-.875.875v6.25c0 .49244.38255.875.875.875h6.25c.49245 0 .875-.38256.875-.875v-6.25c0-.49244-.38255-.875-.875-.875zm2.125 1h2v4h-2zm0 5h2v1h-2z" fill="#f57900"/>
    <g fill="#e6ddff">
      <path d="m223 261c-.5 0-1 .5-1 1v4c0 .5.5 1 1 1h1v-2h4c.11796-.53925.55151-.9375 1.125-.9375h6.875v-2.0625c0-.5-.5-1-1-1z"/>
      <path d="m225 258v2h8v-2z"/>
      <path d="m225 266v5h3v-5z"/>
    </g>
  </g>
</svg>
