<svg height="16" width="16" xmlns="http://www.w3.org/2000/svg">
  <g fill="#e6ddff" transform="translate(-381.00015 -337)">
    <path d="m389.00015 342.01754c-1.64587 0-2.98246 1.33658-2.98246 2.98246 0 1.64587 1.33659 2.98246 2.98246 2.98246s2.98246-1.33659 2.98246-2.98246c0-1.64588-1.33659-2.98246-2.98246-2.98246z"/>
    <path d="m388.96875 338.0625c-3.85777 0-7 3.14223-7 7s3.14223 7 7 7c3.85776 0 7-3.14223 7-7s-3.14224-7-7-7zm0 1c3.32116 0 6.03125 2.67883 6.03125 6s-2.71009 6-6.03125 6c-3.32117 0-6-2.67883-6-6s2.67883-6 6-6z"/>
  </g>
</svg>
