<svg height="16" width="16" xmlns="http://www.w3.org/2000/svg">
  <rect fill="#02a8f3" height="16" rx="8" transform="matrix(0 -1 -1 0 0 0)" width="16" x="-16" y="-16"/>
  <path d="m7.4395 3.0293c-2.4943.27965-4.4395 2.3996-4.4395 4.9691 0 2.7585 2.242 5.0015 4.9995 5.0015 2.758 0 5.0005-2.243 5.0005-5.0015 0-2.5325-1.8915-4.6256-4.3345-4.9531 0 0-.6824-.090365-1.226-.016047zm.22735.67605v1.6835c-.4773-.0169-.9338-.0675-1.3557-.1472.0634-.1486.1298-.2917.2022-.4221.334-.6014.7373-.9766 1.1535-1.1142zm.71415.02791c.037525.00622.075695.010579.11298.017442.37607.16465.7375.52195 1.0412 1.0688.071108.12805.1364.26824.19876.41373-.41998.08185-.87605.13498-1.353.15419zm-2.196.2846c-.105.1429-.2055.2925-.2955.4549-.104.18675-.1965.38905-.282.60015-.23-.0675-.444-.1442-.63945-.2283.35345-.3403.76445-.62035 1.217-.82675zm3.798.16744c.42165.1311.7442.39828 1.0482.6593-.183.0788-.3815.15125-.5955.2158-.084-.20645-.1745-.4047-.276-.58765-.0555-.0999-.115-.1946-.1765-.28745zm-5.4675 1.1716c.00744.026785-.012321-.03599-.00307-.00865.25756.12025.56375.3124.86575.40285-.1561.5584-.2529 1.1719-.2789 1.8203h-1.4527c.080155-.829.39336-1.587.86916-2.2145zm6.973.006c.4731.62645.7844 1.382.8641 2.2082h-1.4032c-.02626-.6533-.12421-1.2712-.28244-1.8328.28518-.08745.5694-.25394.81425-.36824.01072-.025165-.0017.01761.0072-.00712zm-1.5148.55185c.1421.5003.23414 1.0604.26083 1.6563h-1.8537v-1.4694c.5611-.02059 1.0971-.08399 1.5929-.18698zm-3.902.010467c.49686.1003 1.0338.16014 1.595.17791v1.468h-1.853c.02651-.59185.1176-1.1482.25804-1.6458zm-2.4326 2.3603h1.4596c.02677.66625.12771 1.2964.29152 1.867-.32116.04171-.8736.36658-.9021.38253-.56115-.6855-.78785-1.3085-.8489-2.25zm2.1745 0h1.853v1.5182c-.55645.01756-1.0891.07633-1.5824.17512-.1473-.5096-.2425-1.0829-.2699-1.6933zm2.5671 0h1.8537c-.027.6146-.123 1.1917-.2728 1.7038-.4921-.1015-1.0239-.1639-1.5803-.1842zm2.5685 0h1.4102c-.056.8651-.311 1.6096-.796 2.2644-.227-.143-.641-.292-.909-.385.166-.5737.268-1.2083.295-1.8793zm-3.2826 2.2326v1.6326c-.416-.138-.8195-.5115-1.1535-1.113-.065-.117-.125-.244-.1825-.376.4165-.07771.8662-.1271 1.3362-.14372zm.71415.0014c.46994.01877.9192.07014 1.3341.15001-.056833.1291-.1161.25343-.17993.36838-.33402.6015-.7378.9751-1.1542 1.1128zm-2.7547.30908c.08052.19454.16659.38259.26292.55605.1367.246.2923.469.462.668-.547-.223-1.0399-.55-1.4499-.961.21814-.09779.46176-.18585.7253-.26233zm4.7911.01256c.24664.07345.47471.15746.68065.24978-.39058.39162-.8558.70855-1.3718.93.15892-.19053.30414-.40409.43308-.6363.09427-.16977.1789-.35353.25804-.5435z" fill="#fff" fill-rule="evenodd"/>
</svg>
