<svg height="16.064" width="16.042" xmlns="http://www.w3.org/2000/svg">
  <g fill="#e6ddff" transform="translate(-201.0002 -356.9357)">
    <path d="m207.03145 361.9375c-1.08877 0-2 .87892-2 1.96875v1.09375h-.96875v4.0625h5.96875v-4.0625h-1.03125v-1.09375c0-1.08983-.87998-1.96875-1.96875-1.96875zm0 1c.54629 0 .96875.41732.96875.96875v1.09375h-1.96875v-1.09375c0-.55143.45371-.96875 1-.96875z"/>
    <path d="m207.30859 356.93555c-.51485.00008-1.02844.19445-1.41406.58007l-4.24414 4.24219c-.77125.77125-.77612 2.06041.004 2.83203l.38476.37891 1.40625-1.42187-.38086-.375 4.24414-4.24219 7.74024 7.79101s.002.002.002.002l-4.24219 4.24414-1.21093-1.26368-1.44532 1.38282 1.23438 1.28711.008.008c.77124.77124 2.05689.77124 2.82813 0l4.24218-4.24219c.77127-.77125.76737-2.05523.002-2.82617l-7.74219-7.79492c-.38575-.38832-.90116-.58212-1.41602-.58203z"/>
  </g>
</svg>
