<svg height="16" width="16" xmlns="http://www.w3.org/2000/svg">
  <g fill="#e6ddff">
    <path d="m8 0c-1.662 0-3 1.338-3 3v4.0078c-1.257.9426-1.998 2.4212-2 3.9922 0 2.761 2.239 5 5 5s5-2.239 5-5c-.002-1.571-.743-3.0496-2-3.9922v-4.0078c0-1.662-1.338-3-3-3zm0 2c.554 0 1 .446 1 1v5.1758c1.197.4233 1.998 1.5544 2 2.8242 0 1.657-1.343 3-3 3s-3-1.343-3-3c.001-1.2705.802-2.4027 2-2.8262v-5.1738c0-.554.446-1 1-1z"/>
    <path d="m7 6v2.1738a3 3 0 0 0 -2 2.8262 3 3 0 0 0 3 3 3 3 0 0 0 3-3 3 3 0 0 0 -2-2.8242v-2.1758z" opacity=".3"/>
  </g>
</svg>
