<svg height="16" width="16" xmlns="http://www.w3.org/2000/svg">
  <g fill="#e6ddff" transform="translate(-121 -317)">
    <path d="m124.03 317c-1.6692 0-3.0312 1.3621-3.0312 3.0312v7.9375c0 1.6692 1.3621 3.0312 3.0312 3.0312h6.9688v-2h-2v-2h7v-6.9688c0-1.6692-1.3621-3.0312-3.0312-3.0312zm0 2h8.9375c.59578 0 1.0312.43547 1.0312 1.0312v5.9688h-11v-5.9688c0-.59578.43547-1.0312 1.0312-1.0312zm-1.0312 8h5v2h-3.9688c-.59578 0-1.0312-.43547-1.0312-1.0312z" opacity=".5"/>
    <path d="m132 328h1.375l1.125 1.0938 1.0938-1.0938h1.4062v1.4688l-1.0938 1.0625 1.0938 1.0625v1.4062h-1.4375l-1.0625-1.0625-1.0625 1.0625h-1.4375v-1.4062l1.0625-1.0625-1.0625-1.0625z"/>
  </g>
</svg>
