<svg height="16" width="16" xmlns="http://www.w3.org/2000/svg">
  <g fill="#e6ddff" transform="translate(-161 -357)">
    <path d="m164.5 358c-1.385 0-2.5 1.115-2.5 2.5v.5h14v-.5c0-1.385-1.115-2.5-2.5-2.5zm-2.4375 8c.23235 1.1413 1.2256 2 2.4375 2h6.375l3.125 4v-4.0625c.97406-.20133 1.7386-.96043 1.9375-1.9375z" opacity=".5"/>
    <path d="m29 209a1 1 0 1 1 -2 0 1 1 0 1 1 2 0z" transform="matrix(1.5 0 0 1.5 122.5 50)"/>
    <path d="m29 209a1 1 0 1 1 -2 0 1 1 0 1 1 2 0z" transform="matrix(1.5 0 0 1.5 126.5 50)"/>
    <path d="m29 209a1 1 0 1 1 -2 0 1 1 0 1 1 2 0z" transform="matrix(1.5 0 0 1.5 130.5 50)"/>
  </g>
</svg>
