<svg height="16.063" width="16" xmlns="http://www.w3.org/2000/svg">
  <g fill="#e6ddff">
    <path d="m9 5.063v-1.423l3.367-3.358c.404-.41 1.063-.346 1.412.023.332.351.375.988-.03 1.392l-3.357 3.366zm0 5.937v1.422l3.367 3.358c.404.412 1.063.347 1.412-.022a1.016 1.016 0 0 0 -.03-1.392l-3.357-3.366zm0-3.937v2h6c.75 0 .999-.501 1-1.002 0-.5-.25-.998-1-.998z"/>
    <path d="m.5 4.5629997a.5.5 0 0 0 -.5.5v2.969a4.516 4.516 0 0 0 3 4.2500003v1.281h-2c-.565 0-1 .49-1 1v1h9v-1c0-.584-.476-1-1-1h-2v-1.281a4.516 4.516 0 0 0 3-4.2500003v-2.969a.5.5 0 0 0 -1 0c0 .069.006.128.031.188v2.78a3.521 3.521 0 0 1 -3.53 3.5320003c-1.954 0-3.501-1.5670007-3.501-3.5310003v-2.969a.5.5 0 0 0 -.5-.5zm4-4.01299997c1.385 0 2.5 1.11499997 2.5 2.49999997v5.013c0 1.3849996-1.115 2.5000003-2.5 2.5000003a2.495 2.495 0 0 1 -2.5-2.5000003v-5.013c0-1.385 1.115-2.49999997 2.5-2.49999997z" fill="#e6ddff"/>
  </g>
</svg>
