<?xml version="1.0" encoding="UTF-8" standalone="no"?>
<svg
   xmlns:dc="http://purl.org/dc/elements/1.1/"
   xmlns:cc="http://creativecommons.org/ns#"
   xmlns:rdf="http://www.w3.org/1999/02/22-rdf-syntax-ns#"
   xmlns:svg="http://www.w3.org/2000/svg"
   xmlns="http://www.w3.org/2000/svg"
   xmlns:xlink="http://www.w3.org/1999/xlink"
   xmlns:sodipodi="http://sodipodi.sourceforge.net/DTD/sodipodi-0.dtd"
   xmlns:inkscape="http://www.inkscape.org/namespaces/inkscape"
   width="128"
   height="128"
   version="1.0"
   id="svg109"
   sodipodi:docname="ricerca.svg"
   inkscape:version="0.92.3 (2405546, 2018-03-11)">
  <metadata
     id="metadata113">
    <rdf:RDF>
      <cc:Work
         rdf:about="">
        <dc:format>image/svg+xml</dc:format>
        <dc:type
           rdf:resource="http://purl.org/dc/dcmitype/StillImage" />
        <dc:title />
      </cc:Work>
    </rdf:RDF>
  </metadata>
  <sodipodi:namedview
     pagecolor="#ffffff"
     bordercolor="#666666"
     borderopacity="1"
     objecttolerance="10"
     gridtolerance="10"
     guidetolerance="10"
     inkscape:pageopacity="0"
     inkscape:pageshadow="2"
     inkscape:window-width="1920"
     inkscape:window-height="1009"
     id="namedview111"
     showgrid="false"
     inkscape:zoom="8.028761"
     inkscape:cx="58.969699"
     inkscape:cy="64.0002"
     inkscape:window-x="0"
     inkscape:window-y="34"
     inkscape:window-maximized="1"
     inkscape:current-layer="svg109" />
  <defs
     id="defs17">
    <linearGradient
       xlink:href="#a"
       id="e"
       gradientUnits="userSpaceOnUse"
       gradientTransform="matrix(.25 0 0 .25 180 83)"
       x1="344"
       y1="76"
       x2="340"
       y2="72" />
    <linearGradient
       id="a">
      <stop
         offset="0"
         stop-color="#d5d3cf"
         id="stop3" />
      <stop
         offset="1"
         stop-color="#fff"
         id="stop5" />
    </linearGradient>
    <clipPath
       clipPathUnits="userSpaceOnUse"
       id="d">
      <path
         d="M252 116l28-28v-8h-36v36z"
         fill="#e74747"
         stroke-width=".25"
         id="path8" />
    </clipPath>
    <linearGradient
       xlink:href="#b"
       id="c"
       gradientUnits="userSpaceOnUse"
       x1="256"
       y1="268"
       x2="256"
       y2="-180" />
    <linearGradient
       id="b">
      <stop
         offset="0"
         stop-color="#eeeeec"
         id="stop12" />
      <stop
         offset="1"
         stop-color="#fff"
         id="stop14" />
    </linearGradient>
    <linearGradient
       id="linearGradient8548"
       x1="8"
       x2="112"
       y1="-244.84399"
       y2="-244"
       gradientTransform="translate(0.2936484,187.69958)"
       gradientUnits="userSpaceOnUse"
       xlink:href="#linearGradient1723" />
    <linearGradient
       id="linearGradient1723">
      <stop
         id="stop1719"
         offset="0"
         style="stop-color:#d5d3cf" />
      <stop
         style="stop-color:#f6f5f4"
         id="stop1731"
         offset=".045" />
      <stop
         style="stop-color:#d5d3cf"
         id="stop1729"
         offset=".091" />
      <stop
         style="stop-color:#d5d3cf"
         id="stop1727"
         offset=".909" />
      <stop
         id="stop1733"
         offset=".955"
         style="stop-color:#eeeeec" />
      <stop
         id="stop1721"
         offset="1"
         style="stop-color:#d5d3cf" />
    </linearGradient>
    <linearGradient
       inkscape:collect="always"
       xlink:href="#a"
       id="linearGradient979"
       x1="261.50345"
       y1="105.83793"
       x2="261.23032"
       y2="105.5592"
       gradientUnits="userSpaceOnUse" />
    <clipPath
       id="clipPath1609-7"
       clipPathUnits="userSpaceOnUse">
      <path
         inkscape:connector-curvature="0"
         style="fill:#e74747"
         d="m 252,116 28,-28 v -8 h -36 v 36 z"
         id="path46" />
    </clipPath>
    <linearGradient
       gradientTransform="translate(9.9999996e-8,-172)"
       inkscape:collect="always"
       xlink:href="#a"
       id="linearGradient917"
       x1="103.4365"
       y1="264.43683"
       x2="102.25204"
       y2="263.28625"
       gradientUnits="userSpaceOnUse" />
  </defs>
  <g
     transform="translate(-210 -172)"
     id="g69">
    <g
       transform="matrix(-.3 0 0 -.2128 197.2 247.363)"
       fill="url(#c)"
       stroke-width="1.03"
       id="g25">
      <rect
         ry="44.432"
         rx="26.667"
         y="-190.965"
         x="-429.333"
         height="451.133"
         width="346.667"
         style="marker:none"
         fill="#a347ba"
         id="rect19" />
      <rect
         style="marker:none"
         width="346.667"
         height="451.133"
         x="-429.333"
         y="-181.566"
         rx="26.667"
         ry="44.432"
         fill="#d5d3cf"
         id="rect21" />
      <rect
         style="marker:none"
         width="346.667"
         height="451.133"
         x="-429.333"
         y="-153.371"
         rx="26.667"
         ry="37.594"
         fill="#f6f5f4"
         id="rect23" />
    </g>
    <g
       transform="translate(210)"
       fill="#d5d3cf"
       id="g41">
      <circle
         r="2"
         cy="252"
         cx="108"
         id="circle27" />
      <circle
         cx="108"
         cy="242"
         r="2"
         id="circle29" />
      <circle
         r="2"
         cy="232"
         cx="108"
         id="circle31" />
      <circle
         cx="108"
         cy="222"
         r="2"
         id="circle33" />
      <circle
         r="2"
         cy="212"
         cx="108"
         id="circle35" />
      <circle
         cx="108"
         cy="202"
         r="2"
         id="circle37" />
      <circle
         r="2"
         cy="192"
         cx="108"
         id="circle39" />
    </g>
    <g
       transform="translate(210)"
       fill="#d5d3cf"
       id="g61">
      <circle
         cx="20"
         cy="272"
         r="2"
         id="circle43" />
      <circle
         r="2"
         cy="262"
         cx="20"
         id="circle45" />
      <circle
         cx="20"
         cy="252"
         r="2"
         id="circle47" />
      <circle
         r="2"
         cy="242"
         cx="20"
         id="circle49" />
      <circle
         cx="20"
         cy="232"
         r="2"
         id="circle51" />
      <circle
         r="2"
         cy="222"
         cx="20"
         id="circle53" />
      <circle
         cx="20"
         cy="212"
         r="2"
         id="circle55" />
      <circle
         r="2"
         cy="202"
         cx="20"
         id="circle57" />
      <circle
         cx="20"
         cy="192"
         r="2"
         id="circle59" />
    </g>
    <g
       opacity=".3"
       stroke="#d5d3cf"
       fill="none"
       stroke-width="2"
       id="g65">
      <path
         d="M238 191h72M238 201h72M238 211h72M238 221h72M238 231h72M238 241h72M238 251h72M238 261h72M238 271h66"
         id="path63" />
    </g>
  </g>
  <g
     stroke-width="2.275"
     id="g77">
    <path
       d="M41.147 45.685S62 18.561 69 30.328c7.001 11.767-22.89 21.767-22.89 21.767zM39.795 46.78s-9.477 3.302-4.699 9.467c5.081 6.557 9.83-2.817 9.83-2.817z"
       id="path71" />
    <g
       id="g75">
      <path
         d="M45.687 66.882s25.49-22.821 30.205-9.966c4.715 12.854-26.506 17.18-26.506 17.18zM44.157 67.709s-9.923 1.5-6.362 8.44c3.788 7.38 10.18-.96 10.18-.96z"
         id="path73" />
    </g>
  </g>
  <g
     transform="translate(-20 -164)"
     id="g107">
    <g
       transform="translate(14 -12)"
       opacity=".1"
       stroke="#00000f"
       fill="none"
       id="g85">
      <path
         d="M36 250l-8 8"
         stroke-width="6"
         id="path79" />
      <path
         d="M28 258l-14 14"
         stroke-width="12"
         stroke-linecap="round"
         id="path81" />
      <circle
         r="30.118"
         cy="228"
         cx="58"
         stroke-width="3.765"
         stroke-linejoin="round"
         id="circle83" />
    </g>
    <g
       fill="none"
       id="g97">
      <path
         d="M25.89 254.55l15.457-15.457"
         opacity=".154"
         stroke="#fff"
         stroke-width="1.638"
         stroke-linecap="round"
         id="path87" />
      <path
         d="M50 236l-8 8"
         stroke="#241f31"
         stroke-width="6"
         id="path89" />
      <path
         d="M50 234l-8 8"
         stroke="#3d3846"
         stroke-width="6"
         id="path91" />
      <path
         d="M42 244l-14 14"
         stroke="#613583"
         stroke-width="12"
         stroke-linecap="round"
         id="path93" />
      <path
         d="M42 242l-14 14"
         stroke="#a347ba"
         stroke-width="12"
         stroke-linecap="round"
         id="path95" />
    </g>
    <circle
       transform="scale(-1 1)"
       r="29.938"
       cx="-72"
       cy="212.062"
       opacity=".25"
       fill="#fff"
       id="circle99" />
    <circle
       r="30.118"
       cy="214"
       cx="72"
       fill="none"
       stroke="#613583"
       stroke-width="3.765"
       stroke-linejoin="round"
       id="circle101" />
    <circle
       cx="72"
       cy="212"
       r="30.118"
       fill="none"
       stroke="#a347ba"
       stroke-width="3.765"
       stroke-linejoin="round"
       id="circle103" />
    <path
       d="M25 255l16-16"
       opacity=".154"
       fill="none"
       stroke="#fff"
       stroke-width="2"
       stroke-linecap="round"
       id="path105" />
  </g>
  <path
     style="display:inline;opacity:1;fill:url(#linearGradient917);fill-opacity:1;stroke:none;stroke-width:2;stroke-linecap:square;stroke-linejoin:round;stroke-miterlimit:4;stroke-dasharray:none;stroke-opacity:1;enable-background:new"
     d="M 99.000005,79.75 C 92.906,79.75 88,84.656 88,90.75 v 14 c 0,1.13268 0.16928,2.22328 0.48438,3.25 L 116.05859,80.18555 C 115.08718,79.90644 114.06356,79.75 113.00001,79.75 Z"
     id="rect891"
     inkscape:connector-curvature="0" />
</svg>
