<svg height="22" width="22" xmlns="http://www.w3.org/2000/svg">
  <g fill="#444">
    <path d="m6.0000025 10a1 1 0 0 0 -1 1 1 1 0 0 0 .00586.111328c.063706 2.435063 2.1932095 4.425359 4.9941405 4.814453v1.074219h-3.0000005a1 1 0 0 0 -1 1 1 1 0 0 0 1 1h8.0000005a1 1 0 0 0 .999999-1 1 1 0 0 0 -.999999-1h-3v-1.074219c2.804683-.389615 4.935899-2.386668 4.99414-4.826172a1 1 0 0 0 .005859-.099609 1 1 0 0 0 -1-1 1 1 0 0 0 -.999999 1h-.01563c-.08353 2.067786-1.410965 3-3.984369 3-2.5735987 0-3.9008539-.932214-3.9843755-3h-.015625a1 1 0 0 0 -1-1z"/>
    <rect height="8" rx="4.167" ry="4" transform="matrix(0 -1 -1 0 0 0)" width="10" x="-13" y="-15"/>
  </g>
</svg>
