<svg height="22" width="22" xmlns="http://www.w3.org/2000/svg">
  <path d="m8.9914 3.0004c-.2536.0081-.4946.1129-.6739.2929l-2.9915 3c-.9789.9425.4702 2.3958 1.41 1.4141l1.2913-1.2949.00779 7.9392c-.00692.04917-.010169.09878-.00973.14844 0 .01514.00956.02786.00973.04297.000021.002-.0000236.0039 0 .0059.00274.12413.028492.24666.075957.36133.22546 2.2356 2.1269 4.0898 4.4016 4.0898 2.418 0 4.4873-2.0752 4.4873-4.5s-2.0693-4.5-4.4873-4.5c-.94275 0-1.7663.40756-2.4852.94727l-.0078-6.947c.000217-.5647-.46551-1.0176-1.0283-1z" fill="#444"/>
</svg>
