<svg height="22" width="22" xmlns="http://www.w3.org/2000/svg">
  <path d="m11 3c-4.4180497 0-8 3.5819503-8 8 0 4.41805 3.5819503 8 8 8 4.41805 0 8-3.58195 8-8 0-4.4180497-3.58195-8-8-8zm-3.75 2h3c.287546.0008689.560795.1252673.75.3417969.189205-.2165296.462454-.340928.75-.3417969h3c.552291 0 1 .4477091 1 1v1.9140625c.201002.2820032.385248.5784339.53125.8984375l1.21875-.46875-1 3.46875-.75-.417969v1.408203l.59375.228516c-.157002.376004-.363747.717965-.59375 1.042969v1.925781c0 .552291-.447709 1-1 1h-3c-.28723-.000364-.560428-.124057-.75-.339844-.189572.215787-.46277.33948-.75.339844h-3c-.5522909 0-1-.447709-1-1v-1.939453c-.2020023-.285003-.3872484-.582293-.53125-.904297l-1.21875.439453 1-3.375.75.402344v-1.3945314l-.59375-.2285156c.1530017-.3820043.3617474-.7295432.59375-1.0605469v-1.9394531c0-.5522909.4477091-1 1-1zm.75 1c-.554 0-1 .446-1 1v8c0 .554.446 1 1 1h1c.554 0 1-.446 1-1v-8c0-.554-.446-1-1-1zm5 0c-.554 0-1 .446-1 1v8c0 .554.446 1 1 1h1c.554 0 1-.446 1-1v-8c0-.554-.446-1-1-1z" fill="#444"/>
</svg>
