<svg height="22" width="22" xmlns="http://www.w3.org/2000/svg">
  <path d="m7.5 3c-1.933 0-3.5 1.567-3.5 3.5s1.567 3.5 3.5 3.5c.2604-.0011.5198-.0312.7734-.0898l1.7266 2.5898c-2.25 3.5 1 6.5 1 6.5s3.25-3 1-6.5l1.729-2.5898c.253.0584.511.0886.771.0898 1.933 0 3.5-1.567 3.5-3.5s-1.567-3.5-3.5-3.5-3.5 1.567-3.5 3.5c.0012.80608.28061 1.587.79102 2.2109l-.791 1.2891-.789-1.2871c.51-.6247.789-1.4064.789-2.2129 0-1.933-1.567-3.5-3.5-3.5zm0 2c.8284 0 1.5.6716 1.5 1.5s-.6716 1.5-1.5 1.5-1.5-.6716-1.5-1.5.6716-1.5 1.5-1.5zm7 0c.828 0 1.5.6716 1.5 1.5s-.672 1.5-1.5 1.5-1.5-.6716-1.5-1.5.672-1.5 1.5-1.5z" fill="#444"/>
</svg>
