<svg height="22" width="22" xmlns="http://www.w3.org/2000/svg">
  <path d="m19.636 2.0248-.621.7539a3.0001 3.0001 0 0 1 .474.5508l.512-.9785zm-14.636 4.4747-4.0001 3.5002 4.3752-.6251 1.625 9.6254 3.3928-2.301 9.608 2.801-3-7.5-2.001-1.4-5.2517 4.492-3.2481-8.0924zm10.208.9005-1.19 1.4434 1.983 1.1563 1.047-2.0021a3.0001 3.0001 0 0 1 -.047.002 3.0001 3.0001 0 0 1 -1.7931-.59962zm-3.208 1.6286-2.9997.9711.9997 3.0003 4-3.0003z" fill="#444"/>
  <path d="m19 4.9993a2 2 0 0 1 -4 0 2 2 0 1 1 4 0z" fill="#4285f4"/>
</svg>
