<svg height="22" width="22" xmlns="http://www.w3.org/2000/svg">
  <g fill="#444">
    <path d="m11 2.999966c-4.4183 0-8 3.5817003-8 8 0 2.607097 1.2531965 4.916373 3.1835938 6.376953.03539-.01963.072592-.03605.1074218-.05664.5730047-.339416 1.1225277-.738335 1.6523438-1.164063-1.7601545-1.045769-2.9433594-2.960482-2.9433594-5.15625 0-3.3137247 2.686275-6.0000001 6-6 .725915 0 1.418426.1348852 2.0625.3710938.0026-.5442422-.02297-1.0879949-.117188-1.6230469.05353-.1862907.07509-.2805062.115235-.4667969.000309-.00153-.000305-.0024 0-.00391-.6586-.1754248-1.346716-.27734-2.060547-.27734zm2.177734.3066406c.158054.7229626.213691 1.4560413.212891 2.1914063 2.123385.9240102 3.609375 3.0384245 3.609375 5.5019531 0 3.3135-2.6865 6-6 6-.968367 0-1.879631-.235131-2.6894531-.642578-.00877.0072-.01662.01629-.025391.02344-.5789706.471085-1.2037421.856851-1.865234 1.171872 1.2981146.90909 2.8750131 1.447266 4.5800781 1.447266 4.418 0 8-3.582 8-8 0-3.6623318-2.463947-6.7440277-5.822266-7.6933594z" opacity=".3"/>
    <path d="m13.115234 3.0019191c-.01912.1098135-.03175.1655615-.05469.2792969-.04015.1862907-.0617.2805062-.115235.4667969.156771.8902736.160249 1.8069685.07422 2.703125-.01964.2041821-.04801.4079682-.08398.6113281-.01873.046093.373047.037109.373047.037109.02959-.2111748.05105-.4222258.06055-.6308594.05162-1.1608854.04625-2.329443-.253907-3.4667969zm-.199218 4.1074219c-.381423.3384985-.766735.6973205-1.052735 1.1054688-.689603.9859882-1.128794 2.2321942-2.019531 3.0839842-.36204.344816-.78388.645487-1.2167969.910156.2279519.03354.4810309.05635.7089849.0098-.4597359.290764-.9741598.567393-1.3496099.955078-.1858094.190115-.3785309.384461-.5585937.582031.1455828-.08947.3159558-.191458.4921875-.193359.2911653-.0037.8496094-.326172.8496093-.326172 0 0-1.0514205.676332-1.4824218 1.095703-.2451918.238576-.5217103.466157-.7324219.738281-.1896425.246011-.1933594.240235-.1933594.240235.3543788-.130472.7143186-.265557 1.0859375-.345703-.1494138.05405-.2217177.08053-.3730468.130859-.3294767.130472-.7066937.228557-.9882813.392578-.5076238.296356-1.0108179 1.057212-1.3632813 1.558594-.187725.26467-.4971456.489594-.6503906.761719-.088116.156566-.079665.320323-.058594.361328.1551604.285172.9302142.526483 1.3554687.630859.511455.123016 1.0493925.178717 1.5761719.199219.3122364-.06523.635367-.194128.8652344-.414062.3122365-.298222.7632967-.586835.9433593-.972657.1034406-.218074.2618661-.345901.2675781-.349609-.2356138.389551-.4937655.767137-.7734374 1.125-.1340893.169613-.3183594.384766-.3183594.384766.3122364-.111832.6388226-.295376.9453125-.345704.1896413-.03169.3993403-.119707.5449223-.253906.15516-.143518.389423-.200411.527344-.347656.381196-.408188.637996-1.030293 1.001953-1.458984.04597-.05405.155949-.194987.240234-.310547.06705-.09319.121094-.171875.121094-.171875-.193471.43801-.387021.883629-.601563 1.308593-.0019.0038-.002.008-.0039.01172-.06513.117425-.162114.23165-.261719.337891-.01342.0149-.02565.02805-.03906.04297-.01723.01862-.0072.01884.01953.0039.388859-.205026.731897-.517641 1.103516-.763672.01149-.0074.02364-.01393.03125-.01953.277757-.160293.52355-.444483.728515-.671875.193472-.214346.292029-.344715.34375-.650391.0019-.0093.002-.01802.0039-.02734.06321-.441738.130745-.882302.224609-1.320312.01915-.09133.03343-.168962.04492-.230469 0-.0074.002-.01798.0039-.02539.0019-.0149.0059-.02992.0078-.04297.0019-.0074.002-.01406.0039-.02149.0019-.01305.004-.02388.0059-.0332v-.002c0-.0056.004-.02578.0059-.0332.0038-.0205.0293-.09375.0293-.09375v.0293.01758c-.01537.773508-.140246 1.606728-.02149 2.367187.08812.56289.138672.447266.138672.447266.05172-.663539-.01721-1.470324.201172-2.074219.147498-.408189.384317-.851142.460937-1.291015.07853-.451058.07594-.932291.06445-1.394532-.01532-.598303-.05248-1.200436-.138672-1.796875.08045.283309.19756.580329.21289.871094.01532.275852.02364.560353.03125.841797.06513-.346679.114488-.716086.07617-1.068359-.03644-.324313.02664-.655888-.0098-.97461-.04787-.417458-.06137-.8686197-.203124-1.2656248-.136006-.3876855-.312575-.7745131-.416016-1.1640624-.0097-.035937-.03412-.065095-.0625-.089844-.150269 1.0644461-.515311 2.1478742-.84961 3.1406252-.422507 1.256972-1.099697 2.319669-1.736328 3.458984-.585013 1.045189-1.511896 1.928673-2.4238281 2.671875-.7953115.647116-1.6747492 1.141153-2.6210937 1.498047-.2944183.109814-.6239224.148399-.9355469.158203-.2294169.0059-.3927434-.0078-.4003906-.0078.6767797-.145111 1.3625832-.354052 1.9628906-.708985 1.6651839-.98636 3.2340037-2.336875 4.2109377-4.058593.621337-1.092252 1.208062-2.16513 1.617188-3.365235.305941-.9015956.623828-1.8387632.796875-2.7871092z"/>
  </g>
</svg>
