<svg height="22" width="22" xmlns="http://www.w3.org/2000/svg">
  <path d="m11 3a8 8 0 0 0 -8 8 8 8 0 0 0 8 8 8 8 0 0 0 8-8 8 8 0 0 0 -8-8zm-3 4a2 2 0 0 1 2 2 2 2 0 0 1 -2 2 2 2 0 0 1 -2-2 2 2 0 0 1 2-2zm6 0a2 2 0 0 1 2 2 2 2 0 0 1 -2 2 2 2 0 0 1 -2-2 2 2 0 0 1 2-2zm-7.0625 4.986328a1.0001 1.0001 0 0 1 .0996094 0 1.0001 1.0001 0 0 1 .953125.867188s.0751769.506001.4785156 1.050781 1.0334318 1.095703 2.53125 1.095703c1.497818 0 2.127911-.550923 2.53125-1.095703.403336-.544781.478516-1.050781.478516-1.050781a1.00101 1.00101 0 1 1 1.980468.292968s-.144347.994-.851562 1.949219c-.707215.95522-2.078706 1.904297-4.138672 1.904297-2.0599659 0-3.4314566-.949077-4.1386719-1.904297s-.8515625-1.949219-.8515625-1.949219a1.0001 1.0001 0 0 1 .9277344-1.160156z" fill="#444"/>
</svg>
