<svg height="22" width="22" xmlns="http://www.w3.org/2000/svg">
  <path d="m4.6370626 3.2226561-1.4140626 1.4140626 2.1757813 2.1757812c-.8748593 1.167035-1.3984375 2.6125731-1.3984375 4.1875001v4.666016s.0006514 2.333984 2.3339844 2.333984h2.6660156v-6h-3v-1c0-.962016.3520335-1.884543.90625-2.6796871l6.0937502 6.0937491v3.585938h2.666016c1.188529-.134266 1.660682-.749513 2.197265-1.550783l-3.40625-3.406248-1.042969-1.042969zm6.3632814.7773438c-1.0492551 0-2.0365592.242713-2.9277346.65625l1.5781245 1.578125c.4357221-.1454061.8874071-.234375 1.3496101-.234375 2.59 0 5 2.41 5 5.0000001v1h-.585938l2.585938 2.585938v-3.585938c0-3.8733331-3.126666-7.0000001-7-7.0000001z" fill="#444"/>
</svg>
