<svg height="22" width="22" xmlns="http://www.w3.org/2000/svg">
  <path d="m7.9238.013672-6.7695 1.9863c-.0924.032-.1543.4741-.1543.5703 0 2.372.6393 5.1146 1.7539 7.5237.9041 1.954 2.53 4.56 5.1406 5.881.0333.016.0692.025.1055.025s.0722-.009.1055-.025c2.6105-1.321 4.2365-3.927 5.1405-5.881 1.115-2.4093 1.754-5.152 1.754-7.5237 0-.0962-.062-.5383-.154-.5703l-6.7698-1.9863c-.049718-.017242-.10263-.017242-.15234 0zm.03125 2.9941c.02841-.0097.059481-.0097.087891 0l3.8691 1.3184c.053.018.088.065.088.1191 0 1.3341-.365 2.8774-1.002 4.2324-.517 1.0991-1.4458 2.5653-2.9375 3.3083-.0189.01-.0397.014-.0605.014s-.0416-.004-.0605-.014c-1.4918-.742-2.4209-2.209-2.9375-3.3083-.637-1.3549-1.002-2.8981-1.002-4.2324 0-.0541.0351-.1011.0879-.1191l3.8672-1.3184z" fill="#444" transform="matrix(.999990252 0 0 1.000065 3.0000189288 2.99889995463)"/>
  <path d="m10 7v4h2v-4zm0 5v2h2v-2z" fill="#4285f4"/>
</svg>
