<svg height="22" width="22" xmlns="http://www.w3.org/2000/svg">
  <path d="m8.5859 8c-.58764 0-1.2662 1.1027-1.9844 2.2695-.13409.21714-.26464.42843-.39062.625-.40496.70629-.95117 1.8126-1.4785 2.1074-.44185.24343-.92012.40234-1.3008.40234-.25737 0-.35957-.0787-.38477-.10156-.1754-.166-.3866-.303-.5468-.303-.2268 0-.5 0-.5.5 0 1.5 3.0663 2.393 4.4258 2.484.1899.011.384.016.582.016h.048828c1.4632-.02514 2.7797-.70087 3.5293-1.8083.15388-.22629.37537-.19141.41406-.19141.0387 0 .26018-.03488.41406.19141.74962 1.1074 2.066 1.7832 3.5293 1.8083h.04883c.19798 0 .39215-.0053.58203-.01563 1.36-.091 4.426-.984 4.426-2.484 0-.5-.273-.5-.5-.5-.16018 0-.37139.13702-.54688.30273-.0252.02286-.12739.10156-.38477.10156-.38066 0-.85893-.15892-1.3008-.40234-.52735-.29486-1.0736-1.4011-1.4785-2.1074-.12599-.19657-.25654-.40786-.39062-.625-.718-1.1673-1.396-2.27-1.984-2.27-.417 0-.9.2979-1.365.5859-.388.24-.788.4141-1.049.4141s-.661-.1741-1.0488-.4141c-.4653-.288-.9477-.5859-1.3653-.5859z" fill="#444" fill-rule="evenodd"/>
  <circle cx="11" cy="6" fill="#4285f4" r="2"/>
</svg>
