<svg height="22" width="22" xmlns="http://www.w3.org/2000/svg">
  <g fill="#444">
    <path d="m3.800781 4c-.4432 0-.800781.3114187-.800781.6992188v13.6015622c0 .387799.357581.699219.800781.699219h14.398438c.4432 0 .800781-.31142.800781-.699219v-13.6015622c0-.3878-.357581-.6992188-.800781-.6992188h-.199219-6v4h1 1v1h-2v1h2v1h-2v-1h-2-1v1h-1-3v-1h2 1v-3h-1-2v-1h3v-2zm9.199219 2h4v1h-2-1-1zm-8 2h2v1h-2zm10 0h2v1h-1-1zm1 2h1v1h-1zm-11 2h3v1h-3zm7 0h2 1v1h-2-1zm4 0h1v1h-1zm-11 2h3v1h-1-1-1zm4 0h1v1h-1zm3 0h1v1h-1zm3 0h1 1v1h-1-1zm-10 2h1v1h-1zm2 0h1 1 1v1h-3zm5 0h1 2 1v1h-4z"/>
    <path d="m8.9998 3.5v5.5h1.0002.9998v-5.5s-.08113-.5-.9998-.5c-.918674 0-1.0002.5-1.0002.5z" opacity=".3"/>
  </g>
</svg>
