<svg height="22" width="22" xmlns="http://www.w3.org/2000/svg">
  <path d="m11.00015 3.7210001-2.1894998 2.2793h-2.8105001v2.8105l-2.2792999 2.1894999 2.2792999 2.2207v2.779h2.8105001l2.1894998 2.279 2.221-2.279h2.779v-2.779l2.279-2.2207-2.279-1.9999999v-3h-2.779zm0 3.2793c2.21 0 4 1.79 4 3.9999999 0 2.2097-1.79 3.9997-4 3.9997-2.2099999 0-3.9999999-1.79-3.9999999-3.9997 0-2.2099999 1.79-3.9999999 3.9999999-3.9999999zm0 1c-1.6568999 0-2.9999998 1.3431-2.9999998 2.9999999 0 1.6569 1.3430999 2.9997 2.9999998 2.9997z" fill="#444" opacity=".3"/>
</svg>
