<svg height="22" width="22" xmlns="http://www.w3.org/2000/svg">
  <path d="m14.000147 11.000259a3 3 0 0 1 -3 3 3 3 0 0 1 -3.0000001-3 3 3 0 0 1 3.0000001-2.9999996 3 3 0 0 1 3 2.9999996zm-9.1679685-7.9999998c-.2105737.00455-.393835.080379-.53125.2167969-.1952.191-.3007812.5002006-.3007812.9003906v13.7597653c0 .40016.1145814.709411.3007812.900391.28372.28193.7270619.307932 1.2324219.0078l3.5878907-2.091785 7.7636719-4.523437a6 6 0 0 0 .08594-.585937 6 6 0 0 1 -.08594.585937l.476562-.277344c.85117-.49111.85117-1.290815 0-1.791015l-.478516-.2792972c-.54756-2.7493573-2.972238-4.8222656-5.882812-4.8222656-.65436 0-1.2842397.106345-1.8730466.3007812l-3.59375-2.0937499c-.25269-.1455151-.490598-.2115794-.7011719-.2070313zm3.6582032 2.5566406c-.063644.029542-.125087.062062-.1875.09375.062375-.031654.1238917-.064235.1875-.09375zm-.6074219.328125c-.071257.043706-.1416758.088212-.2109375.1347656.069334-.046571.139603-.091049.2109375-.1347656zm3.1171872.1152344c2.773606 0 5 2.2266829 5 4.9999998.000025.18825-.03354.373712-.05469.560547l-6.8964816 4.015625c-.1282641-.055555-.2614976-.099849-.3847656-.166016l-.021484-.01172-.023437-.01172c-.018751-.0089-.015315-.0025-.033203-.0098-.011032-.0088-.039139-.03097-.1542969-.09961h-.00195c-.074437-.04408-.1486541-.09079-.2207031-.138672l-.00781-.0059c-.08764-.05976-.1665977-.116865-.2402344-.173828l-.00195-.002c-.0781832-.060867-.1541229-.123748-.2285253-.189328h-.00195c-.1012522-.089007-.1708407-.147178-.2070344-.18164l-.00195-.002-.00195-.002-.00977-.01172-.013672-.01367c-.1189405-.116865-.2312485-.238744-.3378924-.367095-.037439-.04504-.088765-.114087-.15625-.205078l-.00195-.0039-.00195-.002c-.06382-.08453-.125298-.17123-.1836-.259725l-.00195-.0039c-.0532254-.081932-.1023554-.159954-.1464875-.236334l-.00391-.0078c-.050824-.09094-.09752-.181484-.1425744-.275404l-.00195-.0039-.00195-.0039c-.056889-.115998-.09754-.192712-.1152406-.234387v-.0019c-.0700669-.168055-.1322512-.339091-.1835937-.513725v-.0039-.002c-.010058-.03362-.027876-.102872-.054688-.208984-.032985-.13066-.059706-.263586-.082031-.396484-.01586-.09472-.028763-.16606-.035156-.21875v-.0039-.0059c-.026085-.19872-.040906-.397233-.042969-.597652.00183-.116593.0076-.233426.017578-.349609v-.0078l.00195-.0059c.00742-.103539.018032-.211356.033203-.322266v-.002h.00195c.00619-.04658.012026-.09424.019531-.140625v-.0039c.021451-.128216.047982-.2532046.078125-.3749999.00638-.024246.012785-.048118.019531-.072266l.00195-.00586.00195-.00586c.0373785-.1399076.0790663-.2757179.1269666-.4080627v-.00195c.0004834-.00133.00147-.00257.00195-.00391.00414-.011131.00945-.022102.013672-.033203v-.00391l.00195-.00195c.0524741-.1406314.1093602-.2777606.1738342-.4121082l.00391-.00586v-.00195c.00567-.011444.011822-.021803.017578-.033203l.00195-.00391.00195-.00391c.063681-.1289157.1337284-.2566568.208987-.3808545.01287-.021263.025876-.041431.039063-.0625.0853064-.1360146.1721693-.2647033.2656245-.3867187.1019464-.1329847.2063829-.255397.3144531-.3710938l.00391-.00391.00977-.00977c.914875-.9726409 2.1980382-1.58007 3.6386635-1.58007zm-3.6914059.2851562c-.061573.048414-.1239804.095759-.1835938.1464844.059715-.050802.121914-.09801.1835938-.1464844zm9.6601559 4.1054686c.0206.200236.03125.403597.03125.609375 0-.20579-.01102-.408917-.03125-.609375zm-11.9687497.609375a6 6 0 0 0 .021484.378906 6 6 0 0 1 -.021484-.378906zm.2558594 1.71875a6 6 0 0 0 .1015625.289062 6 6 0 0 1 -.1015625-.289062zm2.9355468 3.572266a6 6 0 0 0 .4511719.214843 6 6 0 0 1 -.4511719-.214843z" fill="#444"/>
</svg>
