<svg height="22" width="22" xmlns="http://www.w3.org/2000/svg">
  <path d="m6.5085981 4.0004733c-.3596844-.0002815-.692295.1893767-.8729146.4977455l-3.4994332 5.9991622c-.1816671.310332-.1816671.693379 0 1.003711l3.4994332 5.998808c.180529.308505.5131566.500308.8729146.5001h6.9868599c.359125-.000418.690932-.192137.871143-.5001l3.497327-5.998808c.181667-.310332.181667-.693379 0-1.003711l-3.497327-5.9991622c-.180302-.3078264-.512091-.4974012-.871143-.4977455zm6.1142639 1.9996264c.257517-.0001037.497396.1235124.636618.3280657v.00195l-3.257487 3.255365-3.257134-3.2574879c.132685-.1954378.3576963-.3177869.6033172-.3280515zm-6.9520352 2.0816747 2.9173913 2.9173916-2.9173913 2.917745-1.5662158-2.558164c-.1369379-.222096-.1369379-.496535 0-.718631l1.5661095-2.5581291zm8.6625442 0 1.566109 2.5581286c.136938.222096.136938.496535 0 .718631l-1.566216 2.558519-2.917391-2.917746 2.917391-2.9173909zm-4.331272 4.3312726 3.255362 3.255362c-.138354.20474-.377422.329058-.634635.330018h-5.2413841c-.2575141.000107-.497393-.123504-.6366183-.328052l3.2571334-3.257488z" fill="#444"/>
  <path d="m16.54 4.0004988c-.430447-.0004988-.677934.4647399-.459569.8025845l.951789 1.4645661.947077 1.4645662c.232394.3570455.811247.3570455 1.043641 0l.951471-1.4644953.946863-1.4644953c.227827-.3571673-.06042-.8013103-.521626-.803225z" fill="#4285f4"/>
</svg>
