<svg height="22" width="22" xmlns="http://www.w3.org/2000/svg">
  <g fill="#444" transform="matrix(.7324 0 0 .7324 3 3)">
    <path d="m3.035 15.779c-1.679 0-3.035 1.359-3.035 3.033 0 1.676 1.356 3.033 3.035 3.033 1.675 0 3.032-1.357 3.032-3.033-.001-1.674-1.357-3.033-3.032-3.033z"/>
    <path d="m0 0v3.62c9.817.197 17.741 8.238 17.741 18.104 0 .041-.002.083-.002.122h3.623c0-.041.003-.081.003-.122 0-11.861-9.552-21.527-21.365-21.724z"/>
    <path d="m0 7.255v3.622c5.815.194 10.486 4.981 10.486 10.847 0 .041-.001.083-.004.122h3.623c0-.039.004-.081.004-.122-.001-7.861-6.297-14.272-14.109-14.469z"/>
  </g>
</svg>
