<svg height="22" width="22" xmlns="http://www.w3.org/2000/svg">
  <path d="m0 0h22v22h-22z" opacity="0"/>
  <g fill="none" stroke="#444" stroke-linecap="round" stroke-width="2">
    <path d="m5.0000539 14.000066c0 1 0 1 .9999987 1 .3590928 0 .4252988.000218 1.00001.000032.4545524-.000111-.0000114-.000032.9999911-.000032 0 0 .9999912 0 .9999987-1l.0000076-1.00045c0-4.214384-3.9999986.211163-3.9880175-3.9907039-.00253-.4205456-.012095-.7453846-.012095-1.0088459 0-.9999999.9999987-.9999999.9999987-.9999999.2518677 0 .6317065-.0004499 1.0000101-.0004492.3476787 0 .7412522.0004492.9999911.0004492.9999987 0 .9999987 0 .9999987.9999999" stroke-linejoin="round"/>
    <path d="m17.00315 14.999823-2.000001-3m-2.000002-1.000002 1.999983-.000004c.423836-.000001.729048.000454 1.00001.000454.999998 0 .999998 0 .999998-1 0-.2567203.000015-.5997725.000012-1.0004477l-.000012-.9995519c0-1 0-1-.999998-1-.224504 0-.544112.00944-.874519.00719-1.12549-.00765-2.125474-.00756-2.125474-.00756m.000099 8.0000986v-8.0000003"/>
  </g>
</svg>
