<svg height="22" width="22" xmlns="http://www.w3.org/2000/svg">
  <path d="m0 0h22v22h-22z" opacity="0"/>
  <g fill="none" stroke="#444" stroke-linecap="round" stroke-width="2">
    <path d="m4.9999989 10.999998h4.0000022m0 4.000002v-8.0000003m-4.0000023 8.0000003v-8.0000003"/>
    <path d="m17.00315 14.999823-2.000001-3m-2.000001-1.000003 1.999982-.000003c.423836-.000001.729048.000454 1.00001.000454.999999 0 .999999 0 .999999-1 0-.2567203.000015-.5997725.000011-1.0004477l-.000011-.9995519c0-1 0-1-.999999-1-.224504 0-.544112.00944-.874519.00719-1.12549-.00765-2.125473-.00756-2.125473-.00756m.000098 8.0000986v-8.0000003"/>
  </g>
</svg>
