<svg height="22" width="22" xmlns="http://www.w3.org/2000/svg">
  <path d="m6.3482 3a.25823.25823 0 0 0 -.2542.2623v1.5674c-.6493.1087-1.156.6154-1.2648 1.2647h-1.5674a.25823.25823 0 1 0 0 .5164h1.5411v2.582h-1.5411a.25823.25823 0 1 0 0 .5164h1.5411v2.582h-1.5411a.25823.25823 0 1 0 0 .5164h1.5411v2.582h-1.5411a.25823.25823 0 1 0 0 .5164h1.5674c.10876.64926.61551 1.156 1.2648 1.2648v1.5674a.25823.25823 0 1 0 .5164 0v-1.5411h2.582v1.5411a.25823.25823 0 1 0 .5164 0v-1.5411h2.582v1.5411a.25823.25823 0 1 0 .5164 0v-1.5411h2.582v1.5411a.25823.25823 0 1 0 .5164 0v-1.5674c.64926-.10876 1.156-.61551 1.2648-1.2648h1.5674a.25823.25823 0 0 0 .26223-.26223.25823.25823 0 0 0 -.26223-.25417h-1.5411v-2.582h1.5411a.25823.25823 0 0 0 .26223-.26223.25823.25823 0 0 0 -.26223-.25417h-1.5411v-2.582h1.5411a.25823.25823 0 0 0 .263-.262.25823.25823 0 0 0 -.262-.2542h-1.5411v-2.582h1.5411a.25823.25823 0 0 0 .262-.2622.25823.25823 0 0 0 -.262-.2542h-1.5674c-.109-.6493-.616-1.156-1.265-1.2648v-1.5674a.25823.25823 0 0 0 -.263-.2622.25823.25823 0 0 0 -.254.2623v1.5411h-2.582v-1.5411a.25823.25823 0 0 0 -.262-.2623.25823.25823 0 0 0 -.254.2623v1.5411h-2.582v-1.5411a.25823.25823 0 0 0 -.2624-.2623.25823.25823 0 0 0 -.2542.2623v1.5411h-2.582v-1.5411a.25823.25823 0 0 0 -.2622-.2623z" fill="#444"/>
</svg>
