<svg height="22" width="22" xmlns="http://www.w3.org/2000/svg">
  <path d="m0 0h22v22h-22z" opacity="0"/>
  <g fill="none" stroke="#444" stroke-linecap="round" stroke-linejoin="bevel" stroke-width="2">
    <path d="m5.0069673 10.999988 1.9999823-.000004c.4242292-.000001.7359684.000454 1.00001.000454.9999987 0 .9999987 0 .9999987-1 0-.3133376.0000189-.3843734.0000113-1.0004478-.0000037-.4161034-.0000113-.7327469-.0000113-.9995518 0-1 0-1-.9999987-1-.2328945 0-.575142.020239-.9214299.024786-1.0787829.014169-2.0785624-.025323-2.0785624-.025323m.0000983 8.0000986v-8.0000003"/>
    <path d="m13 12.004811h4m-3.9999 2.999999v-5.9999989m3.9999 5.9999989v-5.9999989m-4 0-.000016-.9995518c0-1 0-1 2.000016-1.0004491 1.999985-.0004491 1.999977.0004491 1.999985 1.0004491.000015 1.9947407.000015.9995518.000015.9995518"/>
  </g>
</svg>
