<svg height="22" width="22" xmlns="http://www.w3.org/2000/svg">
  <path d="m0 0h22v22h-22z" opacity="0"/>
  <g fill="none" stroke="#444" stroke-linecap="round" stroke-linejoin="bevel" stroke-width="2">
    <path d="m8.0240249 11.999735h1.9999971m-.9999984 0-.0000113 2.000448c0 1 0 1-1.0000025.999552-.407777 0-1.7015092.000448-1.9999974.000448-1.0000024 0-1.0000024 0-1.0000024-1l.0000151-3.00045-.0000151-2.9995494c0-1 0-1 1.0000024-1 .2508095 0 1.6159785-.0003629 1.9999974-.0004492 1.0000025.0004492 1.0000025.0004492 1.0000025 1.0004492"/>
    <path d="m18.000004 7.0048001-.000004 5.9999999c0 1.000449-.000004 2.000449-1.000006 2.000449-.395448 0-.610938.0096-.999991-.000448-.383857.0015-.000008.000448-1.000007.000448-1.000002 0-.999995-1-.999995-2.000449l.000004-5.9999999"/>
  </g>
</svg>
