<svg height="22" width="22" xmlns="http://www.w3.org/2000/svg">
  <path d="m0 0h22v22h-22z" opacity="0"/>
  <g fill="none" stroke="#444" stroke-linecap="round" stroke-width="2">
    <path d="m3.968257 10.988609s1.9999845.02271 2.9999844.02268c.4072187-.000025.7411891.000346 1.0000009.000346.9999996 0 .9999996 0 .9999996 1 0 .2561 0 .574013.000001.977183 0 .401652-.000001.758148-.000001 1.022817 0 .999999 0 .999999-.9999996.999999-.2542904 0-.6067264-.000244-1.0000176-.000244-.9999998 0-2.9999832-.02268-2.9999832-.02268m.0001137-8.000098v8m-.0000982-3.977325 1.9999845-.000004c2.0000001 0 2.0000001 0 2.0000178-1.9999929l-.000017-.9996577c0-1 0-1-.9999998-1-.2575597 0-.5967466-.0003479-1.000001-.0003471l-1.9999845.0000038m.0000982 8.0000989v-8.0000007" stroke-linejoin="bevel"/>
    <path d="m14.999585 14.998586v-4.000002m3-3.9999988-3 3.9999988m-3-3.9999988 3 3.9999988"/>
  </g>
</svg>
