<svg height="22" width="22" xmlns="http://www.w3.org/2000/svg">
  <path d="m10.5 3a5.5 5.5 0 0 0 -5.4804688 5.1269531 4 4 0 0 0 -3.0195312 3.8730469 4 4 0 0 0 4 4h-.2207031c.0790699.28213.1487537.567335.1289062.845703.01039.746578-.3997707 1.199563-.9023437 1.634766-.127824.06781-.2260149.147344-.2167969.175781.03038.09368.6159005.29352.9609375.328125.445165.04463 1.0652649-.009607 1.4199219-.142578.563869-.211406 1.0170285-.563451 1.3359375-1.041016.272695-.408366.4161593-.813186.4589844-1.285156l.03125-.515625h6.5039062a3.5 3.5 0 0 0 3.5-3.5 3.5 3.5 0 0 0 -3.027344-3.4628906 5.5 5.5 0 0 0 .027344-.5371094 5.5 5.5 0 0 0 -5.5-5.5z" fill="#444"/>
</svg>
