<svg height="22" width="22" xmlns="http://www.w3.org/2000/svg">
  <path d="m15 3c-2.209 0-4 1.7909-4 4 .002.7135.195 1.4135.559 2.0273l-2.6078 2.6077-4.2422-4.2424c-.1959-.1959-.4534-.293-.709-.293s-.5112.0971-.707.293c-.3918.3917-.3918 1.0223 0 1.414l4.2422 4.2424-4.2422 4.242c-.3918.392-.3918 1.024 0 1.416.3917.392 1.0242.392 1.416 0l.707-.707h1.584v-1.584l.416-.416h1.584v-1.486l4.193 4.193c.392.392 1.023.392 1.414 0 .392-.392.392-1.024 0-1.416l-4.242-4.242 2.608-2.608c.614.364 1.313.557 2.027.559 2.209 0 4-1.7909 4-4s-1.791-4-4-4zm1 2c.552 0 1 .4477 1 1s-.448 1-1 1-1-.4477-1-1 .448-1 1-1z" fill="#444"/>
</svg>
