<svg height="22" width="22" xmlns="http://www.w3.org/2000/svg">
  <path d="m9.3378906 3c-.04614 0-.3480001.5097587-.6347656 1.0722656-.4197997.8234637-.6207703 1.4559473-.6894531 2.1875-.016969.1807744-.0133292.3586758-.0019531.5332032-.0070801.0786239-.0109988.157397-.0117188.2363281 0 .3216121.06468.625957.1601562.9160156-1.2650576.5642329-2.3364042 1.48507-3.0722656 2.6445315-.1810603.236758-.3410751.483545-.4570312.748047-.1822119.415634-.3173554.845822-.4199219 1.310547-.068248.275755-.1256893.554232-.1601563.841796-.00307.0256.0050102.030974.0175782.027344-.013155.110763-.0307827.216029-.0410156.332031-.0328055.371885-.0367449.525389-.0117188.525391l3.984375-4.375-1.03125 3.455078c.00607.0061.1375377-.04757.2929688-.11914.9549601-.439701 2.1451287-1.206465 3.1972652-1.332032.36284-.0433 1.621735-.047462 2-.007812.766252.08029 1.465805.671536 2.326172.908203.381224.104871.568629.13047.88086.119141.31246-.01132.495749-.05307.726562-.164063.575956-.276959.878965-.878336.794922-1.527344-.0079-.06117-.024709-.120321-.037109-.179687.02469-.06112.001697-.163651-.095703-.333985-.095891-.254803-.237999-.510365-.451172-.798828-.790591-.8687694-1.718122-1.5907508-2.765625-2.0703122.096341-.2912394.162109-.5967946.162109-.9199219-.000026-.075507-.002113-.1512747-.007812-.2265625.0026-.075259.009759-.1505538.005859-.2246094-.053121-1.0171424-.647719-1.7149862-1.544922-2.1738281-.475007-.2429255-1.201657-.3564852-1.675781-.3574219-.591493-.001166-1.0409931-.5097299-1.3300784-.9257812-.0462749-.0666005-.0955862-.1210944-.109375-.1210938zm8.4941404 9.828125c-.235679.392443-.574048.723996-1.005859.931641-.328884.158151-.735822.249642-1.123047.263672-.381272.01383-.761686-.03824-1.183594-.154297-1.137368-.312864-1.841121-.845068-2.164062-.878907-.142321-.01491-1.677283-.00614-1.777344.00586-.6646016.07932-1.8290213.755645-2.8984375 1.248047-.088747.04086-.1700516.07725-.2441406.107421-.037045.01508-.068655.027802-.1191407.044922-.0252429.0086-.0507.018013-.1171874.033204-.033244.0076-.072608.017837-.171875.023437-.0496331.0028-.2280842-.011639-.2285157-.011719-.0002157-.00004-.2205474-.066336-.2207031-.066406-.0001557-.000066-.3182645-.214748-.3183594-.214844a1.0001 1.0001 0 0 1 -.2636718-.472656l-1.2402344 1.361328a1.0001 1.0001 0 0 1 -.6660156.324219 6.9999312 6.9999312 0 0 0 1.703125 3.626953h10.4160152a6.9999312 6.9999312 0 0 0 1.791016-4.666016 6.9999312 6.9999312 0 0 0 -.167969-1.505859zm-9.832031 2.171875a1 1 0 0 1 1 1 1 1 0 0 1 -1 1 1 1 0 0 1 -1-1 1 1 0 0 1 1-1zm6 0a1 1 0 0 1 1 1 1 1 0 0 1 -1 1 1 1 0 0 1 -1-1 1 1 0 0 1 1-1z" fill="#444"/>
</svg>
