<svg height="22" width="22" xmlns="http://www.w3.org/2000/svg">
  <path d="m9.3378906 3c-.04614 0-.3480001.5097587-.6347656 1.0722656-.4197997.8234637-.6207703 1.4559473-.6894531 2.1875-.016969.1807744-.0133293.3586758-.0019531.5332032-.0070804.0786239-.0109988.157397-.0117188.2363281 0 .3216121.06468.625957.1601562.9160156-1.2650573.5642329-2.3364042 1.4850693-3.0722656 2.6445315-.1810603.236758-.3410751.483545-.4570312.748047-.1822119.415634-.3173554.845821-.4199219 1.310547-.068248.275755-.1256893.554232-.1601563.841796-.00307.0256.00501.03097.017578.02734-.013155.110763-.030783.216029-.041016.332031-.0328045.371889-.0367442.525393-.0117182.525395l3.984375-4.375-1.03125 3.455078c.00607.0061.1375376-.04757.2929688-.11914.9549601-.439703 2.1451299-1.206465 3.1972652-1.332032.36284-.0433 1.621735-.04747 2-.0078.37305.03909.729972.199432 1.097657.380859.928846-.883429 2.161502-1.376339 3.443359-1.376965.04691.0019.09379.0045.140625.0078-.01597-.05208-.04136-.111494-.08594-.189453-.09589-.254803-.237999-.510365-.451172-.798828-.790585-.8687447-1.718119-1.5907388-2.765622-2.0703002.096341-.2912394.162109-.5967946.162109-.9199219-.000026-.075507-.0021-.1512747-.0078-.2265625.0026-.075259.0098-.1505538.0059-.2246094-.053227-1.0171424-.647772-1.7149862-1.544975-2.1738281-.475007-.2429255-1.201657-.3564852-1.675781-.3574219-.591493-.001166-1.0409931-.50973-1.3300784-.9257812-.0462749-.0666007-.0955862-.1210944-.109375-.1210938zm7.6621094 9c-2.2091 0-4 1.7909-4 4s1.7909 4 4 4 4-1.7909 4-4-1.7909-4-4-4zm-4.644531.990234c-.142321-.01491-1.677283-.0061-1.777344.0059-.6646016.07932-1.8290213.755645-2.8984375 1.248047-.088747.04086-.1700516.07725-.2441406.107421-.037045.01508-.068655.0278-.1191407.04492-.025243.0086-.0507.01801-.1171874.0332-.033244.0076-.072608.01784-.171875.02344-.049633.0028-.2280842-.01164-.2285157-.01172-.0002157-.000112-.2205474-.066372-.2207031-.066442-.0001557-.000066-.3182645-.214748-.3183594-.214844-.1296618-.130323-.2208935-.293865-.2636718-.472656l-1.2402344 1.361328c-.1723237.189336-.4106955.305376-.6660156.324219.2021624 1.349112.7941274 2.609753 1.703125 3.626953h7.2148432c-.651899-.864502-1.005559-1.917257-1.007812-3 .000368-1.000863.3011-1.978583.863281-2.806641-.212687-.105355-.393279-.191123-.507812-.203125zm4.644531.009766 2.5 3h-1.5v2h-2v-2h-1.5zm-9 2c.5522847 0 1 .447715 1 1s-.4477153 1-1 1-1-.447715-1-1 .4477153-1 1-1z" fill="#444"/>
</svg>
