<svg height="22" width="22" xmlns="http://www.w3.org/2000/svg">
  <path d="m3.8007813 4c-.4432001 0-.8007813.362375-.8007813.8125v11.375c0 .450125.3575812.8125.8007813.8125h2.1992187v1.1875c0 .450125.3723177.8125.8339844.8125h8.3320316c.461666 0 .833984-.362375.833984-.8125v-1.1875h2.199219c.4432 0 .800781-.362375.800781-.8125v-11.375c0-.450125-.357581-.8125-.800781-.8125zm.1992187 1h14v11h-14zm6 1a1 1 0 0 0 -1 1 1 1 0 0 0 1 1 1 1 0 0 0 1-1 1 1 0 0 0 -1-1zm5 0a2 2 0 0 0 -2 2 2 2 0 0 0 2 2 2 2 0 0 0 2-2 2 2 0 0 0 -2-2zm-8.5 3a1.5 1.5 0 0 0 -1.5 1.5 1.5 1.5 0 0 0 1.5 1.5 1.5 1.5 0 0 0 1.5-1.5 1.5 1.5 0 0 0 -1.5-1.5zm8.964844 2.400391a.5.5 0 0 0 -.464844.5.5.5 0 0 0 .5.5.5.5 0 0 0 .5-.5.5.5 0 0 0 -.5-.5.5.5 0 0 0 -.03516 0zm-3.464844.599609a1 1 0 0 0 -1 1 1 1 0 0 0 1 1 1 1 0 0 0 1-1 1 1 0 0 0 -1-1z" fill="#444"/>
</svg>
