<svg height="22" width="22" xmlns="http://www.w3.org/2000/svg">
  <path d="m11.018 3c-3.8932 0-7.1297 2.5954-7.8344 6.0273-.1202.5179-.182 1.0467-.1836 1.5767.0025 1.8923.77364 3.6911 2.1172 5.0625a3 3 0 0 1 1.8828-.666 3 3 0 0 1 3 3 3 3 0 0 1 -.00195.03711c.32607.03968.65412.06614.98438.06641 3.8345-.0024 7.124-2.5669 7.8359-6.1074.117-.506.182-1.03.182-1.568 0-4.103-3.574-7.428-7.982-7.428zm-1.018 4 2 3.5 5-2.5-6 6-1.5-3.5-4.5 2.5z" fill="#444"/>
  <circle cx="7" cy="18" fill="#4285f4" r="2"/>
</svg>
