<svg height="22" width="22" xmlns="http://www.w3.org/2000/svg">
  <g fill="#444" transform="translate(-57 -551.36)">
    <path d="m62 556.36s-1 0-1 1v9c0 1 1 1 1 1h2l1 1h5v-2h-4l-1-1h-2v-7h10v6h2v-7c0-1-1-1-1-1z" opacity=".3"/>
    <path d="m71 565.36v1c0 .27614.10029.53779.28125.71875l.78125.78125-.78125.78125c-.18096.18096-.28125.44261-.28125.71875v1h1c.27614 0 .53779-.10029.71875-.28125l.78125-.78125.78125.78125c.18096.18096.44261.28125.71875.28125h1v-1c0-.27614-.10029-.53779-.28125-.71875l-.78125-.78125.78125-.78125c.18096-.18096.28125-.44261.28125-.71875v-1h-1c-.27614 0-.53779.10029-.71875.28125l-.78125.78125-.78125-.78125c-.18096-.18096-.44261-.28125-.71875-.28125z"/>
  </g>
</svg>
