<svg height="22" width="22" xmlns="http://www.w3.org/2000/svg">
  <g fill="#444" opacity=".3" transform="matrix(.99995 0 0 1 -.99929 -1)">
    <path d="m7 4a2.0002 2.0002 0 0 0 -1.9883 1.7793l-1 8.9997a2.0002 2.0002 0 0 0 1.9883 2.221h12a2.0002 2.0002 0 0 0 1.988-2.221l-1-8.9997a2.0002 2.0002 0 0 0 -1.988-1.7793zm6 2v2 5h2v2h-6v-2h2v-4.5l-2 .5v-2z" fill-rule="evenodd"/>
    <path d="m4 17.203v.547c0 1.212 1.0381 2.25 2.25 2.25h11.5c1.212 0 2.25-1.038 2.25-2.25v-.547c-.532.485-1.225.797-2 .797h-12c-.7746 0-1.4684-.312-2-.797z"/>
  </g>
</svg>
