<svg height="22" width="22" xmlns="http://www.w3.org/2000/svg">
  <path d="m5 9h.0000031v7c0 2 .0000031 2.9996 1.5 2.9998 1.5 0 1.5-1 1.5-3-.0000031 2-.0000031 3 1.5 2.9998 1.5 0 1.5-1 1.5-3-.000003 2 .000002 2.9996 1.5 2.9998 1.5 0 1.5-1 1.5-3-.000003 2 .000002 2.9996 1.5 2.9998 1.5 0 1.5-1 1.5-3v-7h-.002c.002-3-.998-6-5.998-6.0002s-6 3.0002-6 6.0002zm3.5-1.0002c.831 0 1.5.669 1.5 1.5s-.669 1.5-1.5 1.5-1.5-.669-1.5-1.5.669-1.5 1.5-1.5zm6 0c.831 0 1.5.669 1.5 1.5s-.669 1.5-1.5 1.5-1.5-.669-1.5-1.5.669-1.5 1.5-1.5z" fill="#4285f4"/>
</svg>
