<svg height="22" width="22" xmlns="http://www.w3.org/2000/svg">
  <g fill="#444" fill-rule="evenodd">
    <path d="m11 3c-.65091 1.267981-1.4664051 2.638963-2.8144531 4.1894531-.594146.6840447-1.1814662 1.2829365-1.7519531 1.8105469h2.5371093 4.0585939 2.501953c-.539118-.4954145-1.094462-1.0572035-1.660156-1.7011719-1.392526-1.5829514-2.243472-3.0229816-2.871094-4.2988281zm1.552734.7753906c.534717.9017938 1.197957 1.8740482 2.06836 2.8632813.848268.9656404 1.669324 1.7348694 2.435547 2.3613281h.447265l-1.441406-4.0019531c-1.061771.022-2.279758-.4646688-3.068359-.9179688-.161077-.094583-.300029-.2006892-.441407-.3046875zm-3.1523434.076172c-.991974.6131406-2.3596903 1.1664183-3.4589844 1.1503906 0 0-.9129387 2.5529544-1.4335937 3.9980469l.4101563-.0000001c.794361-.6608091 1.6431627-1.4668222 2.5117187-2.4667969.804232-.9250075 1.4433311-1.8313527 1.9707031-2.6816406zm-5.0957031 6.1484374c-.051161-.0002507-.1015453.01587-.1464844.04687-.00874.0066-.017216.01379-.025391.02148-.00808.0067-.015898.01386-.023437.02149-.04729.05038-.081354.117825-.097656.193359-.00506.02364-.00833.04784-.00977.07227v.002.002c-.00112.01232-.00177.02471-.00195.03711v.002c.000698.025.00331.04986.00781.07422l.00195.0059.1777344.919922.058594.308593c.00751.03718.019361.07273.035156.105469.015825.03354.035582.06384.058594.08984.015061.01699.031417.03204.048828.04492.00824.0064.016712.01223.025391.01758.039824.02318.083131.03517.1269531.03516h.2558594l3.8457031-.01172c.00456.00013.00912.00013.013672 0h.4589844c.010383.0013.020814.002.03125.002l.011719-.002h.2714844 1.5703125 1.570312.271485c.01431.0013.02866.0013.04297 0h.458984c.0046.00013.0091.00013.01367 0l3.8457096.011537h.002.253906c.07141.000062.140552-.03175.195313-.08984v-.002c.04908-.05209.08394-.122492.09961-.201172l.06055-.308593.177735-.919922c.0024-.01224.0044-.02463.0059-.03711v-.002c.0026-.02525.0033-.05076.002-.07617-.0035-.07731-.02527-.151498-.0625-.21289-.01276-.02069-.02716-.03967-.04297-.05664-.0069-.0082-.01404-.01605-.02148-.02344h-.002c-.0064-.0055-.01287-.01073-.01953-.01562l-.0059-.0059c-.0083-.0057-.01674-.01092-.02539-.01563h-.002c-.0089-.0051-.01806-.0097-.02734-.01367h-.002c-.009-.0038-.01811-.0071-.02734-.0098h-.002c-.01923-.0057-.03886-.0089-.05859-.0098h-.002-.002-4.667969-4.0585939zm4.7226563 2.984375.085937.0039h-.4277343c-.02356.000672-.046762.000672-.070312 0l-3.4316406.0098c.2400548 1.810129.458764 5.000301 1.689453 5.001925h1.5898437l-1.4492187-2.507812c-.02309-.04-.015712-.09475.017578-.123047l2.03125-1.72461c.03473-.02954.4066315-.344916.7734375-.65625h-.40625-.2714844l.087891-.0039c-.07296.0065-.145794.0065-.21875 0zm3.7265622 0 .08789.0039h-.271485-.40625c.366807.311334.738709.626714.773438.65625l2.03125 1.72461c.03328.0283.04067.08304.01758.123047l-1.44922 2.507818h1.582032c1.222961 0 1.453176-3.191325 1.697265-5.001953l-3.429687-.0098c-.01337.000381-.02765.000052-.04102 0h-.458984l.08594-.0039c-.07296.0065-.145794.0065-.21875 0z"/>
    <path d="m10.577729 13.000005-1.6914069 3.996094h4.2265629l-1.689453-3.996094z" opacity=".3"/>
  </g>
</svg>
