<svg height="22" width="22" xmlns="http://www.w3.org/2000/svg">
  <path d="m11 3c-4.432 0-8 3.5679998-8 8 0 4.432 3.568 8 8 8s8-3.568 8-8c0-4.4320001-3.568-8-8-8zm-3 2.9999999c1.6 1.2 5.298967 1.201999 7 1.5-1.178779.2616296-3.117177.3157436-4.769531.6523442 1.425675 1.015742 2.160985 1.065857 3.769531 1.347656-1.712773.380149-2.360694.342186-3.789063 1.3613279 1.684351.367339 3.667522.442191 4.789063.638672-1.803821.400357-5.4.3-6.9999998 1.5l1.4999998.199219 1.5-.199219c-1.2 1.6-1.2019992 2.298967-1.5 4-.4003568-1.803821-.3-2.4-1.4999998-4l.1992187-1.5-.1992187-1.5c.5052454.378934 1.228595.631302 2.0234378.818359l.175781-1.3183589-.171875-1.300781c-.7939184.176621-1.5168182.417887-2.027344.800781l.1992188-1.5000003zm4 7.0000001 1.5.199219 1.5-.199219c-1.2 1.6-1.201999 2.298967-1.5 4-.400357-1.803821-.3-2.4-1.5-4z" fill="#444"/>
</svg>
