<svg height="22" width="22" xmlns="http://www.w3.org/2000/svg">
  <g fill="#444" transform="translate(-105 -743.36)">
    <path d="m116 746.36c-1 0-1 1-1 1v14s0 1 1 1h8c1 0 1-1 1-1v-14s0-1-1-1zm.9998 2.0034h6v11h-6z"/>
    <path d="m108.5 746.36c-.27701 0-.5.22301-.5.50001v.5l-2-.002v-.00026l-.00001 14.502c0 .277.22299.5.5.5h6c.27699 0 .5-.223.5-.5l.00001-14.501-.50001.002h-1.5v-.5c0-.277-.22301-.50001-.5-.50001z" opacity=".3"/>
    <path d="m106 756.36-.00001 5.5017c-.00001.277.22299.5.5.5h6c.27699 0 .5-.223.5-.5l.00001-5.5017z"/>
  </g>
</svg>
