<svg height="22" width="22" xmlns="http://www.w3.org/2000/svg">
  <path d="m11 3c-4.4182781-.0000001-8.0000001 3.5817219-8 8 0 4.418278 3.581722 8 8 8s8-3.581722 8-8c0-4.4182781-3.581722-8-8-8zm-2.5 4h5c.831 0 1.5.669 1.5 1.5v5c0 .831-.669 1.5-1.5 1.5h-5c-.831 0-1.5-.669-1.5-1.5v-5c0-.831.669-1.5 1.5-1.5zm1.0859375 1.3789062c-.1278096 0-.2555813.0485501-.3535156.1464844l-.7070313.7070313c-.1958686.1958686-.1958686.5111626 0 .7070312l1.0605469 1.0605469-1.0605469 1.060547c-.1958686.195868-.1958686.511163 0 .707031l.7070313.707031c.1958686.195869.5111626.195869.7070312 0l1.0605469-1.060547 1.060547 1.060547c.195868.195869.511163.195869.707031 0l.707031-.707031c.195869-.195868.195869-.511163 0-.707031l-1.060547-1.060547 1.060547-1.0605469c.195869-.1958686.195869-.5111626 0-.7070312l-.707031-.7070313c-.195868-.1958686-.511163-.1958686-.707031 0l-1.060547 1.0605469-1.0605469-1.0605469c-.0979343-.0979343-.225706-.1464844-.3535156-.1464844z" fill="#444"/>
</svg>
