<svg height="22" width="22" xmlns="http://www.w3.org/2000/svg">
  <path d="m11 2.9999998a8 8 0 0 0 -8.0000001 8.0000002 8 8 0 0 0 8.0000001 8 8 8 0 0 0 8-8 8 8 0 0 0 -8-8.0000002zm-2.5000001 4h5.0000001c.831 0 1.5.669 1.5 1.5v5.0000002c0 .831-.669 1.5-1.5 1.5h-5.0000001c-.831 0-1.5-.669-1.5-1.5v-5.0000002c0-.831.669-1.5 1.5-1.5zm1.09961 2c-.3324 0-.59961.2672094-.59961.5996094v2.8007808c0 .3324.26721.59961.59961.59961h2.8007811c.3324 0 .599609-.26721.599609-.59961v-2.8007808c0-.3324-.267209-.5996094-.599609-.5996094z" fill="#444"/>
</svg>
