<svg height="22" width="22" xmlns="http://www.w3.org/2000/svg">
  <path d="m11 3a8 8 0 0 0 -8 8 8 8 0 0 0 .9921875 3.857422l1.6738281-1.113281a6 6 0 0 1 -.6660156-2.744141 6 6 0 0 1 6-6 6 6 0 0 1 4.59375 2.1503906l1.671875-1.1132812a8 8 0 0 0 -6.265625-3.0371094zm-3 3.5996094v1.9414062l1.2890625.859375-1.2890625.8593754v1.939453l4.199219-2.7988284zm10.011719.5507812-1.673828 1.1132813a6 6 0 0 1 .662109 2.7363281 6 6 0 0 1 -6 6 6 6 0 0 1 -4.5878906-2.142578l-1.671875 1.111328a8 8 0 0 0 6.2597656 3.03125 8 8 0 0 0 8-8 8 8 0 0 0 -.988281-3.8496094zm-4.011719 2.6503906-4.1992188 2.7988278 4.1992188 2.800782v-1.941407l-1.289062-.859375 1.289062-.859375z" fill="#444"/>
</svg>
