<svg height="22" width="22" xmlns="http://www.w3.org/2000/svg">
  <path d="m6.5 3c-.831 0-1.5.669-1.5 1.5v13c0 .831.669 1.5 1.5 1.5h8c.831 0 1.5-.669 1.5-1.5v-13c0-.831-.669-1.5-1.5-1.5zm1.5 2c.5524 0 1 .4478 1 1s-.4476 1-1 1-1.0002-.4478-1-1c-.0002-.5522.4476-1 1-1zm5 0c.55243 0 1.000202.44778 1 1 .0002.55222-.44757 1-1 1s-1.000202-.44778-1-1c-.0002-.55222.44757-1 1-1zm-2.5 5c1.933 0 3.5 1.567 3.5 3.5s-1.567 3.5-3.5 3.5c-1.9334 0-3.5005-1.567-3.5-3.5-.0005-1.933 1.5666-3.5 3.5-3.5zm0 2c-.828 0-1.5.672-1.5 1.5s.672 1.5 1.5 1.5 1.5-.672 1.5-1.5-.672-1.5-1.5-1.5zm7.123047 2a.60877104.68700394 0 0 0 -.623047.6875v1.8125 1.8125a.60877104.68700394 0 0 0 .912109.595703l1.392579-.90625 1.390624-.90625a.60877104.68700394 0 0 0 0-1.189453l-1.390624-.908203-1.392579-.90625a.60877104.68700394 0 0 0 -.289062-.091797z" fill="#444" fill-rule="evenodd"/>
</svg>
