<svg height="22" width="22" xmlns="http://www.w3.org/2000/svg">
  <path d="m6.5 19c-.831 0-1.5-.669-1.5-1.5v-13c0-.831.669-1.5 1.5-1.5h8c.831 0 1.5.669 1.5 1.5v13c0 .831-.669 1.5-1.5 1.5zm4-2c1.933 0 3.5-1.567 3.5-3.5s-1.567-3.5-3.5-3.5c-1.9334 0-3.5005 1.567-3.5 3.5-.0005 1.933 1.5666 3.5 3.5 3.5zm0-2c-.828 0-1.5-.672-1.5-1.5s.672-1.5 1.5-1.5 1.5.672 1.5 1.5-.672 1.5-1.5 1.5zm-2.5-8c.5524 0 1-.4478 1-1s-.4476-1-1-1-1.0002.4478-1 1c-.0002.5522.4476 1 1 1zm5 0c.55243 0 1.0002-.44778 1-1 .000202-.55222-.44757-1-1-1s-1.0002.44778-1 1c-.000202.55222.44757 1 1 1z" fill="#444" fill-rule="evenodd"/>
</svg>
