<svg height="22" width="22" xmlns="http://www.w3.org/2000/svg">
  <g fill="#444">
    <path d="m6.4628906 3c.7998917-.0106071 1.5915351.3626685 2.0839844 1.0664062.2007601.286871.3332111.6064948.4003906.9394532h2.7324224c2.092826 0 3.791015 1.3954526 3.791015 3.4882812 0 1.2468559-.611138 2.2370674-1.541015 2.8417974l1.009765 1.443359c1.254748-1.003283 2.060547-2.540458 2.060547-4.2675782 0-3.0241715-2.462434-5.4765625-5.5-5.4765626h-4.5957031c-.1458061-.0246412-.2935207-.0365093-.4414063-.0351562zm-2.4589844 2.5195312-.0039062.0039063v.0351563c-.0002756-.0129687.0039791-.0260747.0039062-.0390626zm-.0039062.0390626v10.9160152c-.047813 3.365899 5.047813 3.365899 5 0v-2.488281h.6796875l-.0488281-.070312a2.50025 2.50025 0 0 1 -.4257813-1.931641h-2.4121093v4.6875c.0076287.53942-.8064582.53942-.7988282 0v-8.7304688c-.6022332-.1250879-1.1611847-.4650127-1.5410156-1.0078124-.287176-.4103529-.4427261-.8855805-.453125-1.375zm4.9707031.2441406c-.0053859.0437116-.002065.0871563-.0097656.1308594-.1160083.657985-.4805534 1.2320756-1.0273437 1.6152343-.3505167.2456102-.7427818.3776501-1.140625.4238281v3.2128908h.796875 1.9140624a2.50025 2.50025 0 0 1 1.6621098-1.181641h-2.166016v-2.9863279h2.5c.875806 0 1.5.6221971 1.5 1.4941407 0 .7451278-.45757 1.3017037-1.136719 1.4492187a2.50025 2.50025 0 0 1 1.583985.7480465c.741261-.456195 1.224609-1.2185004 1.224609-2.2148434 0-1.6616825-1.330506-2.6914062-2.992187-2.6914062h-2.0957036z" opacity=".3"/>
    <path d="m6.4550781 3c-.4815269.0078894-.9653338.1545349-1.3886719.4511719-.5469387.3830105-.911483.9573977-1.0273437 1.6152343-.1160082.6578366.0311611 1.3200505.4140625 1.8671876.7904825 1.1296441 2.351567 1.406266 3.4804688.6152343.5467903-.3831587.9113354-.9572493 1.0273437-1.6152343.1158605-.6575403-.0311612-1.3200507-.4140625-1.8671876-.4940515-.7060274-1.289252-1.0795552-2.0917969-1.0664062zm5.1406249 6.953125a2.50025 2.50025 0 0 0 -1.9648436 3.962891l2.7929686 3.988281a2.50025 2.50025 0 1 0 4.095703-2.867188l-2.791015-3.988281a2.50025 2.50025 0 0 0 -2.132813-1.095703z"/>
  </g>
</svg>
