<svg height="22" width="22" xmlns="http://www.w3.org/2000/svg">
  <path d="m8.5 5c-3.0375661 0-5.5 2.4624339-5.5 5.5.00244.220141.018091.439938.046875.658203-1.2217879.409382-2.0456857 1.553248-2.046875 2.841797 0 1.656854 1.3431458 3 3 3h14c1.656854 0 3-1.343146 3-3-.0013-1.273268-.806195-2.407018-2.007812-2.828125.003835-.057229.006441-.114534.007812-.171875 0-2.209139-1.790861-4-4-4-.664672.0015368-1.318484.1686818-1.902344.4863281-1.015666-1.5505758-2.744048-2.4852529-4.597656-2.4863281zm-2.515625 2c.553 0 1.015625.448 1.015625 1s-.462625 1-1.015625 1-.984375-.448-.984375-1 .432275-1 .984375-1zm5.015625 1 3 5h-2v3h-2v-3h-2z" fill="#444"/>
</svg>
