<svg height="22" width="22" xmlns="http://www.w3.org/2000/svg">
  <path d="m10.5 2.9648c-2.9655 0-5.3691 2.3869-5.4648 5.3301-1.7745.6286-3.0504 2.2641-3.0352 4.2091.0018 2.102 1.4977 3.798 3.457 4.283-.0775.61-.1306 1.219-.3828 1.834a1.0001 1.0001 0 0 0 1.1602 1.352c2.1096-.51 3.7836-1.588 5.1386-2.973h3.627c2.75 0 5-2.25 5-5 0-2.4896-1.876-4.4804-4.266-4.8516-.58-2.2214-2.445-3.8422-4.75-4.0566a1.0001 1.0001 0 0 0 -.484-.127zm1.5 9.0352h3c.554 0 1 .446 1 1s-.446 1-1 1h-3c-.554 0-1-.446-1-1s.446-1 1-1z" fill="#444"/>
</svg>
