<svg height="22" width="22" xmlns="http://www.w3.org/2000/svg">
  <path d="m8 4v.0176a3 2.9965 0 0 0 -3 2.9961v.2715a2 1.9977 0 0 0 -1-.2715 2 1.9977 0 0 0 -2 1.998h-.5a.5.49942 0 0 0 -.5.5.5.49942 0 0 0 .5.4983h.7715 2.289c.6964-1.1864 1.9728-1.9983 3.4395-1.9983h.002c.5331.0008 1.0499.1182 1.5332.3203.3286-.745.8078-1.4042 1.3988-1.9355a3 2.9965 0 0 0 -2.934-2.3965zm6.5 2.0117v.0039c-2.221 0-4.107 1.6235-4.441 3.8164-.5565-.5263-1.293-.8191-2.059-.8203-1.6569 0-3 1.3413-3 2.9963.0011.343.0612.683.1777 1.006-.0591-.01-.1184-.01-.1777-.01-1.1046 0-2 .895-2 1.998s.8954 1.998 2 1.998h1.0449c.3712-.102.649-.204.9668-.479.3398-.293 3.4973-5.498 6.3773-5.498 1.526.001 3.007.748 3.525 2.797.046.192.108.564.086.682 0 .827-.672 1.5-1.5 1.5s-1.5-.673-1.5-1.5c0-.819.659-1.486 1.479-1.498-.469-.297-1.04-.471-1.475-.475-1.181-.01-1.917 1.021-2.022 1.944-.103.913.196 1.975 2.01 2.527h4.508c1.381 0 2.5-1.119 2.5-2.498 0-1.289-.983-2.365-2.268-2.484.176-.485.266-.995.268-1.51 0-2.4826-2.015-4.4963-4.5-4.4963z" fill="#444"/>
</svg>
