<svg height="22" width="22" xmlns="http://www.w3.org/2000/svg">
  <path d="m11.532348 3.0038348c-.430992-.0128-.517991.0021-.641989.113298-.203996.177796-.193996.560289.017.722586.113998.0849.200996.104598.702987.132898 1.485973.0848 2.621952.477391 3.718932 1.283176 1.315975.963282 2.14096 2.305358 2.452954 3.986227.08.428492.119998.7867852.146998 1.3417752.016.361993.028.441992.076.53499.150997.281995.591989.322994.792986.072.105998-.128998.117997-.228996.099-.680988-.05-1.3246752-.343994-2.5286532-.858984-3.5411342-.369994-.725587-.716987-1.193478-1.345976-1.810567-.670987-.653488-1.178978-1.011281-1.971963-1.390574-.806985-.384693-1.541972-.599789-2.450955-.710987-.179997-.0208-.511991-.0453-.736986-.0527zm-5.6422966.265595c-.1198978-.0109-.2362956-.0103-.3221941.0078h-.002c-.2512954.0519-.5662896.234695-1.247977.730486-.4095925.299795-.9714821.837785-1.1035797 1.054681-.3064943.51399-.2891946.950582.083998 1.955064.6399882 1.722568 1.5751709 3.3823372 2.8046483 4.9843082 2.3531566 3.064943 5.3174021 5.293902 9.0293331 6.788874.472992.190997.626989.222996.997982.204997.448992-.021.789985-.156997 1.270976-.513991.531991-.393993 1.292977-1.318975 1.488973-1.811966.184997-.467992.135997-.891984-.138997-1.222978-.155998-.182996-1.308976-1.102979-1.847966-1.471973-.408993-.278995-1.042981-.662987-1.333976-.810985-.382993-.190996-.764986-.223996-1.137979-.1-.293994.099-.389993.182997-.818985.708987-.221996.268995-.426992.512991-.452991.53599-.029.023-.121998.074-.208997.112998-.345993.157997-.819984.063-1.59397-.314994-.602989-.290995-1.136979-.659988-1.7417683-1.202978-.51529-.458991-1.035081-1.05998-1.3260751-1.526972-.3752931-.601989-.6613878-1.3826742-.6640878-1.8144662 0-.185897.076899-.449892.1718968-.58399.036999-.0539.272095-.258295.5233904-.456991.6264877-.493191.7666857-.646988.8515837-.941383.0822-.273495-.0062-.644088-.267595-1.142579-.457391-.873084-1.8548653-2.619851-2.357356-2.945245-.082198-.0519-.2260958-.123298-.3183941-.154298-.095298-.0337-.217996-.0574-.3378938-.0684zm5.8882916 1.62307c-.148997.0229-.235996.0831-.303994.187496h-.002c-.126998.188597-.111998.416193.039.58399.097.111098.239996.162697.499991.183596.716987.0565 1.501972.285795 2.034962.595689.617989.358994 1.12598.874784 1.473973 1.499973.306994.547689.484991 1.252876.484991 1.921764 0 .4337922.06.5927892.263995.6937872.120998.062.341994.067.444992.015.095-.049.205996-.165997.239996-.253995.037-.093.036-.6533882.002-.9605832-.098-.839384-.381993-1.62277-.839985-2.289057-.813985-1.182979-2.056962-1.910165-3.661932-2.140561-.315995-.0465-.526991-.06-.675988-.0371zm.56099 1.931564c-.051.0058-.086.0187-.136998.043-.266995.134098-.340993.498291-.147997.722587.104998.121298.203996.156997.52899.195396.692987.0828 1.10098.335794 1.333976.824185.107998.229696.172996.478291.206996.831985.029.266095.069.364093.194996.456991.174997.1315982.461992.1255982.617989-.0136.165997-.149597.195996-.329594.123998-.789086-.104999-.704687-.344994-1.196678-.784986-1.60157-.340994-.312494-.740986-.506691-1.260977-.615189-.107998-.0228-.309994-.0452-.447991-.0527h-.002c-.108998-.0063-.175997-.0077-.225996-.002z" fill="#444" opacity=".3"/>
</svg>
