<svg height="22" width="22" xmlns="http://www.w3.org/2000/svg">
  <path d="m4.0719 7a8 8 0 0 0 2.9282 10.928 8 8 0 0 0 10.928-2.928 8 8 0 0 0 -2.928-10.928 8 8 0 0 0 -10.928 2.928zm1.732 1a6 6 0 0 1 3.9952-2.8736 1.5 1.5 0 0 1 .112-.24 1.5 1.5 0 0 1 2.049-.5491 1.5 1.5 0 0 1 .695.9019 6 6 0 0 1 1.345.5646 6 6 0 0 1 2.49 2.793 1.5 1.5 0 0 1 .691.1981 1.5 1.5 0 0 1 .549 2.0491 1.5 1.5 0 0 1 -.758.647 6 6 0 0 1 -.776 2.509 6 6 0 0 1 -5.195 2.995 1.5 1.5 0 0 1 -.028.052 1.5 1.5 0 0 1 -2.0489.549 1.5 1.5 0 0 1 -.7467-1.309 6 6 0 0 1 -.1774-.091 6 6 0 0 1 -2.1959-8.196zm.8661.5a5 5 0 0 0 1.8301 6.83 5 5 0 0 0 .018603.01074 1.5 1.5 0 0 1 1.1919-.54098l1.2518-3.2736a1.5 1.5 0 0 1 -.32831-1.8923 1.5 1.5 0 0 1 .59171-.57176l-.297-1.9532a1.5 1.5 0 0 1 -.468-.1734 1.5 1.5 0 0 1 -.66-.7869 5 5 0 0 0 -3.1301 2.3515zm5.2474-1.5419.29751 1.9534a1.5 1.5 0 0 1 .46824.17336 1.5 1.5 0 0 1 .62768.7097l1.6779-.1093a1.5 1.5 0 0 1 .143-.342 1.5 1.5 0 0 1 .399-.4504 5 5 0 0 0 -2.031-2.2237 5 5 0 0 0 -.927-.4109 1.5 1.5 0 0 1 -.06453.12737 1.5 1.5 0 0 1 -.59172.57176zm-.02071 4.9226-1.2501 3.2746a1.5 1.5 0 0 1 .49482.83825 5 5 0 0 0 4.1888-2.4936 5 5 0 0 0 .63602-1.9805 1.5 1.5 0 0 1 -.28554-.12652 1.5 1.5 0 0 1 -.62768-.7097l-1.6779.1093a1.5 1.5 0 0 1 -.143.34143 1.5 1.5 0 0 1 -1.3355.74674z" fill="#444"/>
</svg>
