<svg height="22" width="22" xmlns="http://www.w3.org/2000/svg">
  <path d="m3 11a8 8 0 0 0 8 8 8 8 0 0 0 8-8 8 8 0 0 0 -8-8 8 8 0 0 0 -8 8zm2 0a6 6 0 0 1 2.0234-4.4863 1.5 1.5 0 0 1 -.0234-.2637 1.5 1.5 0 0 1 1.5-1.5 1.5 1.5 0 0 1 1.053.4336 6 6 0 0 1 1.447-.1836 6 6 0 0 1 3.553 1.1738 1.5 1.5 0 0 1 .697-.1738 1.5 1.5 0 0 1 1.5 1.5 1.5 1.5 0 0 1 -.332.9395 6 6 0 0 1 .582 2.5605 6 6 0 0 1 -3.002 5.191 1.5 1.5 0 0 1 .002.059 1.5 1.5 0 0 1 -1.5 1.5 1.5 1.5 0 0 1 -1.3008-.75978 6 6 0 0 1 -.19921.0098 6 6 0 0 1 -6-6zm1 0a5 5 0 0 0 5 5 5 5 0 0 0 .02148-.000001 1.5 1.5 0 0 1 .76172-1.0645l-.553-3.461a1.5 1.5 0 0 1 -1.2305-1.4746 1.5 1.5 0 0 1 .22656-.79102l-1.2338-1.543a1.5 1.5 0 0 1 -.4922.084 1.5 1.5 0 0 1 -.9648-.3516 5 5 0 0 0 -1.5352 3.6016zm3.773-3.959 1.235 1.543a1.5 1.5 0 0 1 .492-.084 1.5 1.5 0 0 1 .898.3008l1.3984-.93359a1.5 1.5 0 0 1 -.046-.3672 1.5 1.5 0 0 1 .121-.5898 5 5 0 0 0 -2.871-.9102 5 5 0 0 0 -1.0074.1074 1.5 1.5 0 0 1 .0074.1426 1.5 1.5 0 0 1 -.2262.791zm2.4434 4.2734.55469 3.4609a1.5 1.5 0 0 1 .84765.47854 5 5 0 0 0 2.3809-4.2539 5 5 0 0 0 -.43945-2.0332 1.5 1.5 0 0 1 -.31055.0332 1.5 1.5 0 0 1 -.89844-.30078l-1.3984.93359a1.5 1.5 0 0 1 .04687.36719 1.5 1.5 0 0 1 -.7832 1.3145z" fill="#444"/>
</svg>
