<svg height="22" width="22" xmlns="http://www.w3.org/2000/svg">
  <path d="m3.1816406 5c-.6547 0-1.1816406.5344188-1.1816406 1.1992188v9.6015622c0 .665.5269406 1.199219 1.1816406 1.199219h11.6365384c.655 0 1.181641-.534219 1.181641-1.199219v-2.800781l5 2v-8l-5 2v-2.8007812c0-.6648-.526641-1.1992188-1.181641-1.1992188zm5.8181797 2c2.2091387 0 3.9999997 1.790861 3.9999997 4s-1.790861 4-3.9999997 4c-2.209139 0-4-1.790861-4-4s1.790861-4 4-4z" fill="#444"/>
  <circle cx="9" cy="11" fill="#4285f4" r="3"/>
</svg>
