<svg height="22" width="22" xmlns="http://www.w3.org/2000/svg">
  <path d="m11 3c-4.432 0-8 3.568-8 8s3.568 8 8 8 8-3.568 8-8-3.568-8-8-8zm0 1a2 2 0 0 1 2 2 2 2 0 0 1 -2 2 2 2 0 0 1 -2-2 2 2 0 0 1 2-2zm-5 5a2 2 0 0 1 2 2 2 2 0 0 1 -2 2 2 2 0 0 1 -2-2 2 2 0 0 1 2-2zm10 0a2 2 0 0 1 2 2 2 2 0 0 1 -2 2 2 2 0 0 1 -2-2 2 2 0 0 1 2-2zm-5.5117.63477a.5.5 0 0 1 .44531.25.5.5 0 0 1 -.183.6812.5.5 0 0 1 -.684-.181.5.5 0 0 1 .184-.6838.5.5 0 0 1 .238-.0664zm1.366.3652a.5.5 0 0 1 .44531.25.5.5 0 0 1 -.18359.68359.5.5 0 0 1 -.682-.184.5.5 0 0 1 .181-.684.5.5 0 0 1 .239-.066zm-1.7305 1a.5.5 0 0 1 .44336.25.5.5 0 0 1 -.18164.68359.5.5 0 0 1 -.6848-.184.5.5 0 0 1 .1836-.684.5.5 0 0 1 .2382-.066zm1.3652.36523a.5.5 0 0 1 .44531.25.5.5 0 0 1 -.184.684.5.5 0 0 1 -.684-.184.5.5 0 0 1 .184-.681.5.5 0 0 1 .238-.069zm-.489 2.635a2 2 0 0 1 2 2 2 2 0 0 1 -2 2 2 2 0 0 1 -2-2 2 2 0 0 1 2-2z" fill="#444"/>
</svg>
