<svg height="22" width="22" xmlns="http://www.w3.org/2000/svg">
  <path d="m5 1033.4c-1.108 0-2 .892-2 2v12c0 1.108.892 2 2 2h12c1.108 0 2-.892 2-2v-12c0-1.108-.892-2-2-2zm3.8652 2.3047 1.5859 2.748a3 3 0 0 1 .549 0 3 3 0 0 1 .54688.053l1.5879-2.748 1.7305 1-1.5859 2.75a3 3 0 0 1 .54688.9453h3.1738v2h-3.1758a3 3 0 0 1 -.54297.9492l1.584 2.7461-1.7305 1-1.5859-2.748a3 3 0 0 1 -.55.1 3 3 0 0 1 -.54688-.053l-1.5879 2.748-1.7305-1 1.5859-2.75a3 3 0 0 1 -.54688-.9453h-3.1738v-2h3.1758a3 3 0 0 1 .5432-1l-1.584-2.7461 1.7305-1zm2.1348 3.7a2 2 0 0 0 -2 2 2 2 0 0 0 2 2 2 2 0 0 0 2-2 2 2 0 0 0 -2-2z" fill="#444" transform="translate(0 -1030.4)"/>
</svg>
