<svg height="22" width="22" xmlns="http://www.w3.org/2000/svg">
  <path d="m11 3c-4.4183 0-8 3.5817-8 8 0 4.418 3.5817 8 8 8 4.418 0 8-3.582 8-8 0-4.4183-3.582-8-8-8zm.145 3.998v.002h.001c1.309.048 2.501.7374 3.204 1.8184l1.388-.4629-1.57 3.1465-3.147-1.5743 1.278-.4257c-.338-.294-.763-.487-1.229-.504-.742-.027-1.4343.3551-1.8063.9981l-1.7325-1c.7401-1.282 2.1343-2.0531 3.6138-1.9981zm-3.313 3.5 3.147 1.574-1.2778.426c.3378.294.7628.485 1.2288.502.742.027 1.434-.355 1.806-.998l1.733 1c-.74 1.282-2.135 2.053-3.614 1.998-1.3085-.048-2.4997-.737-3.2027-1.818l-1.3886.463z" fill="#444"/>
</svg>
