<svg height="22" width="22" xmlns="http://www.w3.org/2000/svg">
  <path d="m12.5 4c-1.5387 0-2.9701.7889-3.7949 2.0879-.23072-.057-.4674-.087-.70508-.088-1.6569 0-3 1.3431-3 3 .0011.4065.08486.8085.24609 1.1816-1.9218.557-3.2446 2.317-3.2461 4.318 0 2.4853 2.0147 4.5 4.5 4.5h6.4453l-3.8145-4.1621a.50005.50005 0 0 1 .369-.8h2.5v-4.5a.50005.50005 0 0 1 .5-.5h5a.50005.50005 0 0 1 .21094.047c-.226-.163-.464-.3128-.717-.4416.0024-.035.0043-.07.0059-.1055 0-2.4853-2.0147-4.5-4.5-4.5zm5.4023 5.2012a.50005.50005 0 0 1 .098.2988v4.5h1.957c.01516-.1663.04297-.3297.04297-.5-.0023-1.6986-.79549-3.2697-2.0977-4.2988zm-4.902.8v4.5a.50005.50005 0 0 1 -.5.5h-1.8633l4.3633 4.7598 4.3633-4.7598h-1.8633a.50005.50005 0 0 1 -.5-.5v-4.5z" fill="#444"/>
</svg>
