<svg height="22" width="22" xmlns="http://www.w3.org/2000/svg">
  <path d="m9 2v1.65625.5332031a6.5 6.5 0 0 0 -4.8203125 4.8105469h2.0859375a4.5 4.5 0 0 1 4.234375-3 4.5 4.5 0 0 1 4.232422 3h2.076172a6.5 6.5 0 0 0 -4.808594-4.8105469v-1.1894531-1zm1.5 5a3.5 3.5 0 0 0 -3.5 3.5 3.5 3.5 0 0 0 .0410156.5h.359375.6542969 4.8945315a2.5 2.5 0 0 1 -2.449219 2 2.5 2.5 0 0 1 -1.9980469-1h-1.1601562a3.5 3.5 0 0 0 3.1582031 2 3.5 3.5 0 0 0 3.5-3.5 3.5 3.5 0 0 0 -.041016-.5h-.558593-.455079-4.8945308a2.5 2.5 0 0 1 2.4492188-2 2.5 2.5 0 0 1 1.998047 1h1.160156a3.5 3.5 0 0 0 -3.158203-2zm-6.3164062 5a6.5 6.5 0 0 0 4.8164062 4.814453v.185547 1 1h3v-1-1-.191406a6.5 6.5 0 0 0 4.816406-4.808594h-2.080078a4.5 4.5 0 0 1 -4.236328 3 4.5 4.5 0 0 1 -4.2363281-3z" fill="#444"/>
</svg>
