<svg height="22" width="22" xmlns="http://www.w3.org/2000/svg">
  <g fill="#444">
    <path d="m11 3c-4.418278 0-8 3.581722-8 8l1.5 2 1.5-2c0-2.7614237 2.2385763-5 5-5l-2-1.5z" opacity=".3"/>
    <path d="m11 3-2 1.5 2 1.5a5 5 0 0 1 5 5l1.5-2 1.5 2a8 8 0 0 0 -8-8zm-8 8a8 8 0 0 0 8 8l2-1.5-2-1.5a5 5 0 0 1 -5-5l-1.5 2z"/>
    <path d="m16.766196 11.00526c-.265312.01593-.534044.05939-.800781.13086-2.1339.5718-3.399825 2.764537-2.828125 4.898437.57174 2.1338 2.764537 3.399925 4.898437 2.828125s3.399825-2.764537 2.828125-4.898437c-.500272-1.867075-2.24047-3.070476-4.097656-2.958985zm1.710937 1.988282a.50005.50005 0 0 1 .470704.728515l-1.5 3a.50005.50005 0 0 1 -.72461.19336l-1.5-1a.50005.50005 0 1 1 .554688-.832032l1.029297.685547 1.246093-2.492187a.50005.50005 0 0 1 .423828-.283203z"/>
  </g>
</svg>
