<svg height="22" width="22" xmlns="http://www.w3.org/2000/svg">
  <path d="m16.4 13.999999-1.4 1.400001 2.10198 2.1-2.10198 2.10198 1.4 1.39802 2.1-2.1 2.10198 2.1 1.39802-1.39802-2.1-2.10198 2.1-2.1-1.39802-1.400001-2.10198 2.10198zm-7.4-5.999999v2h4v-2l3 3-3 3v-2h-4v2l-3-3zm2-5c-4.4175389.0000002-7.9999998 3.5824611-8 8 .0000002 4.417539 3.5824611 8 8 8 1.691541-.0032 3.337169-.542328 4.702876-1.540408l-2.116646-2.114646 2.823527-2.831527 1.841692 1.841692c.488572-1.050598.745741-2.19647.748551-3.355111 0-4.4175393-3.582461-8.0000003-8-8z" fill="#444"/>
</svg>
