<svg height="22" width="22" xmlns="http://www.w3.org/2000/svg">
  <path d="m9.9999998 3a7 6.5 0 0 0 -6.9999996 6.5 7 6.5 0 0 0 2 4.546875v2.953125l1.3203125-1.980469a7 6.5 0 0 0 2.2617187.833985c-.3689268-.710455-.5820312-1.505434-.5820312-2.353516 0-2.439883 1.7230416-4.4546167 4.0488288-5.1933594a1 1 0 0 1 -.04883-.3066406 1 1 0 0 1 1-1 1 1 0 0 1 1 1c1.061383 0 2.066598.2619524 2.943359.7167969a7 6.5 0 0 0 -6.9433592-5.7167969zm-2.9999996 4a1 1 0 0 1 1 1 1 1 0 0 1 -1 1 1 1 0 0 1 -1-1 1 1 0 0 1 1-1zm6.9999998 2a5 4.5 0 0 0 -5.0000002 4.5 5 4.5 0 0 0 5.0000002 4.5 5 4.5 0 0 0 2.810547-.783203l1.189453 1.783203v-2.808594a5 4.5 0 0 0 1-2.691406 5 4.5 0 0 0 -5-4.5zm-2 2a1 1 0 0 1 1 1 1 1 0 0 1 -1 1 1 1 0 0 1 -1-1 1 1 0 0 1 1-1zm4 0a1 1 0 0 1 1 1 1 1 0 0 1 -1 1 1 1 0 0 1 -1-1 1 1 0 0 1 1-1z" fill="#444"/>
</svg>
