<svg height="22" width="22" xmlns="http://www.w3.org/2000/svg">
  <path d="m11.000005 2.9999721c-.1926 0-.383065.010178-.572265.023437-.0237.00175-.04651.00194-.07031.00391-2.8577998.22552-5.2791532 1.9428-6.5019533 4.375-.079116.1574499-.1596861.3152656-.2285162.4785156-.37451.8457-.5782944 1.7420406-.6152344 2.6816403-.00162.03035-.00262.06135-.00391.0918-.00247.08976-.00646.179012-.00586.269532-.0002321.02539-.00195.05073-.00195.07617 0 .93022.1657181 1.819337.4550781 2.648438.11645.371679.2502294.746683.4121094 1.126953.40323.94731.454075 1.204793.390625 1.996093-.044209.55135-.1940394 1.114741-.3808594 1.431641-.16938.28738-.3046875.584666-.3046875.660156 0 .23342 1.3473157.151313 2.5410151-.154297 1.3984-.35802 1.521369-.357817 2.667969.002.52453.1646 1.121575.252873 1.7968752.277343.02825.0014.05761.0028.08594.0039.0924.003.181844.0078.277344.0078.0078 0 .01373.000057.02148 0 .01231.000055.02478 0 .03711 0 .22339 0 .443449-.01152.662109-.0293 1.9778-.14065 3.566394-.871468 4.996094-2.298828 1.178-1.176 1.908766-2.627284 2.197266-4.146485.02658-.13883.04706-.280545.06641-.421875.0117-.08676.02438-.172725.0332-.259765.01939-.18667.03067-.376057.03711-.566407.0014-.04797.0034-.09459.0039-.142578.000694-.04469.0039-.08994.0039-.134789 0-4.3580005-3.450397-7.8778411-7.779297-7.9941411-.0336-.0015-.06786-.00142-.101562-.00195-.04-.0005828-.07904-.00391-.119141-.00391zm-2.4999998 4c.8284269 0 1.4999998.6715729 1.4999998 1.5 0 .5 0 1.5-.9999998 1.5 0 .9999999 2.0315628 2.9457239 2.9999998 2.9999999 0-1 1-1 1.5-1 .828427 0 1.5.671573 1.5 1.5s-.671573 1.5-1.5 1.5h-.560547c-.296314-.006492-.641709-.115949-1.126953-.292969-1.622947-.59206-2.7496568-1.542497-3.9042969-3.292968-.6725949-1.019683-.904603-1.6333377-.908203-2.3964848v-.5175781c0-.8284271.671573-1.5 1.5000001-1.5z" fill="#444"/>
</svg>
