<svg height="22" width="22" xmlns="http://www.w3.org/2000/svg">
  <path d="m11 3c-.193 0-.383.0102-.572.0234-.024.0018-.047.002-.071.0039-2.8574.2256-5.2788 1.9429-6.5015 4.375-.0791.1575-.1597.3153-.2285.4786-.3746.8457-.5783 1.742-.6153 2.6811-.0016.031-.0026.062-.0039.092-.0025.09-.0064.179-.0058.27-.0003.025-.002.051-.002.076 0 .93.1657 1.819.4551 2.648.0674.216.1572.435.2383.653a3 3 0 0 1 1.3066-.301 3 3 0 0 1 3 3 3 3 0 0 1 -.375 1.451c.3187.013.6277.094 1.1562.26.5246.165 1.1216.253 1.7968.277.028.002.058.003.086.004.092.003.182.008.277.008h.022.037c.223 0 .443-.012.662-.029 1.978-.141 3.566-.872 4.996-2.299 1.178-1.176 1.909-2.629 2.197-4.149.027-.138.048-.278.067-.419.012-.087.024-.173.033-.26.019-.187.031-.376.037-.567.002-.048.004-.096.004-.144.001-.045.004-.088.004-.133 0-4.358-3.45-7.8778-7.779-7.9941-.034-.001-.068-.0015-.102-.002-.04-.0006-.079-.0039-.119-.0039zm-5 6a2 2 0 0 1 2 2 2 2 0 0 1 -2 2 2 2 0 0 1 -2-2 2 2 0 0 1 2-2zm5 0a2 2 0 0 1 2 2 2 2 0 0 1 -2 2 2 2 0 0 1 -2-2 2 2 0 0 1 2-2zm5 0a2 2 0 0 1 2 2 2 2 0 0 1 -2 2 2 2 0 0 1 -2-2 2 2 0 0 1 2-2z" fill="#444"/>
  <circle cx="5" cy="17" fill="#4285f4" r="2"/>
</svg>
