<svg height="22" width="22" xmlns="http://www.w3.org/2000/svg">
  <path d="m11 3c-4.432 0-8 3.568-8 8s3.568 8 8 8 8-3.568 8-8-3.568-8-8-8zm-5 4h1v5.4121s-.00159.35817.28125.75195c.2829.394.8348.836 2.2188.836.1057 0 .1362-.036.2324-.041-.0713-.077-.2069-.132-.2636-.211-.4672-.65-.4688-1.336-.4688-1.336v-4.3398l.00391-.0293s.023825-.14462.083984-.26367c.0601-.119.1631-.2585.3203-.3808.3143-.2445.8148-.4097 1.5998-.3984.7801.01119 1.2658.1747 1.5762.4082.15521.11675.26015.25098.32227.36719s.08984.26172.08984.26172l.0039.0332v4.3418s-.0016.68558-.46875 1.3359c-.05676.07903-.19237.13433-.26367.21094.096.005.126.041.232.041 1.384 0 1.936-.442 2.219-.836s.281-.752.281-.752v-5.412h1v5.4121s-.0016.68558-.46875 1.3359c-.467.65-1.415 1.252-3.031 1.252-.622 0-1.065-.148-1.5-.295-.435.147-.878.295-1.5.295-1.6161 0-2.5641-.602-3.0312-1.252-.4672-.65-.4688-1.336-.4688-1.336v-5.412zm4.9922 1c-.63905-.0092-.88911.12554-.96875.1875-.02172.0169-.01804.01642-.02344.02344v4.2012s-.00162.35816.28125.75195c.14343.19968.36351.40974.71875.57031.35523-.16057.57533-.37064.71875-.57031.283-.394.281-.752.281-.752v-4.1895c-.0065-.0066.000046-.0019-.01563-.01367-.083-.0626-.348-.1996-.992-.2088z" fill="#444"/>
</svg>
