<svg height="22" width="22" xmlns="http://www.w3.org/2000/svg">
  <g fill="#444">
    <path d="m11 3a4 4 0 0 0 -4 4 4 4 0 0 0 4 4 4 4 0 0 0 4-4 4 4 0 0 0 -4-4zm-1 2h2v1h1v2h-1v1h-2v-1h-1v-2h1zm1 8c-8.0004.004-8 5.145-8 5.145v.855h10.174l1.535-1.535-2.123-2.121 1.92-1.92c-.955-.261-2.101-.425-3.506-.424zm4.414.93-1.414 1.414 2.123 2.121-2.123 2.123 1.414 1.412 2.121-2.121 2.123 2.121 1.412-1.412-2.121-2.123 2.121-2.121-1.412-1.414-2.123 2.123z"/>
    <path d="m30.565 21.238 1.414 1.414-1.793 1.793h5.172v2h-5.172l1.793 1.793-1.414 1.414-4.207-4.207z" transform="translate(-39.549 -10.213)"/>
  </g>
</svg>
