<svg height="22" width="22" xmlns="http://www.w3.org/2000/svg">
  <g fill="#444" transform="translate(0 -1030.4)">
    <path d="m10.998 4s-3.7785.0006-6.2968.1895c-.3518.044-1.1182.048-1.8028.791-.5395.5664-.7148 1.8515-.7148 1.8515s-.1771 1.511-.1797 3.0215l-.0039 2.2875c-.0026 1.51.1797 3.021.1797 3.021s.1753 1.285.7148 1.852c.6846.743 1.5839.721 1.9844.798 1.4397.144 6.1191.188 6.1191.188s1.211-.015 2.408-.039c-.26-.604-.406-1.265-.406-1.961 0-2.75 2.25-5 5-5 .71 0 1.385.154 1.998.424l.002-1.5705c.003-1.5105-.18-3.0215-.18-3.0215s-.175-1.2851-.715-1.8515c-.684-.7435-1.452-.7475-1.804-.791-2.518-.1889-6.295-.1895-6.295-.1895h-.008zm-2.998 3 6 4.014-6 3.986z" transform="translate(-.000001 1030.4)"/>
    <path d="m20 1042.9c-1.9131-1.1046-4.3596-.449-5.4641 1.4641-1.1046 1.9132-.44903 4.3595 1.4641 5.4641s4.3596.449 5.4641-1.4641c1.1046-1.9132.44903-4.3595-1.4641-5.4641zm-.49999.866a3 3 0 0 1 1.0981 4.0981l-.866-.5a2 2 0 0 0 -.73205-2.7321l.49999-.866zm-4.0981 1.0981.866.5a2 2 0 0 0 .73205 2.7321l-.49999.866a3 3 0 0 1 -1.0981-4.0981z"/>
  </g>
</svg>
