<svg height="16" width="16" xmlns="http://www.w3.org/2000/svg">
  <g fill="#474747">
    <path d="m14.902 2a1.047 1.047 0 0 0 -.125.032c-.447.1-.793.542-.782 1v1.687c.005 1.313.005 1.313-1.562 1.313h-1.438c-.523 0-1 .476-1 1a1 1 0 0 0 0 .218v.782h6v-5a.979.979 0 0 0 0-.188v-.812h-.812a1.002 1.002 0 0 0 -.281-.032zm-14.897 6v5a.979.979 0 0 0 0 .188v.812h.812c.092.024.187.034.281.031.043-.008.084-.018.125-.031.447-.1.793-.542.782-1v-1.688c-.005-1.312-.005-1.312 1.562-1.312h1.438c.523 0 1-.476 1-1a1 1 0 0 0 0-.219v-.781z"/>
    <path d="m8 1c-3.153 0-5.82 2.126-6.688 5h2.094a5.013 5.013 0 0 1 4.594-3 5.013 5.013 0 0 1 4.594 3h2.094c-.869-2.874-3.536-5-6.688-5zm-6.688 9c.869 2.874 3.535 5 6.688 5s5.82-2.126 6.688-5h-2.094a5.013 5.013 0 0 1 -4.594 3 5.013 5.013 0 0 1 -4.594-3z"/>
  </g>
</svg>
