<svg height="24" width="24" xmlns="http://www.w3.org/2000/svg">
  <path d="m9.0019529 4.0000193c-2.206899 1.2739076-3.571463 3.4317524-3.912109 5.7636717.241385-.114525.490662-.216842.746094-.298828 1.101951-.353696 2.331193-.459726 3.617187-.464844 1.7806161-.0071 3.6820931.225001 5.4667971.566407-1.389096-2.9981724-3.395849-5.5780584-5.9179691-5.5664067zm4.2402351 1.1171875c1.042747 1.1188808 1.891926 2.5313686 2.585937 4.0292972l.318359.6875c.963016.219551 1.886754.456265 2.691407.708984-.592699-2.7758084-2.802943-4.9189349-5.595703-5.4257812zm-3.7851571 4.8828122c-2.458135.0098-4.5647179.437974-5.4570309 2.000001 0 4.418 3.5816999 8 8 8 4.418 0 8-3.582 8-8-2.340914-.915391-6.840288-2.014736-10.5429691-2.000001z" fill="#444"/>
</svg>
