<svg height="24" width="24" xmlns="http://www.w3.org/2000/svg">
  <g fill="#444">
    <path d="m12.041016 3.9999996c-.325147-.0077-.647915.077679-.929688.2441406l-5.2226561 3.0898438c-.5494331.3249686-.8887119.9261769-.8886719 1.5761718v6.1796882c-.0000002.403272.1429115.778631.3730469 1.089844l13.4628911-7.9980478c-.149755-.3480549-.392378-.6511537-.72461-.8476562l-5.222656-3.0917969c-.257101-.1518688-.54904-.2348385-.845703-.2421875zm6.888672 4.4101562a1.7755407 1.8191524 0 0 1 .01367.052734c-.0044-.01781-.0088-.035102-.01367-.052734zm-13.4277349 7.9414062c.012756.01353.025877.02593.039063.03906a1.7755407 1.8191524 0 0 1 -.039063-.03906z"/>
    <path d="m18.848092 8.1757754-13.4873066 8.0093426a1.7755407 1.8191524 0 0 0 .5271257.480466l5.2241779 3.090613a1.7755407 1.8191524 0 0 0 1.775822 0l5.224178-3.090613a1.7755407 1.8191524 0 0 0 .887911-1.574993v-6.1812247a1.7755407 1.8191524 0 0 0 -.151908-.7335909z" opacity=".3"/>
  </g>
</svg>
