<svg height="24" width="24" xmlns="http://www.w3.org/2000/svg">
  <path d="m4 17.203v.547c0 1.212 1.0381 2.25 2.25 2.25h11.5c1.212 0 2.25-1.038 2.25-2.25v-.547c-.532.485-1.225.797-2 .797h-12c-.7746 0-1.4684-.312-2-.797zm8-11.203c.216901 0 .427709.1358.49605.35l.87 2.6503h2.851c.486625 0 .688347.6862.293.9699l-2.314 1.6662.88 2.7015c.144289.4587-.378668.8438-.769.563l-2.30705-1.6805-2.2984501 1.6805c-.393805.2887-.9254452-.1003-.7695-.563l.8905999-2.7115-2.3026498-1.6754c-.3916313-.2851-.1909902-.9518.29345-.9512h2.8506l.881-2.6498c.0644-.1991.238048-.35.45495-.35zm-5-2c-1.0193228-.0002-1.8860293.9871-2 2l-.9877757 8.779c-.1316098 1.185.7955385 2.2212 1.9877757 2.221h12c1.192117 0 2.120121-1.0362 1.988524-2.221l-.988524-8.779c-.114043-1.0128-.980792-2-2-2z" fill="#4285f4"/>
</svg>
