<svg height="24" width="24" xmlns="http://www.w3.org/2000/svg">
  <path d="m12 4a8 8 0 0 0 -8 8 8 8 0 0 0 8 8 8 8 0 0 0 8-8 8 8 0 0 0 -8-8zm-2 2h1v2.0000001c.30317-.011.701376-.000005 1 0v-2h1v2h1c.566724-.0000001 1.000203.9999999 1 1.7499999-.000338 1.25-.433276 1.693175-1.183594 1.75 1.182886.000955 2.183594.5 2.183594 2 0 2.133628-1.107813 2.361524-3.015625 2.5l.03125 2h-1l-.03125-2h-.984375v1.982422l-1 .01758v-2c-.265759 0-.597945-.01-.873047 0h-1.126953v-1s.690631.013.675781 0c.321569-.01.306584-.359224.324219-.5v-4.951172c-.04764-.222761-.194168-.555828-.654297-.548828.01372-.0149949-.345703 0-.345703 0v-1h1.066406c.235504 0 .687747.01.933594 0v-2zm1 3v2c1.269373 0 2.000138.000066 2-1 .000138-.9999851-.589815-1-2-1zm0 3v3c2 0 3.000208.000099 3-1.5.000208-1.499977-1-1.499925-3-1.5z" fill="#444"/>
</svg>
