<svg height="24" width="24" xmlns="http://www.w3.org/2000/svg">
  <path d="m12 3.999953c-6.3402301.0002075-6.5027794.00342-6.6679687.099609-.3506689.2042777-.3320312-.04787-.3320312 4.7148437 0 4.8330943-.00567 4.7365493.3769531 5.6738283.4402003 1.07819 1.1485707 1.988275 2.3125 2.978516.9766088.830875 2.1342964 1.583963 3.4257808 2.222656.436925.216078.662887.314118.884766.310547.221879.0035.447839-.09446.884766-.310547 1.291484-.638693 2.449171-1.391781 3.425781-2.222656 1.163929-.990241 1.8723-1.900326 2.3125-2.978516.38268-.93728.376953-.840734.376953-5.6738279 0-4.7627177.018633-4.510566-.332031-4.7148437-.165189-.096206-.327738-.0994024-6.667969-.0996094zm0 2c2.808426.0000917 4.08168.00301 4.978516.011719.010543.615045.021484 1.1008094.021484 2.8027341 0 2.4174729-.0049 3.6212849-.04102 4.1660159-.03608.544731.01146.264652-.1875.751953-.305374.74796-.748108 1.353569-1.755859 2.210937-.834475.709957-1.857767 1.378322-3.015621 1.951172z" fill="#444"/>
</svg>
