<svg height="24" width="24" xmlns="http://www.w3.org/2000/svg">
  <path d="m-25.406 12c-4.4184 0-8 3.5816-8 8s3.5816 8 8 8 8-3.5816 8-8-3.5816-8-8-8zm0 2.5c2.304 0 4.3675 1.303 5.2812 3.3125l1.2188-.46875-1 3.4688-3.3125-1.8438 1.2812-.5c-.62086-1.3102-1.9541-2.125-3.4688-2.125-1.5726 0-2.9961.93957-3.5625 2.3438l-1.781-.687c.8448-2.1035 2.9848-3.5 5.3438-3.5zm-5.5 4.7188 3.3125 1.7812-1.2812.5c.61336 1.3047 1.9641 2.1562 3.4688 2.1562 1.5756 0 2.9786-.91032 3.5625-2.3125l1.7812.6875c-.8768 2.103-2.9793 3.4688-5.3438 3.4688-2.2925 0-4.387-1.3392-5.2812-3.3438l-1.2188.4375 1-3.375z" fill="#444" transform="matrix(.86586375 .499905 -.499905 .86586375 43.99644584 7.38343107)"/>
</svg>
