<svg height="24" width="24" xmlns="http://www.w3.org/2000/svg">
  <path d="m4.0004243 17.203v.547c0 1.212 1.0381 2.25 2.25 2.25h11.4999997c1.212 0 2.25-1.038 2.25-2.25v-.547c-.532.485-1.225.797-2 .797h-11.9999997c-.7746 0-1.4684-.312-2-.797zm8.0791757-9.9061-1.0796 3.9921h2.1796zm-1.180776-1.2969h2.3146l2.91 9h-1.91l-.609-2h-3.0767l-.6170997 2h-1.9102zm-3.8983997-2c-1.0193228-.0001709-1.8757271.7662125-1.9883 1.7793l-1 8.9997c-.1316098 1.184951.7960628 2.221193 1.9883 2.221h11.9999997c1.192117.000014 2.119597-1.036168 1.988-2.221l-1-8.9997c-.11256-1.0129736-.968792-1.779318-1.988-1.7793z" fill="#444" fill-rule="evenodd"/>
</svg>
