<svg height="24" width="24" xmlns="http://www.w3.org/2000/svg">
  <path d="m12 4c-2.990275 0-5.5819281 1.6269634-6.9550781 4.0449219 1.165789-.6620476 2.5133531-1.0449219 3.9550781-1.0449219.524759 0 1.037157.052885 1.533203.1484375.0018-.00466.0041-.00902.0059-.013672.109049-.2835808.233686-.5574434.373047-.8242187.0129-.024874.02592-.049498.03906-.074219.127806-.238484.267456-.4682357.417969-.6914062.02988-.044688.05714-.090725.08789-.1347657.151973-.215866.314284-.4236254.486328-.6230468.02804-.032693.05347-.067383.08203-.099609.204505-.229514.419108-.4495693.648438-.654297-.222645-.018441-.446338-.0332031-.673865-.0332031zm3.226562.6777344c-.289386.1504875-.560133.3292648-.818359.5234375-.06417.047973-.123414.1018974-.185547.1523437-.214183.1751328-.419783.3614803-.607422.5644532-.02986.032021-.06068.06303-.08984.095703-.457517.5172888-.829449 1.1116662-1.089844 1.765625 1.846254.8763402 3.283592 2.4434572 4.019531 4.3632812.344008-.08149.692941-.136719 1.044922-.136719.855336 0 1.709715.243764 2.451172.72461.022331-.241775.048825-.482468.048825-.730469 0-3.2816681-1.958742-6.0857175-4.773438-7.3222656zm-6.226562 4.3222656c-2.079471 0-3.9066899 1.046465-4.9824219 2.644531-.0052.118709-.0175781.235439-.0175781.355469 0 4.432 3.568 8 8 8 .119372 0 .235451-.01245.353516-.01758h.002c.488328-.328717.924296-.728647 1.294922-1.183594-.464227-.781436-.67047-1.669836-.621094-2.552734-.100444-.07885-.208588-.148249-.304688-.232422-.0031-.0027-.0066-.0051-.0098-.0078-.261357-.229614-.505115-.478562-.734375-.740234-.03115-.0355-.06127-.07137-.0918-.107422-.209976-.248385-.407211-.506126-.585938-.779297-.01292-.01971-.02632-.03876-.03906-.05859-.181167-.282328-.341251-.57938-.486328-.884765-.02795-.05873-.05353-.118215-.08008-.177735-.131227-.294674-.250319-.595729-.345703-.908203-.0065-.02114-.01519-.04128-.02148-.0625-.09544-.322294-.164079-.655937-.21875-.99414-.01282-.07917-.02467-.158327-.03516-.238281-.04529-.345691-.076182-.69622-.076182-1.054703 0-.305652.01754-.605983.05078-.902344-.3415027-.059938-.691583-.097656-1.05078-.097656zm3.013672.8125c-.002.06327-.013672.123738-.013672.1875 0 .248781.01965.491853.04883.732422.0089.07358.02169.146032.0332.21875.02793.17572.0627.349374.105469.519531.01772.07068.0345.141289.05469.210938.0659.226739.141381.449467.232421.664062.0966.2277.209115.446117.332032.658203.01642.02842.03391.05587.05078.08399.115562.192026.241224.377564.376953.554687.01328.01738.02559.03551.03906.05273.125356.159929.263856.308901.404296.455079.180426-.294869.386146-.577552.640625-.832032.1063-.106299.227755-.185898.341797-.279297-.47278-1.367128-1.414143-2.511519-2.646481-3.226563zm5.435547 3.1875a3.5 3.5 0 0 0 -2.423828 1.025391 3.5 3.5 0 0 0 0 4.949218 3.5 3.5 0 0 0 4.949218 0 3.5 3.5 0 0 0 0-4.949218 3.5 3.5 0 0 0 -2.52539-1.025391zm.0918 1a2.5 2.5 0 0 1 1.726562.732422 2.5 2.5 0 0 1 .314453 3.142578l-3.46094-3.460938a2.5 2.5 0 0 1 1.419922-.414062zm-2.123047 1.125 3.460937 3.460938a2.5 2.5 0 0 1 -3.146487-.31836 2.5 2.5 0 0 1 -.314453-3.142578z" fill="#444"/>
</svg>
