<svg height="24" width="24" xmlns="http://www.w3.org/2000/svg">
  <path d="m11.4667 6.0001c-2.2855267.00192-4.3157945 1.492998-5.0479 3.7073-1.4771666.725899-2.4172535 2.252938-2.4188 3.929 0 2.40995 1.9102667 4.3636 4.2667 4.3636 1.0463008-.0021 2.055375-.397303 2.8354-1.1105.121275.0108.242876.01735.36459.01964.779294-.0022 1.54864-.179117 2.2539-.51818.618999.339536 1.310389.517529 2.0128.51818 2.356695-.000395 4.266756-1.954783 4.266-4.365-.000216-2.409913-1.910602-4.3633695-4.267-4.3632h-.0085c-1.005413-1.371019-2.582411-2.1780942-4.2581-2.18084z" fill="#444"/>
</svg>
