<svg height="24" width="24" xmlns="http://www.w3.org/2000/svg">
  <g fill="#444">
    <path d="m20.635 3.0253-5.617 6.8184 1.982 1.1562 4-7.6484zm-14.635 4.4746-4 3.5 4.375-.625.9492 5.625h3.3867l-3.2109-8zm7 2.5293-3 .9707 1 3 4-3zm3 1.5707-5.1445 4.4h8.3435l-1.199-3zm-11.164 5.4c-.4633 0-.8359.373-.8359.836v1.3281c0 .463.3726.836.8359.836h13.164v-3h-13.164z"/>
    <path d="m4.8359 16.9999c-.2317 0-.4406.093-.5918.244.1511-.151.3602-.244.5918-.244zm13.16405 0v3h1.16405c.463 0 .836-.375.836-.838v-1.3262c0-.463-.373-.836-.836-.836h-1.16395z" opacity=".4"/>
  </g>
</svg>
