<svg height="24" width="24" xmlns="http://www.w3.org/2000/svg">
  <g fill="#444">
    <path d="m11.902799 3.9998758c-1.000929 1.4011732-3.3455013 4.2309686-4.7597655 7.1660162 1.217699-1.5487702 2.506948-2.1649562 3.6660155-2.1660162 3.163876-.00287 5.642288 4.4533852 4.5 4.8867192-.909437-1.942636-2.188936-2.856319-3.310547-2.886719-1.472726-.03991-2.9423658 1.362325-2.9980466 3.162109-.1288336 4.164317 6.0204846 3.668035 6.7929686 4.939453 0 0 .002.002.002.002.670224-.374574 1.232307-.863781 1.613281-1.47461 2.572348-4.124003-3.985288-11.1284722-5.505906-13.6289522zm-4.7636717 7.1738282c-.151962.315759-.2924007.632712-.4199219.949219.1267067-.31625.2680651-.63366.4199219-.949219zm-.4199219.949219c-.1269305.315041-.2368711.628883-.3339844.941406.096102-.31228.2078541-.626595.3339844-.941406zm-.3378906.951172c-.097607.315183-.1767814.628235-.2382813.9375.060819-.309608.1415147-.621979.2382813-.9375zm-.2382813.9375c-.0583.293171-.094402.582255-.1152343.867187.020771-.284939.057653-.574057.1152343-.867187zm-.1210937.925781c-.00714.112038-.00707.221611-.00781.332031-.0004706-.109979.00238-.220392.00781-.332031zm.00977.740234c.01144.161027.027405.320085.054687.476563-.026823-.155596-.042425-.315829-.054687-.476563zm.1386719.833985c.039199.148713.07105.299928.1269531.443359-.054629-.143026-.088695-.293552-.1269531-.443359zm.1464799.488281c.087178.215704.1863438.4269.3144532.628906.013644.02151.032788.03933.046875.06055-.014672-.0204-.031461-.03933-.044922-.06055-.1265036-.199474-.2300766-.41101-.3164062-.628906zm.7050782 1.132812c.050294.05595.1065362.106718.1601562.160157-.053421-.05327-.1100372-.104387-.1601562-.160157zm.4882812.458985c.058152.04734.1168499.09373.1777344.138672-.060849-.04493-.1196164-.09134-.1777344-.138672zm.5839844.410156c.059097.03556.1168111.07182.1777344.105469-.0609-.03363-.1190166-.06966-.1777344-.105469zm7.1230466.384766c-.07859.03354-.161548.06102-.242188.0918.0808-.03081.163447-.05821.242188-.0918zm-.679688.246093c-.09386.02879-.189374.05266-.285156.07813.09568-.02542.19142-.04925.285156-.07813zm-4.9609367.01563c.063539.01901.128957.03332.1933593.05078-.064193-.0174-.1300253-.03184-.1933593-.05078zm4.2656247.160156c-.106615.02239-.214065.0442-.322266.0625.108672-.01835.215197-.04004.322266-.0625zm-3.55664.01367c.0869.01751.173819.03399.261718.04883-.08783-.01481-.174884-.03135-.261718-.04883zm2.996093.08203c-.366494.05143-.737255.08429-1.111328.08984.374394-.0054.744557-.03844 1.111328-.08984zm-2.388671.01367c.386927.04946.778649.08123 1.171874.08008-.392831.0012-.785328-.03078-1.171874-.08008z"/>
    <path d="m10.809049 8.9998758c-1.1596311.0011-2.4497472.617538-3.6679685 2.1679692-.611563 1.269658-1.0406882 2.558237-1.1191406 3.759765-.006.119592-.00857.237769-.00781.355469-.0005645.133379.00829.263807.017578.394531.012362.162034.027453.323692.054687.480469.020521.117107.052145.231429.082031.345703.039084.152395.073324.30565.1289062.451172.00457.01172.00899.02348.013672.03516.087102.221645.193721.43598.3222656.638672.015204.02397.035028.04475.050781.06836.10182.152492.2144256.298192.3378906.435546.050119.05577.1067349.106889.1601562.160157.1042285.103876.2121867.204452.328125.298828.058118.04733.1168856.09374.1777344.138672.1236595.09129.2526801.178348.3867188.259765.065356.03969.1296536.07985.1972656.117188.1913301.105684.3884341.204138.5957031.291016.00464.0019.00902.0039.013672.0059.0005505.000229.0014-.000229.00195 0 .2230193.09281.4557997.173048.6933594.244141.063334.01894.1291667.03338.1933593.05078.1690399.04583.3396119.08793.5136719.123047.08871.01789.177829.03372.267578.04883.11285.019.227621.03228.341797.04687.386546.0493.779044.08131 1.171875.08008.03334-.000098.06628-.0034.09961-.0039.376068-.0053.748773-.03814 1.117187-.08984.07949-.01114.159493-.0199.238281-.0332.109465-.01851.218335-.03982.326172-.0625.136966-.0288.272509-.06212.40625-.09766.09778-.026.195266-.05048.291016-.08008.147322-.04551.28991-.0983.43164-.152343.08064-.03078.163599-.05826.242188-.0918.20011-.08535.393329-.179925.578125-.283203-.000136-.0011-.0017-.000814-.002-.002-.772484-1.271419-6.9217541-.775138-6.7929205-4.939455.055681-1.799784 1.5253205-3.202019 2.9980465-3.162109 1.121611.0304 2.40111.944083 3.310547 2.886719 1.142288-.433334-1.336124-4.8895872-4.5-4.8867192z" fill-rule="evenodd" opacity=".3"/>
  </g>
</svg>
