<svg height="24" width="24" xmlns="http://www.w3.org/2000/svg">
  <path d="m8.0098 4-5 3 4 2.9844-4.0098 3.0076 5.0098 3.008 4-3-5-3 5-3 5 3.0156-5 2.9844 1.7773 1.334c.91425-1.4506 2.508-2.3315 4.2227-2.334 1.0745.003 2.1196.35112 2.9805.99414l.0293-.0176-4.01-2.97 4-3-5-3-4 2.9844-4-2.9844zm10 9c-2.2091 0-4 1.7909-4 4s1.7909 4 4 4 4-1.7909 4-4-1.7909-4-4-4zm-6 1-4 3-1-.59961v.59961l5 3 1.4766-.88477c-.312-.66-.475-1.39-.477-2.12-.000242-.67105.1346-1.3353.39648-1.9531l-1.396-1.05zm4.3535.64648 1.6465 1.6465 1.6465-1.6465.70704.70704-1.6465 1.6465 1.6465 1.6465-.70704.70704-1.643-1.66-1.6465 1.6465-.70703-.70704 1.6465-1.6465-1.6465-1.6465.70703-.70704z" fill="#444"/>
</svg>
