<svg height="24" width="24" xmlns="http://www.w3.org/2000/svg">
  <path d="m8.0098 4-5 3 4 2.9844-4.0098 3.0076 5.0098 3.008 4-3-5-3 5-3 5 3.0156-5 2.9844 1.7773 1.334a5 5 0 0 1 4.223-2.33 5 5 0 0 1 2.9805.99414l.0293-.0176-4.009-2.97 4-3-5-3-4 2.9844-4-2.9844zm10 9a4 4 0 0 0 -4 4 4 4 0 0 0 4 4 4 4 0 0 0 4-4 4 4 0 0 0 -4-4zm0 .49219a3.5 3.5 0 0 1 .54297.0469c-.19832-.0312-.39859-.0485-.59961-.0449a3.5 3.5 0 0 1 .057-.01zm-.06836.002c-.16063.003-.32073.019-.48047.0449a3.5 3.5 0 0 1 .48047-.0449zm-.50586.0488c-.16478.028-.32899.0669-.49023.11914a3.5 3.5 0 0 1 .49023-.11914zm1.2715.0254a3.5 3.5 0 0 1 .40234.10742c-.13149-.0438-.26662-.0797-.40234-.10742zm-1.7695.0957c-.15326.0501-.30335.11327-.45117.18555a3.5 3.5 0 0 1 .45117-.18555zm2.3242.0664a3.5 3.5 0 0 1 .36914.16992c-.12034-.0636-.2429-.12114-.36914-.16992zm-2.8184.14062c-.15054.0762-.29709.16204-.43945.26172-.19828.13884-.37894.29598-.53906.46485-.1533.16167-.28699.33612-.4043.51953a3.5 3.5 0 0 1 .4043-.51953 3.5 3.5 0 0 1 .97852-.72657zm3.3418.11524a3.5 3.5 0 0 1 .42188.28906c-.13348-.10894-.27612-.20219-.42188-.28906zm-7.776 0-4 3-1-.59961v.59961l5 3 1.4766-.88477a5 5 0 0 1 -.477-2.12 5 5 0 0 1 .396-1.95l-1.396-1.05zm8.1992.27539a3.5 3.5 0 0 1 .43359.42188 3.5 3.5 0 0 1 .002.002 3.5 3.5 0 0 1 .71289 1.2949 3.5 3.5 0 0 1 .10547.4375 3.5 3.5 0 0 1 .04297.46094c-.005-.153-.019-.307-.044-.46-.024-.15-.06-.296-.105-.437-.045-.142-.098-.279-.158-.415l-3.1816 3.6348-.34375.40625-.39258-.375-1.502-1.502c-.18852-.1885-.18851-.53218 0-.7207.18852-.1885.53219-.18852.7207 0l1.127 1.127 3.0156-3.4531c-.13452-.15508-.27888-.2955-.43359-.42188zm-5.1816.89453c-.10839.1764-.19867.36018-.27344.55078a3.5 3.5 0 0 1 .27344-.55078zm-.29102.59766c-.072.191-.127.388-.164.588a3.5 3.5 0 0 1 .16406-.58789zm-.17578.6543c-.03385.20256-.05101.40916-.04883.61523a3.5 3.5 0 0 1 -.002-.0449 3.5 3.5 0 0 1 .05078-.57031zm6.9473.50781a3.5 3.5 0 0 1 .002.0625 3.5 3.5 0 0 1 -.02148.38086c.01581-.14709.02244-.29484.01953-.44336zm-6.9922.17578c.0056.18648.02661.37164.0625.55664a3.5 3.5 0 0 1 -.0625-.55664zm.0918.68945c.04184.17791.09713.35505.16797.52735a3.5 3.5 0 0 1 -.16797-.52735zm.22461.6543c.08065.17586.17477.34829.28711.51367a3.5 3.5 0 0 1 -.28711-.51367zm6.3242.0644c-.0034.007-.0063.0144-.0098.0215a3.5 3.5 0 0 1 -.07422.15039c-.0036.007-.008.0129-.01172.0195.03491-.0624.06482-.12721.0957-.19141zm-.19336.34961c-.007.0108-.01254.0224-.01953.0332a3.5 3.5 0 0 1 -.10156.14649c.04257-.0589.08253-.11867.12109-.17969zm-5.7715.19727c.10968.15001.22984.28675.35742.41406a3.5 3.5 0 0 1 -.35742-.41406zm5.5156.16015c-.0041.005-.0075.0106-.01172.0156a3.5 3.5 0 0 1 -.16797.18164c.06199-.0643.12342-.1292.17969-.19727zm-5.0371.3711c.1253.11345.2586.21405.39648.30664a3.5 3.5 0 0 1 -.398-.306zm4.2812.31054a3.5 3.5 0 0 1 -.46289.25977c-.0072.003-.01432.006-.02148.01.16574-.0765.3279-.16483.48438-.26954zm-3.7031.11133c.12543.0734.25616.13663.38867.19336a3.5 3.5 0 0 1 -.38867-.19336zm3.082.21875c-.0046.002-.0091.004-.01367.006a3.5 3.5 0 0 1 -.45703.14649c.15863-.0401.31668-.0891.4707-.15235zm-2.4238.0762c.13474.0449.26931.0871.4082.11524a3.5 3.5 0 0 1 -.4082-.11524zm1.7109.12696a3.5 3.5 0 0 1 -.43164.0508c-.0046.00023-.0091-.00021-.01367 0 .14919-.007.29707-.0245.44531-.0508zm-1.0938.0215c.13749.0193.27689.0284.41602.0312-.0059-.00013-.0117.00015-.01758 0a3.5 3.5 0 0 1 -.38281-.0293c-.0052-.00071-.01041-.001-.01563-.002z" fill="#444"/>
</svg>
