<svg height="24" width="24" xmlns="http://www.w3.org/2000/svg">
  <path d="m13.953 13.002c-.094.512-.406.766-.683.868-1.1693.48405-2.1827.53002-3.465.56753-.055.359-.309.475-.59.588-.754.301-1.922.226-2.219.144-.238-.066-.504-.199-.648-.406-.098-.141-.164-.316-.164-.566 0-.141.004-.473.007-.766.004-.293.008-.39812.008-.39812 0-.261-.215-.20696-.48-.20696h-1.223c-1.1632 0-1.1688-1.338-1.09-2.227.043-.332.41-2.668.758-3.379.137-.273.227-.391.492-.512.59-.25 1.942-.527 2.574-.609.629-.078 1.028-.246 1.262.242 0 0 .047.121.113.301.204.613.231 1.156.231 1.551 0 .043.062.043.062 0 0-.278-.054-1.262.7-1.528.297-.105.914-.195 1.539-.269.566-.063.976-.285.976-1.723 0-.875-.183-.992-1.156-.992-.785 0-1.086-.019-1.086.598 0 .5.5.445.871.445.164 0 .043.121.043.43 0 .308.195.484.012.488-1.281.035-2.035.004-2.035-1.582 0-1.438.558-1.703 2.375-1.703 1.425 0 1.929.047 2.515 1.851.118.356.399 1.446.571 3.27.109 1.156-.102 4.641-.27 5.523zm-2.484-3.855c-.176.008-.344-.004-.504-.027.047.351.195.789.719.769.582-.019.664-.562.664-.93-.246.11-.547.176-.879.188z" fill="#444" transform="matrix(1.2838 0 0 -1.2418 .66407 22.928)"/>
</svg>
