<svg height="24" width="24" xmlns="http://www.w3.org/2000/svg">
  <path d="m2 0c-1.108 0-2 .892-2 2v12c0 1.108.892 2 2 2h12c1.108 0 2-.892 2-2v-12c0-1.108-.892-2-2-2zm8.799 2.0566.873.6973c-.032.0529-.059.1003-.08.1426-.011.0423-.016.1068-.016.1914 0 .1163.038.2465.112.3945.512.3928.816.8609 1.144 1.3653.087.1862.186.3698.201.5664.035.4532-.147.836-.443 1.1425-.296.3066-1.121.459-1.871.459-.201 0-.497-.0272-.719-.0801v3.7035c.19-.053.461-.121.641-.205.19-.085.385-.18.586-.286l.412 1.063c-.254.116-.511.221-.776.316-.253.085-.599.16-.863.223v3.25h-1v-3.061c-.3065.043-1.8267.112-2.1016.112-.983 0-1.839-.143-2.5683-.428-.7294-.296-1.3007-.73-1.7129-1.301-.4017-.5696-.6172-1.3838-.6172-2.24.0285-.5962.2458-1.0485.543-1.4297.6025-.7642 1.319-1.1319 2.1367-1.4375.3488-.0951.7556-.1206 1.2207-.1523.4757-.0422 1.0469-.0625 1.7129-.0625h1.3867c-.0317-.4968-.2146-1.3007-.5-1.5332-.2748-.2326-.6291-.3477-1.0625-.3477-.4123 0-.7241.0798-.9355.2383-.2115.148-.3165.3529-.3165.6172 0 0 .0157.2066.0157.2383l-1.127.1426c-.0211-.0952-.0312-.4922-.0312-.4922 0-.5814.2069-1.0255.6191-1.3321.4123-.3065.9765-.4589 1.6953-.4589 1.0994 0 1.8604.4441 2.2832 1.332.2854-.4863.6724-.9354 1.1584-1.3477zm-.096 1.6172c-.264.3171-.518.629-.592.9356-.074.3065-.111.2402-.111.5996v.6972c.17.034.44.0626.656.0626.349 0 .892-.0576 1.03-.1739.132-.1845.169-.3365.158-.4765-.05-.2757-.162-.5002-.305-.7129-.218-.3889-.563-.6577-.836-.9317zm-2.9784 2.3262c-.7399-.0002-1.3334.0202-1.7773.0625-.4334.0423-.7877.1119-1.0625.207-.2643.0846-.5015.1973-.7129.3243-.5874.4715-.8475.8864-.9024 1.3378-.0219.3035-.0837.5627-.039.7872.2015 1.0134.7787 1.3592 1.5449 1.8262.5602.254 1.3092.379 2.25.379.2854 0 1.7103-.047 1.9746-.078v-4.846z" fill="#444" transform="translate(4 4)"/>
</svg>
