<svg height="24" width="24" xmlns="http://www.w3.org/2000/svg">
  <path d="m12.779306 6.0015312c-.05156-.00555-.102813.00986-.142578.044922-.03976.03509-.06339.085636-.06836.140625l-.226562 2.4863281c-.01035.1144062.06903.2174449.175781.2285156.618358.06421 1.21365.2429922 1.771484.5312502.02654.01373.057.01953.08594.01953.02159 0 .04169-.004.0625-.01172.0486-.01819.08897-.05575.111328-.105469l1.011719-2.25c.04662-.1035318.0068-.2274557-.08984-.2773438-.847333-.4377792-1.753365-.7091602-2.691412-.8066381zm-1.863281.037109c-.9335502.1357348-1.8282282.4449011-2.6601562.9179688-.09472.053868-.130275.1796522-.08008.2812501l1.091797 2.207031c.03488.07049.102305.109375.171875.109375.03069 0 .06088-.007.08984-.02344.5480302-.311576 1.1372282-.51411 1.7519522-.6035159.106248-.015443.180421-.1204452.166016-.234375l-.3125-2.4765626c-.014411-.1138987-.112762-.1930621-.21875-.1777314zm5.986328 1.7968751c-.05122.00569-.09839.033347-.13086.076172l-1.470703 1.9374998c-.03247.04285-.04632.09744-.04101.1523439.0053.0549.03034.105759.07031.140625.48288.420938.888336.922558 1.207031 1.494141.03639.06519.101877.101562.167969.101562.03391 0 .06842-.0093.09961-.0293l2-1.28125c.04416-.02834.07529-.07339.08789-.126953.01255-.05356.005-.110781-.02148-.158203-.481887-.8642129-1.096363-1.6254218-1.826172-2.2617188-.03997-.03481-.09115-.050443-.142578-.044922zm-10.0410162.2070313c-.05163-.00353-.101958.014346-.140625.050781-.706855.6660896-1.293758 1.4508255-1.74414 2.3339844-.02468.04846-.03011.107213-.01563.160156.01448.05297.04659.09659.0918.123047l2.044921 1.199219c.02957.01735.06225.02539.09375.02539.06868 0 .134654-.0402.169922-.109375.297676-.583747.686712-1.102357 1.154297-1.542969.03875-.03638.06118-.08745.06445-.142578.0033-.05507-.01289-.110892-.04687-.1523439l-1.5390621-1.875c-.03399-.041451-.08139-.066752-.1328129-.070312zm12.5312492 3.7910154-2.224609.746094c-.102354.03436-.159006.152049-.126953.261719.159583.546134.240234 1.116414.240234 1.695312 0 .08523-.0018.172015-.0059.265625-.0024.05513.01606.109611.05078.150391.03469.04081.08334.06584.134766.06836l2.328124.115234c.0031.000141.0048 0 .0078 0 .103112 0 .188497-.08767.193359-.199218.006-.138875.0098-.26987.0098-.400392-.000052-.874835-.123089-1.738068-.365234-2.566406-.0321-.109726-.139939-.171164-.242188-.136719zm-10.7792962.240234c-.04224.0053-.08289.02534-.115234.05859-.06473.06645-.07931.171162-.03711.25586l1.7207032 3.457031c-.0063.06659-.0098.1353-.0098.203125 0 .521526.189227 1.010155.533203 1.378906.344003.368779.800622.572266 1.28711.572266.486487 0 .945086-.203543 1.289062-.572266.344003-.368751.533203-.85738.533203-1.378906 0-.521527-.189226-1.012108-.533203-1.38086-.343514-.368255-.80138-.57172-1.287109-.572265h-.002c-.03284.000044-.06707.000084-.09961.002l-3.1542972-1.994184c-.0386-.02445-.08276-.03456-.125-.0293zm-4.095703.06641c-.0497-.01441-.103757-.0079-.1484371.01953-.04468.02747-.07633.07367-.08984.126954-.184812.730664-.2792971 1.487385-.2792971 2.25 0 .130522.0037.261517.0098.40039.0048.111575.0902.199219.193359.199218.003 0 .0067.000169.0098 0l2.326172-.115234c.05143-.0025.100125-.02758.134765-.06836.03469-.04078.05319-.09526.05078-.15039-.004-.09364-.0059-.180423-.0059-.265625 0-.505046.06166-1.00446.183594-1.486328.028-.11093-.03324-.22573-.136718-.255859z" fill="#444"/>
</svg>
