<svg height="24" width="24" xmlns="http://www.w3.org/2000/svg">
  <path d="m12.0003 4.7210001-2.1895 2.2793h-2.8105001v2.8104999l-2.2792999 2.1895 2.2792999 2.2207v2.779h2.8105001l2.1895 2.279 2.221-2.279h2.779v-2.779l2.279-2.2207-2.279-2v-2.9999999h-2.779zm0 3.2793c2.21 0 4 1.7899999 4 3.9999999 0 2.2097-1.79 3.9997-4 3.9997-2.2100001 0-4.0000001-1.79-4.0000001-3.9997 0-2.21 1.79-3.9999999 4.0000001-3.9999999z" fill="#444" opacity=".3"/>
  <path d="m11.00015 9v4h2v-4zm0 5v1h2v-1z" fill="#4285f4"/>
</svg>
