<svg height="24" width="24" xmlns="http://www.w3.org/2000/svg">
  <g fill="#444">
    <path d="m4.8007813 9c-.4432001 0-.8007813.377019-.8007813.845703v9.308594c0 .468684.3575812.845703.8007813.845703h14.3984377c.4432 0 .800781-.377019.800781-.845703v-9.308594c0-.468684-.357581-.845703-.800781-.845703zm3.6992187 2a3.5 3.5 0 0 1 3.5 3.5 3.5 3.5 0 0 1 3.5-3.5 3.5 3.5 0 0 1 3.5 3.5 3.5 3.5 0 0 1 -3.5 3.5 3.5 3.5 0 0 1 -3.5-3.5 3.5 3.5 0 0 1 -3.5 3.5 3.5 3.5 0 0 1 -3.5-3.5 3.5 3.5 0 0 1 3.5-3.5zm0 2a1.5 1.5 0 0 0 -1.5 1.5 1.5 1.5 0 0 0 1.5 1.5 1.5 1.5 0 0 0 1.5-1.5 1.5 1.5 0 0 0 -1.5-1.5zm7 0a1.5 1.5 0 0 0 -1.5 1.5 1.5 1.5 0 0 0 1.5 1.5 1.5 1.5 0 0 0 1.5-1.5 1.5 1.5 0 0 0 -1.5-1.5z"/>
    <path d="m4.8007813 4c-.4432001 0-.8007813.3192878-.8007813.7148438v3.5703124c0 .3955561.3575812.7148438.8007813.7148438h14.3984377c.4432 0 .800781-.3192878.800781-.7148438v-3.5703124c0-.395556-.357581-.7148438-.800781-.7148438zm1.0703125 1h12.2578122c.482534 0 .871094.3018313.871094.6757812v1.6484376c0 .3739499-.38856.6757812-.871094.6757812h-12.2578122c-.4825341 0-.8710938-.3018313-.8710938-.6757812v-1.6484376c0-.37395.3885597-.6757812.8710938-.6757812zm.6289062 1a.5.5 0 0 0 -.5.5.5.5 0 0 0 .5.5.5.5 0 0 0 .5-.5.5.5 0 0 0 -.5-.5zm2 0a.5.5 0 0 0 -.5.5.5.5 0 0 0 .5.5.5.5 0 0 0 .5-.5.5.5 0 0 0 -.5-.5zm2 0a.5.5 0 0 0 -.5.5.5.5 0 0 0 .5.5.5.5 0 0 0 .5-.5.5.5 0 0 0 -.5-.5zm6.5 0v1h1v-1z"/>
  </g>
</svg>
