<svg height="24" width="24" xmlns="http://www.w3.org/2000/svg">
  <path d="m11.504171 3.999999c-.01002.022434-.0318.014094-.04883.015625-.238428.020217-.475619.044976-.710937.087891-1.7195324.3132829-3.131626 1.1277522-4.2246099 2.4394532-.8990689 1.0787165-1.3929917 2.3155285-1.5 3.6953128-.051804.668726-.00201 1.629504.1503907 2.283202.1131786.486254.2825181.957181.5097656 1.40625.019952.03822.038283.07702.058594.115235.3733397.707033.853222 1.336695 1.4550782 1.880859.3168343.28646.6568493.545598 1.0234375.769531.9706644.592534 2.0203449 1.176627 3.1445309 1.292969l.246094.02539c.08179.0011.393109.02122.392578.101562-.0037.685707-.0021 1.114944-.002 1.800781.000089.02661.0023.05285.0039.08594 0 0 .274355-.124261.507813-.234375 1.16359-.568634 2.240064-1.264345 3.210937-2.113281.218117-.190663.426227-.391547.626953-.59961.08595-.08898.171687-.180643.257813-.269531.133051-.136837.247628-.289508.373047-.433594.144852-.166182.276037-.343697.404296-.521484.283572-.39293.537124-.801397.75-1.234375.107678-.218898.210035-.44021.300782-.666016.003-.0042.0059-.0071.0078-.01172.247299-.618315.405878-1.257662.490235-1.914063.02946-.228629.04847-.459543.06055-.689453.02572-.495044-.0068-1.288296-.09961-1.77539-.246961-1.2990832-.839302-2.4340616-1.773373-3.4023434-.394031-.4087979-.836181-.7628851-1.324219-1.0644531-.908069-.5616756-1.899473-.907358-2.972656-1.0292969-.13083-.0149262-.263609-.0114075-.392578-.0410156zm-2.5039061 6a1 1 0 0 1 1.0000001 1 1 1 0 0 1 -1.0000001 1 1 1 0 0 1 -1-1 1 1 0 0 1 1-1zm3.0000001 0a1 1 0 0 1 1 1 1 1 0 0 1 -1 1 1 1 0 0 1 -1-1 1 1 0 0 1 1-1zm3 0a1 1 0 0 1 1 1 1 1 0 0 1 -1 1 1 1 0 0 1 -1-1 1 1 0 0 1 1-1z" fill="#444"/>
</svg>
