<svg height="24" width="24" xmlns="http://www.w3.org/2000/svg">
  <path d="m11.999999 4c-4.4319998 0-7.9999988 3.568-7.9999988 8s3.567999 8 7.9999988 8c4.432001 0 8.000001-3.568 8.000001-8s-3.568-8-8.000001-8zm2.210939 4c.204819 0 .565773.1131569.689453.2167969l.09961.083984-.0957.2832032c-.2179.6464-.821334 3.5304879-1.058595 5.0546879-.0627.40283-.151695.925439-.197265 1.162109-.0988.51299-.102492.708193-.01367.945313.14055.37522.13485.412938-.09375.517578-.11323.05183-.372332.122633-.576172.158203-.68941.1203-.900101-.03324-.900391-.65625-.000206-.41919.03843-.643601.302735-1.744141.11636-.48455.210937-.918857.210937-.966797 0-.08116-.01978-.08685-.296875-.05859-.16366.01669-.663628.03401-1.111328.03711-.44774.0031-.82774.0186-.84375.03516-.016.01656-.105135.366654-.197266.777344-.09212.41069-.2566568 1.086953-.3671868 1.501953-.11053.41504-.210603.878017-.220703 1.029297-.01201.1797-.04203.297724-.08789.339844-.1042.09569-.61884.246704-.94336.277344-.3948.041-.534959-.132828-.505859-.423829.02656-.261129.181369-.825039.568359-2.0625.65476-2.0937 1.066729-4.474215.892579-5.1660153-.04328-.17195-.0494-.2591482-.01758-.2988281.09911-.1235901.496838-.2587869.8242178-.2792969.67605-.014051.643324.23674.621094.78125-.01992.4880503-.149751 1.4062843-.269531 2.0214843-.03717.19092-.05592.375246-.04297.410156.01952.05266.200513.06306 1.064453.0625.57283-.000355 1.063797-.01673 1.091797-.03516.0874-.05751.138676-.251757.509766-1.935547.1985-.9007295.39603-1.6964308.4375-1.7695308.09463-.1667394.326781-.2988275.527342-.2988275z" fill="#444"/>
</svg>
