<svg height="24" width="24" xmlns="http://www.w3.org/2000/svg">
  <g transform="translate(1 1)">
    <path d="m0 0h22v22h-22z" opacity="0"/>
    <g fill="none" stroke="#444" stroke-linecap="round" stroke-linejoin="bevel" stroke-width="2">
      <path d="m8.0240249 11.999735h1.9999971m-.9999984 0-.0000113 2.000448c0 1 0 1-1.0000025.999552-.407777 0-1.7015092.000448-1.9999974.000448-1.0000024 0-1.0000024 0-1.0000024-1l.0000151-3.00045-.0000151-2.9995494c0-1 0-1 1.0000024-1 .2508095 0 1.6159785-.0003629 1.9999974-.0004492 1.0000025.0004492 1.0000025.0004492 1.0000025 1.0004492"/>
      <path d="m14 12.004811h4m-3.9999 2.999999v-5.9999989m3.9999 5.9999989v-5.9999989m-4 0-.000015-.9995518c0-1 0-1 2.000015-1.0004491 1.999985-.0004491 1.999977.0004491 1.999985 1.0004491.000015 1.9947407.000015.9995518.000015.9995518"/>
    </g>
  </g>
</svg>
