<svg height="24" width="24" xmlns="http://www.w3.org/2000/svg">
  <path d="m7.3532 3.9945a.25823.25823 0 0 0 -.2539.2617v1.5684c-.6493.1087-1.1549.6144-1.2637 1.2636h-1.5684a.25879.25879 0 1 0 0 .51758h1.541v2.582h-1.541a.25823.25823 0 1 0 0 .51562h1.541v2.582h-1.541a.25823.25823 0 1 0 0 .51562h1.541v2.582h-1.541a.25879.25879 0 1 0 0 .51758h1.5684c.10876.64926.61441 1.1549 1.2637 1.2637v1.5684a.25879.25879 0 1 0 .51758 0v-1.541h2.582v1.541a.25823.25823 0 1 0 .51562 0v-1.541h2.582v1.541a.25823.25823 0 1 0 .51562 0v-1.541h2.582v1.541a.25879.25879 0 0 0 .51758 0v-1.5684c.64926-.10876 1.1549-.61441 1.2637-1.2637h1.5684a.25823.25823 0 0 0 .26172-.26172.25823.25823 0 0 0 -.26172-.25586h-1.541v-2.582h1.541a.25823.25823 0 0 0 .26172-.26172.25823.25823 0 0 0 -.26172-.25391h-1.541v-2.582h1.541a.25823.25823 0 0 0 .26172-.26172.25823.25823 0 0 0 -.26172-.25391h-1.541v-2.582h1.541a.25823.25823 0 0 0 .261-.2639.25823.25823 0 0 0 -.262-.2539h-1.5684c-.109-.6492-.615-1.1549-1.264-1.2636v-1.5684a.25823.25823 0 0 0 -.264-.2617.25823.25823 0 0 0 -.254.2617v1.541h-2.582v-1.541a.25823.25823 0 0 0 -.262-.2617.25823.25823 0 0 0 -.253.2617v1.541h-2.582v-1.541a.25823.25823 0 0 0 -.262-.2617.25823.25823 0 0 0 -.254.2617v1.541h-2.582v-1.541a.25823.25823 0 0 0 -.2638-.2617zm.15234 12h9c.277 0 .5.223.5.5s-.223.5-.5.5h-9c-.277 0-.5-.223-.5-.5s.223-.5.5-.5z" fill="#444"/>
</svg>
