<svg height="24" width="24" xmlns="http://www.w3.org/2000/svg">
  <g transform="translate(1 1)">
    <path d="m0 0h22v22h-22z" opacity="0"/>
    <g fill="none" stroke="#444" stroke-linecap="round" stroke-width="2">
      <path d="m5 14.999898h4.0000001m-4.0000001-3.999998h4.0000001m-4.0000001-3.9999986h4.0000001m-3.9999003 8.0000986v-8.0000003" stroke-linejoin="bevel"/>
      <path d="m13.000051 14.000066c0 1 0 1 .999998 1 .359093 0 .425299.000218 1.00001.000032.454553-.000111-.000011-.000032.999992-.000032 0 0 .999991 0 .999998-1l.000008-1.000449c0-4.2143851-3.999999.211162-3.988018-3.9907051-.0025-.4205455-.01209-.7453845-.01209-1.0088458 0-.9999999.999999-.9999999.999999-.9999999.251868 0 .631707-.0004498 1.00001-.0004491.347679 0 .741252.0004491.999991.0004491.999999 0 .999999 0 .999999.9999999" stroke-linejoin="round"/>
    </g>
  </g>
</svg>
