<svg height="24" width="24" xmlns="http://www.w3.org/2000/svg">
  <path d="m10.639 4.2324c-3.3645.9731-5.7393 3.5912-5.4452 7.2316.3393 4.201 6.4272 8.448 8.8112 8.536 1.0392-.24581.43731-3.5716-.17439-6.082-.17148-.67825-.34384-1.3538-.54062-2.0332-.06401-.2201-.14108-.49243-.16131-.55891-.32566-1.0924-.71998-2.3401-1.3647-4.3239-.1219-.35856.13474-.73386.51009-.74595.25122-.0084.47701.15375.55151.39608 1.1173 3.4384 1.5608 4.9497 2.0163 6.7246 1.7956 2.2494 4.4059 5.3278 5.2491 5.1359 1.3007-.29619 1.7717-8.9545-.60017-11.625-2.372-2.6705-5.514-3.298-8.852-2.6555z" fill="#444"/>
</svg>
