<svg height="24" width="24" xmlns="http://www.w3.org/2000/svg">
  <g fill="#444" transform="translate(0 -1028.4)">
    <path d="m12 1032.4c-2 0-5 9-5 16 2-3 5-6 6-6s2.1116 2 4.1116 5c-.11161-6-3.1116-15-5.1116-15z" fill-rule="evenodd"/>
    <path d="m12 6a6 6 0 0 0 -.781.0586c-.497.8503-1.037 2.125-1.5159 3.6211-.6682 2.0883-1.1173 4.5773-1.3945 7.0413a6 6 0 0 0 .0527.041c.4469-.536.867-1.154 1.3067-1.594.589-.589 1.149-1.085 1.668-1.461s.914-.707 1.664-.707c.583 0 1.054.279 1.43.598.375.319.703.711 1.052 1.179.046.062.116.177.163.241-.326-1.88-.764-3.778-1.329-5.4477-.483-1.4315-1.025-2.6744-1.523-3.5117a6 6 0 0 0 -.793-.0586zm-3.5059 1.1406a6 6 0 0 0 -2.4941 4.8594 6 6 0 0 0 .5078 2.398c.3206-1.881.7715-3.71 1.2891-5.3277.2205-.6892.4552-1.3292.6972-1.9297zm7.0429.0215c.232.5609.46 1.1379.674 1.7695.549 1.6244 1.026 3.4424 1.367 5.2614a6 6 0 0 0 .422-2.193 6 6 0 0 0 -2.463-4.8379zm-2.537 7.8379c-.055 0-.033.006.023.041.064-.029.081-.041-.023-.041zm.023.041c-.089.041-.289.121-.515.285-.388.281-.89.72-1.426 1.256-.329.329-.671.702-1.016 1.092a6 6 0 0 0 1.934.326 6 6 0 0 0 2.793-.693c-.336-.507-.649-.977-.914-1.332-.304-.407-.566-.702-.742-.852-.061-.051-.084-.064-.114-.082z" transform="translate(0 1028.4)"/>
  </g>
</svg>
