<svg height="24" width="24" xmlns="http://www.w3.org/2000/svg">
  <g transform="translate(1 1)">
    <path d="m0 0h22v22h-22z" opacity="0"/>
    <g fill="none" stroke="#444" stroke-linecap="round" stroke-width="2">
      <path d="m9.9995852 15v-8.0000003m-5.9999998 0 2.9999999 3.9999983 2.9999999-3.9999983m-5.9999998 8.0000003v-8.0000003" stroke-linejoin="round"/>
      <path d="m18.00315 14.999822-2.000001-2.999999m-2.000001-1.000002 1.999982-.000004c.423836-.000001.729048.000455 1.00001.000455.999999 0 .999999 0 .999999-1.000001 0-.2567204.000015-.5997726.000011-1.0004478l-.000011-.9995519c0-1 0-1-.999999-1-.224504 0-.544112.00944-.874519.00719-1.12549-.00765-2.125473-.00756-2.125473-.00756m.000098 8.0000987v-8.0000004"/>
    </g>
  </g>
</svg>
