<svg height="24" width="24" xmlns="http://www.w3.org/2000/svg">
  <path d="m16.882235 4.9995834c-.285923 0-.64571.04645-.798828.103516-.653686.243617-1.160753.500199-1.451172 1.664094-.467166 1.8722268-1.269759 2.7070317-2.602539 2.7070317-.407157 0-.410953.08131-.02149.4453111.756163.7067018 1.216254 1.7658248 1.34082 3.0878898.04897.51956.122066.74962.305664.964843.132467.155287.295766.28125.364258.28125.06849 0 .201509-.230053.295899-.511718.126855-.378533.192132-1.046417.25-2.560547.06709-1.7555209.109469-2.1289799.295898-2.6103493.477208-1.2321663 1.544244-1.8906223 2.630859-1.4037893.521727.23375.972446.9126248 1.63379 2.0698047.490486.8582289 1.041652 1.5058569 1.282226 1.5058569.121528 0 .124257-.166917.0039-.240234-.493221-1.3477199-.515639-3.0454986-.816401-3.8388966-.532672-1.029947-1.567663-1.664063-2.712884-1.664063zm-7.0576176 4.2881187c-.09453.00085-.202611.0091-.336914.02149-.635293.05852-.951172.1418-.951172.2509769 0 .03567.393838.458752.874023.940426.9551406.958098 1.4120686 1.72059 1.6201176 2.704102.09367.320125.121744.647749.142578.976562-.713386.324048-1.171841 1.034825-1.172852 1.818359 0 1.104569.895431 2 2.000001 2s2-.895431 2-2c-.0007-.768985-.442262-1.469458-1.135742-1.801758-.100665-.276185-.07519-.543654-.07519-.816406 0-1.634304-.85421-3.139681-2.187501-3.855466-.337638-.1812589-.493764-.2408509-.7773486-.2382809zm-2.091797.6513651-.539062.3652348c-.791485.537693-1.56266 1.411237-1.977539 2.239257-.328679.655977-.369397.824522-.408203 1.682617-.02699.596736-.101953 1.067707-.199219 1.256836-.211182.410627-.106372.796026.240234.881835.145922.03612.489867.292399.764648.56836.920057.923995 2.670229 1.302958 4.233399.916992.4047146-.09993.4538116-.188166.2148426-.383789-.08583-.07026-.2686876-.347526-.4072256-.617188-.47379-.922245-.297537-2.069447.4335926-2.80957.331739-.335816.35154-.389242.293946-.803711-.03393-.244325-.174625-.66527-.313477-.935547-.2829746-.550827-1.4740076-1.837593-1.9951166-2.155272zm-.982422 4.0605458c.414214 0 .75.335786.75.75s-.335786.75-.75.75c-.414213 0-.75-.335786-.75-.75s.335787-.75.75-.75zm5.2500006 1c.552285 0 1 .447715 1 1 0 .552284-.447715 1-1 1-.552286 0-1.000001-.447716-1.000001-1 0-.552285.447715-1 1.000001-1z" fill="#444"/>
</svg>
