<svg height="24" width="24" xmlns="http://www.w3.org/2000/svg">
  <g fill="#444" transform="translate(-32 -720.36)">
    <path d="m38.5 724.36c-.277 0-.5.22301-.5.50001v.5h-2v-.00026l-.000015 14.502c0 .277.223.5.5.5h6c.277 0 .5-.223.5-.5v-14.5l-.50002.002h-1.5v-.5c0-.277-.223-.50001-.5-.50001z"/>
    <path d="m46 725.36c-.554 0-1 .446-1 1v13c0 .554.446 1 1 1h5c.554 0 1-.446 1-1v-13c0-.554-.446-1-1-1zm0 3h1v1h-1zm2 0h1v1h-1zm2 1h1v7h-1zm-4 1h1v1h-1zm2 0h1v1h-1zm-2 2h1v1h-1zm2 0h1v1h-1zm-2 2h1v1h-1zm2 0h1v1h-1zm-2 2h1v1h-1zm2 0h1v1h-1z" fill-rule="evenodd"/>
  </g>
</svg>
