<svg height="24" width="24" xmlns="http://www.w3.org/2000/svg">
  <path d="m10.337491 4c-.04614 0-.3480001.5097587-.6347656 1.0722656-.4197997.8234637-.6207703 1.4559473-.6894531 2.1875-.016969.1807744-.0133293.3586758-.0019531.5332032-.00708.078624-.010999.157397-.011719.2363281 0 .3216121.06468.625957.1601562.9160156-1.2650574.5642325-2.3364042 1.4850695-3.0722656 2.6445315-.1810603.236758-.3410751.483545-.4570312.748047-.1822119.415634-.3173554.845821-.4199219 1.310547-.068248.275755-.1256893.554232-.1601563.841796-.00307.0256.00501.03097.017578.02734-.013155.110763-.030783.216029-.041016.332031-.032805.371885-.036745.525389-.011719.525391l3.984376-4.374996-1.03125 3.455078c.00607.0061.1375376-.04757.2929688-.11914.9549601-.439703 2.1451298-1.206465 3.1972648-1.332032.36284-.0433 1.621735-.04746 2-.0078.37305.03909.729972.199432 1.097657.380859a5 5 0 0 1 3.443359-1.376965 5 5 0 0 1 .140625.0078c-.01597-.05208-.04136-.111494-.08594-.189453-.09589-.254803-.237999-.510365-.451172-.798828-.790588-.868757-1.718119-1.590739-2.765622-2.0703002.096341-.2912394.162109-.5967946.162109-.9199219-.000026-.075507-.0021-.1512747-.0078-.2265625.0026-.075259.0098-.1505538.0059-.2246094-.053174-1.0171424-.647772-1.7149862-1.544975-2.1738281-.475007-.2429255-1.201657-.3564852-1.675781-.3574219-.591493-.001166-1.040993-.50973-1.330078-.9257812-.046275-.0666007-.095586-.1210944-.109375-.1210938zm7.662109 9c-2.2091 0-4 1.7909-4 4s1.7909 4 4 4 4-1.7909 4-4-1.7909-4-4-4zm-4.644531.990234c-.142321-.01491-1.677283-.0061-1.777344.0059-.664601.07932-1.8290209.755645-2.8984371 1.248047-.088747.04086-.1700516.07725-.2441406.107421-.037045.01508-.068655.0278-.1191407.04492-.025243.0086-.0507.01801-.1171874.0332-.033244.0076-.072608.01784-.171875.02344-.049633.0028-.2280842-.01164-.2285157-.01172-.0002157-.00004-.2205474-.06634-.2207031-.06641-.0001557-.000066-.3182645-.214748-.3183594-.214844a1.0001 1.0001 0 0 1 -.2636718-.472688l-1.2402344 1.361328a1.0001 1.0001 0 0 1 -.6660156.324219 6.9999312 6.9999312 0 0 0 1.703125 3.626953h7.2148428a5 5 0 0 1 -1.007812-3 5 5 0 0 1 .863281-2.806641c-.212687-.105355-.393279-.191123-.507812-.203125zm4.644531.009766a3 3 0 0 1 3 3h-1a2 2 0 0 0 -2-2zm-8.9999996 2a1 1 0 0 1 1 1 1 1 0 0 1 -1 1 1 1 0 0 1 -1-1 1 1 0 0 1 1-1zm5.9999996 1h1a2 2 0 0 0 2 2v1a3 3 0 0 1 -3-3z" fill="#444"/>
</svg>
