<svg height="24" width="24" xmlns="http://www.w3.org/2000/svg">
  <g fill="#444" transform="translate(-104 -768.36)">
    <path d="m109.5 772.36c-.27701 0-.5.22301-.5.50001v.5l-2-.002v-.00026l-.00001 14.502c0 .277.22299.5.5.5h6c.27699 0 .5-.223.5-.5l.00001-14.501-.50001.002h-1.5v-.5c0-.277-.22301-.50001-.5-.50001z" opacity=".35"/>
    <path d="m107 782.36-.00001 5.5017c-.00001.277.22299.5.5.5h6c.27699 0 .5-.223.5-.5l.00001-5.5017z"/>
    <path d="m121 772.36c-2.77 0-5 2.676-5 6h5zm1 0v6h5c0-3.324-2.23-6-5-6zm-6 7v3c0 3.324 2.23 6 5 6h1c2.77 0 5-2.676 5-6v-3h-5z"/>
  </g>
</svg>
