<svg height="24" width="24" xmlns="http://www.w3.org/2000/svg">
  <path d="m12.5 4c-3.0372436 0-5.4995438 2.3276432-5.5 5.199219.00172.133675.00888.267238.021484.40039h-.021484v.400391h-1.1660156c-.4616667 0-.8339844.346455-.8339844.777344v5.445312c0 .430889.3723177.777344.8339844.777344h1.1660156v2.199219c0 .4432.3769338.800781.8457031.800781h2.9628909l1.267578-2h.847656l1.267578 2h2.962891c.468769 0 .845703-.357581.845703-.800781v-2.199219h1.166016c.461666 0 .833984-.346455.833984-.777344v-5.445312c0-.430889-.372318-.777344-.833984-.777344h-1.166016v-.400391h-.01758c.0113-.1332.01716-.266763.01758-.40039-.000456-2.8715758-2.462756-5.199219-5.5-5.199219zm0 2c1.932663-.0000001 3.5 1 3.5 3.977539-.000558.01498-.0012.02995-.002.04492h-6.998c-.0000931-.01497-.0000931-.02995 0-.04492 0-2.9775391 1.567337-3.9775392 3.5-3.977539zm-2.5 2v1h1v-1zm4 0v1h1v-1zm-1.5 3c.923333 0 1.466796.782188 1.466796 1.742188v.257812h.617188c.227489-.03915.416016.262571.416016.5v2.072266c0 .237428-.185182.427734-.416016.427734h-4.167968c-.230834 0-.416016-.190306-.416016-.427734v-2.072266c0-.237429.185182-.5.416016-.5h.617187v-.257812c0-.960386.543464-1.742188 1.466797-1.742188zm0 .857422c-.461667 0-.632812.382565-.632812.857422v.285156h1.265625v-.285156c0-.474857-.171146-.857422-.632813-.857422z" fill="#444" opacity=".3"/>
</svg>
