<svg height="24" width="24" xmlns="http://www.w3.org/2000/svg">
  <path d="m3.1455 11.027s1.8986-2.8224 5.6895-3.1143v-1.0239c-4.1989.3395-7.835 3.9222-7.835 3.9222s2.0594 5.9982 7.835 6.5474v-1.0884c-4.2384-.537-5.6895-5.243-5.6895-5.243zm5.6895 3.079v.99674c-3.2033-.576-4.0924-3.931-4.0924-3.931s1.538-1.7166 4.0925-1.995v1.0937c-.00157 0-.00263-.000567-.00403-.000567-1.3407-.1621-2.388 1.0998-2.388 1.0998s.58704 2.1243 2.3929 2.7356m0-9.1059v1.8886c.12327-.00945.24653-.017496.37046-.021761 4.7737-.1621 7.8841 3.9446 7.8841 3.9446s-3.5724 4.3766-7.2942 4.3766c-.3411 0-.66043-.03189-.96037-.08542v1.1679c.25648.03276.52241.05211.7999.05211 3.4634 0 5.968-1.7821 8.3933-3.8913.40211.32446 2.0483 1.1138 2.3867 1.4593-2.306 1.9451-7.6801 3.5131-10.727 3.5131-.29368 0-.57573-.0179-.85297-.04485v1.6411h13.164v-14h-13.164zm0 4.1774v-1.2648c.122-.00735.24492-.015159.37046-.019202 3.4328-.10864 5.6849 2.9721 5.6849 2.9721s-2.4325 3.4038-5.0407 3.4038c-.37536 0-.7119-.06076-1.0148-.16338v-3.8348c1.3364.1627 1.6054.75746 2.4088 2.1069l1.7868-1.5181s-1.3044-1.7236-3.5033-1.7236c-.23902-.000082-.46773.01686-.69233.04096" fill="#444"/>
</svg>
