<svg height="24" width="24" xmlns="http://www.w3.org/2000/svg">
  <path d="m5 5c-.554 0-1 .446-1 1v2.2832c.2965-.1755.636-.2832 1-.2832h3.5859l1.7071-1.707a1.0001 1.0001 0 0 1 .707-.293h1c0-.554-.446-1-1-1zm6 2-2 2h-4c-.554 0-1 .446-1 1v8c0 1.108.892 2 2 2h12c1.108 0 2-.892 2-2v-10c0-.554-.446-1-1-1zm.98 2.3203a.44445.44445 0 0 1 .045 0 .44445.44445 0 0 1 .401.3047l.797 2.391 2.519.025a.44445.44445 0 0 1 .26.801l-2.025 1.498.753 2.404a.44445.44445 0 0 1 -.683.494l-2.049-1.465-2.0527 1.461a.44445.44445 0 0 1 -.6816-.498l.7593-2.402-2.023-1.5a.44445.44445 0 0 1 .2617-.803l2.5193-.019.801-2.387a.44445.44445 0 0 1 .398-.3047z" fill="#444"/>
</svg>
