<svg height="24" width="24" xmlns="http://www.w3.org/2000/svg">
  <path d="m3.9998 6v12h2v-12zm4 0v12l4.252-.0332c2.9313-.03263 3.208-.07195 4.4473-.67578 2.702-1.3165 3.9797-4.5047 2.9414-7.3438-.686-1.8751-2.248-3.2628-4.237-3.7677-.625-.1586-1.021-.1797-3.449-.1797h-3.9552zm6 .34375 1.4141 1.4141.70703.70703-.70703.70703-1.4141 1.4141-.70703-.70703.92773-.92773c-.702-.0859-1.515.1003-2.342.9276-2.1213 2.1213 0 4.2422 0 4.2422l-.70703.70703s-2.8284-2.8278 0-5.6562c1.0484-1.0483 2.1015-1.3122 3.0059-1.2383l-.885-.8827.707-.707zm2.8281 2.8281s2.8284 2.8278 0 5.6562c-1.0484 1.0484-2.1015 1.3122-3.0059 1.2383l.88476.88281-.70703.70703-1.4141-1.4141-.70703-.70703.70703-.70703 1.4141-1.4141.70703.70703-.92773.92773c.70145.08627 1.5145-.10042 2.3418-.92773 2.1213-2.1213 0-4.2422 0-4.2422l.70703-.70703z" fill="#444"/>
</svg>
