<svg height="24" width="24" xmlns="http://www.w3.org/2000/svg">
  <g transform="translate(-420.71 -524.79)">
    <path d="m424.86 529.79c-.63315 0-1.1426.53442-1.1426 1.1992v11.602c0 .6648.50943 1.1992 1.1426 1.1992h15.715c.63315 0 1.1426-.53442 1.1426-1.1992v-11.602c0-.6648-.50943-1.1992-1.1426-1.1992zm4.8574 3c2.2091 0 4 1.7909 4 4s-1.7909 4-4 4-4-1.7909-4-4 1.7909-4 4-4zm5 0h5v1h-5zm0 3h5v1h-5zm0 3h5v1h-5z" fill="#444"/>
    <path d="m429.71 533.79c-1.6569 0-3 1.3432-3 3s1.3431 3 3 3c1.6568 0 3-1.3432 3-3s-1.3432-3-3-3z" fill="#4285f4"/>
  </g>
</svg>
