<svg height="24" width="24" xmlns="http://www.w3.org/2000/svg">
  <path d="m12 4c-4.432 0-8 3.568-8 8s3.568 8 8 8c4.4281 0 7.9937-3.5618 8-7.9883.000006-.0039 0-.0078 0-.01172 0-4.432-3.568-8-8-8zm.08789 2a6 6 0 0 1 4.1543 1.7578 6 6 0 0 1 0 8.4844 6 6 0 0 1 -8.4844 0 6 6 0 0 1 0-8.4844 6 6 0 0 1 4.3301-1.7578zm-.088 1v5l5 .008v-.008c0-2.7733-2.227-5-5-5zm-4 4a1 1 0 0 0 -1 1 1 1 0 0 0 1 1 1 1 0 0 0 1-1 1 1 0 0 0 -1-1zm4 4a1 1 0 0 0 -1 1 1 1 0 0 0 1 1 1 1 0 0 0 1-1 1 1 0 0 0 -1-1z" fill="#444" opacity=".3"/>
</svg>
