<svg height="24" width="24" xmlns="http://www.w3.org/2000/svg">
  <path d="m18.928 8a8 8 0 0 0 -10.928-2.9282 8 8 0 0 0 -2.9282 10.928 8 8 0 0 0 10.928 2.928 8 8 0 0 0 2.928-10.928zm-1.7321 1a6 6 0 0 1 .49082 4.897 1.5 1.5 0 0 1 .15213.21663 1.5 1.5 0 0 1 -.54904 2.049 1.5 1.5 0 0 1 -1.1285.15086 6 6 0 0 1 -1.161.882 6 6 0 0 1 -3.664.76 1.5 1.5 0 0 1 -.517.499 1.5 1.5 0 0 1 -2.0486-.549 1.5 1.5 0 0 1 -.1822-.98 6 6 0 0 1 -1.7844-1.926 6 6 0 0 1 .0041-5.9969 1.5 1.5 0 0 1 -.031-.0497 1.5 1.5 0 0 1 .5491-2.0491 1.5 1.5 0 0 1 1.5064.0076 6 6 0 0 1 .16762-.10809 6 6 0 0 1 8.1962 2.1961zm-.866.5a5 5 0 0 0 -6.83-1.8301 5 5 0 0 0 -.0186.0107 1.5 1.5 0 0 1 -.1274 1.3027l2.2091 2.7209a1.5 1.5 0 0 1 1.8029.66182 1.5 1.5 0 0 1 .1993.79832l1.8405.71906a1.5 1.5 0 0 1 .384-.318 1.5 1.5 0 0 1 1.011-.178 5 5 0 0 0 -.471-3.887zm-1.288 5.315-1.841-.719a1.5 1.5 0 0 1 -.38425.31883 1.5 1.5 0 0 1 -.92846.18873l-.74429 1.5077a1.5 1.5 0 0 1 .22419.29455 1.5 1.5 0 0 1 .19005.57136 5 5 0 0 0 2.942-.648 5 5 0 0 0 .819-.597 1.5 1.5 0 0 1 -.078-.119 1.5 1.5 0 0 1 -.199-.799zm-4.253-2.479-2.2108-2.7198a1.5 1.5 0 0 1 -.97335.00942 5 5 0 0 0 .06507 4.8744 5 5 0 0 0 1.3972 1.5411 1.5 1.5 0 0 1 .25234-.18403 1.5 1.5 0 0 1 .92846-.18873l.744-1.507a1.5 1.5 0 0 1 -.22418-.29456 1.5 1.5 0 0 1 .02105-1.53z" fill="#444"/>
</svg>
