<svg height="24" width="24" xmlns="http://www.w3.org/2000/svg">
  <path d="m12.018512 4c-3.8927717 0-7.1305784 2.5954436-7.8353439 6.027344a7.9814888 7.5 0 0 0 -.1831681 1.576172 7.9814888 7.5 0 0 0 3.0300814 5.873046v2.523438l1.7732314-1.519531a7.9814888 7.5 0 0 0 3.1781762.623047 7.9814888 7.5 0 0 0 7.83729-6.107422c.116729-.5057.181221-1.03016.181221-1.56836 0-4.1026996-3.573712-7.4277341-7.981488-7.427734zm-.02339 2h.02339.02339l.561198.025391.02143.00195.02339.00391.54561.074219.03312.00586.03312.00977.155889.042969-.270855.9628841-.113019-.033203-.500792-.070312-.512483-.021484-.514432.021484-.138351.019531-.136403-.9902345.159787-.021484.02339-.00391.02143-.00195zm-1.804405.2871094.270856.9609375-.399464.1152343-.8515408.4199219-.3585434.2695313-.5982216-.8007813.397515-.2988281.0370242-.027344.0409251-.019531.9333822-.4609375.040925-.021484.04287-.011719zm4.263549.1972656.853489.421875.04092.019531.03702.027344.812568.6113281.03702.029297.03312.035156.01948.021484-.483255.4394537-.204604.2753906-.773595-.5820313-.812569-.4023437zm-7.0071858 1.5.7385212.671875-.3254173.359375-.2377296.359375-.206552.392578-.1734258.427735-.9255883-.373047.1831692-.455078.00978-.02539.011693-.02148.2318842-.4375005.011693-.023437.013638-.021484.2747529-.4121094.02143-.029297.023386-.027344zm9.5540128.46875.257215.3847656.01364.021484.01169.023437.231884.4375004.01169.02148.0098.02539.185118.458984.0098.02539.0078.02539.134454.478516.0078.02734.0039.02734.0078.04687-.923639.15625-.05651.01563-.002-.0059h-.002l-.003925-.019476-.120813-.431641-.161735-.404297-.208501-.392578-.243576-.367187zm-10.9336261 2.447266.5358672.08984.454025.02539-.025331.484375.023386.453125.074048.439453.1208138.429687-.9606619.271485-.1266603-.449219-.00778-.02734-.00389-.02734-.083796-.496094-.00389-.02734-.002-.02734-.029232-.511719v-.02734-.02734l.029232-.511721.002-.02734.00389-.02734zm10.9394711.572265.997687.05469-.02923.511719-.002.02734-.0039.02734-.0838.496094-.0039.02734-.0078.02734-.134454.478515-.0078.02539-.0098.02539-.181168.45117-.925587-.373047.169529-.423828.122762-.435547.07405-.439453zm-9.3981239 2.132813.017539.02734.2338327.349609.6138114.679687.352697.265625-.60017.800782-.3877727-.292969-.037024-.0293-.033123-.03516-.6703204-.740235-.023386-.02734-.02143-.0293-.2747538-.41211-.013638-.02148-.011693-.02344-.00978-.01563.5982256-.318349zm8.5894529.355468.738522.671875-.668372.738282-.03312.03516-.03702.0293-.800876.601562-.598222-.798828.763852-.576172zm-6.607721 1.44336.471563.232422.941177.269531.329314.04492-.136403.992187-.352697-.04883-.03312-.0059-.03312-.0098-1.0308131-.291015-.042871-.01172-.040925-.02148-.5124823-.251878zm4.429181.220703.05456.195312.350749.710938-.05066.02344-.04092.02148-.04287.01172-1.030812.291015-.03312.0098-.03312.0059-.54561.07422-.02339.0039-.02143.002-.32152.01367-.04482-1 .294239-.01172.50274-.07031.945074-.269531.0039-.002z" fill="#444"/>
</svg>
