<svg height="24" width="24" xmlns="http://www.w3.org/2000/svg">
  <path d="m8 4a4 4 0 0 0 -4 4 4 4 0 0 0 1.1152 2.7695 7 7 0 0 0 -.1152 1.2305 7 7 0 0 0 7 7 7 7 0 0 0 1.238-.113 4 4 0 0 0 2.762 1.113 4 4 0 0 0 4-4 4 4 0 0 0 -1.115-2.77 7 7 0 0 0 .115-1.23 7 7 0 0 0 -7-7 7 7 0 0 0 -1.2383.1133 4 4 0 0 0 -2.7617-1.1133zm4.127 4c1.9736 0 2.9922 1.0424 2.9922 1.6543 0 .61395-.29491.70508-.7793.70508-.94131 0-.5552-1.1328-2.3184-1.1328-.58345 0-1.3125.26546-1.3125.94726 0 .5481.6457.75005 1.7852 1.0312 1.718.46 3.006.919 3.006 2.496 0 1.531-1.247 2.299-3.221 2.299-1.9733 0-3.2341-1.181-3.2341-1.793 0-.6119.23241-.76562.7168-.76562.94281 0 .81697 1.2891 2.5801 1.2891.5855 0 1.4492-.26732 1.4492-.95117 0-.54605-.04607-.73496-1.2969-1.0723-1.336-.181-3.494-.616-3.494-2.2832 0-1.5309 1.1554-2.4218 3.129-2.4218l-.002-.002z" fill="#444"/>
  <circle cx="20" cy="5" fill="#4285f4" r="2"/>
</svg>
