<svg height="24" width="24" xmlns="http://www.w3.org/2000/svg">
  <path d="m12 5c-.554 0-1 .446-1 1v5.003906c0 .554.446 1 1 1s1-.446 1-1v-5.003906c0-.554-.446-1-1-1zm3.037109 1.9882812a1.0001 1.0001 0 0 0 -.193359.0117188 1.0001 1.0001 0 0 0 -.4375 1.8125c1.7785 1.3304 2.1428 3.81525.8125 5.59375-1.3304 1.7785-3.8465 2.1116-5.625.78125s-2.1116-3.81525-.78125-5.59375c.21656-.28951.4639-.52896.75-.75a1.0032039 1.0032039 0 1 0 -1.21875-1.59375c-.42915.33156-.83146.72204-1.15625 1.15625-1.9778 2.644-1.42525 6.42855 1.21875 8.40625 2.644 1.9778 6.42855 1.42525 8.40625-1.21875 1.9778-2.644 1.42525-6.42855-1.21875-8.40625a1.0001 1.0001 0 0 0 -.556641-.1992188z" fill="#4285f4"/>
</svg>
