<svg height="24" width="24" xmlns="http://www.w3.org/2000/svg">
  <g transform="translate(1 1)">
    <path d="m12.473 18.859c-.44553-.26953-.72983-.73845-1.968-3.2406-.68429-1.3858-1.3366-2.6166-1.4486-2.7347-.12554-.13292-1.1581-.68183-2.7003-1.435-3.047-1.4867-3.3562-1.723-3.3562-2.5661 0-.39261.19187-.76922.49267-.9649.10338-.06736 3.2892-1.2072 7.0794-2.5329 6.6597-2.3292 6.9073-2.4093 7.3622-2.3815.3937.024.50776.063999.69688.24436.28356.27043.41112.64532.35593 1.0461-.05937.43079-4.8406 13.937-5.0185 14.176-.37922.50982-1.0227.67781-1.496.39054z" fill="#444"/>
    <circle cx="6" cy="16" fill="#4285f4" r="2"/>
  </g>
</svg>
