<svg height="24" width="24" xmlns="http://www.w3.org/2000/svg">
  <g fill="#444">
    <path d="m8.5 4c-.831 0-1.5.669-1.5 1.5s.669 1.5 1.5 1.5h6c.831 0 1.5-.669 1.5-1.5s-.669-1.5-1.5-1.5zm-1.3222656 5c-.6529286 0-1.1777344.524806-1.1777344 1.177734v8.644532c0 .652928.5248058 1.177734 1.1777344 1.177734h8.6445316c.652928 0 1.177734-.524806 1.177734-1.177734v-8.644532c0-.652928-.524806-1.177734-1.177734-1.177734h-2.822266v2.75l1.5 1.25h-1.5v1 2h1.5l-3 2.5-3-2.5h1.5v-2-1h-1.5l1.5-1.25v-2.75z"/>
    <path d="m10-14h3v9h-3z" opacity=".3" transform="scale(1 -1)"/>
  </g>
</svg>
