<svg height="24" width="24" xmlns="http://www.w3.org/2000/svg">
  <path d="m4.800781 4.0000001c-.4432 0-.800781.3575813-.800781.8007813v14.3984376c0 .4432.357581.800781.800781.800781h14.398438c.4432 0 .800781-.357581.800781-.800781v-14.3984376c0-.4432-.357581-.8007813-.800781-.8007813zm4 4.0000001h6.398438c.4432 0 .800781.3575812.800781.8007812v6.3984376c0 .4432-.357581.800781-.800781.800781h-6.398438c-.4432 0-.800781-.357581-.800781-.800781v-6.3984376c0-.4432.357581-.8007812.800781-.8007812z" fill="#444"/>
</svg>
