<svg height="24" width="24" xmlns="http://www.w3.org/2000/svg">
  <path d="m10.027 6.0016c-.39175.011183-.78982.083986-1.1855.21875-1.6926.57493-2.9693 2.2417-3.3477 4.3125-1.111.26797-2.0486 1.2484-2.377 2.6562-.46544 1.9998.50365 4.0611 2.1582 4.623.027025.008.034474.02425.0625.03125.22821.09898.49276.15625.75.15625h11.98c.4294 0 .82289-.14728 1.1582-.40625 1.3413-.77391 2.0726-2.6175 1.6562-4.4043-.30729-1.3208-1.1675-2.29-2.1895-2.625-.009-.044.01001-.08101 0-.125-.46544-1.9998-2.1931-3.1557-3.8477-2.5937-.3173.10799-.60875.25477-.875.46875-.91147-1.4802-2.3947-2.3527-3.9414-2.3125h-.0019zm1.9727 3.998 3 3h-2v3h-2v-3h-2z" fill="#444"/>
</svg>
