<svg height="24" width="24" xmlns="http://www.w3.org/2000/svg">
  <path d="m10.751953 4.0371094c-2.7627799.10144-5.3086999 1.80458-6.3124999 4.5625-1.26383 3.4723396.36867 7.3245696 3.6875 8.8124996-.0932-.33746-.14688-.70692-.125-1.0625.0277-1.00125.58397-1.88737 1.375-2.46875-1.56688-1.73319-2.13559-4.2464596-1.28125-6.5937496.51416-1.41265 1.47444-2.50836 2.6562499-3.25zm3.25 7.9687496c-1.31168 0-2.40482.85843-2.8125 2.03125-1.2308299.15597-2.1874999 1.19557-2.1874999 2.46875 0 1.38071 1.1192899 2.5 2.4999999 2.5h5.5c1.10457 0 2-.89543 2-2s-.89543-2-2-2c0-1.65685-1.34315-3-3-3z" fill="#444" transform="translate(.99967 1.00014)"/>
</svg>
