<svg height="24" width="24" xmlns="http://www.w3.org/2000/svg">
  <path d="m12 4.00336c-2.07107 0-3.83471 1.26792-4.59375 3.0625-1.92783.2866-3.40625 1.92992-3.40625 3.9375 0 1.933 1.36477 3.53327 3.1875 3.90625.76412-.77854 1.52122-1.56145 2.3125-2.3125.57304.53801 1.13306 1.09923 1.6875 1.65625.24292-.069.38252-.84617.71875-1.09375.85427-.86808 1.70924-1.72483 2.59375-2.5625.66629.62449 1.29148 1.26106 1.9375 1.90625.59794.57143 1.22758 1.20365 1.4375 2.03125.016.0511.018.10465.0312.15625 1.23525-.54049 2.0938-1.75295 2.0938-3.1875 0-1.79654-1.35079-3.2687-3.09375-3.46875-.45457-2.29339-2.47938-4.03125-4.90625-4.03125zm2.5 9.4375c-.0852.0828-.1647.1673-.25.25-.39699.41584-.89926.78359-1.125 1.3125h2.78125c-.0262-.0614-.0565-.12918-.0937-.1875-.3731-.51309-.87897-.91335-1.3125-1.375z" fill="#444"/>
  <path d="m14.5002 12-.34375.34375-1.40625 1.40625c-.45315.45315-.75 1.0626-.75 1.75 0 1.37479 1.12521 2.5 2.5 2.5s2.5-1.12521 2.5-2.5c0-.6874-.29685-1.29685-.75-1.75l-1.40625-1.40625zm-5 2-.34375.34375-1.40625 1.40625c-.45315.45315-.75 1.0626-.75 1.75 0 1.37479 1.12521 2.5 2.5 2.5s2.5-1.12521 2.5-2.5c0-.6874-.29685-1.29685-.75-1.75l-1.40625-1.40625z" fill="#4285f4"/>
</svg>
