<svg height="24" width="24" xmlns="http://www.w3.org/2000/svg">
  <path d="m12 4.0031c-2.07107 0-3.83471 1.26792-4.59375 3.0625-1.92783.2866-3.40625 1.92992-3.40625 3.9375 0 2.20914 1.79086 4 4 4h2v-2.5c0-.831.669-1.5 1.5-1.5s1.5.669 1.5 1.5v2.5h3.5c1.933 0 3.5-1.567 3.5-3.5 0-1.79654-1.35079-3.2687-3.09375-3.46875-.45457-2.29339-2.47938-4.03125-4.90625-4.03125z" fill="#444"/>
  <path d="m11.34397 12.0001c-.20652.0677-.35453.28294-.34375.5v3.78089c-.0134.0301-.0239.0615-.0312.0937l-.625.625h-.0312-1.8125-.21875l-.125.15625-1 1c-.25698.15718-.30568.56716-.0927.78017.21301.21301.62299.16431.78017-.0927l.84365-.8437h1.3125v1.5c-.004.26416.23582.50712.5.50712s.50374-.24296.5-.50712v-1.8125l.6875-.6875h2.125l.75.75-1.40625 1.40625c-.25698.15718-.30568.56716-.0927.78017.21301.21301.62299.16431.78017-.0927l1.40625-1.40625 1.40625 1.40625c.15718.25698.56716.30568.78017.0927.21301-.21301.16431-.62299-.0927-.78017l-3-3-.125-.15625h-.21875-2v-3.49964c.005-.29617-.30279-.55555-.59375-.5-.0208-.001-.0417-.001-.0625 0z" fill="#4285f4"/>
</svg>
