<svg height="24" width="24" xmlns="http://www.w3.org/2000/svg">
  <g fill="#4285f4">
    <path d="m12 3.9999897c-.1926 0-.383066.010178-.572266.023437-.0237.00175-.04651.00194-.07031.00391-2.8577999.2255199-5.2791531 1.9428-6.5019532 4.375-.079116.1574498-.1596856.3152656-.2285157.4785156-.37451.8457004-.5782944 1.7420417-.6152343 2.6816407-.00162.03035-.00262.06135-.00391.0918-.00247.08976-.00646.179011-.00586.269531-.0002298.025384-.0019508.050726-.0019508.076166 0 .93022.1657181 1.819336.4550781 2.648438.11645.371679.2502294.746683.4121094 1.126953.013811.03244.020209.05115.033203.08203.5607141-.54953 1.3145076-.857359 2.0996095-.857421 1.6568542 0 3 1.343146 3 3-.00091.579832-.1698321 1.146976-.4863281 1.632812.0926.02774.1584022.04387.2675781.07813.52453.1646 1.121575.252873 1.796875.277343.02825.0014.05761.0028.08594.0039.0924.003.181844.0078.277344.0078.0078 0 .01373.000057.02149 0 .01231.000055.02478 0 .03711 0 .22339 0 .443449-.01152.662109-.0293 1.9778-.14065 3.566394-.871468 4.996094-2.298828 1.178-1.176 1.908766-2.627283 2.197266-4.146484.02658-.13883.04706-.280545.06641-.421875.0117-.08676.02438-.172726.0332-.259766.01939-.18667.03067-.376056.03711-.566406.0014-.04797.0034-.09459.0039-.142578.00069-.044672.003902-.089899.003902-.134748 0-4.3580008-3.450397-7.8778409-7.779297-7.9941409-.0336-.0015-.06786-.00142-.101562-.00195-.04-.000586-.07904-.00391-.119141-.00391zm-2.5 4c.828427 0 1.5.6715729 1.5 1.5 0 .5 0 1.5000003-1 1.5000003 0 1 2.031563 2.945724 3 3 0-1 1-1 1.5-1 .828427 0 1.5.671573 1.5 1.5s-.671573 1.5-1.5 1.5h-.560547c-.296314-.006492-.641709-.115949-1.126953-.292969-1.622947-.59206-2.749657-1.542498-3.9042969-3.292969-.6725949-1.019683-.9046031-1.633337-.9082031-2.396484v-.5175783c0-.8284271.6715729-1.5 1.5-1.5z"/>
    <circle cx="7" cy="18" r="2"/>
  </g>
</svg>
