<svg height="24" width="24" xmlns="http://www.w3.org/2000/svg">
  <g transform="translate(1 1)">
    <path d="m11 3c-.19263 0-.38312.010178-.57227.023437-.02374.00175-.04659.00193-.07031.00391-2.8574.2256-5.2788 1.9429-6.5015 4.375-.0791.1575-.1597.3153-.2285.4786-.3746.8457-.5783 1.742-.6153 2.6811-.00162.03035-.00262.06135-.00391.0918-.00247.08976-.00646.17901-.00586.26953-.0002.026-.0019.052-.0019.077 0 .93022.16572 1.8193.45508 2.6484.0674.21512.15718.43462.23828.65234a3 3 0 0 1 1.3066-.301 3 3 0 0 1 3 3 3 3 0 0 1 -.375 1.451c.3187.01318.62772.09391 1.1562.25977.52453.1646 1.1215.25287 1.7969.27734.02825.0014.05761.0028.08594.0039.09243.0026.18187.0078.27734.0078.0078 0 .01373.000057.02149 0 .01231.000055.02478 0 .03711 0 .22339 0 .44345-.01152.66211-.0293 1.9778-.14065 3.5664-.87147 4.9961-2.2988 1.178-1.176 1.9088-2.6293 2.1973-4.1484.02658-.13884.04706-.27859.06641-.41992.0117-.08676.02438-.17272.0332-.25977.01939-.18667.03067-.37606.03711-.56641.0014-.04797.0034-.09654.0039-.14453.002-.045.005-.088.005-.133 0-4.358-3.45-7.8778-7.779-7.9941-.034-.001-.068-.0015-.102-.002-.04-.0006-.079-.0039-.119-.0039zm-5 6a2 2 0 0 1 2 2 2 2 0 0 1 -2 2 2 2 0 0 1 -2-2 2 2 0 0 1 2-2zm5 0a2 2 0 0 1 2 2 2 2 0 0 1 -2 2 2 2 0 0 1 -2-2 2 2 0 0 1 2-2zm5 0a2 2 0 0 1 2 2 2 2 0 0 1 -2 2 2 2 0 0 1 -2-2 2 2 0 0 1 2-2z" fill="#444"/>
    <circle cx="5" cy="17" fill="#4285f4" r="2"/>
  </g>
</svg>
