<svg height="24" width="24" xmlns="http://www.w3.org/2000/svg">
  <path d="m10.304417 5.0003447c-.230746.00494-.4126398.0746138-.4765628.0742188-1.4770871.2052346-.5341324 1.7538652.0917969 3.6738281.0534399.4914691-1.4623612.2861931-1.7988281-.2285157-1.134785-2.74638-1.4375073-2.4396683-1.7539063-2.5195312-.303068-.061806-1.3554172.4671249-1.3320313 1.578125.004.3191549.2059804 2.123008.2089844 2.5898443-1.330373 2.259637-1.8725651 4.496298-.2050781 6.808593 1.1948705 1.565703 4.0672336 2.055165 5.9511723 2.021485 4.009316.0016 5.958765-2.177086 8.255859-3.955078 1.754507-1.434871-.04494-3.242043-.46875-3.494141-3.635092-2.3510803-6.691215-1.8615133-6.740235-2.2343753-.02571-.4309688-.0097-1.6290585-.07226-2.0546874-.246729-1.980671-1.152525-2.2716224-1.660161-2.2597656zm7.595703 0c-.744634.115666-1.110105 4.333154-.777344 4.970703 1.142277-.717973.923403-3.9026456.777344-4.970703zm2.9375.9785156c-2.357948 3.0996934-1.799057 2.5203743-2.388672 5.0078127.224955.3078 3.275786-4.6403782 2.388672-5.0078127zm-8.837891 5.0214847a1 1 0 0 1 1 1 1 1 0 0 1 -1 1 1 1 0 0 1 -1-1 1 1 0 0 1 1-1z" fill="#444"/>
</svg>
