<svg height="24" width="24" xmlns="http://www.w3.org/2000/svg">
  <g fill="#444">
    <path d="m11.091818 6.0465709c-3.5555563 0-2.7283823 3.24817-4.5488292 4.2265631-.062744.0356-.098024.06839-.1542969.103515 1.2005478-.7145891 2.6803078-1.3120671 4.2519531-1.7167971 1.330908-.342378 2.68084-.534458 3.925781-.558593.03199-.000114.0639-.000114.0957 0-1.20058-.3411657-1.331857-2.054688-3.570308-2.054688z"/>
    <path d="m14.966817 9.0016489c-1.244941.02414-2.594873.216215-3.925781.558594-4.3864736 1.1287611-7.5126422 3.5833481-6.9824223 5.4824211.3055214 1.085203 1.7775692 1.801316 3.970703 1.931641-.001-.0082-.003-.01523-.0039-.02344-.118387-1.026756.533079-1.919941 1.296875-2.525392.7637963-.605453 1.7462703-1.045085 2.8496103-1.279297 1.10334-.234211 2.136414-.222891 2.999999.03711.811893.244438 1.575746.777805 1.763672 1.69336 2.198075-1.232334 3.338167-2.718164 3.007816-3.919918-.349958-1.2581971-2.258558-2.0080041-4.976562-1.9550791z"/>
    <path d="m13.66213 13.999695a1.8585774 3.5769585 76.001371 0 0 -1.376953.142578 1.8585774 3.5769585 76.001371 0 0 -3.2792973 2.599611 1.8585774 3.5769585 76.001371 0 0 3.7089843 1.115234 1.8585774 3.5769585 76.001371 0 0 3.277344-2.599611 1.8585774 3.5769585 76.001371 0 0 -2.330078-1.257812z" opacity=".3"/>
  </g>
</svg>
