<svg xmlns="http://www.w3.org/2000/svg" width="16" height="16" version="1.1">
 <title id="title9167">
  Gnome Symbolic Icon Theme
 </title>
 <g id="layer13" transform="translate(379 -515)">
  <path d="m-378.47 516c-0.28913 0-0.53125 0.24212-0.53125 0.53125v13.938c0 0.2985 0.23264 0.5312 0.53125 0.5312h14.938c0.2986 0 0.53125-0.2326 0.53125-0.5312v-8.9376c0-0.2891-0.24212-0.5312-0.53125-0.5312h-12.469v7.5c0 0.277-0.223 0.5-0.5 0.5s-0.5-0.223-0.5-0.5v-8c0-0.277 0.223-0.5 0.5-0.5h2.9688 8.5312v-1.4062c0-0.3272-0.26666-0.5938-0.59375-0.5938h-7.4062v-1.4688c0-0.28915-0.24212-0.53125-0.53125-0.53125z" style="fill:#e6ddff"/>
 </g>
</svg>
