<?xml version="1.0" encoding="UTF-8" standalone="no"?>
<svg
   xmlns:dc="http://purl.org/dc/elements/1.1/"
   xmlns:cc="http://creativecommons.org/ns#"
   xmlns:rdf="http://www.w3.org/1999/02/22-rdf-syntax-ns#"
   xmlns:svg="http://www.w3.org/2000/svg"
   xmlns="http://www.w3.org/2000/svg"
   xmlns:xlink="http://www.w3.org/1999/xlink"
   xmlns:sodipodi="http://sodipodi.sourceforge.net/DTD/sodipodi-0.dtd"
   xmlns:inkscape="http://www.inkscape.org/namespaces/inkscape"
   viewBox="0 0 128 128"
   version="1.0"
   id="svg30"
   sodipodi:docname="2.svg"
   inkscape:version="0.92.3 (2405546, 2018-03-11)">
  <metadata
     id="metadata36">
    <rdf:RDF>
      <cc:Work
         rdf:about="">
        <dc:format>image/svg+xml</dc:format>
        <dc:type
           rdf:resource="http://purl.org/dc/dcmitype/StillImage" />
        <dc:title></dc:title>
      </cc:Work>
    </rdf:RDF>
  </metadata>
  <defs
     id="defs34">
    <clipPath
       id="clipPath1024"
       clipPathUnits="userSpaceOnUse">
      <rect
         style="opacity:0.1;fill:#3584e4;fill-opacity:1;stroke:none;stroke-width:3.99999952;stroke-linecap:butt;stroke-linejoin:miter;stroke-miterlimit:4;stroke-dasharray:none;stroke-dashoffset:0;stroke-opacity:1"
         id="rect1026"
         width="112.5"
         height="114.375"
         x="7.7500019"
         y="179.75"
         ry="56.25" />
    </clipPath>
    <linearGradient
       gradientTransform="matrix(1.0475654,0,0,1.0475654,-21.677766,0.63431793)"
       gradientUnits="userSpaceOnUse"
       y2="188.05273"
       x2="91.947273"
       y1="224.05273"
       x1="127.94727"
       id="linearGradient978"
       xlink:href="#linearGradient976" />
    <linearGradient
       id="linearGradient976">
      <stop
         id="stop972"
         offset="0"
         style="stop-color:#241f31;stop-opacity:1" />
      <stop
         id="stop974"
         offset="1"
         style="stop-color:#3d3846;stop-opacity:1" />
    </linearGradient>
  </defs>
  <sodipodi:namedview
     pagecolor="#ffffff"
     bordercolor="#666666"
     borderopacity="1"
     objecttolerance="10"
     gridtolerance="10"
     guidetolerance="10"
     inkscape:pageopacity="0"
     inkscape:pageshadow="2"
     inkscape:window-width="1920"
     inkscape:window-height="1009"
     id="namedview32"
     showgrid="false"
     inkscape:zoom="1.84375"
     inkscape:cx="64"
     inkscape:cy="64"
     inkscape:window-x="0"
     inkscape:window-y="34"
     inkscape:window-maximized="1"
     inkscape:current-layer="svg30" />
  <g
     transform="translate(-0.91525475,-172.58473)"
     style="display:inline;enable-background:new"
     id="layer1">
    <g
       style="display:inline"
       id="layer9">
      <g
         clip-path="url(#clipPath1024)"
         style="stroke-width:0.9375"
         transform="matrix(1.0666667,0,0,1.0666667,-4.2666688,-15.733341)"
         id="g894">
        <path
           style="opacity:1;vector-effect:none;fill:#3584e4;fill-opacity:1;stroke:none;stroke-width:0.9375;stroke-linecap:round;stroke-linejoin:round;stroke-miterlimit:4;stroke-dasharray:none;stroke-dashoffset:0;stroke-opacity:1"
           id="path870"
           d="m 115.96152,206 a 60,60 0 0 1 0,60 L 64,236 Z"
           inkscape:connector-curvature="0" />
        <path
           d="M 115.96152,266 A 60,60 0 0 1 64.000002,296 L 64,236 Z"
           id="path873"
           style="opacity:1;vector-effect:none;fill:#a347ba;fill-opacity:1;stroke:none;stroke-width:0.9375;stroke-linecap:round;stroke-linejoin:round;stroke-miterlimit:4;stroke-dasharray:none;stroke-dashoffset:0;stroke-opacity:1"
           inkscape:connector-curvature="0" />
        <path
           d="m 64.000001,176 a 60,60 0 0 1 51.961519,30 L 64,236 Z"
           id="path875"
           style="opacity:1;vector-effect:none;fill:#33d17a;fill-opacity:1;stroke:none;stroke-width:0.9375;stroke-linecap:round;stroke-linejoin:round;stroke-miterlimit:4;stroke-dasharray:none;stroke-dashoffset:0;stroke-opacity:1"
           inkscape:connector-curvature="0" />
        <path
           style="opacity:1;vector-effect:none;fill:#f6d32d;fill-opacity:1;stroke:none;stroke-width:0.9375;stroke-linecap:round;stroke-linejoin:round;stroke-miterlimit:4;stroke-dasharray:none;stroke-dashoffset:0;stroke-opacity:1"
           id="path877"
           d="M 12.038475,206 A 60,60 0 0 1 64.000001,176 L 64,236 Z"
           inkscape:connector-curvature="0" />
        <path
           d="m 12.038475,266 a 60,60 0 0 1 0,-60 L 64,236 Z"
           id="path879"
           style="opacity:1;vector-effect:none;fill:#ff7800;fill-opacity:1;stroke:none;stroke-width:0.9375;stroke-linecap:round;stroke-linejoin:round;stroke-miterlimit:4;stroke-dasharray:none;stroke-dashoffset:0;stroke-opacity:1"
           inkscape:connector-curvature="0" />
        <path
           style="opacity:1;vector-effect:none;fill:#ed333b;fill-opacity:1;stroke:none;stroke-width:0.9375;stroke-linecap:round;stroke-linejoin:round;stroke-miterlimit:4;stroke-dasharray:none;stroke-dashoffset:0;stroke-opacity:1"
           id="path995"
           d="M 64.000002,296 A 60,60 0 0 1 12.038475,266 L 64,236 Z"
           inkscape:connector-curvature="0" />
      </g>
      <path
         id="circle990"
         d="M 4.0488281,236.99414 A 60,60 0 0 0 4,238 60,60 0 0 0 64,298 60,60 0 0 0 124,238 60,60 0 0 0 123.9648,236.99414 60,60 0 0 1 64,296 60,60 0 0 1 4.0488281,236.99414 Z"
         style="opacity:0.2;vector-effect:none;fill:#000000;fill-opacity:1;stroke:none;stroke-width:1;stroke-linecap:round;stroke-linejoin:round;stroke-miterlimit:4;stroke-dasharray:none;stroke-dashoffset:0;stroke-opacity:1"
         inkscape:connector-curvature="0" />
      <path
         id="path1002"
         d="m 114.5625,186 c -2.51975,0.003 -4.93389,1.01445 -6.70312,2.80859 l -0.004,-0.006 -9.699224,9.69922 -6.060547,-6.0625 c -1.41421,-1.41421 -2.830078,0 -2.830078,0 l -4.488281,4.48828 c 0,0 -1.414209,1.41392 0,2.82813 l 6.734375,6.73242 L 56,242 c -3,4.5 -1.5,9 -6,13.5 l 4.5,4.5 c 4.5,-4.5 10.583185,-2.95061 13.5,-6 l 35.51172,-35.51172 6.72266,6.72266 c 1.41422,1.41422 2.82812,0 2.82812,0 l 4.48828,-4.48828 c 1.41421,-1.41421 0,-2.82813 0,-2.82813 l -6.0625,-6.0625 9.64258,-9.64258 0.0547,-0.0547 c 1.79391,-1.77037 2.80356,-4.18667 2.80468,-6.70704 0,-5.20699 -4.22075,-9.42774 -9.42773,-9.42773 z"
         style="opacity:0.1;vector-effect:none;fill:#000000;fill-opacity:1;stroke:none;stroke-width:9.36737061;stroke-linecap:round;stroke-linejoin:miter;stroke-miterlimit:4;stroke-dasharray:none;stroke-dashoffset:0;stroke-opacity:1;marker:none;marker-start:none;marker-mid:none;marker-end:none;paint-order:normal"
         inkscape:connector-curvature="0" />
      <g
         transform="matrix(0.75,0,0,0.75,30.5,45)"
         id="g1000">
        <path
           style="opacity:0.6;vector-effect:none;fill:#ffffff;fill-opacity:1;stroke:none;stroke-width:12.48982716;stroke-linecap:round;stroke-linejoin:miter;stroke-miterlimit:4;stroke-dasharray:none;stroke-dashoffset:0;stroke-opacity:1;marker:none;marker-start:none;marker-mid:none;marker-end:none;paint-order:normal"
           d="M 83.94727,210.05273 34,260 c -4,6 -2,12 -8,18 l 6,6 c 6,-6 14.110913,-3.93414 18,-8 l 49.94727,-49.94727 z"
           id="path1038"
           inkscape:connector-curvature="0" />
        <path
           style="opacity:0.6;fill:none;fill-rule:evenodd;stroke:#ffffff;stroke-width:8;stroke-linecap:round;stroke-linejoin:miter;stroke-miterlimit:4;stroke-dasharray:none;stroke-opacity:1"
           d="M 38,262 84,216"
           id="path964"
           inkscape:connector-curvature="0" />
        <path
           id="path994"
           d="m 38,258.8839 46,-46"
           style="opacity:0.6;fill:none;fill-rule:evenodd;stroke:#ffffff;stroke-width:4;stroke-linecap:round;stroke-linejoin:miter;stroke-miterlimit:4;stroke-dasharray:none;stroke-opacity:1"
           inkscape:connector-curvature="0" />
        <path
           style="color:#000000;font-style:normal;font-variant:normal;font-weight:normal;font-stretch:normal;font-size:medium;line-height:normal;font-family:sans-serif;font-variant-ligatures:normal;font-variant-position:normal;font-variant-caps:normal;font-variant-numeric:normal;font-variant-alternates:normal;font-feature-settings:normal;text-indent:0;text-align:start;text-decoration:none;text-decoration-line:none;text-decoration-style:solid;text-decoration-color:#000000;letter-spacing:normal;word-spacing:normal;text-transform:none;writing-mode:lr-tb;direction:ltr;text-orientation:mixed;dominant-baseline:auto;baseline-shift:baseline;text-anchor:start;white-space:normal;shape-padding:0;clip-rule:nonzero;display:inline;overflow:visible;visibility:visible;opacity:1;isolation:auto;mix-blend-mode:normal;color-interpolation:sRGB;color-interpolation-filters:linearRGB;solid-color:#000000;solid-opacity:1;vector-effect:none;fill:url(#linearGradient978);fill-opacity:1;fill-rule:evenodd;stroke:none;stroke-width:16;stroke-linecap:butt;stroke-linejoin:miter;stroke-miterlimit:4;stroke-dasharray:none;stroke-dashoffset:0;stroke-opacity:1;color-rendering:auto;image-rendering:auto;shape-rendering:auto;text-rendering:auto;enable-background:accumulate"
           d="m 112.08327,185.33317 c -3.35967,0.004 -6.57806,1.35205 -8.93704,3.74423 l -0.006,-0.006 -12.930918,12.93088 -8.082889,-8.0829 c -1.885613,-1.88562 -3.771233,1e-5 -3.771233,1e-5 l -5.984226,5.98421 c 0,0 -1.885618,1.88561 -5e-6,3.77123 l 33.941151,33.94112 c 1.88562,1.88562 3.77124,1e-5 3.77124,1e-5 l 5.98422,-5.98422 c 1.88562,-1.88562 0,-3.77124 0,-3.77124 l -8.08262,-8.08261 12.85723,-12.85723 0.0736,-0.0736 -0.002,-0.002 c 2.39188,-2.36049 3.73885,-5.58046 3.74034,-8.94095 0,-6.94266 -5.62813,-12.57079 -12.57078,-12.57078 z"
           id="path966"
           inkscape:connector-curvature="0" />
      </g>
    </g>
  </g>
</svg>
