<svg height="256" viewBox="0 0 67.73 67.73" width="256" xmlns="http://www.w3.org/2000/svg" xmlns:xlink="http://www.w3.org/1999/xlink">
  <filter id="filter16020-3" color-interpolation-filters="sRGB" height="1.021433" width="1.027265" x="-.013633" y="-.010717">
    <feGaussianBlur stdDeviation="2.0004419"/>
  </filter>
  <g enable-background="new" stroke-width=".25" transform="matrix(.13297834 0 0 .13297834 .605824 28.61487660106)">
    <path d="m111.82842-178.55025h200l120.17158 119.671571.005 296.240039c.00031 17.728-14.44878 32.08839-32.17678 32.08839h-288c-17.72799 0-31.999992-14.272-31.999992-32v-384c0-17.728 14.272002-32 31.999992-32z" filter="url(#filter16020-3)" opacity=".4"/>
    <path d="m111.82842-179.67158h200l120.17158 119.67158.005 296.24003c.00031 17.728-14.44878 32.08839-32.17678 32.08839h-288c-17.727992 0-31.999992-14.272-31.999992-32v-384c0-17.728 14.272-32 31.999992-32z" fill="#2d70d1"/>
    <path d="m311.82842-175.69243v88.000007c0 17.728 14.44211 31.693795 32.17011 31.693795l88.00147-.022223v-3.979149z" opacity=".25"/>
    <path d="m311.82842-179.67158v88.000008c0 17.728 14.44211 31.693795 32.17011 31.693795l88.00147-.022223z" fill="#09469f"/>
    <g enable-background="new" fill="#fff" stroke="#fff" transform="matrix(7.52002168673 0 0 7.52002168673 -568.10308454057 -1976.42879305626)">
      <path d="m110.77602 253.90027c-5.16086.91906-10.32475 2.13849-15.485605 3.04072 0 7.85069-.0034 15.70475 0 23.55881 5.133925.89886 10.271045 2.09792 15.394865 3.03381h1.53769v-29.63334zm-1.99624 9.5985-2.37765 9.98067-1.95157-.15386c-.44774-2.22863-.96933-4.44383-1.36994-6.68255-.39389 2.17476-.90602 4.32942-1.35713 6.49072-.64637-.0337-1.2957-.0741-1.945438-.11787-.558839-2.96252-1.215525-5.9048-1.737336-8.87406.575673-.0269 1.154761-.0503 1.730433-.0705.346751 2.14446.740501 4.27878 1.043481 6.42661.47468-2.2017.95979-4.40344 1.4311-6.60513.63963-.037 1.27917-.064 1.91881-.0976.44774 2.27239.90539 4.54107 1.39016 6.80337.38042-2.33636.80134-4.66566 1.20869-6.99865.6733-.0236 1.34652-.0607 2.01645-.1011z"/>
      <path d="m113.2813 258.13361h10.58334v21.16667h-10.58334v-2.11667h8.46667v-1.05833h-8.46667v-2.11667h8.46667v-1.05833h-8.46667v-2.11667h8.46667v-1.05833h-8.46667v-2.11667h8.46667v-1.05833h-8.46667v-2.11296h8.46667v-1.06204h-8.46667v-2.11667h8.46667v-1.05834h-8.46667z"/>
    </g>
  </g>
</svg>
