<svg enable-background="new" height="128" viewBox="0 0 128 128" width="128" xmlns="http://www.w3.org/2000/svg" xmlns:xlink="http://www.w3.org/1999/xlink">
  <linearGradient id="linearGradient1329" gradientUnits="userSpaceOnUse" x1="11.823" x2="115.82" y1="268" y2="268">
    <stop offset="0" stop-color="#986a44"/>
    <stop offset=".028846" stop-color="#cdab8f"/>
    <stop offset=".057692" stop-color="#b5835a"/>
    <stop offset=".94231" stop-color="#b5835a"/>
    <stop offset=".97133" stop-color="#cdab8f"/>
    <stop offset="1" stop-color="#986a44"/>
  </linearGradient>
  <linearGradient id="linearGradient1610" gradientUnits="userSpaceOnUse" x1="70.586" x2="60" y1="223.255" y2="193">
    <stop offset="0" stop-color="#fff"/>
    <stop offset="1" stop-color="#deddda"/>
  </linearGradient>
  <linearGradient id="linearGradient1612" gradientUnits="userSpaceOnUse" x1="60" x2="68" y1="268" y2="268">
    <stop offset="0" stop-color="#949390"/>
    <stop offset=".083333" stop-color="#d5d3cf"/>
    <stop offset=".16667" stop-color="#949390"/>
    <stop offset=".83333" stop-color="#949390"/>
    <stop offset=".91667" stop-color="#d5d3cf"/>
    <stop offset="1" stop-color="#949390"/>
  </linearGradient>
  <g enable-background="new" transform="translate(.17678 -172)">
    <rect fill="url(#linearGradient1329)" height="76" rx="8" width="104" x="12" y="212"/>
    <rect height="68" opacity=".1" rx="8" width="104" x="12" y="186"/>
    <rect fill="#cdab8f" height="68" rx="8" width="104" x="12" y="184"/>
    <path d="m62 192h2v60h-2z" fill="#cdab8f"/>
    <path d="m64-252h2v60h-2z" fill="#eadcd0" transform="scale(1 -1)"/>
    <g enable-background="new" transform="translate(0 17)">
      <path d="m60 178v4h4v-2h4v-2h-4zm4 4v2h-4v4h4v-2h4v-4zm0 6v2h-4v4h4v-2h4v-4zm0 6v2h-4v4h4v-2h4v-2-2zm0 6v2h-4v4h4v-2h4v-4zm0 6v2h-4v4h4v-2h4v-4zm0 6v2h-4v4h4v-2h4v-2-2zm0 6v2h-4v4h4v-2h4v-4zm0 6v2h-4v4h4v-2h4v-4zm0 6v2h-4v4h4v-2h4v-2-2z" fill="url(#linearGradient1610)"/>
      <path d="m64 179v1h4v-1zm-4 2v1h4v-1zm4 4v1h4v-1zm-4 2v1h4v-1zm4 4v1h4v-1zm-4 2v1h4v-1zm4 4v1h4v-1zm-4 2v1h4v-1zm4 4v1h4v-1zm-4 2v1h4v-1zm4 4v1h4v-1zm-4 2v1h4v-1zm4 4v1h4v-1zm-4 2v1h4v-1zm4 4v1h4v-1zm-4 2v1h4v-1zm4 4v1h4v-1zm-4 2v1h4v-1zm4 4v1h4v-1zm-4 2v1h4v-1z" fill="#241f31" opacity=".4"/>
    </g>
    <path d="m60 186c-2.216 0-4 1.784-4 4v10c0 2.216 1.784 4 4 4v8c0 1.108.892 2 2 2h4c1.108 0 2-.892 2-2v-8c2.216 0 4-1.784 4-4v-10c0-2.216-1.784-4-4-4zm2 22h4v4h-4z" opacity=".1"/>
    <g enable-background="new" transform="translate(0 -66)">
      <path d="m62 258c-1.108 0-2 .892-2 2v16c0 1.108.892 2 2 2h4c1.108 0 2-.892 2-2v-16c0-1.108-.892-2-2-2zm0 14h4v4h-4z" fill="url(#linearGradient1612)"/>
      <rect fill="#3d3846" height="18" rx="4" width="16" x="56" y="250"/>
      <rect fill="#5e5c64" height="18" rx="4" width="16" x="56" y="248"/>
      <path d="m62 254c-1.108 0-2 .892-2 2v18c0 1.108.892 2 2 2h4c1.108 0 2-.892 2-2v-18c0-1.108-.892-2-2-2zm0 16h4v4h-4z" fill="#fff"/>
      <g transform="scale(1 -1)">
        <rect fill="#68676b" height="10" rx="2" width="4" x="62" y="-260"/>
        <rect fill="#949390" height="8" rx="2" width="4" x="62" y="-258"/>
      </g>
    </g>
    <g fill="#fff" transform="translate(-.17678 172)">
      <path d="m16.178 13.072c-.7547.43517-1.4278.98966-2 1.6387v62.578c.57218.64901 1.2453 1.2035 2 1.6387z" opacity=".1"/>
      <path d="m112.18 13.072v65.855c.75493-.43551 1.4278-.99114 2-1.6406v-62.574c-.57219-.64949-1.2451-1.2051-2-1.6406z" opacity=".1"/>
    </g>
  </g>
  <path d="m50.45678 104h-1.88l-2.06-14.000001h2.14l1.1 8.339994q.02.07994.0504.280005.0296.200005.0496.370401l.04001.329594q.03999-.25999.2-.999991l1.68-8.320003h1.279999l1.700001 8.279997.2.98q.02-.199993.08-.559998.06-.360005.06-.399999l.96-8.3h2.26l-2.080004 14.000001h-1.880001l-1.78-8.560002q-.12-.62-.18-1.02-.02.18-.08959.529601-.07041.350399-.0904.4704zm19.979999 0h-2.56l-.919999-3.08h-4.440001l-.92 3.08h-2.559999l4.579999-14.000001h2.240001zm-6.04-9.400002-1.24 4.159997h3.16l-1.239999-4.159997q-.200001-.639999-.340001-1.559999-.239999 1.22-.34 1.559999zm17.44-.359999q0 1.359999-.7296 2.459999-.7304 1.099999-2.1104 1.559995l2.82 5.740007h-2.64l-2.72-5.480005h-1.66v5.480005h-2.379998v-14.000001h4.839999q1.24 0 2.159999.350399.92.3496 1.429601.96.5104.609601.7504 1.3392.24.7304.239999 1.590401zm-4.54-2.000001h-2.5v4.040001h2.5q1.119999 0 1.6104-.570401.4896-.569599.4896-1.449599 0-.840001-.48-1.4296-.48-.590401-1.62-.590401z" fill="#fff" fill-rule="evenodd"/>
</svg>
