<svg height="256" viewBox="0 0 67.73 67.73" width="256" xmlns="http://www.w3.org/2000/svg" xmlns:xlink="http://www.w3.org/1999/xlink">
  <filter id="filter16020-3" color-interpolation-filters="sRGB" height="1.021433" width="1.027265" x="-.013633" y="-.010717">
    <feGaussianBlur stdDeviation="2.0004419"/>
  </filter>
  <g enable-background="new" stroke-width=".25" transform="matrix(.13297834 0 0 .13297834 .605824 28.614877)">
    <g enable-background="new" stroke-width=".25" transform="translate(0 -.000003)">
      <path d="m111.82842-178.55025h200l120.17158 119.671571.005 296.240039c.00031 17.728-14.44878 32.08839-32.17678 32.08839h-288c-17.72799 0-31.999992-14.272-31.999992-32v-384c0-17.728 14.272002-32 31.999992-32z" filter="url(#filter16020-3)" opacity=".4"/>
      <path d="m111.82842-179.67158h200l120.17158 119.67158.005 296.24003c.00031 17.728-14.44878 32.08839-32.17678 32.08839h-288c-17.727992 0-31.999992-14.272-31.999992-32v-384c0-17.728 14.272-32 31.999992-32z" fill="#f6f5f4"/>
      <path d="m311.82842-175.69243v88.000007c0 17.728 14.44211 31.693795 32.17011 31.693795l88.00147-.022223v-3.979149z" opacity=".25"/>
      <path d="m311.82842-179.67158v88.000008c0 17.728 14.44211 31.693795 32.17011 31.693795l88.00147-.022223z" fill="#deddda"/>
    </g>
    <path d="m125.60547 80.539062a10.191617 10.604791 0 0 0 -10.19141 10.605469 10.191617 10.604791 0 0 0 10.19141 10.603519 10.191617 10.604791 0 0 0 10.19141-10.603519 10.191617 10.604791 0 0 0 -10.19141-10.605469zm52.33398 26.167968a10.191617 10.604791 0 0 0 -10.1914 10.60352 10.191617 10.604791 0 0 0 10.1914 10.60547 10.191617 10.604791 0 0 0 10.19141-10.60547 10.191617 10.604791 0 0 0 -10.19141-10.60352zm-93.927731 7.4375a10.191617 10.604791 0 0 0 -10.191407 10.60352 10.191617 10.604791 0 0 0 10.191407 10.60547 10.191617 10.604791 0 0 0 10.191406-10.60547 10.191617 10.604791 0 0 0 -10.191406-10.60352zm71.341801 38.5625a10.191617 10.604791 0 0 0 -10.19141 10.60352 10.191617 10.604791 0 0 0 10.19141 10.60547 10.191617 10.604791 0 0 0 10.1914-10.60547 10.191617 10.604791 0 0 0 -10.1914-10.60352zm-52.61133 7.98828a10.191617 10.604791 0 0 0 -10.191409 10.60352 10.191617 10.604791 0 0 0 10.191409 10.60547 10.191617 10.604791 0 0 0 10.1914-10.60547 10.191617 10.604791 0 0 0 -10.1914-10.60352z" fill="#99f" transform="matrix(1.9895745 0 0 1.9895745 -4.555812 -215.1845)"/>
    <path d="m244.73521-61.076041c-14.37667 0-26.11317 11.97286-26.11317 26.638014 0 .687.15718 1.33302.20095 2.01146-19.36195 9.64387-36.28964 23.94393-48.3401 41.21941-2.49194-.80379-5.08197-1.36883-7.82758-1.36883-14.37607 0-26.11317 11.97326-26.11317 26.63841 0 10.76957 6.35033 20.040989 15.39931 24.235012-2.02081 24.52946 6.55067 46.213845 22.45951 61.702675-.36668 1.7747-.5525 3.58323-.55429 5.39573 0 14.66714 11.73709 26.63841 26.11316 26.63841 7.92647 0 14.9994-3.70657 19.76045-9.42262 5.48327 1.00473 11.12372 1.72098 17.0626 1.79658 18.45131.25268 36.73152-4.16219 53.39222-11.9653 4.22387 2.84509 9.17393 4.36513 14.23541 4.3711 14.37865 0 26.11316-11.97326 26.11316-26.6404 0-2.13084-.32032-4.17015-.7819-6.15774 14.35478-15.069045 24.81397-33.343285 28.83689-53.352437.51331-2.54267.84159-5.0376 1.10421-7.52059 9.16199-4.14627 15.60822-13.48732 15.60822-24.33249 0-14.66516-11.7365-26.63842-26.11317-26.63842-.1711 0-.32828.0537-.49341.0597-14.3329-22.77943-40.83403-37.642354-73.61824-38.129404-2.2323-.0304-4.4467.18921-6.679.31097-4.14826-9.13951-13.17496-15.54793-23.66599-15.54793zm0 7.55222c2.4611-.008 4.89634.48009 7.17042 1.43648 2.27409.95638 4.33927 2.36222 6.08014 4.13632 1.73889 1.7741 3.11568 3.88146 4.05476 6.20091.93709 2.31944 1.41458 4.805224 1.40663 7.314274.008 2.50885-.46954 4.99463-1.40663 7.31407-.93908 2.31945-2.31587 4.42701-4.05476 6.20111-1.74087 1.7739-3.80605 3.17974-6.08014 4.13613-2.27408.95638-4.70932 1.44463-7.17042 1.43667-2.45912.008-4.89635-.48029-7.16844-1.43667-2.27409-.95639-4.34125-2.36223-6.08014-4.13613-1.73889-1.7741-3.11766-3.88166-4.05475-6.20111-.93709-2.31944-1.41658-4.80522-1.40862-7.31407-.008-2.50905.47153-4.994834 1.40862-7.314274.93709-2.31945 2.31586-4.42681 4.05475-6.20091s3.80605-3.17994 6.08014-4.13632c2.27209-.95639 4.70932-1.44463 7.16844-1.43648zm26.28626 27.809884c25.73315.35673 46.17603 11.31849 57.89661 27.99291-3.59317 4.56608-5.84139 10.27615-5.84139 16.56321 0 11.12769 6.7745 20.67168 16.32446 24.64287-.18702 2.33178-.50137 4.64765-.94505 6.94162-2.79336 13.861372-9.60367 26.821462-19.12975 37.919302-4.36115-3.1296-9.5619-4.81278-14.89396-4.81875-14.37666 0-26.11316 11.97326-26.11316 26.638425 0 2.28403.38796 4.45266.9152 6.56957-12.05682 4.87844-25.05272 7.71955-38.38486 7.53452-5.29028-.0756-10.25228-.76201-15.07103-1.71103-1.41061-13.33015-12.39306-23.815215-25.82508-23.815215-4.52767 0-8.73562 1.285265-12.45971 3.370345-10.43034-11.493775-15.92157-26.646375-15.16692-43.374715 9.60109-3.943341 16.43528-13.517172 16.43528-24.690622 0-4.99184-1.43886-9.62954-3.80506-13.63257 9.75886-15.14464 24.33985-27.77247 41.40244-35.97688 4.87446 4.95922 11.47786 7.74482 18.36179 7.74681 11.34853 0 20.95818-7.50985 24.53941-17.86936.58295-.009 1.1639-.0543 1.74685-.0456zm78.16839 25.46615001c2.4611-.008 4.89833.47949 7.17241 1.43647999 2.27409.95499 4.33927 2.36162 6.08014 4.13632 1.73889 1.7747 3.11767 3.88166 4.05476 6.2015.93709 2.31985 1.41657 4.80682 1.40862 7.31567.006 2.50885-.47153 4.99383-1.40862 7.31368-.93908 2.31984-2.31587 4.4268-4.05476 6.2015-1.73888 1.7747-3.80605 3.17934-6.08014 4.13632-2.27408.95699-4.70932 1.44444-7.16843 1.43648-2.46111.008-4.89833-.47949-7.17242-1.43648-2.27408-.95499-4.33926-2.36162-6.07815-4.13632-1.74088-1.77271-3.11766-3.88166-4.05674-6.2015-.93709-2.31786-1.41658-4.80483-1.40862-7.31368-.008-2.50885.47153-4.99582 1.40862-7.31567.93709-2.31984 2.31586-4.4268 4.05475-6.2015s3.80606-3.18133 6.08014-4.13632c2.27409-.95698999 4.71131-1.44443999 7.17242-1.43647999zm-186.526 15.22223999c2.45971-.008 4.89654.47948 7.17063 1.43647 2.27388.95699 4.33986 2.36162 6.07895 4.13633 1.73928 1.7747 3.11726 3.88165 4.05475 6.2015.93729 2.31984 1.41578 4.80681 1.40762 7.31566.008 2.50886-.47073 4.99384-1.40842 7.31368-.93748 2.31984-2.31546 4.4268-4.05455 6.2015-1.73929 1.77271-3.80506 3.17934-6.07895 4.13633-2.27388.954991-4.71052 1.444431-7.17003 1.436471-2.45951.008-4.89634-.48148-7.17003-1.436471-2.27388-.95699-4.33985-2.36362-6.07894-4.13633-1.73909-1.7747-3.11707-3.88166-4.05475-6.2015-.93749-2.31984-1.41618-4.80482-1.40823-7.31368-.008-2.50885.47074-4.99582 1.40823-7.31566.93768-2.31786 2.31566-4.4268 4.05475-6.19952 1.73909-1.7747 3.80506-3.18132 6.07894-4.13632 2.27369-.95699 4.71052-1.44443 7.17003-1.43647zm141.76057 76.111172c2.46111-.008 4.89635.48147 7.17043 1.43647 2.27408.95699 4.33926 2.36361 6.08014 4.13633 1.73889 1.7747 3.11567 3.881665 4.05475 6.201505.93709 2.31984 1.41459 4.80482 1.40663 7.31368.008 2.50885-.46954 4.99582-1.40663 7.31566-.93908 2.31785-2.31586 4.4268-4.05475 6.19951-1.74088 1.7747-3.80606 3.18133-6.08014 4.13633-2.27408.95699-4.70932 1.44443-7.17043 1.43647-2.45911.008-4.89634-.47948-7.16843-1.43647-2.27409-.955-4.34126-2.36163-6.08014-4.13633-1.73889-1.77271-3.11568-3.88166-4.05476-6.19951-.93709-2.31984-1.41657-4.80681-1.40862-7.31566-.008-2.50886.47153-4.99384 1.40862-7.31368.93908-2.31984 2.31587-4.426805 4.05476-6.201505 1.73888-1.77272 3.80605-3.17934 6.08014-4.13633 2.27209-.955 4.70932-1.44443 7.16843-1.43647zm-104.45604 15.222235c2.4605-.008 4.89574.47949 7.16983 1.43647 2.27408.955 4.34125 2.36163 6.08014 4.13633 1.73888 1.77271 3.11766 3.88166 4.05475 6.2015.93908 2.31786 1.41658 4.80483 1.40862 7.31368.008 2.50885-.46954 4.99582-1.40862 7.31566-.93709 2.31786-2.31587 4.42681-4.05475 6.19952-1.73889 1.7747-3.80606 3.18133-6.08014 4.13632-2.27409.95699-4.70933 1.44444-7.16983 1.43648-2.45952.008-4.89635-.47949-7.17003-1.43648-2.27389-.95698-4.33986-2.36162-6.07895-4.13632s-3.11706-3.88166-4.05475-6.2015c-.93749-2.31786-1.41618-4.80483-1.40822-7.31368-.008-2.50885.47073-4.99383 1.40822-7.31368.93769-2.31984 2.31566-4.4268 4.05475-6.2015s3.80506-3.17934 6.07895-4.13633c2.27368-.95698 4.71051-1.44443 7.17003-1.43647z" fill="#777" stroke-width=".497394"/>
  </g>
</svg>
