<svg height="256" viewBox="0 0 67.73 67.73" width="256" xmlns="http://www.w3.org/2000/svg" xmlns:xlink="http://www.w3.org/1999/xlink">
  <filter id="filter16020-3" color-interpolation-filters="sRGB" height="1.021433" width="1.027265" x="-.013633" y="-.010717">
    <feGaussianBlur stdDeviation="2.0004419"/>
  </filter>
  <g enable-background="new" stroke-width=".25" transform="matrix(.13297834 0 0 .13297834 .605824 28.61487660106)">
    <path d="m111.82842-178.55025h200l120.17158 119.671571.005 296.240039c.00031 17.728-14.44878 32.08839-32.17678 32.08839h-288c-17.72799 0-31.999992-14.272-31.999992-32v-384c0-17.728 14.272002-32 31.999992-32z" filter="url(#filter16020-3)" opacity=".4"/>
    <path d="m111.82842-179.67158h200l120.17158 119.67158.005 296.24003c.00031 17.728-14.44878 32.08839-32.17678 32.08839h-288c-17.727992 0-31.999992-14.272-31.999992-32v-384c0-17.728 14.272-32 31.999992-32z" fill="#f6f5f4"/>
    <path d="m311.82842-175.69243v88.000007c0 17.728 14.44211 31.693795 32.17011 31.693795l88.00147-.022223v-3.979149z" opacity=".25"/>
    <path d="m311.82842-179.67158v88.000008c0 17.728 14.44211 31.693795 32.17011 31.693795l88.00147-.022223z" fill="#deddda"/>
    <g stroke-width="7.520022" transform="translate(-9.864836 -11.885464)">
      <path d="m146.40145-28.617551v183.049881h87.54558c17.70097.001 28.62875 14.27353 28.62875 14.27353l.0195.0301 3.1244 4.14255 3.2099-4.08427.0271-.0376s11.21589-14.04469 28.65985-14.32413h87.54492v-183.050061h-87.54489c-15.30338 0-23.55752 6.58363-29.06011 11.93029l-2.77465 2.6969-2.77465-2.6969c-5.50412-5.34689-13.76198-11.93029-29.06012-11.93029zm7.95868 7.95866h79.5869c17.8046.002 28.61322 14.2619497 28.61322 14.2619497l.0157.0226 3.20602 4.28634 3.20602-4.28634.0157-.0226s10.80808-14.2619497 28.6132-14.2619497h79.5873v167.132561h-79.65735c-15.13672.21883-23.45896 6.78727-28.96295 12.02346l-2.77466 2.64254-2.74356-2.67751c-5.36743-5.2316-14.46726-12.72109-29.11895-11.98849h-79.58659v-163.153191z" fill="#999"/>
      <path d="m214.05031 7.1965487v3.9793703h27.85541v-3.9793703zm75.60757 0v3.9793703h71.6282v-3.9793703zm-75.60757 15.9174103v3.97936h27.85541v-3.97936zm75.60757 0v3.97936h71.6282v-3.97936zm-75.60757 15.9174v3.97929h27.85541v-3.97929zm75.60757 0v3.97929h71.6282v-3.97929zm-119.38036 15.91733v3.97937h71.6282v-3.97937zm119.38036 0v3.97937h71.6282v-3.97937zm-119.38036 15.9174v3.97937h71.6282v-3.97937zm119.38036 0v3.97937h71.6282v-3.97937zm-119.38036 15.917408v3.979294h71.6282v-3.979294zm119.38036 0v3.979294h71.6282v-3.979294zm-119.38036 15.917333v3.97937h71.6282v-3.97937zm119.38036 0v3.97937h71.6282v-3.97937zm-119.38036 15.9174v3.97937h71.6282v-3.97937zm119.38036 0v3.97937h39.79344v-3.97937z" fill="#999"/>
      <path d="m185.99792 7.1965487-12.62028 33.2559403h-3.10012v2.55816h8.95338v-2.55816h-2.86646l2.9903-7.67974h14.83818l2.98676 7.67974h-3.87251v2.55816h12.84342v-2.55816h-3.54299l-12.62379-33.2559403zm.77591 5.7574103 6.53334 17.27138h-12.95682z" fill="#808080"/>
    </g>
  </g>
</svg>
