<svg height="256" viewBox="0 0 67.73 67.73" width="256" xmlns="http://www.w3.org/2000/svg" xmlns:xlink="http://www.w3.org/1999/xlink">
  <filter id="filter16020-3" color-interpolation-filters="sRGB" height="1.021433" width="1.027265" x="-.013633" y="-.010717">
    <feGaussianBlur stdDeviation="2.0004419"/>
  </filter>
  <linearGradient id="linearGradient1612" gradientUnits="userSpaceOnUse" x1="60" x2="68" y1="268" y2="268">
    <stop offset="0" stop-color="#949390"/>
    <stop offset=".083333" stop-color="#d5d3cf"/>
    <stop offset=".16667" stop-color="#949390"/>
    <stop offset=".83333" stop-color="#949390"/>
    <stop offset=".91667" stop-color="#d5d3cf"/>
    <stop offset="1" stop-color="#949390"/>
  </linearGradient>
  <linearGradient id="linearGradient1610" gradientUnits="userSpaceOnUse" x1="70.585999" x2="60" y1="223.255001" y2="193">
    <stop offset="0" stop-color="#fff"/>
    <stop offset="1" stop-color="#deddda"/>
  </linearGradient>
  <g enable-background="new" stroke-width=".25">
    <g enable-background="new" stroke-width=".25" transform="matrix(.13297834 0 0 .13297834 .605824 28.61487660106)">
      <path d="m111.82842-178.55025h200l120.17158 119.671571.005 296.240039c.00031 17.728-14.44878 32.08839-32.17678 32.08839h-288c-17.72799 0-31.999992-14.272-31.999992-32v-384c0-17.728 14.272002-32 31.999992-32z" filter="url(#filter16020-3)" opacity=".4"/>
      <path d="m111.82842-179.67158h200l120.17158 119.67158.005 296.24003c.00031 17.728-14.44878 32.08839-32.17678 32.08839h-288c-17.727992 0-31.999992-14.272-31.999992-32v-384c0-17.728 14.272-32 31.999992-32z" fill="#f6f5f4"/>
      <path d="m311.82842-175.69243v88.000007c0 17.728 14.44211 31.693795 32.17011 31.693795l88.00147-.022223v-3.979149z" opacity=".25"/>
      <path d="m311.82842-179.67158v88.000008c0 17.728 14.44211 31.693795 32.17011 31.693795l88.00147-.022223z" fill="#deddda"/>
    </g>
    <g transform="matrix(.13297834 0 0 .13297834 2.41956105785 28.614877)">
      <path d="m233.59038 3.922134h8.686874v260.60626h-8.686874z" fill="#999" stroke-width="1.085859"/>
      <path d="m242.27725-264.52838h8.686874v260.60626h-8.686874z" fill="#fff" stroke-width="1.085859" transform="scale(1 -1)"/>
      <g enable-background="new" transform="matrix(4.3434374 0 0 4.3434374 -35.702715 -756.17939)">
        <path d="m60 178v4h4v-2h4v-2h-4zm4 4v2h-4v4h4v-2h4v-4zm0 6v2h-4v4h4v-2h4v-4zm0 6v2h-4v4h4v-2h4v-2-2zm0 6v2h-4v4h4v-2h4v-4zm0 6v2h-4v4h4v-2h4v-4zm0 6v2h-4v4h4v-2h4v-2-2zm0 6v2h-4v4h4v-2h4v-4zm0 6v2h-4v4h4v-2h4v-4zm0 6v2h-4v4h4v-2h4v-2-2z" fill="url(#linearGradient1610)"/>
        <path d="m64 179v1h4v-1zm-4 2v1h4v-1zm4 4v1h4v-1zm-4 2v1h4v-1zm4 4v1h4v-1zm-4 2v1h4v-1zm4 4v1h4v-1zm-4 2v1h4v-1zm4 4v1h4v-1zm-4 2v1h4v-1zm4 4v1h4v-1zm-4 2v1h4v-1zm4 4v1h4v-1zm-4 2v1h4v-1zm4 4v1h4v-1zm-4 2v1h4v-1zm4 4v1h4v-1zm-4 2v1h4v-1zm4 4v1h4v-1zm-4 2v1h4v-1z" fill="#241f31" opacity=".4"/>
      </g>
      <path d="m224.90353-22.138484c-9.62506 0-17.37376 7.74869-17.37376 17.3737536v43.4343844c0 9.625042 7.7487 17.373733 17.37376 17.373733v34.747502c0 4.812531 3.87434 8.686879 8.68687 8.686879h17.37373c4.81253 0 8.68688-3.874348 8.68688-8.686879v-34.747502c9.62506 0 17.37376-7.748691 17.37376-17.373733v-43.4343844c0-9.6250636-7.7487-17.3737536-17.37376-17.3737536zm8.68687 95.555626h17.37373v17.373747h-17.37373z" opacity=".1" stroke-width="1.085859"/>
      <g enable-background="new" transform="matrix(4.3434374 0 0 4.3434374 -35.702715 -1116.6847)">
        <path d="m62 258c-1.108 0-2 .892-2 2v16c0 1.108.892 2 2 2h4c1.108 0 2-.892 2-2v-16c0-1.108-.892-2-2-2zm0 14h4v4h-4z" fill="url(#linearGradient1612)"/>
        <rect fill="#3d3846" height="18" rx="4" width="16" x="56" y="250"/>
        <rect fill="#5e5c64" height="18" rx="4" width="16" x="56" y="248"/>
        <path d="m62 254c-1.108 0-2 .892-2 2v18c0 1.108.892 2 2 2h4c1.108 0 2-.892 2-2v-18c0-1.108-.892-2-2-2zm0 16h4v4h-4z" fill="#fff"/>
        <g transform="scale(1 -1)">
          <rect fill="#68676b" height="10" rx="2" width="4" x="62" y="-260"/>
          <rect fill="#949390" height="8" rx="2" width="4" x="62" y="-258"/>
        </g>
      </g>
    </g>
  </g>
</svg>
