<svg height="256" viewBox="0 0 67.73 67.73" width="256" xmlns="http://www.w3.org/2000/svg" xmlns:xlink="http://www.w3.org/1999/xlink">
  <filter id="filter16020-3" color-interpolation-filters="sRGB" height="1.021433" width="1.027265" x="-.013633" y="-.010717">
    <feGaussianBlur stdDeviation="2.0004419"/>
  </filter>
  <g enable-background="new" stroke-width=".25" transform="matrix(.13297834 0 0 .13297834 .605824 28.61487660106)">
    <path d="m111.82842-178.55025h200l120.17158 119.671571.005 296.240039c.00031 17.728-14.44878 32.08839-32.17678 32.08839h-288c-17.72799 0-31.999992-14.272-31.999992-32v-384c0-17.728 14.272002-32 31.999992-32z" filter="url(#filter16020-3)" opacity=".4"/>
    <path d="m111.82842-179.67158h200l120.17158 119.67158.005 296.24003c.00031 17.728-14.44878 32.08839-32.17678 32.08839h-288c-17.727992 0-31.999992-14.272-31.999992-32v-384c0-17.728 14.272-32 31.999992-32z" fill="#f6f5f4"/>
    <path d="m311.82842-175.69243v88.000007c0 17.728 14.44211 31.693795 32.17011 31.693795l88.00147-.022223v-3.979149z" opacity=".25"/>
    <path d="m311.82842-179.67158v88.000008c0 17.728 14.44211 31.693795 32.17011 31.693795l88.00147-.022223z" fill="#deddda"/>
    <g enable-background="new" fill="none" stroke="#8f76e4" stroke-width="8" transform="matrix(1.98967238306 0 0 1.98967238306 -44.93780095613 -266.06046608822)">
      <path d="m152 100c-20.00687 0-38.49398 10.67354-48.49742 28-10.003437 17.32646-10.003437 38.67354 0 56 10.00344 17.32646 28.49055 28 48.49742 28h88"/>
      <path d="m167.23403 119.01454c-14.95033-6.15793-32.13768-2.70962-43.55567 8.7386s-14.82085 28.64463-8.62342 43.57862 20.77619 24.66824 36.94506 24.66824h88"/>
      <path d="m168.97056 139.02943c-7.68097-7.68097-19.56333-9.24531-28.97056-3.81404s-13.99365 16.50386-11.18222 26.99627c2.81143 10.4924 12.31968 17.78834 23.18222 17.78834h88"/>
    </g>
  </g>
</svg>
