<svg height="256" viewBox="0 0 67.73 67.73" width="256" xmlns="http://www.w3.org/2000/svg" xmlns:xlink="http://www.w3.org/1999/xlink">
  <filter id="filter16020-3" color-interpolation-filters="sRGB" height="1.021433" width="1.027265" x="-.013633" y="-.010717">
    <feGaussianBlur stdDeviation="2.0004419"/>
  </filter>
  <g enable-background="new" stroke-width=".25">
    <g enable-background="new" stroke-width=".25" transform="matrix(.13297834 0 0 .13297834 .605824 28.61487660106)">
      <path d="m111.82842-178.55025h200l120.17158 119.671571.005 296.240039c.00031 17.728-14.44878 32.08839-32.17678 32.08839h-288c-17.72799 0-31.999992-14.272-31.999992-32v-384c0-17.728 14.272002-32 31.999992-32z" filter="url(#filter16020-3)" opacity=".4"/>
      <path d="m111.82842-179.67158h200l120.17158 119.67158.005 296.24003c.00031 17.728-14.44878 32.08839-32.17678 32.08839h-288c-17.727992 0-31.999992-14.272-31.999992-32v-384c0-17.728 14.272-32 31.999992-32z" fill="#f6f5f4"/>
      <path d="m311.82842-175.69243v88.000007c0 17.728 14.44211 31.693795 32.17011 31.693795l88.00147-.022223v-3.979149z" opacity=".25"/>
      <path d="m311.82842-179.67158v88.000008c0 17.728 14.44211 31.693795 32.17011 31.693795l88.00147-.022223z" fill="#deddda"/>
    </g>
    <path d="m143.737 87.075c0 6.283-5.093 11.376-11.377 11.376-6.283 0-11.376-5.093-11.376-11.376 0-6.284 5.093-11.377 11.376-11.377 6.284 0 11.377 5.093 11.377 11.377zm-23.722 27.285c0 6.284-5.093 11.377-11.377 11.377s-11.376-5.093-11.376-11.377c0-6.283 5.092-11.376 11.376-11.376s11.377 5.093 11.377 11.376zm-23.262 27.283c0 6.284-5.093 11.376-11.376 11.376-6.284 0-11.377-5.092-11.377-11.376s5.093-11.377 11.377-11.377c6.283 0 11.376 5.093 11.376 11.377zm37.242 0c0 6.284-5.092 11.376-11.376 11.376s-11.377-5.092-11.377-11.376 5.093-11.377 11.377-11.377 11.376 5.093 11.376 11.377zm24.685-27.283c0 6.284-5.092 11.377-11.376 11.377s-11.377-5.093-11.377-11.377c0-6.283 5.093-11.376 11.377-11.376s11.376 5.093 11.376 11.376zm12.568 27.283c0 6.284-5.093 11.376-11.376 11.376-6.284 0-11.377-5.092-11.377-11.376s5.093-11.377 11.377-11.377c6.283 0 11.376 5.093 11.376 11.377zm10.752 27.282c0 6.284-5.093 11.377-11.377 11.377-6.283 0-11.376-5.093-11.376-11.377 0-6.283 5.093-11.376 11.376-11.376 6.284 0 11.377 5.093 11.377 11.376zm-34.406 0c0 6.284-5.093 11.377-11.376 11.377-6.284 0-11.377-5.093-11.377-11.377 0-6.283 5.093-11.376 11.377-11.376 6.283 0 11.376 5.093 11.376 11.376zm-34.399 0c0 6.284-5.093 11.377-11.377 11.377s-11.376-5.093-11.376-11.377c0-6.283 5.092-11.376 11.376-11.376s11.377 5.093 11.377 11.376z" fill="#e93159" transform="matrix(.26457031432 0 0 .26457031432 .77219054161 .79370987379)"/>
  </g>
</svg>
