<svg height="256" viewBox="0 0 67.73 67.73" width="256" xmlns="http://www.w3.org/2000/svg" xmlns:xlink="http://www.w3.org/1999/xlink">
  <filter id="filter16020-3" color-interpolation-filters="sRGB" height="1.021433" width="1.027265" x="-.013633" y="-.010717">
    <feGaussianBlur stdDeviation="2.0004419"/>
  </filter>
  <g enable-background="new" stroke-width=".25" transform="matrix(.13297834 0 0 .13297834 .605824 28.61487660106)">
    <path d="m111.82842-178.55025h200l120.17158 119.671571.005 296.240039c.00031 17.728-14.44878 32.08839-32.17678 32.08839h-288c-17.72799 0-31.999992-14.272-31.999992-32v-384c0-17.728 14.272002-32 31.999992-32z" filter="url(#filter16020-3)" opacity=".4"/>
    <path d="m111.82842-179.67158h200l120.17158 119.67158.005 296.24003c.00031 17.728-14.44878 32.08839-32.17678 32.08839h-288c-17.727992 0-31.999992-14.272-31.999992-32v-384c0-17.728 14.272-32 31.999992-32z" fill="#f6f5f4"/>
    <path d="m311.82842-175.69243v88.000007c0 17.728 14.44211 31.693795 32.17011 31.693795l88.00147-.022223v-3.979149z" opacity=".25"/>
    <path d="m311.82842-179.67158v88.000008c0 17.728 14.44211 31.693795 32.17011 31.693795l88.00147-.022223z" fill="#deddda"/>
    <path d="m45.174022 258.03675h-1.386905v-2.10348c0-.79652-.620183-1.39716-1.442752-1.39716h-19.319794c-.820046 0-1.462454.61367-1.462454 1.39716v5.10833c0 .81207.656085 1.47272 1.462454 1.47272h19.319794c.79554 0 1.442752-.66065 1.442752-1.47272v-1.70228h1.386905c.07571 0 .125046.006.154761.0125.0027.0194.0051.0472.0051.085v5.40467c0 .24333-.0968.44083-.15989.44083h-11.243134c-1.017873 0-1.785408.6267-1.785408 1.45782v.82167h-.398748c-.208166 0-.393456.13188-.461595.32857l-1.22954 3.54957c-.01783.0514-.02686.10551-.02686.15989v8.9062c0 .26979.218749.48846.488461.48846h4.803205c.269794 0 .488461-.21867.488461-.48846v-8.9062c0-.0526-.0085-.10477-.02516-.1546l-1.184356-3.54957c-.06651-.19937-.253105-.33386-.463306-.33386h-.688731l-.0011-.81874c.02296-.0436.206863-.15818.484472-.15818h11.243142c.8474 0 1.462455-.73319 1.462455-1.7434v-5.40467c.000161-.87663-.546589-1.40001-1.462293-1.40001z" fill="#999" stroke-width="1" transform="matrix(7.5200217 0 0 7.5200217 -.50999 -1969.2725)"/>
  </g>
</svg>
