<svg height="256" viewBox="0 0 67.73 67.73" width="256" xmlns="http://www.w3.org/2000/svg" xmlns:xlink="http://www.w3.org/1999/xlink">
  <filter id="filter16020-3" color-interpolation-filters="sRGB" height="1.021433" width="1.027265" x="-.013633" y="-.010717">
    <feGaussianBlur stdDeviation="2.0004419"/>
  </filter>
  <g enable-background="new" stroke-width=".25" transform="matrix(.13297834 0 0 .13297834 .605824 28.61487660106)">
    <path d="m111.82842-178.55025h200l120.17158 119.671571.005 296.240039c.00031 17.728-14.44878 32.08839-32.17678 32.08839h-288c-17.72799 0-31.999992-14.272-31.999992-32v-384c0-17.728 14.272002-32 31.999992-32z" filter="url(#filter16020-3)" opacity=".4"/>
    <path d="m111.82842-179.67158h200l120.17158 119.67158.005 296.24003c.00031 17.728-14.44878 32.08839-32.17678 32.08839h-288c-17.727992 0-31.999992-14.272-31.999992-32v-384c0-17.728 14.272-32 31.999992-32z" fill="#d64827"/>
    <path d="m311.82842-175.69243v88.000007c0 17.728 14.44211 31.693795 32.17011 31.693795l88.00147-.022223v-3.979149z" opacity=".25"/>
    <path d="m311.82842-179.67158v88.000008c0 17.728 14.44211 31.693795 32.17011 31.693795l88.00147-.022223z" fill="#981d00"/>
    <g enable-background="new" fill="#fff" stroke="#fff" transform="matrix(7.52002168673 0 0 7.52002168673 -407.49400328568 -1941.5936461964)">
      <path d="m89.418377 249.26795c-5.160857.91906-10.324505 2.13842-15.48536 3.04065 0 7.85069-.0034 15.7047 0 23.55876 5.133923.89886 10.270583 2.09804 15.394409 3.03393h1.537891v-29.63334zm-7.765418 9.33122c1.018204-.0216 1.995228.12494 2.788978.84284 1.520473 1.84503 1.118402 5.23857-1.135848 6.34277-.800804.40922-1.718144.35327-2.589506.32504-.0035 1.37937-.0071 2.75837-.0036 4.13773-.6985-.06-1.40008-.11977-2.09858-.17621-.03175-3.76767-.03923-7.36462.0031-11.13229.993391-.12377 2.01727-.31826 3.035474-.33988zm-.117306 2.04432c-.277852-.007-.562073.0181-.822687.03-.01058 1.18533-.01725 2.36681.05684 3.54862.702027-.0847 1.61218-.0138 2.014347-.74052.33514-.71261.356174-1.62314-.04599-2.31459-.293245-.4079-.73942-.51107-1.20251-.52348z"/>
      <path d="m91.924166 253.50129v3.51761c.496015-.1065 1.034892-.3068 1.586985-.34003v4.75992h4.730977c-.168074 1.44406-.811832 2.9283-2.085144 3.68298-1.248833.83961-2.835818.85043-4.232818.41651.0035.69144-.0035 2.08823 0 2.77968h8.466154v1.05833h-8.466154v2.11667h8.466154v1.05833h-8.466154v3.175h10.582814v-22.225zm2.645318 2.53628c2.250191.23304 4.11077 2.09821 4.355806 4.34289h-4.355806z"/>
    </g>
  </g>
</svg>
