<svg height="256" viewBox="0 0 67.73 67.73" width="256" xmlns="http://www.w3.org/2000/svg" xmlns:xlink="http://www.w3.org/1999/xlink">
  <filter id="filter16020-3" color-interpolation-filters="sRGB" height="1.021433" width="1.027265" x="-.013633" y="-.010717">
    <feGaussianBlur stdDeviation="2.0004419"/>
  </filter>
  <g enable-background="new" stroke-width=".25" transform="matrix(.13297834 0 0 .13297834 .605824 28.61487660106)">
    <path d="m111.82842-178.55025h200l120.17158 119.671571.005 296.240039c.00031 17.728-14.44878 32.08839-32.17678 32.08839h-288c-17.72799 0-31.999992-14.272-31.999992-32v-384c0-17.728 14.272002-32 31.999992-32z" filter="url(#filter16020-3)" opacity=".4"/>
    <path d="m111.82842-179.67158h200l120.17158 119.67158.005 296.24003c.00031 17.728-14.44878 32.08839-32.17678 32.08839h-288c-17.727992 0-31.999992-14.272-31.999992-32v-384c0-17.728 14.272-32 31.999992-32z" fill="#f6f5f4"/>
    <path d="m311.82842-175.69243v88.000007c0 17.728 14.44211 31.693795 32.17011 31.693795l88.00147-.022223v-3.979149z" opacity=".25"/>
    <path d="m311.82842-179.67158v88.000008c0 17.728 14.44211 31.693795 32.17011 31.693795l88.00147-.022223z" fill="#deddda"/>
    <path d="m207.5956-55.150309v17.051278h5.31201v11.3701h-10.99706v17.140662h10.99706v51.072218h-39.41456v5.681171h39.41456v45.391049h-10.99706v17.144541h10.99706v11.3701h-8.15259l11.37011 22.73634 11.36622-22.73634h-8.06323v-11.3701h50.6992c37.79196 0 68.21286-30.422561 68.21286-68.212881 0-37.791968-30.4209-68.21676-68.21286-68.21676h-50.6992v-11.3701h5.22264v-17.051278zm11.83252 45.56204h50.6992c28.59348 0 51.07221 22.48259 51.07221 51.076098 0 28.591857-22.47873 51.06834-51.07221 51.06834h-50.6992v-45.391049h16.59275l-11.37011 22.744099h56.84665l-11.37399-22.744099h17.05904v8.533404l22.73635-11.3701-22.73635-11.37012v8.525645h-19.89962l-14.21069-28.42139-14.2107 28.42139h-19.43333z" fill="#686868" stroke-width=".497394"/>
  </g>
</svg>
