<svg height="256" viewBox="0 0 67.73 67.73" width="256" xmlns="http://www.w3.org/2000/svg" xmlns:xlink="http://www.w3.org/1999/xlink">
  <filter id="filter1527" color-interpolation-filters="sRGB" height="1.027261" width="1.021436" x="-.010718" y="-.01363">
    <feGaussianBlur stdDeviation="2.0006923"/>
  </filter>
  <radialGradient id="radialGradient1138" cx="105.22436" cy="148.6301" gradientTransform="matrix(-.11296702 -.2777659 -.15061745 .15487105 38.880235 63.907782)" gradientUnits="userSpaceOnUse" r="160">
    <stop offset="0" stop-color="#e0371b"/>
    <stop offset="1" stop-color="#f6d32d"/>
  </radialGradient>
  <radialGradient id="radialGradient1142" cx="352.97995" cy="275.93033" gradientTransform="matrix(.12304104 .21311336 .13019039 -.07516546 -26.875345 -37.875967)" gradientUnits="userSpaceOnUse" r="192">
    <stop offset="0" stop-color="#50db81"/>
    <stop offset="1" stop-color="#8ff0a4" stop-opacity=".004149"/>
  </radialGradient>
  <radialGradient id="radialGradient1146" cx="527.62366" cy="194.65071" gradientTransform="matrix(0 -.18554513 -.18929044 .00000002 88.260839 151.34126)" gradientUnits="userSpaceOnUse" r="192">
    <stop offset="0" stop-color="#4a86cf"/>
    <stop offset="1" stop-color="#87bae1" stop-opacity="0"/>
  </radialGradient>
  <path d="m36.801661 4.8016614h383.999989c17.728 0 32 14.2719996 32 31.9999996v200.276899l-120.0003 120h-295.999689c-17.728 0-31.9999999-14.272-31.9999999-32v-288.276899c0-17.728 14.2719999-31.9999996 31.9999999-31.9999996z" filter="url(#filter1527)" opacity=".4" transform="matrix(.132978 0 0 .132978 3.968555 10.347934)"/>
  <path d="m8.8623647 10.853471h51.0635483c2.357438 0 4.255296 1.897863 4.255296 4.255296v26.632421l-15.957394 15.957361h-39.3614503c-2.35743 0-4.25529-1.897863-4.25529-4.255296v-38.334486c0-2.357433 1.89786-4.255296 4.25529-4.255296z" fill="#f6f5f4"/>
  <path d="m64.181249 41.807625-11.702084.000053c-2.35749 0-4.25527 1.897808-4.2553 4.255243l-.00001 11.635628z" fill="#deddda"/>
  <path d="m8.8623647 15.145589v38.297664h39.3614903v-7.380279c.00001-2.357434 1.8978-4.255296 4.25529-4.255296h7.446768v-26.662089z" fill="url(#radialGradient1138)"/>
  <path d="m8.8623647 15.145589v38.297664h39.3614903v-7.380279c.00001-2.357434 1.8978-4.255296 4.25529-4.255296h7.446768v-26.662089z" fill="url(#radialGradient1142)"/>
  <path d="m8.8623647 15.145589v38.297664h39.3614903v-7.380279c.00001-2.357434 1.8978-4.255296 4.25529-4.255296h7.446768v-26.662089z" fill="url(#radialGradient1146)"/>
  <g stroke-width=".512473" transform="translate(1.685468 2.8022)">
    <g fill="#fff" opacity=".3">
      <path d="m16.953606 25.023887h2.548214v14.015176h-2.548214z"/>
      <path d="m29.107549 39.342422q-1.577465 0-2.831348-.485374-1.253883-.485374-2.123512-1.415675-.869628-.950524-1.334779-2.305526-.46515-1.355003-.46515-3.114484 0-1.759481.525822-3.114483.546046-1.355003 1.476346-2.285303.930301-.950524 2.184184-1.435898 1.253883-.485374 2.689781-.485374.869628 0 1.577465.141567.707838.121343 1.233659.283135.525822.161791.869629.343806.343807.182016.485374.262911l-.748285 2.083064q-.485374-.303359-1.39545-.56627-.889853-.283135-1.941497-.283135-.910076 0-1.698809.323583-.788733.303359-1.375226.9303-.56627.626942-.889853 1.577466-.323582.950524-.323582 2.204407 0 1.112316.242687 2.042616.262911.9303.788732 1.617914.525822.667389 1.334779 1.051643.808957.364031 1.941496.364031 1.355003 0 2.204408-.262911.849404-.283135 1.314554-.525822l.687613 2.083064q-.242687.161791-.667389.323582-.404478.161792-.970748.323583-.56627.141568-1.274107.222463-.707837.10112-1.516794.10112z"/>
      <path d="m37.522595 32.021363q0 1.152764.283135 2.103288.283135.9303.808957 1.597689.546046.647166 1.314555 1.011196.768508.364031 1.739257.364031.950524 0 1.719033-.364031.768509-.36403 1.29433-1.011196.546046-.667389.829181-1.597689.283135-.950524.283135-2.103288 0-1.152763-.283135-2.083063-.283135-.950525-.829181-1.59769-.525821-.667389-1.29433-1.03142-.768509-.36403-1.719033-.36403-.970749 0-1.739257.36403-.768509.364031-1.314555 1.03142-.525822.667389-.808957 1.59769-.283135.9303-.283135 2.083063zm10.94114 0q0 1.799929-.546045 3.175155-.525822 1.375227-1.456123 2.305527-.910076.910077-2.143735 1.375227-1.233659.46515-2.62911.46515-1.39545 0-2.649333-.46515-1.233659-.46515-2.163959-1.375227-.910077-.9303-1.456122-2.305527-.546046-1.375226-.546046-3.175155 0-1.799929.546046-3.154931.546045-1.375227 1.476346-2.305527.950524-.9303 2.184183-1.39545 1.233659-.46515 2.608885-.46515 1.375227 0 2.608886.46515 1.233659.46515 2.143735 1.39545.930301.9303 1.476347 2.305527.546045 1.355002.546045 3.154931z"/>
    </g>
    <g opacity=".3">
      <path d="m16.953606 24.494746h2.548214v14.015176h-2.548214z"/>
      <path d="m29.107549 38.813281q-1.577465 0-2.831348-.485374-1.253883-.485374-2.123512-1.415675-.869628-.950524-1.334779-2.305526-.46515-1.355003-.46515-3.114484 0-1.759481.525822-3.114483.546046-1.355003 1.476346-2.285303.930301-.950524 2.184184-1.435898 1.253883-.485374 2.689781-.485374.869628 0 1.577465.141567.707838.121343 1.233659.283135.525822.161791.869629.343806.343807.182016.485374.262911l-.748285 2.083064q-.485374-.303359-1.39545-.56627-.889853-.283135-1.941497-.283135-.910076 0-1.698809.323583-.788733.303359-1.375226.9303-.56627.626942-.889853 1.577466-.323582.950524-.323582 2.204407 0 1.112316.242687 2.042616.262911.9303.788732 1.617914.525822.667389 1.334779 1.051643.808957.364031 1.941496.364031 1.355003 0 2.204408-.262911.849404-.283135 1.314554-.525822l.687613 2.083064q-.242687.161791-.667389.323582-.404478.161792-.970748.323583-.56627.141568-1.274107.222463-.707837.10112-1.516794.10112z"/>
      <path d="m37.522595 31.492222q0 1.152764.283135 2.103288.283135.9303.808957 1.597689.546046.647166 1.314555 1.011196.768508.364031 1.739257.364031.950524 0 1.719033-.364031.768509-.36403 1.29433-1.011196.546046-.667389.829181-1.597689.283135-.950524.283135-2.103288 0-1.152763-.283135-2.083063-.283135-.950525-.829181-1.59769-.525821-.667389-1.29433-1.03142-.768509-.36403-1.719033-.36403-.970749 0-1.739257.36403-.768509.364031-1.314555 1.03142-.525822.667389-.808957 1.59769-.283135.9303-.283135 2.083063zm10.94114 0q0 1.799929-.546045 3.175155-.525822 1.375227-1.456123 2.305527-.910076.910077-2.143735 1.375227-1.233659.46515-2.62911.46515-1.39545 0-2.649333-.46515-1.233659-.46515-2.163959-1.375227-.910077-.9303-1.456122-2.305527-.546046-1.375226-.546046-3.175155 0-1.799929.546046-3.154931.546045-1.375227 1.476346-2.305527.950524-.9303 2.184183-1.39545 1.233659-.46515 2.608885-.46515 1.375227 0 2.608886.46515 1.233659.46515 2.143735 1.39545.930301.9303 1.476347 2.305527.546045 1.355002.546045 3.154931z"/>
    </g>
  </g>
</svg>
