<svg height="256" viewBox="0 0 67.73 67.73" width="256" xmlns="http://www.w3.org/2000/svg" xmlns:xlink="http://www.w3.org/1999/xlink">
  <filter id="filter16020-3" color-interpolation-filters="sRGB" height="1.021433" width="1.027265" x="-.013633" y="-.010717">
    <feGaussianBlur stdDeviation="2.0004419"/>
  </filter>
  <g enable-background="new" stroke-width=".25" transform="matrix(.13297834 0 0 .13297834 .605824 28.614877)">
    <g enable-background="new" stroke-width=".25" transform="translate(0 -.000003)">
      <path d="m111.82842-178.55025h200l120.17158 119.671571.005 296.240039c.00031 17.728-14.44878 32.08839-32.17678 32.08839h-288c-17.72799 0-31.999992-14.272-31.999992-32v-384c0-17.728 14.272002-32 31.999992-32z" filter="url(#filter16020-3)" opacity=".4"/>
      <path d="m111.82842-179.67158h200l120.17158 119.67158.005 296.24003c.00031 17.728-14.44878 32.08839-32.17678 32.08839h-288c-17.727992 0-31.999992-14.272-31.999992-32v-384c0-17.728 14.272-32 31.999992-32z" fill="#f6f5f4"/>
      <path d="m311.82842-175.69243v88.000007c0 17.728 14.44211 31.693795 32.17011 31.693795l88.00147-.022223v-3.979149z" opacity=".25"/>
      <path d="m311.82842-179.67158v88.000008c0 17.728 14.44211 31.693795 32.17011 31.693795l88.00147-.022223z" fill="#deddda"/>
    </g>
    <path d="m355.38936 198.52156c-2.1746-.28849-4.17611-1.29721-5.65835-2.85305-3.37631-3.48176-8.93518-13.7221-13.4913-24.86173-2.56258-6.25522-7.46091-20.02904-7.46091-20.96812 0-.29844 3.23107-2.35168 7.18436-4.5621l7.18236-4.01894 1.1261 1.01468c4.46262 4.02491 17.30731 22.47225 24.79806 35.60742 2.9963 5.25248 3.29672 6.00056 3.28478 8.1672-.0139 2.88489-.96096 4.89834-3.63097 7.75537-3.19924 3.42007-8.71633 5.37384-13.33413 4.71927zm-213.47518-3.43003c.13628-.35215 2.32143-9.8285 4.85814-21.06363 2.53691-11.23114 4.66913-20.48863 4.73618-20.5722.22781-.28053 23.18093 15.19637 23.17298 15.6301 0 .23676-6.63683 5.71605-14.74136 12.18018-18.25156 14.55373-18.32677 14.61143-18.02594 13.82555zm24.30703-39.62835c-6.39489-4.24774-11.57813-7.90458-11.51725-8.12343.1524-.52326 55.09032-89.926789 55.54394-90.376429.25069-.25268 24.2569 14.25729 25.38101 15.33763.24272.23477-56.88015 90.694759-57.33536 90.796229-.24392.0537-5.67526-3.38029-12.07433-7.63201zm150.78727-23.62421c-4.38503-7.10477-7.90657-12.9581-7.825-13.01381.77991-.52724 17.39087-9.70912 17.56993-9.70912.27257 0 14.22149 26.70009 14.01656 26.83936-1.79858 1.20768-15.10884 8.8377-15.39334 8.82178-.21687-.01-3.98512-5.83145-8.36815-12.93622zm-180.29386-1.33898c-.15041-1.23752-.21547-11.24508-.14245-22.22952l.13629-19.975329 23.02654.13927c12.66981.0657 23.08543.17707 23.15049.24074.0649.0537-6.02901 10.00358-13.54602 22.100189l-13.6638 21.98879h-18.6827zm69.0846 1.62349c0-.11141 6.25323-10.0772 13.89916-22.13999l13.90315-21.933069h49.34543l13.19088 21.115359c7.25399 11.61513 13.44554 21.57893 13.76189 22.13999l.57299 1.02264h-52.33575c-28.78318 0-52.33775-.0975-52.33775-.20692zm134.62854-9.35896c-3.69464-7.31169-7.39724-14.6194-11.1078-21.92512l-6.28506-12.363209h17.07254c9.39079 0 21.14321-.12137 26.1251-.28252l9.05854-.28053v44.415269h-30.03263zm-38.11229-14.18766c-10.11301-15.313759-20.41503-33.307469-32.79217-57.28383-9.82054-19.020329-19.27301-38.683889-23.17257-48.2117691-5.6504-13.8034599-7.00132-22.3856899-3.64689-23.1906799 5.36588-1.29561 15.86486 10.41503 30.81652 34.37169 11.70864 18.7609 30.44248 51.54869 44.73956 78.3005 2.65409 4.96399 5.29823 9.828499 5.87322 10.811349l1.05448 1.78863-8.90932 4.98389c-4.90032 2.73964-9.07246 4.98786-9.27341 4.98786-.19696 0-2.31188-2.95054-4.69141-6.55764zm-77.41236-47.457319-12.42091-7.870761 1.17186-1.78664c.64462-.98086 3.90155-5.96872 7.2321-11.07994 2.04528-3.15148 4.1025-6.29501 6.17365-9.430379.0637-.0684 5.65636 3.374119 12.43484 7.659659l12.31746 7.79914-1.83439 2.87294c-1.00473 1.57574-4.04281 6.350721-6.73869 10.610401-2.70184 4.25172-5.13708 8.03987-5.41164 8.41789-.43174.58892-2.20445-.39592-12.92428-7.19231zm15.85492-25.560061c-6.43428-4.043019-11.70865-7.540689-11.70865-7.773269 0-1.70785 5.32609-6.44821 7.94835-7.08328 4.31738-1.03956 11.3943 1.61991 15.34162 5.76439 3.04405 3.20859 3.71254 4.77558 3.42803 8.057579-.21487 2.47901-2.31387 8.38406-2.98038 8.38406-.17906 0-5.5907-3.30468-12.03096-7.34948z" fill="#b5835a" stroke-width=".497394"/>
    <g fill-rule="evenodd">
      <path d="m168 16h10v10h-10m10 0h10v10h-10m-10 0h10v10h-10m10 0h10v10h-10m-10 0h10v10h-10m0 3.333h20v20h-20" fill="#9a9996" transform="matrix(1.9895745 0 0 1.9895745 -98.227645 -210.94873)"/>
      <path d="m187.55484 241.99232h-9.54996v-55.70809h24.67072q9.62954 0 13.96682 4.77498 4.33727 4.77498 4.33727 12.1762 0 5.17289-2.94457 9.70912-2.94457 4.53623-8.51538 6.20747l11.14162 22.84032h-10.74371l-10.7437-21.80574h-11.61911zm0-46.63563v15.75743h15.27993q4.29748 0 6.28705-2.22832 1.98958-2.22833 1.98958-5.65039 0-3.34249-1.90999-5.6106-1.90999-2.26812-6.36664-2.26812zm54.51434 46.63563h-9.54996v-55.70809h23.15865q9.62954 0 14.16577 5.01373 4.53623 5.01373 4.53623 12.25578 0 6.84413-4.73519 12.09661-4.73519 5.25248-13.96681 5.25248h-13.60869zm0-30.16195h14.08619q4.21789 0 6.28705-2.46707 2.06916-2.46708 2.06916-5.80956 0-3.18332-1.94979-5.69018-1.94978-2.50687-6.40642-2.50687h-14.08619zm91.75917-25.54614v55.70809h-9.54996v-29.60487q0-3.66082.31834-6.68497-.955 2.86499-2.54666 6.84414l-13.52911 30.40069-13.5291-30.55986q-1.4325-3.18332-2.62624-6.68497.31833 3.02415.31833 6.68497v29.60487h-9.54996v-55.70809h9.62954l14.32494 32.70861q.87541 2.22832 1.51208 4.13831.63666-1.90999 1.51207-4.13831l14.40452-32.70861z" fill="#865e3c" stroke-width=".497394"/>
    </g>
  </g>
</svg>
