<svg height="256" viewBox="0 0 67.73 67.73" width="256" xmlns="http://www.w3.org/2000/svg" xmlns:xlink="http://www.w3.org/1999/xlink">
  <filter id="filter16020" color-interpolation-filters="sRGB" height="1.021433" width="1.027265" x="-.013633" y="-.010717">
    <feGaussianBlur stdDeviation="2.0004419"/>
  </filter>
  <g enable-background="new" stroke-width=".25" transform="matrix(.13297834 0 0 .13297834 .605824 28.614877)">
    <path d="m111.82842-178.55025h200l120.17158 119.671571.005 296.240039c.00031 17.728-14.44878 32.08839-32.17678 32.08839h-288c-17.72799 0-31.999992-14.272-31.999992-32v-384c0-17.728 14.272002-32 31.999992-32z" filter="url(#filter16020)" opacity=".4"/>
    <path d="m111.82842-179.67158h200l120.17158 119.67158.005 296.24003c.00031 17.728-14.44878 32.08839-32.17678 32.08839h-288c-17.727992 0-31.999992-14.272-31.999992-32v-384c0-17.728 14.272-32 31.999992-32z" fill="#57e389"/>
    <path d="m82.170458 184.89196 6.691656-6.6917c1.029482-1.02948 1.029482-2.62519 0-3.65464-1.029498-1.02949-2.625192-1.02949-3.654674 0l-7.61821 7.61818c-4.066471-2.05895-8.699156-3.24289-13.58923-3.24289-4.941537 0-9.574234 1.18394-13.692176 3.24289l-7.669678-7.61818c-1.02949-1.02949-2.625197-1.02949-3.654686 0-1.029491 1.02945-1.029491 2.62516 0 3.65464l6.743148 6.74314c-7.618214 5.61073-12.611223 14.61873-12.611223 24.86214h61.76923c0-10.24341-4.993019-19.30289-12.714157-24.91358zm-29.200677 13.88335h-4.412086v-4.41209h4.412086zm26.472523 0h-4.412081v-4.41209h4.412081z" fill="#26a269" stroke-width="2.084451" transform="matrix(3.5430779 0 0 3.5430779 29.159628 -635.19679)"/>
    <path d="m311.82842-175.69243v88.000009c0 17.728 14.44211 31.693798 32.17011 31.693798l88.00148-.02222v-3.979149z" fill="#0c0c0c" opacity=".25"/>
    <path d="m311.82842-179.67158v88.000008c0 17.728 14.44211 31.693798 32.17011 31.693798l88.00147-.02222z" fill="#26a269"/>
  </g>
</svg>
