<svg height="256" viewBox="0 0 67.73 67.73" width="256" xmlns="http://www.w3.org/2000/svg" xmlns:xlink="http://www.w3.org/1999/xlink">
  <filter id="filter16020-3" color-interpolation-filters="sRGB" height="1.021433" width="1.027265" x="-.013633" y="-.010717">
    <feGaussianBlur stdDeviation="2.0004419"/>
  </filter>
  <filter id="filter2237" color-interpolation-filters="sRGB" height="1.232" width="1.226" x="-.11" y="-.12">
    <feGaussianBlur stdDeviation=".412"/>
  </filter>
  <g enable-background="new" stroke-width=".25">
    <g enable-background="new" stroke-width=".25" transform="matrix(.13297834 0 0 .13297834 .605824 28.61487660106)">
      <path d="m111.82842-178.55025h200l120.17158 119.671571.005 296.240039c.00031 17.728-14.44878 32.08839-32.17678 32.08839h-288c-17.72799 0-31.999992-14.272-31.999992-32v-384c0-17.728 14.272002-32 31.999992-32z" filter="url(#filter16020-3)" opacity=".4"/>
      <path d="m111.82842-179.67158h200l120.17158 119.67158.005 296.24003c.00031 17.728-14.44878 32.08839-32.17678 32.08839h-288c-17.727992 0-31.999992-14.272-31.999992-32v-384c0-17.728 14.272-32 31.999992-32z" fill="#f6f5f4"/>
      <path d="m311.82842-175.69243v88.000007c0 17.728 14.44211 31.693795 32.17011 31.693795l88.00147-.022223v-3.979149z" opacity=".25"/>
      <path d="m311.82842-179.67158v88.000008c0 17.728 14.44211 31.693795 32.17011 31.693795l88.00147-.022223z" fill="#deddda"/>
    </g>
    <g transform="matrix(.13297834 0 0 .13297834 -.54851894838 18.63646561026)">
      <g stroke-width="6.447639">
        <path d="m306.76201 79.707493c-.0942-5.30366-1.14352-10.398118-3.19399-15.009889-2.13786-4.809388-5.23677-9.140724-9.05864-12.776795-3.82185-3.637258-8.35889-6.57954-13.4105-8.612431-5.05154-2.033014-10.60916-3.142652-16.43625-3.142652s-11.38269 1.109106-16.43628 3.142652c-5.05357 2.032891-9.60461 4.976709-13.42915 8.612431-3.82455 3.637242-6.91863 7.967407-9.05864 12.776795-2.12452 4.774486-3.28903 10.030611-3.30605 15.539884.38264 21.896082 19.02994 39.541222 42.09928 39.541222 23.26657 0 42.16211-17.91499 42.23-40.071217z" fill="#fda463"/>
        <path d="m264.532 39.371425c-23.30845 0-42.22999 18.011001-42.22999 40.22256 0 .220176.12615.417398.12945.645768.0167-5.509486 1.18118-10.765611 3.30602-15.540081 2.14005-4.809403 5.2341-9.14077 9.0586-12.776613 3.82458-3.637455 8.37562-6.579768 13.4292-8.61266 5.05355-2.032815 10.60913-3.142818 16.43627-3.142818 5.82712 0 11.38468 1.110839 16.43626 3.142818 5.05157 2.032892 9.58864 4.97674 13.4105 8.61266 3.82187 3.637044 6.92062 7.96721 9.05866 12.776613 2.05039 4.6118 3.10108 9.706046 3.19396 15.009843.00012-.03633.0199-.0681.0199-.102457 0-22.211437-18.94025-40.222392-42.24867-40.222392z" fill="#808080"/>
        <path d="m211.84257 80.237488c-.0001.03633-.0199.0681-.0199.102457 0 6.941134 1.46814 13.556625 4.14641 19.571769 2.67856 6.015446 6.55227 11.425896 11.33729 15.975516 4.78504 4.54957 10.4901 8.2255 16.80983 10.77017 6.31971 2.54563 13.2628 3.9563 20.54534 3.9563 7.29859 0 14.24328-1.39531 20.56399-3.93727 6.32074-2.54209 12.0128-6.22212 16.79115-10.77033 4.77834-4.54821 8.64722-9.97825 11.31864-15.994386 2.67135-6.016026 4.14639-12.625192 4.14639-19.571769 0-.221392-.12615-.417413-.12945-.645692-.0688 27.730807-23.66768 50.122127-52.82018 50.122127-28.89094 0-52.30466-22.14312-52.68944-49.591919z" fill="#808080"/>
      </g>
      <path d="m52.545482 281.58628c-.382859.21151-.81164.29298-1.228249.26645-.416606-.0262-.822057-.16294-1.160653-.39202-.171496.35615-.443536.66098-.784069.87676-.340039.21525-.7475.34344-1.191555.34382h-.002-.01346c-.444825 0-.852951-.12782-1.193484-.34382-.340526-.21563-.61256-.52047-.784072-.87676-.338582.22795-.74432.36398-1.160652.39008-.416333.0262-.844281-.0564-1.228246-.26459.199188.10837.411044.16667.625708.20666v8.19989l3.746583-3.74653 3.74847 3.74653v-8.17866c.216865-.0262.426531-.0819.625709-.22797z" filter="url(#filter2237)" opacity=".3" stroke-width=".165559" transform="matrix(9.6714634 0 0 9.8012825 -201.29895 -2610.2024)"/>
      <path d="m306.89275 149.70423c-3.70279 2.0731-7.84972 2.87158-11.87894 2.61161-4.02919-.25729-7.95049-1.59633-11.22522-3.84235-1.65861 3.49071-4.28964 6.47852-7.58309 8.59335-3.28869 2.10988-7.22942 3.36618-11.52409 3.36989h-.0188-.12945c-4.3021 0-8.24926-1.25222-11.54273-3.36989-3.29338-2.11346-5.92434-5.10127-7.58311-8.59335-3.2746 2.23424-7.19867 3.56757-11.22521 3.82327-4.02655.2573-8.16542-.55198-11.87895-2.59322 1.92646 1.06145 3.97541 1.63388 6.05152 2.02536v80.36949l36.23503-36.72077 36.25319 36.72077v-80.1613c2.09741-.25728 4.1252-.8024 6.05153-2.23439z" fill="#f22c42" stroke-width="6.447639"/>
      <path d="m222.30201 10.240926c-7.42701 4.077808-11.31792 11.885206-10.59017 19.47711-7.94073-.0681-16.25142 3.084232-20.48931 10.069633-4.30211 7.071425-3.42821 15.729004 1.34491 21.976014-7.34138 3.124425-12.51396 10.03435-12.51396 18.189966 0 4.077838 1.29901 7.852075 3.51132 10.997477 2.21268 3.146406 5.33187 5.668888 9.00258 7.23034-4.70879 6.247014-5.64686 14.839674-1.34491 21.976014 4.23787 6.98436 12.5486 10.72335 20.48931 10.05068-.72793 7.61372 3.16325 15.44008 10.59016 19.49607 3.71352 2.04019 7.8524 2.84964 11.87896 2.59321 4.02654-.25728 7.95048-1.58951 11.22519-3.82327 1.65863 3.49071 4.28966 6.47852 7.58313 8.59335 3.29338 2.11363 7.24064 3.3699 11.54273 3.3699h.12945.0199c4.29466-.003 8.23552-1.25562 11.52409-3.3699 3.29337-2.1135 5.92431-5.10122 7.58307-8.59335 3.2746 2.24545 7.19603 3.58238 11.22521 3.8424 4.02923.25728 8.17616-.54351 11.87899-2.61166 7.42701-4.0778 11.31788-11.90436 10.59017-19.4959 7.94069.0682 16.2514-3.06584 20.48927-10.05084 4.30216-7.07142 3.42823-15.72901-1.34491-21.97602 3.67072-1.560601 6.78999-4.085135 9.00261-7.230385 2.2127-3.146406 3.51132-6.919594 3.51132-10.997402 0-8.155646-5.17257-15.06662-12.51398-18.190042 4.70867-6.247283 5.64676-14.839664 1.34483-21.975968-4.23821-6.9842-12.54889-10.742064-20.48958-10.069435.72794-7.613551-3.16327-15.421314-10.59017-19.477308-7.42702-4.078173-16.55469-3.256129-23.10418 1.212992-3.31759-6.984686-10.52162-11.94380697-19.1258-11.94380697h-.14955c-8.59569.0076-15.79207 4.96457797-19.10719 11.94380697-6.54944-4.489932-15.69853-5.354357-23.10415-1.212992zm42.22999 19.079306c29.13022 0 52.83886 22.509429 52.83886 50.273753 0 .03633-.0188.0681-.02.102457.003.219371.12945.417368.12945.645692 0 6.946698-1.47503 13.555865-4.14642 19.572012-2.67135 6.016014-6.54028 11.446064-11.3186 15.994264-4.77833 4.54841-10.4704 8.2274-16.79115 10.77017-6.32074 2.54209-13.26539 3.93731-20.56403 3.93731-7.28252 0-14.22557-1.41067-20.54531-3.95639-6.31972-2.54551-12.02481-6.22022-16.80981-10.76984-4.78506-4.5499-8.65886-9.96038-11.33729-15.975514-2.67858-6.015098-4.14643-12.630954-4.14643-19.572012 0-.03633.0188-.0681.02-.102457-.003-.219796-.12946-.413796-.12946-.645738 0-27.78597 23.62577-50.273753 52.82019-50.273753z" fill="#fb7c38" stroke-width="6.447639"/>
    </g>
  </g>
</svg>
