<svg height="256" viewBox="0 0 67.73 67.73" width="256" xmlns="http://www.w3.org/2000/svg" xmlns:xlink="http://www.w3.org/1999/xlink">
  <filter id="filter16020-3" color-interpolation-filters="sRGB" height="1.021433" width="1.027265" x="-.013633" y="-.010717">
    <feGaussianBlur stdDeviation="2.0004419"/>
  </filter>
  <g enable-background="new" stroke-width=".25" transform="matrix(.13297834 0 0 .13297834 .605824 28.61487660106)">
    <path d="m111.82842-178.55025h200l120.17158 119.671571.005 296.240039c.00031 17.728-14.44878 32.08839-32.17678 32.08839h-288c-17.72799 0-31.999992-14.272-31.999992-32v-384c0-17.728 14.272002-32 31.999992-32z" filter="url(#filter16020-3)" opacity=".4"/>
    <path d="m111.82842-179.67158h200l120.17158 119.67158.005 296.24003c.00031 17.728-14.44878 32.08839-32.17678 32.08839h-288c-17.727992 0-31.999992-14.272-31.999992-32v-384c0-17.728 14.272-32 31.999992-32z" fill="#f6f5f4"/>
    <path d="m311.82842-175.69243v88.000007c0 17.728 14.44211 31.693795 32.17011 31.693795l88.00147-.022223v-3.979149z" opacity=".25"/>
    <path d="m311.82842-179.67158v88.000008c0 17.728 14.44211 31.693795 32.17011 31.693795l88.00147-.022223z" fill="#deddda"/>
    <g transform="matrix(7.5200217 0 0 7.5200217 -387.57951321333 -1927.6428)">
      <path d="m78.6928 287.26489c1.560612 0 2.621829-1.23601 2.621829-3.33347s-1.011277-3.34595-2.621829-3.34595c-.73661 0-1.198551.28715-1.535643.6617v-.51189h-1.29843v8.88925l1.29843-.59927v-2.45953c.312122.38704.786548.69916 1.535643.69916zm-.187274-1.22352c-.61176 0-1.061217-.34958-1.348369-.73661v-2.77165c.287152-.46194.749094-.72412 1.348369-.72412.961337 0 1.510673.88642 1.510673 2.12243 0 1.36085-.536851 2.10995-1.510673 2.10995z" fill="#888" stroke-width="1"/>
      <path d="m85.010305 289.61205c1.972615-.13734 3.008861-.88643 3.008861-2.90898v-5.96779h-1.298429v.44946c-.274668-.28715-.761579-.59927-1.510673-.59927-1.560613 0-2.646799 1.236-2.646799 3.33346 0 2.22232 1.161096 3.34596 2.621829 3.34596.6617 0 1.173581-.21225 1.535643-.6617v.56182c0 .78655-.486911 1.33588-2.359647 1.44825zm.412002-3.57068c-.961337 0-1.560613-.82401-1.560613-2.12244 0-1.36085.549336-2.10994 1.560613-2.10994.524366 0 1.036247.29963 1.29843.72412v2.75916c-.287153.47443-.774064.7491-1.29843.7491z" fill="#888" stroke-width="1"/>
      <path d="m92.72612 287.26489c1.560613 0 2.621829-1.23601 2.621829-3.33347s-1.011277-3.34595-2.621829-3.34595c-.736609 0-1.19855.28715-1.535643.6617v-.51189h-1.298429v8.88925l1.298429-.59927v-2.45953c.312123.38704.786549.69916 1.535643.69916zm-.187274-1.22352c-.61176 0-1.061216-.34958-1.348369-.73661v-2.77165c.287153-.46194.749094-.72412 1.348369-.72412.961338 0 1.510673.88642 1.510673 2.12243 0 1.36085-.53685 2.10995-1.510673 2.10995z" fill="#888" stroke-width="1"/>
      <g stroke-width="1.763074">
        <path d="m248.36748-99.675636h28.209179v28.209179h-28.209179z" fill="none" transform="rotate(90)"/>
        <path d="m74.992525 260.70916-.000053 15.86784h21.156884v-15.86766zm1.76302 1.76325h17.630737v12.34152h-17.630737z" fill="#808080"/>
        <path d="m85.571037 248.36747c-4.869856 0-8.815368 3.94553-8.815368 8.81537v3.52615h1.763073v-3.52615c0-3.91755 3.134728-7.05229 7.052295-7.05229 3.917568 0 7.052295 3.13474 7.052295 7.05229v3.52615h1.763074v-3.52615c0-4.86984-3.945512-8.81537-8.815369-8.81537z" fill="#808080"/>
        <path d="m74.992595 260.70899v15.86766h21.156884v-15.86766zm1.763074 1.76307h17.630737v12.34152h-17.630737zm7.052295 3.52615v5.28922h3.526147v-5.72999z" fill="#808080"/>
      </g>
    </g>
  </g>
</svg>
