<svg height="256" viewBox="0 0 67.73 67.73" width="256" xmlns="http://www.w3.org/2000/svg" xmlns:xlink="http://www.w3.org/1999/xlink">
  <filter id="filter1527" color-interpolation-filters="sRGB" height="1.027261" width="1.021436" x="-.010718" y="-.01363">
    <feGaussianBlur stdDeviation="2.0006923"/>
  </filter>
  <radialGradient id="radialGradient1138" cx="105.22436" cy="148.6301" gradientTransform="matrix(-.11296702 -.2777659 -.15061745 .15487105 38.880235 63.907782)" gradientUnits="userSpaceOnUse" r="160">
    <stop offset="0" stop-color="#e0371b"/>
    <stop offset="1" stop-color="#f6d32d"/>
  </radialGradient>
  <radialGradient id="radialGradient1142" cx="352.97995" cy="275.93033" gradientTransform="matrix(.12304104 .21311336 .13019039 -.07516546 -26.875345 -37.875967)" gradientUnits="userSpaceOnUse" r="192">
    <stop offset="0" stop-color="#50db81"/>
    <stop offset="1" stop-color="#8ff0a4" stop-opacity=".004149"/>
  </radialGradient>
  <radialGradient id="radialGradient1146" cx="527.62366" cy="194.65071" gradientTransform="matrix(0 -.18554513 -.18929044 .00000002 88.260839 151.34126)" gradientUnits="userSpaceOnUse" r="192">
    <stop offset="0" stop-color="#4a86cf"/>
    <stop offset="1" stop-color="#87bae1" stop-opacity="0"/>
  </radialGradient>
  <path d="m36.801661 4.8016614h383.999989c17.728 0 32 14.2719996 32 31.9999996v200.276899l-120.0003 120h-295.999689c-17.728 0-31.9999999-14.272-31.9999999-32v-288.276899c0-17.728 14.2719999-31.9999996 31.9999999-31.9999996z" filter="url(#filter1527)" opacity=".4" transform="matrix(.132978 0 0 .132978 3.968555 10.347934)"/>
  <path d="m8.8623647 10.853471h51.0635483c2.357438 0 4.255296 1.897863 4.255296 4.255296v26.632421l-15.957394 15.957361h-39.3614503c-2.35743 0-4.25529-1.897863-4.25529-4.255296v-38.334486c0-2.357433 1.89786-4.255296 4.25529-4.255296z" fill="#f6f5f4"/>
  <path d="m64.181249 41.807625-11.702084.000053c-2.35749 0-4.25527 1.897808-4.2553 4.255243l-.00001 11.635628z" fill="#deddda"/>
  <path d="m8.8623647 15.145589v38.297664h39.3614903v-7.380279c.00001-2.357434 1.8978-4.255296 4.25529-4.255296h7.446768v-26.662089z" fill="url(#radialGradient1138)"/>
  <path d="m8.8623647 15.145589v38.297664h39.3614903v-7.380279c.00001-2.357434 1.8978-4.255296 4.25529-4.255296h7.446768v-26.662089z" fill="url(#radialGradient1142)"/>
  <path d="m8.8623647 15.145589v38.297664h39.3614903v-7.380279c.00001-2.357434 1.8978-4.255296 4.25529-4.255296h7.446768v-26.662089z" fill="url(#radialGradient1146)"/>
  <g stroke-width=".26457">
    <g fill="#fafafa">
      <path d="m20.39246 27.840316q3.061961 0 4.701591 1.086502 1.639631 1.066747 1.639631 3.516316 0 2.469323-1.659385 3.575579-1.659385 1.086502-4.7411 1.086502h-.967975v4.583064h-3.081715v-13.492381q1.007484-.197546 2.133495-.276564 1.126011-.07902 1.975458-.07902zm.197546 2.627359q-.335828 0-.671656.01975-.316073.01975-.553128.03951v3.950917h.967975q1.600121 0 2.410059-.434601.809938-.434601.809938-1.619876 0-.572883-.217301-.94822-.197546-.375337-.592637-.592637-.375337-.237055-.928466-.316074-.553128-.09877-1.224784-.09877z" opacity=".3"/>
      <path d="m32.74957 39.337483q.651901 0 1.066747-.09877.434601-.118527.691411-.296318.256809-.197546.355582-.454356.09877-.256809.09877-.572883 0-.671656-.632146-1.106256-.632147-.454356-2.173005-.967975-.671655-.237055-1.343311-.533374-.671656-.316073-1.20503-.770428-.533374-.47411-.869202-1.126012-.335827-.671656-.335827-1.619876 0-.94822.355582-1.698894.355583-.770428 1.007484-1.303802.651901-.533374 1.580366-.809938.928466-.296319 2.093986-.296319 1.382821 0 2.390305.296319 1.007484.296319 1.659385.651901l-.888956 2.429814q-.572883-.296319-1.284048-.513619-.691411-.237055-1.67914-.237055-1.106257 0-1.600121.316073-.47411.296319-.47411.928465 0 .375338.177791.632147.177791.25681.493865.47411.335828.197546.750674.375337.434601.158037.94822.335828 1.066747.395092 1.856931.790183.790183.375338 1.303802.888957.533374.513619.790184 1.205029.256809.691411.256809 1.67914 0 1.916194-1.343312 2.982942-1.343311 1.046993-4.049689 1.046993-.908711 0-1.639631-.118528-.730919-.09877-1.303802-.256809-.553128-.158037-.967975-.335828-.395091-.177791-.671655-.335828l.869201-2.449568q.612392.335828 1.501349.612392.90871.256809 2.212513.256809z" opacity=".3"/>
      <path d="m43.595454 39.179447q.217301.01975.493865.03951.296319 0 .69141 0 2.311286 0 3.417543-1.165521 1.126011-1.16552 1.126011-3.219997 0-2.153249-1.066747-3.259506-1.066748-1.106257-3.378034-1.106257-.316073 0-.651901.01975-.335828 0-.632147.03951zm8.909317-4.346009q0 1.777913-.553128 3.10147-.553128 1.323557-1.580367 2.192759-1.007483.869201-2.469323 1.303802-1.461839.434601-3.27926.434601-.829693 0-1.93595-.07902-1.106256-.05926-2.173004-.276565v-13.334341q1.066748-.197546 2.212514-.25681 1.16552-.07902 1.995212-.07902 1.758158 0 3.180488.395091 1.442085.395092 2.469323 1.244539 1.027239.849447 1.580367 2.173004.553128 1.323557.553128 3.180488z" opacity=".3"/>
    </g>
    <path d="m20.39246 27.311175q3.061961 0 4.701591 1.086502 1.639631 1.066747 1.639631 3.516316 0 2.469323-1.659385 3.575579-1.659385 1.086502-4.7411 1.086502h-.967975v4.583064h-3.081715v-13.492381q1.007484-.197546 2.133495-.276564 1.126011-.07902 1.975458-.07902zm.197546 2.627359q-.335828 0-.671656.01975-.316073.01975-.553128.03951v3.950917h.967975q1.600121 0 2.410059-.434601.809938-.434601.809938-1.619876 0-.572883-.217301-.94822-.197546-.375337-.592637-.592637-.375337-.237055-.928466-.316074-.553128-.09877-1.224784-.09877z" opacity=".3"/>
    <path d="m32.74957 38.808342q.651901 0 1.066747-.09877.434601-.118527.691411-.296318.256809-.197546.355582-.454356.09877-.256809.09877-.572883 0-.671656-.632146-1.106256-.632147-.454356-2.173005-.967975-.671655-.237055-1.343311-.533374-.671656-.316073-1.20503-.770428-.533374-.47411-.869202-1.126012-.335827-.671656-.335827-1.619876 0-.94822.355582-1.698894.355583-.770428 1.007484-1.303802.651901-.533374 1.580366-.809938.928466-.296319 2.093986-.296319 1.382821 0 2.390305.296319 1.007484.296319 1.659385.651901l-.888956 2.429814q-.572883-.296319-1.284048-.513619-.691411-.237055-1.67914-.237055-1.106257 0-1.600121.316073-.47411.296319-.47411.928465 0 .375338.177791.632147.177791.25681.493865.47411.335828.197546.750674.375337.434601.158037.94822.335828 1.066747.395092 1.856931.790183.790183.375338 1.303802.888957.533374.513619.790184 1.205029.256809.691411.256809 1.67914 0 1.916194-1.343312 2.982942-1.343311 1.046993-4.049689 1.046993-.908711 0-1.639631-.118528-.730919-.09877-1.303802-.256809-.553128-.158037-.967975-.335828-.395091-.177791-.671655-.335828l.869201-2.449568q.612392.335828 1.501349.612392.90871.256809 2.212513.256809z" opacity=".3"/>
    <path d="m43.595454 38.650306q.217301.01975.493865.03951.296319 0 .69141 0 2.311286 0 3.417543-1.165521 1.126011-1.16552 1.126011-3.219997 0-2.153249-1.066747-3.259506-1.066748-1.106257-3.378034-1.106257-.316073 0-.651901.01975-.335828 0-.632147.03951zm8.909317-4.346009q0 1.777913-.553128 3.10147-.553128 1.323557-1.580367 2.192759-1.007483.869201-2.469323 1.303802-1.461839.434601-3.27926.434601-.829693 0-1.93595-.07902-1.106256-.05926-2.173004-.276565v-13.334341q1.066748-.197546 2.212514-.25681 1.16552-.07902 1.995212-.07902 1.758158 0 3.180488.395091 1.442085.395092 2.469323 1.244539 1.027239.849447 1.580367 2.173004.553128 1.323557.553128 3.180488z" opacity=".3"/>
  </g>
</svg>
