<svg height="256" viewBox="0 0 67.73 67.73" width="256" xmlns="http://www.w3.org/2000/svg" xmlns:xlink="http://www.w3.org/1999/xlink">
  <filter id="filter16020-3" color-interpolation-filters="sRGB" height="1.021433" width="1.027265" x="-.013633" y="-.010717">
    <feGaussianBlur stdDeviation="2.0004419"/>
  </filter>
  <g enable-background="new" stroke-width=".25" transform="matrix(.13297834 0 0 .13297834 .605824 28.61487660106)">
    <path d="m111.82842-178.55025h200l120.17158 119.671571.005 296.240039c.00031 17.728-14.44878 32.08839-32.17678 32.08839h-288c-17.72799 0-31.999992-14.272-31.999992-32v-384c0-17.728 14.272002-32 31.999992-32z" filter="url(#filter16020-3)" opacity=".4"/>
    <path d="m111.82842-179.67158h200l120.17158 119.67158.005 296.24003c.00031 17.728-14.44878 32.08839-32.17678 32.08839h-288c-17.727992 0-31.999992-14.272-31.999992-32v-384c0-17.728 14.272-32 31.999992-32z" fill="#f6f5f4"/>
    <path d="m311.82842-175.69243v88.000007c0 17.728 14.44211 31.693795 32.17011 31.693795l88.00147-.022223v-3.979149z" opacity=".25"/>
    <path d="m311.82842-179.67158v88.000008c0 17.728 14.44211 31.693795 32.17011 31.693795l88.00147-.022223z" fill="#deddda"/>
    <g fill="none" stroke="#1463a5" stroke-width="1.058333" transform="matrix(7.5200217 0 0 7.5200217 2.564586 -1885.3781)">
      <path d="m26.281999 258.07007s-4.491289 9.67758-3.677317 13.96461c.566084 2.98144 1.913586 5.02774 4.73565 6.14372 1.672775.66149 6.35-1.05833 6.35-1.05833v-7.40834s-4.233333-1.38906-5.093229-6.74687c0 0 .454996 4.57873 1.314892 4.71102" stroke-linecap="round" stroke-linejoin="round"/>
      <path d="m24.429915 249.6034c-3.241146-2.91042-7.276042-1.71979-7.276042-1.71979s2.116666 6.68073 6.085417 6.01927"/>
      <path d="m25.223665 277.12007c-1.058333 4.23333 2.116667 5.29166 8.466667 3.175 6.350001 2.11666 9.525001 1.05833 8.466667-3.175" stroke-linecap="round"/>
      <path d="m27.566183 253.11257c2.005544-.93174 4.136946.21055 4.06499.32739 0 0-.692531 2.87197-2.329387 2.62421-1.533319-.23209-1.734317-2.30033-1.735603-2.9516z" stroke-linejoin="round"/>
      <path d="m42.156999 261.24507s2.73939-8.12639 1.058334-11.64167c-.548749-1.1475-2.116667-1.96046-3.175-1.96046-2.145864 0-3.175.90212-6.350001.90212-3.175 0-4.204137-.90212-6.35-.90212-1.058333 0-2.626252.81296-3.175 1.96046-1.681057 3.51528 1.058333 11.64167 1.058333 11.64167"/>
      <path d="m41.098666 258.07007s4.491289 9.67758 3.677317 13.96461c-.566084 2.98144-1.913586 5.02774-4.73565 6.14372-1.672776.66149-6.350001-1.05833-6.350001-1.05833v-7.40834s4.233334-1.38906 5.09323-6.74687c0 0-.501769 4.67228-1.361665 4.80457" stroke-linecap="round" stroke-linejoin="round"/>
      <path d="m42.950749 249.6034c3.241146-2.91042 7.276042-1.71979 7.276042-1.71979s-2.116667 6.68073-6.085417 6.01927"/>
      <path d="m39.814482 253.11257c-2.005545-.93174-4.136946.21055-4.06499.32739 0 0 .692531 2.87197 2.329386 2.62421 1.533319-.23209 1.734318-2.30033 1.735604-2.9516z" stroke-linejoin="round"/>
    </g>
  </g>
</svg>
