<svg height="256" viewBox="0 0 67.73 67.73" width="256" xmlns="http://www.w3.org/2000/svg" xmlns:xlink="http://www.w3.org/1999/xlink">
  <filter id="filter16020-3" color-interpolation-filters="sRGB" height="1.021433" width="1.027265" x="-.013633" y="-.010717">
    <feGaussianBlur stdDeviation="2.0004419"/>
  </filter>
  <g enable-background="new" stroke-width=".25" transform="matrix(.13297834 0 0 .13297834 .605824 28.614877)">
    <g enable-background="new" stroke-width=".25" transform="translate(0 -.000003)">
      <path d="m111.82842-178.55025h200l120.17158 119.671571.005 296.240039c.00031 17.728-14.44878 32.08839-32.17678 32.08839h-288c-17.72799 0-31.999992-14.272-31.999992-32v-384c0-17.728 14.272002-32 31.999992-32z" filter="url(#filter16020-3)" opacity=".4"/>
      <path d="m111.82842-179.67158h200l120.17158 119.67158.005 296.24003c.00031 17.728-14.44878 32.08839-32.17678 32.08839h-288c-17.727992 0-31.999992-14.272-31.999992-32v-384c0-17.728 14.272-32 31.999992-32z" fill="#f6f5f4"/>
      <path d="m311.82842-175.69243v88.000007c0 17.728 14.44211 31.693795 32.17011 31.693795l88.00147-.022223v-3.979149z" opacity=".25"/>
      <path d="m311.82842-179.67158v88.000008c0 17.728 14.44211 31.693795 32.17011 31.693795l88.00147-.022223z" fill="#deddda"/>
    </g>
    <g stroke-width=".762103">
      <path d="m261.96534-59.631024-38.33135 66.487163h76.91635zm-41.60937 72.170034-24.13635 41.863018 46.99469 80.482162 132.07678.76584-71.44323-123.11102zm-27.66801 47.994671-16.50718 28.628995-8.82916 15.316924h50.9995zm-28.61436 49.628789-27.53145 47.75076 113.35014.57561-28.22414-48.32637z" opacity=".1"/>
      <path d="m261.96534-63.610173-38.33135 66.487163h76.91635zm-41.60937 72.170034-24.13635 41.863018 46.99469 80.482161 132.07678.76584-71.44323-123.111019zm-27.66801 47.994671-16.50718 28.628995-8.82916 15.316923h50.9995zm-28.61436 49.628788-27.53145 47.75076 113.35014.57561-28.22414-48.32637z" fill="#2ec27e"/>
    </g>
  </g>
</svg>
