<?xml version="1.0" encoding="UTF-8" standalone="no"?>
<svg
   xmlns:dc="http://purl.org/dc/elements/1.1/"
   xmlns:cc="http://creativecommons.org/ns#"
   xmlns:rdf="http://www.w3.org/1999/02/22-rdf-syntax-ns#"
   xmlns:svg="http://www.w3.org/2000/svg"
   xmlns="http://www.w3.org/2000/svg"
   xmlns:sodipodi="http://sodipodi.sourceforge.net/DTD/sodipodi-0.dtd"
   xmlns:inkscape="http://www.inkscape.org/namespaces/inkscape"
   enable-background="new"
   height="128"
   viewBox="0 0 128 128"
   width="128"
   version="1.1"
   id="svg75"
   sodipodi:docname="4.svg"
   inkscape:version="0.92.4 (5da689c313, 2019-01-14)">
  <metadata
     id="metadata81">
    <rdf:RDF>
      <cc:Work
         rdf:about="">
        <dc:format>image/svg+xml</dc:format>
        <dc:type
           rdf:resource="http://purl.org/dc/dcmitype/StillImage" />
        <dc:title></dc:title>
      </cc:Work>
    </rdf:RDF>
  </metadata>
  <defs
     id="defs79">
    <filter
       inkscape:collect="always"
       style="color-interpolation-filters:sRGB"
       id="filter16020"
       x="-0.013632531"
       width="1.0272651"
       y="-0.010716653"
       height="1.0214334">
      <feGaussianBlur
         inkscape:collect="always"
         stdDeviation="2.0004419"
         id="feGaussianBlur16022" />
    </filter>
    <clipPath
       clipPathUnits="userSpaceOnUse"
       id="clipPath18689">
      <rect
         clip-path="none"
         transform="rotate(45)"
         ry="32.000008"
         rx="32.000008"
         y="123.9986"
         x="486.03726"
         height="362.94299"
         width="362.94299"
         id="rect18691"
         style="display:inline;opacity:1;vector-effect:none;fill:#4a86cf;fill-opacity:1;stroke:none;stroke-width:26.06693268;stroke-linecap:butt;stroke-linejoin:miter;stroke-miterlimit:4;stroke-dasharray:none;stroke-dashoffset:0;stroke-opacity:1;marker:none;marker-start:none;marker-mid:none;marker-end:none;paint-order:normal;enable-background:new" />
    </clipPath>
  </defs>
  <sodipodi:namedview
     pagecolor="#ffffff"
     bordercolor="#666666"
     borderopacity="1"
     objecttolerance="10"
     gridtolerance="10"
     guidetolerance="10"
     inkscape:pageopacity="0"
     inkscape:pageshadow="2"
     inkscape:window-width="1920"
     inkscape:window-height="1016"
     id="namedview77"
     showgrid="false"
     inkscape:zoom="3.7565"
     inkscape:cx="-25.469838"
     inkscape:cy="9.1064079"
     inkscape:window-x="0"
     inkscape:window-y="27"
     inkscape:window-maximized="1"
     inkscape:current-layer="g2897" />
  <linearGradient
     id="linearGradient1329"
     gradientUnits="userSpaceOnUse"
     x1="11.823"
     x2="115.82"
     y1="268"
     y2="268">
    <stop
       offset="0"
       stop-color="#986a44"
       id="stop2" />
    <stop
       offset=".028846"
       stop-color="#cdab8f"
       id="stop4" />
    <stop
       offset=".057692"
       stop-color="#b5835a"
       id="stop6" />
    <stop
       offset=".94231"
       stop-color="#b5835a"
       id="stop8" />
    <stop
       offset=".97133"
       stop-color="#cdab8f"
       id="stop10" />
    <stop
       offset="1"
       stop-color="#986a44"
       id="stop12" />
  </linearGradient>
  <linearGradient
     id="linearGradient1610"
     gradientUnits="userSpaceOnUse"
     x1="70.586"
     x2="60"
     y1="223.255"
     y2="193">
    <stop
       offset="0"
       stop-color="#fff"
       id="stop15" />
    <stop
       offset="1"
       stop-color="#deddda"
       id="stop17" />
  </linearGradient>
  <linearGradient
     id="linearGradient1612"
     gradientUnits="userSpaceOnUse"
     x1="60"
     x2="68"
     y1="268"
     y2="268">
    <stop
       offset="0"
       stop-color="#949390"
       id="stop20" />
    <stop
       offset=".083333"
       stop-color="#d5d3cf"
       id="stop22" />
    <stop
       offset=".16667"
       stop-color="#949390"
       id="stop24" />
    <stop
       offset=".83333"
       stop-color="#949390"
       id="stop26" />
    <stop
       offset=".91667"
       stop-color="#d5d3cf"
       id="stop28" />
    <stop
       offset="1"
       stop-color="#949390"
       id="stop30" />
  </linearGradient>
  <g
     transform="matrix(0.26223653,0,0,0.26223653,-1.674864,52.081414)"
     id="g1881"
     style="display:inline;stroke-width:0.25;enable-background:new">
    <g
       id="g1877"
       style="stroke-width:0.25">
      <path
         sodipodi:nodetypes="sccssssss"
         inkscape:connector-curvature="0"
         id="path1871"
         d="m 111.82842,-178.55025 h 200 L 432,-58.878679 432.005,237.36136 c 3.1e-4,17.728 -14.44878,32.08839 -32.17678,32.08839 h -288 c -17.72799,0 -31.999992,-14.272 -31.999992,-32 v -384 c 0,-17.728 14.272002,-32 31.999992,-32 z"
         clip-path="none"
         style="display:inline;opacity:0.4;fill:#000000;fill-opacity:1;stroke:none;stroke-width:0.5;stroke-linejoin:round;stroke-miterlimit:4;stroke-dasharray:none;stroke-opacity:1;filter:url(#filter16020);enable-background:new" />
      <path
         style="display:inline;opacity:1;fill:#f9f06b;fill-opacity:1;stroke:none;stroke-width:0.5;stroke-linejoin:round;stroke-miterlimit:4;stroke-dasharray:none;stroke-opacity:1;enable-background:new"
         clip-path="none"
         d="m 111.82842,-179.67158 h 200 L 432,-60 l 0.005,296.24003 c 3.1e-4,17.728 -14.44878,32.08839 -32.17678,32.08839 h -288 c -17.727992,0 -31.999992,-14.272 -31.999992,-32 v -384 c 0,-17.728 14.272,-32 31.999992,-32 z"
         id="path1873"
         inkscape:connector-curvature="0"
         sodipodi:nodetypes="sccssssss" />
      <path
         inkscape:connector-curvature="0"
         style="display:inline;opacity:0.5;vector-effect:none;fill:#ffffff;fill-opacity:1;stroke:none;stroke-width:0.5;stroke-linecap:butt;stroke-linejoin:round;stroke-miterlimit:4;stroke-dasharray:none;stroke-dashoffset:0;stroke-opacity:1;enable-background:new"
         d="m 311.82842,-179.67158 v 88.000008 c 0,17.728 14.44211,31.693795 32.17011,31.693795 L 432,-60 Z"
         id="path1875"
         sodipodi:nodetypes="csccc" />
      <g
         style="enable-background:new"
         id="g1232"
         transform="matrix(3.8133513,0,0,3.8133513,-1006.7983,-179.14207)">
        <g
           id="g1147"
           transform="translate(0.17678,-172)"
           style="enable-background:new">
          <g
             id="g1248"
             transform="translate(-1.3816867,0.6716051)">
            <path
               style="fill:#8a8a8a;fill-opacity:1"
               inkscape:connector-curvature="0"
               d="m 330.33488,227.6715 h 2 v 60 h -2 z"
               id="path1113" />
            <path
               style="fill:#ededed;fill-opacity:1"
               inkscape:connector-curvature="0"
               d="m 332.33488,287.6715 h 2 v -60 h -2 z"
               id="path1115" />
            <g
               style="enable-background:new"
               transform="translate(268.33488,52.671502)"
               id="g1121">
              <path
                 style="fill:url(#linearGradient1610)"
                 inkscape:connector-curvature="0"
                 d="m 60,178 v 4 h 4 v -2 h 4 v -2 h -4 z m 4,4 v 2 h -4 v 4 h 4 v -2 h 4 v -4 z m 0,6 v 2 h -4 v 4 h 4 v -2 h 4 v -4 z m 0,6 v 2 h -4 v 4 h 4 v -2 h 4 v -2 -2 z m 0,6 v 2 h -4 v 4 h 4 v -2 h 4 v -4 z m 0,6 v 2 h -4 v 4 h 4 v -2 h 4 v -4 z m 0,6 v 2 h -4 v 4 h 4 v -2 h 4 v -2 -2 z m 0,6 v 2 h -4 v 4 h 4 v -2 h 4 v -4 z m 0,6 v 2 h -4 v 4 h 4 v -2 h 4 v -4 z m 0,6 v 2 h -4 v 4 h 4 v -2 h 4 v -2 -2 z"
                 id="path1117" />
              <path
                 style="opacity:0.4;fill:#241f31"
                 inkscape:connector-curvature="0"
                 d="m 64,179 v 1 h 4 v -1 z m -4,2 v 1 h 4 v -1 z m 4,4 v 1 h 4 v -1 z m -4,2 v 1 h 4 v -1 z m 4,4 v 1 h 4 v -1 z m -4,2 v 1 h 4 v -1 z m 4,4 v 1 h 4 v -1 z m -4,2 v 1 h 4 v -1 z m 4,4 v 1 h 4 v -1 z m -4,2 v 1 h 4 v -1 z m 4,4 v 1 h 4 v -1 z m -4,2 v 1 h 4 v -1 z m 4,4 v 1 h 4 v -1 z m -4,2 v 1 h 4 v -1 z m 4,4 v 1 h 4 v -1 z m -4,2 v 1 h 4 v -1 z m 4,4 v 1 h 4 v -1 z m -4,2 v 1 h 4 v -1 z m 4,4 v 1 h 4 v -1 z m -4,2 v 1 h 4 v -1 z"
                 id="path1119" />
            </g>
            <path
               style="opacity:0.1"
               inkscape:connector-curvature="0"
               d="m 328.33488,221.6715 c -2.216,0 -4,1.784 -4,4 v 10 c 0,2.216 1.784,4 4,4 v 8 c 0,1.108 0.892,2 2,2 h 4 c 1.108,0 2,-0.892 2,-2 v -8 c 2.216,0 4,-1.784 4,-4 v -10 c 0,-2.216 -1.784,-4 -4,-4 z m 2,22 h 4 v 4 h -4 z"
               id="path1123" />
            <g
               style="enable-background:new"
               transform="translate(268.33488,-30.328498)"
               id="g1139">
              <path
                 style="fill:url(#linearGradient1612)"
                 inkscape:connector-curvature="0"
                 d="m 62,258 c -1.108,0 -2,0.892 -2,2 v 16 c 0,1.108 0.892,2 2,2 h 4 c 1.108,0 2,-0.892 2,-2 v -16 c 0,-1.108 -0.892,-2 -2,-2 z m 0,14 h 4 v 4 h -4 z"
                 id="path1125" />
              <rect
                 style="fill:#3d3846"
                 height="18"
                 rx="4"
                 width="16"
                 x="56"
                 y="250"
                 id="rect1127" />
              <rect
                 style="fill:#5e5c64"
                 height="18"
                 rx="4"
                 width="16"
                 x="56"
                 y="248"
                 id="rect1129" />
              <path
                 style="fill:#ffffff"
                 inkscape:connector-curvature="0"
                 d="m 62,254 c -1.108,0 -2,0.892 -2,2 v 18 c 0,1.108 0.892,2 2,2 h 4 c 1.108,0 2,-0.892 2,-2 v -18 c 0,-1.108 -0.892,-2 -2,-2 z m 0,16 h 4 v 4 h -4 z"
                 id="path1131" />
              <g
                 transform="scale(1,-1)"
                 id="g1137">
                <rect
                   style="fill:#68676b"
                   height="10"
                   rx="2"
                   width="4"
                   x="62"
                   y="-260"
                   id="rect1133" />
                <rect
                   style="fill:#949390"
                   height="8"
                   rx="2"
                   width="4"
                   x="62"
                   y="-258"
                   id="rect1135" />
              </g>
            </g>
            <g
               id="g2899"
               transform="matrix(3.7797135,0,0,3.7797135,0.74814391,157.11746)"
               style="stroke-width:0.25;enable-background:new">
              <g
                 id="g2897"
                 transform="matrix(0.13297834,0,0,0.13297834,2.4195611,28.614877)">
                <path
                   id="path2895"
                   d="m 574.05918,-7.292056 v -4.05886 l -22.5492,8.3754203 v 3.83336 l 22.5492,8.40763 v -4.09107 l -4.92862,-1.77172 v -8.92304 z m -8.40763,2.9958203 v 6.47484 l -6.76476,-2.51262 c -0.64427,-0.2255 -1.61066,-0.54763 -2.28714,-0.7409 0.67648,-0.16107 1.64287,-0.4832 2.28714,-0.74091 z m 8.40763,-10.5085603 v -3.86558 h -8.53649 v -5.50845 c 0,-5.41181 -3.80115,-7.57009 -7.02246,-7.57009 -3.4468,0 -6.99025,1.965 -6.99025,7.57009 v 9.37403 z m -12.20879,-9.56731 v 5.70173 h -6.66811 v -5.70173 c 0,-2.64148 1.90057,-3.38238 3.31795,-3.38238 1.57845,0 3.35016,0.90197 3.35016,3.38238 z m 12.20879,-10.91188 v -3.86558 h -8.53649 v -5.50844 c 0,-5.41181 -3.80115,-7.57009 -7.02246,-7.57009 -3.4468,0 -6.99025,1.965 -6.99025,7.57009 v 9.37402 z m -12.20879,-9.5673 v 5.70172 h -6.66811 v -5.70172 c 0,-2.64148 1.90057,-3.38238 3.31795,-3.38238 1.57845,0 3.35016,0.90197 3.35016,3.38238 z m 12.20879,-11.07273 v -3.865575 h -22.5492 v 3.865575 z m 0,-30.016195 h -22.5492 v 3.76893 l 13.23959,5.83058 c 0.54763,0.22549 1.15968,0.45099 1.67509,0.61205 -0.51541,0.16107 -1.12746,0.38656 -1.67509,0.61205 l -13.23959,5.79836 v 3.89779 h 22.5492 v -3.86558 h -11.9833 c -0.80532,0 -2.09385,0.0644 -2.70589,0.12885 0.86975,-0.28992 1.93278,-0.70868 2.70589,-1.06303 l 12.36985,-5.47623 -12.30542,-5.47623 c -0.80532,-0.32213 -1.90057,-0.7409 -2.77032,-1.03082 0.61204,0.0644 1.90057,0.12885 2.70589,0.12885 h 11.9833 z m 0,-20.004359 v -4.05885 l -22.5492,8.37541 v 3.833363 l 22.5492,8.407626 v -4.09107 l -4.92862,-1.77171 v -8.923049 z m -8.40763,2.99582 v 6.474843 l -6.76476,-2.51262 c -0.64427,-0.2255 -1.61066,-0.54763 -2.28714,-0.74091 0.67648,-0.16106 1.64287,-0.483193 2.28714,-0.740903 z m 8.79418,-18.6804 c 0,-4.6709 -3.09246,-8.27877 -8.8264,-8.27877 h -3.12467 v 7.89222 h 3.64008 v -3.96222 h 0.35435 c 2.35155,0 4.21992,1.83615 4.21992,4.34877 0,4.18771 -3.86558,5.89501 -7.92444,5.89501 -3.51123,0 -7.92443,-1.35296 -7.92443,-5.89501 0,-2.12606 1.28853,-3.4468 2.77034,-4.44541 l -1.96501,-3.44681 c -2.35155,1.48181 -4.54205,3.54345 -4.54205,7.89222 0,6.76476 6.15271,9.88943 11.66115,9.88943 5.89501,0 11.66116,-2.93139 11.66116,-9.88943 z m -0.38655,-12.87344 v -15.39788 h -3.64009 v 11.53232 h -6.18492 v -6.66812 h -3.64009 v 6.66812 h -5.44402 v -10.82362 h -3.64008 v 14.68919 z"
                   inkscape:connector-curvature="0"
                   style="fill:#ffbe00;stroke-width:0.26844299;fill-opacity:1" />
              </g>
            </g>
          </g>
        </g>
      </g>
    </g>
    <g
       id="g1879"
       transform="translate(-3,-2.5)"
       style="stroke-width:0.25" />
  </g>
</svg>
