<svg height="256" viewBox="0 0 67.73 67.73" width="256" xmlns="http://www.w3.org/2000/svg" xmlns:xlink="http://www.w3.org/1999/xlink"><linearGradient id="a" gradientTransform="matrix(.37756252 0 0 .12585417 6.092584 -7.570099)" gradientUnits="userSpaceOnUse" x1="17" x2="18.607695" xlink:href="#b" y1="253" y2="259"/><linearGradient id="b"><stop offset="0" stop-color="#f9f06b"/><stop offset=".51232266" stop-color="#fcf7ac"/><stop offset="1" stop-color="#f9f06b"/></linearGradient><linearGradient id="c" gradientUnits="userSpaceOnUse" x1="12.51114684" x2="13.11815221559" xlink:href="#b" y1="25.52954756" y2="27.79492268"/><linearGradient id="d" gradientTransform="matrix(.37756252 0 0 .12585417 6.092584 2.669207)" gradientUnits="userSpaceOnUse" x1="17" x2="18.607695" xlink:href="#b" y1="253" y2="259"/><linearGradient id="e" gradientUnits="userSpaceOnUse" x1="12.51114684" x2="13.11815221559" xlink:href="#b" y1="35.76885556" y2="38.03423068"/><linearGradient id="f" gradientUnits="userSpaceOnUse" x1="24.71662824" x2="24.71662824" xlink:href="#g" y1="40.46583148" y2="42.35364408"/><linearGradient id="g"><stop offset="0" stop-color="#d5d1cc"/><stop offset=".18252392" stop-color="#f6f5f4"/><stop offset=".39465594" stop-color="#fff"/><stop offset=".78356469" stop-color="#d7d3ce"/><stop offset="1" stop-color="#c8c2bb"/></linearGradient><linearGradient id="h" gradientTransform="matrix(.37756252 0 0 -.37756252 22.25891 118.6189)" gradientUnits="userSpaceOnUse" x1="37" x2="37" xlink:href="#g" y1="249" y2="254"/><linearGradient id="i" gradientUnits="userSpaceOnUse" x1="36.22872324" x2="36.22872324" xlink:href="#g" y1="27.62632548" y2="29.51413808"/><linearGradient id="j" gradientTransform="matrix(.37756252 0 0 .12585417 13.767314 -.940196)" gradientUnits="userSpaceOnUse" x1="17" x2="18.607695" xlink:href="#b" y1="253" y2="259"/><linearGradient id="k" gradientUnits="userSpaceOnUse" x1="20.18587684" x2="20.79288221559" xlink:href="#b" y1="32.15945056" y2="34.42482568"/><linearGradient id="l" gradientTransform="matrix(.37756252 0 0 .12585417 13.767314 3.590555)" gradientUnits="userSpaceOnUse" x1="17" x2="18.607695" xlink:href="#b" y1="253" y2="259"/><linearGradient id="m" gradientTransform="matrix(.37756252 0 0 .12585417 6.092584 8.121305)" gradientUnits="userSpaceOnUse" x1="17" x2="18.607695" xlink:href="#b" y1="253" y2="259"/><linearGradient id="n" gradientUnits="userSpaceOnUse" x1="12.51114684" x2="13.11815221559" xlink:href="#b" y1="41.22095256" y2="43.48632768"/><linearGradient id="o" gradientUnits="userSpaceOnUse" x1="32.26787824" x2="32.26787824" xlink:href="#g" y1="30.08285948" y2="31.97067208"/><linearGradient id="p" gradientTransform="matrix(.09439063 0 0 .09424023 10.933577 32.309807)" gradientUnits="userSpaceOnUse" x1="94.021408" x2="94.021393" xlink:href="#b" y1="194.21944" y2="234.21944"/><filter id="q" color-interpolation-filters="sRGB" height="1.027261" width="1.021436" x="-.010718" y="-.01363"><feGaussianBlur stdDeviation="2.0006923"/></filter><path d="m36.801661 4.8016614h383.999999c17.728 0 32 14.2719996 32 31.9999996v200.276899l-120.0003 120h-295.999699c-17.728 0-31.9999999-14.272-31.9999999-32v-288.276899c0-17.728 14.2719999-31.9999996 31.9999999-31.9999996z" filter="url(#q)" opacity=".4" transform="matrix(.132978 0 0 .132978 3.703984 9.025082)"/><path d="m8.5977954 9.5306196h51.0635516c2.357433 0 4.255296 1.8978624 4.255296 4.2552964v26.632421l-15.957401 15.95736h-39.3614466c-2.357433 0-4.255296-1.897863-4.255296-4.255296v-38.334485c0-2.357434 1.897863-4.2552964 4.255296-4.2552964z" fill="#2ec27e"/><path d="m63.916683 40.484773-11.7021.000053c-2.357488 0-4.255266 1.897809-4.255286 4.255243l-.000015 11.635628z" fill="#deddda"/><path d="m18.675628 52.497899v-4.480819l2.265376-2.265374h1.887813l1.887812-1.887813v-4.578191" fill="none" stroke="#f9f06b" stroke-width=".755125"/><path d="m22.451254 51.792706v-1.887813-1.132687l3.775625-3.775625v-4.205186" fill="none" stroke="#f9f06b" stroke-width=".755125"/><path d="m18.675555 49.482138c-.627509 0-1.132651.504324-1.132651 1.130832v5.277564c0 .143712.02782.280482.07636.406727h2.112843c.04854-.126245.0761-.263015.0761-.406727v-5.277564c0-.626508-.505141-1.130832-1.132649-1.130832zm3.775587 0c-.62751 0-1.13265.504324-1.13265 1.130832v5.277564c0 .143712.02782.280482.07636.406727h2.112844c.04854-.126245.07636-.263015.07636-.406727v-5.277564c0-.626508-.505401-1.130832-1.132911-1.130832zm3.775849 0c-.62751 0-1.132912.504324-1.132912 1.130832v5.277564c0 .143712.02782.280482.07636.406727h2.112844c.04854-.126245.07636-.263015.07636-.406727v-5.277564c0-.626508-.50514-1.130832-1.132649-1.130832zm3.775587 0c-.62751 0-1.132649.504324-1.132649 1.130832v5.277564c0 .143712.02756.280482.0761.406727h2.112843c.04854-.126245.07636-.263015.07636-.406727v-5.277564c0-.626508-.505142-1.130832-1.132651-1.130832zm3.775588 0c-.627509 0-1.13265.504324-1.13265 1.130832v5.277564c0 .143712.02756.280482.0761.406727h2.113103c.04853-.126231.0761-.263036.0761-.406727v-5.277564c0-.626508-.505142-1.130832-1.132651-1.130832zm3.775589 0c-.62751 0-1.132651.504324-1.132651 1.130832v5.277564c0 .143691.02757.280496.0761.406727h2.113103c.04853-.126231.0761-.263036.0761-.406727v-5.277564c0-.626508-.505141-1.130832-1.132652-1.130832zm3.775588 0c-.62751 0-1.132651.504324-1.132651 1.130832v5.277564c0 .143691.02757.280496.0761.406727h2.113103c.04854-.126245.0761-.263015.0761-.406727v-5.277564c0-.626508-.505142-1.130832-1.132652-1.130832zm3.775589 0c-.62751 0-1.132651.504324-1.132651 1.130832v5.277564c0 .143712.02781.280482.07636.406727h2.112843c.04854-.126245.0761-.263015.0761-.406727v-5.277564c0-.626508-.505141-1.130832-1.132649-1.130832z" fill="url(#p)" stroke-dasharray=".755125 .755125" stroke-width=".755125"/><path d="m33.778129 50.660018v-1.887812l-3.020499-3.0205v-4.908313" fill="none" stroke="#f9f06b" stroke-width=".755125"/><path d="m30.002505 50.660018v-2.642938l-.755126-.755125v-6.418562" fill="none" stroke="#f9f06b" stroke-width=".755125"/><path d="m26.226879 50.660018v-3.398063l1.51025-1.510249v-4.908313" fill="none" stroke="#f9f06b" stroke-width=".755125"/><rect fill="#3d3846" height="8.683939" rx="1.132688" width="11.326877" x="22.828815" y="32.159454"/><path d="m26.982004 26.118454h4.153187l1.132688 1.132688v4.53075" fill="none" stroke="#f9f06b" stroke-width=".755125"/><path d="m30.75763 31.781892v-4.153187l-1.510251-1.510251" fill="none" stroke="#f9f06b" stroke-width=".755125"/><path d="m29.247379 31.781892v-3.775625l-1.887812-1.887813" fill="none" stroke="#f9f06b" stroke-width=".755125"/><path d="m27.737129 31.781892v-2.642937l-.755125-.755125h-4.153187" fill="none" stroke="#f9f06b" stroke-width=".755125"/><path d="m26.226879 31.781892v-3.0205" fill="none" stroke="#f9f06b" stroke-width=".755125"/><path d="m24.716629 31.781892v-3.0205" fill="none" stroke="#f9f06b" stroke-width=".755125"/><path d="m24.716629 29.892838c-.20917 0-.377563.168392-.377563.377563v1.511491h.755125v-1.511491c0-.209171-.168392-.377563-.377562-.377563zm1.51025 0c-.20917 0-.377563.168392-.377563.377563v1.511491h.755125v-1.511491c0-.209171-.168393-.377563-.377562-.377563zm1.51025 0c-.209169 0-.377562.168392-.377562.377563v1.511491h.755125v-1.511491c0-.209171-.168392-.377563-.377563-.377563zm1.51025 0c-.209169 0-.377562.168392-.377562.377563v1.511491h.755125v-1.511491c0-.209171-.168393-.377563-.377563-.377563zm1.510251 0c-.209171 0-.377564.168392-.377564.377563v1.511491h.755125v-1.511491c0-.209171-.168392-.377563-.377561-.377563zm1.510249 0c-.209168 0-.377563.168392-.377563.377563v1.511491h.755127v-1.511491c0-.209171-.168394-.377563-.377564-.377563z" fill="url(#o)"/><rect fill="#5e5c64" height="9.061502" rx="1.132688" width="11.326877" x="22.828815" y="31.026764"/><path d="m32.267879 40.843393v2.642938l5.285876 5.285875v1.51025" fill="none" stroke="#f9f06b" stroke-width=".755125"/><path d="m24.339066 33.292145h5.663438v.755131h-5.663438z" fill="#77767b"/><path d="m24.339066 34.802395h3.0205v1.510256h-3.0205z" fill="#77767b"/><path d="m27.737129 34.802395h4.153188v1.510256h-4.153188z" fill="#77767b"/><g fill="none" stroke="#f9f06b"><circle cx="39.064007" cy="41.220955" r=".755125" stroke-width=".755125"/><circle cx="38.494099" cy="31.779516" r=".755125" stroke-width=".755125"/><circle cx="43.024849" cy="31.779516" r=".755125" stroke-width=".755125"/><circle cx="43.024849" cy="28.759016" r=".755125" stroke-width=".755125"/><path d="m39.064004 41.97608v.755125l2.265377 2.265376v5.663437" stroke-width=".755125"/><path d="m38.4941 32.534642v.755126l.755125.755125h3.0205l.755125-.755125v-.755126" stroke-width=".755125"/><circle cx="26.226879" cy="26.118454" r=".755125" stroke-width=".755125"/><circle cx="22.07369" cy="28.383827" r=".755125" stroke-width=".755125"/></g><path d="m10.623337 41.598522h3.0205v2.265375h-3.0205z" fill="url(#n)"/><path d="m10.623337 40.088268h3.0205v.755125h-3.0205z" fill="url(#m)"/><path d="m18.298065 35.557518h3.0205v.755125h-3.0205z" fill="url(#l)"/><path d="m18.298065 32.537018h3.0205v2.265375h-3.0205z" fill="url(#k)"/><path d="m18.298065 31.026764h3.0205v.755125h-3.0205z" fill="url(#j)"/><circle cx="-23.471373" cy="43.024849" fill="none" r=".755125" stroke="#f9f06b" stroke-width=".755125" transform="rotate(-90)"/><circle cx="-18.940622" cy="43.024849" fill="none" r=".755125" stroke="#f9f06b" stroke-width=".755125" transform="rotate(-90)"/><circle cx="-18.940622" cy="40.004349" fill="none" r=".755125" stroke="#f9f06b" stroke-width=".755125" transform="rotate(-90)"/><path d="m43.779971 23.471375.755125.000004.755125-.755129v-3.0205l-.755125-.755125h-.755125" fill="none" stroke="#f9f06b" stroke-width=".755125"/><rect fill="#3d3846" height="4.153188" rx=".755125" width="5.285875" x="35.096035" y="24.228266"/><path d="m35.851162 28.003893v1.132687c0 .20917.168392.377563.377562.377563s.377563-.168393.377563-.377563v-1.132687zm1.51025 0v1.132687c0 .20917.168392.377563.377563.377563.209169 0 .377561-.168393.377561-.377563v-1.132687zm1.510249 0v1.132687c0 .20917.168394.377563.377564.377563.209168 0 .377563-.168393.377563-.377563v-1.132687z" fill="url(#i)"/><path d="m35.851162 24.228267v-1.132688c0-.209169.168392-.377562.377562-.377562s.377563.168393.377563.377562v1.132688zm1.51025 0v-1.132688c0-.209169.168392-.377562.377563-.377562.209169 0 .377561.168393.377561.377562v1.132688zm1.510249 0v-1.132688c0-.209169.168394-.377562.377564-.377562.209168 0 .377563.168393.377563.377562v1.132688z" fill="url(#h)"/><rect fill="#5e5c64" height="4.530751" rx=".755125" width="5.285875" x="35.096035" y="23.095577"/><path d="m35.851162 23.850702h3.0205v.755125h-3.0205z" fill="#77767b"/><path d="m35.851162 25.360952h1.51025v.755125h-1.51025z" fill="#77767b"/><g enable-background="new" transform="matrix(.37756252 0 0 .37756252 21.503785 -47.131051)"><path d="m66 218h6v6h-6z" fill="#986a44"/><path d="m66 218h6v4h-6z" fill="#b5835a"/><path d="m66 218h2v4h-2z" fill="#f6f5f4"/><path d="m66-224h2v2h-2z" fill="#c0bfbc" transform="scale(1 -1)"/><path d="m72 218h2v4h-2z" fill="#f6f5f4"/><path d="m72-224h2v2h-2z" fill="#c0bfbc" transform="scale(1 -1)"/></g><g enable-background="new" transform="matrix(.37756252 0 0 .37756252 21.503785 -49.396424)"><path d="m66 218h6v6h-6z" fill="#986a44"/><path d="m66 218h6v4h-6z" fill="#b5835a"/><path d="m66 218h2v4h-2z" fill="#f6f5f4"/><path d="m66-224h2v2h-2z" fill="#c0bfbc" transform="scale(1 -1)"/><path d="m72 218h2v4h-2z" fill="#f6f5f4"/><path d="m72-224h2v2h-2z" fill="#c0bfbc" transform="scale(1 -1)"/></g><g enable-background="new" transform="matrix(.37756252 0 0 .37756252 21.503785 -51.661802)"><path d="m66 218h6v6h-6z" fill="#986a44"/><path d="m66 218h6v4h-6z" fill="#b5835a"/><path d="m66 218h2v4h-2z" fill="#f6f5f4"/><path d="m66-224h2v2h-2z" fill="#c0bfbc" transform="scale(1 -1)"/><path d="m72 218h2v4h-2z" fill="#f6f5f4"/><path d="m72-224h2v2h-2z" fill="#c0bfbc" transform="scale(1 -1)"/></g><g enable-background="new" transform="matrix(0 -.37756252 .37756252 0 -70.621471 42.54836)"><path d="m66 218h8v4h-8z" fill="#986a44"/><path d="m66 218h8v2h-8z" fill="#b5835a"/><g fill="#f6f5f4"><path d="m66 218h2v4h-2z"/><path d="m72 218h2v4h-2z"/></g></g><g enable-background="new" transform="matrix(0 -.37756252 .37756252 0 -66.09072 42.54836)"><path d="m66 218h8v4h-8z" fill="#986a44"/><path d="m66 218h8v2h-8z" fill="#b5835a"/><g fill="#f6f5f4"><path d="m66 218h2v4h-2z"/><path d="m72 218h2v4h-2z"/></g></g><g enable-background="new" transform="matrix(0 -.37756252 .37756252 0 -68.356098 42.54836)"><path d="m66 218h8v4h-8z" fill="#986a44"/><path d="m66 218h8v2h-8z" fill="#b5835a"/><g fill="#f6f5f4"><path d="m66 218h2v4h-2z"/><path d="m72 218h2v4h-2z"/></g></g><path d="m24.339066 40.46583v1.51025c0 .20917.168393.377563.377563.377563s.377562-.168393.377562-.377563v-1.51025zm1.51025 0v1.51025c0 .20917.168393.377563.377563.377563.209169 0 .377562-.168393.377562-.377563v-1.51025zm1.510251 0v1.51025c0 .20917.168393.377563.377562.377563.209171 0 .377563-.168393.377563-.377563v-1.51025zm1.51025 0v1.51025c0 .20917.168393.377563.377562.377563.20917 0 .377563-.168393.377563-.377563v-1.51025zm1.510249 0v1.51025c0 .20917.168393.377563.377564.377563.209169 0 .377561-.168393.377561-.377563v-1.51025zm1.51025 0v1.51025c0 .20917.168395.377563.377563.377563.20917 0 .377564-.168393.377564-.377563v-1.51025z" fill="url(#f)"/><g enable-background="new" transform="matrix(.37756252 0 0 .37756252 31.211179 -47.131051)"><path d="m66 218h6v6h-6z" fill="#986a44"/><path d="m66 218h6v4h-6z" fill="#b5835a"/><path d="m66 218h2v4h-2z" fill="#f6f5f4"/><path d="m66-224h2v2h-2z" fill="#c0bfbc" transform="scale(1 -1)"/><path d="m72 218h2v4h-2z" fill="#f6f5f4"/><path d="m72-224h2v2h-2z" fill="#c0bfbc" transform="scale(1 -1)"/></g><g enable-background="new" transform="matrix(.37756252 0 0 .37756252 31.211179 -49.396424)"><path d="m66 218h6v6h-6z" fill="#986a44"/><path d="m66 218h6v4h-6z" fill="#b5835a"/><path d="m66 218h2v4h-2z" fill="#f6f5f4"/><path d="m66-224h2v2h-2z" fill="#c0bfbc" transform="scale(1 -1)"/><path d="m72 218h2v4h-2z" fill="#f6f5f4"/><path d="m72-224h2v2h-2z" fill="#c0bfbc" transform="scale(1 -1)"/></g><g enable-background="new" transform="matrix(.37756252 0 0 .37756252 31.211179 -51.661802)"><path d="m66 218h6v6h-6z" fill="#986a44"/><path d="m66 218h6v4h-6z" fill="#b5835a"/><path d="m66 218h2v4h-2z" fill="#f6f5f4"/><path d="m66-224h2v2h-2z" fill="#c0bfbc" transform="scale(1 -1)"/><path d="m72 218h2v4h-2z" fill="#f6f5f4"/><path d="m72-224h2v2h-2z" fill="#c0bfbc" transform="scale(1 -1)"/></g><g enable-background="new" transform="matrix(.37756252 0 0 .37756252 26.158015 -47.131051)"><path d="m66 218h6v6h-6z" fill="#986a44"/><path d="m66 218h6v4h-6z" fill="#b5835a"/><path d="m66 218h2v4h-2z" fill="#f6f5f4"/><path d="m66-224h2v2h-2z" fill="#c0bfbc" transform="scale(1 -1)"/><path d="m72 218h2v4h-2z" fill="#f6f5f4"/><path d="m72-224h2v2h-2z" fill="#c0bfbc" transform="scale(1 -1)"/></g><g enable-background="new" transform="matrix(.37756252 0 0 .37756252 26.158015 -49.396424)"><path d="m66 218h6v6h-6z" fill="#986a44"/><path d="m66 218h6v4h-6z" fill="#b5835a"/><path d="m66 218h2v4h-2z" fill="#f6f5f4"/><path d="m66-224h2v2h-2z" fill="#c0bfbc" transform="scale(1 -1)"/><path d="m72 218h2v4h-2z" fill="#f6f5f4"/><path d="m72-224h2v2h-2z" fill="#c0bfbc" transform="scale(1 -1)"/></g><g enable-background="new" transform="matrix(.37756252 0 0 .37756252 26.158015 -51.661802)"><path d="m66 218h6v6h-6z" fill="#986a44"/><path d="m66 218h6v4h-6z" fill="#b5835a"/><path d="m66 218h2v4h-2z" fill="#f6f5f4"/><path d="m66-224h2v2h-2z" fill="#c0bfbc" transform="scale(1 -1)"/><path d="m72 218h2v4h-2z" fill="#f6f5f4"/><path d="m72-224h2v2h-2z" fill="#c0bfbc" transform="scale(1 -1)"/></g><path d="m10.623337 36.146423h3.0205v2.265375h-3.0205z" fill="url(#e)"/><path d="m10.623337 34.636173h3.0205v.755125h-3.0205z" fill="url(#d)"/><path d="m10.623337 25.907114h3.0205v2.265375h-3.0205z" fill="url(#c)"/><path d="m10.623337 24.396862h3.0205v.755125h-3.0205z" fill="url(#a)"/></svg>