<svg height="256" viewBox="0 0 67.73 67.73" width="256" xmlns="http://www.w3.org/2000/svg" xmlns:xlink="http://www.w3.org/1999/xlink">
  <filter id="filter16020-3" color-interpolation-filters="sRGB" height="1.021433" width="1.027265" x="-.013633" y="-.010717">
    <feGaussianBlur stdDeviation="2.0004419"/>
  </filter>
  <g enable-background="new" stroke-width=".25" transform="matrix(.13297834 0 0 .13297834 .605824 28.61487660106)">
    <path d="m111.82842-178.55025h200l120.17158 119.671571.005 296.240039c.00031 17.728-14.44878 32.08839-32.17678 32.08839h-288c-17.72799 0-31.999992-14.272-31.999992-32v-384c0-17.728 14.272002-32 31.999992-32z" filter="url(#filter16020-3)" opacity=".4"/>
    <path d="m111.82842-179.67158h200l120.17158 119.67158.005 296.24003c.00031 17.728-14.44878 32.08839-32.17678 32.08839h-288c-17.727992 0-31.999992-14.272-31.999992-32v-384c0-17.728 14.272-32 31.999992-32z" fill="#f6f5f4"/>
    <path d="m311.82842-175.69243v88.000007c0 17.728 14.44211 31.693795 32.17011 31.693795l88.00147-.022223v-3.979149z" opacity=".25"/>
    <path d="m311.82842-179.67158v88.000008c0 17.728 14.44211 31.693795 32.17011 31.693795l88.00147-.022223z" fill="#deddda"/>
    <g transform="matrix(7.5200217 0 0 7.5200217 -389.9314 -1927.6428)">
      <path d="m85.883493 272.73571-9.977017-9.97782 9.977017-9.97641 3.325942 3.32533-6.651882 6.65108 3.325739 3.32594 9.977017-9.97641-8.691147-8.69114c-.709698-.71031-1.860828-.71031-2.571132 0l-14.05696 14.05695c-.709697.7097-.709697 1.86083 0 2.57113l14.057162 14.05656c.710303.7103 1.861436.7103 2.571131 0l14.057167-14.05656c.70969-.7103.70969-1.86143 0-2.57113l-2.040684-2.04007z" fill="#1e1e1e" opacity=".1"/>
      <path d="m85.883493 272.20657-9.977017-9.97782 9.977017-9.97641 3.325942 3.32533-6.651882 6.65108 3.325739 3.32594 9.977017-9.97641-8.691147-8.69114c-.709698-.71031-1.860828-.71031-2.571132 0l-14.05696 14.05695c-.709697.7097-.709697 1.86083 0 2.57113l14.057162 14.05656c.710303.7103 1.861436.7103 2.571131 0l14.057167-14.05656c.70969-.7103.70969-1.86143 0-2.57113l-2.040684-2.04007z" fill="#81c733"/>
    </g>
  </g>
</svg>
