<svg height="256" viewBox="0 0 67.73 67.73" width="256" xmlns="http://www.w3.org/2000/svg" xmlns:xlink="http://www.w3.org/1999/xlink">
  <filter id="filter16020-3" color-interpolation-filters="sRGB" height="1.021433" width="1.027265" x="-.013633" y="-.010717">
    <feGaussianBlur stdDeviation="2.0004419"/>
  </filter>
  <g enable-background="new" stroke-width=".25">
    <g enable-background="new" stroke-width=".25" transform="matrix(.13297834 0 0 .13297834 .605824 28.61487660106)">
      <path d="m111.82842-178.55025h200l120.17158 119.671571.005 296.240039c.00031 17.728-14.44878 32.08839-32.17678 32.08839h-288c-17.72799 0-31.999992-14.272-31.999992-32v-384c0-17.728 14.272002-32 31.999992-32z" filter="url(#filter16020-3)" opacity=".4"/>
      <path d="m111.82842-179.67158h200l120.17158 119.67158.005 296.24003c.00031 17.728-14.44878 32.08839-32.17678 32.08839h-288c-17.727992 0-31.999992-14.272-31.999992-32v-384c0-17.728 14.272-32 31.999992-32z" fill="#f6f5f4"/>
      <path d="m311.82842-175.69243v88.000007c0 17.728 14.44211 31.693795 32.17011 31.693795l88.00147-.022223v-3.979149z" opacity=".25"/>
      <path d="m311.82842-179.67158v88.000008c0 17.728 14.44211 31.693795 32.17011 31.693795l88.00147-.022223z" fill="#deddda"/>
    </g>
    <g clip-rule="evenodd" fill-rule="evenodd" stroke-width=".678439" transform="matrix(.13297834 0 0 .13297834 -2.03987967508 29.12562153806)">
      <path d="m190.27062 81.152674h-12.0643l-4.33726-16.378508h-20.92536l-4.33728 16.375546h-12.06427l21.58689-74.4391895h10.55716l21.5869 74.4391895zm-28.46585-49.985412-5.84437 22.120324h14.89196l-5.84438-22.120324c-.62846-2.268306-1.16216-5.031121-1.60161-8.291424-.7543 4.323384-1.28826 7.0862-1.6016 8.291424zm60.42089 51.258742c-5.34201 0-10.14931-1.738237-14.4244-5.211749-4.27262-3.473512-7.28858-8.116702-9.04761-13.929589l10.18165-4.255279c1.44494 3.473513 3.43948 6.257062 5.98365 8.350647 2.54417 2.090622 5.29475 3.135933 8.24928 3.135933 2.88985 0 5.21517-.849873 6.97594-2.552567 1.75828-1.702709 2.63619-4.148666 2.63619-7.337915 0-2.694707-1.19375-5.08738-3.58122-7.177989-2.38751-2.093584-5.71756-4.201979-9.99017-6.328145-2.70333-1.347347-4.86949-2.517026-6.50342-3.509039-1.63394-.992013-3.4743-2.371939-5.51609-4.145719-2.04105-1.773764-3.56459-3.864387-4.57106-6.277778-1.00472-2.407484-1.5071-5.102191-1.5071-8.078215 0-5.528607 1.86944-10.192532 5.60811-13.98585 3.73791-3.7933327 8.65714-5.6885192 14.75271-5.6885192 4.83715 0 9.06251 1.489501 12.67607 4.4655251 3.61356 2.9789871 6.01846 6.7723191 7.21222 11.3799841l-10.08715 3.82886c-2.26066-5.176222-5.74989-7.764332-10.46269-7.764332-2.44965 0-4.46161.707734-6.03089 2.126165-1.57176 1.418416-2.35765 3.369862-2.35765 5.848414 0 .568557.0621 1.119344.189 1.649397.12684.533014.34569 1.030501.65906 1.489501.31585.458982.61429.8854.89532 1.273314.28101.39089.7212.817308 1.31808 1.279253.59687.458984 1.09923.832103 1.50959 1.116381.41036.281319 1.02216.654422 1.84036 1.116381.81572.458984 1.44244.796561 1.88263 1.009771.44019.213209 1.16391.586327 2.16865 1.116381 1.00721.533029 1.72844.906134 2.16863 1.116381 2.63865 1.347361 4.83964 2.605882 6.59793 3.775561 1.75828 1.16968 3.70806 2.712479 5.84437 4.625435 2.13631 1.915904 3.77024 4.184194 4.89933 6.807847 1.13155 2.620676 1.6986 5.493066 1.6986 8.61123 0 6.807847-2.12139 12.194313-6.36167 16.165314-4.24277 3.970999-9.41068 5.95501-15.50625 5.95501zm58.44127-.106561c-3.70808 0-7.05304-.743278-10.0399-2.232764-2.98436-1.489501-5.46635-3.455755-7.44597-5.901713-1.97963-2.448932-3.62849-5.353901-4.94907-8.720801-1.3206-3.366915-2.26314-6.843389-2.8277-10.423498-.56453-3.580124-.84554-7.281654-.84554-11.110515 0-4.678719.48742-9.197557 1.45984-13.559431.9724-4.358914 2.46458-8.436525 4.47654-12.229842 2.01197-3.790372 4.74513-6.837467 8.19953-9.1442609 3.45689-2.3038314 7.44847-3.4557407 11.97227-3.4557407 5.153 0 9.45794 1.489502 12.91482 4.4655256 3.45441 2.976025 5.96872 6.662745 7.54049 11.060162l-9.99264 5.421997c-1.38276-2.976025-2.87493-5.208789-4.47654-6.698287-1.6041-1.489487-3.59865-2.232764-5.98613-2.232764-3.39471 0-6.2224 1.418432-8.48305 4.252316-2.26315 2.836846-3.83491 6.150463-4.71281 9.943782-.87789 3.793333-1.31809 7.850196-1.31809 12.176543 0 7.018094 1.25592 13.168558 3.76775 18.448414 2.51434 5.282818 6.09556 7.924227 10.74371 7.924227 4.39945 0 7.92099-3.189233 10.55966-9.57066l10.17917 4.358913c-4.14577 11.48658-11.05956 17.228397-20.73634 17.228397zm76.34993-75.608886v11.163811h-13.8549v52.108617h13.8549v11.166761h-38.83402v-11.163797h13.76288v-52.10862h-13.76288v-11.1667763zm58.06572 0v11.163813h-13.85739v52.108617h13.85739v11.166759h-38.8365v-11.163797h13.76289v-52.10862h-13.76289v-11.1667763z" fill="#fff"/>
      <path d="m190.27062 76.510333h-12.0643l-4.33726-16.378508h-20.92536l-4.33728 16.375548h-12.06427l21.58689-74.4391912h10.55716l21.5869 74.4391912zm-28.46585-49.985412-5.84437 22.120324h14.89196l-5.84438-22.120324c-.62846-2.268306-1.16216-5.031121-1.60161-8.291424-.7543 4.323386-1.28826 7.086202-1.6016 8.291424zm60.42089 51.258742c-5.34201 0-10.14931-1.738235-14.4244-5.211748-4.27262-3.473512-7.28858-8.116703-9.04761-13.929589l10.18165-4.255279c1.44494 3.473513 3.43948 6.257061 5.98365 8.350646 2.54417 2.090622 5.29475 3.135933 8.24928 3.135933 2.88985 0 5.21517-.849873 6.97594-2.552567 1.75828-1.702709 2.63619-4.148665 2.63619-7.337914 0-2.694708-1.19375-5.087381-3.58122-7.177989-2.38751-2.093585-5.71756-4.201979-9.99017-6.328145-2.70333-1.347347-4.86949-2.517027-6.50342-3.50904-1.63394-.992013-3.4743-2.371939-5.51609-4.145718-2.04105-1.773765-3.56459-3.864387-4.57106-6.277778-1.00472-2.407483-1.5071-5.10219-1.5071-8.078216 0-5.528607 1.86944-10.192532 5.60811-13.9858502 3.73791-3.7933325 8.65714-5.68851838 14.75271-5.68851838 4.83715 0 9.06251 1.48950078 12.67607 4.46552468 3.61356 2.9789868 6.01846 6.7723199 7.21222 11.3799839l-10.08715 3.82886c-2.26066-5.176222-5.74989-7.764332-10.46269-7.764332-2.44965 0-4.46161.707736-6.03089 2.126165-1.57176 1.418418-2.35765 3.369864-2.35765 5.848414 0 .568557.0621 1.119344.189 1.649397.12684.533016.34569 1.030501.65906 1.489501.31585.458982.61429.8854.89532 1.273314.28101.390891.7212.817308 1.31808 1.279253.59687.458985 1.09923.832103 1.50959 1.116382.41036.281318 1.02216.654421 1.84036 1.11638.81572.458985 1.44244.796561 1.88263 1.009772.44019.213208 1.16391.586326 2.16865 1.11638 1.00721.53303 1.72844.906134 2.16863 1.116382 2.63865 1.347361 4.83964 2.605881 6.59793 3.775561 1.75828 1.169679 3.70806 2.712478 5.84437 4.625435 2.13631 1.915903 3.77024 4.184194 4.89933 6.807846 1.13155 2.620677 1.6986 5.493066 1.6986 8.61123 0 6.807847-2.12139 12.194314-6.36167 16.165314-4.24277 3.970999-9.41068 5.95501-15.50625 5.95501zm58.44127-.106561c-3.70808 0-7.05304-.743279-10.0399-2.232763-2.98436-1.489501-5.46635-3.455757-7.44597-5.901713-1.97963-2.448934-3.62849-5.353903-4.94907-8.720803-1.3206-3.366915-2.26314-6.843389-2.8277-10.423498-.56453-3.580123-.84554-7.281653-.84554-11.110514 0-4.67872.48742-9.197557 1.45984-13.559432.9724-4.358914 2.46458-8.436525 4.47654-12.229842 2.01197-3.7903721 4.74513-6.8374668 8.19953-9.1442603 3.45689-2.3038318 7.44847-3.45574128 11.97227-3.45574128 5.153 0 9.45794 1.48950188 12.91482 4.46552528 3.45441 2.9760252 5.96872 6.6627453 7.54049 11.0601633l-9.99264 5.421996c-1.38276-2.976024-2.87493-5.208787-4.47654-6.698287-1.6041-1.489487-3.59865-2.232763-5.98613-2.232763-3.39471 0-6.2224 1.418431-8.48305 4.252317-2.26315 2.836844-3.83491 6.150461-4.71281 9.943781-.87789 3.793332-1.31809 7.850195-1.31809 12.176543 0 7.018094 1.25592 13.168557 3.76775 18.448413 2.51434 5.282819 6.09556 7.924228 10.74371 7.924228 4.39945 0 7.92099-3.189234 10.55966-9.570661l10.17917 4.358913c-4.14577 11.48658-11.05956 17.228398-20.73634 17.228398zm76.34993-75.6088876v11.1638136h-13.8549v52.108616h13.8549v11.166761h-38.83402v-11.163797h13.76288v-52.10862h-13.76288v-11.1667758zm58.06572 0v11.1638136h-13.85739v52.108616h13.85739v11.166761h-38.8365v-11.163797h13.76289v-52.10862h-13.76289v-11.1667758z" fill="#3d3846"/>
    </g>
  </g>
</svg>
