<svg height="256" viewBox="0 0 67.73 67.73" width="256" xmlns="http://www.w3.org/2000/svg" xmlns:xlink="http://www.w3.org/1999/xlink">
  <filter id="filter16020-3" color-interpolation-filters="sRGB" height="1.021433" width="1.027265" x="-.013633" y="-.010717">
    <feGaussianBlur stdDeviation="2.0004419"/>
  </filter>
  <g enable-background="new" stroke-width=".25">
    <g enable-background="new" stroke-width=".25" transform="matrix(.13297834 0 0 .13297834 .605824 28.61487660106)">
      <path d="m111.82842-178.55025h200l120.17158 119.671571.005 296.240039c.00031 17.728-14.44878 32.08839-32.17678 32.08839h-288c-17.72799 0-31.999992-14.272-31.999992-32v-384c0-17.728 14.272002-32 31.999992-32z" filter="url(#filter16020-3)" opacity=".4"/>
      <path d="m111.82842-179.67158h200l120.17158 119.67158.005 296.24003c.00031 17.728-14.44878 32.08839-32.17678 32.08839h-288c-17.727992 0-31.999992-14.272-31.999992-32v-384c0-17.728 14.272-32 31.999992-32z" fill="#f6f5f4"/>
      <path d="m311.82842-175.69243v88.000007c0 17.728 14.44211 31.693795 32.17011 31.693795l88.00147-.022223v-3.979149z" opacity=".25"/>
      <path d="m311.82842-179.67158v88.000008c0 17.728 14.44211 31.693795 32.17011 31.693795l88.00147-.022223z" fill="#deddda"/>
    </g>
    <g stroke-width=".497394">
      <g transform="matrix(.13297834 0 0 .13297834 2.9437582167 28.614877)">
        <path d="m143.04515-10.175383v6.8064582h54.45152v-6.8064582zm-6.80643 20.419338v6.806424h47.64507v-6.806424zm0 20.419304v6.806424h74.87084v-6.806424z" opacity=".2"/>
        <path d="m134.53798-27.768136c-10.36961 0-18.71832 8.348714-18.71832 18.7183169v6.8080852c0-10.3696221 8.34872-18.7183271 18.71832-18.7183271h78.27343c10.36962 0 18.71833 8.348705 18.71833 18.7183271v-6.8080852c0-10.3696029-8.34871-18.7183169-18.71833-18.7183169z" opacity=".05"/>
        <path d="m212.81142 57.4455c10.36961 0 18.71832-8.34871 18.71832-18.71832v-6.80808c0 10.36962-8.34872 18.71833-18.71832 18.71833h-78.27343c-10.36962 0-18.71833-8.34871-18.71833-18.71833v6.80808c0 10.36961 8.34871 18.71832 18.71833 18.71832z" opacity=".2"/>
      </g>
      <g transform="matrix(.13297834 0 0 .13297834 20.40539936051 28.614877)">
        <path d="m143.04515-10.175383v6.8064582h54.45152v-6.8064582zm-6.80643 20.419338v6.806424h47.64507v-6.806424zm0 20.419304v6.806424h74.87084v-6.806424z" opacity=".2"/>
        <path d="m134.53798-27.768136c-10.36961 0-18.71832 8.348714-18.71832 18.7183169v6.8080852c0-10.3696221 8.34872-18.7183271 18.71832-18.7183271h78.27343c10.36962 0 18.71833 8.348705 18.71833 18.7183271v-6.8080852c0-10.3696029-8.34871-18.7183169-18.71833-18.7183169z" opacity=".05"/>
        <path d="m212.81142 57.4455c10.36961 0 18.71832-8.34871 18.71832-18.71832v-6.80808c0 10.36962-8.34872 18.71833-18.71832 18.71833h-78.27343c-10.36962 0-18.71833-8.34871-18.71833-18.71833v6.80808c0 10.36961 8.34871 18.71832 18.71833 18.71832z" opacity=".2"/>
      </g>
      <g transform="matrix(.13297834 0 0 .13297834 2.9437582167 41.31425208718)">
        <path d="m143.04515-10.175383v6.8064582h54.45152v-6.8064582zm-6.80643 20.419338v6.806424h47.64507v-6.806424zm0 20.419304v6.806424h74.87084v-6.806424z" opacity=".3"/>
        <path d="m134.53798-27.768136c-10.36961 0-18.71832 8.348714-18.71832 18.7183169v6.8080852c0-10.3696221 8.34872-18.7183271 18.71832-18.7183271h78.27343c10.36962 0 18.71833 8.348705 18.71833 18.7183271v-6.8080852c0-10.3696029-8.34871-18.7183169-18.71833-18.7183169z" opacity=".1"/>
        <path d="m212.81142 57.4455c10.36961 0 18.71832-8.34871 18.71832-18.71832v-6.80808c0 10.36962-8.34872 18.71833-18.71832 18.71833h-78.27343c-10.36962 0-18.71833-8.34871-18.71833-18.71833v6.80808c0 10.36961 8.34871 18.71832 18.71833 18.71832z" opacity=".3"/>
      </g>
      <g transform="matrix(.13297834 0 0 .13297834 20.40539936051 41.31425208718)">
        <path d="m143.04515-10.175383v6.8064582h54.45152v-6.8064582zm-6.80643 20.419338v6.806424h47.64507v-6.806424zm0 20.419304v6.806424h74.87084v-6.806424z" opacity=".3"/>
        <path d="m134.53798-27.768136c-10.36961 0-18.71832 8.348714-18.71832 18.7183169v6.8080852c0-10.3696221 8.34872-18.7183271 18.71832-18.7183271h78.27343c10.36962 0 18.71833 8.348705 18.71833 18.7183271v-6.8080852c0-10.3696029-8.34871-18.7183169-18.71833-18.7183169z" opacity=".1"/>
        <path d="m212.81142 57.4455c10.36961 0 18.71832-8.34871 18.71832-18.71832v-6.80808c0 10.36962-8.34872 18.71833-18.71832 18.71833h-78.27343c-10.36962 0-18.71833-8.34871-18.71833-18.71833v6.80808c0 10.36961 8.34871 18.71832 18.71833 18.71832z" opacity=".3"/>
      </g>
      <g transform="matrix(.13297834 0 0 .13297834 2.9437582167 54.01362956798)">
        <path d="m143.04515-10.175383v6.8064582h54.45152v-6.8064582zm-6.80643 20.419338v6.806424h47.64507v-6.806424zm0 20.419304v6.806424h74.87084v-6.806424z" opacity=".5"/>
        <path d="m134.53798-27.768136c-10.36961 0-18.71832 8.348714-18.71832 18.7183169v6.8080852c0-10.3696221 8.34872-18.7183271 18.71832-18.7183271h78.27343c10.36962 0 18.71833 8.348705 18.71833 18.7183271v-6.8080852c0-10.3696029-8.34871-18.7183169-18.71833-18.7183169z" opacity=".15"/>
        <path d="m212.81142 57.4455c10.36961 0 18.71832-8.34871 18.71832-18.71832v-6.80808c0 10.36962-8.34872 18.71833-18.71832 18.71833h-78.27343c-10.36962 0-18.71833-8.34871-18.71833-18.71833v6.80808c0 10.36961 8.34871 18.71832 18.71833 18.71832z" opacity=".5"/>
      </g>
      <g transform="matrix(.13297834 0 0 .13297834 20.40539936051 54.01362956798)">
        <path d="m143.04515-10.175383v6.8064582h54.45152v-6.8064582zm-6.80643 20.419338v6.806424h47.64507v-6.806424zm0 20.419304v6.806424h74.87084v-6.806424z" opacity=".5"/>
        <path d="m134.53798-27.768136c-10.36961 0-18.71832 8.348714-18.71832 18.7183169v6.8080852c0-10.3696221 8.34872-18.7183271 18.71832-18.7183271h78.27343c10.36962 0 18.71833 8.348705 18.71833 18.7183271v-6.8080852c0-10.3696029-8.34871-18.7183169-18.71833-18.7183169z" opacity=".15"/>
        <path d="m212.81142 57.4455c10.36961 0 18.71832-8.34871 18.71832-18.71832v-6.80808c0 10.36962-8.34872 18.71833-18.71832 18.71833h-78.27343c-10.36962 0-18.71833-8.34871-18.71833-18.71833v6.80808c0 10.36961 8.34871 18.71832 18.71833 18.71832z" opacity=".5"/>
      </g>
    </g>
  </g>
</svg>
