<svg height="256" viewBox="0 0 67.73 67.73" width="256" xmlns="http://www.w3.org/2000/svg" xmlns:xlink="http://www.w3.org/1999/xlink">
  <filter id="filter16020-3" color-interpolation-filters="sRGB" height="1.021433" width="1.027265" x="-.013633" y="-.010717">
    <feGaussianBlur stdDeviation="2.0004419"/>
  </filter>
  <clipPath id="clipPath11530-6">
    <path d="m118.625 209.5c2.58333-.38773 5.16667-.51062 7.75.75 0 0 .28209 5.48132-1.625 5.625-2.37827.17918-6.125-6.375-6.125-6.375z"/>
  </clipPath>
  <g enable-background="new" stroke-width=".25" transform="matrix(.13297834 0 0 .13297834 .605824 28.61487660106)">
    <path d="m111.82842-178.55025h200l120.17158 119.671571.005 296.240039c.00031 17.728-14.44878 32.08839-32.17678 32.08839h-288c-17.72799 0-31.999992-14.272-31.999992-32v-384c0-17.728 14.272002-32 31.999992-32z" filter="url(#filter16020-3)" opacity=".4"/>
    <path d="m111.82842-179.67158h200l120.17158 119.67158.005 296.24003c.00031 17.728-14.44878 32.08839-32.17678 32.08839h-288c-17.727992 0-31.999992-14.272-31.999992-32v-384c0-17.728 14.272-32 31.999992-32z" fill="#a3c858"/>
    <path d="m311.82842-175.69243v88.000007c0 17.728 14.44211 31.693795 32.17011 31.693795l88.00147-.022223v-3.979149z" opacity=".25"/>
    <path d="m311.82842-179.67158v88.000008c0 17.728 14.44211 31.693795 32.17011 31.693795l88.00147-.022223z" fill="#789e2d"/>
    <g stroke-width=".161265" transform="matrix(3.08432073221 0 0 3.08432073221 313.26394164155 -33.92288582506)">
      <g fill="#fff" opacity=".99" stroke-width=".248966" transform="matrix(2.5949351 0 0 2.5869881 -82.982769 -50.650847)">
        <g transform="matrix(8.31343489614 -.8706988297 .8706988297 8.31343489614 -2752.6450542994 -1219.922800752)">
          <path d="m313.21176 183.47929c.22609-.0339.45219-.0447.67829.0657 0 0 .0247.47973-.14223.4923-.20815.0157-.53606-.55795-.53606-.55795z" opacity="1"/>
          <path clip-path="url(#clipPath11530-6)" d="m118.625 209.5c2.58333-.38773 5.16667-.51062 7.75.75 0 0 .28209 5.48132-1.625 5.625-2.37827.17918-6.125-6.375-6.125-6.375z" opacity=".6" transform="matrix(.0875215 0 0 .0875215 302.82958 165.14354)"/>
        </g>
        <g transform="matrix(-8.02488325946 -.60501122608 -.60501122608 8.02488325946 2663.0000160652 -1250.2436287134)">
          <path d="m313.2277 183.48724c.22609-.0339.45219-.0447.67829.0656 0 0 .0247.47973-.14223.4923-.20815.0157-.53606-.55795-.53606-.55795z" opacity="1"/>
          <path clip-path="url(#clipPath11530-6)" d="m118.625 209.5c2.58333-.38773 5.16667-.51062 7.75.75 0 0 .28209 5.48132-1.625 5.625-2.37827.17918-6.125-6.375-6.125-6.375z" opacity=".6" transform="matrix(.0875215 0 0 .0875215 302.84552 165.15149)"/>
        </g>
      </g>
      <path d="m-64.652959 33.108277h92.119562" fill="none" stroke="#000" stroke-width=".645383"/>
      <g stroke-width=".248966">
        <g transform="matrix(2.5949351 0 0 2.5869881 -49.758339 -17.782389)">
          <ellipse cx="172.5" cy="115" rx="8.5" ry="17" transform="matrix(.29411765756 0 0 .14705881981 -27.24549887362 -5.23973406041)"/>
          <circle cx="326.53125" cy="57.59375" fill="#eeeeec" r=".40625" transform="matrix(1.1401677 0 0 1.1291879 -348.81058 -54.748133)"/>
        </g>
        <g transform="matrix(2.5949351 0 0 2.5869881 -112.05851 -17.782389)">
          <ellipse cx="172.5" cy="115" rx="8.5" ry="17" transform="matrix(.29411765756 0 0 .14705881981 -26.2371238339 -5.23973406041)"/>
          <circle cx="326.53125" cy="57.59375" fill="#eeeeec" r=".40625" transform="matrix(1.1401677 0 0 1.1291879 -347.80221 -54.748133)"/>
        </g>
      </g>
    </g>
  </g>
</svg>
