<svg height="256" viewBox="0 0 67.73 67.73" width="256" xmlns="http://www.w3.org/2000/svg" xmlns:xlink="http://www.w3.org/1999/xlink">
  <filter id="filter16020-3" color-interpolation-filters="sRGB" height="1.021433" width="1.027265" x="-.013633" y="-.010717">
    <feGaussianBlur stdDeviation="2.0004419"/>
  </filter>
  <g enable-background="new" stroke-width=".25">
    <g enable-background="new" stroke-width=".25" transform="matrix(.13297834 0 0 .13297834 .605824 28.61487660106)">
      <path d="m111.82842-178.55025h200l120.17158 119.671571.005 296.240039c.00031 17.728-14.44878 32.08839-32.17678 32.08839h-288c-17.72799 0-31.999992-14.272-31.999992-32v-384c0-17.728 14.272002-32 31.999992-32z" filter="url(#filter16020-3)" opacity=".4"/>
      <path d="m111.82842-179.67158h200l120.17158 119.67158.005 296.24003c.00031 17.728-14.44878 32.08839-32.17678 32.08839h-288c-17.727992 0-31.999992-14.272-31.999992-32v-384c0-17.728 14.272-32 31.999992-32z" fill="#f6f5f4"/>
      <path d="m311.82842-175.69243v88.000007c0 17.728 14.44211 31.693795 32.17011 31.693795l88.00147-.022223v-3.979149z" opacity=".25"/>
      <path d="m311.82842-179.67158v88.000008c0 17.728 14.44211 31.693795 32.17011 31.693795l88.00147-.022223z" fill="#deddda"/>
    </g>
    <g opacity=".4" transform="matrix(.13297834 0 0 .13297834 -.13653542877 29.06262863457)">
      <path d="m264.99652-51.17866c-13.61856 0-27.2925 5.05594-37.69313 14.766377-10.4005 9.710501-15.54356 22.236751-15.54356 34.9730015s5.14306 25.2625015 15.54356 34.9730025c15.40975 14.38725 38.025 17.809688 57.12257 10.8805l55.17956 53.625253h15.93219l5.44019-5.051688v-22.926689l-9.32613-9.326188h-9.32612l-9.32613-18.652251h-9.32612v-18.65225l-9.32613-6.994563c7.42163-17.8303765 3.75194-38.460752-11.65769-52.848128-10.40062-9.710437-24.07456-14.766377-37.69306-14.766377zm-9.71475 12.43488c10.30144 0 18.65225 8.350872 18.65225 18.652248 0 10.3013745-8.35081 18.6522505-18.65225 18.6522505-10.30138 0-18.65225-8.350876-18.65225-18.6522505 0-10.301376 8.35087-18.652248 18.65225-18.652248z"/>
      <path d="m211.75983-38.74378c-27.47031 0-49.73938 21.036873-49.73938 47.0192485 0 19.1971265 12.10338 35.8186905 29.53275 43.1333155v9.326125h7.77182l12.43481 12.434876-12.43481 12.434813v12.434876l10.09112 12.434816-10.09112 6.04506v5.39925l12.43481 13.42537h12.43487l12.43482-12.43481v-68.100189c-1.94294-.680187-1.90625-.672687-1.94294-.680187-15.78594-7.662813-27.73594-21.774376-32.64144-38.858877-8.46419-.7535-15.155-8.0556255-15.155-16.7093135 0-8.514126 6.49794-15.3787505 14.76638-16.3206875 2.0815-7.692688 5.42306-14.786689 10.10331-20.983816z"/>
    </g>
  </g>
</svg>
