<svg height="256" viewBox="0 0 67.73 67.73" width="256" xmlns="http://www.w3.org/2000/svg" xmlns:xlink="http://www.w3.org/1999/xlink"><linearGradient gradientUnits="userSpaceOnUse" x1="29.198092" x2="120.08352" y1="17.015732" y2="90.356888"><stop offset="0" stop-color="#1a5fb4"/><stop offset=".07734802" stop-color="#1a5fb4"/><stop offset=".13724978" stop-color="#1a5fb4"/><stop offset=".16721596" stop-color="#1a5fb4"/><stop offset=".36419758" stop-color="#1a5fb4"/><stop offset=".40697584" stop-color="#1a5fb4"/><stop offset=".49265456" stop-color="#1a5fb4"/><stop offset=".5761317" stop-color="#1a5fb4"/><stop offset=".60609788" stop-color="#1a5fb4"/><stop offset=".68104386" stop-color="#1a5fb4"/><stop offset=".78384614" stop-color="#1a5fb4"/><stop offset="1" stop-color="#1a5fb4"/></linearGradient><filter id="a" color-interpolation-filters="sRGB" height="1.049938" width="1.041956" x="-.020978" y="-.024969"><feGaussianBlur stdDeviation="1.0888581"/></filter><path d="m29.965104 34.36372-.00026 3.999561 2.039062 17.748047c.418018 3.638441 1.053046 7.284864.844249 10.941283-.104364 1.827614-.465909 3.666662-1.310434 5.290805-.423207.813887-.967455 1.5697-1.642532 2.190818-.675078.621117-1.483634 1.105121-2.365892 1.356391-1.044822.297568-2.154075.263153-3.235951.164444-1.095369-.09994-2.228617-.279715-3.13533-.902366-.396092-.272001-.733679-.618831-1.0852-.946407s-.726694-.642446-1.168519-.831296c-.69043-.295111-1.489834-.253389-2.204309-.0225s-1.358059.637773-1.97477 1.066086c-1.187635.824825-2.32102 1.757924-3.1813 2.920135-1.7346807 2.343498-2.2033765 5.463118-1.7118868 8.33706.3683488 2.153886 1.2580328 4.23794 2.6868048 5.891274.721846.835299 1.582004 1.560215 2.565305 2.062116s2.09305.775078 3.195156.710673c1.446947-.08456 2.791846-.731266 4.113455-1.326374s2.722314-1.160582 4.168715-1.067159c.824156.05323 1.630098.324119 2.333553.756807.703454.432687 1.304887 1.024836 1.771104 1.706532.850795 1.24402 1.236436 2.742413 1.533165 4.220042 1.833712 9.131388.776924 18.821178-2.982041 27.342618l-.000451 4.00035c6.815623 2.34812 13.802483 4.19904 20.886719 5.5332 2.356066.44371 4.803537.82806 7.129867.24831 1.165227-.29039 2.283689-.83051 3.151352-1.66072.669093-.64021 1.17307-1.45278 1.438718-2.3399.265648-.88713.276224-1.82781.252719-2.75355l-.076172-3c-.425112.089-.874197.0605-1.284676-.0814-.448827-.1552-.846569-.44301-1.159205-.80049s-.542279-.78301-.700679-1.23072c-.3168-.89542-.350373-1.86336-.35544-2.81315-.0084-1.57186.06161-3.18717.683347-4.63087.630083-1.46308 1.793367-2.64969 3.119384-3.53247 2.640465-1.75786 5.896531-2.3747 9.068363-2.41479 2.910403-.0368 5.917946.4133 8.38858 1.95205 1.235347.7694 2.316455 1.80897 3.040863 3.07122.723609 1.26086 1.077567 2.7394.951416 4.18767-.0973 1.11703-.474081 2.19974-1.019002 3.17968-.676195 1.21601-1.6148 2.28523-2.732951 3.11327.01141.99622.01829 1.99248.02062 2.98876.0013.55497.0013 1.11166.07019 1.66234.0689.55068.209048 1.09845.475595 1.58523.38348.70032 1.010241 1.24079 1.69136 1.65742.679755.4158 1.421205.72158 2.173875.9832 4.207918 1.46261 8.795772 1.56587 13.203956.92265 5.620004-.82004 11.062294-2.83781 15.858544-5.87968l-.00076-4.00004c-2.9618-8.10871-4.14202-16.86285-3.43337-25.46641.12444-1.510758.31198-3.039509.89243-4.439849.29023-.700169.67862-1.363307 1.18093-1.930892.50231-.567584 1.12079-1.038096 1.81966-1.331432.81882-.343681 1.72788-.436727 2.61322-.36779.88534.06894 1.75154.294637 2.59628.568471 1.6895.547667 3.34666 1.298286 5.11872 1.417166 1.49166.100069 2.99673-.262871 4.33262-.934034 1.65137-.829661 3.06092-2.133895 4.01607-3.715998.95515-1.582104 1.45277-3.436893 1.4178-5.284632l.17296-2.260649c-.52769-2.349795-1.58608-4.578816-3.0735-6.472906-.78344-.997637-1.7039-1.917597-2.83285-2.495992-.56447-.289197-1.1774-.489425-1.80784-.558831-.63043-.06941-1.27853-.0059-1.8737.213276-.98739.363597-1.77332 1.124748-2.70454 1.614622-1.028.540788-2.2025.734987-3.36079.822263-1.14968.08663-2.32683.07246-3.42686-.272822-1.48175-.465094-2.74144-1.519968-3.60043-2.813815-.85655-1.290169-1.33238-2.801804-1.5907-4.328722-.57458-3.396224-.11653-6.870373.2648-10.293685.73898-6.634069 1.18635-13.300613 1.3404-19.973935-7.07458-1.551607-14.11523-3.257879-21.115238-5.117187-1.358053-.360719-2.720385-.728335-4.115832-.893117-1.395448-.164782-2.836462-.120104-4.16775.329449-1.113372.375967-2.130411 1.033531-2.930197 1.894514l.000888 3.999232c.000092.414547.01544.831948.109581 1.235664.09414.403716.258224.787892.444911 1.158023.371648.73684.82185 1.432128 1.311687 2.096293.980192 1.329032 2.137185 2.56452 2.764681 4.092051.688531 1.67611.668736 3.606233.07149 5.316998-.597046 1.710192-1.748631 3.203882-3.17928 4.314945-1.430747 1.11114-3.131633 1.848939-4.895624 2.261254-1.763982.412313-3.592163.506364-5.400888.405631-2.924856-.162893-5.90787-.874773-8.250188-2.633995-1.171423-.879809-2.162766-2.016191-2.790824-3.339762-.627529-1.322455-.881171-2.828063-.667972-4.276243.290351-1.972237 1.398058-3.712752 2.446947-5.407997.421017-.680459.830902-1.376827 1.076601-2.138346s.299325-1.569869.309183-2.369983l.055941-4.540708c-.19011.264009-.449752.477476-.745537.612953-.295785.135476-.627017.192642-.951101.164146-.514263-.04522-.988027-.299003-1.407482-.599948-.419456-.300946-.800924-.653586-1.231359-.938607-.871375-.576998-1.915429-.854928-2.957642-.932472-1.042213-.07754-2.089173.03627-3.122894.190025-2.402529.357356-4.77251.911933-7.175826 1.263965-2.403315.352032-4.834898.462275-7.263627.495805z" filter="url(#a)" opacity=".4" transform="matrix(.46881068135 -.00000000813 .00000000813 .46881068135 -.12320434686 -5.27299159776)"/><path d="m13.644284 11.06567-.000709 1.875032.953454 8.32076c.195464 1.7058.49266 3.41537.394307 5.129506-.04918.856791-.218938 1.718905-.615086 2.480202-.198515.381501-.45377.735758-.770338 1.026849-.316582.291092-.695704.517886-1.109357.635561-.48984.139356-1.009862.123066-1.517041.07664-.513508-.047-1.0447603-.131444-1.4697537-.423477-.185651-.127571-.343869-.290213-.508621-.443836-.16475-.153621-.340593-.301288-.547699-.389884-.323642-.138442-.698416-.118994-1.033401-.01085-.334984.108143-.636759.298803-.92594.499515-.556892.386522-1.088364.823811-1.491835 1.368545-.813563 1.098414-1.033731 2.560861-.803716 3.908266.172385 1.009816.589186 1.986966 1.258779 2.762265.338293.391699.741441.73167 1.202355.967102.460911.235435.981136.363658 1.497825.333618.678353-.03944 1.308947-.342435 1.9286147-.621243.61967-.278809 1.276412-.543714 1.954488-.499713.386365.02507.76416.152177 1.093887.355125.329728.202946.611603.480636.830073.800288.39869.583327.579274 1.285844.718181 1.978612.858384 4.281151.361599 8.823682-1.401843 12.818101l-.000842 1.875392c3.194903 1.10178 6.470162 1.97049 9.791143 2.59696 1.104479.20834 2.251833.38887 3.342519.1174.546308-.13598 1.070738-.38904 1.47762-.77812.313764-.30005.550154-.68092.674814-1.09677.124661-.41586.129748-.85687.118862-1.29086l-.03528-1.406438c-.19931.04164-.409841.02826-.602259-.03836-.210394-.07282-.396817-.207799-.543334-.375441-.146514-.167628-.25412-.367152-.328313-.577068-.148398-.419824-.164-.873608-.166245-1.318886-.0037-.736905.02933-1.494169.321007-2.170906.295597-.685816.84112-1.241952 1.462896-1.655618 1.238124-.823741 2.764688-1.112465 4.251684-1.130814 1.364431-.01686 2.774341.194584 3.932382.916316.57904.360868 1.08573.848382 1.425162 1.440245.339057.591203.504793 1.28441.445448 1.963353-.04577.523665-.22256 1.031199-.478163 1.49053-.317178.569981-.757362 1.071111-1.281675 1.459151.0051.467042.0083.934098.0092 1.401166.000576.26018.000487.52116.03269.77933.03224.25818.09785.515.222741.74324.179684.32838.473436.58184.792698.77726.318618.19503.666172.33848 1.018999.46123 1.972511.68627 4.123331.73533 6.190027.43439 2.634834-.38366 5.18652-1.32884 7.435478-2.75423l.000235-1.87527c-1.3874-3.801855-1.939479-7.906057-1.606052-11.939401.05855-.708245.146679-1.424909.419-2.081325.136163-.328207.318339-.639036.5539-.905055.23557-.266024.525589-.486516.853261-.623937.38392-.161007.810114-.2045 1.225167-.172059.415044.03244.821096.138376 1.217078.266868.791982.256989 1.568765.609115 2.399508.665099.699295.04712 1.404938-.122826 2.031316-.43728.774293-.388725 1.435287-.999967 1.883294-1.741539s.681553-1.611046.665419-2.477293l.08141-1.059792c-.24706-1.101689-.742932-2.146826-1.439986-3.035003-.367147-.467812-.798542-.899228-1.327719-1.170544-.264595-.135657-.551911-.229611-.847467-.262239-.295538-.03263-.599378-.0029-.878432.09973-.462954.17032-.83151.527046-1.268141.756574-.482016.253383-1.03266.344261-1.575689.385015-.538994.04046-1.090852.03364-1.606513-.128381-.69459-.218248-1.285001-.71296-1.687526-1.31965-.401378-.604965-.624243-1.313701-.745132-2.029574-.268896-1.592265-.05366-3.220919.125576-4.825752.347377-3.110016.558037-6.2353.631189-9.363807-3.316393-.728388-6.616887-1.529286-9.89831-2.401928-.636612-.169304-1.275242-.3418352-1.92942-.4192812-.654173-.07745-1.329745-.0567-1.953927.153847-.522018.1761012-.99891.4842362-1.373975.8877602l-.000114 1.874893c-.000011.194334.0072.390013.0512.579299.04408.189278.120952.369405.208417.542959.174132.345488.385093.671508.614643.982943.459341.623205 1.001573 1.202569 1.295537 1.918785.322557.785875.313009 1.690733.03277 2.492676-.280134.801672-.820221 1.501769-1.491082 2.022446-.670905.520714-1.4684.866366-2.295436 1.059416-.827034.193051-1.684117.236887-2.532047.18941-1.371182-.07677-2.769552-.410927-3.867413-1.235997-.549053-.412628-1.013644-.945515-1.307897-1.566107-.294009-.620069-.41271-1.325947-.312554-2.004842.136394-.924562.655941-1.740376 1.147911-2.534982.197465-.318949.389725-.645359.505016-1.002329.115294-.356975.140552-.735931.145279-1.111032l.02687-2.128722c-.08917.123742-.210919.22378-.3496.287254-.13869.06347-.293979.09023-.445914.07682-.241089-.02127-.463157-.140315-.659761-.281462-.1966-.14114-.375387-.306516-.577143-.440199-.408429-.270621-.897853-.40107-1.386447-.437566-.488589-.03649-.979428.01673-1.464069.08865-1.126384.167192-2.237531.426856-3.364278.591556-1.126754.164698-2.266721.216036-3.405337.231419z" fill="#1a5fb4"/><path d="m61.403541 2.0997581-9.773438 14.9531249c-2.04392 3.127149-3.844167 6.441321-6.28238 9.271831-1.219107 1.415255-2.671347 2.683693-4.408612 3.370046-.868632.343176-1.803138.533486-2.736592.502569-.933454-.03092-1.865638-.288204-2.654215-.788642-1.277853-.810937-2.085178-2.178304-2.751378-3.53724-.666201-1.358935-1.257608-2.788673-2.273488-3.910509-.991737-1.095175-2.353079-1.834025-3.797883-2.143041-1.444804-.309017-2.967274-.197223-4.376449.246821-2.818351.888089-5.100012 3.054087-6.665512 5.560282-1.186919 1.900128-2.026882 4.082755-1.987806 6.322786.01954 1.120015.26216 2.241507.757619 3.246164.495459 1.004658 1.248058 1.889032 2.191124 2.49355 1.308611.838837 2.889707 1.101175 4.397852 1.477484.754072.188155 1.504217.410477 2.20222.752267.698002.34179 1.345539.808951 1.819326 1.42503.511051.664535.803069 1.484639.887973 2.318649.0849.834009-.03158 1.681535-.279463 2.482367-.495773 1.601665-1.494301 2.993395-2.503623 4.332196-6.04506 8.018385-13.075194 15.293374-20.8819995 21.609309 3.6922517 6.193224 7.8872305 12.086638 12.5301015 17.603204 1.538969 1.828572 3.188573 3.663337 5.345279 4.693248 1.078354.514955 2.273334.81305 3.467054.757751 1.19372-.0553 2.384068-.47865 3.279249-1.270279.668578-.591239 1.155841-1.367163 1.497998-2.191474.342156-.824312.54559-1.699309.709737-2.576587.328296-1.754555.520494-3.58281 1.380091-5.147206.764981-1.392201 2.031129-2.483393 3.481541-3.131256 1.450411-.647862 3.076087-.864111 4.658433-.724104 3.164691.280014 6.059316 1.934157 8.519447 3.94449 2.253768 1.841701 4.290281 4.099857 5.206648 6.862393.458184 1.381268.621254 2.871314.377008 4.305949-.244246 1.434634-.907287 2.809402-1.946202 3.828465-.799265.783992-1.794304 1.340724-2.818994 1.791814-1.02469.45108-2.089465.80528-3.12019 1.2424-1.030724.43712-2.038335.96516-2.868885 1.71593s-1.476739 1.74516-1.648963 2.85142c-.122476.7867-.0021 1.59737.249486 2.35275.2516.75538.630968 1.4616 1.035671 2.14725 2.610812 4.42326 6.378079 8.15711 10.824421 10.72841 4.446342 2.57131 9.561602 3.97419 14.697587 4.03087l10.390625-16.55469c1.827097-2.91099 3.475693-5.96738 5.741233-8.55185 1.132769-1.292234 2.473271-2.444313 4.060717-3.102382.793723-.329035 1.644959-.529194 2.504043-.544497.859084-.0153 1.726157.15767 2.494556.542148.73288.366706 1.363072.917501 1.891445 1.543926.528372.626425.959453 1.328795 1.355706 2.046125.792505 1.43467 1.469566 2.9633 2.578497 4.1702 1.024648 1.11517 2.388724 1.90386 3.853464 2.28866 1.46473.3848 3.0253.37098 4.49703.0139 2.94345-.71425 5.45189-2.78026 7.08701-5.32986 1.33228-2.07739 2.14193-4.541713 1.9824-7.00445-.0798-1.231368-.40175-2.450743-.9771-3.54235-.57534-1.091606-1.4065-2.052749-2.42718-2.746174-1.35882-.923145-2.98517-1.342259-4.54069-1.870386-.77777-.264063-1.54837-.560335-2.26402-.963445-.71564-.40311-1.37767-.917431-1.88031-1.567043-.7609-.983381-1.12186-2.245409-1.11009-3.488739.0118-1.24333.38082-2.467509.95637-3.569668 1.15109-2.204318 3.06966-3.889155 4.91509-5.556015 6.1872-5.588512 12.02287-11.566171 17.46105-17.885913-4.09227-6.428838-8.80224-12.464281-14.04392-17.996143-1.61295-1.702245-3.34561-3.403237-5.53563-4.241703-1.09502-.419233-2.29219-.606509-3.45181-.433034-1.15962.173476-2.2772.723607-3.045305 1.609508-.541225.624225-.896569 1.394024-1.111602 2.191735s-.295055 1.625793-.331935 2.451155c-.07376 1.650723.01687 3.340604-.478366 4.917013-.543414 1.729754-1.785692 3.20702-3.336966 4.145581s-3.393848 1.352523-5.205967 1.292746c-1.812119-.05978-3.593491-.580164-5.21421-1.392947-1.620719-.812784-3.08605-1.912981-4.410826-3.150849-2.137042-1.996847-3.966484-4.451708-4.637277-7.298528-.335397-1.42341-.369658-2.926916-.01567-4.345816.35399-1.4189 1.105307-2.748596 2.195915-3.722844 1.482027-1.323905 3.455798-1.912902 5.306878-2.635833.925541-.361465 1.840543-.767866 2.662391-1.3263s1.551425-1.278195 2.011039-2.159124c.479783-.919624.646891-1.987398.544525-3.019554-.102366-1.032157-.466442-2.029178-.989229-2.925013-1.045575-1.791669-2.68555-3.152001-4.355929-4.382097-6.217862-4.578942-13.357891-7.9002054-20.865745-9.7059319z" fill="#62a0ea" transform="matrix(.36059701 -.29958847 .29958847 .36059701 -9.041465 28.624856)"/></svg>