<svg height="256" viewBox="0 0 67.73 67.73" width="256" xmlns="http://www.w3.org/2000/svg" xmlns:xlink="http://www.w3.org/1999/xlink">
  <filter id="filter16020-3" color-interpolation-filters="sRGB" height="1.021433" width="1.027265" x="-.013633" y="-.010717">
    <feGaussianBlur stdDeviation="2.0004419"/>
  </filter>
  <g enable-background="new" stroke-width=".25" transform="matrix(.13297834 0 0 .13297834 .605824 28.61487660106)">
    <path d="m111.82842-178.55025h200l120.17158 119.671571.005 296.240039c.00031 17.728-14.44878 32.08839-32.17678 32.08839h-288c-17.72799 0-31.999992-14.272-31.999992-32v-384c0-17.728 14.272002-32 31.999992-32z" filter="url(#filter16020-3)" opacity=".4"/>
    <path d="m111.82842-179.67158h200l120.17158 119.67158.005 296.24003c.00031 17.728-14.44878 32.08839-32.17678 32.08839h-288c-17.727992 0-31.999992-14.272-31.999992-32v-384c0-17.728 14.272-32 31.999992-32z" fill="#f6f5f4"/>
    <path d="m311.82842-175.69243v88.000007c0 17.728 14.44211 31.693795 32.17011 31.693795l88.00147-.022223v-3.979149z" opacity=".25"/>
    <path d="m311.82842-179.67158v88.000008c0 17.728 14.44211 31.693795 32.17011 31.693795l88.00147-.022223z" fill="#deddda"/>
    <g transform="matrix(.90833337 0 0 .90833337 34.555595 -22.245055)">
      <path d="m315.3249 207.58798h62.67159v17.90617h-62.67159zm0-44.76542h62.67159v17.90617h-62.67159zm0-44.76523h62.67159v17.90617h-62.67159zm0-44.765427h62.67159v17.90617h-62.67159zm0-44.765426h62.67159v17.90617h-62.67159zm-205.92096-44.765426h268.59255v17.9061697h-268.59255zm0-44.765432h170.10861v17.906172h-170.10861zm0-44.765419h170.10861v17.906169h-170.10861z" fill="#33d17a"/>
      <path d="m109.4039-227.61699h188.01474v199.24553h-188.01474z" fill="#f66151" transform="scale(1 -1)"/>
    </g>
  </g>
</svg>
