<svg height="256" viewBox="0 0 67.73 67.73" width="256" xmlns="http://www.w3.org/2000/svg" xmlns:xlink="http://www.w3.org/1999/xlink">
  <filter id="filter16020-3" color-interpolation-filters="sRGB" height="1.021433" width="1.027265" x="-.013633" y="-.010717">
    <feGaussianBlur stdDeviation="2.0004419"/>
  </filter>
  <g enable-background="new" stroke-width=".25" transform="matrix(.13297834 0 0 .13297834 .605824 28.614877)">
    <g enable-background="new" stroke-width=".25" transform="translate(0 -.000003)">
      <path d="m111.82842-178.55025h200l120.17158 119.671571.005 296.240039c.00031 17.728-14.44878 32.08839-32.17678 32.08839h-288c-17.72799 0-31.999992-14.272-31.999992-32v-384c0-17.728 14.272002-32 31.999992-32z" filter="url(#filter16020-3)" opacity=".4"/>
      <path d="m111.82842-179.67158h200l120.17158 119.67158.005 296.24003c.00031 17.728-14.44878 32.08839-32.17678 32.08839h-288c-17.727992 0-31.999992-14.272-31.999992-32v-384c0-17.728 14.272-32 31.999992-32z" fill="#f9f06b"/>
      <path d="m311.82842-175.69243v88.000007c0 17.728 14.44211 31.693795 32.17011 31.693795l88.00147-.022223v-3.979149z" opacity=".25"/>
      <path d="m311.82842-179.67158v88.000008c0 17.728 14.44211 31.693795 32.17011 31.693795l88.00147-.022223z" fill="#e1d638"/>
    </g>
    <path d="m256.05985-73.913945c-27.22136.0384-53.86375 12.89881-70.26322 36.70984-25.50515 37.18016976-16.25184 87.538291 20.14981 113.796697v78.285778h12.47265v9.94588h75.15021v-9.94588h12.33337v-78.283798c7.81704-5.67028 14.7129-12.514416 20.1524-20.480672 26.01966-38.072495 15.88277-89.913845-22.82838-115.702905-14.09215-9.37746-30.4962-14.35438-47.24842-14.33568zm-.19498 15.13708c13.32219 0 26.79161 3.80924 38.71115 11.7371 31.74167 21.13565 40.076 63.32835 18.63834 94.608442-5.01174 7.287812-11.31272 13.525128-18.57268 18.379689l-1.24746 19.306826h-75.15022l-1.09824-19.306826c-31.81867-21.135249-40.11241-63.3261612-18.59974-94.608841 13.39302-19.54319 35.14902-30.13549 57.31885-30.03541zm-37.57511 154.015747h75.15022v19.855948h-75.15022zm0 29.799848h75.15022v17.05662h-75.15022" fill="#ff7800" stroke-width=".497394"/>
  </g>
</svg>
