<svg height="256" viewBox="0 0 67.73 67.73" width="256" xmlns="http://www.w3.org/2000/svg" xmlns:xlink="http://www.w3.org/1999/xlink">
  <filter id="filter16020-3" color-interpolation-filters="sRGB" height="1.021433" width="1.027265" x="-.013633" y="-.010717">
    <feGaussianBlur stdDeviation="2.0004419"/>
  </filter>
  <g enable-background="new" stroke-width=".25" transform="matrix(.13297834 0 0 .13297834 .605824 28.614877)">
    <g enable-background="new" stroke-width=".25" transform="translate(0 -.000003)">
      <path d="m111.82842-178.55025h200l120.17158 119.671571.005 296.240039c.00031 17.728-14.44878 32.08839-32.17678 32.08839h-288c-17.72799 0-31.999992-14.272-31.999992-32v-384c0-17.728 14.272002-32 31.999992-32z" filter="url(#filter16020-3)" opacity=".4"/>
      <path d="m111.82842-179.67158h200l120.17158 119.67158.005 296.24003c.00031 17.728-14.44878 32.08839-32.17678 32.08839h-288c-17.727992 0-31.999992-14.272-31.999992-32v-384c0-17.728 14.272-32 31.999992-32z" fill="#f6f5f4"/>
      <path d="m311.82842-175.69243v88.000007c0 17.728 14.44211 31.693795 32.17011 31.693795l88.00147-.022223v-3.979149z" opacity=".25"/>
      <path d="m311.82842-179.67158v88.000008c0 17.728 14.44211 31.693795 32.17011 31.693795l88.00147-.022223z" fill="#deddda"/>
    </g>
    <path d="m255.91662-73.924712c-65.92873 0-119.37447 53.44575-119.37447 119.374474.0217 2.488957.12117 4.977915.29844 7.460904h81.77151v-29.843618l52.22633 52.226329-52.22633 52.226333v-29.843623h-69.94707c9.7883 20.118583 25.03342 37.081703 43.99685 48.953493 18.96283 11.87378 40.88197 18.17675 63.25474 18.19465 65.92853 0 119.37447-53.44594 119.37447-119.374468 0-65.928724-53.44594-119.374474-119.37447-119.374474z" fill="#62a0ea" stroke-width=".497394"/>
  </g>
</svg>
