<svg height="256" viewBox="0 0 67.73 67.73" width="256" xmlns="http://www.w3.org/2000/svg" xmlns:xlink="http://www.w3.org/1999/xlink">
  <filter id="filter16020-3" color-interpolation-filters="sRGB" height="1.021433" width="1.027265" x="-.013633" y="-.010717">
    <feGaussianBlur stdDeviation="2.0004419"/>
  </filter>
  <g enable-background="new" stroke-width=".25" transform="matrix(.13297834 0 0 .13297834 .605824 28.61487660106)">
    <path d="m111.82842-178.55025h200l120.17158 119.671571.005 296.240039c.00031 17.728-14.44878 32.08839-32.17678 32.08839h-288c-17.72799 0-31.999992-14.272-31.999992-32v-384c0-17.728 14.272002-32 31.999992-32z" filter="url(#filter16020-3)" opacity=".4"/>
    <path d="m111.82842-179.67158h200l120.17158 119.67158.005 296.24003c.00031 17.728-14.44878 32.08839-32.17678 32.08839h-288c-17.727992 0-31.999992-14.272-31.999992-32v-384c0-17.728 14.272-32 31.999992-32z" fill="#de1938"/>
    <path d="m311.82842-175.69243v88.000007c0 17.728 14.44211 31.693795 32.17011 31.693795l88.00147-.022223v-3.979149z" opacity=".25"/>
    <path d="m311.82842-179.67158v88.000008c0 17.728 14.44211 31.693795 32.17011 31.693795l88.00147-.022223z" fill="#a23c4c"/>
    <path clip-rule="evenodd" d="m100.85321 248.02184-12.087901 14.31579c3.148275.50492 8.464815 4.48528 7.662895 9.7716 1.63354-3.9205-1.36637-8.70249-4.247338-10.63304l10.543794-12.5929c-.56472-.41581-1.01012-.62384-1.87145-.86145zm-4.066348.99809c-.470164.002-.822907.0712-.804346.0712l-3.860967 4.42529c-2.168152.1188-4.277037.26744-6.326386.47534-1.455333.14851-2.613674 1.3068-2.82158 2.85124-.297005 2.70277-.445409 5.55403-.445409 8.4944s.148404 5.7916.445409 8.52406c.207906 1.72305 1.366247 2.58435 2.82158 2.85124 4.039296.65342 9.890506.0298 9.890506-5.52426 0-5.19762-8.524222-7.42524-11.43489-5.9996l13.454343-16.06805c-.311856-.078-.636161-.10176-.91826-.10089zm8.877738 4.55583s-7.573122 16.81083-8.315639 18.53347c-1.12863 2.55426-2.673074 4.42543-4.900625 5.07885 1.960245.0891 3.920363.11863 5.940009.11863 4.425005 0 8.642995-.20787 12.593185-.59398 1.45492-.1485 2.64338-1.3365 2.82158-2.85124.32712-2.73246.47507-5.58369.47507-8.52406s-.14795-5.79163-.47507-8.4944c-.1782-1.54444-1.36624-2.70273-2.82158-2.85124-1.72264-.1782-3.50478-.32693-5.31693-.41603z" fill="#fff" fill-rule="evenodd" transform="matrix(7.5200217 0 0 7.5200217 -484.0773942305 -1930.91266335562)"/>
  </g>
</svg>
