<svg height="256" viewBox="0 0 67.73 67.73" width="256" xmlns="http://www.w3.org/2000/svg" xmlns:xlink="http://www.w3.org/1999/xlink">
  <filter id="filter16020-3" color-interpolation-filters="sRGB" height="1.021433" width="1.027265" x="-.013633" y="-.010717">
    <feGaussianBlur stdDeviation="2.0004419"/>
  </filter>
  <linearGradient id="a" gradientUnits="userSpaceOnUse" x1="111.50994857588" x2="66.44765268795" y1="288.8824991" y2="229.4821993">
    <stop offset="0" stop-color="#18a303"/>
    <stop offset="1" stop-color="#106802"/>
  </linearGradient>
  <linearGradient id="b" gradientUnits="userSpaceOnUse" x1="111.51201222422" x2="66.1001343064" y1="288.25633288794" y2="229.84847588657">
    <stop offset="0" stop-color="#6e6e6e"/>
    <stop offset="1" stop-color="#b0b0b0"/>
  </linearGradient>
  <linearGradient id="c" gradientTransform="matrix(.07194247 0 0 .51206336 90.555086 884.2258)" gradientUnits="userSpaceOnUse" x1="-17" x2="144" y1="-1194.6378" y2="-1194.6378">
    <stop offset="0" stop-color="#fff" stop-opacity="0"/>
    <stop offset=".49305555" stop-color="#fff"/>
    <stop offset="1" stop-color="#fff" stop-opacity="0"/>
  </linearGradient>
  <linearGradient id="d" gradientUnits="userSpaceOnUse" x1="110.99787702588" x2="66.23231123903" y1="288.32729064263" y2="230.5063424">
    <stop offset="0" stop-color="#a33e03"/>
    <stop offset="1" stop-color="#d36118"/>
  </linearGradient>
  <g enable-background="new" stroke-width=".25">
    <g enable-background="new" stroke-width=".25" transform="matrix(.13297834 0 0 .13297834 .605824 28.61487660106)">
      <path d="m111.82842-178.55025h200l120.17158 119.671571.005 296.240039c.00031 17.728-14.44878 32.08839-32.17678 32.08839h-288c-17.72799 0-31.999992-14.272-31.999992-32v-384c0-17.728 14.272002-32 31.999992-32z" filter="url(#filter16020-3)" opacity=".4"/>
      <path d="m111.82842-179.67158h200l120.17158 119.67158.005 296.24003c.00031 17.728-14.44878 32.08839-32.17678 32.08839h-288c-17.727992 0-31.999992-14.272-31.999992-32v-384c0-17.728 14.272-32 31.999992-32z" fill="#f6f5f4"/>
    </g>
    <g transform="matrix(1.00000000243 0 0 1.00000000243 -52.69610609603 -228.75091021614)">
      <g transform="translate(-1.492775 6.474542)">
        <g stroke-width=".128018" transform="matrix(.86666679 0 0 .86666679 12.154891 26.968162)">
          <path d="m86.930521 277.10386v1.06514l-6.144859 4.05557h3.010422l4.534636-3.5845h.264032l4.480628 3.5845h3.07243l-6.14486-4.09657v-1.02414z" fill="#646464"/>
          <path d="m72.592517 254.57371v22.53114h31.748433v-22.53114zm1.536215 1.02414h28.676008c.28369 0 .51207.22839.51207.51207v19.45871c0 .28369-.22838.51208-.51207.51208h-28.676008c-.283688 0-.512071-.22839-.512071-.51208v-19.45871c0-.28368.228383-.51207.512071-.51207zm1.024144 1.5352v2.04829h26.627724v-2.04829zm5.120715 3.58452v2.04828h16.38629v-2.04828zm-1.536215 4.09657v2.04828h7.681074v-2.04828zm-2.560359.002c-.565618 0-1.024141.45852-1.024141 1.02415 0 .56562.458523 1.02414 1.024141 1.02414.56562 0 1.024144-.45852 1.024144-1.02414 0-.56563-.458524-1.02415-1.024144-1.02415zm2.560359 3.58251v2.04828h7.681074v-2.04828zm-2.560359.002c-.565618 0-1.024141.45852-1.024141 1.02414 0 .56563.458523 1.02415 1.024141 1.02415.56562 0 1.024144-.45852 1.024144-1.02415 0-.56562-.458524-1.02414-1.024144-1.02414zm2.560359 3.58251v2.04828h7.681074v-2.04828zm-2.560359.002c-.565618 0-1.024141.45852-1.024141 1.02414 0 .56563.458523 1.02414 1.024141 1.02414.56562 0 1.024144-.45851 1.024144-1.02414 0-.56562-.458524-1.02414-1.024144-1.02414z" fill="url(#d)"/>
          <path d="m89.331907 272.49549h11.582753v.51207h-11.582753z" fill="url(#c)"/>
          <path d="m88.466736 264.81414v9.21728h13.313864v-9.21728zm1.024142 1.02414h11.265572v7.16899h-11.265572zm.512072 1.02414v.51207h10.24143v-.51207zm0 1.53622v.51207h10.24143v-.51207zm0 1.53621v.51207h10.24143v-.51207zm0 1.53621v.51207h10.24143v-.51207z" fill="url(#b)"/>
          <path d="m99.461271 266.34334a.76818413.76818413 0 0 0 -.528074.23203l-3.29746 3.29747-1.505209-1.50521a.76818413.76818413 0 0 0 -1.086154 0l-2.816394 2.8164a.76818413.76818413 0 1 0 1.086154 1.08615l2.273317-2.27332 1.505208 1.50521a.76818413.76818413 0 0 0 1.086155 0l3.840536-3.84054a.76818413.76818413 0 0 0 -.558079-1.31819z" fill="url(#a)"/>
        </g>
        <path d="m96.26113 227.52796v11.70209c0 2.35744 1.920491 4.21459 4.27793 4.21459l11.70229-.003v-.52914z" opacity=".25"/>
      </g>
      <path d="m94.768356 233.47336v11.70209c0 2.35744 1.920487 4.21459 4.277927 4.21459l11.702287-.003z" fill="#ba5a27"/>
    </g>
  </g>
</svg>
