<svg height="256" viewBox="0 0 67.73 67.73" width="256" xmlns="http://www.w3.org/2000/svg" xmlns:xlink="http://www.w3.org/1999/xlink">
  <filter id="filter16020-3" color-interpolation-filters="sRGB" height="1.021433" width="1.027265" x="-.013633" y="-.010717">
    <feGaussianBlur stdDeviation="2.0004419"/>
  </filter>
  <g enable-background="new" stroke-width=".25" transform="matrix(.13297834 0 0 .13297834 .605824 28.61487660106)">
    <path d="m111.82842-178.55025h200l120.17158 119.671571.005 296.240039c.00031 17.728-14.44878 32.08839-32.17678 32.08839h-288c-17.72799 0-31.999992-14.272-31.999992-32v-384c0-17.728 14.272002-32 31.999992-32z" filter="url(#filter16020-3)" opacity=".4"/>
    <path d="m111.82842-179.67158h200l120.17158 119.67158.005 296.24003c.00031 17.728-14.44878 32.08839-32.17678 32.08839h-288c-17.727992 0-31.999992-14.272-31.999992-32v-384c0-17.728 14.272-32 31.999992-32z" fill="#f6f5f4"/>
    <path d="m311.82842-175.69243v88.000007c0 17.728 14.44211 31.693795 32.17011 31.693795l88.00147-.022223v-3.979149z" opacity=".25"/>
    <path d="m311.82842-179.67158v88.000008c0 17.728 14.44211 31.693795 32.17011 31.693795l88.00147-.022223z" fill="#deddda"/>
    <g stroke-width="7.520022">
      <path d="m306.321-7.57619c-31.83479 0-31.83475 31.834811-31.83475 31.834811v79.586869h15.91737v-79.586869s-.00001-15.9174108 15.91738-15.9174108h15.91739v71.6282108h15.91736v-71.6282108h15.9174c15.91733 0 15.91737 15.9174108 15.91737 15.9174108v79.586869h15.91737v-79.586869s0-31.834811-31.83474-31.834811zm-148.5609.34592s-31.83477 0-31.83477 31.834731v47.75214c0 31.834729 31.83477 31.834729 31.83477 31.834729h31.83475v-15.917319h-31.83475s-15.91739-.00008-15.91739-15.91741v-16.41478h29.18057v-14.92258h-29.18057v-16.41478c0-15.9174008 15.91739-15.9174008 15.91739-15.9174008h31.83475v-15.9173302zm71.6282 0s-31.83476 0-31.83476 31.834731v47.75214c0 31.834729 31.83476 31.834729 31.83476 31.834729h31.83477v-15.917319h-31.83477s-15.91737-.00008-15.91737-15.91741v-47.75214c0-15.9174008 15.91737-15.9174008 15.91737-15.9174008h31.83477v-15.9173302z" opacity=".2"/>
      <path d="m306.321-11.555339c-31.83479 0-31.83475 31.834811-31.83475 31.834811v79.586867h15.91737v-79.586867s-.00001-15.9174108 15.91738-15.9174108h15.91739v71.6282108h15.91736v-71.6282108h15.9174c15.91733 0 15.91737 15.9174108 15.91737 15.9174108v79.586867h15.91737v-79.586867s0-31.834811-31.83474-31.834811zm-148.5609.34592s-31.83477 0-31.83477 31.834731v47.75214c0 31.834728 31.83477 31.834728 31.83477 31.834728h31.83475v-15.917318h-31.83475s-15.91739-.00008-15.91739-15.91741v-16.41478h29.18057v-14.92258h-29.18057v-16.41478c0-15.9174008 15.91739-15.9174008 15.91739-15.9174008h31.83475v-15.9173302zm71.6282 0s-31.83476 0-31.83476 31.834731v47.75214c0 31.834728 31.83476 31.834728 31.83476 31.834728h31.83477v-15.917318h-31.83477s-15.91737-.00008-15.91737-15.91741v-47.75214c0-15.9174008 15.91737-15.9174008 15.91737-15.9174008h31.83477v-15.9173302z" fill="#872b8f"/>
    </g>
  </g>
</svg>
