<svg height="256" viewBox="0 0 67.73 67.73" width="256" xmlns="http://www.w3.org/2000/svg" xmlns:xlink="http://www.w3.org/1999/xlink">
  <filter id="filter16020-3" color-interpolation-filters="sRGB" height="1.021433" width="1.027265" x="-.013633" y="-.010717">
    <feGaussianBlur stdDeviation="2.0004419"/>
  </filter>
  <g enable-background="new" stroke-width=".25" transform="matrix(.13297834 0 0 .13297834 .605824 28.61487660106)">
    <path d="m111.82842-178.55025h200l120.17158 119.671571.005 296.240039c.00031 17.728-14.44878 32.08839-32.17678 32.08839h-288c-17.72799 0-31.999992-14.272-31.999992-32v-384c0-17.728 14.272002-32 31.999992-32z" filter="url(#filter16020-3)" opacity=".4"/>
    <path d="m111.82842-179.67158h200l120.17158 119.67158.005 296.24003c.00031 17.728-14.44878 32.08839-32.17678 32.08839h-288c-17.727992 0-31.999992-14.272-31.999992-32v-384c0-17.728 14.272-32 31.999992-32z" fill="#f6f5f4"/>
    <path d="m311.82842-175.69243v88.000007c0 17.728 14.44211 31.693795 32.17011 31.693795l88.00147-.022223v-3.979149z" opacity=".25"/>
    <path d="m311.82842-179.67158v88.000008c0 17.728 14.44211 31.693795 32.17011 31.693795l88.00147-.022223z" fill="#deddda"/>
    <g stroke-width=".25">
      <g enable-background="new" fill="#d5d3cf" opacity=".3">
        <path d="m141.62190992-127.11363676h7.61964696v114.2947044h-7.61964696z" opacity="1"/>
        <path d="m179.72014472-127.11363676h7.61964696v114.2947044h-7.61964696z" opacity="1"/>
        <path d="m240.6773204-127.11363676h7.61964696v114.2947044h-7.61964696z" opacity="1"/>
        <path d="m301.63449608-43.2975202h7.61964696v30.47858784h-7.61964696z" opacity="1"/>
        <path d="m362.59167176-43.2975202h7.61964696v30.47858784h-7.61964696z" opacity="1"/>
        <path d="m141.62190992-20.43857932h228.5894088v7.61964696h-228.5894088z" opacity="1"/>
        <path d="m141.62190992-43.2975202h228.5894088v7.61964696h-228.5894088z" opacity="1"/>
        <path d="m141.62190992-66.15646108h106.67505744v7.61964696h-106.67505744z" opacity="1"/>
        <path d="m141.62190992-89.01540196h106.67505744v7.61964696h-106.67505744z" opacity="1"/>
        <path d="m141.62190992-111.87434284h106.67505744v7.61964696h-106.67505744z" opacity="1"/>
        <path d="m141.62190992-134.73328372h106.67505744v7.61964696h-106.67505744z" opacity="1"/>
        <path d="m141.62190992 170.05259468h228.5894088v7.61964696h-228.5894088z" opacity="1"/>
        <path d="m141.62190992 192.91153556h228.5894088v7.61964696h-228.5894088z" opacity="1"/>
        <path d="m141.62190992 215.77047644h228.5894088v7.61964696h-228.5894088z" opacity="1"/>
        <path d="m141.62190992 170.05259468h7.61964696v53.33752872h-7.61964696z" opacity="1"/>
        <path d="m179.72014472 170.05259468h7.61964696v53.33752872h-7.61964696z" opacity="1"/>
        <path d="m240.6773204 170.05259468h7.61964696v53.33752872h-7.61964696z" opacity="1"/>
        <path d="m301.63449608 170.05259468h7.61964696v53.33752872h-7.61964696z" opacity="1"/>
        <path d="m362.59167176 170.05259468h7.61964696v53.33752872h-7.61964696z" opacity="1"/>
      </g>
      <g enable-background="new" transform="matrix(.95245587 0 0 .95245587 -1588.03795 -1967.258308)">
        <path d="m1816 2068h8v152h-8z" fill="#d5d3cf"/>
        <path d="m2212-2056h8v240h-8z" fill="#d5d3cf" transform="rotate(90)"/>
        <path d="m1832 2124h24v80h-24z" fill="#50db81"/>
        <path d="m1864 2156h24v48h-24z" fill="#8f5aa0"/>
        <path d="m1896 2092h24v112h-24z" fill="#fb8c14"/>
        <path d="m1928 2108h24v96h-24z" fill="#e01b24"/>
        <path d="m1960 2148h24v56h-24z" fill="#8f5aa0"/>
        <path d="m1992 2172h24v32h-24z" fill="#4a86cf"/>
        <path d="m2024 2132h24v72h-24z" fill="#f6d32d"/>
      </g>
    </g>
  </g>
</svg>
