<svg enable-background="new" height="128" viewBox="0 0 128 128" width="128" xmlns="http://www.w3.org/2000/svg" xmlns:xlink="http://www.w3.org/1999/xlink">
  <filter id="filter16020" color-interpolation-filters="sRGB" height="1.021433" width="1.027265" x="-.013633" y="-.010717">
    <feGaussianBlur stdDeviation="2.0004419"/>
  </filter>
  <linearGradient id="linearGradient1610" gradientUnits="userSpaceOnUse" x1="70.586" x2="60" y1="223.255" y2="193">
    <stop offset="0" stop-color="#fff"/>
    <stop offset="1" stop-color="#deddda"/>
  </linearGradient>
  <linearGradient id="linearGradient1612" gradientUnits="userSpaceOnUse" x1="60" x2="68" y1="268" y2="268">
    <stop offset="0" stop-color="#949390"/>
    <stop offset=".083333" stop-color="#d5d3cf"/>
    <stop offset=".16667" stop-color="#949390"/>
    <stop offset=".83333" stop-color="#949390"/>
    <stop offset=".91667" stop-color="#d5d3cf"/>
    <stop offset="1" stop-color="#949390"/>
  </linearGradient>
  <g enable-background="new" stroke-width=".25" transform="matrix(.26223653 0 0 .26223653 -1.674864 52.081414)">
    <path d="m111.82842-178.55025h200l120.17158 119.671571.005 296.240039c.00031 17.728-14.44878 32.08839-32.17678 32.08839h-288c-17.72799 0-31.999992-14.272-31.999992-32v-384c0-17.728 14.272002-32 31.999992-32z" filter="url(#filter16020)" opacity=".4"/>
    <path d="m111.82842-179.67158h200l120.17158 119.67158.005 296.24003c.00031 17.728-14.44878 32.08839-32.17678 32.08839h-288c-17.727992 0-31.999992-14.272-31.999992-32v-384c0-17.728 14.272-32 31.999992-32z" fill="#a80030"/>
    <path d="m311.82842-179.67158v88.000008c0 17.728 14.44211 31.693795 32.17011 31.693795l88.00147-.022223z" fill="#fff" opacity=".5"/>
    <g enable-background="new">
      <g enable-background="new" transform="matrix(3.8133513 0 0 3.8133513 -1011.39303367483 -832.47742780016)">
        <path d="m330.33488 227.6715h2v60h-2z" fill="#cdab8f"/>
        <path d="m332.33488 287.6715h2v-60h-2z" fill="#eadcd0"/>
        <g enable-background="new" transform="translate(268.33488 52.671502)">
          <path d="m60 178v4h4v-2h4v-2h-4zm4 4v2h-4v4h4v-2h4v-4zm0 6v2h-4v4h4v-2h4v-4zm0 6v2h-4v4h4v-2h4v-2-2zm0 6v2h-4v4h4v-2h4v-4zm0 6v2h-4v4h4v-2h4v-4zm0 6v2h-4v4h4v-2h4v-2-2zm0 6v2h-4v4h4v-2h4v-4zm0 6v2h-4v4h4v-2h4v-4zm0 6v2h-4v4h4v-2h4v-2-2z" fill="url(#linearGradient1610)"/>
          <path d="m64 179v1h4v-1zm-4 2v1h4v-1zm4 4v1h4v-1zm-4 2v1h4v-1zm4 4v1h4v-1zm-4 2v1h4v-1zm4 4v1h4v-1zm-4 2v1h4v-1zm4 4v1h4v-1zm-4 2v1h4v-1zm4 4v1h4v-1zm-4 2v1h4v-1zm4 4v1h4v-1zm-4 2v1h4v-1zm4 4v1h4v-1zm-4 2v1h4v-1zm4 4v1h4v-1zm-4 2v1h4v-1zm4 4v1h4v-1zm-4 2v1h4v-1z" fill="#241f31" opacity=".4"/>
        </g>
        <path d="m328.33488 221.6715c-2.216 0-4 1.784-4 4v10c0 2.216 1.784 4 4 4v8c0 1.108.892 2 2 2h4c1.108 0 2-.892 2-2v-8c2.216 0 4-1.784 4-4v-10c0-2.216-1.784-4-4-4zm2 22h4v4h-4z" opacity=".1"/>
        <g enable-background="new" transform="translate(268.33488 -30.328498)">
          <path d="m62 258c-1.108 0-2 .892-2 2v16c0 1.108.892 2 2 2h4c1.108 0 2-.892 2-2v-16c0-1.108-.892-2-2-2zm0 14h4v4h-4z" fill="url(#linearGradient1612)"/>
          <rect fill="#3d3846" height="18" rx="4" width="16" x="56" y="250"/>
          <rect fill="#5e5c64" height="18" rx="4" width="16" x="56" y="248"/>
          <path d="m62 254c-1.108 0-2 .892-2 2v18c0 1.108.892 2 2 2h4c1.108 0 2-.892 2-2v-18c0-1.108-.892-2-2-2zm0 16h4v4h-4z" fill="#fff"/>
          <g transform="scale(1 -1)">
            <rect fill="#68676b" height="10" rx="2" width="4" x="62" y="-260"/>
            <rect fill="#949390" height="8" rx="2" width="4" x="62" y="-258"/>
          </g>
        </g>
      </g>
      <g fill="#fff" transform="matrix(3.8133513 0 0 3.8133513 -1006.7983 -179.14207)">
        <g enable-background="new" opacity=".75" stroke-width=".233004" transform="matrix(.39107175 0 0 .38812988 335.9605 72.539128)">
          <path d="m60.969 47.645c-1.494.02.281.768 2.232 1.069.541-.422 1.027-.846 1.463-1.26-1.213.297-2.449.304-3.695.191"/>
          <path d="m68.986 45.646c.893-1.229 1.541-2.573 1.77-3.963-.201.99-.736 1.845-1.244 2.749-2.793 1.759-.264-1.044-.002-2.111-3.002 3.783-.414 2.268-.524 3.325"/>
          <path d="m71.949 37.942c.182-2.691-.529-1.839-.768-.814.278.146.499 1.898.768.814"/>
          <path d="m55.301 1.163c.798.142 1.724.252 1.591.443.876-.193 1.073-.367-1.591-.443"/>
          <path d="m56.893 1.606-.561.117.523-.048z"/>
          <path d="m81.762 38.962c.09 2.416-.705 3.59-1.424 5.666l-1.293.643c-1.057 2.054.105 1.304-.652 2.937-1.652 1.467-5.006 4.589-6.08 4.875-.785-.017.531-.926.703-1.281-2.209 1.516-1.773 2.276-5.152 3.199l-.098-.221c-8.33 3.92-19.902-3.847-19.75-14.443-.088.672-.253.504-.437.774-.43-5.451 2.518-10.926 7.49-13.165 4.863-2.406 10.564-1.42 14.045 1.829-1.912-2.506-5.721-5.163-10.232-4.917-4.421.072-8.558 2.881-9.938 5.932-2.264 1.425-2.528 5.496-3.514 6.242-1.329 9.76 2.497 13.975 8.97 18.936 1.016.686.286.791.422 1.313-2.15-1.006-4.118-2.526-5.738-4.387.86 1.257 1.787 2.479 2.986 3.439-2.029-.685-4.738-4.913-5.527-5.085 3.495 6.258 14.178 10.975 19.775 8.634-2.59.096-5.879.053-8.787-1.022-1.225-.629-2.884-1.93-2.587-2.173 7.636 2.851 15.522 2.158 22.128-3.137 1.682-1.31 3.518-3.537 4.049-3.567-.799 1.202.137.578-.477 1.639 1.672-2.701-.729-1.1 1.73-4.664l.908 1.25c-.34-2.244 2.785-4.966 2.467-8.512.717-1.084.799 1.168.039 3.662 1.055-2.767.279-3.212.549-5.496.291.768.678 1.583.875 2.394-.688-2.675.703-4.503 1.049-6.058-.342-.15-1.061 1.182-1.227-1.976.025-1.372.383-.719.52-1.057-.268-.155-.975-1.207-1.404-3.224.309-.475.832 1.229 1.256 1.298-.273-1.603-.742-2.826-.762-4.057-1.24-2.59-.439.346-1.443-1.112-1.32-4.114 1.094-.955 1.258-2.823 1.998 2.895 3.137 7.385 3.662 9.244-.4-2.267-1.045-4.464-1.834-6.589.609.257-.979-4.663.791-1.405-1.889-6.945-8.078-13.435-13.773-16.479.695.637 1.574 1.437 1.26 1.563-2.834-1.685-2.336-1.818-2.742-2.53-2.305-.939-2.459.077-3.984.002-4.35-2.308-5.188-2.063-9.191-3.507l.182.852c-2.881-.96-3.357.362-6.47.002-.189-.147.998-.536 1.976-.677-2.786.368-2.656-.55-5.382.101.671-.471 1.383-.784 2.099-1.184-2.271.138-5.424 1.322-4.451.244-3.705 1.654-10.286 3.975-13.979 7.438l-.116-.776c-1.692 2.031-7.379 6.066-7.832 8.699l-.453.105c-.879 1.491-1.45 3.18-2.148 4.713-1.151 1.963-1.688.756-1.524 1.064-2.265 4.592-3.392 8.45-4.363 11.616.692 1.035.017 6.232.278 10.391-1.136 20.544 14.418 40.489 31.42 45.093 2.492.893 6.197.861 9.349.949-3.718-1.064-4.198-.563-7.822-1.826-2.613-1.232-3.185-2.637-5.037-4.244l.733 1.295c-3.63-1.285-2.111-1.59-5.065-2.525l.783-1.021c-1.177-.09-3.117-1.982-3.647-3.033l-1.288.051c-1.546-1.906-2.371-3.283-2.31-4.35l-.416.742c-.471-.809-5.691-7.158-2.983-5.68-.503-.458-1.172-.747-1.897-2.066l.551-.629c-1.301-1.677-2.398-3.826-2.314-4.542.695.938 1.177 1.114 1.655 1.275-3.291-8.164-3.476-.449-5.967-8.31l.526-.042c-.403-.611-.65-1.27-.974-1.919l.23-2.285c-2.368-2.736-.662-11.645-.319-16.53.235-1.986 1.977-4.101 3.3-7.418l-.806-.138c1.542-2.688 8.802-10.799 12.166-10.383 1.629-2.046-.324-.008-.643-.522 3.579-3.703 4.704-2.616 7.119-3.283 2.603-1.545-2.235.604-1.001-.589 4.503-1.149 3.19-2.614 9.063-3.197.62.352-1.437.544-1.953 1.001 3.75-1.836 11.869-1.417 17.145 1.018 6.117 2.861 12.994 11.314 13.266 19.267l.309.083c-.156 3.162.484 6.819-.627 10.177z"/>
          <path d="m44.658 49.695-.211 1.047c.983 1.335 1.763 2.781 3.016 3.821-.902-1.759-1.571-2.486-2.805-4.868"/>
          <path d="m46.979 49.605c-.52-.576-.826-1.268-1.172-1.956.33 1.211 1.006 2.252 1.633 3.312z"/>
          <path d="m88.063 40.675-.219.552c-.402 2.858-1.273 5.686-2.605 8.309 1.472-2.767 2.421-5.794 2.824-8.861"/>
          <path d="m55.598.446c1.009-.369 2.482-.203 3.556-.446-1.398.117-2.789.187-4.162.362z"/>
          <path d="m20.127 19.308c.233 2.154-1.62 2.991.41 1.569 1.09-2.454-.424-.677-.41-1.569"/>
          <path d="m17.739 29.282c.469-1.437.553-2.299.732-3.132-1.293 1.654-.596 2.007-.732 3.132"/>
        </g>
        <g stroke-width=".625698" transform="matrix(.80083418 0 0 .80083418 263.18738 27.770529)">
          <path d="m34.347656 89.199219v.300781 14.29883h4.191406c2.742501 0 4.808187-.57021 6.16211-1.77149 1.354478-1.20176 2.013672-3.077077 2.013672-5.542965 0-2.453401-.655636-4.316208-2.003906-5.511719-1.348298-1.202177-3.417064-1.773437-6.171876-1.773437zm2.494141 2.15625h1.986328c1.886374 0 3.212533.428886 4.029297 1.228515h.002c.822607.794045 1.257812 2.072972 1.257813 3.900391 0 1.840239-.436868 3.129645-1.259766 3.929685v.002c-.816764.79962-2.142923 1.22656-4.029297 1.22656h-1.986328z"/>
          <path d="m49.125 89.199219v.300781 14.29883h9.621094v-2.19336h-7.126953v-4.472658h6.667968v-2.195312h-6.667968v-3.544922h6.957031v-2.193359z"/>
          <path d="m61.277344 89.199219v.300781 14.29883h5.326172c1.612526 0 2.895938-.35016 3.816406-1.08789.920059-.7374 1.388672-1.81258 1.388672-3.130862 0-1.004127-.282702-1.872347-.847656-2.560547-.435157-.540774-1.119112-.812176-1.81836-1.060547.537396-.184042 1.091607-.354007 1.419922-.769531.451095-.570919.664062-1.327313.664062-2.230469 0-1.177118-.437-2.14249-1.289062-2.796875-.852226-.654509-2.035854-.96289-3.521484-.96289zm2.49414 2.15625h2.503907c2.198226.0411 2.90799 1.54704 1.880906 3.166015-.371302.283633-.992815.455078-1.880859.455078h-2.503907zm0 5.757812h2.738282c.977873 0 1.655198.205101 2.064453.556641h.002l.002.002c.413765.345677.632813.882405.632813 1.701172 0 .812106-.219459 1.355686-.636719 1.714846-.409255.35154-1.086581.55469-2.064453.55469h-2.738282z"/>
        </g>
      </g>
    </g>
  </g>
</svg>
