<svg width="256" height="256" version="1.1" viewBox="0 0 67.73 67.73" xmlns="http://www.w3.org/2000/svg">
 <filter id="a" x="-.013633" y="-.010717" width="1.0273" height="1.0214" color-interpolation-filters="sRGB">
  <feGaussianBlur stdDeviation="2.0004419"/>
 </filter>
 <g transform="matrix(.13298 0 0 .13298 .60582 28.615)" enable-background="new" stroke-width=".25">
  <path d="m111.83-178.55h200l120.17 119.67 5e-3 296.24c3.1e-4 17.728-14.449 32.088-32.177 32.088h-288c-17.728 0-32-14.272-32-32v-384c0-17.728 14.272-32 32-32z" filter="url(#a)" opacity=".4"/>
  <path d="m111.83-179.67h200l120.17 119.67 5e-3 296.24c3.1e-4 17.728-14.449 32.088-32.177 32.088h-288c-17.728 0-32-14.272-32-32v-384c0-17.728 14.272-32 32-32z" fill="#f6f5f4"/>
  <path d="m311.83-175.69v88c0 17.728 14.442 31.694 32.17 31.694l88.001-0.022223v-3.9791z" opacity=".25"/>
  <path d="m311.83-179.67v88c0 17.728 14.442 31.694 32.17 31.694l88.001-0.022223z" fill="#deddda"/>
  <path d="m200.88 36.494s6.0989 1.8097 9.6422 3.5726c1.2295 0.61179 3.3566 1.8325 4.8911 3.4352 1.503 1.5697 2.2358 3.1604 2.2358 3.1604l24.319 43.219-44.311 0.01479-18.154-32.811s-3.72-6.2846-6.0089-8.1069c-1.9095-1.52-2.7237-2.0612-4.6115-2.0612h-9.2303l-7e-3 42.955h-39.727v-125h61.576c21.867 0 50.706 6.4329 50.706 35.847 0 29.414-31.321 35.777-31.321 35.777zm-41.234-48.185v31.251h18.855s14.618 0 15.59-15.291c1.0148-15.957-15.599-15.943-15.599-15.943z" fill="#3f51b5" fill-rule="evenodd" stroke-width="4.964"/>
  <g transform="translate(-362.94 -3.3598)" enable-background="new" stroke-width=".25">
   <g transform="matrix(.66944 0 0 .66944 526.61 -43.536)">
    <rect x="134.42" y="25.534" width="206.93" height="111.42" rx="11.885" ry="11.885" fill="none" stroke="#3f51b5" stroke-width="15.917"/>
    <g fill="#3f51b5" stroke-width="7.52">
     <path d="m166.27 113.05v-63.67h15.917l19.897 24.871 19.897-24.871h15.917v63.67h-15.917v-38.799l-19.897 24.871-19.897-24.871v38.799z" stroke-width="7.5192"/>
     <path d="m285.65 113.05-23.876-31.835h15.917v-31.835h15.917v31.835h15.917z"/>
    </g>
   </g>
  </g>
 </g>
</svg>
