<svg height="256" viewBox="0 0 67.73 67.73" width="256" xmlns="http://www.w3.org/2000/svg" xmlns:xlink="http://www.w3.org/1999/xlink">
  <filter id="filter16020-3" color-interpolation-filters="sRGB" height="1.021433" width="1.027265" x="-.013633" y="-.010717">
    <feGaussianBlur stdDeviation="2.0004419"/>
  </filter>
  <g enable-background="new" stroke-width=".25" transform="matrix(.13297834 0 0 .13297834 .605824 28.61487660106)">
    <path d="m111.82842-178.55025h200l120.17158 119.671571.005 296.240039c.00031 17.728-14.44878 32.08839-32.17678 32.08839h-288c-17.72799 0-31.999992-14.272-31.999992-32v-384c0-17.728 14.272002-32 31.999992-32z" filter="url(#filter16020-3)" opacity=".4"/>
    <path d="m111.82842-179.67158h200l120.17158 119.67158.005 296.24003c.00031 17.728-14.44878 32.08839-32.17678 32.08839h-288c-17.727992 0-31.999992-14.272-31.999992-32v-384c0-17.728 14.272-32 31.999992-32z" fill="#f6f5f4"/>
    <path d="m311.82842-175.69243v88.000007c0 17.728 14.44211 31.693795 32.17011 31.693795l88.00147-.022223v-3.979149z" opacity=".25"/>
    <path d="m311.82842-179.67158v88.000008c0 17.728 14.44211 31.693795 32.17011 31.693795l88.00147-.022223z" fill="#deddda"/>
    <path clip-rule="evenodd" d="m279.80999-75.051933c10.00563 39.418219-35.29301 51.323619-51.64192 75.87242894-11.13326 16.72596006 5.46497 34.69918106 28.09433 55.11439106-8.82451-19.94836-38.75136-37.398121.012-68.015441 48.33777-38.15335 23.53493-62.971379 23.53493-62.971379zm29.90552 48.768989c.00053 0-81.73578 20.4084399-42.70044 65.390351 11.52356 13.26502-3.02283 25.192304-3.02283 25.192304s29.24275-15.092464 15.81567-34.002534c-12.54506-17.626551-22.16187-26.3830911 29.9076-56.580121zm14.47494 80.348351c-2.87185.008-5.92126.5076-9.0497 1.60718-2.50826.88789-3.82431 2.95198-3.82431 2.95198s1.58575-.63844 5.12129-1.37608c14.45808-3.01267 35.17387 19.354884-9.6243 42.627624-.20763.554209-.89571 1.176189-.89519 1.176189 53.27652-14.005199 41.65761-47.030353 18.27221-46.986893zm-95.98699 2.27135c-3.5093-.0812-18.68021.14438-36.80886 8.914314-24.50967 11.8511 60.61451 17.25003 104.68697 5.65844 4.58189-3.12683 10.91091-5.84155 10.91091-5.84155s-18.02567 3.22248-35.98654 4.72986c-21.98342 1.84436-45.56506 2.20848-57.40236.62492-28.0262-3.74685 15.36392-14.054404 15.36392-14.054404s-.26268-.0226-.76404-.0301zm-9.33911 27.115774c-40.43073 13.41858 22.50726 28.646989 79.01384 12.11844-6.00368-2.11636-9.81583-5.98955-9.81583-5.98955-27.62793 5.31703-43.58629 5.14716-63.7998 3.06035-15.62744-1.61515-5.39821-9.18924-5.39821-9.18924zm5.71464 26.137399c-36.71138 10.25761 22.33592 31.44549 69.07935 11.41886-7.65583-2.97515-13.14677-6.41-13.14677-6.41-20.84468 3.94012-30.51409 4.25047-49.43518 2.09027-15.61582-1.79104-6.4974-7.09913-6.4974-7.09913zm-25.49826 17.32914c-16.48593.50836-48.7274 15.3319-19.24239 20.11681 95.29686 15.4468 173.71234-6.95768 148.9967-18.10994 0 0 6.75132 5.56647-7.43421 9.87002-26.97408 8.17021-112.29055 10.63459-135.98732.32712-8.51252-3.70775 7.45765-8.847 12.48266-9.93237 5.23943-1.13334 8.23154-.92646 8.23154-.92646-1.48028-1.04234-3.99405-1.4391-7.04698-1.34488zm144.88299 14.16689s-3.00389 7.71231-35.53271 13.83174c-36.69767 6.90894-81.97012 6.1034-108.81111 1.67176 0 0 5.49787 4.55181 33.75275 6.3703 42.99131 2.74856 109.0282-1.52921 110.59107-21.8738z" fill="#5e5e5e" fill-rule="evenodd" stroke-width="7.520022"/>
  </g>
</svg>
