<svg height="256" viewBox="0 0 67.73 67.73" width="256" xmlns="http://www.w3.org/2000/svg" xmlns:xlink="http://www.w3.org/1999/xlink">
  <filter id="filter16020-3" color-interpolation-filters="sRGB" height="1.021433" width="1.027265" x="-.013633" y="-.010717">
    <feGaussianBlur stdDeviation="2.0004419"/>
  </filter>
  <g enable-background="new" stroke-width=".25" transform="matrix(.13297834 0 0 .13297834 .605824 28.61487660106)">
    <path d="m111.82842-178.55025h200l120.17158 119.671571.005 296.240039c.00031 17.728-14.44878 32.08839-32.17678 32.08839h-288c-17.72799 0-31.999992-14.272-31.999992-32v-384c0-17.728 14.272002-32 31.999992-32z" filter="url(#filter16020-3)" opacity=".4"/>
    <path d="m111.82842-179.67158h200l120.17158 119.67158.005 296.24003c.00031 17.728-14.44878 32.08839-32.17678 32.08839h-288c-17.727992 0-31.999992-14.272-31.999992-32v-384c0-17.728 14.272-32 31.999992-32z" fill="#f6f5f4"/>
    <path d="m311.82842-175.69243v88.000007c0 17.728 14.44211 31.693795 32.17011 31.693795l88.00147-.022223v-3.979149z" opacity=".25"/>
    <path d="m311.82842-179.67158v88.000008c0 17.728 14.44211 31.693795 32.17011 31.693795l88.00147-.022223z" fill="#deddda"/>
    <path d="m257.45772 107.35947q-12.02058 0-22.50007-4.31506-10.17128-4.315131-17.87679-12.328841-7.70551-8.01372-12.02058-19.72607-4.31511-12.02061-4.31511-27.123368 0-14.79459 4.62332-26.19878 4.93153-11.71236 12.94525-19.72607 8.01373-8.32196 18.49323-12.32885 10.47948-4.31506 21.88364-4.31506 15.1028 0 24.34941 4.31506 9.55482 4.00689 12.94525 6.47263l-5.85619 13.86993q-4.6233-2.46574-12.02058-5.23973-7.08907-3.08223-19.41789-3.08223-16.95212 0-28.35629 12.02061-11.09592 12.0206-11.09592 34.21249 0 22.808228 10.78771 35.137078 11.09594 12.0206 29.89738 12.0206 13.25348 0 20.65077-2.77398 7.7055-3.08224 11.09592-5.23973l5.23975 14.79451q-4.00686 2.465811-14.17813 6.164461-10.17127 3.3904-25.27408 3.3904zm102.94559-63.185169q0 26.506948-8.63016 47.157758-8.63016 20.650721-23.11652 35.137061-14.17813 14.17818-33.2878 21.88364-18.80143 7.3973-39.45221 7.3973-20.65075 0-39.76042-7.3973-18.80145-7.70546-33.28779-21.88364-14.17816-14.48634-22.80832-35.137061-8.63017-20.65081-8.63017-47.157758 0-26.1987 8.63017-46.84951 8.63016-20.95898 22.80832-35.13708 14.48634-14.17817 33.28779-21.57539 19.10967-7.70554 39.76042-7.70554 20.65078 0 39.45221 7.70554 19.10967 7.39722 33.2878 21.57539 14.48636 14.1781 23.11652 35.13708 8.63016 20.65081 8.63016 46.84951zm-18.18498 0q0-21.26722-6.47262-38.83573-6.47265-17.56857-17.87679-29.89742-11.40415-12.63702-27.43161-19.41782-15.71924-6.78088-34.52069-6.78088-18.80143 0-34.8289 6.78088-15.71923 6.7808-27.1234 19.41782-11.40414 12.32885-17.87676 29.89742-6.47264 17.56851-6.47264 38.83573 0 21.267218 6.47264 38.835798 6.47262 17.568571 17.87676 30.205591 11.40417 12.32877 27.1234 19.4179 16.02747 6.78081 34.8289 6.78081 18.80145 0 34.52069-6.78081 16.02746-7.08913 27.43161-19.4179 11.40414-12.63702 17.87679-30.205591 6.47262-17.56858 6.47262-38.835798z" fill="#808080" opacity=".5" stroke-width="7.520022"/>
  </g>
</svg>
