<svg height="256" viewBox="0 0 67.73 67.73" width="256" xmlns="http://www.w3.org/2000/svg" xmlns:xlink="http://www.w3.org/1999/xlink">
  <filter id="filter16020-3" color-interpolation-filters="sRGB" height="1.021433" width="1.027265" x="-.013633" y="-.010717">
    <feGaussianBlur stdDeviation="2.0004419"/>
  </filter>
  <g enable-background="new" stroke-width=".25">
    <g enable-background="new" stroke-width=".25" transform="matrix(.13297834 0 0 .13297834 .605824 28.61487660106)">
      <path d="m111.82842-178.55025h200l120.17158 119.671571.005 296.240039c.00031 17.728-14.44878 32.08839-32.17678 32.08839h-288c-17.72799 0-31.999992-14.272-31.999992-32v-384c0-17.728 14.272002-32 31.999992-32z" filter="url(#filter16020-3)" opacity=".4"/>
      <path d="m111.82842-179.67158h200l120.17158 119.67158.005 296.24003c.00031 17.728-14.44878 32.08839-32.17678 32.08839h-288c-17.727992 0-31.999992-14.272-31.999992-32v-384c0-17.728 14.272-32 31.999992-32z" fill="#f6f5f4"/>
      <path d="m311.82842-175.69243v88.000007c0 17.728 14.44211 31.693795 32.17011 31.693795l88.00147-.022223v-3.979149z" opacity=".25"/>
      <path d="m311.82842-179.67158v88.000008c0 17.728 14.44211 31.693795 32.17011 31.693795l88.00147-.022223z" fill="#deddda"/>
    </g>
    <g fill-rule="evenodd" transform="matrix(.13297834 0 0 .13297834 1.1372069094 28.614877)">
      <path d="m108.357 153h-23.886v-110h48.715q19.643 0 28.993 10.214 9.35 10.215 9.35 25.143 0 6.443-2.2 12.493-2.2 6.05-6.6 11.236-4.4 5.185-12.1 8.328-7.7 3.143-17.443 3.143h-24.829zm0-61.914h25.772q6.285 0 9.428-3.772 3.143-3.771 3.143-8.957 0-5.028-2.986-8.878-2.985-3.85-9.585-3.85h-25.772z" fill="#dc8add" opacity=".65" transform="matrix(1.8087041 0 0 1.8087041 20.40648 -131.80324)"/>
      <path d="m150.98153 251.64696h-6.84612v-39.93076h16.59902q6.90382 0 10.15478 3.59317 3.25097 3.59516 3.25097 8.78596 0 4.90629-3.39422 8.67056-3.39421 3.76428-10.01153 3.76428h-9.7529zm0-21.61872h10.0951q3.02416 0 4.50838-1.77072 1.48223-1.76674 1.48223-4.16219 0-2.28204-1.39668-4.07863-1.39867-1.79658-4.59393-1.79658h-10.0951zm63.2048 21.61872h-7.18833l-3.13756-8.72826h-15.8012l-3.13756 8.72826h-7.24404l14.88799-39.93076h6.78843zm-23.95845-14.88799h11.46592l-4.39298-11.97923q-.85552-2.16863-1.31312-4.05077-.45562 1.65533-1.31113 4.05077l-4.44869 11.97724zm43.69503 15.5724q-5.47531 0-9.44053-2.76551-3.96522-2.7655-5.61856-7.56038l6.33083-2.33775q1.25542 2.79535 3.59516 4.47654 2.33775 1.68517 5.3619 1.68517 3.13756 0 4.99185-1.42652 1.85229-1.42653 1.85229-4.10648 0-1.08432-.51331-2.02539-.51331-.94107-1.16788-1.56977-.65656-.62672-1.96968-1.25344-1.31113-.6287-2.22434-.99877-.91322-.37205-2.67996-.94106-2.28204-.79981-3.50961-1.25543-1.22558-.4576-3.13756-1.51207-1.90999-1.05448-2.90876-2.13879-.99876-1.08432-1.76873-2.88091-.76996-1.79658-.76996-3.96522 0-4.56209 3.53746-7.64395 3.53746-3.07986 9.58378-3.07986 5.0197 0 8.32836 2.3676 3.30866 2.36759 4.44869 6.18757l-6.15972 2.05523q-1.82643-4.10648-7.07493-4.10648-2.67996 0-4.19203 1.11217-1.51208 1.11218-1.51208 3.16343 0 1.3728 1.16987 2.45513 1.16987 1.08432 2.51084 1.62548 1.33898.54117 3.96323 1.39669 1.71104.6287 2.5964.94106.88337.31436 2.481 1.05448 1.59763.7441 2.51084 1.34296.91123.59687 2.0811 1.62548 1.16987 1.02662 1.79658 2.1388.62871 1.11416 1.08432 2.62425.4576 1.51207.4576 3.28081 0 5.5907-3.96522 8.81381-3.96522 3.22311-10.06725 3.22311zm37.30652 0q-3.59318 0-6.50193-1.19772-2.90876-1.19772-4.76304-3.19327-1.85429-1.99753-3.10971-4.73519-1.25343-2.73765-1.79659-5.5907-.54116-2.85305-.54116-5.93291 0-3.65087.91123-7.13064.91321-3.47976 2.79535-6.58748 1.88213-3.1097 5.24849-5.02169 3.36636-1.90999 7.75935-1.90999 5.3042 0 8.89737 2.481 3.59317 2.481 5.0197 6.01847l-6.15972 2.79535q-1.59763-2.45315-3.33851-3.59317-1.73889-1.14202-4.42083-1.14202-2.62425 0-4.59194 1.28328-1.96769 1.28327-3.02416 3.42206-1.05447 2.14079-1.53794 4.50838-.48545 2.36759-.48545 4.87645 0 5.5907 2.481 9.81258 2.481 4.21989 7.15849 4.21989 4.56408 0 7.64394-5.1331l6.33282 2.39544q-4.16418 9.35498-13.97676 9.35498zm55.27634-.68441h-7.18634l-3.13756-8.72826h-15.8012l-3.13756 8.72826h-7.24603l14.88998-39.93076h6.78843zm-23.95845-14.88799h11.46592l-4.39298-11.97923q-.85552-2.16863-1.31312-4.05077-.45363 1.65533-1.31113 4.05077l-4.44869 11.97724zm57.15848 14.88799h-26.24049v-39.93076h6.84413v33.37113h19.39636z" fill="#813d9c" stroke-width=".497394"/>
    </g>
  </g>
</svg>
