<svg height="256" viewBox="0 0 67.73 67.73" width="256" xmlns="http://www.w3.org/2000/svg" xmlns:xlink="http://www.w3.org/1999/xlink">
  <filter id="filter16020-3" color-interpolation-filters="sRGB" height="1.021433" width="1.027265" x="-.013633" y="-.010717">
    <feGaussianBlur stdDeviation="2.0004419"/>
  </filter>
  <g enable-background="new" stroke-width=".25">
    <g enable-background="new" stroke-width=".25" transform="matrix(.13297834 0 0 .13297834 .605824 28.61487660106)">
      <path d="m111.82842-178.55025h200l120.17158 119.671571.005 296.240039c.00031 17.728-14.44878 32.08839-32.17678 32.08839h-288c-17.72799 0-31.999992-14.272-31.999992-32v-384c0-17.728 14.272002-32 31.999992-32z" filter="url(#filter16020-3)" opacity=".4"/>
      <path d="m111.82842-179.67158h200l120.17158 119.67158.005 296.24003c.00031 17.728-14.44878 32.08839-32.17678 32.08839h-288c-17.727992 0-31.999992-14.272-31.999992-32v-384c0-17.728 14.272-32 31.999992-32z" fill="#f6f5f4"/>
      <path d="m311.82842-175.69243v88.000007c0 17.728 14.44211 31.693795 32.17011 31.693795l88.00147-.022223v-3.979149z" opacity=".25"/>
      <path d="m311.82842-179.67158v88.000008c0 17.728 14.44211 31.693795 32.17011 31.693795l88.00147-.022223z" fill="#deddda"/>
    </g>
    <g fill="#da1636" transform="matrix(.26457031432 0 0 .26457031432 .77219054161 .79370987379)">
      <path d="m63 91.159v73.682h12.754c.046-9.602-.1-19.207.088-28.807.316-4.51.565-10.253 4.862-12.722 2.365-1.36 5.53-1.69 8.136-.844 3.818 1.24 4.459 6.16 4.622 9.703.063 10.89.01 21.78.027 32.67h12.704c-.026-12.237.096-24.605 0-36.841-.132-6.149-2.65-12.883-8.532-15.69-5.028-2.398-10.98-1.682-16.083.252-2.409.913-5.733 5.355-5.733 5.355l-.091-26.758z"/>
      <path d="m146.87 133.125h-11.86v12.082h-10.618v-12.082h-11.935v-10.324h11.935v-12.008h10.617v12.008h11.862v10.324zm46.13 0h-11.862v12.082h-10.617v-12.082h-11.935v-10.324h11.935v-12.008h10.617v12.008h11.862z" fill-rule="evenodd"/>
    </g>
  </g>
</svg>
