<?xml version="1.0" encoding="UTF-8" standalone="no"?>
<svg
   height="256"
   viewBox="0 0 67.73 67.73"
   width="256"
   version="1.1"
   id="svg19"
   sodipodi:docname="text-csv.svg"
   inkscape:version="1.1.2 (0a00cf5339, 2022-02-04, custom)"
   xmlns:inkscape="http://www.inkscape.org/namespaces/inkscape"
   xmlns:sodipodi="http://sodipodi.sourceforge.net/DTD/sodipodi-0.dtd"
   xmlns="http://www.w3.org/2000/svg"
   xmlns:svg="http://www.w3.org/2000/svg">
  <defs
     id="defs23" />
  <sodipodi:namedview
     id="namedview21"
     pagecolor="#ffffff"
     bordercolor="#666666"
     borderopacity="1.0"
     inkscape:pageshadow="2"
     inkscape:pageopacity="0.0"
     inkscape:pagecheckerboard="0"
     showgrid="false"
     inkscape:zoom="3.0039062"
     inkscape:cx="128"
     inkscape:cy="128"
     inkscape:window-width="1920"
     inkscape:window-height="1011"
     inkscape:window-x="0"
     inkscape:window-y="0"
     inkscape:window-maximized="1"
     inkscape:current-layer="g17" />
  <filter
     id="filter16020-3"
     color-interpolation-filters="sRGB"
     height="1.0214333"
     width="1.0272651"
     x="-0.01363253"
     y="-0.010716652">
    <feGaussianBlur
       stdDeviation="2.0004419"
       id="feGaussianBlur2" />
  </filter>
  <g
     enable-background="new"
     stroke-width=".25"
     transform="matrix(.13297834 0 0 .13297834 .605824 28.614877)"
     id="g17">
    <g
       enable-background="new"
       stroke-width=".25"
       transform="translate(0 -.000003)"
       id="g13">
      <path
         d="m111.82842-178.55025h200l120.17158 119.671571.005 296.240039c.00031 17.728-14.44878 32.08839-32.17678 32.08839h-288c-17.72799 0-31.999992-14.272-31.999992-32v-384c0-17.728 14.272002-32 31.999992-32z"
         filter="url(#filter16020-3)"
         opacity=".4"
         id="path5" />
      <path
         d="m111.82842-179.67158h200l120.17158 119.67158.005 296.24003c.00031 17.728-14.44878 32.08839-32.17678 32.08839h-288c-17.727992 0-31.999992-14.272-31.999992-32v-384c0-17.728 14.272-32 31.999992-32z"
         fill="#f6f5f4"
         id="path7" />
      <path
         d="m311.82842-175.69243v88.000007c0 17.728 14.44211 31.693795 32.17011 31.693795l88.00147-.022223v-3.979149z"
         opacity=".25"
         id="path9" />
      <path
         d="m311.82842-179.67158v88.000008c0 17.728 14.44211 31.693795 32.17011 31.693795l88.00147-.022223z"
         fill="#deddda"
         id="path11" />
    </g>
    <path
       d="m375.29109-46.070669v198.957449h-238.74894v-198.957449zm-17.05265 15.304474h-119.37446v45.913073h119.37446zm-136.4291 0h-68.21375v45.913073h68.21375zm136.4291 61.217883h-119.37446v45.912744h119.37446zm-136.4291 0h-68.21375v45.912744h68.21375zm136.4291 61.217544h-119.37446v45.912748h119.37446zm-136.4291 0h-68.21375v45.912748h68.21375z"
       fill="#46a926"
       stroke-width=".454056"
       id="path15"
       style="fill:#b3b3b3" />
  </g>
</svg>
