<svg height="256" viewBox="0 0 67.73 67.73" width="256" xmlns="http://www.w3.org/2000/svg" xmlns:xlink="http://www.w3.org/1999/xlink">
  <filter id="filter16020-3" color-interpolation-filters="sRGB" height="1.021433" width="1.027265" x="-.013633" y="-.010717">
    <feGaussianBlur stdDeviation="2.0004419"/>
  </filter>
  <g enable-background="new" stroke-width=".25" transform="matrix(.13297834 0 0 .13297834 .605824 28.61487660106)">
    <path d="m111.82842-178.55025h200l120.17158 119.671571.005 296.240039c.00031 17.728-14.44878 32.08839-32.17678 32.08839h-288c-17.72799 0-31.999992-14.272-31.999992-32v-384c0-17.728 14.272002-32 31.999992-32z" filter="url(#filter16020-3)" opacity=".4"/>
    <path d="m111.82842-179.67158h200l120.17158 119.67158.005 296.24003c.00031 17.728-14.44878 32.08839-32.17678 32.08839h-288c-17.727992 0-31.999992-14.272-31.999992-32v-384c0-17.728 14.272-32 31.999992-32z" fill="#f6f5f4"/>
    <path d="m311.82842-175.69243v88.000007c0 17.728 14.44211 31.693795 32.17011 31.693795l88.00147-.022223v-3.979149z" opacity=".25"/>
    <path d="m311.82842-179.67158v88.000008c0 17.728 14.44211 31.693795 32.17011 31.693795l88.00147-.022223z" fill="#deddda"/>
    <path d="m142.49623 103.16516c-7.04413-1.55341-10.9765-4.329437-13.22347-9.335207-1.05464-2.34948-1.18864-4.00622-1.47178-18.19665-.29583-14.826331-.37652-15.745871-1.60423-18.274331-1.60483-3.30528-4.71662-5.00646-9.93513-5.43141l-3.60143-.29328v-13.88038l3.77727-.38728c5.18712-.53167 8.26111-2.12742 9.78659-5.08083 1.06802-2.06771 1.23546-3.41943 1.38138-11.15227.40142-21.2710605.53385-23.5039805 1.53205-25.8305195 1.30209-3.03493 3.39172-5.21115 6.59662-6.8701405 5.24532-2.71518 8.23838-3.17533 22.65107-3.48245l13.54828-.28877.16175 39.09908c.15642 37.80269.19898 39.17307 1.28102 41.33319 1.99584 3.984191 3.37357 4.578271 10.61769 4.578271h6.33649l.33652 2.49198c.18507 1.37053.33652 3.96268.33652 5.76026v3.26835l-4.87768.70238c-2.74119.3948-7.09188.56701-9.9328.39254-8.94517-.54896-14.4249-3.62698-17.38576-9.76648-2.77345-5.750861-3.01754-9.233231-3.03875-43.351041l-.0203-31.4189505-2.93789.39555c-4.20479.5655-6.32759 1.74036-7.50892 4.15474-.87808 1.7945-1.0595 4.06224-1.30234 16.2776105-.26388 13.27239-.36412 14.36128-1.5462 16.79491-1.6397 3.37582-3.04986 4.66866-7.93871 7.27856l-4.01992 2.14591 3.25377 1.20794c4.17983 1.55176 7.01517 3.95629 8.65958 7.34383 1.2416 2.55771 1.32381 3.44635 1.58913 17.173701.30238 15.64593.49226 16.67986 3.47425 18.91842.92316.69335 2.72798 1.23975 4.61667 1.39865l4.35053.26094v12.916627l-5.8656-.0451c-2.53918-.0225-6.17361-.38803-8.07656-.8081zm212.90938-5.675367v-6.52858l3.89625-.001c3.65674-.001 6.3274-1.4801 7.68751-4.25694.99489-2.03116 1.14284-3.79881 1.40176-16.74724.27178-13.592661.36584-14.621781 1.54061-16.856281 1.50205-2.85708 3.79083-4.71505 8.45274-6.86194l3.48066-1.60289-3.20399-1.34722c-3.81373-1.60356-7.09466-4.46426-8.76145-7.63906-1.12588-2.14441-1.23345-3.34423-1.50527-16.78627-.26712-13.2089905-.39232-14.6508805-1.42963-16.4634305-1.33894-2.3394-3.97491-3.81017-7.66294-4.27536l-3.89625-.33539v-13.1499595l6.80799.38954c12.3281.70462 18.46542 4.13864 21.11647 11.2600995.71499 1.92084.97099 5.7101 1.23741 18.3174895.30735 14.544481.4318 16.064651 1.46443 17.882691 1.45615 2.56365 5.37565 4.5527 9.76744 4.95667l3.37368.31058v13.87948l-3.58963.29253c-4.64303.37825-7.94618 2.20299-9.51403 5.25627-1.07059 2.085-1.19358 3.54862-1.503 17.882681-.36186 16.76574-.65109 18.57897-3.58653 22.48321-2.80963 3.736937-11.06505 6.441357-19.71941 6.459857l-5.85482.008zm-137.54149-14.80572c-.76944-.13837-2.9099-.52189-4.75655-.85254-4.6006-.82337-11.7621-4.43328-14.93627-7.5289-5.74678-5.6046-8.89831-12.557911-10.00447-22.073291-1.24989-10.75153.99123-21.57329 6.01138-29.02691 4.22463-6.2726 10.66355-10.648801 17.9776-12.218611 3.79243-.81397 12.06657-.8187 15.89341-.008 7.68959 1.62681 14.18528 6.665901 17.8777 13.868801 2.89559 5.64852 3.83414 10.13421 3.83414 18.32494v6.91812h-45.81645l.27809 2.12892c.91022 6.96783 2.62209 10.62218 6.66869 14.2357 3.497 3.122841 6.56136 4.072771 13.13846 4.072771 6.14891 0 12.28191-1.35804 17.65747-3.909891l3.398-1.61304 1.12003 5.845911 1.12 5.84592-3.71606 1.73765c-2.04384.95572-5.6807 2.24743-8.08192 2.87047-4.18175 1.08499-14.72903 1.91091-17.66326 1.38308zm16.64889-46.509231c-.58138-7.34743-4.44007-12.43255-10.56544-13.92332-9.54174-2.3221-17.58802 4.01968-19.28968 15.20368l-.36713 2.41272h30.51444zm35.54321 46.288371c-8.29425-.95738-17.17931-3.94493-16.71319-5.61971.14168-.50986.5628-3.28941.93558-6.17763.37277-2.888211.77792-5.251301.90037-5.251301.12236 0 1.20164.50685 2.39821 1.12605 6.49726 3.362651 19.3507 5.452241 24.6066 4.000201 4.99657-1.38031 7.74738-6.144691 5.99893-10.389971-1.14847-2.7885-3.70868-4.36199-13.90887-8.54846-9.68642-3.97568-13.29587-6.09039-16.59817-9.72489-5.60388-6.16755-5.33598-18.81818.52445-24.76351 5.06915-5.142561 11.68491-7.004151 23.45788-6.600621 8.05298.27598 12.34953 1.10725 18.3827 3.55622l2.19622.8915-1.93471 5.491491c-1.0641 3.02034-1.98532 5.54286-2.04718 5.60558-.0617.0602-2.12316-.60762-4.58069-1.49002-13.9278-5.00006-24.88703-3.05869-24.88703 4.40861 0 3.51915 3.23162 5.81095 13.80663 9.79167 11.60056 4.36673 16.89914 7.93295 19.65148 13.22667 1.3829 2.65983 1.51661 3.46755 1.51661 9.16171 0 5.67446-.14168 6.53724-1.55036 9.447481-2.61095 5.39366-7.55401 9.23143-14.12737 10.96841-3.9927 1.05506-12.82364 1.49122-18.02809.89052zm53.72115 0c-5.24961-.60612-9.13503-1.54792-13.33195-3.23196l-3.38933-1.36007.81648-6.08633c.44902-3.34754.87959-6.168071.9568-6.267941.0772-.10001 1.15381.34292 2.39246.98407 6.53009 3.379651 19.39898 5.499851 24.62199 4.056531 3.48042-.96174 6.2438-3.719251 6.62628-6.612051.67229-5.08512-2.18623-7.50656-14.74038-12.48685-16.14745-6.40578-20.86303-11.7477-20.21199-22.89651.54956-9.41168 5.63969-14.967631 15.96504-17.426221 2.89957-.69034 5.67586-.83593 11.89638-.62341 8.11604.27673 11.18489.84472 17.47396 3.2318l3.18774 1.20997-1.95196 5.470521c-1.07357 3.00876-2.00813 5.52218-2.07681 5.58542-.0684.0602-2.66182-.74749-5.76255-1.80202-9.84389-3.34717-17.75245-3.23286-21.66449.31358-1.51602 1.37421-1.79677 2.02582-1.79677 4.1703 0 4.25438 1.98884 5.67138 14.89555 10.61294 15.9808 6.11851 20.50853 11.31334 19.96339 22.90463-.30562 6.497671-1.75604 10.119091-5.46091 13.634771-3.12098 2.96162-6.07222 4.5903-10.38084 5.72883-3.9927 1.05506-12.82364 1.49122-18.02809.89052z" fill="#234db8" stroke-width="7.520022"/>
  </g>
</svg>
