<svg height="256" viewBox="0 0 67.73 67.73" width="256" xmlns="http://www.w3.org/2000/svg" xmlns:xlink="http://www.w3.org/1999/xlink">
  <filter id="filter16020-3" color-interpolation-filters="sRGB" height="1.021433" width="1.027265" x="-.013633" y="-.010717">
    <feGaussianBlur stdDeviation="2.0004419"/>
  </filter>
  <g enable-background="new" stroke-width=".25" transform="matrix(.13297834 0 0 .13297834 .605824 28.61487660106)">
    <path d="m111.82842-178.55025h200l120.17158 119.671571.005 296.240039c.00031 17.728-14.44878 32.08839-32.17678 32.08839h-288c-17.72799 0-31.999992-14.272-31.999992-32v-384c0-17.728 14.272002-32 31.999992-32z" filter="url(#filter16020-3)" opacity=".4"/>
    <path d="m111.82842-179.67158h200l120.17158 119.67158.005 296.24003c.00031 17.728-14.44878 32.08839-32.17678 32.08839h-288c-17.727992 0-31.999992-14.272-31.999992-32v-384c0-17.728 14.272-32 31.999992-32z" fill="#f6f5f4"/>
    <path d="m311.82842-175.69243v88.000007c0 17.728 14.44211 31.693795 32.17011 31.693795l88.00147-.022223v-3.979149z" opacity=".25"/>
    <path d="m311.82842-179.67158v88.000008c0 17.728 14.44211 31.693795 32.17011 31.693795l88.00147-.022223z" fill="#deddda"/>
    <g transform="matrix(7.5200217 0 0 7.5200217 2.564586 -1936.7772)">
      <g stroke-width=".350856">
        <path d="m16.250211 256.45048v1.05834h34.394141v-1.05834zm0 3.175v1.05834h12.506961v-1.05834zm0 3.175v1.05834h29.182909v-1.05834z" fill="#8f76e4"/>
        <path d="m32.926157 259.62548v1.05834h12.506963v-1.05834z" fill="#f22c42"/>
        <path d="m16.250211 265.975v1.05834h34.394141v-1.05834zm0 3.175v1.05834h12.506961v-1.05834zm0 3.175v1.05834h29.182909v-1.05834z" fill="#8f76e4"/>
        <path d="m32.926157 269.15v1.05834h12.506963v-1.05834z" fill="#f22c42"/>
        <path d="m16.250211 275.49952v1.05834h34.394141v-1.05834zm0 3.175v1.05834h12.506961v-1.05834zm0 3.175v1.05834h29.182909v-1.05834z" fill="#8f76e4"/>
        <path d="m32.926157 278.67452v1.05834h12.506963v-1.05834z" fill="#f22c42"/>
      </g>
      <path d="m17.240495 252.75569q-.212715 0-.385215-.0709-.172499-.0709-.282296-.18943-.109797-.11826-.184141-.28045-.07434-.16218-.106622-.33124-.03201-.16932-.03201-.35161 0-.21642.05397-.42252.05424-.20637.165621-.39051.111648-.18414.311134-.29737.199486-.11324.459559-.11324.314574 0 .527553.14684.212979.1471.297377.35664l-.365107.16588q-.09472-.14551-.197634-.21298-.103182-.0677-.261925-.0677-.155567 0-.272507.0759-.116411.0762-.178849.20292-.0627.12699-.09128.26722-.02884.14022-.02884.28891 0 .33124.147101.58152.147101.25002.424106.25002.270655 0 .453209-.30425l.37516.14207q-.246844.55428-.828105.55428zm3.116903-.0405h-.402147v-1.0276h-1.03447v1.0276h-.405851v-2.36632h.405851v.95669h1.03447v-.95669h.402147zm2.575856 0h-.425958l-.185728-.51722h-.936579l-.185729.51724h-.429662l.882342-2.36632h.402147l.878903 2.36632zm-1.419684-.88233h.679417l-.260338-.70984q-.05053-.12858-.07778-.23996-.02699.0979-.07778.23996zm3.671178-1.48397v2.36632h-.368547l-.980233-1.4943q-.04762-.0709-.09789-.17567.01005.0812.01005.17567v1.4943h-.402412v-2.36632h.392094l.956686 1.47048q.03386.0508.09789.17912-.01005-.0913-.01005-.17912v-1.47048h.402147zm1.527893 2.4068q-.263776 0-.468289-.10319-.204513-.10318-.326216-.27859-.121702-.17567-.182553-.38865-.06085-.21298-.06085-.45295 0-.17567.03889-.34817.03889-.1725.123554-.33124.08466-.15875.202661-.27886.118528-.12012.292615-.19287.174087-.0725.380187-.0725.311135 0 .500303.12673.189432.12673.328067.34977l-.361932.20636q-.195782-.29103-.466438-.29103-.16906 0-.295789.0762-.126994.0762-.194459.20292-.06747.12673-.09789.26537-.03043.13863-.03043.28732 0 .35162.155567.59158.155303.23997.462998.23997.196047 0 .326215-.12832.130169-.12858.130169-.31457v-.037h-.415905v-.38204h.828106v.32806q0 .43602-.243405.68101-.243405.24499-.62518.24499zm2.96795-.0405h-1.615731v-2.36632h1.541387v.38204h-1.135801v.57147h.699789v.38178h-.699789v.64899h1.210145zm2.011528 0h-1.555144v-2.36632h.405851v1.97766h1.149293zm1.3083.0405q-.219593 0-.398972-.0709-.179114-.0709-.295789-.19102-.116411-.12011-.196047-.27886-.07937-.15874-.113236-.32965-.03387-.17065-.03387-.3532 0-.18256.03387-.3532.03387-.17065.113236-.32966.07937-.15874.195782-.27886.11694-.12011.296054-.19102.179114-.0709.398972-.0709.273831 0 .481518.10636.207952.10662.324628.28732.116411.18097.174087.39051.05741.20954.05741.43945 0 .22991-.05741.43945-.05741.20954-.174087.3905-.116411.18071-.324628.28733-.207687.10636-.481518.10636zm0-.38892q.162182 0 .287324-.0775.124877-.0778.194194-.20452.06932-.12699.103183-.26721.03387-.14022.03387-.28547 0-.15557-.03387-.29579-.03386-.14022-.103183-.26537-.06932-.12514-.192607-.19948-.12329-.0743-.288911-.0743-.216418 0-.361932.13679-.145249.13704-.201073.31616-.05556.17911-.05556.38204 0 .15213.0336.2942.03387.14181.103183.26695.06932.12514.192607.19949.123554.0741.289175.0741zm2.481141.38892q-.263777 0-.46829-.10319-.204513-.10318-.326215-.27885-.121702-.17568-.182554-.38866-.06085-.21298-.06085-.45294 0-.17568.03889-.34818.03889-.1725.123554-.33124.08466-.15874.202661-.27886.118528-.12011.292615-.19287.174087-.0725.380188-.0725.311134 0 .500302.12673.189432.12673.328067.34976l-.361932.20637q-.195782-.29103-.466437-.29103-.169061 0-.29579.0762-.126994.0762-.194459.20293-.06747.12673-.09789.26536-.03043.13864-.03043.28733 0 .35161.155568.59158.155302.23996.462998.23996.196046 0 .326215-.12831.130168-.12859.130168-.31458v-.037h-.415904v-.38204h.828105v.32807q0 .43601-.243405.681-.243404.245-.625179.245z" fill="#f34f17" stroke-width=".066143"/>
    </g>
  </g>
</svg>
