<!-- Created with Inkscape (http://www.inkscape.org/) -->
<svg width="24" height="24" version="1.0" xmlns="http://www.w3.org/2000/svg" xmlns:xlink="http://www.w3.org/1999/xlink">
 <path d="m12 1c-6.0719999 0-11 4.9280001-11 11 0 2.445101 0.797324 4.704245 2.1484375 6.53125l5.5429685-4.082031c-0.508937-0.686014-0.816406-1.530048-0.816406-2.449219 1e-7 -2.277 1.848-4.125 4.125-4.125zm-8.765625 17.617188c0.2035407 0.269035 0.4176443 0.524485 0.6445313 0.773437-0.2220588-0.244556-0.4449687-0.509594-0.6445313-0.773437zm7.433594 4.296874c0.438681 0.053283 0.879044 0.085938 1.332031 0.085938-0.453362 0-0.89295-0.03256-1.332031-0.08594z" style="fill-rule:evenodd;fill:#ffffff;opacity:.5"/>
 <path d="m12 1v6.875c2.277 0 4.125 1.848 4.125 4.125s-1.848 4.125-4.125 4.125c-1.357829-1e-6 -2.556775-0.662381-3.308594-1.675781l-5.5429685 4.082031c2.0041519 2.710058 5.2246635 4.468749 8.8515625 4.46875 6.072 0 11-4.928 11-11 0-6.0719999-4.928-11-11-11z" style="fill:#ffffff"/>
</svg>
