<!-- Created with Inkscape (http://www.inkscape.org/) -->
<svg width="24" height="24" version="1.0" xmlns="http://www.w3.org/2000/svg" xmlns:xlink="http://www.w3.org/1999/xlink">
 <path d="m12 1c-6.0719999 0-11 4.9280001-11 11 0 1.233375 0.2266195 2.416178 0.6015625 3.523438l6.5312505-2.105469c-0.1649628-0.445713-0.257813-0.915131-0.257813-1.417969 1e-7 -2.277 1.848-4.125 4.125-4.125zm-10.269531 14.910156c0.1520385 0.39967 0.3198794 0.784315 0.515625 1.160157-0.1994845-0.37684-0.3651929-0.769074-0.515625-1.160157zm1.5039062 2.707032c0.2035407 0.269035 0.4176443 0.524485 0.6445313 0.773437-0.2220588-0.244556-0.4449687-0.509594-0.6445313-0.773437zm7.433594 4.296874c0.438681 0.053283 0.879044 0.085938 1.332031 0.085938-0.453362 0-0.89295-0.03255-1.332031-0.08594z" style="fill-rule:evenodd;fill:#ffffff;opacity:.5"/>
 <path d="m12 1v6.875c2.277 1e-7 4.125 1.848 4.125 4.125s-1.848 4.125-4.125 4.125c-1.357829 0-2.556775-0.662381-3.308594-1.675781-0.241593-0.327137-0.427398-0.667645-0.558593-1.03125l-6.5742192 2.105469c0.3560425 1.053823 0.8940332 2.065625 1.5898437 3.007812 2.0041519 2.710058 5.2246635 4.46875 8.8515625 4.46875 6.072 0 11-4.928 11-11 0-6.0719999-4.928-11-11-11z" style="fill:#ffffff"/>
</svg>
