<!-- Created with Inkscape (http://www.inkscape.org/) -->
<svg width="24" height="24" version="1.1" viewBox="0 0 24 24" xmlns="http://www.w3.org/2000/svg" xmlns:xlink="http://www.w3.org/1999/xlink">
 <defs>
  <linearGradient id="linearGradient3816" x1="5.875" x2="3.875" y1="31.125" y2="4.125" gradientTransform="matrix(-1,0,0,1,471.875,367.875)" gradientUnits="userSpaceOnUse">
   <stop style="stop-color:#dbdee0" offset="0"/>
   <stop style="stop-color:#dbdee0;stop-opacity:0" offset="1"/>
  </linearGradient>
  <linearGradient id="linearGradient3819" x1="12" x2="23" y1="6" y2="10" gradientTransform="translate(448,368)" gradientUnits="userSpaceOnUse">
   <stop style="stop-color:#dbdee0" offset="0"/>
   <stop style="stop-color:#dbdee0;stop-opacity:0" offset="1"/>
  </linearGradient>
 </defs>
 <g transform="translate(-448.00001,-368.00002)">
  <path d="m460 372c-4.40643 0-8 3.59357-8 8s3.59357 8 8 8v-2c-3.32555 0-6-2.67445-6-6s2.67445-6 6-6c0.55228 0 1-0.44772 1-1s-0.44772-1-1-1z" style="fill:url(#linearGradient3819)"/>
  <path d="m460 372c4.40643 0 8 3.59357 8 8s-3.59357 8-8 8v-2c3.32555 0 6-2.67445 6-6s-2.67445-6-6-6z" style="fill:url(#linearGradient3816)"/>
 </g>
</svg>
