<!-- Created with Inkscape (http://www.inkscape.org/) -->
<svg width="24" height="24" version="1.1" viewBox="0 0 24 24" xmlns="http://www.w3.org/2000/svg" xmlns:xlink="http://www.w3.org/1999/xlink">
 <defs>
  <linearGradient id="linearGradient3816" x1="5.875" x2="3.875" y1="31.125" y2="4.125" gradientTransform="matrix(0 .99999999 .99999999 0 519.875 392.12499)" gradientUnits="userSpaceOnUse">
   <stop style="stop-color:#dbdee0" offset="0"/>
   <stop style="stop-color:#dbdee0;stop-opacity:0" offset="1"/>
  </linearGradient>
  <linearGradient id="linearGradient3819" x1="12" x2="23" y1="6" y2="10" gradientTransform="matrix(0 -.99999999 .99999999 0 520 416)" gradientUnits="userSpaceOnUse">
   <stop style="stop-color:#dbdee0" offset="0"/>
   <stop style="stop-color:#dbdee0;stop-opacity:0" offset="1"/>
  </linearGradient>
 </defs>
 <g transform="translate(-520.00001,-392.00002)">
  <path d="m523.99999 404.00001c1e-5 4.40642 3.59358 8 8.00002 8 4.40641-1e-5 7.99999-3.59358 7.99998-8l-1.99999-1e-5c-1e-5 3.32556-2.67445 6-6 6-3.32556 0-6-2.67445-6.00001-5.99999 1e-5 -0.55229-0.4477-1-0.99998-1-0.5523-2e-5 -1 0.44771-1.00002 1z" style="fill:url(#linearGradient3819)"/>
  <path d="m523.99999 404.00001c1e-5 -4.40645 3.59357-8.00001 8.00001-8 4.40643-1e-5 7.99999 3.59356 7.99999 8l-1.99999-1e-5c0-3.32556-2.67444-5.99999-6.00001-6-3.32556 0-5.99999 2.67444-6 6.00001z" style="fill:url(#linearGradient3816)"/>
 </g>
</svg>
