<svg viewBox="0 0 24 24" xmlns="http://www.w3.org/2000/svg">
 <defs>
  <style type="text/css">.ColorScheme-Text {
        color:#4d4d4d;
      }</style>
 </defs>
 <path class="ColorScheme-Text" d="m12 4c-0.675205 0.00379-1.347214 0.093036-2 0.265625v1.0332031 0.0117188a7 7 0 0 0-1.3164062 0.5449219l-0.7402344-0.7402344c-1.1669557 0.68805-2.1400752 1.6611695-2.828125 2.828125l0.7402344 0.7402344a7 7 0 0 0-0.546875 1.3164062h-0.0136719-1.0351563c-0.1706115 0.653039-0.2578936 1.325045-0.2597656 2 0.00378 0.675205 0.093036 1.347214 0.265625 2h1.0332031 0.0117188a7 7 0 0 0 0.5449219 1.316406l-0.21875 0.21875-0.5214844 0.521485c0.6880498 1.166955 1.6611693 2.140075 2.828125 2.828125l0.5214844-0.521485 0.21875-0.21875a7 7 0 0 0 1.3164062 0.546875v0.308594 0.740234c0.653039 0.170612 1.325044 0.257894 2 0.259766 0.334998-0.0019 0.668533-0.026623 1-0.070312v-1.00586c-0.330445 0.04881-0.665094 0.075042-1 0.076172-0.335454-5.02e-4 -0.668936-0.025869-1-0.074219v-0.003906-0.921875-0.089844a6 6 0 0 1-2.4726562-1.023437l-0.0625 0.0625-0.6503907 0.65039-0.0039062 0.003907c-0.5363047-0.402055-1.011434-0.878676-1.4121094-1.416016l0.0019531-0.001953 0.6503906-0.650391 0.0644532-0.064453a6 6 0 0 1-1.0292969-2.470703h-0.0859375-0.9199219-0.0039062c-0.0488097-0.330445-0.0750443-0.665094-0.0761719-1 5.022e-4 -0.335454 0.0258707-0.668936 0.0742188-1h0.0039062 0.921875 0.0898438a6 6 0 0 1 1.0234374-2.4726562l-0.0625-0.0625-0.6503906-0.6503907-0.0039062-0.0039062c0.4020656-0.5363047 0.878676-1.011434 1.4160156-1.4121094l0.0019531 0.0019531 0.6503907 0.6503906 0.0644531 0.0644532a6 6 0 0 1 2.4707031-1.0292969v-0.0859375-0.9199219-0.0039062c0.330445-0.0488097 0.665094-0.0750443 1-0.0761719 0.335454 5.001e-4 0.668936 0.0258697 1 0.0742188v0.0039062 0.921875 0.0898438a6 6 0 0 1 2.472656 1.0234374l0.0625-0.0625 0.650391-0.6503906 0.003906-0.0039062c0.536309 0.4020618 1.011435 0.878676 1.412109 1.4160156l-0.001953 0.0019531-0.65039 0.6503907-0.064453 0.0644531a6 6 0 0 1 1.029296 2.4707031h0.085938 0.919922 0.003906c0.04881 0.330445 0.075042 0.665094 0.076172 1-4.95e-4 0.335454-0.025869 0.668936-0.074219 1h-0.003906-0.921875-0.089844a6 6 0 0 1-0.730468 2h1.134765a7 7 0 0 0 0.376953-1h0.308594 0.740234c0.170612-0.653039 0.257894-1.325044 0.259766-2-0.0038-0.675205-0.09304-1.347214-0.265625-2h-0.734375-0.310547a7 7 0 0 0-0.544922-1.3164062l0.007813-0.0078126 0.732422-0.7324218c-0.688037-1.1669581-1.661169-2.140075-2.828125-2.828125l-0.728516 0.7285156-0.011719 0.0117188a7 7 0 0 0-1.316406-0.546875v-0.0136719-1.0351563c-0.653039-0.1706114-1.325044-0.2578935-2-0.2597656zm-2 5v6l5-3-5-3zm6 7-2 2 2 2h4v-4h-4zm0.599609 1h2.400391v2h-2.400391l-1-1 1-1z" style="fill:currentColor"/>
</svg>
