<?xml version="1.0" encoding="UTF-8" standalone="no"?>
<svg
   xmlns:dc="http://purl.org/dc/elements/1.1/"
   xmlns:cc="http://creativecommons.org/ns#"
   xmlns:rdf="http://www.w3.org/1999/02/22-rdf-syntax-ns#"
   xmlns:svg="http://www.w3.org/2000/svg"
   xmlns="http://www.w3.org/2000/svg"
   xmlns:sodipodi="http://sodipodi.sourceforge.net/DTD/sodipodi-0.dtd"
   xmlns:inkscape="http://www.inkscape.org/namespaces/inkscape"
   width="24"
   height="24"
   version="1.1"
   viewBox="0 0 24 24"
   id="svg12"
   sodipodi:docname="caffeine-cup-empty.svg"
   inkscape:version="0.92.3 (2405546, 2018-03-11)">
  <metadata
     id="metadata18">
    <rdf:RDF>
      <cc:Work
         rdf:about="">
        <dc:format>image/svg+xml</dc:format>
        <dc:type
           rdf:resource="http://purl.org/dc/dcmitype/StillImage" />
      </cc:Work>
    </rdf:RDF>
  </metadata>
  <defs
     id="defs16" />
  <sodipodi:namedview
     pagecolor="#ffffff"
     bordercolor="#666666"
     borderopacity="1"
     objecttolerance="10"
     gridtolerance="10"
     guidetolerance="10"
     inkscape:pageopacity="0"
     inkscape:pageshadow="2"
     inkscape:window-width="1496"
     inkscape:window-height="996"
     id="namedview14"
     showgrid="false"
     inkscape:zoom="9.8333333"
     inkscape:cx="15.81088"
     inkscape:cy="12"
     inkscape:window-x="0"
     inkscape:window-y="34"
     inkscape:window-maximized="0"
     inkscape:current-layer="svg12" />
  <g
     transform="translate(-540,-499.99841)"
     id="g10"
     style="fill:#ffffff;fill-opacity:1">
    <path
       d="m546.00002 514c0 3 2 5 5 5h2c3 0 4.7598-1.56569 4.959-4h0.541c1.5 0 1.5-1.5 1.5-1.5v-1c0-1.5-1.5-1.5-1.5-1.5h-0.5-12zm12.5-2c0.5-0.0323 0.5156 0.53125 0.5156 0.53125v1c0 0.46875-0.5156 0.46875-0.5156 0.46875h-0.5l0.01-1.98438z"
       style="fill:#ffffff;fill-opacity:1"
       id="path2" />
    <path
       d="m552.19332 504c-1.0982 1.38422-1.4282 2.06599-1.0321 2.94706 0.3591 0.79867 1.2876 1.20591 0.821 3.05294 0.7664-0.89992 1.3758-2.04275 0.774-2.9647-0.6122-0.9377-0.9479-1.5073-0.5629-3.0353z"
       style="fill:#ffffff;opacity:0.35;fill-opacity:1"
       id="path4" />
    <path
       d="m549.19332 504c-1.0982 1.38422-1.4282 2.06599-1.0321 2.94706 0.3591 0.79867 1.2876 1.20591 0.821 3.05294 0.7664-0.89992 1.3758-2.04275 0.774-2.9647-0.6122-0.9377-0.9479-1.5073-0.5629-3.0353z"
       style="fill:#ffffff;opacity:0.35;fill-opacity:1"
       id="path6" />
    <path
       d="m555.19332 504c-1.0982 1.38422-1.4282 2.06599-1.0321 2.94706 0.3591 0.79867 1.2876 1.20591 0.821 3.05294 0.7664-0.89992 1.3758-2.04275 0.774-2.9647-0.6122-0.9377-0.9479-1.5073-0.5629-3.0353z"
       style="fill:#ffffff;opacity:0.35;fill-opacity:1"
       id="path8" />
  </g>
</svg>
