<svg width="24" height="24" version="1.1" xmlns="http://www.w3.org/2000/svg">
 <defs>
  <style type="text/css">.ColorScheme-Text { color:#5c616c; } .ColorScheme-Highlight { color:#5294e2; } .ColorScheme-ButtonBackground { color:#d3dae3; }</style>
 </defs>
 <g transform="matrix(1.3332542 0 0 1.3332542 13.03698 -.39009491)" style="fill:#ffffff">
  <rect x="1.0488889" y="14.005593" width="1.9565207" height="3.9130414" style="fill:#ffffff"/>
  <circle cx="2.0271518" cy="11.722975" r=".97826034" style="fill:#ffffff"/>
  <path d="m1.7003776 5.5271194c-3.233954 3e-7 -5.869154 2.6351863-5.86914 5.8691406v0.652344h1.304687v-0.652344c-1e-5 -2.5290309 2.035422-4.5644528 4.564453-4.5644531h0.652344v-1.3046875z" style="fill:#ffffff"/>
  <path d="m1.7003776 8.1364944c-1.7932078 0-3.259773 1.4665576-3.259765 3.2597656v0.652344h1.3046871v-0.652344c-4.4e-6 -1.088285 0.8667935-1.9550781 1.9550779-1.9550781h0.652344v-1.3046875z" style="fill:#ffffff"/>
  <path d="m1.7003776 2.9177444c-4.674684 6e-7 -8.478512 3.8038309-8.478515 8.4785156v0.652344h1.304687v-0.652344c3e-6 -3.9697635 3.204065-7.1738276 7.173828-7.1738281h0.652344v-1.3046875z" style="fill:#ffffff"/>
  <rect x="1.0488889" y="14.005593" width="1.9565207" height="3.9130414" style="fill:#ffffff"/>
  <circle cx="2.0271518" cy="11.722975" r=".97826034" style="fill:#ffffff"/>
 </g>
 <path d="m6.5000001 11.5c-3.3105944 0-6.0000001 2.689406-6.0000001 6 0 3.310595 2.6894057 6 6.0000001 6s6.0000049-2.689405 5.9999999-6c0-3.310594-2.6894055-6-5.9999999-6z" style="fill:#5294e2"/>
 <g transform="matrix(.59999531 0 0 .59999531 -377.497 -96.349077)" style="fill:#ffffff">
  <path d="m640 181c-0.529 0-1.032 0.098-1.494 0.295-0.46 0.188-0.868 0.463-1.207 0.82l-2e-3 4e-3 -2e-3 2e-3c-0.33 0.359-0.586 0.79-0.766 1.28a4.551 4.551 0 0 0-0.27 1.6c0 0.58 0.087 1.122 0.27 1.612 0.18 0.482 0.436 0.908 0.766 1.266l4e-3 4e-3c0.338 0.356 0.743 0.636 1.201 0.832l8e-3 4e-3c0.462 0.188 0.964 0.281 1.492 0.281s1.028-0.093 1.49-0.281v-2e-3a3.47 3.47 0 0 0 1.19-0.834c0.34-0.358 0.6-0.786 0.78-1.27 0.185-0.49 0.272-1.031 0.272-1.613h8e-3c0-0.573-0.087-1.109-0.27-1.598a3.692 3.692 0 0 0-0.78-1.283 3.332 3.332 0 0 0-1.196-0.824 3.78 3.78 0 0 0-1.494-0.295zm0 1c0.406 0 0.77 0.073 1.102 0.215l0.01 4e-3 0.01 2e-3c0.33 0.135 0.607 0.326 0.837 0.576v0.01c0.24 0.253 0.431 0.564 0.569 0.94v5e-3c0.13 0.351 0.194 0.753 0.199 1.202v0.046c0 0.482-0.072 0.9-0.207 1.262v2e-3a2.708 2.708 0 0 1-0.57 0.931l-0.01 4e-3v4e-3c-0.234 0.253-0.514 0.45-0.848 0.594a2.889 2.889 0 0 1-1.092 0.203c-0.41 0-0.777-0.072-1.11-0.207h-3e-3c-0.325-0.14-0.6-0.337-0.838-0.582l-0.051-0.07-8e-3 -6e-3a2.798 2.798 0 0 1-0.524-0.871 3.595 3.595 0 0 1-0.207-1.264c0-0.471 0.071-0.886 0.207-1.25l2e-3 -2e-3v-4e-3c0.138-0.376 0.325-0.684 0.555-0.936l0.012-0.01c0.24-0.25 0.52-0.443 0.85-0.578l6e-3 -4e-3 8e-3 -2e-3c0.33-0.14 0.695-0.214 1.101-0.214zm7 14h-1c0-0.865-0.07-1.3-0.235-1.833s-0.41-0.904-0.814-1.21c-0.81-0.61-2.11-0.933-4.922-0.933-2.813 0-4.165 0.322-4.975 0.933-0.405 0.305-0.65 0.676-0.816 1.21s-0.236 0.968-0.238 1.833l-1-2e-3c2e-3 -0.914 0.069-1.44 0.283-2.128s0.594-1.277 1.169-1.711c1.15-0.867 2.695-1.134 5.577-1.134 2.881 0 4.376 0.267 5.525 1.135 0.574 0.434 0.953 1.024 1.166 1.712 0.214 0.688 0.28 1.213 0.28 2.128z" font-weight="400" letter-spacing="0" overflow="visible" word-spacing="0" style="fill:#ffffff"/>
 </g>
</svg>
