<svg width="24" height="24" version="1.1" xmlns="http://www.w3.org/2000/svg">
 <defs>
  <style type="text/css">.ColorScheme-Text { color:#5c616c; } .ColorScheme-Highlight { color:#5294e2; } .ColorScheme-ButtonBackground { color:#d3dae3; }</style>
 </defs>
 <g transform="matrix(1.3332542 0 0 1.3332542 13.03698 -.39009491)" style="fill:#ffffff">
  <rect x="1.0488889" y="14.005593" width="1.9565207" height="3.9130414" style="fill:#ffffff"/>
  <circle cx="2.0271518" cy="11.722975" r=".97826034" style="fill:#ffffff"/>
  <path d="m1.7003776 5.5271194c-3.233954 3e-7 -5.869154 2.6351863-5.86914 5.8691406v0.652344h1.304687v-0.652344c-1e-5 -2.5290309 2.035422-4.5644528 4.564453-4.5644531h0.652344v-1.3046875z" style="fill:#ffffff"/>
  <path d="m1.7003776 8.1364944c-1.7932078 0-3.259773 1.4665576-3.259765 3.2597656v0.652344h1.3046871v-0.652344c-4.4e-6 -1.088285 0.8667935-1.9550781 1.9550779-1.9550781h0.652344v-1.3046875z" style="fill:#ffffff"/>
  <path d="m1.7003776 2.9177444c-4.674684 6e-7 -8.478512 3.8038309-8.478515 8.4785156v0.652344h1.304687v-0.652344c3e-6 -3.9697635 3.204065-7.1738276 7.173828-7.1738281h0.652344v-1.3046875z" style="fill:#ffffff"/>
  <rect x="1.0488889" y="14.005593" width="1.9565207" height="3.9130414" style="fill:#ffffff"/>
  <circle cx="2.0271518" cy="11.722975" r=".97826034" style="fill:#ffffff"/>
 </g>
 <path d="m6.5000001 11.5c-3.3105944 0-6.0000001 2.689406-6.0000001 6 0 3.310595 2.6894057 6 6.0000001 6s6.0000049-2.689405 5.9999999-6c0-3.310594-2.6894055-6-5.9999999-6z" style="fill:#cb4848"/>
 <path d="m5.375 19v-6h2.25v6z" style="fill:#ffffff"/>
 <path d="m5.375 20.5v1.5h2.25v-1.5z" style="fill:#ffffff"/>
</svg>
