<svg xmlns="http://www.w3.org/2000/svg" width="24" height="24" version="1.1">
 <g transform="matrix(1.375,0,0,1.375,-428,-164)" style="fill:#ffffff">
  <path d="m 315.994,120 c -1.258,0.015 -2.179,-0.03 -2.932,0.385 a 1.88,1.88 0 0 0 -0.837,0.998 C 312.06,121.821 312,122.343 312,123 v 6 c 0,0.658 0.06,1.179 0.225,1.617 0.164,0.439 0.461,0.79 0.837,0.998 0.753,0.416 1.674,0.37 2.932,0.385 h 8.012 c 1.258,-0.015 2.179,0.03 2.932,-0.385 a 1.88,1.88 0 0 0 0.838,-0.998 C 327.94,130.179 328,129.657 328,129 v -6 c 0,-0.658 -0.06,-1.179 -0.225,-1.617 a 1.88,1.88 0 0 0 -0.837,-0.998 c -0.753,-0.416 -1.674,-0.37 -2.932,-0.385 h -8.008 z m 0.006,1 h 8 c 1.259,0.015 2.087,0.06 2.453,0.262 0.184,0.1 0.29,0.212 0.387,0.472 0.097,0.26 0.16,0.674 0.16,1.266 v 6 c 0,0.592 -0.063,1.006 -0.16,1.266 -0.098,0.26 -0.203,0.371 -0.387,0.472 -0.366,0.202 -1.194,0.247 -2.453,0.262 h -8 c -1.259,-0.015 -2.09,-0.06 -2.455,-0.262 -0.183,-0.1 -0.287,-0.212 -0.385,-0.472 C 313.063,130.006 313,129.592 313,129 v -6 c 0,-0.592 0.063,-1.006 0.16,-1.266 0.098,-0.26 0.202,-0.371 0.385,-0.472 0.366,-0.202 1.196,-0.247 2.455,-0.262 z" font-weight="400" overflow="visible" style="fill:#ffffff"/>
  <rect width="4" height="1" x="318" y="132" style="fill:#ffffff"/>
  <path d="m 312,135 3,-1 h 10 l 3,1 v 1 h -16 z" style="fill:#ffffff"/>
 </g>
</svg>
