<!-- Created with Inkscape (http://www.inkscape.org/) -->
<svg width="24" height="24" version="1.1" viewBox="0 0 24 24" xmlns="http://www.w3.org/2000/svg" xmlns:osb="http://www.openswatchbook.org/uri/2009/osb">
 <g transform="translate(-468,-451.99838)">
  <path d="m488.21875 456.125c-0.0741 0.0356-0.13911 0.0898-0.1875 0.15625l-0.5 0.5-0.15625-0.15625-6 6 0.15625 0.15625-0.5 0.5-0.0312 0.71875 0.71875-0.0312 0.5-0.5 0.15625 0.15625 6-6-0.15625-0.15625 0.5-0.5c0.29288-0.29845-0.0248-0.91114-0.4375-0.84375-0.0208-1e-3 -0.0417-1e-3 -0.0625 0zm-14.21875 1.875c-0.554 0-1 0.446-1 1v9c0 0.554 0.446 1 1 1h12c0.554 0 1-0.446 1-1v-7.5625l-3.90625 3.90625-0.71875 0.6875-0.15625-0.15625-0.0625 0.0625-0.40625 0.0312-0.71875 0.0312-1.0625 0.0312 0.0312-1.0625 0.0312-0.71875 0.0312-0.40625 0.0625-0.0625-0.15625-0.15625 0.6875-0.71875 3.90625-3.90625h-10.5625zm-1 11v1c0 0.554 0.446 1 1 1h12c0.554 0 1-0.446 1-1v-1c0 0.554-0.446 1-1 1h-12c-0.554 0-1-0.446-1-1z" style="fill:#ffffff"/>
 </g>
</svg>
