<svg width="24" height="24" version="1.1" xmlns="http://www.w3.org/2000/svg">
 <defs>
  <style type="text/css">.ColorScheme-Text { color:#5c616c; } .ColorScheme-Highlight { color:#5294e2; } .ColorScheme-ButtonBackground { color:#d3dae3; }</style>
 </defs>
 <path d="m9.9680794 3.7249662c-3.8735692 0.9126999-6.6506452 4.4975329-6.4587092 8.5165918 0.03775 0.787062 0.352627 2.153221 0.661971 2.871232 0.427518 0.99229 1.536523 2.576225 1.697709 2.424801 0.07931-0.07453 1.039222-1.075434 1.069658-1.115399 0.01136-0.01285-0.132443-0.22703-0.319706-0.471492-0.623251-0.813193-1.053757-1.69835-1.259519-2.589632-0.916554-3.9699684 1.904533-7.8087315 6.0068808-8.1736486 1.478219-0.1315056 3.292903 0.3671018 4.456644 1.224458l0.387441 0.2857141 0.571652-0.6033835c0.508047-0.5363028 0.559286-0.612893 0.462511-0.6913252-1.839597-1.4912815-4.153902-2.1419984-6.487776-1.8240291-0.267431 0.038552-0.530519 0.085243-0.7887586 0.1460697zm-2.5939402 4.977764c-0.05519 0.00431-0.02068 0.2240304 0.140283 0.9166408l0.219674 0.944569 1.108559 0.41208c0.6097314 0.2266 1.1099542 0.418505 1.1116782 0.425786 0.0017 0.0086-0.3645058 0.39623-0.8139232 0.863953l-0.817089 0.850202 0.216594 0.945085c0.169565 0.739257 0.231947 0.93099 0.28619 0.879417 0.278667-0.264725 3.9623468-4.157461 3.9568328-4.181321-0.0054-0.02571-5.0252928-1.9354017-5.3966258-2.0550846-0.0044-0.00111-0.0085-0.00227-0.01216-0.0017zm10.775353-2.2494306c-0.0068 0.00111-0.01285 0.00428-0.01791 0.00857-0.07931 0.074534-1.039192 1.075647-1.069608 1.1155698-0.01133 0.012851 0.132439 0.2270291 0.319704 0.4714925 0.623251 0.8132357 1.053708 1.6981775 1.259471 2.5894171 0.916556 3.97001-1.904481 7.808988-6.006831 8.173862-1.478223 0.131505-3.2926918-0.367102-4.4564308-1.224501l-0.387654-0.285286-0.571703 0.60317c-0.508032 0.536303-0.559236 0.613064-0.46246 0.69154 1.839595 1.491238 4.1539018 2.141955 6.4877748 1.824028 4.27889-0.582908 7.45193-4.376008 7.247201-8.663003-0.03765-0.787108-0.352364-2.1530525-0.661697-2.8710638-0.414157-0.961319-1.467854-2.4778736-1.679847-2.4340526zm-2.964624 2.599612c-0.0034 0.00111-0.0069 0.0034-0.01031 0.00861-0.278667 0.2647248-3.962398 4.1572454-3.956884 4.1811474 0.0054 0.02571 5.025296 1.935404 5.396628 2.055043 0.07148 0.02142 0.04341-0.176055-0.128067-0.914928l-0.219414-0.944656-1.108559-0.41208c-0.609729-0.226601-1.109954-0.418075-1.111677-0.425787-0.0017-0.0086 0.364506-0.396229 0.813921-0.863953l0.81709-0.850241-0.216825-0.9449976c-0.158967-0.6930815-0.223743-0.9047752-0.275908-0.8860135z" style="fill:#ffffff"/>
</svg>
