<svg width="24" height="24" version="1" xmlns="http://www.w3.org/2000/svg">
 <defs>
  <style type="text/css">.ColorScheme-Text { color:#5c616c; } .ColorScheme-Highlight { color:#5294e2; } .ColorScheme-ButtonBackground { color:#d3dae3; }</style>
 </defs>
 <g transform="matrix(1.125,0,0,1.125,-438.0004,-199.125)" style="fill:#ffffff">
  <path d="m395 183c-0.65761 0-1.17853 0.0599-1.61719 0.22461-0.43866 0.16467-0.79039 0.46152-0.99804 0.83789-0.41532 0.75275-0.3702 1.67345-0.38477 2.93164v4e-3 2.0039 4e-3c0.0145 1.25819-0.0306 2.17889 0.38477 2.93164 0.20766 0.37637 0.55938 0.67322 0.99804 0.83789 0.43867 0.16449 0.95958 0.22443 1.61719 0.22443h6c0.65761 0 1.17852-0.0599 1.61719-0.22461 0.43866-0.16466 0.79038-0.46152 0.99804-0.83789 0.41534-0.75275 0.37025-1.67344 0.38477-2.93164v-4e-3 -2.0039-4e-3c-0.0145-1.2582 0.0306-2.17889-0.38477-2.93164-0.20766-0.37637-0.55938-0.67323-0.99804-0.83789-0.43867-0.16449-0.95958-0.22443-1.61719-0.22443zm0 1h6c0.59239 0 1.00572 0.0626 1.26562 0.16016 0.25991 0.0976 0.37147 0.20135 0.47266 0.38476 0.20191 0.36596 0.24701 1.19655 0.26172 2.45508v1.99414c-0.0146 1.26353-0.0593 2.09217-0.26172 2.45898-0.1012 0.18341-0.21274 0.28916-0.47266 0.38672-0.25991 0.09757-0.67323 0.16016-1.26562 0.16016h-6c-0.59239 0-1.00572-0.0626-1.26562-0.16016-0.25991-0.0976-0.37147-0.20331-0.47266-0.38672-0.20191-0.36595-0.24701-1.1946-0.26172-2.45312v-6e-3 -1.98828-0.00572c0.0147-1.25853 0.0598-2.08912 0.26172-2.45508 0.10119-0.18341 0.21275-0.2872 0.47266-0.38476 0.2599-0.09757 0.67323-0.16016 1.26562-0.16016z" style="fill:#ffffff"/>
  <path d="m408 184.71875c-1.23971 0.58734-2.98131 1.54153-5 2.71094v1.14258c1.99268 1.15764 3.73306 2.10927 5 2.70898z" style="fill:#ffffff"/>
 </g>
 <g transform="translate(14.641794,-5.982763)">
  <path d="m-8.937833 22.438763h1.808l1.664-2.352c0.16-0.208 0.32-0.448 0.432-0.656 0.112 0.208 0.272 0.448 0.416 0.656l1.68 2.352h1.808l-2.992-4.224 2.8-3.952h-1.824l-1.472 2.064c-0.144 0.208-0.304 0.448-0.416 0.656-0.112-0.208-0.272-0.448-0.432-0.656l-1.456-2.064h-1.824l2.8 3.952z" style="fill:#ff0000"/>
 </g>
</svg>
