<svg height="128" width="128" xmlns="http://www.w3.org/2000/svg">
  <path d="m22.974487 55.196487h69.49527v44.46267h-69.49527z" fill="#3d3846" opacity=".6" stroke-width=".21978"/>
  <path d="m13.348827 63.015825h9.89011v13.18681h-9.89011z" fill="#5e5c64" stroke-width=".21978"/>
  <path d="m91.748993 60.82164h10.610847v21.974413h-10.610847z" fill="#5e5c64" stroke-width=".323137"/>
  <g stroke-width=".21978">
    <path d="m22.974487 53.196487h69.49527v44.46267h-69.49527z" fill="#3d3846"/>
    <path d="m30.722627 60.408075v30.0395h41.86343a13.186817 13.186817 0 0 1 12.13556-12.68029v-17.35921z" fill="#613583"/>
    <path d="m45.444214 68h24.55579v8.701809h-24.55579z" fill="#9141ac"/>
  </g>
  <path d="m86.930536 87.733658a3.8461549 3.8461549 0 0 1 -3.846155 3.846155 3.8461549 3.8461549 0 0 1 -3.846155-3.846155 3.8461549 3.8461549 0 0 1 3.846155-3.846155 3.8461549 3.8461549 0 0 1 3.846155 3.846155z" fill="#f66151" stroke-width=".234497"/>
  <path d="m49.586475 42.989746a13.186817 13.186817 0 0 1 -13.186817 13.186817 13.186817 13.186817 0 0 1 -13.186817-13.186817 13.186817 13.186817 0 0 1 13.186817-13.186817 13.186817 13.186817 0 0 1 13.186817 13.186817z" fill="#363640" stroke-width=".23435"/>
  <path d="m87.821777 35.946701a19.230774 19.230774 0 0 1 -19.230774 19.230774 19.230774 19.230774 0 0 1 -19.230774-19.230774 19.230774 19.230774 0 0 1 19.230774-19.230774 19.230774 19.230774 0 0 1 19.230774 19.230774z" fill="#363640" stroke-width=".341761"/>
  <path d="m81.777821 35.946701a13.186817 13.186817 0 0 1 -13.186818 13.186817 13.186817 13.186817 0 0 1 -13.186817-13.186817 13.186817 13.186817 0 0 1 13.186817-13.186817 13.186817 13.186817 0 0 1 13.186818 13.186817z" fill="#62a0ea" stroke-width=".23435"/>
  <path d="m44.091968 42.989746a7.6923099 7.6923099 0 0 1 -7.69231 7.69231 7.6923099 7.6923099 0 0 1 -7.69231-7.69231 7.6923099 7.6923099 0 0 1 7.69231-7.69231 7.6923099 7.6923099 0 0 1 7.69231 7.69231z" fill="#62a0ea" stroke-width=".136704"/>
  <path d="m13.348827 63.015825-8.7912098-4.39561v21.97803l8.7912098-4.39561z" fill="#613583"/>
  <path d="m101.26094 60.818015 15.38462-10.98901v43.95606l-15.40922-10.98902z" fill="#613583"/>
  <path d="m120.54194 45.817585a3.9558562 3.9558562 0 0 0 -3.89595 4.01142v43.95606a3.9558562 3.9558562 0 1 0 7.91123 0v-43.95606a3.9558562 3.9558562 0 0 0 -4.01528-4.01142z" fill="#3d3846"/>
</svg>
