<svg height="128" width="128" xmlns="http://www.w3.org/2000/svg" xmlns:xlink="http://www.w3.org/1999/xlink">
  <linearGradient id="i">
    <stop offset="0" stop-color="#9a9996"/>
    <stop offset="1" stop-color="#9a9996" stop-opacity="0"/>
  </linearGradient>
  <linearGradient id="j" gradientUnits="userSpaceOnUse" x1="-256.00046" x2="-240.0005" xlink:href="#i" y1="-84.00116" y2="-84.00116"/>
  <linearGradient id="k" gradientUnits="userSpaceOnUse" x1="-256.00046" x2="-240.0005" xlink:href="#i" y1="-44.11716" y2="-44.11716"/>
  <g transform="translate(0 -172)">
    <path d="m89.179 213.97 6.084 7.563 22.648-4.67 9.875 47.907a16.002 16.002 0 0 1 -28.135 13.26l-35.404-44zm-49.997 0-6.084 7.563-22.649-4.67-9.875 47.907a16.002 16.002 0 0 0 28.135 13.26l35.405-44z" fill="#77767b"/>
    <path d="m41.116 200h46v32h-46z" fill="#77767b"/>
    <path d="m60.45 231.28-31.985 39.75a16.002 16.002 0 0 1 -28.07-6.577l-.065.317a16.002 16.002 0 0 0 28.135 13.26l35.404-44zm7.1 0-3.42 2.75 35.405 44a16.002 16.002 0 0 0 28.135-13.26l-.065-.317a16.002 16.002 0 0 1 -28.07 6.576z" fill="#5e5c64" fill-opacity=".235"/>
    <g fill="#c0bfbc">
      <circle cx="32.116" cy="221" r="22"/>
      <path d="m46.116 204h36v52h-36z"/>
      <circle cx="96.116" cy="221" r="22"/>
    </g>
    <path d="m46.116 204h36v48h-36z" fill="#deddda"/>
    <circle cx="44.116" cy="252" fill="#c0bfbc" r="13.884"/>
    <circle cx="44.116" cy="250" fill="#deddda" r="13.884"/>
    <circle cx="84.116" cy="252" fill="#c0bfbc" r="13.884"/>
    <circle cx="84.116" cy="250" fill="#deddda" r="13.884"/>
    <circle cx="32.116" cy="219" fill="#deddda" r="22"/>
    <circle cx="96.116" cy="219" fill="#deddda" r="22"/>
    <path d="m30 208c-1.108 0-2 .892-2 2v6h-6c-1.108 0-2 .892-2 2v4c0 1.108.892 2 2 2h6v6c0 1.108.892 2 2 2h4c1.108 0 2-.892 2-2v-6h6c1.108 0 2-.892 2-2v-4c0-1.108-.892-2-2-2h-6v-6c0-1.108-.892-2-2-2z" fill="#3d3846"/>
    <path d="m30 206c-1.108 0-2 .892-2 2v6h-6c-1.108 0-2 .892-2 2v4c0 1.108.892 2 2 2h6v6c0 1.108.892 2 2 2h4c1.108 0 2-.892 2-2v-6h6c1.108 0 2-.892 2-2v-4c0-1.108-.892-2-2-2h-6v-6c0-1.108-.892-2-2-2z" fill="#5e5c64"/>
    <g transform="matrix(-1 0 0 1 -28.492 -180.773)">
      <g transform="translate(-208.492 146.773)">
        <path d="m70 256v2c0 3.324 2.676 6 6 6s6-2.676 6-6v-2z" fill="#c01c28"/>
        <circle cx="76" cy="256" fill="#ed333b" r="6"/>
      </g>
      <path d="m-122.492 394.773v2c0 3.324 2.676 6 6 6s6-2.676 6-6v-2z" fill="#1a5fb4"/>
      <circle cx="-116.492" cy="394.773" fill="#3584e4" r="6"/>
    </g>
    <circle cx="44.116" cy="250" fill="#241f31" r="10"/>
    <circle cx="84.116" cy="250" fill="#241f31" r="10"/>
    <circle cx="44.116" cy="248" fill="#3d3846" r="10"/>
    <circle cx="84.116" cy="248" fill="#3d3846" r="10"/>
    <circle cx="-248" cy="-84" fill="url(#j)" r="8" transform="matrix(0 -1 -1 0 0 0)"/>
    <circle cx="-248" cy="-44.116" fill="url(#k)" r="8" transform="matrix(0 -1 -1 0 0 0)"/>
  </g>
</svg>
