<svg height="256" viewBox="0 0 67.73 67.73" width="256" xmlns="http://www.w3.org/2000/svg">
  <g stroke-width="1.039383">
    <path d="m33.335855 5.2914128c-16.12291 0-29.10273 12.9798172-29.10273 29.1027342 0 16.12291 12.97982 29.102728 29.10273 29.102728 16.122913 0 29.102726-12.979818 29.102726-29.102728 0-16.122917-12.979813-29.1027342-29.102726-29.1027342zm0 16.6301332a12.472599 12.472599 0 0 1 12.472597 12.472601 12.472599 12.472599 0 0 1 -12.472597 12.472599 12.472599 12.472599 0 0 1 -12.472597-12.472599 12.472599 12.472599 0 0 1 12.472597-12.472601z" opacity=".2"/>
    <path d="m33.335868 18.243732a15.590748 15.590747 0 0 0 -15.59075 15.590746 15.590748 15.590747 0 0 0 15.59075 15.590749 15.590748 15.590747 0 0 0 15.590747-15.590749 15.590748 15.590747 0 0 0 -15.590747-15.590746zm0 9.354447c3.444309 0 6.236296 2.791992 6.236296 6.236299 0 3.444308-2.791987 6.2363-6.236296 6.2363s-6.236301-2.791992-6.236301-6.2363c0-3.444307 2.791992-6.236299 6.236301-6.236299z" fill="#848484"/>
    <path d="m33.335868 4.7317498c-16.122911 0-29.10273 12.9798172-29.10273 29.1027282 0 16.122912 12.979819 29.102728 29.10273 29.102728 16.12291 0 29.102726-12.979816 29.102726-29.102728 0-16.122911-12.979816-29.1027282-29.102726-29.1027282zm0 16.6301312a12.472599 12.472598 0 0 1 12.472597 12.472597 12.472599 12.472598 0 0 1 -12.472597 12.472599 12.472599 12.472598 0 0 1 -12.472599-12.472599 12.472599 12.472598 0 0 1 12.472599-12.472597z" fill="#e4e4e4"/>
    <path d="m33.335868 4.7317498c-16.122911 0-29.10273 12.9798172-29.10273 29.1027282 0 .118038.01185.232855.01819.349169.365388-15.80045 13.193046-28.4125137 29.084462-28.4125137 15.890059 0 28.719008 12.6098897 29.086486 28.4084527.0066-.11495.01629-.22847.01629-.345108-.000059-16.122911-12.979872-29.1027282-29.102785-29.1027282zm-12.419818 30.1380522a12.472599 12.472598 0 0 0 -.0528 1.043443 12.472599 12.472598 0 0 0 .0264.519692 12.472599 12.472598 0 0 1 .0264-.523752 12.472599 12.472598 0 0 0 12.41982 11.437275 12.472599 12.472598 0 0 0 12.419816-11.429156 12.472599 12.472598 0 0 1 .03046.615105 12.472599 12.472598 0 0 0 .02232-.619164 12.472599 12.472598 0 0 0 -.05278-1.035322 12.472599 12.472598 0 0 1 -12.419822 11.429154 12.472599 12.472598 0 0 1 -12.419821-11.437275z" fill="#fff" opacity=".2"/>
  </g>
</svg>
