<svg height="256" viewBox="0 0 67.73 67.73" width="256" xmlns="http://www.w3.org/2000/svg" xmlns:xlink="http://www.w3.org/1999/xlink">
  <linearGradient id="linearGradient992" gradientTransform="matrix(.11747916 0 0 .1180878 3.413718 28.679904)" gradientUnits="userSpaceOnUse" x1="48" x2="464" y1="44" y2="44">
    <stop offset="0" stop-color="#babdb6"/>
    <stop offset=".04166667" stop-color="#f6f5f4"/>
    <stop offset=".08333334" stop-color="#d5d3cf"/>
    <stop offset=".91666669" stop-color="#deddda"/>
    <stop offset=".95833331" stop-color="#f6f5f4"/>
    <stop offset="1" stop-color="#babdb6"/>
  </linearGradient>
  <filter id="filter12480" color-interpolation-filters="sRGB" height="1.024" width="1.024" x="-.012" y="-.012">
    <feGaussianBlur stdDeviation="2.08"/>
  </filter>
  <path d="m104-186c-17.728 0-32 14.272-32 32v80 200 72c0 17.728 14.272 32 32 32h352c17.728 0 32-14.272 32-32v-72-200-80c0-17.728-14.272-32-32-32z" fill="#20221f" filter="url(#filter12480)" opacity=".4" transform="matrix(.11747916 0 0 .1180878 .594206 31.514059)"/>
  <rect fill="url(#linearGradient992)" height="39.677498" rx="3.759333" ry="3.77881" width="48.87133" x="9.05273" y="18.76053"/>
  <path d="m48.425781 35.203125c-7.871907 0-14.208984 6.370516-14.208984 14.283203v26.246094c-.000327.040142-.005859.078918-.005859.11914v124.974608c-.000001 7.91268 6.337086 14.28321 14.208984 14.28321h156.300778c7.8719 0 14.20899-6.37053 14.20899-14.28321v-33.50781h.00586v-117.832032c0-7.912687-6.33708-14.283203-14.20899-14.283203h-156.300779z" fill="#3d63b6" transform="scale(.26457031)"/>
  <g transform="translate(.955988 .149842)">
    <g fill="#eaca44">
      <path d="m90 56a2.0002001 2.0002001 0 0 0 -1.970703 2.029297v30.001953a2.0005911 2.0005911 0 0 0 4 0v-30.001953a2.0002001 2.0002001 0 0 0 -2.029297-2.029297zm10 0a2.0002001 2.0002001 0 0 0 -1.970703 2.029297v30.001953a2.0005911 2.0005911 0 0 0 4.000003 0v-30.001953a2.0002001 2.0002001 0 0 0 -2.0293-2.029297zm10 0a2.0002001 2.0002001 0 0 0 -1.9707 2.029297v30.001953a2.0005911 2.0005911 0 0 0 4 0v-30.001953a2.0002001 2.0002001 0 0 0 -2.0293-2.029297zm10 0a2.0002001 2.0002001 0 0 0 -1.9707 2.029297v30.001953a2.0005911 2.0005911 0 1 0 4 0v-30.001953a2.0002001 2.0002001 0 0 0 -2.0293-2.029297zm8 0a2.0002001 2.0002001 0 0 0 -1.9707 2.029297v30.001953a2.0005911 2.0005911 0 0 0 4 0v-30.001953a2.0002001 2.0002001 0 0 0 -2.0293-2.029297zm10 0a2.0002001 2.0002001 0 0 0 -1.9707 2.029297v30.001953a2.0005911 2.0005911 0 0 0 4 0v-30.001953a2.0002001 2.0002001 0 0 0 -2.0293-2.029297zm10 0a2.0002001 2.0002001 0 0 0 -1.9707 2.029297v30.001953a2.0005911 2.0005911 0 0 0 4 0v-30.001953a2.0002001 2.0002001 0 0 0 -2.0293-2.029297zm10 0a2.0002001 2.0002001 0 0 0 -1.9707 2.029297v30.001953a2.0005911 2.0005911 0 1 0 4 0v-30.001953a2.0002001 2.0002001 0 0 0 -2.0293-2.029297z" transform="scale(.26457031)"/>
      <path d="m23.811328 42.093028a.52919356.52919356 0 0 0 -.52139.536892v7.937626a.52929701.52929701 0 0 0 1.058282 0v-7.937626a.52919356.52919356 0 0 0 -.536892-.536892zm2.645703 0a.52919356.52919356 0 0 0 -.52139.536892v7.937626a.52929701.52929701 0 0 0 1.058283 0v-7.937626a.52919356.52919356 0 0 0 -.536893-.536892zm2.645703 0a.52919356.52919356 0 0 0 -.521389.536892v7.937626a.52929701.52929701 0 0 0 1.058282 0v-7.937626a.52919356.52919356 0 0 0 -.536893-.536892zm2.645703 0a.52919356.52919356 0 0 0 -.521389.536892v7.937626a.52929701.52929701 0 1 0 1.058282 0v-7.937626a.52919356.52919356 0 0 0 -.536893-.536892zm2.116563 0a.52919356.52919356 0 0 0 -.521389.536892v7.937626a.52929701.52929701 0 0 0 1.058281 0v-7.937626a.52919356.52919356 0 0 0 -.536892-.536892zm2.645703 0a.52919356.52919356 0 0 0 -.521389.536892v7.937626a.52929701.52929701 0 0 0 1.058281 0v-7.937626a.52919356.52919356 0 0 0 -.536892-.536892zm2.645703 0a.52919356.52919356 0 0 0 -.521389.536892v7.937626a.52929701.52929701 0 0 0 1.058281 0v-7.937626a.52919356.52919356 0 0 0 -.536892-.536892zm2.645703 0a.52919356.52919356 0 0 0 -.521389.536892v7.937626a.52929701.52929701 0 1 0 1.058282 0v-7.937626a.52919356.52919356 0 0 0 -.536893-.536892z"/>
      <path d="m21.421927 17.394867a.52929701.52929701 0 0 0 0 1.058281h7.937625a.52919356.52919356 0 0 0 .536893-.536892.52919356.52919356 0 0 0 -.536893-.521389zm0 2.645703a.52929701.52929701 0 0 0 0 1.058281h7.937625a.52919356.52919356 0 0 0 .536893-.536891.52919356.52919356 0 0 0 -.536893-.52139zm0 2.645703a.52929701.52929701 0 0 0 0 1.058281h7.937625a.52919356.52919356 0 0 0 .536893-.536891.52919356.52919356 0 0 0 -.536893-.52139zm0 2.645703a.52929701.52929701 0 1 0 0 1.058281h7.937625a.52919356.52919356 0 0 0 .536893-.536891.52919356.52919356 0 0 0 -.536893-.52139zm0 2.116563a.52929701.52929701 0 0 0 0 1.058282h7.937625a.52919356.52919356 0 0 0 .536893-.536893.52919356.52919356 0 0 0 -.536893-.521389zm0 2.645704a.52929701.52929701 0 0 0 0 1.058281h7.937625a.52919356.52919356 0 0 0 .536893-.536893.52919356.52919356 0 0 0 -.536893-.521388zm0 2.645703a.52929701.52929701 0 0 0 0 1.058281h7.937625a.52919356.52919356 0 0 0 .536893-.536893.52919356.52919356 0 0 0 -.536893-.521388zm0 2.645703a.52929701.52929701 0 1 0 0 1.058281h7.937625a.52919356.52919356 0 0 0 .536893-.536892.52919356.52919356 0 0 0 -.536893-.521389zm0 2.116562c-.688596.01672-.688596 1.041558 0 1.058282h7.937625c.298311.0044.541263-.238582.536893-.536893-.0043-.292239-.244654-.525672-.536893-.521389zm0 2.645703c-.688623.0167-.688623 1.041585 0 1.058282h7.937625c.298311.0044.541266-.238582.536893-.536893-.0043-.292239-.244654-.525672-.536893-.521389zm0 2.645703c-.688596.01672-.688596 1.041558 0 1.058282h7.937625c.298311.0044.541266-.238582.536893-.536893-.0043-.292236-.244654-.525672-.536893-.521389zm0 2.645704c-.722863-.01756-.722863 1.075835 0 1.058281h7.937625c.298311.0044.541266-.238582.536893-.536893-.0043-.292236-.244654-.525672-.536893-.521388zm0 2.116562c-.688568.01675-.688568 1.041531 0 1.058281h7.937625c.298311.0044.541263-.238581.536893-.536892-.0043-.292237-.244654-.525672-.536893-.521389z"/>
      <path d="m35.708734 17.394867a.52929701.52929701 0 0 0 0 1.058281h7.937625a.52919356.52919356 0 0 0 .536893-.536892.52919356.52919356 0 0 0 -.536893-.521389zm0 2.645703a.52929701.52929701 0 0 0 0 1.058281h7.937625a.52919356.52919356 0 0 0 .536893-.536891.52919356.52919356 0 0 0 -.536893-.52139zm0 2.645703a.52929701.52929701 0 0 0 0 1.058281h7.937625a.52919356.52919356 0 0 0 .536893-.536891.52919356.52919356 0 0 0 -.536893-.52139zm0 2.645703a.52929701.52929701 0 1 0 0 1.058281h7.937625a.52919356.52919356 0 0 0 .536893-.536891.52919356.52919356 0 0 0 -.536893-.52139zm0 2.116563a.52929701.52929701 0 0 0 0 1.058282h7.937625a.52919356.52919356 0 0 0 .536893-.536893.52919356.52919356 0 0 0 -.536893-.521389zm0 2.645704a.52929701.52929701 0 0 0 0 1.058281h7.937625a.52919356.52919356 0 0 0 .536893-.536893.52919356.52919356 0 0 0 -.536893-.521388zm0 2.645703a.52929701.52929701 0 0 0 0 1.058281h7.937625a.52919356.52919356 0 0 0 .536893-.536893.52919356.52919356 0 0 0 -.536893-.521388zm0 2.645703a.52929701.52929701 0 1 0 0 1.058281h7.937625a.52919356.52919356 0 0 0 .536893-.536892.52919356.52919356 0 0 0 -.536893-.521389zm0 2.116562c-.688596.01672-.688596 1.041558 0 1.058282h7.937625c.298311.0044.541263-.238582.536893-.536893-.0043-.292239-.244654-.525672-.536893-.521389zm0 2.645703c-.688623.0167-.688623 1.041585 0 1.058282h7.937625c.298311.0044.541266-.238582.536893-.536893-.0043-.292239-.244654-.525672-.536893-.521389zm0 2.645703c-.688596.01672-.688596 1.041558 0 1.058282h7.937625c.298311.0044.541266-.238582.536893-.536893-.0043-.292236-.244654-.525672-.536893-.521389zm0 2.645704c-.722863-.01756-.722863 1.075835 0 1.058281h7.937625c.298311.0044.541266-.238582.536893-.536893-.0043-.292236-.244654-.525672-.536893-.521388zm0 2.116562c-.688568.01675-.688568 1.041531 0 1.058281h7.937625c.298311.0044.541263-.238581.536893-.536892-.0043-.292237-.244654-.525672-.536893-.521389z"/>
    </g>
    <path d="m22.193808 16.138788h20.953968v33.731457h-20.953968z" fill="#434854" stroke-width=".119939"/>
  </g>
</svg>
