<svg height="128" width="128" xmlns="http://www.w3.org/2000/svg">
  <g enable-background="new" stroke-width="1.208333" transform="matrix(.82758620052 0 0 .82758620052 -41.93103377421 -41.79916762903)">
    <path d="m77.477 69.576c2.064 0 3.74 1.676 3.74 3.741v55.223c0 2.064-1.676 3.74-3.74 3.74-2.064 0-3.74-1.676-3.74-3.74v-55.223c0-2.065 1.676-3.741 3.74-3.741z" fill="#3d3846"/>
    <path d="m178.523 68.576c2.064 0 3.74 1.676 3.74 3.741v55.223c0 2.064-1.676 3.74-3.74 3.74-2.064 0-3.74-1.676-3.74-3.74v-55.223c0-2.065 1.676-3.741 3.74-3.741z" fill="#3d3846"/>
    <path d="m77.862 124.879c3.551 0 6.434 3.308 6.434 7.383v6.496c0 4.075-2.883 7.383-6.434 7.383-3.551 0-6.434-3.308-6.434-7.383v-6.496c0-4.075 2.883-7.383 6.434-7.383z" fill="#c0bfbc"/>
    <path d="m178.908 123.879c3.551 0 6.434 3.308 6.434 7.383v6.496c0 4.075-2.883 7.383-6.434 7.383-3.551 0-6.434-3.308-6.434-7.383v-6.496c0-4.075 2.883-7.383 6.434-7.383z" fill="#c0bfbc"/>
    <path d="m62.934 135.461h130.132c4.103 0 7.434 3.331 7.434 7.434v33.094c0 4.103-3.331 7.435-7.434 7.435h-130.132c-4.103 0-7.434-3.332-7.434-7.435v-33.094c0-4.103 3.331-7.434 7.434-7.434z" fill="#deddda"/>
    <path d="m55.5 146.38h145v26.121h-145z" fill="#3d3846"/>
    <path d="m72.64 153.47h.825c.532 0 .963.431.963.963v9.297c0 .532-.431.964-.963.964h-.825c-.532 0-.964-.432-.964-.964v-9.297c0-.532.432-.963.964-.963zm10 0h.825c.532 0 .963.431.963.963v9.297c0 .532-.431.964-.963.964h-.825c-.532 0-.964-.432-.964-.964v-9.297c0-.532.432-.963.964-.963zm10 0h.825c.532 0 .963.431.963.963v9.297c0 .532-.431.964-.963.964h-.825c-.532 0-.964-.432-.964-.964v-9.297c0-.532.432-.963.964-.963zm10 0h.825c.532 0 .963.431.963.963v9.297c0 .532-.431.964-.963.964h-.825c-.532 0-.964-.432-.964-.964v-9.297c0-.532.432-.963.964-.963zm10 0h.825c.532 0 .963.431.963.963v9.297c0 .532-.431.964-.963.964h-.825c-.532 0-.964-.432-.964-.964v-9.297c0-.532.432-.963.964-.963z" fill="#33d17a" fill-rule="evenodd"/>
    <ellipse cx="144.71899" cy="159.082" fill="#f6d32d" rx="5.939" ry="5.94"/>
    <ellipse cx="161.88" cy="159.082" fill="#2ec27e" rx="5.939" ry="5.94"/>
    <ellipse cx="178.381" cy="159.082" fill="#1c71d8" rx="5.939" ry="5.94"/>
  </g>
</svg>
