<svg height="128" width="128" xmlns="http://www.w3.org/2000/svg" xmlns:xlink="http://www.w3.org/1999/xlink">
  <linearGradient id="linearGradient4877">
    <stop offset="0" stop-color="#747474"/>
    <stop offset=".453" stop-color="#fff"/>
    <stop offset="1" stop-color="#3f3f3f"/>
  </linearGradient>
  <linearGradient id="linearGradient4899" gradientTransform="matrix(3.1247141 0 0 3.0512579 -14.76211 -8.155982)" gradientUnits="userSpaceOnUse" x1="42.366" x2="42.401" xlink:href="#linearGradient4877" y1="15.05" y2="20.018"/>
  <linearGradient id="linearGradient4925" gradientTransform="matrix(3.1247141 0 0 3.0512579 -14.76211 10.678944)" gradientUnits="userSpaceOnUse" x1="42.366" x2="42.401" xlink:href="#linearGradient4877" y1="15.05" y2="20.018"/>
  <linearGradient id="linearGradient932" gradientUnits="userSpaceOnUse" x1="95.5392481624" x2="137.2855145164" y1="59.4689339" y2="59.4689339">
    <stop offset="0" stop-color="#747474"/>
    <stop offset=".478" stop-color="#b0b0b0"/>
    <stop offset="1" stop-color="#3f3f3f"/>
  </linearGradient>
  <path d="m107.82422 6.9824219a2.6909727 2.6909727 0 0 0 -2.68945 2.6914062v13.8046879h-97.1289106c-1.4906498 0-2.6914063 1.200756-2.6914063 2.691406v66.914062c0 1.49065 1.2007565 2.691407 2.6914063 2.691407h24.8203126v11.208989c.000003 1.49065 1.200756 2.6914 2.691406 2.6914h45.503906c1.490649 0 2.691407-1.20075 2.691407-2.6914v-11.208989h21.421879v17.490229 2.68946h5.38085v-2.68946-41.033198h8.20704c1.49065 0 2.68945-1.200757 2.68945-2.691406v-6.726563c0-1.49065-1.1988-2.691406-2.68945-2.691406h-8.20704v-6.726563h8.20704c1.49065 0 2.68945-1.198803 2.68945-2.689453v-6.728515c0-1.49065-1.1988-2.689454-2.68945-2.689454h-8.20704v-28.925781h12.10743 2.6914v-5.3808591h-2.6914z" opacity=".1"/>
  <path d="m8.0052785 21.478517c-1.4906498 0-2.6907036 1.200054-2.6907036 2.690704v66.915488c0 1.49065 1.2000538 2.6907 2.6907036 2.6907h24.8206885v11.209531c.000003 1.49065 1.200054 2.6907 2.690704 2.6907h45.505476c1.490649 0 2.690703-1.20005 2.690703-2.6907v-11.209531h23.8432c1.49065 0 2.69071-1.20005 2.69071-2.6907v-66.915488c0-1.49065-1.20006-2.690704-2.69071-2.690704z" fill="#3d8bd6"/>
  <rect display="block" fill="url(#linearGradient4925)" height="12.108" rx="2.691" width="14.799" x="106.61" y="58.12"/>
  <rect display="block" fill="url(#linearGradient4899)" height="12.108" rx="2.691" width="14.799" x="106.61" y="39.29"/>
  <rect display="block" fill="#555753" height="21.339" rx="2.534" stroke="#2e3436" stroke-width="2.690704" width="43.202" x="18.96" y="31.9"/>
  <path d="m21.5 34.61h37.982v15.826h-37.982z" display="block" fill="none" opacity=".17045"/>
  <g fill="#cfb900">
    <path d="m60.737688 35.925284v2.690704h5.381407v-2.690704zm0 5.381407v2.690704h5.381407v-2.690704zm0 5.381408v2.690703h5.381407v-2.690703z" display="block"/>
    <path d="m23.067837 27.853173v5.381407h2.690704v-5.381407zm5.381408 0v5.381407h2.690703v-5.381407zm5.381407 0v5.381407h2.690704v-5.381407zm5.381407 0v5.381407h2.690704v-5.381407zm5.381407 0v5.381407h2.690704v-5.381407zm5.381408 0v5.381407h2.690703v-5.381407zm5.381407 0v5.381407h2.690704v-5.381407z" display="block"/>
    <path d="m23.067837 52.069506v5.381407h2.690704v-5.381407zm5.381408 0v5.381407h2.690703v-5.381407zm5.381407 0v5.381407h2.690704v-5.381407zm5.381407 0v5.381407h2.690704v-5.381407zm5.381407 0v5.381407h2.690704v-5.381407zm5.381408 0v5.381407h2.690703v-5.381407zm5.381407 0v5.381407h2.690704v-5.381407z" display="block"/>
  </g>
  <path d="m109.97756 111.26499v-103.5920944h14.79887" display="block" fill="none"/>
  <path d="m107.825 4.9821916a2.6909727 2.6909727 0 0 0 -2.69071 2.690704v103.5920944 2.6907h5.38141v-2.6907-100.90139h12.10817 2.6907v-5.3814084h-2.6907z" display="block" fill="url(#linearGradient932)"/>
  <path d="m90.41884 31.889229a3.9975784 3.9975784 0 0 0 -4.120006 4.036055 4.0360555 4.0360555 0 1 0 8.072111 0 3.9975784 3.9975784 0 0 0 -3.952105-4.036055zm-.336338 13.453518a3.9975784 3.9975784 0 0 0 -3.783668 4.036055 4.0360555 4.0360555 0 1 0 8.072111 0 3.9975784 3.9975784 0 0 0 -4.288443-4.036055zm0 13.537468a3.9975784 3.9975784 0 0 0 -3.783668 3.952105 4.0360555 4.0360555 0 1 0 8.072111 0 3.9975784 3.9975784 0 0 0 -4.288443-3.952105z" display="block" fill="#235089"/>
  <path d="m14.995727 35.925284v2.690704h5.381407v-2.690704zm0 5.381407v2.690704h5.381407v-2.690704zm0 5.381408v2.690703h5.381407v-2.690703z" display="block" fill="#cfb900"/>
  <path d="m41.146675 91.337639c-1.52049.33426-1.933943 1.7863-1.933943 2.43845v11.855771h5.381407v-11.855771c0-.74533-.539029-2.43845-2.690704-2.43845-.263715 0-.539539-.0476-.75676 0zm8.072111 0c-1.52049.33426-1.933943 1.7863-1.933943 2.43845v11.855771h5.381407v-11.855771c0-.74533-.539029-2.43845-2.690704-2.43845-.263716 0-.53954-.0476-.75676 0zm8.156061 0c-1.52049.33426-2.018028 1.7863-2.018028 2.43845v11.855771h5.381407v-11.855771c0-.74533-.539028-2.43845-2.690703-2.43845-.263716 0-.455456-.0476-.672676 0zm8.072111 0c-1.52049.33426-2.018028 1.7863-2.018028 2.43845v11.855771h5.381407v-11.855771c0-.74533-.539029-2.43845-2.690703-2.43845-.263716 0-.455456-.0476-.672676 0zm8.07211 0c-1.520489.33426-2.018027 1.7863-2.018027 2.43845v11.855771h5.381407v-11.855771c0-.74533-.539029-2.43845-2.690704-2.43845-.263715 0-.455455-.0476-.672676 0z" display="block" fill="#d3ba00"/>
</svg>
