<svg fill="none" height="128" viewBox="0 0 128 128" width="128" xmlns="http://www.w3.org/2000/svg" xmlns:xlink="http://www.w3.org/1999/xlink">
  <linearGradient id="paint0_linear" gradientUnits="userSpaceOnUse" x1="65.9234" x2="65.9234" y1="7.89891" y2="80.9761">
    <stop offset="0" stop-color="#fff"/>
    <stop offset=".125" stop-color="#fff" stop-opacity=".098039"/>
    <stop offset=".925" stop-color="#fff" stop-opacity=".098039"/>
    <stop offset="1" stop-color="#fff" stop-opacity=".498039"/>
  </linearGradient>
  <path d="m124 114.069v-18.7093c0-5.4811-4.45-9.931-9.931-9.931h-100.138c-5.48106 0-9.931 4.4499-9.931 9.931v18.7093c0 5.481 4.44994 9.931 9.931 9.931h100.138c5.481 0 9.931-4.45 9.931-9.931z" fill="#000" opacity=".2"/>
  <path d="m124 111.636v-18.1292c0-5.6409-4.58-10.2216-10.222-10.2216h-99.5565c-5.64163 0-10.2215 4.5807-10.2215 10.2216v18.1292c0 5.641 4.57987 10.221 10.2215 10.221h99.5565c5.642 0 10.222-4.58 10.222-10.221z" fill="#c0bfbc"/>
  <g fill="#000">
    <path d="m112.214 102.571c2.959 0 5.357-2.398 5.357-5.3566s-2.398-5.357-5.357-5.357c-2.958 0-5.357 2.3984-5.357 5.357s2.399 5.3566 5.357 5.3566z" opacity=".2"/>
    <path d="m95.6626 102.571c2.9586 0 5.3574-2.398 5.3574-5.3566s-2.3988-5.357-5.3574-5.357c-2.9585 0-5.3569 2.3984-5.3569 5.357s2.3984 5.3566 5.3569 5.3566z" opacity=".2"/>
    <path d="m79.1109 102.571c2.9586 0 5.357-2.398 5.357-5.3566s-2.3984-5.357-5.357-5.357-5.357 2.3984-5.357 5.357 2.3984 5.3566 5.357 5.3566z" opacity=".2"/>
  </g>
  <path d="m112.214 100.428c2.959 0 5.357-2.3985 5.357-5.3571s-2.398-5.357-5.357-5.357c-2.958 0-5.357 2.3984-5.357 5.357s2.399 5.3571 5.357 5.3571z" fill="#e66100"/>
  <path d="m95.6626 100.428c2.9586 0 5.3574-2.3985 5.3574-5.3571s-2.3988-5.357-5.3574-5.357c-2.9585 0-5.3569 2.3984-5.3569 5.357s2.3984 5.3571 5.3569 5.3571z" fill="#f5c211"/>
  <path d="m79.1109 100.428c2.9586 0 5.357-2.3985 5.357-5.3571s-2.3984-5.357-5.357-5.357-5.357 2.3984-5.357 5.357 2.3984 5.3571 5.357 5.3571z" fill="#33d17a"/>
  <path clip-rule="evenodd" d="m45.8221 95.4516-8.5655 12.8604c-.1904.273-.2566.604-.1904.927s.2566.613.5297.795.6124.248.9351.182c.3228-.066.6042-.257.7862-.53l8.5738-12.8523c.1821-.2731.2483-.6125.1821-.9352-.0662-.3228-.2565-.6041-.5296-.7862-.2732-.1821-.6042-.2483-.9269-.1904-.3228.0662-.6125.2566-.7945.5297zm-19.3573 14.2344 8.5655-12.8523c.1821-.2731.2483-.6125.1904-.9352-.0662-.3228-.2566-.6041-.5297-.7862s-.6124-.2483-.9351-.1904c-.3228.0662-.6042.2566-.7862.5297l-8.5738 12.8604c-.1821.273-.2483.604-.1821.927.0579.323.2483.613.5296.795.2732.182.6042.248.9269.182.3228-.066.6125-.257.7945-.53zm-12.8607 0 8.5738-12.8523c.1821-.2731.2483-.6125.1821-.9352-.0662-.3228-.2565-.6041-.5297-.7862-.2731-.1821-.6041-.2483-.9268-.1904-.3228.0662-.6125.2566-.7945.5297l-8.5738 12.8604c-.1821.273-.2483.604-.1821.927s.2566.613.5297.795.6124.248.9351.182c.3228-.066.6042-.257.7862-.53zm38.5738 0 8.5656-12.8523c.1903-.2731.2565-.6125.1903-.9352-.0662-.3228-.2566-.6041-.5297-.7862s-.6124-.2483-.9351-.1904c-.3228.0662-.6042.2566-.7862.5297l-8.5738 12.8604c-.1821.273-.2483.604-.1821.927s.2566.613.5297.795.6041.248.9269.182c.3227-.066.6124-.257.7944-.53z" fill="#3d3846" fill-rule="evenodd" opacity=".5"/>
  <path d="m121.692 71.842c0 12.0193-4.703 11.8791-16.827 12.0193h-81.7303c-12.1238-.1402-16.827 0-16.827-12.0193v-52.8854c0-12.01925 4.7032-11.87909 16.827-12.01925h81.7303c12.124.14016 16.827 0 16.827 12.01925z" fill="#000" opacity=".2"/>
  <path d="m121.692 70.8804c0 12.0193-4.703 11.8792-16.827 12.0193h-81.7303c-12.1238-.1401-16.827 0-16.827-12.0193v-52.8853c0-12.01927 4.7032-11.87911 16.827-12.01927h81.7303c12.124.14016 16.827 0 16.827 12.01927z" fill="#000" opacity=".5" stroke="url(#paint0_linear)" stroke-width="4"/>
  <path d="m121.692 70.8805c0 12.0193-4.703 11.8791-16.827 12.0192h-81.7303c-12.1238-.14-16.82701.0001-16.82701-12.0192v-52.8854c0-12.01927 4.70321-11.8791 16.82701-12.01927h81.7303c12.124.1401 16.827 0 16.827 12.01927z" fill="#67666d"/>
  <path d="m106.301 9.81421h-84.6148c-2.1246 0-3.8468.80699-3.8468 1.80259v.2416c0 .9956 1.7222 1.8026 3.8468 1.8026h84.6148c2.124 0 3.846-.807 3.846-1.8026v-.2416c0-.9956-1.722-1.80259-3.846-1.80259z" fill="#000021" opacity=".3"/>
  <path d="m106.301 59.8205h-84.6148c-2.1246 0-3.8468 1.7223-3.8468 3.8468v11.5367c0 2.1245 1.7222 3.8467 3.8468 3.8467h84.6148c2.124 0 3.846-1.7222 3.846-3.8467v-11.5367c0-2.1245-1.722-3.8468-3.846-3.8468z" fill="#000021" opacity=".3"/>
  <path d="m97.268 11.7222h-66.8762c-1.2524 0-2.2677.4311-2.2677.963v1.9243c0 .5319 1.0153.9631 2.2677.9631h66.8762c1.2524 0 2.2677-.4312 2.2677-.9631v-1.9243c0-.5319-1.0153-.963-2.2677-.963z" fill="#000" opacity=".3"/>
  <path d="m95.0021 57.9307h-62.3443c-2.5039 0-4.5337 2.2991-4.5337 5.1351v8.9837c0 2.836 2.0298 5.1351 4.5337 5.1351h62.3443c2.5038 0 4.5336-2.2991 4.5336-5.1351v-8.9837c0-2.836-2.0298-5.1351-4.5336-5.1351z" fill="#000" opacity=".3"/>
  <path d="m21.6924 59.8222c-2.1308 0-3.8462 1.7154-3.8462 3.8462v.4807c0-2.1307 1.7154-3.8462 3.8462-3.8462h84.6156c2.131 0 3.846 1.7155 3.846 3.8462v-.4807c0-2.1308-1.715-3.8462-3.846-3.8462z" fill="#000" opacity=".2"/>
  <path d="m17.8594 11.5047c-.006.04-.0131.0796-.0131.1201v.2404c0 .9988 1.7154 1.8029 3.8462 1.8029h84.6155c2.131 0 3.846-.8041 3.846-1.8029v-.2404c0-.0405-.008-.0803-.013-.1201-.131.9421-1.789 1.6827-3.833 1.6827h-84.6156c-2.0442 0-3.7014-.7406-3.833-1.6827z" fill="#fff" opacity=".6"/>
  <path d="m17.8394 13.6664h92.3076v46.1541h-92.3076z" fill="#67666d"/>
  <path d="m121.692 70.8799c0 12.0193-4.703 11.8792-16.827 12.0193h-81.7303c-12.1238-.1401-16.82698 0-16.82698-12.0193v-2.8851c0-12.0193 4.70318-11.8791 16.82698-12.0193h81.7303c12.124.1401 16.827 0 16.827 12.0193z" fill="#fff" opacity=".2"/>
  <path d="m79.3878 47.3298c0-2.6554-2.1526-4.808-4.808-4.808s-4.808 2.1526-4.808 4.808 2.1526 4.8081 4.808 4.8081 4.808-2.1527 4.808-4.8081z" fill="#000" opacity=".2"/>
  <path d="m74.5772 50.2068c1.5932 0 2.8847-1.2915 2.8847-2.8847 0-1.5931-1.2915-2.8846-2.8847-2.8846-1.5931 0-2.8846 1.2915-2.8846 2.8846 0 1.5932 1.2915 2.8847 2.8846 2.8847z" fill="#f82d43"/>
  <path d="m74.5772 44.4375c-1.598 0-2.8846 1.2865-2.8846 2.8846 0 .0609.0055.1204.0092.1803.0674-1.0981.7433-2.024 1.6958-2.4508-.1644.2343-.2627.519-.2627.8282 0 .7991.6433 1.4423 1.4423 1.4423.7991 0 1.4424-.6432 1.4424-1.4423 0-.3092-.0983-.5939-.2627-.8282.9525.4268 1.6284 1.3527 1.6958 2.4508.0037-.0599.0092-.1194.0092-.1803 0-1.5981-1.2866-2.8846-2.8847-2.8846z" fill="#fff" opacity=".5"/>
  <path d="m106.299 47.3298c0-2.6554-2.153-4.808-4.808-4.808-2.6555 0-4.8082 2.1526-4.8082 4.808s2.1527 4.8081 4.8082 4.8081c2.655 0 4.808-2.1527 4.808-4.8081z" fill="#000" opacity=".2"/>
  <path d="m101.5 50.2068c1.594 0 2.885-1.2915 2.885-2.8847 0-1.5931-1.291-2.8846-2.885-2.8846-1.5927 0-2.8842 1.2915-2.8842 2.8846 0 1.5932 1.2915 2.8847 2.8842 2.8847z" fill="#7eff00" fill-opacity=".514286"/>
  <path d="m101.5 44.4375c-1.5977 0-2.8842 1.2865-2.8842 2.8846 0 .0609.0055.1204.0092.1803.0674-1.0981.7433-2.024 1.696-2.4508-.165.2343-.263.519-.263.8282 0 .7991.643 1.4423 1.442 1.4423s1.443-.6432 1.443-1.4423c0-.3092-.099-.5939-.263-.8282.953.4268 1.628 1.3527 1.696 2.4508.004-.0599.009-.1194.009-.1803 0-1.5981-1.286-2.8846-2.885-2.8846z" fill="#fff" opacity=".5"/>
  <path d="m92.8524 47.3298c0-2.6554-2.1526-4.808-4.808-4.808s-4.808 2.1526-4.808 4.808 2.1526 4.8081 4.808 4.8081 4.808-2.1527 4.808-4.8081z" fill="#000" opacity=".2"/>
  <path d="m90.9227 47.3153v-.0018c0-1.5927-1.2911-2.8838-2.8837-2.8838h-.0019c-1.5926 0-2.8837 1.2911-2.8837 2.8838v.0018c0 1.5926 1.2911 2.8837 2.8837 2.8837h.0019c1.5926 0 2.8837-1.2911 2.8837-2.8837z" fill="#f67000"/>
  <path d="m88.0388 44.4375c-1.5981 0-2.8846 1.2866-2.8846 2.8846 0 .061.0058.1203.0091.1803.0675-1.0981.7434-2.024 1.6958-2.4508-.1644.2343-.2626.519-.2626.8282 0 .799.6432 1.4423 1.4423 1.4423.799 0 1.4423-.6433 1.4423-1.4423 0-.3092-.0983-.5939-.2627-.8282.9525.4268 1.6284 1.3527 1.6958 2.4508.0042-.06.0091-.1194.0091-.1803 0-1.598-1.2865-2.8846-2.8846-2.8846z" fill="#fff" opacity=".5"/>
</svg>
