<svg height="16" width="16" xmlns="http://www.w3.org/2000/svg">
  <path d="m469 540c-3.866 0-7 3.134-7 7s3.134 7 7 7 7-3.134 7-7-3.134-7-7-7zm-5.7812 4.0312c3.9126-.0377 7.9716-.00016 11.562 0 0 1.642-1.2497 2.9688-2.7812 2.9688-1.2754 0-2.3326-.93056-2.6562-2.1875h-.6875c-.3237 1.257-1.3809 2.1875-2.6562 2.1875-1.5315 0-2.7812-1.3268-2.7812-2.9688zm.78125 4.0312c.71531 1.0744 2.2352 1.9375 5 1.9375 2.4523 0 4.2108-.75041 5-1.9375v.5c0 .68098-.8379 2.4062-5 2.4062-3.8808 0-5-1.8737-5-2.4062z" fill="#444" transform="translate(-461 -539)"/>
</svg>
