<svg xmlns="http://www.w3.org/2000/svg" width="16" height="16" version="1.1">
 <title id="title9167">
  Gnome Symbolic Icon Theme
 </title>
 <g transform="translate(-521 -539)">
  <path d="m529 540c-3.866 0-7 3.134-7 7s3.134 7 7 7 7-3.134 7-7-3.134-7-7-7zm-2 4c0.55833 0 1.0312 0.47292 1.0312 1.0312v0.96875c0 0.55833-0.47292 1-1.0312 1s-1-0.44167-1-1v-0.96875c0-0.55833 0.44167-1.0312 1-1.0312zm4 0c0.55833 0 1 0.47292 1 1.0312v0.96875c0 0.55833-0.44167 1-1 1s-1-0.44167-1-1v-0.96875c0-0.55833 0.44167-1.0312 1-1.0312zm-6 4 4 1 4-1c0.0825 0.59047-0.16081 1.054-0.67132 1.1678l-1.3287 0.33217 1.3088 0.32721c0.71468 0.1915 0.69117 0.74919 0.69117 1.1728l-4-1-4 1c-0.0655-0.63125 0.0374-0.98324 0.52023-1.1301l1.4798-0.36994-1.5041-0.33502c-0.47451-0.12796-0.57901-0.68121-0.49587-1.165z" fill="#444"/>
 </g>
</svg>
