<svg height="16" viewBox="0 0 16 16" width="16" xmlns="http://www.w3.org/2000/svg">
  <g fill="#444" transform="translate(0 -1036.3622)">
    <path d="m1.0240593 1036.3622c-.55001632 0-.9928093.4429-.9928093.9928v4.9641c0 .55.44279298.9927.9928093.9927h4.9640465c.5500164 0 .9928093-.4427.9928093-.9927v-4.9641c0-.5499-.4427929-.9928-.9928093-.9928zm2.3249576 1.1586c1.1398693 0 1.6656702.5937 1.6656702 1.3651 0 .9351-.9150132 1.7818-1.8091621 2.6964h1.9041774v.7368h-3.2557166v-.5255c.2525458-.2389.5399565-.4846.8948858-.8533.6825565-.7165 1.4261937-1.3995 1.4261937-2.0001 0-.3822-.2253986-.6206-.8260484-.6206-.4777894 0-.8596718.191-1.2555545.3617l-.2462633-.731c.3276269-.1706.860215-.4295 1.5018178-.4295z"/>
    <path d="m1.0240602 1044.3289c-.55001683 0-.9928102.4428-.9928102.9928v4.964c0 .5501.44279337.9929.9928102.9929h4.9640513c.550017 0 .9928102-.4428.9928102-.9929v-4.964c0-.55-.4427932-.9928-.9928102-.9928zm2.5169292 1.2197h1.132424v2.9764h.8260492v.7504h-.8260492v1.0103h-.8396225v-1.0103h-2.2726049v-.5933zm.2928015.9152-.095015.2045-1.1741145 1.8567h1.2691294v-1.8567-.2045z"/>
    <path d="m8.973406 1044.3501c-.5500174 0-.9928109.4428-.9928109.9928v4.9641c0 .5499.4427935.9928.9928109.9928h4.964055c.550016 0 .992809-.4429.992809-.9928v-4.9641c0-.55-.442793-.9928-.992809-.9928zm2.419007 1.1575c1.167174 0 1.699606.4778 1.699606 1.2217 0 .3754-.204535.6558-.552639.9289.566524.307.819265.7506.819265 1.2283 0 .7373-.648159 1.4884-1.924543 1.4884-1.126219 0-1.959442-.5808-1.959442-1.4272 0-.4984.32786-.9757.812475-1.2691-.450487-.3071-.545852-.724-.545852-.9628 0-.6621.593165-1.2082 1.65113-1.2082zm0 .7515c-.464139 0-.777573.2661-.777573.5254 0 .3891.565903.5599.961786.6689.450488-.2524.65541-.4096.65541-.6349 0-.3755-.395961-.5594-.839623-.5594zm-.08823 1.6309c-.614303.1705-.969542.56-.969542.9287 0 .3959.416709.7776 1.133395.7776.648428 0 1.023836-.3477 1.023836-.7505 0-.5459-.546085-.7921-1.187689-.9558z"/>
  </g>
</svg>
