<svg xmlns="http://www.w3.org/2000/svg" width="16" height="16" version="1.1">
 <title id="title9167">
  Gnome Symbolic Icon Theme
 </title>
 <g transform="translate(-601 -461)">
  <path fill="#444" d="m610 469v1 3.2812c-0.29454-0.17076-0.63503-0.28125-1-0.28125-1.1046 0-2 0.89543-2 2s0.89543 2 2 2 2-0.89543 2-2v-5h4v3.2812c-0.29454-0.17076-0.63503-0.28125-1-0.28125-1.1046 0-2 0.89543-2 2s0.89543 2 2 2 2-0.89543 2-2v-5-1h-1-4-1z"/>
  <path fill="#444" d="m602.97 461s-0.96875 1-0.96875 2v12c0 1.0096-1 2-1 2h1s0.42287-0.42699 0.71875-1h1c-0.29588 0.57301-0.71875 1-0.71875 1h1s1-1.0214 1-2v-2h1v-1h-1v-5h8v1h1 1 1v-5c0-1 0.96875-2 0.96875-2h-3s-0.96875 1-0.96875 2v3h-8v-3c0-1 0.96875-2 0.96875-2zm0.3125 1h1c-0.15291 0.30578-0.28125 0.65211-0.28125 1h-1c0-0.34789 0.12834-0.69422 0.28125-1zm11 0h1c-0.15291 0.30578-0.28125 0.65211-0.28125 1h-1c0-0.34789 0.12834-0.69422 0.28125-1zm-11.281 2h1v1h-1zm11 0h1v1h-1zm-11 2h1v1h-1zm11 0h1v1h-1zm-11 2h1v1h-1zm0 2h1v1h-1zm0 2h1v1h-1zm0 2h1v1h-1z"/>
 </g>
</svg>
