<?xml version="1.0" encoding="UTF-8" standalone="no"?>
<svg
   xmlns:dc="http://purl.org/dc/elements/1.1/"
   xmlns:cc="http://creativecommons.org/ns#"
   xmlns:rdf="http://www.w3.org/1999/02/22-rdf-syntax-ns#"
   xmlns:svg="http://www.w3.org/2000/svg"
   xmlns="http://www.w3.org/2000/svg"
   xmlns:sodipodi="http://sodipodi.sourceforge.net/DTD/sodipodi-0.dtd"
   xmlns:inkscape="http://www.inkscape.org/namespaces/inkscape"
   width="16"
   height="16"
   version="1.1"
   id="svg13"
   sodipodi:docname="astah_uml-SYMBOLIC.svg"
   inkscape:version="0.92.3 (2405546, 2018-03-11)">
  <metadata
     id="metadata19">
    <rdf:RDF>
      <cc:Work
         rdf:about="">
        <dc:format>image/svg+xml</dc:format>
        <dc:type
           rdf:resource="http://purl.org/dc/dcmitype/StillImage" />
        <dc:title></dc:title>
      </cc:Work>
    </rdf:RDF>
  </metadata>
  <defs
     id="defs17" />
  <sodipodi:namedview
     pagecolor="#ffffff"
     bordercolor="#666666"
     borderopacity="1"
     objecttolerance="10"
     gridtolerance="10"
     guidetolerance="10"
     inkscape:pageopacity="0"
     inkscape:pageshadow="2"
     inkscape:window-width="1920"
     inkscape:window-height="1009"
     id="namedview15"
     showgrid="false"
     inkscape:zoom="14.75"
     inkscape:cx="8"
     inkscape:cy="8"
     inkscape:window-x="0"
     inkscape:window-y="34"
     inkscape:window-maximized="1"
     inkscape:current-layer="font" />
  <g
     id="font"
     fill="#444"
     transform="translate(-172,-668)">
    <path
       d="m 177.23057,668.5 v 3.74451 h 5.47051 c -0.10335,0 0.15353,0.30194 0.15353,0.15727 v 1.72596 h -3.63482 c -3.21257,0 -5.67304,2.10721 -5.71915,4.6514 -0.023,1.27209 0.57259,2.55187 1.61261,3.41174 1.04004,0.85987 2.46288,1.30912 4.10654,1.30912 h 7.37939 v -11.09825 c 0,-2.19275 -1.65731,-3.90175 -3.8981,-3.90175 z m 1.98927,9.37226 h 3.63482 v 1.88323 h -3.63482 c -0.97245,0 -1.48251,-0.25454 -1.71867,-0.4498 -0.23615,-0.19523 -0.25841,-0.32234 -0.25596,-0.45709 0.006,-0.26945 0.15896,-0.97634 1.97463,-0.97634 z"
       id="path2"
       inkscape:connector-curvature="0"
       style="stroke-width:1.87225711" />
  </g>
</svg>
