<svg height="16" width="16" xmlns="http://www.w3.org/2000/svg">
  <g fill="#444">
    <path d="m.9 9.4259713v5.0625977c0 .140083.0282155.273263.0792626.394351.0510472.121086.1249034.230096.2163119.321504.091411.09141.2004181.165267.321505.216313.1210879.051048.2542671.079263.3943503.079263h5.3154554v-6.0740287z"/>
    <path d="m15.21328 6.5740284v-5.0625977c0-.1400832-.02822-.2732624-.07926-.3943493-.05105-.1210879-.124907-.2300974-.216315-.3215059-.091412-.0914114-.200419-.1652667-.321505-.2163129-.121088-.0510471-.254267-.0792626-.394351-.0792626h-5.315455v6.0740303z"/>
    <path d="m15.213281 9.4259716v5.0625974c0 .140083-.02821.273263-.07926.394351-.05105.121086-.124904.230096-.216312.321504-.09141.09141-.200419.165267-.321505.216313-.121091.051048-.254271.079263-.394354.079263h-5.315456v-6.0740284z"/>
    <path d="m.9 6.5740284v-5.0625977c0-.1400832.02821546-.2732624.07926261-.3943493.05104719-.1210878.12490439-.2300974.21631289-.3215059.0914113-.0914113.2004181-.1652666.321505-.2163129.1210878-.0510471.254267-.0792626.3943503-.0792626h5.3154553v6.0740303z"/>
  </g>
</svg>
