<svg fill="none" height="16" viewBox="0 0 16 16" width="16" xmlns="http://www.w3.org/2000/svg">
  <g fill="#444">
    <path d="m1.47002 0c-.811264 0-1.4687993.657476-1.4687993 1.4688v11.062c0 .8113.6580553 1.4992 1.4687993 1.4688h6.52998v-2h-6.24869c-.40707-.005-.75-.3429-.75-.75v-8.5c0-.4071.3429-.75.75-.75h10.49999c.4071 0 .754.34292.75.75v3.21915h1v-4.50035c0-.811271-.6575-1.46879673-1.4688-1.46879673z"/>
    <g clip-rule="evenodd" fill-rule="evenodd">
      <path d="m11.0579 6.0625h-2.0579c-.21725 0-.41832.06928-.58233.18695.00514-.02369.0136-.04661.02518-.06807.01842-.03412.04426-.06367.07564-.08645.58169-.4312.91545-1.08879.91545-1.80486.00017-.27892-.05294-.5553-.15647-.8143-.01593-.03891-.02193-.08118-.01747-.12299s.01924-.08186.04302-.11654c.02365-.03515.05553-.06399.09287-.08399.03734-.02001.079-.03059.12137-.0308.05265.0002.10394.01675.14679.04735.87005.61669 1.48025 1.53439 1.71235 2.57529zm-3.0579 4.8257v-1.13966c-.13699.06269-.28209.10985-.43292.13911l-.03967-1.03695.4312.29308c.01276.00829.02677.01423.04139.01767v-.42072l-.18025-.30238.18025-.03735v-.45066l-.18025-.03741.18025-.30219v-.4218c-.01466.0035-.02868.00958-.04139.01806l-.4823.32805-.18297-4.56907c-.00129-.03269-.01512-.06363-.03863-.0864-.0235-.02276-.05486-.0356-.08758-.03584h-.00074c-.03282-.00015-.06441.01247-.0881.03519-.02369.02271-.03762.05374-.03886.08654l-.18274 4.56985-.48227-.32781c-.02389-.01637-.05266-.02407-.08154-.02182-.02887.00225-.05611.01431-.07717.03419-.02107.01988-.0347.04637-.03862.07506-.00392.0287.0021.05787.01706.08267l.31911.53533-.66749.13837c-.02862.00585-.05435.02141-.07282.04404-.01848.02264-.02857.05096-.02857.08018s.01009.05754.02857.08017c.01847.02264.0442.0382.07282.04405l.66749.13862-.31935.53582c-.01479.02488-.02067.05406-.01666.08273s.01767.05511.03872.07498c.02158.01892.04873.03032.07736.03246.02862.00215.05717-.00507.08133-.02056l.43094-.29332-.03967 1.03569c-.90354-.18471-1.58518-.98214-1.58518-1.93479 0-.55666.23208-1.07265.65336-1.45327.029-.02564.05188-.05746.06695-.09312.01507-.03565.02194-.07424.02011-.11291s-.01232-.07643-.03069-.11051c-.01837-.03407-.04415-.06359-.07544-.08637-.58197-.43096-.91597-1.08902-.91597-1.80488-.00001-.27863.05301-.55472.15621-.81353.01584-.03895.02177-.08121.01727-.12301s-.01929-.08184-.04305-.11652c-.02361-.03521-.05548-.0641-.09282-.08415-.03734-.02006-.07903-.03067-.12142-.0309-.05284.00022-.1043.01686-.14728.04761-.87142.61413-1.48238 1.53127-1.71337 2.57203l.65684.65659h-.74934c-.01134.15834-.01399.31719-.00794.47582.01132.21027.03843.41939.08109.62559l.93009.92984h-.63352c.6546 1.43193 2.08107 2.45871 3.73099 2.53431.06818.0032.13612.0048.20381.0048.28509 0 .56372-.0277.83337-.0806z"/>
      <path d="m9.66543 7.25032v-.00456h3.58877v.00456h.0843c.1561-.00362.3071.05547.4192.16405l2.0781 2.07805c.1086.11217.1677.26318.164.41926v5.50502c0 .3221-.2611.5833-.5833.5833h-5.8331c-.32214 0-.58328-.2612-.58331-.5833v-7.58307c-.005-.28386.19507-.5301.47394-.58331.01821-.00086.03648-.00086.05469 0 .01821-.00086.03648-.00086.05468 0zm3.41667 1.0413h-2.9154v3.91688h4.6802l-.0137-2.0416h-1.7499v-1.74996zm-.614 4.88008c-.152 0-.2918.0358-.4195.1072-.1262.0715-.2265.1703-.301.2964-.0745.1262-.1117.2683-.1117.4264s.0372.3002.1117.4264.1748.2242.301.2942c.1277.0714.2675.1071.4195.1071s.2911-.0357.4173-.1071c.1262-.07.2257-.168.2987-.2942.0745-.1262.1117-.2683.1117-.4264s-.0372-.3002-.1117-.4264c-.073-.1261-.1733-.2249-.301-.2964-.1261-.0714-.2645-.1072-.415-.1072zm0 .472c.1004 0 .1779.032.2326.0958.0547.0654.0821.1528.0821.2622 0 .111-.0274.1984-.0821.2622-.0547.0654-.1322.0981-.2326.0981-.1018 0-.1801-.0327-.2348-.0981-.0547-.0638-.0821-.1512-.0821-.2622 0-.1094.0274-.1968.0821-.2622.0547-.0638.133-.0958.2348-.0958zm-1.8085 1.1584c.1687 0 .3162-.0342.4423-.1026.1277-.0685.2258-.1635.2942-.2851s.1026-.2599.1026-.415c0-.1535-.0342-.2918-.1026-.415-.0684-.1231-.1665-.2204-.2942-.2918-.1261-.0699-.2736-.1049-.4423-.1049h-.67266v1.6144zm-.0456-1.1629c.114 0 .2044.0311.2713.0935.0669.0623.1004.1512.1004.2667 0 .1156-.0335.2045-.1004.2668s-.1573.0935-.2713.0935h-.1209v-.7205zm2.9146.7844c-.0638-.1247-.0958-.2668-.0958-.4264 0-.1597.032-.3018.0958-.4264.0654-.1247.1581-.222.2782-.2919.1201-.0684.2614-.1026.4241-.1026.1399 0 .2645.0258.374.0775.1109.0532.2006.1277.269.2235.0699.0957.1163.2075.1391.3352h-.5336c-.0243-.0532-.0592-.095-.1048-.1254-.0441-.0289-.0951-.0434-.1528-.0434-.0851 0-.1528.032-.203.0958-.0486.0638-.0729.1497-.0729.2577 0 .1079.0243.1938.0729.2576.0502.0639.1179.0958.203.0958.0577 0 .1087-.0152.1528-.0456.0456-.0289.0805-.0699.1048-.1231h.5336c-.0228.1276-.0692.2394-.1391.3351-.0684.0958-.1581.1695-.269.2212-.1095.0532-.2341.0798-.374.0798-.1627 0-.304-.0349-.4241-.1049-.1201-.0684-.2128-.1649-.2782-.2895z"/>
    </g>
  </g>
</svg>
