<svg height="16" width="16" xmlns="http://www.w3.org/2000/svg">
  <path d="m2.329337 10.881265c-.310741-.16814-1.5555-1.4107496-1.703182-1.7002296-.121707-.23856-.126155-.33881-.126155-2.8433v-2.59602l.146197-.28761c.08837-.17385.42201-.55685.843434-.96822.946318-.92373.737878-.87434 3.6902561-.87434 2.3071549 0 2.5764849.021 2.5764849.20128 0 .13126-1.4197779 1.49586-1.6596899 1.59518-.183804.0761-.520462.0939-1.7789251.0939h-1.552217l-.187612.15786c-.187138.15747-.187613.15946-.187613.78596 0 .97175-.122642.90934 1.859843.94649 1.9762201.037 1.8598101-.0203 1.8598101.91644 0 .32892-.01704.64245-.03788.69674-.0937.24418-.317612.27714-1.8826701.27714h-1.499759l-.149672.14967c-.138776.13878-.149674.19367-.149674.754 0 .51355.01846.6278.122908.76058l.122907.15625 1.630208.0197c1.5391941.0186 1.6438251.0271 1.8741191.15246.356988.19437 1.6429379 1.5076796 1.5960109 1.6299696-.03327.0867-.312333.0968-2.6154769.0944-2.4113841-.003-2.5920421-.0102-2.7916541-.11819zm7.530773.0206c-.225033-.11741-1.615915-1.4848696-1.615915-1.5887096 0-.18081.269541-.20128 2.651303-.20128h2.415408l.149673-.14967c.142934-.14293.149673-.18396.149673-.91128v-.76161l-1.783604-.0186-1.783604-.0186-.27644-.16252c-.152041-.0894-.577859-.47367-.946262-.85396-.780536-.80572-.820687-.89528-.818719-1.82607.0018-.86123.06706-.98825.967564-1.88398.630901-.62755.768992-.73533 1.048495-.81833.267932-.0796.711072-.0955 2.643236-.0948 1.276736.00038 2.383077.0174 2.458537.0376.07551.0202.137201.0844.137201.14269 0 .12764-1.274771 1.42524-1.546024 1.57371-.163866.0897-.434984.10945-1.858893.13549l-1.667046.0305-.147047.17108c-.133903.1558-.146874.22393-.145108.76223.0031.94173-.02887.92651 1.946011.92651 1.410231 0 1.549625.01 1.792837.12396.333319.15668 1.647976 1.47693 1.776159 1.78372.06566.15715.09285.43396.09245.94108-.000572.67969-.01004.7349-.176053 1.02334-.211729.36787-1.35085 1.4874396-1.661929 1.6334096-.193964.091-.441345.10415-1.920804.10202-1.418989-.002-1.72824-.0181-1.8811-.0979z" fill="#444"/>
</svg>
