<svg height="16.004" width="16" xmlns="http://www.w3.org/2000/svg">
  <g transform="translate(-183 -529)">
    <path d="m191.0002 533.84553v10.38049l-2.34399-2.28818-1.33941 2.73465c-.32808.73962-2.03368.14492-1.5487-.84412l1.32547-2.83928h-2.95789z" display="block" fill="#474747"/>
    <path d="m190.15645 530.0625c-3.82659.46006-6.57883 3.95775-6.09375 7.78125.13127 1.03473.29377 1.38184.29377 1.38184l1.67498-1.63184c-.33104-2.75343 1.62156-5.23146 4.375-5.5625s5.23146 1.62156 5.5625 4.375c.31355 2.60795-1.39127 5.02493-3.96875 5.53125l.0312 2s.52086-.1059.62354-.13097c3.41561-.83385 5.70627-4.1273 5.28271-7.65028-.46006-3.8266-3.95466-6.55381-7.78125-6.09375z" fill="#444"/>
    <path d="m187.11293 536.81497v-.20574l-.19826.0186c.0165-.13095.0329-.26167.0496-.3926h-.11578l-.11556.14959-.11578.0559-.1653-.0932-.0165-.20575.0331-.22438.24798-.18688h.19826l.0329-.11229.24786.0559.18183.2246.0331-.37419.31401-.26167.11567-.28055.23133-.0934.1322-.18688.29738-.0564.14885-.22415c-.14874 0-.29749 0-.44623 0l.28094-.13095h.19814l.28106-.0937.0331-.11186-.0992-.0937-.11567-.0375.0331-.11208-.0826-.16822-.19837.0746.0331-.14947-.23134-.13096-.18171.3177.0165.11229-.18171.075-.11578.24302-.0495-.22438-.31402-.13095-.0496-.16822.41315-.24325.18182-.16822.0165-.20563-.0991-.0562-.13219-.0188-.0826.20575s-.1382.0271-.17373.0358c-.45378.41804-1.37066 1.32044-1.58368 3.02405.008.0395.15441.26854.15441.26854l.347.20552.347.0937m3.96609-4.30034-.4298-.16833-.49552.0561-.61161.16822-.11567.11229.38008.26167v.14959l-.14875.14959.19846.39294.13188-.075.16561-.26168c.2553-.0789.4842-.16833.72686-.28053l.19846-.5048m2.52925.34192-.375.0937-.21875.15625v.125l-.375.25.0937.34375.21875-.15625.125.15625.15625.0937.0937-.28125-.0625-.15625.0625-.0937.21875-.1875h.0937l-.0937.21875v.1875c.0892-.0242.1588-.051.25-.0625l-.25.1875v.125l-.3125.21875-.28125-.0625v-.15625l-.125.0625.0625.15625h-.21875l-.125.21875-.15625.15625-.0937.0312v.1875l.0312.15625h-.0312v.53125l.0625-.0312.0937-.21875.1875-.125.0312-.0937.28125-.0625.15625.1875.1875.0937-.0937.1875.15625-.0312.0625-.21875-.1875-.21875h.0625l.21875.15625.0312.21875.15625.21875.0625-.3125.0937-.0312c.0959.0996.1692.23163.25.34375h.28125l.1875.125-.0937.0937-.15625.15625h-.25l-.34375-.0937h-.1875l-.125.15625-.34375-.375-.25-.0625-.375.0625-.15625.0937v2.40625l.0312.0312.25-.15625.0937.0937h.28125l.125.15625-.0937.3125.1875.1875v.375l.125.25-.0937.25c-.009.16159 0 .30714 0 .46875.0795.21894.14355.43575.21875.65625l.0625.34375v.1875h.125l.21875-.125h.25l.375-.4375-.0312-.15625.25-.21875-.1875-.1875.21875-.1875.21875-.125.0937-.125-.0625-.25v-.59375l.1875-.375.1875-.25.25-.5625v-.15625c-.11654.0146-.22972.0231-.34375.0312-.0722.005-.14446 0-.21875 0-.12359-.25961-.2183-.50966-.3125-.78125l-.15625-.1875-.0937-.3125.0625-.0625.21875.25.25.5625.15625.15625-.0625.21875.15625.15625.25-.25.3125-.21875.15625-.1875v-.21875c-.0389-.0732-.0547-.14545-.0937-.21875l-.15625.1875-.125-.15625-.1875-.125v-.28125l.21875.21875.21875-.0312c.10166.0923.19205.20751.28125.3125l.15625-.1875c0-.17463-.19976-1.02044-.625-1.75-.42526-.72932-1.15625-1.40625-1.15625-1.40625l-.0625.0937-.21875.21875-.25-.25h.25l.125-.125-.46875-.0937-.25-.0937z" fill="#474747" opacity=".3"/>
  </g>
</svg>
