<svg height="16" width="16" xmlns="http://www.w3.org/2000/svg">
  <path d="m7.413449 15.937232c-3.266504-.307619-6.140245-2.64395-6.99750203-5.688923-.101796-.3615754-.258502-1.3942484-.284283-1.8733924-.0041-.07588-.0282-.06444-.07745.03673-.127119.261158-.01161-.842441.149736-1.430579.08283-.30194.138164-.561077.122963-.575859-.0152-.01478-.08254.06696-.149633.18165-.114665.195999-.119108.197492-.07397.02486.122528-.468559.578771-1.437546.893915-1.898528.22407903-.327775.34789403-.589061.34789403-.734157 0-.632373.384197-1.640129.815342-2.138649l.218938-.253155.05186.363353c.03401.238343.148506.502374.332775.76742l.280921.404065.831028.04424c.457066.02433.887156.06794.955756.0969.08371.03534.240582-.03334.477056-.208868.444793-.330163 1.070756-.514953 1.521641-.4492l.333446.04862-.364826.280431c-.378927.291271-.845502.916819-.845502 1.133582 0 .185951.222821.48148.445619.591025.108097.05315.408677.119184.667956.146744s.576369.08569.704644.129171c.201699.06838.226873.105138.18622.271935-.0881.361462-.316275.559969-1.066161.927534l-.749409.367332-.01441.469508c-.01764.574528-.09319.668582-.368126.458275-.261401-.199952-.421543-.197626-.61376.0089-.446585.479858-.171053 1.095455.761312 1.700935.346785.225201.864702.254271 1.450637.08142.203973-.06017.55103-.109762.771238-.1102.6249985-.0012 1.2239055.360292 1.2239055.738816 0 .2202044-.126517.3006254-.373953.2377014-.105962-.02694-.412374.08135-.8870265.313508-.665783.325638-.778472.357151-1.376574.38496-.358286.01666-.784909-.0056-.948052-.04936-.163143-.0438-.309057-.06755-.324255-.05277-.08147.07922.825979.825515 1.223239 1.006004 2.0021355.909632 4.45287-.142353 5.103459-2.1906754.183942-.579127.202117-1.526712.03929-2.048659-.06188-.198353-.112872-.386599-.113322-.418326-.0028-.19547.90512.5818 1.260282 1.078961.315675.441886.269823.246732-.07147-.304197-.281333-.454128-.656612-.823644-1.676423-1.650669-1.5234165-1.235431-2.0358425-2.493822-1.6381915-4.02299.212366-.81665.9089135-2.13378899 1.1278175-2.13264899.02905.000146.117965.1543.197591.34255.102083.241339.369364.555396.906372 1.06498699.418878.397491.782268.722712.807533.722712.02527 0 .09581-.173563.156775-.385697l.110838-.385698.119129.374127c.172371.541329.369528.886042.815489 1.425799.601689.728237 1.117464 1.497581 1.367921 2.040421.262167.568223.519564 1.425829.519564 1.731114 0 .150247.03036.20004.104993.172189.238782-.0891.264355.983251.04779 2.003956-.09883.465802-.26436.9259064-.502177 1.3958604-.268197.529987-.358947.79658-.371946 1.092658-.0244.555791-.450925 1.370176-.942886 1.800307-.20763.181533-.640547.480554-.962036.664493-.321492.183941-.788839.527744-1.03855.764008-.703677.665783-1.502877.971646-2.9174295 1.11653-.7822665.08013-.8204475.08006-1.7035615-.0032z" fill="#444"/>
</svg>
