<svg height="16" width="16" xmlns="http://www.w3.org/2000/svg"><path clip-rule="evenodd" d="m822 1290c96 0 184-32 228-87 108 109 209 139 296 139 140 0 184-89 184-148 0-74-47-126-118-126-77 0-39 176-148 176-89 0-163-235-200-440h192c22 0 26-16 26-33 0-46-21-85-59-85h-189s-86.882-411.191-151-668c-86.299-345.65-351-442-517-442-79 0-163 28-219 86-75-77-189-138-311-138-60 0-160 40-160 116 0 43 43 108 89 108 81 0 91-88 182-88 44 0 74.498 12.138 111 144 80 289 201 882 201 882h-143c-23 0-26 14-26 29 0 40 15 89 66 89h133c73 251 235 486 533 486zm-78-100c-141 0-205-234-236-386h334c24 92 64 186 107 263-48 76-131 123-205 123zm-300-1492c78 0 140 26 178 162 90 324 190 826 190 826h-330c-47.925-221.271-100.754-459.795-147.182-639-31.593-121.948-58.114-190.428-85.818-248 57-67 131-101 195-101z" fill="#444444" stroke-linejoin="round" stroke-miterlimit="1.41421" transform="matrix(.00862999 0 0 -.00862999 2.796117 11.692125)"/></svg>