<svg height="16" viewBox="0 0 16 16" width="16" xmlns="http://www.w3.org/2000/svg" xmlns:xlink="http://www.w3.org/1999/xlink">
  <path d="m3.696 0c-.8 0-1.461.662-1.461 1.461v13.674c0 .371.263.71.57.821.342.109.715.011.959-.251l4.611-5.478h2.511c.699-.008 1.299-.502 1.438-1.187l1.416-7.305c.171-.888-.534-1.735-1.439-1.735zm0 1.461h8.605l-.57 2.922h-4.771c-.187.004-.338.155-.342.342v.776c0 .183.159.343.342.343h4.497l-.571 2.922h-2.876c-.218-.006-.428.086-.571.251l-3.743 4.497z" fill="#474747"/>
</svg>
