<svg height="16" width="16" xmlns="http://www.w3.org/2000/svg">
  <g fill="#444">
    <path d="m1.0178982 1.5811135c-.3198121.3117554-.5178982.7432313-.5178982 1.2274955v10.423128c0 .475973.1875536.907342.49675949 1.216913l6.43673511-6.4443506z"/>
    <path d="m1.597561 14.981489c.3113872.320191.7423529.518511 1.2260448.518511h10.4108122c.475411 0 .906269-.187775 1.215475-.497347l-6.4367354-6.4443509z"/>
    <path d="m14.449893 1.0185107c-.311387-.32019035-.742353-.5185107-1.226045-.5185107h-10.4108118c-.4754111 0-.9062696.18777589-1.2154752.49734667l6.4367356 6.44434993z"/>
    <path d="m14.982102 14.44865c.319812-.311756.517898-.743232.517898-1.227495v-10.4231285c0-.4759735-.187553-.9073422-.496759-1.216913l-6.4367354 6.4443499z"/>
  </g>
</svg>
