<svg height="16" viewBox="0 0 16 16" width="16" xmlns="http://www.w3.org/2000/svg">
  <path d="m6.8495853 15.439433c-1.4710669-.229828-2.8646437-.921338-3.9951965-1.982456-.9696075-.910069-1.5854963-1.866769-2.02554286-3.1464-.30763219-.894581-.32884594-1.0439342-.32884594-2.3151748 0-1.27125.02121563-1.4206031.32884594-2.3151844.44258066-1.2870093 1.05510656-2.2355531 2.04139406-3.1612781.9008409-.8455125 2.1390244-1.53253122 3.3199613-1.84207502.9770474-.25611561 2.7493415-.23069999 3.7641018.054 2.6886059.75424692 4.7329109 2.85423752 5.3835869 5.53020002.216147.8889281.216147 2.5798219 0 3.4687406-.643463 2.6463087-2.713118 4.7873057-5.326194 5.5097717-.8692454.240337-2.3173088.331875-3.1621107.199893zm-1.945919-1.554619c-.094727-.8385.2150934-.920662 1.8437381-.488925.8861559.234909 1.2057281.267741 2.6712469.274463 1.4203157.0066 1.8019207-.02653 2.5997027-.22531.905613-.225619.950043-.250294 1.412065-.784237.73569-.85021.73482-.852141-.254036-.563616-.767352.223894-1.079695.258159-2.39573.262884-2.1816533.0075-3.2123689-.230981-6.2815771-1.455384-1.9595503-.781734-2.398034-.851775-2.8030228-.447703-.1362009.135891-.2472112.305756-.24669.377484.00422.576535 1.8005185 2.602435 2.8239469 3.184838.3051891.173672.5833622.3162.6181631.316725.0348.000497.040284-.202528.012197-.451219zm10.0585767-3.750384c.15851-.5694747.135504-.8304559-.07321-.8304559-.279495 0-1.549597-.6399-2.380684-1.1994469-1.00053-.6736125-1.786147-1.331175-3.2290468-2.7027187-2.7036291-2.5699032-3.7316091-3.0073313-5.9346169-2.5253625-.38751.08475-.5561831.1991812-.9190087.6233531-.2444128.2857406-.5835019.7460156-.7535316 1.0228312-.3043894.4955625-.765795 1.55625-.70385812 1.6180407.01744687.0174375.33919782-.2143688.71501252-.5150532 1.4529403-1.1624625 2.3521687-1.0697906 4.658234.4800469.4439119.2983406 1.5789132 1.0618875 2.5222266 1.6967625 2.303425 1.5502781 3.323568 2.0743681 4.893118 2.5137648.985244.275822 1.082057.261225 1.205364-.181762zm-.336955-3.6002715c.293428-.2927625.283177-.3594094-.21747-1.4137125-.905102-1.9060313-2.70145-3.3854625-4.7873886-3.9427875-.9484078-.25339692-2.8637194-.22752192-3.6824503.0497812l-.6053344.2049938 1.0633603.010125c2.5005356.023625 4.070121.9162375 5.753292 3.2718562.911279 1.2753469 1.027528 1.4155781 1.489213 1.7963531.416308.34335.660361.3491719.986778.023437z" fill="#444"/>
</svg>
