<svg xmlns="http://www.w3.org/2000/svg" width="16" height="16" version="1.1">
 <path fill="#444" d="m 0.9352628323,4.3475 c -0.5179729261,0 -0.9352628323,0.417002591 -0.9352628323,0.934975517 v 5.435552723 c 0,0.51797293 0.4172899062,0.93447176 0.9352628323,0.93447176 h 9.2520260677 c 0.51797292,0 0.93497551,-0.41649883 0.93497551,-0.93447175 v -5.435552733 c 0,-0.517972918 -0.41700259,-0.934975517 -0.93497551,-0.934975517 z m 14.2563616277,0.867471903 c -0.12537033,7.67581e-4 -0.24878541,0.03114664 -0.36018722,0.08866149 l -3.2144821,1.658372531 v 2.221070611 l 3.15403109,1.466944345 c 0.56227948,0.26150405 1.22650583,-0.18385352 1.22872642,-0.803964537 l -0.007616,-3.832627417 c 0.001502,-0.442385177 -0.35809221,-0.80107456 -0.80047219,-0.798457023 z m -11.908847665,0.621134057 h 4.642637064 c 1.165102941,0 2.115281371,0.950178421 2.115281371,2.115281358 0,1.165102933 -0.95017843,2.115281362 -2.115281371,2.115281362 -1.165102933,0 -2.114777605,-0.950178425 -2.114777601,-2.115281362 -4e-9,-0.633870094 0.282473772,-1.202626566 0.726419556,-1.590868904 h -1.865920972 c 0.444129703,0.388243845 0.72692332,0.956959342 0.72692332,1.590868904 0,1.165102937 -0.950178425,2.115281362 -2.115281367,2.115281362 -1.165102933,0 -2.114777597,-0.950178425 -2.114777597,-2.115281362 0,-1.165102937 0.949674664,-2.115281358 2.114777597,-2.115281358 z m 0,0.519878628 c -0.884003775,0 -1.594898969,0.711398951 -1.594898969,1.59540273 0,0.884003779 0.710895194,1.594898985 1.594898969,1.594898974 0.884003788,7e-9 1.595402736,-0.710895195 1.595402736,-1.594898974 0,-0.852893726 -0.662686188,-1.543203417 -1.503214952,-1.590868904 h -0.0921878 z m 4.642637064,0 v 0.0045338 h -0.0921878 c -0.840495754,0.04766549 -1.502711197,0.737975177 -1.502711193,1.590868907 -4e-9,0.884003775 0.710895202,1.594898978 1.594898973,1.59489897 0.884003787,8e-9 1.595402726,-0.710895195 1.595402726,-1.59489897 0,-0.88400379 -0.711398939,-1.59540273 -1.595402706,-1.595402707 z"/>
</svg>
