<svg height="16" width="16" xmlns="http://www.w3.org/2000/svg">
  <path d="m1 2v13h1v-1h1v1h1 9 1v-1h1v1h1v-13h-1v1h-1v-1h-10-1v1h-1v-1zm1 2h1v1h-1zm12 0h1v1h-1zm-4.9003906.5c.51302 0 1.0024436.0481246 1.4707026.1445312.4717.0964067.917372.2403142 1.333985.4296876v1.5957031c-.430387-.2444534-.86017-.4283148-1.287109-.5488281-.423501-.1205067-.8484511-.1796876-1.2753911-.1796876-.7919067 0-1.4035977.2218557-1.8339844.6660157-.4269467.4407133-.640625 1.0716312-.640625 1.8945312 0 .8160067.2079204 1.446465.6210937 1.8906249.4131667.444153.998839.666016 1.7597657.666016.20658 0 .3986187-.011023.5742187-.035156.1790404-.027534.3393024-.0699.4804684-.125v-1.4980474h-1.2148434v-1.3320312h3.0996094v3.7089846c-.495807.241013-1.011242.420509-1.544922.541015-.533673.120507-1.0842303.181641-1.6523436.181641-1.2842667 0-2.3021411-.358059-3.0527344-1.074219-.7505867-.7196-1.125-1.6946479-1.125-2.9238279 0-1.2429533.3821244-2.2208737 1.1464844-2.9335937.7643666-.71272 1.8115983-1.0683594 3.140625-1.0683594zm-7.0996094 1.5h1v1h-1zm12 0h1v1h-1zm-12 2h1v.1660156.6679688.1660156h-1zm12 0h1v1h-1zm-12 2h1v1h-1zm12 0h1v1h-1zm-12 2h1v1h-1zm12 0h1v1h-1z" fill="#444"/>
</svg>
