<svg xmlns="http://www.w3.org/2000/svg" width="16" height="16" version="1.1" viewBox="0 0 16 16">
 <path fill="#444" d="m 4.0805977,1.2818936 c -4.62895899,2.0514774 -5.52319,7.4168563 -1.630656,9.9417434 1.735857,1.157234 1.735857,1.735871 0.05261,2.156666 C -0.81135729,14.22197 2.7129687,15.8 7.9205372,15.8 c 3.6821248,0 6.7330298,-0.841628 7.1538448,-1.94625 0.157803,-0.368144 0,-0.683826 -0.36822,-0.683826 -1.841064,-0.05254 -1.998871,-0.946856 -0.420814,-2.524886 C 17.441454,7.5415151 16.07381,2.8073483 11.550052,1.1240906 9.5511847,0.33507536 6.0268667,0.44030256 4.0806007,1.2817046 Z M 13.338511,2.9651891 C 16.389416,4.4906059 16.073806,9.3825759 12.917696,10.592424 9.7615902,11.802273 7.7101204,10.119015 7.973128,6.5946969 L 8.0783174,5.0166287 6.5002647,6.8576894 C 5.0800147,8.5935609 4.9222117,8.6461739 3.6071657,7.9623489 1.7661017,6.9629166 1.8713057,6.0160605 4.0805827,3.9120074 6.6054647,1.5449239 9.9193781,1.1767042 13.338496,2.9651891 Z m 0.05261,11.4671599 c -1.367647,0.789015 -8.8371023,1.104659 -9.2579163,0.368144 -0.262993,-0.420796 0.631223,-0.578599 2.9457005,-0.578599 1.9988675,-0.05254 3.6821248,-0.315606 4.3133488,-0.789053 0.736424,-0.578598 1.157239,-0.578598 1.946265,-0.105076 0.894231,0.578599 0.894231,0.631212 0.05261,1.104622 z"/>
</svg>
