<svg height="16" width="16" xmlns="http://www.w3.org/2000/svg">
  <g fill="#444" transform="translate(-61 -467)">
    <path d="m65.469 468c-.82099 0-1.4688.64776-1.4688 1.4688v11.062c0 .82099.64776 1.4688 1.4688 1.4688h7.0625c.82099 0 1.4688-.64776 1.4688-1.4688v-11.062c0-.82099-.64776-1.4688-1.4688-1.4688zm-.46875 1h8v5h-8zm4 6c1.6568 0 3 1.3432 3 3s-1.3432 3-3 3-3-1.3432-3-3 1.3432-3 3-3z"/>
    <path d="m-170 261a1 1 0 1 1 -2 0 1 1 0 1 1 2 0z" transform="matrix(1.5 0 0 1.5 325.5 86.5)"/>
  </g>
</svg>
