<svg height="16" viewBox="0 0 16 16" width="16" xmlns="http://www.w3.org/2000/svg">
  <path d="m7.6651246 15.465612c-.4765231-.09302-.9931536-.493077-1.2929069-1.001164-.172599-.29256-.3763378-.890157-.4146926-1.216358-.014306-.121664-.031673-.221207-.038606-.221207-.0069 0-.1261278.07891-.2648899.175356-1.1824935.821888-2.460077.783008-3.1200335-.09495-.52032-.692195-.4201278-1.79051.2523298-2.766073l.1813147-.263039-.2804434-.04807c-1.90276472-.3261535-2.77245047-1.8838233-1.76136155-3.1547257.32184745-.40455 1.08827265-.800737 1.74708475-.903118l.2980176-.04631-.1972232-.289288c-.3900964-.572194-.5682297-1.099878-.5670002-1.679619.0017-.803872.4480703-1.441571 1.1636987-1.662515.316168-.09761.8511881-.105606 1.1916622-.0178.3154057.08134.8129634.316261 1.1153478.52661l.2436362.169483.046439-.275505c.1562663-.927041.6399253-1.6933031 1.2620352-1.99944008.7262637-.357392 1.4201802-.229242 2.0195898.37297108.4080758.409985.6572504.925312.7803559 1.613883l.05166.288956.184074-.133961c.277835-.202197.598768-.372595.92876-.493124.26461-.09665.353472-.108594.817652-.109929.503753-.0015.529585.0027.790116.126041.371203.175774.641009.439161.819348.799855.12984.262608.147254.335575.163327.684365.01272.275958-.0013.472591-.04751.67072-.07718.330278-.356493.92339-.559881 1.18889-.07913.103293-.143868.197895-.143868.210229 0 .01233.04276.02242.09501.02242.212584 0 .884988.205716 1.195872.365866.406567.209441.841577.625776 1.000919.957952.568813 1.1857941-.294829 2.4217781-1.921792 2.7503317l-.366989.07411.164125.23838c.926575 1.345786.752893 2.770431-.404099 3.314681-.219025.103028-.316655.123455-.660989.138305-.615123.02652-1.103955-.122979-1.724837-.527524-.278806-.18166-.341659-.208989-.341659-.148559 0 .188674-.2154623.898395-.3646428 1.201113-.1232097.250017-.2386331.409084-.4512796.621912-.4799024.480313-.9951694.655518-1.5876741.539854zm.7131183-.90059c.5644672-.28117.8906514-1.083145.8861876-2.178835-.0011-.275298-.016867-.716776-.034994-.981063s-.029252-.484767-.02472-.489955c.0045-.0052.2413453.25357.5262555.575018.284911.321448.662236.700608.838499.842577.589293.474638 1.205866.700593 1.671085.612403.507824-.09627.739793-.437329.703774-1.034747-.02116-.350956-.134365-.663714-.371437-1.026197-.158549-.24242-.773738-.882273-1.362464-1.4170873-.176264-.1601226-.287797-.2807427-.247852-.2680453.03995.012698.481606.034869.981469.04927.998857.028777 1.326842-.00868 1.825519-.2084599.757065-.3033007 1.089457-.9318533.775486-1.4664407-.197338-.3359975-.584473-.5853575-1.151355-.7416065-.223721-.06166-.415444-.07103-1.361449-.0665l-1.10106.0053.319891-.284796c1.286235-1.145124 1.698976-1.753189 1.701113-2.506139.001-.365996-.09884-.598977-.32788-.764824-.350536-.253823-.8473-.239828-1.42633.04018-.443265.214355-.844886.557175-1.4529778 1.240246-.2937089.329924-.5367248.596059-.5400342.591411-.0033-.0046.010865-.269734.031493-.589081.04753-.735518.016157-1.587738-.069999-1.902064-.1561791-.569754-.4375758-.983062-.7882231-1.157726-.3766089-.187595-.6985543-.120757-1.0362833.215139-.4997185.497006-.6688061 1.226141-.5923076 2.554135.021879.379801.034004.728898.026951.77577-.010404.06915-.090967-.0024-.4272108-.379596-.7896907-.885804-1.2694071-1.271521-1.8326678-1.47356-.3120313-.111925-.7796117-.120083-.9777742-.01706-.5597032.290987-.6644243.914358-.2831145 1.685287.2653752.536534.7307366 1.047719 1.6997353 1.867106l.1244021.105195-1.1210361-.0051c-.9781214-.0044-1.1542308.0043-1.3814253.06867-.9607152.272124-1.4468052.9128337-1.1581854 1.5265922.162943.3465041.6020616.6466363 1.1782157.8052961.3011928.082942 1.2479843.1150063 1.9629364.066478.2864289-.019442.5251651-.032646.5305243-.029343.0054.0033-.2506351.2358956-.568877.516873-.7593144.6704014-1.04276 1.0045534-1.2850857 1.5149804-.1625839.34246-.2363822.69494-.1984446.947822.1339791.893064 1.1222997 1.040206 2.1618533.321859.2797101-.193283.4723563-.383228 1.4195019-1.399599l.1679231-.180196-.030403.600652c-.062926 1.243028-.0049 1.79554.2445256 2.327682.1675019.357379.3845722.600917.6431025.721513.2622849.122348.474069.119625.7331486-.0094zm-.7728019-4.6685442c-.8644126-.1647718-1.5427146-.9966466-1.5427146-1.8919976 0-.7295089.4315565-1.4196799 1.0894922-1.7423809 1.6382669-.803529 3.3840074.953906 2.574305 2.5915525-.388836.786434-1.2486017 1.2091352-2.1210826 1.042826zm.7206725-.4141188c.556745-.090677 1.0799872-.6555984 1.1808187-1.2748773.157913-.9698564-.7675727-1.8819454-1.7364813-1.7113454-.6676547.117556-1.1492658.600812-1.2756227 1.279978-.0852651.4582935.0570434.8905478.4192104 1.2733264.230922.2440658.5353782.4082808.8403347.4532543.2106596.031067.2688386.028998.5717402-.020336z" fill="#444"/>
</svg>
