<svg height="16" width="16" xmlns="http://www.w3.org/2000/svg">
  <g fill="#444" transform="matrix(.37795276 0 0 .37795276 -4.531915 -90.528089)">
    <path d="m20.696894 247.3896c-.174428-.0107-.342857.0429-.481714.18268l-3.009232 3.00921c-.277607.2775-.277607.72456 0 1.00216l3.108891 4.88342c-.24884.50196-.464304 1.01994-.645033 1.5503l-5.647497 1.25406c-.392625.00005-.708702.31607-.708702.7088v4.25223c0 .39268.325447.62352.708702.7087l5.650267 1.25684c.175018.525.384 1.03843.625656 1.53643l-3.11443 4.8945c-.210804.33107-.277608.72456 0 1.00216l3.006462 3.00922c.277607.2775.724527.2775 1.002155 0l4.894497-3.11716c.506304.25232 1.028851.47035 1.564137.6533l1.254075 5.6475c0 .39268.316072.7087.708708.7087h4.252234c.392625 0 .623534-.32518.708707-.7087l1.256846-5.65023c.532982-.17786 1.053654-.39054 1.558597-.63675l4.87235 3.10334c.277607.2775.724527.2775 1.002156 0l3.009232-3.00922c.277607-.2775.210803-.67093 0-1.00216l-1.328824-2.08736-.991083.3959-3.175335-4.76165c-1.600228 3.55827-5.137251 5.8484-9.038763 5.85236-5.479701 0-9.921878-4.44214-9.921878-9.92186.0044-3.82816 2.210846-7.31229 5.669644-8.95297v-3.05073c-.476947.16339-.943752.35464-1.398033.57305l-4.87235-3.10334c-.165643-.10553-.346018-.17464-.520447-.18268z"/>
    <path d="m35.992203 240.84515-7.087059.65609v27.69215l7.087059-1.41744v-11.33926l8.504468 12.7567 7.087059-2.83484-9.213176-11.92618 9.21871-12.16983-7.422031-1.41739-8.17503 12.04801z"/>
  </g>
</svg>
