<svg fill="none" height="16" viewBox="0 0 16 16" width="16" xmlns="http://www.w3.org/2000/svg">
  <path clip-rule="evenodd" d="m1.50909 1c-.28116 0-.50909.22793-.50909.50909v12.98181c0 .2812.22793.5091.50909.5091h12.98181c.2812 0 .5091-.2279.5091-.5091v-12.98181c0-.28116-.2279-.50909-.5091-.50909zm2.33864 2.57444c.11686-.04691.24188-.0701.36778-.06822h5.30835s.72654-.01338 1.50274.31027c.7763.32365 1.7218 1.2085 1.7218 2.53719 0 1.32868-.9455 2.21353-1.7218 2.53718-.7762.32365-1.50274.31027-1.50274.31027h-4.35874v2.84407c.00098.1254-.02287.2498-.07015.3659-.04729.1162-.11709.2219-.20538.3109-.08828.089-.1933.1597-.30901.2079s-.23981.0731-.36515.0731-.24945-.0249-.36515-.0731c-.11571-.0482-.22073-.1189-.30902-.2079-.08828-.089-.15808-.1947-.20537-.3109-.04729-.1161-.07113-.2405-.07015-.3659v-3.79436c.00002-.25204.1001-.49376.27822-.67197.17811-.17821.41967-.27832.67155-.27831h5.30835s.41092-.01347.77214-.1641c.01-.00415.0198-.00822.0295-.01225.3422-.14227.5237-.21772.5237-.77053 0-.55282-.1815-.62826-.5237-.77054-.0097-.00402-.0195-.0081-.0295-.01224-.36122-.15063-.77214-.1641-.77214-.1641h-5.30835c-.1259.00188-.25092-.02131-.36778-.06822-.11687-.04691-.22324-.11661-.31294-.20504s-.16093-.19382-.20955-.31005c-.04861-.11623-.07365-.24098-.07365-.36698s.02504-.25075.07365-.36698c.04862-.11623.11985-.22162.20955-.31005s.19607-.15813.31294-.20504z" fill="#444" fill-rule="evenodd"/>
</svg>
