<svg fill="none" height="16" viewBox="0 0 16 16" width="16" xmlns="http://www.w3.org/2000/svg">
  <g fill="#444">
    <path d="m13.9231 1.53847h-11.84618c-.59477 0-1.07692.48215-1.07692 1.07692v10.76921c0 .5948.48215 1.0769 1.07692 1.0769h11.84618c.5947 0 1.0769-.4821 1.0769-1.0769v-10.76921c0-.59477-.4822-1.07692-1.0769-1.07692z" opacity=".2"/>
    <path d="m6.83506 3.1664h-3.77477c-.18952 0-.34316.15364-.34316.34316v3.34582c0 .18952.15364.34316.34316.34316h3.77477c.18953 0 .34316-.15364.34316-.34316v-3.34582c0-.18952-.15363-.34316-.34316-.34316z" opacity=".9"/>
    <path d="m12.9397 3.1664h-3.77476c-.18952 0-.34316.15364-.34316.34316v3.34582c0 .18952.15364.34316.34316.34316h3.77476c.1895 0 .3432-.15364.3432-.34316v-3.34582c0-.18952-.1537-.34316-.3432-.34316z" opacity=".7"/>
    <path d="m6.83506 8.80147h-3.77477c-.18952 0-.34316.15364-.34316.34316v3.34577c0 .1896.15364.3432.34316.3432h3.77477c.18953 0 .34316-.1536.34316-.3432v-3.34577c0-.18952-.15363-.34316-.34316-.34316z" opacity=".5"/>
    <path d="m12.9397 8.80147h-3.77476c-.18952 0-.34316.15364-.34316.34316v3.34577c0 .1896.15364.3432.34316.3432h3.77476c.1895 0 .3432-.1536.3432-.3432v-3.34577c0-.18952-.1537-.34316-.3432-.34316z" opacity=".3"/>
  </g>
</svg>
