<svg height="16" viewBox="0 0 4.2333332 4.2333335" width="16" xmlns="http://www.w3.org/2000/svg">
  <path d="m125.39574 22.322967a4.4099028 4.734888 41.354971 0 0 -3.28045-.708563l-20.73419 3.398499.83181 9.067589 20.73418-3.398497a4.4099028 4.734888 41.354971 0 0 2.44891-8.359073zm-25.31424 2.896877-40.903272 6.705118-11.817721-7.912678-10.367097 1.699194.892302 9.687445-1.28742.216.831485 9.067648 1.287421-.216.903146 9.738041 10.367096-1.699194 10.060243-11.527246 40.877517-6.681638zm-73.901034 2.264694-7.32743 1.186164.91525 9.93862-2.545173.858494-4.132359-1.957672 1.202805 12.961779 3.647708-3.233902 2.628886.01248.915247 9.938628 7.315233-1.195253 6.845773-11.016103.495987-.07923-.06072-.619821-.184983-1.96784-.526411-5.81861-.0122-.0091-.05937-.661375-.527157.0774z" fill="#474747" transform="matrix(.03907759959 -.02847794028 .02135701824 .02930622788 -1.31265999504 2.92311777464)"/>
</svg>
