<svg height="16" width="16" xmlns="http://www.w3.org/2000/svg">
  <g fill="#474747" transform="translate(-581.00019 -461)">
    <path d="m588.89213 461.00274c-2.10985.0296-4.94513.80221-4.89737 3.28068.0499 2.58608 2.91741 1.66126 3.15054 2.71829.0353-.045.0883-.0821.12477-.12498.19744-.2135.39517-.38769.59267-.59365.31248-.35256.63627-.67899.967-1.03107 1.10674-1.17814 1.15415-1.24979 3.79604-3.24945-1.03459-.62096-2.25793-.96565-3.29695-.99982-.1332-.005-.29604-.002-.4367 0zm-1.9028 1.53098c.82692 0 1.49728.67146 1.49728 1.49975s-.67036 1.49974-1.49728 1.49974c-.82693 0-1.49728-.67145-1.49728-1.49974s.67035-1.49975 1.49728-1.49975zm7.26873.66156c-1.41828 2.23337-2.36679 3.55601-3.36956 4.58755-.63925.65758-1.1631 1.31156-1.62205 1.78094-.83899.89023-1.93776 1.94077-3.15054 3.09322.0633 1.46884.81094 2.74635 3.24412 3.2182 3.89808.75593 8.02683-1.82423 7.61118-7.06129-.17842-2.24796-1.4052-4.28134-2.71315-5.61862zm.34245 3.80643c.5488 0 .99819.44764.99819.99983 0 .55218-.44939.99983-.99819.99983-.54879 0-.99818-.44765-.99818-.99983 0-.55219.44939-.99983.99818-.99983zm-.62386 2.99949c.54879 0 .99818.44764.99818.99983 0 .55218-.44939.99982-.99818.99982-.5488 0-.99819-.44764-.99819-.99982 0-.55219.44939-.99983.99819-.99983zm-4.99094 1.99965c.54879 0 .99818.44765.99818.99983 0 .55219-.44939.99983-.99818.99983-.5488 0-.99819-.44764-.99819-.99983 0-.55218.44939-.99983.99819-.99983zm2.99456 0c.5488 0 .99819.44765.99819.99983 0 .55219-.44939.99983-.99819.99983s-.99819-.44764-.99819-.99983c0-.55218.44939-.99983.99819-.99983z"/>
    <path d="m581.00019 474.49915c1.55209.0006 1.39367-1.78749 2.14726-2.28535.87328-.57692 1.63857.13795 1.79136.72627.19279.74234-.11685 1.63129-1.12998 1.8846-1.07336.26836-2.66168.27633-2.80864-.32552z"/>
    <path d="m595.03722 461.00274c-1.79965 1.2988-4.20634 3.30184-6.11488 5.3335-.17324.18442-.34065.36235-.50432.54703-.10346.10788-.21177.19588-.3152.30771-.0653.0767-.12585.16279-.18912.23932-1.87306 2.07016-3.71972 4.68066-4.91712 6.6327 2.97729-2.29737 4.91603-4.16475 6.1464-5.47026.2404-.24587.52929-.56636.85103-.92311 1.20361-1.33456 2.92519-3.43748 5.04321-6.66689z"/>
  </g>
</svg>
