<svg xmlns="http://www.w3.org/2000/svg" width="16" height="16" version="1.1" viewBox="0 0 16 16">
 <g style="fill:#444444;enable-background:new" transform="matrix(0.10775563,0,0,0.10775563,-60.197251,-11.936275)">
  <path fill="#444" d="m 574.66893,120.97637 c -6.00499,0.17367 -11.78091,2.5369 -16.02294,6.77894 l 44.37123,44.37123 a 16.0016,16.0016 0 0 0 4.80325,10.45842 l 22.13124,22.13123 c -1.7715,4.52023 -2.82758,9.40651 -2.82758,14.55478 0,22.09138 17.91162,39.98486 40.00299,39.98486 h 40.00298 v -39.98486 c 0,-22.09138 -17.9116,-40.00298 -40.00298,-40.00298 -5.14382,0 -10.01965,1.05899 -14.53665,2.82758 L 630.4411,159.9462 a 16.0016,16.0016 0 0 0 -10.44029,-4.78513 l -27.89515,-27.89515 c -5.19113,-4.45235 -11.43174,-6.46322 -17.43673,-6.28955 z"/>
 </g>
</svg>
