<svg height="16" width="16" xmlns="http://www.w3.org/2000/svg">
  <g fill="#444" transform="translate(-461.0002 -195)">
    <path d="m464.50433 203.01365c-1.92115 0-3.50339 1.5501-3.50339 3.47125s1.58224 3.50339 3.50339 3.50339 3.50339-1.58224 3.50339-3.50339-1.58224-3.47125-3.50339-3.47125zm0 1.99275c.84027 0 1.51064.63823 1.51064 1.4785s-.67037 1.51063-1.51064 1.51063-1.51064-.67036-1.51064-1.51063.67037-1.4785 1.51064-1.4785z"/>
    <path d="m472.50433 203.01365c-1.92115 0-3.50339 1.5501-3.50339 3.47125s1.58224 3.50339 3.50339 3.50339 3.50339-1.58224 3.50339-3.50339-1.58224-3.47125-3.50339-3.47125zm0 1.99275c.84027 0 1.51064.63823 1.51064 1.4785s-.67037 1.51063-1.51064 1.51063-1.51064-.67036-1.51064-1.51063.67037-1.4785 1.51064-1.4785z"/>
    <path d="m466 197h2v9.516h-2z"/>
    <path d="m474 197h2v9.563h-2z"/>
    <path d="m466 197h10v2h-10z"/>
  </g>
</svg>
