<?xml version="1.0" encoding="UTF-8" standalone="no"?>
<!-- Created with Inkscape (http://www.inkscape.org/) -->

<svg
   xmlns:osb="http://www.openswatchbook.org/uri/2009/osb"
   xmlns:dc="http://purl.org/dc/elements/1.1/"
   xmlns:cc="http://creativecommons.org/ns#"
   xmlns:rdf="http://www.w3.org/1999/02/22-rdf-syntax-ns#"
   xmlns:svg="http://www.w3.org/2000/svg"
   xmlns="http://www.w3.org/2000/svg"
   xmlns:sodipodi="http://sodipodi.sourceforge.net/DTD/sodipodi-0.dtd"
   xmlns:inkscape="http://www.inkscape.org/namespaces/inkscape"
   sodipodi:docname="org.gnome.Nibbles-symbolic.svg"
   height="16"
   id="svg7384"
   version="1.1"
   inkscape:version="0.92.4 (5da689c313, 2019-01-14)"
   width="16.000002">
  <metadata
     id="metadata90">
    <rdf:RDF>
      <cc:Work
         rdf:about="">
        <dc:format>image/svg+xml</dc:format>
        <dc:type
           rdf:resource="http://purl.org/dc/dcmitype/StillImage" />
        <dc:title>Gnome Symbolic Icon Theme</dc:title>
      </cc:Work>
    </rdf:RDF>
  </metadata>
  <sodipodi:namedview
     inkscape:bbox-paths="true"
     bordercolor="#666666"
     borderopacity="1"
     inkscape:current-layer="layer9"
     inkscape:cx="8"
     inkscape:cy="8"
     gridtolerance="10"
     inkscape:guide-bbox="true"
     guidetolerance="10"
     id="namedview88"
     inkscape:object-nodes="false"
     inkscape:object-paths="false"
     objecttolerance="10"
     pagecolor="#ffffff"
     inkscape:pageopacity="1"
     inkscape:pageshadow="2"
     showborder="true"
     showgrid="false"
     showguides="true"
     inkscape:snap-bbox="true"
     inkscape:snap-bbox-midpoints="false"
     inkscape:snap-global="true"
     inkscape:snap-grids="true"
     inkscape:snap-nodes="true"
     inkscape:snap-others="false"
     inkscape:snap-to-guides="true"
     inkscape:window-height="1016"
     inkscape:window-maximized="1"
     inkscape:window-width="1920"
     inkscape:window-x="0"
     inkscape:window-y="27"
     inkscape:zoom="52.4375">
    <inkscape:grid
       empspacing="2"
       enabled="true"
       id="grid4866"
       originx="-61.999998"
       originy="-362"
       snapvisiblegridlinesonly="true"
       spacingx="1"
       spacingy="1"
       type="xygrid"
       visible="true" />
  </sodipodi:namedview>
  <title
     id="title9167">Gnome Symbolic Icon Theme</title>
  <defs
     id="defs7386">
    <linearGradient
       id="linearGradient7212"
       osb:paint="solid">
      <stop
         id="stop7214"
         offset="0"
         style="stop-color:#000000;stop-opacity:1;" />
    </linearGradient>
  </defs>
  <g
     inkscape:groupmode="layer"
     id="layer9"
     inkscape:label="apps"
     style="display:inline"
     transform="translate(-303.0002,145)">
    <path
       inkscape:connector-curvature="0"
       d="m 307.3752,-145 c -3.10783,0 -4.375,2.08343 -4.375,4.46875 0,5.78662 4.4701,11.53125 6.0625,11.53125 1.5924,0 3.9375,-3.96875 3.9375,-3.96875 0.77957,1.90227 2.63571,3.96875 3.84375,3.96875 1.53357,0 2.15625,-0.60233 2.15625,-1.5625 0,-0.96017 -2.33903,-1.02036 -2.71875,-2.4375 -0.37972,-1.41714 -1.24338,-4.9375 -2.84375,-4.9375 -1.60036,0 -3.4375,2.90625 -3.4375,2.90625 0,-2.18361 1.03125,-2.90213 1.03125,-5.4375 0,-2.53537 -0.54842,-4.53125 -3.65625,-4.53125 z m -1.875,3 c 0.38672,0 0.734,0.21081 1,0.53125 0.266,-0.32044 0.61328,-0.53125 1,-0.53125 0.82843,0 1.5,0.89543 1.5,2 0,1.10457 -0.67157,2 -1.5,2 -0.38672,0 -0.734,-0.21081 -1,-0.53125 -0.266,0.32044 -0.61328,0.53125 -1,0.53125 -0.82843,0 -1.5,-0.89543 -1.5,-2 0,-1.10457 0.67157,-2 1.5,-2 z m 0,2 c -0.27614,0 -0.5,0.22386 -0.5,0.5 0,0.27614 0.22386,0.5 0.5,0.5 0.27614,0 0.5,-0.22386 0.5,-0.5 0,-0.27614 -0.22386,-0.5 -0.5,-0.5 z m 2,0 c -0.27614,0 -0.5,0.22386 -0.5,0.5 0,0.27614 0.22386,0.5 0.5,0.5 0.27614,0 0.5,-0.22386 0.5,-0.5 0,-0.27614 -0.22386,-0.5 -0.5,-0.5 z m -2.5,3 3,0 c 0,0 -0.50747,0.96875 -1.5625,0.96875 -1.05503,0 -1.4375,-0.96875 -1.4375,-0.96875 z"
       id="path6042-8"
       inkscape:label="gnome-nibbles"
       style="fill:#444444;fill-opacity:1;stroke:none" />
  </g>
</svg>
