<svg height="16" width="16" xmlns="http://www.w3.org/2000/svg">
  <g fill="#474747" transform="translate(-43.0002 -175)">
    <path d="m45.812895 176a1.0000999 1.0000999 0 0 0 -.8125 1v13a1.0000999 1.0000999 0 0 0 1 1h10a1.0000999 1.0000999 0 0 0 1-1v-9.4375a1.0000999 1.0000999 0 0 0 -.28125-.71875l-3.5625-3.5625a1.0000999 1.0000999 0 0 0 -.71875-.28125h-6.4375a1.0000999 1.0000999 0 0 0 -.0937 0 1.0000999 1.0000999 0 0 0 -.0937 0zm1.1875 2h5v3h3v8h-8z"/>
    <path d="m50 176.5625v4.625l-.53125.53125-.53125-.46875v-2.3125h-1v2.5625.21875l.15625.15625 1.03125.90625.375.3125.3125-.34375 1.03125-1.03125.15625-.125v-.21875-4.8125z"/>
    <path d="m53 180.375v3.625h-6.4375v1h6.9375.5v-.5-4.125z"/>
  </g>
</svg>
