<?xml version="1.0" encoding="UTF-8" standalone="no"?>
<svg
   xmlns:dc="http://purl.org/dc/elements/1.1/"
   xmlns:cc="http://creativecommons.org/ns#"
   xmlns:rdf="http://www.w3.org/1999/02/22-rdf-syntax-ns#"
   xmlns:svg="http://www.w3.org/2000/svg"
   xmlns="http://www.w3.org/2000/svg"
   xmlns:sodipodi="http://sodipodi.sourceforge.net/DTD/sodipodi-0.dtd"
   xmlns:inkscape="http://www.inkscape.org/namespaces/inkscape"
   height="16"
   width="16"
   version="1.1"
   id="svg4"
   sodipodi:docname="PDF.svg"
   inkscape:version="0.92.4 (5da689c313, 2019-01-14)">
  <metadata
     id="metadata10">
    <rdf:RDF>
      <cc:Work
         rdf:about="">
        <dc:format>image/svg+xml</dc:format>
        <dc:type
           rdf:resource="http://purl.org/dc/dcmitype/StillImage" />
        <dc:title></dc:title>
      </cc:Work>
    </rdf:RDF>
  </metadata>
  <defs
     id="defs8" />
  <sodipodi:namedview
     pagecolor="#ffffff"
     bordercolor="#666666"
     borderopacity="1"
     objecttolerance="10"
     gridtolerance="10"
     guidetolerance="10"
     inkscape:pageopacity="0"
     inkscape:pageshadow="2"
     inkscape:window-width="1920"
     inkscape:window-height="1016"
     id="namedview6"
     showgrid="false"
     inkscape:zoom="41.7193"
     inkscape:cx="10.235151"
     inkscape:cy="10.66208"
     inkscape:window-x="0"
     inkscape:window-y="27"
     inkscape:window-maximized="1"
     inkscape:current-layer="svg4" />
  <path
     d="M 3.4414062 0.4921875 L 3.4414062 0.5 L 3.3007812 0.5 C 3.2695652 0.498536 3.2382473 0.498536 3.2070312 0.5 C 3.1758152 0.498536 3.1444973 0.498536 3.1132812 0.5 C 2.6351992 0.5912215 2.2922049 1.0133685 2.3007812 1.5 L 2.3007812 14.5 C 2.3008364 15.052262 2.7485189 15.499945 3.3007812 15.5 L 13.300781 15.5 C 13.853043 15.499945 14.300726 15.052262 14.300781 14.5 L 14.300781 8.9589844 L 12.324219 8.9589844 L 12.324219 9 L 4.3007812 9 L 4.3007812 2.2851562 L 9.2988281 2.2851562 L 11.960938 2.2851562 L 10.457031 0.78125 C 10.264732 0.59510451 10.005845 0.49380138 9.7382812 0.5 L 9.59375 0.5 L 9.59375 0.4921875 L 3.4414062 0.4921875 z M 3.8007812 10.337891 L 5.15625 10.337891 C 5.5596471 10.337891 5.8688393 10.427661 6.0839844 10.607422 C 6.3005449 10.785766 6.4101564 11.039884 6.4101562 11.371094 C 6.4101564 11.703719 6.3005449 11.958912 6.0839844 12.138672 C 5.8688393 12.317015 5.5596471 12.40625 5.15625 12.40625 L 4.6171875 12.40625 L 4.6171875 13.505859 L 3.8007812 13.505859 L 3.8007812 10.337891 z M 6.984375 10.337891 L 7.8476562 10.337891 C 8.3289019 10.337891 8.6869139 10.372051 8.921875 10.441406 C 9.1582515 10.509346 9.3608609 10.624873 9.5292969 10.789062 C 9.6779168 10.932021 9.7871881 11.096366 9.859375 11.283203 C 9.931562 11.47004 9.96875 11.681592 9.96875 11.917969 C 9.96875 12.157176 9.931562 12.372295 9.859375 12.560547 C 9.787188 12.747384 9.6779168 12.911726 9.5292969 13.054688 C 9.3594455 13.218875 9.1538076 13.334941 8.9160156 13.404297 C 8.6782237 13.472237 8.3232404 13.505859 7.8476562 13.505859 L 6.984375 13.505859 L 6.984375 10.337891 z M 10.59375 10.337891 L 12.800781 10.337891 L 12.800781 10.955078 L 11.412109 10.955078 L 11.412109 11.544922 L 12.716797 11.544922 L 12.716797 12.162109 L 11.412109 12.162109 L 11.412109 13.505859 L 10.59375 13.505859 L 10.59375 10.337891 z M 4.6171875 10.929688 L 4.6171875 11.814453 L 5.0703125 11.814453 C 5.2288404 11.814453 5.3511589 11.775653 5.4375 11.699219 C 5.523841 11.621369 5.5664062 11.512636 5.5664062 11.371094 C 5.5664062 11.229551 5.5238412 11.119402 5.4375 11.042969 C 5.351159 10.966539 5.2288404 10.929686 5.0703125 10.929688 L 4.6171875 10.929688 z M 7.8027344 10.955078 L 7.8027344 12.888672 L 8.0957031 12.888672 C 8.4297442 12.888672 8.6838619 12.806232 8.859375 12.640625 C 9.0363035 12.47502 9.125 12.233609 9.125 11.917969 C 9.125 11.603743 9.0368412 11.365361 8.8613281 11.201172 C 8.685815 11.036982 8.4311596 10.955078 8.0957031 10.955078 L 7.8027344 10.955078 z "
     id="path2"
     style="fill:#444444;fill-opacity:1" />
  <path
     id="path817"
     d="M 6.4489226,7.9494435 7.2205399,8.1293005 9.6921448,6.5921116 8.5512426,5.98217 6.6287796,7.1778258 Z m 0.182442,-3.6287363 4.9234464,2.6308953 c -0.04002,0.5371911 0.22967,1.076383 0.732049,1.344867 0.677836,0.362245 1.533913,0.102887 1.896158,-0.5749478 C 14.545266,7.0436912 14.285901,6.1876119 13.60807,5.8253638 13.10584,5.5569645 12.506533,5.6323326 12.082179,5.9638539 L 11.339572,5.5675114 11.96119,5.1809024 c 0.445141,0.3028014 1.04751,0.3381475 1.530954,0.037475 C 14.144775,4.8124803 14.347685,3.9419645 13.941788,3.2893335 13.535891,2.6367025 12.665375,2.4337927 12.012744,2.8396898 11.5293,3.1403628 11.29466,3.6962785 11.36943,4.2294279 L 10.19867,4.9575703 7.1587334,3.3329591 6.4005966,3.5622201 Z M 12.509416,7.4132497 C 12.370993,7.2441631 12.342454,7.0051933 12.453593,6.7972322 12.601774,6.5199579 12.933875,6.4188564 13.211151,6.5670424 13.48843,6.7152203 13.5901,7.0482558 13.441919,7.3255297 13.293737,7.602812 12.961062,7.7029687 12.683783,7.5547909 12.614464,7.5177439 12.555558,7.4696119 12.509417,7.4132497 Z M 12.276707,4.3249131 c -0.166039,-0.2669697 -0.08711,-0.6055786 0.179857,-0.7716176 0.26697,-0.166039 0.605579,-0.087112 0.771617,0.1798575 0.16604,0.2669696 0.08711,0.6055786 -0.179857,0.7716176 -0.266969,0.166039 -0.605578,0.087112 -0.771617,-0.1798575 z"
     inkscape:connector-curvature="0"
     style="fill:#444444;stroke-width:0.56024212" />
</svg>
