<svg height="16" width="16" xmlns="http://www.w3.org/2000/svg">
  <path d="m3.5839844 0c-1.4229725 0-2.5839844 1.1610115-2.5839844 2.5839844v8.8320316c-.00190323 1.421375 1.1626098 2.585888 2.5839844 2.583984h1.0820312l-.6660156 2h2l.6660156-2h3.1679688l.6660156 2h2l-.666016-2h.582032c1.422024.001906 2.586952-1.163677 2.583984-2.585938v-5.4960932-.5039063h-1.005859v.5039063 5.4980472a.50281277.50281277 0 0 0 0 .001953c.0018.877999-.698174 1.578005-1.576172 1.576172a.50281277.50281277 0 0 0 -.001953 0h-8.8320316a.50281277.50281277 0 0 0 -.0019532 0c-.8779976.0018-1.5780043-.698174-1.5761718-1.576172a.50281277.50281277 0 0 0 0-.001953v-8.8320316c0-.8835459.6945799-1.578125 1.578125-1.578125h5.4980468.5039063v-1.0058594h-.5039063zm10.3105466.53320312a1.761 1.761 0 0 0 -1.201172.43359376l-4.3593746 4.35937502a2.968 2.968 0 0 0 -1.3339844-.3261719 3 3 0 0 0 -3 3v3h3a3 3 0 0 0 3-3c0-.571-.1683125-1.0996875-.4453125-1.5546875l5.4453125-5.4453125a1.627 1.627 0 0 0 -1.105469-.46679688z" fill="#444"/>
</svg>
