<svg xmlns="http://www.w3.org/2000/svg" width="16" height="16" version="1.1">
 <path fill="#444" d="m 8.1078334,8.469e-5 c -0.9831726,0 -1.7781573,0.796557 -1.7778644,1.77787081 -2.153e-4,0.7404062 0.4653945,1.351797 1.1110422,1.6180554 V 4.0002294 H 4.7745086 c -0.118052,0 -0.22221,0.096708 -0.22221,0.2222123 v 0.6666154 c 0,0.1255692 0.09651,0.2222123 0.22221,0.2222123 h 2.6665026 v 8.2221146 c 0,0.228307 -0.3808366,0.233111 -0.5970634,0.256997 -0.3167984,-0.0019 -0.509404,-0.08292 -0.8125105,-0.166708 -0.6844966,-0.200092 -1.3379847,-0.477572 -1.9652917,-0.812495 -0.264113,-0.146462 -0.522058,-0.289025 -0.75706,-0.479016 -0.101295,-0.08637 -0.219059,-0.211292 -0.208298,-0.354178 0.01378,-0.108123 0.06856,-0.22329 0.187621,-0.243083 0.107326,-0.01723 0.203625,0.04049 0.298532,0.07625 0.0818,0.03532 0.138104,-0.06397 0.125009,-0.132031 -0.01314,-0.179204 -0.07396,-0.344835 -0.166751,-0.49989 -0.19307,-0.317585 -0.4902,-0.553926 -0.798599,-0.757056 -0.329258,-0.210215 -0.680225,-0.4414306 -0.888834,-0.7777322 -0.0415,-0.062246 -0.08749,-0.1649846 -0.18047,-0.1320307 -0.129253,0.042 -0.200653,0.1686461 -0.263946,0.2778677 -0.178101,0.3389292 -0.266928,0.7044372 -0.347226,1.0762552 -0.06602,0.295831 -0.0785099,0.608268 -0.05546,0.909699 0.02389,0.301603 0.04441,0.607363 0.1665569,0.889043 0.07694,0.185015 0.212369,0.334342 0.347224,0.479188 0.08605,-0.09089 0.175904,-0.188677 0.263949,-0.277846 0.114089,-0.114585 0.256571,-0.189108 0.423547,-0.166708 0.227261,0.02929 0.432577,0.167138 0.611174,0.298738 0.251563,0.19557 0.486631,0.400357 0.742945,0.590305 0.405582,0.309938 0.853018,0.536782 1.31258,0.756862 0.3828741,0.177692 0.7763237,0.35547 1.1736501,0.500058 0.071163,0.03102 0.1497785,0.02951 0.2222102,0.05557 0.7150963,0.297403 1.3174732,0.643526 1.8124486,1.263877 4.308e-4,0.0086 -4.307e-4,0.02671 0,0.03468 0.0056,-0.0065 0.015292,-0.01292 0.020892,-0.02154 0.0056,0.0065 0.015077,0.01292 0.020677,0.02154 0.00388,-0.01723 -0.010985,-0.04157 0,-0.05535 0.4874326,-0.617917 1.1018905,-0.947606 1.8126468,-1.2432 0.072434,-0.02585 0.1510498,-0.02434 0.2222088,-0.05557 0.397324,-0.144523 0.790577,-0.322258 1.17345,-0.500058 0.459564,-0.22008 0.906997,-0.446924 1.312582,-0.756862 0.256312,-0.189969 0.491387,-0.394692 0.742947,-0.590305 0.178597,-0.1316 0.383908,-0.269295 0.611171,-0.298523 0.166967,-0.02218 0.309463,0.05212 0.423548,0.166493 0.08805,0.08917 0.177886,0.186953 0.263947,0.277846 0.134874,-0.144954 0.270301,-0.294108 0.347226,-0.479188 0.122145,-0.281658 0.142886,-0.587246 0.166751,-0.888849 0.02307,-0.301431 0.01034,-0.613846 -0.05566,-0.909699 -0.08029,-0.371818 -0.16912,-0.73752 -0.347225,-1.0764492 -0.0633,-0.1092001 -0.134702,-0.2359539 -0.263946,-0.2778677 -0.09298,-0.033169 -0.138966,0.069785 -0.18047,0.1320307 -0.2086,0.3363231 -0.559565,0.5674522 -0.888835,0.7777322 -0.308396,0.203108 -0.605519,0.439471 -0.798598,0.757056 -0.09281,0.155077 -0.153591,0.320751 -0.166751,0.499886 -0.01314,0.06806 0.04318,0.167354 0.125009,0.132031 0.0949,-0.03575 0.191412,-0.09326 0.298728,-0.07625 0.119064,0.01938 0.173751,0.135046 0.187427,0.243083 0.01077,0.1428 -0.107003,0.267766 -0.208298,0.354178 -0.234998,0.189969 -0.492946,0.332791 -0.757058,0.479209 -0.627314,0.334924 -1.2808,0.612145 -1.965294,0.812302 -0.3031047,0.08378 -0.4957167,0.164769 -0.8125131,0.166708 -0.2721793,0.04846 -0.597059,-0.09929 -0.597059,-0.256997 V 5.1112694 h 2.6665011 c 0.102738,0 0.222408,-0.088954 0.222408,-0.2222123 V 4.2224417 c 0,-0.1292308 -0.104354,-0.2222123 -0.222408,-0.2222123 H 8.7744735 V 3.3960109 C 9.4201126,3.1297525 9.8857375,2.5183617 9.8855157,1.7779555 9.8857289,0.79664169 9.0910178,8.469e-5 8.1078473,8.469e-5 Z M 8.0730484,0.8682355 c 0.4772686,0 0.8681077,0.3776985 0.8679655,0.8540646 C 8.9411561,2.1986663 8.550317,2.5904509 8.0730484,2.5904509 7.5957776,2.5904509 7.1979816,2.1986663 7.198128,1.7223001 7.197982,1.245934 7.595778,0.8682355 8.0730484,0.8682355 Z"/>
</svg>
