<svg xmlns="http://www.w3.org/2000/svg" width="16" height="16" version="1.1" viewBox="0 0 16 16">
 <path fill="#444" d="M 8.949769,0.50044376 C 7.509517,0.52491251 6.962335,2.6601714 7.178277,4.8666715 6.0472139,2.3747121 3.9630989,0.55849376 2.6338239,2.8608058 2.1395519,3.7192183 2.111203,4.3367683 2.3059418,4.7865902 1.8194321,4.8428402 1.2986841,5.1770027 0.80300562,6.0336715 -0.37138748,8.0665465 2.067653,9.059734 4.6907175,8.9167371 2.3056845,10.066299 0.64969862,12.073663 2.8889519,13.366467 c 0.8584937,0.49425 1.4759361,0.522609 1.9255454,0.327881 0.056587,0.486497 0.390419,1.007315 1.2468314,1.50269 1.9878183,1.148297 2.9790733,-1.158543 2.8886843,-3.713643 1.199285,2.258362 3.213061,3.759637 4.36037,1.771003 0.493991,-0.857175 0.523097,-1.4754 0.328859,-1.925053 0.48674,-0.05616 1.007314,-0.389325 1.503668,-1.246583 C 16.434931,7.8449777 14.001022,6.9334746 11.362621,7.1288871 13.703457,5.9405683 15.315343,3.8621121 13.282795,2.6896652 12.425539,2.1956871 11.807423,2.1665777 11.357982,2.3607996 11.301732,1.8740777 10.968163,1.3534185 10.110907,0.85713439 9.673788,0.60475001 9.287299,0.49471564 8.949769,0.50044376 Z M 7.96954,8.0029183 c 0.0042,0.010312 0.0086,0.020625 0.01391,0.03075 -0.004,1.875e-4 -0.0082,5.625e-4 -0.01221,7.313e-4 -2.58e-4,-0.010406 -0.0014,-0.021094 -0.0017,-0.0315 z m 0.0029,0.054656 h 2.45e-4 c 0.0022,0.1004625 0.0081,0.2020125 0.01587,0.3042 -0.0079,-0.1021031 -0.01399,-0.203775 -0.01612,-0.3042 z m -0.0081,0.00375 C 7.88135,8.1067933 7.795789,8.1499183 7.708968,8.191693 7.795858,8.149881 7.881297,8.106756 7.96434,8.0613243 Z M 7.654567,8.2178215 c -0.08384,0.039281 -0.169192,0.076875 -0.256104,0.1127906 0.08681,-0.036 0.172357,-0.0735 0.256104,-0.1127906 z M 7.317652,8.3630777 c -0.06744,0.026813 -0.135588,0.052781 -0.204591,0.077625 0.06896,-0.024938 0.137191,-0.050719 0.204591,-0.077625 z m 0.674808,0.048844 c 0.0085,0.099656 0.01911,0.19995 0.03272,0.3007781 C 8.01148,8.6118154 8.00101,8.5116623 7.99246,8.4119217 Z m -1.012212,0.075469 c -0.05738,0.019406 -0.115328,0.038062 -0.173585,0.056156 0.05822,-0.018187 0.116244,-0.036656 0.173585,-0.056156 z m 1.05103,0.2661094 c 0.01182,0.083625 0.02586,0.1675594 0.04101,0.2517094 -0.01526,-0.084187 -0.02911,-0.1680469 -0.04101,-0.2517094 z m 0.05835,0.3459469 c 0.01673,0.086156 0.03515,0.1726125 0.05517,0.2590406 C 8.124648,9.2720496 8.106458,9.1856501 8.089628,9.099447 Z m 0.09107,0.4035656 c 0.01041,0.04125 0.02136,0.0825 0.03246,0.1237875 -0.01117,-0.04125 -0.022,-0.0825 -0.03246,-0.1237875 z"/>
</svg>
