<svg fill="none" height="16" viewBox="0 0 16 16" width="16" xmlns="http://www.w3.org/2000/svg">
  <g fill="#444">
    <path clip-rule="evenodd" d="m2.1375 4.01562v9.75318h11.6v-9.75318zm-.2-3.04687c-.55228 0-1 .44772-1 1v12.00005c0 .5522.44772 1 1 1h12c.5523 0 1-.4478 1-1v-12.00005c0-.55228-.4477-1-1-1zm11.0881 2.34375.3253-.32528.3151.31511.3095-.30953-.3151-.31511.3288-.32877-.3198-.31973-.3287.32877-.3288-.32874-.3095.30953.3287.32874-.3252.32528zm-4.62837-.43019h1.69867v.43019h-1.69867zm3.59297-.80961h-1.242v1.2398h1.242zm-.9273.92516v-.61052h.6127v.61052z" fill-rule="evenodd"/>
    <g opacity=".6">
      <path d="m7.40158 10.2981c-.0292-.0941-.06238-.1908-.09954-.2901-.03451-.09924-.06902-.19853-.10352-.29781h-1.07506c-.03451.09928-.07034.19857-.10751.29781-.0345.0993-.06636.196-.09556.2901h-.64503c.10352-.2927.20174-.56309.29465-.8113.0929-.24822.18315-.48206.27075-.70153.09025-.21948.17785-.42719.26279-.62315.0876-.19857.17785-.39192.27076-.58004h.59327c.09025.18812.17917.38147.26677.58004.0876.19596.1752.40367.26279.62315.09025.21947.18183.45331.27474.70153.0929.24821.19112.5186.29464.8113zm-.74457-2.10071c-.01328.03919-.03318.09275-.05973.16069-.02654.06793-.05707.14631-.09158.23515-.03451.08883-.073.18681-.11547.29393-.03981.10713-.08096.21948-.12343.33705h.78439c-.04247-.11757-.08361-.22992-.12343-.33705-.03982-.10712-.07831-.2051-.11547-.29393-.03451-.08884-.06503-.16722-.09158-.23515-.02654-.06794-.04778-.1215-.0637-.16069z"/>
      <path d="m9.04484 9.80033c.0292.00261.06238.00523.09954.00784h.13936c.31057 0 .54018-.07708.68883-.23123.15133-.15416.22693-.3671.22693-.63883 0-.28479-.0716-.50034-.21498-.64666-.14335-.14632-.3703-.21947-.68087-.21947-.04247 0-.08627.0013-.1314.00392-.04513 0-.0876.00261-.12741.00783zm1.79576-.86222c0 .23515-.0372.44026-.1115.61531-.0743.17506-.1805.32007-.3185.43503-.1354.11495-.3013.20115-.49776.25865-.19643.0575-.41675.0862-.66096.0862-.11148 0-.24155-.0052-.3902-.0156-.14865-.0079-.29465-.0262-.43799-.0549v-2.64545c.14334-.02612.29199-.04311.44595-.05095.15662-.01045.29067-.01567.40215-.01567.23625 0 .44993.02613.64105.07838.19376.05226.35966.13456.49776.24691.138.11235.2442.25605.3185.43111.0743.17505.1115.38538.1115.63098z"/>
    </g>
    <path clip-rule="evenodd" d="m11.1884 9c0 1.7609-1.42749 3.1884-3.1884 3.1884-.73297 0-1.40818-.2473-1.94671-.6631l4.49321-4.44432c.4029.53391.6419 1.19856.6419 1.91902zm-5.70961 1.952 4.50065-4.45171c-.54378-.43119-1.23154-.6887-1.97944-.6887-1.76091 0-3.18841 1.4275-3.18841 3.18841 0 .73538.24897 1.4126.6672 1.952zm6.52121-1.952c0 2.2091-1.7909 4-4 4-2.20914 0-4-1.7909-4-4 0-2.20914 1.79086-4 4-4 2.2091 0 4 1.79086 4 4z" fill-rule="evenodd"/>
  </g>
</svg>
