<svg fill="none" height="16" viewBox="0 0 16 16" width="16" xmlns="http://www.w3.org/2000/svg">
  <g clip-rule="evenodd" fill="#444" fill-rule="evenodd">
    <path d="m2.1375 13.7688v-9.75318h11.6v5.04688h1.2v-7.09375c0-.55228-.4477-1-1-1h-12c-.55228 0-1 .44772-1 1v12.00005c0 .5522.44772 1 1 1h7.125v-1.2zm9.316-4.7063-.3011-.8795c-.0267-.08-.0439-.13714-.0515-.17143l-.0171.06286c-.0114.04571-.0229.08191-.0343.10857l-.3011.8795h-.914l.8494-2.3595h.8286l.846 2.3595zm-1.94915.00852c-.25098.04714-.44185.28423-.44185.5696v.78318l-.76727-2.2408c-.02666-.08-.04381-.13714-.05142-.17143l-.01715.06286c-.01143.04571-.02285.08191-.03429.10857l-.86285 2.52h-.94286l1.44-4h.82857zm3.84655-6.0838-.3253.32528-.3197-.31973.3252-.32528-.3287-.32874.3095-.30953.3288.32874.3287-.32877.3198.31973-.3288.32877.3151.31511-.3095.30953zm-3.255-.10491h-1.69867v.43019h1.69867zm.6523-.80961h1.242v1.2398h-1.242zm.3147.31464v.61052h.6127v-.61052zm-6.56957 8.31566-1.43999-4.00001h.94286l.86285 2.51999c.01143.02667.02286.06286.03428.10858l.01715.06285c.00762-.03428.02476-.09143.05143-.17143l.86286-2.51999h.93142l-1.43428 4.00001z"/>
    <path d="m10.4615 10h5.077c.2548 0 .4615.2239.4615.5v5c0 .2761-.2067.5-.4615.5h-5.077c-.2549 0-.4615-.2239-.4615-.5v-5c0-.2761.2066-.5.4615-.5zm1.7885 3.9c0-.0828-.0672-.15-.15-.15h-1.2c-.0828 0-.15-.0672-.15-.15v-1.2c0-.0828.0672-.15.15-.15h1.2c.0828 0 .15-.0672.15-.15v-1.2c0-.0828.0672-.15.15-.15h1.2c.0828 0 .15.0672.15.15v1.2c0 .0828.0672.15.15.15h1.2c.0828 0 .15.0672.15.15v1.2c0 .0828-.0672.15-.15.15h-1.2c-.0828 0-.15.0672-.15.15v1.2c0 .0828-.0672.15-.15.15h-1.2c-.0828 0-.15-.0672-.15-.15z"/>
  </g>
</svg>
