<svg height="16" width="16" xmlns="http://www.w3.org/2000/svg">
  <path d="m12.182968 1.6315096c-.545281 0-1.271368 1.45306-2.089291 2.36205-.8179221.90898-1.5453381.90958-2.0906197 1.18222-.5452819.27264-.9091533.81745-1.4549805 1.18116-.545827.3637-1.2709035.5459-2.7262607.63697-1.4553572.0911-1.9991693.0904-1.9991693.0904 0 .18158.0000586.36315-.034294.53383-.03027.17567-.1133084.33803-.2381989.46523-.2142958.21484-.6533708.35445-1.0726925.50059.04477.17693.081964.34406.1225554.50457.11415.45142.2562265.8504304.6773782 1.2675604 1.0905636 1.09057 2.1659471.9122 3.2717786 1.09051 1.1058316.17831 2.181215 0 3.2717788 0 1.0905635 0 1.0904445-.00006 2.1810076 1.0905l.962898.9629c1.040304-.31252 2.009844-.82472 2.854132-1.50815.91078-.74521 1.653902-1.67438 2.181009-2.7265304 0 0-2.726261-1.09044-2.726261-2.18101 0-1.09056-.545488-5.45278-1.09077-5.45278zm-.360488 1.53872c.03029-.002.05964-.00008.08799.006.45422.0911.635646 1.18111.454067 1.90852-.181034.7274-.725037 1.09038-1.180892.99931-.455856-.0911-.818017-.63506-.636438-1.36246.170741-.68194.82087-1.52307 1.275268-1.55095zm-3.4788727 2.34636c.1590856-.00006.2954866.0679.3862756.20391.181579.27209.181598.81624-.182105 1.08997-.3642485.27373-1.0899674.27372-1.2715463.00053l-.0007974.00054c-.1815788-.27319.1823603-.81841.545518-1.09051.1818514-.13632.3635691-.20437.5226551-.20444zm-6.7078509 1.40155s-1.6357564-.00003-1.6357564.54525c0 0-.0000645.54543.2905708.95439.4193217-.14613.8583966-.28575 1.0726925-.50059.1363204-.13632.2043779-.2951.2387305-.46523.033807-.17067.033763-.35224.033763-.53382z" fill="#474747" stroke-width=".545282"/>
</svg>
