<svg xmlns="http://www.w3.org/2000/svg" width="16" height="16" version="1.1">
 <defs>
  <style id="current-color-scheme" type="text/css">
   .ColorScheme-Text { color: #474747; } .ColorScheme-Highlight { color: #5294e2; }
  </style>
 </defs>
 <path fill="currentColor" class="ColorScheme-Text" d="M 4.786246,0.67277918 C 3.40835,0.67279118 2.294975,1.1740752 1.448711,2.1765042 0.483099,3.3188282 0,4.8669682 0,6.8252142 c 0,1.45704 0.279376,2.723615 0.843553,3.7959888 0.857114,1.596911 2.174213,2.393122 3.942693,2.393123 0.382111,1.706475 1.436109,2.604086 3.915187,2.228081 V 14.004584 C 7.54737,14.11095 7.296825,13.476654 7.206877,12.354154 v -0.07335 C 7.554057,12.059336 7.869194,11.784453 8.15129,11.44642 9.073494,10.339076 9.535808,8.7951312 9.535817,6.8252162 9.535808,5.3565332 9.241453,4.0924452 8.655589,3.0200592 7.787617,1.4581292 6.500469,0.67279318 4.786246,0.67278118 Z m 9.288253,0.49512902 -1.742121,0.04584 -0.57765,2.732378 h -1.237822 v 2.044699 h 1.136963 v 3.915187 c 0,1.0723788 0.152957,1.8243058 0.449283,2.2555868 0.373153,0.571158 1.165718,0.852721 2.383954,0.852722 0.406076,-1e-6 0.90926,-0.05516 1.512894,-0.183381 v -1.943839 c -0.417058,0.02331 -0.72672,0.03668 -0.935242,0.03668 -0.340232,2e-6 -0.581683,-0.05765 -0.724357,-0.174212 -0.175604,-0.139873 -0.265905,-0.501619 -0.265902,-1.0727798 v -3.68596 h 1.797134 v -2.044699 h -1.797134 z m -9.288253,1.797134 c 1.34534,1e-5 2.017187,1.290825 2.017192,3.878511 -5e-6,2.587696 -0.671852,3.8876808 -2.017192,3.8876788 -1.367045,2e-6 -2.053871,-1.3066638 -2.053868,-3.9060178 -3e-6,-0.1049 -3e-6,-0.206835 0,-0.311747 0.0651,-2.366216 0.751918,-3.548415 2.053868,-3.548425 z"/>
</svg>
