<svg viewBox="0 0 16 16" xmlns="http://www.w3.org/2000/svg">
  <path d="m7.9493736 14.390074c-.2820285-.15985-.3510387-.286615-.352824-.648011-.00216-.450918.2802596-.652859 1.0462805-.747852.7070963-.08779.8047717-.1248 1.1543691-.439617l.2278178-.205052v-4.26299c0-3.7772856-.01866-4.289818-.1651217-4.49867-.2197606-.3138021-.7355097-.5181009-1.3075634-.5181009-.3832674 0-.5208224-.0540471-.7696861-.3029926-.230864-.2309295-.2864511-.357433-.233353-.5315637.0984639-.3229737.3239561-.5545583.6100692-.6263921.3955222-.0992505 1.5650665.1336443 2.081274.4147559l.476403.2594271.546183-.2672885c.608105-.2974241 1.680127-.5068657 2.11094-.4122664.301945.066166.599625.4312322.599625.7350108 0 .1028537-.08912.282684-.198043.3995243-.199614.214224-.37193.2672887-1.237657.3811156-.260606.034393-.590928.1542806-.734068.266961-.237775.1870366-.260246.2695816-.260246.9567687v.7520113h1.309026c1.055024 0 1.3399.02948 1.468133.1591939.238758.2387909.238758 5.3155366 0 5.5542946-.128273.128404-.413499.159194-1.472391.159194h-1.313284l.02948.774186c.02653.691675.0567.794431.284125.963844.139998.104165.50451.215207.810005.246653.776575.0796 1.076167.21488 1.214035.547713.162829.393137-.04501.816933-.456091.929909-.4363.119886-1.598792-.08123-2.184351-.377905l-.498791-.252877-.494923.250911c-.2722018.137902-.7847903.297752-1.1390686.355304-.7982099.129386-.8979356.128403-1.1504021-.01638zm5.5181604-6.3590434v-2.0250058h-.961879-.961882v2.0250058 2.0250044h.961882.961879zm-11.788466 2.7771464c-.2387574-.23879-.2387574-5.3155362 0-5.5542944.1386565-.1385577.6202146-.1591939 3.7462729-.1591939h3.5871665v.4556353.4556353h-3.2400227-3.2400189v2.0250055 2.0250052h3.2400189 3.2400227v.455636.455635h-3.5871665c-3.1260583 0-3.6076164-.01966-3.7462729-.159195zm1.8659042-2.7771464v-1.0125195h2.2275125 2.2275163v1.0125195 1.0124867h-2.2275163-2.2275125z" fill="#474747"/>
</svg>
