<svg height="16" width="16" xmlns="http://www.w3.org/2000/svg">
  <g fill="#474747" transform="matrix(0 1 -1 0 188.000001 -160)">
    <path d="m161 176.66016c0-1.45674 1.20342-2.66016 2.66016-2.66016h8.67968c1.45674 0 2.66016 1.20342 2.66016 2.66016v6.67968c0 1.45674-1.20342 2.66016-2.66016 2.66016h-8.67968c-1.45674 0-2.66016-1.20342-2.66016-2.66016zm2 0v6.67968c0 .38334.27682.66016.66016.66016h8.67968c.38334 0 .66016-.27682.66016-.66016v-6.67968c0-.38334-.27682-.66016-.66016-.66016h-8.67968c-.38334 0-.66016.27682-.66016.66016z"/>
    <path d="m168.4707 174.49219a.50005.50005 0 0 0 -.49023.50976l.0312 10a.50005.50005 0 1 0 1-.004l-.0312-10a.50005.50005 0 0 0 -.50977-.50586z"/>
    <path d="m172.00001 183.00001-7.99999.00001-.00002-5.99999 6-.00001 1.99999 2z"/>
  </g>
</svg>
