<svg height="16" viewBox="0 0 16 16" width="16" xmlns="http://www.w3.org/2000/svg">
  <path d="m4.5.5a3.9999998 3.9999998 0 0 0 -4 4 3.9999998 3.9999998 0 0 0 1.0546875 2.7011719 6.4999995 6.4999995 0 0 0 -.0546875.7988281 6.4999995 6.4999995 0 0 0 6.5 6.5 6.4999995 6.4999995 0 0 0 .7988281-.056641 3.9999998 3.9999998 0 0 0 2.7011719 1.056641 3.9999998 3.9999998 0 0 0 4-4 3.9999998 3.9999998 0 0 0 -1.054688-2.7011719 6.4999995 6.4999995 0 0 0 .054688-.7988281 6.4999995 6.4999995 0 0 0 -6.5-6.5 6.4999995 6.4999995 0 0 0 -.7988281.0566406 3.9999998 3.9999998 0 0 0 -2.7011719-1.0566406zm3.3730469 3.5c.4439805.0001334.5229383.0058294.7949219.0683594 1.1745035.2683806 1.9965482.9217345 2.0292972 1.6191406.0048.1059347-.008931.2308231-.025391.2851562-.04031.1312906-.174959.2899129-.322266.3730469-.107164.06047-.152456.0683594-.3535152.0683594-.1794769 0-.2466967-.0126044-.3222657-.0527344-.053099-.0280021-.2465652-.2115821-.4257812-.40625-.3630332-.3943374-.504134-.490502-.8769531-.5957031-.2558902-.0722851-.795287-.0743169-1.0371094-.0097656-.4768864.1274235-.7421396.4361645-.7402344.8652344.00123.2762915.1444408.4863134.4570312.640625.2335739.1152234.371566.1530696 1.4257813.40625.4822727.1158457.9708227.2417118 1.0859375.2851562.870607.3286031 1.332333.9183961 1.423828 1.8007812.07221.6961598-.136719 1.3509568-.572266 1.8164058-.375652.401447-.8993941.654917-1.5996089.779297-.2725036.04829-1.0389178.075089-1.328125.042969-1.063469-.118012-1.8662796-.537141-2.2695312-1.185547-.1415898-.227667-.2167969-.476012-.2167969-.701172 0-.2950236.1055631-.4939997.3222656-.6230465.115093-.06871.1454231-.078125.3535156-.078125.3258664 0 .4181344.0680637.7714844.5371094.3670192.4872931.6373391.6831661 1.0703125.7792971.7786378.172778 1.5290156-.09211 1.7714844-.623047.056862-.1245561.0725476-.1746174.0722656-.3632814-.0003422-.1891469-.016262-.2406896-.0722656-.3554687-.0730663-.1497755-.2185326-.2950492-.3789063-.3710938-.0586809-.0276889-.6087438-.1899562-1.2226562-.3554687-.6139121-.1654904-1.2072778-.3312905-1.3125-.3730469-.7514976-.2979352-1.1540675-.7383181-1.3027344-1.4003906-.070656-.3146249-.071897-.8133979 0-1.1074219.2244996-.9180531.9170187-1.4879336 2.0683594-1.7128906.182462-.03569.3583736-.0528244.7324219-.0527344z" fill="#444"/>
</svg>
