<svg height="16" width="16" xmlns="http://www.w3.org/2000/svg">
  <g fill="#444" transform="translate(-241.0002 -547)">
    <path d="m244.6252 550.00758c-1.45425 0-2.625 1.03817-2.625 2.49242v7.875c0 1.45425 1.17075 2.625 2.625 2.625h8.75c1.45425 0 2.625-1.17075 2.625-2.625v-7.875c0-1.45425-1.17075-2.49242-2.625-2.49242zm.875.99242h7c2.00417.53702 1.9805 6.85657 0 8h-7c-2.31899-1.57669-1.58576-7.08446 0-8zm7.52285 11.04907h-1.0457v-1.04571h1.0457z"/>
    <path d="m6 331a1 1 0 1 1 -2 0 1 1 0 1 1 2 0z" transform="translate(241.0002 217)"/>
    <path d="m6 331a1 1 0 1 1 -2 0 1 1 0 1 1 2 0z" transform="translate(246.98851 217)"/>
    <path d="m246.34375 547.65625-.6875.6875 2.46875 2.5.125.15625h.21875 1.09375l.21875-.0312.125-.125 2.4375-2.5-.6875-.6875-2.34375 2.34375h-.65625l-2.3125-2.34375z"/>
  </g>
</svg>
