<svg fill="none" height="16" viewBox="0 0 16 16" width="16" xmlns="http://www.w3.org/2000/svg">
  <g clip-rule="evenodd" fill="#444" fill-rule="evenodd">
    <path d="m13.9231 1h-11.84618c-.59477 0-1.07692.52233-1.07692 1.16667v11.66663c0 .6443.48215 1.1667 1.07692 1.1667h11.84618c.5947 0 1.0769-.5224 1.0769-1.1667v-11.66663c0-.64434-.4822-1.16667-1.0769-1.16667zm-7.94315 6.98263-2.6538-1.87965 1.43935-2.19528 3.869 2.74039h2.5329l1.3346 1.33454-1.3346 1.33454h-2.53287l-3.86903 2.74073-1.43935-2.19539z"/>
    <path d="m8.6345 6.64809h-.7706l-1.88395 1.33454-.00001.00001-2.65379-1.87966 1.43935-2.19528z" opacity=".6"/>
  </g>
</svg>
