<svg height="16" width="16" xmlns="http://www.w3.org/2000/svg">
  <path d="m122 529c-.554 0-1 .446-1 1v10c0 .554.446 1 1 1h14c.554 0 1-.446 1-1v-10c0-.554-.446-1-1-1zm1.25 2h1.5c.1385 0 .25.1115.25.25v1.5c0 .1385-.1115.25-.25.25h-1.5c-.1385 0-.25-.1115-.25-.25v-1.5c0-.1385.1115-.25.25-.25zm3 0h1.5c.1385 0 .25.1115.25.25v1.5c0 .1385-.1115.25-.25.25h-1.5c-.1385 0-.25-.1115-.25-.25v-1.5c0-.1385.1115-.25.25-.25zm3 0h1.5c.1385 0 .25.1115.25.25v1.5c0 .1385-.1115.25-.25.25h-1.5c-.1385 0-.25-.1115-.25-.25v-1.5c0-.1385.1115-.25.25-.25zm3 0h1.5c.1385 0 .25.1115.25.25v1.5c0 .1385-.1115.25-.25.25h-1.5c-.1385 0-.25-.1115-.25-.25v-1.5c0-.1385.1115-.25.25-.25zm-8 3h1.5c.1385 0 .25.1115.25.25v1.5c0 .1385-.1115.25-.25.25h-1.5c-.1385 0-.25-.1115-.25-.25v-1.5c0-.1385.1115-.25.25-.25zm3 0h1.5c.1385 0 .25.1115.25.25v1.5c0 .1385-.1115.25-.25.25h-1.5c-.1385 0-.25-.1115-.25-.25v-1.5c0-.1385.1115-.25.25-.25zm3 0h1.5c.1385 0 .25.1115.25.25v1.5c0 .1385-.1115.25-.25.25h-1.5c-.1385 0-.25-.1115-.25-.25v-1.5c0-.1385.1115-.25.25-.25zm3 0h1.5c.1385 0 .25.1115.25.25v1.5c0 .1385-.1115.25-.25.25h-1.5c-.1385 0-.25-.1115-.25-.25v-1.5c0-.1385.1115-.25.25-.25zm-10 3h1.5c.1385 0 .25.1115.25.25v1.5c0 .1385-.1115.25-.25.25h-1.5c-.1385 0-.25-.1115-.25-.25v-1.5c0-.1385.1115-.25.25-.25zm3 0h5.5c.1385 0 .25.1115.25.25v1.5c0 .1385-.1115.25-.25.25h-5.5c-.1385 0-.25-.1115-.25-.25v-1.5c0-.1385.1115-.25.25-.25zm7 0h2.5c.1385 0 .25.1115.25.25v1.5c0 .1385-.1115.25-.25.25h-2.5c-.1385 0-.25-.1115-.25-.25v-1.5c0-.1385.1115-.25.25-.25z" fill="#444" transform="translate(-121 -527)"/>
</svg>
