<svg fill="none" height="16" viewBox="0 0 16 16" width="16" xmlns="http://www.w3.org/2000/svg">
  <g fill="#444">
    <path clip-rule="evenodd" d="m4.25674 3.25796c.19526-.19526.51184-.19526.7071 0l1.42797 1.42797c.19527.19526.19527.51184 0 .70711l-.77096.77096c1.11802 1.88259 2.28342 3.07566 4.17773 4.2085l.78632-.78635c.1953-.19526.5119-.19526.7071 0l1.45 1.44995c.1953.1953.1953.5119 0 .7071l-.0866.0867-2.2882 2.2882c-.3386.3385-.8707.3902-1.26395.1171-3.27827-2.2768-5.06784-4.0537-7.34106-7.33916-.2719-.39297-.21965-.92387.11825-1.26178l.06706-.06706.0022-.0022z" fill-rule="evenodd"/>
    <rect height="1.92996" rx=".3" transform="matrix(.70710678 .70710678 -.70710678 .70710678 2.560002 -4.509501)" width="2.98833" x="6.72345" y=".835446"/>
    <rect height="1.92996" rx=".3" transform="matrix(.70710678 .70710678 -.70710678 .70710678 8.910134 -7.139826)" width="2.98833" x="13.0736" y="7.18557"/>
  </g>
</svg>
