<svg height="16" width="16" xmlns="http://www.w3.org/2000/svg">
  <g fill="#444" transform="translate(-137 -492.999981)">
    <path d="m139 495c-1.0907 0-2 .9093-2 2v9c0 1.0907.9093 2 2 2h12c1.0907 0 2-.9093 2-2v-9c0-1.0907-.9093-2-2-2zm0 2h12v9h-12z" fill="#474747"/>
    <g fill="#444">
      <path d="m142 503h2v1h-2z"/>
      <path d="m139.95263 498.78744a.60006002.60006002 0 0 0 -.25 1.03125l1.5625 1.5625-1.5625 1.5625a.61871845.61871845 0 1 0 .875.875l2-2a.60006002.60006002 0 0 0 0-.875l-2-2a.60006002.60006002 0 0 0 -.625-.15625z"/>
      <path d="m145 496h1v11h-1z"/>
      <path d="m145 501h7v1h-7z"/>
    </g>
  </g>
</svg>
