<svg height="16" viewBox="0 0 4.23 4.23" width="16" xmlns="http://www.w3.org/2000/svg">
  <g fill="#474747">
    <g transform="matrix(.13826787341 0 0 .13826787341 .06590507834 1.54447514942)">
      <path d="m7.467 0h1.066c.591 0 1.067.476 1.067 1.067v1.066c0 .591-.476 1.067-1.067 1.067h-1.066c-.591 0-1.067-.476-1.067-1.067v-1.066c0-.591.476-1.067 1.067-1.067zm0 12.8h1.066c.591 0 1.067.476 1.067 1.067v1.066c0 .591-.476 1.067-1.067 1.067h-1.066c-.591 0-1.067-.476-1.067-1.067v-1.066c0-.591.476-1.067 1.067-1.067zm-5.501-10.08.754-.754a1.064 1.064 0 0 1 1.509 0l.754.754c.418.418.418 1.09 0 1.509l-.754.754a1.064 1.064 0 0 1 -1.509 0l-.754-.754a1.064 1.064 0 0 1 0-1.509zm9.051 9.051.754-.754a1.064 1.064 0 0 1 1.509 0l.754.754c.418.418.418 1.09 0 1.509l-.754.754a1.064 1.064 0 0 1 -1.509 0l-.754-.754a1.064 1.064 0 0 1 0-1.509zm-11.017-3.238v-1.066c0-.591.476-1.067 1.067-1.067h1.066c.591 0 1.067.476 1.067 1.067v1.066c0 .591-.476 1.067-1.067 1.067h-1.066c-.591 0-1.067-.476-1.067-1.067zm12.8 0v-1.066c0-.591.476-1.067 1.067-1.067h1.066c.591 0 1.067.476 1.067 1.067v1.066c0 .591-.476 1.067-1.067 1.067h-1.066c-.591 0-1.067-.476-1.067-1.067zm-10.08 5.501-.754-.754a1.064 1.064 0 0 1 0-1.509l.754-.754a1.064 1.064 0 0 1 1.509 0l.754.754c.418.418.418 1.09 0 1.509l-.754.754a1.064 1.064 0 0 1 -1.509 0zm9.051-9.051-.754-.754a1.064 1.064 0 0 1 0-1.509l.754-.754a1.064 1.064 0 0 1 1.509 0l.754.754c.418.418.418 1.09 0 1.509l-.754.754a1.064 1.064 0 0 1 -1.509 0z"/>
      <path d="m8 1.5c-3.572 0-6.5 2.928-6.5 6.5s2.928 6.5 6.5 6.5 6.5-2.928 6.5-6.5-2.928-6.5-6.5-6.5zm0 3c1.95 0 3.5 1.55 3.5 3.5s-1.55 3.5-3.5 3.5-3.5-1.55-3.5-3.5 1.55-3.5 3.5-3.5z"/>
    </g>
    <g transform="matrix(.11717672 0 0 .11717672 18.65246 -19.61864)">
      <path d="m-115.15234 20.466797c-6.16865 0-11.21289 5.044248-11.21289 11.212891v9.988281c0 4.101732 2.33837 7.552738 5.64648 9.507812-3.30864 1.954356-5.64648 5.405665-5.64648 9.507813v1.738281l.13085-.130859c1.27307-1.276766 3.15972-1.721754 4.86915-1.148438v-.458984c0-3.484914 2.72729-6.210938 6.21289-6.210938h93.585934c3.485556 0 6.21289 2.726024 6.21289 6.210938v9.990234c0 3.484876-2.728015 6.212891-6.21289 6.212891h-53.960938c.937451 1.636331 1.726125 3.366989 2.333985 5.179687h1.425781c1.314778 0 2.4888.540243 3.34375 1.400391h46.857422c3.484875 0 6.21289 2.728015 6.21289 6.212891v9.988281c0 3.484911-2.728015 6.212891-6.21289 6.212891h-54.167969c-.02241.0378-.04188.0775-.06445.11523v.002l.03125.0312 1.992187 1.99023c.803035.80304 1.23841 1.81851 1.34961 2.86133h50.859375c6.168642 0 11.21289-5.04425 11.21289-11.212891v-9.988281c0-4.098067-2.333525-7.547661-5.636718-9.503907 3.302664-1.956397 5.636718-5.404302 5.636718-9.501953v-9.990234c0-4.102148-2.337886-7.553457-5.646484-9.507813 3.308107-1.955074 5.646484-5.40608 5.646484-9.507812v-9.988281c0-6.168643-5.044248-11.212891-11.21289-11.212891zm0 5h93.585934c3.484875 0 6.21289 2.727977 6.21289 6.212891v9.988281c0 3.484875-2.728015 6.21289-6.21289 6.21289h-93.585934c-3.48492 0-6.21289-2.727977-6.21289-6.21289v-9.988281c0-3.484914 2.72797-6.212891 6.21289-6.212891z" transform="matrix(.26458333 0 0 .26458333 -122.01071 165.91785)"/>
      <circle cx="-128.851" cy="175.621" r="1.587"/>
      <circle cx="-136.789" cy="175.621" r="1.587"/>
      <circle cx="-132.82" cy="175.621" r="1.587"/>
      <circle cx="-128.851" cy="183.295" r="1.587"/>
      <circle cx="-136.789" cy="183.295" r="1.587"/>
      <circle cx="-132.82" cy="183.295" r="1.587"/>
      <circle cx="-128.851" cy="190.967" r="1.587"/>
      <circle cx="-136.789" cy="190.967" r="1.587"/>
      <circle cx="-132.82" cy="190.967" r="1.587"/>
    </g>
  </g>
</svg>
