<svg height="16" width="16" xmlns="http://www.w3.org/2000/svg">
  <path d="m9.1158756.16464297c-1.7616548.48088-2.2999168 1.03558003-2.7770478 2.83564003-.415889 1.51647-.611641 1.79994-1.663779 2.31779-.868634.43145-.905269.46842-.905269.87537 0 .23415.04888.46841.122373.50549.07338.0492.01214.22179-.146759.44369l-.269241.35752-.256883-.24651c-.146759-.13561-.34251-.24662-.440386-.24662-.305876 0-.807393.62874-1.198897 1.4795-.207889.49313-.513765.91233-.74626196 1.08491-.31801299.2465101-.37914399.3575201-.30587599.616389.12237299.54245.72187595 1.01098 1.28452495 1.01098.464882 0 .978758.32055.978758.60403 0 .074.159007.22201.354759.33302.195751.12325.452634.41909.574896.67795.244745.56718 1.162262 1.50412 1.725021 1.77534.220138.11101.807393.28359 1.296772.38224.477131.0985 1.247669.34516 1.700414.5547.8930198.40695 1.6881642.59178 1.6881642.39459 0-.18493-.2446337-.35762-.7585094-.51784-.5626478-.18483-.8317788-.48078-.5748968-.62875.09788-.0616.4159998-.14797.7217658-.18494 1.3212694-.18494 2.7403034-.80132 2.4711724-1.07266-.08563-.0862-.330372-.0492-.795145.12337l-.672882.25887-.07338-.38224c-.09788-.51774-.8686342-1.22041-1.6147862-1.49164-.34262-.12337-.746372-.30819-.893131-.40684l-.269131-.1973.562759-.50549c.697379-.61649 1.039779-1.146589 1.4068965-2.182179.159007-.44369.330262-.85065.3913927-.91222.146869-.18505.758621.46853 1.076635 1.15884.159007.34516.244634.65336.195751.70268-.04899.0617-.452744.1232501-.880882.1603301-.4281377.0371-.7828967.11101-.7828967.1849389 0 .0739.5015167.16022 1.1376547.19718.624.0493 1.083366.0806 1.523862.0829 1.414069-.0538 1.798069-.4006589 2.346152-.4460089 1.222951-.1013001 1.24182-.4131301 1.122979-.6117501-.290096-.48486-.740524.17578-.968938.23713-.245517.0658-1.467365.1419-1.508303.0439-.07978-.19123.167283-.84845.592221-1.1242.702896-.45627.97302-1.10775.349241-1.16877-.273324-.0267-.630952.40022-.667476.84679-.03266.39989-.77749 1.17837-1.021572 1.12805-.133518-.0275-.251586-.13837-.385766-.27001-.55051-.53021-.770648-1.08491-1.015393-2.51509-.110124-.59178-.08563-.67807.293628-1.29446.954262-1.55343.709517-4.48772003-.428138-5.01782003-.367007-.17258-1.1622617-.14797-1.8961662.0493z" fill="#474747"/>
</svg>
