<svg fill="none" height="128" viewBox="0 0 128 128" width="128" xmlns="http://www.w3.org/2000/svg" xmlns:xlink="http://www.w3.org/1999/xlink">
  <linearGradient id="paint0_linear" gradientUnits="userSpaceOnUse" x1="62.633" x2="62.633" y1="9" y2="71.793">
    <stop offset="0" stop-color="#e52d27"/>
    <stop offset="1" stop-color="#bf171d"/>
  </linearGradient>
  <clipPath id="clip0">
    <path d="m0 0h128v128h-128z"/>
  </clipPath>
  <g clip-path="url(#clip0)">
    <path d="m82.6583 42.1518c-.5747-1.7945-1.6961-4.0111-2.3199-4.5868-.1657-.153-.1722-.1502-.3737.1646-.2954.4616-2.8946 5.123-5.7671 10.3446-9.1488 16.6311-13.2186 23.995-13.565 24.5397-.0512.0803-.1165.1451-.1447.1448-.119-.0012-2.6531-4.8014-17.4756-33.0933-.6933-1.3232-1.3094-2.4598-1.3684-2.5256-.0912-.1015-.1487-.077-.3802.164-1.01 1.0507-2.3708 3.9086-2.7829 5.8453-.203.9526-.1949 6.3111.0103 7.1323.2389.9561 1.6965 3.8722 7.197 14.3965 7.5901 14.5221 9.1065 17.4627 9.1582 17.7645.982-.1935 6.0635-1.999 6.0635-1.999l.3355.1815 4.7533 1.8611c.0031-.0781.0165-.1498.0446-.217.0599-.1422.7298-1.4046 1.4892-2.8061 1.5567-2.8732 1.7712-3.2667 5.1246-9.3572 4.6907-8.5194 8.8941-16.2097 9.4604-17.3112.7847-1.5264 1.1388-3.3849 1.1611-6.1018.0172-2-.113-2.9577-.6201-4.5409z" fill="#060606" opacity=".1"/>
    <path d="m62.9752 72.0085c-.1189-.0012-2.6531-4.8014-17.4756-33.0933-.6932-1.3232-1.3094-2.4598-1.3683-2.5256-.0913-.1015-.1487-.077-.3803.164-1.0099 1.0507-2.3708 3.9086-2.7829 5.8453-.203.9526-.1948 6.311.0103 7.1323.2389.9561 1.6965 3.8722 7.197 14.3965 7.5901 14.5221 9.1065 17.4627 9.1583 17.7645.9819-.1935 6.0634-1.999 6.0634-1.999z" fill="#c4c4c4"/>
    <path d="m106.374 24.034s-.874-6.1526-3.548-8.8619c-3.3911-3.5569-7.2016-3.5744-8.9407-3.7842-12.4976-.9001-31.2351-.9001-31.2351-.9001h-.0349s-18.7376 0-31.2351.9001c-1.7392.2098-5.5496.2273-8.9405 3.7842-2.6743 2.7093-3.5483 8.8619-3.5483 8.8619s-.8914 7.2189-.8914 14.4464v6.7732c0 7.2276.8914 14.4464.8914 14.4464s.874 6.1526 3.5483 8.8619c3.3997 3.557 7.8568 3.4433 9.8407 3.8191 7.1402.6817 30.3523.9002 30.3523.9002s18.755-.0262 31.2526-.9351c1.7479-.2098 5.5496-.2272 8.9407-3.7842 2.674-2.7093 3.548-8.8619 3.548-8.8619s.891-7.2276.891-14.4464v-6.7732c0-7.2275-.891-14.4464-.891-14.4464zm-52.9615 29.426v-25.0824l24.1211 12.5849z" opacity=".2"/>
    <path d="m106.374 22.5463s-.874-6.1527-3.548-8.8619c-3.3911-3.557-7.2016-3.5745-8.9407-3.78423-12.4976-.90017-31.2351-.90017-31.2351-.90017h-.0349s-18.7376 0-31.2351.90017c-1.7392.20973-5.5496.22723-8.9405 3.78423-2.6743 2.7092-3.5483 8.8619-3.5483 8.8619s-.8914 7.2188-.8914 14.4464v6.7731c0 7.2276.8914 14.4464.8914 14.4464s.874 6.1527 3.5483 8.8619c3.3997 3.557 7.8568 3.4434 9.8407 3.8192 7.1402.6817 30.3523.9002 30.3523.9002s18.755-.0263 31.2526-.9352c1.7479-.2097 5.5496-.2272 8.9407-3.7842 2.674-2.7092 3.548-8.8619 3.548-8.8619s.891-7.2275.891-14.4464v-6.7731c0-7.2276-.891-14.4464-.891-14.4464zm-52.9615 29.4259v-25.0824l24.1211 12.5849z" fill="url(#paint0_linear)"/>
    <path d="m53.4125 51.9722 24.1211-12.4975-24.1211-12.5849z" fill="#fff"/>
    <path d="m53.4125 26.8898 21.1497 14.1231 2.9714-1.5382z" fill="#420000" opacity=".12"/>
    <path d="m92.1184 104.311c-1.6715-5.0902-6.376-8.4976-11.4823-8.3153-2.7786.0991-4.5738.7056-6.9384 2.3417-.6672.4615-1.229.8248-1.244.8074-.0174-.0173-.1786-.6164-.3613-1.3318-.4068-1.5984-1.7662-5.8397-2.4019-7.4941-.5956-1.5505-1.7069-3.874-2.6846-5.6117-.7796-1.3837-1.0203-1.8908-1.0074-2.2212-4.7556-4.4912-8.3731-1.1048-11.1523-.0436.001.0056.0109.0282.0109.0321-.0018.1902-.2761.7103-1.0223 1.9361-1.0097 1.6585-2.4634 4.6591-3.2808 6.7714-.8547 2.2085-2.4013 6.9962-2.4058 7.4478-.0031.3252-.1225.3162-.6416-.0491-.2686-.189-.7824-.5508-1.1424-.8042-3.4974-2.4612-7.996-2.8933-11.7718-1.1294-2.5605 1.1961-4.5013 3.1057-5.7541 5.6609-.8819 1.799-1.1269 3.096-1.085 5.743.0233 1.453.0513 1.721.2407 2.381.7414 2.572 2.6193 5.324 4.5225 6.627 1.3609.932 2.9945 1.631 4.7038 2.015 1.1495.259 3.0094.295 4.2193.083 3.9215-.689 6.7977-2.822 8.9041-6.603.8095-1.452.9636-2.014 1.7195-6.282 1.0382-5.863 2.0495-9.8861 2.9974-11.9184.8071-1.7307 2.5822-3.7589 4.3062-4.9221.4438-.2995.5656-.342.9697-.338.4227.0041.5178.044 1.1271.4727.8744.615 2.3648 2.1409 3.0239 3.0954.6519.9443 1.2396 2.1635 1.6222 3.3755.6754 2.1312 1.4488 5.8639 2.2405 10.8219.5901 3.693.819 4.572 1.5521 5.964 1.2969 2.462 2.815 4.107 4.8842 5.291 3.5716 2.043 7.694 2.143 11.3921.277 3.2955-1.664 5.7369-4.941 6.2368-8.372.1735-1.192.2014-3.397.0543-4.287-.0643-.388-.2228-1.027-.3514-1.421zm-4.8471 1.62c1.0867 3.603-.9533 7.405-4.5565 8.492-3.6033 1.087-7.4053-.953-8.492-4.556-1.0868-3.604.9532-7.406 4.5564-8.492 3.6033-1.087 7.4053.953 8.4921 4.556zm-41.2506-.498c1.0868 3.603-.9532 7.405-4.5564 8.492-3.6033 1.086-7.4053-.954-8.4921-4.557-1.0867-3.603.9533-7.405 4.5565-8.492 3.6032-1.0867 7.4052.953 8.492 4.557z" fill="#060606" opacity=".1"/>
    <path d="m61.0481 82.673c.3951 1.3099 1.7772 2.0514 3.087 1.6564 1.3099-.3951 2.0515-1.7772 1.6564-3.0871-.3951-1.3098-1.7772-2.0514-3.087-1.6563-1.3099.395-2.0515 1.7771-1.6564 3.087z" fill="#060606" opacity=".1"/>
    <path d="m85.1457 41.4016c-.5747-1.7945-1.6962-4.0111-2.3199-4.5868-.1658-.153-.1723-.1502-.3738.1646-.2954.4616-2.8946 5.1229-5.767 10.3446-9.1489 16.6311-13.2186 23.995-13.5651 24.5397-.0511.0803-.1165.1451-.1447.1448l-5.6415 9.6837c.9819-.1935 6.0635-1.999 6.0635-1.999l.3354.1815 4.7534 1.8611c.003-.0781.0164-.1498.0445-.2169.0597-.1423.7298-1.4047 1.4892-2.8062 1.5567-2.8732 1.7711-3.2667 5.1245-9.3572 4.6907-8.5194 8.8941-16.2097 9.4604-17.3112.7847-1.5264 1.1388-3.3848 1.1612-6.1018.0171-1.9999-.113-2.9576-.6201-4.5409z" fill="#c4c4c4"/>
    <path d="m94.6058 103.561c-1.6715-5.0905-6.3761-8.4978-11.4823-8.3156-2.7787.0992-4.5739.7057-6.9385 2.3417-.6671.4616-1.2289.8249-1.244.8074-.0169-.0172-.1793-.6161-.3612-1.3317-.4068-1.5984-1.7664-5.8396-2.4018-7.4941-.5956-1.5506-1.7069-3.874-2.6846-5.6117-.7796-1.3837-1.0203-1.8908-1.0074-2.2213-4.7556-4.4911-8.3731-1.1048-11.1523-.0435.001.0055.011.0281.0109.032-.0018.1903-.2761.7104-1.0223 1.9362-1.0097 1.6585-2.4634 4.6591-3.2808 6.7714-.8547 2.2085-2.4014 6.9962-2.4058 7.4478-.0031.3252-.1225.3161-.6416-.0491-.2687-.189-.7824-.5509-1.1424-.8043-3.4975-2.4612-7.996-2.8933-11.7718-1.1294-2.5605 1.1962-4.5013 3.1057-5.7541 5.6612-.8819 1.799-1.127 3.096-1.085 5.742.0233 1.454.0513 1.722.2407 2.382.7413 2.572 2.6193 5.324 4.5225 6.627 1.3609.932 2.9945 1.631 4.7038 2.015 1.1495.258 3.0094.295 4.2193.082 3.9215-.688 6.7977-2.822 8.904-6.602.8096-1.453.9637-2.014 1.7196-6.283 1.0382-5.8624 2.0495-9.8853 2.9974-11.9177.8071-1.7307 2.5822-3.7589 4.3061-4.9221.4439-.2995.5657-.3419.9698-.338.4227.0041.5178.0441 1.1271.4727.8744.615 2.3648 2.1409 3.0239 3.0955.6519.9442 1.2395 2.1634 1.6222 3.3754.6752 2.1313 1.4488 5.8632 2.2404 10.8222.5902 3.693.819 4.571 1.5522 5.964 1.2969 2.462 2.815 4.106 4.8842 5.29 3.5716 2.044 7.6939 2.144 11.3921.277 3.2955-1.663 5.7369-4.94 6.2368-8.372.1735-1.191.2014-3.397.0543-4.286-.0643-.388-.2227-1.027-.3514-1.421zm-4.8472 1.62c1.0868 3.603-.9532 7.405-4.5565 8.492-3.6032 1.087-7.4052-.953-8.492-4.557-1.0868-3.603.9532-7.405 4.5565-8.492 3.6032-1.0864 7.4052.954 8.492 4.557zm-41.2505-.499c1.0867 3.604-.9533 7.406-4.5565 8.492-3.6032 1.087-7.4052-.953-8.492-4.556s.9532-7.405 4.5565-8.492c3.6032-1.0869 7.4052.953 8.492 4.556z" fill="#da1636"/>
    <path d="m60.9573 80.7568c.395 1.3098 1.7771 2.0514 3.087 1.6564 1.3099-.3951 2.0514-1.7772 1.6564-3.0871-.3951-1.3098-1.7772-2.0514-3.0871-1.6563-1.3098.395-2.0514 1.7771-1.6563 3.087z" fill="#4c4c4c"/>
  </g>
</svg>
