<svg xmlns="http://www.w3.org/2000/svg" xmlns:osb="http://www.openswatchbook.org/uri/2009/osb" width="16" height="16" version="1.1" viewBox="0 0 16 16">
 <title id="title9167">
  Gnome Symbolic Icon Theme
 </title>
 <defs>
  <linearGradient id="linearGradient19282" gradientTransform="matrix(-2.7365795,0.28202934,-0.18908311,-0.99988321,239.54008,-879.45557)" osb:paint="solid">
   <stop id="stop19284" offset="0" style="stop-color:#666666"/>
  </linearGradient>
 </defs>
 <g id="layer12" transform="translate(-421.06271,-807)">
  <path fill="#E6DDFF" fill-rule="evenodd" d="m 424,808 a 1.0001,1.0001 0 0 0 -1,1 v 13 a 1.0001,1.0001 0 0 0 1,1 h 4 a 1.0001,1.0001 0 1 0 0,-2 h -3 v -11 h 5.58594 L 433,812.41406 V 815 a 1.0001,1.0001 0 1 0 2,0 v -3 a 1.0001,1.0001 0 0 0 -0.29297,-0.70703 l -3,-3 A 1.0001,1.0001 0 0 0 431,808 Z"/>
  <path fill="#E6DDFF" d="M 432.0002,817.00327 V 819 h -2 v 1.99673 h 2 v 1.99674 h 2 v -1.99674 h 2 V 819 h -2 v -1.99673 z"/>
 </g>
</svg>
