<svg height="16" width="16" xmlns="http://www.w3.org/2000/svg">
  <g fill="#e6ddff">
    <path d="m2 4c-.5 0-1 .5-1 1v4c0 .5.5 1 1 1h1v-2h4.7324c.688-.7603 1.6701-1.25 2.7676-1.25 1.873 0 3.427 1.4029 3.695 3.2051.426-.1076.805-.5215.805-.9551v-4c0-.5-.5-1-1-1z"/>
    <path d="m4 1v2h8v-2z"/>
    <path d="m4 9v5h5.1934c-1.4196-.536-2.4434-1.901-2.4434-3.5 0-.5328.1168-1.0394.3203-1.5z"/>
    <path d="m10.5 7.7498a2.75 2.75 0 0 0 -2.75 2.7502 2.75 2.75 0 0 0 2.75 2.75 2.75 2.75 0 0 0 2.75-2.75 2.75 2.75 0 0 0 -2.75-2.7502zm0 1.0002a1.75 1.75 0 0 1 1.75 1.75 1.75 1.75 0 0 1 -1.75 1.75 1.75 1.75 0 0 1 -1.75-1.75 1.75 1.75 0 0 1 1.75-1.75z"/>
    <path d="m17.6-.75h3c.554 0 1 .3345 1 .75s-.446.75-1 .75h-3c-.554 0-1-.3345-1-.75s.446-.75 1-.75z" transform="matrix(.70710678 .70710678 -.70710678 .70710678 0 0)"/>
  </g>
</svg>
