<svg height="16" width="16" xmlns="http://www.w3.org/2000/svg">
  <g fill="#e6ddff">
    <path d="m10 3v1h-8v-1zm0 4v1h-8v-1zm0 4v1h-8v-1z"/>
    <path d="m39.195934 968.56287v-.54427h.908854v-2.50261l-.880208.54948v-.57552l.919271-.59635h.692708v3.125h.841146v.54427z" transform="matrix(1.1332722 0 0 .91783352 -33.041134 -884.111689)"/>
    <path d="m39.671327 961.39124v-.50782q.143229-.3151.40625-.61458.265625-.29948.666667-.625.385416-.3125.539062-.51563.15625-.20312.15625-.39843 0-.47917-.481771-.47917-.234375 0-.359375.1276-.122396.125-.158854.37761l-.736979-.0417q.0625-.51041.380208-.77864.320313-.26823.869792-.26823.59375 0 .911458.27083.317709.27083.317709.76042 0 .25781-.101563.46614-.101562.20834-.260416.38542-.158855.17448-.354167.32812-.192708.15365-.375.29948-.182292.14584-.333334.29427-.148437.14844-.221354.31771h1.703125v.60157z" transform="matrix(1.1184054 0 0 .93003418 -33.041134 -884.961589)"/>
    <path d="m43.938438 928.47316q0 .51563-.338541.79688-.338542.28125-.963542.28125-.591146 0-.940104-.27083-.348958-.27344-.408854-.78646l.744791-.0651q.07031.52865.601563.52865.263021 0 .408854-.13021t.145833-.39844q0-.24479-.177083-.375-.177083-.1302-.526042-.1302h-.255208v-.59115h.239583q.315105 0 .473959-.1276.158854-.13021.158854-.3698 0-.22656-.127604-.35416-.125-.13021-.367188-.13021-.226562 0-.367187.125-.138021.125-.158854.35417l-.731771-.0521q.05729-.47396.393229-.74219.335937-.26822.877604-.26822.575521 0 .898438.26041.32552.25781.32552.71615 0 .34375-.203125.5651-.20052.22136-.580729.29427v.0104q.421875.0495.648438.27865.229166.22656.229166.58072z" transform="matrix(1.0751341 0 0 .96746556 -33.041134 -885.808859)"/>
  </g>
</svg>
