<svg fill="none" height="16" viewBox="0 0 16 16" width="16" xmlns="http://www.w3.org/2000/svg">
  <g fill="#e6ddff">
    <path d="m9.5 2c1.9212 0 3.5 1.5788 3.5 3.5v.5h-2v-.5c0-.84027-.6597-1.5-1.5-1.5-.84027 0-1.5.65973-1.5 1.5v6.5h-2v-6.5c0-1.9212 1.5788-3.5 3.5-3.5z"/>
    <path d="m2.99997 9h1c.25689 0 .52846.12983.71875.3125l2.28119 2.2812 2.28122-2.2812c.19029-.18267.46186-.3125.71875-.3125h1.00002v1c0 .3095-.0903.5523-.2813.75l-3.71878 3.6562-3.71881-3.6562c-.19095-.1977-.28125-.4405-.28125-.75z"/>
  </g>
</svg>
