<svg height="15.982" width="16" xmlns="http://www.w3.org/2000/svg">
  <g fill="#e6ddff" transform="translate(-61.0002 -807.03638)">
    <path d="m72.001437 819.02276h-1.000104c-.256939.00001-.52852.10844-.718842.26103l-1.281366 1.07023-1.281376-1.07023c-.190072-.15281-.461903-.26103-.718862-.26099h-1.000104l-.00001.83531c0 .25848.09021.46133.281332.62645l2.741452 2.53365 2.696608-2.53365c.190962-.16516.281292-.368.281292-.62647v-.83531z"/>
    <path d="m70.804241 811.07609a.93589869 1.0099261 0 0 0 .185131 1.99773h4.936783a.93589869 1.0099261 0 1 0 0-1.99773h-4.936783a.93589869 1.0099261 0 0 0 -.185131 0z"/>
    <path d="m61.813375 811.07609c-.449901.10227-.78916.59895-.743395 1.08834.04581.4894.470284.9044.930216.90939h4.916121c.535231.0854 1.083884-.42019 1.083884-.99887 0-.57867-.548653-1.08427-1.083884-.99886h-4.916121c-.06211-.007-.124754-.007-.186821 0z"/>
    <path d="m67.058903 807.99999c-.854177.12953-1.568589.69462-1.906257 1.46875-.07101.16272-.118204.34541-.156248.53125h8.003803c-.0261-.12512-.05351-.26249-.09371-.375-.346459-.96755-1.269294-1.625-2.343747-1.625h-3.128807c-.126964 0-.252979-.0185-.374993 0zm-2.062505 6c.235307 1.13195 1.239871 2 2.437498 2h3.128807c1.197617 0 2.202201-.86805 2.437498-2z"/>
  </g>
</svg>
