<svg height="16" width="16" xmlns="http://www.w3.org/2000/svg">
  <g fill="#e6ddff">
    <path d="m4 2h-.5c-.83 0-1.5.669-1.5 1.5v9c0 .831.67 1.5 1.5 1.5h9c.831 0 1.5-.669 1.5-1.5v-9c0-.831-.669-1.5-1.5-1.5h-.5v1c.554 0 1 .446 1 1v6h-3c0 1.108-.892 2-2 2s-2-.892-2-2h-3v-6c0-.554.446-1 1-1z" transform="matrix(1.25 0 0 1.2444749 -2 -1.422654)"/>
    <path d="m3.7141798-.0714191v1.0666851h8.5713662v-1.0666851zm0 2.1333701v1.0666848h8.5713662v-1.0666848zm0 2.1333699v5.3334251h8.5713662v-5.3334251zm1.0714198 1.0666851 3.2142624 1.6000276 3.212175-1.6000276v1.0666855l-3.212175 1.6000275-3.2142624-1.6000275z"/>
  </g>
</svg>
