<svg fill="none" height="16" viewBox="0 0 16 16" width="16" xmlns="http://www.w3.org/2000/svg" xmlns:xlink="http://www.w3.org/1999/xlink">
  <clipPath id="clip0">
    <path d="m0 0h16v16h-16z"/>
  </clipPath>
  <g clip-path="url(#clip0)" fill="#e6ddff">
    <path clip-rule="evenodd" d="m8 13c2.7614 0 5-2.2386 5-5 0-2.76142-2.2386-5-5-5-2.76142 0-5 2.23858-5 5 0 2.7614 2.23858 5 5 5zm0 2c3.866 0 7-3.134 7-7 0-3.86599-3.134-7-7-7-3.86599 0-7 3.13401-7 7 0 3.866 3.13401 7 7 7z" fill-rule="evenodd"/>
    <path d="m15.0312 1-8.99995 5 1.28125 1.28125c.18096-.18096.44261-.28125.71875-.28125.55228 0 1 .44772 1 1 0 .26721-.14176.50811-.3125.6875-.00571.006.00585.0254 0 .03125l1.31245 1.28125z"/>
    <path d="m6.03125 6-5 9 8.99995-5-1.31245-1.28125c-.18096.18096-.41136.28125-.6875.28125-.55228 0-1-.44772-1-1 0-.27614.10029-.53779.28125-.71875z" opacity=".5"/>
  </g>
</svg>
