<svg height="16" viewBox="0 0 16 16" width="16" xmlns="http://www.w3.org/2000/svg">
  <g fill="#e6ddff" transform="translate(-201.0002 -807)">
    <path d="m203.71192 816.6875c.49379.47964 1.07743.69712 1.78829.69712s1.29723-.22349 1.79102-.70313c.77657.27945 1.70523.99058 1.70626 2.23257l.003 2.3167c.00021.42615-.31249.76924-.70029.76924h-5.60003c-.3878 0-.7-.34309-.7-.76924v-2.30769c0-1.0667.77162-1.96599 1.71173-2.23557z"/>
    <circle cx="-205.5" cy="814.308" r="2.308" transform="scale(-1 1)"/>
    <path d="m210.71194 812.6875c.49379.47964 1.07743.69712 1.78829.69712s1.29724-.22349 1.79102-.70313c.77657.27945 1.70523.99058 1.70626 2.23257l-6.99732.009c0-1.0667.77162-1.96599 1.71173-2.23557z"/>
    <circle cx="-212.5" cy="810.308" r="2.308" transform="scale(-1 1)"/>
    <path d="m215.15845 821.93937h.83984v-1c.008-1.67271 0-5 0-5s-3.98614 0-6 0v.8457c-.0954.61124.3814 1.16164 1 1.1543h1.58594l-1.64298 1.64299-.64999.64998c-.65409.63582-.18523 1.74367.72657 1.71679.25979-.008.50637-.11632.6875-.30273l.62788-.62789 1.66508-1.66508v1.58594c0 .68107.4492 1 1.16016 1z"/>
  </g>
</svg>
