<svg height="16" width="16" xmlns="http://www.w3.org/2000/svg">
  <g fill="#e6ddff">
    <path d="m8 1c.554 0 1 .446 1 1v5c0 .554-.446 1-1 1s-1-.446-1-1v-5c0-.554.446-1 1-1z"/>
    <path d="m11 3c-.552 0-1 .4477-1 1 0 .2839.102.5767.329.748 1.029.777 1.669 1.9628 1.671 3.252 0 2.209-1.791 4-4 4-2.2091 0-4-1.791-4-4 .0024-1.2895.644-2.4747 1.6719-3.2529.2262-.1712.3275-.4638.3281-.7471 0-.5523-.4477-1-1-1-.2849 0-.5276.1511-.7461.334-1.3928 1.1658-2.2476 2.8497-2.2539 4.666 0 3.314 2.6863 6 6 6 3.314 0 6-2.686 6-6-.004-1.8322-.863-3.5398-2.286-4.7002-.21-.1716-.447-.2998-.714-.2998z"/>
  </g>
</svg>
