<?xml version="1.0" encoding="UTF-8" standalone="no"?>
<svg
   xmlns:dc="http://purl.org/dc/elements/1.1/"
   xmlns:cc="http://creativecommons.org/ns#"
   xmlns:rdf="http://www.w3.org/1999/02/22-rdf-syntax-ns#"
   xmlns:svg="http://www.w3.org/2000/svg"
   xmlns="http://www.w3.org/2000/svg"
   xmlns:sodipodi="http://sodipodi.sourceforge.net/DTD/sodipodi-0.dtd"
   xmlns:inkscape="http://www.inkscape.org/namespaces/inkscape"
   width="16.000061"
   version="1.1"
   style="enable-background:new"
   id="svg7384"
   height="16"
   sodipodi:docname="archiviazione-symbolic.svg"
   inkscape:version="0.92.3 (2405546, 2018-03-11)">
  <sodipodi:namedview
     pagecolor="#ffffff"
     bordercolor="#666666"
     borderopacity="1"
     objecttolerance="10"
     gridtolerance="10"
     guidetolerance="10"
     inkscape:pageopacity="0"
     inkscape:pageshadow="2"
     inkscape:window-width="1399"
     inkscape:window-height="893"
     id="namedview9"
     showgrid="false"
     inkscape:zoom="14.75"
     inkscape:cx="8.0000305"
     inkscape:cy="8"
     inkscape:window-x="0"
     inkscape:window-y="34"
     inkscape:window-maximized="0"
     inkscape:current-layer="svg7384" />
  <metadata
     id="metadata90">
    <rdf:RDF>
      <cc:Work
         rdf:about="">
        <dc:format>image/svg+xml</dc:format>
        <dc:type
           rdf:resource="http://purl.org/dc/dcmitype/StillImage" />
        <dc:title>Gnome Symbolic Icons</dc:title>
        <cc:license
           rdf:resource="http://creativecommons.org/licenses/by-sa/4.0/" />
      </cc:Work>
      <cc:License
         rdf:about="http://creativecommons.org/licenses/by-sa/4.0/">
        <cc:permits
           rdf:resource="http://creativecommons.org/ns#Reproduction" />
        <cc:permits
           rdf:resource="http://creativecommons.org/ns#Distribution" />
        <cc:requires
           rdf:resource="http://creativecommons.org/ns#Notice" />
        <cc:requires
           rdf:resource="http://creativecommons.org/ns#Attribution" />
        <cc:permits
           rdf:resource="http://creativecommons.org/ns#DerivativeWorks" />
        <cc:requires
           rdf:resource="http://creativecommons.org/ns#ShareAlike" />
      </cc:License>
    </rdf:RDF>
  </metadata>
  <title
     id="title8473">Gnome Symbolic Icons</title>
  <defs
     id="defs7386" />
  <g
     transform="translate(-152,-668)"
     id="layer3"
     style="fill:#4d4d4d;fill-opacity:1">
    <path
       d="M 157.97266,674 C 157.43402,674 157,674.43402 157,674.97266 v 7.05468 c 0,0.53864 0.43402,0.97266 0.97266,0.97266 h 4.05468 C 162.56598,683 163,682.56598 163,682.02734 v -7.05468 C 163,674.43402 162.56598,674 162.02734,674 h -1.00586 v 1.01562 c 0,0.53864 -0.43401,0.97266 -0.97265,0.97266 h -0.0664 c -0.53864,0 -0.97265,-0.43402 -0.97265,-0.97266 V 674 Z m 0.28125,6 h 3.49218 c 0.27885,0 0.50391,0.22506 0.50391,0.50391 v 0.99218 c 0,0.27885 -0.22506,0.50391 -0.50391,0.50391 h -3.49218 c -0.27885,0 -0.50391,-0.22506 -0.50391,-0.50391 v -0.99218 c 0,-0.27885 0.22506,-0.50391 0.50391,-0.50391 z"
       id="rect990"
       style="color:#4d4d4d;overflow:visible;opacity:1;vector-effect:none;fill:#4d4d4d;fill-opacity:1;stroke:none;stroke-width:0.07142857;stroke-linecap:butt;stroke-linejoin:miter;stroke-miterlimit:4;stroke-dasharray:none;stroke-dashoffset:0;stroke-opacity:1;marker:none;marker-start:none;marker-mid:none;marker-end:none;paint-order:normal" />
    <path
       d="m 155.96094,669.00391 c -0.53864,0 -0.97266,0.43401 -0.97266,0.97265 v 9.0586 c 0,0.53864 0.43402,0.97265 0.97266,0.97265 H 156 v -6.03515 C 156,673.43402 156.43402,673 156.97266,673 H 159 v -1.04297 c 0,-0.53864 0.43402,-0.97266 0.97266,-0.97266 h 0.0547 c 0.53864,0 0.97266,0.43402 0.97266,0.97266 V 673 h 2.02734 c 0.53862,0 0.97264,0.43402 0.97264,0.97266 v 6.03515 h 0.0703 c 0.53864,0 0.97266,-0.43401 0.97266,-0.97265 v -9.0586 c 0,-0.53864 -0.43402,-0.97265 -0.97266,-0.97265 z"
       id="rect1009"
       style="color:#4d4d4d;overflow:visible;opacity:1;vector-effect:none;fill:#4d4d4d;fill-opacity:1;stroke:none;stroke-width:0.07142857;stroke-linecap:butt;stroke-linejoin:miter;stroke-miterlimit:4;stroke-dasharray:none;stroke-dashoffset:0;stroke-opacity:1;marker:none;marker-start:none;marker-mid:none;marker-end:none;paint-order:normal" />
  </g>
</svg>
