<svg xmlns="http://www.w3.org/2000/svg" width="16" height="16" version="1.1">
 <g id="layer1">
  <path fill="#bebebe" d="m 8,-3.8e-7 c -1.65335,0 -3,1.34665008 -3,3.00000008 l 0,1 -1.90625,0 C 2.48781,3.9999997 2,4.4878097 2,5.0937497 L 2,14.90625 C 2,15.51219 2.48781,16 3.09375,16 l 9.8125,0 C 13.51219,16 14,15.51219 14,14.90625 l 0,-9.8125003 c 0,-0.60594 -0.48781,-1.09375 -1.09375,-1.09375 l -1.90625,0 0,-1 C 11,1.3466497 9.65335,-3.8e-7 8,-3.8e-7 z m 0,1 c 1.11665,0 1.9999999,0.88335008 1.9999999,2.00000008 l 0,1 -3.9999999,0 0,-1 C 6,1.8833497 6.88335,0.99999962 8,0.99999962 z M 5.46875,4.9999997 c 0.28679,0 0.53125,0.22386 0.53125,0.5 0,0.27614 -0.24446,0.5 -0.53125,0.5 -0.28679,0 -0.5,-0.22386 -0.5,-0.5 0,-0.27614 0.21321,-0.5 0.5,-0.5 z m 5,0 c 0.28679,0 0.53125,0.22386 0.53125,0.5 0,0.27614 -0.24446,0.5 -0.53125,0.5 -0.28679,0 -0.5000001,-0.22386 -0.5000001,-0.5 0,-0.27614 0.2132101,-0.5 0.5000001,-0.5 z"/>
 </g>
</svg>
