<svg xmlns="http://www.w3.org/2000/svg" width="16" height="16" version="1.1" viewBox="0 0 16 16">
 <title id="title9167">
  Gnome Symbolic Icon Theme
 </title>
 <g id="layer11" transform="translate(-183 -669)">
  <path fill="#bebebe" d="m192 675c-1.0907 0-2 0.9093-2 2v3c0 1.0907 0.9093 2 2 2h5c1.0907 0 2-0.9093 2-2v-3c0-1.0907-0.9093-2-2-2zm0 2h5v3h-5z"/>
  <path fill="#bebebe" d="m194.5 684c-2.5 0-2.5-0.5-2.5-0.5 0-0.5 0.5-0.5 0.5-0.5h4c0.5 0 0.5 0.5 0.5 0.5s0 0.5-2.5 0.5z"/>
  <path fill="#bebebe" d="m186 670v1h5v-1zm-1 2c-0.554 0-1 0.446-1 1v2c0 0.554 0.446 1 1 1v-1h4.7754c0.54839-0.6101 1.3359-1 2.2246-1h1v-1c0-0.554-0.446-1-1-1h-6zm1 4v3h3v-2c0-0.35292 0.0707-0.68601 0.18164-1z"/>
 </g>
</svg>
