<svg width="256" height="256" version="1.1" viewBox="0 0 67.73 67.73" xmlns="http://www.w3.org/2000/svg" xmlns:xlink="http://www.w3.org/1999/xlink">
 <defs>
  <linearGradient id="linearGradient4226-3" x1="529.655" x2="-35.31" y1="401.584" y2="119.093" gradientTransform="matrix(0 -.11988932 .11988589 0 .36277985 292.54831)" gradientUnits="userSpaceOnUse">
   <stop style="stop-color:#f2f2f2" offset="0"/>
   <stop style="stop-color:#f9f9f9" offset="1"/>
  </linearGradient>
  <linearGradient id="linearGradient4358" x1="88" x2="488" y1="88" y2="488" gradientUnits="userSpaceOnUse">
   <stop style="stop-color:#000000;stop-opacity:.58823532" offset="0"/>
   <stop style="stop-color:#000000;stop-opacity:0" offset=".88"/>
   <stop style="stop-color:#000000" offset="1"/>
  </linearGradient>
  <filter id="filter4346" x="-.01" y="-.01" width="1.026" height="1.022" style="color-interpolation-filters:sRGB">
   <feGaussianBlur stdDeviation="2.12"/>
  </filter>
  <filter id="filter1061" x="-.050000001" y="-.050000001" width="1.096" height="1.096" style="color-interpolation-filters:sRGB">
   <feGaussianBlur stdDeviation="1.032"/>
  </filter>
  <radialGradient id="radialGradient972" cx="-16.058001" cy="262.27802" r="21.167" gradientTransform="matrix(1.902357 -.02368669 .02441152 1.9605704 57.451028 -253.50522)" gradientUnits="userSpaceOnUse">
   <stop style="stop-color:#dedbde" offset="0"/>
   <stop style="stop-color:#e6e6e6" offset=".5"/>
   <stop style="stop-color:#d2d2d2" offset="1"/>
  </radialGradient>
  <linearGradient id="linearGradient1029" x1="-53.233002" x2="-55.555" y1="33.450001" y2="135.44901" gradientTransform="matrix(.32265584 0 0 .32265584 52.88822 220.83281)" gradientUnits="userSpaceOnUse">
   <stop style="stop-color:#ffffff" offset="0"/>
   <stop style="stop-color:#ffffff;stop-opacity:0" offset="1"/>
  </linearGradient>
 </defs>
 <g transform="translate(0,-229.26666)">
  <path d="m20.705011 233.28165c-9.338926 0-10.343783 0.95922-10.298013 10.31704v38.63259c-0.04577 9.35781 0.959087 10.31704 10.298013 10.31704h25.970643c9.338924 0 10.298012-0.95912 10.298012-10.31704v-38.63259c0-9.35793-0.959088-10.31704-10.298012-10.31704z" style="fill:none;opacity:.2;stroke-width:1.0583333;stroke:#000000"/>
  <path transform="matrix(.13229167 0 0 .13229167 -4.4096684 223.75665)" d="m189.84323 74c-70.59344 0-78.18921 7.250835-77.84323 77.98706v292.02588c-0.34598 70.73623 7.24979 77.98706 77.84323 77.98706h196.31354c70.59344 0 76.00668-7.27384 77.84323-77.98706v-292.02588c0-70.737067-7.24979-77.98706-77.84323-77.98706z" style="filter:url(#filter4346);opacity:.1"/>
  <path transform="matrix(.13229167 0 0 .13229167 -4.4096684 223.75665)" d="m189.84323 74c-70.59344 0-78.18921 7.250835-77.84323 77.98706v292.02588c-0.34598 70.73623 7.24979 77.98706 77.84323 77.98706h196.31354c70.59344 0 77.84323-7.24999 77.84323-77.98706v-292.02588c0-70.737067-7.24979-77.98706-77.84323-77.98706z" style="fill:url(#linearGradient4358);filter:url(#filter4380);opacity:.3"/>
  <path d="m20.705011 233.28165c-9.338926 0-10.343783 0.95922-10.298013 10.31704v38.63259c-0.04577 9.35781 0.959087 10.31704 10.298013 10.31704h25.970643c9.338924 0 10.298012-0.95912 10.298012-10.31704v-38.63259c0-9.35793-0.959088-10.31704-10.298012-10.31704z" style="fill:url(#linearGradient4226-3)"/>
  <path d="m20.705079 233.28165c-9.338926 0-10.343851 0.95939-10.298081 10.3172v0.52916c-0.04577-9.35781 0.959155-10.3172 10.298081-10.3172h25.970506c9.338927 0 10.298081 0.95928 10.298081 10.3172v-0.52916c0-9.35793-0.959154-10.3172-10.298081-10.3172z" style="fill:#ffffff;opacity:.6"/>
  <rect transform="rotate(90)" x="250.48" y="-46.39" width="25.4" height="25.4" style="fill:none"/>
  <rect transform="rotate(90)" x="250.48" y="-46.39" width="25.4" height="25.4" style="fill:none"/>
  <g transform="matrix(1.4080207,0,0,1.4079632,-439.40534,51.911569)" style="enable-background:new;stroke-width:1.1274922;stroke:#808080">
   <path transform="matrix(.14178702 0 0 .14179281 317.94582 131.83168)" d="m127.33398 64.21875c-34.732018 0-62.953121 28.217346-62.953121 62.94922 0 34.73187 28.221103 62.96484 62.953121 62.96484 34.73203 0 62.95118-28.23297 62.95118-62.96484 0-34.731874-28.21915-62.94922-62.95118-62.94922zm0 6.005859c31.4892 0 56.94532 25.453964 56.94532 56.943361 0 31.48939-25.45612 56.95898-56.94532 56.95898-31.489196 0-56.960933-25.46959-56.960933-56.95898 0-31.489397 25.471737-56.943361 56.960933-56.943361zm0 37.962891c-10.45032 0-18.98242 8.53057-18.98242 18.98047 0 10.44989 8.5321 18.99609 18.98242 18.99609 10.45033 0 18.98047-8.5462 18.98047-18.99609 0-10.4499-8.53014-18.98047-18.98047-18.98047zm0 6.00586c7.20765 0 12.98829 5.76726 12.98829 12.97461s-5.78064 12.99023-12.98829 12.99023c-7.20764 0-12.99023-5.78288-12.99023-12.99023s5.78259-12.97461 12.99023-12.97461z" style="fill:#808080;opacity:.5"/>
  </g>
  <path d="m33.690332 233.28165v59.26667h12.985253c9.338924 0 10.055122-0.96217 10.298081-10.31695v-38.63278c0-9.35792-0.959157-10.31694-10.298081-10.31694z" style="fill:#ffffff;opacity:.1"/>
  <path d="m10.406998 262.91498v19.31639c-0.04577 9.35782 0.959156 10.31695 10.298081 10.31695h25.970506c9.338924 0 10.055122-0.96217 10.298081-10.31695v-19.31639z" style="fill:#ffffff;opacity:.2"/>
  <path d="m41.098666 292.54832 15.875-15.875v5.94886c-0.01384 8.99472-1.006126 9.92614-10.100231 9.92614z" style="fill:#ffffff;opacity:.4"/>
 </g>
 <g transform="matrix(.69894634 0 0 .69894634 24.731368 -134.47734)">
  <path d="m33.304977 234.63174c-14.653545 0-26.457142 11.80359-26.457142 26.45714-1e-6 14.65354 11.803599 26.45953 26.457142 26.45953 14.653537 0 26.459525-11.80599 26.459525-26.45953 0-14.65355-11.80598-26.45714-26.459525-26.45714zm0 1.29094c13.961678 0 25.168585 11.20452 25.168585 25.1662 0 13.96167-11.206915 25.1686-25.168585 25.1686-13.961676 0-25.166202-11.20693-25.166201-25.1686 0-13.96168 11.204521-25.1662 25.166201-25.1662zm0 15.07924c-5.939372 0-10.086963 4.57307-10.086963 10.08696 0 5.43392 4.334804 10.08935 10.086963 10.08935 5.646421 0 10.089347-4.54865 10.089347-10.08935 0-5.41735-4.142084-10.08696-10.089347-10.08696zm0 1.28856c5.280614 0 8.798407 4.02792 8.798407 8.7984 0 4.85512-3.840991 8.79841-8.798407 8.79841-5.059689 0-8.798405-4.04664-8.798405-8.79841 0-4.87985 3.509902-8.7984 8.798405-8.7984z" style="opacity:.2;stroke-width:.37852736;stroke:#000000"/>
  <path d="m59.118366 261.08978c0-14.30761-11.504852-25.81247-25.812461-25.81247-14.307613 0-25.812466 11.50486-25.812466 25.81247-1e-6 14.30761 11.504855 25.81246 25.812466 25.81246 14.307602 0 25.812461-11.50485 25.812461-25.81246zm-16.368879 0c0 5.19791-4.141664 9.44359-9.443582 9.44359-5.405924 0-9.443587-4.35075-9.443587-9.44359 0-5.19688 3.829648-9.44359 9.443587-9.44359 5.613937 0 9.443582 4.34968 9.443582 9.44359z" style="fill:#070707;filter:url(#filter1061);opacity:.3"/>
  <path d="m59.118366 261.08978c0-14.30761-11.504852-25.81247-25.812461-25.81247-14.307613 0-25.812466 11.50486-25.812466 25.81247-1e-6 14.30761 11.504855 25.81246 25.812466 25.81246 14.307602 0 25.812461-11.50485 25.812461-25.81246zm-16.368879 0c0 5.19791-4.141664 9.44359-9.443582 9.44359-5.405924 0-9.443587-4.35075-9.443587-9.44359 0-5.19688 3.829648-9.44359 9.443587-9.44359 5.613937 0 9.443582 4.34968 9.443582 9.44359z" style="fill:url(#radialGradient972)"/>
  <path d="m33.390856 235.27732c-13.578317 0-24.638888 10.37108-25.725499 23.65911h0.463818c1.084076-13.03898 11.930716-23.19718 25.261681-23.19718 13.330964 0 24.176977 10.1582 25.261054 23.19718h0.461926c-1.086395-13.28803-12.144665-23.65911-25.72298-23.65911zm0 16.22227c-4.882002 0-8.452955 3.19676-9.3608 7.43684h0.466339c0.889123-3.99962 4.248921-6.97491 8.894461-6.97491 4.630135 0 7.985911 3.03381 8.8869 6.97491h0.467599c-0.918084-4.18264-4.482022-7.43684-9.354499-7.43684z" style="fill:url(#linearGradient1029);opacity:.5"/>
 </g>
</svg>
