<!-- Created with Inkscape (http://www.inkscape.org/) -->
<svg width="256" height="256" version="1.1" viewBox="0 0 67.733332 67.733335" xmlns="http://www.w3.org/2000/svg" xmlns:xlink="http://www.w3.org/1999/xlink">
 <defs>
  <linearGradient id="linearGradient4317" x1="667.97504" x2="667.97504" y1="-19.787647" y2="282.68454" gradientTransform="translate(-307.22615,125.39245)" gradientUnits="userSpaceOnUse">
   <stop style="stop-color:#000000;stop-opacity:0" offset="0"/>
   <stop style="stop-color:#000000" offset=".50383204"/>
   <stop style="stop-color:#000000;stop-opacity:0" offset="1"/>
  </linearGradient>
  <filter id="filter4321" x="-.1380356" y="-.073589876" width="1.2760712" height="1.1471798" style="color-interpolation-filters:sRGB">
   <feGaussianBlur stdDeviation="9.3237456"/>
  </filter>
  <filter id="filter4398" x="-.017254449" y="-.0091987345" width="1.0345089" height="1.0183975" style="color-interpolation-filters:sRGB">
   <feGaussianBlur stdDeviation="1.1654682"/>
  </filter>
  <linearGradient id="linearGradient1108" x1="296" x2="296" y1="-212" y2="236" gradientUnits="userSpaceOnUse">
   <stop style="stop-color:#ffffff" offset="0"/>
   <stop style="stop-color:#ffffff;stop-opacity:.09803922" offset=".125"/>
   <stop style="stop-color:#000000;stop-opacity:.09803922" offset=".92500001"/>
   <stop style="stop-color:#000000;stop-opacity:.49803922" offset="1"/>
  </linearGradient>
  <clipPath id="clipPath1082-3-3675">
   <path d="M 361.9375,-212 C 507.2348,-212 528,-191.28677 528,-46.125 V 70.125 C 528,215.28618 507.2348,236 361.9375,236 H 214.0625 C 68.7652,236 48,215.28618 48,70.125 V -46.125 C 48,-191.28677 68.7652,-212 214.0625,-212 Z" style="fill:#8c59d9"/>
  </clipPath>
  <clipPath id="clipPath991-6">
   <path d="M 188.96875,44 C 261.6174,44 272,54.356615 272,126.9375 v 58.125 C 272,257.64309 261.6174,268 188.96875,268 h -73.9375 C 42.3826,268 32,257.64309 32,185.0625 v -58.125 C 32,54.356615 42.3826,44 115.03125,44 Z" style="fill:#6dc7f1"/>
  </clipPath>
  <filter id="filter959" x="-.0232" y="-.024857143" width="1.0464" height="1.0497143" style="color-interpolation-filters:sRGB">
   <feGaussianBlur stdDeviation="2.32"/>
  </filter>
  <filter id="filter4569" x="-.0116" y="-.012428571" width="1.0232" height="1.024857" style="color-interpolation-filters:sRGB">
   <feGaussianBlur stdDeviation="1.16"/>
  </filter>
 </defs>
 <g transform="translate(0,-229.26666)">
  <g transform="matrix(.12974173 0 0 .12974173 3.8344818 227.85345)" style="enable-background:new">
   <path transform="matrix(2.0393079,0,0,2.0393079,-29.55473,37.126102)" d="m162.53675 3.5680001c72.64865 0 83.03125 10.356615 83.03125 82.937505v58.125005c0 72.58059-10.3826 82.9375-83.03125 82.9375h-73.937496c-72.648654 0-83.031254-10.35691-83.031254-82.9375v-58.125005c0-72.58089 10.3826-82.937505 83.031254-82.937505z" style="filter:url(#filter4569);opacity:.1"/>
   <path transform="matrix(2.0393079,0,0,2.0393079,-29.55473,10.892486)" d="m5.5683594 101.36914v56.125c0 9.07257 0.1620995 17.17296 0.5878906 24.40234 0.2128956 3.6147 0.4922655 7.01124 0.8496094 10.20313 0.3573439 3.19188 0.7931865 6.18021 1.3203125 8.97461s1.1449457 5.39611 1.8671871 7.81836c0.722242 2.42224 1.547543 4.66482 2.490235 6.74023 0.942691 2.07541 2.002932 3.98242 3.191406 5.73633s2.505252 3.35478 3.964844 4.8125c1.459591 1.45773 3.062317 2.77211 4.818359 3.95898 1.756042 1.18688 3.666314 2.24616 5.744141 3.1875 2.077826 0.94135 4.323102 1.7652 6.748047 2.48633 2.424944 0.72114 5.028775 1.33898 7.826171 1.86524 2.797397 0.52626 5.787241 0.96165 8.982422 1.31836 3.195182 0.3567 6.596543 0.63518 10.214844 0.84765 7.236602 0.42496 15.3447 0.58594 24.425781 0.58594h73.937501c9.08108 0 17.18918-0.16098 24.42578-0.58594 3.6183-0.21247 7.01771-0.49095 10.21289-0.84765 3.19518-0.35671 6.18503-0.7921 8.98242-1.31836 2.7974-0.52626 5.40318-1.1441 7.82813-1.86524 2.42494-0.72113 4.67022-1.54498 6.74805-2.48633 2.07782-0.94134 3.98809-2.00062 5.74414-3.1875 1.75604-1.18687 3.35681-2.50125 4.8164-3.95898 1.45959-1.45772 2.77832-3.05859 3.9668-4.8125 1.18847-1.75391 2.24676-3.66092 3.18945-5.73633s1.76995-4.31799 2.49219-6.74023c0.72224-2.42225 1.34006-5.02396 1.86719-7.81836 0.52712-2.7944 0.96297-5.78273 1.32031-8.97461 0.35734-3.19189 0.63671-6.58843 0.84961-10.20313 0.42579-7.22938 0.58789-15.32977 0.58789-24.40234v-56.125c0-72.58089-10.3826-82.937499-83.03125-82.937499h-73.937501c-72.648654 0-83.03125 10.356609-83.03125 82.937499z" style="filter:url(#filter959);opacity:.2"/>
   <path d="m301.90773 44.402363c148.15296 0 169.32628 21.120327 169.32628 169.13511v118.53477c0 148.01417-21.17332 169.1351-169.32628 169.1351h-150.78132c-148.15297 0-169.32629-21.12093-169.32629-169.1351v-118.53477c0-148.01478 21.173318-169.13511 169.32629-169.13511z" style="fill:#6dc7f1"/>
   <g transform="matrix(2.0393079,0,0,2.0393079,-83.457731,-45.327186)" clip-path="url(#clipPath991-6)" style="enable-background:new">
    <path transform="translate(26.432007,27.568016)" d="m146.2832 240.43164h16.25391c9.08108 0 17.18918-0.16098 24.42578-0.58594 3.6183-0.21247 7.01771-0.49095 10.21289-0.84765 3.19518-0.35671 6.18503-0.7921 8.98242-1.31836 2.7974-0.52626 5.40318-1.1441 7.82813-1.86524 2.42494-0.72113 4.67022-1.54498 6.74805-2.48633 2.07782-0.94134 3.98809-2.00062 5.74414-3.1875 1.75604-1.18687 3.35681-2.50125 4.8164-3.95898 1.45959-1.45772 2.77832-3.05859 3.9668-4.8125 1.18847-1.75391 2.24676-3.66092 3.18945-5.73633s1.76995-4.31799 2.49219-6.74023c0.72224-2.42225 1.34006-5.02396 1.86719-7.81836 0.52712-2.7944 0.96297-5.78273 1.32031-8.97461 0.35734-3.19189 0.63671-6.58843 0.84961-10.20313 0.42579-7.22938 0.58789-15.32977 0.58789-24.40234v-58.124999c0-9.072611-0.1621-17.172938-0.58789-24.402344-0.2129-3.614703-0.49227-7.011234-0.84961-10.203125s-0.79319-6.178251-1.32031-8.972656c-0.52713-2.794405-1.14495-5.396115-1.86719-7.81836s-1.5495-4.664823-2.49219-6.740234-2.00098-3.984379-3.18945-5.738281c-1.18848-1.753903-2.50721-3.352827-3.9668-4.810547-1.45959-1.457721-3.06036-2.774073-4.8164-3.960938-1.75605-1.186864-3.66632-2.244212-5.74414-3.185547-2.07783-0.941334-4.32311-1.767151-6.74805-2.488281-2.42495-0.72113-5.03073-1.338982-7.82813-1.865234-2.79739-0.526252-5.78724-0.961659-8.98242-1.31836-3.19518-0.3567-6.59459-0.633229-10.21289-0.845703-7.2366-0.424948-15.3447-0.58789-24.42578-0.58789h-24.23438l-42.882808 170.46484 50.863278 53.53516z" style="fill:#e3dfd5"/>
    <path transform="translate(26.432007,27.568016)" d="m237.9375 40.310547c-0.82288-1.696985-1.67835-3.34444-2.67578-4.816406-1.18848-1.753903-2.50721-3.352827-3.9668-4.810547-1.45959-1.457721-3.06036-2.774073-4.8164-3.960938-1.75605-1.186864-3.66632-2.244212-5.74414-3.185547-2.07783-0.941334-4.32311-1.767151-6.74805-2.488281-2.42495-0.72113-5.03073-1.338982-7.82813-1.865234-2.79739-0.526252-5.78724-0.961659-8.98242-1.31836-3.19518-0.3567-6.59459-0.633229-10.21289-0.845703-7.2366-0.424948-15.3447-0.58789-24.42578-0.58789h-73.937501c-9.081081 0-17.189179 0.162942-24.425781 0.58789-3.618301 0.212474-7.019662 0.489003-10.214844 0.845703-3.195181 0.356701-6.185025 0.792108-8.982422 1.31836-2.797396 0.526252-5.401227 1.144104-7.826171 1.865234-2.424945 0.72113-4.670221 1.546947-6.748047 2.488281-2.077827 0.941335-3.988099 1.998683-5.744141 3.185547-1.756042 1.186865-3.358768 2.503217-4.818359 3.960938-1.459592 1.45772-2.77637 3.056644-3.964844 4.810547-1.188474 1.753902-2.248715 3.66287-3.191406 5.738281-0.942692 2.075411-1.767993 4.317989-2.490235 6.740234-0.7222414 2.422245-1.3400611 5.023955-1.8671871 7.81836s-0.9629686 5.780765-1.3203125 8.972656-0.6367138 6.588422-0.8496094 10.203125c-0.3346625 5.682155-0.4046635 12.372266-0.4628906 19.179687l92.457032 95.181636 139.78711-149.01757z" style="fill:#a6d74f"/>
    <path transform="translate(26.432007,27.568016)" d="m6.0351562 80.005859c-0.2549212 6.025393-0.4667968 12.164154-0.4667968 19.363282v9.191409l128.9375 131.87109h28.03125c0.12925 0 0.2188-0.00775 0.34766-0.00781l-156.84961-160.41797z" style="fill-opacity:.99607843;fill:#f9f9f9"/>
   </g>
   <rect x="144.94475" y="44.402363" width="163.14464" height="456.80496" style="fill:#ffffff;opacity:.15"/>
   <path d="m-18.199876 272.80485v59.26739c0 148.01417 21.173318 169.1351 169.32629 169.1351h150.78132c148.15296 0 169.32628-21.12093 169.32628-169.1351v-59.26739z" style="fill:#ffffff;opacity:.15"/>
   <g transform="matrix(2.0393079,0,0,2.0393079,-83.457731,-45.327186)" clip-path="url(#clipPath991-6)" style="enable-background:new">
    <path transform="translate(26.432007,27.568016)" d="m242.47266 54.378906c-0.45926-2.233025-0.93752-4.421543-1.5293-6.40625-0.72224-2.422245-1.5495-4.664823-2.49219-6.740234s-2.00098-3.984379-3.18945-5.738281c-0.3401-0.50191-0.7732-0.900039-1.13477-1.376953l-201.20312 200.14062c1.380744 0.53618 2.707801 1.10499 4.226563 1.55664 2.424944 0.72114 5.028775 1.33898 7.826171 1.86524 2.797397 0.52626 5.787241 0.96165 8.982422 1.31836 0.840635 0.09384 1.818224 0.13944 2.6875 0.22265l185.82618-184.84179z" style="fill:#fdc92b"/>
   </g>
   <path transform="matrix(1.0196539,0,0,1.0196539,-67.143265,260.569)" d="M 361.9375,-212 C 507.2348,-212 528,-191.28677 528,-46.125 V 70.125 C 528,215.28618 507.2348,236 361.9375,236 H 214.0625 C 68.7652,236 48,215.28618 48,70.125 V -46.125 C 48,-191.28677 68.7652,-212 214.0625,-212 Z" clip-path="url(#clipPath1082-3-3675)" style="fill:none;opacity:.4;stroke-linecap:round;stroke-linejoin:round;stroke-width:8;stroke:url(#linearGradient1108)"/>
   <path transform="matrix(1.0196539,0,0,1.0196539,-34.514339,11.773434)" d="m344.62023 104c-44.76554 0-81.05518 36.28966-81.05518 81.05519 0 8.88851 1.49956 17.4171 4.14327 25.41957 0.26885 0.81383 0.48141 1.64776 0.77513 2.44993 2.06461 6.83163 32.32582 106.11802 76.22181 195.15231 0.0123 0 0.0303-7e-3 0.0445-0.0201 0.0175-9e-3 0.0336-0.027 0.0496-0.0448 0.0175-0.0175 0.0338-0.0345 0.0504-0.0462 0.0175-0.0123 0.0338-0.0236 0.0473-0.0236 46.90025-97.24086 76.71206-197.46607 76.71206-197.46607h-0.0236c2.64047-7.99809 4.08981-16.53778 4.08981-25.42064 2.1e-4 -44.76582-36.28945-81.05548-81.05497-81.05548z" style="filter:url(#filter4398);opacity:.1"/>
   <path transform="matrix(1.0196539,0,0,1.0196539,-34.514339,11.773434)" d="m344.62023 104c-44.76554 0-81.05518 36.28966-81.05518 81.05519 0 8.88851 1.49956 17.4171 4.14327 25.41957 0.26885 0.81383 0.48141 1.64776 0.77513 2.44993 2.06461 6.83163 32.32582 106.11802 76.22181 195.15231 0.0123 0 0.0303-7e-3 0.0445-0.0201 0.0175-9e-3 0.0336-0.027 0.0496-0.0448 0.0175-0.0175 0.0338-0.0345 0.0504-0.0462 0.0175-0.0123 0.0338-0.0236 0.0473-0.0236 46.90025-97.24086 76.71206-197.46607 76.71206-197.46607h-0.0236c2.64047-7.99809 4.08981-16.53778 4.08981-25.42064 2.1e-4 -44.76582-36.28945-81.05548-81.05497-81.05548z" style="fill:url(#linearGradient4317);filter:url(#filter4321);opacity:.4"/>
   <path d="m316.87902 115.77814c-45.64536 0-82.64823 37.0029-82.64823 82.64824 0 9.06321 1.52903 17.7594 4.22471 25.91916 0.27412 0.82982 0.49086 1.68015 0.79035 2.49807 2.1052 6.96591 32.96115 108.20367 77.71988 198.98785 0.0122 0 0.031-8e-3 0.0453-0.0206 0.0184-8e-3 0.0343-0.0275 0.0506-0.0457 0.0183-0.0183 0.0345-0.0351 0.0514-0.0471 0.0183-0.0122 0.0345-0.0241 0.0483-0.0241 47.82204-99.15203 78.21976-201.34708 78.21976-201.34708h-0.0241c2.69236-8.15527 4.1702-16.8628 4.1702-25.92025 2.1e-4 -45.64563-37.00269-82.64853-82.64803-82.64853z" style="fill:#f22c42"/>
   <circle cx="316.24661" cy="199.38977" r="40.78616" style="fill:#bc1938"/>
   <path d="m316.87992 115.77814c-45.64536 0-82.64775 37.0024-82.64775 82.64773 0 0.76192 0.0224 1.51767 0.0438 2.27432 0.96298-44.80935 37.56354-80.84344 82.6039-80.84344 45.04031 0 81.6411 36.0338 82.60392 80.84344 0.0208-0.75638 0.0438-1.51287 0.0438-2.27432 1.7e-4 -45.64563-37.00242-82.64773-82.64776-82.64773z" style="fill:#ffffff;opacity:.4"/>
  </g>
 </g>
</svg>
