<svg width="256" height="256" version="1.1" viewBox="0 0 67.73 67.73" xmlns="http://www.w3.org/2000/svg" xmlns:xlink="http://www.w3.org/1999/xlink">
 <defs>
  <radialGradient id="radialGradient972" cx="-16.058" cy="262.278" r="21.167" gradientTransform="matrix(1.902357 -.02368669 .02441152 1.9605704 57.451028 -253.50522)" gradientUnits="userSpaceOnUse">
   <stop style="stop-color:#dedbde" offset="0"/>
   <stop style="stop-color:#e6e6e6" offset=".5"/>
   <stop style="stop-color:#d2d2d2" offset="1"/>
  </radialGradient>
  <linearGradient id="linearGradient1029" x1="-53.233" x2="-55.555" y1="33.45" y2="135.449" gradientTransform="matrix(.32265584 0 0 .32265584 52.88822 220.83281)" gradientUnits="userSpaceOnUse">
   <stop style="stop-color:#ffffff" offset="0"/>
   <stop style="stop-color:#ffffff;stop-opacity:0" offset="1"/>
  </linearGradient>
  <filter id="filter1061" x="-.05" y="-.05" width="1.096" height="1.096" style="color-interpolation-filters:sRGB">
   <feGaussianBlur stdDeviation="1.032"/>
  </filter>
  <filter id="filter4346" x="-.013249796" y="-.010965657" width="1.0264996" height="1.0219313" style="color-interpolation-filters:sRGB">
   <feGaussianBlur stdDeviation="2.120027"/>
  </filter>
  <linearGradient id="linearGradient4358" x1="88" x2="488" y1="88" y2="488" gradientUnits="userSpaceOnUse">
   <stop style="stop-color:#000000;stop-opacity:.58823532" offset="0"/>
   <stop style="stop-color:#000000;stop-opacity:0" offset=".88"/>
   <stop style="stop-color:#000000" offset="1"/>
  </linearGradient>
  <filter id="filter4380" x="-.052999184" y="-.043862626" width="1.1059984" height="1.0877253" style="color-interpolation-filters:sRGB">
   <feGaussianBlur stdDeviation="8.4801079"/>
  </filter>
  <linearGradient id="linearGradient4226" x1="529.65515" x2="-35.310345" y1="401.58368" y2="119.09284" gradientTransform="matrix(.08364515 0 0 .08364276 24.302175 26.326813)" gradientUnits="userSpaceOnUse">
   <stop style="stop-color:#331d3b" offset="0"/>
   <stop style="stop-color:#281d2c" offset="1"/>
  </linearGradient>
  <clipPath id="clipPath1101">
   <path d="m39.9973 106.92432c0-35.29673 3.625418-39.09461 38.99353-38.92162h73.00647 73.00647c35.36812-0.17299 38.99353 3.62489 38.99353 38.92162v98.15676c0 35.29672-3.625 38.92162-38.99353 38.92162h-73.00647-73.00647c-35.368533 0-38.99353-3.6249-38.99353-38.92162z" style="fill:url(#linearGradient1105)"/>
  </clipPath>
 </defs>
 <g transform="translate(0,-229.26666)">
  <path d="m33.304977 234.63174c-14.653545 0-26.457142 11.80359-26.457142 26.45714-1e-6 14.65354 11.803599 26.45953 26.457142 26.45953 14.653537 0 26.459525-11.80599 26.459525-26.45953 0-14.65355-11.80598-26.45714-26.459525-26.45714zm0 1.29094c13.961678 0 25.168585 11.20452 25.168585 25.1662 0 13.96167-11.206915 25.1686-25.168585 25.1686-13.961676 0-25.166202-11.20693-25.166201-25.1686 0-13.96168 11.204521-25.1662 25.166201-25.1662zm0 15.07924c-5.939372 0-10.086963 4.57307-10.086963 10.08696 0 5.43392 4.334804 10.08935 10.086963 10.08935 5.646421 0 10.089347-4.54865 10.089347-10.08935 0-5.41735-4.142084-10.08696-10.089347-10.08696zm0 1.28856c5.280614 0 8.798407 4.02792 8.798407 8.7984 0 4.85512-3.840991 8.79841-8.798407 8.79841-5.059689 0-8.798405-4.04664-8.798405-8.79841 0-4.87985 3.509902-8.7984 8.798405-8.7984z" style="opacity:.2"/>
  <path d="m59.118366 261.08978c0-14.30761-11.504852-25.81247-25.812461-25.81247-14.307613 0-25.812466 11.50486-25.812466 25.81247-1e-6 14.30761 11.504855 25.81246 25.812466 25.81246 14.307602 0 25.812461-11.50485 25.812461-25.81246zm-16.368879 0c0 5.19791-4.141664 9.44359-9.443582 9.44359-5.405924 0-9.443587-4.35075-9.443587-9.44359 0-5.19688 3.829648-9.44359 9.443587-9.44359 5.613937 0 9.443582 4.34968 9.443582 9.44359z" style="fill:#070707;filter:url(#filter1061);opacity:.3"/>
  <path d="m59.118366 261.08978c0-14.30761-11.504852-25.81247-25.812461-25.81247-14.307613 0-25.812466 11.50486-25.812466 25.81247-1e-6 14.30761 11.504855 25.81246 25.812466 25.81246 14.307602 0 25.812461-11.50485 25.812461-25.81246zm-16.368879 0c0 5.19791-4.141664 9.44359-9.443582 9.44359-5.405924 0-9.443587-4.35075-9.443587-9.44359 0-5.19688 3.829648-9.44359 9.443587-9.44359 5.613937 0 9.443582 4.34968 9.443582 9.44359z" style="fill:url(#radialGradient972)"/>
  <path d="m33.390856 235.27732c-13.578317 0-24.638888 10.37108-25.725499 23.65911h0.463818c1.084076-13.03898 11.930716-23.19718 25.261681-23.19718 13.330964 0 24.176977 10.1582 25.261054 23.19718h0.461926c-1.086395-13.28803-12.144665-23.65911-25.72298-23.65911zm0 16.22227c-4.882002 0-8.452955 3.19676-9.3608 7.43684h0.466339c0.889123-3.99962 4.248921-6.97491 8.894461-6.97491 4.630135 0 7.985911 3.03381 8.8869 6.97491h0.467599c-0.918084-4.18264-4.482022-7.43684-9.354499-7.43684z" style="fill:url(#linearGradient1029);opacity:.5"/>
 </g>
 <path transform="matrix(0 -.09229811 .09229811 0 17.472116 76.344452)" d="M 189.84323,74 C 119.24979,74 111.65402,81.250835 112,151.98706 V 298 444.01294 C 111.65402,514.74917 119.24979,522 189.84323,522 H 386.15677 C 456.75021,522 462.16345,514.72616 464,444.01294 V 298 151.98706 C 464,81.249993 456.75021,74 386.15677,74 Z" style="filter:url(#filter4346);opacity:.1"/>
 <path transform="matrix(0 -.09229811 .09229811 0 17.472116 76.344452)" d="M 189.84323,74 C 119.24979,74 111.65402,81.250835 112,151.98706 V 298 444.01294 C 111.65402,514.74917 119.24979,522 189.84323,522 H 386.15677 C 456.75021,522 464,514.75001 464,444.01294 V 298 151.98706 C 464,81.249993 456.75021,74 386.15677,74 Z" style="fill:url(#linearGradient4358);filter:url(#filter4380);opacity:.3"/>
 <path d="m65.651723 40.519312c0-6.515646-0.669236-7.216716-7.198055-7.184784h-13.476716-13.476718c-6.528822-0.03196-7.198059 0.669138-7.198059 7.184784v18.119361c0 6.515646 0.669161 7.184789 7.198059 7.184789h13.476718 13.476716c6.528896 0 7.198055-0.669143 7.198055-7.184789z" style="fill:url(#linearGradient4226)"/>
 <path d="m37.593657 40.71788v17.721235s8.398187-3.632679 15.742512-8.866213c0-0.0014-9.07e-4 -0.0028-0.0019-0.0049-9.07e-4 -0.0021-0.0019-0.0042-0.0033-0.0056-0.0015-0.0021-0.0028-0.0042-0.0038-0.0056-0.0013-0.0021-0.0019-0.0042-0.0019-0.0056-7.746755-5.40038-15.731651-8.832983-15.731651-8.832983z" style="fill:#ffffff;opacity:.6"/>
 <path transform="matrix(.1845962 0 0 .1845962 16.918825 20.78149)" d="m31.997302 68.0027v16h24v-16zm216 0v16h24v-16zm-216 24v16h24v-16zm216 0v16h24v-16zm-216 24v16h24v-16zm216 0v16h24v-16zm-216 24v16h24v-16zm216 0v16h24v-16zm-216 24v16h24v-16zm216 0v16h24v-16zm-216 24v16h24v-16zm216 0v16h24v-16zm-216 24v16h24v-16zm216 0v16h24v-16zm-216 24v16h24v-16zm216 0v16h24v-16z" clip-path="url(#clipPath1101)" style="fill:#ffffff;opacity:.1"/>
 <path d="m24.302175 49.578992h41.349548v9.059634c0 6.515644-0.671291 7.015327-7.197989 7.184836h-13.476782-13.476786c-6.528898 0-7.197991-0.669192-7.197991-7.184836z" style="fill:#ffffff;opacity:.03999999"/>
 <path d="m44.976952 33.334528h13.476782c6.528821-0.03196 7.197989 0.669187 7.197989 7.184833v18.119265c0 6.515644-0.671291 7.015327-7.197989 7.184836h-13.476782z" style="fill:#ffffff;opacity:.03999999"/>
 <path d="m31.500124 33.33439c-6.528821-0.03196-7.197812 0.669185-7.197812 7.184831v0.369194c0-6.515645 0.668991-7.216763 7.197812-7.184831h13.476965 13.476605c6.528821-0.03196 7.198169 0.669186 7.198169 7.184831v-0.369194c0-6.515646-0.669348-7.216764-7.198169-7.184831h-13.476605z" style="fill:#ffffff;opacity:.2"/>
 <path d="m24.302312 58.26966v0.369189c0 6.515644 0.668913 7.184475 7.197812 7.184475h13.476965 13.476605c6.528896 0 7.198169-0.668831 7.198169-7.184475v-0.369189c0 6.515639-0.669273 7.18447-7.198169 7.18447h-13.476605-13.476965c-6.528899 0-7.197812-0.668831-7.197812-7.18447z" style="opacity:.2"/>
</svg>
