<svg width="256" height="256" version="1.1" viewBox="0 0 67.73 67.73" xmlns="http://www.w3.org/2000/svg" xmlns:xlink="http://www.w3.org/1999/xlink">
 <defs>
  <linearGradient id="linearGradient1108" x1="296" x2="296" y1="-212" y2="202.4" gradientUnits="userSpaceOnUse">
   <stop style="stop-color:#ffffff" offset="0"/>
   <stop style="stop-color:#ffffff;stop-opacity:.09803922" offset=".135"/>
   <stop style="stop-color:#ffffff;stop-opacity:0" offset="1"/>
  </linearGradient>
  <clipPath id="clipPath1082-3-3675">
   <path d="M 361.9375,-212 C 507.2348,-212 528,-191.28677 528,-46.125 V 70.125 C 528,215.28618 507.2348,236 361.9375,236 H 214.0625 C 68.7652,236 48,215.28618 48,70.125 V -46.125 C 48,-191.28677 68.7652,-212 214.0625,-212 Z" style="fill:#8c59d9"/>
  </clipPath>
  <filter id="filter910" x="-.02" y="-.03" width="1.046" height="1.05" style="color-interpolation-filters:sRGB">
   <feGaussianBlur stdDeviation="2.32"/>
  </filter>
  <filter id="filter4569" x="-.01" y="-.01" width="1.023" height="1.025" style="color-interpolation-filters:sRGB">
   <feGaussianBlur stdDeviation="1.16"/>
  </filter>
 </defs>
 <g transform="translate(0,-229.26666)">
  <g transform="matrix(.12974173 0 0 .12974173 3.8344818 227.85345)" style="enable-background:new">
   <path d="m301.90773 44.402363c148.15296 0 169.32628 21.120327 169.32628 169.1351v118.53478c0 148.01417-21.17332 169.1351-169.32628 169.1351h-150.78132c-148.15297 0-169.32628-21.12093-169.32628-169.1351v-118.53478c0-148.01477 21.17331-169.1351 169.32628-169.1351z" style="fill:none;opacity:.2;stroke-linecap:round;stroke-linejoin:round;stroke-width:8.1572313;stroke:#000000"/>
   <path transform="matrix(2.0393079,0,0,2.0393079,-29.55473,37.126102)" d="m162.53675 3.5680001c72.64865 0 83.03125 10.356615 83.03125 82.937505v58.125005c0 72.58059-10.3826 82.9375-83.03125 82.9375h-73.937496c-72.648654 0-83.031254-10.35691-83.031254-82.9375v-58.125005c0-72.58089 10.3826-82.937505 83.031254-82.937505z" style="filter:url(#filter4569);opacity:.1"/>
   <path transform="matrix(2.0393079,0,0,2.0393079,-29.55473,37.126102)" d="m162.53675 5.5680001c72.64865 0 83.03125 10.356615 83.03125 82.937505v58.125005c0 72.58059-10.3826 82.9375-83.03125 82.9375h-73.937496c-72.648654 0-83.031254-10.35691-83.031254-82.9375v-58.125005c0-72.58089 10.3826-82.937505 83.031254-82.937505z" style="filter:url(#filter910);opacity:.2"/>
   <path d="m301.90773 44.402363c148.15296 0 169.32628 21.120327 169.32628 169.1351v118.53478c0 148.01417-21.17332 169.1351-169.32628 169.1351h-150.78132c-148.15297 0-169.32628-21.12093-169.32628-169.1351v-118.53478c0-148.01477 21.17331-169.1351 169.32628-169.1351z" style="fill:#f7f7f7"/>
   <path transform="matrix(1.0196539,0,0,1.0196539,-67.14326,260.569)" d="M 361.9375,-212 C 507.2348,-212 528,-191.28677 528,-46.125 V 70.125 C 528,215.28618 507.2348,236 361.9375,236 H 214.0625 C 68.7652,236 48,215.28618 48,70.125 V -46.125 C 48,-191.28677 68.7652,-212 214.0625,-212 Z" clip-path="url(#clipPath1082-3-3675)" style="fill:none;opacity:.5;stroke-linecap:round;stroke-linejoin:round;stroke-width:8;stroke:url(#linearGradient1108)"/>
   <g transform="translate(8.249205,-31.860999)">
    <path d="m218.26786 125.20676c-45.31342 0-81.57231 36.25889-81.57231 81.57231v40.78616h-20.39308v142.75155h203.93079v-142.75155h-20.39308v-40.78616c0-45.31342-36.25889-81.57231-81.57232-81.57231zm0 20.39307c33.8933 0 61.17924 27.28594 61.17924 61.17924v40.78616h-122.35848v-40.78616c0-33.8933 27.28594-61.17924 61.17924-61.17924zm20.39308 137.65329v66.2775h-40.78616v-61.17923z" style="fill:#fff9f9"/>
    <path d="m218.26786 121.12814c-45.31342 0-81.57231 36.25889-81.57231 81.57231v40.78616h-20.39308v142.75155h203.93079v-142.75155h-20.39308v-40.78616c0-45.31342-36.25889-81.57231-81.57232-81.57231zm0 20.39307c33.8933 0 61.17924 27.28594 61.17924 61.17924v40.78616h-122.35848v-40.78616c0-33.8933 27.28594-61.17924 61.17924-61.17924zm20.39308 137.65329v66.2775h-40.78616v-61.17923z" style="fill:#666666"/>
   </g>
   <path d="m98.721285 292.88506c-11.49475-0.14491-21.72897 2.14703-28.36574 10.11201-6.14864 7.3466-7.92502 16.83599-7.92502 27.82435v57.16442c0 10.98867 1.77671 20.47806 7.92502 27.82443 6.70695 8.04953 16.87387 10.11201 28.21419 10.11201h260.2929c11.34031 0 21.51633-2.04737 28.23579-10.11201 6.16018-7.36055 7.90344-16.84963 7.90344-27.82443v-57.16442c0-10.97449-1.74291-20.46365-7.90344-27.82435-6.71958-8.06487-16.89538-10.11201-28.23579-10.11201z" style="fill:#ffffff"/>
   <path d="m98.721285 292.88506c-11.49475-0.14491-21.72897 2.14703-28.36574 10.11201-6.14864 7.3466-7.92502 16.83599-7.92502 27.82435v57.16442c0 10.98867 1.77671 20.47806 7.92502 27.82443 6.70695 8.04953 16.87387 10.11201 28.21419 10.11201h260.2929c11.34031 0 21.51633-2.04737 28.23579-10.11201 6.16018-7.36055 7.90344-16.84963 7.90344-27.82443v-57.16442c0-10.97449-1.74291-20.46365-7.90344-27.82435-6.71958-8.06487-16.89538-10.11201-28.23579-10.11201z" style="fill:none;opacity:.4;stroke-width:4.1576099;stroke:#000000"/>
   <g transform="matrix(7.7076203,0,0,7.7076203,-33.523635,-1582.0575)" style="fill:#666666">
    <path d="m17.748501 255.48474 1.045998-1.6736 0.370122-1.19083 0.370123 1.19083 1.029905 1.6736 1.110367-0.69197-0.981628-1.60923-0.885076-0.90116 1.255198 0.25747h1.818427v-1.30347h-1.818427l-1.255198 0.27357 0.885076-0.91726 0.981628-1.60923-1.110367-0.69197-1.029905 1.6736-0.370123 1.20692-0.370122-1.20692-1.029906-1.6736-1.110367 0.69197 0.981629 1.60923 0.885075 0.91726-1.255197-0.27357h-1.802335v1.30347h1.802335l1.255197-0.25747-0.885075 0.90116-0.981629 1.60923z" style="fill:#666666"/>
    <path d="m27.649022 255.48474 1.045998-1.6736 0.370123-1.19083 0.370122 1.19083 1.029906 1.6736 1.110367-0.69197-0.981629-1.60923-0.885075-0.90116 1.255197 0.25747h1.818427v-1.30347h-1.818427l-1.255197 0.27357 0.885075-0.91726 0.981629-1.60923-1.110367-0.69197-1.029906 1.6736-0.370122 1.20692-0.370123-1.20692-1.029905-1.6736-1.110367 0.69197 0.981628 1.60923 0.885076 0.91726-1.255198-0.27357h-1.802335v1.30347h1.802335l1.255198-0.25747-0.885076 0.90116-0.981628 1.60923z" style="fill:#666666"/>
    <path d="m37.549544 255.48474 1.045998-1.6736 0.370122-1.19083 0.370122 1.19083 1.029906 1.6736 1.110367-0.69197-0.981629-1.60923-0.885075-0.90116 1.255197 0.25747h1.818428v-1.30347h-1.818428l-1.255197 0.27357 0.885075-0.91726 0.981629-1.60923-1.110367-0.69197-1.029906 1.6736-0.370122 1.20692-0.370122-1.20692-1.029906-1.6736-1.110367 0.69197 0.981629 1.60923 0.885075 0.91726-1.255198-0.27357h-1.802334v1.30347h1.802334l1.255198-0.25747-0.885075 0.90116-0.981629 1.60923z" style="fill:#666666"/>
    <path d="m47.450066 255.48474 1.045998-1.6736 0.370122-1.19083 0.370122 1.19083 1.029906 1.6736 1.110367-0.69197-0.981629-1.60923-0.885075-0.90116 1.255198 0.25747h1.818427v-1.30347h-1.818427l-1.255198 0.27357 0.885075-0.91726 0.981629-1.60923-1.110367-0.69197-1.029906 1.6736-0.370122 1.20692-0.370122-1.20692-1.029906-1.6736-1.110367 0.69197 0.981629 1.60923 0.885075 0.91726-1.255197-0.27357h-1.802335v1.30347h1.802335l1.255197-0.25747-0.885075 0.90116-0.981629 1.60923z" style="fill:#666666"/>
   </g>
  </g>
 </g>
</svg>
