<svg width="256" height="256" version="1.1" viewBox="0 0 67.73 67.73" xmlns="http://www.w3.org/2000/svg" xmlns:xlink="http://www.w3.org/1999/xlink">
 <defs>
  <filter id="filter1574" x="-.01" y="-.01" width="1.029" height="1.024" style="color-interpolation-filters:sRGB">
   <feGaussianBlur stdDeviation=".298"/>
  </filter>
  <filter id="filter1588" x="-.07" y="-.05" width="1.134" height="1.109" style="color-interpolation-filters:sRGB">
   <feGaussianBlur stdDeviation="1.355"/>
  </filter>
  <linearGradient id="linearGradient918" x1="31.75" x2="31.75" y1="233.5" y2="293.031" gradientUnits="userSpaceOnUse">
   <stop style="stop-color:#b3b3b3" offset="0"/>
   <stop style="stop-color:#d9d9d9" offset="1"/>
  </linearGradient>
  <filter id="filter920" x="-.07" y="-.05" width="1.137" height="1.107" style="color-interpolation-filters:sRGB">
   <feGaussianBlur stdDeviation=".756"/>
  </filter>
 </defs>
 <g transform="translate(0,-229.26665)">
  <path d="m33.146038 233.55533c-4.106758 0-8.008176 1.19516-8.008176 1.19516l-1.325362 0.40357v6.28342c-3.844034 0.68117-7.598782 1.79455-11.192778 3.31894l-0.0075 3.73338h-3.7334159l0.0098 3.98964h3.7236619l0.01505 33.34458c0 1.63895 0.149332 2.94192 0.56002 4.03958 0.414412 1.09781 1.161086 1.97124 2.101912 2.49391 1.877907 1.04557 4.181424 0.93269 7.291359 0.93269h21.146063c3.109936 0 5.413452 0.11282 7.29136-0.93269 0.940822-0.5221 1.680037-1.39695 2.090713-2.49391 0.410673-1.09781 0.571209-2.40063 0.571209-4.03958l-0.0076-34.67624h-3.989644c0.432156 2e-3 -8.737534 1.33166 7.879479 1.33166v-3.98964l-3.889842-2e-3 0.0075-3.73336c-3.596114-1.52568-7.353483-2.63909-11.200245-3.31894v-6.20131l-1.232019-0.44447s-3.408609-1.23186-8.101509-1.23186zm0 3.73337c3.322737 0 4.816102 0.57854 5.60012 0.82124v2.75904c-1.857309-0.20396-3.724189-0.30852-5.592656-0.31327-1.874173 0-3.744614 0.11282-5.607588 0.32173v-2.74041c0.993087-0.26105 2.882195-0.84804 5.600124-0.84804z" font-size="15" font-weight="400" letter-spacing="0" word-spacing="0" style="fill:#060606;filter:url(#filter1588);opacity:.2"/>
  <path d="m33.146038 233.55533c-4.106758 0-8.008176 1.19516-8.008176 1.19516l-1.325362 0.40357v6.28342c-3.844034 0.68117-7.598782 1.79455-11.192778 3.31894l-0.0075 3.73338h-3.7334159l0.0098 3.98964h3.7236619l0.01505 33.34458c0 1.63895 0.149332 2.94192 0.56002 4.03958 0.414412 1.09781 1.161086 1.97124 2.101912 2.49391 1.877907 1.04557 4.181424 0.93269 7.291359 0.93269h21.146063c3.109936 0 5.413452 0.11282 7.29136-0.93269 0.940822-0.5221 1.680037-1.39695 2.090713-2.49391 0.410673-1.09781 0.571209-2.40063 0.571209-4.03958l-0.0076-34.67624h-3.989644c0.432156 2e-3 -8.737534 1.33166 7.879479 1.33166v-3.98964l-3.889842-2e-3 0.0075-3.73336c-3.596114-1.52568-7.353483-2.63909-11.200245-3.31894v-6.20131l-1.232019-0.44447s-3.408609-1.23186-8.101509-1.23186zm0 3.73337c3.322737 0 4.816102 0.57854 5.60012 0.82124v2.75904c-1.857309-0.20396-3.724189-0.30852-5.592656-0.31327-1.874173 0-3.744614 0.11282-5.607588 0.32173v-2.74041c0.993087-0.26105 2.882195-0.84804 5.600124-0.84804z" font-size="15" font-weight="400" letter-spacing="0" word-spacing="0" style="fill:#060606;filter:url(#filter1574);opacity:.1"/>
  <path d="m33.146038 233.55533c-4.106758 0-8.008176 1.19516-8.008176 1.19516l-1.325362 0.40357v6.28342c-3.844034 0.68117-7.598782 1.79455-11.192778 3.31894l-0.0075 3.73338h-3.7334159l0.0098 3.98964h3.7236619l0.01505 33.34458c0 1.63895 0.149332 2.94192 0.56002 4.03958 0.414412 1.09781 1.161086 1.97124 2.101912 2.49391 1.877907 1.04557 4.181424 0.93269 7.291359 0.93269h21.146063c3.109936 0 5.413452 0.11282 7.29136-0.93269 0.940822-0.5221 1.680037-1.39695 2.090713-2.49391 0.410673-1.09781 0.571209-2.40063 0.571209-4.03958l-0.0076-34.67624h-3.989644c0.432156 2e-3 -8.737534 1.33166 7.879479 1.33166v-3.98964l-3.889842-2e-3 0.0075-3.73336c-3.596114-1.52568-7.353483-2.63909-11.200245-3.31894v-6.20131l-1.232019-0.44447s-3.408609-1.23186-8.101509-1.23186zm0 3.73337c3.322737 0 4.816102 0.57854 5.60012 0.82124v2.75904c-1.857309-0.20396-3.724189-0.30852-5.592656-0.31327-1.874173 0-3.744614 0.11282-5.607588 0.32173v-2.74041c0.993087-0.26105 2.882195-0.84804 5.600124-0.84804z" font-size="15" font-weight="400" letter-spacing="0" word-spacing="0" style="fill:url(#linearGradient918)"/>
  <rect x="12.62" y="252.49" width="41.037" height="1.058" ry="0" style="opacity:.4"/>
  <path d="m33.415138 233.57388v3.7269c3.110437 0.034 4.571278 0.5741 5.33094 0.80926v2.759c-1.770594-0.19444-3.549867-0.29199-5.33094-0.30541v52.7265h10.311515c3.109936 0 5.413636 0.11275 7.291544-0.93276 0.940822-0.5221 1.679636-1.39694 2.090312-2.4939 0.410673-1.09781 0.571541-2.4006 0.571541-4.03955l-0.0072-33.38814c1.147219 0.0219 2.3026 0.0434 3.889168 0.0434v-3.98942l-3.889685-2e-3 0.0078-3.73311c-3.596114-1.52568-7.353588-2.63932-11.20035-3.31917v-6.20118l-1.231966-0.44441s-3.290071-1.16696-7.832596-1.21595z" style="fill:#383838;opacity:.15"/>
  <path transform="matrix(.26458333 0 0 .26458333 0 229.26665)" d="m125.27539 16.208984c-15.5216 0-30.265624 4.517578-30.265624 4.517578l-5.009766 1.525391v2l5.009766-1.525391s14.744024-4.517578 30.265624-4.517578l0.00195 0.009766c17.73695 0 30.61914 4.65625 30.61914 4.65625l4.65625 1.679688v-2l-4.65625-1.679688s-12.88219-4.65625-30.61914-4.65625l-0.00195-0.009766zm0.0293 26.458985c-7.08349 0-14.1522 0.425262-21.19336 1.214843v2c7.04116-0.789581 14.10987-1.214843 21.19336-1.214843 7.06192 0.017953 14.11697 0.412721 21.13672 1.183593v-2c-7.01975-0.770872-14.0748-1.16564-21.13672-1.183593zm35.24804 3.324219v2c14.53752 2.569259 28.73773 6.777492 42.32813 12.542968l0.00391-1.998047c-13.59162-5.766349-27.79309-9.97541-42.33204-12.544921zm-70.55273 0.007812c-14.528632 2.574501-28.719127 6.783448-42.302734 12.544922l-0.029297 14.109375h-14.109375l0.005859 2h14.103516l0.029297-14.109375c13.583607-5.761474 27.774102-9.970421 42.302734-12.544922v-2zm112.85938 26.646484-0.00391 2 14.70312 0.007813v-2l-14.69921-0.007813z" style="fill:#efefef;opacity:.2"/>
  <path transform="matrix(.26458333 0 0 .26458333 0 229.26665)" d="m125.27539 28.320312c-10.27249 0-17.41066 2.218433-21.16406 3.205079v2c3.7534-0.986646 10.89157-3.205079 21.16406-3.205079 12.55838 0 18.2028 2.186225 21.16602 3.103516v-2c-2.96322-0.917291-8.60764-3.103516-21.16602-3.103516zm77.60547 30.214844-0.02539 12.111328h0.00391l0.02539-12.109375c-0.00134-5.67e-4 -0.00257-0.001386-0.00391-0.001953zm-169.32227 14.119141 0.037109 15.078125h14.072266v-2h-14.072266l-0.03125-13.078125h-0.005859zm169.29883 12.947265v2c4.22907 0.07708 8.92991 0.13086 14.70117 0.13086v-2c-5.77126 0-10.4721-0.05378-14.70117-0.13086zm-155.13281 126.15821v2c0 6.19445 0.564981 11.11894 2.117188 15.26757 1.566281 4.14921 4.389435 7.45034 7.945312 9.42578 7.097602 3.95177 15.802556 3.5254 27.556641 3.5254h79.92187c11.75409 0 20.46099 0.42614 27.5586-3.5254 3.55586-1.97329 6.35018-5.27979 7.90234-9.42578 1.55215-4.1492 2.15821-9.07312 2.15821-15.26757v-1.9668c-0.00222 6.17847-0.6089 11.09277-2.15821 15.23437-1.55216 4.14599-4.34648 7.45249-7.90234 9.42578-7.09761 3.95154-15.80451 3.5254-27.5586 3.5254h-79.92187c-11.754085 0-20.459039 0.42637-27.556641-3.5254-3.555877-1.97544-6.379031-5.27657-7.945312-9.42578-1.552207-4.14863-2.117188-9.07312-2.117188-15.26757z" style="fill:#100000;opacity:.2"/>
  <g transform="matrix(.16778551 0 0 .14500074 5.2167631 240.13154)" style="fill:#070404;opacity:.4">
   <rect x="94.43" y="123.13" width="24.946" height="189.593" rx="12" ry="12" style="fill:#070404"/>
   <rect x="154.43" y="123.13" width="24.946" height="189.593" rx="12" ry="12" style="fill:#070404"/>
   <rect x="214.43" y="123.13" width="24.946" height="189.593" rx="12" ry="12" style="fill:#070404"/>
  </g>
  <g transform="translate(3.7041668 .81277545)">
   <path transform="matrix(1.0532938,0,0,1.0562147,-3.0644881,-17.221521)" d="m36.978259 293.00805c-5.239861-0.22199-5.917947-0.31985-6.271133-0.90489-0.249405-0.41313 0.154163-1.28037 0.238543-1.76681 0.109724-0.6325 0.360396-2.03462 0.360396-2.03462l0.878133-5.94331c1.460913-9.88765 0.832003-12.48997 1.909987-14.41921 0.760868-1.36172 2.71277-2.34918 5.553801-2.80969 2.249077-0.36455 2.137783-0.2352 1.161377-1.35018-0.96754-1.10492-1.426915-2.17923-0.995006-2.76919 0.265019-0.36201 0.660066-0.21113 1.418048 0 2.268878 1.56847 0.850829-0.31371 1.13444-0.9411 0.283609-0.62738 0.356114-0.39387 0.567219-0.62738 0.704814-0.77956 1.515354 0.61372 1.681618 1.61748 0.303649 1.83317 0.02969 0.32153 0.870868-0.36271 0.867468-0.7056 1.574814-0.40246 2.164741 0.20787 0.861049 0.89083 0.840161 1.04009-0.218977 1.56485-1.791744 0.25794-1.378543 1.05055-1.945764 1.99165-0.283608 0.62739 0.7079 0.52106 1.701659 0.62739 0.640598 0.0685 1.839957 0.20528 2.526312 0.39456 2.576988 0.71063 3.67124 1.52882 4.372033 3.269 0.840409 2.08684 0.864275 4.32981 1.534621 14.03803 0.358937 5.19824 0.642546 5.19824 0.926155 6.45303 0.28361 0.94108 0.777594 2.44493 0.527357 2.85946-0.32396 0.53662-1.025935 0.65217-4.912561 0.80861-7.633578 0.30728-9.868625 0.32144-15.183868 0.0962zm7.378537-20.56044c0.28264-0.31262 0.321776-2.3619-0.0048-4.53614-0.319879-2.13043-0.726563-2.05342-1.115725 0.43557-0.310731 1.98735-0.163992 3.43198 0.264895 3.95618 0.348539 0.42596 0.584448 0.4442 0.855518 0.14429zm-5.393268-2.34027c0.472521-0.53657 1.253946-2.24496 1.746621-3.03509 0.994314-1.59466 0.911913-1.61284-0.898093-0.19831-1.305189 1.02001-2.41032 2.35292-2.41032 2.90711 0 0.99885 0.504328 1.52704 1.561792 0.32629zm11.082968-0.0137c0.354486-0.73264 0.710739-1.18036-1.440239-2.80951-0.679153-0.5144-2.477072-1.56964-2.518818-1.52347-0.135631 0.14997 1.437094 3.285 2.252236 4.12835 0.89043 0.92126 1.453545 0.72808 1.706821 0.20463z" style="fill:#393939;filter:url(#filter920);opacity:.3"/>
   <path d="m45.983891 263.01476a4.0007313 1.6903336 47.032273 0 0-0.607726 0.25061 4.0007313 1.6903336 47.032273 0 0 1.60067 4.12764 4.0007313 1.6903336 47.032273 0 0 3.920319 1.66042 4.0007313 1.6903336 47.032273 0 0-1.600669-4.12764 4.0007313 1.6903336 47.032273 0 0-3.312594-1.91103zm-5.99752 0.24585a1.6903336 4.0007313 42.967727 0 0-3.311951 1.91102 1.6903336 4.0007313 42.967727 0 0-1.600665 4.12765 1.6903336 4.0007313 42.967727 0 0 3.920314-1.66042 1.6903336 4.0007313 42.967727 0 0 1.60067-4.12765 1.6903336 4.0007313 42.967727 0 0-0.608368-0.2506zm3.265 0.23768a1.6464076 4.1074703 1.6425277 0 0-1.765943 4.05158 1.6464076 4.1074703 1.6425277 0 0 1.524784 4.15958 1.6464076 4.1074703 1.6425277 0 0 1.765942-4.05159 1.6464076 4.1074703 1.6425277 0 0-1.524783-4.15957z" style="fill:#d0d0d0"/>
   <path d="m35.884481 292.25786c-5.519113-0.23447-6.233338-0.33784-6.605345-0.95576-0.262697-0.43636 0.162378-1.35235 0.251255-1.86614 0.115572-0.66805 0.379603-2.14899 0.379603-2.14899l0.924932-6.27741c1.538771-10.44348 0.876344-13.19209 2.011778-15.22978 0.801417-1.43827 2.857344-2.48123 5.849784-2.96764 2.368939-0.38504 2.251713-0.24841 1.223271-1.42607-1.019103-1.16703-1.50296-2.30174-1.048033-2.92486 0.279142-0.38237 0.695243-0.22301 1.493621 0 2.389794 1.65663 0.896172-0.33135 1.194899-0.994 0.298722-0.66266 0.375093-0.41601 0.597448-0.66266 0.742376-0.82338 1.596113 0.64822 1.771237 1.70841 0.319832 1.93621 0.03128 0.3396 0.91728-0.3831 0.913698-0.74526 1.658742-0.42509 2.280109 0.21955 0.906938 0.94091 0.884935 1.09855-0.230647 1.65282-1.887234 0.27245-1.452012 1.1096-2.049462 2.10362-0.298722 0.66265 0.745626 0.55034 1.792347 0.66265 0.674738 0.0724 1.938015 0.21683 2.660949 0.41674 2.714325 0.75058 3.866893 1.61476 4.605036 3.45277 0.885195 2.20415 0.910333 4.5732 1.616405 14.82717 0.378066 5.49046 0.676789 5.49046 0.975514 6.81579 0.298725 0.99398 0.819036 2.58236 0.555461 3.0202-0.341226 0.56678-1.080609 0.68882-5.17437 0.85407-8.040399 0.32455-10.394561 0.33951-15.993073 0.1016zm7.771767-21.71625c0.297702-0.33019 0.338925-2.49467-0.0051-4.79113-0.336925-2.2502-0.765283-2.16885-1.175187 0.46006-0.327289 2.09907-0.172731 3.62491 0.279013 4.17857 0.367114 0.44991 0.615595 0.46917 0.901111 0.1524zm-5.680696-2.47183c0.497704-0.56672 1.320774-2.37115 1.839706-3.2057 1.047304-1.6843 0.960512-1.70349-0.945956-0.20946-1.374747 1.07736-2.538775 2.48519-2.538775 3.07054 0 1.055 0.531205 1.61288 1.645025 0.34462zm11.673621-0.0145c0.373378-0.77383 0.748617-1.24672-1.516995-2.96745-0.715346-0.54331-2.609083-1.65787-2.653053-1.60911-0.142862 0.1584 1.513681 3.46967 2.372264 4.36043 0.937885 0.97305 1.531011 0.76901 1.797784 0.21613z" style="fill:#434343"/>
   <path d="m41.568534 257.44973c-0.0031 6e-3 -0.0052 0.0106-0.0082 0.0174-0.108077 0.23975 0.01843 0.65172 0.110788 1.00307 0.187458-0.099-0.0051-0.57789-0.10256-1.02048zm-2.830426 1.2978c-0.175964 0.65096 0.303143 1.63247 1.181928 2.63881 0.185817 0.21277 0.327376 0.37123 0.444413 0.50903 0.487172-0.15804 0.209331-0.3751-0.444413-1.12371-0.633573-0.72554-1.059077-1.43874-1.181928-2.02413zm8.897708 0.19028c-0.138253 0.13508-0.382293 0.27187-0.74005 0.44961-1.887232 0.27244-1.45241 1.10996-2.04986 2.10397-0.09852 0.21854-0.0487 0.35179 0.09686 0.43759 0.456795-0.9155 0.178703-1.67074 1.953001-1.92687 0.829199-0.41199 1.051601-0.60606 0.740049-1.0643zm-18.401894 31.6489c-0.05235 0.27803-0.0623 0.53737 0.04495 0.71553 0.372004 0.61792 1.086271 0.72117 6.605384 0.95564v-1e-3c5.598513 0.23787 7.952689 0.22312 15.993087-0.10139 4.093759-0.16526 4.833436-0.28743 5.174662-0.8542 0.08341-0.13855 0.08288-0.39941 0.04116-0.71312-0.01074 0.0373-0.02418 0.0702-0.04116 0.0984-0.341226 0.56677-1.080903 0.68896-5.174662 0.85418-8.040398 0.32455-10.394574 0.33931-15.993087 0.1014v1e-3c-5.519113-0.23447-6.23338-0.3377-6.605384-0.95563-0.01867-0.031-0.03286-0.0653-0.04495-0.10087z" style="fill:#535353;opacity:.3"/>
   <path d="m42.582072 256.56553c-0.14182 0.0109-0.284959 0.0845-0.424155 0.23891-0.222354 0.24663-0.298888 5e-5 -0.597611 0.6627-0.06766 0.15009-0.04205 0.36897 0.0082 0.59727 0.291099-0.63726 0.369335-0.40122 0.589382-0.64528 0.742379-0.8234 1.596188 0.64819 1.771312 1.70836 0.319833 1.93623 0.03068 0.33974 0.916677-0.38297 0.913698-0.74526 1.658929-0.42493 2.280297 0.21971 0.232822 0.24153 0.402013 0.42999 0.509613 0.58827 0.292861-0.28615 0.106477-0.56379-0.509613-1.20296-0.621367-0.64464-1.366598-0.96496-2.280296-0.21969-0.886006 0.7227-0.596844 2.31917-0.916677 0.38298-0.142288-0.86142-0.732613-1.99435-1.347156-1.9473zm-3.325485 1.66876c-0.156136 0.0163-0.280226 0.0835-0.384903 0.22691-0.172099 0.23573-0.208329 0.54479-0.133576 0.90101 0.0281-0.10394 0.07094-0.20053 0.133576-0.28633 0.279142-0.38235 0.69502-0.223 1.493397 0 1.525187 1.05728 1.468925 0.62877 1.306013 0.01-0.142814 0.0754-0.506706-0.0696-1.306013-0.62368-0.498986-0.13937-0.84827-0.25397-1.108494-0.22691zm1.107862 4.27577c-0.279227 0.0906-0.805032 0.16164-1.668124 0.30192-2.992439 0.4864-5.04809 1.52951-5.849507 2.96777-1.135435 2.0377-0.473105 4.78608-2.011876 15.22958l-0.924907 6.27767s-0.264267 1.48092-0.379837 2.14899c-0.08255 0.47727-0.454302 1.30087-0.296276 1.76539 0.07587-0.40296 0.243683-0.8467 0.296276-1.15071 0.11557-0.66807 0.379837-2.14899 0.379837-2.14899l0.924907-6.27768c1.538771-10.44348 0.876441-13.19188 2.011876-15.22957 0.801417-1.43826 2.857068-2.48137 5.849507-2.96775 1.94093-0.31549 2.198851-0.29176 1.668124-0.91662zm4.578316 0.0336c-0.02907 0.0583-0.06111 0.1176-0.09686 0.17709-0.298724 0.66265 0.746115 0.55038 1.792836 0.66269 0.674738 0.0723 1.937832 0.21668 2.660765 0.41659 2.714326 0.75058 3.866766 1.61479 4.604907 3.45279 0.885195 2.20415 0.910772 4.57282 1.616845 14.82678 0.378063 5.49047 0.676193 5.49081 0.974915 6.81613 0.20419 0.67942 0.506841 1.62929 0.596982 2.30686 0.15607-0.54148-0.317489-1.99154-0.596982-2.92153-0.298722-1.32534-0.596852-1.32567-0.974915-6.81613-0.706073-10.25397-0.73165-12.62263-1.616845-14.82678-0.738141-1.83801-1.890581-2.7022-4.604907-3.45279-0.722933-0.19992-1.986027-0.34422-2.660765-0.41659-0.701502-0.0753-1.40018-0.0507-1.695976-0.22511z" style="fill:#ffffff;opacity:.1"/>
  </g>
 </g>
</svg>
