<svg height="16" width="16" xmlns="http://www.w3.org/2000/svg">
  <path d="m6.25 1-.16 1.84a5.5 5.5 0 0 0 -1.6.93l-1.68-.79-1.75 3.03 1.52 1.06a5.5 5.5 0 0 0 -.08.93 5.5 5.5 0 0 0 .08.93l-1.52 1.05 1.75 3.03 1.67-.79a5.5 5.5 0 0 0 1.61.93l.16 1.85h3.5l.15-1.85a5.5 5.5 0 0 0 1.61-.93l1.68.79 1.75-3.03-1.53-1.06a5.5 5.5 0 0 0 .09-.92 5.5 5.5 0 0 0 -.08-.94l1.52-1.05-1.75-3.03-1.68.79a5.5 5.5 0 0 0 -1.61-.93l-.15-1.84zm1.75 5a2 2 0 0 1 2 2 2 2 0 0 1 -2 2 2 2 0 0 1 -2-2 2 2 0 0 1 2-2z" fill="#474747"/>
</svg>
