<svg height="16" width="16" xmlns="http://www.w3.org/2000/svg">
  <g fill="#474747">
    <path d="m4 1v2h8v-2zm-2 3c-.5 0-1 .5-1 1v4c0 .5.5 1 1 1h1v-2h5.125a3.66 3.66 0 0 1 2.531-1.031c1.782 0 3.291 1.28 3.625 2.968.393-.137.72-.53.72-.937v-4c0-.5-.5-1-1-1zm2 5v5h5.094a3.709 3.709 0 0 1 -2.125-3.344c0-.595.152-1.156.406-1.656z"/>
    <path d="m10.656 7.938a2.726 2.726 0 0 0 -2.718 2.718 2.726 2.726 0 0 0 2.718 2.719c.488 0 .948-.148 1.344-.375a.75.75 0 0 0 .156.219l1.844 1.811a.751.751 0 1 0 1.063-1.062l-1.844-1.813a.75.75 0 0 0 -.219-.155c.227-.396.375-.857.375-1.344a2.726 2.726 0 0 0 -2.719-2.719zm0 1c.956 0 1.72.763 1.72 1.718s-.764 1.719-1.72 1.719a1.711 1.711 0 0 1 -1.718-1.719c0-.955.763-1.719 1.718-1.719z"/>
  </g>
</svg>
