<svg height="16" width="16" xmlns="http://www.w3.org/2000/svg">
  <g fill="#474747" fill-rule="evenodd">
    <path d="m2.679 10.293 5.849-5.851 3 3-5.83 5.873-4.026 1.072z"/>
    <path d="m5.014.014c-1.333 0-2.274.816-2.644 1.553-.37.739-.356 1.447-.356 1.447v1.586l-.283-.283-.008-.01a1.002 1.002 0 0 0 -.707-.293h-1v1a1 1 0 0 0 .293.707l2.707 2.707 2.697-2.697a.999.999 0 0 0 .303-.717v-1h-1a1 1 0 0 0 -.707.293l-.293.293v-1.586s.014-.291.145-.552c.13-.262.189-.448.855-.448h5.96l-1.663 1.66 3.053 3.053 1.77-1.77a.783.783 0 0 0 0-1.109l-1.837-1.834-1.584-1.41c-.447-.381-.887-.59-1.699-.59z"/>
  </g>
</svg>
