<svg height="16" width="16" xmlns="http://www.w3.org/2000/svg">
  <g fill="#474747">
    <path d="m6 .05v2h6c.428 0 1 .613 1 1v1h-5c-.92 0-1.735.383-2.25.968a3.017 3.017 0 0 0 -.75 2.031c.006.72.27 1.453.781 2.032.513.578 1.31.968 2.22.968h7v-7a3 3 0 0 0 -3-3zm2 6h5v2h-5c-.398 0-.567-.11-.719-.282a1.144 1.144 0 0 1 -.28-.719c-.003-.28.104-.553.25-.718.144-.166.327-.282.75-.282z"/>
    <path d="m4 15h-1c-.265 0-.53-.093-.719-.281l-2-2-.281-.282v-.874l.281-.282 2-2c.189-.188.454-.281.719-.281h1v1c0 .265-.093.53-.281.719l-1.281 1.281 1.28 1.281c.189.188.282.454.282.719z"/>
    <path d="m2 11v2h12.938v-2z"/>
  </g>
</svg>
