<svg height="16" width="16" xmlns="http://www.w3.org/2000/svg">
  <g fill="#474747">
    <path d="m11 12h-1c-.257 0-.528.118-.719.284l-1.28 1.163-1.282-1.163a1.145 1.145 0 0 0 -.719-.284h-1v.908c0 .28.09.501.281.68l2.72 2.412 2.718-2.411a.88.88 0 0 0 .281-.681z"/>
    <path d="m4 0v2h6c.428 0 1 .614 1 1v1h-5c-.92 0-1.736.38-2.25.965a3.037 3.037 0 0 0 -.736 2.045 3.08 3.08 0 0 0 .758 2.027c.512.579 1.32.963 2.228.963h7v-7a3 3 0 0 0 -3-3zm2 6h5v2h-5c-.398 0-.579-.116-.73-.287a1.138 1.138 0 0 1 -.256-.723c-.003-.28.093-.54.238-.705s.326-.285.748-.285z"/>
  </g>
</svg>
