<svg height="15.982" width="16" xmlns="http://www.w3.org/2000/svg">
  <g fill="#474747">
    <path d="m11.001 11.986h-1c-.257 0-.528.109-.719.261l-1.281 1.07-1.281-1.07a1.202 1.202 0 0 0 -.72-.26h-1v.835c0 .258.09.461.282.626l2.741 2.534 2.697-2.534a.78.78 0 0 0 .281-.626z"/>
    <path d="m9.804 4.04a.936 1.01 0 0 0 .185 1.997h4.937a.936 1.01 0 1 0 0-1.997h-4.937a.936 1.01 0 0 0 -.185 0zm-8.991 0c-.45.102-.789.599-.743 1.088.046.49.47.904.93.91h4.916c.535.085 1.084-.42 1.084-1 0-.578-.549-1.084-1.084-.998h-4.916a.834.834 0 0 0 -.187 0zm5.246-3.076a2.492 2.492 0 0 0 -1.907 1.468 2.686 2.686 0 0 0 -.156.532h8.004c-.026-.126-.054-.263-.094-.375a2.467 2.467 0 0 0 -2.343-1.625h-3.13c-.126 0-.252-.019-.374 0zm-2.063 6c.236 1.132 1.24 2 2.438 2h3.129c1.197 0 2.202-.868 2.437-2z"/>
  </g>
</svg>
