<svg height="16" width="16" xmlns="http://www.w3.org/2000/svg">
  <path d="m1 1v5h5v-5zm9 0v5h5v-5zm-8 1h3v3h-3zm5 0v2h1v1h1v-1-1h-1v-1zm1 3h-1v1 1h1v-1zm-1 2h-1v1h-1v1h2zm0 2v1h1v-1zm1 0h3v-2h-1v1h-2zm3 0v1h1v1h1v-2zm0 1h-1v1h1zm-1 1h-2v1h2zm0 1v1h1v-1zm1 1v1h1v-1zm1 0h2v-1h-2zm2 0v2h1v-1-1zm-2 1v1h1v-1zm-1 0h-3-1v1h4zm-3-2h-1v1h1zm-3-4v-1h-2v1zm-2 0h-1v-1h-1v2h2zm8-6h3v3h-3zm-8 1v1h1v-1zm9 0v1h1v-1zm0 4v1h2v1h1v-1-1h-1zm-11 3v5h4.0722656.9277344v-5zm13 0v1h1v-1zm-12 1h3v3h-3zm1 1v1h1v-1z" fill="#474747"/>
</svg>
