<svg height="16.014" width="16" xmlns="http://www.w3.org/2000/svg">
  <g fill="#474747">
    <path d="m5.04 1.815a1 1 0 0 0 -.546.14 7.009 7.009 0 0 0 -3.254 7.87 7.006 7.006 0 0 0 6.75 5.19 7.007 7.007 0 0 0 6.766-5.17 7.01 7.01 0 0 0 -3.233-7.88 1 1 0 1 0 -1.007 1.729 4.991 4.991 0 0 1 2.308 5.627 4.99 4.99 0 0 1 -4.832 3.693 4.989 4.989 0 0 1 -4.82-3.707 4.992 4.992 0 0 1 2.324-5.62 1 1 0 0 0 -.457-1.872z"/>
    <path d="m7.984 0a1 1 0 0 0 -.984 1.015v5a1 1 0 1 0 2 0v-5a1 1 0 0 0 -1.016-1.014z"/>
  </g>
</svg>
