<svg height="16" width="16" xmlns="http://www.w3.org/2000/svg">
  <g fill="#474747">
    <path d="m4.25 4h1.5c.1385 0 .25.1115.25.25v1.5c0 .1385-.1115.25-.25.25h-1.5c-.1385 0-.25-.1115-.25-.25v-1.5c0-.1385.1115-.25.25-.25z"/>
    <path d="m7.25 4h1.5c.1385 0 .25.1115.25.25v1.5c0 .1385-.1115.25-.25.25h-1.5c-.1385 0-.25-.1115-.25-.25v-1.5c0-.1385.1115-.25.25-.25z"/>
    <path d="m10.25 4h1.5c.139 0 .25.1115.25.25v1.5c0 .1385-.111.25-.25.25h-1.5c-.138 0-.25-.1115-.25-.25v-1.5c0-.1385.112-.25.25-.25z"/>
    <path d="m4.25 7h1.5c.1385 0 .25.1115.25.25v1.5c0 .1385-.1115.25-.25.25h-1.5c-.1385 0-.25-.1115-.25-.25v-1.5c0-.1385.1115-.25.25-.25z"/>
    <path d="m7.25 7h1.5c.1385 0 .25.1115.25.25v1.5c0 .1385-.1115.25-.25.25h-1.5c-.1385 0-.25-.1115-.25-.25v-1.5c0-.1385.1115-.25.25-.25z"/>
    <path d="m10.25 7h1.5c.139 0 .25.1115.25.25v1.5c0 .1385-.111.25-.25.25h-1.5c-.138 0-.25-.1115-.25-.25v-1.5c0-.1385.112-.25.25-.25z"/>
    <path d="m4.25 10h1.5c.1385 0 .25.112.25.25v1.5c0 .139-.1115.25-.25.25h-1.5c-.1385 0-.25-.111-.25-.25v-1.5c0-.138.1115-.25.25-.25z"/>
    <path d="m7.25 10h1.5c.1385 0 .25.112.25.25v1.5c0 .139-.1115.25-.25.25h-1.5c-.1385 0-.25-.111-.25-.25v-1.5c0-.138.1115-.25.25-.25z"/>
    <path d="m10.25 10h1.5c.139 0 .25.112.25.25v1.5c0 .139-.111.25-.25.25h-1.5c-.138 0-.25-.111-.25-.25v-1.5c0-.138.112-.25.25-.25z"/>
  </g>
</svg>
