<svg height="16" width="16" xmlns="http://www.w3.org/2000/svg">
  <path d="m3.994 3c.554 0 1 .446 1 1s-.446 1-1 1-1-.446-1-1 .446-1 1-1zm4 0c.554 0 1 .446 1 1s-.446 1-1 1-1-.446-1-1 .446-1 1-1zm4 0c.554 0 1 .446 1 1s-.446 1-1 1-1-.446-1-1 .446-1 1-1zm-8 4c.554 0 1 .446 1 1s-.446 1-1 1-1-.446-1-1 .446-1 1-1zm4 0c.554 0 1 .446 1 1s-.446 1-1 1-1-.446-1-1 .446-1 1-1zm4 0c.554 0 1 .446 1 1s-.446 1-1 1-1-.446-1-1 .446-1 1-1zm-8 4c.554 0 1 .446 1 1s-.446 1-1 1-1-.446-1-1 .446-1 1-1zm4 0c.554 0 1 .446 1 1s-.446 1-1 1-1-.446-1-1 .446-1 1-1zm4 0c.554 0 1 .446 1 1s-.446 1-1 1-1-.446-1-1 .446-1 1-1z" fill="#474747"/>
</svg>
