<svg height="16" width="16.006" xmlns="http://www.w3.org/2000/svg">
  <g fill="#474747">
    <path d="m2 0c-.861 0-1.43.321-1.713.7-.283.376-.287.8-.287.8v13s.004.423.287.8c.284.379.852.7 1.713.7a.5.5 0 0 0 .307-.104l5.5-4.25a.5.5 0 0 0 .193-.396v-6.75a.5.5 0 0 0 -.205-.404l-5.5-4a.5.5 0 0 0 -.295-.096zm-.113 1.037 5.113 3.719v6.248l-5.121 3.956c-.455-.037-.712-.156-.791-.262-.092-.121-.088-.198-.088-.198v-13s-.004-.077.088-.2c.08-.106.333-.227.799-.263z" fill-rule="evenodd"/>
    <path d="m1 1h1v14h-1z"/>
    <path d="m14 0a.5.5 0 0 0 -.295.096l-5.5 4a.5.5 0 0 0 -.205.404v6.75a.5.5 0 0 0 .193.396l5.5 4.25a.5.5 0 0 0 .307.104c.861 0 1.43-.321 1.713-.7.283-.377.287-.8.287-.8v-13s-.004-.423-.287-.8c-.284-.38-.853-.7-1.713-.7zm0 1.12v13.747l-5-3.863v-6.248z" fill-rule="evenodd" opacity=".5"/>
  </g>
</svg>
