<svg height="16" width="16" xmlns="http://www.w3.org/2000/svg">
  <g fill="#444" transform="translate(-31.97559 -220.36218)">
    <path d="m34.541788 222.36336-.5.5v7.52344c.01241.99754 1.010169 2.02365 1.994369 2.00781h7.990085c1.22279-.007 2.061362-.72154 2.046796-2.0026v-7.52865l-.5-.5zm.5 1h10.03125v7.02889c.02801.53221-.244067 1.00993-1.038563 1.00236h-7.98727c-.547572 0-1.025146-.51078-1.005417-.99981z"/>
    <path d="m33.034131 222.38623c.0036.44903.490704 1.02938 1.001458 1.00553h12.14143c.470758.006.86089-.50027.86089-.97242s-.395656-1.04197-.866414-1.03586l-12.135906.0166c-.543543-.003-.999578.47629-1.001458.98615z"/>
    <path d="m40.140409 233.04487c-.237096.79317-1.505881 2.0046-3.056843 2.76451-.803949-.0413-.832493-.57613-.676565-.83327 1.369137-.6708 2.409257-1.34805 2.599709-1.9818l1.133699.0515z"/>
    <path d="m39.029302 232.07845h2.033338v1.30935h-2.033338z"/>
    <path d="m39.926047 233.04487c.237096.79317 1.505881 2.0046 3.056843 2.76451.803949-.0413.832493-.57613.676565-.83327-1.369137-.6708-2.409257-1.34805-2.599709-1.9818l-1.133699.0515z"/>
    <path d="m36.035402 214.22559.01755-5.5052.01755-5.50521 4.758872 2.7678 4.758873 2.76781-4.776425 2.73741z" opacity=".99"/>
    <path d="m13.59375 203.95269-.5.5v7.52344c.01241.99754 1.010169 2.02365 1.994369 2.00781h7.990085c1.22279-.007 2.061362-.72154 2.046796-2.0026v-7.52865l-.5-.5zm.5 1h10.03125v7.02889c.02801.53221-.244067 1.00993-1.038563 1.00236h-7.98727c-.547572 0-1.025146-.51078-1.005417-.99981z"/>
    <path d="m12.086093 203.97556c.0036.44903.490704 1.02938 1.001458 1.00553h12.14143c.470758.006.86089-.50027.86089-.97242s-.395656-1.04197-.866414-1.03586l-12.135906.0166c-.543543-.003-.999578.47629-1.001458.98615z"/>
    <path d="m19.192371 214.6342c-.237096.79317-1.505881 2.0046-3.056843 2.76451-.803949-.0413-.832493-.57613-.676565-.83327 1.369137-.6708 2.409257-1.34805 2.599709-1.9818l1.133699.0515z"/>
    <path d="m18.081264 213.66778h2.033338v1.30935h-2.033338z"/>
    <path d="m18.978009 214.6342c.237096.79317 1.505881 2.0046 3.056843 2.76451.803949-.0413.832493-.57613.676565-.83327-1.369137-.6708-2.409257-1.34805-2.599709-1.9818l-1.133699.0515z"/>
    <path d="m17.6875 206.39019a.50024408.50024408 0 1 0 -.25.96875l2.78125 1.53125-2.84375 1.53125a.50005.50005 0 1 0 .46875.875l3.65625-1.96875a.50005.50005 0 0 0 0-.875l-3.5625-1.96875a.50005.50005 0 0 0 -.25-.0937z" opacity=".75"/>
    <path d="m36.00559 224.42218h8.031v5.969h-8.031z" opacity=".3"/>
  </g>
</svg>
