<svg height="16" width="16" xmlns="http://www.w3.org/2000/svg">
  <path d="m4.7890625 2-3.7890625 11h1.90625l.6796875-2h3.8300781l.6875 2h1.8964844l-3.7890625-11zm.7089844 3.4375 1.1855469 3.5625h-2.3691407zm6.0019531 2.5625v1h3c.215 0 .5.305.5.5v.5h-2.5c-.46 0-.87.189375-1.125.484375-.255.29-.375.655625-.375 1.015625s.135625.725625.390625 1.015625.654375.484375 1.109375.484375h3.5v-3.5c0-.815-.66-1.5-1.5-1.5zm1 3h2.5v1h-2.5c-.2 0-.284375-.055625-.359375-.140625s-.140625-.219375-.140625-.359375.05-.274375.125-.359375c.075-.08.165-.140625.375-.140625z" fill="#474747"/>
</svg>
