<svg height="16" viewBox="0 0 16 16" width="16" xmlns="http://www.w3.org/2000/svg">
  <path d="m15 5h-2v-2.0683594c0-1.0697-.939069-1.9316406-2.105469-1.9316406h-5.789062c-1.166 0-2.105469.8619406-2.105469 1.9316406v10.1367184c0 1.07.939469 1.931641 2.105469 1.931641h5.789062c1.1664 0 2.105469-.861641 2.105469-1.931641v-2.068359h-2v1.998047c-.009-.002-.026269.001953-.105469.001953h-5.789062c-.079 0-.096469-.003953-.105469-.001953v-9.9941408c.009.0010001.026469-.0039062.105469-.0039062h5.789062c.0792 0 .09657.00491.105469.00391v1.99609h-2l3 4z" fill="#474747"/>
</svg>
