<svg height="16" width="16" xmlns="http://www.w3.org/2000/svg">
  <g fill="#e6ddff" transform="translate(-261.0002 -567)">
    <path d="m264.19571 567c-1.20159 0-2.19531 1.00125-2.19531 2.20117v7.59766c0 1.19992.99372 2.20117 2.19531 2.20117h6.60938c1.20159 0 2.19531-1.00125 2.19531-2.20117v-7.59766c0-1.19992-.99372-2.20117-2.19531-2.20117zm3.30469 2c1.92115 0 3.5 1.57885 3.5 3.5s-1.57885 3.49958-3.5 3.5h-3.50586l.006-3.5c-.0237-1.921 1.57885-3.5 3.5-3.5zm0 2c-.84027 0-1.5.65973-1.5 1.5s.65973 1.5 1.5 1.5 1.5-.65973 1.5-1.5-.65973-1.5-1.5-1.5z"/>
    <path d="m274.0004 571v2.1875 6.8125.8125c0 .1309-.0637.1875-.1875.1875h-6.625c-.1238 0-.1875-.0566-.1875-.1875v-.8125h-2v.8125c0 1.19992.9859 2.1875 2.1875 2.1875h6.625c1.2016 0 2.1875-.98758 2.1875-2.1875v-7.625c0-1.13596-.88628-2.08992-2-2.1875z"/>
  </g>
</svg>
