<svg xmlns="http://www.w3.org/2000/svg" width="16" height="16" version="1.1">
 <title id="title9167">
  Gnome Symbolic Icon Theme
 </title>
 <g id="layer10" transform="translate(-201,-467)">
  <path d="m 203.5002,468 c -1.385,0 -2.5,1.115 -2.5,2.5 l 0,8 c 0,1.385 1.115,2.5 2.5,2.5 l 0,-2 c -0.277,0 -0.5,-0.223 -0.5,-0.5 l 0,-1.5 0.5,0 11,0 0.5,0 0,1.5 c 0,0.277 -0.223,0.5 -0.5,0.5 l 0,2 c 1.385,0 2.5,-1.115 2.5,-2.5 l 0,-8 c 0,-1.385 -1.115,-2.5 -2.5,-2.5 l -11,0 z" style="fill:#E6DDFF"/>
  <path d="m 203.8752,478.03876 c 0,2.69092 2.29876,4.90426 5.11583,4.90426 2.81708,0 5.13418,-2.21334 5.13418,-4.90426 l -2.017,0 c 0,1.65243 -1.38729,2.97759 -3.11718,2.97759 -1.72988,0 -3.09884,-1.32516 -3.09884,-2.97759 z" style="fill:#E6DDFF"/>
  <path d="m 207.0002,478 c 0,1.09864 0.90135,2 2,2 1.09865,0 2,-0.90136 2,-2 l -1,0 c 0,0.5582 -0.44179,1 -1,1 -0.55821,0 -1,-0.4418 -1,-1 l -1,0 z" style="fill:#E6DDFF"/>
 </g>
</svg>
