<svg height="16" width="14" xmlns="http://www.w3.org/2000/svg">
  <g fill="#e6ddff" transform="translate(478 -447)">
    <path d="m-475.80469 447c-1.20159 0-2.19531 1.00125-2.19531 2.20117v11.59766c0 1.19992.99372 2.20117 2.19531 2.20117h9.60938c1.20159 0 2.19531-1.00125 2.19531-2.20117v-11.59766c0-1.19992-.99372-2.20117-2.19531-2.20117zm0 2h9.60938c.12379 0 .19531.0703.19531.20117v11.59766c0 .1309-.0715.20117-.19531.20117h-9.60938c-.12379 0-.19531-.07027-.19531-.20117v-11.59766c0-.1309.0715-.20117.19531-.20117z"/>
    <path d="m-471.15623 450c-.26556.0109-.54445.0586-.8125.125-2.14441.53085-3.4371 2.69934-2.90625 4.84375.4498 1.81699 2.07532 3.0225 3.86571 3.02533.16806.00027.33757-.0101.5077-.0315l-.3888-2.97965c-.0347.01-.0704.017-.10961.017-.55254 0-1-.44746-1-1s.44746-1 1-1 1 .44746 1 1c0 .11765-.0285.22486-.0726.32494l2.70058 1.38685c.38616-.83016.46978-1.78065.24701-2.68054-.46449-1.87636-2.1723-3.10719-4.03125-3.03125z"/>
    <path d="m-470.33903 455 1.33905 4c.73426 2.05595 3 .38433 1.4966-1z"/>
  </g>
</svg>
