<svg height="16" width="16" xmlns="http://www.w3.org/2000/svg">
  <g fill="#e6ddff" transform="translate(-281 -448)">
    <path d="m284.03 449c-1.6692 0-3.0312 1.3621-3.0312 3.0312v7.9375c0 1.6692 1.3621 3.0312 3.0312 3.0312h8.9375c1.6692 0 3.0312-1.3621 3.0312-3.0312v-7.9375c0-1.6692-1.3621-3.0312-3.0312-3.0312zm0 2h8.9375c.59578 0 1.0312.43547 1.0312 1.0312v5.9688h-11v-5.9688c0-.59578.43547-1.0312 1.0312-1.0312zm-1.0312 8h5v2h-3.9688c-.59578 0-1.0312-.43547-1.0312-1.0312v-.96875zm6 0h5v.96875c0 .59578-.43547 1.0312-1.0312 1.0312h-3.9688v-2z"/>
    <path d="m283 451h11v7h-11z" opacity=".35"/>
  </g>
</svg>
