<svg height="16" width="16.531" xmlns="http://www.w3.org/2000/svg">
  <g fill="#e6ddff" transform="translate(-260.7502 -547)">
    <path d="m269.0021 547.00379-1.0019.0275.0312.5c.0471.46556-.20254.96951-.59375 1.21875-.35305.24895-.90493.1983-1.59375.21875-.34855.003-.70297.0839-1.03125.28125-.32828.19733-.64985.5469-.71875 1-.15832.89239.45382 1.63343 1.15625 1.78125.80729.17604 1.64453.0756 2.625 0 .25579-.0197.60056.0205.8125.125.33374.26075.28443.40291.28125.875h-4.90625-.75l-.21875.71875-1.96875 7-.375 1.28125h1.34375 13.875 1.3125l-.375-1.28125-1.81315-6.02719-1.58617 1.53661 1.14932 3.77183h-11.28125l1.4375-5h3.3125l1.84375-1.9687v-.0312-.46875c-.003-.61146-.40574-1.09656-.84375-1.3125s-.93011-.25063-1.34375-.21875c-.99591.0768-1.73951.12494-2.3125 0h-.0312c-.19949-.042-.41743-.20971-.34375-.625.0189-.12428.0777-.19648.21875-.28125.14101-.0848.35246-.15487.53125-.15625h.0312c.56397-.0167 1.37705.11764 2.09375-.40625.81874-.59848 1.15373-1.39515 1.0625-2.125z"/>
    <path clip-rule="evenodd" d="m275.012 551.35352c-.40883-.40883-1.07168-.40883-1.48051 0-.0349.0354-.0672.0733-.0967.11324l-4.95263 4.95262-.45047 1.89789 1.87026-.38976 4.99956-4.99958c.0389-.0287.0759-.0601.11048-.0939.40883-.40883.40883-1.07167 0-1.4805z" fill-rule="evenodd" image-rendering="optimizeQuality" shape-rendering="geometricPrecision" text-rendering="geometricPrecision"/>
  </g>
</svg>
