<svg height="16" width="16" xmlns="http://www.w3.org/2000/svg">
  <g fill="#e6ddff">
    <path d="m4 0c-1.007.005-1 1-1 1v13c0 2 2.003 2 2.003 2h7c2 0 2-2 2-2v-10s0-2-2-2h-6.75c-.25 0-.25-.25-.25-.25l-.003-.75s-.01-.994-1-1zm1.003 4.25c0-.25.25-.25.25-.25h6.5s.25 0 .25.25v9.5c0 .25-.25.25-.25.25h-6.5c-.25 0-.252-.277-.252-.277z"/>
    <path d="m6.003 5.25c0-.25.25-.25.25-.25h4.5s.25 0 .25.25v2.5c0 .25-.25.25-.25.25h-4.5c-.25 0-.253-.277-.253-.277zm.25 3.75h1.5a.25.25 0 0 1 .25.25v.5a.25.25 0 0 1 -.25.25h-1.5a.25.25 0 0 1 -.25-.25v-.5a.25.25 0 0 1 .25-.25zm3 0h1.5a.25.25 0 0 1 .25.25v.5a.25.25 0 0 1 -.25.25h-1.5a.25.25 0 0 1 -.25-.25v-.5a.25.25 0 0 1 .25-.25zm-3 2h1.5a.25.25 0 0 1 .25.25v.5a.25.25 0 0 1 -.25.25h-1.5a.25.25 0 0 1 -.25-.25v-.5a.25.25 0 0 1 .25-.25zm3 0h1.5a.25.25 0 0 1 .25.25v.5a.25.25 0 0 1 -.25.25h-1.5a.25.25 0 0 1 -.25-.25v-.5a.25.25 0 0 1 .25-.25z"/>
  </g>
</svg>
