<svg height="16" width="16" xmlns="http://www.w3.org/2000/svg">
  <g fill="#e6ddff" transform="translate(-241 -567)">
    <path d="m245.1875 567c-1.2016 0-2.1875.98758-2.1875 2.1875v11.625c0 1.19992.9859 2.1875 2.1875 2.1875h7.625c1.2016 0 2.1875-.98758 2.1875-2.1875v-11.625c0-1.19992-.9859-2.1875-2.1875-2.1875zm0 2h7.625c.1238 0 .1875.0566.1875.1875v11.625c0 .1309-.0637.1875-.1875.1875h-7.625c-.1238 0-.1875-.0566-.1875-.1875v-11.625c0-.1309.0637-.1875.1875-.1875z"/>
    <path d="m249.7795 572c-.17789.0489-.3419.14729-.46875.28125l-3.03125 3c-.2353.23073-.34458.58284-.28125.90625v.8125h.8125.1875 1.4707l-1.1875 1.27358c-.21461.21931-.32135.53954-.28125.84375-.001.0312-.001.0625 0 .0937v.78125h.84375.15625c.26386.004.52791-.099.71875-.28125l3-2.99233c.18369-.18977.28735-.45465.28125-.7187.003-.0416.003-.0834 0-.125v-.875h-.84375-.15625-1.56445l1.3125-1.28125c.21461-.21931.32135-.53954.28125-.84375.001-.0312.001-.0625 0-.0937v-.7813h-.84375-.0937c-.0208-.00063-.0417-.00063-.0625 0-.0829-.0103-.16709-.0103-.25 0z"/>
  </g>
</svg>
