<svg height="16" width="16" xmlns="http://www.w3.org/2000/svg">
  <g fill="#E6DDFF">
    <path d="m5.469.04c-.489 0-.794.213-1.03.452-.235.24-.439.554-.439 1.028v.501h-2v13.916l12.002.002v-13.918h-2.002v-.417a1.616 1.616 0 0 0 -.418-1.012c-.236-.278-.62-.583-1.197-.551l.054-.002zm.529 1.995 4.006.002v1.98h2v9.924h-8.008v-9.923h2.002z"/>
    <path d="m8.957 5.002a1 1 0 0 0 -.664.291l-3 3a1 1 0 0 0 .707 1.707h.984l.17.002-.98 1.434a1 1 0 0 0 1.533 1.271l3-3a1 1 0 0 0 -.707-1.707h-1.13l.962-1.445a1 1 0 0 0 -.875-1.553z"/>
    <path d="m5 9h1v1h-1zm4-4h1v1h-1zm-3 7h1v1h-1zm4-4h1v1h-1z"/>
  </g>
</svg>
