<svg height="16" width="16" xmlns="http://www.w3.org/2000/svg">
  <g fill="#e6ddff" transform="translate(-223 -197)">
    <path d="m227 198c-1.662 0-3 1.338-3 3v6c0 1.662 1.338 3 3 3h8c1.662 0 3-1.338 3-3v-6c0-1.662-1.338-3-3-3zm2 3c.55833 0 1.0312.47292 1.0312 1.0312v.96875c0 .55833-.47292 1-1.0312 1s-1-.44167-1-1v-.96875c0-.55833.44167-1.0312 1-1.0312zm4 0c.55833 0 1 .47292 1 1.0312v.96875c0 .55833-.44167 1-1 1s-1-.44167-1-1v-.96875c0-.55833.44167-1.0312 1-1.0312zm-2 4.0312c3.2558 0 5 .87374 5 1.4062v.5c-.99656-.6369-4.0165-.90625-5-.90625s-3.8046-.0621-5 .90625v-.5c0-.68098 1.7442-1.4062 5-1.4062z"/>
    <path d="m231 211c-5 0-5 1-5 1 0 1 1 1 1 1h8c1 0 1-1 1-1s0-1-5-1z"/>
  </g>
</svg>
