<svg height="16" width="16" xmlns="http://www.w3.org/2000/svg">
  <g fill="#e6ddff" transform="translate(-261 -257)">
    <path d="m269 257c-2.7496 0-5 2.2504-5 5 0 1.5862.84459 2.9034 2 3.8125v2.1875 1h1 4 1v-1-2.1875c1.1554-.90914 2-2.2263 2-3.8125 0-2.7496-2.2504-5-5-5zm0 2c1.6687 0 3 1.3313 3 3 0 1.1158-.59507 2.0379-1.5 2.5625l-.5.3125v.5625 1.5625h-2v-1.5625-.5625l-.5-.3125c-.90493-.52462-1.5-1.4466-1.5-2.5625 0-1.6687 1.3313-3 3-3z"/>
    <path d="m267 272v1h4v-1z"/>
    <path d="m266 270v1h6v-1z"/>
    <path d="m268 262v1h2v-1z" opacity=".35"/>
  </g>
</svg>
