<svg height="16" width="16" xmlns="http://www.w3.org/2000/svg">
  <g fill="#e6ddff" transform="translate(-100.99995 -297)">
    <path d="m106.98492 302.01596a.99827605 1.0019266 0 0 1 -.98363-1.01579c0-2.19827 1.7971-4.00194 3.98737-4.00194s3.98736 1.80367 3.98736 4.00194a.99827605 1.0019266 0 1 1 -1.99571 0c0-1.11542-.88029-1.99893-1.99165-1.99893s-1.99165.88351-1.99165 1.99893a.99827605 1.0019266 0 0 1 -1.01209 1.01579z"/>
    <path d="m108.4998 309.0008c-1.36887 0-2.50071-1.13184-2.50071-2.50071a1.0004883 1.0004876 0 1 1 2.00098 0c0 .28799.21174.49973.49973.49973s.49974-.21174.49974-.49973a1.0004883 1.0004876 0 1 1 2.00097 0c0 1.36887-1.13184 2.50071-2.50071 2.50071z"/>
    <path d="m109.78125 302a1.0001 1.0001 0 0 0 -.78125 1v3.46875a1.0001 1.0001 0 1 0 2 0v-3.46875a1.0001 1.0001 0 0 0 -1.21875-1z"/>
    <path d="m112.78125 300a1.0001 1.0001 0 0 0 -.78125 1v6.8125a1.0001 1.0001 0 1 0 2 0v-6.8125a1.0001 1.0001 0 0 0 -1.21875-1z"/>
    <path d="m106.78125 300a1.0001 1.0001 0 0 0 -.78125 1v5.40625a1.0001 1.0001 0 1 0 2 0v-5.40625a1.0001 1.0001 0 0 0 -1.21875-1z"/>
    <path d="m103.78125 301a1.0001 1.0001 0 0 0 -.78125 1v6a1.0001 1.0001 0 1 0 2 0v-6a1.0001 1.0001 0 0 0 -1.21875-1z"/>
    <path d="m112.84375 307a1.0001 1.0001 0 0 0 -.65625.40625l-2.6875 3.59375h-2.03125l-2.6875-3.53125a1.0001 1.0001 0 1 0 -1.5625 1.1875l3 3.9375a1.0001 1.0001 0 0 0 .78125.40625h3a1.0001 1.0001 0 0 0 .8125-.40625l3-4a1.0001 1.0001 0 0 0 -.96875-1.59375z"/>
  </g>
</svg>
