<svg height="16" width="16" xmlns="http://www.w3.org/2000/svg">
  <g fill="#e6ddff">
    <path d="m4.5 8c-1.93 0-3.5 1.57-3.5 3.5s1.57 3.5 3.5 3.5 3.5-1.57 3.5-3.5-1.57-3.5-3.5-3.5zm-.5 1h1v5h-1v-3.5h-1v-.5c1 0 1-1 1-1z"/>
    <path d="m10 1-4 3 4 3v-2h2c.554 0 1 .446 1 1v4c0 .554-.446 1-1 1h-3.0332a4.5 4.5 0 0 1 .0332.5 4.5 4.5 0 0 1 -.2637 1.5h3.2637c1.662 0 3-1.338 3-3v-4c0-1.662-1.338-3-3-3h-2zm-6 2c-1.662 0-3 1.338-3 3v2.6777a4.5 4.5 0 0 1 2-1.414v-1.2637c0-.554.446-1 1-1h1v-2z"/>
  </g>
</svg>
