<svg height="16" width="16" xmlns="http://www.w3.org/2000/svg" xmlns:xlink="http://www.w3.org/1999/xlink">
  <clipPath id="a">
    <path d="m21 281h14v11h-14z"/>
  </clipPath>
  <g fill="#e6ddff">
    <path d="m5.5.987c1.385 0 2.5 1.115 2.5 2.5v5.013c0 1.385-1.115 2.5-2.5 2.5a2.495 2.495 0 0 1 -2.5-2.5v-5.013c0-1.385 1.115-2.5 2.5-2.5z"/>
    <path clip-path="url(#a)" d="m27.969 273.629a4.535 4.535 0 0 0 -4.533 4.533v5.807a4.535 4.535 0 0 0 4.533 4.533 4.535 4.535 0 0 0 4.533-4.533v-5.807a4.535 4.535 0 0 0 -4.533-4.533zm0 1.004a3.51 3.51 0 0 1 3.529 3.53v5.806a3.51 3.51 0 0 1 -3.53 3.53 3.51 3.51 0 0 1 -3.529-3.53v-5.807a3.51 3.51 0 0 1 3.53-3.53z" transform="matrix(.99397 0 0 1 -22.293 -275.486)"/>
    <path d="m2 5.5a.5.5 0 0 1 -.5.5.5.5 0 0 1 -.5-.5.5.5 0 0 1 .5-.5.5.5 0 0 1 .5.5zm8 0a.5.5 0 0 1 -.5.5.5.5 0 0 1 -.5-.5.5.5 0 0 1 .5-.5.5.5 0 0 1 .5.5z"/>
    <path d="m2 14a1 1 0 1 0 0 2h7a1 1 0 1 0 0-2z"/>
    <path d="m1 15h9v1h-9z"/>
    <path d="m4 12h3v4h-3z"/>
    <path d="m13 1c-1.098 0-2 .901-2 2s.902 2 2 2c1.099 0 2-.901 2-2s-.901-2-2-2zm0 1c.558 0 1 .442 1 1s-.442 1-1 1-1-.442-1-1 .442-1 1-1zm0 4c-1.098 0-2 .901-2 2s.902 2 2 2c1.099 0 2-.901 2-2s-.901-2-2-2zm0 1c.558 0 1 .442 1 1s-.442 1-1 1-1-.442-1-1 .442-1 1-1z" opacity=".5"/>
    <path d="m11 11h1.375l1.125 1.094 1.094-1.094h1.406v1.469l-1.094 1.062 1.094 1.063v1.406h-1.437l-1.063-1.063-1.062 1.063h-1.438v-1.406l1.063-1.063-1.063-1.061z"/>
  </g>
</svg>
