<svg xmlns="http://www.w3.org/2000/svg" width="16" height="16" version="1.1">
 <title id="title9167">
  Gnome Symbolic Icon Theme
 </title>
 <path style="opacity:0.5;fill:#E6DDFF" d="m 5,7 c -0.30943,4e-5 -0.61463,0.0905 -0.8125,0.28125 l -3.5938,3.7188 3.6562,3.7188 c 0.19771,0.19101 0.44055,0.28124 0.75,0.28125 h 1 v -1 c -5e-5,-0.25688 -0.12958,-0.52871 -0.3125,-0.71875 l -1.2812,-1.2812 h 3.625 c 0.0217,-0.27718 0.11278,-1 0.72266,-2 h -4.3789 l 1.2188,-1.2812 c 0.18273,-0.19024 0.40624,-0.46185 0.40625,-0.71875 v -1 z"/>
 <path style="fill:#e01b24" class="error" d="m 12.5,9 c -1.933,0 -3.5,1.567 -3.5,3.5 0,1.933 1.567,3.5 3.5,3.5 1.933,0 3.5,-1.567 3.5,-3.5 0,-1.933 -1.567,-3.5 -3.5,-3.5 z m -2.5,2.9688 h 5 v 1.0312 h -5 z"/>
 <path style="opacity:0.5;fill:#E6DDFF" d="m 12.48,8.03 2.9258,-3.0312 -3.6562,-3.7188 c -0.19771,-0.19101 -0.44055,-0.28124 -0.75,-0.28125 h -1 v 1 c 5e-5,0.25688 0.12958,0.52871 0.3125,0.71875 l 1.2812,1.2812 h -4.5937 c -0.52831,-0.007 -1,0.47164 -1,1 0,0.52836 0.47169,1.0075 1,1 h 4.625 l -1.2188,1.2812 c -0.18273,0.19024 -0.40624,0.46185 -0.40625,0.71875 v 0.42578 c 0.62016,-0.37715 1.9085,-0.50701 2.4805,-0.39453 z"/>
</svg>
