<svg height="16" width="16" xmlns="http://www.w3.org/2000/svg">
  <path d="m5 7c-.30943.00004-.61463.0905-.8125.28125l-3.5938 3.7188 3.6562 3.7188c.19771.19101.44055.28124.75.28125h1v-1c-.00005-.25688-.12958-.52871-.3125-.71875l-1.2812-1.2812h3.625c.0217-.27718.11278-1 .72266-2h-4.3789l1.2188-1.2812c.18273-.19024.40624-.46185.40625-.71875v-1z" fill="#e6ddff" opacity=".5"/>
  <path d="m12.5 9c-1.933 0-3.5 1.567-3.5 3.5s1.567 3.5 3.5 3.5 3.5-1.567 3.5-3.5-1.567-3.5-3.5-3.5zm-2.5 2.9688h5v1.0312h-5z" fill="#e01b24"/>
  <path d="m12.48 8.03 2.9258-3.0312-3.6562-3.7188c-.19771-.19101-.44055-.28124-.75-.28125h-1v1c.00005.25688.12958.52871.3125.71875l1.2812 1.2812h-4.5937c-.52831-.007-1 .47164-1 1s.47169 1.0075 1 1h4.625l-1.2188 1.2812c-.18273.19024-.40624.46185-.40625.71875v.42578c.62016-.37715 1.9085-.50701 2.4805-.39453z" fill="#e6ddff" opacity=".5"/>
</svg>
