<svg height="16" width="16" xmlns="http://www.w3.org/2000/svg">
  <g fill="#e6ddff" transform="translate(-201 -257)">
    <g fill-rule="evenodd">
      <path d="m213 257v1.5 6.9375 1.5h3v-1.5-6.9375-1.5z" opacity=".35"/>
      <path d="m209 260v12h2l.0143-5.0625h.98575v-6.9375z" opacity=".35"/>
      <path d="m205 263v1.5 6 1.5h3v-1.5-6-1.5z" opacity=".35"/>
      <path d="m201 266v1.5 3 1.5h3v-1.5-3-1.5z" opacity=".35"/>
    </g>
    <path d="m212 268h1.375l1.125 1.0938 1.0938-1.0938h1.4062v1.4688l-1.0938 1.0625 1.0938 1.0625v1.4062h-1.4375l-1.0625-1.0625-1.0625 1.0625h-1.4375v-1.4062l1.0625-1.0625-1.0625-1.0625z"/>
  </g>
</svg>
