<svg height="16" width="16" xmlns="http://www.w3.org/2000/svg">
  <g fill="#e6ddff" transform="translate(-321 -217)">
    <path d="m323 218v1 6c0 2.0717 1.5096 3.681 2.8438 4.875s2.6562 2 2.6562 2l.5.28125.53125-.3125s1.2943-.79757 2.625-2 2.8438-2.7994 2.8438-4.8438v-6-1h-1-10-1zm2 2h8v5c0 .91968-.98696 2.3184-2.1562 3.375-.90589.81857-1.4789 1.139-1.8438 1.375-.35377-.22243-.92859-.52475-1.8438-1.3438-1.1658-1.0434-2.1562-2.4272-2.1562-3.4062z"/>
    <path d="m326 221v4c0 .35738.75517 1.6414 1.8438 2.625.57529.51983.73637.58052 1.1562.875.41988-.29448.58096-.35517 1.1562-.875 1.0886-.98364 1.8438-2.2676 1.8438-2.625v-4z"/>
  </g>
</svg>
