<svg xmlns="http://www.w3.org/2000/svg" width="16" height="16" version="1.1">
 <title id="title9167">
  Gnome Symbolic Icon Theme
 </title>
 <g id="layer9" transform="translate(-181.0002,-257)">
  <path d="m 189.0002,257.0625 -2.25,3.40625 -3.4375,-1.15625 1.15625,3.4375 -3.40625,2.25 3.40625,2.25 -1.15625,3.4375 3.4375,-1.15625 2.25,3.40625 2.25,-3.40625 3.4375,1.15625 -1.15625,-3.4375 3.40625,-2.25 -3.40625,-2.25 1.15625,-3.4375 -3.4375,1.15625 z m 0,4.53125 0.71875,0.6875 2,2 c 0.2236,0.22597 0.33131,0.56107 0.28125,0.875 l 0,0.84375 -0.875,0 c -0.30421,0.0401 -0.62444,-0.0666 -0.84375,-0.28125 l -0.28125,-0.28125 0,2.5625 -2,0 0,-2.5625 -0.28125,0.28125 c -0.19084,0.18226 -0.45489,0.28559 -0.71875,0.28125 l -0.15625,0 -0.84375,0 0,-0.78125 c -0.001,-0.0312 -0.001,-0.0625 0,-0.0937 -0.0401,-0.30421 0.0666,-0.62444 0.28125,-0.84375 l 2,-2 z" style="fill:#E6DDFF;fill-rule:evenodd"/>
 </g>
</svg>
