<svg height="16" width="16" xmlns="http://www.w3.org/2000/svg">
  <g fill="#e6ddff" transform="translate(-241 -277)">
    <path d="m250.53599 277c-1.27668 0-2.3137.97301-2.45508 2.21875-.32495-.12208-.65825-.21875-1.02554-.21875-1.64768 0-2.98339 1.34315-2.98339 3 0 .0982.022.1855.031.28125-.29795-.17924-.6529-.28125-1.02546-.28125-1.09846 0-1.98893.89543-1.98893 2s.89047 2 1.98893 2h1.02554a1.4918439 1.50015 0 0 1 1.80246-1.90625 1.4918439 1.50015 0 0 1 .031 0 1.4918439 1.50015 0 0 1 1.33631-.4375 1.4918439 1.50015 0 0 1 .83908-.59375 1.4918439 1.50015 0 0 1 1.39846-1.09375 1.4918439 1.50015 0 0 1 1.46062 1.09375 1.4918439 1.50015 0 0 1 .83908.59375 1.4918439 1.50015 0 0 1 1.39846.40625 1.4918439 1.50015 0 0 1 1.77139 1.9375h.52831c.82384 0 1.49169-.67157 1.49169-1.5s-.66785-1.5-1.49169-1.5c-.20597 0-.412.0491-.59047.125.0523-.20194.0932-.40658.0932-.625 0-1.22936-.88839-2.22819-2.05108-2.4375.0417-.18136.0622-.36843.0622-.5625 0-1.38071-1.11309-2.5-2.48616-2.5z"/>
    <path d="m249.4375 282.9375a.50005.50005 0 0 0 -.4375.53125v.65625l-.28125-.125a.50316382.50316382 0 1 0 -.4375.90625l.71875.34375v1.8125l-1.65625-1.03125.0625-.875a.50219246.50219246 0 1 0 -1-.0937l-.0312.40625-.59375-.375a.50005.50005 0 1 0 -.5313.8437l.65625.40625-.3125.25a.50316382.50316382 0 1 0 .59375.8125l.65625-.5 1.6875 1.03125-1.71875 1.0625-.65625-.46875a.50005.50005 0 1 0 -.59375.78125l.34375.25-.6875.40625a.5118231.5118231 0 1 0 .53125.875l.625-.375.0312.375a.50097561.50097561 0 1 0 1-.0625l-.0625-.90625 1.65625-1.03125v1.8125l-.7187.34375a.50316382.50316382 0 1 0 .4375.90625l.28125-.125v.6875a.50005.50005 0 1 0 1 0v-.6875l.28125.125a.50316382.50316382 0 1 0 .4375-.90625l-.71875-.34375v-1.8125l1.65625 1-.0625.9375a.50024408.50024408 0 1 0 1 .0312l.0312-.375.59375.375a.50005.50005 0 1 0 .53125-.84375l-.6875-.40625.34375-.25a.50316382.50316382 0 1 0 -.5937-.81245l-.65625.5-1.6875-1.03125 1.6875-1.03125.6875.46875a.50005.50005 0 1 0 .5625-.8125l-.3125-.21875.6875-.4375a.5118231.5118231 0 1 0 -.53125-.875l-.625.375-.0312-.375a.50097561.50097561 0 1 0 -1 .0625l.0625.90625-1.65625 1.03125v-1.8125l.71875-.34375a.50316382.50316382 0 1 0 -.43755-.90625l-.28125.125v-.65625a.50005.50005 0 0 0 -.5625-.53125z"/>
  </g>
</svg>
