<svg xmlns="http://www.w3.org/2000/svg" width="16" height="16" version="1.1">
 <title id="title9167">
  Gnome Symbolic Icon Theme
 </title>
 <g id="layer9" transform="translate(-201,-277)">
  <path d="m 210.49169,278 c -1.27668,0 -2.31369,0.97301 -2.45508,2.21875 C 207.71166,280.09667 207.37837,280 207.01107,280 c -1.64767,0 -2.98339,1.34315 -2.98339,3 0,0.0982 0.0219,0.1855 0.031,0.28125 C 203.76073,283.10201 203.40579,283 203.03322,283 c -1.09845,0 -1.98893,0.89543 -1.98893,2 0,1.10457 0.89048,2 1.98893,2 l 0.37293,0 c 0.16455,-0.35221 0.36642,-0.68097 0.65261,-0.96875 l 2.45508,-2.46875 2.45508,2.46875 c 0.28329,0.28486 0.46455,0.62003 0.62154,0.96875 l 0.46616,0 1.42954,-1.4375 1.42954,1.4375 2.54831,0 c 0.82384,0 1.4917,-0.67157 1.4917,-1.5 0,-0.82843 -0.66786,-1.5 -1.4917,-1.5 -0.20596,0 -0.412,0.0491 -0.59046,0.125 0.0524,-0.20194 0.0931,-0.40658 0.0931,-0.625 0,-1.22936 -0.88839,-2.22819 -2.05108,-2.4375 0.0417,-0.18136 0.0621,-0.36843 0.0621,-0.5625 0,-1.38071 -1.11309,-2.5 -2.48615,-2.5 z" style="fill:#E6DDFF"/>
  <path d="m 206.5,284.90625 -0.34375,0.375 -1.4375,1.40625 c -0.97212,0.97212 -0.97212,2.55913 0,3.53125 0.97212,0.97212 2.59038,0.97213 3.5625,0 0.97212,-0.97212 0.97212,-2.55913 0,-3.53125 l -1.4375,-1.40625 -0.34375,-0.375 z m 0,1.40625 1.0625,1.09375 c 0.58998,0.58998 0.58998,1.53502 0,2.125 -0.58996,0.58997 -1.53502,0.58998 -2.125,0 l 0,-0.0312 c -0.56791,-0.59117 -0.58256,-1.51119 0,-2.09375 L 206.5,286.3125 z" style="fill:#E6DDFF"/>
  <path d="m 211.5,286.90625 -0.34375,0.375 -1.4375,1.40625 c -0.97212,0.97212 -0.97212,2.55913 0,3.53125 0.97212,0.97212 2.59038,0.97213 3.5625,0 0.97212,-0.97212 0.97212,-2.55913 0,-3.53125 l -1.4375,-1.40625 -0.34375,-0.375 z m 0,1.40625 1.0625,1.09375 c 0.58998,0.58998 0.58998,1.53502 0,2.125 -0.58996,0.58997 -1.53502,0.58998 -2.125,0 l 0,-0.0312 c -0.56791,-0.59117 -0.58256,-1.51119 0,-2.09375 L 211.5,288.3125 z" style="fill:#E6DDFF"/>
 </g>
</svg>
