<svg height="16" width="16" xmlns="http://www.w3.org/2000/svg">
  <g fill="#e6ddff">
    <path d="m8 4.006c-2.195 0-4 1.805-4 4s1.805 4 4 4 4-1.805 4-4-1.805-4-4-4z"/>
    <path d="m7.5 0h1c.277 0 .5.223.5.5v2c0 .277-.223.5-.5.5h-1a.499.499 0 0 1 -.5-.5v-2c0-.277.223-.5.5-.5zm0 13h1c.277 0 .5.223.5.5v2c0 .277-.223.5-.5.5h-1a.499.499 0 0 1 -.5-.5v-2c0-.277.223-.5.5-.5zm-5.51-10.303.707-.707a.499.499 0 0 1 .707 0l1.414 1.414a.499.499 0 0 1 0 .707l-.707.707a.499.499 0 0 1 -.707 0l-1.414-1.414a.499.499 0 0 1 0-.707zm9.192 9.193.707-.708a.499.499 0 0 1 .707 0l1.415 1.414a.499.499 0 0 1 0 .707l-.708.707a.499.499 0 0 1 -.707 0l-1.414-1.414a.499.499 0 0 1 0-.707zm-8.485 2.12-.707-.707a.499.499 0 0 1 0-.707l1.414-1.414a.499.499 0 0 1 .707 0l.707.707a.499.499 0 0 1 0 .707l-1.414 1.414a.499.499 0 0 1 -.707 0zm9.193-9.192-.708-.707a.499.499 0 0 1 0-.707l1.414-1.414a.499.499 0 0 1 .708 0l.707.707a.499.499 0 0 1 0 .707l-1.415 1.414a.499.499 0 0 1 -.707 0zm4.11 2.682v1c0 .277-.223.5-.5.5h-2a.499.499 0 0 1 -.5-.5v-1c0-.277.223-.5.5-.5h2c.277 0 .5.223.5.5zm-13 0v1c0 .277-.223.5-.5.5h-2a.499.499 0 0 1 -.5-.5v-1c0-.277.223-.5.5-.5h2c.277 0 .5.223.5.5z"/>
  </g>
</svg>
