<svg xmlns="http://www.w3.org/2000/svg" width="16" height="16" version="1.1">
 <title id="title9167">
  Gnome Symbolic Icon Theme
 </title>
 <g id="layer10" transform="translate(-201,-567)">
  <path d="M 204.1875,567 C 202.9859,567 202,567.98758 202,569.1875 l 0,11.625 c 0,1.19992 0.9859,2.1875 2.1875,2.1875 l 9.625,0 c 1.2016,0 2.1875,-0.98758 2.1875,-2.1875 l 0,-11.625 C 216,567.98758 215.0141,567 213.8125,567 l -9.625,0 z m 0,2 9.625,0 c 0.1238,0 0.1875,0.0566 0.1875,0.1875 l 0,11.625 c 0,0.1309 -0.0637,0.1875 -0.1875,0.1875 l -9.625,0 C 204.0637,581 204,580.9434 204,580.8125 l 0,-11.625 C 204,569.0566 204.0637,569 204.1875,569 z" style="fill:#241f31"/>
  <rect width="6" height="7" x="206" y="571" rx="0" ry="0" style="fill:#241f31"/>
  <path d="m 205.0625,572 0,1 0.5,0 6.9375,0 0.5,0 0,-1 -0.5,0 -6.9375,0 -0.5,0 z" style="fill:#241f31"/>
  <path d="m 205.0625,574 0,1 0.5,0 6.9375,0 0.5,0 0,-1 -0.5,0 -6.9375,0 -0.5,0 z" style="fill:#241f31"/>
  <path d="m 205.0625,576 0,1 0.5,0 6.9375,0 0.5,0 0,-1 -0.5,0 -6.9375,0 -0.5,0 z" style="fill:#241f31"/>
  <path d="m 207,570 0,0.5 0,8 0,0.5 1,0 0,-0.5 0,-8 0,-0.5 -1,0 z" style="fill:#241f31"/>
  <path d="m 209,570 0,0.5 0,8 0,0.5 1,0 0,-0.5 0,-8 0,-0.5 -1,0 z" style="fill:#241f31"/>
  <path d="m 211,570 0,0.5 0,8 0,0.5 1,0 0,-0.5 0,-8 0,-0.5 -1,0 z" style="fill:#241f31"/>
 </g>
</svg>
