<svg xmlns="http://www.w3.org/2000/svg" xmlns:osb="http://www.openswatchbook.org/uri/2009/osb" width="16" height="16" version="1.1">
 <title id="title9167">
  Gnome Symbolic Icon Theme
 </title>
 <defs>
  <linearGradient id="linearGradient19282" gradientTransform="matrix(-2.7365795,0.28202934,-0.18908311,-0.99988321,239.54008,-879.45557)" osb:paint="solid">
   <stop id="stop19284" offset="0" style="stop-color:#666666"/>
  </linearGradient>
 </defs>
 <g id="layer10" transform="translate(-81.0004,-567)">
  <path d="m 92.10532,577 c -0.78136,0.64834 -1.68021,1.51805 -3.06472,2.0098 l -7.0404,-0.01 0,3 14,0 0,-3 -2,-2 z m -0.60512,1.79687 c 0.38953,0 0.70313,0.3136 0.70313,0.70313 0,0.38953 -0.3136,0.70313 -0.70313,0.70313 -0.38953,0 -0.70313,-0.3136 -0.70313,-0.70313 0,-0.38953 0.3136,-0.70313 0.70313,-0.70313 z m 2,0.0234 c 0.37655,0 0.67969,0.30314 0.67969,0.67969 0,0.37655 -0.30314,0.67969 -0.67969,0.67969 -0.37655,0 -0.67969,-0.30314 -0.67969,-0.67969 0,-0.37655 0.30314,-0.67969 0.67969,-0.67969 z" style="fill:#241f31"/>
  <path d="m 92.446603,570.05447 c 0.327975,0 0.594959,0.26223 0.594959,0.59496 l 0,0.0383 c -0.01051,4.06126 -3.306079,7.35062 -7.36981,7.35062 l -0.01916,0 c -0.334607,0 -0.594989,-0.27391 -0.594989,-0.61415 l 0,-0.61415 0,-1.22831 c 0,-0.34023 0.273912,-0.61414 0.614151,-0.61414 l 1.228301,0 c 0.34024,0 0.614151,0.27391 0.614151,0.61414 l 0,0.28789 c 1.570298,-0.55512 2.803519,-1.78834 3.358638,-3.35864 l -0.287883,0 c -0.340246,0 -0.61415,-0.27391 -0.61415,-0.61415 l 0,-1.2283 c 0,-0.34025 0.273904,-0.61415 0.61415,-0.61415 l 0.614151,0 0.614151,0 0.594958,0 0.01916,0 0.01916,0 z" style="fill:#241f31"/>
 </g>
</svg>
