<svg height="16" width="16" xmlns="http://www.w3.org/2000/svg">
  <g fill="#e6ddff" transform="translate(-561 -301.00012)">
    <path d="m325.0625 97.1875a2 3.236068 0 1 1 -4 0 2 3.236068 0 1 1 4 0z" transform="matrix(1.0000007 0 0 .61803426 241.93747 252.93479)"/>
    <path d="m563.0002 303v1c0 .55016.45347 1 1 1 4.97056 0 9 4.02944 9 9 0 .55016.45347 1 1 1h1v-1c0-6.07513-4.92487-11-11-11zm0 4v1c0 .55016.45347 1 1 1 2.76143 0 5 2.23857 5 5 0 .55016.45347 1 1 1h1v-1c0-3.866-3.134-7-7-7z"/>
  </g>
</svg>
