<svg xmlns="http://www.w3.org/2000/svg" width="16" height="16" version="1.1">
 <title id="title9167">
  Gnome Symbolic Icon Theme
 </title>
 <g id="layer9" transform="translate(-121.0002,-217)">
  <path d="m 126.46895,217 c -0.49202,0 -0.79615,0.22777 -1.03125,0.46875 -0.2351,0.24098 -0.4375,0.55884 -0.4375,1.03125 l 0,0.5 -1,0 -1,0 0,1 0,12 0,1 1,0 10,0 1,0 0,-1 0,-12 0,-1 -1,0 -1,0 0,-0.375 0,-0.0312 0,-0.0312 c -0.0239,-0.43046 -0.17041,-0.72033 -0.40625,-1 -0.22357,-0.26511 -0.62489,-0.52941 -1.15625,-0.53125 l 0,-0.0312 -0.0625,0 -4.90625,0 z m 0.53125,2 4,0 0,1 0,0.53125 c 0.22927,0.13183 0.42611,0.29608 0.625,0.46875 l 0.375,0 1,0 0,2.75 0,0.0312 0,0.0312 0,7.1875 -2.28125,0 c -0.0883,0.15116 -0.18924,0.28299 -0.3125,0.40625 -0.12326,0.12326 -0.25509,0.22419 -0.40625,0.3125 -0.1191,0.0711 -0.24126,0.14268 -0.375,0.1875 -0.031,0.0103 -0.0621,0.0225 -0.0937,0.0312 -0.0403,0.0113 -0.0836,0.0225 -0.125,0.0312 -0.12939,0.0269 -0.26966,0.0312 -0.40625,0.0312 -0.18098,0 -0.36372,-0.016 -0.53125,-0.0625 -0.032,-0.009 -0.0624,-0.0207 -0.0937,-0.0312 -0.13243,-0.044 -0.25597,-0.11796 -0.375,-0.1875 -0.15116,-0.0883 -0.28299,-0.18924 -0.40625,-0.3125 -0.12326,-0.12326 -0.22419,-0.25509 -0.3125,-0.40625 l -2.28125,0 0,-6.9375 0,-3.0625 1,0 0.3125,0 c 0.20941,-0.18355 0.44239,-0.33113 0.6875,-0.46875 l 0,-0.53125 0,-1 z" style="opacity:0.35;fill:#e6ddff"/>
  <path d="m 128.81738,221.00473 c 1.64243,-0.092 3.0955,1.17008 3.1875,2.8125 -1e-4,1.40136 -0.37771,1.92177 -1.59375,2.84375 -0.19093,0.14364 -0.3256,0.2506 -0.375,0.3125 -0.0494,0.0621 -0.0312,0.0332 -0.0312,0.0312 0.007,0.52831 -0.47163,1 -1,1 -0.52837,0 -1.007,-0.47169 -1,-1 0,-0.50239 0.22424,-0.94342 0.46875,-1.25 0.24451,-0.30663 0.4913,-0.51638 0.71875,-0.6875 0.20405,-0.16056 0.46083,-0.38454 0.6875,-0.65625 0.0935,-0.1121 0.129,-0.30766 0.125,-0.4375 l 0,-0.0312 c -0.0316,-0.56324 -0.49926,-0.9691 -1.0625,-0.9375 -0.56324,0.0316 -0.9691,0.43676 -0.9375,1 l -2,0 c -0.092,-1.64243 1.17007,-2.9079 2.8125,-3 z m 0.1875,8 c 0.55228,0 1,0.44772 1,1 0,0.55228 -0.44772,1 -1,1 -0.55228,0 -1,-0.44772 -1,-1 0,-0.55228 0.44772,-1 1,-1 z" style="fill:#e6ddff"/>
 </g>
</svg>
