<svg height="22" width="22" xmlns="http://www.w3.org/2000/svg">
  <path d="m5 3v1h5v13h-3v2h8v-2h-3v-13h5v-1zm0 1.0214844-2.9648438 6.9785156h-.0351562c0 .022027.005387.042539.0058594.064453l-.015625.039063.0214844.009765c.0608254 1.603207 1.3701892 2.886719 2.9882812 2.886719s2.9274558-1.283512 2.9882812-2.886719l.0214844-.009765-.015625-.039063c.0004724-.021914.0058594-.042426.0058594-.064453h-.0351562zm12 0-2.964844 6.9785156h-.035156c0 .022027.005387.042539.005859.064453l-.015625.039063.021485.009765c.060825 1.603207 1.370189 2.886719 2.988281 2.886719s2.927456-1.283512 2.988281-2.886719l.021485-.009765-.015625-.039063c.000472-.021914.005859-.042426.005859-.064453h-.035156zm-12 2.5585937 1.8789062 4.4199219h-3.7578124zm12 0 1.878906 4.4199219h-3.757812z" fill="#e6ddff"/>
</svg>
