<svg height="22" viewBox="0 0 22 22" width="22" xmlns="http://www.w3.org/2000/svg">
  <path d="m1 .99804688v2.18164062c6.5264 0 11.818359 5.2893593 11.818359 11.8183595h2.179688c0-7.7326425-6.2676533-13.9989343-13.998047-14.00000012zm0 4.36132812v2.1835938c4.1174 0 7.4550781 3.3373782 7.4550781 7.4550782h2.1816409c0-5.3218002-4.315119-9.638672-9.636719-9.638672zm2.0898438 5.460937c-1.1546002 0-2.0898438.936567-2.0898438 2.091797 0 1.1529.9352037 2.091797 2.0898438 2.091797 1.1546398 0 2.0917968-.938887 2.0917968-2.091797 0-1.1553-.937157-2.091796-2.0917968-2.091797z" fill="#e6ddff" transform="translate(3 3)"/>
</svg>
