<svg height="22" viewBox="0 0 22 22" width="22" xmlns="http://www.w3.org/2000/svg">
  <path d="m11 1-.574219 1.6132812-1.5468748-.734375.734375 1.546875-1.6132812.5742188 1.6132812.5742188-.734375 1.546875 1.5468748-.734375.574219 1.6132812.574219-1.6132812 1.546875.734375-.734375-1.546875 1.613281-.5742188-1.613281-.5742188.734375-1.546875-1.546875.734375zm-5 1c-.20703.66364-.4867725 1.3130187-.7890625 1.9492188-1.5405 3.1502-3.9510937 5.3047687-4.1835937 7.2929692-.006.0297-.0221438.062196-.0273438.091796l.0195312.00586c-.0049999.0684-.0195312.136888-.0195312.205078 0 2.4602 2.2386 4.455078 5 4.455078s5-1.994878 5-4.455078c0-.0682-.014531-.136718-.019531-.205078l.019531-.00586c-.005-.0295-.021044-.062096-.027344-.091796-.23255-1.9882005-2.6430935-4.1447224-4.1835935-7.2949224-.30228-.63621-.5820425-1.2835656-.7890625-1.9472656z" fill="#e6ddff" transform="translate(3 3)"/>
</svg>
