<svg height="22" viewBox="0 0 22 22" width="22" xmlns="http://www.w3.org/2000/svg">
  <path d="m4 0v6.1054688c-.00205.0004179-.0038094.0014531-.0058594.0019531-.55597.11487-1.0883187.3235775-1.5742187.6171875-.011981.0072-.0251974.0122112-.0371094.0195312-.22354.13866-.4357856.2947369-.6347656.4667969-.022514.01932-.0442533.0388937-.0664063.0585937-.19757.17406-.3810781.3634463-.5488281.5664063-.00414.0051-.0075997.010565-.0117187.015625-.16600005.20467-.31554567.4221506-.44726568.6503906-.00882.01523-.01868074.0296019-.02734374.0449219-.1261.2256-.23448875.460725-.32421876.703125-.0125.0333-.02531937.0660094-.03710937.0996094-.08421.2388-.15014563.4836219-.19726562.7324216-.007989.043-.01263925.085907-.01953125.128907-.043615.260999-.06647338.525062-.06835938.789062.0008805.14477.00805038.289444.02148438.433594.00747.08691.019386.172232.03125.257812.00996.07643.02167825.152616.03515625.228516.00997.05355.02349425.105273.03515625.158203.06117.27889.14611624.552016.25390624.816406.018067.04401.03931776.085536.05859376.128907.11146999.255409.24409437.501064.39648437.734374.02248.03389.04898763.064347.07226563.097657.16350002.23673.34711812.458912.54882812.664062.014675.01479.0300649.028359.0449219.042969.21338.21187.4454394.404049.6933593.574219.016145.01099.0345023.018497.0507813.029297.25139.1676.5174519.31207.7949219.43164l.015625.007813c.0076.0032.0158205.004612.0234375.007812.28695.11988.5844718.212734.8886719.277344.013876.0029.0270966.006966.0410156.009766.16214.03271.3267306.057608.4941406.074218.1661.016.333.025391.5.025391.28942-.000357.5782713-.025842.8632812-.076172.0138481-.0024.0272037-.005312.0410157-.007812.24065-.0457.4776244-.109024.7089843-.189454.044356-.015159.0889995-.028561.1328126-.044921.22438-.08449.4423937-.185012.6523437-.300782.04699-.02576.0925819-.052848.1386719-.080078.20955-.122.4099494-.259076.5996094-.410156.0270299-.0218.0515449-.045999.078125-.068359.17772-.14965.3447899-.311495.5-.484375.0228599-.02543.0479625-.048309.0703124-.074219.15725-.18463.3008575-.380458.4296876-.585938.0300399-.04724.0593906-.094218.0878906-.142578.12716-.21408.2381412-.437359.3320312-.667968.0106-.026351.0191269-.053499.0292969-.080079.0996-.255.177975-.519109.234375-.787109h6.1015625v-2h-6.1054688c-.0005-.0027-.0013531-.0052125-.0019531-.0078125-.0482-.2362-.1135125-.4686125-.1953125-.6953125l-.0039062-.0117188c-.000706-.0018999-.0011532-.0038593-.0019532-.0058593-.0817999-.2201-.1791156-.434125-.2910156-.640625-.0098-.0183-.0192969-.0365875-.0292968-.0546875-.1010001-.1813-.2132376-.3560375-.3359376-.5234375-.0184999-.0254-.0357875-.0510719-.0546874-.0761719-.1371001-.1825-.2865657-.3554781-.4472657-.5175781-.1563-.1547-.3227468-.2988407-.4980469-.4316407-.0295-.0225999-.0578906-.0464593-.0878906-.0683593-.3628-.2649-.7595875-.4796719-1.1796875-.6386719-.0363-.0137-.072675-.0261625-.109375-.0390625-.2149-.0775-.4348031-.1401-.6582031-.1875v-6.1015625z" fill="#e6ddff" transform="translate(3 3)"/>
</svg>
