<svg height="22" viewBox="0 0 22 22" width="22" xmlns="http://www.w3.org/2000/svg">
  <path d="m3 1.0039062a1.99995 1.99995 0 0 0 -2 2 1.99995 1.99995 0 0 0 2 2 1.99995 1.99995 0 0 0 1-.2695312v2.2695312h-3v6.9999998h3v1h11v-4h-11v1h-1v-2.9999998h1v.9999998h11v-5.9999998h-10.2714844a1.99995 1.99995 0 0 0 .2714844-1 1.99995 1.99995 0 0 0 -2-2zm0 1a.999975.999975 0 0 1 1 1 .999975.999975 0 0 1 -1 1 .999975.999975 0 0 1 -1-1 .999975.999975 0 0 1 1-1z" fill="#e6ddff" transform="translate(3 3)"/>
</svg>
