<svg height="22" viewBox="0 0 22 22" width="22" xmlns="http://www.w3.org/2000/svg">
  <path d="m3.0078 1c-2.2487 0-2 2-2 2v12h13.992v-10h-1.998v8h-9.9942v-8h7.9922v-4h-7.9922zm8.9922 0v4l3-2zm-5.5664 5c-1.0655 0-1.5137.3522-1.5137 1.2539 0 0-.0244.5874-.0312.7461-.0462.3689-.1754.6777-.5782.6777h-.3046v.6446h.3046c.5886 0 .6094.6442.6094 1.2007-.005.174.0136.369.0176.477.0833.712.5388 1 1.4961 1v-.592c-.4495 0-.6064-.118-.6699-.408-.0337-.116-.0372-.514-.0508-.705 0-.4155-.124-1.0347-.7227-1.2911.4731-.2026.6441-.6283.6973-1.0039.0239-.1041.0186-.2223.0254-.3027 0-.8663.0104-1.1055.7207-1.1055zm3.1426 0v.5918c.7098 0 .7188.2392.7188 1.1055.007.0804.002.1986.025.3027.054.3756.225.8013.698 1.0039-.599.2564-.723.8756-.723 1.2911-.014.191-.017.589-.051.705-.063.29-.218.408-.6678.408v.592c.9568 0 1.4108-.288 1.4938-1 .004-.108.023-.303.018-.477 0-.5565.021-1.2007.609-1.2007h.305v-.6446h-.305c-.402 0-.532-.3088-.578-.6777-.007-.1587-.031-.7461-.031-.7461 0-.9017-.446-1.2539-1.5118-1.2539z" fill="#e6ddff" transform="translate(3 3)"/>
</svg>
