<svg height="22" viewBox="0 0 22 22" width="22" xmlns="http://www.w3.org/2000/svg">
  <path d="m7.4921875-.00390625.0078125.00390625a1.5 1.5 0 0 0 -1.5 1.5 1.5 1.5 0 0 0 .1132812.5703125l-3.8925781 3.1152344a1.5 1.5 0 0 0 -.7207031-.1855469 1.5 1.5 0 0 0 -1.5 1.5 1.5 1.5 0 0 0 1 1.4121094v5.1757816a1.5 1.5 0 0 0 -1 1.412109 1.5 1.5 0 0 0 1.5 1.5 1.5 1.5 0 0 0 1.4121094-1h4.1757812a1.5 1.5 0 0 0 1.4121094 1 1.5 1.5 0 0 0 1.5-1.5 1.5 1.5 0 0 0 -.1855469-.716797l3.1171879-3.8964842a1.5 1.5 0 0 0 .568359.1132812 1.5 1.5 0 0 0 1.5-1.5 1.5 1.5 0 0 0 -1.5-1.5 1.5 1.5 0 0 0 -.583984.1191406l-4.0937504-4.9121094a1.5 1.5 0 0 0 .1699219-.7109374 1.5 1.5 0 0 0 -1.5-1.50000005zm-.7109375 2.82031245a1.5 1.5 0 0 0 .71875.1835938 1.5 1.5 0 0 0 .5820312-.1191406l4.0957028 4.9140625a1.5 1.5 0 0 0 -.179687.7109375 1.5 1.5 0 0 0 .185547.71875l-3.1152346 3.8945316a1.5 1.5 0 0 0 -.5703125-.111329 1.5 1.5 0 0 0 -1.4121094 1h-4.1757813a1.5 1.5 0 0 0 -.9101562-.910156v-5.175781a1.5 1.5 0 0 0 1-1.4121094 1.5 1.5 0 0 0 -.1132812-.5683594l3.8945312-3.1152343z" fill="#e6ddff" transform="translate(3 3)"/>
</svg>
