<svg fill="none" height="22" viewBox="0 0 22 22" width="22" xmlns="http://www.w3.org/2000/svg">
  <g fill="#e6ddff">
    <path d="m11 3c-4.41353 0-8 3.58643-8 8 0 4.4135 3.58647 8 8 8 4.4135 0 8-3.5865 8-8 0-4.41357-3.5865-8-8-8zm0 2.10852c3.2585 0 5.8915 2.63292 5.8915 5.89148 0 3.2585-2.633 5.8915-5.8915 5.8915-3.25852 0-5.89147-2.633-5.89147-5.8915 0-3.25856 2.63295-5.89148 5.89147-5.89148z"/>
    <path d="m13.8304 8.5082c-.1121.03232-.2125.1006-.2883.19594l-3.0634 3.33096-1.91006-2.07695c-.04551-.08091-.1073-.1495-.18073-.20068-.07343-.05119-.15659-.08365-.2432-.09483-.08662-.01119-.17443-.00083-.25685.03023-.08241.03105-.15728.08203-.21895.1491-.06168.06706-.10856.14842-.13712.23803-.02856.0896-.03805.1851-.02776.2793.01028.0942.04009.1846.08716.2644.04707.0799.11018.1471.18459.1966l2.30652 2.508c.1071.1103.249.1717.3964.1717.1475 0 .2894-.0614.3965-.1717l3.4597-3.76203c.0852-.09434.1407-.21555.1587-.34626.018-.13072-.0024-.26428-.0583-.38162-.056-.11734-.1446-.21241-.2532-.27172-.1087-.0593-.2318-.07978-.3517-.05847z"/>
  </g>
</svg>
