<svg height="22" viewBox="0 0 22 22" width="22" xmlns="http://www.w3.org/2000/svg">
  <path d="m4 1v2h8v-2zm-2 3c-.5 0-1 .5-1 1v4c0 .5.5 1 1 1h1v-2h5.125c.66316-.63263 1.55075-1.03125 2.53125-1.03125 1.7815 0 3.2906 1.27975 3.625 2.96875.39275-.13746.71875-.53064.71875-.9375v-4c0-.5-.5-1-1-1zm8.660156 3.9394531c-1.4955998 0-2.7187498 1.22315-2.7187498 2.7187499 0 1.4956 1.2231501 2.71875 2.7187498 2.71875.4871 0 .94724-.14835 1.34375-.375a.75008.75008 0 0 0 .15625.21875l1.84375 1.8125a.75130096.75130096 0 1 0 1.0625-1.0625l-1.84375-1.8125a.75008.75008 0 0 0 -.21875-.15625c.22665-.39646.375-.85659.375-1.34375 0-1.4955999-1.22315-2.7187499-2.71875-2.7187499zm0 1c.95516 0 1.71875.76354 1.71875 1.7187499 0 .95516-.76354 1.71875-1.71875 1.71875-.9551597 0-1.7187498-.76354-1.7187498-1.71875 0-.9551599.7635401-1.7187499 1.7187498-1.7187499zm-6.660156.0605469v5h5.09375c-1.2537-.5913-2.125-1.87515-2.125-3.34375 0-.59537.15156-1.15645.40625-1.65625z" fill="#e6ddff" transform="translate(3 3)"/>
</svg>
