<svg fill="none" height="22" viewBox="0 0 22 22" width="22" xmlns="http://www.w3.org/2000/svg">
  <path clip-rule="evenodd" d="m7 4.01009c-.00822-.4666.3541-.9125.8125-1 .0312-.001.0626-.001.0938 0 .0312-.001.0625-.001.0937 0h5.4375c.2641-.00612.529.09755.7187.28125l3.5626 3.56244c.1836.1898.2872.45471.2812.71881v4.43751h-2v-4.00001h-3v-3h-4v7.00001h-2zm-3.96875 3.99022c0-1 1-1 1-1h1.9687v5.00979h-.5c-.0311-.003-.0625-.003-.0937 0-.21912.0416-.39625.2459-.40625.4687l-.5 4.5c-.01636.2618.20695.5149.46875.5313.2618.0163.51485-.207.53125-.4688l.46875-4.0312h13.03125v4c0 .8333-.574 1.5057-1.0625 1.75-.4885.244-.9375.25-.9375.25h-12s-.44899-.0057-.9375-.25-1.06248-.9167-1.0625-1.75z" fill="#e6ddff" fill-rule="evenodd"/>
</svg>
