<svg height="22" viewBox="0 0 22 22" width="22" xmlns="http://www.w3.org/2000/svg">
  <path d="m.50195312 0-.41210937.21875-.05273437.46484375.35351562.3046875.109375.01171875h1l.4140625-.21875.0507813-.46484375-.3535157-.3046875-.109375-.01171875zm2.99999998 0-.4121093.21875-.0527344.46484375.3535156.3046875.109375.01171875h1l.4140625-.21875.0507813-.46484375-.3535157-.3046875-.109375-.01171875zm3 0-.4121093.21875-.0527344.46484375.3535156.3046875.109375.01171875h1l.4140625-.21875.0507813-.46484375-.3535157-.3046875-.109375-.01171875zm3 0-.4121093.21875-.0527344.46484375.3535156.3046875.109375.01171875h1l.414062-.21875.050782-.46484375-.353516-.3046875-.109375-.01171875zm2.9999999 0-.412109.21875-.052735.46484375.353516.3046875.109375.01171875h1l.414062-.21875.050782-.46484375-.353516-.3046875-.109375-.01171875zm2.996094.5-.498047 1 .21875.4140625.464844.0507813.304687-.3535157.009766-.1113281zm-15.18164075 1.5351562-.30664062.3535157-.00976563.1113281v1l.21875.4140625.46484375.0507813.3046875-.3535157.00976563-.1113281v-1l-.21875-.4140625zm2.68359375.9648438v2h6v-2zm12.316406.0351562-.30664.3535157-.009766.1113281v1l.21875.4140625.464844.0507813.304687-.3535157.009766-.1113281v-1l-.21875-.4140625zm-14.99999975 2-.30664062.3535157-.00976563.1113281v1l.21875.4140625.46484375.0507813.3046875-.3535157.00976563-.1113281v-1l-.21875-.4140625zm14.99999975 1-.30664.3535157-.009766.1113281v1l.21875.4140625.464844.0507813.304687-.3535157.009766-.1113281v-1l-.21875-.4140625zm-10.316406.9648438v2h6v-2zm-4.68359375 1.0351562-.30664062.3535157-.00976563.1113281v1l.21875.4140625.46484375.0507813.3046875-.3535157.00976563-.1113281v-1l-.21875-.4140625zm14.99999975 1-.30664.3535157-.009766.1113281v1l.21875.414062.464844.050782.304687-.353516.009766-.111328v-1l-.21875-.4140625zm-8.316406 1.9648438v2h6v-2zm-6.68359375.035156-.30664062.353516-.00976563.111328v1l.21875.414062.46484375.050782.3046875-.353516.00976563-.111328v-1l-.21875-.414062zm14.99999975 1-.30664.353516-.009766.111328v1l.21875.414062.464844.050782.304687-.353516.009766-.111328v-1l-.21875-.414062zm-14.99804662 2-.30859375.353516-.00976563.111328.5 1 .5-1-.21875-.414062zm2.18750002.964844-.421875.21875-.0527344.464844.3535156.304687.1210938.011719h1l.4140625-.21875.0507812-.464844-.3535156-.304687-.1113281-.011719zm3 0-.421875.21875-.0527344.464844.3535156.304687.1210938.011719h1l.4140625-.21875.0507812-.464844-.3535156-.304687-.1113281-.011719zm3 0-.421875.21875-.0527344.464844.3535156.304687.1210938.011719h1l.4140625-.21875.0507812-.464844-.3535156-.304687-.1113281-.011719zm2.9999996 0-.421875.21875-.052734.464844.353516.304687.121093.011719h1l.414063-.21875.050781-.464844-.353515-.304687-.111329-.011719zm3 0-.421875.21875-.052734.464844.353516.304687.121093.011719 1-.5z" fill="#e6ddff" transform="translate(3 3)"/>
</svg>
