<svg height="22" viewBox="0 0 22 22" width="22" xmlns="http://www.w3.org/2000/svg">
  <path d="m2.3398438.9375-1.40625005 1.40625 4.69335935 4.6933594c-.76451.0884-1.4374594.4276306-1.8808593.9316406-.5144001.58479-.7563901 1.31065-.75 2.03125.0059999.72062.26893 1.45275.78125 2.03125.5123199.57854 1.31045.96875 2.21875.96875h5.5937502l2.0625 2.0625 1.40625-1.40625zm4.0625 2.0625 2 2h1.59375c.4281602 0 1.0000002.61414 1.0000002 1v1h-.59375l2.59375 2.59375v-3.59375c.00009-1.6343-1.3198-3-3.0000002-3zm-.40625 6h1.59375l2 2h-3.59375c-.3978701 0-.5669101-.10979-.71875-.28125-.15184-.17146-.2787701-.43937-.28125-.71875-.0020001-.27938.1046699-.55354.25-.71875.14533-.16521.3276399-.28125.75-.28125z" fill="#e6ddff" transform="translate(3 3)"/>
</svg>
