<svg height="22" viewBox="0 0 22 22" width="22" xmlns="http://www.w3.org/2000/svg">
  <path clip-rule="evenodd" d="m12.5 5c-.9283 0-1.8185.36875-2.4749 1.02513-.65635.65637-1.0251 1.54661-1.0251 2.47487v5.0934l-1.281-1.2804c-.191-.183-.462-.313-.719-.313h-1v1c0 .31.091.552.281.75l3.719 3.656 3.719-3.656c.191-.198.281-.44.281-.75v-1h-1c-.257 0-.529.13-.719.313l-1.281 1.2804v-5.0934c0-.39783.158-.77936.4393-1.06066s.6629-.43934 1.0607-.43934.7794.15804 1.0607.43934.4393.66283.4393 1.06066v.5h2v-.5c0-.92826-.3687-1.8185-1.0251-2.47487-.6564-.65638-1.5466-1.02513-2.4749-1.02513z" fill="#e6ddff" fill-rule="evenodd"/>
</svg>
