<svg height="22" viewBox="0 0 22 22" width="22" xmlns="http://www.w3.org/2000/svg">
  <path d="m6 2-5.29296875 5.2929688-.70703125.7070312.70703125.7070312 5.29296875 5.2929688h10v-12zm3 2h1v1h-1c-.55222 0-1 .44771-1 1v1c0 .38251-.13928.73504-.375 1 .23572.26497.375.6175.375 1v1c0 .55222.44771 1 1 1h1v1h-1c-1.1045 0-2-.89548-2-2v-1c0-.27615-.22386-.5-.5-.5h-.5v-1h.5c.27614 0 .5-.22384.5-.5v-1c0-1.1045.89548-2 2-2zm2 0h1c1.1045 0 2 .89549 2 2v1c0 .27616.22386.5.5.5h.5v1h-.5c-.27614 0-.5.22385-.5.5v1c0 1.1045-.89549 2-2 2h-1v-1h1c.55229 0 1-.44778 1-1v-1c0-.3825.13928-.73503.375-1-.23572-.26496-.375-.61749-.375-1v-1c0-.55229-.44778-1-1-1h-1z" fill="#e6ddff" transform="translate(3 3)"/>
</svg>
