<svg height="22" viewBox="0 0 22 22" width="22" xmlns="http://www.w3.org/2000/svg">
  <g transform="translate(3 3)">
    <path d="m8 0c-2.2091-.0000055-4 1.7909-4 4 .0000166 2.2091 1.7909 4 4 4 2.2091.000006 4-1.7909 4-4s-1.791-4-4-4zm0 8.9863281c-4.028.0048-7.4965 3.0176719-8 7.0136719h9.7128906c-1.0343-.827-1.7128906-2.082-1.7128906-3.5 0-1.403.6653406-2.6592281 1.6816406-3.4863281-.7385-.0145-1.4943406-.0259438-1.6816406-.0273438z" fill="#e6ddff"/>
    <path d="m12.5 9a3.5 3.5 0 0 0 -3.5 3.5 3.5 3.5 0 0 0 3.5 3.5 3.5 3.5 0 0 0 3.5-3.5 3.5 3.5 0 0 0 -3.5-3.5zm-1.414062 1.378906 1.414062 1.414063 1.414062-1.414063.707032.707032-1.414063 1.414062 1.414063 1.414062-.707032.707032-1.414062-1.414063-1.414062 1.414063-.707032-.707032 1.414063-1.414062-1.414063-1.414062z" fill="#4285f4"/>
  </g>
</svg>
