<svg height="22" viewBox="0 0 22 22" width="22" xmlns="http://www.w3.org/2000/svg">
  <path d="m8 0c-2.2091-.0000055-4 1.7909-4 4 .0000166 2.2091 1.7909 4 4 4 2.2091.000006 4-1.7909 4-4s-1.791-4-4-4zm0 8.9863281c-4.028.0048-7.4965 3.0176719-8 7.0136719h9.7128906c-1.0343-.827-1.7128906-2.082-1.7128906-3.5 0-1.403.6653406-2.6592281 1.6816406-3.4863281-.7385-.0145-1.4943406-.0259438-1.6816406-.0273438zm4.5.0136719a3.5 3.5 0 0 0 -3.5 3.5 3.5 3.5 0 0 0 3.5 3.5 3.5 3.5 0 0 0 3.5-3.5l-1.5 1.25-1.5 1.25v-2h-3v-1h3v-2l1.5 1.25 1.5 1.25a3.5 3.5 0 0 0 -3.5-3.5z" fill="#e6ddff" transform="translate(3 3)"/>
</svg>
