<svg height="22" viewBox="0 0 22 22" width="22" xmlns="http://www.w3.org/2000/svg">
  <g fill="#e6ddff" transform="translate(3 3)">
    <path d="m1 1v14h.390625a.50009.50009 0 0 0 .2285156 0h13.3808594v-2h-12v-1.611328c.12-.23253.2395581-.465534.3925781-.683594.81654-1.1635999 2.1463938-2.1462499 4.6835938-2.6562499 2.6739001-.53756 4.2130221-1.4838875 5.0449221-2.6796875.83193-1.1958.910818-2.558875.892578-3.796875a.50005.50005 0 0 0 -.513672-.4980468.50005.50005 0 0 0 -.486328.5136718c.0174 1.1818-.070004 2.2841375-.714844 3.2109375-.64481.92683-1.893222 1.7616313-4.4199218 2.2695313-2.3539999.47324-3.8843062 1.3921843-4.8789062 2.5214844v-8.5898438z"/>
    <path d="m14 2.4003906c-.0434.99924-.228796 2.03425-.878906 2.96875-.83192 1.1958-2.371022 2.1420875-5.0449221 2.6796875-2.5372.51006-3.8669938 1.49265-4.6835938 2.6562499-.15302.21806-.2725781.451064-.3925781.683594v1.611328h11z" opacity=".3"/>
  </g>
</svg>
