<svg height="22" width="22" xmlns="http://www.w3.org/2000/svg">
  <g fill="#e6ddff">
    <path d="m11 3a8 8 0 0 0 -8 8 8 8 0 0 0 .0703125.976562c.0876355-.407282.3792881-.805341.7578125-1.023437l3.1582031-1.8222656c.7407551-.4272916 1.7160786-.1658654 2.1445313.5742187l-.0839844-.1464843 2.931641-1.6933594c.62633-.3618846 1.359854-.146585 1.849609.3496094l.152344-.0878907-.455078-.7949219c-.560986-.9784603.186443-2.2972081 1.322265-2.2988281a1.0001 1.0001 0 0 0 .001953 0h1.46875a8 8 0 0 0 -5.318359-2.0332031zm7.984375 7.5625-.480469.841797a1.0001 1.0001 0 0 0 0 .001953c-.162901.284249-.412196.475055-.691406.59375h.1875a1.0001 1.0001 0 0 1 .855469.484375 8 8 0 0 0 .144531-1.484375 8 8 0 0 0 -.015625-.4375zm-3.445313.292969-1.373046.794922c-.62652.36281-1.361415.147252-1.851563-.34961l-3.0566405 1.765625c-.6840522.395236-1.5289623.149465-1.9980469-.464844l-1.859375 1.074219a1.0001 1.0001 0 0 0 -.0019531 0c-.3816436.219898-.8775959.27467-1.2753906.142578-.3740061-.124192-.6442854-.376019-.828125-.667968a8 8 0 0 0 7.7050781 5.849609 8 8 0 0 0 3-.589844v-2.410156a1.0001 1.0001 0 0 1 -1-1v-1a1.0001 1.0001 0 0 1 1-1h1a1.0001 1.0001 0 0 1 1-1h.544922c-.27922-.119177-.528647-.311488-.691406-.595703v-.001953h-.001954z" opacity=".3"/>
    <path d="m14.849403 6.0324475a.52837956.53379665 0 0 0 -.456474.8013394l.949777 1.6618302-1.754464 1.0133925-.328125-.56808a.57148571.57148571 0 0 0 -.78125-.2098217l-3.7979916 2.1930791-.4151782-.71875a.57148571.57148571 0 0 0 -.7801343-.2087056l-3.1573659 1.8225446a.57152042.57152042 0 1 0 .5714286.989955l2.6629464-1.53683.4140623.717634a.57148571.57148571 0 0 0 .7812503.209822l3.7979914-2.193081.328125.569197a.57148571.57148571 0 0 0 .78125.208705l2.24442-1.2968735.811384 1.4196415a.52837956.53379665 0 0 0 .915178.0011l2.329241-4.0747322a.52837956.53379665 0 0 0 -.015625-.5580627.52837956.53379665 0 0 0 -.441964-.2433036z"/>
    <path d="m16 13v1h-2v1h6v-1h-2v-1zm-1 3v4h4v-4z"/>
  </g>
</svg>
