<svg fill="none" height="22" viewBox="0 0 22 22" width="22" xmlns="http://www.w3.org/2000/svg">
  <g fill="#e6ddff">
    <path d="m17 3-14 14 2 2 14-14z"/>
    <path clip-rule="evenodd" d="m6 5h7l2-2h-11c-.55228 0-1 .44772-1 1v11l1.5-1.5h-.5v-1h1v.5l1-1zm2.99716 1.12502 1.55244 1.32534-2.55344 2.55344-.00256-4.00378h.60627.06272c.11701-.001.23269.0388.33457.125zm2.63144 2.2464-3.63116 3.63118.00256 3.9974 5.7767-5.7767c-.0286-.0371-.0599-.0701-.094-.0983zm-2.6286 8.62858h7v-7l1-1v.5h1v-1h-.5l1.5-1.5v11c0 .5523-.4477 1-1 1h-11zm-2 0h-1v-3l-1 1v.5h-.5l-1.5 1.5v1c0 .5523.44772 1 1 1h1zm12-12v-1c0-.55228-.4477-1-1-1h-1l-2 2h1v3l1-1v-.5h.5zm-14 1.5h-1v1h1zm0 2h-1v1h1zm-1 2h1v1h-1zm14 0h-1v1h1zm-1 2h1v1h-1zm1 2h-1v1h1z" fill-rule="evenodd"/>
  </g>
</svg>
