<svg fill="none" height="22" viewBox="0 0 22 22" width="22" xmlns="http://www.w3.org/2000/svg">
  <g fill="#e6ddff">
    <path d="m4 3s-1 0-1 1v11s0 1 1 1h1 1v-1.5h-1-.5v-10h4l2 2h5v.5 1h1.5v-1-1c0-1-1-1-1-1h-5l-2-2z"/>
    <path clip-rule="evenodd" d="m9.5 10.5v7h7v-7zm-1.5-1.5c-.55228 0-1 .44772-1 1v8c0 .5523.44772 1 1 1h10c.5523 0 1-.4477 1-1v-8c0-.55228-.4477-1-1-1z" fill-rule="evenodd"/>
    <path d="m11 12v4h.4042.0418c.078.0004.1551-.0155.223-.05l3.1219-1.6c.1386-.0688.2091-.2094.2091-.35s-.0705-.2812-.2091-.35l-3.1219-1.6c-.0679-.0345-.145-.0505-.223-.05h-.0418z"/>
  </g>
</svg>
