<svg fill="none" height="22" viewBox="0 0 22 22" width="22" xmlns="http://www.w3.org/2000/svg">
  <g fill="#e6ddff">
    <path clip-rule="evenodd" d="m3 5c0-1.108.892-2 2-2h10l-2 2h-6.28516c-.9497 0-1.71484.76514-1.71484 1.71484v6.28516l-.0625.0625-1.9375 1.9375zm14 10.2852v-6.2852l2-2v10c0 1.108-.892 2-2 2h-9-.5-.5l2-2h6.2852c.95 0 1.7148-.7648 1.7148-1.7148zm-7.37109-7.96879.11132-1.31641h2.25977l-4.96289 5c.00127-.222.02152-.4435.06055-.6621l-1.09571-.75587 1.25977-2.16406 1.20898.5625c.34531-.2848.73696-.50935 1.15821-.66406zm5.33589 3.68359-4.98177 5h2.27867l.1113-1.3164c.4213-.1547.8129-.3793 1.1582-.6641l1.209.5625 1.2618-2.164-1.0977-.7559c.039-.2186.0593-.4401.0605-.6621z" fill-rule="evenodd"/>
    <path d="m17 3-14 14 2 2 14-14z"/>
  </g>
</svg>
