<svg fill="none" height="22" viewBox="0 0 22 22" width="22" xmlns="http://www.w3.org/2000/svg">
  <g fill="#e6ddff">
    <path clip-rule="evenodd" d="m6.2 16h-3.2v3h3.2zm4.2667 0h-3.19998v3h3.19998zm1.0666 0h3.2v3h-3.2zm7.4667 0h-3.2v3h3.2z" fill-rule="evenodd"/>
    <path clip-rule="evenodd" d="m6.2 3h-3.2v3h3.2zm4.2667 0h-3.19998v3h3.19998zm1.0666 0h3.2v3h-3.2zm7.4667 0h-3.2v3h3.2z" fill-rule="evenodd"/>
    <path d="m10.0127 15.0126 4.934-.0312-.0026-.4038-.0003-.0418c0-.0779-.0201-.1548-.063-.2224l-1.9933-3.1066c-.0857-.1379-.2596-.2072-.4331-.2061-.1734.0011-.3464.0726-.4304.2116l-1.9538 3.1315c-.0422.0681-.0614.1453-.0603.2232l.0003.0418z"/>
    <path d="m6.02528 7 4.93392.03118-.0025.40381-.0003.04178c0 .07794-.0201.15484-.0631.2224l-1.99326 3.10663c-.08569.1379-.25959.2072-.43304.2061s-.34647-.0726-.4304-.2116l-1.95387-3.13153c-.04212-.0681-.0614-.14525-.06026-.22319l.00026-.04177z"/>
  </g>
</svg>
