<svg height="22" viewBox="0 0 22 22" width="22" xmlns="http://www.w3.org/2000/svg">
  <path d="m3.5 1c-1.369 0-2.5 1.1312-2.5 2.5v.0019531c.001.7628.4294 1.3819563 1 1.8476563v5.6503906c0 1.645 1.3548 3 3 3-.0002.564.4655969 1.016 1.0292969 1 .2061-.006.4053125-.076219.5703125-.199219l2-1.5c.533-.4.533-1.199609 0-1.599609l-2-1.5c-.6538-.4896001-1.5871094-.030844-1.5996094.785156v-5.6367186c.5709-.4657.9989-1.0846563 1-1.8476563v-.0019531c0-1.3688-1.131-2.5-2.5-2.5zm6.4707031 0c-.2061.006-.4053125.0756188-.5703125.1992188l-2 1.5c-.533.4001-.533 1.1996093 0 1.5996093l2 1.5c.6536004.4898 1.5876094.0315438 1.5996094-.7851562v5.6367191c-.571.466-.999 1.084656-1 1.847656v.001953c0 1.369 1.131 2.5 2.5 2.5s2.5-1.131 2.5-2.5v-.001953c-.001-.763-.429-1.381656-1-1.847656v-5.650391c0-1.645-1.355-3-3-3 0-.5639-.465997-1.0165-1.0292969-1z" fill="#e6ddff" transform="translate(3 3)"/>
</svg>
