<svg height="22" viewBox="0 0 22 22" width="22" xmlns="http://www.w3.org/2000/svg">
  <path d="m5-.21289062v.21289062a5 5 0 0 1 -.0839844.88476562 5 5 0 0 1 -.1113281.48437498 5 5 0 0 1 -.1621094.4746094 5 5 0 0 1 -2.5976562 2.7070312 5 5 0 0 1 -.4550781.1796876 5 5 0 0 1 -.0097657 0 5 5 0 0 1 -.0117187 0 5 5 0 0 1 -.4550782.1269531 5 5 0 0 1 -.015625 0 5 5 0 0 1 -1.0976562.0996093v1a6 6 0 0 0 1.4140625-.1757812l.9511719 2.8515625c-.7658.1-1.5612344.3007813-2.3652344.3007813v.6621093c1.6837.0001 3.3324812-.4143 4.8007812-1.1875l.6699219 1.0527344.5371094.8417965a12 12 0 0 0 .84375-.5351559l-.0039063-.0097656c2.0739001-1.4466 3.6933438-3.5391937 4.5273438-6.0585937l2.154297.6152343.740234.2480469c.47482-1.4753.727959-3.0805656.730469-4.63476563h-1c-.0037 1.11640003-.154551 2.26227503-.425781 3.35937503l-7.6933596-2.1992188a6 6 0 0 0 .1191406-1.30078122zm.609375 2.33593752 4.808594 1.375c-.7645303 2.2794-2.230569 4.1752875-4.105469 5.4921875l-.6484375-1.0195313-.4238281-.6679687a9 9 0 0 1 -.6992188.4511718c-.39465.2321-.8076087.42455-1.2304687.59375l-.9453125-2.8359374a6 6 0 0 0 3.2441406-3.3886719zm3.5136719 5.6660156a12 12 0 0 1 -.6816407.7324219l1.4511719 1.3476562c-2.614 2.6230004-6.1622781 4.1277594-9.8925781 4.1308594v1c4.0072-.01 7.8163875-1.631584 10.617188-4.458984l2.208984 2.052734a18 18 0 0 1 -4.6367189 3.40625h2.0195309a19 19 0 0 0 3.345704-2.728516l.009765.009766a19 19 0 0 0 .681641-.732422h-.00586a19 19 0 0 0 1.759766-2.298828v-2.0390625a18 18 0 0 1 -2.507812 3.6406245l-2.179688-2.0253901-.726562-.6738281-1.4628911-1.359375z" fill="#e6ddff" transform="translate(3 3)"/>
</svg>
