<svg height="22" viewBox="0 0 22 22" width="22" xmlns="http://www.w3.org/2000/svg">
  <path d="m8-.09570313v.09570313a7 6 0 0 0 -.9199219.05859375 7 6 0 0 0 -.1621093.01757813h-.0039063a7 6 0 0 0 -5.9140625 5.90039062v7.9999995a7 2 0 0 0 7 2 7 2 0 0 0 7-2v-7.9999995a7 6 0 0 0 -4.314453-5.53515625h-.001953a7 6 0 0 0 -.052735-.01757813 7 6 0 0 0 -.390625-.11914062 7 6 0 0 0 -.2812496-.08007812 7 6 0 0 0 -.3808594-.08203126 7 6 0 0 0 -.3027344-.05859374 7 6 0 0 0 -.3710937-.04492188 7 6 0 0 0 -.328125-.03515625 7 6 0 0 0 -.5761719-.09960938zm2.115234 1.42187503a6 5 0 0 1 3.884766 4.6992187 6 2 0 0 1 -6 2 6 2 0 0 1 -6-2 6 5 0 0 1 3.7519531-4.6328125c-1.0237 1.4859-1.5613375 3.4269125-1.7109375 5.1328125a6 2 0 0 0 3.9589844.5c.29858-2.4953 1.1928344-4.2446281 2.115234-5.6738281zm-8.115234 6.1992187a7 3 0 0 0 6 1.4628906 7 3 0 0 0 6-1.4609374v6.4609372a6 1 0 0 1 -6 1 6 1 0 0 1 -6-1z" fill="#e6ddff" transform="translate(3 3)"/>
</svg>
