<svg height="22" viewBox="0 0 22 22" width="22" xmlns="http://www.w3.org/2000/svg">
  <path d="m10.931641-.05078125c-1.0952004.027-2.098016-.04174688-3.228516.25195313v-.00195313c-1.9015.7965-3.0107656 2.56065625-3.5097656 4.47265625-.039861.1586-.2597657.7891531-.2597656 1.5644531v2.8671875c-.058147 1.5569004-1.1641532 2.5091874-2.3144532 3.3671874-.53573.3786-1.0942406.708156-1.6191406 1.097656l.00390625 2.38086c2.96890005-.01 4.28043745-.020625 6.27343755-.015625 1.6043-2.4624 2.6697593-4.191853 2.6933593-6.7519534v-2.9433594c.06978-.6242999.3034869-1.2817437.8105469-1.3398437.88729-.048 1.61625.2047656 2.09375.5097656.26569.1715.851154.546875 1.771484.546875h2.353516v-5.01171872h-1.140625c-.80531.06500002-1.436628-.47718751-2.173828-.7421875-.36755-.091-.997316-.25195313-1.753906-.25195313z" fill="#e6ddff" transform="translate(3 3)"/>
</svg>
