<svg height="22" viewBox="0 0 22 22" width="22" xmlns="http://www.w3.org/2000/svg">
  <path d="m2 2.0039062c-1.108 0-2 .8920001-2 2v7.9999998c0 1.108.892 2 2 2h12c1.108 0 2-.892 2-2v-7.9999998c0-1.108-.892-2-2-2zm10.525391 1.90625c.38.0343.658203.3085938.658203.3085938s.72.7263625 0 1.4140625v.0019531l-6.3632815 6.3652344-3.5371094-3.5371094c-.3776-.359-.3776-1.0571156 0-1.4160156.3776-.359 1.0364625-.359 1.4140625 0l2.1210938 2.1230469 4.9492186-4.9511719c.264-.2642.529813-.3292937.757813-.3085938z" fill="#e6ddff" transform="translate(3 3)"/>
</svg>
