<svg height="22" viewBox="0 0 22 22" width="22" xmlns="http://www.w3.org/2000/svg">
  <path d="m8 1.0039062c-2.7614 0-5 2.2386-5 5 0 .17259.01425.3319101.03125.5.0137.1672501.0358.3361701.0625.5.57248 3.5143998 2.90625 6.0019528 4.90625 8.0019528 2-2 4.33375-4.487453 4.90625-8.0019528.0267-.1638299.0488-.3327499.0625-.5.0171-.1680899.03125-.32741.03125-.5 0-2.7614-2.2386-5-5-5zm0 3c1.1046 0 2 .89543 2 2 0 1.1045701-.89543 2-2 2s-2-.89543-2-2c0-1.1045699.89543-2 2-2z" fill="#e6ddff" transform="translate(3 3)"/>
</svg>
