<svg height="22" viewBox="0 0 22 22" width="22" xmlns="http://www.w3.org/2000/svg">
  <path clip-rule="evenodd" d="m5 6.998-2 .004.002 1 .014 6 .004 1 2-.004-.004-1-.00676-2.8989c.01373.1379.05604.2719.12464.3932.08493.1502.20727.2758.35512.3647l5 3c.1517.0906.3247.1395.5013.1415l.0117.0001v.0014h1v-1-6-.00084-.99916h-.971c-.0193-.00056-.0386-.00056-.058 0-.1709.0055-.3375.05474-.484.143l-5 3c-.14785.0889-.27019.2145-.35512.3647-.06937.1227-.11185.2583-.12509.3979l-.00679-2.9076zm12.973.002c-.1709.0055-.3375.05474-.484.143l-5 3c-.1479.0889-.2702.2145-.3551.3647s-.1296.3198-.1296.4923.0447.3421.1296.4923.2072.2758.3551.3647l5 3c.1517.0906.3247.1395.5013.1415.0039.0001.0078.0001.0117.0001v.0014h1v-.9994c0-.0002 0-.0004 0-.0006v-6c0-.00062 0-.00124 0-.00186v-.99814h-.971c-.0193-.00056-.0386-.00056-.058 0z" fill="#e6ddff" fill-rule="evenodd"/>
</svg>
