<svg height="22" viewBox="0 0 22 22" width="22" xmlns="http://www.w3.org/2000/svg">
  <path d="m6.5 4.50001c-.32849-.00066-.65388.06355-.95749.18895-.30361.12541-.57947.30953-.81175.54181-.23227.23228-.4164.50814-.5418.81175-.12541.30361-.18962.629-.18896.95749v4.99999c0 1.385 1.115 2.52 2.5 2.5h6.375l3.125 3v-3.063c.5637-.1124 1.0711-.4166 1.4357-.8609s.5641-1.0013.5643-1.5761v-4.99999c0-1.385-1.115-2.5-2.5-2.5zm-.5 5h4v.99999h-4zm5 0h5v.99999h-5zm-5 1.99999h2v1h-2zm3 0h5v1h-5zm6 0h1v1h-1z" fill="#e6ddff"/>
</svg>
