<svg height="22" viewBox="0 0 22 22" width="22" xmlns="http://www.w3.org/2000/svg">
  <path d="m8 .00195313c-1.6621 0-3 1.33809997-3 2.99999997v5.0019531c0 1.6619 1.3379 2.9980468 3 2.9980468s3-1.3362467 3-2.9980468v-5.0019531c0-1.6619-1.3379-2.99999997-3-2.99999997zm-6 7.00390627v.9980468c.00001 2.9651998 2.168 5.4276498 5 5.9062498v2.091797h2v-2.091797c2.832-.47866 5-2.94115 5-5.9062498v-.9980468h-2v.9980468c0 2.2330998-1.7666 3.9980468-4 3.9980468s-4-1.764947-4-3.9980468v-.9980468z" fill="#e6ddff" transform="translate(3 3)"/>
</svg>
