<svg height="22" viewBox="0 0 22 22" width="22" xmlns="http://www.w3.org/2000/svg">
  <path d="m8 .99609375c-3.866 0-7 3.13399995-7 7.00000005 0 3.8660002 3.134 7.0000002 7 7.0000002s7-3.134 7-7.0000002c0-3.8660001-3.134-7.00000005-7-7.00000005zm-.5 1.93750005c.0669-.0070001.15125.0039999.21875 0 .008.032-.0487.14587-.125.3125-.48586 1.0613999-.51342 2.3043499-.0625 2.96875.0816.12046.15625.2350999.15625.25 0 .0149-.088.03125-.1875.03125-.23358 0-.45462-.14237-.90625-.5-.20063-.1588701-.46145-.2923-.5625-.3125-.15868-.0317001-.20097-.0178-.40625.1875-.19099.1909599-.25.2939299-.25.46875 0 .6629399.78708 1.1898999 2.25 1.5 1.9867.4210699 2.47645.79907 2.53125 1.84375.0688 1.3100002-.62865 2.2978002-2.15625 3.0625002-.18233.0913-.2985.12675-.375.15625-.0339-.003-.05995.003-.09375 0-.013-.0405-.03125-.13446-.03125-.3125 0-.69578-.27425-1.412-.6875-1.8125-.11093-.10752-.42152-.33535-.6875-.5-.26597-.16464-.53395-.3559002-.59375-.4375002-.0991-.1354101-.10739-.2186001-.03125-.46875.13876-.4568701.30392-.7113301.625-1 .16833-.1513401.33771-.2782501.375-.28125.0373-.003-.21515-.0788001-.59375-.15625-.37858-.0776-.93242-.24012-1.21875-.34375-.52358-.18945-1.2305-.5871601-1.5-.875-.0114-.0122001-.02135-.02045-.03125-.03125.38613-1.5381 1.46975-2.79875 2.90625-3.40625.30057-.12713.61042-.21435.9375-.28125.16292-.0333.33178-.0454001.5-.0625zm4.6875 2.34375c.11745.0725999.56091 1.032.6875 1.5.16344.6041899.15161 1.6497999 0 2.25-.0577.22844-.13165.4421499-.15625.46875-.0246.0266-.11381-.1265301-.21875-.3125-.10495-.18594-.44016-.5810501-.71875-.875-.80414-.8485301-.93059-1.2915501-.59375-1.96875.16987-.34149.9091-1.1186 1-1.0625z" fill="#e6ddff" transform="translate(3 3)"/>
</svg>
