<svg height="22" viewBox="0 0 22 22" width="22" xmlns="http://www.w3.org/2000/svg">
  <path d="m11 3c-2.2091-.0000055-4 1.7909-4 4 .0000166 2.2091 1.7909 4 4 4 2.2091.000006 4-1.7909 4-4s-1.791-4-4-4zm0 8.986328c-4.028.0048-7.4965 3.017672-8 7.013672h9.712891c-1.0343-.827-1.712891-2.082-1.712891-3.5 0-1.403.665341-2.659228 1.681641-3.486328-.7385-.0145-1.494341-.025944-1.681641-.027344zm4.5.013672a3.5 3.5 0 0 0 -3.5 3.5 3.5 3.5 0 0 0 3.5 3.5 3.5 3.5 0 0 0 3.5-3.5 3.5 3.5 0 0 0 -3.5-3.5zm-.5 1h1v1h-1zm0 2h1v3h-1z" fill="#e6ddff"/>
</svg>
