<svg height="22" viewBox="0 0 22 22" width="22" xmlns="http://www.w3.org/2000/svg">
  <path d="m2.9960938.99609375.0039062.00390625c-2.25 0-2 2-2 2v12h5.9960938v-2h-3.9960938v-10h10v4h1.996094v-4.0039062c0-2.00000005-2-2.00000005-2-2.00000005zm1.0039062 3.00390625v2h2v-2zm3 0v2h2v-2zm3 0v2h2v-2zm-6 3v2h2v-2zm4.9960938 1.9960938c-.554 0-1 .5344387-1 1.1992182v3.601563c0 .6648.446 1.199219 1 1.199219h5.0000002c.54707 0 .985134-.522551.996094-1.175782v1.175782h.003906v-4.820313c-.01-.6599997-.45-1.1796872-1-1.1796872zm-4.9960938 1.0039062v2h2v-2z" fill="#e6ddff" transform="translate(3 3)"/>
</svg>
