<svg height="22" viewBox="0 0 22 22" width="22" xmlns="http://www.w3.org/2000/svg">
  <path d="m11 0v1.7460938c-.35059-.01741-.711669-.0455594-1.0371094-.0371094-1.0493.02723-1.97045.1846812-2.78125.4570312-1.6216.54471-2.7790468 1.5560688-3.5605468 2.7929688-1.1085001 1.7542-1.4947063 3.9333156-1.6289063 6.0410156h-1.9921875v5h5v-2.052734c4.2585-.46793 6.90985-2.803825 8.28125-5.2656254.71511-1.2836 1.085244-2.5768406 1.214844-3.6816406h1.503906v-5zm-1.0078125 2.7089844c.3127995-.0081.6648125.0172562 1.0078125.0351562v2.2558594h2.492188c-.128081.94186-.461305 2.0755594-1.083985 3.1933594-1.2295 2.2070996-3.529503 4.2788566-7.408203 4.7226566v-1.916016h-1.9804688c.1338-2.0023.4957557-4.0020125 1.4472657-5.5078125.67791-1.0728 1.6244031-1.9036531 3.0332031-2.3769531.70441-.23662 1.5283875-.38142 2.4921875-.40625z" fill="#e6ddff" transform="translate(3 3)"/>
</svg>
