<svg fill="none" height="22" viewBox="0 0 22 22" width="22" xmlns="http://www.w3.org/2000/svg">
  <path d="m7.41421 9.58579 1.41422 1.41421-1.41422 1.4142 1.41422 1.4142 1.41417-1.4142 1.4142 1.4142 1.4143-1.4142-1.4143-1.4142 1.4143-1.41421-1.4143-1.41422-1.4142 1.41422-1.41417-1.41422z" fill="#e01b24"/>
  <g fill="#e6ddff">
    <path d="m19 7.00002v7.99998h-.5052-.0523c-.0975.0008-.1939-.0311-.2787-.1l-3.9025-3.2c-.1732-.1375-.2613-.4188-.2613-.7s.0881-.5625.2613-.7l3.9025-3.19998c.0848-.069.1812-.10104.2787-.1h.0523z"/>
    <path d="m6 8h-3v6h3z"/>
  </g>
</svg>
