<svg fill="none" height="22" viewBox="0 0 22 22" width="22" xmlns="http://www.w3.org/2000/svg">
  <g fill="#e6ddff">
    <path clip-rule="evenodd" d="m7 3h2v4h1v-2h2v2h1v-2h2v2h1v-4h2v4h1v2h-16v-2h1v-2h2v2h1z" fill-rule="evenodd"/>
    <path d="m5 12h-2v7h2z"/>
    <path d="m19 12h-2v7h2z"/>
  </g>
  <path d="m8.5 19 .00448-7h-.35366-.03658c-.06826-.0007-.13574.0272-.19518.0875l-2.7335 2.8c-.12133.1203-.18316.3664-.18332.6125s.06136.4922.18253.6125l2.72992 2.8c.05936.0604.12681.0884.19507.0875h.03658z" fill="#3584e4"/>
  <path d="m13.5 19-.0045-7h.3537.0366c.0682-.0007.1357.0272.1951.0875l2.7335 2.8c.1214.1203.1832.3664.1834.6125.0001.2461-.0614.4922-.1826.6125l-2.7299 2.8c-.0594.0604-.1268.0884-.1951.0875h-.0365z" fill="#3584e4"/>
</svg>
