<svg height="22" width="22" xmlns="http://www.w3.org/2000/svg">
  <g fill="#e6ddff">
    <path d="m7 10-4 3.239999 4 3.760001v-2.02h2.0626397c.9771093 0 1.8409673.628812 2.1029083 1.44.313293.9702-1.029082 2.58-1.029082 2.58s2.863534-.88 2.863534-3.220001c0-2.248919-1.431767-3.779999-3.5794184-3.779999h-2.4205816z"/>
    <path d="m15 12 4-3.239999-4-3.760001v2.02h-2.06264c-.977109 0-1.840967-.628812-2.102908-1.44-.313293-.9702 1.029082-2.58 1.029082-2.58s-2.863534.88-2.863534 3.220001c0 2.248919 1.431767 3.779999 3.579418 3.779999h2.420582z"/>
    <path d="m18.805711 14c-.09101 0-.182726.03479-.253395.105469l-.697201.703125 1.335814 1.335937.703061-.697265c.141347-.141352.141347-.364012 0-.505372l-.836348-.836425c-.07067-.07068-.160917-.105469-.251931-.105469zm-1.480821 1.338867-3.32489 3.325196v1.335937h1.335814l3.324891-3.325195z"/>
  </g>
</svg>
