<svg height="22" viewBox="0 0 22 22" width="22" xmlns="http://www.w3.org/2000/svg">
  <g fill="#e6ddff">
    <path clip-rule="evenodd" d="m10.0537 14.7163h2.0334v.9253c.1978.631 1.2344 1.3048 2.5968 1.9723.1559.2572.1274.792-.6766.8333-1.341-.657-2.4711-1.6516-2.9057-2.4216h-.0879c-.4346.77-1.5647 1.7646-2.90572 2.4216-.80395-.0413-.83249-.5761-.67657-.8333 1.36914-.6708 2.40926-1.348 2.59969-1.9818l.0226.0011z" fill-rule="evenodd"/>
    <path clip-rule="evenodd" d="m5.06 6.02957c-.51076.02385-.99786-.55649-1.00146-1.00552.00188-.50986.45791-.98914 1.00146-.98614l12.1359-.01661c.4708-.00611.8664.56371.8664 1.03586s-.3901.97841-.8609.97241h-.104v7.00023c.0146 1.2811-.824 1.9956-2.0467 2.0026h-7.99013c-.9842.0159-1.98196-1.0102-1.99437-2.0078v-6.99503zm11.0374 0h-10.0312v7.00303c-.01973.4891.45784.9998 1.00542.9998h7.98728c.7945.0076 1.0666-.4701 1.0385-1.0023z" fill-rule="evenodd"/>
    <path d="m7.03 7.06h8.031v5.969h-8.031z" opacity=".3"/>
  </g>
</svg>
