<svg height="22" viewBox="0 0 22 22" width="22" xmlns="http://www.w3.org/2000/svg">
  <path d="m7 1-7 7h2v7h8.376953c-.23386-.47865-.376953-1.008066-.376953-1.572266 0-1.3977.82389-2.586956 2-3.160156v-2.267578h2zm0 5c1.1046 0 2 .89547 2 2s-.89543 2-2 2c2.9999-.0018 3 2.400391 3 2.400391v.599609h-6v-.599609s-.00011-2.398591 3-2.400391c-1.1046 0-2-.89547-2-2s.89543-2 2-2zm6.5 4v.857422c-1.3806 0-2.5 1.150212-2.5 2.570312 0 1.4202 1.1194 2.572266 2.5 2.572266 1.3666 0 2.475647-1.129097 2.498047-2.529297a.41663.42857 0 0 0 .001953-.042969.41663.42857 0 0 0 -.416016-.427734.41663.42857 0 0 0 -.417968.427734c0 .94677-.745636 1.714844-1.666016 1.714844s-1.666016-.768114-1.666016-1.714844c0-.94677.745656-1.71289 1.666016-1.71289v.857422l1.666016-1.28711z" fill="#e6ddff" transform="translate(3 3)"/>
</svg>
