<?xml version="1.0" encoding="UTF-8" standalone="no"?>
<svg
   xmlns:dc="http://purl.org/dc/elements/1.1/"
   xmlns:cc="http://creativecommons.org/ns#"
   xmlns:rdf="http://www.w3.org/1999/02/22-rdf-syntax-ns#"
   xmlns:svg="http://www.w3.org/2000/svg"
   xmlns="http://www.w3.org/2000/svg"
   xmlns:xlink="http://www.w3.org/1999/xlink"
   xmlns:sodipodi="http://sodipodi.sourceforge.net/DTD/sodipodi-0.dtd"
   xmlns:inkscape="http://www.inkscape.org/namespaces/inkscape"
   width="128"
   height="128"
   version="1.0"
   id="svg75"
   sodipodi:docname="AdobeLightroom.svg"
   inkscape:version="0.92.3 (2405546, 2018-03-11)">
  <metadata
     id="metadata79">
    <rdf:RDF>
      <cc:Work
         rdf:about="">
        <dc:format>image/svg+xml</dc:format>
        <dc:type
           rdf:resource="http://purl.org/dc/dcmitype/StillImage" />
        <dc:title />
      </cc:Work>
    </rdf:RDF>
  </metadata>
  <sodipodi:namedview
     pagecolor="#ffffff"
     bordercolor="#666666"
     borderopacity="1"
     objecttolerance="10"
     gridtolerance="10"
     guidetolerance="10"
     inkscape:pageopacity="0"
     inkscape:pageshadow="2"
     inkscape:window-width="1800"
     inkscape:window-height="986"
     id="namedview77"
     showgrid="false"
     inkscape:zoom="6.34375"
     inkscape:cx="42.735707"
     inkscape:cy="64"
     inkscape:window-x="0"
     inkscape:window-y="57"
     inkscape:window-maximized="0"
     inkscape:current-layer="g73" />
  <defs
     id="defs24">
    <linearGradient
       id="a">
      <stop
         offset="0"
         stop-color="#68676b"
         id="stop2" />
      <stop
         offset=".8"
         stop-color="#424048"
         id="stop4" />
      <stop
         offset="1"
         stop-color="#241f31"
         id="stop6" />
    </linearGradient>
    <radialGradient
       xlink:href="#a"
       id="d"
       gradientUnits="userSpaceOnUse"
       gradientTransform="matrix(1.34416 .0006 -.00062 1.38763 -121.22 -718.103)"
       cx="279.422"
       cy="446.483"
       fx="279.422"
       fy="446.483"
       r="224" />
    <linearGradient
       xlink:href="#b"
       id="e"
       gradientUnits="userSpaceOnUse"
       gradientTransform="matrix(1.0015 0 0 .99993 72.09 56.015)"
       x1="43.844"
       y1="234"
       x2="-60"
       y2="234" />
    <linearGradient
       id="b">
      <stop
         offset="0"
         stop-color="#d5d3cf"
         id="stop11" />
      <stop
         offset=".038"
         stop-color="#e3e2df"
         id="stop13" />
      <stop
         offset=".077"
         stop-color="#c0bfbc"
         id="stop15" />
      <stop
         offset=".923"
         stop-color="#c0bfbc"
         id="stop17" />
      <stop
         offset=".962"
         stop-color="#e3e2df"
         id="stop19" />
      <stop
         offset="1"
         stop-color="#d5d3cf"
         id="stop21" />
    </linearGradient>
  </defs>
  <g
     transform="translate(0 -172)"
     id="g73">
    <rect
       ry="8"
       rx="8"
       height="48"
       width="104"
       x="12"
       y="240"
       fill="url(#e)"
       id="rect33" />
    <path
       style="fill:#022326;fill-opacity:1"
       d="M 20 10 C 15.568 10 12 13.568 12 18 L 12 60 L 12 102 C 12 106.432 15.568 110 20 110 L 64 110 L 108 110 C 112.432 110 116 106.432 116 102 L 116 60 L 116 18 C 116 13.568 112.432 10 108 10 L 20 10 z "
       transform="translate(0,172)"
       id="path37" />
    <rect
       style="opacity:1;fill:#0000ff;fill-opacity:0;stroke:none"
       id="rect3878-2"
       width="96"
       height="2.5"
       x="-93.428574"
       y="272.13547" />
    <path
       style="color:#000000;font-style:normal;font-variant:normal;font-weight:normal;font-stretch:normal;font-size:medium;line-height:normal;font-family:sans-serif;font-variant-ligatures:normal;font-variant-position:normal;font-variant-caps:normal;font-variant-numeric:normal;font-variant-alternates:normal;font-feature-settings:normal;text-indent:0;text-align:start;text-decoration:none;text-decoration-line:none;text-decoration-style:solid;text-decoration-color:#000000;letter-spacing:normal;word-spacing:normal;text-transform:none;writing-mode:lr-tb;direction:ltr;text-orientation:mixed;dominant-baseline:auto;baseline-shift:baseline;text-anchor:start;white-space:normal;shape-padding:0;clip-rule:nonzero;display:inline;overflow:visible;visibility:visible;opacity:1;isolation:auto;mix-blend-mode:normal;color-interpolation:sRGB;color-interpolation-filters:linearRGB;solid-color:#000000;solid-opacity:1;vector-effect:none;fill:#ccfbff;fill-opacity:1;fill-rule:nonzero;stroke:none;stroke-width:4;stroke-linecap:butt;stroke-linejoin:miter;stroke-miterlimit:4;stroke-dasharray:none;stroke-dashoffset:0;stroke-opacity:1;color-rendering:auto;image-rendering:auto;shape-rendering:auto;text-rendering:auto;enable-background:accumulate"
       d="m 21.691406,181.8457 c -1.212672,0 -2.433032,0.003 -3.664062,0.31641 -1.565504,0.39892 -2.781079,1.24397 -3.660156,2.13672 -0.963889,0.97887 -1.825941,2.30933 -2.201172,3.95898 C 11.879168,189.51891 12,190.55884 12,191.53906 v 40.38477 40.38476 c 0,0.71603 -0.04245,1.78112 0.117188,2.86133 0.221271,1.49722 0.797024,2.86719 1.716796,3.96094 0.90846,1.08029 2.117498,1.99735 3.605469,2.49023 C 19.098158,282.17054 20.533312,282 21.691406,282 H 64 106.30859 c 0.91999,0 2.09301,0.11639 3.45508,-0.18164 1.63229,-0.35724 3.12075,-1.19192 4.21875,-2.43945 0.87624,-0.99558 1.53755,-2.26478 1.8418,-3.71875 C 116.10603,274.31347 116,273.13294 116,272.30859 v -40.38476 -40.38477 c 0,-0.88745 0.17071,-2.24297 -0.35156,-3.90234 -0.4269,-1.35639 -1.49808,-3.48733 -3.92578,-4.75195 -1.86748,-0.97279 -3.93912,-1.03907 -5.41407,-1.03907 z m 0,4 h 84.617184 c 1.08984,0 3.02337,0.30502 3.56641,0.58789 1.19087,0.62034 1.75224,1.74739 1.95898,2.4043 0.25909,0.82317 0.16602,1.48048 0.16602,2.70117 v 40.38477 40.38476 c 0,1.0294 0.0358,1.92126 -0.0918,2.53125 -0.14937,0.71385 -0.55324,1.46878 -0.92968,1.89649 -0.47122,0.53538 -1.24401,0.99298 -2.07032,1.17383 -0.59015,0.12913 -1.47677,0.0898 -2.59961,0.0898 H 64 21.691406 c -1.387913,0 -2.309645,0.049 -2.99414,-0.17773 -0.531845,-0.17618 -1.404779,-0.79472 -1.800782,-1.26563 -0.428011,-0.50897 -0.688757,-1.06732 -0.822265,-1.9707 C 15.996837,274.06233 16,273.10746 16,272.30859 v -40.38476 -40.38477 c 0,-1.168 -0.0313,-1.96498 0.06641,-2.39453 0.180215,-0.79229 0.632349,-1.51297 1.150391,-2.03906 0.525868,-0.53405 0.998168,-0.86434 1.798828,-1.06836 0.533917,-0.13603 1.527954,-0.19141 2.675781,-0.19141 z"
       id="path2137"
       inkscape:connector-curvature="0" />
    <path
       class="st2"
       d="m 38.682974,256.95473 c -0.54348,0 -0.679348,-0.22634 -0.679348,-0.67937 V 207.5888 c 0,-0.36232 0.135874,-0.5888 0.543477,-0.5888 h 7.155796 c 0.36232,0 0.452898,0.13587 0.452898,0.54349 v 41.93839 h 18.659419 c 0.362317,0 0.498188,0.13587 0.40761,0.5435 l -1.13225,6.43115 C 63.999996,256.81885 63.773549,257 63.411229,257 H 38.682974 Z M 72.65036,227.6069 c 0,-0.54349 0,-1.8569 -0.226446,-4.39311 0,-0.36232 0.09057,-0.45292 0.362317,-0.5888 2.762683,-1.13223 9.329713,-3.12497 16.666673,-3.12497 0.362309,0 0.54347,0.0905 0.54347,0.45289 v 6.52173 c 0,0.36232 -0.135874,0.45289 -0.54347,0.45289 -2.853272,-0.13587 -7.065221,0.22634 -8.650369,0.90582 v 28.57788 c 0,0.36232 -0.135874,0.5435 -0.54348,0.5435 h -7.1105 c -0.362324,0 -0.543481,-0.13588 -0.543481,-0.5435 V 227.6069 Z"
       id="path1016"
       inkscape:connector-curvature="0"
       style="clip-rule:evenodd;fill:#ccfbff;fill-rule:evenodd;stroke-width:1" />
  </g>
</svg>
