<?xml version="1.0" encoding="UTF-8" standalone="no"?>
<svg
   xmlns:dc="http://purl.org/dc/elements/1.1/"
   xmlns:cc="http://creativecommons.org/ns#"
   xmlns:rdf="http://www.w3.org/1999/02/22-rdf-syntax-ns#"
   xmlns:svg="http://www.w3.org/2000/svg"
   xmlns="http://www.w3.org/2000/svg"
   xmlns:xlink="http://www.w3.org/1999/xlink"
   viewBox="0 0 128 128"
   height="128"
   width="128"
   id="svg2"
   version="1.1">
  <metadata
     id="metadata8">
    <rdf:RDF>
      <cc:Work
         rdf:about="">
        <dc:format>image/svg+xml</dc:format>
        <dc:type
           rdf:resource="http://purl.org/dc/dcmitype/StillImage" />
        <dc:title></dc:title>
      </cc:Work>
    </rdf:RDF>
  </metadata>
  <defs
     id="defs6">
    <linearGradient
       id="linearGradient1022">
      <stop
         id="stop1018"
         offset="0"
         style="stop-color:#0ad8e2;stop-opacity:1" />
      <stop
         id="stop1020"
         offset="1"
         style="stop-color:#3b63ff;stop-opacity:1" />
    </linearGradient>
    <linearGradient
       id="linearGradient1014">
      <stop
         id="stop1010"
         offset="0"
         style="stop-color:#1affb9;stop-opacity:1" />
      <stop
         id="stop1012"
         offset="1"
         style="stop-color:#00d1fa;stop-opacity:1" />
    </linearGradient>
    <linearGradient
       id="linearGradient1007">
      <stop
         id="stop999"
         offset="0"
         style="stop-color:#3470ff;stop-opacity:1" />
      <stop
         style="stop-color:#0bd4e5;stop-opacity:1"
         offset="0.42488337"
         id="stop1001" />
      <stop
         id="stop1005"
         offset="1"
         style="stop-color:#3275ff;stop-opacity:1" />
    </linearGradient>
    <linearGradient
       id="linearGradient918">
      <stop
         style="stop-color:#006a6f;stop-opacity:1"
         offset="0"
         id="stop910" />
      <stop
         id="stop912"
         offset="0.29411766"
         style="stop-color:#005b69;stop-opacity:1" />
      <stop
         style="stop-color:#005e8f;stop-opacity:1"
         offset="0.29411766"
         id="stop914" />
      <stop
         style="stop-color:#00418e;stop-opacity:1"
         offset="1"
         id="stop916" />
    </linearGradient>
    <linearGradient
       id="linearGradient892">
      <stop
         id="stop888"
         offset="0"
         style="stop-color:#004d53;stop-opacity:1;" />
      <stop
         style="stop-color:#00384c;stop-opacity:1"
         offset="0.32911393"
         id="stop896" />
      <stop
         id="stop898"
         offset="0.32911393"
         style="stop-color:#00437d;stop-opacity:1" />
      <stop
         id="stop890"
         offset="1"
         style="stop-color:#00357f;stop-opacity:1" />
    </linearGradient>
    <linearGradient
       y2="522"
       x2="275"
       y1="72"
       x1="325"
       gradientTransform="translate(-156.28743,-5.3808383)"
       gradientUnits="userSpaceOnUse"
       id="linearGradient900"
       xlink:href="#linearGradient892" />
    <linearGradient
       gradientTransform="translate(-30.287425,57.619162)"
       gradientUnits="userSpaceOnUse"
       y2="459"
       x2="232"
       y1="34"
       x1="232"
       id="linearGradient908"
       xlink:href="#linearGradient918" />
    <linearGradient
       gradientUnits="userSpaceOnUse"
       y2="480.91318"
       x2="66.252388"
       y1="117.84252"
       x1="272.29431"
       id="linearGradient997"
       xlink:href="#linearGradient1007" />
    <linearGradient
       gradientUnits="userSpaceOnUse"
       y2="238.28412"
       x2="334.96826"
       y1="348.38751"
       x1="185.27713"
       id="linearGradient1016"
       xlink:href="#linearGradient1014" />
    <linearGradient
       gradientUnits="userSpaceOnUse"
       y2="441.73892"
       x2="443.90421"
       y1="363.57843"
       x1="173.90421"
       id="linearGradient1024"
       xlink:href="#linearGradient1022" />
    <filter
       height="1.0502239"
       y="-0.025112011"
       width="1.0459646"
       x="-0.022982297"
       id="filter1043"
       style="color-interpolation-filters:sRGB">
      <feGaussianBlur
         id="feGaussianBlur1045"
         stdDeviation="3.8521872" />
    </filter>
    <linearGradient
       y2="522"
       x2="275"
       y1="72"
       x1="325"
       gradientTransform="matrix(0.23776521,0,0,0.23776521,-26.671712,-15.295336)"
       gradientUnits="userSpaceOnUse"
       id="linearGradient1047"
       xlink:href="#linearGradient892" />
    <linearGradient
       y2="459"
       x2="232"
       y1="34"
       x1="232"
       gradientTransform="matrix(0.23776521,0,0,0.23776521,3.215274,-0.31612552)"
       gradientUnits="userSpaceOnUse"
       id="linearGradient1049"
       xlink:href="#linearGradient918" />
  </defs>
  <path
     id="path1052"
     d="M 50.464379,6.6515628 41.502713,22.312715 45.403649,28.818234 26.852913,61.102401 15.52812,67.366458 3,88.569275 l 8.876559,14.396415 -0.03358,0.0597 1.141979,2.28594 0.06137,0.12474 h 2.891565 l 2.650108,4.57787 H 70.149179 L 74.485525,117 78.485615,116.9674 77.398018,115 73.280213,110.01361 H 114.23905 L 116.97228,105.311 124.6,92.183235 124,90.510184 76.654692,9.5431251 H 71.3525 L 69.90771,6.6515628 h -2.578853 z"
     style="opacity:0.2;fill:#000000;fill-opacity:1;stroke:none;stroke-width:0.99999946px;stroke-linecap:butt;stroke-linejoin:miter;stroke-opacity:1" />
  <path
     id="path819"
     d="M 12.725882,101.20962 67.41188,6.1035345 h 2.615417 l 1.426591,2.85319 h 5.230835 L 124,90.510184 113.77609,108.10481 H 73.35601 L 77.398018,115 h -2.853182 l -4.279774,-6.89519 H 19.383308 l -2.615417,-4.51754 h -2.853183 z"
     style="fill:url(#linearGradient1049);fill-opacity:1;stroke:none;stroke-width:0.99999994px;stroke-linecap:butt;stroke-linejoin:miter;stroke-opacity:1" />
  <path
     style="fill:url(#linearGradient1047);fill-opacity:1;stroke:none;stroke-width:0.99999994px;stroke-linecap:butt;stroke-linejoin:miter;stroke-opacity:1"
     d="M 67.483309,6.1035345 H 50.839744 l -8.842721,15.4547395 3.849652,6.41966 -18.307919,31.86054 -11.174965,6.1819 L 4,86.943704 12.797313,101.20962"
     id="path872" />
  <path
     id="path920"
     d="m 70.185653,108.10481 h 0.07941 L 74.544837,115 h 2.853182 l -4.042009,-6.89519 h 40.42008 L 123.71966,90.969128 124,90.510184 102.28396,53.079814 Z"
     style="fill:#001064;fill-opacity:1;stroke:none;stroke-width:0.99999994px;stroke-linecap:butt;stroke-linejoin:miter;stroke-opacity:1" />
  <path
     id="rect936"
     d="m 13.85341,103.46514 0.0613,0.12213 h 2.853183 l 2.615417,4.51754 H 70.265064 L 74.544838,115 h 2.853182 l -4.042008,-6.89519 H 113.7761 l 2.69622,-4.63967 z"
     style="opacity:0.4;fill:#000000;fill-opacity:1;stroke:none;stroke-width:3.99999976;stroke-linecap:butt;stroke-linejoin:round;stroke-miterlimit:4;stroke-dasharray:none;stroke-opacity:1" />
  <g
     transform="matrix(0.23776521,0,0,0.23776521,10.41657,-14.015956)"
     style="fill:#000000;fill-opacity:1;stroke-width:4.20582962;filter:url(#filter1043)"
     id="g1037">
    <path
       id="path1031"
       d="M 255.2476,114.74312 41.627231,482.90359 H 233.56137 L 160.70748,360.04971 278.56137,155.35629 Z"
       style="fill:#000000;fill-opacity:1;stroke:none;stroke-width:4.20582962px;stroke-linecap:butt;stroke-linejoin:miter;stroke-opacity:1" />
    <path
       id="path1033"
       d="m 283.08203,164.20508 -70,120 40,70 h 140 z m -74.05664,128.35937 -26.84766,45.75 c -1.57843,3.26518 -0.5665,7.53225 1.14258,9.99414 2.3668,3.31433 6.08914,5.7187 10.91016,5.89649 h 49.85937 z"
       style="fill:#000000;fill-opacity:1;stroke:none;stroke-width:4.20582962px;stroke-linecap:butt;stroke-linejoin:miter;stroke-opacity:1" />
    <path
       id="path1035"
       d="m 173.9042,363.57843 46.78084,78.16048 H 443.9042 l -45,-77.5473 z"
       style="fill:#000000;fill-opacity:1;stroke:none;stroke-width:4.20582962px;stroke-linecap:butt;stroke-linejoin:miter;stroke-opacity:1" />
  </g>
  <g
     style="stroke-width:4.20582962"
     transform="matrix(0.23776521,0,0,0.23776521,10.41657,-14.015956)"
     id="g1029">
    <path
       style="fill:url(#linearGradient997);fill-opacity:1;stroke:none;stroke-width:4.20582962px;stroke-linecap:butt;stroke-linejoin:miter;stroke-opacity:1"
       d="M 255.2476,114.74312 41.627231,482.90359 H 233.56137 L 160.70748,360.04971 278.56137,155.35629 Z"
       id="path823" />
    <path
       style="fill:url(#linearGradient1016);fill-opacity:1;stroke:none;stroke-width:4.20582962px;stroke-linecap:butt;stroke-linejoin:miter;stroke-opacity:1"
       d="m 283.08203,164.20508 -70,120 40,70 h 140 z m -74.05664,128.35937 -26.84766,45.75 c -1.57843,3.26518 -0.5665,7.53225 1.14258,9.99414 2.3668,3.31433 6.08914,5.7187 10.91016,5.89649 h 49.85937 z"
       id="path860" />
    <path
       style="fill:url(#linearGradient1024);fill-opacity:1;stroke:none;stroke-width:4.20582962px;stroke-linecap:butt;stroke-linejoin:miter;stroke-opacity:1"
       d="m 173.9042,363.57843 46.78084,78.16048 H 443.9042 l -45,-77.5473 z"
       id="path847" />
  </g>
</svg>
