<?xml version="1.0" encoding="UTF-8" standalone="no"?>
<svg
   xmlns:dc="http://purl.org/dc/elements/1.1/"
   xmlns:cc="http://creativecommons.org/ns#"
   xmlns:rdf="http://www.w3.org/1999/02/22-rdf-syntax-ns#"
   xmlns:svg="http://www.w3.org/2000/svg"
   xmlns="http://www.w3.org/2000/svg"
   xmlns:xlink="http://www.w3.org/1999/xlink"
   xmlns:sodipodi="http://sodipodi.sourceforge.net/DTD/sodipodi-0.dtd"
   xmlns:inkscape="http://www.inkscape.org/namespaces/inkscape"
   viewBox="0 0 128 128"
   style="display:inline;enable-background:new"
   version="1.0"
   id="svg11300"
   height="128"
   width="128"
   sodipodi:docname="applications-development.svg"
   inkscape:version="0.92.3 (2405546, 2018-03-11)">
  <sodipodi:namedview
     pagecolor="#ffffff"
     bordercolor="#666666"
     borderopacity="1"
     objecttolerance="10"
     gridtolerance="10"
     guidetolerance="10"
     inkscape:pageopacity="0"
     inkscape:pageshadow="2"
     inkscape:window-width="1920"
     inkscape:window-height="1009"
     id="namedview65"
     showgrid="false"
     inkscape:zoom="6.5234375"
     inkscape:cx="64"
     inkscape:cy="64"
     inkscape:window-x="0"
     inkscape:window-y="34"
     inkscape:window-maximized="1"
     inkscape:current-layer="layer9" />
  <title
     id="title4162">Adwaita Icon Template</title>
  <defs
     id="defs3">
    <clipPath
       clipPathUnits="userSpaceOnUse"
       id="clipPath2023">
      <path
         id="path2025"
         d="M 276.18114,-123.2044 398.56793,-0.49937496 395.60046,294.0023 86.199765,294.90241 87.999995,-124 Z"
         style="fill:#e74747;stroke:none;stroke-width:1px;stroke-linecap:butt;stroke-linejoin:miter;stroke-opacity:1" />
    </clipPath>
    <clipPath
       clipPathUnits="userSpaceOnUse"
       id="clipPath17445">
      <path
         id="path17447"
         d="m 672,-180.05567 c -17.728,0 -32,14.272 -32,32 v 384.11133 c 0,17.728 14.272,32 32,32 h 256 c 17.728,0 32,-14.272 32,-32 V -67.92481 L 848.1582,-180.05567 Z"
         clip-path="none"
         style="display:inline;opacity:1;fill:#26a269;fill-opacity:1;stroke:none;stroke-width:2;stroke-linejoin:round;stroke-miterlimit:4;stroke-dasharray:none;stroke-opacity:1;enable-background:new" />
    </clipPath>
    <clipPath
       clipPathUnits="userSpaceOnUse"
       id="clipPath18689">
      <rect
         clip-path="none"
         transform="rotate(45)"
         ry="32.000008"
         rx="32.000008"
         y="123.9986"
         x="486.03726"
         height="362.94299"
         width="362.94299"
         id="rect18691"
         style="display:inline;opacity:1;vector-effect:none;fill:#4a86cf;fill-opacity:1;stroke:none;stroke-width:26.06693268;stroke-linecap:butt;stroke-linejoin:miter;stroke-miterlimit:4;stroke-dasharray:none;stroke-dashoffset:0;stroke-opacity:1;marker:none;marker-start:none;marker-mid:none;marker-end:none;paint-order:normal;enable-background:new" />
    </clipPath>
    <clipPath
       clipPathUnits="userSpaceOnUse"
       id="clipPath17445-6">
      <path
         id="path17447-9"
         d="m 672,-180.05567 c -17.728,0 -32,14.272 -32,32 v 384.11133 c 0,17.728 14.272,32 32,32 h 256 c 17.728,0 32,-14.272 32,-32 V -67.92481 L 848.1582,-180.05567 Z"
         clip-path="none"
         style="display:inline;opacity:1;fill:#26a269;fill-opacity:1;stroke:none;stroke-width:2;stroke-linejoin:round;stroke-miterlimit:4;stroke-dasharray:none;stroke-opacity:1;enable-background:new" />
    </clipPath>
    <clipPath
       clipPathUnits="userSpaceOnUse"
       id="clipPath1366">
      <path
         style="fill:#9b6fe2;stroke:none;stroke-width:1px;stroke-linecap:butt;stroke-linejoin:miter;stroke-opacity:1"
         d="m 64.000002,-116 c -17.728,0 -32,14.272 -32,32 v 256 c 0,17.728 14.272,32 32,32 H 384 l 96,-95.99805 V -84 c 0,-17.728 -14.272,-32 -32,-32 z"
         id="path1368" />
    </clipPath>
    <clipPath
       clipPathUnits="userSpaceOnUse"
       id="clipPath17445-6-2">
      <path
         id="path17447-9-7"
         d="m 672,-180.05567 c -17.728,0 -32,14.272 -32,32 v 384.11133 c 0,17.728 14.272,32 32,32 h 256 c 17.728,0 32,-14.272 32,-32 V -67.92481 L 848.1582,-180.05567 Z"
         clip-path="none"
         style="display:inline;opacity:1;fill:#26a269;fill-opacity:1;stroke:none;stroke-width:2;stroke-linejoin:round;stroke-miterlimit:4;stroke-dasharray:none;stroke-opacity:1;enable-background:new" />
    </clipPath>
    <clipPath
       clipPathUnits="userSpaceOnUse"
       id="clipPath17445-6-2-9">
      <path
         id="path17447-9-7-0"
         d="m 672,-180.05567 c -17.728,0 -32,14.272 -32,32 v 384.11133 c 0,17.728 14.272,32 32,32 h 256 c 17.728,0 32,-14.272 32,-32 V -67.92481 L 848.1582,-180.05567 Z"
         clip-path="none"
         style="display:inline;opacity:1;fill:#26a269;fill-opacity:1;stroke:none;stroke-width:2;stroke-linejoin:round;stroke-miterlimit:4;stroke-dasharray:none;stroke-opacity:1;enable-background:new" />
    </clipPath>
    <clipPath
       clipPathUnits="userSpaceOnUse"
       id="clipPath18689-3">
      <rect
         clip-path="none"
         transform="rotate(45)"
         ry="32.000008"
         rx="32.000008"
         y="123.9986"
         x="486.03726"
         height="362.94299"
         width="362.94299"
         id="rect18691-6"
         style="display:inline;opacity:1;vector-effect:none;fill:#4a86cf;fill-opacity:1;stroke:none;stroke-width:26.06693268;stroke-linecap:butt;stroke-linejoin:miter;stroke-miterlimit:4;stroke-dasharray:none;stroke-dashoffset:0;stroke-opacity:1;marker:none;marker-start:none;marker-mid:none;marker-end:none;paint-order:normal;enable-background:new" />
    </clipPath>
    <clipPath
       clipPathUnits="userSpaceOnUse"
       id="clipPath2023-6">
      <path
         id="path2025-0"
         d="M 276.18114,-123.2044 398.56793,-0.49937496 395.60046,294.0023 86.199765,294.90241 87.999995,-124 Z"
         style="fill:#e74747;stroke:none;stroke-width:1px;stroke-linecap:butt;stroke-linejoin:miter;stroke-opacity:1" />
    </clipPath>
    <clipPath
       clipPathUnits="userSpaceOnUse"
       id="clipPath2250">
      <path
         id="path2248"
         d="M 276.18114,-123.2044 398.56793,-0.49937496 395.60046,294.0023 86.199765,294.90241 87.999995,-124 Z"
         style="fill:#e74747;stroke:none;stroke-width:1px;stroke-linecap:butt;stroke-linejoin:miter;stroke-opacity:1" />
    </clipPath>
    <clipPath
       id="clipPath2019-7"
       clipPathUnits="userSpaceOnUse">
      <path
         id="path2021-5"
         d="M 280,124 400,4 392,-276 H 87.999995 v 400 z"
         style="fill:#e74747;stroke:none;stroke-width:1px;stroke-linecap:butt;stroke-linejoin:miter;stroke-opacity:1" />
    </clipPath>
    <clipPath
       id="clipPath1599"
       clipPathUnits="userSpaceOnUse">
      <path
         id="path1601"
         d="M 492.30769,-59.384613 393.84615,-197.23077 H 147.6923 v 482.46154 h 344.61539 z"
         style="fill:#1c71d8;stroke:none;stroke-width:1px;stroke-linecap:butt;stroke-linejoin:miter;stroke-opacity:1" />
    </clipPath>
    <linearGradient
       gradientUnits="userSpaceOnUse"
       y2="444.5"
       x2="64.000008"
       y1="202.38483"
       x1="64.000008"
       id="linearGradient990"
       xlink:href="#linearGradient988" />
    <linearGradient
       id="linearGradient988">
      <stop
         id="stop984"
         offset="0"
         style="stop-color:#4771ba;stop-opacity:1" />
      <stop
         id="stop986"
         offset="1"
         style="stop-color:#618dcb;stop-opacity:1" />
    </linearGradient>
    <linearGradient
       gradientTransform="matrix(0.25,0,0,0.25,12.000001,221)"
       gradientUnits="userSpaceOnUse"
       y2="120"
       x2="416"
       y1="120"
       x1="384"
       id="linearGradient1053"
       xlink:href="#linearGradient1879" />
    <linearGradient
       id="linearGradient1879">
      <stop
         style="stop-color:#e8e7e4;stop-opacity:1"
         offset="0"
         id="stop1873" />
      <stop
         id="stop1875"
         offset="0.51104856"
         style="stop-color:#ffffff;stop-opacity:1" />
      <stop
         style="stop-color:#c2bfba;stop-opacity:1"
         offset="1"
         id="stop1877" />
    </linearGradient>
  </defs>
  <metadata
     id="metadata4">
    <rdf:RDF>
      <cc:Work
         rdf:about="">
        <dc:format>image/svg+xml</dc:format>
        <dc:type
           rdf:resource="http://purl.org/dc/dcmitype/StillImage" />
        <dc:creator>
          <cc:Agent>
            <dc:title>GNOME Design Team</dc:title>
          </cc:Agent>
        </dc:creator>
        <dc:source />
        <cc:license
           rdf:resource="http://creativecommons.org/licenses/by-sa/4.0/" />
        <dc:title>Adwaita Icon Template</dc:title>
        <dc:subject>
          <rdf:Bag />
        </dc:subject>
        <dc:date />
        <dc:rights>
          <cc:Agent>
            <dc:title />
          </cc:Agent>
        </dc:rights>
        <dc:publisher>
          <cc:Agent>
            <dc:title />
          </cc:Agent>
        </dc:publisher>
        <dc:identifier />
        <dc:relation />
        <dc:language />
        <dc:coverage />
        <dc:description />
        <dc:contributor>
          <cc:Agent>
            <dc:title />
          </cc:Agent>
        </dc:contributor>
      </cc:Work>
      <cc:License
         rdf:about="http://creativecommons.org/licenses/by-sa/4.0/">
        <cc:permits
           rdf:resource="http://creativecommons.org/ns#Reproduction" />
        <cc:permits
           rdf:resource="http://creativecommons.org/ns#Distribution" />
        <cc:requires
           rdf:resource="http://creativecommons.org/ns#Notice" />
        <cc:requires
           rdf:resource="http://creativecommons.org/ns#Attribution" />
        <cc:permits
           rdf:resource="http://creativecommons.org/ns#DerivativeWorks" />
        <cc:requires
           rdf:resource="http://creativecommons.org/ns#ShareAlike" />
      </cc:License>
    </rdf:RDF>
  </metadata>
  <g
     transform="translate(0,-172)"
     style="display:inline"
     id="layer1">
    <g
       style="display:inline"
       id="layer9">
      <path
         id="rect970"
         d="m 12,204 v 84 h 96 c 4.432,0 8,-3.568 8,-8 v -68 c 0,-4.432 -3.568,-8 -8,-8 z"
         style="display:inline;opacity:1;fill:#3d539c;fill-opacity:1;stroke:none;stroke-width:0.37684458;stroke-linejoin:round;stroke-miterlimit:4;stroke-dasharray:none;stroke-opacity:1;enable-background:new" />
      <path
         style="display:inline;opacity:1;fill:url(#linearGradient1053);fill-opacity:1;stroke:none;stroke-width:6;stroke-linecap:butt;stroke-linejoin:miter;stroke-miterlimit:4;stroke-dasharray:none;stroke-dashoffset:0;stroke-opacity:1;marker:none;marker-start:none;marker-mid:none;marker-end:none;paint-order:normal;enable-background:new"
         d="m 14.000001,216 v 70 H 108 c 4.432,0 8,-3.568 8,-8 v -54 c 0,-4.432 -3.568,-8 -8,-8 z"
         id="rect954-3-6" />
      <path
         id="rect970-5-3"
         d="m 12,186 v 94 h 96 c 4.432,0 8,-3.568 8,-8 v -78 c 0,-4.432 -3.568,-8 -8,-8 z"
         style="display:inline;opacity:1;fill:#3d539c;fill-opacity:1;stroke:none;stroke-width:0.37684458;stroke-linejoin:round;stroke-miterlimit:4;stroke-dasharray:none;stroke-opacity:1;enable-background:new" />
      <path
         id="rect970-5"
         d="m 12,184 v 94 h 96 c 4.432,0 8,-3.568 8,-8 v -78 c 0,-4.432 -3.568,-8 -8,-8 z"
         style="display:inline;opacity:1;fill:url(#linearGradient990);fill-opacity:1;stroke:none;stroke-width:0.37684458;stroke-linejoin:round;stroke-miterlimit:4;stroke-dasharray:none;stroke-opacity:1;enable-background:new" />
      <g
         id="g1055"
         style="font-style:normal;font-variant:normal;font-weight:bold;font-stretch:normal;font-size:322.10223389px;line-height:1.25;font-family:Montserrat;-inkscape-font-specification:'Montserrat, Bold';font-variant-ligatures:normal;font-variant-caps:normal;font-variant-numeric:normal;font-feature-settings:normal;text-align:start;letter-spacing:0px;word-spacing:0px;writing-mode:lr-tb;text-anchor:start;fill:#813d9c;fill-opacity:1;stroke:none;stroke-width:1"
         aria-label="a"
         transform="matrix(0.140625,0,0,0.140625,-29.23291,10.300445)" />
      <rect
         y="184"
         x="12"
         height="94"
         width="8"
         id="rect1073"
         style="opacity:1;fill:#3d3846;fill-opacity:1;stroke:none;stroke-width:4;stroke-linecap:round;stroke-linejoin:round;stroke-miterlimit:4;stroke-dasharray:none;stroke-dashoffset:0;stroke-opacity:1" />
      <g
         aria-label="a"
         style="font-style:normal;font-weight:normal;font-size:40px;line-height:1000%;font-family:sans-serif;letter-spacing:0px;word-spacing:0px;fill:#000000;fill-opacity:1;stroke:none;stroke-width:1px;stroke-linecap:butt;stroke-linejoin:miter;stroke-opacity:1"
         id="g1000"
         transform="translate(0.8971694,40)" />
      <g
         transform="matrix(0.140625,0,0,0.140625,-29.23291,12.300445)"
         aria-label="a"
         style="font-style:normal;font-variant:normal;font-weight:bold;font-stretch:normal;font-size:322.10223389px;line-height:1.25;font-family:Montserrat;-inkscape-font-specification:'Montserrat, Bold';font-variant-ligatures:normal;font-variant-caps:normal;font-variant-numeric:normal;font-feature-settings:normal;text-align:start;letter-spacing:0px;word-spacing:0px;writing-mode:lr-tb;text-anchor:start;fill:#813d9c;fill-opacity:1;stroke:none;stroke-width:1"
         id="g989" />
      <path
         id="rect1201"
         transform="translate(0,172)"
         d="m 12,106 v 10 h 8 v -2 h -6 v -6 h 6 v -2 z"
         style="opacity:1;fill:#241f31;fill-opacity:1;stroke:none;stroke-width:4;stroke-linecap:round;stroke-linejoin:round;stroke-miterlimit:4;stroke-dasharray:none;stroke-dashoffset:0;stroke-opacity:1" />
      <path
         id="path1217"
         d="M 15,278 V 184"
         style="fill:none;fill-rule:evenodd;stroke:#ffffff;stroke-width:2;stroke-linecap:butt;stroke-linejoin:miter;stroke-opacity:1;stroke-miterlimit:4;stroke-dasharray:none;opacity:0.15" />
      <g
         style="color:#000000;fill:#000000;fill-opacity:1;opacity:0.1"
         id="g1685"
         transform="matrix(4.0521081,0,0,4.0521081,-3742.9556,-1679.5119)">
        <path
           id="path1683"
           style="overflow:visible;fill:#000000;fill-opacity:1;marker:none"
           overflow="visible"
           d="m 934,467.5 c 0,0 5,-2.557 5,1.537 V 473 h -0.5 c 0,0 -0.5,0 -0.5,0.5 v 6 c 0,0.5 0.5,0.5 0.5,0.5 h 3 c 0,0 0.5,0 0.5,-0.5 v -6 c 0,-0.5 -0.5,-0.5 -0.5,-0.5 H 941 v -4.186 c 0.01,-0.467 0.29,-1.72 1.485,-1.72 L 943.5,468 h 1.5 v -4 h -1.5 l -1.015,0.686 c 0,0 -2.24,-0.79 -3.64,-0.723 -1.4,0.067 -3.165,1.192 -4.845,3.537 z"
           inkscape:connector-curvature="0" />
      </g>
      <g
         transform="matrix(4.0521081,0,0,4.0521081,-3742.9556,-1681.5119)"
         id="g4"
         style="color:#000000;fill:#4d4d4d;fill-opacity:1">
        <path
           inkscape:connector-curvature="0"
           d="m 934,467.5 c 0,0 5,-2.557 5,1.537 V 473 h -0.5 c 0,0 -0.5,0 -0.5,0.5 v 6 c 0,0.5 0.5,0.5 0.5,0.5 h 3 c 0,0 0.5,0 0.5,-0.5 v -6 c 0,-0.5 -0.5,-0.5 -0.5,-0.5 H 941 v -4.186 c 0.01,-0.467 0.29,-1.72 1.485,-1.72 L 943.5,468 h 1.5 v -4 h -1.5 l -1.015,0.686 c 0,0 -2.24,-0.79 -3.64,-0.723 -1.4,0.067 -3.165,1.192 -4.845,3.537 z"
           overflow="visible"
           style="overflow:visible;fill:#ffffff;fill-opacity:1;marker:none"
           id="path2" />
      </g>
    </g>
  </g>
</svg>
