<?xml version="1.0" encoding="UTF-8" standalone="no"?>
<svg
   xmlns:dc="http://purl.org/dc/elements/1.1/"
   xmlns:cc="http://creativecommons.org/ns#"
   xmlns:rdf="http://www.w3.org/1999/02/22-rdf-syntax-ns#"
   xmlns:svg="http://www.w3.org/2000/svg"
   xmlns="http://www.w3.org/2000/svg"
   xmlns:xlink="http://www.w3.org/1999/xlink"
   xmlns:sodipodi="http://sodipodi.sourceforge.net/DTD/sodipodi-0.dtd"
   xmlns:inkscape="http://www.inkscape.org/namespaces/inkscape"
   viewBox="0 0 128 128"
   style="display:inline;enable-background:new"
   version="1.0"
   id="svg11300"
   height="128"
   width="128"
   sodipodi:docname="asunder1.svg"
   inkscape:version="0.92.3 (2405546, 2018-03-11)">
  <sodipodi:namedview
     pagecolor="#ffffff"
     bordercolor="#666666"
     borderopacity="1"
     objecttolerance="10"
     gridtolerance="10"
     guidetolerance="10"
     inkscape:pageopacity="0"
     inkscape:pageshadow="2"
     inkscape:window-width="1920"
     inkscape:window-height="1009"
     id="namedview24"
     showgrid="false"
     inkscape:zoom="6.5234375"
     inkscape:cx="33.877844"
     inkscape:cy="64"
     inkscape:window-x="0"
     inkscape:window-y="34"
     inkscape:window-maximized="1"
     inkscape:current-layer="svg11300" />
  <title
     id="title4162">Adwaita Icon Template</title>
  <defs
     id="defs3">
    <linearGradient
       id="linearGradient950">
      <stop
         style="stop-color:#9a9996;stop-opacity:1"
         offset="0"
         id="stop946" />
      <stop
         style="stop-color:#77767b;stop-opacity:1"
         offset="1"
         id="stop948" />
    </linearGradient>
    <linearGradient
       y2="812.88245"
       x2="1662.9901"
       y1="806.29718"
       x1="1660.8571"
       gradientTransform="matrix(1.8293937,-0.81599442,0.81599442,1.8293937,-3645.9624,100.02949)"
       gradientUnits="userSpaceOnUse"
       id="linearGradient1001"
       xlink:href="#linearGradient950" />
  </defs>
  <metadata
     id="metadata4">
    <rdf:RDF>
      <cc:Work
         rdf:about="">
        <dc:format>image/svg+xml</dc:format>
        <dc:type
           rdf:resource="http://purl.org/dc/dcmitype/StillImage" />
        <dc:creator>
          <cc:Agent>
            <dc:title>GNOME Design Team</dc:title>
          </cc:Agent>
        </dc:creator>
        <dc:source />
        <cc:license
           rdf:resource="http://creativecommons.org/licenses/by-sa/4.0/" />
        <dc:title>Adwaita Icon Template</dc:title>
        <dc:subject>
          <rdf:Bag />
        </dc:subject>
        <dc:date />
        <dc:rights>
          <cc:Agent>
            <dc:title />
          </cc:Agent>
        </dc:rights>
        <dc:publisher>
          <cc:Agent>
            <dc:title />
          </cc:Agent>
        </dc:publisher>
        <dc:identifier />
        <dc:relation />
        <dc:language />
        <dc:coverage />
        <dc:description />
        <dc:contributor>
          <cc:Agent>
            <dc:title />
          </cc:Agent>
        </dc:contributor>
      </cc:Work>
      <cc:License
         rdf:about="http://creativecommons.org/licenses/by-sa/4.0/">
        <cc:permits
           rdf:resource="http://creativecommons.org/ns#Reproduction" />
        <cc:permits
           rdf:resource="http://creativecommons.org/ns#Distribution" />
        <cc:requires
           rdf:resource="http://creativecommons.org/ns#Notice" />
        <cc:requires
           rdf:resource="http://creativecommons.org/ns#Attribution" />
        <cc:permits
           rdf:resource="http://creativecommons.org/ns#DerivativeWorks" />
        <cc:requires
           rdf:resource="http://creativecommons.org/ns#ShareAlike" />
      </cc:License>
    </rdf:RDF>
  </metadata>
  <path
     style="opacity:0.2;stroke-width:1.85714304"
     d="M 56.25 12.742188 C 31.639562 16.881353 13 38.177115 13 64 C 13 92.808 36.192002 116 65 116 C 93.808 116 117 92.808 117 64 C 117 38.938189 99.44467 18.135327 75.912109 13.146484 C 77.090083 16.470784 78.108877 20.163855 79.367188 23.296875 C 75.170285 25.980423 71.14915 28.771062 67.421875 31.912109 C 67.421875 32.187918 70.604358 34.827226 73.556641 37.412109 L 78.933594 42.115234 L 75.533203 44.371094 A 22.285716 22.285716 0 0 1 87.285156 64 A 22.285716 22.285716 0 0 1 65 86.285156 A 22.285716 22.285716 0 0 1 42.714844 64 A 22.285716 22.285716 0 0 1 65 41.714844 A 22.285716 22.285716 0 0 1 66.648438 41.796875 C 62.983111 38.269541 60.474862 35.914232 56.291016 31.912109 C 59.483615 28.540029 61.972558 25.764529 64.435547 22.447266 L 59.060547 15.984375 C 57.488464 14.091433 56.824343 13.356301 56.25 12.742188 z "
     id="path2" />
  <path
     style="fill:#848484;stroke-width:1.85714293"
     d="M 60.148438 35.59375 A 27.857144 27.857142 0 0 0 37.142578 63 A 27.857144 27.857142 0 0 0 65 90.857422 A 27.857144 27.857142 0 0 0 92.857422 63 A 27.857144 27.857142 0 0 0 71.990234 36.054688 C 72.537989 36.52768 73.002542 36.926966 73.556641 37.412109 L 78.933594 42.115234 L 71.927734 46.763672 C 68.194955 49.24955 66.070347 50.675146 64.869141 51.355469 C 63.667937 52.035793 63.404297 52.010429 63.404297 51.638672 C 63.404297 51.381056 64.283599 49.139081 65.359375 46.707031 C 66.43515 44.274987 67.187162 42.256345 67.041016 42.171875 C 64.539166 39.761013 62.354349 37.691112 60.148438 35.59375 z M 65 51.857422 C 71.154201 51.857422 76.142578 56.845801 76.142578 63 C 76.142578 69.1542 71.154201 74.142578 65 74.142578 C 58.845799 74.142578 53.857422 69.1542 53.857422 63 C 53.857422 56.845801 58.845799 51.857422 65 51.857422 z "
     id="path4" />
  <path
     style="fill:#e4e4e4;stroke-width:1.85714293"
     d="M 59.667969 11.267578 C 33.382959 13.921025 13 35.9925 13 63 C 13 91.808001 36.192001 115 65 115 C 93.807999 115 117 91.808001 117 63 C 117 37.802075 99.256599 16.901375 75.53125 12.058594 C 76.883077 15.637447 77.972285 19.823762 79.367188 23.296875 C 75.170285 25.980423 71.14915 28.771062 67.421875 31.912109 C 67.421875 32.187918 70.604358 34.827226 73.556641 37.412109 L 78.933594 42.115234 L 76.332031 43.841797 A 22.285716 22.285714 0 0 1 87.285156 63 A 22.285716 22.285714 0 0 1 65 85.285156 A 22.285716 22.285714 0 0 1 42.714844 63 A 22.285716 22.285714 0 0 1 65 40.714844 A 22.285716 22.285714 0 0 1 65.542969 40.742188 C 62.465628 37.791437 60.028379 35.487141 56.291016 31.912109 C 59.483615 28.540029 61.972558 25.764529 64.435547 22.447266 L 59.060547 15.984375 C 56.797777 13.259778 56.359583 12.846285 55.46875 11.904297 C 56.854117 11.649322 58.245754 11.411149 59.667969 11.267578 z "
     id="path6" />
  <path
     style="opacity:0.2;fill:#ffffff;stroke-width:1.85714293"
     d="M 59.667969 11.267578 C 33.382959 13.921025 13 35.9925 13 63 C 13 63.210891 13.021553 63.415222 13.033203 63.623047 C 13.622878 38.123712 32.378852 17.278003 56.925781 13.480469 C 56.354062 12.837592 55.947956 12.411021 55.46875 11.904297 C 56.854117 11.649322 58.245754 11.411149 59.667969 11.267578 z M 75.53125 12.058594 C 75.777271 12.709913 76.008184 13.39648 76.240234 14.080078 C 99.213305 19.108794 116.40346 39.230462 116.9707 63.617188 C 116.9824 63.411791 117 63.208404 117 63 C 117 37.802075 99.256599 16.901375 75.53125 12.058594 z M 42.808594 64.849609 A 22.285716 22.285714 0 0 0 42.714844 66.714844 A 22.285716 22.285714 0 0 0 42.761719 67.642578 A 22.285716 22.285714 0 0 1 42.808594 66.707031 A 22.285716 22.285714 0 0 0 65 87.142578 A 22.285716 22.285714 0 0 0 87.191406 66.720703 A 22.285716 22.285714 0 0 1 87.246094 67.820312 A 22.285716 22.285714 0 0 0 87.285156 66.714844 A 22.285716 22.285714 0 0 0 87.191406 64.865234 A 22.285716 22.285714 0 0 1 65 85.285156 A 22.285716 22.285714 0 0 1 42.808594 64.849609 z "
     id="path8" />
</svg>
