<svg xmlns="http://www.w3.org/2000/svg" width="128" height="128" version="1.0">
 <defs>
  <linearGradient id="a">
   <stop id="stop2" offset="0" stop-color="#d5d3cf"/>
   <stop id="stop4" offset="1" stop-color="#f6f5f4"/>
  </linearGradient>
  <linearGradient id="b">
   <stop id="stop7" offset="0" stop-color="#d5d3cf"/>
   <stop id="stop9" offset="1" stop-color="#949390"/>
  </linearGradient>
  <linearGradient id="c">
   <stop id="stop12" offset="0" stop-color="#9a9996"/>
   <stop id="stop14" offset="1" stop-color="#77767b"/>
  </linearGradient>
  <clipPath id="e" clipPathUnits="userSpaceOnUse">
   <rect fill="#e4e6e8" stroke-width="24" width="448" height="32.222" x="64" y="-40.45" rx="0" ry="0"/>
  </clipPath>
  <clipPath id="d" clipPathUnits="userSpaceOnUse">
   <path fill="#e4e6e8" stroke-width="24" d="M64-40.445h448v32.223H96c-15.592 0-32-17.02-32-32.223z"/>
  </clipPath>
  <clipPath id="d-3" clipPathUnits="userSpaceOnUse">
   <path style="fill:#e4e6e8" d="M 64,-40.445 H 512 V -8.222 H 96 c -15.592,0 -32,-17.02 -32,-32.223 z"/>
  </clipPath>
  <clipPath id="e-6" clipPathUnits="userSpaceOnUse">
   <rect style="fill:#e4e6e8" width="448" height="32.222" x="64" y="-40.45" rx="0" ry="0"/>
  </clipPath>
 </defs>
 <g transform="translate(0 -172)">
  <g style="font-size:40px;line-height:1.25;letter-spacing:0px;word-spacing:0px" id="text856">
   <rect width="112" height="82.03" x="8" y="205.97" rx="8" ry="8" style="fill:#1b1b1b"/>
   <g style="font-size:40px;line-height:1.25;letter-spacing:0px;word-spacing:0px" transform="translate(0.01900005,0.02799327)">
    <g clip-path="url(#d-3)" transform="matrix(0.25,0,0,-0.25,-8.019,197.917)">
     <path style="fill:#f6f5f4" d="M 12.246094,16.373047 14.684642,21.837034 9.0097656,26.4375 H 121.00977 V 16.373047 H 19.261998 Z" transform="matrix(4,0,0,-4,27.960592,57.29724)"/>
     <path style="fill:#241f31" d="m 12.246094,16.373047 7.93164,13.738281 9.832032,-5.675781 -4.654297,-8.0625 z" transform="matrix(4,0,0,-4,27.960592,57.29724)"/>
     <path style="fill:#241f31" d="m 37.246094,16.373047 7.93164,13.738281 9.832032,-5.675781 -4.654297,-8.0625 z" transform="matrix(4,0,0,-4,27.960592,57.29724)"/>
     <path style="fill:#241f31" d="m 62.246094,16.373047 7.93164,13.738281 9.832032,-5.675781 -4.654297,-8.0625 z" transform="matrix(4,0,0,-4,27.960592,57.29724)"/>
     <path style="fill:#241f31" d="m 87.246094,16.373047 7.93164,13.738281 9.832036,-5.675781 -4.6543,-8.0625 z" transform="matrix(4,0,0,-4,27.960592,57.29724)"/>
     <path style="fill:#241f31" d="m 112.24609,16.373047 7.774,13.895916 0.98976,-7.892153 -8e-5,-6.003763 v 0 z" transform="matrix(4,0,0,-4,27.960592,57.29724)"/>
    </g>
    <g clip-path="url(#e-6)" transform="matrix(0.25,0,0,0.25,-8.019,218.083)">
     <rect style="fill:#ffffff" width="448" height="56.232" x="64" y="-48.45" rx="0" ry="0"/>
     <path d="m 20.177734,18.703125 -9.050781,15.675781 h 13.109375 l 5.773438,-10 z" transform="matrix(4,0,0,4,27.960592,-137.96124)"/>
     <path d="m 45.177734,18.703125 -9.050781,15.675781 h 13.109375 l 5.773438,-10 z" transform="matrix(4,0,0,4,27.960592,-137.96124)"/>
     <path d="m 70.177734,18.703125 -9.050781,15.675781 h 13.109375 l 5.773438,-10 z" transform="matrix(4,0,0,4,27.960592,-137.96124)"/>
     <path d="m 95.177734,18.703125 -9.050781,15.675781 h 13.109375 l 5.773442,-10 z" transform="matrix(4,0,0,4,27.960592,-137.96124)"/>
     <path d="m 120.17773,18.703125 -9.05078,15.675781 h 9.88282 V 26.4375 Z" transform="matrix(4,0,0,4,27.960592,-137.96124)"/>
    </g>
    <path style="fill:#c0bfbc" d="m 7.981,205.306 c 0,-2.668 2.745,-5.334 5.334,-5.334 0,0 10.666,10.59 10.666,10.667 v 5.333 h -16 z"/>
    <circle style="fill:#241f31" cx="10.997" cy="213.249" r="1.25"/>
    <circle style="fill:#241f31" cx="10.997" cy="205.266" r="1.25"/>
    <rect style="fill:#77767b" width="112" height="2" x="7.98" y="215.97" rx="0" ry="0"/>
    <path style="fill:#3d3846" d="m 119.981,215.972 v 2 h -10 l 1.272,-2 z m -20.635,0 -1.017,2 H 84.981 l 1.272,-2 z m -25.122,0 -1.016,2 H 59.86 l 1.271,-2 z m -25,0 -1.016,2 H 34.86 l 1.271,-2 z m -24.861,0 -1.017,2 H 9.998 l 1.272,-2 z"/>
    <circle style="fill:#f6f5f4" cx="10.997" cy="212.943" r="1.25"/>
    <circle style="fill:#f6f5f4" cx="10.997" cy="204.961" r="1.25"/>
    <circle style="fill:#241f31" cx="20.888" cy="213.222" r="1.25"/>
    <circle style="fill:#f6f5f4" cx="20.888" cy="212.917" r="1.25"/>
   </g>
   <path style="fill:#2a2a2a" d="m 8.0000001,218 v 59.46018 c 0,4.01373 3.5679999,7.24393 7.9999999,7.24393 h 96 c 4.432,0 8,-3.2302 8,-7.24393 V 218 Z"/>
   <g style="font-size:40px;line-height:1.25;letter-spacing:0px;word-spacing:0px" transform="translate(3.6256201,175.67718)">
    <path d="m 22.374384,65.674877 h 76 c 1.062,0 1.999996,0.936 1.999996,2 H 20.374384 c 0,-1.108 0.983,-2 2,-2 z" style="fill:#f6f5f4"/>
    <path d="m 44.374384,53.674877 v 14 h -2 v -14 z m 34,0 v 14 h -2 v -14 z m -58,30 h 79.999996 c 0,1.054 -0.912996,2 -1.999996,2 h -76 c -0.985,0 -2,-1.03 -2,-2 z" style="fill:#f6f5f4"/>
    <path d="m 30.829541,79.269808 q 0.128906,0.3151 0.229167,0.51562 0.114583,0.1862 0.243489,0.28646 0.143229,0.10026 0.329427,0.12891 0.186198,0.0287 0.458334,0.0287 h 0.214843 v 0.6875 h -4.654948 v -0.6875 h 0.644532 q 0.415364,0 0.658854,-0.10027 0.257812,-0.10026 0.257812,-0.30078 0,-0.0573 -0.02865,-0.14323 -0.01432,-0.0859 -0.08594,-0.25781 l -0.802076,-2.04823 h -3.967448 l -0.515625,1.34636 q -0.128907,0.37239 -0.128907,0.64453 0,0.85938 1.217448,0.85938 h 0.300782 v 0.6875 h -3.967448 v -0.6875 h 0.05729 q 0.300781,0 0.58724,-0.12891 0.286458,-0.14323 0.458333,-0.34375 0.08594,-0.0859 0.143229,-0.17188 0.05729,-0.0859 0.114584,-0.20052 0.07161,-0.11458 0.143229,-0.28646 0.08594,-0.18619 0.200521,-0.47265 l 3.451823,-8.7513 h 0.630208 z m -6.216146,-2.66406 h 3.365885 l -1.690104,-4.25391 z" style="fill:#ffffff"/>
    <path d="m 35.842562,73.941678 v 0.52995 h -0.214844 q -0.458333,0 -0.644531,0.0716 -0.171875,0.0716 -0.171875,0.27213 0,0.0716 0.01432,0.15755 0.02865,0.0859 0.07162,0.15756 l 1.704427,3.96744 1.389323,-3.48046 q 0.04297,-0.15756 0.07162,-0.32943 0.04297,-0.17188 0.04297,-0.28646 0,-0.52995 -0.78776,-0.52995 h -0.214844 v -0.52995 h 2.979167 v 0.52995 h -0.05729 q -0.415364,0 -0.759114,0.32943 -0.329427,0.32943 -0.630209,1.07422 l -2.119791,5.27083 h -0.529948 l -2.592448,-6.04427 q -0.157552,-0.35807 -0.358073,-0.48698 -0.186198,-0.14323 -0.615886,-0.14323 H 32.29049 v -0.52995 z" style="fill:#ffffff"/>
    <path d="m 43.319125,79.670848 q 0,0.22917 0.04297,0.3724 0.04297,0.1289 0.157552,0.21484 0.128906,0.0716 0.34375,0.10026 0.229167,0.0143 0.601563,0.0143 h 0.10026 v 0.54428 h -3.895833 v -0.54428 h 0.114583 q 0.358073,0 0.572917,-0.0143 0.229166,-0.0286 0.34375,-0.10026 0.128906,-0.0859 0.157552,-0.21484 0.04297,-0.14323 0.04297,-0.3724 v -4.18229 q 0,-0.24349 -0.02865,-0.38672 -0.01432,-0.15755 -0.08594,-0.22917 -0.07161,-0.0859 -0.200521,-0.11458 -0.114583,-0.0286 -0.329427,-0.0286 h -0.759114 v -0.63021 l 2.821614,-0.15756 z m -0.701823,-9.48177 q 0.358073,0 0.601563,0.25781 0.257812,0.25782 0.257812,0.61589 0,0.37239 -0.257812,0.63021 -0.24349,0.24349 -0.615885,0.24349 -0.372396,0 -0.615886,-0.25782 -0.229167,-0.25781 -0.229167,-0.61588 0,-0.35807 0.24349,-0.61589 0.24349,-0.25781 0.615885,-0.25781 z" style="fill:#ffffff"/>
    <path d="m 49.119907,70.031528 2.950521,-0.15755 v 9.29557 q 0,0.35807 0.02864,0.57292 0.02865,0.21484 0.128907,0.34375 0.10026,0.11458 0.272135,0.15755 0.186198,0.0286 0.486979,0.0286 h 0.272136 v 0.64454 l -2.621094,0.0859 v -1.16015 q -0.358073,0.67317 -0.845052,0.98828 -0.486979,0.3151 -1.217448,0.3151 -0.644531,0 -1.203125,-0.27213 -0.544271,-0.27214 -0.945313,-0.7448 -0.386719,-0.48697 -0.615885,-1.16015 -0.214844,-0.67318 -0.214844,-1.47526 0,-0.81641 0.229167,-1.50391 0.229166,-0.6875 0.630208,-1.1888 0.401042,-0.51563 0.945313,-0.80208 0.54427,-0.28646 1.174479,-0.28646 0.658854,0 1.145833,0.27213 0.501302,0.25782 0.916667,0.83073 v -3.38021 q 0,-0.24349 -0.02865,-0.38671 -0.01432,-0.15756 -0.08594,-0.22917 -0.07161,-0.0859 -0.20052,-0.11458 -0.114584,-0.0286 -0.315105,-0.0286 h -0.88802 z m -0.24349,4.48307 q -0.458333,0 -0.845052,0.30078 -0.386719,0.30078 -0.58724,0.78776 -0.272135,0.77344 -0.272135,2.07683 0,1.26041 0.44401,1.96224 0.458334,0.6875 1.246094,0.6875 0.816406,0 1.289063,-0.77344 0.486979,-0.78776 0.486979,-2.10547 0,-1.07422 -0.286459,-1.80469 -0.20052,-0.51562 -0.601562,-0.8164 -0.401042,-0.31511 -0.873698,-0.31511 z" style="fill:#ffffff"/>
    <path d="m 55.694124,77.551058 v 0.21484 q 0,0.52995 0.08594,0.90235 0.10026,0.37239 0.286458,0.6875 0.58724,0.97396 1.704427,0.97396 0.759115,0 1.27474,-0.35808 0.515625,-0.37239 0.973958,-1.24609 l 0.529948,0.30078 q -0.916667,2.11979 -3.065104,2.11979 -0.759115,0 -1.389323,-0.25781 -0.615886,-0.25781 -1.059896,-0.71615 -0.444011,-0.45833 -0.6875,-1.10286 -0.24349,-0.65886 -0.24349,-1.46094 0,-0.83073 0.24349,-1.54687 0.257812,-0.71615 0.701823,-1.23177 0.458333,-0.52995 1.074219,-0.81641 0.615885,-0.30078 1.332031,-0.30078 0.6875,0 1.246094,0.28646 0.572916,0.27213 0.973958,0.78776 0.415365,0.5013 0.644531,1.21744 0.229167,0.70183 0.229167,1.54688 z m 2.635417,-0.65885 q 0.372396,0 0.486979,-0.11459 0.114583,-0.11458 0.114583,-0.44401 0,-0.90234 -0.415364,-1.44661 -0.401042,-0.54427 -1.088542,-0.54427 -1.059896,0 -1.518229,1.33203 -0.114584,0.32942 -0.171875,0.60156 -0.04297,0.27214 -0.04297,0.61589 z" style="fill:#ffffff"/>
    <path d="m 61.423293,74.099238 2.678386,-0.15756 v 1.13152 q 0.429687,-0.70183 0.945312,-1.03125 0.515625,-0.32943 1.203125,-0.32943 0.773438,0 1.317709,0.41536 0.54427,0.40104 0.744791,1.08854 0.486979,-0.80208 1.045573,-1.14583 0.572917,-0.35807 1.303386,-0.35807 0.544271,0 0.988281,0.21484 0.44401,0.21485 0.773437,0.63021 0.14323,0.1862 0.229167,0.35807 0.100261,0.17188 0.157552,0.3724 0.05729,0.1862 0.07162,0.44401 0.01432,0.24349 0.01432,0.58724 v 3.33724 q 0,0.22917 0.04297,0.37239 0.04297,0.14323 0.157553,0.21485 0.128906,0.0716 0.34375,0.10026 0.229166,0.0286 0.587239,0.0286 h 0.07161 v 0.54428 h -3.78125 v -0.54428 h 0.114583 q 0.329427,0 0.529948,-0.0143 0.214844,-0.0286 0.329427,-0.10026 0.114583,-0.0859 0.157552,-0.21484 0.04297,-0.14323 0.04297,-0.3724 v -3.05078 q 0,-0.45833 -0.04297,-0.73047 -0.02865,-0.27213 -0.128906,-0.51562 -0.157552,-0.35808 -0.444011,-0.5586 -0.272135,-0.20052 -0.658854,-0.20052 -0.773437,0 -1.246094,0.67318 -0.458333,0.67318 -0.458333,1.79036 v 2.59245 q 0,0.22917 0.02865,0.3724 0.04297,0.1289 0.157552,0.21484 0.128906,0.0716 0.34375,0.10026 0.214844,0.0143 0.58724,0.0143 h 0.05729 v 0.54428 h -3.809896 v -0.54428 h 0.07161 q 0.372396,0 0.58724,-0.0143 0.229166,-0.0286 0.34375,-0.10026 0.128906,-0.0859 0.171875,-0.21484 0.04297,-0.14323 0.04297,-0.3724 v -3.20833 q 0,-0.91667 -0.315104,-1.36068 -0.128906,-0.20052 -0.415364,-0.34375 -0.272136,-0.14323 -0.558594,-0.14323 -0.372396,0 -0.6875,0.1862 -0.315104,0.17187 -0.544271,0.48698 -0.214844,0.30078 -0.34375,0.73047 -0.128906,0.42969 -0.128906,0.93099 v 2.70703 q 0,0.22917 0.02865,0.37239 0.04297,0.14323 0.157552,0.21485 0.128906,0.0716 0.34375,0.10026 0.214843,0.0286 0.587239,0.0286 h 0.05729 v 0.54428 h -3.766927 v -0.54428 h 0.128906 q 0.315104,0 0.515625,-0.0286 0.214844,-0.0287 0.315104,-0.10026 0.114584,-0.0716 0.157552,-0.21485 0.04297,-0.14322 0.04297,-0.37239 v -4.16797 q 0,-0.24349 -0.02865,-0.38672 -0.01432,-0.15755 -0.08594,-0.22917 -0.05729,-0.0859 -0.186198,-0.11458 -0.114584,-0.0286 -0.329427,-0.0286 h -0.615886 z" style="fill:#ffffff"/>
    <path d="m 74.71496,74.099238 2.621094,-0.15756 v 4.55469 q 0,0.31511 0,0.51563 0.01432,0.1862 0.02865,0.3151 0.02865,0.12891 0.07161,0.22917 0.04297,0.10026 0.114583,0.20052 0.157553,0.24349 0.429688,0.35807 0.272135,0.11459 0.630208,0.11459 0.558594,0 0.973959,-0.27214 0.429687,-0.28646 0.658854,-0.78776 0.171875,-0.3724 0.257812,-0.77344 0.08594,-0.41536 0.08594,-1.05989 v -1.84766 q 0,-0.48698 -0.128906,-0.61589 -0.114584,-0.14322 -0.529948,-0.14322 h -0.759115 v -0.63021 l 2.807292,-0.15756 v 5.22787 q 0,0.3724 0.02865,0.58724 0.04297,0.21484 0.143229,0.32943 0.10026,0.11458 0.286458,0.15755 0.186198,0.0286 0.501302,0.0286 h 0.372396 v 0.64454 l -2.721354,0.10026 v -1.2461 q -0.501302,0.73047 -1.059896,1.0599 -0.544271,0.3151 -1.289063,0.3151 -0.6875,0 -1.203125,-0.24349 -0.515625,-0.25781 -0.816406,-0.71614 -0.171875,-0.25782 -0.229166,-0.57292 -0.05729,-0.3151 -0.05729,-0.88802 v -3.23698 q 0,-0.24349 -0.02865,-0.38672 -0.01432,-0.15755 -0.08594,-0.22917 -0.07161,-0.0859 -0.200521,-0.11458 -0.114584,-0.0286 -0.329427,-0.0286 h -0.572917 z" style="fill:#ffffff"/>
    <path d="m 87.34777,73.941678 v 0.52995 h -0.214844 q -0.658854,0 -0.658854,0.25782 0,0.0859 0.04297,0.17187 0.04297,0.0859 0.114583,0.15755 l 1.145833,1.47526 0.945313,-1.11718 q 0.300781,-0.34375 0.300781,-0.61589 0,-0.32943 -0.673177,-0.32943 h -0.286458 v -0.52995 h 3.108073 v 0.52995 h -0.143229 q -0.286459,0 -0.572917,0.15755 -0.286458,0.14323 -0.558594,0.47266 l -1.690104,1.99089 1.890625,2.54948 q 0.286458,0.40104 0.58724,0.57291 0.315104,0.15755 0.716145,0.15755 h 0.08594 v 0.54428 h -3.766927 v -0.54428 h 0.10026 q 0.429688,0 0.615886,-0.0573 0.186198,-0.0716 0.186198,-0.21484 0,-0.0716 -0.05729,-0.20052 -0.05729,-0.12891 -0.128906,-0.24349 l -1.160157,-1.51823 -1.246093,1.51823 q -0.128907,0.15755 -0.128907,0.3151 0,0.10026 0.05729,0.20052 0.07161,0.10026 0.157552,0.14323 0.07162,0.0287 0.157552,0.043 0.100261,0.0143 0.372396,0.0143 h 0.229167 v 0.54428 h -3.179688 v -0.54428 h 0.100261 q 0.329427,0 0.673177,-0.20052 0.34375,-0.20052 0.658854,-0.57291 l 1.747396,-2.01953 -1.833334,-2.30599 q -0.186198,-0.22917 -0.329427,-0.3724 -0.143229,-0.15755 -0.286458,-0.24349 -0.128906,-0.0859 -0.286458,-0.12891 -0.14323,-0.043 -0.34375,-0.0573 v -0.52995 z" style="fill:#ffffff"/>
   </g>
  </g>
 </g>
</svg>
