<?xml version="1.0" encoding="UTF-8" standalone="no"?>
<!-- Created with Inkscape (http://www.inkscape.org/) -->

<svg
   xmlns:dc="http://purl.org/dc/elements/1.1/"
   xmlns:cc="http://creativecommons.org/ns#"
   xmlns:rdf="http://www.w3.org/1999/02/22-rdf-syntax-ns#"
   xmlns:svg="http://www.w3.org/2000/svg"
   xmlns="http://www.w3.org/2000/svg"
   xmlns:xlink="http://www.w3.org/1999/xlink"
   xmlns:sodipodi="http://sodipodi.sourceforge.net/DTD/sodipodi-0.dtd"
   xmlns:inkscape="http://www.inkscape.org/namespaces/inkscape"
   inkscape:export-ydpi="96"
   inkscape:export-xdpi="96"
   inkscape:export-filename="Template.png"
   width="128"
   height="128"
   id="svg11300"
   sodipodi:version="0.32"
   inkscape:version="0.92.3 (2405546, 2018-03-11)"
   sodipodi:docname="awn-applet.svg"
   inkscape:output_extension="org.inkscape.output.svg.inkscape"
   version="1.0"
   style="display:inline;enable-background:new"
   viewBox="0 0 128 128">
  <title
     id="title4162">Adwaita Icon Template</title>
  <defs
     id="defs3">
    <linearGradient
       y2="236"
       x2="96"
       y1="236"
       x1="32"
       gradientTransform="translate(604.81684,170.58641)"
       gradientUnits="userSpaceOnUse"
       id="linearGradient1099"
       xlink:href="#linearGradient1036" />
    <linearGradient
       id="linearGradient1036">
      <stop
         id="stop1032"
         offset="0"
         style="stop-color:#d5d3cf;stop-opacity:1;" />
      <stop
         id="stop1034"
         offset="1"
         style="stop-color:#f6f5f4;stop-opacity:1" />
    </linearGradient>
    <radialGradient
       r="32"
       fy="-76"
       fx="-244"
       cy="-76"
       cx="-244"
       gradientTransform="matrix(0.88333331,0,0,0.88333331,-460.35018,463.11973)"
       gradientUnits="userSpaceOnUse"
       id="radialGradient1103"
       xlink:href="#linearGradient1069" />
    <linearGradient
       id="linearGradient1069">
      <stop
         id="stop1065"
         offset="0"
         style="stop-color:#d5d3cf;stop-opacity:1" />
      <stop
         id="stop1067-1"
         offset="1"
         style="stop-color:#949390;stop-opacity:1" />
    </linearGradient>
    <linearGradient
       gradientUnits="userSpaceOnUse"
       y2="232"
       x2="64"
       y1="262.5"
       x1="64"
       id="linearGradient1027"
       xlink:href="#linearGradient1025"
       gradientTransform="translate(-470.5864,432.81685)" />
    <linearGradient
       id="linearGradient1025">
      <stop
         id="stop1021"
         offset="0"
         style="stop-color:#9a9996;stop-opacity:1" />
      <stop
         id="stop1023"
         offset="1"
         style="stop-color:#77767b;stop-opacity:1" />
    </linearGradient>
    <inkscape:path-effect
       effect="spiro"
       id="path-effect35304-9"
       is_visible="true" />
    <linearGradient
       inkscape:collect="always"
       id="linearGradient1076">
      <stop
         style="stop-color:#d5d3cf;stop-opacity:1"
         offset="0"
         id="stop1064" />
      <stop
         id="stop1066"
         offset="0.03571428"
         style="stop-color:#e4e1de;stop-opacity:1" />
      <stop
         style="stop-color:#d5d3cf;stop-opacity:1"
         offset="0.07142857"
         id="stop1068" />
      <stop
         id="stop1070"
         offset="0.9285714"
         style="stop-color:#d5d3cf;stop-opacity:1" />
      <stop
         style="stop-color:#e4e1de;stop-opacity:1"
         offset="0.96428573"
         id="stop1072" />
      <stop
         style="stop-color:#d5d3cf;stop-opacity:1"
         offset="1"
         id="stop1074" />
    </linearGradient>
    <linearGradient
       inkscape:collect="always"
       id="linearGradient1020">
      <stop
         style="stop-color:#ffffff;stop-opacity:1;"
         offset="0"
         id="stop1016" />
      <stop
         style="stop-color:#ffffff;stop-opacity:0.09411765"
         offset="1"
         id="stop1018" />
    </linearGradient>
    <radialGradient
       inkscape:collect="always"
       xlink:href="#linearGradient1020"
       id="radialGradient1030-8"
       cx="63.999996"
       cy="194.19048"
       fx="63.999996"
       fy="194.19048"
       r="44"
       gradientTransform="matrix(-4.7272726,1.2901346e-6,-3.0301491e-7,-1.4318182,490.54548,36.71204)"
       gradientUnits="userSpaceOnUse" />
    <linearGradient
       inkscape:collect="always"
       xlink:href="#linearGradient1076"
       id="linearGradient1444-2-3-3"
       gradientUnits="userSpaceOnUse"
       gradientTransform="matrix(0.25,0,0,0.25,105.99999,91.009027)"
       x1="120"
       y1="619.96387"
       x2="568"
       y2="619.96387" />
    <linearGradient
       id="linearGradient3832">
      <stop
         style="stop-color:#ffffff;stop-opacity:1;"
         offset="0"
         id="stop3834" />
      <stop
         style="stop-color:#e0e0e0;stop-opacity:1;"
         offset="1"
         id="stop3836" />
    </linearGradient>
  </defs>
  <sodipodi:namedview
     stroke="#ef2929"
     fill="#f57900"
     id="base"
     pagecolor="#ffffff"
     bordercolor="#666666"
     borderopacity="0.25490196"
     inkscape:pageopacity="0.0"
     inkscape:pageshadow="2"
     inkscape:zoom="6.5234375"
     inkscape:cx="16.566438"
     inkscape:cy="64"
     inkscape:current-layer="g1605"
     showgrid="true"
     inkscape:grid-bbox="true"
     inkscape:document-units="px"
     inkscape:showpageshadow="false"
     inkscape:window-width="1920"
     inkscape:window-height="1009"
     inkscape:window-x="0"
     inkscape:window-y="34"
     width="400px"
     height="300px"
     inkscape:snap-nodes="true"
     inkscape:snap-bbox="true"
     objecttolerance="7"
     gridtolerance="12"
     guidetolerance="13"
     inkscape:window-maximized="1"
     inkscape:pagecheckerboard="false"
     showguides="false"
     inkscape:guide-bbox="true"
     inkscape:locked="false"
     inkscape:measure-start="0,0"
     inkscape:measure-end="0,0"
     inkscape:object-nodes="true"
     inkscape:bbox-nodes="true"
     inkscape:snap-global="true"
     inkscape:object-paths="true"
     inkscape:snap-intersection-paths="true"
     inkscape:snap-bbox-edge-midpoints="true"
     inkscape:snap-bbox-midpoints="true"
     showborder="false"
     inkscape:snap-center="true"
     inkscape:snap-object-midpoints="true"
     inkscape:snap-midpoints="true"
     inkscape:snap-smooth-nodes="true"
     inkscape:snap-text-baseline="true">
    <inkscape:grid
       type="xygrid"
       id="grid5883"
       spacingx="2"
       spacingy="2"
       enabled="true"
       visible="true"
       empspacing="4"
       originx="0"
       originy="0" />
    <sodipodi:guide
       position="64,8"
       orientation="0,1"
       id="guide1073"
       inkscape:locked="false"
       inkscape:label=""
       inkscape:color="rgb(0,0,255)" />
    <sodipodi:guide
       position="12,64"
       orientation="1,0"
       id="guide1075"
       inkscape:locked="false"
       inkscape:label=""
       inkscape:color="rgb(0,0,255)" />
    <sodipodi:guide
       position="64,104"
       orientation="0,1"
       id="guide1099"
       inkscape:locked="false"
       inkscape:label=""
       inkscape:color="rgb(0,0,255)" />
    <sodipodi:guide
       position="64,128"
       orientation="0,1"
       id="guide993"
       inkscape:locked="false"
       inkscape:label=""
       inkscape:color="rgb(0,0,255)" />
    <sodipodi:guide
       position="104,64"
       orientation="1,0"
       id="guide995"
       inkscape:locked="false"
       inkscape:label=""
       inkscape:color="rgb(0,0,255)" />
    <sodipodi:guide
       position="9.2651362e-08,64"
       orientation="1,0"
       id="guide867"
       inkscape:locked="false"
       inkscape:label=""
       inkscape:color="rgb(0,0,255)" />
    <sodipodi:guide
       position="120,64"
       orientation="1,0"
       id="guide869"
       inkscape:locked="false"
       inkscape:label=""
       inkscape:color="rgb(0,0,255)" />
    <sodipodi:guide
       position="64,116"
       orientation="0,1"
       id="guide871"
       inkscape:locked="false"
       inkscape:label=""
       inkscape:color="rgb(0,0,255)" />
    <inkscape:grid
       type="xygrid"
       id="grid873"
       spacingx="1"
       spacingy="1"
       empspacing="8"
       color="#000000"
       opacity="0.49019608"
       empcolor="#000000"
       empopacity="0.08627451"
       dotted="true" />
    <sodipodi:guide
       position="24,64"
       orientation="1,0"
       id="guide877"
       inkscape:locked="false"
       inkscape:label=""
       inkscape:color="rgb(0,0,255)" />
    <sodipodi:guide
       position="116,64"
       orientation="1,0"
       id="guide879"
       inkscape:locked="false"
       inkscape:label=""
       inkscape:color="rgb(0,0,255)" />
    <sodipodi:guide
       position="64,120"
       orientation="0,1"
       id="guide881"
       inkscape:locked="false"
       inkscape:label=""
       inkscape:color="rgb(0,0,255)" />
    <sodipodi:guide
       position="64,12"
       orientation="0,1"
       id="guide883"
       inkscape:locked="false"
       inkscape:label=""
       inkscape:color="rgb(0,0,255)" />
    <sodipodi:guide
       position="8,64"
       orientation="1,0"
       id="guide885"
       inkscape:locked="false"
       inkscape:label=""
       inkscape:color="rgb(0,0,255)" />
    <sodipodi:guide
       position="128,64"
       orientation="1,0"
       id="guide887"
       inkscape:locked="false"
       inkscape:label=""
       inkscape:color="rgb(0,0,255)" />
    <sodipodi:guide
       position="64,0"
       orientation="0,1"
       id="guide897"
       inkscape:locked="false"
       inkscape:label=""
       inkscape:color="rgb(0,0,255)" />
    <sodipodi:guide
       position="64,24"
       orientation="0,1"
       id="guide899"
       inkscape:locked="false"
       inkscape:label=""
       inkscape:color="rgb(0,0,255)" />
    <sodipodi:guide
       position="256,256"
       orientation="-0.70710678,0.70710678"
       id="guide950"
       inkscape:locked="false"
       inkscape:label=""
       inkscape:color="rgb(0,0,255)" />
    <sodipodi:guide
       position="64,64"
       orientation="0.70710678,0.70710678"
       id="guide952"
       inkscape:locked="false"
       inkscape:label=""
       inkscape:color="rgb(0,0,255)" />
  </sodipodi:namedview>
  <metadata
     id="metadata4">
    <rdf:RDF>
      <cc:Work
         rdf:about="">
        <dc:format>image/svg+xml</dc:format>
        <dc:type
           rdf:resource="http://purl.org/dc/dcmitype/StillImage" />
        <dc:creator>
          <cc:Agent>
            <dc:title>GNOME Design Team</dc:title>
          </cc:Agent>
        </dc:creator>
        <dc:source />
        <cc:license
           rdf:resource="http://creativecommons.org/licenses/by-sa/4.0/" />
        <dc:title>Adwaita Icon Template</dc:title>
        <dc:subject>
          <rdf:Bag />
        </dc:subject>
        <dc:date />
        <dc:rights>
          <cc:Agent>
            <dc:title />
          </cc:Agent>
        </dc:rights>
        <dc:publisher>
          <cc:Agent>
            <dc:title />
          </cc:Agent>
        </dc:publisher>
        <dc:identifier />
        <dc:relation />
        <dc:language />
        <dc:coverage />
        <dc:description />
        <dc:contributor>
          <cc:Agent>
            <dc:title />
          </cc:Agent>
        </dc:contributor>
      </cc:Work>
      <cc:License
         rdf:about="http://creativecommons.org/licenses/by-sa/4.0/">
        <cc:permits
           rdf:resource="http://creativecommons.org/ns#Reproduction" />
        <cc:permits
           rdf:resource="http://creativecommons.org/ns#Distribution" />
        <cc:requires
           rdf:resource="http://creativecommons.org/ns#Notice" />
        <cc:requires
           rdf:resource="http://creativecommons.org/ns#Attribution" />
        <cc:permits
           rdf:resource="http://creativecommons.org/ns#DerivativeWorks" />
        <cc:requires
           rdf:resource="http://creativecommons.org/ns#ShareAlike" />
      </cc:License>
    </rdf:RDF>
  </metadata>
  <g
     id="layer1"
     inkscape:label="App Icon"
     inkscape:groupmode="layer"
     style="display:inline"
     transform="translate(0,-172)">
    <g
       inkscape:groupmode="layer"
       id="layer2"
       inkscape:label="baseplate"
       style="display:none"
       sodipodi:insensitive="true">
      <text
         xml:space="preserve"
         style="font-style:normal;font-variant:normal;font-weight:normal;font-stretch:normal;font-size:5.33333349px;line-height:125%;font-family:Cantarell;-inkscape-font-specification:'Cantarell, Normal';text-align:start;writing-mode:lr-tb;text-anchor:start;display:inline;fill:#000000;fill-opacity:1;stroke:none;stroke-width:0.33264872;enable-background:new"
         x="-0.050041199"
         y="128.65199"
         id="context"
         inkscape:label="context"><tspan
           sodipodi:role="line"
           id="tspan2716"
           x="-0.050041199"
           y="128.65199"
           style="font-size:5.33333349px;stroke-width:0.33264872">apps</tspan></text>
      <text
         inkscape:label="icon-name"
         id="text3021"
         y="137.23398"
         x="-0.24669456"
         style="font-style:normal;font-variant:normal;font-weight:bold;font-stretch:normal;font-size:5.33333349px;line-height:125%;font-family:Cantarell;-inkscape-font-specification:'Cantarell, Bold';text-align:start;writing-mode:lr-tb;text-anchor:start;display:inline;fill:#000000;fill-opacity:1;stroke:none;stroke-width:0.33264872;enable-background:new"
         xml:space="preserve"><tspan
           y="137.23398"
           x="-0.24669456"
           id="tspan3023"
           sodipodi:role="line"
           style="font-size:5.33333349px;stroke-width:0.33264872">org.gnome.Usage</tspan></text>
      <g
         style="display:inline;fill:#000000;enable-background:new"
         transform="matrix(7.9911709,0,0,8.0036407,-167.7909,-4846.0776)"
         id="g12027"
         inkscape:export-xdpi="12"
         inkscape:export-ydpi="12" />
      <rect
         style="display:inline;overflow:visible;visibility:visible;fill:#f0f0f0;fill-opacity:1;fill-rule:nonzero;stroke:none;stroke-width:0.5;marker:none;enable-background:accumulate"
         id="rect13805"
         width="128"
         height="128"
         x="9.2651362e-08"
         y="172"
         inkscape:label="512x512" />
      <g
         id="g883"
         style="fill:none;fill-opacity:0.25098039;stroke:#a579b3;stroke-opacity:1"
         transform="translate(-24,24)" />
      <g
         id="g900"
         style="fill:none;fill-opacity:0.25098039;stroke:#a579b3;stroke-opacity:1"
         transform="translate(-24,24)" />
      <rect
         inkscape:label="512x512"
         y="172"
         x="160"
         height="16"
         width="16"
         id="rect859"
         style="display:inline;overflow:visible;visibility:visible;fill:#f0f0f0;fill-opacity:1;fill-rule:nonzero;stroke:none;stroke-width:0.5;marker:none;enable-background:accumulate" />
      <text
         xml:space="preserve"
         style="font-style:normal;font-variant:normal;font-weight:bold;font-stretch:normal;font-size:4px;line-height:125%;font-family:Cantarell;-inkscape-font-specification:'Cantarell, Bold';text-align:start;writing-mode:lr-tb;text-anchor:start;display:inline;fill:#000000;fill-opacity:1;stroke:none;stroke-width:0.33264872;enable-background:new"
         x="0"
         y="164"
         id="text863"
         inkscape:label="icon-name"><tspan
           style="font-size:4px;stroke-width:0.33264872"
           sodipodi:role="line"
           id="tspan861"
           x="0"
           y="164">Hicolor</tspan></text>
      <text
         inkscape:label="icon-name"
         id="text867"
         y="164"
         x="160"
         style="font-style:normal;font-variant:normal;font-weight:bold;font-stretch:normal;font-size:4px;line-height:125%;font-family:Cantarell;-inkscape-font-specification:'Cantarell, Bold';text-align:start;writing-mode:lr-tb;text-anchor:start;display:inline;fill:#000000;fill-opacity:1;stroke:none;stroke-width:0.33264872;enable-background:new"
         xml:space="preserve"><tspan
           y="164"
           x="160"
           id="tspan865"
           sodipodi:role="line"
           style="font-size:4px;stroke-width:0.33264872">Symbolic</tspan></text>
    </g>
    <g
       inkscape:groupmode="layer"
       id="layer3"
       inkscape:label="hairlines"
       style="display:none"
       sodipodi:insensitive="true">
      <circle
         cx="64.000031"
         cy="236"
         r="59.504131"
         id="circle2892"
         style="display:inline;opacity:0.1;vector-effect:none;fill:none;fill-opacity:1;stroke:#000000;stroke-width:0.99000001;stroke-linecap:butt;stroke-linejoin:miter;stroke-miterlimit:4;stroke-dasharray:0.99000001, 0.99000001;stroke-dashoffset:0;stroke-opacity:1;marker:none;marker-start:none;marker-mid:none;marker-end:none;paint-order:normal;enable-background:new" />
      <rect
         ry="7.9292889"
         rx="8.701004"
         y="180.49496"
         x="20.495007"
         height="111.01005"
         width="87.009987"
         id="rect2894"
         style="display:inline;opacity:0.1;vector-effect:none;fill:none;fill-opacity:1;stroke:#000000;stroke-width:0.99000001;stroke-linecap:butt;stroke-linejoin:miter;stroke-miterlimit:4;stroke-dasharray:0.99000001, 0.99000001;stroke-dashoffset:0;stroke-opacity:1;marker:none;marker-start:none;marker-mid:none;marker-end:none;paint-order:normal;enable-background:new" />
      <rect
         ry="7.9238095"
         rx="7.9238095"
         y="184.49524"
         x="12.495266"
         height="103.00952"
         width="103.00952"
         id="rect2896"
         style="display:inline;opacity:0.1;vector-effect:none;fill:none;fill-opacity:1;stroke:#000000;stroke-width:0.99000001;stroke-linecap:butt;stroke-linejoin:miter;stroke-miterlimit:4;stroke-dasharray:0.99000001, 0.99000001;stroke-dashoffset:0;stroke-opacity:1;marker:none;marker-start:none;marker-mid:none;marker-end:none;paint-order:normal;enable-background:new" />
      <rect
         ry="8.701005"
         rx="7.9292889"
         y="200.49496"
         x="8.4950066"
         height="87.010048"
         width="111.01004"
         id="rect2898"
         style="display:inline;opacity:0.1;vector-effect:none;fill:none;fill-opacity:1;stroke:#000000;stroke-width:0.99000001;stroke-linecap:butt;stroke-linejoin:miter;stroke-miterlimit:4;stroke-dasharray:0.99000001, 0.99000001;stroke-dashoffset:0;stroke-opacity:1;marker:none;marker-start:none;marker-mid:none;marker-end:none;paint-order:normal;enable-background:new" />
      <path
         inkscape:connector-curvature="0"
         id="path2900"
         d="M 2.6203015e-5,288.99999 H 128.00003"
         style="display:inline;fill:none;stroke:#62a0ea;stroke-width:2;stroke-linecap:butt;stroke-linejoin:miter;stroke-miterlimit:4;stroke-dasharray:none;stroke-opacity:1;enable-background:new" />
    </g>
    <g
       inkscape:groupmode="layer"
       id="layer9"
       inkscape:label="icons"
       style="display:inline">
      <g
         id="g1309"
         transform="translate(-128,32)">
        <rect
           style="display:inline;opacity:1;vector-effect:none;fill:#f6f5f4;fill-opacity:1;stroke:none;stroke-width:0.01129821px;stroke-linecap:butt;stroke-linejoin:miter;stroke-miterlimit:4;stroke-dasharray:none;stroke-dashoffset:0;stroke-opacity:1;marker:none;marker-start:none;marker-mid:none;marker-end:none;paint-order:normal;enable-background:new"
           id="rect929-36-9-9"
           width="112"
           height="88"
           x="136"
           y="168"
           rx="7.9999995"
           ry="7.9999995" />
        <rect
           rx="4"
           style="display:inline;opacity:1;vector-effect:none;fill:#1a5cd6;fill-opacity:1;stroke:none;stroke-width:0.01129821px;stroke-linecap:butt;stroke-linejoin:miter;stroke-miterlimit:4;stroke-dasharray:none;stroke-dashoffset:0;stroke-opacity:1;marker:none;marker-start:none;marker-mid:none;marker-end:none;paint-order:normal;enable-background:new"
           id="rect946-0-7-4"
           width="104"
           height="78"
           x="140"
           y="172"
           ry="4" />
        <path
           inkscape:connector-curvature="0"
           style="display:inline;opacity:1;vector-effect:none;fill:url(#linearGradient1444-2-3-3);fill-opacity:1;stroke:none;stroke-width:0.01129821px;stroke-linecap:butt;stroke-linejoin:miter;stroke-miterlimit:4;stroke-dasharray:none;stroke-dashoffset:0;stroke-opacity:1;marker:none;marker-start:none;marker-mid:none;marker-end:none;paint-order:normal;enable-background:new"
           d="m 135.99999,246 v 4 c 0,4.432 3.568,8 8,8 h 96 c 4.432,0 8,-3.568 8,-8 v -4 c 0,4.432 -3.568,8 -8,8 h -96 c -4.432,0 -8,-3.568 -8,-8 z"
           id="rect929-3-6-3-9"
           sodipodi:nodetypes="csssscssc" />
        <rect
           y="-246"
           x="144"
           height="70"
           width="96"
           id="rect968-2"
           style="display:inline;opacity:0.05;vector-effect:none;fill:url(#radialGradient1030-8);fill-opacity:1;stroke:none;stroke-width:0.01121096px;stroke-linecap:butt;stroke-linejoin:miter;stroke-miterlimit:4;stroke-dasharray:none;stroke-dashoffset:0;stroke-opacity:1;marker:none;marker-start:none;marker-mid:none;marker-end:none;paint-order:normal;enable-background:new"
           transform="scale(1,-1)" />
        <g
           id="g1613"
           transform="translate(-0.5731594)">
          <path
             id="path26"
             d="m 203.01186,222.87941 c 0.96166,-0.0121 1.60662,0.20414 1.93821,0.60193 0.34814,0.4149 0.52745,1.09462 0.52745,2.03972 v 16.53021 c 0,0.9451 -0.17931,1.62538 -0.52745,2.03973 -0.33159,0.39779 -0.97655,0.60193 -1.93821,0.60193 h -20.51862 c -0.9611,0 -1.60827,-0.20414 -1.93986,-0.60193 -0.34814,-0.41435 -0.52579,-1.09463 -0.52579,-2.03973 v -16.53021 c 0,-0.9451 0.17765,-1.62482 0.52579,-2.03972 0.33159,-0.39779 0.97876,-0.60193 1.93986,-0.60193 z m 27.07311,0 c 0.96165,-0.0121 1.60662,0.20414 1.9382,0.60193 0.34814,0.4149 0.52745,1.09462 0.52745,2.03972 v 16.53021 c 0,0.9451 -0.17931,1.62538 -0.52745,2.03973 -0.33158,0.39779 -0.97655,0.60193 -1.9382,0.60193 H 209.5669 c -0.96166,0 -1.60883,-0.20414 -1.94042,-0.60193 -0.34814,-0.41435 -0.52524,-1.09463 -0.52524,-2.03973 v -16.53021 c 0,-0.9451 0.1771,-1.62482 0.52524,-2.03972 0.33159,-0.39779 0.97876,-0.60193 1.94042,-0.60193 z"
             style="isolation:isolate;fill:#ffffff;fill-opacity:1;stroke-width:1"
             inkscape:connector-curvature="0" />
          <path
             id="path28"
             d="m 165.33683,237.72575 -6.75145,7.01794 h 13.25848 z"
             style="opacity:0.8;isolation:isolate;fill:#ffffff;fill-opacity:0.97142855;stroke-width:1"
             inkscape:connector-curvature="0" />
          <path
             id="path30"
             d="m 175.60473,209.09348 c 0.96166,-0.0121 1.60718,0.20414 1.93876,0.60193 0.34814,0.4149 0.5269,1.09462 0.5269,2.03972 v 16.53021 c 0,0.9451 -0.17876,1.62538 -0.5269,2.03972 -0.33158,0.3978 -0.9771,0.60194 -1.93876,0.60194 h -20.51806 c -0.96166,0 -1.60883,-0.20414 -1.94042,-0.60194 -0.34814,-0.41434 -0.52524,-1.09462 -0.52524,-2.03972 v -16.53021 c 0,-0.9451 0.1771,-1.62482 0.52524,-2.03972 0.33159,-0.39779 0.97876,-0.60193 1.94042,-0.60193 z"
             style="isolation:isolate;fill:#ffffff;fill-opacity:1;stroke-width:1"
             inkscape:connector-curvature="0" />
          <g
             transform="translate(-0.04507879)"
             id="g1605">
            <path
               style="opacity:1;fill:#ffffff;fill-opacity:1;stroke:none;stroke-width:0;stroke-linecap:square;stroke-linejoin:round;stroke-miterlimit:3;stroke-dasharray:none;stroke-opacity:0"
               d="M 25.03125 61.75 C 24.472391 61.75 24.023438 62.198953 24.023438 62.757812 L 24.023438 64.140625 C 24.023438 64.699484 24.472391 65.150391 25.03125 65.150391 L 48.513672 65.150391 C 49.072531 65.150391 49.523438 64.699484 49.523438 64.140625 L 49.523438 62.757812 C 49.523438 62.198953 49.072531 61.75 48.513672 61.75 L 25.03125 61.75 z M 26.589844 62.599609 L 31.814453 62.599609 L 31.814453 64.300781 L 26.589844 64.300781 C 26.030974 64.300781 25.580078 63.920119 25.580078 63.449219 C 25.580078 62.978319 26.030974 62.599609 26.589844 62.599609 z M 32.664062 62.599609 L 46.955078 62.599609 C 47.513928 62.599609 47.964844 62.978319 47.964844 63.449219 C 47.964844 63.920119 47.513928 64.300781 46.955078 64.300781 L 32.664062 64.300781 L 32.664062 62.599609 z "
               transform="translate(128.61824,140)"
               id="rect1600" />
            <path
               inkscape:connector-curvature="0"
               d="m 216.18729,180.23829 c -0.69189,-0.33317 -1.34986,-0.53398 -1.97349,-0.60202 -0.63507,-0.0646 -1.21395,-0.0214 -1.73692,0.12826 -0.52298,0.15014 -0.98486,0.39696 -1.38525,0.74016 -0.40039,0.3432 -0.71906,0.76166 -0.95653,1.25475 -0.15016,0.31184 -0.26066,0.60259 -0.33164,0.87214 -0.0745,0.2768 -0.12355,0.52115 -0.14725,0.73309 -0.0272,0.2192 -0.0372,0.40224 -0.0294,0.54891 0.008,0.14667 0.004,0.27664 0.0152,0.33549 l 0.0668,0.6575 c 0.031,0.30358 -0.002,0.53896 -0.0975,0.70483 -0.0902,0.17067 -0.26296,0.2692 -0.5186,0.29528 -0.0586,0.006 -0.12296,0.006 -0.19331,0.002 -0.0703,-0.002 -0.13352,-0.0106 -0.1884,-0.0214 l -10.32335,-4.97113 -3.36407,6.98596 c -0.0106,0.055 -0.0178,0.11813 -0.0214,0.18853 -0.003,0.0704 -0.002,0.13467 0.003,0.19334 0.0262,0.25573 0.12466,0.42834 0.2953,0.51858 0.16584,0.096 0.40128,0.12854 0.70483,0.0976 l 0.65749,-0.0666 c 0.0588,-0.0106 0.18883,-0.008 0.33549,-0.016 0.14664,-0.008 0.32975,0.002 0.54891,0.0294 0.21192,0.024 0.45629,0.0728 0.73308,0.14721 0.26956,0.071 0.5603,0.1816 0.87212,0.33165 0.49312,0.23733 0.91157,0.55611 1.25476,0.95651 0.3432,0.4004 0.59,0.86227 0.74016,1.38526 0.15016,0.52295 0.19198,1.10143 0.12736,1.73653 -0.0681,0.62363 -0.26803,1.28198 -0.60121,1.97387 -0.33318,0.69192 -0.71319,1.26785 -1.1404,1.7283 -0.43063,0.44904 -0.88978,0.78203 -1.37777,0.99771 -0.48798,0.21574 -0.99548,0.31432 -1.5225,0.29568 -0.52702,-0.0186 -1.0554,-0.156 -1.58478,-0.41082 -0.30458,-0.14668 -0.57844,-0.30288 -0.82038,-0.4683 -0.24192,-0.16534 -0.44638,-0.32304 -0.61537,-0.47296 -0.16899,-0.14985 -0.30633,-0.2847 -0.41007,-0.40321 -0.0999,-0.1264 -0.13827,-0.20826 -0.16989,-0.27253 l -0.35734,-0.55651 c -0.16509,-0.25653 -0.33716,-0.42051 -0.51572,-0.49024 -0.17706,-0.0768 -0.37383,-0.0458 -0.58995,0.0933 -0.0495,0.0318 -0.10042,0.0712 -0.15314,0.11787 -0.0527,0.0466 -0.0972,0.0909 -0.13352,0.13334 l -4.94841,10.2761 10.32335,4.97116 c 0.0549,0.0106 0.11806,0.0186 0.1884,0.0214 0.0703,0.002 0.13472,0.002 0.1933,-0.002 0.25564,-0.0266 0.42836,-0.12454 0.5186,-0.29528 0.0961,-0.16587 0.12848,-0.40126 0.0975,-0.70483 l -0.0668,-0.6575 c -0.011,-0.059 -0.007,-0.1888 -0.0152,-0.33549 -0.008,-0.14667 0.002,-0.32973 0.0294,-0.54891 0.0238,-0.212 0.0728,-0.45627 0.14725,-0.73306 0.071,-0.26955 0.1815,-0.5603 0.33164,-0.87214 0.23747,-0.49312 0.55614,-0.91155 0.95653,-1.25475 0.40039,-0.3432 0.86227,-0.59 1.38525,-0.74016 0.52297,-0.15013 1.10185,-0.19281 1.73693,-0.12827 0.62363,0.068 1.2816,0.26886 1.97349,0.60203 0.69189,0.33318 1.26783,0.71318 1.7283,1.1404 0.44903,0.43062 0.78203,0.88976 0.99771,1.37776 0.21565,0.48801 0.31431,0.99547 0.29566,1.52251 -0.0186,0.52702 -0.15592,1.05539 -0.41084,1.58478 -0.14667,0.30459 -0.30284,0.57843 -0.46832,0.82035 -0.16546,0.24186 -0.32304,0.44638 -0.47297,0.61536 -0.14998,0.16907 -0.28471,0.30635 -0.40323,0.41008 -0.12651,0.0997 -0.20832,0.1384 -0.27252,0.16987 l -0.5565,0.35733 c -0.25665,0.16507 -0.4205,0.33718 -0.49024,0.51571 -0.0771,0.17707 -0.0457,0.37384 0.0933,0.58995 0.0318,0.0496 0.0713,0.10053 0.11796,0.15307 0.0466,0.0528 0.091,0.0971 0.13344,0.1336 l 6.93871,3.34131 4.94841,-10.2761 c 0.0363,-0.0424 0.0808,-0.0867 0.13352,-0.13334 0.0527,-0.0466 0.10363,-0.0861 0.15318,-0.11786 0.21613,-0.13894 0.41301,-0.1704 0.58994,-0.0933 0.17859,0.0696 0.35062,0.2336 0.51572,0.49024 l 0.35735,0.55651 c 0.0316,0.0642 0.07,0.14613 0.16989,0.27251 0.10371,0.11867 0.24107,0.25333 0.41007,0.40322 0.16898,0.14987 0.37345,0.30753 0.61536,0.47299 0.24192,0.16534 0.51581,0.3216 0.82039,0.46827 0.52938,0.25493 1.05777,0.39219 1.58478,0.41085 0.52702,0.0186 1.03451,-0.08 1.5225,-0.29568 0.48799,-0.21573 0.94714,-0.54866 1.37777,-0.9977 0.4272,-0.46046 0.80722,-1.03641 1.1404,-1.7283 0.33318,-0.6919 0.53316,-1.35024 0.60121,-1.9739 0.0646,-0.63506 0.0226,-1.21355 -0.12736,-1.73654 -0.15016,-0.52296 -0.39697,-0.98483 -0.74017,-1.38523 -0.34319,-0.4004 -0.76164,-0.71907 -1.25475,-0.95651 -0.31182,-0.15013 -0.60259,-0.26053 -0.87213,-0.33165 -0.2768,-0.0744 -0.52116,-0.12347 -0.73308,-0.14721 -0.21917,-0.0272 -0.40224,-0.0374 -0.54891,-0.0294 -0.14666,0.008 -0.27665,0.006 -0.33549,0.016 l -0.65748,0.0666 c -0.30358,0.031 -0.53899,-0.002 -0.70484,-0.0976 -0.17051,-0.0904 -0.26921,-0.26292 -0.29529,-0.51858 -0.006,-0.0586 -0.007,-0.12294 -0.003,-0.19334 0.004,-0.0704 0.011,-0.1336 0.0216,-0.18852 l 3.36406,-6.98603 -6.93873,-3.34131 c -0.0425,-0.0362 -0.0868,-0.0808 -0.13344,-0.1336 -0.0466,-0.0528 -0.0861,-0.10373 -0.11796,-0.15306 -0.13902,-0.21627 -0.17046,-0.41302 -0.0933,-0.58995 0.0698,-0.1784 0.2336,-0.35064 0.49024,-0.51571 l 0.55651,-0.35737 c 0.0642,-0.0318 0.14602,-0.0698 0.27251,-0.16986 0.11851,-0.10374 0.25328,-0.24106 0.40323,-0.41006 0.14995,-0.16906 0.3075,-0.37344 0.47299,-0.61536 0.16546,-0.24186 0.32164,-0.51581 0.46832,-0.82037 0.25491,-0.52939 0.39218,-1.05776 0.41083,-1.58478 0.0186,-0.52701 -0.08,-1.03451 -0.29567,-1.52248 -0.21568,-0.48803 -0.54868,-0.94715 -0.9977,-1.37779 -0.46047,-0.4272 -1.03641,-0.80723 -1.7283,-1.1404 z"
               style="display:inline;fill:#ffffff;fill-opacity:1;stroke-width:0.35433084;enable-background:new"
               id="path35" />
          </g>
        </g>
      </g>
    </g>
  </g>
</svg>
