<?xml version="1.0" encoding="UTF-8" standalone="no"?>
<svg
   xmlns:dc="http://purl.org/dc/elements/1.1/"
   xmlns:cc="http://creativecommons.org/ns#"
   xmlns:rdf="http://www.w3.org/1999/02/22-rdf-syntax-ns#"
   xmlns:svg="http://www.w3.org/2000/svg"
   xmlns="http://www.w3.org/2000/svg"
   xmlns:xlink="http://www.w3.org/1999/xlink"
   xmlns:sodipodi="http://sodipodi.sourceforge.net/DTD/sodipodi-0.dtd"
   xmlns:inkscape="http://www.inkscape.org/namespaces/inkscape"
   inkscape:version="0.92.3 (2405546, 2018-03-11)"
   sodipodi:docname="balena-etcher-electron.svg"
   id="svg27"
   version="1.0"
   height="128"
   width="128">
  <metadata
     id="metadata31">
    <rdf:RDF>
      <cc:Work
         rdf:about="">
        <dc:format>image/svg+xml</dc:format>
        <dc:type
           rdf:resource="http://purl.org/dc/dcmitype/StillImage" />
        <dc:title />
      </cc:Work>
    </rdf:RDF>
  </metadata>
  <sodipodi:namedview
     inkscape:current-layer="svg27"
     inkscape:window-maximized="1"
     inkscape:window-y="34"
     inkscape:window-x="0"
     inkscape:cy="45.604791"
     inkscape:cx="33.877844"
     inkscape:zoom="6.5234375"
     showgrid="false"
     id="namedview29"
     inkscape:window-height="1009"
     inkscape:window-width="1920"
     inkscape:pageshadow="2"
     inkscape:pageopacity="0"
     guidetolerance="10"
     gridtolerance="10"
     objecttolerance="10"
     borderopacity="1"
     inkscape:document-rotation="0"
     bordercolor="#666666"
     pagecolor="#ffffff">
    <inkscape:grid
       type="xygrid"
       id="grid833" />
  </sodipodi:namedview>
  <defs
     id="defs15">
    <linearGradient
       id="a">
      <stop
         stop-color="#68676b"
         offset="0"
         id="stop2" />
      <stop
         stop-color="#424048"
         offset=".8"
         id="stop4" />
      <stop
         stop-color="#241f31"
         offset="1"
         id="stop6" />
    </linearGradient>
    <radialGradient
       xlink:href="#a"
       gradientUnits="userSpaceOnUse"
       gradientTransform="matrix(1.34416 .0006 -.00062 1.38763 -121.22 -718.103)"
       fy="446.483"
       fx="279.422"
       r="224"
       cy="446.483"
       cx="279.422"
       id="d" />
    <linearGradient
       xlink:href="#b"
       gradientUnits="userSpaceOnUse"
       gradientTransform="matrix(1.0015,0,0,0.99993,361.56007,-90.713525)"
       y2="234"
       y1="234"
       x2="-60"
       x1="43.844"
       id="e" />
    <linearGradient
       id="b">
      <stop
         style="stop-color:#57e389"
         stop-color="#d5d3cf"
         offset="0"
         id="stop11" />
      <stop
         style="stop-color:#8ff0a4"
         stop-color="#e3e2df"
         offset=".038"
         id="stop13" />
      <stop
         style="stop-color:#26a269"
         stop-color="#c0bfbc"
         offset=".077"
         id="stop15" />
      <stop
         style="stop-color:#26a269"
         stop-color="#c0bfbc"
         offset=".923"
         id="stop17" />
      <stop
         style="stop-color:#8ff0a4"
         stop-color="#e3e2df"
         offset=".962"
         id="stop19" />
      <stop
         style="stop-color:#57e389"
         stop-color="#d5d3cf"
         offset="1"
         id="stop21" />
    </linearGradient>
  </defs>
  <path
     sodipodi:nodetypes="cccccccsccccccccccccccccccccsccsccccccccccccc"
     inkscape:connector-curvature="0"
     id="path838"
     d="M 66.388672,8.21875 V 8.234375 C 64.637489,8.316775 62.9299,8.6718575 61.652344,9.3359375 L 18.757812,31.775391 v 4 c 13.939999,7.30885 30.00618,16.447656 41.203126,25.050781 3.442669,2.645154 5.76246,5.058445 7.345703,7.169922 1.583239,-2.111334 3.903376,-4.525021 7.345703,-7.169922 10.937423,-8.40372 26.523626,-17.320779 40.234376,-24.542969 v -4 L 71.472656,9.3359375 C 70.195101,8.6718575 68.487523,8.316815 66.736328,8.234375 V 8.21875 C 66.678248,8.21975 66.620484,8.22456 66.5625,8.22656 66.50442,8.22456 66.446788,8.21975 66.388672,8.21875 Z M 15.105469,41.228516 c -0.41329,1.111411 -0.706816,2.323143 -0.816407,3.640625 v 23.027343 0.642578 23.029297 c 0.47364,5.69404 4.261509,9.482151 7.226563,11.199221 l 40.136719,24.33203 c 0.767425,0.39891 1.699346,0.67385 2.693359,0.85742 l -0.28125,-52.249999 h 0.0098 c 0,-0.02532 0.003,-0.07842 0.0039,-0.121093 -0.0049,0.0065 -0.01056,0.01739 -0.03516,-0.0957 -0.06249,-0.287982 -0.223957,-0.852213 -0.660157,-1.68164 C 62.510443,72.149741 60.523071,69.417306 56.019531,65.957031 45.242936,57.676887 29.074974,48.536657 15.105469,41.228516 Z m 103.148441,0.658203 c -13.67543,7.19523 -29.204484,16.036737 -39.66016,24.070312 -4.503537,3.460275 -6.490902,6.19271 -7.363281,7.851563 -0.436186,0.829427 -0.597657,1.393658 -0.660157,1.68164 -0.02455,0.1131 -0.03026,0.102304 -0.03516,0.0957 0.002,0.09643 0.0098,0.27539 0.0098,0.27539 h -0.0078 l 0.211943,52.174526 C 70.973389,127.94546 73.36582,127.53623 74,127 l 37.60938,-24.23242 c 2.96505,-1.71708 6.75292,-5.505181 7.22656,-11.199221 V 68.539062 67.896484 44.869141 c -0.0882,-1.060311 -0.29065,-2.055325 -0.58203,-2.982422 z"
     style="opacity:0.6;fill:#3d3846;fill-opacity:1;stroke:none;stroke-width:0.4736352px;stroke-linecap:butt;stroke-linejoin:round;stroke-opacity:1" />
  <path
     style="fill:#8ff0a4;fill-opacity:1;stroke:none;stroke-width:0.4736352px;stroke-linecap:butt;stroke-linejoin:round;stroke-opacity:1"
     d="M 66.388672,4.21875 V 4.234375 C 64.637489,4.316775 62.9299,4.6718575 61.652344,5.3359375 L 21.515625,29.667969 c -0.884427,0.512176 -1.836638,1.231024 -2.757813,2.107422 13.939999,7.30885 30.00618,16.447656 41.203126,25.050781 3.442669,2.645154 5.76246,5.058445 7.345703,7.169922 1.583239,-2.111334 3.903376,-4.525021 7.345703,-7.169922 10.937423,-8.40372 26.523626,-17.320779 40.234376,-24.542969 -1.07435,-1.122987 -2.22558,-2.006151 -3.27734,-2.615234 L 71.472656,5.3359375 C 70.195101,4.6718575 68.487523,4.316815 66.736328,4.234375 V 4.21875 c -0.05808,0.001 -0.115844,0.00581 -0.173828,0.00781 -0.05808,-0.002 -0.115712,-0.00681 -0.173828,-0.00781 z M 15.105469,37.228516 c -0.41329,1.111411 -0.706816,2.323143 -0.816407,3.640625 v 23.027343 0.642578 23.029297 c 0.47364,5.69404 4.261509,9.482149 7.226563,11.199219 l 40.136719,24.332032 c 0.767425,0.39891 1.699346,0.67385 2.693359,0.85742 l -0.28125,-52.249999 h 0.0098 c 0,-0.02532 0.003,-0.07842 0.0039,-0.121093 -0.0049,0.0065 -0.01056,0.01739 -0.03516,-0.0957 -0.06249,-0.287982 -0.223957,-0.852213 -0.660157,-1.68164 C 62.510443,68.149741 60.523071,65.417306 56.019531,61.957031 45.242936,53.676887 29.074974,44.536657 15.105469,37.228516 Z m 103.148441,0.658203 c -13.67543,7.19523 -29.204484,16.036737 -39.66016,24.070312 -4.503537,3.460275 -6.490902,6.19271 -7.363281,7.851563 -0.436186,0.829427 -0.597657,1.393658 -0.660157,1.68164 -0.02455,0.1131 -0.03026,0.102304 -0.03516,0.0957 0.002,0.09643 0.0098,0.27539 0.0098,0.27539 h -0.0078 l 0.211943,52.174522 C 70.973389,123.94546 73.36582,123.53623 74,123 l 37.60938,-24.232422 c 2.96505,-1.71708 6.75292,-5.505179 7.22656,-11.199219 V 64.539062 63.896484 40.869141 c -0.0882,-1.060311 -0.29065,-2.055325 -0.58203,-2.982422 z"
     id="path846"
     inkscape:connector-curvature="0"
     sodipodi:nodetypes="cccccccsccccccccccccccccccccsccsccccccccccccc" />
  <path
     id="path1310"
     d="M 66.441406 22.216797 L 66.441406 22.230469 C 65.215571 22.288169 64.019287 22.53514 63.125 23 L 35.03125 40.033203 C 34.857799 40.133651 34.675909 40.260225 34.496094 40.380859 C 43.753528 45.679224 52.84832 51.361223 59.960938 56.826172 C 63.403607 59.471326 65.723398 61.884617 67.306641 63.996094 C 68.88988 61.88476 71.210017 59.471073 74.652344 56.826172 C 81.551284 51.525402 90.317245 46.022879 99.285156 40.861328 C 98.88127 40.541691 98.478533 40.2549 98.095703 40.033203 L 70 23 C 69.105737 22.53515 67.909405 22.286216 66.683594 22.228516 L 66.683594 22.216797 C 66.642914 22.217797 66.60312 22.221656 66.5625 22.222656 C 66.52182 22.221656 66.482026 22.217797 66.441406 22.216797 z M 30.455078 45.570312 C 30.212445 46.281301 30.039481 47.046235 29.970703 47.873047 L 29.970703 63.992188 L 29.970703 64.443359 L 29.970703 80.5625 C 30.302251 84.54834 32.955707 87.200394 35.03125 88.402344 L 63.125 105.43555 C 63.45897 105.60915 63.844199 105.74292 64.248047 105.85742 L 64.064453 71.707031 L 64.074219 71.707031 C 64.074219 71.681712 64.077235 71.628608 64.078125 71.585938 C 64.073225 71.592482 64.067569 71.603326 64.042969 71.490234 C 63.980479 71.202252 63.819012 70.638021 63.382812 69.808594 C 62.510443 68.149741 60.523071 65.417306 56.019531 61.957031 C 49.068653 56.616358 39.862593 50.91036 30.455078 45.570312 z M 102.88867 46.302734 C 93.928491 51.431397 85.230047 56.85806 78.59375 61.957031 C 74.090213 65.417306 72.102848 68.149741 71.230469 69.808594 C 70.794283 70.638021 70.632812 71.202252 70.570312 71.490234 C 70.545762 71.603334 70.540056 71.592538 70.535156 71.585938 C 70.537166 71.682371 70.544922 71.861328 70.544922 71.861328 L 70.537109 71.861328 L 70.714844 105.00195 L 98.095703 88.402344 C 100.17125 87.200384 102.82275 84.54833 103.1543 80.5625 L 103.1543 64.443359 L 103.1543 63.992188 L 103.1543 47.873047 C 103.10856 47.323191 103.01513 46.80152 102.88867 46.302734 z "
     style="fill:#2ec27e;fill-opacity:1;stroke:none;stroke-width:0.33154461px;stroke-linecap:butt;stroke-linejoin:round;stroke-opacity:1" />
</svg>
