<?xml version="1.0" encoding="UTF-8" standalone="no"?>
<!-- Created with Inkscape (http://www.inkscape.org/) -->

<svg
   xmlns:dc="http://purl.org/dc/elements/1.1/"
   xmlns:cc="http://creativecommons.org/ns#"
   xmlns:rdf="http://www.w3.org/1999/02/22-rdf-syntax-ns#"
   xmlns:svg="http://www.w3.org/2000/svg"
   xmlns="http://www.w3.org/2000/svg"
   xmlns:xlink="http://www.w3.org/1999/xlink"
   xmlns:sodipodi="http://sodipodi.sourceforge.net/DTD/sodipodi-0.dtd"
   xmlns:inkscape="http://www.inkscape.org/namespaces/inkscape"
   width="128"
   height="128"
   id="svg5192"
   version="1.1"
   inkscape:version="0.48.1 r9760"
   sodipodi:docname="Nuevo documento 12">
  <defs
     id="defs5194">
    <linearGradient
       inkscape:collect="always"
       xlink:href="#linearGradient4542"
       id="linearGradient4548-0-6"
       x1="158.90836"
       y1="13.640636"
       x2="158.90836"
       y2="47.821793"
       gradientUnits="userSpaceOnUse" />
    <linearGradient
       inkscape:collect="always"
       id="linearGradient4542">
      <stop
         style="stop-color:#ffffff;stop-opacity:1;"
         offset="0"
         id="stop4544" />
      <stop
         style="stop-color:#ffffff;stop-opacity:0;"
         offset="1"
         id="stop4546" />
    </linearGradient>
    <linearGradient
       inkscape:collect="always"
       xlink:href="#linearGradient4368"
       id="linearGradient4374-2-9"
       x1="166.49399"
       y1="28.05773"
       x2="166.49399"
       y2="37.641525"
       gradientUnits="userSpaceOnUse"
       gradientTransform="matrix(2.5632383,0,0,2.5638249,-112.32012,13.28343)" />
    <linearGradient
       inkscape:collect="always"
       id="linearGradient4368">
      <stop
         style="stop-color:#ffffff;stop-opacity:1;"
         offset="0"
         id="stop4370" />
      <stop
         style="stop-color:#ffffff;stop-opacity:0;"
         offset="1"
         id="stop4372" />
    </linearGradient>
    <radialGradient
       inkscape:collect="always"
       xlink:href="#linearGradient4202"
       id="radialGradient4200-3-7"
       cx="27.578861"
       cy="2.0474684"
       fx="27.578861"
       fy="2.0474684"
       r="22.631777"
       gradientTransform="matrix(0,1.8559214,-2.6108479,0,32.92449,-45.314876)"
       gradientUnits="userSpaceOnUse" />
    <linearGradient
       id="linearGradient4202">
      <stop
         offset="0"
         style="stop-color:#e6ac82;stop-opacity:1;"
         id="stop4204" />
      <stop
         offset="0.26238"
         style="stop-color:#df9561;stop-opacity:1;"
         id="stop4206" />
      <stop
         offset="0.66093999"
         style="stop-color:#d5762f;stop-opacity:1;"
         id="stop4208" />
      <stop
         offset="1"
         style="stop-color:#a75a21;stop-opacity:1;"
         id="stop4210" />
    </linearGradient>
    <linearGradient
       inkscape:collect="always"
       xlink:href="#linearGradient4220"
       id="linearGradient4218-5-3"
       x1="25.870277"
       y1="40.61932"
       x2="25.870277"
       y2="5.0962744"
       gradientUnits="userSpaceOnUse" />
    <linearGradient
       id="linearGradient4220">
      <stop
         offset="0"
         style="stop-color:#753d17;stop-opacity:1;"
         id="stop4222" />
      <stop
         offset="1"
         style="stop-color:#d97f3f;stop-opacity:1;"
         id="stop4224" />
    </linearGradient>
    <radialGradient
       inkscape:collect="always"
       xlink:href="#linearGradient4234"
       id="radialGradient4232-2-2"
       cx="31.840776"
       cy="20.00672"
       fx="31.840776"
       fy="20.00672"
       r="5.9926605"
       gradientTransform="matrix(-1.3028813e-7,1.9472109,-2.7709502,-1.9124165e-7,87.27841,-41.592081)"
       gradientUnits="userSpaceOnUse" />
    <linearGradient
       id="linearGradient4234">
      <stop
         offset="0"
         style="stop-color:#8badea;stop-opacity:1"
         id="stop4236" />
      <stop
         offset="0.26238"
         style="stop-color:#6396cd;stop-opacity:1"
         id="stop4238" />
      <stop
         offset="0.66093999"
         style="stop-color:#3b7caf;stop-opacity:1"
         id="stop4240" />
      <stop
         offset="1"
         style="stop-color:#194c70;stop-opacity:1"
         id="stop4242" />
    </linearGradient>
    <linearGradient
       inkscape:collect="always"
       xlink:href="#linearGradient4252"
       id="linearGradient4250-2-0"
       x1="29.329277"
       y1="29.777784"
       x2="29.329277"
       y2="20.041948"
       gradientUnits="userSpaceOnUse" />
    <linearGradient
       id="linearGradient4252">
      <stop
         offset="0"
         style="stop-color:#1f4b6a;stop-opacity:1"
         id="stop4254" />
      <stop
         offset="1"
         style="stop-color:#4083c2;stop-opacity:1"
         id="stop4256" />
    </linearGradient>
    <radialGradient
       r="10.625"
       fy="4.625"
       fx="62.625"
       cy="4.625"
       cx="62.625"
       gradientTransform="matrix(4.1726956,0,0,1.0454123,49.304311,134.56249)"
       gradientUnits="userSpaceOnUse"
       id="radialGradient4002"
       xlink:href="#linearGradient4112"
       inkscape:collect="always" />
    <linearGradient
       id="linearGradient4112">
      <stop
         offset="0"
         style="stop-color:#000000;stop-opacity:1"
         id="stop4114" />
      <stop
         offset="1"
         style="stop-color:#000000;stop-opacity:0"
         id="stop4116" />
    </linearGradient>
  </defs>
  <sodipodi:namedview
     id="base"
     pagecolor="#ffffff"
     bordercolor="#666666"
     borderopacity="1.0"
     inkscape:pageopacity="0.0"
     inkscape:pageshadow="2"
     inkscape:zoom="5.5703125"
     inkscape:cx="64"
     inkscape:cy="64"
     inkscape:document-units="px"
     inkscape:current-layer="layer1"
     showgrid="false"
     fit-margin-top="0"
     fit-margin-left="0"
     fit-margin-right="0"
     fit-margin-bottom="0" />
  <metadata
     id="metadata5197">
    <rdf:RDF>
      <cc:Work
         rdf:about="">
        <dc:format>image/svg+xml</dc:format>
        <dc:type
           rdf:resource="http://purl.org/dc/dcmitype/StillImage" />
        <dc:title></dc:title>
      </cc:Work>
    </rdf:RDF>
  </metadata>
  <g
     inkscape:label="Capa 1"
     inkscape:groupmode="layer"
     id="layer1"
     transform="translate(-227.42857,-25.505039)">
    <path
       inkscape:connector-curvature="0"
       d="m 354.95424,139.3975 c 0,6.13453 -19.84939,11.10754 -44.33488,11.10754 -24.48547,0 -44.33489,-4.97301 -44.33489,-11.10754 0,-6.13449 19.84942,-11.10753 44.33489,-11.10753 24.48549,0 44.33488,4.97304 44.33488,11.10753 l 0,0 z"
       id="path8836-1-4"
       style="opacity:0.3;fill:url(#radialGradient4002);fill-opacity:1;fill-rule:evenodd;stroke:none;stroke-width:0.99999988;marker:none;visibility:visible;display:inline;overflow:visible;enable-background:new" />
    <g
       style="display:inline;enable-background:new"
       id="layer1-7-4-7"
       inkscape:label="Layer 1"
       transform="matrix(2.8142105,0,0,2.7768808,221.92298,27.566985)">
      <path
         sodipodi:nodetypes="csssssssssscccsscccscccsscccc"
         d="m 16.048489,28.093447 c 0.0098,0.576682 0.196474,1.697902 0.471116,2.577425 0.581566,1.854137 1.56684,3.572658 2.939126,5.086496 1.407488,1.553118 3.138519,2.803227 5.139315,3.68976 2.105357,0.931573 4.384795,1.407488 6.750134,1.403741 2.365339,-0.005 4.644601,-0.488686 6.74896,-1.427017 2.00002,-0.895288 3.731043,-2.148391 5.13754,-3.705517 1.369207,-1.519844 2.352576,-3.241114 2.934089,-5.096258 0.294262,-0.938353 0.476921,-1.889392 0.553238,-2.845308 0.07331,-0.939306 0.04204,-1.883511 -0.09183,-2.823792 -0.259981,-1.835599 -0.896294,-3.556847 -1.872652,-5.12758 -0.895541,-1.441699 -2.047808,-2.70454 -3.417268,-3.766975 l 0.002,-0.002 L 27.513799,5.4367025 c -0.01176,-0.00978 -0.02252,-0.019551 -0.03529,-0.028344 -0.909003,-0.6959264 -2.434775,-0.6939758 -3.431728,0.00488 -1.01067,0.7057021 -1.091821,1.8092613 -0.195527,2.5482146 1.899775,1.4997633 3.792068,3.3805399 5.702368,4.8801189 l -17.551681,-0.01171 c -1.994685,0 -3.1682604,0.947915 -3.4153942,2.333683 -0.2180771,1.222836 0.7479213,2.738129 2.4800212,2.738129 2.956573,0.0039 5.942111,-0.0069 8.909215,-0.01272 L 4.07406,29.340616 c -0.020527,0.01564 -0.041053,0.02933 -0.06158,0.04497 -1.4974197,1.148389 -1.9831951,3.059322 -1.0399808,4.268393 0.9598323,1.22959 2.9977653,1.230588 4.5147288,0.006 l 8.677593,-7.102098 c 0,0 -0.12511,0.959824 -0.116333,1.535532 z"
         id="path2482-0-5"
         style="fill:url(#radialGradient4200-3-7);fill-opacity:1;fill-rule:evenodd;stroke:url(#linearGradient4218-5-3);stroke-width:0.35771987;stroke-linecap:butt;stroke-linejoin:miter;stroke-miterlimit:4;stroke-opacity:1;stroke-dasharray:none"
         inkscape:connector-curvature="0" />
      <path
         transform="matrix(0.821621,0,0,0.839506,5.87569,3.88272)"
         d="m 42.75,25.75 c 0,5.591883 -5.176708,10.125 -11.5625,10.125 -6.385792,0 -11.5625,-4.533117 -11.5625,-10.125 0,-5.591883 5.176708,-10.125 11.5625,-10.125 6.385792,0 11.5625,4.533117 11.5625,10.125 z"
         sodipodi:ry="10.125"
         sodipodi:rx="11.5625"
         sodipodi:cy="25.75"
         sodipodi:cx="31.1875"
         id="path39153-3-5"
         style="color:#000000;fill:#ffffff;fill-opacity:1;fill-rule:nonzero;stroke:none;stroke-width:1;marker:none;visibility:visible;display:inline;overflow:visible"
         sodipodi:type="arc" />
      <path
         d="m 26.007076,24.754048 c 0.07447,-1.361157 0.739293,-2.562655 1.738705,-3.413271 0.983518,-0.836183 2.304215,-1.346747 3.746876,-1.346747 1.441743,0 2.762441,0.510564 3.745729,1.346747 1.000515,0.850616 1.664539,2.051213 1.739875,3.41237 0.07718,1.400852 -0.4828,2.701576 -1.46425,3.66495 -1.000516,0.981409 -2.427099,1.597503 -4.021354,1.597503 -1.595172,0 -3.021756,-0.616094 -4.022225,-1.597503 -0.982461,-0.963374 -1.540507,-2.264098 -1.463356,-3.664049 z"
         id="path2478-1-8"
         style="fill:url(#radialGradient4232-2-2);fill-opacity:1;fill-rule:evenodd;stroke:url(#linearGradient4250-2-0);stroke-width:0.36050275;stroke-opacity:1"
         inkscape:connector-curvature="0" />
    </g>
    <path
       inkscape:connector-curvature="0"
       style="opacity:0.4;fill:none;stroke:url(#linearGradient4374-2-9);stroke-width:1.00777948;stroke-opacity:1;display:inline;enable-background:new"
       id="path2478-3-2-0"
       d="m 296.26948,96.359441 c 0.19375,-3.489763 1.92459,-6.570175 4.52632,-8.750988 2.5604,-2.143862 5.99852,-3.452857 9.75416,-3.452857 3.75323,0 7.19139,1.308995 9.75114,3.452857 2.60464,2.180813 4.33327,5.258939 4.52939,8.748701 0.2009,3.591534 -1.25685,6.926366 -3.81184,9.396276 -2.60465,2.51616 -6.31842,4.09573 -10.46869,4.09573 -4.15267,0 -7.86645,-1.57957 -10.47096,-4.09573 -2.55761,-2.46991 -4.01037,-5.804742 -3.80952,-9.393989 z" />
    <path
       transform="matrix(2.7709306,0,0,2.7768808,-146.58415,6.3263088)"
       sodipodi:type="inkscape:offset"
       inkscape:radius="-0.40183944"
       inkscape:original="M 159.1875 12.53125 C 158.55813 12.532106 157.91251 12.713062 157.40625 13.0625 C 156.3798 13.768203 156.30846 14.886047 157.21875 15.625 C 159.1482 17.124763 161.05986 19.000421 163 20.5 L 145.1875 20.46875 C 143.16166 20.46875 141.96974 21.426732 141.71875 22.8125 C 141.49726 24.035336 142.4596 25.5625 144.21875 25.5625 C 147.22151 25.5664 150.2678 25.53707 153.28125 25.53125 L 137.125 37 C 137.1041 37.01564 137.0833 37.01561 137.0625 37.03125 C 135.54169 38.179639 135.04206 40.103429 136 41.3125 C 136.97483 42.54209 139.05309 42.537088 140.59375 41.3125 L 149.40625 34.21875 C 149.40625 34.21875 149.27233 35.174292 149.28125 35.75 C 149.29125 36.326682 149.50232 37.432977 149.78125 38.3125 C 150.3719 40.166637 151.35628 41.892412 152.75 43.40625 C 154.17947 44.959368 155.9367 46.207217 157.96875 47.09375 C 160.10699 48.025323 162.44147 48.503747 164.84375 48.5 C 167.24604 48.495 169.55027 48.000831 171.6875 47.0625 C 173.71875 46.167212 175.47778 44.932126 176.90625 43.375 C 178.29684 41.855156 179.2844 40.136394 179.875 38.28125 C 180.17386 37.342897 180.35999 36.393416 180.4375 35.4375 C 180.512 34.498194 180.47975 33.534031 180.34375 32.59375 C 180.0797 30.758151 179.4291 29.039483 178.4375 27.46875 C 177.52797 26.027051 176.3596 24.781185 174.96875 23.71875 L 160.9375 13.09375 C 160.9256 13.08395 160.91915 13.07129 160.90625 13.0625 C 160.44465 12.714537 159.81687 12.530394 159.1875 12.53125 z "
       style="opacity:0.4;fill:none;stroke:url(#linearGradient4548-0-6);stroke-width:0.36050275;stroke-linecap:butt;stroke-linejoin:miter;stroke-miterlimit:4;stroke-opacity:1;stroke-dasharray:none;display:inline;enable-background:new"
       id="path4540-7-7"
       d="m 159.1875,12.9375 c -0.55272,7.52e-4 -1.13431,0.173198 -1.5625,0.46875 -0.43518,0.299197 -0.6025,0.648812 -0.625,0.96875 -0.0225,0.319938 0.0946,0.63375 0.46875,0.9375 1.95608,1.520464 3.86834,3.396465 5.78125,4.875 A 0.40187962,0.40187962 0 0 1 163,20.90625 L 145.1875,20.875 c -0.94958,0 -1.65621,0.208259 -2.15625,0.5625 -0.50004,0.354241 -0.79774,0.838402 -0.90625,1.4375 -0.17465,0.964242 0.56716,2.28125 2.09375,2.28125 2.99979,0.0039 6.04697,-0.02543 9.0625,-0.03125 A 0.40187962,0.40187962 0 0 1 153.5,25.84375 l -16.125,11.46875 -0.0312,0 c -0.0167,0.01067 -0.0171,0.02421 -0.0312,0.03125 -0.69118,0.52192 -1.14195,1.228814 -1.3125,1.90625 -0.17055,0.677436 -0.0809,1.315929 0.3125,1.8125 0.80177,1.011303 2.62797,1.052891 4.03125,-0.0625 l 8.8125,-7.09375 a 0.40187962,0.40187962 0 0 1 0.65625,0.375 c 0,0 -0.13285,0.962223 -0.125,1.46875 0.008,0.487583 0.20151,1.594851 0.46875,2.4375 0.57335,1.799816 1.52049,3.466255 2.875,4.9375 1.39097,1.511293 3.11055,2.728529 5.09375,3.59375 2.08624,0.908919 4.37023,1.378663 6.71875,1.375 2.34772,-0.0049 4.60006,-0.489781 6.6875,-1.40625 1.98479,-0.87481 3.70481,-2.079718 5.09375,-3.59375 1.3527,-1.478432 2.30192,-3.137376 2.875,-4.9375 0.28971,-0.909636 0.4562,-1.824372 0.53125,-2.75 0.0721,-0.908589 0.038,-1.839328 -0.0937,-2.75 -0.25584,-1.778511 -0.88043,-3.442812 -1.84375,-4.96875 -0.88241,-1.398713 -2.01831,-2.619907 -3.375,-3.65625 l -14.03125,-10.625 a 0.40187962,0.40187962 0 0 1 -0.0312,-0.03125 c -0.37617,-0.283565 -0.91812,-0.438249 -1.46875,-0.4375 z" />
  </g>
</svg>
