<svg xmlns="http://www.w3.org/2000/svg" xmlns:xlink="http://www.w3.org/1999/xlink" style="enable-background:new" width="128" height="128" version="1.0" viewBox="0 0 128 128">
 <title id="title4162">
  Adwaita Icon Template
 </title>
 <defs>
  <linearGradient id="linearGradient1879">
   <stop style="stop-color:#e8e7e4" id="stop1873" offset="0"/>
   <stop id="stop1875" offset=".5" style="stop-color:#ffffff"/>
   <stop style="stop-color:#c9c6c1" id="stop1877" offset="1"/>
  </linearGradient>
  <linearGradient id="linearGradient1037" x1="384" x2="416" y1="120" y2="120" gradientTransform="matrix(0.20089286,0,0,0.20089286,4.7142858,238.16071)" gradientUnits="userSpaceOnUse" xlink:href="#linearGradient1879"/>
  <linearGradient id="linearGradient843" x1="384" x2="416" y1="120" y2="120" gradientTransform="matrix(0.20089286,0,0,0.20089286,29.385124,215.73267)" gradientUnits="userSpaceOnUse" xlink:href="#linearGradient1879"/>
 </defs>
 <g id="layer1" transform="translate(0,-172)">
  <g id="layer9">
   <path d="M 24,218.07143 V 292 h 57.857143 c 3.561429,0 6.428571,-2.86714 6.428571,-6.42857 V 224.5 c 0,-3.56143 -2.867142,-6.42857 -6.428571,-6.42857 z" style="fill:#00894a"/>
   <rect style="fill:#191622" width="6.429" height="14.464" x="24" y="277.54"/>
   <path d="m 25.607143,234.14286 v 56.25 h 56.25 c 3.561429,0 6.428571,-2.86715 6.428571,-6.42857 v -43.39286 c 0,-3.56143 -2.867142,-6.42857 -6.428571,-6.42857 z" style="fill:url(#linearGradient1037)"/>
   <path d="m 24,218.07143 v 61.07143 h 57.857143 c 3.561429,0 6.428571,-2.86715 6.428571,-6.42857 V 224.5 c 0,-3.56143 -2.867142,-6.42857 -6.428571,-6.42857 z" style="fill:#00894a"/>
   <path d="m 24,202 v 75.53571 h 57.857143 c 3.561429,0 6.428571,-2.86714 6.428571,-6.42857 V 208.42857 C 88.285714,204.86714 85.418572,202 81.857143,202 Z" style="fill:#26a269"/>
   <rect style="fill:#424048" width="6.429" height="75.536" x="24" y="202"/>
   <path style="opacity:0.22300002;fill:#ffffff" d="m 25.607143,202.00001 h 1.607143 v 75.53571 h -1.607143 z"/>
   <rect style="fill:#191622" width="6.429" height="1.607" x="24" y="277.54"/>
   <path style="fill:#890009" d="m 48.670839,195.64339 v 73.92857 h 57.857141 c 3.56143,0 6.42857,-2.86714 6.42857,-6.42857 v -61.07143 c 0,-3.56143 -2.86714,-6.42857 -6.42857,-6.42857 z"/>
   <rect width="6.429" height="14.464" x="48.67" y="255.11" style="fill:#191622"/>
   <path style="fill:url(#linearGradient843)" d="m 50.277982,211.71482 v 56.25 h 56.249998 c 3.56143,0 6.42857,-2.86715 6.42857,-6.42857 v -43.39286 c 0,-3.56143 -2.86714,-6.42857 -6.42857,-6.42857 z"/>
   <path style="fill:#89002b" d="m 48.670839,195.64339 v 61.07143 h 57.857141 c 3.56143,0 6.42857,-2.86715 6.42857,-6.42857 v -48.21429 c 0,-3.56143 -2.86714,-6.42857 -6.42857,-6.42857 z"/>
   <path style="fill:#d50922" d="m 48.670839,179.57196 v 75.53571 h 57.857141 c 3.56143,0 6.42857,-2.86714 6.42857,-6.42857 v -62.67857 c 0,-3.56143 -2.86714,-6.42857 -6.42857,-6.42857 z"/>
   <rect width="6.429" height="75.536" x="48.67" y="179.57" style="fill:#424048"/>
   <path d="m 50.277982,179.57197 h 1.607143 v 75.53571 h -1.607143 z" style="opacity:0.22300002;fill:#ffffff"/>
   <rect width="6.429" height="1.607" x="48.67" y="255.11" style="fill:#191622"/>
  </g>
 </g>
</svg>
