<svg xmlns="http://www.w3.org/2000/svg" xmlns:xlink="http://www.w3.org/1999/xlink" width="128" height="128" version="1.0">
 <defs>
  <linearGradient id="e">
   <stop offset="0" stop-color="#68676b"/>
   <stop offset=".733" stop-color="#949390"/>
   <stop offset="1" stop-color="#8b8a87"/>
  </linearGradient>
  <linearGradient id="a">
   <stop offset="0" stop-color="#949390"/>
   <stop offset="1" stop-color="#767579"/>
  </linearGradient>
  <linearGradient id="b">
   <stop offset="0" stop-color="#191622"/>
   <stop offset="1" stop-color="#424048"/>
  </linearGradient>
  <linearGradient id="g">
   <stop offset="0" stop-color="#191622"/>
   <stop offset="1" stop-color="#424048"/>
  </linearGradient>
  <linearGradient id="d">
   <stop offset="0" stop-color="#f6d32d"/>
   <stop offset=".182" stop-color="#f9f06b"/>
   <stop offset=".795" stop-color="#e5a50a"/>
   <stop offset="1" stop-color="#f6d32d"/>
  </linearGradient>
  <linearGradient id="c">
   <stop offset="0" stop-color="#555753"/>
   <stop offset="1" stop-color="#2e3436"/>
  </linearGradient>
  <linearGradient id="f">
   <stop offset="0" stop-color="#2e3436"/>
   <stop offset="1" stop-color="#555753"/>
  </linearGradient>
  <radialGradient id="k" cx="128" cy="384.952" r="80" fx="128" fy="384.952" gradientTransform="matrix(.525 0 0 .3675 60.8 242.53)" gradientUnits="userSpaceOnUse" xlink:href="#a"/>
  <linearGradient id="p" x1="165.737" x2="134.779" y1="323.267" y2="207.729" gradientTransform="matrix(.85714 0 0 .85714 961.714 -317.176)" gradientUnits="userSpaceOnUse" xlink:href="#b"/>
  <radialGradient id="w" cx="343.875" cy="308.125" r="8" fx="343.875" fy="308.125" gradientTransform="translate(916 -220)" gradientUnits="userSpaceOnUse" xlink:href="#c"/>
  <linearGradient id="h" x1="352" x2="448" y1="256" y2="256" gradientTransform="translate(804 -220.033)" gradientUnits="userSpaceOnUse" xlink:href="#d"/>
  <linearGradient id="i" x1="216" x2="360" y1="144" y2="144" gradientTransform="translate(804 -220.033)" gradientUnits="userSpaceOnUse" xlink:href="#d"/>
  <linearGradient id="j" x1="64" x2="240" y1="280" y2="280" gradientTransform="translate(804 -220.033)" gradientUnits="userSpaceOnUse" xlink:href="#d"/>
  <linearGradient id="l" x1="352" x2="448" y1="256" y2="256" gradientTransform="translate(804 -220.033)" gradientUnits="userSpaceOnUse" xlink:href="#d"/>
  <linearGradient id="m" x1="64" x2="240" y1="280" y2="280" gradientTransform="translate(804 -220.033)" gradientUnits="userSpaceOnUse" xlink:href="#d"/>
  <linearGradient id="n" x1="317.666" x2="341.571" y1="211.334" y2="187.429" gradientTransform="translate(828 -220.033)" gradientUnits="userSpaceOnUse" xlink:href="#e"/>
  <linearGradient id="o" x1="216" x2="360" y1="144" y2="144" gradientTransform="translate(804 -220.033)" gradientUnits="userSpaceOnUse" xlink:href="#d"/>
  <linearGradient id="q" x1="165.737" x2="134.779" y1="323.267" y2="207.729" gradientTransform="translate(804 -220.033)" gradientUnits="userSpaceOnUse" xlink:href="#b"/>
  <linearGradient id="r" x1="144.906" x2="159.094" y1="245.525" y2="298.475" gradientTransform="translate(804 -220.033)" gradientUnits="userSpaceOnUse" xlink:href="#f"/>
  <linearGradient id="s" x1="144.906" x2="159.094" y1="245.525" y2="298.475" gradientTransform="translate(804 -220.033)" gradientUnits="userSpaceOnUse" xlink:href="#b"/>
  <linearGradient id="t" x1="144.906" x2="159.094" y1="245.525" y2="298.475" gradientTransform="matrix(.75 0 0 .75 978 -288.032)" gradientUnits="userSpaceOnUse" xlink:href="#b"/>
  <linearGradient id="u" x1="165.737" x2="134.779" y1="323.267" y2="207.729" gradientTransform="matrix(.57143 0 0 .57143 1117.143 -127.462)" gradientUnits="userSpaceOnUse" xlink:href="#b"/>
  <linearGradient id="v" x1="144.906" x2="159.094" y1="245.525" y2="298.475" gradientTransform="matrix(.5 0 0 .5 1128 -108.033)" gradientUnits="userSpaceOnUse" xlink:href="#g"/>
  <radialGradient id="x" cx="343.875" cy="308.125" r="8" fx="343.875" fy="308.125" gradientTransform="translate(-1492 -220)" gradientUnits="userSpaceOnUse" xlink:href="#c"/>
 </defs>
 <g transform="matrix(.25 0 0 .25 -203 57.008)">
  <path fill="#4c4c64" d="M1260 76c13.255 0 24 10.745 24 24v48l-24 24h-24v-72c0-13.255 10.745-24 24-24zM1148 76c-13.255 0-24 10.745-24 24v48l24 24h24v-72c0-13.255-10.745-24-24-24z"/>
  <rect fill="url(#h)" width="96" height="112" x="1156" y="-20.03" rx="48" ry="48"/>
  <rect fill="url(#i)" width="144" height="160" x="1020" y="-156.03" rx="72" ry="72"/>
  <rect fill="url(#j)" width="176" height="192" x="868" y="-36.03" rx="88" ry="88"/>
  <path fill="none" stroke="#f5ce17" stroke-width="32" d="M1077.373-106.66l-160 160 45.254 45.254 160-160z" color="#000" font-family="sans-serif" font-weight="400" overflow="visible"/>
  <path fill="#424048" d="M860 203.967h192v32H860z"/>
  <path fill="url(#k)" d="M80 224v128c0 17.673-14.327 32-32 32H32v32h192v-32h-16c-17.673 0-32-14.327-32-32V224z" color="#000" font-family="sans-serif" font-weight="400" overflow="visible" transform="translate(828 -204.033)"/>
  <path fill="#68676b" d="M860 179.967h192v32H860z"/>
  <path fill="none" stroke="#424048" stroke-width="24" d="M1140 99.967l64-64 64 64"/>
  <circle fill="url(#l)" cx="1204" cy="35.967" r="48"/>
  <path fill="#7a8599" d="M1260 68c13.255 0 24 10.745 24 24v48l-24 24h-24V92c0-13.255 10.745-24 24-24z"/>
  <path fill="none" stroke="#f9f06b" stroke-width="32" d="M1077.373-114.66l-160 160 45.254 45.254 160-160z" color="#000" font-family="sans-serif" font-weight="400" overflow="visible"/>
  <circle fill="url(#m)" cx="956" cy="59.967" r="88"/>
  <circle fill="#f9f06b" cx="956" cy="51.967" r="88"/>
  <path fill="none" stroke="url(#n)" stroke-width="40" d="M1221 43.967l-128-128"/>
  <circle fill="url(#o)" cx="1092" cy="-76.033" r="72"/>
  <circle fill="#f9f06b" cx="1092" cy="-84.033" r="72"/>
  <circle fill="#f9f06b" cx="1204" cy="27.967" r="48"/>
  <ellipse fill="url(#p)" cx="1092" cy="-84.033" rx="48" ry="48"/>
  <circle fill="url(#q)" cx="956" cy="51.967" r="56"/>
  <circle fill="url(#r)" cx="956" cy="51.967" r="32"/>
  <circle fill="url(#s)" cx="956" cy="51.967" r="32"/>
  <circle fill="url(#t)" cx="1092" cy="-84.033" r="24"/>
  <ellipse fill="url(#u)" cx="1204" cy="27.967" rx="32" ry="32"/>
  <circle fill="url(#v)" cx="1204" cy="27.967" r="16"/>
  <circle fill="url(#w)" cx="1260" cy="92" r="8"/>
  <path fill="#7a8599" d="M1148 68c-13.255 0-24 10.745-24 24v48l24 24h24V92c0-13.255-10.745-24-24-24z"/>
  <circle fill="url(#x)" cx="-1148" cy="92" r="8" transform="scale(-1 1)"/>
 </g>
</svg>
