<svg xmlns="http://www.w3.org/2000/svg" xmlns:xlink="http://www.w3.org/1999/xlink" width="128" height="128" version="1.0">
 <defs>
  <linearGradient id="linearGradient4008">
   <stop style="stop-color:rgb(255, 249, 232)" id="stop4010" offset="0"/>
   <stop style="stop-color:#a7cc5c" id="stop4012" offset="1"/>
  </linearGradient>
  <linearGradient id="linearGradient6591">
   <stop id="stop6593" offset="0" style="stop-color:rgb(255, 249, 232)"/>
   <stop id="stop6595" offset="1" style="stop-color:rgb(254, 209, 99);stop-opacity:0"/>
  </linearGradient>
  <radialGradient id="radialGradient6481" cx="182.121" cy="58.899" r="2.338" fx="182.121" fy="58.899" gradientTransform="matrix(5.5457,0,0,5.2229,-825.952,-246.098)" gradientUnits="userSpaceOnUse" xlink:href="#linearGradient6591"/>
  <linearGradient id="linearGradient6597">
   <stop style="stop-color:rgb(238, 238, 236);stop-opacity:0" id="stop6599" offset="0"/>
   <stop id="stop6605" offset=".528" style="stop-color:rgb(255, 255, 255)"/>
   <stop style="stop-color:rgb(238, 238, 236);stop-opacity:0" id="stop6601" offset="1"/>
  </linearGradient>
  <linearGradient id="linearGradient6479" x1="169.514" x2="180.917" y1="55.165" y2="57.767" gradientUnits="userSpaceOnUse" xlink:href="#linearGradient6597"/>
  <linearGradient id="linearGradient6808">
   <stop id="stop6810" offset="0" style="stop-color:#244206"/>
   <stop id="stop6812" offset="1" style="stop-color:rgb(0, 0, 0)"/>
  </linearGradient>
  <radialGradient id="radialGradient6477" cx="318.608" cy="170.593" r=".824" fx="318.608" fy="170.593" gradientTransform="matrix(0.947477,0.319825,-1.24836,3.69825,229.696,-561.607)" gradientUnits="userSpaceOnUse" xlink:href="#linearGradient6808"/>
  <radialGradient id="radialGradient6475" cx="177.556" cy="69.59" r="9.496" fx="177.556" fy="69.59" gradientTransform="matrix(1,0,0,0.654798,0,24.0225)" gradientUnits="userSpaceOnUse" xlink:href="#linearGradient6537"/>
  <linearGradient id="linearGradient6537">
   <stop style="stop-color:rgb(0, 0, 0)" id="stop6539" offset="0"/>
   <stop style="stop-color:rgb(0, 0, 0);stop-opacity:0" id="stop6541" offset="1"/>
  </linearGradient>
  <radialGradient id="radialGradient6473" cx="177.556" cy="69.59" r="9.496" fx="177.556" fy="69.59" gradientTransform="matrix(1,0,0,0.654798,0,24.0225)" gradientUnits="userSpaceOnUse" xlink:href="#linearGradient6537"/>
  <clipPath id="clipPath11530" clipPathUnits="userSpaceOnUse">
   <path style="fill:none;stroke:#000000;stroke-width:0.0875215;stroke-dashoffset:0pt" d="m 118.625,209.5 c 2.58333,-0.38773 5.16667,-0.51062 7.75,0.75 0,0 0.28209,5.48132 -1.625,5.625 -2.37827,0.17918 -6.125,-6.375 -6.125,-6.375 z"/>
  </clipPath>
  <radialGradient id="radialGradient5965" cx="175.625" cy="129.771" r="5.625" fx="175.625" fy="129.771" gradientTransform="matrix(1,0,0,2.64453,0,-212.81)" gradientUnits="userSpaceOnUse" xlink:href="#linearGradient12495"/>
  <radialGradient id="radialGradient5963" cx="172.5" cy="104.071" r="8.5" fx="172.5" fy="104.071" gradientTransform="matrix(0.529412,-2.51372e-7,4.60027e-7,0.7,81.1764,34.5)" gradientUnits="userSpaceOnUse" xlink:href="#linearGradient12477"/>
  <radialGradient id="radialGradient5961" cx="142.75" cy="172.867" r="16.25" fx="142.75" fy="172.867" gradientTransform="matrix(1,0,0,0.492308,0,89.6458)" gradientUnits="userSpaceOnUse" xlink:href="#linearGradient12297"/>
  <linearGradient id="linearGradient12495">
   <stop style="stop-color:rgb(97, 97, 97)" id="stop12497" offset="0"/>
   <stop style="stop-color:rgb(97, 97, 97);stop-opacity:0" id="stop12499" offset="1"/>
  </linearGradient>
  <radialGradient id="radialGradient5959" cx="175.625" cy="129.771" r="5.625" fx="175.625" fy="129.771" gradientTransform="matrix(1,0,0,2.64453,0,-212.81)" gradientUnits="userSpaceOnUse" xlink:href="#linearGradient12495"/>
  <linearGradient id="linearGradient12477">
   <stop style="stop-color:rgb(97, 97, 97)" id="stop12479" offset="0"/>
   <stop style="stop-color:rgb(0, 0, 0)" id="stop12481" offset="1"/>
  </linearGradient>
  <radialGradient id="radialGradient5957" cx="172.5" cy="104.071" r="8.5" fx="172.5" fy="104.071" gradientTransform="matrix(0.529412,-2.51372e-7,4.60027e-7,0.7,81.1764,34.5)" gradientUnits="userSpaceOnUse" xlink:href="#linearGradient12477"/>
  <linearGradient id="linearGradient12297">
   <stop style="stop-color:rgb(253, 252, 188)" id="stop12299" offset="0"/>
   <stop style="stop-color:rgb(253, 252, 188);stop-opacity:0" id="stop12301" offset="1"/>
  </linearGradient>
  <radialGradient id="radialGradient5955" cx="142.75" cy="172.867" r="16.25" fx="142.75" fy="172.867" gradientTransform="matrix(1,0,0,0.492308,0,89.6458)" gradientUnits="userSpaceOnUse" xlink:href="#linearGradient12297"/>
  <linearGradient id="linearGradient6499">
   <stop style="stop-color:rgb(255, 255, 255)" id="stop6501" offset="0"/>
   <stop style="stop-color:#a7cc5c" id="stop6503" offset="1"/>
  </linearGradient>
  <radialGradient id="radialGradient6505" cx="315.073" cy="169.69" r="8.626" fx="315.073" fy="169.69" gradientTransform="matrix(1.411,0,-5.12856e-5,1.52318,-129.589,-88.5081)" gradientUnits="userSpaceOnUse" xlink:href="#linearGradient6499"/>
  <linearGradient id="linearGradient6005">
   <stop style="stop-color:rgb(255, 255, 255)" id="stop6007" offset="0"/>
   <stop style="stop-color:rgb(255, 255, 255);stop-opacity:0" id="stop6009" offset="1"/>
  </linearGradient>
  <radialGradient id="radialGradient8581" cx="140.193" cy="273.697" r="81.986" fx="140.193" fy="273.697" gradientTransform="matrix(1,0,0,0.579653,0,80.5851)" gradientUnits="userSpaceOnUse" xlink:href="#linearGradient6005"/>
  <filter id="filter5832" width="1.875" height="1.875" x="-.44" y="-.44">
   <feGaussianBlur id="feGaussianBlur5834" stdDeviation=".798"/>
  </filter>
  <clipPath id="clipPath5690" clipPathUnits="userSpaceOnUse">
   <path style="fill:#e9b96e;stroke:url(#radialGradient5694) #000000;stroke-width:0.61879402;stroke-linecap:round;stroke-linejoin:round" d="m 3.6953125,-149.07617 c -6.9478172,1e-5 -13.8935855,1.37665 -20.3125005,4.02734 -6.418914,2.6507 -12.305988,6.57292 -17.21875,11.47071 -4.912761,4.89778 -8.847157,10.76681 -11.505859,17.16601 -2.658701,6.3992 -4.039154,13.3236 -4.039062,20.250001 -9.2e-5,6.926397 1.380361,13.850796 4.039062,20.25 2.658702,6.399203 6.593098,12.268225 11.505859,17.166015 4.912762,4.89779 10.799836,8.820009 17.21875,11.470703 6.418915,2.650695 13.3646832,4.027331 20.3125005,4.027344 6.9478175,-1.3e-5 13.8935855,-1.376649 20.3124995,-4.027344 6.418915,-2.650694 12.305989,-6.572913 17.21875,-11.470703 4.912762,-4.89779 8.847158,-10.766812 11.50586,-17.166015 2.658701,-6.399204 4.039154,-13.323603 4.039062,-20.25 9.2e-5,-6.926401 -1.380361,-13.850801 -4.039062,-20.250001 -2.658702,-6.3992 -6.593098,-12.26823 -11.50586,-17.16601 -4.912761,-4.89779 -10.799835,-8.82001 -17.21875,-11.47071 -6.418914,-2.65069 -13.364682,-4.02733 -20.3124995,-4.02734 z" transform="matrix(0.70852,0,0,0.709344,167.65977,64.733036)" xlink:href="#path6824"/>
  </clipPath>
  <radialGradient id="radialGradient2610" cx="315.073" cy="169.69" r="8.626" fx="315.073" fy="169.69" gradientTransform="matrix(1.411,0,-5.12856e-5,1.52318,-129.589,-88.5081)" gradientUnits="userSpaceOnUse" xlink:href="#linearGradient6499"/>
  <radialGradient id="radialGradient2615" cx="142.75" cy="172.867" r="16.25" fx="142.75" fy="172.867" gradientTransform="matrix(1,0,0,0.492308,0,89.6458)" gradientUnits="userSpaceOnUse" xlink:href="#linearGradient12297"/>
  <radialGradient id="radialGradient2617" cx="172.5" cy="104.071" r="8.5" fx="172.5" fy="104.071" gradientTransform="matrix(0.529412,-2.51372e-7,4.60027e-7,0.7,81.1764,34.5)" gradientUnits="userSpaceOnUse" xlink:href="#linearGradient12477"/>
  <radialGradient id="radialGradient2619" cx="175.625" cy="129.771" r="5.625" fx="175.625" fy="129.771" gradientTransform="matrix(1,0,0,2.64453,0,-212.81)" gradientUnits="userSpaceOnUse" xlink:href="#linearGradient12495"/>
  <radialGradient id="radialGradient2621" cx="142.75" cy="172.867" r="16.25" fx="142.75" fy="172.867" gradientTransform="matrix(1,0,0,0.492308,0,89.6458)" gradientUnits="userSpaceOnUse" xlink:href="#linearGradient12297"/>
  <radialGradient id="radialGradient2623" cx="172.5" cy="104.071" r="8.5" fx="172.5" fy="104.071" gradientTransform="matrix(0.529412,-2.51372e-7,4.60027e-7,0.7,81.1764,34.5)" gradientUnits="userSpaceOnUse" xlink:href="#linearGradient12477"/>
  <radialGradient id="radialGradient2625" cx="175.625" cy="129.771" r="5.625" fx="175.625" fy="129.771" gradientTransform="matrix(1,0,0,2.64453,0,-212.81)" gradientUnits="userSpaceOnUse" xlink:href="#linearGradient12495"/>
  <radialGradient id="radialGradient2650" cx="142.75" cy="172.867" r="16.25" fx="142.75" fy="172.867" gradientTransform="matrix(1,0,0,0.492308,0,89.6458)" gradientUnits="userSpaceOnUse" xlink:href="#linearGradient12297"/>
  <radialGradient id="radialGradient2652" cx="172.5" cy="104.071" r="8.5" fx="172.5" fy="104.071" gradientTransform="matrix(0.529412,-2.51372e-7,4.60027e-7,0.7,81.1764,34.5)" gradientUnits="userSpaceOnUse" xlink:href="#linearGradient12477"/>
  <radialGradient id="radialGradient2654" cx="175.625" cy="129.771" r="5.625" fx="175.625" fy="129.771" gradientTransform="matrix(1,0,0,2.64453,0,-212.81)" gradientUnits="userSpaceOnUse" xlink:href="#linearGradient12495"/>
  <radialGradient id="radialGradient2656" cx="142.75" cy="172.867" r="16.25" fx="142.75" fy="172.867" gradientTransform="matrix(1,0,0,0.492308,0,89.6458)" gradientUnits="userSpaceOnUse" xlink:href="#linearGradient12297"/>
  <radialGradient id="radialGradient2658" cx="172.5" cy="104.071" r="8.5" fx="172.5" fy="104.071" gradientTransform="matrix(0.529412,-2.51372e-7,4.60027e-7,0.7,81.1764,34.5)" gradientUnits="userSpaceOnUse" xlink:href="#linearGradient12477"/>
  <radialGradient id="radialGradient2660" cx="175.625" cy="129.771" r="5.625" fx="175.625" fy="129.771" gradientTransform="matrix(1,0,0,2.64453,0,-212.81)" gradientUnits="userSpaceOnUse" xlink:href="#linearGradient12495"/>
  <radialGradient id="radialGradient2776" cx="172.5" cy="104.071" r="8.5" fx="172.5" fy="104.071" gradientTransform="matrix(0.529412,-2.51372e-7,4.60027e-7,0.7,81.1764,34.5)" gradientUnits="userSpaceOnUse" xlink:href="#linearGradient12477"/>
  <radialGradient id="radialGradient2778" cx="175.625" cy="129.771" r="5.625" fx="175.625" fy="129.771" gradientTransform="matrix(1,0,0,2.64453,0,-212.81)" gradientUnits="userSpaceOnUse" xlink:href="#linearGradient12495"/>
  <radialGradient id="radialGradient2788" cx="172.5" cy="104.071" r="8.5" fx="172.5" fy="104.071" gradientTransform="matrix(0.529412,-2.51372e-7,4.60027e-7,0.7,81.1764,34.5)" gradientUnits="userSpaceOnUse" xlink:href="#linearGradient12477"/>
  <radialGradient id="radialGradient2790" cx="175.625" cy="129.771" r="5.625" fx="175.625" fy="129.771" gradientTransform="matrix(1,0,0,2.64453,0,-212.81)" gradientUnits="userSpaceOnUse" xlink:href="#linearGradient12495"/>
  <radialGradient id="radialGradient2798" cx="142.75" cy="172.867" r="16.25" fx="142.75" fy="172.867" gradientTransform="matrix(1,0,0,0.492308,0,89.6458)" gradientUnits="userSpaceOnUse" xlink:href="#linearGradient12297"/>
  <radialGradient id="radialGradient6490" cx="177.556" cy="69.59" r="9.496" fx="177.556" fy="69.59" gradientTransform="matrix(1,0,0,0.654798,0,24.0225)" gradientUnits="userSpaceOnUse" xlink:href="#linearGradient6537"/>
  <radialGradient id="radialGradient6492" cx="177.556" cy="69.59" r="9.496" fx="177.556" fy="69.59" gradientTransform="matrix(1,0,0,0.654798,0,24.0225)" gradientUnits="userSpaceOnUse" xlink:href="#linearGradient6537"/>
  <radialGradient id="radialGradient3998" cx="177.556" cy="69.59" r="9.496" fx="177.556" fy="69.59" gradientTransform="matrix(1,0,0,0.654798,0,24.0225)" gradientUnits="userSpaceOnUse" xlink:href="#linearGradient6537"/>
  <radialGradient id="radialGradient4000" cx="177.556" cy="69.59" r="9.496" fx="177.556" fy="69.59" gradientTransform="matrix(1,0,0,0.654798,0,24.0225)" gradientUnits="userSpaceOnUse" xlink:href="#linearGradient6537"/>
  <radialGradient id="radialGradient4002" cx="318.608" cy="170.593" r=".824" fx="318.608" fy="170.593" gradientTransform="matrix(0.9215132,0.2781314,-1.3177176,3.5229476,249.73513,-518.24733)" gradientUnits="userSpaceOnUse" xlink:href="#linearGradient6808"/>
  <clipPath id="clipPath11530-6" clipPathUnits="userSpaceOnUse">
   <path style="fill:none;stroke:#000000;stroke-width:0.0875215;stroke-dashoffset:0pt" d="m 118.625,209.5 c 2.58333,-0.38773 5.16667,-0.51062 7.75,0.75 0,0 0.28209,5.48132 -1.625,5.625 -2.37827,0.17918 -6.125,-6.375 -6.125,-6.375 z"/>
  </clipPath>
  <clipPath id="clipPath1664" clipPathUnits="userSpaceOnUse">
   <path style="fill:none;stroke:#000000;stroke-width:0.0875215;stroke-dashoffset:0pt" d="m 118.625,209.5 c 2.58333,-0.38773 5.16667,-0.51062 7.75,0.75 0,0 0.28209,5.48132 -1.625,5.625 -2.37827,0.17918 -6.125,-6.375 -6.125,-6.375 z"/>
  </clipPath>
 </defs>
 <g id="layer1" transform="translate(0,80)">
  <circle cx="314.5" cy="175.375" r="2.188" clip-path="url(#clipPath5690)" transform="matrix(3.2,0,0,3.2,-1000.6119,-544.6217)" style="fill:#f7ff83;filter:url(#filter5832)"/>
  <g transform="translate(82,-32.00001)">
   <path style="opacity:0.2;fill:#2a2105" d="M 42.00001,16.000003 A 59.999999,59.999999 0 0 1 -17.999989,76.00001 59.999999,59.999999 0 0 1 -78,16.000003 59.999999,59.999999 0 0 1 -17.999989,-43.999993 59.999999,59.999999 0 0 1 42.00001,16.000003 Z"/>
   <rect width="112" height="114" x="-74" y="-42" rx="56" ry="56" style="fill:#d5d3cf"/>
   <path d="M 42.00001,14.000005 A 59.999999,59.999999 0 0 1 -17.999989,74 59.999999,59.999999 0 0 1 -78,14.000005 59.999999,59.999999 0 0 1 -17.999989,-46 59.999999,59.999999 0 0 1 42.00001,14.000005 Z" style="fill:#789e2d"/>
   <g transform="translate(0.59318944,10)">
    <g transform="matrix(2.5949351,0,0,2.5869881,-82.982769,-50.650847)">
     <g transform="matrix(-6.3250506,5.4648949,5.4648949,6.3250506,1037.8937,-2858.9753)">
      <g transform="matrix(-0.820668,0.571405,0.571405,0.820668,471.332,-148.098)">
       <path style="fill:#a4ac9b" d="m 313.21176,183.47929 c 0.22609,-0.0339 0.45219,-0.0447 0.67829,0.0657 0,0 0.0247,0.47973 -0.14223,0.4923 -0.20815,0.0157 -0.53606,-0.55795 -0.53606,-0.55795 z"/>
       <path d="m 116.94751,209.87561 c 2.58333,-0.38773 6.84416,-0.88623 9.42749,0.37439 0,0 0.28209,5.48132 -1.625,5.625 -2.37827,0.17918 -7.80249,-5.99939 -7.80249,-5.99939 z" clip-path="url(#clipPath11530-6)" transform="matrix(0.0875215,0,0,0.0875215,302.82958,165.14354)" style="opacity:0.6;fill:#ffffff"/>
      </g>
     </g>
     <g transform="matrix(6.2400607,5.0819736,-5.0819736,6.2400607,-1030.7704,-2721.3999)">
      <g transform="matrix(-0.820668,0.571405,0.571405,0.820668,471.332,-148.098)">
       <path d="m 313.2277,183.48724 c 0.22609,-0.0339 0.45219,-0.0447 0.67829,0.0656 0,0 0.0247,0.47973 -0.14223,0.4923 -0.20815,0.0157 -0.53606,-0.55795 -0.53606,-0.55795 z" style="fill:#a4ac9b"/>
       <path style="opacity:0.6;fill:#ffffff" d="m 118.625,209.5 c 2.58333,-0.38773 5.16667,-0.51062 7.75,0.75 0,0 0.28209,5.48132 -1.625,5.625 -2.37827,0.17918 -6.125,-6.375 -6.125,-6.375 z" clip-path="url(#clipPath11530-6)" transform="matrix(0.0875215,0,0,0.0875215,302.84552,165.15149)"/>
      </g>
     </g>
    </g>
    <path d="M -64.652959,33.108277 H 27.466603" style="fill:none;stroke:#000000;stroke-width:1.00049961"/>
    <g transform="matrix(2.5949351,0,0,2.5869881,-49.758339,-17.782389)">
     <g id="use12709" transform="matrix(0.300126,0,0,0.1287939,-28.672113,-2.6773104)">
      <ellipse cx="172.5" cy="115" rx="8.5" ry="17" transform="matrix(0.9799806,0,0,1.1418151,4.7533844,-19.895539)"/>
     </g>
     <circle style="fill:#eeeeec" cx="326.531" cy="57.594" r=".406" transform="matrix(1.1401677,0,0,1.1291879,-348.81058,-54.748133)"/>
    </g>
    <g transform="matrix(2.5949351,0,0,2.5869881,-112.05851,-17.782389)">
     <g transform="matrix(0.300126,0,0,0.1287939,-28.672113,-2.6773104)">
      <ellipse cx="172.5" cy="115" rx="8.5" ry="17" transform="matrix(0.9799806,0,0,1.1418151,8.1132233,-19.895539)"/>
     </g>
     <circle style="fill:#eeeeec" cx="326.531" cy="57.594" r=".406" transform="matrix(1.1401677,0,0,1.1291879,-347.80221,-54.748133)"/>
    </g>
   </g>
  </g>
  <g transform="matrix(-8.8319972,4.4324355,4.4684375,8.7608379,2069.76,-2959.4313)">
   <g transform="translate(-0.038229,-0.1623)">
    <ellipse cx="177.556" cy="69.59" rx="9.496" ry="6.218" transform="matrix(0.08349323,0.02755453,-0.03453944,0.08152897,305.81145,160.84909)" style="fill:url(#radialGradient3998)"/>
    <ellipse style="opacity:0.60395998;fill:url(#radialGradient4000)" cx="177.556" cy="69.59" rx="9.496" ry="6.218" transform="matrix(0.1027214,0.03699095,-0.04281278,0.1085284,303.09392,157.37857)"/>
   </g>
   <path d="m 317.56868,170.64923 c -0.50716,0.60775 0.94601,1.4143 1.34518,0.64672 0.44663,-0.85884 -0.0474,-2.02942 -0.56597,-2.54579 -0.11396,-0.11371 -0.36282,0.013 -0.33031,0.15591 0.1368,0.60141 -0.11676,1.34518 -0.4489,1.74316 z" style="fill:#060606"/>
  </g>
  <g transform="matrix(8.8915166,3.6602895,-3.6900199,8.8198778,-2095.3334,-2722.6255)">
   <g transform="translate(-0.038229,-0.1623)">
    <ellipse style="fill:url(#radialGradient6490)" cx="177.556" cy="69.59" rx="9.496" ry="6.218" transform="matrix(0.08207133,0.03209209,-0.03002257,0.08300587,305.57563,159.7882)"/>
    <ellipse cx="177.556" cy="69.59" rx="9.496" ry="6.218" transform="matrix(0.1048998,0.04088923,-0.0408339,0.1120144,302.4214,156.37649)" style="opacity:0.60395998;fill:url(#radialGradient6492)"/>
   </g>
   <path style="fill:#060606" d="m 317.45948,170.57723 c -0.5499,0.62574 0.98217,1.41858 1.41991,0.63253 0.48978,-0.87949 -0.0158,-2.05871 -0.55861,-2.5736 -0.11928,-0.11337 -0.38617,0.0197 -0.35403,0.16407 0.13528,0.60793 -0.14716,1.36724 -0.50727,1.777 z"/>
  </g>
 </g>
</svg>
