<?xml version="1.0" encoding="UTF-8" standalone="no"?>
<svg
   xmlns:dc="http://purl.org/dc/elements/1.1/"
   xmlns:cc="http://creativecommons.org/ns#"
   xmlns:rdf="http://www.w3.org/1999/02/22-rdf-syntax-ns#"
   xmlns:svg="http://www.w3.org/2000/svg"
   xmlns="http://www.w3.org/2000/svg"
   xmlns:xlink="http://www.w3.org/1999/xlink"
   xmlns:sodipodi="http://sodipodi.sourceforge.net/DTD/sodipodi-0.dtd"
   xmlns:inkscape="http://www.inkscape.org/namespaces/inkscape"
   width="128"
   height="128"
   version="1.0"
   id="svg75"
   sodipodi:docname="logo_96.svg"
   inkscape:version="0.92.3 (2405546, 2018-03-11)">
  <metadata
     id="metadata79">
    <rdf:RDF>
      <cc:Work
         rdf:about="">
        <dc:format>image/svg+xml</dc:format>
        <dc:type
           rdf:resource="http://purl.org/dc/dcmitype/StillImage" />
        <dc:title></dc:title>
      </cc:Work>
    </rdf:RDF>
  </metadata>
  <sodipodi:namedview
     pagecolor="#ffffff"
     bordercolor="#666666"
     borderopacity="1"
     objecttolerance="10"
     gridtolerance="10"
     guidetolerance="10"
     inkscape:pageopacity="0"
     inkscape:pageshadow="2"
     inkscape:window-width="1800"
     inkscape:window-height="986"
     id="namedview77"
     showgrid="false"
     inkscape:zoom="6.34375"
     inkscape:cx="56.928537"
     inkscape:cy="72.102913"
     inkscape:window-x="0"
     inkscape:window-y="34"
     inkscape:window-maximized="0"
     inkscape:current-layer="deepin-editor" />
  <defs
     id="defs24">
    <linearGradient
       id="a">
      <stop
         offset="0"
         stop-color="#68676b"
         id="stop2" />
      <stop
         offset=".8"
         stop-color="#424048"
         id="stop4" />
      <stop
         offset="1"
         stop-color="#241f31"
         id="stop6" />
    </linearGradient>
    <radialGradient
       xlink:href="#a"
       id="d"
       gradientUnits="userSpaceOnUse"
       gradientTransform="matrix(1.34416 .0006 -.00062 1.38763 -121.22 -718.103)"
       cx="279.422"
       cy="446.483"
       fx="279.422"
       fy="446.483"
       r="224" />
    <linearGradient
       xlink:href="#b"
       id="e"
       gradientUnits="userSpaceOnUse"
       gradientTransform="matrix(1.0015 0 0 .99993 72.09 56.015)"
       x1="43.844"
       y1="234"
       x2="-60"
       y2="234" />
    <linearGradient
       id="b">
      <stop
         offset="0"
         stop-color="#d5d3cf"
         id="stop11" />
      <stop
         offset=".038"
         stop-color="#e3e2df"
         id="stop13" />
      <stop
         offset=".077"
         stop-color="#c0bfbc"
         id="stop15" />
      <stop
         offset=".923"
         stop-color="#c0bfbc"
         id="stop17" />
      <stop
         offset=".962"
         stop-color="#e3e2df"
         id="stop19" />
      <stop
         offset="1"
         stop-color="#d5d3cf"
         id="stop21" />
    </linearGradient>
    <linearGradient
       id="linearGradient3919"
       x1="42"
       x2="54"
       y1="49"
       y2="49"
       gradientTransform="matrix(0.68426737,0,0,0.68426737,-51.579387,227.56429)"
       gradientUnits="userSpaceOnUse">
      <stop
         style="stop-color:#464646"
         offset="0"
         id="stop25" />
      <stop
         style="stop-color:#464646;stop-opacity:0"
         offset="1"
         id="stop27" />
    </linearGradient>
    <linearGradient
       id="linearGradient3831-3"
       x1="15"
       x2="15"
       y1="48"
       y2="8"
       gradientTransform="matrix(0.74912138,0,0,0.74912138,2.9232156,224.77708)"
       gradientUnits="userSpaceOnUse"
       spreadMethod="reflect"
       xlink:href="#linearGradient3825" />
    <linearGradient
       id="linearGradient3825">
      <stop
         style="stop-color:#000000"
         offset="0"
         id="stop30" />
      <stop
         style="stop-color:#000000"
         offset=".6"
         id="stop32" />
      <stop
         style="stop-color:#000000;stop-opacity:0"
         offset="1"
         id="stop34" />
    </linearGradient>
    <linearGradient
       id="linearGradient3862-3"
       x1="15"
       x2="15"
       y1="48"
       y2="8"
       gradientTransform="matrix(0,0.74912138,-0.74912138,0,72.966065,227.02444)"
       gradientUnits="userSpaceOnUse"
       spreadMethod="reflect"
       xlink:href="#linearGradient3825" />
    <linearGradient
       id="linearGradient3831-3-6"
       x1="15"
       x2="15"
       y1="48"
       y2="8"
       gradientTransform="matrix(0.7491214,0,0,0.7491214,-61.700945,221.92589)"
       gradientUnits="userSpaceOnUse"
       spreadMethod="reflect"
       xlink:href="#linearGradient3825" />
    <linearGradient
       id="linearGradient3862-3-5"
       x1="15"
       x2="15"
       y1="48"
       y2="8"
       gradientTransform="matrix(0,0.7491214,-0.7491214,0,8.3419061,224.17325)"
       gradientUnits="userSpaceOnUse"
       spreadMethod="reflect"
       xlink:href="#linearGradient3825" />
    <linearGradient
       id="linearGradient4009">
      <stop
         style="stop-color:#f57900;stop-opacity:1;"
         offset="0"
         id="stop4011" />
      <stop
         style="stop-color:#ffc286;stop-opacity:1;"
         offset="1"
         id="stop4013" />
    </linearGradient>
    <linearGradient
       id="linearGradient3928">
      <stop
         style="stop-color:#61635f;stop-opacity:1;"
         offset="0"
         id="stop3930" />
      <stop
         style="stop-color:#999b96;stop-opacity:1;"
         offset="1"
         id="stop3932" />
    </linearGradient>
    <linearGradient
       id="linearGradient3697">
      <stop
         style="stop-color:#73d216;stop-opacity:1;"
         offset="0"
         id="stop3699" />
      <stop
         style="stop-color:#adf06b;stop-opacity:1;"
         offset="1"
         id="stop3701" />
    </linearGradient>
    <linearGradient
       gradientUnits="userSpaceOnUse"
       gradientTransform="matrix(0.95118973,0,0,1.051315,-3.4679803,18.916256)"
       x1="46.898866"
       y1="5.7071384"
       x2="73.161085"
       y2="84.291761"
       id="linearGradient-1">
      <stop
         stop-color="#2EA3D5"
         offset="0%"
         id="stop6-3" />
      <stop
         stop-color="#6FAAF2"
         offset="100%"
         id="stop8" />
    </linearGradient>
    <linearGradient
       gradientUnits="userSpaceOnUse"
       gradientTransform="matrix(1.1489604,0,0,1.2334921,151.91181,-20.600985)"
       x1="49.734402"
       y1="22.197914"
       x2="49.734402"
       y2="74.004583"
       id="linearGradient-2">
      <stop
         stop-color="#3FA5DD"
         offset="0%"
         id="stop11-6" />
      <stop
         stop-color="#61A9EC"
         offset="100%"
         id="stop13-7" />
    </linearGradient>
  </defs>
  <g
     transform="translate(0 -172)"
     id="g73">
    <rect
       ry="8"
       rx="8"
       height="48"
       width="104"
       x="12"
       y="240"
       fill="url(#e)"
       id="rect33" />
    <path
       style="fill:#56a7e7;fill-opacity:1"
       d="M 20 10 C 15.568 10 12 13.568 12 18 L 12 60 L 12 102 C 12 106.432 15.568 110 20 110 L 64 110 L 108 110 C 112.432 110 116 106.432 116 102 L 116 60 L 116 18 C 116 13.568 112.432 10 108 10 L 20 10 z "
       transform="translate(0,172)"
       id="path37" />
    <g
       transform="translate(-94.502467,179.37931)"
       style="fill:none;fill-rule:evenodd;stroke:none;stroke-width:1"
       id="Page-1">
      <g
         id="deepin-editor">
        <path
           style="fill:#ffffff;fill-opacity:0.3;stroke-width:1"
           inkscape:connector-curvature="0"
           d="m 127.02839,94.287359 v -5.952381 h -7.14285 v -1.190476 h 7.14285 V 81.19212 h -7.14285 v -1.190476 h 7.14285 v -5.95238 h -7.14285 v -1.190478 h 7.14285 v -5.95238 h -7.14285 v -1.190477 h 7.14285 v -5.952381 h -7.14285 v -1.190475 h 7.14285 v -5.952381 h -7.14285 v -1.190477 h 7.14285 v -5.952381 h -7.14285 v -1.190476 h 7.14285 v -5.952382 h -7.14285 V 37.1445 h 7.14285 v -5.952381 h -7.14285 v -1.190476 h 7.14285 v -5.952381 h -7.14285 v -1.190476 h 7.14285 v -5.952381 h -7.14285 v -1.190477 h 7.14285 V 9.7635474 h -7.14285 V 8.5730711 h 7.14285 v -5.952381 h 1.19048 v 5.952381 h 65.4762 v 1.1904763 h -65.4762 v 5.9523806 h 65.4762 v 1.190477 h -65.4762 v 5.952381 h 65.4762 v 1.190476 h -65.4762 v 5.952381 h 65.4762 v 1.190476 h -65.4762 V 37.1445 h 65.4762 v 1.190476 h -65.4762 v 5.952382 h 65.4762 v 1.190476 h -65.4762 v 5.952381 h 65.4762 v 1.190477 h -65.4762 v 5.952381 h 65.4762 v 1.190475 h -65.4762 v 5.952381 h 65.4762 v 1.190477 h -65.4762 v 5.95238 h 65.4762 v 1.190478 h -65.4762 v 5.95238 h 65.4762 v 1.190476 h -65.4762 v 5.952382 h 65.4762 v 1.190476 h -65.4762 v 5.952381 h 65.4762 v 1.190475 h -65.4762 v 7.142856 h -1.19048 v -7.142856 h -7.14285 v -1.190475 z"
           id="path23" />
        <path
           style="fill:#ffffff;stroke-width:1"
           inkscape:connector-curvature="0"
           d="m 184.17125,72.671604 c 0,2.734371 -0.56757,4.915804 -1.70269,6.544364 -1.13512,1.628559 -2.87764,2.684092 -5.22756,3.166629 v -2.95552 c 0.95591,-0.522748 1.53342,-1.306859 1.73257,-2.352353 H 177.241 v -8.082441 h 6.93025 z m -9.26024,0 c 0,2.734371 -0.56755,4.915804 -1.70269,6.544364 -1.13513,1.628559 -2.87763,2.684092 -5.22755,3.166629 v -2.95552 c 0.59744,-0.321691 1.01564,-0.643377 1.25461,-0.965067 0.23898,-0.321692 0.39828,-0.784114 0.47795,-1.387286 h -1.73256 v -8.082441 h 6.93024 z m -43.1207,-38.8345 v -7.40689 H 145.8156 V 42.70109 h -3.50634 c 0.40304,2.104699 1.5718,3.683202 3.50634,4.735552 v 5.949798 c -4.75575,-0.9714 -8.28219,-3.096306 -10.57943,-6.374782 -2.29726,-3.278478 -3.44586,-7.66995 -3.44586,-13.174554 z m 18.74068,0 v -7.40689 h 14.0253 V 42.70109 h -3.50632 c 0.16122,1.21425 0.48362,2.145161 0.96726,2.792762 0.48362,0.647599 1.32997,1.29519 2.53906,1.94279 v 5.949798 c -4.75574,-0.9714 -8.28218,-3.096306 -10.57943,-6.374782 -2.29726,-3.278478 -3.44587,-7.66995 -3.44587,-13.174554 z"
           id="path27" />
      </g>
    </g>
  </g>
</svg>
