<svg xmlns="http://www.w3.org/2000/svg" xmlns:xlink="http://www.w3.org/1999/xlink" style="enable-background:new" width="128" height="128" version="1.0" viewBox="0 0 128 128">
 <title id="title4162">
  Adwaita Icon Template
 </title>
 <defs>
  <linearGradient id="linearGradient950">
   <stop style="stop-color:#9a9996" id="stop946" offset="0"/>
   <stop style="stop-color:#77767b" id="stop948" offset="1"/>
  </linearGradient>
  <linearGradient id="linearGradient1001" x1="1660.857" x2="1662.99" y1="806.297" y2="812.882" gradientTransform="matrix(1.8293937,-0.81599442,0.81599442,1.8293937,-3645.9624,100.02949)" gradientUnits="userSpaceOnUse" xlink:href="#linearGradient950"/>
 </defs>
 <path d="M 65.000004,13 C 36.192005,13 13,36.192 13,65 13,93.808001 36.192005,117 65.000004,117 93.808003,117 117,93.808001 117,65 117,36.192 93.808003,13 65.000004,13 Z m 0,29.714286 A 22.285716,22.285714 0 0 1 87.285717,65 22.285716,22.285714 0 0 1 65.000004,87.285715 22.285716,22.285714 0 0 1 42.714289,65 22.285716,22.285714 0 0 1 65.000004,42.714286 Z" style="opacity:0.2"/>
 <path style="fill:#939393" d="M 65.000004,35.142858 A 27.857144,27.857142 0 0 0 37.142858,63 27.857144,27.857142 0 0 0 65.000004,90.857144 27.857144,27.857142 0 0 0 92.857146,63 27.857144,27.857142 0 0 0 65.000004,35.142858 Z m 0,16.714285 c 6.154201,0 11.142854,4.988658 11.142854,11.142857 0,6.1542 -4.988653,11.142858 -11.142854,11.142858 -6.154201,0 -11.142859,-4.988658 -11.142859,-11.142858 0,-6.154199 4.988658,-11.142857 11.142859,-11.142857 z"/>
 <path style="fill:#e4e4e4" d="M 65.000004,11 C 36.192005,11 13,34.192 13,63 13,91.808001 36.192005,115 65.000004,115 93.808003,115 117,91.808001 117,63 117,34.192 93.808003,11 65.000004,11 Z m 0,29.714286 A 22.285716,22.285714 0 0 1 87.285717,63 22.285716,22.285714 0 0 1 65.000004,85.285715 22.285716,22.285714 0 0 1 42.714289,63 22.285716,22.285714 0 0 1 65.000004,40.714286 Z"/>
 <g transform="matrix(0.8751831,0,0,0.8518149,9.6053492,10.129209)" style="line-height:0%;font-family:'le mans';opacity:0.2">
  <path d="m 5.9812065,99.56221 v 13.08591 h 1.9822791 q 3.3899844,0 5.1711624,-1.68062 1.795543,-1.68063 1.795543,-4.88388 0,-3.18888 -1.781178,-4.85515 -1.781179,-1.66626 -5.1855274,-1.66626 z M 0.45093509,95.382186 H 6.2828576 q 4.8838764,0 7.2683564,0.703853 2.398845,0.689488 4.108202,2.355752 1.508256,1.450799 2.240837,3.346889 0.732582,1.8961 0.732582,4.29494 0,2.42757 -0.732582,4.33803 -0.732581,1.89609 -2.240837,3.34689 -1.723721,1.66627 -4.13693,2.37012 -2.41321,0.68949 -7.2396284,0.68949 H 0.45093509 Z"/>
  <path d="m 40.699819,108.74102 v 1.46517 H 28.676866 q 0.186736,1.8099 1.307155,2.71486 1.120418,0.90495 3.131426,0.90495 1.623171,0 3.318163,-0.47402 1.709357,-0.48839 3.504899,-1.46517 v 3.96456 q -1.824271,0.68949 -3.648542,1.03424 -1.824272,0.3591 -3.648543,0.3591 -4.36676,0 -6.794334,-2.2121 -2.413209,-2.22648 -2.413209,-6.23413 0,-3.93583 2.370116,-6.19103 2.384481,-2.2552 6.55014,-2.2552 3.792186,0 6.061752,2.28393 2.28393,2.28393 2.28393,6.10484 z m -5.286077,-1.70935 q 0,-1.46517 -0.861861,-2.35575 -0.847496,-0.90496 -2.226473,-0.90496 -1.493891,0 -2.427573,0.8475 -0.933682,0.83313 -1.163512,2.41321 z"/>
  <path d="m 42.251169,95.382186 h 5.559 l 5.688279,15.829504 5.673915,-15.829504 h 5.559 l -7.943481,21.445964 h -6.593233 z"/>
  <path d="m 81.781835,108.74102 v 1.46517 H 69.758882 q 0.186736,1.8099 1.307155,2.71486 1.120418,0.90495 3.131426,0.90495 1.623171,0 3.318163,-0.47402 1.709357,-0.48839 3.504899,-1.46517 v 3.96456 q -1.824271,0.68949 -3.648542,1.03424 -1.824272,0.3591 -3.648543,0.3591 -4.36676,0 -6.794334,-2.2121 -2.413209,-2.22648 -2.413209,-6.23413 0,-3.93583 2.370116,-6.19103 2.384481,-2.2552 6.55014,-2.2552 3.792186,0 6.061752,2.28393 2.28393,2.28393 2.28393,6.10484 z m -5.286077,-1.70935 q 0,-1.46517 -0.861861,-2.35575 -0.847496,-0.90496 -2.226473,-0.90496 -1.493891,0 -2.427573,0.8475 -0.933682,0.83313 -1.163512,2.41321 z"/>
  <path d="m 91.420309,99.56221 v 13.08591 h 1.982279 q 3.389984,0 5.171163,-1.68062 1.795539,-1.68063 1.795539,-4.88388 0,-3.18888 -1.781175,-4.85515 -1.781178,-1.66626 -5.185527,-1.66626 z m -5.530272,-4.180024 h 5.831923 q 4.883876,0 7.268357,0.703853 2.398843,0.689488 4.108203,2.355752 1.50825,1.450799 2.24084,3.346889 0.73258,1.8961 0.73258,4.29494 0,2.42757 -0.73258,4.33803 -0.73259,1.89609 -2.24084,3.34689 -1.72372,1.66627 -4.136932,2.37012 -2.41321,0.68949 -7.239628,0.68949 h -5.831923 z"/>
  <path d="m 126.13892,108.74102 v 1.46517 h -12.02295 q 0.18673,1.8099 1.30715,2.71486 1.12042,0.90495 3.13143,0.90495 1.62317,0 3.31816,-0.47402 1.70936,-0.48839 3.5049,-1.46517 v 3.96456 q -1.82427,0.68949 -3.64854,1.03424 -1.82427,0.3591 -3.64854,0.3591 -4.36676,0 -6.79434,-2.2121 -2.41321,-2.22648 -2.41321,-6.23413 0,-3.93583 2.37012,-6.19103 2.38448,-2.2552 6.55014,-2.2552 3.79219,0 6.06175,2.28393 2.28393,2.28393 2.28393,6.10484 z m -5.28608,-1.70935 q 0,-1.46517 -0.86186,-2.35575 -0.84749,-0.90496 -2.22647,-0.90496 -1.49389,0 -2.42757,0.8475 -0.93369,0.83313 -1.16351,2.41321 z"/>
 </g>
 <g style="line-height:0%;font-family:'le mans';fill:#26a269" id="text2337" transform="matrix(0.8751831,0,0,0.8518149,9.6053492,8.1292091)">
  <path style="fill:#26a269" d="m 5.9812065,99.56221 v 13.08591 h 1.9822791 q 3.3899844,0 5.1711624,-1.68062 1.795543,-1.68063 1.795543,-4.88388 0,-3.18888 -1.781178,-4.85515 -1.781179,-1.66626 -5.1855274,-1.66626 z M 0.45093509,95.382186 H 6.2828576 q 4.8838764,0 7.2683564,0.703853 2.398845,0.689488 4.108202,2.355752 1.508256,1.450799 2.240837,3.346889 0.732582,1.8961 0.732582,4.29494 0,2.42757 -0.732582,4.33803 -0.732581,1.89609 -2.240837,3.34689 -1.723721,1.66627 -4.13693,2.37012 -2.41321,0.68949 -7.2396284,0.68949 H 0.45093509 Z"/>
  <path style="fill:#26a269" d="m 40.699819,108.74102 v 1.46517 H 28.676866 q 0.186736,1.8099 1.307155,2.71486 1.120418,0.90495 3.131426,0.90495 1.623171,0 3.318163,-0.47402 1.709357,-0.48839 3.504899,-1.46517 v 3.96456 q -1.824271,0.68949 -3.648542,1.03424 -1.824272,0.3591 -3.648543,0.3591 -4.36676,0 -6.794334,-2.2121 -2.413209,-2.22648 -2.413209,-6.23413 0,-3.93583 2.370116,-6.19103 2.384481,-2.2552 6.55014,-2.2552 3.792186,0 6.061752,2.28393 2.28393,2.28393 2.28393,6.10484 z m -5.286077,-1.70935 q 0,-1.46517 -0.861861,-2.35575 -0.847496,-0.90496 -2.226473,-0.90496 -1.493891,0 -2.427573,0.8475 -0.933682,0.83313 -1.163512,2.41321 z"/>
  <path style="fill:#26a269" d="m 42.251169,95.382186 h 5.559 l 5.688279,15.829504 5.673915,-15.829504 h 5.559 l -7.943481,21.445964 h -6.593233 z"/>
  <path style="fill:#26a269" d="m 81.781835,108.74102 v 1.46517 H 69.758882 q 0.186736,1.8099 1.307155,2.71486 1.120418,0.90495 3.131426,0.90495 1.623171,0 3.318163,-0.47402 1.709357,-0.48839 3.504899,-1.46517 v 3.96456 q -1.824271,0.68949 -3.648542,1.03424 -1.824272,0.3591 -3.648543,0.3591 -4.36676,0 -6.794334,-2.2121 -2.413209,-2.22648 -2.413209,-6.23413 0,-3.93583 2.370116,-6.19103 2.384481,-2.2552 6.55014,-2.2552 3.792186,0 6.061752,2.28393 2.28393,2.28393 2.28393,6.10484 z m -5.286077,-1.70935 q 0,-1.46517 -0.861861,-2.35575 -0.847496,-0.90496 -2.226473,-0.90496 -1.493891,0 -2.427573,0.8475 -0.933682,0.83313 -1.163512,2.41321 z"/>
  <path style="fill:#26a269" d="m 91.420309,99.56221 v 13.08591 h 1.982279 q 3.389984,0 5.171163,-1.68062 1.795539,-1.68063 1.795539,-4.88388 0,-3.18888 -1.781175,-4.85515 -1.781178,-1.66626 -5.185527,-1.66626 z m -5.530272,-4.180024 h 5.831923 q 4.883876,0 7.268357,0.703853 2.398843,0.689488 4.108203,2.355752 1.50825,1.450799 2.24084,3.346889 0.73258,1.8961 0.73258,4.29494 0,2.42757 -0.73258,4.33803 -0.73259,1.89609 -2.24084,3.34689 -1.72372,1.66627 -4.136932,2.37012 -2.41321,0.68949 -7.239628,0.68949 h -5.831923 z"/>
  <path style="fill:#26a269" d="m 126.13892,108.74102 v 1.46517 h -12.02295 q 0.18673,1.8099 1.30715,2.71486 1.12042,0.90495 3.13143,0.90495 1.62317,0 3.31816,-0.47402 1.70936,-0.48839 3.5049,-1.46517 v 3.96456 q -1.82427,0.68949 -3.64854,1.03424 -1.82427,0.3591 -3.64854,0.3591 -4.36676,0 -6.79434,-2.2121 -2.41321,-2.22648 -2.41321,-6.23413 0,-3.93583 2.37012,-6.19103 2.38448,-2.2552 6.55014,-2.2552 3.79219,0 6.06175,2.28393 2.28393,2.28393 2.28393,6.10484 z m -5.28608,-1.70935 q 0,-1.46517 -0.86186,-2.35575 -0.84749,-0.90496 -2.22647,-0.90496 -1.49389,0 -2.42757,0.8475 -0.93369,0.83313 -1.16351,2.41321 z"/>
 </g>
</svg>
