<svg xmlns="http://www.w3.org/2000/svg" xmlns:xlink="http://www.w3.org/1999/xlink" width="128" height="128" version="1.0" viewBox="0 0 128 128" style="enable-background:new">
 <title id="title4162">
  Adwaita Icon Template
 </title>
 <defs>
  <linearGradient id="linearGradient1099" x1="32" x2="96" y1="236" y2="236" gradientTransform="translate(604.81684,170.58641)" gradientUnits="userSpaceOnUse" xlink:href="#linearGradient1036"/>
  <linearGradient id="linearGradient1036">
   <stop id="stop1032" offset="0" style="stop-color:#d5d3cf"/>
   <stop id="stop1034" offset="1" style="stop-color:#f6f5f4"/>
  </linearGradient>
  <radialGradient id="radialGradient1103" cx="-244" cy="-76" r="32" fx="-244" fy="-76" gradientTransform="matrix(0.88333331,0,0,0.88333331,-460.35018,463.11973)" gradientUnits="userSpaceOnUse" xlink:href="#linearGradient1069"/>
  <linearGradient id="linearGradient1069">
   <stop id="stop1065" offset="0" style="stop-color:#d5d3cf"/>
   <stop id="stop1067-1" offset="1" style="stop-color:#949390"/>
  </linearGradient>
  <linearGradient id="linearGradient1027" x1="64" x2="64" y1="262.5" y2="232" gradientTransform="translate(-470.5864,432.81685)" gradientUnits="userSpaceOnUse" xlink:href="#linearGradient1025"/>
  <linearGradient id="linearGradient1025">
   <stop id="stop1021" offset="0" style="stop-color:#9a9996"/>
   <stop id="stop1023" offset="1" style="stop-color:#77767b"/>
  </linearGradient>
  <linearGradient id="linearGradient1076">
   <stop style="stop-color:#d5d3cf" id="stop1064" offset="0"/>
   <stop id="stop1066" offset=".036" style="stop-color:#e4e1de"/>
   <stop style="stop-color:#d5d3cf" id="stop1068" offset=".071"/>
   <stop id="stop1070" offset=".929" style="stop-color:#d5d3cf"/>
   <stop style="stop-color:#e4e1de" id="stop1072" offset=".964"/>
   <stop style="stop-color:#d5d3cf" id="stop1074" offset="1"/>
  </linearGradient>
  <linearGradient id="linearGradient1020">
   <stop style="stop-color:#ffffff" id="stop1016" offset="0"/>
   <stop style="stop-color:#ffffff;stop-opacity:0.09411765" id="stop1018" offset="1"/>
  </linearGradient>
  <radialGradient id="radialGradient1030-8" cx="64" cy="194.19" r="44" fx="64" fy="194.19" gradientTransform="matrix(-4.7272726,1.2901346e-6,-3.0301491e-7,-1.4318182,490.54548,36.71204)" gradientUnits="userSpaceOnUse" xlink:href="#linearGradient1020"/>
  <linearGradient id="linearGradient1444-2-3-3" x1="120" x2="568" y1="619.964" y2="619.964" gradientTransform="matrix(0.25,0,0,0.25,105.99999,91.009027)" gradientUnits="userSpaceOnUse" xlink:href="#linearGradient1076"/>
  <radialGradient id="radialGradient2561" cx="131.915" cy="55.927" r="160" fx="131.915" fy="55.927" gradientTransform="matrix(0.27422239,-0.65633356,-0.43584762,-0.03616942,-6.5808805,152.00005)" gradientUnits="userSpaceOnUse" xlink:href="#linearGradient1722"/>
  <linearGradient id="linearGradient1722">
   <stop style="stop-color:#e01b24" id="stop1718" offset="0"/>
   <stop style="stop-color:#f8e45c" id="stop1720" offset="1"/>
  </linearGradient>
  <radialGradient id="radialGradient3300" cx="525.588" cy="638.592" r="192" fx="525.588" fy="638.592" gradientTransform="matrix(-0.15348725,-0.31454803,-0.29858559,0.21589871,387.34532,128.39058)" gradientUnits="userSpaceOnUse" xlink:href="#linearGradient1594"/>
  <linearGradient id="linearGradient1594">
   <stop id="stop1590" offset="0" style="stop-color:#2ec27e"/>
   <stop id="stop1592" offset="1" style="stop-color:#57e389;stop-opacity:0"/>
  </linearGradient>
 </defs>
 <g id="layer1" transform="translate(0,-172)">
  <g id="layer2" style="display:none">
   <text style="font-size:5.33333349px;line-height:125%;font-family:Cantarell" id="context" x="-.05" y="128.65" xml:space="preserve">
    <tspan id="tspan2716" x="-.05" y="128.65" style="font-size:5.33333349px">apps</tspan>
   </text>
   <text id="text3021" x="-.25" y="137.23" xml:space="preserve" style="font-weight:bold;font-size:5.33333349px;line-height:125%;font-family:Cantarell">
    <tspan id="tspan3023" x="-.25" y="137.23" style="font-size:5.33333349px">org.gnome.Usage</tspan>
   </text>
   <rect style="fill:#f0f0f0" width="128" height="128" x="0" y="172"/>
   <rect width="16" height="16" x="160" y="172" style="fill:#f0f0f0"/>
   <text style="font-weight:bold;font-size:4px;line-height:125%;font-family:Cantarell" id="text863" x="0" y="164" xml:space="preserve">
    <tspan style="font-size:4px" id="tspan861" x="0" y="164">Hicolor</tspan>
   </text>
   <text id="text867" x="160" y="164" xml:space="preserve" style="font-weight:bold;font-size:4px;line-height:125%;font-family:Cantarell">
    <tspan id="tspan865" x="160" y="164" style="font-size:4px">Symbolic</tspan>
   </text>
  </g>
  <g id="layer3" style="display:none">
   <circle cx="64" cy="236" r="59.504" style="opacity:0.1;fill:none;stroke:#000000;stroke-width:0.99000001;stroke-dasharray:0.99000001, 0.99000001"/>
   <rect width="87.01" height="111.01" x="20.5" y="180.5" rx="8.701" ry="7.929" style="opacity:0.1;fill:none;stroke:#000000;stroke-width:0.99000001;stroke-dasharray:0.99000001, 0.99000001"/>
   <rect width="103.01" height="103.01" x="12.49" y="184.5" rx="7.924" ry="7.924" style="opacity:0.1;fill:none;stroke:#000000;stroke-width:0.99000001;stroke-dasharray:0.99000001, 0.99000001"/>
   <rect width="111.01" height="87.01" x="8.49" y="200.5" rx="7.929" ry="8.701" style="opacity:0.1;fill:none;stroke:#000000;stroke-width:0.99000001;stroke-dasharray:0.99000001, 0.99000001"/>
   <path d="M 2.6203015e-5,288.99999 H 128.00003" style="fill:none;stroke:#62a0ea;stroke-width:2"/>
  </g>
  <g id="layer9">
   <g transform="translate(-128,32)">
    <rect style="fill:#f6f5f4" width="112" height="88" x="136" y="168" rx="8" ry="8"/>
    <g style="enable-background:new" transform="matrix(1.1304347,0,0,1.1428571,119.65217,-45.142859)">
     <g transform="matrix(1.15,0,0,1.1666667,-9.5999963,-38.666666)" style="enable-background:new">
      <g style="enable-background:new" transform="matrix(0.20833334,0,0,0.234375,10.666663,215.6875)">
       <path style="fill:url(#radialGradient2561)" d="M 16 32 C 15.446 32 14.918328 32.110625 14.439453 32.3125 C 13.960578 32.514375 13.531422 32.808422 13.169922 33.169922 C 12.808422 33.531422 12.514375 33.960578 12.3125 34.439453 C 12.110625 34.918328 12 35.446 12 36 L 12 106 C 12 106.554 12.110625 107.08167 12.3125 107.56055 C 12.514375 108.03942 12.808422 108.46858 13.169922 108.83008 C 13.531422 109.19158 13.960578 109.48562 14.439453 109.6875 C 14.918328 109.88938 15.446 110 16 110 L 112 110 C 112.554 110 113.08167 109.88938 113.56055 109.6875 C 114.03942 109.48562 114.46858 109.19158 114.83008 108.83008 C 115.19158 108.46858 115.48562 108.03942 115.6875 107.56055 C 115.88938 107.08167 116 106.554 116 106 L 116 36 C 116 35.446 115.88938 34.918328 115.6875 34.439453 C 115.48562 33.960578 115.19158 33.531422 114.83008 33.169922 C 114.46858 32.808422 114.03942 32.514375 113.56055 32.3125 C 113.08167 32.110625 112.554 32 112 32 L 16 32 z" transform="matrix(3.6923078,0,0,3.2,19.692326,-186.4)"/>
       <path style="fill:url(#radialGradient3300)" d="M 16 32 C 15.446 32 14.918328 32.110625 14.439453 32.3125 C 13.960578 32.514375 13.531422 32.808422 13.169922 33.169922 C 12.808422 33.531422 12.514375 33.960578 12.3125 34.439453 C 12.110625 34.918328 12 35.446 12 36 L 12 106 C 12 106.554 12.110625 107.08167 12.3125 107.56055 C 12.514375 108.03942 12.808422 108.46858 13.169922 108.83008 C 13.531422 109.19158 13.960578 109.48562 14.439453 109.6875 C 14.918328 109.88938 15.446 110 16 110 L 112 110 C 112.554 110 113.08167 109.88938 113.56055 109.6875 C 114.03942 109.48562 114.46858 109.19158 114.83008 108.83008 C 115.19158 108.46858 115.48562 108.03942 115.6875 107.56055 C 115.88938 107.08167 116 106.554 116 106 L 116 36 C 116 35.446 115.88938 34.918328 115.6875 34.439453 C 115.48562 33.960578 115.19158 33.531422 114.83008 33.169922 C 114.46858 32.808422 114.03942 32.514375 113.56055 32.3125 C 113.08167 32.110625 112.554 32 112 32 L 16 32 z" transform="matrix(3.6923078,0,0,3.2,19.692326,-186.4)"/>
       <rect width="0" height="0" x="0" y="0" transform="matrix(1,0,0,-1,0,300)" style="opacity:0.32000002;fill:#87bae1;fill-opacity:0;stroke:#3d3d3d;stroke-width:1.81818175;stroke-linejoin:round"/>
       <rect width="0" height="0" x="0" y="0" transform="matrix(4.1739129,0,0,3.6571428,-11.130432,-149.82858)" style="opacity:0.35;fill:#1c71d8;fill-opacity:0.20331953"/>
      </g>
     </g>
    </g>
    <path style="fill:url(#linearGradient1444-2-3-3)" d="m 135.99999,246 v 4 c 0,4.432 3.568,8 8,8 h 96 c 4.432,0 8,-3.568 8,-8 v -4 c 0,4.432 -3.568,8 -8,8 h -96 c -4.432,0 -8,-3.568 -8,-8 z"/>
    <rect width="96" height="70" x="144" y="-246" transform="scale(1,-1)" style="opacity:0.05;fill:url(#radialGradient1030-8)"/>
    <g transform="matrix(4.6673577,0,0,4.6673577,5.5227729,-853.88619)">
     <path d="m 41.122051,226.97967 -3.517249,0.45324 -0.591768,3.45524 -1.517939,-3.20505 -3.469003,0.50493 2.579112,-2.43406 -1.552194,-3.14318 3.111917,1.70071 2.5097,-2.44752 -0.655841,3.48516 z" style="fill:#080700;fill-opacity:0.83749998;opacity:0.1"/>
     <path d="m 47.023871,227.33338 -1.298443,-0.17969 -0.546381,1.17492 -0.230347,-1.29042 -1.286252,-0.15657 1.156081,-0.61784 -0.248567,-1.27168 0.944844,0.90858 1.132631,-0.62937 -0.572135,1.17937 z" style="fill:#080700;fill-opacity:0.83749998;opacity:0.1"/>
     <path d="m 44.812045,223.52612 -1.795496,0.96183 0.388204,1.9757 -1.469599,-1.4104 -1.759037,0.97973 0.887235,-1.83351 -1.47535,-1.37019 2.017939,0.27723 0.847225,-1.82655 0.359921,2.00484 z" style="fill:#080700;fill-opacity:0.83749998;opacity:0.1"/>
     <path d="m 39.322704,228.68007 c -0.449408,9e-5 -0.670595,0.54685 -0.347656,0.85938 l 6.011567,6.18638 c 0.471254,0.49084 1.197872,-0.23577 0.707032,-0.70703 l -6.011568,-6.18639 c -0.09421,-0.0974 -0.223892,-0.15234 -0.359375,-0.15234 z" style="fill:#080700;fill-opacity:0.83749998;fill-rule:evenodd;opacity:0.1"/>
     <path style="fill:#fff601;fill-opacity:0.99523807" d="m 37.988739,228.53897 -2.297797,-2.35131 -2.888395,1.48949 1.526172,-2.91193 -2.309155,-2.28675 3.241023,0.55164 1.461259,-2.90278 0.476891,3.25286 3.212262,0.49274 -2.946288,1.45874 z" transform="matrix(0.64913853,-0.86150281,0.86150281,0.64913853,-179.99636,110.92512)"/>
     <path style="fill:#fff601;fill-opacity:0.99523807" d="m 37.988739,228.53897 -2.297797,-2.35131 -2.888395,1.48949 1.526172,-2.91193 -2.309155,-2.28675 3.241023,0.55164 1.461259,-2.90278 0.476891,3.25286 3.212262,0.49274 -2.946288,1.45874 z" transform="matrix(0.17246664,-0.59507374,0.59507374,0.17246664,-97.308777,206.28836)"/>
     <path style="fill:#fff601;fill-opacity:0.99523807" d="m 37.988739,228.53897 -2.297797,-2.35131 -2.888395,1.48949 1.526172,-2.91193 -2.309155,-2.28675 3.241023,0.55164 1.461259,-2.90278 0.476891,3.25286 3.212262,0.49274 -2.946288,1.45874 z" transform="matrix(0.31512729,-0.24426588,0.24426588,0.31512729,-20.343182,164.16536)"/>
     <path style="fill:#434343;fill-rule:evenodd" d="m 39.751212,228.25156 c -0.449408,9e-5 -0.670595,0.54685 -0.347656,0.85938 l 6.011567,6.18638 c 0.471254,0.49084 1.197872,-0.23577 0.707032,-0.70703 l -6.011568,-6.18639 c -0.09421,-0.0974 -0.223892,-0.15234 -0.359375,-0.15234 z"/>
     <path style="fill:#ffffff;fill-rule:evenodd" d="M 63.056641 71.445312 C 60.959093 71.445733 59.926322 73.998342 61.433594 75.457031 L 65.923828 80.076172 L 69.222656 76.777344 L 64.732422 72.15625 C 64.29271 71.701649 63.688988 71.445312 63.056641 71.445312 z" transform="matrix(0.21425399,0,0,0.21425399,26.241234,212.94408)"/>
     <path d="m 45.774173,235.44964 c 0.4494,-9e-5 0.67068,-0.547 0.34774,-0.85953 l -0.96205,-0.98967 -0.70679,0.70679 0.96205,0.99009 c 0.0942,0.0974 0.22356,0.15232 0.35905,0.15232 z" style="fill:#ffffff;fill-rule:evenodd"/>
     <path style="fill:#050000;opacity:0.05" d="M 61.789062 71.839844 C 61.765404 71.855381 61.728045 71.850839 61.705078 71.867188 C 61.336878 72.129282 61.058515 72.494112 60.892578 72.904297 C 60.726641 73.314482 60.673457 73.770466 60.755859 74.214844 C 60.838262 74.659221 61.056776 75.092359 61.433594 75.457031 L 89.492188 104.33008 C 90.042065 104.90281 90.66636 105.11999 91.257812 105.08984 C 91.849265 105.0597 92.407962 104.78344 92.826172 104.36523 C 92.93491 104.2565 92.925795 104.08285 93.013672 103.95703 L 61.789062 71.839844 z" transform="matrix(0.21425399,0,0,0.21425399,26.241234,212.94408)"/>
    </g>
   </g>
  </g>
 </g>
</svg>
