<svg xmlns="http://www.w3.org/2000/svg" xmlns:xlink="http://www.w3.org/1999/xlink" style="enable-background:new" width="128" height="128" version="1.0" viewBox="0 0 128 128">
 <title id="title4162">
  Adwaita Icon Template
 </title>
 <defs>
  <linearGradient id="linearGradient1879">
   <stop style="stop-color:#e8e7e4" id="stop1873" offset="0"/>
   <stop id="stop1875" offset=".5" style="stop-color:#ffffff"/>
   <stop style="stop-color:#c9c6c1" id="stop1877" offset="1"/>
  </linearGradient>
  <linearGradient id="linearGradient1037" x1="384" x2="416" y1="120" y2="120" gradientTransform="matrix(0.25,0,0,0.25,6.9488522e-8,225)" gradientUnits="userSpaceOnUse" xlink:href="#linearGradient1879"/>
 </defs>
 <g id="layer1" transform="translate(0,-172)">
  <g id="layer9">
   <path d="m 24,200 v 92 h 72 c 4.432,0 8,-3.568 8,-8 v -76 c 0,-4.432 -3.568,-8 -8,-8 z" style="fill:#a51d2d"/>
   <rect style="fill:#191622" width="8" height="18" x="24" y="274"/>
   <path d="m 26,220 v 70 h 70 c 4.432,0 8,-3.568 8,-8 v -54 c 0,-4.432 -3.568,-8 -8,-8 z" style="fill:url(#linearGradient1037)"/>
   <path d="m 24,200 v 76 h 72 c 4.432,0 8,-3.568 8,-8 v -60 c 0,-4.432 -3.568,-8 -8,-8 z" style="fill:#ac1d2e"/>
   <path d="m 24,180 v 94 h 72 c 4.432,0 8,-3.568 8,-8 v -78 c 0,-4.432 -3.568,-8 -8,-8 z" style="fill:#ed333b"/>
   <rect style="fill:#424048" width="8" height="94" x="24" y="180"/>
   <path style="opacity:0.22300002;fill:#ffffff" d="m 26,180.00001 h 2 v 94 h -2 z"/>
   <rect style="fill:#191622" width="8" height="2" x="24" y="274"/>
   <g style="font-size:1.41104174px;line-height:1.25;letter-spacing:0px;word-spacing:0px;fill:#ffffff" transform="matrix(1.4577878,0,0,1.4577878,16.29405,-165.9156)">
    <g>
     <path d="m 20.955783,270.48705 h 8.495189 l -4.247595,-11.00654 z m -6.541913,8.38667 v -1.64323 h 2.030783 l 8.247153,-21.5015 h 2.604364 l 8.262654,21.5015 h 2.27882 v 1.64323 h -8.417678 v -1.64323 h 2.573361 l -1.937772,-5.08471 h -9.735361 l -1.93777,5.08471 h 2.542356 v 1.64323 z" style="opacity:0.1;fill:#080808"/>
     <path style="fill:#ffffff" d="m 20.955783,269.11511 h 8.495189 l -4.247595,-11.00654 z m -6.541913,8.38667 v -1.64323 h 2.030783 l 8.247153,-21.5015 h 2.604364 l 8.262654,21.5015 h 2.27882 v 1.64323 h -8.417678 v -1.64323 h 2.573361 l -1.937772,-5.08471 h -9.735361 l -1.93777,5.08471 h 2.542356 v 1.64323 z"/>
     <path d="m 50.177369,273.696 v -3.48799 h -3.674014 q -2.123797,0 -3.162442,0.91463 -1.038645,0.91463 -1.038645,2.80589 0,1.72074 1.054147,2.72838 1.054147,1.00764 2.852399,1.00764 1.782749,0 2.867901,-1.10065 1.100654,-1.10066 1.100654,-2.8679 z m 2.852398,-5.11572 v 8.65021 h 2.542356 v 1.64323 h -5.394754 v -1.78275 q -0.945633,1.14716 -2.185806,1.68974 -1.240173,0.54257 -2.898905,0.54257 -2.743884,0 -4.356109,-1.4572 -1.612226,-1.4572 -1.612226,-3.93755 0,-2.55786 1.844758,-3.96855 1.844758,-1.4107 5.208728,-1.4107 h 3.99956 v -1.13166 q 0,-1.87576 -1.147161,-2.89891 -1.131658,-1.03864 -3.193446,-1.03864 -1.705239,0 -2.712879,0.77511 -1.007641,0.77511 -1.255676,2.29432 h -1.472706 v -3.33297 q 1.488208,-0.63559 2.883403,-0.94563 1.410697,-0.32554 2.743884,-0.32554 3.425979,0 5.208728,1.70523 1.798251,1.68974 1.798251,4.92969 z" style="opacity:0.1;fill:#080808"/>
     <path style="fill:#ffffff" d="m 50.177369,272.32406 v -3.48799 h -3.674014 q -2.123797,0 -3.162442,0.91463 -1.038645,0.91463 -1.038645,2.80589 0,1.72074 1.054147,2.72838 1.054147,1.00764 2.852399,1.00764 1.782749,0 2.867901,-1.10065 1.100654,-1.10066 1.100654,-2.8679 z m 2.852398,-5.11572 v 8.65021 h 2.542356 v 1.64323 h -5.394754 v -1.78275 q -0.945633,1.14716 -2.185806,1.68974 -1.240173,0.54257 -2.898905,0.54257 -2.743884,0 -4.356109,-1.4572 -1.612226,-1.4572 -1.612226,-3.93755 0,-2.55786 1.844758,-3.96855 1.844758,-1.4107 5.208728,-1.4107 h 3.99956 v -1.13166 q 0,-1.87576 -1.147161,-2.89891 -1.131658,-1.03864 -3.193446,-1.03864 -1.705239,0 -2.712879,0.77511 -1.007641,0.77511 -1.255676,2.29432 h -1.472706 v -3.33297 q 1.488208,-0.63559 2.883403,-0.94563 1.410697,-0.32554 2.743884,-0.32554 3.425979,0 5.208728,1.70523 1.798251,1.68974 1.798251,4.92969 z"/>
    </g>
   </g>
  </g>
 </g>
</svg>
