<?xml version="1.0" encoding="UTF-8" standalone="no"?>
<svg
   xmlns:dc="http://purl.org/dc/elements/1.1/"
   xmlns:cc="http://creativecommons.org/ns#"
   xmlns:rdf="http://www.w3.org/1999/02/22-rdf-syntax-ns#"
   xmlns:svg="http://www.w3.org/2000/svg"
   xmlns="http://www.w3.org/2000/svg"
   xmlns:xlink="http://www.w3.org/1999/xlink"
   xmlns:sodipodi="http://sodipodi.sourceforge.net/DTD/sodipodi-0.dtd"
   xmlns:inkscape="http://www.inkscape.org/namespaces/inkscape"
   viewBox="0 0 128 128"
   style="display:inline;enable-background:new"
   version="1.0"
   id="svg11300"
   height="128"
   width="128"
   sodipodi:docname="dvdstyle.svg"
   inkscape:version="0.92.3 (2405546, 2018-03-11)">
  <sodipodi:namedview
     pagecolor="#ffffff"
     bordercolor="#666666"
     borderopacity="1"
     objecttolerance="10"
     gridtolerance="10"
     guidetolerance="10"
     inkscape:pageopacity="0"
     inkscape:pageshadow="2"
     inkscape:window-width="1920"
     inkscape:window-height="1009"
     id="namedview24"
     showgrid="true"
     inkscape:zoom="4.175"
     inkscape:cx="-15.490425"
     inkscape:cy="95.961678"
     inkscape:window-x="0"
     inkscape:window-y="34"
     inkscape:window-maximized="1"
     inkscape:current-layer="svg11300"
     showguides="false" />
  <title
     id="title4162">Adwaita Icon Template</title>
  <defs
     id="defs3">
    <linearGradient
       id="linearGradient2208"
       inkscape:collect="always">
      <stop
         id="stop2202"
         offset="0"
         style="stop-color:#ce8cff;stop-opacity:1" />
      <stop
         style="stop-color:#eee5fd;stop-opacity:1"
         offset="0.6700632"
         id="stop2204" />
      <stop
         id="stop2206"
         offset="1"
         style="stop-color:#fefeff;stop-opacity:0.22380953" />
    </linearGradient>
    <linearGradient
       inkscape:collect="always"
       id="linearGradient2184">
      <stop
         style="stop-color:#ce8cff;stop-opacity:1"
         offset="0"
         id="stop2180" />
      <stop
         id="stop2188"
         offset="0.6700632"
         style="stop-color:#eee5fd;stop-opacity:1" />
      <stop
         style="stop-color:#fefeff;stop-opacity:1"
         offset="1"
         id="stop2182" />
    </linearGradient>
    <linearGradient
       id="linearGradient950">
      <stop
         style="stop-color:#9a9996;stop-opacity:1"
         offset="0"
         id="stop946" />
      <stop
         style="stop-color:#77767b;stop-opacity:1"
         offset="1"
         id="stop948" />
    </linearGradient>
    <linearGradient
       y2="812.88245"
       x2="1662.9901"
       y1="806.29718"
       x1="1660.8571"
       gradientTransform="matrix(1.8293937,-0.81599442,0.81599442,1.8293937,-3645.9624,100.02949)"
       gradientUnits="userSpaceOnUse"
       id="linearGradient1001"
       xlink:href="#linearGradient950" />
    <radialGradient
       inkscape:collect="always"
       xlink:href="#linearGradient27897"
       id="radialGradient1425"
       gradientUnits="userSpaceOnUse"
       gradientTransform="matrix(0.80988551,0,0,0.80988551,-284.95681,-125.75883)"
       cx="450.94806"
       cy="225.39462"
       fx="450.94806"
       fy="225.39462"
       r="39.999989" />
    <linearGradient
       inkscape:collect="always"
       id="linearGradient27897">
      <stop
         style="stop-color:#505050;stop-opacity:1"
         offset="0"
         id="stop27893" />
      <stop
         style="stop-color:#000000;stop-opacity:1"
         offset="1"
         id="stop27895" />
    </linearGradient>
    <linearGradient
       gradientTransform="matrix(0.49188856,0,0,0.49188856,-134.79263,-45.639967)"
       inkscape:collect="always"
       xlink:href="#linearGradient27913"
       id="linearGradient1506"
       gradientUnits="userSpaceOnUse"
       x1="418.83841"
       y1="227"
       x2="428.91922"
       y2="216.9192" />
    <linearGradient
       inkscape:collect="always"
       id="linearGradient27913">
      <stop
         style="stop-color:#bcbcb4;stop-opacity:1"
         offset="0"
         id="stop27909" />
      <stop
         style="stop-color:#eeeeec;stop-opacity:1"
         offset="1"
         id="stop27911" />
    </linearGradient>
    <linearGradient
       inkscape:collect="always"
       xlink:href="#linearGradient27905"
       id="linearGradient1492"
       x1="953.27502"
       y1="350.85599"
       x2="944.20746"
       y2="359.92355"
       gradientUnits="userSpaceOnUse"
       gradientTransform="matrix(0.49188856,0,0,0.49188856,-429.92577,-149.92035)" />
    <linearGradient
       inkscape:collect="always"
       id="linearGradient27905">
      <stop
         style="stop-color:#e9b96e;stop-opacity:1;"
         offset="0"
         id="stop27901" />
      <stop
         style="stop-color:#dc9321;stop-opacity:1"
         offset="1"
         id="stop27903" />
    </linearGradient>
    <linearGradient
       inkscape:collect="always"
       xlink:href="#linearGradient2184"
       id="linearGradient2186"
       x1="25.45509"
       y1="31.143713"
       x2="70.053894"
       y2="68.508987"
       gradientUnits="userSpaceOnUse" />
    <linearGradient
       inkscape:collect="always"
       xlink:href="#linearGradient2208"
       id="linearGradient2192"
       gradientUnits="userSpaceOnUse"
       x1="25.45509"
       y1="31.143713"
       x2="70.053894"
       y2="68.508987"
       gradientTransform="rotate(180,65,63)" />
  </defs>
  <metadata
     id="metadata4">
    <rdf:RDF>
      <cc:Work
         rdf:about="">
        <dc:format>image/svg+xml</dc:format>
        <dc:type
           rdf:resource="http://purl.org/dc/dcmitype/StillImage" />
        <dc:creator>
          <cc:Agent>
            <dc:title>GNOME Design Team</dc:title>
          </cc:Agent>
        </dc:creator>
        <dc:source />
        <cc:license
           rdf:resource="http://creativecommons.org/licenses/by-sa/4.0/" />
        <dc:title>Adwaita Icon Template</dc:title>
        <dc:subject>
          <rdf:Bag />
        </dc:subject>
        <dc:date />
        <dc:rights>
          <cc:Agent>
            <dc:title />
          </cc:Agent>
        </dc:rights>
        <dc:publisher>
          <cc:Agent>
            <dc:title />
          </cc:Agent>
        </dc:publisher>
        <dc:identifier />
        <dc:relation />
        <dc:language />
        <dc:coverage />
        <dc:description />
        <dc:contributor>
          <cc:Agent>
            <dc:title />
          </cc:Agent>
        </dc:contributor>
      </cc:Work>
      <cc:License
         rdf:about="http://creativecommons.org/licenses/by-sa/4.0/">
        <cc:permits
           rdf:resource="http://creativecommons.org/ns#Reproduction" />
        <cc:permits
           rdf:resource="http://creativecommons.org/ns#Distribution" />
        <cc:requires
           rdf:resource="http://creativecommons.org/ns#Notice" />
        <cc:requires
           rdf:resource="http://creativecommons.org/ns#Attribution" />
        <cc:permits
           rdf:resource="http://creativecommons.org/ns#DerivativeWorks" />
        <cc:requires
           rdf:resource="http://creativecommons.org/ns#ShareAlike" />
      </cc:License>
    </rdf:RDF>
  </metadata>
  <path
     id="path2178"
     d="M 65.000004,13 C 36.192005,13 13,36.192 13,65 13,93.808001 36.192005,117 65.000004,117 93.808003,117 117,93.808001 117,65 117,36.192 93.808003,13 65.000004,13 Z m 0,29.714286 A 22.285716,22.285714 0 0 1 87.285717,65 22.285716,22.285714 0 0 1 65.000004,87.285715 22.285716,22.285714 0 0 1 42.714289,65 22.285716,22.285714 0 0 1 65.000004,42.714286 Z"
     style="opacity:0.2;fill:#000000;fill-opacity:1;stroke-width:1.85714293"
     inkscape:connector-curvature="0" />
  <path
     inkscape:connector-curvature="0"
     style="fill:#939393;stroke-width:1.85714293;fill-opacity:1"
     d="M 65.000004,35.142858 A 27.857144,27.857142 0 0 0 37.142858,63 27.857144,27.857142 0 0 0 65.000004,90.857144 27.857144,27.857142 0 0 0 92.857146,63 27.857144,27.857142 0 0 0 65.000004,35.142858 Z m 0,16.714285 c 6.154201,0 11.142854,4.988658 11.142854,11.142857 0,6.1542 -4.988653,11.142858 -11.142854,11.142858 -6.154201,0 -11.142859,-4.988658 -11.142859,-11.142858 0,-6.154199 4.988658,-11.142857 11.142859,-11.142857 z"
     id="path4" />
  <path
     inkscape:connector-curvature="0"
     style="fill:url(#linearGradient2186);stroke-width:1.85714293;fill-opacity:1"
     d="M 65.000004,11 C 36.192005,11 13,34.192 13,63 13,91.808001 36.192005,115 65.000004,115 93.808003,115 117,91.808001 117,63 117,34.192 93.808003,11 65.000004,11 Z m 0,29.714286 A 22.285716,22.285714 0 0 1 87.285717,63 22.285716,22.285714 0 0 1 65.000004,85.285715 22.285716,22.285714 0 0 1 42.714289,63 22.285716,22.285714 0 0 1 65.000004,40.714286 Z"
     id="path6" />
  <path
     id="path2190"
     d="M 64.999996,115 C 93.807995,115 117,91.808 117,63 117,34.191999 93.807995,11 64.999996,11 36.191997,11 13,34.191999 13,63 c 0,28.808 23.191997,52 51.999996,52 z m 0,-29.714286 A 22.285716,22.285714 0 0 1 42.714283,63 22.285716,22.285714 0 0 1 64.999996,40.714285 22.285716,22.285714 0 0 1 87.285711,63 22.285716,22.285714 0 0 1 64.999996,85.285714 Z"
     style="fill:url(#linearGradient2192);fill-opacity:1.0;stroke-width:1.85714293"
     inkscape:connector-curvature="0" />
  <g
     id="g872">
    <path
       style="color:#000000;font-style:normal;font-variant:normal;font-weight:normal;font-stretch:normal;font-size:medium;line-height:normal;font-family:sans-serif;font-variant-ligatures:normal;font-variant-position:normal;font-variant-caps:normal;font-variant-numeric:normal;font-variant-alternates:normal;font-feature-settings:normal;text-indent:0;text-align:start;text-decoration:none;text-decoration-line:none;text-decoration-style:solid;text-decoration-color:#000000;letter-spacing:normal;word-spacing:normal;text-transform:none;writing-mode:lr-tb;direction:ltr;text-orientation:mixed;dominant-baseline:auto;baseline-shift:baseline;text-anchor:start;white-space:normal;shape-padding:0;clip-rule:nonzero;display:inline;overflow:visible;visibility:visible;opacity:1;isolation:auto;mix-blend-mode:normal;color-interpolation:sRGB;color-interpolation-filters:linearRGB;solid-color:#000000;solid-opacity:1;vector-effect:none;fill:url(#linearGradient1492);fill-opacity:1;fill-rule:nonzero;stroke:none;stroke-width:1.95636499;stroke-linecap:round;stroke-linejoin:miter;stroke-miterlimit:4;stroke-dasharray:none;stroke-dashoffset:0;stroke-opacity:1;color-rendering:auto;image-rendering:auto;shape-rendering:auto;text-rendering:auto;enable-background:accumulate"
       d="M 87.246094 63.769531 A 22.285716 22.285714 0 0 1 87.173828 65.224609 A 22.285716 22.285714 0 0 1 86.841797 67.427734 A 22.285716 22.285714 0 0 1 86.291016 69.585938 A 22.285716 22.285714 0 0 1 85.527344 71.677734 A 22.285716 22.285714 0 0 1 84.556641 73.683594 A 22.285716 22.285714 0 0 1 83.392578 75.583984 A 22.285716 22.285714 0 0 1 83.1875 75.853516 C 85.368345 76.864449 88.030029 76.507087 89.833984 74.703125 C 92.172471 72.364682 92.133364 68.562101 89.748047 66.271484 L 87.246094 63.769531 z "
       id="path881" />
    <path
       style="color:#000000;font-style:normal;font-variant:normal;font-weight:normal;font-stretch:normal;font-size:medium;line-height:normal;font-family:sans-serif;font-variant-ligatures:normal;font-variant-position:normal;font-variant-caps:normal;font-variant-numeric:normal;font-variant-alternates:normal;font-feature-settings:normal;text-indent:0;text-align:start;text-decoration:none;text-decoration-line:none;text-decoration-style:solid;text-decoration-color:#000000;letter-spacing:normal;word-spacing:normal;text-transform:none;writing-mode:lr-tb;direction:ltr;text-orientation:mixed;dominant-baseline:auto;baseline-shift:baseline;text-anchor:start;white-space:normal;shape-padding:0;clip-rule:nonzero;display:inline;overflow:visible;visibility:visible;opacity:1;isolation:auto;mix-blend-mode:normal;color-interpolation:sRGB;color-interpolation-filters:linearRGB;solid-color:#000000;solid-opacity:1;vector-effect:none;fill:url(#linearGradient1492);fill-opacity:1;fill-rule:nonzero;stroke:none;stroke-width:1.95636499;stroke-linecap:round;stroke-linejoin:miter;stroke-miterlimit:4;stroke-dasharray:none;stroke-dashoffset:0;stroke-opacity:1;color-rendering:auto;image-rendering:auto;shape-rendering:auto;text-rendering:auto;enable-background:accumulate"
       d="M 64.21875 40.742188 A 22.285716 22.285714 0 0 0 63.423828 40.769531 A 22.285716 22.285714 0 0 0 61.212891 41.039062 A 22.285716 22.285714 0 0 0 59.039062 41.527344 A 22.285716 22.285714 0 0 0 56.923828 42.228516 A 22.285716 22.285714 0 0 0 54.890625 43.138672 A 22.285716 22.285714 0 0 0 52.958984 44.248047 A 22.285716 22.285714 0 0 0 51.833984 45.050781 L 81.400391 74.619141 C 81.923946 75.16434 82.54135 75.553992 83.1875 75.853516 A 22.285716 22.285714 0 0 0 83.392578 75.583984 A 22.285716 22.285714 0 0 0 84.556641 73.683594 A 22.285716 22.285714 0 0 0 85.527344 71.677734 A 22.285716 22.285714 0 0 0 86.291016 69.585938 A 22.285716 22.285714 0 0 0 86.841797 67.427734 A 22.285716 22.285714 0 0 0 87.173828 65.224609 A 22.285716 22.285714 0 0 0 87.246094 63.769531 L 64.21875 40.742188 z "
       id="path879" />
    <path
       style="color:#000000;font-style:normal;font-variant:normal;font-weight:normal;font-stretch:normal;font-size:medium;line-height:normal;font-family:sans-serif;font-variant-ligatures:normal;font-variant-position:normal;font-variant-caps:normal;font-variant-numeric:normal;font-variant-alternates:normal;font-feature-settings:normal;text-indent:0;text-align:start;text-decoration:none;text-decoration-line:none;text-decoration-style:solid;text-decoration-color:#000000;letter-spacing:normal;word-spacing:normal;text-transform:none;writing-mode:lr-tb;direction:ltr;text-orientation:mixed;dominant-baseline:auto;baseline-shift:baseline;text-anchor:start;white-space:normal;shape-padding:0;clip-rule:nonzero;display:inline;overflow:visible;visibility:visible;opacity:1;isolation:auto;mix-blend-mode:normal;color-interpolation:sRGB;color-interpolation-filters:linearRGB;solid-color:#000000;solid-opacity:1;vector-effect:none;fill:url(#linearGradient1492);fill-opacity:1;fill-rule:nonzero;stroke:none;stroke-width:1.95636499;stroke-linecap:round;stroke-linejoin:miter;stroke-miterlimit:4;stroke-dasharray:none;stroke-dashoffset:0;stroke-opacity:1;color-rendering:auto;image-rendering:auto;shape-rendering:auto;text-rendering:auto;enable-background:accumulate"
       d="M 38.294922 18.552734 C 37.513256 19.022035 36.640724 19.348863 35.886719 19.857422 C 34.064046 21.086772 32.465508 22.590293 30.818359 24.035156 L 51.833984 45.050781 A 22.285716 22.285714 0 0 1 52.958984 44.248047 A 22.285716 22.285714 0 0 1 54.890625 43.138672 A 22.285716 22.285714 0 0 1 56.923828 42.228516 A 22.285716 22.285714 0 0 1 59.039062 41.527344 A 22.285716 22.285714 0 0 1 61.212891 41.039062 A 22.285716 22.285714 0 0 1 63.423828 40.769531 A 22.285716 22.285714 0 0 1 64.21875 40.742188 L 44.732422 21.255859 C 42.795553 19.594638 40.55073 18.854955 38.294922 18.552734 z "
       id="path1899" />
    <path
       inkscape:connector-curvature="0"
       id="path1899-3"
       d="m 57.945062,34.950017 a 7.871004,7.871004 0 0 0 -5.482826,13.515405 l 27.545759,27.54576 A 7.871004,7.871004 0 1 0 91.138892,64.880285 L 63.593133,37.334525 a 7.871004,7.871004 0 0 0 -5.648071,-2.384508 z"
       style="color:#000000;font-style:normal;font-variant:normal;font-weight:normal;font-stretch:normal;font-size:medium;line-height:normal;font-family:sans-serif;font-variant-ligatures:normal;font-variant-position:normal;font-variant-caps:normal;font-variant-numeric:normal;font-variant-alternates:normal;font-feature-settings:normal;text-indent:0;text-align:start;text-decoration:none;text-decoration-line:none;text-decoration-style:solid;text-decoration-color:#000000;letter-spacing:normal;word-spacing:normal;text-transform:none;writing-mode:lr-tb;direction:ltr;text-orientation:mixed;dominant-baseline:auto;baseline-shift:baseline;text-anchor:start;white-space:normal;shape-padding:0;clip-rule:nonzero;display:inline;overflow:visible;visibility:visible;opacity:1;isolation:auto;mix-blend-mode:normal;color-interpolation:sRGB;color-interpolation-filters:linearRGB;solid-color:#000000;solid-opacity:1;vector-effect:none;fill:url(#linearGradient1506);fill-opacity:1;fill-rule:nonzero;stroke:none;stroke-width:2.60848665;stroke-linecap:round;stroke-linejoin:miter;stroke-miterlimit:4;stroke-dasharray:none;stroke-dashoffset:0;stroke-opacity:1;color-rendering:auto;image-rendering:auto;shape-rendering:auto;text-rendering:auto;enable-background:new" />
    <path
       sodipodi:nodetypes="sscccs"
       inkscape:connector-curvature="0"
       id="path1901"
       d="m 81.638205,46.835078 c -10.866492,0 -19.675542,8.809045 -19.675542,19.675542 0,10.866497 8.80905,19.675543 19.675542,19.675543 H 101.31375 V 66.51062 c 0,-10.866497 -8.809043,-19.675542 -19.675545,-19.675542 z"
       style="display:inline;opacity:1;vector-effect:none;fill:url(#radialGradient1425);fill-opacity:1;stroke:none;stroke-width:1.95636523;stroke-linecap:round;stroke-linejoin:miter;stroke-miterlimit:4;stroke-dasharray:none;stroke-dashoffset:0;stroke-opacity:1;marker:none;marker-start:none;marker-mid:none;marker-end:none;paint-order:normal;enable-background:new" />
    <circle
       r="3.1258943"
       transform="scale(1,-1)"
       cy="-56.847401"
       cx="79.670631"
       id="circle21711-7-41-9"
       style="color:#000000;display:inline;overflow:visible;visibility:visible;opacity:1;fill:#7a8599;fill-opacity:1;fill-rule:nonzero;stroke:none;stroke-width:0.58402181;marker:none;enable-background:new" />
  </g>
</svg>
