<svg xmlns="http://www.w3.org/2000/svg" xmlns:xlink="http://www.w3.org/1999/xlink" width="128" height="128" version="1.0" viewBox="0 0 128 128" style="enable-background:new">
 <title id="title4162">
  Adwaita Icon Template
 </title>
 <defs>
  <clipPath id="clipPath9814-1" clipPathUnits="userSpaceOnUse">
   <path style="fill:#ffffff;fill-rule:evenodd" d="M 596.05078,612 C 591.59109,612 588,615.59109 588,620.05078 v 15.89844 c 0,4.44257 3.56412,8.0214 8,8.04883 V 652 l 8,-8 h 19.94922 C 628.40891,644 632,640.40891 632,635.94922 V 620.05078 C 632,615.59109 628.40891,612 623.94922,612 Z"/>
  </clipPath>
  <linearGradient id="linearGradient925" x1="28" x2="40" y1="220" y2="220" gradientTransform="translate(186,-254)" gradientUnits="userSpaceOnUse" xlink:href="#linearGradient936"/>
  <linearGradient id="linearGradient936">
   <stop style="stop-color:#62a0ea" id="stop932" offset="0"/>
   <stop style="stop-color:#3584e4" id="stop934" offset="1"/>
  </linearGradient>
  <linearGradient id="linearGradient927" x1="28" x2="40" y1="220" y2="220" gradientTransform="translate(186,-272)" gradientUnits="userSpaceOnUse" xlink:href="#linearGradient936"/>
  <linearGradient id="linearGradient929" x1="28" x2="40" y1="220" y2="220" gradientTransform="translate(186,-290)" gradientUnits="userSpaceOnUse" xlink:href="#linearGradient936"/>
 </defs>
 <g id="layer1" transform="translate(0,-172)">
  <g id="layer9">
   <g style="enable-background:new" transform="translate(-160,-1716)">
    <g style="enable-background:new" transform="translate(160,1730)">
     <g style="enable-background:new" transform="translate(0,-10)">
      <rect width="96" height="56" x="28" y="220" rx="28" ry="28" style="fill:#3584e4"/>
      <path style="fill:#1a5fb4;fill-rule:evenodd" d="m 28.025346,247.00001 c 0.52401,15.04435 12.79799,27 27.97461,27 h 30 v 2 h -30 c -15.51201,0 -28,-12.48799 -28,-28 0,-0.33539 0.0138,-0.66753 0.0254,-1 z m 95.951174,0.0723 c 0.01,0.30861 0.0234,0.61655 0.0234,0.9277 0,14.15284 -10.39695,25.78251 -24.000004,27.71289 v -2 c 13.257314,-1.88132 23.466014,-12.97702 23.976564,-26.64062 z"/>
     </g>
     <g transform="translate(-4,-10)">
      <g>
       <rect width="96" height="56" x="8" y="192" rx="28" ry="28" style="fill:#f6f5f4"/>
      </g>
      <g style="fill:#c0bfbc" transform="matrix(1,0,0,-1,3.9999881,439.99998)">
       <circle style="fill:url(#linearGradient925)" cx="220" cy="-34" r="6" transform="rotate(90)"/>
       <circle cx="220" cy="-52" r="6" transform="rotate(90)" style="fill:url(#linearGradient927)"/>
       <circle style="fill:url(#linearGradient929)" cx="220" cy="-70" r="6" transform="rotate(90)"/>
      </g>
     </g>
     <path d="m 99.974586,209.00001 c -0.524013,15.04435 -12.797987,27 -27.97461,27 h -30 v 2 h 30 c 15.512015,0 28,-12.48799 28,-28 0,-0.33539 -0.0138,-0.66753 -0.0254,-1 z m -95.9511721,0.0723 c -0.00997,0.30861 -0.023437,0.61655 -0.023437,0.9277 0,14.15284 10.3969521,25.78251 24.0000001,27.71289 v -2 C 14.742669,233.83158 4.5339614,222.73588 4.0234139,209.07228 Z" style="fill:#c0bfbc;fill-rule:evenodd"/>
    </g>
    <path d="m 187.99998,1966 v 14 l 16.54492,-14 z" style="fill:#c0bfbc;fill-rule:evenodd"/>
    <path d="m 187.99998,1964 v 14 l 16.54524,-14 z" style="fill:#f6f5f4;fill-rule:evenodd"/>
    <g transform="translate(25.45478,498)">
     <path d="m 234.54522,1496 v 14 l -16.54492,-14 z" style="fill:#1a5fb4;fill-rule:evenodd"/>
     <path d="m 234.54522,1494 v 14 l -16.54524,-14 z" style="fill:#3584e4;fill-rule:evenodd"/>
    </g>
   </g>
  </g>
 </g>
</svg>
