<?xml version="1.0" encoding="UTF-8" standalone="no"?>
<svg
   xmlns:dc="http://purl.org/dc/elements/1.1/"
   xmlns:cc="http://creativecommons.org/ns#"
   xmlns:rdf="http://www.w3.org/1999/02/22-rdf-syntax-ns#"
   xmlns:svg="http://www.w3.org/2000/svg"
   xmlns="http://www.w3.org/2000/svg"
   xmlns:xlink="http://www.w3.org/1999/xlink"
   xmlns:sodipodi="http://sodipodi.sourceforge.net/DTD/sodipodi-0.dtd"
   xmlns:inkscape="http://www.inkscape.org/namespaces/inkscape"
   width="128"
   height="128"
   version="1.0"
   id="svg75"
   sodipodi:docname="flash.svg"
   inkscape:version="0.92.3 (2405546, 2018-03-11)">
  <metadata
     id="metadata79">
    <rdf:RDF>
      <cc:Work
         rdf:about="">
        <dc:format>image/svg+xml</dc:format>
        <dc:type
           rdf:resource="http://purl.org/dc/dcmitype/StillImage" />
        <dc:title />
      </cc:Work>
    </rdf:RDF>
  </metadata>
  <sodipodi:namedview
     pagecolor="#ffffff"
     bordercolor="#666666"
     borderopacity="1"
     objecttolerance="10"
     gridtolerance="10"
     guidetolerance="10"
     inkscape:pageopacity="0"
     inkscape:pageshadow="2"
     inkscape:window-width="1853"
     inkscape:window-height="1009"
     id="namedview77"
     showgrid="false"
     inkscape:zoom="3.6265081"
     inkscape:cx="-79.732815"
     inkscape:cy="62.17578"
     inkscape:window-x="67"
     inkscape:window-y="34"
     inkscape:window-maximized="1"
     inkscape:current-layer="g73"
     showguides="false" />
  <defs
     id="defs24">
    <linearGradient
       id="a">
      <stop
         offset="0"
         stop-color="#68676b"
         id="stop2" />
      <stop
         offset=".8"
         stop-color="#424048"
         id="stop4" />
      <stop
         offset="1"
         stop-color="#241f31"
         id="stop6" />
    </linearGradient>
    <radialGradient
       xlink:href="#a"
       id="d"
       gradientUnits="userSpaceOnUse"
       gradientTransform="matrix(1.34416 .0006 -.00062 1.38763 -121.22 -718.103)"
       cx="279.422"
       cy="446.483"
       fx="279.422"
       fy="446.483"
       r="224" />
    <linearGradient
       xlink:href="#b"
       id="e"
       gradientUnits="userSpaceOnUse"
       gradientTransform="matrix(1.0015 0 0 .99993 72.09 56.015)"
       x1="43.844"
       y1="234"
       x2="-60"
       y2="234" />
    <linearGradient
       id="b">
      <stop
         offset="0"
         stop-color="#d5d3cf"
         id="stop11" />
      <stop
         offset=".038"
         stop-color="#e3e2df"
         id="stop13" />
      <stop
         offset=".077"
         stop-color="#c0bfbc"
         id="stop15" />
      <stop
         offset=".923"
         stop-color="#c0bfbc"
         id="stop17" />
      <stop
         offset=".962"
         stop-color="#e3e2df"
         id="stop19" />
      <stop
         offset="1"
         stop-color="#d5d3cf"
         id="stop21" />
    </linearGradient>
  </defs>
  <g
     transform="translate(0 -172)"
     id="g73">
    <rect
       ry="8"
       rx="8"
       height="48"
       width="104"
       x="12"
       y="240"
       fill="url(#e)"
       id="rect33" />
    <path
       style="fill:#c01c28;fill-opacity:1"
       d="M 20 10 C 15.568 10 12 13.568 12 18 L 12 60 L 12 102 C 12 106.432 15.568 110 20 110 L 64 110 L 108 110 C 112.432 110 116 106.432 116 102 L 116 60 L 116 18 C 116 13.568 112.432 10 108 10 L 20 10 z "
       id="path37"
       transform="translate(0,172)" />
    <g
       id="g2994"
       transform="translate(-0.005372,1.1162819)">
      <path
         id="path2407"
         d="m 93.273831,195.23704 v 14.71957 c -14.696146,0.25844 -18.307806,14.59042 -18.307806,14.59042 h 11.08449 v 14.71956 H 68.863299 c -10.33889,31.89471 -34.126386,29.05207 -34.126386,29.05207 v -14.71957 c 0,0 15.094926,2.80021 22.791655,-25.30723 9.625485,-35.16137 35.743443,-33.05591 35.743443,-33.05591 z"
         style="opacity:0.2;stroke-width:1.82924449"
         inkscape:connector-curvature="0" />
      <path
         id="path2409"
         d="m 93.273831,193.4089 v 14.71956 c -14.696146,0.25844 -18.307806,14.59042 -18.307806,14.59042 h 11.08449 v 14.71957 H 68.863299 c -10.33889,31.89471 -34.126386,29.05206 -34.126386,29.05206 v -14.71957 c 0,0 15.094926,2.80021 22.791655,-25.30723 9.625485,-35.16137 35.743443,-33.05591 35.743443,-33.05591 z"
         style="fill:#ffffff;stroke-width:1.82924449"
         inkscape:connector-curvature="0" />
    </g>
  </g>
</svg>
