<svg xmlns="http://www.w3.org/2000/svg" width="128" height="128" version="1.0" viewBox="0 0 128 128" style="enable-background:new">
 <title id="title4162">
  Adwaita Icon Template
 </title>
 <defs>
  <clipPath id="clipPath868" clipPathUnits="userSpaceOnUse">
   <rect width="112" height="80" x="8" y="196" rx="8" ry="8" style="fill:#4fd2fd"/>
  </clipPath>
 </defs>
 <g id="layer1" transform="translate(0,-172)">
  <g id="layer9">
   <rect width="96" height="80" x="24" y="200" rx="8" ry="8" style="fill:#1a5fb4"/>
   <path style="fill:#53bde0" d="m 16,24 c -4.432,0 -8,3.568 -8,8 v 4 64 c 0,4.432 3.568,8 8,8 h 16 v 16 l 16,-16 h 38 26 c 4.432,0 8,-3.568 8,-8 V 32 c 0,-4.432 -3.568,-8 -8,-8 z" transform="translate(0,172)"/>
   <path style="fill:#1a5fb4" d="M 86.150391 24 L 86.150391 108 L 112 108 C 116.432 108 120 104.432 120 100 L 120 32 C 120 27.568 116.432 24 112 24 L 86.150391 24 z" transform="translate(0,172)"/>
   <rect style="fill:#81dffe" width="112" height="80" x="8" y="196" rx="8" ry="8"/>
   <path style="fill:#81dffe;fill-rule:evenodd" d="m 32,268 v 24 l 24,-24 z"/>
   <path style="fill:#3584e4" d="m 74.255856,196.00001 c -16.932079,1.74446 -32.470249,14.31096 -33.480469,32.23633 -0.78363,13.86174 8.98961,28.01968 23.625001,28.63086 9.740205,0.40688 19.689612,-6.53314 19.947262,-16.83594 0.1673,-6.64455 -4.651779,-13.44071 -11.726559,-13.48046 -4.39999,-0.0267 -8.906477,3.21689 -8.826172,7.91601 0.06692,2.79799 2.161036,5.67392 5.175781,5.54102 1.70311,-0.0743 3.466089,-1.39573 3.324219,-3.24024 -0.07361,-0.97891 -0.86611,-1.99818 -1.9375,-1.87304 -0.528665,0.0602 -1.080122,0.50465 -0.982422,1.08398 0.06692,0.25698 0.26805,0.53373 0.5625,0.4668 0.113765,-0.0267 0.234632,-0.13524 0.201172,-0.26172 0,-0.0402 -0.06727,-0.0892 -0.107422,-0.0684 0,0.003 -0.06692,0.0198 0,0.0332 v 0.004 0.002 0.0312 c 0,0.0469 -0.0868,0.0476 -0.126953,0.0273 -0.113765,-0.0602 -0.108515,-0.22848 -0.06836,-0.32618 0.153914,-0.25162 0.508963,-0.21695 0.730468,-0.0684 0.488515,0.3413 0.401007,1.04839 0.06641,1.46289 -0.6692,0.84554 -1.947204,0.67985 -2.693359,0.0391 -1.40599,-1.20415 -1.095994,-3.38178 0.06641,-4.63867 2.03771,-2.2231 5.569082,-1.68284 7.582032,0.26171 3.382805,3.26536 2.489781,8.74135 -0.636719,11.83204 -5.03171,4.97042 -13.247346,3.57133 -17.832032,-1.24415 -7.11024,-7.46661 -4.98308,-19.40598 2.191407,-26 10.78281,-9.90824 27.711709,-6.80119 36.968749,3.55274 13.53523,15.1397 9.09657,38.56558 -5.5,51.25976 -1.5463,1.28274 -3.09346,2.49547 -4.63867,3.65625 H 112 c 4.432,0 8,-3.568 8,-8 v -64 c 0,-4.432 -3.568,-8 -8,-8 z"/>
  </g>
 </g>
</svg>
