<?xml version="1.0" encoding="UTF-8" standalone="no"?>
<svg
   xmlns:dc="http://purl.org/dc/elements/1.1/"
   xmlns:cc="http://creativecommons.org/ns#"
   xmlns:rdf="http://www.w3.org/1999/02/22-rdf-syntax-ns#"
   xmlns:svg="http://www.w3.org/2000/svg"
   xmlns="http://www.w3.org/2000/svg"
   xmlns:sodipodi="http://sodipodi.sourceforge.net/DTD/sodipodi-0.dtd"
   xmlns:inkscape="http://www.inkscape.org/namespaces/inkscape"
   width="128"
   height="128"
   version="1"
   id="svg12"
   sodipodi:docname="gcstar.svg"
   inkscape:version="0.92.3 (2405546, 2018-03-11)">
  <metadata
     id="metadata18">
    <rdf:RDF>
      <cc:Work
         rdf:about="">
        <dc:format>image/svg+xml</dc:format>
        <dc:type
           rdf:resource="http://purl.org/dc/dcmitype/StillImage" />
        <dc:title></dc:title>
      </cc:Work>
    </rdf:RDF>
  </metadata>
  <defs
     id="defs16" />
  <sodipodi:namedview
     pagecolor="#ffffff"
     bordercolor="#666666"
     borderopacity="1"
     objecttolerance="10"
     gridtolerance="10"
     guidetolerance="10"
     inkscape:pageopacity="0"
     inkscape:pageshadow="2"
     inkscape:window-width="1920"
     inkscape:window-height="1009"
     id="namedview14"
     showgrid="false"
     inkscape:zoom="3.6875"
     inkscape:cx="32"
     inkscape:cy="32"
     inkscape:window-x="0"
     inkscape:window-y="34"
     inkscape:window-maximized="1"
     inkscape:current-layer="svg12" />
  <rect
     id="rect828"
     ry="59.438595"
     rx="59.438595"
     y="6"
     x="4"
     height="118.87719"
     width="118.87719"
     style="opacity:0.1;fill:#000000;fill-opacity:1;stroke-width:2.12280703" />
  <rect
     style="fill:#1d81e8;stroke-width:2.12280703"
     width="118.87719"
     height="118.87719"
     x="4"
     y="4"
     rx="59.438595"
     ry="59.438595"
     id="rect4" />
  <path
     inkscape:connector-curvature="0"
     id="path830"
     d="M 63.437747,22.983974 A 42.455533,42.455533 0 0 0 20.982214,65.439507 42.455533,42.455533 0 0 0 63.437747,107.89503 42.455533,42.455533 0 0 0 105.89328,65.439507 42.455533,42.455533 0 0 0 63.437747,22.983974 Z M 43.15674,52.702848 a 12.849592,10.475054 76.77 0 1 11.284681,9.960068 12.849592,10.475054 76.77 0 1 -6.856569,15.207581 12.849592,10.475054 76.77 0 1 -13.360332,-9.654399 12.849592,10.475054 76.77 0 1 6.856144,-15.20757 12.849592,10.475054 76.77 0 1 2.076076,-0.30568 z m 40.562015,0 a 10.475054,12.849592 13.23 0 1 2.076075,0.30568 10.475054,12.849592 13.23 0 1 6.856569,15.20757 10.475054,12.849592 13.23 0 1 -13.360756,9.654399 10.475054,12.849592 13.23 0 1 -6.856569,-15.207581 10.475054,12.849592 13.23 0 1 11.284681,-9.960068 z"
     style="opacity:0.1;fill:#000000;fill-opacity:1;stroke-width:2.12280703" />
  <path
     style="fill:#ffe05b;stroke-width:2.12280703;fill-opacity:1"
     d="M 63.437747,20.983974 A 42.455533,42.455533 0 0 0 20.982214,63.439507 42.455533,42.455533 0 0 0 63.437747,105.89503 42.455533,42.455533 0 0 0 105.89328,63.439507 42.455533,42.455533 0 0 0 63.437747,20.983974 Z M 43.15674,50.702848 a 12.849592,10.475054 76.77 0 1 11.284681,9.960068 12.849592,10.475054 76.77 0 1 -6.856569,15.207581 12.849592,10.475054 76.77 0 1 -13.360332,-9.654399 12.849592,10.475054 76.77 0 1 6.856144,-15.20757 12.849592,10.475054 76.77 0 1 2.076076,-0.30568 z m 40.562015,0 a 10.475054,12.849592 13.23 0 1 2.076075,0.30568 10.475054,12.849592 13.23 0 1 6.856569,15.20757 10.475054,12.849592 13.23 0 1 -13.360756,9.654399 10.475054,12.849592 13.23 0 1 -6.856569,-15.207581 10.475054,12.849592 13.23 0 1 11.284681,-9.960068 z"
     id="path8"
     inkscape:connector-curvature="0" />
</svg>
