<svg xmlns="http://www.w3.org/2000/svg" xmlns:xlink="http://www.w3.org/1999/xlink" width="128" height="128" version="1.1" viewBox="0 0 33.87 33.87">
 <defs>
  <clipPath id="b">
   <use id="use5" width="100%" height="100%" x="0" y="0" overflow="visible" xlink:href="#a"/>
  </clipPath>
  <clipPath id="clipPath1150">
   <use id="use1148" width="100%" height="100%" x="0" y="0" overflow="visible" xlink:href="#a"/>
  </clipPath>
  <linearGradient id="linearGradient954" x1="121.86" x2="136.55" y1="49.804" y2="114.13" gradientTransform="matrix(0.68181818,0,0,0.68181818,-1.4545454,-1.4545454)" gradientUnits="userSpaceOnUse" xlink:href="#g"/>
  <clipPath id="clipPath1155">
   <use id="use1153" width="100%" height="100%" x="0" y="0" overflow="visible" xlink:href="#a"/>
  </clipPath>
  <clipPath id="b-3">
   <use id="use5-6" width="100%" height="100%" x="0" y="0" overflow="visible" xlink:href="#a"/>
  </clipPath>
  <clipPath id="clipPath1783">
   <use id="use1781" width="100%" height="100%" x="0" y="0" overflow="visible" xlink:href="#a"/>
  </clipPath>
  <linearGradient id="linearGradient954-7" x1="121.86" x2="136.55" y1="49.804" y2="114.13" gradientTransform="matrix(0.68181818,0,0,0.68181818,-1.4545454,-1.4545454)" gradientUnits="userSpaceOnUse" xlink:href="#g"/>
  <clipPath id="clipPath1788">
   <use id="use1786" width="100%" height="100%" x="0" y="0" overflow="visible" xlink:href="#a"/>
  </clipPath>
  <linearGradient id="_lgradient_104" x1="0" x2="0" y1="1" y2="0" gradientTransform="matrix(32.630628,0,0,17.197916,-25.522181,273.88095)" gradientUnits="userSpaceOnUse">
   <stop style="stop-color:#2f3943" id="stop69" offset="0%"/>
   <stop style="stop-color:#4d5662" id="stop71" offset="100%"/>
  </linearGradient>
  <linearGradient id="_lgradient_104-3" x1="0" x2="0" y1="1" y2="0" gradientTransform="matrix(21.860175,0,0,11.521367,12.538824,274.2043)" gradientUnits="userSpaceOnUse">
   <stop style="stop-color:#2f3943" id="stop69-6" offset="0%"/>
   <stop style="stop-color:#4d5662" id="stop71-7" offset="100%"/>
  </linearGradient>
  <linearGradient id="_lgradient_104-5" x1="0" x2="0" y1="1" y2="0" gradientTransform="matrix(32.630628,0,0,17.197916,0.23270919,271.04183)" gradientUnits="userSpaceOnUse">
   <stop style="stop-color:#2f3943" id="stop69-3" offset="0%"/>
   <stop style="stop-color:#4d5662" id="stop71-5" offset="100%"/>
  </linearGradient>
 </defs>
 <g id="layer1" transform="translate(0,-263.13332)">
  <g transform="translate(0.94251895,9.4960732)">
   <path d="m 15.858523,254.82786 c -0.374662,1e-5 -0.749206,0.0133 -1.122929,0.0398 -0.527891,0.0374 -1.053581,0.10125 -1.575098,0.1912 -0.521715,0.0899 -1.038609,0.20576 -1.548743,0.34727 -0.509984,0.1417 -1.012562,0.30883 -1.505851,0.50074 -0.4931555,0.19174 -0.9764162,0.40802 -1.4479726,0.64803 -0.4717646,0.24009 -0.9312257,0.50362 -1.3766612,0.78961 -0.4454091,0.28593 -0.8762394,0.59397 -1.2908767,0.92294 -0.4146064,0.32907 -0.8124951,0.67866 -1.1921752,1.04748 -0.3796611,0.36878 -0.7406412,0.75632 -1.0815878,1.16117 -0.340899,0.40473 -0.6613485,0.82625 -0.9601483,1.26298 -0.086322,0.13617 -0.170564,0.27364 -0.2526977,0.41237 -0.018841,0.27006 6.9397734,12.24262 7.0525348,12.10819 L 15.858523,263.48677 H 29.99771 c -0.237679,-0.46631 -0.498274,-0.92058 -0.78083,-1.36115 -0.285935,-0.44541 -0.593967,-0.87624 -0.922941,-1.29088 -0.329066,-0.41461 -0.678663,-0.8125 -1.04748,-1.19218 -0.368785,-0.37966 -0.756326,-0.74064 -1.161171,-1.08158 -0.404725,-0.3409 -0.826242,-0.66135 -1.262972,-0.96015 -0.436854,-0.29885 -0.88838,-0.57567 -1.352888,-0.82941 -0.464477,-0.25381 -0.941358,-0.48423 -1.428854,-0.6904 -0.487572,-0.20613 -0.985148,-0.38774 -1.490865,-0.54415 -0.505591,-0.15646 -1.01869,-0.28754 -1.537374,-0.39274 -0.518685,-0.10517 -1.042304,-0.18433 -1.568896,-0.23719 -0.526656,-0.0528 -1.055622,-0.0792 -1.584916,-0.0791 z" style="fill:#bc1938"/>
   <path d="m 2.5047649,262.16488 a 15.809427,15.809427 0 0 0 -0.5469779,0.89208 15.809427,15.809427 0 0 0 -0.6870956,1.42298 15.809427,15.809427 0 0 0 -0.54178832,1.4842 15.809427,15.809427 0 0 0 -0.39129172,1.53143 15.809427,15.809427 0 0 0 -0.23612417,1.56258 15.809427,15.809427 0 0 0 -0.07888089,1.57814 15.809427,15.809427 0 0 0 0.03944045,1.11835 15.809427,15.809427 0 0 0 0.19045614,1.5688 15.809427,15.809427 0 0 0 0.34614258,1.5418 15.809427,15.809427 0 0 0 0.49819623,1.49978 15.809427,15.809427 0 0 0 0.6455793,1.44218 15.809427,15.809427 0 0 0 0.786216,1.37107 15.809427,15.809427 0 0 0 0.9195872,1.28546 15.809427,15.809427 0 0 0 1.0425793,1.18684 15.809427,15.809427 0 0 0 1.1567494,1.07735 15.809427,15.809427 0 0 0 1.2579445,0.95643 15.809427,15.809427 0 0 0 1.3472065,0.82619 15.809427,15.809427 0 0 0 1.422973,0.68709 15.809427,15.809427 0 0 0 1.4842081,0.54178 15.809427,15.809427 0 0 0 1.531435,0.39129 15.809427,15.809427 0 0 0 1.562571,0.23613 15.809427,15.809427 0 0 0 0.906613,0.0452 l 6.9488,-12.15239 H 9.5563173 Z" style="fill:#f22c42"/>
   <path d="m 15.160504,286.41203 c 0.223955,0.016 0.477552,0.0271 0.701987,0.0336 0.373761,6e-5 0.747406,-0.0131 1.120235,-0.0395 0.526669,-0.0374 1.051139,-0.10103 1.571447,-0.19078 0.520263,-0.0898 1.035713,-0.20547 1.544417,-0.34672 0.508777,-0.1412 1.010173,-0.30775 1.502311,-0.49904 0.492014,-0.19134 0.974152,-0.40717 1.444609,-0.64667 0.470641,-0.23945 0.929011,-0.5023 1.373392,-0.78755 0.444296,-0.28538 0.87404,-0.59281 1.287621,-0.92113 0.413439,-0.32808 0.810218,-0.67663 1.188851,-1.04434 0.378819,-0.368 0.738992,-0.75472 1.079168,-1.15871 0.340155,-0.40379 0.659904,-0.82434 0.958049,-1.26007 0.298182,-0.43575 0.574384,-0.88614 0.827571,-1.34948 0.253034,-0.46335 0.482739,-0.93907 0.688254,-1.42537 0.205568,-0.48622 0.386696,-0.98241 0.542705,-1.48672 0.156146,-0.50448 0.28696,-1.01646 0.391951,-1.53401 0.104884,-0.51747 0.183824,-1.03986 0.236522,-1.56522 0.05267,-0.52529 0.07905,-1.05288 0.07902,-1.5808 5.4e-5,-0.37376 -0.01312,-0.74741 -0.03951,-1.12024 -0.03735,-0.52667 -0.101027,-1.05114 -0.190776,-1.57145 -0.08976,-0.52026 -0.20548,-1.03571 -0.346728,-1.54441 -0.141197,-0.50878 -0.307751,-1.01017 -0.499038,-1.50231 -0.191343,-0.49201 -0.407169,-0.97415 -0.64667,-1.44461 -0.01449,-0.0253 -0.02904,-0.0506 -0.04367,-0.0759 l -14.266902,0.0717 6.443984,10.83734 z" style="fill:#fa9381"/>
   <circle cx="15.859" cy="270.637" r="7.216" style="fill:#f1f1f1"/>
   <circle cx="15.942" cy="270.566" r="5.773" style="fill:#da1636"/>
  </g>
  <g clip-path="url(#b)" transform="matrix(0.18039773,0,0,0.18039773,-0.01817105,267.65725)">
   <linearGradient id="c" x1="29.337" x2="81.837" y1="75.021" y2="44.354" gradientUnits="userSpaceOnUse">
    <stop id="stop10" offset="0" stop-color="#A52714" stop-opacity=".6"/>
    <stop id="stop12" offset=".66" stop-color="#A52714" stop-opacity="0"/>
   </linearGradient>
  </g>
  <g clip-path="url(#b)" transform="matrix(0.18039773,0,0,0.18039773,-0.01817105,267.65725)">
   <linearGradient id="d" x1="110.87" x2="52.538" y1="164.5" y2="130.33" gradientUnits="userSpaceOnUse">
    <stop id="stop23" offset="0" stop-color="#055524" stop-opacity=".4"/>
    <stop id="stop25" offset=".33" stop-color="#055524" stop-opacity="0"/>
   </linearGradient>
  </g>
  <g clip-path="url(#b)" transform="matrix(0.18039773,0,0,0.18039773,-0.01817105,267.65725)">
   <path style="fill:url(#linearGradient954)" d="M 61.195312,123.85938 61.115234,124 H 64 a 60,60 0 0 1 -2.804688,-0.14062 z" transform="matrix(1.4666667,0,0,1.4666667,2.1333333,2.1333333)"/>
  </g>
  <g clip-path="url(#b-3)" transform="matrix(0.18039773,0,0,0.18039773,0.50909445,272.2404)">
   <linearGradient id="linearGradient1841" x1="29.337" x2="81.837" y1="75.021" y2="44.354" gradientUnits="userSpaceOnUse">
    <stop id="stop10-5" offset="0" stop-color="#A52714" stop-opacity=".6"/>
    <stop id="stop12-6" offset=".66" stop-color="#A52714" stop-opacity="0"/>
   </linearGradient>
  </g>
  <g clip-path="url(#b-3)" transform="matrix(0.18039773,0,0,0.18039773,0.50909445,272.2404)">
   <linearGradient id="linearGradient1847" x1="110.87" x2="52.538" y1="164.5" y2="130.33" gradientUnits="userSpaceOnUse">
    <stop id="stop23-1" offset="0" stop-color="#055524" stop-opacity=".4"/>
    <stop id="stop25-2" offset=".33" stop-color="#055524" stop-opacity="0"/>
   </linearGradient>
  </g>
  <g clip-path="url(#b-3)" transform="matrix(0.18039773,0,0,0.18039773,0.50909445,272.2404)">
   <path style="fill:url(#linearGradient954-7)" d="M 61.195312,123.85938 61.115234,124 H 64 a 60,60 0 0 1 -2.804688,-0.14062 z" transform="matrix(1.4666667,0,0,1.4666667,2.1333333,2.1333333)"/>
  </g>
 </g>
</svg>
