<?xml version="1.0" encoding="UTF-8" standalone="no"?>
<svg
   xmlns:dc="http://purl.org/dc/elements/1.1/"
   xmlns:cc="http://creativecommons.org/ns#"
   xmlns:rdf="http://www.w3.org/1999/02/22-rdf-syntax-ns#"
   xmlns:svg="http://www.w3.org/2000/svg"
   xmlns="http://www.w3.org/2000/svg"
   xmlns:sodipodi="http://sodipodi.sourceforge.net/DTD/sodipodi-0.dtd"
   xmlns:inkscape="http://www.inkscape.org/namespaces/inkscape"
   width="128"
   height="128"
   version="1.1"
   id="svg22"
   sodipodi:docname="google-drive.svg"
   inkscape:version="0.92.3 (2405546, 2018-03-11)">
  <metadata
     id="metadata28">
    <rdf:RDF>
      <cc:Work
         rdf:about="">
        <dc:format>image/svg+xml</dc:format>
        <dc:type
           rdf:resource="http://purl.org/dc/dcmitype/StillImage" />
        <dc:title></dc:title>
      </cc:Work>
    </rdf:RDF>
  </metadata>
  <defs
     id="defs26" />
  <sodipodi:namedview
     pagecolor="#ffffff"
     bordercolor="#666666"
     borderopacity="1"
     objecttolerance="10"
     gridtolerance="10"
     guidetolerance="10"
     inkscape:pageopacity="0"
     inkscape:pageshadow="2"
     inkscape:window-width="1920"
     inkscape:window-height="1009"
     id="namedview24"
     showgrid="false"
     inkscape:zoom="3.6875"
     inkscape:cx="32"
     inkscape:cy="32"
     inkscape:window-x="0"
     inkscape:window-y="34"
     inkscape:window-maximized="1"
     inkscape:current-layer="svg22" />
  <g
     transform="matrix(3.75,0,0,3.75,4.1425,1.5)"
     id="g8">
    <polyline
       style="fill:#537abd"
       points="31.868,21 9.868,21 4.868,30 26.556,30  "
       id="polyline2" />
    <polyline
       style="fill:#2eb672"
       points="10.962,2 -0.038,20 4.962,30 15.683,10.345  "
       id="polyline4" />
    <polyline
       style="fill:#fed14b"
       points="20.962,2 10.962,2 21.712,21 31.962,21 20.962,2  "
       id="polyline6" />
  </g>
  <g
     transform="matrix(3.75,0,0,3.75,4.1425,1.5)"
     id="g10" />
  <g
     transform="matrix(3.75,0,0,3.75,4.1425,1.5)"
     id="g12" />
  <g
     transform="matrix(3.75,0,0,3.75,4.1425,1.5)"
     id="g14" />
  <g
     transform="matrix(3.75,0,0,3.75,4.1425,1.5)"
     id="g16" />
  <g
     transform="matrix(3.75,0,0,3.75,4.1425,1.5)"
     id="g18" />
  <g
     transform="matrix(3.75,0,0,3.75,4.1425,1.5)"
     id="g20" />
</svg>
