<?xml version="1.0" encoding="UTF-8" standalone="no"?>
<!-- Created with Inkscape (http://www.inkscape.org/) -->

<svg
   xmlns:dc="http://purl.org/dc/elements/1.1/"
   xmlns:cc="http://creativecommons.org/ns#"
   xmlns:rdf="http://www.w3.org/1999/02/22-rdf-syntax-ns#"
   xmlns:svg="http://www.w3.org/2000/svg"
   xmlns="http://www.w3.org/2000/svg"
   xmlns:sodipodi="http://sodipodi.sourceforge.net/DTD/sodipodi-0.dtd"
   xmlns:inkscape="http://www.inkscape.org/namespaces/inkscape"
   width="128"
   height="128"
   viewBox="0 0 33.866666 33.866668"
   version="1.1"
   id="svg950"
   inkscape:version="0.92.3 (2405546, 2018-03-11)"
   sodipodi:docname="j.svg">
  <defs
     id="defs944" />
  <sodipodi:namedview
     id="base"
     pagecolor="#ffffff"
     bordercolor="#666666"
     borderopacity="1.0"
     inkscape:pageopacity="0.0"
     inkscape:pageshadow="2"
     inkscape:zoom="6.6783321"
     inkscape:cx="37.271788"
     inkscape:cy="31.529423"
     inkscape:document-units="mm"
     inkscape:current-layer="layer1"
     showgrid="false"
     units="px"
     inkscape:window-width="1920"
     inkscape:window-height="1009"
     inkscape:window-x="0"
     inkscape:window-y="34"
     inkscape:window-maximized="1" />
  <metadata
     id="metadata947">
    <rdf:RDF>
      <cc:Work
         rdf:about="">
        <dc:format>image/svg+xml</dc:format>
        <dc:type
           rdf:resource="http://purl.org/dc/dcmitype/StillImage" />
        <dc:title />
      </cc:Work>
    </rdf:RDF>
  </metadata>
  <g
     inkscape:label="Livello 1"
     inkscape:groupmode="layer"
     id="layer1"
     transform="translate(0,-263.13332)">
    <rect
       style="opacity:1;fill:#ffffff;fill-opacity:1;stroke:none;stroke-width:0.47624999;stroke-linecap:square;stroke-linejoin:bevel;stroke-miterlimit:4;stroke-dasharray:none;stroke-opacity:1"
       id="rect847"
       width="18.145124"
       height="8.9933262"
       x="8.5971441"
       y="281.82623"
       rx="1.8123724"
       ry="2.5049319" />
    <path
       d="m 22.411719,282.33466 0.03184,-0.003 v 0.0199 c 0.0079,2.26082 0.0017,4.52152 0.0032,6.78223 0.567042,9.3e-4 1.133618,4.5e-4 1.70031,4.5e-4 0.0013,-2.26071 -0.0044,-4.52188 0.0026,-6.7827 l 4.76e-4,-0.0203 0.02752,0.002 c 0.250048,0.0302 0.50243,0.012 0.753879,0.0147 2.130548,-10e-4 4.261566,-0.004 6.392232,0 0.246084,3.56308 0.477705,7.1271 0.721106,10.69018 0.02392,0.40727 0.07569,0.82561 -0.0372,1.22494 l -0.01013,0.0128 c -0.1045,0.11733 -0.164679,0.26335 -0.239437,0.39969 -0.399799,0.65253 -1.142598,1.09175 -1.912805,1.08417 -8.499921,-0.005 -16.999373,0.004 -25.4987894,8e-4 -0.26647,0 -0.538259,0.0136 -0.798116,-0.0562 -0.587464,-0.16027 -1.119984,-0.54502 -1.415695,-1.08291 -0.06196,-0.11767 -0.119543,-0.23862 -0.202321,-0.343 l -0.01061,-0.0147 c -0.142094,-0.5338 -0.02656,-1.0872 -0.0088,-1.62811 0.233711,-3.42722 0.456396,-6.85571 0.693254,-10.28304 2.832669,-0.007 5.665804,-0.004 8.4984854,-0.002 0.0027,0.16293 0.004,0.32586 0.0018,0.48879 0.897761,0.0173 1.837137,-0.0904 2.687583,0.26509 0.57404,0.22404 1.045564,0.70385 1.227037,1.29666 0.200132,0.65603 0.17704,1.38204 -0.05796,2.02617 -0.219143,0.60378 -0.744199,1.07029 -1.357309,1.25048 -0.74455,0.22054 -1.573653,0.20141 -2.290829,-0.10625 -0.558214,-0.2385 -1.013749,-0.71936 -1.185903,-1.30541 -0.08192,-0.2581 -0.113805,-0.52949 -0.118633,-0.79901 -0.5427254,0.003 -1.0854514,0.002 -1.6281884,4.5e-4 0.01017,0.68658 0.176632,1.38378 0.559951,1.96015 0.408604,0.63037 1.042544,1.0907 1.7371074,1.36081 0.880502,0.34347 1.853465,0.42009 2.784442,0.27757 0.905262,-0.14345 1.79198,-0.54896 2.406839,-1.24266 0.564827,-0.62687 0.856978,-1.4653 0.895582,-2.30153 0.05178,-0.79807 -0.132022,-1.63651 -0.638885,-2.27049 -0.285037,-0.37531 -0.676788,-0.64624 -1.076937,-0.88439 0.194768,-0.0244 0.391285,-0.019 0.587336,-0.0182 2.007157,-0.002 4.014313,4.5e-4 6.021354,-8.2e-4 0.251448,-0.005 0.50418,0.0154 0.754812,-0.0142"
       style="fill:#4177df;fill-opacity:1;fill-rule:nonzero;stroke:none;stroke-width:0.03527778"
       id="path52"
       inkscape:connector-curvature="0" />
    <path
       d="m 9.4735928,265.35511 c 0.239949,-0.0389 0.4997595,-0.0429 0.7246872,0.0633 0.332878,0.13412 0.568372,0.45275 0.648915,0.79633 0.02748,0.24433 0.0195,0.50336 -0.09603,0.72647 -0.209837,0.46126 -0.7680617,0.72729 -1.2580712,0.59935 -0.5029086,-0.11243 -0.8769911,-0.59631 -0.8721158,-1.11029 -0.00975,-0.50022 0.3732074,-0.95704 0.8526158,-1.07519"
       style="fill:#ffffff;fill-opacity:1;fill-rule:nonzero;stroke:none;stroke-width:0.03527778"
       id="path38"
       inkscape:connector-curvature="0" />
    <path
       d="m 23.8549,265.35336 c 0.243052,-0.0381 0.505113,-0.0386 0.730787,0.073 0.373674,0.16468 0.626872,0.55468 0.65393,0.95879 -4.76e-4,0.31128 -0.104498,0.6362 -0.335187,0.85395 -0.196051,0.20678 -0.478522,0.32096 -0.760527,0.33379 -0.43642,0.006 -0.876455,-0.25449 -1.047314,-0.66186 -0.110679,-0.21728 -0.09692,-0.4678 -0.08281,-0.70338 0.08281,-0.4152 0.430704,-0.75832 0.841116,-0.8543"
       style="fill:#ffffff;fill-opacity:1;fill-rule:nonzero;stroke:none;stroke-width:0.03527778"
       id="path40"
       inkscape:connector-curvature="0" />
    <path
       d="m 23.8549,265.35336 c -0.410412,0.096 -0.758311,0.4391 -0.841116,0.8543 -0.01411,0.23558 -0.02787,0.4861 0.08281,0.70338 0.170859,0.40737 0.610894,0.66804 1.047314,0.66186 0.282005,-0.0128 0.564476,-0.12701 0.760527,-0.33379 0.230689,-0.21775 0.334721,-0.54267 0.335187,-0.85395 -0.02706,-0.40411 -0.280256,-0.79411 -0.65393,-0.95879 -0.225674,-0.11161 -0.487735,-0.11114 -0.730787,-0.073 z m -14.3813072,0.002 c -0.4794084,0.11814 -0.862366,0.57497 -0.8526158,1.07518 -0.00488,0.51398 0.3692072,0.99787 0.8721158,1.11029 0.4900095,0.12795 1.0482342,-0.13808 1.2580712,-0.59934 0.115531,-0.22311 0.123508,-0.48214 0.09603,-0.72648 -0.08054,-0.34358 -0.316037,-0.66221 -0.648915,-0.79633 -0.2249277,-0.10624 -0.4847382,-0.10228 -0.7246872,-0.0633 z m -5.5024907,-0.98854 c 0.3585824,-0.1571 0.755209,-0.18112 1.1416769,-0.17132 7.968668,9.1e-4 15.93735,0 23.905915,-3.6e-4 0.869456,-0.0147 1.716289,0.52273 2.067804,1.31906 0.148233,0.31384 0.211095,0.66233 0.204912,1.00847 -0.0035,0.77476 0.008,1.5494 -0.0044,2.32357 -0.257164,-0.0978 -0.53427,-0.12397 -0.807413,-0.12572 -9.016461,0.002 -18.032934,9.2e-4 -27.049418,10e-4 -0.2855038,0.007 -0.5777137,0.0199 -0.8472745,0.12479 -0.011545,-0.80472 -0.00534,-1.60956 -0.00799,-2.41394 -0.00533,-0.88707 0.5723837,-1.7388 1.3962044,-2.06594"
       style="fill:#c7c6c4;fill-opacity:1;fill-rule:nonzero;stroke:none;stroke-width:0.03527778"
       id="path44"
       inkscape:connector-curvature="0" />
    <path
       d="m 2.5828749,268.84647 c 0.2695609,-0.10485 0.5617707,-0.11733 0.8472745,-0.12479 9.0164836,-4.5e-4 18.0329566,3.4e-4 27.0494176,-10e-4 0.273143,0.002 0.550249,0.0279 0.807414,0.12573 0.779187,0.28119 1.410372,1.00276 1.491895,1.83851 -0.158496,-0.57287 -0.501147,-1.10586 -1.013375,-1.42145 -0.370875,-0.23151 -0.803913,-0.36516 -1.242082,-0.36131 -9.045268,0.006 -18.090956,0.006 -27.1366433,0.006 -0.6813138,-0.0125 -1.367906,0.28154 -1.802161,0.81185 -0.2107037,0.22532 -0.3209527,0.51619 -0.4683318,0.7814 0.1460577,-0.76239 0.7423606,-1.39766 1.466592,-1.65482"
       style="fill:#5777c4;fill-opacity:1;fill-rule:nonzero;stroke:none;stroke-width:0.03527778"
       id="path50"
       inkscape:connector-curvature="0" />
    <path
       d="m 1.5846147,269.71989 c 0.434255,-0.5303 1.1208472,-0.82432 1.802161,-0.81185 9.0456873,0 18.0913753,0 27.1366433,-0.006 0.438169,-0.004 0.871207,0.12981 1.242082,0.36131 0.512228,0.31559 0.854879,0.84858 1.013375,1.42145 0.04374,0.20224 0.03184,0.41216 0.0089,0.61661 -0.491467,3.68088 -1.000895,7.35954 -1.485715,11.04135 -2.044711,-0.004 -4.089423,0.002 -6.133667,-4.5e-4 -0.340902,-0.003 -0.68227,0.0128 -1.022589,-0.006 l -0.02752,-0.002 c 0.0054,-2.26829 -0.0035,-4.53704 0.0044,-6.80532 -0.134938,-0.0106 -0.273958,-0.0133 -0.401432,0.0393 -1.569804,0.55608 -3.143924,1.10143 -4.712795,1.66054 0.0057,0.51223 -4.76e-4,1.02434 0.003,1.53656 1.134667,-0.37495 2.266536,-0.75831 3.400737,-1.13548 -0.0017,1.56841 -0.0014,3.13635 -4.76e-4,4.70475 l -0.03184,0.003 c -2.375933,0.0177 -4.752681,4.5e-4 -7.128498,0.009 -0.117327,-0.003 -0.241302,0.0336 -0.352797,-0.0155 -0.133655,-0.0678 -0.273608,-0.12222 -0.41706,-0.1656 1.004045,-0.44447 1.863239,-1.34309 2.033748,-2.45548 0.07966,-0.69463 -0.0036,-1.41305 -0.265677,-2.0629 -0.262878,-0.65079 -0.745482,-1.2099 -1.354977,-1.55908 -0.770673,-0.44761 -1.682699,-0.59013 -2.563551,-0.55911 -0.888011,0.0331 -1.777388,0.31291 -2.4878587,0.8543 -0.6246329,0.46931 -1.0898709,1.15228 -1.2784807,1.91245 -0.078362,0.29169 -0.1013608,0.59445 -0.111986,0.89547 0.5484755,-0.002 1.096939,0.009 1.6449934,-0.005 -0.01508,-0.71668 0.299686,-1.45516 0.89466,-1.87351 0.604236,-0.43688 1.393569,-0.50861 2.113393,-0.40807 0.533337,0.0792 1.06679,0.32982 1.381567,0.78222 0.400149,0.57147 0.468376,1.30984 0.388603,1.98499 -0.09248,0.70863 -0.580804,1.33644 -1.2373,1.61354 -0.799014,0.3745 -1.699844,0.27 -2.55373,0.29041 l -0.02127,4.5e-4 c 0.0088,0.25716 -0.0013,0.51479 0.0058,0.77242 -2.8340341,-0.004 -5.668487,-0.005 -8.5029867,4.6e-4 -0.483417,-3.60658 -0.9743459,-7.21212 -1.4603992,-10.81824 -0.055762,-0.33997 -0.074805,-0.69276 0.010205,-1.02912 0.1473791,-0.26521 0.2576281,-0.55608 0.4683318,-0.7814"
       style="fill:#3866d0;fill-opacity:1;fill-rule:nonzero;stroke:none;stroke-width:0.03527778"
       id="path54"
       inkscape:connector-curvature="0" />
    <path
       d="m 1.8984612,294.28149 c 0.082777,0.10439 0.1403622,0.22533 0.2023205,0.34301 0.295711,0.53788 0.8282316,0.92264 1.415707,1.08288 0.2598574,0.0699 0.5316458,0.0562 0.7981159,0.0562 8.4994164,0.003 16.9988684,-0.006 25.4987874,-7.9e-4 0.770207,0.008 1.513006,-0.43164 1.912805,-1.08417 0.07476,-0.13634 0.13494,-0.28236 0.239437,-0.39968 -0.187653,0.72647 -0.772073,1.32932 -1.486532,1.55336 -0.398399,0.13902 -0.825606,0.10403 -1.239515,0.10846 -8.278445,0 -16.557016,-5.3e-4 -24.8355524,-5.3e-4 -0.3302421,0.003 -0.6680066,0.006 -0.9858162,-0.0974 -0.7286994,-0.216 -1.3275961,-0.82467 -1.5197572,-1.5613"
       style="fill:#475db4;fill-opacity:1;fill-rule:nonzero;stroke:none;stroke-width:0.03527778"
       id="path56"
       inkscape:connector-curvature="0" />
    <path
       style="fill:#4382ee;fill-opacity:1;stroke:none;stroke-width:0.99999994px;stroke-linecap:butt;stroke-linejoin:miter;stroke-opacity:1"
       d="M 60.060547 123.32422 L 9.7226562 72.650391 C 8.8274932 85.603431 7.9848343 98.561047 7.1015625 111.51367 C 7.0680759 112.53586 6.9429848 113.57093 6.8925781 114.60156 C 6.8421715 115.6322 6.8662413 116.65921 7.1347656 117.66797 L 7.1757812 117.72266 C 7.4886407 118.11716 7.7052812 118.57479 7.9394531 119.01953 C 8.4982771 120.03602 9.2827026 120.90819 10.203125 121.60156 C 11.123547 122.29494 12.180826 122.80849 13.291016 123.11133 C 14.273153 123.37514 15.299509 123.32422 16.306641 123.32422 C 30.890722 123.32973 45.476258 123.32846 60.060547 123.32422 z "
       id="path1553"
       transform="matrix(0.26458333,0,0,0.26458333,0,263.13332)" />
    <path
       d="m -2.4834847,281.11248 c 0.568791,-0.003 1.137699,-0.003 1.70602403,0 -0.007,2.26083 -0.0013,4.522 -0.0026,6.7827 -0.56669303,0 -1.13326803,4.5e-4 -1.70031003,-4.5e-4 -0.0014,-2.2607 0.0048,-4.52141 -0.0032,-6.78223"
       style="fill:#ffffff;fill-opacity:1;fill-rule:nonzero;stroke:none;stroke-width:0.03527778"
       id="path42"
       inkscape:connector-curvature="0" />
    <path
       d="m 23.721189,275.56824 c 0.127473,-0.0526 0.266493,-0.0499 0.401431,-0.0393 -0.0079,2.26829 9.26e-4,4.53703 -0.0044,6.80532 l -4.76e-4,0.0203 c -0.568325,-0.003 -1.137233,-0.003 -1.706025,0 v -0.0199 c -9.26e-4,-1.5684 -0.0013,-3.13634 4.76e-4,-4.70475 -1.134201,0.37718 -2.26607,0.76053 -3.400738,1.13549 -0.0035,-0.51223 0.0027,-1.02434 -0.003,-1.53657 1.568872,-0.55911 3.142992,-1.10446 4.712796,-1.66054"
       style="fill:#c7c6c4;fill-opacity:1;fill-rule:nonzero;stroke:none;stroke-width:0.03527778"
       id="path46"
       inkscape:connector-curvature="0" />
    <path
       d="m 9.8432087,276.3833 c 0.7104703,-0.54139 1.5998473,-0.82118 2.4878583,-0.8543 0.880852,-0.031 1.792878,0.11149 2.563551,0.55911 0.609495,0.34918 1.092099,0.90829 1.354977,1.55908 0.262062,0.64984 0.345333,1.36827 0.265677,2.0629 -0.170509,1.11239 -1.029703,2.01101 -2.033748,2.45547 0.143452,0.0434 0.283405,0.0978 0.417059,0.16561 -0.08805,0.0168 -0.17704,0.0266 -0.266493,0.0239 -1.184584,-0.008 -2.369227,0.008 -3.552946,-0.008 -0.0044,-0.25728 -0.01061,-0.51491 0.0058,-0.7716 0.853887,-0.0204 1.754716,0.0841 2.553731,-0.29041 0.656495,-0.2771 1.144814,-0.90491 1.237299,-1.61354 0.07977,-0.67515 0.01155,-1.41352 -0.388602,-1.98499 -0.314777,-0.4524 -0.848231,-0.70303 -1.381568,-0.78223 -0.719824,-0.10053 -1.509156,-0.0288 -2.113391,0.40808 -0.594975,0.41835 -0.90974,1.15683 -0.89466,1.87351 -0.5480553,0.0146 -1.0965193,0.003 -1.6449943,0.005 0.01063,-0.30101 0.03362,-0.60378 0.111986,-0.89546 0.188609,-0.76018 0.653847,-1.44315 1.27848,-1.91245"
       style="fill:#c7c6c4;fill-opacity:1;fill-rule:nonzero;stroke:none;stroke-width:0.03527778"
       id="path48"
       inkscape:connector-curvature="0" />
  </g>
</svg>
