<svg xmlns="http://www.w3.org/2000/svg" xmlns:xlink="http://www.w3.org/1999/xlink" width="128" height="128" version="1.0">
 <defs>
  <linearGradient id="a">
   <stop id="stop2" offset="0" stop-color="#68676b"/>
   <stop id="stop4" offset=".8" stop-color="#424048"/>
   <stop id="stop6" offset="1" stop-color="#241f31"/>
  </linearGradient>
  <radialGradient id="d" cx="279.422" cy="446.483" r="224" fx="279.422" fy="446.483" gradientTransform="matrix(1.34416 .0006 -.00062 1.38763 -121.22 -718.103)" gradientUnits="userSpaceOnUse" xlink:href="#a"/>
  <linearGradient id="e" x1="43.844" x2="-60" y1="234" y2="234" gradientTransform="matrix(1.0015,0,0,0.99993,72.09,-115.985)" gradientUnits="userSpaceOnUse" xlink:href="#b"/>
  <linearGradient id="b">
   <stop style="stop-color:#57e389" id="stop11" offset="0" stop-color="#d5d3cf"/>
   <stop style="stop-color:#8ff0a4" id="stop13" offset=".038" stop-color="#e3e2df"/>
   <stop style="stop-color:#26a269" id="stop15" offset=".077" stop-color="#c0bfbc"/>
   <stop style="stop-color:#26a269" id="stop17" offset=".923" stop-color="#c0bfbc"/>
   <stop style="stop-color:#8ff0a4" id="stop19" offset=".962" stop-color="#e3e2df"/>
   <stop style="stop-color:#57e389" id="stop21" offset="1" stop-color="#d5d3cf"/>
  </linearGradient>
 </defs>
 <rect width="104" height="48" x="12" y="68" rx="8" ry="8" style="fill:url(#e)"/>
 <path style="fill:#2ec27e" d="m 20,10 c -4.432,0 -8,3.568 -8,8 v 42 42 c 0,4.432 3.568,8 8,8 h 44 44 c 4.432,0 8,-3.568 8,-8 v -42 -42 c 0,-4.432 -3.568,-8 -8,-8 z"/>
 <path style="fill:#f6f5f4;fill-opacity:0.989601" d="m 29.20280214,42 c -2.55263867,0 -4.60768223,2.05504357 -4.60768223,4.60768223 v 26.78711814 c 10e-9,2.55263863 2.05504356,4.60519963 4.60768223,4.60519963 h 45.59520033 c 2.55263864,0 4.60768223,-2.052561 4.60768223,-4.60519963 v -26.78711814 c 0,-2.55263863 -2.05504359,-4.60768223 -4.60768223,-4.60768223 z m 70.25722364,4.27501553 a 3.921651035,3.921651035 0 0 0 -1.77504999,0.43693538 l -15.84139026,8.17267775 v 10.94572787 l 15.54347976,7.22929453 a 4.189170442,4.189170442 0 0 0 5.95572721,-3.78346321 l 0.062065,-19.06627128 a 3.921651035,3.921651035 0 0 0 -3.94483172,-3.93490104 z m -58.68836633,3.06103027 h 22.87952555 c 5.74178043,0 10.42438453,4.68260412 10.42438453,10.42438452 0,5.74178036 -4.6826041,10.42438452 -10.42438453,10.42438452 -5.74178036,0 -10.42190195,-4.68260413 -10.42190192,-10.42438452 -3e-8,-3.12379512 1.39206782,-5.92670177 3.57989102,-7.84001104 h -9.19550375 c 2.18872954,1.9133167 3.58237364,4.71602141 3.58237364,7.84001104 0,5.74178039 -4.68260414,10.42438452 -10.42438454,10.42438452 -5.74178038,0 -10.42190193,-4.68260413 -10.42190192,-10.42438452 -1e-8,-5.74178039 4.68012154,-10.42438452 10.42190192,-10.42438452 z m 0,2.5620302 c -4.35648679,0 -7.85987173,3.50586752 -7.85987172,7.86235432 -1e-8,4.35648679 3.50338493,7.85987179 7.85987172,7.85987172 4.35648682,4e-8 7.86235433,-3.50338493 7.86235433,-7.85987172 0,-4.20317238 -3.26580463,-7.60510926 -7.40804082,-7.84001104 h -0.45431351 z m 22.87952555,0 v 0.0223433 h -0.45431348 c -4.14207354,0.23490178 -7.40555826,3.63683866 -7.40555824,7.84001104 -2e-8,4.35648679 3.50338497,7.85987176 7.85987172,7.85987172 4.35648684,4e-8 7.86235433,-3.50338493 7.86235433,-7.85987172 0,-4.35648684 -3.50586749,-7.86235432 -7.86235433,-7.86235434 z"/>
</svg>
