<svg xmlns="http://www.w3.org/2000/svg" xmlns:xlink="http://www.w3.org/1999/xlink" style="enable-background:new" width="128" height="128" version="1.0" viewBox="0 0 128 128">
 <title id="title4162">
  Adwaita Icon Template
 </title>
 <defs>
  <linearGradient id="linearGradient950">
   <stop style="stop-color:#9a9996" id="stop946" offset="0"/>
   <stop style="stop-color:#77767b" id="stop948" offset="1"/>
  </linearGradient>
  <linearGradient id="linearGradient1001" x1="1660.857" x2="1662.99" y1="806.297" y2="812.882" gradientTransform="matrix(1.8293937,-0.81599442,0.81599442,1.8293937,-3645.9624,100.02949)" gradientUnits="userSpaceOnUse" xlink:href="#linearGradient950"/>
  <clipPath id="clipPath5154" clipPathUnits="userSpaceOnUse">
   <circle cx="128" cy="924.362" r="109.647" style="fill:url(#radialGradient5158)"/>
  </clipPath>
  <clipPath id="clipPath977" clipPathUnits="userSpaceOnUse">
   <circle cx="128" cy="924.362" r="109.647" style="fill:url(#radialGradient5158)"/>
  </clipPath>
  <clipPath id="clipPath4688" clipPathUnits="userSpaceOnUse">
   <path d="m 106.42383,889.60156 c -2.2448,-0.0524 -4.09304,1.75264 -4.09375,3.99805 v 32.64453 32.64453 c -4e-5,3.07923 3.33305,5.004 6,3.46485 l 28.26953,-16.32227 28.27148,-16.32227 c 2.66559,-1.54001 2.66559,-5.38772 0,-6.92773 l -28.27148,-16.32227 -28.26953,-16.32226 c -0.58054,-0.3353 -1.23603,-0.51932 -1.90625,-0.53516 z" style="fill:url(#radialGradient4692);stroke:#a7003f;stroke-linecap:round;stroke-linejoin:round"/>
  </clipPath>
  <clipPath id="clipPath4564" clipPathUnits="userSpaceOnUse">
   <circle style="fill:url(#radialGradient4568)" cx="128" cy="924.362" r="109.647"/>
  </clipPath>
  <clipPath id="clipPath6215" clipPathUnits="userSpaceOnUse">
   <path d="m 105.17325,806.18572 c -3.06859,0.56361 -6.11393,1.24721 -9.129005,2.04923 -3.838255,1.06506 -7.62084,2.32142 -11.333578,3.76438 -3.712189,1.44307 -7.34989,3.07087 -10.899472,4.87732 -3.549153,1.80656 -7.005749,3.78947 -10.35684,5.94129 -3.351877,2.15253 -6.593991,4.47137 -9.714191,6.94783 -3.119992,2.47544 -6.114241,5.10535 -8.971529,7.87988 -0.367219,0.38909 -0.731819,0.78065 -1.093777,1.17464 2.60205,17.85956 16.832359,40.03752 30.863064,55.74236 -4.76734,8.84435 -7.265993,18.73329 -7.272057,28.78068 0.02104,2.87431 0.246096,5.7435 0.673482,8.58593 -20.257302,-9.18513 -43.077023,-26.53494 -52.798465,-47.36396 -0.440667,1.15171 -0.863474,2.31018 -1.268271,3.47498 -1.176789,3.80495 -2.162562,7.66637 -2.953625,11.56979 -0.79154,3.90311 -1.3874065,7.84335 -1.7853678,11.80598 -0.39733,3.96334 -0.5961891,7.94407 -0.5958321,11.92728 -4.394e-4,2.81936 0.098928,5.63785 0.2979155,8.45018 0.282275,3.97319 0.763088,7.92978 1.4406374,11.85493 0.625626,3.51826 1.408798,7.00668 2.347153,10.45473 16.778133,6.68355 43.114514,5.45001 63.748015,1.14301 6.818545,11.02763 16.987182,19.58379 29.018153,24.41667 -18.071844,12.93645 -44.490188,24.02095 -67.37308,22.03245 1.384097,1.665 2.813203,3.2921 4.285735,4.8794 2.774977,2.8571 5.691103,5.5737 8.737453,8.1395 3.046107,2.5658 6.218619,4.9777 9.505651,7.2266 3.287242,2.2488 6.684891,4.3319 10.180217,6.2413 3.495379,1.9096 7.084075,3.6433 10.752641,5.1944 3.66896,1.5509 7.413193,2.9174 11.218668,4.0942 1.438565,0.3959 2.884421,0.7648 4.336807,1.1066 14.138748,-11.1844 26.206378,-34.5828 32.780368,-54.56406 12.95816,-0.38251 25.45395,-4.90132 35.65955,-12.89544 2.15922,22.12638 -1.46693,50.5581 -14.64692,69.3832 3.06859,-0.5636 6.11393,-1.2473 9.129,-2.0493 3.83826,-1.0651 7.62084,-2.3214 11.33358,-3.7644 3.71219,-1.4431 7.34989,-3.0709 10.89947,-4.8773 3.54915,-1.8066 7.00575,-3.7895 10.35684,-5.9413 3.35188,-2.1525 6.59399,-4.4714 9.71419,-6.9478 3.11999,-2.4754 6.11424,-5.1054 8.97153,-7.8799 0.36722,-0.3891 0.73182,-0.7806 1.09378,-1.1746 -2.60204,-17.85957 -16.83236,-40.03755 -30.86307,-55.74238 4.76735,-8.84435 7.266,-18.7333 7.27207,-28.78069 -0.021,-2.8743 -0.24611,-5.74349 -0.6735,-8.58592 20.25731,9.18513 43.07704,26.53494 52.79848,47.36396 0.44067,-1.15171 0.86347,-2.31018 1.26827,-3.47499 1.17679,-3.80495 2.16256,-7.66636 2.95362,-11.56978 0.79154,-3.90311 1.38741,-7.84335 1.78537,-11.80598 0.39733,-3.96334 0.59619,-7.94408 0.59583,-11.92729 4.4e-4,-2.81936 -0.0989,-5.63784 -0.29791,-8.45017 -0.28228,-3.97319 -0.76309,-7.92978 -1.44064,-11.85493 -0.62776,-3.53416 -1.41449,-7.03823 -2.35779,-10.50154 -20.56165,-7.32804 -45.89823,-4.79548 -63.74906,-1.11372 -6.81835,-11.01918 -16.98234,-19.56874 -29.00647,-24.39915 18.07184,-12.93645 44.49019,-24.02091 67.37307,-22.03241 -1.38409,-1.66502 -2.8132,-3.2921 -4.28573,-4.87944 -2.77498,-2.85712 -5.6911,-5.57368 -8.73745,-8.13949 -3.04611,-2.56581 -6.21862,-4.97769 -9.50565,-7.22659 -3.28724,-2.24885 -6.68489,-4.3319 -10.18022,-6.24135 -3.49538,-1.90963 -7.08407,-3.64325 -10.75264,-5.19438 -3.66896,-1.55092 -7.41319,-2.91736 -11.21867,-4.09421 -1.42662,-0.39262 -2.86041,-0.75869 -4.30063,-1.09804 -14.14688,11.18369 -26.2293,34.57475 -32.8107,54.55552 -12.96018,0.38127 -25.4582,4.90015 -35.665394,12.89544 -2.15922,-22.12637 1.466931,-50.55807 14.646924,-69.38315 z" style="fill:url(#radialGradient6219)"/>
  </clipPath>
  <linearGradient id="linearGradient1030" x1="-727.561" x2="-561.09" y1="467.184" y2="633.655" gradientTransform="matrix(0.2191384,0,0,0.2191384,-14.694878,32.234034)" gradientUnits="userSpaceOnUse" xlink:href="#linearGradient1026"/>
  <linearGradient id="linearGradient1026">
   <stop style="stop-color:#000000;stop-opacity:0.348" id="stop1022" offset="0"/>
   <stop style="stop-color:#1ba261;stop-opacity:0" id="stop1024" offset="1"/>
  </linearGradient>
 </defs>
 <g transform="matrix(1.5924867,0,0,1.5924867,317.19707,-172.75314)">
  <path d="m -159.39844,111.31387 -0.0703,0.13086 c -17.78199,0.69341 -32.06635,15.06338 -32.06641,32.80078 7e-5,17.61713 14.09763,31.88995 31.71094,32.76367 v 11.52539 l 2.91406,-1.3086 c 13.26543,-5.94939 23.78178,-16.62436 29.375,-29.92773 l -0.0488,0.10742 0.2207,-0.4414 v -0.19922 c 1.66154,-3.97315 2.57013,-8.21731 2.57422,-12.51953 v -0.002 c -0.001,-18.17837 -14.9754,-32.92954 -33.37305,-32.92968 z m 1.23633,4.13671 c 16.19475,1.4e-4 29.23526,12.88077 29.23633,28.79297 -0.004,3.91812 -0.82031,7.79472 -2.39844,11.39258 l 0.01,-0.0195 -0.0254,0.0625 c -0.004,0.009 -0.01,0.0165 -0.0137,0.0254 l -0.14648,0.33594 v -0.0527 l 0.0762,-0.15234 c -4.76178,11.22858 -13.42221,20.27048 -24.26367,25.96875 v -5.90039 c 0,-0.18762 0.004,-0.31955 0.004,-0.49805 -5.3e-4,-0.1785 0.097,-0.40702 -0.21289,-1.08593 -0.15493,-0.33946 -0.51426,-0.76757 -0.89649,-0.98633 -0.38223,-0.21877 -0.69249,-0.26107 -0.87891,-0.28125 -0.37283,-0.0404 -0.42308,-0.0137 -0.49023,-0.0137 -16.19569,9e-5 -29.23627,-12.87971 -29.23633,-28.79296 5e-5,-15.91327 13.04079,-28.79501 29.23633,-28.79493 z m 30.63477,41.83008 -0.006,0.0117 c 2.5e-4,-5.7e-4 -2.5e-4,-0.001 0,-0.002 10e-4,-0.004 0.004,-0.006 0.006,-0.01 z" style="fill:#deddda;paint-order:markers stroke fill"/>
  <path d="m -158.16211,112.10938 c 17.2962,1.4e-4 31.30355,13.81603 31.30469,30.86132 -0.004,4.2066 -0.87969,8.36953 -2.57422,12.23047 v 0.002 l -0.002,0.004 c -5.3856,12.82188 -15.5215,23.11838 -28.32227,28.85938 0,0 0,-8.56347 0,-9.43555 0,-0.87208 0.0769,-0.79689 -0.40627,-0.79689 -17.29704,9e-5 -31.30463,-13.81496 -31.30469,-30.86132 5e-5,-17.04637 14.00765,-30.86337 31.30469,-30.86328 z" style="fill:#18a15f;paint-order:markers stroke fill"/>
  <path d="m -174.13143,134.6119 v 13.66918 h 7.55385 v 8.08244 a 7.4204148,8.2181093 0 0 0 6.11576,-8.08244 7.4204148,8.2181093 0 0 0 -4.3e-4,-0.0137 v -13.65549 z" style="fill:#ffffff;paint-order:markers stroke fill"/>
  <path style="fill:#ffffff;paint-order:markers stroke fill" d="m -155.97965,134.6119 v 13.66919 h 7.55385 v 8.08244 a 7.420415,8.2181094 0 0 0 6.11576,-8.08244 7.420415,8.2181094 0 0 0 -4.4e-4,-0.0137 V 134.6119 Z"/>
  <path style="fill:#f6f5f4;paint-order:markers stroke fill" d="m -159.39844,110.04102 -0.0703,0.13086 c -17.78199,0.69341 -32.06635,15.06338 -32.06641,32.80078 7e-5,17.61713 14.09763,31.88995 31.71094,32.76367 v 11.52539 l 2.91406,-1.3086 c 13.26543,-5.94939 23.78178,-16.62436 29.375,-29.92773 l -0.0488,0.10742 0.2207,-0.4414 v -0.19922 c 1.66154,-3.97315 2.57013,-8.21731 2.57422,-12.51953 v -0.002 c -0.001,-18.17837 -14.9754,-32.92954 -33.37305,-32.92968 z m 1.23633,4.13671 c 16.19475,1.4e-4 29.23526,12.88077 29.23633,28.79297 -0.004,3.91812 -0.82031,7.79472 -2.39844,11.39258 l 0.01,-0.0195 -0.0254,0.0625 c -0.004,0.009 -0.01,0.0165 -0.0137,0.0254 l -0.14648,0.33594 v -0.0527 l 0.0762,-0.15234 c -4.76178,11.22858 -13.42221,20.27048 -24.26367,25.96875 v -5.90039 c 0,-0.18762 0.004,-0.31955 0.004,-0.49805 -5.3e-4,-0.1785 0.097,-0.40702 -0.21289,-1.08593 -0.15493,-0.33946 -0.51426,-0.76757 -0.89649,-0.98633 -0.38223,-0.21877 -0.69249,-0.26107 -0.87891,-0.28125 -0.37283,-0.0404 -0.42308,-0.0137 -0.49023,-0.0137 -16.19569,9e-5 -29.23627,-12.87971 -29.23633,-28.79296 5e-5,-15.91327 13.04079,-28.79501 29.23633,-28.79493 z m 30.63477,41.83008 -0.006,0.0117 c 2.5e-4,-5.7e-4 -2.5e-4,-0.001 0,-0.002 10e-4,-0.004 0.004,-0.006 0.006,-0.01 z"/>
 </g>
 <path d="m 65.17683,9.073472 a 46.38346,46.38346 0 0 0 -46.38346,46.38346 46.38346,46.38346 0 0 0 0.03566,1.005748 46.38346,46.38346 0 0 1 46.347813,-45.671303 46.38346,46.38346 0 0 1 46.347787,45.37688 46.38346,46.38346 0 0 0 0.0356,-0.711325 46.38346,46.38346 0 0 0 -46.383438,-46.38346 z" style="opacity:0.1"/>
</svg>
