<?xml version="1.0" encoding="UTF-8" standalone="no"?>
<svg
   xmlns:dc="http://purl.org/dc/elements/1.1/"
   xmlns:cc="http://creativecommons.org/ns#"
   xmlns:rdf="http://www.w3.org/1999/02/22-rdf-syntax-ns#"
   xmlns:svg="http://www.w3.org/2000/svg"
   xmlns="http://www.w3.org/2000/svg"
   xmlns:xlink="http://www.w3.org/1999/xlink"
   xmlns:sodipodi="http://sodipodi.sourceforge.net/DTD/sodipodi-0.dtd"
   xmlns:inkscape="http://www.inkscape.org/namespaces/inkscape"
   viewBox="0 0 128 128"
   style="display:inline;enable-background:new"
   version="1.0"
   id="svg11300"
   height="128"
   width="128"
   sodipodi:docname="imagination.svg"
   inkscape:version="0.92.3 (2405546, 2018-03-11)">
  <sodipodi:namedview
     pagecolor="#ffffff"
     bordercolor="#666666"
     borderopacity="1"
     objecttolerance="10"
     gridtolerance="10"
     guidetolerance="10"
     inkscape:pageopacity="0"
     inkscape:pageshadow="2"
     inkscape:window-width="1853"
     inkscape:window-height="1009"
     id="namedview24"
     showgrid="false"
     inkscape:zoom="6.5234375"
     inkscape:cx="64"
     inkscape:cy="64"
     inkscape:window-x="67"
     inkscape:window-y="34"
     inkscape:window-maximized="1"
     inkscape:current-layer="g81624" />
  <title
     id="title4162">Adwaita Icon Template</title>
  <defs
     id="defs3">
    <linearGradient
       id="linearGradient950">
      <stop
         style="stop-color:#9a9996;stop-opacity:1"
         offset="0"
         id="stop946" />
      <stop
         style="stop-color:#77767b;stop-opacity:1"
         offset="1"
         id="stop948" />
    </linearGradient>
    <linearGradient
       y2="812.88245"
       x2="1662.9901"
       y1="806.29718"
       x1="1660.8571"
       gradientTransform="matrix(1.8293937,-0.81599442,0.81599442,1.8293937,-3645.9624,100.02949)"
       gradientUnits="userSpaceOnUse"
       id="linearGradient1001"
       xlink:href="#linearGradient950" />
    <linearGradient
       id="linearGradient2911-613-519-4">
      <stop
         offset="0"
         id="stop7648-1"
         style="stop-color:#ffffe0;stop-opacity:1;" />
      <stop
         offset="1"
         id="stop7650-3"
         style="stop-color:#ffe588;stop-opacity:0;" />
    </linearGradient>
    <clipPath
       id="clipPath1599"
       clipPathUnits="userSpaceOnUse">
      <path
         inkscape:connector-curvature="0"
         id="path1601"
         d="M 492.30769,-59.384613 393.84615,-197.23077 H 147.6923 v 482.46154 h 344.61539 z"
         style="fill:#1c71d8;stroke:none;stroke-width:1px;stroke-linecap:butt;stroke-linejoin:miter;stroke-opacity:1" />
    </clipPath>
    <radialGradient
       r="160"
       fy="55.927143"
       fx="131.91475"
       cy="55.927143"
       cx="131.91475"
       gradientTransform="matrix(1.0125135,2.1002674,-1.6092836,0.11574215,-4.6063107,-300.00018)"
       gradientUnits="userSpaceOnUse"
       id="radialGradient2561"
       xlink:href="#linearGradient1722" />
    <linearGradient
       id="linearGradient1722">
      <stop
         style="stop-color:#e01b24;stop-opacity:1"
         offset="0"
         id="stop1718" />
      <stop
         style="stop-color:#f8e45c;stop-opacity:1"
         offset="1"
         id="stop1720" />
    </linearGradient>
    <radialGradient
       r="192"
       fy="638.5918"
       fx="525.58777"
       cy="638.5918"
       cx="525.58777"
       gradientTransform="matrix(-0.56672219,1.0065537,-1.1024699,-0.69087589,1449.8905,-224.44988)"
       gradientUnits="userSpaceOnUse"
       id="radialGradient3300"
       xlink:href="#linearGradient1594" />
    <linearGradient
       id="linearGradient1594">
      <stop
         id="stop1590"
         offset="0"
         style="stop-color:#2ec27e;stop-opacity:1" />
      <stop
         id="stop1592"
         offset="1"
         style="stop-color:#57e389;stop-opacity:0" />
    </linearGradient>
    <radialGradient
       inkscape:collect="always"
       xlink:href="#linearGradient1722"
       id="radialGradient1062"
       gradientUnits="userSpaceOnUse"
       gradientTransform="matrix(1.0125135,2.1002674,-1.6092836,0.11574215,-4.6063107,-300.00018)"
       cx="131.91475"
       cy="55.927143"
       fx="131.91475"
       fy="55.927143"
       r="160" />
    <radialGradient
       inkscape:collect="always"
       xlink:href="#linearGradient1594"
       id="radialGradient1064"
       gradientUnits="userSpaceOnUse"
       gradientTransform="matrix(-0.56672219,1.0065537,-1.1024699,-0.69087589,1449.8905,-224.44988)"
       cx="525.58777"
       cy="638.5918"
       fx="525.58777"
       fy="638.5918"
       r="192" />
    <linearGradient
       inkscape:collect="always"
       xlink:href="#linearGradient6969-5"
       id="linearGradient81638-4"
       gradientUnits="userSpaceOnUse"
       gradientTransform="matrix(4.0215518,0,0,4.4016601,-113.49853,1.8026083)"
       x1="-11.986486"
       y1="11.500009"
       x2="-11.986486"
       y2="28.976542" />
    <linearGradient
       inkscape:collect="always"
       id="linearGradient6969-5">
      <stop
         style="stop-color:#204a87;stop-opacity:1"
         offset="0"
         id="stop6971-9" />
      <stop
         style="stop-color:#729fcf;stop-opacity:1"
         offset="1"
         id="stop6973-3" />
    </linearGradient>
    <clipPath
       id="clipPath4719-3-3"
       clipPathUnits="userSpaceOnUse">
      <rect
         y="428"
         x="84"
         height="56"
         width="92"
         id="rect4721-9-7"
         style="fill:#000000;fill-opacity:1;stroke:none" />
    </clipPath>
    <filter
       height="1.405442"
       y="-0.20272098"
       width="1.222294"
       x="-0.11114702"
       id="filter4616-8-2"
       inkscape:collect="always"
       style="color-interpolation-filters:sRGB">
      <feGaussianBlur
         id="feGaussianBlur4618-0-5"
         stdDeviation="0.83939158"
         inkscape:collect="always" />
    </filter>
    <clipPath
       id="clipPath4396-4-0"
       clipPathUnits="userSpaceOnUse">
      <path
         id="path4398-9-9"
         d="m 79.40625,432.78125 c 4.95211,3.15625 10.09773,2.36004 13.8125,6.28125 0.20853,0.22012 0.41543,0.41335 0.625,0.625 -0.91227,0.0132 -3.36173,-0.64471 -5.8125,-0.21875 -2.03999,0.35455 -4.02605,-0.55433 -6.4375,1.03125 2.8086,-1.17696 5.05872,-0.41657 7.3125,-0.71875 1.75702,-0.23558 4.85952,0.60574 6.84375,1.75 3.19912,2.92004 6.06811,5.00342 6.65625,7.03125 0.75156,2.59125 0.93062,10.17703 0.96875,13.3125 -0.33977,-0.27402 -0.66062,-0.5645 -0.96875,-0.875 -0.68906,-0.71321 -1.34766,-1.47779 -2.15625,-2.0625 -0.77698,-0.56343 -1.58267,-1.08104 -2.21875,-1.8125 -0.66486,-0.8969 -1.44709,-1.69706 -2.1875,-2.53125 -0.70592,-0.72238 -1.45646,-1.39671 -2.125,-2.15625 -0.61554,-0.75741 -1.33614,-1.42319 -2.1875,-1.90625 -0.77581,-0.47272 -1.5828,-1.00327 -2.53125,-0.96875 -0.47451,-0.0791 -0.95887,-0.19127 -1.3125,-0.53125 -0.59769,-0.44175 -1.32432,-0.71337 -2.0625,-0.78125 l 0.125,0.0625 c 0.9109,0.24481 1.68179,0.8215 2.40625,1.40625 0.82464,0.41098 1.87022,0.34115 2.53125,1.0625 0.70456,0.74408 1.76065,1.14357 2.28125,2.0625 0.20942,0.35023 0.44974,0.66458 0.71875,0.96875 -0.70331,0.27896 -1.37908,1.26201 -1.875,1.59375 -1.29807,0.86836 -4.60919,-2.74752 -7.5,-2.40625 2.08544,-0.0469 5.75517,2.50843 6.46875,2.71875 0.55836,0.16459 -1.66639,2.10357 -3.375,3.03125 1.51744,-0.43138 3.97727,-2.51723 4.4375,-2.625 0.57771,-0.13527 1.16213,-1.94726 2.4375,-1.6875 0.26687,0.28232 0.53984,0.57255 0.78125,0.875 0.69303,0.78032 1.38577,1.54029 1.96875,2.40625 0.85162,1.06177 1.95474,1.87787 2.875,2.875 0.7471,0.7803 1.39506,1.64575 2.09375,2.46875 0.93323,1.12487 1.87928,2.25013 2.8125,3.375 0.42144,0.87267 1.03174,1.61036 1.65625,2.34375 0.66563,0.75999 1.30957,1.55781 1.8125,2.4375 0.59909,0.89138 1.1135,1.84141 1.5,2.84375 0.30827,0.94828 0.48395,1.92145 0.625,2.90625 0.19051,1.03702 0.34872,2.0991 0.25,3.15625 -0.14578,1.5715 -0.30651,3.14619 -0.4375,4.71875 -0.0217,0.7843 -0.12135,1.62135 0.25,2.34375 0.88575,0.56065 1.94401,0.69175 2.96875,0.75 0.86591,-0.0236 1.72648,-0.22461 2.46875,-0.6875 0.31904,-0.16231 0.63392,-0.49478 0.46875,-0.875 -0.18667,-1.01745 -0.40295,-2.03142 -0.5,-3.0625 -0.1344,-1.15271 -0.25974,-2.31102 -0.34375,-3.46875 -0.099,-1.09509 -0.14847,-2.18257 -0.1875,-3.28125 0.0322,-1.00198 0.0767,-2.03591 0.375,-3 0.32471,-0.94223 0.65194,-2.18347 1.25,-2.96875 0.85084,-1.04281 2.1162,-1.51624 3.09375,-2.4375 0.82415,-0.71738 1.68863,-1.38982 2.46875,-2.15625 0.75889,-0.71303 1.63356,-2.17099 2.3125,-2.96875 0.7624,-0.80646 1.48992,-0.89854 2.21875,-1.625 0.18969,-0.12973 0.38766,-0.25786 0.59375,-0.375 0.52915,-0.26792 1.04107,-0.57592 1.71875,-0.625 0.70029,0.0397 1.39399,-0.19008 2.09375,-0.0937 0.70007,0.0559 1.02933,0.72896 1.78125,0.65625 0.66535,-0.12321 1.35216,-0.12021 2.03125,-0.0625 -0.21541,-0.0835 -0.44604,-0.15445 -0.6875,-0.1875 -0.48981,-0.0904 -0.98368,0.0758 -1.46875,0.0313 -0.63207,-0.054 -0.8309,-0.55639 -1.375,-0.71875 -0.66242,-0.11588 -1.35944,0.10128 -2.03125,0.0625 -0.5382,-0.0737 -1.05528,0.0455 -1.59375,0.0313 0.76409,-1.1233 1.44323,-2.44724 2.25,-3.375 1.3398,-1.24472 2.98696,-2.48222 4.03125,-2.96875 1.39189,-0.64849 2.38459,0.15819 4.21875,-0.75 -2.03978,0.86066 -3.28052,-0.27726 -5.6875,1.125 -1.32634,0.76242 -2.21246,1.18656 -2.96875,1.71875 -1.58811,-1.34506 -0.70451,-6.06166 -2.09375,-8.78125 0.0827,-0.0958 0.125,-0.20732 0.125,-0.34375 1.54418,-0.65828 3.85538,-0.62579 5.34375,-0.34375 1.80941,0.34285 1.14282,0.69721 2.0625,0.75 0.8083,0.0464 2.21338,0.8335 3.34375,1.28125 1.22261,0.48428 1.53834,-0.0211 3.84375,1.21875 -1.65524,-1.12051 -3.34913,-1.13223 -3.59375,-1.40625 0.7457,-2.42944 3.79609,-2.88736 5.0625,-5.1875 -1.76435,2.59269 -4.05299,2.33985 -5.28125,5.09375 -1.22654,-0.34407 -2.44261,-0.89298 -3.0625,-1.28125 1.49793,-1.8748 -1.68651,-7.18964 -1.78125,-9 -0.11059,2.41309 2.83075,5.84705 1.25,8.8125 -3.16781,-1.25867 -5.75024,-0.78886 -7.4375,-0.40625 -0.0628,-0.0425 -0.14103,-0.0804 -0.21875,-0.0937 -1.38487,-2.04113 -0.95284,-3.54566 -2.5,-5.78125 0.85981,2.03517 1.03075,4.21454 1.875,5.96875 0.0201,0.0419 0.0431,0.0827 0.0625,0.125 -0.0386,0.0749 -0.0625,0.16002 -0.0625,0.25 0,0.22641 0.14749,0.41694 0.34375,0.5 0.92516,2.72077 0.58242,6.13236 0.8125,8.65625 -2.33949,-3.83923 -5.15618,-3.90227 -6.78125,-10.25 1.34906,7.76942 7.42824,8.46368 5.875,13.34375 -1.18921,1.23925 -3.11722,3.33597 -4.03125,4.25 -0.76285,0.67868 -1.59581,1.26835 -2.4375,1.84375 -0.87643,0.65389 -0.79689,1.13319 -1.71875,1.71875 -0.68733,0.46263 -2.24808,0.96188 -2.84375,1.4375 -0.77914,0.62211 -1.21036,1.46972 -1.875,2.3125 -0.35417,0.47917 -1.23958,0.61458 -1.5625,1.25 -0.32894,-1.33239 -1.28622,-3.80883 -3.09375,-4.84375 -0.89341,-0.51154 -1.89485,-1.4387 -2.625,-2.21875 -0.16244,-0.16986 -0.32136,-0.31728 -0.5,-0.46875 -1.2415,-3.00067 -1.37508,-6.70906 -1.65625,-10.0625 0.097,-0.0922 0.17429,-0.19076 0.28125,-0.28125 0.53668,-0.40499 1.03141,-0.85932 1.9375,-1.125 1.00361,-0.19673 1.64252,0.33535 2.6875,0.1875 1.01534,-0.18272 1.85205,-1.06453 2.84375,-1.375 0.83379,-0.32538 2.07498,-0.13823 3.0625,-0.3125 -1.14808,0.056 -2.26509,-0.14799 -3.375,0.1875 -0.91936,0.16193 -1.46612,1.11655 -2.34375,1.15625 -1.0076,0.1187 -1.63048,-0.40688 -2.59375,-0.21875 -0.80343,0.11401 -1.45915,0.39725 -2.21875,0.5625 -0.096,-0.0611 -0.4129,0.0496 -0.40625,-0.0625 -0.0616,-0.56577 -0.12813,-1.12745 -0.21875,-1.65625 -0.06,-3.89672 4.27346,-2.57015 5.15625,-3.25 0.58133,-0.44768 3.85453,-3.04945 6.75,-3.65625 -3.43517,0.61964 -6.89928,3.23605 -6.5625,2.40625 0.43039,-1.06043 0.76035,-7.91801 2.84375,-10.375 -3.23258,3.13778 -1.93744,10.59758 -4.28125,11.3125 -1.14933,0.35058 -3.94816,-0.0106 -4.4375,1.375 -0.10489,-0.29885 -0.21204,-0.57258 -0.34375,-0.84375 -0.84843,-1.74675 -3.20807,-3.66898 -5.71875,-5.84375 -0.24719,-1.22331 1.70858,-1.61353 1.90625,-2.125 0.15296,-0.39577 2.42162,-2.38883 3,-3.6875 -1.08179,1.42622 -3.17911,3.22298 -3.28125,2.71875 -0.13053,-0.6444 -2.23183,-4.07697 -1.96875,-5.90625 -0.63373,2.51321 2.51245,5.71105 1.53125,6.78125 -0.40432,0.441 -1.56827,1.00067 -1.8125,1.65625 -1.21315,-1.06576 -2.41928,-2.18039 -3.53125,-3.40625 -3.25105,-3.58405 -5.7455,-2.03174 -14.3125,-5.65625 z"
         style="display:inline;fill:#000000;fill-opacity:1;fill-rule:evenodd;stroke:none"
         inkscape:connector-curvature="0" />
    </clipPath>
    <clipPath
       id="clipPath1464"
       clipPathUnits="userSpaceOnUse">
      <rect
         y="428"
         x="84"
         height="56"
         width="92"
         id="rect1462"
         style="fill:#000000;fill-opacity:1;stroke:none" />
    </clipPath>
    <clipPath
       id="clipPath1487"
       clipPathUnits="userSpaceOnUse">
      <path
         id="path1485"
         d="m 79.40625,432.78125 c 4.95211,3.15625 10.09773,2.36004 13.8125,6.28125 0.20853,0.22012 0.41543,0.41335 0.625,0.625 -0.91227,0.0132 -3.36173,-0.64471 -5.8125,-0.21875 -2.03999,0.35455 -4.02605,-0.55433 -6.4375,1.03125 2.8086,-1.17696 5.05872,-0.41657 7.3125,-0.71875 1.75702,-0.23558 4.85952,0.60574 6.84375,1.75 3.19912,2.92004 6.06811,5.00342 6.65625,7.03125 0.75156,2.59125 0.93062,10.17703 0.96875,13.3125 -0.33977,-0.27402 -0.66062,-0.5645 -0.96875,-0.875 -0.68906,-0.71321 -1.34766,-1.47779 -2.15625,-2.0625 -0.77698,-0.56343 -1.58267,-1.08104 -2.21875,-1.8125 -0.66486,-0.8969 -1.44709,-1.69706 -2.1875,-2.53125 -0.70592,-0.72238 -1.45646,-1.39671 -2.125,-2.15625 -0.61554,-0.75741 -1.33614,-1.42319 -2.1875,-1.90625 -0.77581,-0.47272 -1.5828,-1.00327 -2.53125,-0.96875 -0.47451,-0.0791 -0.95887,-0.19127 -1.3125,-0.53125 -0.59769,-0.44175 -1.32432,-0.71337 -2.0625,-0.78125 l 0.125,0.0625 c 0.9109,0.24481 1.68179,0.8215 2.40625,1.40625 0.82464,0.41098 1.87022,0.34115 2.53125,1.0625 0.70456,0.74408 1.76065,1.14357 2.28125,2.0625 0.20942,0.35023 0.44974,0.66458 0.71875,0.96875 -0.70331,0.27896 -1.37908,1.26201 -1.875,1.59375 -1.29807,0.86836 -4.60919,-2.74752 -7.5,-2.40625 2.08544,-0.0469 5.75517,2.50843 6.46875,2.71875 0.55836,0.16459 -1.66639,2.10357 -3.375,3.03125 1.51744,-0.43138 3.97727,-2.51723 4.4375,-2.625 0.57771,-0.13527 1.16213,-1.94726 2.4375,-1.6875 0.26687,0.28232 0.53984,0.57255 0.78125,0.875 0.69303,0.78032 1.38577,1.54029 1.96875,2.40625 0.85162,1.06177 1.95474,1.87787 2.875,2.875 0.7471,0.7803 1.39506,1.64575 2.09375,2.46875 0.93323,1.12487 1.87928,2.25013 2.8125,3.375 0.42144,0.87267 1.03174,1.61036 1.65625,2.34375 0.66563,0.75999 1.30957,1.55781 1.8125,2.4375 0.59909,0.89138 1.1135,1.84141 1.5,2.84375 0.30827,0.94828 0.48395,1.92145 0.625,2.90625 0.19051,1.03702 0.34872,2.0991 0.25,3.15625 -0.14578,1.5715 -0.30651,3.14619 -0.4375,4.71875 -0.0217,0.7843 -0.12135,1.62135 0.25,2.34375 0.88575,0.56065 1.94401,0.69175 2.96875,0.75 0.86591,-0.0236 1.72648,-0.22461 2.46875,-0.6875 0.31904,-0.16231 0.63392,-0.49478 0.46875,-0.875 -0.18667,-1.01745 -0.40295,-2.03142 -0.5,-3.0625 -0.1344,-1.15271 -0.25974,-2.31102 -0.34375,-3.46875 -0.099,-1.09509 -0.14847,-2.18257 -0.1875,-3.28125 0.0322,-1.00198 0.0767,-2.03591 0.375,-3 0.32471,-0.94223 0.65194,-2.18347 1.25,-2.96875 0.85084,-1.04281 2.1162,-1.51624 3.09375,-2.4375 0.82415,-0.71738 1.68863,-1.38982 2.46875,-2.15625 0.75889,-0.71303 1.63356,-2.17099 2.3125,-2.96875 0.7624,-0.80646 1.48992,-0.89854 2.21875,-1.625 0.18969,-0.12973 0.38766,-0.25786 0.59375,-0.375 0.52915,-0.26792 1.04107,-0.57592 1.71875,-0.625 0.70029,0.0397 1.39399,-0.19008 2.09375,-0.0937 0.70007,0.0559 1.02933,0.72896 1.78125,0.65625 0.66535,-0.12321 1.35216,-0.12021 2.03125,-0.0625 -0.21541,-0.0835 -0.44604,-0.15445 -0.6875,-0.1875 -0.48981,-0.0904 -0.98368,0.0758 -1.46875,0.0313 -0.63207,-0.054 -0.8309,-0.55639 -1.375,-0.71875 -0.66242,-0.11588 -1.35944,0.10128 -2.03125,0.0625 -0.5382,-0.0737 -1.05528,0.0455 -1.59375,0.0313 0.76409,-1.1233 1.44323,-2.44724 2.25,-3.375 1.3398,-1.24472 2.98696,-2.48222 4.03125,-2.96875 1.39189,-0.64849 2.38459,0.15819 4.21875,-0.75 -2.03978,0.86066 -3.28052,-0.27726 -5.6875,1.125 -1.32634,0.76242 -2.21246,1.18656 -2.96875,1.71875 -1.58811,-1.34506 -0.70451,-6.06166 -2.09375,-8.78125 0.0827,-0.0958 0.125,-0.20732 0.125,-0.34375 1.54418,-0.65828 3.85538,-0.62579 5.34375,-0.34375 1.80941,0.34285 1.14282,0.69721 2.0625,0.75 0.8083,0.0464 2.21338,0.8335 3.34375,1.28125 1.22261,0.48428 1.53834,-0.0211 3.84375,1.21875 -1.65524,-1.12051 -3.34913,-1.13223 -3.59375,-1.40625 0.7457,-2.42944 3.79609,-2.88736 5.0625,-5.1875 -1.76435,2.59269 -4.05299,2.33985 -5.28125,5.09375 -1.22654,-0.34407 -2.44261,-0.89298 -3.0625,-1.28125 1.49793,-1.8748 -1.68651,-7.18964 -1.78125,-9 -0.11059,2.41309 2.83075,5.84705 1.25,8.8125 -3.16781,-1.25867 -5.75024,-0.78886 -7.4375,-0.40625 -0.0628,-0.0425 -0.14103,-0.0804 -0.21875,-0.0937 -1.38487,-2.04113 -0.95284,-3.54566 -2.5,-5.78125 0.85981,2.03517 1.03075,4.21454 1.875,5.96875 0.0201,0.0419 0.0431,0.0827 0.0625,0.125 -0.0386,0.0749 -0.0625,0.16002 -0.0625,0.25 0,0.22641 0.14749,0.41694 0.34375,0.5 0.92516,2.72077 0.58242,6.13236 0.8125,8.65625 -2.33949,-3.83923 -5.15618,-3.90227 -6.78125,-10.25 1.34906,7.76942 7.42824,8.46368 5.875,13.34375 -1.18921,1.23925 -3.11722,3.33597 -4.03125,4.25 -0.76285,0.67868 -1.59581,1.26835 -2.4375,1.84375 -0.87643,0.65389 -0.79689,1.13319 -1.71875,1.71875 -0.68733,0.46263 -2.24808,0.96188 -2.84375,1.4375 -0.77914,0.62211 -1.21036,1.46972 -1.875,2.3125 -0.35417,0.47917 -1.23958,0.61458 -1.5625,1.25 -0.32894,-1.33239 -1.28622,-3.80883 -3.09375,-4.84375 -0.89341,-0.51154 -1.89485,-1.4387 -2.625,-2.21875 -0.16244,-0.16986 -0.32136,-0.31728 -0.5,-0.46875 -1.2415,-3.00067 -1.37508,-6.70906 -1.65625,-10.0625 0.097,-0.0922 0.17429,-0.19076 0.28125,-0.28125 0.53668,-0.40499 1.03141,-0.85932 1.9375,-1.125 1.00361,-0.19673 1.64252,0.33535 2.6875,0.1875 1.01534,-0.18272 1.85205,-1.06453 2.84375,-1.375 0.83379,-0.32538 2.07498,-0.13823 3.0625,-0.3125 -1.14808,0.056 -2.26509,-0.14799 -3.375,0.1875 -0.91936,0.16193 -1.46612,1.11655 -2.34375,1.15625 -1.0076,0.1187 -1.63048,-0.40688 -2.59375,-0.21875 -0.80343,0.11401 -1.45915,0.39725 -2.21875,0.5625 -0.096,-0.0611 -0.4129,0.0496 -0.40625,-0.0625 -0.0616,-0.56577 -0.12813,-1.12745 -0.21875,-1.65625 -0.06,-3.89672 4.27346,-2.57015 5.15625,-3.25 0.58133,-0.44768 3.85453,-3.04945 6.75,-3.65625 -3.43517,0.61964 -6.89928,3.23605 -6.5625,2.40625 0.43039,-1.06043 0.76035,-7.91801 2.84375,-10.375 -3.23258,3.13778 -1.93744,10.59758 -4.28125,11.3125 -1.14933,0.35058 -3.94816,-0.0106 -4.4375,1.375 -0.10489,-0.29885 -0.21204,-0.57258 -0.34375,-0.84375 -0.84843,-1.74675 -3.20807,-3.66898 -5.71875,-5.84375 -0.24719,-1.22331 1.70858,-1.61353 1.90625,-2.125 0.15296,-0.39577 2.42162,-2.38883 3,-3.6875 -1.08179,1.42622 -3.17911,3.22298 -3.28125,2.71875 -0.13053,-0.6444 -2.23183,-4.07697 -1.96875,-5.90625 -0.63373,2.51321 2.51245,5.71105 1.53125,6.78125 -0.40432,0.441 -1.56827,1.00067 -1.8125,1.65625 -1.21315,-1.06576 -2.41928,-2.18039 -3.53125,-3.40625 -3.25105,-3.58405 -5.7455,-2.03174 -14.3125,-5.65625 z"
         style="display:inline;fill:#000000;fill-opacity:1;fill-rule:evenodd;stroke:none"
         inkscape:connector-curvature="0" />
    </clipPath>
    <linearGradient
       inkscape:collect="always"
       xlink:href="#linearGradient2782-839-396"
       id="linearGradient1474"
       gradientUnits="userSpaceOnUse"
       x1="264.67502"
       y1="81.45903"
       x2="264.04791"
       y2="-171.24281" />
    <linearGradient
       inkscape:collect="always"
       id="linearGradient2782-839-396">
      <stop
         offset="0"
         id="stop7582"
         style="stop-color:#8dc5ff;stop-opacity:1" />
      <stop
         offset="1"
         id="stop7584"
         style="stop-color:#f2c600;stop-opacity:1" />
    </linearGradient>
  </defs>
  <metadata
     id="metadata4">
    <rdf:RDF>
      <cc:Work
         rdf:about="">
        <dc:format>image/svg+xml</dc:format>
        <dc:type
           rdf:resource="http://purl.org/dc/dcmitype/StillImage" />
        <dc:creator>
          <cc:Agent>
            <dc:title>GNOME Design Team</dc:title>
          </cc:Agent>
        </dc:creator>
        <dc:source />
        <cc:license
           rdf:resource="http://creativecommons.org/licenses/by-sa/4.0/" />
        <dc:title>Adwaita Icon Template</dc:title>
        <dc:subject>
          <rdf:Bag />
        </dc:subject>
        <dc:date />
        <dc:rights>
          <cc:Agent>
            <dc:title />
          </cc:Agent>
        </dc:rights>
        <dc:publisher>
          <cc:Agent>
            <dc:title />
          </cc:Agent>
        </dc:publisher>
        <dc:identifier />
        <dc:relation />
        <dc:language />
        <dc:coverage />
        <dc:description />
        <dc:contributor>
          <cc:Agent>
            <dc:title />
          </cc:Agent>
        </dc:contributor>
      </cc:Work>
      <cc:License
         rdf:about="http://creativecommons.org/licenses/by-sa/4.0/">
        <cc:permits
           rdf:resource="http://creativecommons.org/ns#Reproduction" />
        <cc:permits
           rdf:resource="http://creativecommons.org/ns#Distribution" />
        <cc:requires
           rdf:resource="http://creativecommons.org/ns#Notice" />
        <cc:requires
           rdf:resource="http://creativecommons.org/ns#Attribution" />
        <cc:permits
           rdf:resource="http://creativecommons.org/ns#DerivativeWorks" />
        <cc:requires
           rdf:resource="http://creativecommons.org/ns#ShareAlike" />
      </cc:License>
    </rdf:RDF>
  </metadata>
  <path
     inkscape:connector-curvature="0"
     style="opacity:0.2;stroke-width:1.85714304"
     d="m 64.999982,11.99999 c -28.807998,0 -52.000004,23.192 -52.000004,52.00001 0,28.808 23.192006,52 52.000004,52 28.808,0 51.999998,-23.192 51.999998,-52 0,-28.80801 -23.191998,-52.00001 -51.999998,-52.00001 z m 0,29.71429 A 22.285716,22.285716 0 0 1 87.285695,64 22.285716,22.285716 0 0 1 64.999982,86.28572 22.285716,22.285716 0 0 1 42.714268,64 22.285716,22.285716 0 0 1 64.999982,41.71428 Z"
     id="path2" />
  <path
     inkscape:connector-curvature="0"
     style="fill:#848484;stroke-width:1.85714293"
     d="M 65.000004,35.142858 A 27.857144,27.857142 0 0 0 37.142858,63 27.857144,27.857142 0 0 0 65.000004,90.857144 27.857144,27.857142 0 0 0 92.857146,63 27.857144,27.857142 0 0 0 65.000004,35.142858 Z m 0,16.714285 c 6.154201,0 11.142854,4.988658 11.142854,11.142857 0,6.1542 -4.988653,11.142858 -11.142854,11.142858 -6.154201,0 -11.142859,-4.988658 -11.142859,-11.142858 0,-6.154199 4.988658,-11.142857 11.142859,-11.142857 z"
     id="path4" />
  <path
     inkscape:connector-curvature="0"
     style="fill:#e4e4e4;stroke-width:1.85714293"
     d="M 65.000004,11 C 36.192005,11 13,34.192 13,63 13,91.808001 36.192005,115 65.000004,115 93.808003,115 117,91.808001 117,63 117,34.192 93.808003,11 65.000004,11 Z m 0,29.714286 A 22.285716,22.285714 0 0 1 87.285717,63 22.285716,22.285714 0 0 1 65.000004,85.285715 22.285716,22.285714 0 0 1 42.714289,63 22.285716,22.285714 0 0 1 65.000004,40.714286 Z"
     id="path6" />
  <path
     inkscape:connector-curvature="0"
     style="opacity:0.2;fill:#ffffff;stroke-width:1.85714293"
     d="M 65.000004,11 C 36.192005,11 13,34.192 13,63 c 0,0.210891 0.02099,0.41606 0.03264,0.623885 0.652864,-28.231835 23.572993,-50.766743 51.967358,-50.766743 28.391947,0 51.314382,22.531025 51.970982,50.759488 0.0117,-0.205396 0.029,-0.408226 0.029,-0.61663 0,-28.808 -23.191999,-52 -51.999998,-52 z M 42.808595,64.849889 a 22.285716,22.285714 0 0 0 -0.09435,1.864398 22.285716,22.285714 0 0 0 0.04717,0.928571 22.285716,22.285714 0 0 1 0.04717,-0.935825 22.285716,22.285714 0 0 0 22.19141,20.435825 A 22.285716,22.285714 0 0 0 87.1914,66.72154 22.285716,22.285714 0 0 1 87.24582,67.820592 22.285716,22.285714 0 0 0 87.28571,66.714287 22.285716,22.285714 0 0 0 87.19141,64.864398 22.285716,22.285714 0 0 1 64.999993,85.285715 22.285716,22.285714 0 0 1 42.808582,64.849889 Z"
     id="path8" />
  <rect
     ry="3.846154"
     rx="3.846154"
     y="65.979996"
     x="8"
     height="50.02"
     width="50"
     id="rect1165"
     style="display:inline;opacity:1;vector-effect:none;fill:#f6f5f4;fill-opacity:1;stroke:none;stroke-width:3.84615397;stroke-linecap:round;stroke-linejoin:round;stroke-miterlimit:4;stroke-dasharray:none;stroke-dashoffset:0;stroke-opacity:0.6732283;enable-background:new" />
  <g
     transform="matrix(0.48076923,0,0,0.48076923,2.2307692,-22.481535)"
     style="display:inline;enable-background:new"
     id="layer9">
    <rect
       style="opacity:0.32000002;fill:#f7da50;fill-opacity:1;stroke:none;stroke-width:0.5;stroke-linejoin:round;stroke-miterlimit:4;stroke-dasharray:none;stroke-opacity:1"
       id="rect977"
       width="0"
       height="0"
       x="-4.3051148e-07"
       y="172" />
  </g>
  <rect
     style="display:inline;opacity:0.32000002;fill:#87bae1;fill-opacity:0;stroke:#3d3d3d;stroke-width:0.21247199;stroke-linejoin:round;stroke-miterlimit:4;stroke-dasharray:none;stroke-opacity:1;enable-background:new"
     id="rect1431"
     width="0"
     height="0"
     x="-1.2948732"
     y="-129.44153"
     transform="scale(1,-1)" />
  <circle
     r="0"
     cy="60.21077"
     cx="2.2307689"
     id="path1155"
     style="display:inline;opacity:1;vector-effect:none;fill:#9059a1;fill-opacity:1;stroke:none;stroke-width:7.69230795;stroke-linecap:butt;stroke-linejoin:round;stroke-miterlimit:4;stroke-dasharray:none;stroke-dashoffset:0;stroke-opacity:1;enable-background:new" />
  <rect
     style="display:inline;opacity:0.32000002;fill:#87bae1;fill-opacity:0;stroke:#3d3d3d;stroke-width:0.21247199;stroke-linejoin:round;stroke-miterlimit:4;stroke-dasharray:none;stroke-opacity:1;enable-background:new"
     id="rect971"
     width="0"
     height="0"
     x="-0.33333308"
     y="-114.05693"
     transform="scale(1,-1)" />
  <rect
     style="display:inline;opacity:0.32000002;fill:#87bae1;fill-opacity:0;stroke:#3d3d3d;stroke-width:0.25496638;stroke-linejoin:round;stroke-miterlimit:4;stroke-dasharray:none;stroke-opacity:1;enable-background:new"
     id="rect1127"
     width="0"
     height="0"
     x="-31.615385"
     y="-121.36462"
     transform="scale(1,-1)" />
  <g
     transform="matrix(0.15625,0,0,-0.11160714,-17,95.890716)"
     style="display:inline;stroke-width:0.91016608;enable-background:new"
     id="g1053"
     clip-path="url(#clipPath1599)" />
  <rect
     y="60.21077"
     x="2.2307689"
     height="0"
     width="0"
     id="rect1375"
     style="display:inline;opacity:1;vector-effect:none;fill:#deddda;fill-opacity:1;stroke:none;stroke-width:3.84615397;stroke-linecap:round;stroke-linejoin:round;stroke-miterlimit:4;stroke-dasharray:none;stroke-dashoffset:0;stroke-opacity:0.6732283;enable-background:new" />
  <rect
     style="display:inline;opacity:1;vector-effect:none;fill:#f6f5f4;fill-opacity:1;stroke:none;stroke-width:3.84615397;stroke-linecap:round;stroke-linejoin:round;stroke-miterlimit:4;stroke-dasharray:none;stroke-dashoffset:0;stroke-opacity:0.6732283;enable-background:new"
     id="rect993"
     width="50"
     height="50.02"
     x="72"
     y="65.979996"
     rx="3.846154"
     ry="3.846154" />
  <g
     id="g997"
     style="display:inline;enable-background:new"
     transform="matrix(0.48076923,0,0,0.48076923,66.230769,-22.481535)">
    <rect
       y="172"
       x="-4.3051148e-07"
       height="0"
       width="0"
       id="rect995"
       style="opacity:0.32000002;fill:#f7da50;fill-opacity:1;stroke:none;stroke-width:0.5;stroke-linejoin:round;stroke-miterlimit:4;stroke-dasharray:none;stroke-opacity:1" />
  </g>
  <rect
     transform="scale(1,-1)"
     y="-129.44153"
     x="62.705128"
     height="0"
     width="0"
     id="rect999"
     style="display:inline;opacity:0.32000002;fill:#87bae1;fill-opacity:0;stroke:#3d3d3d;stroke-width:0.21247199;stroke-linejoin:round;stroke-miterlimit:4;stroke-dasharray:none;stroke-opacity:1;enable-background:new" />
  <circle
     style="display:inline;opacity:1;vector-effect:none;fill:#9059a1;fill-opacity:1;stroke:none;stroke-width:7.69230795;stroke-linecap:butt;stroke-linejoin:round;stroke-miterlimit:4;stroke-dasharray:none;stroke-dashoffset:0;stroke-opacity:1;enable-background:new"
     id="circle1001"
     cx="66.230774"
     cy="60.21077"
     r="0" />
  <rect
     transform="scale(1,-1)"
     y="-114.05693"
     x="63.666668"
     height="0"
     width="0"
     id="rect1003"
     style="display:inline;opacity:0.32000002;fill:#87bae1;fill-opacity:0;stroke:#3d3d3d;stroke-width:0.21247199;stroke-linejoin:round;stroke-miterlimit:4;stroke-dasharray:none;stroke-opacity:1;enable-background:new" />
  <rect
     transform="scale(1,-1)"
     y="-121.36462"
     x="32.384613"
     height="0"
     width="0"
     id="rect1005"
     style="display:inline;opacity:0.32000002;fill:#87bae1;fill-opacity:0;stroke:#3d3d3d;stroke-width:0.25496638;stroke-linejoin:round;stroke-miterlimit:4;stroke-dasharray:none;stroke-opacity:1;enable-background:new" />
  <g
     clip-path="url(#clipPath1599)"
     id="g1007"
     style="display:inline;stroke-width:0.91016608;enable-background:new"
     transform="matrix(0.15625,0,0,-0.11160714,47,95.890716)" />
  <rect
     style="display:inline;opacity:1;vector-effect:none;fill:#deddda;fill-opacity:1;stroke:none;stroke-width:3.84615397;stroke-linecap:round;stroke-linejoin:round;stroke-miterlimit:4;stroke-dasharray:none;stroke-dashoffset:0;stroke-opacity:0.6732283;enable-background:new"
     id="rect1023"
     width="0"
     height="0"
     x="66.230774"
     y="60.21077" />
  <g
     transform="matrix(0.48076923,0,0,0.48076923,32.230769,-12.481535)"
     style="display:inline;enable-background:new"
     id="g1033">
    <rect
       style="opacity:0.32000002;fill:#f7da50;fill-opacity:1;stroke:none;stroke-width:0.5;stroke-linejoin:round;stroke-miterlimit:4;stroke-dasharray:none;stroke-opacity:1"
       id="rect1031"
       width="0"
       height="0"
       x="-4.3051148e-07"
       y="172" />
  </g>
  <rect
     style="display:inline;opacity:0.32000002;fill:#87bae1;fill-opacity:0;stroke:#3d3d3d;stroke-width:0.21247199;stroke-linejoin:round;stroke-miterlimit:4;stroke-dasharray:none;stroke-opacity:1;enable-background:new"
     id="rect1035"
     width="0"
     height="0"
     x="28.705128"
     y="-139.44153"
     transform="scale(1,-1)" />
  <circle
     r="0"
     cy="70.21077"
     cx="32.230774"
     id="circle1037"
     style="display:inline;opacity:1;vector-effect:none;fill:#9059a1;fill-opacity:1;stroke:none;stroke-width:7.69230795;stroke-linecap:butt;stroke-linejoin:round;stroke-miterlimit:4;stroke-dasharray:none;stroke-dashoffset:0;stroke-opacity:1;enable-background:new" />
  <rect
     style="display:inline;opacity:0.32000002;fill:#87bae1;fill-opacity:0;stroke:#3d3d3d;stroke-width:0.21247199;stroke-linejoin:round;stroke-miterlimit:4;stroke-dasharray:none;stroke-opacity:1;enable-background:new"
     id="rect1039"
     width="0"
     height="0"
     x="29.666668"
     y="-124.05693"
     transform="scale(1,-1)" />
  <rect
     style="display:inline;opacity:0.32000002;fill:#87bae1;fill-opacity:0;stroke:#3d3d3d;stroke-width:0.25496638;stroke-linejoin:round;stroke-miterlimit:4;stroke-dasharray:none;stroke-opacity:1;enable-background:new"
     id="rect1041"
     width="0"
     height="0"
     x="-1.615387"
     y="-131.36462"
     transform="scale(1,-1)" />
  <g
     transform="matrix(0.15625,0,0,-0.11160714,13,105.89072)"
     style="display:inline;stroke-width:0.91016608;enable-background:new"
     id="g1043"
     clip-path="url(#clipPath1599)" />
  <rect
     y="70.21077"
     x="32.230774"
     height="0"
     width="0"
     id="rect1060"
     style="display:inline;opacity:1;vector-effect:none;fill:#deddda;fill-opacity:1;stroke:none;stroke-width:3.84615397;stroke-linecap:round;stroke-linejoin:round;stroke-miterlimit:4;stroke-dasharray:none;stroke-dashoffset:0;stroke-opacity:0.6732283;enable-background:new" />
  <g
     transform="translate(-51.930906,-121.07618)"
     style="display:inline;enable-background:new"
     id="g1175">
    <g
       transform="matrix(0.30027129,8.7152984e-5,-8.7152984e-5,0.30027129,133.48569,175.17854)"
       id="g81624"
       style="display:inline;enable-background:new">
      <rect
         transform="matrix(1,-4.3668387e-5,-5.1401921e-5,1,0,0)"
         ry="0"
         rx="0"
         y="52.422558"
         x="-232.13425"
         height="105.63971"
         width="140.86316"
         id="rect6022"
         style="display:inline;fill:url(#linearGradient81638-4);fill-opacity:1;stroke:none;stroke-width:1.29534149"
         inkscape:r_cx="true"
         inkscape:r_cy="true" />
    </g>
  </g>
  <g
     transform="translate(55.846153,-156.44285)"
     style="display:inline;enable-background:new"
     id="g1202">
    <g
       transform="matrix(0.45986955,0,0,0.45330006,11.722351,140.14199)"
       id="g1071"
       style="stroke-width:1.05300307">
      <g
         transform="matrix(1.15,0,0,1.1666667,-9.5999963,-38.666666)"
         style="display:inline;stroke-width:0.90909088;enable-background:new"
         id="g1069">
        <g
           transform="matrix(0.20833334,0,0,0.234375,10.666663,215.6875)"
           id="g1067"
           style="display:inline;stroke-width:0.90909088;enable-background:new">
          <rect
             transform="scale(1,-1)"
             ry="0"
             rx="0"
             y="-172"
             x="64"
             height="256"
             width="384"
             id="rect1059"
             style="display:inline;opacity:1;vector-effect:none;fill:url(#linearGradient1474);fill-opacity:1;stroke:none;stroke-width:1.81818175;stroke-linecap:butt;stroke-linejoin:miter;stroke-miterlimit:4;stroke-dasharray:none;stroke-dashoffset:0;stroke-opacity:1;marker:none;marker-start:none;marker-mid:none;marker-end:none;paint-order:normal;enable-background:new" />
          <rect
             style="opacity:0.32000002;fill:#87bae1;fill-opacity:0;stroke:#3d3d3d;stroke-width:1.81818175;stroke-linejoin:round;stroke-miterlimit:4;stroke-dasharray:none;stroke-opacity:1"
             id="rect1065"
             width="0"
             height="0"
             x="0"
             y="0"
             transform="matrix(1,0,0,-1,0,300)" />
          <rect
             style="opacity:0.35;vector-effect:none;fill:#1c71d8;fill-opacity:0.20331953;stroke:none;stroke-width:1.05300307;stroke-linecap:round;stroke-linejoin:round;stroke-miterlimit:4;stroke-dasharray:none;stroke-dashoffset:0;stroke-opacity:1"
             id="rect1949"
             width="0"
             height="0"
             x="0"
             y="0"
             transform="matrix(4.1739129,0,0,3.6571428,-11.130432,-149.82858)" />
        </g>
      </g>
    </g>
  </g>
  <rect
     ry="3.846154"
     rx="3.846154"
     y="75.979996"
     x="38"
     height="50.02"
     width="50"
     id="rect1029"
     style="display:inline;opacity:1;vector-effect:none;fill:#f6f5f4;fill-opacity:1;stroke:none;stroke-width:3.84615397;stroke-linecap:round;stroke-linejoin:round;stroke-miterlimit:4;stroke-dasharray:none;stroke-dashoffset:0;stroke-opacity:0.6732283;enable-background:new" />
  <g
     style="display:inline;stroke-width:1.05300307;enable-background:new"
     id="g1058"
     transform="matrix(0.45986619,0,0,0.45329675,33.568564,-6.300228)">
    <g
       id="g1056"
       style="display:inline;stroke-width:0.90909088;enable-background:new"
       transform="matrix(1.15,0,0,1.1666667,-9.5999963,-38.666666)">
      <g
         style="display:inline;stroke-width:0.90909088;enable-background:new"
         id="g1054"
         transform="matrix(0.20833334,0,0,0.234375,10.666663,215.6875)">
        <rect
           style="display:inline;opacity:1;vector-effect:none;fill:url(#radialGradient1062);fill-opacity:1;stroke:none;stroke-width:1.81818175;stroke-linecap:butt;stroke-linejoin:miter;stroke-miterlimit:4;stroke-dasharray:none;stroke-dashoffset:0;stroke-opacity:1;marker:none;marker-start:none;marker-mid:none;marker-end:none;paint-order:normal;enable-background:new"
           id="rect1045"
           width="384"
           height="256"
           x="64"
           y="-172"
           rx="0"
           ry="0"
           transform="scale(1,-1)" />
        <rect
           ry="0"
           rx="0"
           y="-172"
           x="64"
           height="256"
           width="384"
           id="rect1047"
           style="display:inline;opacity:1;vector-effect:none;fill:url(#radialGradient1064);fill-opacity:1;stroke:none;stroke-width:1.81818175;stroke-linecap:butt;stroke-linejoin:miter;stroke-miterlimit:4;stroke-dasharray:none;stroke-dashoffset:0;stroke-opacity:1;marker:none;marker-start:none;marker-mid:none;marker-end:none;paint-order:normal;enable-background:new"
           transform="scale(1,-1)" />
        <rect
           transform="matrix(1,0,0,-1,0,300)"
           y="0"
           x="0"
           height="0"
           width="0"
           id="rect1049"
           style="opacity:0.32000002;fill:#87bae1;fill-opacity:0;stroke:#3d3d3d;stroke-width:1.81818175;stroke-linejoin:round;stroke-miterlimit:4;stroke-dasharray:none;stroke-opacity:1" />
        <rect
           transform="matrix(4.1739129,0,0,3.6571428,-11.130432,-149.82858)"
           y="0"
           x="0"
           height="0"
           width="0"
           id="rect1051"
           style="opacity:0.35;vector-effect:none;fill:#1c71d8;fill-opacity:0.20331953;stroke:none;stroke-width:1.05300307;stroke-linecap:round;stroke-linejoin:round;stroke-miterlimit:4;stroke-dasharray:none;stroke-dashoffset:0;stroke-opacity:1" />
      </g>
    </g>
  </g>
</svg>
