<?xml version="1.0" encoding="UTF-8" standalone="no"?>
<svg
   xmlns:dc="http://purl.org/dc/elements/1.1/"
   xmlns:cc="http://creativecommons.org/ns#"
   xmlns:rdf="http://www.w3.org/1999/02/22-rdf-syntax-ns#"
   xmlns:svg="http://www.w3.org/2000/svg"
   xmlns="http://www.w3.org/2000/svg"
   xmlns:xlink="http://www.w3.org/1999/xlink"
   xmlns:sodipodi="http://sodipodi.sourceforge.net/DTD/sodipodi-0.dtd"
   xmlns:inkscape="http://www.inkscape.org/namespaces/inkscape"
   width="128"
   height="128"
   version="1.0"
   id="svg75"
   sodipodi:docname="java.svg"
   inkscape:version="0.92.3 (2405546, 2018-03-11)">
  <metadata
     id="metadata79">
    <rdf:RDF>
      <cc:Work
         rdf:about="">
        <dc:format>image/svg+xml</dc:format>
        <dc:type
           rdf:resource="http://purl.org/dc/dcmitype/StillImage" />
        <dc:title />
      </cc:Work>
    </rdf:RDF>
  </metadata>
  <sodipodi:namedview
     pagecolor="#ffffff"
     bordercolor="#666666"
     borderopacity="1"
     objecttolerance="10"
     gridtolerance="10"
     guidetolerance="10"
     inkscape:pageopacity="0"
     inkscape:pageshadow="2"
     inkscape:window-width="1853"
     inkscape:window-height="1009"
     id="namedview77"
     showgrid="false"
     inkscape:zoom="3.6265081"
     inkscape:cx="6.1108596"
     inkscape:cy="62.17578"
     inkscape:window-x="67"
     inkscape:window-y="34"
     inkscape:window-maximized="1"
     inkscape:current-layer="g73"
     showguides="false" />
  <defs
     id="defs24">
    <linearGradient
       id="a">
      <stop
         offset="0"
         stop-color="#68676b"
         id="stop2" />
      <stop
         offset=".8"
         stop-color="#424048"
         id="stop4" />
      <stop
         offset="1"
         stop-color="#241f31"
         id="stop6" />
    </linearGradient>
    <radialGradient
       xlink:href="#a"
       id="d"
       gradientUnits="userSpaceOnUse"
       gradientTransform="matrix(1.34416 .0006 -.00062 1.38763 -121.22 -718.103)"
       cx="279.422"
       cy="446.483"
       fx="279.422"
       fy="446.483"
       r="224" />
    <linearGradient
       xlink:href="#b"
       id="e"
       gradientUnits="userSpaceOnUse"
       gradientTransform="matrix(1.0015 0 0 .99993 72.09 56.015)"
       x1="43.844"
       y1="234"
       x2="-60"
       y2="234" />
    <linearGradient
       id="b">
      <stop
         offset="0"
         stop-color="#d5d3cf"
         id="stop11" />
      <stop
         offset=".038"
         stop-color="#e3e2df"
         id="stop13" />
      <stop
         offset=".077"
         stop-color="#c0bfbc"
         id="stop15" />
      <stop
         offset=".923"
         stop-color="#c0bfbc"
         id="stop17" />
      <stop
         offset=".962"
         stop-color="#e3e2df"
         id="stop19" />
      <stop
         offset="1"
         stop-color="#d5d3cf"
         id="stop21" />
    </linearGradient>
  </defs>
  <g
     transform="translate(0 -172)"
     id="g73">
    <rect
       ry="8"
       rx="8"
       height="48"
       width="104"
       x="12"
       y="240"
       fill="url(#e)"
       id="rect33" />
    <path
       style="fill:#ed333b;fill-opacity:1"
       d="M 20 10 C 15.568 10 12 13.568 12 18 L 12 60 L 12 102 C 12 106.432 15.568 110 20 110 L 64 110 L 108 110 C 112.432 110 116 106.432 116 102 L 116 60 L 116 18 C 116 13.568 112.432 10 108 10 L 20 10 z "
       id="path37"
       transform="translate(0,172)" />
    <g
       transform="rotate(-30,335.38415,529.30032)"
       id="g1710"
       style="display:inline;enable-background:new" />
    <text
       id="text1204"
       y="385.61469"
       x="-31.870586"
       style="font-style:normal;font-variant:normal;font-weight:normal;font-stretch:normal;font-size:26.66666603px;line-height:125%;font-family:Cantarell;-inkscape-font-specification:Cantarell;letter-spacing:0px;word-spacing:0px;display:inline;fill:#000000;fill-opacity:1;stroke:none;enable-background:new"
       xml:space="preserve"><tspan
         y="393.52002"
         x="-31.870586"
         id="tspan1202" /></text>
    <g
       id="g899"
       transform="translate(-29.796366,3.6620877)">
      <g
         id="g22"
         transform="matrix(1.2758909,0,0,1.3443073,194.61491,156.41466)"
         style="display:inline;opacity:0.2;enable-background:new">
        <path
           id="path6"
           d="m -86.682,70.021 c 0,0 -2.2303,1.2982 1.5891,1.7362 4.6278,0.52836 6.9927,0.45227 12.091,-0.51144 0,0 1.3431,0.84021 3.2156,1.5679 -11.433,4.8982 -25.875,-0.28382 -16.896,-2.7927 z"
           inkscape:connector-curvature="0" />
        <path
           id="path8"
           d="m -88.08,63.628 c 0,0 -2.5019,1.8524 1.3204,2.2474 4.944,0.5104 8.8468,0.55226 15.604,-0.74823 0,0 0.93244,0.94717 2.4009,1.4648 -13.821,4.0426 -29.214,0.31805 -19.326,-2.964 z"
           inkscape:connector-curvature="0" />
        <path
           id="path10"
           d="m -76.304,52.781 c 2.8185,3.2444 -0.73906,6.1616 -0.73906,6.1616 0,0 7.1525,-3.6917 3.8684,-8.3168 -3.0684,-4.3112 -5.4208,-6.4528 7.3147,-13.839 1.29e-4,0 -19.992,4.9918 -10.444,15.994 z"
           inkscape:connector-curvature="0" />
        <path
           id="path12"
           d="m -61.183,74.75 c 0,0 1.6511,1.3611 -1.8185,2.4137 -6.5975,1.9983 -27.465,2.6011 -33.261,0.07996 -2.082,-0.90686 1.8242,-2.1638 3.0532,-2.4293 1.2815,-0.27723 2.0132,-0.22659 2.0132,-0.22659 -2.3172,-1.6317 -14.977,3.2046 -6.4297,4.5917 23.308,3.7781 42.488,-1.7017 36.442,-4.4294 z"
           inkscape:connector-curvature="0" />
        <path
           id="path14"
           d="m -85.609,57.003 c 0,0 -10.613,2.5215 -3.7582,3.4379 2.8952,0.38742 8.6634,0.29828 14.04,-0.15282 4.393,-0.36869 8.8016,-1.1572 8.8016,-1.1572 0,0 -1.5479,0.664 -2.6685,1.4288 -10.78,2.8352 -31.6,1.5148 -25.605,-1.3838 5.0675,-2.4515 9.1898,-2.1729 9.1898,-2.1729 z"
           inkscape:connector-curvature="0" />
        <path
           id="path16"
           d="m -66.569,67.644 c 10.957,-5.6922 5.8904,-11.163 2.3541,-10.426 -0.86475,0.18047 -1.2527,0.33678 -1.2527,0.33678 0,0 0.32218,-0.50472 0.93567,-0.72187 6.9959,-2.4584 12.375,7.2531 -2.256,11.099 -1.3e-4,0 0.1682,-0.15244 0.21896,-0.28808 z"
           inkscape:connector-curvature="0" />
        <path
           id="path18"
           d="m -73.174,24.859 c 0,0 6.0668,6.0703 -5.756,15.402 -9.4811,7.4886 -2.1617,11.757 -0.0034,16.636 -5.5348,-4.9933 -9.5945,-9.3895 -6.8715,-13.48 3.9987,-6.0043 15.078,-8.9163 12.631,-18.558 z"
           inkscape:connector-curvature="0" />
        <path
           id="path20"
           d="m -84.532,83.074 c 10.515,0.67227 26.667,-0.37411 27.049,-5.3501 0,0 -0.73479,1.8863 -8.6909,3.383 -8.9758,1.6898 -20.049,1.4931 -26.614,0.40912 0,0 1.3449,1.1132 8.2557,1.5579 z"
           inkscape:connector-curvature="0" />
      </g>
      <path
         id="path24"
         d="m 84.018134,249.04953 c 0,0 -2.84562,1.74517 2.027518,2.33398 5.904568,0.71027 8.921922,0.60798 15.426798,-0.68754 0,0 1.71365,1.1295 4.10275,2.10775 -14.587258,6.58468 -33.013673,-0.38154 -21.557449,-3.75426 z"
         inkscape:connector-curvature="0"
         style="display:inline;fill:#ffffff;stroke-width:1.30965245;enable-background:new" />
      <path
         id="path26-3"
         d="m 82.234438,240.45537 c 0,0 -3.192151,2.49019 1.684686,3.02119 6.308005,0.68613 11.287552,0.74241 19.909006,-1.00585 0,0 1.18969,1.27329 3.06328,1.96915 -17.634086,5.43449 -37.273874,0.42755 -24.657866,-3.98454 z"
         inkscape:connector-curvature="0"
         style="display:inline;fill:#ffffff;stroke-width:1.30965245;enable-background:new" />
      <path
         id="path28"
         d="m 97.25933,225.87366 c 3.5961,4.36147 -0.942961,8.28308 -0.942961,8.28308 0,0 9.125811,-4.96277 4.935661,-11.18033 -3.914948,-5.79557 -6.916354,-8.67454 9.33275,-18.60387 1.7e-4,0 -25.507606,6.71052 -13.3254,21.50086 z"
         inkscape:connector-curvature="0"
         style="display:inline;fill:#ffffff;stroke-width:1.30965245;enable-background:new" />
      <path
         id="path30"
         d="m 116.55208,255.40676 c 0,0 2.10662,1.82972 -2.32022,3.24474 -8.41768,2.68633 -35.042335,3.49669 -42.437399,0.10746 -2.656405,-1.21911 2.327481,-2.90882 3.89555,-3.26573 1.635054,-0.37268 2.568623,-0.3046 2.568623,-0.3046 -2.956493,-2.19351 -19.109017,4.30796 -8.203595,6.17265 29.738465,5.07893 54.210061,-2.28761 46.496011,-5.95447 z"
         inkscape:connector-curvature="0"
         style="display:inline;fill:#ffffff;stroke-width:1.30965245;enable-background:new" />
      <path
         id="path32"
         d="m 85.387164,231.54933 c 0,0 -13.541029,3.38966 -4.795053,4.62159 3.69396,0.52081 11.053553,0.40099 17.913508,-0.20544 5.604991,-0.49562 11.229891,-1.55563 11.229891,-1.55563 0,0 -1.97496,0.89262 -3.40472,1.92074 -13.754108,3.81139 -40.318156,2.03637 -32.66919,-1.86025 6.465577,-3.29556 11.725182,-2.92104 11.725182,-2.92104 z"
         inkscape:connector-curvature="0"
         style="display:inline;fill:#ffffff;stroke-width:1.30965245;enable-background:new" />
      <path
         id="path34"
         d="m 109.68013,245.8541 c 13.97994,-7.65206 7.5155,-15.0065 3.00357,-14.01574 -1.10333,0.2426 -1.5983,0.45273 -1.5983,0.45273 0,0 0.41106,-0.6785 1.19381,-0.97041 8.926,-3.30485 15.78915,9.75039 -2.87841,14.92047 -1.7e-4,0 0.2146,-0.20494 0.27937,-0.38727 z"
         inkscape:connector-curvature="0"
         style="display:inline;fill:#ffffff;stroke-width:1.30965245;enable-background:new" />
      <path
         id="path36"
         d="m 101.25287,188.33791 c 0,0 7.74058,8.16036 -7.34403,20.70502 -12.09685,10.06699 -2.758094,15.80502 -0.0043,22.3639 -7.061801,-6.71252 -12.241536,-12.62237 -8.767285,-18.12126 5.1019,-8.07163 19.237875,-11.98625 16.115775,-24.94766 z"
         inkscape:connector-curvature="0"
         style="display:inline;fill:#ffffff;stroke-width:1.30965245;enable-background:new" />
      <path
         id="path38"
         d="m 86.761299,266.59676 c 13.415991,0.90375 34.024181,-0.50292 34.511571,-7.19217 0,0 -0.93751,2.53577 -11.08864,4.54778 -11.45214,2.27162 -25.580335,2.00719 -33.956558,0.54999 0,0 1.715946,1.49648 10.533372,2.0943 z"
         inkscape:connector-curvature="0"
         style="display:inline;fill:#ffffff;stroke-width:1.30965245;enable-background:new" />
    </g>
  </g>
</svg>
