<?xml version="1.0" encoding="UTF-8" standalone="no"?>
<svg
   xmlns:dc="http://purl.org/dc/elements/1.1/"
   xmlns:cc="http://creativecommons.org/ns#"
   xmlns:rdf="http://www.w3.org/1999/02/22-rdf-syntax-ns#"
   xmlns:svg="http://www.w3.org/2000/svg"
   xmlns="http://www.w3.org/2000/svg"
   xmlns:xlink="http://www.w3.org/1999/xlink"
   xmlns:sodipodi="http://sodipodi.sourceforge.net/DTD/sodipodi-0.dtd"
   xmlns:inkscape="http://www.inkscape.org/namespaces/inkscape"
   viewBox="0 0 128 128"
   style="display:inline;enable-background:new"
   version="1.0"
   id="svg11300"
   height="128"
   width="128"
   sodipodi:docname="k3b.svg"
   inkscape:version="0.92.3 (2405546, 2018-03-11)">
  <sodipodi:namedview
     pagecolor="#ffffff"
     bordercolor="#666666"
     borderopacity="1"
     objecttolerance="10"
     gridtolerance="10"
     guidetolerance="10"
     inkscape:pageopacity="0"
     inkscape:pageshadow="2"
     inkscape:window-width="1920"
     inkscape:window-height="1009"
     id="namedview24"
     showgrid="true"
     inkscape:zoom="7.8773585"
     inkscape:cx="32.491355"
     inkscape:cy="64"
     inkscape:window-x="0"
     inkscape:window-y="34"
     inkscape:window-maximized="1"
     inkscape:current-layer="svg11300"
     showguides="false" />
  <title
     id="title4162">Adwaita Icon Template</title>
  <defs
     id="defs3">
    <linearGradient
       id="linearGradient950">
      <stop
         style="stop-color:#9a9996;stop-opacity:1"
         offset="0"
         id="stop946" />
      <stop
         style="stop-color:#77767b;stop-opacity:1"
         offset="1"
         id="stop948" />
    </linearGradient>
    <linearGradient
       y2="812.88245"
       x2="1662.9901"
       y1="806.29718"
       x1="1660.8571"
       gradientTransform="matrix(1.8293937,-0.81599442,0.81599442,1.8293937,-3645.9624,100.02949)"
       gradientUnits="userSpaceOnUse"
       id="linearGradient1001"
       xlink:href="#linearGradient950" />
  </defs>
  <metadata
     id="metadata4">
    <rdf:RDF>
      <cc:Work
         rdf:about="">
        <dc:format>image/svg+xml</dc:format>
        <dc:type
           rdf:resource="http://purl.org/dc/dcmitype/StillImage" />
        <dc:creator>
          <cc:Agent>
            <dc:title>GNOME Design Team</dc:title>
          </cc:Agent>
        </dc:creator>
        <dc:source />
        <cc:license
           rdf:resource="http://creativecommons.org/licenses/by-sa/4.0/" />
        <dc:title>Adwaita Icon Template</dc:title>
        <dc:subject>
          <rdf:Bag />
        </dc:subject>
        <dc:date />
        <dc:rights>
          <cc:Agent>
            <dc:title />
          </cc:Agent>
        </dc:rights>
        <dc:publisher>
          <cc:Agent>
            <dc:title />
          </cc:Agent>
        </dc:publisher>
        <dc:identifier />
        <dc:relation />
        <dc:language />
        <dc:coverage />
        <dc:description />
        <dc:contributor>
          <cc:Agent>
            <dc:title />
          </cc:Agent>
        </dc:contributor>
      </cc:Work>
      <cc:License
         rdf:about="http://creativecommons.org/licenses/by-sa/4.0/">
        <cc:permits
           rdf:resource="http://creativecommons.org/ns#Reproduction" />
        <cc:permits
           rdf:resource="http://creativecommons.org/ns#Distribution" />
        <cc:requires
           rdf:resource="http://creativecommons.org/ns#Notice" />
        <cc:requires
           rdf:resource="http://creativecommons.org/ns#Attribution" />
        <cc:permits
           rdf:resource="http://creativecommons.org/ns#DerivativeWorks" />
        <cc:requires
           rdf:resource="http://creativecommons.org/ns#ShareAlike" />
      </cc:License>
    </rdf:RDF>
  </metadata>
  <path
     id="path827"
     d="M 65.000004,13 C 36.192005,13 13,36.192 13,65 13,93.808001 36.192005,117 65.000004,117 93.808003,117 117,93.808001 117,65 117,36.192 93.808003,13 65.000004,13 Z m 0,29.714286 A 22.285716,22.285714 0 0 1 87.285717,65 22.285716,22.285714 0 0 1 65.000004,87.285715 22.285716,22.285714 0 0 1 42.714289,65 22.285716,22.285714 0 0 1 65.000004,42.714286 Z"
     style="fill:#000000;stroke-width:1.85714293;fill-opacity:1;opacity:0.2"
     inkscape:connector-curvature="0" />
  <path
     inkscape:connector-curvature="0"
     style="fill:#939393;stroke-width:1.85714293;fill-opacity:1"
     d="M 65.000004,35.142858 A 27.857144,27.857142 0 0 0 37.142858,63 27.857144,27.857142 0 0 0 65.000004,90.857144 27.857144,27.857142 0 0 0 92.857146,63 27.857144,27.857142 0 0 0 65.000004,35.142858 Z m 0,16.714285 c 6.154201,0 11.142854,4.988658 11.142854,11.142857 0,6.1542 -4.988653,11.142858 -11.142854,11.142858 -6.154201,0 -11.142859,-4.988658 -11.142859,-11.142858 0,-6.154199 4.988658,-11.142857 11.142859,-11.142857 z"
     id="path4" />
  <path
     inkscape:transform-center-x="25.999908"
     inkscape:transform-center-y="17.885864"
     inkscape:connector-curvature="0"
     style="fill:#e01b24;fill-rule:evenodd;stroke-width:2.5999999;fill-opacity:1"
     id="path4680"
     d="m 65.000004,11 c -24.218921,0.992004 -25.811395,3.795272 -28.794791,5.30556 -3.995134,2.02267 -8.909628,3.161756 -8.39631,-0.11128 -1.699958,0.62205 -3.658486,2.990546 -1.999062,5.953662 1.659398,2.96309 -1.65503,6.415968 -3.251274,4.548388 -3.054948,-3.574142 -10.543936,-0.770094 -9.450688,3.802812 1.076452,-1.075204 6.087874,-3.429036 5.390944,1.823588 -0.696982,5.252624 -1.043484,9.276826 4.297124,12.857286 5.340582,3.580486 26.061308,-0.04212 26.061308,-0.04212 z" />
  <path
     inkscape:connector-curvature="0"
     style="fill:#e4e4e4;stroke-width:1.85714293"
     d="M 65.000004,11 C 36.192005,11 13,34.192 13,63 13,91.808001 36.192005,115 65.000004,115 93.808003,115 117,91.808001 117,63 117,34.192 93.808003,11 65.000004,11 Z m 0,29.714286 A 22.285716,22.285714 0 0 1 87.285717,63 22.285716,22.285714 0 0 1 65.000004,85.285715 22.285716,22.285714 0 0 1 42.714289,63 22.285716,22.285714 0 0 1 65.000004,40.714286 Z"
     id="path6" />
  <path
     inkscape:connector-curvature="0"
     style="fill:#e01b24;fill-rule:evenodd;stroke-width:2.5999999;fill-opacity:1"
     id="path4648"
     d="m 87.013469,15.899853 c 1.627936,1.495164 3.737578,3.651674 5.042578,5.982031 2.275,4.0625 1.95,11.13125 -5.0375,12.43125 -6.98763,1.3 -7.25465,-1.080092 -7.23125,-3.9 -3.714568,0.511342 -5.375812,8.74523 1.1375,11.61875 5.525,2.4375 7.55625,1.4625 17.95625,0.8125 10.400003,-0.65 11.618753,12.025 6.743753,13.975 -4.875,1.95 -6.736499,-1.525888 -6.418753,-3.4125 -3.907254,1.525888 -4.38425,5.782972 -2.4375,7.8 15.201813,15.750721 7.910893,27.921399 3.737503,29.168749 -5.171481,1.545674 -8.817227,-1.51827 -6.175003,-5.60625 2.153138,-3.33125 0.294871,-8.82507 -2.320703,-10.770702 -2.615574,-1.945684 -7.694705,-1.480498 -9.866797,-0.03554 3.130842,1.183676 7.71875,3.00625 6.5,7.06875 -0.941148,3.13716 -4.024592,5.112899 -7.88125,5.037499 -8.785947,-0.172068 -6.003816,-8.109373 -4.79375,-9.018749 -4.721081,-0.584376 -7.874751,8.030151 -4.793751,10.968749 3.031887,2.891772 7.293131,4.504942 4.712501,8.9375 -2.706783,4.64927 -6.500001,7.15 -13,5.85 -6.5,-1.3 -10.075,-5.44375 -9.2625,-9.2625 0.8125,-3.81875 2.71024,-4.32848 6.0125,-4.3875 -2.06024,-4.365217 -12.1875,-4.387499 -12.025,3.16875 0.08395,3.903328 -6.450626,4.545866 -9.18125,0.1625 -3.0875,-4.956255 -0.476528,-7.076451 3.00625,-6.256255 0.232778,-5.517304 -4.46875,-2.84375 -5.6875,-8.9375 -1.21875,-6.09375 8.9375,-10.725 8.9375,-10.725 l -31.601172,-0.62969 c 1.519089,27.425304 24.09563,49.054685 51.913671,49.054685 28.807975,0 52.000004,-23.192023 52.000004,-51.999996 0,-20.918839 -12.25819,-38.827872 -29.986331,-47.094531 z" />
  <path
     inkscape:connector-curvature="0"
     style="color:#000000;fill:#3d3846;stroke-width:7.79999971;stroke-linecap:round;stroke-linejoin:round;fill-opacity:1"
     id="rect4609"
     d="m 13.969727,52.741648 c -0.626366,3.32085 -0.96993,6.744426 -0.96993,10.252736 0,3.508309 0.343564,6.931885 0.96993,10.252735 l 30.23007,-5.052736 c 2.847312,-0.438048 5.2,-2.3192 5.2,-5.199999 0,-2.8808 -2.352688,-4.761952 -5.2,-5.2 z" />
  <circle
     cx="44.199821"
     cy="62.994316"
     style="color:#000000;fill:#26a269;stroke-width:7.79999971;stroke-linecap:round;stroke-linejoin:round;fill-opacity:1"
     r="2.5999999"
     id="path4638" />
  <path
     inkscape:connector-curvature="0"
     style="fill:#95a5a6;stroke-width:22.32533836;stroke-opacity:0.55026502"
     id="rect4166-6-3-6"
     d="m 75.399797,62.994384 c 0,2.656471 -1.016834,5.312943 -3.051959,7.348041 -2.035098,2.035124 -4.69157,3.051958 -7.348042,3.051958 v 2.6 c 3.321214,0 6.642428,-1.269762 9.186321,-3.81368 2.543918,-2.543892 3.81368,-5.865106 3.81368,-9.186319 z" />
</svg>
