<svg width="256" height="256" version="1.1" viewBox="0 0 67.73 67.73" xmlns="http://www.w3.org/2000/svg" xmlns:xlink="http://www.w3.org/1999/xlink">
 <defs>
  <linearGradient id="linearGradient1108" x1="296" x2="296" y1="-212" y2="236" gradientUnits="userSpaceOnUse">
   <stop style="stop-color:#ffffff" offset="0"/>
   <stop style="stop-color:#ffffff;stop-opacity:.09803922" offset=".125"/>
   <stop style="stop-color:#000000;stop-opacity:.09803922" offset=".925"/>
   <stop style="stop-color:#000000;stop-opacity:.49803922" offset="1"/>
  </linearGradient>
  <clipPath id="clipPath1082-3-367">
   <path d="M 361.9375,-212 C 507.2348,-212 528,-191.28677 528,-46.125 V 70.125 C 528,215.28618 507.2348,236 361.9375,236 H 214.0625 C 68.7652,236 48,215.28618 48,70.125 V -46.125 C 48,-191.28677 68.7652,-212 214.0625,-212 Z" style="fill:#8c59d9"/>
  </clipPath>
  <filter id="filter974" x="-.02" y="-.03" width="1.046" height="1.05" style="color-interpolation-filters:sRGB">
   <feGaussianBlur stdDeviation="2.32"/>
  </filter>
 </defs>
 <g transform="translate(0,-229.26666)">
  <path transform="matrix(.26458333 0 0 .26458333 -1.8735229e-8 232.67026)" d="m162.53675 5.5680001c72.64865 0 83.03125 10.356615 83.03125 82.937505v58.125005c0 72.58059-10.3826 82.9375-83.03125 82.9375h-73.937496c-72.648654 0-83.031254-10.35691-83.031254-82.9375v-58.125005c0-72.58089 10.3826-82.937505 83.031254-82.937505z" style="filter:url(#filter974);opacity:.2"/>
  <path d="m43.087757 233.61429c19.221622 0 21.968685 2.74019 21.968685 21.94388v15.37891c0 19.20362-2.747063 21.94388-21.968685 21.94388h-19.56263c-19.221622 0-21.968685-2.74026-21.968685-21.94388v-15.37891c0-19.20369 2.747063-21.94388 21.968685-21.94388z" style="fill:#dddddd"/>
  <path transform="matrix(.26458333 0 0 .26458333 0 229.26666)" d="m123.88281 16.431641v112h122v-29.062499c0-9.07261-0.1621-17.172939-0.58789-24.402344-0.21289-3.614703-0.49226-7.011234-0.84961-10.203125-0.35734-3.191891-0.79318-6.178252-1.32031-8.972656-0.52713-2.794405-1.14495-5.396115-1.86719-7.81836s-1.54949-4.664823-2.49219-6.740234c-0.94268-2.075411-2.00097-3.984379-3.18945-5.738281-1.18847-1.753903-2.50721-3.352827-3.96679-4.810547-1.4596-1.457721-3.06037-2.774073-4.81641-3.960938-1.75604-1.186864-3.66632-2.244212-5.74414-3.185547-2.07783-0.941334-4.3231-1.76715-6.74805-2.488281-2.42494-0.72113-5.02877-1.338982-7.82617-1.865234-2.7974-0.526253-5.78919-0.961659-8.98438-1.31836-3.19518-0.3567-6.59459-0.633229-10.21289-0.845703-7.2366-0.424948-15.3447-0.58789-24.42578-0.58789h-38.96875z" style="fill:#edc53f"/>
  <path transform="matrix(.26458333 0 0 .26458333 0 229.26666)" d="m5.8828125 128.43164v29.0625c0 9.07258 0.1620995 17.17296 0.5878906 24.40234 0.2128956 3.6147 0.4922655 7.01124 0.8496094 10.20313 0.3573439 3.19188 0.7931865 6.18021 1.3203125 8.97461s1.1449457 5.39611 1.867187 7.81836c0.722242 2.42224 1.547544 4.66482 2.490235 6.74023s2.002932 3.98243 3.191406 5.73633c1.188475 1.75391 2.505252 3.35478 3.964844 4.8125 1.459591 1.45773 3.062317 2.77212 4.818359 3.95898 1.756042 1.18687 3.666314 2.24617 5.744141 3.1875 2.077826 0.94134 4.323102 1.7652 6.748047 2.48633 2.424944 0.72114 5.028775 1.33898 7.826172 1.86524 2.797396 0.52626 5.78724 0.96165 8.982422 1.31836 3.195181 0.3567 6.596542 0.63518 10.214843 0.84765 7.236602 0.42496 15.3447 0.58594 24.425781 0.58594h34.968748v-112h-118z" style="fill:#edc53f"/>
  <path transform="matrix(.13229167 0 0 .13229167 -4.876802 261.66013)" d="M 361.9375,-212 C 507.2348,-212 528,-191.28677 528,-46.125 V 70.125 C 528,215.28618 507.2348,236 361.9375,236 H 214.0625 C 68.7652,236 48,215.28618 48,70.125 V -46.125 C 48,-191.28677 68.7652,-212 214.0625,-212 Z" clip-path="url(#clipPath1082-3-367)" style="fill:none;opacity:.4;stroke-linecap:round;stroke-linejoin:round;stroke-width:8;stroke:url(#linearGradient1108)"/>
  <rect transform="scale(-1,1)" x="-23.78" y="241.82" width="13.229" height="13.229" rx="1.654" ry="1.654" style="fill:#3775f2"/>
  <rect transform="scale(-1,1)" x="-55.53" y="271.45" width="13.229" height="13.229" rx="1.654" ry="1.654" style="fill:#3775f2"/>
 </g>
</svg>
