<svg xmlns="http://www.w3.org/2000/svg" width="128" height="128" version="1">
 <path style="opacity:0.2" d="m 16.631579,44 v 4.210526 c 0,2.332632 1.877895,4.210527 4.210526,4.210527 h 25.263158 c 2.332632,0 4.210526,-1.877895 4.210526,-4.210527 V 44 c 0,2.332632 -1.877894,4.210526 -4.210526,4.210526 H 20.842105 c -2.332631,0 -4.210526,-1.877894 -4.210526,-4.210526 z m 46.315789,16.842105 v 4.210527 h 58.947372 v -4.210527 z m 12.631579,42.105265 v 4.21052 c 0,2.33264 1.877895,4.21053 4.210527,4.21053 h 25.263156 c 2.33263,0 4.21053,-1.87789 4.21053,-4.21053 v -4.21052 c 0,2.33263 -1.8779,4.21052 -4.21053,4.21052 H 79.789474 c -2.332632,0 -4.210527,-1.87789 -4.210527,-4.21052 z M 4,113.47368 v 4.21053 C 4,121.18316 6.8168421,124 10.315789,124 h 52.631579 v -4.21053 H 10.315789 C 6.8168421,119.78947 4,116.97263 4,113.47368 Z"/>
 <path style="fill:#f5c211" d="m 62.947368,3.9999997 h 52.631582 c 3.49894,0 6.31579,2.8168423 6.31579,6.3157893 V 62.947368 H 62.947368 Z"/>
 <path style="fill:#f5c211" d="M 62.947368,121.89474 H 10.315789 C 6.8168421,121.89474 4,119.07789 4,115.57895 V 62.947368 h 58.947368 z"/>
 <rect style="fill:#1c71d8" width="33.684" height="33.684" x="75.58" y="75.58" rx="4.211" ry="4.211"/>
 <rect style="fill:#1c71d8" width="33.684" height="33.684" x="16.63" y="16.63" rx="4.211" ry="4.211"/>
</svg>
