<?xml version="1.0" encoding="UTF-8" standalone="no"?>
<svg
   xmlns:dc="http://purl.org/dc/elements/1.1/"
   xmlns:cc="http://creativecommons.org/ns#"
   xmlns:rdf="http://www.w3.org/1999/02/22-rdf-syntax-ns#"
   xmlns:svg="http://www.w3.org/2000/svg"
   xmlns="http://www.w3.org/2000/svg"
   xmlns:xlink="http://www.w3.org/1999/xlink"
   xmlns:sodipodi="http://sodipodi.sourceforge.net/DTD/sodipodi-0.dtd"
   xmlns:inkscape="http://www.inkscape.org/namespaces/inkscape"
   viewBox="0 0 128 128"
   style="display:inline;enable-background:new"
   version="1.0"
   id="svg11300"
   height="128"
   width="128"
   sodipodi:docname="kodi.svg"
   inkscape:version="0.92.3 (2405546, 2018-03-11)">
  <sodipodi:namedview
     pagecolor="#ffffff"
     bordercolor="#666666"
     borderopacity="1"
     objecttolerance="10"
     gridtolerance="10"
     guidetolerance="10"
     inkscape:pageopacity="0"
     inkscape:pageshadow="2"
     inkscape:window-width="1920"
     inkscape:window-height="1009"
     id="namedview24"
     showgrid="false"
     inkscape:zoom="6.5234375"
     inkscape:cx="34.870291"
     inkscape:cy="62.238458"
     inkscape:window-x="0"
     inkscape:window-y="34"
     inkscape:window-maximized="1"
     inkscape:current-layer="g52" />
  <title
     id="title4162">Adwaita Icon Template</title>
  <defs
     id="defs3">
    <linearGradient
       gradientTransform="matrix(0.54625232,0,0,0.54625232,-6.0941965,-68.413544)"
       id="linearGradient1007"
       x1="160.30499"
       x2="161.33"
       y1="240.13901"
       y2="135.57899"
       gradientUnits="userSpaceOnUse"
       xlink:href="#linearGradient1018" />
    <linearGradient
       id="linearGradient1018">
      <stop
         style="stop-color:#37a6e6"
         offset="0"
         id="stop2" />
      <stop
         style="stop-color:#1a7fd4"
         offset="1"
         id="stop4" />
    </linearGradient>
    <linearGradient
       id="linearGradient1108"
       x1="296"
       x2="296"
       y1="-212"
       y2="236"
       gradientUnits="userSpaceOnUse">
      <stop
         style="stop-color:#ffffff"
         offset="0"
         id="stop2-3" />
      <stop
         style="stop-color:#ffffff;stop-opacity:.09803922"
         offset=".125"
         id="stop4-6" />
      <stop
         style="stop-color:#000000;stop-opacity:.09803922"
         offset=".925"
         id="stop6" />
      <stop
         style="stop-color:#000000;stop-opacity:.49803922"
         offset="1"
         id="stop8" />
    </linearGradient>
    <clipPath
       id="clipPath1082-3-36753">
      <path
         inkscape:connector-curvature="0"
         d="M 361.9375,-212 C 507.2348,-212 528,-191.28677 528,-46.125 V 70.125 C 528,215.28618 507.2348,236 361.9375,236 H 214.0625 C 68.7652,236 48,215.28618 48,70.125 V -46.125 C 48,-191.28677 68.7652,-212 214.0625,-212 Z"
         style="fill:#8c59d9"
         id="path11" />
    </clipPath>
  </defs>
  <metadata
     id="metadata4">
    <rdf:RDF>
      <cc:Work
         rdf:about="">
        <dc:format>image/svg+xml</dc:format>
        <dc:type
           rdf:resource="http://purl.org/dc/dcmitype/StillImage" />
        <dc:creator>
          <cc:Agent>
            <dc:title>GNOME Design Team</dc:title>
          </cc:Agent>
        </dc:creator>
        <dc:source />
        <cc:license
           rdf:resource="http://creativecommons.org/licenses/by-sa/4.0/" />
        <dc:title>Adwaita Icon Template</dc:title>
        <dc:subject>
          <rdf:Bag />
        </dc:subject>
        <dc:date />
        <dc:rights>
          <cc:Agent>
            <dc:title />
          </cc:Agent>
        </dc:rights>
        <dc:publisher>
          <cc:Agent>
            <dc:title />
          </cc:Agent>
        </dc:publisher>
        <dc:identifier />
        <dc:relation />
        <dc:language />
        <dc:coverage />
        <dc:description />
        <dc:contributor>
          <cc:Agent>
            <dc:title />
          </cc:Agent>
        </dc:contributor>
      </cc:Work>
      <cc:License
         rdf:about="http://creativecommons.org/licenses/by-sa/4.0/">
        <cc:permits
           rdf:resource="http://creativecommons.org/ns#Reproduction" />
        <cc:permits
           rdf:resource="http://creativecommons.org/ns#Distribution" />
        <cc:requires
           rdf:resource="http://creativecommons.org/ns#Notice" />
        <cc:requires
           rdf:resource="http://creativecommons.org/ns#Attribution" />
        <cc:permits
           rdf:resource="http://creativecommons.org/ns#DerivativeWorks" />
        <cc:requires
           rdf:resource="http://creativecommons.org/ns#ShareAlike" />
      </cc:License>
    </rdf:RDF>
  </metadata>
  <g
     transform="translate(0,-172)"
     style="display:inline"
     id="layer1">
    <g
       style="display:inline"
       id="layer9">
      <g
         transform="rotate(-30,413.5026,270.49096)"
         id="g1710"
         style="display:inline;enable-background:new" />
      <text
         id="text1204"
         y="390.00003"
         x="107.99998"
         style="font-style:normal;font-variant:normal;font-weight:normal;font-stretch:normal;font-size:26.66666603px;line-height:125%;font-family:Cantarell;-inkscape-font-specification:Cantarell;letter-spacing:0px;word-spacing:0px;display:inline;fill:#000000;fill-opacity:1;stroke:none;enable-background:new"
         xml:space="preserve"><tspan
           y="397.90536"
           x="107.99998"
           id="tspan1202" /></text>
      <g
         transform="matrix(1.8929253,0,0,1.8929253,0.8557559,-264.04529)"
         id="g54">
        <g
           transform="translate(0.07990943)"
           id="g52">
          <g
             transform="matrix(0.25832651,0,0,0.25832651,-46.498228,189.99394)"
             id="g1522"
             style="fill:#000000;fill-opacity:1;opacity:0.1">
            <path
               style="clip-rule:evenodd;fill:#000000;fill-rule:evenodd;fill-opacity:1"
               inkscape:connector-curvature="0"
               id="path1514"
               d="m 431.521,293.719 c -0.791,2.568 -2.526,4.448 -4.384,6.299 -12.448,12.406 -24.857,24.852 -37.278,37.284 -4.476,4.478 -9.259,4.465 -13.752,-0.032 -12.82,-12.83 -25.641,-25.659 -38.456,-38.491 -4.366,-4.372 -4.364,-9.144 0.013,-13.526 12.888,-12.906 25.778,-25.809 38.671,-38.708 4.195,-4.198 9.124,-4.2 13.318,-0.004 12.499,12.501 24.979,25.02 37.499,37.496 1.859,1.852 3.586,3.741 4.369,6.31 z" />
            <path
               style="clip-rule:evenodd;fill:#000000;fill-rule:evenodd;fill-opacity:1"
               inkscape:connector-curvature="0"
               id="path1516"
               d="m 307.953,413.914 c -2.556,-0.812 -4.408,-2.582 -6.251,-4.436 -12.395,-12.458 -24.828,-24.877 -37.247,-37.312 -4.444,-4.45 -4.449,-9.198 -0.015,-13.638 12.855,-12.865 25.709,-25.729 38.567,-38.592 4.274,-4.274 9.171,-4.29 13.422,-0.037 12.856,12.864 25.711,25.729 38.563,38.597 4.415,4.421 4.428,9.264 0.031,13.664 -12.527,12.541 -25.075,25.066 -37.573,37.633 -1.789,1.798 -3.629,3.415 -6.123,4.12 h -3.374 z" />
            <path
               style="clip-rule:evenodd;fill:#000000;fill-rule:evenodd;fill-opacity:1"
               inkscape:connector-curvature="0"
               id="path1518"
               d="m 262.841,261.207 c 0,-14.303 0.129,-28.608 -0.081,-42.909 -0.061,-4.14 0.928,-7.374 4.089,-10.104 2.543,-2.198 4.797,-4.733 7.179,-7.118 9.423,-9.433 18.845,-18.867 28.271,-28.296 4.433,-4.432 9.213,-4.429 13.643,0.002 12.821,12.825 25.641,25.653 38.459,38.482 4.403,4.407 4.4,9.254 -0.003,13.663 -15.16,15.179 -30.326,30.356 -45.49,45.533 -13.391,13.405 -26.78,26.809 -40.173,40.212 -2.481,2.482 -4.679,1.905 -5.581,-1.536 -0.278,-1.066 -0.3,-2.219 -0.301,-3.332 -0.018,-14.866 -0.012,-29.732 -0.012,-44.597" />
            <path
               style="clip-rule:evenodd;fill:#000000;fill-rule:evenodd;fill-opacity:1"
               inkscape:connector-curvature="0"
               id="path1520"
               d="m 232.182,292.201 c 0,13.127 0.019,26.256 -0.026,39.383 -0.005,1.247 -0.203,2.567 -0.65,3.724 -0.876,2.279 -2.52,2.561 -4.241,0.844 -6.037,-6.027 -12.057,-12.071 -18.083,-18.107 -6.965,-6.977 -13.932,-13.953 -20.894,-20.934 -2.882,-2.889 -2.895,-6.898 -0.024,-9.801 12.82,-12.967 25.643,-25.933 38.472,-38.895 0.848,-0.857 1.648,-2.02 3.089,-1.475 1.378,0.52 1.922,1.763 2.118,3.141 0.122,0.854 0.218,1.722 0.22,2.583 0.013,13.179 0.009,26.359 0.009,39.537 z" />
          </g>
          <g
             id="g926"
             transform="matrix(0.25832651,0,0,0.25832651,-46.498228,188.93737)">
            <path
               d="m 431.521,293.719 c -0.791,2.568 -2.526,4.448 -4.384,6.299 -12.448,12.406 -24.857,24.852 -37.278,37.284 -4.476,4.478 -9.259,4.465 -13.752,-0.032 -12.82,-12.83 -25.641,-25.659 -38.456,-38.491 -4.366,-4.372 -4.364,-9.144 0.013,-13.526 12.888,-12.906 25.778,-25.809 38.671,-38.708 4.195,-4.198 9.124,-4.2 13.318,-0.004 12.499,12.501 24.979,25.02 37.499,37.496 1.859,1.852 3.586,3.741 4.369,6.31 z"
               id="path918"
               inkscape:connector-curvature="0"
               style="clip-rule:evenodd;fill:#31afe1;fill-rule:evenodd" />
            <path
               d="m 307.953,413.914 c -2.556,-0.812 -4.408,-2.582 -6.251,-4.436 -12.395,-12.458 -24.828,-24.877 -37.247,-37.312 -4.444,-4.45 -4.449,-9.198 -0.015,-13.638 12.855,-12.865 25.709,-25.729 38.567,-38.592 4.274,-4.274 9.171,-4.29 13.422,-0.037 12.856,12.864 25.711,25.729 38.563,38.597 4.415,4.421 4.428,9.264 0.031,13.664 -12.527,12.541 -25.075,25.066 -37.573,37.633 -1.789,1.798 -3.629,3.415 -6.123,4.12 h -3.374 z"
               id="path920"
               inkscape:connector-curvature="0"
               style="clip-rule:evenodd;fill:#31afe1;fill-rule:evenodd" />
            <path
               d="m 262.841,261.207 c 0,-14.303 0.129,-28.608 -0.081,-42.909 -0.061,-4.14 0.928,-7.374 4.089,-10.104 2.543,-2.198 4.797,-4.733 7.179,-7.118 9.423,-9.433 18.845,-18.867 28.271,-28.296 4.433,-4.432 9.213,-4.429 13.643,0.002 12.821,12.825 25.641,25.653 38.459,38.482 4.403,4.407 4.4,9.254 -0.003,13.663 -15.16,15.179 -30.326,30.356 -45.49,45.533 -13.391,13.405 -26.78,26.809 -40.173,40.212 -2.481,2.482 -4.679,1.905 -5.581,-1.536 -0.278,-1.066 -0.3,-2.219 -0.301,-3.332 -0.018,-14.866 -0.012,-29.732 -0.012,-44.597"
               id="path922"
               inkscape:connector-curvature="0"
               style="clip-rule:evenodd;fill:#31afe1;fill-rule:evenodd" />
            <path
               d="m 232.182,292.201 c 0,13.127 0.019,26.256 -0.026,39.383 -0.005,1.247 -0.203,2.567 -0.65,3.724 -0.876,2.279 -2.52,2.561 -4.241,0.844 -6.037,-6.027 -12.057,-12.071 -18.083,-18.107 -6.965,-6.977 -13.932,-13.953 -20.894,-20.934 -2.882,-2.889 -2.895,-6.898 -0.024,-9.801 12.82,-12.967 25.643,-25.933 38.472,-38.895 0.848,-0.857 1.648,-2.02 3.089,-1.475 1.378,0.52 1.922,1.763 2.118,3.141 0.122,0.854 0.218,1.722 0.22,2.583 0.013,13.179 0.009,26.359 0.009,39.537 z"
               id="path924"
               inkscape:connector-curvature="0"
               style="clip-rule:evenodd;fill:#31afe1;fill-rule:evenodd" />
          </g>
        </g>
      </g>
    </g>
  </g>
  <g
     transform="matrix(0.51321901,0,0,0.55838602,-73.854417,42.038141)"
     id="g861"
     style="stroke:#ffffff;stroke-width:1.84039485;stroke-linecap:butt;stroke-linejoin:round;stroke-miterlimit:4;stroke-dasharray:none;stroke-opacity:1">
    <g
       id="g859"
       transform="matrix(2,0,0,2,24.834232,-1978.9059)"
       style="stroke:#ffffff;stroke-width:0.92019743;stroke-linecap:butt;stroke-linejoin:round;stroke-miterlimit:4;stroke-dasharray:none;stroke-opacity:1" />
  </g>
</svg>
