<?xml version="1.0" encoding="UTF-8" standalone="no"?>
<svg
   xmlns:dc="http://purl.org/dc/elements/1.1/"
   xmlns:cc="http://creativecommons.org/ns#"
   xmlns:rdf="http://www.w3.org/1999/02/22-rdf-syntax-ns#"
   xmlns:svg="http://www.w3.org/2000/svg"
   xmlns="http://www.w3.org/2000/svg"
   xmlns:xlink="http://www.w3.org/1999/xlink"
   xmlns:sodipodi="http://sodipodi.sourceforge.net/DTD/sodipodi-0.dtd"
   xmlns:inkscape="http://www.inkscape.org/namespaces/inkscape"
   width="128"
   height="128"
   version="1.0"
   id="svg75"
   sodipodi:docname="marker.svg"
   inkscape:version="0.92.3 (2405546, 2018-03-11)">
  <metadata
     id="metadata79">
    <rdf:RDF>
      <cc:Work
         rdf:about="">
        <dc:format>image/svg+xml</dc:format>
        <dc:type
           rdf:resource="http://purl.org/dc/dcmitype/StillImage" />
        <dc:title></dc:title>
      </cc:Work>
    </rdf:RDF>
  </metadata>
  <sodipodi:namedview
     pagecolor="#ffffff"
     bordercolor="#666666"
     borderopacity="1"
     objecttolerance="10"
     gridtolerance="10"
     guidetolerance="10"
     inkscape:pageopacity="0"
     inkscape:pageshadow="2"
     inkscape:window-width="1800"
     inkscape:window-height="986"
     id="namedview77"
     showgrid="false"
     inkscape:zoom="6.34375"
     inkscape:cx="77.357208"
     inkscape:cy="66.482759"
     inkscape:window-x="0"
     inkscape:window-y="34"
     inkscape:window-maximized="0"
     inkscape:current-layer="deepin-editor"
     showguides="false" />
  <defs
     id="defs24">
    <linearGradient
       id="a">
      <stop
         offset="0"
         stop-color="#68676b"
         id="stop2" />
      <stop
         offset=".8"
         stop-color="#424048"
         id="stop4" />
      <stop
         offset="1"
         stop-color="#241f31"
         id="stop6" />
    </linearGradient>
    <radialGradient
       xlink:href="#a"
       id="d"
       gradientUnits="userSpaceOnUse"
       gradientTransform="matrix(1.34416 .0006 -.00062 1.38763 -121.22 -718.103)"
       cx="279.422"
       cy="446.483"
       fx="279.422"
       fy="446.483"
       r="224" />
    <linearGradient
       xlink:href="#b"
       id="e"
       gradientUnits="userSpaceOnUse"
       gradientTransform="matrix(1.0015 0 0 .99993 72.09 56.015)"
       x1="43.844"
       y1="234"
       x2="-60"
       y2="234" />
    <linearGradient
       id="b">
      <stop
         offset="0"
         stop-color="#d5d3cf"
         id="stop11" />
      <stop
         offset=".038"
         stop-color="#e3e2df"
         id="stop13" />
      <stop
         offset=".077"
         stop-color="#c0bfbc"
         id="stop15" />
      <stop
         offset=".923"
         stop-color="#c0bfbc"
         id="stop17" />
      <stop
         offset=".962"
         stop-color="#e3e2df"
         id="stop19" />
      <stop
         offset="1"
         stop-color="#d5d3cf"
         id="stop21" />
    </linearGradient>
    <linearGradient
       id="linearGradient3919"
       x1="42"
       x2="54"
       y1="49"
       y2="49"
       gradientTransform="matrix(0.68426737,0,0,0.68426737,-51.579387,227.56429)"
       gradientUnits="userSpaceOnUse">
      <stop
         style="stop-color:#464646"
         offset="0"
         id="stop25" />
      <stop
         style="stop-color:#464646;stop-opacity:0"
         offset="1"
         id="stop27" />
    </linearGradient>
    <linearGradient
       id="linearGradient3831-3"
       x1="15"
       x2="15"
       y1="48"
       y2="8"
       gradientTransform="matrix(0.74912138,0,0,0.74912138,2.9232156,224.77708)"
       gradientUnits="userSpaceOnUse"
       spreadMethod="reflect"
       xlink:href="#linearGradient3825" />
    <linearGradient
       id="linearGradient3825">
      <stop
         style="stop-color:#000000"
         offset="0"
         id="stop30" />
      <stop
         style="stop-color:#000000"
         offset=".6"
         id="stop32" />
      <stop
         style="stop-color:#000000;stop-opacity:0"
         offset="1"
         id="stop34" />
    </linearGradient>
    <linearGradient
       id="linearGradient3862-3"
       x1="15"
       x2="15"
       y1="48"
       y2="8"
       gradientTransform="matrix(0,0.74912138,-0.74912138,0,72.966065,227.02444)"
       gradientUnits="userSpaceOnUse"
       spreadMethod="reflect"
       xlink:href="#linearGradient3825" />
    <linearGradient
       id="linearGradient3831-3-6"
       x1="15"
       x2="15"
       y1="48"
       y2="8"
       gradientTransform="matrix(0.7491214,0,0,0.7491214,-61.700945,221.92589)"
       gradientUnits="userSpaceOnUse"
       spreadMethod="reflect"
       xlink:href="#linearGradient3825" />
    <linearGradient
       id="linearGradient3862-3-5"
       x1="15"
       x2="15"
       y1="48"
       y2="8"
       gradientTransform="matrix(0,0.7491214,-0.7491214,0,8.3419061,224.17325)"
       gradientUnits="userSpaceOnUse"
       spreadMethod="reflect"
       xlink:href="#linearGradient3825" />
    <linearGradient
       id="linearGradient4009">
      <stop
         style="stop-color:#f57900;stop-opacity:1;"
         offset="0"
         id="stop4011" />
      <stop
         style="stop-color:#ffc286;stop-opacity:1;"
         offset="1"
         id="stop4013" />
    </linearGradient>
    <linearGradient
       id="linearGradient3928">
      <stop
         style="stop-color:#61635f;stop-opacity:1;"
         offset="0"
         id="stop3930" />
      <stop
         style="stop-color:#999b96;stop-opacity:1;"
         offset="1"
         id="stop3932" />
    </linearGradient>
    <linearGradient
       id="linearGradient3697">
      <stop
         style="stop-color:#73d216;stop-opacity:1;"
         offset="0"
         id="stop3699" />
      <stop
         style="stop-color:#adf06b;stop-opacity:1;"
         offset="1"
         id="stop3701" />
    </linearGradient>
    <linearGradient
       gradientUnits="userSpaceOnUse"
       gradientTransform="matrix(0.95118973,0,0,1.051315,-3.4679803,18.916256)"
       x1="46.898866"
       y1="5.7071384"
       x2="73.161085"
       y2="84.291761"
       id="linearGradient-1">
      <stop
         stop-color="#2EA3D5"
         offset="0%"
         id="stop6-3" />
      <stop
         stop-color="#6FAAF2"
         offset="100%"
         id="stop8" />
    </linearGradient>
    <linearGradient
       gradientUnits="userSpaceOnUse"
       gradientTransform="matrix(1.1489604,0,0,1.2334921,151.91181,-20.600985)"
       x1="49.734402"
       y1="22.197914"
       x2="49.734402"
       y2="74.004583"
       id="linearGradient-2">
      <stop
         stop-color="#3FA5DD"
         offset="0%"
         id="stop11-6" />
      <stop
         stop-color="#61A9EC"
         offset="100%"
         id="stop13-7" />
    </linearGradient>
  </defs>
  <g
     transform="translate(0 -172)"
     id="g73">
    <rect
       ry="8"
       rx="8"
       height="48"
       width="104"
       x="12"
       y="240"
       fill="url(#e)"
       id="rect33" />
    <path
       style="fill:#56a7e7;fill-opacity:1"
       d="M 20 10 C 15.568 10 12 13.568 12 18 L 12 60 L 12 102 C 12 106.432 15.568 110 20 110 L 64 110 L 108 110 C 112.432 110 116 106.432 116 102 L 116 60 L 116 18 C 116 13.568 112.432 10 108 10 L 20 10 z "
       id="path37"
       transform="translate(0,172)" />
    <g
       transform="translate(-94.502467,179.37931)"
       style="fill:none;fill-rule:evenodd;stroke:none;stroke-width:1"
       id="Page-1">
      <g
         id="deepin-editor">
        <g
           transform="matrix(0.50469907,0,0,0.50469907,96.591972,-12.660148)"
           style="isolation:isolate;stroke-width:1.98137867"
           id="g66">
          <path
             style="fill:#eab305;stroke-width:1.98137867"
             inkscape:connector-curvature="0"
             d="M 83.219,129.227 108.515,94 l 19.992,30.938 -17.855,24.865 z"
             id="path34" />
          <rect
             style="fill:#a4a4a4;stroke-width:1.98137867"
             width="39.179001"
             height="17.142"
             x="77.849998"
             y="130.24001"
             transform="matrix(0.812,0.583,-0.583,0.812,99.261,-30.773)"
             id="rect36" />
          <rect
             style="fill:#a4a4a4;stroke-width:1.98137867"
             width="53.876999"
             height="61.226002"
             x="51.950001"
             y="134.10001"
             transform="matrix(0.812,0.583,-0.583,0.812,110.883,-15.092)"
             id="rect38" />
          <path
             style="fill:#e4e4e4;fill-rule:evenodd;stroke-width:1"
             d="M 12 84.072266 L 12 102 C 12 103.108 12.223203 104.16139 12.626953 105.11914 C 13.030703 106.07689 13.614891 106.93911 14.337891 107.66211 C 15.060891 108.38511 15.923109 108.9693 16.880859 109.37305 C 17.838609 109.7768 18.892 110 20 110 L 44.675781 110 L 56.171875 93.96875 C 58.317351 90.981941 57.647646 86.855207 54.669922 84.716797 L 31.287109 67.925781 C 28.30888 65.787371 24.184034 66.470222 22.039062 69.457031 L 12 84.072266 z "
             id="path40"
             transform="matrix(1.9813787,0,0,1.9813787,-4.1401008,10.46334)" />
          <g
             style="opacity:0.1;stroke-width:1.98137867"
             id="g44">
            <path
               style="fill:#ffffff;stroke-width:1.98137867"
               inkscape:connector-curvature="0"
               d="m 108.515,94 -1.428,1.989 19.992,30.938 1.428,-1.989 z"
               id="path42" />
          </g>
          <g
             style="opacity:0.2;stroke-width:1.98137867"
             id="g48">
            <path
               style="fill:#ffffff;stroke-width:1.98137867"
               inkscape:connector-curvature="0"
               d="m 86.528,120.42 -1.428,1.989 31.826,22.855 1.429,-1.99 z"
               id="path46" />
          </g>
          <g
             style="opacity:0.2;stroke-width:1.98137867"
             id="g52">
            <path
               style="fill:#ffffff;stroke-width:1.98137867"
               inkscape:connector-curvature="0"
               d="m 74.847,124.091 -1.428,1.989 43.761,31.425 1.428,-1.989 z"
               id="path50" />
          </g>
          <g
             style="opacity:0.2;stroke-width:1.98137867"
             id="g56">
            <path
               style="fill:#ffffff;fill-rule:evenodd;stroke-width:1.98137867"
               inkscape:connector-curvature="0"
               d="m 57.849,145.048 c -5.901,-4.237 -14.071,-2.881 -18.322,3.037 l -1.428,1.989 c 4.25,-5.918 12.421,-7.274 18.321,-3.036 l 46.333,33.272 c 5.901,4.237 7.227,12.412 2.977,18.331 l 1.429,-1.99 c 4.25,-5.918 2.923,-14.094 -2.977,-18.331 z"
               id="path54" />
          </g>
          <g
             style="opacity:0.2;stroke-width:1.98137867"
             id="g60">
            <path
               inkscape:connector-curvature="0"
               d="m 87.957,118.431 -1.429,1.989 31.827,22.854 1.428,-1.989 z"
               id="path58"
               style="stroke-width:1.98137867" />
          </g>
          <g
             style="opacity:0.2;stroke-width:1.98137867"
             id="g64">
            <path
               inkscape:connector-curvature="0"
               d="m 76.275,122.102 -1.428,1.989 43.761,31.425 1.429,-1.989 z"
               id="path62"
               style="stroke-width:1.98137867" />
          </g>
        </g>
        <g
           aria-label="GNOME++"
           style="font-style:normal;font-weight:normal;font-size:40px;line-height:1.25;font-family:sans-serif;letter-spacing:0px;word-spacing:0px;fill:#030200;fill-opacity:1;stroke:none"
           id="text884">
          <path
             d="m 134.41414,27.681284 q -0.9375,0.455729 -1.94662,0.683594 -1.00911,0.227864 -2.08333,0.227864 -2.42838,0 -3.84766,-1.354166 -1.41927,-1.360677 -1.41927,-3.684896 0,-2.35026 1.44532,-3.697917 1.44531,-1.347656 3.95833,-1.347656 0.97005,0 1.85547,0.182292 0.89193,0.182291 1.67969,0.540364 v 2.011719 q -0.81381,-0.46224 -1.6211,-0.690104 -0.80078,-0.227865 -1.60807,-0.227865 -1.4974,0 -2.3112,0.839844 -0.80729,0.833333 -0.80729,2.389323 0,1.542969 0.78125,2.382812 0.78125,0.839844 2.22005,0.839844 0.39063,0 0.72266,-0.04557 0.33854,-0.05208 0.60547,-0.15625 v -1.888021 h -1.52995 v -1.679687 h 3.90625 z"
             style="font-style:normal;font-variant:normal;font-weight:bold;font-stretch:normal;font-size:13.33333302px;font-family:sans-serif;-inkscape-font-specification:'sans-serif Bold';opacity:1;fill:#030200;fill-opacity:1"
             id="path886" />
          <path
             d="m 136.61466,18.683888 h 2.79948 l 3.53515,6.666667 v -6.666667 h 2.37631 v 9.720052 h -2.79948 l -3.53516,-6.666666 v 6.666666 h -2.3763 z"
             style="font-style:normal;font-variant:normal;font-weight:bold;font-stretch:normal;font-size:13.33333302px;font-family:sans-serif;-inkscape-font-specification:'sans-serif Bold';opacity:1;fill:#030200;fill-opacity:1"
             id="path888" />
          <path
             d="m 152.22664,20.324513 q -1.14583,0 -1.77735,0.846354 -0.63151,0.846355 -0.63151,2.382813 0,1.529948 0.63151,2.376302 0.63152,0.846354 1.77735,0.846354 1.15234,0 1.78385,-0.846354 0.63151,-0.846354 0.63151,-2.376302 0,-1.536458 -0.63151,-2.382813 -0.63151,-0.846354 -1.78385,-0.846354 z m 0,-1.816406 q 2.34375,0 3.67187,1.341146 1.32813,1.341146 1.32813,3.704427 0,2.356771 -1.32813,3.697916 -1.32812,1.341146 -3.67187,1.341146 -2.33724,0 -3.67188,-1.341146 -1.32812,-1.341145 -1.32812,-3.697916 0,-2.363281 1.32812,-3.704427 1.33464,-1.341146 3.67188,-1.341146 z"
             style="font-style:normal;font-variant:normal;font-weight:bold;font-stretch:normal;font-size:13.33333302px;font-family:sans-serif;-inkscape-font-specification:'sans-serif Bold';opacity:1;fill:#030200;fill-opacity:1"
             id="path890" />
          <path
             d="m 159.11466,18.683888 h 3.1901 l 2.21355,5.201823 2.22656,-5.201823 h 3.18359 v 9.720052 h -2.36979 v -7.109375 l -2.23958,5.240886 h -1.58855 l -2.23958,-5.240886 v 7.109375 h -2.3763 z"
             style="font-style:normal;font-variant:normal;font-weight:bold;font-stretch:normal;font-size:13.33333302px;font-family:sans-serif;-inkscape-font-specification:'sans-serif Bold';opacity:1;fill:#030200;fill-opacity:1"
             id="path892" />
          <path
             d="m 172.39591,18.683888 h 6.76432 v 1.894532 h -4.25781 v 1.809895 h 4.00391 v 1.894532 h -4.00391 v 2.226562 h 4.40104 v 1.894531 h -6.90755 z"
             style="font-style:normal;font-variant:normal;font-weight:bold;font-stretch:normal;font-size:13.33333302px;font-family:sans-serif;-inkscape-font-specification:'sans-serif Bold';opacity:1;fill:#030200;fill-opacity:1"
             id="path894" />
          <path
             d="m 130.05608,37.069196 v 3.411459 h 3.39844 v 1.536458 h -3.39844 v 3.411458 h -1.54948 v -3.411458 h -3.39844 v -1.536458 h 3.39844 v -3.411459 z"
             style="font-style:normal;font-variant:normal;font-weight:bold;font-stretch:normal;font-size:13.33333302px;font-family:sans-serif;-inkscape-font-specification:'sans-serif Bold';opacity:1;fill:#030200;fill-opacity:1"
             id="path896"
             inkscape:connector-curvature="0" />
          <path
             d="m 141.22796,37.069196 v 3.411459 h 3.39844 v 1.536458 h -3.39844 v 3.411458 h -1.54948 v -3.411458 h -3.39844 v -1.536458 h 3.39844 v -3.411459 z"
             style="font-style:normal;font-variant:normal;font-weight:bold;font-stretch:normal;font-size:13.33333302px;font-family:sans-serif;-inkscape-font-specification:'sans-serif Bold';opacity:1;fill:#030200;fill-opacity:1"
             id="path898"
             inkscape:connector-curvature="0" />
        </g>
        <g
           transform="matrix(0.50469907,0,0,0.50469907,96.434336,-27.004976)"
           style="opacity:0.5;isolation:isolate;stroke-width:1.98137867;fill:#eab305;fill-opacity:1"
           id="g28">
          <path
             style="color:#000000;font-style:normal;font-variant:normal;font-weight:normal;font-stretch:normal;font-size:medium;line-height:normal;font-family:sans-serif;font-variant-ligatures:normal;font-variant-position:normal;font-variant-caps:normal;font-variant-numeric:normal;font-variant-alternates:normal;font-feature-settings:normal;text-indent:0;text-align:start;text-decoration:none;text-decoration-line:none;text-decoration-style:solid;text-decoration-color:#000000;letter-spacing:normal;word-spacing:normal;text-transform:none;writing-mode:lr-tb;direction:ltr;text-orientation:mixed;dominant-baseline:auto;baseline-shift:baseline;text-anchor:start;white-space:normal;shape-padding:0;clip-rule:nonzero;display:inline;overflow:visible;visibility:visible;opacity:1;isolation:auto;mix-blend-mode:normal;color-interpolation:sRGB;color-interpolation-filters:linearRGB;solid-color:#000000;solid-opacity:1;vector-effect:non-scaling-stroke;fill:#eab305;fill-opacity:1;fill-rule:nonzero;stroke:none;stroke-width:47.55308914;stroke-linecap:square;stroke-linejoin:miter;stroke-miterlimit:3;stroke-dasharray:none;stroke-dashoffset:0;stroke-opacity:1;color-rendering:auto;image-rendering:auto;shape-rendering:auto;text-rendering:auto;enable-background:accumulate"
             d="m 53.606479,90.759378 v 20.678972 h 18.514986 c 5.207654,0 13.06324,0.90826 23.34108,0.98778 17.431005,1.17203 29.947755,0.89691 41.815005,0.89691 18.14654,0 33.26399,-0.72533 46.46619,-0.72533 h 4.1523 18.5165 V 91.918728 h -18.5165 -4.1523 c -15.44008,0 -30.18125,0.72449 -46.46619,0.72449 -13.11037,0 -23.02603,0.2693 -38.198095,-0.78989 l -1.14378,-0.0798 h -1.15291 c -5.53477,0 -13.73866,-1.01411 -24.6613,-1.01411 z"
             id="path26"
             inkscape:connector-curvature="0" />
        </g>
        <g
           transform="matrix(0.5369949,0,0,0.64449161,97.258541,-37.658727)"
           style="opacity:0.7;isolation:isolate;stroke-width:1.69983304"
           id="g32">
          <path
             style="color:#000000;font-style:normal;font-variant:normal;font-weight:normal;font-stretch:normal;font-size:medium;line-height:normal;font-family:sans-serif;font-variant-ligatures:normal;font-variant-position:normal;font-variant-caps:normal;font-variant-numeric:normal;font-variant-alternates:normal;font-feature-settings:normal;text-indent:0;text-align:start;text-decoration:none;text-decoration-line:none;text-decoration-style:solid;text-decoration-color:#000000;letter-spacing:normal;word-spacing:normal;text-transform:none;writing-mode:lr-tb;direction:ltr;text-orientation:mixed;dominant-baseline:auto;baseline-shift:baseline;text-anchor:start;white-space:normal;shape-padding:0;clip-rule:nonzero;display:inline;overflow:visible;visibility:visible;opacity:0.77;isolation:auto;mix-blend-mode:normal;color-interpolation:sRGB;color-interpolation-filters:linearRGB;solid-color:#000000;solid-opacity:1;vector-effect:non-scaling-stroke;fill:#eab305;fill-opacity:1;fill-rule:nonzero;stroke:none;stroke-width:40.7959938;stroke-linecap:square;stroke-linejoin:miter;stroke-miterlimit:3;stroke-dasharray:none;stroke-dashoffset:0;stroke-opacity:1;color-rendering:auto;image-rendering:auto;shape-rendering:auto;text-rendering:auto;enable-background:accumulate"
             d="m 109.53152,113.42398 c -1.52971,0 -2.50614,-0.0118 -4.45919,0.0585 -1.95307,0.0703 -6.129284,0.53247 -6.504748,0.58844 -0.375463,0.056 1.575848,-0.19511 1.880578,-0.22058 0.30472,-0.0255 -0.26562,0.0233 -1.731243,0.0915 l -0.349026,0.0162 -0.34729,0.0202 c -10.609123,0.63205 -32.698004,1.25075 -39.729955,0.97849 l -21.033608,-0.8144 -4.205679,16.29273 21.035344,0.8144 c 16.677552,0.6457 36.916896,-0.28642 50.362237,-1.08744 l -0.69632,0.0363 c 2.23866,-0.10405 3.89062,-0.19844 5.6122,-0.34231 0.19948,-0.0167 0.29186,-0.0373 0.50879,-0.0585 h 20.79745 v -16.37343 z"
             id="path30"
             inkscape:connector-curvature="0" />
        </g>
      </g>
    </g>
  </g>
</svg>
