<?xml version="1.0" encoding="UTF-8" standalone="no"?>
<svg
   xmlns:dc="http://purl.org/dc/elements/1.1/"
   xmlns:cc="http://creativecommons.org/ns#"
   xmlns:rdf="http://www.w3.org/1999/02/22-rdf-syntax-ns#"
   xmlns:svg="http://www.w3.org/2000/svg"
   xmlns="http://www.w3.org/2000/svg"
   xmlns:xlink="http://www.w3.org/1999/xlink"
   xmlns:sodipodi="http://sodipodi.sourceforge.net/DTD/sodipodi-0.dtd"
   xmlns:inkscape="http://www.inkscape.org/namespaces/inkscape"
   viewBox="0 0 128 128"
   style="display:inline;enable-background:new"
   version="1.0"
   id="svg11300"
   height="128"
   width="128"
   sodipodi:docname="mono-runtime.svg"
   inkscape:version="0.92.3 (2405546, 2018-03-11)">
  <sodipodi:namedview
     pagecolor="#ffffff"
     bordercolor="#666666"
     borderopacity="1"
     objecttolerance="10"
     gridtolerance="10"
     guidetolerance="10"
     inkscape:pageopacity="0"
     inkscape:pageshadow="2"
     inkscape:window-width="1920"
     inkscape:window-height="1009"
     id="namedview24"
     showgrid="false"
     inkscape:zoom="6.5234375"
     inkscape:cx="64.294239"
     inkscape:cy="57.868263"
     inkscape:window-x="0"
     inkscape:window-y="34"
     inkscape:window-maximized="1"
     inkscape:current-layer="layer9" />
  <title
     id="title4162">Adwaita Icon Template</title>
  <defs
     id="defs3">
    <linearGradient
       gradientTransform="matrix(0.54625232,0,0,0.54625232,-6.0941965,-68.413544)"
       id="linearGradient1007"
       x1="160.30499"
       x2="161.33"
       y1="240.13901"
       y2="135.57899"
       gradientUnits="userSpaceOnUse"
       xlink:href="#linearGradient1018" />
    <linearGradient
       id="linearGradient1018">
      <stop
         style="stop-color:#37a6e6"
         offset="0"
         id="stop2" />
      <stop
         style="stop-color:#1a7fd4"
         offset="1"
         id="stop4" />
    </linearGradient>
    <filter
       id="filter925"
       x="-0.02"
       y="-0.029999999"
       width="1.046"
       height="1.05"
       style="color-interpolation-filters:sRGB">
      <feGaussianBlur
         stdDeviation="2.32"
         id="feGaussianBlur2" />
    </filter>
    <filter
       id="filter931"
       x="-0.0099999998"
       y="-0.0099999998"
       width="1.023"
       height="1.025"
       style="color-interpolation-filters:sRGB">
      <feGaussianBlur
         stdDeviation="1.16"
         id="feGaussianBlur5" />
    </filter>
    <linearGradient
       id="linearGradient1108"
       x1="296"
       x2="296"
       y1="-212"
       y2="236"
       gradientUnits="userSpaceOnUse">
      <stop
         style="stop-color:#ffffff"
         offset="0"
         id="stop8" />
      <stop
         style="stop-color:#ffffff;stop-opacity:.09803922"
         offset=".125"
         id="stop10" />
      <stop
         style="stop-color:#000000;stop-opacity:.09803922"
         offset=".925"
         id="stop12" />
      <stop
         style="stop-color:#000000;stop-opacity:.49803922"
         offset="1"
         id="stop14" />
    </linearGradient>
    <clipPath
       id="clipPath1082-3">
      <path
         inkscape:connector-curvature="0"
         d="M 361.9375,-212 C 507.2348,-212 528,-191.28677 528,-46.125 V 70.125 C 528,215.28618 507.2348,236 361.9375,236 H 214.0625 C 68.7652,236 48,215.28618 48,70.125 V -46.125 C 48,-191.28677 68.7652,-212 214.0625,-212 Z"
         style="fill:#8c59d9"
         id="path17" />
    </clipPath>
    <linearGradient
       gradientTransform="translate(0,640)"
       gradientUnits="userSpaceOnUse"
       y2="120"
       x2="416"
       y1="120"
       x1="384"
       id="linearGradient1053-2"
       xlink:href="#linearGradient1458" />
    <linearGradient
       id="linearGradient1458">
      <stop
         id="stop1452"
         offset="0"
         style="stop-color:#deddda;stop-opacity:1" />
      <stop
         style="stop-color:#ffffff;stop-opacity:1"
         offset="0.51104856"
         id="stop1454" />
      <stop
         id="stop1456"
         offset="1"
         style="stop-color:#c0bfbc;stop-opacity:1" />
    </linearGradient>
  </defs>
  <metadata
     id="metadata4">
    <rdf:RDF>
      <cc:Work
         rdf:about="">
        <dc:format>image/svg+xml</dc:format>
        <dc:type
           rdf:resource="http://purl.org/dc/dcmitype/StillImage" />
        <dc:creator>
          <cc:Agent>
            <dc:title>GNOME Design Team</dc:title>
          </cc:Agent>
        </dc:creator>
        <dc:source />
        <cc:license
           rdf:resource="http://creativecommons.org/licenses/by-sa/4.0/" />
        <dc:title>Adwaita Icon Template</dc:title>
        <dc:subject>
          <rdf:Bag />
        </dc:subject>
        <dc:date />
        <dc:rights>
          <cc:Agent>
            <dc:title />
          </cc:Agent>
        </dc:rights>
        <dc:publisher>
          <cc:Agent>
            <dc:title />
          </cc:Agent>
        </dc:publisher>
        <dc:identifier />
        <dc:relation />
        <dc:language />
        <dc:coverage />
        <dc:description />
        <dc:contributor>
          <cc:Agent>
            <dc:title />
          </cc:Agent>
        </dc:contributor>
      </cc:Work>
      <cc:License
         rdf:about="http://creativecommons.org/licenses/by-sa/4.0/">
        <cc:permits
           rdf:resource="http://creativecommons.org/ns#Reproduction" />
        <cc:permits
           rdf:resource="http://creativecommons.org/ns#Distribution" />
        <cc:requires
           rdf:resource="http://creativecommons.org/ns#Notice" />
        <cc:requires
           rdf:resource="http://creativecommons.org/ns#Attribution" />
        <cc:permits
           rdf:resource="http://creativecommons.org/ns#DerivativeWorks" />
        <cc:requires
           rdf:resource="http://creativecommons.org/ns#ShareAlike" />
      </cc:License>
    </rdf:RDF>
  </metadata>
  <g
     transform="translate(0,-172)"
     style="display:inline"
     id="layer1">
    <g
       style="display:inline"
       id="layer9">
      <g
         transform="rotate(-30,413.5026,270.49096)"
         id="g1710"
         style="display:inline;enable-background:new" />
      <text
         id="text1204"
         y="390.00003"
         x="107.99998"
         style="font-style:normal;font-variant:normal;font-weight:normal;font-stretch:normal;font-size:26.66666603px;line-height:125%;font-family:Cantarell;-inkscape-font-specification:Cantarell;letter-spacing:0px;word-spacing:0px;display:inline;fill:#000000;fill-opacity:1;stroke:none;enable-background:new"
         xml:space="preserve"><tspan
           y="397.90536"
           x="107.99998"
           id="tspan1202" /></text>
      <path
         style="opacity:1;fill:#383838;fill-opacity:1;stroke:none;stroke-width:1.41549647;stroke-linecap:butt;stroke-linejoin:miter;stroke-miterlimit:4;stroke-dasharray:none;stroke-dashoffset:0;stroke-opacity:1;marker:none;marker-start:none;marker-mid:none;marker-end:none;paint-order:normal"
         d="m 20,188 c -4.432,0 -8,3.568 -8,8 v 84 c 0,4.432 3.568001,8 8,8 H 59.957032 64 107.29492 c 6.07629,0 8.66602,-4.51575 8.66602,-10.125 V 238 H 64 v -50 z"
         id="path1518"
         inkscape:connector-curvature="0" />
      <path
         style="display:inline;opacity:1;fill:#5e5e5e;fill-opacity:1;stroke:none;stroke-width:0.25;stroke-linecap:butt;stroke-linejoin:miter;stroke-miterlimit:4;stroke-dasharray:none;stroke-dashoffset:0;stroke-opacity:1;marker:none;marker-start:none;marker-mid:none;marker-end:none;paint-order:normal;enable-background:new"
         d="m 20,184 c -4.432,0 -8,3.568 -8,8 v 84 c 0,4.432 3.568001,8 8,8 h 40 4 44.00196 c 4.432,0 8,-3.568 8,-8 v -84 c 0,-4.432 -3.568,-8 -8,-8 H 64 60 Z"
         id="path1520"
         inkscape:connector-curvature="0" />
      <path
         id="path1631"
         d="m 38.375979,201 c -5.170645,0 -9.375,4.20435 -9.375,9.375 v 51.25 c 0,5.17065 4.204355,9.375 9.375,9.375 h 51.25 c 5.170641,0 9.375002,-4.20435 9.375002,-9.375 v -51.25 c 0,-5.17065 -4.204362,-9.375 -9.375002,-9.375 z m 55.625,5 v 60 l -54.062821,-0.249 c 0,0 3.3011,-4.88145 3.3011,-4.8976 0,-0.312 10.43419,-12.8601 10.654295,-12.8125 0.12575,0.03 4.797565,2.0102 10.371095,4.4043 9.518915,4.0888 10.143005,4.32925 10.40039,3.98435 0.38925,-0.5216 1.732235,-3.33135 2.44141,-5.1074 l 0.60547,-1.5039 -1.01563,-0.55665 c -1.43644,-0.78555 -3.544,-2.5305 -4.86328,-4.0332 -1.203885,-1.3712 -3.378905,-4.68335 -3.378905,-5.14645 0,-0.153 0.68988,0.5476 1.5332,1.5527 2.368775,2.8233 7.831025,7.24005 8.17383,6.61135 0.4068,-0.7461 0.66733,-2.946 0.6543,-5.49805 -0.016,-3.1156 -0.4217,-5.5388 -1.494145,-8.8867 l -0.605465,-1.8848 -2.968755,-0.9277 c -1.63412,-0.5137 -3.2745,-1.0269 -3.642575,-1.1426 -1.28365,-0.4035 -0.47305,-0.39 1.40625,0.03 2.246985,0.50175 4.524195,0.92565 5.9375,1.1035 1.244385,0.1565 1.517325,-0.08 1.65039,-1.46485 0.1697,-1.7657 -0.969565,-6.6443 -2.11914,-9.07225 -0.4588,-0.969 -0.663455,-1.181 -1.58203,-1.60155 -3.057755,-1.3999 -12.62512,-2.7094 -16.689455,-2.28515 -1.75693,0.1835 -3.568385,0.61125 -4.13086,0.97655 -0.15855,0.103 0.97884,0.393 2.929685,0.75195 1.75135,0.322 3.02352,0.6169 2.832035,0.6543 -0.1915,0.035 -2.9412,-0.267 -6.113285,-0.67385 -5.568835,-0.71455 -5.784,-0.7221 -6.171875,-0.371 -0.8087,0.7319 -1.967485,2.72845 -2.20703,3.79885 -0.23195,1.03635 -0.21325,1.16215 0.30275,2.2168 0.879495,1.7976 2.509055,3.09825 6.23047,4.98045 1.759735,0.89005 3.15762,1.6666 3.10547,1.71875 -0.05215,0.052 -1.55654,-0.5125 -3.339845,-1.25 l -3.24219,-1.33785 -4.755855,1.3281 c -2.61682,0.7323 -9.789255,1.4251 -9.89663,1.4251 L 34.000998,206 Z"
         style="fill:#050505;fill-opacity:1;stroke-width:5;opacity:0.1"
         inkscape:connector-curvature="0" />
      <path
         inkscape:connector-curvature="0"
         style="fill:#ffffff;fill-opacity:1;stroke-width:5"
         d="m 38.375979,199 c -5.170645,0 -9.375,4.20435 -9.375,9.375 v 51.25 c 0,5.17065 4.204355,9.375 9.375,9.375 h 51.25 c 5.170641,0 9.375002,-4.20435 9.375002,-9.375 v -51.25 c 0,-5.17065 -4.204362,-9.375 -9.375002,-9.375 z m 55.625,5 v 60 l -54.062821,-0.249 c 0,0 3.3011,-4.88145 3.3011,-4.8976 0,-0.312 10.43419,-12.8601 10.654295,-12.8125 0.12575,0.03 4.797565,2.0102 10.371095,4.4043 9.518915,4.0888 10.143005,4.32925 10.40039,3.98435 0.38925,-0.5216 1.732235,-3.33135 2.44141,-5.1074 l 0.60547,-1.5039 -1.01563,-0.55665 c -1.43644,-0.78555 -3.544,-2.5305 -4.86328,-4.0332 -1.203885,-1.3712 -3.378905,-4.68335 -3.378905,-5.14645 0,-0.153 0.68988,0.5476 1.5332,1.5527 2.368775,2.8233 7.831025,7.24005 8.17383,6.61135 0.4068,-0.7461 0.66733,-2.946 0.6543,-5.49805 -0.016,-3.1156 -0.4217,-5.5388 -1.494145,-8.8867 l -0.605465,-1.8848 -2.968755,-0.9277 c -1.63412,-0.5137 -3.2745,-1.0269 -3.642575,-1.1426 -1.28365,-0.4035 -0.47305,-0.39 1.40625,0.03 2.246985,0.50175 4.524195,0.92565 5.9375,1.1035 1.244385,0.1565 1.517325,-0.08 1.65039,-1.46485 0.1697,-1.7657 -0.969565,-6.6443 -2.11914,-9.07225 -0.4588,-0.969 -0.663455,-1.181 -1.58203,-1.60155 -3.057755,-1.3999 -12.62512,-2.7094 -16.689455,-2.28515 -1.75693,0.1835 -3.568385,0.61125 -4.13086,0.97655 -0.15855,0.103 0.97884,0.393 2.929685,0.75195 1.75135,0.322 3.02352,0.6169 2.832035,0.6543 -0.1915,0.035 -2.9412,-0.267 -6.113285,-0.67385 -5.568835,-0.71455 -5.784,-0.7221 -6.171875,-0.371 -0.8087,0.7319 -1.967485,2.72845 -2.20703,3.79885 -0.23195,1.03635 -0.21325,1.16215 0.30275,2.2168 0.879495,1.7976 2.509055,3.09825 6.23047,4.98045 1.759735,0.89005 3.15762,1.6666 3.10547,1.71875 -0.05215,0.052 -1.55654,-0.5125 -3.339845,-1.25 l -3.24219,-1.33785 -4.755855,1.3281 c -2.61682,0.7323 -9.789255,1.4251 -9.89663,1.4251 L 34.000998,204 Z"
         id="path1063" />
    </g>
  </g>
  <g
     transform="matrix(0.51321901,0,0,0.55838602,-73.854417,42.038141)"
     id="g861"
     style="stroke:#ffffff;stroke-width:1.84039485;stroke-linecap:butt;stroke-linejoin:round;stroke-miterlimit:4;stroke-dasharray:none;stroke-opacity:1">
    <g
       id="g859"
       transform="matrix(2,0,0,2,24.834232,-1978.9059)"
       style="stroke:#ffffff;stroke-width:0.92019743;stroke-linecap:butt;stroke-linejoin:round;stroke-miterlimit:4;stroke-dasharray:none;stroke-opacity:1" />
  </g>
  <g
     style="enable-background:new"
     transform="matrix(0.47801147,0,0,0.47801147,-85.967113,-15.396015)"
     id="g30" />
</svg>
