<svg xmlns="http://www.w3.org/2000/svg" xmlns:xlink="http://www.w3.org/1999/xlink" width="128" height="128" version="1.1" viewBox="0 0 33.87 33.87">
 <defs>
  <linearGradient id="j" x1="48" x2="464" y1="44" y2="44" gradientTransform="matrix(0.24999999,0,0,0.24999999,-0.22994079,52.156913)" gradientUnits="userSpaceOnUse" xlink:href="#g"/>
  <linearGradient id="g">
   <stop id="stop2" offset="0" stop-color="#babdb6"/>
   <stop id="stop4" offset=".042" stop-color="#f6f5f4"/>
   <stop id="stop6" offset=".083" stop-color="#d5d3cf"/>
   <stop id="stop8" offset=".915" stop-color="#deddda"/>
   <stop id="stop10" offset=".944" stop-color="#ebeae8"/>
   <stop id="stop12" offset=".985" stop-color="#f6f5f4"/>
   <stop id="stop14" offset="1" stop-color="#babdb6"/>
  </linearGradient>
  <linearGradient id="h" x1="48" x2="464" y1="44" y2="44" gradientTransform="matrix(0.06614583,0,0,0.06614583,-0.0608385,276.93317)" gradientUnits="userSpaceOnUse" xlink:href="#b"/>
  <linearGradient id="b">
   <stop id="stop17" offset="0" stop-color="#babdb6"/>
   <stop id="stop19" offset=".042" stop-color="#f6f5f4"/>
   <stop id="stop21" offset=".083" stop-color="#9a9996"/>
   <stop id="stop23" offset=".917" stop-color="#9a9996"/>
   <stop id="stop25" offset=".958" stop-color="#f6f5f4"/>
   <stop id="stop27" offset="1" stop-color="#babdb6"/>
  </linearGradient>
  <linearGradient id="linearGradient2265" x1="48" x2="464" y1="44" y2="44" gradientTransform="matrix(0.24999999,0,0,0.24999999,-0.22994079,52.156912)" gradientUnits="userSpaceOnUse" xlink:href="#g"/>
 </defs>
 <g id="layer1" transform="translate(0,-263.13332)">
  <rect style="fill:url(#h)" width="27.517" height="22.225" x="3.11" y="271.38" rx="2.117" ry="2.117"/>
  <path style="fill:#c0bfbc" d="m 5.2308282,266.08525 h 7.1437498 l 0.264583,0.26458 0.264583,-0.26458 h 8.462434 l 0.264583,0.26458 0.264583,-0.26458 h 6.618817 c 1.172633,0 2.116667,0.94403 2.116667,2.11667 v 22.225 c 0,1.17263 -0.944034,2.11666 -2.116667,2.11666 H 5.2308282 c -1.1726334,0 -2.1166667,-0.94403 -2.1166667,-2.11666 v -22.225 c 0,-1.17264 0.9440333,-2.11667 2.1166667,-2.11667 z"/>
  <path style="fill:#deddda" d="m 12.639161,284.07692 h 8.995833 v 8.46666 h -8.995833 z"/>
  <path style="fill:#f6f5f4" d="m 12.639161,283.01858 h 8.995833 v 8.73125 l -0.289454,-0.26458 h -8.706379 z m 0,-8.46666 h 8.995833 v 8.46666 h -8.995833 z m 0,-8.20209 0.264583,-0.26458 h 8.466667 l 0.264583,0.26458 v 8.20209 h -8.995833 z"/>
  <path style="fill:url(#linearGradient2265)" d="M 81.769531 79.15625 L 81.769531 111.15625 L 82.738281 111.15625 L 107.76953 111.15625 C 108.77403 111.15625 109.7765 110.90625 110.71484 110.46875 C 111.65319 110.03125 112.52847 109.40625 113.27734 108.65625 C 114.02622 107.90625 114.64984 107.03125 115.08594 106.09375 C 115.52203 105.15625 115.76953 104.15626 115.76953 103.15625 L 115.76953 79.15625 L 81.769531 79.15625 z" transform="matrix(0.26458333,0,0,0.26458333,0,263.13332)"/>
  <path style="fill:#f6f5f4" d="M 115.76953 99.15625 L 115.76953 75.15625 L 115.76953 43.15625 L 115.76953 19.15625 C 115.76953 18.048244 115.54633 16.994862 115.14258 16.037109 C 114.73883 15.079357 114.15464 14.217141 113.43164 13.494141 C 112.70864 12.771141 111.84838 12.186952 110.89062 11.783203 C 109.93287 11.379454 108.87753 11.15625 107.76953 11.15625 L 82.761719 11.15625 L 81.769531 12.15625 L 81.769531 43.15625 L 81.769531 75.15625 L 81.769531 108.15625 L 82.738281 107.15625 L 107.76953 107.15625 C 111.78753 107.15625 115.76953 103.15628 115.76953 99.15625 z" transform="matrix(0.26458333,0,0,0.26458333,0,263.13332)"/>
  <path style="fill:#9a9996" d="m 3.1141615,275.61025 h 9.5249995 v 8.46667 H 3.1141615 Z"/>
  <path style="fill:#f6f5f4" d="M 19.769531 11.15625 C 18.661531 11.15625 17.608141 11.379454 16.650391 11.783203 C 15.692641 12.186952 14.830422 12.771141 14.107422 13.494141 C 13.384422 14.217141 12.800234 15.079357 12.396484 16.037109 C 11.992734 16.994862 11.769531 18.048244 11.769531 19.15625 L 11.769531 43.15625 L 11.769531 75.15625 L 47.769531 75.15625 L 47.769531 43.15625 L 47.769531 12.15625 L 46.769531 11.15625 L 19.769531 11.15625 z" transform="matrix(0.26458333,0,0,0.26458333,0,263.13332)"/>
  <path style="fill-opacity:0.081" d="m 30.630828,274.28733 v 0.26459 H 3.1141615 v -0.26459 z"/>
  <path style="fill:#ffffff;fill-opacity:0.55500034" d="m 12.639161,266.34983 0.264583,-0.26458 v 25.4 h -0.264583 z"/>
  <path style="fill-opacity:0.081" d="m 12.374578,266.08525 0.264583,0.26458 v 16.66875 h -0.264583 z"/>
  <path style="fill:#ffffff;fill-opacity:0.55500034" d="m 21.634994,266.34983 0.264584,-0.26458 v 25.4 l -0.264584,0.26458 z"/>
  <path style="fill-opacity:0.081" d="m 21.370411,266.08525 0.264583,0.26458 v 25.4 l -0.264583,-0.26458 z"/>
  <path style="fill:#ffffff;fill-opacity:0.55500034" d="m 30.630828,274.55192 v 0.26458 H 3.1141615 v -0.26458 z m 0,8.46666 v 0.26459 H 12.639161 v -0.26459 z"/>
  <path style="fill-opacity:0.081" d="m 30.630828,282.754 v 0.26458 H 3.1141615 V 282.754 Z"/>
  <path d="m 30.630829,269.23699 a 10.111846,10.111846 0 0 0 -4.84557,5.28346 h 1.72534 a 8.4746042,8.4746042 0 0 1 3.12023,-3.47265 z" style="fill:#1a5fb4"/>
  <path d="m 12.639167,277.46394 v 1.75287 a 8.4732812,8.4732812 0 0 1 3.649399,3.77851 h 1.725343 a 10.110523,10.110523 0 0 0 -5.374742,-5.53138 z m 13.775002,0.23151 c -1.71741,0 -3.3401,0.38577 -4.77917,1.06654 v 1.81081 c 1.38377,-0.81651 3.02101,-1.28985 4.77917,-1.28985 1.52532,0 2.95963,0.35666 4.21666,0.98399 v -1.75286 a 11.189758,11.189758 0 0 0 -4.21692,-0.81863 z m -13.775002,-7.63984 v 1.81081 c 1.439334,0.68077 3.061759,1.06653 4.779173,1.06653 a 11.189758,11.189758 0 0 0 4.216659,-0.81862 v -1.75286 c -1.25703,0.62706 -2.69134,0.98398 -4.21693,0.98398 -1.757889,0 -3.39513,-0.47334 -4.778902,-1.28984 z m 13.373892,12.93574 a 10.117402,10.117402 0 0 0 4.61777,4.75404 v -1.81055 a 8.4767208,8.4767208 0 0 1 -2.83765,-2.94349 z" style="fill:#1a5fb4"/>
  <path d="m 7.9819714,274.52866 a 9.0162062,9.0162062 0 0 1 0.904875,3.95102 9.0037708,9.0037708 0 0 1 -1.206235,4.51564 h 1.898914 a 10.655829,10.655829 0 0 0 1.0011836,-4.51564 10.660856,10.660856 0 0 0 -0.7582956,-3.95102 z m 10.0319376,8.46666 a 10.660856,10.660856 0 0 0 -0.757759,3.95103 10.655829,10.655829 0 0 0 1.000919,4.51564 h 1.89891 a 9.0035062,9.0035062 0 0 1 -1.2065,-4.51564 c 0,-1.41817 0.32544,-2.75829 0.90488,-3.95103 z" style="fill:#1a5fb4"/>
 </g>
</svg>
