<svg xmlns="http://www.w3.org/2000/svg" xmlns:xlink="http://www.w3.org/1999/xlink" width="128" height="128" version="1.0">
 <defs>
  <linearGradient id="a">
   <stop id="stop2" offset="0" stop-color="#d5d3cf"/>
   <stop id="stop4" offset="1" stop-color="#f6f5f4"/>
  </linearGradient>
  <linearGradient id="b">
   <stop id="stop7" offset="0" stop-color="#d5d3cf"/>
   <stop id="stop9" offset="1" stop-color="#949390"/>
  </linearGradient>
  <linearGradient id="c">
   <stop id="stop12" offset="0" stop-color="#9a9996"/>
   <stop id="stop14" offset="1" stop-color="#77767b"/>
  </linearGradient>
  <linearGradient id="e" x1="28" x2="116" y1="-274" y2="-274" gradientTransform="translate(-136)" gradientUnits="userSpaceOnUse" xlink:href="#d"/>
  <linearGradient id="d">
   <stop id="stop18" offset="0" stop-color="#c0bfbc"/>
   <stop id="stop20" offset=".045" stop-color="#f6f5f4"/>
   <stop id="stop22" offset=".091" stop-color="#deddda"/>
   <stop id="stop24" offset=".909" stop-color="#deddda"/>
   <stop id="stop26" offset=".955" stop-color="#f6f5f4"/>
   <stop id="stop28" offset="1" stop-color="#c0bfbc"/>
  </linearGradient>
 </defs>
 <g transform="translate(0 -172)">
  <rect fill="#deddda" width="88" height="59" x="20" y="233" rx="8"/>
  <rect fill="url(#e)" width="88" height="40" x="-108" y="-292" rx="8" ry="8" transform="scale(-1)"/>
  <rect fill="#f6f5f4" width="88" height="104" x="20" y="180" rx="8" ry="8"/>
  <path fill="#deddda" d="M28 248v10h64v-4h8v-6z" color="#000" overflow="visible"/>
  <rect fill="#f66151" width="32" height="32" x="68" y="210" rx="0" ry="0"/>
  <path fill="#fff" d="M69.71 235.207a41.947 41.947 0 0 0 14.33-7.194c1.441-1.114 2.838-2.357 3.717-3.952.44-.798.741-1.678.824-2.585.082-.907-.062-1.841-.468-2.656a4.788 4.788 0 0 0-1.525-1.755 5.755 5.755 0 0 0-2.144-.918c-1.533-.32-3.144-.064-4.609.49-1.762.669-3.374 1.785-4.507 3.291-1.134 1.507-1.766 3.412-1.62 5.292.096 1.218.513 2.405 1.156 3.444.643 1.04 1.509 1.935 2.496 2.656 1.975 1.442 4.395 2.171 6.82 2.482 5.52.706 11.285-.715 15.845-3.905l-.024-5.188c-3.574 3.943-8.657 6.483-13.956 6.975-2.287.212-4.67.039-6.736-.966-1.033-.502-1.973-1.21-2.692-2.106-.72-.895-1.214-1.98-1.355-3.12-.206-1.663.358-3.38 1.398-4.694s2.527-2.239 4.127-2.74c.883-.275 1.818-.429 2.736-.311.917.118 1.817.527 2.415 1.233.484.572.75 1.313.796 2.061.047.748-.117 1.501-.415 2.189-.595 1.375-1.693 2.464-2.812 3.46a46.823 46.823 0 0 1-13.796 8.517z" color="#000" overflow="visible"/>
  <path fill="#77767b" fill-rule="evenodd" d="M28 192v4h40v-4z" color="#000" font-family="sans-serif" font-weight="400" overflow="visible"/>
  <path fill="#deddda" d="M28 222h36v18H48v4H28zM64 206v12H28v-18h72v6z" color="#000" overflow="visible"/>
 </g>
 <path style="opacity:0.2" d="m 52.226249,88.6476 a 19.999999,19.999999 0 0 1 -19.9475,18.94 19.999999,19.999999 0 0 1 -19.947499,-18.56 19.999999,19.999999 0 0 0 -0.0525,1.06 19.999999,19.999999 0 0 0 19.999999,20 19.999999,19.999999 0 0 0 20,-20 19.999999,19.999999 0 0 0 -0.0537,-1.440425 z"/>
 <circle style="fill:#96be4e" cx="32.279" cy="88.838" r="20"/>
 <path style="fill:#ffffff" d="m 26.12375,78.8376 c -2.1225,0 -3.845,1.7225 -3.845,3.845 0,2.124175 1.721975,3.84625 3.84625,3.84625 0.686275,0 1.3172,-0.213875 1.875,-0.52885 l 3.029999,2.8375 -3.028749,2.8365 c -0.5578,-0.314975 -1.188725,-0.52885 -1.875,-0.52885 -2.1225,0 -3.845,1.7225 -3.845,3.8475 0,2.1225 1.7225,3.845 3.845,3.845 2.124175,0 3.84625,-1.721975 3.84625,-3.84625 0,-0.35255 -0.05537,-0.68525 -0.14415,-1.009625 l 3.269249,-3.173 6.875,6.4905 h 2.3077 v -1.53845 L 29.8283,83.693575 c 0.08892,-0.324375 0.14415,-0.65705 0.14415,-1.009625 0,-2.125 -1.7225,-3.8475 -3.8475,-3.8475 z m 0,2.3077 c 0.84965,0 1.53845,0.6888 1.53845,1.53845 0,0.84965 -0.6888,1.53845 -1.53845,1.53845 -0.84965,0 -1.53845,-0.6888 -1.53845,-1.53845 0,-0.84965 0.6888,-1.53845 1.53845,-1.53845 z m 13.846249,-0.769225 -6.05775,5.72125 2.019225,1.97115 6.34625,-6.15375 v -1.53845 z m -13.846249,13.077 c 0.84965,0 1.53845,0.6888 1.53845,1.53845 0,0.84965 -0.6888,1.53845 -1.53845,1.53845 -0.84965,0 -1.53845,-0.6888 -1.53845,-1.53845 0,-0.84965 0.6888,-1.53845 1.53845,-1.53845 z"/>
</svg>
