<svg xmlns="http://www.w3.org/2000/svg" width="128" height="128" style="enable-background:new" version="1.0" viewBox="0 0 128 128">
 <title>
  Adwaita Icon Template
 </title>
 <defs>
  <linearGradient id="linearGradient965" x1="48" x2="464" y1="44" y2="44" gradientTransform="matrix(.25 0 0 .25 0 53)" gradientUnits="userSpaceOnUse">
   <stop style="stop-color:#77767b" offset="0"/>
   <stop style="stop-color:#c0bfbc" offset=".05"/>
   <stop style="stop-color:#9a9996" offset=".1"/>
   <stop style="stop-color:#9a9996" offset=".9"/>
   <stop style="stop-color:#c0bfbc" offset=".95"/>
   <stop style="stop-color:#77767b" offset="1"/>
  </linearGradient>
 </defs>
 <rect width="104" height="94" x="12" y="22" rx="8" ry="8" style="fill:url(#linearGradient965)"/>
 <rect width="104" height="96" x="12" y="12" rx="8" ry="8" style="fill:#deddda"/>
 <rect width="96" height="88" x="16" y="-104" rx="4" ry="4" transform="scale(1,-1)" style="fill:#3d3846"/>
 <g transform="matrix(.20251174 0 0 .20251174 19.268172 6.941145)" style="enable-background:new">
  <path d="m32.425781 20.177734v14.271484h14.271484v-14.271484zm57.091797 14.273438v14.271484h14.273437v-14.271484z" transform="matrix(4.9379854 0 0 4.9379854 -95.145952 -34.275273)" style="fill:#1c71d8"/>
  <path d="m75.244141 20.177734v14.271484h14.273438v-14.271484zm0 65.65625v14.273438h14.273438v-14.273438z" transform="matrix(4.9379854 0 0 4.9379854 -95.145952 -34.275273)" style="fill:#f6d32d"/>
  <path d="m75.244141 34.451172v14.271484h14.273438v-14.271484zm-34.253906 42.818359v14.273438h14.271484v-14.273438z" transform="matrix(4.9379854 0 0 4.9379854 -95.145952 -34.275273)" style="fill:#2ec27e"/>
  <rect width="70.479" height="70.479" x="346.89" y="319.09" style="fill:#b5835a"/>
  <rect width="70.479" height="70.479" x="36.78" y="276.8" style="fill:#ed333b"/>
  <path d="m143.60151 96.827624c31.66806-5.892663 71.53152-3.868837 104.80713 6.374846 21.52239 5.47843 36.41578 16.8474 49.85482 32.15444 21.62925 26.71593 34.65976 61.15341 34.10216 92.30929 2.78264 41.32748-8.10439 84.21128-30.38311 110.09143-10.13551 11.50715-32.01422 29.37719-51.78906 47.65816 0 0-5.24407 6.28157-4.96268 10.02067 0.42119 5.59807 3.68432 9.13021 6.97251 12.76328 1.86557 2.06126 4.83438 3.93167 7.59303 5.72463 7.58706 4.05097 6.93864 13.78994 4.29459 18.23752-5.9415 6.1208-12.75972 9.43124-20.26823 12.13498-8.94352 3.29503-12.46575 1.67846-17.86489-4.96174-5.19426-5.97897-8.94279-12.14638-12.00257-18.65498-6.60658-12.07194-7.74839-23.16388-6.13949-35.76107 1.74896-5.68955 5.17919-10.60619 10.45181-17.78664 8.05099-10.09871 15.97364-18.24274 23.51635-30.96113 5.18884-8.21157-0.41472-10.03166-3.96647-13.25857-17.79058-15.98149-36.62127-25.1904-48.07347-43.34982 14.1389-15.59447 16.10166-34.3268 20.21148-52.50585-17.15087 34.14688-27.68583 57.30105-61.56207 46.82854-14.53198-5.9358-26.67743-16.41609-34.91934-26.29236-22.470248-30.69519-20.389052-59.39596-20.161955-71.24079 0.299294-15.20822 3.65273-36.12999 13.163905-51.5246 8.83694-16.23057 21.70598-22.90271 37.12555-28.000236z" style="fill:#99c1f1"/>
  <circle cx="276.409" cy="220.416" r="14.096" style="fill:#241f31"/>
  <path d="m270.86855 280.87957 44.44542 36.77479c-6.0731-0.17038-14.03504 2.04439-22.86455 1.26737-19.19056-1.68887-42.11638-7.04913-43.98102-13.98296-1.0524-9.62115 0.98362-17.1375 10.39077-24.7595 5.79562-4.99443 6.408-4.19391 12.00938 0.70044z" style="fill:#f6f5f4"/>
 </g>
</svg>
