<?xml version="1.0" encoding="UTF-8" standalone="no"?>
<svg
   xmlns:dc="http://purl.org/dc/elements/1.1/"
   xmlns:cc="http://creativecommons.org/ns#"
   xmlns:rdf="http://www.w3.org/1999/02/22-rdf-syntax-ns#"
   xmlns:svg="http://www.w3.org/2000/svg"
   xmlns="http://www.w3.org/2000/svg"
   xmlns:xlink="http://www.w3.org/1999/xlink"
   xmlns:sodipodi="http://sodipodi.sourceforge.net/DTD/sodipodi-0.dtd"
   xmlns:inkscape="http://www.inkscape.org/namespaces/inkscape"
   width="128"
   height="128"
   version="1.0"
   id="svg75"
   sodipodi:docname="photocollage.svg"
   inkscape:version="0.92.3 (2405546, 2018-03-11)">
  <metadata
     id="metadata79">
    <rdf:RDF>
      <cc:Work
         rdf:about="">
        <dc:format>image/svg+xml</dc:format>
        <dc:type
           rdf:resource="http://purl.org/dc/dcmitype/StillImage" />
        <dc:title></dc:title>
      </cc:Work>
    </rdf:RDF>
  </metadata>
  <sodipodi:namedview
     pagecolor="#ffffff"
     bordercolor="#666666"
     borderopacity="1"
     objecttolerance="10"
     gridtolerance="10"
     guidetolerance="10"
     inkscape:pageopacity="0"
     inkscape:pageshadow="2"
     inkscape:window-width="1800"
     inkscape:window-height="986"
     id="namedview77"
     showgrid="false"
     inkscape:zoom="5.3896132"
     inkscape:cx="63.348808"
     inkscape:cy="62.399016"
     inkscape:window-x="0"
     inkscape:window-y="34"
     inkscape:window-maximized="0"
     inkscape:current-layer="g37" />
  <defs
     id="defs24">
    <linearGradient
       id="a">
      <stop
         offset="0"
         stop-color="#68676b"
         id="stop2" />
      <stop
         offset=".8"
         stop-color="#424048"
         id="stop4" />
      <stop
         offset="1"
         stop-color="#241f31"
         id="stop6" />
    </linearGradient>
    <radialGradient
       xlink:href="#a"
       id="d"
       gradientUnits="userSpaceOnUse"
       gradientTransform="matrix(1.34416 .0006 -.00062 1.38763 -121.22 -718.103)"
       cx="279.422"
       cy="446.483"
       fx="279.422"
       fy="446.483"
       r="224" />
    <linearGradient
       xlink:href="#b"
       id="e"
       gradientUnits="userSpaceOnUse"
       gradientTransform="matrix(1.0015 0 0 .99993 72.09 56.015)"
       x1="43.844"
       y1="234"
       x2="-60"
       y2="234" />
    <linearGradient
       id="b">
      <stop
         offset="0"
         stop-color="#d5d3cf"
         id="stop11" />
      <stop
         offset=".038"
         stop-color="#e3e2df"
         id="stop13" />
      <stop
         offset=".077"
         stop-color="#c0bfbc"
         id="stop15" />
      <stop
         offset=".923"
         stop-color="#c0bfbc"
         id="stop17" />
      <stop
         offset=".962"
         stop-color="#e3e2df"
         id="stop19" />
      <stop
         offset="1"
         stop-color="#d5d3cf"
         id="stop21" />
    </linearGradient>
    <filter
       id="filter1015"
       x="-0.02"
       y="-0.029999999"
       width="1.046"
       height="1.05"
       style="color-interpolation-filters:sRGB">
      <feGaussianBlur
         stdDeviation="2.32"
         id="feGaussianBlur14" />
    </filter>
    <linearGradient
       id="linearGradient1108"
       x1="296"
       x2="296"
       y1="-212"
       y2="236"
       gradientUnits="userSpaceOnUse">
      <stop
         style="stop-color:#ffffff"
         offset="0"
         id="stop2-3" />
      <stop
         style="stop-color:#ffffff;stop-opacity:.09803922"
         offset=".125"
         id="stop4-6" />
      <stop
         style="stop-color:#000000;stop-opacity:.09803922"
         offset=".925"
         id="stop6-7" />
      <stop
         style="stop-color:#000000;stop-opacity:.49803922"
         offset="1"
         id="stop8" />
    </linearGradient>
    <clipPath
       id="clipPath1082">
      <path
         inkscape:connector-curvature="0"
         d="M 361.9375,-212 C 507.2348,-212 528,-191.28677 528,-46.125 V 70.125 C 528,215.28618 507.2348,236 361.9375,236 H 214.0625 C 68.7652,236 48,215.28618 48,70.125 V -46.125 C 48,-191.28677 68.7652,-212 214.0625,-212 Z"
         style="fill:#8c59d9"
         id="path11" />
    </clipPath>
    <filter
       id="filter1015-5"
       x="-0.02"
       y="-0.029999999"
       width="1.046"
       height="1.05"
       style="color-interpolation-filters:sRGB">
      <feGaussianBlur
         stdDeviation="2.32"
         id="feGaussianBlur14-3" />
    </filter>
    <linearGradient
       id="linearGradient1108-5"
       x1="296"
       x2="296"
       y1="-212"
       y2="236"
       gradientUnits="userSpaceOnUse">
      <stop
         style="stop-color:#ffffff"
         offset="0"
         id="stop2-6" />
      <stop
         style="stop-color:#ffffff;stop-opacity:.09803922"
         offset=".125"
         id="stop4-2" />
      <stop
         style="stop-color:#000000;stop-opacity:.09803922"
         offset=".925"
         id="stop6-9" />
      <stop
         style="stop-color:#000000;stop-opacity:.49803922"
         offset="1"
         id="stop8-1" />
    </linearGradient>
    <clipPath
       id="clipPath1082-2">
      <path
         inkscape:connector-curvature="0"
         d="M 361.9375,-212 C 507.2348,-212 528,-191.28677 528,-46.125 V 70.125 C 528,215.28618 507.2348,236 361.9375,236 H 214.0625 C 68.7652,236 48,215.28618 48,70.125 V -46.125 C 48,-191.28677 68.7652,-212 214.0625,-212 Z"
         style="fill:#8c59d9"
         id="path11-7" />
    </clipPath>
  </defs>
  <g
     transform="translate(0 -172)"
     id="g73">
    <rect
       ry="8"
       rx="8"
       height="48"
       width="104"
       x="12"
       y="240"
       fill="url(#e)"
       id="rect33" />
    <path
       style="fill:#666666;fill-opacity:1"
       d="M 20 10 C 15.568 10 12 13.568 12 18 L 12 60 L 12 102 C 12 106.432 15.568 110 20 110 L 64 110 L 108 110 C 112.432 110 116 106.432 116 102 L 116 60 L 116 18 C 116 13.568 112.432 10 108 10 L 20 10 z "
       transform="translate(0,172)"
       id="path37" />
    <g
       transform="matrix(1.772331,0,0,1.7716068,-112.58386,-227.99809)"
       id="g37">
      <path
         style="fill:#c00ac2;stroke-width:0.47247657"
         d="M 62.552734 10 L 20 10 C 18.892 10 17.838609 10.223203 16.880859 10.626953 C 15.923109 11.030703 15.060891 11.614891 14.337891 12.337891 C 13.614891 13.060891 13.030703 13.923109 12.626953 14.880859 C 12.223203 15.838609 12 16.892 12 18 L 12 39.855469 L 62.552734 39.855469 L 62.552734 10 z "
         id="path947"
         transform="matrix(0.56422869,0,0,0.56445934,63.523044,225.78266)" />
      <path
         style="fill:#e1bd30;stroke-width:0.47247657"
         d="M 65.367188 110 L 108 110 C 109.108 110 110.16139 109.7768 111.11914 109.37305 C 112.07689 108.9693 112.93911 108.38511 113.66211 107.66211 C 114.38511 106.93911 114.9693 106.07689 115.37305 105.11914 C 115.7768 104.16139 116 103.108 116 102 L 116 81.105469 L 65.367188 81.105469 L 65.367188 110 z "
         id="path29"
         transform="matrix(0.56422869,0,0,0.56445934,63.523044,225.78266)" />
      <path
         style="fill:#ff498a;stroke-width:0.47247657"
         d="M 12 42.712891 L 12 60 L 12 102 C 12 103.108 12.223203 104.16139 12.626953 105.11914 C 13.030703 106.07689 13.614891 106.93911 14.337891 107.66211 C 15.060891 108.38511 15.923109 108.9693 16.880859 109.37305 C 17.838609 109.7768 18.892 110 20 110 L 62.552734 110 L 62.552734 42.712891 L 12 42.712891 z "
         id="path31"
         transform="matrix(0.56422869,0,0,0.56445934,63.523044,225.78266)" />
      <path
         style="fill:#21af2b;stroke-width:0.47247657"
         d="M 116 78.248047 L 116 60 L 116 18 C 116 16.892 115.7768 15.838609 115.37305 14.880859 C 114.9693 13.923109 114.38511 13.060891 113.66211 12.337891 C 112.93911 11.614891 112.07689 11.030703 111.11914 10.626953 C 110.16139 10.223203 109.108 10 108 10 L 65.367188 10 L 65.367188 78.248047 L 116 78.248047 z "
         id="path950"
         transform="matrix(0.56422869,0,0,0.56445934,63.523044,225.78266)" />
    </g>
  </g>
</svg>
