<?xml version="1.0" encoding="UTF-8" standalone="no"?>
<svg
   xmlns:dc="http://purl.org/dc/elements/1.1/"
   xmlns:cc="http://creativecommons.org/ns#"
   xmlns:rdf="http://www.w3.org/1999/02/22-rdf-syntax-ns#"
   xmlns:svg="http://www.w3.org/2000/svg"
   xmlns="http://www.w3.org/2000/svg"
   xmlns:xlink="http://www.w3.org/1999/xlink"
   xmlns:sodipodi="http://sodipodi.sourceforge.net/DTD/sodipodi-0.dtd"
   xmlns:inkscape="http://www.inkscape.org/namespaces/inkscape"
   viewBox="0 0 128 128"
   style="display:inline;enable-background:new"
   version="1.0"
   id="svg11300"
   height="128"
   width="128"
   sodipodi:docname="plugin.svg"
   inkscape:version="0.92.3 (2405546, 2018-03-11)">
  <sodipodi:namedview
     pagecolor="#ffffff"
     bordercolor="#666666"
     borderopacity="1"
     objecttolerance="10"
     gridtolerance="10"
     guidetolerance="10"
     inkscape:pageopacity="0"
     inkscape:pageshadow="2"
     inkscape:window-width="1920"
     inkscape:window-height="1009"
     id="namedview24"
     showgrid="false"
     inkscape:zoom="6.5234375"
     inkscape:cx="34.172083"
     inkscape:cy="57.868263"
     inkscape:window-x="0"
     inkscape:window-y="34"
     inkscape:window-maximized="1"
     inkscape:current-layer="layer9" />
  <title
     id="title4162">Adwaita Icon Template</title>
  <defs
     id="defs3">
    <linearGradient
       gradientTransform="matrix(0.54625232,0,0,0.54625232,-6.0941965,-68.413544)"
       id="linearGradient1007"
       x1="160.30499"
       x2="161.33"
       y1="240.13901"
       y2="135.57899"
       gradientUnits="userSpaceOnUse"
       xlink:href="#linearGradient1018" />
    <linearGradient
       id="linearGradient1018">
      <stop
         style="stop-color:#37a6e6"
         offset="0"
         id="stop2" />
      <stop
         style="stop-color:#1a7fd4"
         offset="1"
         id="stop4" />
    </linearGradient>
    <filter
       id="filter925"
       x="-0.02"
       y="-0.029999999"
       width="1.046"
       height="1.05"
       style="color-interpolation-filters:sRGB">
      <feGaussianBlur
         stdDeviation="2.32"
         id="feGaussianBlur2" />
    </filter>
    <filter
       id="filter931"
       x="-0.0099999998"
       y="-0.0099999998"
       width="1.023"
       height="1.025"
       style="color-interpolation-filters:sRGB">
      <feGaussianBlur
         stdDeviation="1.16"
         id="feGaussianBlur5" />
    </filter>
    <linearGradient
       id="linearGradient1108"
       x1="296"
       x2="296"
       y1="-212"
       y2="236"
       gradientUnits="userSpaceOnUse">
      <stop
         style="stop-color:#ffffff"
         offset="0"
         id="stop8" />
      <stop
         style="stop-color:#ffffff;stop-opacity:.09803922"
         offset=".125"
         id="stop10" />
      <stop
         style="stop-color:#000000;stop-opacity:.09803922"
         offset=".925"
         id="stop12" />
      <stop
         style="stop-color:#000000;stop-opacity:.49803922"
         offset="1"
         id="stop14" />
    </linearGradient>
    <clipPath
       id="clipPath1082-3">
      <path
         inkscape:connector-curvature="0"
         d="M 361.9375,-212 C 507.2348,-212 528,-191.28677 528,-46.125 V 70.125 C 528,215.28618 507.2348,236 361.9375,236 H 214.0625 C 68.7652,236 48,215.28618 48,70.125 V -46.125 C 48,-191.28677 68.7652,-212 214.0625,-212 Z"
         style="fill:#8c59d9"
         id="path17" />
    </clipPath>
    <linearGradient
       gradientTransform="translate(0,640)"
       gradientUnits="userSpaceOnUse"
       y2="120"
       x2="416"
       y1="120"
       x1="384"
       id="linearGradient1053-2"
       xlink:href="#linearGradient1458" />
    <linearGradient
       id="linearGradient1458">
      <stop
         id="stop1452"
         offset="0"
         style="stop-color:#deddda;stop-opacity:1" />
      <stop
         style="stop-color:#ffffff;stop-opacity:1"
         offset="0.51104856"
         id="stop1454" />
      <stop
         id="stop1456"
         offset="1"
         style="stop-color:#c0bfbc;stop-opacity:1" />
    </linearGradient>
  </defs>
  <metadata
     id="metadata4">
    <rdf:RDF>
      <cc:Work
         rdf:about="">
        <dc:format>image/svg+xml</dc:format>
        <dc:type
           rdf:resource="http://purl.org/dc/dcmitype/StillImage" />
        <dc:creator>
          <cc:Agent>
            <dc:title>GNOME Design Team</dc:title>
          </cc:Agent>
        </dc:creator>
        <dc:source />
        <cc:license
           rdf:resource="http://creativecommons.org/licenses/by-sa/4.0/" />
        <dc:title>Adwaita Icon Template</dc:title>
        <dc:subject>
          <rdf:Bag />
        </dc:subject>
        <dc:date />
        <dc:rights>
          <cc:Agent>
            <dc:title />
          </cc:Agent>
        </dc:rights>
        <dc:publisher>
          <cc:Agent>
            <dc:title />
          </cc:Agent>
        </dc:publisher>
        <dc:identifier />
        <dc:relation />
        <dc:language />
        <dc:coverage />
        <dc:description />
        <dc:contributor>
          <cc:Agent>
            <dc:title />
          </cc:Agent>
        </dc:contributor>
      </cc:Work>
      <cc:License
         rdf:about="http://creativecommons.org/licenses/by-sa/4.0/">
        <cc:permits
           rdf:resource="http://creativecommons.org/ns#Reproduction" />
        <cc:permits
           rdf:resource="http://creativecommons.org/ns#Distribution" />
        <cc:requires
           rdf:resource="http://creativecommons.org/ns#Notice" />
        <cc:requires
           rdf:resource="http://creativecommons.org/ns#Attribution" />
        <cc:permits
           rdf:resource="http://creativecommons.org/ns#DerivativeWorks" />
        <cc:requires
           rdf:resource="http://creativecommons.org/ns#ShareAlike" />
      </cc:License>
    </rdf:RDF>
  </metadata>
  <g
     transform="translate(0,-172)"
     style="display:inline"
     id="layer1">
    <g
       style="display:inline"
       id="layer9">
      <g
         transform="rotate(-30,413.5026,270.49096)"
         id="g1710"
         style="display:inline;enable-background:new" />
      <text
         id="text1204"
         y="390.00003"
         x="107.99998"
         style="font-style:normal;font-variant:normal;font-weight:normal;font-stretch:normal;font-size:26.66666603px;line-height:125%;font-family:Cantarell;-inkscape-font-specification:Cantarell;letter-spacing:0px;word-spacing:0px;display:inline;fill:#000000;fill-opacity:1;stroke:none;enable-background:new"
         xml:space="preserve"><tspan
           y="397.90536"
           x="107.99998"
           id="tspan1202" /></text>
      <path
         style="opacity:1;fill:#414141;fill-opacity:1;stroke:none;stroke-width:1.41549647;stroke-linecap:butt;stroke-linejoin:miter;stroke-miterlimit:4;stroke-dasharray:none;stroke-dashoffset:0;stroke-opacity:1;marker:none;marker-start:none;marker-mid:none;marker-end:none;paint-order:normal"
         d="m 20,188 c -4.432,0 -8,3.568 -8,8 v 84 c 0,4.432 3.568001,8 8,8 H 59.957032 64 107.29492 c 6.07629,0 8.66602,-4.51575 8.66602,-10.125 V 238 H 64 v -50 z"
         id="path1518"
         inkscape:connector-curvature="0" />
      <path
         style="display:inline;opacity:1;fill:#646464;fill-opacity:1;stroke:none;stroke-width:0.25;stroke-linecap:butt;stroke-linejoin:miter;stroke-miterlimit:4;stroke-dasharray:none;stroke-dashoffset:0;stroke-opacity:1;marker:none;marker-start:none;marker-mid:none;marker-end:none;paint-order:normal;enable-background:new"
         d="m 20,184 c -4.432,0 -8,3.568 -8,8 v 84 c 0,4.432 3.568001,8 8,8 h 40 4 44.00196 c 4.432,0 8,-3.568 8,-8 v -84 c 0,-4.432 -3.568,-8 -8,-8 H 64 60 Z"
         id="path1520"
         inkscape:connector-curvature="0" />
      <path
         inkscape:connector-curvature="0"
         d="m 83.706783,196.86893 c -1.383792,-0.66635 -2.699723,-1.06796 -3.946982,-1.20404 -1.270142,-0.12927 -2.427911,-0.044 -3.473849,0.25633 -1.045944,0.30032 -1.969704,0.79392 -2.77049,1.48032 -0.800771,0.68636 -1.438126,1.52328 -1.913041,2.50949 -0.300313,0.62366 -0.521333,1.20517 -0.66329,1.74427 -0.148951,0.55359 -0.247124,1.04229 -0.29449,1.46614 -0.05441,0.43833 -0.0744,0.80449 -0.0589,1.09782 0.01549,0.29329 0.0085,0.55329 0.0302,0.67098 l 0.133626,1.315 c 0.06193,0.60714 -0.0029,1.07795 -0.195022,1.40965 -0.180491,0.34125 -0.525895,0.53843 -1.03718,0.59058 -0.117166,0.0113 -0.245925,0.0132 -0.386591,0.006 -0.140693,-0.008 -0.267031,-0.0219 -0.376809,-0.0429 L 48.10731,198.2263 41.379192,212.19823 c -0.02109,0.10961 -0.03572,0.23617 -0.04292,0.3768 -0.0072,0.1406 -0.0053,0.26943 0.0066,0.38659 0.05216,0.5113 0.249325,0.85671 0.590586,1.0372 0.331701,0.19221 0.802556,0.25686 1.409669,0.195 l 1.314981,-0.1336 c 0.117619,-0.0217 0.377675,-0.0151 0.67098,-0.0302 0.293308,-0.0151 0.659493,0.004 1.097811,0.0588 0.423842,0.0473 0.912573,0.14551 1.466159,0.29451 0.53911,0.14191 1.120598,0.36298 1.744243,0.6633 0.98623,0.47491 1.823121,1.11224 2.509504,1.91303 0.686389,0.80078 1.180003,1.72452 1.480324,2.77047 0.300327,1.04596 0.383944,2.20293 0.254712,3.47308 -0.136101,1.24727 -0.536075,2.56398 -1.20244,3.94777 -0.666351,1.38379 -1.426384,2.53563 -2.280788,3.45657 -0.861257,0.89806 -1.779546,1.56407 -2.755532,1.99542 -0.975964,0.43134 -1.990951,0.62862 -3.044992,0.59133 -1.054029,-0.0373 -2.110798,-0.31183 -3.16955,-0.82165 -0.609152,-0.29335 -1.156876,-0.60575 -1.640767,-0.93657 -0.483827,-0.33095 -0.892745,-0.64607 -1.230727,-0.94594 -0.337969,-0.29996 -0.612673,-0.56944 -0.820141,-0.80646 -0.199799,-0.25294 -0.276548,-0.41663 -0.339772,-0.54504 l -0.714669,-1.11303 c -0.330165,-0.51328 -0.674338,-0.84099 -1.031439,-0.98047 -0.354159,-0.15364 -0.747651,-0.0915 -1.179895,0.18652 -0.09899,0.0635 -0.200848,0.14249 -0.306321,0.23592 -0.105487,0.0933 -0.194381,0.18198 -0.267037,0.26689 l -9.896787,20.55214 20.646656,9.94229 c 0.109795,0.0212 0.236129,0.0357 0.376809,0.0429 0.140617,0.008 0.269428,0.006 0.386589,-0.006 0.511285,-0.0521 0.856708,-0.24931 1.03718,-0.59058 0.192189,-0.3317 0.256955,-0.80249 0.195024,-1.40965 l -0.133626,-1.31498 c -0.02173,-0.11773 -0.01474,-0.37769 -0.0302,-0.67098 -0.01549,-0.29333 0.0045,-0.65949 0.0589,-1.09782 0.04736,-0.42386 0.145531,-0.91257 0.29449,-1.46614 0.14194,-0.53912 0.362969,-1.12061 0.663282,-1.74425 0.474921,-0.98627 1.112265,-1.82313 1.913049,-2.50951 0.800783,-0.6864 1.724544,-1.18 2.770481,-1.48033 1.045948,-0.30032 2.203716,-0.38557 3.47386,-0.25634 1.247258,0.13606 2.563178,0.53771 3.946971,1.20408 1.383781,0.66635 2.535652,1.42637 3.45659,2.28079 0.898062,0.86124 1.564061,1.77953 1.995405,2.75552 0.431337,0.97599 0.628636,1.99096 0.591339,3.045 -0.0373,1.05404 -0.311841,2.11079 -0.821683,3.16955 -0.293332,0.60917 -0.605697,1.15688 -0.936637,1.64073 -0.330931,0.48382 -0.64607,0.89273 -0.945949,1.23071 -0.299922,0.33796 -0.56942,0.61268 -0.806457,0.82014 -0.25299,0.19977 -0.416638,0.27655 -0.545034,0.33978 l -1.113005,0.71469 c -0.513285,0.33016 -0.840995,0.67432 -0.980471,1.03141 -0.154261,0.3539 -0.09141,0.74767 0.186614,1.1799 0.06374,0.099 0.142545,0.20095 0.235916,0.30635 0.0933,0.10563 0.181966,0.19434 0.266873,0.26704 l 13.877419,6.6826 9.896789,-20.55215 c 0.07262,-0.0849 0.161573,-0.17348 0.267032,-0.26687 0.10547,-0.0933 0.20725,-0.17216 0.306325,-0.23594 0.432244,-0.278 0.826025,-0.34091 1.179897,-0.18652 0.357163,0.13946 0.701221,0.46728 1.031435,0.98047 l 0.714678,1.11299 c 0.06322,0.12851 0.139998,0.29207 0.339779,0.54505 0.207435,0.23709 0.482156,0.50653 0.820134,0.80646 0.337964,0.29992 0.746899,0.615 1.230735,0.94594 0.483821,0.33097 1.03161,0.64323 1.64076,0.93657 1.058758,0.50982 2.115526,0.78434 3.169554,0.82167 1.054038,0.0372 2.069029,-0.16007 3.044991,-0.59133 0.975984,-0.43136 1.894284,-1.09737 2.755542,-1.99542 0.85439,-0.92094 1.61443,-2.07281 2.28078,-3.45659 0.66636,-1.38378 1.06634,-2.70051 1.20243,-3.94777 0.12925,-1.27015 0.0456,-2.42712 -0.2547,-3.47307 -0.30033,-1.04594 -0.79394,-1.9697 -1.48033,-2.77047 -0.68638,-0.8008 -1.52328,-1.43813 -2.509498,-1.91304 -0.62365,-0.30033 -1.20518,-0.52128 -1.744251,-0.66329 -0.553608,-0.14891 -1.042314,-0.24713 -1.466159,-0.29448 -0.438353,-0.0542 -0.80449,-0.0745 -1.097816,-0.0588 -0.293325,0.0151 -0.553308,0.009 -0.670972,0.0302 l -1.31498,0.13361 c -0.607155,0.0618 -1.077962,-0.004 -1.409671,-0.19501 -0.340998,-0.18103 -0.538424,-0.5259 -0.590581,-1.03719 -0.0119,-0.11717 -0.0138,-0.24594 -0.0066,-0.38657 0.0072,-0.1406 0.02185,-0.26703 0.04295,-0.37683 l 6.728115,-13.972 -13.877413,-6.68261 c -0.08498,-0.0726 -0.173571,-0.16157 -0.266872,-0.26704 -0.09329,-0.10564 -0.172176,-0.20732 -0.235918,-0.30633 -0.278027,-0.43225 -0.340913,-0.82603 -0.186611,-1.17991 0.139498,-0.35707 0.467177,-0.70128 0.980467,-1.03142 l 1.113005,-0.71469 c 0.128409,-0.0633 0.292041,-0.14003 0.545034,-0.33978 0.237038,-0.20745 0.50654,-0.48215 0.80646,-0.82013 0.299879,-0.33799 0.614993,-0.74688 0.945962,-1.23073 0.330934,-0.48382 0.643304,-1.03159 0.936639,-1.64073 0.509825,-1.05875 0.784362,-2.11552 0.821665,-3.16954 0.0373,-1.05403 -0.159987,-2.06902 -0.591331,-3.04499 -0.431344,-0.97601 -1.097356,-1.89427 -1.995407,-2.75554 -0.920939,-0.85442 -2.072807,-1.61444 -3.456584,-2.2808 z"
         style="fill:#67e16a;stroke-width:1.88976419"
         id="path35" />
    </g>
  </g>
  <g
     transform="matrix(0.51321901,0,0,0.55838602,-73.854417,42.038141)"
     id="g861"
     style="stroke:#ffffff;stroke-width:1.84039485;stroke-linecap:butt;stroke-linejoin:round;stroke-miterlimit:4;stroke-dasharray:none;stroke-opacity:1">
    <g
       id="g859"
       transform="matrix(2,0,0,2,24.834232,-1978.9059)"
       style="stroke:#ffffff;stroke-width:0.92019743;stroke-linecap:butt;stroke-linejoin:round;stroke-miterlimit:4;stroke-dasharray:none;stroke-opacity:1" />
  </g>
  <g
     style="enable-background:new"
     transform="matrix(0.47801147,0,0,0.47801147,-85.967113,-15.396015)"
     id="g30" />
</svg>
