<?xml version="1.0" encoding="UTF-8" standalone="no"?>
<svg
   xmlns:dc="http://purl.org/dc/elements/1.1/"
   xmlns:cc="http://creativecommons.org/ns#"
   xmlns:rdf="http://www.w3.org/1999/02/22-rdf-syntax-ns#"
   xmlns:svg="http://www.w3.org/2000/svg"
   xmlns="http://www.w3.org/2000/svg"
   xmlns:xlink="http://www.w3.org/1999/xlink"
   xmlns:sodipodi="http://sodipodi.sourceforge.net/DTD/sodipodi-0.dtd"
   xmlns:inkscape="http://www.inkscape.org/namespaces/inkscape"
   style="enable-background:new"
   width="128"
   height="128"
   version="1.0"
   viewBox="0 0 128 128"
   id="svg49"
   sodipodi:docname="proprieta-di-applicazione.svg"
   inkscape:version="0.92.3 (2405546, 2018-03-11)">
  <metadata
     id="metadata53">
    <rdf:RDF>
      <cc:Work
         rdf:about="">
        <dc:format>image/svg+xml</dc:format>
        <dc:type
           rdf:resource="http://purl.org/dc/dcmitype/StillImage" />
        <dc:title>
  Adwaita Icon Template
 </dc:title>
      </cc:Work>
    </rdf:RDF>
  </metadata>
  <sodipodi:namedview
     pagecolor="#ffffff"
     bordercolor="#666666"
     borderopacity="1"
     objecttolerance="10"
     gridtolerance="10"
     guidetolerance="10"
     inkscape:pageopacity="0"
     inkscape:pageshadow="2"
     inkscape:window-width="1920"
     inkscape:window-height="1009"
     id="namedview51"
     showgrid="false"
     inkscape:zoom="6.6305975"
     inkscape:cx="24.336529"
     inkscape:cy="66.965668"
     inkscape:window-x="0"
     inkscape:window-y="34"
     inkscape:window-maximized="1"
     inkscape:current-layer="svg49" />
  <title
     id="title4162">
  Adwaita Icon Template
 </title>
  <defs
     id="defs31">
    <linearGradient
       id="linearGradient950">
      <stop
         style="stop-color:#9a9996"
         id="stop946"
         offset="0" />
      <stop
         style="stop-color:#77767b"
         id="stop948"
         offset="1" />
    </linearGradient>
    <linearGradient
       id="linearGradient1001"
       x1="1660.857"
       x2="1662.99"
       y1="806.297"
       y2="812.882"
       gradientTransform="matrix(1.8293937,-0.81599442,0.81599442,1.8293937,-3645.9624,100.02949)"
       gradientUnits="userSpaceOnUse"
       xlink:href="#linearGradient950" />
    <clipPath
       id="clipPath5154"
       clipPathUnits="userSpaceOnUse">
      <circle
         cx="128"
         cy="924.362"
         r="109.647"
         style="fill:url(#radialGradient5158)"
         id="circle7" />
    </clipPath>
    <clipPath
       id="clipPath977"
       clipPathUnits="userSpaceOnUse">
      <circle
         cx="128"
         cy="924.362"
         r="109.647"
         style="fill:url(#radialGradient5158)"
         id="circle10" />
    </clipPath>
    <clipPath
       id="clipPath4688"
       clipPathUnits="userSpaceOnUse">
      <path
         d="m 106.42383,889.60156 c -2.2448,-0.0524 -4.09304,1.75264 -4.09375,3.99805 v 32.64453 32.64453 c -4e-5,3.07923 3.33305,5.004 6,3.46485 l 28.26953,-16.32227 28.27148,-16.32227 c 2.66559,-1.54001 2.66559,-5.38772 0,-6.92773 l -28.27148,-16.32227 -28.26953,-16.32226 c -0.58054,-0.3353 -1.23603,-0.51932 -1.90625,-0.53516 z"
         style="fill:url(#radialGradient4692);stroke:#a7003f;stroke-linecap:round;stroke-linejoin:round"
         id="path13" />
    </clipPath>
    <clipPath
       id="clipPath4564"
       clipPathUnits="userSpaceOnUse">
      <circle
         style="fill:url(#radialGradient4568)"
         cx="128"
         cy="924.362"
         r="109.647"
         id="circle16" />
    </clipPath>
    <clipPath
       id="clipPath6215"
       clipPathUnits="userSpaceOnUse">
      <path
         d="m 105.17325,806.18572 c -3.06859,0.56361 -6.11393,1.24721 -9.129005,2.04923 -3.838255,1.06506 -7.62084,2.32142 -11.333578,3.76438 -3.712189,1.44307 -7.34989,3.07087 -10.899472,4.87732 -3.549153,1.80656 -7.005749,3.78947 -10.35684,5.94129 -3.351877,2.15253 -6.593991,4.47137 -9.714191,6.94783 -3.119992,2.47544 -6.114241,5.10535 -8.971529,7.87988 -0.367219,0.38909 -0.731819,0.78065 -1.093777,1.17464 2.60205,17.85956 16.832359,40.03752 30.863064,55.74236 -4.76734,8.84435 -7.265993,18.73329 -7.272057,28.78068 0.02104,2.87431 0.246096,5.7435 0.673482,8.58593 -20.257302,-9.18513 -43.077023,-26.53494 -52.798465,-47.36396 -0.440667,1.15171 -0.863474,2.31018 -1.268271,3.47498 -1.176789,3.80495 -2.162562,7.66637 -2.953625,11.56979 -0.79154,3.90311 -1.3874065,7.84335 -1.7853678,11.80598 -0.39733,3.96334 -0.5961891,7.94407 -0.5958321,11.92728 -4.394e-4,2.81936 0.098928,5.63785 0.2979155,8.45018 0.282275,3.97319 0.763088,7.92978 1.4406374,11.85493 0.625626,3.51826 1.408798,7.00668 2.347153,10.45473 16.778133,6.68355 43.114514,5.45001 63.748015,1.14301 6.818545,11.02763 16.987182,19.58379 29.018153,24.41667 -18.071844,12.93645 -44.490188,24.02095 -67.37308,22.03245 1.384097,1.665 2.813203,3.2921 4.285735,4.8794 2.774977,2.8571 5.691103,5.5737 8.737453,8.1395 3.046107,2.5658 6.218619,4.9777 9.505651,7.2266 3.287242,2.2488 6.684891,4.3319 10.180217,6.2413 3.495379,1.9096 7.084075,3.6433 10.752641,5.1944 3.66896,1.5509 7.413193,2.9174 11.218668,4.0942 1.438565,0.3959 2.884421,0.7648 4.336807,1.1066 14.138748,-11.1844 26.206378,-34.5828 32.780368,-54.56406 12.95816,-0.38251 25.45395,-4.90132 35.65955,-12.89544 2.15922,22.12638 -1.46693,50.5581 -14.64692,69.3832 3.06859,-0.5636 6.11393,-1.2473 9.129,-2.0493 3.83826,-1.0651 7.62084,-2.3214 11.33358,-3.7644 3.71219,-1.4431 7.34989,-3.0709 10.89947,-4.8773 3.54915,-1.8066 7.00575,-3.7895 10.35684,-5.9413 3.35188,-2.1525 6.59399,-4.4714 9.71419,-6.9478 3.11999,-2.4754 6.11424,-5.1054 8.97153,-7.8799 0.36722,-0.3891 0.73182,-0.7806 1.09378,-1.1746 -2.60204,-17.85957 -16.83236,-40.03755 -30.86307,-55.74238 4.76735,-8.84435 7.266,-18.7333 7.27207,-28.78069 -0.021,-2.8743 -0.24611,-5.74349 -0.6735,-8.58592 20.25731,9.18513 43.07704,26.53494 52.79848,47.36396 0.44067,-1.15171 0.86347,-2.31018 1.26827,-3.47499 1.17679,-3.80495 2.16256,-7.66636 2.95362,-11.56978 0.79154,-3.90311 1.38741,-7.84335 1.78537,-11.80598 0.39733,-3.96334 0.59619,-7.94408 0.59583,-11.92729 4.4e-4,-2.81936 -0.0989,-5.63784 -0.29791,-8.45017 -0.28228,-3.97319 -0.76309,-7.92978 -1.44064,-11.85493 -0.62776,-3.53416 -1.41449,-7.03823 -2.35779,-10.50154 -20.56165,-7.32804 -45.89823,-4.79548 -63.74906,-1.11372 -6.81835,-11.01918 -16.98234,-19.56874 -29.00647,-24.39915 18.07184,-12.93645 44.49019,-24.02091 67.37307,-22.03241 -1.38409,-1.66502 -2.8132,-3.2921 -4.28573,-4.87944 -2.77498,-2.85712 -5.6911,-5.57368 -8.73745,-8.13949 -3.04611,-2.56581 -6.21862,-4.97769 -9.50565,-7.22659 -3.28724,-2.24885 -6.68489,-4.3319 -10.18022,-6.24135 -3.49538,-1.90963 -7.08407,-3.64325 -10.75264,-5.19438 -3.66896,-1.55092 -7.41319,-2.91736 -11.21867,-4.09421 -1.42662,-0.39262 -2.86041,-0.75869 -4.30063,-1.09804 -14.14688,11.18369 -26.2293,34.57475 -32.8107,54.55552 -12.96018,0.38127 -25.4582,4.90015 -35.665394,12.89544 -2.15922,-22.12637 1.466931,-50.55807 14.646924,-69.38315 z"
         style="fill:url(#radialGradient6219)"
         id="path19" />
    </clipPath>
    <linearGradient
       id="linearGradient982"
       x1="152"
       x2="152"
       y1="124"
       y2="236"
       gradientUnits="userSpaceOnUse"
       xlink:href="#linearGradient980" />
    <linearGradient
       id="linearGradient980">
      <stop
         style="stop-color:#000000"
         id="stop976"
         offset="0" />
      <stop
         style="stop-color:#000000;stop-opacity:0"
         id="stop978"
         offset="1" />
    </linearGradient>
    <clipPath
       id="clipPath999"
       clipPathUnits="userSpaceOnUse">
      <path
         style="fill:#5d5d5d"
         d="m 152,68 c -48.60106,0 -88,39.39894 -88,88 0,48.60106 39.39894,88 88,88 48.60106,0 88,-39.39894 88,-88 0,-48.60106 -39.39894,-88 -88,-88 z"
         id="path26" />
    </clipPath>
    <filter
       style="color-interpolation-filters:sRGB"
       id="filter1003"
       width="1.12"
       height="1.12"
       x="-.06"
       y="-.06">
      <feGaussianBlur
         id="feGaussianBlur1005"
         stdDeviation="4.4" />
    </filter>
  </defs>
  <g
     id="layer1"
     transform="translate(6.19e-5,-173)">
    <g
       id="layer9">
      <path
         d="M 123.99993,237 A 59.999995,59.999995 0 0 1 63.999945,297 59.999995,59.999995 0 0 1 3.9999381,237 59.999995,59.999995 0 0 1 63.999945,177.00001 59.999995,59.999995 0 0 1 123.99993,237 Z"
         style="opacity:0.3;fill:#3d3846"
         id="path33" />
      <rect
         style="fill:#d5d3cf"
         width="112"
         height="114"
         x="8"
         y="179"
         rx="56"
         ry="56"
         id="rect35" />
      <path
         style="fill:#62a0ea;fill-opacity:1"
         d="M 123.99993,235 A 59.999995,59.999995 0 0 1 63.999945,294.99999 59.999995,59.999995 0 0 1 3.9999381,235 59.999995,59.999995 0 0 1 63.999945,175 59.999995,59.999995 0 0 1 123.99993,235 Z"
         id="path37" />
      <path
         style="opacity:0.2;fill:none;stroke:url(#linearGradient982);stroke-width:10;stroke-linejoin:round;filter:url(#filter1003)"
         d="m 152,70 c -48.60106,0 -88,39.39894 -88,88 0,48.60106 39.39894,88 88,88 48.60106,0 88,-39.39894 88,-88 0,-48.60106 -39.39894,-88 -88,-88 z"
         clip-path="url(#clipPath999)"
         transform="matrix(0.53571429,0,0,0.53571429,-17.428633,151.42857)"
         id="path39" />
      <path
         d="m 63.999939,217 a 20,20.000002 0 0 0 -20,20 20,20.000002 0 0 0 20,20 20,20.000002 0 0 0 20,-20 20,20.000002 0 0 0 -20,-20 z m -8,10 a 1.9999997,2 0 0 1 2,2 1.9999997,2 0 0 1 -2,2 1.9999997,2 0 0 1 -2,-2 1.9999997,2 0 0 1 2,-2 z m 8,0 a 1.9999997,2 0 0 1 2,2 1.9999997,2 0 0 1 -2,2 1.9999997,2 0 0 1 -2,-2 1.9999997,2 0 0 1 2,-2 z m 8,0 a 1.9999997,2 0 0 1 2,2 1.9999997,2 0 0 1 -2,2 1.9999997,2 0 0 1 -2,-2 1.9999997,2 0 0 1 2,-2 z m -16,8 a 1.9999997,2 0 0 1 2,2 1.9999997,2 0 0 1 -2,2 1.9999997,2 0 0 1 -2,-2 1.9999997,2 0 0 1 2,-2 z m 8,0 a 1.9999997,2 0 0 1 2,2 1.9999997,2 0 0 1 -2,2 1.9999997,2 0 0 1 -2,-2 1.9999997,2 0 0 1 2,-2 z m 8,0 a 1.9999997,2 0 0 1 2,2 1.9999997,2 0 0 1 -2,2 1.9999997,2 0 0 1 -2,-2 1.9999997,2 0 0 1 2,-2 z m -16,8 a 1.9999997,2 0 0 1 2,2 1.9999997,2 0 0 1 -2,2 1.9999997,2 0 0 1 -2,-2 1.9999997,2 0 0 1 2,-2 z m 8,0 a 1.9999997,2 0 0 1 2,2 1.9999997,2 0 0 1 -2,2 1.9999997,2 0 0 1 -2,-2 1.9999997,2 0 0 1 2,-2 z m 8,0 a 1.9999997,2 0 0 1 2,2 1.9999997,2 0 0 1 -2,2 1.9999997,2 0 0 1 -2,-2 1.9999997,2 0 0 1 2,-2 z"
         style="opacity:0.1"
         id="path43" />
      <path
         style="fill:#f6f5f4;fill-opacity:1"
         d="m 63.999939,215 a 20,20.000002 0 0 0 -20,20 20,20.000002 0 0 0 20,20 20,20.000002 0 0 0 20,-20 20,20.000002 0 0 0 -20,-20 z m -8,10 a 1.9999997,2 0 0 1 2,2 1.9999997,2 0 0 1 -2,2 1.9999997,2 0 0 1 -2,-2 1.9999997,2 0 0 1 2,-2 z m 8,0 a 1.9999997,2 0 0 1 2,2 1.9999997,2 0 0 1 -2,2 1.9999997,2 0 0 1 -2,-2 1.9999997,2 0 0 1 2,-2 z m 8,0 a 1.9999997,2 0 0 1 2,2 1.9999997,2 0 0 1 -2,2 1.9999997,2 0 0 1 -2,-2 1.9999997,2 0 0 1 2,-2 z m -16,8 a 1.9999997,2 0 0 1 2,2 1.9999997,2 0 0 1 -2,2 1.9999997,2 0 0 1 -2,-2 1.9999997,2 0 0 1 2,-2 z m 8,0 a 1.9999997,2 0 0 1 2,2 1.9999997,2 0 0 1 -2,2 1.9999997,2 0 0 1 -2,-2 1.9999997,2 0 0 1 2,-2 z m 8,0 a 1.9999997,2 0 0 1 2,2 1.9999997,2 0 0 1 -2,2 1.9999997,2 0 0 1 -2,-2 1.9999997,2 0 0 1 2,-2 z m -16,8 a 1.9999997,2 0 0 1 2,2 1.9999997,2 0 0 1 -2,2 1.9999997,2 0 0 1 -2,-2 1.9999997,2 0 0 1 2,-2 z m 8,0 a 1.9999997,2 0 0 1 2,2 1.9999997,2 0 0 1 -2,2 1.9999997,2 0 0 1 -2,-2 1.9999997,2 0 0 1 2,-2 z m 8,0 a 1.9999997,2 0 0 1 2,2 1.9999997,2 0 0 1 -2,2 1.9999997,2 0 0 1 -2,-2 1.9999997,2 0 0 1 2,-2 z"
         id="path45" />
    </g>
  </g>
  <path
     style="font-weight:400;font-family:sans-serif;overflow:visible;fill:#f6f5f4;fill-opacity:1;stroke-width:1.00000012"
     d="M 110.16406 100.25391 L 110.18555 100.26562 C 111.36347 98.855213 112.47596 97.391427 113.51953 95.878906 C 114.64904 94.227804 115.69527 92.521245 116.6543 90.765625 C 117.61358 89.010121 118.48445 87.207739 119.26367 85.365234 C 119.58831 84.534272 119.89438 83.696173 120.18164 82.851562 L 120.16992 82.84375 A 59.999995 59.999995 0 0 1 119.26172 85.330078 A 59.999995 59.999995 0 0 1 116.65234 90.730469 A 59.999995 59.999995 0 0 1 113.51758 95.84375 A 59.999995 59.999995 0 0 1 110.16406 100.25391 z "
     id="path1060" />
  <path
     style="font-weight:400;font-family:sans-serif;overflow:visible;fill:#f6f5f4;fill-opacity:1;stroke-width:1.00000012"
     d="M 75.119141 120.88477 L 75.130859 120.91797 C 76.785571 120.61923 78.426994 120.25107 80.050781 119.81445 C 81.978281 119.27887 83.87779 118.64722 85.742188 117.92188 C 87.606082 117.19719 89.432582 116.37976 91.214844 115.47266 C 92.141218 114.97332 93.054294 114.4497 93.953125 113.90234 L 93.941406 113.87305 A 59.999995 59.999995 0 0 1 91.212891 115.4375 A 59.999995 59.999995 0 0 1 85.740234 117.88672 A 59.999995 59.999995 0 0 1 80.048828 119.7793 A 59.999995 59.999995 0 0 1 75.119141 120.88477 z "
     id="path1058" />
  <path
     style="font-weight:400;font-family:sans-serif;overflow:visible;fill:#f6f5f4;fill-opacity:1;stroke-width:1.00000012"
     d="M 34.818359 114.36523 L 34.808594 114.39258 C 34.950157 114.48038 35.092085 114.56765 35.234375 114.6543 C 36.989879 115.61358 38.792261 116.48445 40.634766 117.26367 C 42.477557 118.04273 44.358161 118.72914 46.269531 119.32031 C 48.180426 119.91165 50.119697 120.40706 52.080078 120.80469 C 52.640047 120.89729 53.201301 120.98192 53.763672 121.05859 L 53.775391 121.02539 A 59.999995 59.999995 0 0 1 52.078125 120.76953 A 59.999995 59.999995 0 0 1 46.267578 119.28516 A 59.999995 59.999995 0 0 1 40.632812 117.22852 A 59.999995 59.999995 0 0 1 35.232422 114.61914 A 59.999995 59.999995 0 0 1 34.818359 114.36523 z "
     id="path1056" />
  <path
     style="font-weight:400;font-family:sans-serif;overflow:visible;fill:#f6f5f4;fill-opacity:1;stroke-width:1.00000012"
     d="M 13.720703 94.679688 L 13.826172 94.857422 C 14.816234 96.384611 15.875272 97.865961 17 99.296875 C 17.377095 99.739273 17.760599 100.17617 18.150391 100.60742 L 18.169922 100.5957 A 59.999995 59.999995 0 0 1 16.998047 99.261719 A 59.999995 59.999995 0 0 1 13.720703 94.679688 z "
     id="path1054" />
  <path
     style="font-weight:400;font-family:sans-serif;overflow:visible;fill:#f6f5f4;fill-opacity:1;stroke-width:1.00000012"
     d="M 7.9433594 83.308594 L 7.9355469 83.314453 C 7.9825369 83.457209 8.0300629 83.599789 8.078125 83.742188 C 8.8028184 85.606082 9.6202448 87.432582 10.527344 89.214844 C 10.658599 89.448152 10.791415 89.680579 10.925781 89.912109 L 11.791016 91.386719 A 59.999995 59.999995 0 0 1 10.525391 89.181641 A 59.999995 59.999995 0 0 1 8.0761719 83.707031 A 59.999995 59.999995 0 0 1 7.9433594 83.308594 z "
     id="path1052" />
  <path
     id="path1090"
     d="m 34.327152,12.918397 a 58.503803,58.503803 0 0 0 -2.20532,1.264534 58.503803,58.503803 0 0 0 -4.757243,3.401297 58.503803,58.503803 0 0 0 -4.393499,3.86026 58.503803,58.503803 0 0 0 -3.658392,3.926916 c -0.0069,0.009 -0.0061,0.04321 -0.01333,0.05142 l 5.195259,6.208413 c -1.678911,2.049698 -3.194169,4.225668 -4.534426,6.511214 -1.353551,2.345908 -2.429792,4.775132 -3.372729,7.227278 l -7.9433404,-1.40546 c -9.29e-4,0.0024 -0.014164,-0.0042 -0.015235,-0.002 A 58.503803,58.503803 0 0 0 7.8404664,46.123787 58.503803,58.503803 0 0 0 6.3931066,51.789439 58.503803,58.503803 0 0 0 5.5189774,57.57126 58.503803,58.503803 0 0 0 5.2352187,63.24453 c -1.04e-5,0.0015 0.00383,4.28e-4 0.00381,0.002 l 7.9757143,1.413081 c 0.116539,5.318242 1.052015,10.576231 2.774741,15.583875 l -6.9149517,3.98024 a 58.503803,58.503803 0 0 0 0.1295006,0.388501 58.503803,58.503803 0 0 0 2.3881441,5.338092 58.503803,58.503803 0 0 0 1.234065,2.150091 l 1.881567,3.210854 a 58.503803,58.503803 0 0 0 3.195619,4.467776 58.503803,58.503803 0 0 0 1.142652,1.30072 l 6.728318,-3.888833 c 3.404384,3.907733 7.45048,7.338693 12.112118,10.150573 l -2.607153,7.16442 a 58.503803,58.503803 0 0 0 0.403737,0.24758 58.503803,58.503803 0 0 0 5.265723,2.54431 58.503803,58.503803 0 0 0 5.494255,2.00535 58.503803,58.503803 0 0 0 5.665652,1.44735 A 58.503803,58.503803 0 0 0 53.763672,121 l 2.513835,-6.93019 c 5.286443,0.83457 10.634108,0.84484 15.833355,0.0343 l 2.464321,6.7588 a 58.503803,58.503803 0 0 0 4.806757,-1.07791 58.503803,58.503803 0 0 0 5.549482,-1.84539 58.503803,58.503803 0 0 0 5.336188,-2.38815 58.503803,58.503803 0 0 0 2.660475,-1.52544 l -2.407188,-6.58548 c 4.506139,-2.69698 8.622871,-6.09808 12.176873,-10.184844 l 6.04844,3.490814 a 58.503803,58.503803 0 0 0 3.26989,-4.300193 58.503803,58.503803 0 0 0 3.05659,-4.985773 58.503803,58.503803 0 0 0 2.54431,-5.265724 58.503803,58.503803 0 0 0 0.88555,-2.424328 l -6.01796,-3.477472 c 1.75165,-5.116239 2.62779,-10.387411 2.70808,-15.63339 l 7.04255,-1.247396 c -2e-4,-1.369282 -0.0485,-2.738133 -0.14473,-4.104028 -1.9e-4,-0.0026 -0.002,-0.0051 -0.002,-0.0076 -0.13806,-1.942813 -0.3717,-3.877681 -0.70274,-5.797057 -0.33116,-1.922666 -0.75828,-3.827561 -1.27977,-5.707549 -0.36635,-1.236392 -0.77349,-2.460334 -1.22073,-3.669819 l -7.13206,1.260727 c -1.89507,-4.912364 -4.56504,-9.539899 -7.9262,-13.706117 l 4.782,-5.686601 c -0.92748,-1.13877 -1.89752,-2.242212 -2.90805,-3.307978 -1.35907,-1.399158 -2.78726,-2.72947 -4.27924,-3.985954 -1.491525,-1.256306 -3.04493,-2.437252 -4.654401,-3.538413 -0.997609,-0.654453 -2.015045,-1.278076 -3.050837,-1.870202 l -4.875317,5.795152 C 84.197638,16.516478 79.180341,14.689001 73.97148,13.670643 V 5.8987012 C 72.514664,5.6215021 71.047835,5.3997944 69.574172,5.2340583 67.633295,5.0396226 65.683907,4.9423758 63.733314,4.9426819 c -1.380734,3.12e-5 -2.761034,0.048942 -4.138307,0.1466404 -1.858876,0.1362238 -3.71018,0.3612021 -5.547578,0.674165 l 0.369458,7.8900157 c -5.219875,1.01665 -10.2475,2.844121 -14.902093,5.416172 l -5.153363,-6.136044 c -0.007,0.0038 -0.02691,-0.01823 -0.03428,-0.01523 z m 29.859414,8.244237 c 23.489987,9e-6 42.531424,19.043348 42.531424,42.533334 0,23.489987 -19.041437,42.531422 -42.531424,42.531432 -23.489995,0 -42.533336,-19.041436 -42.533335,-42.531432 -1e-6,-23.489995 19.04334,-42.533337 42.533335,-42.533334 z"
     style="font-weight:400;font-family:sans-serif;overflow:visible;opacity:0.2;fill:#1a1a1a;fill-opacity:1;stroke-width:1.00000012"
     inkscape:connector-curvature="0" />
  <path
     style="font-weight:400;font-family:sans-serif;overflow:visible;fill:#f6f5f4;fill-opacity:1;stroke-width:1.00000012"
     d="M 33.841797 10.179688 A 59.999995 59.999995 0 0 0 31.580078 11.476562 A 59.999995 59.999995 0 0 0 26.701172 14.964844 A 59.999995 59.999995 0 0 0 22.195312 18.923828 A 59.999995 59.999995 0 0 0 18.443359 22.951172 C 18.436226 22.960384 18.437063 22.995482 18.429688 23.003906 L 23.757812 29.371094 C 22.035964 31.473212 20.481955 33.704831 19.107422 36.048828 C 17.719255 38.454731 16.61549 40.94608 15.648438 43.460938 L 7.5019531 42.019531 C 7.5010003 42.021985 7.4874266 42.01522 7.4863281 42.017578 A 59.999995 59.999995 0 0 0 6.6777344 44.234375 A 59.999995 59.999995 0 0 0 5.1933594 50.044922 A 59.999995 59.999995 0 0 0 4.296875 55.974609 A 59.999995 59.999995 0 0 0 4.0058594 61.792969 C 4.0058487 61.794475 4.0097893 61.793408 4.0097656 61.794922 L 12.189453 63.244141 C 12.308972 68.698393 13.268372 74.090851 15.035156 79.226562 L 7.9433594 83.308594 A 59.999995 59.999995 0 0 0 8.0761719 83.707031 A 59.999995 59.999995 0 0 0 10.525391 89.181641 A 59.999995 59.999995 0 0 0 11.791016 91.386719 L 13.720703 94.679688 A 59.999995 59.999995 0 0 0 16.998047 99.261719 A 59.999995 59.999995 0 0 0 18.169922 100.5957 L 25.070312 96.607422 C 28.56176 100.61509 32.711332 104.13379 37.492188 107.01758 L 34.818359 114.36523 A 59.999995 59.999995 0 0 0 35.232422 114.61914 A 59.999995 59.999995 0 0 0 40.632812 117.22852 A 59.999995 59.999995 0 0 0 46.267578 119.28516 A 59.999995 59.999995 0 0 0 52.078125 120.76953 A 59.999995 59.999995 0 0 0 53.775391 121.02539 L 56.353516 113.91797 C 61.775156 114.77388 67.259583 114.78441 72.591797 113.95312 L 75.119141 120.88477 A 59.999995 59.999995 0 0 0 80.048828 119.7793 A 59.999995 59.999995 0 0 0 85.740234 117.88672 A 59.999995 59.999995 0 0 0 91.212891 115.4375 A 59.999995 59.999995 0 0 0 93.941406 113.87305 L 91.472656 107.11914 C 96.094036 104.35318 100.31605 100.8651 103.96094 96.673828 L 110.16406 100.25391 A 59.999995 59.999995 0 0 0 113.51758 95.84375 A 59.999995 59.999995 0 0 0 116.65234 90.730469 A 59.999995 59.999995 0 0 0 119.26172 85.330078 A 59.999995 59.999995 0 0 0 120.16992 82.84375 L 113.99805 79.277344 C 115.7945 74.030261 116.69304 68.624282 116.77539 63.244141 L 123.99805 61.964844 C 123.99784 60.560544 123.94835 59.156685 123.84961 57.755859 C 123.84942 57.753201 123.84785 57.750705 123.84766 57.748047 C 123.70607 55.755548 123.46646 53.771197 123.12695 51.802734 C 122.78732 49.830898 122.34928 47.877286 121.81445 45.949219 C 121.43873 44.681207 121.02118 43.425964 120.5625 42.185547 L 113.24805 43.478516 C 111.30451 38.440522 108.56626 33.694641 105.11914 29.421875 L 110.02344 23.589844 C 109.07224 22.42195 108.07739 21.290289 107.04102 20.197266 C 105.64719 18.762326 104.18247 17.397992 102.65234 16.109375 C 101.12267 14.820939 99.529538 13.609792 97.878906 12.480469 C 96.855738 11.809341 95.812282 11.169769 94.75 10.5625 L 89.75 16.505859 C 84.987684 13.869787 79.842074 11.995574 74.5 10.951172 L 74.5 2.9804688 C 73.005927 2.6961805 71.501585 2.4688028 69.990234 2.2988281 C 67.99972 2.0994199 66.000478 1.999686 64 2 C 62.583955 2.000032 61.168355 2.050194 59.755859 2.1503906 C 57.849444 2.2900982 55.950794 2.5208302 54.066406 2.8417969 L 54.445312 10.933594 C 49.091943 11.976244 43.93574 13.850451 39.162109 16.488281 L 33.876953 10.195312 C 33.869784 10.199217 33.849355 10.176612 33.841797 10.179688 z M 64.464844 18.634766 C 88.55557 18.634775 108.08398 38.165133 108.08398 62.255859 C 108.08398 86.346585 88.55557 105.87499 64.464844 105.875 C 40.374109 105.875 20.843749 86.346594 20.84375 62.255859 C 20.843749 38.165124 40.374109 18.634762 64.464844 18.634766 z "
     id="path906" />
</svg>
