<svg xmlns="http://www.w3.org/2000/svg" xmlns:xlink="http://www.w3.org/1999/xlink" width="128" height="128" version="1.0" enable-background="new"><defs><linearGradient xlink:href="#a" id="n" gradientUnits="userSpaceOnUse" gradientTransform="matrix(-.25 0 0 .25 166 125.009)" x1="248" y1="619.964" x2="568" y2="619.964"/><linearGradient id="a"><stop offset="0" stop-color="#d5d3cf"/><stop offset=".05" stop-color="#e4e1de"/><stop offset=".1" stop-color="#d5d3cf"/><stop offset=".9" stop-color="#d5d3cf"/><stop offset=".95" stop-color="#e4e1de"/><stop offset="1" stop-color="#d5d3cf"/></linearGradient><clipPath clipPathUnits="userSpaceOnUse" id="l"><rect style="marker:none" width="400" height="256" x="56" y="-92" rx="8" ry="8" fill="none" stroke="#000" stroke-width="4" enable-background="new"/></clipPath><filter id="m" x="-.264" width="1.528" y="-.014" height="1.028" color-interpolation-filters="sRGB"><feGaussianBlur stdDeviation="1.76"/></filter><radialGradient xlink:href="#b" id="k" cx="-72.632" cy="88.045" fx="-72.632" fy="88.045" r="200" gradientTransform="matrix(.08386 0 0 2.375 230.091 -273.105)" gradientUnits="userSpaceOnUse"/><linearGradient id="b"><stop offset="0" stop-color="#d5d3cf"/><stop offset="1" stop-color="#d5d3cf" stop-opacity="0"/></linearGradient><linearGradient gradientTransform="matrix(.25 0 0 .29687 225 12)" xlink:href="#c" id="j" x1="-156" y1="-256" x2="220" y2="-256" gradientUnits="userSpaceOnUse"/><linearGradient id="c"><stop offset="0"/><stop offset="1" stop-color="#424048"/></linearGradient><linearGradient gradientTransform="matrix(.25 0 0 .275 232.467 16.3)" xlink:href="#d" id="i" x1="-122.894" y1="-292" x2="34.97" y2="-292" gradientUnits="userSpaceOnUse"/><linearGradient id="d"><stop offset="0" stop-color="#d5d3cf"/><stop offset="1" stop-color="#f6f5f4"/></linearGradient><linearGradient id="h"><stop stop-color="#fff" offset="0"/><stop stop-opacity="0" stop-color="#fff" offset="1"/></linearGradient><linearGradient id="e"><stop stop-color="#f6f5f4" offset="0"/><stop stop-color="#fff" offset="1"/></linearGradient><linearGradient id="f"><stop stop-color="#d5d3cf" offset="0"/><stop stop-color="#e4e1de" offset=".05"/><stop stop-color="#d5d3cf" offset=".1"/><stop stop-color="#d5d3cf" offset=".9"/><stop stop-color="#e4e1de" offset=".95"/><stop stop-color="#d5d3cf" offset="1"/></linearGradient><linearGradient id="g"><stop stop-color="#d5d3cf" offset="0"/><stop stop-color="#e4e1de" offset=".02"/><stop stop-color="#d5d3cf" offset=".059"/><stop stop-color="#d5d3cf" offset=".945"/><stop stop-color="#e4e1de" offset=".973"/><stop stop-color="#d5d3cf" offset="1"/></linearGradient></defs><g transform="translate(0 -172)"><rect transform="rotate(90)" ry="8.8" rx="8" y="-108" x="180" height="88" width="110" style="marker:none" fill="url(#i)" enable-background="new"/><rect transform="rotate(90)" ry="0" rx="0" y="-102" x="186" height="76" width="94" style="marker:none" fill="url(#j)" enable-background="new"/><rect transform="rotate(90)" ry="0" rx="0" y="-102" x="186" height="76" width="94" style="marker:none" opacity=".486" fill="url(#k)" enable-background="new"/><g transform="matrix(0 .25 -.29687 0 74.688 132)" clip-path="url(#l)" fill="#fff" stroke="none" color="#000" font-weight="400" font-family="sans-serif"><path transform="matrix(1.33333 0 0 1 -144 0)" d="M372-116v304h24v-304z" style="line-height:normal;font-variant-ligatures:normal;font-variant-position:normal;font-variant-caps:normal;font-variant-numeric:normal;font-variant-alternates:normal;font-feature-settings:normal;text-indent:0;text-align:start;text-decoration-line:none;text-decoration-style:solid;text-decoration-color:#000;text-transform:none;text-orientation:mixed;white-space:normal;shape-padding:0;isolation:auto;mix-blend-mode:normal;solid-color:#000;solid-opacity:1" overflow="visible" fill="#f9f06b" filter="url(#m)" enable-background="new"/><path d="M360-116v304h16v-304z" style="line-height:normal;font-variant-ligatures:normal;font-variant-position:normal;font-variant-caps:normal;font-variant-numeric:normal;font-variant-alternates:normal;font-feature-settings:normal;text-indent:0;text-align:start;text-decoration-line:none;text-decoration-style:solid;text-decoration-color:#000;text-transform:none;text-orientation:mixed;white-space:normal;shape-padding:0;isolation:auto;mix-blend-mode:normal;solid-color:#000;solid-opacity:1" overflow="visible" enable-background="accumulate"/></g><path style="marker:none" d="M108 280v4c0 4.432-3.568 8-8 8H28c-4.432 0-8-3.568-8-8v-4c0 4.432 3.568 8 8 8h72c4.432 0 8-3.568 8-8z" fill="url(#n)" enable-background="new"/><g stroke-width="1.376"><path d="M37.815 191.985h36.096l22.088 21.748.001 54.585c0 3.221-2.626 5.831-5.847 5.831H37.815A5.803 5.803 0 0 1 32 268.334V197.8a5.803 5.803 0 0 1 5.815-5.816z" fill="#f6f5f4" enable-background="new"/><path d="M74.036 192.235v15.992c0 3.222 2.624 5.76 5.846 5.76l15.992-.004z" fill="#deddda" enable-background="new"/></g></g></svg>