<svg xmlns="http://www.w3.org/2000/svg" xmlns:xlink="http://www.w3.org/1999/xlink" width="256" height="256" version="1.0" style="enable-background:new">
 <defs>
  <filter style="color-interpolation-filters:sRGB" id="filter925" width="1.046" height="1.05" x="-.02" y="-.03">
   <feGaussianBlur stdDeviation="2.32"/>
  </filter>
  <filter style="color-interpolation-filters:sRGB" id="filter931" width="1.023" height="1.025" x="-.01" y="-.01">
   <feGaussianBlur stdDeviation="1.16"/>
  </filter>
  <linearGradient id="linearGradient1108" x1="296" x2="296" y1="-212" y2="236" gradientUnits="userSpaceOnUse" xlink:href="#linearGradient1013"/>
  <linearGradient id="linearGradient1013">
   <stop offset="0" style="stop-color:#ffffff"/>
   <stop style="stop-color:#ffffff;stop-opacity:0.09803922" offset=".125"/>
   <stop style="stop-color:#000000;stop-opacity:0.09803922" offset=".925"/>
   <stop offset="1" style="stop-color:#000000;stop-opacity:0.49803922"/>
  </linearGradient>
  <clipPath id="clipPath1082-3" clipPathUnits="userSpaceOnUse">
   <path d="M 361.9375,-212 C 507.2348,-212 528,-191.28677 528,-46.125 V 70.125 C 528,215.28618 507.2348,236 361.9375,236 H 214.0625 C 68.7652,236 48,215.28618 48,70.125 V -46.125 C 48,-191.28677 68.7652,-212 214.0625,-212 Z" style="fill:#8c59d9"/>
  </clipPath>
 </defs>
 <g transform="translate(0,-44)">
  <g>
   <g>
    <path d="m 162.53675,62.431991 c 72.64865,0 83.03125,10.356615 83.03125,82.937499 v 58.125 c 0,72.58059 -10.3826,82.9375 -83.03125,82.9375 h -73.9375 c -72.64865,0 -83.0312501,-10.35691 -83.0312501,-82.9375 v -58.125 c 0,-72.580884 10.3826001,-82.937499 83.0312501,-82.937499 z" style="opacity:0.2;filter:url(#filter925)"/>
    <path style="opacity:0.1;filter:url(#filter931)" d="m 162.53675,61.431991 c 72.64865,0 83.03125,10.356615 83.03125,82.937499 v 58.125 c 0,72.58059 -10.3826,82.9375 -83.03125,82.9375 h -73.9375 c -72.64865,0 -83.0312501,-10.35691 -83.0312501,-82.9375 v -58.125 c 0,-72.580884 10.3826001,-82.937499 83.0312501,-82.937499 z"/>
   </g>
   <g>
    <path style="fill:#f1f0e9" d="m 162.53675,60.431991 c 72.64865,0 83.03125,10.356615 83.03125,82.937499 v 58.125 c 0,72.58059 -10.3826,82.9375 -83.03125,82.9375 h -73.9375 c -72.64865,0 -83.0312501,-10.35691 -83.0312501,-82.9375 v -58.125 c 0,-72.580884 10.3826001,-82.937499 83.0312501,-82.937499 z"/>
   </g>
   <g>
    <g>
     <path d="m 177.332,188.879 c -2.894,-5.982 -6.797,-12.361 -11.594,-18.879 4.797,-6.518 8.7,-12.897 11.593,-18.88 12.98,4.811 21.047,11.496 21.047,18.88 0,7.384 -8.067,14.069 -21.046,18.879 z m 0.433,30.886 c -5.221,5.221 -15.652,4.244 -28.232,-1.533 2.184,-6.276 3.935,-13.547 5.152,-21.548 8,-1.216 15.272,-2.967 21.547,-5.151 5.777,12.579 6.754,23.011 1.533,28.232 m -49.765,20.613 c -7.384,0 -14.069,-8.067 -18.88,-21.047 5.983,-2.893 12.363,-6.796 18.88,-11.593 6.518,4.797 12.897,8.7 18.88,11.593 -4.811,12.98 -11.496,21.047 -18.88,21.047 z m -49.765,-20.613 c -5.221,-5.221 -4.244,-15.653 1.532,-28.232 6.276,2.184 13.548,3.935 21.548,5.151 1.217,8.002 2.968,15.272 5.152,21.548 -12.58,5.777 -23.011,6.754 -28.232,1.533 z m -20.613,-49.765 c 0,-7.384 8.067,-14.069 21.047,-18.88 2.893,5.983 6.796,12.362 11.593,18.88 -4.797,6.518 -8.7,12.897 -11.594,18.879 -12.979,-4.81 -21.046,-11.495 -21.046,-18.879 z m 20.613,-49.765 c 5.221,-5.221 15.653,-4.244 28.232,1.533 -2.184,6.275 -3.935,13.546 -5.152,21.547 -8,1.217 -15.272,2.967 -21.548,5.152 -5.776,-12.579 -6.753,-23.011 -1.532,-28.232 z m 49.765,-20.613 c 7.384,0 14.069,8.067 18.88,21.047 -5.983,2.892 -12.363,6.796 -18.88,11.593 -6.517,-4.797 -12.897,-8.701 -18.88,-11.593 4.811,-12.98 11.496,-21.047 18.88,-21.047 z m 28.266,58.67 c -0.272,-4.41 -0.697,-8.674 -1.258,-12.763 7.515,1.181 14.378,2.836 20.314,4.87 -2.759,5.635 -6.442,11.658 -10.921,17.807 a 171.666,171.666 0 0 0 -8.135,-9.914 z m 0.178,19.97 c 0.117,-2.709 0.182,-5.462 0.182,-8.262 0,-2.8 -0.065,-5.553 -0.182,-8.262 a 166.27,166.27 0 0 1 6.628,8.262 166.27,166.27 0 0 1 -6.628,8.262 z m -0.178,3.446 a 171.666,171.666 0 0 0 8.135,-9.914 c 4.479,6.149 8.162,12.172 10.921,17.807 -5.936,2.034 -12.799,3.689 -20.314,4.87 0.561,-4.089 0.986,-8.353 1.258,-12.763 z m -13.995,14.247 a 193.008,193.008 0 0 0 5.97,-5.713 c 1.98,-1.98 3.881,-3.973 5.714,-5.971 -0.281,3.62 -0.672,7.134 -1.155,10.529 -3.395,0.483 -6.909,0.873 -10.529,1.155 z m -2.563,2.311 c 4.411,-0.272 8.675,-0.696 12.763,-1.258 -1.18,7.515 -2.836,14.378 -4.87,20.313 -5.635,-2.758 -11.658,-6.44 -17.807,-10.92 3.405,-2.587 6.712,-5.3 9.914,-8.135 m -19.97,0.178 c 2.709,0.116 5.462,0.181 8.262,0.181 2.8,0 5.553,-0.065 8.262,-0.181 a 166.848,166.848 0 0 1 -8.262,6.628 166.848,166.848 0 0 1 -8.262,-6.628 z m -3.446,-0.178 a 171.339,171.339 0 0 0 9.915,8.135 c -6.15,4.48 -12.173,8.162 -17.808,10.92 -2.034,-5.935 -3.69,-12.798 -4.87,-20.313 4.088,0.562 8.352,0.986 12.763,1.258 z m -14.247,-13.995 a 193.008,193.008 0 0 0 5.713,5.97 c 1.98,1.98 3.973,3.881 5.971,5.714 -3.62,-0.282 -7.134,-0.672 -10.529,-1.155 a 166.713,166.713 0 0 1 -1.155,-10.529 z m -2.311,-2.563 c 0.272,4.41 0.697,8.674 1.258,12.763 -7.515,-1.181 -14.378,-2.836 -20.314,-4.87 2.759,-5.635 6.442,-11.658 10.921,-17.807 2.587,3.405 5.3,6.712 8.135,9.914 z m -0.178,-19.97 a 192.97,192.97 0 0 0 -0.182,8.262 c 0,2.8 0.066,5.553 0.182,8.262 a 166.27,166.27 0 0 1 -6.628,-8.262 166.848,166.848 0 0 1 6.628,-8.262 m 0.178,-3.446 a 171.326,171.326 0 0 0 -8.135,9.914 c -4.48,-6.149 -8.162,-12.172 -10.921,-17.807 5.936,-2.034 12.799,-3.69 20.314,-4.87 a 171.774,171.774 0 0 0 -1.258,12.763 z m 13.995,-14.247 a 191.898,191.898 0 0 0 -5.971,5.714 193.008,193.008 0 0 0 -5.713,5.97 c 0.282,-3.62 0.672,-7.134 1.155,-10.529 3.395,-0.483 6.909,-0.873 10.529,-1.155 z m 2.563,-2.311 c -4.411,0.272 -8.675,0.696 -12.763,1.258 1.18,-7.515 2.836,-14.378 4.87,-20.314 5.635,2.759 11.658,6.441 17.807,10.921 a 171.666,171.666 0 0 0 -9.914,8.135 m 19.97,-0.178 a 192.97,192.97 0 0 0 -8.262,-0.182 c -2.8,0 -5.553,0.066 -8.262,0.182 2.759,-2.36 5.52,-4.569 8.262,-6.628 a 166.848,166.848 0 0 1 8.262,6.628 z m 3.446,0.178 a 171.666,171.666 0 0 0 -9.914,-8.135 c 6.149,-4.48 12.172,-8.162 17.807,-10.92 2.034,5.935 3.69,12.798 4.87,20.313 a 171.187,171.187 0 0 0 -12.763,-1.258 m 8.533,8.024 a 193.008,193.008 0 0 0 -5.97,-5.713 c 3.62,0.282 7.134,0.672 10.529,1.155 0.483,3.395 0.873,6.909 1.155,10.529 a 191.898,191.898 0 0 0 -5.714,-5.971 z m 6.263,20.242 c 0,3.689 -0.109,7.311 -0.316,10.847 a 185.653,185.653 0 0 1 -15.341,15.341 c -7.225,0.423 -14.469,0.423 -21.694,0 a 185.653,185.653 0 0 1 -15.341,-15.341 185.727,185.727 0 0 1 0,-21.695 185.6,185.6 0 0 1 7.447,-7.893 185.652,185.652 0 0 1 7.894,-7.447 c 7.225,-0.423 14.47,-0.423 21.695,0 a 185.6,185.6 0 0 1 7.893,7.447 185.6,185.6 0 0 1 7.447,7.893 c 0.207,3.538 0.316,7.16 0.316,10.848 z m 23.261,-49.765 c 5.221,5.221 4.244,15.653 -1.532,28.232 -6.276,-2.185 -13.548,-3.935 -21.548,-5.152 -1.217,-8.001 -2.968,-15.271 -5.152,-21.547 12.579,-5.777 23.011,-6.754 28.232,-1.533 z m 22.735,49.765 c 0,-8.279 -8.486,-15.627 -22.267,-20.807 6.081,-13.409 6.886,-24.605 1.032,-30.458 -5.854,-5.854 -17.05,-5.05 -30.458,1.032 -5.181,-13.781 -12.528,-22.267 -20.807,-22.267 -8.279,0 -15.627,8.486 -20.807,22.267 -13.408,-6.082 -24.604,-6.886 -30.458,-1.032 -5.854,5.853 -5.049,17.049 1.032,30.458 -13.781,5.18 -22.267,12.528 -22.267,20.807 0,8.279 8.486,15.626 22.267,20.807 -6.082,13.408 -6.886,24.604 -1.032,30.458 5.854,5.854 17.05,5.05 30.458,-1.032 5.18,13.781 12.528,22.267 20.807,22.267 8.279,0 15.627,-8.486 20.807,-22.268 13.408,6.083 24.604,6.887 30.458,1.033 5.854,-5.854 5.05,-17.05 -1.032,-30.458 13.782,-5.181 22.267,-12.528 22.267,-20.807 z" style="isolation:isolate;fill:#f34f17"/>
     <path d="m 142.542,170.408 c 0,8.203 -6.65,14.853 -14.854,14.853 -8.203,0 -14.853,-6.65 -14.853,-14.853 0,-8.204 6.65,-14.854 14.853,-14.854 8.204,0 14.854,6.65 14.854,14.854 z" style="isolation:isolate;fill:#46a926"/>
     <path d="m 143.957,124.786 a 2.83,2.83 0 1 1 -5.66,-0.001 2.83,2.83 0 0 1 5.66,0.001 z m -44.583,-7.965 a 2.4545,2.4545 0 1 1 -4.909,0 2.4545,2.4545 0 0 1 4.909,0 z m -11.826,43.684 a 2.122,2.122 0 1 1 -4.244,0 2.122,2.122 0 0 1 4.244,0 z m 96.713,41.025 a 3.0820002,3.0820002 0 1 1 -6.164,-0.002 3.0820002,3.0820002 0 0 1 6.164,0.002 z m -105.732,17.683 a 2.298,2.298 0 1 1 -4.596,0 2.298,2.298 0 0 1 4.596,0 z m 46.86,-9.549 a 2.4760049,2.4760049 0 1 1 -4.951,0.1 2.4760049,2.4760049 0 0 1 4.951,-0.1 z m 49.336,-51.281 a 2.122,2.122 0 1 1 -4.244,0 2.122,2.122 0 0 1 4.244,0 z m -103.799,26.878 a 1.945,1.945 0 1 1 -3.89,0 1.945,1.945 0 0 1 3.89,0 z m 79.396,-34.305 a 2.4750002,2.4750002 0 1 1 -4.95,0.002 2.4750002,2.4750002 0 0 1 4.95,-0.002 z" style="isolation:isolate;fill:#111111"/>
    </g>
   </g>
   <g>
    <path d="m 361.9375,-212 c 145.2973,0 166.0625,20.71323 166.0625,165.875 v 116.25 c 0,145.16118 -20.7652,165.875 -166.0625,165.875 h -147.875 c -145.2973,0 -166.0625,-20.71382 -166.0625,-165.875 v -116.25 c 0,-145.16177 20.7652,-165.875 166.0625,-165.875 z" clip-path="url(#clipPath1082-3)" transform="matrix(0.5,0,0,0.5,-18.432,166.43199)" style="opacity:0.4;fill:none;stroke:url(#linearGradient1108);stroke-width:8;stroke-linecap:round;stroke-linejoin:round"/>
   </g>
  </g>
 </g>
</svg>
