<?xml version="1.0" encoding="UTF-8" standalone="no"?>
<svg
   xmlns:dc="http://purl.org/dc/elements/1.1/"
   xmlns:cc="http://creativecommons.org/ns#"
   xmlns:rdf="http://www.w3.org/1999/02/22-rdf-syntax-ns#"
   xmlns:svg="http://www.w3.org/2000/svg"
   xmlns="http://www.w3.org/2000/svg"
   xmlns:sodipodi="http://sodipodi.sourceforge.net/DTD/sodipodi-0.dtd"
   xmlns:inkscape="http://www.inkscape.org/namespaces/inkscape"
   width="128"
   height="128"
   version="1"
   id="svg12"
   sodipodi:docname="skype.svg"
   inkscape:version="0.92.3 (2405546, 2018-03-11)">
  <metadata
     id="metadata18">
    <rdf:RDF>
      <cc:Work
         rdf:about="">
        <dc:format>image/svg+xml</dc:format>
        <dc:type
           rdf:resource="http://purl.org/dc/dcmitype/StillImage" />
        <dc:title></dc:title>
      </cc:Work>
    </rdf:RDF>
  </metadata>
  <defs
     id="defs16" />
  <sodipodi:namedview
     pagecolor="#ffffff"
     bordercolor="#666666"
     borderopacity="1"
     objecttolerance="10"
     gridtolerance="10"
     guidetolerance="10"
     inkscape:pageopacity="0"
     inkscape:pageshadow="2"
     inkscape:window-width="1920"
     inkscape:window-height="1009"
     id="namedview14"
     showgrid="false"
     inkscape:zoom="3.6875"
     inkscape:cx="32"
     inkscape:cy="32"
     inkscape:window-x="0"
     inkscape:window-y="34"
     inkscape:window-maximized="1"
     inkscape:current-layer="svg12" />
  <path
     style="opacity:0.2;stroke-width:2.10521126"
     d="m 4.9285036,36.466653 c -0.055999,0.774711 -0.1149445,1.553633 -0.1149445,2.345188 0,5.032261 1.216214,9.886001 3.289369,14.144393 C 8.264762,51.914624 8.3887339,50.861142 8.6045543,49.831321 6.4736757,45.852501 5.2067686,41.250543 4.9284615,36.467958 Z M 120.01537,63.661576 c -0.12172,3.282801 -0.45969,6.501688 -1.11836,9.62958 0.18555,0.345338 0.3202,0.723687 0.49341,1.077278 0.43132,-2.803697 0.7319,-5.647397 0.7319,-8.576988 0,-0.719303 -0.0801,-1.41705 -0.10691,-2.12987 z M 7.4757912,63.719133 c -0.02581,0.688399 -0.1069069,1.358231 -0.1069069,2.05585 0,31.124475 25.2471977,56.372947 56.4192587,56.372947 4.023745,0 7.917643,-0.42711 11.709943,-1.22532 4.521963,2.44202 9.738638,3.8062 15.224779,3.8062 17.683645,0 31.982145,-14.31112 31.982145,-31.973713 0,-0.631564 -0.08,-1.246285 -0.11368,-1.873638 -1.19997,16.567901 -14.97216,29.636951 -31.868465,29.636951 -5.489088,0 -10.703237,-1.36298 -15.22141,-3.80744 -3.792385,0.79819 -7.686493,1.22529 -11.709943,1.22529 -30.444507,0 -55.1687721,-24.099442 -56.3139988,-54.217212 z"
     id="path2"
     inkscape:connector-curvature="0" />
  <path
     style="fill:#2fa4ff;stroke-width:2.10521126;fill-opacity:1"
     d="m 36.794859,4.7329398 c -17.682806,0 -31.9812991,14.3128072 -31.9812991,31.9728772 0,5.455828 1.3835771,10.734818 3.7923847,15.233621 -0.7984168,3.809521 -1.2384449,7.686913 -1.2384449,11.72805 0,31.124485 25.2493023,56.372932 56.4234693,56.372932 4.023745,0 7.92059,-0.42628 11.71289,-1.22445 4.517752,2.44202 9.730217,3.80618 15.216357,3.80618 17.683654,0 31.982144,-14.31112 31.982144,-31.973717 0,-5.492033 -1.38358,-10.734809 -3.81053,-15.251708 0.79837,-3.791385 1.2248,-7.686924 1.2248,-11.709956 0,-31.106378 -25.249303,-56.3729433 -56.385576,-56.3729433 -4.041892,0 -7.938695,0.4081625 -11.730995,1.2245087 C 47.499991,6.130158 42.219738,4.7288136 36.762229,4.7288136"
     id="path4"
     inkscape:connector-curvature="0" />
  <path
     style="opacity:0.2;stroke-width:2.10521126"
     d="m 64.824282,32.100897 c 16.618841,0 25.195411,8.77951 25.195411,13.932187 0,5.169942 -2.473775,5.943391 -6.552635,5.943391 -7.926484,0 -4.681956,-9.552959 -19.529064,-9.552959 -4.913106,0 -11.050594,2.247549 -11.050594,7.988797 0,4.615434 5.435615,6.313064 15.03068,8.680988 14.462698,3.873562 25.312879,7.738702 25.312879,21.018276 0,12.89223 -10.496508,19.355186 -27.119138,19.355186 -16.618841,0 -27.232817,-9.939902 -27.232817,-15.092575 0,-5.152673 1.955895,-6.446115 6.034754,-6.446115 7.939116,0 6.869256,10.842175 21.715941,10.842175 4.930371,0 12.206349,-2.247545 12.206349,-8.006056 0,-4.598181 -0.385209,-6.192647 -10.917968,-9.032977 -11.250169,-1.528373 -29.422223,-5.187203 -29.422223,-19.224652 0,-12.8918 9.730217,-20.394719 26.348635,-20.394719"
     id="path6"
     inkscape:connector-curvature="0" />
  <path
     style="fill:#ffffff;stroke-width:2.10521126"
     d="m 64.824282,29.995294 c 16.618841,0 25.195411,8.77951 25.195411,13.93219 0,5.16994 -2.473775,5.943388 -6.552635,5.943388 -7.926484,0 -4.681956,-9.552958 -19.529064,-9.552958 -4.913106,0 -11.050594,2.247548 -11.050594,7.988798 0,4.615432 5.435615,6.313062 15.03068,8.680986 14.462698,3.873562 25.312879,7.738702 25.312879,21.018289 0,12.892208 -10.496508,19.355165 -27.119138,19.355165 -16.618841,0 -27.232817,-9.939903 -27.232817,-15.092576 0,-5.152673 1.955895,-6.446114 6.034754,-6.446114 7.939116,0 6.869256,10.842196 21.715941,10.842196 4.930371,0 12.206349,-2.247566 12.206349,-8.006077 0,-4.59816 -0.385209,-6.192626 -10.917968,-9.032969 -11.250169,-1.528373 -29.422223,-5.187202 -29.422223,-19.22465 0,-12.891802 9.730217,-20.394721 26.348635,-20.394721"
     id="path8"
     inkscape:connector-curvature="0" />
</svg>
