<?xml version="1.0" encoding="UTF-8" standalone="no"?>
<svg
   xmlns:dc="http://purl.org/dc/elements/1.1/"
   xmlns:cc="http://creativecommons.org/ns#"
   xmlns:rdf="http://www.w3.org/1999/02/22-rdf-syntax-ns#"
   xmlns:svg="http://www.w3.org/2000/svg"
   xmlns="http://www.w3.org/2000/svg"
   xmlns:xlink="http://www.w3.org/1999/xlink"
   xmlns:sodipodi="http://sodipodi.sourceforge.net/DTD/sodipodi-0.dtd"
   xmlns:inkscape="http://www.inkscape.org/namespaces/inkscape"
   width="128"
   height="128"
   version="1.0"
   id="svg75"
   sodipodi:docname="slack.svg"
   inkscape:version="0.92.3 (2405546, 2018-03-11)">
  <metadata
     id="metadata79">
    <rdf:RDF>
      <cc:Work
         rdf:about="">
        <dc:format>image/svg+xml</dc:format>
        <dc:type
           rdf:resource="http://purl.org/dc/dcmitype/StillImage" />
        <dc:title></dc:title>
      </cc:Work>
    </rdf:RDF>
  </metadata>
  <sodipodi:namedview
     pagecolor="#ffffff"
     bordercolor="#666666"
     borderopacity="1"
     objecttolerance="10"
     gridtolerance="10"
     guidetolerance="10"
     inkscape:pageopacity="0"
     inkscape:pageshadow="2"
     inkscape:window-width="1920"
     inkscape:window-height="1009"
     id="namedview77"
     showgrid="false"
     inkscape:zoom="3.6265081"
     inkscape:cx="47.710636"
     inkscape:cy="62.17578"
     inkscape:window-x="0"
     inkscape:window-y="34"
     inkscape:window-maximized="1"
     inkscape:current-layer="g73"
     showguides="false" />
  <defs
     id="defs24">
    <linearGradient
       id="a">
      <stop
         offset="0"
         stop-color="#68676b"
         id="stop2" />
      <stop
         offset=".8"
         stop-color="#424048"
         id="stop4" />
      <stop
         offset="1"
         stop-color="#241f31"
         id="stop6" />
    </linearGradient>
    <radialGradient
       xlink:href="#a"
       id="d"
       gradientUnits="userSpaceOnUse"
       gradientTransform="matrix(1.34416 .0006 -.00062 1.38763 -121.22 -718.103)"
       cx="279.422"
       cy="446.483"
       fx="279.422"
       fy="446.483"
       r="224" />
    <linearGradient
       xlink:href="#b"
       id="e"
       gradientUnits="userSpaceOnUse"
       gradientTransform="matrix(1.0015 0 0 .99993 72.09 56.015)"
       x1="43.844"
       y1="234"
       x2="-60"
       y2="234" />
    <linearGradient
       id="b">
      <stop
         offset="0"
         stop-color="#d5d3cf"
         id="stop11" />
      <stop
         offset=".038"
         stop-color="#e3e2df"
         id="stop13" />
      <stop
         offset=".077"
         stop-color="#c0bfbc"
         id="stop15" />
      <stop
         offset=".923"
         stop-color="#c0bfbc"
         id="stop17" />
      <stop
         offset=".962"
         stop-color="#e3e2df"
         id="stop19" />
      <stop
         offset="1"
         stop-color="#d5d3cf"
         id="stop21" />
    </linearGradient>
    <linearGradient
       gradientTransform="matrix(0.54625232,0,0,0.54625232,-6.0941965,-68.413544)"
       id="linearGradient1007"
       x1="160.30499"
       x2="161.33"
       y1="240.13901"
       y2="135.57899"
       gradientUnits="userSpaceOnUse"
       xlink:href="#linearGradient1018" />
    <linearGradient
       id="linearGradient1018">
      <stop
         style="stop-color:#37a6e6"
         offset="0"
         id="stop2-3" />
      <stop
         style="stop-color:#1a7fd4"
         offset="1"
         id="stop4-6" />
    </linearGradient>
  </defs>
  <g
     transform="translate(0 -172)"
     id="g73">
    <rect
       ry="8"
       rx="8"
       height="48"
       width="104"
       x="12"
       y="240"
       fill="url(#e)"
       id="rect33" />
    <g
       transform="rotate(-30,300.95843,495.18058)"
       id="g1710"
       style="display:inline;enable-background:new" />
    <text
       id="text1204"
       y="363.83066"
       x="-19.422894"
       style="font-style:normal;font-variant:normal;font-weight:normal;font-stretch:normal;font-size:26.66666603px;line-height:125%;font-family:Cantarell;-inkscape-font-specification:Cantarell;letter-spacing:0px;word-spacing:0px;display:inline;fill:#000000;fill-opacity:1;stroke:none;enable-background:new"
       xml:space="preserve"><tspan
         y="371.73599"
         x="-19.422894"
         id="tspan1202" /></text>
    <g
       transform="matrix(1.7748031,0,0,1.7748031,138.82397,-236.88942)"
       id="g3629">
      <rect
         transform="rotate(-16)"
         x="-130.69"
         y="222.85001"
         width="35.650002"
         height="35.650002"
         style="fill:#f4f1ef;stroke:#f4f1ef;stroke-width:3.30727696"
         id="rect3611" />
      <path
         style="fill:#48c39e;stroke-width:0.47916666"
         d="m -115.45117,18.361328 v 25.378906 42 c 0,1.108 0.2232,2.163344 0.62695,3.121094 0.40282,0.955548 0.98633,1.813183 1.70703,2.535156 0.007,0.0063 0.016,0.01131 0.0234,0.01758 0.71967,0.715592 1.5728,1.298466 2.52344,1.699219 0.50793,0.214125 1.09852,0.225885 1.65429,0.332031 8.36763,-2.054099 16.425129,-5.811397 23.773442,-13.472656 l -17.441362,-60.82422 c -4.56438,-0.515923 -8.74633,-0.679347 -12.86719,-0.78711 z"
         id="path3613"
         transform="matrix(0.56344278,0,0,0.56344278,-6.4079221,239.54724)"
         inkscape:connector-curvature="0" />
      <path
         style="fill:#d81768;stroke-width:0.47916666"
         d="m -86.521484,93.740234 h 23.070312 44 c 1.108,0 2.161391,-0.223203 3.119141,-0.626953 0.951148,-0.400967 1.80548,-0.9831 2.52539,-1.699219 0.0071,-0.0059 0.01444,-0.01163 0.02149,-0.01758 0.720702,-0.721973 1.304209,-1.579608 1.707031,-2.535156 0.40375,-0.95775 0.626953,-2.013094 0.626953,-3.121094 v -5.011718 c -2.054951,-6.738228 -5.768848,-13.06074 -12.865234,-18.539063 h -0.002 l -60.822266,17.441406 c -1.1948,4.887392 -1.491168,9.549323 -1.380859,14.109375 z"
         id="path3615"
         transform="matrix(0.56344278,0,0,0.56344278,-6.4079221,239.54724)"
         inkscape:connector-curvature="0" />
      <path
         style="fill:#ecb524;stroke-width:0.47916666"
         d="m -13.806641,-3.9335938 c -0.71991,-0.7161183 -1.574242,-1.2982517 -2.52539,-1.6992187 -0.95775,-0.40375 -2.011141,-0.6269531 -3.119141,-0.6269531 h -14.169922 c -3.147522,1.9855425 -5.938761,4.4799207 -8.138672,7.8203125 l 17.44336,60.8242191 c 4.497985,0.928586 8.731391,1.133717 12.865234,1.0625 V 43.740234 1.7402344 c 0,-1.10800002 -0.223203,-2.16139065 -0.626953,-3.1191406 -0.402822,-0.9555495 -0.986328,-1.8151358 -1.707031,-2.5371094 -0.007,-0.00595 -0.01442,-0.011638 -0.02149,-0.017578 z"
         id="path4280"
         transform="matrix(0.56344278,0,0,0.56344278,-6.4079221,239.54724)"
         inkscape:connector-curvature="0" />
      <path
         style="fill:#81d2e0;stroke-width:0.47916666"
         d="m -39.589844,-6.2597656 h -67.861326 c -1.108,0 -2.16139,0.2232031 -3.11914,0.6269531 -0.95064,0.4007536 -1.80377,0.9836273 -2.52344,1.6992187 -0.007,0.00627 -0.016,0.011297 -0.0234,0.017578 -0.472,0.472831 -0.77532,1.0828841 -1.11719,1.6621094 2.96729,7.2808611 6.82425,14.4078804 11.6504,21.3691404 L -41.761719,1.671875 c 1.113188,-2.8064668 1.733953,-5.4067502 2.171875,-7.9316406 z"
         id="path4272"
         transform="matrix(0.56344278,0,0,0.56344278,-6.4079221,239.54724)"
         inkscape:connector-curvature="0" />
      <path
         style="fill:#390f39;stroke-width:0.47916666"
         d="m -114.92969,88.339844 c 0.0572,0.165246 0.038,0.361417 0.10547,0.521484 0.40282,0.955548 0.98633,1.813183 1.70703,2.535156 0.007,0.0063 0.016,0.01131 0.0234,0.01758 0.71967,0.715592 1.5728,1.298466 2.52344,1.699219 0.95775,0.40375 2.01114,0.626953 3.11914,0.626953 h 26.310545 l -4,-13.941406 z"
         id="path3621"
         transform="matrix(0.56344278,0,0,0.56344278,-6.4079221,239.54724)"
         inkscape:connector-curvature="0" />
      <path
         style="fill:#20a48e;stroke-width:0.47916666"
         d="m -109.72852,-5.8027344 c -0.27171,0.081813 -0.58327,0.060939 -0.84179,0.1699219 -0.95064,0.4007536 -1.80377,0.9836273 -2.52344,1.6992187 -0.007,0.00627 -0.016,0.011297 -0.0234,0.017578 -0.7207,0.7219736 -1.30421,1.5815599 -1.70703,2.5371094 -0.40375,0.95774995 -0.62695,2.01114058 -0.62695,3.1191406 V 22.806641 l 12.86719,-3.691407 z"
         id="path3623"
         transform="matrix(0.56344278,0,0,0.56344278,-6.4079221,239.54724)"
         inkscape:connector-curvature="0" />
      <path
         style="fill:#77971f;stroke-width:0.47916666"
         d="m -16.3125,-5.6210938 c -0.0071,-0.00302 -0.01242,-0.00872 -0.01953,-0.011719 -0.95775,-0.40375 -2.011141,-0.6269531 -3.119141,-0.6269531 h -24.583984 l 2.27539,7.9316406 z"
         id="path4277"
         transform="matrix(0.56344278,0,0,0.56344278,-6.4079221,239.54724)"
         inkscape:connector-curvature="0" />
      <path
         style="fill:#d5100d;stroke-width:0.47916666"
         d="m -15.632812,92.642578 c 0.647448,-0.359028 1.305617,-0.710703 1.826171,-1.228516 0.0071,-0.0059 0.01444,-0.01163 0.02149,-0.01758 0.720702,-0.721973 1.304209,-1.579608 1.707031,-2.535156 0.40375,-0.95775 0.626953,-2.013094 0.626953,-3.121094 V 58.660156 l -12.867187,3.689453 z"
         id="path3627"
         transform="matrix(0.56344278,0,0,0.56344278,-6.4079221,239.54724)"
         inkscape:connector-curvature="0" />
    </g>
    <path
       d="m 79.406791,240.28824 c -4.2e-5,3.94976 -1.300724,6.97838 -3.902056,9.0857 -2.582399,2.10782 -6.398898,3.16167 -11.449837,3.16167 -3.493817,0 -6.531968,-0.57901 -9.114122,-1.73726 -2.563424,-1.15825 -4.652143,-3.02863 -6.266243,-5.61119 l 6.180397,-4.89911 c 2.656788,2.97401 5.916879,4.03028 9.370658,4.30487 2.183594,0 3.882997,-0.36945 5.098174,-1.111 1.234184,-0.75907 1.938751,-1.08596 1.938793,-2.62407 -4.2e-5,-0.87318 -0.305964,-1.60425 -0.742548,-2.19319 -0.417802,-0.58832 -1.053847,-1.09171 -1.908297,-1.50937 -0.854482,-0.43696 -2.335555,-0.93029 -4.443089,-1.48107 -2.050684,-0.55104 -4.809364,-1.1011 -6.632231,-1.65186 -1.80385,-0.56971 -3.370384,-1.30068 -4.699369,-2.19319 -1.310169,-0.8925 -2.344967,-2.01295 -3.104542,-3.36089 -0.759458,-1.34835 -1.139266,-3.04748 -1.139266,-5.09857 0,-3.74035 1.262689,-6.65517 3.788121,-8.74365 2.525432,-2.10781 6.964506,-3.16167 11.673735,-3.16167 6.816593,0 11.639586,2.33576 14.46898,7.00671 l -6.123718,3.96381 c -1.082309,-1.67079 -2.297571,-2.86716 -3.645734,-3.58884 -1.348151,-0.72103 -2.952603,-1.0822 -4.813549,-1.0822 -4.026267,0.0543 -6.396182,1.04563 -7.116539,4.80247 0,1.27242 0.607571,2.45567 1.822855,3.13905 1.215263,0.66441 4.15429,1.33895 7.173562,2.02236 1.670896,0.43696 3.322871,0.91145 4.955659,1.42401 1.632946,0.49363 3.085556,1.18689 4.357647,2.07938 1.291206,0.8925 2.326035,2.06016 3.104585,3.50304 0.778465,1.44314 1.16774,3.29466 1.167782,5.55406"
       style="fill:#5a3856;stroke-width:1.77661407"
       id="path3631"
       inkscape:connector-curvature="0" />
  </g>
</svg>
