<svg width="256" height="256" version="1.1" viewBox="0 0 67.73 67.73" xmlns="http://www.w3.org/2000/svg" xmlns:xlink="http://www.w3.org/1999/xlink">
 <defs>
  <linearGradient id="linearGradient1108" x1="296" x2="296" y1="-212" y2="236" gradientUnits="userSpaceOnUse">
   <stop style="stop-color:#ffffff" offset="0"/>
   <stop style="stop-color:#ffffff;stop-opacity:.09803922" offset=".125"/>
   <stop style="stop-color:#000000;stop-opacity:.09803922" offset=".925"/>
   <stop style="stop-color:#000000;stop-opacity:.49803922" offset="1"/>
  </linearGradient>
  <clipPath id="clipPath1082-3-452">
   <path d="M 361.9375,-212 C 507.2348,-212 528,-191.28677 528,-46.125 V 70.125 C 528,215.28618 507.2348,236 361.9375,236 H 214.0625 C 68.7652,236 48,215.28618 48,70.125 V -46.125 C 48,-191.28677 68.7652,-212 214.0625,-212 Z" style="fill:#8c59d9"/>
  </clipPath>
  <filter id="filter1112" x="-.02" y="-.03" width="1.046" height="1.05" style="color-interpolation-filters:sRGB">
   <feGaussianBlur stdDeviation="2.32"/>
  </filter>
  <filter id="filter4569" x="-.01" y="-.01" width="1.023" height="1.025" style="color-interpolation-filters:sRGB">
   <feGaussianBlur stdDeviation="1.16"/>
  </filter>
  <filter id="filter954" x="-.06" y="-.04" width="1.11" height="1.085" style="color-interpolation-filters:sRGB">
   <feGaussianBlur stdDeviation=".85"/>
  </filter>
 </defs>
 <g transform="translate(0,-229.26666)">
  <path transform="matrix(.26970778 0 0 .26970778 -7.1289177 220.56049)" d="m188.96876 43.999995c72.64865 0 83.03125 10.356615 83.03125 82.937505v58.125c0 72.58059-10.3826 82.9375-83.03125 82.9375h-73.9375c-72.648654 0-83.031254-10.35691-83.031254-82.9375v-58.125c0-72.58089 10.3826-82.937505 83.031254-82.937505z" style="filter:url(#filter4569);opacity:.1"/>
  <path transform="matrix(.26970778 0 0 .26970778 -7.1289177 220.56049)" d="m188.96876 45.999995c72.64865 0 83.03125 10.356615 83.03125 82.937505v58.125c0 72.58059-10.3826 82.9375-83.03125 82.9375h-73.9375c-72.648654 0-83.031254-10.35691-83.031254-82.9375v-58.125c0-72.58089 10.3826-82.937505 83.031254-82.937505z" style="filter:url(#filter1112);opacity:.2"/>
  <path d="m43.837426 232.42763c19.593907 0 22.394175 2.79326 22.394175 22.36889v15.67677c0 19.57555-2.800268 22.36888-22.394175 22.36888h-19.94152c-19.593906 0-22.394174-2.79333-22.394174-22.36888v-15.67677c0-19.57563 2.8002681-22.36889 22.394174-22.36889z" style="fill:#20b293"/>
  <path transform="matrix(.13485389 0 0 .13485389 -4.9712557 261.01666)" d="M 361.9375,-212 C 507.2348,-212 528,-191.28677 528,-46.125 V 70.125 C 528,215.28618 507.2348,236 361.9375,236 H 214.0625 C 68.7652,236 48,215.28618 48,70.125 V -46.125 C 48,-191.28677 68.7652,-212 214.0625,-212 Z" clip-path="url(#clipPath1082-3-452)" style="fill:none;opacity:.4;stroke-linecap:round;stroke-linejoin:round;stroke-width:8;stroke:url(#linearGradient1108)"/>
  <path d="m31.921369 238.64291v5.2913a18.804522 18.804522 0 0 0-16.575538 15.45854h3.974176a14.913931 14.913931 0 0 1 14.546658-11.67176 14.913931 14.913931 0 0 1 14.536526 11.67176h3.966577a18.804522 18.804522 0 0 0-16.557808-15.45344v-5.2964zm1.945296 12.96867a11.023341 11.023341 0 0 0-11.023343 11.02334 11.023341 11.023341 0 0 0 0.182385 1.94527h17.695098a7.1327495 7.1327495 0 0 1-6.854125 5.18744 7.1327495 7.1327495 0 0 1-5.493942-2.59368h-4.539023a11.023341 11.023341 0 0 0 10.032965 6.48427 11.023341 11.023341 0 0 0 11.023338-11.0233 11.023341 11.023341 0 0 0-0.182386-1.94531h-17.695092a7.1327495 7.1327495 0 0 1 6.854125-5.18744 7.1327495 7.1327495 0 0 1 5.49394 2.59369h4.539019a11.023341 11.023341 0 0 0-10.032959-6.48428zm-18.503105 14.26546a18.804522 18.804522 0 0 0 16.557809 15.45346v5.2964h3.890591v-5.2913a18.804522 18.804522 0 0 0 16.575538-15.45856h-3.974177a14.913931 14.913931 0 0 1-14.546656 11.67178 14.913931 14.913931 0 0 1-14.536526-11.67178z" style="fill:#110000;filter:url(#filter954);opacity:.3"/>
  <path d="m31.921369 238.64291v5.2913a18.804522 18.804522 0 0 0-16.575538 15.45854h3.974176a14.913931 14.913931 0 0 1 14.546658-11.67176 14.913931 14.913931 0 0 1 14.536526 11.67176h3.966577a18.804522 18.804522 0 0 0-16.557808-15.45344v-5.2964zm1.945296 12.96867a11.023341 11.023341 0 0 0-11.023343 11.02334 11.023341 11.023341 0 0 0 0.182385 1.94527h17.695098a7.1327495 7.1327495 0 0 1-6.854125 5.18744 7.1327495 7.1327495 0 0 1-5.493942-2.59368h-4.539023a11.023341 11.023341 0 0 0 10.032965 6.48427 11.023341 11.023341 0 0 0 11.023338-11.0233 11.023341 11.023341 0 0 0-0.182386-1.94531h-17.695092a7.1327495 7.1327495 0 0 1 6.854125-5.18744 7.1327495 7.1327495 0 0 1 5.49394 2.59369h4.539019a11.023341 11.023341 0 0 0-10.032959-6.48428zm-18.503105 14.26546a18.804522 18.804522 0 0 0 16.557809 15.45346v5.2964h3.890591v-5.2913a18.804522 18.804522 0 0 0 16.575538-15.45856h-3.974177a14.913931 14.913931 0 0 1-14.546656 11.67178 14.913931 14.913931 0 0 1-14.536526-11.67178z" style="fill:#ffffff"/>
  <path d="m33.794811 232.40484v60.41446h9.970747c19.593881 0 22.394145-2.79333 22.394145-22.36886v-15.67674c0-19.5756-2.800264-22.36886-22.394145-22.36886z" style="fill:#ffffff;opacity:.1"/>
  <path d="m23.824065 292.8193c-19.593881 0-22.394145-2.79325-22.394145-22.36886v-7.83836h64.729783v7.83836c0 19.57561-2.800264 22.36886-22.394145 22.36886z" style="fill:#ffffff;opacity:.1"/>
 </g>
</svg>
