<svg xmlns="http://www.w3.org/2000/svg" xmlns:xlink="http://www.w3.org/1999/xlink" style="enable-background:new" width="128" height="128" version="1.0" viewBox="0 0 128 128">
 <title id="title4162">
  Adwaita Icon Template
 </title>
 <defs>
  <linearGradient id="linearGradient1234">
   <stop style="stop-color:#aeadab" id="stop1230" offset="0"/>
   <stop style="stop-color:#ceccc8" id="stop1232" offset="1"/>
  </linearGradient>
  <linearGradient id="linearGradient1228">
   <stop style="stop-color:#e66100" id="stop1224" offset="0"/>
   <stop style="stop-color:#ff7800" id="stop1226" offset="1"/>
  </linearGradient>
  <linearGradient id="linearGradient1222">
   <stop id="stop1210" offset="0" style="stop-color:#9a9996"/>
   <stop style="stop-color:#c0bfbc" id="stop1212" offset=".038"/>
   <stop id="stop1214" offset=".077" style="stop-color:#77767b"/>
   <stop style="stop-color:#77767b" id="stop1216" offset=".923"/>
   <stop id="stop1218" offset=".962" style="stop-color:#c0bfbc"/>
   <stop id="stop1220" offset="1" style="stop-color:#9a9996"/>
  </linearGradient>
  <linearGradient id="linearGradient1339">
   <stop id="stop1335" offset="0" style="stop-color:#5e5c64"/>
   <stop id="stop1337" offset="1" style="stop-color:#77767b"/>
  </linearGradient>
  <linearGradient id="linearGradient1820" x1="12" x2="116" y1="254" y2="254" gradientTransform="matrix(1.0769231,0,0,1.0666667,-4.92308,-14.933327)" gradientUnits="userSpaceOnUse" xlink:href="#linearGradient1222"/>
  <linearGradient id="linearGradient1822" x1="19" x2="31" y1="209" y2="209" gradientTransform="rotate(90,20,213)" gradientUnits="userSpaceOnUse" xlink:href="#linearGradient1339"/>
  <linearGradient id="linearGradient1824" x1="19" x2="31" y1="209" y2="209" gradientTransform="rotate(90,36,273)" gradientUnits="userSpaceOnUse" xlink:href="#linearGradient1339"/>
  <linearGradient id="linearGradient1826" x1="17" x2="31" y1="209" y2="209" gradientTransform="rotate(90,10,247)" gradientUnits="userSpaceOnUse" xlink:href="#linearGradient1234"/>
  <linearGradient id="linearGradient1828" x1="19" x2="31" y1="209" y2="209" gradientTransform="rotate(90,30,223)" gradientUnits="userSpaceOnUse" xlink:href="#linearGradient1339"/>
  <linearGradient id="linearGradient1830" x1="19" x2="31" y1="209" y2="209" gradientTransform="rotate(90,40,233)" gradientUnits="userSpaceOnUse" xlink:href="#linearGradient1339"/>
  <linearGradient id="linearGradient1832" x1="19" x2="31" y1="209" y2="209" gradientTransform="rotate(90,50,243)" gradientUnits="userSpaceOnUse" xlink:href="#linearGradient1339"/>
  <linearGradient id="linearGradient1834" x1="19" x2="31" y1="209" y2="209" gradientTransform="rotate(90,60,253)" gradientUnits="userSpaceOnUse" xlink:href="#linearGradient1339"/>
  <linearGradient id="linearGradient1836" x1="19" x2="31" y1="209" y2="209" gradientTransform="rotate(90,14,229)" gradientUnits="userSpaceOnUse" xlink:href="#linearGradient1339"/>
  <linearGradient id="linearGradient1838" x1="19" x2="31" y1="209" y2="209" gradientTransform="rotate(90,24,239)" gradientUnits="userSpaceOnUse" xlink:href="#linearGradient1339"/>
  <linearGradient id="linearGradient1840" x1="19" x2="31" y1="209" y2="209" gradientTransform="rotate(90,34,249)" gradientUnits="userSpaceOnUse" xlink:href="#linearGradient1339"/>
  <linearGradient id="linearGradient1842" x1="19" x2="31" y1="209" y2="209" gradientTransform="rotate(90,49,264)" gradientUnits="userSpaceOnUse" xlink:href="#linearGradient1228"/>
  <linearGradient id="linearGradient1844" x1="19" x2="31" y1="209" y2="209" gradientTransform="rotate(90,0,237)" gradientUnits="userSpaceOnUse" xlink:href="#linearGradient1339"/>
 </defs>
 <g id="layer1" transform="translate(0,-172)">
  <g id="layer9">
   <rect width="112" height="64" x="8" y="224" rx="8" ry="8" style="fill:url(#linearGradient1820)"/>
   <rect style="fill:#f6f5f4" width="112" height="84" x="8" y="200" rx="8" ry="8.842"/>
   <path d="m 21,212 h 6 c 2.216,0 3.7795,1.79499 4,4 l 1,10 c 0.2205,2.20501 -1.784,4 -4,4 h -8 c -2.216,0 -4.2205,-1.79499 -4,-4 l 1,-10 c 0.2205,-2.20501 1.784,-4 4,-4 z" style="fill:#3d3846"/>
   <path style="fill:url(#linearGradient1822)" d="m 31,216 v 4 c 0,2.216 -1.784,4 -4,4 h -6 c -2.216,0 -4,-1.784 -4,-4 v -4 c 0,-2.216 1.784,-4 4,-4 h 6 c 2.216,0 4,1.784 4,4 z"/>
   <path style="fill:#3d3846" d="m 41,212 h 6 c 2.216,0 3.7795,1.79499 4,4 l 1,10 c 0.2205,2.20501 -1.784,4 -4,4 h -8 c -2.216,0 -4.2205,-1.79499 -4,-4 l 1,-10 c 0.2205,-2.20501 1.784,-4 4,-4 z"/>
   <path d="m 61,212 h 6 c 2.216,0 3.7795,1.79499 4,4 l 1,10 c 0.2205,2.20501 -1.784,4 -4,4 h -8 c -2.216,0 -4.2205,-1.79499 -4,-4 l 1,-10 c 0.2205,-2.20501 1.784,-4 4,-4 z" style="fill:#3d3846"/>
   <path style="fill:#3d3846" d="m 81,212 h 6 c 2.216,0 3.7795,1.79499 4,4 l 1,10 c 0.2205,2.20501 -1.784,4 -4,4 h -8 c -2.216,0 -4.2205,-1.79499 -4,-4 l 1,-10 c 0.2205,-2.20501 1.784,-4 4,-4 z"/>
   <path d="m 101,212 h 6 c 2.216,0 3.7795,1.79499 4,4 l 1,10 c 0.2205,2.20501 -1.784,4 -4,4 h -8 c -2.216,0 -4.2205,-1.79499 -4,-4 l 1,-10 c 0.2205,-2.20501 1.784,-4 4,-4 z" style="fill:#3d3846"/>
   <path d="m 31,234 h 6 c 2.216,0 3.7795,1.79499 4,4 l 1,10 c 0.2205,2.20501 -1.784,4 -4,4 h -8 c -2.216,0 -4.2205,-1.79499 -4,-4 l 1,-10 c 0.2205,-2.20501 1.784,-4 4,-4 z" style="fill:#3d3846"/>
   <path style="fill:#3d3846" d="m 51,234 h 6 c 2.216,0 3.7795,1.79499 4,4 l 1,10 c 0.2205,2.20501 -1.784,4 -4,4 h -8 c -2.216,0 -4.2205,-1.79499 -4,-4 l 1,-10 c 0.2205,-2.20501 1.784,-4 4,-4 z"/>
   <path d="m 71,234 h 6 c 2.216,0 3.7795,1.79499 4,4 l 1,10 c 0.2205,2.20501 -1.784,4 -4,4 h -8 c -2.216,0 -4.2205,-1.79499 -4,-4 l 1,-10 c 0.2205,-2.20501 1.784,-4 4,-4 z" style="fill:#3d3846"/>
   <path style="fill:#c64600" d="m 91,234 h 7 c 2.216,0 3.7795,1.79499 4,4 l 1,10 c 0.2205,2.20501 -1.784,4 -4,4 h -9 c -2.216,0 -4.220501,-1.79499 -4,-4 l 1,-10 c 0.220501,-2.20501 1.784,-4 4,-4 z"/>
   <path style="fill:#3d3846" d="m 25,256 h 6 c 2.216,0 3.7795,1.79499 4,4 l 1,10 c 0.2205,2.20501 -1.784,4 -4,4 h -8 c -2.216,0 -4.2205,-1.79499 -4,-4 l 1,-10 c 0.2205,-2.20501 1.784,-4 4,-4 z"/>
   <path d="m 97,256 h 6 c 2.216,0 3.7795,1.79499 4,4 l 1,10 c 0.2205,2.20501 -1.784,4 -4,4 h -8 c -2.216,0 -4.2205,-1.79499 -4,-4 l 1,-10 c 0.2205,-2.20501 1.784,-4 4,-4 z" style="fill:#3d3846"/>
   <path style="fill:url(#linearGradient1824)" d="m 107,260 v 4 c 0,2.216 -1.784,4 -4,4 h -6 c -2.216,0 -4,-1.784 -4,-4 v -4 c 0,-2.216 1.784,-4 4,-4 h 6 c 2.216,0 4,1.784 4,4 z"/>
   <path style="fill:#828186" d="m 45,256 h 38 c 2.216,0 3.7795,1.79499 4,4 l 1,10 c 0.2205,2.20501 -1.784,4 -4,4 H 44 c -2.216,0 -4.2205,-1.79499 -4,-4 l 1,-10 c 0.2205,-2.20501 1.784,-4 4,-4 z"/>
   <path d="m 87,260 v 4 c 0,2.216 -1.784,4 -4,4 H 45 c -2.216,0 -4,-1.784 -4,-4 v -4 c 0,-2.216 1.784,-4 4,-4 h 38 c 2.216,0 4,1.784 4,4 z" style="fill:url(#linearGradient1826)"/>
   <path d="m 51,216 v 4 c 0,2.216 -1.784,4 -4,4 h -6 c -2.216,0 -4,-1.784 -4,-4 v -4 c 0,-2.216 1.784,-4 4,-4 h 6 c 2.216,0 4,1.784 4,4 z" style="fill:url(#linearGradient1828)"/>
   <path d="m 71,216 v 4 c 0,2.216 -1.784,4 -4,4 h -6 c -2.216,0 -4,-1.784 -4,-4 v -4 c 0,-2.216 1.784,-4 4,-4 h 6 c 2.216,0 4,1.784 4,4 z" style="fill:url(#linearGradient1830)"/>
   <path style="fill:url(#linearGradient1832)" d="m 91,216 v 4 c 0,2.216 -1.784,4 -4,4 h -6 c -2.216,0 -4,-1.784 -4,-4 v -4 c 0,-2.216 1.784,-4 4,-4 h 6 c 2.216,0 4,1.784 4,4 z"/>
   <path d="m 111,216 v 4 c 0,2.216 -1.784,4 -4,4 h -6 c -2.216,0 -4,-1.784 -4,-4 v -4 c 0,-2.216 1.784,-4 4,-4 h 6 c 2.216,0 4,1.784 4,4 z" style="fill:url(#linearGradient1834)"/>
   <path style="fill:url(#linearGradient1836)" d="m 41,238 v 4 c 0,2.216 -1.784,4 -4,4 h -6 c -2.216,0 -4,-1.784 -4,-4 v -4 c 0,-2.216 1.784,-4 4,-4 h 6 c 2.216,0 4,1.784 4,4 z"/>
   <path style="fill:url(#linearGradient1838)" d="m 61,238 v 4 c 0,2.216 -1.784,4 -4,4 h -6 c -2.216,0 -4,-1.784 -4,-4 v -4 c 0,-2.216 1.784,-4 4,-4 h 6 c 2.216,0 4,1.784 4,4 z"/>
   <path d="m 81,238 v 4 c 0,2.216 -1.784,4 -4,4 h -6 c -2.216,0 -4,-1.784 -4,-4 v -4 c 0,-2.216 1.784,-4 4,-4 h 6 c 2.216,0 4,1.784 4,4 z" style="fill:url(#linearGradient1840)"/>
   <path style="fill:url(#linearGradient1842)" d="m 102,238 v 4 c 0,2.216 -1.784,4 -4,4 h -7 c -2.216,0 -4,-1.784 -4,-4 v -4 c 0,-2.216 1.784,-4 4,-4 h 7 c 2.216,0 4,1.784 4,4 z"/>
   <path d="m 35,260 v 4 c 0,2.216 -1.784,4 -4,4 h -6 c -2.216,0 -4,-1.784 -4,-4 v -4 c 0,-2.216 1.784,-4 4,-4 h 6 c 2.216,0 4,1.784 4,4 z" style="fill:url(#linearGradient1844)"/>
  </g>
 </g>
</svg>
