<?xml version="1.0" encoding="UTF-8" standalone="no"?>
<svg
   xmlns:dc="http://purl.org/dc/elements/1.1/"
   xmlns:cc="http://creativecommons.org/ns#"
   xmlns:rdf="http://www.w3.org/1999/02/22-rdf-syntax-ns#"
   xmlns:svg="http://www.w3.org/2000/svg"
   xmlns="http://www.w3.org/2000/svg"
   xmlns:xlink="http://www.w3.org/1999/xlink"
   xmlns:sodipodi="http://sodipodi.sourceforge.net/DTD/sodipodi-0.dtd"
   xmlns:inkscape="http://www.inkscape.org/namespaces/inkscape"
   width="128"
   height="128"
   version="1.0"
   id="svg75"
   sodipodi:docname="template1.svg"
   inkscape:version="0.92.3 (2405546, 2018-03-11)">
  <metadata
     id="metadata79">
    <rdf:RDF>
      <cc:Work
         rdf:about="">
        <dc:format>image/svg+xml</dc:format>
        <dc:type
           rdf:resource="http://purl.org/dc/dcmitype/StillImage" />
        <dc:title></dc:title>
      </cc:Work>
    </rdf:RDF>
  </metadata>
  <sodipodi:namedview
     pagecolor="#ffffff"
     bordercolor="#666666"
     borderopacity="1"
     objecttolerance="10"
     gridtolerance="10"
     guidetolerance="10"
     inkscape:pageopacity="0"
     inkscape:pageshadow="2"
     inkscape:window-width="1800"
     inkscape:window-height="986"
     id="namedview77"
     showgrid="false"
     inkscape:zoom="7.6603774"
     inkscape:cx="56.218165"
     inkscape:cy="118.41657"
     inkscape:window-x="0"
     inkscape:window-y="34"
     inkscape:window-maximized="0"
     inkscape:current-layer="svg75" />
  <defs
     id="defs24">
    <linearGradient
       id="a">
      <stop
         offset="0"
         stop-color="#68676b"
         id="stop2" />
      <stop
         offset=".8"
         stop-color="#424048"
         id="stop4" />
      <stop
         offset="1"
         stop-color="#241f31"
         id="stop6" />
    </linearGradient>
    <radialGradient
       xlink:href="#a"
       id="d"
       gradientUnits="userSpaceOnUse"
       gradientTransform="matrix(1.34416 .0006 -.00062 1.38763 -121.22 -718.103)"
       cx="279.422"
       cy="446.483"
       fx="279.422"
       fy="446.483"
       r="224" />
    <linearGradient
       xlink:href="#b"
       id="e"
       gradientUnits="userSpaceOnUse"
       gradientTransform="matrix(1.0015 0 0 .99993 72.09 56.015)"
       x1="43.844"
       y1="234"
       x2="-60"
       y2="234" />
    <linearGradient
       id="b">
      <stop
         offset="0"
         stop-color="#d5d3cf"
         id="stop11" />
      <stop
         offset=".038"
         stop-color="#e3e2df"
         id="stop13" />
      <stop
         offset=".077"
         stop-color="#c0bfbc"
         id="stop15" />
      <stop
         offset=".923"
         stop-color="#c0bfbc"
         id="stop17" />
      <stop
         offset=".962"
         stop-color="#e3e2df"
         id="stop19" />
      <stop
         offset="1"
         stop-color="#d5d3cf"
         id="stop21" />
    </linearGradient>
    <clipPath
       clipPathUnits="userSpaceOnUse"
       id="d-3">
      <path
         inkscape:connector-curvature="0"
         style="fill:#e4e6e8;stroke-width:24;marker:none"
         d="M 64,-40.445 H 512 V -8.222 H 96 c -15.592,0 -32,-17.02 -32,-32.223 z"
         id="path20" />
    </clipPath>
    <clipPath
       clipPathUnits="userSpaceOnUse"
       id="e-6">
      <rect
         ry="0"
         rx="0"
         y="-40.445"
         x="64"
         height="32.222"
         width="448"
         style="fill:#e4e6e8;stroke-width:24;marker:none"
         id="rect17" />
    </clipPath>
  </defs>
  <g
     transform="translate(0 -172)"
     id="g73" />
  <rect
     width="112"
     height="82.029999"
     x="9.0098515"
     y="22.349312"
     rx="8"
     ry="8"
     id="rect25"
     style="fill:#1b1b1b;fill-opacity:1" />
  <g
     transform="translate(1.0288521,-183.59269)"
     id="g75">
    <g
       transform="matrix(0.25,0,0,-0.25,-8.019,197.917)"
       clip-path="url(#d-3)"
       id="g41">
      <rect
         style="fill:#f6f5f4;marker:none"
         width="448"
         height="56.231998"
         x="64"
         y="-48.453999"
         rx="0"
         ry="0"
         id="rect29" />
      <rect
         ry="0"
         rx="0"
         transform="matrix(0.8660254,0.5,0.5,-0.8660254,0,0)"
         y="-26.738001"
         x="62.535"
         height="135.76401"
         width="45.414001"
         style="fill:#241f31;marker:none"
         id="rect31" />
      <rect
         style="fill:#241f31;marker:none"
         width="45.414001"
         height="135.76401"
         x="149.138"
         y="23.261999"
         transform="matrix(0.8660254,0.5,0.5,-0.8660254,0,0)"
         rx="0"
         ry="0"
         id="rect33" />
      <rect
         ry="0"
         rx="0"
         transform="matrix(0.8660254,0.5,0.5,-0.8660254,0,0)"
         y="73.262001"
         x="235.74001"
         height="135.76401"
         width="45.414001"
         style="fill:#241f31;marker:none"
         id="rect35" />
      <rect
         style="fill:#241f31;marker:none"
         width="45.414001"
         height="135.76401"
         x="322.34299"
         y="123.262"
         transform="matrix(0.8660254,0.5,0.5,-0.8660254,0,0)"
         rx="0"
         ry="0"
         id="rect37" />
      <rect
         ry="0"
         rx="0"
         transform="matrix(0.8660254,0.5,0.5,-0.8660254,0,0)"
         y="173.26199"
         x="408.94501"
         height="135.76401"
         width="45.414001"
         style="fill:#241f31;marker:none"
         id="rect39" />
    </g>
    <g
       clip-path="url(#e-6)"
       transform="matrix(0.25,0,0,0.25,-8.019,218.083)"
       id="g55">
      <rect
         ry="0"
         rx="0"
         y="-48.453999"
         x="64"
         height="56.231998"
         width="448"
         style="fill:#ffffff;marker:none"
         id="rect43" />
      <path
         style="stroke-width:0.25;marker:none"
         d="M 20.177734 18.703125 L 11.126953 34.378906 L 24.236328 34.378906 L 30.009766 24.378906 L 20.177734 18.703125 z "
         id="rect45"
         transform="matrix(4,0,0,4,27.960592,-137.96124)" />
      <path
         style="stroke-width:0.25;marker:none"
         d="M 49.236328 34.378906 L 36.126953 34.378906 L 28.207031 48.095703 L 38.039062 53.773438 L 49.236328 34.378906 z "
         id="path936"
         transform="matrix(4,0,0,4,27.960592,-137.96124)" />
      <path
         style="stroke-width:0.25;marker:none"
         d="M 45.177734 18.703125 L 36.126953 34.378906 L 49.236328 34.378906 L 55.009766 24.378906 L 45.177734 18.703125 z "
         id="rect47"
         transform="matrix(4,0,0,4,27.960592,-137.96124)" />
      <path
         style="stroke-width:0.25;marker:none"
         d="M 74.236328 34.378906 L 61.126953 34.378906 L 53.207031 48.095703 L 63.039062 53.773438 L 74.236328 34.378906 z "
         id="path947"
         transform="matrix(4,0,0,4,27.960592,-137.96124)" />
      <path
         style="stroke-width:0.25;marker:none"
         d="M 70.177734 18.703125 L 61.126953 34.378906 L 74.236328 34.378906 L 80.009766 24.378906 L 70.177734 18.703125 z "
         id="rect49"
         transform="matrix(4,0,0,4,27.960592,-137.96124)" />
      <path
         style="stroke-width:0.25;marker:none"
         d="M 99.236328 34.378906 L 86.126953 34.378906 L 78.207031 48.095703 L 88.039062 53.773438 L 99.236328 34.378906 z "
         id="path950"
         transform="matrix(4,0,0,4,27.960592,-137.96124)" />
      <path
         style="stroke-width:0.25;marker:none"
         d="M 95.177734 18.703125 L 86.126953 34.378906 L 99.236328 34.378906 L 105.00977 24.378906 L 95.177734 18.703125 z "
         id="rect51"
         transform="matrix(4,0,0,4,27.960592,-137.96124)" />
      <path
         style="stroke-width:0.25;marker:none"
         d="M 121.00977 39.966797 L 121.00977 34.378906 L 111.12695 34.378906 L 103.20703 48.095703 L 113.03906 53.773438 L 121.00977 39.966797 z "
         id="path953"
         transform="matrix(4,0,0,4,27.960592,-137.96124)" />
      <path
         style="stroke-width:0.25;marker:none"
         d="M 120.17773 18.703125 L 111.12695 34.378906 L 121.00977 34.378906 L 121.00977 39.966797 L 130.00977 24.378906 L 120.17773 18.703125 z "
         id="rect53"
         transform="matrix(4,0,0,4,27.960592,-137.96124)" />
    </g>
    <path
       style="fill:#c0bfbc"
       inkscape:connector-curvature="0"
       d="m 7.981,205.306 c 0,-2.668 2.745,-5.334 5.334,-5.334 0,0 10.666,10.59 10.666,10.667 v 5.333 h -16 z"
       id="path57" />
    <circle
       r="1.25"
       cy="213.24899"
       cx="10.997"
       style="fill:#241f31;marker:none"
       id="circle59" />
    <circle
       style="fill:#241f31;marker:none"
       cx="10.997"
       cy="205.26601"
       r="1.25"
       id="circle61" />
    <rect
       style="fill:#77767b;marker:none"
       width="112"
       height="2"
       x="7.9809999"
       y="215.972"
       rx="0"
       ry="0"
       id="rect63" />
    <path
       style="fill:#3d3846"
       inkscape:connector-curvature="0"
       d="m 119.981,215.972 v 2 h -10 l 1.272,-2 z m -20.635,0 -1.017,2 H 84.981 l 1.272,-2 z m -25.122,0 -1.016,2 H 59.86 l 1.271,-2 z m -25,0 -1.016,2 H 34.86 l 1.271,-2 z m -24.861,0 -1.017,2 H 9.998 l 1.272,-2 z"
       id="path65" />
    <circle
       style="fill:#f6f5f4;marker:none"
       cx="10.997"
       cy="212.94299"
       r="1.25"
       id="circle67" />
    <circle
       r="1.25"
       cy="204.961"
       cx="10.997"
       style="fill:#f6f5f4;marker:none"
       id="circle69" />
    <circle
       style="fill:#241f31;marker:none"
       cx="20.888"
       cy="213.222"
       r="1.25"
       id="circle71" />
    <circle
       r="1.25"
       cy="212.91701"
       cx="20.888"
       style="fill:#f6f5f4;marker:none"
       id="circle73" />
  </g>
  <g
     transform="translate(1.0098521,-183.62069)"
     style="fill:#f6f5f4"
     id="g81">
    <path
       inkscape:connector-curvature="0"
       style="marker:none"
       d="m 26,244 h 76 c 1.062,0 2,0.936 2,2 H 24 c 0,-1.108 0.983,-2 2,-2 z"
       id="path77" />
    <path
       inkscape:connector-curvature="0"
       style="marker:none"
       d="m 48,232 v 14 h -2 v -14 z m 34,0 v 14 h -2 v -14 z m -58,30 h 80 c 0,1.054 -0.913,2 -2,2 H 26 c -0.985,0 -2,-1.03 -2,-2 z"
       id="path79" />
  </g>
  <path
     inkscape:connector-curvature="0"
     d="m 35.465009,73.974241 q 0.128906,0.3151 0.229167,0.51562 0.114583,0.1862 0.243489,0.28646 0.143229,0.10026 0.329427,0.12891 0.186198,0.0287 0.458334,0.0287 h 0.214843 v 0.6875 h -4.654948 v -0.6875 h 0.644532 q 0.415364,0 0.658854,-0.10027 0.257812,-0.10026 0.257812,-0.30078 0,-0.0573 -0.02865,-0.14323 -0.01432,-0.0859 -0.08594,-0.25781 l -0.802076,-2.04823 h -3.967448 l -0.515625,1.34636 q -0.128907,0.37239 -0.128907,0.64453 0,0.85938 1.217448,0.85938 h 0.300782 v 0.6875 h -3.967448 v -0.6875 h 0.05729 q 0.300781,0 0.58724,-0.12891 0.286458,-0.14323 0.458333,-0.34375 0.08594,-0.0859 0.143229,-0.17188 0.05729,-0.0859 0.114584,-0.20052 0.07161,-0.11458 0.143229,-0.28646 0.08594,-0.18619 0.200521,-0.47265 l 3.451823,-8.7513 h 0.630208 z m -6.216146,-2.66406 h 3.365885 l -1.690104,-4.25391 z"
     style="font-style:normal;font-variant:normal;font-weight:normal;font-stretch:normal;font-size:14.66666698px;line-height:1.25;font-family:'Tibetan Machine Uni';-inkscape-font-specification:'Tibetan Machine Uni';letter-spacing:0px;word-spacing:0px;fill:#ffffff;fill-opacity:1;stroke:none"
     id="path858" />
  <path
     inkscape:connector-curvature="0"
     d="m 40.47803,68.646111 v 0.52995 h -0.214844 q -0.458333,0 -0.644531,0.0716 -0.171875,0.0716 -0.171875,0.27213 0,0.0716 0.01432,0.15755 0.02865,0.0859 0.07162,0.15756 l 1.704427,3.96744 1.389323,-3.48046 q 0.04297,-0.15756 0.07162,-0.32943 0.04297,-0.17188 0.04297,-0.28646 0,-0.52995 -0.78776,-0.52995 h -0.214844 v -0.52995 h 2.979167 v 0.52995 h -0.05729 q -0.415364,0 -0.759114,0.32943 -0.329427,0.32943 -0.630209,1.07422 l -2.119791,5.27083 h -0.529948 l -2.592448,-6.04427 q -0.157552,-0.35807 -0.358073,-0.48698 -0.186198,-0.14323 -0.615886,-0.14323 h -0.128906 v -0.52995 z"
     style="font-style:normal;font-variant:normal;font-weight:normal;font-stretch:normal;font-size:14.66666698px;line-height:1.25;font-family:'Tibetan Machine Uni';-inkscape-font-specification:'Tibetan Machine Uni';letter-spacing:0px;word-spacing:0px;fill:#ffffff;fill-opacity:1;stroke:none"
     id="path860" />
  <path
     inkscape:connector-curvature="0"
     d="m 47.954593,74.375281 q 0,0.22917 0.04297,0.3724 0.04297,0.1289 0.157552,0.21484 0.128906,0.0716 0.34375,0.10026 0.229167,0.0143 0.601563,0.0143 h 0.10026 v 0.54428 h -3.895833 v -0.54428 h 0.114583 q 0.358073,0 0.572917,-0.0143 0.229166,-0.0286 0.34375,-0.10026 0.128906,-0.0859 0.157552,-0.21484 0.04297,-0.14323 0.04297,-0.3724 v -4.18229 q 0,-0.24349 -0.02865,-0.38672 -0.01432,-0.15755 -0.08594,-0.22917 -0.07161,-0.0859 -0.200521,-0.11458 -0.114583,-0.0286 -0.329427,-0.0286 h -0.759114 v -0.63021 l 2.821614,-0.15756 z m -0.701823,-9.48177 q 0.358073,0 0.601563,0.25781 0.257812,0.25782 0.257812,0.61589 0,0.37239 -0.257812,0.63021 -0.24349,0.24349 -0.615885,0.24349 -0.372396,0 -0.615886,-0.25782 -0.229167,-0.25781 -0.229167,-0.61588 0,-0.35807 0.24349,-0.61589 0.24349,-0.25781 0.615885,-0.25781 z"
     style="font-style:normal;font-variant:normal;font-weight:normal;font-stretch:normal;font-size:14.66666698px;line-height:1.25;font-family:'Tibetan Machine Uni';-inkscape-font-specification:'Tibetan Machine Uni';letter-spacing:0px;word-spacing:0px;fill:#ffffff;fill-opacity:1;stroke:none"
     id="path862" />
  <path
     inkscape:connector-curvature="0"
     d="m 53.755375,64.735961 2.950521,-0.15755 v 9.29557 q 0,0.35807 0.02864,0.57292 0.02865,0.21484 0.128907,0.34375 0.10026,0.11458 0.272135,0.15755 0.186198,0.0286 0.486979,0.0286 h 0.272136 v 0.64454 l -2.621094,0.0859 v -1.16015 q -0.358073,0.67317 -0.845052,0.98828 -0.486979,0.3151 -1.217448,0.3151 -0.644531,0 -1.203125,-0.27213 -0.544271,-0.27214 -0.945313,-0.7448 -0.386719,-0.48697 -0.615885,-1.16015 -0.214844,-0.67318 -0.214844,-1.47526 0,-0.81641 0.229167,-1.50391 0.229166,-0.6875 0.630208,-1.1888 0.401042,-0.51563 0.945313,-0.80208 0.54427,-0.28646 1.174479,-0.28646 0.658854,0 1.145833,0.27213 0.501302,0.25782 0.916667,0.83073 v -3.38021 q 0,-0.24349 -0.02865,-0.38671 -0.01432,-0.15756 -0.08594,-0.22917 -0.07161,-0.0859 -0.20052,-0.11458 -0.114584,-0.0286 -0.315105,-0.0286 h -0.88802 z m -0.24349,4.48307 q -0.458333,0 -0.845052,0.30078 -0.386719,0.30078 -0.58724,0.78776 -0.272135,0.77344 -0.272135,2.07683 0,1.26041 0.44401,1.96224 0.458334,0.6875 1.246094,0.6875 0.816406,0 1.289063,-0.77344 0.486979,-0.78776 0.486979,-2.10547 0,-1.07422 -0.286459,-1.80469 -0.20052,-0.51562 -0.601562,-0.8164 -0.401042,-0.31511 -0.873698,-0.31511 z"
     style="font-style:normal;font-variant:normal;font-weight:normal;font-stretch:normal;font-size:14.66666698px;line-height:1.25;font-family:'Tibetan Machine Uni';-inkscape-font-specification:'Tibetan Machine Uni';letter-spacing:0px;word-spacing:0px;fill:#ffffff;fill-opacity:1;stroke:none"
     id="path864" />
  <path
     inkscape:connector-curvature="0"
     d="m 60.329592,72.255491 v 0.21484 q 0,0.52995 0.08594,0.90235 0.10026,0.37239 0.286458,0.6875 0.58724,0.97396 1.704427,0.97396 0.759115,0 1.27474,-0.35808 0.515625,-0.37239 0.973958,-1.24609 l 0.529948,0.30078 q -0.916667,2.11979 -3.065104,2.11979 -0.759115,0 -1.389323,-0.25781 -0.615886,-0.25781 -1.059896,-0.71615 -0.444011,-0.45833 -0.6875,-1.10286 -0.24349,-0.65886 -0.24349,-1.46094 0,-0.83073 0.24349,-1.54687 0.257812,-0.71615 0.701823,-1.23177 0.458333,-0.52995 1.074219,-0.81641 0.615885,-0.30078 1.332031,-0.30078 0.6875,0 1.246094,0.28646 0.572916,0.27213 0.973958,0.78776 0.415365,0.5013 0.644531,1.21744 0.229167,0.70183 0.229167,1.54688 z m 2.635417,-0.65885 q 0.372396,0 0.486979,-0.11459 0.114583,-0.11458 0.114583,-0.44401 0,-0.90234 -0.415364,-1.44661 -0.401042,-0.54427 -1.088542,-0.54427 -1.059896,0 -1.518229,1.33203 -0.114584,0.32942 -0.171875,0.60156 -0.04297,0.27214 -0.04297,0.61589 z"
     style="font-style:normal;font-variant:normal;font-weight:normal;font-stretch:normal;font-size:14.66666698px;line-height:1.25;font-family:'Tibetan Machine Uni';-inkscape-font-specification:'Tibetan Machine Uni';letter-spacing:0px;word-spacing:0px;fill:#ffffff;fill-opacity:1;stroke:none"
     id="path866" />
  <path
     inkscape:connector-curvature="0"
     d="m 66.058761,68.803671 2.678386,-0.15756 v 1.13152 q 0.429687,-0.70183 0.945312,-1.03125 0.515625,-0.32943 1.203125,-0.32943 0.773438,0 1.317709,0.41536 0.54427,0.40104 0.744791,1.08854 0.486979,-0.80208 1.045573,-1.14583 0.572917,-0.35807 1.303386,-0.35807 0.544271,0 0.988281,0.21484 0.44401,0.21485 0.773437,0.63021 0.14323,0.1862 0.229167,0.35807 0.100261,0.17188 0.157552,0.3724 0.05729,0.1862 0.07162,0.44401 0.01432,0.24349 0.01432,0.58724 v 3.33724 q 0,0.22917 0.04297,0.37239 0.04297,0.14323 0.157553,0.21485 0.128906,0.0716 0.34375,0.10026 0.229166,0.0286 0.587239,0.0286 h 0.07161 v 0.54428 h -3.78125 v -0.54428 h 0.114583 q 0.329427,0 0.529948,-0.0143 0.214844,-0.0286 0.329427,-0.10026 0.114583,-0.0859 0.157552,-0.21484 0.04297,-0.14323 0.04297,-0.3724 v -3.05078 q 0,-0.45833 -0.04297,-0.73047 -0.02865,-0.27213 -0.128906,-0.51562 -0.157552,-0.35808 -0.444011,-0.5586 -0.272135,-0.20052 -0.658854,-0.20052 -0.773437,0 -1.246094,0.67318 -0.458333,0.67318 -0.458333,1.79036 v 2.59245 q 0,0.22917 0.02865,0.3724 0.04297,0.1289 0.157552,0.21484 0.128906,0.0716 0.34375,0.10026 0.214844,0.0143 0.58724,0.0143 h 0.05729 v 0.54428 H 70.51319 v -0.54428 h 0.07161 q 0.372396,0 0.58724,-0.0143 0.229166,-0.0286 0.34375,-0.10026 0.128906,-0.0859 0.171875,-0.21484 0.04297,-0.14323 0.04297,-0.3724 v -3.20833 q 0,-0.91667 -0.315104,-1.36068 -0.128906,-0.20052 -0.415364,-0.34375 -0.272136,-0.14323 -0.558594,-0.14323 -0.372396,0 -0.6875,0.1862 -0.315104,0.17187 -0.544271,0.48698 -0.214844,0.30078 -0.34375,0.73047 -0.128906,0.42969 -0.128906,0.93099 v 2.70703 q 0,0.22917 0.02865,0.37239 0.04297,0.14323 0.157552,0.21485 0.128906,0.0716 0.34375,0.10026 0.214843,0.0286 0.587239,0.0286 h 0.05729 v 0.54428 H 66.1447 v -0.54428 h 0.128906 q 0.315104,0 0.515625,-0.0286 0.214844,-0.0287 0.315104,-0.10026 0.114584,-0.0716 0.157552,-0.21485 0.04297,-0.14322 0.04297,-0.37239 v -4.16797 q 0,-0.24349 -0.02865,-0.38672 -0.01432,-0.15755 -0.08594,-0.22917 -0.05729,-0.0859 -0.186198,-0.11458 -0.114584,-0.0286 -0.329427,-0.0286 h -0.615886 z"
     style="font-style:normal;font-variant:normal;font-weight:normal;font-stretch:normal;font-size:14.66666698px;line-height:1.25;font-family:'Tibetan Machine Uni';-inkscape-font-specification:'Tibetan Machine Uni';letter-spacing:0px;word-spacing:0px;fill:#ffffff;fill-opacity:1;stroke:none"
     id="path868" />
  <path
     inkscape:connector-curvature="0"
     d="m 79.350428,68.803671 2.621094,-0.15756 v 4.55469 q 0,0.31511 0,0.51563 0.01432,0.1862 0.02865,0.3151 0.02865,0.12891 0.07161,0.22917 0.04297,0.10026 0.114583,0.20052 0.157553,0.24349 0.429688,0.35807 0.272135,0.11459 0.630208,0.11459 0.558594,0 0.973959,-0.27214 0.429687,-0.28646 0.658854,-0.78776 0.171875,-0.3724 0.257812,-0.77344 0.08594,-0.41536 0.08594,-1.05989 v -1.84766 q 0,-0.48698 -0.128906,-0.61589 -0.114584,-0.14322 -0.529948,-0.14322 h -0.759115 v -0.63021 l 2.807292,-0.15756 v 5.22787 q 0,0.3724 0.02865,0.58724 0.04297,0.21484 0.143229,0.32943 0.10026,0.11458 0.286458,0.15755 0.186198,0.0286 0.501302,0.0286 h 0.372396 v 0.64454 l -2.721354,0.10026 v -1.2461 q -0.501302,0.73047 -1.059896,1.0599 -0.544271,0.3151 -1.289063,0.3151 -0.6875,0 -1.203125,-0.24349 -0.515625,-0.25781 -0.816406,-0.71614 -0.171875,-0.25782 -0.229166,-0.57292 -0.05729,-0.3151 -0.05729,-0.88802 v -3.23698 q 0,-0.24349 -0.02865,-0.38672 -0.01432,-0.15755 -0.08594,-0.22917 -0.07161,-0.0859 -0.200521,-0.11458 -0.114584,-0.0286 -0.329427,-0.0286 h -0.572917 z"
     style="font-style:normal;font-variant:normal;font-weight:normal;font-stretch:normal;font-size:14.66666698px;line-height:1.25;font-family:'Tibetan Machine Uni';-inkscape-font-specification:'Tibetan Machine Uni';letter-spacing:0px;word-spacing:0px;fill:#ffffff;fill-opacity:1;stroke:none"
     id="path870" />
  <path
     inkscape:connector-curvature="0"
     d="m 91.983238,68.646111 v 0.52995 h -0.214844 q -0.658854,0 -0.658854,0.25782 0,0.0859 0.04297,0.17187 0.04297,0.0859 0.114583,0.15755 l 1.145833,1.47526 0.945313,-1.11718 q 0.300781,-0.34375 0.300781,-0.61589 0,-0.32943 -0.673177,-0.32943 h -0.286458 v -0.52995 h 3.108073 v 0.52995 h -0.143229 q -0.286459,0 -0.572917,0.15755 -0.286458,0.14323 -0.558594,0.47266 l -1.690104,1.99089 1.890625,2.54948 q 0.286458,0.40104 0.58724,0.57291 0.315104,0.15755 0.716145,0.15755 h 0.08594 v 0.54428 h -3.766927 v -0.54428 h 0.10026 q 0.429688,0 0.615886,-0.0573 0.186198,-0.0716 0.186198,-0.21484 0,-0.0716 -0.05729,-0.20052 -0.05729,-0.12891 -0.128906,-0.24349 l -1.160157,-1.51823 -1.246093,1.51823 q -0.128907,0.15755 -0.128907,0.3151 0,0.10026 0.05729,0.20052 0.07161,0.10026 0.157552,0.14323 0.07162,0.0287 0.157552,0.043 0.100261,0.0143 0.372396,0.0143 h 0.229167 v 0.54428 h -3.179688 v -0.54428 h 0.100261 q 0.329427,0 0.673177,-0.20052 0.34375,-0.20052 0.658854,-0.57291 l 1.747396,-2.01953 -1.833334,-2.30599 q -0.186198,-0.22917 -0.329427,-0.3724 -0.143229,-0.15755 -0.286458,-0.24349 -0.128906,-0.0859 -0.286458,-0.12891 -0.14323,-0.043 -0.34375,-0.0573 v -0.52995 z"
     style="font-style:normal;font-variant:normal;font-weight:normal;font-stretch:normal;font-size:14.66666698px;line-height:1.25;font-family:'Tibetan Machine Uni';-inkscape-font-specification:'Tibetan Machine Uni';letter-spacing:0px;word-spacing:0px;fill:#ffffff;fill-opacity:1;stroke:none"
     id="path872" />
  <path
     style="display:inline;opacity:1;fill:#559f2f;fill-opacity:1;stroke:none;stroke-width:0.2957418;stroke-linecap:butt;stroke-linejoin:miter;stroke-miterlimit:4;stroke-dasharray:none;stroke-dashoffset:0;stroke-opacity:1;marker:none;marker-start:none;marker-mid:none;marker-end:none;paint-order:normal;enable-background:new"
     d="m 9.009852,34.37931 v 58.783478 c 0,6.202191 3.568,11.195292 8,11.195292 h 95.999998 c 4.43201,0 8.00001,-4.993101 8.00001,-11.195292 V 34.37931 Z"
     id="rect1027"
     inkscape:connector-curvature="0" />
  <path
     inkscape:connector-curvature="0"
     id="path924"
     d="m 121.00986,15.328524 v -58.783478 c 0,-6.202191 -3.568,-11.195292 -8,-11.195292 H 17.009862 c -4.43201,0 -8.0000101,4.993101 -8.0000101,11.195292 v 58.783478 z"
     style="display:inline;opacity:1;fill:#559f2f;fill-opacity:1;stroke:none;stroke-width:0.2957418;stroke-linecap:butt;stroke-linejoin:miter;stroke-miterlimit:4;stroke-dasharray:none;stroke-dashoffset:0;stroke-opacity:1;marker:none;marker-start:none;marker-mid:none;marker-end:none;paint-order:normal;enable-background:new" />
</svg>
