<?xml version="1.0" encoding="UTF-8" standalone="no"?>
<svg
   xmlns:dc="http://purl.org/dc/elements/1.1/"
   xmlns:cc="http://creativecommons.org/ns#"
   xmlns:rdf="http://www.w3.org/1999/02/22-rdf-syntax-ns#"
   xmlns:svg="http://www.w3.org/2000/svg"
   xmlns="http://www.w3.org/2000/svg"
   xmlns:xlink="http://www.w3.org/1999/xlink"
   xmlns:sodipodi="http://sodipodi.sourceforge.net/DTD/sodipodi-0.dtd"
   xmlns:inkscape="http://www.inkscape.org/namespaces/inkscape"
   viewBox="0 0 128 128"
   style="display:inline;enable-background:new"
   version="1.0"
   id="svg11300"
   height="128"
   width="128"
   sodipodi:docname="usb-creator-gtk.svg"
   inkscape:version="0.92.3 (2405546, 2018-03-11)">
  <sodipodi:namedview
     pagecolor="#ffffff"
     bordercolor="#666666"
     borderopacity="1"
     objecttolerance="10"
     gridtolerance="10"
     guidetolerance="10"
     inkscape:pageopacity="0"
     inkscape:pageshadow="2"
     inkscape:window-width="1920"
     inkscape:window-height="1016"
     id="namedview75"
     showgrid="false"
     inkscape:zoom="6.578125"
     inkscape:cx="36.712589"
     inkscape:cy="64"
     inkscape:window-x="0"
     inkscape:window-y="27"
     inkscape:window-maximized="1"
     inkscape:current-layer="layer9" />
  <title
     id="title4162">Adwaita Icon Template</title>
  <defs
     id="defs3">
    <linearGradient
       id="linearGradient10247">
      <stop
         id="stop10243"
         offset="0"
         style="stop-color:#010101;stop-opacity:1;" />
      <stop
         id="stop10245"
         offset="1"
         style="stop-color:#010101;stop-opacity:0;" />
    </linearGradient>
    <linearGradient
       id="linearGradient10232">
      <stop
         id="stop10228"
         offset="0"
         style="stop-color:#47454b;stop-opacity:1" />
      <stop
         id="stop10230"
         offset="1"
         style="stop-color:#dfdee0;stop-opacity:1" />
    </linearGradient>
    <linearGradient
       id="linearGradient1194">
      <stop
         style="stop-color:#5e5c64;stop-opacity:1"
         offset="0"
         id="stop1190" />
      <stop
         style="stop-color:#77767b;stop-opacity:1"
         offset="1"
         id="stop1192" />
    </linearGradient>
    <linearGradient
       id="linearGradient1188">
      <stop
         id="stop1184"
         offset="0"
         style="stop-color:#c0bfbc;stop-opacity:1" />
      <stop
         id="stop1186"
         offset="1"
         style="stop-color:#f6f5f4;stop-opacity:1" />
    </linearGradient>
    <linearGradient
       id="linearGradient1378">
      <stop
         style="stop-color:#424048;stop-opacity:1"
         offset="0"
         id="stop1366" />
      <stop
         id="stop1368"
         offset="0.04702194"
         style="stop-color:#f6f5f4;stop-opacity:1" />
      <stop
         style="stop-color:#949390;stop-opacity:1"
         offset="0.09717868"
         id="stop1370" />
      <stop
         id="stop1372"
         offset="0.89968652"
         style="stop-color:#d5d3cf;stop-opacity:1" />
      <stop
         style="stop-color:#f6f5f4;stop-opacity:1"
         offset="0.94984329"
         id="stop1374" />
      <stop
         style="stop-color:#424048;stop-opacity:1"
         offset="1"
         id="stop1376" />
    </linearGradient>
    <linearGradient
       id="linearGradient1364">
      <stop
         id="stop1352"
         offset="0"
         style="stop-color:#000000;stop-opacity:1" />
      <stop
         style="stop-color:#424048;stop-opacity:1"
         offset="0.04702194"
         id="stop1354" />
      <stop
         id="stop1356"
         offset="0.09717868"
         style="stop-color:#241f31;stop-opacity:1" />
      <stop
         style="stop-color:#241f31;stop-opacity:1"
         offset="0.89968652"
         id="stop1358" />
      <stop
         id="stop1360"
         offset="0.94984329"
         style="stop-color:#424048;stop-opacity:1" />
      <stop
         id="stop1362"
         offset="1"
         style="stop-color:#000000;stop-opacity:1" />
    </linearGradient>
    <linearGradient
       id="linearGradient1235">
      <stop
         style="stop-color:#949390;stop-opacity:1"
         offset="0"
         id="stop1231" />
      <stop
         style="stop-color:#424048;stop-opacity:1"
         offset="1"
         id="stop1233" />
    </linearGradient>
    <linearGradient
       id="linearGradient983">
      <stop
         id="stop979"
         offset="0"
         style="stop-color:#000000;stop-opacity:0.25098041" />
      <stop
         id="stop981"
         offset="1"
         style="stop-color:#000000;stop-opacity:0.03137255" />
    </linearGradient>
    <linearGradient
       id="linearGradient1282">
      <stop
         id="stop1278"
         offset="0"
         style="stop-color:#f6f5f4;stop-opacity:1;" />
      <stop
         id="stop1280"
         offset="1"
         style="stop-color:#ffffff;stop-opacity:1" />
    </linearGradient>
    <linearGradient
       id="linearGradient1494">
      <stop
         id="stop1490"
         offset="0"
         style="stop-color:#babdb6;stop-opacity:1;" />
      <stop
         id="stop1492"
         offset="1"
         style="stop-color:#babdb6;stop-opacity:0;" />
    </linearGradient>
    <linearGradient
       gradientUnits="userSpaceOnUse"
       y2="20"
       x2="280"
       y1="172"
       x1="280"
       id="linearGradient1496"
       xlink:href="#linearGradient1494" />
    <linearGradient
       gradientTransform="matrix(0.25,0,0,0.25,-1e-5,225)"
       gradientUnits="userSpaceOnUse"
       y2="59.234238"
       x2="318.91211"
       y1="113.76978"
       x1="301.62421"
       id="linearGradient2155"
       xlink:href="#linearGradient1194" />
    <linearGradient
       gradientTransform="matrix(0.25,0,0,0.25,-1e-5,225)"
       y2="-112.15472"
       x2="249"
       y1="125"
       x1="249"
       gradientUnits="userSpaceOnUse"
       id="linearGradient1057"
       xlink:href="#linearGradient1188" />
    <linearGradient
       gradientTransform="matrix(0.25,0,0,0.25,-1e-5,225)"
       gradientUnits="userSpaceOnUse"
       y2="-172"
       x2="323.00003"
       y1="217"
       x1="347.00003"
       id="linearGradient1284"
       xlink:href="#linearGradient1282" />
    <linearGradient
       y2="619.96387"
       x2="496"
       y1="619.96387"
       x1="177"
       gradientTransform="matrix(0.25,0,0,0.24305558,-20.00001,91.56432)"
       gradientUnits="userSpaceOnUse"
       id="linearGradient1444-3-9"
       xlink:href="#linearGradient1378" />
    <linearGradient
       y2="799.96387"
       x2="494.99994"
       y1="799.96387"
       x1="176"
       gradientTransform="matrix(0.25,0,0,0.24305558,-20.00001,91.56432)"
       gradientUnits="userSpaceOnUse"
       id="linearGradient1121"
       xlink:href="#linearGradient1364" />
    <radialGradient
       r="16"
       fy="199.58058"
       fx="128"
       cy="199.58058"
       cx="128"
       gradientUnits="userSpaceOnUse"
       id="radialGradient1131"
       xlink:href="#linearGradient983" />
    <radialGradient
       r="8"
       fy="200.07188"
       fx="127.9371"
       cy="200.07188"
       cx="127.9371"
       gradientTransform="matrix(1.3756505,0,0,1.3756505,-47.996726,-75.471623)"
       gradientUnits="userSpaceOnUse"
       id="radialGradient1133"
       xlink:href="#linearGradient1235" />
    <linearGradient
       y2="70.8974"
       x2="328.0976"
       y1="125.79309"
       x1="298.65759"
       gradientTransform="matrix(0.25,0,0,0.25,-1e-5,225)"
       gradientUnits="userSpaceOnUse"
       id="linearGradient9681"
       xlink:href="#linearGradient10232" />
    <radialGradient
       gradientUnits="userSpaceOnUse"
       gradientTransform="matrix(0.59826328,0.63515006,-0.1152322,0.10854002,50.709492,158.17297)"
       r="36.043909"
       fy="221.95126"
       fx="62.562256"
       cy="221.95126"
       cx="62.562256"
       id="radialGradient10249"
       xlink:href="#linearGradient10247" />
  </defs>
  <metadata
     id="metadata4">
    <rdf:RDF>
      <cc:Work
         rdf:about="">
        <dc:format>image/svg+xml</dc:format>
        <dc:type
           rdf:resource="http://purl.org/dc/dcmitype/StillImage" />
        <dc:creator>
          <cc:Agent>
            <dc:title>GNOME Design Team</dc:title>
          </cc:Agent>
        </dc:creator>
        <dc:source />
        <cc:license
           rdf:resource="http://creativecommons.org/licenses/by-sa/4.0/" />
        <dc:title>Adwaita Icon Template</dc:title>
        <dc:subject>
          <rdf:Bag />
        </dc:subject>
        <dc:date />
        <dc:rights>
          <cc:Agent>
            <dc:title />
          </cc:Agent>
        </dc:rights>
        <dc:publisher>
          <cc:Agent>
            <dc:title />
          </cc:Agent>
        </dc:publisher>
        <dc:identifier />
        <dc:relation />
        <dc:language />
        <dc:coverage />
        <dc:description />
        <dc:contributor>
          <cc:Agent>
            <dc:title />
          </cc:Agent>
        </dc:contributor>
      </cc:Work>
      <cc:License
         rdf:about="http://creativecommons.org/licenses/by-sa/4.0/">
        <cc:permits
           rdf:resource="http://creativecommons.org/ns#Reproduction" />
        <cc:permits
           rdf:resource="http://creativecommons.org/ns#Distribution" />
        <cc:requires
           rdf:resource="http://creativecommons.org/ns#Notice" />
        <cc:requires
           rdf:resource="http://creativecommons.org/ns#Attribution" />
        <cc:permits
           rdf:resource="http://creativecommons.org/ns#DerivativeWorks" />
        <cc:requires
           rdf:resource="http://creativecommons.org/ns#ShareAlike" />
      </cc:License>
    </rdf:RDF>
  </metadata>
  <g
     transform="translate(0,-172)"
     style="display:inline"
     id="layer1">
    <g
       style="display:inline"
       id="layer9">
      <circle
         r="0"
         cy="172"
         cx="32.500057"
         id="path907"
         style="opacity:0.05;fill:#ac1d2e;fill-opacity:1;stroke:none;stroke-width:0.01114019px;stroke-linecap:butt;stroke-linejoin:miter;stroke-miterlimit:4;stroke-dasharray:none;stroke-dashoffset:0;stroke-opacity:1;marker:none;marker-start:none;marker-mid:none;marker-end:none;paint-order:normal" />
      <rect
         ry="8"
         rx="8"
         y="221.99998"
         x="24"
         height="70"
         width="80"
         id="rect1480-3-7-1-2"
         style="display:inline;opacity:1;fill:url(#linearGradient1121);fill-opacity:1;stroke:none;stroke-width:0.01114019px;stroke-linecap:butt;stroke-linejoin:miter;stroke-miterlimit:4;stroke-dasharray:none;stroke-dashoffset:0;stroke-opacity:1;marker:none;marker-start:none;marker-mid:none;marker-end:none;paint-order:normal;enable-background:new" />
      <rect
         ry="8"
         rx="8"
         y="215.99998"
         x="24"
         height="70"
         width="80"
         id="rect1480-3-7-1"
         style="display:inline;opacity:1;fill:url(#linearGradient1444-3-9);fill-opacity:1;stroke:none;stroke-width:0.01114019px;stroke-linecap:butt;stroke-linejoin:miter;stroke-miterlimit:4;stroke-dasharray:none;stroke-dashoffset:0;stroke-opacity:1;marker:none;marker-start:none;marker-mid:none;marker-end:none;paint-order:normal;enable-background:new" />
      <rect
         ry="8.4571428"
         rx="8"
         y="180"
         x="24"
         height="104"
         width="80"
         id="rect1480-6-7"
         style="display:inline;opacity:1;fill:url(#linearGradient1284);fill-opacity:1;stroke:none;stroke-width:0.01161654px;stroke-linecap:butt;stroke-linejoin:miter;stroke-miterlimit:4;stroke-dasharray:none;stroke-dashoffset:0;stroke-opacity:1;marker:none;marker-start:none;marker-mid:none;marker-end:none;paint-order:normal;enable-background:new" />
      <g
         transform="matrix(0.25,0,0,0.25,-1e-5,225)"
         id="g1036"
         style="display:inline;enable-background:new">
        <circle
           style="display:inline;opacity:1;fill:url(#radialGradient1131);fill-opacity:1;stroke:none;stroke-width:0.04456074px;stroke-linecap:butt;stroke-linejoin:miter;stroke-miterlimit:4;stroke-dasharray:none;stroke-dashoffset:0;stroke-opacity:1;marker:none;marker-start:none;marker-mid:none;marker-end:none;paint-order:normal;enable-background:new"
           id="path1137-3"
           cx="128"
           cy="204"
           r="16" />
        <circle
           style="opacity:1;fill:url(#radialGradient1133);fill-opacity:1;stroke:none;stroke-width:0.04456075px;stroke-linecap:butt;stroke-linejoin:miter;stroke-miterlimit:4;stroke-dasharray:none;stroke-dashoffset:0;stroke-opacity:1;marker:none;marker-start:none;marker-mid:none;marker-end:none;paint-order:normal"
           id="path1137"
           cx="128"
           cy="204"
           r="8" />
      </g>
      <path
         id="path905"
         d="m 41.99999,184 c -2.216,0 -4,1.784 -4,4 0,3.31371 -2.68629,6 -6,6 -2.216,0 -4,1.784 -4,4 v 8 c 0,2.216 1.784,4 4,4 3.31371,0 6,2.68629 6,6 -0.003,1.47715 -0.55015,2.90139 -1.5376,4 -5.92217,6.59263 -8.44822,15.13802 -8.4624,24 0,19.88225 16.11775,36 36,36 19.88225,0 36,-16.11775 36,-36 -0.0159,-8.86282 -2.5389,-17.40831 -8.46338,-24 -0.98709,-1.09875 -1.53421,-2.52298 -1.53662,-4 0,-3.31371 2.68629,-6 6,-6 2.216,0 4,-1.784 4,-4 v -8 c 0,-2.216 -1.784,-4 -4,-4 -3.31371,0 -6,-2.68629 -6,-6 0,-2.216 -1.784,-4 -4,-4 z m 22,56 a 6,6 0 0 1 6,6 6,6 0 0 1 -6,6 6,6 0 0 1 -6,-6 6,6 0 0 1 6,-6 z"
         style="display:inline;opacity:1;fill:#9a9996;fill-opacity:1;stroke:none;stroke-width:0.01114019px;stroke-linecap:butt;stroke-linejoin:miter;stroke-miterlimit:4;stroke-dasharray:none;stroke-dashoffset:0;stroke-opacity:1;marker:none;marker-start:none;marker-mid:none;marker-end:none;paint-order:normal;enable-background:new" />
      <path
         id="path905-2"
         d="m 41.99999,182 c -2.216,0 -4,1.784 -4,4 0,3.31371 -2.68629,6 -6,6 -2.216,0 -4,1.784 -4,4 v 8 c 0,2.216 1.784,4 4,4 3.31371,0 6,2.68629 6,6 -0.003,1.47715 -0.55015,2.90139 -1.5376,4 -5.92217,6.59263 -8.44822,15.13802 -8.4624,24 0,19.88225 16.11775,36 36,36 19.88225,0 36,-16.11775 36,-36 -0.0159,-8.86282 -2.5389,-17.40831 -8.46338,-24 -0.98709,-1.09875 -1.53421,-2.52298 -1.53662,-4 0,-3.31371 2.68629,-6 6,-6 2.216,0 4,-1.784 4,-4 v -8 c 0,-2.216 -1.784,-4 -4,-4 -3.31371,0 -6,-2.68629 -6,-6 0,-2.216 -1.784,-4 -4,-4 z m 22,56 a 6,6 0 0 1 6,6 6,6 0 0 1 -6,6 6,6 0 0 1 -6,-6 6,6 0 0 1 6,-6 z"
         style="display:inline;opacity:1;fill:url(#linearGradient1057);fill-opacity:1;stroke:none;stroke-width:0.01161654px;stroke-linecap:butt;stroke-linejoin:miter;stroke-miterlimit:4;stroke-dasharray:none;stroke-dashoffset:0;stroke-opacity:1;marker:none;marker-start:none;marker-mid:none;marker-end:none;paint-order:normal;enable-background:new" />
      <use
         height="100%"
         width="100%"
         transform="translate(64)"
         id="use1038"
         xlink:href="#g1036"
         y="0"
         x="0"
         style="display:inline;enable-background:new" />
      <use
         height="100%"
         width="100%"
         transform="translate(64,-60)"
         id="use1038-9"
         xlink:href="#g1036"
         y="0"
         x="0"
         style="display:inline;enable-background:new" />
      <use
         height="100%"
         width="100%"
         transform="translate(64,-88)"
         id="use1038-7"
         xlink:href="#g1036"
         y="0"
         x="0"
         style="display:inline;enable-background:new" />
      <use
         height="100%"
         width="100%"
         transform="translate(0,-88)"
         id="use1038-2"
         xlink:href="#g1036"
         y="0"
         x="0"
         style="display:inline;enable-background:new" />
      <use
         height="100%"
         width="100%"
         transform="translate(0,-60)"
         id="use1038-3"
         xlink:href="#g1036"
         y="0"
         x="0"
         style="display:inline;enable-background:new" />
      <path
         inkscape:connector-curvature="0"
         style="display:inline;overflow:visible;visibility:visible;fill:#e84e00;fill-opacity:1;fill-rule:nonzero;stroke:none;stroke-width:2.12760997;stroke-linecap:butt;stroke-linejoin:miter;stroke-miterlimit:4;stroke-dasharray:none;stroke-dashoffset:0;stroke-opacity:1;marker:none;marker-start:none;marker-mid:none;marker-end:none;enable-background:accumulate;opacity:0.75"
         id="path2317"
         d="m 78.48955,212.78494 c -3.053526,0 -5.509753,2.45022 -5.509229,5.47439 -5.24e-4,3.02417 2.455706,5.47438 5.509229,5.47438 3.053525,0 5.552788,-2.45021 5.552266,-5.47438 5.24e-4,-3.02417 -2.49874,-5.47439 -5.552266,-5.47439 z m -16.39856,5.47439 c -2.751931,0.20155 -5.391064,0.88328 -7.833435,1.88183 l 4.9497,8.38262 c 1.263329,-0.39685 2.576485,-0.61479 3.959757,-0.68428 0.270769,-0.0126 0.543609,0 0.817774,0 7.585177,0 13.915118,5.27421 15.494701,12.31735 h 9.856352 c -0.69944,-5.11993 -2.97009,-9.75325 -6.283962,-13.42934 -1.361003,0.72408 -2.91018,1.11199 -4.562327,1.11199 -5.187289,0 -9.445643,-4.03039 -9.684189,-9.10974 -1.561165,-0.29538 -3.173532,-0.47043 -4.820575,-0.47043 -0.330784,0 -0.662186,-0.0129 -0.989937,0 -0.106676,0.004 -0.194923,-0.004 -0.301288,0 -0.100203,0.004 -0.201339,-0.006 -0.301285,0 -0.0968,0.006 -0.204736,-0.006 -0.301286,0 z m -13.773071,5.30331 c -3.968964,3.06051 -6.996046,7.27442 -8.608166,12.10351 2.546487,1.72645 4.218002,4.62727 4.218002,7.91221 0,3.2849 -1.671515,6.18575 -4.218002,7.91218 1.611585,4.83027 4.637819,9.04602 8.608166,12.10352 l 4.906655,-8.42543 c -3.156017,-2.8768 -5.121859,-7.0116 -5.121859,-11.59027 0,-4.57704 1.969678,-8.70635 5.121859,-11.59032 z m -14.031312,14.54133 c -3.053526,0 -5.552792,2.4502 -5.55227,5.47439 -5.22e-4,3.02415 2.498741,5.47436 5.55227,5.47436 3.053526,0 5.50975,-2.45021 5.509225,-5.47436 5.25e-4,-3.02419 -2.455703,-5.47439 -5.509225,-5.47439 z m 45.19288,8.89586 c -1.579578,7.04314 -7.909526,12.31736 -15.494701,12.31736 -1.679263,0 -3.261761,-0.25111 -4.777531,-0.72708 l -4.9497,8.38266 c 2.999275,1.22629 6.281626,1.92458 9.727231,1.92458 1.647043,0 3.259414,-0.17498 4.820575,-0.47043 0.240486,-4.86615 4.188221,-8.80224 9.081616,-9.10973 0.20533,-0.0128 0.393969,0 0.602573,0 1.652147,0 3.201324,0.3879 4.562327,1.11199 3.313873,-3.6761 5.584519,-8.30941 6.283962,-13.42935 z m -0.989937,16.42314 c -3.053526,0 -5.509753,2.45022 -5.509229,5.47438 -5.24e-4,3.02418 2.455706,5.47439 5.509229,5.47439 3.053525,0 5.552788,-2.45021 5.552266,-5.47439 5.24e-4,-3.02416 -2.49874,-5.47438 -5.552266,-5.47438 z" />
    </g>
    <g
       style="fill:url(#linearGradient1496);fill-opacity:1"
       id="g1480" />
  </g>
</svg>
