<?xml version="1.0" encoding="UTF-8" standalone="no"?>
<!-- Created with Inkscape (http://www.inkscape.org/) -->

<svg
   xmlns:dc="http://purl.org/dc/elements/1.1/"
   xmlns:cc="http://creativecommons.org/ns#"
   xmlns:rdf="http://www.w3.org/1999/02/22-rdf-syntax-ns#"
   xmlns:svg="http://www.w3.org/2000/svg"
   xmlns="http://www.w3.org/2000/svg"
   xmlns:sodipodi="http://sodipodi.sourceforge.net/DTD/sodipodi-0.dtd"
   xmlns:inkscape="http://www.inkscape.org/namespaces/inkscape"
   version="1.1"
   id="svg2"
   width="128"
   height="128"
   viewBox="0 0 128 128"
   sodipodi:docname="vuze.svg"
   inkscape:version="0.92.3 (2405546, 2018-03-11)">
  <metadata
     id="metadata8">
    <rdf:RDF>
      <cc:Work
         rdf:about="">
        <dc:format>image/svg+xml</dc:format>
        <dc:type
           rdf:resource="http://purl.org/dc/dcmitype/StillImage" />
        <dc:title></dc:title>
      </cc:Work>
    </rdf:RDF>
  </metadata>
  <defs
     id="defs6" />
  <sodipodi:namedview
     pagecolor="#ffffff"
     bordercolor="#666666"
     borderopacity="1"
     objecttolerance="10"
     gridtolerance="10"
     guidetolerance="10"
     inkscape:pageopacity="0"
     inkscape:pageshadow="2"
     inkscape:window-width="1920"
     inkscape:window-height="1009"
     id="namedview4"
     showgrid="false"
     inkscape:zoom="6.5234375"
     inkscape:cx="64"
     inkscape:cy="64"
     inkscape:window-x="0"
     inkscape:window-y="34"
     inkscape:window-maximized="1"
     inkscape:current-layer="svg2" />
  <path
     style="fill:#030202;fill-opacity:1;stroke-width:1;opacity:0.2"
     d="m 75.023438,6.0039062 c -2.4636,0.049582 -5.359565,0.5487568 -9.072266,1.5039063 -3.77807,0.971966 -7.408785,2.1168609 -8.06836,2.5449215 -0.65959,0.428062 -1.729247,2.194676 -2.376953,3.925782 -1.57391,4.206648 -11.11294,22.20388 -14.341797,27.058593 -0.668931,1.005762 -1.189528,1.749243 -1.6875,2.365235 0.316187,-0.475337 0.584421,-0.894162 0.742188,-1.177735 -0.635739,0.887139 -1.268101,1.845261 -1.902344,2.400391 -0.252472,0.217153 -0.517306,0.422734 -0.814453,0.623047 0,0 -0.002,0.002 -0.002,0.002 -0.843439,0.568284 -1.920557,1.113477 -3.527344,1.888672 -2.537899,1.224412 -4.965123,2.704489 -5.392578,3.289062 -0.155251,0.21232 -0.287148,0.450433 -0.396484,0.707032 0,0 0,0.002 0,0.002 -0.109001,0.25612 -0.195338,0.529926 -0.259766,0.814453 0,0 0,0.002 0,0.002 -0.193277,0.854952 -0.188441,1.802273 0,2.630859 0.0626,0.27643 0.144991,0.539321 0.248047,0.78125 0,0 0,0.002 0,0.002 0.05782,0.135797 0.136843,0.246081 0.207031,0.367187 0.0546,0.0941 0.0982,0.201383 0.160156,0.285156 0,0 0.002,0.002 0.002,0.002 0.07058,0.09522 0.146592,0.183722 0.226562,0.263672 0,0 0,0.002 0,0.002 0.08058,0.08047 0.165873,0.151815 0.25586,0.214844 l 1.220703,0.853516 -1.234375,2.542969 -1.236328,2.542968 -1.910157,-1.677734 c -0.771515,-0.677399 -1.647383,-1.201474 -2.585937,-1.56836 -0.468714,-0.183162 -0.95369,-0.326807 -1.449219,-0.43164 0,0 -0.002,0 -0.002,0 -0.247462,-0.0523 -0.497765,-0.09619 -0.75,-0.128906 0,0 -0.002,0 -0.002,0 -0.252243,-0.03267 -0.505978,-0.05532 -0.761719,-0.06836 0,0 -0.002,0 -0.002,0 -0.255752,-0.01299 -0.515547,-0.01645 -0.773438,-0.0098 -0.2579,0.0067 -0.518442,0.02427 -0.777343,0.05078 -1.297572,0.133421 -2.603647,0.515752 -3.833985,1.15039 -0.246281,0.127089 -0.488681,0.264742 -0.728515,0.41211 -0.510951,0.313957 -0.940345,0.643427 -1.314454,1.041016 0,0 -0.002,0.002 -0.002,0.002 -0.18635,0.198252 -0.359756,0.414337 -0.521484,0.652343 -0.16194,0.238301 -0.313313,0.499592 -0.457031,0.791016 0,0 0,0.002 0,0.002 -0.143447,0.291028 -0.280841,0.610378 -0.41211,0.966797 0,0 0,0.002 0,0.002 -0.131283,0.356603 -0.257461,0.748979 -0.382812,1.183594 0,0 0,0.002 0,0.002 -0.251079,0.870237 -0.496826,1.908713 -0.761719,3.167969 -0.229397,1.090519 -0.4898174,2.095931 -0.7871092,3.033203 -0.297698,0.93714 -0.6330798,1.805878 -1.0136719,2.623047 -0.5708882,1.225753 -1.2421117,2.334957 -2.0429688,3.382812 -0.2671158,0.349271 -0.549133,0.691523 -0.8457031,1.029297 -0.3078109,0.350577 -0.566187,0.678843 -0.7792969,0.998047 -0.1066425,0.159527 -0.2019785,0.315566 -0.2871093,0.472656 0,0 0,0.002 0,0.002 -0.085086,0.157153 -0.1595214,0.312405 -0.2246094,0.470704 -0.065032,0.158283 -0.1195204,0.317372 -0.1660156,0.480468 0,0 0,0.002 0,0.002 C 4.0601019,80.96337 3.9994157,81.482335 4,82.078125 c 0.00365,3.767308 2.4644118,6.493689 6.419922,7.480469 0.65927,0.164454 1.359869,0.281172 2.097656,0.345703 0.737854,0.0646 1.512764,0.07688 2.320313,0.03516 1.720132,-0.08886 2.609583,-0.123412 3.068359,0.02539 0.02485,0.0081 0.02253,0.03186 0.04492,0.04102 0.0014,-0.0049 0.0025,-0.0087 0.0039,-0.01367 0.401369,0.158239 0.438025,0.482983 0.4375,1.099609 -0.0028,3.26394 4.313895,7.798828 7.423828,7.798828 0.209501,0 0.362955,0.03951 0.47461,0.128906 -0.09684,0.0012 -0.169329,0.0023 -0.267578,0.0039 0.181796,0.05137 0.389527,0.06744 0.445312,0.283203 0.08224,0.316314 0.03881,0.849239 -0.09961,1.714839 -0.151836,0.94955 -0.119086,1.82733 0.123047,2.6875 0.08075,0.28633 0.184397,0.57088 0.3125,0.85547 2.57e-4,5.8e-4 -2.58e-4,0.001 0,0.002 0.12796,0.28409 0.280177,0.56753 0.457031,0.85351 0.531331,0.85961 1.287606,1.73575 2.292969,2.68164 0.242951,0.22859 0.500603,0.45449 0.769531,0.67578 3.85e-4,3.2e-4 0.0016,-3.1e-4 0.002,0 0.537522,0.44224 1.115529,0.86551 1.693359,1.24219 4.44e-4,2.9e-4 0.0015,-2.9e-4 0.002,0 0.288651,0.18813 0.578444,0.36662 0.861328,0.5293 0.479111,0.27561 0.933744,0.49876 1.355469,0.67773 0.07663,0.0325 0.160638,0.0747 0.234375,0.10352 5.14e-4,2e-4 0.0014,-2e-4 0.002,0 0.479288,0.18681 0.89472,0.29297 1.203125,0.29297 0.402959,0 1.848005,1.47614 3.210938,3.28125 0.917447,1.21506 1.654354,2.14609 2.386719,2.86718 3.16e-4,3.2e-4 -3.17e-4,0.002 0,0.002 0.183079,0.18024 0.365659,0.34704 0.550781,0.50195 0.185122,0.15491 0.371814,0.29778 0.564453,0.42969 0.19309,0.13243 0.391532,0.2536 0.597656,0.36523 0.205631,0.11124 0.418481,0.21178 0.642578,0.30469 1.793039,0.74419 4.262914,0.93382 8.808594,1.14844 2.012399,0.095 3.599288,0.1848 4.949219,0.31445 1.217848,0.11696 2.233099,0.27534 3.203125,0.49023 0.104562,0.0232 0.218795,0.0378 0.322265,0.0625 6.05e-4,1.5e-4 0.0013,-1.4e-4 0.002,0 0.531323,0.12717 1.04957,0.27602 1.580078,0.45118 6.06e-4,2e-4 0.0013,-2e-4 0.002,0 0.143275,0.0473 0.299925,0.11467 0.445312,0.16601 0.932142,0.32903 1.904904,0.72586 3.064453,1.25391 0.670233,0.30522 1.398553,0.64807 2.208985,1.03516 1.37992,0.65908 2.683959,1.13572 3.8125,1.41406 0.376158,0.0929 0.733058,0.16457 1.066406,0.21289 0.307385,0.0446 0.590417,0.0649 0.855469,0.0703 0.02239,4.6e-4 0.0502,0.006 0.07227,0.006 0.847531,0.008 1.452705,-0.1923 1.71289,-0.61328 0.07167,-0.11596 0.0985,-0.24186 0.08203,-0.375 -7.4e-5,-5.9e-4 7.6e-5,-0.001 0,-0.002 -0.03394,-0.26749 -0.243615,-0.56611 -0.617187,-0.89258 -0.186815,-0.16326 -0.41575,-0.33433 -0.683594,-0.50977 -6.7e-4,-4.4e-4 -0.0013,-0.002 -0.002,-0.002 -1.073431,-0.70258 -2.784918,-1.49522 -5.052734,-2.32422 -2.207516,-0.80696 -4.013672,-1.54618 -4.013672,-1.64258 0,-0.0965 -0.144456,-0.54954 -0.320313,-1.00781 -0.06032,-0.1572 -0.08959,-0.30378 -0.08008,-0.44141 0.0095,-0.13762 0.05722,-0.2669 0.152344,-0.39062 0.19025,-0.24745 0.568,-0.47136 1.195312,-0.69727 0.627338,-0.22588 1.504751,-0.45313 2.695313,-0.70312 1.190545,-0.24979 2.694271,-0.52272 4.574219,-0.8418 3.758434,-0.6379 7.904917,-1.63344 9.214843,-2.21289 1.309925,-0.57944 3.216959,-1.2326 4.238282,-1.45117 0.288218,-0.0617 0.554508,-0.12769 0.800781,-0.19727 0.247308,-0.0699 0.47297,-0.14349 0.679687,-0.22265 0.410841,-0.15734 0.745244,-0.33513 1.00586,-0.53711 0.522328,-0.40481 0.755859,-0.90893 0.755859,-1.55664 0,-0.19851 -0.03051,-0.37616 -0.08984,-0.53321 -0.02946,-0.0784 -0.06665,-0.15086 -0.109375,-0.21875 -0.04273,-0.0678 -0.09147,-0.13032 -0.146484,-0.1875 -0.220019,-0.22875 -0.534654,-0.37268 -0.912109,-0.42578 -0.377456,-0.0531 -0.818707,-0.0161 -1.291016,0.11524 -0.236154,0.0657 -0.480509,0.15563 -0.728516,0.26953 -0.248147,0.11346 -0.499663,0.25174 -0.751953,0.41406 -0.635368,0.40878 -1.383675,0.84231 -2.169922,1.26953 -0.840304,0.45629 -1.728968,0.90741 -2.595703,1.31641 -1.679188,0.79203 -3.266563,1.42849 -4.214844,1.65039 l -1.662109,0.38867 1.523438,-1.22461 c 1.180288,-0.94929 1.618161,-2.22728 1.333984,-3.76172 -0.04046,-0.2191 -0.09619,-0.44255 -0.166016,-0.67187 -0.139679,-0.45862 -0.3375,-0.93669 -0.59375,-1.4336 -0.256027,-0.49647 -0.572011,-1.01169 -0.943359,-1.54297 -2.89e-4,-4.1e-4 2.89e-4,-0.002 0,-0.002 -0.371771,-0.53177 -0.800867,-1.07938 -1.287109,-1.64258 -0.486243,-0.56319 -1.029242,-1.14123 -1.628907,-1.73242 -1.012313,-0.99801 -3.320905,-2.538877 -5.925781,-4.074218 -4.81e-4,-2.83e-4 -0.0015,2.84e-4 -0.002,0 -2.606246,-1.536078 -5.507475,-3.066003 -7.705078,-4.044921 -0.731859,-0.326004 -1.385469,-0.591844 -1.923828,-0.775391 -6.74e-4,-2.29e-4 -0.0013,2.29e-4 -0.002,0 -0.269314,-0.09178 -0.509744,-0.162494 -0.716797,-0.210938 -0.207151,-0.04839 -0.380029,-0.07422 -0.515625,-0.07422 -0.270031,0 -0.493835,-0.01383 -0.673828,-0.04297 -0.268038,-0.04339 -0.437449,-0.120562 -0.50586,-0.228516 -0.02253,-0.03554 -0.03427,-0.07465 -0.03516,-0.117187 -6e-6,-5.69e-4 2e-6,-0.0014 0,-0.002 -0.0011,-0.0866 0.04277,-0.187296 0.130859,-0.302735 0.0086,-0.0113 0.06865,-0.03921 0.07813,-0.05078 -0.01767,0.0074 -0.0274,0.01222 -0.04492,0.01953 0.373774,-0.461552 1.421221,-1.141302 3.164062,-2.044922 7.865573,-4.078098 12.620177,-10.98807 14.603516,-21.222656 1.09722,-5.662036 1.354076,-7.040014 1.902343,-6.580078 0.190659,0.159942 0.415113,0.522319 0.72461,1.03125 0.56027,0.921288 2.822629,3.149195 5.029297,4.951172 5.584115,4.560004 8.422663,8.800599 7.195312,10.75 -0.389429,0.618536 -1.4093,0.798811 -4,0.707031 -3.712554,-0.131516 -6.523437,0.641563 -6.523437,1.792969 0,1.137065 1.542231,1.409119 4.322265,0.761719 1.428467,-0.332654 5.836618,-0.65687 9.794922,-0.71875 8.778602,-0.137234 10.516612,-0.757733 14.794922,-5.291016 3.04555,-3.227063 5.38231,-4.420111 8.73242,-4.457031 2.42116,-0.02667 6.08985,-2.016235 6.08985,-3.302734 0,-1.305544 -1.13592,-1.892579 -3.66602,-1.892579 -1.28695,0 -2.47624,0.664159 -4.58984,2.564453 -3.54185,3.184427 -6.03084,4.123024 -8.19727,3.087891 -2.74471,-1.311444 -2.4507,-4.079574 0.98242,-9.220703 1.24404,-1.86296 2.10571,-3.641068 1.91407,-3.951172 -0.60994,-0.986896 -5.00228,-0.665178 -6.00196,0.439453 -0.74717,0.825592 -0.79728,1.296275 -0.2832,2.658203 0.82029,2.173198 0.17262,6.377168 -1.26367,8.203125 -2.198456,2.794862 -7.411146,1.119334 -10.701175,-3.439453 -1.036443,-1.436129 -3.054213,-3.584257 -4.484375,-4.773437 -1.605138,-1.334684 -3.091205,-3.241432 -3.880859,-4.982422 -1.054862,-2.32571 -1.533971,-3.56096 -1.472657,-4.708985 0.08116,-1.519685 1.209587,-2.854912 4.191407,-6.048828 5.592091,-5.989868 5.80128,-6.641668 6.027343,-18.912109 0.143419,-7.784393 0.100101,-8.128482 -1.404296,-11.349609 C 87.27894,11.703252 84.252506,8.3572414 81.503906,7.1933594 79.519054,6.3528799 77.487036,5.9543239 75.023438,6.0039062 Z"
     id="path1495"
     inkscape:connector-curvature="0" />
  <path
     style="fill:#1a5fb4;stroke-width:1;fill-opacity:1"
     d="M 80.271484 49.882812 C 79.956563 49.284967 79.173762 47.796738 79.128906 47.707031 C 79.074708 47.598636 78.640625 47.246094 78.640625 47.246094 C 78.640625 47.246094 77.530017 47.353768 77.177734 47.597656 C 76.825451 47.841544 75.983887 48.573246 75.929688 48.681641 C 75.87549 48.790036 74.981442 50.281258 74.873047 50.498047 C 74.764653 50.714837 74.249756 53.098398 74.222656 53.396484 C 74.195556 53.694569 74.169922 55.673353 74.169922 56.052734 C 74.169922 56.432116 74.819584 57.624769 74.955078 58.03125 C 75.090571 58.43773 75.6875 59.521484 75.6875 59.521484 C 75.6875 59.521484 75.753421 59.668755 75.755859 59.673828 C 75.946518 59.83377 76.170972 60.196147 76.480469 60.705078 C 77.040739 61.626366 79.303098 63.854273 81.509766 65.65625 C 87.093881 70.216254 89.932429 74.456849 88.705078 76.40625 C 88.315649 77.024786 87.295778 77.205061 84.705078 77.113281 C 80.992524 76.981765 78.181641 77.754844 78.181641 78.90625 C 78.181641 80.043315 79.723872 80.315369 82.503906 79.667969 C 83.932373 79.335315 88.340524 79.011099 92.298828 78.949219 C 101.07743 78.811985 102.81544 78.191486 107.09375 73.658203 C 110.1393 70.43114 112.47606 69.238092 115.82617 69.201172 C 118.24733 69.174505 121.91602 67.184937 121.91602 65.898438 C 121.91602 64.592895 120.7801 64.005859 118.25 64.005859 C 116.96305 64.005859 115.77376 64.670017 113.66016 66.570312 C 110.11831 69.754739 107.62932 70.693336 105.46289 69.658203 C 102.71818 68.346759 103.01219 65.578629 106.44531 60.4375 C 107.68935 58.57454 108.55102 56.796432 108.35938 56.486328 C 107.74944 55.499432 103.3571 55.82115 102.35742 56.925781 C 101.61025 57.751373 101.56014 58.222056 102.07422 59.583984 C 102.89451 61.757182 102.24684 65.961152 100.81055 67.787109 C 98.612097 70.581971 93.399404 68.906443 90.109375 64.347656 C 89.072932 62.911527 87.055162 60.763399 85.625 59.574219 C 84.019862 58.239535 82.533795 56.332787 81.744141 54.591797 C 80.689279 52.266087 80.21017 51.030836 80.271484 49.882812 z "
     id="path1483" />
  <path
     style="fill:#1c71d8;stroke-width:1;fill-opacity:1"
     d="M 75.023438 4.0039062 C 72.559839 4.0534887 69.663873 4.552663 65.951172 5.5078125 C 62.173102 6.4797785 58.542386 7.6246734 57.882812 8.0527344 C 57.223222 8.4807964 56.153565 10.24741 55.505859 11.978516 C 53.931949 16.185164 44.392918 34.182396 41.164062 39.037109 C 38.76877 42.638513 38.260928 43.069792 33.972656 45.138672 C 31.434757 46.363084 29.007533 47.843161 28.580078 48.427734 C 27.338073 50.126289 27.583657 53.493494 29.023438 54.501953 L 30.244141 55.355469 L 29.009766 57.898438 L 27.773438 60.441406 L 25.863281 58.763672 C 22.777222 56.054076 18.034624 55.812041 14.197266 58.169922 C 12.153462 59.425752 11.405276 60.943447 10.345703 65.980469 C 9.4281143 70.342548 8.0288108 73.346635 5.65625 76.048828 C 4.4250063 77.451137 3.99844 78.48739 4 80.078125 C 4.0048614 85.101203 8.3774988 88.273213 14.837891 87.939453 C 18.278156 87.761722 18.393678 87.799802 18.392578 89.091797 C 18.389741 92.355737 22.706473 96.890625 25.816406 96.890625 C 26.540821 96.890625 26.64598 97.290283 26.369141 99.021484 C 25.964245 101.55361 26.875307 103.58066 29.554688 106.10156 C 31.498304 107.93022 34.442477 109.62305 35.677734 109.62305 C 36.080693 109.62305 37.525739 111.09919 38.888672 112.9043 C 42.55846 117.76456 43.350906 118.09434 52.439453 118.52344 C 60.489049 118.9035 61.733343 119.20019 68.216797 122.29688 C 71.896584 124.05443 75.041912 124.5103 75.736328 123.38672 C 76.312531 122.45439 73.998523 120.93925 69.462891 119.28125 C 67.255375 118.47429 65.449219 117.73507 65.449219 117.63867 C 65.449219 117.54222 65.304763 117.08913 65.128906 116.63086 C 64.646332 115.37328 66.146224 114.83294 73.666016 113.55664 C 77.42445 112.91874 81.570933 111.9232 82.880859 111.34375 C 84.190784 110.76431 86.097818 110.11115 87.119141 109.89258 C 89.424887 109.39914 90.361328 108.67434 90.361328 107.37891 C 90.361328 105.79645 88.350351 105.51396 86.332031 106.8125 C 83.70116 108.50513 79.248124 110.60504 77.351562 111.04883 L 75.689453 111.4375 L 77.212891 110.21289 C 79.909641 108.04394 78.72505 104.15532 73.927734 99.425781 C 71.227714 96.763903 59.306261 90.246094 57.136719 90.246094 C 54.985844 90.246094 55.691453 89.32158 59.25 87.476562 C 67.115573 83.398463 71.870177 76.488492 73.853516 66.253906 C 74.950736 60.59187 75.207592 59.213892 75.755859 59.673828 C 75.753421 59.668755 75.6875 59.521484 75.6875 59.521484 C 75.6875 59.521484 75.090571 58.43773 74.955078 58.03125 C 74.819584 57.624769 74.169922 56.432116 74.169922 56.052734 C 74.169922 55.673353 74.195556 53.694569 74.222656 53.396484 C 74.249756 53.098398 74.764653 50.714837 74.873047 50.498047 C 74.981442 50.281258 75.87549 48.790036 75.929688 48.681641 C 75.983887 48.573246 76.825451 47.841544 77.177734 47.597656 C 77.530017 47.353768 78.640625 47.246094 78.640625 47.246094 C 78.640625 47.246094 79.074708 47.598636 79.128906 47.707031 C 79.173762 47.796738 79.956563 49.284967 80.271484 49.882812 C 80.352648 48.363127 81.481071 47.0279 84.462891 43.833984 C 90.054982 37.844116 90.264171 37.192316 90.490234 24.921875 C 90.633653 17.137482 90.590335 16.793393 89.085938 13.572266 C 87.27894 9.7032523 84.252506 6.3572414 81.503906 5.1933594 C 79.519054 4.3528799 77.487036 3.9543238 75.023438 4.0039062 z "
     id="path817" />
  <path
     style="fill:#1a5fb4;stroke:none;stroke-width:1px;stroke-linecap:butt;stroke-linejoin:miter;stroke-opacity:1;fill-opacity:1"
     d="M 27.773438 60.441406 L 25.863281 58.763672 C 25.091767 58.086273 24.215942 57.562096 23.277344 57.195312 C 22.338746 56.828529 21.336143 56.618507 20.310547 56.566406 C 19.284951 56.514306 18.237588 56.620068 17.205078 56.886719 C 16.172568 57.15337 15.156605 57.580452 14.197266 58.169922 C 13.686315 58.483879 13.254932 58.815428 12.880859 59.212891 C 12.506787 59.610354 12.18978 60.073402 11.902344 60.65625 C 11.327471 61.821946 10.87549 63.461958 10.345703 65.980469 C 9.8869087 68.161508 9.3061061 70.002381 8.5449219 71.636719 C 7.7837377 73.271057 6.8425304 74.697732 5.65625 76.048828 C 5.0406281 76.749983 4.6253639 77.359053 4.3652344 77.992188 C 4.1051048 78.625322 3.99922 79.282758 4 80.078125 C 4.0012153 81.333894 4.2755093 82.474143 4.7871094 83.472656 C 5.2987095 84.47117 6.0473381 85.328018 6.9980469 86.017578 C 7.9487556 86.707138 9.1013805 87.229685 10.419922 87.558594 C 11.738463 87.887502 13.222793 88.022893 14.837891 87.939453 C 16.558023 87.850588 17.447491 87.816206 17.90625 87.964844 C 17.931104 87.972897 17.928779 87.996707 17.951172 88.005859 C 18.824295 84.933661 19.697505 81.835533 20.392578 79.490234 C 21.45508 75.905166 22.227491 73.132914 22.996094 70.986328 C 23.764697 68.839742 24.030823 68.322791 24.818359 66.560547 C 25.605895 64.798303 26.868948 62.308632 27.773438 60.441406 z "
     id="path1448" />
  <path
     style="fill:#1a5fb4;stroke:none;stroke-width:1px;stroke-linecap:butt;stroke-linejoin:miter;stroke-opacity:1;fill-opacity:1"
     d="M 40.21875 40.224609 C 39.569957 41.129964 38.924692 42.114857 38.277344 42.664062 C 37.31484 43.480643 36.116792 44.104232 33.972656 45.138672 C 31.434757 46.363084 29.007533 47.843161 28.580078 48.427734 C 28.269577 48.852373 28.05294 49.383003 27.923828 49.953125 C 27.794717 50.523247 27.753782 51.132794 27.796875 51.722656 C 27.839968 52.312518 27.965763 52.881375 28.171875 53.365234 C 28.377987 53.849094 28.663492 54.249838 29.023438 54.501953 L 30.244141 55.355469 C 31.139485 53.654711 32.178898 51.745796 33.150391 50.246094 C 34.121884 48.746392 34.733342 48.142698 36.013672 46.339844 C 37.141597 44.751594 39.557461 41.413219 40.21875 40.224609 z "
     id="path1441" />
  <path
     style="fill:#1a5fb4;stroke:none;stroke-width:1px;stroke-linecap:butt;stroke-linejoin:miter;stroke-opacity:1;fill-opacity:1"
     d="M 26.023438 97.023438 C 26.205235 97.074805 26.412965 97.090875 26.46875 97.306641 C 26.550535 97.622971 26.50756 98.155884 26.369141 99.021484 C 26.267917 99.654515 26.247895 100.25629 26.318359 100.8418 C 26.388824 101.4273 26.548482 101.99526 26.804688 102.56445 C 27.317098 103.70284 28.214997 104.84111 29.554688 106.10156 C 30.526496 107.01589 31.749525 107.8969 32.882812 108.54883 C 34.0161 109.20076 35.060106 109.62305 35.677734 109.62305 C 36.080693 109.62305 37.525739 111.09919 38.888672 112.9043 C 39.806119 114.11936 40.543074 115.05248 41.275391 115.77344 C 42.007707 116.4944 42.734471 117.00337 43.630859 117.375 C 44.527247 117.74663 45.594245 117.98137 47.003906 118.14844 C 48.413568 118.3155 50.167316 118.41616 52.439453 118.52344 C 56.464251 118.71347 58.786229 118.88158 60.914062 119.39062 C 63.041896 119.89967 64.97507 120.74854 68.216797 122.29688 C 70.05669 123.17565 71.76231 123.73057 73.095703 123.92383 C 73.7624 124.02046 74.336979 124.02529 74.787109 123.9375 C 75.23724 123.84971 75.562724 123.66761 75.736328 123.38672 C 75.880379 123.15364 75.843649 122.88498 75.636719 122.58594 C 75.429788 122.2869 75.054496 121.95868 74.517578 121.60742 C 73.443743 120.9049 71.730707 120.11025 69.462891 119.28125 C 67.255375 118.47429 65.449219 117.73507 65.449219 117.63867 C 65.449219 117.54222 65.304763 117.08913 65.128906 116.63086 C 65.008263 116.31646 65.010904 116.04626 65.201172 115.79883 C 65.39144 115.5514 65.769147 115.32745 66.396484 115.10156 C 67.651159 114.64979 69.90612 114.19479 73.666016 113.55664 C 77.42445 112.91874 81.570933 111.9232 82.880859 111.34375 C 84.190784 110.76431 86.097818 110.11115 87.119141 109.89258 C 88.272014 109.64586 89.083441 109.34055 89.605469 108.93555 C 90.127496 108.53054 90.361328 108.02662 90.361328 107.37891 C 90.361328 106.98329 90.235644 106.66821 90.015625 106.43945 C 89.795606 106.2107 89.480971 106.06677 89.103516 106.01367 C 88.72606 105.96057 88.284809 105.99754 87.8125 106.12891 C 87.340191 106.26027 86.836611 106.48786 86.332031 106.8125 C 85.016596 107.65881 83.245729 108.60599 81.566406 109.39844 C 79.887083 110.19088 78.299843 110.82693 77.351562 111.04883 L 75.689453 111.4375 L 77.212891 110.21289 C 77.887078 109.67065 78.318472 109.02087 78.511719 108.27734 C 78.704966 107.53382 78.660179 106.69661 78.380859 105.7793 C 78.10154 104.86198 77.587261 103.86633 76.84375 102.80273 C 76.100239 101.73913 75.127063 100.60817 73.927734 99.425781 C 73.252729 98.760312 72.00201 97.854452 70.470703 96.869141 C 68.939397 95.883829 67.128621 94.818905 65.333984 93.837891 C 63.539347 92.856877 61.759919 91.959217 60.294922 91.306641 C 58.829925 90.654064 57.679104 90.246094 57.136719 90.246094 C 56.599 90.246094 56.239207 90.189882 56.058594 90.074219 C 55.877981 89.958556 55.87642 89.783828 56.052734 89.552734 C 56.061353 89.541438 56.121388 89.513525 56.130859 89.501953 C 54.479054 90.190468 53.481519 90.646159 52.154297 91.119141 C 49.518805 92.058351 46.340525 92.94137 44.257812 93.548828 C 42.175101 94.156286 38.702963 94.849305 36.707031 95.283203 C 34.711099 95.717101 28.983838 96.760035 28.636719 96.933594 C 28.45649 97.023708 27.279844 97.002607 26.023438 97.023438 z "
     id="path1450" />
</svg>
