<?xml version="1.0" encoding="UTF-8" standalone="no"?>
<svg
   xmlns:dc="http://purl.org/dc/elements/1.1/"
   xmlns:cc="http://creativecommons.org/ns#"
   xmlns:rdf="http://www.w3.org/1999/02/22-rdf-syntax-ns#"
   xmlns:svg="http://www.w3.org/2000/svg"
   xmlns="http://www.w3.org/2000/svg"
   xmlns:xlink="http://www.w3.org/1999/xlink"
   xmlns:sodipodi="http://sodipodi.sourceforge.net/DTD/sodipodi-0.dtd"
   xmlns:inkscape="http://www.inkscape.org/namespaces/inkscape"
   height="128"
   viewBox="-54 0 95.999995 95.999995"
   width="128"
   version="1.1"
   id="svg34"
   sodipodi:docname="wine.svg"
   inkscape:version="0.92.3 (2405546, 2018-03-11)">
  <metadata
     id="metadata40">
    <rdf:RDF>
      <cc:Work
         rdf:about="">
        <dc:format>image/svg+xml</dc:format>
        <dc:type
           rdf:resource="http://purl.org/dc/dcmitype/StillImage" />
        <dc:title></dc:title>
      </cc:Work>
    </rdf:RDF>
  </metadata>
  <defs
     id="defs38">
    <linearGradient
       id="linearGradient1007"
       inkscape:collect="always">
      <stop
         id="stop1003"
         offset="0"
         style="stop-color:#da1636;stop-opacity:1" />
      <stop
         id="stop1005"
         offset="1"
         style="stop-color:#bc1938;stop-opacity:1" />
    </linearGradient>
    <linearGradient
       inkscape:collect="always"
       id="linearGradient2448">
      <stop
         style="stop-color:#cbd3ce;stop-opacity:0.99607843"
         offset="0"
         id="stop2444" />
      <stop
         id="stop2452"
         offset="0.24585883"
         style="stop-color:#e5dedb;stop-opacity:0.99607843" />
      <stop
         style="stop-color:#e7e0dd;stop-opacity:0.99607843"
         offset="0.72962648"
         id="stop2454" />
      <stop
         style="stop-color:#ccd4cf;stop-opacity:0.99607843"
         offset="1"
         id="stop2446" />
    </linearGradient>
    <linearGradient
       inkscape:collect="always"
       id="linearGradient2440">
      <stop
         style="stop-color:#bc0111;stop-opacity:1"
         offset="0"
         id="stop2436" />
      <stop
         style="stop-color:#7b0619;stop-opacity:1"
         offset="1"
         id="stop2438" />
    </linearGradient>
    <filter
       style="color-interpolation-filters:sRGB"
       id="filter5415"
       width="1.1289999"
       height="1.076"
       x="-0.07"
       y="-0.039999999">
      <feGaussianBlur
         id="feGaussianBlur41"
         stdDeviation="2.813" />
    </filter>
    <linearGradient
       id="linearGradient1674"
       x1="285"
       x2="301"
       y1="102"
       y2="102"
       gradientUnits="userSpaceOnUse"
       xlink:href="#linearGradient1672" />
    <linearGradient
       id="linearGradient1672">
      <stop
         style="stop-color:#e7e7e7"
         id="stop7"
         offset="0" />
      <stop
         style="stop-color:#ffffff"
         id="stop9"
         offset="1" />
    </linearGradient>
    <linearGradient
       id="linearGradient1665"
       x1="-223.246"
       x2="-207.24699"
       y1="206.87399"
       y2="206.87399"
       gradientUnits="userSpaceOnUse"
       xlink:href="#linearGradient1663" />
    <linearGradient
       id="linearGradient1663">
      <stop
         style="stop-color:#3b3b3b"
         id="stop12"
         offset="0" />
      <stop
         style="stop-color:#4f4f4f"
         id="stop14"
         offset="1" />
    </linearGradient>
    <radialGradient
       inkscape:collect="always"
       xlink:href="#linearGradient2440"
       id="radialGradient2442"
       cx="114.31657"
       cy="92.883667"
       fx="114.31657"
       fy="92.883667"
       r="30.582441"
       gradientTransform="matrix(1,0,0,1.4740746,0,-44.03379)"
       gradientUnits="userSpaceOnUse" />
    <linearGradient
       inkscape:collect="always"
       xlink:href="#linearGradient2448"
       id="linearGradient2450"
       x1="105.54765"
       y1="153.11931"
       x2="146.99686"
       y2="25.106585"
       gradientUnits="userSpaceOnUse" />
    <radialGradient
       inkscape:collect="always"
       xlink:href="#linearGradient2448"
       id="radialGradient2464"
       cx="126.60915"
       cy="178.43213"
       fx="126.60915"
       fy="178.43213"
       r="38.285027"
       gradientTransform="matrix(-0.54376533,-0.015042,0.00789049,-0.2852395,175.66049,236.17759)"
       gradientUnits="userSpaceOnUse" />
    <filter
       style="color-interpolation-filters:sRGB"
       id="filter5415-3"
       width="1.1289999"
       height="1.076"
       x="-0.07"
       y="-0.039999999">
      <feGaussianBlur
         id="feGaussianBlur41-6"
         stdDeviation="2.813" />
    </filter>
    <linearGradient
       id="linearGradient1665-3"
       x1="-223.246"
       x2="-207.24699"
       y1="206.87399"
       y2="206.87399"
       gradientUnits="userSpaceOnUse"
       xlink:href="#linearGradient1663" />
    <linearGradient
       x1="-28.128548"
       y1="34.637081"
       x2="15.779508"
       y2="34.637081"
       id="linearGradient23960-3"
       xlink:href="#linearGradient16837"
       gradientUnits="userSpaceOnUse"
       gradientTransform="matrix(1.9985292,0,0,1.9559694,-63.520018,3.7454272)" />
    <linearGradient
       id="linearGradient16837">
      <stop
         style="stop-color:#830000;stop-opacity:1"
         offset="0"
         id="stop16839" />
      <stop
         style="stop-color:#830000;stop-opacity:0"
         offset="1"
         id="stop16841" />
    </linearGradient>
    <radialGradient
       inkscape:collect="always"
       xlink:href="#linearGradient1007"
       id="radialGradient1630"
       cx="-89.053513"
       cy="70.980476"
       fx="-89.053513"
       fy="70.980476"
       r="31.019505"
       gradientTransform="matrix(0.9814681,0,0,1.0807851,-1.0754802,-6.3671845)"
       gradientUnits="userSpaceOnUse" />
    <filter
       style="color-interpolation-filters:sRGB"
       id="filter5415-36"
       width="1.1289999"
       height="1.076"
       x="-0.07"
       y="-0.039999999">
      <feGaussianBlur
         id="feGaussianBlur41-7"
         stdDeviation="2.813" />
    </filter>
  </defs>
  <sodipodi:namedview
     pagecolor="#ffffff"
     bordercolor="#666666"
     borderopacity="1"
     objecttolerance="10"
     gridtolerance="10"
     guidetolerance="10"
     inkscape:pageopacity="0"
     inkscape:pageshadow="2"
     inkscape:window-width="1920"
     inkscape:window-height="1009"
     id="namedview36"
     showgrid="false"
     units="px"
     inkscape:zoom="2.3269882"
     inkscape:cx="127.68897"
     inkscape:cy="124.24614"
     inkscape:window-x="0"
     inkscape:window-y="34"
     inkscape:window-maximized="1"
     inkscape:current-layer="svg34">
    <inkscape:grid
       type="xygrid"
       id="grid2404" />
  </sodipodi:namedview>
  <path
     style="fill:none;stroke:#000000;stroke-width:0.74999994px;stroke-linecap:butt;stroke-linejoin:miter;stroke-opacity:1"
     d="M 33.629645,-85.86921 Z"
     id="path2408"
     inkscape:connector-curvature="0" />
  <g
     transform="matrix(-1,0,0,1,11.141811,-103.59233)"
     id="g1843"
     style="fill:#3d3846;fill-opacity:1;opacity:0.6">
    <g
       style="enable-background:new;fill:#3d3846;fill-opacity:1"
       transform="matrix(0.37018243,0,0,0.37018243,398.8381,96.843269)"
       id="g1841">
      <g
         style="enable-background:new;fill:#3d3846;fill-opacity:1"
         transform="matrix(-1,0,0,1,299.39682,36.348543)"
         id="g1839">
        <g
           transform="rotate(28.009195,252.75866,554.38484)"
           id="g1837"
           style="fill:#3d3846;fill-opacity:1">
          <g
             id="g1835"
             style="fill:#3d3846;fill-opacity:1">
            <g
               id="g1833"
               style="fill:#3d3846;fill-opacity:1"
               transform="translate(772.98988,-537.2549)">
              <g
                 id="g1827"
                 transform="matrix(2.3849653,-1.2685995,1.2685995,2.3849653,180.53793,79.615581)"
                 style="fill:#3d3846;fill-opacity:1">
                <path
                   inkscape:connector-curvature="0"
                   d="M 26.552999,23.002013 C 11.668054,29.156105 4.5111351,25.696515 -1.9393392,21.355449 l -7.3432282,25.470778 c 6.4441588,4.365875 14.2240648,7.955391 28.5049704,1.562207 z"
                   style="fill:#3d3846;fill-opacity:1;stroke-width:0.45111361"
                   id="path1819" />
                <path
                   inkscape:connector-curvature="0"
                   style="fill:#3d3846;fill-opacity:1;stroke-width:0.45111361"
                   d="M -21.837059,74.205671 C -28.301969,69.854679 -35.329868,66.275995 -50.25,72.445426 l 7.305784,-25.518601 c 14.923292,-6.170332 22.09239,-2.678713 28.550983,1.698894 l -7.443826,25.579502 z"
                   id="path1821" />
                <path
                   inkscape:connector-curvature="0"
                   d="m -13.152671,44.019398 c -3.892208,-2.620971 -8.078091,-5.067359 -14.022867,-5.112471 -3.922433,-0.03022 -8.591459,1.084026 -14.518641,3.534927 l 7.345483,-25.452735 c 14.913367,-6.166272 22.076599,-2.676457 28.5306819,1.697992 z"
                   style="fill:#3d3846;fill-opacity:1;stroke-width:0.45111361"
                   id="path1823" />
                <path
                   inkscape:connector-curvature="0"
                   d="m -10.520873,51.081129 c 6.4567886,4.347386 13.6290441,7.810136 28.52978,1.651077 l -7.344581,25.367925 c -14.9034427,6.16402 -22.060811,2.673301 -28.510833,-1.700694 z"
                   style="fill:#3d3846;fill-opacity:1;stroke-width:0.45111361"
                   id="path1825" />
              </g>
              <path
                 d="m 127.70024,99.595712 c -1.36281,0.0877 -2.33896,0.399977 -2.74351,0.982348 -5.76484,14.94483 -12.97495,35.06078 -8.33092,46.72714 4.57924,11.50365 3.40611,15.71978 0.53531,22.49583 -4.71652,11.13263 -10.19769,3.85394 -18.334716,6.31979 -8.296479,2.51417 39.094246,19.08074 33.056036,11.46076 -6.23737,-7.87129 -14.24127,-6.36524 -11.37556,-17.22388 3.06234,-11.6037 4.25457,-9.75383 15.25663,-18.20624 11.25763,-8.64875 13.28255,-27.83218 18.33472,-42.14284 -0.42819,-4.85795 -19.03878,-10.886489 -26.39799,-10.412908 z"
                 style="opacity:1;fill:#3d3846;fill-opacity:1;fill-rule:evenodd;stroke:none;stroke-width:1.05917943px;stroke-linecap:butt;stroke-linejoin:miter;stroke-opacity:1"
                 id="path1829"
                 inkscape:connector-curvature="0"
                 sodipodi:nodetypes="scsssssscs"
                 transform="matrix(-2.3849653,1.2685995,1.2685995,2.3849653,382.10644,-327.67008)" />
              <path
                 d="m 118.67866,147.54357 c 2.30638,4.71617 9.31818,7.91354 14.58484,4.66516 8.39894,-5.1803 12.42751,-18.36262 16.17067,-31.34276 -1.94253,-2.47282 -6.17182,-4.71711 -14.88288,0.23441 -9.09305,5.16865 -10.95092,-1.57255 -14.03482,-3.49089 -4.41428,13.08087 -4.68933,23.41596 -1.83781,29.93408 z"
                 style="fill:#3d3846;fill-opacity:1;fill-rule:evenodd;stroke:none;stroke-width:1.03955078px;stroke-linecap:butt;stroke-linejoin:miter;stroke-opacity:1"
                 id="path1831"
                 inkscape:connector-curvature="0"
                 sodipodi:nodetypes="cscscc"
                 transform="matrix(-2.3849653,1.2685995,1.2685995,2.3849653,382.10644,-327.67008)" />
            </g>
          </g>
        </g>
      </g>
    </g>
    <g
       style="enable-background:new;fill:#3d3846;fill-opacity:1"
       transform="matrix(0.37018243,0,0,0.37018243,317.05709,37.127608)"
       id="g1817">
      <g
         style="enable-background:new;fill:#3d3846;fill-opacity:1"
         transform="matrix(-1,0,0,1,299.39682,36.348543)"
         id="g1815">
        <g
           transform="rotate(28.009195,252.75866,554.38484)"
           id="g1813"
           style="fill:#3d3846;fill-opacity:1">
          <g
             id="g1811"
             style="fill:#3d3846;fill-opacity:1" />
        </g>
      </g>
    </g>
  </g>
  <g
     id="g2533"
     transform="matrix(-1,0,0,1,136.68097,-98.069456)">
    <g
       style="enable-background:new"
       transform="matrix(0.37018243,0,0,0.37018243,178.348,47.111264)"
       id="g111">
      <g
         style="enable-background:new"
         transform="matrix(-1,0,0,1,299.39682,36.348543)"
         id="g109">
        <g
           transform="rotate(28.009195,252.75866,554.38484)"
           id="g107">
          <g
             id="g105">
            <g
               id="g1664">
              <g
                 id="g1646"
                 transform="matrix(2.3849653,-1.2685995,1.2685995,2.3849653,180.53793,79.615581)"
                 style="">
                <path
                   inkscape:connector-curvature="0"
                   d="M 26.552999,23.002013 C 11.668054,29.156105 4.5111351,25.696515 -1.9393392,21.355449 l -7.3432282,25.470778 c 6.4441588,4.365875 14.2240648,7.955391 28.5049704,1.562207 z"
                   style="fill:#2ec27e;fill-opacity:1;stroke-width:0.45111361"
                   id="path2693" />
                <path
                   inkscape:connector-curvature="0"
                   style="fill:#3584e4;fill-opacity:1;stroke-width:0.45111361"
                   d="M -21.837059,74.205671 C -28.301969,69.854679 -35.329868,66.275995 -50.25,72.445426 l 7.305784,-25.518601 c 14.923292,-6.170332 22.09239,-2.678713 28.550983,1.698894 l -7.443826,25.579502 z"
                   id="path2695" />
                <path
                   inkscape:connector-curvature="0"
                   d="m -13.152671,44.019398 c -3.892208,-2.620971 -8.078091,-5.067359 -14.022867,-5.112471 -3.922433,-0.03022 -8.591459,1.084026 -14.518641,3.534927 l 7.345483,-25.452735 c 14.913367,-6.166272 22.076599,-2.676457 28.5306819,1.697992 z"
                   style="fill:#e01b24;fill-opacity:1;stroke-width:0.45111361"
                   id="path2697" />
                <path
                   inkscape:connector-curvature="0"
                   d="m -10.520873,51.081129 c 6.4567886,4.347386 13.6290441,7.810136 28.52978,1.651077 l -7.344581,25.367925 c -14.9034427,6.16402 -22.060811,2.673301 -28.510833,-1.700694 z"
                   style="fill:#f6d32d;fill-opacity:1;stroke-width:0.45111361"
                   id="path2699" />
              </g>
              <path
                 d="m 127.70024,99.595712 c -1.36281,0.0877 -2.33896,0.399977 -2.74351,0.982348 -5.76484,14.94483 -12.97495,35.06078 -8.33092,46.72714 4.57924,11.50365 3.40611,15.71978 0.53531,22.49583 -4.71652,11.13263 -10.19769,3.85394 -18.334716,6.31979 -8.296479,2.51417 39.094246,19.08074 33.056036,11.46076 -6.23737,-7.87129 -14.24127,-6.36524 -11.37556,-17.22388 3.06234,-11.6037 4.25457,-9.75383 15.25663,-18.20624 11.25763,-8.64875 13.28255,-27.83218 18.33472,-42.14284 -0.42819,-4.85795 -19.03878,-10.886489 -26.39799,-10.412908 z"
                 style="opacity:1;fill:#f6f5f4;fill-opacity:1;fill-rule:evenodd;stroke:none;stroke-width:1.05917943px;stroke-linecap:butt;stroke-linejoin:miter;stroke-opacity:1"
                 id="path20995-3"
                 inkscape:connector-curvature="0"
                 sodipodi:nodetypes="scsssssscs"
                 transform="matrix(-2.3849653,1.2685995,1.2685995,2.3849653,382.10644,-327.67008)" />
              <path
                 d="m 118.67866,147.54357 c 2.30638,4.71617 9.31818,7.91354 14.58484,4.66516 8.39894,-5.1803 12.42751,-18.36262 16.17067,-31.34276 -1.94253,-2.47282 -6.17182,-4.71711 -14.88288,0.23441 -9.09305,5.16865 -10.95092,-1.57255 -14.03482,-3.49089 -4.41428,13.08087 -4.68933,23.41596 -1.83781,29.93408 z"
                 style="fill:#c01c28;fill-opacity:1;fill-rule:evenodd;stroke:none;stroke-width:1.03955078px;stroke-linecap:butt;stroke-linejoin:miter;stroke-opacity:1"
                 id="path14897-5"
                 inkscape:connector-curvature="0"
                 sodipodi:nodetypes="cscscc"
                 transform="matrix(-2.3849653,1.2685995,1.2685995,2.3849653,382.10644,-327.67008)" />
            </g>
          </g>
        </g>
      </g>
    </g>
    <g
       id="g1639"
       transform="matrix(0.37018243,0,0,0.37018243,317.05709,37.127608)"
       style="enable-background:new">
      <g
         id="g1637"
         transform="matrix(-1,0,0,1,299.39682,36.348543)"
         style="enable-background:new">
        <g
           id="g1635"
           transform="rotate(28.009195,252.75866,554.38484)">
          <g
             id="g1633" />
        </g>
      </g>
    </g>
    <g
       id="g1785"
       transform="matrix(0.37018243,0,0,0.37018243,178.348,47.111264)"
       style="enable-background:new">
      <g
         id="g1783"
         transform="matrix(-1,0,0,1,299.39682,36.348543)"
         style="enable-background:new">
        <g
           id="g1781"
           transform="rotate(28.009195,252.75866,554.38484)">
          <g
             id="g1779">
            <g
               id="g1777">
              <g
                 transform="matrix(2.3849653,-1.2685995,1.2685995,2.3849653,180.53793,79.615581)"
                 id="g1771"
                 style="">
                <path
                   id="path1763"
                   style="fill:#2ec27e;fill-opacity:1;stroke-width:0.45111361"
                   d="M 26.552999,23.002013 C 11.668054,29.156105 4.5111351,25.696515 -1.9393392,21.355449 l -7.3432282,25.470778 c 6.4441588,4.365875 14.2240648,7.955391 28.5049704,1.562207 z"
                   inkscape:connector-curvature="0" />
                <path
                   id="path1765"
                   d="M -21.837059,74.205671 C -28.301969,69.854679 -35.329868,66.275995 -50.25,72.445426 l 7.305784,-25.518601 c 14.923292,-6.170332 22.09239,-2.678713 28.550983,1.698894 l -7.443826,25.579502 z"
                   style="fill:#3584e4;fill-opacity:1;stroke-width:0.45111361"
                   inkscape:connector-curvature="0" />
                <path
                   id="path1767"
                   style="fill:#e01b24;fill-opacity:1;stroke-width:0.45111361"
                   d="m -13.152671,44.019398 c -3.892208,-2.620971 -8.078091,-5.067359 -14.022867,-5.112471 -3.922433,-0.03022 -8.591459,1.084026 -14.518641,3.534927 l 7.345483,-25.452735 c 14.913367,-6.166272 22.076599,-2.676457 28.5306819,1.697992 z"
                   inkscape:connector-curvature="0" />
                <path
                   id="path1769"
                   style="fill:#f6d32d;fill-opacity:1;stroke-width:0.45111361"
                   d="m -10.520873,51.081129 c 6.4567886,4.347386 13.6290441,7.810136 28.52978,1.651077 l -7.344581,25.367925 c -14.9034427,6.16402 -22.060811,2.673301 -28.510833,-1.700694 z"
                   inkscape:connector-curvature="0" />
              </g>
              <path
                 transform="matrix(-2.3849653,1.2685995,1.2685995,2.3849653,382.10644,-327.67008)"
                 sodipodi:nodetypes="scsssssscs"
                 inkscape:connector-curvature="0"
                 id="path1773"
                 style="opacity:1;fill:#f6f5f4;fill-opacity:1;fill-rule:evenodd;stroke:none;stroke-width:1.05917943px;stroke-linecap:butt;stroke-linejoin:miter;stroke-opacity:1"
                 d="m 127.70024,99.595712 c -1.36281,0.0877 -2.33896,0.399977 -2.74351,0.982348 -5.76484,14.94483 -12.97495,35.06078 -8.33092,46.72714 4.57924,11.50365 3.40611,15.71978 0.53531,22.49583 -4.71652,11.13263 -10.19769,3.85394 -18.334716,6.31979 -8.296479,2.51417 39.094246,19.08074 33.056036,11.46076 -6.23737,-7.87129 -14.24127,-6.36524 -11.37556,-17.22388 3.06234,-11.6037 4.25457,-9.75383 15.25663,-18.20624 11.25763,-8.64875 13.28255,-27.83218 18.33472,-42.14284 -0.42819,-4.85795 -19.03878,-10.886489 -26.39799,-10.412908 z" />
              <path
                 transform="matrix(-2.3849653,1.2685995,1.2685995,2.3849653,382.10644,-327.67008)"
                 sodipodi:nodetypes="cscscc"
                 inkscape:connector-curvature="0"
                 id="path1775"
                 style="fill:#c01c28;fill-opacity:1;fill-rule:evenodd;stroke:none;stroke-width:1.03955078px;stroke-linecap:butt;stroke-linejoin:miter;stroke-opacity:1"
                 d="m 118.67866,147.54357 c 2.30638,4.71617 9.31818,7.91354 14.58484,4.66516 8.39894,-5.1803 12.42751,-18.36262 16.17067,-31.34276 -1.94253,-2.47282 -6.17182,-4.71711 -14.88288,0.23441 -9.09305,5.16865 -10.95092,-1.57255 -14.03482,-3.49089 -4.41428,13.08087 -4.68933,23.41596 -1.83781,29.93408 z" />
            </g>
          </g>
        </g>
      </g>
    </g>
  </g>
</svg>
