<svg xmlns="http://www.w3.org/2000/svg" xmlns:xlink="http://www.w3.org/1999/xlink" width="128" height="128" version="1.0" viewBox="0 0 128 128" style="enable-background:new">
 <title id="title4162">
  Adwaita Icon Template
 </title>
 <defs>
  <linearGradient id="linearGradient3992" x1="321" x2="321" y1="189" y2="155" gradientTransform="matrix(1.8327625,0,0,2.0026265,-524.70604,-347.58757)" gradientUnits="userSpaceOnUse" xlink:href="#linearGradient3968"/>
  <linearGradient id="linearGradient3968">
   <stop id="stop3970" offset="0" style="stop-color:#ed6308"/>
   <stop id="stop3972" offset="1" style="stop-color:#f09e17"/>
  </linearGradient>
 </defs>
 <g id="layer1" transform="translate(0,-172)">
  <g id="layer9">
   <path d="M 20.039062 16 C 15.607062 16 12.039062 19.568 12.039062 24 L 12.039062 108 C 12.039062 112.432 15.607063 116 20.039062 116 L 59.996094 116 L 64.039062 116 L 107.33398 116 C 113.41027 116 116 111.48425 116 105.875 L 116 66 L 64.039062 66 L 64.039062 16 L 20.039062 16 z" transform="translate(0,172)" style="fill:#797979"/>
   <path d="M 20.039062 12 C 15.607062 12 12.039062 15.568 12.039062 20 L 12.039062 104 C 12.039062 108.432 15.607063 112 20.039062 112 L 60.039062 112 L 64.039062 112 L 108.04102 112 C 112.47302 112 116.04102 108.432 116.04102 104 L 116.04102 20 C 116.04102 15.568 112.47302 12 108.04102 12 L 64.039062 12 L 60.039062 12 L 20.039062 12 z" transform="translate(0,172)" style="fill:#e3e3e3"/>
  </g>
 </g>
 <g transform="matrix(0.75,0,0,0.81951145,12.261521,46.388583)" style="opacity:0.1">
  <g transform="matrix(2,0,0,2,24.834232,-1978.9059)">
   <g transform="matrix(0.5288301,0,0,0.48397442,-10.949758,1001.7122)">
    <g>
     <path d="M 64.126164,-37.180378 V -19.15694 L 80.621027,-3.1358889 64.126164,12.885124 V 30.908562 L 98.948652,-3.1358889 Z"/>
     <path d="M 25.638149,-15.151687 V 8.8798705 H 42.133013 V 30.908762 L 76.955502,-3.1358889 42.133013,-37.180578 v 22.028891 z"/>
    </g>
   </g>
  </g>
 </g>
 <g transform="matrix(0.75,0,0,0.81951145,12.261521,44.394353)">
  <g transform="matrix(2,0,0,2,24.834232,-1978.9059)">
   <g transform="matrix(0.5288301,0,0,0.48397442,-10.949758,1001.7122)">
    <g>
     <path style="fill:url(#linearGradient3992)" d="M 64.126164,-37.180378 V -19.15694 L 80.621027,-3.1358889 64.126164,12.885124 V 30.908562 L 98.948652,-3.1358889 Z"/>
     <path style="fill:#12a1ff" d="M 25.638149,-15.151687 V 8.8798705 H 42.133013 V 30.908762 L 76.955502,-3.1358889 42.133013,-37.180578 v 22.028891 z"/>
    </g>
   </g>
  </g>
 </g>
</svg>
