<?xml version="1.0" encoding="UTF-8" standalone="no"?>
<svg
   xmlns:dc="http://purl.org/dc/elements/1.1/"
   xmlns:cc="http://creativecommons.org/ns#"
   xmlns:rdf="http://www.w3.org/1999/02/22-rdf-syntax-ns#"
   xmlns:svg="http://www.w3.org/2000/svg"
   xmlns="http://www.w3.org/2000/svg"
   xmlns:xlink="http://www.w3.org/1999/xlink"
   xmlns:sodipodi="http://sodipodi.sourceforge.net/DTD/sodipodi-0.dtd"
   xmlns:inkscape="http://www.inkscape.org/namespaces/inkscape"
   style="enable-background:new"
   width="128"
   height="128"
   version="1.0"
   viewBox="0 0 128 128"
   id="svg82"
   sodipodi:docname="gedit.svg"
   inkscape:version="0.92.3 (2405546, 2018-03-11)">
  <metadata
     id="metadata86">
    <rdf:RDF>
      <cc:Work
         rdf:about="">
        <dc:format>image/svg+xml</dc:format>
        <dc:type
           rdf:resource="http://purl.org/dc/dcmitype/StillImage" />
      </cc:Work>
    </rdf:RDF>
  </metadata>
  <sodipodi:namedview
     pagecolor="#ffffff"
     bordercolor="#666666"
     borderopacity="1"
     objecttolerance="10"
     gridtolerance="10"
     guidetolerance="10"
     inkscape:pageopacity="0"
     inkscape:pageshadow="2"
     inkscape:window-width="1920"
     inkscape:window-height="1009"
     id="namedview84"
     showgrid="false"
     inkscape:zoom="6.5234375"
     inkscape:cx="64"
     inkscape:cy="64"
     inkscape:window-x="0"
     inkscape:window-y="34"
     inkscape:window-maximized="1"
     inkscape:current-layer="layer9" />
  <title
     id="title4162">
  Adwaita Icon Template
 </title>
  <defs
     id="defs33">
    <linearGradient
       id="linearGradient1038">
      <stop
         style="stop-color:#c0bfbc"
         id="stop1026"
         offset="0" />
      <stop
         id="stop1028"
         offset=".045"
         style="stop-color:#ffffff" />
      <stop
         id="stop1030"
         offset=".091"
         style="stop-color:#deddda" />
      <stop
         id="stop1032"
         offset=".909"
         style="stop-color:#deddda" />
      <stop
         style="stop-color:#ffffff"
         id="stop1034"
         offset=".955" />
      <stop
         style="stop-color:#c0bfbc"
         id="stop1036"
         offset="1" />
    </linearGradient>
    <clipPath
       id="clipPath2213"
       clipPathUnits="userSpaceOnUse">
      <rect
         width="16"
         height="56"
         x="160"
         y="-188"
         rx="8"
         ry="8"
         style="fill:none;stroke:#000000"
         id="rect10" />
    </clipPath>
    <linearGradient
       id="linearGradient1005">
      <stop
         style="stop-color:#d0bb8e"
         id="stop1001"
         offset="0" />
      <stop
         style="stop-color:#ffffff"
         id="stop1003"
         offset="1" />
    </linearGradient>
    <linearGradient
       id="linearGradient1351-3">
      <stop
         id="stop1347"
         offset="0"
         style="stop-color:#d5d3cf" />
      <stop
         id="stop1349-6"
         offset="1"
         style="stop-color:#ffffff" />
    </linearGradient>
    <linearGradient
       id="linearGradient1159"
       x1="28"
       x2="116"
       y1="-276"
       y2="-276"
       gradientTransform="translate(-135.99999)"
       gradientUnits="userSpaceOnUse"
       xlink:href="#linearGradient1038" />
    <linearGradient
       id="linearGradient1103"
       x1="128.817"
       x2="158.518"
       y1="-97.698"
       y2="-127.399"
       gradientTransform="matrix(0.07621224,-0.44419723,0.44419725,-0.07621223,77.725794,331.83807)"
       gradientUnits="userSpaceOnUse"
       xlink:href="#linearGradient1005" />
    <clipPath
       id="clipPath1609-7"
       clipPathUnits="userSpaceOnUse">
      <path
         style="fill:#e74747"
         d="m 252,116 28,-28 v -8 h -36 v 36 z"
         id="path21" />
    </clipPath>
    <linearGradient
       id="linearGradient1130"
       x1="344"
       x2="340"
       y1="76"
       y2="72"
       gradientTransform="matrix(0.25,0,0,0.25,180,83)"
       gradientUnits="userSpaceOnUse"
       xlink:href="#linearGradient1351-3" />
    <clipPath
       id="clipPath1062"
       clipPathUnits="userSpaceOnUse">
      <rect
         style="fill:#f6f5f4"
         width="88"
         height="108"
         x="-108"
         y="-116"
         rx="8"
         ry="8"
         transform="scale(-1)"
         id="rect25" />
    </clipPath>
    <linearGradient
       id="linearGradient979"
       x1="261.503"
       x2="261.23"
       y1="105.838"
       y2="105.559"
       gradientUnits="userSpaceOnUse"
       xlink:href="#linearGradient1351-3" />
    <clipPath
       id="clipPath1609-7-3"
       clipPathUnits="userSpaceOnUse">
      <path
         style="fill:#e74747"
         d="m 252,116 28,-28 v -8 h -36 v 36 z"
         id="path29" />
    </clipPath>
    <linearGradient
       id="linearGradient917"
       x1="103.436"
       x2="102.252"
       y1="264.437"
       y2="263.286"
       gradientTransform="matrix(0.71279429,0,0,0.71279429,25.274102,-83.5824)"
       gradientUnits="userSpaceOnUse"
       xlink:href="#linearGradient1351-3" />
  </defs>
  <g
     id="layer1"
     transform="translate(0,-172)">
    <g
       style="display:none"
       id="layer2">
      <g
         style="enable-background:new"
         id="g47">
        <rect
           style="fill:#f0f0f0"
           width="128"
           height="128"
           x="0"
           y="172"
           id="rect35" />
        <circle
           cx="64"
           cy="236"
           r="59.504"
           style="opacity:0.1;fill:none;stroke:#000000;stroke-width:0.99000001;stroke-dasharray:0.99000001, 0.99000001"
           id="circle37" />
        <rect
           width="87.01"
           height="111.01"
           x="20.5"
           y="180.5"
           rx="8.701"
           ry="7.929"
           style="opacity:0.1;fill:none;stroke:#000000;stroke-width:0.99000001;stroke-dasharray:0.99000001, 0.99000001"
           id="rect39" />
        <rect
           width="103.01"
           height="103.01"
           x="12.49"
           y="184.5"
           rx="7.924"
           ry="7.924"
           style="opacity:0.1;fill:none;stroke:#000000;stroke-width:0.99000001;stroke-dasharray:0.99000001, 0.99000001"
           id="rect41" />
        <rect
           width="111.01"
           height="87.01"
           x="8.49"
           y="200.5"
           rx="7.929"
           ry="8.701"
           style="opacity:0.1;fill:none;stroke:#000000;stroke-width:0.99000001;stroke-dasharray:0.99000001, 0.99000001"
           id="rect43" />
        <path
           d="M 2.6203015e-5,288.99999 H 128.00003"
           style="fill:none;stroke:#62a0ea;stroke-width:2"
           id="path45" />
      </g>
    </g>
    <g
       id="layer9">
      <rect
         width="88"
         height="30.25"
         x="-108"
         y="-294"
         rx="8"
         ry="8"
         transform="scale(-1)"
         style="fill:#628eb6;fill-opacity:1"
         id="rect50" />
      <rect
         style="fill:url(#linearGradient1159)"
         width="88"
         height="40"
         x="-108"
         y="-292"
         rx="8"
         ry="8"
         transform="scale(-1)"
         id="rect52" />
      <rect
         width="88"
         height="108"
         x="-108"
         y="-288"
         rx="8"
         ry="8"
         transform="scale(-1)"
         style="fill:#f6f5f4"
         id="rect54" />
      <path
         style="display:inline;opacity:0.2;fill:#000000;fill-opacity:1;stroke:none;stroke-width:1.79999995;stroke-linecap:square;stroke-linejoin:bevel;stroke-miterlimit:4;stroke-dasharray:none;stroke-opacity:1;enable-background:new"
         d="m 119.35938,202.97852 c -3.96763,-0.37168 -22.006143,11.97279 -40.740239,30.11718 -19.983059,19.35402 -33.190824,37.97894 -31.023438,40.2168 2.1674,2.23786 20.63802,-10.53854 40.621094,-29.89258 10.609499,-10.27553 19.478093,-20.31259 25.171873,-27.82812 0.10649,0.35752 0.1983,0.75653 0.16016,1.03906 -0.15326,1.13484 -0.96286,2.17629 -1.50391,3.18555 -0.59021,1.10094 -1.196,2.10565 -1.88672,3.14648 -0.81206,1.22366 -1.82845,2.37288 -2.76758,3.50195 -0.85183,1.02415 -1.64661,2.03027 -2.60351,2.95703 -0.79651,0.77141 -2.62305,2.04688 -2.62305,2.04688 l -1.79101,-0.38477 -3.773441,3.90235 0.002,2.3164 c 0,0 -0.04081,0.44009 0.04297,0.50977 0.08379,0.0697 0.273077,0.022 0.414063,-0.0488 1.062825,-0.53434 5.530066,-2.83827 7.343746,-4.18359 2.05425,-1.52378 3.31689,-2.92081 4.66993,-4.47852 1.35304,-1.55773 2.44235,-3.19042 3.45312,-4.79492 1.01075,-1.60448 2.49512,-4.47904 2.62305,-4.79883 0.12793,-0.3198 1.18784,-2.85301 1.21484,-4.09179 0.0237,-1.08396 -0.55537,-2.55064 -0.70703,-2.91797 3.49915,-4.97375 5.1551,-8.39541 4.30469,-9.27344 -0.13547,-0.13986 -0.33706,-0.22132 -0.60156,-0.24609 z"
         id="path938"
         inkscape:connector-curvature="0" />
      <g
         transform="translate(-4,2)"
         id="g64"
         style="fill:#ffde00;fill-opacity:1">
        <path
           style="fill:#ffde00;fill-opacity:1"
           d="m 32,188 c -1.10457,0 -2,0.89543 -2,2 0,1.10457 0.89543,2 2,2 1.10457,0 2,-0.89543 2,-2 0,-1.10457 -0.89543,-2 -2,-2 z m 8,0 c -1.10457,0 -2,0.89543 -2,2 0,1.10457 0.89543,2 2,2 1.10457,0 2,-0.89543 2,-2 0,-1.10457 -0.89543,-2 -2,-2 z m 8,0 c -1.10457,0 -2,0.89543 -2,2 0,1.10457 0.89543,2 2,2 1.10457,0 2,-0.89543 2,-2 0,-1.10457 -0.89543,-2 -2,-2 z m 8,0 c -1.10457,0 -2,0.89543 -2,2 0,1.10457 0.89543,2 2,2 1.10457,0 2,-0.89543 2,-2 0,-1.10457 -0.89543,-2 -2,-2 z m 8,0 c -1.10457,0 -2,0.89543 -2,2 0,1.10457 0.89543,2 2,2 1.10457,0 2,-0.89543 2,-2 0,-1.10457 -0.89543,-2 -2,-2 z m 8,0 c -1.10457,0 -2,0.89543 -2,2 0,1.10457 0.89543,2 2,2 1.10457,0 2,-0.89543 2,-2 0,-1.10457 -0.89543,-2 -2,-2 z m 8,0 c -1.10457,0 -2,0.89543 -2,2 0,1.10457 0.89543,2 2,2 1.10457,0 2,-0.89543 2,-2 0,-1.10457 -0.89543,-2 -2,-2 z m 8,0 c -1.10457,0 -2,0.89543 -2,2 0,1.10457 0.89543,2 2,2 1.10457,0 2,-0.89543 2,-2 0,-1.10457 -0.89543,-2 -2,-2 z m 8,0 c -1.10457,0 -2,0.89543 -2,2 0,1.10457 0.89543,2 2,2 1.10457,0 2,-0.89543 2,-2 0,-1.10457 -0.89543,-2 -2,-2 z"
           id="path56" />
        <circle
           cx="-104"
           cy="190"
           r="2"
           transform="scale(-1,1)"
           style="fill:#ffde00;fill-opacity:1"
           id="circle58" />
        <path
           style="fill:#ffde00;fill-opacity:1"
           d="m 112,192 a 2,2 0 0 1 -1.73205,-1 2,2 0 0 1 0,-2 A 2,2 0 0 1 112,188"
           id="path60" />
        <path
           style="fill:#ffde00;fill-opacity:1"
           d="m -24,192 a 2,2 0 0 1 -1.732051,-1 2,2 0 0 1 0,-2 A 2,2 0 0 1 -24,188"
           transform="scale(-1,1)"
           id="path62" />
      </g>
      <path
         style="display:inline;fill:#000000;stroke-width:0.86666667;enable-background:new"
         d="m 29.429803,282.46562 c -0.646193,-0.39753 -1.174885,-1.03101 -1.174885,-1.40774 0,-1.65679 16.214896,-26.77049 25.697051,-39.79972 l 5.815171,-7.99047 -4.846524,-5.40597 c -2.665596,-2.97328 -7.851967,-8.53882 -11.525298,-12.36788 -5.516132,-5.74999 -6.556506,-7.15779 -5.976328,-8.08705 1.001443,-1.60406 3.573604,-2.78212 6.099555,-2.79363 2.182874,-0.01 5.689081,3.2478 19.131094,17.7755 1.705412,1.84315 3.211004,3.20265 3.345784,3.02111 1.513533,-2.0387 11.205467,-13.55979 14.748955,-17.53253 4.813446,-5.39652 7.020638,-6.52825 10.300112,-5.28141 1.935277,0.73579 2.832988,2.4593 1.935602,3.71614 -0.335714,0.47017 -3.335544,3.97893 -6.666305,7.79722 -9.231455,10.5827 -14.42052,17.13915 -14.42052,18.22049 0,0.53769 0.622383,1.17812 0.961947,1.77596 0.687607,1.2106 1.62463,3.5671 0.734932,3.01722 -0.232588,-0.14374 -1.631429,1.31439 -3.053262,2.77047 -1.396203,1.42984 -1.649737,2.42502 -2.190604,2.50881 -0.374349,0.058 -1.449381,-0.87089 -1.876626,-1.25754 -1.052026,-0.95206 -1.448267,-0.61752 -4.981698,4.20621 -5.021067,6.85459 -15.106336,21.97627 -15.106336,22.65018 0,0.28983 0.73929,0.34141 1.642868,0.11468 1.138324,-0.28571 1.831461,-0.0753 2.256957,0.68497 0.486983,0.8702 -0.304625,1.86367 -3.824797,4.80007 -2.441373,2.03652 -5.693158,4.90147 -7.226157,6.36655 -2.174876,2.07849 -3.428739,2.72502 -5.706572,2.94247 -1.605587,0.1533 -3.447937,-0.0466 -4.094116,-0.44406 z m 52.337064,-23.12581 -5.731864,-7.12599 2.943703,-3.59767 c 1.472853,-1.80006 3.391656,-2.33335 3.690399,-2.4464 0.298757,-0.11298 3.942748,4.01363 7.296276,8.12009 5.147129,6.30279 5.99025,7.66634 5.410312,8.74996 -0.966969,1.80678 -2.834822,2.65715 -5.836528,2.65715 -2.449413,0 -2.851791,-0.32911 -7.772298,-6.35714 z"
         id="path2091"
         inkscape:connector-curvature="0"
         sodipodi:nodetypes="ssscssscsccscsssccsccscccsssscscscss" />
      <path
         style="display:inline;opacity:1;fill:#628eb6;fill-opacity:1;stroke:none;stroke-width:1.79999995;stroke-linecap:square;stroke-linejoin:bevel;stroke-miterlimit:4;stroke-dasharray:none;stroke-opacity:1;enable-background:new"
         d="m 88.215917,241.42055 c -19.983074,19.35404 -38.452106,32.12944 -40.619506,29.89158 -2.167386,-2.23786 11.03919,-20.86154 31.022249,-40.21556 19.983036,-19.35402 39.17542,-32.10943 41.34285,-29.87161 2.16744,2.23783 -11.76249,20.84152 -31.745593,40.19559 z"
         id="path2097"
         inkscape:connector-curvature="0"
         sodipodi:nodetypes="sssss" />
      <path
         inkscape:connector-curvature="0"
         id="path2105"
         d="m 57.384516,254.37879 c -6.430938,8.28833 -9.577593,14.42131 -8.408222,15.62872 1.159158,1.19682 7.128151,-1.7688 15.350574,-7.87005 z"
         style="display:inline;opacity:1;fill:#4b6892;fill-opacity:1;stroke:none;stroke-width:1.79999995;stroke-linecap:square;stroke-linejoin:bevel;stroke-miterlimit:4;stroke-dasharray:none;stroke-opacity:1;enable-background:new"
         sodipodi:nodetypes="cccc" />
      <path
         style="display:inline;opacity:1;fill:#000000;fill-opacity:1;stroke:none;stroke-width:1.79999995;stroke-linecap:square;stroke-linejoin:bevel;stroke-miterlimit:4;stroke-dasharray:none;stroke-opacity:1;enable-background:new"
         d="m 51.30928,270.56723 -2.857053,-3.03565 c -0.891376,1.86756 -1.324264,3.29573 -0.854786,3.78045 0.46794,0.48316 1.868318,0.093 3.711839,-0.7448 z"
         id="path2110"
         inkscape:connector-curvature="0" />
      <path
         style="display:inline;opacity:1;fill:#d7d4d5;fill-opacity:1;stroke:none;stroke-width:1.79999995;stroke-linecap:square;stroke-linejoin:bevel;stroke-miterlimit:4;stroke-dasharray:none;stroke-opacity:1;enable-background:new"
         d="m 56.193931,255.81649 c -3.849129,4.96082 -6.41277,8.93081 -7.741704,11.71509 l 2.857053,3.03565 c 2.723048,-1.23748 6.612223,-3.65044 11.515268,-7.28861 z"
         id="path2100"
         inkscape:connector-curvature="0" />
      <path
         id="path2112"
         d="m 51.30928,270.56723 -2.857053,-3.03565 c -0.891376,1.86756 -1.324264,3.29573 -0.854786,3.78045 0.46794,0.48316 1.868318,0.093 3.711839,-0.7448 z"
         style="display:inline;opacity:1;fill:#000000;fill-opacity:1;stroke:none;stroke-width:1.79999995;stroke-linecap:square;stroke-linejoin:bevel;stroke-miterlimit:4;stroke-dasharray:none;stroke-opacity:1;enable-background:new"
         inkscape:connector-curvature="0" />
      <path
         sodipodi:nodetypes="sssssss"
         inkscape:connector-curvature="0"
         id="path2114"
         d="m 95.226695,230.03194 c -19.983074,19.35405 -45.462884,43.51805 -47.630284,41.28019 -2.167386,-2.23786 22.250101,-27.06679 42.233161,-46.42081 7.01721,-6.79632 9.842384,-8.52121 13.872318,-11.34279 7.17336,-5.02247 14.85329,-13.77555 16.25962,-12.32357 1.53192,1.58166 0.34577,1.90187 -7.45151,9.53235 -3.23472,3.16554 -11.42398,13.59977 -17.283305,19.27463 z"
         style="display:inline;opacity:0.2;fill:#f6f9ff;fill-opacity:1;stroke:none;stroke-width:1.79999995;stroke-linecap:square;stroke-linejoin:bevel;stroke-miterlimit:4;stroke-dasharray:none;stroke-opacity:1;enable-background:new" />
      <path
         style="color:#000000;font-style:normal;font-variant:normal;font-weight:normal;font-stretch:normal;font-size:medium;line-height:normal;font-family:sans-serif;font-variant-ligatures:normal;font-variant-position:normal;font-variant-caps:normal;font-variant-numeric:normal;font-variant-alternates:normal;font-feature-settings:normal;text-indent:0;text-align:start;text-decoration:none;text-decoration-line:none;text-decoration-style:solid;text-decoration-color:#000000;letter-spacing:normal;word-spacing:normal;text-transform:none;writing-mode:lr-tb;direction:ltr;text-orientation:mixed;dominant-baseline:auto;baseline-shift:baseline;text-anchor:start;white-space:normal;shape-padding:0;clip-rule:nonzero;display:inline;overflow:visible;visibility:visible;opacity:1;isolation:auto;mix-blend-mode:normal;color-interpolation:sRGB;color-interpolation-filters:linearRGB;solid-color:#000000;solid-opacity:1;vector-effect:none;fill:#4b6892;fill-opacity:1;fill-rule:nonzero;stroke:none;stroke-width:2.4000001;stroke-linecap:butt;stroke-linejoin:miter;stroke-miterlimit:4;stroke-dasharray:none;stroke-dashoffset:0;stroke-opacity:1;color-rendering:auto;image-rendering:auto;shape-rendering:auto;text-rendering:auto;enable-background:accumulate"
         d="m 87.496939,242.07263 c 0.247342,-0.238 0.470634,-0.41173 0.718484,-0.65176 0.162793,-0.15769 0.284905,-0.30231 0.446894,-0.45989 l -9.405984,-9.94064 -1.169215,1.10759 z"
         id="path2116"
         inkscape:connector-curvature="0" />
      <path
         style="color:#000000;font-style:normal;font-variant:normal;font-weight:normal;font-stretch:normal;font-size:medium;line-height:normal;font-family:sans-serif;font-variant-ligatures:normal;font-variant-position:normal;font-variant-caps:normal;font-variant-numeric:normal;font-variant-alternates:normal;font-feature-settings:normal;text-indent:0;text-align:start;text-decoration:none;text-decoration-line:none;text-decoration-style:solid;text-decoration-color:#000000;letter-spacing:normal;word-spacing:normal;text-transform:none;writing-mode:lr-tb;direction:ltr;text-orientation:mixed;dominant-baseline:auto;baseline-shift:baseline;text-anchor:start;white-space:normal;shape-padding:0;clip-rule:nonzero;display:inline;overflow:visible;visibility:visible;opacity:1;isolation:auto;mix-blend-mode:normal;color-interpolation:sRGB;color-interpolation-filters:linearRGB;solid-color:#000000;solid-opacity:1;vector-effect:none;fill:#4b6892;fill-opacity:1;fill-rule:nonzero;stroke:none;stroke-width:2.4000001;stroke-linecap:butt;stroke-linejoin:miter;stroke-miterlimit:4;stroke-dasharray:none;stroke-dashoffset:0;stroke-opacity:1;color-rendering:auto;image-rendering:auto;shape-rendering:auto;text-rendering:auto;enable-background:accumulate"
         d="m 106.30774,207.839 c -0.12074,0.0845 -0.21481,0.13838 -0.33677,0.22419 -0.23478,0.16532 -0.51357,0.38588 -0.75258,0.55636 l -0.20294,0.22395 7.06709,6.43005 c 0.0863,-0.11059 0.22805,-0.2595 0.3132,-0.36913 0.2568,-0.33056 0.4278,-0.59229 0.67328,-0.91404 z"
         id="path2118"
         inkscape:connector-curvature="0" />
      <path
         inkscape:connector-curvature="0"
         style="display:inline;fill:#6b89ac;fill-opacity:1;stroke:none;stroke-width:1.00000012px;stroke-linecap:butt;stroke-linejoin:miter;stroke-opacity:1;enable-background:new"
         d="m 115.65661,210.49667 c -0.6845,0.973 -1.44394,2.00927 -2.26715,3.09586 0.10649,0.35752 0.19681,0.75598 0.15867,1.03851 -0.15326,1.13484 -0.96296,2.17708 -1.50401,3.18634 -0.59021,1.10094 -1.19485,2.10485 -1.88557,3.14568 -0.81206,1.22366 -1.82892,2.37327 -2.76805,3.50234 -0.85184,1.02415 -1.64724,2.03012 -2.60414,2.95688 -0.79651,0.77141 -2.6225,2.04685 -2.6225,2.04685 l -1.79116,-0.38419 -3.773782,3.90226 0.0028,2.31568 c 0,0 -0.04189,0.44039 0.04189,0.51007 0.08379,0.0697 0.273367,0.021 0.414353,-0.0498 1.062825,-0.53434 5.530629,-2.83756 7.344309,-4.18288 2.05425,-1.52378 3.31631,-2.92019 4.66935,-4.4779 1.35304,-1.55773 2.44307,-3.19207 3.45384,-4.79657 1.01075,-1.60448 2.49456,-4.47805 2.62249,-4.79784 0.12793,-0.3198 1.18852,-2.85363 1.21552,-4.09241 0.0237,-1.08475 -0.55561,-2.55285 -0.70676,-2.91885 z"
         id="path2163" />
    </g>
  </g>
  <path
     style="fill:url(#linearGradient917)"
     d="M 95.840737,95.863562 C 91.496968,95.863562 88,99.360532 88,103.7043 v 9.97912 c 0,0.80737 0.120661,1.58474 0.345263,2.31658 L 108,96.174022 c -0.69242,-0.19895 -1.42204,-0.31046 -2.18014,-0.31046 z"
     id="path80" />
</svg>
