<svg xmlns="http://www.w3.org/2000/svg" width="128" height="128" version="1.0" viewBox="0 0 128 128" style="enable-background:new">
 <title id="title4162">
  Adwaita Icon Template
 </title>
 <defs>
  <linearGradient id="linearGradient965" x1="48" x2="464" y1="44" y2="44" gradientUnits="userSpaceOnUse">
   <stop id="stop989" offset="0" style="stop-color:#77767b"/>
   <stop id="stop991" offset=".05" style="stop-color:#c0bfbc"/>
   <stop id="stop993" offset=".1" style="stop-color:#9a9996"/>
   <stop id="stop995" offset=".9" style="stop-color:#9a9996"/>
   <stop id="stop997" offset=".95" style="stop-color:#c0bfbc"/>
   <stop id="stop999" offset="1" style="stop-color:#77767b"/>
  </linearGradient>
  <radialGradient id="radialGradient1030" cx="64" cy="194.19" r="44" gradientTransform="matrix(-4.7273 7.9359e-7 -3.0301e-7 -1.6364 238.55 49.766)" gradientUnits="userSpaceOnUse">
   <stop id="stop1016" offset="0" style="stop-color:#fff"/>
   <stop id="stop1018" offset="1" style="stop-color:#fff;stop-opacity:.094118"/>
  </radialGradient>
  <linearGradient id="linearGradient1950" x1="70.347" x2="70.347" y1="245.4" y2="269.14" gradientUnits="userSpaceOnUse">
   <stop id="stop1944" offset="0" style="stop-color:#2d2839"/>
   <stop id="stop1946" offset="1" style="stop-color:#282433"/>
  </linearGradient>
 </defs>
 <g id="layer1" transform="translate(0,-172)">
  <g id="layer9">
   <rect width="416" height="376" x="48" y="-124" rx="32" ry="32" transform="matrix(.25 0 0 .25 0 225)" style="fill:url(#linearGradient965)"/>
   <rect width="416" height="384" x="48" y="-164" rx="32" ry="32" transform="matrix(.25 0 0 .25 0 225)" style="fill:#deddda"/>
   <rect width="96" height="88" x="16" y="-276" rx="4" ry="4" transform="scale(1,-1)" style="fill:#241f31"/>
   <rect width="88" height="78" x="-108" y="-272" transform="scale(-1)" style="fill:url(#radialGradient1030);opacity:.05"/>
   <g transform="translate(-2,-2)" style="fill:#fff">
    <path d="m44.012 210.89-14.012-7.6157v4.7282l9.7107 4.6295v0.1422l-9.7107 5.2283v4.7282l14.012-8.2145z" style="fill:#fff"/>
    <path d="m48 226 2e-6 4h16l-2e-6 -4z" style="fill:#fff"/>
   </g>
   <path d="m100 244h4v4h-4zm-8 0h4v4h-4zm-8 0h4v4h-4zm-8 0h4v4h-4zm-8 0h4v4h-4zm-8 0h4v4h-4zm-8 0h4v4h-4zm-8 0h4v4h-4zm-8 0h4v4h-4zm-8 0h4v4h-4zm-8 0h4v4h-4zm84 4h4v4h-4zm-8 0h4v4h-4zm-8 0h4v4h-4zm-8 0h4v4h-4zm-8 0h4v4h-4zm-8 0h4v4h-4zm-8 0h4v4h-4zm-8 0h4v4h-4zm-8 0h4v4h-4zm-8 0h4v4h-4zm-8 0h4v4h-4zm76 4h4v4h-4zm-8 0h4v4h-4zm-8 0h4v4h-4zm-8 0h4v4h-4zm-8 0h4v4h-4zm-8 0h4v4h-4zm-8 0h4v4h-4zm-8 0h4v4h-4zm-8 0h4v4h-4zm-8 0h4v4h-4zm-8 0h4v4h-4zm84 4h4v4h-4zm-8 0h4v4h-4zm-8 0h4v4h-4zm-8 0h4v4h-4zm-8 0h4v4h-4zm-8 0h4v4h-4zm-8 0h4v4h-4zm-8 0h4v4h-4zm-8 0h4v4h-4zm-8 0h4v4h-4zm-8 0h4v4h-4zm76 4h4v4h-4zm-8 0h4v4h-4zm-8 0h4v4h-4zm-8 0h4v4h-4zm-8 0h4v4h-4zm-8 0h4v4h-4zm-8 0h4v4h-4zm-8 0h4v4h-4zm-8 0h4v4h-4zm-8 0h4v4h-4zm-8 0h4v4h-4zm84 4h4v4h-4zm-8 0h4v4h-4zm-8 0h4v4h-4zm-8 0h4v4h-4zm-8 0h4v4h-4zm-8 0h4v4h-4zm-8 0h4v4h-4zm-8 0h4v4h-4zm-8 0h4v4h-4zm-8 0h4v4h-4zm-8 0h4v4h-4zm76 4h4v4h-4zm-8 0h4v4h-4zm-8 0h4v4h-4zm-8 0h4v4h-4zm-8 0h4v4h-4zm-8 0h4v4h-4zm-8 0h4v4h-4zm-8 0h4v4h-4zm-8 0h4v4h-4zm-8 0h4v4h-4zm-8 0h4v4h-4z" style="fill:url(#linearGradient1950)"/>
  </g>
 </g>
 <path style="opacity:0.1;fill:#e4e4e4" d="M 68.064453 16 L 43.333984 16 L 70.728516 57.960938 L 39.583984 104 L 53.84375 104 L 77.675781 68.935547 L 100.27539 104 L 108 104 C 108.554 104 109.08167 103.88938 109.56055 103.6875 C 110.03942 103.48562 110.46858 103.19158 110.83008 102.83008 C 111.19158 102.46858 111.48562 102.03942 111.6875 101.56055 C 111.88938 101.08167 112 100.554 112 100 L 112 81.169922 L 95.027344 57.740234 L 112 35.072266 L 112 20 C 112 19.446 111.88938 18.918328 111.6875 18.439453 C 111.48562 17.960578 111.19158 17.531422 110.83008 17.169922 C 110.691 17.030844 110.50017 16.957219 110.3418 16.839844 L 88.410156 46.863281 L 68.064453 16 z"/>
</svg>
