<svg xmlns="http://www.w3.org/2000/svg" width="16" height="16" version="1.1">
 <path d="m6 0-1 0.25v0.75h1zm0 1v1h-1v-1h-0.00586c-1.2589994 0.014-2.17964-0.02923437-2.93164 0.3847656-0.376 0.208-0.6748438 0.5590469-0.8398438 0.9980469-0.1639999 0.438-0.2226562 0.9601875-0.2226562 1.6171875v3h1s0.0621562-1.005625 0.1601562-1.265625c0.097-0.26 0.2037188-0.3706563 0.3867188-0.4726562 0.367-0.202 1.1949844-0.2477188 2.4589844-0.2617188h5.9941406c1.26 0.014 2.087125 0.060719 2.453125 0.2617188 0.183 0.102 0.289719 0.2126562 0.386719 0.4726562 0.098 0.26 0.158203 1.265625 0.158203 1.265625v5c0 0.592-0.0602 1.005625-0.158203 1.265625-0.097 0.26-0.203719 0.371656-0.386719 0.472656-0.366 0.202-1.194125 0.246719-2.453125 0.261719h-6c-1.26-0.015-2.086125-0.059719-2.453125-0.261719-0.183-0.101-0.2897188-0.212656-0.3867188-0.472656-0.0979999-0.26-0.1601562-0.673625-0.1601562-1.265625v-1h-1v1c0 0.657 0.058656 1.178188 0.2226562 1.617188 0.1650001 0.439 0.4638438 0.788093 0.8398438 0.996093 0.753 0.415 1.6736406 0.371719 2.9316406 0.386719h6.0117184c1.258-0.015 2.178641 0.02828 2.931641-0.386719 0.389571-0.220977 0.686892-0.574435 0.837891-0.996093 0.165-0.439001 0.224609-0.990188 0.224609-1.617188v-8c0-0.658-0.059609-1.1791875-0.224609-1.6171875-0.151377-0.4219369-0.448538-0.7758979-0.837891-0.9980469-0.753-0.41599997-1.673641-0.3697656-2.931641-0.3847656h-0.005859v1h-1v-1zm4 0h1v-1l-1 0.25z" style="fill:#808080"/>
 <path d="m5.3618498 6.035c-0.267-0.013-0.559 0.188-0.567 0.465v1.5h-3.5c-0.27178 0.01027-0.48973003 0.228224-0.50000003 0.5v0.9999998c-3e-3 0.03126-3e-3 0.06274 0 0.094 0.044 0.229 0.26700003 0.4100002 0.50000003 0.406h3.5v1.5000002c0.011 0.369 0.524 0.606 0.813 0.375l3-2.5000002c0.21183-0.205126 0.21183-0.5448738 0-0.7499998l-3-2.5c-0.0702-0.05558-0.15648-0.08713-0.246-0.09z" overflow="visible" style="fill:#808080"/>
</svg>
