<svg xmlns="http://www.w3.org/2000/svg" width="16" height="16" version="1.1">
 <g transform="translate(-31.97559,-220.36218)">
  <path d="m8 0v5a3 3 0 0 1 0.0234375 0 3 3 0 0 1 3.0000005 3h4.976562a8 8 0 0 0-8-8z" transform="translate(31.97559,220.36218)" style="fill:#808080;opacity:.8"/>
  <path d="m8 0a8 8 0 0 0-8 8h5.0234375a3 3 0 0 1 2.9765625-3v-5z" transform="translate(31.97559,220.36218)" style="fill:#808080;opacity:.4"/>
  <path d="m0 8a8 8 0 0 0 8 8v-5.001953a3 3 0 0 1-2.9765625-2.998047h-5.0234375z" transform="translate(31.97559,220.36218)" style="fill:#808080;opacity:.2"/>
  <path d="m11.023438 8a3 3 0 0 1-3.0000005 3 3 3 0 0 1-0.0234375-0.001953v5.001953a8 8 0 0 0 8-8h-4.976562z" transform="translate(31.97559,220.36218)" style="fill:#808080;opacity:.6"/>
  <circle cx="40" cy="228.362" r="7.515" style="fill:none;stroke-linecap:round;stroke:#808080"/>
  <circle cx="40" cy="228.362" r="4" style="fill:none"/>
  <circle cx="40" cy="228.362" r="3" style="fill:none;stroke-linecap:round;stroke:#808080"/>
 </g>
</svg>
