<?xml version="1.0" encoding="UTF-8"?>
<!-- Created with Inkscape (http://www.inkscape.org/) -->
<svg id="svg7384" width="16" height="16" version="1.1" xmlns="http://www.w3.org/2000/svg" xmlns:cc="http://creativecommons.org/ns#" xmlns:dc="http://purl.org/dc/elements/1.1/" xmlns:rdf="http://www.w3.org/1999/02/22-rdf-syntax-ns#">
 <metadata id="metadata90">
  <rdf:RDF>
   <cc:Work rdf:about="">
    <dc:format>image/svg+xml</dc:format>
    <dc:type rdf:resource="http://purl.org/dc/dcmitype/StillImage"/>
    <dc:title>Gnome Symbolic Icon Theme</dc:title>
   </cc:Work>
  </rdf:RDF>
 </metadata>
 <title id="title9167">Gnome Symbolic Icon Theme</title>
 <g id="layer12" transform="translate(-120,-538)">
  <g id="g27035" transform="translate(79,-222)">
   <path id="path27041" transform="translate(-79,222)" d="m126 540-6 6 6 6h9.0353c0.53033-0.0221 0.9647-0.49177 0.9647-1v-10c0-0.53079-0.34561-1-1.0089-1h-8.9911zm1 3h1c0.0104-1.2e-4 0.0208-4.6e-4 0.0313 0 0.25495 0.0112 0.50987 0.12858 0.6875 0.3125l1.2812 1.2812 1.3125-1.2812c0.26562-0.2305 0.44667-0.3055 0.6875-0.3125h1v1c0 0.28647-0.0343 0.55065-0.25 0.75l-1.2812 1.2812 1.25 1.25c0.18819 0.18817 0.28124 0.45345 0.28125 0.71875v1h-1c-0.2653-1e-5 -0.53059-0.0931-0.71875-0.28125l-1.2812-1.2812-1.2812 1.2812c-0.18816 0.18819-0.45346 0.28125-0.71875 0.28125h-1v-1c0-0.26529 0.0931-0.53058 0.28125-0.71875l1.2812-1.25-1.2812-1.2812c-0.21074-0.19463-0.30316-0.46925-0.28125-0.75v-1z" style="color:#000000;fill:#bebebe"/>
  </g>
 </g>
</svg>
