<svg xmlns="http://www.w3.org/2000/svg" width="16" height="16" version="1.1">
 <g transform="translate(-52,-140)">
  <path d="m56 140v1h1v-1zm2 0v1h1v-1zm-3 0.0254c-0.736131 0.0186-1.387638 0.0697-1.908203 0.34766l0.777344 0.77734c0.268683-0.0647 0.667365-0.0972 1.130859-0.11914zm-2.626953 1.04297c-0.05745 0.0986-0.106937 0.2039-0.148438 0.31445-0.164664 0.43866-0.224609 0.95957-0.224609 1.61718h1c0-0.53531 0.05488-0.90618 0.136719-1.16797zm-0.373047 2.93163v1h1v-1zm0 2v1h1v-1z" style="fill:#808080"/>
  <path d="m63 140v1h-1v-1zm-2 0v1h-1v-1zm3 0.0254c0.736131 0.0186 1.387638 0.0697 1.908203 0.34766l-0.777344 0.77734c-0.268683-0.0647-0.667365-0.0972-1.130859-0.11914zm2.626953 1.04297c0.05745 0.0986 0.106937 0.2039 0.148438 0.31445 0.164664 0.43866 0.224609 0.95957 0.224609 1.61718h-1c0-0.53531-0.05488-0.90618-0.136719-1.16797zm0.373047 2.93163v1h-1v-1zm0 2v1h-1v-1z" style="fill:#808080"/>
  <path d="m56 155v-1h1v1zm2 0v-1h1v1zm-3-0.0254c-0.736131-0.0186-1.387638-0.0697-1.908203-0.34766l0.777344-0.77734c0.268683 0.0647 0.667365 0.0972 1.130859 0.11914zm-2.626953-1.04297c-0.05745-0.0986-0.106937-0.2039-0.148438-0.31445-0.164664-0.43866-0.224609-0.95957-0.224609-1.61718h1c0 0.53531 0.05488 0.90618 0.136719 1.16797zm-0.373047-2.93163v-1h1v1zm0-2v-1h1v1z" style="fill:#808080"/>
  <path d="m63 155v-1h-1v1zm-2 0v-1h-1v1zm3-0.0254c0.736131-0.0186 1.387638-0.0697 1.908203-0.34766l-0.777344-0.77734c-0.268683 0.0647-0.667365 0.0972-1.130859 0.11914zm2.626953-1.04297c0.05745-0.0986 0.106937-0.2039 0.148438-0.31445 0.164664-0.43866 0.224609-0.95957 0.224609-1.61718h-1c0 0.53531-0.05488 0.90618-0.136719 1.16797zm0.373047-2.93163v-1h-1v1zm0-2v-1h-1v1z" style="fill:#808080"/>
  <rect width="11" height="5" x="54" y="142" rx=".5" ry=".5" style="fill:#808080"/>
  <rect width="5" height="5" x="54" y="148" rx=".5" ry=".5" style="fill:#808080"/>
  <rect width="5" height="5" x="60" y="148" rx=".5" ry=".5" style="fill:#808080"/>
 </g>
</svg>
