<svg xmlns="http://www.w3.org/2000/svg" width="16" height="16" version="1.1">
 <g transform="translate(-317.00061,35)">
  <path d="m319.0002-27v1h12v-1z" style="fill:#808080"/>
  <path d="m321.0002-33v5h2v-3h2c1.91811-0.02664 2 1 2 1.5s-0.0819 1.526644-2 1.5h3.69531c0.30055-0.617006 0.31016-1.29884 0.30469-1.5 0-1.5-1-3.5-3-3.5h-1-1-3zm0 8v4h3 1 1c2.6886 0 3-2 3-3.5 2e-3 -0.09309-8e-3 -0.278232-0.041-0.5h-2.01953c0.049 0.184506 0.0606 0.362355 0.0606 0.5 0 0.5-0.0819 1.52664-2 1.5h-2v-2h-2z" style="fill:#808080"/>
 </g>
</svg>
