<?xml version="1.0" encoding="UTF-8"?>
<!-- Created with Inkscape (http://www.inkscape.org/) -->
<svg id="svg7384" width="16" height="16" version="1.1" xmlns="http://www.w3.org/2000/svg" xmlns:cc="http://creativecommons.org/ns#" xmlns:dc="http://purl.org/dc/elements/1.1/" xmlns:rdf="http://www.w3.org/1999/02/22-rdf-syntax-ns#">
 <metadata id="metadata90">
  <rdf:RDF>
   <cc:Work rdf:about="">
    <dc:format>image/svg+xml</dc:format>
    <dc:type rdf:resource="http://purl.org/dc/dcmitype/StillImage"/>
    <dc:title>Gnome Symbolic Icon Theme</dc:title>
   </cc:Work>
  </rdf:RDF>
 </metadata>
 <title id="title9167">Gnome Symbolic Icon Theme</title>
 <g id="layer12" transform="translate(-220 -706)">
  <path id="path11643-3-5" d="m224.5 709v2h6c0.42816 0 0.59383 0.26733 0.46875 0.71875l-0.34375 1.2812h-5.25c-1.8385 0-3.1251 1.3524-3.5 2.75-0.18743 0.69881-0.16219 1.4788 0.25 2.1562s1.248 1.0938 2.1562 1.0938h6 0.75l0.21875-0.71875 1.6562-6c0.43468-1.5688-0.72605-3.2812-2.4062-3.2812h-6zm0.875 6h4.6875l-0.5625 2h-5.2188c-0.39787 0-0.42459-0.0837-0.46875-0.15625-0.0442-0.0726-0.0808-0.29256 0-0.59375 0.16157-0.60237 0.71778-1.25 1.5625-1.25z" style="block-progression:tb;color:#000000;fill:#bebebe;text-indent:0;text-transform:none"/>
 </g>
</svg>
