<svg xmlns="http://www.w3.org/2000/svg" width="16" height="16" version="1.1">
 <g transform="matrix(-1,0,0,1,16.199231,0)">
  <path d="m10 3v1h-8v-1zm0 4v1h-8v-1zm0 4v1h-8v-1z" font-weight="400" overflow="visible" style="fill:#808080"/>
  <g transform="matrix(-1 0 0 1 25.616723 -.13594932)">
   <g transform="matrix(1.1332722 0 0 .91783352 -33.041134 -883.97574)" style="fill:#808080">
    <path d="m39.195934 968.56287v-0.54427h0.908854v-2.50261l-0.880208 0.54948v-0.57552l0.919271-0.59635h0.692708v3.125h0.841146v0.54427z" style="fill:#808080"/>
   </g>
   <g transform="matrix(1.1184054 0 0 .93003418 -33.041134 -884.82564)" style="fill:#808080">
    <path d="m39.671327 961.39124v-0.50782q0.143229-0.3151 0.40625-0.61458 0.265625-0.29948 0.666667-0.625 0.385416-0.3125 0.539062-0.51563 0.15625-0.20312 0.15625-0.39843 0-0.47917-0.481771-0.47917-0.234375 0-0.359375 0.1276-0.122396 0.125-0.158854 0.37761l-0.736979-0.0417q0.0625-0.51041 0.380208-0.77864 0.320313-0.26823 0.869792-0.26823 0.59375 0 0.911458 0.27083 0.317709 0.27083 0.317709 0.76042 0 0.25781-0.101563 0.46614-0.101562 0.20834-0.260416 0.38542-0.158855 0.17448-0.354167 0.32812-0.192708 0.15365-0.375 0.29948-0.182292 0.14584-0.333334 0.29427-0.148437 0.14844-0.221354 0.31771h1.703125v0.60157z" style="fill:#808080"/>
   </g>
   <g transform="matrix(1.0751341 0 0 .96746556 -33.041134 -885.67291)" style="fill:#808080">
    <path d="m43.938438 928.47316q0 0.51563-0.338541 0.79688-0.338542 0.28125-0.963542 0.28125-0.591146 0-0.940104-0.27083-0.348958-0.27344-0.408854-0.78646l0.744791-0.0651q0.07031 0.52865 0.601563 0.52865 0.263021 0 0.408854-0.13021t0.145833-0.39844q0-0.24479-0.177083-0.375-0.177083-0.1302-0.526042-0.1302h-0.255208v-0.59115h0.239583q0.315105 0 0.473959-0.1276 0.158854-0.13021 0.158854-0.3698 0-0.22656-0.127604-0.35416-0.125-0.13021-0.367188-0.13021-0.226562 0-0.367187 0.125-0.138021 0.125-0.158854 0.35417l-0.731771-0.0521q0.05729-0.47396 0.393229-0.74219 0.335937-0.26822 0.877604-0.26822 0.575521 0 0.898438 0.26041 0.32552 0.25781 0.32552 0.71615 0 0.34375-0.203125 0.5651-0.20052 0.22136-0.580729 0.29427v0.0104q0.421875 0.0495 0.648438 0.27865 0.229166 0.22656 0.229166 0.58072z" style="fill:#808080"/>
   </g>
  </g>
 </g>
</svg>
