<?xml version="1.0" encoding="UTF-8"?>
<!-- Created with Inkscape (http://www.inkscape.org/) -->
<svg id="svg7384" width="16" height="16" version="1.1" xmlns="http://www.w3.org/2000/svg" xmlns:cc="http://creativecommons.org/ns#" xmlns:dc="http://purl.org/dc/elements/1.1/" xmlns:rdf="http://www.w3.org/1999/02/22-rdf-syntax-ns#">
 <metadata id="metadata90">
  <rdf:RDF>
   <cc:Work rdf:about="">
    <dc:format>image/svg+xml</dc:format>
    <dc:type rdf:resource="http://purl.org/dc/dcmitype/StillImage"/>
    <dc:title>Gnome Symbolic Icon Theme</dc:title>
   </cc:Work>
  </rdf:RDF>
 </metadata>
 <title id="title9167">Gnome Symbolic Icon Theme</title>
 <g id="layer12" transform="translate(-141 -827)">
  <rect id="rect8526" transform="scale(-1,1)" x="-148" y="830" width="5" height="2.0002" style="color:#bebebe;fill:#bebebe"/>
  <rect id="rect8528" transform="scale(-1,1)" x="-149" y="834" width="6" height="2.0002" style="color:#bebebe;fill:#bebebe"/>
  <rect id="rect8530" transform="scale(-1,1)" x="-155" y="838" width="6.9996" height="2.0002" style="color:#bebebe;fill:#bebebe"/>
  <path id="path8532" d="m155 830v1c0 0.25689-0.12983 0.52846-0.3125 0.71875l-1.2812 1.2812 1.2812 1.2812c0.18267 0.19029 0.3125 0.46186 0.3125 0.71875v1h-1c-0.30945 0-0.55232-0.0903-0.75-0.28125l-2.6562-2.7188 2.6562-2.7188c0.19768-0.19095 0.44055-0.28125 0.75-0.28125h1z" style="block-progression:tb;color:#bebebe;fill:#bebebe;text-indent:0;text-transform:none"/>
 </g>
</svg>
