<svg xmlns="http://www.w3.org/2000/svg" width="16" height="16" version="1.1">
 <title id="title9167">
  Gnome Symbolic Icon Theme
 </title>
 <g id="layer12" transform="translate(-341.0002,-827)">
  <path fill="#444" d="m 7.9549515,15.20505 c -0.736079,0 -1.8727276,-4.246301 -2.3932141,-4.766787 C 5.0412509,9.9177761 0.79494952,8.7811279 0.79494953,8.0450489 0.79494954,7.3089699 5.041251,6.1723213 5.5617374,5.6518348 6.0822239,5.1313484 7.2188721,0.88504695 7.9549511,0.88504696 c 0.736079,10e-9 1.8727276,4.24630144 2.3932139,4.76678794 0.520487,0.5204864 4.766788,1.6571346 4.766788,2.3932136 0,0.736079 -4.246301,1.8727276 -4.766788,2.3932145 -0.5204863,0.520486 -1.6571345,4.766787 -2.3932135,4.766787 z" transform="matrix(0.97765337,0,0,0.97765339,341.22302,827.13473)"/>
 </g>
</svg>
