<svg xmlns="http://www.w3.org/2000/svg" width="16" height="16" version="1.1">
 <g transform="translate(-31.97559,-220.36218)">
  <path fill="#808080" opacity="0.25" d="m8.0244098 6.00002a3 3 0 1 1-6 0 3 3 0 1 1 6 0z" transform="matrix(.49737385 -.91547058 .91547058 .49737385 35.89359 232.91345)"/>
  <path fill="#808080" opacity="0.50" d="m8.0244098 6.00002a3 3 0 1 1-6 0 3 3 0 1 1 6 0z" transform="matrix(.49737385 -.91547058 .91547058 .49737385 28.176238 232.91607)"/>
  <path fill="#808080" opacity="0.75" d="m8.0244098 6.00002a3 3 0 1 1-6 0 3 3 0 1 1 6 0z" transform="matrix(.49737385 -.91547058 .91547058 .49737385 32.094699 226.09141)"/>
 </g>
</svg>
