<svg xmlns="http://www.w3.org/2000/svg" width="16" height="16" version="1.1">
 <g transform="translate(-31.97559,-220.36218)">
  <path fill="#808080" opacity="1.00" d="m31.996971 235.37h10v-5l-10 4z"/>
  <path fill="#808080" opacity="0.50" d="m42.022097 220.37909v10h5l-4-10z"/>
  <path fill="#808080" opacity="1.00" d="m40.00684 221.36218c-1.487955 0-2.570868-0.0195-3.40625 0.0312s-1.484412 0.16931-1.9375 0.625-0.574871 1.09872-0.625 1.9375c-0.05013 0.83878-0.03125 1.94285-0.03125 3.4375h1c0-1.50817-0.01412-2.61584 0.03125-3.375s0.171261-1.10777 0.34375-1.28125 0.526402-0.29793 1.28125-0.34375c0.754848-0.0458 1.842243-0.0312 3.34375-0.0312v-1z"/>
  <path fill="#808080" opacity="1.00" d="m34.491767 229.3622 2.508233-3h-5"/>
 </g>
</svg>
