<svg xmlns="http://www.w3.org/2000/svg" width="16" height="16" version="1.1">
 <g transform="translate(-31.97559,-220.36218)">
  <path fill="#808080" opacity="1.0" d="m 47.022097,235.37 -10,0 0,-5 10,4 z"/>
  <path fill="#808080" opacity="0.5" d="m 36.996971,220.37909 0,10 -5,0 4,-10 z"/>
  <path fill="#808080" opacity="1.0" d="m 39.012228,221.36218 c 1.487955,0 2.570868,-0.0195 3.40625,0.0312 0.835382,0.0507 1.484412,0.16931 1.9375,0.625 0.453088,0.45569 0.574871,1.09872 0.625,1.9375 0.05013,0.83878 0.03125,1.94285 0.03125,3.4375 l -1,0 c 0,-1.50817 0.01412,-2.61584 -0.03125,-3.375 -0.04537,-0.75916 -0.171261,-1.10777 -0.34375,-1.28125 -0.172489,-0.17348 -0.526402,-0.29793 -1.28125,-0.34375 -0.754848,-0.0458 -1.842243,-0.0312 -3.34375,-0.0312 l 0,-1 z"/>
  <path fill="#808080" opacity="1.0" d="m 44.527301,229.3622 -2.508233,-3 5,0"/>
 </g>
</svg>
