<svg xmlns="http://www.w3.org/2000/svg" width="16" height="16" version="1.1">
 <g transform="translate(-1173 187)">
  <path d="m4.9902344 10v1h3v-1h-3z" transform="translate(1173,-187)" style="fill:#808080"/>
  <path d="m5 8v1h6.011719v-1h-6.011719z" transform="translate(1173,-187)" style="fill:#808080"/>
  <path d="m5 6v1h6.011719v-1h-6.011719z" transform="translate(1173,-187)" style="fill:#808080"/>
  <path d="m 4.8769531,13.984375 v 0.998047 C 4.9254167,14.983137 4.949984,15.000144 5,15 l 6.12,-0.01758 V 13.98438 L 5,14 c -0.057558,1.47e-4 -0.068832,-0.01446 -0.1230469,-0.01563 z" transform="translate(1173,-187)" style="fill:#808080"/>
  <path d="m4.8769531 3.015625v-0.9980469c-0.5881425 0.0086809-1.0885608 0.0545924-1.4941406 0.2070313-0.439 0.164-0.7900469 0.4608906-0.9980469 0.8378906-0.415 0.752-0.3697656 1.6736406-0.3847656 2.9316406v5.0117184c0.015 1.258-0.0302344 2.178641 0.3847656 2.931641 0.208 0.376 0.5600469 0.672891 0.9980469 0.837891 0.4055798 0.151515 0.9059981 0.198355 1.4941406 0.207031v-0.998047c-0.5033899-0.010812-0.90876-0.056962-1.1425781-0.144531-0.26-0.098-0.3716563-0.202719-0.4726562-0.386719-0.202-0.366-0.2467188-1.194125-0.2617188-2.453125v-5c0.015-1.259 0.0597188-2.087125 0.2617188-2.453125 0.101-0.184 0.2126562-0.2897187 0.4726562-0.3867188 0.2347208-0.0884716 0.6393382-0.1338691 1.1425781-0.1445312z" transform="translate(1173,-187)" style="fill:#808080"/>
  <path d="m7.9921875 0a2.008 2.008 0 0 0-1.9921875 2h-1c-0.0500162 0-0.0745833 0.0168628-0.1230469 0.0175781v0.9980469c0.0541984-0.0011483 0.0654882-0.015625 0.1230469-0.015625v0.9980469h6v-0.9980469c0.593 0 1.005625 0.0631562 1.265625 0.1601562 0.26 0.0980001 0.371656 0.2027188 0.472656 0.3867188 0.202 0.366 0.246719 1.194125 0.261719 2.453125v2.8320312c0.31 0.1150001 0.581953 0.3221407 0.751953 0.6191407v0.0019531l0.248047 0.4375v-3.8964844c-0.015-1.258 0.031234-2.1786406-0.384766-2.9316406a1.88 1.88 0 0 0-0.998046-0.8378906c-0.438001-0.165-0.960188-0.2246094-1.617188-0.2246094h-1.0039062a2.008 2.008 0 0 0-1.9921876-2h-0.0117187zm0.0097656 1h0.0019531c0.5580628 0.0010404 0.9980469 0.4426578 0.9980469 1a0.99 0.99 0 0 1-1 1 0.982 0.982 0 0 1-0.921875-0.609375 1.01 1.01 0 0 1-0.0761719-0.390625c0-0.5573435 0.4399824-0.9989617 0.9980469-1z" transform="translate(1173,-187)" style="fill:#808080"/>
  <path d="m1184.12-183.98437v-0.99805c0.5881 9e-3 1.0886 0.0546 1.4941 0.20703 0.439 0.164 0.7901 0.46089 0.9981 0.83789 0.415 0.752 0.3698 1.67364 0.3848 2.93164v5.01172c-0.015 1.258 0.03 2.17864-0.3848 2.93164-0.208 0.376-0.5601 0.67289-0.9981 0.83789-0.4055 0.15152-0.906 0.19836-1.4941 0.20703v-0.99804c0.5034-0.0108 0.9088-0.057 1.1426-0.14454 0.26-0.098 0.3716-0.20271 0.4726-0.38671 0.202-0.366 0.2468-1.19413 0.2618-2.45313v-5c-0.015-1.259-0.06-2.08712-0.2618-2.45312-0.101-0.184-0.2126-0.28972-0.4726-0.38672-0.2347-0.0885-0.6394-0.13387-1.1426-0.14453z" style="fill:#808080"/>
 </g>
</svg>
