<svg xmlns="http://www.w3.org/2000/svg" width="16" height="16" version="1.1">
 <g transform="matrix(1.2307456,0,0,1.2307456,-1494.8559,386.45441)" style="fill:#808080">
  <path d="m1220.5-313.998a0.52 0.52 0 0 0-0.5 0.5v3.5h-1.5c-0.277 8e-3 -0.478 0.3-0.465 0.566 0 0.09 0.032 0.174 0.09 0.246l2.5 3a0.522 0.522 0 0 0 0.75 0l2.5-3c0.231-0.288-0.01-0.8-0.375-0.812h-1.5v-3.5a0.52 0.52 0 0 0-0.406-0.5 0.492 0.492 0 0 0-0.094 0zm-4 0.998c-0.83 0-1.5 0.669-1.5 1.5v9c0 0.831 0.67 1.5 1.5 1.5h9c0.831 0 1.5-0.669 1.5-1.5v-9c0-0.831-0.669-1.5-1.5-1.5h-2.5v1h2c0.554 0 1 0.446 1 1v6h-3c0 1.108-0.892 2-2 2s-2-0.892-2-2h-3v-6c0-0.554 0.446-1 1-1h2v-1z" overflow="visible" style="fill:#808080"/>
 </g>
</svg>
