<?xml version="1.0" encoding="UTF-8"?>
<!-- Created with Inkscape (http://www.inkscape.org/) -->
<svg id="svg7384" width="16" height="16" version="1.1" xmlns="http://www.w3.org/2000/svg" xmlns:cc="http://creativecommons.org/ns#" xmlns:dc="http://purl.org/dc/elements/1.1/" xmlns:rdf="http://www.w3.org/1999/02/22-rdf-syntax-ns#">
 <metadata id="metadata90">
  <rdf:RDF>
   <cc:Work rdf:about="">
    <dc:format>image/svg+xml</dc:format>
    <dc:type rdf:resource="http://purl.org/dc/dcmitype/StillImage"/>
    <dc:title>Gnome Symbolic Icon Theme</dc:title>
   </cc:Work>
  </rdf:RDF>
 </metadata>
 <title id="title9167">Gnome Symbolic Icon Theme</title>
 <g id="layer12" transform="translate(-81 -687)">
  <path id="path3613-6-6-9" d="m90 694-1e-5 -1c-3e-5 -0.26531-0.0931-0.53058-0.28124-0.71876l-3-3-0.28125-0.28126h-0.87499l-0.28126 0.28126-3 3c-0.18821 0.18818-0.28121 0.45347-0.28121 0.71876l-1e-5 1h1c0.26531 4e-5 0.53059-0.0931 0.71877-0.28121l2.2812-2.2813 2.2812 2.2812c0.18817 0.18815 0.45345 0.28125 0.71875 0.28125h1z" style="block-progression:tb;color:#000000;fill:#bebebe;text-indent:0;text-transform:none"/>
  <path id="path35770-1" d="m85 691v7h2v-7h-2z" style="block-progression:tb;color:#000000;fill:#bebebe;text-indent:0;text-transform:none"/>
  <path id="path3613-6-6-9-5" d="m96 695-1e-5 1c-3e-5 0.26531-0.0931 0.53058-0.28124 0.71876l-3 3-0.28125 0.28126h-0.87499l-0.28126-0.28126-3-3c-0.18821-0.18818-0.28121-0.45347-0.28121-0.71876l-1e-5 -1h1c0.26531-4e-5 0.53059 0.0931 0.71877 0.28121l2.2812 2.2813 2.2812-2.2812c0.18817-0.18815 0.45345-0.28125 0.71875-0.28125h1z" style="block-progression:tb;color:#000000;fill:#bebebe;text-indent:0;text-transform:none"/>
  <path id="path35770-1-5" d="m91 691v7h2v-7h-2z" style="block-progression:tb;color:#000000;fill:#bebebe;text-indent:0;text-transform:none"/>
 </g>
</svg>
