<?xml version="1.0" encoding="UTF-8"?>
<!-- Created with Inkscape (http://www.inkscape.org/) -->
<svg id="svg7384" width="16" height="16" version="1.1" xmlns="http://www.w3.org/2000/svg" xmlns:cc="http://creativecommons.org/ns#" xmlns:dc="http://purl.org/dc/elements/1.1/" xmlns:rdf="http://www.w3.org/1999/02/22-rdf-syntax-ns#">
 <metadata id="metadata90">
  <rdf:RDF>
   <cc:Work rdf:about="">
    <dc:format>image/svg+xml</dc:format>
    <dc:type rdf:resource="http://purl.org/dc/dcmitype/StillImage"/>
    <dc:title>Gnome Symbolic Icon Theme</dc:title>
   </cc:Work>
  </rdf:RDF>
 </metadata>
 <title id="title9167">Gnome Symbolic Icon Theme</title>
 <g id="layer12" transform="translate(-241 -667)">
  <path id="path15405" d="m244 674v2h10v-2h-10z" style="block-progression:tb;color:#000000;fill:#bebebe;text-indent:0;text-transform:none"/>
  <path id="rect3217-6-2-2-4-85-5" d="m251 671v1c0 0.25689 0.12983 0.52846 0.3125 0.71875l2.2812 2.2812-2.2812 2.2812c-0.18267 0.19029-0.3125 0.46186-0.3125 0.71875v1h1c0.30945 0 0.55232-0.0903 0.75-0.28125l3.6562-3.7188-3.6562-3.7188c-0.19768-0.19095-0.44055-0.28125-0.75-0.28125z" style="block-progression:tb;color:#bebebe;fill:#bebebe;text-indent:0;text-transform:none"/>
  <path id="rect3217-6-2-2-4-85-5-2" d="m247 671v1c0 0.25689-0.12983 0.52846-0.3125 0.71875l-2.2812 2.2812 2.2812 2.2812c0.18267 0.19029 0.3125 0.46186 0.3125 0.71875v1h-1c-0.30945 0-0.55232-0.0903-0.75-0.28125l-3.6562-3.7188 3.6562-3.7188c0.19768-0.19095 0.44055-0.28125 0.75-0.28125z" style="block-progression:tb;color:#bebebe;fill:#bebebe;text-indent:0;text-transform:none"/>
 </g>
</svg>
