<svg xmlns="http://www.w3.org/2000/svg" width="22" height="22" version="1.1">
 <g transform="matrix(.6875 0 0 .68831738 -129.01031 -46.997247)">
  <path d="m200.182 81.004a6.99 6.99 0 0 0-6.248 3.492c-1.929 3.343-0.776 7.63 2.57 9.563s7.634 0.792 9.562-2.551c1.929-3.343 0.776-7.633-2.57-9.567a6.98 6.98 0 0 0-3.314-0.937zm-0.182 0.996a6 6 0 0 1 6 6 6 6 0 0 1-6 6 6 6 0 0 1-6-6 6 6 0 0 1 6-6z" font-weight="400" overflow="visible" style="fill:#808080"/>
  <path d="m201.322 79.92-2.632 0.394v1.353a6.49 6.477 43.146 0 1 2.632 5e-3v-1.751zm-5.385 1.191-2.006 1.705 0.988 1.178a6.49 6.477 43.146 0 1 2.017-1.691zm8.128 0.013-0.993 1.183a6.49 6.477 43.146 0 1 0.17 0.09 6.49 6.477 43.146 0 1 1.845 1.604l1.006-1.198zm-11.61 4.217-0.44 2.595 1.515 0.267a6.49 6.477 43.146 0 1 0.455-2.592zm15.086 3e-3 -1.523 0.268a6.49 6.477 43.146 0 1 0.464 2.591l1.533-0.27zm-13.683 4.694-1.351 0.78 1.33 2.272 1.339-0.773a6.49 6.477 43.146 0 1-1.318-2.279zm12.301 3e-3a6.49 6.477 43.146 0 1-0.534 1.215 6.49 6.477 43.146 0 1-0.774 1.07l1.338 0.772 1.302-2.288zm-9.557 3.472-0.534 1.469 2.48 0.884 0.525-1.445a6.49 6.477 43.146 0 1-2.303-0.8 6.49 6.477 43.146 0 1-0.168-0.108zm6.814 0.015a6.49 6.477 43.146 0 1-2.475 0.898l0.53 1.456 2.468-0.916z" overflow="visible" style="fill:#808080"/>
  <path d="m199.648 83.014a4.989 4.989 0 0 0-3.982 2.482 5.013 5.013 0 0 0 1.836 6.834 5.002 5.002 0 0 0 6.83-1.826 5.01 5.01 0 0 0-1.836-6.832 4.976 4.976 0 0 0-2.848-0.658zm0.352 0.986a4 4 0 0 1 4 4 4 4 0 0 1-4 4 4 4 0 0 1-4-4 4 4 0 0 1 4-4z" font-weight="400" overflow="visible" style="fill:#808080"/>
 </g>
 <g transform="matrix(.5 0 0 .50059446 -85.007502 -37.007509)">
  <path d="m200.182 81.004a6.99 6.99 0 0 0-6.248 3.492c-1.929 3.343-0.776 7.63 2.57 9.563s7.634 0.792 9.562-2.551c1.929-3.343 0.776-7.633-2.57-9.567a6.98 6.98 0 0 0-3.314-0.937zm-0.182 0.996a6 6 0 0 1 6 6 6 6 0 0 1-6 6 6 6 0 0 1-6-6 6 6 0 0 1 6-6z" font-weight="400" overflow="visible" style="fill:#808080"/>
  <path d="m201.322 79.92-2.632 0.394v1.353a6.49 6.477 43.146 0 1 2.632 5e-3v-1.751zm-5.385 1.191-2.006 1.705 0.988 1.178a6.49 6.477 43.146 0 1 2.017-1.691zm8.128 0.013-0.993 1.183a6.49 6.477 43.146 0 1 0.17 0.09 6.49 6.477 43.146 0 1 1.845 1.604l1.006-1.198zm-11.61 4.217-0.44 2.595 1.515 0.267a6.49 6.477 43.146 0 1 0.455-2.592zm15.086 3e-3 -1.523 0.268a6.49 6.477 43.146 0 1 0.464 2.591l1.533-0.27zm-13.683 4.694-1.351 0.78 1.33 2.272 1.339-0.773a6.49 6.477 43.146 0 1-1.318-2.279zm12.301 3e-3a6.49 6.477 43.146 0 1-0.534 1.215 6.49 6.477 43.146 0 1-0.774 1.07l1.338 0.772 1.302-2.288zm-9.557 3.472-0.534 1.469 2.48 0.884 0.525-1.445a6.49 6.477 43.146 0 1-2.303-0.8 6.49 6.477 43.146 0 1-0.168-0.108zm6.814 0.015a6.49 6.477 43.146 0 1-2.475 0.898l0.53 1.456 2.468-0.916z" overflow="visible" style="fill:#808080"/>
  <path d="m199.648 83.014a4.989 4.989 0 0 0-3.982 2.482 5.013 5.013 0 0 0 1.836 6.834 5.002 5.002 0 0 0 6.83-1.826 5.01 5.01 0 0 0-1.836-6.832 4.976 4.976 0 0 0-2.848-0.658zm0.352 0.986a4 4 0 0 1 4 4 4 4 0 0 1-4 4 4 4 0 0 1-4-4 4 4 0 0 1 4-4z" font-weight="400" overflow="visible" style="fill:#808080"/>
 </g>
</svg>
