<?xml version="1.0" encoding="UTF-8"?>
<!-- Created with Inkscape (http://www.inkscape.org/) -->
<svg id="svg7384" width="16" height="16" version="1.1" xmlns="http://www.w3.org/2000/svg" xmlns:cc="http://creativecommons.org/ns#" xmlns:dc="http://purl.org/dc/elements/1.1/" xmlns:rdf="http://www.w3.org/1999/02/22-rdf-syntax-ns#">
 <metadata id="metadata90">
  <rdf:RDF>
   <cc:Work rdf:about="">
    <dc:format>image/svg+xml</dc:format>
    <dc:type rdf:resource="http://purl.org/dc/dcmitype/StillImage"/>
    <dc:title>Gnome Symbolic Icon Theme</dc:title>
   </cc:Work>
  </rdf:RDF>
 </metadata>
 <title id="title9167">Gnome Symbolic Icon Theme</title>
 <g id="layer12" transform="translate(-261 -827)">
  <path id="path28099" d="m264 830v2h1.9062c-0.0552 0 0.0937 0.17104 0.0937 0.0937v0.9375h-1c-1.7159 0-3.0379 1.1099-3.0625 2.4688-0.0123 0.67944 0.3195 1.3532 0.875 1.8125s1.3096 0.71875 2.1875 0.71875h2 1v-1-4.9375c5e-5 -1.1711-0.89686-2.0937-2.0937-2.0937h-1.9062zm1 5.0312h1v1h-1c-0.51941 0-0.78011-0.14571-0.90625-0.25s-0.15755-0.17804-0.15625-0.25c3e-3 -0.14393 0.0927-0.5 1.0625-0.5z" style="block-progression:tb;color:#000000;fill:#bebebe;text-indent:0;text-transform:none"/>
  <path id="path28101" d="m269 829v8.0312 1h1 2c0.93855 0 1.7825-0.3823 2.3125-0.96875s0.75988-1.3327 0.75-2.0625c-0.01-0.72982-0.28566-1.4541-0.8125-2.0312s-1.329-0.96875-2.25-0.96875h-1v-3h-2zm2 5h1c0.42179 0 0.61965 0.13545 0.78125 0.3125s0.27751 0.44294 0.28125 0.71875c4e-3 0.27581-0.0984 0.51973-0.25 0.6875-0.15163 0.16777-0.35374 0.3125-0.8125 0.3125h-1v-2.0312z" style="block-progression:tb;color:#000000;fill:#bebebe;text-indent:0;text-transform:none"/>
  <path id="path28103" d="m264 838.28-0.34375 0.375-2 2a0.50005 0.50005 0 1 0 0.6875 0.6875l1.6562-1.6562 1.6562 1.6562 0.34375 0.375 0.34375-0.375 1.6562-1.6562 1.6562 1.6562 0.34375 0.375 0.34375-0.375 1.6562-1.6562 1.6562 1.6562 0.34375 0.375 0.34375-0.375 2-2a0.50005 0.50005 0 1 0-0.6875-0.6875l-1.6562 1.6562-1.6562-1.6562-0.34375-0.375-0.34375 0.375-1.6562 1.6562-1.6562-1.6562-0.34375-0.375-0.34375 0.375-1.6562 1.6562-1.6562-1.6562-0.34375-0.375z" style="block-progression:tb;color:#000000;fill:#bebebe;text-indent:0;text-transform:none"/>
 </g>
</svg>
