<svg height="16" width="16" xmlns="http://www.w3.org/2000/svg">
  <path d="m5.181867.50055901c-.2867149 0-.5964964.1016693-.8820699.2687244-.1845543.1077166-.3587905.24453549-.4986595.40992759-.6705638-.48994019-1.3864101-.64524089-1.9589631-.67188659-.6525316-.030236-1.1188044.1069606-1.1188044.1069606l-.2233701.065386.070677.2214804s.2334992.74407549.6959395 1.46006919c.2311937.3579212.5203275.7138771.8822891.969033.3465071.2441575.7713411.3909544 1.2391786.3310867.037417.351496.09275.7023873.1566992 1.0352125.1446047.7526929.3284031 1.3910551.4302236 1.7231244-.1250268.3174803-.2586331.6710929-.3896504 1.0503685-.4447672 1.2872693-.8665323 2.7913703-.670749 3.8225003.1697764.894312.5186911 1.628977 1.1167975 2.169411-.1039748.453317-.1066961.846047.01663 1.174526.1298268.346205.4079131.601852.7708384.733833.7116813.258898 1.7516485.119433 3.1029543-.322771 1.3508675.442053 2.3905432.581518 3.1020692.322771.36291-.131905.640996-.38759.770834-.733833.123213-.328441.120303-.721323.01625-1.174753.597804-.540396.946341-1.274948 1.116129-2.169184.195782-1.031131-.225068-2.5352312-.66985-3.8225005-.131074-.3793134-.264605-.7330016-.389655-1.0505953.101859-.3322204.285657-.9703558.430224-1.7228976.06395-.3329763.119244-.6837165.156699-1.0352125.467838.059716.892687-.086929 1.239179-.3310867.361965-.2551181.651076-.6109984.882289-.969033.462429-.7159937.695717-1.46006919.695717-1.46006919l.0709-.2214804-.22337-.065386s-.466272-.1371968-1.118804-.1069606c-.572553.026457-1.288399.1817953-1.958963.67188659-.139877-.1651654-.314076-.30198429-.498657-.40992759-.285581-.1670551-.595358-.2687244-.88207-.2687244-.494812 0-.8647705.1054489-1.2579018.2014489-.3931275.096-.8187554.1878425-1.4819264.1878425-.6631748 0-1.0879105-.091465-1.4810381-.1878425-.3931313-.096-.7630903-.2014489-1.2579023-.2014489zm8.82983.4524851c.31646-.00378.564953.042331.700619.072567-.06879.1950236-.179414.561411-.519836 1.0885039-.211049.3269291-.471859.6383244-.762588.8432882-.283767.199937-.58529.3012283-.937349.2498267.0291-.5945197-.01965-1.167874-.215547-1.6352881.63114-.4840063 1.259626-.61099849 1.734713-.61882209zm-12.1804454.0002267c.4751547.00756 1.103418.13492919 1.7342665.61859529-.1957418.4674519-.2450268 1.0407685-.2157733 1.6352881-.3519874.0514016-.6534122-.0498897-.9371262-.2498267-.2907213-.2048504-.5515389-.5165103-.7625878-.8432882-.3404219-.5270929-.4510601-.8933669-.5198361-1.0885039.1359874-.030236.3845593-.07748.7010645-.072189zm3.3506154.00378c.4308359 0 .7464756.089575 1.14912.18784259.4026406.098268.8834079.2014488 1.5898204.2014488.7064089 0 1.1880682-.1028032 1.5907088-.2014488.4026444-.098268.7182838-.18784259 1.1491198-.18784259.169814 0 .426115.074457.652025.20636219.225903.1322835.420684.3193701.511586.5095937.312227.6528756.226658 1.8892724.02532 2.9379779-.08088.4210016-.175559.8084788-.260599 1.1259591-.154844-.3654808-.265055-.6063501-.265055-.6063501a.22828637.22828637 0 0 0 -.220006-.1345512.22828637.22828637 0 0 0 -.193701.3269291s.208365.451578.474361 1.1165858c-.01021.030236-.02684.083906-.02684.083906l.06954.022677c.127333.3220158.264416.6837165.398793 1.0726677.436147 1.2623244.808249 2.770091.652914 3.588208-.235389 1.239685-.750637 2.024919-1.902346 2.48039-.115125.04535-.351761.06236-.6250505.03402-.2732977-.02646-.584897-.09109-.8753802-.16441-.5004393-.12624-.8154403-.243405-.9268683-.28309v-2.90657c.1433197-.055937.6029632-.284977 1.1618269-.8881137a.22828637.22828637 0 0 0 .2545511.1560945c.1445292-.022677.2265827-.1160315.2855433-.2022047.0589607-.086173.1023497-.183685.1424504-.2925354.0801633-.2180788.1431303-.4829103.1946073-.7447559.101707-.5172662.154507-1.0098142.15583-1.0220599v-.0008693c.000015-.0001511.0018-.011338.0018-.011338a.22828637.22828637 0 0 0 -.4525308-.060473c-.3103748 1.9337953-1.6502061 2.5757858-1.9718968 2.7034964-.3216756-.1277484-1.6615294-.7697011-1.9718928-2.7034964a.22828637.22828637 0 0 0 -.4525115.058961s.00178.011338.00178.015118c.0001134.0008693.0007635.0009071.000892.00178.00147.015118.048453.4931528.1449071.9993071.048945.2570079.1095307.5174551.1879181.7320567.039194.1073386.081033.2029606.1397669.2883779.058734.085417.1422236.1783937.2849008.200315a.22828637.22828637 0 0 0 .2500913-.144c.5659919.6226737 1.0409009.8600277 1.1863485.9166447v2.90657c-.1114205.03969-.4264252.156851-.9268763.283087-.2904944.07332-.6020862.136441-.8753801.164409-.2732976.02646-.5099376.01134-.6250507-.03402-1.151709-.455471-1.6669682-1.240706-1.9023458-2.480391-.1553386-.818117.2167559-2.3258834.6529134-3.5882078.1344-.388989.2714456-.7505763.398793-1.0726677l.069543-.022677s-.01663-.052535-.026835-.083906c.2659661-.6650075.4743616-1.1165855.4743616-1.1165855a.22828637.22828637 0 0 0 -.2012976-.327685.22828637.22828637 0 0 0 -.2124472.135685s-.1100977.2407559-.2650583.6065386c-.085077-.3174803-.1796787-.7051464-.2605984-1.1263748-.2014866-1.0487055-.2870173-2.2851023.025323-2.9379779.090898-.1901102.2854677-.3775747.5113663-.5095936.2259024-.1319055.4824265-.20636219.6522444-.20636219zm.9001247 1.74719949c-.055975-.00189-.1132346-.00181-.1714393.0009071-.2326678.011339-.4806917.061606-.7271433.176126a.22828637.22828637 0 0 0 -.1321701.2071181c.0003212.1636535.021165.4736504.1415433.7859905.1204913.3125669.3726992.6480378.8011502.7128945.2434016.037795.4678413-.048756.6310677-.1783937.1632378-.1296378.2801386-.2985827.3706961-.4634457.1811149-.3295748.2594645-.6622866.2594645-.6622866l-.0029.00756c-.00529.018898-.013228.039685-.024567.058583l.024567-.058583c.015118-.056315.00756-.112252-.00378-.1436221-.015118-.042709-.032504-.061984-.045468-.07748-.026455-.0302374-.045201-.0453555-.065762-.0604736-.041083-.0302362-.086249-.0555591-.1424504-.0835276-.1123653-.055559-.2653606-.1137637-.4498393-.1576063-.1383685-.0340157-.2950677-.0574488-.4629922-.063496zm3.6785198 0c-.1679245.00756-.3246237.030236-.4629922.063496-.1844787.043842-.337474.1020472-.4498394.1576063-.056202.026457-.1013292.053291-.1424504.083528-.020409.015118-.039496.030236-.065764.060472-.013228.015118-.030236.034016-.045468.07748-.011339.030236-.018898.087307-.00378.143622l.024567.058583c-.011716-.0188975-.019653-.038929-.024566-.0585826l-.0029-.00756s.078387.3329763.2594645.6622866c.090559.1647884.2074973.3337332.3706973.4634466.1632378.1296378.3876737.2154331.6310677.1783937.428454-.065008.680644-.4005165.80115-.7128944.120491-.312189.141241-.6224882.141543-.7859906a.22828637.22828637 0 0 0 -.13217-.2071181c-.246463-.1145197-.494468-.1651653-.7271466-.176126-.058167-.002721-.1154646-.002797-.1714016-.0009071zm-3.6321525.4772787c.1113448-.00197.2167937.00756.3113952.030236.1331906.030237.2354268.073323.3140788.1096066-.027591.095244-.051704.2105196-.1582488.4043716-.072378.1315276-.1632.2524724-.2545512.3254173-.091351.072567-.1692095.1016693-.2788536.085039-.23297-.034016-.354822-.1965354-.4431533-.425537-.06085-.1576063-.064025-.2932913-.076687-.428674.1980473-.0612284.4004674-.0967559.5860422-.1001575zm3.585566 0c.1855748.00325.388002.038551.586038.1001575-.01247.1353071-.0155.2709921-.07646.428674-.08833.2290394-.210406.390274-.4433758.425537-.1096441.015118-.1875024-.011339-.2788535-.085039-.091389-.072567-.1819465-.1935119-.2543622-.3254174-.1065449-.1938897-.1307717-.3087874-.1584756-.4043716.0786519-.0377953.1811149-.0778583.3143055-.1096063.0946393-.0226772.1998614-.0302362.3112063-.0302362zm-1.7926754 10.503912c.1019339.03779.5070804.179905 1.0434597.315212.3041007.07672.6323036.144756.9402519.176126.3079558.03024.5933698.03402.8390478-.06387.243363-.09638.463691-.209764.662944-.339023.04392.295181.02495.529474-.04036.703067-.08417.224504-.233878.368882-.498656.465033-.529599.192756-1.5267667.104693-2.8746937-.344693l-.072453-.02268-.071547.02268c-1.3479269.449311-2.3450948.537223-2.8746935.344693-.2647937-.09638-.414497-.240378-.4986557-.465033-.065121-.17348-.084246-.407886-.040365-.703067.1992945.129259.4195767.243023.6629443.339023.2456692.09713.5311029.09524.8390475.06387.3079559-.03024.6361398-.0994.940252-.176126.5363829-.135307.9415445-.278551 1.0434557-.315212z" fill="#444" fill-rule="evenodd" stroke="#444" stroke-width=".5"/>
</svg>
