<svg height="16" width="16" xmlns="http://www.w3.org/2000/svg">
  <path d="m4.1115299 2.0486941c-.8234616 0-1.4910091.6717078-1.4910091 1.5003013s.6675475 1.5003013 1.4910091 1.5003013c.8234615 0 1.491009-.6717078 1.491009-1.5003013s-.6675475-1.5003013-1.491009-1.5003013zm2.4850151 1.0002009v1.0002008h4.97003v-1.0002008zm-2.4850151 3.0006025c-.8234616 0-1.4910091.6717078-1.4910091 1.5003013-.0000001.8285936.6675474 1.5003014 1.4910091 1.5003014.8234616 0 1.4910091-.6717078 1.491009-1.5003014 0-.8285935-.6675475-1.5003013-1.491009-1.5003013zm11.4310691.6915451-13.9160843 8.3102634h13.9160843zm-8.946054.3086558v1.0002009h4.97003v-1.0002009zm7.985526 1.9366748-.05678 4.9279848-8.8334529.152375z" fill="#474747" stroke="#474747" stroke-width=".897389"/>
</svg>
