<svg height="16" width="16" xmlns="http://www.w3.org/2000/svg">
  <path d="m1001-26c-.529 0-1.031.098-1.494.295-.46.188-.868.463-1.207.82l-.002.004-.002.002c-.33.359-.586.79-.766 1.28-.18512.512853-.27657 1.054799-.27 1.6 0 .58.087 1.122.27 1.612.18.482.436.908.766 1.266l.002.002.002.002c.338.356.743.636 1.201.832l.004.002.004.002c.462.188.964.281 1.492.281s1.028-.093 1.49-.281v-.002c.4511-.190896.8566-.475128 1.19-.834.34-.358.6-.786.781-1.27.184-.49.272-1.031.272-1.613h.01c0-.573-.087-1.109-.27-1.598-.1697-.476664-.4355-.913366-.781-1.283-.3332-.359269-.7416-.640619-1.196-.824-.4736-.198506-.9825-.298864-1.496-.295zm7 15h-1-11.999l-1-.002c.001-.914.068-1.44.282-2.128.215-.688.594-1.277 1.169-1.711 1.15-.867 2.696-1.134 5.577-1.134s4.376.267 5.525 1.135c.574.433.953 1.024 1.166 1.712.214.688.28 1.213.28 2.128z" fill="#474747" transform="translate(-993 27)"/>
</svg>
