<svg height="16" viewBox="0 0 16 16" width="16" xmlns="http://www.w3.org/2000/svg">
  <path d="m10.331404 1.936981c0 .930945-.754464 1.685408-1.685408 1.685408s-1.685407-.754463-1.685407-1.685408c0-.930944.754463-1.685408 1.685407-1.685408s1.685408.754464 1.685408 1.685408zm-3.514427 4.04235c0 .930943-.754464 1.685408-1.685408 1.685408s-1.685408-.754465-1.685408-1.685408c0-.930944.754464-1.685408 1.685408-1.685408s1.685408.754464 1.685408 1.685408zm-3.446162 4.041844c0 .930944-.754463 1.685408-1.685408 1.685408-.930944 0-1.685407-.754464-1.685407-1.685408s.754463-1.685408 1.685407-1.685408c.930945 0 1.685408.754464 1.685408 1.685408zm5.517398 0c0 .930944-.754464 1.685408-1.685407 1.685408-.930944 0-1.685408-.754464-1.685408-1.685408s.754464-1.685408 1.685408-1.685408c.930943 0 1.685407.754464 1.685407 1.685408zm3.657029-4.041844c0 .930943-.754465 1.685408-1.685409 1.685408-.930943 0-1.685408-.754465-1.685408-1.685408 0-.930944.754465-1.685408 1.685408-1.685408.930944 0 1.685409.754464 1.685409 1.685408zm1.861887 4.041844c0 .930944-.754464 1.685408-1.685408 1.685408s-1.685408-.754464-1.685408-1.685408.754464-1.685408 1.685408-1.685408 1.685408.754464 1.685408 1.685408zm1.592871 4.041844c0 .930944-.754464 1.685408-1.685408 1.685408s-1.685408-.754464-1.685408-1.685408.754464-1.685408 1.685408-1.685408 1.685408.754464 1.685408 1.685408zm-5.097185 0c0 .930944-.754464 1.685408-1.685408 1.685408s-1.685408-.754464-1.685408-1.685408.754464-1.685408 1.685408-1.685408 1.685408.754464 1.685408 1.685408zm-5.096172 0c0 .930944-.754464 1.685408-1.685408 1.685408s-1.685408-.754464-1.685408-1.685408.754464-1.685408 1.685408-1.685408 1.685408.754464 1.685408 1.685408z" fill="#474747" fill-rule="evenodd"/>
</svg>
