<?xml version="1.0" encoding="UTF-8" standalone="no"?>
<svg
   xmlns:dc="http://purl.org/dc/elements/1.1/"
   xmlns:cc="http://creativecommons.org/ns#"
   xmlns:rdf="http://www.w3.org/1999/02/22-rdf-syntax-ns#"
   xmlns:svg="http://www.w3.org/2000/svg"
   xmlns="http://www.w3.org/2000/svg"
   xmlns:sodipodi="http://sodipodi.sourceforge.net/DTD/sodipodi-0.dtd"
   xmlns:inkscape="http://www.inkscape.org/namespaces/inkscape"
   width="16"
   height="16"
   version="1.1"
   id="svg8"
   sodipodi:docname="application-x-bittorrent.svg"
   inkscape:version="0.92.4 (5da689c313, 2019-01-14)">
  <metadata
     id="metadata14">
    <rdf:RDF>
      <cc:Work
         rdf:about="">
        <dc:format>image/svg+xml</dc:format>
        <dc:type
           rdf:resource="http://purl.org/dc/dcmitype/StillImage" />
      </cc:Work>
    </rdf:RDF>
  </metadata>
  <defs
     id="defs12" />
  <sodipodi:namedview
     pagecolor="#ffffff"
     bordercolor="#666666"
     borderopacity="1"
     objecttolerance="10"
     gridtolerance="10"
     guidetolerance="10"
     inkscape:pageopacity="0"
     inkscape:pageshadow="2"
     inkscape:window-width="1560"
     inkscape:window-height="946"
     id="namedview10"
     showgrid="false"
     inkscape:zoom="60.249122"
     inkscape:cx="8.0004979"
     inkscape:cy="7.5810578"
     inkscape:window-x="0"
     inkscape:window-y="27"
     inkscape:window-maximized="0"
     inkscape:current-layer="g4" />
  <g
     transform="translate(-192,-180)"
     id="g6"
     style="stroke:#000000;stroke-opacity:1;stroke-width:0.6;stroke-miterlimit:4;stroke-dasharray:none">
    <g
       transform="matrix(0.10135284,0,0,0.10135302,183.17562,172.60772)"
       id="g4"
       style="stroke:#000000;stroke-opacity:1;stroke-width:5.91990779;stroke-miterlimit:4;stroke-dasharray:none">
      <path
         style="color:#000000;font-style:normal;font-variant:normal;font-weight:normal;font-stretch:normal;font-size:medium;line-height:normal;font-family:sans-serif;font-variant-ligatures:normal;font-variant-position:normal;font-variant-caps:normal;font-variant-numeric:normal;font-variant-alternates:normal;font-feature-settings:normal;text-indent:0;text-align:start;text-decoration:none;text-decoration-line:none;text-decoration-style:solid;text-decoration-color:#000000;letter-spacing:normal;word-spacing:normal;text-transform:none;writing-mode:lr-tb;direction:ltr;text-orientation:mixed;dominant-baseline:auto;baseline-shift:baseline;text-anchor:start;white-space:normal;shape-padding:0;clip-rule:nonzero;display:inline;overflow:visible;visibility:visible;opacity:1;isolation:auto;mix-blend-mode:normal;color-interpolation:sRGB;color-interpolation-filters:linearRGB;solid-color:#000000;solid-opacity:1;vector-effect:none;fill:#444444;fill-opacity:1;fill-rule:nonzero;stroke:none;stroke-width:5.91990757;stroke-linecap:butt;stroke-linejoin:miter;stroke-miterlimit:4;stroke-dasharray:none;stroke-dashoffset:0;stroke-opacity:1;color-rendering:auto;image-rendering:auto;shape-rendering:auto;text-rendering:auto;enable-background:accumulate"
         d="m 152.00787,93.035081 c -22.48348,0 -43.29367,12.016499 -54.535562,31.488029 -11.241293,19.47049 -11.241293,43.48628 0,62.95677 11.241892,19.47153 32.052082,31.48802 54.535562,31.48802 h 90.95684 v -13.93258 h -90.95684 c -17.53287,0 -33.7062,-9.3289 -42.47222,-24.51209 -8.76593,-15.18303 -8.76593,-33.86045 0,-49.04347 8.76602,-15.18319 24.93935,-24.51209 42.47222,-24.51209 h 2.96766 V 93.035081 Z m -2.4859,16.071609 c -11.37761,0.60389 -22.40669,5.34941 -30.77501,13.73988 -13.39274,13.4282 -17.38586,33.64747 -10.11703,51.16322 7.269,17.51614 24.41394,28.96359 43.37794,28.96359 h 90.95684 v -13.93259 h -90.95684 c -13.37544,0 -25.39701,-8.03247 -30.5245,-20.3882 -5.1275,-12.35577 -2.31762,-26.5246 7.13009,-35.99733 9.44713,-9.47212 23.60799,-12.30231 35.97806,-7.20717 l 2.73641,1.13696 5.28012,-12.89197 -2.73641,-1.11769 c -6.57495,-2.70818 -13.52247,-3.83105 -20.34967,-3.4687 z m 1.54165,15.93672 c -4.99831,0.14758 -10.00797,1.52126 -14.54925,4.14316 -12.10954,6.99146 -18.03357,21.31463 -14.41434,34.82182 3.6197,13.50886 15.92368,22.95119 29.90784,22.95119 h 90.95684 v -13.93259 h -90.95684 c -7.75395,0 -14.47028,-5.13566 -16.47629,-12.62218 -2.00627,-7.4875 1.24236,-15.2772 7.95873,-19.1549 6.71548,-3.87718 15.05839,-2.76682 20.54236,2.71715 l 2.10049,2.08121 9.84723,-9.84723 -2.08121,-2.10049 c -6.17783,-6.17781 -14.50759,-9.30301 -22.83556,-9.05714 z"
         id="path2"
         inkscape:connector-curvature="0"
         sodipodi:nodetypes="ssssccssssccscsssccsscccccccccsccsssccccc" />
    </g>
  </g>
</svg>
