<svg xmlns="http://www.w3.org/2000/svg" width="16" height="16" version="1.1">
 <title id="title9167">
  Gnome Symbolic Icon Theme
 </title>
 <g id="layer9" transform="translate(-223.0002,-215)">
  <path style="fill:#474747" d="m 226.52654,226.49882 c 0.59734,-0.0159 1.19116,-0.20218 1.67471,-0.5444 0.56088,-0.39683 0.95771,-0.96925 1.39517,-1.49282 0.21886,-0.26179 0.45191,-0.51386 0.72024,-0.72749 0.26834,-0.21364 0.57443,-0.38749 0.90929,-0.47483 0.335,-0.0873 0.68939,-0.0862 1.03154,-0.0317 0.34215,0.0544 0.67454,0.16047 0.99847,0.28073 0.64785,0.24052 1.28529,0.54201 1.97491,0.61276 0.95143,0.0976 1.94187,-0.28686 2.56332,-0.99481 0.62144,-0.70794 0.8567,-1.72007 0.60908,-2.61946 -0.24761,-0.8994 -0.97177,-1.66065 -1.87366,-1.97129 -0.90188,-0.31065 -1.95672,-0.16184 -2.73047,0.38564 -0.56089,0.39696 -0.95772,0.9693 -1.39518,1.49282 -0.21886,0.26182 -0.45191,0.51388 -0.72024,0.72753 -0.26834,0.21365 -0.57442,0.38746 -0.90929,0.47483 -0.33499,0.0874 -0.68938,0.0862 -1.03154,0.0318 -0.34216,-0.0544 -0.67454,-0.16053 -0.99847,-0.2807 -0.64785,-0.2406 -1.28529,-0.542 -1.97494,-0.61283 -0.95147,-0.0976 -1.94186,0.28695 -2.56329,0.99483 -0.62142,0.70795 -0.85668,1.72006 -0.60905,2.61946 0.24763,0.89941 0.97178,1.66063 1.87364,1.97131 0.33825,0.11651 0.69746,0.16825 1.05576,0.15868 z"/>
 </g>
</svg>
