<svg height="16" width="16" xmlns="http://www.w3.org/2000/svg">
  <path d="m231.00038 215.49899c-.252.0005-.50376.0137-.75438.0396-.23837.024-.47325.0596-.70462.10546-.0103.002-.0205.003-.0308.005-.21738.0441-.42988.10156-.64013.16407-.0299.008-.0596.0154-.0894.0234-.23713.0737-.46938.1574-.69575.25341-.22376.0948-.44276.20038-.65629.31641-.4235.23048-.82379.50127-1.19532.80859-.1854.15299-.36334.31479-.5332.48486-.16199.16228-.31644.33189-.46288.5083-.009.0104-.0178.0204-.0264.0308-.11844.14658-.23131.29757-.33838.45264-.038.0539-.0776.1062-.11425.16114-.0814.12461-.15907.25163-.23291.38086-.052.089-.10542.1768-.15381.26806-.0602.11613-.11735.23388-.17139.353-.0502.108-.0999.216-.14501.32663-.0448.11325-.0868.22763-.12598.34287-.0427.12125-.0851.24213-.12158.36613-.0308.10875-.0591.21813-.085.32813-.032.13062-.0643.261-.0894.39412-.0223.12588-.0413.25238-.0571.37938-.0159.11775-.0321.23512-.0425.3545-.0207.21712-.032.43512-.0337.65325.0005.25199.0137.50375.0396.75437.12895 1.28175.58307 2.46863 1.27735 3.479.006.009.0126.0187.019.0279.0537.0771.10893.15338.16553.2285.00037-.003.001-.005.002-.007 1.36958 1.82701 3.54492 3.01763 5.99704 3.01763 1.4085 0 2.7235-.39762 3.85113-1.07662l.001.001c.0151-.0102.0303-.0205.0454-.0308.17888-.10962.35287-.225.5215-.34862.0388-.0285.0774-.0572.11563-.0865.14812-.113.29149-.231.43074-.3545.0564-.0504.11213-.10163.16701-.15375.11587-.10925.22799-.22213.33687-.33838.0648-.0686.12825-.1385.19037-.2095.10226-.11787.19963-.23925.2945-.36325.0519-.067.10275-.13488.15238-.20362.0996-.13988.19263-.28401.28263-.43076.0375-.0595.0741-.1195.10987-.18012.0892-.15488.17087-.3145.24913-.47613.0306-.0615.0604-.12349.0893-.186.0701-.15562.13237-.315.192-.476.029-.0763.0569-.15287.0834-.23.0517-.15537.0961-.3135.13775-.47312.0219-.0802.0424-.16088.0615-.24175.0339-.15088.0602-.30438.085-.4585.0171-.10125.0324-.20288.0454-.30476.0155-.13199.0236-.26575.0323-.39987.0134-.15938.0216-.31912.0249-.479 0-.25288-.0135-.502-.0382-.7485l-.002-.006c-.024-.23837-.0595-.47325-.10538-.70463-.002-.01-.002-.0206-.004-.0308-.0441-.21737-.10162-.42987-.16412-.64012-.008-.0284-.0131-.0581-.0219-.0864l-.003-.0103c-.0732-.23473-.15693-.46423-.25205-.68848-.0948-.22376-.20026-.44275-.31638-.65628-.2305-.4235-.50125-.82378-.80863-1.19531-.15287-.1854-.31475-.36334-.48474-.5332-.16238-.16199-.33188-.31644-.50838-.46289-.008-.007-.0166-.0147-.0249-.022-.002-.002-.004-.003-.006-.005-.14648-.11844-.29748-.23132-.4526-.33839-.0539-.038-.10613-.0776-.16113-.11426-.12462-.0814-.25162-.15906-.38087-.2329-.0889-.052-.17675-.10541-.268-.15381-.11613-.0602-.23388-.11734-.35301-.17139-.10799-.0502-.216-.0999-.32674-.14501-.11313-.0448-.22738-.0867-.34263-.12595-.12138-.0427-.24225-.0851-.36625-.12159-.10875-.0308-.21813-.0591-.32812-.085-.13063-.032-.26088-.0643-.39401-.0893-.126-.0223-.25249-.0413-.37937-.0571-.11775-.0159-.23513-.0321-.3545-.0425-.21725-.0207-.43525-.032-.65338-.0337zm-1.13963 1.08252 1.01313 2.37891 1.73362-1.47218v4.11326l4.01788 3.2725-1.23487.82112-3.43213-.0351 1.92187 2.60651c-.85425.46662-1.83475.73249-2.87987.73249-2.50013 0-4.63341-1.5165-5.53711-3.68262.47302-1.82751 1.17951-3.59188 2.19136-4.57613.43175-1.58869 1.27412-2.90363 2.20612-4.15873zm1.19325 5.66749.0005.63863 1.44575.11137c-.186-.44963-.59049-.65675-1.44637-.75z" fill="#474747" transform="translate(-223.0002 -215)"/>
</svg>
