<svg height="16" viewBox="0 0 16 16" width="16" xmlns="http://www.w3.org/2000/svg">
  <path d="m3.086295 9.795579h-.693062l-.249071-.790056h-1.202029l-.249071.790056h-.693062l1.239933-3.59116h.606429zm-1.635195-2.411208-.335702 1.067087h.855499l-.335702-1.067087q-.054145-.164167-.092047-.400157-.064976.312944-.092048.400157zm3.470728 2.472772q-.460236 0-.828426-.251384-.36819-.25138-.519797-.672058l.584771-.20521q.124534.251384.343823.402724.219291.151341.473773.151341.249071 0 .400678-.123124.151607-.123128.151607-.353987 0-.194947-.205752-.346292-.205753-.151341-.573943-.305247-.232826-.097474-.373603-.169297-.14078-.071823-.316753-.200079-.175971-.128255-.262604-.302683-.086633-.174428-.086633-.389899 0-.400157.322165-.674624.322166-.274467.847378-.274467.416919 0 .728256.215468.311337.215471.414213.548935l-.579357.184688q-.194924-.374506-.601015-.374506-.211168 0-.346531.102605-.135364.102605-.135364.282162 0 .041043.010829.079518.010829.038477.037902.071825.027072.033346.051439.061562.024364.028216.075803.061562.051439.033346.086633.053867.035196.020522.105583.053867.07039.033348.108292.048738.037902.01539.124534.053867.086633.038478.124535.053868.227412.097475.379019.182122.151607.08465.335701.223166.184095.138517.281557.328336.097462.189816.097462.415548 0 .492501-.365481.779793-.365482.287295-.890694.287295zm3.35702-.005131q-.319457 0-.576647-.107734-.25719-.107735-.42775-.284728-.17056-.176994-.284265-.420679-.113705-.243685-.162438-.502764-.048729-.259075-.048729-.536108 0-.338595.083925-.654105.083925-.315508.25719-.589975.173266-.274467.471068-.4412.297802-.166733.687646-.166733.443993 0 .741795.215471.297802.215468.433166.533542l-.573945.261643q-.119117-.215471-.257191-.323205-.138069-.107735-.343825-.107735-.292382 0-.487306.20521-.194924.205208-.270728.479676-.075803.274467-.075803.587411 0 .507892.216578.890095.216583.382204.617259.382204.379021 0 .606431-.461722l.584773.210338q-.357362.831098-1.191204.831098zm4.38579-3.647593v.538674h-.795939v2.513811h.795939v.538675h-2.230797v-.538675h.790525v-2.513811h-.790525v-.538674zm3.335362 0v.538674h-.79594v2.513811h.79594v.538675h-2.230793v-.538675h.790524v-2.513811h-.790524v-.538674z" fill="#474747" fill-rule="evenodd"/>
</svg>
