<svg height="16" width="16" xmlns="http://www.w3.org/2000/svg">
  <path d="m6.928571.5000079c-.192821 0-.353504.7447243-.447824 1.8090609a5.8928563 5.8928563 0 0 0 -1.424038.5985016c-.822614-.6894372-1.465194-1.1055979-1.601909-.9688767l-1.516113 1.5161111c-.136714.1367324.279453.7792955.968888 1.6019167a5.8928563 5.8928563 0 0 0 -.593261 1.424013c-1.067323.094213-1.814314.2546933-1.814314.447835v2.1428521c0 .1928183.744741.3535198 1.809083.4478225a5.8928563 5.8928563 0 0 0 .596399 1.4271829c-.687867.821141-1.103348 1.462226-.966795 1.59877l1.516113 1.516117c.136429.136404.776694-.278056 1.596679-.964709a5.8928563 5.8928563 0 0 0 1.429268.58909c.09423 1.067307.254681 1.814305.447824 1.814305h2.142857c.19282 0 .353503-.744741.447824-1.809083a5.8928563 5.8928563 0 0 0 1.424037-.598496c.822615.689431 1.465196 1.105609 1.601911.968893l1.516113-1.516117c.136715-.136726-.279453-.779295-.96889-1.601905a5.8928563 5.8928563 0 0 0 .593261-1.4240479c1.067323-.0942 1.814316-.2546583 1.814316-.4478225v-2.1428521c0-.192807-.744741-.3534973-1.809082-.447835a5.8928563 5.8928563 0 0 0 -.596402-1.4271715c.687869-.8211408 1.103348-1.4622189.966797-1.5987582l-1.516113-1.5161167c-.13643-.1364034-.776695.2780614-1.596681.9646926a5.8928563 5.8928563 0 0 0 -1.429267-.5890731c-.09423-1.0673301-.254682-1.8142997-.447824-1.8142997zm1.071429 4.8214128a2.6785711 2.6785711 0 0 1 2.67857 2.678572 2.6785711 2.6785711 0 0 1 -2.67857 2.6785723 2.6785711 2.6785711 0 0 1 -2.678571-2.6785723 2.6785711 2.6785711 0 0 1 2.678571-2.678572z" fill="#474747"/>
</svg>
