<svg viewBox="0 0 16 16" xmlns="http://www.w3.org/2000/svg">
  <g fill="#474747" transform="matrix(.57690865 0 0 .57690865 -7.791822 11.96629)">
    <path d="m29.1-14.941c-.21-.21-.548-.219-.768-.02-1.137 1.021-7.112 6.208-13.149 8.04l-.065.02c-.157.048-.285.162-.35.312-.065.151-.061.322.011.469l.03.061c0 .0001.0001.002.0001.002.021.043.891 1.86 1 4.421.07 1.592-.161 3.122-.684 4.551-.187.015-.37.093-.513.236-.319.319-.319.835 0 1.154s.835.319 1.154 0c.184-.184.261-.435.232-.674l5.849-5.849c.146-.146.2-.36.139-.557-.207-.68-.022-1.415.482-1.919.364-.364.847-.564 1.362-.564s.999.2 1.362.564c.364.364.564.847.564 1.362 0 .514-.2.998-.564 1.362s-.847.564-1.361.564c-.191 0-.379-.028-.559-.082-.197-.06-.411-.006-.557.139l-5.848 5.849c-.24-.029-.491.048-.675.232-.319.319-.318.835 0 1.154.319.319.835.319 1.154 0 .143-.143.221-.326.236-.513 1.26-.462 2.601-.696 3.988-.696.174 0 .352.004.529.011 2.569.106 4.442.999 4.459 1.01l.059.029c.078.038.162.057.246.057.076 0 .151-.015.223-.046.15-.065.264-.193.312-.35l.02-.065c1.834-6.04 7.02-12.01 8.04-13.149.198-.221.189-.558-.021-.768l-6.344-6.345"/>
    <path d="m40.21-13.224-6.488-6.487c-.105-.105-.247-.164-.395-.164s-.29.059-.395.163l-2.776 2.776c-.218.218-.218.572 0 .79l6.488 6.487c.105.105.247.164.395.164s.29-.059.395-.164l2.776-2.776c.218-.218.218-.572 0-.79"/>
  </g>
</svg>
