<?xml version="1.0" encoding="UTF-8" standalone="no"?>
<svg
   xmlns:dc="http://purl.org/dc/elements/1.1/"
   xmlns:cc="http://creativecommons.org/ns#"
   xmlns:rdf="http://www.w3.org/1999/02/22-rdf-syntax-ns#"
   xmlns:svg="http://www.w3.org/2000/svg"
   xmlns="http://www.w3.org/2000/svg"
   xmlns:sodipodi="http://sodipodi.sourceforge.net/DTD/sodipodi-0.dtd"
   xmlns:inkscape="http://www.inkscape.org/namespaces/inkscape"
   width="16"
   height="16"
   version="1.1"
   id="svg8"
   sodipodi:docname="application-x-img.svg"
   inkscape:version="0.92.4 (5da689c313, 2019-01-14)">
  <metadata
     id="metadata14">
    <rdf:RDF>
      <cc:Work
         rdf:about="">
        <dc:format>image/svg+xml</dc:format>
        <dc:type
           rdf:resource="http://purl.org/dc/dcmitype/StillImage" />
        <dc:title>
  Gnome Symbolic Icon Theme
 </dc:title>
      </cc:Work>
    </rdf:RDF>
  </metadata>
  <defs
     id="defs12" />
  <sodipodi:namedview
     pagecolor="#ffffff"
     bordercolor="#666666"
     borderopacity="1"
     objecttolerance="10"
     gridtolerance="10"
     guidetolerance="10"
     inkscape:pageopacity="0"
     inkscape:pageshadow="2"
     inkscape:window-width="793"
     inkscape:window-height="480"
     id="namedview10"
     showgrid="false"
     inkscape:zoom="14.75"
     inkscape:cx="8"
     inkscape:cy="8"
     inkscape:window-x="0"
     inkscape:window-y="27"
     inkscape:window-maximized="0"
     inkscape:current-layer="svg8" />
  <title
     id="title9167">
  Gnome Symbolic Icon Theme
 </title>
  <g
     id="layer10"
     transform="translate(-201.0002,-448)">
    <path
       d="m 208.98907,448.99554 c -3.84231,0 -6.99332,3.15102 -6.99332,6.99332 0,3.8423 3.15101,7.01559 6.99332,7.01559 3.8423,0 7.01559,-3.17329 7.01559,-7.01559 0,-3.8423 -3.17329,-6.99332 -7.01559,-6.99332 z m 0,4.00891 c 1.68054,0 3.00668,1.30387 3.00668,2.98441 0,1.68054 -1.32614,3.00668 -3.00668,3.00668 -1.68055,0 -2.98441,-1.32614 -2.98441,-3.00668 0,-1.68054 1.30386,-2.98441 2.98441,-2.98441 z"
       style="fill:#444444"
       id="path3" />
    <path
       d="m 209.00524,454.0058 c -1.09865,0 -2.01317,0.89789 -2.01317,1.99654 0,1.09864 0.91452,1.99653 2.01317,1.99653 1.09865,0 1.99654,-0.89789 1.99654,-1.99653 0,-1.09865 -0.89789,-1.99654 -1.99654,-1.99654 z m 0,0.99827 c 0.55821,0 0.99827,0.44006 0.99827,0.99827 0,0.5582 -0.44006,0.99826 -0.99827,0.99826 -0.55821,0 -0.99827,-0.44006 -0.99827,-0.99826 0,-0.55821 0.44006,-0.99827 0.99827,-0.99827 z"
       style="fill:#444444"
       id="path5" />
  </g>
</svg>
