<svg height="16" width="16" xmlns="http://www.w3.org/2000/svg">
  <g fill="#474747" transform="translate(-502 -300)">
    <path d="m504 302c-.52358.00005-.99995.47642-1 1v10c.00005.52358.47642.99995 1 1h3.0001v-2s-1.9929-.0211-2.0001.0001v-8h11l.00066 7.9999h-1.0006v2h2.0006c.5193 0 .9993-.43501.9993-.99988v-10c.00075-.46663-.43709-1.0001-1-.9999z"/>
    <path d="m514 308.06a3 3 0 0 1 -5.9987 0 3 3 0 1 1 5.9987 0z"/>
    <path d="m510 309-2.0002 7h1l2.0002-2 1.9998 2h1l-1.9999-7" fill-rule="evenodd"/>
  </g>
</svg>
