<svg height="16" width="16" xmlns="http://www.w3.org/2000/svg">
  <g fill="#444" transform="translate(-201.0002 -448)">
    <path d="m208.98907 448.99554c-3.84231 0-6.99332 3.15102-6.99332 6.99332s3.15101 7.01559 6.99332 7.01559c3.8423 0 7.01559-3.17329 7.01559-7.01559s-3.17329-6.99332-7.01559-6.99332zm0 4.00891c1.68054 0 3.00668 1.30387 3.00668 2.98441s-1.32614 3.00668-3.00668 3.00668c-1.68055 0-2.98441-1.32614-2.98441-3.00668s1.30386-2.98441 2.98441-2.98441z"/>
    <path d="m209.00524 454.0058c-1.09865 0-2.01317.89789-2.01317 1.99654 0 1.09864.91452 1.99653 2.01317 1.99653s1.99654-.89789 1.99654-1.99653c0-1.09865-.89789-1.99654-1.99654-1.99654zm0 .99827c.55821 0 .99827.44006.99827.99827 0 .5582-.44006.99826-.99827.99826s-.99827-.44006-.99827-.99826c0-.55821.44006-.99827.99827-.99827z"/>
  </g>
</svg>
