<svg height="16" viewBox="0 0 16 16" width="16" xmlns="http://www.w3.org/2000/svg">
  <path d="m14.666282 15.619777c-.149521-.022124-.276408-.088492-.379139-.198851-.226312-.242842-.598838-.956617-.904234-1.7332-.17164-.436096-.499921-1.396273-.499921-1.461877 0-.020597.216649-.16376.481359-.317855l.481359-.280222.075524.070691c.299036.28073 1.159788 1.566644 1.661744 2.48232.200885.36617.220974.418298.22021.569342-.001017.201138-.064334.341504-.243348.540607-.214362.238519-.584092.37456-.893554.329045zm-14.306272-.239027c.009154-.024666.155622-.685296.325738-1.468491.169861-.782941.312769-1.428312.317346-1.434161.015257-.019581 1.55342 1.059347 1.552912 1.089608 0 .016527-.444743.398461-.987893.849053-1.223106 1.014593-1.228192 1.018661-1.208103.963991zm1.628943-2.762541c-.428469-.296241-.77582-.551288-.771752-.566546.010172-.036362 3.69195-6.268863 3.722209-6.300394.016782-.017546 1.625637.993997 1.700906 1.069264.016274.016275-3.811718 6.322517-3.842232 6.329637-.016274.003814-.380408-.235466-.809131-.531961zm10.105245-1.646999c-.293952-.495344-.529928-.903469-.524587-.907285.052383-.03687 1.165638-.676903 1.177588-.676903.018308 0 .953057 1.861359.939325 1.871022-.12053.084167-1.012559.616129-1.031629.615113-.014494-.000765-.266999-.4066-.560697-.901947zm-12.082557-.093321c-.010172-.086458-.014494-.783958-.009663-1.549861l.009154-1.392459 1.54325.009663c.849054.004577 1.547063.012459 1.551386.016782.004323.003814-.404057.697502-.907794 1.540708l-.915676 1.532824h-.626048-.626046zm4.629748.112902c0-.007628.41906-.702333.931443-1.543249l.931696-1.52901h1.653609 1.653354l.883891 1.47205c.486191.80964.901182 1.504344.922288 1.543504l.038397.071199h-3.507339c-1.928998 0-3.507339-.006866-3.507339-.014494zm9.022251-.652239c-.178-.366932-.513147-1.054769-.744544-1.528501l-.421094-.861769h1.144024c.629352 0 1.417124-.008645 1.750998-.019833l.606976-.01958v1.548336 1.54808h-1.006456-1.006202zm-2.554284-.989164c-.677665-1.067484-1.368047-2.321867-2.197522-3.993277-.658086-1.32609-1.291508-2.696934-1.552912-3.361125-.378628-.96221-.469154-1.56054-.244366-1.616737.359557-.090271 1.06316.726235 2.065039 2.396118.78472 1.308037 2.040376 3.593795 2.998263 5.458714.177998.346081.355235.685295.393885.753697l.070437.1246-.597059.347606c-.328281.190967-.607993.347607-.62147.347607-.013222 0-.154858-.205717-.314295-.457203zm-5.187647-3.308236-.832525-.548744.078573-.124598c.043229-.068404.261404-.416009.484666-.772516.223261-.356252.409396-.652239.413719-.657323.004323-.004831.379138.235211.833289.533996l.82566.543659-.123073.200122c-.067386.110105-.270813.442962-.451609.739711-.18105.296495-.3443.560697-.362608.586887-.028989.041195-.14774-.027461-.866092-.501194zm1.062399-1.782021c-.431267-.281747-.784467-.525605-.784467-.541879 0-.119005.356761-.449574.532471-.49382.289375-.072471.763614.112902 1.02807.402024.20419.223515.248945.332858.229873.561712-.014494.172659-.155113.584345-.199867.584345-.011952 0-.374561-.23038-.80608-.512382z" fill="#474747"/>
</svg>
