<svg height="16" width="16" xmlns="http://www.w3.org/2000/svg">
  <g fill="#474747">
    <path d="m11.527726.50527786c-.485058-.0565715-.552225.35293975-.501697.67875094-.0043 3.2421262.0096 6.4872204-.0064 9.7274832-.118468.111525-.345815-.07189-.496758-.02432-1.6443346-.09032-3.4409196.98398-3.6053086 2.534329-.193736 1.232627 1.251784 2.24681 2.540811 2.055099 1.6242766-.155325 2.8932576-1.632238 2.6814886-3.090251.0043-2.5671147-.0096-5.1372184.0064-7.7024795.110711-.1142466.27585.1290002.392486.1409252 1.306181.6963439 2.461611 1.8446384 2.539611 3.2746336.08571 1.1173945-.289747 2.2107787-.712244 3.2466587 1.415693-1.5701191 1.868886-3.8606116.885142-5.715161-.503122-1.0765301-1.638088-1.7399597-2.273018-2.7398826-.46889-.6682081-.82574-1.4141806-.937394-2.20305313-.091929-.16449667-.334061-.18453241-.513119-.18276455z"/>
    <path d="m1 2v1h8v-1z"/>
    <path d="m1 5v1h8v-1z"/>
    <path d="m1 8v1h8v-1z"/>
    <path d="m1 11v1h5v-1z"/>
  </g>
</svg>
