<svg height="16" width="16" xmlns="http://www.w3.org/2000/svg">
  <g enable-background="new" fill="#474747" transform="matrix(.28455811 0 0 .28455811 -5.65879 -5.29294)">
    <path d="m7.78125.50390625a7.5000328 7.5000328 0 0 0 -7.28125 7.49609375 7.5000328 7.5000328 0 0 0 15 0 7.5000328 7.5000328 0 0 0 -7.71875-7.49609375zm-3.9628906 6.76562495a.91465111.91465105 0 0 1 .8886718.9140626.91465111.91465105 0 0 1 -1.828125 0 .91465111.91465105 0 0 1 .9394532-.9140626zm8.4160156 0a.91465111.91465105 0 0 1 .886719.9140626.91465111.91465105 0 0 1 -1.828125 0 .91465111.91465105 0 0 1 .941406-.9140626zm-7.9550781 3.7363278c.0757491.728527.3611426 1.359337.7773437 1.929688-.6778239-.296559-1.2101282-.984914-1.703125-1.785156zm7.3339841.023438.949219.119141c-.48014.833098-1.003588 1.554056-1.6875 1.876953.409472-.596012.682023-1.248319.738281-1.996094z" transform="matrix(3.5142207 0 0 3.5142207 19.886237 18.600559)"/>
    <path d="m317.56868 170.64923c-.50716.60775.94601 1.4143 1.34518.64672.44663-.85884-.0474-2.02942-.56597-2.54579-.11396-.11371-.36282.013-.33031.15591.1368.60141-.11676 1.34518-.4489 1.74316z" transform="matrix(-4.1673404 2.1084133 2.1084133 4.1673404 994.95756 -1354.1937)"/>
    <path d="m317.45948 170.57723c-.5499.62574.98217 1.41858 1.41991.63253.48978-.87949-.0158-2.05871-.55861-2.5736-.11928-.11337-.38617.0197-.35403.16407.13528.60793-.14716 1.36724-.50727 1.777z" transform="matrix(4.1954244 1.7411202 -1.7411202 4.1954244 -970.3241 -1241.5504)"/>
  </g>
</svg>
