<svg height="16" viewBox="0 0 16 16" width="16" xmlns="http://www.w3.org/2000/svg">
  <path d="m3.428571 13.142857v1.142857h12.571429v-1.142857zm0-11.428571v2.285714h12.571429v-2.285714zm0 4.571428v2.285715h12.571429v-2.285715zm0 2.285715v1.142857h12.571429v-1.142857zm0 2.285714v2.285714h12.571429v-2.285714zm0-6.857143v1.142857h12.571429v-1.142857zm-3.428571-2.285714h2.285714v2.285714h-2.285714zm0 2.285714h2.285714v1.142857h-2.285714zm0 2.285714h2.285714v2.285715h-2.285714zm0 2.285715h2.285714v1.142857h-2.285714zm0 2.285714h2.285714v2.285714h-2.285714zm0 2.285714h2.285714v1.142857h-2.285714z" fill="#474747" fill-rule="evenodd"/>
</svg>
