<svg height="16" viewBox="0 0 16 16" width="16" xmlns="http://www.w3.org/2000/svg">
  <path d="m574.66893 120.97637c-6.00499.17367-11.78091 2.5369-16.02294 6.77894l44.37123 44.37123a16.0016 16.0016 0 0 0 4.80325 10.45842l22.13124 22.13123c-1.7715 4.52023-2.82758 9.40651-2.82758 14.55478 0 22.09138 17.91162 39.98486 40.00299 39.98486h40.00298v-39.98486c0-22.09138-17.9116-40.00298-40.00298-40.00298-5.14382 0-10.01965 1.05899-14.53665 2.82758l-22.14937-22.14937a16.0016 16.0016 0 0 0 -10.44029-4.78513l-27.89515-27.89515c-5.19113-4.45235-11.43174-6.46322-17.43673-6.28955z" fill="#474747" transform="matrix(.10775563 0 0 .10775563 -60.197251 -11.936275)"/>
</svg>
