<svg height="16" width="16" xmlns="http://www.w3.org/2000/svg">
  <g fill="#474747">
    <g fill-rule="evenodd">
      <path d="m3 1a1 1 0 0 0 -1 1v13a1 1 0 0 0 1 1h10a1 1 0 0 0 1-1v-9.5a1 1 0 0 0 -.293-.707l-3.5-3.5a1 1 0 0 0 -.707-.293zm1 2h5.086l2.914 2.914v8.086h-8z"/>
      <path d="m9 2v4h4z"/>
      <path d="m3 1a1 1 0 0 0 -1 1v13a1 1 0 0 0 1 1h10a1 1 0 0 0 1-1v-9.5a1 1 0 0 0 -.293-.707l-3.5-3.5a1 1 0 0 0 -.707-.293zm1 2h5.086l2.914 2.914v8.086h-8z"/>
      <path d="m9 2v4h4z"/>
    </g>
    <path d="m8.553 10.316c-.467-.064-1.046-.104-1.531.276-.404.315-.777.713-1.106 1.017-.328.304-.652.438-.586.438h-2.343v1h2.343c.582 0 .9-.368 1.264-.705.364-.338.731-.72 1.043-.963.106-.083.407-.124.78-.073.372.052.707.178 1.1.178.147 0 .217.037.325.13.108.091.23.25.365.444s.28.42.498.623c.218.204.546.381.922.381h.86v-1h-.86c-.099 0-.14-.019-.238-.111-.099-.092-.22-.262-.36-.463-.14-.2-.3-.433-.539-.637a1.518 1.518 0 0 0 -.972-.367c-.033 0-.499-.103-.965-.168zm-2.135-4.466c-.86 0-1.568.708-1.568 1.568s.708 1.568 1.568 1.568 1.569-.708 1.569-1.568-.709-1.569-1.569-1.569zm0 1c.32 0 .569.248.569.568s-.249.568-.569.568a.561.561 0 0 1 -.568-.568c0-.32.248-.569.568-.569z"/>
  </g>
</svg>
