<svg xmlns="http://www.w3.org/2000/svg" width="16" height="16" version="1.1">
 <title id="title9167">
  Gnome Symbolic Icon Theme
 </title>
 <g id="layer9" transform="translate(-223.0002,-215)">
  <path style="clip-rule:evenodd;fill:#444444;fill-rule:evenodd" d="m 238.5002,224.60249 -0.32413,3.02725 h -7.775 v -0.24012 l 3.92888,-4.34513 -3.81838,-4.87193 v -0.23805 h 7.36163 v 2.57498 h -0.4885 c -0.10087,-0.45475 -0.29575,-0.884 -0.58225,-1.28735 -0.28663,-0.40366 -0.58237,-0.62969 -0.89,-0.67872 -0.13837,-0.0234 -0.3335,-0.042 -0.58713,-0.0514 -0.25575,-0.0117 -0.46249,-0.0187 -0.62462,-0.0187 h -2.12525 l 3.06212,3.90874 v 0.10975 l -3.57862,3.93437 h 4.49225 c 0.20675,0 0.38987,-0.0606 0.55175,-0.18425 0.15975,-0.12112 0.29837,-0.27975 0.41337,-0.471 0.10563,-0.1725 0.1995,-0.366 0.28175,-0.57612 0.0763,-0.19625 0.149,-0.39375 0.21851,-0.59238 z m -9.20463,-7.88462 v 0.80492 h -0.92387 c -0.33775,0 -0.65625,0.0317 -0.95527,0.0925 -0.29896,0.0633 -0.59058,0.17761 -0.87506,0.34292 -0.26255,0.15818 -0.47649,0.37212 -0.6419,0.64449 -0.16519,0.27487 -0.25033,0.60579 -0.25033,0.9948 0,0.56425 0.2042,0.99487 0.61023,1.289 0.40583,0.29438 0.94314,0.44275 1.61408,0.44275 h 1.03075 v 0.74675 h -1.39538 c -0.77317,0 -1.36376,0.16288 -1.76979,0.48863 -0.40605,0.32599 -0.60776,0.83687 -0.60776,1.535 0,0.5715 0.16541,1.014 0.49842,1.33025 0.33051,0.31625 0.79488,0.47425 1.38816,0.47425 h 0.9406 c 0.58837,0 1.03325,0.16049 1.33712,0.484 0.30388,0.3235 0.45713,0.75387 0.45713,1.29637 0,0.58363 -0.25038,1.11638 -0.75125,1.5955 -0.50075,0.4815 -1.09875,0.72 -1.79149,0.72 -0.49841,0 -0.85345,-0.0609 -1.06014,-0.18013 -0.20897,-0.12137 -0.31335,-0.29899 -0.31335,-0.53262 0,-0.18963 0.0582,-0.3405 0.17235,-0.45475 0.11679,-0.11425 0.28944,-0.17275 0.51787,-0.17275 0.13374,0 0.25282,0.0269 0.35988,0.0803 0.1,0.0477 0.19384,0.10738 0.27953,0.17763 0.0777,0.0559 0.16768,0.13137 0.27475,0.22137 0.10685,0.0899 0.20897,0.15801 0.30385,0.20663 0.11425,-0.01 0.23825,-0.0365 0.3745,-0.0826 0.13337,-0.0462 0.26238,-0.1215 0.38625,-0.23113 0.129,-0.1095 0.231,-0.23574 0.30637,-0.38187 0.0777,-0.1435 0.11438,-0.3405 0.11438,-0.58862 0,-0.34525 -0.10963,-0.60313 -0.33075,-0.76825 -0.22113,-0.16563 -0.53712,-0.25075 -0.95063,-0.25075 h -1.1109 c -0.81682,0 -1.48759,-0.248 -2.00793,-0.74663 -0.52262,-0.4985 -0.78517,-1.11637 -0.78517,-1.85325 0,-0.399 0.0802,-0.76375 0.23814,-1.0945 0.16045,-0.3285 0.37438,-0.61787 0.64665,-0.86575 0.25531,-0.23138 0.54951,-0.416 0.87755,-0.55487 0.33083,-0.1385 0.64914,-0.226 0.95307,-0.26488 v -0.0414 c -0.72195,-0.11913 -1.27138,-0.3575 -1.64575,-0.71263 -0.37687,-0.3575 -0.564,-0.78313 -0.564,-1.28175 0,-0.28212 0.0559,-0.53764 0.16768,-0.76615 0.11183,-0.231 0.26752,-0.4379 0.46676,-0.6178 0.18487,-0.16541 0.40355,-0.30879 0.65638,-0.42818 0.25591,-0.11839 0.51996,-0.21833 0.79014,-0.29905 v -0.11908 c -0.18962,0.005 -0.43769,0.0122 -0.74152,0.0267 -0.30393,0.0147 -0.564,0.0219 -0.78268,0.0219 -0.44741,0 -0.77545,-0.0633 -0.9869,-0.18972 -0.21177,-0.12404 -0.31614,-0.30404 -0.31614,-0.53751 0,-0.18498 0.0486,-0.34542 0.14576,-0.47928 0.0973,-0.13604 0.26255,-0.20411 0.49345,-0.20411 0.21889,0 0.40602,0.0437 0.55924,0.1289 0.15059,0.082 0.29516,0.17462 0.43262,0.27714 0.13111,0.099 0.26405,0.19555 0.39879,0.28955 0.11431,0.0778 0.28677,0.11658 0.52014,0.11658 0.51062,0 1.0649,-0.0145 1.66288,-0.0435 0.59562,-0.0269 1.12325,-0.0561 1.58249,-0.0852 z"/>
 </g>
</svg>
