<svg height="16" width="16" xmlns="http://www.w3.org/2000/svg">
  <g enable-background="new" fill="#474747" transform="matrix(.08041921 0 0 .08041921 -12.591923 5.270857)">
    <path d="m287.91699 117.05386v-10.08641l6.01956-.001c5.64952-.002 9.77559-2.2867 11.87691-6.57682 1.53707-3.138061 1.76565-5.869013 2.16567-25.873848.41989-21.000147.56521-22.590099 2.38018-26.042317 2.32061-4.41408 5.85669-7.284574 13.05917-10.601437l5.37748-2.476405-4.95004-2.081404c-5.89207-2.477484-10.96098-6.897158-13.53611-11.802103-1.73944-3.313033-1.90563-5.166709-2.32558-25.9341529-.41269-20.4073901-.60612-22.6350561-2.20873-25.4353771-2.06861-3.614284-6.14108-5.886568-11.83895-6.605269l-6.01956-.518165v-20.316191l10.51809.601825c19.04645 1.088611 28.52837 6.394042 32.62414 17.396428 1.10464 2.967625 1.50015 8.821889 1.91176 28.299828.47484 22.470673.66711 24.819278 2.26249 27.628082 2.24969 3.960742 8.30517 7.033749 15.09032 7.657867l5.21221.479835v21.443271l-5.54584.451948c-7.17331.584382-12.27655 3.403536-14.69882 8.120738-1.65402 3.221246-1.84404 5.482484-2.32208 27.628066-.55906 25.902431-1.00591 28.703811-5.54105 34.735711-4.34077 5.77343-17.09509 9.95165-30.46574 9.98024l-9.04548.0124z"/>
    <path d="m202.6741 125.8792c-10.88291-2.39996-16.95827-6.68882-20.42976-14.42254-1.62938-3.62986-1.8364-6.18946-2.27384-28.113138-.45705-22.906121-.58171-24.326776-2.47848-28.233151-2.4794-5.106532-7.287-7.734791-15.3494-8.391323l-5.56407-.453106v-21.444662l5.83574-.598333c8.0139-.82141 12.7631-3.286784 15.11991-7.84969 1.65005-3.194534 1.90874-5.28289 2.13418-17.22983586.62018-32.86298314.82478-36.31276014 2.36696-39.90717514 2.01168-4.688852 5.24008-8.05103 10.19153-10.614107 8.10382-4.194851 12.72798-4.905766 34.99504-5.380254l-.78128 19.776767-7.83174.61111c-6.49624.873676-9.77589 2.68879-11.601 6.418916-1.3566 2.772434-1.63689 6.276007-2.01206 25.1482921-.40769 20.5053409-.56256 22.1876339-2.38882 25.9475009-2.53328 5.215514-4.71192 7.212903-12.26501 11.245099l-6.21063 3.31535 5.02696 1.866222c6.45768 2.39741 10.83817 6.112318 13.37872 11.34594 1.91822 3.951565 2.04524 5.32448 2.45515 26.532718.46716 24.17237.76052 25.76975 5.36758 29.22824 1.42625 1.0712 4.21463 1.91537 7.13258 2.16087l6.72141.40314v19.9557l-9.06213-.0697c-3.92294-.0348-9.538-.59949-12.47798-1.24848z"/>
  </g>
</svg>
