<svg height="16" width="16" xmlns="http://www.w3.org/2000/svg">
  <path d="m231.06384 217.03374s-.61305.48432-1.23807.96563c-.64291-.0204-1.90416.12372-2.5875.37215-.62953-.39869-1.18239-.8392-1.18239-.8392s-.47272.81325-.76988 1.29034c-.44073.23447-.88323.49808-1.27756.84688-.33706-.13455-.6733-.27187-1.00824-.41165.60757 1.22545 1.01601 2.45245 2.12699 3.19006 1.76873-2.79361 9.98852-2.53606 11.79375-.0159 1.16684-.60843 1.62035-1.91769 2.07926-3.12641-.0503.0166-.67461.22535-1.07926.37982-.24175-.26312-.81131-.66758-1.13494-.86278-.30706-.56218-.75398-1.32187-.75398-1.32187s-.52937.39376-1.1429.82329c-.8288-.15302-1.83109-.33914-2.67443-.29318-.57396-.47175-1.15085-.9972-1.15085-.9972zm7.41846 4.80824c-.72378 1.07215-1.9016 1.81225-2.62698 2.21079-.5155.28248-1.70484.45341-1.70484.45341l-3.12272-1.61818-3.14063 1.58551s-1.17363-.18849-1.70483-.43693c-1.07237-.57233-1.79345-1.24827-2.55369-2.17415 0 0 .86113 2.0848 1.45909 3.53352 2.53426 3.34342 9.00533 3.5759 11.82642.0648.66764-1.50443 1.56818-3.61875 1.56818-3.61875z" fill="#474747" transform="translate(-223.0002 -215)"/>
</svg>
