<svg height="16" width="16" xmlns="http://www.w3.org/2000/svg">
  <g fill="#474747" transform="translate(-461 -321.00012)">
    <path d="m463.8127 322.00012a1.0000999 1.0000999 0 0 0 -.8125 1v13a1.0000999 1.0000999 0 0 0 1 1h10a1.0000999 1.0000999 0 0 0 1-1v-9.4375a1.0000999 1.0000999 0 0 0 -.28125-.71875l-3.5625-3.5625a1.0000999 1.0000999 0 0 0 -.71875-.28125h-6.4375a1.0000999 1.0000999 0 0 0 -.0937 0 1.0000999 1.0000999 0 0 0 -.0937 0zm1.1875 2h5v3h3v8h-8z"/>
    <path d="m469.5625 331.34375c-.46643-.0643-1.04585-.1297-1.53125.25-.40319.3154-.7654.72703-1.09375 1.03125s-.65996.4375-.59375.4375h-2.34375v1h2.34375c.58207 0 .88604-.38153 1.25-.71875s.75079-.69367 1.0625-.9375c.10629-.0831.40859-.14514.78125-.0937.37266.0514.69959.1875 1.09375.1875.14648 0 .20407.0328.3125.125s.24045.24389.375.4375.28193.42119.5.625.56155.375.9375.375h.84375v-1h-.84375c-.0991 0-.15147-.002-.25-.0937-.0985-.0921-.23537-.26783-.375-.46875s-.29184-.42134-.53125-.625-.57764-.375-.96875-.375c-.0328 0-.50232-.0919-.96875-.15625z"/>
    <path d="m467.41869 326.86218c-.86024 0-1.55632.72246-1.55632 1.58269 0 .86024.69608 1.55632 1.55632 1.55632s1.5827-.69608 1.5827-1.55632c0-.86023-.72246-1.58269-1.5827-1.58269zm0 1.00237c.3198 0 .58032.26053.58032.58032 0 .3198-.26052.55395-.58032.55395s-.55394-.23415-.55394-.55395c0-.31979.23414-.58032.55394-.58032z"/>
  </g>
</svg>
