<svg height="16" width="16" xmlns="http://www.w3.org/2000/svg">
  <path d="m64.5 452c-.27614 0-.5.22386-.5.5v2.9688c0 1.9684 1.258 3.6246 3 4.25v1.2812h-2c-.56475 0-1 .49007-1 1v1h.84375 2.1562 5 .0937.90625v-1c-.00006-.58435-.47642-.99995-1-1h-2v-1.2812c1.742-.62545 3-2.2816 3-4.25v-2.9688c0-.27614-.22386-.5-.5-.5s-.5.22386-.5.5c0 .069.006.12768.0312.1875v2.7812c0 1.9642-1.579 3.5312-3.5312 3.5312s-3.5-1.5671-3.5-3.5312v-2.9688c0-.27614-.22386-.5-.5-.5zm3.9998-4.0129c1.385 0 2.5 1.115 2.5 2.5v5.0129c0 1.385-1.115 2.5-2.5 2.5s-2.5-1.115-2.5-2.5v-5.0129c0-1.385 1.115-2.5 2.5-2.5z" fill="#e6ddff" transform="translate(-61 -447)"/>
</svg>
