<svg height="16" width="16" xmlns="http://www.w3.org/2000/svg">
  <g fill="#e6ddff" transform="translate(-101.03161 -467)">
    <path d="m102.02965 472c-.55291 0-.99804.5231-.99804 1.15625v4.5625c0 .63314.41568 1.28125.96859 1.28125h1c0 .63315.47458 1 1.02749 1h.99607c.55291 0 .97644-.36685.97644-1h5.98822c0 .63315.46672 1 1.01963 1h.99411c.55291 0 .99804-.36685.99804-1h1.00196c.55292 0 .99804-.64811.99804-1.28125v-4.5625c0-.63315-.44512-1.15625-.99804-1.15625zm.49902 1.19211c.2756 0 .49902.92718.49902 2.30789s-.22342 2.23803-.49902 2.23803-.49902-.85732-.49902-2.23803.22342-2.30789.49902-2.30789zm1.99607-.00018c.2756 0 .49902 1.11929.49902 2.5s-.25828 2.04082-.53388 2.04082-.46416-.85204-.46416-2.23275.22342-2.30807.49902-2.30807zm1.96121 0c.2756 0 .53388.92736.53388 2.30807s-.22342 2.23275-.49902 2.23275c-.27559 0-.49901-.85204-.49901-2.23275s.18856-2.30807.46415-2.30807zm7.02112-.19193c1.378 0 2.49509 1.11929 2.49509 2.5s-1.11709 2.5-2.49509 2.5-2.49509-1.11929-2.49509-2.5 1.11709-2.5 2.49509-2.5z"/>
    <path d="m-125 258a2 2 0 1 1 -4 0 2 2 0 1 1 4 0z" transform="matrix(.75 0 0 .75 208.7502 282)"/>
  </g>
</svg>
