<svg xmlns="http://www.w3.org/2000/svg" xmlns:osb="http://www.openswatchbook.org/uri/2009/osb" width="16.531" height="16" version="1.1">
 <title id="title9167">
  Gnome Symbolic Icon Theme
 </title>
 <defs>
  <linearGradient id="linearGradient19282" gradientTransform="matrix(-2.7365795,0.28202934,-0.18908311,-0.99988321,239.54008,-879.45557)" osb:paint="solid">
   <stop id="stop19284" offset="0" style="stop-color:#666666"/>
  </linearGradient>
 </defs>
 <g id="layer10" transform="translate(-260.7502,-547)">
  <path d="m 269.0021,547.00379 -1.0019,0.0275 0.0312,0.5 c 0.0471,0.46556 -0.20254,0.96951 -0.59375,1.21875 -0.35305,0.24895 -0.90493,0.1983 -1.59375,0.21875 -0.34855,0.003 -0.70297,0.0839 -1.03125,0.28125 -0.32828,0.19733 -0.64985,0.5469 -0.71875,1 -0.15832,0.89239 0.45382,1.63343 1.15625,1.78125 0.80729,0.17604 1.64453,0.0756 2.625,0 0.25579,-0.0197 0.60056,0.0205 0.8125,0.125 0.33374,0.26075 0.28443,0.40291 0.28125,0.875 l -4.90625,0 -0.75,0 -0.21875,0.71875 -1.96875,7 -0.375,1.28125 1.34375,0 13.875,0 1.3125,0 -0.375,-1.28125 -1.81315,-6.02719 -1.58617,1.53661 1.14932,3.77183 -11.28125,0 1.4375,-5 3.3125,0 1.84375,-1.9687 0,-0.0312 0,-0.46875 c -0.003,-0.61146 -0.40574,-1.09656 -0.84375,-1.3125 -0.43801,-0.21594 -0.93011,-0.25063 -1.34375,-0.21875 -0.99591,0.0768 -1.73951,0.12494 -2.3125,0 l -0.0312,0 c -0.19949,-0.042 -0.41743,-0.20971 -0.34375,-0.625 0.0189,-0.12428 0.0777,-0.19648 0.21875,-0.28125 0.14101,-0.0848 0.35246,-0.15487 0.53125,-0.15625 l 0.0312,0 c 0.56397,-0.0167 1.37705,0.11764 2.09375,-0.40625 0.81874,-0.59848 1.15373,-1.39515 1.0625,-2.125 z" style="fill:#E6DDFF"/>
  <path d="m 275.012,551.35352 c -0.40883,-0.40883 -1.07168,-0.40883 -1.48051,0 -0.0349,0.0354 -0.0672,0.0733 -0.0967,0.11324 l -4.95263,4.95262 -0.45047,1.89789 1.87026,-0.38976 4.99956,-4.99958 c 0.0389,-0.0287 0.0759,-0.0601 0.11048,-0.0939 0.40883,-0.40883 0.40883,-1.07167 0,-1.4805 z" style="clip-rule:evenodd;fill:#E6DDFF;fill-rule:evenodd;image-rendering:optimizeQuality;shape-rendering:geometricPrecision;text-rendering:geometricPrecision"/>
 </g>
</svg>
