<svg height="16" width="16" xmlns="http://www.w3.org/2000/svg">
  <g fill="#e6ddff" transform="translate(-161.0002 -567)">
    <path d="m165.18289 567c-1.79783.00001-3.15144 1.33801-3.15144 3v10c0 1.662 1.3536 3 3.15144 3h7.57212c1.79783-.00001 3.24519-1.33801 3.24519-3v-6.58931l-1.97596 2.87722v3.71209c.00001.554-.48245 1-1.08173 1h-7.91587c-.59928-.00001-1.01924-.44601-1.01923-1v-10c-.00001-.554.41995-.99999 1.01923-1h7.66076l1.31836-1.75c-.38069-.14431-.81253-.25-1.25075-.25z"/>
    <path d="m175.04053 568.03103s-2.51922 3.50643-4.04033 5.96897l-1.40567 1.1673.0373 1.57392-.76313 1.24524.69536-.001.74028-.58334 1.67496-.4626.5949-1.48097 4.18505-6.36462z"/>
  </g>
</svg>
