<svg height="16" viewBox="0 0 16 16" width="16" xmlns="http://www.w3.org/2000/svg">
  <g fill="#e6ddff" transform="translate(-281.0002 -547)">
    <path d="m287.0002 553c1.662 0 3 1.338 3 3v1c0 1.662-1.338 3-3 3h-3c-1.662 0-3-1.338-3-3v-1c0-1.662 1.338-3 3-3zm0 2h-3c-.554 0-1 .446-1 1v1c0 .554.446 1 1 1h3c.554 0 1-.446 1-1v-1c0-.554-.446-1-1-1z"/>
    <path d="m285.5002 561c-2.5 0-2.5.5-2.5.5 0 .5.5.5.5.5h4c.5 0 .5-.5.5-.5s0-.5-2.5-.5z"/>
    <path d="m294.0002 550.0625c1.662 0 3 1.338 3 3v3.9375c0 1.662-1.338 3-3 3h-3c-1.662 0-3-1.338-3-3v-3.9375c0-1.662 1.338-3 3-3zm0 2h-3c-.554 0-1 .446-1 1v3.9375c0 .554.446 1 1 1h3c.554 0 1-.446 1-1v-3.9375c0-.554-.446-1-1-1z"/>
    <path d="m292.5002 561c-2.5 0-2.5.5-2.5.5 0 .5.5.5.5.5h4c.5 0 .5-.5.5-.5s0-.5-2.5-.5z"/>
  </g>
</svg>
