<svg xmlns="http://www.w3.org/2000/svg" width="16" height="16" version="1.1">
 <title id="title9167">
  Gnome Symbolic Icon Theme
 </title>
 <g id="layer15" transform="translate(-521.0002,-381)">
  <path fill="#444" d="m 291,178.03125 a 1.96875,1.96875 0 1 1 -3.9375,0 1.96875,1.96875 0 1 1 3.9375,0 z" transform="matrix(1.5079365,0,0,1.5079365,88.159628,120.50893)"/>
  <path fill="#444" d="m 291,178.03125 a 1.96875,1.96875 0 1 1 -3.9375,0 1.96875,1.96875 0 1 1 3.9375,0 z" transform="matrix(1.5079365,0,0,1.5079365,98.128178,125.50893)"/>
  <path fill="#444" d="m 291,178.03125 a 1.96875,1.96875 0 1 1 -3.9375,0 1.96875,1.96875 0 1 1 3.9375,0 z" transform="matrix(1.5079365,0,0,1.5079365,98.128178,115.50893)"/>
  <path fill="#444" d="m 533.625,383.15625 -10.0625,4.875 -1.8125,0.90625 1.8125,0.90625 10.03125,5.0625 0.90625,-1.8125 -8.21875,-4.15625 8.21875,-4 -0.875,-1.78125 z"/>
 </g>
</svg>
