<svg height="16" width="16" xmlns="http://www.w3.org/2000/svg">
  <g fill="#444" transform="translate(-501.0002 -381)">
    <path d="m515.90195 383.0005c-.0423.008-.0841.0181-.125.0312-.44715.10014-.79228.5419-.78125 1v1.6875c.004 1.31255.004 1.31255-1.5625 1.3125h-1.4375c-.52358.00005-.99995.47642-1 1-.008.0726-.008.14613 0 .21875v.78125h6v-1-4c.006-.0623.006-.12518 0-.1875v-.8125h-.8125c-.0916-.0236-.18665-.0342-.28125-.0312z"/>
    <path d="m501.0047 389v1 4c-.006.0623-.006.12518 0 .1875v.8125h.8125c.0916.0236.18665.0342.28125.0312.0423-.008.0841-.0181.125-.0312.44715-.10014.79228-.5419.78125-1v-1.6875c-.00441-1.3125-.00441-1.3125 1.5625-1.3125h1.4375c.52358-.00005.99995-.47642 1-1 .008-.0726.008-.14613 0-.21875v-.78125z"/>
    <path d="m509.0002 382c-3.15321 0-5.81948 2.12571-6.6875 5h2.09375c.7734-1.76501 2.53819-3 4.59375-3s3.82035 1.23499 4.59375 3h2.09375c-.86802-2.87429-3.53429-5-6.6875-5zm-6.6875 9c.86802 2.87429 3.53429 5 6.6875 5s5.81948-2.12571 6.6875-5h-2.09375c-.7734 1.76501-2.53819 3-4.59375 3s-3.82035-1.23499-4.59375-3z"/>
  </g>
</svg>
