<svg height="24" width="24" xmlns="http://www.w3.org/2000/svg">
  <g fill="#fff" transform="translate(-136.11078 -642.00061)">
    <path d="m146.50761 646.99554c-3.02886 0-5.51073 2.47905-5.51073 5.50447 0 3.02541 2.48187 5.50446 5.51073 5.50446 3.02885 0 5.51072-2.47905 5.51072-5.50446 0-3.02542-2.48187-5.50447-5.51072-5.50447zm0 2.00893c1.94735 0 3.49951 1.55039 3.49951 3.49554 0 1.94514-1.55216 3.49553-3.49951 3.49553-1.94736 0-3.49952-1.55039-3.49952-3.49553 0-1.94515 1.55216-3.49554 3.49952-3.49554z"/>
    <path d="m149.8125 655a1.0001 1.0001 0 0 0 -.5 1.71875l4 4a1.0054782 1.0054782 0 1 0 1.40625-1.4375l-4-4a1.0001 1.0001 0 0 0 -.90625-.28125z"/>
  </g>
</svg>
