<?xml version="1.0" encoding="UTF-8" standalone="no"?>
<svg
   xmlns:dc="http://purl.org/dc/elements/1.1/"
   xmlns:cc="http://creativecommons.org/ns#"
   xmlns:rdf="http://www.w3.org/1999/02/22-rdf-syntax-ns#"
   xmlns:svg="http://www.w3.org/2000/svg"
   xmlns="http://www.w3.org/2000/svg"
   xmlns:sodipodi="http://sodipodi.sourceforge.net/DTD/sodipodi-0.dtd"
   xmlns:inkscape="http://www.inkscape.org/namespaces/inkscape"
   viewBox="0 0 24 24"
   version="1.1"
   id="svg8"
   sodipodi:docname="aptdaemon-cleanup.svg"
   inkscape:version="0.92.4 (5da689c313, 2019-01-14)">
  <metadata
     id="metadata12">
    <rdf:RDF>
      <cc:Work
         rdf:about="">
        <dc:format>image/svg+xml</dc:format>
        <dc:type
           rdf:resource="http://purl.org/dc/dcmitype/StillImage" />
      </cc:Work>
    </rdf:RDF>
  </metadata>
  <sodipodi:namedview
     pagecolor="#ffffff"
     bordercolor="#666666"
     borderopacity="1"
     objecttolerance="10"
     gridtolerance="10"
     guidetolerance="10"
     inkscape:pageopacity="0"
     inkscape:pageshadow="2"
     inkscape:window-width="793"
     inkscape:window-height="480"
     id="namedview10"
     showgrid="false"
     inkscape:zoom="9.8333333"
     inkscape:cx="12"
     inkscape:cy="12"
     inkscape:window-x="0"
     inkscape:window-y="27"
     inkscape:window-maximized="0"
     inkscape:current-layer="svg8" />
  <defs
     id="defs4">
    <style
       type="text/css"
       id="style2">
   .ColorScheme-Text { color:#d3dae3; }
  </style>
    <style
       type="text/css"
       id="current-color-scheme">
   .ColorScheme-Text { color:#474747; } .ColorScheme-Highlight { color:#4285f4; }
  </style>
  </defs>
  <path
     id="path825"
     d="m 9.8451716,4.9990235 -0.154297,1.84375 A 5.5,5.5 0 0 0 8.0834526,7.772461 l -1.6757808,-0.7890625 -1.75,3.0312495 1.5214844,1.056641 a 5.5,5.5 0 0 0 -0.083984,0.927734 5.5,5.5 0 0 0 0.080078,0.931641 l -1.5175781,1.052734 1.75,3.03125 1.6718748,-0.787109 a 5.5,5.5 0 0 0 1.611328,0.923828 l 0.150391,1.849609 h 3.5000001 l 0.154297,-1.84375 a 5.5,5.5 0 0 0 1.607421,-0.929687 l 1.675782,0.789062 1.75,-3.03125 -1.521485,-1.05664 a 5.5,5.5 0 0 0 0.08399,-0.927735 5.5,5.5 0 0 0 -0.08008,-0.93164 l 1.517578,-1.052735 -1.75,-3.0312494 -1.671875,0.7871094 A 5.5,5.5 0 0 0 13.495563,6.8486329 L 13.345172,4.9990235 Z m 1.7500004,4.9999999 a 2,2 0 0 1 2,1.9999996 2,2 0 0 1 -2,2 2,2 0 0 1 -2.0000004,-2 2,2 0 0 1 2.0000004,-1.9999996 z"
     class="ColorScheme-Text"
     style="color:#474747;fill:#ffffff;fill-opacity:1"
     inkscape:connector-curvature="0" />
</svg>
