<svg height="24" viewBox="0 0 24 24" width="24" xmlns="http://www.w3.org/2000/svg">
  <g fill="#fff" transform="translate(-540 -499.99841)">
    <path d="m546.00002 514c0 3 2 5 5 5h2c3 0 4.7598-1.56569 4.959-4h.541c1.5 0 1.5-1.5 1.5-1.5v-1c0-1.5-1.5-1.5-1.5-1.5h-.5-12zm12.5-2c.5-.0323.5156.53125.5156.53125v1c0 .46875-.5156.46875-.5156.46875h-.5l.01-1.98438z"/>
    <path d="m552.19332 504c-1.0982 1.38422-1.4282 2.06599-1.0321 2.94706.3591.79867 1.2876 1.20591.821 3.05294.7664-.89992 1.3758-2.04275.774-2.9647-.6122-.9377-.9479-1.5073-.5629-3.0353z" opacity=".35"/>
    <path d="m549.19332 504c-1.0982 1.38422-1.4282 2.06599-1.0321 2.94706.3591.79867 1.2876 1.20591.821 3.05294.7664-.89992 1.3758-2.04275.774-2.9647-.6122-.9377-.9479-1.5073-.5629-3.0353z" opacity=".35"/>
    <path d="m555.19332 504c-1.0982 1.38422-1.4282 2.06599-1.0321 2.94706.3591.79867 1.2876 1.20591.821 3.05294.7664-.89992 1.3758-2.04275.774-2.9647-.6122-.9377-.9479-1.5073-.5629-3.0353z" opacity=".35"/>
  </g>
</svg>
