<svg height="24" viewBox="0 0 6.35 6.35" width="24" xmlns="http://www.w3.org/2000/svg">
  <g fill="#444" transform="matrix(1.00078802 0 0 1.00078802 1.058099 1.059076)">
    <path d="m3.73268755 1.00144787c.01190625.10541992-.0086816.21530469.0032246.32246094.01240235.11658203-.0037207.23911719-.02480468.3539629-.0024804-.09326562-.004961-.18752344-.0099219-.27880469-.0052089-.09599414-.04365625-.1947168-.06970118-.28847852.0280293.19719727.04043164.39712305.04539258.59481642.0037207.15304493.0042168.31204297-.02133203.46111915-.02480468.14560352-.10120313.29170313-.14907617.42664063-.07094141.19967774-.04861719.46657618-.06548438.68609767 0 0-.01661914.03819922-.04539258-.14783594-.03844727-.25151954-.06002735-.52709962-.05506641-.783084v-.0059531c0-.0032246-.00049609-.0086816-.00049609-.0086816s-.0081855.0233164-.0094258.03026172c-.00049609.0024804-.0017363.0091778-.0017363.01091407v.00074414c-.00074414.0029766-.0012402.0066972-.0019844.01091407-.00049609.0024804-.00049609.0044648-.0012402.0069453-.00049609.0042168-.0017363.0099219-.0024804.01463477-.00049609.0024804-.0012402.0057051-.0012402.0081855-.0037207.02033984-.0086816.04564062-.01488281.0756543-.03050977.14485938-.21505664.21034375-.23539649.35644337-.00074414.0032246-.28054102.02579688-.0012402.0086816-.06078136.22122695-.19928859.25642506-.24258988.27061914-.02728516.03819922-.0635.08508008-.07838281.10293946-.11831836.14163477-.20166211.34751368-.32543751.48269923-.04464844.04861719-.12129492.0672207-.17164844.11459766-.0471289.04440039-.11509375.07342188-.17660938.08383985-.0994668.01661914-.20513477.07714258-.30658594.11410156 0 0 .05977929-.0709414.1031875-.127.09078516-.11831836.17487305-.2428379.25127149-.37182227-.0017363.0012402-.05333008.04316016-.08706445.1153418-.05853907.1274961-.20463868.22324219-.30608985.3217168-.07466211.07292578-.17958594.1153418-.28103711.13692188-.17115235-.0066973-.34528125-.02530078-.51122462-.06598047-.13816211-.03447851-.39017774-.11410156-.44053126-.20835938-.00669727-.01364257-.00992187-.0677168.01885156-.1195586.04960938-.09004102.14982032-.16470313.21083985-.25226368.11434961-.16569532.27806055-.41721485.44276368-.51519337.0915293-.05432227.21406446-.08706445.32097266-.13022461.04911328-.01661914.07267774-.02505274.12129492-.04316016-.12079883.02654102-.23688477.07168555-.35197852.1148457 0 0 .00049609.0012402.06201172-.08011914.06846094-.09004102.15875-.16470313.23837305-.24358203.13989844-.13865821.48071485-.36314063.48071485-.36314063s-.18107422.1074043-.27558008.10864453c-.05705079.00049609-.11310938.03373437-.16048633.0635.05853907-.06548438.12129492-.12898438.18181836-.19174024.12179102-.12824024.28922266-.22026563.43829884-.31625977-.07391797.01537891-.15602149.0079375-.22993946-.0032246.14039453-.08756055.27731641-.1867793.39489063-.30088086.28922266-.28153321.43160157-.69453126.6555879-1.02071291.10269141-.14932422.24457422-.27930079.38075196-.40133976 0 0 .09078516.01364249.10442774.06523624.03348633.12898438.09078516.25722461.1349375.38546485.04613672.1312168.05109766.28029297.06647647.41845509z"/>
    <path d="m2.11523438.1171875c-1.0999263 0-1.99609375.89812057-1.99609375 1.99804688 0 1.0999263.89616745 1.99609375 1.99609375 1.99609375s1.99609375-.89616745 1.99609375-1.99609375-.89616745-1.99804688-1.99609375-1.99804688zm0 .44726563c.85848846 0 1.55078125.69229279 1.55078125 1.55078125s-.69229279 1.54882813-1.55078125 1.54882813-1.54882813-.69033967-1.54882813-1.54882813.69033967-1.55078125 1.54882813-1.55078125z"/>
  </g>
</svg>
