<svg height="24" width="24" xmlns="http://www.w3.org/2000/svg">
  <path d="m6.7978306 2.8259371-5.7864891 3.4718935 4.6291913 3.4538394-4.6405328 3.480689 5.7978306 3.481152 4.6291914-3.471894-5.7864892-3.471893 5.7864892-3.4718934 5.786489 3.4899474-5.786489 3.453839 2.056865 1.543836c1.05806-1.678776 2.902503-2.69824 4.886922-2.701133 1.243516.0035 2.453008.40635 3.449326 1.150516l.03391-.02037-4.640535-3.444695 4.629192-3.4718941-5.786489-3.4718935-4.629191 3.4538396-4.6291914-3.4538396zm11.572978 10.41568c-2.556587 0-4.629192 2.072605-4.629192 4.629192 0 2.556586 2.072605 4.629191 4.629192 4.629191 2.556586 0 4.629191-2.072605 4.629191-4.629191 0-2.556587-2.072605-4.629192-4.629191-4.629192zm-6.943787 1.157298-4.6291914 3.471894-1.1572978-.693928v.693928l5.7864892 3.471893 1.708866-1.023942c-.360684-.765819-.548953-1.601469-.551522-2.447917-.000278-.776604.155772-1.545339.458845-2.260318l-1.620217-1.215163zm6.943787 0v1.157298a2.3145956 2.3145956 0 0 0 -2.314596 2.314596h-1.157298a3.4718934 3.4718934 0 0 1 3.471894-3.471894zm2.314595 3.471894h1.157298a3.4718934 3.4718934 0 0 1 -3.471893 3.471893v-1.157298a2.3145956 2.3145956 0 0 0 2.314595-2.314595z" fill="#fff"/>
</svg>
