<svg height="24" viewBox="0 0 24 24" width="24" xmlns="http://www.w3.org/2000/svg">
  <path d="m552 456.00162a8 8 0 0 0 -6.30469 3.07812l2.38477 4.13086a4 4 0 0 1 3.91992-3.20898h6.91992a8 8 0 0 0 -6.91992-4zm-6.92188 4.00977a8 8 0 0 0 -1.07812 3.99023 8 8 0 0 0 6.89453 7.91406l2.38477-4.1289a4 4 0 0 1 -1.2793.21484 4 4 0 0 1 -3.45898-2.00195l-.006.002-3.45704-5.99023zm6.92188.99023a3 3 0 0 0 -3 3 3 3 0 0 0 3 3 3 3 0 0 0 3-3 3 3 0 0 0 -3-3zm2.63867 0a4 4 0 0 1 1.36133 3 4 4 0 0 1 -.53906 1.99805l.004.002-3.46289 6a8 8 0 0 0 7.99795-8.00005 8 8 0 0 0 -.58984-3z" fill="#fff" transform="translate(-540 -452)"/>
</svg>
