<svg height="24" viewBox="0 0 24 24" width="24" xmlns="http://www.w3.org/2000/svg">
  <path d="m527.99997 456c-3.82918 0-6.93334 3.10416-6.93334 6.93333s3.10416 6.93333 6.93334 6.93333v2.13334c1.71957-1.22509 6.21206-2.97103 6.9-8.35.0298-.233.0334-.46942.0334-.71667 0-.22091-.007-.43484-.0334-.65-.32483-3.52729-3.28795-6.28333-6.9-6.28333zm-3.5 4.8h2.13333c.29544 0 .53333.23789.53333.53333v1.55c.00054.0166.00054.0333 0 .05v.53333.53334c0 1.42209-1.36666 2.06666-1.36666 2.06666-.25192.16542-.63856.0598-.77143-.21067-.13288-.2705.0199-.64104.30476-.73933 0 0 .76667-.40562.76667-1.11666h-1.6c-.29544-.00001-.53334-.2379-.53334-.53334v-2.13333c0-.29544.2379-.53334.53334-.53334zm4.81666 0h2.13334c.29544 0 .53333.23789.53333.53333v1.55c.00053.0166.00053.0333 0 .05v.53333.53334c0 1.42209-1.36667 2.06666-1.36667 2.06666-.25193.16542-.63855.0598-.77143-.21067-.13287-.2705.0199-.64104.30477-.73933 0 0 1.47771-1.11666.76666-1.11666h-1.6c-.29544 0-.53333-.2379-.53333-.53334v-2.13333c0-.29544.23789-.53333.53333-.53333z" fill="#fff" transform="translate(-516 -451.99838)"/>
</svg>
