<svg height="24" width="24" xmlns="http://www.w3.org/2000/svg">
  <g fill="#fff" transform="matrix(1.3332542 0 0 1.3332542 13.03698 -.390095)">
    <path d="m1.05 14.01h1.957v3.913h-1.957z"/>
    <circle cx="2.027" cy="11.723" r=".978"/>
    <path d="m1.7003776 5.5271194c-3.233954.0000003-5.869154 2.6351863-5.86914 5.8691406v.652344h1.304687v-.652344c-.00001-2.5290309 2.035422-4.5644528 4.564453-4.5644531h.652344v-1.3046875z"/>
    <path d="m1.7003776 8.1364944c-1.7932078 0-3.259773 1.4665576-3.259765 3.2597656v.652344h1.3046871v-.652344c-.0000044-1.088285.8667935-1.9550781 1.9550779-1.9550781h.652344v-1.3046875z"/>
    <path d="m1.7003776 2.9177444c-4.674684.0000006-8.478512 3.8038309-8.478515 8.4785156v.652344h1.304687v-.652344c.000003-3.9697635 3.204065-7.1738276 7.173828-7.1738281h.652344v-1.3046875z"/>
    <path d="m1.05 14.01h1.957v3.913h-1.957z"/>
    <circle cx="2.027" cy="11.723" r=".978"/>
  </g>
  <path d="m6.5000001 11.5c-3.3105944 0-6.0000001 2.689406-6.0000001 6 0 3.310595 2.6894057 6 6.0000001 6s6.0000049-2.689405 5.9999999-6c0-3.310594-2.6894055-6-5.9999999-6z" fill="#cb4848"/>
  <g fill="#fff">
    <path d="m5.375 19v-6h2.25v6z"/>
    <path d="m5.375 20.5v1.5h2.25v-1.5z"/>
  </g>
</svg>
