<svg height="24" width="24" xmlns="http://www.w3.org/2000/svg">
  <g fill="#fff" transform="matrix(1.3332542 0 0 1.3332542 13.03698 -.390095)">
    <path d="m1.05 14.01h1.957v3.913h-1.957z"/>
    <circle cx="2.027" cy="11.723" r=".978"/>
    <path d="m1.7003776 5.5271194c-3.233954.0000003-5.869154 2.6351863-5.86914 5.8691406v.652344h1.304687v-.652344c-.00001-2.5290309 2.035422-4.5644528 4.564453-4.5644531h.652344v-1.3046875z"/>
    <path d="m1.7003776 8.1364944c-1.7932078 0-3.259773 1.4665576-3.259765 3.2597656v.652344h1.3046871v-.652344c-.0000044-1.088285.8667935-1.9550781 1.9550779-1.9550781h.652344v-1.3046875z"/>
    <path d="m1.7003776 2.9177444c-4.674684.0000006-8.478512 3.8038309-8.478515 8.4785156v.652344h1.304687v-.652344c.000003-3.9697635 3.204065-7.1738276 7.173828-7.1738281h.652344v-1.3046875z"/>
    <path d="m1.05 14.01h1.957v3.913h-1.957z"/>
    <circle cx="2.027" cy="11.723" r=".978"/>
  </g>
  <path d="m6.5000001 11.5c-3.3105944 0-6.0000001 2.689406-6.0000001 6 0 3.310595 2.6894057 6 6.0000001 6s6.0000049-2.689405 5.9999999-6c0-3.310594-2.6894055-6-5.9999999-6z" fill="#5294e2"/>
  <path d="m640 181c-.529 0-1.032.098-1.494.295-.46.188-.868.463-1.207.82l-.002.004-.002.002c-.33.359-.586.79-.766 1.28a4.551 4.551 0 0 0 -.27 1.6c0 .58.087 1.122.27 1.612.18.482.436.908.766 1.266l.004.004c.338.356.743.636 1.201.832l.008.004c.462.188.964.281 1.492.281s1.028-.093 1.49-.281v-.002a3.47 3.47 0 0 0 1.19-.834c.34-.358.6-.786.78-1.27.185-.49.272-1.031.272-1.613h.008c0-.573-.087-1.109-.27-1.598a3.692 3.692 0 0 0 -.78-1.283 3.332 3.332 0 0 0 -1.196-.824 3.78 3.78 0 0 0 -1.494-.295zm0 1c.406 0 .77.073 1.102.215l.01.004.01.002c.33.135.607.326.837.576v.01c.24.253.431.564.569.94v.005c.13.351.194.753.199 1.202v.046c0 .482-.072.9-.207 1.262v.002a2.708 2.708 0 0 1 -.57.931l-.01.004v.004c-.234.253-.514.45-.848.594a2.889 2.889 0 0 1 -1.092.203c-.41 0-.777-.072-1.11-.207h-.003c-.325-.14-.6-.337-.838-.582l-.051-.07-.008-.006a2.798 2.798 0 0 1 -.524-.871 3.595 3.595 0 0 1 -.207-1.264c0-.471.071-.886.207-1.25l.002-.002v-.004c.138-.376.325-.684.555-.936l.012-.01c.24-.25.52-.443.85-.578l.006-.004.008-.002c.33-.14.695-.214 1.101-.214zm7 14h-1c0-.865-.07-1.3-.235-1.833s-.41-.904-.814-1.21c-.81-.61-2.11-.933-4.922-.933-2.813 0-4.165.322-4.975.933-.405.305-.65.676-.816 1.21s-.236.968-.238 1.833l-1-.002c.002-.914.069-1.44.283-2.128s.594-1.277 1.169-1.711c1.15-.867 2.695-1.134 5.577-1.134 2.881 0 4.376.267 5.525 1.135.574.434.953 1.024 1.166 1.712.214.688.28 1.213.28 2.128z" fill="#fff" transform="matrix(.59999531 0 0 .59999531 -377.497 -96.349077)"/>
</svg>
