<svg height="24" width="24" xmlns="http://www.w3.org/2000/svg">
  <g fill="#fff" transform="translate(4.06266 -4.000003)">
    <path d="m2.34359 9.8750031 12.71875 12.71875-1.40625 1.40625-12.71875-12.71875z"/>
    <path d="m7.99977 8.9375031c-.55228 0-1 .44772-1 1 0 .0333.002.0665.006.0996-.64334.12889-1.2324.39135-1.75977.74023l7.75377 7.75392v-1.59375-2c.00017-2.42916-1.71554-4.44156-4.00586-4.90039.004-.0331.006-.0663.006-.0996 0-.55228-.44772-1-1-1zm-4.1582 3.2480499c-.5234.7903-.84177 1.72888-.8418 2.75195v4.5l-2 2v.5h2 10 .59375zm2.42773 10.75195c.35698.61831 1.0165.99944 1.73047 1 .71327-.001 1.37189-.38229 1.72852-1z"/>
  </g>
</svg>
