<svg height="24" viewBox="0 0 24 24" width="24" xmlns="http://www.w3.org/2000/svg">
  <path d="m451 505c-1.108 0-2 .892-2 2v10c0 1.108.892 2 2 2h10c1.108 0 2-.892 2-2v-10c0-1.108-.892-2-2-2zm0 1h10c.554 0 1 .446 1 1v9c0 .554-.446 1-1 1h-10c-.554 0-1-.446-1-1v-9c0-.554.446-1 1-1zm2.49609.9668c-.77769.00001-1.3899.22367-1.83398.66992-.44192.44625-.66211 1.06131-.66211 1.84766 0 .78419.22019 1.39945.66211 1.8457.44408.44625 1.05629.66992 1.83398.66992.77985 0 1.39012-.22367 1.83203-.66992s.66211-1.06152.66211-1.8457c0-.78635-.22019-1.40141-.66211-1.84766-.44191-.44625-1.05218-.66991-1.83203-.66992zm0 .90625c.38343.00001.6805.14026.89063.42187.21013.28162.31444.67823.31445 1.18946-.00001.50907-.10432.90588-.31445 1.1875-.21013.2816-.5072.42187-.89063.42187-.38126 0-.6766-.14026-.88671-.42187-.21013-.28161-.31641-.67844-.31641-1.1875 0-.51124.10627-.90784.31641-1.18946.21011-.28161.50545-.42186.88671-.42187zm3.56836 3.27539v4.85156h2.07617c.64554 0 1.12708-.11413 1.44336-.34375.31627-.22963.4746-.57897.47461-1.04687-.00001-.30545-.0734-.56332-.2207-.77344-.14731-.21013-.35639-.35364-.625-.43164.21012-.0802.36999-.20256.48047-.36719.11052-.1668.16601-.36935.16602-.60547-.00001-.44841-.15181-.77489-.45508-.97852-.30111-.20362-.78724-.30468-1.46094-.30468zm1.25196.85156h.6914c.19713 0 .34545.044.44727.13281.10182.0867.1543.21406.1543.38086-.00001.16897-.0525.29611-.1543.38281-.10182.0867-.25014.13086-.44727.13086h-.6914zm-.002 1.87891h.73438c.25346 0 .44466.0521.57031.1582.12566.10398.1875.26057.1875.4707 0 .21446-.0636.37627-.19141.48242-.12565.10612-.31511.15821-.5664.15821h-.73438z" fill="#fff" transform="translate(-444 -499.99841)"/>
</svg>
