<svg height="24" width="24" xmlns="http://www.w3.org/2000/svg">
  <g fill="#fff" transform="matrix(.91666648 0 0 .91666648 -37.500001 -15.499987)">
    <path d="m52.434784 17.99999c-3.291802 0-5.967384 1.125302-5.967384 2.51087 0 .519588.368201 1.001768 1.010869 1.402174-.04218.04901-.05661.08023-.09783.130434-.445419-.183986-.943932-.260869-1.434781-.260869-2.083485 0-3.945648 1.771632-3.945648 4.206522 0 2.153973 1.448389 3.79265 3.228257 4.141304.318887 2.381722 1.363759 4.44803 2.836954 5.836957.05599.08845.114561.219185.163043.326087-.12708-.414295-.19475-.853048-.195652-1.304348-.0051-2.714596 2.587098-4.64646 5.478254-4.434783.727989.05325 1.418078.246858 2.054345.521739l2.67391-9.228261c-.25837.04526-.508075.09572-.749999.195652-.04126-.0502-.05569-.08142-.09783-.130434.642668-.400406 1.010869-.882586 1.010869-1.402174 0-1.385568-2.675571-2.51087-5.967385-2.51087zm-6.489122 6.326087c.01365 0 .01916-.00026.03261 0-.413719.966376-.670576 2.058601-.782608 3.195653-.648939-.282759-1.043477-.932916-1.043477-1.532609 0-.809602.693157-1.663044 1.793476-1.663044zm2.380432 12.228262c.129438.422712.137884.935818-.163043 1.532608-.01734.03451-.02091.0654-.03261.09783-1.052682.40477-1.69565.955271-1.69565 1.565218 0 1.240597 2.690139 2.25 5.999992 2.25 3.309865 0 5.967385-1.009403 5.967385-2.25 0-.413573-.298119-.808279-.815217-1.141305-1.03145 1.013115-2.570064 1.587498-4.206516 1.467392-2.306888-.168706-4.328607-1.574813-5.054342-3.521739z" opacity=".96"/>
    <path d="m60.179256 18.800384-3.966498 13.830568c-.754361-.577514-1.716541-.951367-2.765098-1.028061-2.415157-.176826-4.369852 1.345935-4.365993 3.396401.0041 2.050618 1.964915 3.843447 4.380073 4.02007 2.0766.152412 3.802663-.947205 4.24606-2.562846l.03038-.07999c.0051-.0216.01047-.04421.01498-.0642l2.97111-10.369464c.735972 2.287896 2.439151 4.034513 5.275745 4.003264-1.824725-.950026-2.772498-3.305875-3.198983-5.667943-.426536-2.361999-.296997-4.464537-.296997-4.464537l-.01478-.0057.01519-.04732-2.324923-.961953z" opacity=".96"/>
  </g>
</svg>
