<svg height="24" viewBox="0 0 24 24" width="24" xmlns="http://www.w3.org/2000/svg">
  <path d="m576 479.93965c-2.8404 0-5.14286 2.30914-5.14286 5.15571 0 1.68789.79443 3.16131 2.04106 4.10143.57344.43406 1.04787.99321 1.04787 1.76464l.0539.97822h4l.0571-.97822c.045-.77013.4722-1.33058 1.04461-1.76464 1.2477-.94012 2.0411-2.41354 2.0411-4.10143 0-2.84657-2.30241-5.15571-5.14294-5.15571zm0 2.06035c1.70331 0 3.0857 1.38947 3.0857 3.09536 0 .97457-.4438 1.87149-1.22142 2.45571-1.16022.87789-1.59994 1.85863-1.76143 2.67429h-.2057c-.16047-.81566-.60069-1.7964-1.76143-2.67429-.77554-.58474-1.22144-1.48165-1.22144-2.45571 0-1.70589 1.38292-3.09536 3.08572-3.09536zm-2 10.93965v1h4v-1zm1 2v1h2v-1z" fill="#d3dae3" opacity=".35" transform="translate(-564 -475.99838)"/>
</svg>
