<svg height="24" width="24" xmlns="http://www.w3.org/2000/svg">
  <path d="m9.9680794 3.7249662c-3.8735692.9126999-6.6506452 4.4975329-6.4587092 8.5165918.03775.787062.352627 2.153221.661971 2.871232.427518.99229 1.536523 2.576225 1.697709 2.424801.07931-.07453 1.039222-1.075434 1.069658-1.115399.01136-.01285-.132443-.22703-.319706-.471492-.623251-.813193-1.053757-1.69835-1.259519-2.589632-.916554-3.9699684 1.904533-7.8087315 6.0068808-8.1736486 1.478219-.1315056 3.292903.3671018 4.456644 1.224458l.387441.2857141.571652-.6033835c.508047-.5363028.559286-.612893.462511-.6913252-1.839597-1.4912815-4.153902-2.1419984-6.487776-1.8240291-.267431.038552-.530519.085243-.7887586.1460697zm-2.5939402 4.977764c-.05519.00431-.02068.2240304.140283.9166408l.219674.944569 1.108559.41208c.6097314.2266 1.1099542.418505 1.1116782.425786.0017.0086-.3645058.39623-.8139232.863953l-.817089.850202.216594.945085c.169565.739257.231947.93099.28619.879417.278667-.264725 3.9623468-4.157461 3.9568328-4.181321-.0054-.02571-5.0252928-1.9354017-5.3966258-2.0550846-.0044-.00111-.0085-.00227-.01216-.0017zm10.775353-2.2494306c-.0068.00111-.01285.00428-.01791.00857-.07931.074534-1.039192 1.075647-1.069608 1.1155698-.01133.012851.132439.2270291.319704.4714925.623251.8132357 1.053708 1.6981775 1.259471 2.5894171.916556 3.97001-1.904481 7.808988-6.006831 8.173862-1.478223.131505-3.2926918-.367102-4.4564308-1.224501l-.387654-.285286-.571703.60317c-.508032.536303-.559236.613064-.46246.69154 1.839595 1.491238 4.1539018 2.141955 6.4877748 1.824028 4.27889-.582908 7.45193-4.376008 7.247201-8.663003-.03765-.787108-.352364-2.1530525-.661697-2.8710638-.414157-.961319-1.467854-2.4778736-1.679847-2.4340526zm-2.964624 2.599612c-.0034.00111-.0069.0034-.01031.00861-.278667.2647248-3.962398 4.1572454-3.956884 4.1811474.0054.02571 5.025296 1.935404 5.396628 2.055043.07148.02142.04341-.176055-.128067-.914928l-.219414-.944656-1.108559-.41208c-.609729-.226601-1.109954-.418075-1.111677-.425787-.0017-.0086.364506-.396229.813921-.863953l.81709-.850241-.216825-.9449976c-.158967-.6930815-.223743-.9047752-.275908-.8860135z" fill="#fff"/>
</svg>
