<svg height="24" viewBox="0 0 24 24" width="24" xmlns="http://www.w3.org/2000/svg">
  <path d="m533.34713 479.99734c-1.97367.0295-5.73941.85776-6.74999 2.25-.71194 1.20649-.4664 5.72928-.28125 5.4375 1.52603-2.40476 5.35708-5.53797 7.68749-6.84375 1.08024-.60527.52796-.86143-.65625-.84375zm-8.56249 2.6875c-.52117.0888-2.60717 1.5317-2.125 4.125.45775 1.32398 3.38195 3.08057 3.28125 2.75-.83292-2.73425-1.12504-4.51182-1.03125-6.84375.002-.0432-.0505-.0439-.125-.0312zm6.6875 1.6875c-1.39724.10081-3.8766 2.48079-3.53125 2.46875 2.85657-.0996 4.64614.0892 6.87499.78125.33002.10247-.33812-3.01804-3.34374-3.25zm-10.125 2.78125c-.27981.14749-.77373 2.93197 1.65625 4.375 1.29737.5285 4.53371-.51408 4.21875-.65625-2.60519-1.17598-4.12072-2.11109-5.8125-3.71875-.0157-.0149-.0439-.01-.0625 0zm8.03125.15625c-.0738.004-.0872.0271-.0625.0625 1.63357 2.3455 2.43447 3.93978 3.06249 6.1875.093.33282 2.34221-1.91191.90625-4.5625-.73745-.97912-3.38988-1.71407-3.90624-1.6875zm.625 2.125c-.0163-.004-.0258.0104-.0312.0312-.72156 2.76573-1.41818 4.43716-2.71875 6.375-.19257.28693 2.98063.50125 4.0625-2.3125.28407-1.28224-1.06874-4.03103-1.3125-4.09375zm-1.03125 1.3125c-2.57851 1.23336-4.2741 1.80569-6.59375 2.0625-.34346.038 1.52731 2.58283 4.375 1.59375 1.24041-.65104 2.53049-3.80536 2.21875-3.65625z" fill="#fff" transform="translate(-516 -475.99838)"/>
</svg>
