<svg height="24" width="24" xmlns="http://www.w3.org/2000/svg">
  <path d="m12 4a8 8 0 0 0 -8 8 8 8 0 0 0 8 8 8 8 0 0 0 8-8 8 8 0 0 0 -8-8zm0 2a6 6 0 0 1 4.486 2.0234 1.5 1.5 0 0 1 .264-.0234 1.5 1.5 0 0 1 1.5 1.5 1.5 1.5 0 0 1 -.434 1.053 6 6 0 0 1 .184 1.447 6 6 0 0 1 -1.174 3.553 1.5 1.5 0 0 1 .174.697 1.5 1.5 0 0 1 -1.5 1.5 1.5 1.5 0 0 1 -.939-.332 6 6 0 0 1 -2.561.582 6 6 0 0 1 -5.1914-3.002 1.5 1.5 0 0 1 -.0586.002 1.5 1.5 0 0 1 -1.5-1.5 1.5 1.5 0 0 1 .75978-1.3008 6 6 0 0 1 -.0098-.19921 6 6 0 0 1 6-6zm0 1a5 5 0 0 0 -5 5 5 5 0 0 0 .0000029.02148 1.5 1.5 0 0 1 1.0645.76172l3.4609-.55273a1.5 1.5 0 0 1 1.4746-1.2305 1.5 1.5 0 0 1 .79102.22656l1.543-1.2338a1.5 1.5 0 0 1 -.084-.4922 1.5 1.5 0 0 1 .352-.9648 5 5 0 0 0 -3.602-1.5352zm3.959 3.7734-1.543 1.2344a1.5 1.5 0 0 1 .08399.49219 1.5 1.5 0 0 1 -.30078.89844l.93359 1.3984a1.5 1.5 0 0 1 .367-.046 1.5 1.5 0 0 1 .59.121 5 5 0 0 0 .91-2.871 5 5 0 0 0 -.10742-1.0078 1.5 1.5 0 0 1 -.14258.0078 1.5 1.5 0 0 1 -.79102-.22656zm-4.2734 2.4434-3.4609.55469a1.5 1.5 0 0 1 -.47852.84766 5 5 0 0 0 4.2539 2.3809 5 5 0 0 0 2.0332-.43945 1.5 1.5 0 0 1 -.0332-.31055 1.5 1.5 0 0 1 .30078-.89844l-.93359-1.3984a1.5 1.5 0 0 1 -.36719.04687 1.5 1.5 0 0 1 -1.3145-.7832z" fill="#fff"/>
</svg>
