<svg height="24" width="24" xmlns="http://www.w3.org/2000/svg">
  <path d="m6.375 6.75c-.7398113 0-1.32682.0666544-1.8203125.2519531-.4934925.1852538-.8894406.5199432-1.1230469.9433594-.467235.8468438-.4152494 1.8833636-.4316406 3.2988285v.0039 2.253906.0039c.016313 1.415464-.035651 2.451983.4316406 3.298829.2336175.423416.6295544.758105 1.1230469.943359.4935038.185075 1.0805012.251965 1.8203125.251965h6.75c.739811 0 1.324856-.06665 1.818359-.251953.493493-.185243.88943-.519943 1.123047-.943359.450045-.815649.419852-1.815658.431641-3.152344 1.747798.995114 3.333228 1.860843 4.501953 2.414062v-7.3828122c-1.145377.5426474-2.735029 1.4131052-4.501953 2.4179682-.011866-1.3387538.018896-2.3397701-.431641-3.1562495-.233617-.4234163-.629554-.7581169-1.123047-.9433594-.493503-.1850512-1.078548-.2519531-1.818359-.2519531zm0 1.125h6.75c.666439 0 1.131441.069933 1.423828.1796875.292399.1098.417411.2272575.53125.4335937.227149.4117052.278373 1.3458725.294922 2.7617188v.484375 1.285156.47461c-.01642 1.421471-.0672 2.352963-.294922 2.765625-.11385.206336-.23884.325791-.53125.435546-.292399.109769-.757389.179688-1.423828.179688h-6.75c-.6664387 0-1.1314406-.06993-1.4238281-.179688-.2923988-.1098-.4174113-.22921-.53125-.435546-.2271488-.411694-.2783732-1.343931-.2949219-2.759766v-.005859-2.238282-.005859c.0165375-1.4158463.0677619-2.3500136.2949219-2.7617188.1138387-.2063362.2388512-.3238387.53125-.4335937.2923875-.1097662.7573894-.1796875 1.4238281-.1796875zm.6249987 1.125v7l6.0000013-3.462891z" fill="#fff" transform="translate(.000001)"/>
</svg>
