<svg height="24" viewBox="0 0 24 24" width="24" xmlns="http://www.w3.org/2000/svg">
  <path d="m456 455.99838c-4.41828 0-8 3.58172-8 8s3.58172 8 8 8 8-3.58172 8-8-3.58172-8-8-8zm-1.1875 4.75c.13563-.002.27299-.001.40625 0 3.19819.0349 5.6875 1.09375 5.6875 1.09375.324.13711.47881.54609.34375.875-.13507.32891-.551.51211-.875.375 0 0-4.05728-1.70541-8.1875-.65625-.34779.11585-.78588-.10835-.875-.46875-.0891-.3604.17079-.77912.53125-.84375 1.01822-.25865 2.01936-.35918 2.96875-.375zm.15625 2.4375c.11987-.00072.22685-.003.34375 0 2.80565.0648 4.75 1.09375 4.75 1.09375.24887.13077.34756.46613.21875.71875-.12881.25259-.4699.38077-.71875.25 0 0-3.09132-1.65368-7.0625-.6875-.27912.0875-.58838-.0866-.65625-.375-.0679-.28843.14956-.60624.4375-.65625.95419-.23215 1.84842-.33875 2.6875-.34375zm-.0625 2.28125c.10521.0004.21039.0276.3125.0312 2.45058.0833 4 1 4 1 .20022.096.2986.36808.1875.5625-.1111.19441-.41229.25378-.59375.125 0 0-2.47878-1.48214-6.15625-.65625-.21108.067-.45119-.0623-.5-.28125-.0488-.21899.1248-.46828.34375-.5.86472-.1942 1.66981-.28485 2.40625-.28125z" fill="#fff" transform="translate(-444 -451.99838)"/>
</svg>
