<svg height="24" viewBox="0 0 24 24" width="24" xmlns="http://www.w3.org/2000/svg">
  <path d="m504 479a9 9 0 0 0 -9 9 9 9 0 0 0 .0299.68906l4.61426 1.40977c.35865-.29888.79118-.50955 1.28321-.59766.0411-.005.0767-.0202.11777-.0247l1.99687-3.67206c-.2214-1.91237 1.06135-3.68713 2.97246-4.02188.24786-.0437.49605-.059.73828-.0527 1.69557.0496 3.18479 1.29228 3.49102 3.0375.34991 1.99301-.96303 3.89411-2.9461 4.24161-.0525.0176-.10095.021-.15468.0264l-2.98477 2.90566c.15676 1.44483-.81264 2.78214-2.25703 3.03574-1.35191.2374-2.65784-.55577-3.10078-1.81581l-2.67715-.82794a9 9 0 0 0 7.87674 4.66701 9 9 0 0 0 9-9 9 9 0 0 0 -9-9zm2.48027 3.88477c-.0833.004-.16122.0114-.24609.0264-1.35766.23827-2.26297 1.53992-2.02324 2.90567.2396 1.36492 1.53574 2.27583 2.89336 2.0373 1.35763-.23828 2.26288-1.54063 2.02324-2.90566-.20964-1.19439-1.22674-2.03001-2.38711-2.06367-.0829-.004-.17691-.004-.26016 0zm.23379.66269c.85108.0256 1.59879.6559 1.75254 1.53106.17572 1.00098-.4966 1.9533-1.49238 2.12695-.99557.17501-1.93888-.49133-2.11465-1.49239-.1757-1.00089.48241-1.96827 1.47832-2.14101.12445-.0203.2546-.0292.37617-.0247zm-5.2541 6.47402c-.14587-.005-.27978.0125-.42891.0387-.24278.0424-.46907.12074-.67324.23379l1.45196.41485c.80225.22332 1.32889 1.15821 1.1039 1.95996-.22498.80174-1.15867 1.31653-1.95996 1.08984l-1.41328-.39024c.45166.76456 1.33496 1.21228 2.25703 1.05118 1.19313-.20912 1.98769-1.3563 1.77715-2.55586-.18426-1.04966-1.09371-1.8115-2.11465-1.84219z" fill="#fff" transform="translate(-492 -475.99838)"/>
</svg>
