<svg width="256" height="256" version="1.1" viewBox="0 0 67.73 67.73" xmlns="http://www.w3.org/2000/svg" xmlns:xlink="http://www.w3.org/1999/xlink">
 <defs>
  <linearGradient id="linearGradient4226" x1="529.655" x2="-35.31" y1="401.584" y2="119.093" gradientTransform="matrix(0 -.11988932 .11988589 0 .36277965 292.5483)" gradientUnits="userSpaceOnUse">
   <stop style="stop-color:#f2f2f2" offset="0"/>
   <stop style="stop-color:#f9f9f9" offset="1"/>
  </linearGradient>
  <linearGradient id="linearGradient4358" x1="88" x2="488" y1="88" y2="488" gradientUnits="userSpaceOnUse">
   <stop style="stop-color:#000000;stop-opacity:.58823532" offset="0"/>
   <stop style="stop-color:#000000;stop-opacity:0" offset=".88"/>
   <stop style="stop-color:#000000" offset="1"/>
  </linearGradient>
  <filter id="filter4346" x="-.01" y="-.01" width="1.026" height="1.022" style="color-interpolation-filters:sRGB">
   <feGaussianBlur stdDeviation="2.12"/>
  </filter>
 </defs>
 <g transform="translate(0,-229.26665)">
  <path d="m20.705011 233.28164c-9.338925 0-10.343783 0.95922-10.298012 10.31704v38.63259c-0.04577 9.35781 0.959087 10.31704 10.298012 10.31704h25.970643c9.338924 0 10.298012-0.95912 10.298012-10.31704v-38.63259c0-9.35793-0.959088-10.31704-10.298012-10.31704z" style="fill:none;opacity:.2;stroke-width:1.0583333;stroke:#000000"/>
  <path transform="matrix(.13229167 0 0 .13229167 -4.4096684 223.75664)" d="m189.84323 74c-70.59344 0-78.18921 7.250835-77.84323 77.98706v292.02588c-0.34598 70.73623 7.24979 77.98706 77.84323 77.98706h196.31354c70.59344 0 76.00668-7.27384 77.84323-77.98706v-292.02588c0-70.737067-7.24979-77.98706-77.84323-77.98706z" style="filter:url(#filter4346);opacity:.1"/>
  <path transform="matrix(.13229167 0 0 .13229167 -4.4096684 223.75664)" d="m189.84323 74c-70.59344 0-78.18921 7.250835-77.84323 77.98706v292.02588c-0.34598 70.73623 7.24979 77.98706 77.84323 77.98706h196.31354c70.59344 0 77.84323-7.24999 77.84323-77.98706v-292.02588c0-70.737067-7.24979-77.98706-77.84323-77.98706z" style="fill:url(#linearGradient4358);filter:url(#filter4380);opacity:.3"/>
  <path d="m20.705011 233.28164c-9.338924 0-10.343782 0.95922-10.298012 10.31704v38.63259c-0.04577 9.35781 0.959088 10.31704 10.298012 10.31704h25.970643c9.338924 0 10.298012-0.95912 10.298012-10.31704v-38.63259c0-9.35793-0.959088-10.31704-10.298012-10.31704z" style="fill:url(#linearGradient4226)"/>
  <path d="m41.098666 292.54831 15.875-15.875v5.94886c-0.01384 8.99472-1.006126 9.92614-10.100231 9.92614z" style="fill:#ffffff;opacity:.4"/>
  <path d="m20.705079 233.28164c-9.338926 0-10.343851 0.95939-10.29808 10.3172v0.52916c-0.04577-9.35781 0.959154-10.3172 10.29808-10.3172h25.970506c9.338927 0 10.298081 0.95928 10.298081 10.3172v-0.52916c0-9.35793-0.959154-10.3172-10.298081-10.3172z" style="fill:#ffffff;opacity:.6"/>
  <path d="m31.799737 249.68581c-0.340107 0-0.623543 1.31364-0.789915 3.19103a10.394351 10.394351 0 0 0-2.511844 1.05564c-1.451001-1.21607-2.584444-1.95014-2.825594-1.709l-2.674256 2.67426c-0.241143 0.24107 0.492926 1.3746 1.709016 2.8256a10.394351 10.394351 0 0 0-1.046451 2.51183c-1.882637 0.16607-3.200248 0.44925-3.200248 0.78993v3.77975c0 0.34 1.31364 0.62357 3.19102 0.78992a10.394351 10.394351 0 0 0 1.051986 2.5174c-1.213322 1.44839-1.946184 2.57918-1.705323 2.82004l2.674256 2.67425c0.240642 0.24071 1.370004-0.49046 2.816369-1.70161a10.394351 10.394351 0 0 0 2.521069 1.03904c0.166214 1.88264 0.449229 3.20025 0.789915 3.20025h3.779763c0.340107 0 0.623543-1.31364 0.789911-3.191a10.394351 10.394351 0 0 0 2.511848-1.05568c1.451001 1.21607 2.584444 1.95015 2.825594 1.709l2.674255-2.67425c0.241143-0.24107-0.492925-1.37461-1.709015-2.82561a10.394351 10.394351 0 0 0 1.04645-2.51183c1.882637-0.16606 3.200249-0.44924 3.200249-0.78992v-3.77975c0-0.34-1.31364-0.62354-3.19102-0.78993a10.394351 10.394351 0 0 0-1.051986-2.51736c1.213322-1.44839 1.946183-2.57922 1.705322-2.82007l-2.674255-2.67426c-0.240643-0.24071-1.370004 0.49047-2.816369 1.70165a10.394351 10.394351 0 0 0-2.521073-1.03908c-0.166215-1.88264-0.449229-3.20024-0.789911-3.20024zm1.889879 8.50446a4.7247051 4.7247051 0 0 1 4.724707 4.72472 4.7247051 4.7247051 0 0 1-4.724707 4.72468 4.7247051 4.7247051 0 0 1-4.724702-4.72468 4.7247051 4.7247051 0 0 1 4.724702-4.72472z" style="fill:#808080;opacity:.5"/>
  <path d="m33.690332 233.28164v59.26667h12.985253c9.338924 0 10.055122-0.96217 10.298081-10.31695v-38.63278c0-9.35792-0.959157-10.31694-10.298081-10.31694z" style="fill:#ffffff;opacity:.1"/>
  <path d="m10.406999 262.91497v19.31639c-0.04577 9.35782 0.959155 10.31695 10.29808 10.31695h25.970506c9.338924 0 10.055122-0.96217 10.298081-10.31695v-19.31639z" style="fill:#ffffff;opacity:.2"/>
 </g>
</svg>
