<svg width="256" height="256" version="1.1" viewBox="0 0 67.73 67.73" xmlns="http://www.w3.org/2000/svg" xmlns:xlink="http://www.w3.org/1999/xlink">
 <defs>
  <linearGradient id="linearGradient4226" x1="529.655" x2="-35.31" y1="401.584" y2="119.093" gradientTransform="matrix(0 -.11988932 -.11988589 0 67.016455 292.5483)" gradientUnits="userSpaceOnUse">
   <stop style="stop-color:#007946" offset="0"/>
   <stop style="stop-color:#009053" offset="1"/>
  </linearGradient>
  <linearGradient id="linearGradient4358" x1="88" x2="488" y1="88" y2="488" gradientUnits="userSpaceOnUse">
   <stop style="stop-color:#000000;stop-opacity:.58823532" offset="0"/>
   <stop style="stop-color:#000000;stop-opacity:0" offset=".88"/>
   <stop style="stop-color:#000000" offset="1"/>
  </linearGradient>
  <filter id="filter4346" x="-.01" y="-.01" width="1.026" height="1.022" style="color-interpolation-filters:sRGB">
   <feGaussianBlur stdDeviation="2.12"/>
  </filter>
 </defs>
 <g transform="translate(0,-229.26665)">
  <path transform="matrix(.13229167 0 0 .13229167 -4.4096684 223.75664)" d="m189.84323 74c-70.59344 0-78.18921 7.250835-77.84323 77.98706v292.02588c-0.34598 70.73623 7.24979 77.98706 77.84323 77.98706h196.31354c70.59344 0 76.00668-7.27384 77.84323-77.98706v-292.02588c0-70.737067-7.24979-77.98706-77.84323-77.98706z" style="filter:url(#filter4346);opacity:.1"/>
  <path transform="matrix(.13229167 0 0 .13229167 -4.4096684 223.75664)" d="m189.84323 74c-70.59344 0-78.18921 7.250835-77.84323 77.98706v292.02588c-0.34598 70.73623 7.24979 77.98706 77.84323 77.98706h196.31354c70.59344 0 77.84323-7.24999 77.84323-77.98706v-292.02588c0-70.737067-7.24979-77.98706-77.84323-77.98706z" style="fill:url(#linearGradient4358);filter:url(#filter4380);opacity:.3"/>
  <path d="m46.674225 233.28164c9.338927 0 10.343782 0.95922 10.298012 10.31704v38.63259c0.04577 9.35781-0.959085 10.31704-10.298012 10.31704h-25.970643c-9.338923 0-10.298011-0.95912-10.298011-10.31704v-38.63259c0-9.35793 0.959088-10.31704 10.298011-10.31704z" style="fill:url(#linearGradient4226)"/>
  <path d="m34.360059 248.0983c-5.160857 0.91906-10.324505 2.13842-15.48536 3.04065 0 7.85069-0.0034 15.7047 0 23.55876 5.133923 0.89886 10.270583 2.09804 15.394409 3.03393h1.537891v-29.63334zm-3.444751 9.23717c-0.898792 1.84135-1.801006 3.68288-2.716631 5.51749 0.925725 1.88511 1.871777 3.75641 2.800864 5.64152-0.811268-0.0471-1.619073-0.0978-2.430344-0.15503-0.572264-1.40374-1.269315-2.75996-1.680001-4.22765-0.457811 1.3667-1.110938 2.65585-1.636075 3.99562-0.737211-0.0101-1.474541-0.0405-2.211752-0.0708 0.865129-1.69323 1.700032-3.40028 2.592091-5.08341-0.75741-1.73362-1.588905-3.43326-2.369881-5.15679 0.740579-0.0438 1.481511-0.0872 2.222085-0.12764 0.501573 1.31621 1.049943 2.61526 1.463995 3.96513 0.444346-1.43066 1.107485-2.77693 1.676384-4.16047 0.760778-0.0539 1.525122-0.10094 2.289265-0.13797z" style="fill:#ffffff"/>
  <path d="m36.865333 252.33164v2.11666h3.175v2.11667h-3.175v1.05834h3.175v2.12028h-3.175v1.05472h3.175v2.11666h-3.175v1.05834h3.175v2.11666h-3.175v1.05834h3.175v2.11666h-3.175v1.05834h3.175v2.11666h-3.175v2.11667h10.583333v-22.225zm4.233333 2.11666h4.233333v2.11667h-4.233333zm0 3.17501h4.233333v2.12028h-4.233333zm0 3.175h4.233333v2.11666h-4.233333zm0 3.175h4.233333v2.11666h-4.233333zm0 3.175h4.233333v2.11666h-4.233333zm0 3.175h4.233333v2.11666h-4.233333z" style="fill:#ffffff"/>
  <path d="m33.690332 233.28164v59.26667h12.985253c9.338924 0 10.055122-0.96217 10.298081-10.31695v-38.63278c0-9.35792-0.959157-10.31694-10.298081-10.31694z" style="fill:#ffffff;opacity:.07999998"/>
  <path d="m10.406999 262.91497v19.31639c-0.04577 9.35782 0.959155 10.31695 10.29808 10.31695h25.970506c9.338924 0 10.055122-0.96217 10.298081-10.31695v-19.31639z" style="fill:#ffffff;opacity:.07999998"/>
  <path d="m41.098666 292.54831 15.875-15.875v5.94886c-0.01384 8.99472-1.006126 9.92614-10.100231 9.92614z" style="fill:#ffffff;opacity:.07999998"/>
  <path d="m10.406999 281.70194v0.52917c-0.04577 9.35781 0.959154 10.3172 10.29808 10.3172h25.970506c9.338924 0 10.055122-0.96243 10.298081-10.3172v-0.52917c-0.242959 9.35477-0.959157 10.3172-10.298081 10.3172h-25.970506c-9.338926 0-10.34385-0.95939-10.29808-10.3172z" style="opacity:.2"/>
  <path d="m20.705079 233.28164c-9.338926 0-10.34385 0.95939-10.29808 10.3172v0.52916c-0.04577-9.35781 0.959154-10.3172 10.29808-10.3172h25.970506c9.338927 0 10.298081 0.95928 10.298081 10.3172v-0.52916c0-9.35793-0.959154-10.3172-10.298081-10.3172z" style="fill:#ffffff;opacity:.4"/>
 </g>
</svg>
