<svg width="256" height="256" version="1.1" viewBox="0 0 67.73 67.73" xmlns="http://www.w3.org/2000/svg" xmlns:xlink="http://www.w3.org/1999/xlink">
 <defs>
  <linearGradient id="linearGradient4226" x1="529.655" x2="-35.31" y1="401.584" y2="119.093" gradientTransform="matrix(0 -.11988932 -.11988589 0 67.016455 292.5483)" gradientUnits="userSpaceOnUse">
   <stop style="stop-color:#da1636" offset="0"/>
   <stop style="stop-color:#f22c42" offset="1"/>
  </linearGradient>
  <linearGradient id="linearGradient4358" x1="88" x2="488" y1="88" y2="488" gradientUnits="userSpaceOnUse">
   <stop style="stop-color:#000000;stop-opacity:.58823532" offset="0"/>
   <stop style="stop-color:#000000;stop-opacity:0" offset=".88"/>
   <stop style="stop-color:#000000" offset="1"/>
  </linearGradient>
  <filter id="filter4346" x="-.01" y="-.01" width="1.026" height="1.022" style="color-interpolation-filters:sRGB">
   <feGaussianBlur stdDeviation="2.12"/>
  </filter>
 </defs>
 <g transform="translate(0,-229.26665)">
  <path transform="matrix(.13229167 0 0 .13229167 -4.4096684 223.75664)" d="m189.84323 74c-70.59344 0-78.18921 7.250835-77.84323 77.98706v292.02588c-0.34598 70.73623 7.24979 77.98706 77.84323 77.98706h196.31354c70.59344 0 76.00668-7.27384 77.84323-77.98706v-292.02588c0-70.737067-7.24979-77.98706-77.84323-77.98706z" style="filter:url(#filter4346);opacity:.1"/>
  <path transform="matrix(.13229167 0 0 .13229167 -4.4096684 223.75664)" d="m189.84323 74c-70.59344 0-78.18921 7.250835-77.84323 77.98706v292.02588c-0.34598 70.73623 7.24979 77.98706 77.84323 77.98706h196.31354c70.59344 0 77.84323-7.24999 77.84323-77.98706v-292.02588c0-70.737067-7.24979-77.98706-77.84323-77.98706z" style="fill:url(#linearGradient4358);filter:url(#filter4380);opacity:.3"/>
  <path d="m46.674225 233.28164c9.338927 0 10.343782 0.95922 10.298012 10.31704v38.63259c0.04577 9.35781-0.959085 10.31704-10.298012 10.31704h-25.970643c-9.338923 0-10.298011-0.95912-10.298011-10.31704v-38.63259c0-9.35793 0.959088-10.31704 10.298011-10.31704z" style="fill:url(#linearGradient4226)"/>
  <path d="m36.139655 246.34413-12.087901 14.31579c3.148275 0.50492 8.464815 4.48528 7.662895 9.7716 1.63354-3.9205-1.36637-8.70249-4.247338-10.63304l10.543792-12.5929c-0.564727-0.41581-1.010124-0.62384-1.871448-0.86145zm-4.066348 0.99809c-0.470164 2e-3 -0.822907 0.0712-0.804346 0.0712l-3.860967 4.42529c-2.168152 0.1188-4.277037 0.26744-6.326386 0.47534-1.455333 0.14851-2.613674 1.3068-2.82158 2.85124-0.297005 2.70277-0.445409 5.55403-0.445409 8.4944s0.148404 5.7916 0.445409 8.52406c0.207906 1.72305 1.366247 2.58435 2.82158 2.85124 4.039296 0.65342 9.890506 0.0298 9.890506-5.52426 0-5.19762-8.524222-7.42524-11.43489-5.9996l13.454343-16.06805c-0.311856-0.078-0.636161-0.10176-0.91826-0.10089zm8.877729 4.55583s-7.573113 16.81083-8.31563 18.53347c-1.12863 2.55426-2.673074 4.42543-4.900625 5.07885 1.960245 0.0891 3.920363 0.11863 5.940009 0.11863 4.424996 0 8.642986-0.20787 12.593178-0.59398 1.454925-0.1485 2.643378-1.3365 2.821583-2.85124 0.32712-2.73246 0.475067-5.58369 0.475067-8.52406s-0.147947-5.79163-0.475067-8.4944c-0.178205-1.54444-1.366245-2.70273-2.821583-2.85124-1.722641-0.1782-3.504777-0.32693-5.316932-0.41603z" style="clip-rule:evenodd;fill-rule:evenodd;fill:#ffffff"/>
  <path d="m33.690332 233.28164v59.26667h12.985253c9.338924 0 10.055122-0.96217 10.298081-10.31695v-38.63278c0-9.35792-0.959157-10.31694-10.298081-10.31694z" style="fill:#ffffff;opacity:.07999998"/>
  <path d="m10.406998 262.91497v19.31639c-0.04577 9.35782 0.959156 10.31695 10.298081 10.31695h25.970506c9.338924 0 10.055122-0.96217 10.298081-10.31695v-19.31639z" style="fill:#ffffff;opacity:.07999998"/>
  <path d="m41.098666 292.54831 15.875-15.875v5.94886c-0.01384 8.99472-1.006126 9.92614-10.100231 9.92614z" style="fill:#ffffff;opacity:.07999998"/>
  <path d="m10.406998 281.70194v0.52917c-0.04577 9.35781 0.959155 10.3172 10.298081 10.3172h25.970506c9.338924 0 10.055122-0.96243 10.298081-10.3172v-0.52917c-0.242959 9.35477-0.959157 10.3172-10.298081 10.3172h-25.970506c-9.338926 0-10.343851-0.95939-10.298081-10.3172z" style="opacity:.2"/>
  <path d="m20.705079 233.28164c-9.338926 0-10.343851 0.95939-10.298081 10.3172v0.52916c-0.04577-9.35781 0.959155-10.3172 10.298081-10.3172h25.970506c9.338927 0 10.298081 0.95928 10.298081 10.3172v-0.52916c0-9.35793-0.959154-10.3172-10.298081-10.3172z" style="fill:#ffffff;opacity:.4"/>
 </g>
</svg>
