<svg width="256" height="256" version="1.1" viewBox="0 0 67.73 67.73" xmlns="http://www.w3.org/2000/svg" xmlns:xlink="http://www.w3.org/1999/xlink">
 <defs>
  <linearGradient id="linearGradient4226" x1="529.655" x2="-35.31" y1="401.584" y2="119.093" gradientTransform="matrix(0 -.11988932 -.11988589 0 67.016455 292.81288)" gradientUnits="userSpaceOnUse">
   <stop style="stop-color:#dd4f37" offset="0"/>
   <stop style="stop-color:#e57866" offset="1"/>
  </linearGradient>
  <linearGradient id="linearGradient4358" x1="88" x2="488" y1="88" y2="488" gradientUnits="userSpaceOnUse">
   <stop style="stop-color:#000000;stop-opacity:.58823532" offset="0"/>
   <stop style="stop-color:#000000;stop-opacity:0" offset=".88"/>
   <stop style="stop-color:#000000" offset="1"/>
  </linearGradient>
  <filter id="filter4346" x="-.01" y="-.01" width="1.026" height="1.022" style="color-interpolation-filters:sRGB">
   <feGaussianBlur stdDeviation="2.12"/>
  </filter>
 </defs>
 <g transform="translate(0,-229.26665)">
  <path transform="matrix(.13229167 0 0 .13229167 -4.4096684 224.02122)" d="m189.84323 74c-70.59344 0-78.18921 7.250835-77.84323 77.98706v292.02588c-0.34598 70.73623 7.24979 77.98706 77.84323 77.98706h196.31354c70.59344 0 76.00668-7.27384 77.84323-77.98706v-292.02588c0-70.737067-7.24979-77.98706-77.84323-77.98706z" style="filter:url(#filter4346);opacity:.1"/>
  <path transform="matrix(.13229167 0 0 .13229167 -4.4096684 224.02122)" d="m189.84323 74c-70.59344 0-78.18921 7.250835-77.84323 77.98706v292.02588c-0.34598 70.73623 7.24979 77.98706 77.84323 77.98706h196.31354c70.59344 0 77.84323-7.24999 77.84323-77.98706v-292.02588c0-70.737067-7.24979-77.98706-77.84323-77.98706z" style="fill:url(#linearGradient4358);filter:url(#filter4380);opacity:.3"/>
  <path d="m46.674225 233.54622c9.338927 0 10.343782 0.95922 10.298012 10.31704v38.63259c0.04577 9.35781-0.959085 10.31704-10.298012 10.31704h-25.970643c-9.338923 0-10.298011-0.95912-10.298011-10.31704v-38.63259c0-9.35793 0.959088-10.31704 10.298011-10.31704z" style="fill:url(#linearGradient4226)"/>
  <path d="m36.848209 247.30456c1.330531 5.24176-4.693206 6.82493-6.867259 10.08939-1.480481 2.22419 0.726723 4.61423 3.735938 7.32901-1.173469-2.6527-5.153091-4.97313 0.0016-9.04458 6.427888-5.07356 3.129648-8.37382 3.129648-8.37382zm3.976785 6.48521c7.2e-5 0-10.869089 2.71388-5.678233 8.69551 1.532384 1.76396-0.401971 3.35003-0.401971 3.35003s3.888652-2.00697 2.103141-4.5216c-1.668222-2.34395-2.947049-3.50839 3.977063-7.52394zm1.924854 10.68459c-0.381894 1e-3 -0.7874 0.0675-1.203415 0.21372-0.333544 0.11807-0.50855 0.39256-0.50855 0.39256s0.21087-0.0849 0.681022-0.18299c1.92261-0.40062 4.677362 2.57378-1.279824 5.66854-0.02761 0.0738-0.11911 0.15642-0.119042 0.15642 7.084624-1.8624 5.539561-6.25403 2.429809-6.24825zm-12.764191 0.30204c-0.466661-0.0108-2.484064 0.0192-4.894781 1.18541-3.259254 1.57594 8.060418 2.29389 13.9211 0.75245 0.609291-0.4158 1.450915-0.7768 1.450915-0.7768s-2.397025 0.42853-4.785432 0.62898c-2.923318 0.24525-6.059165 0.29367-7.633269 0.0831-3.726879-0.49825 2.043067-1.86894 2.043067-1.86894s-0.03493-3e-3 -0.1016-4e-3zm-1.241898 3.60582c-5.376413 1.78438 2.992977 3.80942 10.507128 1.61148-0.798359-0.28143-1.305292-0.79647-1.305292-0.79647-3.673918 0.70705-5.796032 0.68445-8.483993 0.40695-2.078111-0.21478-0.717843-1.22196-0.717843-1.22196zm0.759923 3.47571c-4.881819 1.36403 2.970194 4.18156 9.186056 1.51846-1.018059-0.39563-1.748235-0.85239-1.748235-0.85239-2.771892 0.52394-4.057714 0.56522-6.573809 0.27795-2.076566-0.23817-0.864012-0.94402-0.864012-0.94402zm-3.390718 2.3044c-2.192271 0.0676-6.479686 2.0388-2.55882 2.6751 12.672418 2.05408 23.099978-0.92522 19.813335-2.40823 0 0 0.897778 0.74022-0.98859 1.3125-3.586969 1.08646-14.93221 1.41416-18.083369 0.0435-1.13198-0.49304 0.991706-1.17645 1.659925-1.32079 0.69673-0.15071 1.094615-0.1232 1.094615-0.1232-0.196844-0.13861-0.531122-0.19136-0.937096-0.17883zm19.2663 1.88388s-0.399452 1.02557-4.72508 1.83932c-4.879996 0.91874-10.900251 0.81163-14.46952 0.22231 0 0 0.731096 0.60529 4.488383 0.84712 5.716914 0.36549 14.49839-0.20336 14.706217-2.90875z" style="clip-rule:evenodd;fill-rule:evenodd;fill:#ffffff"/>
  <path d="m33.690332 233.54622v59.26667h12.985253c9.338924 0 10.055122-0.96217 10.298081-10.31695v-38.63278c0-9.35792-0.959157-10.31694-10.298081-10.31694z" style="fill:#ffffff;opacity:.07999998"/>
  <path d="m10.406998 263.17955v19.31639c-0.04577 9.35782 0.959156 10.31695 10.298081 10.31695h25.970506c9.338924 0 10.055122-0.96217 10.298081-10.31695v-19.31639z" style="fill:#ffffff;opacity:.07999998"/>
  <path d="m41.098666 292.81289 15.875-15.875v5.94886c-0.01384 8.99472-1.006126 9.92614-10.100231 9.92614z" style="fill:#ffffff;opacity:.07999998"/>
  <path d="m10.406998 281.96652v0.52917c-0.04577 9.35781 0.959155 10.3172 10.298081 10.3172h25.970506c9.338924 0 10.055122-0.96243 10.298081-10.3172v-0.52917c-0.242959 9.35477-0.959157 10.3172-10.298081 10.3172h-25.970506c-9.338926 0-10.343851-0.95939-10.298081-10.3172z" style="opacity:.2"/>
  <path d="m20.705079 233.54622c-9.338926 0-10.343851 0.95939-10.298081 10.3172v0.52916c-0.04577-9.35781 0.959155-10.3172 10.298081-10.3172h25.970506c9.338927 0 10.298081 0.95928 10.298081 10.3172v-0.52916c0-9.35793-0.959154-10.3172-10.298081-10.3172z" style="fill:#ffffff;opacity:.4"/>
 </g>
</svg>
