<svg width="256" height="256" version="1.1" viewBox="0 0 67.73 67.73" xmlns="http://www.w3.org/2000/svg" xmlns:xlink="http://www.w3.org/1999/xlink">
 <defs>
  <linearGradient id="linearGradient21865" x1="1278" x2="1278" y1="-1062.638" y2="-1118.638" gradientTransform="matrix(2,0,0,2.00002,-1069,630.656)" gradientUnits="userSpaceOnUse">
   <stop style="stop-color:#dc85e9" offset="0"/>
   <stop style="stop-color:#f8dcfb" offset="1"/>
  </linearGradient>
  <linearGradient id="linearGradient21867" x1="1559.5" x2="1542" y1="184" y2="184" gradientTransform="matrix(-1,0,0,1,2865,-1753.64)" gradientUnits="userSpaceOnUse" xlink:href="#linearGradient8742"/>
  <linearGradient id="linearGradient8742">
   <stop style="stop-color:#9200ff" offset="0"/>
   <stop style="stop-color:#ff00ff;stop-opacity:0" offset="1"/>
  </linearGradient>
  <linearGradient id="linearGradient21869" x1="1559.5" x2="1542" y1="184" y2="184" gradientTransform="translate(-123,-1753.64)" gradientUnits="userSpaceOnUse" xlink:href="#linearGradient8742"/>
  <linearGradient id="linearGradient21873" x1="453.5" x2="404.5" y1="970.5" y2="970.5" gradientTransform="matrix(2,0,0,2,513,-3495.64)" gradientUnits="userSpaceOnUse">
   <stop style="stop-color:#e196fb" offset="0"/>
   <stop style="stop-color:#f4c7fa" offset=".13"/>
   <stop style="stop-color:#e091f3" offset=".314"/>
   <stop style="stop-color:#d764e9" offset=".441"/>
   <stop style="stop-color:#e7adf0" offset=".684"/>
   <stop style="stop-color:#e6a9f8" offset=".756"/>
   <stop style="stop-color:#e595f2" offset=".88"/>
   <stop style="stop-color:#f2cbf8" offset="1"/>
  </linearGradient>
  <linearGradient id="linearGradient21875" x1="1322" x2="1419" y1="-1568.511" y2="-1568.511" gradientTransform="translate(.022825 4.5e-5)" gradientUnits="userSpaceOnUse">
   <stop style="stop-color:#9207a7" offset="0"/>
   <stop style="stop-color:#c658bc" offset=".273"/>
   <stop style="stop-color:#a42eb6" offset=".51"/>
   <stop style="stop-color:#b415cd" offset=".834"/>
   <stop style="stop-color:#950ba8" offset="1"/>
  </linearGradient>
  <linearGradient id="linearGradient21881" x1="1510.477" x2="1485.877" y1="169" y2="194" gradientTransform="matrix(.984483 0 0 .972527 -100.349 -1748.97)" gradientUnits="userSpaceOnUse" xlink:href="#linearGradient8984"/>
  <linearGradient id="linearGradient8984">
   <stop style="stop-color:#ffffff" offset="0"/>
   <stop style="stop-color:#ffffff;stop-opacity:0" offset="1"/>
  </linearGradient>
  <linearGradient id="linearGradient21883" x1="1354.568" x2="1383.38" y1="-1522.359" y2="-1543.981" gradientTransform="matrix(.976263 .126435 -.367421 .97673 -556.181 -210.596)" gradientUnits="userSpaceOnUse" xlink:href="#linearGradient8984"/>
  <radialGradient id="radialGradient21871-3" cx="152.333" cy="-754.638" r="15" gradientTransform="matrix(4.06286e-6,1.01528,-4.27735,0,-1857.01,-1670.52)" gradientUnits="userSpaceOnUse">
   <stop style="stop-color:#800080" offset="0"/>
   <stop style="stop-color:#800080" offset=".727"/>
   <stop style="stop-color:#ff00ff;stop-opacity:0" offset="1"/>
  </radialGradient>
  <radialGradient id="radialGradient21877-8" cx="518.854" cy="730.484" r="22.89" gradientTransform="matrix(.959821 0 1.35768e-7 .268231 21.681 534.374)" gradientUnits="userSpaceOnUse">
   <stop style="stop-color:#dc85e9" offset="0"/>
   <stop style="stop-color:#f2cbf8" offset="1"/>
  </radialGradient>
  <linearGradient id="linearGradient1144" x1="208" x2="96" y1="28" y2="284" gradientTransform="matrix(.26458333 0 0 .26458333 -6.5263354 221.63997)" gradientUnits="userSpaceOnUse">
   <stop style="stop-color:#f2f2f2" offset="0"/>
   <stop style="stop-color:#f9f9f9" offset="1"/>
  </linearGradient>
  <linearGradient id="linearGradient4226" x1="529.655" x2="-35.31" y1="401.584" y2="119.093" gradientTransform="matrix(0 -.11988932 -.11988589 0 67.016455 292.5483)" gradientUnits="userSpaceOnUse">
   <stop style="stop-color:#950ba8" offset="0"/>
   <stop style="stop-color:#c557bc" offset="1"/>
  </linearGradient>
  <linearGradient id="linearGradient4358" x1="88" x2="488" y1="88" y2="488" gradientUnits="userSpaceOnUse">
   <stop style="stop-color:#000000;stop-opacity:.58823532" offset="0"/>
   <stop style="stop-color:#000000;stop-opacity:0" offset=".88"/>
   <stop style="stop-color:#000000" offset="1"/>
  </linearGradient>
  <filter id="filter4346" x="-.01" y="-.01" width="1.026" height="1.022" style="color-interpolation-filters:sRGB">
   <feGaussianBlur stdDeviation="2.12"/>
  </filter>
  <linearGradient id="linearGradient1072" x1="1372.884" x2="1372.884" y1="-1544.389" y2="-1558.638" gradientTransform="translate(0 -.4994)" gradientUnits="userSpaceOnUse">
   <stop style="stop-color:#ffffff" offset="0"/>
   <stop style="stop-color:#aa0000;stop-opacity:0" offset="1"/>
  </linearGradient>
 </defs>
 <g transform="translate(0,-229.26665)">
  <path transform="matrix(.13229167 0 0 .13229167 -4.4096684 223.75664)" d="m189.84323 74c-70.59344 0-78.18921 7.250835-77.84323 77.98706v292.02588c-0.34598 70.73623 7.24979 77.98706 77.84323 77.98706h196.31354c70.59344 0 76.00668-7.27384 77.84323-77.98706v-292.02588c0-70.737067-7.24979-77.98706-77.84323-77.98706z" style="filter:url(#filter4346);opacity:.1"/>
  <path transform="matrix(.13229167 0 0 .13229167 -4.4096684 223.75664)" d="m189.84323 74c-70.59344 0-78.18921 7.250835-77.84323 77.98706v292.02588c-0.34598 70.73623 7.24979 77.98706 77.84323 77.98706h196.31354c70.59344 0 77.84323-7.24999 77.84323-77.98706v-292.02588c0-70.737067-7.24979-77.98706-77.84323-77.98706z" style="fill:url(#linearGradient4358);filter:url(#filter4380);opacity:.3"/>
  <path d="m46.674225 233.28164c9.338927 0 10.343782 0.95922 10.298012 10.31704v38.63259c0.04577 9.35781-0.959085 10.31704-10.298012 10.31704h-25.970643c-9.338924 0-10.298012-0.95912-10.298012-10.31704v-38.63259c0-9.35793 0.959088-10.31704 10.298012-10.31704z" style="fill:url(#linearGradient4226)"/>
  <path d="m20.705079 290.43164c-2.2985 0-4.033339-0.07-5.204852-0.26665s-1.676542-0.47317-1.968355-0.76429c-0.291813-0.29113-0.566094-0.78898-0.760161-1.95648-0.194066-1.16749-0.259302-2.90138-0.248046-5.20278v-38.6526c-0.01126-2.30139 0.05398-4.03529 0.248046-5.20278 0.194067-1.1675 0.468348-1.66535 0.760161-1.95647 0.291813-0.29113 0.796842-0.56765 1.968355-0.7643s2.906352-0.26665 5.204852-0.26665h22.510254l11.641666 11.64134v35.19113c0 2.30333-0.0703 4.0395-0.266649 5.21002-0.196356 1.17052-0.471755 1.67223-0.761712 1.96267-0.289957 0.29045-0.788329 0.56479-1.955435 0.7612-1.167106 0.1964-2.899114 0.26665-5.197618 0.26665z" style="fill:url(#linearGradient1144)"/>
  <g transform="matrix(.23150987 0 0 .23150987 -283.70975 621.2415)" style="enable-background:new">
   <path d="m1307.0003-1602.638v6h28v-6zm32 0v6h30v-6zm34 0v6h30v-6zm34 0v6h28v-6zm-100 10v8h28v-8zm32 0v8h30v-8zm34 0v8h30v-8zm34 0v8h28v-8zm-100 12v8h28v-8zm32 0v8h30v-8zm34 0v8h30v-8zm34 0v8h28v-8zm-100 12v8h28v-8zm32 0v8h30v-8zm34 0v8h30v-8zm34 0v8h28v-8zm-100 12v8h28v-8zm32 0v8h30v-8zm34 0v8h30v-8zm34 0v8h28v-8zm-100 12v8h28v-8zm32 0v8h30v-8zm34 0v8h30v-8zm34 0v8h28v-8zm-100 12v8h28v-8zm32 0v8h30v-8zm34 0v8h30v-8zm34 0v8h28v-8zm-100 12v8h28v-8zm32 0v8h30v-8zm34 0v8h30v-8zm34 0v8h28v-8zm-100 12v8h28v-8zm32 0v8h30v-8zm34 0v8h30v-8zm34 0v8h28v-8zm-100 12v6h28v-6zm32 0v6h30v-6zm34 0v6h30v-6zm34 0v6h28v-6z" style="fill:url(#linearGradient21865)"/>
   <path d="m1307-1602.6378v1h28v-1zm32 0v1h30v-1zm34 0v1h30v-1zm34 0v1h28v-1zm-100 10v1h28v-1zm32 0v1h30v-1zm34 0v1h30v-1zm34 0v1h28v-1zm-100 12v1h28v-1zm32 0v1h30v-1zm34 0v1h30v-1zm34 0v1h28v-1zm-100 12v1h28v-1zm32 0v1h30v-1zm34 0v1h30v-1zm34 0v1h28v-1zm-100 12v1h28v-1zm32 0v1h30v-1zm34 0v1h30v-1zm34 0v1h28v-1zm-100 12v1h28v-1zm32 0v1h30v-1zm34 0v1h30v-1zm34 0v1h28v-1zm-100 12v1h28v-1zm32 0v1h30v-1zm34 0v1h30v-1zm34 0v1h28v-1zm-100 12v1h28v-1zm32 0v1h30v-1zm34 0v1h30v-1zm34 0v1h28v-1zm-100 12v1h28v-1zm32 0v1h30v-1zm34 0v1h30v-1zm34 0v1h28v-1zm-100 12v1h28v-1zm32 0v1h30v-1zm34 0v1h30v-1zm34 0v1h28v-1z" style="fill:#800080;opacity:.25"/>
   <path d="m1336.8667-1582.8566c-4.4225 1.1052-8.0003 2.6406-10.5626 4.2813-2.5623 1.6406-4.2094 3.5916-4.2187 5.9375-0.078 19.6496-0.062 38.3855-0.062 54 0 2.2938 1.6506 4.2616 4.2188 5.9062 2.5682 1.6445 6.1886 3.057 10.5937 4.25 8.8102 2.3861 20.8595 3.8438 34.1875 3.8438s25.3773-1.4577 34.1875-3.8438c4.4051-1.193 8.0254-2.6054 10.5937-4.25 2.5682-1.6445 4.1959-3.6233 4.1959-5.9171v-54c0-2.3459-1.6956-4.286-4.2578-5.9266-2.5623-1.6407-6.1626-3.0896-10.5626-4.2813-8.7998-2.3834-20.8257-3.7812-34.1562-3.7812-13.4197 0-24.7005 1.4179-34.1572 3.7812zm34.1562-1.7812c13.1884-0.024 25.1148 1.4594 33.6875 3.7812 4.2863 1.1609 7.7357 2.5926 10.0313 4.0625 2.2956 1.47 3.4615 2.9179 3.3437 4.1563-0.2099 2.2051-2.5786 3.7353-4.2498 4.6877-2.7109 1.5447-5.9518 2.7094-8.875 3.4682-9.9807 2.5907-19.9474 3.5351-29.5313 3.7808-13.2609 0.2127-26.4103-0.7313-38.5312-3.8423-2.8126-0.7333-5.249-1.6374-7.6562-2.8437-2.1609-1.0829-5.0631-2.882-5.2805-5.2495-0.117-1.2738 1.048-2.6864 3.3437-4.1563 2.2956-1.47 5.6973-3.0942 10.0313-4.0625 11.926-2.6645 23.6544-3.7638 33.6865-3.7824zm-47 16.125c0.633 0.635 1.3925 1.2732 2.2812 1.8125 3.29 1.9964 7.3084 3.4876 10.5626 4.2812 13.1049 3.0399 26.1178 4.0856 38.625 3.7191 10.112-0.3193 20.3214-1.0694 29.6874-3.7191 4.6348-1.3113 9.5649-2.8964 12.8438-6.0937v12.875c0 0.5819 0 1.2208-0.125 1.7187-0.2732 1.1053-1.3688 2.437-3.3438 3.5938-3.2639 1.9117-6.8389 3.0829-9.9998 3.9374-11.2316 2.7397-22.9156 3.7351-33.5312 3.75-11.4559-0.088-23.5356-1.1252-33.6875-3.7813-4.3563-1.3747-8.7244-2.5615-11.8745-5.4685-0.7253-0.677-1.1339-1.4058-1.3125-2.0313-0.1617-0.5663-0.124-1.122-0.124-1.7187v-12.875zm0 18.0312c0.3881 0.384 0.8349 0.7645 1.3125 1.125 3.8328 2.6485 8.599 4.1875 12.7498 5.2191 11.4816 2.6061 21.6513 3.4771 32.9375 3.4992 11.3534-0.2328 22.4745-0.8133 32.9375-3.4995 3.7047-0.9664 7.6813-2.3851 10.6879-3.9063 1.1439-0.5788 2.9374-2.034 3.375-2.4378v12.8438c0 0.5819 0 1.2208-0.125 1.7187-0.2732 1.1053-1.4022 2.3818-3.3438 3.5938-4.2885 2.5159-9.373 3.9033-13.8435 4.8749-10.3889 2.0162-19.9086 2.7984-29.6875 2.8125-4.946 0-9.7115-0.172-14.1875-0.5938-10.0501-1.2286-18.9816-2.1518-27.5-6.0625-1.4518-0.6725-2.7953-1.6037-3.8745-2.5935-0.7312-0.6706-1.117-1.4108-1.3125-2.0313-0.075-0.2376-0.1224-0.5025-0.124-0.7187-0.035-4.6145 0-9.2292 0-13.8438zm0 18c1.5656 1.541 3.6376 2.7051 5.531 3.5003 8.6756 3.5974 18.9429 5.0615 27.125 5.7497 4.9351 0.4055 9.7705 0.5946 14.3438 0.5933 11.3687-0.1838 22.4492-0.8859 32.9375-3.4995 4.2187-1.1456 8.1701-2.4102 11.6567-4.4691 0.9341-0.5547 1.6709-1.1929 2.4062-1.875v12.8438 1c0 1.2961-1.0229 2.7528-3.3125 4.2187-2.2896 1.4662-5.7189 2.8405-10 4-8.5625 2.3189-20.5059 3.7813-33.6875 3.7813-13.1817 0-25.1251-1.4623-33.6875-3.7813-4.2812-1.1594-7.7104-2.5339-10-4-2.2896-1.466-3.3125-2.9226-3.3125-4.2187v-13.8438z" style="fill:none;opacity:.5;stroke-width:1.1428598;stroke:#ffffff"/>
   <path d="m1322-1602.6378v6h-15v-6zm0 10v8h-15v-8zm0 12v8h-15v-8zm0 12v8h-15v-8zm0 12v8h-15v-8zm0 12v8h-15v-8zm0 12v8h-15v-8zm0 12v8h-15v-8zm0 12v8h-15v-8zm0 12v6h-15v-6z" style="fill:url(#linearGradient21867);opacity:.35"/>
   <path d="m1420-1602.6378v6h15v-6zm0 10v8h15v-8zm0 12v8h15v-8zm0 12v8h15v-8zm0 12v8h15v-8zm0 12v8h15v-8zm0 12v8h15v-8zm0 12v8h15v-8zm0 12v8h15v-8zm0 12v6h15v-6z" style="fill:url(#linearGradient21869);opacity:.35"/>
   <rect x="1307" y="-1530.64" width="128" height="30" style="fill:url(#radialGradient21871-3);opacity:.5"/>
   <path d="m1323-1570.6378v52c0 7.1797 21.4903 13 48 13 26.5096 0 48-5.8203 48-13v-52z" style="fill:url(#linearGradient21873)"/>
   <path d="m1336.8667-1582.8566c-4.4225 1.1052-8.0003 2.6406-10.5626 4.2813-2.5623 1.6406-4.2094 3.5916-4.2187 5.9375-0.078 19.6496-0.062 38.3855-0.062 54 0 2.2938 1.6506 4.2616 4.2188 5.9062 2.5682 1.6445 6.1886 3.057 10.5937 4.25 8.8102 2.3861 20.8595 3.8438 34.1875 3.8438s25.3773-1.4577 34.1875-3.8438c4.4051-1.193 8.0254-2.6054 10.5937-4.25 2.5682-1.6445 4.1959-3.6233 4.1959-5.9171v-54c0-2.3459-1.6956-4.286-4.2578-5.9266-2.5623-1.6407-6.1626-3.0896-10.5626-4.2813-8.7998-2.3834-20.8257-3.7812-34.1562-3.7812-13.4197 0-24.7005 1.4179-34.1572 3.7812zm34.1562-1.7812c13.1884-0.024 25.1148 1.4594 33.6875 3.7812 4.2863 1.1609 7.7357 2.5926 10.0313 4.0625 2.2956 1.47 3.4615 2.9179 3.3437 4.1563-0.2099 2.2051-2.5786 3.7353-4.2498 4.6877-2.7109 1.5447-5.9518 2.7094-8.875 3.4682-9.9807 2.5907-19.9474 3.5351-29.5313 3.7808-13.2609 0.2127-26.4103-0.7313-38.5312-3.8423-2.8126-0.7333-5.249-1.6374-7.6562-2.8437-2.1609-1.0829-5.0631-2.882-5.2805-5.2495-0.117-1.2738 1.048-2.6864 3.3437-4.1563 2.2956-1.47 5.6973-3.0942 10.0313-4.0625 11.926-2.6645 23.6544-3.7638 33.6865-3.7824zm-47 16.125c0.633 0.635 1.3925 1.2732 2.2812 1.8125 3.29 1.9964 7.3084 3.4876 10.5626 4.2812 13.1049 3.0399 26.1178 4.0856 38.625 3.7191 10.112-0.3193 20.3214-1.0694 29.6874-3.7191 4.6348-1.3113 9.5649-2.8964 12.8438-6.0937v12.875c0 0.5819 0 1.2208-0.125 1.7187-0.2732 1.1053-1.3688 2.437-3.3438 3.5938-3.2639 1.9117-6.8389 3.0829-9.9998 3.9374-11.2316 2.7397-22.9156 3.7351-33.5312 3.75-11.4559-0.088-23.5356-1.1252-33.6875-3.7813-4.3563-1.3747-8.7244-2.5615-11.8745-5.4685-0.7253-0.677-1.1339-1.4058-1.3125-2.0313-0.1617-0.5663-0.124-1.122-0.124-1.7187v-12.875zm0 18.0312c0.3881 0.384 0.8349 0.7645 1.3125 1.125 3.8328 2.6485 8.599 4.1875 12.7498 5.2191 11.4816 2.6061 21.6513 3.4771 32.9375 3.4992 11.3534-0.2328 22.4745-0.8133 32.9375-3.4995 3.7047-0.9664 7.6813-2.3851 10.6879-3.9063 1.1439-0.5788 2.9374-2.034 3.375-2.4378v12.8438c0 0.5819 0 1.2208-0.125 1.7187-0.2732 1.1053-1.4022 2.3818-3.3438 3.5938-4.2885 2.5159-9.373 3.9033-13.8435 4.8749-10.3889 2.0162-19.9086 2.7984-29.6875 2.8125-4.946 0-9.7115-0.172-14.1875-0.5938-10.0501-1.2286-18.9816-2.1518-27.5-6.0625-1.4518-0.6725-2.7953-1.6037-3.8745-2.5935-0.7312-0.6706-1.117-1.4108-1.3125-2.0313-0.075-0.2376-0.1224-0.5025-0.124-0.7187-0.035-4.6145 0-9.2292 0-13.8438zm0 18c1.5656 1.541 3.6376 2.7051 5.531 3.5003 8.6756 3.5974 18.9429 5.0615 27.125 5.7497 4.9351 0.4055 9.7705 0.5946 14.3438 0.5933 11.3687-0.1838 22.4492-0.8859 32.9375-3.4995 4.2187-1.1456 8.1701-2.4102 11.6567-4.4691 0.9341-0.5547 1.6709-1.1929 2.4062-1.875v12.8438 1c0 1.2961-1.0229 2.7528-3.3125 4.2187-2.2896 1.4662-5.7189 2.8405-10 4-8.5625 2.3189-20.5059 3.7813-33.6875 3.7813-13.1817 0-25.1251-1.4623-33.6875-3.7813-4.2812-1.1594-7.7104-2.5339-10-4-2.2896-1.466-3.3125-2.9226-3.3125-4.2187v-13.8438z" style="fill:url(#linearGradient21875)"/>
   <path transform="matrix(2.09471,0,0,2.10989,282.407,-3113.52)" d="m542.125 730.3125a22.4375 5.6875 0 1 1-44.875 0 22.4375 5.6875 0 1 1 44.875 0z" style="fill:url(#radialGradient21877-8)"/>
   <path d="m1324.4843-1567.3581v11.1536 0.9333c0 6.7008 20.8164 12.1328 46.4948 12.1328 25.6783 0 46.4947-5.432 46.4947-12.1328v-12.0263c-4.1571 3.7151-19.6266 9.1956-46.3488 9.1956s-42.7516-5.5408-46.6407-9.2562z" style="fill:none;opacity:.5;stroke-width:.57142991;stroke:#ffffff"/>
   <path transform="matrix(2.07242,0,0,2.02198,293.987,-3049.31)" d="m542.125 730.3125a22.4375 5.6875 0 1 1-44.875 0 22.4375 5.6875 0 1 1 44.875 0z" style="fill:none;opacity:.5;stroke-width:.27914864;stroke:#ffffff"/>
   <path d="m1324.4843-1566.8575v9.1536 0.9333c0 6.7008 20.8164 12.1328 46.4948 12.1328 25.6783 0 46.4947-5.432 46.4947-12.1328v-10.0263c-4.1571 3.7151-19.6266 9.1956-46.3488 9.1956s-42.7516-5.5408-46.6407-9.2562z" style="fill:url(#linearGradient1072);opacity:.25"/>
   <path d="m1336.75-1580.4771 71.375 15.0742-19.4435 3.8901-31.5035-22.125z" style="fill:url(#linearGradient21881);opacity:.25"/>
   <use transform="translate(0,18)" width="5033" height="1085" xlink:href="#path12064"/>
   <use transform="translate(0,18)" width="5033" height="1085" xlink:href="#path8855"/>
   <use transform="translate(0,36)" width="5033" height="1085" xlink:href="#path12064"/>
   <use transform="translate(0,36)" width="5033" height="1085" xlink:href="#path8855"/>
   <path d="m1331.7271-1563.8805s1.2809 21.6144 9.4257 36.5283 15.2451 19.1332 15.2451 19.1332l16.8342-1.4495s-17.0503-11.4476-25.0669-27.6647c-8.0166-16.2172-10.0081-24.3946-10.0081-24.3946z" style="fill:url(#linearGradient21883);opacity:.25"/>
  </g>
  <path d="m10.406998 262.91497v19.31639c-0.04577 9.35782 0.959156 10.31695 10.298081 10.31695h25.970506c9.338924 0 10.055122-0.96217 10.298081-10.31695v-19.31639z" style="fill:#ffffff;opacity:.1"/>
  <path d="m33.688972 233.28164v59.26667h12.985253c9.338924 0 10.055122-0.96217 10.298081-10.31695v-38.63278c0-9.35792-0.959157-10.31694-10.298081-10.31694z" style="fill:#ffffff;opacity:.1"/>
  <path d="m10.406998 281.70194v0.52917c-0.04577 9.35781 0.959154 10.3172 10.298081 10.3172h25.970506c9.338924 0 10.055122-0.96243 10.298081-10.3172v-0.52917c-0.242959 9.35477-0.959157 10.3172-10.298081 10.3172h-25.970506c-9.338927 0-10.343851-0.95939-10.298081-10.3172z" style="opacity:.2"/>
  <path d="m20.705079 233.28164c-9.338926 0-10.343851 0.95939-10.298081 10.3172v0.52916c-0.04577-9.35781 0.959155-10.3172 10.298081-10.3172h25.970506c9.338927 0 10.298081 0.95928 10.298081 10.3172v-0.52916c0-9.35793-0.959154-10.3172-10.298081-10.3172z" style="fill:#ffffff;opacity:.2"/>
  <path d="m41.098666 292.54831 15.875-15.875v5.94886c-0.01384 8.99472-1.006126 9.92614-10.100231 9.92614z" style="fill:#ffffff;opacity:.07999998"/>
 </g>
</svg>
