<svg width="256" height="256" version="1.1" viewBox="0 0 67.73 67.73" xmlns="http://www.w3.org/2000/svg" xmlns:xlink="http://www.w3.org/1999/xlink">
 <defs>
  <linearGradient id="linearGradient4226" x1="529.655" x2="-35.31" y1="401.584" y2="119.093" gradientTransform="matrix(0 -.11988932 .11988589 0 .36278005 292.5483)" gradientUnits="userSpaceOnUse">
   <stop style="stop-color:#f2f2f2" offset="0"/>
   <stop style="stop-color:#f9f9f9" offset="1"/>
  </linearGradient>
  <linearGradient id="linearGradient4358" x1="88" x2="488" y1="88" y2="488" gradientUnits="userSpaceOnUse">
   <stop style="stop-color:#000000;stop-opacity:.58823532" offset="0"/>
   <stop style="stop-color:#000000;stop-opacity:0" offset=".88"/>
   <stop style="stop-color:#000000" offset="1"/>
  </linearGradient>
  <filter id="filter4346" x="-.01" y="-.01" width="1.026" height="1.022" style="color-interpolation-filters:sRGB">
   <feGaussianBlur stdDeviation="2.12"/>
  </filter>
 </defs>
 <g transform="translate(0,-229.26665)">
  <path d="m20.70501 233.28164c-9.338925 0-10.343782 0.95922-10.298012 10.31704v38.63259c-0.04577 9.35781 0.959087 10.31704 10.298012 10.31704h25.970643c9.338924 0 10.298012-0.95912 10.298012-10.31704v-38.63259c0-9.35793-0.959088-10.31704-10.298012-10.31704z" style="fill:none;opacity:.2;stroke-width:1.0583333;stroke:#000000"/>
  <path transform="matrix(.13229167 0 0 .13229167 -4.4096684 223.75664)" d="m189.84323 74c-70.59344 0-78.18921 7.250835-77.84323 77.98706v292.02588c-0.34598 70.73623 7.24979 77.98706 77.84323 77.98706h196.31354c70.59344 0 76.00668-7.27384 77.84323-77.98706v-292.02588c0-70.737067-7.24979-77.98706-77.84323-77.98706z" style="filter:url(#filter4346);opacity:.1"/>
  <path transform="matrix(.13229167 0 0 .13229167 -4.4096684 223.75664)" d="m189.84323 74c-70.59344 0-78.18921 7.250835-77.84323 77.98706v292.02588c-0.34598 70.73623 7.24979 77.98706 77.84323 77.98706h196.31354c70.59344 0 77.84323-7.24999 77.84323-77.98706v-292.02588c0-70.737067-7.24979-77.98706-77.84323-77.98706z" style="fill:url(#linearGradient4358);filter:url(#filter4380);opacity:.3"/>
  <path d="m20.70501 233.28164c-9.338925 0-10.343782 0.95922-10.298012 10.31704v38.63259c-0.04577 9.35781 0.959087 10.31704 10.298012 10.31704h25.970643c9.338924 0 10.298012-0.95912 10.298012-10.31704v-38.63259c0-9.35793-0.959088-10.31704-10.298012-10.31704z" style="fill:url(#linearGradient4226)"/>
  <g transform="matrix(.26458333 0 0 .26458333 -6.5263354 221.63997)" style="enable-background:new">
   <path class="cls-1" d="m192 227.9998-7.95391 0.0344v-21.15563c-3.72976 3.57586-12.11533 10.68698-12.11533 10.68698l-11.93076-10.68698v21.12143l-8-0.0436v-31.95617s5.52774 0.0342 7.64946 0.0671c0.26076 0 0.54932 0.28 0.76305 0.4916 3.18471 3.1605 11.54604 10.21033 11.54604 10.21033s8.91565-7.50653 11.48908-10.10774c0.37683-0.42619 0.92817-0.65618 1.49616-0.62412 1.62656 0.0299 5.35913-0.0374 7.05621-0.0374z" style="fill:#f09020"/>
   <path class="cls-1" d="m127.14125 205.10182s5.74117-5.70061 8.62776-8.53598c0.25822-0.25395 0.6402-0.53564 0.96457-0.54204 2.46689-0.0285 7.2676-0.0234 7.2676-0.0234v31.9996h-8.00118v-20.80306s-13.57205 13.57985-20.05371 20.06863c-0.45057 0.49497-1.09835 0.76332-1.76695 0.73197-3.02175-0.0405-9.9551-9e-3 -9.9551-9e-3z" style="fill:#f09020"/>
   <path class="cls-1" d="m100.52956 212.62699-16.65456-16.62698s6.5 0 8.68031 7e-3c0.59603-0.0362 1.1765 0.19884 1.5795 0.63947 3.44464 3.49153 6.91486 6.9447 10.38508 10.40425 0.24512 0.24514 0.50518 0.47322 0.79081 0.73967 3.68338-3.6642 7.33904-7.2751 10.95634-10.92437 0.59257-0.59897 1.17449-0.88247 2.03139-0.86542 1.67656-8e-4 8.41299-8e-4 8.41299-8e-4s-12.19694 12.20283-17.3635 17.35394c-4.65112 4.63192-9.32355 9.24467-13.96187 13.89152-0.47434 0.51688-1.15634 0.79249-1.85661 0.75032-2.35444 0.00441-8.259882 0.00441-8.259882 0.00441z" style="fill:#f09020"/>
   <path class="cls-1" d="m200 196h8v26s10.44991 0.0106 15.2573-0.015c0.60169-0.0383 1.18843 0.19759 1.59605 0.64183 1.51047 1.56395 3.04299 3.14814 4.57914 4.68642 0.19255 0.19254 0.36157 0.40649 0.60761 0.68677l-30.0401 2e-5z" style="fill:#f09020"/>
  </g>
  <g transform="matrix(.26458333 0 0 .26458333 -6.5263354 219.5233)" style="enable-background:new">
   <ellipse cx="152.001" cy="115.982" rx="52" ry="20" style="fill:none;stroke-dashoffset:1;stroke-linejoin:round;stroke-width:8;stroke:#999999"/>
   <path d="m99.99908 115.98797v48" style="fill:none;stroke-width:8;stroke:#999999"/>
   <path d="m204.00093 131.98209a52 20 0 0 1-26 17.3205 52 20 0 0 1-52 0 52 20 0 0 1-26-17.3205" style="fill:none;stroke-dashoffset:1;stroke-linejoin:round;stroke-width:8;stroke:#999999"/>
   <path d="m204.00093 147.98207a52 20 0 0 1-26 17.32051 52 20 0 0 1-52 0 52 20 0 0 1-26-17.32051" style="fill:none;stroke-dashoffset:1;stroke-linejoin:round;stroke-width:8;stroke:#999999"/>
   <path d="m204.00093 163.98207a52 20 0 0 1-26 17.32051 52 20 0 0 1-52 0 52 20 0 0 1-26-17.32051" style="fill:none;stroke-dashoffset:1;stroke-linejoin:round;stroke-width:8;stroke:#999999"/>
   <path d="m203.99908 115.98797v48" style="fill:none;stroke-width:8;stroke:#999999"/>
  </g>
  <path d="m33.690331 233.28164v59.26667h12.985253c9.338924 0 10.055122-0.96217 10.298081-10.31695v-38.63278c0-9.35792-0.959157-10.31694-10.298081-10.31694z" style="fill:#ffffff;opacity:.1"/>
  <path d="m10.406998 262.91497v19.31639c-0.04577 9.35782 0.959156 10.31695 10.29808 10.31695h25.970506c9.338924 0 10.055122-0.96217 10.298081-10.31695v-19.31639z" style="fill:#ffffff;opacity:.2"/>
  <path d="m41.098665 292.54831 15.875-15.875v5.94886c-0.01384 8.99472-1.006126 9.92614-10.100231 9.92614z" style="fill:#ffffff;opacity:.4"/>
  <path d="m20.705078 233.28164c-9.338925 0-10.34385 0.95939-10.29808 10.3172v0.52916c-0.04577-9.35781 0.959155-10.3172 10.29808-10.3172h25.970506c9.338927 0 10.298081 0.95928 10.298081 10.3172v-0.52916c0-9.35793-0.959154-10.3172-10.298081-10.3172z" style="fill:#ffffff;opacity:.6"/>
 </g>
</svg>
