<svg width="256" height="256" version="1.1" viewBox="0 0 67.73 67.73" xmlns="http://www.w3.org/2000/svg" xmlns:xlink="http://www.w3.org/1999/xlink">
 <defs>
  <linearGradient id="linearGradient4226" x1="529.655" x2="-35.31" y1="401.584" y2="119.093" gradientTransform="matrix(0 -.11988932 .11988589 0 .36278005 292.5483)" gradientUnits="userSpaceOnUse">
   <stop style="stop-color:#f2f2f2" offset="0"/>
   <stop style="stop-color:#f9f9f9" offset="1"/>
  </linearGradient>
  <linearGradient id="linearGradient4358" x1="88" x2="488" y1="88" y2="488" gradientUnits="userSpaceOnUse">
   <stop style="stop-color:#000000;stop-opacity:.58823532" offset="0"/>
   <stop style="stop-color:#000000;stop-opacity:0" offset=".88"/>
   <stop style="stop-color:#000000" offset="1"/>
  </linearGradient>
  <filter id="filter4346" x="-.01" y="-.01" width="1.026" height="1.022" style="color-interpolation-filters:sRGB">
   <feGaussianBlur stdDeviation="2.12"/>
  </filter>
 </defs>
 <g transform="translate(0,-229.26665)">
  <path d="m20.705011 233.28164c-9.338925 0-10.343783 0.95922-10.298013 10.31704v38.63259c-0.04577 9.35781 0.959088 10.31704 10.298013 10.31704h25.970643c9.338924 0 10.298012-0.95912 10.298012-10.31704v-38.63259c0-9.35793-0.959088-10.31704-10.298012-10.31704z" style="fill:none;opacity:.2;stroke-width:1.0583333;stroke:#000000"/>
  <path transform="matrix(.13229167 0 0 .13229167 -4.4096684 223.75664)" d="m189.84323 74c-70.59344 0-78.18921 7.250835-77.84323 77.98706v292.02588c-0.34598 70.73623 7.24979 77.98706 77.84323 77.98706h196.31354c70.59344 0 76.00668-7.27384 77.84323-77.98706v-292.02588c0-70.737067-7.24979-77.98706-77.84323-77.98706z" style="filter:url(#filter4346);opacity:.1"/>
  <path transform="matrix(.13229167 0 0 .13229167 -4.4096684 223.75664)" d="m189.84323 74c-70.59344 0-78.18921 7.250835-77.84323 77.98706v292.02588c-0.34598 70.73623 7.24979 77.98706 77.84323 77.98706h196.31354c70.59344 0 77.84323-7.24999 77.84323-77.98706v-292.02588c0-70.737067-7.24979-77.98706-77.84323-77.98706z" style="fill:url(#linearGradient4358);filter:url(#filter4380);opacity:.3"/>
  <path d="m20.705011 233.28164c-9.338925 0-10.343783 0.95922-10.298013 10.31704v38.63259c-0.04577 9.35781 0.959088 10.31704 10.298013 10.31704h25.970643c9.338924 0 10.298012-0.95912 10.298012-10.31704v-38.63259c0-9.35793-0.959088-10.31704-10.298012-10.31704z" style="fill:url(#linearGradient4226)"/>
  <path d="m20.705079 233.28164c-9.338926 0-10.343851 0.95939-10.298081 10.3172v0.52916c-0.04577-9.35781 0.959155-10.3172 10.298081-10.3172h25.970506c9.338927 0 10.298081 0.95928 10.298081 10.3172v-0.52916c0-9.35793-0.959154-10.3172-10.298081-10.3172z" style="fill:#ffffff;opacity:.6"/>
  <path class="st1" d="m43.663116 253.59502c1.072878 0.26821 1.890945 0.7443 2.64196 1.52214 0.388916 0.41574 0.965589 1.17346 1.012526 1.35451 0.01341 0.0536-1.823889 1.28745-2.936999 1.97811-0.04023 0.0268-0.201166-0.14752-0.382215-0.41574-0.543142-0.79124-1.113107-1.13322-1.984822-1.19357-1.280745-0.0872-2.10552 0.58338-2.098815 1.70319 0 0.32857 0.04694 0.52303 0.181049 0.79125 0.28163 0.58338 0.804656 0.93206 2.447499 1.64284 3.024174 1.30086 4.318331 2.15917 5.122989 3.37956 0.898533 1.36122 1.099699 3.53379 0.489501 5.14981-0.67055 1.75684-2.333509 2.95042-4.673722 3.34604-0.724191 0.1274-2.440795 0.10728-3.21863-0.0335-1.696487-0.30175-3.305802-1.13993-4.298214-2.23963-0.388919-0.42915-1.146638-1.54897-1.099699-1.62943 0.02011-0.0268 0.194459-0.13411 0.388917-0.2481 0.187753-0.10729 0.898535-0.51633 1.569085-0.90524l1.213691-0.70408 0.254807 0.37551c0.355391 0.54314 1.133226 1.28745 1.60261 1.53555 1.347804 0.71078 3.198517 0.6102 4.110461-0.20787 0.388917-0.35539 0.549849-0.72419 0.549849-1.26733 0-0.4895-0.06035-0.70408-0.315158-1.07288-0.328568-0.46938-0.999117-0.86501-2.903471-1.68978-2.179283-0.93877-3.118051-1.52215-3.976352-2.4475-0.496205-0.53644-0.965589-1.39474-1.160047-2.11223-0.160933-0.59679-0.201165-2.09211-0.07376-2.6956 0.449266-2.10552 2.038467-3.57402 4.33174-4.00988 0.744308-0.14082 2.474323-0.0872 3.205221 0.0939zm-9.917407 1.76354 0.01341 1.73001h-5.498489v15.62377h-3.88918v-15.62377h-5.498498v-1.69649c0-0.93876 0.02011-1.7233 0.04694-1.74342 0.02011-0.0268 3.366153-0.0402 7.422969-0.0335l7.382732 0.0201z" style="fill:#1a7fd4"/>
  <path d="m33.690332 233.28164v59.26667h12.985253c9.338924 0 10.055122-0.96217 10.298081-10.31695v-38.63278c0-9.35792-0.959157-10.31694-10.298081-10.31694z" style="fill:#ffffff;opacity:.1"/>
  <path d="m10.406998 262.91497v19.31639c-0.04577 9.35782 0.959156 10.31695 10.298081 10.31695h25.970506c9.338924 0 10.055122-0.96217 10.298081-10.31695v-19.31639z" style="fill:#ffffff;opacity:.2"/>
  <path d="m41.098666 292.54831 15.875-15.875v5.94886c-0.01384 8.99472-1.006126 9.92614-10.100231 9.92614z" style="fill:#ffffff;opacity:.4"/>
 </g>
</svg>
