<svg width="256" height="256" version="1.1" viewBox="0 0 67.73 67.73" xmlns="http://www.w3.org/2000/svg" xmlns:xlink="http://www.w3.org/1999/xlink">
 <defs>
  <linearGradient id="linearGradient4226" x1="529.655" x2="-35.31" y1="401.584" y2="119.093" gradientTransform="matrix(0 -.11988932 .11988589 0 .36277965 292.5483)" gradientUnits="userSpaceOnUse">
   <stop style="stop-color:#f2f2f2" offset="0"/>
   <stop style="stop-color:#f9f9f9" offset="1"/>
  </linearGradient>
  <linearGradient id="linearGradient4358" x1="88" x2="488" y1="88" y2="488" gradientUnits="userSpaceOnUse">
   <stop style="stop-color:#000000;stop-opacity:.58823532" offset="0"/>
   <stop style="stop-color:#000000;stop-opacity:0" offset=".88"/>
   <stop style="stop-color:#000000" offset="1"/>
  </linearGradient>
  <filter id="filter4346" x="-.01" y="-.01" width="1.026" height="1.022" style="color-interpolation-filters:sRGB">
   <feGaussianBlur stdDeviation="2.12"/>
  </filter>
 </defs>
 <g transform="translate(0,-229.26665)">
  <path d="m20.705011 233.28164c-9.338925 0-10.343783 0.95922-10.298013 10.31704v38.63259c-0.04577 9.35781 0.959088 10.31704 10.298013 10.31704h25.970643c9.338924 0 10.298012-0.95912 10.298012-10.31704v-38.63259c0-9.35793-0.959088-10.31704-10.298012-10.31704z" style="fill:none;opacity:.2;stroke-width:1.0583333;stroke:#000000"/>
  <path transform="matrix(.13229167 0 0 .13229167 -4.4096684 223.75664)" d="m189.84323 74c-70.59344 0-78.18921 7.250835-77.84323 77.98706v292.02588c-0.34598 70.73623 7.24979 77.98706 77.84323 77.98706h196.31354c70.59344 0 76.00668-7.27384 77.84323-77.98706v-292.02588c0-70.737067-7.24979-77.98706-77.84323-77.98706z" style="filter:url(#filter4346);opacity:.1"/>
  <path transform="matrix(.13229167 0 0 .13229167 -4.4096684 223.75664)" d="m189.84323 74c-70.59344 0-78.18921 7.250835-77.84323 77.98706v292.02588c-0.34598 70.73623 7.24979 77.98706 77.84323 77.98706h196.31354c70.59344 0 77.84323-7.24999 77.84323-77.98706v-292.02588c0-70.737067-7.24979-77.98706-77.84323-77.98706z" style="fill:url(#linearGradient4358);filter:url(#filter4380);opacity:.3"/>
  <path d="m20.705011 233.28164c-9.338925 0-10.343783 0.95922-10.298013 10.31704v38.63259c-0.04577 9.35781 0.959088 10.31704 10.298013 10.31704h25.970643c9.338924 0 10.298012-0.95912 10.298012-10.31704v-38.63259c0-9.35793-0.959088-10.31704-10.298012-10.31704z" style="fill:url(#linearGradient4226)"/>
  <path d="m20.705079 233.28164c-9.338926 0-10.343851 0.95939-10.298081 10.3172v0.52916c-0.04577-9.35781 0.959155-10.3172 10.298081-10.3172h25.970506c9.338927 0 10.298081 0.95928 10.298081 10.3172v-0.52916c0-9.35793-0.959154-10.3172-10.298081-10.3172z" style="fill:#ffffff;opacity:.6"/>
  <path d="m32.252083 245.24895c-1.953376-0.12896-4.151466 1.25844-4.073159 3.39609-0.231019 1.27229 0.995878 2.2216 0.942443 3.36978-0.722702 0.31682-1.272175 0.31682-1.781035 0.31682h-8.466667c0 2.44066 3e-6 5.93966 3e-6 8.38032 0.661022 1.43936 2.010648-0.61616 3.076752-0.39385 2.037086-0.42639 3.870619 1.35925 3.968208 3.3325 0.270841 1.88261-0.457724 4.32954-2.591081 4.70841-1.150715 0.19428-2.389187-0.0186-3.334144-0.72191-1.137915-0.68686-1.210335 0.82027-1.119735 1.55852v8.53601h9.737164c1.439355-0.66103-0.616159-2.01065-0.393851-3.07675-0.426148-2.0366 1.359051-3.87171 3.332493-3.96846 1.882648-0.27028 4.329537 0.45781 4.708412 2.59133 0.194284 1.15071-0.01863 2.38918-0.721907 3.33414-0.686861 1.13792 0.820271 1.21033 1.558522 1.11974h7.179165v-9.69259c0.676841-1.45185 2.025354 0.6722 3.125896 0.35582 1.766927 0.34755 3.557497-0.91521 3.824094-2.69376 0.450848-1.96815-0.108225-4.57893-2.262941-5.2694-1.364893-0.46484-2.724941 0.12883-3.877101 0.83033-1.060575 0.14967-0.776671-1.13396-0.809948-1.79563 0-2.02548-3e-6 -5.10929-3e-6 -7.13477h-8.335748c-1.451848-0.67684 0.6722-2.02536 0.355814-3.1259 0.347552-1.76692-0.915201-3.5575-2.693752-3.82409-0.442391-0.0955-0.895848-0.13255-1.347894-0.1327z" style="fill:#46a926"/>
  <path d="m33.690332 233.28164v59.26667h12.985253c9.338924 0 10.055122-0.96217 10.298081-10.31695v-38.63278c0-9.35792-0.959157-10.31694-10.298081-10.31694z" style="fill:#ffffff;opacity:.1"/>
  <path d="m10.406998 262.91497v19.31639c-0.04577 9.35782 0.959156 10.31695 10.298081 10.31695h25.970506c9.338924 0 10.055122-0.96217 10.298081-10.31695v-19.31639z" style="fill:#ffffff;opacity:.2"/>
  <path d="m41.098666 292.54831 15.875-15.875v5.94886c-0.01384 8.99472-1.006126 9.92614-10.100231 9.92614z" style="fill:#ffffff;opacity:.4"/>
 </g>
</svg>
