<svg width="256" height="256" version="1.1" viewBox="0 0 67.73 67.73" xmlns="http://www.w3.org/2000/svg" xmlns:xlink="http://www.w3.org/1999/xlink">
 <defs>
  <linearGradient id="linearGradient4226" x1="529.655" x2="-35.31" y1="401.584" y2="119.093" gradientTransform="matrix(0 -.11988932 -.11988589 0 67.016455 292.5483)" gradientUnits="userSpaceOnUse">
   <stop style="stop-color:#da1636" offset="0"/>
   <stop style="stop-color:#f22c42" offset="1"/>
  </linearGradient>
  <linearGradient id="linearGradient4358" x1="88" x2="488" y1="88" y2="488" gradientUnits="userSpaceOnUse">
   <stop style="stop-color:#000000;stop-opacity:.58823532" offset="0"/>
   <stop style="stop-color:#000000;stop-opacity:0" offset=".88"/>
   <stop style="stop-color:#000000" offset="1"/>
  </linearGradient>
  <filter id="filter4346" x="-.01" y="-.01" width="1.026" height="1.022" style="color-interpolation-filters:sRGB">
   <feGaussianBlur stdDeviation="2.12"/>
  </filter>
 </defs>
 <g transform="translate(0,-229.26665)">
  <path transform="matrix(.13229167 0 0 .13229167 -4.4096684 223.75664)" d="m189.84323 74c-70.59344 0-78.18921 7.250835-77.84323 77.98706v292.02588c-0.34598 70.73623 7.24979 77.98706 77.84323 77.98706h196.31354c70.59344 0 76.00668-7.27384 77.84323-77.98706v-292.02588c0-70.737067-7.24979-77.98706-77.84323-77.98706z" style="filter:url(#filter4346);opacity:.1"/>
  <path transform="matrix(.13229167 0 0 .13229167 -4.4096684 223.75664)" d="m189.84323 74c-70.59344 0-78.18921 7.250835-77.84323 77.98706v292.02588c-0.34598 70.73623 7.24979 77.98706 77.84323 77.98706h196.31354c70.59344 0 77.84323-7.24999 77.84323-77.98706v-292.02588c0-70.737067-7.24979-77.98706-77.84323-77.98706z" style="fill:url(#linearGradient4358);filter:url(#filter4380);opacity:.3"/>
  <path d="m46.674225 233.28164c9.338927 0 10.343782 0.95922 10.298012 10.31704v38.63259c0.04577 9.35781-0.959085 10.31704-10.298012 10.31704h-25.970643c-9.338924 0-10.298012-0.95912-10.298012-10.31704v-38.63259c0-9.35793 0.959088-10.31704 10.298012-10.31704z" style="fill:url(#linearGradient4226)"/>
  <path d="m27.59135 265.74721c1.054672-2.0672 2.25329-4.39629 3.212658-6.73461l0.379333-0.92307c-1.253106-4.76846-2.004517-8.59612-1.333232-11.07113 0.18071-0.64527 0.928068-1.03676 1.727086-1.03676l0.486894 7e-3h0.08937c1.093888-0.0168 1.608968 1.37472 1.667414 1.91572 0.09653 0.90101-0.320323 2.42589-0.320323 2.42589 0-0.61575 0.02413-1.61075-0.364535-2.46935-0.452392-0.99349-0.884518-1.587-1.271958-1.68108-0.195606 0.13065-0.385746 0.4012-0.450884 0.92166-0.134898 0.72973-0.175339 1.65082-0.175339 2.12565 0 1.6776 0.330313 3.89186 0.979445 6.17447 0.122454-0.35341 0.230203-0.69297 0.315891-1.01112 0.133107-0.50142 0.979353-3.82521 0.979353-3.82521s-0.213236 4.42447-0.511122 5.76317c-0.06382 0.2829-0.134237 0.56269-0.207579 0.84908 1.070414 2.99084 2.795239 5.66023 4.852829 7.58141 0.811271 0.7582 1.835872 1.36953 2.805607 1.92675 2.117736-0.3026 4.067578-0.44551 5.694268-0.42751 2.158174 0.0285 3.742348 0.34766 4.383844 0.97954 0.3141 0.30713 0.441552 0.67807 0.481145 1.09389 0.0094 0.16177-0.06938 0.54185-0.09248 0.63725 0.0231-0.11548 0.0231-0.68335-1.709365-1.23632-1.364438-0.43618-3.918066-0.42261-6.982251-0.0964 3.5442 1.73397 6.997052 2.59549 8.091316 2.07899 0.267533-0.13037 0.592005-0.57494 0.592005-0.57494s-0.192873 0.87632-0.331354 1.09539c-0.176752 0.23803-0.52347 0.49585-0.852183 0.58277-1.728123 0.46107-6.226503-0.60586-10.148057-2.84662-4.381394 0.64527-9.193123 1.83729-13.050102 3.10237-3.790239 6.64241-6.639776 9.69312-8.957924 8.53258l-0.852279-0.42842c-0.346435-0.19815-0.39932-0.68052-0.319192-1.07334 0.270267-1.32229 1.92835-3.3139 5.258936-5.30267 0.358502-0.21691 1.955406-1.06127 1.955406-1.06127s-1.182217 1.14422-1.459178 1.36877c-2.658361 2.17844-4.620364 4.9191-4.571439 5.9816l0.0096 0.0927c2.258194-0.32183 5.644682-4.91815 9.998361-13.43679m1.379707 0.70645c-0.727184 1.36953-1.437965 2.63932-2.094167 3.80522 3.629891-1.52082 7.536739-2.49405 11.255709-3.18541-0.499808-0.34511-0.985006-0.71059-1.441548-1.0969-2.047975-1.73388-3.609337-3.89705-4.741122-6.17334-0.717756 1.93372-1.57126 3.98858-2.978872 6.65043" style="fill:#ffffff"/>
  <path d="m33.690332 233.28164v59.26667h12.985253c9.338924 0 10.055122-0.96217 10.298081-10.31695v-38.63278c0-9.35792-0.959157-10.31694-10.298081-10.31694z" style="fill:#ffffff;opacity:.07999998"/>
  <path d="m10.406998 262.91497v19.31639c-0.04577 9.35782 0.959155 10.31695 10.298081 10.31695h25.970506c9.338924 0 10.055122-0.96217 10.298081-10.31695v-19.31639z" style="fill:#ffffff;opacity:.07999998"/>
  <path d="m41.098666 292.54831 15.875-15.875v5.94886c-0.01384 8.99472-1.006126 9.92614-10.100231 9.92614z" style="fill:#ffffff;opacity:.07999998"/>
  <path d="m10.406998 281.70194v0.52917c-0.04577 9.35781 0.959154 10.3172 10.298081 10.3172h25.970506c9.338924 0 10.055122-0.96243 10.298081-10.3172v-0.52917c-0.242959 9.35477-0.959157 10.3172-10.298081 10.3172h-25.970506c-9.338927 0-10.343852-0.95939-10.298081-10.3172z" style="opacity:.2"/>
  <path d="m20.705079 233.28164c-9.338927 0-10.343852 0.95939-10.298081 10.3172v0.52916c-0.04577-9.35781 0.959154-10.3172 10.298081-10.3172h25.970506c9.338927 0 10.298081 0.95928 10.298081 10.3172v-0.52916c0-9.35793-0.959154-10.3172-10.298081-10.3172z" style="fill:#ffffff;opacity:.4"/>
 </g>
</svg>
