<?xml version="1.0" encoding="UTF-8" standalone="no"?>
<svg
   xmlns:dc="http://purl.org/dc/elements/1.1/"
   xmlns:cc="http://creativecommons.org/ns#"
   xmlns:rdf="http://www.w3.org/1999/02/22-rdf-syntax-ns#"
   xmlns:svg="http://www.w3.org/2000/svg"
   xmlns="http://www.w3.org/2000/svg"
   xmlns:xlink="http://www.w3.org/1999/xlink"
   xmlns:sodipodi="http://sodipodi.sourceforge.net/DTD/sodipodi-0.dtd"
   xmlns:inkscape="http://www.inkscape.org/namespaces/inkscape"
   width="256"
   height="256"
   version="1.1"
   viewBox="0 0 67.73 67.73"
   id="svg46"
   sodipodi:docname="audio-x-generic.svg"
   inkscape:version="0.92.3 (2405546, 2018-03-11)">
  <metadata
     id="metadata50">
    <rdf:RDF>
      <cc:Work
         rdf:about="">
        <dc:format>image/svg+xml</dc:format>
        <dc:type
           rdf:resource="http://purl.org/dc/dcmitype/StillImage" />
      </cc:Work>
    </rdf:RDF>
  </metadata>
  <sodipodi:namedview
     pagecolor="#ffffff"
     bordercolor="#666666"
     borderopacity="1"
     objecttolerance="10"
     gridtolerance="10"
     guidetolerance="10"
     inkscape:pageopacity="0"
     inkscape:pageshadow="2"
     inkscape:window-width="1920"
     inkscape:window-height="1009"
     id="namedview48"
     showgrid="false"
     inkscape:zoom="0.921875"
     inkscape:cx="128"
     inkscape:cy="128"
     inkscape:window-x="0"
     inkscape:window-y="34"
     inkscape:window-maximized="1"
     inkscape:current-layer="svg46" />
  <defs
     id="defs24">
    <linearGradient
       id="linearGradient934"
       x1="592"
       x2="592"
       y1="204"
       y2="-4"
       gradientTransform="matrix(.20010221 0 0 .20010221 -85.853024 242.58242)"
       gradientUnits="userSpaceOnUse">
      <stop
         style="stop-color:#e72662"
         offset="0"
         id="stop2" />
      <stop
         style="stop-color:#ec3c50"
         offset=".483"
         id="stop4" />
      <stop
         style="stop-color:#ff7b66"
         offset="1"
         id="stop6" />
    </linearGradient>
    <linearGradient
       id="linearGradient4226"
       x1="529.655"
       x2="-35.31"
       y1="401.584"
       y2="119.093"
       gradientTransform="matrix(0 -.11988932 .11988589 0 .36278065 292.5483)"
       gradientUnits="userSpaceOnUse">
      <stop
         style="stop-color:#f2f2f2"
         offset="0"
         id="stop9" />
      <stop
         style="stop-color:#f9f9f9"
         offset="1"
         id="stop11" />
    </linearGradient>
    <linearGradient
       id="linearGradient4358"
       x1="88"
       x2="488"
       y1="88"
       y2="488"
       gradientUnits="userSpaceOnUse">
      <stop
         style="stop-color:#000000;stop-opacity:.58823532"
         offset="0"
         id="stop14" />
      <stop
         style="stop-color:#000000;stop-opacity:0"
         offset=".88"
         id="stop16" />
      <stop
         style="stop-color:#000000"
         offset="1"
         id="stop18" />
    </linearGradient>
    <filter
       id="filter4346"
       x="-.01"
       y="-.01"
       width="1.026"
       height="1.022"
       style="color-interpolation-filters:sRGB">
      <feGaussianBlur
         stdDeviation="2.12"
         id="feGaussianBlur21" />
    </filter>
    <radialGradient
       inkscape:collect="always"
       xlink:href="#linearGradient36369"
       id="radialGradient36375"
       gradientUnits="userSpaceOnUse"
       gradientTransform="matrix(0.55101149,0.00882094,-0.00754918,0.4715702,-104.57713,-1232.7767)"
       cx="312.65726"
       cy="2706.5786"
       fx="312.65726"
       fy="2706.5786"
       r="14.806045" />
    <linearGradient
       inkscape:collect="always"
       id="linearGradient36369">
      <stop
         style="stop-color:#8ff0a4;stop-opacity:1;"
         offset="0"
         id="stop36365" />
      <stop
         style="stop-color:#8ff0a4;stop-opacity:0;"
         offset="1"
         id="stop36367" />
    </linearGradient>
    <radialGradient
       inkscape:collect="always"
       xlink:href="#linearGradient36369"
       id="radialGradient36371"
       cx="312.65726"
       cy="2706.5786"
       fx="312.65726"
       fy="2706.5786"
       r="14.806045"
       gradientTransform="matrix(0.55101149,0.00882094,-0.00754918,0.4715702,-133.04746,-1232.7767)"
       gradientUnits="userSpaceOnUse" />
    <filter
       inkscape:collect="always"
       style="color-interpolation-filters:sRGB"
       id="filter1001"
       x="-0.011575758"
       width="1.0231515"
       y="-0.012456522"
       height="1.024913">
      <feGaussianBlur
         inkscape:collect="always"
         stdDeviation="1.91"
         id="feGaussianBlur1003" />
    </filter>
  </defs>
  <path
     style="display:inline;opacity:0.4;vector-effect:none;fill:#000000;fill-opacity:1;stroke:none;stroke-width:6.51673317;stroke-linecap:butt;stroke-linejoin:miter;stroke-miterlimit:4;stroke-dasharray:none;stroke-dashoffset:0;stroke-opacity:1;marker:none;marker-start:none;marker-mid:none;marker-end:none;paint-order:normal;filter:url(#filter1001);enable-background:new"
     d="m 132.584,36.584 v 180.56836 c -13.2209,-8.18061 -28.4528,-12.53152 -44,-12.56836 -46.3919,0 -83.9999997,37.60808 -83.9999997,84 0,46.3919 37.6080997,84 83.9999997,84 44.7959,-0.056 81.6657,-35.2549 83.7988,-80 h 0.2012 v -4 -204 h 187.8887 v 132.57422 c -13.2232,-8.18441 -28.4587,-12.53743 -44.0098,-12.57422 -46.3919,0 -84,37.60808 -84,84 0,46.3919 37.6081,84 84,84 44.7959,-0.056 81.6657,-35.2549 83.7988,-80 h 0.3223 V 4.5840002 h -236 c -16,0 -32,15.9999998 -32,31.9999998 z"
     id="path18891-3"
     inkscape:connector-curvature="0"
     sodipodi:nodetypes="cccsccccccccscccccc"
     transform="matrix(0.13059783,0,0,0.13059783,7.4079688,11.858424)" />
  <g
     transform="matrix(0.13059783,0,0,0.13059783,-144.53164,-56.106776)"
     id="g599"
     style="display:inline;stroke-width:0.25;enable-background:new">
    <path
       style="display:inline;opacity:1;vector-effect:none;fill:#33d17a;fill-opacity:1;stroke:none;stroke-width:6.51673317;stroke-linecap:butt;stroke-linejoin:miter;stroke-miterlimit:4;stroke-dasharray:none;stroke-dashoffset:0;stroke-opacity:1;marker:none;marker-start:none;marker-mid:none;marker-end:none;paint-order:normal;enable-background:new"
       d="m 1296,768 v 180.56836 c -13.2209,-8.18061 -28.4528,-12.53152 -44,-12.56836 -46.3919,0 -84,37.60808 -84,84 0,46.3919 37.6081,84 84,84 44.7959,-0.056 81.6657,-35.2549 83.7988,-80 H 1336 v -4 -204 h 187.8887 V 948.57422 C 1510.6655,940.38981 1495.43,936.03679 1479.8789,936 c -46.3919,0 -84,37.60808 -84,84 0,46.3919 37.6081,84 84,84 44.7959,-0.056 81.6657,-35.2549 83.7988,-80 H 1564 V 736 h -236 c -16,0 -32,16 -32,32 z"
       transform="translate(0,-212)"
       id="path18891"
       inkscape:connector-curvature="0"
       sodipodi:nodetypes="cccsccccccccscccccc" />
    <path
       style="display:inline;opacity:1;vector-effect:none;fill:#26a269;fill-opacity:1;stroke:none;stroke-width:6.51673317;stroke-linecap:butt;stroke-linejoin:miter;stroke-miterlimit:4;stroke-dasharray:none;stroke-dashoffset:0;stroke-opacity:1;marker:none;marker-start:none;marker-mid:none;marker-end:none;paint-order:normal;enable-background:new"
       d="m 1336,816 v 8 c 0,-4.88886 4.0236,-8 8.25,-8 h 179.6387 v -8 H 1344 c -4.1543,0 -8,3.93318 -8,8 z m -167.9023,200 c -0.062,1.3259 -0.098,2.6587 -0.098,4 0,46.3919 37.6081,84 84,84 44.7959,-0.056 81.6657,-35.2549 83.7988,-80 H 1336 v -4 -4 h -0.2012 c -2.1331,44.7451 -39.0029,79.944 -83.7988,80 -45.0506,0 -81.8139,-35.4661 -83.9023,-80 z m 227.8789,0 c -0.062,1.3259 -0.098,2.6587 -0.098,4 0,46.3919 37.6081,84 84,84 44.7959,-0.056 81.6657,-35.2549 83.7988,-80 H 1564 v -8 h -0.3223 c -2.1331,44.7451 -39.0029,79.944 -83.7988,80 -45.0506,0 -81.8139,-35.4661 -83.9023,-80 z"
       transform="translate(0,-212)"
       id="path23900"
       inkscape:connector-curvature="0"
       sodipodi:nodetypes="ccccccccscccccccccsccccccc" />
  </g>
  <ellipse
     style="display:inline;opacity:1;vector-effect:none;fill:url(#radialGradient36371);fill-opacity:1;stroke:none;stroke-width:0.26119569;stroke-linecap:butt;stroke-linejoin:miter;stroke-miterlimit:4;stroke-dasharray:none;stroke-dashoffset:0;stroke-opacity:1;marker:none;marker-start:none;marker-mid:none;marker-end:none;paint-order:normal;enable-background:new"
     id="path35820"
     cx="19.51609"
     cy="47.041275"
     rx="7.73455"
     ry="7.734549" />
  <ellipse
     ry="7.734549"
     rx="7.73455"
     cy="47.041275"
     cx="47.986416"
     id="ellipse36373"
     style="display:inline;opacity:1;vector-effect:none;fill:url(#radialGradient36375);fill-opacity:1;stroke:none;stroke-width:0.26119569;stroke-linecap:butt;stroke-linejoin:miter;stroke-miterlimit:4;stroke-dasharray:none;stroke-dashoffset:0;stroke-opacity:1;marker:none;marker-start:none;marker-mid:none;marker-end:none;paint-order:normal;enable-background:new" />
</svg>
