<svg width="256" height="256" version="1.1" viewBox="0 0 67.73 67.73" xmlns="http://www.w3.org/2000/svg" xmlns:xlink="http://www.w3.org/1999/xlink">
 <defs>
  <linearGradient id="linearGradient934" x1="592" x2="592" y1="204" y2="-4" gradientTransform="matrix(.20010221 0 0 .20010221 -85.852898 238.34909)" gradientUnits="userSpaceOnUse">
   <stop style="stop-color:#e72662" offset="0"/>
   <stop style="stop-color:#ec3c50" offset=".483"/>
   <stop style="stop-color:#ff7b66" offset="1"/>
  </linearGradient>
  <linearGradient id="linearGradient4226" x1="529.655" x2="-35.31" y1="401.584" y2="119.093" gradientTransform="matrix(0 -.11988932 .11988589 0 .36278005 292.5483)" gradientUnits="userSpaceOnUse">
   <stop style="stop-color:#f2f2f2" offset="0"/>
   <stop style="stop-color:#f9f9f9" offset="1"/>
  </linearGradient>
  <linearGradient id="linearGradient4358" x1="88" x2="488" y1="88" y2="488" gradientUnits="userSpaceOnUse">
   <stop style="stop-color:#000000;stop-opacity:.58823532" offset="0"/>
   <stop style="stop-color:#000000;stop-opacity:0" offset=".88"/>
   <stop style="stop-color:#000000" offset="1"/>
  </linearGradient>
  <filter id="filter4346" x="-.01" y="-.01" width="1.026" height="1.022" style="color-interpolation-filters:sRGB">
   <feGaussianBlur stdDeviation="2.12"/>
  </filter>
 </defs>
 <g transform="translate(0,-229.26665)">
  <path d="m20.705011 233.28164c-9.338925 0-10.343783 0.95922-10.298013 10.31704v38.63259c-0.04577 9.35781 0.959088 10.31704 10.298013 10.31704h25.970643c9.338924 0 10.298012-0.95912 10.298012-10.31704v-38.63259c0-9.35793-0.959088-10.31704-10.298012-10.31704z" style="fill:none;opacity:.2;stroke-width:1.0583333;stroke:#000000"/>
  <path transform="matrix(.13229167 0 0 .13229167 -4.4096684 223.75664)" d="m189.84323 74c-70.59344 0-78.18921 7.250835-77.84323 77.98706v292.02588c-0.34598 70.73623 7.24979 77.98706 77.84323 77.98706h196.31354c70.59344 0 76.00668-7.27384 77.84323-77.98706v-292.02588c0-70.737067-7.24979-77.98706-77.84323-77.98706z" style="filter:url(#filter4346);opacity:.1"/>
  <path transform="matrix(.13229167 0 0 .13229167 -4.4096684 223.75664)" d="m189.84323 74c-70.59344 0-78.18921 7.250835-77.84323 77.98706v292.02588c-0.34598 70.73623 7.24979 77.98706 77.84323 77.98706h196.31354c70.59344 0 77.84323-7.24999 77.84323-77.98706v-292.02588c0-70.737067-7.24979-77.98706-77.84323-77.98706z" style="fill:url(#linearGradient4358);filter:url(#filter4380);opacity:.3"/>
  <path d="m20.705011 233.28164c-9.338925 0-10.343783 0.95922-10.298013 10.31704v38.63259c-0.04577 9.35781 0.959088 10.31704 10.298013 10.31704h25.970643c9.338924 0 10.298012-0.95912 10.298012-10.31704v-38.63259c0-9.35793-0.959088-10.31704-10.298012-10.31704z" style="fill:url(#linearGradient4226)"/>
  <path d="m20.705079 233.28164c-9.338926 0-10.343851 0.95939-10.298081 10.3172v0.52916c-0.04577-9.35781 0.959155-10.3172 10.298081-10.3172h25.970506c9.338927 0 10.298081 0.95928 10.298081 10.3172v-0.52916c0-9.35793-0.959154-10.3172-10.298081-10.3172z" style="fill:#ffffff;opacity:.6"/>
  <path d="m42.881614 243.86518c-0.375907-4e-3 -0.875679 0.0545-1.540632 0.15438l-11.06464 1.69188c-2.671424 0.56884-2.662254 0.74578-2.671286 3.00271v18.31247c-0.111417-0.078-0.221311-0.15651-0.3365-0.23371v8e-4c-0.848731-0.56877-1.753307-0.97354-2.968313-0.97355-1.521881 0-2.429462 0.58275-2.978867 1.3503-0.549402 0.76756-0.731623 1.73503-0.731623 2.48291 0 0.90184 0.307917 1.86434 0.975889 2.59781 0.667975 0.73348 1.694947 1.2471 3.171542 1.24712 1.667412 0 2.84031-0.4656 3.50335-1.37492 0.522047-0.71594 0.810729-1.67242 0.91375-2.85224v-3e-3c0.01442-0.14313 0.0249-0.29016 0.034-0.44163 0.014-0.23321 0.01095-0.66948 0.01095-0.66948v-14.02137c0-2.00307-9.8e-5 -2.12265 2.672067-2.57945l7.868478-1.23422c2.676978-0.35025 2.677539-0.10668 2.677539 1.39765v12.8679c-0.108424-0.076-0.215485-0.15239-0.327512-0.22746v7.9e-4c-0.848731-0.56876-1.752912-0.97354-2.967921-0.97354-1.521889 0-2.429849 0.58274-2.979256 1.3503-0.549402 0.76755-0.731623 1.73502-0.731623 2.4829 0 0.90184 0.308305 1.86434 0.976278 2.59782 0.667975 0.73347 1.694936 1.24749 3.171542 1.24751 1.667412 0 2.84031-0.46599 3.503353-1.37531 0.522047-0.71594 0.810337-1.67203 0.913357-2.85185v-4e-3c0.01442-0.14314 0.0249-0.28977 0.034-0.44124 0.014-0.23322 0.01132-0.66988 0.01132-0.66988v-19.50706c0-1.75682-0.01154-2.33863-1.139253-2.3512z" style="fill:url(#linearGradient934);opacity:.8"/>
  <path d="m33.690332 233.28164v59.26667h12.985253c9.338924 0 10.055122-0.96217 10.298081-10.31695v-38.63278c0-9.35792-0.959157-10.31694-10.298081-10.31694z" style="fill:#ffffff;opacity:.1"/>
  <path d="m10.406998 262.91497v19.31639c-0.04577 9.35782 0.959156 10.31695 10.298081 10.31695h25.970506c9.338924 0 10.055122-0.96217 10.298081-10.31695v-19.31639z" style="fill:#ffffff;opacity:.2"/>
  <path d="m41.098666 292.54831 15.875-15.875v5.94886c-0.01384 8.99472-1.006126 9.92614-10.100231 9.92614z" style="fill:#ffffff;opacity:.4"/>
  <g transform="matrix(.26458333 0 0 .26458333 -6.5263354 217.26311)" style="enable-background:new">
   <path d="m133.29808 252.08699q-1.34734-3.46459-2.88716-7.89156-1.4917-4.4751-2.7428-9.28703-1.2511 4.81193-2.7428 9.28703-1.4917 4.42697-2.83904 7.89156h-3.89766q-2.21349-4.95629-4.33074-11.30803-2.11725-6.35175-3.9939-13.714h4.81193q0.48119 2.2616 1.15486 4.90817 0.67367 2.64656 1.39546 5.29312 0.76991 2.64656 1.58794 5.10064 0.81803 2.45409 1.53982 4.28262 0.81802-2.26161 1.58793-4.76381 0.81803-2.55032 1.53982-5.10064 0.72179-2.59845 1.34734-5.05253 0.67367-2.5022 1.15486-4.66757h3.70519q0.43307 2.16537 1.05862 4.66757 0.62555 2.45408 1.34734 5.05253 0.72179 2.55032 1.4917 5.10064 0.81803 2.5022 1.63606 4.76381 0.72179-1.82853 1.4917-4.28262 0.81802-2.45408 1.58793-5.10064t1.44358-5.29312q0.67367-2.64657 1.15486-4.90817h4.61946q-1.87666 7.36225-3.9939 13.714-2.11725 6.35174-4.33074 11.30803z" style="fill:#888888"/>
   <path d="m158.7216 248.863q1.58794 0 2.79092-0.0481 1.2511-0.0962 2.06913-0.28872v-7.45849q-0.48119-0.24059-1.58793-0.38495-1.05863-0.19248-2.59845-0.19248-1.0105 0-2.16536 0.14436-1.10675 0.14436-2.06913 0.62555-0.91427 0.43307-1.53982 1.2511-0.62555 0.76991-0.62555 2.06913 0 2.40597 1.53982 3.36835 1.53981 0.91427 4.18637 0.91427zm-0.38495-22.42359q2.69468 0 4.52321 0.72179 1.87666 0.67367 2.9834 1.97289 1.15486 1.2511 1.63606 3.03151 0.48119 1.7323 0.48119 3.84955v15.63877q-0.57743 0.0962-1.63606 0.28871-1.0105 0.14436-2.30972 0.28872t-2.83904 0.24059q-1.4917 0.14436-2.9834 0.14436-2.11725 0-3.89766-0.43307-1.78042-0.43307-3.07964-1.34734-1.29922-0.96239-2.02101-2.5022-0.72179-1.53982-0.72179-3.70519 0-2.06913 0.81803-3.56083 0.86615-1.4917 2.30973-2.40596 1.44358-0.91427 3.36835-1.34734 1.92477-0.43308 4.04202-0.43308 0.67367 0 1.39546 0.0962 0.72179 0.0481 1.34734 0.19248 0.67367 0.0962 1.15486 0.19248 0.4812 0.0962 0.67367 0.14435v-1.2511q0-1.10674-0.24059-2.16537-0.2406-1.10674-0.86615-1.92477-0.62555-0.86614-1.7323-1.34734-1.05862-0.52931-2.79091-0.52931-2.21349 0-3.89767 0.33684-1.63605 0.28871-2.45408 0.62555l-0.52931-3.70519q0.86614-0.38495 2.88715-0.72179 2.02101-0.38495 4.37886-0.38495z" style="fill:#888888"/>
   <path d="m194.13064 227.06496q-1.87666 7.02541-4.42698 13.4734-2.5022 6.44799-4.86005 11.54863h-4.04202q-2.35784-5.10064-4.90817-11.54863-2.5022-6.44799-4.37885-13.4734h4.81193q0.57743 2.35784 1.34734 5.05252 0.81803 2.64656 1.68417 5.29313 0.91427 2.59844 1.82854 5.05252 0.91426 2.45409 1.73229 4.37886 0.81803-1.92477 1.7323-4.37886 0.91426-2.45408 1.78041-5.05252 0.91427-2.64657 1.68417-5.29313 0.81803-2.69468 1.39546-5.05252z" style="fill:#888888"/>
  </g>
 </g>
</svg>
