<svg width="256" height="256" version="1.1" viewBox="0 0 67.73 67.73" xmlns="http://www.w3.org/2000/svg" xmlns:xlink="http://www.w3.org/1999/xlink">
 <defs>
  <linearGradient id="linearGradient11804">
   <stop style="stop-color:#d40000;stop-opacity:0" offset="0"/>
   <stop style="stop-color:#aa0000" offset=".493"/>
   <stop style="stop-color:#aa0000;stop-opacity:0" offset="1"/>
  </linearGradient>
  <linearGradient id="linearGradient11704">
   <stop style="stop-color:#ff6a1e" offset="0"/>
   <stop style="stop-color:#d45500;stop-opacity:0" offset="1"/>
  </linearGradient>
  <linearGradient id="linearGradient9569">
   <stop style="stop-color:#b42c00" offset="0"/>
   <stop style="stop-color:#ffc600;stop-opacity:0" offset="1"/>
  </linearGradient>
  <radialGradient id="radialGradient21808-1-7" cx="-1535.213" cy="-848.917" r="10" gradientTransform="matrix(-.73106993 0 0 -1.0641484 -1378.6416 -947.0106)" gradientUnits="userSpaceOnUse">
   <stop style="stop-color:#fffb88" offset="0"/>
   <stop style="stop-color:#b97f00;stop-opacity:0" offset="1"/>
  </radialGradient>
  <linearGradient id="linearGradient21806-5" x1="1171.25" x2="1171.25" y1="-1513.388" y2="-1575.638" gradientTransform="matrix(.23518339 0 0 .23518339 -227.58699 626.98834)" gradientUnits="userSpaceOnUse">
   <stop style="stop-color:#ecbb10" offset="0"/>
   <stop style="stop-color:#ffd251" offset="1"/>
  </linearGradient>
  <linearGradient id="linearGradient21804-9" x1="-17" x2="144" y1="-1194.638" y2="-1194.638" gradientTransform="matrix(.10517542 0 0 .23518339 23.201153 554.89296)" gradientUnits="userSpaceOnUse" xlink:href="#linearGradient11804"/>
  <linearGradient id="linearGradient21800-0" x1="-17" x2="144" y1="-1194.638" y2="-1194.638" gradientTransform="matrix(.04090145 0 0 .23518339 38.160833 551.36521)" gradientUnits="userSpaceOnUse" xlink:href="#linearGradient11804"/>
  <linearGradient id="linearGradient21798-3-9" x1="1162" x2="1162" y1="889.006" y2="900.717" gradientTransform="matrix(.25907332 0 0 .24098301 -270.69296 46.880376)" gradientUnits="userSpaceOnUse" xlink:href="#linearGradient11704"/>
  <radialGradient id="radialGradient21796-5-0" cx="-1535.455" cy="-853" r="10" gradientTransform="matrix(-.60922611 0 0 -.58795848 -660.88758 -531.64411)" gradientUnits="userSpaceOnUse">
   <stop style="stop-color:#ffffff" offset="0"/>
   <stop style="stop-color:#ffd5d5;stop-opacity:0" offset="1"/>
  </radialGradient>
  <linearGradient id="linearGradient4819" x1="1155.005" x2="1165.548" y1="899.985" y2="893.35" gradientTransform="matrix(-.35023041 0 0 .32131224 443.00116 -15.243316)" gradientUnits="userSpaceOnUse" xlink:href="#linearGradient11704"/>
  <linearGradient id="linearGradient3402" x1="1155.005" x2="1165.548" y1="899.985" y2="893.35" gradientTransform="matrix(.35023041 0 0 .32131224 -382.33876 -15.243316)" gradientUnits="userSpaceOnUse" xlink:href="#linearGradient11704"/>
  <linearGradient id="linearGradient21790-1-6" x1="1162.175" x2="1162.175" y1="900.717" y2="887.071" gradientTransform="matrix(1.0506888 0 0 .96393676 -1190.5498 -594.06494)" gradientUnits="userSpaceOnUse">
   <stop style="stop-color:#edc33e" offset="0"/>
   <stop style="stop-color:#fae6a5" offset="1"/>
  </linearGradient>
  <linearGradient id="linearGradient21788-7-7" x1="1162.591" x2="1162.591" y1="900.186" y2="887.434" gradientTransform="matrix(1.0938662,0,0,1.0137956,-1240.7238,-638.73801)" gradientUnits="userSpaceOnUse">
   <stop style="stop-color:#f8ca35" offset="0"/>
   <stop style="stop-color:#fef0c4" offset="1"/>
  </linearGradient>
  <linearGradient id="linearGradient21786-0" x1="1065.75" x2="1065.75" y1="-1561.392" y2="-1495.638" gradientTransform="matrix(.23518339 0 0 .23518339 -227.64545 626.62388)" gradientUnits="userSpaceOnUse">
   <stop style="stop-color:#e2b006" offset="0"/>
   <stop style="stop-color:#bc8611" offset="1"/>
  </linearGradient>
  <linearGradient id="linearGradient21784-7" x1="529.25" x2="535" y1="-1568.638" y2="-1574.638" gradientTransform="matrix(.58795848 0 0 1.1759217 -277.32828 2115.236)" gradientUnits="userSpaceOnUse" xlink:href="#linearGradient9569"/>
  <linearGradient id="linearGradient21782-2" x1="529.25" x2="535" y1="-1568.638" y2="-1574.638" gradientTransform="matrix(.58795848 0 0 1.1759217 -358.84281 2115.236)" gradientUnits="userSpaceOnUse" xlink:href="#linearGradient9569"/>
  <linearGradient id="linearGradient21780-2" x1="1171" x2="1138" y1="-1562.104" y2="-1504.947" gradientTransform="matrix(.23518339 0 0 .23518339 -227.58699 626.85907)" gradientUnits="userSpaceOnUse">
   <stop style="stop-color:#e4bc33" offset="0"/>
   <stop style="stop-color:#cd9215" offset="1"/>
  </linearGradient>
  <linearGradient id="linearGradient21778-7" x1="1171.25" x2="1171.25" y1="-1513.388" y2="-1575.638" gradientTransform="matrix(.23518339 0 0 .23518339 -227.58699 626.85907)" gradientUnits="userSpaceOnUse">
   <stop style="stop-color:#d7ae1e" offset="0"/>
   <stop style="stop-color:#ffd251" offset="1"/>
  </linearGradient>
  <linearGradient id="linearGradient21776-2" x1="1079.546" x2="1079.546" y1="-2650.276" y2="-2617.534" gradientTransform="matrix(.47036677 0 0 .47760336 -459.71301 1521.6049)" gradientUnits="userSpaceOnUse">
   <stop style="stop-color:#a88200" offset="0"/>
   <stop style="stop-color:#724a00" offset="1"/>
  </linearGradient>
  <radialGradient id="radialGradient21774-5-1" cx="-2578.688" cy="-1363.409" r="10" gradientTransform="matrix(.5029873 -6.0378072e-6 6.2442835e-6 .52084742 1327.8739 965.70424)" gradientUnits="userSpaceOnUse">
   <stop style="stop-color:#ffffff" offset="0"/>
   <stop style="stop-color:#ffbcd5;stop-opacity:0" offset="1"/>
  </radialGradient>
  <linearGradient id="linearGradient21772-7-7" x1="1183.469" x2="1168" y1="671.49" y2="686.958" gradientTransform="matrix(.51312783 0 0 .51312783 -579.79965 -87.265891)" gradientUnits="userSpaceOnUse">
   <stop style="stop-color:#f7c3a1" offset="0"/>
   <stop style="stop-color:#f1b38e" offset=".472"/>
   <stop style="stop-color:#f17571" offset="1"/>
  </linearGradient>
  <linearGradient id="linearGradient21768-9-0" x1="1180.158" x2="1180.158" y1="688.526" y2="658.132" gradientTransform="matrix(.54163441 0 0 .54163441 -613.56729 -106.52272)" gradientUnits="userSpaceOnUse">
   <stop style="stop-color:#f6b7a8" offset="0"/>
   <stop style="stop-color:#fee9d6" offset="1"/>
  </linearGradient>
  <linearGradient id="linearGradient1144-3" x1="208" x2="96" y1="28" y2="284" gradientTransform="matrix(.26458333 0 0 .26458333 -6.5263354 221.90455)" gradientUnits="userSpaceOnUse">
   <stop style="stop-color:#f2f2f2" offset="0"/>
   <stop style="stop-color:#ffffff" offset="1"/>
  </linearGradient>
  <linearGradient id="linearGradient4226" x1="529.655" x2="-35.31" y1="401.584" y2="119.093" gradientTransform="matrix(0 -.11988932 -.11988589 0 67.016455 292.81288)" gradientUnits="userSpaceOnUse">
   <stop style="stop-color:#d98027" offset="0"/>
   <stop style="stop-color:#be5e0f" offset="1"/>
  </linearGradient>
  <linearGradient id="linearGradient4358" x1="88" x2="488" y1="88" y2="488" gradientUnits="userSpaceOnUse">
   <stop style="stop-color:#000000;stop-opacity:.58823532" offset="0"/>
   <stop style="stop-color:#000000;stop-opacity:0" offset=".88"/>
   <stop style="stop-color:#000000" offset="1"/>
  </linearGradient>
  <filter id="filter4346" x="-.01" y="-.01" width="1.026" height="1.022" style="color-interpolation-filters:sRGB">
   <feGaussianBlur stdDeviation="2.12"/>
  </filter>
  <linearGradient id="linearGradient2094" x1="529.25" x2="535.438" y1="-1568.638" y2="-1574.826" gradientTransform="matrix(.15678901 0 0 .15678901 -62.938762 521.52537)" gradientUnits="userSpaceOnUse">
   <stop style="stop-color:#008000" offset="0"/>
   <stop style="stop-color:#00ff00;stop-opacity:0" offset="1"/>
  </linearGradient>
 </defs>
 <g transform="translate(0,-229.26665)">
  <path transform="matrix(.13229167 0 0 .13229167 -4.4096684 224.02122)" d="m189.84323 74c-70.59344 0-78.18921 7.250835-77.84323 77.98706v292.02588c-0.34598 70.73623 7.24979 77.98706 77.84323 77.98706h196.31354c70.59344 0 76.00668-7.27384 77.84323-77.98706v-292.02588c0-70.737067-7.24979-77.98706-77.84323-77.98706z" style="filter:url(#filter4346);opacity:.1"/>
  <path transform="matrix(.13229167 0 0 .13229167 -4.4096684 224.02122)" d="m189.84323 74c-70.59344 0-78.18921 7.250835-77.84323 77.98706v292.02588c-0.34598 70.73623 7.24979 77.98706 77.84323 77.98706h196.31354c70.59344 0 77.84323-7.24999 77.84323-77.98706v-292.02588c0-70.737067-7.24979-77.98706-77.84323-77.98706z" style="fill:url(#linearGradient4358);filter:url(#filter4380);opacity:.3"/>
  <path d="m46.674225 233.54622c9.338927 0 10.343782 0.95922 10.298012 10.31704v38.63259c0.04577 9.35781-0.959085 10.31704-10.298012 10.31704h-25.970643c-9.338923 0-10.298011-0.95912-10.298011-10.31704v-38.63259c0-9.35793 0.959088-10.31704 10.298011-10.31704z" style="fill:url(#linearGradient4226)"/>
  <path d="m20.705079 290.69622c-2.298499 0-4.033338-0.07-5.204851-0.26665s-1.676543-0.47317-1.968356-0.76429c-0.291812-0.29113-0.566094-0.78898-0.76016-1.95648-0.194066-1.16749-0.259302-2.90138-0.248047-5.20278v-38.6526c-0.01126-2.30139 0.05398-4.03529 0.248047-5.20278 0.194066-1.1675 0.468348-1.66535 0.76016-1.95647 0.291813-0.29113 0.796843-0.56765 1.968356-0.7643s2.906352-0.26665 5.204851-0.26665h22.510254l11.641666 11.64134v35.19113c0 2.30333-0.0703 4.0395-0.266649 5.21002-0.196356 1.17052-0.471755 1.67223-0.761712 1.96267-0.289957 0.29045-0.788329 0.56479-1.955435 0.7612-1.167106 0.1964-2.899114 0.26665-5.197618 0.26665z" style="fill:url(#linearGradient1144-3)"/>
  <path d="m36.935648 259.82171a8.9369678 8.9369678 0 1 1-17.873935 0 8.9369678 8.9369678 0 1 1 17.873935 0z" style="fill:none;opacity:.15;stroke-width:.47036672;stroke:#000000"/>
  <path d="m36.935648 259.35134a8.9369678 8.9369678 0 1 1-17.873935 0 8.9369678 8.9369678 0 1 1 17.873935 0z" style="fill:url(#linearGradient21768-9-0);stroke-width:.47036672;stroke:url(#linearGradient21770-9-1)"/>
  <path d="m36.466881 259.35197a8.4666095 8.4666095 0 1 1-16.933219 0 8.4666095 8.4666095 0 1 1 16.933219 0z" style="fill:url(#linearGradient21772-7-7)"/>
  <path d="m30.315003 259.8236a0.24343977 0.22603886 0 0 0-0.03589 0.0333 0.24343977 0.22603886 0 0 0-0.143156 0.0997l-4.688993 7.51126-4.653362 7.5445a0.24343977 0.22603886 0 0 0-0.0357 0.0332 0.24343977 0.22603886 0 0 0 0 0.0665 0.24343977 0.22603886 0 0 0 0 0.0665 0.24343977 0.22603886 0 0 0 0.0357 0.0665 0.24343977 0.22603886 0 0 0 0.03587 0.0332 0.24343977 0.22603886 0 0 0 0.03586 0.0332 0.24343977 0.22603886 0 0 0 0.143179 0.0333h18.684429a0.24343977 0.22603886 0 0 0 0.143155-0.0333 0.24343977 0.22603886 0 0 0 0.03589-0.0332 0.24343977 0.22603886 0 0 0 0.03582-0.0332 0.24343977 0.22603886 0 0 0 0.03577-0.0665 0.24343977 0.22603886 0 0 0 0-0.0665 0.24343977 0.22603886 0 0 0 0-0.0665 0.24343977 0.22603886 0 0 0-0.03577-0.0332l-4.653362-7.5445-4.688946-7.51126a0.24343977 0.22603886 0 0 0-0.143203-0.0997 0.24343977 0.22603886 0 0 0-0.07159-0.0333 0.24343977 0.22603886 0 0 0-0.0357 0zm0.0357 0.69796 4.474245 7.1789 4.474318 7.17888h-17.897081l4.474318-7.17888z" style="opacity:.15"/>
  <path d="m35.995118 255.59064a5.1740345 5.1740345 0 1 1-10.348069 0 5.1740345 5.1740345 0 1 1 10.348069 0z" style="fill:url(#radialGradient21774-5-1);opacity:.25"/>
  <rect x="33" y="256.3" width="15.522" height="15.522" rx=".47" ry=".47" style="opacity:.15"/>
  <rect x="33" y="255.82" width="15.522" height="15.522" rx=".47" ry=".47" style="fill:url(#linearGradient21776-2);opacity:.8"/>
  <rect x="33.47" y="256.3" width="14.581" height="14.581" style="fill:url(#linearGradient21778-7)"/>
  <rect x="33.7" y="256.53" width="14.111" height="14.111" style="fill:url(#linearGradient21780-2)"/>
  <rect transform="scale(-1,1)" x="-47.81" y="256.53" width="7.056" height="14.111" style="fill:url(#linearGradient21782-2);opacity:.35"/>
  <rect x="33.7" y="256.53" width="7.056" height="14.111" style="fill:url(#linearGradient21784-7);opacity:.5"/>
  <path d="m30.315003 259.35324a0.24343977 0.22603886 0 0 0-0.03589 0.0333 0.24343977 0.22603886 0 0 0-0.143156 0.0997l-4.688993 7.51126-4.653362 7.5445a0.24343977 0.22603886 0 0 0-0.0357 0.0332 0.24343977 0.22603886 0 0 0 0 0.0665 0.24343977 0.22603886 0 0 0 0 0.0665 0.24343977 0.22603886 0 0 0 0.0357 0.0665 0.24343977 0.22603886 0 0 0 0.03587 0.0332 0.24343977 0.22603886 0 0 0 0.03586 0.0332 0.24343977 0.22603886 0 0 0 0.143179 0.0332h18.684429a0.24343977 0.22603886 0 0 0 0.143155-0.0332 0.24343977 0.22603886 0 0 0 0.03589-0.0332 0.24343977 0.22603886 0 0 0 0.03582-0.0332 0.24343977 0.22603886 0 0 0 0.03577-0.0665 0.24343977 0.22603886 0 0 0 0-0.0665 0.24343977 0.22603886 0 0 0 0-0.0665 0.24343977 0.22603886 0 0 0-0.03577-0.0332l-4.653362-7.5445-4.688946-7.51126a0.24343977 0.22603886 0 0 0-0.143203-0.0997 0.24343977 0.22603886 0 0 0-0.07159-0.0333 0.24343977 0.22603886 0 0 0-0.0357 0zm0.0357 0.69795 4.474245 7.1789 4.474318 7.17888h-17.897081l4.474318-7.17888z" style="fill:url(#linearGradient21786-0)"/>
  <path d="m39.285714 274.40495h-17.873991l4.468551-7.1731 4.468445-7.17309 4.468442 7.17309z" style="fill:url(#linearGradient21788-7-7)"/>
  <path d="m38.934919 274.16929h-17.168466l4.292169-6.82033 4.292062-6.82032 4.292067 6.82032z" style="fill:url(#linearGradient21790-1-6)"/>
  <path d="m27.490404 274.16808h-5.722837l1.430726-2.27344 1.430692-2.27344 1.430692 2.27344z" style="fill:url(#linearGradient3402);opacity:.35"/>
  <path d="m33.172013 274.16808h5.722838l-1.430727-2.27344-1.430692-2.27344-1.430692 2.27344z" style="fill:url(#linearGradient4819);opacity:.35"/>
  <rect transform="rotate(90)" x="268.52" y="-35.99" width="5.88" height="11.759" style="fill:url(#radialGradient21796-5-0);opacity:.5"/>
  <path d="m32.466904 263.93787h-4.23331l1.058339-1.70507 1.058315-1.70507 1.058315 1.70507z" style="fill:url(#linearGradient21798-3-9);opacity:.25"/>
  <rect x="19.65" y="273.35" width="2.587" height="2.587" style="fill:#9ef290;opacity:.75;stroke-width:.23518339;stroke:#18a303"/>
  <path d="m37.464691 271.11175h10.818436v-15.05174h-15.051739v8.27845z" style="fill:none"/>
  <rect x="37.47" y="270.41" width="6.585" height=".235" style="fill:url(#linearGradient21800-0);opacity:.25"/>
  <rect x="28.94" y="261" width="2.822" height=".235" style="opacity:.15"/>
  <rect x="20" y="273.7" width="1.881" height="1.881" style="fill:url(#linearGradient2094);opacity:.75"/>
  <rect x="19.53" y="276.05" width="2.822" height=".47" style="opacity:.05"/>
  <rect x="21.41" y="273.93" width="16.933" height=".235" style="fill:url(#linearGradient21804-9);opacity:.1"/>
  <path d="m33.734094 263.99013-0.205788 0.12496 4.13923 6.76152 0.205785-0.12495z" style="fill:url(#linearGradient21806-5);opacity:.5"/>
  <rect transform="matrix(0,-1,-1,0,0,0)" x="-263.35" y="-47.81" width="7.056" height="14.111" style="fill:url(#radialGradient21808-1-7);opacity:.5"/>
  <use transform="translate(9.4073364,-15.05173)" width="5033" height="1085" style="enable-background:new" xlink:href="#rect10793"/>
  <use transform="translate(9.4073364,-15.05173)" width="5033" height="1085" style="enable-background:new" xlink:href="#rect11639"/>
  <path d="m10.406999 263.17955v19.31639c-0.04577 9.35782 0.959155 10.31695 10.29808 10.31695h25.970506c9.338924 0 10.055122-0.96217 10.298081-10.31695v-19.31639z" style="fill:#ffffff;opacity:.1"/>
  <path d="m33.688972 233.54622v59.26667h12.985253c9.338924 0 10.055122-0.96217 10.298081-10.31695v-38.63278c0-9.35793-0.959157-10.31694-10.298081-10.31694z" style="fill:#ffffff;opacity:.1"/>
  <path d="m10.406999 281.96652v0.52917c-0.04577 9.35781 0.959154 10.3172 10.29808 10.3172h25.970506c9.338924 0 10.055122-0.96243 10.298081-10.3172v-0.52917c-0.242959 9.35477-0.959157 10.3172-10.298081 10.3172h-25.970506c-9.338926 0-10.343851-0.95939-10.29808-10.3172z" style="opacity:.2"/>
  <path d="m20.705079 233.54622c-9.338926 0-10.343851 0.95939-10.29808 10.3172v0.52916c-0.04577-9.35781 0.959154-10.3172 10.29808-10.3172h25.970506c9.338927 0 10.298081 0.95928 10.298081 10.3172v-0.52916c0-9.35793-0.959154-10.3172-10.298081-10.3172z" style="fill:#ffffff;opacity:.2"/>
  <rect x="38.35" y="276.05" width="2.822" height=".47" style="opacity:.05"/>
  <use transform="translate(18.814671,7.4266016e-6)" width="5033" height="1085" style="enable-background:new" xlink:href="#rect10793"/>
  <use transform="translate(18.814671,7.4266016e-6)" width="5033" height="1085" style="enable-background:new" xlink:href="#rect11639"/>
  <path d="m41.098666 292.81289 15.875-15.875v5.94886c-0.01384 8.99472-1.006126 9.92614-10.100231 9.92614z" style="fill:#ffffff;opacity:.07999998"/>
 </g>
</svg>
