<svg width="256" height="256" version="1.1" viewBox="0 0 67.73 67.73" xmlns="http://www.w3.org/2000/svg" xmlns:xlink="http://www.w3.org/1999/xlink">
 <defs>
  <clipPath id="clipPath3284">
   <path d="M 102.92162,44 C 67.624897,44 63.82701,47.625418 64,82.99353 V 156 229.00647 C 63.82701,264.37459 67.624897,268 102.92162,268 h 98.15676 C 236.3751,268 240,264.375 240,229.00647 V 156 82.99353 C 240,47.624997 236.3751,44 201.07838,44 Z" style="fill:url(#linearGradient3288)"/>
  </clipPath>
  <linearGradient id="linearGradient4226" x1="529.655" x2="-35.31" y1="401.584" y2="119.093" gradientTransform="matrix(0 -.11988932 .11988589 0 .36278045 292.5483)" gradientUnits="userSpaceOnUse">
   <stop style="stop-color:#f2f2f2" offset="0"/>
   <stop style="stop-color:#f9f9f9" offset="1"/>
  </linearGradient>
  <linearGradient id="linearGradient4358" x1="88" x2="488" y1="88" y2="488" gradientUnits="userSpaceOnUse">
   <stop style="stop-color:#000000;stop-opacity:.58823532" offset="0"/>
   <stop style="stop-color:#000000;stop-opacity:0" offset=".88"/>
   <stop style="stop-color:#000000" offset="1"/>
  </linearGradient>
  <filter id="filter4346" x="-.01" y="-.01" width="1.026" height="1.022" style="color-interpolation-filters:sRGB">
   <feGaussianBlur stdDeviation="2.12"/>
  </filter>
 </defs>
 <g transform="translate(0,-229.26665)">
  <path d="m20.705011 233.28164c-9.338925 0-10.343783 0.95922-10.298012 10.31704v38.63259c-0.04577 9.35781 0.959087 10.31704 10.298012 10.31704h25.970643c9.338924 0 10.298012-0.95912 10.298012-10.31704v-38.63259c0-9.35793-0.959088-10.31704-10.298012-10.31704z" style="fill:none;opacity:.2;stroke-width:1.0583333;stroke:#000000"/>
  <path transform="matrix(.13229167 0 0 .13229167 -4.4096684 223.75664)" d="m189.84323 74c-70.59344 0-78.18921 7.250835-77.84323 77.98706v292.02588c-0.34598 70.73623 7.24979 77.98706 77.84323 77.98706h196.31354c70.59344 0 76.00668-7.27384 77.84323-77.98706v-292.02588c0-70.737067-7.24979-77.98706-77.84323-77.98706z" style="filter:url(#filter4346);opacity:.1"/>
  <path transform="matrix(.13229167 0 0 .13229167 -4.4096684 223.75664)" d="m189.84323 74c-70.59344 0-78.18921 7.250835-77.84323 77.98706v292.02588c-0.34598 70.73623 7.24979 77.98706 77.84323 77.98706h196.31354c70.59344 0 77.84323-7.24999 77.84323-77.98706v-292.02588c0-70.737067-7.24979-77.98706-77.84323-77.98706z" style="fill:url(#linearGradient4358);filter:url(#filter4380);opacity:.3"/>
  <path d="m20.705011 233.28164c-9.338925 0-10.343783 0.95922-10.298012 10.31704v38.63259c-0.04577 9.35781 0.959087 10.31704 10.298012 10.31704h25.970643c9.338924 0 10.298012-0.95912 10.298012-10.31704v-38.63259c0-9.35793-0.959088-10.31704-10.298012-10.31704z" style="fill:url(#linearGradient4226)"/>
  <g transform="matrix(.26458333 0 0 .26458333 -6.5263354 221.63997)" clip-path="url(#clipPath3284)" style="enable-background:new">
   <path d="m96 44h2v224h-2z" style="fill:#f34f17;opacity:.1"/>
   <path d="m62 40v2h180v-2zm0 12v2h180v-2zm0 12v2h180v-2zm0 12v2h180v-2zm0 12v2h180v-2zm0 12v2h180v-2zm0 12v2h180v-2zm0 12v2h180v-2zm0 12v2h180v-2zm0 12v2h180v-2zm0 12.12109v2h180v-2zm0 12v2h180v-2zm0 11.87891v2h180v-2zm0 12v2h180v-2zm0 12v2h180v-2zm0 12v2h180v-2zm0 12v2h180v-2zm0 12v2h180v-2zm0 12v2h180v-2zm0 12v2h180v-2z" style="fill:#1463a5;opacity:.05"/>
  </g>
  <path d="m33.690332 233.28164v59.26667h12.985253c9.338924 0 10.055122-0.96217 10.298081-10.31695v-38.63278c0-9.35792-0.959157-10.31694-10.298081-10.31694z" style="fill:#ffffff;opacity:.1"/>
  <path d="m10.406999 262.91497v19.31639c-0.04577 9.35782 0.959155 10.31695 10.29808 10.31695h25.970506c9.338924 0 10.055122-0.96217 10.298081-10.31695v-19.31639z" style="fill:#ffffff;opacity:.2"/>
  <path d="m41.098666 292.54831 15.875-15.875v5.94886c-0.01384 8.99472-1.006126 9.92614-10.100231 9.92614z" style="fill:#ffffff;opacity:.4"/>
  <path d="m20.705079 233.28164c-9.338926 0-10.343851 0.95939-10.29808 10.3172v0.52916c-0.04577-9.35781 0.959154-10.3172 10.29808-10.3172h25.970506c9.338927 0 10.298081 0.95928 10.298081 10.3172v-0.52916c0-9.35793-0.959154-10.3172-10.298081-10.3172z" style="fill:#ffffff;opacity:.6"/>
  <g transform="translate(-2.0291341,-3.8133405)">
   <path d="m35.806999 252.33164v1.05833h12.7v-1.05833zm0 3.175v1.05833h12.7v-1.05833zm0 3.175v1.05833h12.7v-1.05833zm0 3.175v1.05833h12.7v-1.05833zm0 3.175v1.05833h12.7v-1.05833z" style="fill:#b3b3b3"/>
   <path d="m22.489583 267.36665v1.05833h12.7v-1.05833zm0 3.175v1.05833h12.7v-1.05833zm0 3.175v1.05833h12.7v-1.05833zm0 3.175v1.05833h12.7v-1.05833zm0 3.175v1.05833h12.7v-1.05833z" style="fill:#b3b3b3"/>
   <g transform="translate(48.392057,19.040767)" style="fill-opacity:.32128517">
    <path d="m-8.1308443 262.0643c2.712041-1.85882 3.9918805-3.71763 3.9918805-5.8507 0-1.82834-1.0055882-3.01676-2.4987343-3.01676-1.1274777 0-1.9807041 0.79228-1.9807041 1.82834 0 1.09701 0.822754 1.79787 2.0721212 1.79787 0.1218895 0 0.4266132 0 0.4875579-0.0305h0.091417c0.1523619 0 0.2133066 0.0914 0.2133066 0.27425 0 1.27984-1.0360606 2.71204-3.0777094 4.14424z" style="fill-opacity:.32128517"/>
   </g>
   <g transform="translate(53.683727,19.040767)" style="fill-opacity:.32128517">
    <path d="m-8.1308443 262.0643c2.712041-1.85882 3.9918805-3.71763 3.9918805-5.8507 0-1.82834-1.0055882-3.01676-2.4987343-3.01676-1.1274777 0-1.9807041 0.79228-1.9807041 1.82834 0 1.09701 0.822754 1.79787 2.0721212 1.79787 0.1218895 0 0.4266132 0 0.4875579-0.0305h0.091417c0.1523619 0 0.2133066 0.0914 0.2133066 0.27425 0 1.27984-1.0360606 2.71204-3.0777094 4.14424z" style="fill-opacity:.32128517"/>
   </g>
   <g transform="rotate(180 35.718751 266.74946)">
    <g transform="translate(48.392057,19.040767)" style="fill-opacity:.32128517">
     <path d="m-8.1308443 262.0643c2.712041-1.85882 3.9918805-3.71763 3.9918805-5.8507 0-1.82834-1.0055882-3.01676-2.4987343-3.01676-1.1274777 0-1.9807041 0.79228-1.9807041 1.82834 0 1.09701 0.822754 1.79787 2.0721212 1.79787 0.1218895 0 0.4266132 0 0.4875579-0.0305h0.091417c0.1523619 0 0.2133066 0.0914 0.2133066 0.27425 0 1.27984-1.0360606 2.71204-3.0777094 4.14424z" style="fill-opacity:.32128517"/>
    </g>
    <g transform="translate(53.683727,19.040767)" style="fill-opacity:.32128517">
     <path d="m-8.1308443 262.0643c2.712041-1.85882 3.9918805-3.71763 3.9918805-5.8507 0-1.82834-1.0055882-3.01676-2.4987343-3.01676-1.1274777 0-1.9807041 0.79228-1.9807041 1.82834 0 1.09701 0.822754 1.79787 2.0721212 1.79787 0.1218895 0 0.4266132 0 0.4875579-0.0305h0.091417c0.1523619 0 0.2133066 0.0914 0.2133066 0.27425 0 1.27984-1.0360606 2.71204-3.0777094 4.14424z" style="fill-opacity:.32128517"/>
    </g>
   </g>
  </g>
 </g>
</svg>
