<svg width="256" height="256" version="1.1" viewBox="0 0 67.73 67.73" xmlns="http://www.w3.org/2000/svg" xmlns:xlink="http://www.w3.org/1999/xlink">
 <defs>
  <linearGradient id="linearGradient4226" x1="529.655" x2="-35.31" y1="401.584" y2="119.093" gradientTransform="matrix(0 -.11988932 .11988589 0 .36275465 292.5483)" gradientUnits="userSpaceOnUse">
   <stop style="stop-color:#f2f2f2" offset="0"/>
   <stop style="stop-color:#f9f9f9" offset="1"/>
  </linearGradient>
  <linearGradient id="linearGradient4358" x1="88" x2="488" y1="88" y2="488" gradientUnits="userSpaceOnUse">
   <stop style="stop-color:#000000;stop-opacity:.58823532" offset="0"/>
   <stop style="stop-color:#000000;stop-opacity:0" offset=".88"/>
   <stop style="stop-color:#000000" offset="1"/>
  </linearGradient>
  <filter id="filter4346" x="-.01" y="-.01" width="1.026" height="1.022" style="color-interpolation-filters:sRGB">
   <feGaussianBlur stdDeviation="2.12"/>
  </filter>
 </defs>
 <g transform="translate(0,-229.26665)">
  <path d="m20.705011 233.28164c-9.338925 0-10.343783 0.95922-10.298013 10.31704v38.63259c-0.04577 9.35781 0.959088 10.31704 10.298013 10.31704h25.970643c9.338924 0 10.298012-0.95912 10.298012-10.31704v-38.63259c0-9.35793-0.959088-10.31704-10.298012-10.31704z" style="fill:none;opacity:.2;stroke-width:1.0583333;stroke:#000000"/>
  <path transform="matrix(.13229167 0 0 .13229167 -4.4096684 223.75664)" d="m189.84323 74c-70.59344 0-78.18921 7.250835-77.84323 77.98706v292.02588c-0.34598 70.73623 7.24979 77.98706 77.84323 77.98706h196.31354c70.59344 0 76.00668-7.27384 77.84323-77.98706v-292.02588c0-70.737067-7.24979-77.98706-77.84323-77.98706z" style="filter:url(#filter4346);opacity:.1"/>
  <path transform="matrix(.13229167 0 0 .13229167 -4.4096684 223.75664)" d="m189.84323 74c-70.59344 0-78.18921 7.250835-77.84323 77.98706v292.02588c-0.34598 70.73623 7.24979 77.98706 77.84323 77.98706h196.31354c70.59344 0 77.84323-7.24999 77.84323-77.98706v-292.02588c0-70.737067-7.24979-77.98706-77.84323-77.98706z" style="fill:url(#linearGradient4358);filter:url(#filter4380);opacity:.3"/>
  <path d="m20.704984 233.28164c-9.338924 0-10.343781 0.95922-10.298011 10.31704v38.63259c-0.04577 9.35781 0.959087 10.31704 10.298011 10.31704h25.970643c9.338924 0 10.298012-0.95912 10.298012-10.31704v-38.63259c0-9.35793-0.959088-10.31704-10.298012-10.31704z" style="fill:url(#linearGradient4226)"/>
  <path d="m20.705079 233.28164c-9.338926 0-10.343851 0.95939-10.298081 10.3172v0.52916c-0.04577-9.35781 0.959155-10.3172 10.298081-10.3172h25.970506c9.338927 0 10.298081 0.95928 10.298081 10.3172v-0.52916c0-9.35793-0.959154-10.3172-10.298081-10.3172z" style="fill:#ffffff;opacity:.6"/>
  <path d="m37.756915 253.38997v0.62255h0.415028c1.105067 0 1.485897 0.14298 1.867649 0.70556l3.693789 5.60294-3.320261 4.85588c-0.281292 0.40184-0.875927 1.32811-2.905236 1.32811v0.62254l2.241179-0.083c0.743408 0 1.849888 0.0227 2.573208 0.083v-0.62254c-0.92424-0.0201-1.286605-0.59292-1.286605-0.95458 0-0.18083 0.0669-0.23552 0.207518-0.45653l2.863726-4.23334 3.154243 4.81438c0.0402 0.0803 0.124516 0.14724 0.124516 0.20752 0 0.2411-0.464146 0.60246-1.328106 0.62255v0.62254c0.703229-0.0603 2.183228-0.083 2.946734-0.083l2.614708 0.083v-0.62254h-0.373529c-1.044794 0-1.487215-0.12421-1.909151-0.74707l-4.233333-6.3915 2.739218-4.02581c0.442026-0.64296 1.158523-1.30802 2.946728-1.32811v-0.62255l-2.241174 0.083c-0.803693 0-1.769523-0.0227-2.573203-0.083v0.62255c0.80368 0.0201 1.245092 0.45096 1.245092 0.91307 0 0.20092-0.02537 0.27703-0.166005 0.49804l-2.324192 3.36177-2.573203-3.85981c-0.0402-0.0603-0.124502-0.21015-0.124502-0.29052 0-0.24111 0.422632-0.60246 1.286602-0.62255v-0.62255c-0.703228 0.0603-2.183235 0.083-2.946733 0.083zm-21.643219 0-0.373527 4.52386h0.49804c0.281283-3.23483 0.576865-3.90131 3.610786-3.90131 0.361655 0 0.878164 1e-3 1.079086 0.0415 0.421926 0.0803 0.45653 0.28494 0.45653 0.74705v10.81485c0 0.68313-7e-3 1.0381-2.11666 0.99608h-0.830077v0.62255c0.823783-0.0603 2.894072-0.0831 3.818307-0.0831 0.92424 0 2.994519 0.0227 3.8183 0.0831v-0.62255h-0.830064c-2.109679 0-2.075162-0.31295-2.075162-0.99608v-10.81484c0-0.40184-0.02963-0.66668 0.332028-0.74705 0.221012-0.0402 0.780336-0.0415 1.162087-0.0415 3.033914 0 3.329493 0.66648 3.610785 3.90131h0.498044l-0.373534-4.52386zm10.777924 5.29167v0.62254h0.498041c1.54709 0 1.577128 0.18976 1.577128 0.91308v10.64106c0 0.72331-0.03001 0.95457-1.577128 0.95457h-0.498041v0.62254h11.579408l0.871577-5.18791h-0.539544c-0.502303 3.09419-0.943498 4.56537-4.399351 4.56537h-2.656213c-0.944322 0-0.996072-0.16703-0.996072-0.83007v-5.40353h1.784638c1.948938 0 2.199673 0.65785 2.199673 2.36568h0.498043v-5.35392h-0.498043c0 1.72793-0.250735 2.36569-2.199673 2.36569h-1.784638v-4.86399c0-0.66304 0.05181-0.78857 0.996072-0.78857h2.57321c3.074094 0 3.621337 1.067 3.942811 3.85981h0.498044l-0.581057-4.48235z" style="fill:#111111"/>
  <path d="m33.690332 233.28164v59.26667h12.985253c9.338924 0 10.055122-0.96217 10.298081-10.31695v-38.63278c0-9.35792-0.959157-10.31694-10.298081-10.31694z" style="fill:#ffffff;opacity:.1"/>
  <path d="m10.406998 262.91497v19.31639c-0.04577 9.35782 0.959156 10.31695 10.298081 10.31695h25.970506c9.338924 0 10.055122-0.96217 10.298081-10.31695v-19.31639z" style="fill:#ffffff;opacity:.2"/>
  <path d="m41.098666 292.54831 15.875-15.875v5.94886c-0.01384 8.99472-1.006126 9.92614-10.100231 9.92614z" style="fill:#ffffff;opacity:.4"/>
 </g>
</svg>
