<svg width="256" height="256" version="1.1" viewBox="0 0 67.73 67.73" xmlns="http://www.w3.org/2000/svg" xmlns:xlink="http://www.w3.org/1999/xlink">
 <defs>
  <linearGradient id="linearGradient4226" x1="529.655" x2="-35.31" y1="401.584" y2="119.093" gradientTransform="matrix(0 -.11988932 .11988589 0 .36277965 292.54831)" gradientUnits="userSpaceOnUse">
   <stop style="stop-color:#f2f2f2" offset="0"/>
   <stop style="stop-color:#f9f9f9" offset="1"/>
  </linearGradient>
  <linearGradient id="linearGradient4358" x1="88" x2="488" y1="88" y2="488" gradientUnits="userSpaceOnUse">
   <stop style="stop-color:#000000;stop-opacity:.58823532" offset="0"/>
   <stop style="stop-color:#000000;stop-opacity:0" offset=".88"/>
   <stop style="stop-color:#000000" offset="1"/>
  </linearGradient>
  <filter id="filter4346" x="-.01" y="-.01" width="1.026" height="1.022" style="color-interpolation-filters:sRGB">
   <feGaussianBlur stdDeviation="2.12"/>
  </filter>
 </defs>
 <g transform="translate(0,-229.26666)">
  <path d="m20.70501 233.28165c-9.338925 0-10.343782 0.95922-10.298012 10.31704v38.63259c-0.04577 9.35781 0.959087 10.31704 10.298012 10.31704h25.970644c9.338924 0 10.298012-0.95912 10.298012-10.31704v-38.63259c0-9.35793-0.959088-10.31704-10.298012-10.31704z" style="fill:none;opacity:.2;stroke-width:1.0583333;stroke:#000000"/>
  <path transform="matrix(.13229167 0 0 .13229167 -4.4096684 223.75665)" d="m189.84323 74c-70.59344 0-78.18921 7.250835-77.84323 77.98706v292.02588c-0.34598 70.73623 7.24979 77.98706 77.84323 77.98706h196.31354c70.59344 0 76.00668-7.27384 77.84323-77.98706v-292.02588c0-70.737067-7.24979-77.98706-77.84323-77.98706z" style="filter:url(#filter4346);opacity:.1"/>
  <path transform="matrix(.13229167 0 0 .13229167 -4.4096684 223.75665)" d="m189.84323 74c-70.59344 0-78.18921 7.250835-77.84323 77.98706v292.02588c-0.34598 70.73623 7.24979 77.98706 77.84323 77.98706h196.31354c70.59344 0 77.84323-7.24999 77.84323-77.98706v-292.02588c0-70.737067-7.24979-77.98706-77.84323-77.98706z" style="fill:url(#linearGradient4358);filter:url(#filter4380);opacity:.3"/>
  <path d="m20.70501 233.28165c-9.338925 0-10.343782 0.95922-10.298012 10.31704v38.63259c-0.04577 9.35781 0.959087 10.31704 10.298012 10.31704h25.970644c9.338924 0 10.298012-0.95912 10.298012-10.31704v-38.63259c0-9.35793-0.959088-10.31704-10.298012-10.31704z" style="fill:url(#linearGradient4226)"/>
  <path d="m20.705078 233.28165c-9.338925 0-10.34385 0.95939-10.29808 10.3172v0.52916c-0.04577-9.35781 0.959155-10.3172 10.29808-10.3172h25.970507c9.338927 0 10.298081 0.95928 10.298081 10.3172v-0.52916c0-9.35793-0.959154-10.3172-10.298081-10.3172z" style="fill:#ffffff;opacity:.6"/>
  <path d="m36.867634 247.03998c1.330532 5.24177-4.693206 6.82493-6.867258 10.08939-1.480481 2.22419 0.726723 4.61424 3.735938 7.32902-1.173469-2.6527-5.153091-4.97314 0.0016-9.04458 6.427876-5.07357 3.129636-8.37383 3.129636-8.37383zm3.976786 6.48522c7.1e-5 0-10.869089 2.71388-5.678234 8.6955 1.532385 1.76396-0.401971 3.35003-0.401971 3.35003s3.888653-2.00697 2.103142-4.5216c-1.668222-2.34395-2.947049-3.50838 3.977063-7.52393zm1.924854 10.68459c-0.381894 1e-3 -0.7874 0.0675-1.203415 0.21372-0.333544 0.11807-0.50855 0.39255-0.50855 0.39255s0.21087-0.0849 0.681021-0.18299c1.922611-0.40062 4.677363 2.57378-1.279824 5.66855-0.02761 0.0737-0.11911 0.15641-0.119041 0.15641 7.084624-1.86239 5.53956-6.25402 2.429809-6.24824zm-12.764191 0.30204c-0.466661-0.0108-2.484064 0.0192-4.894781 1.18541-3.259255 1.57594 8.060417 2.29388 13.9211 0.75245 0.609291-0.4158 1.450914-0.7768 1.450914-0.7768s-2.397024 0.42852-4.785431 0.62897c-2.923318 0.24526-6.059165 0.29368-7.63327 0.0831-3.726878-0.49825 2.043068-1.86893 2.043068-1.86893s-0.03493-3e-3 -0.1016-4e-3zm-1.241899 3.60581c-5.376412 1.78438 2.992978 3.80943 10.507129 1.61149-0.798359-0.28143-1.305293-0.79648-1.305293-0.79648-3.673917 0.70705-5.796032 0.68446-8.483992 0.40696-2.078111-0.21478-0.717844-1.22197-0.717844-1.22197zm0.759923 3.47571c-4.881819 1.36404 2.970194 4.18157 9.186057 1.51846-1.018059-0.39563-1.748235-0.85239-1.748235-0.85239-2.771892 0.52395-4.057714 0.56522-6.573809 0.27796-2.076566-0.23817-0.864013-0.94403-0.864013-0.94403zm-3.390717 2.3044c-2.192271 0.0676-6.479688 2.03881-2.55882 2.6751 12.672418 2.05409 23.099978-0.92522 19.813334-2.40823 0 0 0.897779 0.74022-0.988589 1.3125-3.586969 1.08646-14.932211 1.41417-18.083369 0.0435-1.13198-0.49305 0.991706-1.17646 1.659924-1.32079 0.69673-0.15071 1.094616-0.1232 1.094616-0.1232-0.196845-0.13861-0.531122-0.19137-0.937096-0.17884zm19.2663 1.88389s-0.399452 1.02557-4.72508 1.83932c-4.879996 0.91874-10.900252 0.81162-14.469521 0.22231 0 0 0.731097 0.60529 4.488384 0.84711 5.716914 0.3655 14.49839-0.20335 14.706217-2.90874z" style="clip-rule:evenodd;fill-rule:evenodd;fill:#dd4f37"/>
  <path d="m33.690332 233.28165v59.26667h12.985253c9.338924 0 10.055122-0.96217 10.298081-10.31695v-38.63278c0-9.35792-0.959157-10.31694-10.298081-10.31694z" style="fill:#ffffff;opacity:.1"/>
  <path d="m10.406998 262.91498v19.31639c-0.04577 9.35782 0.959156 10.31695 10.29808 10.31695h25.970507c9.338924 0 10.055122-0.96217 10.298081-10.31695v-19.31639z" style="fill:#ffffff;opacity:.2"/>
  <path d="m41.098666 292.54832 15.875-15.875v5.94886c-0.01384 8.99472-1.006126 9.92614-10.100231 9.92614z" style="fill:#ffffff;opacity:.4"/>
 </g>
</svg>
