<svg width="256" height="256" version="1.1" viewBox="0 0 67.73 67.73" xmlns="http://www.w3.org/2000/svg" xmlns:xlink="http://www.w3.org/1999/xlink">
 <defs>
  <clipPath id="clipPath1101">
   <path d="m39.9973 106.92432c0-35.29673 3.625418-39.09461 38.99353-38.92162h146.01294c35.36812-0.17299 38.99353 3.62489 38.99353 38.92162v98.15676c0 35.29672-3.625 38.92162-38.99353 38.92162h-146.01294c-35.368533 0-38.99353-3.6249-38.99353-38.92162z" style="fill:url(#linearGradient1105)"/>
  </clipPath>
  <linearGradient id="linearGradient4226" x1="529.655" x2="-35.31" y1="401.584" y2="119.093" gradientTransform="matrix(.11988932 0 0 .11988589 4.1870906 232.36478)" gradientUnits="userSpaceOnUse">
   <stop style="stop-color:#331d3b" offset="0"/>
   <stop style="stop-color:#281d2c" offset="1"/>
  </linearGradient>
  <linearGradient id="linearGradient4358" x1="88" x2="488" y1="88" y2="488" gradientUnits="userSpaceOnUse">
   <stop style="stop-color:#000000;stop-opacity:.58823532" offset="0"/>
   <stop style="stop-color:#000000;stop-opacity:0" offset=".88"/>
   <stop style="stop-color:#000000" offset="1"/>
  </linearGradient>
  <filter id="filter4346" x="-.01" y="-.01" width="1.026" height="1.022" style="color-interpolation-filters:sRGB">
   <feGaussianBlur stdDeviation="2.12"/>
  </filter>
 </defs>
 <g transform="translate(0,-229.26665)">
  <path transform="matrix(0 -.13229167 .13229167 0 -5.6024919 304.05549)" d="m189.84323 74c-70.59344 0-78.18921 7.250835-77.84323 77.98706v292.02588c-0.34598 70.73623 7.24979 77.98706 77.84323 77.98706h196.31354c70.59344 0 76.00668-7.27384 77.84323-77.98706v-292.02588c0-70.737067-7.24979-77.98706-77.84323-77.98706z" style="filter:url(#filter4346);opacity:.1"/>
  <path transform="matrix(0 -.13229167 .13229167 0 -5.6024919 304.05549)" d="m189.84323 74c-70.59344 0-78.18921 7.250835-77.84323 77.98706v292.02588c-0.34598 70.73623 7.24979 77.98706 77.84323 77.98706h196.31354c70.59344 0 77.84323-7.24999 77.84323-77.98706v-292.02588c0-70.737067-7.24979-77.98706-77.84323-77.98706z" style="fill:url(#linearGradient4358);filter:url(#filter4380);opacity:.3"/>
  <path d="m63.453758 252.70701c0-9.33893-0.959226-10.34378-10.317038-10.29801h-38.632591c-9.3578153-0.0458-10.317038 0.95908-10.317038 10.29801v25.97064c0 9.33893 0.9591145 10.29802 10.317038 10.29802h38.632591c9.357923 0 10.317038-0.95909 10.317038-10.29802z" style="fill:url(#linearGradient4226)"/>
  <path d="m23.237886 252.99162v25.4s12.037194-5.20675 22.56388-12.70802c0-2e-3 -0.0013-4e-3 -0.0027-7e-3 -0.0013-3e-3 -0.0027-6e-3 -0.0047-8e-3 -0.0021-3e-3 -4e-3 -6e-3 -0.0054-8e-3 -0.0019-3e-3 -0.0027-6e-3 -0.0027-8e-3 -11.10361-7.74051-22.548431-12.66049-22.548431-12.66049z" style="fill:#ffffff;opacity:.6"/>
  <path transform="matrix(.26458333 0 0 .26458333 -6.3955279 224.41662)" d="m31.997302 68.0027v16h24v-16zm216 0v16h24v-16zm-216 24v16h24v-16zm216 0v16h24v-16zm-216 24v16h24v-16zm216 0v16h24v-16zm-216 24v16h24v-16zm216 0v16h24v-16zm-216 24v16h24v-16zm216 0v16h24v-16zm-216 24v16h24v-16zm216 0v16h24v-16zm-216 24v16h24v-16zm216 0v16h24v-16zm-216 24v16h24v-16zm216 0v16h24v-16z" clip-path="url(#clipPath1101)" style="fill:#ffffff;opacity:.1"/>
  <path d="m4.1870907 265.69233h59.266667v12.98525c0 9.33893-0.962171 10.05513-10.316943 10.29809h-38.632782c-9.3579254 0-10.316942-0.95916-10.316942-10.29809z" style="fill:#ffffff;opacity:.03999999"/>
  <path d="m33.820425 242.409h19.31639c9.357815-0.0458 10.316943 0.95915 10.316943 10.29808v25.9705c0 9.33893-0.962171 10.05513-10.316943 10.29809h-19.31639z" style="fill:#ffffff;opacity:.03999999"/>
  <path d="m14.503972 242.4088c-9.3578139-0.0458-10.316684 0.95915-10.316684 10.29808v0.52917c0-9.33893 0.9588698-10.34385 10.316684-10.29808h38.632785c9.357815-0.0458 10.317199 0.95915 10.317199 10.29808v-0.52917c0-9.33893-0.959384-10.34385-10.317199-10.29808h-19.316134z" style="fill:#ffffff;opacity:.2"/>
  <path d="m4.1872883 278.14874v0.52916c0 9.33893 0.9587585 10.29757 10.316684 10.29757h38.632785c9.357923 0 10.317199-0.95864 10.317199-10.29757v-0.52916c0 9.33892-0.959276 10.29756-10.317199 10.29756h-38.632785c-9.3579252 0-10.316684-0.95864-10.316684-10.29756z" style="opacity:.2"/>
 </g>
</svg>
