<svg xmlns="http://www.w3.org/2000/svg" width="16" height="16" version="1.1" viewBox="0 0 16 16">
 <title id="title9167">
  Gnome Symbolic Icon Theme
 </title>
 <g id="layer12" transform="translate(-220 -606)">
  <path d="m228 607c-3.863 0-7 3.137-7 7 0 3.863 3.137 7 7 7s7-3.137 7-7c0-3.863-3.137-7-7-7zm0 2c1.0194 0 1.959 0.28763 2.75 0.8125l-6.9375 6.9375c-0.52487-0.79102-0.8125-1.7306-0.8125-2.75 0-2.7593 2.2408-5 5-5zm4.1875 2.25c0.52487 0.79102 0.8125 1.7306 0.8125 2.75 0 2.7592-2.2408 5-5 5-1.0194 0-1.959-0.28763-2.75-0.8125z" style="fill:#444444"/>
 </g>
</svg>
