<svg xmlns="http://www.w3.org/2000/svg" width="24" height="24" version="1.1" viewBox="0 0 24 24">
 <defs>
  <style id="current-color-scheme" type="text/css">
   .ColorScheme-Text { color:#444444; } .ColorScheme-Highlight { color:#4285f4; }
  </style>
 </defs>
 <path style="fill:currentColor;" class="ColorScheme-Text" d="m 4.3258041,4.0001051 v 0.0013 A 0.33321871,0.33323204 0 0 0 4.0835788,4.5548793 C 4.6880531,5.2603227 5.7838547,5.6011906 7.0697223,5.8767002 7.9807312,6.071798 8.9903368,6.222017 9.9959605,6.374174 v 1.630462 h 1.3374485 v 2.000313 H 9.9959605 v 0.959785 c -0.00267,4.67e-4 -0.00515,0 -0.00782,0 -1.4064864,0.23097 -2.8191403,0.532613 -3.9381151,1.122571 -1.1190414,0.589959 -1.9546115,1.52233 -2.0458924,2.891077 -0.035999,0.543485 0.1652545,1.027475 0.522217,1.384331 0.356969,0.356923 0.8499619,0.604138 1.43512,0.798301 1.0795018,0.35819 2.4981775,0.532861 4.0344842,0.673283 v 1.501537 H 11.333403 V 20 h 0.333389 0.333385 v -0.333386 -0.33078 h 1.328333 v -1.204616 c 2.469786,0.241771 4.830357,0.60066 6.148096,1.479398 a 0.33337303,0.3333797 0 1 0 0.369849,-0.554774 C 18.295014,18.02128 15.834904,17.671184 13.328512,17.446215 V 16.003282 H 12.00018 v -2.667083 h 1.328332 v -2.226911 c 0.236304,-0.04533 0.472091,-0.09058 0.690212,-0.143251 0.566215,-0.136888 1.065716,-0.302212 1.46898,-0.54045 C 15.891,10.187417 16.211283,9.855651 16.321167,9.416315 16.460622,8.858028 16.393317,8.340654 16.149265,7.919988 15.905153,7.499255 15.506989,7.18272 15.026695,6.928948 14.541258,6.672508 13.962678,6.473788 13.328512,6.310362 V 4.6707827 H 12.00018 V 4.3373974 4.0040119 H 11.333409 V 4.3373974 4.6707827 H 9.9959605 V 5.698287 C 9.0229419,5.5505305 8.0581995,5.4048474 7.2090669,5.2229523 5.9677398,4.9570442 4.9850967,4.5808542 4.5901683,4.1199155 A 0.33321871,0.33323204 0 0 0 4.3258041,4.0001051 Z M 13.328512,7.010992 c 0.532637,0.146023 1.01181,0.31103 1.386936,0.509194 0.41063,0.216968 0.699146,0.463883 0.856904,0.735792 0.157784,0.271909 0.207768,0.575157 0.101578,1.000156 -0.05666,0.227103 -0.216313,0.415522 -0.524821,0.59775 -0.308569,0.182228 -0.754576,0.337599 -1.286659,0.466219 -0.165799,0.04001 -0.352923,0.07483 -0.533938,0.110694 V 10.004949 H 12.00018 V 8.004636 h 1.328332 z m -3.3325515,4.630931 v 1.695578 h 1.3374485 v 2.667083 H 9.9959605 v 1.160338 C 8.4968596,17.0255 7.1316277,16.849425 6.1711444,16.530708 5.6433953,16.355547 5.2412534,16.137292 4.9964818,15.892587 c -0.2447782,-0.244705 -0.3516112,-0.4977 -0.326874,-0.868625 0.075325,-1.13051 0.6972485,-1.822438 1.6916705,-2.346721 0.9701515,-0.511546 2.2862049,-0.809949 3.6346822,-1.035318 z"/>
</svg>
