<svg width="16" height="16" viewBox="0 0 16 16" fill="none" xmlns="http://www.w3.org/2000/svg">
<g clip-path="url(#clip0)">
<rect x="7" width="2" height="16" rx="0.5" fill="#444444"/>
<rect x="6" width="4" height="4" fill="#444444"/>
<rect x="6" y="6" width="4" height="4" fill="#444444"/>
<rect x="6" y="12" width="4" height="4" fill="#444444"/>
<path fill-rule="evenodd" clip-rule="evenodd" d="M12.5 2.25H2.25C1.83579 2.25 1.5 1.91421 1.5 1.5V1.5C1.5 1.08579 1.83579 0.75 2.25 0.75H12.5C14.0188 0.75 15.25 1.98122 15.25 3.5V6C15.25 7.51878 14.0188 8.75 12.5 8.75H3.5C2.80964 8.75 2.25 9.30964 2.25 10V12C2.25 12.6904 2.80964 13.25 3.5 13.25H13.25C13.6642 13.25 14 13.5858 14 14V14C14 14.4142 13.6642 14.75 13.25 14.75H3.5C1.98122 14.75 0.75 13.5188 0.75 12V10C0.75 8.48122 1.98122 7.25 3.5 7.25H12.5C13.1904 7.25 13.75 6.69036 13.75 6V3.5C13.75 2.80964 13.1904 2.25 12.5 2.25Z" fill="#444444"/>
</g>
<defs>
<clipPath id="clip0">
<rect width="16" height="16" fill="white"/>
</clipPath>
</defs>
</svg>
