<svg xmlns="http://www.w3.org/2000/svg" xmlns:osb="http://www.openswatchbook.org/uri/2009/osb" width="16" height="16" version="1.1">
 <title id="title9167">
  Gnome Symbolic Icon Theme
 </title>
 <defs>
  <linearGradient id="linearGradient19282" gradientTransform="matrix(-2.7365795,0.28202934,-0.18908311,-0.99988321,239.54008,-879.45557)" osb:paint="solid">
   <stop id="stop19284" offset="0" style="stop-color:#666666"/>
  </linearGradient>
 </defs>
 <g id="layer12" transform="translate(-81.000204,-867)">
  <path d="m 94.03162,868.00336 c 0.53403,0 0.96875,0.42699 0.96875,0.96875 l 0,0.0625 c -0.01714,6.61281 -5.38317,11.96875 -12,11.96875 l -0.0312,0 c -0.54483,0 -0.9688,-0.446 -0.9688,-1 l 0,-1 0,-2 c 0,-0.554 0.446,-1 1,-1 l 2,0 c 0.554,0 1,0.446 1,1 l 0,0.46875 c 2.55686,-0.90388 4.56487,-2.91189 5.46875,-5.46875 l -0.46875,0 c -0.55401,0 -1,-0.44599 -1,-1 l 0,-2 c 0,-0.55401 0.44599,-1 1,-1 l 1,0 1,0 0.96875,0 0.0312,0 0.0312,0 z" style="fill:#444444"/>
 </g>
</svg>
