<svg xmlns="http://www.w3.org/2000/svg" xmlns:osb="http://www.openswatchbook.org/uri/2009/osb" width="16" height="16" version="1.1" viewBox="0 0 16 16">
 <title id="title9167">
  Gnome Symbolic Icon Theme
 </title>
 <defs>
  <linearGradient id="linearGradient19282" gradientTransform="matrix(-2.7365795,0.28202934,-0.18908311,-0.99988321,239.54008,-879.45557)" osb:paint="solid">
   <stop id="stop19284" offset="0" style="stop-color:#241f31666"/>
  </linearGradient>
 </defs>
 <g id="layer12" transform="translate(-361.0002,-727)">
  <path d="m 374.26576,737.47612 2.189,-2.47549 h 0.54564 v 5.00427 h -0.53372 z M 368.0002,734 h 5.0004 c 0.55389,0 0.9998,0.446 0.9998,1 v 5 c 0,0.554 -0.44591,1 -0.9998,1 h -5.0004 c -0.55389,0 -0.9998,-0.446 -0.9998,-1 v -5 c 0,-0.554 0.44591,-1 0.9998,-1 z" style="fill:#241f31"/>
  <path d="m 365.0002,728.99415 c -0.55389,0 -1,0.446 -1,1 v 5.00781 c 0,0.554 0.44611,1 1,1 h 0.99804 V 735 c 0,-1.05007 0.95203,-2.00742 2.00196,-2.00196 h 3 v -3.00389 c 0,-0.554 -0.44611,-1 -1,-1 z m -4,1.00897 v 5.00569 h 0.47928 l 2.2551,-2.5873 -2.12321,-2.41839 z" style="opacity:0.5;fill:#c3c3c3"/>
 </g>
</svg>
