<?xml version="1.0" encoding="UTF-8" standalone="no"?>
<svg
   xmlns:dc="http://purl.org/dc/elements/1.1/"
   xmlns:cc="http://creativecommons.org/ns#"
   xmlns:rdf="http://www.w3.org/1999/02/22-rdf-syntax-ns#"
   xmlns:svg="http://www.w3.org/2000/svg"
   xmlns="http://www.w3.org/2000/svg"
   xmlns:sodipodi="http://sodipodi.sourceforge.net/DTD/sodipodi-0.dtd"
   xmlns:inkscape="http://www.inkscape.org/namespaces/inkscape"
   width="16"
   height="16"
   version="1.1"
   id="svg6"
   sodipodi:docname="color-picker.svg"
   inkscape:version="0.92.3 (2405546, 2018-03-11)">
  <metadata
     id="metadata12">
    <rdf:RDF>
      <cc:Work
         rdf:about="">
        <dc:format>image/svg+xml</dc:format>
        <dc:type
           rdf:resource="http://purl.org/dc/dcmitype/StillImage" />
      </cc:Work>
    </rdf:RDF>
  </metadata>
  <defs
     id="defs10" />
  <sodipodi:namedview
     pagecolor="#ffffff"
     bordercolor="#666666"
     borderopacity="1"
     objecttolerance="10"
     gridtolerance="10"
     guidetolerance="10"
     inkscape:pageopacity="0"
     inkscape:pageshadow="2"
     inkscape:window-width="770"
     inkscape:window-height="480"
     id="namedview8"
     showgrid="false"
     inkscape:zoom="14.75"
     inkscape:cx="8"
     inkscape:cy="8"
     inkscape:window-x="0"
     inkscape:window-y="34"
     inkscape:window-maximized="0"
     inkscape:current-layer="svg6" />
  <g
     transform="translate(-132.00001,-140)"
     id="g4"
     style="fill:#4d4d4d;fill-opacity:1">
    <path
       d="m146.49023 140.99609c-0.12976 4e-3 -0.25303 0.0575-0.34375 0.15039l-0.48632 0.48633c-0.21492-0.10289-0.45127-0.1531-0.68946-0.14648-0.38956 0.0113-0.75941 0.17386-1.03125 0.45312l-1.64648 1.64649-0.93945-0.93946c-0.0942-0.0974-0.2239-0.15234-0.35938-0.15234-0.44941 8e-5 -0.6706 0.54683-0.34766 0.85938l0.93946 0.93945-6.14649 6.14648c-0.35526 0.34249-0.50915 0.82822-0.43945 1.29883v0.55469l-1.85352 1.85351 0.70704 0.70704 1.85351-1.85352h0.54492c0.47378 0.0725 0.96431-0.081 1.3086-0.43945l6.14648-6.14649 0.93945 0.93946c0.47127 0.49023 1.19727-0.23577 0.70704-0.70704l-0.93946-0.93945 1.64649-1.64648c0.45873-0.44877 0.5812-1.13965 0.30468-1.71875l0.48829-0.48828c0.32529-0.31801 0.0914-0.86991-0.36329-0.85743zm-4.09375 3.90039 0.70704 0.70704-3.39649 3.39648h-1.41406z"
       style="fill:#4d4d4d;fill-opacity:1"
       id="path2" />
  </g>
</svg>
