<?xml version="1.0" encoding="UTF-8" standalone="no"?>
<svg
   xmlns:dc="http://purl.org/dc/elements/1.1/"
   xmlns:cc="http://creativecommons.org/ns#"
   xmlns:rdf="http://www.w3.org/1999/02/22-rdf-syntax-ns#"
   xmlns:svg="http://www.w3.org/2000/svg"
   xmlns="http://www.w3.org/2000/svg"
   xmlns:sodipodi="http://sodipodi.sourceforge.net/DTD/sodipodi-0.dtd"
   xmlns:inkscape="http://www.inkscape.org/namespaces/inkscape"
   viewBox="0 0 24 24"
   version="1.1"
   id="svg7"
   sodipodi:docname="draw-text.svg"
   inkscape:version="0.92.3 (2405546, 2018-03-11)">
  <metadata
     id="metadata11">
    <rdf:RDF>
      <cc:Work
         rdf:about="">
        <dc:format>image/svg+xml</dc:format>
        <dc:type
           rdf:resource="http://purl.org/dc/dcmitype/StillImage" />
        <dc:title />
      </cc:Work>
    </rdf:RDF>
  </metadata>
  <sodipodi:namedview
     pagecolor="#ffffff"
     bordercolor="#666666"
     borderopacity="1"
     objecttolerance="10"
     gridtolerance="10"
     guidetolerance="10"
     inkscape:pageopacity="0"
     inkscape:pageshadow="2"
     inkscape:window-width="1920"
     inkscape:window-height="1009"
     id="namedview9"
     showgrid="true"
     inkscape:zoom="34.791667"
     inkscape:cx="7.537856"
     inkscape:cy="12"
     inkscape:window-x="0"
     inkscape:window-y="34"
     inkscape:window-maximized="1"
     inkscape:current-layer="svg7">
    <inkscape:grid
       type="xygrid"
       id="grid826" />
  </sodipodi:namedview>
  <defs
     id="defs3">
    <style
       id="current-color-scheme"
       type="text/css">
   .ColorScheme-Text { color:#4d4d4d; }
  </style>
  </defs>
  <path
     inkscape:connector-curvature="0"
     style="color:#4d4d4d;fill:#4d4d4d;stroke-width:1.4545455"
     class="ColorScheme-Text"
     d="M 10.375271,4 4,20 H 5.9738178 L 7.7032719,15.636364 H 14.871272 L 16.546907,20 h 1.997092 L 12.359272,4 Z m 0.989092,1.9316364 c 0.164364,0.546909 1.034182,3.0283635 2.613818,7.4400006 l 0.327273,0.810181 H 8.2792719 Z"
     id="path5" />
  <path
     inkscape:connector-curvature="0"
     style="fill:#f34f17;fill-rule:evenodd;stroke-width:1.50000012"
     d="m 20.462322,2 a 1.5,1.5 0 0 0 -1.5,1.5 1.5,1.5 0 0 0 1.5,1.5000001 1.5,1.5 0 0 0 1.5,-1.5000001 1.5,1.5 0 0 0 -1.5,-1.5 z m 0,4.5000002 a 1.5,1.5 0 0 0 -1.5,1.5 1.5,1.5 0 0 0 1.5,1.5000008 1.5,1.5 0 0 0 1.5,-1.5000008 1.5,1.5 0 0 0 -1.5,-1.5 z m 0,4.5000008 a 1.5,1.5 0 0 0 -1.5,1.499999 1.5,1.5 0 0 0 1.5,1.5 1.5,1.5 0 0 0 1.5,-1.5 1.5,1.5 0 0 0 -1.5,-1.499999 z"
     id="path7" />
</svg>
