<svg xmlns="http://www.w3.org/2000/svg" version="1.1" viewBox="0 0 24 24">
 <defs>
  <style id="current-color-scheme" type="text/css">
   .ColorScheme-Text { color:#241f31; }
  </style>
 </defs>
 <path style="fill:currentColor;" class="ColorScheme-Text" d="M 10.375271,4 4,20 H 5.9738178 L 7.7032719,15.636364 H 14.871272 L 16.546907,20 h 1.997092 L 12.359272,4 Z m 0.989092,1.9316364 c 0.164364,0.546909 1.034182,3.0283635 2.613818,7.4400006 l 0.327273,0.810181 H 8.2792719 Z"/>
 <path style="fill:#f34f17;fill-rule:evenodd" d="m 20.462322,2 a 1.5,1.5 0 0 0 -1.5,1.5 1.5,1.5 0 0 0 1.5,1.5000001 1.5,1.5 0 0 0 1.5,-1.5000001 1.5,1.5 0 0 0 -1.5,-1.5 z m 0,4.5000002 a 1.5,1.5 0 0 0 -1.5,1.5 1.5,1.5 0 0 0 1.5,1.5000008 1.5,1.5 0 0 0 1.5,-1.5000008 1.5,1.5 0 0 0 -1.5,-1.5 z m 0,4.5000008 a 1.5,1.5 0 0 0 -1.5,1.499999 1.5,1.5 0 0 0 1.5,1.5 1.5,1.5 0 0 0 1.5,-1.5 1.5,1.5 0 0 0 -1.5,-1.499999 z"/>
</svg>
