<svg xmlns="http://www.w3.org/2000/svg" width="16" height="16" version="1.1">
 <title id="title9167">
  Gnome Symbolic Icon Theme
 </title>
 <g id="layer12" transform="translate(-41 -887)">
  <path d="m43 892v1c0 0.25689 0.12983 0.52846 0.3125 0.71875l1.2812 1.2812-1.2812 1.2812c-0.18267 0.19029-0.3125 0.46186-0.3125 0.71875v1h1c0.30945 0 0.55232-0.0903 0.75-0.28125l2.6562-2.7188-2.6562-2.7188c-0.19768-0.19095-0.44055-0.28125-0.75-0.28125h-1z" style="fill:#444444"/>
  <path d="m55 892v1c0 0.25689-0.12983 0.52846-0.3125 0.71875l-1.2812 1.2812 1.2812 1.2812c0.18267 0.19029 0.3125 0.46186 0.3125 0.71875v1h-1c-0.30945 0-0.55232-0.0903-0.75-0.28125l-2.6562-2.7188 2.6562-2.7188c0.19768-0.19095 0.44055-0.28125 0.75-0.28125h1z" style="fill:#444444"/>
 </g>
</svg>
