<svg xmlns="http://www.w3.org/2000/svg" xmlns:osb="http://www.openswatchbook.org/uri/2009/osb" width="16" height="16" version="1.1">
 <title id="title9167">
  Gnome Symbolic Icon Theme
 </title>
 <defs>
  <linearGradient id="linearGradient19282" gradientTransform="matrix(-2.7365795,0.28202934,-0.18908311,-0.99988321,239.54008,-879.45557)" osb:paint="solid">
   <stop id="stop19284" offset="0" style="stop-color:#241f31666"/>
  </linearGradient>
 </defs>
 <g id="layer12" transform="translate(-241.0002,-767)">
  <path d="m 252.08789,767.05078 a 1.0001,1.0001 0 0 0 -0.88672,0.50391 l -3.3125,5.625 a 1.0001,1.0001 0 1 0 1.72266,1.01562 l 3.3125,-5.625 a 1.0001,1.0001 0 0 0 -0.83594,-1.51953 z" style="fill:#241f31"/>
  <path d="m 246.21895,772.09375 4.94742,3.05384 c 0.60355,0.31472 0.81997,1.11313 0.16464,1.59705 l -0.62186,0.21653 -6.01923,-3.52145 0.0177,-0.90733 c 0.28883,-0.58524 0.75466,-0.81586 1.51132,-0.43864 z" style="fill:#241f31"/>
  <path d="m 244.05404,774.48847 5.98988,3.4746 -1.04457,1.54209 c -0.22097,0.24307 -0.13258,0.57452 0.0884,0.7071 l 0.95017,0.81759 -5.36959,0 c -2.19054,0 -3.19682,-2.06453 -2.14342,-3.88909 z" style="fill:#241f31"/>
 </g>
</svg>
