<svg xmlns="http://www.w3.org/2000/svg" width="16" height="16" version="1.1">
 <g transform="matrix(-.9375156 0 0 -.9375156 185.19044 734.04961)" style="fill:#4d4d4d">
  <g transform="matrix(-1,0,0,1,377.99993,0)" style="fill:#4d4d4d">
   <path d="m6.125 1.3496094c-0.132602 1.3e-5 -0.2597669 0.052706-0.3535156 0.1464844l-5.625 5.625c-0.19524734 0.1952388-0.19524734 0.5117924 0 0.7070312l5.625 5.625c0.093749 0.09378 0.2209137 0.146471 0.3535156 0.146484h8.427734c0.428801 0 0.821637-0.167279 1.076172-0.443359 0.254526-0.276089 0.371094-0.636835 0.371094-0.994141v-9.3749996c0-0.7613002-0.604546-1.404987-1.384766-1.4375-0.0065-1.272e-4 -0.01302-1.272e-4 -0.01953 0zm0.2070312 1h8.2441408c0.214166 0.0093751 0.423828 0.245853 0.423828 0.4375v9.3749996c0 0.140318-0.04448 0.248137-0.107422 0.316407-0.06291 0.06825-0.14679 0.121093-0.339844 0.121093h-8.2207028l-5.125-5.1249996z" transform="matrix(-1.0666489,0,0,-1.0666489,197.53318,782.97322)" style="fill:#4d4d4d"/>
   <path d="m189.3503 777.23606-2.26269-2.2627 2.2627-2.26271-0.75423-0.75423-2.26271 2.2627-2.26271-2.2627-0.75423 0.75423 2.2627 2.26271-2.26269 2.2627 0.75423 0.75423 2.2627-2.2627 2.2627 2.2627 0.75423-0.75423" style="fill:#4d4d4d"/>
  </g>
 </g>
</svg>
