<svg xmlns="http://www.w3.org/2000/svg" version="1.1" viewBox="0 0 16 16">
 <defs>
  <style id="current-color-scheme" type="text/css">
   .ColorScheme-Text { color:#4d4d4d; }
  </style>
 </defs>
 <path style="fill:#4d4d4d" d="M 2.9023438 0 C 0.94983462 0.0046045942 -0.010658767 2.2520502 0 5.0625 C 0.017338197 9.7505 2.742472 16 8.0292969 16 C 13.229431 16 15.949319 9.7505 16 5.0625 C 16.03068 2.2504999 15.094844 -5.9211895e-16 13.154297 0 C 11.702929 0 10.027003 0.98566423 8.5332031 2.40625 A 3.3559322 5.4576273 0 0 1 11.253906 7.7636719 A 3.3559322 5.4576273 0 0 1 7.8984375 13.220703 A 3.3559322 5.4576273 0 0 1 4.5429688 7.7636719 A 3.3559322 5.4576273 0 0 1 7.4238281 2.3652344 C 5.9570332 0.97341296 4.3335678 0.0025819489 2.9082031 0 L 2.9042969 0 L 2.9023438 0 z"/>
</svg>
