<svg xmlns="http://www.w3.org/2000/svg" width="16" height="16" version="1.1">
 <g transform="translate(-192,-260)">
  <path d="m195.99414 267c-1.25819 0.0146-2.17889-0.0306-2.93164 0.38477-0.37637 0.20765-0.67322 0.55938-0.83789 0.99804s-0.22461 0.95958-0.22461 1.61719v2c0 0.65761 0.0599 1.17853 0.22461 1.61719 0.16467 0.43866 0.46152 0.79039 0.83789 0.99804 0.75275 0.41532 1.67345 0.3702 2.93164 0.38477h4e-3 2.0039 4e-3c1.25819-0.0146 2.17889 0.0306 2.93164-0.38477 0.37637-0.20765 0.67322-0.55938 0.83789-0.99804 0.16449-0.43866 0.22443-0.95958 0.22443-1.61719v-2c0-0.65761-0.0599-1.17852-0.22461-1.61719-0.16466-0.43866-0.46152-0.79038-0.83789-0.99804-0.75275-0.41534-1.67344-0.37025-2.93164-0.38477h-4e-3 -2.0039zm6e-3 1h6e-3 1.99386c1.25852 0.0147 2.08717 0.0598 2.45312 0.26172 0.18341 0.1012 0.28916 0.21274 0.38672 0.47266 0.09757 0.25991 0.16016 0.67323 0.16016 1.26562v2c0 0.59239-0.0626 1.00572-0.16016 1.26562-0.0976 0.25991-0.20135 0.37147-0.38476 0.47266-0.36596 0.20191-1.19655 0.24698-2.45508 0.26172h-1.99414-0.00586c-1.25853-0.0147-2.08912-0.0598-2.45508-0.26172-0.18341-0.10119-0.2872-0.21275-0.38476-0.47266-0.09757-0.2599-0.16016-0.67323-0.16016-1.26562v-2c0-0.59239 0.0626-1.00572 0.16016-1.26562 0.0976-0.25991 0.20135-0.37147 0.38476-0.47266 0.36596-0.20191 1.19655-0.24698 2.45508-0.26172z" style="fill:#4d4d4d;opacity:.5"/>
  <path d="m198.99414 262c-1.25819 0.0146-2.17889-0.0306-2.93164 0.38477-0.37637 0.20765-0.67322 0.55938-0.83789 0.99804s-0.22461 0.95958-0.22461 1.61719v1h1v-1c0-0.59239 0.0626-1.00572 0.16016-1.26562 0.0976-0.25991 0.20135-0.37147 0.38476-0.47266 0.36596-0.20191 1.19655-0.24698 2.45508-0.26172h3.5 1.5c1.25852 0.0147 2.08717 0.0598 2.45312 0.26172 0.18341 0.1012 0.28916 0.21274 0.38672 0.47266 0.09757 0.25991 0.16016 0.67323 0.16016 1.26562v4c0 0.59239-0.0626 1.00572-0.16016 1.26562-0.0976 0.25991-0.20135 0.37147-0.38476 0.47266-0.36682 0.20239-1.1974 0.24709-2.46094 0.26172h-0.99414v1h1.00195 4e-3c1.25819-0.0146 2.17889 0.0306 2.93164-0.38477 0.37637-0.20765 0.67322-0.55938 0.83789-0.99804 0.16458-0.43866 0.22452-0.95958 0.22452-1.61719v-4c0-0.65761-0.0599-1.17852-0.22461-1.61719-0.16466-0.43866-0.46152-0.79038-0.83789-0.99804-0.75275-0.41534-1.67344-0.37025-2.93164-0.38477h-4e-3 -1.50195-3.50195z" style="fill:#4d4d4d"/>
 </g>
</svg>
