<svg xmlns="http://www.w3.org/2000/svg" fill="none" width="16" height="16" viewBox="0 0 16 16">
 <g clip-path="url(#clip0)">
  <path fill="#444" d="M2 13V15H14V13H2Z"/>
  <path fill="#444" d="M4 4.99861C4 4.58484 4.07903 4.19665 4.2371 3.83403C4.39517 3.47141 4.60902 3.15528 4.87866 2.88563C5.15295 2.61134 5.47141 2.39517 5.83403 2.2371C6.19665 2.07903 6.58484 2 6.99861 2H11.5872V4.00139H6.99861C6.85914 4.00139 6.72896 4.02696 6.60809 4.0781C6.48722 4.12924 6.38029 4.2013 6.28731 4.29428C6.19898 4.38261 6.12924 4.48722 6.0781 4.60809C6.02696 4.72896 6.00139 4.85914 6.00139 4.99861C6.00139 5.13808 6.02696 5.27057 6.0781 5.39609C6.12924 5.51697 6.19898 5.6239 6.28731 5.71688C6.38029 5.80521 6.48722 5.87494 6.60809 5.92608C6.72896 5.97722 6.85914 6.00279 6.99861 6.00279H9C9.41376 6.00279 9.80195 6.08182 10.1646 6.23989C10.5318 6.39331 10.8503 6.60716 11.1199 6.88145C11.3942 7.15109 11.6081 7.46955 11.7615 7.83682C11.9196 8.19944 11.9986 8.58763 11.9986 9.00139C11.9986 9.41516 11.9196 9.80335 11.7615 10.166C11.6081 10.5286 11.3942 10.847 11.1199 11.1213C10.8503 11.391 10.5318 11.6048 10.1646 11.7629C9.80195 11.921 9.41376 12 9 12H4.55788V9.9986H9C9.13947 9.9986 9.26964 9.97304 9.39052 9.9219C9.51139 9.87076 9.61599 9.80102 9.70432 9.71269C9.7973 9.61971 9.86936 9.51278 9.9205 9.39191C9.97164 9.27104 9.99721 9.14086 9.99721 9.00139C9.99721 8.86192 9.97164 8.73175 9.9205 8.61088C9.86936 8.49 9.7973 8.3854 9.70432 8.29707C9.61599 8.20409 9.51139 8.13203 9.39052 8.08089C9.26964 8.02975 9.13947 8.00418 9 8.00418H6.99861C6.58484 8.00418 6.19665 7.92515 5.83403 7.76708C5.47141 7.60902 5.15295 7.39516 4.87866 7.12552C4.60902 6.85123 4.39517 6.53278 4.2371 6.17015C4.07903 5.80288 4 5.41237 4 4.99861Z"/>
 </g>
 <defs>
  <clipPath id="clip0">
   <rect fill="#fff" width="16" height="16"/>
  </clipPath>
 </defs>
</svg>
