<svg xmlns="http://www.w3.org/2000/svg" width="16.015" height="16.079" version="1.1">
 <path style="fill:#4d4d4d" d="m 12.991458,15.491473 c -0.181256,-0.04875 -0.452503,-0.16799 -0.602774,-0.265059 -0.150282,-0.09708 -1.967399,-1.872795 -4.0380624,-3.946037 L 4.5858028,7.5108514 H 4.0635782 c -0.954993,0 -1.842186,-0.392934 -2.5177105,-1.1150709 C 1.091115,5.909659 0.78492772,5.2960286 0.68838405,4.6773447 0.61291536,4.193942 0.64554034,3.4240957 0.75335275,3.1403804 L 0.81925895,2.9670086 1.8561425,3.9968047 C 2.4264326,4.5631948 2.952276,5.0566288 3.0246884,5.0933225 3.2068633,5.1856662 3.5601411,5.1767599 3.7549722,5.0750413 3.8445034,5.0282601 4.1662719,4.7359759 4.4700404,4.4254762 4.8946994,3.9914047 5.0318743,3.8101392 5.0635711,3.6411831 5.1490711,3.1855397 5.0847586,3.0879554 3.9305658,1.9220063 3.2207289,1.2049226 2.8729729,0.81345097 2.9285197,0.79399787 c 0.2392498,-0.0838124 0.9348368,-0.2149967 1.1397085,-0.2149967 0.4094622,0 1.1019741,0.1752749 1.5412112,0.39008408 C 6.4115075,1.3613255 7.0321883,2.0689875 7.3692661,2.9755211 7.4965504,3.3178115 7.5214691,3.4935176 7.527366,4.089964 l 0.00656,0.7080838 3.806988,3.8126965 c 2.453426,2.4571017 3.849175,3.8984127 3.925646,4.0538027 0.386606,0.785522 0.237272,1.67759 -0.385002,2.299864 -0.302503,0.302503 -0.603994,0.464175 -1.036574,0.555862 -0.393113,0.08334 -0.443091,0.08166 -0.853997,-0.02878 z m 0.911306,-0.809193 c 0.264843,-0.07359 0.610087,-0.436518 0.713624,-0.750234 0.226059,-0.684965 -0.323531,-1.418202 -1.062993,-1.418202 -0.962174,0 -1.491289,1.089196 -0.881287,1.814146 0.297291,0.353306 0.75735,0.485756 1.230656,0.35429 z M 0.84933392,15.232077 C 0.64997471,15.029671 0.57382165,14.91088 0.60782474,14.855343 0.63510597,14.810718 1.0420369,14.188649 1.5120334,13.472944 l 0.8545493,-1.301296 0.4742059,-0.07856 0.4742152,-0.07856 1.1610553,-1.150499 1.1610459,-1.1504989 0.3754122,0.3754029 0.3754029,0.375412 -1.1145179,1.114668 -1.1145178,1.114658 -0.1224281,0.525281 -0.1224186,0.525271 -1.3242271,0.887672 C 1.8614862,15.120107 1.2374399,15.521375 1.203043,15.523588 1.168637,15.525488 1.0094775,15.394597 0.84933392,15.232007 Z M 10.970191,7.0286299 10.732282,6.7849926 12.765033,4.7515759 C 14.780638,2.7353151 14.925716,2.5613339 14.722438,2.4040403 14.467026,2.2064155 14.485044,2.1918467 12.358993,4.3146075 L 10.30346,6.3669617 10.035917,6.0943557 9.7683637,5.8217497 11.800862,3.7860173 c 1.117865,-1.1196553 2.032489,-2.0822795 2.032489,-2.139167 0,-0.1339218 -0.211275,-0.344531 -0.345609,-0.344531 -0.05747,0 -1.020683,0.9161899 -2.14047,2.0359765 L 9.3112958,5.3742723 9.0705741,5.1290037 8.8298618,4.8837258 10.86446,2.8602087 c 1.877089,-1.86686095 2.061598,-2.03349213 2.383451,-2.15236703 0.439809,-0.1624498 0.731549,-0.162703 1.16369,-9.375e-4 0.454152,0.1699218 0.755305,0.45422783 0.95683,0.90327113 0.137288,0.3059248 0.161728,0.4330684 0.14205,0.7391057 -0.01378,0.2137967 -0.0795,0.483984 -0.155944,0.6408745 -0.09225,0.1893373 -0.738271,0.8768336 -2.139317,2.2767263 L 11.2081,7.2723516 Z"/>
</svg>
