<svg xmlns="http://www.w3.org/2000/svg" width="16" height="16" version="1.1">
 <g fill="#4d4d4d" color="#000">
  <g>
   <g transform="rotate(45,7.5,7.8)">
    <path d="M 7,3 H 8 V 13 H 7 Z" font-weight="400" overflow="visible"/>
    <path d="m 5,12.516 5,0.002 C 9.652,13.278 9.263,14.053 8.834,14.841 8.4118549,15.607074 7.9669911,16.360408 7.5,17.1 7.0409459,16.357958 6.6008041,15.604382 6.18,14.84 5.7633372,14.07774 5.369824,13.303052 5,12.517 Z" overflow="visible"/>
    <path d="M 10,3.084 5,3.082 C 5.348,2.322 5.737,1.547 6.166,0.759 6.588145,-0.007074 7.033009,-0.760408 7.5,-1.5 7.959054,-0.757958 8.399196,-0.004382 8.82,0.76 9.236663,1.52226 9.630176,2.296948 10,3.083 Z" overflow="visible"/>
   </g>
  </g>
 </g>
</svg>
