<svg xmlns="http://www.w3.org/2000/svg" width="16" height="16" version="1.1">
 <g transform="translate(-31.97559,-220.36218)" style="opacity:0.98">
  <path style="fill:#4d4d4d" d="M 8 0 C 3.587634 0 0 3.58763 0 8 C 0 12.41236 3.587634 16 8 16 C 8.0045945 16 8.0090791 16.000008 8.0136719 16 C 8.0168597 16.000008 8.0202516 16 8.0234375 16 C 8.0234405 15.999969 8.0234345 15.998078 8.0234375 15.998047 C 12.424933 15.985214 16 12.404449 16 8 C 16 3.5955412 12.424932 0.014786064 8.0234375 0.001953125 C 8.0234375 0.0019526557 8.0234375 -2.8912058e-19 8.0234375 0 C 8.0202516 0 8.0168597 -7.8748292e-06 8.0136719 0 C 8.009078 -7.7805874e-06 8.0045956 0 8 0 z M 8.0234375 1 C 11.885415 1.0127396 15 4.1349765 15 8 C 15 11.865024 11.885416 14.987261 8.0234375 15 C 8.0397069 13.192762 8.025857 2.6158467 8.0234375 1 z" transform="translate(31.97559,220.36218)"/>
 </g>
</svg>
