<svg xmlns="http://www.w3.org/2000/svg" width="16" height="16" version="1.1">
 <g transform="matrix(1,0,0,-1,0,18)" style="fill:#4d4d4d">
  <path d="m5 4v4.5c0 1.25 0.393 1.759 1.023 2.09 0.631 0.33 1.594 0.41 2.606 0.41h4.541v1h-8.541c-1.052 0-2.153-0.044-3.07-0.525-0.919-0.482-1.559-1.475-1.559-2.975v-4.5h1v4.5c0 1.25 0.393 1.759 1.023 2.09 0.631 0.33 1.594 0.41 2.606 0.41h0.283c-0.558-0.553-0.912-1.386-0.912-2.5v-4.5z" font-weight="400" overflow="visible" style="fill:#4d4d4d"/>
  <path d="m11 9 2e-3 5c0.76-0.348 1.535-0.737 2.323-1.166 0.78-0.431 1.534-0.876 2.259-1.334-0.725-0.449-1.478-0.889-2.26-1.32a43.084 43.084 0 0 0-2.322-1.18z" overflow="visible" style="fill:#4d4d4d"/>
 </g>
</svg>
