<svg xmlns="http://www.w3.org/2000/svg" width="16" height="16" version="1.1">
 <g transform="matrix(1,0,0,-1,0,18)" style="fill:#4d4d4d">
  <path d="m16 8.5c0 1.5-0.64 2.493-1.558 2.974-0.917 0.482-2.019 0.526-3.071 0.526h-8.54v-1h8.54c1.012 0 1.976-0.08 2.606-0.411 0.631-0.331 1.023-0.839 1.023-2.089v-4.5h1z" font-weight="400" overflow="visible"/>
  <path d="m5 9-2e-3 5a36.975 36.975 0 0 1-2.323-1.166c-0.78-0.431-1.534-0.876-2.259-1.334 0.725-0.449 1.478-0.889 2.26-1.32 0.788-0.43 1.562-0.823 2.323-1.18z" overflow="visible"/>
 </g>
</svg>
