<svg xmlns="http://www.w3.org/2000/svg" width="16" height="16.003" version="1.1">
 <title id="title9167">
  Gnome Symbolic Icon Theme
 </title>
 <g id="layer12" transform="translate(-161 -807)">
  <path d="m169 807c-2.7614 0-5 2.2386-5 5 0 0.17259 0.0142 0.33191 0.0312 0.5 0.0137 0.16725 0.0358 0.33617 0.0625 0.5 0.57248 3.5144 2.9063 6.0034 4.9063 8.0034 2-2 4.3337-4.4889 4.9062-8.0034 0.0267-0.16383 0.0488-0.33275 0.0625-0.5 0.0171-0.16809 0.0312-0.32741 0.0312-0.5 0-2.7614-2.2386-5-5-5zm0 3c1.1046 0 2 0.89543 2 2s-0.89543 2-2 2-2-0.89543-2-2 0.89543-2 2-2z" style="fill:#444444"/>
 </g>
</svg>
