<svg xmlns="http://www.w3.org/2000/svg" version="1.1" viewBox="0 0 22 22">
 <defs>
  <style id="current-color-scheme" type="text/css">
   .ColorScheme-Text { color:#4d4d4d; }
  </style>
 </defs>
 <path class="ColorScheme-Text" d="m 7.7988302,3.7694615 c -0.84051,0.0524 -1.80826,0.31526 -2.966801,0.89453 l -0.335939,0.16797 0.16797,0.3359399 c 0.72764,1.45528 0.89251,2.49874 0.80664,3.3574195 -0.0859,0.85869 -0.43164,1.5566401 -0.80664,2.3066401 -0.375,0.75 -0.77923,1.55205 -0.88086,2.56836 -0.10163,1.01631 0.1085,2.22286 0.88086,3.76758 l 0.16797,0.33594 0.33594,-0.16797 c 1.45528,-0.72764 2.49874,-0.89251 3.35742,-0.80664 0.85869,0.0859 1.5566388,0.43164 2.3066388,0.80664 0.75,0.375 1.55205,0.77923 2.568361,0.88086 1.01631,0.10163 2.22286,-0.1085 3.76758,-0.88086 l 0.33594,-0.16797 -0.16797,-0.33594 c -0.72764,-1.45527 -0.89251,-2.49874 -0.80664,-3.35742 0.0859,-0.85868 0.43164,-1.55664 0.80664,-2.30664 0.375,-0.75 0.77922,-1.5520501 0.88086,-2.5683601 0.10163,-1.0163195 -0.1085,-2.2228595 -0.88086,-3.7675794 l -0.16797,-0.33594 -0.33594,0.16797 c -1.45528,0.7276399 -2.49873,0.8925099 -3.35742,0.8066399 -0.858691,-0.0859 -1.556641,-0.4316399 -2.306641,-0.8066399 -0.75,-0.375 -1.5520488,-0.77923 -2.5683588,-0.88086 -0.25408,-0.0254 -0.52061,-0.0311 -0.80078,-0.0137 z" style="opacity:0.3;fill:currentColor"/>
 <path style="fill:currentColor" class="ColorScheme-Text" d="m 3.0000002,3.0000004 v 3 h 3 v -3 z m 12.9999998,0 v 3 h 3 v -3 z M 3.0000002,16 v 3 h 3 V 16 Z M 16,16 v 3 h 3 v -3 z"/>
</svg>
