<svg xmlns="http://www.w3.org/2000/svg" version="1.1" viewBox="0 0 24 24">
 <defs>
  <style id="current-color-scheme" type="text/css">
   .ColorScheme-Text { color:#4d4d4d; }
  </style>
 </defs>
 <path style="color:#4d4d4d;fill:currentColor" d="M 2 2 L 2 5 L 3 5 L 3 3 L 5 3 L 5 2 L 2 2 z M 19 2 L 19 3 L 21 3 L 21 5 L 22 5 L 22 2 L 19 2 z M 7.625 4.5 C 5.8991102 4.5 4.5 5.8991102 4.5 7.625 C 4.5 9.3508898 5.8991102 10.75 7.625 10.75 C 9.3508898 10.75 10.75 9.3508898 10.75 7.625 C 10.75 5.8991102 9.3508898 4.5 7.625 4.5 z M 13.25 4.5 L 13.25 10.75 L 19.5 10.75 L 19.5 4.5 L 13.25 4.5 z M 5.75 13.25 L 5.75 19.5 L 9.5 19.5 L 9.5 13.25 L 5.75 13.25 z M 16.375 13.25 L 13.25 19.5 L 19.5 19.5 L 16.375 13.25 z M 2 19 L 2 22 L 5 22 L 5 21 L 3 21 L 3 19 L 2 19 z M 21 19 L 21 21 L 19 21 L 19 22 L 22 22 L 22 19 L 21 19 z"/>
</svg>
