<svg xmlns="http://www.w3.org/2000/svg" width="16" height="16" version="1.2">
 <path fill="#4d4d4d" d="M 8 0 C 3.568 0 0 3.568 0 8 C 0 12.432 3.568 16 8 16 C 12.432 16 16 12.432 16 8 C 16 3.568 12.432 0 8 0 z M 4.90625 3.8457031 L 5.4375 4.375 L 8 6.9375 L 10.5625 4.375 L 11.09375 3.8457031 L 12.154297 4.90625 L 11.625 5.4375 L 9.0625 8 L 11.625 10.5625 L 12.154297 11.09375 L 11.09375 12.154297 L 10.5625 11.625 L 8 9.0625 L 5.4375 11.625 L 4.90625 12.154297 L 3.8457031 11.09375 L 4.375 10.5625 L 6.9375 8 L 4.375 5.4375 L 3.8457031 4.90625 L 4.90625 3.8457031 z"/>
</svg>
