<svg xmlns="http://www.w3.org/2000/svg" width="16" height="16" version="1.1">
 <g font-family="sans-serif" font-weight="400" style="fill:#4d4d4d">
  <path d="M5.994 3c-1.258.015-2.179-.03-2.932.385a1.88 1.88 0 0 0-.837.998C2.06 4.82 2 5.343 2 6v7H1v1h2V6c0-.592.063-1.006.16-1.266.098-.26.202-.371.385-.472C3.91 4.06 4.74 4.015 6 4h5c1.259.015 2.087.06 2.453.262.184.1.29.212.387.472.097.26.16.674.16 1.266v8h2v-1h-1V6c0-.658-.06-1.179-.225-1.617a1.88 1.88 0 0 0-.838-.998c-.752-.416-1.673-.37-2.931-.385H5.998z" overflow="visible" style="fill:#4d4d4d"/>
  <path d="M8 7v2H6v1h2v2h1v-2h2V9H9V7z" overflow="visible" style="fill:#4d4d4d"/>
 </g>
</svg>
