<svg xmlns="http://www.w3.org/2000/svg" width="16" height="16" version="1.1">
 <g transform="matrix(1.0672359,0,0,1.0672359,-868.79683,32.017076)" style="fill:#4d4d4d">
  <path style="fill:#4d4d4d" d="m 821.72653,-15.597391 c -0.34232,-0.18595 -6.86011,-6.702454 -7.03712,-7.035723 -0.12462,-0.234633 -0.15753,-0.866165 -0.15753,-3.02237 0,-4.029859 -0.15419,-3.875672 3.87567,-3.875672 2.1562,0 2.78774,0.03292 3.02237,0.157534 0.35725,0.189744 6.86746,6.715687 7.04034,7.057358 0.17419,0.344262 0.14967,0.821823 -0.0583,1.136122 -0.26284,0.397151 -4.85307,5.016729 -5.35631,5.390545 -0.45028,0.334487 -0.93745,0.404939 -1.32908,0.192206 z m -4.23893,-10.578403 c 0.16973,-0.08777 0.36963,-0.306936 0.44423,-0.487035 0.43938,-1.060757 -0.84124,-1.928996 -1.65093,-1.119304 -0.86112,0.861117 0.12061,2.167978 1.2067,1.606339 z"/>
 </g>
</svg>
