<svg xmlns="http://www.w3.org/2000/svg" fill="none" width="16" height="16" version="1.1" viewBox="0 0 16 16">
 <path style="fill:#444444" d="M 14 0 L 0 14 L 2 16 L 16 2 L 14 0 z M 4 2 L 4 6 L 3 6 L 3 4 L 1 4 L 1 6 L 0 6 L 0 8 L 4.5 8 L 6.5 6 L 6 6 L 6 2 L 4 2 z M 7 4 L 7 5.5 L 8.5 4 L 7 4 z M 15 4.5 L 11.5 8 L 16 8 L 16 6 L 15 6 L 15 4.5 z M 1.5 9 C 1.22386 9 1 9.22386 1 9.5 L 1 11.5 L 3.5 9 L 1.5 9 z M 10.5 9 L 7.5 12 L 14.5 12 C 14.7761 12 15 11.7761 15 11.5 L 15 9.5 C 15 9.22386 14.7761 9 14.5 9 L 10.5 9 z"/>
</svg>
