<svg xmlns="http://www.w3.org/2000/svg" width="16" height="16" version="1.1">
 <g transform="translate(-31.999847,-280)">
  <path d="M 35.80469,287 C 35.26826,287 35,287.00015 35,287.625 v 0.75 c 0,0.62485 0.26826,0.625 0.80469,0.625 h 0.39062 C 36.73174,289 37,288.99985 37,288.375 v -0.75 C 37,287.02247 36.73174,287 36.19531,287 Z" style="fill:#4d4d4d"/>
  <path d="M 39.80469,287 C 39.26826,287 39,287.00015 39,287.625 v 0.75 c 0,0.62485 0.26826,0.625 0.80469,0.625 h 0.39062 C 40.73174,289 41,288.99985 41,288.375 v -0.75 C 41,287.02247 40.73174,287 40.19531,287 Z" style="fill:#4d4d4d"/>
  <path d="M 43.80469,287 C 43.26826,287 43,287.00015 43,287.625 v 0.75 c 0,0.62485 0.26826,0.625 0.80469,0.625 h 0.39062 C 44.73174,289 45,288.99985 45,288.375 v -0.75 C 45,287.02247 44.73174,287 44.19531,287 Z" style="fill:#4d4d4d"/>
 </g>
</svg>
