<svg xmlns="http://www.w3.org/2000/svg" width="16.085" height="16.024" version="1.1">
 <title id="title9167">
  Gnome Symbolic Icon Theme
 </title>
 <g id="layer12" transform="translate(-60.952227,-646.97574)">
  <path d="M 71.78125,647 A 1.0001,1.0001 0 0 0 71,648 l 0,4 a 1.0001,1.0001 0 0 0 1,1 l 4,0 a 1.0001,1.0001 0 1 0 0,-2 l -3,0 0,-3 a 1.0001,1.0001 0 0 0 -1.21875,-1 z" style="fill:#241f31"/>
  <path d="m 75.875,647 a 1.0001,1.0001 0 0 0 -0.59375,0.28125 l -4,4 a 1.016466,1.016466 0 1 0 1.4375,1.4375 l 4,-4 A 1.0001,1.0001 0 0 0 75.875,647 z" style="fill:#241f31"/>
  <rect width="1" height="1" x="71" y="652" style="fill:#bdbdbd"/>
  <path d="M 61.90625,653 A 1.0001,1.0001 0 0 0 61,654 l 0,8 a 1.0001,1.0001 0 0 0 1,1 l 8,0 a 1.0001,1.0001 0 0 0 1,-1 l 0,-8 a 1.0001,1.0001 0 0 0 -1,-1 l -8,0 a 1.0001,1.0001 0 0 0 -0.09375,0 z M 63,655 l 6,0 0,6 -6,0 0,-6 z" style="fill:#241f31"/>
  <path d="M 61.90625,655 A 1.001098,1.001098 0 1 0 62,657 l 8,0 a 1.0001,1.0001 0 1 0 0,-2 l -8,0 a 1.0001,1.0001 0 0 0 -0.09375,0 z" style="fill:#241f31;fill-rule:evenodd"/>
  <rect width="1" height="1" x="76" y="652" style="fill:#241f31"/>
  <rect width="1" height="1" x="71" y="647" style="fill:#241f31"/>
  <rect width="1" height="1" x="70" y="662" style="fill:#241f31"/>
  <rect width="1" height="1" x="61" y="662" style="fill:#241f31"/>
 </g>
</svg>
