<svg xmlns="http://www.w3.org/2000/svg" width="24" height="24" version="1.1">
 <g font-weight="400" transform="matrix(1.1146719,0,0,1.1146719,2.8853281,2.8853276)" style="font-weight:400;fill:#4d4d4d">
  <path d="M 7.5,1 A 6.508,6.508 0 0 0 1,7.5 C 1,11.084 3.916,14 7.5,14 11.084,14 14,11.084 14,7.5 14,3.916 11.084,1 7.5,1 Z m 0,1.04 c 3.022,0 5.46,2.438 5.46,5.46 0,3.022 -2.438,5.46 -5.46,5.46 A 5.454,5.454 0 0 1 2.039,7.5 c 0,-3.022 2.44,-5.46 5.461,-5.46 z" overflow="visible" style="fill:#4d4d4d"/>
  <path style="fill:#4d4d4d;fill-rule:evenodd" d="m 11.853,11.146 -0.707,0.708 3.5,3.5 0.707,-0.708 z" overflow="visible"/>
  <path d="M 7,5 V 7 H 5 v 1 h 2 v 2 H 8 V 8 h 2 V 7 H 8 V 5 Z" overflow="visible" style="fill:#4d4d4d"/>
 </g>
</svg>
