<svg width="16" height="16" viewBox="0 0 16 16" fill="none" xmlns="http://www.w3.org/2000/svg">
<path fill-rule="evenodd" clip-rule="evenodd" d="M5 12.5V2.5H11V12.5H5ZM3.5 2C3.5 1.44772 3.94772 1 4.5 1H11.5C12.0523 1 12.5 1.44772 12.5 2V14C12.5 14.5523 12.0523 15 11.5 15H4.5C3.94772 15 3.5 14.5523 3.5 14V2ZM8 14.3C8.27614 14.3 8.5 14.0761 8.5 13.8C8.5 13.5239 8.27614 13.3 8 13.3C7.72386 13.3 7.5 13.5239 7.5 13.8C7.5 14.0761 7.72386 14.3 8 14.3Z" fill="#E6DDFF"/>
<path d="M9.53812 8.06471C9.48047 8.19789 9.41224 8.32048 9.33318 8.43318C9.22542 8.58683 9.13718 8.69318 9.06918 8.75224C8.96377 8.84918 8.85083 8.89883 8.72989 8.90165C8.64306 8.90165 8.53836 8.87695 8.41647 8.82683C8.29419 8.77695 8.18182 8.75224 8.07906 8.75224C7.9713 8.75224 7.85572 8.77695 7.7321 8.82683C7.60829 8.87695 7.50855 8.90307 7.43229 8.90565C7.31631 8.9106 7.20071 8.85954 7.08532 8.75224C7.01167 8.68801 6.91956 8.57789 6.8092 8.42189C6.6908 8.2553 6.59346 8.06212 6.5172 7.84189C6.43553 7.60401 6.39459 7.37365 6.39459 7.15064C6.39459 6.89518 6.44979 6.67485 6.56036 6.49022C6.64725 6.34191 6.76285 6.22492 6.90753 6.13904C7.05222 6.05316 7.20855 6.00939 7.3769 6.00659C7.46902 6.00659 7.58982 6.03509 7.73993 6.09109C7.88963 6.14728 7.98575 6.17577 8.02789 6.17577C8.05939 6.17577 8.16617 6.14245 8.34718 6.07603C8.51836 6.01443 8.66283 5.98892 8.78118 5.99897C9.10189 6.02485 9.34283 6.15128 9.50306 6.37904C9.21624 6.55283 9.07436 6.79624 9.07718 7.1085C9.07977 7.35172 9.168 7.55412 9.34142 7.71483C9.42 7.78942 9.50777 7.84707 9.60542 7.88801C9.58424 7.94942 9.56189 8.00824 9.53812 8.06471V8.06471ZM8.80259 5.17036C8.80259 5.361 8.73295 5.539 8.59412 5.70375C8.42659 5.89961 8.22396 6.01278 8.00422 5.99492C8.00142 5.97205 7.99979 5.94798 7.99979 5.92269C7.99979 5.73968 8.07946 5.54382 8.22095 5.38368C8.29158 5.3026 8.38142 5.23518 8.49036 5.1814C8.59906 5.12842 8.70189 5.09912 8.79859 5.0941C8.80142 5.11959 8.80259 5.14507 8.80259 5.17036V5.17036Z" fill="#E6DDFF"/>
</svg>
