<svg height="24" width="24" xmlns="http://www.w3.org/2000/svg" xmlns:xlink="http://www.w3.org/1999/xlink">
  <linearGradient id="linearGradient3605" gradientTransform="matrix(-.97437 .22495 .22495 .97437 20.993 -2.3917)" gradientUnits="userSpaceOnUse" x1="7" x2="19" y1="12" y2="5">
    <stop offset="0" stop-color="#444" stop-opacity=".5"/>
    <stop offset="1" stop-color="#444" stop-opacity="0"/>
  </linearGradient>
  <linearGradient id="linearGradient3611" gradientTransform="matrix(.97437 -.22495 -.22495 -.97437 3.0073 26.392)" gradientUnits="userSpaceOnUse" x1="7" x2="17" y1="12" y2="12">
    <stop offset="0" stop-color="#444"/>
    <stop offset="1" stop-color="#444" stop-opacity=".5"/>
  </linearGradient>
  <path d="m18.82 10.426-1.947.449c.088.38.105.756.098 1.129.01 0 .019-.004.029-.004.752 0 1.428.295 1.951.762.085-.761.052-1.548-.131-2.336zm-12.513 1.951c-.6166-.066-1.3097.406-1.1269 1.197.8254 3.575 4.2529 5.863 7.8203 5.344v-2.023c-2.649.541-5.2595-1.121-5.8711-3.77-.1097-.475-.4523-.708-.8223-.748z" fill="url(#linearGradient3611)"/>
  <path d="m11.832 5c-.465.0117-.935.071-1.406.1797-3.7676.8696-6.116 4.6276-5.2463 8.3943l1.9492-.449c-.6212-2.691 1.0555-5.3749 3.7461-5.9961 2.691-.6212 5.377 1.0555 5.998 3.7461l1.947-.449c-.761-3.2969-3.733-5.5076-6.988-5.426z" fill="url(#linearGradient3605)"/>
  <path d="m17 13c-1.108 0-2 .91085-2 2.0312v.96875h-1v4h6v-4h-1v-.96875c0-1.12-.892-2.031-2-2.031zm0 1c.554 0 1 .4424 1 1v1h-2v-1c0-.5576.446-1 1-1z" fill="#444"/>
</svg>
