<svg height="24" width="24" xmlns="http://www.w3.org/2000/svg" xmlns:xlink="http://www.w3.org/1999/xlink">
  <linearGradient id="linearGradient3605" gradientTransform="matrix(-.4368 -.89956 -.89956 .4368 28.037 17.553)" gradientUnits="userSpaceOnUse" x1="7" x2="19" y1="12" y2="5">
    <stop offset="0" stop-color="#444" stop-opacity=".5"/>
    <stop offset="1" stop-color="#444" stop-opacity="0"/>
  </linearGradient>
  <linearGradient id="linearGradient3611" gradientTransform="matrix(.4368 .89956 .89956 -.4368 -4.036 6.4469)" gradientUnits="userSpaceOnUse" x1="7" x2="17" y1="12" y2="12">
    <stop offset="0" stop-color="#444"/>
    <stop offset="1" stop-color="#444" stop-opacity=".5"/>
  </linearGradient>
  <path d="m9.3633 5.5938c-.1335.004-.2738.0384-.4199.1093-3.4777 1.6887-4.929 5.8759-3.2403 9.3539 1.3648 2.81 4.3619 4.266 7.2969 3.841v-2.025c-2.186.449-4.4789-.591-5.498-2.689-1.2062-2.484-.1696-5.4758 2.3144-6.682 1.0236-.4969.4816-1.9366-.4531-1.9082z" fill="url(#linearGradient3611)"/>
  <path d="m12.312 5.0059c-1.126-.0515-2.282.1695-3.3686.6972l.873 1.7989c2.4836-1.2062 5.4756-.1696 6.6816 2.3144.343.7066.487 1.4506.482 2.1856.007 0 .013-.002.02-.002.743 0 1.411.288 1.932.744.139-1.263-.039-2.575-.635-3.8026-1.161-2.3909-3.503-3.8224-5.985-3.9355z" fill="url(#linearGradient3605)"/>
  <path d="m17 13c-1.108 0-2 .91085-2 2.0312v.96875h-1v4h6v-4h-1v-.96875c0-1.12-.892-2.031-2-2.031zm0 1c.554 0 1 .4424 1 1v1h-2v-1c0-.5576.446-1 1-1z" fill="#444"/>
</svg>
