<svg fill="none" height="64" viewBox="0 0 64 64" width="64" xmlns="http://www.w3.org/2000/svg" xmlns:xlink="http://www.w3.org/1999/xlink">
  <filter id="filter0_f" color-interpolation-filters="sRGB" filterUnits="userSpaceOnUse" height="69.12" width="69.12" x="-2.56" y="-2.56">
    <feFlood flood-opacity="0" result="BackgroundImageFix"/>
    <feBlend in="SourceGraphic" in2="BackgroundImageFix" mode="normal" result="shape"/>
    <feGaussianBlur result="effect1_foregroundBlur" stdDeviation="3.78"/>
  </filter>
  <clipPath id="clip0">
    <path d="m0 0h64v64h-64z"/>
  </clipPath>
  <g clip-path="url(#clip0)">
    <g filter="url(#filter0_f)" opacity=".4">
      <path clip-rule="evenodd" d="m11 5c-3.31371 0-6 2.68629-6 6v25.125c0 3.3137 2.68629 6 6 6h9.1875v16.875l16.875-16.875h15.9375c3.3137 0 6-2.6863 6-6v-25.125c0-3.31371-2.6863-6-6-6z" fill-rule="evenodd"/>
    </g>
    <path d="m20.1875 59v-16.875h16.875z" fill="#e5a50a"/>
    <path d="m5 11c0-3.31371 2.68629-6 6-6h42c3.3137 0 6 2.68629 6 6v25.125c0 3.3137-2.6863 6-6 6h-42c-3.31371 0-6-2.6863-6-6z" fill="#e5a50a"/>
    <path d="m31.5593 10.9092c-.8699-.0473-1.7187.4686-2.3796 1.6037l-10.3463 19.1923c-.8831 1.5948.0798 3.8799 1.8106 3.8799h21.7789c1.6252 0 3.1504-1.9193 2.0175-3.8799l-10.4497-19.0888c-.66-1.0697-1.5615-1.6598-2.4314-1.7072zm.1035 6.5182c.9013-.0285 1.7357.8058 1.7071 1.7071v6.5182c.0116.8745-.7807 1.6554-1.6554 1.6554-.8746 0-1.6677-.7809-1.6554-1.6554v-6.5182c-.0132-.7724.5862-1.5106 1.345-1.6554.0846-.024.1713-.0413.2587-.0517zm.0517 11.5361c.9143 0 1.6554.7411 1.6554 1.6554 0 .9142-.7411 1.6554-1.6554 1.6554-.9142 0-1.6554-.7412-1.6554-1.6554 0-.9143.7412-1.6554 1.6554-1.6554z" fill="#f6f5f4"/>
  </g>
</svg>
