<svg xmlns="http://www.w3.org/2000/svg" width="16" height="16" version="1.1">
 <path fill="#E6DDFF" fill-rule="evenodd" d="M11.2307 2.00922C13.3126 2.00922 15 3.69122 15 5.76617H14.9996C14.9996 6.84595 14.5421 7.81868 13.8102 8.50385H13.8123L9.48952 12.5316L8.75318 10.6539L10.6463 7.19338L9.03817 7.33588L10.1985 4.77099L8.46819 4.36387V3.2107C9.15639 2.47168 10.1393 2.00922 11.2307 2.00922ZM6.9569 2.70654C6.3401 2.26752 5.58495 2.00922 4.76923 2.00922C2.6874 2.00922 1 3.69122 1 5.76617C1 6.84585 1.45775 7.81858 2.18951 8.50385H2.18851L7.10567 13.2244L7.91858 11.8753L7.30789 10.4911L8.50891 7.98728L7.00254 7.743L7.91858 5.84987L6.39186 5.42239L6.9569 2.70654Z" clip-rule="evenodd"/>
</svg>
