<svg height="64" width="64" xmlns="http://www.w3.org/2000/svg">
  <path d="m32 5c-15.512 0-28 12.488-28 28s12.488 28 28 28 28-12.488 28-28-12.488-28-28-28zm0 16a12 12 0 0 1 12 12 12 12 0 0 1 -12 12 12 12 0 0 1 -12-12 12 12 0 0 1 12-12z" opacity=".2"/>
  <path d="m32 17a15 15 0 0 0 -15 15 15 15 0 0 0 15 15 15 15 0 0 0 15-15 15 15 0 0 0 -15-15zm0 9c3.3138 0 6 2.6862 6 6s-2.6862 6-6 6-6-2.6862-6-6 2.6862-6 6-6z" fill="#858585"/>
  <path d="m32 4c-15.512 0-28 12.488-28 28s12.488 28 28 28 28-12.488 28-28-12.488-28-28-28zm0 16a12 12 0 0 1 12 12 12 12 0 0 1 -12 12 12 12 0 0 1 -12-12 12 12 0 0 1 12-12z" fill="#e4e4e4"/>
  <path d="m32 4c-15.512 0-28 12.488-28 28 0 .11345.0112805.224113.0175781.335938.3515432-15.201757 12.6931499-27.335938 27.9824219-27.335938s27.630879 12.134181 27.982422 27.335938c.006298-.111825.017578-.222488.017578-.335938 0-15.512-12.488-28-28-28zm-11.949219 28.996094a12 12 0 0 0 -.050781 1.003906 12 12 0 0 0 .025391.5 12 12 0 0 1 .02539-.503906 12 12 0 0 0 11.949219 11.003906 12 12 0 0 0 11.949219-10.996094 12 12 0 0 1 .029297.591797 12 12 0 0 0 .021484-.595703 12 12 0 0 0 -.050781-.996094 12 12 0 0 1 -11.949219 10.996094 12 12 0 0 1 -11.949219-11.003906z" fill="#fff" opacity=".2"/>
  <path d="m63.958 45.848a16 16 0 0 1 -15.958 15.152 16 16 0 0 1 -15.958-14.848 16 16 0 0 0 -.042.848 16 16 0 0 0 16 16 16 16 0 0 0 16-16 16 16 0 0 0 -.04296-1.15234z" opacity=".2"/>
  <circle cx="48" cy="46" fill="#ffb522" r="16"/>
  <path d="m55.99996 50.436v3.564h-3.5638l-9.0008-9.0008 3.5638-3.5638zm-15.7172-8.5782c-.37696-.37694-.37696-.9709 0-1.34786l2.2274-2.2274c.37696-.37696.97092-.37696 1.34786 0l1.862 1.874-3.564 3.564z" fill="#fff"/>
</svg>
