<svg height="16" width="16" xmlns="http://www.w3.org/2000/svg">
  <path d="m7.0919985 2.0465708c-3.5555563 0-2.7283812 3.2481694-4.5488281 4.226563-.062744.0356-.098024.06839-.1542969.103515 1.2005478-.714589 2.6803078-1.3120668 4.251953-1.7167968 1.330908-.342378 2.68084-.5344587 3.9257815-.5585937.03199-.000114.0639-.000114.0957 0-1.2005775-.3411657-1.3318585-2.0546875-3.5703095-2.0546875zm3.8750005 2.9550781c-1.2449415.02414-2.5948735.2162148-3.9257815.5585938-4.3864739 1.1287611-7.51264199 3.5833489-6.98242209 5.4824213.3055213 1.085204 1.77756929 1.801316 3.97070309 1.931641-.001-.0082-.00301-.01523-.00391-.02344-.118387-1.026757.533079-1.919941 1.296875-2.525392.7637961-.6054524 1.746269-1.0450844 2.849609-1.2792964 1.10334-.234211 2.1364155-.222891 3.0000005.03711.811893.244438 1.575746.777804 1.763672 1.6933584 2.198075-1.2323334 3.338163-2.7181674 3.007812-3.9199212-.349954-1.2581938-2.258554-2.0079999-4.976558-1.9550749zm-1.3046885 4.9980467a1.8585774 3.5769585 76.001371 0 0 -1.376953.1425774 1.8585774 3.5769585 76.001371 0 0 -3.2792965 2.599611 1.8585774 3.5769585 76.001371 0 0 3.7089845 1.115234 1.8585774 3.5769585 76.001371 0 0 3.2773445-2.599611 1.8585774 3.5769585 76.001371 0 0 -2.3300795-1.2578114z" fill="#e6ddff"/>
</svg>
