<svg width="16" height="16" viewBox="0 0 16 16" fill="none" xmlns="http://www.w3.org/2000/svg">
    <g id="icone">
        <path id="android" d="M4.43857 11.3973C4.43857 11.7124 4.69646 11.9703 5.01165 11.9703H5.58473V13.9761C5.58473 14.4518 5.9687 14.8357 6.44436 14.8357C6.92002 14.8357 7.30398 14.4518 7.30398 13.9761V11.9703H8.45015V13.9761C8.45015 14.4518 8.83411 14.8357 9.30977 14.8357C9.78543 14.8357 10.1694 14.4518 10.1694 13.9761V11.9703H10.7425C11.0577 11.9703 11.3156 11.7124 11.3156 11.3973V5.66643H4.43857V11.3973ZM3.00586 5.66643C2.53021 5.66643 2.14624 6.0504 2.14624 6.52605V10.5376C2.14624 11.0133 2.53021 11.3973 3.00586 11.3973C3.48152 11.3973 3.86549 11.0133 3.86549 10.5376V6.52605C3.86549 6.0504 3.48152 5.66643 3.00586 5.66643ZM12.7483 5.66643C12.2726 5.66643 11.8886 6.0504 11.8886 6.52605V10.5376C11.8886 11.0133 12.2726 11.3973 12.7483 11.3973C13.2239 11.3973 13.6079 11.0133 13.6079 10.5376V6.52605C13.6079 6.0504 13.2239 5.66643 12.7483 5.66643ZM9.90004 2.31963L10.6451 1.57462C10.7597 1.46001 10.7597 1.28235 10.6451 1.16773C10.5304 1.05312 10.3528 1.05312 10.2382 1.16773L9.39 2.0159C8.92104 1.7784 8.40273 1.65472 7.87706 1.65485C7.3269 1.65485 6.81113 1.78666 6.35266 2.0159L5.49877 1.16773C5.38415 1.05312 5.2065 1.05312 5.09188 1.16773C4.97727 1.28235 4.97727 1.46001 5.09188 1.57462L5.84262 2.32536C5.4074 2.64381 5.05343 3.06044 4.80947 3.54139C4.56551 4.02234 4.43843 4.55406 4.43857 5.09335H11.3156C11.3156 3.95291 10.7597 2.94429 9.90004 2.31963V2.31963ZM6.7309 3.94718H6.15782V3.3741H6.7309V3.94718ZM9.59631 3.94718H9.02323V3.3741H9.59631V3.94718Z" fill="#E6DDFF"/>
    </g>
</svg>
