<svg width="16" height="16" viewBox="0 0 16 16" fill="none" xmlns="http://www.w3.org/2000/svg">
    <g id="icone">
        <path id="go" d="M2.03793 7.33937C2.011 7.33937 2.0047 7.32619 2.01788 7.30556L2.15885 7.12504C2.17204 7.10498 2.20527 7.0918 2.23221 7.0918H4.62311C4.64947 7.0918 4.65635 7.11186 4.64317 7.13191L4.52912 7.30556C4.51594 7.32619 4.48213 7.34567 4.46207 7.34567L2.03793 7.33937V7.33937ZM1.02702 7.95543C1.00008 7.95543 0.993205 7.94225 1.00696 7.92219L1.14736 7.7411C1.16055 7.72104 1.19436 7.70786 1.22129 7.70786H4.27467C4.30161 7.70786 4.31479 7.72792 4.30791 7.74798L4.25462 7.90844C4.24774 7.93538 4.22138 7.94856 4.19444 7.94856L1.02702 7.95543V7.95543ZM2.64769 8.5715C2.62076 8.5715 2.61388 8.55144 2.62764 8.53138L2.72105 8.36404C2.73423 8.34398 2.76116 8.32393 2.7881 8.32393H4.12739C4.15433 8.32393 4.16751 8.34398 4.16751 8.37092L4.15433 8.53138C4.15433 8.55832 4.12739 8.57837 4.10733 8.57837L2.64769 8.5715V8.5715ZM9.59861 7.21902C9.17682 7.32619 8.88856 7.40642 8.47365 7.51359C8.37279 7.53995 8.36648 7.54683 8.2788 7.44654C8.17908 7.33249 8.10516 7.25914 7.96475 7.19209C7.54239 6.98463 7.13378 7.04481 6.75268 7.29238C6.29708 7.58694 6.06269 8.02248 6.06957 8.56462C6.07587 9.10045 6.44436 9.5423 6.97332 9.61623C7.42892 9.6764 7.81002 9.51594 8.11203 9.17438C8.17221 9.10045 8.2255 9.02022 8.29255 8.92623H7.00025C6.85985 8.92623 6.82604 8.83913 6.87303 8.72566C6.96014 8.5182 7.1206 8.16977 7.21459 7.99555C7.22894 7.96327 7.25244 7.93592 7.28218 7.91687C7.31193 7.89782 7.34661 7.88792 7.38193 7.88838H9.81924C9.80606 8.06948 9.80606 8.25 9.77913 8.43109C9.70976 8.90785 9.52089 9.35931 9.23012 9.74345C8.74815 10.3796 8.11834 10.775 7.32175 10.8816C6.66557 10.9687 6.05581 10.8415 5.52055 10.4403C5.02484 10.0649 4.74346 9.56923 4.6701 8.95317C4.58299 8.22306 4.79732 7.56688 5.23917 6.99094C5.71483 6.36857 6.34407 5.97314 7.1143 5.83274C7.74354 5.71869 8.34642 5.79262 8.88856 6.16054C9.24387 6.3955 9.49775 6.71643 9.66566 7.10498C9.70577 7.16515 9.67884 7.19896 9.59861 7.21902V7.21902ZM11.8153 10.9223C11.2055 10.9085 10.6496 10.7343 10.1809 10.3326C9.79088 10.0039 9.53381 9.54457 9.45763 9.04028C9.33728 8.28381 9.54474 7.61388 10.0003 7.01787C10.4892 6.37487 11.0783 6.04019 11.8755 5.89979C12.5586 5.77944 13.2016 5.84592 13.7838 6.24134C14.3128 6.60239 14.6412 7.0918 14.7283 7.73422C14.8417 8.63855 14.581 9.37496 13.958 10.0048C13.5162 10.4535 12.9735 10.7343 12.3505 10.8615C12.17 10.8953 11.9895 10.9016 11.8153 10.9223V10.9223ZM13.4085 8.21676C13.4022 8.12965 13.4022 8.0626 13.389 7.99555C13.2686 7.33249 12.6589 6.9577 12.0227 7.10498C11.3998 7.24538 10.9981 7.64081 10.8508 8.27006C10.7304 8.79271 10.9849 9.32166 11.4669 9.53599C11.8353 9.69646 12.2033 9.6764 12.5586 9.49588C13.0875 9.2208 13.3752 8.79271 13.409 8.21676H13.4085Z" fill="#E6DDFF"/>
    </g>
</svg>
