<svg height="16" width="16" xmlns="http://www.w3.org/2000/svg">
  <g fill="#e6ddff" transform="translate(-512 -32)">
    <path d="m526 37v-2h-2.002z"/>
    <path d="m514 39v8h9v-1h-8v-7.667zm11.002-1-.002 9h1v-8z"/>
    <path d="m520 40.986a8.47 8.47 0 0 1 .607-.122c.253-.043.543-.064.872-.064.295 0 .54.043.735.129.195.08.35.197.465.35.119.147.202.326.25.535.047.21.071.44.071.693v3.693h-3z"/>
    <path d="m520 32.293-7.854 7.853.708.708 7.146-7.147 7.146 7.147.708-.708z" fill-rule="evenodd"/>
  </g>
</svg>
