<svg height="16" width="16" xmlns="http://www.w3.org/2000/svg">
  <g fill="#e6ddff" transform="matrix(.14909103 0 0 .14909103 23.15384 17.18571)">
    <path d="m-63.883826-115.2699c-22.295562 0-26.477906 31.755906-13.935406 31.755906 12.540687 0 36.231872-31.755906 13.935406-31.755906z"/>
    <path d="m-100.90505-87.448931c6.678161.407812 14.005193-25.485559 1.45363-23.857029-12.54703 1.62853-8.1345 23.449216-1.45363 23.857029z"/>
    <path d="m-131.51092-71.359369c4.74966-2.090718.61172-22.54025-7.46478-16.963187-8.07288 5.577969 2.71512 19.053 7.46478 16.963187z"/>
    <path d="m-118.12833-82.063087c5.6541-1.152751 5.96404-24.345503-4.1189-20.184903-10.08475 4.161496-1.53066 21.339465 4.1189 20.184903z"/>
    <path d="m-88.603607-30.161244c1.003219 7.661438-5.620563 11.445031-12.107503 6.505969-20.65072-15.722531 34.191909-23.565219 30.576878-45.046062-3.000594-17.829563-57.706378-12.340407-63.935938 15.556687-4.21678 18.869937 17.35741 45.04788 39.868657 45.04788 11.074375 0 23.847968-9.999568 26.23775-22.66713 1.825187-9.659719-21.477219-5.789125-20.639844.602656z"/>
  </g>
</svg>
