<svg xmlns="http://www.w3.org/2000/svg" xmlns:xlink="http://www.w3.org/1999/xlink" width="256" height="256" version="1.1" viewBox="0 0 67.73 67.73">
 <defs>
  <!-- drop shadow -->
  <filter id="drop_shadow" width="1.024" height="1.024" x="-.01" y="-.01" style="color-interpolation-filters:sRGB">
   <feGaussianBlur id="feGaussianBlur1304" stdDeviation="2.08"/>
  </filter>

  <!-- primary shadow -->
  <clipPath id="primary_shadow_clip" clipPathUnits="userSpaceOnUse">
   <path style="fill:#5c6bc0" d="M 192,-164 H 88 c 0,0 -40,0 -40,40 V 4 h 416 v -96 c 0,0 0,-40 -40,-40 H 224 Z"/>
  </clipPath>
  <filter id="primary_shadow" width="1.217" height="1.269" x="-.11" y="-.13" style="color-interpolation-filters:sRGB">
   <feGaussianBlur id="feGaussianBlur1531" stdDeviation="18.8"/>
  </filter>
 </defs>

 <path id="drop_shadow"        fill="#000"    filter="url(#drop_shadow)"    opacity="0.2" d="m 88.000104,-162.00003 c 0,0 -40,0 -40,40 l -0.0352,127.9999949 h 0.0332 l -0.0332,248.0938051 376.035156,-0.0938 c 40,0 40,-40 40,-40 v -208.0000051 -47.9999979 -48 c 0,0 0,-39.999997 -40,-39.999997 h -200 l -32,-32 z" transform="matrix(0.14247782,0,0,0.14247782,-2.5508762,25.5245134)"/>
 <path id="secondary"          fill="#3f51b5" filter="none"                 opacity="1.0" d="m 24.80488,2.1581434 h -14.8176929 c 0,0 -5.6991133,0 -5.6991133,5.69911 v 18.23717 h 59.2707722 v -13.67788 c 0,0 0,-5.69911 -5.699113,-5.69911 h -28.495563 z"/>
 <path id="primary_shadow"     fill="#000"    filter="url(#primary_shadow)" opacity="0.1" clip-path="url(#primary_shadow_clip)" d="m 256,-80 -32,32 h -136 c 0,0 -40,0 -40,40 v 264 h 376 c 40,0 40,-40 40,-40 v -256 c 0,-40 -40,-40 -40,-40 z" transform="matrix(0.14247782,0,0,0.14247782,-2.5508622,25.5245034)"/>
 <path id="primary"            fill="#5c6bc0" filter="none"                 opacity="1.0" d="m 33.923459,13.5563734 -4.559289,4.55929 h -19.3769829 c 0,0 -5.6991133,0 -5.6991133,5.69911 v 37.61414 h 53.5716592 c 5.699113,0 5.699113,-5.69911 5.699113,-5.69911 v -36.47432 c 0,-5.69911 -5.699113,-5.69911 -5.699113,-5.69911 z"/>
 <path id="highlighing_shadow" fill="#000"    filter="none"                 opacity="0.2" d="m 63.558846,54.8749434 c 0,0 0,5.69911 -5.699113,5.69911 l -53.5713812,0.0134 -5.69e-4,0.85487 53.5719372,-0.0134 c 5.699113,0 5.699113,-5.69911 5.699113,-5.69911 z"/>
 <path id="highlighting"       fill="#ffffff" filter="none"                 opacity="0.3" d="m 33.923459,13.5563734 -4.559289,4.55929 h -19.3769829 c 0,0 -5.6991133,0 -5.6991133,5.69911 v 0.56991 c 0,-5.69911 5.6991133,-5.69911 5.6991133,-5.69911 h 19.6036609 l 4.559293,-4.55929 h 23.709592 c 0,0 5.699113,0 5.699113,5.69911 v -0.56991 c 0,-5.69911 -5.699113,-5.69911 -5.699113,-5.69911 z"/>
 <path id="design"             fill="#b6bde3" d="m38.38907324 36.74400123 1.67949234 1.67949234-2.09275117 2.09275117c-.1550382.1550382-.1550382.31007641 0 .46511461l.43918672.43918672c.1550382.1550382.31007641.1550382.46511461 0l2.09275117-2.09275117 3.2296098 3.2296098-2.09275117 2.09275117c-.1550382.15503821-.1550382.30134559 0 .43918672l.43918672.46511461c.1550382.1550382.31007641.1550382.46511461 0l2.09275117-2.09275117 1.62763657 1.62763656c.1550382.15503821.2325573.34447055.2325573.56829703 0 .22409106-.0775191.42225422-.2325573.5944895l-4.13391114 4.13391113c-.17223527.15477363-.37039843.23229273-.59422492.23229273-.22382648 0-.4135234-.0775191-.56829703-.23229273l-8.34534137-8.34534137-4.85751093 4.85724637c-.2754177.27568226-.61142199.41325883-1.00748375.41325883-.39632633 0-.73206606-.13757657-1.00774832-.41325883l-1.96361439-1.98956875c-.27557644-.2754177-.41339112-.6069243-.41339112-.99451981 0-.3875955.13781468-.71910211.41339112-.99478437l4.8572199-4.85724637-8.37103114-8.37126924c-.1550382-.1550382-.23253084-.34447054-.23253084-.5685616 0-.22382648.0774926-.41325883.23253084-.56829703l4.13391114-4.1597332c.17223527-.1550382.37031906-.23253084.59425136-.23253084.22390586 0 .41339112.0774926.56840286.23253084l1.62779531 1.62771594-2.092857 2.09283054c-.15501175.1550382-.15501175.31007641 0 .46511461l.43921317.43918672c.15503821.1550382.31015578.1550382.46519398 0l2.09275118-2.09275117 3.2296098 3.2296098-2.09275117 2.09275117c-.1550382.1550382-.1550382.3100764 0 .4651146l.43918672.43918672c.1550382.15503821.3100764.15503821.4651146 0l2.09275117-2.09275116 1.67922778 1.70515566 8.19030316-8.19030316c.27568227-.27560289.60718887-.41339111.99478438-.41339111.3875955 0 .71910211.13778822.99478437.41339111l1.98930418 1.98930418c.27568227.27568227.4135234.60718887.4135234.99478437 0 .38759551-.13784113.71910211-.4135234.99478438zm-16.17389754 8.29375015c.0344471.13784113.0947162.24975438.18086027.33573973l3.35879948 3.35898469c.0861176.0859854.1980838.14630738.33587202.18070152-.0861176.17223527-.15501175.27568226-.20668233.31007641l-4.54730225 1.39507925c-.41339111 0-.65454695-.0343941-.72344106-.10318242-.0688941-.0690529-.10334116-.31007641-.10334116-.7235998l1.39518508-4.54716996c.0344471-.0343942.13778822-.103447.31004995-.20662942z"/>
</svg>
