<svg xmlns="http://www.w3.org/2000/svg" width="256" height="256" version="1.1" viewBox="0 0 67.73 67.73">
 <defs>
  <filter id="drop_shadow" width="1.023" height="1.025" x="-.01" y="-.01" style="color-interpolation-filters:sRGB">
   <feGaussianBlur id="feGaussianBlur1837" stdDeviation="2.16"/>
  </filter>
 </defs>
 <path id="drop_shadow"         filter="url(#drop_shadow)" fill="#000"    opacity="0.2"  d="m 2024.0547,-770.01562 c 0,0 -40,0 -40,40 v 143.30468 c -8.5017,5.56897 -16,15.37992 -16,32.69532 l 16,200 h 376 c 40,0 40,-40 40,-40 l 16,-192 c 0,-17.3154 -7.4983,-27.12635 -16,-32.69532 v -79.30468 c 0,0 0,-40 -40,-40 h -200 l -32,-32 z" transform="matrix(0.13275614,0,0,0.13275614,-257.01144,108.7481334)"/>
 <path id="secondary"           filter="none"              fill="#33d17a" opacity="1.0"  d="m 25.500824,6.2582134 h -13.806628 c 0,0 -5.3102442,0 -5.3102442,5.31024 v 21.24098 h 55.2265392 v -16.99278 c 0,0 0,-5.31025 -5.310243,-5.31025 h -26.551219 z"/>
 <rect id="paper"               filter="none"              fill="#f6f5f4" opacity="1.0"  width="46.09" height="33.734" x="10.56" y="16.84" ry="1.919"/>
 <path id="primary"             filter="none"              fill="#57e389" opacity="1.0"  d="m 33.997209,25.3750934 -4.24818,4.2482 h -20.1789362 c 0,0 -5.310244,0 -5.310244,5.31024 l 2.124103,26.55123 h 49.9162962 c 5.310243,0 5.310243,-5.31024 5.310243,-5.31024 l 2.124103,-25.48918 c 0,-5.31025 -5.310243,-5.31025 -5.310243,-5.31025 z"/>
 <path id="highlighting_shadow" filter="none"              fill="#000"    opacity="0.2"  d="m 61.610571,55.3780834 c 0,0 0,5.31025 -5.310244,5.31025 h -49.9163222 v 0.79654 h 49.9163222 c 5.310244,0 5.310244,-5.31025 5.310244,-5.31025 z"/>
 <path id="highlighting"        filter="none"              fill="#fff"    opacity="0.3"  d="m 33.997288,25.3751934 -4.248206,4.2482 h -20.1789362 c 0,0 -5.310244,0 -5.310244,5.31024 l 0.01085,0.13795 c 0.255893,-4.91633 5.299344,-4.91716 5.299344,-4.91716 h 20.1789362 l 4.248206,-4.2482 h 24.427116 c 0,0 5.040752,7.9e-4 5.299105,4.91327 l 0.01111,-0.13405 c 0,-5.31025 -5.31027,-5.31025 -5.31027,-5.31025 z"/>
 <path id="person"                                         fill="#2ec27e" d="m 28.64162874,40.67126026 c -0.069544,0.0166286 -0.13908857,0.04384 -0.20409715,0.0786154 -0.65008708,0.34318572 -0.8163884,1.41507319 -0.37191028,2.40683395 0.358304,0.79824639 0.99327251,1.29110313 1.57079171,1.27598479 0.43389543,2.65023862 2.16191743,4.6262009 4.21800674,4.6262009 h 0.0181429 c 2.05760108,0 3.78562319,-1.97596228 4.21951851,-4.6262009 0.57600737,0.01512 1.21248794,-0.47773829 1.57079171,-1.27598479 0.44447828,-0.99176076 0.27817657,-2.06364847 -0.37191028,-2.40683395 -0.0665206,-0.0347714 -0.13455315,-0.0619851 -0.20409715,-0.0786154 -0.0831508,-2.89817879 -2.38566828,-5.21883839 -5.22186205,-5.21883839 -2.83468187,0 -5.14022318,2.3206596 -5.22337466,5.21883839 z m 8.84269576,8.38763485 c -0.43691886,1.05979308 -1.92607188,1.85501582 -3.70247257,1.85501582 -1.76884148,0 -3.24438794,-0.78463994 -3.68886605,-1.83687388 -3.73119731,0.390052 -6.4509801,1.34552903 -6.77753548,2.47486628 -0.004535,0.0105829 0.003024,0.0241886 0,0.0347714 -0.0105829,0.0408171 -0.0105829,0.0771034 -0.01512,0.11792286 -0.001512,0.0196514 -0.0181429,0.0317486 -0.0181429,0.0514 v 0.0136057 2.79688617 c 0,0.29783085 0.23735714,0.53972342 0.53065257,0.53972342 h 20.10583186 c 0.29329486,0 0.52914057,-0.24189257 0.52914057,-0.53972342 v -2.79688617 -0.0332571 c -0.003024,-0.0650086 -0.0317486,-0.12094629 -0.0498914,-0.18595486 -0.33411428,-1.14294371 -3.11285868,-2.11051514 -6.91208838,-2.4914964 z"/>
</svg>