<svg xmlns="http://www.w3.org/2000/svg" xmlns:xlink="http://www.w3.org/1999/xlink" width="256" height="256" version="1.1" viewBox="0 0 67.73 67.73">
 <defs>
  <!-- drop shadow -->
  <filter id="drop_shadow" width="1.024" height="1.024" x="-.01" y="-.01" style="color-interpolation-filters:sRGB">
   <feGaussianBlur id="feGaussianBlur1304" stdDeviation="2.08"/>
  </filter>

  <!-- primary shadow -->
  <clipPath id="primary_shadow_clip" clipPathUnits="userSpaceOnUse">
   <path style="fill:#ececec" d="M 192,-164 H 88 c 0,0 -40,0 -40,40 V 4 h 416 v -96 c 0,0 0,-40 -40,-40 H 224 Z"/>
  </clipPath>
  <filter id="primary_shadow" width="1.217" height="1.269" x="-.11" y="-.13" style="color-interpolation-filters:sRGB">
   <feGaussianBlur id="feGaussianBlur1531" stdDeviation="18.8"/>
  </filter>
 </defs>

 <path id="drop_shadow"        fill="#000"    filter="url(#drop_shadow)"    opacity="0.2" d="m 88.000104,-162.00003 c 0,0 -40,0 -40,40 l -0.0352,127.9999949 h 0.0332 l -0.0332,248.0938051 376.035156,-0.0938 c 40,0 40,-40 40,-40 v -208.0000051 -47.9999979 -48 c 0,0 0,-39.999997 -40,-39.999997 h -200 l -32,-32 z" transform="matrix(0.14247782,0,0,0.14247782,-2.5508762,25.5245134)"/>
 <path id="secondary"          fill="#b3b3b3" filter="none"                 opacity="1.0" d="m 24.80488,2.1581434 h -14.8176929 c 0,0 -5.6991133,0 -5.6991133,5.69911 v 18.23717 h 59.2707722 v -13.67788 c 0,0 0,-5.69911 -5.699113,-5.69911 h -28.495563 z"/>
 <path id="primary_shadow"     fill="#000"    filter="url(#primary_shadow)" opacity="0.1" clip-path="url(#primary_shadow_clip)" d="m 256,-80 -32,32 h -136 c 0,0 -40,0 -40,40 v 264 h 376 c 40,0 40,-40 40,-40 v -256 c 0,-40 -40,-40 -40,-40 z" transform="matrix(0.14247782,0,0,0.14247782,-2.5508622,25.5245034)"/>
 <path id="primary"            fill="#ececec" filter="none"                 opacity="1.0" d="m 33.923459,13.5563734 -4.559289,4.55929 h -19.3769829 c 0,0 -5.6991133,0 -5.6991133,5.69911 v 37.61414 h 53.5716592 c 5.699113,0 5.699113,-5.69911 5.699113,-5.69911 v -36.47432 c 0,-5.69911 -5.699113,-5.69911 -5.699113,-5.69911 z"/>
 <path id="highlighing_shadow" fill="#000"    filter="none"                 opacity="0.2" d="m 63.558846,54.8749434 c 0,0 0,5.69911 -5.699113,5.69911 l -53.5713812,0.0134 -5.69e-4,0.85487 53.5719372,-0.0134 c 5.699113,0 5.699113,-5.69911 5.699113,-5.69911 z"/>
 <path id="highlighting"       fill="#ffffff" filter="none"                 opacity="0.3" d="m 33.923459,13.5563734 -4.559289,4.55929 h -19.3769829 c 0,0 -5.6991133,0 -5.6991133,5.69911 v 0.56991 c 0,-5.69911 5.6991133,-5.69911 5.6991133,-5.69911 h 19.6036609 l 4.559293,-4.55929 h 23.709592 c 0,0 5.699113,0 5.699113,5.69911 v -0.56991 c 0,-5.69911 -5.699113,-5.69911 -5.699113,-5.69911 z"/>
 <path id="app"                fill="#4c5561" d="m34.15303796 23.97319224c-7.30769659 0-13.22851562 5.92081902-13.22851562 13.22851563 0 7.3076966 5.92081903 13.22851562 13.22851562 13.22851562 7.30769661 0 13.22851563-5.92081902 13.22851563-13.22851562 0-7.30769659-5.92081902-13.22851561-13.22851563-13.22851563zm-5.01969253 19.00937695c-.0812231.13863485-.19736945.25319379-.33706258.33256489-.13942855.0793711-.29737703.12037949-.45797121.11932121-.16350445.001323-.32409863-.0428604-.46405633-.12752289-.1042407-.060322-.19525289-.14075141-.26827429-.23652586-.0730214-.0955099-.12646461-.20477742-.15715477-.32118836-.0309547-.11641094-.0383627-.23758414-.0219593-.35690535.0161388-.11932121.0558243-.23414473.11667551-.33785629l.90297848-1.50143653c.0455061-.0772545.11059039-.14154511.1889032-.1862575.0780482-.0444478.16641472-.06773.25636863-.0674654h.13334344c.65507609 0 1.11331187.39368063 1.24665531.77519102zm7.64475918-2.95260468-5.91341106.00635h-3.92992742c-.1238189.00052914-.24631496-.0240759-.36008019-.0722277-.11376524-.0481518-.21668309-.11905664-.30240387-.20821684-.0856679-.0891602-.15228667-.19498832-.19588786-.31060554-.0436012-.11561723-.0632323-.23917157-.0577028-.3627259.0188903-.49606934.45175381-.87149461.94491287-.87149461h2.84889313l3.37724004-5.74911289-1.09373367-1.86336871c-.2460504-.42463536-.13678286-.98446614.28547136-1.25141758.10397614-.0672009.22065164-.11270696.34288313-.13387257.12196691-.0211656.24737324-.0171971.3680173.0113765.12064406.028309.23414473.0809585.33388774.15450905.099743.0735506.18361179.1666793.24657953.2735657l.58470039.99848836h.006614l.58522953-.99848836c.0629677-.10635726.14657195-.19895687.24631496-.27197828.0994784-.073286.21271453-.12567088.33282945-.15424449.12011492-.028309.24499211-.0325421.36669445-.0116411.12170235.0206365.23811329.0656134.34208942.13228515.41987308.26695144.52808234.82678222.27991539 1.25326958l-1.09373367 1.86336869-1.06304352 1.81230665-2.30837597 3.93654167v.006614h3.40210964c.42648735 0 .96091938.22911789 1.17707332.59766433l.0187845.0383627c.19075519.32409864.29896445.54686683.29896445.87096548-.003175.10529898-.0267216.20901054-.0690528.30531414zm4.59161777.00635h-1.60117953v.006614l1.17072363 1.99062703c.1256709.20980426.16429816.46035235.10715098.69820106-.0571472.23784871-.20530657.44368441-.41246512.57332386-.14392625.0875728-.30901813.13413715-.47728484.13413715-.16006504 0-.31748438-.0415375-.45664836-.12037949-.13942856-.078842-.2558395-.19234262-.33812086-.32965461l-1.72976071-2.94440301-1.07494918-1.83082656-1.386613-2.37055c-.20080887-.33838543-.31007641-.72333523-.31669067-1.11701586-.006879-.39341605.0891602-.78206984.27832797-1.12706953.27409485-.48363453.48363453-.61062828.48363453-.61062828l3.08462528 5.21706199h2.65205281c.49606933 0 .92176297.38151039.94504515.87096547.004762.12434805-.0158742.24869609-.060322.36510703-.0441832.11614637-.11164867.22250363-.19816316.31219297-.0865145.0894248-.19022606.16085875-.30504957.20927512-.11455895.0486809-.23811328.0735505-.36246133.0730214z"/>
</svg>
