<svg xmlns="http://www.w3.org/2000/svg" xmlns:xlink="http://www.w3.org/1999/xlink" width="256" height="256" version="1.1" viewBox="0 0 67.73 67.73">
 <defs>
  <!-- drop shadow -->
  <filter id="drop_shadow" width="1.024" height="1.024" x="-.01" y="-.01" style="color-interpolation-filters:sRGB">
   <feGaussianBlur id="feGaussianBlur1304" stdDeviation="2.08"/>
  </filter>

  <!-- primary shadow -->
  <clipPath id="primary_shadow_clip" clipPathUnits="userSpaceOnUse">
   <path style="fill:#ffa348" d="M 192,-164 H 88 c 0,0 -40,0 -40,40 V 4 h 416 v -96 c 0,0 0,-40 -40,-40 H 224 Z"/>
  </clipPath>
  <filter id="primary_shadow" width="1.217" height="1.269" x="-.11" y="-.13" style="color-interpolation-filters:sRGB">
   <feGaussianBlur id="feGaussianBlur1531" stdDeviation="18.8"/>
  </filter>
 </defs>

 <path id="drop_shadow"        fill="#000"    filter="url(#drop_shadow)"    opacity="0.2" d="m 88.000104,-162.00003 c 0,0 -40,0 -40,40 l -0.0352,127.9999949 h 0.0332 l -0.0332,248.0938051 376.035156,-0.0938 c 40,0 40,-40 40,-40 v -208.0000051 -47.9999979 -48 c 0,0 0,-39.999997 -40,-39.999997 h -200 l -32,-32 z" transform="matrix(0.14247782,0,0,0.14247782,-2.5508762,25.5245134)"/>
 <path id="secondary"          fill="#ff7800" filter="none"                 opacity="1.0" d="m 24.80488,2.1581434 h -14.8176929 c 0,0 -5.6991133,0 -5.6991133,5.69911 v 18.23717 h 59.2707722 v -13.67788 c 0,0 0,-5.69911 -5.699113,-5.69911 h -28.495563 z"/>
 <path id="primary_shadow"     fill="#000"    filter="url(#primary_shadow)" opacity="0.1" clip-path="url(#primary_shadow_clip)" d="m 256,-80 -32,32 h -136 c 0,0 -40,0 -40,40 v 264 h 376 c 40,0 40,-40 40,-40 v -256 c 0,-40 -40,-40 -40,-40 z" transform="matrix(0.14247782,0,0,0.14247782,-2.5508622,25.5245034)"/>
 <path id="primary"            fill="#ffa348" filter="none"                 opacity="1.0" d="m 33.923459,13.5563734 -4.559289,4.55929 h -19.3769829 c 0,0 -5.6991133,0 -5.6991133,5.69911 v 37.61414 h 53.5716592 c 5.699113,0 5.699113,-5.69911 5.699113,-5.69911 v -36.47432 c 0,-5.69911 -5.699113,-5.69911 -5.699113,-5.69911 z"/>
 <path id="highlighing_shadow" fill="#000"    filter="none"                 opacity="0.2" d="m 63.558846,54.8749434 c 0,0 0,5.69911 -5.699113,5.69911 l -53.5713812,0.0134 -5.69e-4,0.85487 53.5719372,-0.0134 c 5.699113,0 5.699113,-5.69911 5.699113,-5.69911 z"/>
 <path id="highlighting"       fill="#ffffff" filter="none"                 opacity="0.3" d="m 33.923459,13.5563734 -4.559289,4.55929 h -19.3769829 c 0,0 -5.6991133,0 -5.6991133,5.69911 v 0.56991 c 0,-5.69911 5.6991133,-5.69911 5.6991133,-5.69911 h 19.6036609 l 4.559293,-4.55929 h 23.709592 c 0,0 5.699113,0 5.699113,5.69911 v -0.56991 c 0,-5.69911 -5.699113,-5.69911 -5.699113,-5.69911 z"/>
 <path id="bitbucket"          fill="#e66100" d="m35.47774152 36.58843388c.0865145.6817977-.18678664 1.22839996-.8199034 1.6398068-.63311676.41114226-1.23660164.44368441-1.81019008.0973619-.42225422-.18414093-.71169414-.49792132-.86858433-.94160574-.1568902-.44368441-.1595359-.8876334-.008202-1.33131781.15159879-.44368442.4331016-.75772938.84424386-.94160574.38971207-.19472375.78206985-.25980805 1.17707332-.19472375.39500348.0648197.74132602.25689777 1.03896762.57623414.2976416.31933636.44659469.6844434.44659501 1.0958502zm1.8019884-.34103113c-.15159879-1.15802426-.76302078-2.04539309-1.83453055-2.66237106-1.07150976-.61697797-2.13746355-.68735367-3.19839051-.21112711-.68179769.30293301-1.22548968.78206985-1.63160511 1.43688137-.40585086.65481153-.59237293 1.35565828-.56009535 2.1022757.0433895.98499528.46273347 1.82368317 1.2582964 2.51659282.79556293.69264508 1.69113344.99557808 2.68697609.90906359.98473071-.0865145 1.80754438-.54104629 2.46764731-1.36385996.66010293-.8225491.93075836-1.7316127.81170172-2.72745535zm3.8801882-8.79934403c-.21641851-.29208562-.51961609-.53284461-.90906359-.72227695-.38971207-.18943234-.70349246-.30848898-.94160574-.35716992-.23811329-.0488132-.62253395-.11646385-1.15273286-.20303126-3.14970957-.5087158-6.21264007-.49789487-9.18905609.0324628-.46537918.0757465-.8225491.14069849-1.07150976.19490895-.24896067.0539723-.54660227.17302898-.89292481.35716992-.34632253.18387637-.61697796.41669824-.81172817.69793649.32465423.30319757.73606106.54924796 1.23371782.73868031.49792133.18943234.89583508.30848898 1.19347668.35716992.2976416.0486809.77095789.11111953 1.42047801.18678664 2.4676473.31378039 4.89216964.31933637 7.27330246.0161388.68179769-.0865145 1.16622593-.15133422 1.45302015-.19472375.28679422-.0433895.67915199-.1595359 1.17707332-.34896824.49792133-.18943235.90377219-.44103871 1.21755258-.75508371zm.92546695 16.80338969c-.0865145.28123824-.17038328.69529078-.25160636 1.24189305-.0812231.54660227-.1568902 1.00113406-.2272659 1.36359539-.0703757.3627259-.2246202.74159059-.46273348 1.13659406-.23811328.39500348-.55215824.70084676-.94160574.91726528-.93102293.51961609-1.95649746.90641789-3.07668816 1.16066996-1.12019071.25451664-2.21339524.37357328-3.27934903.35716992-1.06621836-.0161388-2.15651261-.11614637-3.27141191-.30028731-.49792133-.0865145-.93896004-.18387636-1.32311613-.29208562s-.79820863-.25451664-1.24189305-.43839301c-.44394898-.18414094-.83895246-.41934394-1.185275-.70613816-.34632254-.28705879-.62774598-.61962367-.84421741-.99848836-.27057606-1.03923219-.57903858-2.6192461-.92538758-4.74057086l.0974148-.25980805.29221791-.14630738c2.4136485 1.60197324 5.15459694 2.40282758 8.22308342 2.40282758 3.06848649 0 5.81472633-.80085434 8.23924867-2.40282758.2272659.0650843.35716993.18943234.38971207.37357328.0322776.18387637.005291.42754563-.0812231.73047863-.0867791.30319758-.12990403.50321274-.12990402.60083918zm2.93858247-15.6019759c-.28150282 1.80754438-.88207743 5.35225743-1.80225297 10.63387457-.0539723.32489235-.20027973.62782536-.43839301.90932817-.23811328.28123824-.47331629.49792133-.70613817.64925555-.2325573.15159878-.5275532.31933636-.88472312.5034773-2.72745535 1.36359539-6.02876371 1.83982195-9.90339594 1.42867969-2.68406581-.2923502-4.81650253-1.0445236-6.39656935-2.25678477-.1623668-.12990402-.30036668-.27330113-.41399963-.43019133-.11363294-.15689019-.2056505-.34632254-.27599975-.56829703-.0703492-.22197449-.11905664-.40585086-.14612217-.55189367-.0270391-.14630738-.0595283-.35981562-.0973883-.64131844-.0378865-.28150281-.0676506-.47093515-.0892925-.56829703-.0974148-.54104629-.24083836-1.35274801-.43024424-2.43510515-.18940589-1.08235715-.34092531-1.95649747-.45458471-2.62215637-.11363295-.66565889-.2408119-1.46386752-.3815104-2.39462588-.14069849-.93075836-.25975513-1.78584961-.35716992-2.56500918.0324628-.28150281.12717895-.54395656.28412206-.78736125.15691665-.24366926.32740576-.44659469.51138796-.60888212.18400865-.1623668.42751917-.32470714.73058446-.48707394.30303883-.16234035.55197304-.2840956.74680262-.36526578.19482958-.0811966.4545847-.18131003.77929186-.30036667 1.35277446-.49786842 3.04681817-.84421741 5.08162844-1.03902053 4.10189811-.40048009 7.76011182-.12987757 10.97464112.81172817 1.67764035.49789487 2.84122059 1.15810363 3.4907407 1.98067919.17302899.21641852.26245375.49236535.26774516.82810508.005556.33547515-.0243405.62756078-.0891602.87652142z"/>
</svg>
