<svg xmlns="http://www.w3.org/2000/svg" xmlns:xlink="http://www.w3.org/1999/xlink" width="256" height="256" version="1.1" viewBox="0 0 67.73 67.73">
 <defs>
  <!-- drop shadow -->
  <filter id="drop_shadow" width="1.024" height="1.024" x="-.01" y="-.01" style="color-interpolation-filters:sRGB">
   <feGaussianBlur id="feGaussianBlur1304" stdDeviation="2.08"/>
  </filter>

  <!-- primary shadow -->
  <clipPath id="primary_shadow_clip" clipPathUnits="userSpaceOnUse">
   <path style="fill:#853e64" d="M 192,-164 H 88 c 0,0 -40,0 -40,40 V 4 h 416 v -96 c 0,0 0,-40 -40,-40 H 224 Z"/>
  </clipPath>
  <filter id="primary_shadow" width="1.217" height="1.269" x="-.11" y="-.13" style="color-interpolation-filters:sRGB">
   <feGaussianBlur id="feGaussianBlur1531" stdDeviation="18.8"/>
  </filter>
 </defs>

 <path id="drop_shadow"        fill="#000"    filter="url(#drop_shadow)"    opacity="0.2" d="m 88.000104,-162.00003 c 0,0 -40,0 -40,40 l -0.0352,127.9999949 h 0.0332 l -0.0332,248.0938051 376.035156,-0.0938 c 40,0 40,-40 40,-40 v -208.0000051 -47.9999979 -48 c 0,0 0,-39.999997 -40,-39.999997 h -200 l -32,-32 z" transform="matrix(0.14247782,0,0,0.14247782,-2.5508762,25.5245134)"/>
 <path id="secondary"          fill="#4c1a35" filter="none"                 opacity="1.0" d="m 24.80488,2.1581434 h -14.8176929 c 0,0 -5.6991133,0 -5.6991133,5.69911 v 18.23717 h 59.2707722 v -13.67788 c 0,0 0,-5.69911 -5.699113,-5.69911 h -28.495563 z"/>
 <path id="primary_shadow"     fill="#000"    filter="url(#primary_shadow)" opacity="0.1" clip-path="url(#primary_shadow_clip)" d="m 256,-80 -32,32 h -136 c 0,0 -40,0 -40,40 v 264 h 376 c 40,0 40,-40 40,-40 v -256 c 0,-40 -40,-40 -40,-40 z" transform="matrix(0.14247782,0,0,0.14247782,-2.5508622,25.5245034)"/>
 <path id="primary"            fill="#853e64" filter="none"                 opacity="1.0" d="m 33.923459,13.5563734 -4.559289,4.55929 h -19.3769829 c 0,0 -5.6991133,0 -5.6991133,5.69911 v 37.61414 h 53.5716592 c 5.699113,0 5.699113,-5.69911 5.699113,-5.69911 v -36.47432 c 0,-5.69911 -5.699113,-5.69911 -5.699113,-5.69911 z"/>
 <path id="highlighing_shadow" fill="#000"    filter="none"                 opacity="0.2" d="m 63.558846,54.8749434 c 0,0 0,5.69911 -5.699113,5.69911 l -53.5713812,0.0134 -5.69e-4,0.85487 53.5719372,-0.0134 c 5.699113,0 5.699113,-5.69911 5.699113,-5.69911 z"/>
 <path id="highlighting"       fill="#ffffff" filter="none"                 opacity="0.3" d="m 33.923459,13.5563734 -4.559289,4.55929 h -19.3769829 c 0,0 -5.6991133,0 -5.6991133,5.69911 v 0.56991 c 0,-5.69911 5.6991133,-5.69911 5.6991133,-5.69911 h 19.6036609 l 4.559293,-4.55929 h 23.709592 c 0,0 5.699113,0 5.699113,5.69911 v -0.56991 c 0,-5.69911 -5.699113,-5.69911 -5.699113,-5.69911 z"/>
 <path id="star"               fill="#ddcad4" d="m 33.86500266,24.07589844 c -1.19252559,0 -2.04237645,0.71396058 -2.44150054,1.87173612 l 0.0129,-0.0518125 -1.87310942,6.47082496 h -6.31690075 c -0.013725,-2.1513e-4 -0.0282125,-2.1513e-4 -0.0419812,0 -0.75457088,0.0238125 -1.43572359,0.36440491 -1.91509348,0.93263046 -1.03673175,1.1586781 -0.81592137,2.98297235 0.50057363,3.84710146 l 4.96697407,3.53622397 -1.92801104,6.58994218 c -0.00215,0.00645 -0.004465,0.0129 -0.00645,0.0194312 -0.29457931,0.94218759 -0.0175625,1.91368292 0.72340783,2.57768645 0.005291,0.004961 0.0138875,0.0081 0.0193812,0.0129 0.89041948,0.77069481 2.13997318,0.86783842 3.14553194,0.22991994 0.0191312,-0.0120687 0.0396875,-0.0225875 0.058125,-0.0356375 l 5.09615548,-3.58473008 5.09614797,3.58479958 c 0.0184375,0.0130625 0.039025,0.0235812 0.0581375,0.0356375 1.00555876,0.63791854 2.25511083,0.54077487 3.14553025,-0.22991994 0.005457,-0.004795 0.0140562,-0.007937 0.0193812,-0.0129 0.74097532,-0.66402009 1.01798701,-1.63549892 0.72340783,-2.57768645 -0.001984,-0.00645 -0.004299,-0.0129 -0.00645,-0.0194312 l -1.92801104,-6.58994224 4.96696913,-3.53622397 c 1.31649331,-0.86412892 1.53730363,-2.68842318 0.50057363,-3.84710127 -0.47936989,-0.56822549 -1.16052585,-0.90881666 -1.91509342,-0.93263066 -0.013725,-2.1531e-4 -0.0282562,-2.1531e-4 -0.0419812,0 h -6.31690074 l -1.87310812,-6.47082489 0.0129125,0.0518125 c -0.39913303,-1.15784504 -1.24898358,-1.87180562 -2.44151111,-1.87180562 z" style="fill:currentColor;"/>
</svg>

