<svg xmlns="http://www.w3.org/2000/svg" xmlns:xlink="http://www.w3.org/1999/xlink" width="256" height="256" version="1.1" viewBox="0 0 67.73 67.73">
 <defs>
  <!-- drop shadow -->
  <filter id="drop_shadow" width="1.024" height="1.024" x="-.01" y="-.01" style="color-interpolation-filters:sRGB">
   <feGaussianBlur id="feGaussianBlur1304" stdDeviation="2.08"/>
  </filter>

  <!-- primary shadow -->
  <clipPath id="primary_shadow_clip" clipPathUnits="userSpaceOnUse">
   <path style="fill:#413260" d="M 192,-164 H 88 c 0,0 -40,0 -40,40 V 4 h 416 v -96 c 0,0 0,-40 -40,-40 H 224 Z"/>
  </clipPath>
  <filter id="primary_shadow" width="1.217" height="1.269" x="-.11" y="-.13" style="color-interpolation-filters:sRGB">
   <feGaussianBlur id="feGaussianBlur1531" stdDeviation="18.8"/>
  </filter>
 </defs>

 <path id="drop_shadow"        fill="#000"    filter="url(#drop_shadow)"    opacity="0.2" d="m 88.000104,-162.00003 c 0,0 -40,0 -40,40 l -0.0352,127.9999949 h 0.0332 l -0.0332,248.0938051 376.035156,-0.0938 c 40,0 40,-40 40,-40 v -208.0000051 -47.9999979 -48 c 0,0 0,-39.999997 -40,-39.999997 h -200 l -32,-32 z" transform="matrix(0.14247782,0,0,0.14247782,-2.5508762,25.5245134)"/>
 <path id="secondary"          fill="#FC429D" filter="none"                 opacity="1.0" d="m 24.80488,2.1581434 h -14.8176929 c 0,0 -5.6991133,0 -5.6991133,5.69911 v 18.23717 h 59.2707722 v -13.67788 c 0,0 0,-5.69911 -5.699113,-5.69911 h -28.495563 z"/>
 <path id="primary_shadow"     fill="#000"    filter="url(#primary_shadow)" opacity="0.1" clip-path="url(#primary_shadow_clip)" d="m 256,-80 -32,32 h -136 c 0,0 -40,0 -40,40 v 264 h 376 c 40,0 40,-40 40,-40 v -256 c 0,-40 -40,-40 -40,-40 z" transform="matrix(0.14247782,0,0,0.14247782,-2.5508622,25.5245034)"/>
 <path id="primary"            fill="#413260" filter="none"                 opacity="1.0" d="m 33.923459,13.5563734 -4.559289,4.55929 h -19.3769829 c 0,0 -5.6991133,0 -5.6991133,5.69911 v 37.61414 h 53.5716592 c 5.699113,0 5.699113,-5.69911 5.699113,-5.69911 v -36.47432 c 0,-5.69911 -5.699113,-5.69911 -5.699113,-5.69911 z"/>
 <path id="highlighing_shadow" fill="#000"    filter="none"                 opacity="0.2" d="m 63.558846,54.8749434 c 0,0 0,5.69911 -5.699113,5.69911 l -53.5713812,0.0134 -5.69e-4,0.85487 53.5719372,-0.0134 c 5.699113,0 5.699113,-5.69911 5.699113,-5.69911 z"/>
 <path id="highlighting"       fill="#ffffff" filter="none"                 opacity="0.3" d="m 33.923459,13.5563734 -4.559289,4.55929 h -19.3769829 c 0,0 -5.6991133,0 -5.6991133,5.69911 v 0.56991 c 0,-5.69911 5.6991133,-5.69911 5.6991133,-5.69911 h 19.6036609 l 4.559293,-4.55929 h 23.709592 c 0,0 5.699113,0 5.699113,5.69911 v -0.56991 c 0,-5.69911 -5.699113,-5.69911 -5.699113,-5.69911 z"/>
 <path id="mail"               fill="#0FE4F5" d="m 47.09351562,39.29283072 v -1.65356443 c 0,-7.30535327 -5.92259542,-13.22851562 -13.22851562,-13.22851562 -7.30592021,0 -13.22851563,5.92259542 -13.22851563,13.22851562 0,7.30592021 5.92259542,13.22851563 13.22851563,13.22851563 h 7.81427313 c 0,0 1.63466657,-0.23433357 1.63466657,-1.88978793 0,-1.65545428 -1.63466657,-1.88978799 -1.63466657,-1.88978799 h -7.81427313 c -5.21846043,0 -9.44893971,-4.23123521 -9.44893971,-9.44893971 0,-5.21846042 4.23047928,-9.4489397 9.44893971,-9.4489397 5.21770449,0 9.4489397,4.23047928 9.4489397,9.4489397 -0.00378,1.301497 -0.27590929,2.58825357 -0.80127007,3.77957593 h -2.11089314 c 0.667095,-1.14823521 1.01859571,-2.45181093 1.02237528,-3.77957593 0,-4.17473056 -3.38461021,-7.55915177 -7.55915177,-7.55915177 -4.17473057,0 -7.55915178,3.38442121 -7.55915178,7.55915177 0,4.17454157 3.38442121,7.55915178 7.55915178,7.55915178 h 8.07884348 c 2.76286993,0 5.14967214,-3.16539478 5.14967214,-5.90558735 z m -13.22851562,-5.43314028 c 2.08745978,0 3.77957592,1.69211607 3.77957592,3.77957585 0,2.08745979 -1.69211614,3.77957593 -3.77957592,3.77957593 -2.08745979,0 -3.77957586,-1.69211614 -3.77957586,-3.77957593 0,-2.08745978 1.69211607,-3.77957585 3.77957586,-3.77957585 z"/>
</svg>
