<svg xmlns="http://www.w3.org/2000/svg" xmlns:xlink="http://www.w3.org/1999/xlink" width="256" height="256" version="1.1" viewBox="0 0 67.73 67.73">
 <defs>
  <!-- drop shadow -->
  <filter id="drop_shadow" width="1.024" height="1.024" x="-.01" y="-.01" style="color-interpolation-filters:sRGB">
   <feGaussianBlur id="feGaussianBlur1304" stdDeviation="2.08"/>
  </filter>

  <!-- primary shadow -->
  <clipPath id="primary_shadow_clip" clipPathUnits="userSpaceOnUse">
   <path style="fill:#f66151" d="M 192,-164 H 88 c 0,0 -40,0 -40,40 V 4 h 416 v -96 c 0,0 0,-40 -40,-40 H 224 Z"/>
  </clipPath>
  <filter id="primary_shadow" width="1.217" height="1.269" x="-.11" y="-.13" style="color-interpolation-filters:sRGB">
   <feGaussianBlur id="feGaussianBlur1531" stdDeviation="18.8"/>
  </filter>
 </defs>

 <path id="drop_shadow"        fill="#000"    filter="url(#drop_shadow)"    opacity="0.2" d="m 88.000104,-162.00003 c 0,0 -40,0 -40,40 l -0.0352,127.9999949 h 0.0332 l -0.0332,248.0938051 376.035156,-0.0938 c 40,0 40,-40 40,-40 v -208.0000051 -47.9999979 -48 c 0,0 0,-39.999997 -40,-39.999997 h -200 l -32,-32 z" transform="matrix(0.14247782,0,0,0.14247782,-2.5508762,25.5245134)"/>
 <path id="secondary"          fill="#ed333b" filter="none"                 opacity="1.0" d="m 24.80488,2.1581434 h -14.8176929 c 0,0 -5.6991133,0 -5.6991133,5.69911 v 18.23717 h 59.2707722 v -13.67788 c 0,0 0,-5.69911 -5.699113,-5.69911 h -28.495563 z"/>
 <path id="primary_shadow"     fill="#000"    filter="url(#primary_shadow)" opacity="0.1" clip-path="url(#primary_shadow_clip)" d="m 256,-80 -32,32 h -136 c 0,0 -40,0 -40,40 v 264 h 376 c 40,0 40,-40 40,-40 v -256 c 0,-40 -40,-40 -40,-40 z" transform="matrix(0.14247782,0,0,0.14247782,-2.5508622,25.5245034)"/>
 <path id="primary"            fill="#f66151" filter="none"                 opacity="1.0" d="m 33.923459,13.5563734 -4.559289,4.55929 h -19.3769829 c 0,0 -5.6991133,0 -5.6991133,5.69911 v 37.61414 h 53.5716592 c 5.699113,0 5.699113,-5.69911 5.699113,-5.69911 v -36.47432 c 0,-5.69911 -5.699113,-5.69911 -5.699113,-5.69911 z"/>
 <path id="highlighing_shadow" fill="#000"    filter="none"                 opacity="0.2" d="m 63.558846,54.8749434 c 0,0 0,5.69911 -5.699113,5.69911 l -53.5713812,0.0134 -5.69e-4,0.85487 53.5719372,-0.0134 c 5.699113,0 5.699113,-5.69911 5.699113,-5.69911 z"/>
 <path id="highlighting"       fill="#ffffff" filter="none"                 opacity="0.3" d="m 33.923459,13.5563734 -4.559289,4.55929 h -19.3769829 c 0,0 -5.6991133,0 -5.6991133,5.69911 v 0.56991 c 0,-5.69911 5.6991133,-5.69911 5.6991133,-5.69911 h 19.6036609 l 4.559293,-4.55929 h 23.709592 c 0,0 5.699113,0 5.699113,5.69911 v -0.56991 c 0,-5.69911 -5.699113,-5.69911 -5.699113,-5.69911 z"/>
 <path id="log"                fill="#a51d2d" d="m20.45128516 23.97319224v26.45703125h1.60207934c-.74291344-.86831976-.64634528-1.64007137.0515912-2.53193789l4.20780562-4.16856984c-.56144466-.96753364-.90067672-2.07846438-.90067672-3.2724702 0-3.66033027 2.97781824-6.66611359 6.61433718-6.66611359 3.63651895 0 6.61425782 3.00578332 6.61425782 6.66611359s-2.97773887 6.66584902-6.61425782 6.66584902c-1.33819664 0-2.57268171-.3894475-3.6172053-1.08526742l-4.59894638 4.39239633h19.84269407c-.20821684-.20821684-.36166762-.50903328-.36166762-.82678223 0-.63576246.50109617-1.13685863 1.13685863-1.13685863s1.18844985.50109617 1.18844985 1.13685863c0 .31774895-.15345079.61856539-.36166762.82678223h1.65356445v-26.45703123h-1.65356445c-.20821684.20826975-.50903328.36172053-.82678223.36172053-.31774894 0-.56670961-.15345078-.77519101-.36172053h-19.94603523c-.20829621.20826975-.45728333.36172053-.77511164.36172053-.31782832 0-.61848601-.15345078-.82678223-.36172053zm2.48053215 1.3435145c.63565663 0 1.13683217.50117555 1.13683217 1.13683218 0 .63576246-.50117554 1.18844984-1.13683217 1.18844984-.63565664 0-1.18850275-.55268738-1.18850275-1.18844984 0-.63565663.55284612-1.13683218 1.18850275-1.13683218zm21.49633788 0c.63576246 0 1.18844985.50117555 1.18844985 1.13683218 0 .63576246-.55268739 1.18844984-1.18844985 1.18844984s-1.13685863-.55268738-1.13685863-1.18844984c0-.63565663.50109617-1.13683218 1.13685863-1.13683218zm-21.49633788 3.30710245c.63565663 0 1.13683217.50109617 1.13683217 1.13685864 0 .63576246-.50117554 1.18844984-1.13683217 1.18844984-.63565664 0-1.18850275-.55268738-1.18850275-1.18844984 0-.63576247.55284612-1.13685864 1.18850275-1.13685864zm21.49633788 0c.63576246 0 1.18844985.50109617 1.18844985 1.13685864 0 .63576246-.55268739 1.18844984-1.18844985 1.18844984s-1.13685863-.55268738-1.13685863-1.18844984c0-.63576247.50109617-1.13685864 1.13685863-1.13685864zm-21.49633788 3.30712891c.63565663 0 1.13683217.50109617 1.13683217 1.13685863s-.50117554 1.18844985-1.13683217 1.18844985c-.63565664 0-1.18850275-.55268739-1.18850275-1.18844985s.55284612-1.13685863 1.18850275-1.13685863zm21.49633788 0c.63576246 0 1.18844985.50109617 1.18844985 1.13685863s-.55268739 1.18844985-1.18844985 1.18844985-1.13685863-.55268739-1.13685863-1.18844985.50109617-1.13685863 1.13685863-1.13685863zm-21.49633788 3.30712891c.63565663 0 1.13683217.50109617 1.13683217 1.13685863s-.50117554 1.18844984-1.13683217 1.18844984c-.63565664 0-1.18850275-.55268738-1.18850275-1.18844984s.55284612-1.13685863 1.18850275-1.13685863zm21.49633788 0c.63576246 0 1.18844985.50109617 1.18844985 1.13685863s-.55268739 1.18844984-1.18844985 1.18844984-1.13685863-.55268738-1.13685863-1.18844984.50109617-1.13685863 1.13685863-1.13685863zm-12.33532625 1.98956875c-1.83902824 0-3.29231296 1.48185832-3.29231296 3.33279222 0 1.85119848 1.45328472 3.3330568 3.29231296 3.3330568 1.83929281 0 3.29231297-1.48185832 3.29231297-3.3330568 0-1.8509339-1.45302016-3.33279222-3.29231297-3.33279222zm-9.16101163 1.31756015c.63565663 0 1.13683217.50109617 1.13683217 1.13685864 0 .63576246-.50117554 1.18844984-1.13683217 1.18844984-.63565664 0-1.18850275-.55268738-1.18850275-1.18844984 0-.63576247.55284612-1.13685864 1.18850275-1.13685864zm21.49633788 0c.63576246 0 1.18844985.50109617 1.18844985 1.13685864 0 .63576246-.55268739 1.18844984-1.18844985 1.18844984s-1.13685863-.55268738-1.13685863-1.18844984c0-.63576247.50109617-1.13685864 1.13685863-1.13685864zm-21.49633788 3.30712891c.63565663 0 1.13683217.50109617 1.13683217 1.13685863s-.50117554 1.18844985-1.13683217 1.18844985c-.63565664 0-1.18850275-.55268739-1.18850275-1.18844985s.55284612-1.13685863 1.18850275-1.13685863zm21.49633788 0c.63576246 0 1.18844985.50109617 1.18844985 1.13685863s-.55268739 1.18844985-1.18844985 1.18844985-1.13685863-.55268739-1.13685863-1.18844985.50109617-1.13685863 1.13685863-1.13685863zm0 3.30712891c.63576246 0 1.18844985.50109617 1.18844985 1.13685863s-.55268739 1.18844984-1.18844985 1.18844984-1.13685863-.55268738-1.13685863-1.18844984.50109617-1.13685863 1.13685863-1.13685863z"/>
</svg>
