<svg xmlns="http://www.w3.org/2000/svg" xmlns:xlink="http://www.w3.org/1999/xlink" width="256" height="256" version="1.1" viewBox="0 0 67.73 67.73">
 <defs>
  <!-- drop shadow -->
  <filter id="drop_shadow" width="1.024" height="1.024" x="-.01" y="-.01" style="color-interpolation-filters:sRGB">
   <feGaussianBlur id="feGaussianBlur1304" stdDeviation="2.08"/>
  </filter>

  <!-- primary shadow -->
  <clipPath id="primary_shadow_clip" clipPathUnits="userSpaceOnUse">
   <path style="fill:#62a0ea" d="M 192,-164 H 88 c 0,0 -40,0 -40,40 V 4 h 416 v -96 c 0,0 0,-40 -40,-40 H 224 Z"/>
  </clipPath>
  <filter id="primary_shadow" width="1.217" height="1.269" x="-.11" y="-.13" style="color-interpolation-filters:sRGB">
   <feGaussianBlur id="feGaussianBlur1531" stdDeviation="18.8"/>
  </filter>
 </defs>

 <path id="drop_shadow"        fill="#000"    filter="url(#drop_shadow)"    opacity="0.2" d="m 88.000104,-162.00003 c 0,0 -40,0 -40,40 l -0.0352,127.9999949 h 0.0332 l -0.0332,248.0938051 376.035156,-0.0938 c 40,0 40,-40 40,-40 v -208.0000051 -47.9999979 -48 c 0,0 0,-39.999997 -40,-39.999997 h -200 l -32,-32 z" transform="matrix(0.14247782,0,0,0.14247782,-2.5508762,25.5245134)"/>
 <path id="secondary"          fill="#3584e4" filter="none"                 opacity="1.0" d="m 24.80488,2.1581434 h -14.8176929 c 0,0 -5.6991133,0 -5.6991133,5.69911 v 18.23717 h 59.2707722 v -13.67788 c 0,0 0,-5.69911 -5.699113,-5.69911 h -28.495563 z"/>
 <path id="primary_shadow"     fill="#000"    filter="url(#primary_shadow)" opacity="0.1" clip-path="url(#primary_shadow_clip)" d="m 256,-80 -32,32 h -136 c 0,0 -40,0 -40,40 v 264 h 376 c 40,0 40,-40 40,-40 v -256 c 0,-40 -40,-40 -40,-40 z" transform="matrix(0.14247782,0,0,0.14247782,-2.5508622,25.5245034)"/>
 <path id="primary"            fill="#62a0ea" filter="none"                 opacity="1.0" d="m 33.923459,13.5563734 -4.559289,4.55929 h -19.3769829 c 0,0 -5.6991133,0 -5.6991133,5.69911 v 37.61414 h 53.5716592 c 5.699113,0 5.699113,-5.69911 5.699113,-5.69911 v -36.47432 c 0,-5.69911 -5.699113,-5.69911 -5.699113,-5.69911 z"/>
 <path id="highlighing_shadow" fill="#000"    filter="none"                 opacity="0.2" d="m 63.558846,54.8749434 c 0,0 0,5.69911 -5.699113,5.69911 l -53.5713812,0.0134 -5.69e-4,0.85487 53.5719372,-0.0134 c 5.699113,0 5.699113,-5.69911 5.699113,-5.69911 z"/>
 <path id="highlighting"       fill="#ffffff" filter="none"                 opacity="0.3" d="m 33.923459,13.5563734 -4.559289,4.55929 h -19.3769829 c 0,0 -5.6991133,0 -5.6991133,5.69911 v 0.56991 c 0,-5.69911 5.6991133,-5.69911 5.6991133,-5.69911 h 19.6036609 l 4.559293,-4.55929 h 23.709592 c 0,0 5.699113,0 5.699113,5.69911 v -0.56991 c 0,-5.69911 -5.699113,-5.69911 -5.699113,-5.69911 z"/>
 <path id="java"               fill="#1c71d8" d="m 30.41046773,24.40697093 c 0,0 1.5571853,0.87875136 0.45732858,3.18996208 -1.66490322,3.48098938 1.53639757,4.27659009 1.53639757,4.27659009 0,0 -1.01670586,-0.81638836 0.33827215,-3.69075587 1.49860186,-3.18429265 -2.3319983,-3.7757963 -2.3319983,-3.7757963 z m 6.04543167,3.4772098 c 0,0 -3.1030318,1.19056643 -1.10363615,4.44289152 1.32285158,2.15624808 -0.14362357,3.22586801 -0.14362357,3.22586801 0,0 3.75122909,-1.06395057 1.94081222,-4.04036666 -1.62521765,-2.69105801 -0.69355214,-3.62839287 -0.6935525,-3.62839287 z m -8.93491746,0.08882 c 0,0 -2.71751509,2.06931779 -0.0264571,4.61297238 1.77829051,1.69325 0.61229143,3.15972544 0.61229143,3.15972544 0,0 3.36949195,-2.14112973 0.93355529,-4.48068724 -2.19782343,-2.11089315 -1.51938957,-3.29201058 -1.51938962,-3.29201058 z m 0.58583428,7.77269782 h -7.47033174 l 3.77957587,15.11830363 h 15.11830364 l 0.51969143,-2.07498715 c 0.44032071,0.10960786 0.8957595,0.18519929 1.37009629,0.18519929 3.13137865,0 5.66936381,-2.53798523 5.66936381,-5.66936388 0,-2.65704187 -1.8330943,-4.86998352 -4.29926759,-5.4841646 l 0.51969143,-2.07498722 z m 14.23199306,3.8967428 a 1.889787954,3.779575908 15 0 1 0.06425,0.0113357 1.889787954,3.779575908 15 0 1 0.84851479,4.14241516 1.889787954,3.779575908 15 0 1 -2.7420823,3.17106423 z"/>
</svg>
