<svg xmlns="http://www.w3.org/2000/svg" xmlns:xlink="http://www.w3.org/1999/xlink" width="256" height="256" version="1.1" viewBox="0 0 67.73 67.73">
 <defs>
  <!-- drop shadow -->
  <filter id="drop_shadow" width="1.024" height="1.024" x="-.01" y="-.01" style="color-interpolation-filters:sRGB">
   <feGaussianBlur id="feGaussianBlur1304" stdDeviation="2.08"/>
  </filter>

  <!-- primary shadow -->
  <clipPath id="primary_shadow_clip" clipPathUnits="userSpaceOnUse">
   <path style="fill:#ffa348" d="M 192,-164 H 88 c 0,0 -40,0 -40,40 V 4 h 416 v -96 c 0,0 0,-40 -40,-40 H 224 Z"/>
  </clipPath>
  <filter id="primary_shadow" width="1.217" height="1.269" x="-.11" y="-.13" style="color-interpolation-filters:sRGB">
   <feGaussianBlur id="feGaussianBlur1531" stdDeviation="18.8"/>
  </filter>
 </defs>

 <path id="drop_shadow"        fill="#000"    filter="url(#drop_shadow)"    opacity="0.2" d="m 88.000104,-162.00003 c 0,0 -40,0 -40,40 l -0.0352,127.9999949 h 0.0332 l -0.0332,248.0938051 376.035156,-0.0938 c 40,0 40,-40 40,-40 v -208.0000051 -47.9999979 -48 c 0,0 0,-39.999997 -40,-39.999997 h -200 l -32,-32 z" transform="matrix(0.14247782,0,0,0.14247782,-2.5508762,25.5245134)"/>
 <path id="secondary"          fill="#ff7800" filter="none"                 opacity="1.0" d="m 24.80488,2.1581434 h -14.8176929 c 0,0 -5.6991133,0 -5.6991133,5.69911 v 18.23717 h 59.2707722 v -13.67788 c 0,0 0,-5.69911 -5.699113,-5.69911 h -28.495563 z"/>
 <path id="primary_shadow"     fill="#000"    filter="url(#primary_shadow)" opacity="0.1" clip-path="url(#primary_shadow_clip)" d="m 256,-80 -32,32 h -136 c 0,0 -40,0 -40,40 v 264 h 376 c 40,0 40,-40 40,-40 v -256 c 0,-40 -40,-40 -40,-40 z" transform="matrix(0.14247782,0,0,0.14247782,-2.5508622,25.5245034)"/>
 <path id="primary"            fill="#ffa348" filter="none"                 opacity="1.0" d="m 33.923459,13.5563734 -4.559289,4.55929 h -19.3769829 c 0,0 -5.6991133,0 -5.6991133,5.69911 v 37.61414 h 53.5716592 c 5.699113,0 5.699113,-5.69911 5.699113,-5.69911 v -36.47432 c 0,-5.69911 -5.699113,-5.69911 -5.699113,-5.69911 z"/>
 <path id="highlighing_shadow" fill="#000"    filter="none"                 opacity="0.2" d="m 63.558846,54.8749434 c 0,0 0,5.69911 -5.699113,5.69911 l -53.5713812,0.0134 -5.69e-4,0.85487 53.5719372,-0.0134 c 5.699113,0 5.699113,-5.69911 5.699113,-5.69911 z"/>
 <path id="highlighting"       fill="#ffffff" filter="none"                 opacity="0.3" d="m 33.923459,13.5563734 -4.559289,4.55929 h -19.3769829 c 0,0 -5.6991133,0 -5.6991133,5.69911 v 0.56991 c 0,-5.69911 5.6991133,-5.69911 5.6991133,-5.69911 h 19.6036609 l 4.559293,-4.55929 h 23.709592 c 0,0 5.699113,0 5.699113,5.69911 v -0.56991 c 0,-5.69911 -5.699113,-5.69911 -5.699113,-5.69911 z"/>
 <path id="library"            fill="#e66100" clip-rule="evenodd" d="m38.37187617 49.57089912h-3.97569809c-.17567469 0-.34447054-.0698466-.46855402-.19393004-.12434805-.12434805-.19419461-.29287934-.19419461-.46855403v-23.413335c0-.1757276.0698466-.34428535.19419461-.46855403.12408348-.12426867.29287933-.19408878.46855402-.19408878h3.97569809c.17593926 0 .34447054.0698201.46855402.19408878.12434805.12426868.19419461.29282643.19419461.46855403v23.413335c0 .17567469-.0698466.34420598-.19419461.46855403-.12408348.12408347-.29261476.19393004-.46855402.19393004zm-17.22852771 0h3.09229781c.17575406 0 .34428535-.0698466.46855402-.19393004.12426867-.12434805.19408879-.29287934.19408879-.46855403v-20.76268441c0-.17593926-.0698201-.34447055-.19408879-.46855403-.12426867-.12434804-.29279996-.1941946-.46855402-.1941946h-3.09229781c-.17575406 0-.34428535.0698466-.46855402.1941946-.12426868.12408348-.19408878.29261477-.19408878.46855403v20.76268441c0 .17567469.0698201.34420598.19408878.46855403.12426867.12408347.29279996.19393004.46855402.19393004zm11.70668072-17.89130282v2.87164618h-7.06820755v-2.87164618c0-.17567469.0697937-.34420597.19406232-.46855402.12426868-.12408348.29282642-.19393004.46863339-.19393004h5.7427632c.17567469 0 .34420598.0698466.46855403.19393004.12434804.12434805.19419461.29287933.19419461.46855402zm-7.06820755 14.35717258v2.87164617c0 .17567469.0697937.34420598.19406232.46855403.12426868.12408347.29282642.19393004.46863339.19393004h5.7427632c.17567469 0 .34420598-.0698466.46855403-.19393004.12434804-.12434805.19419461-.29287934.19419461-.46855403v-2.87164617zm7.06820755-9.71846129h-7.06820755v7.95166074h7.06820755zm8.78003039 12.6192102-1.6567393-20.31159203c-.0142868-.17223528.039421-.3431477.14948223-.47649114.11006125-.13334344.26774515-.21827051.43971586-.23679043l3.98310605-.41484625c.0875728-.008995.17620383-.00052914.26060176.0251342.0843979.0253988.16271074.06773.23070531.12381891.0679946.0563535.12381891.1256709.16456273.20371914.0407438.0780482.0656134.16376902.0730214.25160637l1.66097243 20.22931066c.0140222.17038328-.0380981.33944371-.14577825.47225801-.10794469.1328143-.26271832.21879965-.43230789.23996527l-3.98469348.49686305c-.088631.011112-.17884953.004233-.26457031-.0203719-.0859853-.024605-.16615016-.0661426-.23546758-.12249606-.0693174-.0563535-.12672918-.12620004-.16826672-.20530656-.0418021-.078842-.0672009-.16562102-.0743442-.25478124z" fill-rule="evenodd"/>
</svg>
