<svg xmlns="http://www.w3.org/2000/svg" xmlns:xlink="http://www.w3.org/1999/xlink" width="256" height="256" version="1.1" viewBox="0 0 67.73 67.73">
 <defs>
  <!-- drop shadow -->
  <filter id="drop_shadow" width="1.024" height="1.024" x="-.01" y="-.01" style="color-interpolation-filters:sRGB">
   <feGaussianBlur id="feGaussianBlur1304" stdDeviation="2.08"/>
  </filter>

  <!-- primary shadow -->
  <clipPath id="primary_shadow_clip" clipPathUnits="userSpaceOnUse">
   <path style="fill:#5c6bc0" d="M 192,-164 H 88 c 0,0 -40,0 -40,40 V 4 h 416 v -96 c 0,0 0,-40 -40,-40 H 224 Z"/>
  </clipPath>
  <filter id="primary_shadow" width="1.217" height="1.269" x="-.11" y="-.13" style="color-interpolation-filters:sRGB">
   <feGaussianBlur id="feGaussianBlur1531" stdDeviation="18.8"/>
  </filter>
 </defs>

 <path id="drop_shadow"        fill="#000"    filter="url(#drop_shadow)"    opacity="0.2" d="m 88.000104,-162.00003 c 0,0 -40,0 -40,40 l -0.0352,127.9999949 h 0.0332 l -0.0332,248.0938051 376.035156,-0.0938 c 40,0 40,-40 40,-40 v -208.0000051 -47.9999979 -48 c 0,0 0,-39.999997 -40,-39.999997 h -200 l -32,-32 z" transform="matrix(0.14247782,0,0,0.14247782,-2.5508762,25.5245134)"/>
 <path id="secondary"          fill="#3f51b5" filter="none"                 opacity="1.0" d="m 24.80488,2.1581434 h -14.8176929 c 0,0 -5.6991133,0 -5.6991133,5.69911 v 18.23717 h 59.2707722 v -13.67788 c 0,0 0,-5.69911 -5.699113,-5.69911 h -28.495563 z"/>
 <path id="primary_shadow"     fill="#000"    filter="url(#primary_shadow)" opacity="0.1" clip-path="url(#primary_shadow_clip)" d="m 256,-80 -32,32 h -136 c 0,0 -40,0 -40,40 v 264 h 376 c 40,0 40,-40 40,-40 v -256 c 0,-40 -40,-40 -40,-40 z" transform="matrix(0.14247782,0,0,0.14247782,-2.5508622,25.5245034)"/>
 <path id="primary"            fill="#5c6bc0" filter="none"                 opacity="1.0" d="m 33.923459,13.5563734 -4.559289,4.55929 h -19.3769829 c 0,0 -5.6991133,0 -5.6991133,5.69911 v 37.61414 h 53.5716592 c 5.699113,0 5.699113,-5.69911 5.699113,-5.69911 v -36.47432 c 0,-5.69911 -5.699113,-5.69911 -5.699113,-5.69911 z"/>
 <path id="highlighing_shadow" fill="#000"    filter="none"                 opacity="0.2" d="m 63.558846,54.8749434 c 0,0 0,5.69911 -5.699113,5.69911 l -53.5713812,0.0134 -5.69e-4,0.85487 53.5719372,-0.0134 c 5.699113,0 5.699113,-5.69911 5.699113,-5.69911 z"/>
 <path id="highlighting"       fill="#ffffff" filter="none"                 opacity="0.3" d="m 33.923459,13.5563734 -4.559289,4.55929 h -19.3769829 c 0,0 -5.6991133,0 -5.6991133,5.69911 v 0.56991 c 0,-5.69911 5.6991133,-5.69911 5.6991133,-5.69911 h 19.6036609 l 4.559293,-4.55929 h 23.709592 c 0,0 5.699113,0 5.699113,5.69911 v -0.56991 c 0,-5.69911 -5.699113,-5.69911 -5.699113,-5.69911 z"/>
 <path id="github"             fill="#b6bde3" d="m 33.92347257,24.47888563 c -7.32860463,0 -13.22852821,5.89992486 -13.22852821,13.22852954 0,5.90813982 3.91434795,10.8806761 9.24058995,12.58906248 v -2.21897581 c -3.34855586,0.73894555 -4.13132888,-1.47270826 -4.13132888,-1.47270826 -0.5476452,-1.41317059 -1.33706424,-1.5245376 -1.33706424,-1.5245376 -1.09305609,-0.75827642 0.0807469,-0.74604271 0.0807469,-0.74604271 1.20829377,0.0863031 1.8441124,1.2627821 1.8441124,1.2627821 1.07382842,1.86905873 2.8964762,1.33044862 3.58229337,1.01732937 0.1093867,-0.78995745 0.34362293,-2.12589062 0.68726701,-2.43151856 -2.67298948,-0.30872079 -4.67520526,-2.01803847 -4.67520526,-6.70523673 0,-1.33509052 0.78825492,-3.08842609 1.55832062,-3.9428263 -0.12417617,-0.3093823 -0.53920804,-2.09909625 0.11626556,-3.7825905 0,0 0.063153,-0.019885 0.19377808,-0.02585 0.39172977,-0.01835 1.27291512,0.60928088 2.99708842,1.79637592 1.04099257,-0.29906928 2.23998007,-0.43890943 3.07166954,-0.44568893 0.93779021,-0.007805 1.89140571,0.15360014 2.8699464,0.44568893 1.72466936,-1.18709504 2.82646157,-1.81779423 3.21670315,-1.79960766 h 0.003307 c 0.13047297,0.006085 0.19377678,0.02585 0.19377808,0.02585 0.65699486,1.68342946 0.24291813,3.47643871 0.11950651,3.78581961 0.7714203,0.85456421 1.53387034,2.60773448 1.53387034,3.94282765 0,4.69913702 -3.01095589,6.39292703 -5.69204785,6.69554677 0.43159131,0.37767436 0.53934827,1.12654812 0.53934827,2.26719381 0,1.37761896 -0.003439,2.27305801 -0.006482,2.84206725 v 1.22402517 c 5.71566209,-1.46287815 10.45056771,-6.6147893 10.45056771,-12.79898733 0,-7.32860463 -5.89992358,-13.22852819 -13.22852821,-13.22852819 z"/>
</svg>
