<svg xmlns="http://www.w3.org/2000/svg" xmlns:xlink="http://www.w3.org/1999/xlink" width="256" height="256" version="1.1" viewBox="0 0 67.73 67.73">
 <defs>
  <!-- drop shadow -->
  <filter id="drop_shadow" width="1.024" height="1.024" x="-.01" y="-.01" style="color-interpolation-filters:sRGB">
   <feGaussianBlur id="feGaussianBlur1304" stdDeviation="2.08"/>
  </filter>

  <!-- primary shadow -->
  <clipPath id="primary_shadow_clip" clipPathUnits="userSpaceOnUse">
   <path style="fill:#78909c" d="M 192,-164 H 88 c 0,0 -40,0 -40,40 V 4 h 416 v -96 c 0,0 0,-40 -40,-40 H 224 Z"/>
  </clipPath>
  <filter id="primary_shadow" width="1.217" height="1.269" x="-.11" y="-.13" style="color-interpolation-filters:sRGB">
   <feGaussianBlur id="feGaussianBlur1531" stdDeviation="18.8"/>
  </filter>
 </defs>

 <path id="drop_shadow"        fill="#000"    filter="url(#drop_shadow)"    opacity="0.2" d="m 88.000104,-162.00003 c 0,0 -40,0 -40,40 l -0.0352,127.9999949 h 0.0332 l -0.0332,248.0938051 376.035156,-0.0938 c 40,0 40,-40 40,-40 v -208.0000051 -47.9999979 -48 c 0,0 0,-39.999997 -40,-39.999997 h -200 l -32,-32 z" transform="matrix(0.14247782,0,0,0.14247782,-2.5508762,25.5245134)"/>
 <path id="secondary"          fill="#455a64" filter="none"                 opacity="1.0" d="m 24.80488,2.1581434 h -14.8176929 c 0,0 -5.6991133,0 -5.6991133,5.69911 v 18.23717 h 59.2707722 v -13.67788 c 0,0 0,-5.69911 -5.699113,-5.69911 h -28.495563 z"/>
 <path id="primary_shadow"     fill="#000"    filter="url(#primary_shadow)" opacity="0.1" clip-path="url(#primary_shadow_clip)" d="m 256,-80 -32,32 h -136 c 0,0 -40,0 -40,40 v 264 h 376 c 40,0 40,-40 40,-40 v -256 c 0,-40 -40,-40 -40,-40 z" transform="matrix(0.14247782,0,0,0.14247782,-2.5508622,25.5245034)"/>
 <path id="primary"            fill="#78909c" filter="none"                 opacity="1.0" d="m 33.923459,13.5563734 -4.559289,4.55929 h -19.3769829 c 0,0 -5.6991133,0 -5.6991133,5.69911 v 37.61414 h 53.5716592 c 5.699113,0 5.699113,-5.69911 5.699113,-5.69911 v -36.47432 c 0,-5.69911 -5.699113,-5.69911 -5.699113,-5.69911 z"/>
 <path id="highlighing_shadow" fill="#000"    filter="none"                 opacity="0.2" d="m 63.558846,54.8749434 c 0,0 0,5.69911 -5.699113,5.69911 l -53.5713812,0.0134 -5.69e-4,0.85487 53.5719372,-0.0134 c 5.699113,0 5.699113,-5.69911 5.699113,-5.69911 z"/>
 <path id="highlighting"       fill="#ffffff" filter="none"                 opacity="0.3" d="m 33.923459,13.5563734 -4.559289,4.55929 h -19.3769829 c 0,0 -5.6991133,0 -5.6991133,5.69911 v 0.56991 c 0,-5.69911 5.6991133,-5.69911 5.6991133,-5.69911 h 19.6036609 l 4.559293,-4.55929 h 23.709592 c 0,0 5.699113,0 5.699113,5.69911 v -0.56991 c 0,-5.69911 -5.699113,-5.69911 -5.699113,-5.69911 z"/>
 <path id="person"             fill="#cfd8dc" d="m 27.33578589,30.98014943 c -0.08693,0.0207857 -0.17386071,0.0548 -0.25512143,0.0982693 -0.81260885,0.42898214 -1.0204855,1.76884149 -0.46488785,3.00854242 0.44788,0.997808 1.24159064,1.61387893 1.96348964,1.594981 0.54236928,3.31279828 2.70239678,5.78275113 5.27250842,5.78275113 h 0.0226786 c 2.57200135,0 4.73202899,-2.46995285 5.27439814,-5.78275113 0.72000921,0.0189 1.51560992,-0.59717286 1.96348964,-1.594981 0.55559785,-1.23970093 0.34772071,-2.57956057 -0.46488786,-3.00854242 -0.0831507,-0.0434643 -0.16819143,-0.0774814 -0.25512143,-0.0982693 -0.10393857,-3.62272349 -2.98208535,-6.52354799 -6.52732756,-6.52354799 -3.54335234,0 -6.42527898,2.9008245 -6.52921831,6.52354799 z m 11.0533697,10.48454356 c -0.54614857,1.32474135 -2.40758985,2.31876978 -4.62809071,2.31876978 -2.21105185,0 -4.05548492,-0.98079993 -4.61108256,-2.29609235 -4.66399664,0.487565 -8.06372513,1.68191128 -8.47191935,3.09358285 -0.005669,0.0132286 0.00378,0.0302357 0,0.0434643 -0.0132286,0.0510214 -0.0132286,0.0963793 -0.0189,0.14740357 -0.00189,0.0245643 -0.0226786,0.0396857 -0.0226786,0.06425 v 0.0170071 3.49610771 c 0.00189,0.37228857 0.29669643,0.67465428 0.66331571,0.67465428 h 25.13228983 c 0.36661857,0 0.66142571,-0.30236571 0.66142571,-0.67465428 v -3.49610771 -0.0415714 c -0.00378,-0.0812607 -0.0396857,-0.15118286 -0.0623643,-0.23244357 -0.41764285,-1.42867964 -3.89107335,-2.63814393 -8.64011048,-3.1143705 z"/>
</svg>
