<svg xmlns="http://www.w3.org/2000/svg" xmlns:xlink="http://www.w3.org/1999/xlink" width="256" height="256" version="1.1" viewBox="0 0 67.73 67.73">
 <defs>
  <!-- drop shadow -->
  <filter id="drop_shadow" width="1.024" height="1.024" x="-.01" y="-.01" style="color-interpolation-filters:sRGB">
   <feGaussianBlur id="feGaussianBlur1304" stdDeviation="2.08"/>
  </filter>

  <!-- primary shadow -->
  <clipPath id="primary_shadow_clip" clipPathUnits="userSpaceOnUse">
   <path style="fill:#ffa348" d="M 192,-164 H 88 c 0,0 -40,0 -40,40 V 4 h 416 v -96 c 0,0 0,-40 -40,-40 H 224 Z"/>
  </clipPath>
  <filter id="primary_shadow" width="1.217" height="1.269" x="-.11" y="-.13" style="color-interpolation-filters:sRGB">
   <feGaussianBlur id="feGaussianBlur1531" stdDeviation="18.8"/>
  </filter>
 </defs>

 <path id="drop_shadow"        fill="#000"    filter="url(#drop_shadow)"    opacity="0.2" d="m 88.000104,-162.00003 c 0,0 -40,0 -40,40 l -0.0352,127.9999949 h 0.0332 l -0.0332,248.0938051 376.035156,-0.0938 c 40,0 40,-40 40,-40 v -208.0000051 -47.9999979 -48 c 0,0 0,-39.999997 -40,-39.999997 h -200 l -32,-32 z" transform="matrix(0.14247782,0,0,0.14247782,-2.5508762,25.5245134)"/>
 <path id="secondary"          fill="#ff7800" filter="none"                 opacity="1.0" d="m 24.80488,2.1581434 h -14.8176929 c 0,0 -5.6991133,0 -5.6991133,5.69911 v 18.23717 h 59.2707722 v -13.67788 c 0,0 0,-5.69911 -5.699113,-5.69911 h -28.495563 z"/>
 <path id="primary_shadow"     fill="#000"    filter="url(#primary_shadow)" opacity="0.1" clip-path="url(#primary_shadow_clip)" d="m 256,-80 -32,32 h -136 c 0,0 -40,0 -40,40 v 264 h 376 c 40,0 40,-40 40,-40 v -256 c 0,-40 -40,-40 -40,-40 z" transform="matrix(0.14247782,0,0,0.14247782,-2.5508622,25.5245034)"/>
 <path id="primary"            fill="#ffa348" filter="none"                 opacity="1.0" d="m 33.923459,13.5563734 -4.559289,4.55929 h -19.3769829 c 0,0 -5.6991133,0 -5.6991133,5.69911 v 37.61414 h 53.5716592 c 5.699113,0 5.699113,-5.69911 5.699113,-5.69911 v -36.47432 c 0,-5.69911 -5.699113,-5.69911 -5.699113,-5.69911 z"/>
 <path id="highlighing_shadow" fill="#000"    filter="none"                 opacity="0.2" d="m 63.558846,54.8749434 c 0,0 0,5.69911 -5.699113,5.69911 l -53.5713812,0.0134 -5.69e-4,0.85487 53.5719372,-0.0134 c 5.699113,0 5.699113,-5.69911 5.699113,-5.69911 z"/>
 <path id="highlighting"       fill="#ffffff" filter="none"                 opacity="0.3" d="m 33.923459,13.5563734 -4.559289,4.55929 h -19.3769829 c 0,0 -5.6991133,0 -5.6991133,5.69911 v 0.56991 c 0,-5.69911 5.6991133,-5.69911 5.6991133,-5.69911 h 19.6036609 l 4.559293,-4.55929 h 23.709592 c 0,0 5.699113,0 5.699113,5.69911 v -0.56991 c 0,-5.69911 -5.699113,-5.69911 -5.699113,-5.69911 z"/>
 <path id="wifi"               fill="#e66100" d="M 128.5488281 94.5 C 108.4473996 94.5 91.60811383 101.6430357 78.54882812 112.96875 L 78.54882812 123.0722656 L 89.125 123.0722656 C 99.97714287 114.0386942 112.120971 108.7851563 128.5488281 108.7851562 C 144.9766853 108.7851562 157.1205134 114.3546227 167.9726562 123.0722656 L 178.5488281 123.0722656 L 178.5488281 113.2050781 C 166.8316853 102.7350781 148.6502567 94.5 128.5488281 94.5 z M 128.5488281 115.9277344 C 113.0731139 115.9277344 99.83541296 121.2061295 92.83398438 130.2148438 L 92.83398438 137.3574219 L 107.1191406 137.3574219 C 112.7532835 133.0251361 119.6838281 130.2148438 128.5488281 130.2148438 C 137.4138281 130.2148438 144.4008482 133.0251361 149.9765625 137.3574219 L 164.2636719 137.3574219 L 164.2636719 130.2148438 C 157.1581005 121.4798437 143.7388281 115.9277344 128.5488281 115.9277344 z M 128.5488281 137.3574219 C 119.5681139 137.3574219 112.7212835 139.5832143 107.1191406 144.5 L 107.1191406 151.6425781 L 128.5488281 151.6425781 L 131.2265625 151.6425781 L 149.9765625 151.6425781 L 149.9765625 144.5 C 143.9987054 139.6995714 137.5295424 137.3574219 128.5488281 137.3574219 z M 128.3574219 158.7871094 A 14.28571429 14.28571429 0 0 0 114.2636719 173.0722656 A 14.28571429 14.28571429 0 1 0 142.8359375 173.0722656 A 14.28571429 14.28571429 0 0 0 128.3574219 158.7871094 z" transform="scale(0.2645703125)"/>
</svg>
