<svg xmlns="http://www.w3.org/2000/svg" xmlns:xlink="http://www.w3.org/1999/xlink" width="256" height="256" version="1.1" viewBox="0 0 67.73 67.73">
 <defs>
  <!-- drop shadow -->
  <filter id="drop_shadow" width="1.024" height="1.024" x="-.01" y="-.01" style="color-interpolation-filters:sRGB">
   <feGaussianBlur id="feGaussianBlur1304" stdDeviation="2.08"/>
  </filter>

  <!-- primary shadow -->
  <clipPath id="primary_shadow_clip" clipPathUnits="userSpaceOnUse">
   <path style="fill:#ececec" d="M 192,-164 H 88 c 0,0 -40,0 -40,40 V 4 h 416 v -96 c 0,0 0,-40 -40,-40 H 224 Z"/>
  </clipPath>
  <filter id="primary_shadow" width="1.217" height="1.269" x="-.11" y="-.13" style="color-interpolation-filters:sRGB">
   <feGaussianBlur id="feGaussianBlur1531" stdDeviation="18.8"/>
  </filter>
 </defs>

 <path id="drop_shadow"        fill="#000"    filter="url(#drop_shadow)"    opacity="0.2" d="m 88.000104,-162.00003 c 0,0 -40,0 -40,40 l -0.0352,127.9999949 h 0.0332 l -0.0332,248.0938051 376.035156,-0.0938 c 40,0 40,-40 40,-40 v -208.0000051 -47.9999979 -48 c 0,0 0,-39.999997 -40,-39.999997 h -200 l -32,-32 z" transform="matrix(0.14247782,0,0,0.14247782,-2.5508762,25.5245134)"/>
 <path id="secondary"          fill="#b3b3b3" filter="none"                 opacity="1.0" d="m 24.80488,2.1581434 h -14.8176929 c 0,0 -5.6991133,0 -5.6991133,5.69911 v 18.23717 h 59.2707722 v -13.67788 c 0,0 0,-5.69911 -5.699113,-5.69911 h -28.495563 z"/>
 <path id="primary_shadow"     fill="#000"    filter="url(#primary_shadow)" opacity="0.1" clip-path="url(#primary_shadow_clip)" d="m 256,-80 -32,32 h -136 c 0,0 -40,0 -40,40 v 264 h 376 c 40,0 40,-40 40,-40 v -256 c 0,-40 -40,-40 -40,-40 z" transform="matrix(0.14247782,0,0,0.14247782,-2.5508622,25.5245034)"/>
 <path id="primary"            fill="#ececec" filter="none"                 opacity="1.0" d="m 33.923459,13.5563734 -4.559289,4.55929 h -19.3769829 c 0,0 -5.6991133,0 -5.6991133,5.69911 v 37.61414 h 53.5716592 c 5.699113,0 5.699113,-5.69911 5.699113,-5.69911 v -36.47432 c 0,-5.69911 -5.699113,-5.69911 -5.699113,-5.69911 z"/>
 <path id="highlighing_shadow" fill="#000"    filter="none"                 opacity="0.2" d="m 63.558846,54.8749434 c 0,0 0,5.69911 -5.699113,5.69911 l -53.5713812,0.0134 -5.69e-4,0.85487 53.5719372,-0.0134 c 5.699113,0 5.699113,-5.69911 5.699113,-5.69911 z"/>
 <path id="highlighting"       fill="#ffffff" filter="none"                 opacity="0.3" d="m 33.923459,13.5563734 -4.559289,4.55929 h -19.3769829 c 0,0 -5.6991133,0 -5.6991133,5.69911 v 0.56991 c 0,-5.69911 5.6991133,-5.69911 5.6991133,-5.69911 h 19.6036609 l 4.559293,-4.55929 h 23.709592 c 0,0 5.699113,0 5.699113,5.69911 v -0.56991 c 0,-5.69911 -5.699113,-5.69911 -5.699113,-5.69911 z"/>
 <path id="javascript"         fill="#4c5561" d="m20.50994067 25.03147349c0-.58446228.47379251-1.05828125 1.05828124-1.05828125h24.34046875c.58443582 0 1.05828125.47381897 1.05828125 1.05828125v24.34046875c0 .58443582-.47384543 1.05828125-1.05828125 1.05828125h-24.34046875c-.58448873 0-1.05828124-.47384543-1.05828124-1.05828125zm24.2891421 19.08874805c-.19260719-1.2067052-.97891016-2.22080321-3.31030375-3.16743578-.81117258-.38071668-1.71229906-.64396414-1.98268992-1.25538614-.10000758-.36431332-.11455895-.5614182-.0500038-.77757214.16615015-.711165 1.00986488-.92440868 1.67129066-.72756836.43072047.13228515.82757594.46299804 1.07574289.99372609 1.13923977-.74529455 1.13923977-.74529455 1.93453813-1.2405702-.29843531-.46141062-.44685926-.66274863-.64528699-.86117636-.69529079-.7762493-1.62128688-1.17310477-3.12483996-1.13923977l-.7762493.0984202c-.74503.18228894-1.45645957.58073183-1.88585719 1.10828504-1.25670898 1.42285914-.89345394 3.90241211.62782535 4.92973863 1.50355309 1.12442383 3.70530723 1.3715325 3.98601633 2.42981375.26457031 1.29057398-.95827367 1.70356824-2.16788914 1.5551443-.89213109-.20001516-1.38899414-.645287-1.93427355-1.47286293l-2.01655493 1.15828883c.23070532.52755321.49527563.75984594.8921311 1.22284399 1.91813476 1.93427354 6.71426539 1.83585339 7.5741189-1.10828504.0306902-.0984202.26457032-.77598472.0822814-1.81812718zm-9.90233766-7.98711317h-2.47823011c0 2.13561157-.0103182 4.25958203-.0103182 6.39969129 0 1.35803942.0690529 2.60443016-.15292164 2.98805711-.36299047.76011051-1.30221507.66301321-1.72685043.52781778-.43654101-.21456653-.6585155-.51300184-.91567784-.94213489-.0693174-.11482351-.12064407-.21456652-.13969313-.21456652l-2.01073437 1.24057019c.33653343.69502622.82757593 1.29189684 1.46095726 1.6710261.94213489.56300562 2.20757469.74529457 3.53360109.44844668.86408664-.25001895 1.60938121-.76302078 1.99591844-1.55673172.56432848-1.02441625.44394898-2.28244809.43945129-3.68784559.0119057-2.26498644 0-4.53129574 0-6.81268554z"/>
</svg>
