<svg fill="none" height="128" viewBox="0 0 128 128" width="128" xmlns="http://www.w3.org/2000/svg" xmlns:xlink="http://www.w3.org/1999/xlink">
  <linearGradient id="paint0_linear" gradientUnits="userSpaceOnUse" x1="116" x2="12" y1="117.999" y2="117.999">
    <stop offset="0" stop-color="#d5d3cf"/>
    <stop offset=".038" stop-color="#e3e2df"/>
    <stop offset=".077" stop-color="#c0bfbc"/>
    <stop offset=".923" stop-color="#c0bfbc"/>
    <stop offset=".962" stop-color="#e3e2df"/>
    <stop offset="1" stop-color="#d5d3cf"/>
  </linearGradient>
  <path d="m108 68h-88c-4.4183 0-8 3.5817-8 8v32c0 4.418 3.5817 8 8 8h88c4.418 0 8-3.582 8-8v-32c0-4.4183-3.582-8-8-8z" fill="url(#paint0_linear)"/>
  <path d="m20 10c-4.432 0-8 3.568-8 8v42 42c0 4.432 3.568 8 8 8h44 44c4.432 0 8-3.568 8-8v-42-42c0-4.432-3.568-8-8-8z" fill="#c061cb"/>
  <path d="m64 26.7073c-18.8585 0-34.1464 15.2878-34.1464 34.1463 0 18.8586 15.2879 34.1464 34.1464 34.1464s34.1464-15.2878 34.1464-34.1464c0-18.8585-15.2879-34.1463-34.1464-34.1463zm-3.1946 6.8092c.3716-.0389.839.0222 1.2138 0 .0445.1777-.2632.8153-.6869 1.7407-2.6983 5.8946-2.8577 12.7964-.3535 16.4863.4532.669.867 1.3045.867 1.3872 0 .0828-.4878.1734-1.0404.1734-1.2972 0-2.527-.7883-5.0352-2.7744-1.1142-.8823-2.56-1.6218-3.1212-1.734-.8813-.1761-1.1141-.0998-2.2542 1.0404-1.0607 1.0605-1.3872 1.6368-1.3872 2.6077 0 3.6817 4.3736 6.6009 12.4981 8.3231 11.0335 2.3385 13.7477 4.4355 14.052 10.2373.3822 7.2753-3.4874 12.7596-11.9712 17.0065-1.0126.507-1.6559.7098-2.0808.8736-.1883-.0167-.3392.0168-.5269 0-.0721-.2249-.1733-.7452-.1733-1.734 0-3.8641-1.5198-7.8462-3.8148-10.0705-.6161-.5971-2.3377-1.86-3.8148-2.7744-1.4771-.9143-2.9692-1.9744-3.3013-2.4276-.5502-.752-.5896-1.2117-.1667-2.601.7706-2.5372 1.6848-3.9589 3.468-5.5621.9348-.8405 1.8737-1.5372 2.0808-1.5539s-1.192-.4435-3.2946-.8737c-2.1025-.4309-5.1858-1.3318-6.776-1.9074-2.9077-1.0521-6.8331-3.2633-8.3298-4.8618-.0633-.0678-.1184-.1134-.1734-.1734 2.1444-8.5421 8.1617-15.5401 16.1395-18.9139 1.6693-.706 3.3922-1.1891 5.2087-1.5606.9048-.1849 1.8401-.2585 2.7743-.3535zm26.0367 13.0183c.6522.4032 3.1184 5.7374 3.8214 8.3366.9077 3.3554.842 9.1581 0 12.4914-.3205 1.2687-.737 2.4533-.8737 2.601-.1366.1477-.6376-.6945-1.2204-1.7273-.5829-1.0327-2.4344-3.2294-3.9815-4.8619-4.466-4.7124-5.172-7.1699-3.3013-10.9308.9434-1.8966 5.0506-6.2205 5.5555-5.909z" fill="#000" opacity=".2"/>
  <path d="m64 25c-18.8585 0-34.1464 15.2878-34.1464 34.1464 0 18.8585 15.2879 34.1463 34.1464 34.1463s34.1464-15.2878 34.1464-34.1463c0-18.8586-15.2879-34.1464-34.1464-34.1464zm-3.1946 6.8093c.3716-.0389.839.0222 1.2138 0 .0445.1777-.2632.8152-.6869 1.7406-2.6983 5.8947-2.8577 12.7965-.3535 16.4863.4532.669.867 1.3045.867 1.3872 0 .0828-.4878.1734-1.0404.1734-1.2972 0-2.527-.7882-5.0352-2.7744-1.1142-.8823-2.56-1.6218-3.1212-1.734-.8813-.176-1.1141-.0998-2.2542 1.0404-1.0607 1.0606-1.3872 1.6368-1.3872 2.6077 0 3.6817 4.3736 6.601 12.4981 8.3232 11.0335 2.3384 13.7477 4.4354 14.052 10.2372.3822 7.2753-3.4874 12.7596-11.9712 17.0065-1.0126.507-1.6559.7098-2.0808.8737-.1883-.0168-.3392.0167-.5269 0-.0721-.225-.1733-.7453-.1733-1.734 0-3.8642-1.5198-7.8463-3.8148-10.0705-.6161-.5972-2.3377-1.86-3.8148-2.7744s-2.9692-1.9745-3.3013-2.4276c-.5502-.752-.5896-1.2118-.1667-2.601.7706-2.5373 1.6848-3.959 3.468-5.5621.9348-.8405 1.8737-1.5372 2.0808-1.554.2071-.0167-1.192-.4435-3.2946-.8736-2.1025-.431-5.1858-1.3319-6.776-1.9074-2.9077-1.0522-6.8331-3.2633-8.3298-4.8619-.0633-.0678-.1184-.1134-.1734-.1734 2.1444-8.5421 8.1617-15.54 16.1395-18.9139 1.6693-.706 3.3922-1.189 5.2087-1.5606.9048-.1849 1.8401-.2585 2.7743-.3534zm26.0367 13.0183c.6522.4032 3.1184 5.7374 3.8214 8.3365.9077 3.3554.842 9.1581 0 12.4914-.3205 1.2687-.737 2.4533-.8737 2.601-.1366.1477-.6376-.6945-1.2204-1.7273-.5829-1.0327-2.4344-3.2294-3.9815-4.8619-4.466-4.7124-5.172-7.1699-3.3013-10.9308.9434-1.8965 5.0506-6.2205 5.5555-5.9089z" fill="#fff"/>
</svg>
