<svg width="128" height="128" viewBox="0 0 128 128" fill="none" xmlns="http://www.w3.org/2000/svg">
<path d="M106.302 33.2386H23.9102C19.1204 33.2386 15.2374 37.1216 15.2374 41.9114V113.462C15.2374 118.252 19.1204 122.135 23.9102 122.135H106.302C111.092 122.135 114.975 118.252 114.975 113.462V41.9114C114.975 37.1216 111.092 33.2386 106.302 33.2386Z" fill="#26A269"/>
<path d="M106.302 28.9022H23.9102C19.1204 28.9022 15.2374 32.7851 15.2374 37.575V111.294C15.2374 116.084 19.1204 119.967 23.9102 119.967H106.302C111.092 119.967 114.975 116.084 114.975 111.294V37.575C114.975 32.7851 111.092 28.9022 106.302 28.9022Z" fill="url(#paint0_linear)"/>
<path opacity="0.2" d="M108.597 7.22012H21.615C16.8953 7.22012 13.0692 11.0462 13.0692 15.7659V42.0384C13.0692 46.7582 16.8953 50.5842 21.615 50.5842H108.597C113.317 50.5842 117.143 46.7582 117.143 42.0384V15.7659C117.143 11.0462 113.317 7.22012 108.597 7.22012Z" fill="black"/>
<path d="M108.47 5.05193H21.742C16.9522 5.05193 13.0692 8.93488 13.0692 13.7247V39.7432C13.0692 44.5331 16.9522 48.416 21.742 48.416H108.47C113.26 48.416 117.143 44.5331 117.143 39.7432V13.7247C117.143 8.93488 113.26 5.05193 108.47 5.05193Z" fill="url(#paint1_linear)"/>
<path d="M108.47 5.05191H21.742C16.9522 5.05191 13.0692 8.93487 13.0692 13.7247V31.0704C13.0692 35.8602 16.9522 39.7432 21.742 39.7432H108.47C113.26 39.7432 117.143 35.8602 117.143 31.0704V13.7247C117.143 8.93487 113.26 5.05191 108.47 5.05191Z" fill="#F6F5F4"/>
<path d="M108.47 9.38834H21.7421C19.3471 9.38834 17.4056 11.3298 17.4056 13.7247V31.0704C17.4056 33.4653 19.3471 35.4068 21.7421 35.4068H108.47C110.865 35.4068 112.807 33.4653 112.807 31.0704V13.7247C112.807 11.3298 110.865 9.38834 108.47 9.38834Z" fill="#9A9996"/>
<path d="M23.9103 9.38834H17.4056V35.4068H23.9103V9.38834Z" fill="url(#paint2_linear)"/>
<path opacity="0.317" d="M106.302 9.38834V35.4068H112.807V9.38834H106.302Z" fill="url(#paint3_linear)"/>
<path fill-rule="evenodd" clip-rule="evenodd" d="M75.7345 84.6382L87.0008 78.1336L90.2531 83.7667C90.8238 84.7555 91.1241 85.8771 91.124 87.0187C91.124 88.1603 90.8234 89.2819 90.2527 90.2706L87.0012 95.9033L84.619 100.027L77.1086 87.0184L75.7345 84.6382Z" fill="url(#paint4_linear)"/>
<path fill-rule="evenodd" clip-rule="evenodd" d="M58.601 91.7798L58.601 104.789H52.0964C50.9547 104.789 49.8333 104.488 48.8446 103.917C47.856 103.346 47.035 102.525 46.4641 101.537L43.2118 95.9045L40.8319 91.7798H55.8527H58.601Z" fill="url(#paint5_linear)"/>
<path fill-rule="evenodd" clip-rule="evenodd" d="M60.9829 74.6468L49.7166 68.1422L52.9689 62.509C54.131 60.497 56.2781 59.2577 58.6016 59.2575L65.1054 59.2571L69.8675 59.2582L62.3571 72.2665L60.9829 74.6468Z" fill="url(#paint6_linear)"/>
<path fill-rule="evenodd" clip-rule="evenodd" d="M65.1083 59.257L60.3463 59.2592L67.8566 72.2663L69.2308 74.6462L65.4746 76.8145L79.1995 78.9064L84.2516 65.9734L80.4953 68.1416L77.243 62.5094C76.0809 60.4974 73.9343 59.2572 71.6108 59.2571L65.1083 59.257Z" fill="white"/>
<path fill-rule="evenodd" clip-rule="evenodd" d="M71.6108 87.4438L62.9379 98.2848L71.6108 109.126V104.789H78.1154C79.257 104.789 80.3785 104.489 81.3671 103.918C82.3557 103.347 83.1767 102.526 83.7476 101.537L86.9999 95.9048L89.3799 91.7802H74.3591H71.6108V87.4438Z" fill="white"/>
<path fill-rule="evenodd" clip-rule="evenodd" d="M53.181 73.8734L39.4561 75.9654L43.2123 78.1336L39.96 83.7659C39.3892 84.7547 39.0887 85.8764 39.0887 87.0182C39.0887 88.1599 39.3892 89.2816 39.96 90.2705L43.2102 95.9027L45.5923 100.025L53.1027 87.0182L54.4768 84.6382L58.2331 86.8064L53.181 73.8734Z" fill="white"/>
<path opacity="0.645631" d="M20.1811 73.5413L24.696 76.836L21.7674 76.2258L20.1811 73.5413Z" fill="#C0C6D6"/>
<path d="M65.9259 35.167L66.2199 33.6972L71.0702 35.9019L78.1252 27.6711L71.0702 35.9019L65.9259 34.8731L65.8635 35.001L65.9259 35.167Z" fill="white"/>
<path d="M57.5055 20.6203C57.6284 20.1287 55.6618 18.4079 57.3825 17.4246C59.1033 16.4413 63.8969 12.3852 63.8969 12.3852L68.3217 12.8769L74.836 18.6538L85.7752 26.7659L98.558 26.3972L100.033 33.2803L100.714 35.4234L44.9758 35.412C44.9758 35.412 65.9156 24.145 61.594 23.9415C59.5351 23.8446 57.5068 24.0533 31.1458 35.4695L44.4768 28.8555L50.4995 20.4975L50.3766 28.2409L57.5055 20.6203Z" fill="#C0BFBC"/>
<path d="M50.9911 28.7325L59.472 17.9163C59.472 17.9163 67.0926 25.4139 67.5842 25.5368C68.0759 25.6597 76.0651 26.7659 76.0651 26.7659L67.4613 32.1741L64.2656 32.0512L58.7213 35.4861L50.9911 28.7325Z" fill="#FCFDFF"/>
<path d="M31.1458 35.4695L45.5685 27.5829L50.5188 20.577L50.1307 22.2182L48.5329 28.4867L50.6224 28.2409L56.6451 21.7265L49.8849 30.0846L40.2811 35.4994L31.1458 35.4695Z" fill="white"/>
<path d="M57.9971 18.0392C57.9971 18.7767 58.7213 35.486 58.7213 35.486L56.3992 34.1407L57.2596 19.0225L57.9971 18.0392Z" fill="#C0BFBC"/>
<path d="M52.9577 28.4867L60.7012 34.1407L60.1165 35.3665L54.619 35.4276L51.7286 29.9617L52.9577 28.4867Z" fill="#F6F5F4"/>
<path d="M59.6305 21.7266L60.1165 35.3665L64.2397 32.9615L70.1452 31.8092L75.9067 28.2082L59.6305 21.7266Z" fill="#DEDDDA"/>
<path d="M59.7179 22.2182L60.1165 35.3665L63.6511 31.8053L68.6905 30.822L73.6069 27.7492L59.7179 22.2182Z" fill="#FCFDFF"/>
<path opacity="0.645631" d="M77.5401 27.9951L78.0136 35.2287L64.9758 35.3497L65.8634 35.001L73.4064 34.959L77.0484 28.9783L77.5401 27.9951Z" fill="#DEDDDA"/>
<path opacity="0.645631" d="M63.9444 35.5139L64.5114 33.5261L77.663 27.5034L78.0136 35.2287L83.7426 35.3153L78.0136 35.2287L77.4172 27.6263L63.9444 35.5139Z" fill="#77767B"/>
<path opacity="0.645631" d="M78.7692 27.3805L84.7919 31.1908L81.842 34.6323L78.7692 27.3805Z" fill="#9A9996"/>
<path opacity="0.645631" d="M86.021 27.5034C86.021 27.5034 84.9057 33.5402 83.7426 35.3153C83.9884 34.7008 88.1105 27.8721 88.1105 27.8721L96.9601 27.1347L86.021 27.5034Z" fill="#9A9996"/>
<path d="M56.3722 18.4114L64.3091 12.2383L68.2775 12.9732L85.4741 26.9362L98.5553 26.2013L99.7311 33.4033L97.5264 27.9651L85.0332 28.112L67.5426 13.855L64.0151 13.5611L56.3722 18.4114Z" fill="white"/>
<path d="M87.3848 29.7288L83.7426 35.3153L88.7077 30.3167L87.3848 29.7288Z" fill="white"/>
<path d="M63.9444 35.5139L65.6319 33.1388L69.0125 33.9558L77.3903 27.9651L71.2894 35.3904C71.2894 35.3904 71.2894 35.3904 67.0586 35.4039L63.9444 35.5139Z" fill="white"/>
<defs>
<linearGradient id="paint0_linear" x1="15.2374" y1="73.3504" x2="114.975" y2="73.3504" gradientUnits="userSpaceOnUse">
<stop stop-color="#26A269"/>
<stop offset="0.0394022" stop-color="#42D390"/>
<stop offset="0.0869565" stop-color="#2EC27E"/>
<stop offset="0.913043" stop-color="#2EC27E"/>
<stop offset="1" stop-color="#2BB877"/>
</linearGradient>
<linearGradient id="paint1_linear" x1="13.0692" y1="26.734" x2="117.143" y2="26.734" gradientUnits="userSpaceOnUse">
<stop stop-color="#DEDDDA"/>
<stop offset="0.0562887" stop-color="#EEEDEC"/>
<stop offset="0.117776" stop-color="#DEDDDA"/>
<stop offset="0.892135" stop-color="#DEDDDA"/>
<stop offset="0.945937" stop-color="#EFEEED"/>
<stop offset="1" stop-color="#C3C2BC"/>
</linearGradient>
<linearGradient id="paint2_linear" x1="17.4056" y1="22.3976" x2="30.4149" y2="22.3976" gradientUnits="userSpaceOnUse">
<stop stop-color="#77767B"/>
<stop offset="1" stop-color="#77767B" stop-opacity="0"/>
</linearGradient>
<linearGradient id="paint3_linear" x1="112.807" y1="20.2294" x2="99.7974" y2="20.2294" gradientUnits="userSpaceOnUse">
<stop stop-color="white"/>
<stop offset="1" stop-color="#E8E7E8" stop-opacity="0"/>
</linearGradient>
<linearGradient id="paint4_linear" x1="82.9167" y1="94.7717" x2="82.9933" y2="86.7764" gradientUnits="userSpaceOnUse">
<stop stop-color="#DEDDDA"/>
<stop offset="1" stop-color="white"/>
</linearGradient>
<linearGradient id="paint5_linear" x1="45.1683" y1="93.406" x2="53.316" y2="98.2845" gradientUnits="userSpaceOnUse">
<stop stop-color="#DEDDDA"/>
<stop offset="1" stop-color="white"/>
</linearGradient>
<linearGradient id="paint6_linear" x1="65.512" y1="61.4253" x2="58.5283" y2="64.4367" gradientUnits="userSpaceOnUse">
<stop stop-color="#DEDDDA"/>
<stop offset="1" stop-color="white"/>
</linearGradient>
</defs>
</svg>
