<svg height="128" width="128" xmlns="http://www.w3.org/2000/svg" xmlns:xlink="http://www.w3.org/1999/xlink">
  <linearGradient id="linearGradient4262-7-1" gradientTransform="matrix(2.3500001 0 0 2 7.59999 5)" gradientUnits="userSpaceOnUse" x1="22" x2="22" y1="11" y2="9">
    <stop offset="0"/>
    <stop offset="1" stop-opacity="0"/>
  </linearGradient>
  <linearGradient id="linearGradient1121" gradientTransform="matrix(.24375 0 0 .24305558 -17.900009 -77.43568)" gradientUnits="userSpaceOnUse" x1="176" x2="495" y1="799.96399" y2="799.96399">
    <stop offset="0"/>
    <stop offset=".047" stop-color="#424048"/>
    <stop offset=".097" stop-color="#241f31"/>
    <stop offset=".9" stop-color="#241f31"/>
    <stop offset=".95" stop-color="#424048"/>
    <stop offset="1"/>
  </linearGradient>
  <rect fill="url(#linearGradient1121)" height="70" rx="7.8" ry="8" stroke-width=".987421" width="78" x="25" y="53"/>
  <path d="m23.999999 11.500044h80.000001c2.216 0 3.2494 1.914982 4 3.999977l3.6 9.99994c.7506 2.084994-1.784 3.999977-4 3.999977h-87.200001c-2.215999 0-4.750602-1.914983-3.999999-3.999977l3.6-9.99994c.750601-2.084995 1.783999-3.999977 3.999999-3.999977z" fill="#77767b"/>
  <path d="m104 12-12.600002 86.083874c-.314088 2.145866-1.784 3.912906-4 3.912906h-46.799999c-2.216 0-3.685912-1.76704-4-3.912906l-12.6-86.083874z" fill="#241f31" opacity=".3"/>
  <path d="m111.6 27.500096-8.6 85.130294c-.21559 2.13408-1.784 3.86956-4.000002 3.86956h-69.999999c-2.216 0-3.784412-1.73548-4-3.86956l-8.599999-85.130294z" fill="#9a9996"/>
  <path d="m17 23h94v4h-94z" fill="url(#linearGradient4262-7-1)" opacity=".25"/>
  <path d="m47.623139 85.282137c-.5118.9192-.91918 2.30222-.91918 3.17368 0 .2023 0 .459619.0502.816579l-6.39686-11.001379c-.20476-.35696-.35726-.86908-.35726-1.33048 0-.462.1526-1.02362.35726-1.3812l3.07098-5.3732-3.42824-1.94292 11.15596-.20652 2.914191 5.251424 2.509129 4.521496-3.47836-1.9954zm4.91366-32.208706c.97146-1.6904 2.55918-2.611428 4.50208-2.611428 2.09954 0 3.737439.973517 4.913579 2.966545l1.74022 2.916427-6.039679 11.641601-9.77292-6.880828zm.71444 41.060585c-2.91642 0-5.32104-2.4049-5.32104-5.321261 0-.818958.35932-2.201898.87114-3.07098l1.63578-2.91642h12.129459v11.30874h-9.315339zm9.724939-41.369785c-.76678-1.328711-1.79042-2.252108-3.018799-2.764232h12.586959c1.126 0 1.99508.462004 2.50904 1.332836l3.12118 5.321261 3.3763-1.997229-5.42578 9.724549-11.10164-.1564 3.42826-1.9429zm19.3957 30.163726c1.53338 0 2.81404-.409442 3.88788-1.226642l-6.34674 11.051441c-.51182.869059-1.43162 1.417039-2.50516 1.3812h-5.98954v3.94006l-5.73048-9.568159 5.73048-9.5706v3.99262h10.95356zm4.90944-9.211201c.4617.818961.71864 1.688019.71864 2.609579 0 1.8426-1.17826 3.78726-2.81404 4.70654-.76876.41188-1.8466.73182-2.91642.668522h-3.3802l-6.03576-10.44144 9.7732-5.57796z" fill="#f6f5f4" opacity=".2"/>
  <path d="m47.623139 83.282137c-.5118.9192-.91918 2.30222-.91918 3.17368 0 .2023 0 .459619.0502.816579l-6.39686-11.001379c-.20476-.35696-.35726-.86908-.35726-1.33048 0-.462.1526-1.02362.35726-1.3812l3.07098-5.3732-3.42824-1.94292 11.15596-.20652 2.914191 5.251424 2.509129 4.521496-3.47836-1.9954zm4.91366-32.208706c.97146-1.6904 2.55918-2.611428 4.50208-2.611428 2.09954 0 3.737439.973517 4.913579 2.966545l1.74022 2.916427-6.039679 11.641601-9.77292-6.880828zm.71444 41.060585c-2.91642 0-5.32104-2.4049-5.32104-5.321261 0-.818958.35932-2.201898.87114-3.07098l1.63578-2.91642h12.129459v11.30874h-9.315339zm9.724939-41.369785c-.76678-1.328711-1.79042-2.252108-3.018799-2.764232h12.586959c1.126 0 1.99508.462004 2.50904 1.332836l3.12118 5.321261 3.3763-1.997229-5.42578 9.724549-11.10164-.1564 3.42826-1.9429zm19.3957 30.163726c1.53338 0 2.81404-.409442 3.88788-1.226642l-6.34674 11.051441c-.51182.869059-1.43162 1.417039-2.50516 1.3812h-5.98954v3.94006l-5.73048-9.568159 5.73048-9.5706v3.99262h10.95356zm4.90944-9.211201c.4617.818961.71864 1.688019.71864 2.609579 0 1.8426-1.17826 3.78726-2.81404 4.70654-.76876.41188-1.8466.73182-2.91642.668522h-3.3802l-6.03576-10.44144 9.7732-5.57796z" fill="#5e5c64"/>
</svg>
