<svg height="16" width="16" xmlns="http://www.w3.org/2000/svg">
  <g fill="#e6ddff">
    <path d="m4.5 3c-2.49 0-4.5 2.02-4.5 4.5 0 1.221.48724 2.3228 1.2734 3.133l2.1231-2.1232c-.244-.2667-.3965-.6188-.3965-1.0098 0-.82.67-1.5 1.5-1.5.3901 0 .7414.1541 1.0078.3984l2.1192-2.1191c-.8224-.7958-1.9342-1.273-3.127-1.2793zm9.592 3-3.008 3h.916v2h3v-2h1v-3z"/>
    <path d="m2 11.32v2.68h2.67l6.75-6.75-2.67-2.68zm11.79-6.43c.28-.28.28-.73 0-1.01l-1.67-1.67c-.29-.28-.73-.28-1.01 0l-1.4 1.4 2.67 2.68z"/>
  </g>
</svg>
