<svg height="16" viewBox="0 0 16 16" width="16" xmlns="http://www.w3.org/2000/svg">
  <path d="m3 1c-1.104569 0-2 .8954305-2 2 .000648.574405.2482345 1.1208031.6796875 1.5-.431453.3791969-.6790395.925595-.6796875 1.5 0 1.1045695.895431 2 2 2 1.10457 0 2-.8954305 2-2-.000648-.574405-.2482345-1.1208031-.6796875-1.5.431453-.3791969.6790395-.925595.6796875-1.5 0-1.1045695-.89543-2-2-2zm0 1c.552285 0 1 .4477153 1 1s-.447715 1-1 1-1-.4477153-1-1 .447715-1 1-1zm0 3c.552285 0 1 .4477153 1 1s-.447715 1-1 1-1-.4477153-1-1 .447715-1 1-1zm3 0v2h1v8h2v-10h-2zm7 0a3 3 0 0 0 -3 3v4a3 3 0 0 0 3 3 3 3 0 0 0 3-3 3 3 0 0 0 -3-3 3 3 0 0 0 -1 .1757812v-1.1757812a1 1 0 0 1 1-1 1 1 0 0 1 1 1h2a3 3 0 0 0 -3-3zm0 6a1 1 0 0 1 1 1 1 1 0 0 1 -1 1 1 1 0 0 1 -1-1 1 1 0 0 1 1-1z" fill="#e6ddff"/>
</svg>
