<svg height="16" viewBox="0 0 16 16" width="16" xmlns="http://www.w3.org/2000/svg">
  <g fill="#e6ddff" transform="translate(-421.06271 -807)">
    <path d="m424 808a1.0001 1.0001 0 0 0 -1 1v13a1.0001 1.0001 0 0 0 1 1h4a1.0001 1.0001 0 1 0 0-2h-3v-11h5.58594l2.41406 2.41406v2.58594a1.0001 1.0001 0 1 0 2 0v-3a1.0001 1.0001 0 0 0 -.29297-.70703l-3-3a1.0001 1.0001 0 0 0 -.70703-.29297z" fill-rule="evenodd"/>
    <path d="m432.0002 817.00327v1.99673h-2v1.99673h2v1.99674h2v-1.99674h2v-1.99673h-2v-1.99673z"/>
  </g>
</svg>
