<svg height="16" viewBox="0 0 16 16" width="16" xmlns="http://www.w3.org/2000/svg">
  <path d="m12 0c-1.6568 0-3 1.3432-3 3 0 .23127.04425.44001.09375.65625l-3.21875 2c-.51341-.41127-1.1659-.65625-1.875-.65625-1.6568 0-3 1.3432-3 3s1.3432 3 3 3c.70904 0 1.3615-.24498 1.875-.65625l3.21875 2c-.0495.21624-.09375.42498-.09375.65625 0 1.6568 1.3432 3 3 3s3-1.3432 3-3-1.3432-3-3-3c-.70904 0-1.3615.24498-1.875.65625l-3.21875-2c.0495-.21624.09375-.42498.09375-.65625s-.04425-.44001-.09375-.65625l3.21875-2c.51341.41127 1.1659.65625 1.875.65625 1.6568 0 3-1.3432 3-3s-1.3432-3-3-3z" fill="#e6ddff"/>
</svg>
