<svg height="16" viewBox="0 0 16 16" width="16" xmlns="http://www.w3.org/2000/svg">
  <path d="m7.9941 2c-1.87 0-3.3939 1.5344-3.4492 3.4512-.0459.0114-.0915.0299-.1347.0527-.4301.227-.5404.9362-.2461 1.5918.2367.5274.6575.8539 1.039.8438.2872 1.7528 1.4305 3.0605 2.791 3.0605h.0118c1.3606 0 2.5041-1.3077 2.7911-3.0605.381.01.802-.3163 1.039-.8438.294-.6556.184-1.3648-.246-1.5918-.043-.0228-.089-.0413-.135-.0527-.055-1.9168-1.5791-3.4512-3.4491-3.4512zm4.0059 8v2h-2v2h2v2h2v-2h2v-2h-2v-2zm-6.4941 1.012c-2.4691.258-4.2682.889-4.4844 1.636-.003.008.002.017 0 .024-.007.027-.0068.051-.0098.078-.001.012-.0117.021-.0117.033-.00009.004 0 .006 0 .01v1.85c0 .197.1557.357.3496.357h7.6504v-2.934c-.3212.099-.6753.161-1.0547.161-1.1698 0-2.1456-.52-2.4394-1.215z" fill="#e6ddff"/>
</svg>
