<svg width="16" height="16" viewBox="0 0 16 16" fill="none" xmlns="http://www.w3.org/2000/svg">
<path d="M2.00199 5.01801L1.99799 3.01801L2.99799 3.01601L12.998 3.00201L13.998 3.00001L14.002 5.00001L13.002 5.00201L3.00199 5.01601L2.00199 5.01801Z" fill="#e6ddff"/>
<path d="M2.29297 8.295L3.70697 6.881L7.99997 11.174L12.293 6.881L13.707 8.295L7.99997 14.002L2.29297 8.295Z" fill="#e6ddff"/>
<path d="M3 7.588V6.588H2V7.588H3ZM14 7.588V6.588H13V7.588H14Z" fill="#e6ddff"/>
<path d="M14 7.588C14 7.034 13.554 6.588 13 6.588C12.446 6.588 12 7.034 12 7.588C12 8.142 12.446 8.588 13 8.588C13.554 8.588 14 8.142 14 7.588ZM4 7.588C4 7.034 3.554 6.588 3 6.588C2.446 6.588 2 7.034 2 7.588C2 8.142 2.446 8.588 3 8.588C3.554 8.588 4 8.142 4 7.588Z" fill="#e6ddff"/>
</svg>
