<svg height="16" width="16" xmlns="http://www.w3.org/2000/svg">
  <path d="m2 0c-1.108 0-2 .892-2 2v12c0 1.108.892 2 2 2h12c1.108 0 2-.892 2-2v-12c0-1.108-.892-2-2-2zm8.03125.9921875 1 .015625c-.010188.6801477.012075 1.3377771.037109 1.9921875h2.931641v1h-2.882812c.148824 2.3082376.481442 4.4006193.890624 6.033203.290301 1.158273.615781 2.093664.91211 2.708985.148164.307659.292885.534515.396484.65625.04618.054259-.001421.030062.011719.039062.23837-.063597.37119-.153757.478516-.429688.121643-.312741.176093-.811555.183593-1.375l1 .011719c-.008065.606847-.046962 1.197587-.251953 1.72461-.20499.527023-.660068.999054-1.302734 1.111328a.50005.50005 0 0 1 -.080078.005859c-.371987.004804-.607553-.212401-.800781-.439453-.193232-.227052-.363747-.515167-.535157-.871094-.342818-.711854-.678517-1.695627-.980469-2.90039-.429417-1.7133482-.773587-3.8823096-.923828-6.275391h-8.115234v-1h8.070312c-.024568-.6600189-.049341-1.3215952-.039062-2.0078125zm2.96875.0078125c.416833.3789393.758179.7765262 1.023438 1.1933594l-.966797.5683594c-.227364-.4168334-.531218-.8331668-.910157-1.25zm-10 4h6v1h-6zm0 2h6v1h-6zm0 2h1 5v3h-1v-2h-4v2h-1v-2zm2.0097656 2h1.0820313c-.0832715 1.204012-.3837497 2.115307-.9296875 2.693359-.6441967.719985-1.7994641 1.155065-3.4667969 1.306641l-.4550781-.966797c1.5157571-.151576 2.5190977-.492922 3.0117187-1.023437.4297724-.429773.6762005-1.10749.7578125-2.009766zm1.6933594.998047c.9473481.454727 1.8194619.985494 2.6152344 1.591797l-.796875.910156c-.7578785-.644197-1.5905457-1.19371-2.5-1.648438z" fill="#e6ddff"/>
</svg>
