<svg height="16" viewBox="0 0 16 16" width="16" xmlns="http://www.w3.org/2000/svg">
  <path d="m4.5 0c-2.3173-.00001-2.8535969 2.556-2.9667969 6h-1.5332031v4h4v-4h-1.4511719c.10929-2.8711.5222919-5 1.9511719-5 1.696 0 2.6133312 2.1158 2.8945312 5h-1.3945312v4h1.6503906c.42699 3.4818 1.6636094 5.9971 3.8496094 6 2.5026-.00001 2.687481-2.5404 2.925781-6h1.574219v-4h-4v4h1.425781c-.20543 2.899-.358911 5-1.925781 5-1.6756-.004-2.5102687-2.0793-2.8554688-5h1.3554688v-4h-1.6132812c-.36233-3.444-1.6761188-6-3.8867188-6z" fill="#e6ddff"/>
</svg>
