<svg height="16" viewBox="0 0 16 16" width="16" xmlns="http://www.w3.org/2000/svg">
  <path d="m8.7792969 1c-.49361 0-1.0271156.0629238-1.6035157.1835938-.5651799.12304-1.1076468.3981518-1.6230468.8261718-.38684.34639-.6729344.7380144-.8652344 1.1777344-.19231.42803-.2910156.8590894-.2910156 1.2871094 0 .35513.0661987.7092931.1992187 1.0644531.1308.34406.3229419.6487619.5761719.9199219.25324.26883.5660231.4892962.9394531.6601562.37118.15919.7991269.2402344 1.2792969.2402344h.2890625c.0961-.014.1929125-.0273625.2890625-.0390625-.0481.10905-.0901131.2206512-.1269531.3320313-.0352.0979999-.0527344.2255656-.0527344.3847656 0 .28282.0531294.5189137.1621094.7148437.12019.18427.2461431.3623432.3769531.5332031-.20293.014-.4434331.0319875-.7207031.0546876-.27728.0250999-.5700456.0696193-.8847657.1308593-.3125.0612-.630015.1403113-.953125.2382813-.3125.10963-.6075056.251015-.8847656.4218746-.52884.31898-.8894443.686576-1.0839844 1.103516-.2029299.42802-.3046874.808652-.3046874 1.138672 0 .34172.0775618.667676.2324218.972656.15708.31898.3972963.6.7226563.84375.3231.24725.7287543.444064 1.2089843.589844.4930601.14812 1.0621907.220703 1.7128907.220703.76864 0 1.4492625-.10549 2.0390625-.3125.6009396-.19535 1.1005466-.460956 1.4980466-.791016.39523-.31898.695231-.684622.900391-1.101562.20292-.41461.306641-.837605.306641-1.265625 0-.31897-.041994-.599623-.126954-.845703-.0827-.24376-.19952-.464226-.34375-.660156-.13081-.1959405-.294018-.3818849-.486328-.5527349-.17888-.17086-.366284-.3428119-.558594-.5136719l-.648437-.515625c-.0961-.0845-.1995837-.1815887-.3085938-.2929687-.1067699-.12071-.1621093-.2871206-.1621093-.4941406 0-.20993.0553194-.381505.1621093-.515625.1090101-.13413.22356-.2640556.34375-.3847657.1922998-.14812.3797138-.3017475.5585938-.4609374.18112-.1708601.342098-.3548513.486328-.5507813.14423-.20702.26102-.4400956.34375-.6972656.0855-.25716.126953-.5567175.126953-.8984375 0-.34406-.048311-.650715-.144531-.921875-.0962-.26883-.2107-.4993725-.34375-.6953125-.1308-.2076-.269842-.381505-.414063-.515625-.14422-.14579-.272126-.2613563-.378906-.3476563v-.0058594h1.119141l1.154297-.6601562zm-1.1347657.6074219h.0019532c.3712 0 .6953862.1155662.9726562.3476562.28845.22101.5284031.5016532.7207032.8457031.19175.34172.3354906.7096925.4316406 1.1015626.0962.3912799.1445312.7519712.1445312 1.0820312 0 .17261-.0241656.3873713-.0722656.6445312-.048.2571701-.1759763.4902457-.3789062.6972657-.14423.14812-.3316338.2692175-.5585938.3671875-.21475.0975-.4360225.1479575-.6640625.1484375h-.0039063c-.38321-.00059-.7182393-.1120382-1.0058593-.3300781-.27727-.23209-.510825-.5156432-.703125-.8457032-.18112-.33006-.3198657-.6862562-.4160157-1.0664062-.0855-.38079-.1269531-.7223938-.1269531-1.0273438 0-.24551.0242656-.4847069.0722657-.7167968.0586999-.23267.1674156-.4466482.3222656-.6425782.14423-.18486.3313469-.3300262.5605468-.4414062.22697-.10905.462745-.1640625.703125-.1640625zm.6347657 8.1894531h.4667969c.0609999 0 .1251556.0083313.1972656.0195312.33653.2460798.6315356.4642168.8847656.6601558.25324.195931.458154.387793.615234.570313.15486.18428.269687.368261.341797.550781.0833.19594.126953.410488.126953.642578h.001953c0 .57614-.229386 1.047263-.685546 1.414063-.4455304.38079-1.1016504.570312-1.9687504.570312-.97381 0-1.7498718-.20805-2.3261718-.625-.56573-.41694-.8476563-.954494-.8476563-1.615234 0-.33239.0595175-.605162.1796875-.826172.1336-.22101.2829019-.404991.4511719-.550781.16771-.14812.3375893-.26506.5058593-.34961.18111-.075199.3179026-.129275.4140626-.166015.19173-.0612.3905431-.1162426.5957031-.1640626.20293-.0385.3950519-.06865.5761719-.09375.1811299-.0117.3376531-.0254094.4707031-.0371094z" fill="#e6ddff"/>
</svg>
