<svg height="16" viewBox="0 0 16 16" width="16" xmlns="http://www.w3.org/2000/svg">
  <path d="m11.078125 1c-1.8128363 0-3.2832031 1.5814157-3.2832031 3.5332031 0 .2770016.0299364.5479938.0859375.8066407-2.7282451-.1474526-5.1484982-1.5551953-6.7675782-3.6933594-.28255798.5219696-.44335932 1.1296191-.44335932 1.7773437 0 1.2261939.57816672 2.3077091 1.45898432 2.9414063-.5380869-.0183526-1.0437668-.1767259-1.48632808-.4414063-.00038095.0147371 0 .0280656 0 .0429688 0 1.7123359 1.13116338 3.1417451 2.63281248 3.4667969-.2754531.0807912-.565876.1230468-.8652344.1230468-.211528 0-.4167072-.0213281-.6171874-.0625.4177607 1.4040594 1.6299013 2.4246194 3.0664062 2.4531254-1.1234701.947982-2.5382364 1.513672-4.07617188 1.513672-.26495767 0-.52639798-.016184-.78320312-.048829 1.4527529 1.002862 3.1773082 1.587891 5.03125 1.587891 6.038026 0 9.339844-5.3861487 9.339844-10.0566406 0-.1532317-.001477-.3053541-.007813-.4570313.641289-.4982008 1.196634-1.1212806 1.636719-1.8300781-.588659.2811442-1.220848.4712043-1.884766.5566406.67769-.4373946 1.198326-1.1297541 1.44336-1.9550781-.634337.4050945-1.336198.6989361-2.083985.8574219-.598735-.6869155-1.452313-1.1152344-2.396484-1.1152344z" fill="#e6ddff"/>
</svg>
