<svg height="16" width="16" xmlns="http://www.w3.org/2000/svg">
  <g fill="#e6ddff" transform="translate(-31.97559 -220.36218)">
    <path d="m44.350589 222.64343-10 10 1.40625 1.4375 10-10z"/>
    <path d="m41.906249 221.375a1.001098 1.001098 0 1 0 .09375 2h3v3a1.0001 1.0001 0 1 0 2 0v-4-1h-1-4a1.0001 1.0001 0 0 0 -.09375 0z"/>
    <path d="m33.812499 229.375a1.0001 1.0001 0 0 0 -.78125 1v4 1h1 4a1.0001 1.0001 0 1 0 0-2h-3v-3a1.0001 1.0001 0 0 0 -1.21875-1z"/>
    <path d="m41 221.36h1v1h-1z"/>
    <path d="m45.99 226.37h1v1h-1z"/>
    <path d="m33.02 229.37h1v1h-1z"/>
    <path d="m38.04 234.37h1v1h-1z"/>
  </g>
</svg>
