<svg height="16" width="16" xmlns="http://www.w3.org/2000/svg">
  <g fill="#e6ddff" transform="translate(-101 -927)">
    <path d="m109 927-4.9997 3.1426v4.7148l4.9995 3.1426 5.0005-3.1426v-4.7148zm0 6-3.6451-2.176 3.6451-2.292 3.6462 2.292z"/>
    <path d="m112 939h-.99999c-.2569.00001-.52845.11786-.71875.28369l-1.2812 1.1631-1.2812-1.1631c-.19004-.16606-.46185-.28368-.71877-.28364h-1l-.00001.90779c0 .28091.0902.50137.2813.68082l2.7187 2.4113 2.7187-2.4113c.19093-.17949.28125-.39993.28125-.68084v-.90778z"/>
  </g>
</svg>
