<svg xmlns="http://www.w3.org/2000/svg" fill="none" width="16" height="16" version="1.1" viewBox="0 0 16 16">
 <path fill-rule="evenodd" d="m 11.5189,12.8597 c -0.2461,0.1783 -0.5048,0.3371 -0.7738,0.4755 -0.1799,0.0926 -0.3645,0.176 -0.5528,0.25 -0.28131,0.1104 -0.57118,0.1996 -0.86728,0.2667 -3e-4,0 2.9e-4,-10e-5 0,0 l -0.5268,-2.3242 c 4e-4,-10e-5 8.1e-4,-10e-5 0.00121,-2e-4 0.47647,-0.108 0.92613,-0.3114 1.32187,-0.598 z m 2.0494,-2.6248 c -0.1132,0.2821 -0.2474,0.5544 -0.4012,0.8149 -0.1028,0.1743 -0.2145,0.3432 -0.3344,0.5062 -0.1792,0.2436 -0.377,0.4738 -0.592,0.6886 0,0 10e-5,0 0,0 l -1.6844,-1.6858 c 0.346,-0.3456 0.6182,-0.75774 0.8004,-1.21153 z m -12.0683,-10.2349 c -0.828427,0 -1.5,0.671573 -1.5,1.5 v 13 c 0,0.8284 0.671573,1.5 1.5,1.5 h 13 c 0.8284,0 1.5,-0.6716 1.5,-1.5 v -13 c 0,-0.828427 -0.6716,-1.5 -1.5,-1.5 z m 7.79763,4.62388 c 0.3056,0.11746 0.59261,0.27538 0.85377,0.46862 l -1.15139,1.15285 0.28612,0.28612 0.0296,0.02959 c 0.05466,0.05578 0.12623,0.09335 0.21085,0.10479 l 3.90602,0.51188 c 0.1709,0.02512 0.3699,-0.07423 0.5189,-0.22348 0.1491,-0.14924 0.2483,-0.34839 0.223,-0.51945 l -0.514,-3.90815 c -0.0115,-0.08465 -0.0492,-0.15612 -0.1049,-0.21092 l -0.0296,-0.0296 -0.2861,-0.28612 -1.3934,1.39518 c -0.1259,-0.10515 -0.2559,-0.20505 -0.3899,-0.29946 -0.4027,-0.28386 -0.8405,-0.51813 -1.304,-0.69629 -0.9377,-0.36041 -1.9509,-0.47961 -2.94666,-0.34666 -0.99576,0.13295 -1.94219,0.5138 -2.7525,1.10761 -0.81031,0.5938 -1.45855,1.38157 -1.88527,2.29103 -0.42671,0.90946 -0.61824,1.91151 -0.55702,2.91424 0.06123,1.00273 0.37324,1.97404 0.90743,2.82484 0.53419,0.8508 1.27346,1.5538 2.14999,2.0446 0.43327,0.2427 0.89322,0.4296 1.36894,0.5579 0.48669,0.1313 0.98987,0.2012 1.49786,0.2067 l 0.02567,-2.383 c -0.60555,-0.0065 -1.19977,-0.165 -1.72816,-0.4609 -0.52839,-0.2958 -0.97403,-0.7196 -1.29605,-1.23252 -0.32202,-0.51287 -0.51011,-1.09839 -0.54701,-1.70285 -0.03691,-0.60446 0.07855,-1.20852 0.33578,-1.75676 0.25723,-0.54824 0.648,-1.02312 1.13647,-1.38108 0.48847,-0.35796 1.059,-0.58754 1.65926,-0.66768 0.60026,-0.08015 1.21103,-0.00829 1.7763,0.20897 z" clip-rule="evenodd" style="fill:#33d17a"/>
 <defs>
  <clipPath id="clip0">
   <rect fill="#fff" width="16" height="16"/>
  </clipPath>
 </defs>
</svg>
