<svg fill="none" height="16" viewBox="0 0 16 16" width="16" xmlns="http://www.w3.org/2000/svg" xmlns:xlink="http://www.w3.org/1999/xlink">
  <clipPath id="clip0">
    <path d="m0 0h16v16h-16z"/>
  </clipPath>
  <g clip-path="url(#clip0)" fill="#e6ddff">
    <path d="m12 10v1.9968h-2v1.9967h2v1.9967h2v-1.9967h2v-1.9967h-2v-1.9968z"/>
    <g clip-rule="evenodd" fill-rule="evenodd">
      <path d="m13.5557 8.58124c.1176-1.12434-.1087-2.25792-.649-3.25093s-1.3691-1.79872-2.3771-2.31067c-1.00787-.51194-2.1474-.70602-3.26796-.55659-1.12056.14942-2.16941.63533-3.00796 1.3935-.83854.75818-1.42731 1.75293-1.68851 2.85282s-.18252 2.25315.22562 3.30743c.40815 1.0542 1.12656 1.9598 2.0603 2.597.93373.6373 2.03886.9763 3.16933.9721l.00882 2.4141c-.00092 0-.00184 0-.00276 0-.67754.0022-1.3487-.0816-1.99815-.2468-.90153-.2292-1.76122-.6153-2.53807-1.1455-1.33727-.9126-2.36614-2.2096-2.950669-3.7194-.5845285-1.50982-.6972-3.16147-.323126-4.73668.374074-1.57522 1.217285-2.99987 2.418215-4.0857 1.20093-1.08582 2.70305-1.781712 4.30787-1.9957174 1.60482-.2140056 3.23685.0639494 4.68035.7971354 1.4434.733182 2.6305 1.887092 3.4043 3.309242.4495.82617.7472 1.72028.8848 2.64027.0991.66273.1151 1.3389.0449 2.01276-.0001.00094-.0002.00188-.0003.00282z"/>
      <path d="m8 11.5c1.933 0 3.5-1.567 3.5-3.5s-1.567-3.5-3.5-3.5-3.5 1.567-3.5 3.5 1.567 3.5 3.5 3.5zm0-1.76877c-.95613 0-1.73123-.7751-1.73123-1.73123s.7751-1.73123 1.73123-1.73123 1.73123.7751 1.73123 1.73123-.7751 1.73123-1.73123 1.73123z"/>
    </g>
  </g>
</svg>
