<svg height="16" viewBox="0 0 16 16" width="16" xmlns="http://www.w3.org/2000/svg">
  <path d="m8 1a7 7 0 0 0 -7 7 7 7 0 0 0 7 7 7 7 0 0 0 7-7 7 7 0 0 0 -7-7zm0 2a5 5 0 0 1 5 5 5 5 0 0 1 -5 5 5 5 0 0 1 -5-5 5 5 0 0 1 5-5zm.0957031 1c-2.2091 0-4 1.7909-4 4s1.7909 4 4 4c2.2090999 0 3.9999999-1.7909 3.9999999-4-.001-2.0748-1.58915-3.8041219-3.6562499-3.9824219-.43945-.0176-.34375-.0175781-.34375-.0175781zm0 1c1.6569 0 2.9999999 1.3432 2.9999999 3s-1.3430999 3-2.9999999 3c-1.6568 0-3-1.3432-3-3s1.3432-3 3-3zm0 1c-1.108 0-2 .892-2 2s.892 2 2 2 1.9999999-.892 1.9999999-2c0-.20481-.039003-.3982044-.095703-.5839844-.15788.34371-.4999769.5839844-.9042969.5839844-.554 0-1-.446-1-1 0-.40432.2402644-.7464069.5839844-.9042969-.18578-.0567-.3791744-.0957031-.5839844-.0957031z" fill="#e6ddff"/>
</svg>
