<svg height="16" viewBox="0 0 16 16" width="16" xmlns="http://www.w3.org/2000/svg">
  <path d="m.58091722 14.999884a.49918.49918 0 0 0 .48046898-.587891c-.21799998-1.5948.142812-3.898828 1.257812-5.7363277.636-1.0488999 1.506344-1.9433902 2.652344-2.5253903v2.1933591h5.9999998v-2.2753911c1.2181.577 2.122638 1.5071161 2.773438 2.6035161 1.0896 1.8353999 1.420234 4.1378219 1.177734 5.7324219a.49918.49918 0 0 0 .523437.580078.49918.49918 0 0 0 .462891-.429687c.28265-1.8583-.07751-4.323325-1.304687-6.3906254-.6862-1.1562995-1.698669-2.1432656-2.980469-2.8222656h1.433594a1.5 1.5 0 0 0 1.414062 1.001953 1.5 1.5 0 0 0 1.5-1.5 1.5 1.5 0 0 0 -1.5-1.5 1.5 1.5 0 0 0 -1.412109 1h-2.087891v-2h-5.9999998v2h-2.087891a1.5 1.5 0 0 0 -1.412109-1 1.5 1.5 0 0 0 -1.49999999 1.5 1.5 1.5 0 0 0 1.49999999 1.5 1.5 1.5 0 0 0 1.414062-1.001953h1.591797c-1.289.678-2.310718 1.6619061-3.011718 2.8164062-1.25299999 2.0650998-1.64657899 4.5304718-1.39257899 6.3886718a.49918.49918 0 0 0 .50781301.453125z" fill="#e6ddff"/>
</svg>
