<svg height="16" width="16" xmlns="http://www.w3.org/2000/svg">
  <g fill="#e6ddff" transform="translate(-241 -667)">
    <path d="m244 674v2h10v-2z"/>
    <path d="m251 671v1c0 .25689.12983.52846.3125.71875l2.2812 2.2812-2.2812 2.2812c-.18267.19029-.3125.46186-.3125.71875v1h1c.30945 0 .55232-.0903.75-.28125l3.6562-3.7188-3.6562-3.7188c-.19768-.19095-.44055-.28125-.75-.28125z"/>
    <path d="m247 671v1c0 .25689-.12983.52846-.3125.71875l-2.2812 2.2812 2.2812 2.2812c.18267.19029.3125.46186.3125.71875v1h-1c-.30945 0-.55232-.0903-.75-.28125l-3.6562-3.7188 3.6562-3.7188c.19768-.19095.44055-.28125.75-.28125z"/>
  </g>
</svg>
