<svg height="16" width="16" xmlns="http://www.w3.org/2000/svg">
  <path d="m5.3261719 0c-1.67759.0195-2.9064963-.04015813-3.9101563.51367188-.50182998.27685999-.89762747.74519812-1.11718748 1.33007812-.21956.58488-.29882812 1.27944-.29882812 2.15625v8c0 .87681.07924813 1.57137.29882812 2.15625.21956001.58488.61535751 1.053218 1.11718748 1.330078 1.00366.55376 2.2325663.494242 3.9101563.513672h.0039062 5.3398439.003906c1.67759-.0195 2.904543.040158 3.908203-.513672.50183-.27686.897628-.745198 1.117188-1.330078.21998-.58488.300781-1.27944.300781-2.15625v-8c0-.87681-.079248-1.57136-.298828-2.15625-.21955-.58488-.615358-1.05319812-1.117188-1.33007812-1.00366-.55379001-2.232556-.49431188-3.910156-.51367188h-.003906-2.0039064-3.3359375zm2.8203125 3.6582031 1.2636718 2.8789063 3.0898438.5917968-2.347656 2.0917969.392578 3.1210939-2.716797-1.585938-2.8457031 1.337891.6699219-3.0742188-2.1523438-2.2929687 3.1289062-.3125z" fill="#f6d32d"/>
</svg>
