<svg fill="none" height="16" viewBox="0 0 16 16" width="16" xmlns="http://www.w3.org/2000/svg" xmlns:xlink="http://www.w3.org/1999/xlink">
  <clipPath id="clip0">
    <path d="m0 0h16v16h-16z"/>
  </clipPath>
  <g clip-path="url(#clip0)">
    <path clip-rule="evenodd" d="m5.32617 0c-.18492.00214953-.3644.0033372-.53871.00449076-1.40707.00931134-2.47842.01640104-3.37144.50918124-.501834.27686-.897632.745198-1.117192 1.330078-.2195599.58488-.298828 1.27944-.298828 2.15625v8c0 .8768.0792481 1.5714.298828 2.1562.21956.5849.615358 1.0533 1.117192 1.3301.67902.3746 2.23256.4943 3.91015.5137h.00391 5.33982.0039c.1849-.0021.3644-.0033.5386-.0045 1.4068-.0093 2.4766-.0164 3.3696-.5092.5019-.2768.8977-.7452 1.1172-1.3301.22-.5848.3008-1.2794.3008-2.1562v-8c0-.87681-.0792-1.57136-.2988-2.15625-.2196-.58488-.6154-1.053198-1.1172-1.330078-.8934-.4929372-1.9652-.4999785-3.3731-.50922743-.1738-.00114178-.3527-.00231721-.5371-.00444457h-.0039-2.00388-3.33594zm1.42383 3h2.5v3.75h3.75v2.5h-3.75v3.75h-2.5v-3.75h-3.75v-2.5h3.75z" fill="#e6ddff" fill-rule="evenodd"/>
  </g>
</svg>
