<svg fill="none" height="16" viewBox="0 0 16 16" width="16" xmlns="http://www.w3.org/2000/svg" xmlns:xlink="http://www.w3.org/1999/xlink">
  <clipPath id="clip0">
    <path d="m0 0h16v16h-16z"/>
  </clipPath>
  <g clip-path="url(#clip0)">
    <path clip-rule="evenodd" d="m8 16c4.4183 0 8-3.5817 8-8 0-4.41828-3.5817-8-8-8-4.41828 0-8 3.58172-8 8 0 4.4183 3.58172 8 8 8zm3.6982-8.41211c.155-.36003.2325-.74284.2325-1.14844s-.0775-.78613-.2325-1.1416c-.1503-.35547-.36-.66536-.6289-.92969-.2643-.26888-.5765-.48079-.9365-.63574-.35546-.15495-.73599-.23242-1.14159-.23242h-4.49121v1.96191h4.49121c.13672 0 .26432.02507.38281.0752s.22103.12077.30762.21191c.09115.08659.16178.18913.21191.30762.05469.11849.08204.24609.08204.38281s-.02735.2666-.08204.38965c-.05013.11849-.12076.22331-.21191.31445-.08659.08659-.18913.15495-.30762.20508s-.24609.0752-.38281.0752c-.41016 0-.78613.07747-1.12793.23242-.3418.15039-.63802.35775-.88867.62207-.24609.25977-.43978.56738-.58106.92285-.13671.35547-.20735.73373-.21191 1.13473v.5469h1.95508v-.5195c0-.1367.01823-.2643.05469-.38283.03645-.11849.08886-.22103.15722-.30762.07292-.09114.16179-.16178.2666-.21191.10938-.05013.2347-.0752.37598-.0752.4056 0 .78613-.07747 1.14159-.23242.36-.15495.6722-.36458.9365-.62891.2689-.26888.4786-.58105.6289-.93652zm-3.45894 5.48241c.0638-.1458.0957-.3008.0957-.4648 0-.1595-.0319-.3099-.0957-.4512-.05925-.1413-.14128-.2643-.2461-.3691-.10481-.1049-.22786-.1869-.36914-.2461-.14127-.0638-.29166-.0957-.45117-.0957-.1595 0-.31217.0319-.45801.0957-.14127.0592-.2666.1412-.37597.2461-.10482.1048-.18913.2278-.25293.3691-.05925.1413-.08887.2917-.08887.4512 0 .164.02962.319.08887.4648.0638.1413.14811.2643.25293.3692.10937.1048.2347.1868.37597.246.14584.0638.29851.0957.45801.0957.15951 0 .3099-.0319.45117-.0957.14128-.0592.26433-.1412.36914-.246.10482-.1049.18685-.2279.2461-.3692z" fill="#e6ddff" fill-rule="evenodd"/>
  </g>
</svg>
