<svg viewBox="0 0 16 16" xmlns="http://www.w3.org/2000/svg">
  <g fill="#e6ddff">
    <path d="m9.5 3a3.5 3.5 0 0 0 -3.4589844 3h3.9589844v3.9609375a3.5 3.5 0 0 0 3-3.4609375 3.5 3.5 0 0 0 -3.5-3.5zm-3.4589844 3a3.5 3.5 0 0 0 -.0292968.28125 3.5 3.5 0 0 1 .0292968-.28125zm-.0410156.5a3.5 3.5 0 0 0 .015625.3105469 3.5 3.5 0 0 1 -.015625-.3105469zm.0332031.4492188a3.5 3.5 0 0 0 .0058594.0507812h-3.0390625v6h6v-3.0390625a3.5 3.5 0 0 1 -2.9667969-3.0117187zm3.03125 3.0195312a3.5 3.5 0 0 0 .1230469.015625 3.5 3.5 0 0 1 -.1230469-.015625zm.7734375.0117188a3.5 3.5 0 0 1 -.3378906.0195312 3.5 3.5 0 0 0 .3378906-.0195312z" fill-opacity=".5"/>
    <path d="m9.5039062 2a4.5 4.5 0 0 0 -4.4667968 4h-3.0371094v8h8v-3.029297a4.5 4.5 0 0 0 4.003906-4.470703 4.5 4.5 0 0 0 -4.4999998-4.5zm0 1a3.5 3.5 0 0 1 3.4999998 3.5 3.5 3.5 0 0 1 -3.003906 3.4609375v-3.9609375h-3.9550781a3.5 3.5 0 0 1 3.4589843-3zm-6.5039062 4h2.0351562a4.5 4.5 0 0 0 3.9648438 3.966797v2.033203h-6zm3.0429688 0h2.9570312v2.9589844a3.5 3.5 0 0 1 -2.9570312-2.9589844z"/>
  </g>
</svg>
