<svg height="16" viewBox="0 0 16 16" width="16" xmlns="http://www.w3.org/2000/svg">
  <g fill="#e6ddff">
    <path d="m14.501953.94726562c-.8272 0-1.498047.67156998-1.498047 1.49999998s.670817 1.5 1.498047 1.5c.8272 0 1.498047-.67157 1.498047-1.5s-.670817-1.49999998-1.498047-1.49999998zm-6.8105468 4.43945318c-.2735.1978999-.5374687.4064531-.7929687.6269531 1.4703 1.411 2.9599313 2.2894812 4.3945315 2.5507812 1.512.2753 2.959547-.1605718 4.060547-1.2636719l-.705078-.7070312c-.895.8969-1.941782 1.2110281-3.175782.9863281-1.141-.2077-2.4465498-.9412593-3.7812498-2.1933593zm-1.3261718 1.1074218c-.23552.23065-.456175.4758457-.671875.7285156 1.3998 1.4258 2.2839062 2.9248188 2.5039062 4.1367188.22439 1.236-.088882 2.284841-.984375 3.181641l.7050782.707031c1.1014999-1.103 1.5365187-2.554359 1.2617187-4.068359-.2704-1.4891005-1.3089531-3.1571474-2.8144531-4.6855474zm-3.8457032 6.4531254c-.8271999 0-1.4980468.67157-1.4980468 1.5s.6708169 1.5 1.4980468 1.5c.8272 0 1.4980469-.67157 1.4980469-1.5s-.6708169-1.5-1.4980469-1.5z"/>
    <path d="m13.070312 2.0292969c-5.3270995 1.1006-10.0373745 4.6577812-10.9843745 10.9882811.13845-.0423.2813238-.072266.4335937-.072266.2018 0 .3946226.040822.5703126.113282.42877-2.7319 1.5878437-4.8809003 3.2148437-6.5000002.021069-.02112.0392789-.0455163.0605469-.0664063 0 0 .0019531.0019531.0019531.0019531 1.8124-1.7741 4.1857655-2.900325 6.7597655-3.453125-.078-.1823-.123047-.38255-.123047-.59375 0-.14598.027567-.2845487.066406-.4179687z" opacity=".3"/>
  </g>
</svg>
