<svg fill="none" height="16" viewBox="0 0 16 16" width="16" xmlns="http://www.w3.org/2000/svg" xmlns:xlink="http://www.w3.org/1999/xlink">
  <clipPath id="clip0">
    <path d="m0 0h16v16h-16z"/>
  </clipPath>
  <g clip-path="url(#clip0)" fill="#e6ddff">
    <path d="m12 10v1.9968h-2v1.9967h2v1.9967h2v-1.9967h2v-1.9967h-2v-1.9968z"/>
    <path d="m10.2857 1-6.42856.00418v5.84659c-.22857-.08569-.45714-.13529-.71428-.13529-1.18343 0-2.14286.95916-2.14286 2.14226 0 1.18306.95943 2.14226 2.14286 2.14226s2.14285-.9592 2.14285-2.14226v-4.9986h4.28572v2.99023c-.22857-.08569-.45714-.13668-.71429-.13668-1.18343 0-2.14285.95916-2.14285 2.14226 0 1.18305.95942 2.14225 2.14285 2.14225 1.18346 0 2.14286-.9592 2.14286-2.14225v-7.85495z"/>
  </g>
</svg>
