<svg height="16" viewBox="0 0 16 16" width="16" xmlns="http://www.w3.org/2000/svg">
  <path d="m5 0c-2.77 0-5 2.23-5 5s2.23 5 5 5h2v-2h-2c-1.662 0-3-1.338-3-3s1.338-3 3-3h2v-2zm4 0v2h2c1.662 0 3 1.338 3 3s-1.338 3-3 3h-2v2h2c2.77 0 5-2.23 5-5s-2.23-5-5-5zm-4 4v2h6v-2zm7.414062 7.050781-1.414062 1.414063 1.060547 1.060547-1.060547 1.060547 1.414062 1.414062 1.060547-1.060547 1.060547 1.060547 1.414063-1.414062-1.060547-1.060547 1.060547-1.060547-1.414063-1.414063-1.060547 1.060547z" fill="#e6ddff"/>
</svg>
