<svg height="16" viewBox="0 0 16 16" width="16" xmlns="http://www.w3.org/2000/svg">
  <path d="m6 2c-1.6569 0-3 1.3432-3 3s1.3431 3 3 3 3-1.3432 3-3-1.3431-3-3-3zm5 1.9511719c-.38828 0-.753294.0893022-1.0839844.2382812.0546.262.0839844.5330469.0839844.8105469 0 1.1021-.4541938 2.1041781-1.1835938 2.8300781.4603001.7037 1.2625938 1.1738282 2.1835938 1.1738281 1.4327 0 2.59375-1.1302906 2.59375-2.5253906s-1.16105-2.5273437-2.59375-2.5273437zm-5 6.0488281c-6.0002.0034-6 4.003906-6 4.003906v1c.88052.0026 13.517-.002006 10-.003906-.55226-.000055-.99994-.44774-1-1v-2c.0000552-.55226.44774-.99994 1-1h.154297c-.8883001-.573-2.199197-1.001-4.154297-1zm6 0v2h-2v2h2v2h2v-2h2v-2h-2v-2z" fill="#e6ddff"/>
</svg>
