<svg height="16" viewBox="0 0 16 16" width="16" xmlns="http://www.w3.org/2000/svg">
  <path d="m14.990234.49414062a.50005.50005 0 0 0 -.34375.15039063l-5.8554684 5.85546875h-2.2910156v1.40625l-5.63671875 1.6113281a.50005.50005 0 1 0 .27343755.9609379l5.1464843-1.4707035-5.63671872 5.6367185a.50005.50005 0 1 0 .70703122.707031l5.8515625-5.851562h2.2949219v-1.4101562l5.636719-1.6113282a.50005.50005 0 0 0 -.140625-.9824218.50005.50005 0 0 0 -.132813.0214843l-5.1464841 1.4707031 5.6367191-5.6367187a.50005.50005 0 0 0 -.363282-.85742188z" fill="#e6ddff"/>
</svg>
