<svg height="16" viewBox="0 0 16.03 16" width="16.031" xmlns="http://www.w3.org/2000/svg">
  <g fill="#e6ddff" transform="translate(-119.97 -806)">
    <path d="m124.97 808s-.70875-.01379-1.4473.35547c-.73851.36925-1.5527 1.3112-1.5527 2.6445v5.0117h-.00195-1.998v5.9883h16.031v-5.9883h-1.9941-.00586v-5.0117s.01379-.70875-.35547-1.4473c-.36926-.73851-1.3112-1.5527-2.6445-1.5527h-6.0312zm0 2h6.0312c.66667 0 .72473.18578.85547.44727.13074.26148.14453.55273.14453.55273v6.9883l1.9941.02344h.00586v1.9883h-12.031v-1.9883h.00391l1.9961-.01172v-7c0-.66666.18578-.72472.44727-.85547.26148-.13074.55273-.14453.55273-.14453z"/>
    <path d="m127 811v2h-2v2h2v2h2v-2h2v-2h-2v-2z"/>
  </g>
</svg>
