<svg fill="none" height="16" viewBox="0 0 16 16" width="16" xmlns="http://www.w3.org/2000/svg">
  <path d="m12.284 7.34915c.1923-.17153.4266-.29109.7027-.35869.2814-.06628.5799-.05931.8956.02091.3675.09337.6758.26811.9248.52423.2542.25744.4239.57607.5092.95591.0919.37598.0819.78394-.0299 1.2239-.1118.43999-.299.80839-.5618 1.10529-.2563.2931-.5582.4946-.9058.6047-.3424.1114-.6973.1204-1.0648.027-.3209-.0815-.5872-.2153-.7989-.4014-.2052-.1898-.3547-.4041-.4483-.6428l-.1558.6133-1.087-.2761 1.4597-5.7454 1.087.27616zm1.8922 2.08419c.0657-.2588.0679-.49518.0066-.70913-.0549-.21782-.1578-.39825-.3088-.54131-.1459-.14174-.3197-.23825-.5216-.28954-.1967-.04997-.3961-.04555-.5984.01326-.1958.05494-.3724.16437-.5298.32826-.1521.16521-.2611.37722-.3268.63602-.0658.2588-.0712.49711-.0164.71492.0601.21913.1623.40215.3068.54908.151.143.3249.2396.5216.2895.2018.0513.4013.0469.5984-.0132.2023-.0588.3795-.1708.5317-.3361.1574-.16385.2696-.37779.3367-.64176z" fill="#e6ddff"/>
  <path d="m1 8.73427c0-.44056.08654-.8313.25962-1.17221.17832-.34091.41695-.60314.7159-.78671.3042-.18357.64249-.27535 1.01486-.27535.32518 0 .6084.06556.84966.19668.2465.13112.44318.29633.59003.49563v-.62151h1.10927v4.3584h-1.10927v-.6372c-.14161.2045-.33829.375-.59003.5113-.24651.1311-.53235.1967-.85752.1967-.36714 0-.7028-.0944-1.007-.2832-.29895-.1888-.53758-.4537-.7159-.7946-.17308-.34615-.25962-.74213-.25962-1.18793zm3.43007.01573c0-.26748-.05245-.49563-.15734-.68444-.1049-.19406-.24651-.34091-.42483-.44056-.17832-.10489-.36975-.15734-.5743-.15734-.20454 0-.39336.04982-.56643.14947-.17308.09965-.31469.24651-.42483.44056-.10489.18881-.15734.41434-.15734.67658 0 .26223.05245.493.15734.6923.11014.19406.25175.34354.42483.44843.17832.1049.36713.1573.56643.1573.20455 0 .39598-.04978.5743-.14943.17832-.1049.31993-.25175.42483-.44056.10489-.19406.15734-.42483.15734-.69231z" fill="#e6ddff"/>
  <g fill="#ff7800">
    <path d="m7 0h2v16h-2z"/>
    <path d="m-11.36 10.88h2v8.028h-2z" transform="matrix(.25881905 -.96592583 .96592583 .25881905 0 0)"/>
  </g>
</svg>
