<svg xmlns="http://www.w3.org/2000/svg" fill="none" width="16" height="16" version="1.1" viewBox="0 0 16 16">
 <rect fill="#E6DDFF" width="7" height="7" x="-11.5" y="4.5" transform="rotate(-90)"/>
 <path d="m 10.5,3.5 -4.99999,0.0032 v -0.25261 -0.02614 c -5e-4,-0.04875 0.0194,-0.09695 0.0625,-0.13941 l 1.99999,-1.9525 c 0.08594,-0.08666 0.26172,-0.13083 0.4375,-0.13094 0.17577,-1.1e-4 0.35155,0.04383 0.4375,0.13038 l 2,1.94994 c 0.0431,0.0424 0.0631,0.09058 0.0625,0.13933 v 0.02614 z" style="fill:#ff7800"/>
 <path d="m 10.5,12.5 -4.99999,-0.0032 v 0.2526 0.0261 c -5e-4,0.0488 0.0194,0.097 0.0625,0.1395 l 1.99999,1.9525 c 0.08594,0.0866 0.26172,0.1308 0.4375,0.1309 0.17577,10e-5 0.35155,-0.0438 0.4375,-0.1304 l 2,-1.9499 c 0.0431,-0.0424 0.0631,-0.0906 0.0625,-0.1394 v -0.0261 z" style="fill:#ff7800"/>
 <defs>
  <clipPath id="clip0">
   <rect fill="#fff" width="16" height="16"/>
  </clipPath>
 </defs>
</svg>
