<svg fill="none" height="16" viewBox="0 0 16 16" width="16" xmlns="http://www.w3.org/2000/svg">
  <path d="m4.5 4.5h7v7h-7z" fill="#e6ddff"/>
  <g fill="#ff7800">
    <path d="m12.5 10.5-.0032-4.99999h.2526.0261c.0488-.0005.097.0194.1395.0625l1.9525 1.99999c.0866.08594.1308.26172.1309.4375.0001.17577-.0438.35155-.1304.4375l-1.9499 2c-.0424.0431-.0906.0631-.1394.0625h-.0261z"/>
    <path d="m3.5 10.5.0032-4.99999h-.25261-.02614c-.04875-.0005-.09695.0194-.13941.0625l-1.9525 1.99999c-.08666.08594-.13083.26172-.13094.4375-.00011.17577.04383.35155.13038.4375l1.94994 2c.0424.0431.09058.0631.13933.0625h.02614z"/>
  </g>
</svg>
