<svg height="16" viewBox="0 0 16 16" width="16" xmlns="http://www.w3.org/2000/svg">
  <path d="m6.0039062 2a6 6 0 0 0 -5.99999995 6 6 6 0 0 0 5.99999995 6 6 6 0 0 0 1.9980469-.351562 6 6 0 0 0 2.0019529.351562 6 6 0 0 0 6-6 6 6 0 0 0 -6-6 6 6 0 0 0 -1.9999998.3496094 6 6 0 0 0 -2-.3496094zm-.4941406 2.0351562a6 6 0 0 0 -1.5058594 3.9648438 6 6 0 0 0 1.5039063 3.964844 4 4 0 0 1 -3.5039063-3.964844 4 4 0 0 1 3.5058594-3.9648438zm4.9882814 0a4 4 0 0 1 3.505859 3.9648438 4 4 0 0 1 -3.507812 3.964844 6 6 0 0 0 1.507812-3.964844 6 6 0 0 0 -1.505859-3.9648438zm-2.4921876.5058594a4 4 0 0 1 1.9980466 3.4589844 4 4 0 0 1 -2.0019529 3.458984 4 4 0 0 1 -1.9980469-3.458984 4 4 0 0 1 2.0019532-3.4589844z" fill="#e6ddff"/>
</svg>
