<svg height="16" width="16" xmlns="http://www.w3.org/2000/svg">
  <g fill="#e6ddff">
    <path d="m3.25 3h3.5c.1385 0 .25.1115.25.25v3.5c0 .1385-.1115.25-.25.25h-3.5c-.1385 0-.25-.1115-.25-.25v-3.5c0-.1385.1115-.25.25-.25z"/>
    <path d="m9.25 3h3.5c.139 0 .25.1115.25.25v3.5c0 .1385-.111.25-.25.25h-3.5c-.1385 0-.25-.1115-.25-.25v-3.5c0-.1385.1115-.25.25-.25z"/>
    <path d="m3.25 9h3.5c.1385 0 .25.1115.25.25v3.5c0 .139-.1115.25-.25.25h-3.5c-.1385 0-.25-.111-.25-.25v-3.5c0-.1385.1115-.25.25-.25z"/>
    <path d="m9.25 9h3.5c.139 0 .25.1115.25.25v3.5c0 .139-.111.25-.25.25h-3.5c-.1385 0-.25-.111-.25-.25v-3.5c0-.1385.1115-.25.25-.25z"/>
  </g>
</svg>
