<svg width="16" height="16" viewBox="0 0 16 16" fill="none" xmlns="http://www.w3.org/2000/svg">
<path fill-rule="evenodd" clip-rule="evenodd" d="M7.86048 14.6294C7.86058 14.6156 7.86067 14.6011 7.86076 14.5857C7.86162 14.4385 7.86223 14.2268 7.86262 13.9666C7.86341 13.4465 7.86334 12.7368 7.8628 11.9716C7.86185 10.6113 7.85945 9.07705 7.85784 8.1236L5.88688 5.8818H2.3189V14.6294H7.86048ZM1.99435 4.97824C1.99435 4.97824 1.95564 4.96726 1.89758 4.97824C1.72352 5.01122 1.375 5.15469 1.375 5.68238V14.8289C1.375 15.5324 1.99435 15.533 1.99435 15.533H8.18182C8.80068 15.533 8.80117 14.8289 8.80117 14.8289C8.81282 14.7964 8.80427 9.58545 8.80117 7.79333L6.32618 4.97824H1.99435Z" fill="#e6ddff"/>
<path d="M5.76813 8.44642H7.68842H7.8949V7.93816L5.77113 5.62279H4.76824V7.44642C4.76824 7.9987 5.21585 8.44642 5.76813 8.44642Z" fill="#e6ddff"/>
<path fill-rule="evenodd" clip-rule="evenodd" d="M11.5126 12.3325L11.5123 12.3763H8.23542V13.2798H11.8383C12.4662 13.2798 12.4667 12.5757 12.4667 12.5757C12.4785 12.5432 12.4699 7.33226 12.4667 5.54014L9.95564 2.72505H5.56066C5.56066 2.72505 5.52139 2.71407 5.46248 2.72505C5.28588 2.75803 4.93228 2.9015 4.93228 3.42919V7.26014H5.88994V3.62861H9.50994L11.5096 5.87041C11.5113 6.82386 11.5137 8.35807 11.5147 9.71839C11.5152 10.4837 11.5153 11.1933 11.5145 11.7134C11.5141 11.9736 11.5135 12.1853 11.5126 12.3325Z" fill="#e6ddff"/>
<path d="M9.37485 6.19324H11.3377H11.5472V5.68499L9.39248 3.36961H8.37497V5.19324C8.37497 5.74553 8.82256 6.19324 9.37485 6.19324Z" fill="#e6ddff"/>
<path fill-rule="evenodd" clip-rule="evenodd" d="M13.6763 10.0793L13.676 10.1231H11.9851V11.0267H13.9981C14.6185 11.0267 14.619 10.3225 14.619 10.3225C14.6307 10.2901 14.6221 5.0791 14.619 3.28698L12.1378 0.471888H7.7951C7.7951 0.471888 7.7563 0.460914 7.69809 0.471888C7.52359 0.50487 7.17419 0.648342 7.17419 1.17603V3.14055H8.12046V1.37545H11.6974L13.6733 3.61725C13.6749 4.5707 13.6774 6.10491 13.6783 7.46523C13.6788 8.2305 13.6789 8.94013 13.6781 9.46024C13.6777 9.72049 13.6771 9.93218 13.6763 10.0793Z" fill="#e6ddff"/>
<path d="M11.5759 3.94007H13.5035H13.7105V3.43182L11.5814 1.11644H10.576V2.94007C10.576 3.49235 11.0236 3.94007 11.5759 3.94007Z" fill="#e6ddff"/>
</svg>
