<svg height="16" width="16" xmlns="http://www.w3.org/2000/svg">
  <path d="m10.5 1c-.277 0-.5.2231-.5.5v1.7931l-1.2676-1.2676c-.1958-.1959-.5111-.1959-.707 0s-.1959.5112 0 .707l1.2676 1.2675h-1.793c-.277 0-.5.2231-.5.5 0 .2771.223.5.5.5h1.793l-1.2676 1.2677c-.1959.1958-.1959.5111 0 .707s.5112.1959.707 0l1.2676-1.2676v1.7929c0 .2771.223.5.5.5s.5-.2229.5-.5v-1.7929l1.268 1.2676c.195.1959.511.1959.707 0 .195-.1959.195-.5112 0-.707l-1.268-1.2677h1.793c.277 0 .5-.2229.5-.5 0-.2769-.223-.5-.5-.5h-1.793l1.268-1.2675c.195-.1958.195-.5111 0-.707-.196-.1959-.512-.1959-.707 0l-1.268 1.2676v-1.7931c0-.2769-.223-.5-.5-.5zm-8 11c-.8284 0-1.5.672-1.5 1.5s.6716 1.5 1.5 1.5 1.5-.672 1.5-1.5-.6716-1.5-1.5-1.5z" fill="#e6ddff"/>
</svg>
